<svg xmlns="http://www.w3.org/2000/svg" width="5300" height="7495" viewBox="0 0 5300 7495">
  <g fill="none" fill-rule="evenodd" stroke="#000" transform="translate(533 825)">
    <g transform="translate(89 1214)">
      <rect width="666" height="409" x="7" y="7" stroke-width="14"/>
      <rect width="171" height="155" x="70.5" y="168.5" stroke-width="7"/>
      <rect width="171" height="155" x="429.5" y="168.5" stroke-width="7"/>
    </g>
    <g transform="translate(1281 1205)">
      <rect width="638" height="426" x="7" y="7" stroke-width="14"/>
      <rect width="158" height="116" x="52.5" y="167.5" stroke-width="7"/>
      <rect width="158" height="116" x="444.5" y="167.5" stroke-width="7"/>
    </g>
    <circle cx="429" cy="429" r="422" stroke-width="14"/>
    <circle cx="429" cy="433" r="180.5" stroke-width="7"/>
    <path stroke-width="7" d="M145.14689,363.481046 L83.0389554,358.43162 L82.5159903,358.170138 C82.5146271,358.17016 82.5126263,358.170034 82.5099651,358.169781 C82.3779948,358.157212 82.1749716,358.165852 81.905247,358.207348 C81.1646977,358.321278 80.1574845,358.646186 78.9195315,359.196387 C71.955058,362.291709 65.4992235,369.304081 61.3370249,382.54744 C57.7989933,393.804813 56.1701545,410.986327 56.5283376,434.039757 C56.2602156,456.536973 57.8989434,473.372467 61.3806447,484.450607 C65.5428433,497.693966 71.9986777,504.706338 78.9631513,507.80166 C80.2011043,508.351861 81.2083175,508.676768 81.9488668,508.790699 C82.2185914,508.832195 82.4216146,508.840834 82.5535848,508.828266 C82.5562461,508.828012 82.5582468,508.827887 82.55961,508.827909 L83.0825752,508.566427 L145.19051,503.517001 C160.962071,501.611144 173.113847,495.37096 181.839911,484.775025 C195.882673,467.723099 202.825056,450.715129 202.542116,433.056071 C202.257238,415.276072 195.388421,398.727752 181.796291,382.223022 C173.070227,371.627087 160.918451,365.386903 145.14689,363.481046 Z M82.55961,508.827909 C82.5708313,508.828094 82.5388445,508.838292 82.4764191,508.869505 L82.55961,508.827909 Z"/>
    <g transform="translate(308 5340)">
      <rect width="229" height="157" x="7" y="7" stroke-width="14"/>
      <rect width="35" height="44" x="70.5" y="59.5" stroke-width="7"/>
    </g>
    <g transform="translate(3693 2256)">
      <rect width="528" height="324" x="7" y="7" stroke-width="14"/>
      <rect width="135" height="227" x="58.5" y="55.5" stroke-width="7"/>
    </g>
    <g transform="translate(3823 4328)">
      <rect width="268" height="180" x="7" y="7" stroke-width="14"/>
      <rect width="275" height="60" x="3.5" y="3.5" stroke-width="7"/>
    </g>
    <g transform="translate(1466 4328)">
      <rect width="269" height="180" x="7" y="7" stroke-width="14"/>
      <rect width="166" height="60" x="56.5" y="82.5" stroke-width="7"/>
    </g>
    <g transform="translate(3762 3301)">
      <rect width="391" height="235" x="7" y="7" stroke-width="14"/>
      <rect width="74" height="86" x="62.5" y="86.5" stroke-width="7"/>
    </g>
    <g transform="translate(1178)">
      <path stroke-width="7" d="M422.61965,64.5 C411.046193,64.5 404.937427,65.7553957 399.067373,68.8947349 C393.810646,71.7060632 389.706063,75.8106463 386.894735,81.0673733 C383.755396,86.9374273 382.5,93.0461928 382.498734,104.525508 C383.610908,145.859027 385.210514,178.448562 387.295073,202.278216 C388.710842,218.462577 395.305317,237.407875 404.546529,253.498508 C412.849142,267.954871 422.03516,277.5 426.61965,277.5 L431.38035,277.5 C435.96484,277.5 445.150858,267.954871 453.453471,253.498508 C462.694683,237.407875 469.289158,218.462577 470.704927,202.278216 C472.789486,178.448562 474.389092,145.859027 475.5,104.61965 C475.5,93.0461928 474.244604,86.9374273 471.105265,81.0673733 C468.293937,75.8106463 464.189354,71.7060632 458.932627,68.8947349 C453.062573,65.7553957 446.953807,64.5 435.38035,64.5 L422.61965,64.5 Z"/>
      <path stroke-width="7" d="M198.636058,454.183013 C187.062601,454.183013 180.953835,455.438408 175.083781,458.577748 C169.827054,461.389076 165.722471,465.493659 162.911143,470.750386 C159.771803,476.62044 158.516408,482.729206 158.515141,494.208521 C159.627315,535.542039 161.226922,568.131574 163.311481,591.961229 C164.727249,608.14559 171.321725,627.090888 180.562936,643.181521 C188.86555,657.637884 198.051568,667.183013 202.636058,667.183013 L207.396758,667.183013 C211.981247,667.183013 221.167265,657.637884 229.469879,643.181521 C238.711091,627.090888 245.305566,608.14559 246.721334,591.961229 C248.805894,568.131574 250.4055,535.542039 251.516408,494.302663 C251.516408,482.729206 250.261012,476.62044 247.121673,470.750386 C244.310344,465.493659 240.205761,461.389076 234.949034,458.577748 C229.07898,455.438408 222.970215,454.183013 211.396758,454.183013 L198.636058,454.183013 Z" transform="rotate(-120 205.016 560.683)"/>
      <path stroke-width="7" d="M648.103242,453.316987 C636.529785,453.316987 630.42102,454.572383 624.550966,457.711722 C619.294239,460.523051 615.189656,464.627634 612.378327,469.884361 C609.238988,475.754415 607.983592,481.86318 607.982326,493.342496 C609.0945,534.676014 610.694106,567.265549 612.778666,591.095203 C614.194434,607.279565 620.788909,626.224862 630.030121,642.315495 C638.332735,656.771859 647.518753,666.316987 652.103242,666.316987 L656.863942,666.316987 C661.448432,666.316987 670.63445,656.771859 678.937064,642.315495 C688.178275,626.224862 694.772751,607.279565 696.188519,591.095203 C698.273078,567.265549 699.872685,534.676014 700.983592,493.436637 C700.983592,481.86318 699.728197,475.754415 696.588857,469.884361 C693.777529,464.627634 689.672946,460.523051 684.416219,457.711722 C678.546165,454.572383 672.437399,453.316987 660.863942,453.316987 L648.103242,453.316987 Z" transform="rotate(120 654.484 559.817)"/>
      <circle cx="429" cy="429" r="422" stroke-width="14"/>
      <circle cx="429.5" cy="429.5" r="105" stroke-width="7"/>
    </g>
    <g transform="translate(2588 228)">
      <rect width="53" height="57" x="54.5" y="172.5" stroke-width="7"/>
      <rect width="53" height="57" x="290.5" y="172.5" stroke-width="7"/>
      <circle cx="197.5" cy="197.5" r="190.5" stroke-width="14"/>
      <circle cx="197.5" cy="197.5" r="44" stroke-width="7"/>
    </g>
    <g transform="translate(2664 5340)">
      <rect width="229" height="157" x="7" y="7" stroke-width="14"/>
      <rect width="35" height="44" x="80.5" y="69.5" stroke-width="7"/>
    </g>
    <g transform="translate(1336 3256)">
      <rect width="528" height="324" x="7" y="7" stroke-width="14"/>
      <rect width="82" height="101" x="141.5" y="137.5" stroke-width="7"/>
    </g>
    <g transform="translate(2446 1214)">
      <rect width="666" height="409" x="7" y="7" stroke-width="14"/>
      <rect width="171" height="155" x="70.5" y="168.5" stroke-width="7"/>
      <rect width="171" height="155" x="429.5" y="168.5" stroke-width="7"/>
    </g>
    <g transform="translate(1303 2222)">
      <rect width="594" height="392" x="7" y="7" stroke-width="14"/>
      <rect width="107" height="271" x="411.5" y="68.5" stroke-width="7"/>
    </g>
    <g transform="translate(2576 3292)">
      <rect width="406" height="253" x="7" y="7" stroke-width="14"/>
      <circle cx="146" cy="135" r="82.5" stroke-width="7"/>
    </g>
    <g transform="translate(2645 4328)">
      <rect width="268" height="180" x="7" y="7" stroke-width="14"/>
      <rect width="165" height="60" x="56.5" y="82.5" stroke-width="7"/>
    </g>
    <g transform="translate(2488 2238)">
      <rect width="581" height="360" x="7" y="7" stroke-width="14"/>
      <rect width="451" height="97" x="65.5" y="131.5" stroke-width="7"/>
    </g>
    <g transform="translate(251 4307)">
      <rect width="343" height="222" x="7" y="7" stroke-width="14"/>
      <rect width="35" height="129" x="91.5" y="59.5" stroke-width="7"/>
    </g>
    <g transform="translate(78 2205)">
      <rect width="689" height="427" x="7" y="7" stroke-width="14"/>
      <rect width="534" height="194" x="75.5" y="100.5" stroke-width="7"/>
    </g>
    <g transform="translate(158 3256)">
      <rect width="528" height="324" x="7" y="7" stroke-width="14"/>
      <rect width="135" height="227" x="57.5" y="55.5" stroke-width="7"/>
    </g>
    <g transform="translate(1486 5340)">
      <rect width="229" height="157" x="7" y="7" stroke-width="14"/>
      <rect width="55" height="79" x="40.5" y="49.5" stroke-width="7"/>
    </g>
    <g transform="translate(3693 1267)">
      <rect width="528" height="303" x="7" y="7" stroke-width="14"/>
      <rect width="129" height="124" x="59.5" y="112.5" stroke-width="7"/>
      <rect width="129" height="124" x="340.5" y="112.5" stroke-width="7"/>
    </g>
  </g>
</svg>
