<?xml version="1.0" encoding="UTF-8" standalone="no"?>
<!-- Created by Ashley Blewer - This work is licensed under a Creative Commons Attribution 4.0 International License -->

<svg
   width="544"
   height="480"
   viewBox="0 0 143.93334 127"
   version="1.1"
   id="svg2490"
   inkscape:version="1.2.2 (1:1.2.2+202212051552+b0a8486541)"
   sodipodi:docname="1600-magic-lantern-3.svg"
   xmlns:inkscape="http://www.inkscape.org/namespaces/inkscape"
   xmlns:sodipodi="http://sodipodi.sourceforge.net/DTD/sodipodi-0.dtd"
   xmlns="http://www.w3.org/2000/svg"
   xmlns:svg="http://www.w3.org/2000/svg">
  <sodipodi:namedview
     id="namedview2492"
     pagecolor="#ffffff"
     bordercolor="#666666"
     borderopacity="1.0"
     inkscape:pageshadow="2"
     inkscape:pageopacity="0.0"
     inkscape:pagecheckerboard="0"
     inkscape:document-units="mm"
     showgrid="false"
     units="px"
     inkscape:zoom="0.90583674"
     inkscape:cx="53.541657"
     inkscape:cy="254.46086"
     inkscape:window-width="1846"
     inkscape:window-height="1136"
     inkscape:window-x="0"
     inkscape:window-y="0"
     inkscape:window-maximized="1"
     inkscape:current-layer="g4731"
     inkscape:showpageshadow="2"
     inkscape:deskcolor="#d1d1d1" />
  <defs
     id="defs2487" />
  <g
     inkscape:label="Layer 1"
     inkscape:groupmode="layer"
     id="layer1">
    <g
       id="g4731"
       transform="matrix(0.32961229,0,0,0.32903008,-241.78905,1.73126)"
       style="stroke-width:2.68698">
      <g
         id="g104528"
         transform="matrix(1,0,0,-1,0,792)"
         style="stroke-width:2.68698">
        <g
           id="g104530"
           style="stroke-width:2.68698" />
      </g>
      <g
         id="g104996"
         transform="matrix(1,0,0,-1,0,792)"
         style="stroke-width:2.68698">
        <g
           id="g104998"
           style="stroke-width:2.68698" />
      </g>
      <g
         id="g8506"
         transform="matrix(1.558587,0,0,1.5613448,298.1253,-1265.281)">
        <g
           id="g2898"
           transform="matrix(1,0,0,-1,96.410801,371.93506)">
          <path
             d="m 209.957,-640.977 c -4.418,49.356 -9.73,101.204 -7.266,150.848"
             style="fill:none;stroke:#000000;stroke-width:2.61674;stroke-linecap:round;stroke-linejoin:round;stroke-miterlimit:10;stroke-dasharray:none;stroke-opacity:1"
             id="path2900" />
        </g>
        <g
           id="g2902"
           transform="matrix(1,0,0,-1,96.410801,371.93506)">
          <path
             d="m 202.691,-490.129 c -7.23,-23.383 -5.386,-46.062 0.262,-68.965"
             style="fill:none;stroke:#000000;stroke-width:2.61674;stroke-linecap:round;stroke-linejoin:round;stroke-miterlimit:10;stroke-dasharray:none;stroke-opacity:1"
             id="path2904" />
        </g>
        <g
           id="g2906"
           transform="matrix(1,0,0,-1,96.410801,371.93506)">
          <path
             d="m 203.223,-493.738 c -2.352,13.926 13.273,11.129 22.086,11.633 l 51.093,0.914 c 10.145,-0.672 20.528,-1.079 30.418,-3.34"
             style="fill:none;stroke:#000000;stroke-width:2.61674;stroke-linecap:round;stroke-linejoin:round;stroke-miterlimit:10;stroke-dasharray:none;stroke-opacity:1"
             id="path2908" />
        </g>
        <g
           id="g2910"
           transform="matrix(1,0,0,-1,96.410801,371.93506)">
          <path
             d="m 306.867,-484.812 c 8.117,-3.18 7.172,-19.512 9.16,-26.047"
             style="fill:none;stroke:#000000;stroke-width:2.61674;stroke-linecap:round;stroke-linejoin:round;stroke-miterlimit:10;stroke-dasharray:none;stroke-opacity:1"
             id="path2912" />
        </g>
        <g
           id="g2914"
           transform="matrix(1,0,0,-1,96.410801,371.93506)">
          <path
             d="m 298.297,-484.492 c -3.207,3.488 7.82,9.109 0.168,14.222"
             style="fill:none;stroke:#000000;stroke-width:2.61674;stroke-linecap:round;stroke-linejoin:round;stroke-miterlimit:10;stroke-dasharray:none;stroke-opacity:1"
             id="path2916" />
        </g>
        <g
           id="g2918"
           transform="matrix(1,0,0,-1,96.410801,371.93506)">
          <path
             d="m 216.223,-481.137 c -2.391,4.852 3.691,5.602 3.691,5.602 26.484,3.965 80.996,1.16 80.996,1.16"
             style="fill:none;stroke:#000000;stroke-width:2.61674;stroke-linecap:round;stroke-linejoin:round;stroke-miterlimit:10;stroke-dasharray:none;stroke-opacity:1"
             id="path2920" />
        </g>
        <g
           id="g2922"
           transform="matrix(1,0,0,-1,96.410801,371.93506)">
          <path
             d="m 298.465,-470.27 c -25.32,2.176 -51.34,2.493 -76.567,-0.918 -1.613,0.434 -1.984,-4.347 -1.984,-4.347"
             style="fill:none;stroke:#000000;stroke-width:2.61674;stroke-linecap:round;stroke-linejoin:round;stroke-miterlimit:10;stroke-dasharray:none;stroke-opacity:1"
             id="path2924" />
        </g>
        <g
           id="g2926"
           transform="matrix(1,0,0,-1,96.410801,371.93506)">
          <path
             d="m 305.129,-486.137 c 3.617,-48.875 3.41,-97.945 7.078,-146.816"
             style="fill:none;stroke:#000000;stroke-width:2.61674;stroke-linecap:round;stroke-linejoin:round;stroke-miterlimit:10;stroke-dasharray:none;stroke-opacity:1"
             id="path2928" />
        </g>
        <g
           id="g2930"
           transform="matrix(1,0,0,-1,96.410801,371.93506)">
          <path
             d="m 209.957,-640.977 c 64.445,4.586 128.961,8.215 193.535,10.383"
             style="fill:none;stroke:#000000;stroke-width:2.61674;stroke-linecap:round;stroke-linejoin:round;stroke-miterlimit:10;stroke-dasharray:none;stroke-opacity:1"
             id="path2932" />
        </g>
        <g
           id="g2934"
           transform="matrix(1,0,0,-1,96.410801,371.93506)">
          <path
             d="m 395.148,-631.902 c 0.274,-1.059 0,-13.493 0,-13.493"
             style="fill:none;stroke:#000000;stroke-width:2.61674;stroke-linecap:round;stroke-linejoin:round;stroke-miterlimit:10;stroke-dasharray:none;stroke-opacity:1"
             id="path2936" />
        </g>
        <g
           id="g2938"
           transform="matrix(1,0,0,-1,96.410801,371.93506)">
          <path
             d="m 398.703,-631.664 c 1.07,-1.797 2.188,-10.398 2.336,-12.422"
             style="fill:none;stroke:#000000;stroke-width:2.61674;stroke-linecap:round;stroke-linejoin:round;stroke-miterlimit:10;stroke-dasharray:none;stroke-opacity:1"
             id="path2940" />
        </g>
        <g
           id="g2942"
           transform="matrix(1,0,0,-1,96.410801,371.93506)">
          <path
             d="m 389.512,-645.539 c 4.761,-0.074 17.793,0.144 17.793,0.144"
             style="fill:none;stroke:#000000;stroke-width:2.61674;stroke-linecap:round;stroke-linejoin:round;stroke-miterlimit:10;stroke-dasharray:none;stroke-opacity:1"
             id="path2944" />
        </g>
        <g
           id="g2946"
           transform="matrix(1,0,0,-1,96.410801,371.93506)">
          <path
             d="m 403.492,-630.594 c -1.816,17.035 -2.406,34.032 -1.812,51.153"
             style="fill:none;stroke:#000000;stroke-width:2.61674;stroke-linecap:round;stroke-linejoin:round;stroke-miterlimit:10;stroke-dasharray:none;stroke-opacity:1"
             id="path2948" />
        </g>
        <g
           id="g2950"
           transform="matrix(1,0,0,-1,96.410801,371.93506)">
          <path
             d="m 404.391,-577.727 c -14.133,-2.851 -30.739,-0.144 -45.012,-2.644 -4.77,-0.223 -9.617,-1.113 -14.258,-1.578"
             style="fill:none;stroke:#000000;stroke-width:2.61674;stroke-linecap:round;stroke-linejoin:round;stroke-miterlimit:10;stroke-dasharray:none;stroke-opacity:1"
             id="path2952" />
        </g>
        <g
           id="g2954"
           transform="matrix(1,0,0,-1,96.410801,371.93506)">
          <path
             d="m 328.914,-583.215 c -5.391,0.422 -10.863,-0.515 -16.242,-0.246"
             style="fill:none;stroke:#000000;stroke-width:2.61674;stroke-linecap:round;stroke-linejoin:round;stroke-miterlimit:10;stroke-dasharray:none;stroke-opacity:1"
             id="path2956" />
        </g>
        <g
           id="g2958"
           transform="matrix(1,0,0,-1,96.410801,371.93506)">
          <path
             d="m 332.895,-575.625 c -1.981,-6.914 3.636,-17.309 10.293,-9.414 1.39,9.641 -2.512,7.246 -8.415,8.965"
             style="fill:none;stroke:#000000;stroke-width:2.61674;stroke-linecap:round;stroke-linejoin:round;stroke-miterlimit:10;stroke-dasharray:none;stroke-opacity:1"
             id="path2960" />
        </g>
        <g
           id="g2962"
           transform="matrix(1,0,0,-1,96.410801,371.93506)">
          <path
             d="m 337.988,-575.949 c -5.328,8.922 10.422,9.875 5.696,0.375 0.703,-2.477 -1.875,-2.555 -2.981,-1.512"
             style="fill:none;stroke:#000000;stroke-width:2.61674;stroke-linecap:round;stroke-linejoin:round;stroke-miterlimit:10;stroke-dasharray:none;stroke-opacity:1"
             id="path2964" />
        </g>
        <g
           id="g2966"
           transform="matrix(1,0,0,-1,96.410801,371.93506)">
          <path
             d="m 345.883,-572.695 c -2.481,14.687 -3.336,29.765 -5.789,44.523 -0.242,2.363 -0.356,5.488 -0.637,7.375"
             style="fill:none;stroke:#000000;stroke-width:2.61674;stroke-linecap:round;stroke-linejoin:round;stroke-miterlimit:10;stroke-dasharray:none;stroke-opacity:1"
             id="path2968" />
        </g>
        <g
           id="g2970"
           transform="matrix(1,0,0,-1,96.410801,371.93506)">
          <path
             d="m 350.922,-571.199 c -4.731,21.437 -3.317,43.633 -7.184,65.191"
             style="fill:none;stroke:#000000;stroke-width:2.61674;stroke-linecap:round;stroke-linejoin:round;stroke-miterlimit:10;stroke-dasharray:none;stroke-opacity:1"
             id="path2972" />
        </g>
        <g
           id="g2974"
           transform="matrix(1,0,0,-1,96.410801,371.93506)">
          <path
             d="m 353.605,-572.828 c -3.222,22.762 -4.25,45.726 -6.277,68.605 l -0.223,0.098 0.012,-0.129"
             style="fill:none;stroke:#000000;stroke-width:2.61674;stroke-linecap:round;stroke-linejoin:round;stroke-miterlimit:10;stroke-dasharray:none;stroke-opacity:1"
             id="path2976" />
        </g>
        <g
           id="g2978"
           transform="matrix(1,0,0,-1,96.410801,371.93506)">
          <path
             d="m 346.832,-573.996 c 10.906,-5.496 5.613,9.137 14.828,7.879 8.301,0.57 20.914,-0.813 26.746,0.125"
             style="fill:none;stroke:#000000;stroke-width:2.61674;stroke-linecap:round;stroke-linejoin:round;stroke-miterlimit:10;stroke-dasharray:none;stroke-opacity:1"
             id="path2980" />
        </g>
        <g
           id="g2982"
           transform="matrix(1,0,0,-1,96.410801,371.93506)">
          <path
             d="m 352.23,-560.262 c 10.368,1.461 23.028,2.657 33.473,2.481 3.402,1.066 3.852,-6.625 2.703,-8.211"
             style="fill:none;stroke:#000000;stroke-width:2.61674;stroke-linecap:round;stroke-linejoin:round;stroke-miterlimit:10;stroke-dasharray:none;stroke-opacity:1"
             id="path2984" />
        </g>
        <g
           id="g2986"
           transform="matrix(1,0,0,-1,96.410801,371.93506)">
          <path
             d="m 352.852,-554.703 c 5.312,0.023 10.293,3.387 10.902,-4.25"
             style="fill:none;stroke:#000000;stroke-width:2.61674;stroke-linecap:round;stroke-linejoin:round;stroke-miterlimit:10;stroke-dasharray:none;stroke-opacity:1"
             id="path2988" />
        </g>
        <g
           id="g2990"
           transform="matrix(1,0,0,-1,96.410801,371.93506)">
          <path
             d="m 388.59,-557.785 c 2.558,0.234 6.308,0.039 8.226,0.933"
             style="fill:none;stroke:#000000;stroke-width:2.61674;stroke-linecap:round;stroke-linejoin:round;stroke-miterlimit:10;stroke-dasharray:none;stroke-opacity:1"
             id="path2992" />
        </g>
        <g
           id="g2994"
           transform="matrix(1,0,0,-1,96.410801,371.93506)">
          <path
             d="m 404.391,-577.727 c -1.575,23.735 -2.829,49.832 -5.254,73.45"
             style="fill:none;stroke:#000000;stroke-width:2.61674;stroke-linecap:round;stroke-linejoin:round;stroke-miterlimit:10;stroke-dasharray:none;stroke-opacity:1"
             id="path2996" />
        </g>
        <g
           id="g2998"
           transform="matrix(1,0,0,-1,96.410801,371.93506)">
          <path
             d="m 404.391,-577.727 c 1.89,8.289 14.113,15.723 18.011,22.184"
             style="fill:none;stroke:#000000;stroke-width:2.61674;stroke-linecap:round;stroke-linejoin:round;stroke-miterlimit:10;stroke-dasharray:none;stroke-opacity:1"
             id="path3000" />
        </g>
        <g
           id="g3002"
           transform="matrix(1,0,0,-1,96.410801,371.93506)">
          <path
             d="m 416.688,-512.562 c -2.071,5.609 -11.118,10.253 -16.055,8.558"
             style="fill:none;stroke:#000000;stroke-width:2.61674;stroke-linecap:round;stroke-linejoin:round;stroke-miterlimit:10;stroke-dasharray:none;stroke-opacity:1"
             id="path3004" />
        </g>
        <g
           id="g3006"
           transform="matrix(1,0,0,-1,96.410801,371.93506)">
          <path
             d="m 406.371,-505.539 c 0.688,-16.399 3.84,-62.887 3.84,-62.887"
             style="fill:none;stroke:#000000;stroke-width:2.61674;stroke-linecap:round;stroke-linejoin:round;stroke-miterlimit:10;stroke-dasharray:none;stroke-opacity:1"
             id="path3008" />
        </g>
        <g
           id="g3010"
           transform="matrix(1,0,0,-1,96.410801,371.93506)">
          <path
             d="m 416.688,-512.562 c 0,0 0.582,-22.649 1.394,-27.973"
             style="fill:none;stroke:#000000;stroke-width:2.61674;stroke-linecap:round;stroke-linejoin:round;stroke-miterlimit:10;stroke-dasharray:none;stroke-opacity:1"
             id="path3012" />
        </g>
        <g
           id="g3014"
           transform="matrix(1,0,0,-1,96.410801,371.93506)">
          <path
             d="m 421.812,-545.141 c -5.988,-9.254 9.122,-20.664 16.243,-11.964 7.785,7.781 -2.828,22.039 -12.356,15.753 -1.992,-1.003 -2.676,-1.914 -3.887,-3.789"
             style="fill:none;stroke:#000000;stroke-width:2.61674;stroke-linecap:round;stroke-linejoin:round;stroke-miterlimit:10;stroke-dasharray:none;stroke-opacity:1"
             id="path3016" />
        </g>
        <g
           id="g3018"
           transform="matrix(1,0,0,-1,96.410801,371.93506)">
          <path
             d="m 445.457,-547.422 c -8.418,-2.863 9.023,-8.281 0,0"
             style="fill:none;stroke:#000000;stroke-width:2.61674;stroke-linecap:round;stroke-linejoin:round;stroke-miterlimit:10;stroke-dasharray:none;stroke-opacity:1"
             id="path3020" />
        </g>
        <g
           id="g3022"
           transform="matrix(1,0,0,-1,96.410801,371.93506)">
          <path
             d="m 445.457,-547.422 c -1.43,11.324 -2.375,27.766 -2.769,39.227"
             style="fill:none;stroke:#000000;stroke-width:2.61674;stroke-linecap:round;stroke-linejoin:round;stroke-miterlimit:10;stroke-dasharray:none;stroke-opacity:1"
             id="path3024" />
        </g>
        <g
           id="g3026"
           transform="matrix(1,0,0,-1,96.410801,371.93506)">
          <path
             d="m 442.688,-508.195 c -9.407,-3.004 -4.114,-28.207 -3.192,-37.539"
             style="fill:none;stroke:#000000;stroke-width:2.61674;stroke-linecap:round;stroke-linejoin:round;stroke-miterlimit:10;stroke-dasharray:none;stroke-opacity:1"
             id="path3028" />
        </g>
        <g
           id="g3030"
           transform="matrix(1,0,0,-1,96.410801,371.93506)">
          <path
             d="m 437.848,-512.562 h -21.16"
             style="fill:none;stroke:#000000;stroke-width:2.61674;stroke-linecap:round;stroke-linejoin:round;stroke-miterlimit:10;stroke-dasharray:none;stroke-opacity:1"
             id="path3032" />
        </g>
        <g
           id="g3034"
           transform="matrix(1,0,0,-1,96.410801,371.93506)">
          <path
             d="m 348.438,-509.016 c 5.843,-0.757 14.773,4.996 7.89,10.106 -4.098,0.89 -8.094,0.441 -11.25,-1.278"
             style="fill:none;stroke:#000000;stroke-width:2.61674;stroke-linecap:round;stroke-linejoin:round;stroke-miterlimit:10;stroke-dasharray:none;stroke-opacity:1"
             id="path3036" />
        </g>
        <g
           id="g3038"
           transform="matrix(1,0,0,-1,96.410801,371.93506)">
          <path
             d="m 345.078,-500.188 c -0.488,-1.738 0.113,-4.992 0.727,-5.976"
             style="fill:none;stroke:#000000;stroke-width:2.61674;stroke-linecap:round;stroke-linejoin:round;stroke-miterlimit:10;stroke-dasharray:none;stroke-opacity:1"
             id="path3040" />
        </g>
        <g
           id="g3042"
           transform="matrix(1,0,0,-1,96.410801,371.93506)">
          <path
             d="m 342.559,-506.91 c -2.883,2.265 -13.899,-7.531 -13.067,-2.688"
             style="fill:none;stroke:#000000;stroke-width:2.61674;stroke-linecap:round;stroke-linejoin:round;stroke-miterlimit:10;stroke-dasharray:none;stroke-opacity:1"
             id="path3044" />
        </g>
        <g
           id="g3046"
           transform="matrix(1,0,0,-1,96.410801,371.93506)">
          <path
             d="m 328.891,-500.93 c -0.739,-1.14 1.148,-11.519 0.601,-8.668"
             style="fill:none;stroke:#000000;stroke-width:2.61674;stroke-linecap:round;stroke-linejoin:round;stroke-miterlimit:10;stroke-dasharray:none;stroke-opacity:1"
             id="path3048" />
        </g>
        <g
           id="g3050"
           transform="matrix(1,0,0,-1,96.410801,371.93506)">
          <path
             d="m 328.367,-501.441 c 0,0 -7.199,-7.579 -5.691,-9.625"
             style="fill:none;stroke:#000000;stroke-width:2.61674;stroke-linecap:round;stroke-linejoin:round;stroke-miterlimit:10;stroke-dasharray:none;stroke-opacity:1"
             id="path3052" />
        </g>
        <g
           id="g3054"
           transform="matrix(1,0,0,-1,96.410801,371.93506)">
          <path
             d="m 322.676,-511.066 c -4.129,0.722 -8.555,-0.106 -12.457,-0.059"
             style="fill:none;stroke:#000000;stroke-width:2.61674;stroke-linecap:round;stroke-linejoin:round;stroke-miterlimit:10;stroke-dasharray:none;stroke-opacity:1"
             id="path3056" />
        </g>
        <g
           id="g3058"
           transform="matrix(1,0,0,-1,96.410801,371.93506)">
          <path
             d="m 310.219,-511.125 c -1.309,7.949 4.066,27.937 -10.356,24.738 l -0.551,0.055 -1.015,1.84"
             style="fill:none;stroke:#000000;stroke-width:2.61674;stroke-linecap:round;stroke-linejoin:round;stroke-miterlimit:10;stroke-dasharray:none;stroke-opacity:1"
             id="path3060" />
        </g>
        <g
           id="g3062"
           transform="matrix(1,0,0,-1,96.410801,371.93506)">
          <path
             d="m 214.383,-555.895 c -8.371,-8.769 4.844,-25.39 13.98,-13.015 5.446,9.234 -1.254,21.66 -13.98,13.015"
             style="fill:none;stroke:#000000;stroke-width:2.61674;stroke-linecap:round;stroke-linejoin:round;stroke-miterlimit:10;stroke-dasharray:none;stroke-opacity:1"
             id="path3064" />
        </g>
        <g
           id="g3066"
           transform="matrix(1,0,0,-1,96.410801,371.93506)">
          <path
             d="m 272.527,-540.41 c -13.597,1.09 -14.074,-20.863 -1.961,-23.402 10.637,-2.821 16.821,9.078 13.704,18.066 -4.461,4.746 -6.477,5.242 -11.743,5.336"
             style="fill:none;stroke:#000000;stroke-width:2.61674;stroke-linecap:round;stroke-linejoin:round;stroke-miterlimit:10;stroke-dasharray:none;stroke-opacity:1"
             id="path3068" />
        </g>
        <g
           id="g3070"
           transform="matrix(1,0,0,-1,96.410801,371.93506)">
          <path
             d="m 332.543,-522.52 c 3.121,-13.718 1.176,-28.769 2.105,-42.089"
             style="fill:none;stroke:#000000;stroke-width:2.61674;stroke-linecap:round;stroke-linejoin:round;stroke-miterlimit:10;stroke-dasharray:none;stroke-opacity:1"
             id="path3072" />
        </g>
        <g
           id="g3074"
           transform="matrix(1,0,0,-1,96.410801,371.93506)">
          <path
             d="m 308.379,-551.84 12.262,0.973"
             style="fill:none;stroke:#000000;stroke-width:2.61674;stroke-linecap:round;stroke-linejoin:round;stroke-miterlimit:10;stroke-dasharray:none;stroke-opacity:1"
             id="path3076" />
        </g>
        <g
           id="g3078"
           transform="matrix(1,0,0,-1,96.410801,371.93506)">
          <path
             d="m 321.438,-521.215 c 2.894,-15.41 4.046,-31.086 5.562,-46.676 -0.109,-0.015 1.539,-6.05 1.367,-4.109"
             style="fill:none;stroke:#000000;stroke-width:2.61674;stroke-linecap:round;stroke-linejoin:round;stroke-miterlimit:10;stroke-dasharray:none;stroke-opacity:1"
             id="path3080" />
        </g>
        <g
           id="g3082"
           transform="matrix(1,0,0,-1,96.410801,371.93506)">
          <path
             d="m 324.273,-523.586 c -0.14,2.227 -1.019,11.375 3.301,8.75"
             style="fill:none;stroke:#000000;stroke-width:2.61674;stroke-linecap:round;stroke-linejoin:round;stroke-miterlimit:10;stroke-dasharray:none;stroke-opacity:1"
             id="path3084" />
        </g>
        <g
           id="g3086"
           transform="matrix(1,0,0,-1,96.410801,371.93506)">
          <path
             d="m 358.301,-504.699 c 14.09,-0.766 31.097,0.086 45.16,0.98 0.836,-0.242 6.715,-1.394 2.91,-1.82"
             style="fill:none;stroke:#000000;stroke-width:2.61674;stroke-linecap:round;stroke-linejoin:round;stroke-miterlimit:10;stroke-dasharray:none;stroke-opacity:1"
             id="path3088" />
        </g>
        <g
           id="g3090"
           transform="matrix(1,0,0,-1,96.410801,371.93506)">
          <path
             d="m 394.57,-504.23 c 0.77,-3.801 0.996,-10.872 1.157,-14.239"
             style="fill:none;stroke:#000000;stroke-width:2.61674;stroke-linecap:round;stroke-linejoin:round;stroke-miterlimit:10;stroke-dasharray:none;stroke-opacity:1"
             id="path3092" />
        </g>
        <g
           id="g3094"
           transform="matrix(1,0,0,-1,96.410801,371.93506)">
          <path
             d="m 212.387,-513.973 c 2.554,-12.187 1.218,-25.148 2.226,-37.648 l 0.125,-1.363 -0.355,-2.911"
             style="fill:none;stroke:#000000;stroke-width:2.61674;stroke-linecap:round;stroke-linejoin:round;stroke-miterlimit:10;stroke-dasharray:none;stroke-opacity:1"
             id="path3096" />
        </g>
        <g
           id="g3098"
           transform="matrix(1,0,0,-1,96.410801,371.93506)">
          <path
             d="m 212.387,-513.973 c 14.023,0.043 31.066,2.352 45.133,1.813 12.382,0.605 24.668,2.711 37.015,0.402"
             style="fill:none;stroke:#000000;stroke-width:2.61674;stroke-linecap:round;stroke-linejoin:round;stroke-miterlimit:10;stroke-dasharray:none;stroke-opacity:1"
             id="path3100" />
        </g>
        <g
           id="g3102"
           transform="matrix(1,0,0,-1,96.410801,371.93506)">
          <path
             d="m 294.75,-512.773 c 2.965,-19.145 1.797,-38.672 3.145,-57.989 l 0.414,-2.285 c -0.891,-0.015 0.617,-0.07 -0.266,-0.047"
             style="fill:none;stroke:#000000;stroke-width:2.61674;stroke-linecap:round;stroke-linejoin:round;stroke-miterlimit:10;stroke-dasharray:none;stroke-opacity:1"
             id="path3104" />
        </g>
        <g
           id="g3106"
           transform="matrix(1,0,0,-1,96.410801,371.93506)">
          <path
             d="m 298.043,-573.094 c 3.91,0.981 7.516,-8.699 -0.848,-6.894"
             style="fill:none;stroke:#000000;stroke-width:2.61674;stroke-linecap:round;stroke-linejoin:round;stroke-miterlimit:10;stroke-dasharray:none;stroke-opacity:1"
             id="path3108" />
        </g>
        <g
           id="g3110"
           transform="matrix(1,0,0,-1,96.410801,371.93506)">
          <path
             d="m 297.195,-579.988 c 0,0 2.762,-21.352 1.727,-33.09"
             style="fill:none;stroke:#000000;stroke-width:2.61674;stroke-linecap:round;stroke-linejoin:round;stroke-miterlimit:10;stroke-dasharray:none;stroke-opacity:1"
             id="path3112" />
        </g>
        <g
           id="g3114"
           transform="matrix(1,0,0,-1,96.410801,371.93506)">
          <path
             d="m 218.766,-616.375 80.156,3.297"
             style="fill:none;stroke:#000000;stroke-width:2.61674;stroke-linecap:round;stroke-linejoin:round;stroke-miterlimit:10;stroke-dasharray:none;stroke-opacity:1"
             id="path3116" />
        </g>
        <g
           id="g3118"
           transform="matrix(1,0,0,-1,96.410801,371.93506)">
          <path
             d="m 218.082,-616.312 c 0.094,14.707 -1.984,29.468 -1.016,44.226"
             style="fill:none;stroke:#000000;stroke-width:2.61674;stroke-linecap:round;stroke-linejoin:round;stroke-miterlimit:10;stroke-dasharray:none;stroke-opacity:1"
             id="path3120" />
        </g>
      </g>
    </g>
  </g>
</svg>
