<?xml version="1.0" encoding="UTF-8" standalone="no"?>
<!-- Created by Ashley Blewer - This work is licensed under a Creative Commons Attribution 4.0 International License -->

<svg
   width="544"
   height="480"
   viewBox="0 0 143.93334 127"
   version="1.1"
   id="svg2490"
   inkscape:version="1.2.2 (1:1.2.2+202212051552+b0a8486541)"
   sodipodi:docname="1600-magic-lantern-2.svg"
   xmlns:inkscape="http://www.inkscape.org/namespaces/inkscape"
   xmlns:sodipodi="http://sodipodi.sourceforge.net/DTD/sodipodi-0.dtd"
   xmlns="http://www.w3.org/2000/svg"
   xmlns:svg="http://www.w3.org/2000/svg">
  <sodipodi:namedview
     id="namedview2492"
     pagecolor="#ffffff"
     bordercolor="#666666"
     borderopacity="1.0"
     inkscape:pageshadow="2"
     inkscape:pageopacity="0.0"
     inkscape:pagecheckerboard="0"
     inkscape:document-units="mm"
     showgrid="false"
     units="px"
     inkscape:zoom="0.90583674"
     inkscape:cx="53.541657"
     inkscape:cy="254.46086"
     inkscape:window-width="1846"
     inkscape:window-height="1136"
     inkscape:window-x="0"
     inkscape:window-y="0"
     inkscape:window-maximized="1"
     inkscape:current-layer="g4731"
     inkscape:showpageshadow="2"
     inkscape:deskcolor="#d1d1d1" />
  <defs
     id="defs2487" />
  <g
     inkscape:label="Layer 1"
     inkscape:groupmode="layer"
     id="layer1">
    <g
       id="g4731"
       transform="matrix(0.32961229,0,0,0.32903008,-241.78905,1.73126)"
       style="stroke-width:2.68698">
      <g
         id="g104528"
         transform="matrix(1,0,0,-1,0,792)"
         style="stroke-width:2.68698">
        <g
           id="g104530"
           style="stroke-width:2.68698" />
      </g>
      <g
         id="g104996"
         transform="matrix(1,0,0,-1,0,792)"
         style="stroke-width:2.68698">
        <g
           id="g104998"
           style="stroke-width:2.68698" />
      </g>
      <g
         id="g8582"
         transform="matrix(1.0092551,0,0,1.011041,-33.644885,-784.73947)">
        <g
           id="g2158"
           transform="matrix(1,0,0,-1,96.410801,371.93506)">
          <path
             d="m 694.605,-680.207 1.625,172.785"
             style="fill:none;stroke:#000000;stroke-width:2.61674;stroke-linecap:round;stroke-linejoin:round;stroke-miterlimit:10;stroke-dasharray:none;stroke-opacity:1"
             id="path2160" />
        </g>
        <g
           id="g2162"
           transform="matrix(1,0,0,-1,96.410801,371.93506)">
          <path
             d="m 696.23,-507.422 c 93.141,1.11 287.915,-0.773 287.915,-0.773"
             style="fill:none;stroke:#000000;stroke-width:2.61674;stroke-linecap:round;stroke-linejoin:round;stroke-miterlimit:10;stroke-dasharray:none;stroke-opacity:1"
             id="path2164" />
        </g>
        <g
           id="g2166"
           transform="matrix(1,0,0,-1,96.410801,371.93506)">
          <path
             d="m 694.605,-680.207 c 95.243,-6.473 194.215,-3.746 289.54,-2.441"
             style="fill:none;stroke:#000000;stroke-width:2.61674;stroke-linecap:round;stroke-linejoin:round;stroke-miterlimit:10;stroke-dasharray:none;stroke-opacity:1"
             id="path2168" />
        </g>
        <g
           id="g2170"
           transform="matrix(1,0,0,-1,96.410801,371.93506)">
          <path
             d="m 984.145,-508.195 c -1.344,-58.688 -0.297,-80.809 -0.297,-80.809"
             style="fill:none;stroke:#000000;stroke-width:2.61674;stroke-linecap:round;stroke-linejoin:round;stroke-miterlimit:10;stroke-dasharray:none;stroke-opacity:1"
             id="path2172" />
        </g>
        <g
           id="g2174"
           transform="matrix(1,0,0,-1,96.410801,371.93506)">
          <path
             d="m 984.145,-682.648 c -1.344,58.691 -0.344,83.105 -0.344,83.105"
             style="fill:none;stroke:#000000;stroke-width:2.61674;stroke-linecap:round;stroke-linejoin:round;stroke-miterlimit:10;stroke-dasharray:none;stroke-opacity:1"
             id="path2176" />
        </g>
        <g
           id="g2178"
           transform="matrix(1,0,0,-1,96.410801,371.93506)">
          <path
             d="m 983.848,-589.004 c 2.703,-0.832 6.476,-0.062 6.925,-1.101 0.86,-2.668 0.84,-6.829 0.293,-9.524 1.547,-1.277 -2.586,-3.254 -3.582,-4.023 0.293,0.156 -0.367,3.293 -0.632,3.945"
             style="fill:none;stroke:#000000;stroke-width:2.61674;stroke-linecap:round;stroke-linejoin:round;stroke-miterlimit:10;stroke-dasharray:none;stroke-opacity:1"
             id="path2180" />
        </g>
        <g
           id="g2182"
           transform="matrix(1,0,0,-1,96.410801,371.93506)">
          <path
             d="m 991.242,-592.215 c 0,0 19.785,0.184 28.547,-0.711"
             style="fill:none;stroke:#000000;stroke-width:2.61674;stroke-linecap:round;stroke-linejoin:round;stroke-miterlimit:10;stroke-dasharray:none;stroke-opacity:1"
             id="path2184" />
        </g>
        <g
           id="g2186"
           transform="matrix(1,0,0,-1,96.410801,371.93506)">
          <path
             d="m 991.066,-599.629 30.414,0.168"
             style="fill:none;stroke:#000000;stroke-width:2.61674;stroke-linecap:round;stroke-linejoin:round;stroke-miterlimit:10;stroke-dasharray:none;stroke-opacity:1"
             id="path2188" />
        </g>
        <g
           id="g2190"
           transform="matrix(1,0,0,-1,96.410801,371.93506)">
          <path
             d="m 1019.789,-592.926 c 0.758,1.864 -1.359,5.227 3.074,5.059 0,0 7.625,-0.637 7.242,-0.551 0,0 -5.316,-55.582 -4.691,-56.164 l -0.266,0.078 1.043,-0.156"
             style="fill:none;stroke:#000000;stroke-width:2.61674;stroke-linecap:round;stroke-linejoin:round;stroke-miterlimit:10;stroke-dasharray:none;stroke-opacity:1"
             id="path2192" />
        </g>
        <g
           id="g2194"
           transform="matrix(1,0,0,-1,96.410801,371.93506)">
          <path
             d="m 1021.48,-599.461 c 0.016,-19.402 -2.918,-39.219 -5.16,-58.926 0.153,-0.867 4.024,-0.613 4.024,-0.613 -0.551,-0.008 5.074,0.895 4.695,1.121"
             style="fill:none;stroke:#000000;stroke-width:2.61674;stroke-linecap:round;stroke-linejoin:round;stroke-miterlimit:10;stroke-dasharray:none;stroke-opacity:1"
             id="path2196" />
        </g>
        <g
           id="g2198"
           transform="matrix(1,0,0,-1,96.410801,371.93506)">
          <path
             d="m 1026.191,-644.66 c 2.77,-3.539 8.711,-2.731 11.821,-1.547 1.621,0.102 5.523,2.66 5.523,2.66"
             style="fill:none;stroke:#000000;stroke-width:2.61674;stroke-linecap:round;stroke-linejoin:round;stroke-miterlimit:10;stroke-dasharray:none;stroke-opacity:1"
             id="path2200" />
        </g>
        <g
           id="g2202"
           transform="matrix(1,0,0,-1,96.410801,371.93506)">
          <path
             d="m 1025.039,-657.879 c 0,0 4.406,1.609 6.481,0.891 3.769,0.468 7.281,0.242 7.703,-3.95 0.308,-1.046 4.113,-5.074 3.547,-3.5"
             style="fill:none;stroke:#000000;stroke-width:2.61674;stroke-linecap:round;stroke-linejoin:round;stroke-miterlimit:10;stroke-dasharray:none;stroke-opacity:1"
             id="path2204" />
        </g>
        <g
           id="g2206"
           transform="matrix(1,0,0,-1,96.410801,371.93506)">
          <path
             d="m 1043.535,-643.547 c 0,0 29.887,-0.039 26.594,0.059"
             style="fill:none;stroke:#000000;stroke-width:2.61674;stroke-linecap:round;stroke-linejoin:round;stroke-miterlimit:10;stroke-dasharray:none;stroke-opacity:1"
             id="path2208" />
        </g>
        <g
           id="g2210"
           transform="matrix(1,0,0,-1,96.410801,371.93506)">
          <path
             d="m 1070.129,-643.488 c 0.777,-1.2 1.648,-10.184 1.648,-10.184 0,0 -1.613,-12.976 -0.703,-12.051"
             style="fill:none;stroke:#000000;stroke-width:2.61674;stroke-linecap:round;stroke-linejoin:round;stroke-miterlimit:10;stroke-dasharray:none;stroke-opacity:1"
             id="path2212" />
        </g>
        <g
           id="g2214"
           transform="matrix(1,0,0,-1,96.410801,371.93506)">
          <path
             d="m 1042.77,-664.438 c 0,0 28.109,-1.144 28.304,-1.285 l -0.195,0.141"
             style="fill:none;stroke:#000000;stroke-width:2.61674;stroke-linecap:round;stroke-linejoin:round;stroke-miterlimit:10;stroke-dasharray:none;stroke-opacity:1"
             id="path2216" />
        </g>
        <g
           id="g2218"
           transform="matrix(1,0,0,-1,96.410801,371.93506)">
          <path
             d="m 1042.227,-652.309 c 0,0 20.593,-0.121 28.277,-0.554 l -0.156,-0.024"
             style="fill:none;stroke:#000000;stroke-width:2.61674;stroke-linecap:round;stroke-linejoin:round;stroke-miterlimit:10;stroke-dasharray:none;stroke-opacity:1"
             id="path2220" />
        </g>
        <g
           id="g2222"
           transform="matrix(1,0,0,-1,96.410801,371.93506)">
          <path
             d="m 1043.535,-643.547 c 0.422,0.109 -0.973,-6.871 -1.308,-8.762 -0.891,-3.496 -0.09,-13.652 0.543,-12.129"
             style="fill:none;stroke:#000000;stroke-width:2.61674;stroke-linecap:round;stroke-linejoin:round;stroke-miterlimit:10;stroke-dasharray:none;stroke-opacity:1"
             id="path2224" />
        </g>
        <g
           id="g2226"
           transform="matrix(1,0,0,-1,96.410801,371.93506)">
          <path
             d="m 950.125,-521.781 c -4.086,-2.742 -2.531,-9.965 1.594,-11.848 5.187,-1.863 9.804,4.02 7.375,8.746 -1.223,4.176 -5.539,4.641 -8.969,3.102"
             style="fill:none;stroke:#000000;stroke-width:2.61674;stroke-linecap:round;stroke-linejoin:round;stroke-miterlimit:10;stroke-dasharray:none;stroke-opacity:1"
             id="path2228" />
        </g>
        <g
           id="g2230"
           transform="matrix(1,0,0,-1,96.410801,371.93506)">
          <path
             d="m 727.359,-582.531 c 14.282,-2.465 30.664,-7.766 44.965,-10.082"
             style="fill:none;stroke:#000000;stroke-width:2.61674;stroke-linecap:round;stroke-linejoin:round;stroke-miterlimit:10;stroke-dasharray:none;stroke-opacity:1"
             id="path2232" />
        </g>
        <g
           id="g2234"
           transform="matrix(1,0,0,-1,96.410801,371.93506)">
          <path
             d="m 728.359,-607.219 c 0.625,0.168 7.606,1.617 9.918,1.907 11.332,3.167 24.039,6.468 34.246,10.488 1.34,1.531 1.844,1.48 -0.199,2.211"
             style="fill:none;stroke:#000000;stroke-width:2.61674;stroke-linecap:round;stroke-linejoin:round;stroke-miterlimit:10;stroke-dasharray:none;stroke-opacity:1"
             id="path2236" />
        </g>
        <g
           id="g2238"
           transform="matrix(1,0,0,-1,96.410801,371.93506)">
          <path
             d="m 727.328,-583.008 c 0.688,-8.121 1.238,-16.304 0.477,-24.441"
             style="fill:none;stroke:#000000;stroke-width:2.61674;stroke-linecap:round;stroke-linejoin:round;stroke-miterlimit:10;stroke-dasharray:none;stroke-opacity:1"
             id="path2240" />
        </g>
        <g
           id="g2242"
           transform="matrix(1,0,0,-1,96.410801,371.93506)">
          <path
             d="m 731.125,-591.398 c -0.91,0.601 -3.156,-2.965 -1.984,-4.727 2.269,-3.719 8.273,1.594 4.062,4.035 0.242,0.992 -1.965,0.942 -2.676,0.531"
             style="fill:none;stroke:#000000;stroke-width:2.61674;stroke-linecap:round;stroke-linejoin:round;stroke-miterlimit:10;stroke-dasharray:none;stroke-opacity:1"
             id="path2244" />
        </g>
        <g
           id="g2246"
           transform="matrix(1,0,0,-1,96.410801,371.93506)">
          <path
             d="m 742.02,-592.656 c 0.621,0.804 -3.356,-0.696 -1.715,-2.989 2.019,-2.734 9.004,0.29 4.55,2.848 -0.703,1.238 -2.339,0.203 -3.242,-0.082"
             style="fill:none;stroke:#000000;stroke-width:2.61674;stroke-linecap:round;stroke-linejoin:round;stroke-miterlimit:10;stroke-dasharray:none;stroke-opacity:1"
             id="path2248" />
        </g>
        <g
           id="g2250"
           transform="matrix(1,0,0,-1,96.410801,371.93506)">
          <path
             d="m 694.293,-510.406 c -4.574,0.984 -4.563,-5.254 -4.898,-8.305 -0.985,-7.477 -1.305,-15.027 -0.649,-22.543 0.551,-2.934 -1.016,-11.305 4.094,-10.199"
             style="fill:none;stroke:#000000;stroke-width:2.61674;stroke-linecap:round;stroke-linejoin:round;stroke-miterlimit:10;stroke-dasharray:none;stroke-opacity:1"
             id="path2252" />
        </g>
        <g
           id="g2254"
           transform="matrix(1,0,0,-1,96.410801,371.93506)">
          <path
             d="m 695.418,-610.938 c -2.773,1.696 -5.746,-1.968 -6.852,-4.308 l 0.618,-50.926 5.55,-0.066"
             style="fill:none;stroke:#000000;stroke-width:2.61674;stroke-linecap:round;stroke-linejoin:round;stroke-miterlimit:10;stroke-dasharray:none;stroke-opacity:1"
             id="path2256" />
        </g>
        <g
           id="g2258"
           transform="matrix(1,0,0,-1,96.410801,371.93506)">
          <path
             d="m 814.789,-517.723 c 45.512,17.121 99.633,-24.957 100.645,-71.652"
             style="fill:none;stroke:#000000;stroke-width:2.61674;stroke-linecap:round;stroke-linejoin:round;stroke-miterlimit:10;stroke-dasharray:none;stroke-opacity:1"
             id="path2260" />
        </g>
        <g
           id="g2262"
           transform="matrix(1,0,0,-1,96.410801,371.93506)">
          <path
             d="m 814.789,-517.723 c -29.723,-11.832 -52.801,-39.261 -58.922,-70.715"
             style="fill:none;stroke:#000000;stroke-width:2.61674;stroke-linecap:round;stroke-linejoin:round;stroke-miterlimit:10;stroke-dasharray:none;stroke-opacity:1"
             id="path2264" />
        </g>
        <g
           id="g2266"
           transform="matrix(1,0,0,-1,96.410801,371.93506)">
          <path
             d="m 756.52,-602.281 c -1.961,-100.219 159.187,-99.949 162.433,1.398"
             style="fill:none;stroke:#000000;stroke-width:2.61674;stroke-linecap:round;stroke-linejoin:round;stroke-miterlimit:10;stroke-dasharray:none;stroke-opacity:1"
             id="path2268" />
        </g>
        <g
           id="g2270"
           transform="matrix(1,0,0,-1,96.410801,371.93506)">
          <path
             d="m 911.953,-588.461 c -0.676,4.156 -2.578,10.246 -4.23,15.383 -2.239,5.617 -4.004,11.207 -7.465,16.312 -3.149,4.243 -7.508,8.852 -11.453,12.887 -10.075,9.055 -22.473,15.301 -36.075,16.973 -11.074,2.742 -22.453,0.957 -32.843,-1.453 -6.199,-1.594 -12,-4.293 -17.059,-8.633 -4.648,-3.707 -9.187,-7.606 -13.207,-12.535 -5.129,-4.993 -9.543,-10.075 -12.398,-16.707 -1.692,-2.934 -2.856,-4.563 -3.508,-8.266 -1.238,-2.457 -0.895,-6.074 -1.36,-7.977 0.477,0.157 -0.613,-4.453 -0.296,-4.941 -0.461,-0.918 -0.301,-3.012 -0.329,-2.91"
             style="fill:none;stroke:#000000;stroke-width:2.61674;stroke-linecap:round;stroke-linejoin:round;stroke-miterlimit:10;stroke-dasharray:none;stroke-opacity:1"
             id="path2272" />
        </g>
        <g
           id="g2274"
           transform="matrix(1,0,0,-1,96.410801,371.93506)">
          <path
             d="m 771.875,-598.383 c -7.691,-79.922 138.305,-83.234 128.855,-0.801"
             style="fill:none;stroke:#000000;stroke-width:2.61674;stroke-linecap:round;stroke-linejoin:round;stroke-miterlimit:10;stroke-dasharray:none;stroke-opacity:1"
             id="path2276" />
        </g>
        <g
           id="g2278"
           transform="matrix(1,0,0,-1,96.410801,371.93506)">
          <path
             d="m 900.73,-599.184 c -1.355,22.625 -4.031,49.012 -23.515,63.825"
             style="fill:none;stroke:#000000;stroke-width:2.61674;stroke-linecap:round;stroke-linejoin:round;stroke-miterlimit:10;stroke-dasharray:none;stroke-opacity:1"
             id="path2280" />
        </g>
        <g
           id="g2282"
           transform="matrix(1,0,0,-1,96.410801,371.93506)">
          <path
             d="m 916.625,-590.035 c 0.574,0.496 -7.145,0.754 -8.984,-0.848 -1.168,0.004 -0.559,-5.39 -0.227,-7.625 0.172,-2.219 0.113,-0.734 4.086,-1.664 3.441,0.75 6.125,-0.375 5.879,1.363 1.305,2.004 -0.242,8.153 -0.32,7.618 l -0.223,0.625"
             style="fill:none;stroke:#000000;stroke-width:2.61674;stroke-linecap:round;stroke-linejoin:round;stroke-miterlimit:10;stroke-dasharray:none;stroke-opacity:1"
             id="path2284" />
        </g>
        <g
           id="g2286"
           transform="matrix(1,0,0,-1,96.410801,371.93506)">
          <path
             d="m 917.219,-591.742 c 22.945,2.144 45.988,-0.906 68.957,0.515"
             style="fill:none;stroke:#000000;stroke-width:2.61674;stroke-linecap:round;stroke-linejoin:round;stroke-miterlimit:10;stroke-dasharray:none;stroke-opacity:1"
             id="path2288" />
        </g>
        <g
           id="g2290"
           transform="matrix(1,0,0,-1,96.410801,371.93506)">
          <path
             d="m 917.016,-600.656 c 23.265,-0.563 69.836,0.949 69.836,0.949"
             style="fill:none;stroke:#000000;stroke-width:2.61674;stroke-linecap:round;stroke-linejoin:round;stroke-miterlimit:10;stroke-dasharray:none;stroke-opacity:1"
             id="path2292" />
        </g>
        <g
           id="g2294"
           transform="matrix(1,0,0,-1,96.410801,371.93506)">
          <path
             d="m 782.66,-603.406 c 7.344,-5.762 18.676,-0.5 19.422,8.726 3.227,5.664 0.695,18.149 8.984,18.61 8.161,-4.223 8.684,-16.586 18.254,-19.157 6.641,0.832 4.618,12.375 12.059,13.383 8.594,0.735 7.484,-12.027 14.836,-13.148 4.355,0.844 7.43,10.062 12.129,3.137 3.379,-7.305 11.25,-5.715 17.207,-3.129 1.695,0.195 4.039,0.031 4.949,-1.664"
             style="fill:none;stroke:#000000;stroke-width:2.61674;stroke-linecap:round;stroke-linejoin:round;stroke-miterlimit:10;stroke-dasharray:none;stroke-opacity:1"
             id="path2296" />
        </g>
        <g
           id="g2298"
           transform="matrix(1,0,0,-1,96.410801,371.93506)">
          <path
             d="m 811.387,-564.969 c 3.254,-8.566 13.09,-4.59 17.371,0.61 7.113,4.714 17.281,5.254 23,-1.801 4.051,-5.039 12.027,-0.488 14.926,-5.465"
             style="fill:none;stroke:#000000;stroke-width:2.61674;stroke-linecap:round;stroke-linejoin:round;stroke-miterlimit:10;stroke-dasharray:none;stroke-opacity:1"
             id="path2300" />
        </g>
        <g
           id="g2302"
           transform="matrix(1,0,0,-1,96.410801,371.93506)">
          <path
             d="m 816.004,-611.598 c 2.211,-8.504 12.066,-5.914 16.816,-1.445 7.461,4.691 15.782,0.648 23.657,1.844 l 1.078,0.355 1.039,0.492"
             style="fill:none;stroke:#000000;stroke-width:2.61674;stroke-linecap:round;stroke-linejoin:round;stroke-miterlimit:10;stroke-dasharray:none;stroke-opacity:1"
             id="path2304" />
        </g>
      </g>
    </g>
  </g>
</svg>
