<?xml version="1.0" encoding="UTF-8" standalone="no"?>
<!-- Created by Ashley Blewer - This work is licensed under a Creative Commons Attribution 4.0 International License -->

<svg
   width="544"
   height="480"
   viewBox="0 0 143.93334 127"
   version="1.1"
   id="svg2490"
   inkscape:version="1.2.2 (1:1.2.2+202212051552+b0a8486541)"
   sodipodi:docname="1879-zoopraxiscope-2.svg"
   xmlns:inkscape="http://www.inkscape.org/namespaces/inkscape"
   xmlns:sodipodi="http://sodipodi.sourceforge.net/DTD/sodipodi-0.dtd"
   xmlns="http://www.w3.org/2000/svg"
   xmlns:svg="http://www.w3.org/2000/svg">
  <sodipodi:namedview
     id="namedview2492"
     pagecolor="#ffffff"
     bordercolor="#666666"
     borderopacity="1.0"
     inkscape:pageshadow="2"
     inkscape:pageopacity="0.0"
     inkscape:pagecheckerboard="0"
     inkscape:document-units="mm"
     showgrid="false"
     units="px"
     inkscape:zoom="0.90583674"
     inkscape:cx="53.541657"
     inkscape:cy="254.46086"
     inkscape:window-width="1846"
     inkscape:window-height="1136"
     inkscape:window-x="0"
     inkscape:window-y="0"
     inkscape:window-maximized="1"
     inkscape:current-layer="g4731"
     inkscape:showpageshadow="2"
     inkscape:deskcolor="#d1d1d1" />
  <defs
     id="defs2487" />
  <g
     inkscape:label="Layer 1"
     inkscape:groupmode="layer"
     id="layer1">
    <g
       id="g4731"
       transform="matrix(0.32961229,0,0,0.32903008,-241.78905,1.73126)"
       style="stroke-width:2.68698">
      <g
         id="g104528"
         transform="matrix(1,0,0,-1,0,792)"
         style="stroke-width:2.68698">
        <g
           id="g104530"
           style="stroke-width:2.68698" />
      </g>
      <g
         id="g104996"
         transform="matrix(1,0,0,-1,0,792)"
         style="stroke-width:2.68698">
        <g
           id="g104998"
           style="stroke-width:2.68698" />
      </g>
      <g
         id="g9148"
         transform="matrix(1.744664,0,0,1.7477511,-375.18396,-1449.8105)">
        <g
           id="g2623"
           transform="matrix(0.85249123,0,0,-0.85249123,118.81681,766.87529)">
          <path
             d="m 717.516,-83.621 c 26.484,7.398 62.214,6.414 87.613,-5.637"
             style="fill:none;stroke:#000000;stroke-width:2.61674;stroke-linecap:round;stroke-linejoin:round;stroke-miterlimit:10;stroke-dasharray:none;stroke-opacity:1"
             id="path2625" />
        </g>
        <g
           id="g2627"
           transform="matrix(0.85249123,0,0,-0.85249123,118.81681,766.87529)">
          <path
             d="m 805.129,-89.258 c 69.844,-29.394 95.644,-129.097 44.809,-186.883 -48.985,-61.609 -161.5,-64.418 -201.247,8.879 -37.066,61.211 -13.121,155.879 58.625,178.856 l 5.118,2.351 5.082,2.434"
             style="fill:none;stroke:#000000;stroke-width:2.61674;stroke-linecap:round;stroke-linejoin:round;stroke-miterlimit:10;stroke-dasharray:none;stroke-opacity:1"
             id="path2629" />
        </g>
        <g
           id="g2631"
           transform="matrix(0.85249123,0,0,-0.85249123,118.81681,766.87529)">
          <path
             d="m 735.977,-89.938 c 30.445,5.747 62.464,-3.898 87.734,-20.828 31.242,-24.476 54.633,-65.066 46.625,-105.73 -2.906,-28.746 -18.371,-56.129 -42.434,-72.336 -15.039,-15.07 -35.664,-21.273 -56.398,-22.879 -24.199,-4.238 -51.274,-1.961 -70.211,15.305 -14.805,11.465 -27.934,25.535 -38.547,40.996 -13.105,23.433 -27.547,51.824 -17.152,79.058 7.879,30.868 29.246,57.118 55.355,74.696 13.106,6.527 21.063,9.738 35.028,11.718"
             style="fill:none;stroke:#000000;stroke-width:2.61674;stroke-linecap:round;stroke-linejoin:round;stroke-miterlimit:10;stroke-dasharray:none;stroke-opacity:1"
             id="path2633" />
        </g>
        <g
           id="g2635"
           transform="matrix(0.85249123,0,0,-0.85249123,118.81681,766.87529)">
          <path
             d="m 736.52,-121.555 c 21.753,4.106 44.625,-2.785 62.679,-14.879 22.321,-17.488 39.031,-46.484 33.309,-75.535 -2.074,-20.535 -13.121,-40.101 -30.313,-51.679 -10.742,-10.766 -25.48,-15.196 -40.293,-16.344 -17.289,-3.028 -36.629,-1.403 -50.16,10.933 -10.578,8.192 -19.957,18.243 -27.539,29.289 -9.363,16.739 -19.68,37.024 -12.254,56.481 5.629,22.051 20.895,40.805 39.547,53.363 9.363,4.664 15.047,6.957 25.024,8.371"
             style="fill:none;stroke:#000000;stroke-width:2.88807;stroke-linecap:round;stroke-linejoin:round;stroke-miterlimit:10;stroke-dasharray:none;stroke-opacity:1"
             id="path2637" />
        </g>
        <g
           id="g2639"
           transform="matrix(0.85249123,0,0,-0.85249123,118.81681,766.87529)">
          <path
             d="m 756.766,-183.773 c 2.64,0.5 5.418,-0.336 7.609,-1.805 2.711,-2.125 4.742,-5.645 4.047,-9.172 -0.254,-2.496 -1.594,-4.871 -3.684,-6.277 -1.304,-1.305 -3.093,-1.844 -4.89,-1.985 -2.102,-0.367 -4.45,-0.168 -6.09,1.328 -1.285,0.996 -2.426,2.215 -3.344,3.555 -1.137,2.035 -2.391,4.496 -1.488,6.859 0.683,2.68 2.535,4.958 4.801,6.481 1.136,0.566 1.828,0.844 3.039,1.016"
             style="fill:none;stroke:#000000;stroke-width:1.14975;stroke-linecap:round;stroke-linejoin:round;stroke-miterlimit:10;stroke-dasharray:none;stroke-opacity:1"
             id="path2641" />
        </g>
        <g
           id="g2643"
           transform="matrix(0.85249123,0,0,-0.85249123,118.81681,766.87529)">
          <path
             d="m 740.219,-102.293 c -1.918,-9.676 -11.071,6.984 -19.602,-0.418 l -3.406,0.473 c 0.461,-0.129 -0.879,0.836 0.348,0.574"
             style="fill:none;stroke:#000000;stroke-width:2.61674;stroke-linecap:round;stroke-linejoin:round;stroke-miterlimit:10;stroke-dasharray:none;stroke-opacity:1"
             id="path2645" />
        </g>
        <g
           id="g2647"
           transform="matrix(0.85249123,0,0,-0.85249123,118.81681,766.87529)">
          <path
             d="m 787.984,-109.66 c -8.371,-5.676 -5.293,16.39 -18.66,9.836 -0.785,1.797 -2.183,-0.274 -2.98,0.859"
             style="fill:none;stroke:#000000;stroke-width:2.61674;stroke-linecap:round;stroke-linejoin:round;stroke-miterlimit:10;stroke-dasharray:none;stroke-opacity:1"
             id="path2649" />
        </g>
        <g
           id="g2651"
           transform="matrix(0.85249123,0,0,-0.85249123,118.81681,766.87529)">
          <path
             d="m 833.781,-141.027 c -16.699,0.234 3.836,15.605 -11.965,17.644 -1.589,-0.711 -6.117,5.738 -5.769,1.969"
             style="fill:none;stroke:#000000;stroke-width:2.61674;stroke-linecap:round;stroke-linejoin:round;stroke-miterlimit:10;stroke-dasharray:none;stroke-opacity:1"
             id="path2653" />
        </g>
        <g
           id="g2655"
           transform="matrix(0.85249123,0,0,-0.85249123,118.81681,766.87529)">
          <path
             d="m 853.34,-182.207 c -15.145,4.543 9.328,13.012 -4.395,21.828 -1.164,2.149 -3.058,7.223 -4.965,7.469"
             style="fill:none;stroke:#000000;stroke-width:2.61674;stroke-linecap:round;stroke-linejoin:round;stroke-miterlimit:10;stroke-dasharray:none;stroke-opacity:1"
             id="path2657" />
        </g>
        <g
           id="g2659"
           transform="matrix(0.85249123,0,0,-0.85249123,118.81681,766.87529)">
          <path
             d="m 851.191,-229.727 c -8.89,11.762 11.868,9.418 6.153,23.114 0.105,3.129 0.062,6.289 -0.512,9.379"
             style="fill:none;stroke:#000000;stroke-width:2.61674;stroke-linecap:round;stroke-linejoin:round;stroke-miterlimit:10;stroke-dasharray:none;stroke-opacity:1"
             id="path2661" />
        </g>
        <g
           id="g2663"
           transform="matrix(0.85249123,0,0,-0.85249123,118.81681,766.87529)">
          <path
             d="m 826.891,-270.02 c -2.102,12.614 15.285,3.336 13.742,17.727 1.105,4.066 3.293,8.422 4.113,12.289"
             style="fill:none;stroke:#000000;stroke-width:2.61674;stroke-linecap:round;stroke-linejoin:round;stroke-miterlimit:10;stroke-dasharray:none;stroke-opacity:1"
             id="path2665" />
        </g>
        <g
           id="g2667"
           transform="matrix(0.85249123,0,0,-0.85249123,118.81681,766.87529)">
          <path
             d="m 787.957,-296.809 c 1.063,10.946 16.434,-2.328 17.566,12.375 1.957,3.911 4.493,7.52 6.926,11.079"
             style="fill:none;stroke:#000000;stroke-width:2.61674;stroke-linecap:round;stroke-linejoin:round;stroke-miterlimit:10;stroke-dasharray:none;stroke-opacity:1"
             id="path2669" />
        </g>
        <g
           id="g2671"
           transform="matrix(0.85249123,0,0,-0.85249123,118.81681,766.87529)">
          <path
             d="m 736.492,-301.254 c 11.235,7.32 17.887,-9.488 29.93,2.082 2.254,1.684 9.93,3.496 10.012,4.301"
             style="fill:none;stroke:#000000;stroke-width:2.61674;stroke-linecap:round;stroke-linejoin:round;stroke-miterlimit:10;stroke-dasharray:none;stroke-opacity:1"
             id="path2673" />
        </g>
        <g
           id="g2675"
           transform="matrix(0.85249123,0,0,-0.85249123,118.81681,766.87529)">
          <path
             d="m 692.152,-282.102 c 14.575,5.04 5.094,-15.863 21.364,-10.265 7.257,-1.117 14.617,-1.403 21.886,-2.207"
             style="fill:none;stroke:#000000;stroke-width:2.61674;stroke-linecap:round;stroke-linejoin:round;stroke-miterlimit:10;stroke-dasharray:none;stroke-opacity:1"
             id="path2677" />
        </g>
        <g
           id="g2679"
           transform="matrix(0.85249123,0,0,-0.85249123,118.81681,766.87529)">
          <path
             d="m 661.336,-244.531 c 16.473,2.035 -4.43,-16.832 11.695,-16.641 1.567,-0.801 16.594,-6.457 13.012,-5.121"
             style="fill:none;stroke:#000000;stroke-width:2.61674;stroke-linecap:round;stroke-linejoin:round;stroke-miterlimit:10;stroke-dasharray:none;stroke-opacity:1"
             id="path2681" />
        </g>
        <g
           id="g2683"
           transform="matrix(0.85249123,0,0,-0.85249123,118.81681,766.87529)">
          <path
             d="m 651.531,-197.539 c 10.125,-6.82 -10.336,-14.981 3.446,-23.895 -0.075,2.414 3.875,-9.23 2.699,-3.824"
             style="fill:none;stroke:#000000;stroke-width:2.61674;stroke-linecap:round;stroke-linejoin:round;stroke-miterlimit:10;stroke-dasharray:none;stroke-opacity:1"
             id="path2685" />
        </g>
        <g
           id="g2687"
           transform="matrix(0.85249123,0,0,-0.85249123,118.81681,766.87529)">
          <path
             d="m 664.473,-150.562 c 7.449,-10.137 -15.563,-8.473 -8.961,-22.876 2.75,2.012 -1.512,-6.398 -0.008,-3.281"
             style="fill:none;stroke:#000000;stroke-width:2.61674;stroke-linecap:round;stroke-linejoin:round;stroke-miterlimit:10;stroke-dasharray:none;stroke-opacity:1"
             id="path2689" />
        </g>
        <g
           id="g2691"
           transform="matrix(0.85249123,0,0,-0.85249123,118.81681,766.87529)">
          <path
             d="m 700.109,-120.312 c -3.191,-5.696 -18.043,-7.067 -21.914,-14.293"
             style="fill:none;stroke:#000000;stroke-width:2.61674;stroke-linecap:round;stroke-linejoin:round;stroke-miterlimit:10;stroke-dasharray:none;stroke-opacity:1"
             id="path2693" />
        </g>
        <g
           id="g2695"
           transform="matrix(0.85249123,0,0,-0.85249123,118.81681,766.87529)">
          <path
             d="m 741.309,-102.238 c -4.567,-6.297 -16.329,5.117 -24.981,-2.606"
             style="fill:none;stroke:#000000;stroke-width:2.61674;stroke-linecap:round;stroke-linejoin:round;stroke-miterlimit:10;stroke-dasharray:none;stroke-opacity:1"
             id="path2697" />
        </g>
        <g
           id="g2699"
           transform="matrix(0.85249123,0,0,-0.85249123,118.81681,766.87529)">
          <path
             d="m 789.105,-110.766 c -9.46,-5.593 -3.515,14.278 -16.445,11.43 -1.457,1.211 -6.73,-0.258 -6.801,1.891"
             style="fill:none;stroke:#000000;stroke-width:2.61674;stroke-linecap:round;stroke-linejoin:round;stroke-miterlimit:10;stroke-dasharray:none;stroke-opacity:1"
             id="path2701" />
        </g>
      </g>
    </g>
  </g>
</svg>
