<?xml version="1.0" encoding="UTF-8" standalone="no"?>
<!-- Created by Ashley Blewer - This work is licensed under a Creative Commons Attribution 4.0 International License -->

<svg
   width="544"
   height="480"
   viewBox="0 0 143.93334 127"
   version="1.1"
   id="svg2490"
   inkscape:version="1.2.2 (1:1.2.2+202212051552+b0a8486541)"
   sodipodi:docname="1891-kinetoscope-2.svg"
   xmlns:inkscape="http://www.inkscape.org/namespaces/inkscape"
   xmlns:sodipodi="http://sodipodi.sourceforge.net/DTD/sodipodi-0.dtd"
   xmlns="http://www.w3.org/2000/svg"
   xmlns:svg="http://www.w3.org/2000/svg">
  <sodipodi:namedview
     id="namedview2492"
     pagecolor="#ffffff"
     bordercolor="#666666"
     borderopacity="1.0"
     inkscape:pageshadow="2"
     inkscape:pageopacity="0.0"
     inkscape:pagecheckerboard="0"
     inkscape:document-units="mm"
     showgrid="false"
     units="px"
     inkscape:zoom="0.90583674"
     inkscape:cx="53.541657"
     inkscape:cy="254.46086"
     inkscape:window-width="1846"
     inkscape:window-height="1136"
     inkscape:window-x="0"
     inkscape:window-y="0"
     inkscape:window-maximized="1"
     inkscape:current-layer="g4731"
     inkscape:showpageshadow="2"
     inkscape:deskcolor="#d1d1d1" />
  <defs
     id="defs2487" />
  <g
     inkscape:label="Layer 1"
     inkscape:groupmode="layer"
     id="layer1">
    <g
       id="g4731"
       transform="matrix(0.32961229,0,0,0.32903008,-241.78905,1.73126)"
       style="stroke-width:2.68698">
      <g
         id="g104528"
         transform="matrix(1,0,0,-1,0,792)"
         style="stroke-width:2.68698">
        <g
           id="g104530"
           style="stroke-width:2.68698" />
      </g>
      <g
         id="g104996"
         transform="matrix(1,0,0,-1,0,792)"
         style="stroke-width:2.68698">
        <g
           id="g104998"
           style="stroke-width:2.68698" />
      </g>
      <g
         id="g6319"
         transform="matrix(1.266391,0,0,1.2686318,519.54846,-1573.783)">
        <g
           id="g1329"
           transform="matrix(1,0,0,-1,54.248147,790.99882)">
          <path
             d="m 244.371,-471.832 c -12.066,-6.316 -17.887,-19.293 -28.113,-27.699"
             style="fill:none;stroke:#000000;stroke-width:2.61674;stroke-linecap:round;stroke-linejoin:round;stroke-miterlimit:10;stroke-dasharray:none;stroke-opacity:1"
             id="path1331" />
        </g>
        <g
           id="g1333"
           transform="matrix(1,0,0,-1,54.248147,790.99882)">
          <path
             d="m 244.371,-471.832 c 30.906,2.367 58.809,1.691 89.719,4.062"
             style="fill:none;stroke:#000000;stroke-width:2.61674;stroke-linecap:round;stroke-linejoin:round;stroke-miterlimit:10;stroke-dasharray:none;stroke-opacity:1"
             id="path1335" />
        </g>
        <g
           id="g1337"
           transform="matrix(1,0,0,-1,54.248147,790.99882)">
          <path
             d="m 244.371,-471.832 c 1.309,6.039 84.836,9.187 89.719,4.062"
             style="fill:none;stroke:#000000;stroke-width:2.61674;stroke-linecap:round;stroke-linejoin:round;stroke-miterlimit:10;stroke-dasharray:none;stroke-opacity:1"
             id="path1339" />
        </g>
        <g
           id="g1341"
           transform="matrix(1,0,0,-1,54.248147,790.99882)">
          <path
             d="m 334.09,-467.77 c 12.129,-9.203 22.047,-22.769 31.14,-35.023"
             style="fill:none;stroke:#000000;stroke-width:2.61674;stroke-linecap:round;stroke-linejoin:round;stroke-miterlimit:10;stroke-dasharray:none;stroke-opacity:1"
             id="path1343" />
        </g>
        <g
           id="g1345"
           transform="matrix(1,0,0,-1,54.248147,790.99882)">
          <path
             d="m 325.188,-469.488 c 14.445,-8.887 21.996,-29.754 40.042,-33.305"
             style="fill:none;stroke:#000000;stroke-width:2.61674;stroke-linecap:round;stroke-linejoin:round;stroke-miterlimit:10;stroke-dasharray:none;stroke-opacity:1"
             id="path1347" />
        </g>
        <g
           id="g1349"
           transform="matrix(1,0,0,-1,54.248147,790.99882)">
          <path
             d="m 252.207,-470.523 c -9.18,-11.422 -23.703,-28.102 -35.434,-37.075"
             style="fill:none;stroke:#000000;stroke-width:2.61674;stroke-linecap:round;stroke-linejoin:round;stroke-miterlimit:10;stroke-dasharray:none;stroke-opacity:1"
             id="path1351" />
        </g>
        <g
           id="g1353"
           transform="matrix(1,0,0,-1,54.248147,790.99882)">
          <path
             d="m 216.285,-499.402 c -0.219,-1.45 0.574,-7.645 0.488,-8.196"
             style="fill:none;stroke:#000000;stroke-width:2.61674;stroke-linecap:round;stroke-linejoin:round;stroke-miterlimit:10;stroke-dasharray:none;stroke-opacity:1"
             id="path1355" />
        </g>
        <g
           id="g1357"
           transform="matrix(1,0,0,-1,54.248147,790.99882)">
          <path
             d="m 216.773,-507.598 c 2.036,-65.972 -6.226,-136.355 -2.078,-202.304"
             style="fill:none;stroke:#000000;stroke-width:2.61674;stroke-linecap:round;stroke-linejoin:round;stroke-miterlimit:10;stroke-dasharray:none;stroke-opacity:1"
             id="path1359" />
        </g>
        <g
           id="g1361"
           transform="matrix(1,0,0,-1,54.248147,790.99882)">
          <path
             d="m 365.23,-502.793 c -0.019,-67.848 -4.085,-142.262 -1.757,-210.09"
             style="fill:none;stroke:#000000;stroke-width:2.61674;stroke-linecap:round;stroke-linejoin:round;stroke-miterlimit:10;stroke-dasharray:none;stroke-opacity:1"
             id="path1363" />
        </g>
        <g
           id="g1365"
           transform="matrix(1,0,0,-1,54.248147,790.99882)">
          <path
             d="m 216.051,-710.457 c 48.648,-4.238 98.676,-0.664 147.422,-2.426"
             style="fill:none;stroke:#000000;stroke-width:2.61674;stroke-linecap:round;stroke-linejoin:round;stroke-miterlimit:10;stroke-dasharray:none;stroke-opacity:1"
             id="path1367" />
        </g>
        <g
           id="g1369"
           transform="matrix(1,0,0,-1,54.248147,790.99882)">
          <path
             d="m 363.473,-712.883 10.683,-8.695"
             style="fill:none;stroke:#000000;stroke-width:2.61674;stroke-linecap:round;stroke-linejoin:round;stroke-miterlimit:10;stroke-dasharray:none;stroke-opacity:1"
             id="path1371" />
        </g>
        <g
           id="g1373"
           transform="matrix(1,0,0,-1,54.248147,790.99882)">
          <path
             d="m 214.176,-711.207 -3.864,-6.301"
             style="fill:none;stroke:#000000;stroke-width:2.61674;stroke-linecap:round;stroke-linejoin:round;stroke-miterlimit:10;stroke-dasharray:none;stroke-opacity:1"
             id="path1375" />
        </g>
        <g
           id="g1377"
           transform="matrix(1,0,0,-1,54.248147,790.99882)">
          <path
             d="m 212.348,-719.035 c 53.113,-3.098 106.472,3.183 159.461,-2.906"
             style="fill:none;stroke:#000000;stroke-width:2.61674;stroke-linecap:round;stroke-linejoin:round;stroke-miterlimit:10;stroke-dasharray:none;stroke-opacity:1"
             id="path1379" />
        </g>
        <g
           id="g1381"
           transform="matrix(1,0,0,-1,54.248147,790.99882)">
          <path
             d="m 374.098,-722.383 0.5,-7.449"
             style="fill:none;stroke:#000000;stroke-width:2.61674;stroke-linecap:round;stroke-linejoin:round;stroke-miterlimit:10;stroke-dasharray:none;stroke-opacity:1"
             id="path1383" />
        </g>
        <g
           id="g1385"
           transform="matrix(1,0,0,-1,54.248147,790.99882)">
          <path
             d="m 210.18,-717.172 c -0.055,-1.469 -0.262,-7.027 -0.309,-8.336"
             style="fill:none;stroke:#000000;stroke-width:2.61674;stroke-linecap:round;stroke-linejoin:round;stroke-miterlimit:10;stroke-dasharray:none;stroke-opacity:1"
             id="path1387" />
        </g>
        <g
           id="g1389"
           transform="matrix(1,0,0,-1,54.248147,790.99882)">
          <path
             d="m 210.582,-727.125 c 53.957,-1.832 110.137,1.695 164.016,-2.707"
             style="fill:none;stroke:#000000;stroke-width:2.61674;stroke-linecap:round;stroke-linejoin:round;stroke-miterlimit:10;stroke-dasharray:none;stroke-opacity:1"
             id="path1391" />
        </g>
        <g
           id="g1393"
           transform="matrix(1,0,0,-1,54.248147,790.99882)">
          <path
             d="m 326.59,-493.859 c 6.504,-64.161 -1.867,-128.739 3.719,-192.938"
             style="fill:none;stroke:#000000;stroke-width:2.61674;stroke-linecap:round;stroke-linejoin:round;stroke-miterlimit:10;stroke-dasharray:none;stroke-opacity:1"
             id="path1395" />
        </g>
        <g
           id="g1397"
           transform="matrix(1,0,0,-1,54.248147,790.99882)">
          <path
             d="m 249.07,-494.539 c 3.813,-68.066 1.051,-136.316 4.953,-204.383"
             style="fill:none;stroke:#000000;stroke-width:2.61674;stroke-linecap:round;stroke-linejoin:round;stroke-miterlimit:10;stroke-dasharray:none;stroke-opacity:1"
             id="path1399" />
        </g>
        <g
           id="g1401"
           transform="matrix(1,0,0,-1,54.248147,790.99882)">
          <path
             d="m 249.07,-494.539 77.52,0.68"
             style="fill:none;stroke:#000000;stroke-width:2.61674;stroke-linecap:round;stroke-linejoin:round;stroke-miterlimit:10;stroke-dasharray:none;stroke-opacity:1"
             id="path1403" />
        </g>
        <g
           id="g1405"
           transform="matrix(1,0,0,-1,54.248147,790.99882)">
          <path
             d="m 250.344,-513.184 c 23.027,1.844 54.551,1.786 77.554,-0.168"
             style="fill:none;stroke:#000000;stroke-width:2.61674;stroke-linecap:round;stroke-linejoin:round;stroke-miterlimit:10;stroke-dasharray:none;stroke-opacity:1"
             id="path1407" />
        </g>
        <g
           id="g1409"
           transform="matrix(1,0,0,-1,54.248147,790.99882)">
          <path
             d="m 252.941,-587.156 c 24.36,0.57 51.204,4.336 75.508,0.808"
             style="fill:none;stroke:#000000;stroke-width:2.61674;stroke-linecap:round;stroke-linejoin:round;stroke-miterlimit:10;stroke-dasharray:none;stroke-opacity:1"
             id="path1411" />
        </g>
        <g
           id="g1413"
           transform="matrix(1,0,0,-1,54.248147,790.99882)">
          <path
             d="m 251.648,-609.688 c 23.707,0.02 53.176,2.704 76.805,-0.308"
             style="fill:none;stroke:#000000;stroke-width:2.61674;stroke-linecap:round;stroke-linejoin:round;stroke-miterlimit:10;stroke-dasharray:none;stroke-opacity:1"
             id="path1415" />
        </g>
        <g
           id="g1417"
           transform="matrix(1,0,0,-1,54.248147,790.99882)">
          <path
             d="m 255.473,-683.82 c 24.73,-2.149 49.613,4.09 74.218,-0.453"
             style="fill:none;stroke:#000000;stroke-width:2.61674;stroke-linecap:round;stroke-linejoin:round;stroke-miterlimit:10;stroke-dasharray:none;stroke-opacity:1"
             id="path1419" />
        </g>
        <g
           id="g1421"
           transform="matrix(1,0,0,-1,54.248147,790.99882)">
          <path
             d="m 254.023,-698.922 c 25.512,-3.23 53.606,2.27 79.055,2.953"
             style="fill:none;stroke:#000000;stroke-width:2.61674;stroke-linecap:round;stroke-linejoin:round;stroke-miterlimit:10;stroke-dasharray:none;stroke-opacity:1"
             id="path1423" />
        </g>
        <g
           id="g1425"
           transform="matrix(1,0,0,-1,54.248147,790.99882)">
          <path
             d="m 330.348,-687.543 3.086,-8.504"
             style="fill:none;stroke:#000000;stroke-width:2.61674;stroke-linecap:round;stroke-linejoin:round;stroke-miterlimit:10;stroke-dasharray:none;stroke-opacity:1"
             id="path1427" />
        </g>
      </g>
    </g>
  </g>
</svg>
