<?xml version="1.0" encoding="UTF-8" standalone="no"?>
<!-- Created by Ashley Blewer - This work is licensed under a Creative Commons Attribution 4.0 International License -->

<svg
   width="544"
   height="480"
   viewBox="0 0 143.93334 127"
   version="1.1"
   id="svg2490"
   inkscape:version="1.2.2 (1:1.2.2+202212051552+b0a8486541)"
   sodipodi:docname="1891-kinetoscope-3.svg"
   xmlns:inkscape="http://www.inkscape.org/namespaces/inkscape"
   xmlns:sodipodi="http://sodipodi.sourceforge.net/DTD/sodipodi-0.dtd"
   xmlns="http://www.w3.org/2000/svg"
   xmlns:svg="http://www.w3.org/2000/svg">
  <sodipodi:namedview
     id="namedview2492"
     pagecolor="#ffffff"
     bordercolor="#666666"
     borderopacity="1.0"
     inkscape:pageshadow="2"
     inkscape:pageopacity="0.0"
     inkscape:pagecheckerboard="0"
     inkscape:document-units="mm"
     showgrid="false"
     units="px"
     inkscape:zoom="0.90583674"
     inkscape:cx="53.541657"
     inkscape:cy="254.46086"
     inkscape:window-width="1846"
     inkscape:window-height="1136"
     inkscape:window-x="0"
     inkscape:window-y="0"
     inkscape:window-maximized="1"
     inkscape:current-layer="g4731"
     inkscape:showpageshadow="2"
     inkscape:deskcolor="#d1d1d1" />
  <defs
     id="defs2487" />
  <g
     inkscape:label="Layer 1"
     inkscape:groupmode="layer"
     id="layer1">
    <g
       id="g4731"
       transform="matrix(0.32961229,0,0,0.32903008,-241.78905,1.73126)"
       style="stroke-width:2.68698">
      <g
         id="g104528"
         transform="matrix(1,0,0,-1,0,792)"
         style="stroke-width:2.68698">
        <g
           id="g104530"
           style="stroke-width:2.68698" />
      </g>
      <g
         id="g104996"
         transform="matrix(1,0,0,-1,0,792)"
         style="stroke-width:2.68698">
        <g
           id="g104998"
           style="stroke-width:2.68698" />
      </g>
      <g
         id="g6267"
         transform="matrix(0.91974496,0,0,0.92137239,160.96047,-1126.6085)">
        <g
           id="g2221"
           transform="matrix(1,0,0,-1,54.248147,790.99882)">
          <path
             d="m 619.891,-630.504 c 7.785,4.527 18.421,4.879 27.308,6.449"
             style="fill:none;stroke:#000000;stroke-width:2.61674;stroke-linecap:round;stroke-linejoin:round;stroke-miterlimit:10;stroke-dasharray:none;stroke-opacity:1"
             id="path2223" />
        </g>
        <g
           id="g2225"
           transform="matrix(1,0,0,-1,54.248147,790.99882)">
          <path
             d="m 647.199,-624.055 c 27.571,-5.129 63.543,-18.121 67.375,-50.16 -0.672,-30.676 -37.34,-43.066 -63.082,-36.797 -28.875,6.309 -60.851,29.086 -60.324,61.403 0.34,34.605 35.027,47.968 64.168,50.324 70.816,13.98 144.355,14.969 214.992,-0.52 50.379,-8.136 104.457,-29.195 132.106,-74.57 6.679,-13.363 8.386,-34.641 -4.852,-46.492"
             style="fill:none;stroke:#000000;stroke-width:2.61674;stroke-linecap:round;stroke-linejoin:round;stroke-miterlimit:10;stroke-dasharray:none;stroke-opacity:1"
             id="path2227" />
        </g>
        <g
           id="g2229"
           transform="matrix(1,0,0,-1,54.248147,790.99882)">
          <path
             d="m 997.582,-720.867 c -22.52,-34.746 -85.711,-5.957 -76.391,33.57 6.262,30.992 49.032,32.578 68.321,12.926 12.508,-10.445 18.597,-32.059 7.648,-45.387"
             style="fill:none;stroke:#000000;stroke-width:2.61674;stroke-linecap:round;stroke-linejoin:round;stroke-miterlimit:10;stroke-dasharray:none;stroke-opacity:1"
             id="path2231" />
        </g>
        <g
           id="g2233"
           transform="matrix(1,0,0,-1,54.248147,790.99882)">
          <path
             d="m 996.504,-719.41 c -22.227,-27.52 -77.535,-4.598 -67.969,31.437 7.461,24.719 41.676,26.129 57.235,8.477 7.585,-7.34 12.355,-17.492 13.144,-28.016"
             style="fill:none;stroke:#000000;stroke-width:2.61674;stroke-linecap:round;stroke-linejoin:round;stroke-miterlimit:10;stroke-dasharray:none;stroke-opacity:1"
             id="path2235" />
        </g>
        <g
           id="g2237"
           transform="matrix(1,0,0,-1,54.248147,790.99882)">
          <path
             d="m 990.891,-693.598 c 11.043,-21.281 -17.102,-38.875 -36.028,-33.55 -23.984,3.882 -33.957,41.293 -9.523,52.144 20.332,12.504 47.902,-8.449 44.875,-30.867"
             style="fill:none;stroke:#000000;stroke-width:2.61674;stroke-linecap:round;stroke-linejoin:round;stroke-miterlimit:10;stroke-dasharray:none;stroke-opacity:1"
             id="path2239" />
        </g>
        <g
           id="g2241"
           transform="matrix(1,0,0,-1,54.248147,790.99882)">
          <path
             d="m 985.348,-697.977 c 7.726,-25.445 -29.446,-33.925 -45.207,-20.183 -19.235,16.551 4.953,46.687 26.421,35.019 11.618,-3.457 23.083,-15.402 17.696,-28.269"
             style="fill:none;stroke:#000000;stroke-width:2.61674;stroke-linecap:round;stroke-linejoin:round;stroke-miterlimit:10;stroke-dasharray:none;stroke-opacity:1"
             id="path2243" />
        </g>
        <g
           id="g2245"
           transform="matrix(1,0,0,-1,54.248147,790.99882)">
          <path
             d="m 939.531,-692.754 c 14.246,19.649 48.262,-3.894 38.813,-24.203 -9.02,-13.859 -47.508,1.676 -27.813,15.859"
             style="fill:none;stroke:#000000;stroke-width:2.61674;stroke-linecap:round;stroke-linejoin:round;stroke-miterlimit:10;stroke-dasharray:none;stroke-opacity:1"
             id="path2247" />
        </g>
        <g
           id="g2249"
           transform="matrix(1,0,0,-1,54.248147,790.99882)">
          <path
             d="m 950.531,-701.098 c 0.371,3.028 7.754,12.09 7.133,15.383"
             style="fill:none;stroke:#000000;stroke-width:2.61674;stroke-linecap:round;stroke-linejoin:round;stroke-miterlimit:10;stroke-dasharray:none;stroke-opacity:1"
             id="path2251" />
        </g>
        <g
           id="g2253"
           transform="matrix(1,0,0,-1,54.248147,790.99882)">
          <path
             d="m 954.121,-691.535 c -18.301,0.836 -16.426,-28.418 -0.5,-28.328"
             style="fill:none;stroke:#000000;stroke-width:2.61674;stroke-linecap:round;stroke-linejoin:round;stroke-miterlimit:10;stroke-dasharray:none;stroke-opacity:1"
             id="path2255" />
        </g>
        <g
           id="g2257"
           transform="matrix(1,0,0,-1,54.248147,790.99882)">
          <path
             d="m 922.977,-679.227 c 4.089,18.813 6.753,40.36 12.929,58.649"
             style="fill:none;stroke:#000000;stroke-width:2.61674;stroke-linecap:round;stroke-linejoin:round;stroke-miterlimit:10;stroke-dasharray:none;stroke-opacity:1"
             id="path2259" />
        </g>
        <g
           id="g2261"
           transform="matrix(1,0,0,-1,54.248147,790.99882)">
          <path
             d="m 1006.809,-713.309 c 9.652,24.309 11.019,49.934 13.429,75.625"
             style="fill:none;stroke:#000000;stroke-width:2.61674;stroke-linecap:round;stroke-linejoin:round;stroke-miterlimit:10;stroke-dasharray:none;stroke-opacity:1"
             id="path2263" />
        </g>
        <g
           id="g2265"
           transform="matrix(1,0,0,-1,54.248147,790.99882)">
          <path
             d="m 612.887,-582.645 c -10.938,-19.214 -18.418,-40.007 -21.602,-61.82"
             style="fill:none;stroke:#000000;stroke-width:2.61674;stroke-linecap:round;stroke-linejoin:round;stroke-miterlimit:10;stroke-dasharray:none;stroke-opacity:1"
             id="path2267" />
        </g>
        <g
           id="g2269"
           transform="matrix(1,0,0,-1,54.248147,790.99882)">
          <path
             d="m 612.887,-582.645 c 38.734,47.313 106.39,54.008 162.996,44.168 52.625,-9.785 104.879,-21.539 157.504,-31.351 36.172,-8.969 73.304,-31.426 86.851,-67.856"
             style="fill:none;stroke:#000000;stroke-width:2.61674;stroke-linecap:round;stroke-linejoin:round;stroke-miterlimit:10;stroke-dasharray:none;stroke-opacity:1"
             id="path2271" />
        </g>
        <g
           id="g2273"
           transform="matrix(1,0,0,-1,54.248147,790.99882)">
          <path
             d="m 623.941,-610.988 c -1.652,-5.008 -3.98,-13.668 -4.046,-18.981"
             style="fill:none;stroke:#000000;stroke-width:2.61674;stroke-linecap:round;stroke-linejoin:round;stroke-miterlimit:10;stroke-dasharray:none;stroke-opacity:1"
             id="path2275" />
        </g>
        <g
           id="g2277"
           transform="matrix(1,0,0,-1,54.248147,790.99882)">
          <path
             d="m 617.293,-612.164 c 39.832,13.191 94.102,-11.492 97.914,-56.156 l -0.695,-3.297"
             style="fill:none;stroke:#000000;stroke-width:2.61674;stroke-linecap:round;stroke-linejoin:round;stroke-miterlimit:10;stroke-dasharray:none;stroke-opacity:1"
             id="path2279" />
        </g>
        <g
           id="g2281"
           transform="matrix(1,0,0,-1,54.248147,790.99882)">
          <path
             d="m 719.664,-591.645 c 3.77,-5.906 7.117,-12.562 8.809,-19.343"
             style="fill:none;stroke:#000000;stroke-width:2.61674;stroke-linecap:round;stroke-linejoin:round;stroke-miterlimit:10;stroke-dasharray:none;stroke-opacity:1"
             id="path2283" />
        </g>
        <g
           id="g2285"
           transform="matrix(1,0,0,-1,54.248147,790.99882)">
          <path
             d="m 728.473,-610.988 c -6.266,-21.946 -11.02,-44.332 -14.078,-66.95"
             style="fill:none;stroke:#000000;stroke-width:2.61674;stroke-linecap:round;stroke-linejoin:round;stroke-miterlimit:10;stroke-dasharray:none;stroke-opacity:1"
             id="path2287" />
        </g>
        <g
           id="g2289"
           transform="matrix(1,0,0,-1,54.248147,790.99882)">
          <path
             d="m 682.145,-594.637 c 2.484,17.137 6.222,40.278 14.675,55.762"
             style="fill:none;stroke:#000000;stroke-width:2.61674;stroke-linecap:round;stroke-linejoin:round;stroke-miterlimit:10;stroke-dasharray:none;stroke-opacity:1"
             id="path2291" />
        </g>
        <g
           id="g2293"
           transform="matrix(1,0,0,-1,54.248147,790.99882)">
          <path
             d="m 765.746,-586.688 c 1.371,15.641 3.957,31.153 7.192,46.508"
             style="fill:none;stroke:#000000;stroke-width:2.61674;stroke-linecap:round;stroke-linejoin:round;stroke-miterlimit:10;stroke-dasharray:none;stroke-opacity:1"
             id="path2295" />
        </g>
        <g
           id="g2297"
           transform="matrix(1,0,0,-1,54.248147,790.99882)">
          <path
             d="m 848.434,-594.746 c -1.27,13.047 0.363,26.195 3.109,38.953"
             style="fill:none;stroke:#000000;stroke-width:2.61674;stroke-linecap:round;stroke-linejoin:round;stroke-miterlimit:10;stroke-dasharray:none;stroke-opacity:1"
             id="path2299" />
        </g>
        <g
           id="g2301"
           transform="matrix(1,0,0,-1,54.248147,790.99882)">
          <path
             d="m 928.297,-615.07 c -1.297,15.105 -2.887,30.355 -1.02,45.492"
             style="fill:none;stroke:#000000;stroke-width:2.61674;stroke-linecap:round;stroke-linejoin:round;stroke-miterlimit:10;stroke-dasharray:none;stroke-opacity:1"
             id="path2303" />
        </g>
        <g
           id="g2305"
           transform="matrix(1,0,0,-1,54.248147,790.99882)">
          <path
             d="m 992.859,-661.492 c 3.989,16.437 1.774,40.539 3.016,57.238"
             style="fill:none;stroke:#000000;stroke-width:2.61674;stroke-linecap:round;stroke-linejoin:round;stroke-miterlimit:10;stroke-dasharray:none;stroke-opacity:1"
             id="path2307" />
        </g>
        <g
           id="g2309"
           transform="matrix(1,0,0,-1,54.248147,790.99882)">
          <path
             d="m 946.844,-624.004 c -4.68,-11.902 -6.387,-26.203 -7.121,-38.797"
             style="fill:none;stroke:#000000;stroke-width:2.61674;stroke-linecap:round;stroke-linejoin:round;stroke-miterlimit:10;stroke-dasharray:none;stroke-opacity:1"
             id="path2311" />
        </g>
        <g
           id="g2313"
           transform="matrix(1,0,0,-1,54.248147,790.99882)">
          <path
             d="m 992.859,-661.492 c -0.328,-2.211 -1.336,-11.016 -3.347,-12.879"
             style="fill:none;stroke:#000000;stroke-width:2.61674;stroke-linecap:round;stroke-linejoin:round;stroke-miterlimit:10;stroke-dasharray:none;stroke-opacity:1"
             id="path2315" />
        </g>
        <g
           id="g2317"
           transform="matrix(1,0,0,-1,54.248147,790.99882)">
          <path
             d="m 624.52,-572.012 c -2.649,-12.683 -7.657,-24.797 -9.458,-37.668"
             style="fill:none;stroke:#000000;stroke-width:2.61674;stroke-linecap:round;stroke-linejoin:round;stroke-miterlimit:10;stroke-dasharray:none;stroke-opacity:1"
             id="path2319" />
        </g>
        <g
           id="g2321"
           transform="matrix(1,0,0,-1,54.248147,790.99882)">
          <path
             d="m 646.906,-646.855 c -4.453,-16.481 -14.179,-36.95 -17.883,-53.657"
             style="fill:none;stroke:#000000;stroke-width:2.61674;stroke-linecap:round;stroke-linejoin:round;stroke-miterlimit:10;stroke-dasharray:none;stroke-opacity:1"
             id="path2323" />
        </g>
        <g
           id="g2325"
           transform="matrix(1,0,0,-1,54.248147,790.99882)">
          <path
             d="m 611.578,-615.625 c 2.34,-3.715 5.715,-10.086 8.098,-13.773"
             style="fill:none;stroke:#000000;stroke-width:2.61674;stroke-linecap:round;stroke-linejoin:round;stroke-miterlimit:10;stroke-dasharray:none;stroke-opacity:1"
             id="path2327" />
        </g>
        <g
           id="g2329"
           transform="matrix(1,0,0,-1,54.248147,790.99882)">
          <path
             d="m 619.891,-630.504 c 19.394,-17.801 56.277,-27.691 81.089,-17.07"
             style="fill:none;stroke:#000000;stroke-width:2.61674;stroke-linecap:round;stroke-linejoin:round;stroke-miterlimit:10;stroke-dasharray:none;stroke-opacity:1"
             id="path2331" />
        </g>
        <g
           id="g2333"
           transform="matrix(1,0,0,-1,54.248147,790.99882)">
          <path
             d="m 708.223,-656.898 c 3.957,-13.629 -1.942,-27.149 -3.391,-40.707"
             style="fill:none;stroke:#000000;stroke-width:2.61674;stroke-linecap:round;stroke-linejoin:round;stroke-miterlimit:10;stroke-dasharray:none;stroke-opacity:1"
             id="path2335" />
        </g>
        <g
           id="g2337"
           transform="matrix(1,0,0,-1,54.248147,790.99882)">
          <path
             d="m 695.512,-594.992 c -4.973,-7.961 -6.008,-17.481 -8.746,-26.274"
             style="fill:none;stroke:#000000;stroke-width:2.61674;stroke-linecap:round;stroke-linejoin:round;stroke-miterlimit:10;stroke-dasharray:none;stroke-opacity:1"
             id="path2339" />
        </g>
        <g
           id="g2341"
           transform="matrix(1,0,0,-1,54.248147,790.99882)">
          <path
             d="m 678.742,-618.016 -0.89,-12.589"
             style="fill:none;stroke:#000000;stroke-width:2.61674;stroke-linecap:round;stroke-linejoin:round;stroke-miterlimit:10;stroke-dasharray:none;stroke-opacity:1"
             id="path2343" />
        </g>
      </g>
    </g>
  </g>
</svg>
