<?xml version="1.0" encoding="UTF-8" standalone="no"?>
<!-- Created by Ashley Blewer - This work is licensed under a Creative Commons Attribution 4.0 International License -->

<svg
   width="544"
   height="480"
   viewBox="0 0 143.93334 127"
   version="1.1"
   id="svg2490"
   inkscape:version="1.2.2 (1:1.2.2+202212051552+b0a8486541)"
   sodipodi:docname="1892-cinematograph-6.svg"
   xmlns:inkscape="http://www.inkscape.org/namespaces/inkscape"
   xmlns:sodipodi="http://sodipodi.sourceforge.net/DTD/sodipodi-0.dtd"
   xmlns="http://www.w3.org/2000/svg"
   xmlns:svg="http://www.w3.org/2000/svg">
  <sodipodi:namedview
     id="namedview2492"
     pagecolor="#ffffff"
     bordercolor="#666666"
     borderopacity="1.0"
     inkscape:pageshadow="2"
     inkscape:pageopacity="0.0"
     inkscape:pagecheckerboard="0"
     inkscape:document-units="mm"
     showgrid="false"
     units="px"
     inkscape:zoom="0.90583674"
     inkscape:cx="53.541657"
     inkscape:cy="254.46086"
     inkscape:window-width="1846"
     inkscape:window-height="1136"
     inkscape:window-x="0"
     inkscape:window-y="0"
     inkscape:window-maximized="1"
     inkscape:current-layer="g28852"
     inkscape:showpageshadow="2"
     inkscape:deskcolor="#d1d1d1" />
  <defs
     id="defs2487" />
  <g
     inkscape:label="Layer 1"
     inkscape:groupmode="layer"
     id="layer1">
    <g
       id="g4731"
       transform="matrix(0.32961229,0,0,0.32903008,-241.78905,1.73126)"
       style="stroke-width:2.68698">
      <g
         id="g104528"
         transform="matrix(1,0,0,-1,0,792)"
         style="stroke-width:2.68698">
        <g
           id="g104530"
           style="stroke-width:2.68698" />
      </g>
      <g
         id="g104996"
         transform="matrix(1,0,0,-1,0,792)"
         style="stroke-width:2.68698">
        <g
           id="g104998"
           style="stroke-width:2.68698" />
      </g>
      <g
         id="g28852"
         transform="matrix(1.070281,0,0,1.0721748,779.91249,-443.13657)">
        <g
           id="g43675"
           transform="matrix(1.4881085,0,0,1.4881085,-528.79852,-319.26455)">
          <g
             id="g6115"
             transform="matrix(1,0,0,-1,-587.6348,467.35631)">
            <path
               d="m 1032.391,-98.023 c -2.528,20.136 -0.024,40.41 -0.18,60.605"
               style="fill:none;stroke:#000000;stroke-width:2.61674;stroke-linecap:round;stroke-linejoin:round;stroke-miterlimit:10;stroke-dasharray:none;stroke-opacity:1"
               id="path6117" />
          </g>
          <g
             id="g6119"
             transform="matrix(1,0,0,-1,-587.6348,467.35631)">
            <path
               d="m 1032.555,-36.883 c 2.023,-0.219 11.765,-1.664 13.789,-1.949"
               style="fill:none;stroke:#000000;stroke-width:2.61674;stroke-linecap:round;stroke-linejoin:round;stroke-miterlimit:10;stroke-dasharray:none;stroke-opacity:1"
               id="path6121" />
          </g>
          <g
             id="g6123"
             transform="matrix(1,0,0,-1,-587.6348,467.35631)">
            <path
               d="m 1046.344,-38.832 c -0.18,-19.356 -0.766,-38.742 0.629,-58.07"
               style="fill:none;stroke:#000000;stroke-width:2.61674;stroke-linecap:round;stroke-linejoin:round;stroke-miterlimit:10;stroke-dasharray:none;stroke-opacity:1"
               id="path6125" />
          </g>
          <g
             id="g6127"
             transform="matrix(1,0,0,-1,-587.6348,467.35631)">
            <path
               d="m 1032.211,-37.418 c -2.754,-0.801 -16.52,-4.035 -19.273,-4.777"
               style="fill:none;stroke:#000000;stroke-width:2.61674;stroke-linecap:round;stroke-linejoin:round;stroke-miterlimit:10;stroke-dasharray:none;stroke-opacity:1"
               id="path6129" />
          </g>
          <g
             id="g6131"
             transform="matrix(1,0,0,-1,-587.6348,467.35631)">
            <path
               d="m 1012.938,-42.195 c 1.171,-17.809 1.343,-39.18 1.945,-57.004"
               style="fill:none;stroke:#000000;stroke-width:2.61674;stroke-linecap:round;stroke-linejoin:round;stroke-miterlimit:10;stroke-dasharray:none;stroke-opacity:1"
               id="path6133" />
          </g>
          <g
             id="g6135"
             transform="matrix(1,0,0,-1,-587.6348,467.35631)">
            <path
               d="m 985.504,-100.492 c 9.656,1.984 19.59,1.976 29.379,1.293"
               style="fill:none;stroke:#000000;stroke-width:2.61674;stroke-linecap:round;stroke-linejoin:round;stroke-miterlimit:10;stroke-dasharray:none;stroke-opacity:1"
               id="path6137" />
          </g>
          <g
             id="g6139"
             transform="matrix(1,0,0,-1,-587.6348,467.35631)">
            <path
               d="m 985.504,-100.492 c -0.692,-26.524 -3.785,-55.106 -2.371,-81.637"
               style="fill:none;stroke:#000000;stroke-width:2.61674;stroke-linecap:round;stroke-linejoin:round;stroke-miterlimit:10;stroke-dasharray:none;stroke-opacity:1"
               id="path6141" />
          </g>
          <g
             id="g6143"
             transform="matrix(1,0,0,-1,-587.6348,467.35631)">
            <path
               d="m 1014.883,-99.199 c 14.476,-0.028 34.586,1.621 49.055,0.531"
               style="fill:none;stroke:#000000;stroke-width:2.61674;stroke-linecap:round;stroke-linejoin:round;stroke-miterlimit:10;stroke-dasharray:none;stroke-opacity:1"
               id="path6145" />
          </g>
          <g
             id="g6147"
             transform="matrix(1,0,0,-1,-587.6348,467.35631)">
            <path
               d="m 1063.938,-98.668 c 22.746,2.852 45.753,1.879 68.562,0.457"
               style="fill:none;stroke:#000000;stroke-width:2.61674;stroke-linecap:round;stroke-linejoin:round;stroke-miterlimit:10;stroke-dasharray:none;stroke-opacity:1"
               id="path6149" />
          </g>
          <g
             id="g6151"
             transform="matrix(1,0,0,-1,-587.6348,467.35631)">
            <path
               d="m 1132.5,-98.211 c -2.906,-23.066 -1.582,-48.586 0.973,-71.699"
               style="fill:none;stroke:#000000;stroke-width:2.61674;stroke-linecap:round;stroke-linejoin:round;stroke-miterlimit:10;stroke-dasharray:none;stroke-opacity:1"
               id="path6153" />
          </g>
          <g
             id="g6155"
             transform="matrix(1,0,0,-1,-587.6348,467.35631)">
            <path
               d="m 1067.555,-173.508 c 21.945,-0.035 44.011,5.692 65.918,3.598"
               style="fill:none;stroke:#000000;stroke-width:2.61674;stroke-linecap:round;stroke-linejoin:round;stroke-miterlimit:10;stroke-dasharray:none;stroke-opacity:1"
               id="path6157" />
          </g>
          <g
             id="g6159"
             transform="matrix(1,0,0,-1,-587.6348,467.35631)">
            <path
               d="m 1013.477,-180.648 c 13.195,2.586 26.671,3.175 40.078,3.636"
               style="fill:none;stroke:#000000;stroke-width:2.61674;stroke-linecap:round;stroke-linejoin:round;stroke-miterlimit:10;stroke-dasharray:none;stroke-opacity:1"
               id="path6161" />
          </g>
          <g
             id="g6163"
             transform="matrix(1,0,0,-1,-587.6348,467.35631)">
            <path
               d="m 1067.719,-174.508 c 2.461,-1.504 4.789,1.973 7.222,0.254"
               style="fill:none;stroke:#000000;stroke-width:2.61674;stroke-linecap:round;stroke-linejoin:round;stroke-miterlimit:10;stroke-dasharray:none;stroke-opacity:1"
               id="path6165" />
          </g>
          <g
             id="g6167"
             transform="matrix(1,0,0,-1,-587.6348,467.35631)">
            <path
               d="m 1074.941,-174.254 c -1.285,-1.691 3.696,-7.047 1.489,-8.355"
               style="fill:none;stroke:#000000;stroke-width:2.61674;stroke-linecap:round;stroke-linejoin:round;stroke-miterlimit:10;stroke-dasharray:none;stroke-opacity:1"
               id="path6169" />
          </g>
          <g
             id="g6171"
             transform="matrix(1,0,0,-1,-587.6348,467.35631)">
            <path
               d="m 1011.824,-181.102 c 0.086,-0.726 0.395,-3.347 0.465,-3.929"
               style="fill:none;stroke:#000000;stroke-width:2.61674;stroke-linecap:round;stroke-linejoin:round;stroke-miterlimit:10;stroke-dasharray:none;stroke-opacity:1"
               id="path6173" />
          </g>
          <g
             id="g6175"
             transform="matrix(1,0,0,-1,-587.6348,467.35631)">
            <path
               d="m 1012.129,-186.141 c 21.433,1.211 42.918,1.52 64.301,3.532"
               style="fill:none;stroke:#000000;stroke-width:2.61674;stroke-linecap:round;stroke-linejoin:round;stroke-miterlimit:10;stroke-dasharray:none;stroke-opacity:1"
               id="path6177" />
          </g>
          <g
             id="g6179"
             transform="matrix(1,0,0,-1,-587.6348,467.35631)">
            <path
               d="m 982.898,-182.664 c 9.153,-1.051 18.336,-1.813 27.477,-2.969"
               style="fill:none;stroke:#000000;stroke-width:2.61674;stroke-linecap:round;stroke-linejoin:round;stroke-miterlimit:10;stroke-dasharray:none;stroke-opacity:1"
               id="path6181" />
          </g>
          <g
             id="g6183"
             transform="matrix(1,0,0,-1,-587.6348,467.35631)">
            <path
               d="m 986.605,-177.52 c 8.434,-1.179 16.809,-2.941 25.34,-3.281"
               style="fill:none;stroke:#000000;stroke-width:2.61674;stroke-linecap:round;stroke-linejoin:round;stroke-miterlimit:10;stroke-dasharray:none;stroke-opacity:1"
               id="path6185" />
          </g>
          <g
             id="g6187"
             transform="matrix(1,0,0,-1,-587.6348,467.35631)">
            <path
               d="m 1004.23,-99.637 c 3.071,-24.629 -2.359,-53.097 -0.886,-77.777"
               style="fill:none;stroke:#000000;stroke-width:2.61674;stroke-linecap:round;stroke-linejoin:round;stroke-miterlimit:10;stroke-dasharray:none;stroke-opacity:1"
               id="path6189" />
          </g>
          <g
             id="g6191"
             transform="matrix(1,0,0,-1,-587.6348,467.35631)">
            <path
               d="m 1060.336,-103.926 c 0.16,-7.136 -0.113,-14.273 0.133,-21.41"
               style="fill:none;stroke:#000000;stroke-width:2.61674;stroke-linecap:round;stroke-linejoin:round;stroke-miterlimit:10;stroke-dasharray:none;stroke-opacity:1"
               id="path6193" />
          </g>
          <g
             id="g6195"
             transform="matrix(1,0,0,-1,-587.6348,467.35631)">
            <path
               d="m 1057.535,-123.281 c 7.813,-6.871 8.371,-19.551 2.668,-27.867"
               style="fill:none;stroke:#000000;stroke-width:2.61674;stroke-linecap:round;stroke-linejoin:round;stroke-miterlimit:10;stroke-dasharray:none;stroke-opacity:1"
               id="path6197" />
          </g>
          <g
             id="g6199"
             transform="matrix(1,0,0,-1,-587.6348,467.35631)">
            <path
               d="m 1060.055,-151.012 c -2.391,0.047 -15.547,0.2 -17.934,0.231"
               style="fill:none;stroke:#000000;stroke-width:2.61674;stroke-linecap:round;stroke-linejoin:round;stroke-miterlimit:10;stroke-dasharray:none;stroke-opacity:1"
               id="path6201" />
          </g>
          <g
             id="g6203"
             transform="matrix(1,0,0,-1,-587.6348,467.35631)">
            <path
               d="m 1057.535,-123.281 c -6.68,-1.074 -15.18,-1.489 -21.844,-2.723"
               style="fill:none;stroke:#000000;stroke-width:2.61674;stroke-linecap:round;stroke-linejoin:round;stroke-miterlimit:10;stroke-dasharray:none;stroke-opacity:1"
               id="path6205" />
          </g>
          <g
             id="g6207"
             transform="matrix(1,0,0,-1,-587.6348,467.35631)">
            <path
               d="m 1043.125,-125.32 c 9.355,-5.164 8.727,-21.082 -1.004,-25.461"
               style="fill:none;stroke:#000000;stroke-width:2.61674;stroke-linecap:round;stroke-linejoin:round;stroke-miterlimit:10;stroke-dasharray:none;stroke-opacity:1"
               id="path6209" />
          </g>
          <g
             id="g6211"
             transform="matrix(1,0,0,-1,-587.6348,467.35631)">
            <path
               d="m 1038.367,-126.562 c 15.707,0.296 4.067,-35.645 -4.078,-14.836"
               style="fill:none;stroke:#000000;stroke-width:2.61674;stroke-linecap:round;stroke-linejoin:round;stroke-miterlimit:10;stroke-dasharray:none;stroke-opacity:1"
               id="path6213" />
          </g>
          <g
             id="g6215"
             transform="matrix(1,0,0,-1,-587.6348,467.35631)">
            <path
               d="m 1029.145,-43.391 c -12.915,6.618 -12.477,-30.652 0.882,-17.914"
               style="fill:none;stroke:#000000;stroke-width:2.61674;stroke-linecap:round;stroke-linejoin:round;stroke-miterlimit:10;stroke-dasharray:none;stroke-opacity:1"
               id="path6217" />
          </g>
          <g
             id="g6219"
             transform="matrix(1,0,0,-1,-587.6348,467.35631)">
            <path
               d="m 1031.238,-77.133 c -22.261,22.887 -4.527,-39.691 0.481,-1.629 l -0.332,1.231"
               style="fill:none;stroke:#000000;stroke-width:2.61674;stroke-linecap:round;stroke-linejoin:round;stroke-miterlimit:10;stroke-dasharray:none;stroke-opacity:1"
               id="path6221" />
          </g>
          <g
             id="g6223"
             transform="matrix(1,0,0,-1,-587.6348,467.35631)">
            <path
               d="m 1059.027,-184.375 c 1.899,-20.223 9.52,-42.473 15.039,-61.828"
               style="fill:none;stroke:#000000;stroke-width:2.61674;stroke-linecap:round;stroke-linejoin:round;stroke-miterlimit:10;stroke-dasharray:none;stroke-opacity:1"
               id="path6225" />
          </g>
          <g
             id="g6227"
             transform="matrix(1,0,0,-1,-587.6348,467.35631)">
            <path
               d="m 1001.84,-186.086 c 4.617,-4.215 -4.274,-15.519 -2.067,-4.769 l 1.168,5.355"
               style="fill:none;stroke:#000000;stroke-width:2.61674;stroke-linecap:round;stroke-linejoin:round;stroke-miterlimit:10;stroke-dasharray:none;stroke-opacity:1"
               id="path6229" />
          </g>
          <g
             id="g6231"
             transform="matrix(1,0,0,-1,-587.6348,467.35631)">
            <path
               d="m 1000.16,-198.711 c -2.961,-15.832 -3.652,-31.957 -5.004,-47.973"
               style="fill:none;stroke:#000000;stroke-width:2.61674;stroke-linecap:round;stroke-linejoin:round;stroke-miterlimit:10;stroke-dasharray:none;stroke-opacity:1"
               id="path6233" />
          </g>
          <g
             id="g6235"
             transform="matrix(1,0,0,-1,-587.6348,467.35631)">
            <path
               d="m 1006.875,-186.559 c -1.855,-19.894 -2.023,-39.918 -4.254,-59.781"
               style="fill:none;stroke:#000000;stroke-width:2.61674;stroke-linecap:round;stroke-linejoin:round;stroke-miterlimit:10;stroke-dasharray:none;stroke-opacity:1"
               id="path6237" />
          </g>
          <g
             id="g6239"
             transform="matrix(1,0,0,-1,-587.6348,467.35631)">
            <path
               d="m 1012.723,-202.566 c -2.133,-14.821 0.351,-29.95 -2.59,-44.692"
               style="fill:none;stroke:#000000;stroke-width:2.61674;stroke-linecap:round;stroke-linejoin:round;stroke-miterlimit:10;stroke-dasharray:none;stroke-opacity:1"
               id="path6241" />
          </g>
          <g
             id="g6243"
             transform="matrix(1,0,0,-1,-587.6348,467.35631)">
            <path
               d="m 1013.141,-201.43 c 2.527,-0.043 12.625,-0.269 15.152,-0.343"
               style="fill:none;stroke:#000000;stroke-width:2.61674;stroke-linecap:round;stroke-linejoin:round;stroke-miterlimit:10;stroke-dasharray:none;stroke-opacity:1"
               id="path6245" />
          </g>
          <g
             id="g6247"
             transform="matrix(1,0,0,-1,-587.6348,467.35631)">
            <path
               d="m 1029.449,-199.977 c -1.902,-14.609 -3.035,-33.507 -5.617,-48.039"
               style="fill:none;stroke:#000000;stroke-width:2.61674;stroke-linecap:round;stroke-linejoin:round;stroke-miterlimit:10;stroke-dasharray:none;stroke-opacity:1"
               id="path6249" />
          </g>
          <g
             id="g6251"
             transform="matrix(1,0,0,-1,-587.6348,467.35631)">
            <path
               d="m 1021.027,-205.465 c -2.953,-14.359 -5.789,-28.789 -10.066,-42.828"
               style="fill:none;stroke:#000000;stroke-width:2.61674;stroke-linecap:round;stroke-linejoin:round;stroke-miterlimit:10;stroke-dasharray:none;stroke-opacity:1"
               id="path6253" />
          </g>
          <g
             id="g6255"
             transform="matrix(1,0,0,-1,-587.6348,467.35631)">
            <path
               d="m 1017.098,-203.742 c -0.551,-5.543 5.73,-0.528 8.222,-2.059"
               style="fill:none;stroke:#000000;stroke-width:2.61674;stroke-linecap:round;stroke-linejoin:round;stroke-miterlimit:10;stroke-dasharray:none;stroke-opacity:1"
               id="path6257" />
          </g>
          <g
             id="g6259"
             transform="matrix(1,0,0,-1,-587.6348,467.35631)">
            <path
               d="m 1043.359,-195.477 c -5.261,-15.394 -6.773,-36.355 -10.207,-52.148"
               style="fill:none;stroke:#000000;stroke-width:2.61674;stroke-linecap:round;stroke-linejoin:round;stroke-miterlimit:10;stroke-dasharray:none;stroke-opacity:1"
               id="path6261" />
          </g>
          <g
             id="g6263"
             transform="matrix(1,0,0,-1,-587.6348,467.35631)">
            <path
               d="m 1049.129,-188.57 c -4.531,-14.977 15.726,3.097 -0.449,1.492"
               style="fill:none;stroke:#000000;stroke-width:2.61674;stroke-linecap:round;stroke-linejoin:round;stroke-miterlimit:10;stroke-dasharray:none;stroke-opacity:1"
               id="path6265" />
          </g>
          <g
             id="g6267"
             transform="matrix(1,0,0,-1,-587.6348,467.35631)">
            <path
               d="m 1044.387,-190.082 c -0.731,-0.012 -3.36,-0.055 -3.946,-0.066"
               style="fill:none;stroke:#000000;stroke-width:2.61674;stroke-linecap:round;stroke-linejoin:round;stroke-miterlimit:10;stroke-dasharray:none;stroke-opacity:1"
               id="path6269" />
          </g>
          <g
             id="g6271"
             transform="matrix(1,0,0,-1,-587.6348,467.35631)">
            <path
               d="m 1044.863,-194.898 -3.011,-1.161"
               style="fill:none;stroke:#000000;stroke-width:2.61674;stroke-linecap:round;stroke-linejoin:round;stroke-miterlimit:10;stroke-dasharray:none;stroke-opacity:1"
               id="path6273" />
          </g>
          <g
             id="g6275"
             transform="matrix(1,0,0,-1,-587.6348,467.35631)">
            <path
               d="m 1040.801,-190.465 c -3.067,-0.105 -0.617,-3.808 1.051,-5.594"
               style="fill:none;stroke:#000000;stroke-width:2.61674;stroke-linecap:round;stroke-linejoin:round;stroke-miterlimit:10;stroke-dasharray:none;stroke-opacity:1"
               id="path6277" />
          </g>
          <g
             id="g6279"
             transform="matrix(1,0,0,-1,-587.6348,467.35631)">
            <path
               d="m 1030.766,-190.203 c -0.211,-1.656 -1.086,-8.172 -1.317,-9.774"
               style="fill:none;stroke:#000000;stroke-width:2.61674;stroke-linecap:round;stroke-linejoin:round;stroke-miterlimit:10;stroke-dasharray:none;stroke-opacity:1"
               id="path6281" />
          </g>
          <g
             id="g6283"
             transform="matrix(1,0,0,-1,-587.6348,467.35631)">
            <path
               d="m 1039.918,-155.395 c 1.883,-1.984 10.566,-11.796 12.359,-13.851"
               style="fill:none;stroke:#000000;stroke-width:2.61674;stroke-linecap:round;stroke-linejoin:round;stroke-miterlimit:10;stroke-dasharray:none;stroke-opacity:1"
               id="path6285" />
          </g>
          <g
             id="g6287"
             transform="matrix(1,0,0,-1,-587.6348,467.35631)">
            <path
               d="m 1053.004,-170.07 c -2.152,-0.805 -2.442,-4.196 -0.313,-5.028"
               style="fill:none;stroke:#000000;stroke-width:2.61674;stroke-linecap:round;stroke-linejoin:round;stroke-miterlimit:10;stroke-dasharray:none;stroke-opacity:1"
               id="path6289" />
          </g>
          <g
             id="g6291"
             transform="matrix(1,0,0,-1,-587.6348,467.35631)">
            <path
               d="m 1053.586,-170.605 c 16.809,4.46 19.676,-12.727 -0.59,-3.629"
               style="fill:none;stroke:#000000;stroke-width:2.61674;stroke-linecap:round;stroke-linejoin:round;stroke-miterlimit:10;stroke-dasharray:none;stroke-opacity:1"
               id="path6293" />
          </g>
          <g
             id="g6295"
             transform="matrix(1,0,0,-1,-587.6348,467.35631)">
            <path
               d="m 1050.367,-173.883 c -3.695,6.231 -9.754,10.387 -15.082,15.074"
               style="fill:none;stroke:#000000;stroke-width:2.61674;stroke-linecap:round;stroke-linejoin:round;stroke-miterlimit:10;stroke-dasharray:none;stroke-opacity:1"
               id="path6297" />
          </g>
          <g
             id="g6299"
             transform="matrix(1,0,0,-1,-587.6348,467.35631)">
            <path
               d="m 1034.516,-157.633 c -7.082,5.192 6.738,11.242 5.402,2.238"
               style="fill:none;stroke:#000000;stroke-width:2.61674;stroke-linecap:round;stroke-linejoin:round;stroke-miterlimit:10;stroke-dasharray:none;stroke-opacity:1"
               id="path6301" />
          </g>
          <g
             id="g6303"
             transform="matrix(1,0,0,-1,-587.6348,467.35631)">
            <path
               d="m 1032.555,-151.379 c -1.571,0.16 -7.825,0.672 -9.383,0.77"
               style="fill:none;stroke:#000000;stroke-width:2.61674;stroke-linecap:round;stroke-linejoin:round;stroke-miterlimit:10;stroke-dasharray:none;stroke-opacity:1"
               id="path6305" />
          </g>
          <g
             id="g6307"
             transform="matrix(1,0,0,-1,-587.6348,467.35631)">
            <path
               d="m 1033.113,-157.559 c -2.144,0.407 -10.73,1.887 -12.883,2.223"
               style="fill:none;stroke:#000000;stroke-width:2.61674;stroke-linecap:round;stroke-linejoin:round;stroke-miterlimit:10;stroke-dasharray:none;stroke-opacity:1"
               id="path6309" />
          </g>
          <g
             id="g6599"
             transform="matrix(1,0,0,-1,-587.6348,467.35631)">
            <path
               d="m 998.848,-102.855 c -10.903,-14.77 2.644,-9.715 0,0"
               style="fill:none;stroke:#000000;stroke-width:1.26872;stroke-linecap:round;stroke-linejoin:round;stroke-miterlimit:10;stroke-dasharray:none;stroke-opacity:1"
               id="path6601" />
          </g>
          <g
             id="g6603"
             transform="matrix(1,0,0,-1,-587.6348,467.35631)">
            <path
               d="m 997.25,-156.551 c 6.219,2.25 -7.773,-17.359 0,0"
               style="fill:none;stroke:#000000;stroke-width:1.26872;stroke-linecap:round;stroke-linejoin:round;stroke-miterlimit:10;stroke-dasharray:none;stroke-opacity:1"
               id="path6605" />
          </g>
          <g
             id="g6607"
             transform="matrix(1,0,0,-1,-587.6348,467.35631)">
            <path
               d="m 986.09,-174.266 0.765,-1.269"
               style="fill:none;stroke:#000000;stroke-width:1.26872;stroke-linecap:round;stroke-linejoin:round;stroke-miterlimit:10;stroke-dasharray:none;stroke-opacity:1"
               id="path6609" />
          </g>
          <g
             id="g6611"
             transform="matrix(1,0,0,-1,-587.6348,467.35631)">
            <path
               d="m 989.477,-173.91 0.382,-1.176"
               style="fill:none;stroke:#000000;stroke-width:1.26872;stroke-linecap:round;stroke-linejoin:round;stroke-miterlimit:10;stroke-dasharray:none;stroke-opacity:1"
               id="path6613" />
          </g>
          <g
             id="g6615"
             transform="matrix(1,0,0,-1,-587.6348,467.35631)">
            <path
               d="m 993.57,-174.414 0.922,-1.125"
               style="fill:none;stroke:#000000;stroke-width:1.26872;stroke-linecap:round;stroke-linejoin:round;stroke-miterlimit:10;stroke-dasharray:none;stroke-opacity:1"
               id="path6617" />
          </g>
          <g
             id="g6619"
             transform="matrix(1,0,0,-1,-587.6348,467.35631)">
            <path
               d="m 996.859,-175.156 0.157,-0.91"
               style="fill:none;stroke:#000000;stroke-width:1.26872;stroke-linecap:round;stroke-linejoin:round;stroke-miterlimit:10;stroke-dasharray:none;stroke-opacity:1"
               id="path6621" />
          </g>
          <g
             id="g6623"
             transform="matrix(1,0,0,-1,-587.6348,467.35631)">
            <path
               d="m 988.328,-102.602 c 0.129,-0.109 -0.457,-2.722 0.75,-1.668"
               style="fill:none;stroke:#000000;stroke-width:1.26872;stroke-linecap:round;stroke-linejoin:round;stroke-miterlimit:10;stroke-dasharray:none;stroke-opacity:1"
               id="path6625" />
          </g>
          <g
             id="g6627"
             transform="matrix(1,0,0,-1,-587.6348,467.35631)">
            <path
               d="m 991.797,-102.984 0.492,-1.063"
               style="fill:none;stroke:#000000;stroke-width:1.26872;stroke-linecap:round;stroke-linejoin:round;stroke-miterlimit:10;stroke-dasharray:none;stroke-opacity:1"
               id="path6629" />
          </g>
          <g
             id="g6631"
             transform="matrix(1,0,0,-1,-587.6348,467.35631)">
            <path
               d="m 995.293,-103.047 0.449,-1.301"
               style="fill:none;stroke:#000000;stroke-width:1.26872;stroke-linecap:round;stroke-linejoin:round;stroke-miterlimit:10;stroke-dasharray:none;stroke-opacity:1"
               id="path6633" />
          </g>
          <g
             id="g6635"
             transform="matrix(1,0,0,-1,-587.6348,467.35631)">
            <path
               d="m 1007.324,-104.492 c 11.145,1.617 22.453,1.39 33.672,0.879"
               style="fill:none;stroke:#000000;stroke-width:1.26872;stroke-linecap:round;stroke-linejoin:round;stroke-miterlimit:10;stroke-dasharray:none;stroke-opacity:1"
               id="path6637" />
          </g>
          <g
             id="g6639"
             transform="matrix(1,0,0,-1,-587.6348,467.35631)">
            <path
               d="m 1040.996,-103.613 c 5.828,-2.582 11.84,-1.211 17.789,-0.496"
               style="fill:none;stroke:#000000;stroke-width:1.26872;stroke-linecap:round;stroke-linejoin:round;stroke-miterlimit:10;stroke-dasharray:none;stroke-opacity:1"
               id="path6641" />
          </g>
          <g
             id="g6643"
             transform="matrix(1,0,0,-1,-587.6348,467.35631)">
            <path
               d="m 1062.438,-102.375 c 2.839,-6.945 -2.04,-13.828 -0.598,-20.871"
               style="fill:none;stroke:#000000;stroke-width:1.26872;stroke-linecap:round;stroke-linejoin:round;stroke-miterlimit:10;stroke-dasharray:none;stroke-opacity:1"
               id="path6645" />
          </g>
          <g
             id="g6647"
             transform="matrix(1,0,0,-1,-587.6348,467.35631)">
            <path
               d="m 1051.855,-108.148 c -0.378,-5.606 0.344,-11.278 -1.293,-16.778"
               style="fill:none;stroke:#000000;stroke-width:1.26872;stroke-linecap:round;stroke-linejoin:round;stroke-miterlimit:10;stroke-dasharray:none;stroke-opacity:1"
               id="path6649" />
          </g>
          <g
             id="g6651"
             transform="matrix(1,0,0,-1,-587.6348,467.35631)">
            <path
               d="m 1053.844,-154.332 c -0.235,-2.121 -0.426,-10.766 -0.285,-12.969"
               style="fill:none;stroke:#000000;stroke-width:1.26872;stroke-linecap:round;stroke-linejoin:round;stroke-miterlimit:10;stroke-dasharray:none;stroke-opacity:1"
               id="path6653" />
          </g>
          <g
             id="g6655"
             transform="matrix(1,0,0,-1,-587.6348,467.35631)">
            <path
               d="m 1062.004,-153.586 c 0.312,-5.012 2.351,-10.973 -0.246,-15.652"
               style="fill:none;stroke:#000000;stroke-width:1.26872;stroke-linecap:round;stroke-linejoin:round;stroke-miterlimit:10;stroke-dasharray:none;stroke-opacity:1"
               id="path6657" />
          </g>
          <g
             id="g6659"
             transform="matrix(1,0,0,-1,-587.6348,467.35631)">
            <path
               d="m 1063.941,-108.719 c 1.664,-19.965 2.133,-40.054 0.875,-60.058"
               style="fill:none;stroke:#000000;stroke-width:1.26872;stroke-linecap:round;stroke-linejoin:round;stroke-miterlimit:10;stroke-dasharray:none;stroke-opacity:1"
               id="path6661" />
          </g>
          <g
             id="g6663"
             transform="matrix(1,0,0,-1,-587.6348,467.35631)">
            <path
               d="m 1070.227,-127.535 c 0.207,-7.027 -0.235,-14.063 0.261,-21.078"
               style="fill:none;stroke:#000000;stroke-width:1.26872;stroke-linecap:round;stroke-linejoin:round;stroke-miterlimit:10;stroke-dasharray:none;stroke-opacity:1"
               id="path6665" />
          </g>
          <g
             id="g6667"
             transform="matrix(1,0,0,-1,-587.6348,467.35631)">
            <path
               d="m 1070.465,-148.457 c 6.015,-0.625 12.051,0.266 18.043,0.664"
               style="fill:none;stroke:#000000;stroke-width:1.26872;stroke-linecap:round;stroke-linejoin:round;stroke-miterlimit:10;stroke-dasharray:none;stroke-opacity:1"
               id="path6669" />
          </g>
          <g
             id="g6671"
             transform="matrix(1,0,0,-1,-587.6348,467.35631)">
            <path
               d="m 1089.398,-147.805 c 1.063,7.637 -0.539,15.289 -1.718,22.805"
               style="fill:none;stroke:#000000;stroke-width:1.26872;stroke-linecap:round;stroke-linejoin:round;stroke-miterlimit:10;stroke-dasharray:none;stroke-opacity:1"
               id="path6673" />
          </g>
          <g
             id="g6675"
             transform="matrix(1,0,0,-1,-587.6348,467.35631)">
            <path
               d="m 1087.48,-125.297 c -2.98,-7.07 -2.668,-15.644 1.332,-22.265"
               style="fill:none;stroke:#000000;stroke-width:1.26872;stroke-linecap:round;stroke-linejoin:round;stroke-miterlimit:10;stroke-dasharray:none;stroke-opacity:1"
               id="path6677" />
          </g>
          <g
             id="g6679"
             transform="matrix(1,0,0,-1,-587.6348,467.35631)">
            <path
               d="m 1087.68,-125 -17.453,-2.535"
               style="fill:none;stroke:#000000;stroke-width:1.26872;stroke-linecap:round;stroke-linejoin:round;stroke-miterlimit:10;stroke-dasharray:none;stroke-opacity:1"
               id="path6681" />
          </g>
          <g
             id="g6683"
             transform="matrix(1,0,0,-1,-587.6348,467.35631)">
            <path
               d="m 1109.652,-144.996 c -18.09,-8.031 13.168,-13.531 -1.554,-1.332"
               style="fill:none;stroke:#000000;stroke-width:1.26872;stroke-linecap:round;stroke-linejoin:round;stroke-miterlimit:10;stroke-dasharray:none;stroke-opacity:1"
               id="path6685" />
          </g>
          <g
             id="g6687"
             transform="matrix(1,0,0,-1,-587.6348,467.35631)">
            <path
               d="m 1109.426,-145.914 -7.992,0.887"
               style="fill:none;stroke:#000000;stroke-width:1.26872;stroke-linecap:round;stroke-linejoin:round;stroke-miterlimit:10;stroke-dasharray:none;stroke-opacity:1"
               id="path6689" />
          </g>
          <g
             id="g6691"
             transform="matrix(1,0,0,-1,-587.6348,467.35631)">
            <path
               d="m 1106.715,-155.391 -5.281,1.813"
               style="fill:none;stroke:#000000;stroke-width:1.26872;stroke-linecap:round;stroke-linejoin:round;stroke-miterlimit:10;stroke-dasharray:none;stroke-opacity:1"
               id="path6693" />
          </g>
          <g
             id="g6695"
             transform="matrix(1,0,0,-1,-587.6348,467.35631)">
            <path
               d="m 1101.434,-145.027 c -2.43,-1.371 0.531,-5.961 0.285,-8.075"
               style="fill:none;stroke:#000000;stroke-width:1.26872;stroke-linecap:round;stroke-linejoin:round;stroke-miterlimit:10;stroke-dasharray:none;stroke-opacity:1"
               id="path6697" />
          </g>
          <g
             id="g6699"
             transform="matrix(1,0,0,-1,-587.6348,467.35631)">
            <path
               d="m 1107.637,-144.793 c -16.871,13.703 -12.489,-21.426 -0.922,-10.598"
               style="fill:none;stroke:#000000;stroke-width:1.26872;stroke-linecap:round;stroke-linejoin:round;stroke-miterlimit:10;stroke-dasharray:none;stroke-opacity:1"
               id="path6701" />
          </g>
          <g
             id="g6703"
             transform="matrix(1,0,0,-1,-587.6348,467.35631)">
            <path
               d="m 1024.133,-119.645 7.414,0.129"
               style="fill:none;stroke:#000000;stroke-width:1.26872;stroke-linecap:round;stroke-linejoin:round;stroke-miterlimit:10;stroke-dasharray:none;stroke-opacity:1"
               id="path6705" />
          </g>
          <g
             id="g6707"
             transform="matrix(1,0,0,-1,-587.6348,467.35631)">
            <path
               d="m 1024.133,-119.645 c 0.043,-1.582 -0.383,-8.921 -0.363,-10.48"
               style="fill:none;stroke:#000000;stroke-width:1.26872;stroke-linecap:round;stroke-linejoin:round;stroke-miterlimit:10;stroke-dasharray:none;stroke-opacity:1"
               id="path6709" />
          </g>
          <g
             id="g6711"
             transform="matrix(1,0,0,-1,-587.6348,467.35631)">
            <path
               d="m 1023.488,-129.676 3.262,-0.101"
               style="fill:none;stroke:#000000;stroke-width:1.26872;stroke-linecap:round;stroke-linejoin:round;stroke-miterlimit:10;stroke-dasharray:none;stroke-opacity:1"
               id="path6713" />
          </g>
          <g
             id="g6715"
             transform="matrix(1,0,0,-1,-587.6348,467.35631)">
            <path
               d="m 1024.719,-130.27 8.285,-0.214"
               style="fill:none;stroke:#000000;stroke-width:1.26872;stroke-linecap:round;stroke-linejoin:round;stroke-miterlimit:10;stroke-dasharray:none;stroke-opacity:1"
               id="path6717" />
          </g>
          <g
             id="g6719"
             transform="matrix(1,0,0,-1,-587.6348,467.35631)">
            <path
               d="m 1034.375,-130.973 c 1.957,-9.054 -5.113,-14.097 -4.883,-1.062"
               style="fill:none;stroke:#000000;stroke-width:1.26872;stroke-linecap:round;stroke-linejoin:round;stroke-miterlimit:10;stroke-dasharray:none;stroke-opacity:1"
               id="path6721" />
          </g>
          <g
             id="g6723"
             transform="matrix(1,0,0,-1,-587.6348,467.35631)">
            <path
               d="m 1028.805,-134.285 c -2.856,-1.047 -1.43,-5.664 1.066,-6.117"
               style="fill:none;stroke:#000000;stroke-width:1.26872;stroke-linecap:round;stroke-linejoin:round;stroke-miterlimit:10;stroke-dasharray:none;stroke-opacity:1"
               id="path6725" />
          </g>
          <g
             id="g6727"
             transform="matrix(1,0,0,-1,-587.6348,467.35631)">
            <path
               d="m 1024.387,-131.539 c 0.73,-0.043 3.269,-0.199 3.812,-0.234"
               style="fill:none;stroke:#000000;stroke-width:1.26872;stroke-linecap:round;stroke-linejoin:round;stroke-miterlimit:10;stroke-dasharray:none;stroke-opacity:1"
               id="path6729" />
          </g>
          <g
             id="g6731"
             transform="matrix(1,0,0,-1,-587.6348,467.35631)">
            <path
               d="m 1006.312,-143.559 c 3.649,12.871 29.75,7.25 24.731,-6.558"
               style="fill:none;stroke:#000000;stroke-width:1.26872;stroke-linecap:round;stroke-linejoin:round;stroke-miterlimit:10;stroke-dasharray:none;stroke-opacity:1"
               id="path6733" />
          </g>
          <g
             id="g6735"
             transform="matrix(1,0,0,-1,-587.6348,467.35631)">
            <path
               d="m 1005.113,-158.508 c -3.16,-14.133 24.438,-19.75 22.27,-3.019"
               style="fill:none;stroke:#000000;stroke-width:1.26872;stroke-linecap:round;stroke-linejoin:round;stroke-miterlimit:10;stroke-dasharray:none;stroke-opacity:1"
               id="path6737" />
          </g>
          <g
             id="g6739"
             transform="matrix(1,0,0,-1,-587.6348,467.35631)">
            <path
               d="m 1027.828,-160.336 c -11.879,-7.184 -10.551,19.449 -0.578,9.672"
               style="fill:none;stroke:#000000;stroke-width:1.26872;stroke-linecap:round;stroke-linejoin:round;stroke-miterlimit:10;stroke-dasharray:none;stroke-opacity:1"
               id="path6741" />
          </g>
          <g
             id="g6743"
             transform="matrix(1,0,0,-1,-587.6348,467.35631)">
            <path
               d="m 1023.172,-150.609 c 0,0 -5.953,4.414 -6.871,1.847"
               style="fill:none;stroke:#000000;stroke-width:1.26872;stroke-linecap:round;stroke-linejoin:round;stroke-miterlimit:10;stroke-dasharray:none;stroke-opacity:1"
               id="path6745" />
          </g>
          <g
             id="g6747"
             transform="matrix(1,0,0,-1,-587.6348,467.35631)">
            <path
               d="m 1016.301,-148.762 c -2.028,-4.023 -2.606,-13.914 4.683,-12.672"
               style="fill:none;stroke:#000000;stroke-width:1.26872;stroke-linecap:round;stroke-linejoin:round;stroke-miterlimit:10;stroke-dasharray:none;stroke-opacity:1"
               id="path6749" />
          </g>
          <g
             id="g6751"
             transform="matrix(1,0,0,-1,-587.6348,467.35631)">
            <path
               d="m 1032.727,-161.336 -0.11,-8.766"
               style="fill:none;stroke:#000000;stroke-width:1.26872;stroke-linecap:round;stroke-linejoin:round;stroke-miterlimit:10;stroke-dasharray:none;stroke-opacity:1"
               id="path6753" />
          </g>
          <g
             id="g6755"
             transform="matrix(1,0,0,-1,-587.6348,467.35631)">
            <path
               d="m 1030.531,-160.184 4.211,-0.261"
               style="fill:none;stroke:#000000;stroke-width:1.26872;stroke-linecap:round;stroke-linejoin:round;stroke-miterlimit:10;stroke-dasharray:none;stroke-opacity:1"
               id="path6757" />
          </g>
          <g
             id="g6759"
             transform="matrix(1,0,0,-1,-587.6348,467.35631)">
            <path
               d="m 1005.754,-175.07 c 13.285,1.57 26.66,2.129 40.019,2.488"
               style="fill:none;stroke:#000000;stroke-width:1.26872;stroke-linecap:round;stroke-linejoin:round;stroke-miterlimit:10;stroke-dasharray:none;stroke-opacity:1"
               id="path6761" />
          </g>
          <g
             id="g6763"
             transform="matrix(1,0,0,-1,-587.6348,467.35631)">
            <path
               d="m 1067.797,-170.051 c 21.101,-2.137 44.586,2.567 65.676,0.141"
               style="fill:none;stroke:#000000;stroke-width:1.26872;stroke-linecap:round;stroke-linejoin:round;stroke-miterlimit:10;stroke-dasharray:none;stroke-opacity:1"
               id="path6765" />
          </g>
          <g
             id="g6767"
             transform="matrix(1,0,0,-1,-587.6348,467.35631)">
            <path
               d="m 1019.48,-105.648 c -4.339,-6.383 19.543,-5.11 12.883,0.386"
               style="fill:none;stroke:#000000;stroke-width:1.26872;stroke-linecap:round;stroke-linejoin:round;stroke-miterlimit:10;stroke-dasharray:none;stroke-opacity:1"
               id="path6769" />
          </g>
          <g
             id="g6771"
             transform="matrix(1,0,0,-1,-587.6348,467.35631)">
            <path
               d="m 1024.332,-105.648 0.176,-1.981"
               style="fill:none;stroke:#000000;stroke-width:1.26872;stroke-linecap:round;stroke-linejoin:round;stroke-miterlimit:10;stroke-dasharray:none;stroke-opacity:1"
               id="path6773" />
          </g>
          <g
             id="g6775"
             transform="matrix(1,0,0,-1,-587.6348,467.35631)">
            <path
               d="m 1027.121,-106.145 0.172,-1.523"
               style="fill:none;stroke:#000000;stroke-width:1.26872;stroke-linecap:round;stroke-linejoin:round;stroke-miterlimit:10;stroke-dasharray:none;stroke-opacity:1"
               id="path6777" />
          </g>
          <g
             id="g6779"
             transform="matrix(1,0,0,-1,-587.6348,467.35631)">
            <path
               d="m 1035.324,-105.84 c 0.625,-2.008 1.25,-4.015 1.879,-6.023"
               style="fill:none;stroke:#000000;stroke-width:1.26872;stroke-linecap:round;stroke-linejoin:round;stroke-miterlimit:10;stroke-dasharray:none;stroke-opacity:1"
               id="path6781" />
          </g>
          <g
             id="g6783"
             transform="matrix(1,0,0,-1,-587.6348,467.35631)">
            <path
               d="m 1037.113,-112.258 c 13.856,9.313 7.699,-5.133 5.91,-9.547"
               style="fill:none;stroke:#000000;stroke-width:1.26872;stroke-linecap:round;stroke-linejoin:round;stroke-miterlimit:10;stroke-dasharray:none;stroke-opacity:1"
               id="path6785" />
          </g>
          <g
             id="g6787"
             transform="matrix(1,0,0,-1,-587.6348,467.35631)">
            <path
               d="m 1033.852,-108.375 c 1.785,-3.352 3.187,-9.406 -0.387,-12.121"
               style="fill:none;stroke:#000000;stroke-width:1.26872;stroke-linecap:round;stroke-linejoin:round;stroke-miterlimit:10;stroke-dasharray:none;stroke-opacity:1"
               id="path6789" />
          </g>
        </g>
      </g>
    </g>
  </g>
</svg>
