<?xml version="1.0" encoding="UTF-8" standalone="no"?>
<!-- Created by Ashley Blewer - This work is licensed under a Creative Commons Attribution 4.0 International License -->

<svg
   width="544"
   height="480"
   viewBox="0 0 143.93334 127"
   version="1.1"
   id="svg2490"
   inkscape:version="1.2.2 (1:1.2.2+202212051552+b0a8486541)"
   sodipodi:docname="1892-35mm-silent-3.svg"
   xmlns:inkscape="http://www.inkscape.org/namespaces/inkscape"
   xmlns:sodipodi="http://sodipodi.sourceforge.net/DTD/sodipodi-0.dtd"
   xmlns="http://www.w3.org/2000/svg"
   xmlns:svg="http://www.w3.org/2000/svg">
  <sodipodi:namedview
     id="namedview2492"
     pagecolor="#ffffff"
     bordercolor="#666666"
     borderopacity="1.0"
     inkscape:pageshadow="2"
     inkscape:pageopacity="0.0"
     inkscape:pagecheckerboard="0"
     inkscape:document-units="mm"
     showgrid="false"
     units="px"
     inkscape:zoom="0.90583674"
     inkscape:cx="53.541657"
     inkscape:cy="254.46086"
     inkscape:window-width="1846"
     inkscape:window-height="1136"
     inkscape:window-x="0"
     inkscape:window-y="0"
     inkscape:window-maximized="1"
     inkscape:current-layer="g4731"
     inkscape:showpageshadow="2"
     inkscape:deskcolor="#d1d1d1" />
  <defs
     id="defs2487" />
  <g
     inkscape:label="Layer 1"
     inkscape:groupmode="layer"
     id="layer1">
    <g
       id="g4731"
       transform="matrix(0.32961229,0,0,0.32903008,-241.78905,1.73126)"
       style="stroke-width:2.68698">
      <g
         id="g104528"
         transform="matrix(1,0,0,-1,0,792)"
         style="stroke-width:2.68698">
        <g
           id="g104530"
           style="stroke-width:2.68698" />
      </g>
      <g
         id="g104996"
         transform="matrix(1,0,0,-1,0,792)"
         style="stroke-width:2.68698">
        <g
           id="g104998"
           style="stroke-width:2.68698" />
      </g>
      <g
         id="g15185"
         transform="matrix(1.6398316,0,0,1.6427332,-422.08858,-2271.1494)">
        <g
           id="g3765"
           transform="matrix(1,0,0,-1,8.0480667,851.47087)">
          <path
             d="m 712.32,-733.938 c 0.746,32.672 -2.683,65.356 0.957,97.954 2.731,28.25 0.485,56.672 -0.984,84.886 l 0.379,2.067 0.715,2.004"
             style="fill:none;stroke:#000000;stroke-width:2.61674;stroke-linecap:round;stroke-linejoin:round;stroke-miterlimit:10;stroke-dasharray:none;stroke-opacity:1"
             id="path3767" />
        </g>
        <g
           id="g3769"
           transform="matrix(1,0,0,-1,8.0480667,851.47087)">
          <path
             d="m 713.387,-547.027 c 0,0 0,0 -0.321,5.234 67.34,-4.105 142.719,-1.414 204.434,-2.48 8.098,-1.297 30.598,1.308 30.598,1.308"
             style="fill:none;stroke:#000000;stroke-width:2.61674;stroke-linecap:round;stroke-linejoin:round;stroke-miterlimit:10;stroke-dasharray:none;stroke-opacity:1"
             id="path3771" />
        </g>
        <g
           id="g3773"
           transform="matrix(1,0,0,-1,8.0480667,851.47087)">
          <path
             d="m 944.254,-733.059 c 5.012,14.473 -0.434,29.985 1.09,44.911 2.058,42.316 -1.024,84.734 2.465,126.996 0.496,5.625 -0.008,15.043 0.289,18.187"
             style="fill:none;stroke:#000000;stroke-width:2.61674;stroke-linecap:round;stroke-linejoin:round;stroke-miterlimit:10;stroke-dasharray:none;stroke-opacity:1"
             id="path3775" />
        </g>
        <g
           id="g3777"
           transform="matrix(1,0,0,-1,8.0480667,851.47087)">
          <path
             d="m 713.898,-735.98 c 24.04,2.117 48.106,-1.282 72.196,0.402 23.406,0.043 46.734,-1.313 70.16,-0.789 29.617,-2.481 59.293,1.027 88.941,0.273 l -0.32,-0.058"
             style="fill:none;stroke:#000000;stroke-width:2.61674;stroke-linecap:round;stroke-linejoin:round;stroke-miterlimit:10;stroke-dasharray:none;stroke-opacity:1"
             id="path3779" />
        </g>
        <g
           id="g3781"
           transform="matrix(1,0,0,-1,8.0480667,851.47087)">
          <path
             d="m 739.875,-583.879 c -0.395,15.609 21.301,14.621 34.426,13.758 24.98,-0.047 49.945,-2.34 74.918,-3.399 19.644,-3.257 40.32,4.305 59.199,-2.984 7.488,-10.098 2.586,-26.039 2.535,-38.441 -0.086,-25.649 2.09,-51.375 0.352,-76.985 -14.078,-13.117 -59.446,-7.031 -59.446,-7.031 -33.183,1.523 -66.269,-2.484 -99.398,-2.496 -20.191,1.949 -11.977,28.73 -13.649,42.449 -0.812,18.293 1.204,36.453 1.836,54.692 -1.195,11.914 -0.828,10.851 -1.222,21.941"
             style="fill:none;stroke:#000000;stroke-width:2.61674;stroke-linecap:round;stroke-linejoin:round;stroke-miterlimit:10;stroke-dasharray:none;stroke-opacity:1"
             id="path3783" />
        </g>
        <g
           id="g3785"
           transform="matrix(1,0,0,-1,8.0480667,851.47087)">
          <path
             d="m 727.215,-548.996 c 8.441,2.723 28.039,-1.75 13.476,-12.617 -7.457,-3.672 -32.968,-0.797 -13.476,12.617"
             style="fill:none;stroke:#000000;stroke-width:2.61674;stroke-linecap:round;stroke-linejoin:round;stroke-miterlimit:10;stroke-dasharray:none;stroke-opacity:1"
             id="path3787" />
        </g>
        <g
           id="g3789"
           transform="matrix(1,0,0,-1,8.0480667,851.47087)">
          <path
             d="m 737.926,-582.375 c -10.988,7.336 -30.067,-10.516 -11.668,-13.711 9.472,-2.809 16.035,4.379 11.547,13.191"
             style="fill:none;stroke:#000000;stroke-width:2.61674;stroke-linecap:round;stroke-linejoin:round;stroke-miterlimit:10;stroke-dasharray:none;stroke-opacity:1"
             id="path3791" />
        </g>
        <g
           id="g3793"
           transform="matrix(1,0,0,-1,8.0480667,851.47087)">
          <path
             d="m 736.742,-615.137 c -10.578,10.125 -25.316,-12.183 -7.031,-11.222 9.023,-2.629 13.441,8.996 5.152,12.644"
             style="fill:none;stroke:#000000;stroke-width:2.61674;stroke-linecap:round;stroke-linejoin:round;stroke-miterlimit:10;stroke-dasharray:none;stroke-opacity:1"
             id="path3795" />
        </g>
        <g
           id="g3797"
           transform="matrix(1,0,0,-1,8.0480667,851.47087)">
          <path
             d="m 729.777,-646.082 c -14.058,0.73 -18.152,-19.09 -0.406,-15.113 10.43,0.511 13.375,18.648 0.406,15.113"
             style="fill:none;stroke:#000000;stroke-width:2.61674;stroke-linecap:round;stroke-linejoin:round;stroke-miterlimit:10;stroke-dasharray:none;stroke-opacity:1"
             id="path3799" />
        </g>
        <g
           id="g3801"
           transform="matrix(1,0,0,-1,8.0480667,851.47087)">
          <path
             d="m 734.676,-680.066 c -16.223,10.777 -15.942,-23.664 1.554,-11.082 3.418,3.531 2.508,9.828 -1.531,12.503"
             style="fill:none;stroke:#000000;stroke-width:2.61674;stroke-linecap:round;stroke-linejoin:round;stroke-miterlimit:10;stroke-dasharray:none;stroke-opacity:1"
             id="path3803" />
        </g>
        <g
           id="g3805"
           transform="matrix(1,0,0,-1,8.0480667,851.47087)">
          <path
             d="m 724.207,-711.926 c 12.582,8.496 27.887,-11.836 9.184,-12.929 -7.922,-1.254 -17.293,6.003 -9.184,12.929"
             style="fill:none;stroke:#000000;stroke-width:2.61674;stroke-linecap:round;stroke-linejoin:round;stroke-miterlimit:10;stroke-dasharray:none;stroke-opacity:1"
             id="path3807" />
        </g>
        <g
           id="g3809"
           transform="matrix(1,0,0,-1,8.0480667,851.47087)">
          <path
             d="m 742.488,-543.102 c 1.52,-0.851 1.266,-3.066 1.082,-4.429"
             style="fill:none;stroke:#000000;stroke-width:2.61674;stroke-linecap:round;stroke-linejoin:round;stroke-miterlimit:10;stroke-dasharray:none;stroke-opacity:1"
             id="path3811" />
        </g>
        <g
           id="g3813"
           transform="matrix(1,0,0,-1,8.0480667,851.47087)">
          <path
             d="m 744.371,-563.062 c 1.75,-4.618 7.332,-6.969 11.957,-7.141"
             style="fill:none;stroke:#000000;stroke-width:2.61674;stroke-linecap:round;stroke-linejoin:round;stroke-miterlimit:10;stroke-dasharray:none;stroke-opacity:1"
             id="path3815" />
        </g>
        <g
           id="g3817"
           transform="matrix(1,0,0,-1,8.0480667,851.47087)">
          <path
             d="m 896.578,-573.668 c 17.008,-3.547 19.656,18.441 15.875,28.547"
             style="fill:none;stroke:#000000;stroke-width:2.61674;stroke-linecap:round;stroke-linejoin:round;stroke-miterlimit:10;stroke-dasharray:none;stroke-opacity:1"
             id="path3819" />
        </g>
        <g
           id="g3821"
           transform="matrix(1,0,0,-1,8.0480667,851.47087)">
          <path
             d="m 752.484,-705.504 c -12.812,0.66 -10.507,-18.437 -9.515,-21.816"
             style="fill:none;stroke:#000000;stroke-width:2.61674;stroke-linecap:round;stroke-linejoin:round;stroke-miterlimit:10;stroke-dasharray:none;stroke-opacity:1"
             id="path3823" />
        </g>
        <g
           id="g3825"
           transform="matrix(1,0,0,-1,8.0480667,851.47087)">
          <path
             d="m 742.969,-727.32 c 0.129,-0.957 0.422,-4.442 0.437,-5.227"
             style="fill:none;stroke:#000000;stroke-width:2.61674;stroke-linecap:round;stroke-linejoin:round;stroke-miterlimit:10;stroke-dasharray:none;stroke-opacity:1"
             id="path3827" />
        </g>
        <g
           id="g3829"
           transform="matrix(1,0,0,-1,8.0480667,851.47087)">
          <path
             d="m 752.484,-705.504 150.789,3.543 c 13.692,-0.332 13.825,-23.016 10.461,-31.562"
             style="fill:none;stroke:#000000;stroke-width:2.61674;stroke-linecap:round;stroke-linejoin:round;stroke-miterlimit:10;stroke-dasharray:none;stroke-opacity:1"
             id="path3831" />
        </g>
        <g
           id="g3833"
           transform="matrix(1,0,0,-1,8.0480667,851.47087)">
          <path
             d="m 914.891,-712.816 c 7.863,9.027 33.171,-0.641 16.988,-9.77 -5.969,-1.652 -12.613,-1.41 -16.422,3.648"
             style="fill:none;stroke:#000000;stroke-width:2.61674;stroke-linecap:round;stroke-linejoin:round;stroke-miterlimit:10;stroke-dasharray:none;stroke-opacity:1"
             id="path3835" />
        </g>
        <g
           id="g3837"
           transform="matrix(1,0,0,-1,8.0480667,851.47087)">
          <path
             d="m 913.316,-689.809 c 8.684,-14.125 36.305,2.411 15.766,11.461 -7.418,1.891 -17.043,-0.191 -16.582,-9.629"
             style="fill:none;stroke:#000000;stroke-width:2.61674;stroke-linecap:round;stroke-linejoin:round;stroke-miterlimit:10;stroke-dasharray:none;stroke-opacity:1"
             id="path3839" />
        </g>
        <g
           id="g3841"
           transform="matrix(1,0,0,-1,8.0480667,851.47087)">
          <path
             d="m 915.18,-656.305 c 12.632,-17.472 31.078,12.598 8.429,11.192 -4.855,-0.621 -10.773,-6.043 -8.429,-11.192"
             style="fill:none;stroke:#000000;stroke-width:2.61674;stroke-linecap:round;stroke-linejoin:round;stroke-miterlimit:10;stroke-dasharray:none;stroke-opacity:1"
             id="path3843" />
        </g>
        <g
           id="g3845"
           transform="matrix(1,0,0,-1,8.0480667,851.47087)">
          <path
             d="m 916.637,-624.453 c 9.976,-13.723 31,6.281 9.925,11.34 -7.167,0.597 -9.874,-5.946 -9.925,-11.34"
             style="fill:none;stroke:#000000;stroke-width:2.61674;stroke-linecap:round;stroke-linejoin:round;stroke-miterlimit:10;stroke-dasharray:none;stroke-opacity:1"
             id="path3847" />
        </g>
        <g
           id="g3849"
           transform="matrix(1,0,0,-1,8.0480667,851.47087)">
          <path
             d="m 915.199,-592.441 c 16.731,-15.235 25.43,22.421 2.477,9.738 -3.403,-1.945 -4.711,-6.629 -2.305,-9.813"
             style="fill:none;stroke:#000000;stroke-width:2.61674;stroke-linecap:round;stroke-linejoin:round;stroke-miterlimit:10;stroke-dasharray:none;stroke-opacity:1"
             id="path3851" />
        </g>
        <g
           id="g3853"
           transform="matrix(1,0,0,-1,8.0480667,851.47087)">
          <path
             d="m 915.707,-552.637 c -3.617,-20.793 33.406,-4.758 13.113,5.063 -8.703,1.812 -11.32,3.301 -13.113,-5.063"
             style="fill:none;stroke:#000000;stroke-width:2.61674;stroke-linecap:round;stroke-linejoin:round;stroke-miterlimit:10;stroke-dasharray:none;stroke-opacity:1"
             id="path3855" />
        </g>
      </g>
    </g>
  </g>
</svg>
