<?xml version="1.0" encoding="UTF-8" standalone="no"?>
<!-- Created by Ashley Blewer - This work is licensed under a Creative Commons Attribution 4.0 International License -->

<svg
   width="544"
   height="480"
   viewBox="0 0 143.93334 127"
   version="1.1"
   id="svg2490"
   inkscape:version="1.2.2 (1:1.2.2+202212051552+b0a8486541)"
   sodipodi:docname="1892-cinematograph-1.svg"
   xmlns:inkscape="http://www.inkscape.org/namespaces/inkscape"
   xmlns:sodipodi="http://sodipodi.sourceforge.net/DTD/sodipodi-0.dtd"
   xmlns="http://www.w3.org/2000/svg"
   xmlns:svg="http://www.w3.org/2000/svg">
  <sodipodi:namedview
     id="namedview2492"
     pagecolor="#ffffff"
     bordercolor="#666666"
     borderopacity="1.0"
     inkscape:pageshadow="2"
     inkscape:pageopacity="0.0"
     inkscape:pagecheckerboard="0"
     inkscape:document-units="mm"
     showgrid="false"
     units="px"
     inkscape:zoom="0.90583674"
     inkscape:cx="53.541657"
     inkscape:cy="254.46086"
     inkscape:window-width="1846"
     inkscape:window-height="1136"
     inkscape:window-x="0"
     inkscape:window-y="0"
     inkscape:window-maximized="1"
     inkscape:current-layer="g28852"
     inkscape:showpageshadow="2"
     inkscape:deskcolor="#d1d1d1" />
  <defs
     id="defs2487" />
  <g
     inkscape:label="Layer 1"
     inkscape:groupmode="layer"
     id="layer1">
    <g
       id="g4731"
       transform="matrix(0.32961229,0,0,0.32903008,-241.78905,1.73126)"
       style="stroke-width:2.68698">
      <g
         id="g104528"
         transform="matrix(1,0,0,-1,0,792)"
         style="stroke-width:2.68698">
        <g
           id="g104530"
           style="stroke-width:2.68698" />
      </g>
      <g
         id="g104996"
         transform="matrix(1,0,0,-1,0,792)"
         style="stroke-width:2.68698">
        <g
           id="g104998"
           style="stroke-width:2.68698" />
      </g>
      <g
         id="g28852"
         transform="matrix(1.070281,0,0,1.0721748,779.91249,-443.13657)">
        <g
           id="g13031"
           transform="matrix(1.4534651,0,0,1.4534651,-1248.9308,-1299.7869)">
          <g
             id="g5503"
             transform="matrix(1,0,0,-1,-46.031339,892.37204)">
            <path
               d="m 946.453,-514.863 c 0.613,20.883 -2.98,41.703 -1.387,62.586"
               style="fill:none;stroke:#000000;stroke-width:2.61674;stroke-linecap:round;stroke-linejoin:round;stroke-miterlimit:10;stroke-dasharray:none;stroke-opacity:1"
               id="path5505" />
          </g>
          <g
             id="g5507"
             transform="matrix(1,0,0,-1,-46.031339,892.37204)">
            <path
               d="m 948.262,-446.543 c -22.395,-5.809 15.488,-14.16 0.156,-0.019"
               style="fill:none;stroke:#000000;stroke-width:2.61674;stroke-linecap:round;stroke-linejoin:round;stroke-miterlimit:10;stroke-dasharray:none;stroke-opacity:1"
               id="path5509" />
          </g>
          <g
             id="g5511"
             transform="matrix(1,0,0,-1,-46.031339,892.37204)">
            <path
               d="m 952.559,-448.016 c 1.828,-0.472 9.148,-2.312 10.98,-2.761"
               style="fill:none;stroke:#000000;stroke-width:2.61674;stroke-linecap:round;stroke-linejoin:round;stroke-miterlimit:10;stroke-dasharray:none;stroke-opacity:1"
               id="path5513" />
          </g>
          <g
             id="g5515"
             transform="matrix(1,0,0,-1,-46.031339,892.37204)">
            <path
               d="m 963.609,-450.316 c 10.258,5.964 5.606,-13.516 -1.097,-4.797"
               style="fill:none;stroke:#000000;stroke-width:2.61674;stroke-linecap:round;stroke-linejoin:round;stroke-miterlimit:10;stroke-dasharray:none;stroke-opacity:1"
               id="path5517" />
          </g>
          <g
             id="g5519"
             transform="matrix(1,0,0,-1,-46.031339,892.37204)">
            <path
               d="m 962.348,-453.293 c -2.414,3.84 -7.438,2 -10.739,4.25"
               style="fill:none;stroke:#000000;stroke-width:2.61674;stroke-linecap:round;stroke-linejoin:round;stroke-miterlimit:10;stroke-dasharray:none;stroke-opacity:1"
               id="path5521" />
          </g>
          <g
             id="g5523"
             transform="matrix(1,0,0,-1,-46.031339,892.37204)">
            <path
               d="m 943.965,-445.566 c 1.469,18.218 1.719,36.519 1.019,54.777"
               style="fill:none;stroke:#000000;stroke-width:2.61674;stroke-linecap:round;stroke-linejoin:round;stroke-miterlimit:10;stroke-dasharray:none;stroke-opacity:1"
               id="path5525" />
          </g>
          <g
             id="g5527"
             transform="matrix(1,0,0,-1,-46.031339,892.37204)">
            <path
               d="m 945.84,-391.227 c 38.316,0.032 81.023,-3.418 119.336,-1.039"
               style="fill:none;stroke:#000000;stroke-width:2.61674;stroke-linecap:round;stroke-linejoin:round;stroke-miterlimit:10;stroke-dasharray:none;stroke-opacity:1"
               id="path5529" />
          </g>
          <g
             id="g5531"
             transform="matrix(1,0,0,-1,-46.031339,892.37204)">
            <path
               d="m 1064.953,-391.738 c 2.008,1.043 15.219,4.058 17.281,4.988"
               style="fill:none;stroke:#000000;stroke-width:2.61674;stroke-linecap:round;stroke-linejoin:round;stroke-miterlimit:10;stroke-dasharray:none;stroke-opacity:1"
               id="path5533" />
          </g>
          <g
             id="g5535"
             transform="matrix(1,0,0,-1,-46.031339,892.37204)">
            <path
               d="m 944.984,-390.789 c 2.145,0.578 22.184,3.644 24.352,4.109"
               style="fill:none;stroke:#000000;stroke-width:2.61674;stroke-linecap:round;stroke-linejoin:round;stroke-miterlimit:10;stroke-dasharray:none;stroke-opacity:1"
               id="path5537" />
          </g>
          <g
             id="g5539"
             transform="matrix(1,0,0,-1,-46.031339,892.37204)">
            <path
               d="m 993.293,-386.562 c 26.578,-2.403 62.301,-1.11 88.941,-0.188"
               style="fill:none;stroke:#000000;stroke-width:2.61674;stroke-linecap:round;stroke-linejoin:round;stroke-miterlimit:10;stroke-dasharray:none;stroke-opacity:1"
               id="path5541" />
          </g>
          <g
             id="g5543"
             transform="matrix(1,0,0,-1,-46.031339,892.37204)">
            <path
               d="m 1082.234,-386.75 c -0.672,-37.938 2.86,-81.055 1.633,-119"
               style="fill:none;stroke:#000000;stroke-width:2.61674;stroke-linecap:round;stroke-linejoin:round;stroke-miterlimit:10;stroke-dasharray:none;stroke-opacity:1"
               id="path5545" />
          </g>
          <g
             id="g5547"
             transform="matrix(1,0,0,-1,-46.031339,892.37204)">
            <path
               d="m 1065.176,-392.266 c -1.18,-41.129 4.617,-82.062 4.429,-123.172"
               style="fill:none;stroke:#000000;stroke-width:2.61674;stroke-linecap:round;stroke-linejoin:round;stroke-miterlimit:10;stroke-dasharray:none;stroke-opacity:1"
               id="path5549" />
          </g>
          <g
             id="g5551"
             transform="matrix(1,0,0,-1,-46.031339,892.37204)">
            <path
               d="m 1083.867,-505.75 c -5.5,-3.234 -10.418,-7.363 -15,-11.777"
               style="fill:none;stroke:#000000;stroke-width:2.61674;stroke-linecap:round;stroke-linejoin:round;stroke-miterlimit:10;stroke-dasharray:none;stroke-opacity:1"
               id="path5553" />
          </g>
          <g
             id="g5555"
             transform="matrix(1,0,0,-1,-46.031339,892.37204)">
            <path
               d="m 947.551,-515.402 c 39.613,-2.536 81.652,-0.746 121.316,-2.125"
               style="fill:none;stroke:#000000;stroke-width:2.61674;stroke-linecap:round;stroke-linejoin:round;stroke-miterlimit:10;stroke-dasharray:none;stroke-opacity:1"
               id="path5557" />
          </g>
          <g
             id="g5559"
             transform="matrix(1,0,0,-1,-46.031339,892.37204)">
            <path
               d="m 993.293,-386.562 c 1.574,29.597 3.879,61.042 1.617,90.648"
               style="fill:none;stroke:#000000;stroke-width:2.61674;stroke-linecap:round;stroke-linejoin:round;stroke-miterlimit:10;stroke-dasharray:none;stroke-opacity:1"
               id="path5561" />
          </g>
          <g
             id="g5563"
             transform="matrix(1,0,0,-1,-46.031339,892.37204)">
            <path
               d="m 963.648,-299.297 c 1.489,-28.613 2.016,-61.57 5.688,-87.383"
               style="fill:none;stroke:#000000;stroke-width:2.61674;stroke-linecap:round;stroke-linejoin:round;stroke-miterlimit:10;stroke-dasharray:none;stroke-opacity:1"
               id="path5565" />
          </g>
          <g
             id="g5567"
             transform="matrix(1,0,0,-1,-46.031339,892.37204)">
            <path
               d="m 964.477,-299.23 c 2.402,-29.817 1.668,-57.692 4.859,-87.45"
               style="fill:none;stroke:#000000;stroke-width:2.61674;stroke-linecap:round;stroke-linejoin:round;stroke-miterlimit:10;stroke-dasharray:none;stroke-opacity:1"
               id="path5569" />
          </g>
          <g
             id="g5571"
             transform="matrix(1,0,0,-1,-46.031339,892.37204)">
            <path
               d="m 994.91,-295.914 c -9.43,-28.871 -2.98,-62.492 -5.789,-92.113"
               style="fill:none;stroke:#000000;stroke-width:2.61674;stroke-linecap:round;stroke-linejoin:round;stroke-miterlimit:10;stroke-dasharray:none;stroke-opacity:1"
               id="path5573" />
          </g>
          <g
             id="g5575"
             transform="matrix(1,0,0,-1,-46.031339,892.37204)">
            <path
               d="m 969.336,-386.68 c 0,0 19.801,-2.632 23.957,0.118"
               style="fill:none;stroke:#000000;stroke-width:2.61674;stroke-linecap:round;stroke-linejoin:round;stroke-miterlimit:10;stroke-dasharray:none;stroke-opacity:1"
               id="path5577" />
          </g>
          <g
             id="g5579"
             transform="matrix(1,0,0,-1,-46.031339,892.37204)">
            <path
               d="m 968.027,-346.02 c 5.7,0.481 13.899,2.743 19.598,0.977"
               style="fill:none;stroke:#000000;stroke-width:2.61674;stroke-linecap:round;stroke-linejoin:round;stroke-miterlimit:10;stroke-dasharray:none;stroke-opacity:1"
               id="path5581" />
          </g>
          <g
             id="g5583"
             transform="matrix(1,0,0,-1,-46.031339,892.37204)">
            <path
               d="m 964.617,-316.457 c 6.473,0.383 18.399,2.246 24.899,0.961"
               style="fill:none;stroke:#000000;stroke-width:2.61674;stroke-linecap:round;stroke-linejoin:round;stroke-miterlimit:10;stroke-dasharray:none;stroke-opacity:1"
               id="path5585" />
          </g>
          <g
             id="g5587"
             transform="matrix(1,0,0,-1,-46.031339,892.37204)">
            <path
               d="m 964.707,-408.938 c 20.203,20.161 40.008,-25.117 15.785,-31.542"
               style="fill:none;stroke:#000000;stroke-width:2.61674;stroke-linecap:round;stroke-linejoin:round;stroke-miterlimit:10;stroke-dasharray:none;stroke-opacity:1"
               id="path5589" />
          </g>
          <g
             id="g5591"
             transform="matrix(1,0,0,-1,-46.031339,892.37204)">
            <path
               d="m 963.879,-410.918 c 44.293,-4.113 -18.348,-60.426 -12.75,-9.91 1.539,6.183 6.789,12.387 13.734,11.851"
               style="fill:none;stroke:#000000;stroke-width:2.61674;stroke-linecap:round;stroke-linejoin:round;stroke-miterlimit:10;stroke-dasharray:none;stroke-opacity:1"
               id="path5593" />
          </g>
          <g
             id="g5595"
             transform="matrix(1,0,0,-1,-46.031339,892.37204)">
            <path
               d="m 969.375,-408.961 c 10.012,-0.269 15.926,-11.961 14.129,-20.953"
               style="fill:none;stroke:#000000;stroke-width:1.26872;stroke-linecap:round;stroke-linejoin:round;stroke-miterlimit:10;stroke-dasharray:none;stroke-opacity:1"
               id="path5597" />
          </g>
          <g
             id="g5599"
             transform="matrix(1,0,0,-1,-46.031339,892.37204)">
            <path
               d="m 977.527,-407.906 c 8.098,-2.032 8.805,-11.864 7.864,-18.543"
               style="fill:none;stroke:#000000;stroke-width:1.26872;stroke-linecap:round;stroke-linejoin:round;stroke-miterlimit:10;stroke-dasharray:none;stroke-opacity:1"
               id="path5601" />
          </g>
          <g
             id="g5603"
             transform="matrix(1,0,0,-1,-46.031339,892.37204)">
            <path
               d="m 965.383,-416.414 c 37.48,-3.77 -20.512,-37.313 -0.395,-1.262"
               style="fill:none;stroke:#000000;stroke-width:1.26872;stroke-linecap:round;stroke-linejoin:round;stroke-miterlimit:10;stroke-dasharray:none;stroke-opacity:1"
               id="path5605" />
          </g>
          <g
             id="g5607"
             transform="matrix(1,0,0,-1,-46.031339,892.37204)">
            <path
               d="m 955.066,-426.98 c -1.562,-10.321 18.204,-13.36 26.067,-7.875"
               style="fill:none;stroke:#000000;stroke-width:1.26872;stroke-linecap:round;stroke-linejoin:round;stroke-miterlimit:10;stroke-dasharray:none;stroke-opacity:1"
               id="path5609" />
          </g>
          <g
             id="g5611"
             transform="matrix(1,0,0,-1,-46.031339,892.37204)">
            <path
               d="m 979.082,-458.91 c 17.746,2.09 35.582,-0.098 53.313,-1.192"
               style="fill:none;stroke:#000000;stroke-width:1.26872;stroke-linecap:round;stroke-linejoin:round;stroke-miterlimit:10;stroke-dasharray:none;stroke-opacity:1"
               id="path5613" />
          </g>
          <g
             id="g5615"
             transform="matrix(1,0,0,-1,-46.031339,892.37204)">
            <path
               d="m 1035.262,-461.676 c 0.777,-10.992 0.722,-22.027 0.293,-33.031"
               style="fill:none;stroke:#000000;stroke-width:1.26872;stroke-linecap:round;stroke-linejoin:round;stroke-miterlimit:10;stroke-dasharray:none;stroke-opacity:1"
               id="path5617" />
          </g>
          <g
             id="g5619"
             transform="matrix(1,0,0,-1,-46.031339,892.37204)">
            <path
               d="m 976.629,-460.527 c 2.246,-11.215 0.246,-22.653 0.648,-33.961"
               style="fill:none;stroke:#000000;stroke-width:1.26872;stroke-linecap:round;stroke-linejoin:round;stroke-miterlimit:10;stroke-dasharray:none;stroke-opacity:1"
               id="path5621" />
          </g>
          <g
             id="g5623"
             transform="matrix(1,0,0,-1,-46.031339,892.37204)">
            <path
               d="m 978.695,-494.672 c 17.106,-1.133 34.266,-1.219 51.403,-0.965"
               style="fill:none;stroke:#000000;stroke-width:1.26872;stroke-linecap:round;stroke-linejoin:round;stroke-miterlimit:10;stroke-dasharray:none;stroke-opacity:1"
               id="path5625" />
          </g>
          <g
             id="g5627"
             transform="matrix(1,0,0,-1,-46.031339,892.37204)">
            <path
               d="m 953.949,-501.648 c 34.133,-0.914 68.215,-4.114 102.387,-3.243"
               style="fill:none;stroke:#000000;stroke-width:1.26872;stroke-linecap:round;stroke-linejoin:round;stroke-miterlimit:10;stroke-dasharray:none;stroke-opacity:1"
               id="path5629" />
          </g>
          <g
             id="g5631"
             transform="matrix(1,0,0,-1,-46.031339,892.37204)">
            <path
               d="m 1059.719,-410.602 c 3.074,-31.269 0.183,-62.839 4.086,-94.058"
               style="fill:none;stroke:#000000;stroke-width:1.26872;stroke-linecap:round;stroke-linejoin:round;stroke-miterlimit:10;stroke-dasharray:none;stroke-opacity:1"
               id="path5633" />
          </g>
          <g
             id="g5635"
             transform="matrix(1,0,0,-1,-46.031339,892.37204)">
            <path
               d="m 952.625,-500.477 c -1.344,14.032 -1.773,28.207 -0.262,42.247"
               style="fill:none;stroke:#000000;stroke-width:1.26872;stroke-linecap:round;stroke-linejoin:round;stroke-miterlimit:10;stroke-dasharray:none;stroke-opacity:1"
               id="path5637" />
          </g>
          <g
             id="g5639"
             transform="matrix(1,0,0,-1,-46.031339,892.37204)">
            <path
               d="m 950.086,-414.695 c 0.144,1.554 0.703,7.765 0.836,9.32"
               style="fill:none;stroke:#000000;stroke-width:1.26872;stroke-linecap:round;stroke-linejoin:round;stroke-miterlimit:10;stroke-dasharray:none;stroke-opacity:1"
               id="path5641" />
          </g>
          <g
             id="g5643"
             transform="matrix(1,0,0,-1,-46.031339,892.37204)">
            <path
               d="m 954.82,-403.777 c 1.528,0.242 7.637,1.207 9.164,1.445"
               style="fill:none;stroke:#000000;stroke-width:1.26872;stroke-linecap:round;stroke-linejoin:round;stroke-miterlimit:10;stroke-dasharray:none;stroke-opacity:1"
               id="path5645" />
          </g>
          <g
             id="g5647"
             transform="matrix(1,0,0,-1,-46.031339,892.37204)">
            <path
               d="m 992.844,-402.762 c 21.797,-2.133 43.777,-1.879 65.504,-4.765"
               style="fill:none;stroke:#000000;stroke-width:1.26872;stroke-linecap:round;stroke-linejoin:round;stroke-miterlimit:10;stroke-dasharray:none;stroke-opacity:1"
               id="path5649" />
          </g>
          <g
             id="g5651"
             transform="matrix(1,0,0,-1,-46.031339,892.37204)">
            <path
               d="m 1077.324,-408.648 c -12.25,1.718 5.641,-13.965 0.188,-2.481"
               style="fill:none;stroke:#000000;stroke-width:1.26872;stroke-linecap:round;stroke-linejoin:round;stroke-miterlimit:10;stroke-dasharray:none;stroke-opacity:1"
               id="path5653" />
          </g>
          <g
             id="g5655"
             transform="matrix(1,0,0,-1,-46.031339,892.37204)">
            <path
               d="m 1074.836,-395.746 c -0.77,-2.684 3.019,-4.891 0.867,-7.453"
               style="fill:none;stroke:#000000;stroke-width:1.26872;stroke-linecap:round;stroke-linejoin:round;stroke-miterlimit:10;stroke-dasharray:none;stroke-opacity:1"
               id="path5657" />
          </g>
          <g
             id="g5659"
             transform="matrix(1,0,0,-1,-46.031339,892.37204)">
            <path
               d="m 1074.223,-392.453 c -1.285,-0.336 -6.43,-1.684 -7.715,-2.024"
               style="fill:none;stroke:#000000;stroke-width:1.26872;stroke-linecap:round;stroke-linejoin:round;stroke-miterlimit:10;stroke-dasharray:none;stroke-opacity:1"
               id="path5661" />
          </g>
          <g
             id="g5663"
             transform="matrix(1,0,0,-1,-46.031339,892.37204)">
            <path
               d="m 1066.793,-397.703 c 0.422,-13.641 0.414,-27.297 1.164,-40.926"
               style="fill:none;stroke:#000000;stroke-width:1.26872;stroke-linecap:round;stroke-linejoin:round;stroke-miterlimit:10;stroke-dasharray:none;stroke-opacity:1"
               id="path5665" />
          </g>
          <g
             id="g5667"
             transform="matrix(1,0,0,-1,-46.031339,892.37204)">
            <path
               d="m 1082.656,-484.723 c -7.765,4.215 0.36,-11.257 -1.355,-3.222"
               style="fill:none;stroke:#000000;stroke-width:1.26872;stroke-linecap:round;stroke-linejoin:round;stroke-miterlimit:10;stroke-dasharray:none;stroke-opacity:1"
               id="path5669" />
          </g>
        </g>
      </g>
    </g>
  </g>
</svg>
