<?xml version="1.0" encoding="UTF-8" standalone="no"?>
<!-- Created by Ashley Blewer - This work is licensed under a Creative Commons Attribution 4.0 International License -->

<svg
   width="544"
   height="480"
   viewBox="0 0 143.93334 127"
   version="1.1"
   id="svg2490"
   inkscape:version="1.2.2 (1:1.2.2+202212051552+b0a8486541)"
   sodipodi:docname="1892-35mm-silent-1.svg"
   xmlns:inkscape="http://www.inkscape.org/namespaces/inkscape"
   xmlns:sodipodi="http://sodipodi.sourceforge.net/DTD/sodipodi-0.dtd"
   xmlns="http://www.w3.org/2000/svg"
   xmlns:svg="http://www.w3.org/2000/svg">
  <sodipodi:namedview
     id="namedview2492"
     pagecolor="#ffffff"
     bordercolor="#666666"
     borderopacity="1.0"
     inkscape:pageshadow="2"
     inkscape:pageopacity="0.0"
     inkscape:pagecheckerboard="0"
     inkscape:document-units="mm"
     showgrid="false"
     units="px"
     inkscape:zoom="0.90583674"
     inkscape:cx="53.541657"
     inkscape:cy="254.46086"
     inkscape:window-width="1846"
     inkscape:window-height="1136"
     inkscape:window-x="0"
     inkscape:window-y="0"
     inkscape:window-maximized="1"
     inkscape:current-layer="g4731"
     inkscape:showpageshadow="2"
     inkscape:deskcolor="#d1d1d1" />
  <defs
     id="defs2487" />
  <g
     inkscape:label="Layer 1"
     inkscape:groupmode="layer"
     id="layer1">
    <g
       id="g4731"
       transform="matrix(0.32961229,0,0,0.32903008,-241.78905,1.73126)"
       style="stroke-width:2.68698">
      <g
         id="g104528"
         transform="matrix(1,0,0,-1,0,792)"
         style="stroke-width:2.68698">
        <g
           id="g104530"
           style="stroke-width:2.68698" />
      </g>
      <g
         id="g104996"
         transform="matrix(1,0,0,-1,0,792)"
         style="stroke-width:2.68698">
        <g
           id="g104998"
           style="stroke-width:2.68698" />
      </g>
      <g
         id="g15241"
         transform="matrix(2.5451346,0,0,2.5496381,-469.161,-3402.0258)">
        <g
           id="g3577"
           transform="matrix(1,0,0,-1,8.0480667,851.47087)">
          <path
             d="m 478.832,-566.164 c 39.902,-36.223 110.047,-37.055 146.602,4.469 18.226,29.187 -13.434,57.121 -41.829,63.066 -36.425,9.723 -83.867,6.25 -107.414,-26.836 -7.824,-12.262 -9.746,-30.547 2.641,-40.699 z"
             style="fill:none;stroke:#000000;stroke-width:2.61674;stroke-linecap:round;stroke-linejoin:round;stroke-miterlimit:10;stroke-dasharray:none;stroke-opacity:1"
             id="path3579" />
        </g>
        <g
           id="g3581"
           transform="matrix(1,0,0,-1,8.0480667,851.47087)">
          <path
             d="m 475.27,-562.672 c -0.223,-4.683 -1.145,-9.84 0.832,-12.734"
             style="fill:none;stroke:#000000;stroke-width:2.61674;stroke-linecap:round;stroke-linejoin:round;stroke-miterlimit:10;stroke-dasharray:none;stroke-opacity:1"
             id="path3583" />
        </g>
        <g
           id="g3585"
           transform="matrix(1,0,0,-1,8.0480667,851.47087)">
          <path
             d="m 476.102,-575.406 c 32.449,-56.067 137.875,-52.684 153.039,15.105 l -0.11,2.848 -0.097,2.594"
             style="fill:none;stroke:#000000;stroke-width:2.61674;stroke-linecap:round;stroke-linejoin:round;stroke-miterlimit:10;stroke-dasharray:none;stroke-opacity:1"
             id="path3587" />
        </g>
        <g
           id="g3589"
           transform="matrix(1,0,0,-1,8.0480667,851.47087)">
          <path
             d="m 492.836,-516.105 c 7.551,3.39 18.793,6.64 25.719,0.027 4.429,-10.738 -12.028,-14.449 -19.957,-12.289 -4.965,0.715 -13.953,8.871 -5.762,12.262"
             style="fill:none;stroke:#000000;stroke-width:2.61674;stroke-linecap:round;stroke-linejoin:round;stroke-miterlimit:10;stroke-dasharray:none;stroke-opacity:1"
             id="path3591" />
        </g>
        <g
           id="g3593"
           transform="matrix(1,0,0,-1,8.0480667,851.47087)">
          <path
             d="m 536.152,-501.762 c 7.489,1.274 15.899,4.301 22.973,-0.019 5.832,-6.074 -4.277,-11.719 -9.902,-11.086 -5.289,-0.082 -17.801,0.719 -15.371,8.472 0.816,1.465 0.664,2.192 2.3,2.633"
             style="fill:none;stroke:#000000;stroke-width:2.61674;stroke-linecap:round;stroke-linejoin:round;stroke-miterlimit:10;stroke-dasharray:none;stroke-opacity:1"
             id="path3595" />
        </g>
        <g
           id="g3597"
           transform="matrix(1,0,0,-1,8.0480667,851.47087)">
          <path
             d="m 583.375,-508.379 c 7.348,1.484 16.313,0.481 21.23,-5.773 1.895,-5.328 -4.875,-8.532 -8.988,-9.95 -6.879,-2.23 -14.426,-1.402 -21.125,1.063 -4.297,4.293 0.688,10.73 4.75,13.172 1.27,0.746 2.676,1.273 4.133,1.488 z"
             style="fill:none;stroke:#000000;stroke-width:2.61674;stroke-linecap:round;stroke-linejoin:round;stroke-miterlimit:10;stroke-dasharray:none;stroke-opacity:1"
             id="path3599" />
        </g>
        <g
           id="g3601"
           transform="matrix(1,0,0,-1,8.0480667,851.47087)">
          <path
             d="m 593.691,-538.656 c 9.172,0.687 16.61,2.738 23.899,-4.375 5.699,-5.719 1.344,-15.68 -6.59,-15.903 -9.5,-1.98 -20.859,2.981 -24.207,12.422 -1.203,4.246 2.496,8.543 6.898,7.856"
             style="fill:none;stroke:#000000;stroke-width:2.61674;stroke-linecap:round;stroke-linejoin:round;stroke-miterlimit:10;stroke-dasharray:none;stroke-opacity:1"
             id="path3603" />
        </g>
        <g
           id="g3605"
           transform="matrix(1,0,0,-1,8.0480667,851.47087)">
          <path
             d="m 548.598,-560.363 c 8.597,2.605 19.039,2.297 26.117,-3.793 6.551,-7.274 1.316,-20.641 -8.504,-21.465 -8.848,-1.141 -19.465,0.461 -25.254,7.961 -3.863,4.551 -3.773,12.922 2.289,15.586 2.274,1.16 2.813,1.703 5.352,1.711"
             style="fill:none;stroke:#000000;stroke-width:2.61674;stroke-linecap:round;stroke-linejoin:round;stroke-miterlimit:10;stroke-dasharray:none;stroke-opacity:1"
             id="path3607" />
        </g>
        <g
           id="g3609"
           transform="matrix(1,0,0,-1,8.0480667,851.47087)">
          <path
             d="m 495.562,-544.355 c 8.485,1.855 22.196,3.003 25.774,-6.973 0.992,-11.371 -12.469,-15.774 -21.723,-15.684 -9.488,-1.773 -19.918,9.336 -11.73,17.442 4.832,5.312 13.058,8.957 20.187,6.64"
             style="fill:none;stroke:#000000;stroke-width:2.61674;stroke-linecap:round;stroke-linejoin:round;stroke-miterlimit:10;stroke-dasharray:none;stroke-opacity:1"
             id="path3611" />
        </g>
        <g
           id="g3613"
           transform="matrix(1,0,0,-1,8.0480667,851.47087)">
          <path
             d="m 550.148,-533.914 c -1.793,-3.547 4.383,-0.648 0.172,-0.633"
             style="fill:none;stroke:#000000;stroke-width:2.61674;stroke-linecap:round;stroke-linejoin:round;stroke-miterlimit:10;stroke-dasharray:none;stroke-opacity:1"
             id="path3615" />
        </g>
        <g
           id="g3697"
           transform="matrix(1,0,0,-1,8.0480667,851.47087)">
          <path
             d="m 481.832,-536.16 c 14.805,1.105 30.227,2.305 44.836,1.48"
             style="fill:none;stroke:#000000;stroke-width:1.26872;stroke-linecap:round;stroke-linejoin:round;stroke-miterlimit:10;stroke-dasharray:none;stroke-opacity:1"
             id="path3699" />
        </g>
        <g
           id="g3701"
           transform="matrix(1,0,0,-1,8.0480667,851.47087)">
          <path
             d="m 484.691,-540.773 c 11.27,2.199 22.762,2.519 34.192,2.957"
             style="fill:none;stroke:#000000;stroke-width:1.26872;stroke-linecap:round;stroke-linejoin:round;stroke-miterlimit:10;stroke-dasharray:none;stroke-opacity:1"
             id="path3703" />
        </g>
        <g
           id="g3705"
           transform="matrix(1,0,0,-1,8.0480667,851.47087)">
          <path
             d="m 515.023,-508.914 c 4.665,-3.848 10.641,-8 14.719,-11.785"
             style="fill:none;stroke:#000000;stroke-width:1.26872;stroke-linecap:round;stroke-linejoin:round;stroke-miterlimit:10;stroke-dasharray:none;stroke-opacity:1"
             id="path3707" />
        </g>
        <g
           id="g3709"
           transform="matrix(1,0,0,-1,8.0480667,851.47087)">
          <path
             d="m 523.348,-507.906 c 2.996,-3.426 5.949,-6.922 9.336,-9.977"
             style="fill:none;stroke:#000000;stroke-width:1.26872;stroke-linecap:round;stroke-linejoin:round;stroke-miterlimit:10;stroke-dasharray:none;stroke-opacity:1"
             id="path3711" />
        </g>
        <g
           id="g3713"
           transform="matrix(1,0,0,-1,8.0480667,851.47087)">
          <path
             d="m 567.672,-504.801 c 2.777,0.707 -5.434,-11.363 -6.02,-8.543"
             style="fill:none;stroke:#000000;stroke-width:1.26872;stroke-linecap:round;stroke-linejoin:round;stroke-miterlimit:10;stroke-dasharray:none;stroke-opacity:1"
             id="path3715" />
        </g>
        <g
           id="g3717"
           transform="matrix(1,0,0,-1,8.0480667,851.47087)">
          <path
             d="m 572.895,-505.207 c -1.493,-3.621 -4.899,-8.391 -7.352,-10.777"
             style="fill:none;stroke:#000000;stroke-width:1.26872;stroke-linecap:round;stroke-linejoin:round;stroke-miterlimit:10;stroke-dasharray:none;stroke-opacity:1"
             id="path3719" />
        </g>
        <g
           id="g3721"
           transform="matrix(1,0,0,-1,8.0480667,851.47087)">
          <path
             d="m 580.719,-531.93 c 11.515,1.305 23.097,2.075 34.699,2.356"
             style="fill:none;stroke:#000000;stroke-width:1.26872;stroke-linecap:round;stroke-linejoin:round;stroke-miterlimit:10;stroke-dasharray:none;stroke-opacity:1"
             id="path3723" />
        </g>
        <g
           id="g3725"
           transform="matrix(1,0,0,-1,8.0480667,851.47087)">
          <path
             d="m 570.5,-552.27 c 7.945,-6.789 17.57,-11.578 26.223,-17.136"
             style="fill:none;stroke:#000000;stroke-width:1.26872;stroke-linecap:round;stroke-linejoin:round;stroke-miterlimit:10;stroke-dasharray:none;stroke-opacity:1"
             id="path3727" />
        </g>
        <g
           id="g3729"
           transform="matrix(1,0,0,-1,8.0480667,851.47087)">
          <path
             d="m 581.488,-552.277 c 6.942,-4.961 12.274,-11.629 19.52,-16.223"
             style="fill:none;stroke:#000000;stroke-width:1.26872;stroke-linecap:round;stroke-linejoin:round;stroke-miterlimit:10;stroke-dasharray:none;stroke-opacity:1"
             id="path3731" />
        </g>
        <g
           id="g3733"
           transform="matrix(1,0,0,-1,8.0480667,851.47087)">
          <path
             d="m 529.582,-554.352 c -5.797,-5.574 -7.894,-13.906 -13.785,-19.382"
             style="fill:none;stroke:#000000;stroke-width:1.26872;stroke-linecap:round;stroke-linejoin:round;stroke-miterlimit:10;stroke-dasharray:none;stroke-opacity:1"
             id="path3735" />
        </g>
        <g
           id="g3737"
           transform="matrix(1,0,0,-1,8.0480667,851.47087)">
          <path
             d="m 536.156,-558.023 c -1.781,-5.993 -6.652,-10.258 -10.328,-15.075"
             style="fill:none;stroke:#000000;stroke-width:1.26872;stroke-linecap:round;stroke-linejoin:round;stroke-miterlimit:10;stroke-dasharray:none;stroke-opacity:1"
             id="path3739" />
        </g>
        <g
           id="g3741"
           transform="matrix(1,0,0,-1,8.0480667,851.47087)">
          <path
             d="m 529.676,-534.676 c -1.176,-13.746 17.633,-13.406 27.23,-12.179 11.856,0.695 20.774,12.574 11.266,21.464 -11.656,9.2 -31.895,3.703 -38.496,-9.285"
             style="fill:none;stroke:#000000;stroke-width:1.26872;stroke-linecap:round;stroke-linejoin:round;stroke-miterlimit:10;stroke-dasharray:none;stroke-opacity:1"
             id="path3743" />
        </g>
        <g
           id="g3745"
           transform="matrix(1,0,0,-1,8.0480667,851.47087)">
          <path
             d="m 531.984,-539.121 c 5.762,10.457 18.969,15.699 30.278,11.695 2.797,-0.176 13.351,-6.558 8.941,-9.113"
             style="fill:none;stroke:#000000;stroke-width:1.26872;stroke-linecap:round;stroke-linejoin:round;stroke-miterlimit:10;stroke-dasharray:none;stroke-opacity:1"
             id="path3747" />
        </g>
        <g
           id="g3749"
           transform="matrix(1,0,0,-1,8.0480667,851.47087)">
          <path
             d="m 547.176,-532.27 c -5.227,-7.48 12.144,-6.621 5.047,-0.101 -2.164,1.312 -2.832,0.094 -5.047,0.101"
             style="fill:none;stroke:#000000;stroke-width:1.26872;stroke-linecap:round;stroke-linejoin:round;stroke-miterlimit:10;stroke-dasharray:none;stroke-opacity:1"
             id="path3751" />
        </g>
        <g
           id="g3753"
           transform="matrix(1,0,0,-1,8.0480667,851.47087)">
          <path
             d="m 536.512,-539.691 c 2.14,0.644 3.847,-0.801 4.808,-1.149"
             style="fill:none;stroke:#000000;stroke-width:1.26872;stroke-linecap:round;stroke-linejoin:round;stroke-miterlimit:10;stroke-dasharray:none;stroke-opacity:1"
             id="path3755" />
        </g>
        <g
           id="g3757"
           transform="matrix(1,0,0,-1,8.0480667,851.47087)">
          <path
             d="m 562.238,-542.266 c -1.875,3.137 4,6.34 5.891,3.469"
             style="fill:none;stroke:#000000;stroke-width:1.26872;stroke-linecap:round;stroke-linejoin:round;stroke-miterlimit:10;stroke-dasharray:none;stroke-opacity:1"
             id="path3759" />
        </g>
        <g
           id="g3761"
           transform="matrix(1,0,0,-1,8.0480667,851.47087)">
          <path
             d="m 561.723,-533.863 c 1.484,1.886 6.433,4.695 7.269,2.121"
             style="fill:none;stroke:#000000;stroke-width:1.26872;stroke-linecap:round;stroke-linejoin:round;stroke-miterlimit:10;stroke-dasharray:none;stroke-opacity:1"
             id="path3763" />
        </g>
      </g>
    </g>
  </g>
</svg>
