<?xml version="1.0" encoding="UTF-8" standalone="no"?>
<!-- Created by Ashley Blewer - This work is licensed under a Creative Commons Attribution 4.0 International License -->

<svg
   width="544"
   height="480"
   viewBox="0 0 143.93334 127"
   version="1.1"
   id="svg2490"
   inkscape:version="1.2.2 (1:1.2.2+202212051552+b0a8486541)"
   sodipodi:docname="1892-cinematograph-5.svg"
   xmlns:inkscape="http://www.inkscape.org/namespaces/inkscape"
   xmlns:sodipodi="http://sodipodi.sourceforge.net/DTD/sodipodi-0.dtd"
   xmlns="http://www.w3.org/2000/svg"
   xmlns:svg="http://www.w3.org/2000/svg">
  <sodipodi:namedview
     id="namedview2492"
     pagecolor="#ffffff"
     bordercolor="#666666"
     borderopacity="1.0"
     inkscape:pageshadow="2"
     inkscape:pageopacity="0.0"
     inkscape:pagecheckerboard="0"
     inkscape:document-units="mm"
     showgrid="false"
     units="px"
     inkscape:zoom="0.90583674"
     inkscape:cx="53.541657"
     inkscape:cy="254.46086"
     inkscape:window-width="1846"
     inkscape:window-height="1136"
     inkscape:window-x="0"
     inkscape:window-y="0"
     inkscape:window-maximized="1"
     inkscape:current-layer="g28852"
     inkscape:showpageshadow="2"
     inkscape:deskcolor="#d1d1d1" />
  <defs
     id="defs2487" />
  <g
     inkscape:label="Layer 1"
     inkscape:groupmode="layer"
     id="layer1">
    <g
       id="g4731"
       transform="matrix(0.32961229,0,0,0.32903008,-241.78905,1.73126)"
       style="stroke-width:2.68698">
      <g
         id="g104528"
         transform="matrix(1,0,0,-1,0,792)"
         style="stroke-width:2.68698">
        <g
           id="g104530"
           style="stroke-width:2.68698" />
      </g>
      <g
         id="g104996"
         transform="matrix(1,0,0,-1,0,792)"
         style="stroke-width:2.68698">
        <g
           id="g104998"
           style="stroke-width:2.68698" />
      </g>
      <g
         id="g28852"
         transform="matrix(1.070281,0,0,1.0721748,779.91249,-443.13657)">
        <g
           id="g43479"
           transform="matrix(2.1598971,0,0,2.1598971,-427.99945,-709.54914)">
          <g
             id="g5991"
             transform="matrix(1,0,0,-1,-587.6348,467.35631)">
            <path
               d="m 784.84,-182.598 c 7.785,-1.484 15.109,-4.593 22.734,-6.656"
               style="fill:none;stroke:#000000;stroke-width:2.61674;stroke-linecap:round;stroke-linejoin:round;stroke-miterlimit:10;stroke-dasharray:none;stroke-opacity:1"
               id="path5993" />
          </g>
          <g
             id="g5995"
             transform="matrix(1,0,0,-1,-587.6348,467.35631)">
            <path
               d="m 808.762,-188.777 -0.149,5.273"
               style="fill:none;stroke:#000000;stroke-width:2.61674;stroke-linecap:round;stroke-linejoin:round;stroke-miterlimit:10;stroke-dasharray:none;stroke-opacity:1"
               id="path5997" />
          </g>
          <g
             id="g5999"
             transform="matrix(1,0,0,-1,-587.6348,467.35631)">
            <path
               d="m 808.762,-183.688 c -7.418,1.872 -14.504,5.059 -22.137,6.063"
               style="fill:none;stroke:#000000;stroke-width:2.61674;stroke-linecap:round;stroke-linejoin:round;stroke-miterlimit:10;stroke-dasharray:none;stroke-opacity:1"
               id="path6001" />
          </g>
          <g
             id="g6003"
             transform="matrix(1,0,0,-1,-587.6348,467.35631)">
            <path
               d="m 784.203,-103.633 c 0.238,-26.383 -2.078,-52.89 1.348,-79.16"
               style="fill:none;stroke:#000000;stroke-width:2.61674;stroke-linecap:round;stroke-linejoin:round;stroke-miterlimit:10;stroke-dasharray:none;stroke-opacity:1"
               id="path6005" />
          </g>
          <g
             id="g6007"
             transform="matrix(1,0,0,-1,-587.6348,467.35631)">
            <path
               d="m 784.48,-102.023 c 2.637,-0.258 13.153,-1.45 15.774,-1.786"
               style="fill:none;stroke:#000000;stroke-width:2.61674;stroke-linecap:round;stroke-linejoin:round;stroke-miterlimit:10;stroke-dasharray:none;stroke-opacity:1"
               id="path6009" />
          </g>
          <g
             id="g6011"
             transform="matrix(1,0,0,-1,-587.6348,467.35631)">
            <path
               d="m 800.254,-103.809 c 14.812,0.125 33.465,1.207 48.277,1.594"
               style="fill:none;stroke:#000000;stroke-width:2.61674;stroke-linecap:round;stroke-linejoin:round;stroke-miterlimit:10;stroke-dasharray:none;stroke-opacity:1"
               id="path6013" />
          </g>
          <g
             id="g6015"
             transform="matrix(1,0,0,-1,-587.6348,467.35631)">
            <path
               d="m 848.531,-102.215 c 2.188,0.223 15.36,1.82 17.551,1.731"
               style="fill:none;stroke:#000000;stroke-width:2.61674;stroke-linecap:round;stroke-linejoin:round;stroke-miterlimit:10;stroke-dasharray:none;stroke-opacity:1"
               id="path6017" />
          </g>
          <g
             id="g6019"
             transform="matrix(1,0,0,-1,-587.6348,467.35631)">
            <path
               d="m 866.082,-100.484 c 23.707,0.175 52.188,-1.149 75.895,-0.262"
               style="fill:none;stroke:#000000;stroke-width:2.61674;stroke-linecap:round;stroke-linejoin:round;stroke-miterlimit:10;stroke-dasharray:none;stroke-opacity:1"
               id="path6021" />
          </g>
          <g
             id="g6023"
             transform="matrix(1,0,0,-1,-587.6348,467.35631)">
            <path
               d="m 941.977,-100.746 c -1.289,-23.871 0.543,-47.754 1.039,-71.621"
               style="fill:none;stroke:#000000;stroke-width:2.61674;stroke-linecap:round;stroke-linejoin:round;stroke-miterlimit:10;stroke-dasharray:none;stroke-opacity:1"
               id="path6025" />
          </g>
          <g
             id="g6027"
             transform="matrix(1,0,0,-1,-587.6348,467.35631)">
            <path
               d="m 938.047,-178.02 c 1.387,0.52 3.582,5.133 4.969,5.653"
               style="fill:none;stroke:#000000;stroke-width:2.61674;stroke-linecap:round;stroke-linejoin:round;stroke-miterlimit:10;stroke-dasharray:none;stroke-opacity:1"
               id="path6029" />
          </g>
          <g
             id="g6031"
             transform="matrix(1,0,0,-1,-587.6348,467.35631)">
            <path
               d="m 870.879,-175.008 c 22.344,-1.875 44.801,-1.496 67.168,-3.012"
               style="fill:none;stroke:#000000;stroke-width:2.61674;stroke-linecap:round;stroke-linejoin:round;stroke-miterlimit:10;stroke-dasharray:none;stroke-opacity:1"
               id="path6033" />
          </g>
          <g
             id="g6035"
             transform="matrix(1,0,0,-1,-587.6348,467.35631)">
            <path
               d="m 808.613,-183.504 c 11.41,2.699 25.282,4.777 37.035,4.211"
               style="fill:none;stroke:#000000;stroke-width:2.61674;stroke-linecap:round;stroke-linejoin:round;stroke-miterlimit:10;stroke-dasharray:none;stroke-opacity:1"
               id="path6037" />
          </g>
          <g
             id="g6039"
             transform="matrix(1,0,0,-1,-587.6348,467.35631)">
            <path
               d="m 808.762,-188.777 c 12.367,1.476 28.191,2.461 40.566,3.871"
               style="fill:none;stroke:#000000;stroke-width:2.61674;stroke-linecap:round;stroke-linejoin:round;stroke-miterlimit:10;stroke-dasharray:none;stroke-opacity:1"
               id="path6041" />
          </g>
          <g
             id="g6043"
             transform="matrix(1,0,0,-1,-587.6348,467.35631)">
            <path
               d="m 802.133,-188.832 c -1.18,-5.813 -0.211,-11.715 -1.012,-17.543"
               style="fill:none;stroke:#000000;stroke-width:2.61674;stroke-linecap:round;stroke-linejoin:round;stroke-miterlimit:10;stroke-dasharray:none;stroke-opacity:1"
               id="path6045" />
          </g>
          <g
             id="g6047"
             transform="matrix(1,0,0,-1,-587.6348,467.35631)">
            <path
               d="m 812.512,-203.148 c -0.094,-0.723 -0.336,-2.567 -0.364,-2.766"
               style="fill:none;stroke:#000000;stroke-width:2.61674;stroke-linecap:round;stroke-linejoin:round;stroke-miterlimit:10;stroke-dasharray:none;stroke-opacity:1"
               id="path6049" />
          </g>
          <g
             id="g6051"
             transform="matrix(1,0,0,-1,-587.6348,467.35631)">
            <path
               d="m 808.762,-200.633 c 5.168,-0.621 11.445,0.203 15.457,-3.914"
               style="fill:none;stroke:#000000;stroke-width:2.61674;stroke-linecap:round;stroke-linejoin:round;stroke-miterlimit:10;stroke-dasharray:none;stroke-opacity:1"
               id="path6053" />
          </g>
          <g
             id="g6055"
             transform="matrix(1,0,0,-1,-587.6348,467.35631)">
            <path
               d="m 827.93,-186.914 c -0.063,-2.824 -0.289,-15.684 -0.379,-17.988"
               style="fill:none;stroke:#000000;stroke-width:2.61674;stroke-linecap:round;stroke-linejoin:round;stroke-miterlimit:10;stroke-dasharray:none;stroke-opacity:1"
               id="path6057" />
          </g>
          <g
             id="g6059"
             transform="matrix(1,0,0,-1,-587.6348,467.35631)">
            <path
               d="m 840.004,-187.422 0.09,-0.195"
               style="fill:none;stroke:#000000;stroke-width:2.61674;stroke-linecap:round;stroke-linejoin:round;stroke-miterlimit:10;stroke-dasharray:none;stroke-opacity:1"
               id="path6061" />
          </g>
          <g
             id="g6063"
             transform="matrix(1,0,0,-1,-587.6348,467.35631)">
            <path
               d="m 840.148,-189.082 c -3.816,0.25 -5.398,-4.93 -3.457,-7.609"
               style="fill:none;stroke:#000000;stroke-width:2.61674;stroke-linecap:round;stroke-linejoin:round;stroke-miterlimit:10;stroke-dasharray:none;stroke-opacity:1"
               id="path6065" />
          </g>
          <g
             id="g6067"
             transform="matrix(1,0,0,-1,-587.6348,467.35631)">
            <path
               d="m 838.555,-198 c 0.007,-1.676 -0.11,-7.781 -0.176,-9.16"
               style="fill:none;stroke:#000000;stroke-width:2.61674;stroke-linecap:round;stroke-linejoin:round;stroke-miterlimit:10;stroke-dasharray:none;stroke-opacity:1"
               id="path6069" />
          </g>
          <g
             id="g6071"
             transform="matrix(1,0,0,-1,-587.6348,467.35631)">
            <path
               d="m 841.117,-190.473 c 5.231,0.731 -0.195,-4.73 2.992,-6.328"
               style="fill:none;stroke:#000000;stroke-width:2.61674;stroke-linecap:round;stroke-linejoin:round;stroke-miterlimit:10;stroke-dasharray:none;stroke-opacity:1"
               id="path6073" />
          </g>
          <g
             id="g6075"
             transform="matrix(1,0,0,-1,-587.6348,467.35631)">
            <path
               d="m 843.922,-197.215 -5.813,0.637"
               style="fill:none;stroke:#000000;stroke-width:2.61674;stroke-linecap:round;stroke-linejoin:round;stroke-miterlimit:10;stroke-dasharray:none;stroke-opacity:1"
               id="path6077" />
          </g>
          <g
             id="g6079"
             transform="matrix(1,0,0,-1,-587.6348,467.35631)">
            <path
               d="m 844.598,-187.379 c 5.961,6.227 17.73,-1.738 13.203,-9.504"
               style="fill:none;stroke:#000000;stroke-width:2.61674;stroke-linecap:round;stroke-linejoin:round;stroke-miterlimit:10;stroke-dasharray:none;stroke-opacity:1"
               id="path6081" />
          </g>
          <g
             id="g6083"
             transform="matrix(1,0,0,-1,-587.6348,467.35631)">
            <path
               d="m 858.41,-197.016 c -1.648,-2.652 4.867,-5.027 2.129,-7.148"
               style="fill:none;stroke:#000000;stroke-width:2.61674;stroke-linecap:round;stroke-linejoin:round;stroke-miterlimit:10;stroke-dasharray:none;stroke-opacity:1"
               id="path6085" />
          </g>
          <g
             id="g6087"
             transform="matrix(1,0,0,-1,-587.6348,467.35631)">
            <path
               d="m 842.414,-197.906 c 0.727,-1.344 3.617,-6.621 4.34,-7.918"
               style="fill:none;stroke:#000000;stroke-width:2.61674;stroke-linecap:round;stroke-linejoin:round;stroke-miterlimit:10;stroke-dasharray:none;stroke-opacity:1"
               id="path6089" />
          </g>
          <g
             id="g6091"
             transform="matrix(1,0,0,-1,-587.6348,467.35631)">
            <path
               d="m 860.066,-196.75 c 2.473,-0.074 12.344,-0.238 14.809,-0.242"
               style="fill:none;stroke:#000000;stroke-width:2.61674;stroke-linecap:round;stroke-linejoin:round;stroke-miterlimit:10;stroke-dasharray:none;stroke-opacity:1"
               id="path6093" />
          </g>
          <g
             id="g6095"
             transform="matrix(1,0,0,-1,-587.6348,467.35631)">
            <path
               d="m 874.836,-196.922 1.785,7.262"
               style="fill:none;stroke:#000000;stroke-width:2.61674;stroke-linecap:round;stroke-linejoin:round;stroke-miterlimit:10;stroke-dasharray:none;stroke-opacity:1"
               id="path6097" />
          </g>
          <g
             id="g6099"
             transform="matrix(1,0,0,-1,-587.6348,467.35631)">
            <path
               d="m 875.688,-189.605 c -2.403,-0.149 -14.524,-0.528 -16.93,-0.481"
               style="fill:none;stroke:#000000;stroke-width:2.61674;stroke-linecap:round;stroke-linejoin:round;stroke-miterlimit:10;stroke-dasharray:none;stroke-opacity:1"
               id="path6101" />
          </g>
          <g
             id="g6103"
             transform="matrix(1,0,0,-1,-587.6348,467.35631)">
            <path
               d="m 910.449,-149.125 c -16.894,-14.055 20.906,-9.254 1.664,-0.844"
               style="fill:none;stroke:#000000;stroke-width:2.61674;stroke-linecap:round;stroke-linejoin:round;stroke-miterlimit:10;stroke-dasharray:none;stroke-opacity:1"
               id="path6105" />
          </g>
          <g
             id="g6107"
             transform="matrix(1,0,0,-1,-587.6348,467.35631)">
            <path
               d="m 800.254,-103.809 c 1.93,-21.718 0.117,-48.406 4.711,-69.929"
               style="fill:none;stroke:#000000;stroke-width:2.61674;stroke-linecap:round;stroke-linejoin:round;stroke-miterlimit:10;stroke-dasharray:none;stroke-opacity:1"
               id="path6109" />
          </g>
          <g
             id="g6111"
             transform="matrix(1,0,0,-1,-587.6348,467.35631)">
            <path
               d="m 806.02,-173.551 c 12.386,-0.015 24.726,1.192 37.093,1.602"
               style="fill:none;stroke:#000000;stroke-width:2.61674;stroke-linecap:round;stroke-linejoin:round;stroke-miterlimit:10;stroke-dasharray:none;stroke-opacity:1"
               id="path6113" />
          </g>
          <g
             id="g6311"
             transform="matrix(1,0,0,-1,-587.6348,467.35631)">
            <path
               d="m 803.977,-144.902 c 29.933,33.5 35.367,-54.981 0.425,-15.391"
               style="fill:none;stroke:#000000;stroke-width:2.61674;stroke-linecap:round;stroke-linejoin:round;stroke-miterlimit:10;stroke-dasharray:none;stroke-opacity:1"
               id="path6313" />
          </g>
          <g
             id="g6315"
             transform="matrix(1,0,0,-1,-587.6348,467.35631)">
            <path
               d="m 828.316,-150.227 c -11.867,11.875 -10.839,-18.382 0.258,-10.007"
               style="fill:none;stroke:#000000;stroke-width:2.61674;stroke-linecap:round;stroke-linejoin:round;stroke-miterlimit:10;stroke-dasharray:none;stroke-opacity:1"
               id="path6317" />
          </g>
          <g
             id="g6319"
             transform="matrix(1,0,0,-1,-587.6348,467.35631)">
            <path
               d="m 828.316,-150.227 c -3.711,1.836 -4.625,-8.894 0.926,-7.906"
               style="fill:none;stroke:#000000;stroke-width:2.61674;stroke-linecap:round;stroke-linejoin:round;stroke-miterlimit:10;stroke-dasharray:none;stroke-opacity:1"
               id="path6321" />
          </g>
          <g
             id="g6323"
             transform="matrix(1,0,0,-1,-587.6348,467.35631)">
            <path
               d="m 835.395,-158.211 c 7.054,-9.07 11.98,-19.738 20.226,-27.887"
               style="fill:none;stroke:#000000;stroke-width:2.61674;stroke-linecap:round;stroke-linejoin:round;stroke-miterlimit:10;stroke-dasharray:none;stroke-opacity:1"
               id="path6325" />
          </g>
          <g
             id="g6327"
             transform="matrix(1,0,0,-1,-587.6348,467.35631)">
            <path
               d="m 855.621,-186.098 c 6.133,-1.582 15.492,-0.691 21.598,-0.214"
               style="fill:none;stroke:#000000;stroke-width:2.61674;stroke-linecap:round;stroke-linejoin:round;stroke-miterlimit:10;stroke-dasharray:none;stroke-opacity:1"
               id="path6329" />
          </g>
          <g
             id="g6331"
             transform="matrix(1,0,0,-1,-587.6348,467.35631)">
            <path
               d="m 878.668,-186.301 c -1.223,2.059 -6.172,10.254 -7.426,12.297"
               style="fill:none;stroke:#000000;stroke-width:2.61674;stroke-linecap:round;stroke-linejoin:round;stroke-miterlimit:10;stroke-dasharray:none;stroke-opacity:1"
               id="path6333" />
          </g>
          <g
             id="g6335"
             transform="matrix(1,0,0,-1,-587.6348,467.35631)">
            <path
               d="m 869.969,-173.012 c -7.348,5.75 -13.723,12.637 -19.528,19.914"
               style="fill:none;stroke:#000000;stroke-width:2.61674;stroke-linecap:round;stroke-linejoin:round;stroke-miterlimit:10;stroke-dasharray:none;stroke-opacity:1"
               id="path6337" />
          </g>
          <g
             id="g6339"
             transform="matrix(1,0,0,-1,-587.6348,467.35631)">
            <path
               d="m 850.031,-153.215 c -0.211,0.699 -0.886,2.949 -1.015,3.371"
               style="fill:none;stroke:#000000;stroke-width:2.61674;stroke-linecap:round;stroke-linejoin:round;stroke-miterlimit:10;stroke-dasharray:none;stroke-opacity:1"
               id="path6341" />
          </g>
          <g
             id="g6343"
             transform="matrix(1,0,0,-1,-587.6348,467.35631)">
            <path
               d="m 849.016,-149.844 c -1.68,-0.008 -10.305,0.321 -11.989,0.289"
               style="fill:none;stroke:#000000;stroke-width:2.61674;stroke-linecap:round;stroke-linejoin:round;stroke-miterlimit:10;stroke-dasharray:none;stroke-opacity:1"
               id="path6345" />
          </g>
          <g
             id="g6347"
             transform="matrix(1,0,0,-1,-587.6348,467.35631)">
            <path
               d="m 838.891,-154.645 c 1.57,-0.082 9.961,1.629 11.55,1.547"
               style="fill:none;stroke:#000000;stroke-width:2.61674;stroke-linecap:round;stroke-linejoin:round;stroke-miterlimit:10;stroke-dasharray:none;stroke-opacity:1"
               id="path6349" />
          </g>
          <g
             id="g6411"
             transform="matrix(1,0,0,-1,-587.6348,467.35631)">
            <path
               d="m 796.062,-105.945 c -9.742,-12.625 4.782,-7.297 2.004,0.519"
               style="fill:none;stroke:#000000;stroke-width:1.26872;stroke-linecap:round;stroke-linejoin:round;stroke-miterlimit:10;stroke-dasharray:none;stroke-opacity:1"
               id="path6413" />
          </g>
          <g
             id="g6415"
             transform="matrix(1,0,0,-1,-587.6348,467.35631)">
            <path
               d="m 793.516,-155.449 c -1.008,8.765 11.257,0.199 3.507,-2.43"
               style="fill:none;stroke:#000000;stroke-width:1.26872;stroke-linecap:round;stroke-linejoin:round;stroke-miterlimit:10;stroke-dasharray:none;stroke-opacity:1"
               id="path6417" />
          </g>
          <g
             id="g6419"
             transform="matrix(1,0,0,-1,-587.6348,467.35631)">
            <path
               d="m 797.379,-159.168 c 3.035,-13.266 -5.18,-5.191 -1.121,1.398"
               style="fill:none;stroke:#000000;stroke-width:1.26872;stroke-linecap:round;stroke-linejoin:round;stroke-miterlimit:10;stroke-dasharray:none;stroke-opacity:1"
               id="path6421" />
          </g>
          <g
             id="g6423"
             transform="matrix(1,0,0,-1,-587.6348,467.35631)">
            <path
               d="m 814.441,-140.016 c 0.051,-0.73 0.176,-2.601 0.188,-2.808"
               style="fill:none;stroke:#000000;stroke-width:1.26872;stroke-linecap:round;stroke-linejoin:round;stroke-miterlimit:10;stroke-dasharray:none;stroke-opacity:1"
               id="path6425" />
          </g>
          <g
             id="g6427"
             transform="matrix(1,0,0,-1,-587.6348,467.35631)">
            <path
               d="M 816.082,-140.809 816,-143.367"
               style="fill:none;stroke:#000000;stroke-width:1.26872;stroke-linecap:round;stroke-linejoin:round;stroke-miterlimit:10;stroke-dasharray:none;stroke-opacity:1"
               id="path6429" />
          </g>
          <g
             id="g6431"
             transform="matrix(1,0,0,-1,-587.6348,467.35631)">
            <path
               d="m 819.059,-149.516 c -0.875,0.067 -4.411,-0.187 -5.305,-0.379"
               style="fill:none;stroke:#000000;stroke-width:1.26872;stroke-linecap:round;stroke-linejoin:round;stroke-miterlimit:10;stroke-dasharray:none;stroke-opacity:1"
               id="path6433" />
          </g>
          <g
             id="g6435"
             transform="matrix(1,0,0,-1,-587.6348,467.35631)">
            <path
               d="m 813.641,-151.113 c -2.836,-3.242 -1.11,-8.66 2.695,-10.246"
               style="fill:none;stroke:#000000;stroke-width:1.26872;stroke-linecap:round;stroke-linejoin:round;stroke-miterlimit:10;stroke-dasharray:none;stroke-opacity:1"
               id="path6437" />
          </g>
          <g
             id="g6439"
             transform="matrix(1,0,0,-1,-587.6348,467.35631)">
            <path
               d="m 816.344,-161.559 5.472,-0.894"
               style="fill:none;stroke:#000000;stroke-width:1.26872;stroke-linecap:round;stroke-linejoin:round;stroke-miterlimit:10;stroke-dasharray:none;stroke-opacity:1"
               id="path6441" />
          </g>
          <g
             id="g6443"
             transform="matrix(1,0,0,-1,-587.6348,467.35631)">
            <path
               d="m 829.812,-130.965 c -0.593,-11.055 8.352,-7.945 2.899,0.328"
               style="fill:none;stroke:#000000;stroke-width:1.26872;stroke-linecap:round;stroke-linejoin:round;stroke-miterlimit:10;stroke-dasharray:none;stroke-opacity:1"
               id="path6445" />
          </g>
          <g
             id="g6447"
             transform="matrix(1,0,0,-1,-587.6348,467.35631)">
            <path
               d="m 832.711,-130.637 -8.621,0.149"
               style="fill:none;stroke:#000000;stroke-width:1.26872;stroke-linecap:round;stroke-linejoin:round;stroke-miterlimit:10;stroke-dasharray:none;stroke-opacity:1"
               id="path6449" />
          </g>
          <g
             id="g6451"
             transform="matrix(1,0,0,-1,-587.6348,467.35631)">
            <path
               d="m 823.953,-131.09 c -0.074,1.895 0.192,9.012 0.402,10.676"
               style="fill:none;stroke:#000000;stroke-width:1.26872;stroke-linecap:round;stroke-linejoin:round;stroke-miterlimit:10;stroke-dasharray:none;stroke-opacity:1"
               id="path6453" />
          </g>
          <g
             id="g6455"
             transform="matrix(1,0,0,-1,-587.6348,467.35631)">
            <path
               d="m 824.355,-120.414 c 6.86,4.547 7.918,-7.063 5.457,-10.551"
               style="fill:none;stroke:#000000;stroke-width:1.26872;stroke-linecap:round;stroke-linejoin:round;stroke-miterlimit:10;stroke-dasharray:none;stroke-opacity:1"
               id="path6457" />
          </g>
          <g
             id="g6459"
             transform="matrix(1,0,0,-1,-587.6348,467.35631)">
            <path
               d="m 826.414,-122.984 c -2.238,-2.965 2.856,-1.157 0.266,-0.563"
               style="fill:none;stroke:#000000;stroke-width:1.26872;stroke-linecap:round;stroke-linejoin:round;stroke-miterlimit:10;stroke-dasharray:none;stroke-opacity:1"
               id="path6461" />
          </g>
          <g
             id="g6463"
             transform="matrix(1,0,0,-1,-587.6348,467.35631)">
            <path
               d="m 827.281,-127.418 c -1.476,-3.91 3.793,0.875 -0.152,0.723"
               style="fill:none;stroke:#000000;stroke-width:1.26872;stroke-linecap:round;stroke-linejoin:round;stroke-miterlimit:10;stroke-dasharray:none;stroke-opacity:1"
               id="path6465" />
          </g>
          <g
             id="g6467"
             transform="matrix(1,0,0,-1,-587.6348,467.35631)">
            <path
               d="m 814.496,-108.68 c -1.976,0.02 -1.32,-4.054 0.43,-3.855"
               style="fill:none;stroke:#000000;stroke-width:1.26872;stroke-linecap:round;stroke-linejoin:round;stroke-miterlimit:10;stroke-dasharray:none;stroke-opacity:1"
               id="path6469" />
          </g>
          <g
             id="g6471"
             transform="matrix(1,0,0,-1,-587.6348,467.35631)">
            <path
               d="m 817.828,-107.453 c -2.621,-7.121 22.664,-5.356 13.645,1.015"
               style="fill:none;stroke:#000000;stroke-width:1.26872;stroke-linecap:round;stroke-linejoin:round;stroke-miterlimit:10;stroke-dasharray:none;stroke-opacity:1"
               id="path6473" />
          </g>
          <g
             id="g6475"
             transform="matrix(1,0,0,-1,-587.6348,467.35631)">
            <path
               d="m 829.266,-107.043 c -1.961,0.82 -3.137,-2.992 -1.106,-3.449"
               style="fill:none;stroke:#000000;stroke-width:1.26872;stroke-linecap:round;stroke-linejoin:round;stroke-miterlimit:10;stroke-dasharray:none;stroke-opacity:1"
               id="path6477" />
          </g>
          <g
             id="g6479"
             transform="matrix(1,0,0,-1,-587.6348,467.35631)">
            <path
               d="m 821.77,-106.383 -0.036,-3.863"
               style="fill:none;stroke:#000000;stroke-width:1.26872;stroke-linecap:round;stroke-linejoin:round;stroke-miterlimit:10;stroke-dasharray:none;stroke-opacity:1"
               id="path6481" />
          </g>
          <g
             id="g6483"
             transform="matrix(1,0,0,-1,-587.6348,467.35631)">
            <path
               d="m 840.402,-105.922 -0.117,0.465"
               style="fill:none;stroke:#000000;stroke-width:1.26872;stroke-linecap:round;stroke-linejoin:round;stroke-miterlimit:10;stroke-dasharray:none;stroke-opacity:1"
               id="path6485" />
          </g>
          <g
             id="g6487"
             transform="matrix(1,0,0,-1,-587.6348,467.35631)">
            <path
               d="m 835.617,-106.094 c 0.395,-14.851 0.453,-28.629 1.41,-43.461"
               style="fill:none;stroke:#000000;stroke-width:1.26872;stroke-linecap:round;stroke-linejoin:round;stroke-miterlimit:10;stroke-dasharray:none;stroke-opacity:1"
               id="path6489" />
          </g>
          <g
             id="g6491"
             transform="matrix(1,0,0,-1,-587.6348,467.35631)">
            <path
               d="m 846.918,-106.051 c -0.063,-13.929 -1.367,-27.84 -0.781,-41.773"
               style="fill:none;stroke:#000000;stroke-width:1.26872;stroke-linecap:round;stroke-linejoin:round;stroke-miterlimit:10;stroke-dasharray:none;stroke-opacity:1"
               id="path6493" />
          </g>
          <g
             id="g6495"
             transform="matrix(1,0,0,-1,-587.6348,467.35631)">
            <path
               d="m 842.898,-158.211 c 2.18,0.164 4.36,0.324 6.54,0.488"
               style="fill:none;stroke:#000000;stroke-width:1.26872;stroke-linecap:round;stroke-linejoin:round;stroke-miterlimit:10;stroke-dasharray:none;stroke-opacity:1"
               id="path6497" />
          </g>
          <g
             id="g6499"
             transform="matrix(1,0,0,-1,-587.6348,467.35631)">
            <path
               d="m 851.387,-160.566 c -1.758,-0.821 10.765,-7.141 6.48,-7.899"
               style="fill:none;stroke:#000000;stroke-width:1.26872;stroke-linecap:round;stroke-linejoin:round;stroke-miterlimit:10;stroke-dasharray:none;stroke-opacity:1"
               id="path6501" />
          </g>
          <g
             id="g6503"
             transform="matrix(1,0,0,-1,-587.6348,467.35631)">
            <path
               d="m 845.719,-162.023 c 1.183,-1.657 5.254,-6.981 6.101,-7.989"
               style="fill:none;stroke:#000000;stroke-width:1.26872;stroke-linecap:round;stroke-linejoin:round;stroke-miterlimit:10;stroke-dasharray:none;stroke-opacity:1"
               id="path6505" />
          </g>
          <g
             id="g6507"
             transform="matrix(1,0,0,-1,-587.6348,467.35631)">
            <path
               d="m 849.91,-165.07 c 1.492,0.398 2.985,0.793 4.477,1.191"
               style="fill:none;stroke:#000000;stroke-width:1.26872;stroke-linecap:round;stroke-linejoin:round;stroke-miterlimit:10;stroke-dasharray:none;stroke-opacity:1"
               id="path6509" />
          </g>
          <g
             id="g6511"
             transform="matrix(1,0,0,-1,-587.6348,467.35631)">
            <path
               d="m 851.449,-168.312 4.821,0.73"
               style="fill:none;stroke:#000000;stroke-width:1.26872;stroke-linecap:round;stroke-linejoin:round;stroke-miterlimit:10;stroke-dasharray:none;stroke-opacity:1"
               id="path6513" />
          </g>
          <g
             id="g6515"
             transform="matrix(1,0,0,-1,-587.6348,467.35631)">
            <path
               d="m 855.859,-175.016 8.301,1.61"
               style="fill:none;stroke:#000000;stroke-width:1.26872;stroke-linecap:round;stroke-linejoin:round;stroke-miterlimit:10;stroke-dasharray:none;stroke-opacity:1"
               id="path6517" />
          </g>
          <g
             id="g6519"
             transform="matrix(1,0,0,-1,-587.6348,467.35631)">
            <path
               d="m 864.289,-173.156 c 11.023,-4.028 -5.926,-8.672 -7.426,-2.629"
               style="fill:none;stroke:#000000;stroke-width:1.26872;stroke-linecap:round;stroke-linejoin:round;stroke-miterlimit:10;stroke-dasharray:none;stroke-opacity:1"
               id="path6521" />
          </g>
          <g
             id="g6523"
             transform="matrix(1,0,0,-1,-587.6348,467.35631)">
            <path
               d="m 864.125,-182.945 0.695,0.148"
               style="fill:none;stroke:#000000;stroke-width:1.26872;stroke-linecap:round;stroke-linejoin:round;stroke-miterlimit:10;stroke-dasharray:none;stroke-opacity:1"
               id="path6525" />
          </g>
          <g
             id="g6527"
             transform="matrix(1,0,0,-1,-587.6348,467.35631)">
            <path
               d="m 869.355,-181.863 -0.179,-0.02"
               style="fill:none;stroke:#000000;stroke-width:1.26872;stroke-linecap:round;stroke-linejoin:round;stroke-miterlimit:10;stroke-dasharray:none;stroke-opacity:1"
               id="path6529" />
          </g>
          <g
             id="g6531"
             transform="matrix(1,0,0,-1,-587.6348,467.35631)">
            <path
               d="m 862.648,-104.07 c -0.886,-20.938 1.071,-41.903 -0.324,-62.828"
               style="fill:none;stroke:#000000;stroke-width:1.26872;stroke-linecap:round;stroke-linejoin:round;stroke-miterlimit:10;stroke-dasharray:none;stroke-opacity:1"
               id="path6533" />
          </g>
          <g
             id="g6535"
             transform="matrix(1,0,0,-1,-587.6348,467.35631)">
            <path
               d="m 850.809,-103.562 c 3.683,-1.376 8.468,1.679 11.722,-1.458"
               style="fill:none;stroke:#000000;stroke-width:1.26872;stroke-linecap:round;stroke-linejoin:round;stroke-miterlimit:10;stroke-dasharray:none;stroke-opacity:1"
               id="path6537" />
          </g>
          <g
             id="g6539"
             transform="matrix(1,0,0,-1,-587.6348,467.35631)">
            <path
               d="m 869.859,-105.723 c 1.563,-21.207 -0.863,-42.476 0.68,-63.683"
               style="fill:none;stroke:#000000;stroke-width:1.26872;stroke-linecap:round;stroke-linejoin:round;stroke-miterlimit:10;stroke-dasharray:none;stroke-opacity:1"
               id="path6541" />
          </g>
          <g
             id="g6543"
             transform="matrix(1,0,0,-1,-587.6348,467.35631)">
            <path
               d="m 866.082,-100.484 c 1.047,-21.723 -1.719,-48.125 0.434,-69.801"
               style="fill:none;stroke:#000000;stroke-width:1.26872;stroke-linecap:round;stroke-linejoin:round;stroke-miterlimit:10;stroke-dasharray:none;stroke-opacity:1"
               id="path6545" />
          </g>
          <g
             id="g6547"
             transform="matrix(1,0,0,-1,-587.6348,467.35631)">
            <path
               d="m 874.148,-105.434 c 19.598,3.715 39.481,-0.296 59.133,-1.183"
               style="fill:none;stroke:#000000;stroke-width:1.26872;stroke-linecap:round;stroke-linejoin:round;stroke-miterlimit:10;stroke-dasharray:none;stroke-opacity:1"
               id="path6549" />
          </g>
          <g
             id="g6551"
             transform="matrix(1,0,0,-1,-587.6348,467.35631)">
            <path
               d="m 934.695,-108.988 c 4.285,-19.68 3.469,-40.137 1.075,-60.008"
               style="fill:none;stroke:#000000;stroke-width:1.26872;stroke-linecap:round;stroke-linejoin:round;stroke-miterlimit:10;stroke-dasharray:none;stroke-opacity:1"
               id="path6553" />
          </g>
          <g
             id="g6555"
             transform="matrix(1,0,0,-1,-587.6348,467.35631)">
            <path
               d="m 874.559,-169.285 c 20.472,-0.75 40.949,-1.504 61.437,-1.758"
               style="fill:none;stroke:#000000;stroke-width:1.26872;stroke-linecap:round;stroke-linejoin:round;stroke-miterlimit:10;stroke-dasharray:none;stroke-opacity:1"
               id="path6557" />
          </g>
          <g
             id="g6559"
             transform="matrix(1,0,0,-1,-587.6348,467.35631)">
            <path
               d="m 906.691,-148.977 c 3.098,-0.367 5.063,3.434 8.192,2.399"
               style="fill:none;stroke:#000000;stroke-width:1.26872;stroke-linecap:round;stroke-linejoin:round;stroke-miterlimit:10;stroke-dasharray:none;stroke-opacity:1"
               id="path6561" />
          </g>
          <g
             id="g6563"
             transform="matrix(1,0,0,-1,-587.6348,467.35631)">
            <path
               d="m 917.484,-154.934 c 0.801,0.243 4.469,1.512 5.5,1.907"
               style="fill:none;stroke:#000000;stroke-width:1.26872;stroke-linecap:round;stroke-linejoin:round;stroke-miterlimit:10;stroke-dasharray:none;stroke-opacity:1"
               id="path6565" />
          </g>
          <g
             id="g6567"
             transform="matrix(1,0,0,-1,-587.6348,467.35631)">
            <path
               d="m 916.754,-145.988 c 3.172,1.105 9.152,-4.883 5.078,-7.301"
               style="fill:none;stroke:#000000;stroke-width:1.26872;stroke-linecap:round;stroke-linejoin:round;stroke-miterlimit:10;stroke-dasharray:none;stroke-opacity:1"
               id="path6569" />
          </g>
          <g
             id="g6571"
             transform="matrix(1,0,0,-1,-587.6348,467.35631)">
            <path
               d="m 913.219,-145.359 c 19.988,3.902 11.722,-30.012 -3.43,-15.692"
               style="fill:none;stroke:#000000;stroke-width:1.26872;stroke-linecap:round;stroke-linejoin:round;stroke-miterlimit:10;stroke-dasharray:none;stroke-opacity:1"
               id="path6573" />
          </g>
          <g
             id="g6575"
             transform="matrix(1,0,0,-1,-587.6348,467.35631)">
            <path
               d="m 915.512,-145.777 c -0.992,-0.004 -4.559,-1.18 -5.352,-1.766"
               style="fill:none;stroke:#000000;stroke-width:1.26872;stroke-linecap:round;stroke-linejoin:round;stroke-miterlimit:10;stroke-dasharray:none;stroke-opacity:1"
               id="path6577" />
          </g>
          <g
             id="g6579"
             transform="matrix(1,0,0,-1,-587.6348,467.35631)">
            <path
               d="m 899.848,-126.555 c 0.777,-7.84 -0.68,-15.277 -0.91,-23.109"
               style="fill:none;stroke:#000000;stroke-width:1.26872;stroke-linecap:round;stroke-linejoin:round;stroke-miterlimit:10;stroke-dasharray:none;stroke-opacity:1"
               id="path6581" />
          </g>
          <g
             id="g6583"
             transform="matrix(1,0,0,-1,-587.6348,467.35631)">
            <path
               d="m 899.848,-126.555 c -5.93,0.094 -11.883,0.164 -17.766,-0.785"
               style="fill:none;stroke:#000000;stroke-width:1.26872;stroke-linecap:round;stroke-linejoin:round;stroke-miterlimit:10;stroke-dasharray:none;stroke-opacity:1"
               id="path6585" />
          </g>
          <g
             id="g6587"
             transform="matrix(1,0,0,-1,-587.6348,467.35631)">
            <path
               d="m 881.434,-127.973 c 0.886,-6.914 -0.715,-13.769 -1.137,-20.644"
               style="fill:none;stroke:#000000;stroke-width:1.26872;stroke-linecap:round;stroke-linejoin:round;stroke-miterlimit:10;stroke-dasharray:none;stroke-opacity:1"
               id="path6589" />
          </g>
          <g
             id="g6591"
             transform="matrix(1,0,0,-1,-587.6348,467.35631)">
            <path
               d="m 880.727,-148.273 c 1.117,6.777 5.003,14.429 0.461,20.89"
               style="fill:none;stroke:#000000;stroke-width:1.26872;stroke-linecap:round;stroke-linejoin:round;stroke-miterlimit:10;stroke-dasharray:none;stroke-opacity:1"
               id="path6593" />
          </g>
          <g
             id="g6595"
             transform="matrix(1,0,0,-1,-587.6348,467.35631)">
            <path
               d="m 880.965,-149.031 c 2.789,-0.157 13.949,-0.719 16.738,-0.844"
               style="fill:none;stroke:#000000;stroke-width:1.26872;stroke-linecap:round;stroke-linejoin:round;stroke-miterlimit:10;stroke-dasharray:none;stroke-opacity:1"
               id="path6597" />
          </g>
        </g>
      </g>
    </g>
  </g>
</svg>
