<?xml version="1.0" encoding="UTF-8" standalone="no"?>
<!-- Created by Ashley Blewer - This work is licensed under a Creative Commons Attribution 4.0 International License -->

<svg
   width="544"
   height="480"
   viewBox="0 0 143.93334 127"
   version="1.1"
   id="svg2490"
   inkscape:version="1.2.2 (1:1.2.2+202212051552+b0a8486541)"
   sodipodi:docname="1892-cinematograph-2.svg"
   xmlns:inkscape="http://www.inkscape.org/namespaces/inkscape"
   xmlns:sodipodi="http://sodipodi.sourceforge.net/DTD/sodipodi-0.dtd"
   xmlns="http://www.w3.org/2000/svg"
   xmlns:svg="http://www.w3.org/2000/svg">
  <sodipodi:namedview
     id="namedview2492"
     pagecolor="#ffffff"
     bordercolor="#666666"
     borderopacity="1.0"
     inkscape:pageshadow="2"
     inkscape:pageopacity="0.0"
     inkscape:pagecheckerboard="0"
     inkscape:document-units="mm"
     showgrid="false"
     units="px"
     inkscape:zoom="0.90583674"
     inkscape:cx="53.541657"
     inkscape:cy="254.46086"
     inkscape:window-width="1846"
     inkscape:window-height="1136"
     inkscape:window-x="0"
     inkscape:window-y="0"
     inkscape:window-maximized="1"
     inkscape:current-layer="g28852"
     inkscape:showpageshadow="2"
     inkscape:deskcolor="#d1d1d1" />
  <defs
     id="defs2487" />
  <g
     inkscape:label="Layer 1"
     inkscape:groupmode="layer"
     id="layer1">
    <g
       id="g4731"
       transform="matrix(0.32961229,0,0,0.32903008,-241.78905,1.73126)"
       style="stroke-width:2.68698">
      <g
         id="g104528"
         transform="matrix(1,0,0,-1,0,792)"
         style="stroke-width:2.68698">
        <g
           id="g104530"
           style="stroke-width:2.68698" />
      </g>
      <g
         id="g104996"
         transform="matrix(1,0,0,-1,0,792)"
         style="stroke-width:2.68698">
        <g
           id="g104998"
           style="stroke-width:2.68698" />
      </g>
      <g
         id="g28852"
         transform="matrix(1.070281,0,0,1.0721748,779.91249,-443.13657)">
        <g
           id="g13193"
           transform="matrix(1.3082262,0,0,1.3082262,-769.22638,-1341.5863)">
          <g
             id="g5399"
             transform="matrix(1,0,0,-1,-46.031339,892.37204)">
            <path
               d="m 624.836,-567 c 42.098,2.961 84.301,-3.387 126.367,0.582 l -0.223,-1.891"
               style="fill:none;stroke:#000000;stroke-width:2.61674;stroke-linecap:round;stroke-linejoin:round;stroke-miterlimit:10;stroke-dasharray:none;stroke-opacity:1"
               id="path5401" />
          </g>
          <g
             id="g5403"
             transform="matrix(1,0,0,-1,-46.031339,892.37204)">
            <path
               d="m 751.203,-566.418 c 38.918,0.199 81.883,-2.523 120.754,-4.535"
               style="fill:none;stroke:#000000;stroke-width:2.61674;stroke-linecap:round;stroke-linejoin:round;stroke-miterlimit:10;stroke-dasharray:none;stroke-opacity:1"
               id="path5405" />
          </g>
          <g
             id="g5407"
             transform="matrix(1,0,0,-1,-46.031339,892.37204)">
            <path
               d="m 871.957,-570.953 c 1.852,0.379 9.313,1.617 11.188,1.855"
               style="fill:none;stroke:#000000;stroke-width:2.61674;stroke-linecap:round;stroke-linejoin:round;stroke-miterlimit:10;stroke-dasharray:none;stroke-opacity:1"
               id="path5409" />
          </g>
          <g
             id="g5411"
             transform="matrix(1,0,0,-1,-46.031339,892.37204)">
            <path
               d="m 883.145,-569.098 c 4.472,-41.476 -0.977,-85.902 1.242,-127.453"
               style="fill:none;stroke:#000000;stroke-width:2.61674;stroke-linecap:round;stroke-linejoin:round;stroke-miterlimit:10;stroke-dasharray:none;stroke-opacity:1"
               id="path5413" />
          </g>
          <g
             id="g5415"
             transform="matrix(1,0,0,-1,-46.031339,892.37204)">
            <path
               d="m 871.035,-572.344 c 3.668,-42.695 -6.683,-85.711 1.246,-128.172"
               style="fill:none;stroke:#000000;stroke-width:2.61674;stroke-linecap:round;stroke-linejoin:round;stroke-miterlimit:10;stroke-dasharray:none;stroke-opacity:1"
               id="path5417" />
          </g>
          <g
             id="g5419"
             transform="matrix(1,0,0,-1,-46.031339,892.37204)">
            <path
               d="m 884.387,-696.551 c -4.157,-2.476 -9.453,-7.062 -14.551,-7.914"
               style="fill:none;stroke:#000000;stroke-width:2.61674;stroke-linecap:round;stroke-linejoin:round;stroke-miterlimit:10;stroke-dasharray:none;stroke-opacity:1"
               id="path5421" />
          </g>
          <g
             id="g5423"
             transform="matrix(1,0,0,-1,-46.031339,892.37204)">
            <path
               d="m 753.812,-694.496 c 38.317,-3.875 77.614,-7.141 116.024,-9.969"
               style="fill:none;stroke:#000000;stroke-width:2.61674;stroke-linecap:round;stroke-linejoin:round;stroke-miterlimit:10;stroke-dasharray:none;stroke-opacity:1"
               id="path5425" />
          </g>
          <g
             id="g5427"
             transform="matrix(1,0,0,-1,-46.031339,892.37204)">
            <path
               d="m 623.848,-693.578 c 43.25,3.457 86.785,-1.981 129.964,-0.918 l 0.864,-0.133"
               style="fill:none;stroke:#000000;stroke-width:2.61674;stroke-linecap:round;stroke-linejoin:round;stroke-miterlimit:10;stroke-dasharray:none;stroke-opacity:1"
               id="path5429" />
          </g>
          <g
             id="g5431"
             transform="matrix(1,0,0,-1,-46.031339,892.37204)">
            <path
               d="m 624.836,-567 c -4.445,-2.516 -0.832,-8.836 -2.481,-12.547"
               style="fill:none;stroke:#000000;stroke-width:2.61674;stroke-linecap:round;stroke-linejoin:round;stroke-miterlimit:10;stroke-dasharray:none;stroke-opacity:1"
               id="path5433" />
          </g>
          <g
             id="g5435"
             transform="matrix(1,0,0,-1,-46.031339,892.37204)">
            <path
               d="m 621.586,-580.832 c -3.508,-1.676 -0.203,-7.191 0.644,-9.555"
               style="fill:none;stroke:#000000;stroke-width:2.61674;stroke-linecap:round;stroke-linejoin:round;stroke-miterlimit:10;stroke-dasharray:none;stroke-opacity:1"
               id="path5437" />
          </g>
          <g
             id="g5439"
             transform="matrix(1,0,0,-1,-46.031339,892.37204)">
            <path
               d="m 622.23,-590.387 c -0.48,-33.515 0.743,-69.691 1.618,-103.191"
               style="fill:none;stroke:#000000;stroke-width:2.61674;stroke-linecap:round;stroke-linejoin:round;stroke-miterlimit:10;stroke-dasharray:none;stroke-opacity:1"
               id="path5441" />
          </g>
          <g
             id="g5443"
             transform="matrix(1,0,0,-1,-46.031339,892.37204)">
            <path
               d="m 622.539,-668.414 c -7.527,-5.68 0.41,-10.223 0,-14.691"
               style="fill:none;stroke:#000000;stroke-width:2.61674;stroke-linecap:round;stroke-linejoin:round;stroke-miterlimit:10;stroke-dasharray:none;stroke-opacity:1"
               id="path5445" />
          </g>
          <g
             id="g5447"
             transform="matrix(1,0,0,-1,-46.031339,892.37204)">
            <path
               d="m 703.195,-475.074 c 2.18,-29.617 0.418,-59.606 6.203,-88.895"
               style="fill:none;stroke:#000000;stroke-width:2.61674;stroke-linecap:round;stroke-linejoin:round;stroke-miterlimit:10;stroke-dasharray:none;stroke-opacity:1"
               id="path5449" />
          </g>
          <g
             id="g5451"
             transform="matrix(1,0,0,-1,-46.031339,892.37204)">
            <path
               d="m 709.23,-564.129 c 7.395,0.524 14.817,0.356 22.208,-0.141"
               style="fill:none;stroke:#000000;stroke-width:2.61674;stroke-linecap:round;stroke-linejoin:round;stroke-miterlimit:10;stroke-dasharray:none;stroke-opacity:1"
               id="path5453" />
          </g>
          <g
             id="g5455"
             transform="matrix(1,0,0,-1,-46.031339,892.37204)">
            <path
               d="m 710.703,-567.242 c 1.797,0.062 13.586,2.199 15.375,2.328"
               style="fill:none;stroke:#000000;stroke-width:2.61674;stroke-linecap:round;stroke-linejoin:round;stroke-miterlimit:10;stroke-dasharray:none;stroke-opacity:1"
               id="path5457" />
          </g>
          <g
             id="g5459"
             transform="matrix(1,0,0,-1,-46.031339,892.37204)">
            <path
               d="m 735.465,-473.328 c -1.742,-29.457 -4.813,-61.363 -4.027,-90.942"
               style="fill:none;stroke:#000000;stroke-width:2.61674;stroke-linecap:round;stroke-linejoin:round;stroke-miterlimit:10;stroke-dasharray:none;stroke-opacity:1"
               id="path5461" />
          </g>
          <g
             id="g5463"
             transform="matrix(1,0,0,-1,-46.031339,892.37204)">
            <path
               d="m 705.277,-493.082 c 8.297,-0.57 20.246,2.617 28.11,-0.836"
               style="fill:none;stroke:#000000;stroke-width:2.61674;stroke-linecap:round;stroke-linejoin:round;stroke-miterlimit:10;stroke-dasharray:none;stroke-opacity:1"
               id="path5465" />
          </g>
          <g
             id="g5467"
             transform="matrix(1,0,0,-1,-46.031339,892.37204)">
            <path
               d="m 706.297,-523.547 c 7.133,1.414 16.598,1.289 23.805,0.973"
               style="fill:none;stroke:#000000;stroke-width:2.61674;stroke-linecap:round;stroke-linejoin:round;stroke-miterlimit:10;stroke-dasharray:none;stroke-opacity:1"
               id="path5469" />
          </g>
          <g
             id="g5471"
             transform="matrix(1,0,0,-1,-46.031339,892.37204)">
            <path
               d="m 631.289,-573.762 c 37.129,0.188 76.352,-0.965 113.445,-2.48"
               style="fill:none;stroke:#000000;stroke-width:2.61674;stroke-linecap:round;stroke-linejoin:round;stroke-miterlimit:10;stroke-dasharray:none;stroke-opacity:1"
               id="path5473" />
          </g>
          <g
             id="g5475"
             transform="matrix(1,0,0,-1,-46.031339,892.37204)">
            <path
               d="m 744.734,-576.242 c -1.457,-36.238 -3.796,-72.871 -2.203,-108.957"
               style="fill:none;stroke:#000000;stroke-width:2.61674;stroke-linecap:round;stroke-linejoin:round;stroke-miterlimit:10;stroke-dasharray:none;stroke-opacity:1"
               id="path5477" />
          </g>
          <g
             id="g5479"
             transform="matrix(1,0,0,-1,-46.031339,892.37204)">
            <path
               d="m 631.289,-573.762 c -6.34,-34.422 -0.621,-80.211 -2.398,-110.293"
               style="fill:none;stroke:#000000;stroke-width:2.61674;stroke-linecap:round;stroke-linejoin:round;stroke-miterlimit:10;stroke-dasharray:none;stroke-opacity:1"
               id="path5481" />
          </g>
          <g
             id="g5483"
             transform="matrix(1,0,0,-1,-46.031339,892.37204)">
            <path
               d="m 630.922,-687.738 c 36.332,0.09 75.273,2.843 111.609,2.539"
               style="fill:none;stroke:#000000;stroke-width:2.61674;stroke-linecap:round;stroke-linejoin:round;stroke-miterlimit:10;stroke-dasharray:none;stroke-opacity:1"
               id="path5485" />
          </g>
          <g
             id="g5487"
             transform="matrix(1,0,0,-1,-46.031339,892.37204)">
            <path
               d="m 762.664,-573.453 c 35.121,-0.067 70.16,-2.672 105.223,-4.32"
               style="fill:none;stroke:#000000;stroke-width:2.61674;stroke-linecap:round;stroke-linejoin:round;stroke-miterlimit:10;stroke-dasharray:none;stroke-opacity:1"
               id="path5489" />
          </g>
          <g
             id="g5491"
             transform="matrix(1,0,0,-1,-46.031339,892.37204)">
            <path
               d="m 867.887,-577.773 c 4.246,-37.028 -1.543,-75.067 -0.082,-112.172"
               style="fill:none;stroke:#000000;stroke-width:2.61674;stroke-linecap:round;stroke-linejoin:round;stroke-miterlimit:10;stroke-dasharray:none;stroke-opacity:1"
               id="path5493" />
          </g>
          <g
             id="g5495"
             transform="matrix(1,0,0,-1,-46.031339,892.37204)">
            <path
               d="m 763.02,-687.902 c 33.808,-2.297 94.183,-4.868 104.785,-2.043"
               style="fill:none;stroke:#000000;stroke-width:2.61674;stroke-linecap:round;stroke-linejoin:round;stroke-miterlimit:10;stroke-dasharray:none;stroke-opacity:1"
               id="path5497" />
          </g>
          <g
             id="g5499"
             transform="matrix(1,0,0,-1,-46.031339,892.37204)">
            <path
               d="m 761.891,-575.836 c 1.062,-37.996 -1.207,-74.109 1.129,-112.066"
               style="fill:none;stroke:#000000;stroke-width:2.61674;stroke-linecap:round;stroke-linejoin:round;stroke-miterlimit:10;stroke-dasharray:none;stroke-opacity:1"
               id="path5501" />
          </g>
          <g
             id="g5671"
             transform="matrix(1,0,0,-1,-46.031339,892.37204)">
            <path
               d="m 783.891,-612.859 c 7.992,1.89 16.265,0.91 24.273,-0.25"
               style="fill:none;stroke:#000000;stroke-width:1.26872;stroke-linecap:round;stroke-linejoin:round;stroke-miterlimit:10;stroke-dasharray:none;stroke-opacity:1"
               id="path5673" />
          </g>
          <g
             id="g5675"
             transform="matrix(1,0,0,-1,-46.031339,892.37204)">
            <path
               d="m 812.137,-615.48 c -0.094,-0.618 -0.434,-2.915 -0.512,-3.446"
               style="fill:none;stroke:#000000;stroke-width:1.26872;stroke-linecap:round;stroke-linejoin:round;stroke-miterlimit:10;stroke-dasharray:none;stroke-opacity:1"
               id="path5677" />
          </g>
          <g
             id="g5679"
             transform="matrix(1,0,0,-1,-46.031339,892.37204)">
            <path
               d="m 811.777,-619.785 c 7.782,-7.891 4.18,-21.172 -3.156,-27.985"
               style="fill:none;stroke:#000000;stroke-width:1.26872;stroke-linecap:round;stroke-linejoin:round;stroke-miterlimit:10;stroke-dasharray:none;stroke-opacity:1"
               id="path5681" />
          </g>
          <g
             id="g5683"
             transform="matrix(1,0,0,-1,-46.031339,892.37204)">
            <path
               d="m 784.148,-615.691 c 0.731,-10.68 -3.207,-21.184 -1.625,-31.864"
               style="fill:none;stroke:#000000;stroke-width:1.26872;stroke-linecap:round;stroke-linejoin:round;stroke-miterlimit:10;stroke-dasharray:none;stroke-opacity:1"
               id="path5685" />
          </g>
          <g
             id="g5687"
             transform="matrix(1,0,0,-1,-46.031339,892.37204)">
            <path
               d="m 782.922,-647.695 c 7.945,-1.711 16.176,-0.91 24.105,-2.75"
               style="fill:none;stroke:#000000;stroke-width:1.26872;stroke-linecap:round;stroke-linejoin:round;stroke-miterlimit:10;stroke-dasharray:none;stroke-opacity:1"
               id="path5689" />
          </g>
          <g
             id="g5691"
             transform="matrix(1,0,0,-1,-46.031339,892.37204)">
            <path
               d="m 827.789,-653.551 c -24.344,-17.707 31.645,-12.722 3.137,1.145 l -3.137,-1.145"
               style="fill:none;stroke:#000000;stroke-width:1.26872;stroke-linecap:round;stroke-linejoin:round;stroke-miterlimit:10;stroke-dasharray:none;stroke-opacity:1"
               id="path5693" />
          </g>
          <g
             id="g5695"
             transform="matrix(1,0,0,-1,-46.031339,892.37204)">
            <path
               d="m 830.281,-652.723 c 2.004,0.207 10.028,0.911 12.035,1.055"
               style="fill:none;stroke:#000000;stroke-width:1.26872;stroke-linecap:round;stroke-linejoin:round;stroke-miterlimit:10;stroke-dasharray:none;stroke-opacity:1"
               id="path5697" />
          </g>
          <g
             id="g5699"
             transform="matrix(1,0,0,-1,-46.031339,892.37204)">
            <path
               d="m 843.688,-650.516 c 6.207,-2.14 9.984,-12.125 3.757,-16.3"
               style="fill:none;stroke:#000000;stroke-width:1.26872;stroke-linecap:round;stroke-linejoin:round;stroke-miterlimit:10;stroke-dasharray:none;stroke-opacity:1"
               id="path5701" />
          </g>
          <g
             id="g5703"
             transform="matrix(1,0,0,-1,-46.031339,892.37204)">
            <path
               d="m 829.863,-670.172 c 5.832,0.891 11.742,-0.008 17.586,0.703"
               style="fill:none;stroke:#000000;stroke-width:1.26872;stroke-linecap:round;stroke-linejoin:round;stroke-miterlimit:10;stroke-dasharray:none;stroke-opacity:1"
               id="path5705" />
          </g>
          <g
             id="g5707"
             transform="matrix(1,0,0,-1,-46.031339,892.37204)">
            <path
               d="m 832.898,-655.457 c -3.156,-1.91 -2.445,-8.465 1.801,-8.422"
               style="fill:none;stroke:#000000;stroke-width:1.26872;stroke-linecap:round;stroke-linejoin:round;stroke-miterlimit:10;stroke-dasharray:none;stroke-opacity:1"
               id="path5709" />
          </g>
          <g
             id="g5711"
             transform="matrix(1,0,0,-1,-46.031339,892.37204)">
            <path
               d="m 661.32,-647.781 c 30.118,10.531 -2.582,-43.141 -3.73,-7.77 0.16,3.305 3.73,7.77 3.73,7.77"
               style="fill:none;stroke:#000000;stroke-width:1.26872;stroke-linecap:round;stroke-linejoin:round;stroke-miterlimit:10;stroke-dasharray:none;stroke-opacity:1"
               id="path5713" />
          </g>
          <g
             id="g5715"
             transform="matrix(1,0,0,-1,-46.031339,892.37204)">
            <path
               d="m 663.355,-656.91 c -12.562,-8.977 16.051,-1.988 1.063,-0.07"
               style="fill:none;stroke:#000000;stroke-width:1.26872;stroke-linecap:round;stroke-linejoin:round;stroke-miterlimit:10;stroke-dasharray:none;stroke-opacity:1"
               id="path5717" />
          </g>
          <g
             id="g5719"
             transform="matrix(1,0,0,-1,-46.031339,892.37204)">
            <path
               d="m 678.137,-628.543 c -34.274,14.691 -57.879,-47.918 -18.547,-55.492 23.234,-5.66 50.664,23.519 33.199,45.273"
               style="fill:none;stroke:#000000;stroke-width:1.26872;stroke-linecap:round;stroke-linejoin:round;stroke-miterlimit:10;stroke-dasharray:none;stroke-opacity:1"
               id="path5721" />
          </g>
          <g
             id="g5723"
             transform="matrix(1,0,0,-1,-46.031339,892.37204)">
            <path
               d="m 681.637,-624.918 c -14.575,-15.797 24.511,-18.801 13.269,-1.434"
               style="fill:none;stroke:#000000;stroke-width:1.26872;stroke-linecap:round;stroke-linejoin:round;stroke-miterlimit:10;stroke-dasharray:none;stroke-opacity:1"
               id="path5725" />
          </g>
          <g
             id="g5727"
             transform="matrix(1,0,0,-1,-46.031339,892.37204)">
            <path
               d="m 691.574,-619.281 c 5.11,-34.223 -25.961,7.34 0.078,-0.289"
               style="fill:none;stroke:#000000;stroke-width:1.26872;stroke-linecap:round;stroke-linejoin:round;stroke-miterlimit:10;stroke-dasharray:none;stroke-opacity:1"
               id="path5729" />
          </g>
          <g
             id="g5731"
             transform="matrix(1,0,0,-1,-46.031339,892.37204)">
            <path
               d="m 682.727,-618.152 c -0.891,6.496 -1.774,13.082 -1.043,19.644"
               style="fill:none;stroke:#000000;stroke-width:1.26872;stroke-linecap:round;stroke-linejoin:round;stroke-miterlimit:10;stroke-dasharray:none;stroke-opacity:1"
               id="path5733" />
          </g>
          <g
             id="g5735"
             transform="matrix(1,0,0,-1,-46.031339,892.37204)">
            <path
               d="m 681.684,-598.508 13.093,-1.656"
               style="fill:none;stroke:#000000;stroke-width:1.26872;stroke-linecap:round;stroke-linejoin:round;stroke-miterlimit:10;stroke-dasharray:none;stroke-opacity:1"
               id="path5737" />
          </g>
          <g
             id="g5739"
             transform="matrix(1,0,0,-1,-46.031339,892.37204)">
            <path
               d="m 694.777,-600.164 c -1.191,-5.309 -0.125,-12.602 -0.597,-17.957"
               style="fill:none;stroke:#000000;stroke-width:1.26872;stroke-linecap:round;stroke-linejoin:round;stroke-miterlimit:10;stroke-dasharray:none;stroke-opacity:1"
               id="path5741" />
          </g>
          <g
             id="g5743"
             transform="matrix(1,0,0,-1,-46.031339,892.37204)">
            <path
               d="m 672.934,-578.312 c 0.242,-2.395 0.484,-4.79 0.722,-7.18"
               style="fill:none;stroke:#000000;stroke-width:1.26872;stroke-linecap:round;stroke-linejoin:round;stroke-miterlimit:10;stroke-dasharray:none;stroke-opacity:1"
               id="path5745" />
          </g>
          <g
             id="g5747"
             transform="matrix(1,0,0,-1,-46.031339,892.37204)">
            <path
               d="m 673.203,-585.434 c 8.223,3.582 17.211,1.289 25.801,1.731"
               style="fill:none;stroke:#000000;stroke-width:1.26872;stroke-linecap:round;stroke-linejoin:round;stroke-miterlimit:10;stroke-dasharray:none;stroke-opacity:1"
               id="path5749" />
          </g>
          <g
             id="g5751"
             transform="matrix(1,0,0,-1,-46.031339,892.37204)">
            <path
               d="m 679.816,-579.16 c -5.328,-8.582 10.243,-0.043 0,0"
               style="fill:none;stroke:#000000;stroke-width:1.26872;stroke-linecap:round;stroke-linejoin:round;stroke-miterlimit:10;stroke-dasharray:none;stroke-opacity:1"
               id="path5753" />
          </g>
          <g
             id="g5755"
             transform="matrix(1,0,0,-1,-46.031339,892.37204)">
            <path
               d="m 689.234,-580.148 c -1.136,-9.508 10.809,8.421 0,0"
               style="fill:none;stroke:#000000;stroke-width:1.26872;stroke-linecap:round;stroke-linejoin:round;stroke-miterlimit:10;stroke-dasharray:none;stroke-opacity:1"
               id="path5757" />
          </g>
          <g
             id="g5759"
             transform="matrix(1,0,0,-1,-46.031339,892.37204)">
            <path
               d="m 674.465,-581.789 c -1.199,-1.34 1.957,-2.211 1.723,-0.492"
               style="fill:none;stroke:#000000;stroke-width:1.26872;stroke-linecap:round;stroke-linejoin:round;stroke-miterlimit:10;stroke-dasharray:none;stroke-opacity:1"
               id="path5761" />
          </g>
          <g
             id="g5763"
             transform="matrix(1,0,0,-1,-46.031339,892.37204)">
            <path
               d="m 709.555,-579.121 c -0.078,-2.067 -0.243,-10.32 -0.246,-12.383"
               style="fill:none;stroke:#000000;stroke-width:1.26872;stroke-linecap:round;stroke-linejoin:round;stroke-miterlimit:10;stroke-dasharray:none;stroke-opacity:1"
               id="path5765" />
          </g>
          <g
             id="g5767"
             transform="matrix(1,0,0,-1,-46.031339,892.37204)">
            <path
               d="m 712.41,-590.867 c 1.969,0.082 9.848,0.25 11.817,0.254"
               style="fill:none;stroke:#000000;stroke-width:1.26872;stroke-linecap:round;stroke-linejoin:round;stroke-miterlimit:10;stroke-dasharray:none;stroke-opacity:1"
               id="path5769" />
          </g>
          <g
             id="g5771"
             transform="matrix(1,0,0,-1,-46.031339,892.37204)">
            <path
               d="m 727.16,-579.625 c -0.117,-1.824 -0.414,-9.129 -0.445,-10.953"
               style="fill:none;stroke:#000000;stroke-width:1.26872;stroke-linecap:round;stroke-linejoin:round;stroke-miterlimit:10;stroke-dasharray:none;stroke-opacity:1"
               id="path5773" />
          </g>
          <g
             id="g5775"
             transform="matrix(1,0,0,-1,-46.031339,892.37204)">
            <path
               d="m 730.672,-580.367 c -1.09,-9.035 -0.438,-18.145 -0.692,-27.215"
               style="fill:none;stroke:#000000;stroke-width:1.26872;stroke-linecap:round;stroke-linejoin:round;stroke-miterlimit:10;stroke-dasharray:none;stroke-opacity:1"
               id="path5777" />
          </g>
          <g
             id="g5779"
             transform="matrix(1,0,0,-1,-46.031339,892.37204)">
            <path
               d="m 729.98,-607.582 c -7.375,-0.016 -13.992,1.414 -21.367,1.223"
               style="fill:none;stroke:#000000;stroke-width:1.26872;stroke-linecap:round;stroke-linejoin:round;stroke-miterlimit:10;stroke-dasharray:none;stroke-opacity:1"
               id="path5781" />
          </g>
          <g
             id="g5783"
             transform="matrix(1,0,0,-1,-46.031339,892.37204)">
            <path
               d="m 701.801,-603.25 c -5.781,-2.871 6.82,-2.395 0.246,-0.375"
               style="fill:none;stroke:#000000;stroke-width:1.26872;stroke-linecap:round;stroke-linejoin:round;stroke-miterlimit:10;stroke-dasharray:none;stroke-opacity:1"
               id="path5785" />
          </g>
          <g
             id="g5787"
             transform="matrix(1,0,0,-1,-46.031339,892.37204)">
            <path
               d="m 698.25,-587.852 c -0.508,-7.722 1.977,-15.402 0.395,-23.093"
               style="fill:none;stroke:#000000;stroke-width:1.26872;stroke-linecap:round;stroke-linejoin:round;stroke-miterlimit:10;stroke-dasharray:none;stroke-opacity:1"
               id="path5789" />
          </g>
          <g
             id="g5791"
             transform="matrix(1,0,0,-1,-46.031339,892.37204)">
            <path
               d="m 707.324,-590.242 c -0.152,-2.196 -0.617,-10.981 -0.691,-13.176"
               style="fill:none;stroke:#000000;stroke-width:1.26872;stroke-linecap:round;stroke-linejoin:round;stroke-miterlimit:10;stroke-dasharray:none;stroke-opacity:1"
               id="path5793" />
          </g>
          <g
             id="g5795"
             transform="matrix(1,0,0,-1,-46.031339,892.37204)">
            <path
               d="m 710.781,-592.594 c 2.422,-0.16 12.086,-1.054 14.496,-1.344"
               style="fill:none;stroke:#000000;stroke-width:1.26872;stroke-linecap:round;stroke-linejoin:round;stroke-miterlimit:10;stroke-dasharray:none;stroke-opacity:1"
               id="path5797" />
          </g>
          <g
             id="g5799"
             transform="matrix(1,0,0,-1,-46.031339,892.37204)">
            <path
               d="m 706.723,-616.582 c 6.91,0.277 13.945,0.828 20.742,-0.828"
               style="fill:none;stroke:#000000;stroke-width:1.26872;stroke-linecap:round;stroke-linejoin:round;stroke-miterlimit:10;stroke-dasharray:none;stroke-opacity:1"
               id="path5801" />
          </g>
          <g
             id="g5803"
             transform="matrix(1,0,0,-1,-46.031339,892.37204)">
            <path
               d="m 727.465,-617.41 c -1.727,-8.621 1.703,-18.281 0.14,-26.914"
               style="fill:none;stroke:#000000;stroke-width:1.26872;stroke-linecap:round;stroke-linejoin:round;stroke-miterlimit:10;stroke-dasharray:none;stroke-opacity:1"
               id="path5805" />
          </g>
          <g
             id="g5807"
             transform="matrix(1,0,0,-1,-46.031339,892.37204)">
            <path
               d="m 707.367,-642.918 c 6.817,-0.703 13.434,-2.488 20.238,-1.406"
               style="fill:none;stroke:#000000;stroke-width:1.26872;stroke-linecap:round;stroke-linejoin:round;stroke-miterlimit:10;stroke-dasharray:none;stroke-opacity:1"
               id="path5809" />
          </g>
          <g
             id="g5811"
             transform="matrix(1,0,0,-1,-46.031339,892.37204)">
            <path
               d="m 706.723,-616.582 c -1.086,-8.309 1.75,-18.766 -0.172,-27.012"
               style="fill:none;stroke:#000000;stroke-width:1.26872;stroke-linecap:round;stroke-linejoin:round;stroke-miterlimit:10;stroke-dasharray:none;stroke-opacity:1"
               id="path5813" />
          </g>
          <g
             id="g5815"
             transform="matrix(1,0,0,-1,-46.031339,892.37204)">
            <path
               d="m 708.668,-632.371 c 5.84,0.644 11.738,0.73 17.598,0.301"
               style="fill:none;stroke:#000000;stroke-width:1.26872;stroke-linecap:round;stroke-linejoin:round;stroke-miterlimit:10;stroke-dasharray:none;stroke-opacity:1"
               id="path5817" />
          </g>
          <g
             id="g5819"
             transform="matrix(1,0,0,-1,-46.031339,892.37204)">
            <path
               d="m 709.684,-626.656 c 5.5,0.051 10.91,-1.012 16.336,-1.739"
               style="fill:none;stroke:#000000;stroke-width:1.26872;stroke-linecap:round;stroke-linejoin:round;stroke-miterlimit:10;stroke-dasharray:none;stroke-opacity:1"
               id="path5821" />
          </g>
          <g
             id="g5823"
             transform="matrix(1,0,0,-1,-46.031339,892.37204)">
            <path
               d="m 706.871,-647.633 c 6.727,1.867 13.652,0.246 20.441,-0.094"
               style="fill:none;stroke:#000000;stroke-width:1.26872;stroke-linecap:round;stroke-linejoin:round;stroke-miterlimit:10;stroke-dasharray:none;stroke-opacity:1"
               id="path5825" />
          </g>
          <g
             id="g5827"
             transform="matrix(1,0,0,-1,-46.031339,892.37204)">
            <path
               d="m 727.312,-647.727 c -0.16,-0.601 1.157,-2.574 1.036,-3.027"
               style="fill:none;stroke:#000000;stroke-width:1.26872;stroke-linecap:round;stroke-linejoin:round;stroke-miterlimit:10;stroke-dasharray:none;stroke-opacity:1"
               id="path5829" />
          </g>
          <g
             id="g5831"
             transform="matrix(1,0,0,-1,-46.031339,892.37204)">
            <path
               d="m 707.152,-648.199 c -2.293,1.359 2.016,-2.875 0.68,-2.938"
               style="fill:none;stroke:#000000;stroke-width:1.26872;stroke-linecap:round;stroke-linejoin:round;stroke-miterlimit:10;stroke-dasharray:none;stroke-opacity:1"
               id="path5833" />
          </g>
          <g
             id="g5835"
             transform="matrix(1,0,0,-1,-46.031339,892.37204)">
            <path
               d="m 707.832,-651.137 c 6.844,-0.746 13.668,0.555 20.516,0.383"
               style="fill:none;stroke:#000000;stroke-width:1.26872;stroke-linecap:round;stroke-linejoin:round;stroke-miterlimit:10;stroke-dasharray:none;stroke-opacity:1"
               id="path5837" />
          </g>
          <g
             id="g5839"
             transform="matrix(1,0,0,-1,-46.031339,892.37204)">
            <path
               d="m 706.68,-655.988 c 6.824,0.715 13.687,0.136 20.527,0.246"
               style="fill:none;stroke:#000000;stroke-width:1.26872;stroke-linecap:round;stroke-linejoin:round;stroke-miterlimit:10;stroke-dasharray:none;stroke-opacity:1"
               id="path5841" />
          </g>
          <g
             id="g5843"
             transform="matrix(1,0,0,-1,-46.031339,892.37204)">
            <path
               d="m 707.223,-661.973 c 8.078,1.403 16.207,-0.175 24.293,-0.539"
               style="fill:none;stroke:#000000;stroke-width:1.26872;stroke-linecap:round;stroke-linejoin:round;stroke-miterlimit:10;stroke-dasharray:none;stroke-opacity:1"
               id="path5845" />
          </g>
          <g
             id="g5847"
             transform="matrix(1,0,0,-1,-46.031339,892.37204)">
            <path
               d="m 700.207,-666.293 c 11.355,-1.285 23.012,-0.281 34.125,-3.41"
               style="fill:none;stroke:#000000;stroke-width:1.26872;stroke-linecap:round;stroke-linejoin:round;stroke-miterlimit:10;stroke-dasharray:none;stroke-opacity:1"
               id="path5849" />
          </g>
          <g
             id="g5851"
             transform="matrix(1,0,0,-1,-46.031339,892.37204)">
            <path
               d="m 700.207,-666.293 0.75,-5.797"
               style="fill:none;stroke:#000000;stroke-width:1.26872;stroke-linecap:round;stroke-linejoin:round;stroke-miterlimit:10;stroke-dasharray:none;stroke-opacity:1"
               id="path5853" />
          </g>
          <g
             id="g5855"
             transform="matrix(1,0,0,-1,-46.031339,892.37204)">
            <path
               d="m 700.957,-672.09 c 4.758,2.785 4.801,-4.848 1.746,-4.355"
               style="fill:none;stroke:#000000;stroke-width:1.26872;stroke-linecap:round;stroke-linejoin:round;stroke-miterlimit:10;stroke-dasharray:none;stroke-opacity:1"
               id="path5857" />
          </g>
          <g
             id="g5859"
             transform="matrix(1,0,0,-1,-46.031339,892.37204)">
            <path
               d="m 702.703,-676.445 0.727,-6.028"
               style="fill:none;stroke:#000000;stroke-width:1.26872;stroke-linecap:round;stroke-linejoin:round;stroke-miterlimit:10;stroke-dasharray:none;stroke-opacity:1"
               id="path5861" />
          </g>
          <g
             id="g5863"
             transform="matrix(1,0,0,-1,-46.031339,892.37204)">
            <path
               d="m 734.332,-669.703 0.27,-5.156"
               style="fill:none;stroke:#000000;stroke-width:1.26872;stroke-linecap:round;stroke-linejoin:round;stroke-miterlimit:10;stroke-dasharray:none;stroke-opacity:1"
               id="path5865" />
          </g>
          <g
             id="g5867"
             transform="matrix(1,0,0,-1,-46.031339,892.37204)">
            <path
               d="m 751.09,-567.363 c 0.742,-40.465 1.457,-84.321 -0.531,-124.766"
               style="fill:none;stroke:#000000;stroke-width:1.26872;stroke-linecap:round;stroke-linejoin:round;stroke-miterlimit:10;stroke-dasharray:none;stroke-opacity:1"
               id="path5869" />
          </g>
          <g
             id="g5871"
             transform="matrix(1,0,0,-1,-46.031339,892.37204)">
            <path
               d="m 747.074,-575.738 c -1.679,-36.114 4.219,-72.352 -0.527,-108.36"
               style="fill:none;stroke:#000000;stroke-width:1.26872;stroke-linecap:round;stroke-linejoin:round;stroke-miterlimit:10;stroke-dasharray:none;stroke-opacity:1"
               id="path5873" />
          </g>
          <g
             id="g5875"
             transform="matrix(1,0,0,-1,-46.031339,892.37204)">
            <path
               d="m 755.258,-572.348 c 0.344,-39.168 1.355,-78.328 1.617,-117.496"
               style="fill:none;stroke:#000000;stroke-width:1.26872;stroke-linecap:round;stroke-linejoin:round;stroke-miterlimit:10;stroke-dasharray:none;stroke-opacity:1"
               id="path5877" />
          </g>
          <g
             id="g5879"
             transform="matrix(1,0,0,-1,-46.031339,892.37204)">
            <path
               d="m 762.664,-573.453 c -0.527,-37.395 -2.379,-77.735 -0.555,-115.106"
               style="fill:none;stroke:#000000;stroke-width:1.26872;stroke-linecap:round;stroke-linejoin:round;stroke-miterlimit:10;stroke-dasharray:none;stroke-opacity:1"
               id="path5881" />
          </g>
          <g
             id="g5883"
             transform="matrix(1,0,0,-1,-46.031339,892.37204)">
            <path
               d="m 775.492,-581.781 c 0.621,-34.176 -3.785,-68.403 -0.234,-102.52"
               style="fill:none;stroke:#000000;stroke-width:1.26872;stroke-linecap:round;stroke-linejoin:round;stroke-miterlimit:10;stroke-dasharray:none;stroke-opacity:1"
               id="path5885" />
          </g>
        </g>
      </g>
    </g>
  </g>
</svg>
