<?xml version="1.0" encoding="UTF-8" standalone="no"?>
<!-- Created by Ashley Blewer - This work is licensed under a Creative Commons Attribution 4.0 International License -->

<svg
   width="544"
   height="480"
   viewBox="0 0 143.93334 127"
   version="1.1"
   id="svg2490"
   inkscape:version="1.2.2 (1:1.2.2+202212051552+b0a8486541)"
   sodipodi:docname="1892-35mm-silent-2.svg"
   xmlns:inkscape="http://www.inkscape.org/namespaces/inkscape"
   xmlns:sodipodi="http://sodipodi.sourceforge.net/DTD/sodipodi-0.dtd"
   xmlns="http://www.w3.org/2000/svg"
   xmlns:svg="http://www.w3.org/2000/svg">
  <sodipodi:namedview
     id="namedview2492"
     pagecolor="#ffffff"
     bordercolor="#666666"
     borderopacity="1.0"
     inkscape:pageshadow="2"
     inkscape:pageopacity="0.0"
     inkscape:pagecheckerboard="0"
     inkscape:document-units="mm"
     showgrid="false"
     units="px"
     inkscape:zoom="0.90583674"
     inkscape:cx="53.541657"
     inkscape:cy="254.46086"
     inkscape:window-width="1846"
     inkscape:window-height="1136"
     inkscape:window-x="0"
     inkscape:window-y="0"
     inkscape:window-maximized="1"
     inkscape:current-layer="g4731"
     inkscape:showpageshadow="2"
     inkscape:deskcolor="#d1d1d1" />
  <defs
     id="defs2487" />
  <g
     inkscape:label="Layer 1"
     inkscape:groupmode="layer"
     id="layer1">
    <g
       id="g4731"
       transform="matrix(0.32961229,0,0,0.32903008,-241.78905,1.73126)"
       style="stroke-width:2.68698">
      <g
         id="g104528"
         transform="matrix(1,0,0,-1,0,792)"
         style="stroke-width:2.68698">
        <g
           id="g104530"
           style="stroke-width:2.68698" />
      </g>
      <g
         id="g104996"
         transform="matrix(1,0,0,-1,0,792)"
         style="stroke-width:2.68698">
        <g
           id="g104998"
           style="stroke-width:2.68698" />
      </g>
      <g
         id="g15319"
         transform="matrix(1.360219,0,0,1.3626258,611.5284,-1721.7173)">
        <g
           id="g3505"
           transform="matrix(1,0,0,-1,8.0480667,851.47087)">
          <path
             d="m 213.727,-683.551 c -39.082,1.481 -73.707,28.301 -89.989,63.055 -22.988,46.75 -20.683,107.297 12.567,148.691 26.773,41.243 79.765,59.371 127.164,51.535 39.765,-5.718 77.183,-29.574 96.25,-65.375 27.351,-40.214 23.777,-95.578 -1.805,-135.71 -19.953,-32.872 -54.527,-56.754 -92.894,-61.653 -16.911,-3.031 -34.325,-3.226 -51.293,-0.543 z"
             style="fill:none;stroke:#000000;stroke-width:2.61674;stroke-linecap:round;stroke-linejoin:round;stroke-miterlimit:10;stroke-dasharray:none;stroke-opacity:1"
             id="path3507" />
        </g>
        <g
           id="g3509"
           transform="matrix(1,0,0,-1,8.0480667,851.47087)">
          <path
             d="m 229.395,-498.387 c -11.821,12.367 -39.778,26.653 -30.254,46.672 16.351,12.317 39.05,13.578 58.496,9.328 17.773,-14.836 -8.692,-34.66 -15.883,-48.34 -3.723,-2.421 -6.934,-14.503 -12.344,-7.359"
             style="fill:none;stroke:#000000;stroke-width:2.61674;stroke-linecap:round;stroke-linejoin:round;stroke-miterlimit:10;stroke-dasharray:none;stroke-opacity:1"
             id="path3511" />
        </g>
        <g
           id="g3513"
           transform="matrix(1,0,0,-1,8.0480667,851.47087)">
          <path
             d="m 153.32,-487.059 c 17.848,17.497 26.055,-19.246 36.414,-29.406 15.262,-21.394 -14.922,-18.281 -27.07,-23.519 -20.195,-5.828 -39.516,-1.024 -28.164,19.808 7.523,13.328 18.82,33.117 18.82,33.117"
             style="fill:none;stroke:#000000;stroke-width:2.61674;stroke-linecap:round;stroke-linejoin:round;stroke-miterlimit:10;stroke-dasharray:none;stroke-opacity:1"
             id="path3515" />
        </g>
        <g
           id="g3517"
           transform="matrix(1,0,0,-1,8.0480667,851.47087)">
          <path
             d="m 147.352,-577.426 c 15.187,1.91 28.503,1.203 44.453,1.77 20.59,-5.473 1.328,-37.399 -2.633,-49.434 -10.871,-25.637 -34.606,4.235 -43.34,16.442 -6.605,8.23 -13.551,27.73 1.52,31.222"
             style="fill:none;stroke:#000000;stroke-width:2.61674;stroke-linecap:round;stroke-linejoin:round;stroke-miterlimit:10;stroke-dasharray:none;stroke-opacity:1"
             id="path3519" />
        </g>
        <g
           id="g3521"
           transform="matrix(1,0,0,-1,8.0480667,851.47087)">
          <path
             d="m 281.23,-518.039 c 2.528,18.969 2.766,43.656 21.344,54.492 18.473,-1.297 29.578,-24.277 39.617,-38.035 14.321,-24.652 -38.082,-22.934 -38.082,-22.934 0,0 -19.808,-2.39 -22.879,6.477"
             style="fill:none;stroke:#000000;stroke-width:2.61674;stroke-linecap:round;stroke-linejoin:round;stroke-miterlimit:10;stroke-dasharray:none;stroke-opacity:1"
             id="path3523" />
        </g>
        <g
           id="g3525"
           transform="matrix(1,0,0,-1,8.0480667,851.47087)">
          <path
             d="m 291.484,-567.859 c 17.789,2.257 45.289,19.894 59.004,5.797 -0.535,-20.075 -8.668,-41.083 -21.683,-56.208 -24.5,-7.953 -26.91,28.922 -37.817,43.633 -0.75,2.797 -2.996,6.571 0.496,6.778"
             style="fill:none;stroke:#000000;stroke-width:2.61674;stroke-linecap:round;stroke-linejoin:round;stroke-miterlimit:10;stroke-dasharray:none;stroke-opacity:1"
             id="path3527" />
        </g>
        <g
           id="g3529"
           transform="matrix(1,0,0,-1,8.0480667,851.47087)">
          <path
             d="m 240.121,-604.852 c -5.062,17.836 18.973,17.829 15.563,0.411 9.628,-14.207 29.539,-22.684 31.32,-41.133 -5.074,-15.789 -26.438,-15.258 -40.402,-16.235 -16.051,-2.5 -40.485,9.848 -21.688,26.422 5.992,10.098 8.629,21.575 15.207,30.535"
             style="fill:none;stroke:#000000;stroke-width:2.61674;stroke-linecap:round;stroke-linejoin:round;stroke-miterlimit:10;stroke-dasharray:none;stroke-opacity:1"
             id="path3531" />
        </g>
        <g
           id="g3533"
           transform="matrix(1,0,0,-1,8.0480667,851.47087)">
          <path
             d="m 223.352,-522.586 c 20.347,14.367 52.359,-3.836 49.003,-29.008 -0.23,-23.863 -28.324,-40.289 -48.765,-27.566 -18.137,11.914 -20.66,44.359 -0.949,55.785"
             style="fill:none;stroke:#000000;stroke-width:2.61674;stroke-linecap:round;stroke-linejoin:round;stroke-miterlimit:10;stroke-dasharray:none;stroke-opacity:1"
             id="path3535" />
        </g>
        <g
           id="g3537"
           transform="matrix(1,0,0,-1,8.0480667,851.47087)">
          <path
             d="m 221.934,-549.25 c -1.387,-9.27 7.254,-17.152 16.05,-17.734 8.551,-1.403 18.969,3.5 19.977,12.886 1.887,6.891 0.039,15.012 -6.348,18.907 -7.125,5.312 -19.347,6.097 -24.738,-2.02 -1.668,-3.781 -5.176,-7.711 -4.941,-12.039 z"
             style="fill:none;stroke:#000000;stroke-width:2.61674;stroke-linecap:round;stroke-linejoin:round;stroke-miterlimit:10;stroke-dasharray:none;stroke-opacity:1"
             id="path3539" />
        </g>
        <g
           id="g3541"
           transform="matrix(1,0,0,-1,8.0480667,851.47087)">
          <path
             d="m 228.918,-534.223 c -2.496,3.684 -3.309,7.567 -6.277,10.848"
             style="fill:none;stroke:#000000;stroke-width:2.61674;stroke-linecap:round;stroke-linejoin:round;stroke-miterlimit:10;stroke-dasharray:none;stroke-opacity:1"
             id="path3543" />
        </g>
        <g
           id="g3545"
           transform="matrix(1,0,0,-1,8.0480667,851.47087)">
          <path
             d="m 248.371,-531.281 c 3.149,2.644 3.461,6.855 6.672,9.949"
             style="fill:none;stroke:#000000;stroke-width:2.61674;stroke-linecap:round;stroke-linejoin:round;stroke-miterlimit:10;stroke-dasharray:none;stroke-opacity:1"
             id="path3547" />
        </g>
        <g
           id="g3549"
           transform="matrix(1,0,0,-1,8.0480667,851.47087)">
          <path
             d="m 259.586,-548.219 c 4.269,0.039 8.492,1.473 12.773,0.996"
             style="fill:none;stroke:#000000;stroke-width:2.61674;stroke-linecap:round;stroke-linejoin:round;stroke-miterlimit:10;stroke-dasharray:none;stroke-opacity:1"
             id="path3551" />
        </g>
        <g
           id="g3553"
           transform="matrix(1,0,0,-1,8.0480667,851.47087)">
          <path
             d="m 251.707,-564.949 c 6.828,-6.688 6.297,-8.067 8.281,-11.024"
             style="fill:none;stroke:#000000;stroke-width:2.61674;stroke-linecap:round;stroke-linejoin:round;stroke-miterlimit:10;stroke-dasharray:none;stroke-opacity:1"
             id="path3555" />
        </g>
        <g
           id="g3557"
           transform="matrix(1,0,0,-1,8.0480667,851.47087)">
          <path
             d="m 233.309,-566.562 c 0.253,-4 -4.043,-9.219 -4.657,-13.086"
             style="fill:none;stroke:#000000;stroke-width:2.61674;stroke-linecap:round;stroke-linejoin:round;stroke-miterlimit:10;stroke-dasharray:none;stroke-opacity:1"
             id="path3559" />
        </g>
        <g
           id="g3561"
           transform="matrix(1,0,0,-1,8.0480667,851.47087)">
          <path
             d="m 221.934,-549.25 -12.547,-3.84"
             style="fill:none;stroke:#000000;stroke-width:2.61674;stroke-linecap:round;stroke-linejoin:round;stroke-miterlimit:10;stroke-dasharray:none;stroke-opacity:1"
             id="path3563" />
        </g>
        <g
           id="g3565"
           transform="matrix(1,0,0,-1,8.0480667,851.47087)">
          <path
             d="m 235.566,-519.227 c -13.628,-13.531 21.981,-15.66 7.829,0.079 -1.649,1.378 1.796,1.082 0,0"
             style="fill:none;stroke:#000000;stroke-width:2.61674;stroke-linecap:round;stroke-linejoin:round;stroke-miterlimit:10;stroke-dasharray:none;stroke-opacity:1"
             id="path3567" />
        </g>
        <g
           id="g3569"
           transform="matrix(1,0,0,-1,8.0480667,851.47087)">
          <path
             d="m 240.152,-551.027 c -0.863,0.547 1.52,1.203 0.758,-0.09"
             style="fill:none;stroke:#000000;stroke-width:2.61674;stroke-linecap:round;stroke-linejoin:round;stroke-miterlimit:10;stroke-dasharray:none;stroke-opacity:1"
             id="path3571" />
        </g>
        <g
           id="g3573"
           transform="matrix(1,0,0,-1,8.0480667,851.47087)">
          <path
             d="m 240.742,-552 c 0.207,-0.281 0.594,-1.305 0.582,-1.535"
             style="fill:none;stroke:#000000;stroke-width:2.61674;stroke-linecap:round;stroke-linejoin:round;stroke-miterlimit:10;stroke-dasharray:none;stroke-opacity:1"
             id="path3575" />
        </g>
        <g
           id="g3617"
           transform="matrix(1,0,0,-1,8.0480667,851.47087)">
          <path
             d="m 168.262,-472.25 c 13.738,-14.875 22.66,-34 37.476,-47.805"
             style="fill:none;stroke:#000000;stroke-width:1.26872;stroke-linecap:round;stroke-linejoin:round;stroke-miterlimit:10;stroke-dasharray:none;stroke-opacity:1"
             id="path3619" />
        </g>
        <g
           id="g3621"
           transform="matrix(1,0,0,-1,8.0480667,851.47087)">
          <path
             d="m 215.945,-511.945 c -7.136,12.199 -18.816,20.621 -26.57,32.242"
             style="fill:none;stroke:#000000;stroke-width:1.26872;stroke-linecap:round;stroke-linejoin:round;stroke-miterlimit:10;stroke-dasharray:none;stroke-opacity:1"
             id="path3623" />
        </g>
        <g
           id="g3625"
           transform="matrix(1,0,0,-1,8.0480667,851.47087)">
          <path
             d="m 221.578,-504.547 c -13.555,15.449 -24.91,32.711 -37.93,48.563"
             style="fill:none;stroke:#000000;stroke-width:1.26872;stroke-linecap:round;stroke-linejoin:round;stroke-miterlimit:10;stroke-dasharray:none;stroke-opacity:1"
             id="path3627" />
        </g>
        <g
           id="g3629"
           transform="matrix(1,0,0,-1,8.0480667,851.47087)">
          <path
             d="m 275.719,-448.098 c -8.27,-17.656 -9.614,-38.422 -22.739,-53.699 l 0.196,0.078 -0.016,-0.304"
             style="fill:none;stroke:#000000;stroke-width:1.26872;stroke-linecap:round;stroke-linejoin:round;stroke-miterlimit:10;stroke-dasharray:none;stroke-opacity:1"
             id="path3631" />
        </g>
        <g
           id="g3633"
           transform="matrix(1,0,0,-1,8.0480667,851.47087)">
          <path
             d="m 278.539,-465.523 c -7.055,-12.465 -11.566,-27.922 -15.703,-39.926"
             style="fill:none;stroke:#000000;stroke-width:1.26872;stroke-linecap:round;stroke-linejoin:round;stroke-miterlimit:10;stroke-dasharray:none;stroke-opacity:1"
             id="path3635" />
        </g>
        <g
           id="g3637"
           transform="matrix(1,0,0,-1,8.0480667,851.47087)">
          <path
             d="m 300.863,-457.652 c -20.066,0.742 -14.461,-33.649 -27.043,-45.391 l -1.441,-3.414 -0.731,-3.289"
             style="fill:none;stroke:#000000;stroke-width:1.26872;stroke-linecap:round;stroke-linejoin:round;stroke-miterlimit:10;stroke-dasharray:none;stroke-opacity:1"
             id="path3639" />
        </g>
        <g
           id="g3641"
           transform="matrix(1,0,0,-1,8.0480667,851.47087)">
          <path
             d="m 290.348,-537.777 c 20.09,1.961 40.656,6.312 60.054,9.047"
             style="fill:none;stroke:#000000;stroke-width:1.26872;stroke-linecap:round;stroke-linejoin:round;stroke-miterlimit:10;stroke-dasharray:none;stroke-opacity:1"
             id="path3643" />
        </g>
        <g
           id="g3645"
           transform="matrix(1,0,0,-1,8.0480667,851.47087)">
          <path
             d="m 290.277,-545.34 c 12.571,0.922 25.161,4.117 37.606,4.754"
             style="fill:none;stroke:#000000;stroke-width:1.26872;stroke-linecap:round;stroke-linejoin:round;stroke-miterlimit:10;stroke-dasharray:none;stroke-opacity:1"
             id="path3647" />
        </g>
        <g
           id="g3649"
           transform="matrix(1,0,0,-1,8.0480667,851.47087)">
          <path
             d="m 288.305,-554.312 c 21.066,2.265 43.687,9.128 64.265,3.925 -1.246,-0.789 2.309,-1.855 0.485,-2.269"
             style="fill:none;stroke:#000000;stroke-width:1.26872;stroke-linecap:round;stroke-linejoin:round;stroke-miterlimit:10;stroke-dasharray:none;stroke-opacity:1"
             id="path3651" />
        </g>
        <g
           id="g3653"
           transform="matrix(1,0,0,-1,8.0480667,851.47087)">
          <path
             d="m 276.609,-580.621 c 7.625,-7.805 11.856,-17.77 18.231,-26.434"
             style="fill:none;stroke:#000000;stroke-width:1.26872;stroke-linecap:round;stroke-linejoin:round;stroke-miterlimit:10;stroke-dasharray:none;stroke-opacity:1"
             id="path3655" />
        </g>
        <g
           id="g3657"
           transform="matrix(1,0,0,-1,8.0480667,851.47087)">
          <path
             d="m 270.738,-586.125 c 9.457,-10.207 14.965,-23.789 23.078,-35.129"
             style="fill:none;stroke:#000000;stroke-width:1.26872;stroke-linecap:round;stroke-linejoin:round;stroke-miterlimit:10;stroke-dasharray:none;stroke-opacity:1"
             id="path3659" />
        </g>
        <g
           id="g3661"
           transform="matrix(1,0,0,-1,8.0480667,851.47087)">
          <path
             d="m 261.469,-594.668 c 12.965,-15.957 28.093,-31.641 36.988,-50.484 l 0.684,0.203"
             style="fill:none;stroke:#000000;stroke-width:1.26872;stroke-linecap:round;stroke-linejoin:round;stroke-miterlimit:10;stroke-dasharray:none;stroke-opacity:1"
             id="path3663" />
        </g>
        <g
           id="g3665"
           transform="matrix(1,0,0,-1,8.0480667,851.47087)">
          <path
             d="m 232.672,-596.59 c -7.754,-18.828 -21.133,-36.281 -23.484,-56.691"
             style="fill:none;stroke:#000000;stroke-width:1.26872;stroke-linecap:round;stroke-linejoin:round;stroke-miterlimit:10;stroke-dasharray:none;stroke-opacity:1"
             id="path3667" />
        </g>
        <g
           id="g3669"
           transform="matrix(1,0,0,-1,8.0480667,851.47087)">
          <path
             d="m 218.309,-592.957 c -2.293,-9.91 -8.704,-22.867 -10.735,-30.527"
             style="fill:none;stroke:#000000;stroke-width:1.26872;stroke-linecap:round;stroke-linejoin:round;stroke-miterlimit:10;stroke-dasharray:none;stroke-opacity:1"
             id="path3671" />
        </g>
        <g
           id="g3673"
           transform="matrix(1,0,0,-1,8.0480667,851.47087)">
          <path
             d="m 213.094,-584.324 c -4.203,-18.031 -12.992,-35.856 -20.91,-52.949 1.406,-3.383 -2.766,-2.528 -3.039,-4.516"
             style="fill:none;stroke:#000000;stroke-width:1.26872;stroke-linecap:round;stroke-linejoin:round;stroke-miterlimit:10;stroke-dasharray:none;stroke-opacity:1"
             id="path3675" />
        </g>
        <g
           id="g3677"
           transform="matrix(1,0,0,-1,8.0480667,851.47087)">
          <path
             d="m 133.574,-575.336 c 9.36,9.559 29.696,6.469 43.461,8.52 7.242,-0.297 20.031,4.855 24.653,-0.153"
             style="fill:none;stroke:#000000;stroke-width:1.26872;stroke-linecap:round;stroke-linejoin:round;stroke-miterlimit:10;stroke-dasharray:none;stroke-opacity:1"
             id="path3679" />
        </g>
        <g
           id="g3681"
           transform="matrix(1,0,0,-1,8.0480667,851.47087)">
          <path
             d="m 154.195,-560.137 c 14.012,4.282 31.934,5.453 44.469,5.637"
             style="fill:none;stroke:#000000;stroke-width:1.26872;stroke-linecap:round;stroke-linejoin:round;stroke-miterlimit:10;stroke-dasharray:none;stroke-opacity:1"
             id="path3683" />
        </g>
        <g
           id="g3685"
           transform="matrix(1,0,0,-1,8.0480667,851.47087)">
          <path
             d="m 130.312,-547.91 c 6.473,-10.461 26.614,0.41 38.235,0.406 9.234,0.465 21.957,6.297 29.551,4.352"
             style="fill:none;stroke:#000000;stroke-width:1.26872;stroke-linecap:round;stroke-linejoin:round;stroke-miterlimit:10;stroke-dasharray:none;stroke-opacity:1"
             id="path3687" />
        </g>
        <g
           id="g3689"
           transform="matrix(1,0,0,-1,8.0480667,851.47087)">
          <path
             d="m 220.914,-565.582 0.152,-0.348"
             style="fill:none;stroke:#000000;stroke-width:1.26872;stroke-linecap:round;stroke-linejoin:round;stroke-miterlimit:10;stroke-dasharray:none;stroke-opacity:1"
             id="path3691" />
        </g>
        <g
           id="g3693"
           transform="matrix(1,0,0,-1,8.0480667,851.47087)">
          <path
             d="m 262.969,-536.777 c -3.809,-1.875 1.84,1.605 -0.793,-0.746"
             style="fill:none;stroke:#000000;stroke-width:1.26872;stroke-linecap:round;stroke-linejoin:round;stroke-miterlimit:10;stroke-dasharray:none;stroke-opacity:1"
             id="path3695" />
        </g>
      </g>
    </g>
  </g>
</svg>
