<?xml version="1.0" encoding="UTF-8" standalone="no"?>
<!-- Created by Ashley Blewer - This work is licensed under a Creative Commons Attribution 4.0 International License -->

<svg
   width="544"
   height="480"
   viewBox="0 0 143.93334 127"
   version="1.1"
   id="svg2490"
   inkscape:version="1.2.2 (1:1.2.2+202212051552+b0a8486541)"
   sodipodi:docname="1895-bioscop-2.svg"
   xmlns:inkscape="http://www.inkscape.org/namespaces/inkscape"
   xmlns:sodipodi="http://sodipodi.sourceforge.net/DTD/sodipodi-0.dtd"
   xmlns="http://www.w3.org/2000/svg"
   xmlns:svg="http://www.w3.org/2000/svg">
  <sodipodi:namedview
     id="namedview2492"
     pagecolor="#ffffff"
     bordercolor="#666666"
     borderopacity="1.0"
     inkscape:pageshadow="2"
     inkscape:pageopacity="0.0"
     inkscape:pagecheckerboard="0"
     inkscape:document-units="mm"
     showgrid="false"
     units="px"
     inkscape:zoom="0.90583674"
     inkscape:cx="53.541657"
     inkscape:cy="254.46086"
     inkscape:window-width="1846"
     inkscape:window-height="1136"
     inkscape:window-x="0"
     inkscape:window-y="0"
     inkscape:window-maximized="1"
     inkscape:current-layer="g6718"
     inkscape:showpageshadow="2"
     inkscape:deskcolor="#d1d1d1" />
  <defs
     id="defs2487" />
  <g
     inkscape:label="Layer 1"
     inkscape:groupmode="layer"
     id="layer1">
    <g
       id="g4731"
       transform="matrix(0.32961229,0,0,0.32903008,-241.78905,1.73126)"
       style="stroke-width:2.68698">
      <g
         id="g104528"
         transform="matrix(1,0,0,-1,0,792)"
         style="stroke-width:2.68698">
        <g
           id="g104530"
           style="stroke-width:2.68698" />
      </g>
      <g
         id="g104996"
         transform="matrix(1,0,0,-1,0,792)"
         style="stroke-width:2.68698">
        <g
           id="g104998"
           style="stroke-width:2.68698" />
      </g>
      <g
         id="g28852"
         transform="matrix(1.070281,0,0,1.0721748,779.91249,-443.13657)">
        <g
           id="g6718"
           transform="matrix(1.117886,0,0,1.117886,-549.13111,-491.62865)">
          <g
             id="g5750"
             transform="matrix(0.64325957,0,0,0.6432596,-812.44834,681.37955)">
            <g
               id="g904"
               transform="matrix(1,0,0,-1,1316.0874,28.50837)">
              <path
                 d="m 948.508,-200.527 c 4.051,5.367 21.129,5.711 24.332,-0.602"
                 style="fill:none;stroke:#000000;stroke-width:2.61674;stroke-linecap:round;stroke-linejoin:round;stroke-miterlimit:10;stroke-dasharray:none;stroke-opacity:1"
                 id="path906" />
            </g>
            <g
               id="g908"
               transform="matrix(1,0,0,-1,1316.0874,28.50837)">
              <path
                 d="m 948.508,-200.527 -4.028,-6.496"
                 style="fill:none;stroke:#000000;stroke-width:2.61674;stroke-linecap:round;stroke-linejoin:round;stroke-miterlimit:10;stroke-dasharray:none;stroke-opacity:1"
                 id="path910" />
            </g>
            <g
               id="g912"
               transform="matrix(1,0,0,-1,1316.0874,28.50837)">
              <path
                 d="m 919.035,-202.98 c -1.39,8.851 -14.894,4.714 -20.41,3.136"
                 style="fill:none;stroke:#000000;stroke-width:2.61674;stroke-linecap:round;stroke-linejoin:round;stroke-miterlimit:10;stroke-dasharray:none;stroke-opacity:1"
                 id="path914" />
            </g>
            <g
               id="g916"
               transform="matrix(1,0,0,-1,1316.0874,28.50837)">
              <path
                 d="m 898.625,-199.844 c -5.18,-0.402 -5.473,-6.886 -6.051,-10.758"
                 style="fill:none;stroke:#000000;stroke-width:2.61674;stroke-linecap:round;stroke-linejoin:round;stroke-miterlimit:10;stroke-dasharray:none;stroke-opacity:1"
                 id="path918" />
            </g>
            <g
               id="g920"
               transform="matrix(1,0,0,-1,1316.0874,28.50837)">
              <path
                 d="m 919.035,-202.98 c 0.449,-3.372 0.738,-7.348 -1.441,-10.231"
                 style="fill:none;stroke:#000000;stroke-width:2.61674;stroke-linecap:round;stroke-linejoin:round;stroke-miterlimit:10;stroke-dasharray:none;stroke-opacity:1"
                 id="path922" />
            </g>
            <g
               id="g924"
               transform="matrix(1,0,0,-1,1316.0874,28.50837)">
              <path
                 d="m 894.352,-211.621 c 7.113,0.269 16.253,-0.121 23.242,-1.59"
                 style="fill:none;stroke:#000000;stroke-width:2.61674;stroke-linecap:round;stroke-linejoin:round;stroke-miterlimit:10;stroke-dasharray:none;stroke-opacity:1"
                 id="path926" />
            </g>
            <g
               id="g928"
               transform="matrix(1,0,0,-1,1316.0874,28.50837)">
              <path
                 d="m 892.758,-211.438 c -5.746,-26.617 -3.676,-54.07 -2.922,-81.035 1.426,-9.289 3.988,-18.363 6.988,-27.257"
                 style="fill:none;stroke:#000000;stroke-width:2.61674;stroke-linecap:round;stroke-linejoin:round;stroke-miterlimit:10;stroke-dasharray:none;stroke-opacity:1"
                 id="path930" />
            </g>
            <g
               id="g932"
               transform="matrix(1,0,0,-1,1316.0874,28.50837)">
              <path
                 d="m 972.84,-201.129 c 8.168,-7.078 0.933,-22.797 3.414,-32.449"
                 style="fill:none;stroke:#000000;stroke-width:2.61674;stroke-linecap:round;stroke-linejoin:round;stroke-miterlimit:10;stroke-dasharray:none;stroke-opacity:1"
                 id="path934" />
            </g>
            <g
               id="g936"
               transform="matrix(1,0,0,-1,1316.0874,28.50837)">
              <path
                 d="m 976.254,-233.578 c 17.172,7.238 6.961,-49.289 7.406,-69.875"
                 style="fill:none;stroke:#000000;stroke-width:2.61674;stroke-linecap:round;stroke-linejoin:round;stroke-miterlimit:10;stroke-dasharray:none;stroke-opacity:1"
                 id="path938" />
            </g>
            <g
               id="g940"
               transform="matrix(1,0,0,-1,1316.0874,28.50837)">
              <path
                 d="m 976.254,-233.578 c 0.23,-20.133 0.558,-52.535 3.281,-72.457"
                 style="fill:none;stroke:#000000;stroke-width:2.61674;stroke-linecap:round;stroke-linejoin:round;stroke-miterlimit:10;stroke-dasharray:none;stroke-opacity:1"
                 id="path942" />
            </g>
            <g
               id="g944"
               transform="matrix(1,0,0,-1,1316.0874,28.50837)">
              <path
                 d="m 983.66,-303.453 c -6.969,-0.094 -5.426,-16.606 -12.769,-14.496"
                 style="fill:none;stroke:#000000;stroke-width:2.61674;stroke-linecap:round;stroke-linejoin:round;stroke-miterlimit:10;stroke-dasharray:none;stroke-opacity:1"
                 id="path946" />
            </g>
            <g
               id="g948"
               transform="matrix(1,0,0,-1,1316.0874,28.50837)">
              <path
                 d="m 972.852,-271.684 c -0.692,-9.339 7.992,-53.648 -14.504,-50.671"
                 style="fill:none;stroke:#000000;stroke-width:2.61674;stroke-linecap:round;stroke-linejoin:round;stroke-miterlimit:10;stroke-dasharray:none;stroke-opacity:1"
                 id="path950" />
            </g>
            <g
               id="g952"
               transform="matrix(1,0,0,-1,1316.0874,28.50837)">
              <path
                 d="m 896.824,-319.73 c 4.133,-1.079 19.27,-4.575 23.528,-3.911"
                 style="fill:none;stroke:#000000;stroke-width:2.61674;stroke-linecap:round;stroke-linejoin:round;stroke-miterlimit:10;stroke-dasharray:none;stroke-opacity:1"
                 id="path954" />
            </g>
            <g
               id="g956"
               transform="matrix(1,0,0,-1,1316.0874,28.50837)">
              <path
                 d="m 889.836,-292.473 c 2.641,0.032 10.519,-0.691 13.109,-1.355"
                 style="fill:none;stroke:#000000;stroke-width:2.61674;stroke-linecap:round;stroke-linejoin:round;stroke-miterlimit:10;stroke-dasharray:none;stroke-opacity:1"
                 id="path958" />
            </g>
            <g
               id="g960"
               transform="matrix(1,0,0,-1,1316.0874,28.50837)">
              <path
                 d="m 921.246,-307.848 c -26.934,12.942 -34.742,52.598 -13.945,74.332 13.015,12.883 31.094,6.664 45.906,1.032 20.063,-8.766 26.445,-35.532 14.535,-53.332 -9.387,-16.559 -27.844,-24.727 -46.496,-22.032 -3.016,-0.523 -3.016,-0.523 0,0"
                 style="fill:none;stroke:#000000;stroke-width:2.61674;stroke-linecap:round;stroke-linejoin:round;stroke-miterlimit:10;stroke-dasharray:none;stroke-opacity:1"
                 id="path962" />
            </g>
            <g
               id="g964"
               transform="matrix(1,0,0,-1,1316.0874,28.50837)">
              <path
                 d="m 950.242,-303.328 c 2.653,-20.414 10.156,-45.477 10.977,-66.059 1.156,-20.679 -20.942,-43.164 -41.5,-31.769 -17.93,8.621 -18.082,31.433 -11.418,47.472 4.84,13.504 11.906,26.52 13.148,41.024"
                 style="fill:none;stroke:#000000;stroke-width:2.61674;stroke-linecap:round;stroke-linejoin:round;stroke-miterlimit:10;stroke-dasharray:none;stroke-opacity:1"
                 id="path966" />
            </g>
            <g
               id="g968"
               transform="matrix(1,0,0,-1,1316.0874,28.50837)">
              <path
                 d="m 903.965,-374.793 c -1.949,24.629 31.742,36.836 48.633,20.586 4.109,-3.047 9.515,-9.695 8.621,-15.18"
                 style="fill:none;stroke:#000000;stroke-width:2.61674;stroke-linecap:round;stroke-linejoin:round;stroke-miterlimit:10;stroke-dasharray:none;stroke-opacity:1"
                 id="path970" />
            </g>
            <g
               id="g972"
               transform="matrix(1,0,0,-1,1316.0874,28.50837)">
              <path
                 d="m 933.289,-349.949 c -14.988,-7.793 15.496,-8.324 1.352,-0.289 -1.2,-0.004 -1.352,0.289 -1.352,0.289"
                 style="fill:none;stroke:#000000;stroke-width:2.61674;stroke-linecap:round;stroke-linejoin:round;stroke-miterlimit:10;stroke-dasharray:none;stroke-opacity:1"
                 id="path974" />
            </g>
            <g
               id="g976"
               transform="matrix(1,0,0,-1,1316.0874,28.50837)">
              <path
                 d="m 949.344,-326.637 c 1.41,-7.812 -0.246,-15.734 0.32,-23.586"
                 style="fill:none;stroke:#000000;stroke-width:2.61674;stroke-linecap:round;stroke-linejoin:round;stroke-miterlimit:10;stroke-dasharray:none;stroke-opacity:1"
                 id="path978" />
            </g>
            <g
               id="g980"
               transform="matrix(1,0,0,-1,1316.0874,28.50837)">
              <path
                 d="m 917.172,-325.395 c 1.207,-5.304 -1.938,-10.585 -0.449,-15.847"
                 style="fill:none;stroke:#000000;stroke-width:2.61674;stroke-linecap:round;stroke-linejoin:round;stroke-miterlimit:10;stroke-dasharray:none;stroke-opacity:1"
                 id="path982" />
            </g>
            <g
               id="g984"
               transform="matrix(1,0,0,-1,1316.0874,28.50837)">
              <path
                 d="m 916.715,-400.355 c 2.078,-31.118 3.84,-66.36 1.48,-97.52"
                 style="fill:none;stroke:#000000;stroke-width:2.61674;stroke-linecap:round;stroke-linejoin:round;stroke-miterlimit:10;stroke-dasharray:none;stroke-opacity:1"
                 id="path986" />
            </g>
            <g
               id="g988"
               transform="matrix(1,0,0,-1,1316.0874,28.50837)">
              <path
                 d="m 951.25,-395.332 c 0.367,-31.555 -2.266,-66.504 -2.793,-98.008 l 2.559,-5.93"
                 style="fill:none;stroke:#000000;stroke-width:2.61674;stroke-linecap:round;stroke-linejoin:round;stroke-miterlimit:10;stroke-dasharray:none;stroke-opacity:1"
                 id="path990" />
            </g>
            <g
               id="g992"
               transform="matrix(1,0,0,-1,1316.0874,28.50837)">
              <path
                 d="m 918.195,-497.875 c 9.809,-1.996 24.301,1.715 34.071,-0.586"
                 style="fill:none;stroke:#000000;stroke-width:2.61674;stroke-linecap:round;stroke-linejoin:round;stroke-miterlimit:10;stroke-dasharray:none;stroke-opacity:1"
                 id="path994" />
            </g>
            <g
               id="g996"
               transform="matrix(1,0,0,-1,1316.0874,28.50837)">
              <path
                 d="m 952.266,-498.461 c 8.367,-16.539 20.558,-37.059 30.289,-49.012"
                 style="fill:none;stroke:#000000;stroke-width:2.61674;stroke-linecap:round;stroke-linejoin:round;stroke-miterlimit:10;stroke-dasharray:none;stroke-opacity:1"
                 id="path998" />
            </g>
            <g
               id="g1000"
               transform="matrix(1,0,0,-1,1316.0874,28.50837)">
              <path
                 d="m 958.188,-384.52 c 1.031,-34.457 -2.469,-76.109 -6.129,-110.328 l -0.918,-2.75"
                 style="fill:none;stroke:#000000;stroke-width:2.61674;stroke-linecap:round;stroke-linejoin:round;stroke-miterlimit:10;stroke-dasharray:none;stroke-opacity:1"
                 id="path1002" />
            </g>
            <g
               id="g1004"
               transform="matrix(1,0,0,-1,1316.0874,28.50837)">
              <path
                 d="m 954.535,-470.93 c 11.008,-14.304 19.875,-32.386 31.863,-46.004 1.774,-2.457 5.739,-6.175 8.282,-7.98"
                 style="fill:none;stroke:#000000;stroke-width:2.61674;stroke-linecap:round;stroke-linejoin:round;stroke-miterlimit:10;stroke-dasharray:none;stroke-opacity:1"
                 id="path1006" />
            </g>
            <g
               id="g1008"
               transform="matrix(1,0,0,-1,1316.0874,28.50837)">
              <path
                 d="m 994.68,-524.914 c -2.426,-10.371 -8.317,-17.492 -8.922,-28.141 m -111.899,25.571 -19.32,-38.778"
                 style="fill:none;stroke:#000000;stroke-width:2.61674;stroke-linecap:round;stroke-linejoin:round;stroke-miterlimit:10;stroke-dasharray:none;stroke-opacity:1"
                 id="path1010" />
            </g>
            <g
               id="g1012"
               transform="matrix(1,0,0,-1,1316.0874,28.50837)">
              <path
                 d="m 918.02,-490.324 c -5.942,-14.582 -16.836,-19.875 -26,-32.278"
                 style="fill:none;stroke:#000000;stroke-width:2.61674;stroke-linecap:round;stroke-linejoin:round;stroke-miterlimit:10;stroke-dasharray:none;stroke-opacity:1"
                 id="path1014" />
            </g>
            <g
               id="g1016"
               transform="matrix(1,0,0,-1,1316.0874,28.50837)">
              <path
                 d="m 918.195,-497.875 c -9.179,-18.23 -23.433,-35.383 -29.902,-55.152"
                 style="fill:none;stroke:#000000;stroke-width:2.61674;stroke-linecap:round;stroke-linejoin:round;stroke-miterlimit:10;stroke-dasharray:none;stroke-opacity:1"
                 id="path1018" />
            </g>
            <g
               id="g1020"
               transform="matrix(1,0,0,-1,1316.0874,28.50837)">
              <path
                 d="m 892.02,-522.602 c -1.215,-8.773 -1.969,-21.753 -3.727,-30.425"
                 style="fill:none;stroke:#000000;stroke-width:2.61674;stroke-linecap:round;stroke-linejoin:round;stroke-miterlimit:10;stroke-dasharray:none;stroke-opacity:1"
                 id="path1022" />
            </g>
            <g
               id="g1024"
               transform="matrix(1,0,0,-1,1316.0874,28.50837)">
              <path
                 d="m 892.02,-522.602 c -4.969,-4.5 -12.555,-1.933 -18.161,-4.882"
                 style="fill:none;stroke:#000000;stroke-width:2.61674;stroke-linecap:round;stroke-linejoin:round;stroke-miterlimit:10;stroke-dasharray:none;stroke-opacity:1"
                 id="path1026" />
            </g>
            <g
               id="g1028"
               transform="matrix(1,0,0,-1,1316.0874,28.50837)">
              <path
                 d="m 994.68,-524.914 c 5.355,1.449 16.433,-2.512 21.972,-2.25"
                 style="fill:none;stroke:#000000;stroke-width:2.61674;stroke-linecap:round;stroke-linejoin:round;stroke-miterlimit:10;stroke-dasharray:none;stroke-opacity:1"
                 id="path1030" />
            </g>
            <g
               id="g1032"
               transform="matrix(1,0,0,-1,1316.0874,28.50837)">
              <path
                 d="m 1016.652,-527.164 c 6.012,-15.434 10.957,-31.305 15.149,-47.32"
                 style="fill:none;stroke:#000000;stroke-width:2.61674;stroke-linecap:round;stroke-linejoin:round;stroke-miterlimit:10;stroke-dasharray:none;stroke-opacity:1"
                 id="path1034" />
            </g>
            <g
               id="g1036"
               transform="matrix(1,0,0,-1,1316.0874,28.50837)">
              <path
                 d="m 1016.465,-531.156 c -4.199,-12.039 -4.981,-24.981 -5.68,-37.614"
                 style="fill:none;stroke:#000000;stroke-width:2.61674;stroke-linecap:round;stroke-linejoin:round;stroke-miterlimit:10;stroke-dasharray:none;stroke-opacity:1"
                 id="path1038" />
            </g>
            <g
               id="g1040"
               transform="matrix(1,0,0,-1,1316.0874,28.50837)">
              <path
                 d="m 1031.801,-574.484 c 0,0 -2.336,-52.25 -5.739,-61.063"
                 style="fill:none;stroke:#000000;stroke-width:2.61674;stroke-linecap:round;stroke-linejoin:round;stroke-miterlimit:10;stroke-dasharray:none;stroke-opacity:1"
                 id="path1042" />
            </g>
            <g
               id="g1044"
               transform="matrix(1,0,0,-1,1316.0874,28.50837)">
              <path
                 d="m 1011.898,-569.789 c 5.297,-21.649 9.454,-43.602 14.262,-65.316 l -0.195,-0.879 -0.766,0.32"
                 style="fill:none;stroke:#000000;stroke-width:2.61674;stroke-linecap:round;stroke-linejoin:round;stroke-miterlimit:10;stroke-dasharray:none;stroke-opacity:1"
                 id="path1046" />
            </g>
            <g
               id="g1048"
               transform="matrix(1,0,0,-1,1316.0874,28.50837)">
              <path
                 d="m 854.539,-566.262 c -8.512,-23.207 -11.496,-44.015 -14.555,-68.457"
                 style="fill:none;stroke:#000000;stroke-width:2.61674;stroke-linecap:round;stroke-linejoin:round;stroke-miterlimit:10;stroke-dasharray:none;stroke-opacity:1"
                 id="path1050" />
            </g>
            <g
               id="g1052"
               transform="matrix(1,0,0,-1,1316.0874,28.50837)">
              <path
                 d="m 854.539,-566.262 c 0,0 105.184,0.41 156.246,-2.508"
                 style="fill:none;stroke:#000000;stroke-width:2.61674;stroke-linecap:round;stroke-linejoin:round;stroke-miterlimit:10;stroke-dasharray:none;stroke-opacity:1"
                 id="path1054" />
            </g>
            <g
               id="g1056"
               transform="matrix(1,0,0,-1,1316.0874,28.50837)">
              <path
                 d="m 839.984,-634.719 186.078,-0.828"
                 style="fill:none;stroke:#000000;stroke-width:2.61674;stroke-linecap:round;stroke-linejoin:round;stroke-miterlimit:10;stroke-dasharray:none;stroke-opacity:1"
                 id="path1058" />
            </g>
            <g
               id="g1060"
               transform="matrix(1,0,0,-1,1316.0874,28.50837)">
              <path
                 d="m 888.293,-553.027 c 34.418,1.894 97.465,-0.028 97.465,-0.028"
                 style="fill:none;stroke:#000000;stroke-width:2.61674;stroke-linecap:round;stroke-linejoin:round;stroke-miterlimit:10;stroke-dasharray:none;stroke-opacity:1"
                 id="path1062" />
            </g>
            <g
               id="g1064"
               transform="matrix(1,0,0,-1,1316.0874,28.50837)">
              <path
                 d="m 951.016,-499.27 c 15.605,-14.957 23.57,-36.101 34.742,-53.785"
                 style="fill:none;stroke:#000000;stroke-width:2.61674;stroke-linecap:round;stroke-linejoin:round;stroke-miterlimit:10;stroke-dasharray:none;stroke-opacity:1"
                 id="path1066" />
            </g>
            <g
               id="g1068"
               transform="matrix(1,0,0,-1,1316.0874,28.50837)">
              <path
                 d="m 944.48,-207.023 c 8.469,0.828 23.708,1.984 31.813,-0.52"
                 style="fill:none;stroke:#000000;stroke-width:2.61674;stroke-linecap:round;stroke-linejoin:round;stroke-miterlimit:10;stroke-dasharray:none;stroke-opacity:1"
                 id="path1070" />
            </g>
            <g
               id="g1072"
               transform="matrix(1,0,0,-1,1316.0874,28.50837)">
              <path
                 d="m 948.367,-210.121 c 0.434,-13.25 -1.558,-26.402 -2.672,-39.57"
                 style="fill:none;stroke:#000000;stroke-width:2.61674;stroke-linecap:round;stroke-linejoin:round;stroke-miterlimit:10;stroke-dasharray:none;stroke-opacity:1"
                 id="path1074" />
            </g>
            <g
               id="g1076"
               transform="matrix(1,0,0,-1,1316.0874,28.50837)">
              <path
                 d="m 923.441,-253.016 c 18.575,16.539 37.938,-21.472 15.157,-29.343 -19.055,-5.95 -31.297,16.734 -15.157,29.343"
                 style="fill:none;stroke:#000000;stroke-width:2.61674;stroke-linecap:round;stroke-linejoin:round;stroke-miterlimit:10;stroke-dasharray:none;stroke-opacity:1"
                 id="path1078" />
            </g>
            <g
               id="g1080"
               transform="matrix(1,0,0,-1,1316.0874,28.50837)">
              <path
                 d="m 930.738,-413.188 c -7.183,-10.488 13.254,-0.992 -0.019,-2"
                 style="fill:none;stroke:#000000;stroke-width:2.61674;stroke-linecap:round;stroke-linejoin:round;stroke-miterlimit:10;stroke-dasharray:none;stroke-opacity:1"
                 id="path1082" />
            </g>
            <g
               id="g1084"
               transform="matrix(1,0,0,-1,1316.0874,28.50837)">
              <path
                 d="m 921.754,-355.758 c -18.777,-10.683 -4.684,-40.64 14.973,-38.113 15.828,1.945 22.332,22.191 9.812,32.48"
                 style="fill:none;stroke:#000000;stroke-width:2.61674;stroke-linecap:round;stroke-linejoin:round;stroke-miterlimit:10;stroke-dasharray:none;stroke-opacity:1"
                 id="path1086" />
            </g>
            <g
               id="g1088"
               transform="matrix(1,0,0,-1,1316.0874,28.50837)">
              <path
                 d="m 923.957,-212.16 c -12.137,-17.731 22.617,-9.848 0.297,-0.11"
                 style="fill:none;stroke:#000000;stroke-width:1.26872;stroke-linecap:round;stroke-linejoin:round;stroke-miterlimit:10;stroke-dasharray:none;stroke-opacity:1"
                 id="path1090" />
            </g>
            <g
               id="g1092"
               transform="matrix(1,0,0,-1,1316.0874,28.50837)">
              <path
                 d="m 941.074,-212.938 c -15.504,-6.093 14.035,-20.664 5.727,-3.449 -1.317,1.422 -3.758,3.985 -5.727,3.449"
                 style="fill:none;stroke:#000000;stroke-width:1.26872;stroke-linecap:round;stroke-linejoin:round;stroke-miterlimit:10;stroke-dasharray:none;stroke-opacity:1"
                 id="path1094" />
            </g>
            <g
               id="g1096"
               transform="matrix(1,0,0,-1,1316.0874,28.50837)">
              <path
                 d="m 946.531,-208.891 c -8.765,-1.238 -12.187,3.571 1.59,1.133"
                 style="fill:none;stroke:#000000;stroke-width:1.26872;stroke-linecap:round;stroke-linejoin:round;stroke-miterlimit:10;stroke-dasharray:none;stroke-opacity:1"
                 id="path1098" />
            </g>
            <g
               id="g1100"
               transform="matrix(1,0,0,-1,1316.0874,28.50837)">
              <path
                 d="m 943.668,-205.48 c -6.891,6.089 5.496,5.691 0.812,-1.543"
                 style="fill:none;stroke:#000000;stroke-width:1.26872;stroke-linecap:round;stroke-linejoin:round;stroke-miterlimit:10;stroke-dasharray:none;stroke-opacity:1"
                 id="path1102" />
            </g>
            <g
               id="g1104"
               transform="matrix(1,0,0,-1,1316.0874,28.50837)">
              <path
                 d="m 924.273,-204.562 c 0.418,5.019 2.52,7.07 3.43,0.398"
                 style="fill:none;stroke:#000000;stroke-width:1.26872;stroke-linecap:round;stroke-linejoin:round;stroke-miterlimit:10;stroke-dasharray:none;stroke-opacity:1"
                 id="path1106" />
            </g>
            <g
               id="g1108"
               transform="matrix(1,0,0,-1,1316.0874,28.50837)">
              <path
                 d="m 919.035,-202.98 c 10.117,2.054 9.863,-11.774 -1.441,-10.231"
                 style="fill:none;stroke:#000000;stroke-width:1.26872;stroke-linecap:round;stroke-linejoin:round;stroke-miterlimit:10;stroke-dasharray:none;stroke-opacity:1"
                 id="path1110" />
            </g>
            <g
               id="g1112"
               transform="matrix(1,0,0,-1,1316.0874,28.50837)">
              <path
                 d="m 930.957,-220.766 c 4.938,-9.011 3.695,-18.468 2.289,-28.129"
                 style="fill:none;stroke:#000000;stroke-width:1.26872;stroke-linecap:round;stroke-linejoin:round;stroke-miterlimit:10;stroke-dasharray:none;stroke-opacity:1"
                 id="path1114" />
            </g>
            <g
               id="g1116"
               transform="matrix(1,0,0,-1,1316.0874,28.50837)">
              <path
                 d="m 921.316,-219.059 c 0.539,-9.64 4.379,-19.148 4.489,-28.796"
                 style="fill:none;stroke:#000000;stroke-width:1.26872;stroke-linecap:round;stroke-linejoin:round;stroke-miterlimit:10;stroke-dasharray:none;stroke-opacity:1"
                 id="path1118" />
            </g>
            <g
               id="g1120"
               transform="matrix(1,0,0,-1,1316.0874,28.50837)">
              <path
                 d="m 938.23,-228.184 c 1.196,-7.07 -0.195,-11.453 -0.05,-18.543"
                 style="fill:none;stroke:#000000;stroke-width:1.26872;stroke-linecap:round;stroke-linejoin:round;stroke-miterlimit:10;stroke-dasharray:none;stroke-opacity:1"
                 id="path1122" />
            </g>
            <g
               id="g1124"
               transform="matrix(1,0,0,-1,1316.0874,28.50837)">
              <path
                 d="m 946.953,-226.652 c 0.031,-7.965 -2.043,-15.743 -3.676,-23.481"
                 style="fill:none;stroke:#000000;stroke-width:1.26872;stroke-linecap:round;stroke-linejoin:round;stroke-miterlimit:10;stroke-dasharray:none;stroke-opacity:1"
                 id="path1126" />
            </g>
            <g
               id="g1128"
               transform="matrix(1,0,0,-1,1316.0874,28.50837)">
              <path
                 d="m 900.781,-260.285 c 13.711,1.504 10.949,-17.887 -0.886,-7.883"
                 style="fill:none;stroke:#000000;stroke-width:1.26872;stroke-linecap:round;stroke-linejoin:round;stroke-miterlimit:10;stroke-dasharray:none;stroke-opacity:1"
                 id="path1130" />
            </g>
            <g
               id="g1132"
               transform="matrix(1,0,0,-1,1316.0874,28.50837)">
              <path
                 d="m 898.211,-255.215 c 5.941,-1.695 12.371,0.93 18.18,-1.426"
                 style="fill:none;stroke:#000000;stroke-width:1.26872;stroke-linecap:round;stroke-linejoin:round;stroke-miterlimit:10;stroke-dasharray:none;stroke-opacity:1"
                 id="path1134" />
            </g>
            <g
               id="g1136"
               transform="matrix(1,0,0,-1,1316.0874,28.50837)">
              <path
                 d="m 919.188,-278.359 c 0.015,-0.754 0.218,-3.762 0.304,-4.512"
                 style="fill:none;stroke:#000000;stroke-width:1.26872;stroke-linecap:round;stroke-linejoin:round;stroke-miterlimit:10;stroke-dasharray:none;stroke-opacity:1"
                 id="path1138" />
            </g>
            <g
               id="g1140"
               transform="matrix(1,0,0,-1,1316.0874,28.50837)">
              <path
                 d="m 918.445,-282.645 c -0.011,-0.898 0.961,-2.421 -0.148,-3.156"
                 style="fill:none;stroke:#000000;stroke-width:1.26872;stroke-linecap:round;stroke-linejoin:round;stroke-miterlimit:10;stroke-dasharray:none;stroke-opacity:1"
                 id="path1142" />
            </g>
            <g
               id="g1144"
               transform="matrix(1,0,0,-1,1316.0874,28.50837)">
              <path
                 d="m 894.777,-240.695 7.164,0.215"
                 style="fill:none;stroke:#000000;stroke-width:1.26872;stroke-linecap:round;stroke-linejoin:round;stroke-miterlimit:10;stroke-dasharray:none;stroke-opacity:1"
                 id="path1146" />
            </g>
            <g
               id="g1148"
               transform="matrix(1,0,0,-1,1316.0874,28.50837)">
              <path
                 d="m 951.488,-241.605 c 6.235,0.976 9.141,-0.204 15.145,-1.735"
                 style="fill:none;stroke:#000000;stroke-width:1.26872;stroke-linecap:round;stroke-linejoin:round;stroke-miterlimit:10;stroke-dasharray:none;stroke-opacity:1"
                 id="path1150" />
            </g>
            <g
               id="g1152"
               transform="matrix(1,0,0,-1,1316.0874,28.50837)">
              <path
                 d="m 923.461,-314.98 c 7.594,0.195 15.078,-1.575 22.656,-1.641"
                 style="fill:none;stroke:#000000;stroke-width:1.26872;stroke-linecap:round;stroke-linejoin:round;stroke-miterlimit:10;stroke-dasharray:none;stroke-opacity:1"
                 id="path1154" />
            </g>
            <g
               id="g1156"
               transform="matrix(1,0,0,-1,1316.0874,28.50837)">
              <path
                 d="m 940.598,-310.328 c -0.164,-0.567 2.004,-3.207 -0.063,-3.238"
                 style="fill:none;stroke:#000000;stroke-width:1.26872;stroke-linecap:round;stroke-linejoin:round;stroke-miterlimit:10;stroke-dasharray:none;stroke-opacity:1"
                 id="path1158" />
            </g>
            <g
               id="g1160"
               transform="matrix(1,0,0,-1,1316.0874,28.50837)">
              <path
                 d="m 923.355,-309.781 -0.269,-3.313"
                 style="fill:none;stroke:#000000;stroke-width:1.26872;stroke-linecap:round;stroke-linejoin:round;stroke-miterlimit:10;stroke-dasharray:none;stroke-opacity:1"
                 id="path1162" />
            </g>
            <g
               id="g1164"
               transform="matrix(1,0,0,-1,1316.0874,28.50837)">
              <path
                 d="m 920.352,-323.641 c 1.66,-6.464 0.605,-13.226 -0.434,-19.695"
                 style="fill:none;stroke:#000000;stroke-width:1.26872;stroke-linecap:round;stroke-linejoin:round;stroke-miterlimit:10;stroke-dasharray:none;stroke-opacity:1"
                 id="path1166" />
            </g>
            <g
               id="g1168"
               transform="matrix(1,0,0,-1,1316.0874,28.50837)">
              <path
                 d="m 924.773,-367.754 2.024,0.52"
                 style="fill:none;stroke:#000000;stroke-width:1.26872;stroke-linecap:round;stroke-linejoin:round;stroke-miterlimit:10;stroke-dasharray:none;stroke-opacity:1"
                 id="path1170" />
            </g>
            <g
               id="g1172"
               transform="matrix(1,0,0,-1,1316.0874,28.50837)">
              <path
                 d="m 934.531,-364.879 c 0.223,0.039 1.02,-0.012 1.192,-0.074"
                 style="fill:none;stroke:#000000;stroke-width:1.26872;stroke-linecap:round;stroke-linejoin:round;stroke-miterlimit:10;stroke-dasharray:none;stroke-opacity:1"
                 id="path1174" />
            </g>
            <g
               id="g1176"
               transform="matrix(1,0,0,-1,1316.0874,28.50837)">
              <path
                 d="m 939.922,-370.32 c -0.176,-0.2 2.039,-0.219 0.89,-0.657"
                 style="fill:none;stroke:#000000;stroke-width:1.26872;stroke-linecap:round;stroke-linejoin:round;stroke-miterlimit:10;stroke-dasharray:none;stroke-opacity:1"
                 id="path1178" />
            </g>
            <g
               id="g1180"
               transform="matrix(1,0,0,-1,1316.0874,28.50837)">
              <path
                 d="m 930.605,-372.16 c -10.207,-12.086 17.305,0.652 0,0"
                 style="fill:none;stroke:#000000;stroke-width:1.26872;stroke-linecap:round;stroke-linejoin:round;stroke-miterlimit:10;stroke-dasharray:none;stroke-opacity:1"
                 id="path1182" />
            </g>
            <g
               id="g1184"
               transform="matrix(1,0,0,-1,1316.0874,28.50837)">
              <path
                 d="m 1013.625,-536.602 c -10.996,0.809 -6.105,5.676 2.84,5.446"
                 style="fill:none;stroke:#000000;stroke-width:1.26872;stroke-linecap:round;stroke-linejoin:round;stroke-miterlimit:10;stroke-dasharray:none;stroke-opacity:1"
                 id="path1186" />
            </g>
            <g
               id="g1188"
               transform="matrix(1,0,0,-1,1316.0874,28.50837)">
              <path
                 d="m 1009.477,-559.793 c -7.766,0.836 -8.661,7.113 1.113,5.43"
                 style="fill:none;stroke:#000000;stroke-width:1.26872;stroke-linecap:round;stroke-linejoin:round;stroke-miterlimit:10;stroke-dasharray:none;stroke-opacity:1"
                 id="path1190" />
            </g>
            <g
               id="g1192"
               transform="matrix(1,0,0,-1,1316.0874,28.50837)">
              <path
                 d="m 859.98,-556.242 c 5.79,0.988 13.629,4.996 3.192,4.328"
                 style="fill:none;stroke:#000000;stroke-width:1.26872;stroke-linecap:round;stroke-linejoin:round;stroke-miterlimit:10;stroke-dasharray:none;stroke-opacity:1"
                 id="path1194" />
            </g>
            <g
               id="g1196"
               transform="matrix(1,0,0,-1,1316.0874,28.50837)">
              <path
                 d="m 871.035,-536.094 c 5.274,-2.234 12.078,2.406 1.516,3.824"
                 style="fill:none;stroke:#000000;stroke-width:1.26872;stroke-linecap:round;stroke-linejoin:round;stroke-miterlimit:10;stroke-dasharray:none;stroke-opacity:1"
                 id="path1198" />
            </g>
            <g
               id="g1200"
               transform="matrix(1,0,0,-1,1316.0874,28.50837)">
              <path
                 d="m 910.18,-212.68 c 0.425,-9 1.121,-8.164 1.808,-17.113"
                 style="fill:none;stroke:#000000;stroke-width:1.26872;stroke-linecap:round;stroke-linejoin:round;stroke-miterlimit:10;stroke-dasharray:none;stroke-opacity:1"
                 id="path1202" />
            </g>
            <g
               id="g1204"
               transform="matrix(1,0,0,-1,1316.0874,28.50837)">
              <path
                 d="m 895.234,-212.734 c -0.742,-9.254 -2.019,-18.731 -0.457,-27.961"
                 style="fill:none;stroke:#000000;stroke-width:1.26872;stroke-linecap:round;stroke-linejoin:round;stroke-miterlimit:10;stroke-dasharray:none;stroke-opacity:1"
                 id="path1206" />
            </g>
            <g
               id="g1208"
               transform="matrix(1,0,0,-1,1316.0874,28.50837)">
              <path
                 d="m 956.508,-208.164 c -1.039,-8 -1.926,-16.035 -2.203,-24.106"
                 style="fill:none;stroke:#000000;stroke-width:1.26872;stroke-linecap:round;stroke-linejoin:round;stroke-miterlimit:10;stroke-dasharray:none;stroke-opacity:1"
                 id="path1210" />
            </g>
            <g
               id="g1212"
               transform="matrix(1,0,0,-1,1316.0874,28.50837)">
              <path
                 d="m 960.375,-298.055 c 2.852,-0.332 7.074,1.457 9.43,-0.269"
                 style="fill:none;stroke:#000000;stroke-width:1.26872;stroke-linecap:round;stroke-linejoin:round;stroke-miterlimit:10;stroke-dasharray:none;stroke-opacity:1"
                 id="path1214" />
            </g>
            <g
               id="g1216"
               transform="matrix(1,0,0,-1,1316.0874,28.50837)">
              <path
                 d="m 969.805,-298.324 c 1.918,-5.703 1.547,-13.637 1.086,-19.625"
                 style="fill:none;stroke:#000000;stroke-width:1.26872;stroke-linecap:round;stroke-linejoin:round;stroke-miterlimit:10;stroke-dasharray:none;stroke-opacity:1"
                 id="path1218" />
            </g>
            <g
               id="g1220"
               transform="matrix(1,0,0,-1,1316.0874,28.50837)">
              <path
                 d="m 955.238,-307.137 c -3.011,-7.379 7.2,-14.949 1.574,-21.64"
                 style="fill:none;stroke:#000000;stroke-width:1.26872;stroke-linecap:round;stroke-linejoin:round;stroke-miterlimit:10;stroke-dasharray:none;stroke-opacity:1"
                 id="path1222" />
            </g>
            <g
               id="g1224"
               transform="matrix(1,0,0,-1,1316.0874,28.50837)">
              <path
                 d="m 898.559,-297.992 c 1.535,-6.973 -0.914,-14.696 -1.735,-21.738"
                 style="fill:none;stroke:#000000;stroke-width:1.26872;stroke-linecap:round;stroke-linejoin:round;stroke-miterlimit:10;stroke-dasharray:none;stroke-opacity:1"
                 id="path1226" />
            </g>
            <g
               id="g1228"
               transform="matrix(1,0,0,-1,1316.0874,28.50837)">
              <path
                 d="m 911.625,-306.672 c 1.047,-3.914 1.781,-10.961 0.738,-15.058"
                 style="fill:none;stroke:#000000;stroke-width:1.26872;stroke-linecap:round;stroke-linejoin:round;stroke-miterlimit:10;stroke-dasharray:none;stroke-opacity:1"
                 id="path1230" />
            </g>
            <g
               id="g1232"
               transform="matrix(1,0,0,-1,1316.0874,28.50837)">
              <path
                 d="m 927.418,-312.262 c 9.375,21.996 9.793,1.004 14.457,-0.621 m -14.879,104.832 c 4.793,-0.191 12.824,2.656 17.484,1.028"
                 style="fill:none;stroke:#000000;stroke-width:1.26872;stroke-linecap:round;stroke-linejoin:round;stroke-miterlimit:10;stroke-dasharray:none;stroke-opacity:1"
                 id="path1234" />
            </g>
            <g
               id="g1236"
               transform="matrix(1,0,0,-1,1316.0874,28.50837)">
              <path
                 d="m 922.598,-406.457 c 0,0 -1.34,-14.332 -0.41,-21.477"
                 style="fill:none;stroke:#000000;stroke-width:1.26872;stroke-linecap:round;stroke-linejoin:round;stroke-miterlimit:10;stroke-dasharray:none;stroke-opacity:1"
                 id="path1238" />
            </g>
            <g
               id="g1240"
               transform="matrix(1,0,0,-1,1316.0874,28.50837)">
              <path
                 d="m 922.188,-427.934 c 6.464,0.465 15.41,-1.41 21.507,0.77"
                 style="fill:none;stroke:#000000;stroke-width:1.26872;stroke-linecap:round;stroke-linejoin:round;stroke-miterlimit:10;stroke-dasharray:none;stroke-opacity:1"
                 id="path1242" />
            </g>
            <g
               id="g1244"
               transform="matrix(1,0,0,-1,1316.0874,28.50837)">
              <path
                 d="m 943.367,-427.367 c 2.438,7.89 2.125,24.211 2.125,24.211"
                 style="fill:none;stroke:#000000;stroke-width:1.26872;stroke-linecap:round;stroke-linejoin:round;stroke-miterlimit:10;stroke-dasharray:none;stroke-opacity:1"
                 id="path1246" />
            </g>
          </g>
        </g>
      </g>
    </g>
  </g>
</svg>
