<?xml version="1.0" encoding="UTF-8" standalone="no"?>
<!-- Created by Ashley Blewer - This work is licensed under a Creative Commons Attribution 4.0 International License -->

<svg
   width="544"
   height="480"
   viewBox="0 0 143.93334 127"
   version="1.1"
   id="svg2490"
   inkscape:version="1.2.2 (1:1.2.2+202212051552+b0a8486541)"
   sodipodi:docname="1895-bioscop-4.svg"
   xmlns:inkscape="http://www.inkscape.org/namespaces/inkscape"
   xmlns:sodipodi="http://sodipodi.sourceforge.net/DTD/sodipodi-0.dtd"
   xmlns="http://www.w3.org/2000/svg"
   xmlns:svg="http://www.w3.org/2000/svg">
  <sodipodi:namedview
     id="namedview2492"
     pagecolor="#ffffff"
     bordercolor="#666666"
     borderopacity="1.0"
     inkscape:pageshadow="2"
     inkscape:pageopacity="0.0"
     inkscape:pagecheckerboard="0"
     inkscape:document-units="mm"
     showgrid="false"
     units="px"
     inkscape:zoom="0.90583674"
     inkscape:cx="53.541657"
     inkscape:cy="254.46086"
     inkscape:window-width="1846"
     inkscape:window-height="1136"
     inkscape:window-x="0"
     inkscape:window-y="0"
     inkscape:window-maximized="1"
     inkscape:current-layer="g6718"
     inkscape:showpageshadow="2"
     inkscape:deskcolor="#d1d1d1" />
  <defs
     id="defs2487" />
  <g
     inkscape:label="Layer 1"
     inkscape:groupmode="layer"
     id="layer1">
    <g
       id="g4731"
       transform="matrix(0.32961229,0,0,0.32903008,-241.78905,1.73126)"
       style="stroke-width:2.68698">
      <g
         id="g104528"
         transform="matrix(1,0,0,-1,0,792)"
         style="stroke-width:2.68698">
        <g
           id="g104530"
           style="stroke-width:2.68698" />
      </g>
      <g
         id="g104996"
         transform="matrix(1,0,0,-1,0,792)"
         style="stroke-width:2.68698">
        <g
           id="g104998"
           style="stroke-width:2.68698" />
      </g>
      <g
         id="g28852"
         transform="matrix(1.070281,0,0,1.0721748,779.91249,-443.13657)">
        <g
           id="g6718"
           transform="matrix(1.117886,0,0,1.117886,-549.13111,-491.62865)">
          <g
             id="g5576"
             transform="matrix(1.0405266,0,0,1.0405266,-1275.5386,331.63105)">
            <g
               id="g1704"
               transform="matrix(1,0,0,-1,1316.0874,28.50837)">
              <path
                 d="m 536.965,-476.359 c -19.711,-6.266 -25.156,-21.559 -23.5,-36.903 2.926,-17.043 15.937,-34.019 34.648,-33.418 18.285,-0.933 35.184,15.098 37.141,32.809 0.031,15.641 -4.926,34.113 -20.098,41.664 -9.254,2.398 -19.625,-0.523 -28.191,-4.152"
                 style="fill:none;stroke:#000000;stroke-width:2.61674;stroke-linecap:round;stroke-linejoin:round;stroke-miterlimit:10;stroke-dasharray:none;stroke-opacity:1"
                 id="path1706" />
            </g>
            <g
               id="g1708"
               transform="matrix(1,0,0,-1,1316.0874,28.50837)">
              <path
                 d="m 573.441,-478.082 c -3.461,2.937 -0.445,19.844 -4.152,24.848"
                 style="fill:none;stroke:#000000;stroke-width:2.61674;stroke-linecap:round;stroke-linejoin:round;stroke-miterlimit:10;stroke-dasharray:none;stroke-opacity:1"
                 id="path1710" />
            </g>
            <g
               id="g1712"
               transform="matrix(1,0,0,-1,1316.0874,28.50837)">
              <path
                 d="m 569.289,-453.234 c -6.832,4.476 -7.953,12.441 -22.359,5.914"
                 style="fill:none;stroke:#000000;stroke-width:2.61674;stroke-linecap:round;stroke-linejoin:round;stroke-miterlimit:10;stroke-dasharray:none;stroke-opacity:1"
                 id="path1714" />
            </g>
            <g
               id="g1716"
               transform="matrix(1,0,0,-1,1316.0874,28.50837)">
              <path
                 d="m 563.211,-448.309 c 0,0 -33.691,0.504 -45.754,1.309"
                 style="fill:none;stroke:#000000;stroke-width:2.61674;stroke-linecap:round;stroke-linejoin:round;stroke-miterlimit:10;stroke-dasharray:none;stroke-opacity:1"
                 id="path1718" />
            </g>
            <g
               id="g1720"
               transform="matrix(1,0,0,-1,1316.0874,28.50837)">
              <path
                 d="m 517.457,-447 c -8.687,10.41 -25.637,0.973 -37.055,1.031"
                 style="fill:none;stroke:#000000;stroke-width:2.61674;stroke-linecap:round;stroke-linejoin:round;stroke-miterlimit:10;stroke-dasharray:none;stroke-opacity:1"
                 id="path1722" />
            </g>
            <g
               id="g1724"
               transform="matrix(1,0,0,-1,1316.0874,28.50837)">
              <path
                 d="m 505.926,-443.461 c 5.582,-6.684 3.004,-22.402 4.812,-31.394"
                 style="fill:none;stroke:#000000;stroke-width:2.61674;stroke-linecap:round;stroke-linejoin:round;stroke-miterlimit:10;stroke-dasharray:none;stroke-opacity:1"
                 id="path1726" />
            </g>
            <g
               id="g1728"
               transform="matrix(1,0,0,-1,1316.0874,28.50837)">
              <path
                 d="m 480.402,-445.969 c -4.582,-6.222 -9.437,-28.808 -7.136,-33.422"
                 style="fill:none;stroke:#000000;stroke-width:2.61674;stroke-linecap:round;stroke-linejoin:round;stroke-miterlimit:10;stroke-dasharray:none;stroke-opacity:1"
                 id="path1730" />
            </g>
            <g
               id="g1732"
               transform="matrix(1,0,0,-1,1316.0874,28.50837)">
              <path
                 d="m 478.52,-453.977 c 1.078,-0.257 14.996,1.379 13.418,0.864"
                 style="fill:none;stroke:#000000;stroke-width:2.61674;stroke-linecap:round;stroke-linejoin:round;stroke-miterlimit:10;stroke-dasharray:none;stroke-opacity:1"
                 id="path1734" />
            </g>
            <g
               id="g1736"
               transform="matrix(1,0,0,-1,1316.0874,28.50837)">
              <path
                 d="m 493.758,-446.766 c -0.192,-16.254 -1.051,-32.515 0.012,-48.726 0.738,-11.86 0.824,-35.008 2.742,-39.789"
                 style="fill:none;stroke:#000000;stroke-width:2.61674;stroke-linecap:round;stroke-linejoin:round;stroke-miterlimit:10;stroke-dasharray:none;stroke-opacity:1"
                 id="path1738" />
            </g>
            <g
               id="g1740"
               transform="matrix(1,0,0,-1,1316.0874,28.50837)">
              <path
                 d="m 473.266,-479.391 c 6.941,-0.988 13.082,0.789 20.097,0.43"
                 style="fill:none;stroke:#000000;stroke-width:2.61674;stroke-linecap:round;stroke-linejoin:round;stroke-miterlimit:10;stroke-dasharray:none;stroke-opacity:1"
                 id="path1742" />
            </g>
            <g
               id="g1744"
               transform="matrix(1,0,0,-1,1316.0874,28.50837)">
              <path
                 d="m 473.266,-479.391 c 2.058,-12.683 -3.993,-35.937 -1.625,-50.39 -3.235,-12.227 19.25,-14.91 22.882,-17.844"
                 style="fill:none;stroke:#000000;stroke-width:2.61674;stroke-linecap:round;stroke-linejoin:round;stroke-miterlimit:10;stroke-dasharray:none;stroke-opacity:1"
                 id="path1746" />
            </g>
            <g
               id="g1748"
               transform="matrix(1,0,0,-1,1316.0874,28.50837)">
              <path
                 d="m 472.508,-488.664 c -11.973,3.644 -9.086,-27.16 -1.332,-29.176"
                 style="fill:none;stroke:#000000;stroke-width:2.61674;stroke-linecap:round;stroke-linejoin:round;stroke-miterlimit:10;stroke-dasharray:none;stroke-opacity:1"
                 id="path1750" />
            </g>
            <g
               id="g1752"
               transform="matrix(1,0,0,-1,1316.0874,28.50837)">
              <path
                 d="m 536.477,-515.879 c -4.821,11.43 15.941,35.477 20.921,16.098 0.094,-1.739 3.672,-7.262 1.489,-8.481"
                 style="fill:none;stroke:#000000;stroke-width:2.61674;stroke-linecap:round;stroke-linejoin:round;stroke-miterlimit:10;stroke-dasharray:none;stroke-opacity:1"
                 id="path1754" />
            </g>
            <g
               id="g1756"
               transform="matrix(1,0,0,-1,1316.0874,28.50837)">
              <path
                 d="m 575.719,-496.289 c -7.528,-8.68 -21.774,-13.727 -33.071,-18.371 -5.91,-1.524 -13.441,-5.875 -18.687,-5.559"
                 style="fill:none;stroke:#000000;stroke-width:2.61674;stroke-linecap:round;stroke-linejoin:round;stroke-miterlimit:10;stroke-dasharray:none;stroke-opacity:1"
                 id="path1758" />
            </g>
            <g
               id="g1760"
               transform="matrix(1,0,0,-1,1316.0874,28.50837)">
              <path
                 d="m 575.719,-496.289 c -3.086,7.535 -12.379,-3.313 -11.024,-6.883"
                 style="fill:none;stroke:#000000;stroke-width:2.61674;stroke-linecap:round;stroke-linejoin:round;stroke-miterlimit:10;stroke-dasharray:none;stroke-opacity:1"
                 id="path1762" />
            </g>
            <g
               id="g1764"
               transform="matrix(1,0,0,-1,1316.0874,28.50837)">
              <path
                 d="m 514.07,-492.523 c -4.453,1.636 -2.519,-8.239 -2.211,-6.727"
                 style="fill:none;stroke:#000000;stroke-width:2.61674;stroke-linecap:round;stroke-linejoin:round;stroke-miterlimit:10;stroke-dasharray:none;stroke-opacity:1"
                 id="path1766" />
            </g>
            <g
               id="g1768"
               transform="matrix(1,0,0,-1,1316.0874,28.50837)">
              <path
                 d="m 531.414,-459.684 c -7.348,-6.812 11.34,-3.91 0,0 l -0.019,-0.211"
                 style="fill:none;stroke:#000000;stroke-width:2.61674;stroke-linecap:round;stroke-linejoin:round;stroke-miterlimit:10;stroke-dasharray:none;stroke-opacity:1"
                 id="path1770" />
            </g>
            <g
               id="g1772"
               transform="matrix(1,0,0,-1,1316.0874,28.50837)">
              <path
                 d="m 550.559,-459.32 c -11.059,-3.524 8.238,-9.61 0,0"
                 style="fill:none;stroke:#000000;stroke-width:2.61674;stroke-linecap:round;stroke-linejoin:round;stroke-miterlimit:10;stroke-dasharray:none;stroke-opacity:1"
                 id="path1774" />
            </g>
            <g
               id="g1776"
               transform="matrix(1,0,0,-1,1316.0874,28.50837)">
              <path
                 d="m 556.613,-545.914 c 0.282,-15.777 8.801,-38.715 6.418,-54.449 -0.746,-18.414 -25.668,-36.754 -40.359,-20.051 -6.875,15.352 -3.406,32.324 -0.016,47.848 0,0 7.836,30.765 7.266,31.543"
                 style="fill:none;stroke:#000000;stroke-width:2.61674;stroke-linecap:round;stroke-linejoin:round;stroke-miterlimit:10;stroke-dasharray:none;stroke-opacity:1"
                 id="path1778" />
            </g>
            <g
               id="g1780"
               transform="matrix(1,0,0,-1,1316.0874,28.50837)">
              <path
                 d="m 542.734,-594.27 c -2.132,-0.996 -4.586,-2.066 -5.57,-4.378 -0.504,-2.133 1.707,-3.575 3.441,-4.192 2.547,-0.945 5.594,-1.359 8.098,-0.09 1.828,1.039 1.512,3.364 0.664,4.942 -0.769,2.023 -3.222,2.008 -4.859,2.957 -0.59,0.258 -1.18,0.515 -1.774,0.761 z"
                 style="fill:none;stroke:#000000;stroke-width:2.61674;stroke-linecap:round;stroke-linejoin:round;stroke-miterlimit:10;stroke-dasharray:none;stroke-opacity:1"
                 id="path1782" />
            </g>
            <g
               id="g1784"
               transform="matrix(1,0,0,-1,1316.0874,28.50837)">
              <path
                 d="m 563.359,-597.238 c 2.621,8.804 -12.761,24.672 -27.582,19.144 -8.574,-3.707 -15.683,-14.867 -15.683,-14.867"
                 style="fill:none;stroke:#000000;stroke-width:2.61674;stroke-linecap:round;stroke-linejoin:round;stroke-miterlimit:10;stroke-dasharray:none;stroke-opacity:1"
                 id="path1786" />
            </g>
            <g
               id="g1788"
               transform="matrix(1,0,0,-1,1316.0874,28.50837)">
              <path
                 d="m 483.879,-543.773 c 1.656,-1.965 12.527,-32.727 9.328,-25.649"
                 style="fill:none;stroke:#000000;stroke-width:2.61674;stroke-linecap:round;stroke-linejoin:round;stroke-miterlimit:10;stroke-dasharray:none;stroke-opacity:1"
                 id="path1790" />
            </g>
            <g
               id="g1792"
               transform="matrix(1,0,0,-1,1316.0874,28.50837)">
              <path
                 d="m 494.523,-547.625 c 4.016,-5.406 8.536,-20.305 10.172,-23.633"
                 style="fill:none;stroke:#000000;stroke-width:2.61674;stroke-linecap:round;stroke-linejoin:round;stroke-miterlimit:10;stroke-dasharray:none;stroke-opacity:1"
                 id="path1794" />
            </g>
            <g
               id="g1796"
               transform="matrix(1,0,0,-1,1316.0874,28.50837)">
              <path
                 d="m 493.207,-569.422 c 1.844,-43.23 2.586,-108.152 4.406,-151.039"
                 style="fill:none;stroke:#000000;stroke-width:2.61674;stroke-linecap:round;stroke-linejoin:round;stroke-miterlimit:10;stroke-dasharray:none;stroke-opacity:1"
                 id="path1798" />
            </g>
            <g
               id="g1800"
               transform="matrix(1,0,0,-1,1316.0874,28.50837)">
              <path
                 d="m 560.027,-611.891 c -5.175,-21.339 -9.117,-59.906 -13.382,-81.515 l 1.363,-25.746"
                 style="fill:none;stroke:#000000;stroke-width:2.61674;stroke-linecap:round;stroke-linejoin:round;stroke-miterlimit:10;stroke-dasharray:none;stroke-opacity:1"
                 id="path1802" />
            </g>
            <g
               id="g1804"
               transform="matrix(1,0,0,-1,1316.0874,28.50837)">
              <path
                 d="m 504.695,-571.258 c -2.125,-28.648 2.641,-66.894 4.797,-95.554 1.758,-14.043 3.156,-44.586 4.899,-53.649"
                 style="fill:none;stroke:#000000;stroke-width:2.61674;stroke-linecap:round;stroke-linejoin:round;stroke-miterlimit:10;stroke-dasharray:none;stroke-opacity:1"
                 id="path1806" />
            </g>
            <g
               id="g1808"
               transform="matrix(1,0,0,-1,1316.0874,28.50837)">
              <path
                 d="m 515.945,-494.906 c -5.593,0.953 -4.738,-5.02 -4.386,-7.555"
                 style="fill:none;stroke:#000000;stroke-width:2.61674;stroke-linecap:round;stroke-linejoin:round;stroke-miterlimit:10;stroke-dasharray:none;stroke-opacity:1"
                 id="path1810" />
            </g>
          </g>
        </g>
      </g>
    </g>
  </g>
</svg>
