<?xml version="1.0" encoding="UTF-8" standalone="no"?>
<!-- Created by Ashley Blewer - This work is licensed under a Creative Commons Attribution 4.0 International License -->

<svg
   width="544"
   height="480"
   viewBox="0 0 143.93334 127"
   version="1.1"
   id="svg2490"
   inkscape:version="1.2.2 (1:1.2.2+202212051552+b0a8486541)"
   sodipodi:docname="1895-bioscop-1.svg"
   xmlns:inkscape="http://www.inkscape.org/namespaces/inkscape"
   xmlns:sodipodi="http://sodipodi.sourceforge.net/DTD/sodipodi-0.dtd"
   xmlns="http://www.w3.org/2000/svg"
   xmlns:svg="http://www.w3.org/2000/svg">
  <sodipodi:namedview
     id="namedview2492"
     pagecolor="#ffffff"
     bordercolor="#666666"
     borderopacity="1.0"
     inkscape:pageshadow="2"
     inkscape:pageopacity="0.0"
     inkscape:pagecheckerboard="0"
     inkscape:document-units="mm"
     showgrid="false"
     units="px"
     inkscape:zoom="0.90583674"
     inkscape:cx="53.541657"
     inkscape:cy="254.46086"
     inkscape:window-width="1846"
     inkscape:window-height="1136"
     inkscape:window-x="0"
     inkscape:window-y="0"
     inkscape:window-maximized="1"
     inkscape:current-layer="g6718"
     inkscape:showpageshadow="2"
     inkscape:deskcolor="#d1d1d1" />
  <defs
     id="defs2487" />
  <g
     inkscape:label="Layer 1"
     inkscape:groupmode="layer"
     id="layer1">
    <g
       id="g4731"
       transform="matrix(0.32961229,0,0,0.32903008,-241.78905,1.73126)"
       style="stroke-width:2.68698">
      <g
         id="g104528"
         transform="matrix(1,0,0,-1,0,792)"
         style="stroke-width:2.68698">
        <g
           id="g104530"
           style="stroke-width:2.68698" />
      </g>
      <g
         id="g104996"
         transform="matrix(1,0,0,-1,0,792)"
         style="stroke-width:2.68698">
        <g
           id="g104998"
           style="stroke-width:2.68698" />
      </g>
      <g
         id="g28852"
         transform="matrix(1.070281,0,0,1.0721748,779.91249,-443.13657)">
        <g
           id="g6718"
           transform="matrix(1.117886,0,0,1.117886,-549.13111,-491.62865)">
          <g
             id="g5438"
             transform="matrix(1.0463617,0,0,1.0463617,-1179.6733,676.16071)">
            <g
               id="g1248"
               transform="matrix(1,0,0,-1,1316.0874,28.50837)">
              <path
                 d="m 332.008,-137.164 c 0.008,2.266 -1.067,17.57 -0.606,20.926"
                 style="fill:none;stroke:#000000;stroke-width:2.61674;stroke-linecap:round;stroke-linejoin:round;stroke-miterlimit:10;stroke-dasharray:none;stroke-opacity:1"
                 id="path1250" />
            </g>
            <g
               id="g1252"
               transform="matrix(1,0,0,-1,1316.0874,28.50837)">
              <path
                 d="m 331.402,-116.238 c 12.735,0.73 33.489,1.226 46.723,3.383"
                 style="fill:none;stroke:#000000;stroke-width:2.61674;stroke-linecap:round;stroke-linejoin:round;stroke-miterlimit:10;stroke-dasharray:none;stroke-opacity:1"
                 id="path1254" />
            </g>
            <g
               id="g1256"
               transform="matrix(1,0,0,-1,1316.0874,28.50837)">
              <path
                 d="m 378.125,-112.855 c 20.695,-3.665 41.816,-2.083 62.711,-3.415 l 0.078,-0.488"
                 style="fill:none;stroke:#000000;stroke-width:2.61674;stroke-linecap:round;stroke-linejoin:round;stroke-miterlimit:10;stroke-dasharray:none;stroke-opacity:1"
                 id="path1258" />
            </g>
            <g
               id="g1260"
               transform="matrix(1,0,0,-1,1316.0874,28.50837)">
              <path
                 d="m 441.43,-117.387 c 0.379,-5.527 -0.071,-12.847 -0.278,-18.304"
                 style="fill:none;stroke:#000000;stroke-width:2.61674;stroke-linecap:round;stroke-linejoin:round;stroke-miterlimit:10;stroke-dasharray:none;stroke-opacity:1"
                 id="path1262" />
            </g>
            <g
               id="g1264"
               transform="matrix(1,0,0,-1,1316.0874,28.50837)">
              <path
                 d="m 332.008,-137.164 c 13.121,1.094 30.844,1.84 41.332,1.648"
                 style="fill:none;stroke:#000000;stroke-width:2.61674;stroke-linecap:round;stroke-linejoin:round;stroke-miterlimit:10;stroke-dasharray:none;stroke-opacity:1"
                 id="path1266" />
            </g>
            <g
               id="g1268"
               transform="matrix(1,0,0,-1,1316.0874,28.50837)">
              <path
                 d="m 378.461,-114.887 c 1.73,-6.851 0.367,-14.472 0.035,-21.418"
                 style="fill:none;stroke:#000000;stroke-width:2.61674;stroke-linecap:round;stroke-linejoin:round;stroke-miterlimit:10;stroke-dasharray:none;stroke-opacity:1"
                 id="path1270" />
            </g>
            <g
               id="g1272"
               transform="matrix(1,0,0,-1,1316.0874,28.50837)">
              <path
                 d="m 428.961,-138.121 c 0.363,3.465 14.508,0.375 12.191,2.43"
                 style="fill:none;stroke:#000000;stroke-width:2.61674;stroke-linecap:round;stroke-linejoin:round;stroke-miterlimit:10;stroke-dasharray:none;stroke-opacity:1"
                 id="path1274" />
            </g>
            <g
               id="g1276"
               transform="matrix(1,0,0,-1,1316.0874,28.50837)">
              <path
                 d="m 428.961,-138.121 c -0.219,-10.219 4.008,-27.797 0.984,-36.371"
                 style="fill:none;stroke:#000000;stroke-width:2.61674;stroke-linecap:round;stroke-linejoin:round;stroke-miterlimit:10;stroke-dasharray:none;stroke-opacity:1"
                 id="path1278" />
            </g>
            <g
               id="g1280"
               transform="matrix(1,0,0,-1,1316.0874,28.50837)">
              <path
                 d="m 342.797,-139.895 c 0.441,-11.363 -0.543,-25.613 -0.887,-35.453"
                 style="fill:none;stroke:#000000;stroke-width:2.61674;stroke-linecap:round;stroke-linejoin:round;stroke-miterlimit:10;stroke-dasharray:none;stroke-opacity:1"
                 id="path1282" />
            </g>
            <g
               id="g1284"
               transform="matrix(1,0,0,-1,1316.0874,28.50837)">
              <path
                 d="m 317.645,-178.887 c 15.562,0.668 43.82,0.473 60.437,-0.101 4.461,-0.192 6.426,3.797 8.941,3.086"
                 style="fill:none;stroke:#000000;stroke-width:2.61674;stroke-linecap:round;stroke-linejoin:round;stroke-miterlimit:10;stroke-dasharray:none;stroke-opacity:1"
                 id="path1286" />
            </g>
            <g
               id="g1288"
               transform="matrix(1,0,0,-1,1316.0874,28.50837)">
              <path
                 d="m 387.023,-175.902 c 17.258,1.554 40.145,-1.457 57.411,-0.168"
                 style="fill:none;stroke:#000000;stroke-width:2.61674;stroke-linecap:round;stroke-linejoin:round;stroke-miterlimit:10;stroke-dasharray:none;stroke-opacity:1"
                 id="path1290" />
            </g>
            <g
               id="g1292"
               transform="matrix(1,0,0,-1,1316.0874,28.50837)">
              <path
                 d="m 444.434,-176.07 c 2.386,8.234 -4.7,19.871 1.511,26.73"
                 style="fill:none;stroke:#000000;stroke-width:2.61674;stroke-linecap:round;stroke-linejoin:round;stroke-miterlimit:10;stroke-dasharray:none;stroke-opacity:1"
                 id="path1294" />
            </g>
            <g
               id="g1296"
               transform="matrix(1,0,0,-1,1316.0874,28.50837)">
              <path
                 d="m 445.945,-149.34 c 3.086,1.703 15.407,-0.082 17.758,1"
                 style="fill:none;stroke:#000000;stroke-width:2.61674;stroke-linecap:round;stroke-linejoin:round;stroke-miterlimit:10;stroke-dasharray:none;stroke-opacity:1"
                 id="path1298" />
            </g>
            <g
               id="g1300"
               transform="matrix(1,0,0,-1,1316.0874,28.50837)">
              <path
                 d="m 453.582,-174.641 c -5.441,15.067 14.555,40.528 21.207,17.102 -1.961,-19.988 0.785,-40.344 -2.109,-60.301 -4.735,-0.082 -16.348,0.973 -20.043,4.305"
                 style="fill:none;stroke:#000000;stroke-width:2.61674;stroke-linecap:round;stroke-linejoin:round;stroke-miterlimit:10;stroke-dasharray:none;stroke-opacity:1"
                 id="path1302" />
            </g>
            <g
               id="g1304"
               transform="matrix(1,0,0,-1,1316.0874,28.50837)">
              <path
                 d="m 453.582,-174.641 c 0.223,-10.222 -2.152,-30.25 -0.945,-38.894"
                 style="fill:none;stroke:#000000;stroke-width:2.61674;stroke-linecap:round;stroke-linejoin:round;stroke-miterlimit:10;stroke-dasharray:none;stroke-opacity:1"
                 id="path1306" />
            </g>
            <g
               id="g1308"
               transform="matrix(1,0,0,-1,1316.0874,28.50837)">
              <path
                 d="m 472.305,-151.23 c 13.847,5.468 13.871,-2.856 13.414,-12.028"
                 style="fill:none;stroke:#000000;stroke-width:2.61674;stroke-linecap:round;stroke-linejoin:round;stroke-miterlimit:10;stroke-dasharray:none;stroke-opacity:1"
                 id="path1310" />
            </g>
            <g
               id="g1312"
               transform="matrix(1,0,0,-1,1316.0874,28.50837)">
              <path
                 d="m 485.719,-163.258 c 5.57,-10.769 25.941,-2.422 7.347,0.16 -1.859,-0.621 -6.023,-1.371 -7.347,-0.16"
                 style="fill:none;stroke:#000000;stroke-width:2.61674;stroke-linecap:round;stroke-linejoin:round;stroke-miterlimit:10;stroke-dasharray:none;stroke-opacity:1"
                 id="path1314" />
            </g>
            <g
               id="g1316"
               transform="matrix(1,0,0,-1,1316.0874,28.50837)">
              <path
                 d="m 493.066,-163.098 c -4.933,7.789 11.442,23.875 13.399,6.946 0.187,-1.746 0.094,-9.934 -0.672,-10.606"
                 style="fill:none;stroke:#000000;stroke-width:2.61674;stroke-linecap:round;stroke-linejoin:round;stroke-miterlimit:10;stroke-dasharray:none;stroke-opacity:1"
                 id="path1318" />
            </g>
            <g
               id="g1320"
               transform="matrix(1,0,0,-1,1316.0874,28.50837)">
              <path
                 d="m 505.793,-166.758 c 8.93,-2.617 1.23,-25.004 4.133,-34.047 1.129,-3.269 -0.731,-9.929 0.531,-11.422"
                 style="fill:none;stroke:#000000;stroke-width:2.61674;stroke-linecap:round;stroke-linejoin:round;stroke-miterlimit:10;stroke-dasharray:none;stroke-opacity:1"
                 id="path1322" />
            </g>
            <g
               id="g1324"
               transform="matrix(1,0,0,-1,1316.0874,28.50837)">
              <path
                 d="m 510.094,-213.711 c -0.211,-6.027 1.875,-13.062 0.562,-18.629"
                 style="fill:none;stroke:#000000;stroke-width:2.61674;stroke-linecap:round;stroke-linejoin:round;stroke-miterlimit:10;stroke-dasharray:none;stroke-opacity:1"
                 id="path1326" />
            </g>
            <g
               id="g1328"
               transform="matrix(1,0,0,-1,1316.0874,28.50837)">
              <path
                 d="m 375.758,-114.922 c 1.148,-5.215 3.285,-13.109 1.441,-17.683"
                 style="fill:none;stroke:#000000;stroke-width:2.61674;stroke-linecap:round;stroke-linejoin:round;stroke-miterlimit:10;stroke-dasharray:none;stroke-opacity:1"
                 id="path1330" />
            </g>
            <g
               id="g1332"
               transform="matrix(1,0,0,-1,1316.0874,28.50837)">
              <path
                 d="m 338.594,-137.309 c 9.933,-0.379 26.722,4.911 38.844,2.469"
                 style="fill:none;stroke:#000000;stroke-width:2.61674;stroke-linecap:round;stroke-linejoin:round;stroke-miterlimit:10;stroke-dasharray:none;stroke-opacity:1"
                 id="path1334" />
            </g>
            <g
               id="g1336"
               transform="matrix(1,0,0,-1,1316.0874,28.50837)">
              <path
                 d="m 343.184,-141 c 7.066,1.613 34.054,-7.551 29.933,4.871"
                 style="fill:none;stroke:#000000;stroke-width:2.61674;stroke-linecap:round;stroke-linejoin:round;stroke-miterlimit:10;stroke-dasharray:none;stroke-opacity:1"
                 id="path1338" />
            </g>
            <g
               id="g1340"
               transform="matrix(1,0,0,-1,1316.0874,28.50837)">
              <path
                 d="m 376.871,-113.953 c 1.777,-9.473 1.172,-21.457 1.289,-29.555"
                 style="fill:none;stroke:#000000;stroke-width:2.61674;stroke-linecap:round;stroke-linejoin:round;stroke-miterlimit:10;stroke-dasharray:none;stroke-opacity:1"
                 id="path1342" />
            </g>
            <g
               id="g1344"
               transform="matrix(1,0,0,-1,1316.0874,28.50837)">
              <path
                 d="m 384.234,-116.02 c 1.567,-18.718 -0.074,-37.308 2.442,-55.984 -0.008,3.734 -0.496,-9.508 0.347,-3.898"
                 style="fill:none;stroke:#000000;stroke-width:2.61674;stroke-linecap:round;stroke-linejoin:round;stroke-miterlimit:10;stroke-dasharray:none;stroke-opacity:1"
                 id="path1346" />
            </g>
            <g
               id="g1348"
               transform="matrix(1,0,0,-1,1316.0874,28.50837)">
              <path
                 d="m 412.75,-117.293 c 3.66,-20.473 -0.883,-41.891 5.805,-61.906 -0.078,-0.66 -1.246,-0.977 -1.43,-0.242"
                 style="fill:none;stroke:#000000;stroke-width:2.61674;stroke-linecap:round;stroke-linejoin:round;stroke-miterlimit:10;stroke-dasharray:none;stroke-opacity:1"
                 id="path1350" />
            </g>
            <g
               id="g1352"
               transform="matrix(1,0,0,-1,1316.0874,28.50837)">
              <path
                 d="m 375.602,-119.977 c 3.152,-19.789 -1.391,-38.273 2.445,-58"
                 style="fill:none;stroke:#000000;stroke-width:2.61674;stroke-linecap:round;stroke-linejoin:round;stroke-miterlimit:10;stroke-dasharray:none;stroke-opacity:1"
                 id="path1354" />
            </g>
            <g
               id="g1356"
               transform="matrix(1,0,0,-1,1316.0874,28.50837)">
              <path
                 d="m 387.023,-175.902 c 2.504,-37.875 -0.492,-83.817 -0.558,-121.754 l -0.336,-2.992 -0.453,-5.036"
                 style="fill:none;stroke:#000000;stroke-width:2.61674;stroke-linecap:round;stroke-linejoin:round;stroke-miterlimit:10;stroke-dasharray:none;stroke-opacity:1"
                 id="path1358" />
            </g>
            <g
               id="g1360"
               transform="matrix(1,0,0,-1,1316.0874,28.50837)">
              <path
                 d="m 386.441,-318.238 c 0.02,-7.961 2.004,-23.16 1.852,-26.735"
                 style="fill:none;stroke:#000000;stroke-width:2.61674;stroke-linecap:round;stroke-linejoin:round;stroke-miterlimit:10;stroke-dasharray:none;stroke-opacity:1"
                 id="path1362" />
            </g>
            <g
               id="g1364"
               transform="matrix(1,0,0,-1,1316.0874,28.50837)">
              <path
                 d="m 417.125,-179.441 c -0.891,-32.668 1.797,-68.985 0.789,-101.614"
                 style="fill:none;stroke:#000000;stroke-width:2.61674;stroke-linecap:round;stroke-linejoin:round;stroke-miterlimit:10;stroke-dasharray:none;stroke-opacity:1"
                 id="path1366" />
            </g>
            <g
               id="g1368"
               transform="matrix(1,0,0,-1,1316.0874,28.50837)">
              <path
                 d="m 317.645,-178.887 c 2.207,-26.933 0.617,-49.371 -0.282,-75.179"
                 style="fill:none;stroke:#000000;stroke-width:2.61674;stroke-linecap:round;stroke-linejoin:round;stroke-miterlimit:10;stroke-dasharray:none;stroke-opacity:1"
                 id="path1370" />
            </g>
            <g
               id="g1372"
               transform="matrix(1,0,0,-1,1316.0874,28.50837)">
              <path
                 d="m 317.359,-254.066 c -0.445,-10.004 -5.043,-28.973 -1.757,-37.344"
                 style="fill:none;stroke:#000000;stroke-width:2.61674;stroke-linecap:round;stroke-linejoin:round;stroke-miterlimit:10;stroke-dasharray:none;stroke-opacity:1"
                 id="path1374" />
            </g>
            <g
               id="g1376"
               transform="matrix(1,0,0,-1,1316.0874,28.50837)">
              <path
                 d="m 355.348,-350.441 c -11.422,10.05 -23.387,30.429 -22.348,48.367 -1.172,16.023 12.789,32.308 28.98,30.113"
                 style="fill:none;stroke:#000000;stroke-width:2.61674;stroke-linecap:round;stroke-linejoin:round;stroke-miterlimit:10;stroke-dasharray:none;stroke-opacity:1"
                 id="path1378" />
            </g>
            <g
               id="g1380"
               transform="matrix(1,0,0,-1,1316.0874,28.50837)">
              <path
                 d="m 397.223,-304.059 c 4.488,16.52 23.339,31.739 39.636,19.805 15.032,-10.949 24.473,-30.016 25.188,-48.578 1.305,-18.199 -3.137,-38.824 -20.156,-48.496 -18.321,-2.164 -35.215,13.601 -40.317,30.348 -3.23,9.253 -8.097,24.671 -6.183,31.23"
                 style="fill:none;stroke:#000000;stroke-width:2.61674;stroke-linecap:round;stroke-linejoin:round;stroke-miterlimit:10;stroke-dasharray:none;stroke-opacity:1"
                 id="path1382" />
            </g>
            <g
               id="g1384"
               transform="matrix(1,0,0,-1,1316.0874,28.50837)">
              <path
                 d="m 373.094,-306.809 c 7.164,1.418 22.113,2.016 25.168,2.25"
                 style="fill:none;stroke:#000000;stroke-width:2.61674;stroke-linecap:round;stroke-linejoin:round;stroke-miterlimit:10;stroke-dasharray:none;stroke-opacity:1"
                 id="path1386" />
            </g>
            <g
               id="g1388"
               transform="matrix(1,0,0,-1,1316.0874,28.50837)">
              <path
                 d="m 373.094,-306.809 c -18.215,-6.046 5.933,-17.828 0,0"
                 style="fill:none;stroke:#000000;stroke-width:2.61674;stroke-linecap:round;stroke-linejoin:round;stroke-miterlimit:10;stroke-dasharray:none;stroke-opacity:1"
                 id="path1390" />
            </g>
            <g
               id="g1392"
               transform="matrix(1,0,0,-1,1316.0874,28.50837)">
              <path
                 d="m 370.672,-316.176 c 8.363,-0.804 23.219,-1.035 28.773,-0.851"
                 style="fill:none;stroke:#000000;stroke-width:2.61674;stroke-linecap:round;stroke-linejoin:round;stroke-miterlimit:10;stroke-dasharray:none;stroke-opacity:1"
                 id="path1394" />
            </g>
            <g
               id="g1396"
               transform="matrix(1,0,0,-1,1316.0874,28.50837)">
              <path
                 d="m 398.262,-304.559 c 4.426,-3.48 5.601,-8.679 1.183,-12.468"
                 style="fill:none;stroke:#000000;stroke-width:2.61674;stroke-linecap:round;stroke-linejoin:round;stroke-miterlimit:10;stroke-dasharray:none;stroke-opacity:1"
                 id="path1398" />
            </g>
            <g
               id="g1400"
               transform="matrix(1,0,0,-1,1316.0874,28.50837)">
              <path
                 d="m 404.441,-301.887 c -0.027,4.094 10.829,14.539 16.844,12.856"
                 style="fill:none;stroke:#000000;stroke-width:2.61674;stroke-linecap:round;stroke-linejoin:round;stroke-miterlimit:10;stroke-dasharray:none;stroke-opacity:1"
                 id="path1402" />
            </g>
            <g
               id="g1404"
               transform="matrix(1,0,0,-1,1316.0874,28.50837)">
              <path
                 d="m 421.285,-289.031 c -7.191,-8.828 7.199,-46.414 -11.269,-30.578 -2.141,4.765 -5.547,12.347 -5.575,17.722"
                 style="fill:none;stroke:#000000;stroke-width:2.61674;stroke-linecap:round;stroke-linejoin:round;stroke-miterlimit:10;stroke-dasharray:none;stroke-opacity:1"
                 id="path1406" />
            </g>
            <g
               id="g1408"
               transform="matrix(1,0,0,-1,1316.0874,28.50837)">
              <path
                 d="m 403.844,-321.984 c 8.386,-6.254 26.855,-17.356 16.847,-30.469 -14.664,-6.578 -20.789,26.433 -21.246,35.426"
                 style="fill:none;stroke:#000000;stroke-width:2.61674;stroke-linecap:round;stroke-linejoin:round;stroke-miterlimit:10;stroke-dasharray:none;stroke-opacity:1"
                 id="path1410" />
            </g>
            <g
               id="g1412"
               transform="matrix(1,0,0,-1,1316.0874,28.50837)">
              <path
                 d="m 430.145,-314.402 c -10.157,11.312 2.585,32.515 11.894,12.531 12.797,-12.191 -4.66,-7.266 -11.894,-12.531 l -2.485,2.863"
                 style="fill:none;stroke:#000000;stroke-width:2.61674;stroke-linecap:round;stroke-linejoin:round;stroke-miterlimit:10;stroke-dasharray:none;stroke-opacity:1"
                 id="path1414" />
            </g>
            <g
               id="g1416"
               transform="matrix(1,0,0,-1,1316.0874,28.50837)">
              <path
                 d="m 434.965,-325.621 c 5.597,20.937 21.5,-2.215 16.262,-14.824 -0.153,-7.844 -5.961,-26.793 -4.184,-8.371 -0.27,10.461 -10.785,14.843 -12.078,23.195"
                 style="fill:none;stroke:#000000;stroke-width:2.61674;stroke-linecap:round;stroke-linejoin:round;stroke-miterlimit:10;stroke-dasharray:none;stroke-opacity:1"
                 id="path1418" />
            </g>
            <g
               id="g1420"
               transform="matrix(1,0,0,-1,1316.0874,28.50837)">
              <path
                 d="m 435.539,-345.484 c 17.297,-14.243 -0.047,-33.231 -17.641,-20.286 15.668,2.922 10.317,13.665 13.629,23.739"
                 style="fill:none;stroke:#000000;stroke-width:2.61674;stroke-linecap:round;stroke-linejoin:round;stroke-miterlimit:10;stroke-dasharray:none;stroke-opacity:1"
                 id="path1422" />
            </g>
            <g
               id="g1424"
               transform="matrix(1,0,0,-1,1316.0874,28.50837)">
              <path
                 d="m 421.684,-327.289 c 8.843,21.441 18.285,-21.633 0.828,-11.926 -3.715,2.699 -0.828,11.926 -0.828,11.926"
                 style="fill:none;stroke:#000000;stroke-width:2.61674;stroke-linecap:round;stroke-linejoin:round;stroke-miterlimit:10;stroke-dasharray:none;stroke-opacity:1"
                 id="path1426" />
            </g>
            <g
               id="g1428"
               transform="matrix(1,0,0,-1,1316.0874,28.50837)">
              <path
                 d="m 421.328,-330.703 c 6.688,4.996 6.09,-7.262 2.008,-4.813"
                 style="fill:none;stroke:#000000;stroke-width:2.61674;stroke-linecap:round;stroke-linejoin:round;stroke-miterlimit:10;stroke-dasharray:none;stroke-opacity:1"
                 id="path1430" />
            </g>
            <g
               id="g1432"
               transform="matrix(1,0,0,-1,1316.0874,28.50837)">
              <path
                 d="m 451.215,-292.316 c 6.922,6.628 6.879,-11.059 10.562,-10.45"
                 style="fill:none;stroke:#000000;stroke-width:2.61674;stroke-linecap:round;stroke-linejoin:round;stroke-miterlimit:10;stroke-dasharray:none;stroke-opacity:1"
                 id="path1434" />
            </g>
            <g
               id="g1436"
               transform="matrix(1,0,0,-1,1316.0874,28.50837)">
              <path
                 d="m 459.059,-291.352 c 4.32,0.887 9.046,-6.644 6.421,-8.886"
                 style="fill:none;stroke:#000000;stroke-width:2.61674;stroke-linecap:round;stroke-linejoin:round;stroke-miterlimit:10;stroke-dasharray:none;stroke-opacity:1"
                 id="path1438" />
            </g>
            <g
               id="g1440"
               transform="matrix(1,0,0,-1,1316.0874,28.50837)">
              <path
                 d="m 461.777,-302.766 c 10.164,-8.531 12.61,-32.226 6.473,-40.886"
                 style="fill:none;stroke:#000000;stroke-width:2.61674;stroke-linecap:round;stroke-linejoin:round;stroke-miterlimit:10;stroke-dasharray:none;stroke-opacity:1"
                 id="path1442" />
            </g>
            <g
               id="g1444"
               transform="matrix(1,0,0,-1,1316.0874,28.50837)">
              <path
                 d="m 509.965,-168.293 c 0.336,-21.215 -0.504,-42.742 0.144,-63.734"
                 style="fill:none;stroke:#000000;stroke-width:2.61674;stroke-linecap:round;stroke-linejoin:round;stroke-miterlimit:10;stroke-dasharray:none;stroke-opacity:1"
                 id="path1446" />
            </g>
            <g
               id="g1448"
               transform="matrix(1,0,0,-1,1316.0874,28.50837)">
              <path
                 d="m 510.656,-232.34 c 13.699,2.879 29.739,-17.726 15.153,-28.586 l -2.434,-9.121 -1.309,8.559"
                 style="fill:none;stroke:#000000;stroke-width:2.61674;stroke-linecap:round;stroke-linejoin:round;stroke-miterlimit:10;stroke-dasharray:none;stroke-opacity:1"
                 id="path1450" />
            </g>
            <g
               id="g1452"
               transform="matrix(1,0,0,-1,1316.0874,28.50837)">
              <path
                 d="m 518.137,-234.352 c -0.254,-2.109 -2.645,-11.332 -2.723,-13.503"
                 style="fill:none;stroke:#000000;stroke-width:2.61674;stroke-linecap:round;stroke-linejoin:round;stroke-miterlimit:10;stroke-dasharray:none;stroke-opacity:1"
                 id="path1454" />
            </g>
            <g
               id="g1456"
               transform="matrix(1,0,0,-1,1316.0874,28.50837)">
              <path
                 d="m 515.414,-247.855 c 0.242,-4.223 3.563,-10.918 6.652,-13.633"
                 style="fill:none;stroke:#000000;stroke-width:2.61674;stroke-linecap:round;stroke-linejoin:round;stroke-miterlimit:10;stroke-dasharray:none;stroke-opacity:1"
                 id="path1458" />
            </g>
            <g
               id="g1460"
               transform="matrix(1,0,0,-1,1316.0874,28.50837)">
              <path
                 d="m 506.75,-246.969 c 2.418,1.371 7.336,-0.531 8.664,-0.886"
                 style="fill:none;stroke:#000000;stroke-width:2.61674;stroke-linecap:round;stroke-linejoin:round;stroke-miterlimit:10;stroke-dasharray:none;stroke-opacity:1"
                 id="path1462" />
            </g>
            <g
               id="g1464"
               transform="matrix(1,0,0,-1,1316.0874,28.50837)">
              <path
                 d="m 510.141,-253.957 c 1.32,1.223 3.488,-0.559 4.937,0.59"
                 style="fill:none;stroke:#000000;stroke-width:2.61674;stroke-linecap:round;stroke-linejoin:round;stroke-miterlimit:10;stroke-dasharray:none;stroke-opacity:1"
                 id="path1466" />
            </g>
            <g
               id="g1468"
               transform="matrix(1,0,0,-1,1316.0874,28.50837)">
              <path
                 d="m 500.91,-234.578 c 2.113,-8.762 0.485,-26.078 -1.113,-30.891"
                 style="fill:none;stroke:#000000;stroke-width:2.61674;stroke-linecap:round;stroke-linejoin:round;stroke-miterlimit:10;stroke-dasharray:none;stroke-opacity:1"
                 id="path1470" />
            </g>
            <g
               id="g1472"
               transform="matrix(1,0,0,-1,1316.0874,28.50837)">
              <path
                 d="m 487.844,-233.93 c 4.218,0.352 8.988,0.41 13.066,-0.648"
                 style="fill:none;stroke:#000000;stroke-width:2.61674;stroke-linecap:round;stroke-linejoin:round;stroke-miterlimit:10;stroke-dasharray:none;stroke-opacity:1"
                 id="path1474" />
            </g>
            <g
               id="g1476"
               transform="matrix(1,0,0,-1,1316.0874,28.50837)">
              <path
                 d="m 489.832,-265.273 c 3.219,-0.122 7.086,-0.188 9.945,-0.461"
                 style="fill:none;stroke:#000000;stroke-width:2.61674;stroke-linecap:round;stroke-linejoin:round;stroke-miterlimit:10;stroke-dasharray:none;stroke-opacity:1"
                 id="path1478" />
            </g>
            <g
               id="g1480"
               transform="matrix(1,0,0,-1,1316.0874,28.50837)">
              <path
                 d="m 507.918,-268.82 c 22.23,6.906 38.316,-25.403 18.539,-37.957 -20.793,-14.188 -28.535,24.894 -14.187,34.937 l 3.445,1.723 -0.172,0.023 7.832,0.047"
                 style="fill:none;stroke:#000000;stroke-width:2.61674;stroke-linecap:round;stroke-linejoin:round;stroke-miterlimit:10;stroke-dasharray:none;stroke-opacity:1"
                 id="path1482" />
            </g>
            <g
               id="g1484"
               transform="matrix(1,0,0,-1,1316.0874,28.50837)">
              <path
                 d="m 499.777,-265.734 c -0.019,-7.61 -4.547,-18.813 -5.132,-26.426"
                 style="fill:none;stroke:#000000;stroke-width:2.61674;stroke-linecap:round;stroke-linejoin:round;stroke-miterlimit:10;stroke-dasharray:none;stroke-opacity:1"
                 id="path1486" />
            </g>
            <g
               id="g1488"
               transform="matrix(1,0,0,-1,1316.0874,28.50837)">
              <path
                 d="m 493.926,-270.238 c -9.199,4.461 -4.571,-8.309 -6.567,-12.696"
                 style="fill:none;stroke:#000000;stroke-width:2.61674;stroke-linecap:round;stroke-linejoin:round;stroke-miterlimit:10;stroke-dasharray:none;stroke-opacity:1"
                 id="path1490" />
            </g>
            <g
               id="g1492"
               transform="matrix(1,0,0,-1,1316.0874,28.50837)">
              <path
                 d="m 507.918,-268.82 c 7.555,-5.297 -2.191,-45.223 -13.273,-23.34"
                 style="fill:none;stroke:#000000;stroke-width:2.61674;stroke-linecap:round;stroke-linejoin:round;stroke-miterlimit:10;stroke-dasharray:none;stroke-opacity:1"
                 id="path1494" />
            </g>
            <g
               id="g1496"
               transform="matrix(1,0,0,-1,1316.0874,28.50837)">
              <path
                 d="m 476.371,-240.695 c -1.488,-13.282 8.707,-38.731 -13.226,-32.571 -0.235,-0.793 -3.707,-22.027 -4.086,-18.086"
                 style="fill:none;stroke:#000000;stroke-width:2.61674;stroke-linecap:round;stroke-linejoin:round;stroke-miterlimit:10;stroke-dasharray:none;stroke-opacity:1"
                 id="path1498" />
            </g>
            <g
               id="g1500"
               transform="matrix(1,0,0,-1,1316.0874,28.50837)">
              <path
                 d="m 477.641,-230.961 c -11.215,3.844 -9.453,-13 -1.27,-9.734"
                 style="fill:none;stroke:#000000;stroke-width:2.61674;stroke-linecap:round;stroke-linejoin:round;stroke-miterlimit:10;stroke-dasharray:none;stroke-opacity:1"
                 id="path1502" />
            </g>
            <g
               id="g1504"
               transform="matrix(1,0,0,-1,1316.0874,28.50837)">
              <path
                 d="m 477.641,-230.961 c -2.485,3.047 0.515,14.602 -4.961,13.121"
                 style="fill:none;stroke:#000000;stroke-width:2.61674;stroke-linecap:round;stroke-linejoin:round;stroke-miterlimit:10;stroke-dasharray:none;stroke-opacity:1"
                 id="path1506" />
            </g>
            <g
               id="g1508"
               transform="matrix(1,0,0,-1,1316.0874,28.50837)">
              <path
                 d="m 503.625,-298.297 c 4.719,-16.141 3.828,-49.41 4.113,-66.078 l -0.242,0.703"
                 style="fill:none;stroke:#000000;stroke-width:2.61674;stroke-linecap:round;stroke-linejoin:round;stroke-miterlimit:10;stroke-dasharray:none;stroke-opacity:1"
                 id="path1510" />
            </g>
            <g
               id="g1512"
               transform="matrix(1,0,0,-1,1316.0874,28.50837)">
              <path
                 d="m 507.738,-364.375 c -12.109,-6.367 -53.297,-16.102 -65.847,-16.953"
                 style="fill:none;stroke:#000000;stroke-width:2.61674;stroke-linecap:round;stroke-linejoin:round;stroke-miterlimit:10;stroke-dasharray:none;stroke-opacity:1"
                 id="path1514" />
            </g>
            <g
               id="g1516"
               transform="matrix(1,0,0,-1,1316.0874,28.50837)">
              <path
                 d="m 356.715,-351.598 c -0.059,0.278 0.16,0.051 -0.207,0.434"
                 style="fill:none;stroke:#000000;stroke-width:2.61674;stroke-linecap:round;stroke-linejoin:round;stroke-miterlimit:10;stroke-dasharray:none;stroke-opacity:1"
                 id="path1518" />
            </g>
            <g
               id="g1520"
               transform="matrix(1,0,0,-1,1316.0874,28.50837)">
              <path
                 d="m 356.715,-351.598 c -9.539,-18.402 30.656,-25.48 30.656,-25.48 16.906,-5.156 30.145,-10.742 54.52,-4.25"
                 style="fill:none;stroke:#000000;stroke-width:2.61674;stroke-linecap:round;stroke-linejoin:round;stroke-miterlimit:10;stroke-dasharray:none;stroke-opacity:1"
                 id="path1522" />
            </g>
            <g
               id="g1524"
               transform="matrix(1,0,0,-1,1316.0874,28.50837)">
              <path
                 d="m 417.336,-373.691 c 3.379,-1.442 4.48,-12.329 -0.746,-10.477"
                 style="fill:none;stroke:#000000;stroke-width:2.61674;stroke-linecap:round;stroke-linejoin:round;stroke-miterlimit:10;stroke-dasharray:none;stroke-opacity:1"
                 id="path1526" />
            </g>
            <g
               id="g1528"
               transform="matrix(1,0,0,-1,1316.0874,28.50837)">
              <path
                 d="m 399.852,-380.293 c -2.914,2.231 -0.043,6.316 -0.797,9.195"
                 style="fill:none;stroke:#000000;stroke-width:2.61674;stroke-linecap:round;stroke-linejoin:round;stroke-miterlimit:10;stroke-dasharray:none;stroke-opacity:1"
                 id="path1530" />
            </g>
            <g
               id="g1532"
               transform="matrix(1,0,0,-1,1316.0874,28.50837)">
              <path
                 d="m 370.211,-316.207 c 7.105,-0.355 14.105,-1.566 21.18,-2.27"
                 style="fill:none;stroke:#000000;stroke-width:2.61674;stroke-linecap:round;stroke-linejoin:round;stroke-miterlimit:10;stroke-dasharray:none;stroke-opacity:1"
                 id="path1534" />
            </g>
            <g
               id="g1536"
               transform="matrix(1,0,0,-1,1316.0874,28.50837)">
              <path
                 d="m 381.867,-237.762 c -18.254,5.039 -5.453,-27.261 0.071,-7.297 -0.907,2.094 -2.067,4.789 -4.579,5.356"
                 style="fill:none;stroke:#000000;stroke-width:2.61674;stroke-linecap:round;stroke-linejoin:round;stroke-miterlimit:10;stroke-dasharray:none;stroke-opacity:1"
                 id="path1538" />
            </g>
            <g
               id="g1540"
               transform="matrix(1,0,0,-1,1316.0874,28.50837)">
              <path
                 d="m 315.602,-291.41 c 5.222,-5.902 14.464,-13.852 17.832,-19.692"
                 style="fill:none;stroke:#000000;stroke-width:2.61674;stroke-linecap:round;stroke-linejoin:round;stroke-miterlimit:10;stroke-dasharray:none;stroke-opacity:1"
                 id="path1542" />
            </g>
          </g>
        </g>
      </g>
    </g>
  </g>
</svg>
