<?xml version="1.0" encoding="UTF-8" standalone="no"?>
<!-- Created by Ashley Blewer - This work is licensed under a Creative Commons Attribution 4.0 International License -->

<svg
   width="544"
   height="480"
   viewBox="0 0 143.93334 127"
   version="1.1"
   id="svg2490"
   inkscape:version="1.2.2 (1:1.2.2+202212051552+b0a8486541)"
   sodipodi:docname="1896-mutograph-1.svg"
   xmlns:inkscape="http://www.inkscape.org/namespaces/inkscape"
   xmlns:sodipodi="http://sodipodi.sourceforge.net/DTD/sodipodi-0.dtd"
   xmlns="http://www.w3.org/2000/svg"
   xmlns:svg="http://www.w3.org/2000/svg">
  <sodipodi:namedview
     id="namedview2492"
     pagecolor="#ffffff"
     bordercolor="#666666"
     borderopacity="1.0"
     inkscape:pageshadow="2"
     inkscape:pageopacity="0.0"
     inkscape:pagecheckerboard="0"
     inkscape:document-units="mm"
     showgrid="false"
     units="px"
     inkscape:zoom="0.90583674"
     inkscape:cx="53.541657"
     inkscape:cy="254.46086"
     inkscape:window-width="1846"
     inkscape:window-height="1136"
     inkscape:window-x="0"
     inkscape:window-y="0"
     inkscape:window-maximized="1"
     inkscape:current-layer="g6718"
     inkscape:showpageshadow="2"
     inkscape:deskcolor="#d1d1d1" />
  <defs
     id="defs2487" />
  <g
     inkscape:label="Layer 1"
     inkscape:groupmode="layer"
     id="layer1">
    <g
       id="g4731"
       transform="matrix(0.32961229,0,0,0.32903008,-241.78905,1.73126)"
       style="stroke-width:2.68698">
      <g
         id="g104528"
         transform="matrix(1,0,0,-1,0,792)"
         style="stroke-width:2.68698">
        <g
           id="g104530"
           style="stroke-width:2.68698" />
      </g>
      <g
         id="g104996"
         transform="matrix(1,0,0,-1,0,792)"
         style="stroke-width:2.68698">
        <g
           id="g104998"
           style="stroke-width:2.68698" />
      </g>
      <g
         id="g28852"
         transform="matrix(1.070281,0,0,1.0721748,779.91249,-443.13657)">
        <g
           id="g6718"
           transform="matrix(1.117886,0,0,1.117886,-549.13111,-491.62865)">
          <g
             id="g9488"
             transform="matrix(0.81196276,0,0,0.81196279,229.89248,131.68105)">
            <g
               id="g1220"
               transform="matrix(1,0,0,-1,139.70611,810.77197)">
              <path
                 d="m 248.098,-332.207 c -5.387,90.59 -7.071,181.539 -0.797,272.129"
                 style="fill:none;stroke:#000000;stroke-width:2.61674;stroke-linecap:round;stroke-linejoin:round;stroke-miterlimit:10;stroke-dasharray:none;stroke-opacity:1"
                 id="path1222" />
            </g>
            <g
               id="g1224"
               transform="matrix(1,0,0,-1,139.70611,810.77197)">
              <path
                 d="m 247.836,-59.176 c 15.906,3.004 32.008,4.996 47.922,7.555 23.433,6.164 47.211,11.586 71.562,11.75 18.067,1.207 36.114,6.035 54.149,5.402 l 2.09,-0.922"
                 style="fill:none;stroke:#000000;stroke-width:2.61674;stroke-linecap:round;stroke-linejoin:round;stroke-miterlimit:10;stroke-dasharray:none;stroke-opacity:1"
                 id="path1226" />
            </g>
            <g
               id="g1228"
               transform="matrix(1,0,0,-1,139.70611,810.77197)">
              <path
                 d="m 423.559,-35.391 c 7.918,2.114 16.406,-1.488 23.546,-4.226"
                 style="fill:none;stroke:#000000;stroke-width:2.61674;stroke-linecap:round;stroke-linejoin:round;stroke-miterlimit:10;stroke-dasharray:none;stroke-opacity:1"
                 id="path1230" />
            </g>
            <g
               id="g1232"
               transform="matrix(1,0,0,-1,139.70611,810.77197)">
              <path
                 d="m 448.469,-41.047 c 7.761,-3.797 17.324,-1.801 24.668,-6.586"
                 style="fill:none;stroke:#000000;stroke-width:2.61674;stroke-linecap:round;stroke-linejoin:round;stroke-miterlimit:10;stroke-dasharray:none;stroke-opacity:1"
                 id="path1234" />
            </g>
            <g
               id="g1236"
               transform="matrix(1,0,0,-1,139.70611,810.77197)">
              <path
                 d="m 473.793,-47.664 c 3.332,-25.25 -1.324,-50.707 0.324,-76.055 -0.859,-31.609 -0.808,-63.238 -0.39,-94.824 -1.481,-32.867 -0.649,-65.809 0.753,-98.613 -0.164,-7.141 1.489,-14.43 -0.168,-21.473"
                 style="fill:none;stroke:#000000;stroke-width:2.61674;stroke-linecap:round;stroke-linejoin:round;stroke-miterlimit:10;stroke-dasharray:none;stroke-opacity:1"
                 id="path1238" />
            </g>
            <g
               id="g1240"
               transform="matrix(1,0,0,-1,139.70611,810.77197)">
              <path
                 d="m 474.312,-338.629 c -0.906,-4.414 -4.23,-8.543 -8.738,-8.766"
                 style="fill:none;stroke:#000000;stroke-width:2.61674;stroke-linecap:round;stroke-linejoin:round;stroke-miterlimit:10;stroke-dasharray:none;stroke-opacity:1"
                 id="path1242" />
            </g>
            <g
               id="g1244"
               transform="matrix(1,0,0,-1,139.70611,810.77197)">
              <path
                 d="m 465.574,-347.395 c -0.535,-3.832 -9.754,-3.98 -12.402,-4.71"
                 style="fill:none;stroke:#000000;stroke-width:2.61674;stroke-linecap:round;stroke-linejoin:round;stroke-miterlimit:10;stroke-dasharray:none;stroke-opacity:1"
                 id="path1246" />
            </g>
            <g
               id="g1248"
               transform="matrix(1,0,0,-1,139.70611,810.77197)">
              <path
                 d="m 453.172,-352.105 c -2.192,-3.024 -8.641,-2.844 -12.188,-2.59"
                 style="fill:none;stroke:#000000;stroke-width:2.61674;stroke-linecap:round;stroke-linejoin:round;stroke-miterlimit:10;stroke-dasharray:none;stroke-opacity:1"
                 id="path1250" />
            </g>
            <g
               id="g1252"
               transform="matrix(1,0,0,-1,139.70611,810.77197)">
              <path
                 d="m 440.984,-354.695 c -14.261,-1.071 -34.179,-7.125 -46.675,-0.989"
                 style="fill:none;stroke:#000000;stroke-width:2.61674;stroke-linecap:round;stroke-linejoin:round;stroke-miterlimit:10;stroke-dasharray:none;stroke-opacity:1"
                 id="path1254" />
            </g>
            <g
               id="g1256"
               transform="matrix(1,0,0,-1,139.70611,810.77197)">
              <path
                 d="m 248.844,-333.715 c 51.215,-10.738 103.453,-15.461 154.84,-25.242"
                 style="fill:none;stroke:#000000;stroke-width:2.61674;stroke-linecap:round;stroke-linejoin:round;stroke-miterlimit:10;stroke-dasharray:none;stroke-opacity:1"
                 id="path1258" />
            </g>
            <g
               id="g1260"
               transform="matrix(1,0,0,-1,139.70611,810.77197)">
              <path
                 d="m 394.309,-355.684 c -1.305,-9.867 11.16,-22.171 9.898,-30.972"
                 style="fill:none;stroke:#000000;stroke-width:2.61674;stroke-linecap:round;stroke-linejoin:round;stroke-miterlimit:10;stroke-dasharray:none;stroke-opacity:1"
                 id="path1262" />
            </g>
            <g
               id="g1264"
               transform="matrix(1,0,0,-1,139.70611,810.77197)">
              <path
                 d="m 295.117,-343.922 c -2.687,2.285 -4.945,-1.242 -4.316,-3.785"
                 style="fill:none;stroke:#000000;stroke-width:2.61674;stroke-linecap:round;stroke-linejoin:round;stroke-miterlimit:10;stroke-dasharray:none;stroke-opacity:1"
                 id="path1266" />
            </g>
            <g
               id="g1268"
               transform="matrix(1,0,0,-1,139.70611,810.77197)">
              <path
                 d="m 290.801,-347.707 c -5.555,-1.207 -15.903,-4.02 -21.274,-5.93"
                 style="fill:none;stroke:#000000;stroke-width:2.61674;stroke-linecap:round;stroke-linejoin:round;stroke-miterlimit:10;stroke-dasharray:none;stroke-opacity:1"
                 id="path1270" />
            </g>
            <g
               id="g1272"
               transform="matrix(1,0,0,-1,139.70611,810.77197)">
              <path
                 d="m 268.402,-354.066 c 2.563,-8.215 -0.457,-16.883 1.055,-25.211"
                 style="fill:none;stroke:#000000;stroke-width:2.61674;stroke-linecap:round;stroke-linejoin:round;stroke-miterlimit:10;stroke-dasharray:none;stroke-opacity:1"
                 id="path1274" />
            </g>
            <g
               id="g1276"
               transform="matrix(1,0,0,-1,139.70611,810.77197)">
              <path
                 d="m 269.457,-379.277 c 21.895,-7.934 44.758,-12.707 66.918,-19.785 m -67.973,44.996 62.407,-17.969"
                 style="fill:none;stroke:#000000;stroke-width:2.61674;stroke-linecap:round;stroke-linejoin:round;stroke-miterlimit:10;stroke-dasharray:none;stroke-opacity:1"
                 id="path1278" />
            </g>
            <g
               id="g1280"
               transform="matrix(1,0,0,-1,139.70611,810.77197)">
              <path
                 d="m 330.809,-372.035 c 2.972,-10.926 3.558,-16.235 5.07,-27.406"
                 style="fill:none;stroke:#000000;stroke-width:2.61674;stroke-linecap:round;stroke-linejoin:round;stroke-miterlimit:10;stroke-dasharray:none;stroke-opacity:1"
                 id="path1282" />
            </g>
            <g
               id="g1284"
               transform="matrix(1,0,0,-1,139.70611,810.77197)">
              <path
                 d="m 336.375,-399.062 c 22.539,4.519 45.52,6.753 67.832,12.406 l -0.519,0.699 -0.032,0.043"
                 style="fill:none;stroke:#000000;stroke-width:2.61674;stroke-linecap:round;stroke-linejoin:round;stroke-miterlimit:10;stroke-dasharray:none;stroke-opacity:1"
                 id="path1286" />
            </g>
            <g
               id="g1288"
               transform="matrix(1,0,0,-1,139.70611,810.77197)">
              <path
                 d="m 330.809,-372.035 c 20.933,0.285 43.199,7.426 64.125,6.504"
                 style="fill:none;stroke:#000000;stroke-width:2.61674;stroke-linecap:round;stroke-linejoin:round;stroke-miterlimit:10;stroke-dasharray:none;stroke-opacity:1"
                 id="path1290" />
            </g>
            <g
               id="g1292"
               transform="matrix(1,0,0,-1,139.70611,810.77197)">
              <path
                 d="m 447.105,-39.617 c 0.997,-5.692 2.176,-18.996 -2,-24.059"
                 style="fill:none;stroke:#000000;stroke-width:2.61674;stroke-linecap:round;stroke-linejoin:round;stroke-miterlimit:10;stroke-dasharray:none;stroke-opacity:1"
                 id="path1294" />
            </g>
            <g
               id="g1296"
               transform="matrix(1,0,0,-1,139.70611,810.77197)">
              <path
                 d="m 445.105,-63.676 c -0.007,-15.019 -1.543,-30.012 -1.132,-45.035"
                 style="fill:none;stroke:#000000;stroke-width:2.61674;stroke-linecap:round;stroke-linejoin:round;stroke-miterlimit:10;stroke-dasharray:none;stroke-opacity:1"
                 id="path1298" />
            </g>
            <g
               id="g1300"
               transform="matrix(1,0,0,-1,139.70611,810.77197)">
              <path
                 d="m 443.422,-108.809 c -4.36,2.168 -9.317,2.536 -14.086,2.922"
                 style="fill:none;stroke:#000000;stroke-width:2.61674;stroke-linecap:round;stroke-linejoin:round;stroke-miterlimit:10;stroke-dasharray:none;stroke-opacity:1"
                 id="path1302" />
            </g>
            <g
               id="g1304"
               transform="matrix(1,0,0,-1,139.70611,810.77197)">
              <path
                 d="m 428.391,-104.473 c -2.239,22.77 1.144,45.575 0.308,68.368"
                 style="fill:none;stroke:#000000;stroke-width:2.61674;stroke-linecap:round;stroke-linejoin:round;stroke-miterlimit:10;stroke-dasharray:none;stroke-opacity:1"
                 id="path1306" />
            </g>
            <g
               id="g1308"
               transform="matrix(1,0,0,-1,139.70611,810.77197)">
              <path
                 d="m 416.777,-34.797 c 0.344,-34.281 -3.941,-72.414 -1.621,-106.711 1.59,-49.949 -0.371,-99.906 0.696,-149.844 1.808,-22.359 5.035,-43.871 6.195,-65.691"
                 style="fill:none;stroke:#000000;stroke-width:2.61674;stroke-linecap:round;stroke-linejoin:round;stroke-miterlimit:10;stroke-dasharray:none;stroke-opacity:1"
                 id="path1310" />
            </g>
            <g
               id="g1312"
               transform="matrix(1,0,0,-1,139.70611,810.77197)">
              <path
                 d="m 435.926,-159.289 c -0.133,9 -0.465,18.012 -0.004,27.004"
                 style="fill:none;stroke:#000000;stroke-width:2.61674;stroke-linecap:round;stroke-linejoin:round;stroke-miterlimit:10;stroke-dasharray:none;stroke-opacity:1"
                 id="path1314" />
            </g>
            <g
               id="g1316"
               transform="matrix(1,0,0,-1,139.70611,810.77197)">
              <path
                 d="m 436.512,-132.344 c 3.41,-0.023 7,1.367 10.277,-0.187"
                 style="fill:none;stroke:#000000;stroke-width:2.61674;stroke-linecap:round;stroke-linejoin:round;stroke-miterlimit:10;stroke-dasharray:none;stroke-opacity:1"
                 id="path1318" />
            </g>
            <g
               id="g1320"
               transform="matrix(1,0,0,-1,139.70611,810.77197)">
              <path
                 d="m 446.988,-133.766 c 0.301,-8.457 -1.32,-16.855 -1.023,-25.308"
                 style="fill:none;stroke:#000000;stroke-width:2.61674;stroke-linecap:round;stroke-linejoin:round;stroke-miterlimit:10;stroke-dasharray:none;stroke-opacity:1"
                 id="path1322" />
            </g>
            <g
               id="g1324"
               transform="matrix(1,0,0,-1,139.70611,810.77197)">
              <path
                 d="m 437.25,-159.18 c 2.973,-0.297 5.941,-0.945 8.941,-0.718"
                 style="fill:none;stroke:#000000;stroke-width:2.61674;stroke-linecap:round;stroke-linejoin:round;stroke-miterlimit:10;stroke-dasharray:none;stroke-opacity:1"
                 id="path1326" />
            </g>
            <g
               id="g1328"
               transform="matrix(1,0,0,-1,139.70611,810.77197)">
              <path
                 d="m 435.922,-132.285 c -2.141,-2.942 -10.367,-1.715 -13.184,-2.379"
                 style="fill:none;stroke:#000000;stroke-width:2.61674;stroke-linecap:round;stroke-linejoin:round;stroke-miterlimit:10;stroke-dasharray:none;stroke-opacity:1"
                 id="path1330" />
            </g>
            <g
               id="g1332"
               transform="matrix(1,0,0,-1,139.70611,810.77197)">
              <path
                 d="m 422.738,-134.664 c 1.586,-9.637 -4.957,-34.902 13.188,-24.625"
                 style="fill:none;stroke:#000000;stroke-width:2.61674;stroke-linecap:round;stroke-linejoin:round;stroke-miterlimit:10;stroke-dasharray:none;stroke-opacity:1"
                 id="path1334" />
            </g>
            <g
               id="g1336"
               transform="matrix(1,0,0,-1,139.70611,810.77197)">
              <path
                 d="m 372.566,-139.77 c 17.024,-12.214 15.403,-42.8 -4.812,-50.953 -13.774,-6.98 -26.383,8.418 -27.004,21.274 -2.953,15.246 7.59,36.051 25.383,32.519 2.613,-0.672 5.898,-0.828 7.629,-3.211"
                 style="fill:none;stroke:#000000;stroke-width:2.61674;stroke-linecap:round;stroke-linejoin:round;stroke-miterlimit:10;stroke-dasharray:none;stroke-opacity:1"
                 id="path1338" />
            </g>
            <g
               id="g1340"
               transform="matrix(1,0,0,-1,139.70611,810.77197)">
              <path
                 d="m 366.578,-145.773 c 16.016,-4.489 12.68,-28.887 1.328,-36.684 -14.39,-9.199 -26.301,8.309 -22.113,21.723 -0.387,14.746 17.371,23.859 27.801,12.769"
                 style="fill:none;stroke:#000000;stroke-width:2.61674;stroke-linecap:round;stroke-linejoin:round;stroke-miterlimit:10;stroke-dasharray:none;stroke-opacity:1"
                 id="path1342" />
            </g>
            <g
               id="g1344"
               transform="matrix(1,0,0,-1,139.70611,810.77197)">
              <path
                 d="m 367.445,-135.906 c 12.957,10.258 31.68,1.328 35.649,-13.805 9.168,-18.57 0.73,-48.664 -22.418,-50.766 -6.961,-0.832 -14.582,1.672 -16.899,8.422"
                 style="fill:none;stroke:#000000;stroke-width:2.61674;stroke-linecap:round;stroke-linejoin:round;stroke-miterlimit:10;stroke-dasharray:none;stroke-opacity:1"
                 id="path1346" />
            </g>
            <g
               id="g1348"
               transform="matrix(1,0,0,-1,139.70611,810.77197)">
              <path
                 d="m 372.129,-139.293 c 15.957,8.246 32.781,-12.426 29.398,-27.828 -2.351,-13.746 -14.804,-31.668 -30.679,-27.082 l -1.356,0.726 -1.738,2.754"
                 style="fill:none;stroke:#000000;stroke-width:2.61674;stroke-linecap:round;stroke-linejoin:round;stroke-miterlimit:10;stroke-dasharray:none;stroke-opacity:1"
                 id="path1350" />
            </g>
            <g
               id="g1352"
               transform="matrix(1,0,0,-1,139.70611,810.77197)">
              <path
                 d="m 375.773,-141.832 c 18.332,-2.668 26.274,-27.676 13.438,-40.867 -3.738,-4.863 -11.746,-11.875 -16.715,-5.492"
                 style="fill:none;stroke:#000000;stroke-width:2.61674;stroke-linecap:round;stroke-linejoin:round;stroke-miterlimit:10;stroke-dasharray:none;stroke-opacity:1"
                 id="path1354" />
            </g>
            <g
               id="g1356"
               transform="matrix(1,0,0,-1,139.70611,810.77197)">
              <path
                 d="m 323.055,-144.707 c 17.14,-1.105 11.172,-31.016 -4.903,-25.629 -10.89,5.715 -5.543,25.07 5.633,26.059"
                 style="fill:none;stroke:#000000;stroke-width:2.61674;stroke-linecap:round;stroke-linejoin:round;stroke-miterlimit:10;stroke-dasharray:none;stroke-opacity:1"
                 id="path1358" />
            </g>
            <g
               id="g1360"
               transform="matrix(1,0,0,-1,139.70611,810.77197)">
              <path
                 d="m 316.211,-152.527 c 14.691,8.699 9.168,-20.676 -1.801,-7.629 -2.191,3.988 -0.32,6.676 2.664,8.804"
                 style="fill:none;stroke:#000000;stroke-width:2.61674;stroke-linecap:round;stroke-linejoin:round;stroke-miterlimit:10;stroke-dasharray:none;stroke-opacity:1"
                 id="path1362" />
            </g>
            <g
               id="g1364"
               transform="matrix(1,0,0,-1,139.70611,810.77197)">
              <path
                 d="m 319.766,-150.523 c 0.425,-0.032 3.023,-0.059 3.894,-0.039"
                 style="fill:none;stroke:#000000;stroke-width:2.61674;stroke-linecap:round;stroke-linejoin:round;stroke-miterlimit:10;stroke-dasharray:none;stroke-opacity:1"
                 id="path1366" />
            </g>
            <g
               id="g1368"
               transform="matrix(1,0,0,-1,139.70611,810.77197)">
              <path
                 d="m 320.734,-164.559 c 1.149,0.653 2.864,-1.355 3.657,-0.086"
                 style="fill:none;stroke:#000000;stroke-width:2.61674;stroke-linecap:round;stroke-linejoin:round;stroke-miterlimit:10;stroke-dasharray:none;stroke-opacity:1"
                 id="path1370" />
            </g>
            <g
               id="g1372"
               transform="matrix(1,0,0,-1,139.70611,810.77197)">
              <path
                 d="m 325.02,-164.988 c 7.175,2.054 6.48,15.429 -1.52,15.269"
                 style="fill:none;stroke:#000000;stroke-width:2.61674;stroke-linecap:round;stroke-linejoin:round;stroke-miterlimit:10;stroke-dasharray:none;stroke-opacity:1"
                 id="path1374" />
            </g>
            <g
               id="g1376"
               transform="matrix(1,0,0,-1,139.70611,810.77197)">
              <path
                 d="m 294.012,-252.793 c 17.312,-5.168 1.605,-36.496 -10.492,-18.895 -4.614,7.887 1.156,25.645 12.5,18.43"
                 style="fill:none;stroke:#000000;stroke-width:2.61674;stroke-linecap:round;stroke-linejoin:round;stroke-miterlimit:10;stroke-dasharray:none;stroke-opacity:1"
                 id="path1378" />
            </g>
            <g
               id="g1380"
               transform="matrix(1,0,0,-1,139.70611,810.77197)">
              <path
                 d="m 290.051,-259.215 c -5.254,-24.933 22.234,7.172 -2.274,0.254"
                 style="fill:none;stroke:#000000;stroke-width:2.61674;stroke-linecap:round;stroke-linejoin:round;stroke-miterlimit:10;stroke-dasharray:none;stroke-opacity:1"
                 id="path1382" />
            </g>
            <g
               id="g1384"
               transform="matrix(1,0,0,-1,139.70611,810.77197)">
              <path
                 d="m 308.078,-56.043 c 9.699,2.199 27.754,11.996 22.887,-6.781 -1.516,-11.727 -1.512,-23.528 -2.34,-35.289"
                 style="fill:none;stroke:#000000;stroke-width:1.26872;stroke-linecap:round;stroke-linejoin:round;stroke-miterlimit:10;stroke-dasharray:none;stroke-opacity:1"
                 id="path1386" />
            </g>
            <g
               id="g1388"
               transform="matrix(1,0,0,-1,139.70611,810.77197)">
              <path
                 d="m 308.078,-56.043 c 2.844,-13.109 -5.668,-33.039 1.871,-43.437 6.254,-1.106 12.516,-0.59 18.617,0.355"
                 style="fill:none;stroke:#000000;stroke-width:1.26872;stroke-linecap:round;stroke-linejoin:round;stroke-miterlimit:10;stroke-dasharray:none;stroke-opacity:1"
                 id="path1390" />
            </g>
            <g
               id="g1392"
               transform="matrix(1,0,0,-1,139.70611,810.77197)">
              <path
                 d="m 430.668,-56.574 c 4.773,-0.805 9.457,-2.071 14.152,-3.238"
                 style="fill:none;stroke:#000000;stroke-width:1.26872;stroke-linecap:round;stroke-linejoin:round;stroke-miterlimit:10;stroke-dasharray:none;stroke-opacity:1"
                 id="path1394" />
            </g>
            <g
               id="g1396"
               transform="matrix(1,0,0,-1,139.70611,810.77197)">
              <path
                 d="m 432.441,-53.387 c 2.278,-1.73 -1.304,0.813 -0.355,-0.097"
                 style="fill:none;stroke:#000000;stroke-width:1.26872;stroke-linecap:round;stroke-linejoin:round;stroke-miterlimit:10;stroke-dasharray:none;stroke-opacity:1"
                 id="path1398" />
            </g>
            <g
               id="g1400"
               transform="matrix(1,0,0,-1,139.70611,810.77197)">
              <path
                 d="m 440.965,-54.012 c 1.183,-0.394 -0.653,-2.093 -0.293,-0.449"
                 style="fill:none;stroke:#000000;stroke-width:1.26872;stroke-linecap:round;stroke-linejoin:round;stroke-miterlimit:10;stroke-dasharray:none;stroke-opacity:1"
                 id="path1402" />
            </g>
            <g
               id="g1404"
               transform="matrix(1,0,0,-1,139.70611,810.77197)">
              <path
                 d="m 430.191,-134.422 c 0.711,2.707 -0.668,5.633 0.516,8.27"
                 style="fill:none;stroke:#000000;stroke-width:1.26872;stroke-linecap:round;stroke-linejoin:round;stroke-miterlimit:10;stroke-dasharray:none;stroke-opacity:1"
                 id="path1406" />
            </g>
            <g
               id="g1408"
               transform="matrix(1,0,0,-1,139.70611,810.77197)">
              <path
                 d="m 430.16,-126.613 c -3.226,0.554 -6.926,1.89 -10.098,0.496"
                 style="fill:none;stroke:#000000;stroke-width:1.26872;stroke-linecap:round;stroke-linejoin:round;stroke-miterlimit:10;stroke-dasharray:none;stroke-opacity:1"
                 id="path1410" />
            </g>
            <g
               id="g1412"
               transform="matrix(1,0,0,-1,139.70611,810.77197)">
              <path
                 d="m 419.598,-127.809 c -0.012,-14.191 -0.328,-30.015 1.656,-43.253"
                 style="fill:none;stroke:#000000;stroke-width:1.26872;stroke-linecap:round;stroke-linejoin:round;stroke-miterlimit:10;stroke-dasharray:none;stroke-opacity:1"
                 id="path1414" />
            </g>
            <g
               id="g1416"
               transform="matrix(1,0,0,-1,139.70611,810.77197)">
              <path
                 d="m 427.379,-163.578 c -0.043,-23.957 -5.438,-47.594 -4.488,-71.586"
                 style="fill:none;stroke:#000000;stroke-width:1.26872;stroke-linecap:round;stroke-linejoin:round;stroke-miterlimit:10;stroke-dasharray:none;stroke-opacity:1"
                 id="path1418" />
            </g>
            <g
               id="g1420"
               transform="matrix(1,0,0,-1,139.70611,810.77197)">
              <path
                 d="m 418.68,-236.469 c 13.882,6.629 12.914,-13.004 0.394,-6.715 0.633,1.598 -0.457,3.168 0.028,4.75"
                 style="fill:none;stroke:#000000;stroke-width:1.26872;stroke-linecap:round;stroke-linejoin:round;stroke-miterlimit:10;stroke-dasharray:none;stroke-opacity:1"
                 id="path1422" />
            </g>
            <g
               id="g1424"
               transform="matrix(1,0,0,-1,139.70611,810.77197)">
              <path
                 d="m 422.684,-246.02 c 3.996,-24.875 0.242,-50.281 3.988,-75.175 -0.113,-9.348 -1.578,-18.649 -1.149,-28.004"
                 style="fill:none;stroke:#000000;stroke-width:1.26872;stroke-linecap:round;stroke-linejoin:round;stroke-miterlimit:10;stroke-dasharray:none;stroke-opacity:1"
                 id="path1426" />
            </g>
            <g
               id="g1428"
               transform="matrix(1,0,0,-1,139.70611,810.77197)">
              <path
                 d="m 430.727,-162.77 c 0.968,-24.16 -2.719,-50.234 -1.532,-73.195 l -0.406,-0.074 0.5,0.258"
                 style="fill:none;stroke:#000000;stroke-width:1.26872;stroke-linecap:round;stroke-linejoin:round;stroke-miterlimit:10;stroke-dasharray:none;stroke-opacity:1"
                 id="path1430" />
            </g>
            <g
               id="g1432"
               transform="matrix(1,0,0,-1,139.70611,810.77197)">
              <path
                 d="m 429.531,-244.773 c 2.875,-30.422 -0.679,-61.043 2.094,-91.485 -0.762,-3.328 1.211,-19.219 -4.609,-16.172"
                 style="fill:none;stroke:#000000;stroke-width:1.26872;stroke-linecap:round;stroke-linejoin:round;stroke-miterlimit:10;stroke-dasharray:none;stroke-opacity:1"
                 id="path1434" />
            </g>
            <g
               id="g1436"
               transform="matrix(1,0,0,-1,139.70611,810.77197)">
              <path
                 d="m 435.66,-356.133 c 0.754,10.75 0.039,20.602 0.957,31.34"
                 style="fill:none;stroke:#000000;stroke-width:1.26872;stroke-linecap:round;stroke-linejoin:round;stroke-miterlimit:10;stroke-dasharray:none;stroke-opacity:1"
                 id="path1438" />
            </g>
            <g
               id="g1440"
               transform="matrix(1,0,0,-1,139.70611,810.77197)">
              <path
                 d="m 436.297,-324.996 c 17.215,4.469 5.976,-21.484 8.144,-29.949"
                 style="fill:none;stroke:#000000;stroke-width:1.26872;stroke-linecap:round;stroke-linejoin:round;stroke-miterlimit:10;stroke-dasharray:none;stroke-opacity:1"
                 id="path1442" />
            </g>
            <g
               id="g1444"
               transform="matrix(1,0,0,-1,139.70611,810.77197)">
              <path
                 d="m 437.543,-146.062 c 0.887,-2.442 4.512,0.164 0.672,0.882"
                 style="fill:none;stroke:#000000;stroke-width:1.26872;stroke-linecap:round;stroke-linejoin:round;stroke-miterlimit:10;stroke-dasharray:none;stroke-opacity:1"
                 id="path1446" />
            </g>
            <g
               id="g1448"
               transform="matrix(1,0,0,-1,139.70611,810.77197)">
              <path
                 d="m 443.809,-145.453 c -2.247,-3.555 5.109,-0.625 0.425,0.285"
                 style="fill:none;stroke:#000000;stroke-width:1.26872;stroke-linecap:round;stroke-linejoin:round;stroke-miterlimit:10;stroke-dasharray:none;stroke-opacity:1"
                 id="path1450" />
            </g>
            <g
               id="g1452"
               transform="matrix(1,0,0,-1,139.70611,810.77197)">
              <path
                 d="m 425.871,-128.922 c 0.098,-0.582 0.168,-3.398 0.106,-4.219"
                 style="fill:none;stroke:#000000;stroke-width:1.26872;stroke-linecap:round;stroke-linejoin:round;stroke-miterlimit:10;stroke-dasharray:none;stroke-opacity:1"
                 id="path1454" />
            </g>
            <g
               id="g1456"
               transform="matrix(1,0,0,-1,139.70611,810.77197)">
              <path
                 d="m 373.652,-157.449 c -11.394,5.347 -12.773,-19.207 -1.187,-17.129"
                 style="fill:none;stroke:#000000;stroke-width:1.26872;stroke-linecap:round;stroke-linejoin:round;stroke-miterlimit:10;stroke-dasharray:none;stroke-opacity:1"
                 id="path1458" />
            </g>
            <g
               id="g1460"
               transform="matrix(1,0,0,-1,139.70611,810.77197)">
              <path
                 d="m 369.539,-148.723 c -15.258,2.797 -15.379,-27.117 -5.281,-34.601 l 2.883,-0.453"
                 style="fill:none;stroke:#000000;stroke-width:1.26872;stroke-linecap:round;stroke-linejoin:round;stroke-miterlimit:10;stroke-dasharray:none;stroke-opacity:1"
                 id="path1462" />
            </g>
            <g
               id="g1464"
               transform="matrix(1,0,0,-1,139.70611,810.77197)">
              <path
                 d="m 310.824,-62.008 c 4.422,2.52 11.211,4.469 15.754,1.301"
                 style="fill:none;stroke:#000000;stroke-width:1.26872;stroke-linecap:round;stroke-linejoin:round;stroke-miterlimit:10;stroke-dasharray:none;stroke-opacity:1"
                 id="path1466" />
            </g>
            <g
               id="g1468"
               transform="matrix(1,0,0,-1,139.70611,810.77197)">
              <path
                 d="m 312.578,-67.758 c 2.445,-0.14 4.652,1.051 7.067,1.074"
                 style="fill:none;stroke:#000000;stroke-width:1.26872;stroke-linecap:round;stroke-linejoin:round;stroke-miterlimit:10;stroke-dasharray:none;stroke-opacity:1"
                 id="path1470" />
            </g>
            <g
               id="g1472"
               transform="matrix(1,0,0,-1,139.70611,810.77197)">
              <path
                 d="m 309.445,-73.195 c 5.285,0.035 10.512,1.543 15.809,1.043"
                 style="fill:none;stroke:#000000;stroke-width:1.26872;stroke-linecap:round;stroke-linejoin:round;stroke-miterlimit:10;stroke-dasharray:none;stroke-opacity:1"
                 id="path1474" />
            </g>
            <g
               id="g1476"
               transform="matrix(1,0,0,-1,139.70611,810.77197)">
              <path
                 d="m 317.324,-75.938 c -0.199,-1.058 1.367,0.567 1.461,0.25"
                 style="fill:none;stroke:#000000;stroke-width:1.26872;stroke-linecap:round;stroke-linejoin:round;stroke-miterlimit:10;stroke-dasharray:none;stroke-opacity:1"
                 id="path1478" />
            </g>
            <g
               id="g1480"
               transform="matrix(1,0,0,-1,139.70611,810.77197)">
              <path
                 d="m 310.055,-79.125 c 5.05,0.914 10.328,1.863 15.437,0.848"
                 style="fill:none;stroke:#000000;stroke-width:1.26872;stroke-linecap:round;stroke-linejoin:round;stroke-miterlimit:10;stroke-dasharray:none;stroke-opacity:1"
                 id="path1482" />
            </g>
            <g
               id="g1484"
               transform="matrix(1,0,0,-1,139.70611,810.77197)">
              <path
                 d="m 312.699,-85.77 c 3.047,1.016 6.328,1.344 9.528,1.25"
                 style="fill:none;stroke:#000000;stroke-width:1.26872;stroke-linecap:round;stroke-linejoin:round;stroke-miterlimit:10;stroke-dasharray:none;stroke-opacity:1"
                 id="path1486" />
            </g>
            <g
               id="g1488"
               transform="matrix(1,0,0,-1,139.70611,810.77197)">
              <path
                 d="m 313.613,-92.605 c 3.344,0.359 6.676,1.265 10.063,0.937"
                 style="fill:none;stroke:#000000;stroke-width:1.26872;stroke-linecap:round;stroke-linejoin:round;stroke-miterlimit:10;stroke-dasharray:none;stroke-opacity:1"
                 id="path1490" />
            </g>
            <g
               id="g1492"
               transform="matrix(1,0,0,-1,139.70611,810.77197)">
              <path
                 d="m 309.656,-96.781 c 5.809,0.469 11.571,1.398 17.367,2.004"
                 style="fill:none;stroke:#000000;stroke-width:1.26872;stroke-linecap:round;stroke-linejoin:round;stroke-miterlimit:10;stroke-dasharray:none;stroke-opacity:1"
                 id="path1494" />
            </g>
          </g>
        </g>
      </g>
    </g>
  </g>
</svg>
