<?xml version="1.0" encoding="UTF-8" standalone="no"?>
<!-- Created by Ashley Blewer - This work is licensed under a Creative Commons Attribution 4.0 International License -->

<svg
   width="544"
   height="480"
   viewBox="0 0 143.93334 127"
   version="1.1"
   id="svg2490"
   inkscape:version="1.2.2 (1:1.2.2+202212051552+b0a8486541)"
   sodipodi:docname="1898-17.5-1.svg"
   xmlns:inkscape="http://www.inkscape.org/namespaces/inkscape"
   xmlns:sodipodi="http://sodipodi.sourceforge.net/DTD/sodipodi-0.dtd"
   xmlns="http://www.w3.org/2000/svg"
   xmlns:svg="http://www.w3.org/2000/svg">
  <sodipodi:namedview
     id="namedview2492"
     pagecolor="#ffffff"
     bordercolor="#666666"
     borderopacity="1.0"
     inkscape:pageshadow="2"
     inkscape:pageopacity="0.0"
     inkscape:pagecheckerboard="0"
     inkscape:document-units="mm"
     showgrid="false"
     units="px"
     inkscape:zoom="0.90583674"
     inkscape:cx="53.541657"
     inkscape:cy="254.46086"
     inkscape:window-width="1846"
     inkscape:window-height="1136"
     inkscape:window-x="0"
     inkscape:window-y="0"
     inkscape:window-maximized="1"
     inkscape:current-layer="g6718"
     inkscape:showpageshadow="2"
     inkscape:deskcolor="#d1d1d1" />
  <defs
     id="defs2487" />
  <g
     inkscape:label="Layer 1"
     inkscape:groupmode="layer"
     id="layer1">
    <g
       id="g4731"
       transform="matrix(0.32961229,0,0,0.32903008,-241.78905,1.73126)"
       style="stroke-width:2.68698">
      <g
         id="g104528"
         transform="matrix(1,0,0,-1,0,792)"
         style="stroke-width:2.68698">
        <g
           id="g104530"
           style="stroke-width:2.68698" />
      </g>
      <g
         id="g104996"
         transform="matrix(1,0,0,-1,0,792)"
         style="stroke-width:2.68698">
        <g
           id="g104998"
           style="stroke-width:2.68698" />
      </g>
      <g
         id="g28852"
         transform="matrix(1.070281,0,0,1.0721748,779.91249,-443.13657)">
        <g
           id="g6718"
           transform="matrix(1.117886,0,0,1.117886,-549.13111,-491.62865)">
          <g
             id="g6523"
             transform="matrix(1.1732528,0,0,1.1732529,-369.3758,-137.88564)">
            <g
               id="g1283"
               transform="matrix(1,0,0,-1,137.6217,693.76841)">
              <path
                 d="m 607.184,-309.477 c 0.328,45.348 -1.032,90.719 -4.575,135.934 0.325,3.543 1.079,7.047 1.082,10.617"
                 style="fill:none;stroke:#000000;stroke-width:2.61674;stroke-linecap:round;stroke-linejoin:round;stroke-miterlimit:10;stroke-dasharray:none;stroke-opacity:1"
                 id="path1285" />
            </g>
            <g
               id="g1287"
               transform="matrix(1,0,0,-1,137.6217,693.76841)">
              <path
                 d="m 603.691,-162.926 104.313,-19.551"
                 style="fill:none;stroke:#000000;stroke-width:2.61674;stroke-linecap:round;stroke-linejoin:round;stroke-miterlimit:10;stroke-dasharray:none;stroke-opacity:1"
                 id="path1289" />
            </g>
            <g
               id="g1291"
               transform="matrix(1,0,0,-1,137.6217,693.76841)">
              <path
                 d="m 603.914,-334.16 c 0,0 72.871,-27.914 103.777,-27.949"
                 style="fill:none;stroke:#000000;stroke-width:2.61674;stroke-linecap:round;stroke-linejoin:round;stroke-miterlimit:10;stroke-dasharray:none;stroke-opacity:1"
                 id="path1293" />
            </g>
            <g
               id="g1295"
               transform="matrix(1,0,0,-1,137.6217,693.76841)">
              <path
                 d="m 664.688,-157.148 c -18.872,-2.18 -38.829,-4.106 -57.606,-6.211"
                 style="fill:none;stroke:#000000;stroke-width:2.61674;stroke-linecap:round;stroke-linejoin:round;stroke-miterlimit:10;stroke-dasharray:none;stroke-opacity:1"
                 id="path1297" />
            </g>
            <g
               id="g1299"
               transform="matrix(1,0,0,-1,137.6217,693.76841)">
              <path
                 d="m 662.758,-156.855 c 0.015,2.003 -0.613,4.218 0.414,6.097"
                 style="fill:none;stroke:#000000;stroke-width:2.61674;stroke-linecap:round;stroke-linejoin:round;stroke-miterlimit:10;stroke-dasharray:none;stroke-opacity:1"
                 id="path1301" />
            </g>
            <g
               id="g1303"
               transform="matrix(1,0,0,-1,137.6217,693.76841)">
              <path
                 d="m 665.328,-152.02 c 14.617,4.579 30.277,7.422 45.535,5.93"
                 style="fill:none;stroke:#000000;stroke-width:2.61674;stroke-linecap:round;stroke-linejoin:round;stroke-miterlimit:10;stroke-dasharray:none;stroke-opacity:1"
                 id="path1305" />
            </g>
            <g
               id="g1307"
               transform="matrix(1,0,0,-1,137.6217,693.76841)">
              <path
                 d="m 667.547,-155.09 c 26.812,-4.133 53.5,-11.699 79.898,-18.551 -1.55,-1.035 7.805,-0.382 5.328,-1.367"
                 style="fill:none;stroke:#000000;stroke-width:2.61674;stroke-linecap:round;stroke-linejoin:round;stroke-miterlimit:10;stroke-dasharray:none;stroke-opacity:1"
                 id="path1309" />
            </g>
            <g
               id="g1311"
               transform="matrix(1,0,0,-1,137.6217,693.76841)">
              <path
                 d="m 662.691,-156.211 c 27.75,-3.059 54.481,-11.047 81.664,-17.039 l 4.532,-1.43"
                 style="fill:none;stroke:#000000;stroke-width:2.61674;stroke-linecap:round;stroke-linejoin:round;stroke-miterlimit:10;stroke-dasharray:none;stroke-opacity:1"
                 id="path1313" />
            </g>
            <g
               id="g1315"
               transform="matrix(1,0,0,-1,137.6217,693.76841)">
              <path
                 d="m 711.668,-165.527 c 0.676,12.25 -1.535,25.004 2.758,36.836"
                 style="fill:none;stroke:#000000;stroke-width:2.61674;stroke-linecap:round;stroke-linejoin:round;stroke-miterlimit:10;stroke-dasharray:none;stroke-opacity:1"
                 id="path1317" />
            </g>
            <g
               id="g1319"
               transform="matrix(1,0,0,-1,137.6217,693.76841)">
              <path
                 d="m 715.648,-127.504 c 16.286,1.336 37.387,-6.363 53.387,-9.469"
                 style="fill:none;stroke:#000000;stroke-width:2.61674;stroke-linecap:round;stroke-linejoin:round;stroke-miterlimit:10;stroke-dasharray:none;stroke-opacity:1"
                 id="path1321" />
            </g>
            <g
               id="g1323"
               transform="matrix(1,0,0,-1,137.6217,693.76841)">
              <path
                 d="m 769.035,-136.973 c 9.149,4.594 19.485,6.532 29.848,5.434"
                 style="fill:none;stroke:#000000;stroke-width:2.61674;stroke-linecap:round;stroke-linejoin:round;stroke-miterlimit:10;stroke-dasharray:none;stroke-opacity:1"
                 id="path1325" />
            </g>
            <g
               id="g1327"
               transform="matrix(1,0,0,-1,137.6217,693.76841)">
              <path
                 d="m 804.641,-133.188 c -18.621,5.196 -45.684,5.047 -63.93,8.215"
                 style="fill:none;stroke:#000000;stroke-width:2.61674;stroke-linecap:round;stroke-linejoin:round;stroke-miterlimit:10;stroke-dasharray:none;stroke-opacity:1"
                 id="path1329" />
            </g>
            <g
               id="g1331"
               transform="matrix(1,0,0,-1,137.6217,693.76841)">
              <path
                 d="m 740.711,-124.973 -25.063,-2.531"
                 style="fill:none;stroke:#000000;stroke-width:2.61674;stroke-linecap:round;stroke-linejoin:round;stroke-miterlimit:10;stroke-dasharray:none;stroke-opacity:1"
                 id="path1333" />
            </g>
            <g
               id="g1335"
               transform="matrix(1,0,0,-1,137.6217,693.76841)">
              <path
                 d="m 804.641,-133.188 c -1.719,-10.718 -4.27,-28.335 -4.957,-38.707"
                 style="fill:none;stroke:#000000;stroke-width:2.61674;stroke-linecap:round;stroke-linejoin:round;stroke-miterlimit:10;stroke-dasharray:none;stroke-opacity:1"
                 id="path1337" />
            </g>
            <g
               id="g1339"
               transform="matrix(1,0,0,-1,137.6217,693.76841)">
              <path
                 d="m 769.035,-136.973 c 0.82,-11.675 -1.535,-28.433 -1.668,-39.015"
                 style="fill:none;stroke:#000000;stroke-width:2.61674;stroke-linecap:round;stroke-linejoin:round;stroke-miterlimit:10;stroke-dasharray:none;stroke-opacity:1"
                 id="path1341" />
            </g>
            <g
               id="g1343"
               transform="matrix(1,0,0,-1,137.6217,693.76841)">
              <path
                 d="m 713.508,-161.059 c 17.336,-3.199 33.93,-10.343 51.254,-13.332"
                 style="fill:none;stroke:#000000;stroke-width:2.61674;stroke-linecap:round;stroke-linejoin:round;stroke-miterlimit:10;stroke-dasharray:none;stroke-opacity:1"
                 id="path1345" />
            </g>
            <g
               id="g1347"
               transform="matrix(1,0,0,-1,137.6217,693.76841)">
              <path
                 d="m 768.891,-175.434 c 8.23,6.465 20.8,6.446 30.742,8.172"
                 style="fill:none;stroke:#000000;stroke-width:2.61674;stroke-linecap:round;stroke-linejoin:round;stroke-miterlimit:10;stroke-dasharray:none;stroke-opacity:1"
                 id="path1349" />
            </g>
            <g
               id="g1351"
               transform="matrix(1,0,0,-1,137.6217,693.76841)">
              <path
                 d="m 799.633,-167.262 c 8.332,0.285 24.41,-3.258 32.344,-4.449"
                 style="fill:none;stroke:#000000;stroke-width:2.61674;stroke-linecap:round;stroke-linejoin:round;stroke-miterlimit:10;stroke-dasharray:none;stroke-opacity:1"
                 id="path1353" />
            </g>
            <g
               id="g1355"
               transform="matrix(1,0,0,-1,137.6217,693.76841)">
              <path
                 d="m 708.004,-182.477 c 34.336,2.59 67.383,9.274 95.98,11.395 8.399,0.684 19.672,4.477 26.797,-0.223"
                 style="fill:none;stroke:#000000;stroke-width:2.61674;stroke-linecap:round;stroke-linejoin:round;stroke-miterlimit:10;stroke-dasharray:none;stroke-opacity:1"
                 id="path1357" />
            </g>
            <g
               id="g1359"
               transform="matrix(1,0,0,-1,137.6217,693.76841)">
              <path
                 d="m 708.004,-182.477 c 3.625,-61.257 -3.152,-122.621 0.832,-183.867"
                 style="fill:none;stroke:#000000;stroke-width:2.61674;stroke-linecap:round;stroke-linejoin:round;stroke-miterlimit:10;stroke-dasharray:none;stroke-opacity:1"
                 id="path1361" />
            </g>
            <g
               id="g1363"
               transform="matrix(1,0,0,-1,137.6217,693.76841)">
              <path
                 d="m 833.164,-171.695 c 1.539,-5.867 0.004,-18.754 0.316,-24.625"
                 style="fill:none;stroke:#000000;stroke-width:2.61674;stroke-linecap:round;stroke-linejoin:round;stroke-miterlimit:10;stroke-dasharray:none;stroke-opacity:1"
                 id="path1365" />
            </g>
            <g
               id="g1367"
               transform="matrix(1,0,0,-1,137.6217,693.76841)">
              <path
                 d="m 709.312,-209.367 c 40.372,5.426 83.301,13.652 124.168,13.047"
                 style="fill:none;stroke:#000000;stroke-width:2.61674;stroke-linecap:round;stroke-linejoin:round;stroke-miterlimit:10;stroke-dasharray:none;stroke-opacity:1"
                 id="path1369" />
            </g>
            <g
               id="g1371"
               transform="matrix(1,0,0,-1,137.6217,693.76841)">
              <path
                 d="m 833.48,-196.32 c 3.426,-18.75 -1.039,-39.703 -1.996,-58.368 -1.254,-3.234 0.723,-7.566 -0.601,-10.105 l -1.324,-6.316 -4.004,4.246"
                 style="fill:none;stroke:#000000;stroke-width:2.61674;stroke-linecap:round;stroke-linejoin:round;stroke-miterlimit:10;stroke-dasharray:none;stroke-opacity:1"
                 id="path1373" />
            </g>
            <g
               id="g1375"
               transform="matrix(1,0,0,-1,137.6217,693.76841)">
              <path
                 d="m 829.559,-271.109 c 3.55,11.136 14.726,7.906 6.617,-3.84"
                 style="fill:none;stroke:#000000;stroke-width:2.61674;stroke-linecap:round;stroke-linejoin:round;stroke-miterlimit:10;stroke-dasharray:none;stroke-opacity:1"
                 id="path1377" />
            </g>
            <g
               id="g1379"
               transform="matrix(1,0,0,-1,137.6217,693.76841)">
              <path
                 d="m 838.684,-275.992 c -0.2,0.465 -0.567,1.121 -0.551,0.984"
                 style="fill:none;stroke:#000000;stroke-width:2.61674;stroke-linecap:round;stroke-linejoin:round;stroke-miterlimit:10;stroke-dasharray:none;stroke-opacity:1"
                 id="path1381" />
            </g>
            <g
               id="g1383"
               transform="matrix(1,0,0,-1,137.6217,693.76841)">
              <path
                 d="m 829.66,-309.625 c -0.461,-8.148 2.117,-16.219 1.012,-24.355"
                 style="fill:none;stroke:#000000;stroke-width:2.61674;stroke-linecap:round;stroke-linejoin:round;stroke-miterlimit:10;stroke-dasharray:none;stroke-opacity:1"
                 id="path1385" />
            </g>
            <g
               id="g1387"
               transform="matrix(1,0,0,-1,137.6217,693.76841)">
              <path
                 d="m 830.672,-333.98 c -24.012,-5.762 -50.406,-14.176 -74.059,-21.301 -12.484,-3.555 -39.601,-21.399 -48.332,-10.949"
                 style="fill:none;stroke:#000000;stroke-width:2.61674;stroke-linecap:round;stroke-linejoin:round;stroke-miterlimit:10;stroke-dasharray:none;stroke-opacity:1"
                 id="path1389" />
            </g>
            <g
               id="g1391"
               transform="matrix(1,0,0,-1,137.6217,693.76841)">
              <path
                 d="m 621.543,-269.145 c 9.805,28.567 20.332,-25.664 6.582,-16.738"
                 style="fill:none;stroke:#000000;stroke-width:2.61674;stroke-linecap:round;stroke-linejoin:round;stroke-miterlimit:10;stroke-dasharray:none;stroke-opacity:1"
                 id="path1393" />
            </g>
            <g
               id="g1395"
               transform="matrix(1,0,0,-1,137.6217,693.76841)">
              <path
                 d="m 623.18,-271.883 c 6.09,-10.629 7.312,-29.465 7.804,-43.211"
                 style="fill:none;stroke:#000000;stroke-width:2.61674;stroke-linecap:round;stroke-linejoin:round;stroke-miterlimit:10;stroke-dasharray:none;stroke-opacity:1"
                 id="path1397" />
            </g>
            <g
               id="g1399"
               transform="matrix(1,0,0,-1,137.6217,693.76841)">
              <path
                 d="m 619.367,-273.617 c 2.301,-12.571 4.02,-30.371 11.043,-42.965"
                 style="fill:none;stroke:#000000;stroke-width:2.61674;stroke-linecap:round;stroke-linejoin:round;stroke-miterlimit:10;stroke-dasharray:none;stroke-opacity:1"
                 id="path1401" />
            </g>
            <g
               id="g1403"
               transform="matrix(1,0,0,-1,137.6217,693.76841)">
              <path
                 d="m 623.996,-310.062 c -12.918,-1.172 -7.523,-18.032 3.215,-8.887"
                 style="fill:none;stroke:#000000;stroke-width:2.61674;stroke-linecap:round;stroke-linejoin:round;stroke-miterlimit:10;stroke-dasharray:none;stroke-opacity:1"
                 id="path1405" />
            </g>
            <g
               id="g1407"
               transform="matrix(1,0,0,-1,137.6217,693.76841)">
              <path
                 d="m 614.43,-312.777 c 14.82,-22.403 -35.418,-29.106 -21.848,-4.157 8.238,9.145 27.598,11.52 24.727,-6.3"
                 style="fill:none;stroke:#000000;stroke-width:2.61674;stroke-linecap:round;stroke-linejoin:round;stroke-miterlimit:10;stroke-dasharray:none;stroke-opacity:1"
                 id="path1409" />
            </g>
            <g
               id="g1411"
               transform="matrix(1,0,0,-1,137.6217,693.76841)">
              <path
                 d="m 728.785,-222.625 c -6.742,-7.508 10.195,-1.551 -0.097,-0.238"
                 style="fill:none;stroke:#000000;stroke-width:2.61674;stroke-linecap:round;stroke-linejoin:round;stroke-miterlimit:10;stroke-dasharray:none;stroke-opacity:1"
                 id="path1413" />
            </g>
            <g
               id="g1415"
               transform="matrix(1,0,0,-1,137.6217,693.76841)">
              <path
                 d="m 828.73,-211.609 c -0.792,0.496 10.016,-4.45 0.161,0.933"
                 style="fill:none;stroke:#000000;stroke-width:2.61674;stroke-linecap:round;stroke-linejoin:round;stroke-miterlimit:10;stroke-dasharray:none;stroke-opacity:1"
                 id="path1417" />
            </g>
            <g
               id="g1419"
               transform="matrix(1,0,0,-1,137.6217,693.76841)">
              <path
                 d="m 826.742,-218.812 c 1.645,-15.641 -1.211,-32.622 -1.187,-48.051"
                 style="fill:none;stroke:#000000;stroke-width:2.61674;stroke-linecap:round;stroke-linejoin:round;stroke-miterlimit:10;stroke-dasharray:none;stroke-opacity:1"
                 id="path1421" />
            </g>
            <g
               id="g1423"
               transform="matrix(1,0,0,-1,137.6217,693.76841)">
              <path
                 d="m 823.121,-217.242 c -17.457,-3.172 -38.035,-3.512 -54.168,-5.914"
                 style="fill:none;stroke:#000000;stroke-width:2.61674;stroke-linecap:round;stroke-linejoin:round;stroke-miterlimit:10;stroke-dasharray:none;stroke-opacity:1"
                 id="path1425" />
            </g>
            <g
               id="g1427"
               transform="matrix(1,0,0,-1,137.6217,693.76841)">
              <path
                 d="m 766.965,-226.066 c -1.77,-22.446 -1.258,-44.989 -0.918,-67.555 -0.129,-5.379 0.402,-17.496 1.211,-19.313"
                 style="fill:none;stroke:#000000;stroke-width:2.61674;stroke-linecap:round;stroke-linejoin:round;stroke-miterlimit:10;stroke-dasharray:none;stroke-opacity:1"
                 id="path1429" />
            </g>
            <g
               id="g1431"
               transform="matrix(1,0,0,-1,137.6217,693.76841)">
              <path
                 d="m 813.898,-306.074 c -12.484,-3.77 -32.675,-0.711 -44.418,-9.762"
                 style="fill:none;stroke:#000000;stroke-width:2.61674;stroke-linecap:round;stroke-linejoin:round;stroke-miterlimit:10;stroke-dasharray:none;stroke-opacity:1"
                 id="path1433" />
            </g>
            <g
               id="g1435"
               transform="matrix(1,0,0,-1,137.6217,693.76841)">
              <path
                 d="m 726.742,-349.316 c -5.094,-8.899 5.86,-5.207 -0.14,-2.215"
                 style="fill:none;stroke:#000000;stroke-width:2.61674;stroke-linecap:round;stroke-linejoin:round;stroke-miterlimit:10;stroke-dasharray:none;stroke-opacity:1"
                 id="path1437" />
            </g>
            <g
               id="g1439"
               transform="matrix(1,0,0,-1,137.6217,693.76841)">
              <path
                 d="m 727.965,-221.723 c -8.16,-11.554 15.566,-6.589 0.594,-0.859"
                 style="fill:none;stroke:#000000;stroke-width:2.61674;stroke-linecap:round;stroke-linejoin:round;stroke-miterlimit:10;stroke-dasharray:none;stroke-opacity:1"
                 id="path1441" />
            </g>
            <g
               id="g1443"
               transform="matrix(1,0,0,-1,137.6217,693.76841)">
              <path
                 d="m 816.355,-235.133 c 0.36,-3.926 0.247,-9.16 -0.726,-12.484"
                 style="fill:none;stroke:#000000;stroke-width:2.61674;stroke-linecap:round;stroke-linejoin:round;stroke-miterlimit:10;stroke-dasharray:none;stroke-opacity:1"
                 id="path1445" />
            </g>
            <g
               id="g1447"
               transform="matrix(1,0,0,-1,137.6217,693.76841)">
              <path
                 d="m 815.629,-247.617 c -3.945,-0.945 -10.305,-2.571 -14.524,-3.496"
                 style="fill:none;stroke:#000000;stroke-width:2.61674;stroke-linecap:round;stroke-linejoin:round;stroke-miterlimit:10;stroke-dasharray:none;stroke-opacity:1"
                 id="path1449" />
            </g>
            <g
               id="g1451"
               transform="matrix(1,0,0,-1,137.6217,693.76841)">
              <path
                 d="m 816.355,-235.133 c -3.07,-0.578 -16.875,-0.867 -17.167,-0.199"
                 style="fill:none;stroke:#000000;stroke-width:2.61674;stroke-linecap:round;stroke-linejoin:round;stroke-miterlimit:10;stroke-dasharray:none;stroke-opacity:1"
                 id="path1453" />
            </g>
            <g
               id="g1455"
               transform="matrix(1,0,0,-1,137.6217,693.76841)">
              <path
                 d="m 799.48,-236 c 1.825,-4.555 0.832,-9.766 1.125,-14.562"
                 style="fill:none;stroke:#000000;stroke-width:2.61674;stroke-linecap:round;stroke-linejoin:round;stroke-miterlimit:10;stroke-dasharray:none;stroke-opacity:1"
                 id="path1457" />
            </g>
            <g
               id="g1459"
               transform="matrix(1,0,0,-1,137.6217,693.76841)">
              <path
                 d="m 825.555,-266.863 c -23.493,22.406 -46.617,-37.043 -16.282,-37.43 l 1.516,-0.215 3.109,-1.566"
                 style="fill:none;stroke:#000000;stroke-width:2.61674;stroke-linecap:round;stroke-linejoin:round;stroke-miterlimit:10;stroke-dasharray:none;stroke-opacity:1"
                 id="path1461" />
            </g>
            <g
               id="g1463"
               transform="matrix(1,0,0,-1,137.6217,693.76841)">
              <path
                 d="m 829.559,-271.109 c -15.684,-4.434 -25.61,-36.301 -6.375,-37.86"
                 style="fill:none;stroke:#000000;stroke-width:2.61674;stroke-linecap:round;stroke-linejoin:round;stroke-miterlimit:10;stroke-dasharray:none;stroke-opacity:1"
                 id="path1465" />
            </g>
            <g
               id="g1467"
               transform="matrix(1,0,0,-1,137.6217,693.76841)">
              <path
                 d="m 838.133,-275.008 c -9.418,-2.269 -14.508,-28.086 -7.871,-35.582"
                 style="fill:none;stroke:#000000;stroke-width:2.61674;stroke-linecap:round;stroke-linejoin:round;stroke-miterlimit:10;stroke-dasharray:none;stroke-opacity:1"
                 id="path1469" />
            </g>
            <g
               id="g1471"
               transform="matrix(1,0,0,-1,137.6217,693.76841)">
              <path
                 d="m 848.465,-277.301 c -9.957,-5.687 -18.785,-23.91 -10.945,-32.363"
                 style="fill:none;stroke:#000000;stroke-width:2.61674;stroke-linecap:round;stroke-linejoin:round;stroke-miterlimit:10;stroke-dasharray:none;stroke-opacity:1"
                 id="path1473" />
            </g>
            <g
               id="g1475"
               transform="matrix(1,0,0,-1,137.6217,693.76841)">
              <path
                 d="m 830.262,-310.59 c 27.816,-3.652 34.355,38.375 6.55,35.988"
                 style="fill:none;stroke:#000000;stroke-width:2.61674;stroke-linecap:round;stroke-linejoin:round;stroke-miterlimit:10;stroke-dasharray:none;stroke-opacity:1"
                 id="path1477" />
            </g>
            <g
               id="g1479"
               transform="matrix(1,0,0,-1,137.6217,693.76841)">
              <path
                 d="m 827.449,-305.879 c -2.562,-0.062 -5.887,-0.742 -7.906,1.473"
                 style="fill:none;stroke:#000000;stroke-width:2.61674;stroke-linecap:round;stroke-linejoin:round;stroke-miterlimit:10;stroke-dasharray:none;stroke-opacity:1"
                 id="path1481" />
            </g>
            <g
               id="g1483"
               transform="matrix(1,0,0,-1,137.6217,693.76841)">
              <path
                 d="m 785.887,-179 c 1.07,-4.988 -1.957,-11.059 -0.125,-16.191"
                 style="fill:none;stroke:#000000;stroke-width:2.61674;stroke-linecap:round;stroke-linejoin:round;stroke-miterlimit:10;stroke-dasharray:none;stroke-opacity:1"
                 id="path1485" />
            </g>
            <g
               id="g1487"
               transform="matrix(1,0,0,-1,137.6217,693.76841)">
              <path
                 d="m 785.762,-195.191 c 3.152,0.058 6.664,2.992 9.609,2.046"
                 style="fill:none;stroke:#000000;stroke-width:2.61674;stroke-linecap:round;stroke-linejoin:round;stroke-miterlimit:10;stroke-dasharray:none;stroke-opacity:1"
                 id="path1489" />
            </g>
            <g
               id="g1491"
               transform="matrix(1,0,0,-1,137.6217,693.76841)">
              <path
                 d="m 795.418,-192.168 c 0.195,8.324 2.59,17.656 -9.531,13.168"
                 style="fill:none;stroke:#000000;stroke-width:2.61674;stroke-linecap:round;stroke-linejoin:round;stroke-miterlimit:10;stroke-dasharray:none;stroke-opacity:1"
                 id="path1493" />
            </g>
            <g
               id="g1495"
               transform="matrix(1,0,0,-1,137.6217,693.76841)">
              <path
                 d="m 817.402,-178.918 c 0,0 1.239,-8.574 1.688,-11.773"
                 style="fill:none;stroke:#000000;stroke-width:2.61674;stroke-linecap:round;stroke-linejoin:round;stroke-miterlimit:10;stroke-dasharray:none;stroke-opacity:1"
                 id="path1497" />
            </g>
            <g
               id="g1499"
               transform="matrix(1,0,0,-1,137.6217,693.76841)">
              <path
                 d="m 820.027,-191.391 c 0.95,2.079 5.828,1.633 8.028,1.336"
                 style="fill:none;stroke:#000000;stroke-width:2.61674;stroke-linecap:round;stroke-linejoin:round;stroke-miterlimit:10;stroke-dasharray:none;stroke-opacity:1"
                 id="path1501" />
            </g>
            <g
               id="g1503"
               transform="matrix(1,0,0,-1,137.6217,693.76841)">
              <path
                 d="m 828.055,-190.055 c -0.399,4.817 -2.504,10.821 -2.508,13.969"
                 style="fill:none;stroke:#000000;stroke-width:2.61674;stroke-linecap:round;stroke-linejoin:round;stroke-miterlimit:10;stroke-dasharray:none;stroke-opacity:1"
                 id="path1505" />
            </g>
            <g
               id="g1507"
               transform="matrix(1,0,0,-1,137.6217,693.76841)">
              <path
                 d="m 824.969,-175.473 c -2.313,-1.535 -4.832,-2.875 -7.567,-3.445"
                 style="fill:none;stroke:#000000;stroke-width:2.61674;stroke-linecap:round;stroke-linejoin:round;stroke-miterlimit:10;stroke-dasharray:none;stroke-opacity:1"
                 id="path1509" />
            </g>
            <g
               id="g1511"
               transform="matrix(1,0,0,-1,137.6217,693.76841)">
              <path
                 d="m 794.344,-144.766 c -14.922,3.168 2.062,-27.703 3.793,-6.984 -0.942,0.293 -0.457,3.84 -2.301,3.305"
                 style="fill:none;stroke:#000000;stroke-width:2.61674;stroke-linecap:round;stroke-linejoin:round;stroke-miterlimit:10;stroke-dasharray:none;stroke-opacity:1"
                 id="path1513" />
            </g>
            <g
               id="g1515"
               transform="matrix(1,0,0,-1,137.6217,693.76841)">
              <path
                 d="m 795.684,-146.707 c -10.789,15.332 -17.872,-21.477 -1.473,-13.66"
                 style="fill:none;stroke:#000000;stroke-width:2.61674;stroke-linecap:round;stroke-linejoin:round;stroke-miterlimit:10;stroke-dasharray:none;stroke-opacity:1"
                 id="path1517" />
            </g>
            <g
               id="g1519"
               transform="matrix(1,0,0,-1,137.6217,693.76841)">
              <path
                 d="m 755.828,-237.504 c -4.539,-1.258 1.68,-7.851 1.18,-3.793"
                 style="fill:none;stroke:#000000;stroke-width:2.61674;stroke-linecap:round;stroke-linejoin:round;stroke-miterlimit:10;stroke-dasharray:none;stroke-opacity:1"
                 id="path1521" />
            </g>
            <g
               id="g1523"
               transform="matrix(1,0,0,-1,137.6217,693.76841)">
              <path
                 d="m 794.168,-317.895 c -0.75,-1.355 8.047,-2.066 1.484,0.633"
                 style="fill:none;stroke:#000000;stroke-width:2.61674;stroke-linecap:round;stroke-linejoin:round;stroke-miterlimit:10;stroke-dasharray:none;stroke-opacity:1"
                 id="path1525" />
            </g>
            <g
               id="g1527"
               transform="matrix(1,0,0,-1,137.6217,693.76841)">
              <path
                 d="m 823.414,-319.754 c -6.059,-3.547 5.586,-4.066 -0.125,-1.148"
                 style="fill:none;stroke:#000000;stroke-width:2.61674;stroke-linecap:round;stroke-linejoin:round;stroke-miterlimit:10;stroke-dasharray:none;stroke-opacity:1"
                 id="path1529" />
            </g>
            <g
               id="g1531"
               transform="matrix(1,0,0,-1,137.6217,693.76841)">
              <path
                 d="m 808.41,-263.469 c -20.547,3.629 -29.883,-26.57 -12.308,-36.238"
                 style="fill:none;stroke:#000000;stroke-width:2.61674;stroke-linecap:round;stroke-linejoin:round;stroke-miterlimit:10;stroke-dasharray:none;stroke-opacity:1"
                 id="path1533" />
            </g>
          </g>
        </g>
      </g>
    </g>
  </g>
</svg>
