<?xml version="1.0" encoding="UTF-8" standalone="no"?>
<!-- Created by Ashley Blewer - This work is licensed under a Creative Commons Attribution 4.0 International License -->

<svg
   width="544"
   height="480"
   viewBox="0 0 143.93334 127"
   version="1.1"
   id="svg2490"
   inkscape:version="1.2.2 (1:1.2.2+202212051552+b0a8486541)"
   sodipodi:docname="1898-17.5-3.svg"
   xmlns:inkscape="http://www.inkscape.org/namespaces/inkscape"
   xmlns:sodipodi="http://sodipodi.sourceforge.net/DTD/sodipodi-0.dtd"
   xmlns="http://www.w3.org/2000/svg"
   xmlns:svg="http://www.w3.org/2000/svg">
  <sodipodi:namedview
     id="namedview2492"
     pagecolor="#ffffff"
     bordercolor="#666666"
     borderopacity="1.0"
     inkscape:pageshadow="2"
     inkscape:pageopacity="0.0"
     inkscape:pagecheckerboard="0"
     inkscape:document-units="mm"
     showgrid="false"
     units="px"
     inkscape:zoom="0.90583674"
     inkscape:cx="53.541657"
     inkscape:cy="254.46086"
     inkscape:window-width="1846"
     inkscape:window-height="1136"
     inkscape:window-x="0"
     inkscape:window-y="0"
     inkscape:window-maximized="1"
     inkscape:current-layer="g6395"
     inkscape:showpageshadow="2"
     inkscape:deskcolor="#d1d1d1" />
  <defs
     id="defs2487" />
  <g
     inkscape:label="Layer 1"
     inkscape:groupmode="layer"
     id="layer1">
    <g
       id="g4731"
       transform="matrix(0.32961229,0,0,0.32903008,-241.78905,1.73126)"
       style="stroke-width:2.68698">
      <g
         id="g104528"
         transform="matrix(1,0,0,-1,0,792)"
         style="stroke-width:2.68698">
        <g
           id="g104530"
           style="stroke-width:2.68698" />
      </g>
      <g
         id="g104996"
         transform="matrix(1,0,0,-1,0,792)"
         style="stroke-width:2.68698">
        <g
           id="g104998"
           style="stroke-width:2.68698" />
      </g>
      <g
         id="g28852"
         transform="matrix(1.070281,0,0,1.0721748,779.91249,-443.13657)">
        <g
           id="g6718"
           transform="matrix(1.117886,0,0,1.117886,-549.13111,-491.62865)">
          <g
             id="g6395"
             transform="matrix(0.53415107,0,0,0.53415109,441.93669,415.26868)">
            <g
               id="g1535"
               transform="matrix(1,0,0,-1,137.6217,693.76841)">
              <path
                 d="m 94.992,-84.059 c 0.332,-0.589 5.188,-0.543 5.301,-0.32 2.187,0.473 2.707,-0.289 6.258,0.445 5.437,-1.101 11.351,1.594 17.152,0.551 8.262,-0.785 18.297,0.18 25.406,1.434 2.551,-0.129 7.856,-0.25 8.883,-0.973 -0.262,0.785 -0.043,-0.269 -0.422,-0.242"
                 style="fill:none;stroke:#000000;stroke-width:2.61674;stroke-linecap:round;stroke-linejoin:round;stroke-miterlimit:10;stroke-dasharray:none;stroke-opacity:1"
                 id="path1537" />
            </g>
            <g
               id="g1563"
               transform="matrix(1,0,0,-1,137.6217,693.76841)">
              <path
                 d="m 159.195,-87.973 c 1.477,-3.976 -0.164,-11.965 -0.605,-16.929 0.726,-8.375 -2.5,-15.41 -2.621,-24.016 0.039,-4.262 -0.43,-8.75 0.636,-12.656 -1.476,-3.043 0.68,-6.696 -0.144,-9.492 1.601,-2.192 0.113,-3.786 1.402,-5.352 -0.429,-0.535 -0.351,-1.332 -1.371,-1.359"
                 style="fill:none;stroke:#000000;stroke-width:2.61674;stroke-linecap:round;stroke-linejoin:round;stroke-miterlimit:10;stroke-dasharray:none;stroke-opacity:1"
                 id="path1565" />
            </g>
            <g
               id="g1567"
               transform="matrix(1,0,0,-1,137.6217,693.76841)">
              <path
                 d="m 157.562,-158.184 c 1.286,-1.14 -5.214,0.25 -8.015,-0.597 -6.703,-0.047 -13.363,-2.344 -19.883,-3.34 -3.844,-2.281 -9.469,-0.086 -13.945,-0.941 -6.371,-0.211 -14.578,0.703 -20.813,0.347 0.762,-0.406 -0.324,0.824 -1.027,1.25"
                 style="fill:none;stroke:#000000;stroke-width:2.61674;stroke-linecap:round;stroke-linejoin:round;stroke-miterlimit:10;stroke-dasharray:none;stroke-opacity:1"
                 id="path1569" />
            </g>
            <g
               id="g1571"
               transform="matrix(1,0,0,-1,137.6217,693.76841)">
              <path
                 d="m 93.523,-159.945 c -2.726,-1.684 1.27,4.015 0.165,6.531 1.437,8.957 1.367,17.973 4.472,26.746 -0.262,14.32 -0.297,30.953 0.453,43.395 l -0.172,0.48 0.282,-0.016"
                 style="fill:none;stroke:#000000;stroke-width:2.61674;stroke-linecap:round;stroke-linejoin:round;stroke-miterlimit:10;stroke-dasharray:none;stroke-opacity:1"
                 id="path1573" />
            </g>
            <g
               id="g1575"
               transform="matrix(1,0,0,-1,137.6217,693.76841)">
              <path
                 d="m 99.629,-90.793 c 0.918,0.344 6.488,0.402 7.683,-0.805 4.29,-3.14 -0.57,-8.277 -5.429,-5.062 -2.992,0.683 -2.34,1.152 -2.285,4.062"
                 style="fill:none;stroke:#000000;stroke-width:2.61674;stroke-linecap:round;stroke-linejoin:round;stroke-miterlimit:10;stroke-dasharray:none;stroke-opacity:1"
                 id="path1577" />
            </g>
            <g
               id="g1579"
               transform="matrix(1,0,0,-1,137.6217,693.76841)">
              <path
                 d="m 100.699,-109.367 c -3.09,-0.688 1.895,-0.149 2.918,-1.18 2.926,0.735 5.309,-3.484 4.469,-4.129 0.184,-2.754 -5.418,-2.297 -7.676,-0.351 -4.734,-0.434 -0.301,4.902 1.25,4.851"
                 style="fill:none;stroke:#000000;stroke-width:2.61674;stroke-linecap:round;stroke-linejoin:round;stroke-miterlimit:10;stroke-dasharray:none;stroke-opacity:1"
                 id="path1581" />
            </g>
            <g
               id="g1583"
               transform="matrix(1,0,0,-1,137.6217,693.76841)">
              <path
                 d="m 101.336,-128.195 c 1.051,-0.485 6.812,0.855 6.711,-2.117 2.445,-4.559 -6.43,-4.778 -8.906,-1.782 -1.461,-0.472 0.379,4.84 0.515,3.387"
                 style="fill:none;stroke:#000000;stroke-width:2.61674;stroke-linecap:round;stroke-linejoin:round;stroke-miterlimit:10;stroke-dasharray:none;stroke-opacity:1"
                 id="path1585" />
            </g>
            <g
               id="g1587"
               transform="matrix(1,0,0,-1,137.6217,693.76841)">
              <path
                 d="m 101.09,-145.531 c -3.52,-0.914 4.555,1.472 5.543,-0.746 2.48,-1.293 3.195,-4.739 1.422,-4.821 -4.266,-1.257 -7.617,-2.34 -10.219,2.036 1.152,0.402 -1.024,1.874 0.566,1.136"
                 style="fill:none;stroke:#000000;stroke-width:2.61674;stroke-linecap:round;stroke-linejoin:round;stroke-miterlimit:10;stroke-dasharray:none;stroke-opacity:1"
                 id="path1589" />
            </g>
            <g
               id="g1591"
               transform="matrix(1,0,0,-1,137.6217,693.76841)">
              <path
                 d="m 113.062,-162.207 c -0.863,0.062 1.071,-0.586 0.274,2.805 0.289,5.55 -0.922,11.433 -0.039,15.16 0.238,2.398 4.375,3.172 8.078,3.371 8.285,-1.137 15.055,-0.078 22.777,0.152 1.317,0.063 4.426,-0.488 6.071,-0.511 1.988,1.41 5.425,-0.204 4.648,0.089 0.684,-2.539 1.981,-7.14 0.102,-11.027 0.215,-2 0.656,-6.086 -0.52,-7.48"
                 style="fill:none;stroke:#000000;stroke-width:2.61674;stroke-linecap:round;stroke-linejoin:round;stroke-miterlimit:10;stroke-dasharray:none;stroke-opacity:1"
                 id="path1593" />
            </g>
            <g
               id="g1595"
               transform="matrix(1,0,0,-1,137.6217,693.76841)">
              <path
                 d="m 156.918,-85.75 c -0.106,0.863 1.578,-6.477 0.066,-8.773 0.289,-5.438 -4.066,-7.598 -8.347,-7.204 -2.5,0.45 -8.012,0.379 -11.09,-0.554 -4.301,-0.922 -8.285,-0.754 -12.41,-0.383 -2.254,-0.168 -5.668,0.891 -7.043,1.609 -0.649,-0.148 -3.399,0.875 -3.246,0.961 -1.77,4.039 0.144,9.153 0.09,12.879 l -0.028,-0.57"
                 style="fill:none;stroke:#000000;stroke-width:2.61674;stroke-linecap:round;stroke-linejoin:round;stroke-miterlimit:10;stroke-dasharray:none;stroke-opacity:1"
                 id="path1597" />
            </g>
            <g
               id="g1599"
               transform="matrix(1,0,0,-1,137.6217,693.76841)">
              <path
                 d="m 139.945,-102.133 c -1.105,1.246 3.301,-0.793 5.336,-0.308 3.004,-0.864 6.774,-1.172 8.34,-1.289 0.254,-2.547 -0.07,-5.922 0.125,-9.516 -0.609,-7.141 -1.801,-15.906 -2.238,-21.027 -1.481,-3.61 -7.418,-4.567 -10.625,-2.915 -6.406,0.411 -12.395,0.575 -18.149,0.282 -2.507,0.297 -5.703,-0.371 -7.187,0.281 -2.539,0.082 -2.305,1.859 -2.828,5.34 1.453,5.887 -0.86,13.867 0.336,19.597 -0.176,3.415 0.156,6.958 2.816,7.61 3.477,1.465 8.66,1.805 11.945,2.012 1.36,-0.344 0.094,0.074 0.719,0.175"
                 style="fill:none;stroke:#000000;stroke-width:2.61674;stroke-linecap:round;stroke-linejoin:round;stroke-miterlimit:10;stroke-dasharray:none;stroke-opacity:1"
                 id="path1601" />
            </g>
            <g
               id="g1603"
               transform="matrix(1,0,0,-1,137.6217,693.76841)">
              <path
                 d="m 210.277,-84.617 c -1.316,0.406 7.137,1.144 9.766,1.449 13.012,2.277 26.18,2.574 39.324,2.426 1.84,1.113 7.367,-1.797 7.063,-0.742"
                 style="fill:none;stroke:#000000;stroke-width:2.61674;stroke-linecap:round;stroke-linejoin:round;stroke-miterlimit:10;stroke-dasharray:none;stroke-opacity:1"
                 id="path1605" />
            </g>
            <g
               id="g1607"
               transform="matrix(1,0,0,-1,137.6217,693.76841)">
              <path
                 d="m 266.316,-84.09 c 0.461,-6.219 0.098,-14.48 0.778,-20.676 0.871,-6.039 0.324,-10.922 0.832,-16.187 0.465,-4.91 -0.449,-10.817 0.258,-15.031 0.226,-1.473 -0.989,-4.328 -0.844,-6.289 -0.848,-0.442 -0.836,-4.946 -0.434,-3.399 -0.07,-2.758 0.184,-2.469 -0.347,-3.18 -0.489,-2.476 -0.375,-4.382 -0.602,-4.199 0.27,0.543 0.309,-1.269 -1.328,-0.164 -0.145,-1.094 -1.567,-0.465 -3.699,-0.293 -8.075,0.453 -16.969,2.238 -25.118,1.067 -4.183,-0.532 -10.257,-0.313 -13.832,-0.149 -5.488,0.363 -10.617,0.508 -13.925,-1.719 -0.168,0.254 0.175,-0.293 -0.215,0.352 -0.074,2.93 -1.028,7.766 -1.047,10.906 -0.18,6.91 1.16,12.332 -0.465,18.828 0.422,5.078 -1.672,10.118 -0.168,14.95 -0.84,8.726 1.945,17.972 1.524,26.961 0.562,0.394 -0.227,-0.504 0.242,-0.602"
                 style="fill:none;stroke:#000000;stroke-width:2.61674;stroke-linecap:round;stroke-linejoin:round;stroke-miterlimit:10;stroke-dasharray:none;stroke-opacity:1"
                 id="path1609" />
            </g>
            <g
               id="g1611"
               transform="matrix(1,0,0,-1,137.6217,693.76841)">
              <path
                 d="m 207.852,-100.23 c -1.731,-0.5 0.812,0.429 4.125,0.171 4.621,0.731 8.332,0.403 12.765,1.047 2.906,-0.89 3.438,-1.152 2.946,-1.117"
                 style="fill:none;stroke:#000000;stroke-width:2.61674;stroke-linecap:round;stroke-linejoin:round;stroke-miterlimit:10;stroke-dasharray:none;stroke-opacity:1"
                 id="path1613" />
            </g>
            <g
               id="g1615"
               transform="matrix(1,0,0,-1,137.6217,693.76841)">
              <path
                 d="m 228.723,-97.945 c 0.113,-1 -0.098,-0.946 -0.36,-4.157 -0.301,-2.175 1.496,-3.164 4.797,-2.671 2.805,-0.239 7.774,0.039 8.887,0.394 0.109,-0.973 3.648,2.199 2.73,3.211 1.055,3.43 -0.625,2.887 -3.289,4.949 -4.445,0.285 -9.992,-1.234 -13.019,-2.789 -0.121,-0.472 -1.602,-1.535 -0.977,-0.281"
                 style="fill:none;stroke:#000000;stroke-width:2.61674;stroke-linecap:round;stroke-linejoin:round;stroke-miterlimit:10;stroke-dasharray:none;stroke-opacity:1"
                 id="path1617" />
            </g>
            <g
               id="g1619"
               transform="matrix(1,0,0,-1,137.6217,693.76841)">
              <path
                 d="m 244.594,-99.32 c 1.051,-0.887 7.367,-1.68 10.504,-0.86 1.129,0.043 2.031,0.051 2.949,-1.367"
                 style="fill:none;stroke:#000000;stroke-width:2.61674;stroke-linecap:round;stroke-linejoin:round;stroke-miterlimit:10;stroke-dasharray:none;stroke-opacity:1"
                 id="path1621" />
            </g>
            <g
               id="g1623"
               transform="matrix(1,0,0,-1,137.6217,693.76841)">
              <path
                 d="m 206.598,-138.723 c 0.054,-0.41 5.98,1.52 8.054,1.235 5,-1.074 11.989,-0.176 15.184,-1.184 -0.805,1.375 -0.332,-0.613 -0.754,0.246"
                 style="fill:none;stroke:#000000;stroke-width:2.61674;stroke-linecap:round;stroke-linejoin:round;stroke-miterlimit:10;stroke-dasharray:none;stroke-opacity:1"
                 id="path1625" />
            </g>
            <g
               id="g1627"
               transform="matrix(1,0,0,-1,137.6217,693.76841)">
              <path
                 d="m 228.371,-133.641 c -0.508,-0.402 0.098,-0.316 0.117,-2.425 -1.207,-2.086 1.176,-3.286 5.266,-3.348 2.93,-1.102 7.551,-0.953 8.207,-0.75 1.441,0.602 0.297,6.875 0.434,5.312 0.824,0.391 -5.618,2.27 -8.422,1.43 -3.586,0.559 -6.145,-3.152 -8.004,-1.277"
                 style="fill:none;stroke:#000000;stroke-width:2.61674;stroke-linecap:round;stroke-linejoin:round;stroke-miterlimit:10;stroke-dasharray:none;stroke-opacity:1"
                 id="path1629" />
            </g>
            <g
               id="g1631"
               transform="matrix(1,0,0,-1,137.6217,693.76841)">
              <path
                 d="m 245.184,-137.805 c -1.543,-1.941 0.039,0.633 3.23,-0.894 3.473,0.277 10.832,-0.004 12.004,0.449 -0.215,-0.164 -0.965,-0.168 -0.336,0.121"
                 style="fill:none;stroke:#000000;stroke-width:2.61674;stroke-linecap:round;stroke-linejoin:round;stroke-miterlimit:10;stroke-dasharray:none;stroke-opacity:1"
                 id="path1633" />
            </g>
            <g
               id="g1635"
               transform="matrix(1,0,0,-1,137.6217,693.76841)">
              <path
                 d="m 314.711,-84.914 c 1.559,1.012 1.324,-7.383 1.242,-9.774 -0.023,-7.707 1.43,-15.335 1.274,-23.117 -1.68,-6.703 -0.657,-14.574 -1.524,-21.925 0.07,-1.555 0.684,-5.797 0.348,-5.985 0.594,-2.765 -0.086,-1.82 0.25,-2.078 -0.02,-0.172 -0.242,0.371 0.156,-0.262 -0.18,-3.058 -0.227,-0.734 0.293,-4.457 0.398,0.114 -0.016,-0.804 0.078,-1.508 0.313,-0.21 -1.113,-0.011 2.594,-0.535 11.476,-1.984 23.707,0.2 34.711,-1.57 6.805,0.645 16.117,-0.363 20.933,0.977 2.141,-0.493 4.672,-0.309 4.114,-0.321 1.722,0.961 -0.461,7.68 0.5,11.492 -1.571,8.696 -0.621,17.059 -0.653,25.782 0.422,6.129 0.215,10.742 0.52,17.265 0.832,5.137 -0.27,13.215 -0.258,17.375 -0.09,-0.168 0.066,-0.023 -3.769,1.203 -7.524,1.782 -15.379,0.555 -22.961,-0.839 -8.5,0.867 -16.641,-1.688 -24.993,-0.368 -5.05,-0.668 -10.246,-0.25 -15.078,-1.668"
                 style="fill:none;stroke:#000000;stroke-width:2.61674;stroke-linecap:round;stroke-linejoin:round;stroke-miterlimit:10;stroke-dasharray:none;stroke-opacity:1"
                 id="path1637" />
            </g>
            <g
               id="g1639"
               transform="matrix(1,0,0,-1,137.6217,693.76841)">
              <path
                 d="m 315.414,-101.555 c -1.5,-0.64 6.102,0.27 9.297,-0.476 6.297,-0.457 14.754,0.551 19.332,-0.141 -0.344,0.215 -0.461,-0.125 -0.465,-0.566"
                 style="fill:none;stroke:#000000;stroke-width:2.61674;stroke-linecap:round;stroke-linejoin:round;stroke-miterlimit:10;stroke-dasharray:none;stroke-opacity:1"
                 id="path1641" />
            </g>
            <g
               id="g1643"
               transform="matrix(1,0,0,-1,137.6217,693.76841)">
              <path
                 d="m 343.785,-97.746 c -0.148,-0.926 1.235,-3.309 0.84,-6.344 -0.828,-1.926 -0.664,-2.637 -0.754,-2.449 -0.601,1.031 5.695,-2.164 8.191,-0.875 1.333,0.125 -0.035,0.102 0.579,-0.012 0.14,-0.277 1.785,4.918 0.781,7.606 -0.305,3.109 1.57,4.836 -1.34,1.843 -3.531,-0.207 -7.387,-1.351 -9.418,-0.101"
                 style="fill:none;stroke:#000000;stroke-width:2.61674;stroke-linecap:round;stroke-linejoin:round;stroke-miterlimit:10;stroke-dasharray:none;stroke-opacity:1"
                 id="path1645" />
            </g>
            <g
               id="g1647"
               transform="matrix(1,0,0,-1,137.6217,693.76841)">
              <path
                 d="m 356.422,-100.641 c -0.774,0.18 6.23,-1.793 9.199,-1.004 2.547,-0.097 9.246,-0.976 7.766,-0.855 l 0.066,-0.316"
                 style="fill:none;stroke:#000000;stroke-width:2.61674;stroke-linecap:round;stroke-linejoin:round;stroke-miterlimit:10;stroke-dasharray:none;stroke-opacity:1"
                 id="path1649" />
            </g>
            <g
               id="g1651"
               transform="matrix(1,0,0,-1,137.6217,693.76841)">
              <path
                 d="m 343.047,-137.414 c 2.101,1.476 0.484,-1.191 1.051,-3.34 -0.578,-2.918 -0.887,-1.887 2.007,-3.473 2.555,-0.695 7.875,-0.734 6.895,-0.867 -0.555,-0.047 2.324,1.789 2.328,4.785 0.297,1.711 -0.379,4.164 -0.23,3.34 -0.766,-0.199 -3.95,-0.281 -5.817,0.012 -3.222,-0.156 -5.66,-0.883 -6.136,-1.113"
                 style="fill:none;stroke:#000000;stroke-width:2.61674;stroke-linecap:round;stroke-linejoin:round;stroke-miterlimit:10;stroke-dasharray:none;stroke-opacity:1"
                 id="path1653" />
            </g>
            <g
               id="g1655"
               transform="matrix(1,0,0,-1,137.6217,693.76841)">
              <path
                 d="m 317.457,-139.645 c 0.691,-0.699 8.723,-1.117 12.324,-1.726 3.285,-1.317 9.141,-0.234 10.93,-0.379"
                 style="fill:none;stroke:#000000;stroke-width:2.61674;stroke-linecap:round;stroke-linejoin:round;stroke-miterlimit:10;stroke-dasharray:none;stroke-opacity:1"
                 id="path1657" />
            </g>
            <g
               id="g1659"
               transform="matrix(1,0,0,-1,137.6217,693.76841)">
              <path
                 d="m 357.891,-139.758 c 3.433,-1.867 12.414,0.727 15.484,-2.043 -0.855,0.676 1.051,0.078 -0.516,0.117"
                 style="fill:none;stroke:#000000;stroke-width:2.61674;stroke-linecap:round;stroke-linejoin:round;stroke-miterlimit:10;stroke-dasharray:none;stroke-opacity:1"
                 id="path1661" />
            </g>
            <g
               id="g1663"
               transform="matrix(1,0,0,-1,137.6217,693.76841)">
              <path
                 d="m 104.496,-293.441 c 5.75,-0.704 14.938,0.769 21.969,0.347 9.074,0.219 20.301,2.844 27.613,0.059 2.992,-0.098 2.004,-2.113 2.34,-1.32"
                 style="fill:none;stroke:#000000;stroke-width:2.61674;stroke-linecap:round;stroke-linejoin:round;stroke-miterlimit:10;stroke-dasharray:none;stroke-opacity:1"
                 id="path1665" />
            </g>
            <g
               id="g1667"
               transform="matrix(1,0,0,-1,137.6217,693.76841)">
              <path
                 d="m 157.734,-297.68 c -0.316,-2.66 0.782,-8.422 0.707,-12.761 1.02,-3.071 -0.929,-8.836 -0.515,-12.239 -1.031,-4.531 0.976,-8.121 -0.516,-11.906 1.133,-1.203 -0.488,-1.992 -0.101,-3.844 0.222,-0.191 0.027,-1.445 0.07,-2.496 -0.516,-0.34 0.918,-0.215 -0.559,-0.156 1.645,0.254 0.239,-0.363 0.52,0.418"
                 style="fill:none;stroke:#000000;stroke-width:2.61674;stroke-linecap:round;stroke-linejoin:round;stroke-miterlimit:10;stroke-dasharray:none;stroke-opacity:1"
                 id="path1669" />
            </g>
            <g
               id="g1671"
               transform="matrix(1,0,0,-1,137.6217,693.76841)">
              <path
                 d="m 158.914,-339.012 c -2.148,0.309 2.184,-2.504 0.609,-5.023 0.211,-1.508 0.489,-4.332 0.465,-6.988 1.11,-1.579 -0.695,-3.789 0.336,-6.016 -0.351,-2.356 0.258,-3.566 -0.531,-4.641 -0.168,-1.121 0.398,-1.531 -0.305,-2.3 -0.504,-2.387 -1.176,-2.52 0.34,-3.602 -0.973,-0.051 -1.043,-1.047 -2.609,-1.563 -8.684,-1.488 -20.344,0.704 -30.227,0.27 -6.562,0.789 -13.137,0.77 -18.492,1.152 -0.629,1.739 0.207,-1.297 -2.051,0.914"
                 style="fill:none;stroke:#000000;stroke-width:2.61674;stroke-linecap:round;stroke-linejoin:round;stroke-miterlimit:10;stroke-dasharray:none;stroke-opacity:1"
                 id="path1673" />
            </g>
            <g
               id="g1675"
               transform="matrix(1,0,0,-1,137.6217,693.76841)">
              <path
                 d="m 104.434,-367.57 c -0.555,-1.614 1.121,5.812 0.214,7.847 3.207,16.661 -2.468,33.672 -0.343,50.293 -1.332,4.582 -0.422,10.856 -0.2,12.813 l -0.476,0.351"
                 style="fill:none;stroke:#000000;stroke-width:2.61674;stroke-linecap:round;stroke-linejoin:round;stroke-miterlimit:10;stroke-dasharray:none;stroke-opacity:1"
                 id="path1677" />
            </g>
            <g
               id="g1679"
               transform="matrix(1,0,0,-1,137.6217,693.76841)">
              <path
                 d="m 107.184,-317.32 c -3.957,-1.36 8.418,1.226 10.609,0.238 3.426,-0.25 5.519,0.102 5.684,0.023"
                 style="fill:none;stroke:#000000;stroke-width:2.61674;stroke-linecap:round;stroke-linejoin:round;stroke-miterlimit:10;stroke-dasharray:none;stroke-opacity:1"
                 id="path1681" />
            </g>
            <g
               id="g1683"
               transform="matrix(1,0,0,-1,137.6217,693.76841)">
              <path
                 d="m 123.312,-316.176 c 1.215,-1.074 -0.824,0.371 0.383,-0.484 -1.355,-2.266 -0.613,-3.633 2.817,-3.891 3.707,-0.844 9.328,0.879 10.207,1.836 1.656,1.336 -2.965,6.828 -6.711,4.219 -3.016,-0.617 -7.32,-2.535 -8.774,-2.754"
                 style="fill:none;stroke:#000000;stroke-width:2.61674;stroke-linecap:round;stroke-linejoin:round;stroke-miterlimit:10;stroke-dasharray:none;stroke-opacity:1"
                 id="path1685" />
            </g>
            <g
               id="g1687"
               transform="matrix(1,0,0,-1,137.6217,693.76841)">
              <path
                 d="m 138.582,-317.867 c -0.75,0.238 7.332,-0.934 10.25,-1.031 2.625,-0.329 7.59,1.066 9.203,-0.586"
                 style="fill:none;stroke:#000000;stroke-width:2.61674;stroke-linecap:round;stroke-linejoin:round;stroke-miterlimit:10;stroke-dasharray:none;stroke-opacity:1"
                 id="path1689" />
            </g>
            <g
               id="g1691"
               transform="matrix(1,0,0,-1,137.6217,693.76841)">
              <path
                 d="m 104.371,-351.23 c 3.762,-1.704 10.688,1.136 15.524,-0.747 2.019,-0.003 2.949,0.372 2.179,0.098"
                 style="fill:none;stroke:#000000;stroke-width:2.61674;stroke-linecap:round;stroke-linejoin:round;stroke-miterlimit:10;stroke-dasharray:none;stroke-opacity:1"
                 id="path1693" />
            </g>
            <g
               id="g1695"
               transform="matrix(1,0,0,-1,137.6217,693.76841)">
              <path
                 d="m 122.477,-348.902 c -0.258,-1.696 -0.043,-0.289 0.886,-4.004 -1.172,-2.692 5.797,-4.891 9.492,-3.512 2.239,-0.242 6.649,0.574 5.926,1.387 0.543,1.359 -0.851,4.25 -0.59,4.953 1.485,1.82 -4.359,1.879 -8.035,1.746 -1.652,-0.699 -7.48,-0.602 -7.344,-1.676"
                 style="fill:none;stroke:#000000;stroke-width:2.61674;stroke-linecap:round;stroke-linejoin:round;stroke-miterlimit:10;stroke-dasharray:none;stroke-opacity:1"
                 id="path1697" />
            </g>
            <g
               id="g1699"
               transform="matrix(1,0,0,-1,137.6217,693.76841)">
              <path
                 d="m 140.457,-352.328 c -3.344,0.414 7.008,-0.543 9.004,-0.66 0.684,-0.278 5.508,-0.895 3.742,-0.727"
                 style="fill:none;stroke:#000000;stroke-width:2.61674;stroke-linecap:round;stroke-linejoin:round;stroke-miterlimit:10;stroke-dasharray:none;stroke-opacity:1"
                 id="path1701" />
            </g>
            <g
               id="g1703"
               transform="matrix(1,0,0,-1,137.6217,693.76841)">
              <path
                 d="m 208.785,-294.559 c 3.371,-0.671 10.926,-0.492 15.676,-0.152 14.516,-1.418 29.16,-3.109 43.336,-1.473 1.027,-0.199 0.922,-0.421 0.301,-0.621"
                 style="fill:none;stroke:#000000;stroke-width:2.61674;stroke-linecap:round;stroke-linejoin:round;stroke-miterlimit:10;stroke-dasharray:none;stroke-opacity:1"
                 id="path1705" />
            </g>
            <g
               id="g1707"
               transform="matrix(1,0,0,-1,137.6217,693.76841)">
              <path
                 d="m 269.609,-298.586 c 1.399,-1.191 -0.507,-0.637 0.614,-2.816 -1.297,-5.418 0.254,-11.957 0.839,-16.7 -0.402,-5.351 1.376,-11.203 1.153,-16.703 0.347,-1.496 0.101,-6.652 0.191,-9.746 2.25,-2.082 -0.59,-4.137 0.739,-7.781 -0.536,-2.746 0.789,-5.375 -0.735,-8.625 -0.211,-4.082 -0.16,-7.762 -0.875,-12.395 1.27,-1.019 -0.226,-3.515 0.516,-3.019 -0.629,-0.035 0.164,0.129 -0.36,-0.086 0.43,0.074 0.106,0.141 0.2,0.023 -0.145,0.094 0.461,0.102 -0.801,-0.023 -10.258,1.754 -21.75,0.754 -32.981,1.957 -7.781,-0.969 -14.777,1.227 -21.277,1.738 -3.254,0.426 -8.437,0.551 -9.09,0.602 -0.058,0.437 -0.246,-0.942 0.457,2.113 0.406,2.457 0.219,4.875 0.117,7.652 -0.875,5.961 -0.277,12.29 -0.418,18.317 -0.359,4.43 -0.812,10.914 -0.66,15.238 -0.113,5.113 0.977,11.32 0.207,15.996 -0.113,3.551 0.961,8.696 -0.367,11.981 -0.078,2.039 1.004,6.41 0.469,4.902 0.012,0.25 0.015,0.188 0.015,-0.004"
                 style="fill:none;stroke:#000000;stroke-width:2.61674;stroke-linecap:round;stroke-linejoin:round;stroke-miterlimit:10;stroke-dasharray:none;stroke-opacity:1"
                 id="path1709" />
            </g>
            <g
               id="g1711"
               transform="matrix(1,0,0,-1,137.6217,693.76841)">
              <path
                 d="m 208.734,-312.254 c -1.043,-0.894 1.883,0.906 3.344,0.918 l -0.644,0.055 -0.571,0.406"
                 style="fill:none;stroke:#000000;stroke-width:2.61674;stroke-linecap:round;stroke-linejoin:round;stroke-miterlimit:10;stroke-dasharray:none;stroke-opacity:1"
                 id="path1713" />
            </g>
            <g
               id="g1715"
               transform="matrix(1,0,0,-1,137.6217,693.76841)">
              <path
                 d="m 214.594,-309.02 c -2.602,0.332 -2.594,-4.925 -0.985,-7.535 3.286,-2.457 5.575,-2.125 6.938,2.528 1,4.507 -5.965,5.183 -7.781,2.8 0.922,0.176 0.75,-1.144 1.832,-0.777"
                 style="fill:none;stroke:#000000;stroke-width:2.61674;stroke-linecap:round;stroke-linejoin:round;stroke-miterlimit:10;stroke-dasharray:none;stroke-opacity:1"
                 id="path1717" />
            </g>
            <g
               id="g1719"
               transform="matrix(1,0,0,-1,137.6217,693.76841)">
              <path
                 d="m 225.527,-313.602 c -2.875,-0.628 7.328,0.508 10.071,0.204 5.453,-0.43 9.851,0.586 12.812,-0.836 l -0.562,0.078"
                 style="fill:none;stroke:#000000;stroke-width:2.61674;stroke-linecap:round;stroke-linejoin:round;stroke-miterlimit:10;stroke-dasharray:none;stroke-opacity:1"
                 id="path1721" />
            </g>
            <g
               id="g1723"
               transform="matrix(1,0,0,-1,137.6217,693.76841)">
              <path
                 d="m 255.168,-309.969 c -0.551,2.653 -3.797,-4.261 -1.734,-5.875 1.593,-2.636 9.605,-2.625 6.656,1.973 -0.731,1.707 -4.379,5.863 -4.582,2.793"
                 style="fill:none;stroke:#000000;stroke-width:2.61674;stroke-linecap:round;stroke-linejoin:round;stroke-miterlimit:10;stroke-dasharray:none;stroke-opacity:1"
                 id="path1725" />
            </g>
            <g
               id="g1727"
               transform="matrix(1,0,0,-1,137.6217,693.76841)">
              <path
                 d="m 260.543,-312.539 c 0.051,0.394 11.102,-1.438 7.902,-0.621 l -0.679,0.015"
                 style="fill:none;stroke:#000000;stroke-width:2.61674;stroke-linecap:round;stroke-linejoin:round;stroke-miterlimit:10;stroke-dasharray:none;stroke-opacity:1"
                 id="path1729" />
            </g>
            <g
               id="g1731"
               transform="matrix(1,0,0,-1,137.6217,693.76841)">
              <path
                 d="m 205.898,-351.926 c 0.118,-0.808 3.68,0.34 2.489,0.481"
                 style="fill:none;stroke:#000000;stroke-width:2.61674;stroke-linecap:round;stroke-linejoin:round;stroke-miterlimit:10;stroke-dasharray:none;stroke-opacity:1"
                 id="path1733" />
            </g>
            <g
               id="g1735"
               transform="matrix(1,0,0,-1,137.6217,693.76841)">
              <path
                 d="m 215.18,-348.312 c 0.539,-0.747 -2.77,-0.387 -2.453,-3.668 -0.051,-2.551 1.644,-6.895 6.195,-5.774 4.133,2.086 4.918,9.344 -0.914,10.477 -0.922,-0.098 -2.207,0.621 -1.934,-1.246"
                 style="fill:none;stroke:#000000;stroke-width:2.61674;stroke-linecap:round;stroke-linejoin:round;stroke-miterlimit:10;stroke-dasharray:none;stroke-opacity:1"
                 id="path1737" />
            </g>
            <g
               id="g1739"
               transform="matrix(1,0,0,-1,137.6217,693.76841)">
              <path
                 d="m 223.645,-350.059 c -1.516,-1.464 5.73,-1.136 8.793,-1.367 4.402,-0.234 12.46,0.199 14.953,-0.125 -1.137,0.633 2.011,-0.812 2.242,-0.828"
                 style="fill:none;stroke:#000000;stroke-width:2.61674;stroke-linecap:round;stroke-linejoin:round;stroke-miterlimit:10;stroke-dasharray:none;stroke-opacity:1"
                 id="path1741" />
            </g>
            <g
               id="g1743"
               transform="matrix(1,0,0,-1,137.6217,693.76841)">
              <path
                 d="m 259.297,-344.84 c -4.395,2.844 -8.856,-9.418 -1.754,-10.336 5.789,-1.301 7.156,6.481 1.727,7.266 -0.989,0.773 -1.75,0.664 -1.625,0.172"
                 style="fill:none;stroke:#000000;stroke-width:2.61674;stroke-linecap:round;stroke-linejoin:round;stroke-miterlimit:10;stroke-dasharray:none;stroke-opacity:1"
                 id="path1745" />
            </g>
            <g
               id="g1747"
               transform="matrix(1,0,0,-1,137.6217,693.76841)">
              <path
                 d="m 260.828,-350.074 c 0.387,-0.485 3.442,-1.223 6.113,-1.117 0.028,-0.442 -0.265,0.113 -0.48,-0.18"
                 style="fill:none;stroke:#000000;stroke-width:2.61674;stroke-linecap:round;stroke-linejoin:round;stroke-miterlimit:10;stroke-dasharray:none;stroke-opacity:1"
                 id="path1749" />
            </g>
            <g
               id="g1751"
               transform="matrix(1,0,0,-1,137.6217,693.76841)">
              <path
                 d="m 321.125,-296.633 c 12.867,2.27 27.437,0.129 40.945,2.129 7.719,-1.25 13.875,0.395 21.035,-1.859 2.418,-0.282 1.422,0.941 0.489,-0.328"
                 style="fill:none;stroke:#000000;stroke-width:2.61674;stroke-linecap:round;stroke-linejoin:round;stroke-miterlimit:10;stroke-dasharray:none;stroke-opacity:1"
                 id="path1753" />
            </g>
            <g
               id="g1755"
               transform="matrix(1,0,0,-1,137.6217,693.76841)">
              <path
                 d="m 386.984,-299.727 c -1.882,-3.136 -0.836,-7.519 -2.086,-12.05 -0.101,-3.043 0.727,-6.961 0.989,-9.692 0.668,-6.105 0.683,-9.863 -0.551,-15.457 -0.078,-4.886 0.75,-8.113 0.289,-12.461 0.742,-2.718 -0.836,-4.937 0.391,-6.789 -0.961,-3.363 0.066,-6.832 -0.786,-8.187 0.004,-1.699 -1.703,-6.75 -1.078,-7.199 0.493,-0.938 1.012,-1.305 0.004,-1.418"
                 style="fill:none;stroke:#000000;stroke-width:2.61674;stroke-linecap:round;stroke-linejoin:round;stroke-miterlimit:10;stroke-dasharray:none;stroke-opacity:1"
                 id="path1757" />
            </g>
            <g
               id="g1759"
               transform="matrix(1,0,0,-1,137.6217,693.76841)">
              <path
                 d="m 382.84,-371.965 c -1.051,-0.371 -9.516,1.067 -13.488,0.621 -13.68,0.332 -27.047,2.789 -40.797,1.707 -2.231,0.149 -2.297,-0.191 -1.946,-0.105"
                 style="fill:none;stroke:#000000;stroke-width:2.61674;stroke-linecap:round;stroke-linejoin:round;stroke-miterlimit:10;stroke-dasharray:none;stroke-opacity:1"
                 id="path1761" />
            </g>
            <g
               id="g1763"
               transform="matrix(1,0,0,-1,137.6217,693.76841)">
              <path
                 d="m 324.52,-369.602 c -0.75,-0.078 -0.352,6.739 0.144,9.473 1.027,4.988 0.801,10.379 0.539,15.774 -0.344,4.957 -0.355,12.179 -0.531,17.031 -2.07,5.543 -1.008,12.613 -0.91,17.801 0.527,3.66 -0.289,10.445 -0.465,11.8 0.754,-0.168 0.055,0.719 -0.039,0.239"
                 style="fill:none;stroke:#000000;stroke-width:2.61674;stroke-linecap:round;stroke-linejoin:round;stroke-miterlimit:10;stroke-dasharray:none;stroke-opacity:1"
                 id="path1765" />
            </g>
            <g
               id="g1767"
               transform="matrix(1,0,0,-1,137.6217,693.76841)">
              <path
                 d="m 324.969,-315.059 c -0.516,0.633 6.097,0.864 6.656,0.957 l -0.332,0.094"
                 style="fill:none;stroke:#000000;stroke-width:2.61674;stroke-linecap:round;stroke-linejoin:round;stroke-miterlimit:10;stroke-dasharray:none;stroke-opacity:1"
                 id="path1769" />
            </g>
            <g
               id="g1771"
               transform="matrix(1,0,0,-1,137.6217,693.76841)">
              <path
                 d="m 335.73,-311.227 c -0.496,0.34 -0.16,-3.953 0.332,-5.55 -1.246,0.715 3.411,-1.481 6.208,-0.18 -1.969,-0.613 3.808,0.312 1.804,0.168 0.332,1.055 0.977,5.664 0.02,6.73 2.468,-1.035 -2.297,1.059 -2.973,-0.07 -2.019,-1.137 -7.129,-1.055 -3.621,-1.129"
                 style="fill:none;stroke:#000000;stroke-width:2.61674;stroke-linecap:round;stroke-linejoin:round;stroke-miterlimit:10;stroke-dasharray:none;stroke-opacity:1"
                 id="path1773" />
            </g>
            <g
               id="g1775"
               transform="matrix(1,0,0,-1,137.6217,693.76841)">
              <path
                 d="m 347.348,-311.934 c -3.586,-2.136 0.73,-0.359 4.289,-0.82 2.793,-0.516 7.914,-0.289 6.574,-0.367 0.98,-0.043 1.996,-0.484 2.937,-0.508"
                 style="fill:none;stroke:#000000;stroke-width:2.61674;stroke-linecap:round;stroke-linejoin:round;stroke-miterlimit:10;stroke-dasharray:none;stroke-opacity:1"
                 id="path1777" />
            </g>
            <g
               id="g1779"
               transform="matrix(1,0,0,-1,137.6217,693.76841)">
              <path
                 d="m 364.977,-311.219 c -0.282,-1.203 -0.165,0.254 -0.989,-2.816 -0.148,-1.848 0.18,-4.09 0.539,-4.434 0.883,-0.773 5.864,-0.648 6.082,-0.605 3.661,-0.274 2.989,6.031 2.735,6.793 0.011,1.34 0.453,0.664 -2.504,1.027 -0.781,-0.039 -7.508,1.192 -6.332,0.34"
                 style="fill:none;stroke:#000000;stroke-width:2.61674;stroke-linecap:round;stroke-linejoin:round;stroke-miterlimit:10;stroke-dasharray:none;stroke-opacity:1"
                 id="path1781" />
            </g>
            <g
               id="g1783"
               transform="matrix(1,0,0,-1,137.6217,693.76841)">
              <path
                 d="m 371.77,-312.73 c 0.316,-0.762 9.875,-0.504 9.796,-0.696"
                 style="fill:none;stroke:#000000;stroke-width:2.61674;stroke-linecap:round;stroke-linejoin:round;stroke-miterlimit:10;stroke-dasharray:none;stroke-opacity:1"
                 id="path1785" />
            </g>
            <g
               id="g1787"
               transform="matrix(1,0,0,-1,137.6217,693.76841)">
              <path
                 d="m 325.512,-352.664 c 0.297,-0.465 11.172,2.629 10.691,0.766"
                 style="fill:none;stroke:#000000;stroke-width:2.61674;stroke-linecap:round;stroke-linejoin:round;stroke-miterlimit:10;stroke-dasharray:none;stroke-opacity:1"
                 id="path1789" />
            </g>
            <g
               id="g1791"
               transform="matrix(1,0,0,-1,137.6217,693.76841)">
              <path
                 d="m 337.293,-349.762 c -0.047,0.973 0.121,-3.859 -0.41,-5.527 1.691,-0.91 -1.012,-2.156 2.988,-2.043 1.176,0.348 6.711,0.332 4.977,0.617 0.847,-1.851 0.84,5.035 1.136,3.727 -1.152,2.086 2.094,3.429 -1.039,3.316 -2.613,-0.004 -5.226,1.176 -7.254,0.172"
                 style="fill:none;stroke:#000000;stroke-width:2.61674;stroke-linecap:round;stroke-linejoin:round;stroke-miterlimit:10;stroke-dasharray:none;stroke-opacity:1"
                 id="path1793" />
            </g>
            <g
               id="g1795"
               transform="matrix(1,0,0,-1,137.6217,693.76841)">
              <path
                 d="m 347.055,-350.797 c -2.84,-0.465 5.133,-0.387 7.722,-1 2,-0.187 3.137,-0.746 5.653,-0.769"
                 style="fill:none;stroke:#000000;stroke-width:2.61674;stroke-linecap:round;stroke-linejoin:round;stroke-miterlimit:10;stroke-dasharray:none;stroke-opacity:1"
                 id="path1797" />
            </g>
            <g
               id="g1799"
               transform="matrix(1,0,0,-1,137.6217,693.76841)">
              <path
                 d="m 365.074,-350.09 c -0.312,-0.012 -0.097,0.586 0.168,-1.668 -0.554,-2.691 -0.621,-5.437 0.223,-5.043 3.191,0.336 7.504,0.149 7.605,0.024 0.395,-0.426 1.434,3.824 0.063,4.695 0.004,4.168 1.781,1.562 -2.328,3.324 -1.785,0.051 -5.825,1.227 -8.282,0.356"
                 style="fill:none;stroke:#000000;stroke-width:2.61674;stroke-linecap:round;stroke-linejoin:round;stroke-miterlimit:10;stroke-dasharray:none;stroke-opacity:1"
                 id="path1801" />
            </g>
            <g
               id="g1803"
               transform="matrix(1,0,0,-1,137.6217,693.76841)">
              <path
                 d="m 372.273,-352.992 c -0.41,1.082 7.239,-0.91 9.438,-0.11 4.133,-0.32 1.531,-0.003 1.379,-0.027"
                 style="fill:none;stroke:#000000;stroke-width:2.61674;stroke-linecap:round;stroke-linejoin:round;stroke-miterlimit:10;stroke-dasharray:none;stroke-opacity:1"
                 id="path1805" />
            </g>
            <g
               id="g1807"
               transform="matrix(1,0,0,-1,137.6217,693.76841)">
              <path
                 d="m 101.402,-513.379 c 2.352,-0.18 10.43,0.024 14.758,0.242 12.934,-0.57 25.785,1.953 38.625,1.5 -0.433,-0.195 2.535,0.188 2.793,0.157"
                 style="fill:none;stroke:#000000;stroke-width:2.61674;stroke-linecap:round;stroke-linejoin:round;stroke-miterlimit:10;stroke-dasharray:none;stroke-opacity:1"
                 id="path1809" />
            </g>
            <g
               id="g1811"
               transform="matrix(1,0,0,-1,137.6217,693.76841)">
              <path
                 d="m 161.172,-517.43 c 2.293,-0.429 0.933,-1.984 1.39,-4.879 0.403,-3.32 -0.031,-7.16 -0.539,-11.308 0.114,-1.699 0.532,-7.594 0.52,-10.906 -0.426,-3.473 -0.129,-6.278 0.742,-10.719 -0.058,-1.985 -0.492,-5.813 0.332,-9.156 -0.429,-1.125 0.102,-2.993 -0.894,-5.52 -0.805,-4.09 -0.387,-5.227 -0.836,-9.477 -0.567,-3.421 -0.539,-4.472 -0.383,-7.011 0.766,-1.524 -1.418,-0.121 1,-1.137 -0.598,-0.137 -1.82,-0.645 -0.664,0.262"
                 style="fill:none;stroke:#000000;stroke-width:2.61674;stroke-linecap:round;stroke-linejoin:round;stroke-miterlimit:10;stroke-dasharray:none;stroke-opacity:1"
                 id="path1813" />
            </g>
            <g
               id="g1815"
               transform="matrix(1,0,0,-1,137.6217,693.76841)">
              <path
                 d="m 159.746,-588.418 c -2.742,-0.473 -10.586,0.281 -15.203,-0.02 -15.398,-0.242 -30.957,-1.195 -46.219,0.211 0.301,-1.164 1.395,1.329 1.266,1.618"
                 style="fill:none;stroke:#000000;stroke-width:2.61674;stroke-linecap:round;stroke-linejoin:round;stroke-miterlimit:10;stroke-dasharray:none;stroke-opacity:1"
                 id="path1817" />
            </g>
            <g
               id="g1819"
               transform="matrix(1,0,0,-1,137.6217,693.76841)">
              <path
                 d="m 95.738,-583.801 c -0.187,0.41 0.555,7.828 0.793,11.153 -1.812,18.043 1.543,36.468 0.563,54.328 0.551,3.894 0.824,8.336 1.879,11.031 -0.422,-0.231 0.32,-0.402 -0.528,0.008"
                 style="fill:none;stroke:#000000;stroke-width:2.61674;stroke-linecap:round;stroke-linejoin:round;stroke-miterlimit:10;stroke-dasharray:none;stroke-opacity:1"
                 id="path1821" />
            </g>
            <g
               id="g1823"
               transform="matrix(1,0,0,-1,137.6217,693.76841)">
              <path
                 d="m 207.473,-517.496 c 0.793,-3 1.367,-9.969 0.523,-14.93 0.606,-4.808 -0.582,-12.183 0.965,-17.5 -0.207,-7.332 -2.082,-15.847 -1.617,-22.125 -0.719,-3.234 -0.789,-9.773 -0.36,-8.984 0.879,-3.578 -0.441,-4.965 -0.011,-8.145 -0.153,0.309 -0.016,-0.105 0.011,0.102 9.563,1.32 20.465,1.172 31.118,0.93 12.16,1.375 24.039,-0.364 34.878,-0.868 -0.644,0.078 -1.308,-0.304 0.125,1.61 0.133,3.867 -0.359,7.176 0.692,10.972 0.379,7.762 1.836,15.204 0.773,23.219 -0.652,2.32 0.305,5.551 -0.629,8.641 -0.906,3.738 -1.066,7.801 -0.117,10.367 -1.738,3.793 -1.176,8.769 -1.269,12.285 0.5,1.121 -1.344,5.535 -0.821,7.766 -0.296,-0.016 1.422,-0.41 -2.785,0.761 -15.086,1.704 -31.129,0.934 -46.191,2.407 -5.391,-0.211 -10.606,-0.696 -15.492,-0.934 2.632,0.012 -2.922,-0.293 -0.981,-0.066 -0.16,-0.211 0.184,0.035 -0.129,-0.168 0.387,-0.09 0.117,0.328 0.332,-0.282"
                 style="fill:none;stroke:#000000;stroke-width:2.61674;stroke-linecap:round;stroke-linejoin:round;stroke-miterlimit:10;stroke-dasharray:none;stroke-opacity:1"
                 id="path1825" />
            </g>
            <g
               id="g1827"
               transform="matrix(1,0,0,-1,137.6217,693.76841)">
              <path
                 d="m 211.793,-519.984 c -0.34,2.152 0.434,-3.524 0.269,-2.625 -0.874,-8.356 1.313,-16.821 -0.722,-25.293 0.562,-5.125 -0.84,-9.844 1.629,-14.543 1.554,-6.274 -3.203,-11.782 -2.172,-17.227 -0.836,-3.637 -2.027,-11.875 -0.543,-12.226 0.039,0.527 0.644,1.48 -0.137,1.886"
                 style="fill:none;stroke:#000000;stroke-width:2.61674;stroke-linecap:round;stroke-linejoin:round;stroke-miterlimit:10;stroke-dasharray:none;stroke-opacity:1"
                 id="path1829" />
            </g>
            <g
               id="g1831"
               transform="matrix(1,0,0,-1,137.6217,693.76841)">
              <path
                 d="m 266.199,-515.566 c -0.047,0.621 1.199,-4.266 0.938,-5.836 1.847,-3.606 1.152,-7.883 1.715,-12.493 -0.793,-3.441 -0.368,-8.671 -0.196,-12.339 0.348,-6.094 0.645,-10.711 0.426,-16.426 1.223,-2.778 -0.105,-8.469 0.129,-12.289 0.957,-2.641 -0.305,-6.856 0.047,-10.828 0.39,-2.161 0.672,-3.743 0.066,-7.02 1.063,-1.613 0.446,-2.824 0.266,-0.43"
                 style="fill:none;stroke:#000000;stroke-width:2.61674;stroke-linecap:round;stroke-linejoin:round;stroke-miterlimit:10;stroke-dasharray:none;stroke-opacity:1"
                 id="path1833" />
            </g>
            <g
               id="g1835"
               transform="matrix(1,0,0,-1,137.6217,693.76841)">
              <path
                 d="m 212.609,-532.023 c -3.785,0.429 4.586,1.043 6.84,0.566 3.184,0.348 0.363,-0.129 1.324,-1.723 0.008,-0.871 0.278,-4.508 0.895,-4.328 -1.113,-0.699 -6.512,-0.922 -9.23,-0.543 1.753,-0.019 0.414,-0.547 0.964,0.317"
                 style="fill:none;stroke:#000000;stroke-width:2.61674;stroke-linecap:round;stroke-linejoin:round;stroke-miterlimit:10;stroke-dasharray:none;stroke-opacity:1"
                 id="path1837" />
            </g>
            <g
               id="g1839"
               transform="matrix(1,0,0,-1,137.6217,693.76841)">
              <path
                 d="m 266.727,-530.367 c 0.8,-0.102 -6.125,0.094 -6.399,0.25 0.234,0.168 0.242,-0.903 0.344,-2.309 -1.297,-3.551 -1.09,-4.738 -0.945,-4.41 1.183,-0.156 5.281,-1.309 6.984,-1.055 -2.008,-0.058 0.937,0.153 -0.5,0.051"
                 style="fill:none;stroke:#000000;stroke-width:2.61674;stroke-linecap:round;stroke-linejoin:round;stroke-miterlimit:10;stroke-dasharray:none;stroke-opacity:1"
                 id="path1841" />
            </g>
            <g
               id="g1843"
               transform="matrix(1,0,0,-1,137.6217,693.76841)">
              <path
                 d="m 221.543,-534.559 c -0.781,1.375 8.019,-0.031 11.609,0.829 7.391,0.199 17.442,0.664 23.371,-0.254 -1.14,-0.239 0.481,-0.157 0.497,-0.356"
                 style="fill:none;stroke:#000000;stroke-width:2.61674;stroke-linecap:round;stroke-linejoin:round;stroke-miterlimit:10;stroke-dasharray:none;stroke-opacity:1"
                 id="path1845" />
            </g>
            <g
               id="g1847"
               transform="matrix(1,0,0,-1,137.6217,693.76841)">
              <path
                 d="m 210.977,-567.676 c -0.805,0.707 9.097,0.086 9.777,-0.035 0.492,-1.047 1.73,-6.527 2.004,-6.648 0.058,0.687 -2.153,-0.485 -5.5,-0.871 -1.137,-0.399 -7.024,-0.883 -5.176,-0.793"
                 style="fill:none;stroke:#000000;stroke-width:2.61674;stroke-linecap:round;stroke-linejoin:round;stroke-miterlimit:10;stroke-dasharray:none;stroke-opacity:1"
                 id="path1849" />
            </g>
            <g
               id="g1851"
               transform="matrix(1,0,0,-1,137.6217,693.76841)">
              <path
                 d="m 223.059,-573.062 c 1.625,0.769 9.437,0.429 13.414,0.296 5.75,0.051 17.918,-0.097 20.004,-0.668 l 0.351,0.032 -0.344,0.097"
                 style="fill:none;stroke:#000000;stroke-width:2.61674;stroke-linecap:round;stroke-linejoin:round;stroke-miterlimit:10;stroke-dasharray:none;stroke-opacity:1"
                 id="path1853" />
            </g>
            <g
               id="g1855"
               transform="matrix(1,0,0,-1,137.6217,693.76841)">
              <path
                 d="m 265.91,-570.195 c 1.195,2.422 -2.754,0.574 -6.105,0.98 -3.059,-0.078 -1.176,0.903 0.195,-1.383 -0.055,-2.664 -2.121,-5.957 -0.734,-4.773 -0.325,-0.75 7.054,-3.067 10.015,-1.188 1.524,0.067 0.293,-0.445 -0.289,-0.062"
                 style="fill:none;stroke:#000000;stroke-width:2.61674;stroke-linecap:round;stroke-linejoin:round;stroke-miterlimit:10;stroke-dasharray:none;stroke-opacity:1"
                 id="path1857" />
            </g>
            <g
               id="g1859"
               transform="matrix(1,0,0,-1,137.6217,693.76841)">
              <path
                 d="m 106.07,-520.43 c 0.563,3.246 -3.886,-5.785 1.938,-2.925 3.812,1.582 -0.531,4.14 -3.074,3.109"
                 style="fill:none;stroke:#000000;stroke-width:2.61674;stroke-linecap:round;stroke-linejoin:round;stroke-miterlimit:10;stroke-dasharray:none;stroke-opacity:1"
                 id="path1861" />
            </g>
            <g
               id="g1863"
               transform="matrix(1,0,0,-1,137.6217,693.76841)">
              <path
                 d="m 104.906,-536.387 c -2.976,-3.054 1.121,-8.297 5.723,-5.101 -1.676,0.168 -4.633,3.871 -6,1.433"
                 style="fill:none;stroke:#000000;stroke-width:2.61674;stroke-linecap:round;stroke-linejoin:round;stroke-miterlimit:10;stroke-dasharray:none;stroke-opacity:1"
                 id="path1865" />
            </g>
            <g
               id="g1867"
               transform="matrix(1,0,0,-1,137.6217,693.76841)">
              <path
                 d="m 104.145,-555.98 c -5.086,-2.356 3.613,-11.208 5.769,-4.985 -0.195,2.879 -3.801,4.574 -6.004,2.735"
                 style="fill:none;stroke:#000000;stroke-width:2.61674;stroke-linecap:round;stroke-linejoin:round;stroke-miterlimit:10;stroke-dasharray:none;stroke-opacity:1"
                 id="path1869" />
            </g>
            <g
               id="g1871"
               transform="matrix(1,0,0,-1,137.6217,693.76841)">
              <path
                 d="m 105.723,-576.883 c -3.106,0.285 -0.411,-7.883 3.824,-5.355 4.043,2.5 1.117,5.754 -1.348,7.941"
                 style="fill:none;stroke:#000000;stroke-width:2.61674;stroke-linecap:round;stroke-linejoin:round;stroke-miterlimit:10;stroke-dasharray:none;stroke-opacity:1"
                 id="path1873" />
            </g>
            <g
               id="g1875"
               transform="matrix(1,0,0,-1,137.6217,693.76841)">
              <path
                 d="m 109.621,-515.191 c 2.563,-10.883 -0.391,-23.27 0.895,-34.539 -0.77,-6.93 0.91,-13.903 0.214,-20.836 0.473,-6.485 -1.371,-15.266 -1.5,-20.211 l 0.52,0.347"
                 style="fill:none;stroke:#000000;stroke-width:2.61674;stroke-linecap:round;stroke-linejoin:round;stroke-miterlimit:10;stroke-dasharray:none;stroke-opacity:1"
                 id="path1877" />
            </g>
            <g
               id="g1879"
               transform="matrix(1,0,0,-1,137.6217,693.76841)">
              <path
                 d="m 149.906,-517.223 c 2.356,-1.078 2.309,-5.871 1.836,-8.98 0.395,-6.024 0.102,-11.758 0.516,-17.891 -0.602,-6.547 1.219,-12.832 0.347,-19.347 0.032,-5.539 -0.066,-11.739 -0.039,-16.399 0.957,-4.551 -2.578,-8.515 -1.5,-10.762 -0.968,0.008 0.461,0.207 0.153,1.52"
                 style="fill:none;stroke:#000000;stroke-width:2.61674;stroke-linecap:round;stroke-linejoin:round;stroke-miterlimit:10;stroke-dasharray:none;stroke-opacity:1"
                 id="path1881" />
            </g>
            <g
               id="g1883"
               transform="matrix(1,0,0,-1,137.6217,693.76841)">
              <path
                 d="m 152.762,-579.18 c -1.547,1.289 -1.571,-5.242 2.613,-4.48 5.855,3.777 -1.598,8.445 -4.777,5.851"
                 style="fill:none;stroke:#000000;stroke-width:2.61674;stroke-linecap:round;stroke-linejoin:round;stroke-miterlimit:10;stroke-dasharray:none;stroke-opacity:1"
                 id="path1885" />
            </g>
            <g
               id="g1887"
               transform="matrix(1,0,0,-1,137.6217,693.76841)">
              <path
                 d="m 151.617,-558.914 c -5.492,-4 6.453,-7.625 5.574,-1.016 -0.828,3.129 -3.98,4.797 -7.043,3.41"
                 style="fill:none;stroke:#000000;stroke-width:2.61674;stroke-linecap:round;stroke-linejoin:round;stroke-miterlimit:10;stroke-dasharray:none;stroke-opacity:1"
                 id="path1889" />
            </g>
            <g
               id="g1891"
               transform="matrix(1,0,0,-1,137.6217,693.76841)">
              <path
                 d="m 152.395,-538.742 c -0.469,-0.555 -3.657,-6.008 0.523,-5.067 7.414,-1.707 3.508,5.524 -1.176,5.426 -1.289,0.442 -3.328,-0.285 -1.316,1.438"
                 style="fill:none;stroke:#000000;stroke-width:2.61674;stroke-linecap:round;stroke-linejoin:round;stroke-miterlimit:10;stroke-dasharray:none;stroke-opacity:1"
                 id="path1893" />
            </g>
            <g
               id="g1895"
               transform="matrix(1,0,0,-1,137.6217,693.76841)">
              <path
                 d="m 152.559,-521.934 c -4.911,-0.656 -0.227,-2.984 2.449,-4.714 7.086,-0.477 -3.922,7.316 -7.192,6.117"
                 style="fill:none;stroke:#000000;stroke-width:2.61674;stroke-linecap:round;stroke-linejoin:round;stroke-miterlimit:10;stroke-dasharray:none;stroke-opacity:1"
                 id="path1897" />
            </g>
            <g
               id="g1899"
               transform="matrix(1,0,0,-1,137.6217,693.76841)">
              <path
                 d="m 110.27,-530.391 c 11.613,-0.132 26.25,0.028 37.941,0.27 -0.742,-0.067 0.453,-0.137 -0.211,-0.238"
                 style="fill:none;stroke:#000000;stroke-width:2.61674;stroke-linecap:round;stroke-linejoin:round;stroke-miterlimit:10;stroke-dasharray:none;stroke-opacity:1"
                 id="path1901" />
            </g>
            <g
               id="g1903"
               transform="matrix(1,0,0,-1,137.6217,693.76841)">
              <path
                 d="m 110.988,-564.84 c -0.363,-0.57 11.18,-2.797 15.172,-2.34 6.535,0.461 17.879,-1.832 21.367,-2.004 0.028,-0.168 0.055,-0.004 -0.222,-0.152"
                 style="fill:none;stroke:#000000;stroke-width:2.61674;stroke-linecap:round;stroke-linejoin:round;stroke-miterlimit:10;stroke-dasharray:none;stroke-opacity:1"
                 id="path1905" />
            </g>
          </g>
        </g>
      </g>
    </g>
  </g>
</svg>
