<?xml version="1.0" encoding="UTF-8" standalone="no"?>
<!-- Created by Ashley Blewer - This work is licensed under a Creative Commons Attribution 4.0 International License -->

<svg
   width="544"
   height="480"
   viewBox="0 0 143.93334 127"
   version="1.1"
   id="svg2490"
   inkscape:version="1.2.2 (1:1.2.2+202212051552+b0a8486541)"
   sodipodi:docname="1911-home-kinetoscope-3.svg"
   xmlns:inkscape="http://www.inkscape.org/namespaces/inkscape"
   xmlns:sodipodi="http://sodipodi.sourceforge.net/DTD/sodipodi-0.dtd"
   xmlns="http://www.w3.org/2000/svg"
   xmlns:svg="http://www.w3.org/2000/svg">
  <sodipodi:namedview
     id="namedview2492"
     pagecolor="#ffffff"
     bordercolor="#666666"
     borderopacity="1.0"
     inkscape:pageshadow="2"
     inkscape:pageopacity="0.0"
     inkscape:pagecheckerboard="0"
     inkscape:document-units="mm"
     showgrid="false"
     units="px"
     inkscape:zoom="0.90583674"
     inkscape:cx="336.15329"
     inkscape:cy="254.46086"
     inkscape:window-width="1846"
     inkscape:window-height="1136"
     inkscape:window-x="0"
     inkscape:window-y="0"
     inkscape:window-maximized="1"
     inkscape:current-layer="g6395"
     inkscape:showpageshadow="2"
     inkscape:deskcolor="#d1d1d1" />
  <defs
     id="defs2487" />
  <g
     inkscape:label="Layer 1"
     inkscape:groupmode="layer"
     id="layer1">
    <g
       id="g4731"
       transform="matrix(0.32961229,0,0,0.32903008,-241.78905,1.73126)"
       style="stroke-width:2.68698">
      <g
         id="g104528"
         transform="matrix(1,0,0,-1,0,792)"
         style="stroke-width:2.68698">
        <g
           id="g104530"
           style="stroke-width:2.68698" />
      </g>
      <g
         id="g104996"
         transform="matrix(1,0,0,-1,0,792)"
         style="stroke-width:2.68698">
        <g
           id="g104998"
           style="stroke-width:2.68698" />
      </g>
      <g
         id="g28852"
         transform="matrix(1.070281,0,0,1.0721748,779.91249,-443.13657)">
        <g
           id="g6718"
           transform="matrix(1.117886,0,0,1.117886,-549.13111,-491.62865)">
          <g
             id="g6395"
             transform="matrix(0.53415107,0,0,0.53415109,441.93669,415.26868)">
            <g
               id="g6204"
               transform="matrix(2.2193353,0,0,2.2193353,-1683.7278,-1841.0678)">
              <g
                 id="g2133"
                 transform="matrix(1,0,0,-1,-4.1353128,720.53295)">
                <path
                   d="m 806.418,-460.402 c 9.484,-80.453 -1.504,-161.664 5.215,-238.332"
                   style="fill:none;stroke:#000000;stroke-width:2.61674;stroke-linecap:round;stroke-linejoin:round;stroke-miterlimit:10;stroke-dasharray:none;stroke-opacity:1"
                   id="path2135" />
              </g>
              <g
                 id="g2137"
                 transform="matrix(1,0,0,-1,-4.1353128,720.53295)">
                <path
                   d="m 811.633,-698.734 c 19.762,0.871 39.562,-0.223 59.308,1.039 l -0.679,0.117 -0.379,0.066"
                   style="fill:none;stroke:#000000;stroke-width:2.61674;stroke-linecap:round;stroke-linejoin:round;stroke-miterlimit:10;stroke-dasharray:none;stroke-opacity:1"
                   id="path2139" />
              </g>
              <g
                 id="g2141"
                 transform="matrix(1,0,0,-1,-4.1353128,720.53295)">
                <path
                   d="m 981.996,-682.062 c 0.57,-3.09 1.68,-6.145 1.602,-9.325"
                   style="fill:none;stroke:#000000;stroke-width:2.61674;stroke-linecap:round;stroke-linejoin:round;stroke-miterlimit:10;stroke-dasharray:none;stroke-opacity:1"
                   id="path2143" />
              </g>
              <g
                 id="g2145"
                 transform="matrix(1,0,0,-1,-4.1353128,720.53295)">
                <path
                   d="m 985.73,-693.5 c 19.208,0.352 39.563,1.102 58.016,-1.848"
                   style="fill:none;stroke:#000000;stroke-width:2.61674;stroke-linecap:round;stroke-linejoin:round;stroke-miterlimit:10;stroke-dasharray:none;stroke-opacity:1"
                   id="path2147" />
              </g>
              <g
                 id="g2149"
                 transform="matrix(1,0,0,-1,-4.1353128,720.53295)">
                <path
                   d="m 1043.746,-695.348 c 1.266,80.891 1.527,159.481 0.277,236.914"
                   style="fill:none;stroke:#000000;stroke-width:2.61674;stroke-linecap:round;stroke-linejoin:round;stroke-miterlimit:10;stroke-dasharray:none;stroke-opacity:1"
                   id="path2151" />
              </g>
              <g
                 id="g2153"
                 transform="matrix(1,0,0,-1,-4.1353128,720.53295)">
                <path
                   d="m 806.418,-460.402 c 36.926,0.16 77.324,1.5 114.273,0.152 39.739,-1.199 79.411,2.664 119.133,1.977 -0.676,0 5.184,-0.192 4.199,-0.161"
                   style="fill:none;stroke:#000000;stroke-width:2.61674;stroke-linecap:round;stroke-linejoin:round;stroke-miterlimit:10;stroke-dasharray:none;stroke-opacity:1"
                   id="path2155" />
              </g>
              <g
                 id="g2157"
                 transform="matrix(1,0,0,-1,-4.1353128,720.53295)">
                <path
                   d="m 980.688,-460.277 c 4.703,-24.121 1.093,-50.559 1.996,-74.926 -1.243,-27.504 1.023,-55.008 -0.571,-82.508 0.567,-16.644 1.653,-33.281 0.977,-49.965 0.094,-8.617 0.035,-17.89 1.746,-26.078"
                   style="fill:none;stroke:#000000;stroke-width:2.61674;stroke-linecap:round;stroke-linejoin:round;stroke-miterlimit:10;stroke-dasharray:none;stroke-opacity:1"
                   id="path2159" />
              </g>
              <g
                 id="g2161"
                 transform="matrix(1,0,0,-1,-4.1353128,720.53295)">
                <path
                   d="m 954.238,-460.277 c 6.91,-34.047 1.211,-71.758 0.11,-106 -2.051,-30.223 -0.024,-60.489 -0.891,-90.739 -0.441,-12.082 1.816,-28.05 1.609,-37.668"
                   style="fill:none;stroke:#000000;stroke-width:2.61674;stroke-linecap:round;stroke-linejoin:round;stroke-miterlimit:10;stroke-dasharray:none;stroke-opacity:1"
                   id="path2163" />
              </g>
              <g
                 id="g2165"
                 transform="matrix(1,0,0,-1,-4.1353128,720.53295)">
                <path
                   d="m 894.965,-459.703 c 8.019,-32.938 0.976,-71.199 0.711,-104.524 -0.551,-28.148 1.5,-56.277 0.57,-84.433 -0.562,-14.367 0.774,-28.586 2.274,-42.809 l -0.18,-1.765 -0.285,-5.129"
                   style="fill:none;stroke:#000000;stroke-width:2.61674;stroke-linecap:round;stroke-linejoin:round;stroke-miterlimit:10;stroke-dasharray:none;stroke-opacity:1"
                   id="path2167" />
              </g>
              <g
                 id="g2169"
                 transform="matrix(1,0,0,-1,-4.1353128,720.53295)">
                <path
                   d="m 867.383,-459.727 -1.039,-215.707 c 0,0 0.183,-13.75 -0.598,-21.636"
                   style="fill:none;stroke:#000000;stroke-width:2.61674;stroke-linecap:round;stroke-linejoin:round;stroke-miterlimit:10;stroke-dasharray:none;stroke-opacity:1"
                   id="path2171" />
              </g>
              <g
                 id="g2173"
                 transform="matrix(1,0,0,-1,-4.1353128,720.53295)">
                <path
                   d="m 870.934,-666.449 c 9.093,3.297 33.464,0.301 22.386,-13.336 -7.976,-6.156 -35.285,-0.188 -22.386,13.336"
                   style="fill:none;stroke:#000000;stroke-width:2.61674;stroke-linecap:round;stroke-linejoin:round;stroke-miterlimit:10;stroke-dasharray:none;stroke-opacity:1"
                   id="path2175" />
              </g>
              <g
                 id="g2177"
                 transform="matrix(1,0,0,-1,-4.1353128,720.53295)">
                <path
                   d="m 879.281,-636.586 c -18.886,0.824 -2.926,26.902 10.18,17.609 14.5,-8.054 4.195,-20.804 -10.18,-17.609"
                   style="fill:none;stroke:#000000;stroke-width:2.61674;stroke-linecap:round;stroke-linejoin:round;stroke-miterlimit:10;stroke-dasharray:none;stroke-opacity:1"
                   id="path2179" />
              </g>
              <g
                 id="g2181"
                 transform="matrix(1,0,0,-1,-4.1353128,720.53295)">
                <path
                   d="m 879.168,-590.555 c -17.356,6.743 -12.305,22.977 8.824,16.426 11.219,-3.351 5.664,-21.101 -8.824,-16.426"
                   style="fill:none;stroke:#000000;stroke-width:2.61674;stroke-linecap:round;stroke-linejoin:round;stroke-miterlimit:10;stroke-dasharray:none;stroke-opacity:1"
                   id="path2183" />
              </g>
              <g
                 id="g2185"
                 transform="matrix(1,0,0,-1,-4.1353128,720.53295)">
                <path
                   d="m 880.223,-544.406 c -18.133,7.918 -7.524,22.715 5.98,16.492 15.109,-5.246 5.465,-24.828 -5.98,-16.492"
                   style="fill:none;stroke:#000000;stroke-width:2.61674;stroke-linecap:round;stroke-linejoin:round;stroke-miterlimit:10;stroke-dasharray:none;stroke-opacity:1"
                   id="path2187" />
              </g>
              <g
                 id="g2189"
                 transform="matrix(1,0,0,-1,-4.1353128,720.53295)">
                <path
                   d="m 881.5,-498.848 c -3.504,-0.355 -7.688,0.512 -9.562,3.809 -2.227,4 0.046,9.305 4.031,11.195 3.093,1.598 6.73,1.383 10.07,0.891 3.766,-0.684 7.723,-2.676 9.316,-6.344 1.09,-2.375 0.36,-5.324 -1.675,-6.953 -4.149,-3.406 -9.832,-2.902 -14.86,-3.012 h -0.484"
                   style="fill:none;stroke:#000000;stroke-width:2.61674;stroke-linecap:round;stroke-linejoin:round;stroke-miterlimit:10;stroke-dasharray:none;stroke-opacity:1"
                   id="path2191" />
              </g>
              <g
                 id="g2193"
                 transform="matrix(1,0,0,-1,-4.1353128,720.53295)">
                <path
                   d="m 958.152,-495.527 c 8.297,-14.282 31.403,-8.809 24.086,14.015 -10.754,8.309 -32.019,0.692 -22.601,-14.828"
                   style="fill:none;stroke:#000000;stroke-width:2.61674;stroke-linecap:round;stroke-linejoin:round;stroke-miterlimit:10;stroke-dasharray:none;stroke-opacity:1"
                   id="path2195" />
              </g>
              <g
                 id="g2197"
                 transform="matrix(1,0,0,-1,-4.1353128,720.53295)">
                <path
                   d="m 960.477,-529.207 c 10.246,6.711 31.492,-4.668 17.918,-15.137 -9.204,-4.691 -27.094,2.52 -18.938,14.699"
                   style="fill:none;stroke:#000000;stroke-width:2.61674;stroke-linecap:round;stroke-linejoin:round;stroke-miterlimit:10;stroke-dasharray:none;stroke-opacity:1"
                   id="path2199" />
              </g>
              <g
                 id="g2201"
                 transform="matrix(1,0,0,-1,-4.1353128,720.53295)">
                <path
                   d="m 961.945,-574.68 c 10.27,6.196 30.633,-7.558 15.2,-15.414 -9.684,-4.328 -31.922,9.121 -15.2,15.414"
                   style="fill:none;stroke:#000000;stroke-width:2.61674;stroke-linecap:round;stroke-linejoin:round;stroke-miterlimit:10;stroke-dasharray:none;stroke-opacity:1"
                   id="path2203" />
              </g>
              <g
                 id="g2205"
                 transform="matrix(1,0,0,-1,-4.1353128,720.53295)">
                <path
                   d="m 961.219,-618.832 c 10.918,8.809 31.789,-7.875 15.847,-15.934 -10.484,-5.687 -31.539,8.637 -15.847,15.934"
                   style="fill:none;stroke:#000000;stroke-width:2.61674;stroke-linecap:round;stroke-linejoin:round;stroke-miterlimit:10;stroke-dasharray:none;stroke-opacity:1"
                   id="path2207" />
              </g>
              <g
                 id="g2209"
                 transform="matrix(1,0,0,-1,-4.1353128,720.53295)">
                <path
                   d="m 961.867,-665.891 c 12.516,9.231 30.481,-12.671 12.399,-17.375 -14.25,-4.355 -27.711,15.844 -8.528,18.993"
                   style="fill:none;stroke:#000000;stroke-width:2.61674;stroke-linecap:round;stroke-linejoin:round;stroke-miterlimit:10;stroke-dasharray:none;stroke-opacity:1"
                   id="path2211" />
              </g>
              <g
                 id="g2213"
                 transform="matrix(1,0,0,-1,-4.1353128,720.53295)">
                <path
                   d="m 869.883,-697.512 c 17.082,0.848 33.847,-2.601 50.855,-0.379 22.414,1.227 41.942,0.457 64.098,4.137"
                   style="fill:none;stroke:#000000;stroke-width:2.61674;stroke-linecap:round;stroke-linejoin:round;stroke-miterlimit:10;stroke-dasharray:none;stroke-opacity:1"
                   id="path2215" />
              </g>
            </g>
          </g>
        </g>
      </g>
    </g>
  </g>
</svg>
