<?xml version="1.0" encoding="UTF-8" standalone="no"?>
<!-- Created by Ashley Blewer - This work is licensed under a Creative Commons Attribution 4.0 International License -->

<svg
   width="544"
   height="480"
   viewBox="0 0 143.93334 127"
   version="1.1"
   id="svg2490"
   inkscape:version="1.2.2 (1:1.2.2+202212051552+b0a8486541)"
   sodipodi:docname="1911-home-kinetoscope-2.svg"
   xmlns:inkscape="http://www.inkscape.org/namespaces/inkscape"
   xmlns:sodipodi="http://sodipodi.sourceforge.net/DTD/sodipodi-0.dtd"
   xmlns="http://www.w3.org/2000/svg"
   xmlns:svg="http://www.w3.org/2000/svg">
  <sodipodi:namedview
     id="namedview2492"
     pagecolor="#ffffff"
     bordercolor="#666666"
     borderopacity="1.0"
     inkscape:pageshadow="2"
     inkscape:pageopacity="0.0"
     inkscape:pagecheckerboard="0"
     inkscape:document-units="mm"
     showgrid="false"
     units="px"
     inkscape:zoom="0.90583674"
     inkscape:cx="336.15329"
     inkscape:cy="254.46086"
     inkscape:window-width="1846"
     inkscape:window-height="1136"
     inkscape:window-x="0"
     inkscape:window-y="0"
     inkscape:window-maximized="1"
     inkscape:current-layer="g6395"
     inkscape:showpageshadow="2"
     inkscape:deskcolor="#d1d1d1" />
  <defs
     id="defs2487" />
  <g
     inkscape:label="Layer 1"
     inkscape:groupmode="layer"
     id="layer1">
    <g
       id="g4731"
       transform="matrix(0.32961229,0,0,0.32903008,-241.78905,1.73126)"
       style="stroke-width:2.68698">
      <g
         id="g104528"
         transform="matrix(1,0,0,-1,0,792)"
         style="stroke-width:2.68698">
        <g
           id="g104530"
           style="stroke-width:2.68698" />
      </g>
      <g
         id="g104996"
         transform="matrix(1,0,0,-1,0,792)"
         style="stroke-width:2.68698">
        <g
           id="g104998"
           style="stroke-width:2.68698" />
      </g>
      <g
         id="g28852"
         transform="matrix(1.070281,0,0,1.0721748,779.91249,-443.13657)">
        <g
           id="g6718"
           transform="matrix(1.117886,0,0,1.117886,-549.13111,-491.62865)">
          <g
             id="g6395"
             transform="matrix(0.53415107,0,0,0.53415109,441.93669,415.26868)">
            <g
               id="g6160"
               transform="matrix(1.6747052,0,0,1.6747052,-1126.5588,-544.91736)">
              <g
                 id="g1989"
                 transform="matrix(1,0,0,-1,-4.1353128,720.53295)">
                <path
                   d="m 718.289,-322.727 c -0.445,28.938 4.34,57.997 -0.633,86.793 -0.609,5.528 -1.136,11.141 -0.344,16.68"
                   style="fill:none;stroke:#000000;stroke-width:2.61674;stroke-linecap:round;stroke-linejoin:round;stroke-miterlimit:10;stroke-dasharray:none;stroke-opacity:1"
                   id="path1991" />
              </g>
              <g
                 id="g1993"
                 transform="matrix(1,0,0,-1,-4.1353128,720.53295)">
                <path
                   d="m 718.289,-322.727 c 3.359,-21.398 25.258,-32.351 43.621,-36.988 36,-12.633 75.164,-7.609 111.551,0.438 18.289,4.597 34.555,12.328 43.359,30.058"
                   style="fill:none;stroke:#000000;stroke-width:2.61674;stroke-linecap:round;stroke-linejoin:round;stroke-miterlimit:10;stroke-dasharray:none;stroke-opacity:1"
                   id="path1995" />
              </g>
              <g
                 id="g1997"
                 transform="matrix(1,0,0,-1,-4.1353128,720.53295)">
                <path
                   d="m 916.82,-329.219 c -5.031,30 -3.797,60.465 -2.039,90.68 -0.023,2.672 0.856,11.781 0.285,13.625"
                   style="fill:none;stroke:#000000;stroke-width:2.61674;stroke-linecap:round;stroke-linejoin:round;stroke-miterlimit:10;stroke-dasharray:none;stroke-opacity:1"
                   id="path1999" />
              </g>
              <g
                 id="g2001"
                 transform="matrix(1,0,0,-1,-4.1353128,720.53295)">
                <path
                   d="m 856.121,-196.555 c -25.512,9.395 -53.476,6.383 -79.945,3.938 -21.254,-2.879 -45.711,-7.578 -59.114,-25.91 l -0.011,-3.328"
                   style="fill:none;stroke:#000000;stroke-width:2.61674;stroke-linecap:round;stroke-linejoin:round;stroke-miterlimit:10;stroke-dasharray:none;stroke-opacity:1"
                   id="path2003" />
              </g>
              <g
                 id="g2005"
                 transform="matrix(1,0,0,-1,-4.1353128,720.53295)">
                <path
                   d="m 717.051,-221.855 c 17.394,-21.809 47.445,-23.653 72.875,-28.196 34.98,-3.472 70.898,-0.195 104.617,9.692 7.066,2.519 16.207,9.164 20.523,15.445"
                   style="fill:none;stroke:#000000;stroke-width:2.61674;stroke-linecap:round;stroke-linejoin:round;stroke-miterlimit:10;stroke-dasharray:none;stroke-opacity:1"
                   id="path2007" />
              </g>
              <g
                 id="g2009"
                 transform="matrix(1,0,0,-1,-4.1353128,720.53295)">
                <path
                   d="m 718.621,-241.23 c 29.492,-21.524 67.887,-25.2 103.313,-24.313 28.183,2.676 56.961,7.316 82.808,19.328 4.11,2.203 6.957,4.153 10.039,7.676"
                   style="fill:none;stroke:#000000;stroke-width:2.61674;stroke-linecap:round;stroke-linejoin:round;stroke-miterlimit:10;stroke-dasharray:none;stroke-opacity:1"
                   id="path2011" />
              </g>
              <g
                 id="g2013"
                 transform="matrix(1,0,0,-1,-4.1353128,720.53295)">
                <path
                   d="m 718.289,-322.727 c 13.649,-17.214 36.496,-31.988 58.484,-32.871 35.508,-4.109 72.606,-2.168 106.399,9.926 12.379,5.567 23.926,12.637 32.594,23.41"
                   style="fill:none;stroke:#000000;stroke-width:2.61674;stroke-linecap:round;stroke-linejoin:round;stroke-miterlimit:10;stroke-dasharray:none;stroke-opacity:1"
                   id="path2015" />
              </g>
              <g
                 id="g2017"
                 transform="matrix(1,0,0,-1,-4.1353128,720.53295)">
                <path
                   d="m 863.238,-206.113 c -13.578,18.074 -13.676,41.773 -20.008,62.687 -1.41,6.762 -2.781,13.567 -3.113,20.481"
                   style="fill:none;stroke:#000000;stroke-width:2.61674;stroke-linecap:round;stroke-linejoin:round;stroke-miterlimit:10;stroke-dasharray:none;stroke-opacity:1"
                   id="path2019" />
              </g>
              <g
                 id="g2021"
                 transform="matrix(1,0,0,-1,-4.1353128,720.53295)">
                <path
                   d="m 841.211,-122.102 c 33.551,23.137 75.543,26.567 114.809,31.668 20.418,1.602 41.949,3.161 61.394,-4.371 20.504,-17.531 -16.605,-32.242 -31.375,-35.007 -25.566,-7.633 -52.797,-8.379 -79.336,-7.75 -0.945,0.312 -1.848,0.734 -2.765,1.101"
                   style="fill:none;stroke:#000000;stroke-width:2.61674;stroke-linecap:round;stroke-linejoin:round;stroke-miterlimit:10;stroke-dasharray:none;stroke-opacity:1"
                   id="path2023" />
              </g>
              <g
                 id="g2025"
                 transform="matrix(1,0,0,-1,-4.1353128,720.53295)">
                <path
                   d="m 842.055,-124.125 c 17.562,-11.035 39.121,-13.535 58.984,-17.937"
                   style="fill:none;stroke:#000000;stroke-width:2.61674;stroke-linecap:round;stroke-linejoin:round;stroke-miterlimit:10;stroke-dasharray:none;stroke-opacity:1"
                   id="path2027" />
              </g>
              <g
                 id="g2029"
                 transform="matrix(1,0,0,-1,-4.1353128,720.53295)">
                <path
                   d="m 869.02,-138.242 c 32.035,-10.82 65.972,-14.348 99.382,-18.52 26.739,-2.293 61.145,-6.277 87.879,-4.758 -3.976,4.438 -20.574,11.821 -26.523,12.93"
                   style="fill:none;stroke:#000000;stroke-width:2.61674;stroke-linecap:round;stroke-linejoin:round;stroke-miterlimit:10;stroke-dasharray:none;stroke-opacity:1"
                   id="path2031" />
              </g>
              <g
                 id="g2033"
                 transform="matrix(1,0,0,-1,-4.1353128,720.53295)">
                <path
                   d="m 1056.281,-161.52 c 0.239,-14.519 -3.781,-40.937 -4.179,-51.777"
                   style="fill:none;stroke:#000000;stroke-width:2.61674;stroke-linecap:round;stroke-linejoin:round;stroke-miterlimit:10;stroke-dasharray:none;stroke-opacity:1"
                   id="path2035" />
              </g>
              <g
                 id="g2037"
                 transform="matrix(1,0,0,-1,-4.1353128,720.53295)">
                <path
                   d="m 864.543,-134.32 c -0.766,-22.903 -4.234,-50.86 3.168,-73.098"
                   style="fill:none;stroke:#000000;stroke-width:2.61674;stroke-linecap:round;stroke-linejoin:round;stroke-miterlimit:10;stroke-dasharray:none;stroke-opacity:1"
                   id="path2039" />
              </g>
              <g
                 id="g2041"
                 transform="matrix(1,0,0,-1,-4.1353128,720.53295)">
                <path
                   d="m 863.238,-206.113 c 31.461,-13.391 69.328,-26.727 103.66,-28.582"
                   style="fill:none;stroke:#000000;stroke-width:2.61674;stroke-linecap:round;stroke-linejoin:round;stroke-miterlimit:10;stroke-dasharray:none;stroke-opacity:1"
                   id="path2043" />
              </g>
              <g
                 id="g2045"
                 transform="matrix(1,0,0,-1,-4.1353128,720.53295)">
                <path
                   d="m 1065.172,-215.105 c -34.852,-0.805 -70.844,-15.977 -104.742,-21.559 -12.598,-0.77 -26.977,-2.055 -39.582,-2.52"
                   style="fill:none;stroke:#000000;stroke-width:2.61674;stroke-linecap:round;stroke-linejoin:round;stroke-miterlimit:10;stroke-dasharray:none;stroke-opacity:1"
                   id="path2047" />
              </g>
              <g
                 id="g2049"
                 transform="matrix(1,0,0,-1,-4.1353128,720.53295)">
                <path
                   d="m 1065.172,-215.105 c 4.277,-18.106 5.394,-36.774 9.355,-54.938"
                   style="fill:none;stroke:#000000;stroke-width:2.61674;stroke-linecap:round;stroke-linejoin:round;stroke-miterlimit:10;stroke-dasharray:none;stroke-opacity:1"
                   id="path2051" />
              </g>
              <g
                 id="g2053"
                 transform="matrix(1,0,0,-1,-4.1353128,720.53295)">
                <path
                   d="m 1074.527,-270.043 c 6.473,-12.09 -0.359,-19.238 -0.164,-32.027 -1.414,-11.145 -2.058,-22.368 -3.39,-33.52"
                   style="fill:none;stroke:#000000;stroke-width:2.61674;stroke-linecap:round;stroke-linejoin:round;stroke-miterlimit:10;stroke-dasharray:none;stroke-opacity:1"
                   id="path2055" />
              </g>
              <g
                 id="g2057"
                 transform="matrix(1,0,0,-1,-4.1353128,720.53295)">
                <path
                   d="m 1070.066,-336.969 c -28.703,-21.34 -68.101,-23.301 -101.683,-14.168 -14.653,3.785 -24.871,14.93 -36.684,23.91"
                   style="fill:none;stroke:#000000;stroke-width:2.61674;stroke-linecap:round;stroke-linejoin:round;stroke-miterlimit:10;stroke-dasharray:none;stroke-opacity:1"
                   id="path2059" />
              </g>
              <g
                 id="g2061"
                 transform="matrix(1,0,0,-1,-4.1353128,720.53295)">
                <path
                   d="m 1076.18,-275.117 c -27.989,-9.926 -58.188,-11.047 -86.219,-20.938 -18.688,-5.523 -37.688,-9.656 -56.977,-12.277"
                   style="fill:none;stroke:#000000;stroke-width:2.61674;stroke-linecap:round;stroke-linejoin:round;stroke-miterlimit:10;stroke-dasharray:none;stroke-opacity:1"
                   id="path2063" />
              </g>
              <g
                 id="g2065"
                 transform="matrix(1,0,0,-1,-4.1353128,720.53295)">
                <path
                   d="m 919.633,-240.133 c 0.328,-22.836 7.101,-44.836 12.258,-66.89 l -0.012,0.578"
                   style="fill:none;stroke:#000000;stroke-width:2.61674;stroke-linecap:round;stroke-linejoin:round;stroke-miterlimit:10;stroke-dasharray:none;stroke-opacity:1"
                   id="path2067" />
              </g>
              <g
                 id="g2069"
                 transform="matrix(1,0,0,-1,-4.1353128,720.53295)">
                <path
                   d="m 935.215,-230.211 c -3.02,-1.418 -12.16,-6.445 -14.367,-8.973"
                   style="fill:none;stroke:#000000;stroke-width:2.61674;stroke-linecap:round;stroke-linejoin:round;stroke-miterlimit:10;stroke-dasharray:none;stroke-opacity:1"
                   id="path2071" />
              </g>
              <g
                 id="g2073"
                 transform="matrix(1,0,0,-1,-4.1353128,720.53295)">
                <path
                   d="m 931.699,-327.227 c 1.75,5.895 -0.316,12.168 1.461,18.055"
                   style="fill:none;stroke:#000000;stroke-width:2.61674;stroke-linecap:round;stroke-linejoin:round;stroke-miterlimit:10;stroke-dasharray:none;stroke-opacity:1"
                   id="path2075" />
              </g>
              <g
                 id="g2077"
                 transform="matrix(1,0,0,-1,-4.1353128,720.53295)">
                <path
                   d="m 864.543,-134.32 c 24.445,12.086 56.074,17.187 82.398,22.625 19.907,2.394 40.098,4.754 60.129,2.734 2.75,-0.758 5.176,-2.301 7.879,-3.18"
                   style="fill:none;stroke:#000000;stroke-width:2.61674;stroke-linecap:round;stroke-linejoin:round;stroke-miterlimit:10;stroke-dasharray:none;stroke-opacity:1"
                   id="path2079" />
              </g>
              <g
                 id="g2081"
                 transform="matrix(1,0,0,-1,-4.1353128,720.53295)">
                <path
                   d="m 912.402,-136.223 c 18.762,3.602 37.778,6.883 56.961,6.164"
                   style="fill:none;stroke:#000000;stroke-width:2.61674;stroke-linecap:round;stroke-linejoin:round;stroke-miterlimit:10;stroke-dasharray:none;stroke-opacity:1"
                   id="path2083" />
              </g>
              <g
                 id="g2085"
                 transform="matrix(1,0,0,-1,-4.1353128,720.53295)">
                <path
                   d="m 843.23,-143.426 c 32.551,-9.14 72.692,-28.863 107.102,-29.672 31.086,-4.64 62.574,-5.132 93.82,-8.152 l 10.047,0.68"
                   style="fill:none;stroke:#000000;stroke-width:2.61674;stroke-linecap:round;stroke-linejoin:round;stroke-miterlimit:10;stroke-dasharray:none;stroke-opacity:1"
                   id="path2087" />
              </g>
              <g
                 id="g2089"
                 transform="matrix(1,0,0,-1,-4.1353128,720.53295)">
                <path
                   d="m 851.676,-173.512 c 44.992,-14.238 95.394,-31.203 143.121,-31.047 16.183,-0.597 32.383,-0.656 48.574,-0.464 l 7.426,0.218"
                   style="fill:none;stroke:#000000;stroke-width:2.61674;stroke-linecap:round;stroke-linejoin:round;stroke-miterlimit:10;stroke-dasharray:none;stroke-opacity:1"
                   id="path2091" />
              </g>
              <g
                 id="g2093"
                 transform="matrix(1,0,0,-1,-4.1353128,720.53295)">
                <path
                   d="m 1060.672,-234.113 c -36.274,-7.227 -72.488,-14.715 -108.324,-23.879 -8.328,-2.309 -17.196,-1.66 -25.461,-3.281"
                   style="fill:none;stroke:#000000;stroke-width:2.61674;stroke-linecap:round;stroke-linejoin:round;stroke-miterlimit:10;stroke-dasharray:none;stroke-opacity:1"
                   id="path2095" />
              </g>
              <g
                 id="g2097"
                 transform="matrix(1,0,0,-1,-4.1353128,720.53295)">
                <path
                   d="m 1065.594,-257.41 c -36.055,-9.598 -71.453,-21.52 -107.809,-30.012 -8.832,-2.91 -18.668,-3.879 -27.035,-7.723"
                   style="fill:none;stroke:#000000;stroke-width:2.61674;stroke-linecap:round;stroke-linejoin:round;stroke-miterlimit:10;stroke-dasharray:none;stroke-opacity:1"
                   id="path2099" />
              </g>
              <g
                 id="g2101"
                 transform="matrix(1,0,0,-1,-4.1353128,720.53295)">
                <path
                   d="m 976.762,-305.105 c 21.523,-2.887 43.39,-4.04 65.027,-4.215 9.012,0.972 17.934,2.785 26.625,5.336"
                   style="fill:none;stroke:#000000;stroke-width:2.61674;stroke-linecap:round;stroke-linejoin:round;stroke-miterlimit:10;stroke-dasharray:none;stroke-opacity:1"
                   id="path2103" />
              </g>
              <g
                 id="g2105"
                 transform="matrix(1,0,0,-1,-4.1353128,720.53295)">
                <path
                   d="m 938.648,-313.957 c 32.172,-19.375 72.168,-23.785 108.657,-16.977 6.48,1.618 12.773,4.082 18.476,7.586"
                   style="fill:none;stroke:#000000;stroke-width:2.61674;stroke-linecap:round;stroke-linejoin:round;stroke-miterlimit:10;stroke-dasharray:none;stroke-opacity:1"
                   id="path2107" />
              </g>
              <g
                 id="g2109"
                 transform="matrix(1,0,0,-1,-4.1353128,720.53295)">
                <path
                   d="m 750.262,-349.348 c 0.836,17.516 -4.504,34.739 -2.739,52.325 -0.07,9.449 -0.503,18.894 -0.296,28.343"
                   style="fill:none;stroke:#000000;stroke-width:1.26872;stroke-linecap:round;stroke-linejoin:round;stroke-miterlimit:10;stroke-dasharray:none;stroke-opacity:1"
                   id="path2111" />
              </g>
              <g
                 id="g2113"
                 transform="matrix(1,0,0,-1,-4.1353128,720.53295)">
                <path
                   d="m 747.227,-268.68 c 37.812,-6.062 80.543,-6.652 118.007,2.618 15.973,4.398 34.321,5.437 47.211,16.671"
                   style="fill:none;stroke:#000000;stroke-width:1.26872;stroke-linecap:round;stroke-linejoin:round;stroke-miterlimit:10;stroke-dasharray:none;stroke-opacity:1"
                   id="path2115" />
              </g>
              <g
                 id="g2117"
                 transform="matrix(1,0,0,-1,-4.1353128,720.53295)">
                <path
                   d="m 760.664,-279.395 c 37.922,-11.351 79.055,-11 116.746,1.063 10.977,2.504 21.992,5.406 32.063,10.574"
                   style="fill:none;stroke:#000000;stroke-width:1.26872;stroke-linecap:round;stroke-linejoin:round;stroke-miterlimit:10;stroke-dasharray:none;stroke-opacity:1"
                   id="path2119" />
              </g>
              <g
                 id="g2121"
                 transform="matrix(1,0,0,-1,-4.1353128,720.53295)">
                <path
                   d="m 845.289,-297.035 c 1.027,-0.063 5.121,0.183 6.141,0.371"
                   style="fill:none;stroke:#000000;stroke-width:1.26872;stroke-linecap:round;stroke-linejoin:round;stroke-miterlimit:10;stroke-dasharray:none;stroke-opacity:1"
                   id="path2123" />
              </g>
              <g
                 id="g2125"
                 transform="matrix(1,0,0,-1,-4.1353128,720.53295)">
                <path
                   d="m 765.461,-310.523 c 36.094,-8.559 74.176,-7.329 110.469,-0.981 10.922,2.969 21.515,7.699 30.32,14.91"
                   style="fill:none;stroke:#000000;stroke-width:1.26872;stroke-linecap:round;stroke-linejoin:round;stroke-miterlimit:10;stroke-dasharray:none;stroke-opacity:1"
                   id="path2127" />
              </g>
              <g
                 id="g2129"
                 transform="matrix(1,0,0,-1,-4.1353128,720.53295)">
                <path
                   d="m 764.027,-332.227 c 47.086,-5.875 99.555,-10.269 142.106,14.993"
                   style="fill:none;stroke:#000000;stroke-width:1.26872;stroke-linecap:round;stroke-linejoin:round;stroke-miterlimit:10;stroke-dasharray:none;stroke-opacity:1"
                   id="path2131" />
              </g>
              <g
                 id="g2859"
                 transform="matrix(1,0,0,-1,-4.1353128,720.53295)">
                <path
                   d="m 1022.41,-100.902 c 4.246,-17.672 11.91,-42.688 8.985,-59.309 -2.243,15.012 -4.809,32.457 -8.829,47.109"
                   style="fill:none;stroke:#000000;stroke-width:2.61674;stroke-linecap:round;stroke-linejoin:round;stroke-miterlimit:10;stroke-dasharray:none;stroke-opacity:1"
                   id="path2861" />
              </g>
              <g
                 id="g2863"
                 transform="matrix(1,0,0,-1,-4.1353128,720.53295)">
                <path
                   d="m 960.18,-149.582 c 20.125,2.078 37.461,13.641 56.472,19.488"
                   style="fill:none;stroke:#000000;stroke-width:2.61674;stroke-linecap:round;stroke-linejoin:round;stroke-miterlimit:10;stroke-dasharray:none;stroke-opacity:1"
                   id="path2865" />
              </g>
            </g>
          </g>
        </g>
      </g>
    </g>
  </g>
</svg>
