<?xml version="1.0" encoding="UTF-8" standalone="no"?>
<!-- Created by Ashley Blewer - This work is licensed under a Creative Commons Attribution 4.0 International License -->

<svg
   width="544"
   height="480"
   viewBox="0 0 143.93334 127"
   version="1.1"
   id="svg2490"
   inkscape:version="1.2.2 (1:1.2.2+202212051552+b0a8486541)"
   sodipodi:docname="1922-9.5-4.svg"
   xmlns:inkscape="http://www.inkscape.org/namespaces/inkscape"
   xmlns:sodipodi="http://sodipodi.sourceforge.net/DTD/sodipodi-0.dtd"
   xmlns="http://www.w3.org/2000/svg"
   xmlns:svg="http://www.w3.org/2000/svg">
  <sodipodi:namedview
     id="namedview2492"
     pagecolor="#ffffff"
     bordercolor="#666666"
     borderopacity="1.0"
     inkscape:pageshadow="2"
     inkscape:pageopacity="0.0"
     inkscape:pagecheckerboard="0"
     inkscape:document-units="mm"
     showgrid="false"
     units="px"
     inkscape:zoom="0.90583674"
     inkscape:cx="336.15329"
     inkscape:cy="254.46086"
     inkscape:window-width="1846"
     inkscape:window-height="1136"
     inkscape:window-x="0"
     inkscape:window-y="0"
     inkscape:window-maximized="1"
     inkscape:current-layer="g6395"
     inkscape:showpageshadow="2"
     inkscape:deskcolor="#d1d1d1" />
  <defs
     id="defs2487" />
  <g
     inkscape:label="Layer 1"
     inkscape:groupmode="layer"
     id="layer1">
    <g
       id="g4731"
       transform="matrix(0.32961229,0,0,0.32903008,-241.78905,1.73126)"
       style="stroke-width:2.68698">
      <g
         id="g104528"
         transform="matrix(1,0,0,-1,0,792)"
         style="stroke-width:2.68698">
        <g
           id="g104530"
           style="stroke-width:2.68698" />
      </g>
      <g
         id="g104996"
         transform="matrix(1,0,0,-1,0,792)"
         style="stroke-width:2.68698">
        <g
           id="g104998"
           style="stroke-width:2.68698" />
      </g>
      <g
         id="g28852"
         transform="matrix(1.070281,0,0,1.0721748,779.91249,-443.13657)">
        <g
           id="g6718"
           transform="matrix(1.117886,0,0,1.117886,-549.13111,-491.62865)">
          <g
             id="g6395"
             transform="matrix(0.53415107,0,0,0.53415109,441.93669,415.26868)">
            <g
               id="g6404"
               transform="matrix(2.1069623,0,0,2.1069623,-68.235142,-1749.9911)">
              <g
                 id="g1958"
                 transform="matrix(1,0,0,-1,-76.063072,759.2184)">
                <path
                   d="m 272.438,-463.359 c 2.015,9.367 -3.934,19.043 -0.485,28.168"
                   style="fill:none;stroke:#000000;stroke-width:2.61674;stroke-linecap:round;stroke-linejoin:round;stroke-miterlimit:10;stroke-dasharray:none;stroke-opacity:1"
                   id="path1960" />
              </g>
              <g
                 id="g1962"
                 transform="matrix(1,0,0,-1,-76.063072,759.2184)">
                <path
                   d="m 271.953,-435.191 c 5.879,-0.61 19.738,1.089 19.738,1.089"
                   style="fill:none;stroke:#000000;stroke-width:2.61674;stroke-linecap:round;stroke-linejoin:round;stroke-miterlimit:10;stroke-dasharray:none;stroke-opacity:1"
                   id="path1964" />
              </g>
              <g
                 id="g1966"
                 transform="matrix(1,0,0,-1,-76.063072,759.2184)">
                <path
                   d="m 292.051,-434.719 c 2.422,-4.847 3.422,-10.863 1.597,-16.07"
                   style="fill:none;stroke:#000000;stroke-width:2.61674;stroke-linecap:round;stroke-linejoin:round;stroke-miterlimit:10;stroke-dasharray:none;stroke-opacity:1"
                   id="path1968" />
              </g>
              <g
                 id="g1970"
                 transform="matrix(1,0,0,-1,-76.063072,759.2184)">
                <path
                   d="m 291.355,-436.719 c 1.086,-7.445 0.762,-15.031 2.125,-22.441"
                   style="fill:none;stroke:#000000;stroke-width:2.61674;stroke-linecap:round;stroke-linejoin:round;stroke-miterlimit:10;stroke-dasharray:none;stroke-opacity:1"
                   id="path1972" />
              </g>
              <g
                 id="g1974"
                 transform="matrix(1,0,0,-1,-76.063072,759.2184)">
                <path
                   d="m 271.855,-463.578 c 7.036,-3.258 17.176,-1.945 21.856,3.898"
                   style="fill:none;stroke:#000000;stroke-width:2.61674;stroke-linecap:round;stroke-linejoin:round;stroke-miterlimit:10;stroke-dasharray:none;stroke-opacity:1"
                   id="path1976" />
              </g>
              <g
                 id="g1978"
                 transform="matrix(1,0,0,-1,-76.063072,759.2184)">
                <path
                   d="m 271.855,-463.578 c 1.125,-9.313 1.528,-19.445 2.168,-28.805"
                   style="fill:none;stroke:#000000;stroke-width:2.61674;stroke-linecap:round;stroke-linejoin:round;stroke-miterlimit:10;stroke-dasharray:none;stroke-opacity:1"
                   id="path1980" />
              </g>
              <g
                 id="g1982"
                 transform="matrix(1,0,0,-1,-76.063072,759.2184)">
                <path
                   d="m 274.023,-492.383 c 6.954,-4.918 16.872,-5.351 23.407,-0.191"
                   style="fill:none;stroke:#000000;stroke-width:2.61674;stroke-linecap:round;stroke-linejoin:round;stroke-miterlimit:10;stroke-dasharray:none;stroke-opacity:1"
                   id="path1984" />
              </g>
              <g
                 id="g1986"
                 transform="matrix(1,0,0,-1,-76.063072,759.2184)">
                <path
                   d="m 297.43,-492.574 c 1.668,10.793 -1.176,22.344 -3.086,32.715"
                   style="fill:none;stroke:#000000;stroke-width:2.61674;stroke-linecap:round;stroke-linejoin:round;stroke-miterlimit:10;stroke-dasharray:none;stroke-opacity:1"
                   id="path1988" />
              </g>
              <g
                 id="g1990"
                 transform="matrix(1,0,0,-1,-76.063072,759.2184)">
                <path
                   d="m 270.172,-473.195 c -5.844,1.015 -11.781,-0.489 -17.629,0.418"
                   style="fill:none;stroke:#000000;stroke-width:2.61674;stroke-linecap:round;stroke-linejoin:round;stroke-miterlimit:10;stroke-dasharray:none;stroke-opacity:1"
                   id="path1992" />
              </g>
              <g
                 id="g1994"
                 transform="matrix(1,0,0,-1,-76.063072,759.2184)">
                <path
                   d="m 252.543,-472.777 c -1.266,1.687 -5.68,4.445 -7.43,2.222"
                   style="fill:none;stroke:#000000;stroke-width:2.61674;stroke-linecap:round;stroke-linejoin:round;stroke-miterlimit:10;stroke-dasharray:none;stroke-opacity:1"
                   id="path1996" />
              </g>
              <g
                 id="g1998"
                 transform="matrix(1,0,0,-1,-76.063072,759.2184)">
                <path
                   d="m 245.113,-470.555 c -1.308,1.336 -6.062,0.188 -5.984,-1.812"
                   style="fill:none;stroke:#000000;stroke-width:2.61674;stroke-linecap:round;stroke-linejoin:round;stroke-miterlimit:10;stroke-dasharray:none;stroke-opacity:1"
                   id="path2000" />
              </g>
              <g
                 id="g2002"
                 transform="matrix(1,0,0,-1,-76.063072,759.2184)">
                <path
                   d="m 297.508,-472.258 c 6.687,0.418 13.488,0.391 20.074,-0.953"
                   style="fill:none;stroke:#000000;stroke-width:2.61674;stroke-linecap:round;stroke-linejoin:round;stroke-miterlimit:10;stroke-dasharray:none;stroke-opacity:1"
                   id="path2004" />
              </g>
              <g
                 id="g2006"
                 transform="matrix(1,0,0,-1,-76.063072,759.2184)">
                <path
                   d="m 299.359,-473.484 c 6.84,0.621 13.977,0.574 20.457,-1.981"
                   style="fill:none;stroke:#000000;stroke-width:2.61674;stroke-linecap:round;stroke-linejoin:round;stroke-miterlimit:10;stroke-dasharray:none;stroke-opacity:1"
                   id="path2008" />
              </g>
              <g
                 id="g2010"
                 transform="matrix(1,0,0,-1,-76.063072,759.2184)">
                <path
                   d="m 321.02,-475.602 c 0.246,5.551 5.515,4.77 8.363,1.661"
                   style="fill:none;stroke:#000000;stroke-width:2.61674;stroke-linecap:round;stroke-linejoin:round;stroke-miterlimit:10;stroke-dasharray:none;stroke-opacity:1"
                   id="path2012" />
              </g>
              <g
                 id="g2014"
                 transform="matrix(1,0,0,-1,-76.063072,759.2184)">
                <path
                   d="m 329.383,-473.941 c -0.625,-16.34 4.301,-38.661 1.07,-51.114"
                   style="fill:none;stroke:#000000;stroke-width:2.61674;stroke-linecap:round;stroke-linejoin:round;stroke-miterlimit:10;stroke-dasharray:none;stroke-opacity:1"
                   id="path2016" />
              </g>
              <g
                 id="g2018"
                 transform="matrix(1,0,0,-1,-76.063072,759.2184)">
                <path
                   d="m 238.102,-472.949 c 2.097,-16.617 -1.102,-33.403 1.015,-50.024 -0.051,-24.613 0.547,-49.226 1.356,-73.816 -0.602,-11.824 -1.059,-23.688 -0.203,-35.492 0,-15.446 -0.477,-30.895 -1.102,-46.293 -0.043,-1.895 -0.184,-3.832 0.273,-5.696"
                   style="fill:none;stroke:#000000;stroke-width:2.61674;stroke-linecap:round;stroke-linejoin:round;stroke-miterlimit:10;stroke-dasharray:none;stroke-opacity:1"
                   id="path2020" />
              </g>
              <g
                 id="g2022"
                 transform="matrix(1,0,0,-1,-76.063072,759.2184)">
                <path
                   d="m 239.441,-684.27 c 7.254,-7.343 13.325,-0.953 15.348,5.407"
                   style="fill:none;stroke:#000000;stroke-width:2.61674;stroke-linecap:round;stroke-linejoin:round;stroke-miterlimit:10;stroke-dasharray:none;stroke-opacity:1"
                   id="path2024" />
              </g>
              <g
                 id="g2026"
                 transform="matrix(1,0,0,-1,-76.063072,759.2184)">
                <path
                   d="m 254.789,-678.863 c 12.758,1.14 26.324,-2.688 38.484,2.289 0.387,0.383 2.282,2.34 2.696,2.687"
                   style="fill:none;stroke:#000000;stroke-width:2.61674;stroke-linecap:round;stroke-linejoin:round;stroke-miterlimit:10;stroke-dasharray:none;stroke-opacity:1"
                   id="path2028" />
              </g>
              <g
                 id="g2030"
                 transform="matrix(1,0,0,-1,-76.063072,759.2184)">
                <path
                   d="m 295.969,-673.887 c 8.836,0.699 17.703,0.883 26.562,1.055"
                   style="fill:none;stroke:#000000;stroke-width:2.61674;stroke-linecap:round;stroke-linejoin:round;stroke-miterlimit:10;stroke-dasharray:none;stroke-opacity:1"
                   id="path2032" />
              </g>
              <g
                 id="g2034"
                 transform="matrix(1,0,0,-1,-76.063072,759.2184)">
                <path
                   d="m 322.594,-673.016 c -1.106,-4.461 3.125,-13.488 8.699,-7.515"
                   style="fill:none;stroke:#000000;stroke-width:2.61674;stroke-linecap:round;stroke-linejoin:round;stroke-miterlimit:10;stroke-dasharray:none;stroke-opacity:1"
                   id="path2036" />
              </g>
              <g
                 id="g2038"
                 transform="matrix(1,0,0,-1,-76.063072,759.2184)">
                <path
                   d="m 331.367,-567.621 c -0.945,-35.113 1.285,-70.402 0.766,-103.129 0.082,-3.266 0.308,-6.656 -0.84,-9.781"
                   style="fill:none;stroke:#000000;stroke-width:2.61674;stroke-linecap:round;stroke-linejoin:round;stroke-miterlimit:10;stroke-dasharray:none;stroke-opacity:1"
                   id="path2040" />
              </g>
              <g
                 id="g2042"
                 transform="matrix(1,0,0,-1,-76.063072,759.2184)">
                <path
                   d="m 324.898,-521.367 c 11.227,-5.016 14.774,-18.688 13.899,-29.985 -1.301,-14.898 -16.063,-27.378 -30.957,-25.98 -17.61,3.121 -28.059,24.273 -22.496,40.684 4.468,12.339 18.316,19.789 31.121,17.765 2.801,-0.055 5.289,-0.402 8.433,-2.484"
                   style="fill:none;stroke:#000000;stroke-width:2.61674;stroke-linecap:round;stroke-linejoin:round;stroke-miterlimit:10;stroke-dasharray:none;stroke-opacity:1"
                   id="path2044" />
              </g>
              <g
                 id="g2046"
                 transform="matrix(1,0,0,-1,-76.063072,759.2184)">
                <path
                   d="m 254.828,-536.176 c 8.18,0.235 16.695,1.696 24.578,-1.269"
                   style="fill:none;stroke:#000000;stroke-width:2.61674;stroke-linecap:round;stroke-linejoin:round;stroke-miterlimit:10;stroke-dasharray:none;stroke-opacity:1"
                   id="path2048" />
              </g>
              <g
                 id="g2050"
                 transform="matrix(1,0,0,-1,-76.063072,759.2184)">
                <path
                   d="m 279.406,-537.445 c -1.976,-16.325 8.051,-37.207 24.735,-41.446 7.632,-2.738 20.668,4.313 19.054,-8.937 -0.476,-9.922 -0.988,-29.59 -0.988,-29.59 -0.09,-2.492 -1.145,-5.383 -3.84,-6.066"
                   style="fill:none;stroke:#000000;stroke-width:2.61674;stroke-linecap:round;stroke-linejoin:round;stroke-miterlimit:10;stroke-dasharray:none;stroke-opacity:1"
                   id="path2052" />
              </g>
              <g
                 id="g2054"
                 transform="matrix(1,0,0,-1,-76.063072,759.2184)">
                <path
                   d="m 254.828,-536.176 c 0.367,-27.262 -1.476,-58.371 -1.84,-85.633 18.016,-3.285 46.973,-3.543 64.766,-1.554"
                   style="fill:none;stroke:#000000;stroke-width:2.61674;stroke-linecap:round;stroke-linejoin:round;stroke-miterlimit:10;stroke-dasharray:none;stroke-opacity:1"
                   id="path2056" />
              </g>
              <g
                 id="g2058"
                 transform="matrix(1,0,0,-1,-76.063072,759.2184)">
                <path
                   d="m 312.254,-531.555 c 14.105,3.137 21.574,-17.265 12.269,-26.554 -6.859,-11.606 -24.461,-7.786 -27.98,4.5 -4.328,9.234 5.23,21.742 15.711,22.054"
                   style="fill:none;stroke:#000000;stroke-width:2.61674;stroke-linecap:round;stroke-linejoin:round;stroke-miterlimit:10;stroke-dasharray:none;stroke-opacity:1"
                   id="path2060" />
              </g>
              <g
                 id="g2062"
                 transform="matrix(1,0,0,-1,-76.063072,759.2184)">
                <path
                   d="m 311.824,-538.055 c 5.254,-0.699 5.656,-0.699 8.598,-4.09 2.461,-4.121 2.348,-10.316 -1.66,-13.437 -2.356,-1.594 -5.344,-2.223 -8.16,-2.063 -6.098,0.45 -10.27,7.215 -8.782,12.957 0.992,4.231 5.653,7.661 10.004,6.633"
                   style="fill:none;stroke:#000000;stroke-width:2.61674;stroke-linecap:round;stroke-linejoin:round;stroke-miterlimit:10;stroke-dasharray:none;stroke-opacity:1"
                   id="path2064" />
              </g>
              <g
                 id="g2066"
                 transform="matrix(1,0,0,-1,-76.063072,759.2184)">
                <path
                   d="m 321.02,-475.602 c -0.508,-10.5 0.859,-23.406 1.324,-33.886"
                   style="fill:none;stroke:#000000;stroke-width:2.61674;stroke-linecap:round;stroke-linejoin:round;stroke-miterlimit:10;stroke-dasharray:none;stroke-opacity:1"
                   id="path2068" />
              </g>
              <g
                 id="g2070"
                 transform="matrix(1,0,0,-1,-76.063072,759.2184)">
                <path
                   d="m 247.723,-475.398 c 0.984,-11.508 1.777,-23.036 0.621,-34.547 0.32,-18.887 0.254,-37.789 0.793,-56.664 1.273,-19.442 0.644,-38.903 -0.067,-58.34 0.489,-13.422 -0.48,-45.547 -0.48,-45.547"
                   style="fill:none;stroke:#000000;stroke-width:2.61674;stroke-linecap:round;stroke-linejoin:round;stroke-miterlimit:10;stroke-dasharray:none;stroke-opacity:1"
                   id="path2072" />
              </g>
              <g
                 id="g2074"
                 transform="matrix(1,0,0,-1,-76.063072,759.2184)">
                <path
                   d="m 236.609,-508.266 c -6.742,0.848 -7.843,-10.496 -0.41,-9.257"
                   style="fill:none;stroke:#000000;stroke-width:2.61674;stroke-linecap:round;stroke-linejoin:round;stroke-miterlimit:10;stroke-dasharray:none;stroke-opacity:1"
                   id="path2076" />
              </g>
              <g
                 id="g2078"
                 transform="matrix(1,0,0,-1,-76.063072,759.2184)">
                <path
                   d="m 236.242,-517.578 c -8.972,2.144 -8.804,-11.418 -5.918,-16.363"
                   style="fill:none;stroke:#000000;stroke-width:2.61674;stroke-linecap:round;stroke-linejoin:round;stroke-miterlimit:10;stroke-dasharray:none;stroke-opacity:1"
                   id="path2080" />
              </g>
              <g
                 id="g2082"
                 transform="matrix(1,0,0,-1,-76.063072,759.2184)">
                <path
                   d="m 233.496,-530.883 c -6.457,-2.105 0.598,-9.426 4.031,-4.898"
                   style="fill:none;stroke:#000000;stroke-width:2.61674;stroke-linecap:round;stroke-linejoin:round;stroke-miterlimit:10;stroke-dasharray:none;stroke-opacity:1"
                   id="path2084" />
              </g>
              <g
                 id="g2086"
                 transform="matrix(1,0,0,-1,-76.063072,759.2184)">
                <path
                   d="m 233.496,-530.883 c 0.879,0.703 3.074,-2.566 3.578,-2.836"
                   style="fill:none;stroke:#000000;stroke-width:2.61674;stroke-linecap:round;stroke-linejoin:round;stroke-miterlimit:10;stroke-dasharray:none;stroke-opacity:1"
                   id="path2088" />
              </g>
              <g
                 id="g2090"
                 transform="matrix(1,0,0,-1,-76.063072,759.2184)">
                <path
                   d="m 239.211,-592.754 c -1.418,-2.461 -3.656,-5.781 0.078,-8.18"
                   style="fill:none;stroke:#000000;stroke-width:2.61674;stroke-linecap:round;stroke-linejoin:round;stroke-miterlimit:10;stroke-dasharray:none;stroke-opacity:1"
                   id="path2092" />
              </g>
              <g
                 id="g2094"
                 transform="matrix(1,0,0,-1,-76.063072,759.2184)">
                <path
                   d="m 239.289,-628.059 c -6.758,2.664 -7.129,-10.339 0,-8.886"
                   style="fill:none;stroke:#000000;stroke-width:2.61674;stroke-linecap:round;stroke-linejoin:round;stroke-miterlimit:10;stroke-dasharray:none;stroke-opacity:1"
                   id="path2096" />
              </g>
              <g
                 id="g2098"
                 transform="matrix(1,0,0,-1,-76.063072,759.2184)">
                <path
                   d="m 259.777,-615.586 c -9.105,-6.879 10.828,-4.555 0,0"
                   style="fill:none;stroke:#000000;stroke-width:2.61674;stroke-linecap:round;stroke-linejoin:round;stroke-miterlimit:10;stroke-dasharray:none;stroke-opacity:1"
                   id="path2100" />
              </g>
              <g
                 id="g2102"
                 transform="matrix(1,0,0,-1,-76.063072,759.2184)">
                <path
                   d="m 315.137,-615.383 c -7.805,-6.262 10.804,-2.164 0,0"
                   style="fill:none;stroke:#000000;stroke-width:2.61674;stroke-linecap:round;stroke-linejoin:round;stroke-miterlimit:10;stroke-dasharray:none;stroke-opacity:1"
                   id="path2104" />
              </g>
              <g
                 id="g2106"
                 transform="matrix(1,0,0,-1,-76.063072,759.2184)">
                <path
                   d="m 265.238,-539.324 c -8.972,-4.653 9.68,-10.196 4.504,-1.328 -1.293,0.972 -2.945,1.214 -4.504,1.328"
                   style="fill:none;stroke:#000000;stroke-width:2.61674;stroke-linecap:round;stroke-linejoin:round;stroke-miterlimit:10;stroke-dasharray:none;stroke-opacity:1"
                   id="path2108" />
              </g>
              <g
                 id="g2110"
                 transform="matrix(1,0,0,-1,-76.063072,759.2184)">
                <path
                   d="m 242.688,-473.586 c -0.192,-10.301 -0.305,-20.617 0.242,-30.914"
                   style="fill:none;stroke:#000000;stroke-width:2.61674;stroke-linecap:round;stroke-linejoin:round;stroke-miterlimit:10;stroke-dasharray:none;stroke-opacity:1"
                   id="path2112" />
              </g>
              <g
                 id="g2114"
                 transform="matrix(1,0,0,-1,-76.063072,759.2184)">
                <path
                   d="m 238.102,-472.949 c -5.707,-10.125 -2.754,-24.309 -3.692,-35.133 l 0.211,0.098"
                   style="fill:none;stroke:#000000;stroke-width:2.61674;stroke-linecap:round;stroke-linejoin:round;stroke-miterlimit:10;stroke-dasharray:none;stroke-opacity:1"
                   id="path2116" />
              </g>
              <g
                 id="g2118"
                 transform="matrix(1,0,0,-1,-76.063072,759.2184)">
                <path
                   d="m 281.836,-476.828 c 13.508,7.601 11.273,-19.75 -0.469,-10.621 -4.109,2.449 -2.527,7.523 0.477,10.457"
                   style="fill:none;stroke:#000000;stroke-width:2.61674;stroke-linecap:round;stroke-linejoin:round;stroke-miterlimit:10;stroke-dasharray:none;stroke-opacity:1"
                   id="path2120" />
              </g>
              <g
                 id="g2122"
                 transform="matrix(1,0,0,-1,-76.063072,759.2184)">
                <path
                   d="m 281.844,-476.992 c 2.062,-3.86 5.445,-6.813 7.554,-10.633"
                   style="fill:none;stroke:#000000;stroke-width:2.61674;stroke-linecap:round;stroke-linejoin:round;stroke-miterlimit:10;stroke-dasharray:none;stroke-opacity:1"
                   id="path2124" />
              </g>
              <g
                 id="g2126"
                 transform="matrix(1,0,0,-1,-76.063072,759.2184)">
                <path
                   d="m 252.062,-477.574 c 3.965,-0.067 7.864,0.879 11.825,0.844"
                   style="fill:none;stroke:#000000;stroke-width:1.26872;stroke-linecap:round;stroke-linejoin:round;stroke-miterlimit:10;stroke-dasharray:none;stroke-opacity:1"
                   id="path2128" />
              </g>
              <g
                 id="g2130"
                 transform="matrix(1,0,0,-1,-76.063072,759.2184)">
                <path
                   d="m 300.457,-478.727 c 4.438,-0.695 8.945,-0.675 13.398,-1.218"
                   style="fill:none;stroke:#000000;stroke-width:1.26872;stroke-linecap:round;stroke-linejoin:round;stroke-miterlimit:10;stroke-dasharray:none;stroke-opacity:1"
                   id="path2132" />
              </g>
              <g
                 id="g2134"
                 transform="matrix(1,0,0,-1,-76.063072,759.2184)">
                <path
                   d="m 252.246,-516.434 c 8.324,0.071 16.649,0.414 24.973,0.122"
                   style="fill:none;stroke:#000000;stroke-width:1.26872;stroke-linecap:round;stroke-linejoin:round;stroke-miterlimit:10;stroke-dasharray:none;stroke-opacity:1"
                   id="path2136" />
              </g>
              <g
                 id="g2138"
                 transform="matrix(1,0,0,-1,-76.063072,759.2184)">
                <path
                   d="m 294.539,-515.895 c 8.879,-0.347 18.984,-0.523 27.848,-1.175"
                   style="fill:none;stroke:#000000;stroke-width:1.26872;stroke-linecap:round;stroke-linejoin:round;stroke-miterlimit:10;stroke-dasharray:none;stroke-opacity:1"
                   id="path2140" />
              </g>
              <g
                 id="g2142"
                 transform="matrix(1,0,0,-1,-76.063072,759.2184)">
                <path
                   d="m 322.387,-517.07 c 1.39,-1.008 3.441,-1.176 4.816,-0.035"
                   style="fill:none;stroke:#000000;stroke-width:1.26872;stroke-linecap:round;stroke-linejoin:round;stroke-miterlimit:10;stroke-dasharray:none;stroke-opacity:1"
                   id="path2144" />
              </g>
              <g
                 id="g2146"
                 transform="matrix(1,0,0,-1,-76.063072,759.2184)">
                <path
                   d="m 321.129,-486.68 c -0.664,-5.054 0.805,-10.101 0.32,-15.156"
                   style="fill:none;stroke:#000000;stroke-width:1.26872;stroke-linecap:round;stroke-linejoin:round;stroke-miterlimit:10;stroke-dasharray:none;stroke-opacity:1"
                   id="path2148" />
              </g>
              <g
                 id="g2150"
                 transform="matrix(1,0,0,-1,-76.063072,759.2184)">
                <path
                   d="m 260.945,-541.871 c -8.175,-6.731 -0.062,-19.234 -2.496,-27.836"
                   style="fill:none;stroke:#000000;stroke-width:1.26872;stroke-linecap:round;stroke-linejoin:round;stroke-miterlimit:10;stroke-dasharray:none;stroke-opacity:1"
                   id="path2152" />
              </g>
              <g
                 id="g2154"
                 transform="matrix(1,0,0,-1,-76.063072,759.2184)">
                <path
                   d="m 260.566,-570.113 c 8.524,0.269 17.051,-0.071 25.571,-0.321"
                   style="fill:none;stroke:#000000;stroke-width:1.26872;stroke-linecap:round;stroke-linejoin:round;stroke-miterlimit:10;stroke-dasharray:none;stroke-opacity:1"
                   id="path2156" />
              </g>
              <g
                 id="g2158"
                 transform="matrix(1,0,0,-1,-76.063072,759.2184)">
                <path
                   d="m 259.219,-573.598 c 9.254,-0.824 18.547,-0.269 27.808,0.028"
                   style="fill:none;stroke:#000000;stroke-width:1.26872;stroke-linecap:round;stroke-linejoin:round;stroke-miterlimit:10;stroke-dasharray:none;stroke-opacity:1"
                   id="path2160" />
              </g>
              <g
                 id="g2162"
                 transform="matrix(1,0,0,-1,-76.063072,759.2184)">
                <path
                   d="m 258.379,-575.117 c -0.453,-8.258 -0.695,-16.543 -0.34,-24.809"
                   style="fill:none;stroke:#000000;stroke-width:1.26872;stroke-linecap:round;stroke-linejoin:round;stroke-miterlimit:10;stroke-dasharray:none;stroke-opacity:1"
                   id="path2164" />
              </g>
              <g
                 id="g2166"
                 transform="matrix(1,0,0,-1,-76.063072,759.2184)">
                <path
                   d="m 259.566,-599.383 c 19.559,0.883 39.137,-0.269 58.672,0.106"
                   style="fill:none;stroke:#000000;stroke-width:1.26872;stroke-linecap:round;stroke-linejoin:round;stroke-miterlimit:10;stroke-dasharray:none;stroke-opacity:1"
                   id="path2168" />
              </g>
              <g
                 id="g2170"
                 transform="matrix(1,0,0,-1,-76.063072,759.2184)">
                <path
                   d="m 259.719,-601.566 c 18.992,-2.645 38.441,-1.204 57.347,-1.02 l 0.055,-0.039"
                   style="fill:none;stroke:#000000;stroke-width:1.26872;stroke-linecap:round;stroke-linejoin:round;stroke-miterlimit:10;stroke-dasharray:none;stroke-opacity:1"
                   id="path2172" />
              </g>
              <g
                 id="g2174"
                 transform="matrix(1,0,0,-1,-76.063072,759.2184)">
                <path
                   d="m 258.707,-602.828 c -0.148,-2.613 0.641,-5.211 0.211,-7.82"
                   style="fill:none;stroke:#000000;stroke-width:1.26872;stroke-linecap:round;stroke-linejoin:round;stroke-miterlimit:10;stroke-dasharray:none;stroke-opacity:1"
                   id="path2176" />
              </g>
              <g
                 id="g2178"
                 transform="matrix(1,0,0,-1,-76.063072,759.2184)">
                <path
                   d="m 268.105,-620.621 c 13.469,-0.914 26.985,-0.43 40.469,-1.059 l -0.48,-0.062"
                   style="fill:none;stroke:#000000;stroke-width:1.26872;stroke-linecap:round;stroke-linejoin:round;stroke-miterlimit:10;stroke-dasharray:none;stroke-opacity:1"
                   id="path2180" />
              </g>
              <g
                 id="g2182"
                 transform="matrix(1,0,0,-1,-76.063072,759.2184)">
                <path
                   d="m 319.816,-604.086 c -0.312,-1.703 -0.574,-3.418 -0.984,-5.102"
                   style="fill:none;stroke:#000000;stroke-width:1.26872;stroke-linecap:round;stroke-linejoin:round;stroke-miterlimit:10;stroke-dasharray:none;stroke-opacity:1"
                   id="path2184" />
              </g>
              <g
                 id="g2186"
                 transform="matrix(1,0,0,-1,-76.063072,759.2184)">
                <path
                   d="m 252.43,-516.645 c 8.238,-0.906 16.535,0.223 24.785,-0.402"
                   style="fill:none;stroke:#000000;stroke-width:1.26872;stroke-linecap:round;stroke-linejoin:round;stroke-miterlimit:10;stroke-dasharray:none;stroke-opacity:1"
                   id="path2188" />
              </g>
              <g
                 id="g2190"
                 transform="matrix(1,0,0,-1,-76.063072,759.2184)">
                <path
                   d="m 292.914,-515.746 c 4.195,-0.664 8.484,0.144 12.668,-0.66"
                   style="fill:none;stroke:#000000;stroke-width:1.26872;stroke-linecap:round;stroke-linejoin:round;stroke-miterlimit:10;stroke-dasharray:none;stroke-opacity:1"
                   id="path2192" />
              </g>
              <g
                 id="g2194"
                 transform="matrix(1,0,0,-1,-76.063072,759.2184)">
                <path
                   d="m 292.602,-625.297 c -0.399,-13.988 -0.336,-28.012 -0.008,-41.969"
                   style="fill:none;stroke:#000000;stroke-width:1.26872;stroke-linecap:round;stroke-linejoin:round;stroke-miterlimit:10;stroke-dasharray:none;stroke-opacity:1"
                   id="path2196" />
              </g>
              <g
                 id="g2198"
                 transform="matrix(1,0,0,-1,-76.063072,759.2184)">
                <path
                   d="m 293.234,-628.602 c 8.231,0.372 20.067,0.457 28.278,-0.101"
                   style="fill:none;stroke:#000000;stroke-width:1.26872;stroke-linecap:round;stroke-linejoin:round;stroke-miterlimit:10;stroke-dasharray:none;stroke-opacity:1"
                   id="path2200" />
              </g>
              <g
                 id="g2202"
                 transform="matrix(1,0,0,-1,-76.063072,759.2184)">
                <path
                   d="m 321.512,-628.703 c 0.445,-12.152 1.734,-24.317 0.84,-36.481 0.199,-0.824 -0.036,-1.316 0.136,-2.023"
                   style="fill:none;stroke:#000000;stroke-width:1.26872;stroke-linecap:round;stroke-linejoin:round;stroke-miterlimit:10;stroke-dasharray:none;stroke-opacity:1"
                   id="path2204" />
              </g>
              <g
                 id="g2206"
                 transform="matrix(1,0,0,-1,-76.063072,759.2184)">
                <path
                   d="m 292.594,-667.266 c 8.386,-0.273 23.183,-0.218 29.894,0.059"
                   style="fill:none;stroke:#000000;stroke-width:1.26872;stroke-linecap:round;stroke-linejoin:round;stroke-miterlimit:10;stroke-dasharray:none;stroke-opacity:1"
                   id="path2208" />
              </g>
            </g>
          </g>
        </g>
      </g>
    </g>
  </g>
</svg>
