<?xml version="1.0" encoding="UTF-8" standalone="no"?>
<!-- Created by Ashley Blewer - This work is licensed under a Creative Commons Attribution 4.0 International License -->

<svg
   width="544"
   height="480"
   viewBox="0 0 143.93334 127"
   version="1.1"
   id="svg2490"
   inkscape:version="1.2.2 (1:1.2.2+202212051552+b0a8486541)"
   sodipodi:docname="1922-9.5-1.svg"
   xmlns:inkscape="http://www.inkscape.org/namespaces/inkscape"
   xmlns:sodipodi="http://sodipodi.sourceforge.net/DTD/sodipodi-0.dtd"
   xmlns="http://www.w3.org/2000/svg"
   xmlns:svg="http://www.w3.org/2000/svg">
  <sodipodi:namedview
     id="namedview2492"
     pagecolor="#ffffff"
     bordercolor="#666666"
     borderopacity="1.0"
     inkscape:pageshadow="2"
     inkscape:pageopacity="0.0"
     inkscape:pagecheckerboard="0"
     inkscape:document-units="mm"
     showgrid="false"
     units="px"
     inkscape:zoom="0.90583674"
     inkscape:cx="336.15329"
     inkscape:cy="254.46086"
     inkscape:window-width="1846"
     inkscape:window-height="1136"
     inkscape:window-x="0"
     inkscape:window-y="0"
     inkscape:window-maximized="1"
     inkscape:current-layer="g6395"
     inkscape:showpageshadow="2"
     inkscape:deskcolor="#d1d1d1" />
  <defs
     id="defs2487" />
  <g
     inkscape:label="Layer 1"
     inkscape:groupmode="layer"
     id="layer1">
    <g
       id="g4731"
       transform="matrix(0.32961229,0,0,0.32903008,-241.78905,1.73126)"
       style="stroke-width:2.68698">
      <g
         id="g104528"
         transform="matrix(1,0,0,-1,0,792)"
         style="stroke-width:2.68698">
        <g
           id="g104530"
           style="stroke-width:2.68698" />
      </g>
      <g
         id="g104996"
         transform="matrix(1,0,0,-1,0,792)"
         style="stroke-width:2.68698">
        <g
           id="g104998"
           style="stroke-width:2.68698" />
      </g>
      <g
         id="g28852"
         transform="matrix(1.070281,0,0,1.0721748,779.91249,-443.13657)">
        <g
           id="g6718"
           transform="matrix(1.117886,0,0,1.117886,-549.13111,-491.62865)">
          <g
             id="g6395"
             transform="matrix(0.53415107,0,0,0.53415109,441.93669,415.26868)">
            <g
               id="g6478"
               transform="matrix(3.0282715,0,0,3.0282715,-2215.4727,-1768.9615)">
              <g
                 id="g1146"
                 transform="matrix(1,0,0,-1,-76.063072,759.2184)">
                <path
                   d="m 910.707,-89.941 -83.086,-15.207"
                   style="fill:none;stroke:#000000;stroke-width:2.61674;stroke-linecap:round;stroke-linejoin:round;stroke-miterlimit:10;stroke-dasharray:none;stroke-opacity:1"
                   id="path1148" />
              </g>
              <g
                 id="g1150"
                 transform="matrix(1,0,0,-1,-76.063072,759.2184)">
                <path
                   d="m 827.621,-105.148 17.09,-124.094 c 3.91,-10.031 3.637,-9.567 3.91,-10.031"
                   style="fill:none;stroke:#000000;stroke-width:2.61674;stroke-linecap:round;stroke-linejoin:round;stroke-miterlimit:10;stroke-dasharray:none;stroke-opacity:1"
                   id="path1152" />
              </g>
              <g
                 id="g1154"
                 transform="matrix(1,0,0,-1,-76.063072,759.2184)">
                <path
                   d="m 845.391,-232.25 c 0.492,-0.859 2.836,-6.977 3.23,-7.023"
                   style="fill:none;stroke:#000000;stroke-width:2.61674;stroke-linecap:round;stroke-linejoin:round;stroke-miterlimit:10;stroke-dasharray:none;stroke-opacity:1"
                   id="path1156" />
              </g>
              <g
                 id="g1158"
                 transform="matrix(1,0,0,-1,-76.063072,759.2184)">
                <path
                   d="m 848.621,-239.273 86.469,17.703"
                   style="fill:none;stroke:#000000;stroke-width:2.61674;stroke-linecap:round;stroke-linejoin:round;stroke-miterlimit:10;stroke-dasharray:none;stroke-opacity:1"
                   id="path1160" />
              </g>
              <g
                 id="g1162"
                 transform="matrix(1,0,0,-1,-76.063072,759.2184)">
                <path
                   d="m 913.227,-89.379 c 24.097,11.934 54.902,11.004 77.961,-2.82 24.562,-14.801 42.472,-45.168 32.23,-74 -6.762,-20.34 -21.188,-40.235 -43.293,-44.817 -27.398,-6.914 -59.68,-5.933 -81.168,14.805 -19.461,17.023 -29.559,47.867 -14.891,71.066 7.239,13.946 12.524,23.278 29.161,35.766"
                   style="fill:none;stroke:#000000;stroke-width:2.61674;stroke-linecap:round;stroke-linejoin:round;stroke-miterlimit:10;stroke-dasharray:none;stroke-opacity:1"
                   id="path1164" />
              </g>
              <g
                 id="g1166"
                 transform="matrix(1,0,0,-1,-76.063072,759.2184)">
                <path
                   d="m 876.902,-149.523 c -4.519,-52.797 68.446,-94.422 114.032,-63.133 7.109,4.961 14.679,10.894 17.957,19.199"
                   style="fill:none;stroke:#000000;stroke-width:2.61674;stroke-linecap:round;stroke-linejoin:round;stroke-miterlimit:10;stroke-dasharray:none;stroke-opacity:1"
                   id="path1168" />
              </g>
              <g
                 id="g1170"
                 transform="matrix(1,0,0,-1,-76.063072,759.2184)">
                <path
                   d="m 844.918,-111.703 c 1.137,-1.078 0.52,-7.547 1.312,-9.613"
                   style="fill:none;stroke:#000000;stroke-width:2.61674;stroke-linecap:round;stroke-linejoin:round;stroke-miterlimit:10;stroke-dasharray:none;stroke-opacity:1"
                   id="path1172" />
              </g>
              <g
                 id="g1174"
                 transform="matrix(1,0,0,-1,-76.063072,759.2184)">
                <path
                   d="m 844.5,-112.953 c 0.441,2.164 8.035,5.328 6.852,0.285 -0.872,-1.953 -2.848,-4.535 -4.555,-4.844"
                   style="fill:none;stroke:#000000;stroke-width:2.61674;stroke-linecap:round;stroke-linejoin:round;stroke-miterlimit:10;stroke-dasharray:none;stroke-opacity:1"
                   id="path1176" />
              </g>
              <g
                 id="g1178"
                 transform="matrix(1,0,0,-1,-76.063072,759.2184)">
                <path
                   d="m 855.656,-120.133 c 1.344,-0.695 1.633,5.899 3.824,7.055 2.336,4.445 4.305,3.39 6.817,-0.797 0.371,-1.391 1.965,-3.895 1.551,-4.855"
                   style="fill:none;stroke:#000000;stroke-width:2.61674;stroke-linecap:round;stroke-linejoin:round;stroke-miterlimit:10;stroke-dasharray:none;stroke-opacity:1"
                   id="path1180" />
              </g>
              <g
                 id="g1182"
                 transform="matrix(1,0,0,-1,-76.063072,759.2184)">
                <path
                   d="m 859.957,-117.352 c 0.809,0.614 3.961,-3.343 4.309,0.25 0.593,0.25 0.824,1.063 0.906,1.278"
                   style="fill:none;stroke:#000000;stroke-width:2.61674;stroke-linecap:round;stroke-linejoin:round;stroke-miterlimit:10;stroke-dasharray:none;stroke-opacity:1"
                   id="path1184" />
              </g>
              <g
                 id="g1186"
                 transform="matrix(1,0,0,-1,-76.063072,759.2184)">
                <path
                   d="m 865.398,-108.332 c 2.805,0.887 6.836,1.035 9.239,1.215"
                   style="fill:none;stroke:#000000;stroke-width:2.61674;stroke-linecap:round;stroke-linejoin:round;stroke-miterlimit:10;stroke-dasharray:none;stroke-opacity:1"
                   id="path1188" />
              </g>
              <g
                 id="g1190"
                 transform="matrix(1,0,0,-1,-76.063072,759.2184)">
                <path
                   d="m 871.492,-108.758 c 0.395,-2.371 2.309,-7.73 1.641,-8.379"
                   style="fill:none;stroke:#000000;stroke-width:2.61674;stroke-linecap:round;stroke-linejoin:round;stroke-miterlimit:10;stroke-dasharray:none;stroke-opacity:1"
                   id="path1192" />
              </g>
              <g
                 id="g1194"
                 transform="matrix(1,0,0,-1,-76.063072,759.2184)">
                <path
                   d="m 878.211,-108.59 c 0.394,-0.84 3.16,-8.055 1.809,-8.34"
                   style="fill:none;stroke:#000000;stroke-width:2.61674;stroke-linecap:round;stroke-linejoin:round;stroke-miterlimit:10;stroke-dasharray:none;stroke-opacity:1"
                   id="path1196" />
              </g>
              <g
                 id="g1198"
                 transform="matrix(1,0,0,-1,-76.063072,759.2184)">
                <path
                   d="m 885.086,-106.457 c 0.652,-1.914 1.914,-5.691 2.156,-6.883"
                   style="fill:none;stroke:#000000;stroke-width:2.61674;stroke-linecap:round;stroke-linejoin:round;stroke-miterlimit:10;stroke-dasharray:none;stroke-opacity:1"
                   id="path1200" />
              </g>
              <g
                 id="g1202"
                 transform="matrix(1,0,0,-1,-76.063072,759.2184)">
                <path
                   d="m 881.473,-111.574 c 1.441,-0.141 3.078,0.812 4.422,1.406"
                   style="fill:none;stroke:#000000;stroke-width:2.61674;stroke-linecap:round;stroke-linejoin:round;stroke-miterlimit:10;stroke-dasharray:none;stroke-opacity:1"
                   id="path1204" />
              </g>
              <g
                 id="g1206"
                 transform="matrix(1,0,0,-1,-76.063072,759.2184)">
                <path
                   d="m 894.773,-104.621 c -3.945,1.664 -3.242,-2.82 -3.132,-4.84"
                   style="fill:none;stroke:#000000;stroke-width:2.61674;stroke-linecap:round;stroke-linejoin:round;stroke-miterlimit:10;stroke-dasharray:none;stroke-opacity:1"
                   id="path1208" />
              </g>
              <g
                 id="g1210"
                 transform="matrix(1,0,0,-1,-76.063072,759.2184)">
                <path
                   d="m 893.508,-101.734 c -0.188,-1.192 2.906,2.394 3.082,-0.133"
                   style="fill:none;stroke:#000000;stroke-width:2.61674;stroke-linecap:round;stroke-linejoin:round;stroke-miterlimit:10;stroke-dasharray:none;stroke-opacity:1"
                   id="path1212" />
              </g>
              <g
                 id="g1214"
                 transform="matrix(1,0,0,-1,-76.063072,759.2184)">
                <path
                   d="m 949.918,-111.699 c -3.926,4.828 -8.746,11.969 -3.527,17.574 5.535,3.711 12.609,-0.844 18.769,-1.281 8.801,-2.68 20.024,-3.512 26.172,-10.242 -0.699,-4.434 -1.105,-10.536 -5.703,-11.692 -1.34,-0.816 -9.973,-0.777 -12.82,-0.601"
                   style="fill:none;stroke:#000000;stroke-width:2.61674;stroke-linecap:round;stroke-linejoin:round;stroke-miterlimit:10;stroke-dasharray:none;stroke-opacity:1"
                   id="path1216" />
              </g>
              <g
                 id="g1218"
                 transform="matrix(1,0,0,-1,-76.063072,759.2184)">
                <path
                   d="m 982.738,-117.789 c -0.343,-0.055 0.059,-0.492 -0.386,-0.41"
                   style="fill:none;stroke:#000000;stroke-width:2.61674;stroke-linecap:round;stroke-linejoin:round;stroke-miterlimit:10;stroke-dasharray:none;stroke-opacity:1"
                   id="path1220" />
              </g>
              <g
                 id="g1222"
                 transform="matrix(1,0,0,-1,-76.063072,759.2184)">
                <path
                   d="m 992.191,-146.52 c 1.309,14.122 14.079,10.114 15.969,4.981 4.574,-8.621 1.133,-18.66 -0.18,-27.68 -1.851,-7.226 -4.75,-17.125 -14.07,-15.797 -3.652,0.973 -12.867,12.805 -7.867,19.352"
                   style="fill:none;stroke:#000000;stroke-width:2.61674;stroke-linecap:round;stroke-linejoin:round;stroke-miterlimit:10;stroke-dasharray:none;stroke-opacity:1"
                   id="path1224" />
              </g>
              <g
                 id="g1226"
                 transform="matrix(1,0,0,-1,-76.063072,759.2184)">
                <path
                   d="m 992.191,-146.52 c -1.035,-6.125 -2.492,-13.171 -5.515,-18.914"
                   style="fill:none;stroke:#000000;stroke-width:2.61674;stroke-linecap:round;stroke-linejoin:round;stroke-miterlimit:10;stroke-dasharray:none;stroke-opacity:1"
                   id="path1228" />
              </g>
              <g
                 id="g1230"
                 transform="matrix(1,0,0,-1,-76.063072,759.2184)">
                <path
                   d="m 954.094,-183.137 c 4.679,-2.98 5.734,-10.414 5.308,-15.871 -5.722,-8.379 -18.429,-6.586 -27.297,-3.601 -8.8,3.086 -17.695,8.675 -21.812,16.39 -3.016,5.496 0.246,14.864 7.418,14.469 8.785,-2.07 27.461,-9.391 36.383,-11.387"
                   style="fill:none;stroke:#000000;stroke-width:2.61674;stroke-linecap:round;stroke-linejoin:round;stroke-miterlimit:10;stroke-dasharray:none;stroke-opacity:1"
                   id="path1232" />
              </g>
              <g
                 id="g1234"
                 transform="matrix(1,0,0,-1,-76.063072,759.2184)">
                <path
                   d="m 924.359,-117.332 c -0.566,0.234 -2.265,5.859 -3.515,7.922 -4.121,5.637 -13.051,4.617 -16.719,-1.152 -5.996,-7.961 -11.066,-16.34 -15.086,-25.266 -1.144,-5.203 -0.625,-11.551 5.824,-11.734 5.668,-1.071 14.52,-1.54 15.758,4.57 1.711,3.551 1.449,7.785 4.633,10.898 1.726,3.887 5.285,9.262 7.32,11.196 l 1.785,3.566"
                   style="fill:none;stroke:#000000;stroke-width:2.61674;stroke-linecap:round;stroke-linejoin:round;stroke-miterlimit:10;stroke-dasharray:none;stroke-opacity:1"
                   id="path1236" />
              </g>
              <g
                 id="g1238"
                 transform="matrix(1,0,0,-1,-76.063072,759.2184)">
                <path
                   d="m 930.902,-120.848 c 0.922,6.774 -2.25,13.11 -4.515,19.293 -1.594,5.457 -7.821,7.696 -12.84,5.602 -6,-1.629 -9.707,-6.899 -12.902,-11.824 -5.266,-6.758 -10.641,-13.707 -13.036,-22.082 -2.086,-6.223 -3.082,-12.758 -3.527,-19.289 1.82,-4.879 0.992,-13.555 7.309,-14.864 1.894,0.121 3.582,1.117 5.164,2.078"
                   style="fill:none;stroke:#000000;stroke-width:1.26872;stroke-linecap:round;stroke-linejoin:round;stroke-miterlimit:10;stroke-dasharray:none;stroke-opacity:1"
                   id="path1240" />
              </g>
              <g
                 id="g1242"
                 transform="matrix(1,0,0,-1,-76.063072,759.2184)">
                <path
                   d="m 930.902,-120.848 c -1.992,-5.707 -6.984,-10.328 -6.988,-16.691 -0.773,-4.906 -1.68,-10.52 -6.121,-13.531 -13.426,-9.535 -21.238,-10.864 -21.238,-10.864"
                   style="fill:none;stroke:#000000;stroke-width:1.26872;stroke-linecap:round;stroke-linejoin:round;stroke-miterlimit:10;stroke-dasharray:none;stroke-opacity:1"
                   id="path1244" />
              </g>
              <g
                 id="g1246"
                 transform="matrix(1,0,0,-1,-76.063072,759.2184)">
                <path
                   d="m 947.227,-116.676 c -6.649,6.047 -11.985,13.504 -16.129,21.438 -1.825,4.949 3.398,7.82 7.464,8.55 8.352,2.094 17.008,0.418 25.485,0.344 1.734,-0.554 6.144,0.02 6.367,-1.984"
                   style="fill:none;stroke:#000000;stroke-width:1.26872;stroke-linecap:round;stroke-linejoin:round;stroke-miterlimit:10;stroke-dasharray:none;stroke-opacity:1"
                   id="path1248" />
              </g>
              <g
                 id="g1250"
                 transform="matrix(1,0,0,-1,-76.063072,759.2184)">
                <path
                   d="m 977.18,-90.523 c 5.523,-2.266 10.535,-5.59 15.707,-8.524 5.539,-3.738 10.34,-8.621 13.781,-14.363 -4.09,-5.731 -11.758,-6.215 -17.402,-9.672 -3.903,-0.918 -7.786,-2.121 -11.774,-2.535 -0.652,-0.012 -1.308,0.031 -1.949,0.148"
                   style="fill:none;stroke:#000000;stroke-width:1.26872;stroke-linecap:round;stroke-linejoin:round;stroke-miterlimit:10;stroke-dasharray:none;stroke-opacity:1"
                   id="path1252" />
              </g>
              <g
                 id="g1254"
                 transform="matrix(1,0,0,-1,-76.063072,759.2184)">
                <path
                   d="m 947.965,-116.973 c 5.203,0.629 12.91,-1.566 18.223,-4.445 1.128,0.176 7.32,-4.848 5.179,-3.5"
                   style="fill:none;stroke:#000000;stroke-width:1.26872;stroke-linecap:round;stroke-linejoin:round;stroke-miterlimit:10;stroke-dasharray:none;stroke-opacity:1"
                   id="path1256" />
              </g>
              <g
                 id="g1258"
                 transform="matrix(1,0,0,-1,-76.063072,759.2184)">
                <path
                   d="m 949.918,-111.699 c 1.379,0.515 15.52,-2.449 18.094,-3.418 1.008,-0.949 5.324,-2.528 4.797,-2.824"
                   style="fill:none;stroke:#000000;stroke-width:1.26872;stroke-linecap:round;stroke-linejoin:round;stroke-miterlimit:10;stroke-dasharray:none;stroke-opacity:1"
                   id="path1260" />
              </g>
              <g
                 id="g1262"
                 transform="matrix(1,0,0,-1,-76.063072,759.2184)">
                <path
                   d="m 985.32,-136.984 c 4.364,1.406 9.426,5.902 13.434,9.175 5.348,5.114 14.617,4.317 16.387,-3.414 2.511,-8.738 2.711,-17.918 3.875,-26.957 -0.11,-11.468 -3.692,-21.929 -10.411,-30.914 -2.074,-8.261 -13.16,-10.91 -19.253,-12.594 -6.411,3.477 -8.379,11.532 -12.235,17.403 -2.488,7.609 -6.051,15.336 -1.668,22.633 2.793,3.543 5.711,8.132 6.188,12.554 l 0.871,0.536 0.133,0.082"
                   style="fill:none;stroke:#000000;stroke-width:1.26872;stroke-linecap:round;stroke-linejoin:round;stroke-miterlimit:10;stroke-dasharray:none;stroke-opacity:1"
                   id="path1264" />
              </g>
              <g
                 id="g1266"
                 transform="matrix(1,0,0,-1,-76.063072,759.2184)">
                <path
                   d="m 928.191,-165.199 c 8.575,-4.922 18.579,-6.149 27.856,-8.981 4.683,-3.058 9.055,-13.398 9.055,-13.398 0,0 8.695,-9.051 6.878,-15.074 -2.187,-4.664 -8.035,-5.004 -12.246,-6.766 -3.324,-0.957 -6.906,-1.832 -10.363,-1.203"
                   style="fill:none;stroke:#000000;stroke-width:1.26872;stroke-linecap:round;stroke-linejoin:round;stroke-miterlimit:10;stroke-dasharray:none;stroke-opacity:1"
                   id="path1268" />
              </g>
              <g
                 id="g1270"
                 transform="matrix(1,0,0,-1,-76.063072,759.2184)">
                <path
                   d="m 921.086,-164.254 c -8.211,-2.168 -16.965,-4.629 -24.07,-9.234 -4.551,-5.836 1.679,-13.344 5.66,-18.145 4.902,-8.129 15.289,-10.246 23.375,-14.449 7.371,-2.66 15.508,-5.441 23.32,-4.539"
                   style="fill:none;stroke:#000000;stroke-width:1.26872;stroke-linecap:round;stroke-linejoin:round;stroke-miterlimit:10;stroke-dasharray:none;stroke-opacity:1"
                   id="path1272" />
              </g>
              <g
                 id="g1274"
                 transform="matrix(1,0,0,-1,-76.063072,759.2184)">
                <path
                   d="m 957.219,-122.785 c 13.258,-2.488 22.074,-18.125 16.359,-30.617 -6.742,-16.875 -32.82,-18.336 -42.785,-3.75 -8.012,10.539 -0.828,25.371 9.367,31.445 4.797,2.687 11.731,5.668 17.059,2.922 z"
                   style="fill:none;stroke:#000000;stroke-width:1.26872;stroke-linecap:round;stroke-linejoin:round;stroke-miterlimit:10;stroke-dasharray:none;stroke-opacity:1"
                   id="path1276" />
              </g>
              <g
                 id="g1278"
                 transform="matrix(1,0,0,-1,-76.063072,759.2184)">
                <path
                   d="m 950.586,-139.094 c -3.914,0.192 -5.852,-5.801 -3.156,-9.039 3.632,-6.152 15.066,3.078 9.039,7.856 -1.985,1.976 -4.473,1.074 -6.657,1.304"
                   style="fill:none;stroke:#000000;stroke-width:1.26872;stroke-linecap:round;stroke-linejoin:round;stroke-miterlimit:10;stroke-dasharray:none;stroke-opacity:1"
                   id="path1280" />
              </g>
              <g
                 id="g1282"
                 transform="matrix(1,0,0,-1,-76.063072,759.2184)">
                <path
                   d="m 943.848,-136.398 c 0.523,0.043 -2.118,9.363 1.449,3.07 3.156,-6.41 4.051,4.859 6.785,1.066 1.445,-5.117 7.133,2.403 9.035,-3.156 0.945,-1.715 8.094,2.383 4.707,-3.25 -0.117,-0.746 -0.562,-1.316 -1.316,-1.566"
                   style="fill:none;stroke:#000000;stroke-width:1.26872;stroke-linecap:round;stroke-linejoin:round;stroke-miterlimit:10;stroke-dasharray:none;stroke-opacity:1"
                   id="path1284" />
              </g>
              <g
                 id="g1286"
                 transform="matrix(1,0,0,-1,-76.063072,759.2184)">
                <path
                   d="m 939.172,-144.594 c -1.352,-3.316 -2.113,-7.222 2.836,-4.594 0.137,-4.347 3.133,-6.39 6.816,-7.003 4.207,1.277 5.578,-3.145 9.231,-3.106"
                   style="fill:none;stroke:#000000;stroke-width:1.26872;stroke-linecap:round;stroke-linejoin:round;stroke-miterlimit:10;stroke-dasharray:none;stroke-opacity:1"
                   id="path1288" />
              </g>
            </g>
          </g>
        </g>
      </g>
    </g>
  </g>
</svg>
