<?xml version="1.0" encoding="UTF-8" standalone="no"?>
<!-- Created by Ashley Blewer - This work is licensed under a Creative Commons Attribution 4.0 International License -->

<svg
   width="544"
   height="480"
   viewBox="0 0 143.93334 127"
   version="1.1"
   id="svg2490"
   inkscape:version="1.2.2 (1:1.2.2+202212051552+b0a8486541)"
   sodipodi:docname="1922-9.5-3.svg"
   xmlns:inkscape="http://www.inkscape.org/namespaces/inkscape"
   xmlns:sodipodi="http://sodipodi.sourceforge.net/DTD/sodipodi-0.dtd"
   xmlns="http://www.w3.org/2000/svg"
   xmlns:svg="http://www.w3.org/2000/svg">
  <sodipodi:namedview
     id="namedview2492"
     pagecolor="#ffffff"
     bordercolor="#666666"
     borderopacity="1.0"
     inkscape:pageshadow="2"
     inkscape:pageopacity="0.0"
     inkscape:pagecheckerboard="0"
     inkscape:document-units="mm"
     showgrid="false"
     units="px"
     inkscape:zoom="0.90583674"
     inkscape:cx="336.15329"
     inkscape:cy="254.46086"
     inkscape:window-width="1846"
     inkscape:window-height="1136"
     inkscape:window-x="0"
     inkscape:window-y="0"
     inkscape:window-maximized="1"
     inkscape:current-layer="g6395"
     inkscape:showpageshadow="2"
     inkscape:deskcolor="#d1d1d1" />
  <defs
     id="defs2487" />
  <g
     inkscape:label="Layer 1"
     inkscape:groupmode="layer"
     id="layer1">
    <g
       id="g4731"
       transform="matrix(0.32961229,0,0,0.32903008,-241.78905,1.73126)"
       style="stroke-width:2.68698">
      <g
         id="g104528"
         transform="matrix(1,0,0,-1,0,792)"
         style="stroke-width:2.68698">
        <g
           id="g104530"
           style="stroke-width:2.68698" />
      </g>
      <g
         id="g104996"
         transform="matrix(1,0,0,-1,0,792)"
         style="stroke-width:2.68698">
        <g
           id="g104998"
           style="stroke-width:2.68698" />
      </g>
      <g
         id="g28852"
         transform="matrix(1.070281,0,0,1.0721748,779.91249,-443.13657)">
        <g
           id="g6718"
           transform="matrix(1.117886,0,0,1.117886,-549.13111,-491.62865)">
          <g
             id="g6395"
             transform="matrix(0.53415107,0,0,0.53415109,441.93669,415.26868)">
            <g
               id="g6276"
               transform="matrix(1.7792279,0,0,1.7792279,-1051.7056,170.33146)">
              <g
                 id="g6816"
                 transform="translate(499.31514,-513.79076)">
                <g
                   id="g1670"
                   transform="matrix(1,0,0,-1,-76.063072,759.2184)">
                  <path
                     d="m 247.758,-102.371 c 15.445,7.223 32.91,8.527 48.972,14.086"
                     style="fill:none;stroke:#000000;stroke-width:2.61674;stroke-linecap:round;stroke-linejoin:round;stroke-miterlimit:10;stroke-dasharray:none;stroke-opacity:1"
                     id="path1672" />
                </g>
                <g
                   id="g1674"
                   transform="matrix(1,0,0,-1,-76.063072,759.2184)">
                  <path
                     d="m 296.73,-88.285 c 48.692,-18.527 151.454,-36.094 150.59,-35.348 l -0.406,-0.047"
                     style="fill:none;stroke:#000000;stroke-width:2.61674;stroke-linecap:round;stroke-linejoin:round;stroke-miterlimit:10;stroke-dasharray:none;stroke-opacity:1"
                     id="path1676" />
                </g>
                <g
                   id="g1678"
                   transform="matrix(1,0,0,-1,-76.063072,759.2184)">
                  <path
                     d="m 248.781,-103.113 c 0,0 144.035,-32.684 140.942,-32.36"
                     style="fill:none;stroke:#000000;stroke-width:2.61674;stroke-linecap:round;stroke-linejoin:round;stroke-miterlimit:10;stroke-dasharray:none;stroke-opacity:1"
                     id="path1680" />
                </g>
                <g
                   id="g1682"
                   transform="matrix(1,0,0,-1,-76.063072,759.2184)">
                  <path
                     d="m 448.184,-124.379 c -0.25,-20.348 -1.266,-40.816 -0.098,-61.18 -0.637,-1.613 0.043,-3.343 -0.43,-4.988 m -57.933,55.074 c 0,0 10.054,-169.004 9.175,-253.172"
                     style="fill:none;stroke:#000000;stroke-width:2.61674;stroke-linecap:round;stroke-linejoin:round;stroke-miterlimit:10;stroke-dasharray:none;stroke-opacity:1"
                     id="path1684" />
                </g>
                <g
                   id="g1686"
                   transform="matrix(1,0,0,-1,-76.063072,759.2184)">
                  <path
                     d="m 247.758,-102.371 c -1.684,-23.43 -3.117,-49.594 -2.559,-73.086 -1.179,-35.434 0.156,-70.887 2.739,-106.219 0.5,-17.054 0.082,-36.265 3.585,-53"
                     style="fill:none;stroke:#000000;stroke-width:2.61674;stroke-linecap:round;stroke-linejoin:round;stroke-miterlimit:10;stroke-dasharray:none;stroke-opacity:1"
                     id="path1688" />
                </g>
                <g
                   id="g1690"
                   transform="matrix(1,0,0,-1,-76.063072,759.2184)">
                  <path
                     d="m 251.523,-334.676 c 11.907,-9.488 29.383,-13.82 43.872,-20.179 30.421,-10.547 60.847,-21.27 91.851,-29.887 3.789,-1.59 7.899,-2.219 11.652,-3.903"
                     style="fill:none;stroke:#000000;stroke-width:2.61674;stroke-linecap:round;stroke-linejoin:round;stroke-miterlimit:10;stroke-dasharray:none;stroke-opacity:1"
                     id="path1692" />
                </g>
                <g
                   id="g1694"
                   transform="matrix(1,0,0,-1,-76.063072,759.2184)">
                  <path
                     d="m 422.469,-375.875 c -7.336,-2.934 -17.403,-13 -23.571,-12.77"
                     style="fill:none;stroke:#000000;stroke-width:2.61674;stroke-linecap:round;stroke-linejoin:round;stroke-miterlimit:10;stroke-dasharray:none;stroke-opacity:1"
                     id="path1696" />
                </g>
                <g
                   id="g1698"
                   transform="matrix(1,0,0,-1,-76.063072,759.2184)">
                  <path
                     d="m 445.898,-261.297 c -0.636,-18.133 -0.96,-36.141 -2.46,-54.215 1.386,-10.371 -1.465,-22.636 -0.004,-32.133"
                     style="fill:none;stroke:#000000;stroke-width:2.61674;stroke-linecap:round;stroke-linejoin:round;stroke-miterlimit:10;stroke-dasharray:none;stroke-opacity:1"
                     id="path1700" />
                </g>
                <g
                   id="g1702"
                   transform="matrix(1,0,0,-1,-76.063072,759.2184)">
                  <path
                     d="m 426.086,-355.379 c 19.418,1.789 2.187,-36.578 -6.395,-14.594 -0.214,5.168 0.664,12.637 6.395,14.594"
                     style="fill:none;stroke:#000000;stroke-width:2.61674;stroke-linecap:round;stroke-linejoin:round;stroke-miterlimit:10;stroke-dasharray:none;stroke-opacity:1"
                     id="path1704" />
                </g>
                <g
                   id="g1706"
                   transform="matrix(1,0,0,-1,-76.063072,759.2184)">
                  <path
                     d="m 422.469,-375.875 c -8.684,13.68 2.332,32.594 19.383,23.703 12.656,-0.211 28.32,6.172 29.07,20.777 1.902,18.54 -17.418,27.833 -22.906,43.446"
                     style="fill:none;stroke:#000000;stroke-width:2.61674;stroke-linecap:round;stroke-linejoin:round;stroke-miterlimit:10;stroke-dasharray:none;stroke-opacity:1"
                     id="path1708" />
                </g>
                <g
                   id="g1710"
                   transform="matrix(1,0,0,-1,-76.063072,759.2184)">
                  <path
                     d="m 446.617,-290.688 c 10.344,-9.445 15.133,-21.269 8.52,-34.445 -2.957,3.375 -9.696,7.903 -11.699,9.621"
                     style="fill:none;stroke:#000000;stroke-width:2.61674;stroke-linecap:round;stroke-linejoin:round;stroke-miterlimit:10;stroke-dasharray:none;stroke-opacity:1"
                     id="path1712" />
                </g>
                <g
                   id="g1714"
                   transform="matrix(1,0,0,-1,-76.063072,759.2184)">
                  <path
                     d="m 455.137,-325.133 c 3.773,-5.832 10.894,-12.258 9.394,-19.64"
                     style="fill:none;stroke:#000000;stroke-width:2.61674;stroke-linecap:round;stroke-linejoin:round;stroke-miterlimit:10;stroke-dasharray:none;stroke-opacity:1"
                     id="path1716" />
                </g>
                <g
                   id="g1718"
                   transform="matrix(1,0,0,-1,-76.063072,759.2184)">
                  <path
                     d="m 451.906,-288.051 c 5.961,-12.543 18.008,-22.051 21.184,-35.824 6.277,-13.285 -4.695,-25.84 -17.629,-28 -4.047,-1.254 -8.313,-0.086 -12.348,-1.187"
                     style="fill:none;stroke:#000000;stroke-width:2.61674;stroke-linecap:round;stroke-linejoin:round;stroke-miterlimit:10;stroke-dasharray:none;stroke-opacity:1"
                     id="path1720" />
                </g>
                <g
                   id="g1722"
                   transform="matrix(1,0,0,-1,-76.063072,759.2184)">
                  <path
                     d="m 432.516,-372.66 c 12.941,0.773 34.457,-2.43 38.796,14.293 1.668,8.07 5.571,16.929 4.247,24.726"
                     style="fill:none;stroke:#000000;stroke-width:2.61674;stroke-linecap:round;stroke-linejoin:round;stroke-miterlimit:10;stroke-dasharray:none;stroke-opacity:1"
                     id="path1724" />
                </g>
                <g
                   id="g1726"
                   transform="matrix(1,0,0,-1,-76.063072,759.2184)">
                  <path
                     d="m 448.129,-286.754 c -2.774,5.938 13.641,4.316 13.82,0.762"
                     style="fill:none;stroke:#000000;stroke-width:2.61674;stroke-linecap:round;stroke-linejoin:round;stroke-miterlimit:10;stroke-dasharray:none;stroke-opacity:1"
                     id="path1728" />
                </g>
                <g
                   id="g1730"
                   transform="matrix(1,0,0,-1,-76.063072,759.2184)">
                  <path
                     d="m 452.012,-286.578 c 15.383,2.64 23.297,-14.5 34.109,-22.684 8.524,-11.148 23.613,-20.097 21.859,-36.023 -4.902,-18.887 -19.171,5.078 -23.914,12.496 -4.664,4.039 -8.558,8.797 -12.945,13.125"
                     style="fill:none;stroke:#000000;stroke-width:2.61674;stroke-linecap:round;stroke-linejoin:round;stroke-miterlimit:10;stroke-dasharray:none;stroke-opacity:1"
                     id="path1732" />
                </g>
                <g
                   id="g1734"
                   transform="matrix(1,0,0,-1,-76.063072,759.2184)">
                  <path
                     d="m 406.434,-155.316 c 4.683,1.101 13.261,6.086 15.836,4.558"
                     style="fill:none;stroke:#000000;stroke-width:2.61674;stroke-linecap:round;stroke-linejoin:round;stroke-miterlimit:10;stroke-dasharray:none;stroke-opacity:1"
                     id="path1736" />
                </g>
                <g
                   id="g1738"
                   transform="matrix(1,0,0,-1,-76.063072,759.2184)">
                  <path
                     d="m 423.527,-151.758 c 0.821,-5.715 1.621,-12.144 0.09,-17.711"
                     style="fill:none;stroke:#000000;stroke-width:2.61674;stroke-linecap:round;stroke-linejoin:round;stroke-miterlimit:10;stroke-dasharray:none;stroke-opacity:1"
                     id="path1740" />
                </g>
                <g
                   id="g1742"
                   transform="matrix(1,0,0,-1,-76.063072,759.2184)">
                  <path
                     d="m 423.051,-168.914 c -4.621,-2.25 -11.278,-4.66 -15.352,-5.676"
                     style="fill:none;stroke:#000000;stroke-width:2.61674;stroke-linecap:round;stroke-linejoin:round;stroke-miterlimit:10;stroke-dasharray:none;stroke-opacity:1"
                     id="path1744" />
                </g>
                <g
                   id="g1746"
                   transform="matrix(1,0,0,-1,-76.063072,759.2184)">
                  <path
                     d="m 406.129,-154.965 c 0.25,-6.004 -1.317,-15.785 -0.848,-19.504"
                     style="fill:none;stroke:#000000;stroke-width:2.61674;stroke-linecap:round;stroke-linejoin:round;stroke-miterlimit:10;stroke-dasharray:none;stroke-opacity:1"
                     id="path1748" />
                </g>
                <g
                   id="g1750"
                   transform="matrix(1,0,0,-1,-76.063072,759.2184)">
                  <path
                     d="m 389.723,-135.473 c 14.136,3.137 44.273,8.602 58.461,11.094"
                     style="fill:none;stroke:#000000;stroke-width:2.61674;stroke-linecap:round;stroke-linejoin:round;stroke-miterlimit:10;stroke-dasharray:none;stroke-opacity:1"
                     id="path1752" />
                </g>
                <g
                   id="g1754"
                   transform="matrix(1,0,0,-1,-76.063072,759.2184)">
                  <path
                     d="m 446.898,-191.387 c -19.418,-1.832 -30.316,-22.164 -29.867,-40.054 0.028,-9.231 4.223,-23.836 12.864,-25.121"
                     style="fill:none;stroke:#000000;stroke-width:2.61674;stroke-linecap:round;stroke-linejoin:round;stroke-miterlimit:10;stroke-dasharray:none;stroke-opacity:1"
                     id="path1756" />
                </g>
                <g
                   id="g1758"
                   transform="matrix(1,0,0,-1,-76.063072,759.2184)">
                  <path
                     d="m 425.473,-256.141 c -12.282,-9.64 9.16,-8.57 -0.313,-2.593"
                     style="fill:none;stroke:#000000;stroke-width:2.61674;stroke-linecap:round;stroke-linejoin:round;stroke-miterlimit:10;stroke-dasharray:none;stroke-opacity:1"
                     id="path1760" />
                </g>
                <g
                   id="g1762"
                   transform="matrix(1,0,0,-1,-76.063072,759.2184)">
                  <path
                     d="m 420.371,-254.148 c -6.043,-1.09 -11.012,-16.446 -1.66,-10.922"
                     style="fill:none;stroke:#000000;stroke-width:2.61674;stroke-linecap:round;stroke-linejoin:round;stroke-miterlimit:10;stroke-dasharray:none;stroke-opacity:1"
                     id="path1764" />
                </g>
                <g
                   id="g1766"
                   transform="matrix(1,0,0,-1,-76.063072,759.2184)">
                  <path
                     d="m 421.816,-252.637 c -2.793,-2.039 -4,-6.734 -1.336,-9.363"
                     style="fill:none;stroke:#000000;stroke-width:2.61674;stroke-linecap:round;stroke-linejoin:round;stroke-miterlimit:10;stroke-dasharray:none;stroke-opacity:1"
                     id="path1768" />
                </g>
                <g
                   id="g1770"
                   transform="matrix(1,0,0,-1,-76.063072,759.2184)">
                  <path
                     d="m 469.75,-219.207 c -6.062,-9.316 -9.344,-21.492 -0.637,-30.945 16.391,-5.672 23.25,18.496 19.196,30.894 -2.438,8.832 -15.481,7.774 -18.559,0.051"
                     style="fill:none;stroke:#000000;stroke-width:2.61674;stroke-linecap:round;stroke-linejoin:round;stroke-miterlimit:10;stroke-dasharray:none;stroke-opacity:1"
                     id="path1772" />
                </g>
                <g
                   id="g1774"
                   transform="matrix(1,0,0,-1,-76.063072,759.2184)">
                  <path
                     d="m 446.898,-191.387 c 5.317,-0.008 14.661,-1.476 17.907,-6.242"
                     style="fill:none;stroke:#000000;stroke-width:2.61674;stroke-linecap:round;stroke-linejoin:round;stroke-miterlimit:10;stroke-dasharray:none;stroke-opacity:1"
                     id="path1776" />
                </g>
                <g
                   id="g1778"
                   transform="matrix(1,0,0,-1,-76.063072,759.2184)">
                  <path
                     d="m 463.188,-197.895 c -17.665,2.008 -23.403,-19.902 -27.915,-32.984 -2.515,-11.539 5.211,-25.726 17.336,-27.437"
                     style="fill:none;stroke:#000000;stroke-width:2.61674;stroke-linecap:round;stroke-linejoin:round;stroke-miterlimit:10;stroke-dasharray:none;stroke-opacity:1"
                     id="path1780" />
                </g>
                <g
                   id="g1782"
                   transform="matrix(1,0,0,-1,-76.063072,759.2184)">
                  <path
                     d="m 454.152,-193.414 c -15.445,-5.563 -22.023,-23.32 -24.562,-38.203 -2.199,-12.321 6.41,-25.18 16.258,-27.793"
                     style="fill:none;stroke:#000000;stroke-width:2.61674;stroke-linecap:round;stroke-linejoin:round;stroke-miterlimit:10;stroke-dasharray:none;stroke-opacity:1"
                     id="path1784" />
                </g>
                <g
                   id="g1786"
                   transform="matrix(1,0,0,-1,-76.063072,759.2184)">
                  <path
                     d="m 428.059,-254.469 c 11.57,-7.82 29.711,-3.656 41.054,4.317"
                     style="fill:none;stroke:#000000;stroke-width:2.61674;stroke-linecap:round;stroke-linejoin:round;stroke-miterlimit:10;stroke-dasharray:none;stroke-opacity:1"
                     id="path1788" />
                </g>
                <g
                   id="g1790"
                   transform="matrix(1,0,0,-1,-76.063072,759.2184)">
                  <path
                     d="m 478.434,-212.914 c -6.496,3.641 -8.93,10.926 -13.786,16.098"
                     style="fill:none;stroke:#000000;stroke-width:2.61674;stroke-linecap:round;stroke-linejoin:round;stroke-miterlimit:10;stroke-dasharray:none;stroke-opacity:1"
                     id="path1792" />
                </g>
                <g
                   id="g1794"
                   transform="matrix(1,0,0,-1,-76.063072,759.2184)">
                  <path
                     d="m 305.406,-208.828 c 13.438,-8.961 26.692,-20.578 31.395,-36.59 2.101,-8.363 5.219,-16.793 3.703,-25.566 -1.254,-9.567 -4.492,-18.848 -8.668,-27.493 -6.082,-9.64 -19.508,-13.894 -29.984,-9.32 1.007,-0.941 -2.047,1.418 -1.282,0.735"
                     style="fill:none;stroke:#000000;stroke-width:2.61674;stroke-linecap:round;stroke-linejoin:round;stroke-miterlimit:10;stroke-dasharray:none;stroke-opacity:1"
                     id="path1796" />
                </g>
                <g
                   id="g1798"
                   transform="matrix(1,0,0,-1,-76.063072,759.2184)">
                  <path
                     d="m 305.406,-208.828 c -7.066,2.172 -16.289,5.508 -23.515,2.164"
                     style="fill:none;stroke:#000000;stroke-width:2.61674;stroke-linecap:round;stroke-linejoin:round;stroke-miterlimit:10;stroke-dasharray:none;stroke-opacity:1"
                     id="path1800" />
                </g>
                <g
                   id="g1802"
                   transform="matrix(1,0,0,-1,-76.063072,759.2184)">
                  <path
                     d="m 266.129,-219.992 c -6.668,-14.199 -6.664,-31.481 -3.25,-46.738 0.648,-4.567 6.933,-12.485 9.363,-14.766"
                     style="fill:none;stroke:#000000;stroke-width:2.61674;stroke-linecap:round;stroke-linejoin:round;stroke-miterlimit:10;stroke-dasharray:none;stroke-opacity:1"
                     id="path1804" />
                </g>
                <g
                   id="g1806"
                   transform="matrix(1,0,0,-1,-76.063072,759.2184)">
                  <path
                     d="m 265.789,-220.09 c 2.715,11.664 33.676,24.317 28.402,3.754 -0.093,-5.465 2.489,-11.941 5.86,-15.391"
                     style="fill:none;stroke:#000000;stroke-width:2.61674;stroke-linecap:round;stroke-linejoin:round;stroke-miterlimit:10;stroke-dasharray:none;stroke-opacity:1"
                     id="path1808" />
                </g>
                <g
                   id="g1810"
                   transform="matrix(1,0,0,-1,-76.063072,759.2184)">
                  <path
                     d="m 266.441,-221.094 c 4.817,-14.523 -7.816,-31.125 3.758,-45.25 3.418,-12.062 0.387,-26.82 15.129,-33.035 6.012,-6.609 21,-11.402 15.508,3.168 -0.617,2.789 -0.324,6.883 -0.086,9.047"
                     style="fill:none;stroke:#000000;stroke-width:2.61674;stroke-linecap:round;stroke-linejoin:round;stroke-miterlimit:10;stroke-dasharray:none;stroke-opacity:1"
                     id="path1812" />
                </g>
                <g
                   id="g1814"
                   transform="matrix(1,0,0,-1,-76.063072,759.2184)">
                  <path
                     d="m 303.898,-283.387 c 9.887,1.672 17.004,14.848 17.555,23.426"
                     style="fill:none;stroke:#000000;stroke-width:2.61674;stroke-linecap:round;stroke-linejoin:round;stroke-miterlimit:10;stroke-dasharray:none;stroke-opacity:1"
                     id="path1816" />
                </g>
                <g
                   id="g1818"
                   transform="matrix(1,0,0,-1,-76.063072,759.2184)">
                  <path
                     d="m 320.824,-260.105 c 2.899,13.187 -8.863,21.343 -17.344,29.421 l -1.933,0.68 -2.121,0.207"
                     style="fill:none;stroke:#000000;stroke-width:2.61674;stroke-linecap:round;stroke-linejoin:round;stroke-miterlimit:10;stroke-dasharray:none;stroke-opacity:1"
                     id="path1820" />
                </g>
                <g
                   id="g1822"
                   transform="matrix(1,0,0,-1,-76.063072,759.2184)">
                  <path
                     d="m 297.652,-228.621 c -1.73,-8.352 -20.414,-5.332 -17.34,-19.535 -0.367,-13.043 2.54,-30.797 17.204,-34.879 2.117,-0.465 4.172,-0.055 6.242,-0.547"
                     style="fill:none;stroke:#000000;stroke-width:2.61674;stroke-linecap:round;stroke-linejoin:round;stroke-miterlimit:10;stroke-dasharray:none;stroke-opacity:1"
                     id="path1824" />
                </g>
                <g
                   id="g1826"
                   transform="matrix(1,0,0,-1,-76.063072,759.2184)">
                  <path
                     d="m 291.195,-244.457 c 16.438,8.848 28.133,-27.563 9.336,-30.527 -11.215,2.394 -17.172,21.566 -9.336,30.527"
                     style="fill:none;stroke:#000000;stroke-width:2.61674;stroke-linecap:round;stroke-linejoin:round;stroke-miterlimit:10;stroke-dasharray:none;stroke-opacity:1"
                     id="path1828" />
                </g>
                <g
                   id="g1830"
                   transform="matrix(1,0,0,-1,-76.063072,759.2184)">
                  <path
                     d="m 298.848,-246.41 c -14.914,0.523 -8.258,-24.629 4.433,-22.094 1.66,0.965 4.121,3.692 4.313,5.367"
                     style="fill:none;stroke:#000000;stroke-width:2.61674;stroke-linecap:round;stroke-linejoin:round;stroke-miterlimit:10;stroke-dasharray:none;stroke-opacity:1"
                     id="path1832" />
                </g>
                <g
                   id="g1834"
                   transform="matrix(1,0,0,-1,-76.063072,759.2184)">
                  <path
                     d="m 297.547,-235.297 c 5.277,-2.113 11.945,-6.445 12.965,-12.394"
                     style="fill:none;stroke:#000000;stroke-width:2.61674;stroke-linecap:round;stroke-linejoin:round;stroke-miterlimit:10;stroke-dasharray:none;stroke-opacity:1"
                     id="path1836" />
                </g>
                <g
                   id="g1838"
                   transform="matrix(1,0,0,-1,-76.063072,759.2184)">
                  <path
                     d="m 311.164,-249.73 c 1.75,2.324 3.082,3.3 5.555,4.781"
                     style="fill:none;stroke:#000000;stroke-width:2.61674;stroke-linecap:round;stroke-linejoin:round;stroke-miterlimit:10;stroke-dasharray:none;stroke-opacity:1"
                     id="path1840" />
                </g>
                <g
                   id="g1842"
                   transform="matrix(1,0,0,-1,-76.063072,759.2184)">
                  <path
                     d="m 312.141,-250.09 c 1.375,-4.117 1.054,-11.371 7.191,-9.41"
                     style="fill:none;stroke:#000000;stroke-width:2.61674;stroke-linecap:round;stroke-linejoin:round;stroke-miterlimit:10;stroke-dasharray:none;stroke-opacity:1"
                     id="path1844" />
                </g>
                <g
                   id="g1846"
                   transform="matrix(1,0,0,-1,-76.063072,759.2184)">
                  <path
                     d="m 285.586,-257.578 c -1.301,-5.047 1.48,-11.563 5.652,-14.484"
                     style="fill:none;stroke:#000000;stroke-width:2.61674;stroke-linecap:round;stroke-linejoin:round;stroke-miterlimit:10;stroke-dasharray:none;stroke-opacity:1"
                     id="path1848" />
                </g>
                <g
                   id="g1850"
                   transform="matrix(1,0,0,-1,-76.063072,759.2184)">
                  <path
                     d="m 322.371,-235.277 c 10.141,-13.137 16.141,-35.637 6.727,-50.211 l -0.168,0.133"
                     style="fill:none;stroke:#000000;stroke-width:2.61674;stroke-linecap:round;stroke-linejoin:round;stroke-miterlimit:10;stroke-dasharray:none;stroke-opacity:1"
                     id="path1852" />
                </g>
                <g
                   id="g1854"
                   transform="matrix(1,0,0,-1,-76.063072,759.2184)">
                  <path
                     d="m 280.004,-144.746 c 7.652,-0.566 15.601,-4.692 22.894,-4.496"
                     style="fill:none;stroke:#000000;stroke-width:2.61674;stroke-linecap:round;stroke-linejoin:round;stroke-miterlimit:10;stroke-dasharray:none;stroke-opacity:1"
                     id="path1856" />
                </g>
                <g
                   id="g1858"
                   transform="matrix(1,0,0,-1,-76.063072,759.2184)">
                  <path
                     d="m 304.164,-149.469 c 0.508,2.703 0.203,5.516 0.981,8.16"
                     style="fill:none;stroke:#000000;stroke-width:2.61674;stroke-linecap:round;stroke-linejoin:round;stroke-miterlimit:10;stroke-dasharray:none;stroke-opacity:1"
                     id="path1860" />
                </g>
                <g
                   id="g1862"
                   transform="matrix(1,0,0,-1,-76.063072,759.2184)">
                  <path
                     d="m 305.281,-140.902 c 7.004,-2.555 15.375,-2.481 22.094,-4.266"
                     style="fill:none;stroke:#000000;stroke-width:2.61674;stroke-linecap:round;stroke-linejoin:round;stroke-miterlimit:10;stroke-dasharray:none;stroke-opacity:1"
                     id="path1864" />
                </g>
                <g
                   id="g1866"
                   transform="matrix(1,0,0,-1,-76.063072,759.2184)">
                  <path
                     d="m 327.312,-145.637 c -0.574,-2.867 -0.105,-7.566 -0.46,-9.593"
                     style="fill:none;stroke:#000000;stroke-width:2.61674;stroke-linecap:round;stroke-linejoin:round;stroke-miterlimit:10;stroke-dasharray:none;stroke-opacity:1"
                     id="path1868" />
                </g>
                <g
                   id="g1870"
                   transform="matrix(1,0,0,-1,-76.063072,759.2184)">
                  <path
                     d="m 326.852,-155.23 c 8.582,-1.543 18.054,-3.883 25.527,-6.458"
                     style="fill:none;stroke:#000000;stroke-width:2.61674;stroke-linecap:round;stroke-linejoin:round;stroke-miterlimit:10;stroke-dasharray:none;stroke-opacity:1"
                     id="path1872" />
                </g>
                <g
                   id="g1874"
                   transform="matrix(1,0,0,-1,-76.063072,759.2184)">
                  <path
                     d="m 353.883,-161.988 c -0.371,-3.848 -0.641,-7.899 -0.883,-11.617"
                     style="fill:none;stroke:#000000;stroke-width:2.61674;stroke-linecap:round;stroke-linejoin:round;stroke-miterlimit:10;stroke-dasharray:none;stroke-opacity:1"
                     id="path1876" />
                </g>
                <g
                   id="g1878"
                   transform="matrix(1,0,0,-1,-76.063072,759.2184)">
                  <path
                     d="m 325.832,-169.492 c 7.207,-2.164 19.836,-2.524 27.168,-4.113"
                     style="fill:none;stroke:#000000;stroke-width:2.61674;stroke-linecap:round;stroke-linejoin:round;stroke-miterlimit:10;stroke-dasharray:none;stroke-opacity:1"
                     id="path1880" />
                </g>
                <g
                   id="g1882"
                   transform="matrix(1,0,0,-1,-76.063072,759.2184)">
                  <path
                     d="m 325.832,-169.492 c 2.23,-8.313 -14.953,-3.031 -20.984,-2.055 -5.969,1.109 -2.176,3.637 -1.309,8.164"
                     style="fill:none;stroke:#000000;stroke-width:2.61674;stroke-linecap:round;stroke-linejoin:round;stroke-miterlimit:10;stroke-dasharray:none;stroke-opacity:1"
                     id="path1884" />
                </g>
                <g
                   id="g1886"
                   transform="matrix(1,0,0,-1,-76.063072,759.2184)">
                  <path
                     d="m 280.004,-144.746 c 0.609,-2.113 -0.66,-10 -0.66,-10"
                     style="fill:none;stroke:#000000;stroke-width:2.61674;stroke-linecap:round;stroke-linejoin:round;stroke-miterlimit:10;stroke-dasharray:none;stroke-opacity:1"
                     id="path1888" />
                </g>
                <g
                   id="g1890"
                   transform="matrix(1,0,0,-1,-76.063072,759.2184)">
                  <path
                     d="m 279.664,-155.746 c 7.68,-2.918 16.883,-5 23.875,-7.637"
                     style="fill:none;stroke:#000000;stroke-width:2.61674;stroke-linecap:round;stroke-linejoin:round;stroke-miterlimit:10;stroke-dasharray:none;stroke-opacity:1"
                     id="path1892" />
                </g>
                <g
                   id="g1894"
                   transform="matrix(1,0,0,-1,-76.063072,759.2184)">
                  <path
                     d="m 417.688,-241.691 c -13.641,-0.344 -12.567,-41.625 -12.567,-41.625 0,0 -2.328,-29.848 12.301,-29.309 8.492,-6.75 -3.731,-35.074 16.047,-25.039 2.808,1.062 5.969,0.891 8.66,2.277"
                     style="fill:none;stroke:#000000;stroke-width:2.61674;stroke-linecap:round;stroke-linejoin:round;stroke-miterlimit:10;stroke-dasharray:none;stroke-opacity:1"
                     id="path1896" />
                </g>
                <g
                   id="g1898"
                   transform="matrix(1,0,0,-1,-76.063072,759.2184)">
                  <path
                     d="m 410.984,-317.445 c -0.093,-9 -0.066,-20.434 -0.007,-27.961"
                     style="fill:none;stroke:#000000;stroke-width:2.61674;stroke-linecap:round;stroke-linejoin:round;stroke-miterlimit:10;stroke-dasharray:none;stroke-opacity:1"
                     id="path1900" />
                </g>
                <g
                   id="g1902"
                   transform="matrix(1,0,0,-1,-76.063072,759.2184)">
                  <path
                     d="m 416.488,-320.906 c 0.336,-7.684 0.832,-19.352 -0.597,-25.11"
                     style="fill:none;stroke:#000000;stroke-width:2.61674;stroke-linecap:round;stroke-linejoin:round;stroke-miterlimit:10;stroke-dasharray:none;stroke-opacity:1"
                     id="path1904" />
                </g>
                <g
                   id="g1906"
                   transform="matrix(1,0,0,-1,-76.063072,759.2184)">
                  <path
                     d="m 411.203,-333.605 c 1.156,0.875 3.805,-1.149 4.336,0.441"
                     style="fill:none;stroke:#000000;stroke-width:2.61674;stroke-linecap:round;stroke-linejoin:round;stroke-miterlimit:10;stroke-dasharray:none;stroke-opacity:1"
                     id="path1908" />
                </g>
                <g
                   id="g1910"
                   transform="matrix(1,0,0,-1,-76.063072,759.2184)">
                  <path
                     d="m 411.703,-325.859 c -0.808,-1.004 5.074,-0.371 4.043,1.023"
                     style="fill:none;stroke:#000000;stroke-width:2.61674;stroke-linecap:round;stroke-linejoin:round;stroke-miterlimit:10;stroke-dasharray:none;stroke-opacity:1"
                     id="path1912" />
                </g>
                <g
                   id="g1914"
                   transform="matrix(1,0,0,-1,-76.063072,759.2184)">
                  <path
                     d="m 464.082,-201.062 c -10.305,-2.598 -16.445,-14.188 -19.84,-23.676 -2.457,-9.516 1.61,-23.172 10.168,-25.856"
                     style="fill:none;stroke:#000000;stroke-width:1.26872;stroke-linecap:round;stroke-linejoin:round;stroke-miterlimit:10;stroke-dasharray:none;stroke-opacity:1"
                     id="path1916" />
                </g>
                <g
                   id="g1918"
                   transform="matrix(1,0,0,-1,-76.063072,759.2184)">
                  <path
                     d="m 466.926,-206.406 c -12.617,-4.18 -21.473,-22.758 -15.985,-34.653"
                     style="fill:none;stroke:#000000;stroke-width:1.26872;stroke-linecap:round;stroke-linejoin:round;stroke-miterlimit:10;stroke-dasharray:none;stroke-opacity:1"
                     id="path1920" />
                </g>
                <g
                   id="g1922"
                   transform="matrix(1,0,0,-1,-76.063072,759.2184)">
                  <path
                     d="m 471.164,-212.453 c -12.355,-5.031 -19.984,-24.02 -13.234,-36.211 0.996,-1.922 3.304,-2.238 4.789,-3.633"
                     style="fill:none;stroke:#000000;stroke-width:1.26872;stroke-linecap:round;stroke-linejoin:round;stroke-miterlimit:10;stroke-dasharray:none;stroke-opacity:1"
                     id="path1924" />
                </g>
                <g
                   id="g1926"
                   transform="matrix(1,0,0,-1,-76.063072,759.2184)">
                  <path
                     d="m 291.863,-210.016 c 0.633,-6.558 1.367,-13.539 0.348,-19.816"
                     style="fill:none;stroke:#000000;stroke-width:1.26872;stroke-linecap:round;stroke-linejoin:round;stroke-miterlimit:10;stroke-dasharray:none;stroke-opacity:1"
                     id="path1928" />
                </g>
                <g
                   id="g1930"
                   transform="matrix(1,0,0,-1,-76.063072,759.2184)">
                  <path
                     d="m 289.133,-230.57 c -15.078,-4.438 -11.785,-22.5 -9.422,-34.27 0.625,-2.238 0.762,-6.472 3.371,-7.265"
                     style="fill:none;stroke:#000000;stroke-width:1.26872;stroke-linecap:round;stroke-linejoin:round;stroke-miterlimit:10;stroke-dasharray:none;stroke-opacity:1"
                     id="path1932" />
                </g>
                <g
                   id="g1934"
                   transform="matrix(1,0,0,-1,-76.063072,759.2184)">
                  <path
                     d="m 294.93,-288.02 c 2.113,-3.714 3.461,-10.289 2.242,-13"
                     style="fill:none;stroke:#000000;stroke-width:1.26872;stroke-linecap:round;stroke-linejoin:round;stroke-miterlimit:10;stroke-dasharray:none;stroke-opacity:1"
                     id="path1936" />
                </g>
                <g
                   id="g1938"
                   transform="matrix(1,0,0,-1,-76.063072,759.2184)">
                  <path
                     d="m 306.898,-232.043 c 4.086,-1.707 7.196,-10.328 9.821,-12.906"
                     style="fill:none;stroke:#000000;stroke-width:1.26872;stroke-linecap:round;stroke-linejoin:round;stroke-miterlimit:10;stroke-dasharray:none;stroke-opacity:1"
                     id="path1940" />
                </g>
                <g
                   id="g1942"
                   transform="matrix(1,0,0,-1,-76.063072,759.2184)">
                  <path
                     d="m 403.648,-137.41 c -0.824,-21.797 -0.964,-43.52 -0.793,-65.387"
                     style="fill:none;stroke:#000000;stroke-width:1.26872;stroke-linecap:round;stroke-linejoin:round;stroke-miterlimit:10;stroke-dasharray:none;stroke-opacity:1"
                     id="path1944" />
                </g>
                <g
                   id="g1946"
                   transform="matrix(1,0,0,-1,-76.063072,759.2184)">
                  <path
                     d="m 408.539,-139.703 c -8.387,-12.192 13.375,-3.926 0.207,0.422"
                     style="fill:none;stroke:#000000;stroke-width:1.26872;stroke-linecap:round;stroke-linejoin:round;stroke-miterlimit:10;stroke-dasharray:none;stroke-opacity:1"
                     id="path1948" />
                </g>
                <g
                   id="g1950"
                   transform="matrix(1,0,0,-1,-76.063072,759.2184)">
                  <path
                     d="m 408.805,-140.23 c 0.277,-0.926 1.218,-4.329 1.406,-5.106"
                     style="fill:none;stroke:#000000;stroke-width:1.26872;stroke-linecap:round;stroke-linejoin:round;stroke-miterlimit:10;stroke-dasharray:none;stroke-opacity:1"
                     id="path1952" />
                </g>
                <g
                   id="g1954"
                   transform="matrix(1,0,0,-1,-76.063072,759.2184)">
                  <path
                     d="m 406.52,-143.051 c 0.832,0.156 4.523,0.899 5.539,1.106"
                     style="fill:none;stroke:#000000;stroke-width:1.26872;stroke-linecap:round;stroke-linejoin:round;stroke-miterlimit:10;stroke-dasharray:none;stroke-opacity:1"
                     id="path1956" />
                </g>
              </g>
            </g>
          </g>
        </g>
      </g>
    </g>
  </g>
</svg>
