<?xml version="1.0" encoding="UTF-8" standalone="no"?>
<!-- Created by Ashley Blewer - This work is licensed under a Creative Commons Attribution 4.0 International License -->

<svg
   width="544"
   height="480"
   viewBox="0 0 143.93334 127"
   version="1.1"
   id="svg2490"
   inkscape:version="1.2.2 (1:1.2.2+202212051552+b0a8486541)"
   sodipodi:docname="1923-16mm-1.svg"
   xmlns:inkscape="http://www.inkscape.org/namespaces/inkscape"
   xmlns:sodipodi="http://sodipodi.sourceforge.net/DTD/sodipodi-0.dtd"
   xmlns="http://www.w3.org/2000/svg"
   xmlns:svg="http://www.w3.org/2000/svg">
  <sodipodi:namedview
     id="namedview2492"
     pagecolor="#ffffff"
     bordercolor="#666666"
     borderopacity="1.0"
     inkscape:pageshadow="2"
     inkscape:pageopacity="0.0"
     inkscape:pagecheckerboard="0"
     inkscape:document-units="mm"
     showgrid="false"
     units="px"
     inkscape:zoom="0.90583674"
     inkscape:cx="336.15329"
     inkscape:cy="254.46086"
     inkscape:window-width="1846"
     inkscape:window-height="1136"
     inkscape:window-x="0"
     inkscape:window-y="0"
     inkscape:window-maximized="1"
     inkscape:current-layer="g6395"
     inkscape:showpageshadow="2"
     inkscape:deskcolor="#d1d1d1" />
  <defs
     id="defs2487" />
  <g
     inkscape:label="Layer 1"
     inkscape:groupmode="layer"
     id="layer1">
    <g
       id="g4731"
       transform="matrix(0.32961229,0,0,0.32903008,-241.78905,1.73126)"
       style="stroke-width:2.68698">
      <g
         id="g104528"
         transform="matrix(1,0,0,-1,0,792)"
         style="stroke-width:2.68698">
        <g
           id="g104530"
           style="stroke-width:2.68698" />
      </g>
      <g
         id="g104996"
         transform="matrix(1,0,0,-1,0,792)"
         style="stroke-width:2.68698">
        <g
           id="g104998"
           style="stroke-width:2.68698" />
      </g>
      <g
         id="g28852"
         transform="matrix(1.070281,0,0,1.0721748,779.91249,-443.13657)">
        <g
           id="g6718"
           transform="matrix(1.117886,0,0,1.117886,-549.13111,-491.62865)">
          <g
             id="g6395"
             transform="matrix(0.53415107,0,0,0.53415109,441.93669,415.26868)">
            <g
               id="g8243"
               transform="matrix(2.2817942,0,0,2.2817942,-385.91052,-1299.1193)">
              <g
                 id="g1231"
                 transform="matrix(1,0,0,-1,-83.956498,746.64263)">
                <path
                   d="m 392.859,-188.988 c -10.121,-11.672 -7.359,-29.375 -0.101,-41.817 8.113,-15.019 22.789,-25.293 37.582,-33.027 26.465,-12.266 57.367,-14.055 85.367,-6.398 11.43,5.324 24.602,12.441 27.234,25.925 5.227,16.504 -3.699,33.778 -16.382,44.145 -16.434,10.156 -33.715,19.344 -52.051,25.504 -11.199,3.465 -23.192,4.265 -34.84,3.418 -16.242,-1.352 -31.758,-7.59 -44.887,-17.035 -0.711,-0.161 -3.672,-5.692 -3.23,-2.606"
                   style="fill:none;stroke:#000000;stroke-width:2.61674;stroke-linecap:round;stroke-linejoin:round;stroke-miterlimit:10;stroke-dasharray:none;stroke-opacity:1"
                   id="path1233" />
              </g>
              <g
                 id="g1235"
                 transform="matrix(1,0,0,-1,-83.956498,746.64263)">
                <path
                   d="m 538.832,-253.801 c -6.965,-17.094 -25.859,-25.5 -43.055,-28.187 -22.976,-2.293 -47.179,-0.196 -67.875,10.793 -18.609,9.343 -33.363,25.968 -40.597,45.441 -1.403,7.109 -1.633,14.918 0.945,21.801"
                   style="fill:none;stroke:#000000;stroke-width:2.61674;stroke-linecap:round;stroke-linejoin:round;stroke-miterlimit:10;stroke-dasharray:none;stroke-opacity:1"
                   id="path1237" />
              </g>
              <g
                 id="g1239"
                 transform="matrix(1,0,0,-1,-83.956498,746.64263)">
                <path
                   d="m 302.75,-264.887 c 16.512,-11.871 35.102,-22.738 56,-23.285 19.336,-2.031 39.016,0.563 57.07,7.801 4.953,1.875 12.055,3.84 14.914,7.762"
                   style="fill:none;stroke:#000000;stroke-width:2.61674;stroke-linecap:round;stroke-linejoin:round;stroke-miterlimit:10;stroke-dasharray:none;stroke-opacity:1"
                   id="path1241" />
              </g>
              <g
                 id="g1243"
                 transform="matrix(1,0,0,-1,-83.956498,746.64263)">
                <path
                   d="m 439.434,-276.73 c -1.321,-4.094 -0.996,-12.34 -3.676,-14.625"
                   style="fill:none;stroke:#000000;stroke-width:2.61674;stroke-linecap:round;stroke-linejoin:round;stroke-miterlimit:10;stroke-dasharray:none;stroke-opacity:1"
                   id="path1245" />
              </g>
              <g
                 id="g1247"
                 transform="matrix(1,0,0,-1,-83.956498,746.64263)">
                <path
                   d="m 300.027,-264.527 c 3.809,-18.278 19.504,-33.176 37.379,-37.618 22.746,-4.398 46.285,-2.671 69.082,0.551 10.844,2.012 18.758,7.367 29.27,10.239"
                   style="fill:none;stroke:#000000;stroke-width:2.61674;stroke-linecap:round;stroke-linejoin:round;stroke-miterlimit:10;stroke-dasharray:none;stroke-opacity:1"
                   id="path1249" />
              </g>
              <g
                 id="g1251"
                 transform="matrix(1,0,0,-1,-83.956498,746.64263)">
                <path
                   d="m 397.059,-185.543 c -12.348,7.988 -29.028,14.738 -44.145,14.77 -18.035,-0.223 -37.988,0.23 -53.195,-10.938 -12.871,-8.727 -19.563,-25.242 -15.856,-40.418 3.063,-17 16.02,-30.523 30.262,-39.41 15.691,-6.551 30.617,-16.066 47.941,-17.543 12.25,-0.59 24.762,0.055 36.762,2.586 6.781,2.379 14.195,4.047 19.57,9.105"
                   style="fill:none;stroke:#000000;stroke-width:2.61674;stroke-linecap:round;stroke-linejoin:round;stroke-miterlimit:10;stroke-dasharray:none;stroke-opacity:1"
                   id="path1253" />
              </g>
              <g
                 id="g1255"
                 transform="matrix(1,0,0,-1,-83.956498,746.64263)">
                <path
                   d="m 282.438,-203.836 c -3.809,-10.531 -6.126,-22.129 -1.157,-32.785 5.02,-11.84 13.266,-22.449 22.875,-31.024 7.168,-6.765 15.641,-12.554 25.629,-14.125 8.258,-2.101 16.848,-5.632 25.047,-6.425"
                   style="fill:none;stroke:#000000;stroke-width:2.61674;stroke-linecap:round;stroke-linejoin:round;stroke-miterlimit:10;stroke-dasharray:none;stroke-opacity:1"
                   id="path1257" />
              </g>
              <g
                 id="g1259"
                 transform="matrix(1,0,0,-1,-83.956498,746.64263)">
                <path
                   d="m 321.043,-179.941 c 15.758,5.164 32.691,2.023 48.516,-1.161 0.753,-7.902 -8.481,-19.703 -18.2,-17.406 -10.98,3.59 -21.711,10.926 -30.316,18.567"
                   style="fill:none;stroke:#000000;stroke-width:2.61674;stroke-linecap:round;stroke-linejoin:round;stroke-miterlimit:10;stroke-dasharray:none;stroke-opacity:1"
                   id="path1261" />
              </g>
              <g
                 id="g1263"
                 transform="matrix(1,0,0,-1,-83.956498,746.64263)">
                <path
                   d="m 307.938,-186.09 c 8.382,-3.148 13.968,-12.762 19.144,-19.906 0.145,-11.879 -16.617,-9.895 -24.84,-10.121 -7.754,-1.895 -15.738,0.836 -11.734,10.269 2.996,8.305 6.937,19.395 17.183,20.207 l 0.235,-0.437"
                   style="fill:none;stroke:#000000;stroke-width:2.61674;stroke-linecap:round;stroke-linejoin:round;stroke-miterlimit:10;stroke-dasharray:none;stroke-opacity:1"
                   id="path1265" />
              </g>
              <g
                 id="g1267"
                 transform="matrix(1,0,0,-1,-83.956498,746.64263)">
                <path
                   d="m 295.398,-226.746 c 11.641,-0.188 26.125,-1.418 36.786,-6.113 8.796,-6.473 7.664,-22.559 -0.661,-28.434 -9.625,1.191 -17.238,8.457 -24.718,14.141 -4.192,5.218 -14.02,14.519 -11.407,20.406"
                   style="fill:none;stroke:#000000;stroke-width:2.61674;stroke-linecap:round;stroke-linejoin:round;stroke-miterlimit:10;stroke-dasharray:none;stroke-opacity:1"
                   id="path1269" />
              </g>
              <g
                 id="g1271"
                 transform="matrix(1,0,0,-1,-83.956498,746.64263)">
                <path
                   d="m 392.293,-189.922 c -9.961,10.152 -14.957,-7.433 -13.5,-15.211 0.691,-2.008 4.012,-2.601 5.215,-2.539"
                   style="fill:none;stroke:#000000;stroke-width:2.61674;stroke-linecap:round;stroke-linejoin:round;stroke-miterlimit:10;stroke-dasharray:none;stroke-opacity:1"
                   id="path1273" />
              </g>
              <g
                 id="g1275"
                 transform="matrix(1,0,0,-1,-83.956498,746.64263)">
                <path
                   d="m 358.203,-249.227 c 12.813,5.192 25.695,-3.027 35.797,-10.328 8.586,-4.32 6.25,-12.82 -3.395,-11.23 -12.847,-1 -25.894,-0.695 -38.656,0.875 -13.191,0.805 -0.105,20.222 6.254,20.683"
                   style="fill:none;stroke:#000000;stroke-width:2.61674;stroke-linecap:round;stroke-linejoin:round;stroke-miterlimit:10;stroke-dasharray:none;stroke-opacity:1"
                   id="path1277" />
              </g>
              <g
                 id="g1279"
                 transform="matrix(1,0,0,-1,-83.956498,746.64263)">
                <path
                   d="m 332.012,-198.125 c 3.312,-2.004 6.058,-6.34 7.547,-7.348"
                   style="fill:none;stroke:#000000;stroke-width:1.26872;stroke-linecap:round;stroke-linejoin:round;stroke-miterlimit:10;stroke-dasharray:none;stroke-opacity:1"
                   id="path1281" />
              </g>
              <g
                 id="g1283"
                 transform="matrix(1,0,0,-1,-83.956498,746.64263)">
                <path
                   d="m 339.559,-205.473 c 9.457,6.868 14.328,-11.625 3.527,-8.32 -6.106,0.063 -11.516,4.047 -3.527,8.32"
                   style="fill:none;stroke:#000000;stroke-width:1.26872;stroke-linecap:round;stroke-linejoin:round;stroke-miterlimit:10;stroke-dasharray:none;stroke-opacity:1"
                   id="path1285" />
              </g>
              <g
                 id="g1287"
                 transform="matrix(1,0,0,-1,-83.956498,746.64263)">
                <path
                   d="m 338.809,-206.504 c -3.032,3.172 -6.532,7.262 -9.508,9.555"
                   style="fill:none;stroke:#000000;stroke-width:1.26872;stroke-linecap:round;stroke-linejoin:round;stroke-miterlimit:10;stroke-dasharray:none;stroke-opacity:1"
                   id="path1289" />
              </g>
              <g
                 id="g1291"
                 transform="matrix(1,0,0,-1,-83.956498,746.64263)">
                <path
                   d="m 369.516,-198.789 c -1.524,-2.168 -2.289,-4.797 -4.118,-6.742"
                   style="fill:none;stroke:#000000;stroke-width:1.26872;stroke-linecap:round;stroke-linejoin:round;stroke-miterlimit:10;stroke-dasharray:none;stroke-opacity:1"
                   id="path1293" />
              </g>
              <g
                 id="g1295"
                 transform="matrix(1,0,0,-1,-83.956498,746.64263)">
                <path
                   d="m 371.406,-199.285 c -0.687,-2.891 -2.808,-5.164 -4.617,-7.41"
                   style="fill:none;stroke:#000000;stroke-width:1.26872;stroke-linecap:round;stroke-linejoin:round;stroke-miterlimit:10;stroke-dasharray:none;stroke-opacity:1"
                   id="path1297" />
              </g>
              <g
                 id="g1299"
                 transform="matrix(1,0,0,-1,-83.956498,746.64263)">
                <path
                   d="m 358.496,-205.215 c 6.637,1.695 24.649,-8.414 8.82,-7.883 -5.3,-0.777 -8.683,3.164 -8.82,7.883"
                   style="fill:none;stroke:#000000;stroke-width:1.26872;stroke-linecap:round;stroke-linejoin:round;stroke-miterlimit:10;stroke-dasharray:none;stroke-opacity:1"
                   id="path1301" />
              </g>
              <g
                 id="g1303"
                 transform="matrix(1,0,0,-1,-83.956498,746.64263)">
                <path
                   d="m 381.805,-217.164 c -8.301,-0.473 -5.719,-10.297 0.574,-9.313"
                   style="fill:none;stroke:#000000;stroke-width:1.26872;stroke-linecap:round;stroke-linejoin:round;stroke-miterlimit:10;stroke-dasharray:none;stroke-opacity:1"
                   id="path1305" />
              </g>
              <g
                 id="g1307"
                 transform="matrix(1,0,0,-1,-83.956498,746.64263)">
                <path
                   d="m 384.984,-207.484 c -2.074,-7.078 -5,-17.637 1.133,-23.332 l 0.133,0.093"
                   style="fill:none;stroke:#000000;stroke-width:1.26872;stroke-linecap:round;stroke-linejoin:round;stroke-miterlimit:10;stroke-dasharray:none;stroke-opacity:1"
                   id="path1309" />
              </g>
              <g
                 id="g1311"
                 transform="matrix(1,0,0,-1,-83.956498,746.64263)">
                <path
                   d="m 383.625,-234.656 c -7.715,4.941 -19.754,2.277 -14.418,-6.688"
                   style="fill:none;stroke:#000000;stroke-width:1.26872;stroke-linecap:round;stroke-linejoin:round;stroke-miterlimit:10;stroke-dasharray:none;stroke-opacity:1"
                   id="path1313" />
              </g>
              <g
                 id="g1315"
                 transform="matrix(1,0,0,-1,-83.956498,746.64263)">
                <path
                   d="m 369.305,-241.465 c 5.238,1.051 10.828,2.324 14.523,6.52"
                   style="fill:none;stroke:#000000;stroke-width:1.26872;stroke-linecap:round;stroke-linejoin:round;stroke-miterlimit:10;stroke-dasharray:none;stroke-opacity:1"
                   id="path1317" />
              </g>
              <g
                 id="g1319"
                 transform="matrix(1,0,0,-1,-83.956498,746.64263)">
                <path
                   d="m 380.531,-239.352 c 2.301,-1.945 9.293,-6.671 8.867,-6.664"
                   style="fill:none;stroke:#000000;stroke-width:1.26872;stroke-linecap:round;stroke-linejoin:round;stroke-miterlimit:10;stroke-dasharray:none;stroke-opacity:1"
                   id="path1321" />
              </g>
              <g
                 id="g1323"
                 transform="matrix(1,0,0,-1,-83.956498,746.64263)">
                <path
                   d="m 379.773,-241.664 c 2.454,-2.324 5.114,-4.652 8.368,-5.758"
                   style="fill:none;stroke:#000000;stroke-width:1.26872;stroke-linecap:round;stroke-linejoin:round;stroke-miterlimit:10;stroke-dasharray:none;stroke-opacity:1"
                   id="path1325" />
              </g>
              <g
                 id="g1327"
                 transform="matrix(1,0,0,-1,-83.956498,746.64263)">
                <path
                   d="m 361.922,-240.98 c -2.586,9.57 -11.363,13.136 -18.953,6.48"
                   style="fill:none;stroke:#000000;stroke-width:1.26872;stroke-linecap:round;stroke-linejoin:round;stroke-miterlimit:10;stroke-dasharray:none;stroke-opacity:1"
                   id="path1329" />
              </g>
              <g
                 id="g1331"
                 transform="matrix(1,0,0,-1,-83.956498,746.64263)">
                <path
                   d="m 342.699,-235.094 c 5.469,-1.531 17.328,-10.105 19.223,-5.886 -0.945,3.367 -3.637,7.671 -7.031,9.023"
                   style="fill:none;stroke:#000000;stroke-width:1.26872;stroke-linecap:round;stroke-linejoin:round;stroke-miterlimit:10;stroke-dasharray:none;stroke-opacity:1"
                   id="path1333" />
              </g>
              <g
                 id="g1335"
                 transform="matrix(1,0,0,-1,-83.956498,746.64263)">
                <path
                   d="m 347.754,-242.582 c -0.07,0.309 -4.887,-8.086 -3.145,-5.391"
                   style="fill:none;stroke:#000000;stroke-width:1.26872;stroke-linecap:round;stroke-linejoin:round;stroke-miterlimit:10;stroke-dasharray:none;stroke-opacity:1"
                   id="path1337" />
              </g>
              <g
                 id="g1339"
                 transform="matrix(1,0,0,-1,-83.956498,746.64263)">
                <path
                   d="m 349.887,-242.16 c -0.606,-1.672 -1.672,-4.242 -2.52,-5.356"
                   style="fill:none;stroke:#000000;stroke-width:1.26872;stroke-linecap:round;stroke-linejoin:round;stroke-miterlimit:10;stroke-dasharray:none;stroke-opacity:1"
                   id="path1341" />
              </g>
              <g
                 id="g1343"
                 transform="matrix(1,0,0,-1,-83.956498,746.64263)">
                <path
                   d="m 333.863,-217.078 c 9.598,2.402 14.078,-13.465 3.981,-11.356 -2.598,3.368 -3.473,7.551 -3.981,11.356"
                   style="fill:none;stroke:#000000;stroke-width:1.26872;stroke-linecap:round;stroke-linejoin:round;stroke-miterlimit:10;stroke-dasharray:none;stroke-opacity:1"
                   id="path1345" />
              </g>
              <g
                 id="g1347"
                 transform="matrix(1,0,0,-1,-83.956498,746.64263)">
                <path
                   d="m 318.066,-221.152 c 4.942,-0.352 9.918,0.179 14.836,-0.59"
                   style="fill:none;stroke:#000000;stroke-width:1.26872;stroke-linecap:round;stroke-linejoin:round;stroke-miterlimit:10;stroke-dasharray:none;stroke-opacity:1"
                   id="path1349" />
              </g>
              <g
                 id="g1351"
                 transform="matrix(1,0,0,-1,-83.956498,746.64263)">
                <path
                   d="m 317.68,-223.094 c 4.875,0.047 9.711,-0.664 14.578,-0.816"
                   style="fill:none;stroke:#000000;stroke-width:1.26872;stroke-linecap:round;stroke-linejoin:round;stroke-miterlimit:10;stroke-dasharray:none;stroke-opacity:1"
                   id="path1353" />
              </g>
              <g
                 id="g1355"
                 transform="matrix(1,0,0,-1,-83.956498,746.64263)">
                <path
                   d="m 304.668,-273.387 c 5.766,-9.664 16.602,-14.789 25.93,-20.351 7.308,-3.481 15.179,-5.68 23.152,-6.996"
                   style="fill:none;stroke:#000000;stroke-width:1.26872;stroke-linecap:round;stroke-linejoin:round;stroke-miterlimit:10;stroke-dasharray:none;stroke-opacity:1"
                   id="path1357" />
              </g>
              <g
                 id="g1359"
                 transform="matrix(1,0,0,-1,-83.956498,746.64263)">
                <path
                   d="m 462.734,-196.578 c 11.317,-0.356 23.231,-4.11 30.219,-13.524 8.195,-7.687 7.113,-23.66 -4.519,-27.339 -12.684,-5.102 -26.793,-1.047 -39.055,3.39 -9.383,4.11 -19.613,11.77 -20.305,22.781 1.621,10.778 14.063,14.075 23.418,14.211 3.414,0.184 6.832,0.207 10.242,0.481 z"
                   style="fill:none;stroke:#000000;stroke-width:1.26872;stroke-linecap:round;stroke-linejoin:round;stroke-miterlimit:10;stroke-dasharray:none;stroke-opacity:1"
                   id="path1361" />
              </g>
              <g
                 id="g1363"
                 transform="matrix(1,0,0,-1,-83.956498,746.64263)">
                <path
                   d="m 466.07,-187.207 c 10.598,-1.813 21.106,-4.801 29.723,-11.504 11.473,-7.734 21.832,-20.074 20.82,-34.707 -4.574,-10.934 -18.16,-14.844 -29.047,-15.992 -19.199,-0.238 -39.324,4.113 -54.91,15.754 -9.035,7.504 -18.101,20.398 -11.34,32.258 4.766,10.039 15.996,16.015 26.821,16.488 7.59,-0.633 17.254,-1.512 23.019,-3.363"
                   style="fill:none;stroke:#000000;stroke-width:1.26872;stroke-linecap:round;stroke-linejoin:round;stroke-miterlimit:10;stroke-dasharray:none;stroke-opacity:1"
                   id="path1365" />
              </g>
              <g
                 id="g1367"
                 transform="matrix(1,0,0,-1,-83.956498,746.64263)">
                <path
                   d="m 357.812,-220.918 c -0.582,-10.223 10.911,2.074 -1.488,-0.574"
                   style="fill:none;stroke:#000000;stroke-width:1.26872;stroke-linecap:round;stroke-linejoin:round;stroke-miterlimit:10;stroke-dasharray:none;stroke-opacity:1"
                   id="path1369" />
              </g>
              <g
                 id="g1371"
                 transform="matrix(1,0,0,-1,-83.956498,746.64263)">
                <path
                   d="m 290.547,-254.395 c -3.524,-14 -3.402,-29.097 1.683,-42.765 5.098,-11.344 15.215,-21.02 27.106,-24.957 11.867,-2.453 24.332,-1.477 35.816,2.008 0.211,0.316 1.746,2.242 2.266,0.441"
                   style="fill:none;stroke:#000000;stroke-width:1.26872;stroke-linecap:round;stroke-linejoin:round;stroke-miterlimit:10;stroke-dasharray:none;stroke-opacity:1"
                   id="path1373" />
              </g>
              <g
                 id="g1375"
                 transform="matrix(1,0,0,-1,-83.956498,746.64263)">
                <path
                   d="m 357.418,-319.668 c -4.324,3.414 -7.117,9.594 -10.809,12.68"
                   style="fill:none;stroke:#000000;stroke-width:1.26872;stroke-linecap:round;stroke-linejoin:round;stroke-miterlimit:10;stroke-dasharray:none;stroke-opacity:1"
                   id="path1377" />
              </g>
              <g
                 id="g1379"
                 transform="matrix(1,0,0,-1,-83.956498,746.64263)">
                <path
                   d="m 346.609,-306.988 c -12.972,0.152 -27.347,-3.352 -40.293,-1.828 -11.457,1.882 -16.964,13.207 -18.136,23.695 -0.364,9.23 -2.535,20.32 3.023,28.34"
                   style="fill:none;stroke:#000000;stroke-width:1.26872;stroke-linecap:round;stroke-linejoin:round;stroke-miterlimit:10;stroke-dasharray:none;stroke-opacity:1"
                   id="path1381" />
              </g>
              <g
                 id="g1383"
                 transform="matrix(1,0,0,-1,-83.956498,746.64263)">
                <path
                   d="m 297,-259.48 c -3.137,-9.508 -3.625,-14.946 -3.273,-25.032 0.324,-6.023 0.378,-22.215 8.593,-23.187"
                   style="fill:none;stroke:#000000;stroke-width:1.26872;stroke-linecap:round;stroke-linejoin:round;stroke-miterlimit:10;stroke-dasharray:none;stroke-opacity:1"
                   id="path1385" />
              </g>
              <g
                 id="g1387"
                 transform="matrix(1,0,0,-1,-83.956498,746.64263)">
                <path
                   d="m 308.363,-313.152 c 0.559,0.062 1.16,-0.387 1.657,0.09"
                   style="fill:none;stroke:#000000;stroke-width:1.26872;stroke-linecap:round;stroke-linejoin:round;stroke-miterlimit:10;stroke-dasharray:none;stroke-opacity:1"
                   id="path1389" />
              </g>
              <g
                 id="g1391"
                 transform="matrix(1,0,0,-1,-83.956498,746.64263)">
                <path
                   d="m 316.512,-312.902 c 0.543,0.027 2.687,0.281 3.215,0.375"
                   style="fill:none;stroke:#000000;stroke-width:1.26872;stroke-linecap:round;stroke-linejoin:round;stroke-miterlimit:10;stroke-dasharray:none;stroke-opacity:1"
                   id="path1393" />
              </g>
              <g
                 id="g1395"
                 transform="matrix(1,0,0,-1,-83.956498,746.64263)">
                <path
                   d="m 327.793,-311.66 c 0.465,0.058 2.332,0.301 2.801,0.363"
                   style="fill:none;stroke:#000000;stroke-width:1.26872;stroke-linecap:round;stroke-linejoin:round;stroke-miterlimit:10;stroke-dasharray:none;stroke-opacity:1"
                   id="path1397" />
              </g>
              <g
                 id="g1399"
                 transform="matrix(1,0,0,-1,-83.956498,746.64263)">
                <path
                   d="m 339.066,-311.52 c -1.636,1.223 3.266,0.051 2.387,0.625"
                   style="fill:none;stroke:#000000;stroke-width:1.26872;stroke-linecap:round;stroke-linejoin:round;stroke-miterlimit:10;stroke-dasharray:none;stroke-opacity:1"
                   id="path1401" />
              </g>
              <g
                 id="g1403"
                 transform="matrix(1,0,0,-1,-83.956498,746.64263)">
                <path
                   d="m 344.715,-310.227 c -0.078,0.571 0.781,-0.039 0.879,0.106"
                   style="fill:none;stroke:#000000;stroke-width:1.26872;stroke-linecap:round;stroke-linejoin:round;stroke-miterlimit:10;stroke-dasharray:none;stroke-opacity:1"
                   id="path1405" />
              </g>
              <g
                 id="g1407"
                 transform="matrix(1,0,0,-1,-83.956498,746.64263)">
                <path
                   d="m 315.629,-320.293 c 0.32,0.031 1.746,0.234 2.144,0.305"
                   style="fill:none;stroke:#000000;stroke-width:1.26872;stroke-linecap:round;stroke-linejoin:round;stroke-miterlimit:10;stroke-dasharray:none;stroke-opacity:1"
                   id="path1409" />
              </g>
              <g
                 id="g1411"
                 transform="matrix(1,0,0,-1,-83.956498,746.64263)">
                <path
                   d="m 321.926,-320.816 c 0.597,-0.032 2.566,0.058 2.953,0.132"
                   style="fill:none;stroke:#000000;stroke-width:1.26872;stroke-linecap:round;stroke-linejoin:round;stroke-miterlimit:10;stroke-dasharray:none;stroke-opacity:1"
                   id="path1413" />
              </g>
              <g
                 id="g1415"
                 transform="matrix(1,0,0,-1,-83.956498,746.64263)">
                <path
                   d="m 331.074,-321.02 c 0.504,0.055 2.324,0.309 2.735,0.383"
                   style="fill:none;stroke:#000000;stroke-width:1.26872;stroke-linecap:round;stroke-linejoin:round;stroke-miterlimit:10;stroke-dasharray:none;stroke-opacity:1"
                   id="path1417" />
              </g>
              <g
                 id="g1419"
                 transform="matrix(1,0,0,-1,-83.956498,746.64263)">
                <path
                   d="m 338.91,-320.738 c 0.438,0.023 1.988,0.3 2.324,0.414"
                   style="fill:none;stroke:#000000;stroke-width:1.26872;stroke-linecap:round;stroke-linejoin:round;stroke-miterlimit:10;stroke-dasharray:none;stroke-opacity:1"
                   id="path1421" />
              </g>
              <g
                 id="g1423"
                 transform="matrix(1,0,0,-1,-83.956498,746.64263)">
                <path
                   d="m 348.043,-319.438 c 0.457,0.047 2.387,0.18 2.895,0.2"
                   style="fill:none;stroke:#000000;stroke-width:1.26872;stroke-linecap:round;stroke-linejoin:round;stroke-miterlimit:10;stroke-dasharray:none;stroke-opacity:1"
                   id="path1425" />
              </g>
              <g
                 id="g1427"
                 transform="matrix(1,0,0,-1,-83.956498,746.64263)">
                <path
                   d="m 455.969,-176.723 c -28.09,-0.593 -61.426,-8.523 -60.657,-37.91 4.993,-30.976 42.317,-45.289 70.258,-49.144 24.317,-4.75 58.278,1.703 65.106,29.39 6.523,27.317 -22.067,42.071 -43.485,48.844 -8.816,3.082 -17.769,7.797 -31.222,8.82 z"
                   style="fill:none;stroke:#000000;stroke-width:1.26872;stroke-linecap:round;stroke-linejoin:round;stroke-miterlimit:10;stroke-dasharray:none;stroke-opacity:1"
                   id="path1429" />
              </g>
            </g>
          </g>
        </g>
      </g>
    </g>
  </g>
</svg>
