<?xml version="1.0" encoding="UTF-8" standalone="no"?>
<!-- Created by Ashley Blewer - This work is licensed under a Creative Commons Attribution 4.0 International License -->

<svg
   width="544"
   height="480"
   viewBox="0 0 143.93334 127"
   version="1.1"
   id="svg2490"
   inkscape:version="1.2.2 (1:1.2.2+202212051552+b0a8486541)"
   sodipodi:docname="1926-movietone-3.svg"
   xmlns:inkscape="http://www.inkscape.org/namespaces/inkscape"
   xmlns:sodipodi="http://sodipodi.sourceforge.net/DTD/sodipodi-0.dtd"
   xmlns="http://www.w3.org/2000/svg"
   xmlns:svg="http://www.w3.org/2000/svg">
  <sodipodi:namedview
     id="namedview2492"
     pagecolor="#ffffff"
     bordercolor="#666666"
     borderopacity="1.0"
     inkscape:pageshadow="2"
     inkscape:pageopacity="0.0"
     inkscape:pagecheckerboard="0"
     inkscape:document-units="mm"
     showgrid="false"
     units="px"
     inkscape:zoom="0.90583674"
     inkscape:cx="336.15329"
     inkscape:cy="254.46086"
     inkscape:window-width="1846"
     inkscape:window-height="1136"
     inkscape:window-x="0"
     inkscape:window-y="0"
     inkscape:window-maximized="1"
     inkscape:current-layer="g6395"
     inkscape:showpageshadow="2"
     inkscape:deskcolor="#d1d1d1" />
  <defs
     id="defs2487" />
  <g
     inkscape:label="Layer 1"
     inkscape:groupmode="layer"
     id="layer1">
    <g
       id="g4731"
       transform="matrix(0.32961229,0,0,0.32903008,-241.78905,1.73126)"
       style="stroke-width:2.68698">
      <g
         id="g104528"
         transform="matrix(1,0,0,-1,0,792)"
         style="stroke-width:2.68698">
        <g
           id="g104530"
           style="stroke-width:2.68698" />
      </g>
      <g
         id="g104996"
         transform="matrix(1,0,0,-1,0,792)"
         style="stroke-width:2.68698">
        <g
           id="g104998"
           style="stroke-width:2.68698" />
      </g>
      <g
         id="g28852"
         transform="matrix(1.070281,0,0,1.0721748,779.91249,-443.13657)">
        <g
           id="g6718"
           transform="matrix(1.117886,0,0,1.117886,-549.13111,-491.62865)">
          <g
             id="g6395"
             transform="matrix(0.53415107,0,0,0.53415109,441.93669,415.26868)">
            <g
               id="g10662"
               transform="matrix(2.8479018,0,0,2.8479018,-1982.341,-2566.6455)">
              <g
                 id="g1232"
                 transform="matrix(1,0,0,-1,-144.26174,699.66957)">
                <path
                   d="m 874.867,-510.102 c -0.805,-7.32 1.215,-14.558 0.867,-21.878"
                   style="fill:none;stroke:#000000;stroke-width:2.61674;stroke-linecap:round;stroke-linejoin:round;stroke-miterlimit:10;stroke-dasharray:none;stroke-opacity:1"
                   id="path1234" />
              </g>
              <g
                 id="g1236"
                 transform="matrix(1,0,0,-1,-144.26174,699.66957)">
                <path
                   d="m 876.227,-534.629 c 22.918,-27.363 61.918,-38.266 96.789,-37.062 31.351,-0.125 63.152,11.57 85.207,33.836"
                   style="fill:none;stroke:#000000;stroke-width:2.61674;stroke-linecap:round;stroke-linejoin:round;stroke-miterlimit:10;stroke-dasharray:none;stroke-opacity:1"
                   id="path1238" />
              </g>
              <g
                 id="g1240"
                 transform="matrix(1,0,0,-1,-144.26174,699.66957)">
                <path
                   d="m 1059.969,-537.188 c 1.301,8.922 -1.739,18.946 -2.094,27.958"
                   style="fill:none;stroke:#000000;stroke-width:2.61674;stroke-linecap:round;stroke-linejoin:round;stroke-miterlimit:10;stroke-dasharray:none;stroke-opacity:1"
                   id="path1242" />
              </g>
              <g
                 id="g1244"
                 transform="matrix(1,0,0,-1,-144.26174,699.66957)">
                <path
                   d="m 873.883,-510.23 c 22.406,39.972 72.984,42.625 113.504,38.953 26.402,-2.676 63.144,-10.457 70.902,-39.957"
                   style="fill:none;stroke:#000000;stroke-width:2.61674;stroke-linecap:round;stroke-linejoin:round;stroke-miterlimit:10;stroke-dasharray:none;stroke-opacity:1"
                   id="path1246" />
              </g>
              <g
                 id="g1248"
                 transform="matrix(1,0,0,-1,-144.26174,699.66957)">
                <path
                   d="m 873.879,-510.777 c 17.414,-38.356 67.437,-38.953 103.828,-40.539 29.535,0.246 67.91,6.179 80.516,37.203 l 0.066,2.879 -0.414,2.004"
                   style="fill:none;stroke:#000000;stroke-width:2.61674;stroke-linecap:round;stroke-linejoin:round;stroke-miterlimit:10;stroke-dasharray:none;stroke-opacity:1"
                   id="path1250" />
              </g>
              <g
                 id="g1252"
                 transform="matrix(1,0,0,-1,-144.26174,699.66957)">
                <path
                   d="m 875.734,-531.98 c 0.235,-5.461 -0.25,-19.008 0.364,-24.43"
                   style="fill:none;stroke:#000000;stroke-width:2.61674;stroke-linecap:round;stroke-linejoin:round;stroke-miterlimit:10;stroke-dasharray:none;stroke-opacity:1"
                   id="path1254" />
              </g>
              <g
                 id="g1256"
                 transform="matrix(1,0,0,-1,-144.26174,699.66957)">
                <path
                   d="m 875.062,-554.512 c 2.04,-19.965 0.028,-41.875 2.376,-61.836"
                   style="fill:none;stroke:#000000;stroke-width:2.61674;stroke-linecap:round;stroke-linejoin:round;stroke-miterlimit:10;stroke-dasharray:none;stroke-opacity:1"
                   id="path1258" />
              </g>
              <g
                 id="g1260"
                 transform="matrix(1,0,0,-1,-144.26174,699.66957)">
                <path
                   d="m 1060.359,-538.156 c 1.637,-26.723 -7.054,-50.891 -4.441,-77.617"
                   style="fill:none;stroke:#000000;stroke-width:2.61674;stroke-linecap:round;stroke-linejoin:round;stroke-miterlimit:10;stroke-dasharray:none;stroke-opacity:1"
                   id="path1262" />
              </g>
              <g
                 id="g1264"
                 transform="matrix(1,0,0,-1,-144.26174,699.66957)">
                <path
                   d="m 877.438,-616.348 c 9.453,-30.14 41.535,-43.968 70.89,-46.082 32.746,-2.937 68.324,3.153 92.844,26.653 6.359,5.273 12.848,11.652 14.746,20.004"
                   style="fill:none;stroke:#000000;stroke-width:2.61674;stroke-linecap:round;stroke-linejoin:round;stroke-miterlimit:10;stroke-dasharray:none;stroke-opacity:1"
                   id="path1266" />
              </g>
              <g
                 id="g1268"
                 transform="matrix(1,0,0,-1,-144.26174,699.66957)">
                <path
                   d="m 876.098,-556.41 c 18.754,-29.258 55.273,-40.582 88.582,-38.008 32.812,-1.723 73.804,4.414 92.347,34.664 l 1.911,5.117"
                   style="fill:none;stroke:#000000;stroke-width:2.61674;stroke-linecap:round;stroke-linejoin:round;stroke-miterlimit:10;stroke-dasharray:none;stroke-opacity:1"
                   id="path1270" />
              </g>
              <g
                 id="g1272"
                 transform="matrix(1,0,0,-1,-144.26174,699.66957)">
                <path
                   d="m 876.871,-590.934 c 10.762,-31.464 48.274,-39.734 76.957,-46.636 36.738,-4.145 81.027,2.761 101.832,37.054"
                   style="fill:none;stroke:#000000;stroke-width:2.61674;stroke-linecap:round;stroke-linejoin:round;stroke-miterlimit:10;stroke-dasharray:none;stroke-opacity:1"
                   id="path1274" />
              </g>
              <g
                 id="g1276"
                 transform="matrix(1,0,0,-1,-144.26174,699.66957)">
                <path
                   d="m 876.484,-580.738 c 18.844,-36.485 68.618,-37.586 104.856,-39.789 26.719,-0.211 59.687,10.254 74.379,31.953"
                   style="fill:none;stroke:#000000;stroke-width:2.61674;stroke-linecap:round;stroke-linejoin:round;stroke-miterlimit:10;stroke-dasharray:none;stroke-opacity:1"
                   id="path1278" />
              </g>
              <g
                 id="g1280"
                 transform="matrix(1,0,0,-1,-144.26174,699.66957)">
                <path
                   d="m 878.789,-528.789 c 6.332,-5.473 13.047,-10.938 21.066,-13.723"
                   style="fill:none;stroke:#000000;stroke-width:1.26872;stroke-linecap:round;stroke-linejoin:round;stroke-miterlimit:10;stroke-dasharray:none;stroke-opacity:1"
                   id="path1282" />
              </g>
              <g
                 id="g1284"
                 transform="matrix(1,0,0,-1,-144.26174,699.66957)">
                <path
                   d="m 883.34,-537.664 c 1.398,-0.973 7.394,-4.348 8.992,-5.063"
                   style="fill:none;stroke:#000000;stroke-width:1.26872;stroke-linecap:round;stroke-linejoin:round;stroke-miterlimit:10;stroke-dasharray:none;stroke-opacity:1"
                   id="path1286" />
              </g>
              <g
                 id="g1288"
                 transform="matrix(1,0,0,-1,-144.26174,699.66957)">
                <path
                   d="m 885.324,-553.391 c 24.692,-17.171 53.004,-31.398 84.067,-27.734 28.492,0.012 58.597,6.719 80.64,25.254"
                   style="fill:none;stroke:#000000;stroke-width:1.26872;stroke-linecap:round;stroke-linejoin:round;stroke-miterlimit:10;stroke-dasharray:none;stroke-opacity:1"
                   id="path1290" />
              </g>
              <g
                 id="g1292"
                 transform="matrix(1,0,0,-1,-144.26174,699.66957)">
                <path
                   d="m 877.723,-571.719 c 44.925,-36.461 114.195,-45.957 164.648,-15.469 l 3.309,4.86 2.32,3.488"
                   style="fill:none;stroke:#000000;stroke-width:1.26872;stroke-linecap:round;stroke-linejoin:round;stroke-miterlimit:10;stroke-dasharray:none;stroke-opacity:1"
                   id="path1294" />
              </g>
              <g
                 id="g1296"
                 transform="matrix(1,0,0,-1,-144.26174,699.66957)">
                <path
                   d="m 879.078,-579.672 c 4.406,-6.453 10.641,-11.555 17.465,-15.273"
                   style="fill:none;stroke:#000000;stroke-width:1.26872;stroke-linecap:round;stroke-linejoin:round;stroke-miterlimit:10;stroke-dasharray:none;stroke-opacity:1"
                   id="path1298" />
              </g>
              <g
                 id="g1300"
                 transform="matrix(1,0,0,-1,-144.26174,699.66957)">
                <path
                   d="m 880.062,-608.406 c 26.825,-40.024 82.028,-45.231 125.047,-33.535 16.371,4.859 33.508,11.418 44.469,25.211"
                   style="fill:none;stroke:#000000;stroke-width:1.26872;stroke-linecap:round;stroke-linejoin:round;stroke-miterlimit:10;stroke-dasharray:none;stroke-opacity:1"
                   id="path1302" />
              </g>
              <g
                 id="g1304"
                 transform="matrix(1,0,0,-1,-144.26174,699.66957)">
                <path
                   d="m 882.926,-619.32 c 3.597,-6.985 9.883,-12.934 17.386,-15.473"
                   style="fill:none;stroke:#000000;stroke-width:1.26872;stroke-linecap:round;stroke-linejoin:round;stroke-miterlimit:10;stroke-dasharray:none;stroke-opacity:1"
                   id="path1306" />
              </g>
              <g
                 id="g1308"
                 transform="matrix(1,0,0,-1,-144.26174,699.66957)">
                <path
                   d="m 888.77,-498.66 c -2.563,-7.035 -3.563,-15.442 0.421,-22.199"
                   style="fill:none;stroke:#000000;stroke-width:1.26872;stroke-linecap:round;stroke-linejoin:round;stroke-miterlimit:10;stroke-dasharray:none;stroke-opacity:1"
                   id="path1310" />
              </g>
              <g
                 id="g1312"
                 transform="matrix(1,0,0,-1,-144.26174,699.66957)">
                <path
                   d="m 895.074,-525.559 c 10.469,-8.988 27.156,-16.867 38.235,-17.945"
                   style="fill:none;stroke:#000000;stroke-width:1.26872;stroke-linecap:round;stroke-linejoin:round;stroke-miterlimit:10;stroke-dasharray:none;stroke-opacity:1"
                   id="path1314" />
              </g>
              <g
                 id="g1316"
                 transform="matrix(1,0,0,-1,-144.26174,699.66957)">
                <path
                   d="m 959.129,-536.836 c -10.18,0.555 -20.281,2.352 -30.094,5.094"
                   style="fill:none;stroke:#000000;stroke-width:1.26872;stroke-linecap:round;stroke-linejoin:round;stroke-miterlimit:10;stroke-dasharray:none;stroke-opacity:1"
                   id="path1318" />
              </g>
              <g
                 id="g1320"
                 transform="matrix(1,0,0,-1,-144.26174,699.66957)">
                <path
                   d="m 915.211,-527.383 c -8.816,5.598 -18.734,15.371 -14.77,26.895"
                   style="fill:none;stroke:#000000;stroke-width:1.26872;stroke-linecap:round;stroke-linejoin:round;stroke-miterlimit:10;stroke-dasharray:none;stroke-opacity:1"
                   id="path1322" />
              </g>
              <g
                 id="g1324"
                 transform="matrix(1,0,0,-1,-144.26174,699.66957)">
                <path
                   d="m 909,-491.496 c 1.379,1.273 7.617,5.801 9.355,6.793"
                   style="fill:none;stroke:#000000;stroke-width:1.26872;stroke-linecap:round;stroke-linejoin:round;stroke-miterlimit:10;stroke-dasharray:none;stroke-opacity:1"
                   id="path1326" />
              </g>
              <g
                 id="g1328"
                 transform="matrix(1,0,0,-1,-144.26174,699.66957)">
                <path
                   d="m 936.539,-487.668 c -33.187,-10.715 -9.898,-42.914 16.738,-41.133"
                   style="fill:none;stroke:#000000;stroke-width:1.26872;stroke-linecap:round;stroke-linejoin:round;stroke-miterlimit:10;stroke-dasharray:none;stroke-opacity:1"
                   id="path1330" />
              </g>
              <g
                 id="g1332"
                 transform="matrix(1,0,0,-1,-144.26174,699.66957)">
                <path
                   d="m 1002.855,-524.395 c 4.547,-0.218 7.477,4.481 10.762,6.622"
                   style="fill:none;stroke:#000000;stroke-width:1.26872;stroke-linecap:round;stroke-linejoin:round;stroke-miterlimit:10;stroke-dasharray:none;stroke-opacity:1"
                   id="path1334" />
              </g>
              <g
                 id="g1336"
                 transform="matrix(1,0,0,-1,-144.26174,699.66957)">
                <path
                   d="m 1013.816,-507.582 c -0.613,1.824 -4.109,8.707 -5.242,10.324"
                   style="fill:none;stroke:#000000;stroke-width:1.26872;stroke-linecap:round;stroke-linejoin:round;stroke-miterlimit:10;stroke-dasharray:none;stroke-opacity:1"
                   id="path1338" />
              </g>
              <g
                 id="g1340"
                 transform="matrix(1,0,0,-1,-144.26174,699.66957)">
                <path
                   d="m 997.691,-493.336 c -7.824,3.5 -16.324,5.777 -24.898,6.234"
                   style="fill:none;stroke:#000000;stroke-width:1.26872;stroke-linecap:round;stroke-linejoin:round;stroke-miterlimit:10;stroke-dasharray:none;stroke-opacity:1"
                   id="path1342" />
              </g>
              <g
                 id="g1344"
                 transform="matrix(1,0,0,-1,-144.26174,699.66957)">
                <path
                   d="m 969.453,-478.387 c 16.883,1.153 38.645,-2.488 51.395,-7.929"
                   style="fill:none;stroke:#000000;stroke-width:1.26872;stroke-linecap:round;stroke-linejoin:round;stroke-miterlimit:10;stroke-dasharray:none;stroke-opacity:1"
                   id="path1346" />
              </g>
              <g
                 id="g1348"
                 transform="matrix(1,0,0,-1,-144.26174,699.66957)">
                <path
                   d="m 1030.512,-491.598 c 6.015,-2.918 12.199,-12.613 11.492,-17.558"
                   style="fill:none;stroke:#000000;stroke-width:1.26872;stroke-linecap:round;stroke-linejoin:round;stroke-miterlimit:10;stroke-dasharray:none;stroke-opacity:1"
                   id="path1350" />
              </g>
              <g
                 id="g1352"
                 transform="matrix(1,0,0,-1,-144.26174,699.66957)">
                <path
                   d="m 1036.207,-520.57 c -4.477,-6.168 -10.738,-12.242 -18.562,-13.551"
                   style="fill:none;stroke:#000000;stroke-width:1.26872;stroke-linecap:round;stroke-linejoin:round;stroke-miterlimit:10;stroke-dasharray:none;stroke-opacity:1"
                   id="path1354" />
              </g>
              <g
                 id="g1356"
                 transform="matrix(1,0,0,-1,-144.26174,699.66957)">
                <path
                   d="m 1002.922,-535.844 c -10,-1.738 -19.957,-5.898 -30.266,-4.187"
                   style="fill:none;stroke:#000000;stroke-width:1.26872;stroke-linecap:round;stroke-linejoin:round;stroke-miterlimit:10;stroke-dasharray:none;stroke-opacity:1"
                   id="path1358" />
              </g>
              <g
                 id="g1360"
                 transform="matrix(1,0,0,-1,-144.26174,699.66957)">
                <path
                   d="m 1023.523,-517.633 c 1.942,4.43 6.188,9.731 3.641,14.746"
                   style="fill:none;stroke:#000000;stroke-width:1.26872;stroke-linecap:round;stroke-linejoin:round;stroke-miterlimit:10;stroke-dasharray:none;stroke-opacity:1"
                   id="path1362" />
              </g>
              <g
                 id="g1364"
                 transform="matrix(1,0,0,-1,-144.26174,699.66957)">
                <path
                   d="m 1021.891,-499.219 c -4.422,5.317 -10.239,9.641 -16.774,11.977"
                   style="fill:none;stroke:#000000;stroke-width:1.26872;stroke-linecap:round;stroke-linejoin:round;stroke-miterlimit:10;stroke-dasharray:none;stroke-opacity:1"
                   id="path1366" />
              </g>
              <g
                 id="g1368"
                 transform="matrix(1,0,0,-1,-144.26174,699.66957)">
                <path
                   d="m 993.02,-484.691 c -5.012,1.945 -10.473,1.66 -15.633,2.925"
                   style="fill:none;stroke:#000000;stroke-width:1.26872;stroke-linecap:round;stroke-linejoin:round;stroke-miterlimit:10;stroke-dasharray:none;stroke-opacity:1"
                   id="path1370" />
              </g>
              <g
                 id="g1372"
                 transform="matrix(1,0,0,-1,-144.26174,699.66957)">
                <path
                   d="m 928.16,-481.836 c 5.793,1.859 11.77,4.024 17.942,3.84"
                   style="fill:none;stroke:#000000;stroke-width:1.26872;stroke-linecap:round;stroke-linejoin:round;stroke-miterlimit:10;stroke-dasharray:none;stroke-opacity:1"
                   id="path1374" />
              </g>
            </g>
          </g>
        </g>
      </g>
    </g>
  </g>
</svg>
