<?xml version="1.0" encoding="UTF-8" standalone="no"?>
<!-- Created by Ashley Blewer - This work is licensed under a Creative Commons Attribution 4.0 International License -->

<svg
   width="544"
   height="480"
   viewBox="0 0 143.93334 127"
   version="1.1"
   id="svg2490"
   inkscape:version="1.2.2 (1:1.2.2+202212051552+b0a8486541)"
   sodipodi:docname="1929-hypergonar-2.svg"
   xmlns:inkscape="http://www.inkscape.org/namespaces/inkscape"
   xmlns:sodipodi="http://sodipodi.sourceforge.net/DTD/sodipodi-0.dtd"
   xmlns="http://www.w3.org/2000/svg"
   xmlns:svg="http://www.w3.org/2000/svg">
  <sodipodi:namedview
     id="namedview2492"
     pagecolor="#ffffff"
     bordercolor="#666666"
     borderopacity="1.0"
     inkscape:pageshadow="2"
     inkscape:pageopacity="0.0"
     inkscape:pagecheckerboard="0"
     inkscape:document-units="mm"
     showgrid="false"
     units="px"
     inkscape:zoom="0.90583674"
     inkscape:cx="336.15329"
     inkscape:cy="254.46086"
     inkscape:window-width="1846"
     inkscape:window-height="1136"
     inkscape:window-x="0"
     inkscape:window-y="0"
     inkscape:window-maximized="1"
     inkscape:current-layer="g6395"
     inkscape:showpageshadow="2"
     inkscape:deskcolor="#d1d1d1" />
  <defs
     id="defs2487" />
  <g
     inkscape:label="Layer 1"
     inkscape:groupmode="layer"
     id="layer1">
    <g
       id="g4731"
       transform="matrix(0.32961229,0,0,0.32903008,-241.78905,1.73126)"
       style="stroke-width:2.68698">
      <g
         id="g104528"
         transform="matrix(1,0,0,-1,0,792)"
         style="stroke-width:2.68698">
        <g
           id="g104530"
           style="stroke-width:2.68698" />
      </g>
      <g
         id="g104996"
         transform="matrix(1,0,0,-1,0,792)"
         style="stroke-width:2.68698">
        <g
           id="g104998"
           style="stroke-width:2.68698" />
      </g>
      <g
         id="g28852"
         transform="matrix(1.070281,0,0,1.0721748,779.91249,-443.13657)">
        <g
           id="g6718"
           transform="matrix(1.117886,0,0,1.117886,-549.13111,-491.62865)">
          <g
             id="g6395"
             transform="matrix(0.53415107,0,0,0.53415109,441.93669,415.26868)">
            <g
               id="g9704"
               transform="matrix(2.4829226,0,0,2.4829226,-1835.1212,-2542.3674)">
              <g
                 id="g1770"
                 transform="matrix(1,0,0,-1,-23.261467,883.80466)">
                <path
                   d="m 811.34,-466.527 c -1.524,1.906 -3.578,-0.535 -4.699,-2.426"
                   style="fill:none;stroke:#000000;stroke-width:2.61674;stroke-linecap:round;stroke-linejoin:round;stroke-miterlimit:10;stroke-dasharray:none;stroke-opacity:1"
                   id="path1772" />
              </g>
              <g
                 id="g1774"
                 transform="matrix(1,0,0,-1,-23.261467,883.80466)">
                <path
                   d="m 809.121,-467.594 c 0.449,0.211 -0.59,-1.57 -1.812,-1.668"
                   style="fill:none;stroke:#000000;stroke-width:2.61674;stroke-linecap:round;stroke-linejoin:round;stroke-miterlimit:10;stroke-dasharray:none;stroke-opacity:1"
                   id="path1776" />
              </g>
              <g
                 id="g1778"
                 transform="matrix(1,0,0,-1,-23.261467,883.80466)">
                <path
                   d="m 808.184,-466.051 c -4.223,0.813 -10.227,-0.402 -14.524,-0.226"
                   style="fill:none;stroke:#000000;stroke-width:2.61674;stroke-linecap:round;stroke-linejoin:round;stroke-miterlimit:10;stroke-dasharray:none;stroke-opacity:1"
                   id="path1780" />
              </g>
              <g
                 id="g1782"
                 transform="matrix(1,0,0,-1,-23.261467,883.80466)">
                <path
                   d="m 793.66,-466.277 c -3.371,-7.852 -4.211,-19.594 0.828,-27.411"
                   style="fill:none;stroke:#000000;stroke-width:2.61674;stroke-linecap:round;stroke-linejoin:round;stroke-miterlimit:10;stroke-dasharray:none;stroke-opacity:1"
                   id="path1784" />
              </g>
              <g
                 id="g1786"
                 transform="matrix(1,0,0,-1,-23.261467,883.80466)">
                <path
                   d="m 794.367,-477.758 c 17.242,7.547 37.641,18.266 55.067,25.594 l -0.348,-0.145"
                   style="fill:none;stroke:#000000;stroke-width:2.61674;stroke-linecap:round;stroke-linejoin:round;stroke-miterlimit:10;stroke-dasharray:none;stroke-opacity:1"
                   id="path1788" />
              </g>
              <g
                 id="g1790"
                 transform="matrix(1,0,0,-1,-23.261467,883.80466)">
                <path
                   d="m 794.359,-479.117 c 9.571,-58.672 7.09,-118.457 14.594,-177.344"
                   style="fill:none;stroke:#000000;stroke-width:2.61674;stroke-linecap:round;stroke-linejoin:round;stroke-miterlimit:10;stroke-dasharray:none;stroke-opacity:1"
                   id="path1792" />
              </g>
              <g
                 id="g1794"
                 transform="matrix(1,0,0,-1,-23.261467,883.80466)">
                <path
                   d="m 847.832,-451.062 c 1.543,-0.372 -1.957,1.464 -2.75,1.195"
                   style="fill:none;stroke:#000000;stroke-width:2.61674;stroke-linecap:round;stroke-linejoin:round;stroke-miterlimit:10;stroke-dasharray:none;stroke-opacity:1"
                   id="path1796" />
              </g>
              <g
                 id="g1798"
                 transform="matrix(1,0,0,-1,-23.261467,883.80466)">
                <path
                   d="m 844.957,-449.367 c -0.066,0.144 3.801,3.004 3.691,4.113"
                   style="fill:none;stroke:#000000;stroke-width:2.61674;stroke-linecap:round;stroke-linejoin:round;stroke-miterlimit:10;stroke-dasharray:none;stroke-opacity:1"
                   id="path1800" />
              </g>
              <g
                 id="g1802"
                 transform="matrix(1,0,0,-1,-23.261467,883.80466)">
                <path
                   d="m 849.902,-445.793 c 53.578,5.301 106.993,-0.105 160.719,-0.777"
                   style="fill:none;stroke:#000000;stroke-width:2.61674;stroke-linecap:round;stroke-linejoin:round;stroke-miterlimit:10;stroke-dasharray:none;stroke-opacity:1"
                   id="path1804" />
              </g>
              <g
                 id="g1806"
                 transform="matrix(1,0,0,-1,-23.261467,883.80466)">
                <path
                   d="m 848.965,-451.535 c 52.64,5.555 105.652,3.387 158.476,3.914"
                   style="fill:none;stroke:#000000;stroke-width:2.61674;stroke-linecap:round;stroke-linejoin:round;stroke-miterlimit:10;stroke-dasharray:none;stroke-opacity:1"
                   id="path1808" />
              </g>
              <g
                 id="g1810"
                 transform="matrix(1,0,0,-1,-23.261467,883.80466)">
                <path
                   d="m 1010.621,-446.57 c -3.269,-0.547 -40.488,-28.723 -41.953,-30.184"
                   style="fill:none;stroke:#000000;stroke-width:2.61674;stroke-linecap:round;stroke-linejoin:round;stroke-miterlimit:10;stroke-dasharray:none;stroke-opacity:1"
                   id="path1812" />
              </g>
              <g
                 id="g1814"
                 transform="matrix(1,0,0,-1,-23.261467,883.80466)">
                <path
                   d="m 1011.473,-444.598 c 3.269,-0.972 4.941,-13.101 2.836,-12.832"
                   style="fill:none;stroke:#000000;stroke-width:2.61674;stroke-linecap:round;stroke-linejoin:round;stroke-miterlimit:10;stroke-dasharray:none;stroke-opacity:1"
                   id="path1816" />
              </g>
              <g
                 id="g1818"
                 transform="matrix(1,0,0,-1,-23.261467,883.80466)">
                <path
                   d="m 1010.621,-446.57 c 4.172,-11.071 3.789,-26.965 6.82,-39.789 3.797,-40.133 0.965,-81.774 2.684,-121.516 0.426,-1.52 0.711,-3.379 0.348,-4.379"
                   style="fill:none;stroke:#000000;stroke-width:2.61674;stroke-linecap:round;stroke-linejoin:round;stroke-miterlimit:10;stroke-dasharray:none;stroke-opacity:1"
                   id="path1820" />
              </g>
              <g
                 id="g1822"
                 transform="matrix(1,0,0,-1,-23.261467,883.80466)">
                <path
                   d="m 1020.473,-612.254 c -11.918,-18.371 -31.09,-32.215 -46.446,-47.453"
                   style="fill:none;stroke:#000000;stroke-width:2.61674;stroke-linecap:round;stroke-linejoin:round;stroke-miterlimit:10;stroke-dasharray:none;stroke-opacity:1"
                   id="path1824" />
              </g>
              <g
                 id="g1826"
                 transform="matrix(1,0,0,-1,-23.261467,883.80466)">
                <path
                   d="m 810.062,-657.598 c 54.586,-2.558 109.399,-8.078 163.965,-2.109"
                   style="fill:none;stroke:#000000;stroke-width:2.61674;stroke-linecap:round;stroke-linejoin:round;stroke-miterlimit:10;stroke-dasharray:none;stroke-opacity:1"
                   id="path1828" />
              </g>
              <g
                 id="g1830"
                 transform="matrix(1,0,0,-1,-23.261467,883.80466)">
                <path
                   d="m 821.398,-658.145 c 9.129,-4.828 19.672,-7.136 31.254,-7.578 0,0 87.188,-6.668 100.61,4.707"
                   style="fill:none;stroke:#000000;stroke-width:2.61674;stroke-linecap:round;stroke-linejoin:round;stroke-miterlimit:10;stroke-dasharray:none;stroke-opacity:1"
                   id="path1832" />
              </g>
              <g
                 id="g1834"
                 transform="matrix(1,0,0,-1,-23.261467,883.80466)">
                <path
                   d="m 968.668,-476.754 c -0.375,-60.516 3.551,-120.953 3.969,-181.457"
                   style="fill:none;stroke:#000000;stroke-width:2.61674;stroke-linecap:round;stroke-linejoin:round;stroke-miterlimit:10;stroke-dasharray:none;stroke-opacity:1"
                   id="path1836" />
              </g>
              <g
                 id="g1838"
                 transform="matrix(1,0,0,-1,-23.261467,883.80466)">
                <path
                   d="m 794.359,-479.117 c 56.168,3.097 119.786,2.578 174.309,2.363"
                   style="fill:none;stroke:#000000;stroke-width:2.61674;stroke-linecap:round;stroke-linejoin:round;stroke-miterlimit:10;stroke-dasharray:none;stroke-opacity:1"
                   id="path1840" />
              </g>
              <g
                 id="g1842"
                 transform="matrix(1,0,0,-1,-23.261467,883.80466)">
                <path
                   d="m 799.32,-490.637 c 14.5,-1.07 35.063,0.555 51.692,-0.582 l 106.359,-1.511"
                   style="fill:none;stroke:#000000;stroke-width:2.61674;stroke-linecap:round;stroke-linejoin:round;stroke-miterlimit:10;stroke-dasharray:none;stroke-opacity:1"
                   id="path1844" />
              </g>
              <g
                 id="g1846"
                 transform="matrix(1,0,0,-1,-23.261467,883.80466)">
                <path
                   d="m 957.371,-492.73 c 3.285,-52.434 7.16,-104.844 8.863,-157.36"
                   style="fill:none;stroke:#000000;stroke-width:2.61674;stroke-linecap:round;stroke-linejoin:round;stroke-miterlimit:10;stroke-dasharray:none;stroke-opacity:1"
                   id="path1848" />
              </g>
              <g
                 id="g1850"
                 transform="matrix(1,0,0,-1,-23.261467,883.80466)">
                <path
                   d="m 1000.637,-462.777 c -14.578,1.187 -17.461,-18.977 -19.461,-29.977 -5.16,-22.453 -3.449,-45.496 -3.668,-68.391 0.922,-23.777 3.285,-49.644 15.168,-69.656 1.34,-1.297 6.605,-2.676 6.097,-0.152"
                   style="fill:none;stroke:#000000;stroke-width:2.61674;stroke-linecap:round;stroke-linejoin:round;stroke-miterlimit:10;stroke-dasharray:none;stroke-opacity:1"
                   id="path1852" />
              </g>
              <g
                 id="g1854"
                 transform="matrix(1,0,0,-1,-23.261467,883.80466)">
                <path
                   d="m 846.57,-543.137 c 37.352,1.825 70.727,-42.039 52.778,-76.746 -11.985,-24.578 -46.344,-24.703 -66.938,-11.726 -23.242,14.363 -31.203,48.054 -15.187,70.636 6.496,9.852 17.414,17.129 29.347,17.836 z"
                   style="fill:none;stroke:#000000;stroke-width:2.61674;stroke-linecap:round;stroke-linejoin:round;stroke-miterlimit:10;stroke-dasharray:none;stroke-opacity:1"
                   id="path1856" />
              </g>
              <g
                 id="g1858"
                 transform="matrix(1,0,0,-1,-23.261467,883.80466)">
                <path
                   d="m 803.699,-553.848 c 7.219,16.934 9.739,38.262 27.059,48.524 12.117,6.695 26.512,9.562 40.133,11.179"
                   style="fill:none;stroke:#000000;stroke-width:2.61674;stroke-linecap:round;stroke-linejoin:round;stroke-miterlimit:10;stroke-dasharray:none;stroke-opacity:1"
                   id="path1860" />
              </g>
              <g
                 id="g1862"
                 transform="matrix(1,0,0,-1,-23.261467,883.80466)">
                <path
                   d="m 892.047,-491.684 c 29.613,-10.171 54.836,-34.429 62.988,-65.07 0.871,-2.543 1.699,-5.098 2.516,-7.66"
                   style="fill:none;stroke:#000000;stroke-width:2.61674;stroke-linecap:round;stroke-linejoin:round;stroke-miterlimit:10;stroke-dasharray:none;stroke-opacity:1"
                   id="path1864" />
              </g>
              <g
                 id="g1866"
                 transform="matrix(1,0,0,-1,-23.261467,883.80466)">
                <path
                   d="m 957.551,-564.414 c 11.969,-43.524 -28.942,-87.082 -71.399,-89.031"
                   style="fill:none;stroke:#000000;stroke-width:2.61674;stroke-linecap:round;stroke-linejoin:round;stroke-miterlimit:10;stroke-dasharray:none;stroke-opacity:1"
                   id="path1868" />
              </g>
              <g
                 id="g1870"
                 transform="matrix(1,0,0,-1,-23.261467,883.80466)">
                <path
                   d="m 886.152,-653.445 c -15.218,-2.086 -33.254,4.523 -42.882,14.273 l 0.195,0.207 -0.688,0.785"
                   style="fill:none;stroke:#000000;stroke-width:2.61674;stroke-linecap:round;stroke-linejoin:round;stroke-miterlimit:10;stroke-dasharray:none;stroke-opacity:1"
                   id="path1872" />
              </g>
              <g
                 id="g1874"
                 transform="matrix(1,0,0,-1,-23.261467,883.80466)">
                <path
                   d="m 818.223,-633.227 c -7.024,-0.121 2.242,-16.722 6.441,-5.511 0.473,4.16 -2.555,6.05 -6.441,5.511"
                   style="fill:none;stroke:#000000;stroke-width:2.61674;stroke-linecap:round;stroke-linejoin:round;stroke-miterlimit:10;stroke-dasharray:none;stroke-opacity:1"
                   id="path1876" />
              </g>
              <g
                 id="g1878"
                 transform="matrix(1,0,0,-1,-23.261467,883.80466)">
                <path
                   d="m 811.289,-504.324 c -1.996,0.355 -2.125,-10.895 3.883,-5.66 3.008,3.464 -0.543,8.246 -3.883,5.66"
                   style="fill:none;stroke:#000000;stroke-width:2.61674;stroke-linecap:round;stroke-linejoin:round;stroke-miterlimit:10;stroke-dasharray:none;stroke-opacity:1"
                   id="path1880" />
              </g>
              <g
                 id="g1882"
                 transform="matrix(1,0,0,-1,-23.261467,883.80466)">
                <path
                   d="m 872.406,-495.746 c -7.176,-0.816 -3.218,-16.031 4.949,-9.856 4.997,6.743 -2.015,8.461 -6.722,9.329"
                   style="fill:none;stroke:#000000;stroke-width:2.61674;stroke-linecap:round;stroke-linejoin:round;stroke-miterlimit:10;stroke-dasharray:none;stroke-opacity:1"
                   id="path1884" />
              </g>
              <g
                 id="g1886"
                 transform="matrix(1,0,0,-1,-23.261467,883.80466)">
                <path
                   d="m 938.504,-504.324 c -8.867,0.453 4.058,-18.735 7.195,-6.262 0.024,6.512 0.653,8.313 -7.195,6.262"
                   style="fill:none;stroke:#000000;stroke-width:2.61674;stroke-linecap:round;stroke-linejoin:round;stroke-miterlimit:10;stroke-dasharray:none;stroke-opacity:1"
                   id="path1888" />
              </g>
              <g
                 id="g1890"
                 transform="matrix(1,0,0,-1,-23.261467,883.80466)">
                <path
                   d="m 947.527,-632.82 c -5.218,1.976 -1.355,-11.985 5.438,-6.188 4.828,5.008 -3.067,7.52 -7.059,5.981"
                   style="fill:none;stroke:#000000;stroke-width:2.61674;stroke-linecap:round;stroke-linejoin:round;stroke-miterlimit:10;stroke-dasharray:none;stroke-opacity:1"
                   id="path1892" />
              </g>
              <g
                 id="g1894"
                 transform="matrix(1,0,0,-1,-23.261467,883.80466)">
                <path
                   d="m 881.004,-640.652 c -8.899,0.875 -0.203,-16.907 7.039,-7.293 2.836,5.379 -2.285,9.531 -7.039,7.293"
                   style="fill:none;stroke:#000000;stroke-width:2.61674;stroke-linecap:round;stroke-linejoin:round;stroke-miterlimit:10;stroke-dasharray:none;stroke-opacity:1"
                   id="path1896" />
              </g>
              <g
                 id="g1898"
                 transform="matrix(1,0,0,-1,-23.261467,883.80466)">
                <path
                   d="m 945.625,-570.477 c -8.645,-3.246 3.66,-17.605 9.367,-7.605 0.84,6.059 -4.066,8.137 -9.367,7.605"
                   style="fill:none;stroke:#000000;stroke-width:2.61674;stroke-linecap:round;stroke-linejoin:round;stroke-miterlimit:10;stroke-dasharray:none;stroke-opacity:1"
                   id="path1900" />
              </g>
              <g
                 id="g1902"
                 transform="matrix(1,0,0,-1,-23.261467,883.80466)">
                <path
                   d="m 870.867,-498.094 c -2.047,7.11 -8.695,-9.695 0.27,-9.472 12.164,-4.161 8.121,14.3 -1.508,10.175"
                   style="fill:none;stroke:#000000;stroke-width:2.61674;stroke-linecap:round;stroke-linejoin:round;stroke-miterlimit:10;stroke-dasharray:none;stroke-opacity:1"
                   id="path1904" />
              </g>
              <g
                 id="g1906"
                 transform="matrix(1,0,0,-1,-23.261467,883.80466)">
                <path
                   d="m 874.125,-460.453 c 0.246,0.828 14.66,-0.93 3.687,0.363"
                   style="fill:none;stroke:#000000;stroke-width:2.61674;stroke-linecap:round;stroke-linejoin:round;stroke-miterlimit:10;stroke-dasharray:none;stroke-opacity:1"
                   id="path1908" />
              </g>
              <g
                 id="g1910"
                 transform="matrix(1,0,0,-1,-23.261467,883.80466)">
                <path
                   d="m 933.781,-459.148 c -0.656,-0.829 14.106,-0.422 4.723,-0.84 l -0.926,0.289"
                   style="fill:none;stroke:#000000;stroke-width:2.61674;stroke-linecap:round;stroke-linejoin:round;stroke-miterlimit:10;stroke-dasharray:none;stroke-opacity:1"
                   id="path1912" />
              </g>
              <g
                 id="g1914"
                 transform="matrix(1,0,0,-1,-23.261467,883.80466)">
                <path
                   d="m 995.703,-474.395 c -4.039,-0.73 1.953,-10.734 2.75,-3.207 -0.144,0.934 -1.414,2.489 -2.289,1.707"
                   style="fill:none;stroke:#000000;stroke-width:2.61674;stroke-linecap:round;stroke-linejoin:round;stroke-miterlimit:10;stroke-dasharray:none;stroke-opacity:1"
                   id="path1916" />
              </g>
              <g
                 id="g1918"
                 transform="matrix(1,0,0,-1,-23.261467,883.80466)">
                <path
                   d="m 985.566,-500.371 c -6.5,1.332 -1.714,-16.817 2.61,-6.274 0.469,2.649 -0.418,4.735 -2.305,5.887"
                   style="fill:none;stroke:#000000;stroke-width:2.61674;stroke-linecap:round;stroke-linejoin:round;stroke-miterlimit:10;stroke-dasharray:none;stroke-opacity:1"
                   id="path1920" />
              </g>
              <g
                 id="g1922"
                 transform="matrix(1,0,0,-1,-23.261467,883.80466)">
                <path
                   d="m 1006.633,-482.852 c -3.836,0.329 2.273,-15.839 2.847,-4.128 -0.636,1.429 -1.761,4.48 -3.792,3.898"
                   style="fill:none;stroke:#000000;stroke-width:2.61674;stroke-linecap:round;stroke-linejoin:round;stroke-miterlimit:10;stroke-dasharray:none;stroke-opacity:1"
                   id="path1924" />
              </g>
              <g
                 id="g1926"
                 transform="matrix(1,0,0,-1,-23.261467,883.80466)">
                <path
                   d="m 1011.969,-587.602 c -6.383,-5.183 7.738,-10.632 3.359,-1.41 -0.57,0.879 -1.855,1.293 -2.797,0.77"
                   style="fill:none;stroke:#000000;stroke-width:2.61674;stroke-linecap:round;stroke-linejoin:round;stroke-miterlimit:10;stroke-dasharray:none;stroke-opacity:1"
                   id="path1928" />
              </g>
              <g
                 id="g1930"
                 transform="matrix(1,0,0,-1,-23.261467,883.80466)">
                <path
                   d="m 990.102,-606.473 c -9.793,-4.054 6.785,-16.8 1.824,-3.343 -0.594,0.757 -1.586,1.05 -2.004,1.976"
                   style="fill:none;stroke:#000000;stroke-width:2.61674;stroke-linecap:round;stroke-linejoin:round;stroke-miterlimit:10;stroke-dasharray:none;stroke-opacity:1"
                   id="path1932" />
              </g>
              <g
                 id="g1934"
                 transform="matrix(1,0,0,-1,-23.261467,883.80466)">
                <path
                   d="m 1008.613,-518.859 c -2.097,6.91 -0.699,21.703 -10.793,21.164 -13.8,-19.207 -10.578,-44.516 -10.465,-66.676 2.114,-11.684 -1.234,-26.504 11.43,-33.57 12.82,4.41 10.844,21.386 10.211,32.218 -0.117,14.625 1.731,34.934 -0.383,46.864"
                   style="fill:none;stroke:#000000;stroke-width:1.26872;stroke-linecap:round;stroke-linejoin:round;stroke-miterlimit:10;stroke-dasharray:none;stroke-opacity:1"
                   id="path1936" />
              </g>
              <g
                 id="g1938"
                 transform="matrix(1,0,0,-1,-23.261467,883.80466)">
                <path
                   d="m 838.586,-521.309 c 2.258,0.852 -6.242,-8.683 1.281,-7.175 2.395,0.789 0.735,7.718 -1.41,5.453"
                   style="fill:none;stroke:#000000;stroke-width:1.26872;stroke-linecap:round;stroke-linejoin:round;stroke-miterlimit:10;stroke-dasharray:none;stroke-opacity:1"
                   id="path1940" />
              </g>
              <g
                 id="g1942"
                 transform="matrix(1,0,0,-1,-23.261467,883.80466)">
                <path
                   d="m 845.34,-548.219 c -5.809,-5.156 -11.426,-18.629 -8.606,-27.801 2.204,-19.605 18.77,-39.316 40.825,-38.582 3.832,-1.019 24.011,5.11 24.011,5.11"
                   style="fill:none;stroke:#000000;stroke-width:1.26872;stroke-linecap:round;stroke-linejoin:round;stroke-miterlimit:10;stroke-dasharray:none;stroke-opacity:1"
                   id="path1944" />
              </g>
              <g
                 id="g1946"
                 transform="matrix(1,0,0,-1,-23.261467,883.80466)">
                <path
                   d="m 873.707,-551.445 c -1.07,-17.969 -9.43,-43.438 -13.48,-57.485"
                   style="fill:none;stroke:#000000;stroke-width:2.61674;stroke-linecap:round;stroke-linejoin:round;stroke-miterlimit:10;stroke-dasharray:none;stroke-opacity:1"
                   id="path1948" />
              </g>
              <g
                 id="g1950"
                 transform="matrix(1,0,0,-1,-23.261467,883.80466)">
                <path
                   d="m 902.52,-595.109 c -9.332,-3.356 -26.594,-14.329 -35.43,-18.266"
                   style="fill:none;stroke:#000000;stroke-width:2.61674;stroke-linecap:round;stroke-linejoin:round;stroke-miterlimit:10;stroke-dasharray:none;stroke-opacity:1"
                   id="path1952" />
              </g>
              <g
                 id="g1954"
                 transform="matrix(1,0,0,-1,-23.261467,883.80466)">
                <path
                   d="m 845.312,-549.027 c 4.946,-7.121 -5.554,-20.746 -8.374,-24.559"
                   style="fill:none;stroke:#000000;stroke-width:2.61674;stroke-linecap:round;stroke-linejoin:round;stroke-miterlimit:10;stroke-dasharray:none;stroke-opacity:1"
                   id="path1956" />
              </g>
              <g
                 id="g1958"
                 transform="matrix(1,0,0,-1,-23.261467,883.80466)">
                <path
                   d="m 858.918,-544.168 c -2.828,-17.187 -10.477,-39.594 -11.781,-55.359"
                   style="fill:none;stroke:#000000;stroke-width:2.61674;stroke-linecap:round;stroke-linejoin:round;stroke-miterlimit:10;stroke-dasharray:none;stroke-opacity:1"
                   id="path1960" />
              </g>
            </g>
          </g>
        </g>
      </g>
    </g>
  </g>
</svg>
