<?xml version="1.0" encoding="UTF-8" standalone="no"?>
<!-- Created by Ashley Blewer - This work is licensed under a Creative Commons Attribution 4.0 International License -->

<svg
   width="544"
   height="480"
   viewBox="0 0 143.93334 127"
   version="1.1"
   id="svg2490"
   inkscape:version="1.2.2 (1:1.2.2+202212051552+b0a8486541)"
   sodipodi:docname="1929-hypergonar.svg"
   xmlns:inkscape="http://www.inkscape.org/namespaces/inkscape"
   xmlns:sodipodi="http://sodipodi.sourceforge.net/DTD/sodipodi-0.dtd"
   xmlns="http://www.w3.org/2000/svg"
   xmlns:svg="http://www.w3.org/2000/svg">
  <sodipodi:namedview
     id="namedview2492"
     pagecolor="#ffffff"
     bordercolor="#666666"
     borderopacity="1.0"
     inkscape:pageshadow="2"
     inkscape:pageopacity="0.0"
     inkscape:pagecheckerboard="0"
     inkscape:document-units="mm"
     showgrid="false"
     units="px"
     inkscape:zoom="0.90583674"
     inkscape:cx="336.15329"
     inkscape:cy="254.46086"
     inkscape:window-width="1846"
     inkscape:window-height="1136"
     inkscape:window-x="0"
     inkscape:window-y="0"
     inkscape:window-maximized="1"
     inkscape:current-layer="g6395"
     inkscape:showpageshadow="2"
     inkscape:deskcolor="#d1d1d1" />
  <defs
     id="defs2487" />
  <g
     inkscape:label="Layer 1"
     inkscape:groupmode="layer"
     id="layer1">
    <g
       id="g4731"
       transform="matrix(0.32961229,0,0,0.32903008,-241.78905,1.73126)"
       style="stroke-width:2.68698">
      <g
         id="g104528"
         transform="matrix(1,0,0,-1,0,792)"
         style="stroke-width:2.68698">
        <g
           id="g104530"
           style="stroke-width:2.68698" />
      </g>
      <g
         id="g104996"
         transform="matrix(1,0,0,-1,0,792)"
         style="stroke-width:2.68698">
        <g
           id="g104998"
           style="stroke-width:2.68698" />
      </g>
      <g
         id="g28852"
         transform="matrix(1.070281,0,0,1.0721748,779.91249,-443.13657)">
        <g
           id="g6718"
           transform="matrix(1.117886,0,0,1.117886,-549.13111,-491.62865)">
          <g
             id="g6395"
             transform="matrix(0.53415107,0,0,0.53415109,441.93669,415.26868)">
            <g
               id="g9808"
               transform="matrix(2.3139577,0,0,2.3139577,-915.02935,-2311.9041)">
              <g
                 id="g1962"
                 transform="matrix(1,0,0,-1,-23.261467,883.80466)">
                <path
                   d="m 611.543,-443.188 c 6.082,10.04 26.145,8.633 34.457,5.09 -0.105,0.024 0.105,-0.336 0.141,-0.265"
                   style="fill:none;stroke:#000000;stroke-width:2.61674;stroke-linecap:round;stroke-linejoin:round;stroke-miterlimit:10;stroke-dasharray:none;stroke-opacity:1"
                   id="path1964" />
              </g>
              <g
                 id="g1966"
                 transform="matrix(1,0,0,-1,-23.261467,883.80466)">
                <path
                   d="m 646.32,-439.16 c -9.066,-1.738 -21.656,-5.281 -31.945,-3.676"
                   style="fill:none;stroke:#000000;stroke-width:2.61674;stroke-linecap:round;stroke-linejoin:round;stroke-miterlimit:10;stroke-dasharray:none;stroke-opacity:1"
                   id="path1968" />
              </g>
              <g
                 id="g1970"
                 transform="matrix(1,0,0,-1,-23.261467,883.80466)">
                <path
                   d="m 612.461,-444.438 c -0.031,-6.55 18.074,-1.039 26.769,-1.691 3.864,0.406 8.36,2.41 7.2,5.047"
                   style="fill:none;stroke:#000000;stroke-width:2.61674;stroke-linecap:round;stroke-linejoin:round;stroke-miterlimit:10;stroke-dasharray:none;stroke-opacity:1"
                   id="path1972" />
              </g>
              <g
                 id="g1974"
                 transform="matrix(1,0,0,-1,-23.261467,883.80466)">
                <path
                   d="m 639.23,-446.129 c 1.586,-3.23 3.875,-7.961 3.235,-13.59 0.097,-4.043 0.504,-11.566 0.332,-13.379"
                   style="fill:none;stroke:#000000;stroke-width:2.61674;stroke-linecap:round;stroke-linejoin:round;stroke-miterlimit:10;stroke-dasharray:none;stroke-opacity:1"
                   id="path1976" />
              </g>
              <g
                 id="g1978"
                 transform="matrix(1,0,0,-1,-23.261467,883.80466)">
                <path
                   d="m 618.605,-447.898 c 0,0 -2.386,-8.219 -0.281,-12.911 0.293,-2.324 -0.078,-8.359 1.59,-8.785"
                   style="fill:none;stroke:#000000;stroke-width:2.61674;stroke-linecap:round;stroke-linejoin:round;stroke-miterlimit:10;stroke-dasharray:none;stroke-opacity:1"
                   id="path1980" />
              </g>
              <g
                 id="g1982"
                 transform="matrix(1,0,0,-1,-23.261467,883.80466)">
                <path
                   d="m 619.914,-469.594 c 5.07,-6.449 19.465,-9.523 24.738,-2.984 l -0.683,0.711"
                   style="fill:none;stroke:#000000;stroke-width:2.61674;stroke-linecap:round;stroke-linejoin:round;stroke-miterlimit:10;stroke-dasharray:none;stroke-opacity:1"
                   id="path1984" />
              </g>
              <g
                 id="g1986"
                 transform="matrix(1,0,0,-1,-23.261467,883.80466)">
                <path
                   d="m 618.145,-453.859 c 4.527,-3.953 16.96,-2.27 19.675,0.117"
                   style="fill:none;stroke:#000000;stroke-width:2.61674;stroke-linecap:round;stroke-linejoin:round;stroke-miterlimit:10;stroke-dasharray:none;stroke-opacity:1"
                   id="path1988" />
              </g>
              <g
                 id="g1990"
                 transform="matrix(1,0,0,-1,-23.261467,883.80466)">
                <path
                   d="m 618.605,-465.707 c -32.871,5.566 -74.128,2.883 -107.554,-6.762 -10.563,-1.418 -25.137,-7.601 -28.246,-13.496"
                   style="fill:none;stroke:#000000;stroke-width:2.61674;stroke-linecap:round;stroke-linejoin:round;stroke-miterlimit:10;stroke-dasharray:none;stroke-opacity:1"
                   id="path1992" />
              </g>
              <g
                 id="g1994"
                 transform="matrix(1,0,0,-1,-23.261467,883.80466)">
                <path
                   d="m 482.066,-487.051 c 3.457,-4.367 25.746,-9.543 40.664,-8.785 32.825,0.371 65.661,6.207 97.946,11.117 7.984,1.477 17.844,7.25 22.828,9.559 l -0.625,-0.184"
                   style="fill:none;stroke:#000000;stroke-width:2.61674;stroke-linecap:round;stroke-linejoin:round;stroke-miterlimit:10;stroke-dasharray:none;stroke-opacity:1"
                   id="path1996" />
              </g>
              <g
                 id="g1998"
                 transform="matrix(1,0,0,-1,-23.261467,883.80466)">
                <path
                   d="m 644.652,-472.578 c 5.696,-5.926 18.071,-9.195 25.266,-12.649 1.305,-1.621 5.105,-4.492 5.246,-4.828"
                   style="fill:none;stroke:#000000;stroke-width:2.61674;stroke-linecap:round;stroke-linejoin:round;stroke-miterlimit:10;stroke-dasharray:none;stroke-opacity:1"
                   id="path2000" />
              </g>
              <g
                 id="g2002"
                 transform="matrix(1,0,0,-1,-23.261467,883.80466)">
                <path
                   d="m 473.828,-488.629 c 6.258,-6.371 22.426,-13.457 28.762,-18.391"
                   style="fill:none;stroke:#000000;stroke-width:2.61674;stroke-linecap:round;stroke-linejoin:round;stroke-miterlimit:10;stroke-dasharray:none;stroke-opacity:1"
                   id="path2004" />
              </g>
              <g
                 id="g2006"
                 transform="matrix(1,0,0,-1,-23.261467,883.80466)">
                <path
                   d="m 473.828,-488.629 c -0.945,1.332 -6.375,3.547 -8.996,4.567"
                   style="fill:none;stroke:#000000;stroke-width:2.61674;stroke-linecap:round;stroke-linejoin:round;stroke-miterlimit:10;stroke-dasharray:none;stroke-opacity:1"
                   id="path2008" />
              </g>
              <g
                 id="g2010"
                 transform="matrix(1,0,0,-1,-23.261467,883.80466)">
                <path
                   d="m 464.832,-484.062 c 7.715,0.3 22.828,6.171 29.84,7.433"
                   style="fill:none;stroke:#000000;stroke-width:2.61674;stroke-linecap:round;stroke-linejoin:round;stroke-miterlimit:10;stroke-dasharray:none;stroke-opacity:1"
                   id="path2012" />
              </g>
              <g
                 id="g2014"
                 transform="matrix(1,0,0,-1,-23.261467,883.80466)">
                <path
                   d="m 464.832,-484.062 c 2.867,-51.801 2.648,-104.114 13.34,-155.122"
                   style="fill:none;stroke:#000000;stroke-width:2.61674;stroke-linecap:round;stroke-linejoin:round;stroke-miterlimit:10;stroke-dasharray:none;stroke-opacity:1"
                   id="path2016" />
              </g>
              <g
                 id="g2018"
                 transform="matrix(1,0,0,-1,-23.261467,883.80466)">
                <path
                   d="m 475.434,-492.02 c 3.5,-51.382 8.636,-102.636 13.738,-150.32 -1.074,-3.008 0.598,-6.883 -1.297,-6.43"
                   style="fill:none;stroke:#000000;stroke-width:2.61674;stroke-linecap:round;stroke-linejoin:round;stroke-miterlimit:10;stroke-dasharray:none;stroke-opacity:1"
                   id="path2020" />
              </g>
              <g
                 id="g2022"
                 transform="matrix(1,0,0,-1,-23.261467,883.80466)">
                <path
                   d="m 478.172,-639.184 c 0,0 14.637,-18.082 12.957,-12.148"
                   style="fill:none;stroke:#000000;stroke-width:2.61674;stroke-linecap:round;stroke-linejoin:round;stroke-miterlimit:10;stroke-dasharray:none;stroke-opacity:1"
                   id="path2024" />
              </g>
              <g
                 id="g2026"
                 transform="matrix(1,0,0,-1,-23.261467,883.80466)">
                <path
                   d="m 491.129,-651.332 c 8.621,-10.078 19.019,-21.406 26.004,-31.434 l -0.067,0.164 2.797,-3.929"
                   style="fill:none;stroke:#000000;stroke-width:2.61674;stroke-linecap:round;stroke-linejoin:round;stroke-miterlimit:10;stroke-dasharray:none;stroke-opacity:1"
                   id="path2028" />
              </g>
              <g
                 id="g2030"
                 transform="matrix(1,0,0,-1,-23.261467,883.80466)">
                <path
                   d="m 502.59,-507.02 c 3.668,-61.726 12.328,-118.496 17.273,-179.511"
                   style="fill:none;stroke:#000000;stroke-width:2.61674;stroke-linecap:round;stroke-linejoin:round;stroke-miterlimit:10;stroke-dasharray:none;stroke-opacity:1"
                   id="path2032" />
              </g>
              <g
                 id="g2034"
                 transform="matrix(1,0,0,-1,-23.261467,883.80466)">
                <path
                   d="m 502.59,-507.02 167.433,17.27 c 0.922,-0.438 6.457,0.945 4.235,0.008"
                   style="fill:none;stroke:#000000;stroke-width:2.61674;stroke-linecap:round;stroke-linejoin:round;stroke-miterlimit:10;stroke-dasharray:none;stroke-opacity:1"
                   id="path2036" />
              </g>
              <g
                 id="g2038"
                 transform="matrix(1,0,0,-1,-23.261467,883.80466)">
                <path
                   d="m 519.863,-686.531 172.125,18.109"
                   style="fill:none;stroke:#000000;stroke-width:2.61674;stroke-linecap:round;stroke-linejoin:round;stroke-miterlimit:10;stroke-dasharray:none;stroke-opacity:1"
                   id="path2040" />
              </g>
              <g
                 id="g2042"
                 transform="matrix(1,0,0,-1,-23.261467,883.80466)">
                <path
                   d="m 688.367,-649.27 c 3.043,-4.652 2.391,-15.164 3.621,-19.152 l -0.453,0.984"
                   style="fill:none;stroke:#000000;stroke-width:2.61674;stroke-linecap:round;stroke-linejoin:round;stroke-miterlimit:10;stroke-dasharray:none;stroke-opacity:1"
                   id="path2044" />
              </g>
              <g
                 id="g2046"
                 transform="matrix(1,0,0,-1,-23.261467,883.80466)">
                <path
                   d="m 688.367,-649.27 c 1.406,-0.48 -10.16,98.879 -13.762,145.43 -1.019,4.512 -0.347,13.5 -0.347,14.098"
                   style="fill:none;stroke:#000000;stroke-width:2.61674;stroke-linecap:round;stroke-linejoin:round;stroke-miterlimit:10;stroke-dasharray:none;stroke-opacity:1"
                   id="path2048" />
              </g>
              <g
                 id="g2050"
                 transform="matrix(1,0,0,-1,-23.261467,883.80466)">
                <path
                   d="m 513.324,-522.934 c 49.328,8.028 107.457,15.024 143.676,16.161"
                   style="fill:none;stroke:#000000;stroke-width:2.61674;stroke-linecap:round;stroke-linejoin:round;stroke-miterlimit:10;stroke-dasharray:none;stroke-opacity:1"
                   id="path2052" />
              </g>
              <g
                 id="g2054"
                 transform="matrix(1,0,0,-1,-23.261467,883.80466)">
                <path
                   d="m 592.281,-514.961 c 7.426,-13.484 6.676,-36.164 6.539,-53.832 -2.867,-14.578 -6.336,-34.168 -23.328,-37.812 -19.762,-0.477 -32.523,18.464 -34.941,36.484 -4.051,16.617 -3.617,37.176 0.633,51.574"
                   style="fill:none;stroke:#000000;stroke-width:2.61674;stroke-linecap:round;stroke-linejoin:round;stroke-miterlimit:10;stroke-dasharray:none;stroke-opacity:1"
                   id="path2056" />
              </g>
              <g
                 id="g2058"
                 transform="matrix(1,0,0,-1,-23.261467,883.80466)">
                <path
                   d="m 538.812,-555.172 c 4.071,-13.43 7.825,-32.769 24.493,-36.254 14.754,-0.418 23.047,9.742 29.066,21.215 3.395,19.418 4.543,41.133 -1.219,58.516 -0.047,-0.063 0.032,-0.289 -0.492,0.14"
                   style="fill:none;stroke:#000000;stroke-width:2.61674;stroke-linecap:round;stroke-linejoin:round;stroke-miterlimit:10;stroke-dasharray:none;stroke-opacity:1"
                   id="path2060" />
              </g>
              <g
                 id="g2062"
                 transform="matrix(1,0,0,-1,-23.261467,883.80466)">
                <path
                   d="m 594.617,-536.816 c 2.145,-12.727 -2.633,-28.907 -4.64,-42.071 -1.204,-12.281 -17.758,-30.789 -30.668,-19.199 -10.688,10.383 -21.235,25.879 -20.918,40.785 l 0.418,0.739"
                   style="fill:none;stroke:#000000;stroke-width:2.61674;stroke-linecap:round;stroke-linejoin:round;stroke-miterlimit:10;stroke-dasharray:none;stroke-opacity:1"
                   id="path2064" />
              </g>
              <g
                 id="g2066"
                 transform="matrix(1,0,0,-1,-23.261467,883.80466)">
                <path
                   d="m 520.57,-669.562 c 28.614,3.5 57.836,3.457 86.446,8.453 25.125,2.644 60.144,8.406 80.121,9.918 l -0.696,0.054"
                   style="fill:none;stroke:#000000;stroke-width:2.61674;stroke-linecap:round;stroke-linejoin:round;stroke-miterlimit:10;stroke-dasharray:none;stroke-opacity:1"
                   id="path2068" />
              </g>
              <g
                 id="g2070"
                 transform="matrix(1,0,0,-1,-23.261467,883.80466)">
                <path
                   d="m 524.742,-526.742 c 0.246,-22.184 1.68,-45.727 5.61,-67.809"
                   style="fill:none;stroke:#000000;stroke-width:1.26872;stroke-linecap:round;stroke-linejoin:round;stroke-miterlimit:10;stroke-dasharray:none;stroke-opacity:1"
                   id="path2072" />
              </g>
              <g
                 id="g2074"
                 transform="matrix(1,0,0,-1,-23.261467,883.80466)">
                <path
                   d="m 513.324,-522.934 c 4.024,-18.336 2.981,-39.539 6.551,-58.625 1.176,-13.152 5.09,-29.714 6.645,-40.179"
                   style="fill:none;stroke:#000000;stroke-width:1.26872;stroke-linecap:round;stroke-linejoin:round;stroke-miterlimit:10;stroke-dasharray:none;stroke-opacity:1"
                   id="path2076" />
              </g>
              <g
                 id="g2078"
                 transform="matrix(1,0,0,-1,-23.261467,883.80466)">
                <path
                   d="m 649.859,-512.062 6.043,-119.348"
                   style="fill:none;stroke:#000000;stroke-width:1.26872;stroke-linecap:round;stroke-linejoin:round;stroke-miterlimit:10;stroke-dasharray:none;stroke-opacity:1"
                   id="path2080" />
              </g>
              <g
                 id="g2082"
                 transform="matrix(1,0,0,-1,-23.261467,883.80466)">
                <path
                   d="m 636.934,-507.102 c 1.734,-40.433 4.121,-72.148 6.41,-107.23"
                   style="fill:none;stroke:#000000;stroke-width:1.26872;stroke-linecap:round;stroke-linejoin:round;stroke-miterlimit:10;stroke-dasharray:none;stroke-opacity:1"
                   id="path2084" />
              </g>
              <g
                 id="g2086"
                 transform="matrix(1,0,0,-1,-23.261467,883.80466)">
                <path
                   d="m 619.914,-511.43 c 3.922,-18.632 6.371,-71.121 8.07,-87.465"
                   style="fill:none;stroke:#000000;stroke-width:1.26872;stroke-linecap:round;stroke-linejoin:round;stroke-miterlimit:10;stroke-dasharray:none;stroke-opacity:1"
                   id="path2088" />
              </g>
              <g
                 id="g2090"
                 transform="matrix(1,0,0,-1,-23.261467,883.80466)">
                <path
                   d="m 592.281,-514.961 c 3.649,-19.707 15.328,-63.273 6.809,-82.316 -4.223,-12.028 -34.371,-15.649 -45.563,-5.782 -8.797,3.551 -7.136,7.875 -9.187,16.375 l 0.758,0.438"
                   style="fill:none;stroke:#000000;stroke-width:1.26872;stroke-linecap:round;stroke-linejoin:round;stroke-miterlimit:10;stroke-dasharray:none;stroke-opacity:1"
                   id="path2092" />
              </g>
              <g
                 id="g2094"
                 transform="matrix(1,0,0,-1,-23.261467,883.80466)">
                <path
                   d="m 574.617,-625.73 c 1.063,1.742 -0.328,-13.825 0.871,-10.247"
                   style="fill:none;stroke:#000000;stroke-width:1.26872;stroke-linecap:round;stroke-linejoin:round;stroke-miterlimit:10;stroke-dasharray:none;stroke-opacity:1"
                   id="path2096" />
              </g>
              <g
                 id="g2098"
                 transform="matrix(1,0,0,-1,-23.261467,883.80466)">
                <path
                   d="m 586.688,-625.203 c 0.457,-0.25 4.468,-9.93 2.5,-9.422"
                   style="fill:none;stroke:#000000;stroke-width:1.26872;stroke-linecap:round;stroke-linejoin:round;stroke-miterlimit:10;stroke-dasharray:none;stroke-opacity:1"
                   id="path2100" />
              </g>
              <g
                 id="g2102"
                 transform="matrix(1,0,0,-1,-23.261467,883.80466)">
                <path
                   d="m 574.262,-624.039 c 0.617,3.785 20.593,5.41 11.84,-0.754 -2.961,-0.926 -8.442,-0.484 -11.485,-0.937"
                   style="fill:none;stroke:#000000;stroke-width:1.26872;stroke-linecap:round;stroke-linejoin:round;stroke-miterlimit:10;stroke-dasharray:none;stroke-opacity:1"
                   id="path2104" />
              </g>
              <g
                 id="g2106"
                 transform="matrix(1,0,0,-1,-23.261467,883.80466)">
                <path
                   d="m 575.488,-635.977 c 2.766,-3.07 10.903,-1.82 13.7,1.352"
                   style="fill:none;stroke:#000000;stroke-width:1.26872;stroke-linecap:round;stroke-linejoin:round;stroke-miterlimit:10;stroke-dasharray:none;stroke-opacity:1"
                   id="path2108" />
              </g>
              <g
                 id="g2110"
                 transform="matrix(1,0,0,-1,-23.261467,883.80466)">
                <path
                   d="m 596.895,-623.691 c 0.48,-1.129 3.101,-12.743 1.656,-9.797"
                   style="fill:none;stroke:#000000;stroke-width:1.26872;stroke-linecap:round;stroke-linejoin:round;stroke-miterlimit:10;stroke-dasharray:none;stroke-opacity:1"
                   id="path2112" />
              </g>
              <g
                 id="g2114"
                 transform="matrix(1,0,0,-1,-23.261467,883.80466)">
                <path
                   d="m 597.574,-621.445 c 0.899,-0.985 10.645,3.625 9.567,1.976"
                   style="fill:none;stroke:#000000;stroke-width:1.26872;stroke-linecap:round;stroke-linejoin:round;stroke-miterlimit:10;stroke-dasharray:none;stroke-opacity:1"
                   id="path2116" />
              </g>
              <g
                 id="g2118"
                 transform="matrix(1,0,0,-1,-23.261467,883.80466)">
                <path
                   d="m 598.406,-621.746 c -1.777,-2.211 9.719,2.308 8.297,0.516"
                   style="fill:none;stroke:#000000;stroke-width:1.26872;stroke-linecap:round;stroke-linejoin:round;stroke-miterlimit:10;stroke-dasharray:none;stroke-opacity:1"
                   id="path2120" />
              </g>
              <g
                 id="g2122"
                 transform="matrix(1,0,0,-1,-23.261467,883.80466)">
                <path
                   d="m 600.078,-635.902 c 1.774,-0.828 8.922,0.39 8.477,0.39"
                   style="fill:none;stroke:#000000;stroke-width:1.26872;stroke-linecap:round;stroke-linejoin:round;stroke-miterlimit:10;stroke-dasharray:none;stroke-opacity:1"
                   id="path2124" />
              </g>
              <g
                 id="g2126"
                 transform="matrix(1,0,0,-1,-23.261467,883.80466)">
                <path
                   d="m 545.367,-647.566 103.86,10.742"
                   style="fill:none;stroke:#000000;stroke-width:1.26872;stroke-linecap:round;stroke-linejoin:round;stroke-miterlimit:10;stroke-dasharray:none;stroke-opacity:1"
                   id="path2128" />
              </g>
              <g
                 id="g2130"
                 transform="matrix(1,0,0,-1,-23.261467,883.80466)">
                <path
                   d="m 657,-506.773 16.414,-135.075"
                   style="fill:none;stroke:#000000;stroke-width:1.26872;stroke-linecap:round;stroke-linejoin:round;stroke-miterlimit:10;stroke-dasharray:none;stroke-opacity:1"
                   id="path2132" />
              </g>
              <g
                 id="g2134"
                 transform="matrix(1,0,0,-1,-23.261467,883.80466)">
                <path
                   d="M 655.902,-631.41 534.613,-645.863"
                   style="fill:none;stroke:#000000;stroke-width:1.26872;stroke-linecap:round;stroke-linejoin:round;stroke-miterlimit:10;stroke-dasharray:none;stroke-opacity:1"
                   id="path2136" />
              </g>
              <g
                 id="g2138"
                 transform="matrix(1,0,0,-1,-23.261467,883.80466)">
                <path
                   d="m 673.414,-641.848 -146.805,-21.23 c -1.765,1.695 1.039,-1.641 0,0"
                   style="fill:none;stroke:#000000;stroke-width:1.26872;stroke-linecap:round;stroke-linejoin:round;stroke-miterlimit:10;stroke-dasharray:none;stroke-opacity:1"
                   id="path2140" />
              </g>
              <g
                 id="g2142"
                 transform="matrix(1,0,0,-1,-23.261467,883.80466)">
                <path
                   d="m 476.672,-604.004 1.871,-9.59"
                   style="fill:none;stroke:#000000;stroke-width:1.26872;stroke-linecap:round;stroke-linejoin:round;stroke-miterlimit:10;stroke-dasharray:none;stroke-opacity:1"
                   id="path2144" />
              </g>
              <g
                 id="g2146"
                 transform="matrix(1,0,0,-1,-23.261467,883.80466)">
                <path
                   d="m 470.566,-510.043 c 0.641,0.094 0.352,-11.316 1.125,-9.812"
                   style="fill:none;stroke:#000000;stroke-width:1.26872;stroke-linecap:round;stroke-linejoin:round;stroke-miterlimit:10;stroke-dasharray:none;stroke-opacity:1"
                   id="path2148" />
              </g>
              <g
                 id="g2150"
                 transform="matrix(1,0,0,-1,-23.261467,883.80466)">
                <path
                   d="m 526.609,-663.078 c -0.398,13.101 -1.984,45.422 -1.984,45.422 0,0 -6.566,65.945 -10.266,95.461"
                   style="fill:none;stroke:#000000;stroke-width:2.61674;stroke-linecap:round;stroke-linejoin:round;stroke-miterlimit:10;stroke-dasharray:none;stroke-opacity:1"
                   id="path2152" />
              </g>
              <g
                 id="g2154"
                 transform="matrix(1,0,0,-1,-23.261467,883.80466)">
                <path
                   d="m 527.152,-520.887 8.606,-83.504 c 0.312,-4.254 1.379,-7.703 1.711,-8.632"
                   style="fill:none;stroke:#000000;stroke-width:2.61674;stroke-linecap:round;stroke-linejoin:round;stroke-miterlimit:10;stroke-dasharray:none;stroke-opacity:1"
                   id="path2156" />
              </g>
              <g
                 id="g2158"
                 transform="matrix(1,0,0,-1,-23.261467,883.80466)">
                <path
                   d="m 537.469,-613.023 c 0,0 86.215,8.164 85.711,9.949"
                   style="fill:none;stroke:#000000;stroke-width:2.61674;stroke-linecap:round;stroke-linejoin:round;stroke-miterlimit:10;stroke-dasharray:none;stroke-opacity:1"
                   id="path2160" />
              </g>
              <g
                 id="g2162"
                 transform="matrix(1,0,0,-1,-23.261467,883.80466)">
                <path
                   d="m 623.18,-603.074 c -1.164,17.918 -6.039,39.293 -8.543,58.605 -0.614,11.078 -2.297,27.301 -4.617,34.793"
                   style="fill:none;stroke:#000000;stroke-width:2.61674;stroke-linecap:round;stroke-linejoin:round;stroke-miterlimit:10;stroke-dasharray:none;stroke-opacity:1"
                   id="path2164" />
              </g>
            </g>
          </g>
        </g>
      </g>
    </g>
  </g>
</svg>
