<?xml version="1.0" encoding="UTF-8" standalone="no"?>
<!-- Created by Ashley Blewer - This work is licensed under a Creative Commons Attribution 4.0 International License -->

<svg
   width="544"
   height="480"
   viewBox="0 0 143.93334 127"
   version="1.1"
   id="svg2490"
   inkscape:version="1.2.2 (1:1.2.2+202212051552+b0a8486541)"
   sodipodi:docname="1932-8mm-1.svg"
   xmlns:inkscape="http://www.inkscape.org/namespaces/inkscape"
   xmlns:sodipodi="http://sodipodi.sourceforge.net/DTD/sodipodi-0.dtd"
   xmlns="http://www.w3.org/2000/svg"
   xmlns:svg="http://www.w3.org/2000/svg">
  <sodipodi:namedview
     id="namedview2492"
     pagecolor="#ffffff"
     bordercolor="#666666"
     borderopacity="1.0"
     inkscape:pageshadow="2"
     inkscape:pageopacity="0.0"
     inkscape:pagecheckerboard="0"
     inkscape:document-units="mm"
     showgrid="false"
     units="px"
     inkscape:zoom="0.90583674"
     inkscape:cx="336.15329"
     inkscape:cy="254.46086"
     inkscape:window-width="1846"
     inkscape:window-height="1136"
     inkscape:window-x="0"
     inkscape:window-y="0"
     inkscape:window-maximized="1"
     inkscape:current-layer="g6395"
     inkscape:showpageshadow="2"
     inkscape:deskcolor="#d1d1d1" />
  <defs
     id="defs2487" />
  <g
     inkscape:label="Layer 1"
     inkscape:groupmode="layer"
     id="layer1">
    <g
       id="g4731"
       transform="matrix(0.32961229,0,0,0.32903008,-241.78905,1.73126)"
       style="stroke-width:2.68698">
      <g
         id="g104528"
         transform="matrix(1,0,0,-1,0,792)"
         style="stroke-width:2.68698">
        <g
           id="g104530"
           style="stroke-width:2.68698" />
      </g>
      <g
         id="g104996"
         transform="matrix(1,0,0,-1,0,792)"
         style="stroke-width:2.68698">
        <g
           id="g104998"
           style="stroke-width:2.68698" />
      </g>
      <g
         id="g28852"
         transform="matrix(1.070281,0,0,1.0721748,779.91249,-443.13657)">
        <g
           id="g6718"
           transform="matrix(1.117886,0,0,1.117886,-549.13111,-491.62865)">
          <g
             id="g6395"
             transform="matrix(0.53415107,0,0,0.53415109,441.93669,415.26868)">
            <g
               id="g9195"
               transform="matrix(2.8042403,0,0,2.8042403,-2241.595,-1580.9114)">
              <g
                 id="g2727"
                 transform="matrix(1,0,0,-1,-50.937,697.71086)">
                <path
                   d="m 985.5,-152.879 c -11.605,1.223 -26.566,12.996 -37.418,4.965 -6.406,-3.965 -12.742,-8.106 -18.535,-12.945"
                   style="fill:none;stroke:#000000;stroke-width:2.61674;stroke-linecap:round;stroke-linejoin:round;stroke-miterlimit:10;stroke-dasharray:none;stroke-opacity:1"
                   id="path2729" />
              </g>
              <g
                 id="g2731"
                 transform="matrix(1,0,0,-1,-50.937,697.71086)">
                <path
                   d="m 995.965,-150.211 c -10.906,2.918 -30.176,12.149 -41.203,8.66 -8.231,-6.301 -16.094,-13.902 -25.715,-17.668 l -7.473,-5.648"
                   style="fill:none;stroke:#000000;stroke-width:2.61674;stroke-linecap:round;stroke-linejoin:round;stroke-miterlimit:10;stroke-dasharray:none;stroke-opacity:1"
                   id="path2733" />
              </g>
              <g
                 id="g2735"
                 transform="matrix(1,0,0,-1,-50.937,697.71086)">
                <path
                   d="m 865.23,-180.465 c 18.848,4.969 38.063,8.723 56.344,15.598 11.016,2.84 22.199,5.105 33.504,6.465 l -0.57,-0.071 16.383,1.973"
                   style="fill:none;stroke:#000000;stroke-width:2.61674;stroke-linecap:round;stroke-linejoin:round;stroke-miterlimit:10;stroke-dasharray:none;stroke-opacity:1"
                   id="path2737" />
              </g>
              <g
                 id="g2739"
                 transform="matrix(1,0,0,-1,-50.937,697.71086)">
                <path
                   d="m 1002.012,-146.742 c 4.394,-0.403 11.148,5.148 14.14,0.004"
                   style="fill:none;stroke:#000000;stroke-width:2.61674;stroke-linecap:round;stroke-linejoin:round;stroke-miterlimit:10;stroke-dasharray:none;stroke-opacity:1"
                   id="path2741" />
              </g>
              <g
                 id="g2743"
                 transform="matrix(1,0,0,-1,-50.937,697.71086)">
                <path
                   d="m 1080.055,-240.18 c 5.554,-4.746 1.328,-12.07 1.14,-17.953"
                   style="fill:none;stroke:#000000;stroke-width:2.61674;stroke-linecap:round;stroke-linejoin:round;stroke-miterlimit:10;stroke-dasharray:none;stroke-opacity:1"
                   id="path2745" />
              </g>
              <g
                 id="g2747"
                 transform="matrix(1,0,0,-1,-50.937,697.71086)">
                <path
                   d="m 864.5,-189.797 -0.18,-0.023"
                   style="fill:none;stroke:#000000;stroke-width:2.61674;stroke-linecap:round;stroke-linejoin:round;stroke-miterlimit:10;stroke-dasharray:none;stroke-opacity:1"
                   id="path2749" />
              </g>
              <g
                 id="g2751"
                 transform="matrix(1,0,0,-1,-50.937,697.71086)">
                <path
                   d="m 863.617,-180.871 c 12.434,-25.777 21.735,-52.926 34.051,-78.766 4.293,-9.59 8.637,-19.265 14.723,-27.883"
                   style="fill:none;stroke:#000000;stroke-width:2.61674;stroke-linecap:round;stroke-linejoin:round;stroke-miterlimit:10;stroke-dasharray:none;stroke-opacity:1"
                   id="path2753" />
              </g>
              <g
                 id="g2755"
                 transform="matrix(1,0,0,-1,-50.937,697.71086)">
                <path
                   d="m 862.945,-181.969 c 0.676,-2.164 -0.047,-4.476 0.059,-6.691"
                   style="fill:none;stroke:#000000;stroke-width:2.61674;stroke-linecap:round;stroke-linejoin:round;stroke-miterlimit:10;stroke-dasharray:none;stroke-opacity:1"
                   id="path2757" />
              </g>
              <g
                 id="g2759"
                 transform="matrix(1,0,0,-1,-50.937,697.71086)">
                <path
                   d="m 863.004,-188.66 c 17.934,-40.602 26.629,-81.305 50.848,-114.805"
                   style="fill:none;stroke:#000000;stroke-width:2.61674;stroke-linecap:round;stroke-linejoin:round;stroke-miterlimit:10;stroke-dasharray:none;stroke-opacity:1"
                   id="path2761" />
              </g>
              <g
                 id="g2763"
                 transform="matrix(1,0,0,-1,-50.937,697.71086)">
                <path
                   d="m 913.082,-287.684 c 1.992,-6.16 -2.164,-9.921 0.77,-15.781"
                   style="fill:none;stroke:#000000;stroke-width:2.61674;stroke-linecap:round;stroke-linejoin:round;stroke-miterlimit:10;stroke-dasharray:none;stroke-opacity:1"
                   id="path2765" />
              </g>
              <g
                 id="g2767"
                 transform="matrix(1,0,0,-1,-50.937,697.71086)">
                <path
                   d="m 913.852,-303.465 c 57.66,15.656 114.394,27.949 167.343,45.332"
                   style="fill:none;stroke:#000000;stroke-width:2.61674;stroke-linecap:round;stroke-linejoin:round;stroke-miterlimit:10;stroke-dasharray:none;stroke-opacity:1"
                   id="path2769" />
              </g>
              <g
                 id="g2771"
                 transform="matrix(1,0,0,-1,-50.937,697.71086)">
                <path
                   d="m 1091.281,-210.316 c -1.019,-18.571 -14.558,-35.442 -32.426,-40.547 -27.98,-12.289 -60.64,-14.356 -89.781,-5.125 -18.312,8.246 -38.519,21.172 -42.406,42.445 0.344,1.508 -1.52,3.977 0.484,4.867"
                   style="fill:none;stroke:#000000;stroke-width:2.61674;stroke-linecap:round;stroke-linejoin:round;stroke-miterlimit:10;stroke-dasharray:none;stroke-opacity:1"
                   id="path2773" />
              </g>
              <g
                 id="g2775"
                 transform="matrix(1,0,0,-1,-50.937,697.71086)">
                <path
                   d="m 1082.504,-244.305 c -3.363,-0.48 -6.664,-1.64 -10.098,-1.5"
                   style="fill:none;stroke:#000000;stroke-width:2.61674;stroke-linecap:round;stroke-linejoin:round;stroke-miterlimit:10;stroke-dasharray:none;stroke-opacity:1"
                   id="path2777" />
              </g>
              <g
                 id="g2779"
                 transform="matrix(1,0,0,-1,-50.937,697.71086)">
                <path
                   d="m 1016.754,-262.441 c -33.188,-12.176 -68.117,-18.442 -102.094,-27.887"
                   style="fill:none;stroke:#000000;stroke-width:2.61674;stroke-linecap:round;stroke-linejoin:round;stroke-miterlimit:10;stroke-dasharray:none;stroke-opacity:1"
                   id="path2781" />
              </g>
              <g
                 id="g2783"
                 transform="matrix(1,0,0,-1,-50.937,697.71086)">
                <path
                   d="m 926.926,-208.43 c 2.781,-12.996 12.097,-23.093 23.039,-29.918 21.133,-16.929 50.019,-17.269 75.637,-13.992 22.16,2.047 47.058,7.852 60.539,27.215 4.086,7.492 4.718,15.09 5.586,24.437"
                   style="fill:none;stroke:#000000;stroke-width:2.61674;stroke-linecap:round;stroke-linejoin:round;stroke-miterlimit:10;stroke-dasharray:none;stroke-opacity:1"
                   id="path2785" />
              </g>
              <g
                 id="g2787"
                 transform="matrix(1,0,0,-1,-50.937,697.71086)">
                <path
                   d="m 1090.859,-210.035 c 5.414,30.082 -22.324,51.621 -48.242,58.789 -30.39,10.344 -63.16,-0.508 -90.547,-14.473 -13.781,-8.469 -30.773,-25.125 -24.918,-42.957"
                   style="fill:none;stroke:#000000;stroke-width:2.61674;stroke-linecap:round;stroke-linejoin:round;stroke-miterlimit:10;stroke-dasharray:none;stroke-opacity:1"
                   id="path2789" />
              </g>
              <g
                 id="g2791"
                 transform="matrix(1,0,0,-1,-50.937,697.71086)">
                <path
                   d="m 959.641,-171.805 c 10.023,8.828 23.621,11.743 36.418,13.996 3.039,-7.05 4.23,-23.746 -6.477,-23.527 -9.211,6.324 -20.098,5.32 -29.852,9.981"
                   style="fill:none;stroke:#000000;stroke-width:2.61674;stroke-linecap:round;stroke-linejoin:round;stroke-miterlimit:10;stroke-dasharray:none;stroke-opacity:1"
                   id="path2793" />
              </g>
              <g
                 id="g2795"
                 transform="matrix(1,0,0,-1,-50.937,697.71086)">
                <path
                   d="m 1018.758,-177.289 c 1.004,6.984 -6.813,22.887 5.363,20.848 11.379,-0.895 21.953,-6.036 31.516,-11.977 -10.934,-3.973 -25.914,-14.664 -36.879,-8.871"
                   style="fill:none;stroke:#000000;stroke-width:2.61674;stroke-linecap:round;stroke-linejoin:round;stroke-miterlimit:10;stroke-dasharray:none;stroke-opacity:1"
                   id="path2797" />
              </g>
              <g
                 id="g2799"
                 transform="matrix(1,0,0,-1,-50.937,697.71086)">
                <path
                   d="m 1040.766,-190.125 c 9.699,3.273 24.031,17.613 32.183,5.25 3.324,-6.289 5.512,-21.91 -0.332,-23.754 -10.211,4.434 -20.687,8.274 -31.379,11.371 0.446,2.403 -0.406,4.75 -0.472,7.133"
                   style="fill:none;stroke:#000000;stroke-width:2.61674;stroke-linecap:round;stroke-linejoin:round;stroke-miterlimit:10;stroke-dasharray:none;stroke-opacity:1"
                   id="path2801" />
              </g>
              <g
                 id="g2803"
                 transform="matrix(1,0,0,-1,-50.937,697.71086)">
                <path
                   d="m 1034.488,-209.113 c 11.59,-3.36 22.645,-4.012 31.196,-13.891 -8.711,-10.516 -23.512,-10.289 -35.086,-15.699 -12.262,-2.949 -4.946,13.668 -8.313,20.414 -0.793,7.418 7.156,8.309 12.203,9.176"
                   style="fill:none;stroke:#000000;stroke-width:2.61674;stroke-linecap:round;stroke-linejoin:round;stroke-miterlimit:10;stroke-dasharray:none;stroke-opacity:1"
                   id="path2805" />
              </g>
              <g
                 id="g2807"
                 transform="matrix(1,0,0,-1,-50.937,697.71086)">
                <path
                   d="m 992.164,-212.371 c 12.766,-1.567 7.414,-18.758 9.789,-27.332 -9.57,-3.504 -19.539,4.93 -29.363,5.644 -9.188,0.215 -19.156,7.993 -6.402,12.676 7.917,4.918 16.597,8.16 25.976,9.012"
                   style="fill:none;stroke:#000000;stroke-width:2.61674;stroke-linecap:round;stroke-linejoin:round;stroke-miterlimit:10;stroke-dasharray:none;stroke-opacity:1"
                   id="path2809" />
              </g>
              <g
                 id="g2811"
                 transform="matrix(1,0,0,-1,-50.937,697.71086)">
                <path
                   d="m 979.008,-191.656 c -10.653,2.574 -22.18,9.265 -32.137,5.844 -3.816,-7.059 -5.629,-23.122 2.059,-25.817 9.668,4.598 24.125,5.227 30.406,13.602 -0.016,2.125 -0.199,4.25 -0.328,6.371"
                   style="fill:none;stroke:#000000;stroke-width:2.61674;stroke-linecap:round;stroke-linejoin:round;stroke-miterlimit:10;stroke-dasharray:none;stroke-opacity:1"
                   id="path2813" />
              </g>
              <g
                 id="g2815"
                 transform="matrix(1,0,0,-1,-50.937,697.71086)">
                <path
                   d="m 987.75,-186.648 c 5.062,5.109 12.371,9.71 19.852,7.82"
                   style="fill:none;stroke:#000000;stroke-width:1.26872;stroke-linecap:round;stroke-linejoin:round;stroke-miterlimit:10;stroke-dasharray:none;stroke-opacity:1"
                   id="path2817" />
              </g>
              <g
                 id="g2819"
                 transform="matrix(1,0,0,-1,-50.937,697.71086)">
                <path
                   d="m 1007.602,-178.828 c -0.032,-3.02 -0.301,-7.234 0.207,-10.203"
                   style="fill:none;stroke:#000000;stroke-width:1.26872;stroke-linecap:round;stroke-linejoin:round;stroke-miterlimit:10;stroke-dasharray:none;stroke-opacity:1"
                   id="path2821" />
              </g>
              <g
                 id="g2823"
                 transform="matrix(1,0,0,-1,-50.937,697.71086)">
                <path
                   d="m 1007.863,-189.836 c -6.82,-3.437 -13.144,5.238 -20.265,3.586"
                   style="fill:none;stroke:#000000;stroke-width:1.26872;stroke-linecap:round;stroke-linejoin:round;stroke-miterlimit:10;stroke-dasharray:none;stroke-opacity:1"
                   id="path2825" />
              </g>
              <g
                 id="g2827"
                 transform="matrix(1,0,0,-1,-50.937,697.71086)">
                <path
                   d="m 987.453,-188.402 c 4.211,-1.852 8.609,-3.235 12.996,-4.606"
                   style="fill:none;stroke:#000000;stroke-width:1.26872;stroke-linecap:round;stroke-linejoin:round;stroke-miterlimit:10;stroke-dasharray:none;stroke-opacity:1"
                   id="path2829" />
              </g>
              <g
                 id="g2831"
                 transform="matrix(1,0,0,-1,-50.937,697.71086)">
                <path
                   d="m 999.367,-193.918 c -5.801,-2.625 5.758,-4.973 -2.055,-5.531 -8.523,-8.086 -17.914,0.867 -11.613,10.168 l 1.004,0.621"
                   style="fill:none;stroke:#000000;stroke-width:1.26872;stroke-linecap:round;stroke-linejoin:round;stroke-miterlimit:10;stroke-dasharray:none;stroke-opacity:1"
                   id="path2833" />
              </g>
              <g
                 id="g2835"
                 transform="matrix(1,0,0,-1,-50.937,697.71086)">
                <path
                   d="m 1002.098,-199.789 c -4.016,-1.781 -18.2,-5.461 -7.032,-8.094 6.161,-2.996 19.024,-6.461 15.215,4.809 0.492,4.379 -4.695,4.32 -7.574,3.605"
                   style="fill:none;stroke:#000000;stroke-width:1.26872;stroke-linecap:round;stroke-linejoin:round;stroke-miterlimit:10;stroke-dasharray:none;stroke-opacity:1"
                   id="path2837" />
              </g>
              <g
                 id="g2839"
                 transform="matrix(1,0,0,-1,-50.937,697.71086)">
                <path
                   d="m 1012.516,-201.176 c 3.918,-2.957 5.562,5.883 10.582,0.906 6.316,-0.207 12.972,-4.445 3.851,-7.816 -6.004,-4.523 -17.219,-5.066 -14.172,5.223 l -0.01,1.883"
                   style="fill:none;stroke:#000000;stroke-width:1.26872;stroke-linecap:round;stroke-linejoin:round;stroke-miterlimit:10;stroke-dasharray:none;stroke-opacity:1"
                   id="path2841" />
              </g>
              <g
                 id="g2843"
                 transform="matrix(1,0,0,-1,-50.937,697.71086)">
                <path
                   d="m 1019.836,-197.039 c 6.719,-3.152 21.309,-6.816 15.941,6.066 -2.644,8.328 -22.297,0.895 -16.609,-6.277"
                   style="fill:none;stroke:#000000;stroke-width:1.26872;stroke-linecap:round;stroke-linejoin:round;stroke-miterlimit:10;stroke-dasharray:none;stroke-opacity:1"
                   id="path2845" />
              </g>
              <g
                 id="g2847"
                 transform="matrix(1,0,0,-1,-50.937,697.71086)">
                <path
                   d="m 1017.285,-190.379 c 3.164,4.395 17.754,7.231 5.785,8.906 -5.832,3.325 -15.597,2.993 -12.09,-6.144 -0.871,-7.942 6.446,4.898 5.985,-3.625"
                   style="fill:none;stroke:#000000;stroke-width:1.26872;stroke-linecap:round;stroke-linejoin:round;stroke-miterlimit:10;stroke-dasharray:none;stroke-opacity:1"
                   id="path2849" />
              </g>
              <g
                 id="g2851"
                 transform="matrix(1,0,0,-1,-50.937,697.71086)">
                <path
                   d="m 1013.703,-191.91 c 0.57,-4.992 -0.562,-7.945 -6.488,-4.977 -9.942,3.028 6.469,2.973 6.41,6.028"
                   style="fill:none;stroke:#000000;stroke-width:1.26872;stroke-linecap:round;stroke-linejoin:round;stroke-miterlimit:10;stroke-dasharray:none;stroke-opacity:1"
                   id="path2853" />
              </g>
            </g>
          </g>
        </g>
      </g>
    </g>
  </g>
</svg>
