<?xml version="1.0" encoding="UTF-8" standalone="no"?>
<!-- Created by Ashley Blewer - This work is licensed under a Creative Commons Attribution 4.0 International License -->

<svg
   width="544"
   height="480"
   viewBox="0 0 143.93334 127"
   version="1.1"
   id="svg2490"
   inkscape:version="1.2.2 (1:1.2.2+202212051552+b0a8486541)"
   sodipodi:docname="1952-cinerama-3.svg"
   xmlns:inkscape="http://www.inkscape.org/namespaces/inkscape"
   xmlns:sodipodi="http://sodipodi.sourceforge.net/DTD/sodipodi-0.dtd"
   xmlns="http://www.w3.org/2000/svg"
   xmlns:svg="http://www.w3.org/2000/svg">
  <sodipodi:namedview
     id="namedview2492"
     pagecolor="#ffffff"
     bordercolor="#666666"
     borderopacity="1.0"
     inkscape:pageshadow="2"
     inkscape:pageopacity="0.0"
     inkscape:pagecheckerboard="0"
     inkscape:document-units="mm"
     showgrid="false"
     units="px"
     inkscape:zoom="0.90583674"
     inkscape:cx="336.15329"
     inkscape:cy="254.46086"
     inkscape:window-width="1846"
     inkscape:window-height="1136"
     inkscape:window-x="0"
     inkscape:window-y="0"
     inkscape:window-maximized="1"
     inkscape:current-layer="g6395"
     inkscape:showpageshadow="2"
     inkscape:deskcolor="#d1d1d1" />
  <defs
     id="defs2487" />
  <g
     inkscape:label="Layer 1"
     inkscape:groupmode="layer"
     id="layer1">
    <g
       id="g4731"
       transform="matrix(0.32961229,0,0,0.32903008,-241.78905,1.73126)"
       style="stroke-width:2.68698">
      <g
         id="g104528"
         transform="matrix(1,0,0,-1,0,792)"
         style="stroke-width:2.68698">
        <g
           id="g104530"
           style="stroke-width:2.68698" />
      </g>
      <g
         id="g104996"
         transform="matrix(1,0,0,-1,0,792)"
         style="stroke-width:2.68698">
        <g
           id="g104998"
           style="stroke-width:2.68698" />
      </g>
      <g
         id="g28852"
         transform="matrix(1.070281,0,0,1.0721748,779.91249,-443.13657)">
        <g
           id="g6718"
           transform="matrix(1.117886,0,0,1.117886,-549.13111,-491.62865)">
          <g
             id="g6395"
             transform="matrix(0.53415107,0,0,0.53415109,441.93669,415.26868)">
            <g
               id="g145817"
               transform="matrix(3.9069858,0,0,3.9069858,-2676.1093,-1442.2464)">
              <g
                 id="g2644"
                 transform="matrix(0.736505,0,0,-0.736505,666.9067,199.89156)">
                <path
                   d="m 91.473,-507.23 c -6.368,4.031 -17.934,1.511 -20.535,-6.696 -7.524,-13.797 -8.516,-31.09 -3.629,-46.262 3.339,-7.148 8.046,-13.949 17.238,-12.601 0.863,0.094 9.601,-0.227 10.207,0.519"
                   style="fill:none;stroke:#000000;stroke-width:2.61674;stroke-linecap:round;stroke-linejoin:round;stroke-miterlimit:10;stroke-dasharray:none;stroke-opacity:1"
                   id="path2646" />
              </g>
              <g
                 id="g2648"
                 transform="matrix(0.736505,0,0,-0.736505,666.9067,199.89156)">
                <path
                   d="m 94.754,-572.27 c -23.922,-4.652 -32.859,-33.242 -26.039,-54.324 2.605,-11.894 10.914,-27.246 25.422,-24.679"
                   style="fill:none;stroke:#000000;stroke-width:2.61674;stroke-linecap:round;stroke-linejoin:round;stroke-miterlimit:10;stroke-dasharray:none;stroke-opacity:1"
                   id="path2650" />
              </g>
              <g
                 id="g2652"
                 transform="matrix(0.736505,0,0,-0.736505,666.9067,199.89156)">
                <path
                   d="m 94.07,-499.598 c 0,0 -0.855,-15.539 -0.218,-21.281 0.527,-15.207 0.101,-30.914 -0.661,-47.062 0.934,-6.223 0.762,-12.911 0.942,-19.469 0.762,-11.895 -1.078,-25.758 -0.235,-38.215 -1.293,-8.328 0.672,-21.871 0.051,-25.867 0.051,0.816 0.93,-4.82 0.989,-7.934 0.281,-1.719 -0.145,-2.031 0.839,-3.988"
                   style="fill:none;stroke:#000000;stroke-width:2.61674;stroke-linecap:round;stroke-linejoin:round;stroke-miterlimit:10;stroke-dasharray:none;stroke-opacity:1"
                   id="path2654" />
              </g>
              <g
                 id="g2656"
                 transform="matrix(0.736505,0,0,-0.736505,666.9067,199.89156)">
                <path
                   d="m 94.07,-664.039 c 0.618,1.773 -1.715,-3.051 -1.187,-4.047 -1.238,-4.305 0.508,-8.242 1.277,-12.687 1.313,-0.165 0.434,0.621 0.688,1.066"
                   style="fill:none;stroke:#000000;stroke-width:2.61674;stroke-linecap:round;stroke-linejoin:round;stroke-miterlimit:10;stroke-dasharray:none;stroke-opacity:1"
                   id="path2658" />
              </g>
              <g
                 id="g2660"
                 transform="matrix(0.736505,0,0,-0.736505,666.9067,199.89156)">
                <path
                   d="m 94.07,-499.598 c 33.258,2.809 67.067,7.524 100.278,2.004 3.035,-0.664 6.027,-1.652 8.734,-3.199"
                   style="fill:none;stroke:#000000;stroke-width:2.61674;stroke-linecap:round;stroke-linejoin:round;stroke-miterlimit:10;stroke-dasharray:none;stroke-opacity:1"
                   id="path2662" />
              </g>
              <g
                 id="g2664"
                 transform="matrix(0.736505,0,0,-0.736505,666.9067,199.89156)">
                <path
                   d="m 203.082,-500.793 c 0.988,-60.187 -4.512,-120.559 2.031,-180.582"
                   style="fill:none;stroke:#000000;stroke-width:2.61674;stroke-linecap:round;stroke-linejoin:round;stroke-miterlimit:10;stroke-dasharray:none;stroke-opacity:1"
                   id="path2666" />
              </g>
              <g
                 id="g2668"
                 transform="matrix(0.736505,0,0,-0.736505,666.9067,199.89156)">
                <path
                   d="m 203.738,-507.887 c 14.774,7.321 31.176,-5.562 32.379,-20.894 5.547,-16.391 2.586,-39.629 -15.605,-46.469 l -19.223,2.715"
                   style="fill:none;stroke:#000000;stroke-width:2.61674;stroke-linecap:round;stroke-linejoin:round;stroke-miterlimit:10;stroke-dasharray:none;stroke-opacity:1"
                   id="path2670" />
              </g>
              <g
                 id="g2672"
                 transform="matrix(0.736505,0,0,-0.736505,666.9067,199.89156)">
                <path
                   d="m 201.289,-572.535 c 14.156,2.183 33.695,-10.754 36.035,-25.637 5.129,-15.086 6.539,-36.762 -9.375,-45.922 -6.64,-3.715 -18.297,-7.515 -25.89,-4.687"
                   style="fill:none;stroke:#000000;stroke-width:2.61674;stroke-linecap:round;stroke-linejoin:round;stroke-miterlimit:10;stroke-dasharray:none;stroke-opacity:1"
                   id="path2674" />
              </g>
              <g
                 id="g2676"
                 transform="matrix(0.736505,0,0,-0.736505,666.9067,199.89156)">
                <path
                   d="m 94.848,-679.707 c 36.765,0.387 110.265,-1.668 110.265,-1.668"
                   style="fill:none;stroke:#000000;stroke-width:2.61674;stroke-linecap:round;stroke-linejoin:round;stroke-miterlimit:10;stroke-dasharray:none;stroke-opacity:1"
                   id="path2678" />
              </g>
              <g
                 id="g2792"
                 transform="matrix(0.736505,0,0,-0.736505,666.9067,199.89156)">
                <path
                   d="m 94.754,-572.27 c 10.195,1.567 23.699,0.211 34.051,0.422 -0.75,0.129 2.527,-0.246 1.164,-0.168"
                   style="fill:none;stroke:#000000;stroke-width:2.61674;stroke-linecap:round;stroke-linejoin:round;stroke-miterlimit:10;stroke-dasharray:none;stroke-opacity:1"
                   id="path2794" />
              </g>
              <g
                 id="g2796"
                 transform="matrix(0.736505,0,0,-0.736505,666.9067,199.89156)">
                <path
                   d="m 138.02,-566.242 c -2.782,-2.086 -2.704,-5.887 -2.801,-9.012 0.308,-6.547 6.484,-11.594 12.781,-11.965 5.914,0.153 11.848,4.223 13.395,10.078 0.656,3.344 0.394,6.977 -1.168,10.036"
                   style="fill:none;stroke:#000000;stroke-width:2.61674;stroke-linecap:round;stroke-linejoin:round;stroke-miterlimit:10;stroke-dasharray:none;stroke-opacity:1"
                   id="path2798" />
              </g>
              <g
                 id="g2800"
                 transform="matrix(0.736505,0,0,-0.736505,666.9067,199.89156)">
                <path
                   d="m 165.66,-572.141 c 5.731,0.149 15.195,0.223 21.77,-0.015 4.25,-0.063 11.078,-0.024 13.859,-0.379"
                   style="fill:none;stroke:#000000;stroke-width:2.61674;stroke-linecap:round;stroke-linejoin:round;stroke-miterlimit:10;stroke-dasharray:none;stroke-opacity:1"
                   id="path2802" />
              </g>
              <g
                 id="g2804"
                 transform="matrix(0.736505,0,0,-0.736505,666.9067,199.89156)">
                <path
                   d="m 162.738,-581.648 c 4.008,-2.79 8.563,-4.872 12,-8.434"
                   style="fill:none;stroke:#000000;stroke-width:2.61674;stroke-linecap:round;stroke-linejoin:round;stroke-miterlimit:10;stroke-dasharray:none;stroke-opacity:1"
                   id="path2806" />
              </g>
              <g
                 id="g2808"
                 transform="matrix(0.736505,0,0,-0.736505,666.9067,199.89156)">
                <path
                   d="m 158.074,-587.352 c 0.672,-1.332 3.223,-6.714 3.828,-8.074"
                   style="fill:none;stroke:#000000;stroke-width:2.61674;stroke-linecap:round;stroke-linejoin:round;stroke-miterlimit:10;stroke-dasharray:none;stroke-opacity:1"
                   id="path2810" />
              </g>
              <g
                 id="g2812"
                 transform="matrix(0.736505,0,0,-0.736505,666.9067,199.89156)">
                <path
                   d="m 147.812,-588.812 c -0.089,-1.055 -0.445,-5.266 -0.535,-6.321"
                   style="fill:none;stroke:#000000;stroke-width:2.61674;stroke-linecap:round;stroke-linejoin:round;stroke-miterlimit:10;stroke-dasharray:none;stroke-opacity:1"
                   id="path2814" />
              </g>
              <g
                 id="g2816"
                 transform="matrix(0.736505,0,0,-0.736505,666.9067,199.89156)">
                <path
                   d="m 138.965,-586.102 c -0.531,-1.191 -3.258,-5.601 -4.09,-6.617"
                   style="fill:none;stroke:#000000;stroke-width:2.61674;stroke-linecap:round;stroke-linejoin:round;stroke-miterlimit:10;stroke-dasharray:none;stroke-opacity:1"
                   id="path2818" />
              </g>
              <g
                 id="g2820"
                 transform="matrix(0.736505,0,0,-0.736505,666.9067,199.89156)">
                <path
                   d="m 134.816,-578.367 c -5.558,-4.192 -11.789,-7.442 -17.078,-11.996"
                   style="fill:none;stroke:#000000;stroke-width:2.61674;stroke-linecap:round;stroke-linejoin:round;stroke-miterlimit:10;stroke-dasharray:none;stroke-opacity:1"
                   id="path2822" />
              </g>
              <g
                 id="g2824"
                 transform="matrix(0.736505,0,0,-0.736505,666.9067,199.89156)">
                <path
                   d="m 98.09,-623.172 c 6.191,0.426 19.937,1.203 23.64,1.254 -0.296,0.082 0.887,-0.195 0.247,-0.164"
                   style="fill:none;stroke:#000000;stroke-width:2.61674;stroke-linecap:round;stroke-linejoin:round;stroke-miterlimit:10;stroke-dasharray:none;stroke-opacity:1"
                   id="path2826" />
              </g>
              <g
                 id="g2828"
                 transform="matrix(0.736505,0,0,-0.736505,666.9067,199.89156)">
                <path
                   d="m 126.617,-627.152 c 4.621,0.867 11.922,0.195 17.629,0.461 9.051,-0.696 20.231,-2.2 27.867,-1.403 l -0.293,0.149"
                   style="fill:none;stroke:#000000;stroke-width:2.61674;stroke-linecap:round;stroke-linejoin:round;stroke-miterlimit:10;stroke-dasharray:none;stroke-opacity:1"
                   id="path2830" />
              </g>
              <g
                 id="g2832"
                 transform="matrix(0.736505,0,0,-0.736505,666.9067,199.89156)">
                <path
                   d="m 171.648,-625.836 c 6.305,3.063 16.239,0.141 23.922,0.281 1.114,-0.312 8.02,1.157 6.16,-0.047"
                   style="fill:none;stroke:#000000;stroke-width:2.61674;stroke-linecap:round;stroke-linejoin:round;stroke-miterlimit:10;stroke-dasharray:none;stroke-opacity:1"
                   id="path2834" />
              </g>
              <g
                 id="g2836"
                 transform="matrix(0.736505,0,0,-0.736505,666.9067,199.89156)">
                <path
                   d="m 123.012,-628.727 c -3.207,-14.652 0.742,-30.324 -1.028,-44.445"
                   style="fill:none;stroke:#000000;stroke-width:2.61674;stroke-linecap:round;stroke-linejoin:round;stroke-miterlimit:10;stroke-dasharray:none;stroke-opacity:1"
                   id="path2838" />
              </g>
              <g
                 id="g2840"
                 transform="matrix(0.736505,0,0,-0.736505,666.9067,199.89156)">
                <path
                   d="m 125.102,-627.461 c 19.218,1.324 39.695,0.023 59.16,-1.437 -1.246,0.066 1.32,-0.211 -0.235,-0.149"
                   style="fill:none;stroke:#000000;stroke-width:2.61674;stroke-linecap:round;stroke-linejoin:round;stroke-miterlimit:10;stroke-dasharray:none;stroke-opacity:1"
                   id="path2842" />
              </g>
              <g
                 id="g2844"
                 transform="matrix(0.736505,0,0,-0.736505,666.9067,199.89156)">
                <path
                   d="m 184.5,-629.066 c 3.262,-1.336 5.141,-8.039 6.559,-11.766 1.464,-7.051 0.984,-12.957 -0.024,-19.926 -0.851,-3.199 -1.316,-8.972 -2.844,-10.48 1.067,-0.602 0.157,-0.571 -0.429,-0.535"
                   style="fill:none;stroke:#000000;stroke-width:2.61674;stroke-linecap:round;stroke-linejoin:round;stroke-miterlimit:10;stroke-dasharray:none;stroke-opacity:1"
                   id="path2846" />
              </g>
              <g
                 id="g2848"
                 transform="matrix(0.736505,0,0,-0.736505,666.9067,199.89156)">
                <path
                   d="m 121.984,-673.172 c 7.75,1.391 19.106,0.277 28.215,0.098 12.028,-0.36 26.149,0.129 36.875,0.097 0.75,-0.011 0.176,-0.054 -0.472,-0.089"
                   style="fill:none;stroke:#000000;stroke-width:2.61674;stroke-linecap:round;stroke-linejoin:round;stroke-miterlimit:10;stroke-dasharray:none;stroke-opacity:1"
                   id="path2850" />
              </g>
              <g
                 id="g2868"
                 transform="matrix(0.736505,0,0,-0.736505,666.9067,199.89156)">
                <path
                   d="m 76.664,-533.75 c 3.457,6.547 14.609,3.414 14.469,-4.023 2.918,-6.61 -1.942,-16.165 -8.992,-17.086 -8.703,2.019 -10.469,14.41 -6.879,21.113 0.59,0.527 1.488,0.715 1.863,1.266"
                   style="fill:none;stroke:#000000;stroke-width:2.61674;stroke-linecap:round;stroke-linejoin:round;stroke-miterlimit:10;stroke-dasharray:none;stroke-opacity:1"
                   id="path2870" />
              </g>
              <g
                 id="g2872"
                 transform="matrix(0.736505,0,0,-0.736505,666.9067,199.89156)">
                <path
                   d="m 75.453,-609.348 c -0.609,4.477 7.848,12.45 12.465,6.614 4.734,-5.344 8.809,-13.5 2.621,-19.086 -3.68,-6.125 -15.547,-5.024 -14.719,3.91 -0.843,4.965 -0.422,13.433 3.348,15.726"
                   style="fill:none;stroke:#000000;stroke-width:2.61674;stroke-linecap:round;stroke-linejoin:round;stroke-miterlimit:10;stroke-dasharray:none;stroke-opacity:1"
                   id="path2874" />
              </g>
              <g
                 id="g3176"
                 transform="matrix(0.736505,0,0,-0.736505,666.9067,199.89156)">
                <path
                   d="m 106.785,-502.18 c 0.711,-20.593 -4.617,-41.23 -0.801,-61.734"
                   style="fill:none;stroke:#000000;stroke-width:1.26872;stroke-linecap:round;stroke-linejoin:round;stroke-miterlimit:10;stroke-dasharray:none;stroke-opacity:1"
                   id="path3178" />
              </g>
              <g
                 id="g3180"
                 transform="matrix(0.736505,0,0,-0.736505,666.9067,199.89156)">
                <path
                   d="m 187.168,-500.824 c -0.168,-21.145 2.641,-42.238 1.492,-63.387"
                   style="fill:none;stroke:#000000;stroke-width:1.26872;stroke-linecap:round;stroke-linejoin:round;stroke-miterlimit:10;stroke-dasharray:none;stroke-opacity:1"
                   id="path3182" />
              </g>
              <g
                 id="g3184"
                 transform="matrix(0.736505,0,0,-0.736505,666.9067,199.89156)">
                <path
                   d="m 180.453,-503.68 -0.336,-61.168"
                   style="fill:none;stroke:#000000;stroke-width:1.26872;stroke-linecap:round;stroke-linejoin:round;stroke-miterlimit:10;stroke-dasharray:none;stroke-opacity:1"
                   id="path3186" />
              </g>
              <g
                 id="g3188"
                 transform="matrix(0.736505,0,0,-0.736505,666.9067,199.89156)">
                <path
                   d="m 112.531,-564.547 0.168,62.336"
                   style="fill:none;stroke:#000000;stroke-width:1.26872;stroke-linecap:round;stroke-linejoin:round;stroke-miterlimit:10;stroke-dasharray:none;stroke-opacity:1"
                   id="path3190" />
              </g>
              <g
                 id="g3192"
                 transform="matrix(0.736505,0,0,-0.736505,666.9067,199.89156)">
                <path
                   d="m 117.105,-506.273 c 2.165,0.109 9.305,4.007 13.637,3.828 15.77,-0.696 31.391,0.25 46.719,-2.797 -0.363,0.211 -0.762,-0.387 -1.07,-1.117"
                   style="fill:none;stroke:#000000;stroke-width:1.26872;stroke-linecap:round;stroke-linejoin:round;stroke-miterlimit:10;stroke-dasharray:none;stroke-opacity:1"
                   id="path3194" />
              </g>
              <g
                 id="g3196"
                 transform="matrix(0.736505,0,0,-0.736505,666.9067,199.89156)">
                <path
                   d="m 126.555,-509.605 c 2.742,1.296 10.769,2.828 15.633,2.484 4.57,0.019 11.113,0.82 14.613,-0.293"
                   style="fill:none;stroke:#000000;stroke-width:1.26872;stroke-linecap:round;stroke-linejoin:round;stroke-miterlimit:10;stroke-dasharray:none;stroke-opacity:1"
                   id="path3198" />
              </g>
              <g
                 id="g3200"
                 transform="matrix(0.736505,0,0,-0.736505,666.9067,199.89156)">
                <path
                   d="m 119.809,-513.133 c 3.679,-9.027 15.066,-7.242 22.632,-5.324 10.813,1.625 23.016,1.645 31.399,9.758"
                   style="fill:none;stroke:#000000;stroke-width:1.26872;stroke-linecap:round;stroke-linejoin:round;stroke-miterlimit:10;stroke-dasharray:none;stroke-opacity:1"
                   id="path3202" />
              </g>
              <g
                 id="g3204"
                 transform="matrix(0.736505,0,0,-0.736505,666.9067,199.89156)">
                <path
                   d="m 168.395,-512.613 c -0.313,-1.641 1.269,-16.289 0.57,-19.645 0.664,-5.058 0.312,-10.191 1.308,-13.75 1.118,-0.414 0.875,-2.683 -0.253,-1.262"
                   style="fill:none;stroke:#000000;stroke-width:1.26872;stroke-linecap:round;stroke-linejoin:round;stroke-miterlimit:10;stroke-dasharray:none;stroke-opacity:1"
                   id="path3206" />
              </g>
              <g
                 id="g3208"
                 transform="matrix(0.736505,0,0,-0.736505,666.9067,199.89156)">
                <path
                   d="m 161.43,-519.766 c -0.289,-0.019 -0.274,-11.492 -0.5,-13.711 0.164,-4.699 -1.016,-10.453 0.824,-11.992 3.012,-1.383 6.402,-2.414 8.941,-2.648"
                   style="fill:none;stroke:#000000;stroke-width:1.26872;stroke-linecap:round;stroke-linejoin:round;stroke-miterlimit:10;stroke-dasharray:none;stroke-opacity:1"
                   id="path3210" />
              </g>
              <g
                 id="g3212"
                 transform="matrix(0.736505,0,0,-0.736505,666.9067,199.89156)">
                <path
                   d="m 145.145,-529.066 c -1.715,0.742 -1.153,-8.528 3.793,-6.379 4.546,1.593 -1.614,7.062 -3.793,6.379"
                   style="fill:none;stroke:#000000;stroke-width:1.26872;stroke-linecap:round;stroke-linejoin:round;stroke-miterlimit:10;stroke-dasharray:none;stroke-opacity:1"
                   id="path3214" />
              </g>
              <g
                 id="g3216"
                 transform="matrix(0.736505,0,0,-0.736505,666.9067,199.89156)">
                <path
                   d="m 137.375,-526.836 c 1.598,0.906 15.383,1.543 17.266,0.992 l -0.043,-0.484"
                   style="fill:none;stroke:#000000;stroke-width:1.26872;stroke-linecap:round;stroke-linejoin:round;stroke-miterlimit:10;stroke-dasharray:none;stroke-opacity:1"
                   id="path3218" />
              </g>
              <g
                 id="g3220"
                 transform="matrix(0.736505,0,0,-0.736505,666.9067,199.89156)">
                <path
                   d="m 154.902,-527.055 c 0.668,-1.425 -0.757,-9.691 -0.214,-10.543 l -0.54,0.157 -0.234,0.183"
                   style="fill:none;stroke:#000000;stroke-width:1.26872;stroke-linecap:round;stroke-linejoin:round;stroke-miterlimit:10;stroke-dasharray:none;stroke-opacity:1"
                   id="path3222" />
              </g>
              <g
                 id="g3224"
                 transform="matrix(0.736505,0,0,-0.736505,666.9067,199.89156)">
                <path
                   d="m 137.375,-526.836 c 0.102,-0.992 1.813,-9.129 1.238,-10.262 l 0.692,0.032"
                   style="fill:none;stroke:#000000;stroke-width:1.26872;stroke-linecap:round;stroke-linejoin:round;stroke-miterlimit:10;stroke-dasharray:none;stroke-opacity:1"
                   id="path3226" />
              </g>
              <g
                 id="g3228"
                 transform="matrix(0.736505,0,0,-0.736505,666.9067,199.89156)">
                <path
                   d="m 139.781,-537.543 c -0.285,-0.781 10.004,-0.508 13.211,-0.598"
                   style="fill:none;stroke:#000000;stroke-width:1.26872;stroke-linecap:round;stroke-linejoin:round;stroke-miterlimit:10;stroke-dasharray:none;stroke-opacity:1"
                   id="path3230" />
              </g>
              <g
                 id="g3232"
                 transform="matrix(0.736505,0,0,-0.736505,666.9067,199.89156)">
                <path
                   d="m 133.922,-522.555 c -0.426,-3.691 0.746,-14.957 -0.199,-17.394 l 0.636,0.094"
                   style="fill:none;stroke:#000000;stroke-width:1.26872;stroke-linecap:round;stroke-linejoin:round;stroke-miterlimit:10;stroke-dasharray:none;stroke-opacity:1"
                   id="path3234" />
              </g>
              <g
                 id="g3236"
                 transform="matrix(0.736505,0,0,-0.736505,666.9067,199.89156)">
                <path
                   d="m 124.598,-521.086 c 0.402,-3.226 0.281,-9.48 0.371,-14.004 -0.805,-1.945 -0.442,-12.734 -1.305,-12.137"
                   style="fill:none;stroke:#000000;stroke-width:1.26872;stroke-linecap:round;stroke-linejoin:round;stroke-miterlimit:10;stroke-dasharray:none;stroke-opacity:1"
                   id="path3238" />
              </g>
              <g
                 id="g3240"
                 transform="matrix(0.736505,0,0,-0.736505,666.9067,199.89156)">
                <path
                   d="m 123.664,-547.227 c 0.922,0.747 9.199,5.93 10.695,7.372"
                   style="fill:none;stroke:#000000;stroke-width:1.26872;stroke-linecap:round;stroke-linejoin:round;stroke-miterlimit:10;stroke-dasharray:none;stroke-opacity:1"
                   id="path3242" />
              </g>
              <g
                 id="g3244"
                 transform="matrix(0.736505,0,0,-0.736505,666.9067,199.89156)">
                <path
                   d="m 113.766,-549.609 c 21.199,-0.575 42.41,-0.875 63.613,-0.543"
                   style="fill:none;stroke:#000000;stroke-width:1.26872;stroke-linecap:round;stroke-linejoin:round;stroke-miterlimit:10;stroke-dasharray:none;stroke-opacity:1"
                   id="path3246" />
              </g>
              <g
                 id="g3248"
                 transform="matrix(0.736505,0,0,-0.736505,666.9067,199.89156)">
                <path
                   d="m 82.188,-532.695 c -2.485,-0.196 1.75,-6.551 2.851,-1.864 0.023,1.18 -2.691,1.668 -2.809,0.489"
                   style="fill:none;stroke:#000000;stroke-width:1.26872;stroke-linecap:round;stroke-linejoin:round;stroke-miterlimit:10;stroke-dasharray:none;stroke-opacity:1"
                   id="path3250" />
              </g>
              <g
                 id="g3252"
                 transform="matrix(0.736505,0,0,-0.736505,666.9067,199.89156)">
                <path
                   d="m 85.648,-540.484 c -2.765,-1.899 6.774,-4.786 0.176,-0.614 l -0.351,-0.117 -0.469,-0.457"
                   style="fill:none;stroke:#000000;stroke-width:1.26872;stroke-linecap:round;stroke-linejoin:round;stroke-miterlimit:10;stroke-dasharray:none;stroke-opacity:1"
                   id="path3254" />
              </g>
              <g
                 id="g3256"
                 transform="matrix(0.736505,0,0,-0.736505,666.9067,199.89156)">
                <path
                   d="m 82.758,-546.824 c -1.625,-1.258 5.156,-3.887 2.168,0.816 l -0.961,0.168"
                   style="fill:none;stroke:#000000;stroke-width:1.26872;stroke-linecap:round;stroke-linejoin:round;stroke-miterlimit:10;stroke-dasharray:none;stroke-opacity:1"
                   id="path3258" />
              </g>
              <g
                 id="g3260"
                 transform="matrix(0.736505,0,0,-0.736505,666.9067,199.89156)">
                <path
                   d="m 78.215,-544.289 c -7.535,-1.574 8.203,-3.176 -0.867,1.156"
                   style="fill:none;stroke:#000000;stroke-width:1.26872;stroke-linecap:round;stroke-linejoin:round;stroke-miterlimit:10;stroke-dasharray:none;stroke-opacity:1"
                   id="path3262" />
              </g>
              <g
                 id="g3264"
                 transform="matrix(0.736505,0,0,-0.736505,666.9067,199.89156)">
                <path
                   d="m 77.785,-537.254 c -2.332,-3.336 6.586,-5.519 2.981,-1.273 -0.715,0.152 -2.004,1.402 -2.7,0.547"
                   style="fill:none;stroke:#000000;stroke-width:1.26872;stroke-linecap:round;stroke-linejoin:round;stroke-miterlimit:10;stroke-dasharray:none;stroke-opacity:1"
                   id="path3266" />
              </g>
              <g
                 id="g3268"
                 transform="matrix(0.736505,0,0,-0.736505,666.9067,199.89156)">
                <path
                   d="m 81.422,-604.652 c -1.785,-5.653 6.695,-1.582 -0.676,-0.36 l 0.117,-0.144"
                   style="fill:none;stroke:#000000;stroke-width:1.26872;stroke-linecap:round;stroke-linejoin:round;stroke-miterlimit:10;stroke-dasharray:none;stroke-opacity:1"
                   id="path3270" />
              </g>
              <g
                 id="g3272"
                 transform="matrix(0.736505,0,0,-0.736505,666.9067,199.89156)">
                <path
                   d="m 86.992,-609.391 c -4.031,-3.328 6.203,-2.562 -0.125,-0.019 l -0.633,-0.074"
                   style="fill:none;stroke:#000000;stroke-width:1.26872;stroke-linecap:round;stroke-linejoin:round;stroke-miterlimit:10;stroke-dasharray:none;stroke-opacity:1"
                   id="path3274" />
              </g>
              <g
                 id="g3276"
                 transform="matrix(0.736505,0,0,-0.736505,666.9067,199.89156)">
                <path
                   d="m 85.316,-615.742 c -5.961,-4.934 7.872,-4.504 1.532,-0.82 l -0.723,-0.145"
                   style="fill:none;stroke:#000000;stroke-width:1.26872;stroke-linecap:round;stroke-linejoin:round;stroke-miterlimit:10;stroke-dasharray:none;stroke-opacity:1"
                   id="path3278" />
              </g>
              <g
                 id="g3280"
                 transform="matrix(0.736505,0,0,-0.736505,666.9067,199.89156)">
                <path
                   d="m 81.391,-617.938 c -5.289,-1.648 5.461,-3.253 -1.059,-0.062 l -1.02,0.066 -0.222,0.129"
                   style="fill:none;stroke:#000000;stroke-width:1.26872;stroke-linecap:round;stroke-linejoin:round;stroke-miterlimit:10;stroke-dasharray:none;stroke-opacity:1"
                   id="path3282" />
              </g>
              <g
                 id="g3284"
                 transform="matrix(0.736505,0,0,-0.736505,666.9067,199.89156)">
                <path
                   d="m 79.09,-611.008 c -4.684,-5.359 6.601,-4.137 1.254,-0.457 l -0.621,0.055 -0.434,-0.074"
                   style="fill:none;stroke:#000000;stroke-width:1.26872;stroke-linecap:round;stroke-linejoin:round;stroke-miterlimit:10;stroke-dasharray:none;stroke-opacity:1"
                   id="path3286" />
              </g>
              <g
                 id="g3288"
                 transform="matrix(0.736505,0,0,-0.736505,666.9067,199.89156)">
                <path
                   d="m 95.91,-629.195 c 2.828,-0.422 5.699,-0.18 8.543,-0.196 0.965,0.016 1.926,0.032 2.891,0.036"
                   style="fill:none;stroke:#000000;stroke-width:1.26872;stroke-linecap:round;stroke-linejoin:round;stroke-miterlimit:10;stroke-dasharray:none;stroke-opacity:1"
                   id="path3290" />
              </g>
              <g
                 id="g3292"
                 transform="matrix(0.736505,0,0,-0.736505,666.9067,199.89156)">
                <path
                   d="m 95.066,-637.871 c 0.09,-1.156 1.516,-1.254 2.414,-1.344 2.973,-0.254 5.926,0.363 8.899,0.348 0.156,0.047 0.105,0.262 0.082,0.367"
                   style="fill:none;stroke:#000000;stroke-width:1.26872;stroke-linecap:round;stroke-linejoin:round;stroke-miterlimit:10;stroke-dasharray:none;stroke-opacity:1"
                   id="path3294" />
              </g>
              <g
                 id="g3296"
                 transform="matrix(0.736505,0,0,-0.736505,666.9067,199.89156)">
                <path
                   d="m 107.156,-629.125 c -0.594,-3.352 0.328,-6.758 -0.109,-10.109 0.109,-0.2 0.461,0.074 0.613,0.058"
                   style="fill:none;stroke:#000000;stroke-width:1.26872;stroke-linecap:round;stroke-linejoin:round;stroke-miterlimit:10;stroke-dasharray:none;stroke-opacity:1"
                   id="path3298" />
              </g>
              <g
                 id="g3300"
                 transform="matrix(0.736505,0,0,-0.736505,666.9067,199.89156)">
                <path
                   d="m 110.02,-623.418 c -0.184,-5.352 -2.254,-15.391 1.519,-19.41 l -0.293,0.316 0.043,0.563"
                   style="fill:none;stroke:#000000;stroke-width:1.26872;stroke-linecap:round;stroke-linejoin:round;stroke-miterlimit:10;stroke-dasharray:none;stroke-opacity:1"
                   id="path3302" />
              </g>
              <g
                 id="g3304"
                 transform="matrix(0.736505,0,0,-0.736505,666.9067,199.89156)">
                <path
                   d="m 111.566,-642.707 c 1.86,0.996 8.18,0.328 4.664,4.699"
                   style="fill:none;stroke:#000000;stroke-width:1.26872;stroke-linecap:round;stroke-linejoin:round;stroke-miterlimit:10;stroke-dasharray:none;stroke-opacity:1"
                   id="path3306" />
              </g>
              <g
                 id="g3308"
                 transform="matrix(0.736505,0,0,-0.736505,666.9067,199.89156)">
                <path
                   d="m 118.441,-625.742 c 1.524,-2.735 -3.629,-9.43 -3.109,-13.781 1.664,-0.067 -0.973,-0.055 0.398,-0.313"
                   style="fill:none;stroke:#000000;stroke-width:1.26872;stroke-linecap:round;stroke-linejoin:round;stroke-miterlimit:10;stroke-dasharray:none;stroke-opacity:1"
                   id="path3310" />
              </g>
              <g
                 id="g3312"
                 transform="matrix(0.736505,0,0,-0.736505,666.9067,199.89156)">
                <path
                   d="m 115.238,-643.363 c 2.407,-3.801 0.242,-11.028 2.36,-16.207 0.777,-1.7 0.175,-5.227 1.23,-3.551"
                   style="fill:none;stroke:#000000;stroke-width:1.26872;stroke-linecap:round;stroke-linejoin:round;stroke-miterlimit:10;stroke-dasharray:none;stroke-opacity:1"
                   id="path3314" />
              </g>
              <g
                 id="g3316"
                 transform="matrix(0.736505,0,0,-0.736505,666.9067,199.89156)">
                <path
                   d="m 130.129,-630.43 c 0.121,-0.215 2.039,-5.078 2.141,-7.961 0.859,-8.105 0.691,-15.648 0.812,-23.281 -1.098,-3.058 -1.066,-10.016 -1.305,-10.254 l 0.016,1"
                   style="fill:none;stroke:#000000;stroke-width:1.26872;stroke-linecap:round;stroke-linejoin:round;stroke-miterlimit:10;stroke-dasharray:none;stroke-opacity:1"
                   id="path3318" />
              </g>
              <g
                 id="g3320"
                 transform="matrix(0.736505,0,0,-0.736505,666.9067,199.89156)">
                <path
                   d="m 174.68,-628.914 c 2.996,-5.141 3.488,-14.555 3.808,-21.742 0.653,-7.27 2.086,-15.637 -0.57,-21.496 -0.328,-0.41 0.352,0.629 -0.277,1.222"
                   style="fill:none;stroke:#000000;stroke-width:1.26872;stroke-linecap:round;stroke-linejoin:round;stroke-miterlimit:10;stroke-dasharray:none;stroke-opacity:1"
                   id="path3322" />
              </g>
              <g
                 id="g3324"
                 transform="matrix(0.736505,0,0,-0.736505,666.9067,199.89156)">
                <path
                   d="m 145.887,-647.809 c 3.242,-1.371 12.172,2.032 16.394,0.368 l -0.562,-0.036"
                   style="fill:none;stroke:#000000;stroke-width:1.26872;stroke-linecap:round;stroke-linejoin:round;stroke-miterlimit:10;stroke-dasharray:none;stroke-opacity:1"
                   id="path3326" />
              </g>
              <g
                 id="g3328"
                 transform="matrix(0.736505,0,0,-0.736505,666.9067,199.89156)">
                <path
                   d="m 165.098,-647.402 c -0.86,-1.547 0.367,-5.868 -1.469,-8.711 -0.742,-1.778 1.328,-3.34 -0.887,-1.543"
                   style="fill:none;stroke:#000000;stroke-width:1.26872;stroke-linecap:round;stroke-linejoin:round;stroke-miterlimit:10;stroke-dasharray:none;stroke-opacity:1"
                   id="path3330" />
              </g>
              <g
                 id="g3332"
                 transform="matrix(0.736505,0,0,-0.736505,666.9067,199.89156)">
                <path
                   d="m 147.258,-649.828 c 0.347,-0.004 1.308,-7.559 0.699,-8.16 1.797,0.261 -0.047,-0.051 0.605,0.312"
                   style="fill:none;stroke:#000000;stroke-width:1.26872;stroke-linecap:round;stroke-linejoin:round;stroke-miterlimit:10;stroke-dasharray:none;stroke-opacity:1"
                   id="path3334" />
              </g>
              <g
                 id="g3336"
                 transform="matrix(0.736505,0,0,-0.736505,666.9067,199.89156)">
                <path
                   d="m 149.246,-658.766 c -0.406,-1.558 7.199,-0.648 9.68,-0.949 1.207,0.383 5.578,-1.441 5.226,0.438"
                   style="fill:none;stroke:#000000;stroke-width:1.26872;stroke-linecap:round;stroke-linejoin:round;stroke-miterlimit:10;stroke-dasharray:none;stroke-opacity:1"
                   id="path3338" />
              </g>
              <g
                 id="g3340"
                 transform="matrix(0.736505,0,0,-0.736505,666.9067,199.89156)">
                <path
                   d="m 200.883,-659.559 c 2.168,-0.015 -6.75,0.239 -6.914,1.293"
                   style="fill:none;stroke:#000000;stroke-width:1.26872;stroke-linecap:round;stroke-linejoin:round;stroke-miterlimit:10;stroke-dasharray:none;stroke-opacity:1"
                   id="path3342" />
              </g>
              <g
                 id="g3344"
                 transform="matrix(0.736505,0,0,-0.736505,666.9067,199.89156)">
                <path
                   d="m 192.703,-657.535 c -0.004,-1.41 1.016,4.199 1.481,3 1.765,0.492 7.562,-0.844 6.855,-0.457"
                   style="fill:none;stroke:#000000;stroke-width:1.26872;stroke-linecap:round;stroke-linejoin:round;stroke-miterlimit:10;stroke-dasharray:none;stroke-opacity:1"
                   id="path3346" />
              </g>
              <g
                 id="g3348"
                 transform="matrix(0.736505,0,0,-0.736505,666.9067,199.89156)">
                <path
                   d="m 201.062,-655.141 c 0.7,0.188 0.118,-2.433 0.344,-2.347"
                   style="fill:none;stroke:#000000;stroke-width:1.26872;stroke-linecap:round;stroke-linejoin:round;stroke-miterlimit:10;stroke-dasharray:none;stroke-opacity:1"
                   id="path3350" />
              </g>
              <g
                 id="g3352"
                 transform="matrix(0.736505,0,0,-0.736505,666.9067,199.89156)">
                <path
                   d="m 202.566,-670.043 c -1.398,-1.086 -7.031,0.531 -5.011,0.473 -1.008,4.508 3.461,1.457 6.324,2.172"
                   style="fill:none;stroke:#000000;stroke-width:1.26872;stroke-linecap:round;stroke-linejoin:round;stroke-miterlimit:10;stroke-dasharray:none;stroke-opacity:1"
                   id="path3354" />
              </g>
              <g
                 id="g3468"
                 transform="matrix(0.736505,0,0,-0.736505,666.9067,199.89156)">
                <path
                   d="m 193.781,-506.258 c -1.379,-13.656 0.375,-27.398 -0.726,-41.066"
                   style="fill:none;stroke:#000000;stroke-width:1.26872;stroke-linecap:round;stroke-linejoin:round;stroke-miterlimit:10;stroke-dasharray:none;stroke-opacity:1"
                   id="path3470" />
              </g>
              <g
                 id="g3472"
                 transform="matrix(0.736505,0,0,-0.736505,666.9067,199.89156)">
                <path
                   d="m 99.016,-510.699 -0.254,-45.637"
                   style="fill:none;stroke:#000000;stroke-width:1.26872;stroke-linecap:round;stroke-linejoin:round;stroke-miterlimit:10;stroke-dasharray:none;stroke-opacity:1"
                   id="path3474" />
              </g>
              <g
                 id="g3476"
                 transform="matrix(0.736505,0,0,-0.736505,666.9067,199.89156)">
                <path
                   d="m 110.516,-629.059 c -1.172,1.2 6.089,-0.445 4.593,-0.105"
                   style="fill:none;stroke:#000000;stroke-width:1.26872;stroke-linecap:round;stroke-linejoin:round;stroke-miterlimit:10;stroke-dasharray:none;stroke-opacity:1"
                   id="path3478" />
              </g>
              <g
                 id="g3480"
                 transform="matrix(0.736505,0,0,-0.736505,666.9067,199.89156)">
                <path
                   d="m 110.266,-635.148 c -0.547,-1.161 2.937,-0.68 3.836,-1.575"
                   style="fill:none;stroke:#000000;stroke-width:1.26872;stroke-linecap:round;stroke-linejoin:round;stroke-miterlimit:10;stroke-dasharray:none;stroke-opacity:1"
                   id="path3482" />
              </g>
              <g
                 id="g3484"
                 transform="matrix(0.736505,0,0,-0.736505,666.9067,199.89156)">
                <path
                   d="m 108.867,-638.902 c 1.723,-1.786 4.301,0.035 6.09,-1.293"
                   style="fill:none;stroke:#000000;stroke-width:1.26872;stroke-linecap:round;stroke-linejoin:round;stroke-miterlimit:10;stroke-dasharray:none;stroke-opacity:1"
                   id="path3486" />
              </g>
              <g
                 id="g3488"
                 transform="matrix(0.736505,0,0,-0.736505,666.9067,199.89156)">
                <path
                   d="m 108.93,-643.445 c -1.41,-0.86 6.457,-1.575 6.242,-1.293"
                   style="fill:none;stroke:#000000;stroke-width:1.26872;stroke-linecap:round;stroke-linejoin:round;stroke-miterlimit:10;stroke-dasharray:none;stroke-opacity:1"
                   id="path3490" />
              </g>
              <g
                 id="g3492"
                 transform="matrix(0.736505,0,0,-0.736505,666.9067,199.89156)">
                <path
                   d="m 94.695,-647.883 c 1.91,-0.351 9.446,-1.137 13.348,-0.855 3.242,-0.469 5.574,1.101 7.273,-1.032"
                   style="fill:none;stroke:#000000;stroke-width:1.26872;stroke-linecap:round;stroke-linejoin:round;stroke-miterlimit:10;stroke-dasharray:none;stroke-opacity:1"
                   id="path3494" />
              </g>
            </g>
          </g>
        </g>
      </g>
    </g>
  </g>
</svg>
