<?xml version="1.0" encoding="UTF-8" standalone="no"?>
<!-- Created by Ashley Blewer - This work is licensed under a Creative Commons Attribution 4.0 International License -->

<svg
   width="544"
   height="480"
   viewBox="0 0 143.93334 127"
   version="1.1"
   id="svg2490"
   inkscape:version="1.2.2 (1:1.2.2+202212051552+b0a8486541)"
   sodipodi:docname="1952-cinerama-4.svg"
   xmlns:inkscape="http://www.inkscape.org/namespaces/inkscape"
   xmlns:sodipodi="http://sodipodi.sourceforge.net/DTD/sodipodi-0.dtd"
   xmlns="http://www.w3.org/2000/svg"
   xmlns:svg="http://www.w3.org/2000/svg">
  <sodipodi:namedview
     id="namedview2492"
     pagecolor="#ffffff"
     bordercolor="#666666"
     borderopacity="1.0"
     inkscape:pageshadow="2"
     inkscape:pageopacity="0.0"
     inkscape:pagecheckerboard="0"
     inkscape:document-units="mm"
     showgrid="false"
     units="px"
     inkscape:zoom="0.90583674"
     inkscape:cx="336.15329"
     inkscape:cy="254.46086"
     inkscape:window-width="1846"
     inkscape:window-height="1136"
     inkscape:window-x="0"
     inkscape:window-y="0"
     inkscape:window-maximized="1"
     inkscape:current-layer="g6395"
     inkscape:showpageshadow="2"
     inkscape:deskcolor="#d1d1d1" />
  <defs
     id="defs2487" />
  <g
     inkscape:label="Layer 1"
     inkscape:groupmode="layer"
     id="layer1">
    <g
       id="g4731"
       transform="matrix(0.32961229,0,0,0.32903008,-241.78905,1.73126)"
       style="stroke-width:2.68698">
      <g
         id="g104528"
         transform="matrix(1,0,0,-1,0,792)"
         style="stroke-width:2.68698">
        <g
           id="g104530"
           style="stroke-width:2.68698" />
      </g>
      <g
         id="g104996"
         transform="matrix(1,0,0,-1,0,792)"
         style="stroke-width:2.68698">
        <g
           id="g104998"
           style="stroke-width:2.68698" />
      </g>
      <g
         id="g28852"
         transform="matrix(1.070281,0,0,1.0721748,779.91249,-443.13657)">
        <g
           id="g6718"
           transform="matrix(1.117886,0,0,1.117886,-549.13111,-491.62865)">
          <g
             id="g6395"
             transform="matrix(0.53415107,0,0,0.53415109,441.93669,415.26868)">
            <g
               id="g145955"
               transform="matrix(3.7297333,0,0,3.7297333,-3076.0099,-1329.2362)">
              <g
                 id="g2680"
                 transform="matrix(0.736505,0,0,-0.736505,666.9067,199.89156)">
                <path
                   d="m 322.324,-509.949 c -12.793,10.773 -32.101,7.531 -46.242,1.406 -19.434,-9.258 -22.617,-34.773 -11.309,-51.574 4.954,-8.973 13.454,-16.5 23.872,-17.977"
                   style="fill:none;stroke:#000000;stroke-width:2.61674;stroke-linecap:round;stroke-linejoin:round;stroke-miterlimit:10;stroke-dasharray:none;stroke-opacity:1"
                   id="path2682" />
              </g>
              <g
                 id="g2684"
                 transform="matrix(0.736505,0,0,-0.736505,666.9067,199.89156)">
                <path
                   d="m 288.645,-578.094 c -20.735,-3.445 -30.786,-30.691 -25.446,-48.875 2.317,-17.941 19.656,-32.734 37.91,-27.222 7.254,1.191 15.703,3.078 21.442,7.781"
                   style="fill:none;stroke:#000000;stroke-width:2.61674;stroke-linecap:round;stroke-linejoin:round;stroke-miterlimit:10;stroke-dasharray:none;stroke-opacity:1"
                   id="path2686" />
              </g>
              <g
                 id="g2688"
                 transform="matrix(0.736505,0,0,-0.736505,666.9067,199.89156)">
                <path
                   d="m 322.324,-509.949 c -0.961,-26.524 4.926,-52.602 6.391,-78.934 0.273,-19.215 -0.57,-39.359 -6.164,-57.527 l -0.836,-0.028 -0.137,-0.007"
                   style="fill:none;stroke:#000000;stroke-width:2.61674;stroke-linecap:round;stroke-linejoin:round;stroke-miterlimit:10;stroke-dasharray:none;stroke-opacity:1"
                   id="path2690" />
              </g>
              <g
                 id="g2692"
                 transform="matrix(0.736505,0,0,-0.736505,666.9067,199.89156)">
                <path
                   d="m 292.109,-656.91 c 0.668,1.015 1.137,-5.52 0.469,-2.996"
                   style="fill:none;stroke:#000000;stroke-width:2.61674;stroke-linecap:round;stroke-linejoin:round;stroke-miterlimit:10;stroke-dasharray:none;stroke-opacity:1"
                   id="path2694" />
              </g>
              <g
                 id="g2696"
                 transform="matrix(0.736505,0,0,-0.736505,666.9067,199.89156)">
                <path
                   d="m 292.578,-659.906 c 3.707,-1.789 14.543,-8.41 19.992,-10.957 11.219,-4.203 24.629,-9.985 34.235,-12.055 -1.024,-0.262 0.531,0.617 -0.422,0.824"
                   style="fill:none;stroke:#000000;stroke-width:2.61674;stroke-linecap:round;stroke-linejoin:round;stroke-miterlimit:10;stroke-dasharray:none;stroke-opacity:1"
                   id="path2698" />
              </g>
              <g
                 id="g2700"
                 transform="matrix(0.736505,0,0,-0.736505,666.9067,199.89156)">
                <path
                   d="m 346.383,-682.094 c 28.211,5.645 59.129,6.571 87.035,13.86"
                   style="fill:none;stroke:#000000;stroke-width:2.61674;stroke-linecap:round;stroke-linejoin:round;stroke-miterlimit:10;stroke-dasharray:none;stroke-opacity:1"
                   id="path2702" />
              </g>
              <g
                 id="g2704"
                 transform="matrix(0.736505,0,0,-0.736505,666.9067,199.89156)">
                <path
                   d="m 431.234,-652.879 c 2.243,-2.469 1.223,-13.5 2.184,-15.355 l -0.684,0.777"
                   style="fill:none;stroke:#000000;stroke-width:2.61674;stroke-linecap:round;stroke-linejoin:round;stroke-miterlimit:10;stroke-dasharray:none;stroke-opacity:1"
                   id="path2706" />
              </g>
              <g
                 id="g2708"
                 transform="matrix(0.736505,0,0,-0.736505,666.9067,199.89156)">
                <path
                   d="m 322.324,-509.949 c -0.078,0.011 -5.281,12.867 -1.14,14.75 1.57,1.047 3.101,2.101 3.75,1.535"
                   style="fill:none;stroke:#000000;stroke-width:2.61674;stroke-linecap:round;stroke-linejoin:round;stroke-miterlimit:10;stroke-dasharray:none;stroke-opacity:1"
                   id="path2710" />
              </g>
              <g
                 id="g2712"
                 transform="matrix(0.736505,0,0,-0.736505,666.9067,199.89156)">
                <path
                   d="m 324.934,-493.664 c 11.246,1.195 28.878,0.898 41.031,0.074 16.207,-0.488 34.293,-1.41 49.301,-0.601 0.164,0.218 7.046,-3.461 6.05,-2.891"
                   style="fill:none;stroke:#000000;stroke-width:2.61674;stroke-linecap:round;stroke-linejoin:round;stroke-miterlimit:10;stroke-dasharray:none;stroke-opacity:1"
                   id="path2714" />
              </g>
              <g
                 id="g2716"
                 transform="matrix(0.736505,0,0,-0.736505,666.9067,199.89156)">
                <path
                   d="m 421.316,-497.082 c -1.004,-6.332 0.02,-12.711 0.668,-19.004 0.168,-7.828 -0.058,-15.726 -1.707,-23.41 0.438,-1.711 -0.164,-3.438 -0.246,-5.152"
                   style="fill:none;stroke:#000000;stroke-width:2.61674;stroke-linecap:round;stroke-linejoin:round;stroke-miterlimit:10;stroke-dasharray:none;stroke-opacity:1"
                   id="path2718" />
              </g>
              <g
                 id="g2720"
                 transform="matrix(0.736505,0,0,-0.736505,666.9067,199.89156)">
                <path
                   d="m 420.031,-544.648 c 3.133,-8.54 6.817,-19.821 2.938,-28.575 -2.188,-14.968 -3.125,-45.23 -3.125,-45.23 0.215,-1.981 -0.414,-4.051 0.195,-5.969"
                   style="fill:none;stroke:#000000;stroke-width:2.61674;stroke-linecap:round;stroke-linejoin:round;stroke-miterlimit:10;stroke-dasharray:none;stroke-opacity:1"
                   id="path2722" />
              </g>
              <g
                 id="g2724"
                 transform="matrix(0.736505,0,0,-0.736505,666.9067,199.89156)">
                <path
                   d="m 419.617,-624.074 c 2.676,-2.207 4.66,-8.082 5.324,-12.207 1.825,-4.731 0.594,-10.121 0.524,-13.446 -1.262,-1.753 5.785,-2.761 5.769,-3.152"
                   style="fill:none;stroke:#000000;stroke-width:2.61674;stroke-linecap:round;stroke-linejoin:round;stroke-miterlimit:10;stroke-dasharray:none;stroke-opacity:1"
                   id="path2726" />
              </g>
              <g
                 id="g2852"
                 transform="matrix(0.736505,0,0,-0.736505,666.9067,199.89156)">
                <path
                   d="m 290.176,-606.453 c 0.636,0.68 7.211,2.312 10.176,1.117 5.066,-0.84 8.656,-4.848 10.378,-9.055 1.29,-3.675 0.461,-7.101 -1.738,-10.781 -3.633,-5.965 -12.961,-7.844 -19.047,-4.406 -5.644,2.949 -8.445,9.187 -6.476,15.137 0.234,4.234 4.109,7.539 7.379,8.339"
                   style="fill:none;stroke:#000000;stroke-width:2.61674;stroke-linecap:round;stroke-linejoin:round;stroke-miterlimit:10;stroke-dasharray:none;stroke-opacity:1"
                   id="path2854" />
              </g>
              <g
                 id="g2856"
                 transform="matrix(0.736505,0,0,-0.736505,666.9067,199.89156)">
                <path
                   d="m 285.707,-530.512 c 5.723,5.395 17.211,4.309 19.992,-3.722 1.41,-4.821 1.957,-11.446 -2.609,-14.797 -5.379,-3.258 -13.36,-3.336 -18.102,1.199 -4.297,4.644 -2.363,11.773 -0.136,16.945 0.828,1.41 2.253,2.489 3.878,2.77"
                   style="fill:none;stroke:#000000;stroke-width:2.61674;stroke-linecap:round;stroke-linejoin:round;stroke-miterlimit:10;stroke-dasharray:none;stroke-opacity:1"
                   id="path2858" />
              </g>
              <g
                 id="g3076"
                 transform="matrix(0.736505,0,0,-0.736505,666.9067,199.89156)">
                <path
                   d="m 357.449,-505.629 c -0.035,1.27 8.207,-0.766 11.129,-0.183 14.762,-0.606 29.856,-2.262 44.492,-1.008"
                   style="fill:none;stroke:#000000;stroke-width:1.26872;stroke-linecap:round;stroke-linejoin:round;stroke-miterlimit:10;stroke-dasharray:none;stroke-opacity:1"
                   id="path3078" />
              </g>
              <g
                 id="g3080"
                 transform="matrix(0.736505,0,0,-0.736505,666.9067,199.89156)">
                <path
                   d="m 357.449,-500.266 c 2.024,0.27 10.426,0.239 14.469,-0.062 13.66,-0.527 29.797,-1.453 41.891,-2.309 l 0.117,-0.043 -0.649,-0.254"
                   style="fill:none;stroke:#000000;stroke-width:1.26872;stroke-linecap:round;stroke-linejoin:round;stroke-miterlimit:10;stroke-dasharray:none;stroke-opacity:1"
                   id="path3082" />
              </g>
              <g
                 id="g3084"
                 transform="matrix(0.736505,0,0,-0.736505,666.9067,199.89156)">
                <path
                   d="m 415.586,-503.32 c -2.309,0.386 -1.055,-3.231 -2.516,-3.5"
                   style="fill:none;stroke:#000000;stroke-width:1.26872;stroke-linecap:round;stroke-linejoin:round;stroke-miterlimit:10;stroke-dasharray:none;stroke-opacity:1"
                   id="path3086" />
              </g>
              <g
                 id="g3088"
                 transform="matrix(0.736505,0,0,-0.736505,666.9067,199.89156)">
                <path
                   d="m 357.449,-500.266 c -0.324,0.993 -0.023,-5.918 -0.429,-4.66"
                   style="fill:none;stroke:#000000;stroke-width:1.26872;stroke-linecap:round;stroke-linejoin:round;stroke-miterlimit:10;stroke-dasharray:none;stroke-opacity:1"
                   id="path3090" />
              </g>
              <g
                 id="g3092"
                 transform="matrix(0.736505,0,0,-0.736505,666.9067,199.89156)">
                <path
                   d="m 348.652,-499.48 c -1.644,-10.469 -3.175,-20.997 -2.515,-31.606"
                   style="fill:none;stroke:#000000;stroke-width:1.26872;stroke-linecap:round;stroke-linejoin:round;stroke-miterlimit:10;stroke-dasharray:none;stroke-opacity:1"
                   id="path3094" />
              </g>
              <g
                 id="g3096"
                 transform="matrix(0.736505,0,0,-0.736505,666.9067,199.89156)">
                <path
                   d="m 351.234,-517.754 c 1.254,-10.324 -1.816,-20.652 -0.261,-31 0.195,-4.129 0.562,-8.266 0.433,-12.402"
                   style="fill:none;stroke:#000000;stroke-width:1.26872;stroke-linecap:round;stroke-linejoin:round;stroke-miterlimit:10;stroke-dasharray:none;stroke-opacity:1"
                   id="path3098" />
              </g>
              <g
                 id="g3100"
                 transform="matrix(0.736505,0,0,-0.736505,666.9067,199.89156)">
                <path
                   d="m 357.449,-560.598 c 16.914,-0.261 36.672,0.66 54.512,3.039 1.301,0.461 2.269,-0.265 0.238,0.235"
                   style="fill:none;stroke:#000000;stroke-width:1.26872;stroke-linecap:round;stroke-linejoin:round;stroke-miterlimit:10;stroke-dasharray:none;stroke-opacity:1"
                   id="path3102" />
              </g>
              <g
                 id="g3104"
                 transform="matrix(0.736505,0,0,-0.736505,666.9067,199.89156)">
                <path
                   d="m 350.586,-570.891 c 8.976,-1.617 19.457,0.95 28.965,-0.769 11.773,-0.457 25.613,0.48 35.844,3.617 0.117,0.16 0.652,-0.387 -0.02,-0.246"
                   style="fill:none;stroke:#000000;stroke-width:1.26872;stroke-linecap:round;stroke-linejoin:round;stroke-miterlimit:10;stroke-dasharray:none;stroke-opacity:1"
                   id="path3106" />
              </g>
              <g
                 id="g3108"
                 transform="matrix(0.736505,0,0,-0.736505,666.9067,199.89156)">
                <path
                   d="m 373.32,-573.539 c -3.785,-2.738 -7.863,-5.305 -10.652,-9.125 -2.203,-0.645 -0.117,-2.574 -0.703,-4.133 2.168,-0.226 4.285,2.227 5.883,3.719 2.73,2.629 3.457,6.523 5.461,9.605 0.371,0.407 0.445,-0.336 0.066,-0.394"
                   style="fill:none;stroke:#000000;stroke-width:1.26872;stroke-linecap:round;stroke-linejoin:round;stroke-miterlimit:10;stroke-dasharray:none;stroke-opacity:1"
                   id="path3110" />
              </g>
              <g
                 id="g3112"
                 transform="matrix(0.736505,0,0,-0.736505,666.9067,199.89156)">
                <path
                   d="m 377.832,-575.672 c -0.727,-2.754 -3.172,-4.574 -4.547,-6.984 -0.879,-1.918 -2.754,-4.871 -1.402,-6.617 2.308,1.168 5.285,1.433 7.082,3.488 3.062,3.203 4.566,7.66 4.676,12.043 -0.586,0.23 -1.172,-0.688 -1.75,-0.754"
                   style="fill:none;stroke:#000000;stroke-width:1.26872;stroke-linecap:round;stroke-linejoin:round;stroke-miterlimit:10;stroke-dasharray:none;stroke-opacity:1"
                   id="path3114" />
              </g>
              <g
                 id="g3116"
                 transform="matrix(0.736505,0,0,-0.736505,666.9067,199.89156)">
                <path
                   d="m 385.82,-577.969 c -1.289,-2.582 -0.351,-5.551 -0.078,-8.261 0.379,-1.633 0.508,-5.606 2.676,-3.036 2.164,2.211 -0.203,5.188 -1.113,7.418 -0.621,1.11 -1.227,3.473 -1.184,4.125"
                   style="fill:none;stroke:#000000;stroke-width:1.26872;stroke-linecap:round;stroke-linejoin:round;stroke-miterlimit:10;stroke-dasharray:none;stroke-opacity:1"
                   id="path3118" />
              </g>
              <g
                 id="g3120"
                 transform="matrix(0.736505,0,0,-0.736505,666.9067,199.89156)">
                <path
                   d="m 398.664,-575.742 c 0.102,-0.488 18.914,2.73 18.914,2.73"
                   style="fill:none;stroke:#000000;stroke-width:1.26872;stroke-linecap:round;stroke-linejoin:round;stroke-miterlimit:10;stroke-dasharray:none;stroke-opacity:1"
                   id="path3122" />
              </g>
              <g
                 id="g3124"
                 transform="matrix(0.736505,0,0,-0.736505,666.9067,199.89156)">
                <path
                   d="m 339.387,-574.027 c 1.988,-12.352 -0.332,-24.852 0.386,-37.262 -0.668,-5.32 0.997,-10.606 0.153,-15.895 l -0.215,-0.41 -0.293,0.219"
                   style="fill:none;stroke:#000000;stroke-width:1.26872;stroke-linecap:round;stroke-linejoin:round;stroke-miterlimit:10;stroke-dasharray:none;stroke-opacity:1"
                   id="path3126" />
              </g>
              <g
                 id="g3128"
                 transform="matrix(0.736505,0,0,-0.736505,666.9067,199.89156)">
                <path
                   d="m 339.418,-627.375 c 1.832,-1.434 10.941,-0.727 12.496,-1.836"
                   style="fill:none;stroke:#000000;stroke-width:1.26872;stroke-linecap:round;stroke-linejoin:round;stroke-miterlimit:10;stroke-dasharray:none;stroke-opacity:1"
                   id="path3130" />
              </g>
              <g
                 id="g3132"
                 transform="matrix(0.736505,0,0,-0.736505,666.9067,199.89156)">
                <path
                   d="m 350.234,-629.73 c 0.309,-1.59 0.34,-8.028 0.032,-8.543"
                   style="fill:none;stroke:#000000;stroke-width:1.26872;stroke-linecap:round;stroke-linejoin:round;stroke-miterlimit:10;stroke-dasharray:none;stroke-opacity:1"
                   id="path3134" />
              </g>
              <g
                 id="g3136"
                 transform="matrix(0.736505,0,0,-0.736505,666.9067,199.89156)">
                <path
                   d="m 350.297,-638.953 c -1.125,-0.453 -11.078,-3.094 -10.106,-0.942"
                   style="fill:none;stroke:#000000;stroke-width:1.26872;stroke-linecap:round;stroke-linejoin:round;stroke-miterlimit:10;stroke-dasharray:none;stroke-opacity:1"
                   id="path3138" />
              </g>
              <g
                 id="g3140"
                 transform="matrix(0.736505,0,0,-0.736505,666.9067,199.89156)">
                <path
                   d="m 340.258,-639.895 c -1.528,-1.023 -2.387,5.063 -2.035,7.688 0.586,3.523 0.265,2.664 0.629,4.598"
                   style="fill:none;stroke:#000000;stroke-width:1.26872;stroke-linecap:round;stroke-linejoin:round;stroke-miterlimit:10;stroke-dasharray:none;stroke-opacity:1"
                   id="path3142" />
              </g>
              <g
                 id="g3144"
                 transform="matrix(0.736505,0,0,-0.736505,666.9067,199.89156)">
                <path
                   d="m 340.191,-639.895 c 0.594,-2.191 -0.574,-8.867 -0.687,-11.828 0.031,-3.679 -0.371,-7.636 1.269,-11.054 2.254,-2.832 4.813,-5.719 5.465,-9.438 0.524,-3.09 1.418,-6.109 1.633,-9.254 -0.289,-0.719 0.856,-1.203 0.121,-0.668"
                   style="fill:none;stroke:#000000;stroke-width:1.26872;stroke-linecap:round;stroke-linejoin:round;stroke-miterlimit:10;stroke-dasharray:none;stroke-opacity:1"
                   id="path3146" />
              </g>
              <g
                 id="g3148"
                 transform="matrix(0.736505,0,0,-0.736505,666.9067,199.89156)">
                <path
                   d="m 345.211,-667.211 c 2.703,-0.176 7.019,0.391 9.641,0.883 4.367,1.094 8.898,1.016 13.312,1.828 1.875,0.266 3.746,0.543 5.621,0.809"
                   style="fill:none;stroke:#000000;stroke-width:1.26872;stroke-linecap:round;stroke-linejoin:round;stroke-miterlimit:10;stroke-dasharray:none;stroke-opacity:1"
                   id="path3150" />
              </g>
              <g
                 id="g3152"
                 transform="matrix(0.736505,0,0,-0.736505,666.9067,199.89156)">
                <path
                   d="m 373.785,-663.691 c 1.938,1.093 6.539,-3.141 10.172,-1.579 11.078,1.79 22.852,3.762 33.395,6.165 3.808,1.289 12.086,3.64 13.613,3.964 -0.633,0.051 -1.32,-0.242 -1.992,-0.289"
                   style="fill:none;stroke:#000000;stroke-width:1.26872;stroke-linecap:round;stroke-linejoin:round;stroke-miterlimit:10;stroke-dasharray:none;stroke-opacity:1"
                   id="path3154" />
              </g>
              <g
                 id="g3156"
                 transform="matrix(0.736505,0,0,-0.736505,666.9067,199.89156)">
                <path
                   d="m 373.785,-663.691 c 2.371,2.398 3.504,5.683 5.102,8.589 2.316,4.852 0.289,10.231 -1.723,14.797 -1.465,2.571 -2.312,5.719 -4.519,7.723 -3.114,1.703 -6.27,3.359 -9.704,4.34 -0.746,0.246 -1.488,0.496 -2.23,0.765"
                   style="fill:none;stroke:#000000;stroke-width:1.26872;stroke-linecap:round;stroke-linejoin:round;stroke-miterlimit:10;stroke-dasharray:none;stroke-opacity:1"
                   id="path3158" />
              </g>
              <g
                 id="g3160"
                 transform="matrix(0.736505,0,0,-0.736505,666.9067,199.89156)">
                <path
                   d="m 350.422,-637.223 c 4.105,-0.839 12.242,-2.148 16.211,1.59 -0.68,-0.238 -1.641,1.242 -4.18,1.106"
                   style="fill:none;stroke:#000000;stroke-width:1.26872;stroke-linecap:round;stroke-linejoin:round;stroke-miterlimit:10;stroke-dasharray:none;stroke-opacity:1"
                   id="path3162" />
              </g>
              <g
                 id="g3164"
                 transform="matrix(0.736505,0,0,-0.736505,666.9067,199.89156)">
                <path
                   d="m 362.453,-634.527 c -4.754,-2.985 0.25,3.507 -1.742,7.05 0.25,3.106 -1.109,8.887 -6.023,8.165 -4.75,-0.782 -5.208,-4.434 -4.329,-8.79 -0.007,-3.21 0.727,-8.964 0.614,-10.019 0.484,-0.043 0.941,0.394 0.922,0.926"
                   style="fill:none;stroke:#000000;stroke-width:1.26872;stroke-linecap:round;stroke-linejoin:round;stroke-miterlimit:10;stroke-dasharray:none;stroke-opacity:1"
                   id="path3166" />
              </g>
              <g
                 id="g3168"
                 transform="matrix(0.736505,0,0,-0.736505,666.9067,199.89156)">
                <path
                   d="m 351.914,-629.211 c 0.168,-0.894 7.43,0.523 8.797,1.734"
                   style="fill:none;stroke:#000000;stroke-width:1.26872;stroke-linecap:round;stroke-linejoin:round;stroke-miterlimit:10;stroke-dasharray:none;stroke-opacity:1"
                   id="path3170" />
              </g>
              <g
                 id="g3172"
                 transform="matrix(0.736505,0,0,-0.736505,666.9067,199.89156)">
                <path
                   d="m 406.562,-610.367 c 0.274,4.297 -5.027,-0.629 -0.32,-0.821 1.223,0.876 -0.957,1.872 -2.082,2.583"
                   style="fill:none;stroke:#000000;stroke-width:1.26872;stroke-linecap:round;stroke-linejoin:round;stroke-miterlimit:10;stroke-dasharray:none;stroke-opacity:1"
                   id="path3174" />
              </g>
              <g
                 id="g3356"
                 transform="matrix(0.736505,0,0,-0.736505,666.9067,199.89156)">
                <path
                   d="m 324.375,-568.977 c -5.957,3.465 -13.004,-4.32 -13.629,-10.25 -2.25,-7.832 6.152,-16.171 14.246,-11.878 1.785,1.222 3.266,-0.09 3.723,2.222"
                   style="fill:none;stroke:#000000;stroke-width:1.26872;stroke-linecap:round;stroke-linejoin:round;stroke-miterlimit:10;stroke-dasharray:none;stroke-opacity:1"
                   id="path3358" />
              </g>
              <g
                 id="g3360"
                 transform="matrix(0.736505,0,0,-0.736505,666.9067,199.89156)">
                <path
                   d="m 317.598,-592.957 c 0.531,1.148 -2.078,-3.418 -3.93,-4.023 -1.73,-1.118 -2.074,-5.086 -2.305,-7.254 -0.422,-3.942 1.606,-8.7 1.528,-10.809 0.261,-2.484 5.265,-4.254 8.902,-3.269 1.91,0.828 8.027,1.378 4.617,3.41"
                   style="fill:none;stroke:#000000;stroke-width:1.26872;stroke-linecap:round;stroke-linejoin:round;stroke-miterlimit:10;stroke-dasharray:none;stroke-opacity:1"
                   id="path3362" />
              </g>
              <g
                 id="g3364"
                 transform="matrix(0.736505,0,0,-0.736505,666.9067,199.89156)">
                <path
                   d="m 326.422,-611.41 c -3.352,-2.27 -12.363,-1.59 -14.207,-0.442"
                   style="fill:none;stroke:#000000;stroke-width:1.26872;stroke-linecap:round;stroke-linejoin:round;stroke-miterlimit:10;stroke-dasharray:none;stroke-opacity:1"
                   id="path3366" />
              </g>
              <g
                 id="g3368"
                 transform="matrix(0.736505,0,0,-0.736505,666.9067,199.89156)">
                <path
                   d="m 318.406,-611.27 c -0.047,-2.007 1.633,7.356 0.961,9.618 0.653,2.55 -0.25,1.441 1.188,3.234"
                   style="fill:none;stroke:#000000;stroke-width:1.26872;stroke-linecap:round;stroke-linejoin:round;stroke-miterlimit:10;stroke-dasharray:none;stroke-opacity:1"
                   id="path3370" />
              </g>
              <g
                 id="g3372"
                 transform="matrix(0.736505,0,0,-0.736505,666.9067,199.89156)">
                <path
                   d="m 319.434,-597.082 c 0.222,-1.356 5.921,0.523 4.062,-2.543 0.125,-3.941 -0.367,-9.703 -1.598,-12.563 0.579,0.567 -0.304,-0.476 0.2,0.102"
                   style="fill:none;stroke:#000000;stroke-width:1.26872;stroke-linecap:round;stroke-linejoin:round;stroke-miterlimit:10;stroke-dasharray:none;stroke-opacity:1"
                   id="path3374" />
              </g>
              <g
                 id="g3376"
                 transform="matrix(0.736505,0,0,-0.736505,666.9067,199.89156)">
                <path
                   d="m 321.918,-595.562 c -0.66,-7.36 7.461,1.968 -0.727,0.921"
                   style="fill:none;stroke:#000000;stroke-width:1.26872;stroke-linecap:round;stroke-linejoin:round;stroke-miterlimit:10;stroke-dasharray:none;stroke-opacity:1"
                   id="path3378" />
              </g>
              <g
                 id="g3380"
                 transform="matrix(0.736505,0,0,-0.736505,666.9067,199.89156)">
                <path
                   d="m 316.57,-576.359 c 0.242,-2.067 0.207,-6.192 0.203,-7.379"
                   style="fill:none;stroke:#000000;stroke-width:1.26872;stroke-linecap:round;stroke-linejoin:round;stroke-miterlimit:10;stroke-dasharray:none;stroke-opacity:1"
                   id="path3382" />
              </g>
              <g
                 id="g3384"
                 transform="matrix(0.736505,0,0,-0.736505,666.9067,199.89156)">
                <path
                   d="m 316.137,-579.184 c 1.769,1.692 5.605,2.676 8.203,2.332"
                   style="fill:none;stroke:#000000;stroke-width:1.26872;stroke-linecap:round;stroke-linejoin:round;stroke-miterlimit:10;stroke-dasharray:none;stroke-opacity:1"
                   id="path3386" />
              </g>
              <g
                 id="g3388"
                 transform="matrix(0.736505,0,0,-0.736505,666.9067,199.89156)">
                <path
                   d="m 318.004,-583.77 c -0.285,-1.253 5.086,0.653 6.266,0.672"
                   style="fill:none;stroke:#000000;stroke-width:1.26872;stroke-linecap:round;stroke-linejoin:round;stroke-miterlimit:10;stroke-dasharray:none;stroke-opacity:1"
                   id="path3390" />
              </g>
              <g
                 id="g3392"
                 transform="matrix(0.736505,0,0,-0.736505,666.9067,199.89156)">
                <path
                   d="m 294.348,-609.598 c -1.082,0.453 0,0 -1.946,-1.789 -0.898,-0.023 3.856,5.746 6.036,1.602 1.078,-1.426 -1.883,-1.277 -5.454,-2.149 0.918,0.2 -1.132,0.055 -0.941,0.438"
                   style="fill:none;stroke:#000000;stroke-width:1.26872;stroke-linecap:round;stroke-linejoin:round;stroke-miterlimit:10;stroke-dasharray:none;stroke-opacity:1"
                   id="path3394" />
              </g>
              <g
                 id="g3396"
                 transform="matrix(0.736505,0,0,-0.736505,666.9067,199.89156)">
                <path
                   d="m 288.355,-614.098 c -2.589,1.938 -1.003,-5.847 2.957,-2.593 0.61,0.242 -0.019,0.804 -1.39,2.808 -1.27,0.176 -2.008,-0.89 -3.133,-0.929"
                   style="fill:none;stroke:#000000;stroke-width:1.26872;stroke-linecap:round;stroke-linejoin:round;stroke-miterlimit:10;stroke-dasharray:none;stroke-opacity:1"
                   id="path3398" />
              </g>
              <g
                 id="g3400"
                 transform="matrix(0.736505,0,0,-0.736505,666.9067,199.89156)">
                <path
                   d="m 289.465,-622.352 c -1.11,0.95 6.703,0.293 4.656,-0.679 0.945,-1.883 -5.769,-3.856 -4.047,-0.074 -0.238,0.687 0.184,0.941 0.153,0.824"
                   style="fill:none;stroke:#000000;stroke-width:1.26872;stroke-linecap:round;stroke-linejoin:round;stroke-miterlimit:10;stroke-dasharray:none;stroke-opacity:1"
                   id="path3402" />
              </g>
              <g
                 id="g3404"
                 transform="matrix(0.736505,0,0,-0.736505,666.9067,199.89156)">
                <path
                   d="m 297.922,-623.32 c 1.652,0.922 3.113,5.797 4.781,2.832 4.699,-1.543 -4.176,-6.637 -4.805,-3.25"
                   style="fill:none;stroke:#000000;stroke-width:1.26872;stroke-linecap:round;stroke-linejoin:round;stroke-miterlimit:10;stroke-dasharray:none;stroke-opacity:1"
                   id="path3406" />
              </g>
              <g
                 id="g3408"
                 transform="matrix(0.736505,0,0,-0.736505,666.9067,199.89156)">
                <path
                   d="m 300.438,-613.109 c 1.203,-3.438 4.742,-3.008 4.421,0.543 -0.339,1.964 -3.761,-0.457 -4.304,-0.422"
                   style="fill:none;stroke:#000000;stroke-width:1.26872;stroke-linecap:round;stroke-linejoin:round;stroke-miterlimit:10;stroke-dasharray:none;stroke-opacity:1"
                   id="path3410" />
              </g>
              <g
                 id="g3412"
                 transform="matrix(0.736505,0,0,-0.736505,666.9067,199.89156)">
                <path
                   d="m 294.91,-531.551 c -1.191,3.024 -1.933,-2.629 1.809,-2.691 2.242,0.398 -0.125,6.472 -3.832,3.437"
                   style="fill:none;stroke:#000000;stroke-width:1.26872;stroke-linecap:round;stroke-linejoin:round;stroke-miterlimit:10;stroke-dasharray:none;stroke-opacity:1"
                   id="path3414" />
              </g>
              <g
                 id="g3416"
                 transform="matrix(0.736505,0,0,-0.736505,666.9067,199.89156)">
                <path
                   d="m 287.148,-534.898 c -1.242,2.308 -2.23,-4.883 1.934,-2.215 1.895,1.355 0.496,3.41 -1.867,2.738"
                   style="fill:none;stroke:#000000;stroke-width:1.26872;stroke-linecap:round;stroke-linejoin:round;stroke-miterlimit:10;stroke-dasharray:none;stroke-opacity:1"
                   id="path3418" />
              </g>
              <g
                 id="g3420"
                 transform="matrix(0.736505,0,0,-0.736505,666.9067,199.89156)">
                <path
                   d="m 287.008,-542.555 c -2.328,-0.25 1.902,-4.871 3.047,-2.066 0.117,0.762 -2.743,3.258 -2.489,2.16"
                   style="fill:none;stroke:#000000;stroke-width:1.26872;stroke-linecap:round;stroke-linejoin:round;stroke-miterlimit:10;stroke-dasharray:none;stroke-opacity:1"
                   id="path3422" />
              </g>
              <g
                 id="g3424"
                 transform="matrix(0.736505,0,0,-0.736505,666.9067,199.89156)">
                <path
                   d="m 296.801,-544.617 c -2.797,-1.531 0.285,-4.031 2.898,-1.629 -1.07,0.613 -1.32,1.98 -2.773,1.723"
                   style="fill:none;stroke:#000000;stroke-width:1.26872;stroke-linecap:round;stroke-linejoin:round;stroke-miterlimit:10;stroke-dasharray:none;stroke-opacity:1"
                   id="path3426" />
              </g>
              <g
                 id="g3428"
                 transform="matrix(0.736505,0,0,-0.736505,666.9067,199.89156)">
                <path
                   d="m 301.531,-537.902 c -4.176,-0.809 2.883,-4.961 2.047,-0.977 -0.211,0.957 -2.683,1.477 -3.894,1.336"
                   style="fill:none;stroke:#000000;stroke-width:1.26872;stroke-linecap:round;stroke-linejoin:round;stroke-miterlimit:10;stroke-dasharray:none;stroke-opacity:1"
                   id="path3430" />
              </g>
              <g
                 id="g3432"
                 transform="matrix(0.736505,0,0,-0.736505,666.9067,199.89156)">
                <path
                   d="m 376.004,-519.332 c 4.625,0.43 9.887,0.441 14.199,-0.109 l 0.102,-0.137"
                   style="fill:none;stroke:#000000;stroke-width:1.26872;stroke-linecap:round;stroke-linejoin:round;stroke-miterlimit:10;stroke-dasharray:none;stroke-opacity:1"
                   id="path3434" />
              </g>
              <g
                 id="g3436"
                 transform="matrix(0.736505,0,0,-0.736505,666.9067,199.89156)">
                <path
                   d="m 390.305,-519.578 c 0.593,-4.395 1.687,-10.11 0.277,-14.387"
                   style="fill:none;stroke:#000000;stroke-width:1.26872;stroke-linecap:round;stroke-linejoin:round;stroke-miterlimit:10;stroke-dasharray:none;stroke-opacity:1"
                   id="path3438" />
              </g>
              <g
                 id="g3440"
                 transform="matrix(0.736505,0,0,-0.736505,666.9067,199.89156)">
                <path
                   d="m 376.004,-519.332 c -1.621,-3.727 1.508,-14.109 0.25,-17.926"
                   style="fill:none;stroke:#000000;stroke-width:1.26872;stroke-linecap:round;stroke-linejoin:round;stroke-miterlimit:10;stroke-dasharray:none;stroke-opacity:1"
                   id="path3442" />
              </g>
              <g
                 id="g3444"
                 transform="matrix(0.736505,0,0,-0.736505,666.9067,199.89156)">
                <path
                   d="m 376.254,-537.258 c 4.414,2.528 9.105,3.258 14.117,2.281 0.117,-0.214 1.707,0.282 0.586,0.563"
                   style="fill:none;stroke:#000000;stroke-width:1.26872;stroke-linecap:round;stroke-linejoin:round;stroke-miterlimit:10;stroke-dasharray:none;stroke-opacity:1"
                   id="path3446" />
              </g>
              <g
                 id="g3448"
                 transform="matrix(0.736505,0,0,-0.736505,666.9067,199.89156)">
                <path
                   d="m 376.004,-519.332 c -1.672,1.508 -5.195,2.914 -7.262,3.699"
                   style="fill:none;stroke:#000000;stroke-width:1.26872;stroke-linecap:round;stroke-linejoin:round;stroke-miterlimit:10;stroke-dasharray:none;stroke-opacity:1"
                   id="path3450" />
              </g>
              <g
                 id="g3452"
                 transform="matrix(0.736505,0,0,-0.736505,666.9067,199.89156)">
                <path
                   d="m 367.457,-515.758 c -0.129,-6.847 -0.852,-13.746 0.672,-20.484 0.258,-3.731 6.918,-3.629 8.125,-1.016"
                   style="fill:none;stroke:#000000;stroke-width:1.26872;stroke-linecap:round;stroke-linejoin:round;stroke-miterlimit:10;stroke-dasharray:none;stroke-opacity:1"
                   id="path3454" />
              </g>
              <g
                 id="g3456"
                 transform="matrix(0.736505,0,0,-0.736505,666.9067,199.89156)">
                <path
                   d="m 390.305,-519.578 c 2.308,-0.442 6.953,4.941 8.933,2.023"
                   style="fill:none;stroke:#000000;stroke-width:1.26872;stroke-linecap:round;stroke-linejoin:round;stroke-miterlimit:10;stroke-dasharray:none;stroke-opacity:1"
                   id="path3458" />
              </g>
              <g
                 id="g3460"
                 transform="matrix(0.736505,0,0,-0.736505,666.9067,199.89156)">
                <path
                   d="m 399.238,-517.555 c -0.773,-6.363 2.457,-12.894 -0.035,-19.101 -0.066,-0.063 -0.519,1.156 -0.617,0.441"
                   style="fill:none;stroke:#000000;stroke-width:1.26872;stroke-linecap:round;stroke-linejoin:round;stroke-miterlimit:10;stroke-dasharray:none;stroke-opacity:1"
                   id="path3462" />
              </g>
              <g
                 id="g3464"
                 transform="matrix(0.736505,0,0,-0.736505,666.9067,199.89156)">
                <path
                   d="m 390.371,-534.977 c 1.699,-0.015 7,-2.125 8.832,-1.679"
                   style="fill:none;stroke:#000000;stroke-width:1.26872;stroke-linecap:round;stroke-linejoin:round;stroke-miterlimit:10;stroke-dasharray:none;stroke-opacity:1"
                   id="path3466" />
              </g>
              <g
                 id="g3496"
                 transform="matrix(0.736505,0,0,-0.736505,666.9067,199.89156)">
                <path
                   d="m 350.07,-593.344 c 2.024,-1.754 2.211,-8.203 3.067,-11.644 -0.067,-2.696 1.508,-7.45 1.508,-7.762"
                   style="fill:none;stroke:#000000;stroke-width:1.26872;stroke-linecap:round;stroke-linejoin:round;stroke-miterlimit:10;stroke-dasharray:none;stroke-opacity:1"
                   id="path3498" />
              </g>
            </g>
          </g>
        </g>
      </g>
    </g>
  </g>
</svg>
