<?xml version="1.0" encoding="UTF-8" standalone="no"?>
<!-- Created by Ashley Blewer - This work is licensed under a Creative Commons Attribution 4.0 International License -->

<svg
   width="544"
   height="480"
   viewBox="0 0 143.93334 127"
   version="1.1"
   id="svg2490"
   inkscape:version="1.2.2 (1:1.2.2+202212051552+b0a8486541)"
   sodipodi:docname="1952-cinerama-5.svg"
   xmlns:inkscape="http://www.inkscape.org/namespaces/inkscape"
   xmlns:sodipodi="http://sodipodi.sourceforge.net/DTD/sodipodi-0.dtd"
   xmlns="http://www.w3.org/2000/svg"
   xmlns:svg="http://www.w3.org/2000/svg">
  <sodipodi:namedview
     id="namedview2492"
     pagecolor="#ffffff"
     bordercolor="#666666"
     borderopacity="1.0"
     inkscape:pageshadow="2"
     inkscape:pageopacity="0.0"
     inkscape:pagecheckerboard="0"
     inkscape:document-units="mm"
     showgrid="false"
     units="px"
     inkscape:zoom="0.90583674"
     inkscape:cx="336.15329"
     inkscape:cy="254.46086"
     inkscape:window-width="1846"
     inkscape:window-height="1136"
     inkscape:window-x="0"
     inkscape:window-y="0"
     inkscape:window-maximized="1"
     inkscape:current-layer="g6395"
     inkscape:showpageshadow="2"
     inkscape:deskcolor="#d1d1d1" />
  <defs
     id="defs2487" />
  <g
     inkscape:label="Layer 1"
     inkscape:groupmode="layer"
     id="layer1">
    <g
       id="g4731"
       transform="matrix(0.32961229,0,0,0.32903008,-241.78905,1.73126)"
       style="stroke-width:2.68698">
      <g
         id="g104528"
         transform="matrix(1,0,0,-1,0,792)"
         style="stroke-width:2.68698">
        <g
           id="g104530"
           style="stroke-width:2.68698" />
      </g>
      <g
         id="g104996"
         transform="matrix(1,0,0,-1,0,792)"
         style="stroke-width:2.68698">
        <g
           id="g104998"
           style="stroke-width:2.68698" />
      </g>
      <g
         id="g28852"
         transform="matrix(1.070281,0,0,1.0721748,779.91249,-443.13657)">
        <g
           id="g6718"
           transform="matrix(1.117886,0,0,1.117886,-549.13111,-491.62865)">
          <g
             id="g6395"
             transform="matrix(0.53415107,0,0,0.53415109,441.93669,415.26868)">
            <g
               id="g146119"
               transform="matrix(4.1337583,0,0,4.1337583,-4047.9578,-1578.708)">
              <g
                 id="g2728"
                 transform="matrix(0.736505,0,0,-0.736505,666.9067,199.89156)">
                <path
                   d="m 512.059,-525.707 c -3.387,18.219 -30.778,26.863 -42.469,11.352 -8.731,-8.891 -16.649,-20.907 -13.629,-33.969 1.777,-14.114 12.605,-28.184 27.769,-28.457 5.747,-0.567 11.547,0.004 17.204,1.054"
                   style="fill:none;stroke:#000000;stroke-width:2.61674;stroke-linecap:round;stroke-linejoin:round;stroke-miterlimit:10;stroke-dasharray:none;stroke-opacity:1"
                   id="path2730" />
              </g>
              <g
                 id="g2732"
                 transform="matrix(0.736505,0,0,-0.736505,666.9067,199.89156)">
                <path
                   d="m 481.941,-506.516 c -12.597,-0.484 -25.586,-7.929 -29.347,-20.504 -7.192,-13.875 -2.27,-31.226 8.547,-41.714 2.824,-2.118 6.117,-3.543 9.515,-4.438"
                   style="fill:none;stroke:#000000;stroke-width:2.61674;stroke-linecap:round;stroke-linejoin:round;stroke-miterlimit:10;stroke-dasharray:none;stroke-opacity:1"
                   id="path2734" />
              </g>
              <g
                 id="g2736"
                 transform="matrix(0.736505,0,0,-0.736505,666.9067,199.89156)">
                <path
                   d="m 483.25,-576.879 c -1.336,0.512 -10.094,-4.461 -11.633,-6.644 -6.922,-8.016 -10.047,-17.368 -12.238,-27.778 -3.156,-9.851 -2.063,-22.07 5.258,-29.637 7.617,-5.636 16.152,-10.632 26.32,-7.238 6,1.914 10.406,5.602 14.207,9.52 1.039,0.289 3.641,4.539 3.539,4.363"
                   style="fill:none;stroke:#000000;stroke-width:2.61674;stroke-linecap:round;stroke-linejoin:round;stroke-miterlimit:10;stroke-dasharray:none;stroke-opacity:1"
                   id="path2738" />
              </g>
              <g
                 id="g2740"
                 transform="matrix(0.736505,0,0,-0.736505,666.9067,199.89156)">
                <path
                   d="m 476.043,-579.613 c -11.328,-2.512 -18.789,-12.785 -22.648,-23.102 -3.469,-7.371 -3.844,-15.883 -1.157,-23.555 2.344,-6.761 5.785,-13.988 12.66,-17.105 3.09,-1.742 6.391,-3.109 9.801,-4.09"
                   style="fill:none;stroke:#000000;stroke-width:2.61674;stroke-linecap:round;stroke-linejoin:round;stroke-miterlimit:10;stroke-dasharray:none;stroke-opacity:1"
                   id="path2742" />
              </g>
              <g
                 id="g2744"
                 transform="matrix(0.736505,0,0,-0.736505,666.9067,199.89156)">
                <path
                   d="m 494.934,-505.668 c 0.019,-2.125 0.796,6.25 1.234,3.988"
                   style="fill:none;stroke:#000000;stroke-width:2.61674;stroke-linecap:round;stroke-linejoin:round;stroke-miterlimit:10;stroke-dasharray:none;stroke-opacity:1"
                   id="path2746" />
              </g>
              <g
                 id="g2748"
                 transform="matrix(0.736505,0,0,-0.736505,666.9067,199.89156)">
                <path
                   d="m 497.492,-501.043 c 31.367,-1.371 62.75,0.18 94.121,0.465 0.051,-3.336 1.961,-6.352 1.688,-9.727"
                   style="fill:none;stroke:#000000;stroke-width:2.61674;stroke-linecap:round;stroke-linejoin:round;stroke-miterlimit:10;stroke-dasharray:none;stroke-opacity:1"
                   id="path2750" />
              </g>
              <g
                 id="g2752"
                 transform="matrix(0.736505,0,0,-0.736505,666.9067,199.89156)">
                <path
                   d="m 574.141,-528.09 c 5.039,14.707 24.765,23.344 38.054,13.84 12.692,-7.809 17.309,-24.027 14.793,-38.121 -0.898,-11.293 -7.48,-23.461 -19.277,-26.09 -12.43,-1.902 -23.098,8.422 -28.391,18.676 -5.101,9.398 -5.527,20.265 -5.05,30.687 z"
                   style="fill:none;stroke:#000000;stroke-width:2.61674;stroke-linecap:round;stroke-linejoin:round;stroke-miterlimit:10;stroke-dasharray:none;stroke-opacity:1"
                   id="path2754" />
              </g>
              <g
                 id="g2756"
                 transform="matrix(0.736505,0,0,-0.736505,666.9067,199.89156)">
                <path
                   d="m 593.301,-510.305 c 9.652,2.422 23.883,6.055 30.656,-4.429 8.566,-11.356 12.148,-25.442 11.973,-39.114 0.613,-9.894 -9.508,-14.59 -16.52,-19.539 -2.039,-0.875 -5.609,-3.152 -5.609,-3.152"
                   style="fill:none;stroke:#000000;stroke-width:2.61674;stroke-linecap:round;stroke-linejoin:round;stroke-miterlimit:10;stroke-dasharray:none;stroke-opacity:1"
                   id="path2758" />
              </g>
              <g
                 id="g2760"
                 transform="matrix(0.736505,0,0,-0.736505,666.9067,199.89156)">
                <path
                   d="m 592.195,-580.492 c 9.145,1.242 17.2,-4.942 22.332,-11.914 11.543,-12.598 11.77,-32.614 3.215,-46.867 -3.965,-7.86 -14.789,-12.289 -22.605,-7.329 -6.801,3.875 -14.485,8.149 -16.934,16.161 -3.015,9.511 -3.418,20.043 -0.867,29.703 2.336,8.004 7.105,15.332 13.672,20.5 4.554,-0.403 9.051,0.707 13.582,0.894"
                   style="fill:none;stroke:#000000;stroke-width:2.61674;stroke-linecap:round;stroke-linejoin:round;stroke-miterlimit:10;stroke-dasharray:none;stroke-opacity:1"
                   id="path2762" />
              </g>
              <g
                 id="g2764"
                 transform="matrix(0.736505,0,0,-0.736505,666.9067,199.89156)">
                <path
                   d="m 604.59,-579.344 c 12.613,-3.176 27.23,-15.832 29.281,-28.605 2.93,-11.321 1.66,-24.985 -5.41,-34.36 -5.773,-6.238 -15.656,-6.043 -23.527,-6.691 -3.098,0.625 -3.688,1.449 -6.356,1.617"
                   style="fill:none;stroke:#000000;stroke-width:2.61674;stroke-linecap:round;stroke-linejoin:round;stroke-miterlimit:10;stroke-dasharray:none;stroke-opacity:1"
                   id="path2766" />
              </g>
              <g
                 id="g2768"
                 transform="matrix(0.736505,0,0,-0.736505,666.9067,199.89156)">
                <path
                   d="m 493.535,-656.406 c 7.461,0.914 18.043,0.976 26.774,1.304 18.488,0.098 36.937,-0.593 55.425,-0.687 6.543,-0.242 15.008,-1.125 20.137,-1.863"
                   style="fill:none;stroke:#000000;stroke-width:2.61674;stroke-linecap:round;stroke-linejoin:round;stroke-miterlimit:10;stroke-dasharray:none;stroke-opacity:1"
                   id="path2770" />
              </g>
              <g
                 id="g2772"
                 transform="matrix(0.736505,0,0,-0.736505,666.9067,199.89156)">
                <path
                   d="m 592.754,-647.301 c 0.621,-2.679 3.777,-8.535 4.976,-10.363 l -0.359,0.019 -0.625,0.422"
                   style="fill:none;stroke:#000000;stroke-width:2.61674;stroke-linecap:round;stroke-linejoin:round;stroke-miterlimit:10;stroke-dasharray:none;stroke-opacity:1"
                   id="path2774" />
              </g>
              <g
                 id="g2776"
                 transform="matrix(0.736505,0,0,-0.736505,666.9067,199.89156)">
                <path
                   d="m 493.766,-648.773 c 1.468,-1.731 -0.758,-7.461 -1.95,-8.235"
                   style="fill:none;stroke:#000000;stroke-width:2.61674;stroke-linecap:round;stroke-linejoin:round;stroke-miterlimit:10;stroke-dasharray:none;stroke-opacity:1"
                   id="path2778" />
              </g>
              <g
                 id="g2780"
                 transform="matrix(0.736505,0,0,-0.736505,666.9067,199.89156)">
                <path
                   d="m 491.816,-657.008 c 0.664,-0.789 -0.464,-12.781 -0.062,-10.254"
                   style="fill:none;stroke:#000000;stroke-width:2.61674;stroke-linecap:round;stroke-linejoin:round;stroke-miterlimit:10;stroke-dasharray:none;stroke-opacity:1"
                   id="path2782" />
              </g>
              <g
                 id="g2784"
                 transform="matrix(0.736505,0,0,-0.736505,666.9067,199.89156)">
                <path
                   d="m 491.754,-667.262 105.695,-3.777"
                   style="fill:none;stroke:#000000;stroke-width:2.61674;stroke-linecap:round;stroke-linejoin:round;stroke-miterlimit:10;stroke-dasharray:none;stroke-opacity:1"
                   id="path2786" />
              </g>
              <g
                 id="g2788"
                 transform="matrix(0.736505,0,0,-0.736505,666.9067,199.89156)">
                <path
                   d="m 597.371,-657.645 c 0.84,-0.05 0.609,-9.136 0,-11.48 -0.828,-0.934 1.16,-2.449 0.078,-1.914"
                   style="fill:none;stroke:#000000;stroke-width:2.61674;stroke-linecap:round;stroke-linejoin:round;stroke-miterlimit:10;stroke-dasharray:none;stroke-opacity:1"
                   id="path2790" />
              </g>
              <g
                 id="g2860"
                 transform="matrix(0.736505,0,0,-0.736505,666.9067,199.89156)">
                <path
                   d="m 479.863,-535.133 c 1.746,4.797 12.973,5.485 15.992,-0.347 5.207,-5.887 3.043,-15.262 -5.125,-17.582 -8.031,-2.055 -16.16,4.019 -14.515,12.718 -0.555,2.758 2.152,7.672 3.074,7.289"
                   style="fill:none;stroke:#000000;stroke-width:2.61674;stroke-linecap:round;stroke-linejoin:round;stroke-miterlimit:10;stroke-dasharray:none;stroke-opacity:1"
                   id="path2862" />
              </g>
              <g
                 id="g2864"
                 transform="matrix(0.736505,0,0,-0.736505,666.9067,199.89156)">
                <path
                   d="m 483.93,-606.742 c 2.406,5.301 14.445,2.804 15.34,-3.461 3.906,-7.199 -3.247,-18.399 -11.903,-14.84 -7.574,1.586 -6.508,11.656 -3.14,16.574 0.761,1.434 2.211,2.074 2.804,2.442"
                   style="fill:none;stroke:#000000;stroke-width:2.61674;stroke-linecap:round;stroke-linejoin:round;stroke-miterlimit:10;stroke-dasharray:none;stroke-opacity:1"
                   id="path2866" />
              </g>
              <g
                 id="g2876"
                 transform="matrix(0.736505,0,0,-0.736505,666.9067,199.89156)">
                <path
                   d="m 530.125,-516.18 c -0.258,1.907 -5.465,4.098 -8.148,1.649 -5.106,-3.141 0.464,-15.446 8.347,-12.586 6.297,1.273 -0.199,10.937 -0.199,10.937 0.496,0.254 0,0 0,0"
                   style="fill:none;stroke:#000000;stroke-width:1.26872;stroke-linecap:round;stroke-linejoin:round;stroke-miterlimit:10;stroke-dasharray:none;stroke-opacity:1"
                   id="path2878" />
              </g>
              <g
                 id="g2880"
                 transform="matrix(0.736505,0,0,-0.736505,666.9067,199.89156)">
                <path
                   d="m 534.555,-520.184 c -0.746,21.067 19.8,16.77 17.621,-6.523 -0.715,-36.648 0.023,-73.266 1.875,-109.859 -0.047,-5.079 -0.309,-10.157 -0.903,-15.204"
                   style="fill:none;stroke:#000000;stroke-width:1.26872;stroke-linecap:round;stroke-linejoin:round;stroke-miterlimit:10;stroke-dasharray:none;stroke-opacity:1"
                   id="path2882" />
              </g>
              <g
                 id="g2884"
                 transform="matrix(0.736505,0,0,-0.736505,666.9067,199.89156)">
                <path
                   d="m 532.203,-530.609 c 2.567,-40.586 -0.633,-81.321 1.344,-121.946"
                   style="fill:none;stroke:#000000;stroke-width:1.26872;stroke-linecap:round;stroke-linejoin:round;stroke-miterlimit:10;stroke-dasharray:none;stroke-opacity:1"
                   id="path2886" />
              </g>
              <g
                 id="g2888"
                 transform="matrix(0.736505,0,0,-0.736505,666.9067,199.89156)">
                <path
                   d="m 539.258,-579.258 c -0.66,-1.129 -4.36,-9.765 2.156,-9.98 5.973,-1.836 10.496,6.218 3.906,8.965 -2,0.961 -4.351,2.289 -6.062,1.015"
                   style="fill:none;stroke:#000000;stroke-width:1.26872;stroke-linecap:round;stroke-linejoin:round;stroke-miterlimit:10;stroke-dasharray:none;stroke-opacity:1"
                   id="path2890" />
              </g>
              <g
                 id="g2892"
                 transform="matrix(0.736505,0,0,-0.736505,666.9067,199.89156)">
                <path
                   d="m 560.336,-512.98 c -1.492,-0.657 -4.184,-7.168 0.988,-6.754 8.426,-2.243 4.93,10.589 -0.988,6.754"
                   style="fill:none;stroke:#000000;stroke-width:1.26872;stroke-linecap:round;stroke-linejoin:round;stroke-miterlimit:10;stroke-dasharray:none;stroke-opacity:1"
                   id="path2894" />
              </g>
              <g
                 id="g2896"
                 transform="matrix(0.736505,0,0,-0.736505,666.9067,199.89156)">
                <path
                   d="m 554.355,-503.414 c -4.043,-5.434 7.77,-9.367 7.079,-4.719 -0.758,3.078 -3.954,4.988 -7.079,4.719"
                   style="fill:none;stroke:#000000;stroke-width:1.26872;stroke-linecap:round;stroke-linejoin:round;stroke-miterlimit:10;stroke-dasharray:none;stroke-opacity:1"
                   id="path2898" />
              </g>
              <g
                 id="g2900"
                 transform="matrix(0.736505,0,0,-0.736505,666.9067,199.89156)">
                <path
                   d="m 515.488,-516.203 c -2.547,0.164 -1.168,10.551 2.2,5.285 0.527,-0.508 -0.043,-0.605 -0.52,-1.144"
                   style="fill:none;stroke:#000000;stroke-width:1.26872;stroke-linecap:round;stroke-linejoin:round;stroke-miterlimit:10;stroke-dasharray:none;stroke-opacity:1"
                   id="path2902" />
              </g>
              <g
                 id="g2904"
                 transform="matrix(0.736505,0,0,-0.736505,666.9067,199.89156)">
                <path
                   d="m 450.941,-531.121 c 1.106,-1.238 7.321,1.262 3.692,-1.25"
                   style="fill:none;stroke:#000000;stroke-width:1.26872;stroke-linecap:round;stroke-linejoin:round;stroke-miterlimit:10;stroke-dasharray:none;stroke-opacity:1"
                   id="path2906" />
              </g>
              <g
                 id="g2908"
                 transform="matrix(0.736505,0,0,-0.736505,666.9067,199.89156)">
                <path
                   d="m 451.199,-536.496 c -1.797,-1.137 4.379,0.41 2.985,-0.234"
                   style="fill:none;stroke:#000000;stroke-width:1.26872;stroke-linecap:round;stroke-linejoin:round;stroke-miterlimit:10;stroke-dasharray:none;stroke-opacity:1"
                   id="path2910" />
              </g>
              <g
                 id="g2912"
                 transform="matrix(0.736505,0,0,-0.736505,666.9067,199.89156)">
                <path
                   d="m 449.223,-545.742 c 0.363,0.027 3.226,0.734 3.843,0.898"
                   style="fill:none;stroke:#000000;stroke-width:1.26872;stroke-linecap:round;stroke-linejoin:round;stroke-miterlimit:10;stroke-dasharray:none;stroke-opacity:1"
                   id="path2914" />
              </g>
              <g
                 id="g2916"
                 transform="matrix(0.736505,0,0,-0.736505,666.9067,199.89156)">
                <path
                   d="m 483.535,-535.176 c -1.601,-1.828 3.543,-6.797 4.246,-2.886 0.449,2.066 -2.988,2.054 -3.125,2.351"
                   style="fill:none;stroke:#000000;stroke-width:1.26872;stroke-linecap:round;stroke-linejoin:round;stroke-miterlimit:10;stroke-dasharray:none;stroke-opacity:1"
                   id="path2918" />
              </g>
              <g
                 id="g2920"
                 transform="matrix(0.736505,0,0,-0.736505,666.9067,199.89156)">
                <path
                   d="m 492.301,-537.289 c -3.903,0.051 0.887,-5.027 0.773,-2.578 -0.16,1.269 -1.222,3.238 -2.625,1.715"
                   style="fill:none;stroke:#000000;stroke-width:1.26872;stroke-linecap:round;stroke-linejoin:round;stroke-miterlimit:10;stroke-dasharray:none;stroke-opacity:1"
                   id="path2922" />
              </g>
              <g
                 id="g2924"
                 transform="matrix(0.736505,0,0,-0.736505,666.9067,199.89156)">
                <path
                   d="m 492.012,-545.191 c -1.793,2.39 -1.457,-6.157 2.078,-1.957 0.496,1.523 -1.652,3.722 -3.297,2.769"
                   style="fill:none;stroke:#000000;stroke-width:1.26872;stroke-linecap:round;stroke-linejoin:round;stroke-miterlimit:10;stroke-dasharray:none;stroke-opacity:1"
                   id="path2926" />
              </g>
              <g
                 id="g2928"
                 transform="matrix(0.736505,0,0,-0.736505,666.9067,199.89156)">
                <path
                   d="m 486.512,-548.09 c -1.242,2.707 -2.082,-4.148 1.539,-1.414 0.375,1.609 -0.141,2.422 -1.66,2.922"
                   style="fill:none;stroke:#000000;stroke-width:1.26872;stroke-linecap:round;stroke-linejoin:round;stroke-miterlimit:10;stroke-dasharray:none;stroke-opacity:1"
                   id="path2930" />
              </g>
              <g
                 id="g2932"
                 transform="matrix(0.736505,0,0,-0.736505,666.9067,199.89156)">
                <path
                   d="m 482.312,-543.012 c -3.949,-1.523 2.5,-5.496 1.172,-1.14 -0.589,0.652 -1.144,1.043 -2.105,0.746"
                   style="fill:none;stroke:#000000;stroke-width:1.26872;stroke-linecap:round;stroke-linejoin:round;stroke-miterlimit:10;stroke-dasharray:none;stroke-opacity:1"
                   id="path2934" />
              </g>
              <g
                 id="g2936"
                 transform="matrix(0.736505,0,0,-0.736505,666.9067,199.89156)">
                <path
                   d="m 486.508,-606.824 c -3.309,-4.875 7.449,-1.66 1.105,0.226 l -0.109,-0.398"
                   style="fill:none;stroke:#000000;stroke-width:1.26872;stroke-linecap:round;stroke-linejoin:round;stroke-miterlimit:10;stroke-dasharray:none;stroke-opacity:1"
                   id="path2938" />
              </g>
              <g
                 id="g2940"
                 transform="matrix(0.736505,0,0,-0.736505,666.9067,199.89156)">
                <path
                   d="m 493.766,-609.746 c -2.621,-0.43 -0.231,-5.977 1.718,-2.68 -0.046,1.574 -2.629,3.805 -3.757,1.996"
                   style="fill:none;stroke:#000000;stroke-width:1.26872;stroke-linecap:round;stroke-linejoin:round;stroke-miterlimit:10;stroke-dasharray:none;stroke-opacity:1"
                   id="path2942" />
              </g>
              <g
                 id="g2944"
                 transform="matrix(0.736505,0,0,-0.736505,666.9067,199.89156)">
                <path
                   d="m 489.93,-619.18 c -1.883,0.235 1.629,-5.465 4.617,-1.621 1.234,2.809 -3.828,4.383 -5.258,2.004"
                   style="fill:none;stroke:#000000;stroke-width:1.26872;stroke-linecap:round;stroke-linejoin:round;stroke-miterlimit:10;stroke-dasharray:none;stroke-opacity:1"
                   id="path2946" />
              </g>
              <g
                 id="g2948"
                 transform="matrix(0.736505,0,0,-0.736505,666.9067,199.89156)">
                <path
                   d="m 484.832,-618.344 c -6.934,-2.773 5.145,-6.148 0.656,0.121 -0.418,0.762 -1.437,0.368 -2.008,0.914"
                   style="fill:none;stroke:#000000;stroke-width:1.26872;stroke-linecap:round;stroke-linejoin:round;stroke-miterlimit:10;stroke-dasharray:none;stroke-opacity:1"
                   id="path2950" />
              </g>
              <g
                 id="g2952"
                 transform="matrix(0.736505,0,0,-0.736505,666.9067,199.89156)">
                <path
                   d="m 484.086,-611.836 c -5.133,-4.441 6.676,-5.648 1.809,-0.41 -0.661,0.484 -1.485,0.574 -2.239,0.828"
                   style="fill:none;stroke:#000000;stroke-width:1.26872;stroke-linecap:round;stroke-linejoin:round;stroke-miterlimit:10;stroke-dasharray:none;stroke-opacity:1"
                   id="path2954" />
              </g>
              <g
                 id="g2956"
                 transform="matrix(0.736505,0,0,-0.736505,666.9067,199.89156)">
                <path
                   d="m 512.059,-634.109 c 2.191,0.039 9.207,1.406 13.183,1.418 1.262,-0.207 2.727,0.296 2.168,-0.438"
                   style="fill:none;stroke:#000000;stroke-width:1.26872;stroke-linecap:round;stroke-linejoin:round;stroke-miterlimit:10;stroke-dasharray:none;stroke-opacity:1"
                   id="path2958" />
              </g>
              <g
                 id="g2960"
                 transform="matrix(0.736505,0,0,-0.736505,666.9067,199.89156)">
                <path
                   d="m 529.285,-635.035 c 5.238,-4.813 -7.234,-10.645 -9.613,-5.285 -1.77,1.23 -0.281,2.894 -1.731,2.531"
                   style="fill:none;stroke:#000000;stroke-width:1.26872;stroke-linecap:round;stroke-linejoin:round;stroke-miterlimit:10;stroke-dasharray:none;stroke-opacity:1"
                   id="path2962" />
              </g>
              <g
                 id="g2964"
                 transform="matrix(0.736505,0,0,-0.736505,666.9067,199.89156)">
                <path
                   d="m 517.941,-637.789 c 3.2,-3.172 -7.464,2.742 -5.882,3.68"
                   style="fill:none;stroke:#000000;stroke-width:1.26872;stroke-linecap:round;stroke-linejoin:round;stroke-miterlimit:10;stroke-dasharray:none;stroke-opacity:1"
                   id="path2966" />
              </g>
              <g
                 id="g2968"
                 transform="matrix(0.736505,0,0,-0.736505,666.9067,199.89156)">
                <path
                   d="m 519.926,-635.199 c -1.125,-3.332 5.633,-6 5.703,-0.703 -0.383,1.257 1.055,1.312 0.012,1.343"
                   style="fill:none;stroke:#000000;stroke-width:1.26872;stroke-linecap:round;stroke-linejoin:round;stroke-miterlimit:10;stroke-dasharray:none;stroke-opacity:1"
                   id="path2970" />
              </g>
              <g
                 id="g2972"
                 transform="matrix(0.736505,0,0,-0.736505,666.9067,199.89156)">
                <path
                   d="m 572.496,-612 c -4.058,1.848 -6.789,-0.512 -4.191,-4.254 0.215,-3.32 3.336,-7.976 4.851,-7.105"
                   style="fill:none;stroke:#000000;stroke-width:1.26872;stroke-linecap:round;stroke-linejoin:round;stroke-miterlimit:10;stroke-dasharray:none;stroke-opacity:1"
                   id="path2974" />
              </g>
              <g
                 id="g2976"
                 transform="matrix(0.736505,0,0,-0.736505,666.9067,199.89156)">
                <path
                   d="m 575.285,-630.684 c -2.285,0.461 -7.355,-6.195 -5.918,-7.453 l -0.074,-0.074 -0.199,0.055"
                   style="fill:none;stroke:#000000;stroke-width:1.26872;stroke-linecap:round;stroke-linejoin:round;stroke-miterlimit:10;stroke-dasharray:none;stroke-opacity:1"
                   id="path2978" />
              </g>
              <g
                 id="g2980"
                 transform="matrix(0.736505,0,0,-0.736505,666.9067,199.89156)">
                <path
                   d="m 567.824,-639.66 c -6.242,1.515 -2.906,-10.164 2.86,-5.985 4.418,-0.07 7.371,4.602 2.582,6.684 -1.106,0.313 -6.536,-0.039 -4.368,0.332"
                   style="fill:none;stroke:#000000;stroke-width:1.26872;stroke-linecap:round;stroke-linejoin:round;stroke-miterlimit:10;stroke-dasharray:none;stroke-opacity:1"
                   id="path2982" />
              </g>
              <g
                 id="g2984"
                 transform="matrix(0.736505,0,0,-0.736505,666.9067,199.89156)">
                <path
                   d="m 574.195,-640.762 c 1.11,-0.968 2.828,5.434 5.024,5.082"
                   style="fill:none;stroke:#000000;stroke-width:1.26872;stroke-linecap:round;stroke-linejoin:round;stroke-miterlimit:10;stroke-dasharray:none;stroke-opacity:1"
                   id="path2986" />
              </g>
              <g
                 id="g2988"
                 transform="matrix(0.736505,0,0,-0.736505,666.9067,199.89156)">
                <path
                   d="m 562.168,-619.84 c 1.211,-3.539 1.383,-10.629 0.652,-15.621 -0.16,-0.742 4.953,-6.859 5.004,-4.199"
                   style="fill:none;stroke:#000000;stroke-width:1.26872;stroke-linecap:round;stroke-linejoin:round;stroke-miterlimit:10;stroke-dasharray:none;stroke-opacity:1"
                   id="path2990" />
              </g>
              <g
                 id="g2992"
                 transform="matrix(0.736505,0,0,-0.736505,666.9067,199.89156)">
                <path
                   d="m 561.734,-621.027 c 0.551,1.445 -5.32,-4.957 -7.179,-5.504 -1.004,-0.449 -0.09,-0.426 -0.18,-0.25"
                   style="fill:none;stroke:#000000;stroke-width:1.26872;stroke-linecap:round;stroke-linejoin:round;stroke-miterlimit:10;stroke-dasharray:none;stroke-opacity:1"
                   id="path2994" />
              </g>
              <g
                 id="g2996"
                 transform="matrix(0.736505,0,0,-0.736505,666.9067,199.89156)">
                <path
                   d="m 532.676,-623.863 c 2.386,-1.512 -7.125,1.48 -7.746,2.183"
                   style="fill:none;stroke:#000000;stroke-width:1.26872;stroke-linecap:round;stroke-linejoin:round;stroke-miterlimit:10;stroke-dasharray:none;stroke-opacity:1"
                   id="path2998" />
              </g>
              <g
                 id="g3000"
                 transform="matrix(0.736505,0,0,-0.736505,666.9067,199.89156)">
                <path
                   d="m 532.043,-608.457 c 0.152,-0.492 -8.219,-1.551 -6.883,-1.191 -1.262,6.89 -2.433,18.363 -0.207,22.91 -0.551,-0.2 1,-0.047 1.199,-0.133"
                   style="fill:none;stroke:#000000;stroke-width:1.26872;stroke-linecap:round;stroke-linejoin:round;stroke-miterlimit:10;stroke-dasharray:none;stroke-opacity:1"
                   id="path3002" />
              </g>
              <g
                 id="g3004"
                 transform="matrix(0.736505,0,0,-0.736505,666.9067,199.89156)">
                <path
                   d="m 525.551,-587.82 c 0,0 9.004,1.515 7.125,0.879"
                   style="fill:none;stroke:#000000;stroke-width:1.26872;stroke-linecap:round;stroke-linejoin:round;stroke-miterlimit:10;stroke-dasharray:none;stroke-opacity:1"
                   id="path3006" />
              </g>
              <g
                 id="g3008"
                 transform="matrix(0.736505,0,0,-0.736505,666.9067,199.89156)">
                <path
                   d="m 527.293,-589.254 c -5.223,0.137 1.629,-7.137 2.473,-1.91"
                   style="fill:none;stroke:#000000;stroke-width:1.26872;stroke-linecap:round;stroke-linejoin:round;stroke-miterlimit:10;stroke-dasharray:none;stroke-opacity:1"
                   id="path3010" />
              </g>
              <g
                 id="g3012"
                 transform="matrix(0.736505,0,0,-0.736505,666.9067,199.89156)">
                <path
                   d="m 526.793,-594.547 c -0.652,-0.726 1.211,0.102 1.844,-0.078"
                   style="fill:none;stroke:#000000;stroke-width:1.26872;stroke-linecap:round;stroke-linejoin:round;stroke-miterlimit:10;stroke-dasharray:none;stroke-opacity:1"
                   id="path3014" />
              </g>
              <g
                 id="g3016"
                 transform="matrix(0.736505,0,0,-0.736505,666.9067,199.89156)">
                <path
                   d="m 525.52,-604.699 c -0.696,1.441 4.187,2.359 4.257,-1.098"
                   style="fill:none;stroke:#000000;stroke-width:1.26872;stroke-linecap:round;stroke-linejoin:round;stroke-miterlimit:10;stroke-dasharray:none;stroke-opacity:1"
                   id="path3018" />
              </g>
              <g
                 id="g3020"
                 transform="matrix(0.736505,0,0,-0.736505,666.9067,199.89156)">
                <path
                   d="m 570.684,-552.996 c 0.254,0.223 -1.141,-7.574 0.953,-5.18 2.222,-0.738 0.758,-7.265 0.808,-10.293 -0.3,-3.707 0.723,-6.289 1.34,-1.047 1.422,3.871 1.36,11.418 1.586,13.211 l -0.187,-0.406"
                   style="fill:none;stroke:#000000;stroke-width:1.26872;stroke-linecap:round;stroke-linejoin:round;stroke-miterlimit:10;stroke-dasharray:none;stroke-opacity:1"
                   id="path3022" />
              </g>
              <g
                 id="g3024"
                 transform="matrix(0.736505,0,0,-0.736505,666.9067,199.89156)">
                <path
                   d="m 564.809,-589.312 c -0.247,1.671 -0.36,12.703 4.3,9.57 1.895,-3.906 3.551,-10.399 2.551,-12.942"
                   style="fill:none;stroke:#000000;stroke-width:1.26872;stroke-linecap:round;stroke-linejoin:round;stroke-miterlimit:10;stroke-dasharray:none;stroke-opacity:1"
                   id="path3026" />
              </g>
              <g
                 id="g3028"
                 transform="matrix(0.736505,0,0,-0.736505,666.9067,199.89156)">
                <path
                   d="m 568.914,-591.492 c -2.367,3.035 0.781,9.789 1.797,0.918 -0.004,-0.231 0.383,-2 0.074,-1.762"
                   style="fill:none;stroke:#000000;stroke-width:1.26872;stroke-linecap:round;stroke-linejoin:round;stroke-miterlimit:10;stroke-dasharray:none;stroke-opacity:1"
                   id="path3030" />
              </g>
              <g
                 id="g3032"
                 transform="matrix(0.736505,0,0,-0.736505,666.9067,199.89156)">
                <path
                   d="m 563.195,-592.387 c 3.438,0.227 6.2,-2.136 8.203,-3.281"
                   style="fill:none;stroke:#000000;stroke-width:1.26872;stroke-linecap:round;stroke-linejoin:round;stroke-miterlimit:10;stroke-dasharray:none;stroke-opacity:1"
                   id="path3034" />
              </g>
              <g
                 id="g3036"
                 transform="matrix(0.736505,0,0,-0.736505,666.9067,199.89156)">
                <path
                   d="m 571.398,-595.668 c 4.762,-4.617 3.661,-15.918 -3.066,-19.504 -1.945,0.16 -3.641,-2.055 -4.098,-0.191"
                   style="fill:none;stroke:#000000;stroke-width:1.26872;stroke-linecap:round;stroke-linejoin:round;stroke-miterlimit:10;stroke-dasharray:none;stroke-opacity:1"
                   id="path3038" />
              </g>
              <g
                 id="g3040"
                 transform="matrix(0.736505,0,0,-0.736505,666.9067,199.89156)">
                <path
                   d="m 551.941,-608.453 c -3.031,-0.328 3.871,-0.66 3.871,-0.66"
                   style="fill:none;stroke:#000000;stroke-width:1.26872;stroke-linecap:round;stroke-linejoin:round;stroke-miterlimit:10;stroke-dasharray:none;stroke-opacity:1"
                   id="path3042" />
              </g>
              <g
                 id="g3044"
                 transform="matrix(0.736505,0,0,-0.736505,666.9067,199.89156)">
                <path
                   d="m 555.812,-609.113 c 5.583,3.695 1.395,11.816 3.555,17.715 0.156,2.605 0.738,10.246 0.071,7.371 -1.618,0.004 -4.926,1.55 -7.133,1.402"
                   style="fill:none;stroke:#000000;stroke-width:1.26872;stroke-linecap:round;stroke-linejoin:round;stroke-miterlimit:10;stroke-dasharray:none;stroke-opacity:1"
                   id="path3046" />
              </g>
              <g
                 id="g3048"
                 transform="matrix(0.736505,0,0,-0.736505,666.9067,199.89156)">
                <path
                   d="m 557.891,-583.637 c -0.653,-2.316 10.011,-3.285 6.953,1.774 -1.543,3.254 1.836,11.191 -3.426,8.976 -6.234,1.43 -3.945,-6.547 -4.93,-9.222 l 0.117,-0.02 0.11,-0.309"
                   style="fill:none;stroke:#000000;stroke-width:1.26872;stroke-linecap:round;stroke-linejoin:round;stroke-miterlimit:10;stroke-dasharray:none;stroke-opacity:1"
                   id="path3050" />
              </g>
              <g
                 id="g3052"
                 transform="matrix(0.736505,0,0,-0.736505,666.9067,199.89156)">
                <path
                   d="m 554.957,-575.465 c -0.75,0.668 4.973,0.496 -2.668,-0.082"
                   style="fill:none;stroke:#000000;stroke-width:1.26872;stroke-linecap:round;stroke-linejoin:round;stroke-miterlimit:10;stroke-dasharray:none;stroke-opacity:1"
                   id="path3054" />
              </g>
              <g
                 id="g3056"
                 transform="matrix(0.736505,0,0,-0.736505,666.9067,199.89156)">
                <path
                   d="m 558.531,-572.938 c 0.043,2.754 -0.406,9.469 -0.929,13.629 -1.04,12.446 -1.606,25.192 -2.821,37.227 -0.386,-0.852 0.281,1.742 1.004,1.773"
                   style="fill:none;stroke:#000000;stroke-width:1.26872;stroke-linecap:round;stroke-linejoin:round;stroke-miterlimit:10;stroke-dasharray:none;stroke-opacity:1"
                   id="path3058" />
              </g>
              <g
                 id="g3060"
                 transform="matrix(0.736505,0,0,-0.736505,666.9067,199.89156)">
                <path
                   d="m 562.82,-534.363 c -2.238,3.785 -1.793,-8.903 0.043,-3.774 -0.297,1.207 -0.668,3.028 -0.929,3.008"
                   style="fill:none;stroke:#000000;stroke-width:1.26872;stroke-linecap:round;stroke-linejoin:round;stroke-miterlimit:10;stroke-dasharray:none;stroke-opacity:1"
                   id="path3062" />
              </g>
              <g
                 id="g3064"
                 transform="matrix(0.736505,0,0,-0.736505,666.9067,199.89156)">
                <path
                   d="m 554.273,-560.062 c -3.746,-3.211 3.653,-6.887 1.372,-1.043"
                   style="fill:none;stroke:#000000;stroke-width:1.26872;stroke-linecap:round;stroke-linejoin:round;stroke-miterlimit:10;stroke-dasharray:none;stroke-opacity:1"
                   id="path3066" />
              </g>
              <g
                 id="g3068"
                 transform="matrix(0.736505,0,0,-0.736505,666.9067,199.89156)">
                <path
                   d="m 580.695,-508.125 c -3.66,2.105 -2.797,-8.977 0.606,-3.523 -0.5,1.328 1.215,3.546 -0.606,3.523"
                   style="fill:none;stroke:#000000;stroke-width:1.26872;stroke-linecap:round;stroke-linejoin:round;stroke-miterlimit:10;stroke-dasharray:none;stroke-opacity:1"
                   id="path3070" />
              </g>
              <g
                 id="g3072"
                 transform="matrix(0.736505,0,0,-0.736505,666.9067,199.89156)">
                <path
                   d="m 501.062,-503.98 c -1.023,2.386 1.704,-5.325 4.665,-1.461 0.589,0.816 5.921,0.957 4.128,0.625"
                   style="fill:none;stroke:#000000;stroke-width:1.26872;stroke-linecap:round;stroke-linejoin:round;stroke-miterlimit:10;stroke-dasharray:none;stroke-opacity:1"
                   id="path3074" />
              </g>
              <g
                 id="g3500"
                 transform="matrix(0.736505,0,0,-0.736505,666.9067,199.89156)">
                <path
                   d="m 539.043,-539.844 c -0.309,0.782 2.176,10.895 5.613,5.66 0.735,-1.339 0.168,-5.257 -0.472,-6.035"
                   style="fill:none;stroke:#000000;stroke-width:1.26872;stroke-linecap:round;stroke-linejoin:round;stroke-miterlimit:10;stroke-dasharray:none;stroke-opacity:1"
                   id="path3502" />
              </g>
              <g
                 id="g3504"
                 transform="matrix(0.736505,0,0,-0.736505,666.9067,199.89156)">
                <path
                   d="m 539.043,-539.844 c -0.828,-0.574 5.191,-0.406 5.805,-0.226"
                   style="fill:none;stroke:#000000;stroke-width:1.26872;stroke-linecap:round;stroke-linejoin:round;stroke-miterlimit:10;stroke-dasharray:none;stroke-opacity:1"
                   id="path3506" />
              </g>
              <g
                 id="g3508"
                 transform="matrix(0.736505,0,0,-0.736505,666.9067,199.89156)">
                <path
                   d="m 536.742,-542.586 c 2.074,-0.293 10.344,0.035 11.344,-0.137 3.414,-2.195 1.035,-7.511 -3.836,-5.91 -4.082,0.637 -9.355,-2.683 -8.156,2.723 0.215,0.894 0.14,3.769 0.648,3.324"
                   style="fill:none;stroke:#000000;stroke-width:1.26872;stroke-linecap:round;stroke-linejoin:round;stroke-miterlimit:10;stroke-dasharray:none;stroke-opacity:1"
                   id="path3510" />
              </g>
              <g
                 id="g3512"
                 transform="matrix(0.736505,0,0,-0.736505,666.9067,199.89156)">
                <path
                   d="m 542.043,-543.324 c -0.07,-0.442 0.086,-4.039 0.195,-4.531"
                   style="fill:none;stroke:#000000;stroke-width:1.26872;stroke-linecap:round;stroke-linejoin:round;stroke-miterlimit:10;stroke-dasharray:none;stroke-opacity:1"
                   id="path3514" />
              </g>
              <g
                 id="g3516"
                 transform="matrix(0.736505,0,0,-0.736505,666.9067,199.89156)">
                <path
                   d="m 525.141,-567.461 c 0.519,-1.746 -3.602,7.961 0.816,6.52 2.961,0.707 5.211,-0.711 3.738,-2.661 1.082,-3.003 -1.14,-4.902 -4.554,-3.859"
                   style="fill:none;stroke:#000000;stroke-width:1.26872;stroke-linecap:round;stroke-linejoin:round;stroke-miterlimit:10;stroke-dasharray:none;stroke-opacity:1"
                   id="path3518" />
              </g>
              <g
                 id="g3520"
                 transform="matrix(0.736505,0,0,-0.736505,666.9067,199.89156)">
                <path
                   d="m 514.34,-544.594 c 1.488,-5.203 3.531,-15.39 2.722,-19.586 -0.945,-2.215 -4.496,-2.965 -3.546,1.496 -0.493,4.86 -0.793,13.496 -0.891,17.012 -0.434,0.711 1.785,2.875 1.715,1.078"
                   style="fill:none;stroke:#000000;stroke-width:1.26872;stroke-linecap:round;stroke-linejoin:round;stroke-miterlimit:10;stroke-dasharray:none;stroke-opacity:1"
                   id="path3522" />
              </g>
              <g
                 id="g3524"
                 transform="matrix(0.736505,0,0,-0.736505,666.9067,199.89156)">
                <path
                   d="m 522.379,-533.375 c 1.215,-7.934 0.094,-16 -0.813,-23.902 -0.496,-3.469 -0.66,-7.016 -0.117,-10.489"
                   style="fill:none;stroke:#000000;stroke-width:1.26872;stroke-linecap:round;stroke-linejoin:round;stroke-miterlimit:10;stroke-dasharray:none;stroke-opacity:1"
                   id="path3526" />
              </g>
              <g
                 id="g3528"
                 transform="matrix(0.736505,0,0,-0.736505,666.9067,199.89156)">
                <path
                   d="m 528.254,-535.168 c 0.887,-4.781 1.629,-13.867 0.211,-17.797"
                   style="fill:none;stroke:#000000;stroke-width:1.26872;stroke-linecap:round;stroke-linejoin:round;stroke-miterlimit:10;stroke-dasharray:none;stroke-opacity:1"
                   id="path3530" />
              </g>
              <g
                 id="g3532"
                 transform="matrix(0.736505,0,0,-0.736505,666.9067,199.89156)">
                <path
                   d="m 563.504,-529.895 c 2.726,-8.429 0.844,-17.886 1.961,-27.039 0.078,-3.941 -0.121,-9.89 0.894,-12.746 l -0.312,0.024 -0.375,0.304"
                   style="fill:none;stroke:#000000;stroke-width:1.26872;stroke-linecap:round;stroke-linejoin:round;stroke-miterlimit:10;stroke-dasharray:none;stroke-opacity:1"
                   id="path3534" />
              </g>
              <g
                 id="g3536"
                 transform="matrix(0.736505,0,0,-0.736505,666.9067,199.89156)">
                <path
                   d="m 520.32,-584.246 c 0.047,-0.149 -5.32,-1.629 -3.105,-4.359 0.57,-3.372 1.863,-7.633 1.863,-10.282 l -0.676,0.477"
                   style="fill:none;stroke:#000000;stroke-width:1.26872;stroke-linecap:round;stroke-linejoin:round;stroke-miterlimit:10;stroke-dasharray:none;stroke-opacity:1"
                   id="path3538" />
              </g>
              <g
                 id="g3540"
                 transform="matrix(0.736505,0,0,-0.736505,666.9067,199.89156)">
                <path
                   d="m 512.434,-597.715 c 1.211,-2.515 -2.25,-13.539 5.285,-10.961 -0.465,0.098 0.019,-0.16 -0.305,0.317"
                   style="fill:none;stroke:#000000;stroke-width:1.26872;stroke-linecap:round;stroke-linejoin:round;stroke-miterlimit:10;stroke-dasharray:none;stroke-opacity:1"
                   id="path3542" />
              </g>
              <g
                 id="g3544"
                 transform="matrix(0.736505,0,0,-0.736505,666.9067,199.89156)">
                <path
                   d="m 505.648,-577.512 c 0.625,-0.14 0.153,-8.082 0.594,-7.8 2.586,0.042 8.5,-1.633 8.649,-0.719"
                   style="fill:none;stroke:#000000;stroke-width:1.26872;stroke-linecap:round;stroke-linejoin:round;stroke-miterlimit:10;stroke-dasharray:none;stroke-opacity:1"
                   id="path3546" />
              </g>
              <g
                 id="g3548"
                 transform="matrix(0.736505,0,0,-0.736505,666.9067,199.89156)">
                <path
                   d="m 511.391,-572.191 c 1.855,-0.344 1.816,-9.106 1.597,-8.977 -0.39,-0.523 0.649,-1.648 -0.14,-0.797"
                   style="fill:none;stroke:#000000;stroke-width:1.26872;stroke-linecap:round;stroke-linejoin:round;stroke-miterlimit:10;stroke-dasharray:none;stroke-opacity:1"
                   id="path3550" />
              </g>
            </g>
          </g>
        </g>
      </g>
    </g>
  </g>
</svg>
