<?xml version="1.0" encoding="UTF-8" standalone="no"?>
<!-- Created by Ashley Blewer - This work is licensed under a Creative Commons Attribution 4.0 International License -->

<svg
   width="544"
   height="480"
   viewBox="0 0 143.93334 127"
   version="1.1"
   id="svg2490"
   inkscape:version="1.2.2 (1:1.2.2+202212051552+b0a8486541)"
   sodipodi:docname="1953-cinemascope-4.svg"
   xmlns:inkscape="http://www.inkscape.org/namespaces/inkscape"
   xmlns:sodipodi="http://sodipodi.sourceforge.net/DTD/sodipodi-0.dtd"
   xmlns="http://www.w3.org/2000/svg"
   xmlns:svg="http://www.w3.org/2000/svg">
  <sodipodi:namedview
     id="namedview2492"
     pagecolor="#ffffff"
     bordercolor="#666666"
     borderopacity="1.0"
     inkscape:pageshadow="2"
     inkscape:pageopacity="0.0"
     inkscape:pagecheckerboard="0"
     inkscape:document-units="mm"
     showgrid="false"
     units="px"
     inkscape:zoom="0.90583674"
     inkscape:cx="336.15329"
     inkscape:cy="254.46086"
     inkscape:window-width="1846"
     inkscape:window-height="1136"
     inkscape:window-x="0"
     inkscape:window-y="0"
     inkscape:window-maximized="1"
     inkscape:current-layer="g6395"
     inkscape:showpageshadow="2"
     inkscape:deskcolor="#d1d1d1" />
  <defs
     id="defs2487" />
  <g
     inkscape:label="Layer 1"
     inkscape:groupmode="layer"
     id="layer1">
    <g
       id="g4731"
       transform="matrix(0.32961229,0,0,0.32903008,-241.78905,1.73126)"
       style="stroke-width:2.68698">
      <g
         id="g104528"
         transform="matrix(1,0,0,-1,0,792)"
         style="stroke-width:2.68698">
        <g
           id="g104530"
           style="stroke-width:2.68698" />
      </g>
      <g
         id="g104996"
         transform="matrix(1,0,0,-1,0,792)"
         style="stroke-width:2.68698">
        <g
           id="g104998"
           style="stroke-width:2.68698" />
      </g>
      <g
         id="g28852"
         transform="matrix(1.070281,0,0,1.0721748,779.91249,-443.13657)">
        <g
           id="g6718"
           transform="matrix(1.117886,0,0,1.117886,-549.13111,-491.62865)">
          <g
             id="g6395"
             transform="matrix(0.53415107,0,0,0.53415109,441.93669,415.26868)">
            <g
               id="g10797"
               transform="matrix(2.6795702,0,0,2.6795702,-254.57597,-1614.898)">
              <g
                 id="g3173"
                 transform="matrix(1,0,0,-1,-65.05898,738.02307)">
                <path
                   d="m 177.152,-319.16 -1.347,167.055"
                   style="fill:none;stroke:#000000;stroke-width:2.61674;stroke-linecap:round;stroke-linejoin:round;stroke-miterlimit:10;stroke-dasharray:none;stroke-opacity:1"
                   id="path3175" />
              </g>
              <g
                 id="g3177"
                 transform="matrix(1,0,0,-1,-65.05898,738.02307)">
                <path
                   d="m 175.805,-152.105 c 16.312,-0.864 32.703,1.011 49.429,-1.266 28.227,-2.223 56.496,-1.145 84.758,-0.996 24.461,-0.031 48.883,-0.227 73.34,-0.75 10.621,0.871 19.793,-0.121 29.516,-2.598"
                   style="fill:none;stroke:#000000;stroke-width:2.61674;stroke-linecap:round;stroke-linejoin:round;stroke-miterlimit:10;stroke-dasharray:none;stroke-opacity:1"
                   id="path3179" />
              </g>
              <g
                 id="g3181"
                 transform="matrix(1,0,0,-1,-65.05898,738.02307)">
                <path
                   d="m 177.391,-320.055 c -0.239,0.895 236.66,1.602 236.66,1.602"
                   style="fill:none;stroke:#000000;stroke-width:2.61674;stroke-linecap:round;stroke-linejoin:round;stroke-miterlimit:10;stroke-dasharray:none;stroke-opacity:1"
                   id="path3183" />
              </g>
              <g
                 id="g3185"
                 transform="matrix(1,0,0,-1,-65.05898,738.02307)">
                <path
                   d="m 414.051,-318.453 -1.203,160.738"
                   style="fill:none;stroke:#000000;stroke-width:2.61674;stroke-linecap:round;stroke-linejoin:round;stroke-miterlimit:10;stroke-dasharray:none;stroke-opacity:1"
                   id="path3187" />
              </g>
              <g
                 id="g3189"
                 transform="matrix(1,0,0,-1,-65.05898,738.02307)">
                <path
                   d="m 188.652,-153.809 c 0.16,-10.089 26.965,-12.765 19.543,0.395"
                   style="fill:none;stroke:#000000;stroke-width:2.61674;stroke-linecap:round;stroke-linejoin:round;stroke-miterlimit:10;stroke-dasharray:none;stroke-opacity:1"
                   id="path3191" />
              </g>
              <g
                 id="g3193"
                 transform="matrix(1,0,0,-1,-65.05898,738.02307)">
                <path
                   d="m 383.332,-155.117 c -2,-11.383 21.941,-7.633 17.766,-0.195"
                   style="fill:none;stroke:#000000;stroke-width:2.61674;stroke-linecap:round;stroke-linejoin:round;stroke-miterlimit:10;stroke-dasharray:none;stroke-opacity:1"
                   id="path3195" />
              </g>
              <g
                 id="g3197"
                 transform="matrix(1,0,0,-1,-65.05898,738.02307)">
                <path
                   d="m 379.535,-191.199 c 0.094,19.765 34.063,4.918 14.801,-5.363 -5.059,-0.5 -13.008,-0.633 -14.801,5.363"
                   style="fill:none;stroke:#000000;stroke-width:2.61674;stroke-linecap:round;stroke-linejoin:round;stroke-miterlimit:10;stroke-dasharray:none;stroke-opacity:1"
                   id="path3199" />
              </g>
              <g
                 id="g3201"
                 transform="matrix(1,0,0,-1,-65.05898,738.02307)">
                <path
                   d="m 381.859,-221.848 c 3.606,14.2 29.883,-1.359 12.075,-6.718 -5.645,0.406 -13.981,-1.688 -12.075,6.718"
                   style="fill:none;stroke:#000000;stroke-width:2.61674;stroke-linecap:round;stroke-linejoin:round;stroke-miterlimit:10;stroke-dasharray:none;stroke-opacity:1"
                   id="path3203" />
              </g>
              <g
                 id="g3205"
                 transform="matrix(1,0,0,-1,-65.05898,738.02307)">
                <path
                   d="m 381.973,-252.395 c 6.379,11.887 28.902,-3.253 12.847,-9.417 -5.558,0.382 -16.824,0.726 -12.976,8.976"
                   style="fill:none;stroke:#000000;stroke-width:2.61674;stroke-linecap:round;stroke-linejoin:round;stroke-miterlimit:10;stroke-dasharray:none;stroke-opacity:1"
                   id="path3207" />
              </g>
              <g
                 id="g3209"
                 transform="matrix(1,0,0,-1,-65.05898,738.02307)">
                <path
                   d="m 381.711,-290.316 c -3.563,14.988 29.008,8.742 15.109,-1.719 -5.074,-0.598 -10.57,-1.203 -15.109,1.719"
                   style="fill:none;stroke:#000000;stroke-width:2.61674;stroke-linecap:round;stroke-linejoin:round;stroke-miterlimit:10;stroke-dasharray:none;stroke-opacity:1"
                   id="path3211" />
              </g>
              <g
                 id="g3213"
                 transform="matrix(1,0,0,-1,-65.05898,738.02307)">
                <path
                   d="m 382.668,-318.559 c 0.742,7.477 17.375,7.051 17.023,0.735"
                   style="fill:none;stroke:#000000;stroke-width:2.61674;stroke-linecap:round;stroke-linejoin:round;stroke-miterlimit:10;stroke-dasharray:none;stroke-opacity:1"
                   id="path3215" />
              </g>
              <g
                 id="g3217"
                 transform="matrix(1,0,0,-1,-65.05898,738.02307)">
                <path
                   d="m 190.332,-319.41 c -2.527,7.598 18.637,8.449 16.969,1.722"
                   style="fill:none;stroke:#000000;stroke-width:2.61674;stroke-linecap:round;stroke-linejoin:round;stroke-miterlimit:10;stroke-dasharray:none;stroke-opacity:1"
                   id="path3219" />
              </g>
              <g
                 id="g3221"
                 transform="matrix(1,0,0,-1,-65.05898,738.02307)">
                <path
                   d="m 189.742,-285.93 c -1.015,-14.672 28.715,-7.539 16.11,5.239 -5.059,-0.008 -15.161,1.972 -15.825,-5.411"
                   style="fill:none;stroke:#000000;stroke-width:2.61674;stroke-linecap:round;stroke-linejoin:round;stroke-miterlimit:10;stroke-dasharray:none;stroke-opacity:1"
                   id="path3223" />
              </g>
              <g
                 id="g3225"
                 transform="matrix(1,0,0,-1,-65.05898,738.02307)">
                <path
                   d="m 190.363,-256.828 c 4.364,-12.332 26.371,-0.531 13.602,9.332 -6.676,0.308 -14.453,-1.152 -13.844,-8.91"
                   style="fill:none;stroke:#000000;stroke-width:2.61674;stroke-linecap:round;stroke-linejoin:round;stroke-miterlimit:10;stroke-dasharray:none;stroke-opacity:1"
                   id="path3227" />
              </g>
              <g
                 id="g3229"
                 transform="matrix(1,0,0,-1,-65.05898,738.02307)">
                <path
                   d="m 190.156,-224.781 c 5.016,-9.621 27.125,0.211 14.371,7.445 -5.531,2.688 -16.156,1.926 -14.371,-7.445"
                   style="fill:none;stroke:#000000;stroke-width:2.61674;stroke-linecap:round;stroke-linejoin:round;stroke-miterlimit:10;stroke-dasharray:none;stroke-opacity:1"
                   id="path3231" />
              </g>
              <g
                 id="g3233"
                 transform="matrix(1,0,0,-1,-65.05898,738.02307)">
                <path
                   d="m 188.02,-190.883 c 3.964,-11.734 30.238,1.824 13.546,7.031 -6.496,1.129 -13.492,1.829 -13.546,-7.031"
                   style="fill:none;stroke:#000000;stroke-width:2.61674;stroke-linecap:round;stroke-linejoin:round;stroke-miterlimit:10;stroke-dasharray:none;stroke-opacity:1"
                   id="path3235" />
              </g>
              <g
                 id="g3237"
                 transform="matrix(1,0,0,-1,-65.05898,738.02307)">
                <path
                   d="m 375.133,-155.883 c 1.051,-22.039 -23.469,-17.234 -37.207,-17.789 l -105.949,-0.601 c -9.02,0.863 -3.793,15.789 -6.743,20.902"
                   style="fill:none;stroke:#000000;stroke-width:2.61674;stroke-linecap:round;stroke-linejoin:round;stroke-miterlimit:10;stroke-dasharray:none;stroke-opacity:1"
                   id="path3239" />
              </g>
              <g
                 id="g3241"
                 transform="matrix(1,0,0,-1,-65.05898,738.02307)">
                <path
                   d="m 229.273,-180.992 c 18.606,0.832 38.571,3.191 57.403,3.613 24.012,1.609 47.988,-0.148 71.984,-0.133 14.68,0.66 17.813,-2.652 17.481,-16.074 0,0 2.886,-103.207 -4.11,-104.437 -0.574,-1.383 0.77,0.363 0,0"
                   style="fill:none;stroke:#000000;stroke-width:2.61674;stroke-linecap:round;stroke-linejoin:round;stroke-miterlimit:10;stroke-dasharray:none;stroke-opacity:1"
                   id="path3243" />
              </g>
              <g
                 id="g3245"
                 transform="matrix(1,0,0,-1,-65.05898,738.02307)">
                <path
                   d="m 229.273,-180.992 c 3.473,-30.242 -1.308,-60.403 -0.359,-90.903 -0.781,-12.507 -2.273,-27.437 17.52,-27.179 l 125.597,1.051"
                   style="fill:none;stroke:#000000;stroke-width:2.61674;stroke-linecap:round;stroke-linejoin:round;stroke-miterlimit:10;stroke-dasharray:none;stroke-opacity:1"
                   id="path3247" />
              </g>
              <g
                 id="g3249"
                 transform="matrix(1,0,0,-1,-65.05898,738.02307)">
                <path
                   d="m 376.098,-318.582 c 0,0 3.644,12.117 -1.41,12.773"
                   style="fill:none;stroke:#000000;stroke-width:2.61674;stroke-linecap:round;stroke-linejoin:round;stroke-miterlimit:10;stroke-dasharray:none;stroke-opacity:1"
                   id="path3251" />
              </g>
              <g
                 id="g3253"
                 transform="matrix(1,0,0,-1,-65.05898,738.02307)">
                <path
                   d="m 228.602,-318.211 c -4.629,20.848 14.582,13.711 28.164,14.25 24.172,1.266 48.433,-0.836 72.621,1.086 14.691,-0.543 30.367,1.789 44.437,-2.687"
                   style="fill:none;stroke:#000000;stroke-width:2.61674;stroke-linecap:round;stroke-linejoin:round;stroke-miterlimit:10;stroke-dasharray:none;stroke-opacity:1"
                   id="path3255" />
              </g>
              <g
                 id="g3257"
                 transform="matrix(1,0,0,-1,-65.05898,738.02307)">
                <path
                   d="m 279.602,-219.219 c -5.692,-20.039 -0.36,-41.347 8.937,-59.429 8.223,-19.016 28.25,-13.454 34.969,7.14 7.816,21.61 7.406,45.637 0.508,67.379 -2.504,17.094 -21.082,24.445 -32.989,6.75 -7.132,-7.652 -7.781,-11.168 -11.425,-21.84"
                   style="fill:none;stroke:#000000;stroke-width:2.61674;stroke-linecap:round;stroke-linejoin:round;stroke-miterlimit:10;stroke-dasharray:none;stroke-opacity:1"
                   id="path3259" />
              </g>
              <g
                 id="g3261"
                 transform="matrix(1,0,0,-1,-65.05898,738.02307)">
                <path
                   d="m 264.598,-191.617 c 0.074,-0.656 0.004,-3.602 -0.106,-4.414"
                   style="fill:none;stroke:#000000;stroke-width:2.61674;stroke-linecap:round;stroke-linejoin:round;stroke-miterlimit:10;stroke-dasharray:none;stroke-opacity:1"
                   id="path3263" />
              </g>
              <g
                 id="g3265"
                 transform="matrix(1,0,0,-1,-65.05898,738.02307)">
                <path
                   d="m 264.594,-207.145 c 0.011,-0.468 0.172,-2.335 0.242,-2.8"
                   style="fill:none;stroke:#000000;stroke-width:2.61674;stroke-linecap:round;stroke-linejoin:round;stroke-miterlimit:10;stroke-dasharray:none;stroke-opacity:1"
                   id="path3267" />
              </g>
              <g
                 id="g3269"
                 transform="matrix(1,0,0,-1,-65.05898,738.02307)">
                <path
                   d="m 263.305,-222.457 c 0.039,-0.414 0.386,-1.813 0.523,-2.094"
                   style="fill:none;stroke:#000000;stroke-width:2.61674;stroke-linecap:round;stroke-linejoin:round;stroke-miterlimit:10;stroke-dasharray:none;stroke-opacity:1"
                   id="path3271" />
              </g>
              <g
                 id="g3273"
                 transform="matrix(1,0,0,-1,-65.05898,738.02307)">
                <path
                   d="m 263.855,-237.387 c 0.004,-0.945 0.083,-4.859 0.118,-5.867"
                   style="fill:none;stroke:#000000;stroke-width:2.61674;stroke-linecap:round;stroke-linejoin:round;stroke-miterlimit:10;stroke-dasharray:none;stroke-opacity:1"
                   id="path3275" />
              </g>
              <g
                 id="g3277"
                 transform="matrix(1,0,0,-1,-65.05898,738.02307)">
                <path
                   d="m 263.062,-253.25 c -0.156,-1.023 -0.417,-5.121 -0.398,-6.148"
                   style="fill:none;stroke:#000000;stroke-width:2.61674;stroke-linecap:round;stroke-linejoin:round;stroke-miterlimit:10;stroke-dasharray:none;stroke-opacity:1"
                   id="path3279" />
              </g>
              <g
                 id="g3281"
                 transform="matrix(1,0,0,-1,-65.05898,738.02307)">
                <path
                   d="m 262.863,-268.637 c -0.953,-1.867 0.075,-3.992 -0.156,-5.922"
                   style="fill:none;stroke:#000000;stroke-width:2.61674;stroke-linecap:round;stroke-linejoin:round;stroke-miterlimit:10;stroke-dasharray:none;stroke-opacity:1"
                   id="path3283" />
              </g>
              <g
                 id="g3285"
                 transform="matrix(1,0,0,-1,-65.05898,738.02307)">
                <path
                   d="m 262.32,-285.648 c -0.066,-0.914 -0.461,-4.348 -0.586,-5.145"
                   style="fill:none;stroke:#000000;stroke-width:2.61674;stroke-linecap:round;stroke-linejoin:round;stroke-miterlimit:10;stroke-dasharray:none;stroke-opacity:1"
                   id="path3287" />
              </g>
              <g
                 id="g3289"
                 transform="matrix(1,0,0,-1,-65.05898,738.02307)">
                <path
                   d="m 344.105,-291.863 c 0.133,0.648 0.622,3.433 0.731,4.183"
                   style="fill:none;stroke:#000000;stroke-width:2.61674;stroke-linecap:round;stroke-linejoin:round;stroke-miterlimit:10;stroke-dasharray:none;stroke-opacity:1"
                   id="path3291" />
              </g>
              <g
                 id="g3293"
                 transform="matrix(1,0,0,-1,-65.05898,738.02307)">
                <path
                   d="m 344.016,-277.031 c 0.265,0.707 0.73,3.883 0.695,4.765"
                   style="fill:none;stroke:#000000;stroke-width:2.61674;stroke-linecap:round;stroke-linejoin:round;stroke-miterlimit:10;stroke-dasharray:none;stroke-opacity:1"
                   id="path3295" />
              </g>
              <g
                 id="g3297"
                 transform="matrix(1,0,0,-1,-65.05898,738.02307)">
                <path
                   d="m 345.18,-263.605 c 0.156,0.917 0.496,5.011 0.508,6.136"
                   style="fill:none;stroke:#000000;stroke-width:2.61674;stroke-linecap:round;stroke-linejoin:round;stroke-miterlimit:10;stroke-dasharray:none;stroke-opacity:1"
                   id="path3299" />
              </g>
              <g
                 id="g3301"
                 transform="matrix(1,0,0,-1,-65.05898,738.02307)">
                <path
                   d="m 345.086,-242.844 c -0.809,2.438 -0.313,4.953 0.324,7.328"
                   style="fill:none;stroke:#000000;stroke-width:2.61674;stroke-linecap:round;stroke-linejoin:round;stroke-miterlimit:10;stroke-dasharray:none;stroke-opacity:1"
                   id="path3303" />
              </g>
              <g
                 id="g3305"
                 transform="matrix(1,0,0,-1,-65.05898,738.02307)">
                <path
                   d="m 344.965,-222.832 c -0.184,1.137 -0.692,5.719 -0.766,6.875"
                   style="fill:none;stroke:#000000;stroke-width:2.61674;stroke-linecap:round;stroke-linejoin:round;stroke-miterlimit:10;stroke-dasharray:none;stroke-opacity:1"
                   id="path3307" />
              </g>
              <g
                 id="g3309"
                 transform="matrix(1,0,0,-1,-65.05898,738.02307)">
                <path
                   d="m 343.398,-207.422 c -0.828,1.613 0.911,3.188 0.293,4.86"
                   style="fill:none;stroke:#000000;stroke-width:2.61674;stroke-linecap:round;stroke-linejoin:round;stroke-miterlimit:10;stroke-dasharray:none;stroke-opacity:1"
                   id="path3311" />
              </g>
              <g
                 id="g3313"
                 transform="matrix(1,0,0,-1,-65.05898,738.02307)">
                <path
                   d="m 342.473,-194.816 c 0.007,0.91 -0.02,4.793 -0.043,5.82"
                   style="fill:none;stroke:#000000;stroke-width:2.61674;stroke-linecap:round;stroke-linejoin:round;stroke-miterlimit:10;stroke-dasharray:none;stroke-opacity:1"
                   id="path3315" />
              </g>
            </g>
          </g>
        </g>
      </g>
    </g>
  </g>
</svg>
