<?xml version="1.0" encoding="UTF-8" standalone="no"?>
<!-- Created by Ashley Blewer - This work is licensed under a Creative Commons Attribution 4.0 International License -->

<svg
   width="544"
   height="480"
   viewBox="0 0 143.93334 127"
   version="1.1"
   id="svg2490"
   inkscape:version="1.2.2 (1:1.2.2+202212051552+b0a8486541)"
   sodipodi:docname="1953-cinemascope-3.svg"
   xmlns:inkscape="http://www.inkscape.org/namespaces/inkscape"
   xmlns:sodipodi="http://sodipodi.sourceforge.net/DTD/sodipodi-0.dtd"
   xmlns="http://www.w3.org/2000/svg"
   xmlns:svg="http://www.w3.org/2000/svg">
  <sodipodi:namedview
     id="namedview2492"
     pagecolor="#ffffff"
     bordercolor="#666666"
     borderopacity="1.0"
     inkscape:pageshadow="2"
     inkscape:pageopacity="0.0"
     inkscape:pagecheckerboard="0"
     inkscape:document-units="mm"
     showgrid="false"
     units="px"
     inkscape:zoom="0.90583674"
     inkscape:cx="336.15329"
     inkscape:cy="254.46086"
     inkscape:window-width="1846"
     inkscape:window-height="1136"
     inkscape:window-x="0"
     inkscape:window-y="0"
     inkscape:window-maximized="1"
     inkscape:current-layer="g6395"
     inkscape:showpageshadow="2"
     inkscape:deskcolor="#d1d1d1" />
  <defs
     id="defs2487" />
  <g
     inkscape:label="Layer 1"
     inkscape:groupmode="layer"
     id="layer1">
    <g
       id="g4731"
       transform="matrix(0.32961229,0,0,0.32903008,-241.78905,1.73126)"
       style="stroke-width:2.68698">
      <g
         id="g104528"
         transform="matrix(1,0,0,-1,0,792)"
         style="stroke-width:2.68698">
        <g
           id="g104530"
           style="stroke-width:2.68698" />
      </g>
      <g
         id="g104996"
         transform="matrix(1,0,0,-1,0,792)"
         style="stroke-width:2.68698">
        <g
           id="g104998"
           style="stroke-width:2.68698" />
      </g>
      <g
         id="g28852"
         transform="matrix(1.070281,0,0,1.0721748,779.91249,-443.13657)">
        <g
           id="g6718"
           transform="matrix(1.117886,0,0,1.117886,-549.13111,-491.62865)">
          <g
             id="g6395"
             transform="matrix(0.53415107,0,0,0.53415109,441.93669,415.26868)">
            <g
               id="g10723"
               transform="matrix(2.1102935,0,0,2.1102935,23.905903,-1728.8909)">
              <g
                 id="g3317"
                 transform="matrix(1,0,0,-1,-65.05898,738.02307)">
                <path
                   d="m 323.887,-460.367 c -16.231,-2.711 -16.184,-23.613 -18.09,-37.063 -2.016,-27.543 -2.867,-55.437 0.476,-82.914 0.008,-9.582 7.133,-33.73 18.532,-19.058 4.879,10.14 4.672,21.988 6.953,32.972 2.219,18.118 6.015,36.043 5.336,54.395 -0.289,16.203 -0.106,33.375 -6.871,48.383 -1.489,2.59 -4.766,4.898 -7.743,3.074"
                   style="fill:none;stroke:#000000;stroke-width:2.61674;stroke-linecap:round;stroke-linejoin:round;stroke-miterlimit:10;stroke-dasharray:none;stroke-opacity:1"
                   id="path3319" />
              </g>
              <g
                 id="g3321"
                 transform="matrix(1,0,0,-1,-65.05898,738.02307)">
                <path
                   d="m 322.48,-460.578 c -4.734,29.836 -22.582,13.047 -26.277,-2.176 -3.664,-15.969 -5.445,-32.316 -8.437,-48.426 -4.246,-28.75 -2.75,-58.054 1.816,-86.636 1.969,-10.942 16.301,-25.082 26.879,-15.454 1.867,2.012 5.062,6.879 5.75,9.508"
                   style="fill:none;stroke:#000000;stroke-width:2.61674;stroke-linecap:round;stroke-linejoin:round;stroke-miterlimit:10;stroke-dasharray:none;stroke-opacity:1"
                   id="path3323" />
              </g>
              <g
                 id="g3325"
                 transform="matrix(1,0,0,-1,-65.05898,738.02307)">
                <path
                   d="m 308.52,-444.512 c -16.606,-0.855 -17.477,-22.058 -20.551,-34.5 -3.391,-19.769 -6.422,-39.578 -9.684,-59.367 -3.187,-27.683 -0.949,-56.203 7.992,-82.633 1.649,-3.269 6.114,-8.133 10.243,-7.898"
                   style="fill:none;stroke:#000000;stroke-width:2.61674;stroke-linecap:round;stroke-linejoin:round;stroke-miterlimit:10;stroke-dasharray:none;stroke-opacity:1"
                   id="path3327" />
              </g>
              <g
                 id="g3329"
                 transform="matrix(1,0,0,-1,-65.05898,738.02307)">
                <path
                   d="m 294.609,-608.152 c 2.196,-5.633 6.332,-15.172 1.911,-20.758"
                   style="fill:none;stroke:#000000;stroke-width:2.61674;stroke-linecap:round;stroke-linejoin:round;stroke-miterlimit:10;stroke-dasharray:none;stroke-opacity:1"
                   id="path3331" />
              </g>
              <g
                 id="g3333"
                 transform="matrix(1,0,0,-1,-65.05898,738.02307)">
                <path
                   d="m 298.57,-627.941 c 3.774,-17.981 20.332,3.3 21.297,12.316 1.184,3.852 2.258,7.809 2.344,11.863"
                   style="fill:none;stroke:#000000;stroke-width:2.61674;stroke-linecap:round;stroke-linejoin:round;stroke-miterlimit:10;stroke-dasharray:none;stroke-opacity:1"
                   id="path3335" />
              </g>
              <g
                 id="g3337"
                 transform="matrix(1,0,0,-1,-65.05898,738.02307)">
                <path
                   d="m 313.852,-469.145 c 10.144,-16.132 8.589,-36.046 10.984,-54.226 0.363,-17.004 -1.195,-34.34 -5.676,-50.727 -2.082,-5.269 -6.465,-10.652 -10.476,-14.757"
                   style="fill:none;stroke:#000000;stroke-width:2.61674;stroke-linecap:round;stroke-linejoin:round;stroke-miterlimit:10;stroke-dasharray:none;stroke-opacity:1"
                   id="path3339" />
              </g>
              <g
                 id="g3341"
                 transform="matrix(1,0,0,-1,-65.05898,738.02307)">
                <path
                   d="m 316.891,-466.809 c 14.144,-25.617 10.898,-56.031 10.547,-84.16 -0.872,-15.879 -4.012,-33.605 -16.481,-44.719"
                   style="fill:none;stroke:#000000;stroke-width:2.61674;stroke-linecap:round;stroke-linejoin:round;stroke-miterlimit:10;stroke-dasharray:none;stroke-opacity:1"
                   id="path3343" />
              </g>
              <g
                 id="g3345"
                 transform="matrix(1,0,0,-1,-65.05898,738.02307)">
                <path
                   d="m 321.645,-616.398 c 9.539,-2.704 3.636,-6.11 -2.454,-6.754"
                   style="fill:none;stroke:#000000;stroke-width:2.61674;stroke-linecap:round;stroke-linejoin:round;stroke-miterlimit:10;stroke-dasharray:none;stroke-opacity:1"
                   id="path3347" />
              </g>
              <g
                 id="g3349"
                 transform="matrix(1,0,0,-1,-65.05898,738.02307)">
                <path
                   d="m 326.621,-619.277 c 3.555,-12.352 1.207,-30.918 1.52,-42.192"
                   style="fill:none;stroke:#000000;stroke-width:2.61674;stroke-linecap:round;stroke-linejoin:round;stroke-miterlimit:10;stroke-dasharray:none;stroke-opacity:1"
                   id="path3351" />
              </g>
              <g
                 id="g3353"
                 transform="matrix(1,0,0,-1,-65.05898,738.02307)">
                <path
                   d="m 295.918,-640.41 c 20.832,4.355 11.289,-37.871 11.289,-37.871 -0.102,-3.399 -0.258,-6.828 -1.004,-10.16"
                   style="fill:none;stroke:#000000;stroke-width:2.61674;stroke-linecap:round;stroke-linejoin:round;stroke-miterlimit:10;stroke-dasharray:none;stroke-opacity:1"
                   id="path3355" />
              </g>
              <g
                 id="g3357"
                 transform="matrix(1,0,0,-1,-65.05898,738.02307)">
                <path
                   d="m 295.918,-640.41 c -12.359,0.039 -14.086,-10.16 -1.84,-5.746 4.324,0.39 8.641,0.937 12.988,1.004"
                   style="fill:none;stroke:#000000;stroke-width:2.61674;stroke-linecap:round;stroke-linejoin:round;stroke-miterlimit:10;stroke-dasharray:none;stroke-opacity:1"
                   id="path3359" />
              </g>
              <g
                 id="g3361"
                 transform="matrix(1,0,0,-1,-65.05898,738.02307)">
                <path
                   d="m 284.867,-646.012 c 1.699,-3.742 0.024,-7.957 0.68,-11.863"
                   style="fill:none;stroke:#000000;stroke-width:2.61674;stroke-linecap:round;stroke-linejoin:round;stroke-miterlimit:10;stroke-dasharray:none;stroke-opacity:1"
                   id="path3363" />
              </g>
              <g
                 id="g3365"
                 transform="matrix(1,0,0,-1,-65.05898,738.02307)">
                <path
                   d="m 283.105,-669.414 c 0.95,-6.242 0.098,-12.684 1.668,-18.836"
                   style="fill:none;stroke:#000000;stroke-width:2.61674;stroke-linecap:round;stroke-linejoin:round;stroke-miterlimit:10;stroke-dasharray:none;stroke-opacity:1"
                   id="path3367" />
              </g>
              <g
                 id="g3369"
                 transform="matrix(1,0,0,-1,-65.05898,738.02307)">
                <path
                   d="m 307.93,-689.809 c 8.183,10.399 16.625,21.871 22.953,32.946 l -0.133,0.316"
                   style="fill:none;stroke:#000000;stroke-width:2.61674;stroke-linecap:round;stroke-linejoin:round;stroke-miterlimit:10;stroke-dasharray:none;stroke-opacity:1"
                   id="path3371" />
              </g>
              <g
                 id="g3373"
                 transform="matrix(1,0,0,-1,-65.05898,738.02307)">
                <path
                   d="m 326.402,-655.762 c -6.078,-8.718 -16.754,-20.527 -19.976,-27.207"
                   style="fill:none;stroke:#000000;stroke-width:2.61674;stroke-linecap:round;stroke-linejoin:round;stroke-miterlimit:10;stroke-dasharray:none;stroke-opacity:1"
                   id="path3375" />
              </g>
              <g
                 id="g3377"
                 transform="matrix(1,0,0,-1,-65.05898,738.02307)">
                <path
                   d="m 322.199,-657.559 c -7.347,5.676 -3.219,-15.113 -0.105,-2.656 0.222,0.86 -0.703,1.477 -0.965,2.223"
                   style="fill:none;stroke:#000000;stroke-width:2.61674;stroke-linecap:round;stroke-linejoin:round;stroke-miterlimit:10;stroke-dasharray:none;stroke-opacity:1"
                   id="path3379" />
              </g>
              <g
                 id="g3381"
                 transform="matrix(1,0,0,-1,-65.05898,738.02307)">
                <path
                   d="m 321,-657.914 c -6.227,10.957 -11.98,-4.176 -4.863,-7.883"
                   style="fill:none;stroke:#000000;stroke-width:2.61674;stroke-linecap:round;stroke-linejoin:round;stroke-miterlimit:10;stroke-dasharray:none;stroke-opacity:1"
                   id="path3383" />
              </g>
              <g
                 id="g3385"
                 transform="matrix(1,0,0,-1,-65.05898,738.02307)">
                <path
                   d="m 319.191,-623.152 c 0.934,-5.387 0.918,-13.196 0.547,-18.618"
                   style="fill:none;stroke:#000000;stroke-width:2.61674;stroke-linecap:round;stroke-linejoin:round;stroke-miterlimit:10;stroke-dasharray:none;stroke-opacity:1"
                   id="path3387" />
              </g>
              <g
                 id="g3389"
                 transform="matrix(1,0,0,-1,-65.05898,738.02307)">
                <path
                   d="m 310.109,-634.926 c -1.644,-11.219 13.868,-9.597 17.649,-2.621"
                   style="fill:none;stroke:#000000;stroke-width:2.61674;stroke-linecap:round;stroke-linejoin:round;stroke-miterlimit:10;stroke-dasharray:none;stroke-opacity:1"
                   id="path3391" />
              </g>
              <g
                 id="g3393"
                 transform="matrix(1,0,0,-1,-65.05898,738.02307)">
                <path
                   d="m 327.746,-632.562 c -4.984,-0.754 -12.664,-4.813 -17.637,-2.364"
                   style="fill:none;stroke:#000000;stroke-width:2.61674;stroke-linecap:round;stroke-linejoin:round;stroke-miterlimit:10;stroke-dasharray:none;stroke-opacity:1"
                   id="path3395" />
              </g>
              <g
                 id="g3397"
                 transform="matrix(1,0,0,-1,-65.05898,738.02307)">
                <path
                   d="m 320.695,-643.566 c 0.129,-3.352 -0.507,-11.02 0.305,-14.348"
                   style="fill:none;stroke:#000000;stroke-width:2.61674;stroke-linecap:round;stroke-linejoin:round;stroke-miterlimit:10;stroke-dasharray:none;stroke-opacity:1"
                   id="path3399" />
              </g>
              <g
                 id="g3401"
                 transform="matrix(1,0,0,-1,-65.05898,738.02307)">
                <path
                   d="m 231.223,-628.617 c 19.644,-1.145 39.414,-1.563 58.648,-6.078 5.223,-0.922 10.465,-1.75 15.75,-2.203"
                   style="fill:none;stroke:#000000;stroke-width:2.61674;stroke-linecap:round;stroke-linejoin:round;stroke-miterlimit:10;stroke-dasharray:none;stroke-opacity:1"
                   id="path3403" />
              </g>
              <g
                 id="g3405"
                 transform="matrix(1,0,0,-1,-65.05898,738.02307)">
                <path
                   d="m 263.586,-632.707 c -10.871,-0.105 -21.606,-3.578 -32.504,-2.02"
                   style="fill:none;stroke:#000000;stroke-width:2.61674;stroke-linecap:round;stroke-linejoin:round;stroke-miterlimit:10;stroke-dasharray:none;stroke-opacity:1"
                   id="path3407" />
              </g>
              <g
                 id="g3409"
                 transform="matrix(1,0,0,-1,-65.05898,738.02307)">
                <path
                   d="m 194.543,-606.449 c 22.129,3.117 37.492,-12.582 33.547,-31.117 -3.852,-11.586 -17.043,-15.789 -27.582,-19.176 -5.047,-1.09 -15.809,2.027 -18.469,7.07"
                   style="fill:none;stroke:#000000;stroke-width:2.61674;stroke-linecap:round;stroke-linejoin:round;stroke-miterlimit:10;stroke-dasharray:none;stroke-opacity:1"
                   id="path3411" />
              </g>
              <g
                 id="g3413"
                 transform="matrix(1,0,0,-1,-65.05898,738.02307)">
                <path
                   d="m 194.543,-606.449 c -13.938,1.73 -23.055,-16.746 -21.543,-29.039"
                   style="fill:none;stroke:#000000;stroke-width:2.61674;stroke-linecap:round;stroke-linejoin:round;stroke-miterlimit:10;stroke-dasharray:none;stroke-opacity:1"
                   id="path3415" />
              </g>
              <g
                 id="g3417"
                 transform="matrix(1,0,0,-1,-65.05898,738.02307)">
                <path
                   d="m 193.254,-607.555 c 13.855,-2.105 27.031,-14.261 24.391,-29.222 -0.438,-5.016 -3.032,-12.93 -7.247,-16.141"
                   style="fill:none;stroke:#000000;stroke-width:2.61674;stroke-linecap:round;stroke-linejoin:round;stroke-miterlimit:10;stroke-dasharray:none;stroke-opacity:1"
                   id="path3419" />
              </g>
              <g
                 id="g3421"
                 transform="matrix(1,0,0,-1,-65.05898,738.02307)">
                <path
                   d="m 217.645,-636.777 c 6.183,-0.418 20.687,5.375 7.886,-5.469 -2.25,-0.75 -4.57,-1.266 -6.918,-1.586"
                   style="fill:none;stroke:#000000;stroke-width:2.61674;stroke-linecap:round;stroke-linejoin:round;stroke-miterlimit:10;stroke-dasharray:none;stroke-opacity:1"
                   id="path3423" />
              </g>
              <g
                 id="g3425"
                 transform="matrix(1,0,0,-1,-65.05898,738.02307)">
                <path
                   d="m 214.898,-646.906 c 22.071,-1.141 42.84,-17.266 65.028,-18.117 6.773,-0.082 25.996,-2.129 28.449,0.746"
                   style="fill:none;stroke:#000000;stroke-width:2.61674;stroke-linecap:round;stroke-linejoin:round;stroke-miterlimit:10;stroke-dasharray:none;stroke-opacity:1"
                   id="path3427" />
              </g>
              <g
                 id="g3429"
                 transform="matrix(1,0,0,-1,-65.05898,738.02307)">
                <path
                   d="m 307.746,-657.211 c -17.496,-7.043 -37.293,-1.516 -52.914,7.609 -10.066,5.52 -21.195,6.379 -32.406,6.629"
                   style="fill:none;stroke:#000000;stroke-width:2.61674;stroke-linecap:round;stroke-linejoin:round;stroke-miterlimit:10;stroke-dasharray:none;stroke-opacity:1"
                   id="path3431" />
              </g>
              <g
                 id="g3433"
                 transform="matrix(1,0,0,-1,-65.05898,738.02307)">
                <path
                   d="m 231.766,-657.391 c 6.664,0.875 13.031,-2.039 19.562,-2.703"
                   style="fill:none;stroke:#000000;stroke-width:2.61674;stroke-linecap:round;stroke-linejoin:round;stroke-miterlimit:10;stroke-dasharray:none;stroke-opacity:1"
                   id="path3435" />
              </g>
              <g
                 id="g3437"
                 transform="matrix(1,0,0,-1,-65.05898,738.02307)">
                <path
                   d="m 230.457,-649.719 c 0,0 0.941,-5.988 1.492,-6.398"
                   style="fill:none;stroke:#000000;stroke-width:2.61674;stroke-linecap:round;stroke-linejoin:round;stroke-miterlimit:10;stroke-dasharray:none;stroke-opacity:1"
                   id="path3439" />
              </g>
              <g
                 id="g3441"
                 transform="matrix(1,0,0,-1,-65.05898,738.02307)">
                <path
                   d="m 207.555,-656.07 c -0.188,-2.094 -0.27,-4.227 0.156,-6.301"
                   style="fill:none;stroke:#000000;stroke-width:2.61674;stroke-linecap:round;stroke-linejoin:round;stroke-miterlimit:10;stroke-dasharray:none;stroke-opacity:1"
                   id="path3443" />
              </g>
              <g
                 id="g3445"
                 transform="matrix(1,0,0,-1,-65.05898,738.02307)">
                <path
                   d="m 209.09,-662.629 c 5.644,-7.238 21.215,-3.559 22.676,5.238"
                   style="fill:none;stroke:#000000;stroke-width:2.61674;stroke-linecap:round;stroke-linejoin:round;stroke-miterlimit:10;stroke-dasharray:none;stroke-opacity:1"
                   id="path3447" />
              </g>
              <g
                 id="g3449"
                 transform="matrix(1,0,0,-1,-65.05898,738.02307)">
                <path
                   d="m 209.09,-662.629 c -6.117,-2.402 -17.219,-13.476 -10.988,-21.105"
                   style="fill:none;stroke:#000000;stroke-width:2.61674;stroke-linecap:round;stroke-linejoin:round;stroke-miterlimit:10;stroke-dasharray:none;stroke-opacity:1"
                   id="path3451" />
              </g>
              <g
                 id="g3453"
                 transform="matrix(1,0,0,-1,-65.05898,738.02307)">
                <path
                   d="m 198.102,-683.734 c 16.492,-1.93 32.937,-4.184 49.464,-5.762 15.907,-2.332 31.805,-6.922 47.938,-6.192 4.406,0.844 8.648,2.989 11.633,6.395"
                   style="fill:none;stroke:#000000;stroke-width:2.61674;stroke-linecap:round;stroke-linejoin:round;stroke-miterlimit:10;stroke-dasharray:none;stroke-opacity:1"
                   id="path3455" />
              </g>
              <g
                 id="g3457"
                 transform="matrix(1,0,0,-1,-65.05898,738.02307)">
                <path
                   d="m 196.078,-678.91 c 17.961,0.515 35.363,-5.27 53.293,-5.656 16.32,-2.586 32.582,-8.125 49.297,-5.286 l 2.27,0.118 5.265,1.293"
                   style="fill:none;stroke:#000000;stroke-width:2.61674;stroke-linecap:round;stroke-linejoin:round;stroke-miterlimit:10;stroke-dasharray:none;stroke-opacity:1"
                   id="path3459" />
              </g>
              <g
                 id="g3461"
                 transform="matrix(1,0,0,-1,-65.05898,738.02307)">
                <path
                   d="m 183.516,-616.586 c -16.543,-4.902 9.879,-21.062 3.132,-2.769 -1.945,1.468 -0.296,3.203 -3.132,2.769"
                   style="fill:none;stroke:#000000;stroke-width:2.61674;stroke-linecap:round;stroke-linejoin:round;stroke-miterlimit:10;stroke-dasharray:none;stroke-opacity:1"
                   id="path3463" />
              </g>
              <g
                 id="g3465"
                 transform="matrix(1,0,0,-1,-65.05898,738.02307)">
                <path
                   d="m 198.934,-639.457 c -14.067,-4.793 11.418,-18.824 7.597,-3.648 -0.582,3.492 -4.789,3.695 -7.597,3.648"
                   style="fill:none;stroke:#000000;stroke-width:2.61674;stroke-linecap:round;stroke-linejoin:round;stroke-miterlimit:10;stroke-dasharray:none;stroke-opacity:1"
                   id="path3467" />
              </g>
              <g
                 id="g3469"
                 transform="matrix(1,0,0,-1,-65.05898,738.02307)">
                <path
                   d="m 199.789,-634.621 c -5.969,-4.938 -12.523,-9.285 -17.75,-15.051"
                   style="fill:none;stroke:#000000;stroke-width:2.61674;stroke-linecap:round;stroke-linejoin:round;stroke-miterlimit:10;stroke-dasharray:none;stroke-opacity:1"
                   id="path3471" />
              </g>
              <g
                 id="g3473"
                 transform="matrix(1,0,0,-1,-65.05898,738.02307)">
                <path
                   d="m 192.129,-627.449 c -5.184,-3.309 -9.774,-7.633 -15.465,-10.102"
                   style="fill:none;stroke:#000000;stroke-width:2.61674;stroke-linecap:round;stroke-linejoin:round;stroke-miterlimit:10;stroke-dasharray:none;stroke-opacity:1"
                   id="path3475" />
              </g>
              <g
                 id="g3477"
                 transform="matrix(1,0,0,-1,-65.05898,738.02307)">
                <path
                   d="m 148.234,-632.848 c 13.395,5.625 29.121,-2.379 33.832,-15.812 6.86,-12.512 1.43,-29.414 -12.05,-34.66 -12.274,-5.168 -25.039,4.449 -32.879,13.179 -3.063,4.336 -4.821,10.582 -3.254,15.594"
                   style="fill:none;stroke:#000000;stroke-width:2.61674;stroke-linecap:round;stroke-linejoin:round;stroke-miterlimit:10;stroke-dasharray:none;stroke-opacity:1"
                   id="path3479" />
              </g>
              <g
                 id="g3481"
                 transform="matrix(1,0,0,-1,-65.05898,738.02307)">
                <path
                   d="m 148.234,-632.848 c -3.984,0.844 -5.058,-7.75 -8.101,-9.64"
                   style="fill:none;stroke:#000000;stroke-width:2.61674;stroke-linecap:round;stroke-linejoin:round;stroke-miterlimit:10;stroke-dasharray:none;stroke-opacity:1"
                   id="path3483" />
              </g>
              <g
                 id="g3485"
                 transform="matrix(1,0,0,-1,-65.05898,738.02307)">
                <path
                   d="m 124.609,-645.91 c -7.668,-10.512 15.004,-9.391 2.504,-1.231 0.645,-0.586 -3.91,2.008 -2.527,0.77"
                   style="fill:none;stroke:#000000;stroke-width:2.61674;stroke-linecap:round;stroke-linejoin:round;stroke-miterlimit:10;stroke-dasharray:none;stroke-opacity:1"
                   id="path3487" />
              </g>
              <g
                 id="g3489"
                 transform="matrix(1,0,0,-1,-65.05898,738.02307)">
                <path
                   d="m 124.609,-645.91 c 3.832,-0.84 12.043,1.648 15.524,3.422"
                   style="fill:none;stroke:#000000;stroke-width:2.61674;stroke-linecap:round;stroke-linejoin:round;stroke-miterlimit:10;stroke-dasharray:none;stroke-opacity:1"
                   id="path3491" />
              </g>
              <g
                 id="g3493"
                 transform="matrix(1,0,0,-1,-65.05898,738.02307)">
                <path
                   d="m 131.422,-653.027 c 3.297,-0.75 8.133,2.644 11.098,3.687"
                   style="fill:none;stroke:#000000;stroke-width:2.61674;stroke-linecap:round;stroke-linejoin:round;stroke-miterlimit:10;stroke-dasharray:none;stroke-opacity:1"
                   id="path3495" />
              </g>
              <g
                 id="g3497"
                 transform="matrix(1,0,0,-1,-65.05898,738.02307)">
                <path
                   d="m 140.133,-642.488 c 1.715,-1.18 1.762,-5.25 2.387,-6.852"
                   style="fill:none;stroke:#000000;stroke-width:2.61674;stroke-linecap:round;stroke-linejoin:round;stroke-miterlimit:10;stroke-dasharray:none;stroke-opacity:1"
                   id="path3499" />
              </g>
              <g
                 id="g3501"
                 transform="matrix(1,0,0,-1,-65.05898,738.02307)">
                <path
                   d="m 154.133,-655.844 c -7.047,-8.812 13.469,-9.617 3.887,-0.922 l -1.86,0.828 -2.027,0.094"
                   style="fill:none;stroke:#000000;stroke-width:2.61674;stroke-linecap:round;stroke-linejoin:round;stroke-miterlimit:10;stroke-dasharray:none;stroke-opacity:1"
                   id="path3503" />
              </g>
              <g
                 id="g3505"
                 transform="matrix(1,0,0,-1,-65.05898,738.02307)">
                <path
                   d="m 176.285,-680.516 c 5.102,-2.953 8.031,-7.238 12.668,-10.796"
                   style="fill:none;stroke:#000000;stroke-width:2.61674;stroke-linecap:round;stroke-linejoin:round;stroke-miterlimit:10;stroke-dasharray:none;stroke-opacity:1"
                   id="path3507" />
              </g>
              <g
                 id="g3509"
                 transform="matrix(1,0,0,-1,-65.05898,738.02307)">
                <path
                   d="m 188.953,-691.312 c 0.41,0.207 2.18,1.046 2.652,1.261"
                   style="fill:none;stroke:#000000;stroke-width:2.61674;stroke-linecap:round;stroke-linejoin:round;stroke-miterlimit:10;stroke-dasharray:none;stroke-opacity:1"
                   id="path3511" />
              </g>
              <g
                 id="g3513"
                 transform="matrix(1,0,0,-1,-65.05898,738.02307)">
                <path
                   d="m 191.895,-689.289 c -3.981,4.543 -8.711,8.355 -12.754,12.844"
                   style="fill:none;stroke:#000000;stroke-width:2.61674;stroke-linecap:round;stroke-linejoin:round;stroke-miterlimit:10;stroke-dasharray:none;stroke-opacity:1"
                   id="path3515" />
              </g>
              <g
                 id="g3517"
                 transform="matrix(1,0,0,-1,-65.05898,738.02307)">
                <path
                   d="m 224.277,-616.059 c 8.34,11.129 9.645,26.7 5.219,39.594 -6.766,15.086 -26.426,25.059 -41.922,16.797 -18.375,-8.02 -19.039,-36.344 -5.578,-50.109"
                   style="fill:none;stroke:#000000;stroke-width:2.61674;stroke-linecap:round;stroke-linejoin:round;stroke-miterlimit:10;stroke-dasharray:none;stroke-opacity:1"
                   id="path3519" />
              </g>
              <g
                 id="g3521"
                 transform="matrix(1,0,0,-1,-65.05898,738.02307)">
                <path
                   d="m 190.164,-606.246 c -15.703,9.207 -10.961,39.637 7.711,41.074 15.609,1.41 26.531,-16.945 21.852,-30.988 -0.7,-2.617 -5.477,-13.848 -8.161,-12.156"
                   style="fill:none;stroke:#000000;stroke-width:2.61674;stroke-linecap:round;stroke-linejoin:round;stroke-miterlimit:10;stroke-dasharray:none;stroke-opacity:1"
                   id="path3523" />
              </g>
              <g
                 id="g3525"
                 transform="matrix(1,0,0,-1,-65.05898,738.02307)">
                <path
                   d="m 186.965,-577.59 c 3.773,-2.941 8.312,-4.699 12.066,-7.672"
                   style="fill:none;stroke:#000000;stroke-width:2.61674;stroke-linecap:round;stroke-linejoin:round;stroke-miterlimit:10;stroke-dasharray:none;stroke-opacity:1"
                   id="path3527" />
              </g>
              <g
                 id="g3529"
                 transform="matrix(1,0,0,-1,-65.05898,738.02307)">
                <path
                   d="m 187.668,-579.438 c 3.488,-2.433 6.605,-5.347 9.93,-7.996"
                   style="fill:none;stroke:#000000;stroke-width:2.61674;stroke-linecap:round;stroke-linejoin:round;stroke-miterlimit:10;stroke-dasharray:none;stroke-opacity:1"
                   id="path3531" />
              </g>
              <g
                 id="g3533"
                 transform="matrix(1,0,0,-1,-65.05898,738.02307)">
                <path
                   d="m 199.055,-586.82 c -6.121,-8.27 13.047,-4.153 3.504,0.625 -1.821,0.273 -3.61,-0.325 -5.102,-1.301"
                   style="fill:none;stroke:#000000;stroke-width:2.61674;stroke-linecap:round;stroke-linejoin:round;stroke-miterlimit:10;stroke-dasharray:none;stroke-opacity:1"
                   id="path3535" />
              </g>
              <g
                 id="g3537"
                 transform="matrix(1,0,0,-1,-65.05898,738.02307)">
                <path
                   d="m 179.754,-562.586 c -7.547,13.223 -5.754,29.645 -3.363,44.047 3.078,8.926 9.718,28.227 19.757,28.043"
                   style="fill:none;stroke:#000000;stroke-width:2.61674;stroke-linecap:round;stroke-linejoin:round;stroke-miterlimit:10;stroke-dasharray:none;stroke-opacity:1"
                   id="path3539" />
              </g>
              <g
                 id="g3541"
                 transform="matrix(1,0,0,-1,-65.05898,738.02307)">
                <path
                   d="m 190.621,-492.422 c -22.414,1.867 -21.461,-23.125 -21.879,-34.875 -1.211,-12.91 3.914,-28.777 8.996,-38.246"
                   style="fill:none;stroke:#000000;stroke-width:2.61674;stroke-linecap:round;stroke-linejoin:round;stroke-miterlimit:10;stroke-dasharray:none;stroke-opacity:1"
                   id="path3543" />
              </g>
              <g
                 id="g3545"
                 transform="matrix(1,0,0,-1,-65.05898,738.02307)">
                <path
                   d="m 177.418,-494.773 c -13.949,-5.301 -13.856,-23.547 -16.516,-36.028 0.012,-12.719 3.61,-26.558 12.227,-36.137 l 1.445,-0.804 1.414,-0.149"
                   style="fill:none;stroke:#000000;stroke-width:2.61674;stroke-linecap:round;stroke-linejoin:round;stroke-miterlimit:10;stroke-dasharray:none;stroke-opacity:1"
                   id="path3547" />
              </g>
              <g
                 id="g3549"
                 transform="matrix(1,0,0,-1,-65.05898,738.02307)">
                <path
                   d="m 165.637,-506.934 c -12.848,-0.746 -10.086,-18.925 -11.473,-28.07 0.762,-4.726 1.66,-12.824 7.965,-12.859"
                   style="fill:none;stroke:#000000;stroke-width:2.61674;stroke-linecap:round;stroke-linejoin:round;stroke-miterlimit:10;stroke-dasharray:none;stroke-opacity:1"
                   id="path3551" />
              </g>
              <g
                 id="g3553"
                 transform="matrix(1,0,0,-1,-65.05898,738.02307)">
                <path
                   d="m 155.969,-513.297 c -4.309,-4.832 -2.473,-12.207 -2.582,-18.066"
                   style="fill:none;stroke:#000000;stroke-width:2.61674;stroke-linecap:round;stroke-linejoin:round;stroke-miterlimit:10;stroke-dasharray:none;stroke-opacity:1"
                   id="path3555" />
              </g>
              <g
                 id="g3557"
                 transform="matrix(1,0,0,-1,-65.05898,738.02307)">
                <path
                   d="m 183.543,-560.203 c -4.836,26.973 1.859,55.387 18.207,77.695 1.918,2.196 4.121,4.196 6.707,5.57"
                   style="fill:none;stroke:#000000;stroke-width:2.61674;stroke-linecap:round;stroke-linejoin:round;stroke-miterlimit:10;stroke-dasharray:none;stroke-opacity:1"
                   id="path3559" />
              </g>
              <g
                 id="g3561"
                 transform="matrix(1,0,0,-1,-65.05898,738.02307)">
                <path
                   d="m 208.457,-476.938 c 6.293,-0.722 17.25,1.29 23.488,-0.261"
                   style="fill:none;stroke:#000000;stroke-width:2.61674;stroke-linecap:round;stroke-linejoin:round;stroke-miterlimit:10;stroke-dasharray:none;stroke-opacity:1"
                   id="path3563" />
              </g>
              <g
                 id="g3565"
                 transform="matrix(1,0,0,-1,-65.05898,738.02307)">
                <path
                   d="m 296.656,-450.852 c -14.875,0.254 -34.047,0.567 -48.718,-1.964 l -0.626,-0.368 -0.242,-0.472"
                   style="fill:none;stroke:#000000;stroke-width:2.61674;stroke-linecap:round;stroke-linejoin:round;stroke-miterlimit:10;stroke-dasharray:none;stroke-opacity:1"
                   id="path3567" />
              </g>
              <g
                 id="g3569"
                 transform="matrix(1,0,0,-1,-65.05898,738.02307)">
                <path
                   d="m 247.191,-453.422 c -20.281,-20.336 -23.332,-52.242 -26.187,-79.25 -0.477,-12.426 -0.051,-23.781 3.254,-35.723"
                   style="fill:none;stroke:#000000;stroke-width:2.61674;stroke-linecap:round;stroke-linejoin:round;stroke-miterlimit:10;stroke-dasharray:none;stroke-opacity:1"
                   id="path3571" />
              </g>
            </g>
          </g>
        </g>
      </g>
    </g>
  </g>
</svg>
