<?xml version="1.0" encoding="UTF-8" standalone="no"?>
<!-- Created by Ashley Blewer - This work is licensed under a Creative Commons Attribution 4.0 International License -->

<svg
   width="544"
   height="480"
   viewBox="0 0 143.93334 127"
   version="1.1"
   id="svg2490"
   inkscape:version="1.2.2 (1:1.2.2+202212051552+b0a8486541)"
   sodipodi:docname="1954-vistavision-3.svg"
   xmlns:inkscape="http://www.inkscape.org/namespaces/inkscape"
   xmlns:sodipodi="http://sodipodi.sourceforge.net/DTD/sodipodi-0.dtd"
   xmlns="http://www.w3.org/2000/svg"
   xmlns:svg="http://www.w3.org/2000/svg">
  <sodipodi:namedview
     id="namedview2492"
     pagecolor="#ffffff"
     bordercolor="#666666"
     borderopacity="1.0"
     inkscape:pageshadow="2"
     inkscape:pageopacity="0.0"
     inkscape:pagecheckerboard="0"
     inkscape:document-units="mm"
     showgrid="false"
     units="px"
     inkscape:zoom="0.90583674"
     inkscape:cx="337.25724"
     inkscape:cy="255.56482"
     inkscape:window-width="1846"
     inkscape:window-height="1136"
     inkscape:window-x="0"
     inkscape:window-y="0"
     inkscape:window-maximized="1"
     inkscape:current-layer="g6395"
     inkscape:showpageshadow="2"
     inkscape:deskcolor="#d1d1d1" />
  <defs
     id="defs2487" />
  <g
     inkscape:label="Layer 1"
     inkscape:groupmode="layer"
     id="layer1">
    <g
       id="g4731"
       transform="matrix(0.32961229,0,0,0.32903008,-241.78905,1.73126)"
       style="stroke-width:2.68698">
      <g
         id="g104528"
         transform="matrix(1,0,0,-1,0,792)"
         style="stroke-width:2.68698">
        <g
           id="g104530"
           style="stroke-width:2.68698" />
      </g>
      <g
         id="g104996"
         transform="matrix(1,0,0,-1,0,792)"
         style="stroke-width:2.68698">
        <g
           id="g104998"
           style="stroke-width:2.68698" />
      </g>
      <g
         id="g28852"
         transform="matrix(1.070281,0,0,1.0721748,779.91249,-443.13657)">
        <g
           id="g6718"
           transform="matrix(1.117886,0,0,1.117886,-549.13111,-491.62865)">
          <g
             id="g6395"
             transform="matrix(0.53415107,0,0,0.53415109,441.93669,415.26868)">
            <g
               id="g10695"
               transform="matrix(2.7307578,0,0,2.7307578,-1139.0999,-1519.9204)">
              <g
                 id="g2867"
                 transform="matrix(1,0,0,-1,-79.523079,770.00448)">
                <path
                   d="m 522.582,-115.801 c 12.293,0.11 28.398,-2.16 40.5,-2.656"
                   style="fill:none;stroke:#000000;stroke-width:2.61674;stroke-linecap:round;stroke-linejoin:round;stroke-miterlimit:10;stroke-dasharray:none;stroke-opacity:1"
                   id="path2869" />
              </g>
              <g
                 id="g2871"
                 transform="matrix(1,0,0,-1,-79.523079,770.00448)">
                <path
                   d="m 522.582,-115.801 c 1.211,-12.863 4.273,-27.347 4.82,-40.32 2.879,-12.09 1.094,-25.941 7.868,-36.645 3.523,-4.648 12.23,-6.414 15.808,-7.422"
                   style="fill:none;stroke:#000000;stroke-width:2.61674;stroke-linecap:round;stroke-linejoin:round;stroke-miterlimit:10;stroke-dasharray:none;stroke-opacity:1"
                   id="path2873" />
              </g>
              <g
                 id="g2875"
                 transform="matrix(1,0,0,-1,-79.523079,770.00448)">
                <path
                   d="m 561.84,-119.375 c 6.922,13.363 18.875,24.348 33.152,26.793 14.66,0.586 31.656,-3.461 39.328,-17.203 -0.82,-0.637 5.164,-3.078 3.301,-3.442"
                   style="fill:none;stroke:#000000;stroke-width:2.61674;stroke-linecap:round;stroke-linejoin:round;stroke-miterlimit:10;stroke-dasharray:none;stroke-opacity:1"
                   id="path2877" />
              </g>
              <g
                 id="g2879"
                 transform="matrix(1,0,0,-1,-79.523079,770.00448)">
                <path
                   d="m 639.008,-114.039 c 19.941,0.453 39.801,-4.102 59.82,-2.617 3.867,-0.074 12.469,-0.098 13.402,-0.36"
                   style="fill:none;stroke:#000000;stroke-width:2.61674;stroke-linecap:round;stroke-linejoin:round;stroke-miterlimit:10;stroke-dasharray:none;stroke-opacity:1"
                   id="path2881" />
              </g>
              <g
                 id="g2883"
                 transform="matrix(1,0,0,-1,-79.523079,770.00448)">
                <path
                   d="m 712.23,-117.016 c -0.449,-1.843 1.825,-7.984 0.958,-8.832"
                   style="fill:none;stroke:#000000;stroke-width:2.61674;stroke-linecap:round;stroke-linejoin:round;stroke-miterlimit:10;stroke-dasharray:none;stroke-opacity:1"
                   id="path2885" />
              </g>
              <g
                 id="g2887"
                 transform="matrix(1,0,0,-1,-79.523079,770.00448)">
                <path
                   d="m 710.375,-125.395 c 13.184,-5.3 23.918,-17.484 28.055,-31.105 8.019,-29.223 2.508,-63.133 -16.875,-86.879 -9.645,-9.676 -22.231,-17.59 -36.399,-14.316 -15.207,3.922 -25.117,18.086 -30.601,31.894 -6.328,25.156 1.48,51.012 11.277,74.133 6.598,14.703 23.363,20.449 37.629,24.98 3.969,1.376 8.691,1.262 12.164,-1.328"
                   style="fill:none;stroke:#000000;stroke-width:2.61674;stroke-linecap:round;stroke-linejoin:round;stroke-miterlimit:10;stroke-dasharray:none;stroke-opacity:1"
                   id="path2889" />
              </g>
              <g
                 id="g2891"
                 transform="matrix(1,0,0,-1,-79.523079,770.00448)">
                <path
                   d="m 703.461,-126.688 c -6.664,0.008 -21.555,-0.214 -27.832,0.348"
                   style="fill:none;stroke:#000000;stroke-width:2.61674;stroke-linecap:round;stroke-linejoin:round;stroke-miterlimit:10;stroke-dasharray:none;stroke-opacity:1"
                   id="path2893" />
              </g>
              <g
                 id="g2895"
                 transform="matrix(1,0,0,-1,-79.523079,770.00448)">
                <path
                   d="m 673.809,-126.848 c -22.637,-12.57 -39.004,-36.863 -39.079,-63.191 -0.582,-15.828 3.497,-34.438 11.293,-47.988"
                   style="fill:none;stroke:#000000;stroke-width:2.61674;stroke-linecap:round;stroke-linejoin:round;stroke-miterlimit:10;stroke-dasharray:none;stroke-opacity:1"
                   id="path2897" />
              </g>
              <g
                 id="g2899"
                 transform="matrix(1,0,0,-1,-79.523079,770.00448)">
                <path
                   d="m 646.023,-238.027 c 10.247,-7.989 25.313,-12.028 35.477,-19.09"
                   style="fill:none;stroke:#000000;stroke-width:2.61674;stroke-linecap:round;stroke-linejoin:round;stroke-miterlimit:10;stroke-dasharray:none;stroke-opacity:1"
                   id="path2901" />
              </g>
              <g
                 id="g2903"
                 transform="matrix(1,0,0,-1,-79.523079,770.00448)">
                <path
                   d="m 709.371,-142.156 c 13.684,-4.891 17.074,-12.348 22.016,-23.992 7.777,-22.051 0.047,-46.883 -12.649,-65.512 -7.625,-13.86 -26.504,-17.035 -38.062,-6.352 -18.922,13.973 -16.965,40.551 -13.059,61.067 3.711,14.953 14.063,28.179 27.496,35.574 4.645,1.105 9.782,0.918 14.258,-0.785"
                   style="fill:none;stroke:#000000;stroke-width:2.61674;stroke-linecap:round;stroke-linejoin:round;stroke-miterlimit:10;stroke-dasharray:none;stroke-opacity:1"
                   id="path2905" />
              </g>
              <g
                 id="g2907"
                 transform="matrix(1,0,0,-1,-79.523079,770.00448)">
                <path
                   d="m 704.469,-143.305 c 15.246,-7.722 20.992,-26.668 19.34,-42.859 0.035,-23.246 -12.418,-49.59 -36.571,-55.496"
                   style="fill:none;stroke:#000000;stroke-width:2.61674;stroke-linecap:round;stroke-linejoin:round;stroke-miterlimit:10;stroke-dasharray:none;stroke-opacity:1"
                   id="path2909" />
              </g>
              <g
                 id="g2911"
                 transform="matrix(1,0,0,-1,-79.523079,770.00448)">
                <path
                   d="m 692.086,-145.043 c 16.172,-6.137 12.5,-27.051 12.559,-40.984 -1.063,-17.676 -5.993,-38.911 -23.184,-47.559 -1.469,-2.941 -3.273,0.328 -4.777,-0.617"
                   style="fill:none;stroke:#000000;stroke-width:2.61674;stroke-linecap:round;stroke-linejoin:round;stroke-miterlimit:10;stroke-dasharray:none;stroke-opacity:1"
                   id="path2913" />
              </g>
              <g
                 id="g2915"
                 transform="matrix(1,0,0,-1,-79.523079,770.00448)">
                <path
                   d="m 563.082,-118.457 c 21.043,2.332 45.547,-6.742 66.52,-4.266 l -0.309,-0.281"
                   style="fill:none;stroke:#000000;stroke-width:2.61674;stroke-linecap:round;stroke-linejoin:round;stroke-miterlimit:10;stroke-dasharray:none;stroke-opacity:1"
                   id="path2917" />
              </g>
              <g
                 id="g2919"
                 transform="matrix(1,0,0,-1,-79.523079,770.00448)">
                <path
                   d="m 629.602,-122.723 c 12.71,3.481 70.566,5.203 82.628,5.707"
                   style="fill:none;stroke:#000000;stroke-width:2.61674;stroke-linecap:round;stroke-linejoin:round;stroke-miterlimit:10;stroke-dasharray:none;stroke-opacity:1"
                   id="path2921" />
              </g>
              <g
                 id="g2923"
                 transform="matrix(1,0,0,-1,-79.523079,770.00448)">
                <path
                   d="m 629.602,-122.723 c -0.309,-0.281 3.183,-68.339 3.183,-68.339 l 0.582,-36.102"
                   style="fill:none;stroke:#000000;stroke-width:2.61674;stroke-linecap:round;stroke-linejoin:round;stroke-miterlimit:10;stroke-dasharray:none;stroke-opacity:1"
                   id="path2925" />
              </g>
              <g
                 id="g2927"
                 transform="matrix(1,0,0,-1,-79.523079,770.00448)">
                <path
                   d="m 563.082,-118.457 c 0.223,-5.43 0.816,-21.656 1.5,-26.574"
                   style="fill:none;stroke:#000000;stroke-width:2.61674;stroke-linecap:round;stroke-linejoin:round;stroke-miterlimit:10;stroke-dasharray:none;stroke-opacity:1"
                   id="path2929" />
              </g>
              <g
                 id="g2931"
                 transform="matrix(1,0,0,-1,-79.523079,770.00448)">
                <path
                   d="m 561.84,-119.375 c -14.024,-20.789 -18.328,-49.063 -7.09,-72.023 5.555,-11.524 13.551,-21.196 23.719,-28.829"
                   style="fill:none;stroke:#000000;stroke-width:2.61674;stroke-linecap:round;stroke-linejoin:round;stroke-miterlimit:10;stroke-dasharray:none;stroke-opacity:1"
                   id="path2933" />
              </g>
              <g
                 id="g2935"
                 transform="matrix(1,0,0,-1,-79.523079,770.00448)">
                <path
                   d="m 587.785,-222.012 c -26.238,1.168 -42.859,27.184 -46.707,50.844 -1.699,17.836 0.895,38.457 16.723,49.531 1.703,1.145 3.41,2.309 5.281,3.18"
                   style="fill:none;stroke:#000000;stroke-width:2.61674;stroke-linecap:round;stroke-linejoin:round;stroke-miterlimit:10;stroke-dasharray:none;stroke-opacity:1"
                   id="path2937" />
              </g>
              <g
                 id="g2939"
                 transform="matrix(1,0,0,-1,-79.523079,770.00448)">
                <path
                   d="m 542.711,-143.461 c -17.301,2.027 -14.395,-24.012 -1.633,-27.707"
                   style="fill:none;stroke:#000000;stroke-width:2.61674;stroke-linecap:round;stroke-linejoin:round;stroke-miterlimit:10;stroke-dasharray:none;stroke-opacity:1"
                   id="path2941" />
              </g>
              <g
                 id="g2943"
                 transform="matrix(1,0,0,-1,-79.523079,770.00448)">
                <path
                   d="m 587.785,-222.012 c 4.949,-1.394 14.59,1.039 18.121,1.489"
                   style="fill:none;stroke:#000000;stroke-width:2.61674;stroke-linecap:round;stroke-linejoin:round;stroke-miterlimit:10;stroke-dasharray:none;stroke-opacity:1"
                   id="path2945" />
              </g>
              <g
                 id="g2947"
                 transform="matrix(1,0,0,-1,-79.523079,770.00448)">
                <path
                   d="m 605.906,-220.523 c 9.621,-1.68 27.418,-6.821 35.16,-9.059"
                   style="fill:none;stroke:#000000;stroke-width:2.61674;stroke-linecap:round;stroke-linejoin:round;stroke-miterlimit:10;stroke-dasharray:none;stroke-opacity:1"
                   id="path2949" />
              </g>
              <g
                 id="g2951"
                 transform="matrix(1,0,0,-1,-79.523079,770.00448)">
                <path
                   d="m 553.453,-159.867 c -7.859,-9.203 8.594,-22.301 8.106,-6.113 -0.434,3.796 -3.141,8.054 -7.524,6.48"
                   style="fill:none;stroke:#000000;stroke-width:2.61674;stroke-linecap:round;stroke-linejoin:round;stroke-miterlimit:10;stroke-dasharray:none;stroke-opacity:1"
                   id="path2953" />
              </g>
              <g
                 id="g2955"
                 transform="matrix(1,0,0,-1,-79.523079,770.00448)">
                <path
                   d="m 556.242,-159.91 c 0.906,0.012 4.153,-0.035 4.867,-0.07"
                   style="fill:none;stroke:#000000;stroke-width:2.61674;stroke-linecap:round;stroke-linejoin:round;stroke-miterlimit:10;stroke-dasharray:none;stroke-opacity:1"
                   id="path2957" />
              </g>
              <g
                 id="g2959"
                 transform="matrix(1,0,0,-1,-79.523079,770.00448)">
                <path
                   d="m 558.945,-174.406 c 1.157,-0.102 2.793,-0.754 3.797,0.254"
                   style="fill:none;stroke:#000000;stroke-width:2.61674;stroke-linecap:round;stroke-linejoin:round;stroke-miterlimit:10;stroke-dasharray:none;stroke-opacity:1"
                   id="path2961" />
              </g>
              <g
                 id="g2963"
                 transform="matrix(1,0,0,-1,-79.523079,770.00448)">
                <path
                   d="m 558.176,-158.914 c -0.586,13.902 17.136,24.812 23.117,8.355 5.023,-12.062 11.5,-29.503 -0.422,-39.671 -9.172,-3.536 -19.25,5.953 -18.953,14.957"
                   style="fill:none;stroke:#000000;stroke-width:2.61674;stroke-linecap:round;stroke-linejoin:round;stroke-miterlimit:10;stroke-dasharray:none;stroke-opacity:1"
                   id="path2965" />
              </g>
              <g
                 id="g2967"
                 transform="matrix(1,0,0,-1,-79.523079,770.00448)">
                <path
                   d="m 564.582,-145.031 c 15.195,24.418 24.516,0.617 25.832,-11.442 4.723,-14.172 6.836,-38.121 -12.769,-41.164 -8.575,-0.238 -9.457,4.938 -14.215,15.801"
                   style="fill:none;stroke:#000000;stroke-width:2.61674;stroke-linecap:round;stroke-linejoin:round;stroke-miterlimit:10;stroke-dasharray:none;stroke-opacity:1"
                   id="path2969" />
              </g>
              <g
                 id="g2971"
                 transform="matrix(1,0,0,-1,-79.523079,770.00448)">
                <path
                   d="m 565.449,-137.492 c 10.578,13.988 30.125,8.16 33.739,-8.828 4.644,-16.383 7.765,-38.914 -7.704,-50.711 -4.496,-5.395 -12.125,-3.645 -17.484,-0.797"
                   style="fill:none;stroke:#000000;stroke-width:2.61674;stroke-linecap:round;stroke-linejoin:round;stroke-miterlimit:10;stroke-dasharray:none;stroke-opacity:1"
                   id="path2973" />
              </g>
              <g
                 id="g2975"
                 transform="matrix(1,0,0,-1,-79.523079,770.00448)">
                <path
                   d="m 568.188,-192.699 c 8.769,-13.117 33.968,-19.813 38.156,-2.133 6.39,19.387 5.582,41.949 -4.188,60.078 -5.793,12.723 -22.359,8.945 -30.316,2.086"
                   style="fill:none;stroke:#000000;stroke-width:2.61674;stroke-linecap:round;stroke-linejoin:round;stroke-miterlimit:10;stroke-dasharray:none;stroke-opacity:1"
                   id="path2977" />
              </g>
              <g
                 id="g2979"
                 transform="matrix(1,0,0,-1,-79.523079,770.00448)">
                <path
                   d="m 592.316,-215.242 c 4.586,0.07 11.465,1.687 14.426,2.09"
                   style="fill:none;stroke:#000000;stroke-width:2.61674;stroke-linecap:round;stroke-linejoin:round;stroke-miterlimit:10;stroke-dasharray:none;stroke-opacity:1"
                   id="path2981" />
              </g>
              <g
                 id="g2983"
                 transform="matrix(1,0,0,-1,-79.523079,770.00448)">
                <path
                   d="m 597.578,-116.207 c 9.289,1.574 21.801,0.816 29.461,0.941"
                   style="fill:none;stroke:#000000;stroke-width:2.61674;stroke-linecap:round;stroke-linejoin:round;stroke-miterlimit:10;stroke-dasharray:none;stroke-opacity:1"
                   id="path2985" />
              </g>
              <g
                 id="g2987"
                 transform="matrix(1,0,0,-1,-79.523079,770.00448)">
                <path
                   d="m 688.273,-161.938 c 10.485,-15.023 8.196,-36.074 -1.546,-50.796 -1.399,-1.239 -2.957,-3.805 -1.68,-0.797"
                   style="fill:none;stroke:#000000;stroke-width:1.26872;stroke-linecap:round;stroke-linejoin:round;stroke-miterlimit:10;stroke-dasharray:none;stroke-opacity:1"
                   id="path2989" />
              </g>
              <g
                 id="g2991"
                 transform="matrix(1,0,0,-1,-79.523079,770.00448)">
                <path
                   d="m 685.262,-169.051 c 7.562,-13.207 0.722,-29.363 -6.84,-40.707"
                   style="fill:none;stroke:#000000;stroke-width:1.26872;stroke-linecap:round;stroke-linejoin:round;stroke-miterlimit:10;stroke-dasharray:none;stroke-opacity:1"
                   id="path2993" />
              </g>
              <g
                 id="g2995"
                 transform="matrix(1,0,0,-1,-79.523079,770.00448)">
                <path
                   d="m 564.34,-151.504 c 4.222,6.609 16.871,4.066 17,-3.199"
                   style="fill:none;stroke:#000000;stroke-width:1.26872;stroke-linecap:round;stroke-linejoin:round;stroke-miterlimit:10;stroke-dasharray:none;stroke-opacity:1"
                   id="path2997" />
              </g>
              <g
                 id="g2999"
                 transform="matrix(1,0,0,-1,-79.523079,770.00448)">
                <path
                   d="m 566.41,-156.719 c 5.184,-0.496 10.391,-0.855 15.57,-1.496"
                   style="fill:none;stroke:#000000;stroke-width:1.26872;stroke-linecap:round;stroke-linejoin:round;stroke-miterlimit:10;stroke-dasharray:none;stroke-opacity:1"
                   id="path3001" />
              </g>
              <g
                 id="g3003"
                 transform="matrix(1,0,0,-1,-79.523079,770.00448)">
                <path
                   d="m 571.289,-163.449 c 0.75,-0.125 3.934,-0.582 4.773,-0.692"
                   style="fill:none;stroke:#000000;stroke-width:1.26872;stroke-linecap:round;stroke-linejoin:round;stroke-miterlimit:10;stroke-dasharray:none;stroke-opacity:1"
                   id="path3005" />
              </g>
              <g
                 id="g3007"
                 transform="matrix(1,0,0,-1,-79.523079,770.00448)">
                <path
                   d="m 569.5,-167.152 c 2,-0.407 4.168,0.129 6.086,-0.743"
                   style="fill:none;stroke:#000000;stroke-width:1.26872;stroke-linecap:round;stroke-linejoin:round;stroke-miterlimit:10;stroke-dasharray:none;stroke-opacity:1"
                   id="path3009" />
              </g>
              <g
                 id="g3011"
                 transform="matrix(1,0,0,-1,-79.523079,770.00448)">
                <path
                   d="m 570.043,-174.113 c 2.785,-0.364 5.68,-0.356 8.332,-1.391"
                   style="fill:none;stroke:#000000;stroke-width:1.26872;stroke-linecap:round;stroke-linejoin:round;stroke-miterlimit:10;stroke-dasharray:none;stroke-opacity:1"
                   id="path3013" />
              </g>
              <g
                 id="g3015"
                 transform="matrix(1,0,0,-1,-79.523079,770.00448)">
                <path
                   d="m 567.16,-180.469 c 1.766,-8.226 17.32,-10.843 17.567,-0.719"
                   style="fill:none;stroke:#000000;stroke-width:1.26872;stroke-linecap:round;stroke-linejoin:round;stroke-miterlimit:10;stroke-dasharray:none;stroke-opacity:1"
                   id="path3017" />
              </g>
              <g
                 id="g3019"
                 transform="matrix(1,0,0,-1,-79.523079,770.00448)">
                <path
                   d="m 583.863,-164.496 c 0.219,-1.043 0.907,-5.063 1.032,-6.031"
                   style="fill:none;stroke:#000000;stroke-width:1.26872;stroke-linecap:round;stroke-linejoin:round;stroke-miterlimit:10;stroke-dasharray:none;stroke-opacity:1"
                   id="path3021" />
              </g>
            </g>
          </g>
        </g>
      </g>
    </g>
  </g>
</svg>
