<?xml version="1.0" encoding="UTF-8" standalone="no"?>
<!-- Created by Ashley Blewer - This work is licensed under a Creative Commons Attribution 4.0 International License -->

<svg
   width="544"
   height="480"
   viewBox="0 0 143.93334 127"
   version="1.1"
   id="svg2490"
   inkscape:version="1.2.2 (1:1.2.2+202212051552+b0a8486541)"
   sodipodi:docname="1954-vistavision-4.svg"
   xmlns:inkscape="http://www.inkscape.org/namespaces/inkscape"
   xmlns:sodipodi="http://sodipodi.sourceforge.net/DTD/sodipodi-0.dtd"
   xmlns="http://www.w3.org/2000/svg"
   xmlns:svg="http://www.w3.org/2000/svg">
  <sodipodi:namedview
     id="namedview2492"
     pagecolor="#ffffff"
     bordercolor="#666666"
     borderopacity="1.0"
     inkscape:pageshadow="2"
     inkscape:pageopacity="0.0"
     inkscape:pagecheckerboard="0"
     inkscape:document-units="mm"
     showgrid="false"
     units="px"
     inkscape:zoom="0.90583674"
     inkscape:cx="337.25724"
     inkscape:cy="255.56482"
     inkscape:window-width="1846"
     inkscape:window-height="1136"
     inkscape:window-x="0"
     inkscape:window-y="0"
     inkscape:window-maximized="1"
     inkscape:current-layer="g6395"
     inkscape:showpageshadow="2"
     inkscape:deskcolor="#d1d1d1" />
  <defs
     id="defs2487" />
  <g
     inkscape:label="Layer 1"
     inkscape:groupmode="layer"
     id="layer1">
    <g
       id="g4731"
       transform="matrix(0.32961229,0,0,0.32903008,-241.78905,1.73126)"
       style="stroke-width:2.68698">
      <g
         id="g104528"
         transform="matrix(1,0,0,-1,0,792)"
         style="stroke-width:2.68698">
        <g
           id="g104530"
           style="stroke-width:2.68698" />
      </g>
      <g
         id="g104996"
         transform="matrix(1,0,0,-1,0,792)"
         style="stroke-width:2.68698">
        <g
           id="g104998"
           style="stroke-width:2.68698" />
      </g>
      <g
         id="g28852"
         transform="matrix(1.070281,0,0,1.0721748,779.91249,-443.13657)">
        <g
           id="g6718"
           transform="matrix(1.117886,0,0,1.117886,-549.13111,-491.62865)">
          <g
             id="g6395"
             transform="matrix(0.53415107,0,0,0.53415109,441.93669,415.26868)">
            <g
               id="g10615"
               transform="matrix(3.1682649,0,0,3.1682649,-2584.6747,-1942.4257)">
              <g
                 id="g3023"
                 transform="matrix(1,0,0,-1,-79.523079,770.00448)">
                <path
                   d="m 926.227,-127.559 c 7.89,3.012 -1.563,8.809 -0.024,13.809"
                   style="fill:none;stroke:#000000;stroke-width:2.61674;stroke-linecap:round;stroke-linejoin:round;stroke-miterlimit:10;stroke-dasharray:none;stroke-opacity:1"
                   id="path3025" />
              </g>
              <g
                 id="g3027"
                 transform="matrix(1,0,0,-1,-79.523079,770.00448)">
                <path
                   d="m 927.789,-112.852 c 19.512,1.364 39.102,0.348 58.645,-0.16 16.429,0.492 32.863,-0.133 49.296,-0.05 15.461,-0.754 30.989,-0.715 46.45,-0.036 3.554,0.047 8.683,0.782 11.3,0.7"
                   style="fill:none;stroke:#000000;stroke-width:2.61674;stroke-linecap:round;stroke-linejoin:round;stroke-miterlimit:10;stroke-dasharray:none;stroke-opacity:1"
                   id="path3029" />
              </g>
              <g
                 id="g3031"
                 transform="matrix(1,0,0,-1,-79.523079,770.00448)">
                <path
                   d="m 1094.668,-113.742 c -0.141,-1.063 0.613,-2.086 0.352,-3.129"
                   style="fill:none;stroke:#000000;stroke-width:2.61674;stroke-linecap:round;stroke-linejoin:round;stroke-miterlimit:10;stroke-dasharray:none;stroke-opacity:1"
                   id="path3033" />
              </g>
              <g
                 id="g3035"
                 transform="matrix(1,0,0,-1,-79.523079,770.00448)">
                <path
                   d="m 1093.758,-119.184 c -5.242,0.735 -3.914,-9.863 0.285,-6.394"
                   style="fill:none;stroke:#000000;stroke-width:2.61674;stroke-linecap:round;stroke-linejoin:round;stroke-miterlimit:10;stroke-dasharray:none;stroke-opacity:1"
                   id="path3037" />
              </g>
              <g
                 id="g3039"
                 transform="matrix(1,0,0,-1,-79.523079,770.00448)">
                <path
                   d="m 1093.77,-127.738 c -0.532,-9.504 0,-19.047 -0.586,-28.563 -0.375,-9.883 1.152,-19.676 1.027,-29.57 0.094,-7.336 -0.098,-14.649 0.172,-21.981"
                   style="fill:none;stroke:#000000;stroke-width:2.61674;stroke-linecap:round;stroke-linejoin:round;stroke-miterlimit:10;stroke-dasharray:none;stroke-opacity:1"
                   id="path3041" />
              </g>
              <g
                 id="g3043"
                 transform="matrix(1,0,0,-1,-79.523079,770.00448)">
                <path
                   d="m 1094.605,-209.773 c -4.312,-0.059 -4.238,-8.598 -0.128,-9.039"
                   style="fill:none;stroke:#000000;stroke-width:2.61674;stroke-linecap:round;stroke-linejoin:round;stroke-miterlimit:10;stroke-dasharray:none;stroke-opacity:1"
                   id="path3045" />
              </g>
              <g
                 id="g3047"
                 transform="matrix(1,0,0,-1,-79.523079,770.00448)">
                <path
                   d="m 1094.812,-219.695 c 0.833,-1.285 -0.378,-3.063 0.36,-4.258"
                   style="fill:none;stroke:#000000;stroke-width:2.61674;stroke-linecap:round;stroke-linejoin:round;stroke-miterlimit:10;stroke-dasharray:none;stroke-opacity:1"
                   id="path3049" />
              </g>
              <g
                 id="g3051"
                 transform="matrix(1,0,0,-1,-79.523079,770.00448)">
                <path
                   d="m 926.461,-128.719 c 0.637,-10.941 -1.09,-21.906 -0.305,-32.867 -0.468,-11.894 -1.496,-23.828 -1.234,-35.769 -0.36,-4.497 -0.801,-9.071 0.398,-13.481"
                   style="fill:none;stroke:#000000;stroke-width:2.61674;stroke-linecap:round;stroke-linejoin:round;stroke-miterlimit:10;stroke-dasharray:none;stroke-opacity:1"
                   id="path3053" />
              </g>
              <g
                 id="g3055"
                 transform="matrix(1,0,0,-1,-79.523079,770.00448)">
                <path
                   d="m 925.129,-211.266 c 6.008,0.114 4.93,-7.902 0.082,-8.093"
                   style="fill:none;stroke:#000000;stroke-width:2.61674;stroke-linecap:round;stroke-linejoin:round;stroke-miterlimit:10;stroke-dasharray:none;stroke-opacity:1"
                   id="path3057" />
              </g>
              <g
                 id="g3059"
                 transform="matrix(1,0,0,-1,-79.523079,770.00448)">
                <path
                   d="m 924.969,-219.859 c -0.442,-0.969 0.965,-3.215 0.593,-3.934"
                   style="fill:none;stroke:#000000;stroke-width:2.61674;stroke-linecap:round;stroke-linejoin:round;stroke-miterlimit:10;stroke-dasharray:none;stroke-opacity:1"
                   id="path3061" />
              </g>
              <g
                 id="g3063"
                 transform="matrix(1,0,0,-1,-79.523079,770.00448)">
                <path
                   d="m 925.914,-225.012 c 6.129,1.473 12.789,0.567 19.133,0.727 11.148,-0.695 22.301,-0.215 33.441,0.48 27.16,-0.019 54.332,0.289 81.492,0.43 11.575,-0.328 23.161,-0.895 34.715,-1.23 l -0.375,0.027"
                   style="fill:none;stroke:#000000;stroke-width:2.61674;stroke-linecap:round;stroke-linejoin:round;stroke-miterlimit:10;stroke-dasharray:none;stroke-opacity:1"
                   id="path3065" />
              </g>
              <g
                 id="g3067"
                 transform="matrix(1,0,0,-1,-79.523079,770.00448)">
                <path
                   d="m 1092.23,-126.82 c -6.226,-1.285 -20.152,1.894 -18.804,-8.145 -1.168,-9.058 1.801,-17.808 1.769,-26.836 1.762,-14.672 -0.441,-29.394 0.274,-44.09 4.765,-3.851 13.199,-1.449 19.125,-3.117"
                   style="fill:none;stroke:#000000;stroke-width:2.61674;stroke-linecap:round;stroke-linejoin:round;stroke-miterlimit:10;stroke-dasharray:none;stroke-opacity:1"
                   id="path3069" />
              </g>
              <g
                 id="g3071"
                 transform="matrix(1,0,0,-1,-79.523079,770.00448)">
                <path
                   d="m 927.059,-127.242 c 6.757,-1.008 16.379,2.008 20.632,-4.926 2.473,-8.578 2.192,-17.738 2.094,-26.594 -0.558,-14.457 0.629,-28.929 -0.683,-43.34 -0.676,-8.578 -11.793,-6.769 -17.973,-8.199 -2.492,-0.031 -5.137,0.008 -7.531,0.5"
                   style="fill:none;stroke:#000000;stroke-width:2.61674;stroke-linecap:round;stroke-linejoin:round;stroke-miterlimit:10;stroke-dasharray:none;stroke-opacity:1"
                   id="path3073" />
              </g>
              <g
                 id="g3075"
                 transform="matrix(1,0,0,-1,-79.523079,770.00448)">
                <path
                   d="m 951.75,-205.055 c 1.043,7.571 -0.742,15.239 -0.035,22.891 0.394,9.25 1.738,18.519 1.148,27.832 0.735,7.348 -2.133,16.25 2.133,22.672 6.731,4.074 14.949,2.254 22.406,2.937 13.536,-0.472 27.039,0.75 40.571,0.633 14.511,0.52 29.039,0.32 43.554,0.742 8.438,1.051 7.266,-8.336 8.137,-14.015 -0.027,-12.266 1.77,-24.469 0.981,-36.75 -0.293,-9.117 -0.473,-18.258 -0.801,-27.375 -0.196,-1.657 -1.832,-4.574 -3.617,-3.219"
                   style="fill:none;stroke:#000000;stroke-width:2.61674;stroke-linecap:round;stroke-linejoin:round;stroke-miterlimit:10;stroke-dasharray:none;stroke-opacity:1"
                   id="path3077" />
              </g>
              <g
                 id="g3079"
                 transform="matrix(1,0,0,-1,-79.523079,770.00448)">
                <path
                   d="m 951.414,-204.676 c 0.504,-7.164 12.051,-3.679 17.336,-5.414 15.953,0.188 31.961,-0.351 47.871,1.219 16.824,1.43 33.781,-2.285 50.508,0.769"
                   style="fill:none;stroke:#000000;stroke-width:2.61674;stroke-linecap:round;stroke-linejoin:round;stroke-miterlimit:10;stroke-dasharray:none;stroke-opacity:1"
                   id="path3081" />
              </g>
              <g
                 id="g3083"
                 transform="matrix(1,0,0,-1,-79.523079,770.00448)">
                <path
                   d="m 938.402,-125.344 c -2.293,4.496 1.118,10.942 5.688,5.973 3.152,-4.953 -2.434,-11.098 -5.754,-4.66"
                   style="fill:none;stroke:#000000;stroke-width:1.26872;stroke-linecap:round;stroke-linejoin:round;stroke-miterlimit:10;stroke-dasharray:none;stroke-opacity:1"
                   id="path3085" />
              </g>
              <g
                 id="g3087"
                 transform="matrix(1,0,0,-1,-79.523079,770.00448)">
                <path
                   d="m 954.16,-122.434 c -1.879,7.461 7.485,5.868 6.164,-0.703 1.098,-7.855 -7.969,-2.894 -6.703,2.168"
                   style="fill:none;stroke:#000000;stroke-width:1.26872;stroke-linecap:round;stroke-linejoin:round;stroke-miterlimit:10;stroke-dasharray:none;stroke-opacity:1"
                   id="path3089" />
              </g>
              <g
                 id="g3091"
                 transform="matrix(1,0,0,-1,-79.523079,770.00448)">
                <path
                   d="m 969.023,-122.984 c 0.594,10.882 11.899,0.449 4.899,-4.379 -3.449,-1.137 -6.242,2.242 -4.164,5.304"
                   style="fill:none;stroke:#000000;stroke-width:1.26872;stroke-linecap:round;stroke-linejoin:round;stroke-miterlimit:10;stroke-dasharray:none;stroke-opacity:1"
                   id="path3093" />
              </g>
              <g
                 id="g3095"
                 transform="matrix(1,0,0,-1,-79.523079,770.00448)">
                <path
                   d="m 984.301,-124.375 c -2.992,6.398 8.047,9.633 6.613,1.906 2.34,-6.054 -7.379,-6.629 -7.027,-1.293"
                   style="fill:none;stroke:#000000;stroke-width:1.26872;stroke-linecap:round;stroke-linejoin:round;stroke-miterlimit:10;stroke-dasharray:none;stroke-opacity:1"
                   id="path3097" />
              </g>
              <g
                 id="g3099"
                 transform="matrix(1,0,0,-1,-79.523079,770.00448)">
                <path
                   d="m 999.973,-124.117 c -1.36,9.262 10.246,2.902 5.031,-2.465 -2.149,-1.391 -5.004,0.504 -4.684,2.961"
                   style="fill:none;stroke:#000000;stroke-width:1.26872;stroke-linecap:round;stroke-linejoin:round;stroke-miterlimit:10;stroke-dasharray:none;stroke-opacity:1"
                   id="path3101" />
              </g>
              <g
                 id="g3103"
                 transform="matrix(1,0,0,-1,-79.523079,770.00448)">
                <path
                   d="m 1014.941,-122.902 c 2.497,13.195 12.282,-7.508 1.137,-3.496 -1.191,1.468 -0.316,3.836 -1.031,5.617"
                   style="fill:none;stroke:#000000;stroke-width:1.26872;stroke-linecap:round;stroke-linejoin:round;stroke-miterlimit:10;stroke-dasharray:none;stroke-opacity:1"
                   id="path3105" />
              </g>
              <g
                 id="g3107"
                 transform="matrix(1,0,0,-1,-79.523079,770.00448)">
                <path
                   d="m 1029.66,-122.457 c -0.246,7.828 11.238,1.719 6.379,-3.75 -3.297,-1.953 -8.078,0.824 -6.078,4.82"
                   style="fill:none;stroke:#000000;stroke-width:1.26872;stroke-linecap:round;stroke-linejoin:round;stroke-miterlimit:10;stroke-dasharray:none;stroke-opacity:1"
                   id="path3109" />
              </g>
              <g
                 id="g3111"
                 transform="matrix(1,0,0,-1,-79.523079,770.00448)">
                <path
                   d="m 1044.773,-121.941 c 1.981,8.078 11.336,-1.641 4.68,-4.739 -6.476,-0.625 -2.738,4.336 -4.57,6.727"
                   style="fill:none;stroke:#000000;stroke-width:1.26872;stroke-linecap:round;stroke-linejoin:round;stroke-miterlimit:10;stroke-dasharray:none;stroke-opacity:1"
                   id="path3113" />
              </g>
              <g
                 id="g3115"
                 transform="matrix(1,0,0,-1,-79.523079,770.00448)">
                <path
                   d="m 1060.043,-121.883 c 1.531,8.692 11.441,-2.91 4.269,-4.832 -4.257,-1.633 -5.242,3.367 -3.796,5.813"
                   style="fill:none;stroke:#000000;stroke-width:1.26872;stroke-linecap:round;stroke-linejoin:round;stroke-miterlimit:10;stroke-dasharray:none;stroke-opacity:1"
                   id="path3117" />
              </g>
              <g
                 id="g3119"
                 transform="matrix(1,0,0,-1,-79.523079,770.00448)">
                <path
                   d="m 1076.141,-122.641 c -1.629,6.313 8.964,4.52 6.007,-1.386 -0.21,-6.774 -8.832,-1.649 -5.113,2.976"
                   style="fill:none;stroke:#000000;stroke-width:1.26872;stroke-linecap:round;stroke-linejoin:round;stroke-miterlimit:10;stroke-dasharray:none;stroke-opacity:1"
                   id="path3121" />
              </g>
              <g
                 id="g3123"
                 transform="matrix(1,0,0,-1,-79.523079,770.00448)">
                <path
                   d="m 1075.477,-215.43 c 0.242,7.075 11.781,1.965 5.957,-3.66 -2.375,-2.547 -6.188,-0.844 -5.446,2.695"
                   style="fill:none;stroke:#000000;stroke-width:1.26872;stroke-linecap:round;stroke-linejoin:round;stroke-miterlimit:10;stroke-dasharray:none;stroke-opacity:1"
                   id="path3125" />
              </g>
              <g
                 id="g3127"
                 transform="matrix(1,0,0,-1,-79.523079,770.00448)">
                <path
                   d="m 1061.363,-217.742 c -2.511,6.82 8.922,6.875 5.735,-0.336 -0.274,-1.957 -3.739,-3.281 -5.063,-1.719"
                   style="fill:none;stroke:#000000;stroke-width:1.26872;stroke-linecap:round;stroke-linejoin:round;stroke-miterlimit:10;stroke-dasharray:none;stroke-opacity:1"
                   id="path3129" />
              </g>
              <g
                 id="g3131"
                 transform="matrix(1,0,0,-1,-79.523079,770.00448)">
                <path
                   d="m 1045.438,-217.797 c -2.817,6.508 8.906,8.152 6.007,0.547 1.172,-3.02 -6.195,-4.297 -5.425,-1.164"
                   style="fill:none;stroke:#000000;stroke-width:1.26872;stroke-linecap:round;stroke-linejoin:round;stroke-miterlimit:10;stroke-dasharray:none;stroke-opacity:1"
                   id="path3133" />
              </g>
              <g
                 id="g3135"
                 transform="matrix(1,0,0,-1,-79.523079,770.00448)">
                <path
                   d="m 1030.059,-218.305 c -2.93,6.34 8.765,9.7 6.187,1.653 0.516,-3.891 -3.426,-4.481 -5.906,-2.422"
                   style="fill:none;stroke:#000000;stroke-width:1.26872;stroke-linecap:round;stroke-linejoin:round;stroke-miterlimit:10;stroke-dasharray:none;stroke-opacity:1"
                   id="path3137" />
              </g>
              <g
                 id="g3139"
                 transform="matrix(1,0,0,-1,-79.523079,770.00448)">
                <path
                   d="m 1015.277,-217.309 c -1.484,7.207 9.696,6.118 5.336,-0.515 -0.875,-1.344 -4.629,-1.942 -5.152,-0.266"
                   style="fill:none;stroke:#000000;stroke-width:1.26872;stroke-linecap:round;stroke-linejoin:round;stroke-miterlimit:10;stroke-dasharray:none;stroke-opacity:1"
                   id="path3141" />
              </g>
              <g
                 id="g3143"
                 transform="matrix(1,0,0,-1,-79.523079,770.00448)">
                <path
                   d="m 999.707,-217.32 c -1.184,8.847 10.445,4.621 4.965,-2.055 -1.27,-1.305 -3.551,-1.195 -4.317,0.594"
                   style="fill:none;stroke:#000000;stroke-width:1.26872;stroke-linecap:round;stroke-linejoin:round;stroke-miterlimit:10;stroke-dasharray:none;stroke-opacity:1"
                   id="path3145" />
              </g>
              <g
                 id="g3147"
                 transform="matrix(1,0,0,-1,-79.523079,770.00448)">
                <path
                   d="m 985.344,-216.91 c -2.903,6.902 8.5,7.726 5.476,0.195 0.114,-3.176 -3.675,-4.851 -5.109,-1.59"
                   style="fill:none;stroke:#000000;stroke-width:1.26872;stroke-linecap:round;stroke-linejoin:round;stroke-miterlimit:10;stroke-dasharray:none;stroke-opacity:1"
                   id="path3149" />
              </g>
              <g
                 id="g3151"
                 transform="matrix(1,0,0,-1,-79.523079,770.00448)">
                <path
                   d="m 969.398,-216.758 c -1.957,7.403 9.657,6.047 6.067,-0.82 0.769,-5.309 -7.598,-3.652 -5.875,0.14"
                   style="fill:none;stroke:#000000;stroke-width:1.26872;stroke-linecap:round;stroke-linejoin:round;stroke-miterlimit:10;stroke-dasharray:none;stroke-opacity:1"
                   id="path3153" />
              </g>
              <g
                 id="g3155"
                 transform="matrix(1,0,0,-1,-79.523079,770.00448)">
                <path
                   d="m 954.227,-217.281 c -2.497,7.293 7.496,8.457 6.058,0.691 0.527,-3.496 -3.683,-5.328 -5.512,-2.133"
                   style="fill:none;stroke:#000000;stroke-width:1.26872;stroke-linecap:round;stroke-linejoin:round;stroke-miterlimit:10;stroke-dasharray:none;stroke-opacity:1"
                   id="path3157" />
              </g>
              <g
                 id="g3159"
                 transform="matrix(1,0,0,-1,-79.523079,770.00448)">
                <path
                   d="m 938.594,-215.703 c -0.571,6.789 8.859,4.566 6.027,-1.942 -1.863,-6.757 -6.894,0.422 -5.476,3.981"
                   style="fill:none;stroke:#000000;stroke-width:1.26872;stroke-linecap:round;stroke-linejoin:round;stroke-miterlimit:10;stroke-dasharray:none;stroke-opacity:1"
                   id="path3161" />
              </g>
            </g>
          </g>
        </g>
      </g>
    </g>
  </g>
</svg>
