<?xml version="1.0" encoding="UTF-8" standalone="no"?>
<!-- Created by Ashley Blewer - This work is licensed under a Creative Commons Attribution 4.0 International License -->

<svg
   width="544"
   height="480"
   viewBox="0 0 143.93334 127"
   version="1.1"
   id="svg2490"
   inkscape:version="1.2.2 (1:1.2.2+202212051552+b0a8486541)"
   sodipodi:docname="1955-todd-ao-1.svg"
   xmlns:inkscape="http://www.inkscape.org/namespaces/inkscape"
   xmlns:sodipodi="http://sodipodi.sourceforge.net/DTD/sodipodi-0.dtd"
   xmlns="http://www.w3.org/2000/svg"
   xmlns:svg="http://www.w3.org/2000/svg">
  <sodipodi:namedview
     id="namedview2492"
     pagecolor="#ffffff"
     bordercolor="#666666"
     borderopacity="1.0"
     inkscape:pageshadow="2"
     inkscape:pageopacity="0.0"
     inkscape:pagecheckerboard="0"
     inkscape:document-units="mm"
     showgrid="false"
     units="px"
     inkscape:zoom="0.90583674"
     inkscape:cx="337.25724"
     inkscape:cy="255.56482"
     inkscape:window-width="1846"
     inkscape:window-height="1136"
     inkscape:window-x="0"
     inkscape:window-y="0"
     inkscape:window-maximized="1"
     inkscape:current-layer="g6395"
     inkscape:showpageshadow="2"
     inkscape:deskcolor="#d1d1d1" />
  <defs
     id="defs2487" />
  <g
     inkscape:label="Layer 1"
     inkscape:groupmode="layer"
     id="layer1">
    <g
       id="g4731"
       transform="matrix(0.32961229,0,0,0.32903008,-241.78905,1.73126)"
       style="stroke-width:2.68698">
      <g
         id="g104528"
         transform="matrix(1,0,0,-1,0,792)"
         style="stroke-width:2.68698">
        <g
           id="g104530"
           style="stroke-width:2.68698" />
      </g>
      <g
         id="g104996"
         transform="matrix(1,0,0,-1,0,792)"
         style="stroke-width:2.68698">
        <g
           id="g104998"
           style="stroke-width:2.68698" />
      </g>
      <g
         id="g28852"
         transform="matrix(1.070281,0,0,1.0721748,779.91249,-443.13657)">
        <g
           id="g6718"
           transform="matrix(1.117886,0,0,1.117886,-549.13111,-491.62865)">
          <g
             id="g6395"
             transform="matrix(0.53415107,0,0,0.53415109,441.93669,415.26868)">
            <g
               id="g5232"
               transform="matrix(1.9177898,0,0,1.9177898,-161.79668,-1528.5419)">
              <g
                 id="g930"
                 transform="matrix(1,0,0,-1,-7.7446952,749.71958)">
                <path
                   d="m 242.883,-497.512 c 29.558,-14.406 41.902,-50.609 36.148,-81.613 -4.523,-30.117 -25.797,-59.156 -56.601,-65.891 -47.149,-12.621 -99.934,26.965 -101.149,75.676 -0.082,45.184 42.438,84.461 87.348,81.86 12.309,-0.024 23.269,-5.309 34.254,-10.032 z"
                   style="fill:none;stroke:#000000;stroke-width:2.61674;stroke-linecap:round;stroke-linejoin:round;stroke-miterlimit:10;stroke-dasharray:none;stroke-opacity:1"
                   id="path932" />
              </g>
              <g
                 id="g934"
                 transform="matrix(1,0,0,-1,-7.7446952,749.71958)">
                <path
                   d="m 288.078,-536.121 c 18.61,47.617 86.637,58.578 123.152,25.144 27.903,-21.289 37.118,-61.949 19.778,-92.757 -19.727,-42.719 -80.871,-60.961 -117.836,-29.161 -29.598,23.551 -33.07,62.684 -25.094,96.774"
                   style="fill:none;stroke:#000000;stroke-width:2.61674;stroke-linecap:round;stroke-linejoin:round;stroke-miterlimit:10;stroke-dasharray:none;stroke-opacity:1"
                   id="path936" />
              </g>
              <g
                 id="g938"
                 transform="matrix(1,0,0,-1,-7.7446952,749.71958)">
                <path
                   d="m 217.746,-645.172 c 0.719,-0.074 1.137,-8.293 1.156,-10.687 -0.054,-2.098 1.067,-7.418 0.153,-8.184"
                   style="fill:none;stroke:#000000;stroke-width:2.61674;stroke-linecap:round;stroke-linejoin:round;stroke-miterlimit:10;stroke-dasharray:none;stroke-opacity:1"
                   id="path940" />
              </g>
              <g
                 id="g942"
                 transform="matrix(1,0,0,-1,-7.7446952,749.71958)">
                <path
                   d="m 362.641,-649.262 c -0.493,0.344 -5.274,-3.601 -6.536,-5.437 -2.125,-2.016 -3.738,-7.75 -4.871,-7.516"
                   style="fill:none;stroke:#000000;stroke-width:2.61674;stroke-linecap:round;stroke-linejoin:round;stroke-miterlimit:10;stroke-dasharray:none;stroke-opacity:1"
                   id="path944" />
              </g>
              <g
                 id="g946"
                 transform="matrix(1,0,0,-1,-7.7446952,749.71958)">
                <path
                   d="m 219.055,-664.043 132.179,1.828"
                   style="fill:none;stroke:#000000;stroke-width:2.61674;stroke-linecap:round;stroke-linejoin:round;stroke-miterlimit:10;stroke-dasharray:none;stroke-opacity:1"
                   id="path948" />
              </g>
              <g
                 id="g950"
                 transform="matrix(1,0,0,-1,-7.7446952,749.71958)">
                <path
                   d="m 280.309,-547.531 c -1.899,-0.129 8.031,-2.371 3.742,-1.242"
                   style="fill:none;stroke:#000000;stroke-width:2.61674;stroke-linecap:round;stroke-linejoin:round;stroke-miterlimit:10;stroke-dasharray:none;stroke-opacity:1"
                   id="path952" />
              </g>
              <g
                 id="g954"
                 transform="matrix(1,0,0,-1,-7.7446952,749.71958)">
                <path
                   d="m 384.531,-495.625 c -25.254,2.66 -63.715,-4.934 -78.316,-27.664 -20.305,-24.77 -21.184,-62.957 -0.453,-87.781 16.176,-21.618 59.531,-34.918 86.355,-30.129"
                   style="fill:none;stroke:#000000;stroke-width:2.61674;stroke-linecap:round;stroke-linejoin:round;stroke-miterlimit:10;stroke-dasharray:none;stroke-opacity:1"
                   id="path956" />
              </g>
              <g
                 id="g958"
                 transform="matrix(1,0,0,-1,-7.7446952,749.71958)">
                <path
                   d="m 275.531,-559.074 c -3.578,58.668 -90.504,91.859 -127.746,42.531 -24.269,-25.562 -33.41,-72.883 -7.965,-100.332"
                   style="fill:none;stroke:#000000;stroke-width:2.61674;stroke-linecap:round;stroke-linejoin:round;stroke-miterlimit:10;stroke-dasharray:none;stroke-opacity:1"
                   id="path960" />
              </g>
              <g
                 id="g962"
                 transform="matrix(1,0,0,-1,-7.7446952,749.71958)">
                <path
                   d="m 215.523,-543.387 c -2.675,1.547 -13.125,2.426 -18.558,2.352 -5.906,0.57 -14.563,-8.184 -14.563,-8.184"
                   style="fill:none;stroke:#000000;stroke-width:1.26872;stroke-linecap:round;stroke-linejoin:round;stroke-miterlimit:10;stroke-dasharray:none;stroke-opacity:1"
                   id="path964" />
              </g>
              <g
                 id="g966"
                 transform="matrix(1,0,0,-1,-7.7446952,749.71958)">
                <path
                   d="m 215.523,-543.387 c -1.527,-4.738 -6.828,-10.57 -10.109,-15.863 -1.726,-2.293 0.098,-1.801 -3.496,-1.723 -1.168,-0.136 -1.539,-2.011 -2.68,-0.347"
                   style="fill:none;stroke:#000000;stroke-width:1.26872;stroke-linecap:round;stroke-linejoin:round;stroke-miterlimit:10;stroke-dasharray:none;stroke-opacity:1"
                   id="path968" />
              </g>
              <g
                 id="g970"
                 transform="matrix(1,0,0,-1,-7.7446952,749.71958)">
                <path
                   d="m 182.402,-549.219 c 4.125,-4.168 14.305,-10.234 16.836,-12.101"
                   style="fill:none;stroke:#000000;stroke-width:1.26872;stroke-linecap:round;stroke-linejoin:round;stroke-miterlimit:10;stroke-dasharray:none;stroke-opacity:1"
                   id="path972" />
              </g>
              <g
                 id="g974"
                 transform="matrix(1,0,0,-1,-7.7446952,749.71958)">
                <path
                   d="m 219.359,-544.859 c 11.118,-7.207 13.313,-22.703 9.34,-34.512 0.246,-0.848 -0.871,-0.699 -0.609,-0.125"
                   style="fill:none;stroke:#000000;stroke-width:1.26872;stroke-linecap:round;stroke-linejoin:round;stroke-miterlimit:10;stroke-dasharray:none;stroke-opacity:1"
                   id="path976" />
              </g>
              <g
                 id="g978"
                 transform="matrix(1,0,0,-1,-7.7446952,749.71958)">
                <path
                   d="m 228.379,-579.059 c -3.481,0.973 -9.941,6.121 -13.594,7.891 -4.765,2.328 -4.695,1.211 -4.234,5.082 -1.301,0.922 -2.043,0.594 -2.18,1.828"
                   style="fill:none;stroke:#000000;stroke-width:1.26872;stroke-linecap:round;stroke-linejoin:round;stroke-miterlimit:10;stroke-dasharray:none;stroke-opacity:1"
                   id="path980" />
              </g>
              <g
                 id="g982"
                 transform="matrix(1,0,0,-1,-7.7446952,749.71958)">
                <path
                   d="m 219.359,-544.859 c -0.683,-1.653 -5.359,-7.973 -6.671,-11.211 -1.512,-2.719 -3.965,-6.461 -4.836,-7.778"
                   style="fill:none;stroke:#000000;stroke-width:1.26872;stroke-linecap:round;stroke-linejoin:round;stroke-miterlimit:10;stroke-dasharray:none;stroke-opacity:1"
                   id="path984" />
              </g>
              <g
                 id="g986"
                 transform="matrix(1,0,0,-1,-7.7446952,749.71958)">
                <path
                   d="m 225.754,-583.141 c -5.219,2.664 -16.07,8.579 -19.262,10.703 0.422,-0.738 -5.879,-2.8 -5.461,-2.132 l -0.777,0.289"
                   style="fill:none;stroke:#000000;stroke-width:1.26872;stroke-linecap:round;stroke-linejoin:round;stroke-miterlimit:10;stroke-dasharray:none;stroke-opacity:1"
                   id="path988" />
              </g>
              <g
                 id="g990"
                 transform="matrix(1,0,0,-1,-7.7446952,749.71958)">
                <path
                   d="m 200.254,-574.281 c -2.406,-2.707 -4.859,-10.301 -7.711,-13.789 -1.051,-0.922 -4.094,-4.719 -2.738,-4.575"
                   style="fill:none;stroke:#000000;stroke-width:1.26872;stroke-linecap:round;stroke-linejoin:round;stroke-miterlimit:10;stroke-dasharray:none;stroke-opacity:1"
                   id="path992" />
              </g>
              <g
                 id="g994"
                 transform="matrix(1,0,0,-1,-7.7446952,749.71958)">
                <path
                   d="m 190.395,-592.852 c 9.179,-5.601 21.371,-2.949 29.238,3.754 2.328,1.719 4.601,3.571 6.387,5.871"
                   style="fill:none;stroke:#000000;stroke-width:1.26872;stroke-linecap:round;stroke-linejoin:round;stroke-miterlimit:10;stroke-dasharray:none;stroke-opacity:1"
                   id="path996" />
              </g>
              <g
                 id="g998"
                 transform="matrix(1,0,0,-1,-7.7446952,749.71958)">
                <path
                   d="m 178.719,-555.234 c 4.261,-1.571 14.25,-8.188 16.375,-9.043 -1.324,-2.184 1.199,-6.098 1.379,-6.024"
                   style="fill:none;stroke:#000000;stroke-width:1.26872;stroke-linecap:round;stroke-linejoin:round;stroke-miterlimit:10;stroke-dasharray:none;stroke-opacity:1"
                   id="path1000" />
              </g>
              <g
                 id="g1002"
                 transform="matrix(1,0,0,-1,-7.7446952,749.71958)">
                <path
                   d="m 196.473,-570.301 c -3.008,-2.324 -6.84,-13.793 -9.551,-17.429 -0.527,-1.391 -1.395,-2.868 -1.16,-2.407"
                   style="fill:none;stroke:#000000;stroke-width:1.26872;stroke-linecap:round;stroke-linejoin:round;stroke-miterlimit:10;stroke-dasharray:none;stroke-opacity:1"
                   id="path1004" />
              </g>
              <g
                 id="g1006"
                 transform="matrix(1,0,0,-1,-7.7446952,749.71958)">
                <path
                   d="m 184.992,-590.184 c -8.156,5.414 -11.656,15.965 -10.914,25.418 0.293,3.891 2.317,7.055 4.641,9.532"
                   style="fill:none;stroke:#000000;stroke-width:1.26872;stroke-linecap:round;stroke-linejoin:round;stroke-miterlimit:10;stroke-dasharray:none;stroke-opacity:1"
                   id="path1008" />
              </g>
              <g
                 id="g1010"
                 transform="matrix(1,0,0,-1,-7.7446952,749.71958)">
                <path
                   d="m 273.785,-617.527 c 2.746,3.64 10.531,7.699 15.231,3.812 3.382,-1.785 -1.168,-7.351 -1.559,-11.019 -1.539,-3.489 -4.348,-7.078 -7.211,-3.055 -2.863,2.707 -2.992,8.473 -6.863,9.941"
                   style="fill:none;stroke:#000000;stroke-width:1.26872;stroke-linecap:round;stroke-linejoin:round;stroke-miterlimit:10;stroke-dasharray:none;stroke-opacity:1"
                   id="path1012" />
              </g>
              <g
                 id="g1014"
                 transform="matrix(1,0,0,-1,-7.7446952,749.71958)">
                <path
                   d="m 368.965,-543.301 c -0.875,-5.609 -5,-13.543 -6.02,-18.828 0.383,0.836 -6.254,-1.133 -4.484,-0.816 -4.789,1.789 -13.606,4.941 -17.477,6.558 -1.086,0.539 -2.406,0.043 -2.121,0.703"
                   style="fill:none;stroke:#000000;stroke-width:1.26872;stroke-linecap:round;stroke-linejoin:round;stroke-miterlimit:10;stroke-dasharray:none;stroke-opacity:1"
                   id="path1016" />
              </g>
              <g
                 id="g1018"
                 transform="matrix(1,0,0,-1,-7.7446952,749.71958)">
                <path
                   d="m 368.965,-543.301 c -2.11,2.016 -13.344,-0.941 -17.305,-2.293 -6.535,-0.418 -10.953,-7.617 -12.797,-10.09 l 0.25,0.422"
                   style="fill:none;stroke:#000000;stroke-width:1.26872;stroke-linecap:round;stroke-linejoin:round;stroke-miterlimit:10;stroke-dasharray:none;stroke-opacity:1"
                   id="path1020" />
              </g>
              <g
                 id="g1022"
                 transform="matrix(1,0,0,-1,-7.7446952,749.71958)">
                <path
                   d="m 376.406,-547.305 c 4.02,-0.812 9.164,-8.777 10.332,-12.949 2.024,-4.344 1.942,-10.094 1.192,-11.109 0.523,-0.063 -7.582,3.609 -10.391,3.371 -3.883,0.472 -5.039,1.172 -6.094,3.07 -3.816,0.402 1.114,4.375 0.668,7.57 1.008,3.028 2.961,9.547 4.293,10.047"
                   style="fill:none;stroke:#000000;stroke-width:1.26872;stroke-linecap:round;stroke-linejoin:round;stroke-miterlimit:10;stroke-dasharray:none;stroke-opacity:1"
                   id="path1024" />
              </g>
              <g
                 id="g1026"
                 transform="matrix(1,0,0,-1,-7.7446952,749.71958)">
                <path
                   d="m 372.617,-570.312 c 4.266,-1.313 12.899,-5.34 15.258,-6.379 2.41,-9.157 -7.477,-17.551 -16.363,-17.481 -3.645,-0.223 -10.258,-1.433 -12.16,-0.375 l 0.574,0.977"
                   style="fill:none;stroke:#000000;stroke-width:1.26872;stroke-linecap:round;stroke-linejoin:round;stroke-miterlimit:10;stroke-dasharray:none;stroke-opacity:1"
                   id="path1028" />
              </g>
              <g
                 id="g1030"
                 transform="matrix(1,0,0,-1,-7.7446952,749.71958)">
                <path
                   d="m 372.617,-570.312 c -0.055,-1.844 -6.769,-2.876 -6.109,-3.629 -1.778,-6.387 -5.711,-17.032 -7.156,-20.606"
                   style="fill:none;stroke:#000000;stroke-width:1.26872;stroke-linecap:round;stroke-linejoin:round;stroke-miterlimit:10;stroke-dasharray:none;stroke-opacity:1"
                   id="path1032" />
              </g>
              <g
                 id="g1034"
                 transform="matrix(1,0,0,-1,-7.7446952,749.71958)">
                <path
                   d="m 338.801,-559.262 c 4.656,-1.351 16.347,-6.855 19.121,-7.82 -0.524,-1.746 2.176,-7.184 4.086,-6.406"
                   style="fill:none;stroke:#000000;stroke-width:1.26872;stroke-linecap:round;stroke-linejoin:round;stroke-miterlimit:10;stroke-dasharray:none;stroke-opacity:1"
                   id="path1036" />
              </g>
              <g
                 id="g1038"
                 transform="matrix(1,0,0,-1,-7.7446952,749.71958)">
                <path
                   d="m 362.008,-573.488 c -3.16,-3.239 -6.867,-10.664 -8.442,-15.02 -1.515,-2.289 -0.121,-3.285 -4.886,-0.941 -6.106,4.523 -13.215,11.414 -12.082,20.023 -0.825,3.254 1.554,8.137 1.66,8.453 l 0.543,1.711"
                   style="fill:none;stroke:#000000;stroke-width:1.26872;stroke-linecap:round;stroke-linejoin:round;stroke-miterlimit:10;stroke-dasharray:none;stroke-opacity:1"
                   id="path1040" />
              </g>
              <g
                 id="g1042"
                 transform="matrix(1,0,0,-1,-7.7446952,749.71958)">
                <path
                   d="m 269.938,-546.945 c 0.921,-0.61 -7.68,-3.727 -7.536,-3.676"
                   style="fill:none;stroke:#000000;stroke-width:1.26872;stroke-linecap:round;stroke-linejoin:round;stroke-miterlimit:10;stroke-dasharray:none;stroke-opacity:1"
                   id="path1044" />
              </g>
              <g
                 id="g1046"
                 transform="matrix(1,0,0,-1,-7.7446952,749.71958)">
                <path
                   d="m 262.402,-550.621 c 0.184,0.285 1.34,-4.441 1.805,-3.024"
                   style="fill:none;stroke:#000000;stroke-width:1.26872;stroke-linecap:round;stroke-linejoin:round;stroke-miterlimit:10;stroke-dasharray:none;stroke-opacity:1"
                   id="path1048" />
              </g>
              <g
                 id="g1050"
                 transform="matrix(1,0,0,-1,-7.7446952,749.71958)">
                <path
                   d="m 264.207,-553.645 c 0.625,0.258 8.324,2.809 9.27,1.747"
                   style="fill:none;stroke:#000000;stroke-width:1.26872;stroke-linecap:round;stroke-linejoin:round;stroke-miterlimit:10;stroke-dasharray:none;stroke-opacity:1"
                   id="path1052" />
              </g>
              <g
                 id="g1054"
                 transform="matrix(1,0,0,-1,-7.7446952,749.71958)">
                <path
                   d="m 132.219,-582.699 c 3.043,-0.059 12.726,3.429 10.929,-1.563"
                   style="fill:none;stroke:#000000;stroke-width:1.26872;stroke-linecap:round;stroke-linejoin:round;stroke-miterlimit:10;stroke-dasharray:none;stroke-opacity:1"
                   id="path1056" />
              </g>
              <g
                 id="g1058"
                 transform="matrix(1,0,0,-1,-7.7446952,749.71958)">
                <path
                   d="m 143.148,-584.262 c -1.996,-0.558 -8.207,-1.535 -10.035,-2.097"
                   style="fill:none;stroke:#000000;stroke-width:1.26872;stroke-linecap:round;stroke-linejoin:round;stroke-miterlimit:10;stroke-dasharray:none;stroke-opacity:1"
                   id="path1060" />
              </g>
              <g
                 id="g1062"
                 transform="matrix(1,0,0,-1,-7.7446952,749.71958)">
                <path
                   d="m 138.168,-599.008 c -1.602,-1.777 8.176,4.625 7.547,3.903"
                   style="fill:none;stroke:#000000;stroke-width:1.26872;stroke-linecap:round;stroke-linejoin:round;stroke-miterlimit:10;stroke-dasharray:none;stroke-opacity:1"
                   id="path1064" />
              </g>
              <g
                 id="g1066"
                 transform="matrix(1,0,0,-1,-7.7446952,749.71958)">
                <path
                   d="m 145.715,-595.105 c 0.062,-0.215 1.32,-5.34 1.168,-3.293"
                   style="fill:none;stroke:#000000;stroke-width:1.26872;stroke-linecap:round;stroke-linejoin:round;stroke-miterlimit:10;stroke-dasharray:none;stroke-opacity:1"
                   id="path1068" />
              </g>
              <g
                 id="g1070"
                 transform="matrix(1,0,0,-1,-7.7446952,749.71958)">
                <path
                   d="m 146.383,-598.457 c -0.793,-2.09 -8.344,-4.875 -8.184,-5.496"
                   style="fill:none;stroke:#000000;stroke-width:1.26872;stroke-linecap:round;stroke-linejoin:round;stroke-miterlimit:10;stroke-dasharray:none;stroke-opacity:1"
                   id="path1072" />
              </g>
              <g
                 id="g1074"
                 transform="matrix(1,0,0,-1,-7.7446952,749.71958)">
                <path
                   d="m 332.078,-503.551 c 2.238,-1.75 3.067,-11.597 6.777,-8.836 0.165,-0.148 -2.394,7.414 -3.242,8.926"
                   style="fill:none;stroke:#000000;stroke-width:1.26872;stroke-linecap:round;stroke-linejoin:round;stroke-miterlimit:10;stroke-dasharray:none;stroke-opacity:1"
                   id="path1076" />
              </g>
              <g
                 id="g1078"
                 transform="matrix(1,0,0,-1,-7.7446952,749.71958)">
                <path
                   d="m 427.297,-536.637 c 0,0 -9.203,-5.34 -11.149,-5.343"
                   style="fill:none;stroke:#000000;stroke-width:1.26872;stroke-linecap:round;stroke-linejoin:round;stroke-miterlimit:10;stroke-dasharray:none;stroke-opacity:1"
                   id="path1080" />
              </g>
              <g
                 id="g1082"
                 transform="matrix(1,0,0,-1,-7.7446952,749.71958)">
                <path
                   d="m 416.148,-541.98 c 0,0 4.098,-3.895 3.125,-2.809"
                   style="fill:none;stroke:#000000;stroke-width:1.26872;stroke-linecap:round;stroke-linejoin:round;stroke-miterlimit:10;stroke-dasharray:none;stroke-opacity:1"
                   id="path1084" />
              </g>
              <g
                 id="g1086"
                 transform="matrix(1,0,0,-1,-7.7446952,749.71958)">
                <path
                   d="m 419.746,-545.301 c 1.254,0.594 10.043,4.422 10.043,4.422"
                   style="fill:none;stroke:#000000;stroke-width:1.26872;stroke-linecap:round;stroke-linejoin:round;stroke-miterlimit:10;stroke-dasharray:none;stroke-opacity:1"
                   id="path1088" />
              </g>
              <g
                 id="g1090"
                 transform="matrix(1,0,0,-1,-7.7446952,749.71958)">
                <path
                   d="m 398.461,-632.688 c -1.273,1.809 -4.574,7.293 -5.711,8.004"
                   style="fill:none;stroke:#000000;stroke-width:1.26872;stroke-linecap:round;stroke-linejoin:round;stroke-miterlimit:10;stroke-dasharray:none;stroke-opacity:1"
                   id="path1092" />
              </g>
              <g
                 id="g1094"
                 transform="matrix(1,0,0,-1,-7.7446952,749.71958)">
                <path
                   d="m 392.473,-624.586 c -0.7,-0.539 -3.953,-0.719 -1.407,-2.676 1.551,-1.961 3.539,-5.89 4.512,-6.683"
                   style="fill:none;stroke:#000000;stroke-width:1.26872;stroke-linecap:round;stroke-linejoin:round;stroke-miterlimit:10;stroke-dasharray:none;stroke-opacity:1"
                   id="path1096" />
              </g>
              <g
                 id="g1098"
                 transform="matrix(1,0,0,-1,-7.7446952,749.71958)">
                <path
                   d="m 296.32,-592.492 c 2.133,-0.492 7.457,2.64 8.539,2.367"
                   style="fill:none;stroke:#000000;stroke-width:1.26872;stroke-linecap:round;stroke-linejoin:round;stroke-miterlimit:10;stroke-dasharray:none;stroke-opacity:1"
                   id="path1100" />
              </g>
              <g
                 id="g1102"
                 transform="matrix(1,0,0,-1,-7.7446952,749.71958)">
                <path
                   d="m 305.195,-590.715 c 0.125,0.61 2.477,-3.293 1.723,-2.394"
                   style="fill:none;stroke:#000000;stroke-width:1.26872;stroke-linecap:round;stroke-linejoin:round;stroke-miterlimit:10;stroke-dasharray:none;stroke-opacity:1"
                   id="path1104" />
              </g>
              <g
                 id="g1106"
                 transform="matrix(1,0,0,-1,-7.7446952,749.71958)">
                <path
                   d="m 306.918,-593.109 c -1.5,-1.184 -6.125,-4.375 -7.816,-4.395 l -0.223,0.192"
                   style="fill:none;stroke:#000000;stroke-width:1.26872;stroke-linecap:round;stroke-linejoin:round;stroke-miterlimit:10;stroke-dasharray:none;stroke-opacity:1"
                   id="path1108" />
              </g>
            </g>
          </g>
        </g>
      </g>
    </g>
  </g>
</svg>
