<?xml version="1.0" encoding="UTF-8" standalone="no"?>
<!-- Created by Ashley Blewer - This work is licensed under a Creative Commons Attribution 4.0 International License -->

<svg
   width="544"
   height="480"
   viewBox="0 0 143.93334 127"
   version="1.1"
   id="svg2490"
   inkscape:version="1.2.2 (1:1.2.2+202212051552+b0a8486541)"
   sodipodi:docname="1955-todd-ao-3.svg"
   xmlns:inkscape="http://www.inkscape.org/namespaces/inkscape"
   xmlns:sodipodi="http://sodipodi.sourceforge.net/DTD/sodipodi-0.dtd"
   xmlns="http://www.w3.org/2000/svg"
   xmlns:svg="http://www.w3.org/2000/svg">
  <sodipodi:namedview
     id="namedview2492"
     pagecolor="#ffffff"
     bordercolor="#666666"
     borderopacity="1.0"
     inkscape:pageshadow="2"
     inkscape:pageopacity="0.0"
     inkscape:pagecheckerboard="0"
     inkscape:document-units="mm"
     showgrid="false"
     units="px"
     inkscape:zoom="0.90583674"
     inkscape:cx="337.25724"
     inkscape:cy="255.56482"
     inkscape:window-width="1846"
     inkscape:window-height="1136"
     inkscape:window-x="0"
     inkscape:window-y="0"
     inkscape:window-maximized="1"
     inkscape:current-layer="g6395"
     inkscape:showpageshadow="2"
     inkscape:deskcolor="#d1d1d1" />
  <defs
     id="defs2487" />
  <g
     inkscape:label="Layer 1"
     inkscape:groupmode="layer"
     id="layer1">
    <g
       id="g4731"
       transform="matrix(0.32961229,0,0,0.32903008,-241.78905,1.73126)"
       style="stroke-width:2.68698">
      <g
         id="g104528"
         transform="matrix(1,0,0,-1,0,792)"
         style="stroke-width:2.68698">
        <g
           id="g104530"
           style="stroke-width:2.68698" />
      </g>
      <g
         id="g104996"
         transform="matrix(1,0,0,-1,0,792)"
         style="stroke-width:2.68698">
        <g
           id="g104998"
           style="stroke-width:2.68698" />
      </g>
      <g
         id="g28852"
         transform="matrix(1.070281,0,0,1.0721748,779.91249,-443.13657)">
        <g
           id="g6718"
           transform="matrix(1.117886,0,0,1.117886,-549.13111,-491.62865)">
          <g
             id="g6395"
             transform="matrix(0.53415107,0,0,0.53415109,441.93669,415.26868)">
            <g
               id="g186595"
               transform="matrix(2.1736268,0,0,2.1736268,65.728922,-284.34411)">
              <g
                 id="g186695">
                <g
                   id="g1174"
                   transform="matrix(1,0,0,-1,-615.78345,408.58228)">
                  <path
                     d="m 738.199,-166.414 c 1.418,28.562 -0.613,59.035 0.301,87.613 l -0.211,-0.125"
                     style="fill:none;stroke:#000000;stroke-width:2.61674;stroke-linecap:round;stroke-linejoin:round;stroke-miterlimit:10;stroke-dasharray:none;stroke-opacity:1"
                     id="path1176" />
                </g>
                <g
                   id="g1178"
                   transform="matrix(1,0,0,-1,-615.78345,408.58228)">
                  <path
                     d="m 738.5,-78.801 29.598,-2.527"
                     style="fill:none;stroke:#000000;stroke-width:2.61674;stroke-linecap:round;stroke-linejoin:round;stroke-miterlimit:10;stroke-dasharray:none;stroke-opacity:1"
                     id="path1180" />
                </g>
                <g
                   id="g1182"
                   transform="matrix(1,0,0,-1,-615.78345,408.58228)">
                  <path
                     d="m 768.098,-81.328 c 2.527,-26.914 1.867,-56.84 1.769,-83.777"
                     style="fill:none;stroke:#000000;stroke-width:2.61674;stroke-linecap:round;stroke-linejoin:round;stroke-miterlimit:10;stroke-dasharray:none;stroke-opacity:1"
                     id="path1184" />
                </g>
                <g
                   id="g1186"
                   transform="matrix(1,0,0,-1,-615.78345,408.58228)">
                  <path
                     d="m 736.891,-121.641 c -7.012,-1.648 1.367,-17.289 1.57,-21.988"
                     style="fill:none;stroke:#000000;stroke-width:2.61674;stroke-linecap:round;stroke-linejoin:round;stroke-miterlimit:10;stroke-dasharray:none;stroke-opacity:1"
                     id="path1188" />
                </g>
                <g
                   id="g1190"
                   transform="matrix(1,0,0,-1,-615.78345,408.58228)">
                  <path
                     d="m 757.312,-163.961 c 17.743,1.039 35.028,-6.691 43.536,-22.727 16.636,-19.328 17.941,-51.925 -2.262,-69.281 -14.496,-9.547 -31.063,-20.129 -49.152,-19.133 -27.907,2.618 -51.25,28.969 -48.563,57.27 -1.18,25.918 20.344,47.855 44.563,53.285 3.906,0.762 7.918,0.985 11.878,0.586 z"
                     style="fill:none;stroke:#000000;stroke-width:2.61674;stroke-linecap:round;stroke-linejoin:round;stroke-miterlimit:10;stroke-dasharray:none;stroke-opacity:1"
                     id="path1192" />
                </g>
                <g
                   id="g1194"
                   transform="matrix(1,0,0,-1,-615.78345,408.58228)">
                  <path
                     d="m 632.301,-173.215 c 6.472,-0.902 15.34,0.285 21.836,0.442"
                     style="fill:none;stroke:#000000;stroke-width:2.61674;stroke-linecap:round;stroke-linejoin:round;stroke-miterlimit:10;stroke-dasharray:none;stroke-opacity:1"
                     id="path1196" />
                </g>
                <g
                   id="g1198"
                   transform="matrix(1,0,0,-1,-615.78345,408.58228)">
                  <path
                     d="m 654.977,-172.586 c -0.266,-13.559 -3.457,-27.062 -1.563,-40.684"
                     style="fill:none;stroke:#000000;stroke-width:2.61674;stroke-linecap:round;stroke-linejoin:round;stroke-miterlimit:10;stroke-dasharray:none;stroke-opacity:1"
                     id="path1200" />
                </g>
                <g
                   id="g1202"
                   transform="matrix(1,0,0,-1,-615.78345,408.58228)">
                  <path
                     d="m 653.414,-213.27 c -11.773,3.036 -23.59,3.747 -20.023,20.145 0.293,6.652 -1.739,13.332 -1.09,19.91"
                     style="fill:none;stroke:#000000;stroke-width:2.61674;stroke-linecap:round;stroke-linejoin:round;stroke-miterlimit:10;stroke-dasharray:none;stroke-opacity:1"
                     id="path1204" />
                </g>
                <g
                   id="g1206"
                   transform="matrix(1,0,0,-1,-615.78345,408.58228)">
                  <path
                     d="m 634.141,-208.297 c -10.852,-14.328 10.902,-26.637 24.039,-17.277"
                     style="fill:none;stroke:#000000;stroke-width:2.61674;stroke-linecap:round;stroke-linejoin:round;stroke-miterlimit:10;stroke-dasharray:none;stroke-opacity:1"
                     id="path1208" />
                </g>
                <g
                   id="g1210"
                   transform="matrix(1,0,0,-1,-615.78345,408.58228)">
                  <path
                     d="m 657.27,-172.535 c -5.063,23.949 33.402,28.43 26.066,0.629"
                     style="fill:none;stroke:#000000;stroke-width:2.61674;stroke-linecap:round;stroke-linejoin:round;stroke-miterlimit:10;stroke-dasharray:none;stroke-opacity:1"
                     id="path1212" />
                </g>
                <g
                   id="g1214"
                   transform="matrix(1,0,0,-1,-615.78345,408.58228)">
                  <path
                     d="m 657.27,-172.535 c 11.429,-6.328 20.882,0.949 32.097,0.902"
                     style="fill:none;stroke:#000000;stroke-width:2.61674;stroke-linecap:round;stroke-linejoin:round;stroke-miterlimit:10;stroke-dasharray:none;stroke-opacity:1"
                     id="path1216" />
                </g>
                <g
                   id="g1218"
                   transform="matrix(1,0,0,-1,-615.78345,408.58228)">
                  <path
                     d="m 668.277,-153.316 c -3.66,5.371 11.328,9.656 7.512,1.855"
                     style="fill:none;stroke:#000000;stroke-width:2.61674;stroke-linecap:round;stroke-linejoin:round;stroke-miterlimit:10;stroke-dasharray:none;stroke-opacity:1"
                     id="path1220" />
                </g>
                <g
                   id="g1222"
                   transform="matrix(1,0,0,-1,-615.78345,408.58228)">
                  <path
                     d="m 690.203,-171.633 c 1.305,-11.316 2.512,-23.949 2.395,-34.617"
                     style="fill:none;stroke:#000000;stroke-width:2.61674;stroke-linecap:round;stroke-linejoin:round;stroke-miterlimit:10;stroke-dasharray:none;stroke-opacity:1"
                     id="path1224" />
                </g>
                <g
                   id="g1226"
                   transform="matrix(1,0,0,-1,-615.78345,408.58228)">
                  <path
                     d="m 691.277,-204.703 c 8.594,-1.758 0.395,-22.633 0.36,-6.168 l 0.082,3.961 -0.442,2.207"
                     style="fill:none;stroke:#000000;stroke-width:2.61674;stroke-linecap:round;stroke-linejoin:round;stroke-miterlimit:10;stroke-dasharray:none;stroke-opacity:1"
                     id="path1228" />
                </g>
                <g
                   id="g1230"
                   transform="matrix(1,0,0,-1,-615.78345,408.58228)">
                  <path
                     d="m 690.695,-216.34 c -1.992,-5.39 -24.773,-6.101 -30.086,-6.492"
                     style="fill:none;stroke:#000000;stroke-width:2.61674;stroke-linecap:round;stroke-linejoin:round;stroke-miterlimit:10;stroke-dasharray:none;stroke-opacity:1"
                     id="path1232" />
                </g>
                <g
                   id="g1234"
                   transform="matrix(1,0,0,-1,-615.78345,408.58228)">
                  <path
                     d="m 694.137,-218.645 c 0.449,-4.949 6.664,-9.41 7.683,-14.105"
                     style="fill:none;stroke:#000000;stroke-width:2.61674;stroke-linecap:round;stroke-linejoin:round;stroke-miterlimit:10;stroke-dasharray:none;stroke-opacity:1"
                     id="path1236" />
                </g>
                <g
                   id="g1238"
                   transform="matrix(1,0,0,-1,-615.78345,408.58228)">
                  <path
                     d="m 706.484,-246.805 c -8.457,8.149 -8.074,-13.527 -22.824,-4.261"
                     style="fill:none;stroke:#000000;stroke-width:2.61674;stroke-linecap:round;stroke-linejoin:round;stroke-miterlimit:10;stroke-dasharray:none;stroke-opacity:1"
                     id="path1240" />
                </g>
                <g
                   id="g1242"
                   transform="matrix(1,0,0,-1,-615.78345,408.58228)">
                  <path
                     d="m 684.215,-251.414 c 1.504,6.957 -7.715,30.781 7.383,23.199"
                     style="fill:none;stroke:#000000;stroke-width:2.61674;stroke-linecap:round;stroke-linejoin:round;stroke-miterlimit:10;stroke-dasharray:none;stroke-opacity:1"
                     id="path1244" />
                </g>
                <g
                   id="g1246"
                   transform="matrix(1,0,0,-1,-615.78345,408.58228)">
                  <path
                     d="m 682.617,-244.609 c -10.98,-4.453 -8.25,9.613 0.918,6.234"
                     style="fill:none;stroke:#000000;stroke-width:2.61674;stroke-linecap:round;stroke-linejoin:round;stroke-miterlimit:10;stroke-dasharray:none;stroke-opacity:1"
                     id="path1248" />
                </g>
                <g
                   id="g1250"
                   transform="matrix(1,0,0,-1,-615.78345,408.58228)">
                  <path
                     d="m 674.48,-240.109 c -13.105,-12.684 -22.32,10.257 -13.871,17.277"
                     style="fill:none;stroke:#000000;stroke-width:2.61674;stroke-linecap:round;stroke-linejoin:round;stroke-miterlimit:10;stroke-dasharray:none;stroke-opacity:1"
                     id="path1252" />
                </g>
                <g
                   id="g1254"
                   transform="matrix(1,0,0,-1,-615.78345,408.58228)">
                  <path
                     d="m 664.363,-229.078 c 5.289,-2.594 24.117,-2.344 8.383,-6.219 -2.207,0.176 -4.457,-1.738 -6.707,-0.914"
                     style="fill:none;stroke:#000000;stroke-width:2.61674;stroke-linecap:round;stroke-linejoin:round;stroke-miterlimit:10;stroke-dasharray:none;stroke-opacity:1"
                     id="path1256" />
                </g>
                <g
                   id="g1258"
                   transform="matrix(1,0,0,-1,-615.78345,408.58228)">
                  <path
                     d="m 662.922,-168.902 c 4.355,0.804 8.855,0.472 13.234,0.066"
                     style="fill:none;stroke:#000000;stroke-width:2.61674;stroke-linecap:round;stroke-linejoin:round;stroke-miterlimit:10;stroke-dasharray:none;stroke-opacity:1"
                     id="path1260" />
                </g>
                <g
                   id="g1262"
                   transform="matrix(1,0,0,-1,-615.78345,408.58228)">
                  <path
                     d="m 663.609,-156.734 c 5.364,-0.766 10.914,-1.055 16.246,0.109"
                     style="fill:none;stroke:#000000;stroke-width:2.61674;stroke-linecap:round;stroke-linejoin:round;stroke-miterlimit:10;stroke-dasharray:none;stroke-opacity:1"
                     id="path1264" />
                </g>
                <g
                   id="g1266"
                   transform="matrix(1,0,0,-1,-615.78345,408.58228)">
                  <path
                     d="m 773.57,-174.371 c 22.707,-7.488 34.344,-35.055 26.989,-57.188 -4.348,-25.714 -35.004,-40.578 -58.766,-32.55 -18.363,6.293 -31.871,25.254 -30.066,44.863 -0.559,17.129 7.07,36.133 23.808,43.051 11.82,5.554 25.695,5.715 38.035,1.824 z"
                     style="fill:none;stroke:#000000;stroke-width:2.61674;stroke-linecap:round;stroke-linejoin:round;stroke-miterlimit:10;stroke-dasharray:none;stroke-opacity:1"
                     id="path1268" />
                </g>
                <g
                   id="g1270"
                   transform="matrix(1,0,0,-1,-615.78345,408.58228)">
                  <path
                     d="m 758.684,-204.73 c 31.222,-6.106 -5.149,-45.985 -16.836,-19.641 -3.532,10.582 5.195,20.976 16.836,19.641"
                     style="fill:none;stroke:#000000;stroke-width:2.61674;stroke-linecap:round;stroke-linejoin:round;stroke-miterlimit:10;stroke-dasharray:none;stroke-opacity:1"
                     id="path1272" />
                </g>
                <g
                   id="g1274"
                   transform="matrix(1,0,0,-1,-615.78345,408.58228)">
                  <path
                     d="m 774.836,-189.695 c 23.652,-13 17.644,-53.758 -8.109,-63.082 -20.282,-11.02 -51.821,7.238 -46.262,31.675 1.723,18.442 15.137,36.125 34.402,37.817 7.141,0.875 14.836,-2.473 19.969,-6.41"
                     style="fill:none;stroke:#000000;stroke-width:2.61674;stroke-linecap:round;stroke-linejoin:round;stroke-miterlimit:10;stroke-dasharray:none;stroke-opacity:1"
                     id="path1276" />
                </g>
                <g
                   id="g1278"
                   transform="matrix(1,0,0,-1,-615.78345,408.58228)">
                  <path
                     d="m 709.996,-252.723 c -6.863,-11.41 -17.266,-27.586 -26.324,-37.386"
                     style="fill:none;stroke:#000000;stroke-width:2.61674;stroke-linecap:round;stroke-linejoin:round;stroke-miterlimit:10;stroke-dasharray:none;stroke-opacity:1"
                     id="path1280" />
                </g>
                <g
                   id="g1282"
                   transform="matrix(1,0,0,-1,-615.78345,408.58228)">
                  <path
                     d="m 683.672,-290.109 c -0.434,-4.543 0.621,-9.079 0.195,-13.621"
                     style="fill:none;stroke:#000000;stroke-width:2.61674;stroke-linecap:round;stroke-linejoin:round;stroke-miterlimit:10;stroke-dasharray:none;stroke-opacity:1"
                     id="path1284" />
                </g>
                <g
                   id="g1286"
                   transform="matrix(1,0,0,-1,-615.78345,408.58228)">
                  <path
                     d="m 786.68,-263.918 c 3.988,-7 8.371,-13.742 12.261,-20.812"
                     style="fill:none;stroke:#000000;stroke-width:2.61674;stroke-linecap:round;stroke-linejoin:round;stroke-miterlimit:10;stroke-dasharray:none;stroke-opacity:1"
                     id="path1288" />
                </g>
                <g
                   id="g1290"
                   transform="matrix(1,0,0,-1,-615.78345,408.58228)">
                  <path
                     d="m 799.82,-286.719 c 0.403,-4.801 0.934,-9.676 0.356,-14.484"
                     style="fill:none;stroke:#000000;stroke-width:2.61674;stroke-linecap:round;stroke-linejoin:round;stroke-miterlimit:10;stroke-dasharray:none;stroke-opacity:1"
                     id="path1292" />
                </g>
                <g
                   id="g1294"
                   transform="matrix(1,0,0,-1,-615.78345,408.58228)">
                  <path
                     d="m 684.418,-303.422 c 36.004,1.508 72.004,4.375 108.055,1.965 2.367,-0.09 4.73,-0.18 7.093,-0.27"
                     style="fill:none;stroke:#000000;stroke-width:2.61674;stroke-linecap:round;stroke-linejoin:round;stroke-miterlimit:10;stroke-dasharray:none;stroke-opacity:1"
                     id="path1296" />
                </g>
                <g
                   id="g1298"
                   transform="matrix(1,0,0,-1,-615.78345,408.58228)">
                  <path
                     d="m 683.672,-290.109 c 36.215,5.488 79.625,6.914 116.148,3.39 l -0.879,1.989"
                     style="fill:none;stroke:#000000;stroke-width:2.61674;stroke-linecap:round;stroke-linejoin:round;stroke-miterlimit:10;stroke-dasharray:none;stroke-opacity:1"
                     id="path1300" />
                </g>
                <g
                   id="g1302"
                   transform="matrix(1,0,0,-1,-615.78345,408.58228)">
                  <path
                     d="m 791.453,-262.316 c 6.406,-5.989 16.57,0.632 9.957,8.097"
                     style="fill:none;stroke:#000000;stroke-width:2.61674;stroke-linecap:round;stroke-linejoin:round;stroke-miterlimit:10;stroke-dasharray:none;stroke-opacity:1"
                     id="path1304" />
                </g>
                <g
                   id="g1306"
                   transform="matrix(1,0,0,-1,-615.78345,408.58228)">
                  <path
                     d="m 812.324,-205.496 c 7.203,3.695 7.891,-29.477 0.957,-26.883"
                     style="fill:none;stroke:#000000;stroke-width:2.61674;stroke-linecap:round;stroke-linejoin:round;stroke-miterlimit:10;stroke-dasharray:none;stroke-opacity:1"
                     id="path1308" />
                </g>
                <g
                   id="g1310"
                   transform="matrix(1,0,0,-1,-615.78345,408.58228)">
                  <path
                     d="m 819.32,-208.84 c 6.266,17.36 27.789,11.891 42.625,12.11 6.457,-0.286 15.395,-0.805 20.239,-1.723"
                     style="fill:none;stroke:#000000;stroke-width:2.61674;stroke-linecap:round;stroke-linejoin:round;stroke-miterlimit:10;stroke-dasharray:none;stroke-opacity:1"
                     id="path1312" />
                </g>
                <g
                   id="g1314"
                   transform="matrix(1,0,0,-1,-615.78345,408.58228)">
                  <path
                     d="m 884.918,-202.059 c 0.676,-8.277 3.805,-17.367 1.777,-25.093"
                     style="fill:none;stroke:#000000;stroke-width:2.61674;stroke-linecap:round;stroke-linejoin:round;stroke-miterlimit:10;stroke-dasharray:none;stroke-opacity:1"
                     id="path1316" />
                </g>
                <g
                   id="g1318"
                   transform="matrix(1,0,0,-1,-615.78345,408.58228)">
                  <path
                     d="m 885.488,-227.93 c -10.82,-0.32 -22.488,-3.222 -32.961,-1.742"
                     style="fill:none;stroke:#000000;stroke-width:2.61674;stroke-linecap:round;stroke-linejoin:round;stroke-miterlimit:10;stroke-dasharray:none;stroke-opacity:1"
                     id="path1320" />
                </g>
                <g
                   id="g1322"
                   transform="matrix(1,0,0,-1,-615.78345,408.58228)">
                  <path
                     d="m 852.527,-229.672 c -0.222,6.899 -3.832,16.524 -4.07,22.168"
                     style="fill:none;stroke:#000000;stroke-width:2.61674;stroke-linecap:round;stroke-linejoin:round;stroke-miterlimit:10;stroke-dasharray:none;stroke-opacity:1"
                     id="path1324" />
                </g>
                <g
                   id="g1326"
                   transform="matrix(1,0,0,-1,-615.78345,408.58228)">
                  <path
                     d="m 831.547,-206.973 c 5.605,-0.312 11.422,0.895 16.91,-0.531"
                     style="fill:none;stroke:#000000;stroke-width:2.61674;stroke-linecap:round;stroke-linejoin:round;stroke-miterlimit:10;stroke-dasharray:none;stroke-opacity:1"
                     id="path1328" />
                </g>
                <g
                   id="g1330"
                   transform="matrix(1,0,0,-1,-615.78345,408.58228)">
                  <path
                     d="m 831.547,-206.973 c -1.973,-4.195 -8.098,-14.367 -12.828,-13.793"
                     style="fill:none;stroke:#000000;stroke-width:2.61674;stroke-linecap:round;stroke-linejoin:round;stroke-miterlimit:10;stroke-dasharray:none;stroke-opacity:1"
                     id="path1332" />
                </g>
                <g
                   id="g1334"
                   transform="matrix(1,0,0,-1,-615.78345,408.58228)">
                  <path
                     d="m 848.457,-207.504 c 11.125,0.176 25.5,-0.777 36.609,-2.512"
                     style="fill:none;stroke:#000000;stroke-width:2.61674;stroke-linecap:round;stroke-linejoin:round;stroke-miterlimit:10;stroke-dasharray:none;stroke-opacity:1"
                     id="path1336" />
                </g>
                <g
                   id="g1338"
                   transform="matrix(1,0,0,-1,-615.78345,408.58228)">
                  <path
                     d="m 861.496,-211.848 c -15.844,-20.507 31.606,-21.175 15.746,-1.332 -1.586,1.785 -4.043,3.239 -6.515,2.797"
                     style="fill:none;stroke:#000000;stroke-width:2.61674;stroke-linecap:round;stroke-linejoin:round;stroke-miterlimit:10;stroke-dasharray:none;stroke-opacity:1"
                     id="path1340" />
                </g>
                <g
                   id="g1342"
                   transform="matrix(1,0,0,-1,-615.78345,408.58228)">
                  <path
                     d="m 760.418,-194.207 c 14.805,0.496 23.898,-16.848 19.301,-29.824 -3.711,-13.778 -20.254,-23.043 -33.805,-18.5 -16.476,6.593 -19.965,34.289 -3.547,42.961 5.66,2.484 9.778,6.644 18.051,5.363 z"
                     style="fill:none;stroke:#000000;stroke-width:1.26872;stroke-linecap:round;stroke-linejoin:round;stroke-miterlimit:10;stroke-dasharray:none;stroke-opacity:1"
                     id="path1344" />
                </g>
                <g
                   id="g1346"
                   transform="matrix(1,0,0,-1,-615.78345,408.58228)">
                  <path
                     d="m 706.27,-261.57 c 2.421,0.394 4.984,1.691 7.453,0.73"
                     style="fill:none;stroke:#000000;stroke-width:1.26872;stroke-linecap:round;stroke-linejoin:round;stroke-miterlimit:10;stroke-dasharray:none;stroke-opacity:1"
                     id="path1348" />
                </g>
                <g
                   id="g1350"
                   transform="matrix(1,0,0,-1,-615.78345,408.58228)">
                  <path
                     d="m 699.688,-271.984 c 10.269,1.089 23,-0.071 31.73,-0.446"
                     style="fill:none;stroke:#000000;stroke-width:1.26872;stroke-linecap:round;stroke-linejoin:round;stroke-miterlimit:10;stroke-dasharray:none;stroke-opacity:1"
                     id="path1352" />
                </g>
                <g
                   id="g1354"
                   transform="matrix(1,0,0,-1,-615.78345,408.58228)">
                  <path
                     d="m 722.48,-272.996 c 2.075,-5.422 8.563,-3.242 12.375,-1.445"
                     style="fill:none;stroke:#000000;stroke-width:1.26872;stroke-linecap:round;stroke-linejoin:round;stroke-miterlimit:10;stroke-dasharray:none;stroke-opacity:1"
                     id="path1356" />
                </g>
                <g
                   id="g1358"
                   transform="matrix(1,0,0,-1,-615.78345,408.58228)">
                  <path
                     d="m 772.559,-271.012 c 6.703,-2.343 21.605,-3.367 5.332,-3.511 l -0.739,0.898"
                     style="fill:none;stroke:#000000;stroke-width:1.26872;stroke-linecap:round;stroke-linejoin:round;stroke-miterlimit:10;stroke-dasharray:none;stroke-opacity:1"
                     id="path1360" />
                </g>
                <g
                   id="g1362"
                   transform="matrix(1,0,0,-1,-615.78345,408.58228)">
                  <path
                     d="m 861.781,-218.27 c 9.262,14.079 17.082,-5.3 9.012,-1.867 -4.703,-0.754 5.16,0.25 2.383,0.953"
                     style="fill:none;stroke:#000000;stroke-width:1.26872;stroke-linecap:round;stroke-linejoin:round;stroke-miterlimit:10;stroke-dasharray:none;stroke-opacity:1"
                     id="path1364" />
                </g>
                <g
                   id="g1690"
                   transform="matrix(1,0,0,-1,-621.78345,413.08228)">
                  <path
                     d="m 887.727,-194.41 c 0.98,-0.324 0.179,-4.942 1.367,-3.82"
                     style="fill:none;stroke:#000000;stroke-width:1.26872;stroke-linecap:round;stroke-linejoin:round;stroke-miterlimit:10;stroke-dasharray:none;stroke-opacity:1"
                     id="path1692" />
                </g>
              </g>
            </g>
          </g>
        </g>
      </g>
    </g>
  </g>
</svg>
