<?xml version="1.0" encoding="UTF-8" standalone="no"?>
<!-- Created by Ashley Blewer - This work is licensed under a Creative Commons Attribution 4.0 International License -->

<svg
   width="544"
   height="480"
   viewBox="0 0 143.93334 127"
   version="1.1"
   id="svg2490"
   inkscape:version="1.2.2 (1:1.2.2+202212051552+b0a8486541)"
   sodipodi:docname="1955-todd-ao-2.svg"
   xmlns:inkscape="http://www.inkscape.org/namespaces/inkscape"
   xmlns:sodipodi="http://sodipodi.sourceforge.net/DTD/sodipodi-0.dtd"
   xmlns="http://www.w3.org/2000/svg"
   xmlns:svg="http://www.w3.org/2000/svg">
  <sodipodi:namedview
     id="namedview2492"
     pagecolor="#ffffff"
     bordercolor="#666666"
     borderopacity="1.0"
     inkscape:pageshadow="2"
     inkscape:pageopacity="0.0"
     inkscape:pagecheckerboard="0"
     inkscape:document-units="mm"
     showgrid="false"
     units="px"
     inkscape:zoom="0.90583674"
     inkscape:cx="337.25724"
     inkscape:cy="255.56482"
     inkscape:window-width="1846"
     inkscape:window-height="1136"
     inkscape:window-x="0"
     inkscape:window-y="0"
     inkscape:window-maximized="1"
     inkscape:current-layer="g6395"
     inkscape:showpageshadow="2"
     inkscape:deskcolor="#d1d1d1" />
  <defs
     id="defs2487" />
  <g
     inkscape:label="Layer 1"
     inkscape:groupmode="layer"
     id="layer1">
    <g
       id="g4731"
       transform="matrix(0.32961229,0,0,0.32903008,-241.78905,1.73126)"
       style="stroke-width:2.68698">
      <g
         id="g104528"
         transform="matrix(1,0,0,-1,0,792)"
         style="stroke-width:2.68698">
        <g
           id="g104530"
           style="stroke-width:2.68698" />
      </g>
      <g
         id="g104996"
         transform="matrix(1,0,0,-1,0,792)"
         style="stroke-width:2.68698">
        <g
           id="g104998"
           style="stroke-width:2.68698" />
      </g>
      <g
         id="g28852"
         transform="matrix(1.070281,0,0,1.0721748,779.91249,-443.13657)">
        <g
           id="g6718"
           transform="matrix(1.117886,0,0,1.117886,-549.13111,-491.62865)">
          <g
             id="g6395"
             transform="matrix(0.53415107,0,0,0.53415109,441.93669,415.26868)">
            <g
               id="g5266"
               transform="matrix(2.7479026,0,0,2.7479026,-1441.7,-2635.0385)">
              <g
                 id="g1110"
                 transform="matrix(1,0,0,-1,-7.7446952,749.71958)">
                <path
                   d="m 703.305,-486.887 c 15.175,-15.547 10.406,-38.863 11.062,-58.465 0.028,-32.914 -1.121,-66.003 -7.219,-98.39 -0.253,-13.293 -4.562,-40.645 -22.918,-35.196 -14.335,10.942 -14.824,30.821 -17.082,47.211 -5.359,42.528 -6.851,88.692 15.528,127 4.609,7.215 10.429,19.2 20.629,17.84 z"
                   style="fill:none;stroke:#000000;stroke-width:2.61674;stroke-linecap:round;stroke-linejoin:round;stroke-miterlimit:10;stroke-dasharray:none;stroke-opacity:1"
                   id="path1112" />
              </g>
              <g
                 id="g1114"
                 transform="matrix(1,0,0,-1,-7.7446952,749.71958)">
                <path
                   d="m 703.305,-486.887 c -18.235,1.75 -42.395,5.715 -60.68,3.43 0.539,0.066 1.016,0.019 -0.133,0.035"
                   style="fill:none;stroke:#000000;stroke-width:2.61674;stroke-linecap:round;stroke-linejoin:round;stroke-miterlimit:10;stroke-dasharray:none;stroke-opacity:1"
                   id="path1116" />
              </g>
              <g
                 id="g1118"
                 transform="matrix(1,0,0,-1,-7.7446952,749.71958)">
                <path
                   d="m 641.34,-484.062 c -33.906,-30.84 -42.285,-79.817 -40.238,-123.645 0.671,-21.238 7.734,-43.113 22.191,-58.984"
                   style="fill:none;stroke:#000000;stroke-width:2.61674;stroke-linecap:round;stroke-linejoin:round;stroke-miterlimit:10;stroke-dasharray:none;stroke-opacity:1"
                   id="path1120" />
              </g>
              <g
                 id="g1122"
                 transform="matrix(1,0,0,-1,-7.7446952,749.71958)">
                <path
                   d="m 623.852,-668.316 c 9.332,-4.731 20,-6.832 30.113,-8.809 12.855,-1.016 25.637,-3.801 38.586,-2.949 2.14,1.332 4.219,2.789 6.508,3.875"
                   style="fill:none;stroke:#000000;stroke-width:2.61674;stroke-linecap:round;stroke-linejoin:round;stroke-miterlimit:10;stroke-dasharray:none;stroke-opacity:1"
                   id="path1124" />
              </g>
              <g
                 id="g1126"
                 transform="matrix(1,0,0,-1,-7.7446952,749.71958)">
                <path
                   d="m 713.109,-506.348 c 4.457,-0.418 13.7,-1.476 16.871,-2.867"
                   style="fill:none;stroke:#000000;stroke-width:2.61674;stroke-linecap:round;stroke-linejoin:round;stroke-miterlimit:10;stroke-dasharray:none;stroke-opacity:1"
                   id="path1128" />
              </g>
              <g
                 id="g1130"
                 transform="matrix(1,0,0,-1,-7.7446952,749.71958)">
                <path
                   d="m 729.98,-509.215 c 4.426,-11.773 6.09,-28.933 7.485,-41.637 0.008,-11.675 -1.199,-21.39 -2.801,-32.609 -2.246,-11.922 -5.391,-26.297 -8.094,-36.336 0.504,-3.687 -2.078,-8.219 -2.648,-11.59 0.062,-4.254 0.805,-0.683 -1.422,-4.551 -5.691,-7.89 -10.172,-16.39 -15.352,-23.609 -2.921,-5.34 -7.234,-12.805 -8.089,-16.652 -0.84,-0.086 -6.067,-4.262 -6.508,-3.875"
                   style="fill:none;stroke:#000000;stroke-width:2.61674;stroke-linecap:round;stroke-linejoin:round;stroke-miterlimit:10;stroke-dasharray:none;stroke-opacity:1"
                   id="path1132" />
              </g>
              <g
                 id="g1134"
                 transform="matrix(1,0,0,-1,-7.7446952,749.71958)">
                <path
                   d="m 728.527,-508.195 c -15.312,-19.438 -14.312,-45.739 -12.199,-69.055 1.309,-13.715 1.504,-27.664 3.586,-41.223 1.305,-3.797 0.52,-11.058 4.008,-12.914"
                   style="fill:none;stroke:#000000;stroke-width:2.61674;stroke-linecap:round;stroke-linejoin:round;stroke-miterlimit:10;stroke-dasharray:none;stroke-opacity:1"
                   id="path1136" />
              </g>
              <g
                 id="g1138"
                 transform="matrix(1,0,0,-1,-7.7446952,749.71958)">
                <path
                   d="m 728.035,-551.234 c 2.664,-11.25 -0.961,-27.504 -1.703,-38.938 0.008,-0.715 -0.414,-0.355 -0.102,0.352"
                   style="fill:none;stroke:#000000;stroke-width:1.26872;stroke-linecap:round;stroke-linejoin:round;stroke-miterlimit:10;stroke-dasharray:none;stroke-opacity:1"
                   id="path1140" />
              </g>
              <g
                 id="g1142"
                 transform="matrix(1,0,0,-1,-7.7446952,749.71958)">
                <path
                   d="m 728.035,-551.234 c -1.394,-9.887 -4.621,-27.446 -1.703,-38.938"
                   style="fill:none;stroke:#000000;stroke-width:1.26872;stroke-linecap:round;stroke-linejoin:round;stroke-miterlimit:10;stroke-dasharray:none;stroke-opacity:1"
                   id="path1144" />
              </g>
              <g
                 id="g1146"
                 transform="matrix(1,0,0,-1,-7.7446952,749.71958)">
                <path
                   d="m 705.414,-546.582 c 5.813,-12.539 9.477,-26.836 8.524,-40.168 -0.606,-8.594 -9.504,-24.781 -11.352,-31.039 -6.961,-1.344 -11.41,8.215 -12.473,14.437 -2.5,9.844 0.625,20.989 0.543,31.118 1.977,8.535 5.489,18.144 9.149,24.675 1.422,1.497 4.113,1.969 5.609,0.977"
                   style="fill:none;stroke:#000000;stroke-width:1.26872;stroke-linecap:round;stroke-linejoin:round;stroke-miterlimit:10;stroke-dasharray:none;stroke-opacity:1"
                   id="path1148" />
              </g>
              <g
                 id="g1150"
                 transform="matrix(1,0,0,-1,-7.7446952,749.71958)">
                <path
                   d="m 701.648,-550.246 c 0.336,-6.801 -1.25,-17.203 -1.832,-24.289 -0.16,-1.934 -4.582,5.484 -6.91,6.621"
                   style="fill:none;stroke:#000000;stroke-width:1.26872;stroke-linecap:round;stroke-linejoin:round;stroke-miterlimit:10;stroke-dasharray:none;stroke-opacity:1"
                   id="path1152" />
              </g>
              <g
                 id="g1154"
                 transform="matrix(1,0,0,-1,-7.7446952,749.71958)">
                <path
                   d="m 692.234,-575.945 c 3.352,-4.145 8.024,-8.617 5.973,-14.789 -1.16,-7.313 -3.355,-16.289 -3.672,-22.735 -0.699,-0.054 0.879,0.051 0.395,0.34"
                   style="fill:none;stroke:#000000;stroke-width:1.26872;stroke-linecap:round;stroke-linejoin:round;stroke-miterlimit:10;stroke-dasharray:none;stroke-opacity:1"
                   id="path1156" />
              </g>
              <g
                 id="g1158"
                 transform="matrix(1,0,0,-1,-7.7446952,749.71958)">
                <path
                   d="m 698.59,-616.238 c -0.02,-1.203 0.719,6.808 1.422,8.504 1.207,5.714 2.148,13.64 4.336,17.25 2.515,1.41 3.941,-4.547 5.023,-5.543"
                   style="fill:none;stroke:#000000;stroke-width:1.26872;stroke-linecap:round;stroke-linejoin:round;stroke-miterlimit:10;stroke-dasharray:none;stroke-opacity:1"
                   id="path1160" />
              </g>
              <g
                 id="g1162"
                 transform="matrix(1,0,0,-1,-7.7446952,749.71958)">
                <path
                   d="m 710.59,-589.172 c -2.199,3.02 -5.551,5.313 -3.457,8.66 -1.297,3.676 -2.891,2.071 -1.848,6.309 0.227,7.109 2.051,16.383 0.582,22.265"
                   style="fill:none;stroke:#000000;stroke-width:1.26872;stroke-linecap:round;stroke-linejoin:round;stroke-miterlimit:10;stroke-dasharray:none;stroke-opacity:1"
                   id="path1164" />
              </g>
              <g
                 id="g1166"
                 transform="matrix(1,0,0,-1,-7.7446952,749.71958)">
                <path
                   d="m 702.414,-575.812 c -2.574,-2.188 -0.215,-11.165 1.594,-12.02 -2.399,1.312 -1.59,5.016 -2.305,7.156"
                   style="fill:none;stroke:#000000;stroke-width:1.26872;stroke-linecap:round;stroke-linejoin:round;stroke-miterlimit:10;stroke-dasharray:none;stroke-opacity:1"
                   id="path1168" />
              </g>
              <g
                 id="g1170"
                 transform="matrix(1,0,0,-1,-7.7446952,749.71958)">
                <path
                   d="m 696.711,-493.32 c 0.48,-3.657 -0.199,-12.602 0.152,-15.106 -1.258,0.614 -4.758,2.438 -5.418,2.125"
                   style="fill:none;stroke:#000000;stroke-width:1.26872;stroke-linecap:round;stroke-linejoin:round;stroke-miterlimit:10;stroke-dasharray:none;stroke-opacity:1"
                   id="path1172" />
              </g>
            </g>
          </g>
        </g>
      </g>
    </g>
  </g>
</svg>
