<?xml version="1.0" encoding="UTF-8" standalone="no"?>
<!-- Created by Ashley Blewer - This work is licensed under a Creative Commons Attribution 4.0 International License -->

<svg
   width="544"
   height="480"
   viewBox="0 0 143.93334 127"
   version="1.1"
   id="svg2490"
   inkscape:version="1.2.2 (1:1.2.2+202212051552+b0a8486541)"
   sodipodi:docname="1957-technirama-5.svg"
   xmlns:inkscape="http://www.inkscape.org/namespaces/inkscape"
   xmlns:sodipodi="http://sodipodi.sourceforge.net/DTD/sodipodi-0.dtd"
   xmlns="http://www.w3.org/2000/svg"
   xmlns:svg="http://www.w3.org/2000/svg">
  <sodipodi:namedview
     id="namedview2492"
     pagecolor="#ffffff"
     bordercolor="#666666"
     borderopacity="1.0"
     inkscape:pageshadow="2"
     inkscape:pageopacity="0.0"
     inkscape:pagecheckerboard="0"
     inkscape:document-units="mm"
     showgrid="false"
     units="px"
     inkscape:zoom="0.90583674"
     inkscape:cx="337.25724"
     inkscape:cy="255.56482"
     inkscape:window-width="1846"
     inkscape:window-height="1136"
     inkscape:window-x="0"
     inkscape:window-y="0"
     inkscape:window-maximized="1"
     inkscape:current-layer="g6395"
     inkscape:showpageshadow="2"
     inkscape:deskcolor="#d1d1d1" />
  <defs
     id="defs2487" />
  <g
     inkscape:label="Layer 1"
     inkscape:groupmode="layer"
     id="layer1">
    <g
       id="g4731"
       transform="matrix(0.32961229,0,0,0.32903008,-241.78905,1.73126)"
       style="stroke-width:2.68698">
      <g
         id="g104528"
         transform="matrix(1,0,0,-1,0,792)"
         style="stroke-width:2.68698">
        <g
           id="g104530"
           style="stroke-width:2.68698" />
      </g>
      <g
         id="g104996"
         transform="matrix(1,0,0,-1,0,792)"
         style="stroke-width:2.68698">
        <g
           id="g104998"
           style="stroke-width:2.68698" />
      </g>
      <g
         id="g28852"
         transform="matrix(1.070281,0,0,1.0721748,779.91249,-443.13657)">
        <g
           id="g6718"
           transform="matrix(1.117886,0,0,1.117886,-549.13111,-491.62865)">
          <g
             id="g6395"
             transform="matrix(0.53415107,0,0,0.53415109,441.93669,415.26868)">
            <g
               id="g17657"
               transform="matrix(3.6773277,0,0,3.6773277,-1499.4853,-3853.5585)">
              <g
                 id="g1771"
                 transform="matrix(1,0,0,-1,-63.579399,749.24773)">
                <path
                   d="m 490.336,-509.5 c 52.707,-1.195 105.527,3.43 158.129,-1.527"
                   style="fill:none;stroke:#000000;stroke-width:2.61674;stroke-linecap:round;stroke-linejoin:round;stroke-miterlimit:10;stroke-dasharray:none;stroke-opacity:1"
                   id="path1773" />
              </g>
              <g
                 id="g1775"
                 transform="matrix(1,0,0,-1,-63.579399,749.24773)">
                <path
                   d="m 489.773,-511.145 c 0.215,0.016 0.329,-3.019 0.149,-3.125"
                   style="fill:none;stroke:#000000;stroke-width:2.61674;stroke-linecap:round;stroke-linejoin:round;stroke-miterlimit:10;stroke-dasharray:none;stroke-opacity:1"
                   id="path1777" />
              </g>
              <g
                 id="g1779"
                 transform="matrix(1,0,0,-1,-63.579399,749.24773)">
                <path
                   d="m 491.555,-515.801 c -1.282,0.664 2.484,-0.82 1.754,-2.281 0.871,-1.43 0.925,-3.172 0.226,-4.238 -0.859,-0.418 -2.031,-1.485 -2.66,-0.875"
                   style="fill:none;stroke:#000000;stroke-width:2.61674;stroke-linecap:round;stroke-linejoin:round;stroke-miterlimit:10;stroke-dasharray:none;stroke-opacity:1"
                   id="path1781" />
              </g>
              <g
                 id="g1783"
                 transform="matrix(1,0,0,-1,-63.579399,749.24773)">
                <path
                   d="m 490.02,-524.73 c 0.019,-1.586 0.921,-3.836 0.851,-5.883 0.234,-2.59 0.078,-5.055 0.457,-7.481 0.027,-2.687 0.043,-5.465 0.41,-8.004 0.246,-3.429 0.153,-6.859 0.231,-10.121 -0.223,-2.711 -0.508,-5.699 -0.215,-8.418 -0.547,-4.336 -0.242,-8.48 -0.816,-12.804 -0.032,-2.426 -0.313,-4.926 -0.481,-7.371 -0.078,-2.813 -0.176,-5.727 -0.496,-8.637 -0.004,-2.004 -0.356,-3.34 -0.406,-5.403 0.203,-0.351 -0.094,-1.589 -0.055,-1.273"
                   style="fill:none;stroke:#000000;stroke-width:2.61674;stroke-linecap:round;stroke-linejoin:round;stroke-miterlimit:10;stroke-dasharray:none;stroke-opacity:1"
                   id="path1785" />
              </g>
              <g
                 id="g1787"
                 transform="matrix(1,0,0,-1,-63.579399,749.24773)">
                <path
                   d="m 489.809,-600.434 c 0.097,-0.449 2.238,-1.488 2.781,-2.851 0.746,-1.586 1.476,-3.27 1.039,-4.899 -0.926,-0.656 -2.391,-2.187 -3.18,-1.707"
                   style="fill:none;stroke:#000000;stroke-width:2.61674;stroke-linecap:round;stroke-linejoin:round;stroke-miterlimit:10;stroke-dasharray:none;stroke-opacity:1"
                   id="path1789" />
              </g>
              <g
                 id="g1791"
                 transform="matrix(1,0,0,-1,-63.579399,749.24773)">
                <path
                   d="m 489.824,-611.801 c 0.953,-0.082 -0.051,-2.953 0.473,-3.711 l -0.109,0.039 0.109,0.239"
                   style="fill:none;stroke:#000000;stroke-width:2.61674;stroke-linecap:round;stroke-linejoin:round;stroke-miterlimit:10;stroke-dasharray:none;stroke-opacity:1"
                   id="path1793" />
              </g>
              <g
                 id="g1795"
                 transform="matrix(1,0,0,-1,-63.579399,749.24773)">
                <path
                   d="m 490.664,-616.48 c 52.652,2.976 105.434,-1.125 158.082,2.097"
                   style="fill:none;stroke:#000000;stroke-width:2.61674;stroke-linecap:round;stroke-linejoin:round;stroke-miterlimit:10;stroke-dasharray:none;stroke-opacity:1"
                   id="path1797" />
              </g>
              <g
                 id="g1799"
                 transform="matrix(1,0,0,-1,-63.579399,749.24773)">
                <path
                   d="m 648.086,-613.305 c -0.145,0.207 0.937,3.063 -0.063,2.871 -3.062,0.481 -2.312,3.793 -3,5.965 0.442,1.176 2.114,3.024 3.571,2.617"
                   style="fill:none;stroke:#000000;stroke-width:2.61674;stroke-linecap:round;stroke-linejoin:round;stroke-miterlimit:10;stroke-dasharray:none;stroke-opacity:1"
                   id="path1801" />
              </g>
              <g
                 id="g1803"
                 transform="matrix(1,0,0,-1,-63.579399,749.24773)">
                <path
                   d="m 648.285,-600.246 c 0.094,0.273 0.512,3.152 0.633,4.484 0.109,3.84 -0.766,7.782 -0.742,11.633 -0.231,3.918 0.109,7.617 0.015,11.531 0.18,3.43 0.938,6.868 0.688,10.278 -0.02,5.05 0.082,9.914 0.094,14.976 0.39,3.34 0.687,6.461 0.261,9.801 0.266,3.699 -0.207,7.395 0.5,11.152 -0.125,1.059 0.075,2.567 -0.062,2.379 -2.227,-0.336 -4.192,1.641 -3.383,3.621 -0.176,1.664 -0.094,3.043 0.492,4.02 0.93,0.644 3.285,0.754 2.059,3.051 0.023,0.199 -0.012,0.586 -0.024,0.734"
                   style="fill:none;stroke:#000000;stroke-width:2.61674;stroke-linecap:round;stroke-linejoin:round;stroke-miterlimit:10;stroke-dasharray:none;stroke-opacity:1"
                   id="path1805" />
              </g>
              <g
                 id="g1807"
                 transform="matrix(1,0,0,-1,-63.579399,749.24773)">
                <path
                   d="m 490.672,-525.281 c 4.492,1.176 9.183,0.164 13.742,0.843 1.875,-0.195 4.621,0.68 5.074,-1.019 0.883,-1.352 0.434,-3.059 0.856,-4.988 -0.207,-2.274 0.023,-4.43 0.019,-6.825 0.129,-2.453 -0.465,-5.003 0.164,-7.554 -0.25,-2.164 0.368,-4.418 0.368,-6.614 0.445,-2.46 0.359,-5.406 0.48,-8.054 0.273,-1.953 -0.016,-3.793 0,-5.852 0.035,-3.168 -0.234,-5.82 0.133,-9.062 0.012,-2.629 0.25,-5.203 0.476,-7.949 -0.289,-2.938 -0.109,-5.594 -0.304,-8.559 -0.196,-1.371 -0.418,-3.637 -0.785,-4.481 -0.141,-1.488 -0.801,-2.917 -0.833,-4.07 -0.75,-1.68 -3.371,-0.777 -5.304,-0.969 -4.328,-0.386 -8.59,0 -12.922,0.032 0.586,0.093 -1.02,0.015 -0.68,0.476"
                   style="fill:none;stroke:#000000;stroke-width:2.61674;stroke-linecap:round;stroke-linejoin:round;stroke-miterlimit:10;stroke-dasharray:none;stroke-opacity:1"
                   id="path1809" />
              </g>
              <g
                 id="g1811"
                 transform="matrix(1,0,0,-1,-63.579399,749.24773)">
                <path
                   d="m 646.84,-523.824 c -0.531,0.035 -3.797,0.515 -5.383,0.211 -3.695,-0.16 -7.449,0.074 -11.086,-0.5 -1.719,-0.766 -1.531,-2.196 -2.148,-3.719 -0.61,-2.418 -0.493,-4.898 -0.743,-7.516 0.063,-1.578 -0.621,-4.066 -0.23,-5.507 0.211,-3.727 -0.523,-7.407 -0.129,-11.04 -0.121,-3.238 0.145,-6.527 -0.121,-9.828 0.445,-4.129 -0.027,-8.101 -0.016,-12.269 -0.062,-3.176 -0.351,-6.5 -0.117,-9.758 -0.152,-3.352 -0.176,-6.688 -0.316,-9.902 -0.043,-1.129 0.07,-2.52 0.094,-3.446 0.464,-1.484 0.585,-2.293 1.527,-3.375 1.957,-1.539 5.363,-0.359 7.914,-0.859 4.269,-0.258 8.602,0.016 12.91,0.023 l -0.055,0.137"
                   style="fill:none;stroke:#000000;stroke-width:2.61674;stroke-linecap:round;stroke-linejoin:round;stroke-miterlimit:10;stroke-dasharray:none;stroke-opacity:1"
                   id="path1813" />
              </g>
              <g
                 id="g1815"
                 transform="matrix(1,0,0,-1,-63.579399,749.24773)">
                <path
                   d="m 511.844,-530.246 c -0.035,1.23 0,2.836 0.258,4.363 1.785,2.496 5.488,1.531 8.277,1.856 8.191,-1.082 16.449,-2.313 24.723,-1.282 10.652,1.051 21.375,1.149 32.054,0.68 11.707,-0.254 23.406,-0.75 35.117,-0.785 3.547,-0.004 7.758,0.961 10.801,-0.34 0.602,0.316 0.442,-0.293 0.192,-0.078"
                   style="fill:none;stroke:#000000;stroke-width:2.61674;stroke-linecap:round;stroke-linejoin:round;stroke-miterlimit:10;stroke-dasharray:none;stroke-opacity:1"
                   id="path1817" />
              </g>
              <g
                 id="g1819"
                 transform="matrix(1,0,0,-1,-63.579399,749.24773)">
                <path
                   d="m 624.172,-525.953 c 1.855,-0.859 1.254,-3.399 1.926,-5.199 -0.055,-4.141 -0.395,-8.618 0.14,-12.91 0.34,-3.325 0.395,-6.583 0.641,-10.051 -0.152,-4.239 0.164,-8.696 -0.609,-12.887 0.253,-3.562 0.164,-7.387 0.21,-10.969 -0.042,-3.441 -0.269,-6.98 -0.05,-10.418 -0.184,-2.031 -0.457,-4.547 -0.188,-6.519 -0.125,-0.719 -0.484,-2.606 -0.566,-3.496 -1.266,-1.024 -0.653,-1.739 -1.766,-2.192 -1.031,-0.211 -2.219,-0.23 -3.16,0.059"
                   style="fill:none;stroke:#000000;stroke-width:2.61674;stroke-linecap:round;stroke-linejoin:round;stroke-miterlimit:10;stroke-dasharray:none;stroke-opacity:1"
                   id="path1821" />
              </g>
              <g
                 id="g1823"
                 transform="matrix(1,0,0,-1,-63.579399,749.24773)">
                <path
                   d="m 512.008,-596.004 c 0.105,-9.867 12.219,-4.109 18.394,-5.914 20.141,0.301 40.278,1.41 60.43,1.168 10.824,0.305 21.656,-0.008 32.469,-0.621"
                   style="fill:none;stroke:#000000;stroke-width:2.61674;stroke-linecap:round;stroke-linejoin:round;stroke-miterlimit:10;stroke-dasharray:none;stroke-opacity:1"
                   id="path1825" />
              </g>
              <g
                 id="g1827"
                 transform="matrix(1,0,0,-1,-63.579399,749.24773)">
                <path
                   d="m 505.961,-522.547 c -1.652,-0.074 -3.922,-0.051 -3.844,1.906 -0.289,1.696 -1.16,4.254 0.149,5.434 2.046,1.367 5.675,0.309 4.972,-2.258 -0.023,-1.39 0.016,-3.047 -0.164,-4.301 -0.34,-0.824 -2.804,-1.433 -4.097,-0.714"
                   style="fill:none;stroke:#000000;stroke-width:1.26872;stroke-linecap:round;stroke-linejoin:round;stroke-miterlimit:10;stroke-dasharray:none;stroke-opacity:1"
                   id="path1829" />
              </g>
              <g
                 id="g1831"
                 transform="matrix(1,0,0,-1,-63.579399,749.24773)">
                <path
                   d="m 520.98,-522.676 c 0.028,-0.828 -4.507,-1.012 -4.578,-0.015 -0.535,2.082 -1.265,4.89 -0.277,6.816 0.516,2.035 3.625,0.504 5.184,0.117 0.699,-1.398 0.113,-3.281 0.586,-4.605 0.753,-2.176 -1.989,-3.61 -4.106,-3.032"
                   style="fill:none;stroke:#000000;stroke-width:1.26872;stroke-linecap:round;stroke-linejoin:round;stroke-miterlimit:10;stroke-dasharray:none;stroke-opacity:1"
                   id="path1833" />
              </g>
              <g
                 id="g1835"
                 transform="matrix(1,0,0,-1,-63.579399,749.24773)">
                <path
                   d="m 534.703,-523.383 c 0.918,0.172 -4.031,-0.316 -4.176,1.227 -0.101,1.761 -0.004,3.648 -0.496,5.609 -0.113,2.449 2.657,1.977 4.449,1.313 2.016,-0.047 0.915,-2.801 1.661,-4.176 -0.039,-1.785 0.629,-3.985 -1.692,-4.281 -0.328,-0.196 -0.933,-0.356 -1.113,0.125"
                   style="fill:none;stroke:#000000;stroke-width:1.26872;stroke-linecap:round;stroke-linejoin:round;stroke-miterlimit:10;stroke-dasharray:none;stroke-opacity:1"
                   id="path1837" />
              </g>
              <g
                 id="g1839"
                 transform="matrix(1,0,0,-1,-63.579399,749.24773)">
                <path
                   d="m 548.625,-523.805 c -1.855,0.012 -3.555,1.032 -3.383,2.77 -0.086,1.219 -0.965,3.285 -0.148,4.426 0.965,2.023 5.468,1.285 5.664,-1.289 0.738,-1.676 0.984,-3.864 -0.168,-5.317 -1.141,-0.488 -2.742,-1.039 -3.832,-0.246"
                   style="fill:none;stroke:#000000;stroke-width:1.26872;stroke-linecap:round;stroke-linejoin:round;stroke-miterlimit:10;stroke-dasharray:none;stroke-opacity:1"
                   id="path1841" />
              </g>
              <g
                 id="g1843"
                 transform="matrix(1,0,0,-1,-63.579399,749.24773)">
                <path
                   d="m 561.891,-522.324 c -1.258,-1.016 -2.395,1.426 -2.539,2.824 0.488,1.547 0.019,3.668 1.226,4.516 1.777,0.316 4.461,0.101 4.293,-2.004 -0.008,-1.547 0.414,-3.864 -0.215,-4.84 -0.594,-1.199 -3.449,-1.641 -4.453,-0.535"
                   style="fill:none;stroke:#000000;stroke-width:1.26872;stroke-linecap:round;stroke-linejoin:round;stroke-miterlimit:10;stroke-dasharray:none;stroke-opacity:1"
                   id="path1845" />
              </g>
              <g
                 id="g1847"
                 transform="matrix(1,0,0,-1,-63.579399,749.24773)">
                <path
                   d="m 576.902,-523.25 c 0.036,-0.602 -3.636,-0.363 -3.023,1.211 -0.453,1.684 -0.438,3.488 -0.305,5.133 0.668,1.285 4.641,1.406 4.977,-0.801 0.199,-1.645 1.027,-3.816 0.492,-5.309 -0.992,-0.55 -3.078,-0.976 -3.922,-0.461"
                   style="fill:none;stroke:#000000;stroke-width:1.26872;stroke-linecap:round;stroke-linejoin:round;stroke-miterlimit:10;stroke-dasharray:none;stroke-opacity:1"
                   id="path1849" />
              </g>
              <g
                 id="g1851"
                 transform="matrix(1,0,0,-1,-63.579399,749.24773)">
                <path
                   d="m 589.883,-523.359 c -1.735,0.105 -2.363,1.285 -2.422,3.05 0.215,1.489 0.738,3.469 0.969,4.329 0.672,0.98 3.777,0.871 4.547,-0.434 0.613,-2.203 1.648,-5.004 0.097,-6.914 -1.359,-0.527 -3.836,-1.16 -4.402,-0.352"
                   style="fill:none;stroke:#000000;stroke-width:1.26872;stroke-linecap:round;stroke-linejoin:round;stroke-miterlimit:10;stroke-dasharray:none;stroke-opacity:1"
                   id="path1853" />
              </g>
              <g
                 id="g1855"
                 transform="matrix(1,0,0,-1,-63.579399,749.24773)">
                <path
                   d="m 603,-523.383 c -0.047,-0.336 -0.57,2.817 -0.246,3.985 0.078,1.468 0.41,2.718 0.398,3.898 1.434,-0.133 5.344,1.02 5.231,-1.75 -0.09,-1.348 -0.363,-3.684 -0.625,-4.82 -1.09,-1.782 -4.043,-0.868 -5.41,-0.059"
                   style="fill:none;stroke:#000000;stroke-width:1.26872;stroke-linecap:round;stroke-linejoin:round;stroke-miterlimit:10;stroke-dasharray:none;stroke-opacity:1"
                   id="path1857" />
              </g>
              <g
                 id="g1859"
                 transform="matrix(1,0,0,-1,-63.579399,749.24773)">
                <path
                   d="m 617.656,-521.469 c 0.059,0.141 0.063,3.145 0.168,4.278 0.434,1.722 0.145,3.242 2.567,2.371 2.214,0.14 1.718,-2.262 2.148,-3.41 0.359,-1.672 0.086,-3.012 -0.762,-4.114 -0.425,-1.484 -4.734,-0.414 -4.047,1.25 l 0.114,0.141"
                   style="fill:none;stroke:#000000;stroke-width:1.26872;stroke-linecap:round;stroke-linejoin:round;stroke-miterlimit:10;stroke-dasharray:none;stroke-opacity:1"
                   id="path1861" />
              </g>
              <g
                 id="g1863"
                 transform="matrix(1,0,0,-1,-63.579399,749.24773)">
                <path
                   d="m 632.07,-521.957 c 0.055,0.828 -0.359,3.336 0.039,4.867 0.418,2.031 4.028,2.641 4.782,0.692 1.347,-1.04 0.441,-3.528 0.609,-4.907 -0.316,-2.144 -3.297,-2.699 -5.082,-1.511"
                   style="fill:none;stroke:#000000;stroke-width:1.26872;stroke-linecap:round;stroke-linejoin:round;stroke-miterlimit:10;stroke-dasharray:none;stroke-opacity:1"
                   id="path1865" />
              </g>
              <g
                 id="g1867"
                 transform="matrix(1,0,0,-1,-63.579399,749.24773)">
                <path
                   d="m 648.488,-515.984 c -0.679,0.035 -2.371,-0.563 -2.304,-1.735 -0.098,-1.312 -0.938,-3.574 -0.586,-4.84 0.5,-1.246 0.031,-1.195 1.39,-1.164"
                   style="fill:none;stroke:#000000;stroke-width:1.26872;stroke-linecap:round;stroke-linejoin:round;stroke-miterlimit:10;stroke-dasharray:none;stroke-opacity:1"
                   id="path1869" />
              </g>
              <g
                 id="g1871"
                 transform="matrix(1,0,0,-1,-63.579399,749.24773)">
                <path
                   d="m 637.086,-603.27 c 0.254,-1.785 0.105,-3.718 -0.027,-5.57 0.261,-1.656 -2.895,-1.707 -4.309,-1.312 -1.492,0.632 -0.594,2.945 -0.961,4.207 -0.422,1.793 -0.484,4.156 2.059,3.972 0.972,0.047 1.898,-0.39 2.847,-0.547"
                   style="fill:none;stroke:#000000;stroke-width:1.26872;stroke-linecap:round;stroke-linejoin:round;stroke-miterlimit:10;stroke-dasharray:none;stroke-opacity:1"
                   id="path1873" />
              </g>
              <g
                 id="g1875"
                 transform="matrix(1,0,0,-1,-63.579399,749.24773)">
                <path
                   d="m 618.086,-602.875 c 1.695,-0.195 5.105,0.883 4.633,-1.711 0.676,-1.609 0.113,-3.312 0.234,-4.965 -0.691,-1.531 -4.351,-1.719 -5.769,-0.949 -0.735,2.055 -0.594,3.926 -0.266,6.25 -0.117,2.164 2.172,1.512 3.789,1.359"
                   style="fill:none;stroke:#000000;stroke-width:1.26872;stroke-linecap:round;stroke-linejoin:round;stroke-miterlimit:10;stroke-dasharray:none;stroke-opacity:1"
                   id="path1877" />
              </g>
              <g
                 id="g1879"
                 transform="matrix(1,0,0,-1,-63.579399,749.24773)">
                <path
                   d="m 602.551,-602.922 c 1.707,0.695 5.398,1.828 6.082,-0.73 0.418,-1.868 0.711,-4.145 0.222,-5.93 -1.253,-1.883 -5.835,-2.059 -5.773,0.883 -0.383,2.035 -0.418,4.547 0.527,6.371 0.289,0.055 0.575,0.109 0.864,0.164"
                   style="fill:none;stroke:#000000;stroke-width:1.26872;stroke-linecap:round;stroke-linejoin:round;stroke-miterlimit:10;stroke-dasharray:none;stroke-opacity:1"
                   id="path1881" />
              </g>
              <g
                 id="g1883"
                 transform="matrix(1,0,0,-1,-63.579399,749.24773)">
                <path
                   d="m 588.461,-603.297 c 0.418,1.547 3.809,1.527 5.363,0.625 0.942,-1.937 -0.234,-4.504 -0.222,-6.535 -0.293,-2.231 -3.801,-1.301 -5.192,-0.703 -0.742,1.488 -0.816,3.851 -0.293,5.668 0.172,0.871 1.684,1.98 2.762,1.957"
                   style="fill:none;stroke:#000000;stroke-width:1.26872;stroke-linecap:round;stroke-linejoin:round;stroke-miterlimit:10;stroke-dasharray:none;stroke-opacity:1"
                   id="path1885" />
              </g>
              <g
                 id="g1887"
                 transform="matrix(1,0,0,-1,-63.579399,749.24773)">
                <path
                   d="m 573.559,-603.16 c 0.644,0.078 4.003,0.836 5.347,-0.297 1.836,-1.609 1.082,-4.902 0.321,-6.93 -2.094,-1.004 -5.407,-0.656 -5.633,2.071 -0.633,1.628 -1.696,5.32 1.148,5.711 l 0.125,-0.125"
                   style="fill:none;stroke:#000000;stroke-width:1.26872;stroke-linecap:round;stroke-linejoin:round;stroke-miterlimit:10;stroke-dasharray:none;stroke-opacity:1"
                   id="path1889" />
              </g>
              <g
                 id="g1891"
                 transform="matrix(1,0,0,-1,-63.579399,749.24773)">
                <path
                   d="m 559.242,-603.059 c 0.5,1.457 4.66,2.016 5.203,-0.246 0.688,-2.043 0.762,-4.629 -0.32,-6.543 -1.336,-0.855 -5.023,-0.582 -4.66,1.809 -0.766,1.617 -0.543,4.016 0.289,5.133 l -0.016,0.312"
                   style="fill:none;stroke:#000000;stroke-width:1.26872;stroke-linecap:round;stroke-linejoin:round;stroke-miterlimit:10;stroke-dasharray:none;stroke-opacity:1"
                   id="path1893" />
              </g>
              <g
                 id="g1895"
                 transform="matrix(1,0,0,-1,-63.579399,749.24773)">
                <path
                   d="m 544.211,-603.074 c 1.746,1.465 4.613,2.039 6.574,0.496 0.75,-1.621 0.09,-4.121 -0.051,-5.957 -0.679,-1.977 -4.203,-1.957 -5.129,-1.086 -0.421,1.844 -1.082,3.754 0.075,5.601 0.508,0.254 -0.137,0.637 -0.012,1.211"
                   style="fill:none;stroke:#000000;stroke-width:1.26872;stroke-linecap:round;stroke-linejoin:round;stroke-miterlimit:10;stroke-dasharray:none;stroke-opacity:1"
                   id="path1897" />
              </g>
              <g
                 id="g1899"
                 transform="matrix(1,0,0,-1,-63.579399,749.24773)">
                <path
                   d="m 529.594,-603.473 c 1.66,0.227 3.472,2.231 5.511,0.586 1.918,-0.672 1.786,-2.879 1.379,-4.73 -0.043,-1.492 -0.441,-3.524 -2.675,-3.059 -2.102,-0.535 -3.047,1.227 -3.262,2.723 -1.004,1.488 -0.344,3.535 0.789,4.023"
                   style="fill:none;stroke:#000000;stroke-width:1.26872;stroke-linecap:round;stroke-linejoin:round;stroke-miterlimit:10;stroke-dasharray:none;stroke-opacity:1"
                   id="path1901" />
              </g>
              <g
                 id="g1903"
                 transform="matrix(1,0,0,-1,-63.579399,749.24773)">
                <path
                   d="m 515.973,-604.395 c 0.105,1.036 3.461,2.387 4.656,1.032 1.469,-1.242 0.418,-3.696 0.609,-5.524 -0.031,-2.574 -4.535,-2.336 -4.922,0.375 -0.418,1.45 0.586,3.645 1,4.75 0.192,0.192 -0.082,0.547 -0.082,0.551"
                   style="fill:none;stroke:#000000;stroke-width:1.26872;stroke-linecap:round;stroke-linejoin:round;stroke-miterlimit:10;stroke-dasharray:none;stroke-opacity:1"
                   id="path1905" />
              </g>
              <g
                 id="g1907"
                 transform="matrix(1,0,0,-1,-63.579399,749.24773)">
                <path
                   d="m 502.457,-603.801 c 0.648,1.055 3.652,2.903 4.813,1.496 1.535,-1.675 0.722,-3.582 0.89,-5.726 0.035,-1.41 -1.418,-2.453 -3.082,-2.645 -3.133,-0.554 -2.953,3.438 -2.191,5.488 -0.41,0.637 -0.449,1.907 -0.278,1.821"
                   style="fill:none;stroke:#000000;stroke-width:1.26872;stroke-linecap:round;stroke-linejoin:round;stroke-miterlimit:10;stroke-dasharray:none;stroke-opacity:1"
                   id="path1909" />
              </g>
            </g>
          </g>
        </g>
      </g>
    </g>
  </g>
</svg>
