<?xml version="1.0" encoding="UTF-8" standalone="no"?>
<!-- Created by Ashley Blewer - This work is licensed under a Creative Commons Attribution 4.0 International License -->

<svg
   width="544"
   height="480"
   viewBox="0 0 143.93334 127"
   version="1.1"
   id="svg2490"
   inkscape:version="1.2.2 (1:1.2.2+202212051552+b0a8486541)"
   sodipodi:docname="1965-single-8-4.svg"
   xmlns:inkscape="http://www.inkscape.org/namespaces/inkscape"
   xmlns:sodipodi="http://sodipodi.sourceforge.net/DTD/sodipodi-0.dtd"
   xmlns="http://www.w3.org/2000/svg"
   xmlns:svg="http://www.w3.org/2000/svg">
  <sodipodi:namedview
     id="namedview2492"
     pagecolor="#ffffff"
     bordercolor="#666666"
     borderopacity="1.0"
     inkscape:pageshadow="2"
     inkscape:pageopacity="0.0"
     inkscape:pagecheckerboard="0"
     inkscape:document-units="mm"
     showgrid="false"
     units="px"
     inkscape:zoom="0.90583674"
     inkscape:cx="337.25724"
     inkscape:cy="255.56482"
     inkscape:window-width="1846"
     inkscape:window-height="1136"
     inkscape:window-x="0"
     inkscape:window-y="0"
     inkscape:window-maximized="1"
     inkscape:current-layer="g6395"
     inkscape:showpageshadow="2"
     inkscape:deskcolor="#d1d1d1" />
  <defs
     id="defs2487" />
  <g
     inkscape:label="Layer 1"
     inkscape:groupmode="layer"
     id="layer1">
    <g
       id="g4731"
       transform="matrix(0.32961229,0,0,0.32903008,-241.78905,1.73126)"
       style="stroke-width:2.68698">
      <g
         id="g104528"
         transform="matrix(1,0,0,-1,0,792)"
         style="stroke-width:2.68698">
        <g
           id="g104530"
           style="stroke-width:2.68698" />
      </g>
      <g
         id="g104996"
         transform="matrix(1,0,0,-1,0,792)"
         style="stroke-width:2.68698">
        <g
           id="g104998"
           style="stroke-width:2.68698" />
      </g>
      <g
         id="g28852"
         transform="matrix(1.070281,0,0,1.0721748,779.91249,-443.13657)">
        <g
           id="g6718"
           transform="matrix(1.117886,0,0,1.117886,-549.13111,-491.62865)">
          <g
             id="g6395"
             transform="matrix(0.53415107,0,0,0.53415109,441.93669,415.26868)">
            <g
               id="g4762"
               transform="matrix(2.5399637,0,0,2.5399637,-1737.377,-1406.2951)">
              <g
                 id="g1466"
                 transform="matrix(1,0,0,-1,-104.71842,715.69467)">
                <path
                   d="m 836.156,-160.043 -0.031,-0.223 0.508,0.286 0.035,0.113 0.344,0.058 0.019,0.153 0.145,-0.043 0.234,0.137 0.902,0.187 -0.003,0.098 0.472,0.105 0.067,0.07 -0.078,0.04 0.164,-0.043 0.296,0.203 1.184,0.363 0.039,0.094 0.137,-0.043 0.543,0.261 1.301,0.192 0.437,0.183 0.551,0.02 -0.043,0.156 -0.027,-0.086 0.113,-0.043 0.582,0.223 0.246,-0.035 0.832,0.32 1.219,0.254 0.082,0.105 0.262,-0.078 0.339,0.137 0.09,0.149 1.477,0.171 1.492,0.426 1.391,0.231 0.144,0.136 0.449,-0.054 1.227,0.351 0.504,-0.008 0.84,0.254 2.113,0.25 0.375,-0.035 0.5,0.125 0.109,0.113 1.2,0.118 0.828,0.234 0.761,0.004 0.496,0.195 2.086,0.371 0.453,-0.011 1.348,0.41 1.18,0.113 0.379,0.094 0.015,0.082 0.832,0.125 0.204,-0.039 1.207,0.433 1.308,0.243 0.153,0.136 1.878,0.34 0.305,0.18 0.809,0.09 0.39,0.23 1.45,0.223 0.566,0.281 1,0.082 0.687,0.258 1.075,0.113 0.316,0.129 -0.031,0.07 0.898,0.141 0.157,-0.07 0.55,0.32 1.176,0.176 0.363,0.109 0.161,0.172 0.66,0.043 2.351,0.477 0.176,0.171 1.176,0.176 0.98,0.305 0.231,0.168 0.691,0.027 0.559,0.285 1.789,0.426 0.406,0.215 0.981,0.086 1.152,0.445 0.871,0.063 0.527,0.246 0.7,0.094 1.187,0.41 1.367,0.136 0.653,0.313 0.589,0.02 0.934,0.296 0.961,0.149 0.125,-0.067 1.101,0.543 1.696,0.297 0.683,0.016 0.532,0.223 1.433,0.125 0.367,0.168 1.399,0.183 0.59,0.188 1.242,0.043 1.265,0.296 0.168,-0.093 0.317,0.152 1.73,0.223 0.512,0.175 1.152,0.051 0.321,0.106 1.176,0.136 0.14,-0.07 0.977,0.168 0.222,-0.101 0.852,0.187 2.785,0.113 0.66,0.215 0.563,-0.101 1.09,0.179 2,0.043 0.175,0.117 0.543,-0.128 1.508,0.125 0.606,-0.145 0.671,0.129 0.665,-0.004 2.546,-0.125 0.489,-0.148 0.687,0.109 1.238,-0.32 0.879,-0.024 0.547,-0.246 1.594,-0.223 0.18,-0.109 1.191,-0.059 0.914,-0.32 0.973,-0.105 0.293,-0.09 -0.024,-0.094 0.786,-0.023 0.972,-0.207 0.176,-0.133 1.121,-0.129 0.945,-0.356 0.2,0.071 1.093,-0.602 2.09,-0.582 0.141,-0.203 0.711,-0.039 0.414,-0.281 1.137,-0.414 0.234,0.058 0.742,-0.472 1.418,-0.375 0.387,-0.204 0.047,-0.128 0.75,-0.2 0.148,-0.16 0.332,-0.109 0.387,-0.035 0.613,-0.274 0.188,-0.199 0.898,-0.215 1.223,-0.574 0.234,-0.195 1.41,-0.477 0.715,-0.5 1.145,-0.434 1.046,-0.542 0.184,-0.204 0.762,-0.218 0.617,-0.481 1.926,-0.996 0.691,-0.621 0.539,-0.301 0.196,-0.004 0.398,-0.484 1.441,-0.859 0.34,-0.266 0.094,-0.195 0.93,-0.582 -0.043,-0.082 0.636,-0.325 0.774,-0.703 0.238,-0.062 0.36,-0.692 0.617,-0.39 0.265,-0.278 -0.054,-0.058 1.589,-1.102 0.227,-0.406 0.207,-0.227 0.211,-0.043 0.785,-0.898 -0.062,-0.051 0.398,-0.16 -0.137,0.023 0.832,-0.746 0.27,-0.093 -0.012,-0.098 0.563,-0.731 0.617,-0.593 0.238,-0.387 0.43,-0.273 0.754,-0.86 0.043,-0.211 1.593,-1.652 0.395,-0.731 0.719,-0.859 0.781,-1.324 0.008,-0.172 0.594,-0.898 0.168,-0.575 0.535,-0.515 0.066,-0.367 0.164,-0.204 0.184,-0.554 0.187,-0.34 0.086,0.004 0.426,-1.004 0.422,-0.551 0.332,-0.867 0.09,-0.004 -0.121,-0.129 0.16,-0.281 0.211,-0.113 -0.082,-0.442 0.449,-1.004 0.082,-1.16 0.125,-0.441 0.145,-0.145 -0.079,-0.426 -0.14,-0.164 0.09,-0.051 0.171,-0.773 v -0.398 l -0.109,-0.254 0.152,-0.422 0.211,-0.164 -0.132,-0.508 -0.114,-1.602 0.106,-0.964 -0.094,-0.407 -0.184,-0.226 0.102,-0.094 0.055,-0.441 -0.008,-0.547 -0.133,-0.11 0.074,-0.289 -0.086,-0.187 0.106,-0.258 0.207,-0.055 -0.207,-0.48 0.109,-0.047 -0.215,0.019 0.219,0.106 -0.07,-0.117 -0.164,-0.028 0.133,-0.031 -0.083,-0.312 0.075,-0.118 -0.207,-0.371 -0.032,-0.152 0.079,-0.031 -0.434,-0.656 0.082,-0.075 -0.039,-0.172 -0.289,-0.078 0.254,-0.109 -0.313,-1.02 0.098,-0.449 -0.176,-0.109 0.274,0.058 -0.282,-0.097 0.301,0.09 -0.133,0.035 -0.117,-0.09 0.246,0.031 -0.176,-0.07 0.219,0.113 -0.129,0.059 -0.09,-0.082 0.11,-0.004 -0.164,-0.082 0.246,0.094 -0.344,-0.051 0.27,0.058 -0.051,-0.093 0.012,0.086 -0.153,-0.036 0.227,0.032 -0.192,0.039 -0.07,-0.285 0.07,-0.528 -0.164,-0.055 0.215,-0.066 -0.144,-0.273 -0.141,-0.024 0.246,0.012 -0.312,-0.016 0.207,-0.05 -0.067,-0.211 -0.129,-0.043 0.074,-0.11 0.145,0.004 -0.219,-0.281 0.035,-0.199 -0.226,-0.09 0.324,0.058 -0.281,-0.136 0.043,-0.203 0.117,0.003 -0.195,-0.519 0.218,-0.059 -0.304,-0.117 0.199,-0.043 0.004,0.09 -0.129,-0.078 0.191,0.012 -0.136,-0.082 0.164,0.086 -0.2,0.003 0.145,-0.019 0.125,-0.555"
                   style="fill:none;stroke:#000000;stroke-width:2.61674;stroke-linecap:round;stroke-linejoin:round;stroke-miterlimit:10;stroke-dasharray:none;stroke-opacity:1"
                   id="path1468" />
              </g>
              <g
                 id="g1470"
                 transform="matrix(1,0,0,-1,-104.71842,715.69467)">
                <path
                   d="m 988.812,-197.758 -0.05,-0.328 -0.102,0.004 0.102,0.043 -0.078,0.078 0.148,-0.016 -0.164,-0.046 0.121,-0.016 -0.047,-0.117 0.18,-0.477 0.164,-0.047 -0.027,-0.382 0.136,-0.297 0.246,-0.188 0.063,-0.144 -0.074,-0.094 0.34,-0.149 -0.036,-0.277 0.481,-0.406 0.242,-0.5 0.375,-0.434 0.426,-0.402 0.219,-0.055 0.089,-0.144 -0.093,-0.106 0.543,-0.215 0.504,-0.609 0.625,-0.531 0.757,-0.414 0.141,-0.239 0.551,-0.207 0.011,-0.148 0.985,-0.438 0.586,-0.613 1.441,-0.887 -0.074,-0.093 0.672,-0.325 1.957,-1.359 0.644,-0.238 -0.144,-0.059 0.441,-0.172 0.758,-0.836 0.762,-0.476 0.531,-0.172 -0.152,-0.078 0.535,-0.238 0.328,-0.336 1.145,-0.692 0.609,-0.586 0.82,-0.347 0.215,-0.364 0.656,-0.535 0.426,-0.117 0.574,-0.367 1.157,-1.074 0.988,-0.559 0.156,-0.277 0.645,-0.309 0.132,-0.309 0.387,-0.179 0.75,-0.629 0.969,-0.613 0.672,-0.645 0.265,-0.078 0.114,-0.25 -0.078,-0.07 0.488,-0.266 1.25,-1.328 1.359,-1.176 0.68,-0.836 0.176,-0.445 0.593,-0.379 0.2,-0.414 -0.032,-0.145 0.493,-0.367 1.156,-1.445 1.062,-0.899 0.082,-0.179 -0.113,-0.075 0.524,-0.347 0.804,-1.192 0.43,-0.41 0.441,-0.957 0.852,-1.191 0.121,-0.285 -0.094,-0.161 0.524,-0.507 0.269,-0.367 -0.043,-0.137 0.801,-0.77 0.34,-0.73 0.363,-0.492 0.281,-1.11 0.52,-0.922 -0.109,-0.136 0.148,-0.059 0.305,-0.445 0.875,-2.016 0.269,-1.465 0.524,-1.726 0.07,-0.688 0.367,-0.68 0.035,-0.32 -0.09,-0.148 0.348,-0.52 0.332,-1.051 0.516,-2.914 -0.024,-0.328 -0.109,-0.144 0.082,-0.325 0.152,-0.156 -0.113,-0.539 0.145,-0.441 0.078,-0.903 -0.09,-0.496 0.16,-0.422 -0.051,-0.367 0.156,-1.129 0.149,-0.246 0.023,-0.347 -0.117,-0.188 0.168,-0.566 0.055,-1.141 -0.09,-1.086 0.109,-0.183 -0.215,-0.469 0.047,-1.117 -0.199,-0.481 -0.012,-0.469 -0.191,-0.675 -0.168,-1.633 0.07,-0.192 -0.3,-0.539 -0.039,-0.449 0.093,-0.195 -0.273,-0.606 -0.641,-3.336 -0.551,-1.367 -0.093,-0.379 0.09,-0.207 -0.391,-0.605 -0.074,-0.719 -0.77,-2.359 -0.383,-0.727 -0.125,-0.465 -0.687,-1.195 -0.117,-0.379 0.054,-0.141 -0.336,-0.441 -0.195,-0.516 -0.578,-0.871 -0.535,-0.543 -0.149,-0.343 0.028,-0.192 -0.371,-0.437 -0.282,-0.145 -0.484,-0.805 -2.52,-2.847 -0.218,-0.27 0.027,-0.133 -0.453,-0.312 -0.41,-0.133 -0.078,-0.332 -1.043,-0.918 -0.571,-0.793 -0.519,-0.394 -0.59,-0.774 -0.645,-0.39 -0.207,-0.348 -1.894,-1.785 -0.871,-0.383 -0.391,-0.488 -0.613,-0.36 -0.074,-0.152 -1.364,-0.977 -1.285,-0.671 -1.011,-0.805 -1.157,-0.641 -0.429,-0.496 -0.957,-0.512 -0.293,-0.226 -0.028,-0.153 -0.633,-0.445 -1.269,-0.66 -0.336,-0.25 -0.02,-0.121 -1.117,-0.469 -0.742,-0.637 -1.086,-0.57 -0.519,-0.515 -0.672,-0.387 -2.559,-1.125 -1.449,-0.43 -1.039,-0.461 -3.672,-1.847 -0.184,-0.168 -1.285,-0.446 -0.527,-0.355 -1.453,-0.668 -1.348,-0.434 -1.808,-0.734 -0.403,-0.242 -1.156,-0.414 -0.703,-0.407 -1.969,-0.574 -1.73,-0.793 -3.235,-1.16 -0.711,-0.32 -0.277,-0.239 -1.336,-0.41 -0.691,-0.414 -1.274,-0.422 -1.461,-0.738 -5.195,-1.527 -3.258,-1.27 -0.82,-0.195 -0.121,-0.113 -1.371,-0.286 -0.598,-0.261 -0.805,-0.121 -2.074,-0.641 -1.184,-0.492 -0.726,-0.176 -0.442,-0.18 0.012,-0.082 -1.512,-0.301 -2.027,-0.582 -1.137,-0.468 -3.066,-1.008 -4.328,-0.969 -1.875,-0.847 -1.903,-0.629 -0.046,-0.125 -1.684,-0.524 -5.809,-1.305 -1.16,-0.058 -0.98,-0.192 -1.918,-0.046 -1.539,-0.282 -0.309,0.047 -0.922,-0.195 -1.547,-0.129 -4.8,-0.988 -1.508,-0.078 -0.317,-0.106 -0.738,0.035 -0.777,0.129 0.293,-0.074 0.258,0.062 -0.243,-0.066 -0.687,0.137 -0.074,-0.059 -1.633,0.34"
                   style="fill:none;stroke:#000000;stroke-width:2.61674;stroke-linecap:round;stroke-linejoin:round;stroke-miterlimit:10;stroke-dasharray:none;stroke-opacity:1"
                   id="path1472" />
              </g>
              <g
                 id="g1474"
                 transform="matrix(1,0,0,-1,-104.71842,715.69467)">
                <path
                   d="m 914.535,-326.738 -0.648,-0.082 -0.336,0.113 -0.52,-0.02 -4.398,0.61 -2.004,1.09 -1.02,0.293 -0.273,0.293 -0.723,0.332 -1.246,1.148 -0.594,0.356 -0.011,0.214 -0.496,0.348 -0.563,0.746 -0.031,0.164 -0.563,0.563 -0.988,1.394 -0.226,0.11 -0.114,0.316 0.067,0.121 -0.524,0.621 -0.191,0.625 -0.723,1.293 -0.191,0.188 -0.223,0.59 -0.621,1.007 -0.285,0.184 -0.172,0.465 -0.266,0.183 -0.027,0.524 -0.234,0.281 -0.313,0.176 -0.07,0.445 -0.531,0.582 -1.344,2.266 -0.328,0.484 -0.293,0.192 -0.414,0.906 -0.637,0.738 -0.137,0.641 -0.633,0.894 -1.043,2.067 -0.421,1.07 -0.262,0.242 -0.164,0.922 -0.215,0.535 -0.234,0.278 -0.383,1.925 -0.657,1.059 -0.128,0.523 -0.446,0.727 -0.172,0.519 -0.261,0.27 -0.243,0.68 0.055,0.281 -0.566,0.687 -0.028,0.579 -0.492,0.996 -0.199,0.168 -0.059,0.531 -0.187,0.308 -0.258,0.149 -0.035,0.484 -0.207,0.559 -0.191,0.316 -0.211,0.145 -0.114,0.383 0.121,0.175 -0.847,1.395 -0.02,0.383 -0.191,0.285 -0.305,0.187 0.09,0.043 0.023,0.328 -0.476,0.727 -0.102,0.258 0.071,0.137 -0.719,1.289 -0.317,0.968 -0.261,0.133 0.277,0.254 -0.281,0.246 -0.012,0.266 -1.121,2.219 -0.031,0.32 0.097,0.082 -0.207,0.215 0.164,0.027 -0.25,0.145 -0.234,0.449 0.07,0.047 -0.312,0.117 -0.313,1.207 0.239,-0.031 -0.227,-0.137 0.063,0.059 -0.125,0.007 0.222,-0.031 -0.215,0.016 0.262,-0.02 -0.187,-0.035 0.066,0.02 -0.09,0.101 -0.023,0.399"
                   style="fill:none;stroke:#000000;stroke-width:2.61674;stroke-linecap:round;stroke-linejoin:round;stroke-miterlimit:10;stroke-dasharray:none;stroke-opacity:1"
                   id="path1476" />
              </g>
              <g
                 id="g1478"
                 transform="matrix(1,0,0,-1,-104.71842,715.69467)">
                <path
                   d="m 877.457,-275.734 -0.043,-0.098 0.098,0.027 -0.129,0.043 0.195,-0.019 -0.144,0.031 0.136,-0.039 -0.097,-0.164 0.14,-1.313 -0.168,-0.468 0.039,-0.274 0.176,-0.183 -0.226,-0.707 0.058,-0.477 -0.113,-0.18 0.059,-0.441 -0.149,-0.852 0.094,-0.816 -0.074,-1.477 0.062,-0.398 0.188,-0.172 -0.301,-0.57 0.18,-0.403 -0.086,-0.082 -0.118,-0.89 0.098,-0.821 -0.172,-0.535 0.004,-1.054 0.129,-0.18 -0.129,-0.336 -0.16,-0.133 0.062,-0.207 0.243,-0.125 -0.309,-0.449 0.152,-1.356 -0.179,-0.5 0.082,-0.441 0.144,-0.176 -0.156,-0.929 0.047,-0.227 0.222,-0.117 -0.332,-0.379 0.102,-0.207 -0.113,-1.082 0.054,-0.254 0.168,-0.117 -0.121,-0.184"
                   style="fill:none;stroke:#000000;stroke-width:2.61674;stroke-linecap:round;stroke-linejoin:round;stroke-miterlimit:10;stroke-dasharray:none;stroke-opacity:1"
                   id="path1480" />
              </g>
              <g
                 id="g1482"
                 transform="matrix(1,0,0,-1,-104.71842,715.69467)">
                <path
                   d="m 876.609,-295.289 0.012,-0.133 0.113,-0.039 -0.148,-0.07 0.184,-0.09 -0.016,-0.41 0.414,-0.301 0.141,-0.578 1.082,-2.055 0.007,-0.289 0.418,-0.519 0.055,-0.481 0.277,-0.461 -0.015,-0.207 0.59,-0.742 0.172,-0.641 -0.032,-0.277 0.379,-0.883 0.449,-2.703 0.258,-0.742 0.239,-0.289 0.093,-0.875 0.196,-0.508 0.546,-0.922 -0.105,-0.176 0.523,-0.535 1.129,-2.406 0.242,-0.25 0.168,-0.449 -0.039,-0.196 1.121,-1.761 -0.085,-0.223 0.585,-0.625 0.075,-0.359 -0.098,-0.106 0.676,-1.39 0.191,-0.208 0.059,-0.527 0.207,-0.359 0.254,-0.203 0.012,-0.274 -0.102,-0.168 0.281,-0.433 -0.097,-0.137 0.613,-0.496 0.058,-0.207 -0.168,-0.121 0.231,-0.278 0.254,-0.132 0.019,-0.278 0.325,-0.656 0.39,-0.691 0.192,-0.137 0.039,-0.219 -0.082,-0.148 0.199,-0.25 0.406,-0.942 0.098,-0.336 -0.098,-0.207 0.203,-0.351 0.231,-0.117 -0.024,-0.446 0.258,-0.383 0.305,-0.836 -0.047,-0.14 0.289,-0.457 -0.109,-0.11 0.312,-0.3 -0.023,-0.168 0.226,-0.274 0.348,-0.301 0.156,-0.562 0.246,-0.152 0.043,-0.508 0.746,-1.559 -0.074,-0.195 0.348,-0.422 0.082,-0.324 0.168,-0.129 0.23,-0.688 0.262,-0.148 0.074,-0.605 0.742,-1.426 -0.043,-0.227 0.59,-0.566 0.082,-0.481 0.379,-0.453 0.109,-0.293 0.223,-0.148 0.051,-0.297 -0.078,-0.109 0.258,-0.208 0.16,-0.375 0.375,-0.398 -0.012,-0.137 0.375,-0.172 -0.102,-0.148 0.754,-0.402 -0.035,-0.2 0.449,-0.187 0.168,-0.231 -0.031,-0.097 0.867,-0.836 0.793,-0.43 0.282,-0.359 0.671,-0.348 0.11,-0.215 -0.063,-0.09 2.285,-1.16 0.215,-0.324 1.282,-0.391 0.289,-0.117 -0.012,-0.078 0.965,-0.207 0.769,-0.379 1.098,-0.246 2.418,-0.293 1.23,-0.055 0.555,0.079 1.41,-0.071 0.867,0.137 0.348,-0.07 2.254,0.199 0.902,0.23 1.184,0.118 1.543,0.382 3.574,0.496 1.75,0.364 2.649,0.765 2.289,0.434 2.808,1.285 2.106,0.699 1.117,0.266 1.242,0.547 0.184,0.168 1.019,0.297 0.531,0.343 0.903,0.258 0.945,0.496 1.824,0.532 0.5,0.253 0.77,0.153 1.265,0.652 -0.058,0.125 1.25,0.305 0.816,0.414 1.332,0.324 0.356,0.266 1.308,0.543 1.489,0.449 0.031,0.145 1.332,0.285 1.051,0.484 1.425,0.387 0.399,0.238 1.652,0.418 0.672,0.41 0.961,0.391 0.457,0.07 1.41,0.586 0.223,0.012 0.105,0.133 1.016,0.277 0.41,0.269 2.738,0.793 0.602,0.286 0.043,0.109 1.586,0.426 1.453,0.64 0.82,0.196 1,0.488 2.996,0.906 0.989,0.141 0.48,0.168 0.274,0.222 2.05,0.559 0.219,0.168 2.738,1.059 0.481,0.285 1.523,0.441 -0.054,0.09 1.402,0.305 1.559,0.531 0.914,0.195 2.597,0.938 0.457,0.043 1.336,0.461 0.45,0.05 0.089,0.184 3.321,1.129 1.64,0.734 0.375,0.317 0.637,0.101 -0.133,0.043 -0.137,-0.097 0.032,0.07 0.992,0.316 -0.305,0.215"
                   style="fill:none;stroke:#000000;stroke-width:2.61674;stroke-linecap:round;stroke-linejoin:round;stroke-miterlimit:10;stroke-dasharray:none;stroke-opacity:1"
                   id="path1484" />
              </g>
              <g
                 id="g1486"
                 transform="matrix(1,0,0,-1,-104.71842,715.69467)">
                <path
                   d="m 998.715,-318.863 -0.07,-0.094 0.156,-0.016 -0.129,0.035 1.43,0.805 0.484,0.348 0.125,0.226 1.863,0.883 0.379,0.305 0.758,0.226 1.297,0.649 1.418,0.984 1.386,0.782 1.895,1.382 1.484,0.692 0.883,0.562 1.25,0.914 0.438,0.489 1.476,0.906 1.68,1.656 1.039,1.543 0.426,0.473 0.344,0.636 1.277,1.165 0.625,0.863 0.371,0.312 1.34,1.668 0.441,0.715 0.985,1.07 0.3,0.516 0.434,0.375 0.09,0.289 1.59,2.637 0.488,1.312 0.215,0.153 1.121,3.621 0.422,0.898 -0.059,0.75 0.149,0.133 0.035,0.812 0.469,1.559 0.074,1.027 0.207,0.457 -0.055,0.418 0.535,2.094 0.047,0.988 0.141,0.379 -0.043,0.461 0.539,2.153 0.023,0.492 0.371,1.215 0.196,0.32 0.019,0.473 0.266,0.949 0.019,0.426 -0.078,0.121 0.442,1.461 0.148,0.125 -0.117,0.465 0.266,1.203 0.183,0.367 0.051,0.332 -0.07,0.129 0.472,0.859 0.032,0.684 0.113,0.101 -0.012,0.965 0.731,3.348 -0.125,0.98 0.058,0.75 -0.09,0.129 0.121,0.254 -0.117,0.285 0.328,1.043"
                   style="fill:none;stroke:#000000;stroke-width:2.61674;stroke-linecap:round;stroke-linejoin:round;stroke-miterlimit:10;stroke-dasharray:none;stroke-opacity:1"
                   id="path1488" />
              </g>
              <g
                 id="g1490"
                 transform="matrix(1,0,0,-1,-104.71842,715.69467)">
                <path
                   d="m 836.117,-159.695 -0.14,-0.012 0.105,-0.027 -0.496,-0.325 -0.141,0.059 -0.883,-0.355 -0.726,-0.493 -0.07,-0.16 0.074,-0.062 h -0.149 l -0.304,-0.203 -0.059,-0.145 -0.699,-0.336 -1.746,-1.605 -0.129,-0.161 0.055,-0.078 -0.614,-0.328 v -0.394 l -0.261,-0.395 -0.282,-0.894 0.059,-0.118 -0.254,-0.316 -0.035,-0.758 0.086,-0.156 -0.11,-0.371 -0.195,-0.18 0.27,-0.562 -0.075,-0.664 0.094,-0.727 0.313,-1.16 0.148,-0.234 -0.031,-0.727 0.289,-0.535 0.062,-0.563 0.172,-0.351 -0.101,-0.207 0.496,-0.59 0.137,-0.449 -0.075,-0.223 0.532,-0.75 0.953,-2.438 0.242,-0.347 0.117,-0.32 -0.051,-0.184 0.274,-0.41 -0.043,-0.188 0.488,-0.57 0.238,-0.445 -0.117,-0.192 0.524,-0.511 0.164,-0.536 1.015,-1.644 0.055,-0.434 1.07,-1.523 -0.136,-0.235 0.636,-0.519 0.606,-0.973 0.219,-0.179 0.429,-1.344 0.512,-0.828 0.031,-0.192 0.301,-0.371 -0.063,-0.199 0.571,-0.535 0.097,-0.508 0.457,-0.395 0.051,-0.328 0.41,-0.519 0.762,-1.321 -0.027,-0.117 0.426,-0.718 0.003,-0.325 0.157,-0.238 0.367,-0.16 -0.078,-0.176 0.133,-0.465 0.918,-2.023 0.027,-0.469 0.246,-0.363 -0.004,-0.363 0.445,-0.817 0.313,-0.168 -0.07,-0.375 0.246,-0.14 h -0.149 l -0.101,0.406"
                   style="fill:none;stroke:#000000;stroke-width:2.61674;stroke-linecap:round;stroke-linejoin:round;stroke-miterlimit:10;stroke-dasharray:none;stroke-opacity:1"
                   id="path1492" />
              </g>
              <g
                 id="g1494"
                 transform="matrix(1,0,0,-1,-104.71842,715.69467)">
                <path
                   d="m 830.363,-178.477 -0.023,-0.085 0.156,0.066 -0.144,0.109 0.066,0.047 -0.043,-0.078 0.086,0.008 -0.402,-0.106 -0.071,-0.168 -0.449,-0.113 -0.305,-0.48 -0.308,-0.223 -0.133,-0.469 0.059,-0.058 -0.204,-0.422 0.098,-0.117 -0.164,-0.184 0.242,-0.414 -0.008,-0.57 0.137,-0.469 -0.078,-0.277 0.289,-0.508 -0.117,-0.27 0.344,-0.379 0.07,-0.207 -0.059,-0.121 0.504,-0.816 0.133,-0.289 -0.047,-0.207 0.231,-0.254 0.129,-0.489 0.394,-0.3 0.043,-0.172 -0.121,-0.082 0.352,-0.262 0.14,-0.426 0.344,-0.258 0.035,-0.113 -0.141,-0.121 0.368,-0.426 0.086,0.004 -0.11,0.067 0.395,-0.114 0.398,-0.218 1.598,-0.079 0.637,-0.128 0.23,0.05 0.664,-0.082 -0.039,-0.054 0.055,0.093 0.656,-0.254 0.211,0.497"
                   style="fill:none;stroke:#000000;stroke-width:2.61674;stroke-linecap:round;stroke-linejoin:round;stroke-miterlimit:10;stroke-dasharray:none;stroke-opacity:1"
                   id="path1496" />
              </g>
              <g
                 id="g1498"
                 transform="matrix(1,0,0,-1,-104.71842,715.69467)">
                <path
                   d="m 828.621,-171.418 0.109,0.266 -0.117,0.265 -0.027,-0.191 0.133,-0.055 -0.11,-0.129 0.223,-0.804 -0.137,-0.168 0.34,-0.625 -0.074,-0.399 0.078,-1.328 0.219,-0.996 -0.024,-0.668 -0.144,-0.238 0.262,-1.16 0.039,-0.997 -0.161,-0.277 0.059,-0.25 0.133,-0.098 -0.383,0.02"
                   style="fill:none;stroke:#000000;stroke-width:2.61674;stroke-linecap:round;stroke-linejoin:round;stroke-miterlimit:10;stroke-dasharray:none;stroke-opacity:1"
                   id="path1500" />
              </g>
              <g
                 id="g1502"
                 transform="matrix(1,0,0,-1,-104.71842,715.69467)">
                <path
                   d="m 829.859,-188.77 0.145,-0.05 -0.199,0.023 0.59,-0.605 0.117,-0.457 0.511,-0.719 0.11,-0.492 0.254,-0.34 0.281,-0.188 0.137,-0.41 -0.125,-0.14 0.449,-0.368 0.07,-0.199 1.168,-1.418 0.945,-1.676 0.262,-0.214 0.219,-0.602 -0.125,-0.109 0.02,-0.137 0.203,-0.086 0.566,-0.809 0.414,-0.851 0.484,-0.688 v -0.238 l 0.434,-0.945 0.758,-1.313 0.246,-0.226 0.148,-0.442 -0.171,-0.176 0.144,-0.05 0.379,-0.438 0.164,-0.535 0.352,-0.551 0.3,-0.371 0.321,-0.172 -0.024,-0.195 0.242,-0.598 0.317,-0.39 0.308,-0.657 0.325,-0.367 0.113,-0.281 -0.117,-0.148 0.445,-0.45 0.195,-0.464 -0.175,-0.243 0.293,-0.211 0.511,-0.914 0.289,-0.289 0.118,-0.636 0.25,-0.102 0.035,-0.508 0.902,-1.719 -0.129,-0.144 0.477,-0.363 0.554,-0.922 0.02,-0.18 0.238,-0.348 0.313,-0.179 -0.055,-0.067 0.492,-1.16 0.496,-0.828 -0.066,-0.148 0.457,-0.461 0.121,-0.317 -0.07,-0.129 0.476,-0.593 0.039,-0.192 -0.086,-0.101 0.184,-0.344 -0.07,-0.137 0.207,-0.199 -0.145,-0.254 0.395,-0.367 0.25,-0.637 -0.149,0.012 -0.359,0.574"
                   style="fill:none;stroke:#000000;stroke-width:2.61674;stroke-linecap:round;stroke-linejoin:round;stroke-miterlimit:10;stroke-dasharray:none;stroke-opacity:1"
                   id="path1504" />
              </g>
              <g
                 id="g1506"
                 transform="matrix(1,0,0,-1,-104.71842,715.69467)">
                <path
                   d="m 845.668,-201.91 0.129,-0.051 0.062,0.043 -0.144,0.012 0.137,0.039 -0.094,-0.02 0.187,-0.215 0.141,-1.246 0.105,-0.172 -0.035,-0.332 -0.191,-0.156 0.207,-0.637 0.047,-1.035 -0.09,-0.164 0.207,-0.73 -0.024,-1.332 0.118,-0.719 0.004,-0.898 -0.02,-0.547 -0.168,-0.258 0.281,-0.66 -0.015,-0.426 -0.145,-0.168 0.195,-0.785 -0.335,-2.348 0.074,-0.465 0.191,-0.199 -0.101,-0.305 -0.203,-0.168 0.273,-0.601 0.019,-0.531 -0.105,-0.903 0.105,-1.019 -0.203,-0.199 0.535,-1.227 -0.058,-0.258 -0.195,-0.101 0.121,-0.137 0.187,-0.004 -0.176,-0.063 -0.074,0.125 -0.129,0.653"
                   style="fill:none;stroke:#000000;stroke-width:2.61674;stroke-linecap:round;stroke-linejoin:round;stroke-miterlimit:10;stroke-dasharray:none;stroke-opacity:1"
                   id="path1508" />
              </g>
              <g
                 id="g1510"
                 transform="matrix(1,0,0,-1,-104.71842,715.69467)">
                <path
                   d="m 846.965,-201.473 -0.059,-0.109 0.102,-0.047 -0.094,-0.031 0.027,0.14 h 0.192 l 0.004,-0.078 -0.102,0.051 1.418,0.313 1.219,0.453 2.019,0.375 0.188,0.164 0.914,0.195 0.859,0.035 1.399,0.219 1.527,0.406 1.402,0.157 2.504,0.011 0.145,0.059 -0.074,0.039 -0.149,-0.059 0.137,-0.027 -0.063,-0.082 -0.175,0.004 -0.051,-0.203 0.078,-0.047 -0.121,-0.094"
                   style="fill:none;stroke:#000000;stroke-width:2.61674;stroke-linecap:round;stroke-linejoin:round;stroke-miterlimit:10;stroke-dasharray:none;stroke-opacity:1"
                   id="path1512" />
              </g>
              <g
                 id="g1514"
                 transform="matrix(1,0,0,-1,-104.71842,715.69467)">
                <path
                   d="m 861.082,-200.457 0.219,0.019 -0.18,-0.007 0.199,-0.024 0.051,-0.195 -0.078,-0.102 0.246,-0.355 0.133,-0.973 -0.086,-0.125 0.238,-0.371 -0.051,-0.172 -0.164,-0.093 0.129,-0.34 0.176,-0.051 -0.172,-0.942 0.317,-0.726 -0.043,-0.52 0.148,-0.789 -0.031,-0.238 -0.184,-0.129 0.133,-0.394 0.23,-0.157 -0.16,-0.671 0.086,-0.645 0.133,-0.207 -0.008,-1.008 -0.129,-0.652 0.145,-0.332 -0.004,-0.578 -0.18,-0.121 0.188,-0.29 0.222,-0.136 -0.21,-0.328 0.097,-0.356 0.266,-0.18 -0.102,-0.062 -0.015,-0.262 0.093,-0.144 -0.054,-0.524 0.195,-0.89 -0.191,-0.137 0.132,-0.109 0.125,-0.426 0.223,-0.176 -0.176,-0.43 0.117,-0.218 0.29,-0.153 -0.118,-0.043 0.008,-0.609 -0.051,0.098 -0.148,0.003 0.332,-0.007 -0.363,0.004 -0.352,0.238"
                   style="fill:none;stroke:#000000;stroke-width:2.61674;stroke-linecap:round;stroke-linejoin:round;stroke-miterlimit:10;stroke-dasharray:none;stroke-opacity:1"
                   id="path1516" />
              </g>
              <g
                 id="g1518"
                 transform="matrix(1,0,0,-1,-104.71842,715.69467)">
                <path
                   d="m 862.863,-217.164 v 0.297 h -0.261 l 0.14,-0.082"
                   style="fill:none;stroke:#000000;stroke-width:2.61674;stroke-linecap:round;stroke-linejoin:round;stroke-miterlimit:10;stroke-dasharray:none;stroke-opacity:1"
                   id="path1520" />
              </g>
              <g
                 id="g1522"
                 transform="matrix(1,0,0,-1,-104.71842,715.69467)">
                <path
                   d="m 846.789,-222.211 0.242,-0.016 0.301,0.188 0.875,0.187 0.133,0.149 0.644,0.144 -0.168,0.008 0.965,0.078 0.383,0.149 0.383,-0.012 1.531,0.309 0.199,-0.039 0.262,0.156 1.418,0.148 0.145,0.063 -0.118,0.039 1.848,0.195 0.449,0.199 0.344,0.028 0.25,0.16 1.094,0.269 0.164,0.145 0.965,0.172 0.547,0.176 0.148,0.14 1.207,0.301 1.18,0.516 1.015,0.14 0.371,0.192"
                   style="fill:none;stroke:#000000;stroke-width:2.61674;stroke-linecap:round;stroke-linejoin:round;stroke-miterlimit:10;stroke-dasharray:none;stroke-opacity:1"
                   id="path1524" />
              </g>
              <g
                 id="g1526"
                 transform="matrix(1,0,0,-1,-104.71842,715.69467)">
                <path
                   d="m 878.727,-274.711 0.183,-0.082 0.078,0.023 -0.156,0.04 1.434,0.164 5.511,1.488 0.86,0.344 1.621,0.293 1.238,0.367 4.285,0.75 0.731,0.273 0.187,-0.043 -0.281,-0.125"
                   style="fill:none;stroke:#000000;stroke-width:2.61674;stroke-linecap:round;stroke-linejoin:round;stroke-miterlimit:10;stroke-dasharray:none;stroke-opacity:1"
                   id="path1528" />
              </g>
              <g
                 id="g1530"
                 transform="matrix(1,0,0,-1,-104.71842,715.69467)">
                <path
                   d="m 895.812,-268.859 -0.582,-0.239 0.204,0.137 -0.075,0.18 -0.57,0.933 -0.328,0.153 0.074,0.062 -0.047,0.395 -0.414,0.718 -0.48,1.715 -0.395,0.676 -0.633,1.774 -0.246,0.234 0.008,0.445 0.125,0.242 -0.465,0.954 -0.617,3.25 -0.156,0.285 0.086,1.101 -0.117,0.297 0.097,0.457 -0.074,0.172 0.035,0.375 0.137,0.168 -0.191,0.598 0.019,0.41 0.102,0.222 0.035,0.918 0.199,1.071 0.383,0.582 0.078,0.328 -0.195,0.156 0.414,0.438 0.375,0.699 0.234,1.012 0.164,0.23 0.008,0.637 0.535,1.781 -0.078,0.582 0.191,0.399 0.2,0.14 -0.047,0.309 0.191,0.308 0.41,0.285 -0.043,0.493 0.328,0.679 0.254,1.196 0.114,0.25 0.281,0.148 -0.211,0.453 0.191,0.278 0.059,0.32 0.129,0.105 -0.004,0.434 0.289,0.488 0.074,0.582 0.324,0.891 0.18,0.105 -0.23,0.395 0.281,0.293 -0.094,0.762 0.203,0.586 -0.121,0.652 0.149,1.324 -0.293,0.316 0.218,0.141 -0.238,0.195 -0.176,0.735 -0.945,1.933 -0.191,0.149 0.023,0.32 -0.133,0.231 -0.195,0.074 0.047,0.273 -0.555,0.586 -0.93,1.488 -0.793,0.727 -0.293,0.125 -0.128,0.207 0.058,0.035 -0.465,0.285 -1.8,1.555 -0.118,0.145 0.071,0.058 -1.215,0.696 -1.09,0.964 -0.922,0.563 -0.598,0.187 -0.039,0.2 -2.566,1.168 -0.309,0.277 -1.086,0.504 -0.207,0.281 -0.605,0.234 -2.922,1.618 -1.086,0.988 -1.273,0.64 -0.907,0.735 -0.695,0.332 -0.383,0.484 -0.695,0.41 -0.676,0.633 -1.086,0.532 -1.644,1.078 -0.211,0.367 -0.91,0.726 -0.395,0.602 -0.672,0.68 -0.308,0.144 0.007,0.324 -0.566,0.266 -0.281,0.301 -1.004,1.308 -0.121,0.375 -0.696,0.664 0.118,0.254 -0.477,0.289 0.016,0.411 -1.11,1.691 -0.214,0.535 -0.403,0.422 -0.101,0.363 -0.192,0.004 0.207,-0.008 -0.117,-0.019 -0.723,0.637 -0.148,0.054 -0.043,-0.082"
                   style="fill:none;stroke:#000000;stroke-width:2.61674;stroke-linecap:round;stroke-linejoin:round;stroke-miterlimit:10;stroke-dasharray:none;stroke-opacity:1"
                   id="path1532" />
              </g>
              <g
                 id="g1534"
                 transform="matrix(1,0,0,-1,-104.71842,715.69467)">
                <path
                   d="m 864.043,-219.656 0.273,-0.016 -0.175,-0.016 0.316,-0.21 0.977,-1.247 0.125,-0.589 0.308,-0.387 0.328,-0.199 0.114,-0.465 0.828,-0.887 0.074,-0.355 1.035,-1.047 0.488,-0.688 0.317,-0.121 0.054,-0.41 0.614,-0.687 0.336,-0.618 -0.075,-0.078 0.301,-0.152 -0.015,-0.137 0.996,-1.226 0.289,-0.192 0.265,-0.457 -0.015,-0.14 0.476,-0.309 0.071,-0.223 0.265,-0.234 -0.054,-0.098 0.316,-0.148 0.152,-0.278 1.227,-0.792 0.516,-0.645 0.488,-0.316 -0.125,-0.125 2.148,-1.004 0.328,-0.063 1.239,-0.648 -0.012,-0.071 0.613,-0.093 1.086,-0.559 3.102,-1.211 0.793,-0.43 0.289,-0.265 0.293,-0.047 0.664,-0.508 0.754,-0.336 -0.059,-0.051 0.758,-0.269 0.367,-0.367 0.574,-0.352 -0.129,-0.012 0.219,-0.082 -0.199,-0.023 0.269,0.016 -0.066,-0.055 0.434,-0.477 1.355,-1.254 0.375,-0.8 0.488,-0.426 -0.25,0.078 0.317,-0.051 -0.317,0.055 0.11,-0.02 0.008,-0.101 0.121,0.019 -0.11,-0.054 0.043,-0.051 0.563,-0.399 -0.012,-0.148 0.5,-0.012"
                   style="fill:none;stroke:#000000;stroke-width:2.61674;stroke-linecap:round;stroke-linejoin:round;stroke-miterlimit:10;stroke-dasharray:none;stroke-opacity:1"
                   id="path1536" />
              </g>
              <g
                 id="g1538"
                 transform="matrix(1,0,0,-1,-104.71842,715.69467)">
                <path
                   d="m 837.652,-192.082 0.274,-0.039 -0.172,-0.008 0.062,-0.226 0.125,-0.083 -0.117,-0.39 0.406,-0.469 -0.05,-0.121 0.386,-1.824 0.032,-0.563 -0.227,-0.652 -0.074,-0.875 0.094,-0.246 -0.043,-0.379 -0.172,-0.16 0.168,-0.238 0.226,-0.122 -0.117,-0.335 0.094,-0.028 -0.082,0.012 0.07,0.066 -0.242,0.039"
                   style="fill:none;stroke:#000000;stroke-width:1.26872;stroke-linecap:round;stroke-linejoin:round;stroke-miterlimit:10;stroke-dasharray:none;stroke-opacity:1"
                   id="path1540" />
              </g>
              <g
                 id="g1542"
                 transform="matrix(1,0,0,-1,-104.71842,715.69467)">
                <path
                   d="m 849.199,-203.98 -0.011,-0.125 0.07,0.039 -0.078,0.054 0.199,-0.011 0.051,0.093 2.062,0.52 2.645,0.39 0.703,0.188 0.367,-0.035 -0.066,0.058 0.062,-0.043 -0.094,-0.058 0.129,0.031 -0.133,-0.082 0.594,-0.703 -0.031,-0.113 0.543,-0.383 0.004,-0.285 0.125,-0.203 -0.016,-0.497 -0.121,-0.05 0.188,-0.219 -0.039,-0.184 -0.141,-0.058 0.066,-0.129 0.086,0.101 -0.152,0.012 0.047,-0.058 -0.414,-0.411 -0.297,-0.074 -0.012,-0.16 -0.41,-0.133 -0.004,-0.156 0.109,-0.008 -0.105,0.035 -0.301,-0.25 -0.207,-0.351 -0.351,-0.285 -0.149,-0.442 -0.285,-0.078 0.102,-0.133 h 0.238 l -0.36,-0.578 0.004,-0.621 -0.132,-0.113 0.168,-0.559 -0.043,-0.168 -0.161,-0.078 0.082,-0.238 0.254,-0.117 -0.109,-0.024 -0.141,-0.324 0.246,-0.516 0.032,-0.742 0.168,-0.437 0.019,-0.782 0.231,-0.004 -0.344,0.079 0.211,0.093 -0.074,-0.136 -0.125,0.129"
                   style="fill:none;stroke:#000000;stroke-width:1.26872;stroke-linecap:round;stroke-linejoin:round;stroke-miterlimit:10;stroke-dasharray:none;stroke-opacity:1"
                   id="path1544" />
              </g>
              <g
                 id="g1546"
                 transform="matrix(1,0,0,-1,-104.71842,715.69467)">
                <path
                   d="m 850.18,-206.629 0.121,0.055 -0.153,-0.012 0.266,-0.125 -0.086,-0.047 0.215,-0.226 -0.016,-0.125 0.274,-0.25 0.285,-0.7 0.328,-0.402 -0.031,-0.387 0.207,-0.351 -0.098,-0.164 0.262,-0.336 0.23,-0.11 0.028,-0.289 -0.145,-0.183 0.477,-0.469 0.281,-0.84 0.512,-0.762 0.093,-0.503 0.348,-0.446 -0.062,-0.074 0.375,-0.395 0.062,-0.234 -0.164,-0.094 0.266,-0.281 0.293,-0.133 -0.036,-0.234 0.172,-0.684 0.215,-0.269 0.602,-1.723 -0.051,-0.164 0.199,-0.434 -0.129,-0.152 0.539,-0.648 0.043,-0.567 0.364,-0.636 0.371,-1.383 0.609,-1.52 -0.023,-0.222 0.285,-0.547 0.004,-0.192 0.531,-0.695 0.031,-0.504 0.199,-0.336 0.27,-0.176 v -0.543 l 0.906,-2.238 -0.011,-0.172 0.453,-0.664 0.047,-0.492 0.601,-0.828 0.348,-0.129 0.054,-0.441 0.364,-0.391 0.191,-0.512 0.16,-0.129 0.258,-0.851 0.484,-0.543 0.043,-0.426 0.438,-0.891 0.269,-0.183 0.043,-0.535 -0.097,-0.204 0.246,-0.418 0.312,-0.179 -0.035,-0.176 0.266,-0.84 0.558,-0.918 0.028,-0.519 0.574,-0.93 0.148,-0.422 -0.039,-0.176 0.235,-0.382 0.351,-0.145 v -0.371 l -0.101,-0.137 0.703,-0.988 0.5,-1.113 0.469,-0.661 0.132,-0.613 0.266,-0.488 -0.035,-0.188 0.594,-0.535 0.074,-0.449 -0.141,-0.191 0.383,-0.586 0.172,-0.828 0.348,-0.868 0.796,-1.457 0.457,-1.527 0.274,-0.566 0.23,-0.239 0.172,-0.445 -0.156,-0.223 0.645,-0.609 0.074,-0.355 -0.094,-0.153 0.668,-1.055 0.23,-0.851 0.301,-0.477 0.117,-0.64 -0.054,-0.129 0.461,-0.442 0.062,-0.242 -0.14,-0.144 0.39,-0.321 0.371,-0.539 0.539,-1.16 0.032,-0.375 0.328,-0.722 0.175,-0.11 -0.074,-0.269 0.375,-0.313 0.258,-0.672 0.289,-0.262 0.195,-0.566 0.469,-0.726 0.024,-0.192 -0.125,-0.105 0.347,-0.262 -0.027,-0.27 0.652,-0.836 0.223,-0.636 0.289,-0.297 -0.094,-0.086 0.18,-0.469 0.215,-0.117 -0.172,-0.363 0.457,-0.36 -0.074,-0.398 0.613,-1.227 0.199,-0.191 0.028,-0.445 0.445,-0.942 0.047,-0.242 -0.098,-0.141 0.231,-0.261 0.359,-0.149 -0.109,-0.097 0.015,-0.129 -0.183,-0.102 0.293,-0.18 0.707,-0.789 0.617,-0.914 -0.473,0.387"
                   style="fill:none;stroke:#000000;stroke-width:1.26872;stroke-linecap:round;stroke-linejoin:round;stroke-miterlimit:10;stroke-dasharray:none;stroke-opacity:1"
                   id="path1548" />
              </g>
              <g
                 id="g1550"
                 transform="matrix(1,0,0,-1,-104.71842,715.69467)">
                <path
                   d="m 851.938,-212.543 -0.055,-0.156 0.086,-0.078 h -0.176 l 0.254,0.035 -0.156,0.039 0.277,0.086 -0.164,-0.016 0.094,-0.078 -0.164,-0.117 0.238,-0.156 -0.176,-0.188 0.336,-0.101 -0.078,-0.055 -0.07,-0.777 0.07,-0.938 -0.094,-0.074 0.125,-0.356 -0.23,-0.359 0.129,-0.203 0.238,-0.102 -0.156,-0.297 0.015,-0.535 -0.32,-1.418 0.066,-0.441 -0.105,-1.012 -0.168,-0.125 0.105,-0.211 0.203,-0.082 -0.234,-0.176 0.199,-0.086 -0.234,0.059 0.102,0.031 -0.165,-0.047 0.321,0.028 -0.203,0.058 -0.094,0.696 0.133,0.824 -0.121,0.805 -0.239,0.32 0.098,0.152 0.07,0.723 -0.082,2.144 -0.093,0.422 0.101,0.504 0.258,0.242 -0.082,0.379 0.082,0.996 0.101,0.153 -0.214,0.207 0.211,0.07 -0.118,0.027 0.305,-0.007 -0.293,-0.024 -0.172,-0.156"
                   style="fill:none;stroke:#000000;stroke-width:1.26872;stroke-linecap:round;stroke-linejoin:round;stroke-miterlimit:10;stroke-dasharray:none;stroke-opacity:1"
                   id="path1552" />
              </g>
              <g
                 id="g1554"
                 transform="matrix(1,0,0,-1,-104.71842,715.69467)">
                <path
                   d="m 852.242,-218.246 0.004,-0.313 0.172,-0.226 0.043,-0.313 0.723,-1.015 0.078,-0.449 0.422,-0.836 0.218,-0.84 0.438,-0.672 -0.067,-0.16 0.809,-1.063 0.461,-1.312 0.961,-2.028 -0.027,-0.269 0.425,-0.528 0.45,-1.722 0.359,-0.715 0.137,-0.965 1.152,-2.766 0.328,-1 0.004,-0.3 0.246,-0.633 0.203,-0.25 0.11,-0.582 0.683,-1.106 0.297,-0.273 0.082,-0.57 0.434,-0.582 0.586,-1.707 0.238,-0.473 0.23,-0.215 0.157,-0.703 0.769,-1.137 0.067,-0.582 0.218,-0.379 0.258,-0.172 0.07,-0.66 0.532,-0.836 0.441,-1 -0.019,-0.414 0.265,-0.324 0.508,-1.121 0.402,-0.375 0.149,-0.461 -0.067,-0.172 0.735,-1.418 0.125,-0.527 0.437,-0.641 0.094,-0.515 0.781,-1.164 0.098,-0.352 -0.047,-0.191 0.469,-0.7 0.172,-0.363 -0.016,-0.172 0.918,-1.285 0.16,-0.527 0.414,-0.629 0.199,-0.137 0.172,-0.496 0.582,-0.629 0.196,-0.527 -0.086,-0.176 0.785,-0.996 0.512,-1.266 0.418,-0.535 0.171,-0.492 0.446,-0.516 0.176,-0.465 0.234,-0.191 0.133,-0.391 -0.063,-0.222 0.516,-0.629 0.832,-1.879 0.215,-0.969 0.34,-0.836 0.156,-0.133 -0.059,-0.296 0.457,-0.426 0.192,-0.555 0.527,-0.742 0.012,-0.235 0.562,-0.14 -0.023,0.203 0.133,0.301"
                   style="fill:none;stroke:#000000;stroke-width:1.26872;stroke-linecap:round;stroke-linejoin:round;stroke-miterlimit:10;stroke-dasharray:none;stroke-opacity:1"
                   id="path1556" />
              </g>
              <g
                 id="g1558"
                 transform="matrix(1,0,0,-1,-104.71842,715.69467)">
                <path
                   d="m 856.586,-204.375 0.078,-0.074 -0.121,-0.008 0.184,0.043 -0.137,-0.082 0.305,0.004 -0.18,-0.117 0.117,-0.946 -0.02,-0.14 -0.144,-0.09 0.219,-0.231 0.031,-0.211 -0.168,-0.121 0.457,-0.613 -0.066,-0.441 0.047,-0.176 0.179,-0.106 -0.086,-0.242 0.129,-0.969 -0.09,-0.25 0.313,-0.855 0.023,-0.426 -0.211,-0.23 0.129,-0.102 0.465,-1.176 -0.101,-0.992 0.195,-0.195 -0.188,-0.5 0.024,-1.457 -0.086,-0.192 0.195,-0.664 -0.008,-0.191 -0.203,-0.07 0.336,-0.012 -0.215,0.004 0.012,0.312"
                   style="fill:none;stroke:#000000;stroke-width:1.26872;stroke-linecap:round;stroke-linejoin:round;stroke-miterlimit:10;stroke-dasharray:none;stroke-opacity:1"
                   id="path1560" />
              </g>
              <g
                 id="g1562"
                 transform="matrix(1,0,0,-1,-104.71842,715.69467)">
                <path
                   d="m 865.945,-207.379 -0.265,0.59 -0.246,0.101 0.222,-0.027 -0.129,-0.047 0.168,0.047 -0.144,-0.265 -0.274,-0.145 0.047,-0.652 -0.23,-0.707 -0.262,-0.395 0.086,-0.211 -0.102,-2.203 0.059,-0.422 -0.246,-2.664 0.016,-1.191 0.105,-0.465 -0.152,-1.188 0.093,-0.785 -0.129,-0.258 0.247,-0.593 -0.059,-0.258 -0.215,-0.11 0.192,-0.195 0.011,0.09 -0.105,0.008 -0.113,0.246 -0.075,0.879"
                   style="fill:none;stroke:#000000;stroke-width:1.26872;stroke-linecap:round;stroke-linejoin:round;stroke-miterlimit:10;stroke-dasharray:none;stroke-opacity:1"
                   id="path1564" />
              </g>
              <g
                 id="g1566"
                 transform="matrix(1,0,0,-1,-104.71842,715.69467)">
                <path
                   d="m 875.566,-169.609 0.028,-0.196 0.015,0.086 0.153,0.004 -0.36,-0.519 -0.257,-0.821 -0.176,-0.238 -0.321,-0.176 0.125,-0.207 -0.019,-0.332 -0.52,-0.953 -0.113,-0.348 0.113,-0.164 -0.461,-1.132 -0.175,-2.063 0.047,-0.371 -0.114,-0.641 -0.226,-0.3 0.101,-0.125 0.035,-0.856 -0.093,-0.566 -0.207,-0.325 0.101,-0.16 0.008,-1.179 0.137,-0.254 -0.223,-1.516 0.27,-1.879 -0.153,-0.148 0.364,-0.535 v -0.325 l -0.176,-0.172 0.222,-0.347 0.149,-0.578 0.117,-1.047 0.293,-0.949 0.039,-0.747 0.43,-1.449 -0.188,-0.136 0.449,-0.5 0.442,-1.489 0.383,-0.484 0.496,-1.246 0.484,-0.875 0.403,-1.086 -0.102,-0.145 0.578,-0.48 0.418,-0.766 0.633,-0.703 0.156,-0.469 0.629,-0.597 0.789,-1.094 0.949,-0.91 -0.07,-0.121 0.762,-0.43 0.91,-0.891 0.07,-0.171 0.512,-0.332 0.566,-0.633 0.879,-0.598 0.395,-0.375 0.015,-0.129 0.676,-0.316 0.434,-0.414 0.679,-0.348 0.125,-0.164 0.739,-0.262 0.355,-0.312 2.039,-0.867 1.016,-0.223 2.062,-0.738 0.844,-0.184 0.563,-0.309 2.843,-0.699 0.153,-0.133 0.222,-0.007 -0.152,0.031 0.137,-0.121 0.695,-0.196"
                   style="fill:none;stroke:#000000;stroke-width:1.26872;stroke-linecap:round;stroke-linejoin:round;stroke-miterlimit:10;stroke-dasharray:none;stroke-opacity:1"
                   id="path1568" />
              </g>
              <g
                 id="g1570"
                 transform="matrix(1,0,0,-1,-104.71842,715.69467)">
                <path
                   d="m 879.789,-159.512 0.039,-0.308 -0.086,0.011 0.196,0.075 -0.075,-0.141 0.176,-0.074 0.559,-0.883 0.214,-0.773 0.711,-1.415 -0.007,-0.214 0.714,-1.028 -0.113,-0.191 0.289,-0.117 0.367,-0.368 0.454,-0.683 0.402,-0.883 0.121,-0.672 0.785,-1.097 0.07,-0.266 -0.132,-0.113 0.234,-0.043 -0.004,-0.254 0.309,-0.356 0.183,-0.445 -0.058,-0.062 0.14,-0.098 -0.023,0.125"
                   style="fill:none;stroke:#000000;stroke-width:1.26872;stroke-linecap:round;stroke-linejoin:round;stroke-miterlimit:10;stroke-dasharray:none;stroke-opacity:1"
                   id="path1572" />
              </g>
              <g
                 id="g1574"
                 transform="matrix(1,0,0,-1,-104.71842,715.69467)">
                <path
                   d="m 886.414,-170.25 0.539,-0.035 -0.004,0.094 0.043,-0.153 -0.121,0.149 0.098,-0.047 0.136,0.164 0.567,0.219 0.465,-0.004 0.242,0.09 -0.043,0.05 1.172,0.192 0.582,0.297 1.121,0.129 0.324,0.164 1.36,0.218 0.359,0.196 1.82,0.32 0.293,0.168 0.586,0.039 2.238,0.766 0.696,0.293 0.039,0.101 0.711,0.149 0.25,0.16 0.843,0.179 0.422,-0.05 1.211,0.164 0.809,-0.008 1.058,0.281 0.954,0.106 0.164,0.113 1.312,0.121 0.762,0.195 0.461,0.043 0.156,-0.074 0.59,0.106 1.574,0.382 0.508,0.246 0.867,0.149 0.063,0.098 0.554,0.109 0.157,0.148 0.453,0.129 0.207,-0.039 0.57,0.317 1.395,0.382 0.543,0.012 0.343,0.149 0.301,-0.028 1.203,0.231 0.43,0.043 0.191,-0.086 0.641,0.277 0.555,0.121 0.175,-0.058 0.43,0.246 1.25,0.316 0.649,0.059 1.687,0.425 0.184,-0.082 0.707,0.297 0.144,-0.062 1.797,0.371 0.371,0.254 0.262,-0.004 1.082,0.34 0.476,-0.078 0.461,0.222 0.918,0.031 0.297,0.11 0.207,-0.074 0.52,0.179 0.894,0.047 0.414,0.207 0.465,0.02 -0.152,0.008 0.512,0.148 0.152,0.191 0.476,0.024 0.407,0.371 0.754,0.18 0.398,0.254 0.758,0.148 -0.184,0.039 0.266,0.008 -0.078,-0.012 0.097,0.106 -0.152,-0.106 -0.051,0.063 -0.172,-0.168"
                   style="fill:none;stroke:#000000;stroke-width:1.26872;stroke-linecap:round;stroke-linejoin:round;stroke-miterlimit:10;stroke-dasharray:none;stroke-opacity:1"
                   id="path1576" />
              </g>
              <g
                 id="g1578"
                 transform="matrix(1,0,0,-1,-104.71842,715.69467)">
                <path
                   d="m 932.5,-146.438 0.129,0.024 -0.055,0.074 -0.301,-0.094 0.137,-0.011 0.149,0.16 0.343,-0.406 0.52,-0.395 0.078,-0.332 -0.121,-0.227 0.398,-0.445 0.629,-1.598 0.352,-0.511 0.258,-0.203 0.097,-0.442 0.141,-0.156 0.539,-1.402 -0.043,-0.133 0.523,-0.781 0.11,-0.508 -0.141,-0.102 -0.023,-0.164 0.492,-0.625 0.293,-1.012 v -0.324 l 0.172,-0.222 0.273,-0.059 -0.152,-0.09 0.035,-0.14 -0.16,0.007 -0.285,-0.183 -0.317,0.019"
                   style="fill:none;stroke:#000000;stroke-width:1.26872;stroke-linecap:round;stroke-linejoin:round;stroke-miterlimit:10;stroke-dasharray:none;stroke-opacity:1"
                   id="path1580" />
              </g>
              <g
                 id="g1582"
                 transform="matrix(1,0,0,-1,-104.71842,715.69467)">
                <path
                   d="m 881.082,-157.184 -0.297,0.137 -0.004,0.094 0.235,-0.176 0.882,-0.031 0.211,0.168 1.25,0.336 0.27,0.211 0.57,-0.02 1.106,0.395 0.496,-0.024 0.57,0.305 0.707,0.082 1.805,0.523 0.117,0.106 0.734,0.047 0.762,0.269 1.715,0.16 2.492,0.747 0.899,0.156 1.226,0.414 0.567,0.019 1.484,0.454 0.156,-0.083 0.621,0.329 1.121,0.218 0.434,0.192 1.184,0.226 0.242,-0.058 0.691,0.25 1.293,0.152 0.645,0.25 h 1.195 l 0.371,0.09 0.031,0.082 1.297,0.082 0.746,0.238 0.758,0.012 1.391,0.375 0.394,-0.043 1.891,0.309 0.824,0.218 0.137,0.125 0.527,-0.015 0.242,0.25 0.614,0.301 4.113,0.953 0.59,0.339 0.886,0.129 0.747,0.266 1,0.035 1.085,0.313 0.95,0.121 0.254,0.148 0.535,0.016 0.218,0.082 -0.046,0.066 0.558,0.067 0.086,0.117 0.363,-0.016 1.278,0.336 1.312,0.457 0.071,0.121 0.156,-0.156 -0.156,-0.195"
                   style="fill:none;stroke:#000000;stroke-width:1.26872;stroke-linecap:round;stroke-linejoin:round;stroke-miterlimit:10;stroke-dasharray:none;stroke-opacity:1"
                   id="path1584" />
              </g>
              <g
                 id="g1586"
                 transform="matrix(1,0,0,-1,-104.71842,715.69467)">
                <path
                   d="m 894.039,-173.43 -0.094,-0.074 0.09,-0.004 -0.078,0.016 0.098,0.109 0.097,-0.074 0.637,0.437 1.305,0.325 3.801,1.254 0.312,0.211 1.09,0.21 0.726,0.387 1.172,0.352 0.278,0.222 4.812,1.223 0.84,0.332 0.996,0.192 0.754,0.289 0.914,0.132 0.25,0.149 0.82,0.051 1.118,0.379 0.89,0.156 1.09,0.5 0.594,0.125 0.379,0.238 0.168,-0.051 1.14,0.199 0.262,0.172 h 0.586 l 2.121,0.473 0.328,0.156 0.942,0.059 1.113,0.371 0.453,0.051 0.156,0.144 0.172,-0.051 1.051,0.235 0.219,0.183 0.464,-0.062 1.997,0.269 0.816,-0.05 0.91,0.289 0.899,0.07 0.519,0.215 1.152,0.16 0.383,0.086 0.215,0.172 0.836,0.078 1.426,0.387 0.82,0.011 -0.363,-0.265"
                   style="fill:none;stroke:#000000;stroke-width:1.26872;stroke-linecap:round;stroke-linejoin:round;stroke-miterlimit:10;stroke-dasharray:none;stroke-opacity:1"
                   id="path1588" />
              </g>
              <g
                 id="g1590"
                 transform="matrix(1,0,0,-1,-104.71842,715.69467)">
                <path
                   d="m 918.133,-178.02 -0.379,-0.085 0.195,0.078 -0.332,0.187 -0.793,-0.273 0.02,-0.18 -0.18,-0.074 -0.148,-0.199 0.046,-0.075 -0.136,-0.082 0.113,0.004 -0.309,-0.219 -0.035,-0.347 -0.172,-0.16 0.043,-0.11 -0.378,-0.297 0.164,-0.187 -0.395,-0.273 -0.113,-0.446 0.078,-0.023 -0.25,-0.305 -0.086,-1.164 -0.152,-0.125 0.226,-0.207 -0.238,-0.262 0.293,-0.683 0.105,-0.043 -0.023,-0.539 0.203,-0.821 0.418,-0.683 0.418,-0.25 0.172,-0.266 -0.067,-0.101 0.493,-0.227 0.211,-0.273 0.863,-0.625 0.676,-0.317 1.035,-0.223 1.328,-0.043 0.66,0.118 0.973,-0.016 0.734,0.301 0.688,0.144 0.339,0.336 1.157,0.434 0.781,0.551 -0.027,0.074 0.394,0.223 0.258,0.031 0.808,1.164 0.321,0.203 -0.012,0.523 0.414,0.36 0.414,1.023 -0.097,0.039 0.273,0.364 -0.129,0.375 0.094,0.359 -0.074,0.27 0.152,0.156 -0.34,0.429 0.184,0.239 -0.192,0.277 -0.05,0.332 -0.329,0.445 0.028,0.137 -0.742,0.43 -0.2,0.289 -0.519,0.285 -0.09,0.191 -0.68,0.286 -0.73,0.515 -0.481,0.012 -0.304,0.219 -1.465,0.168 -1.211,-0.317 -1.485,-0.793 -0.367,-0.097 -0.363,-0.2 0.137,-0.007 -0.375,-0.043 -0.922,-0.75"
                   style="fill:none;stroke:#000000;stroke-width:1.26872;stroke-linecap:round;stroke-linejoin:round;stroke-miterlimit:10;stroke-dasharray:none;stroke-opacity:1"
                   id="path1592" />
              </g>
              <g
                 id="g1594"
                 transform="matrix(1,0,0,-1,-104.71842,715.69467)">
                <path
                   d="m 916.238,-181.617 -0.074,-0.149 0.145,0.055 -0.032,0.063 0.481,0.296 0.172,0.172 h -0.078 l 0.32,0.125 2,0.442 1.109,-0.039 0.18,-0.114 -0.063,-0.035 1.18,-0.246 0.317,-0.121 0.085,-0.133 0.387,-0.082 0.676,-0.512 0.027,-0.113 0.285,-0.168 0.196,0.024 0.082,-0.192 -0.137,-0.097 0.473,-0.207 0.14,-0.438 0.317,-0.203 0.281,-0.465 0.184,-0.762 -0.149,-0.144 0.281,-0.246 -0.043,-0.137 -0.187,-0.074 0.105,-0.031 0.075,-0.227 -0.09,-0.184 0.058,-0.089 -0.363,-0.414 0.082,-0.114 -0.394,-0.304 -0.239,-0.442 h 0.078 l -0.23,-0.137 -0.773,-0.281 -1.672,-0.375 -1.012,0.043 -0.098,-0.121 -0.855,0.141 -0.801,0.257 -0.852,0.454 -0.402,0.629 -0.277,0.097 0.172,0.488 -1.125,3.09 0.226,0.758 0.211,0.305 -0.078,0.035 0.445,0.238 -0.121,0.168 0.227,0.004 -0.113,0.047 0.058,0.086 -0.172,0.262"
                   style="fill:none;stroke:#000000;stroke-width:1.26872;stroke-linecap:round;stroke-linejoin:round;stroke-miterlimit:10;stroke-dasharray:none;stroke-opacity:1"
                   id="path1596" />
              </g>
              <g
                 id="g1598"
                 transform="matrix(1,0,0,-1,-104.71842,715.69467)">
                <path
                   d="m 957.68,-244.332 -0.301,0.074 0.316,-0.008 -0.148,0.078 -0.117,-0.062 -0.469,-0.387 -0.453,-0.199 0.16,-0.059 -0.707,-0.23 -0.266,-0.234 0.094,-0.047 -0.492,-0.418 -0.453,-0.891 -0.309,-0.191 0.199,-0.383 -0.371,-0.359 -0.191,-0.348 -0.02,-0.293 -0.242,-0.383 0.039,-0.172 -0.344,-0.703 0.016,-0.531 -0.172,-0.402 v -0.375 l -0.152,-0.133 0.238,-0.524 -0.07,-0.281 -0.137,-0.145 0.106,-0.292 0.211,-0.149 -0.063,-0.32 0.102,-0.727 0.207,-0.664 0.211,-0.472 0.589,-0.696 0.2,-0.086 0.086,-0.207 -0.114,-0.101 0.356,-0.239 0.422,-0.097 -0.012,-0.117 0.379,-0.239 1.719,-0.711 3.117,0.016 2.125,0.375 1.949,0.598 0.297,0.328 0.765,0.226 0.829,0.95 0.242,0.14 0.086,0.352 0.687,0.961 0.336,0.668 0.043,0.371 -0.141,0.109 0.122,0.047 0.035,0.203 0.234,0.109 -0.301,0.606 -0.082,0.91 0.067,0.137 -0.246,0.48 -0.051,0.949 -0.242,0.692 -0.219,0.14 0.086,0.059 -0.094,0.223 0.059,0.047 -0.364,0.363 -0.371,0.144 -0.125,0.321 -0.422,0.254 -1.48,0.625 -1.445,0.406 -1.391,0.094 -0.848,-0.036 -1.242,-0.253 -0.863,-0.391 -0.266,-0.02 0.133,-0.086 -1.234,-0.523"
                   style="fill:none;stroke:#000000;stroke-width:1.26872;stroke-linecap:round;stroke-linejoin:round;stroke-miterlimit:10;stroke-dasharray:none;stroke-opacity:1"
                   id="path1600" />
              </g>
              <g
                 id="g1602"
                 transform="matrix(1,0,0,-1,-104.71842,715.69467)">
                <path
                   d="m 956.812,-247.207 -0.074,0.031 0.063,0.043 0.734,-0.094 0.625,-0.39 0.344,-0.09 0.168,-0.355 0.598,-0.497 2.871,-1.902 0.754,-0.566 0.625,-0.629 0.664,-0.328 0.32,-0.368 0.531,-0.273 0.195,-0.238 0.176,-0.028 -0.051,-0.093 0.383,-0.344 0.391,-0.192 -0.426,0.016"
                   style="fill:none;stroke:#000000;stroke-width:1.26872;stroke-linecap:round;stroke-linejoin:round;stroke-miterlimit:10;stroke-dasharray:none;stroke-opacity:1"
                   id="path1604" />
              </g>
              <g
                 id="g1606"
                 transform="matrix(1,0,0,-1,-104.71842,715.69467)">
                <path
                   d="m 955.102,-248.746 0.011,-0.121 1.606,-0.848 0.492,-0.308 0.039,-0.149 1.074,-0.566 2.196,-1.649 1.062,-0.547 2.066,-1.543 0.629,-0.355 -0.035,-0.106 0.57,-0.25 0.024,-0.117 -0.234,-0.082"
                   style="fill:none;stroke:#000000;stroke-width:1.26872;stroke-linecap:round;stroke-linejoin:round;stroke-miterlimit:10;stroke-dasharray:none;stroke-opacity:1"
                   id="path1608" />
              </g>
              <g
                 id="g1610"
                 transform="matrix(1,0,0,-1,-104.71842,715.69467)">
                <path
                   d="m 942.371,-248.121 0.098,-0.133 0.066,0.047 -0.223,-0.129 0.282,-1.035 -0.039,-0.176 0.257,-0.531 0.415,-0.266 -0.11,-0.101 0.063,-0.504 0.25,-0.969 1.187,-2.988 1.543,-1.93 0.477,-0.453 0.043,-0.211 0.675,-0.527 0.434,-0.2 0.602,-0.73 0.511,-0.293 -0.164,-0.074 0.391,0.09 0.277,0.32"
                   style="fill:none;stroke:#000000;stroke-width:1.26872;stroke-linecap:round;stroke-linejoin:round;stroke-miterlimit:10;stroke-dasharray:none;stroke-opacity:1"
                   id="path1612" />
              </g>
              <g
                 id="g1614"
                 transform="matrix(1,0,0,-1,-104.71842,715.69467)">
                <path
                   d="m 974.406,-240.473 -0.023,-0.086 0.179,-0.003 -0.128,-0.02 -0.125,0.043 0.156,0.055 0.289,-0.016 0.754,-0.418 1.078,-0.797 0.633,-0.871 0.086,-0.285 1.164,-1.356 1.379,-3.66 0.351,-0.621 0.098,-0.797 -0.059,-0.34 0.18,-0.582 0.242,-0.25 -0.062,-0.39 -0.118,-0.102 0.043,-0.117 -0.382,0.035"
                   style="fill:none;stroke:#000000;stroke-width:1.26872;stroke-linecap:round;stroke-linejoin:round;stroke-miterlimit:10;stroke-dasharray:none;stroke-opacity:1"
                   id="path1616" />
              </g>
              <g
                 id="g1618"
                 transform="matrix(1,0,0,-1,-104.71842,715.69467)">
                <path
                   d="m 953.633,-235.434 -0.125,-0.113 -0.028,-0.094 0.082,0.012 -0.167,0.043 0.093,-0.066 -0.359,-0.762 -0.039,-0.258 0.144,-0.125 -0.078,-0.316 0.34,-0.219 1.004,-0.332 0.684,-0.09 0.375,0.254 -0.082,0.395 -0.567,0.394 -0.262,0.336 -0.714,0.316 -0.207,-0.011 0.101,-0.071 -0.308,-0.14"
                   style="fill:none;stroke:#000000;stroke-width:1.26872;stroke-linecap:round;stroke-linejoin:round;stroke-miterlimit:10;stroke-dasharray:none;stroke-opacity:1"
                   id="path1620" />
              </g>
              <g
                 id="g1622"
                 transform="matrix(1,0,0,-1,-104.71842,715.69467)">
                <path
                   d="m 926.145,-227.285 2.062,1.215 3.211,1.34 1.441,0.75 4.93,1.605 0.641,0.117 2.636,1.16 0.895,0.207 1.305,0.485 1.91,0.468 2.504,0.821 0.441,0.058 2.391,1.012 4.851,0.75 1.086,0.301 1.793,0.711 2.785,0.527 0.516,-0.101 0.719,0.078 3.386,-0.063 2.672,0.301 2.532,-0.082 0.46,-0.059 0.583,-0.222 -0.09,-0.082 0.832,-0.192 0.058,-0.101 -0.074,-0.043 0.625,-0.176 0.137,-0.156 -0.055,-0.086 0.402,-0.328 0.161,-0.7 0.105,-0.222 0.172,-0.102 -0.117,-0.187 -0.211,-0.059 0.066,-0.262 0.215,-0.113 -0.109,-0.039 -0.039,-0.238 -0.27,-0.328 0.004,-0.407 -0.234,-0.726 0.062,-0.606 -0.301,-0.246 0.02,-0.164 0.195,-0.105 -0.359,-0.188 -0.442,-0.777 -0.949,-0.645 -0.261,-0.304 -1.114,-0.614 -0.164,-0.121 0.09,-0.086 -0.582,-0.144 -0.383,-0.309 -2.226,-0.808 -0.09,-0.121 -0.703,-0.137 -0.688,-0.387 -0.426,-0.051 -0.621,-0.32 -1.351,-0.355 0.062,-0.059 -0.531,-0.078 -0.41,-0.242 -1.012,-0.176 -1.57,-0.422 -0.313,-0.168 -1.062,-0.113 -0.438,-0.188 -0.812,-0.117 -1.543,-0.543 -0.539,-0.058 -3.098,-1.161 -2.312,-0.605 -1.739,-0.266 -1.383,-0.488 -1.894,-0.41 -0.742,-0.215 -0.141,-0.066 0.086,-0.051 -2.844,-0.735 -1.804,-0.679 -1.321,-0.231 -2.226,-0.746 -1.297,-0.23 -1.477,-0.043 -3.402,-0.364 0.066,-0.054 -2.375,-0.117 -0.191,-0.082 -2.176,0.039 -0.262,0.086 0.125,0.058 -0.39,-0.027 -1.539,0.414 -0.828,0.371 -0.129,0.18 -0.383,0.027 0.141,-0.035 -0.118,0.062 0.114,0.012 -0.524,0.281 -0.363,0.832 0.133,0.391 0.183,0.129 -0.175,0.57 0.082,0.274 0.117,0.043 -0.02,0.195 -0.172,0.094 0.328,0.281 0.133,0.266 -0.086,0.121 0.207,0.195 -0.019,0.105 0.187,0.262 0.2,0.113 0.082,0.481 0.504,0.664 -0.137,0.102 0.527,0.273 0.184,0.172 -0.071,0.094 0.782,0.488 0.133,0.254 0.39,0.211 0.379,0.32 -0.082,0.035 2.613,0.637 0.235,0.23 0.078,-0.062 0.812,0.219"
                   style="fill:none;stroke:#000000;stroke-width:1.26872;stroke-linecap:round;stroke-linejoin:round;stroke-miterlimit:10;stroke-dasharray:none;stroke-opacity:1"
                   id="path1624" />
              </g>
              <g
                 id="g1626"
                 transform="matrix(1,0,0,-1,-104.71842,715.69467)">
                <path
                   d="m 950.668,-294.277 -0.254,0.207 0.063,0.117 0.121,-0.074 -0.149,-0.075 0.156,0.016 0.153,-0.461 0.719,-0.762 0.328,-0.543 0.125,-0.269 -0.039,-0.18 0.398,-0.406 -0.082,-0.18 -0.203,-0.054 0.16,-0.102 0.02,0.066 0.23,-0.043 0.32,0.211"
                   style="fill:none;stroke:#000000;stroke-width:1.26872;stroke-linecap:round;stroke-linejoin:round;stroke-miterlimit:10;stroke-dasharray:none;stroke-opacity:1"
                   id="path1628" />
              </g>
              <g
                 id="g1630"
                 transform="matrix(1,0,0,-1,-104.71842,715.69467)">
                <path
                   d="m 951.66,-293.133 0.84,0.473 0.633,0.601 1.676,0.938 0.968,0.355 0.219,0.129 0.008,0.117 1.039,0.364 5.211,2.418 1.215,0.351 1.043,0.535 1.148,0.301 2.07,0.793 0.489,0.086 0.015,0.094 0.414,0.207 1.028,0.367 2.89,0.625 1.661,0.508 0.664,0.105 0.652,0.266 1.066,0.184 0.446,0.238 1.957,0.426 2.578,0.734 1.203,0.461 1.234,0.336 0.602,0.367 2.863,1.125 8.07,1.684 0.352,0.183 1.856,0.5 2.441,0.539 2.629,0.879 2.328,0.528 2.648,0.847 1.34,0.321 0.86,0.359 1.054,0.227 2.379,0.269 -0.281,-0.035 0.187,-0.004 -0.312,-0.246 -0.379,-0.594"
                   style="fill:none;stroke:#000000;stroke-width:1.26872;stroke-linecap:round;stroke-linejoin:round;stroke-miterlimit:10;stroke-dasharray:none;stroke-opacity:1"
                   id="path1632" />
              </g>
              <g
                 id="g1634"
                 transform="matrix(1,0,0,-1,-104.71842,715.69467)">
                <path
                   d="m 1012.258,-274.121 0.215,0.047 -0.168,0.039 0.465,-0.813 0.218,-1.16 0.485,-0.574 0.054,-0.281 -0.125,-0.121 0.344,-0.215 -0.141,-0.391 -0.175,-0.105"
                   style="fill:none;stroke:#000000;stroke-width:1.26872;stroke-linecap:round;stroke-linejoin:round;stroke-miterlimit:10;stroke-dasharray:none;stroke-opacity:1"
                   id="path1636" />
              </g>
              <g
                 id="g1638"
                 transform="matrix(1,0,0,-1,-104.71842,715.69467)">
                <path
                   d="m 954.359,-297.625 0.02,-0.133 -0.133,0.031 0.137,0.047 0.734,0.176 2.488,0.5 3.622,1.25 3.148,0.856 3.988,0.847 0.731,0.254 1.265,0.18 3.973,1.308 3.137,1.223 1.179,0.207 2.18,0.902 3.715,0.911 5.109,1.507 v 0.086 l 3.008,0.778 4.285,1.336 1.379,0.668 0.024,0.097 3.754,1.086 1.058,0.578 1.188,0.34 0.367,0.192 0.808,0.164 1.192,0.523 0.871,0.168 0.312,0.203 2.797,0.559 0.106,0.133 h 0.258 l -0.27,0.007 0.164,-0.054 -0.121,-0.059"
                   style="fill:none;stroke:#000000;stroke-width:1.26872;stroke-linecap:round;stroke-linejoin:round;stroke-miterlimit:10;stroke-dasharray:none;stroke-opacity:1"
                   id="path1640" />
              </g>
              <g
                 id="g1642"
                 transform="matrix(1,0,0,-1,-104.71842,715.69467)">
                <path
                   d="m 885.789,-162.586 0.039,-0.387 0.25,-0.136 -0.156,-0.215 0.344,-0.055 -0.176,-0.078 0.004,-0.09 -0.055,0.055 0.141,-0.008 -0.227,0.004 0.145,0.101 -0.149,0.129 -0.394,0.77 0.004,0.203 -0.711,1.129 -0.082,0.199 0.117,0.133 -0.192,0.223 0.317,0.265 0.285,0.434 -0.016,0.117 0.871,0.879 2.106,0.812 1.594,0.29 1.843,-0.055 1.071,-0.195 h 0.59 l 0.179,0.089 0.278,-0.078 -0.102,0.125 -0.187,-0.043 0.156,-0.09 -0.321,-0.171"
                   style="fill:none;stroke:#000000;stroke-width:1.26872;stroke-linecap:round;stroke-linejoin:round;stroke-miterlimit:10;stroke-dasharray:none;stroke-opacity:1"
                   id="path1644" />
              </g>
              <g
                 id="g1646"
                 transform="matrix(1,0,0,-1,-104.71842,715.69467)">
                <path
                   d="m 899.836,-160.059 0.047,0.121 0.094,-0.019 -0.168,0.023 0.078,0.063 0.168,-0.016 0.015,-0.109 0.227,0.078 -0.145,-0.109 0.914,-1.114 v -0.16 l 0.45,-0.426 0.125,-0.261 -0.082,-0.137 0.156,0.023 0.207,-0.336 -0.055,-0.089 -0.164,0.074 h 0.289 l -0.191,-0.184 -0.024,-0.285 -0.156,-0.254 -0.293,-0.226 -0.242,-0.399 -0.547,-0.277 -0.055,-0.223 -0.48,-0.367 -0.551,-0.016 -0.945,-0.367 -0.688,0.024 -0.324,-0.211 -0.578,-0.11 -0.09,-0.07 0.094,-0.035 -0.422,-0.106 -0.086,-0.125 -0.156,0.075 0.015,-0.094 -0.328,-0.051 -0.39,0.109"
                   style="fill:none;stroke:#000000;stroke-width:1.26872;stroke-linecap:round;stroke-linejoin:round;stroke-miterlimit:10;stroke-dasharray:none;stroke-opacity:1"
                   id="path1648" />
              </g>
              <g
                 id="g1650"
                 transform="matrix(1,0,0,-1,-104.71842,715.69467)">
                <path
                   d="m 893.996,-159.867 -0.141,-0.035 0.34,0.011 0.25,-0.289 -0.05,-0.035 0.222,-0.16 -0.008,-0.344 0.106,-0.25 -0.067,-0.656 0.071,-0.105 -0.11,-0.254 -0.254,-0.235 0.032,-0.129 -0.192,-0.394 -0.558,-0.551 -0.282,-0.039 -0.898,-0.668 -0.559,-0.105 -0.543,-0.321 -0.402,-0.136 -0.316,0.027 0.203,0.094 -0.028,-0.086 -0.124,0.089 -0.126,0.356"
                   style="fill:none;stroke:#000000;stroke-width:1.26872;stroke-linecap:round;stroke-linejoin:round;stroke-miterlimit:10;stroke-dasharray:none;stroke-opacity:1"
                   id="path1652" />
              </g>
              <g
                 id="g1654"
                 transform="matrix(1,0,0,-1,-104.71842,715.69467)">
                <path
                   d="m 889.652,-161.555 -0.156,0.145 0.063,0.058 0.148,-0.136 -0.215,0.015 0.184,0.004 0.019,0.082 0.016,-0.117 0.937,-0.168 0.161,-0.129 0.972,0.387 -0.308,0.148 0.324,0.09 -0.168,0.031"
                   style="fill:none;stroke:#000000;stroke-width:1.26872;stroke-linecap:round;stroke-linejoin:round;stroke-miterlimit:10;stroke-dasharray:none;stroke-opacity:1"
                   id="path1656" />
              </g>
              <g
                 id="g1658"
                 transform="matrix(1,0,0,-1,-104.71842,715.69467)">
                <path
                   d="m 898.168,-159.039 -0.008,-0.098 -0.094,-0.004 0.161,0.114 0.058,-0.078 0.613,0.089 0.239,-0.093 -0.035,0.148 -0.114,-0.086 0.098,-0.023 -0.289,0.027"
                   style="fill:none;stroke:#000000;stroke-width:1.26872;stroke-linecap:round;stroke-linejoin:round;stroke-miterlimit:10;stroke-dasharray:none;stroke-opacity:1"
                   id="path1660" />
              </g>
            </g>
          </g>
        </g>
      </g>
    </g>
  </g>
</svg>
