<?xml version="1.0" encoding="UTF-8" standalone="no"?>
<!-- Created by Ashley Blewer - This work is licensed under a Creative Commons Attribution 4.0 International License -->

<svg
   width="544"
   height="480"
   viewBox="0 0 143.93334 127"
   version="1.1"
   id="svg2490"
   inkscape:version="1.2.2 (1:1.2.2+202212051552+b0a8486541)"
   sodipodi:docname="1965-single-8-3.svg"
   xmlns:inkscape="http://www.inkscape.org/namespaces/inkscape"
   xmlns:sodipodi="http://sodipodi.sourceforge.net/DTD/sodipodi-0.dtd"
   xmlns="http://www.w3.org/2000/svg"
   xmlns:svg="http://www.w3.org/2000/svg">
  <sodipodi:namedview
     id="namedview2492"
     pagecolor="#ffffff"
     bordercolor="#666666"
     borderopacity="1.0"
     inkscape:pageshadow="2"
     inkscape:pageopacity="0.0"
     inkscape:pagecheckerboard="0"
     inkscape:document-units="mm"
     showgrid="false"
     units="px"
     inkscape:zoom="0.90583674"
     inkscape:cx="337.25724"
     inkscape:cy="255.56482"
     inkscape:window-width="1846"
     inkscape:window-height="1136"
     inkscape:window-x="0"
     inkscape:window-y="0"
     inkscape:window-maximized="1"
     inkscape:current-layer="g6395"
     inkscape:showpageshadow="2"
     inkscape:deskcolor="#d1d1d1" />
  <defs
     id="defs2487" />
  <g
     inkscape:label="Layer 1"
     inkscape:groupmode="layer"
     id="layer1">
    <g
       id="g4731"
       transform="matrix(0.32961229,0,0,0.32903008,-241.78905,1.73126)"
       style="stroke-width:2.68698">
      <g
         id="g104528"
         transform="matrix(1,0,0,-1,0,792)"
         style="stroke-width:2.68698">
        <g
           id="g104530"
           style="stroke-width:2.68698" />
      </g>
      <g
         id="g104996"
         transform="matrix(1,0,0,-1,0,792)"
         style="stroke-width:2.68698">
        <g
           id="g104998"
           style="stroke-width:2.68698" />
      </g>
      <g
         id="g28852"
         transform="matrix(1.070281,0,0,1.0721748,779.91249,-443.13657)">
        <g
           id="g6718"
           transform="matrix(1.117886,0,0,1.117886,-549.13111,-491.62865)">
          <g
             id="g6395"
             transform="matrix(0.53415107,0,0,0.53415109,441.93669,415.26868)">
            <g
               id="g4842"
               transform="matrix(2.5639494,0,0,2.5639494,-1921.2828,-2244.0281)">
              <g
                 id="g1662"
                 transform="matrix(1,0,0,-1,-104.71842,715.69467)">
                <path
                   d="m 1034.598,-514.266 0.035,-0.097 -0.149,-0.047 0.235,-0.395 -0.043,-0.07 0.109,-0.031 -0.105,0.07 0.156,0.031 -0.168,0.032 0.117,0.019 -0.07,0.039 0.246,0.563 0.34,2.445 -0.199,1.019 0.086,0.915 0.164,0.394 -0.094,0.207 -0.067,0.899 0.168,1.878 -0.117,1.372 0.27,1.738 0.015,0.543 -0.117,0.254 0.164,0.547 0.223,0.226 -0.082,0.098 -0.016,0.543 0.117,0.742 0.543,1.809 -0.039,0.156 0.282,0.547 0.121,0.859 -0.051,0.231 0.301,0.531 -0.2,0.511 0.102,2.266 0.371,1.313 -0.058,0.132 0.164,0.215 -0.075,0.266 0.141,0.168 -0.262,0.207 0.028,0.183 0.113,0.055 -0.078,0.047 0.066,-0.141 -0.101,-0.062 0.113,-0.027 -0.606,-0.227"
                   style="fill:none;stroke:#000000;stroke-width:2.61674;stroke-linecap:round;stroke-linejoin:round;stroke-miterlimit:10;stroke-dasharray:none;stroke-opacity:1"
                   id="path1664" />
              </g>
              <g
                 id="g1666"
                 transform="matrix(1,0,0,-1,-104.71842,715.69467)">
                <path
                   d="m 1036.047,-490.016 0.098,-0.132 0.136,0.011 -0.09,-0.062 0.032,0.144 -0.219,0.016 0.133,0.164 -0.336,0.215 0.035,0.168 -0.5,1.054 -0.563,1.692 -0.265,0.531 -0.289,0.242 -0.149,0.535 0.02,0.305 -0.692,0.899 -0.117,0.55 -0.351,0.778 -1.063,1.64 -0.148,0.465 -1.457,1.953 -0.278,0.532 -0.015,0.316 -0.508,0.742 -0.074,0.473 -0.371,0.769 -0.891,1.336 -0.277,0.664 0.097,0.121 -0.035,0.153 -0.152,0.133 -0.699,1.488 -0.192,0.719 -0.285,0.476 -0.238,0.156 -0.266,0.801 -0.484,0.699 -0.184,0.477 -0.258,0.199 -0.062,0.289 0.074,0.086 -0.484,0.625 -0.149,0.34 0.067,0.168 -0.594,0.703 -0.375,0.953 -0.5,0.606 -0.145,0.422 -0.14,0.105 0.015,0.082 0.075,-0.066 -0.149,0.219 -0.215,0.089 -0.121,0.278 0.078,0.14 -0.562,0.504 -0.559,0.981 -0.203,0.16 0.043,0.129 -0.48,0.265 -0.149,0.344 -0.176,0.094 -0.027,0.195 0.141,0.055 -0.352,0.289 -0.426,0.598 -0.254,0.097 -0.074,0.172 -0.258,0.164 -0.238,0.051 -0.019,0.156 -0.672,0.469 -0.258,0.348 -0.391,0.187 -0.16,0.223 -0.871,0.242 -1.035,0.566 -0.242,-0.054 -0.547,0.312 -0.645,-0.097 -0.031,0.105 -0.633,0.035 -0.656,0.215 -0.16,-0.051 -0.344,0.192 -0.363,-0.079 -0.477,0.114 -0.14,-0.129 0.125,0.133 -0.043,-0.086 -0.938,-0.004 0.125,0.094 -1.168,-0.028 -0.262,0.078 v 0.09 l -0.394,0.02 -0.09,-0.09 -0.66,0.137 -0.606,-0.129 -0.472,0.129 -0.899,-0.118 -0.484,0.149 -0.105,-0.129 -0.79,0.004 -0.609,-0.156 -0.633,0.101 -1.176,-0.34 -1.117,-0.066 -0.195,-0.148 -0.336,0.023 -0.566,-0.149 -0.297,0.055 -1.242,-0.453 -0.957,-0.023 -0.622,-0.297 -0.285,0.039 -0.98,-0.215 -0.488,0.004 -0.188,-0.11 -1.078,0.028 -1.141,-0.344 -0.578,0.02 -0.09,-0.25 -0.132,-0.043 -0.344,0.047 -0.348,-0.149 -1.273,-0.187 -0.258,0.066 -0.106,-0.125 -1.625,-0.359 -0.23,-0.157 -0.742,0.024 -1.535,-0.547 -0.598,-0.016 -0.109,-0.113 -0.911,-0.133 -0.175,0.051 -1.297,-0.469 -0.77,-0.051 -2.039,-0.589 -0.726,-0.051 -0.192,0.078 -0.465,-0.246 -0.804,-0.055 -0.7,-0.265 -0.183,0.082 -0.828,-0.184 -0.688,0.02 -0.379,-0.086 -0.097,-0.129 -1.235,-0.086 -1.265,-0.309 -0.309,0.067 -4.008,-0.965 -1.32,-0.539 -0.902,-0.168 -1.016,-0.403 -2.121,-0.535 -0.422,0.028 -2.043,-0.329 -0.406,-0.156 -1.18,-0.074 -3.137,-0.859 -0.332,-0.008 -3.054,-0.758 h -0.332 l -1.622,-0.418 -0.179,-0.129 -1.141,-0.129 -1.035,-0.367 -1.91,-0.375 -0.609,-0.035 -0.266,-0.133 -0.949,-0.078 -2.746,-0.754 -0.993,-0.102 -0.195,-0.195 -0.816,0.059 -0.547,-0.09 -0.906,-0.285 -0.7,-0.039 -1.265,-0.364 -2.032,-0.297 -0.171,-0.164 -0.743,-0.031 -0.921,-0.371 -1.098,-0.109 -1.195,-0.461 -0.688,-0.125 -0.336,-0.227 -1.699,-0.418 -0.992,-0.457 -1.012,-0.156 -0.715,-0.332 -1.562,-0.359 -1.414,-0.567 -1.051,-0.289 -0.43,-0.301 -1.883,-0.609 -0.863,-0.445 -0.727,-0.235 -0.875,-0.441 -0.855,-0.621 -1.555,-0.762 -0.406,-0.25 -0.027,-0.16 -1.246,-0.645 -2.313,-1.625 -0.719,-0.371 -0.429,-0.336 -0.032,-0.191 -1.128,-0.727 -0.829,-0.808 -0.297,-0.172 -0.062,-0.242 -1.18,-0.813 -1.019,-1.168 -0.735,-1.14 -0.863,-0.813 -0.359,-0.476 0.121,-0.118 -0.024,-0.136 -0.961,-0.891 -0.558,-0.844 -0.789,-1.812 -0.516,-0.883 -0.305,-0.289 -1.617,-3.153 -0.257,-0.664 0.105,-0.402 -0.324,-0.305 -0.77,-1.539 0.024,-0.277 -0.633,-1.215 -0.875,-1.332 -0.149,-0.683 -0.574,-0.852 -0.129,-0.383 0.09,-0.086 -0.391,-0.523 0.122,-0.188 -0.59,-0.519 -0.11,-0.25 0.125,-0.145 -0.472,-0.812 0.031,-0.145 -0.285,-0.664 0.004,-0.207 -0.149,-0.262 -0.316,-0.183 0.273,-0.43 -0.101,-0.062 -0.028,-0.582 -0.175,-0.5 -0.02,-0.321 0.133,-0.211 -0.27,-0.992 -0.082,-1.094 0.09,-0.183 -0.152,-0.512 -0.188,-0.195 0.047,-0.391 0.121,-0.199 -0.113,-0.059 -0.215,-0.679 0.102,-0.551 -0.11,-0.199 0.059,-0.696 -0.254,-1.347 0.082,-1.407 -0.016,-0.386 -0.101,-0.18 0.082,-0.402 0.195,-0.215 -0.074,-0.485 -0.25,-0.171 0.297,-0.508 0.074,-2.031 0.172,-0.782 -0.027,-0.754 0.152,-0.636 0.168,-0.129 -0.066,-0.336 -0.239,-0.145 0.379,-0.34 0.074,-0.265 -0.093,-0.117 0.402,-0.805 0.203,-0.156 0.031,-0.305 0.188,-0.188 0.219,-0.714 1.562,-1.957 -0.156,-0.184 0.746,-0.484 0.148,-0.309 -0.105,-0.141 0.297,-0.214 0.406,-0.539 0.387,-0.258 0.644,-0.942 1.438,-1.558 -0.067,-0.157 0.891,-0.511 0.395,-0.481 -0.071,-0.183 0.653,-0.457 0.757,-0.719 0.528,-0.707 0.773,-0.473 -0.039,-0.058 0.625,-0.711 1.715,-1.571 -0.113,-0.082 0.031,-0.117 0.226,-0.074 1.211,-1.027 0.411,-0.493 0.433,-0.265 0.52,-0.16 -0.071,-0.051 0.387,-0.442 1.449,-1.121 0.317,-0.41 0.781,-0.539 -0.047,-0.098 0.52,-0.265 0.293,-0.305 0.347,-0.109 -0.066,-0.035 0.168,-0.375 0.324,-0.286 0.41,-0.164 0.035,-0.156 1.321,-1.183 0.129,-0.2 -0.051,-0.082 0.875,-0.5 0.195,-0.242 -0.039,-0.109 0.621,-0.278 0.082,-0.316 0.805,-0.793 -0.149,-0.039 0.165,0.023 -0.055,0.067 0.176,-0.063 -0.2,0.004 0.137,-0.015 -0.101,-0.168 1.046,-1.004 0.661,-1.375 0.082,-0.743 -0.075,-0.574 0.235,-0.804 0.269,-0.375 0.059,-0.922 0.293,-1.52 v -1.078 l -0.211,-0.234 0.121,-0.102 0.168,-0.672 -0.113,-0.324 0.07,-0.355 -0.094,-0.598 0.235,-0.184 -0.446,-0.355 -0.101,-0.867 -0.309,-0.813 -0.262,-0.152 0.09,-0.082 0.02,-0.426 -0.102,-0.332 -0.34,-0.262 0.121,-0.183 -0.093,-0.821 0.222,-0.222 -0.152,-0.094 -0.269,-0.523 -0.153,-0.622 0.071,-0.218 -0.52,-1.789 -0.207,-0.219 0.09,-0.711 -0.176,-0.524 -0.309,-0.07 -0.148,-0.137 0.16,-0.097 -0.078,-1.078 0.125,-0.262 -0.52,-1.16 0.118,-0.227 -0.668,-1.226 -0.094,-0.477 -0.293,-0.172 0.066,-0.074 -0.062,-0.598 -0.121,-0.343 -0.36,-0.215 0.133,-0.086 0.043,-0.496 -0.566,-1.325 -0.133,-0.394 0.094,-0.246 -0.192,-0.715 -0.304,-0.562 -0.098,-2.145 -0.199,-0.277 0.09,-0.535 0.152,-0.258 -0.246,-0.961 0.121,-0.828 -0.047,-0.719 0.133,-0.293 -0.113,-1.645 0.171,-0.925 -0.14,-0.727 0.152,-1.512 0.188,-0.281 -0.012,-0.793 -0.102,-0.312 0.098,-0.606 0.148,-0.301 -0.07,-0.41 0.067,-1.551 0.171,-0.957 0.223,-0.777 0.219,-0.32 0.047,-0.848 0.574,-1.387 0.207,-0.238 0.16,-0.609 -0.148,-0.223 0.363,-0.426 0.402,-0.211 -0.07,-0.101 0.105,-0.465 0.438,-1.059 0.875,-1.668 0.328,-1.113 1.133,-2.223 0.207,-0.543 -0.043,-0.25 0.324,-0.441 0.328,-0.223 0.157,-0.847 0.379,-0.563 0.304,-0.246 0.539,-0.89 0.621,-1.356 0.528,-0.641 0.672,-1.316 0.8,-0.852 0.489,-0.675 -0.063,-0.297 0.969,-0.922 1.695,-2.555 0.317,-0.281 0.543,-0.934 0.339,-0.297 2.02,-2.535 -0.094,-0.089 0.031,-0.126 0.879,-0.648 0.391,-0.519 -0.047,-0.176 1.52,-1.168 0.461,-0.199 0.507,-0.547 1.086,-0.707 0.883,-0.864 0.856,-0.644 0.171,-0.293 1.887,-1.305 -0.101,-0.09 0.05,-0.121 1.012,-0.519 0.406,-0.403 0.325,-0.117 0.254,-0.375 1.222,-0.539 0.465,-0.469 1.551,-0.773 0.652,-0.531 0.481,-0.254 0.101,-0.156 2.145,-0.95 0.8,-0.465 0.52,-0.136 0.367,-0.406 1.094,-0.489 0.91,-0.609 0.711,-0.18 1.047,-0.73 1.441,-0.629 0.43,-0.285 0.738,-0.246 0.207,-0.149 -0.004,-0.117 0.579,-0.32 0.867,-0.235 0.406,-0.324 1.883,-0.66 0.258,-0.192 2.777,-0.89 1.617,-0.313 0.274,-0.16 0.898,-0.23 1.629,-0.215 0.965,-0.231 6.285,-0.769 0.281,0.062 8.469,-0.625 3.125,-0.007 2.262,0.171 3.433,0.059 1.754,0.121 4.461,0.613 1.106,-0.027 6.425,0.773 5.989,1.317 1.257,0.125 1.348,0.422 5.07,0.898 2.938,0.754 2.707,0.488 0.906,0.301 1.504,0.281 0.309,0.176 3.625,0.867 1.898,0.219 1.879,0.406 1.848,0.243 4.117,0.957 0.383,0.203 0.687,0.019 1.551,0.348 2.262,0.297 3.711,0.695 1.918,0.481 2.75,0.363 2.179,0.527 1.961,0.317 3.664,0.949 1.856,0.242 3.496,0.789 3.445,0.566 3.797,0.961 1.031,0.137 3.485,1.137 3.832,0.918 1.906,0.656 3.562,0.914 1.332,0.539 0.321,0.024 1,0.347 0.086,0.125 0.215,0.043 -0.02,0.071 0.715,0.136 3.793,1.61 0.262,0.187 -0.059,0.07 0.594,0.235 0.679,0.597 0.18,0.293 0.336,0.215 1.078,1.145 0.01,0.113 0.348,0.18 0.054,0.207 -0.082,0.055 0.274,0.121 0.019,0.187 0.469,0.547 0.461,0.98 0.312,0.45 0.079,0.281 -0.137,0.121 0.332,0.301 0.113,0.719 0.117,0.171 -0.027,0.719 0.074,0.09 -0.051,0.324 -0.25,0.157 0.262,0.281 0.02,0.32 -0.086,0.168 0.183,0.512 0.141,0.133 0.023,0.718 0.336,1.121 -0.14,0.504 0.187,0.399 v 0.277 l -0.203,0.125 h 0.098 l 0.172,0.324 -0.051,-0.086 -0.082,0.075 0.062,0.007 -0.144,-0.035 0.172,0.004 -0.137,0.043 -0.359,0.559 -0.211,0.59 -0.411,0.64 -0.328,0.317 -0.324,1.457 -0.184,0.269 -0.027,0.551 -0.277,1.309 -0.227,0.445 -0.047,0.601 -0.484,0.875 -0.137,0.524 -0.472,0.676 -0.075,0.476 -0.496,1.422 -0.394,0.781 -0.074,0.797 -0.368,0.61 -0.855,2.136 -0.578,0.774 -0.391,0.988 -1.711,2.914 v 0.301 l -0.711,0.668 -0.504,0.855 -0.968,1.231 -1.153,1.988 -0.394,0.996 0.027,0.16 -0.492,0.586 -0.168,0.418 0.062,0.207 -0.378,0.496 -0.551,1.141 -0.192,0.211 -0.148,0.625 -0.469,0.492 -1.012,2.07 0.028,0.239 -0.692,1.132 -0.511,1.403 -0.453,0.523 -0.184,0.36 0.012,0.195 -0.5,0.551 -0.289,0.496 -0.118,0.25 0.039,0.137 -1.281,2.015 0.055,0.156 -0.242,0.141 -0.071,0.375 -0.433,0.426 -0.012,0.16 -0.363,0.504 -0.231,0.598 -0.496,0.835 0.01,0.133 -0.691,0.93 -0.086,0.269 0.074,0.161 -0.559,0.558 -0.047,0.473 -0.632,0.926 0.011,0.269 -0.504,0.571 -0.496,1.125 v 0.183 l -0.394,0.481 0.125,0.023 0.01,-0.176 0.089,0.071 -0.16,0.011 0.184,-0.027 -0.141,-0.039 -0.211,0.14"
                   style="fill:none;stroke:#000000;stroke-width:2.61674;stroke-linecap:round;stroke-linejoin:round;stroke-miterlimit:10;stroke-dasharray:none;stroke-opacity:1"
                   id="path1668" />
              </g>
              <g
                 id="g1670"
                 transform="matrix(1,0,0,-1,-104.71842,715.69467)">
                <path
                   d="m 1075.113,-564.613 -0.125,0.093 0.074,0.168 0.063,-0.027 -0.074,-0.062 0.097,0.074 -0.21,-0.004 -1.165,-0.285 -2.062,-0.332 -1.977,-0.512 -4.828,-1.668 -1.105,-0.586 -0.489,-0.375 -0.523,-0.133 -1.937,-0.332 -1.497,-0.136 -0.132,-0.067 0.14,-0.015 -0.297,-0.036 -0.496,0.063 -0.097,0.121"
                   style="fill:none;stroke:#000000;stroke-width:2.61674;stroke-linecap:round;stroke-linejoin:round;stroke-miterlimit:10;stroke-dasharray:none;stroke-opacity:1"
                   id="path1672" />
              </g>
              <g
                 id="g1674"
                 transform="matrix(1,0,0,-1,-104.71842,715.69467)">
                <path
                   d="m 1056.598,-567.336 0.183,-0.309 -0.07,-0.058 0.141,-0.031 -0.18,0.164 0.125,0.019 -0.215,0.028 0.098,-0.004 v 0.082 l -0.254,0.504 -0.168,0.796 -0.375,0.993 -0.988,2.023 -0.024,0.223 -0.609,0.66 -0.246,0.558 -1.446,2.274 -2.027,2.504 -0.731,0.504 -0.324,0.551 -2.183,2.414 -0.621,0.3 -0.922,0.731 -0.282,0.113 -0.265,0.387 -1.465,1.308 -0.453,0.368 -0.535,0.269 -0.305,0.418 -0.836,0.5 -1.996,1.723 -1.75,0.715 -0.531,0.418 -0.844,0.3 -1.434,0.942 -1.89,0.738 -0.969,0.598 -0.07,0.183 -0.563,0.274 -1.762,1.207 -0.374,0.113 -0.278,0.336 -0.664,0.301 -2.738,2.191 -0.391,0.172 -0.472,0.484 -0.407,0.122 -0.812,0.964 -0.703,1.129 -0.086,0.332 -0.242,0.301 -0.086,0.488 -0.157,0.274 -0.254,0.168 0.102,0.437 -0.062,1.422 0.07,0.793 0.226,0.914 0.094,2.598 0.125,0.285 -0.047,0.531 -0.136,0.274 0.246,0.652 -0.02,0.559 0.309,1.832 -0.055,0.3 0.289,0.95 0.094,1.972 0.105,0.664 0.133,0.246 0.051,0.622 -0.086,0.214 0.476,1.036 0.047,0.5 0.297,0.41 0.035,1.383 0.094,0.187 -0.121,0.566 -0.133,0.165 0.141,0.3 v -0.258 h -0.067 l 0.282,0.176 -0.028,0.137"
                   style="fill:none;stroke:#000000;stroke-width:2.61674;stroke-linecap:round;stroke-linejoin:round;stroke-miterlimit:10;stroke-dasharray:none;stroke-opacity:1"
                   id="path1676" />
              </g>
              <g
                 id="g1678"
                 transform="matrix(1,0,0,-1,-104.71842,715.69467)">
                <path
                   d="m 890.375,-527.934 -0.102,-0.074 0.254,-0.008 -0.144,-0.054 0.062,-0.356 -0.109,-0.187 0.172,-0.25 -0.059,-0.489 0.262,-0.437 0.051,-1.188 -0.114,-0.421 0.145,-0.313 -0.176,-0.508 -0.066,-0.664 0.16,-0.742 -0.102,-0.742 0.27,-1.43 -0.008,-0.926 0.207,-0.476 -0.109,-0.422 0.347,-0.871 0.207,-0.172 0.051,-0.574 0.387,-0.731 0.258,-1.679 0.242,-0.52 0.051,-0.394 -0.078,-0.188 0.523,-1.062 0.172,-0.172 0.094,-0.676 0.215,-0.352 0.234,-0.144 0.07,-0.543 0.496,-1.246 0.364,-0.61 0.183,-0.468 -0.039,-0.18 0.582,-0.707 0.52,-1.039 0.117,-0.469 0.277,-0.418 0.332,-0.184 0.188,-0.578 1.258,-1.683 0.207,-0.512 1.101,-1.5 0.043,-0.25 0.559,-0.57 0.343,-0.203 0.258,-0.411 -0.058,-0.144 0.527,-0.449 0.867,-1.012 0.961,-1.457 1.07,-1.273 0.254,-0.129 0.176,-0.371 -0.027,-0.133 0.734,-0.465 0.324,-0.496 0.809,-0.86 0.07,-0.195 0.867,-0.73 0.196,-0.371 0.633,-0.422 0.324,-0.473 0.984,-0.715 0.371,-0.437 1.383,-1.075 0.266,-0.378 0.406,-0.29 -0.063,-0.089 0.395,-0.184 0.574,-0.676 0.477,-0.328 0.113,0.063"
                   style="fill:none;stroke:#000000;stroke-width:2.61674;stroke-linecap:round;stroke-linejoin:round;stroke-miterlimit:10;stroke-dasharray:none;stroke-opacity:1"
                   id="path1680" />
              </g>
              <g
                 id="g1682"
                 transform="matrix(1,0,0,-1,-104.71842,715.69467)">
                <path
                   d="m 911.977,-598.391 -0.372,-0.082 0.333,-0.148 -0.016,-0.16 0.215,-0.403 0.144,-0.64 -0.074,-0.149 0.328,-1.168 0.035,-0.457 -0.093,-0.152 0.121,-0.312 0.281,-0.184 -0.09,-0.082 -0.039,-0.442 0.082,-0.527 -0.062,-0.238 0.285,-1.184 -0.016,-0.679 0.238,-1.247 0.215,-0.226 -0.008,-0.399 -0.14,-0.292 0.367,-0.469 -0.059,-0.422 0.25,-0.926 0.024,-0.773 0.554,-2.176 -0.074,-0.301 0.391,-0.621 0.023,-0.414 -0.109,-0.234 0.281,-0.747 0.121,-1.089 -0.066,-0.192 0.308,-1.219 -0.039,-0.273 0.149,-0.926 0.215,-0.761 -0.016,-0.262 0.344,-0.731 0.027,-0.453 -0.129,-0.23 0.242,-0.555 0.196,-0.199 0.07,-0.582 0.438,-1.34 1.007,-1.969 0.868,-1.222 0.3,-0.586 -0.004,-0.192 0.434,-0.566 0.395,-0.25 0.179,-0.684 1.313,-1.668 0.324,-0.57 -0.004,-0.234 1.191,-1.77 0.79,-0.883 0.402,-0.222 0.117,-0.235 -0.031,-0.176 0.5,-0.589 0.156,-0.34 0.59,-0.504 v -0.238 l 0.781,-0.579 0.844,-1.152 0.476,-0.266 0.082,-0.289 0.563,-0.355 0.781,-1.106 0.11,-0.293 0.449,-0.503 0.398,-0.188 v -0.254 l 0.145,-0.32 0.937,-1.016 0.43,-0.625 1.25,-2.086 0.352,-0.359 0.367,-0.852 0.652,-0.789 0.852,-0.707 0.297,-0.535 -0.051,-0.187 0.871,-0.551 1.515,-2.047 3.278,-2.934 -0.086,-0.082 0.066,-0.113 1.157,-0.648 0.589,-0.551 0.055,-0.246 1.063,-0.66 0.863,-0.403 0.855,-0.801 2.446,-1.519 1.113,-0.414 0.496,-0.242 -0.082,-0.035 0.043,-0.063 1.465,-0.492 0.683,-0.434 1.106,-0.375 0.484,-0.336 0.27,-0.004 1.547,-0.511 0.964,-0.508 1.325,-0.301 1.461,-0.488 3.136,-0.715 1.106,-0.309 0.812,-0.343 1.735,-0.282 2.601,-0.593 2.188,-0.282 0.597,-0.183 8.485,-0.817 3.367,-0.086 5.199,0.161 7.516,0.91 1.094,0.054 2.261,0.649 4.707,1.137 3.696,1.125 0.664,0.304 1.066,0.199 2.742,0.793 0.328,0.211 1.664,0.289 1.063,0.313 0.191,0.152 2.043,0.645 5.407,1.234 1.418,0.414 0.121,0.114 1.933,0.597 0.184,0.074 -0.078,0.063 0.086,0.066 2.16,0.668 2.07,0.539 1.199,0.196 4.336,1.101 0.965,0.364 3.953,0.925 0.946,0.422 2.109,0.563 2.414,0.886 2.328,0.528 5.195,1.695 2.864,0.773 4.429,0.915 1.403,0.515 1.535,0.383 3.047,0.664 2.746,0.453 2.371,0.559 1.922,0.312 3.789,0.992 1.637,0.247 2.164,0.625 0.109,0.003 v -0.082 l 0.059,0.059 -0.149,0.008 0.211,-0.024 -0.074,0.059 0.953,-0.008 0.844,0.149 0.613,0.312 0.883,0.199 2.961,1.18 0.949,0.613 0.168,0.199 -0.035,0.079 0.555,0.273 1.003,0.926 0.09,0.305 0.504,0.347 0.598,0.754 -0.07,0.051 0.152,0.125 -0.02,0.207 0.262,0.809 v 0.511 l 0.731,2.125 0.261,0.457 0.028,0.242 -0.086,0.102 0.234,0.371 -0.016,0.938 0.172,0.48 0.075,0.461 -0.059,0.168 0.367,1.453 -0.066,0.531 0.101,0.43 0.176,0.176 -0.066,0.465 0.187,1.336 -0.051,0.125 0.231,0.812 0.117,0.774 -0.07,0.097 0.297,0.309 -0.188,0.304 0.141,0.125 -0.043,0.079 0.144,0.027 -0.172,0.012 -0.382,0.441"
                   style="fill:none;stroke:#000000;stroke-width:2.61674;stroke-linecap:round;stroke-linejoin:round;stroke-miterlimit:10;stroke-dasharray:none;stroke-opacity:1"
                   id="path1684" />
              </g>
              <g
                 id="g1686"
                 transform="matrix(1,0,0,-1,-104.71842,715.69467)">
                <path
                   d="m 1030.996,-515.695 0.078,0.109 0.309,-0.855 0.371,-0.317 0.117,-0.137 -0.074,-0.089 0.328,-0.239 0.523,-0.746 0.731,-0.761 0.922,-1.411 0.14,-0.468 0.434,-0.496 0.461,-0.965 0.359,-0.442 0.137,-0.535 0.832,-1.383 -0.074,-0.097 0.344,-0.36 0.628,-1.234 0.243,-0.149 0.125,-0.46 0.371,-0.411 0.527,-0.898 0.231,-0.688 0.414,-0.574 0.492,-1.105 0.484,-0.555 0.164,-0.527 0.492,-0.637 0.579,-1.043 0.765,-1.801 0.856,-1.16 0.316,-0.875 0.477,-0.582 0.386,-1.297 0.696,-1.582 -0.039,-0.18 0.543,-0.773 0.566,-1.148 0.039,-0.289 0.242,-0.36 0.258,-0.168 0.031,-0.363 0.657,-1.602 0.367,-0.5 0.535,-1.082 0.18,-0.593 0.222,-0.188 0.106,-0.644 0.785,-1.852 0.473,-0.688 0.472,-0.949 0.238,-0.222 0.219,-0.442 0.235,-0.18 0.183,-0.585 0.496,-0.555 0.457,-1.266 0.25,-0.371 0.489,-1.172 0.687,-1.109 0.191,-0.656 0.192,-0.305 0.254,-0.141 0.054,-0.488 0.633,-1.258 0.164,-0.527 0.711,-1.145 0.481,-1.078 0.371,-0.406 0.043,-0.441 0.769,-0.911 0.434,-0.687 0.02,-0.18 0.429,-0.453 0.375,-0.64 0.16,-0.118 0.141,0.309"
                   style="fill:none;stroke:#000000;stroke-width:1.26872;stroke-linecap:round;stroke-linejoin:round;stroke-miterlimit:10;stroke-dasharray:none;stroke-opacity:1"
                   id="path1688" />
              </g>
              <g
                 id="g1690"
                 transform="matrix(1,0,0,-1,-104.71842,715.69467)">
                <path
                   d="m 1036.375,-507.648 -0.055,-0.09 0.368,-0.328 -0.024,-0.086 0.375,-0.149 -0.062,-0.133 1.433,-2.035 0.567,-0.929 -0.012,-0.149 0.437,-0.48 0.684,-1.422 0.383,-0.567 0.011,-0.222 0.547,-0.742 0.68,-1.563 0.379,-0.555 0.055,-0.343 0.679,-1.137 0.149,-0.344 -0.086,-0.195 0.453,-0.492 0.805,-1.723 0.886,-1.371 0.164,-0.414 0.215,-0.168 0.168,-0.508 0.77,-0.867 -0.01,-0.145 0.402,-0.363 0.594,-1.066 0.188,-0.543 0.859,-1.293 0.226,-0.602 0.399,-0.644 0.152,-0.372 -0.035,-0.175 0.617,-0.762 0.723,-1.473 0.422,-0.582 0.488,-1.097 0.609,-0.871 0.157,-0.532 -0.024,-0.297 0.547,-0.843 0.469,-1.235 0.976,-1.086 0.286,-0.574 0.578,-0.703 0.097,-0.418 0.207,-0.305 0.106,-0.777 0.344,-0.523 0.285,-0.227 0.265,-0.828 0.446,-0.695 0.25,-0.602 0.226,-0.254 0.032,-0.246 1.351,-2.969 0.352,-0.562 0.265,-0.227 0.211,-0.441 -0.015,-0.281 0.414,-0.489 0.59,-1.078 0.527,-0.558 0.855,-1.641 0.293,-0.359 0.145,-0.43 -0.07,-0.234 1.347,-2.215 0.211,-0.164 -0.019,-0.153 0.23,-0.48 0.813,-1.039 0.168,-0.25 -0.024,-0.125 0.531,-0.477 0.532,-1.101 0.464,-0.469 0.387,-0.973 0.219,-0.199 0.125,-0.461 0.559,-0.848 0.054,-0.281 0.332,-0.363 0.028,-0.11 -0.125,-0.05 0.503,-0.368 0.188,-0.519 0.242,-0.121 0.121,-0.527 0.102,0.035 -0.164,0.043 0.23,0.207"
                   style="fill:none;stroke:#000000;stroke-width:1.26872;stroke-linecap:round;stroke-linejoin:round;stroke-miterlimit:10;stroke-dasharray:none;stroke-opacity:1"
                   id="path1692" />
              </g>
              <g
                 id="g1694"
                 transform="matrix(1,0,0,-1,-104.71842,715.69467)">
                <path
                   d="m 1038.926,-515.508 0.023,-0.156 -0.097,0.07 0.132,-0.062 -0.238,-0.207 0.059,-0.235 -0.223,-0.214 0.031,-0.223 0.532,-0.223 0.3,-0.039 0.012,0.117 -0.102,-0.066"
                   style="fill:none;stroke:#000000;stroke-width:1.26872;stroke-linecap:round;stroke-linejoin:round;stroke-miterlimit:10;stroke-dasharray:none;stroke-opacity:1"
                   id="path1696" />
              </g>
              <g
                 id="g1698"
                 transform="matrix(1,0,0,-1,-104.71842,715.69467)">
                <path
                   d="m 1042.523,-521.75 -0.117,0.035 0.121,-0.031 0.024,-0.219 -0.153,-0.242 0.168,-0.25 -0.105,-0.465 0.859,-0.199 -0.156,-0.078 0.113,-0.067"
                   style="fill:none;stroke:#000000;stroke-width:1.26872;stroke-linecap:round;stroke-linejoin:round;stroke-miterlimit:10;stroke-dasharray:none;stroke-opacity:1"
                   id="path1700" />
              </g>
              <g
                 id="g1702"
                 transform="matrix(1,0,0,-1,-104.71842,715.69467)">
                <path
                   d="m 1046.23,-528.836 -0.023,-0.082 h -0.156 l 0.293,-0.074 -0.102,-0.172 0.051,-0.199 -0.234,-0.442 0.129,-0.238 -0.102,-0.035 0.637,-0.387 0.422,-0.027 -0.114,-0.078"
                   style="fill:none;stroke:#000000;stroke-width:1.26872;stroke-linecap:round;stroke-linejoin:round;stroke-miterlimit:10;stroke-dasharray:none;stroke-opacity:1"
                   id="path1704" />
              </g>
              <g
                 id="g1706"
                 transform="matrix(1,0,0,-1,-104.71842,715.69467)">
                <path
                   d="m 1050.68,-535.965 v -0.543 l -0.094,0.008 0.082,-0.164 -0.031,-0.414 -0.114,-0.043 0.661,-0.309 0.14,0.02 -0.09,-0.039"
                   style="fill:none;stroke:#000000;stroke-width:1.26872;stroke-linecap:round;stroke-linejoin:round;stroke-miterlimit:10;stroke-dasharray:none;stroke-opacity:1"
                   id="path1708" />
              </g>
              <g
                 id="g1710"
                 transform="matrix(1,0,0,-1,-104.71842,715.69467)">
                <path
                   d="m 1053.938,-544.145 0.011,0.145 -0.156,0.098 0.23,0.058 -0.168,-0.109 0.2,-0.004 -0.043,-0.293 -0.133,-0.09 0.125,-0.234 -0.082,-0.18 -0.176,-0.07 1.152,-0.317 0.59,-0.027 0.071,-0.039 -0.102,-0.105"
                   style="fill:none;stroke:#000000;stroke-width:1.26872;stroke-linecap:round;stroke-linejoin:round;stroke-miterlimit:10;stroke-dasharray:none;stroke-opacity:1"
                   id="path1712" />
              </g>
              <g
                 id="g1714"
                 transform="matrix(1,0,0,-1,-104.71842,715.69467)">
                <path
                   d="m 1058.086,-551.02 0.07,-0.195 -0.14,-0.004 0.187,0.024 -0.133,0.015 0.098,-0.246 -0.246,-0.312 0.027,-0.324 -0.148,-0.086 0.469,-0.024 0.73,-0.18 -0.211,-0.007"
                   style="fill:none;stroke:#000000;stroke-width:1.26872;stroke-linecap:round;stroke-linejoin:round;stroke-miterlimit:10;stroke-dasharray:none;stroke-opacity:1"
                   id="path1716" />
              </g>
              <g
                 id="g1718"
                 transform="matrix(1,0,0,-1,-104.71842,715.69467)">
                <path
                   d="m 1061.305,-557.941 0.058,0.074 -0.078,0.125 0.067,-0.11 -0.141,-0.293 0.129,-0.191 -0.16,-0.133 0.144,-0.14 -0.164,-0.067 0.938,-0.074 -0.09,-0.055"
                   style="fill:none;stroke:#000000;stroke-width:1.26872;stroke-linecap:round;stroke-linejoin:round;stroke-miterlimit:10;stroke-dasharray:none;stroke-opacity:1"
                   id="path1720" />
              </g>
              <g
                 id="g1722"
                 transform="matrix(1,0,0,-1,-104.71842,715.69467)">
                <path
                   d="m 1065.832,-563.941 -0.137,0.023 v -0.152 l -0.121,0.004 0.145,-0.129 -0.219,-0.125 -0.234,-0.586 0.195,-0.145 -0.047,-0.062 0.629,-0.27 0.68,-0.078 -0.27,0.109"
                   style="fill:none;stroke:#000000;stroke-width:1.26872;stroke-linecap:round;stroke-linejoin:round;stroke-miterlimit:10;stroke-dasharray:none;stroke-opacity:1"
                   id="path1724" />
              </g>
              <g
                 id="g1726"
                 transform="matrix(1,0,0,-1,-104.71842,715.69467)">
                <path
                   d="m 947.312,-503.133 0.2,-0.004 -0.043,0.11 0.91,0.691 1.012,0.535 0.043,0.102 2.304,0.633 1.289,0.695 2.098,0.289 2.422,0.102 1.961,-0.125 2.097,-0.317 3.29,-0.851 0.363,-0.278 0.582,-0.191 0.98,-0.535 0.86,-0.711 0.925,-1.407 0.278,-0.175 0.359,-0.918 0.317,-0.309 0.746,-1.387 0.261,-0.593 -0.046,-0.231 0.281,-0.515 0.222,-0.977 0.016,-0.621 -0.281,-0.254 0.012,-0.145 0.183,-0.605 0.313,-0.281 -0.243,-0.668 0.243,-0.778 -0.039,-0.148 -0.118,-0.02 0.09,-0.121 -0.117,-0.117 -0.434,-0.035"
                   style="fill:none;stroke:#000000;stroke-width:1.26872;stroke-linecap:round;stroke-linejoin:round;stroke-miterlimit:10;stroke-dasharray:none;stroke-opacity:1"
                   id="path1728" />
              </g>
              <g
                 id="g1730"
                 transform="matrix(1,0,0,-1,-104.71842,715.69467)">
                <path
                   d="m 944.242,-505.5 0.149,-0.215 0.199,-0.055 -0.473,0.208 -0.609,0.082 -0.153,-0.09 0.165,-0.082 -0.426,-0.16 -0.137,-0.204 0.223,-0.14 -0.407,-0.27 -0.523,-1.164 -0.016,-1.16 -0.113,-0.234 0.18,-1.321 0.211,-0.254 -0.153,-0.964 0.141,-0.438 0.414,-0.277 -0.133,-0.098 0.157,-0.691 0.722,-1.586 0.61,-0.793 0.601,-1.184 1.309,-1.539 2.066,-1.332 1.438,-0.66 1.761,-0.547 1.571,-0.301 4.632,-0.379 0.95,0.063 1.968,0.324 0.473,0.168 0.055,0.102 0.594,0.093 1.246,0.395 0.519,0.332 0.149,-0.008 -0.207,-0.043 -0.364,0.231"
                   style="fill:none;stroke:#000000;stroke-width:1.26872;stroke-linecap:round;stroke-linejoin:round;stroke-miterlimit:10;stroke-dasharray:none;stroke-opacity:1"
                   id="path1732" />
              </g>
              <g
                 id="g1734"
                 transform="matrix(1,0,0,-1,-104.71842,715.69467)">
                <path
                   d="m 953.148,-516.762 0.774,-0.652 1.308,-0.438 1.168,0.004 1.817,0.203 2.637,0.7 0.695,0.359 0.719,0.148 0.324,0.172 0.269,0.473 -0.343,0.605"
                   style="fill:none;stroke:#000000;stroke-width:1.26872;stroke-linecap:round;stroke-linejoin:round;stroke-miterlimit:10;stroke-dasharray:none;stroke-opacity:1"
                   id="path1736" />
              </g>
              <g
                 id="g1738"
                 transform="matrix(1,0,0,-1,-104.71842,715.69467)">
                <path
                   d="m 953.512,-505.09 -0.035,-0.074 0.976,0.191 0.449,-0.004 2.45,-0.171 1.429,-0.43 0.992,-0.449 1.903,-1.196 0.121,-0.277 -0.082,-0.125 0.258,-0.316 0.168,-0.5 -0.086,-0.36 -0.176,-0.246 -0.383,-0.144"
                   style="fill:none;stroke:#000000;stroke-width:1.26872;stroke-linecap:round;stroke-linejoin:round;stroke-miterlimit:10;stroke-dasharray:none;stroke-opacity:1"
                   id="path1740" />
              </g>
              <g
                 id="g1742"
                 transform="matrix(1,0,0,-1,-104.71842,715.69467)">
                <path
                   d="m 926.902,-487.578 -0.023,-0.445 0.078,0.097 -0.066,0.125 0.171,0.031 0.297,0.403 0.813,0.73 -0.035,0.16 2.129,1.411 2.343,0.898 0.93,0.508 0.176,-0.012 0.457,0.227 1.769,0.359 1.196,0.465 1.867,0.082 v -0.086 l -0.141,-0.039 0.657,-0.426 0.984,-0.441 -0.02,-0.078 0.403,-0.043 -0.09,-0.157 0.125,0.082 -0.254,-0.031 0.09,0.008 0.605,-0.949 -0.09,0.137 0.141,0.019 -0.269,0.02 0.226,0.07 -0.082,-0.09 -0.101,0.039 0.035,0.07 -0.028,-0.117 0.086,0.071 -0.203,-0.004 0.199,0.011 -0.199,-0.015 0.024,0.082 -0.664,-0.239 -0.551,-0.019 -0.149,-0.109 -2.277,-0.086 -0.652,-0.239 -1.598,-0.207 -0.332,-0.148 -1.152,-0.199 -0.661,-0.2 -0.589,-0.312 -0.594,-0.09 -0.227,-0.195 -0.57,-0.184 -0.316,-0.222 0.097,-0.051 -0.269,0.008 -0.7,-0.247 -1.031,-0.675 -0.094,-0.157 -0.273,-0.078 -0.156,-0.156 0.023,-0.109 -0.324,-0.145 0.156,-0.043 0.121,0.028 -0.25,0.011 0.114,0.059 -0.153,-0.059 0.117,0.086 h -0.175 l 0.285,0.02 -0.219,-0.063 0.09,0.031 -0.051,0.09 -0.781,0.914 0.156,0.094 -0.082,-0.117 0.125,-0.024"
                   style="fill:none;stroke:#000000;stroke-width:1.26872;stroke-linecap:round;stroke-linejoin:round;stroke-miterlimit:10;stroke-dasharray:none;stroke-opacity:1"
                   id="path1744" />
              </g>
              <g
                 id="g1746"
                 transform="matrix(1,0,0,-1,-104.71842,715.69467)">
                <path
                   d="m 926.664,-491.707 -0.16,-0.258 0.086,-0.32 -0.125,-0.051 0.308,-0.211 0.024,-0.176 0.371,-0.25 0.617,0.071 0.332,0.144 0.141,0.231 -0.082,0.144 -0.18,0.043 0.106,0.113 -0.911,0.567 -0.226,0.012"
                   style="fill:none;stroke:#000000;stroke-width:1.26872;stroke-linecap:round;stroke-linejoin:round;stroke-miterlimit:10;stroke-dasharray:none;stroke-opacity:1"
                   id="path1748" />
              </g>
              <g
                 id="g1750"
                 transform="matrix(1,0,0,-1,-104.71842,715.69467)">
                <path
                   d="m 928.172,-557.059 -0.051,-0.109 -0.305,0.219 -0.289,0.054 0.094,-0.054 -0.359,-0.149 -0.703,-1.316 0.175,-0.449 0.75,-0.571 0.754,-0.207 1.055,0.063 0.918,0.375 0.437,0.43 0.563,0.367 0.07,0.351 -0.109,0.371 -0.238,0.282 -0.504,0.316 -1.121,0.207 -0.899,-0.191 -0.652,-0.399 -0.063,0.063"
                   style="fill:none;stroke:#000000;stroke-width:1.26872;stroke-linecap:round;stroke-linejoin:round;stroke-miterlimit:10;stroke-dasharray:none;stroke-opacity:1"
                   id="path1752" />
              </g>
              <g
                 id="g1754"
                 transform="matrix(1,0,0,-1,-104.71842,715.69467)">
                <path
                   d="m 1004.852,-466.637 -0.614,0.145 -0.136,-0.153 -0.125,0.079 -0.204,-0.071 -0.089,-0.316 -0.332,-0.262 0.054,-0.105 -0.297,-0.496 -0.043,-0.391 0.184,-0.223 -0.066,-0.136 0.082,-0.219 -0.078,-0.086 0.273,-0.219 0.894,-0.238 1.125,0.144 0.793,0.348 0.043,0.496 -0.234,0.41 -0.703,0.34 -0.567,0.055 -0.617,-0.16 -0.398,-0.399"
                   style="fill:none;stroke:#000000;stroke-width:1.26872;stroke-linecap:round;stroke-linejoin:round;stroke-miterlimit:10;stroke-dasharray:none;stroke-opacity:1"
                   id="path1756" />
              </g>
              <g
                 id="g1758"
                 transform="matrix(1,0,0,-1,-104.71842,715.69467)">
                <path
                   d="m 1014.371,-487.359 -0.059,0.144 0.129,-0.07 -0.156,0.148 0.121,0.266 -0.359,0.793 -0.219,0.164 -0.055,0.519 -0.433,1.04 0.035,0.402 -0.102,0.418 0.082,0.074 -0.113,0.484 -0.148,0.184 0.133,0.281 0.257,0.11 -0.086,0.261 0.106,0.032 0.058,0.297 0.188,0.234 0.305,0.238 -0.047,0.078 0.707,0.52 0.258,0.023 0.16,0.153 1.324,-0.321 0.629,-0.636 0.391,-0.875 0.711,-1.055 0.148,-0.336 -0.098,-0.191 0.434,-0.418 0.176,-0.704 -0.071,-0.144 0.274,-0.207 0.086,-0.293 -0.035,0.101 -0.129,-0.027 0.156,-0.047 -0.125,0.012 -0.344,-0.297 -0.406,-0.051 -0.129,-0.164 0.031,-0.113 -0.594,-0.238 -0.226,-0.153 0.059,-0.105 -1.489,-0.598 -0.34,-0.226 -0.769,-0.203 0.23,-0.036 -0.16,-0.039 0.067,0.086 0.207,-0.043 -0.368,0.012"
                   style="fill:none;stroke:#000000;stroke-width:1.26872;stroke-linecap:round;stroke-linejoin:round;stroke-miterlimit:10;stroke-dasharray:none;stroke-opacity:1"
                   id="path1760" />
              </g>
              <g
                 id="g1762"
                 transform="matrix(1,0,0,-1,-104.71842,715.69467)">
                <path
                   d="m 1019.02,-490.027 -0.129,0.121 0.043,0.062 -0.789,0.188 0.171,-0.067 -0.355,-0.168 -0.418,-0.418 -0.355,-0.777 -0.149,-0.996 0.199,-0.824 0.239,-0.414 0.273,-0.168 0.199,-0.434 -0.129,-0.14 0.992,-0.325 1.165,-0.051 1,0.165 0.632,0.218 0.563,0.289 0.633,0.598 0.285,0.656 -0.074,0.453 -0.192,0.461 -0.351,0.145 0.062,0.055 -0.187,0.199 v 0.195 l -0.844,0.184 -1.297,-0.063 -0.531,-0.441 -0.16,-0.262"
                   style="fill:none;stroke:#000000;stroke-width:1.26872;stroke-linecap:round;stroke-linejoin:round;stroke-miterlimit:10;stroke-dasharray:none;stroke-opacity:1"
                   id="path1764" />
              </g>
              <g
                 id="g1766"
                 transform="matrix(1,0,0,-1,-104.71842,715.69467)">
                <path
                   d="m 1021.66,-499.68 -0.16,0.051 0.074,0.231 0.114,-0.125 -0.11,-0.055 0.567,-0.168 0.543,-0.469 0.164,-0.305 -0.032,-0.199 0.496,-0.41 0.168,-0.633 0.875,-1.629 0.121,-0.504 -0.05,-0.289 0.297,-0.625 -0.204,-0.949 -0.14,-0.222 0.031,-0.329 0.18,-0.175 -0.387,-0.68 0.051,-0.539 -0.121,-0.293 -0.039,0.07 0.148,0.094 -0.172,-0.066 0.145,-0.016 -0.102,-0.004 0.231,0.363 0.074,0.688"
                   style="fill:none;stroke:#000000;stroke-width:1.26872;stroke-linecap:round;stroke-linejoin:round;stroke-miterlimit:10;stroke-dasharray:none;stroke-opacity:1"
                   id="path1768" />
              </g>
              <g
                 id="g1770"
                 transform="matrix(1,0,0,-1,-104.71842,715.69467)">
                <path
                   d="m 1028.297,-497.223 0.074,0.285 0.344,-0.183 v -0.18 l 0.5,-0.191 0.137,-0.266 0.796,-0.711 1.133,-1.722 0.203,-0.489 -0.031,-0.187 0.383,-0.707 0.043,-0.184 -0.16,-0.211 0.254,-0.504 0.207,-1.543 -0.332,-1.046 0.027,-0.344 -0.148,-0.199 0.082,-0.02 -0.254,-0.008 0.144,-0.156 -0.222,-0.117 -0.407,-0.016 -0.297,0.121"
                   style="fill:none;stroke:#000000;stroke-width:1.26872;stroke-linecap:round;stroke-linejoin:round;stroke-miterlimit:10;stroke-dasharray:none;stroke-opacity:1"
                   id="path1772" />
              </g>
              <g
                 id="g1774"
                 transform="matrix(1,0,0,-1,-104.71842,715.69467)">
                <path
                   d="m 1024.547,-505.812 0.211,0.093 h -0.156 l 0.168,-0.019 -0.071,-0.008 0.031,-0.094 0.637,-1.324 0.438,-1.543 0.246,-0.227 -0.27,-0.824 -0.035,-0.418 0.133,-0.25 -0.488,-0.769 -0.145,-1.086 0.066,-0.149 0.079,0.016 -0.09,0.102 0.058,0.066 0.211,-0.024 -0.039,0.106 0.578,0.418 0.086,0.238"
                   style="fill:none;stroke:#000000;stroke-width:1.26872;stroke-linecap:round;stroke-linejoin:round;stroke-miterlimit:10;stroke-dasharray:none;stroke-opacity:1"
                   id="path1776" />
              </g>
              <g
                 id="g1778"
                 transform="matrix(1,0,0,-1,-104.71842,715.69467)">
                <path
                   d="m 1033.094,-505.676 -0.035,0.149 0.01,-0.082 0.414,-0.137 -0.183,-0.199 0.449,-0.481 -0.25,-0.648 0.043,-0.61 -0.137,-0.972 -0.343,-1.274 0.015,-0.746 0.09,-0.097 -0.266,-0.2 0.344,-0.062 -0.293,0.039 0.145,0.058 -0.246,-0.132 -0.309,0.004"
                   style="fill:none;stroke:#000000;stroke-width:1.26872;stroke-linecap:round;stroke-linejoin:round;stroke-miterlimit:10;stroke-dasharray:none;stroke-opacity:1"
                   id="path1780" />
              </g>
              <g
                 id="g1782"
                 transform="matrix(1,0,0,-1,-104.71842,715.69467)">
                <path
                   d="m 974.863,-573.535 -0.031,0.074 0.953,0.801 1.047,0.656 2.199,0.828 3.137,0.731 4.039,0.543 3.586,0.261 2.086,-0.16 2.875,-0.398 2.91,-0.797 3.316,-1.422 1.079,-0.566 0.445,-0.336 1.027,-1.207 0.625,-0.965 0.063,-0.293 1.047,-1.43 -0.043,-0.246 0.98,-1.016 1.109,-1.707 1.133,-2.812 -0.082,-0.293 0.434,-0.555 0.137,-0.344 0.05,-0.261 -0.246,-0.207 -0.351,-0.067"
                   style="fill:none;stroke:#000000;stroke-width:1.26872;stroke-linecap:round;stroke-linejoin:round;stroke-miterlimit:10;stroke-dasharray:none;stroke-opacity:1"
                   id="path1784" />
              </g>
              <g
                 id="g1786"
                 transform="matrix(1,0,0,-1,-104.71842,715.69467)">
                <path
                   d="m 971.582,-581.992 0.242,-0.137 -0.242,-0.016 0.172,-0.125 0.039,-0.511 0.367,-1.106 -0.133,-0.218 0.469,-0.684 0.117,-0.414 0.231,-0.324 0.414,-1.411 0.312,-0.242 0.075,-0.636 0.644,-1.36 0.891,-1.008 0.148,-0.332 0.863,-0.617 1.02,-1.144 0.047,-0.203 0.527,-0.438 0.469,-0.211 0.633,-0.848 1.75,-1.316 0.976,-0.59 0.785,-0.328 0.196,-0.184 2.265,-0.851 2.125,-0.457 1.664,-0.082 1.918,0.055 2.758,0.66 2.793,1.218 1.84,0.571 -0.324,-0.008 0.14,0.031 -0.32,0.18"
                   style="fill:none;stroke:#000000;stroke-width:1.26872;stroke-linecap:round;stroke-linejoin:round;stroke-miterlimit:10;stroke-dasharray:none;stroke-opacity:1"
                   id="path1788" />
              </g>
              <g
                 id="g1790"
                 transform="matrix(1,0,0,-1,-104.71842,715.69467)">
                <path
                   d="m 980.863,-574.59 0.196,-0.047 -0.157,-0.015 0.258,0.195 1.66,0.937 1.711,0.54 2.531,0.05 2.126,-0.258 3.074,-1.191 1.562,-0.773 1.871,-1.211 0.66,-0.492 0.106,-0.192 0.715,-0.449 0.437,-0.539 0.024,-0.211 0.597,-0.594 1.102,-1.844 -0.024,-0.336 0.516,-1.062 0.004,-0.797 -0.312,-2.57 -0.2,-0.817 -0.269,-0.332 -0.106,-0.949 -0.215,-0.57 -0.48,-0.781 -0.867,-1.051 -1.11,-0.805 -0.355,-0.137 -0.277,-0.297 -0.555,-0.089 -0.02,-0.129 -0.91,-0.153 -0.668,0.055 -0.582,0.195"
                   style="fill:none;stroke:#000000;stroke-width:1.26872;stroke-linecap:round;stroke-linejoin:round;stroke-miterlimit:10;stroke-dasharray:none;stroke-opacity:1"
                   id="path1792" />
              </g>
              <g
                 id="g1794"
                 transform="matrix(1,0,0,-1,-104.71842,715.69467)">
                <path
                   d="m 978.668,-578.859 0.094,-0.032 -0.188,-0.043 0.36,0.043 -0.223,0.036 0.082,-0.059 -0.125,-0.207 0.023,-0.16 -0.257,-0.567 -0.141,-3.09 -0.191,-0.183 -0.079,-0.238 0.149,-0.203 0.109,-0.688 0.321,-0.441 -0.02,-0.411 0.223,-0.968 0.941,-1.375 1.332,-1.399 1.238,-0.968 1.872,-0.805 3.968,-0.719 1.512,-0.184 1.539,0.059 1.023,0.231 0.102,0.207 -0.137,0.339"
                   style="fill:none;stroke:#000000;stroke-width:1.26872;stroke-linecap:round;stroke-linejoin:round;stroke-miterlimit:10;stroke-dasharray:none;stroke-opacity:1"
                   id="path1796" />
              </g>
              <g
                 id="g1798"
                 transform="matrix(1,0,0,-1,-104.71842,715.69467)">
                <path
                   d="m 956.207,-553.258 0.137,-0.164 -0.086,0.031 0.25,0.094 3.332,0.906 3.086,0.688 1.789,0.555 3.851,0.804 1.352,0.469 5.512,0.937 2.031,0.626 1.57,0.218 3.332,0.887 6.235,1.008 1.812,0.511 8.414,1.672 1.52,0.438 0.699,0.305 0.98,0.222 -0.847,-0.676"
                   style="fill:none;stroke:#000000;stroke-width:1.26872;stroke-linecap:round;stroke-linejoin:round;stroke-miterlimit:10;stroke-dasharray:none;stroke-opacity:1"
                   id="path1800" />
              </g>
              <g
                 id="g1802"
                 transform="matrix(1,0,0,-1,-104.71842,715.69467)">
                <path
                   d="m 953.609,-544.613 0.176,0.031 -0.14,0.117 1.851,0.879 1.152,0.406 2.211,0.469 3.039,0.867 18.231,2.86 1.82,0.332 0.785,0.273 2.032,0.414 4.488,0.668 0.617,0.227 3.363,0.758 1.493,0.472 0.656,0.285 0.023,0.09 2.176,0.555 3.445,1.226 0.547,0.063 -0.289,-0.078 0.207,-0.305 -0.367,-0.508"
                   style="fill:none;stroke:#000000;stroke-width:1.26872;stroke-linecap:round;stroke-linejoin:round;stroke-miterlimit:10;stroke-dasharray:none;stroke-opacity:1"
                   id="path1804" />
              </g>
              <g
                 id="g1806"
                 transform="matrix(1,0,0,-1,-104.71842,715.69467)">
                <path
                   d="m 927.848,-557.504 -0.071,-0.176 0.086,-0.004 -0.066,0.075 0.183,-0.008 0.118,0.051 -0.059,0.058 1.996,0.422 2.84,0.363 -0.406,-0.035 0.176,-0.058 -0.305,-0.243 -1.508,-0.957 -2.352,-0.992 0.192,0.121 -0.141,0.028 0.184,0.035 0.172,-0.028 -0.106,-0.054 0.504,-0.035 3.945,0.218 -0.304,-0.054 0.164,-0.016"
                   style="fill:none;stroke:#000000;stroke-width:1.26872;stroke-linecap:round;stroke-linejoin:round;stroke-miterlimit:10;stroke-dasharray:none;stroke-opacity:1"
                   id="path1808" />
              </g>
              <g
                 id="g1810"
                 transform="matrix(1,0,0,-1,-104.71842,715.69467)">
                <path
                   d="m 1057.039,-570.48 0.051,0.074 -0.113,0.148 -0.188,0.063 0.191,-0.157 0.149,0.012 -0.137,-0.035 0.192,-0.223 0.336,-1.254 0.8,-1.609 0.715,-0.769 0.274,-0.696 0.558,-0.531 0.176,-0.527 1.066,-1.551 0.711,-1.66 0.414,-0.727 0.168,-0.605 0.469,-0.512 0.145,-0.414 -0.067,-0.184 1.067,-1.461 0.242,-0.5 0.812,-0.84 0.332,-0.55 0.239,-0.215 0.109,-0.387 0.898,-0.781 0.704,-0.305 0.746,-0.543 0.554,-0.164 0.516,-0.023 1.02,0.48 0.164,0.703 0.351,0.278 -0.027,0.297 0.187,0.179 0.106,0.551 0.113,0.098 -0.273,0.836 0.062,0.359 -0.16,0.488 0.094,0.141 -0.746,1.773 -0.582,0.973 -0.77,1.816 -0.59,0.969 0.016,0.207 -0.578,0.813 -0.141,0.683 -1.394,2.324 -0.532,1.239 -1.07,1.554 -0.77,0.653 -0.308,0.543 -0.457,0.535 -0.473,0.867 -0.144,0.086 -0.016,0.152 -0.223,-0.05 0.067,-0.063 -0.625,0.223"
                   style="fill:none;stroke:#000000;stroke-width:1.26872;stroke-linecap:round;stroke-linejoin:round;stroke-miterlimit:10;stroke-dasharray:none;stroke-opacity:1"
                   id="path1812" />
              </g>
              <g
                 id="g1814"
                 transform="matrix(1,0,0,-1,-104.71842,715.69467)">
                <path
                   d="m 1079.18,-613.582 -0.043,0.199 0.078,0.008 -0.199,0.102 -0.707,-0.504 0.058,-0.125 -0.433,-0.453 -0.313,-1.063 0.168,-1.156 0.617,-0.789 0.559,-0.477 0.445,-0.207 1.547,-0.277 0.777,-0.031 0.852,0.152 0.762,0.359 0.191,0.215 0.305,0.641 0.058,0.894 -0.535,1.16 -0.672,0.586 -1.324,0.168 -0.902,-0.086 -0.922,-0.355 -0.067,-0.055 0.106,-0.027 -0.082,0.031 0.168,0.074 -0.285,0.086"
                   style="fill:none;stroke:#000000;stroke-width:1.26872;stroke-linecap:round;stroke-linejoin:round;stroke-miterlimit:10;stroke-dasharray:none;stroke-opacity:1"
                   id="path1816" />
              </g>
            </g>
          </g>
        </g>
      </g>
    </g>
  </g>
</svg>
