<?xml version="1.0" encoding="UTF-8" standalone="no"?>
<!-- Created by Ashley Blewer - This work is licensed under a Creative Commons Attribution 4.0 International License -->

<svg
   width="544"
   height="480"
   viewBox="0 0 143.93334 127"
   version="1.1"
   id="svg2490"
   inkscape:version="1.2.2 (1:1.2.2+202212051552+b0a8486541)"
   sodipodi:docname="1965-super-8-2.svg"
   xmlns:inkscape="http://www.inkscape.org/namespaces/inkscape"
   xmlns:sodipodi="http://sodipodi.sourceforge.net/DTD/sodipodi-0.dtd"
   xmlns="http://www.w3.org/2000/svg"
   xmlns:svg="http://www.w3.org/2000/svg">
  <sodipodi:namedview
     id="namedview2492"
     pagecolor="#ffffff"
     bordercolor="#666666"
     borderopacity="1.0"
     inkscape:pageshadow="2"
     inkscape:pageopacity="0.0"
     inkscape:pagecheckerboard="0"
     inkscape:document-units="mm"
     showgrid="false"
     units="px"
     inkscape:zoom="0.90583674"
     inkscape:cx="337.25724"
     inkscape:cy="255.56482"
     inkscape:window-width="1846"
     inkscape:window-height="1136"
     inkscape:window-x="0"
     inkscape:window-y="0"
     inkscape:window-maximized="1"
     inkscape:current-layer="g6395"
     inkscape:showpageshadow="2"
     inkscape:deskcolor="#d1d1d1" />
  <defs
     id="defs2487" />
  <g
     inkscape:label="Layer 1"
     inkscape:groupmode="layer"
     id="layer1">
    <g
       id="g4731"
       transform="matrix(0.32961229,0,0,0.32903008,-241.78905,1.73126)"
       style="stroke-width:2.68698">
      <g
         id="g104528"
         transform="matrix(1,0,0,-1,0,792)"
         style="stroke-width:2.68698">
        <g
           id="g104530"
           style="stroke-width:2.68698" />
      </g>
      <g
         id="g104996"
         transform="matrix(1,0,0,-1,0,792)"
         style="stroke-width:2.68698">
        <g
           id="g104998"
           style="stroke-width:2.68698" />
      </g>
      <g
         id="g28852"
         transform="matrix(1.070281,0,0,1.0721748,779.91249,-443.13657)">
        <g
           id="g6718"
           transform="matrix(1.117886,0,0,1.117886,-549.13111,-491.62865)">
          <g
             id="g6395"
             transform="matrix(0.53415107,0,0,0.53415109,441.93669,415.26868)">
            <g
               id="g7977"
               transform="matrix(1.6747052,0,0,1.6747052,-1091.7091,-666.12628)">
              <g
                 id="g2313"
                 transform="matrix(1,0,0,-1,-66.963823,764.8773)">
                <path
                   d="m 920.809,-300.707 c -28.153,43.18 -24.563,109.668 21.023,139.84 52.461,36.933 129.875,9.898 162.043,-41.688 23.043,-35.472 20.133,-88.222 -14.75,-115.254 -36.578,-38.41 -99.457,-32.082 -140.977,-5.523 -13.347,8.207 -25.105,19.644 -31.609,34.086"
                   style="fill:none;stroke:#000000;stroke-width:2.61674;stroke-linecap:round;stroke-linejoin:round;stroke-miterlimit:10;stroke-dasharray:none;stroke-opacity:1"
                   id="path2315" />
              </g>
              <g
                 id="g2317"
                 transform="matrix(1,0,0,-1,-66.963823,764.8773)">
                <path
                   d="m 994.293,-141.805 c -41.25,33.571 -101.719,31.758 -149.883,15.672 -64.765,-21.84 -111.074,-95.59 -87.773,-162.863 17.258,-48.078 66.886,-77.672 114.867,-87.973 45.75,-8.422 92.434,8.59 130.855,32.528"
                   style="fill:none;stroke:#000000;stroke-width:2.61674;stroke-linecap:round;stroke-linejoin:round;stroke-miterlimit:10;stroke-dasharray:none;stroke-opacity:1"
                   id="path2319" />
              </g>
              <g
                 id="g2321"
                 transform="matrix(1,0,0,-1,-66.963823,764.8773)">
                <path
                   d="m 1027.828,-103.164 c -40.586,-9.582 -81.586,-25.504 -110.808,-56.281 -18.243,-18.192 -20.715,-44.785 -18.239,-69.086 1.508,-27.492 8.188,-55.383 23.813,-78.418"
                   style="fill:none;stroke:#000000;stroke-width:2.61674;stroke-linecap:round;stroke-linejoin:round;stroke-miterlimit:10;stroke-dasharray:none;stroke-opacity:1"
                   id="path2323" />
              </g>
              <g
                 id="g2325"
                 transform="matrix(1,0,0,-1,-66.963823,764.8773)">
                <path
                   d="m 1027.828,-103.164 c -0.797,-0.031 0.703,3.805 1.039,4.742"
                   style="fill:none;stroke:#000000;stroke-width:2.61674;stroke-linecap:round;stroke-linejoin:round;stroke-miterlimit:10;stroke-dasharray:none;stroke-opacity:1"
                   id="path2327" />
              </g>
              <g
                 id="g2329"
                 transform="matrix(1,0,0,-1,-66.963823,764.8773)">
                <path
                   d="m 1027.988,-98.742 c -28.199,-3.621 -53.547,-18.711 -78.804,-30.699 -26.625,-13.891 -55.778,-35.789 -53.922,-69.348 1.133,-18.852 -0.977,-40.188 6.582,-57.801"
                   style="fill:none;stroke:#000000;stroke-width:2.61674;stroke-linecap:round;stroke-linejoin:round;stroke-miterlimit:10;stroke-dasharray:none;stroke-opacity:1"
                   id="path2331" />
              </g>
              <g
                 id="g2333"
                 transform="matrix(1,0,0,-1,-66.963823,764.8773)">
                <path
                   d="m 1009.324,-157.949 c -16.375,-0.754 -34.457,1.164 -48.578,-8.856 -13.031,-9.437 -25.922,-19.55 -36.484,-31.738 -6.598,-8.223 -11.489,-18.68 -9.934,-29.445"
                   style="fill:none;stroke:#000000;stroke-width:2.61674;stroke-linecap:round;stroke-linejoin:round;stroke-miterlimit:10;stroke-dasharray:none;stroke-opacity:1"
                   id="path2335" />
              </g>
              <g
                 id="g2337"
                 transform="matrix(1,0,0,-1,-66.963823,764.8773)">
                <path
                   d="m 1009.324,-157.949 c -3.953,-9.813 -10.945,-17.977 -15.601,-27.434 -3.059,-4.519 -3.696,-10.332 -8.375,-13.652 -4.227,-3.762 -8.114,-8.215 -13.793,-9.754 -10.332,-5.559 -20.879,-11.129 -32.442,-13.707 -7.211,-1.547 -14.254,-4.547 -21.66,-4.734 l -0.851,0.324 -0.758,0.605"
                   style="fill:none;stroke:#000000;stroke-width:2.61674;stroke-linecap:round;stroke-linejoin:round;stroke-miterlimit:10;stroke-dasharray:none;stroke-opacity:1"
                   id="path2339" />
              </g>
              <g
                 id="g2341"
                 transform="matrix(1,0,0,-1,-66.963823,764.8773)">
                <path
                   d="m 1052.996,-169.223 c 7.719,-4.652 16.504,-8.218 21.848,-15.882 6.687,-8.555 12.613,-17.692 18.968,-26.489 6.661,-9.988 10.547,-22.109 8.75,-34.164 -1.167,-11.508 -3.07,-22.976 -5.718,-34.203 -5.086,-5.461 -9.742,6.363 -13.844,9.336 -4.98,8.969 -12.383,16.207 -18.812,24.051 -4.723,7.453 -10.387,14.539 -13.86,22.636 -1.918,9.536 -3.883,19.317 -2.109,29.024 0.027,7.894 0.406,18.547 4.777,25.691"
                   style="fill:none;stroke:#000000;stroke-width:2.61674;stroke-linecap:round;stroke-linejoin:round;stroke-miterlimit:10;stroke-dasharray:none;stroke-opacity:1"
                   id="path2343" />
              </g>
              <g
                 id="g2345"
                 transform="matrix(1,0,0,-1,-66.963823,764.8773)">
                <path
                   d="m 1006.906,-272.559 c 5.547,-4.003 13.344,-7.722 18.68,-13.109 10.996,-9.148 21.918,-18.367 33.703,-26.117 0.988,-1.07 2.652,-2.207 3.867,-3.305"
                   style="fill:none;stroke:#000000;stroke-width:2.61674;stroke-linecap:round;stroke-linejoin:round;stroke-miterlimit:10;stroke-dasharray:none;stroke-opacity:1"
                   id="path2347" />
              </g>
              <g
                 id="g2349"
                 transform="matrix(1,0,0,-1,-66.963823,764.8773)">
                <path
                   d="m 1006.906,-272.559 c -7.695,1.379 -15.597,0.747 -23.347,1.133 -17.371,-2.367 -35.247,-1.097 -52.344,-5.129 -6.008,-3.535 1.566,-8.383 4.566,-10.984 7.157,-5.414 12.442,-13.035 20.235,-17.606 6.507,-4.757 13.011,-9.824 20.781,-12.32 9.84,-4.801 20.742,-6.738 31.316,-9.25 11.164,-1.793 22.489,0.317 33.395,2.715 4.617,1.371 9.476,2.117 14.043,3.457 1.289,1.18 10.64,3.715 7.605,5.453"
                   style="fill:none;stroke:#000000;stroke-width:2.61674;stroke-linecap:round;stroke-linejoin:round;stroke-miterlimit:10;stroke-dasharray:none;stroke-opacity:1"
                   id="path2351" />
              </g>
              <g
                 id="g2353"
                 transform="matrix(1,0,0,-1,-66.963823,764.8773)">
                <path
                   d="m 1005.172,-201.68 c 17.777,2.684 37.016,-7.976 42.168,-25.621 7.211,-16.754 -6.43,-35.191 -22.281,-40.242 -19.375,-3.926 -44.153,6.746 -48.125,27.621 -4.231,17.848 9.421,38.192 28.593,37.426"
                   style="fill:none;stroke:#000000;stroke-width:2.61674;stroke-linecap:round;stroke-linejoin:round;stroke-miterlimit:10;stroke-dasharray:none;stroke-opacity:1"
                   id="path2355" />
              </g>
              <g
                 id="g2357"
                 transform="matrix(1,0,0,-1,-66.963823,764.8773)">
                <path
                   d="m 1023.762,-206.402 c -0.754,-5.442 -1.168,-10.977 -2.164,-16.336 1.047,-4.274 5.207,-7.016 6.05,-11.45 1.106,-5.64 1.872,-11.351 5.977,-15.8 1.184,-1.719 3.57,-4.559 4.414,-5.285"
                   style="fill:none;stroke:#000000;stroke-width:2.61674;stroke-linecap:round;stroke-linejoin:round;stroke-miterlimit:10;stroke-dasharray:none;stroke-opacity:1"
                   id="path2359" />
              </g>
              <g
                 id="g2361"
                 transform="matrix(1,0,0,-1,-66.963823,764.8773)">
                <path
                   d="m 1036.613,-259.551 c -4.953,3.379 -8.996,9.727 -15.351,10.063 -6.645,-0.364 -14.668,-1.321 -19.582,4.226 -3.25,3.782 -8.453,2.821 -12.739,1.926 -2.367,-0.398 -4.734,-0.953 -7.14,-1.055"
                   style="fill:none;stroke:#000000;stroke-width:2.61674;stroke-linecap:round;stroke-linejoin:round;stroke-miterlimit:10;stroke-dasharray:none;stroke-opacity:1"
                   id="path2363" />
              </g>
              <g
                 id="g2365"
                 transform="matrix(1,0,0,-1,-66.963823,764.8773)">
                <path
                   d="m 1016.168,-204.203 c -1.738,-4.594 0.891,-11.168 -3.875,-14.297 -2.352,-3.145 -6.293,-3.434 -9.234,-5.586 -3.844,-3.398 -6.145,-9.226 -11.852,-9.906 -4,-0.93 -7.859,-2.512 -11.492,-4.332 l -0.336,-0.485 -0.106,-0.613"
                   style="fill:none;stroke:#000000;stroke-width:2.61674;stroke-linecap:round;stroke-linejoin:round;stroke-miterlimit:10;stroke-dasharray:none;stroke-opacity:1"
                   id="path2367" />
              </g>
              <g
                 id="g2369"
                 transform="matrix(1,0,0,-1,-66.963823,764.8773)">
                <path
                   d="m 982.602,-248.957 c 1.336,-0.141 6.855,2.309 9.777,1.687 4.855,0.141 7.863,-3.855 12.851,-4.062 6.215,-1.52 12.676,-0.895 17.766,-5.023 1.785,-0.672 7.055,-4.618 6.387,-4.29"
                   style="fill:none;stroke:#000000;stroke-width:2.61674;stroke-linecap:round;stroke-linejoin:round;stroke-miterlimit:10;stroke-dasharray:none;stroke-opacity:1"
                   id="path2371" />
              </g>
              <g
                 id="g2373"
                 transform="matrix(1,0,0,-1,-66.963823,764.8773)">
                <path
                   d="m 996.516,-260.699 c -0.504,4.953 4.453,8.222 8.847,8.761 4.883,0.876 10.946,-2.523 10.41,-8.042 0.129,-1.071 -1.445,-8.141 -2.296,-5.782"
                   style="fill:none;stroke:#000000;stroke-width:2.61674;stroke-linecap:round;stroke-linejoin:round;stroke-miterlimit:10;stroke-dasharray:none;stroke-opacity:1"
                   id="path2375" />
              </g>
              <g
                 id="g2377"
                 transform="matrix(1,0,0,-1,-66.963823,764.8773)">
                <path
                   d="m 923.316,-177.668 c -11.601,5.188 -27.878,-0.219 -39.824,-1.445 -7.047,-0.157 -13.586,3.652 -20.308,5.488 -6.426,2.355 -13.153,3.66 -19.903,4.59 -6.437,1.668 -14.07,6.449 -13.726,13.953 0.625,6.578 7.32,9.508 12.511,12.066 9.125,3.922 18.989,5.653 28.332,8.911 11.332,2.777 22.981,5.578 34.723,3.925 18.887,-1.179 38.66,-2.312 55.574,-11.703 1.7,-2.539 4.68,-6.711 4.68,-6.711"
                   style="fill:none;stroke:#000000;stroke-width:2.61674;stroke-linecap:round;stroke-linejoin:round;stroke-miterlimit:10;stroke-dasharray:none;stroke-opacity:1"
                   id="path2379" />
              </g>
              <g
                 id="g2381"
                 transform="matrix(1,0,0,-1,-66.963823,764.8773)">
                <path
                   d="m 802.711,-189.711 c 13.082,-7.238 22.883,-18.922 33.953,-28.73 5.484,-6.965 1.652,-16.739 5.137,-24.547 3.644,-9.008 10.414,-16.289 15.609,-24.395 7.758,-10.113 4.09,-24.094 6.184,-36.023 -0.387,-10.453 1.25,-21.082 -2.055,-31.266 -1.137,-9.226 -13.309,-9.789 -19.699,-5.812 -16.637,9.832 -33.641,19.992 -45.985,35.218 -16.242,16.508 -26.585,40.219 -22.335,63.578 2.683,16.633 6.48,33.77 17.402,47.153 1.379,3.508 11.789,4.824 11.789,4.824 z"
                   style="fill:none;stroke:#000000;stroke-width:2.61674;stroke-linecap:round;stroke-linejoin:round;stroke-miterlimit:10;stroke-dasharray:none;stroke-opacity:1"
                   id="path2383" />
              </g>
              <g
                 id="g2385"
                 transform="matrix(1,0,0,-1,-66.963823,764.8773)">
                <path
                   d="m 919.422,-300.441 c -0.371,-12.2 -3.774,-24.043 -4.938,-36.121 -1.168,-10.059 9.289,-17.344 18.34,-12.876 12.715,4.344 26.274,5.997 38.629,11.52 1.629,0.395 11.402,-0.484 0,0"
                   style="fill:none;stroke:#000000;stroke-width:2.61674;stroke-linecap:round;stroke-linejoin:round;stroke-miterlimit:10;stroke-dasharray:none;stroke-opacity:1"
                   id="path2387" />
              </g>
              <g
                 id="g2389"
                 transform="matrix(1,0,0,-1,-66.963823,764.8773)">
                <path
                   d="m 907.133,-208.41 c -7.102,2.14 -14.738,-1.293 -19.957,-6.059 -4.766,-5.031 -7.258,-12.453 -6.024,-19.297 1.571,-5.422 4.34,-11.652 10.504,-12.898 0.953,-0.281 1.926,-0.496 2.906,-0.672"
                   style="fill:none;stroke:#000000;stroke-width:2.61674;stroke-linecap:round;stroke-linejoin:round;stroke-miterlimit:10;stroke-dasharray:none;stroke-opacity:1"
                   id="path2391" />
              </g>
              <g
                 id="g2393"
                 transform="matrix(1,0,0,-1,-66.963823,764.8773)">
                <path
                   d="m 903.723,-216.789 c -4.153,3.375 -10.149,1.129 -12.938,-2.899 -3.89,-4.347 -6.258,-11.468 -2.828,-16.703 1.387,-1.238 3.93,-4.398 5.867,-2.75"
                   style="fill:none;stroke:#000000;stroke-width:2.61674;stroke-linecap:round;stroke-linejoin:round;stroke-miterlimit:10;stroke-dasharray:none;stroke-opacity:1"
                   id="path2395" />
              </g>
              <g
                 id="g2397"
                 transform="matrix(1,0,0,-1,-66.963823,764.8773)">
                <path
                   d="m 899.016,-221.492 c -5.274,0.402 -8.75,-7.313 -4.649,-10.895 0.406,-0.48 0.84,-0.945 1.317,-1.359"
                   style="fill:none;stroke:#000000;stroke-width:2.61674;stroke-linecap:round;stroke-linejoin:round;stroke-miterlimit:10;stroke-dasharray:none;stroke-opacity:1"
                   id="path2399" />
              </g>
              <g
                 id="g2401"
                 transform="matrix(1,0,0,-1,-66.963823,764.8773)">
                <path
                   d="m 914.891,-190.445 c -5.239,4.754 -12.02,5.613 -19.407,6.343 -14.332,-0.519 -27.812,-7.793 -36.879,-18.218 -8.679,-10.719 -10.3,-25.836 -6.953,-39.141 3.196,-8.871 7.442,-18.418 15.227,-24.543 9.414,-5.246 19.652,-8.613 30.629,-6.695 2.121,0.344 9.496,-2.266 8.648,0.707"
                   style="fill:none;stroke:#000000;stroke-width:2.61674;stroke-linecap:round;stroke-linejoin:round;stroke-miterlimit:10;stroke-dasharray:none;stroke-opacity:1"
                   id="path2403" />
              </g>
              <g
                 id="g2405"
                 transform="matrix(1,0,0,-1,-66.963823,764.8773)">
                <path
                   d="m 890.734,-198.664 c -3.894,0.797 -7.582,-1.359 -11.25,-2.316 -5.269,-2.063 -9.523,-6.278 -11.855,-11.379 -1.758,-2.403 -1.402,-5.813 -3.43,-8.039"
                   style="fill:none;stroke:#000000;stroke-width:1.26872;stroke-linecap:round;stroke-linejoin:round;stroke-miterlimit:10;stroke-dasharray:none;stroke-opacity:1"
                   id="path2407" />
              </g>
              <g
                 id="g2409"
                 transform="matrix(1,0,0,-1,-66.963823,764.8773)">
                <path
                   d="m 859.996,-185.719 c -8.75,-1.84 -14.465,-9.75 -18.078,-17.351"
                   style="fill:none;stroke:#000000;stroke-width:1.26872;stroke-linecap:round;stroke-linejoin:round;stroke-miterlimit:10;stroke-dasharray:none;stroke-opacity:1"
                   id="path2411" />
              </g>
              <g
                 id="g2413"
                 transform="matrix(1,0,0,-1,-66.963823,764.8773)">
                <path
                   d="m 849.895,-181.402 c -6.813,-1.5 -11.063,-7.918 -14.129,-13.672"
                   style="fill:none;stroke:#000000;stroke-width:1.26872;stroke-linecap:round;stroke-linejoin:round;stroke-miterlimit:10;stroke-dasharray:none;stroke-opacity:1"
                   id="path2415" />
              </g>
              <g
                 id="g2417"
                 transform="matrix(1,0,0,-1,-66.963823,764.8773)">
                <path
                   d="m 834.297,-172.562 c -7.344,-1.75 -12.93,-7.665 -16.449,-14.075"
                   style="fill:none;stroke:#000000;stroke-width:1.26872;stroke-linecap:round;stroke-linejoin:round;stroke-miterlimit:10;stroke-dasharray:none;stroke-opacity:1"
                   id="path2419" />
              </g>
              <g
                 id="g2421"
                 transform="matrix(1,0,0,-1,-66.963823,764.8773)">
                <path
                   d="m 819.785,-163.297 c -5.344,-2.348 -9.195,-7.133 -11.965,-12.117"
                   style="fill:none;stroke:#000000;stroke-width:1.26872;stroke-linecap:round;stroke-linejoin:round;stroke-miterlimit:10;stroke-dasharray:none;stroke-opacity:1"
                   id="path2423" />
              </g>
              <g
                 id="g2425"
                 transform="matrix(1,0,0,-1,-66.963823,764.8773)">
                <path
                   d="m 812.258,-155.793 c -6.36,-3.91 -12.406,-11.203 -10.504,-19.156"
                   style="fill:none;stroke:#000000;stroke-width:1.26872;stroke-linecap:round;stroke-linejoin:round;stroke-miterlimit:10;stroke-dasharray:none;stroke-opacity:1"
                   id="path2427" />
              </g>
              <g
                 id="g2429"
                 transform="matrix(1,0,0,-1,-66.963823,764.8773)">
                <path
                   d="m 879.621,-285.766 c 5.793,-6.648 15.676,-4.882 23.191,-3.019"
                   style="fill:none;stroke:#000000;stroke-width:1.26872;stroke-linecap:round;stroke-linejoin:round;stroke-miterlimit:10;stroke-dasharray:none;stroke-opacity:1"
                   id="path2431" />
              </g>
              <g
                 id="g2433"
                 transform="matrix(1,0,0,-1,-66.963823,764.8773)">
                <path
                   d="m 881.207,-308.332 c 4.766,-4.594 11.977,-2.832 17.648,-1.395"
                   style="fill:none;stroke:#000000;stroke-width:1.26872;stroke-linecap:round;stroke-linejoin:round;stroke-miterlimit:10;stroke-dasharray:none;stroke-opacity:1"
                   id="path2435" />
              </g>
              <g
                 id="g2437"
                 transform="matrix(1,0,0,-1,-66.963823,764.8773)">
                <path
                   d="m 882.508,-324.34 c 4.137,-4.238 10.715,-3.566 15.933,-2.226"
                   style="fill:none;stroke:#000000;stroke-width:1.26872;stroke-linecap:round;stroke-linejoin:round;stroke-miterlimit:10;stroke-dasharray:none;stroke-opacity:1"
                   id="path2439" />
              </g>
              <g
                 id="g2441"
                 transform="matrix(1,0,0,-1,-66.963823,764.8773)">
                <path
                   d="m 878.113,-342.434 c 3.922,-6.418 15.567,-5.718 20.176,-1.293"
                   style="fill:none;stroke:#000000;stroke-width:1.26872;stroke-linecap:round;stroke-linejoin:round;stroke-miterlimit:10;stroke-dasharray:none;stroke-opacity:1"
                   id="path2443" />
              </g>
              <g
                 id="g2445"
                 transform="matrix(1,0,0,-1,-66.963823,764.8773)">
                <path
                   d="m 1013.102,-208.363 c -5.891,0.863 -13.485,-2.61 -19.688,-4.856 -2.832,-0.492 -6.437,-5.617 -6.609,-5.625 1.789,2.141 5.984,6.891 10.367,6.957 5.293,1.395 11.223,2.364 16.609,1.071 -0.633,0.628 -0.441,-0.637 -1.39,-0.594"
                   style="fill:none;stroke:#000000;stroke-width:1.26872;stroke-linecap:round;stroke-linejoin:round;stroke-miterlimit:10;stroke-dasharray:none;stroke-opacity:1"
                   id="path2447" />
              </g>
              <g
                 id="g2449"
                 transform="matrix(1,0,0,-1,-66.963823,764.8773)">
                <path
                   d="m 1026.301,-214.414 c 6.355,-2.113 12.879,-8.836 16.707,-15.051 1.804,-1.961 1.668,-7.605 1.844,-7.461 -0.332,-0.211 -0.59,0.168 -0.887,0.375"
                   style="fill:none;stroke:#000000;stroke-width:1.26872;stroke-linecap:round;stroke-linejoin:round;stroke-miterlimit:10;stroke-dasharray:none;stroke-opacity:1"
                   id="path2451" />
              </g>
              <g
                 id="g2453"
                 transform="matrix(1,0,0,-1,-66.963823,764.8773)">
                <path
                   d="m 1041.137,-156.75 c 2.621,-8.852 -0.992,-17.988 0.367,-26.965 0.383,-5.121 0.586,-10.523 -1.508,-15.32 -0.625,-1.02 -2.058,-1.57 -3.105,-0.82"
                   style="fill:none;stroke:#000000;stroke-width:1.26872;stroke-linecap:round;stroke-linejoin:round;stroke-miterlimit:10;stroke-dasharray:none;stroke-opacity:1"
                   id="path2455" />
              </g>
              <g
                 id="g2457"
                 transform="matrix(1,0,0,-1,-66.963823,764.8773)">
                <path
                   d="m 1025.641,-151.836 c -2.645,-2.668 -3.883,-6.602 -6.133,-9.695 -3.113,-5.641 -5.645,-11.578 -7.906,-17.598 -1.579,-3.531 -3.547,-6.906 -4.649,-10.633 0.66,-0.519 0.715,-1.418 1.188,-2.066"
                   style="fill:none;stroke:#000000;stroke-width:1.26872;stroke-linecap:round;stroke-linejoin:round;stroke-miterlimit:10;stroke-dasharray:none;stroke-opacity:1"
                   id="path2459" />
              </g>
              <g
                 id="g2461"
                 transform="matrix(1,0,0,-1,-66.963823,764.8773)">
                <path
                   d="m 1092.734,-296.797 c 2.227,-0.57 2.754,-5.066 0.641,-1.398 -6.109,9.007 -13.359,17.152 -20.207,25.586 -4.262,5.714 -7.207,12.468 -12.18,17.601 -3.574,2.278 -8.129,-0.519 -9.386,-3.703"
                   style="fill:none;stroke:#000000;stroke-width:1.26872;stroke-linecap:round;stroke-linejoin:round;stroke-miterlimit:10;stroke-dasharray:none;stroke-opacity:1"
                   id="path2463" />
              </g>
              <g
                 id="g2465"
                 transform="matrix(1,0,0,-1,-66.963823,764.8773)">
                <path
                   d="m 1046.215,-265.809 c -2.68,-3.464 -8.953,-5.347 -7.774,-10.777 0.2,-4.738 4.364,-7.531 8.262,-9.293 11.383,-5.617 20.504,-14.652 31.129,-21.437 1.789,-1.196 4.738,-2.571 5.953,-3.364"
                   style="fill:none;stroke:#000000;stroke-width:1.26872;stroke-linecap:round;stroke-linejoin:round;stroke-miterlimit:10;stroke-dasharray:none;stroke-opacity:1"
                   id="path2467" />
              </g>
              <g
                 id="g2469"
                 transform="matrix(1,0,0,-1,-66.963823,764.8773)">
                <path
                   d="m 913.91,-240.051 c 7.336,1.309 14.652,2.801 22.047,3.563 8.43,1.836 16.07,6.625 24.621,7.758 7.52,-0.864 6.379,-9.645 8.539,-14.778 0.41,-1.156 0.625,-2.461 0.172,-3.644"
                   style="fill:none;stroke:#000000;stroke-width:1.26872;stroke-linecap:round;stroke-linejoin:round;stroke-miterlimit:10;stroke-dasharray:none;stroke-opacity:1"
                   id="path2471" />
              </g>
              <g
                 id="g2473"
                 transform="matrix(1,0,0,-1,-66.963823,764.8773)">
                <path
                   d="m 973.277,-256.016 c -1.754,-6.586 -10.089,-4.007 -15.089,-4.558 -10.137,-0.676 -20.168,-4.121 -30.387,-2.371 -4.863,0.019 -11.547,-2.285 -15.09,1.937"
                   style="fill:none;stroke:#000000;stroke-width:1.26872;stroke-linecap:round;stroke-linejoin:round;stroke-miterlimit:10;stroke-dasharray:none;stroke-opacity:1"
                   id="path2475" />
              </g>
            </g>
          </g>
        </g>
      </g>
    </g>
  </g>
</svg>
