<?xml version="1.0" encoding="UTF-8" standalone="no"?>
<!-- Created by Ashley Blewer - This work is licensed under a Creative Commons Attribution 4.0 International License -->

<svg
   width="544"
   height="480"
   viewBox="0 0 143.93334 127"
   version="1.1"
   id="svg2490"
   inkscape:version="1.2.2 (1:1.2.2+202212051552+b0a8486541)"
   sodipodi:docname="1965-super-8-4.svg"
   xmlns:inkscape="http://www.inkscape.org/namespaces/inkscape"
   xmlns:sodipodi="http://sodipodi.sourceforge.net/DTD/sodipodi-0.dtd"
   xmlns="http://www.w3.org/2000/svg"
   xmlns:svg="http://www.w3.org/2000/svg">
  <sodipodi:namedview
     id="namedview2492"
     pagecolor="#ffffff"
     bordercolor="#666666"
     borderopacity="1.0"
     inkscape:pageshadow="2"
     inkscape:pageopacity="0.0"
     inkscape:pagecheckerboard="0"
     inkscape:document-units="mm"
     showgrid="false"
     units="px"
     inkscape:zoom="0.90583674"
     inkscape:cx="337.25724"
     inkscape:cy="255.56482"
     inkscape:window-width="1846"
     inkscape:window-height="1136"
     inkscape:window-x="0"
     inkscape:window-y="0"
     inkscape:window-maximized="1"
     inkscape:current-layer="g6395"
     inkscape:showpageshadow="2"
     inkscape:deskcolor="#d1d1d1" />
  <defs
     id="defs2487" />
  <g
     inkscape:label="Layer 1"
     inkscape:groupmode="layer"
     id="layer1">
    <g
       id="g4731"
       transform="matrix(0.32961229,0,0,0.32903008,-241.78905,1.73126)"
       style="stroke-width:2.68698">
      <g
         id="g104528"
         transform="matrix(1,0,0,-1,0,792)"
         style="stroke-width:2.68698">
        <g
           id="g104530"
           style="stroke-width:2.68698" />
      </g>
      <g
         id="g104996"
         transform="matrix(1,0,0,-1,0,792)"
         style="stroke-width:2.68698">
        <g
           id="g104998"
           style="stroke-width:2.68698" />
      </g>
      <g
         id="g28852"
         transform="matrix(1.070281,0,0,1.0721748,779.91249,-443.13657)">
        <g
           id="g6718"
           transform="matrix(1.117886,0,0,1.117886,-549.13111,-491.62865)">
          <g
             id="g6395"
             transform="matrix(0.53415107,0,0,0.53415109,441.93669,415.26868)">
            <g
               id="g7633"
               transform="matrix(1.9086878,0,0,1.9086878,-392.27865,-1463.3332)">
              <g
                 id="g1961"
                 transform="matrix(1,0,0,-1,-66.963823,764.8773)">
                <path
                   d="m 379.398,-421.875 c 6.707,22.504 36.836,17.637 55.364,19.047 36.332,-1.129 73.5,2.48 108.781,-8.352 3.883,-0.894 8.926,-1.933 11.223,-5.168"
                   style="fill:none;stroke:#000000;stroke-width:2.61674;stroke-linecap:round;stroke-linejoin:round;stroke-miterlimit:10;stroke-dasharray:none;stroke-opacity:1"
                   id="path1963" />
              </g>
              <g
                 id="g1965"
                 transform="matrix(1,0,0,-1,-66.963823,764.8773)">
                <path
                   d="m 554.766,-416.348 c 23.629,-73.547 12.754,-152.574 -1.114,-226.269"
                   style="fill:none;stroke:#000000;stroke-width:2.61674;stroke-linecap:round;stroke-linejoin:round;stroke-miterlimit:10;stroke-dasharray:none;stroke-opacity:1"
                   id="path1967" />
              </g>
              <g
                 id="g1969"
                 transform="matrix(1,0,0,-1,-66.963823,764.8773)">
                <path
                   d="m 553.027,-644.574 c -19,-9.289 -37.386,-19.653 -56.254,-29.086 -6.261,-1.785 -11.371,-5.223 -17.878,-5.84"
                   style="fill:none;stroke:#000000;stroke-width:2.61674;stroke-linecap:round;stroke-linejoin:round;stroke-miterlimit:10;stroke-dasharray:none;stroke-opacity:1"
                   id="path1971" />
              </g>
              <g
                 id="g1973"
                 transform="matrix(1,0,0,-1,-66.963823,764.8773)">
                <path
                   d="m 416.941,-651.641 c 7.266,-16.425 30.356,-14.629 44.293,-21.527 5.914,-2.109 11.344,-5.422 17.661,-6.332"
                   style="fill:none;stroke:#000000;stroke-width:2.61674;stroke-linecap:round;stroke-linejoin:round;stroke-miterlimit:10;stroke-dasharray:none;stroke-opacity:1"
                   id="path1975" />
              </g>
              <g
                 id="g1977"
                 transform="matrix(1,0,0,-1,-66.963823,764.8773)">
                <path
                   d="m 378.219,-424.328 c -0.25,-15.422 0.34,-31.313 -1.16,-46.434"
                   style="fill:none;stroke:#000000;stroke-width:2.61674;stroke-linecap:round;stroke-linejoin:round;stroke-miterlimit:10;stroke-dasharray:none;stroke-opacity:1"
                   id="path1979" />
              </g>
              <g
                 id="g1981"
                 transform="matrix(1,0,0,-1,-66.963823,764.8773)">
                <path
                   d="m 377.059,-470.762 c -4.161,-16.222 -1.204,-33.101 -3.207,-49.726 1.054,-7.434 -4.536,-21.442 3.914,-24.465"
                   style="fill:none;stroke:#000000;stroke-width:2.61674;stroke-linecap:round;stroke-linejoin:round;stroke-miterlimit:10;stroke-dasharray:none;stroke-opacity:1"
                   id="path1983" />
              </g>
              <g
                 id="g1985"
                 transform="matrix(1,0,0,-1,-66.963823,764.8773)">
                <path
                   d="m 377.766,-544.953 c 0.945,-15.867 4.929,-34.774 -1.868,-48.313 -0.73,-0.843 0.395,-4.441 -0.293,-4.937"
                   style="fill:none;stroke:#000000;stroke-width:2.61674;stroke-linecap:round;stroke-linejoin:round;stroke-miterlimit:10;stroke-dasharray:none;stroke-opacity:1"
                   id="path1987" />
              </g>
              <g
                 id="g1989"
                 transform="matrix(1,0,0,-1,-66.963823,764.8773)">
                <path
                   d="m 376.23,-599.094 c 17.043,14.446 33.614,-8.195 37.129,-23.812 9.039,-26.887 -31.98,-34.211 -38.914,-9.731 -4.07,11.024 -4.121,28.223 4.41,35.77"
                   style="fill:none;stroke:#000000;stroke-width:2.61674;stroke-linecap:round;stroke-linejoin:round;stroke-miterlimit:10;stroke-dasharray:none;stroke-opacity:1"
                   id="path1991" />
              </g>
              <g
                 id="g1993"
                 transform="matrix(1,0,0,-1,-66.963823,764.8773)">
                <path
                   d="m 400.973,-528.617 c 20.187,2.305 29.582,-24.449 22.23,-40.223 -10.449,-19.512 -40.523,-0.051 -36.574,18.16 -0.664,8.309 5.144,21.227 14.344,22.063"
                   style="fill:none;stroke:#000000;stroke-width:2.61674;stroke-linecap:round;stroke-linejoin:round;stroke-miterlimit:10;stroke-dasharray:none;stroke-opacity:1"
                   id="path1995" />
              </g>
              <g
                 id="g1997"
                 transform="matrix(1,0,0,-1,-66.963823,764.8773)">
                <path
                   d="m 400.973,-528.617 c 0.882,0.566 13.812,5.398 12.761,5.863"
                   style="fill:none;stroke:#000000;stroke-width:2.61674;stroke-linecap:round;stroke-linejoin:round;stroke-miterlimit:10;stroke-dasharray:none;stroke-opacity:1"
                   id="path1999" />
              </g>
              <g
                 id="g2001"
                 transform="matrix(1,0,0,-1,-66.963823,764.8773)">
                <path
                   d="m 413.734,-522.754 c 19.907,3.785 30.149,-20.418 27.661,-36.769 -0.942,-4.196 -4.707,-10.446 -7.602,-12.137"
                   style="fill:none;stroke:#000000;stroke-width:2.61674;stroke-linecap:round;stroke-linejoin:round;stroke-miterlimit:10;stroke-dasharray:none;stroke-opacity:1"
                   id="path2003" />
              </g>
              <g
                 id="g2005"
                 transform="matrix(1,0,0,-1,-66.963823,764.8773)">
                <path
                   d="m 433.793,-571.66 c -3.762,0.183 -8.855,-1.235 -12.234,-0.012"
                   style="fill:none;stroke:#000000;stroke-width:2.61674;stroke-linecap:round;stroke-linejoin:round;stroke-miterlimit:10;stroke-dasharray:none;stroke-opacity:1"
                   id="path2007" />
              </g>
              <g
                 id="g2009"
                 transform="matrix(1,0,0,-1,-66.963823,764.8773)">
                <path
                   d="m 532.23,-411.297 c -14.25,-1.336 -32.21,-2.281 -40.671,-15.863 -7.762,-13.922 -14.204,-28.793 -19.301,-43.688"
                   style="fill:none;stroke:#000000;stroke-width:2.61674;stroke-linecap:round;stroke-linejoin:round;stroke-miterlimit:10;stroke-dasharray:none;stroke-opacity:1"
                   id="path2011" />
              </g>
              <g
                 id="g2013"
                 transform="matrix(1,0,0,-1,-66.963823,764.8773)">
                <path
                   d="m 378.742,-423.715 c 13.758,4.926 28.985,-0.769 43.192,-1.773 4.929,-0.926 10.203,-1.11 14.5,-4.028"
                   style="fill:none;stroke:#000000;stroke-width:2.61674;stroke-linecap:round;stroke-linejoin:round;stroke-miterlimit:10;stroke-dasharray:none;stroke-opacity:1"
                   id="path2015" />
              </g>
              <g
                 id="g2017"
                 transform="matrix(1,0,0,-1,-66.963823,764.8773)">
                <path
                   d="m 436.434,-429.516 c 6.289,-14.039 -0.399,-37.035 2.351,-50.593"
                   style="fill:none;stroke:#000000;stroke-width:2.61674;stroke-linecap:round;stroke-linejoin:round;stroke-miterlimit:10;stroke-dasharray:none;stroke-opacity:1"
                   id="path2019" />
              </g>
              <g
                 id="g2021"
                 transform="matrix(1,0,0,-1,-66.963823,764.8773)">
                <path
                   d="m 438.785,-480.109 c 12.692,-4.481 -1.375,-24.754 4.836,-34.266"
                   style="fill:none;stroke:#000000;stroke-width:2.61674;stroke-linecap:round;stroke-linejoin:round;stroke-miterlimit:10;stroke-dasharray:none;stroke-opacity:1"
                   id="path2023" />
              </g>
              <g
                 id="g2025"
                 transform="matrix(1,0,0,-1,-66.963823,764.8773)">
                <path
                   d="m 444.066,-515.109 c 12.719,-14.422 18.961,-36.161 10.207,-54.184 -2.957,-4.84 -8.132,-9.75 -11.144,-13.508"
                   style="fill:none;stroke:#000000;stroke-width:2.61674;stroke-linecap:round;stroke-linejoin:round;stroke-miterlimit:10;stroke-dasharray:none;stroke-opacity:1"
                   id="path2027" />
              </g>
              <g
                 id="g2029"
                 transform="matrix(1,0,0,-1,-66.963823,764.8773)">
                <path
                   d="m 443.129,-582.801 c -0.098,-18.769 3.769,-39.761 -8.008,-55.465 -4.496,-11.296 -21.293,-18.632 -30.773,-8.992"
                   style="fill:none;stroke:#000000;stroke-width:2.61674;stroke-linecap:round;stroke-linejoin:round;stroke-miterlimit:10;stroke-dasharray:none;stroke-opacity:1"
                   id="path2031" />
              </g>
              <g
                 id="g2033"
                 transform="matrix(1,0,0,-1,-66.963823,764.8773)">
                <path
                   d="m 551.473,-423.016 c -15.032,2.536 -34.661,1.403 -48.121,-6.211"
                   style="fill:none;stroke:#000000;stroke-width:2.61674;stroke-linecap:round;stroke-linejoin:round;stroke-miterlimit:10;stroke-dasharray:none;stroke-opacity:1"
                   id="path2035" />
              </g>
              <g
                 id="g2037"
                 transform="matrix(1,0,0,-1,-66.963823,764.8773)">
                <path
                   d="m 503.352,-429.227 c -5.95,-13.007 -12.7,-26.273 -16.016,-40.394"
                   style="fill:none;stroke:#000000;stroke-width:2.61674;stroke-linecap:round;stroke-linejoin:round;stroke-miterlimit:10;stroke-dasharray:none;stroke-opacity:1"
                   id="path2039" />
              </g>
              <g
                 id="g2041"
                 transform="matrix(1,0,0,-1,-66.963823,764.8773)">
                <path
                   d="m 487.461,-470.25 c -1.359,-11.25 -2.805,-22.734 -0.731,-33.992"
                   style="fill:none;stroke:#000000;stroke-width:2.61674;stroke-linecap:round;stroke-linejoin:round;stroke-miterlimit:10;stroke-dasharray:none;stroke-opacity:1"
                   id="path2043" />
              </g>
              <g
                 id="g2045"
                 transform="matrix(1,0,0,-1,-66.963823,764.8773)">
                <path
                   d="m 551.473,-423.016 c 18.839,-70.597 10.156,-146.445 -3.348,-217.113"
                   style="fill:none;stroke:#000000;stroke-width:2.61674;stroke-linecap:round;stroke-linejoin:round;stroke-miterlimit:10;stroke-dasharray:none;stroke-opacity:1"
                   id="path2047" />
              </g>
              <g
                 id="g2049"
                 transform="matrix(1,0,0,-1,-66.963823,764.8773)">
                <path
                   d="m 487.379,-506.23 c 9.266,-1.25 21.531,-4.676 22.148,-15.985"
                   style="fill:none;stroke:#000000;stroke-width:2.61674;stroke-linecap:round;stroke-linejoin:round;stroke-miterlimit:10;stroke-dasharray:none;stroke-opacity:1"
                   id="path2051" />
              </g>
              <g
                 id="g2053"
                 transform="matrix(1,0,0,-1,-66.963823,764.8773)">
                <path
                   d="m 493.152,-529.656 c 8.891,2.027 16.95,6.703 25.735,8.594"
                   style="fill:none;stroke:#000000;stroke-width:2.61674;stroke-linecap:round;stroke-linejoin:round;stroke-miterlimit:10;stroke-dasharray:none;stroke-opacity:1"
                   id="path2055" />
              </g>
              <g
                 id="g2057"
                 transform="matrix(1,0,0,-1,-66.963823,764.8773)">
                <path
                   d="m 521.02,-522.406 c 2.992,-4.324 2.574,-12.571 1.972,-17.028"
                   style="fill:none;stroke:#000000;stroke-width:2.61674;stroke-linecap:round;stroke-linejoin:round;stroke-miterlimit:10;stroke-dasharray:none;stroke-opacity:1"
                   id="path2059" />
              </g>
              <g
                 id="g2061"
                 transform="matrix(1,0,0,-1,-66.963823,764.8773)">
                <path
                   d="m 522.934,-540.527 c -8.899,-3.996 -20.395,-7.789 -28.086,-10.864"
                   style="fill:none;stroke:#000000;stroke-width:2.61674;stroke-linecap:round;stroke-linejoin:round;stroke-miterlimit:10;stroke-dasharray:none;stroke-opacity:1"
                   id="path2063" />
              </g>
              <g
                 id="g2065"
                 transform="matrix(1,0,0,-1,-66.963823,764.8773)">
                <path
                   d="m 493.289,-531.91 c 0.594,-6.278 -0.977,-12.555 -0.371,-18.848"
                   style="fill:none;stroke:#000000;stroke-width:2.61674;stroke-linecap:round;stroke-linejoin:round;stroke-miterlimit:10;stroke-dasharray:none;stroke-opacity:1"
                   id="path2067" />
              </g>
              <g
                 id="g2069"
                 transform="matrix(1,0,0,-1,-66.963823,764.8773)">
                <path
                   d="m 514.328,-546.184 c -6.703,-15.089 -25.566,-19.386 -30.418,-33.902 0.176,-23.086 -2.195,-46.976 4.793,-69.371 1.551,-15.391 5.043,-12.582 24.406,-6.063 11.434,5.887 24.61,7.625 35.016,15.391"
                   style="fill:none;stroke:#000000;stroke-width:2.61674;stroke-linecap:round;stroke-linejoin:round;stroke-miterlimit:10;stroke-dasharray:none;stroke-opacity:1"
                   id="path2071" />
              </g>
              <g
                 id="g2073"
                 transform="matrix(1,0,0,-1,-66.963823,764.8773)">
                <path
                   d="m 472.258,-470.848 c 6.441,-9.39 1.238,-24.882 4.043,-35.582"
                   style="fill:none;stroke:#000000;stroke-width:2.61674;stroke-linecap:round;stroke-linejoin:round;stroke-miterlimit:10;stroke-dasharray:none;stroke-opacity:1"
                   id="path2075" />
              </g>
              <g
                 id="g2077"
                 transform="matrix(1,0,0,-1,-66.963823,764.8773)">
                <path
                   d="m 477.77,-507.934 c 2.445,-4.984 7.082,-12.187 10.871,-13.871"
                   style="fill:none;stroke:#000000;stroke-width:2.61674;stroke-linecap:round;stroke-linejoin:round;stroke-miterlimit:10;stroke-dasharray:none;stroke-opacity:1"
                   id="path2079" />
              </g>
              <g
                 id="g2081"
                 transform="matrix(1,0,0,-1,-66.963823,764.8773)">
                <path
                   d="m 487.691,-523.59 c 1.762,-13.211 -0.714,-27.207 -0.785,-39.933"
                   style="fill:none;stroke:#000000;stroke-width:2.61674;stroke-linecap:round;stroke-linejoin:round;stroke-miterlimit:10;stroke-dasharray:none;stroke-opacity:1"
                   id="path2083" />
              </g>
              <g
                 id="g2085"
                 transform="matrix(1,0,0,-1,-66.963823,764.8773)">
                <path
                   d="m 486.395,-564.418 c -4.879,-1.969 -9.872,-6.82 -11.223,-11.137"
                   style="fill:none;stroke:#000000;stroke-width:2.61674;stroke-linecap:round;stroke-linejoin:round;stroke-miterlimit:10;stroke-dasharray:none;stroke-opacity:1"
                   id="path2087" />
              </g>
              <g
                 id="g2089"
                 transform="matrix(1,0,0,-1,-66.963823,764.8773)">
                <path
                   d="m 473.395,-575.465 c 0.859,-13.988 3.242,-29.941 -1.903,-42.996"
                   style="fill:none;stroke:#000000;stroke-width:2.61674;stroke-linecap:round;stroke-linejoin:round;stroke-miterlimit:10;stroke-dasharray:none;stroke-opacity:1"
                   id="path2091" />
              </g>
              <g
                 id="g2093"
                 transform="matrix(1,0,0,-1,-66.963823,764.8773)">
                <path
                   d="m 471.5,-618.562 c -1.359,-18.555 -2.949,-45.047 16.77,-54.387 0.941,-0.305 7.472,-2.094 8.503,-0.711"
                   style="fill:none;stroke:#000000;stroke-width:2.61674;stroke-linecap:round;stroke-linejoin:round;stroke-miterlimit:10;stroke-dasharray:none;stroke-opacity:1"
                   id="path2095" />
              </g>
              <g
                 id="g2097"
                 transform="matrix(1,0,0,-1,-66.963823,764.8773)">
                <path
                   d="m 443.137,-627.273 c 9.254,1.953 18.269,5.164 27.152,8"
                   style="fill:none;stroke:#000000;stroke-width:2.61674;stroke-linecap:round;stroke-linejoin:round;stroke-miterlimit:10;stroke-dasharray:none;stroke-opacity:1"
                   id="path2099" />
              </g>
              <g
                 id="g2101"
                 transform="matrix(1,0,0,-1,-66.963823,764.8773)">
                <path
                   d="m 443.129,-582.801 c 6.789,2.274 25.066,5.824 32.043,7.246"
                   style="fill:none;stroke:#000000;stroke-width:2.61674;stroke-linecap:round;stroke-linejoin:round;stroke-miterlimit:10;stroke-dasharray:none;stroke-opacity:1"
                   id="path2103" />
              </g>
              <g
                 id="g2105"
                 transform="matrix(1,0,0,-1,-66.963823,764.8773)">
                <path
                   d="m 443.797,-479.219 c 8.683,1.977 19.492,7.985 28.461,8.371"
                   style="fill:none;stroke:#000000;stroke-width:2.61674;stroke-linecap:round;stroke-linejoin:round;stroke-miterlimit:10;stroke-dasharray:none;stroke-opacity:1"
                   id="path2107" />
              </g>
              <g
                 id="g2109"
                 transform="matrix(1,0,0,-1,-66.963823,764.8773)">
                <path
                   d="m 447.883,-515.438 c 6.527,1.844 13.387,2.336 19.988,4.043"
                   style="fill:none;stroke:#000000;stroke-width:2.61674;stroke-linecap:round;stroke-linejoin:round;stroke-miterlimit:10;stroke-dasharray:none;stroke-opacity:1"
                   id="path2111" />
              </g>
              <g
                 id="g2113"
                 transform="matrix(1,0,0,-1,-66.963823,764.8773)">
                <path
                   d="m 468.473,-510.707 c 2.55,6.656 4.808,5.863 4.336,-1.086"
                   style="fill:none;stroke:#000000;stroke-width:2.61674;stroke-linecap:round;stroke-linejoin:round;stroke-miterlimit:10;stroke-dasharray:none;stroke-opacity:1"
                   id="path2115" />
              </g>
              <g
                 id="g2117"
                 transform="matrix(1,0,0,-1,-66.963823,764.8773)">
                <path
                   d="m 471.48,-514.75 c 2.336,-2.215 3.34,-5.359 4.844,-8.113"
                   style="fill:none;stroke:#000000;stroke-width:2.61674;stroke-linecap:round;stroke-linejoin:round;stroke-miterlimit:10;stroke-dasharray:none;stroke-opacity:1"
                   id="path2119" />
              </g>
              <g
                 id="g2121"
                 transform="matrix(1,0,0,-1,-66.963823,764.8773)">
                <path
                   d="m 471.766,-515.062 c -2.239,0.386 -5.422,0.691 -6.969,-1.504"
                   style="fill:none;stroke:#000000;stroke-width:2.61674;stroke-linecap:round;stroke-linejoin:round;stroke-miterlimit:10;stroke-dasharray:none;stroke-opacity:1"
                   id="path2123" />
              </g>
              <g
                 id="g2125"
                 transform="matrix(1,0,0,-1,-66.963823,764.8773)">
                <path
                   d="m 464.609,-518.859 c 9.493,-15.594 8.371,-36.633 -0.101,-52.348"
                   style="fill:none;stroke:#000000;stroke-width:2.61674;stroke-linecap:round;stroke-linejoin:round;stroke-miterlimit:10;stroke-dasharray:none;stroke-opacity:1"
                   id="path2127" />
              </g>
              <g
                 id="g2129"
                 transform="matrix(1,0,0,-1,-66.963823,764.8773)">
                <path
                   d="m 477.727,-524.527 c 6.835,-14.7 5.437,-31.141 -2.75,-44.891"
                   style="fill:none;stroke:#000000;stroke-width:2.61674;stroke-linecap:round;stroke-linejoin:round;stroke-miterlimit:10;stroke-dasharray:none;stroke-opacity:1"
                   id="path2131" />
              </g>
              <g
                 id="g2133"
                 transform="matrix(1,0,0,-1,-66.963823,764.8773)">
                <path
                   d="m 476.641,-512.258 c 4.609,-5.234 8.23,-14.68 8.129,-20.094"
                   style="fill:none;stroke:#000000;stroke-width:2.61674;stroke-linecap:round;stroke-linejoin:round;stroke-miterlimit:10;stroke-dasharray:none;stroke-opacity:1"
                   id="path2135" />
              </g>
              <g
                 id="g2137"
                 transform="matrix(1,0,0,-1,-66.963823,764.8773)">
                <path
                   d="m 392.562,-410.039 c 14.571,-1.027 31.168,-0.461 44.403,-3.117"
                   style="fill:none;stroke:#000000;stroke-width:1.26872;stroke-linecap:round;stroke-linejoin:round;stroke-miterlimit:10;stroke-dasharray:none;stroke-opacity:1"
                   id="path2139" />
              </g>
              <g
                 id="g2141"
                 transform="matrix(1,0,0,-1,-66.963823,764.8773)">
                <path
                   d="m 435.945,-416.074 c 5.95,-7.059 3.996,-20.91 10.809,-5.528 l -0.074,-0.132 -0.266,0.082"
                   style="fill:none;stroke:#000000;stroke-width:1.26872;stroke-linecap:round;stroke-linejoin:round;stroke-miterlimit:10;stroke-dasharray:none;stroke-opacity:1"
                   id="path2143" />
              </g>
              <g
                 id="g2145"
                 transform="matrix(1,0,0,-1,-66.963823,764.8773)">
                <path
                   d="m 445.035,-413.965 c 16.735,4.231 34.403,5.863 51.57,6.199"
                   style="fill:none;stroke:#000000;stroke-width:1.26872;stroke-linecap:round;stroke-linejoin:round;stroke-miterlimit:10;stroke-dasharray:none;stroke-opacity:1"
                   id="path2147" />
              </g>
              <g
                 id="g2149"
                 transform="matrix(1,0,0,-1,-66.963823,764.8773)">
                <path
                   d="m 452.812,-420.012 c 11.559,2.574 23.368,5.45 35.219,6.836"
                   style="fill:none;stroke:#000000;stroke-width:1.26872;stroke-linecap:round;stroke-linejoin:round;stroke-miterlimit:10;stroke-dasharray:none;stroke-opacity:1"
                   id="path2151" />
              </g>
              <g
                 id="g2153"
                 transform="matrix(1,0,0,-1,-66.963823,764.8773)">
                <path
                   d="m 381.23,-432.754 c -6.214,-7.035 8.625,-3.742 0.704,-0.402"
                   style="fill:none;stroke:#000000;stroke-width:1.26872;stroke-linecap:round;stroke-linejoin:round;stroke-miterlimit:10;stroke-dasharray:none;stroke-opacity:1"
                   id="path2155" />
              </g>
              <g
                 id="g2157"
                 transform="matrix(1,0,0,-1,-66.963823,764.8773)">
                <path
                   d="m 431.66,-437.496 c -8.281,-8.395 11.754,-2.383 -1.203,-1.047"
                   style="fill:none;stroke:#000000;stroke-width:1.26872;stroke-linecap:round;stroke-linejoin:round;stroke-miterlimit:10;stroke-dasharray:none;stroke-opacity:1"
                   id="path2159" />
              </g>
              <g
                 id="g2161"
                 transform="matrix(1,0,0,-1,-66.963823,764.8773)">
                <path
                   d="m 387.664,-451.543 c 20.031,1.383 7.348,-30.648 -3.461,-12.488 -1.527,3.351 -0.199,10.855 3.348,11.957"
                   style="fill:none;stroke:#000000;stroke-width:1.26872;stroke-linecap:round;stroke-linejoin:round;stroke-miterlimit:10;stroke-dasharray:none;stroke-opacity:1"
                   id="path2163" />
              </g>
              <g
                 id="g2165"
                 transform="matrix(1,0,0,-1,-66.963823,764.8773)">
                <path
                   d="m 388.98,-452.477 c 1.04,0.61 5.325,2.434 6.43,2.739"
                   style="fill:none;stroke:#000000;stroke-width:1.26872;stroke-linecap:round;stroke-linejoin:round;stroke-miterlimit:10;stroke-dasharray:none;stroke-opacity:1"
                   id="path2167" />
              </g>
              <g
                 id="g2169"
                 transform="matrix(1,0,0,-1,-66.963823,764.8773)">
                <path
                   d="m 398.32,-449.543 c 8.317,-3.07 9.649,-14.937 4.856,-20.922"
                   style="fill:none;stroke:#000000;stroke-width:1.26872;stroke-linecap:round;stroke-linejoin:round;stroke-miterlimit:10;stroke-dasharray:none;stroke-opacity:1"
                   id="path2171" />
              </g>
              <g
                 id="g2173"
                 transform="matrix(1,0,0,-1,-66.963823,764.8773)">
                <path
                   d="m 402.078,-470.352 c -2.539,-0.566 -5.191,-0.492 -7.711,0.106"
                   style="fill:none;stroke:#000000;stroke-width:1.26872;stroke-linecap:round;stroke-linejoin:round;stroke-miterlimit:10;stroke-dasharray:none;stroke-opacity:1"
                   id="path2175" />
              </g>
              <g
                 id="g2177"
                 transform="matrix(1,0,0,-1,-66.963823,764.8773)">
                <path
                   d="m 390.902,-471.426 c 17.684,-15.547 28.618,15.531 13.489,25.278 -5.446,5.214 -14.754,3.128 -16.844,-4.086"
                   style="fill:none;stroke:#000000;stroke-width:1.26872;stroke-linecap:round;stroke-linejoin:round;stroke-miterlimit:10;stroke-dasharray:none;stroke-opacity:1"
                   id="path2179" />
              </g>
              <g
                 id="g2181"
                 transform="matrix(1,0,0,-1,-66.963823,764.8773)">
                <path
                   d="m 390.336,-450.609 c -1.215,2.394 1.398,4.793 2.684,1.781"
                   style="fill:none;stroke:#000000;stroke-width:1.26872;stroke-linecap:round;stroke-linejoin:round;stroke-miterlimit:10;stroke-dasharray:none;stroke-opacity:1"
                   id="path2183" />
              </g>
              <g
                 id="g2185"
                 transform="matrix(1,0,0,-1,-66.963823,764.8773)">
                <path
                   d="m 404.148,-450.82 c -0.054,3.093 5.813,-1.438 0.278,-1.188"
                   style="fill:none;stroke:#000000;stroke-width:1.26872;stroke-linecap:round;stroke-linejoin:round;stroke-miterlimit:10;stroke-dasharray:none;stroke-opacity:1"
                   id="path2187" />
              </g>
              <g
                 id="g2189"
                 transform="matrix(1,0,0,-1,-66.963823,764.8773)">
                <path
                   d="m 406.172,-469.441 c -0.922,-3.223 5.273,-0.118 0.824,0.75"
                   style="fill:none;stroke:#000000;stroke-width:1.26872;stroke-linecap:round;stroke-linejoin:round;stroke-miterlimit:10;stroke-dasharray:none;stroke-opacity:1"
                   id="path2191" />
              </g>
              <g
                 id="g2193"
                 transform="matrix(1,0,0,-1,-66.963823,764.8773)">
                <path
                   d="m 389.383,-460.129 c -1.289,-3.062 3.844,-0.297 -0.055,-0.25"
                   style="fill:none;stroke:#000000;stroke-width:1.26872;stroke-linecap:round;stroke-linejoin:round;stroke-miterlimit:10;stroke-dasharray:none;stroke-opacity:1"
                   id="path2195" />
              </g>
              <g
                 id="g2197"
                 transform="matrix(1,0,0,-1,-66.963823,764.8773)">
                <path
                   d="m 381.438,-478.234 c 16.246,2.05 27.964,-5.278 23.277,-22.606 -3.219,-7.488 -32.477,-3.625 -25.824,11.973 1.043,1.871 -3.453,12.969 1.992,9.738"
                   style="fill:none;stroke:#000000;stroke-width:1.26872;stroke-linecap:round;stroke-linejoin:round;stroke-miterlimit:10;stroke-dasharray:none;stroke-opacity:1"
                   id="path2199" />
              </g>
              <g
                 id="g2201"
                 transform="matrix(1,0,0,-1,-66.963823,764.8773)">
                <path
                   d="m 376.926,-504.496 c 1.074,-0.016 5.64,-0.598 6.851,-0.879"
                   style="fill:none;stroke:#000000;stroke-width:1.26872;stroke-linecap:round;stroke-linejoin:round;stroke-miterlimit:10;stroke-dasharray:none;stroke-opacity:1"
                   id="path2203" />
              </g>
              <g
                 id="g2205"
                 transform="matrix(1,0,0,-1,-66.963823,764.8773)">
                <path
                   d="m 384.258,-505.762 c -0.371,-1.273 0.879,-8.808 -0.492,-7.804"
                   style="fill:none;stroke:#000000;stroke-width:1.26872;stroke-linecap:round;stroke-linejoin:round;stroke-miterlimit:10;stroke-dasharray:none;stroke-opacity:1"
                   id="path2207" />
              </g>
              <g
                 id="g2209"
                 transform="matrix(1,0,0,-1,-66.963823,764.8773)">
                <path
                   d="m 383.426,-513.641 c -8.274,-2.82 -6.492,2.52 -7.531,8.45"
                   style="fill:none;stroke:#000000;stroke-width:1.26872;stroke-linecap:round;stroke-linejoin:round;stroke-miterlimit:10;stroke-dasharray:none;stroke-opacity:1"
                   id="path2211" />
              </g>
              <g
                 id="g2213"
                 transform="matrix(1,0,0,-1,-66.963823,764.8773)">
                <path
                   d="m 378.012,-539.168 c 0.851,4.309 5.785,1.293 3.726,-1.902"
                   style="fill:none;stroke:#000000;stroke-width:1.26872;stroke-linecap:round;stroke-linejoin:round;stroke-miterlimit:10;stroke-dasharray:none;stroke-opacity:1"
                   id="path2215" />
              </g>
              <g
                 id="g2217"
                 transform="matrix(1,0,0,-1,-66.963823,764.8773)">
                <path
                   d="m 375.07,-512.719 c 0.164,-9.902 -5.945,-28.582 9.032,-30.453"
                   style="fill:none;stroke:#000000;stroke-width:1.26872;stroke-linecap:round;stroke-linejoin:round;stroke-miterlimit:10;stroke-dasharray:none;stroke-opacity:1"
                   id="path2219" />
              </g>
              <g
                 id="g2221"
                 transform="matrix(1,0,0,-1,-66.963823,764.8773)">
                <path
                   d="m 387.609,-566.047 c -9.074,0.117 -1.554,-11.926 3.61,-7.476"
                   style="fill:none;stroke:#000000;stroke-width:1.26872;stroke-linecap:round;stroke-linejoin:round;stroke-miterlimit:10;stroke-dasharray:none;stroke-opacity:1"
                   id="path2223" />
              </g>
              <g
                 id="g2225"
                 transform="matrix(1,0,0,-1,-66.963823,764.8773)">
                <path
                   d="m 388.352,-567.25 c -4.75,-1.484 -1.059,-7.316 2.375,-4.191"
                   style="fill:none;stroke:#000000;stroke-width:1.26872;stroke-linecap:round;stroke-linejoin:round;stroke-miterlimit:10;stroke-dasharray:none;stroke-opacity:1"
                   id="path2227" />
              </g>
              <g
                 id="g2229"
                 transform="matrix(1,0,0,-1,-66.963823,764.8773)">
                <path
                   d="m 377.406,-590.438 c 10.317,-0.175 23.844,-0.964 28.489,10.758"
                   style="fill:none;stroke:#000000;stroke-width:1.26872;stroke-linecap:round;stroke-linejoin:round;stroke-miterlimit:10;stroke-dasharray:none;stroke-opacity:1"
                   id="path2231" />
              </g>
              <g
                 id="g2233"
                 transform="matrix(1,0,0,-1,-66.963823,764.8773)">
                <path
                   d="m 392.449,-591.953 c 3.301,0.398 7.203,4.715 10.196,3.824"
                   style="fill:none;stroke:#000000;stroke-width:1.26872;stroke-linecap:round;stroke-linejoin:round;stroke-miterlimit:10;stroke-dasharray:none;stroke-opacity:1"
                   id="path2235" />
              </g>
              <g
                 id="g2237"
                 transform="matrix(1,0,0,-1,-66.963823,764.8773)">
                <path
                   d="m 403.102,-588.672 c 22.765,-2.008 31.078,-26.676 24.382,-46.125"
                   style="fill:none;stroke:#000000;stroke-width:1.26872;stroke-linecap:round;stroke-linejoin:round;stroke-miterlimit:10;stroke-dasharray:none;stroke-opacity:1"
                   id="path2239" />
              </g>
              <g
                 id="g2241"
                 transform="matrix(1,0,0,-1,-66.963823,764.8773)">
                <path
                   d="m 412.652,-644.988 c 3.668,-0.289 6.934,1.492 10.481,1.883"
                   style="fill:none;stroke:#000000;stroke-width:1.26872;stroke-linecap:round;stroke-linejoin:round;stroke-miterlimit:10;stroke-dasharray:none;stroke-opacity:1"
                   id="path2243" />
              </g>
              <g
                 id="g2245"
                 transform="matrix(1,0,0,-1,-66.963823,764.8773)">
                <path
                   d="m 411.297,-608.371 c 3.109,0.34 6.125,1.316 9.262,1.457"
                   style="fill:none;stroke:#000000;stroke-width:1.26872;stroke-linecap:round;stroke-linejoin:round;stroke-miterlimit:10;stroke-dasharray:none;stroke-opacity:1"
                   id="path2247" />
              </g>
              <g
                 id="g2249"
                 transform="matrix(1,0,0,-1,-66.963823,764.8773)">
                <path
                   d="m 414.695,-616.773 c 2.555,-0.961 5.227,0.757 7.52,1.5"
                   style="fill:none;stroke:#000000;stroke-width:1.26872;stroke-linecap:round;stroke-linejoin:round;stroke-miterlimit:10;stroke-dasharray:none;stroke-opacity:1"
                   id="path2251" />
              </g>
              <g
                 id="g2253"
                 transform="matrix(1,0,0,-1,-66.963823,764.8773)">
                <path
                   d="m 401.809,-606.699 c -16.457,18.801 -34.594,-8.52 -23.149,-24.438 5.738,-19.758 38.442,-14.797 29.485,6.938 -2.801,8.418 -5.872,19.273 -15.247,22.187"
                   style="fill:none;stroke:#000000;stroke-width:1.26872;stroke-linecap:round;stroke-linejoin:round;stroke-miterlimit:10;stroke-dasharray:none;stroke-opacity:1"
                   id="path2255" />
              </g>
              <g
                 id="g2257"
                 transform="matrix(1,0,0,-1,-66.963823,764.8773)">
                <path
                   d="m 433.207,-607.469 c -1.965,-6.566 9.598,-2.41 0,0"
                   style="fill:none;stroke:#000000;stroke-width:1.26872;stroke-linecap:round;stroke-linejoin:round;stroke-miterlimit:10;stroke-dasharray:none;stroke-opacity:1"
                   id="path2259" />
              </g>
              <g
                 id="g2261"
                 transform="matrix(1,0,0,-1,-66.963823,764.8773)">
                <path
                   d="m 389.504,-523.145 c 6.832,3.844 15.695,7.922 21.437,10.981"
                   style="fill:none;stroke:#000000;stroke-width:1.26872;stroke-linecap:round;stroke-linejoin:round;stroke-miterlimit:10;stroke-dasharray:none;stroke-opacity:1"
                   id="path2263" />
              </g>
              <g
                 id="g2265"
                 transform="matrix(1,0,0,-1,-66.963823,764.8773)">
                <path
                   d="m 417.977,-498.973 c 0.398,-2.492 0.394,-5.968 1.011,-7.937"
                   style="fill:none;stroke:#000000;stroke-width:1.26872;stroke-linecap:round;stroke-linejoin:round;stroke-miterlimit:10;stroke-dasharray:none;stroke-opacity:1"
                   id="path2267" />
              </g>
              <g
                 id="g2269"
                 transform="matrix(1,0,0,-1,-66.963823,764.8773)">
                <path
                   d="m 421.77,-497.008 c 1.367,-2.379 1.324,-5.293 1.085,-7.93"
                   style="fill:none;stroke:#000000;stroke-width:1.26872;stroke-linecap:round;stroke-linejoin:round;stroke-miterlimit:10;stroke-dasharray:none;stroke-opacity:1"
                   id="path2271" />
              </g>
              <g
                 id="g2273"
                 transform="matrix(1,0,0,-1,-66.963823,764.8773)">
                <path
                   d="m 427.547,-493.445 c 0.844,-2.985 1.191,-6.141 1.098,-9.235"
                   style="fill:none;stroke:#000000;stroke-width:1.26872;stroke-linecap:round;stroke-linejoin:round;stroke-miterlimit:10;stroke-dasharray:none;stroke-opacity:1"
                   id="path2275" />
              </g>
              <g
                 id="g2277"
                 transform="matrix(1,0,0,-1,-66.963823,764.8773)">
                <path
                   d="m 451.066,-491.324 c 1.45,-5.098 -0.214,-10.246 0.227,-15.387"
                   style="fill:none;stroke:#000000;stroke-width:1.26872;stroke-linecap:round;stroke-linejoin:round;stroke-miterlimit:10;stroke-dasharray:none;stroke-opacity:1"
                   id="path2279" />
              </g>
              <g
                 id="g2281"
                 transform="matrix(1,0,0,-1,-66.963823,764.8773)">
                <path
                   d="m 451.426,-507.316 c 6.043,-2.442 13.015,1.132 16.109,5.152"
                   style="fill:none;stroke:#000000;stroke-width:1.26872;stroke-linecap:round;stroke-linejoin:round;stroke-miterlimit:10;stroke-dasharray:none;stroke-opacity:1"
                   id="path2283" />
              </g>
              <g
                 id="g2285"
                 transform="matrix(1,0,0,-1,-66.963823,764.8773)">
                <path
                   d="m 468.492,-501.789 c 0.012,4.301 0.488,8.519 1.231,12.75"
                   style="fill:none;stroke:#000000;stroke-width:1.26872;stroke-linecap:round;stroke-linejoin:round;stroke-miterlimit:10;stroke-dasharray:none;stroke-opacity:1"
                   id="path2287" />
              </g>
              <g
                 id="g2289"
                 transform="matrix(1,0,0,-1,-66.963823,764.8773)">
                <path
                   d="m 469.473,-487.094 c -5.414,2.309 -12.395,-0.32 -17.004,-3.414"
                   style="fill:none;stroke:#000000;stroke-width:1.26872;stroke-linecap:round;stroke-linejoin:round;stroke-miterlimit:10;stroke-dasharray:none;stroke-opacity:1"
                   id="path2291" />
              </g>
              <g
                 id="g2293"
                 transform="matrix(1,0,0,-1,-66.963823,764.8773)">
                <path
                   d="m 452.176,-492.273 c 4.629,-0.383 9.375,1.527 12.445,5.011"
                   style="fill:none;stroke:#000000;stroke-width:1.26872;stroke-linecap:round;stroke-linejoin:round;stroke-miterlimit:10;stroke-dasharray:none;stroke-opacity:1"
                   id="path2295" />
              </g>
              <g
                 id="g2297"
                 transform="matrix(1,0,0,-1,-66.963823,764.8773)">
                <path
                   d="m 448.367,-483.109 c 6.172,3.886 14.067,4.636 21.113,5.851"
                   style="fill:none;stroke:#000000;stroke-width:1.26872;stroke-linecap:round;stroke-linejoin:round;stroke-miterlimit:10;stroke-dasharray:none;stroke-opacity:1"
                   id="path2299" />
              </g>
              <g
                 id="g2301"
                 transform="matrix(1,0,0,-1,-66.963823,764.8773)">
                <path
                   d="m 485.812,-421.488 c -5.453,-13.446 -13.039,-25.922 -17.203,-39.918"
                   style="fill:none;stroke:#000000;stroke-width:1.26872;stroke-linecap:round;stroke-linejoin:round;stroke-miterlimit:10;stroke-dasharray:none;stroke-opacity:1"
                   id="path2303" />
              </g>
              <g
                 id="g2305"
                 transform="matrix(1,0,0,-1,-66.963823,764.8773)">
                <path
                   d="m 491.879,-418.246 c 5.242,3.066 11.754,7.23 17.117,7.867"
                   style="fill:none;stroke:#000000;stroke-width:1.26872;stroke-linecap:round;stroke-linejoin:round;stroke-miterlimit:10;stroke-dasharray:none;stroke-opacity:1"
                   id="path2307" />
              </g>
              <g
                 id="g2309"
                 transform="matrix(1,0,0,-1,-66.963823,764.8773)">
                <path
                   d="m 494.355,-520.363 c 2.676,2.359 6.844,2.133 9.922,0.801"
                   style="fill:none;stroke:#000000;stroke-width:1.26872;stroke-linecap:round;stroke-linejoin:round;stroke-miterlimit:10;stroke-dasharray:none;stroke-opacity:1"
                   id="path2311" />
              </g>
            </g>
          </g>
        </g>
      </g>
    </g>
  </g>
</svg>
