<?xml version="1.0" encoding="UTF-8" standalone="no"?>
<!-- Created by Ashley Blewer - This work is licensed under a Creative Commons Attribution 4.0 International License -->

<svg
   width="544"
   height="480"
   viewBox="0 0 143.93334 127"
   version="1.1"
   id="svg2490"
   inkscape:version="1.2.2 (1:1.2.2+202212051552+b0a8486541)"
   sodipodi:docname="1965-single-8-2.svg"
   xmlns:inkscape="http://www.inkscape.org/namespaces/inkscape"
   xmlns:sodipodi="http://sodipodi.sourceforge.net/DTD/sodipodi-0.dtd"
   xmlns="http://www.w3.org/2000/svg"
   xmlns:svg="http://www.w3.org/2000/svg">
  <sodipodi:namedview
     id="namedview2492"
     pagecolor="#ffffff"
     bordercolor="#666666"
     borderopacity="1.0"
     inkscape:pageshadow="2"
     inkscape:pageopacity="0.0"
     inkscape:pagecheckerboard="0"
     inkscape:document-units="mm"
     showgrid="false"
     units="px"
     inkscape:zoom="0.90583674"
     inkscape:cx="337.25724"
     inkscape:cy="255.56482"
     inkscape:window-width="1846"
     inkscape:window-height="1136"
     inkscape:window-x="0"
     inkscape:window-y="0"
     inkscape:window-maximized="1"
     inkscape:current-layer="g6395"
     inkscape:showpageshadow="2"
     inkscape:deskcolor="#d1d1d1" />
  <defs
     id="defs2487" />
  <g
     inkscape:label="Layer 1"
     inkscape:groupmode="layer"
     id="layer1">
    <g
       id="g4731"
       transform="matrix(0.32961229,0,0,0.32903008,-241.78905,1.73126)"
       style="stroke-width:2.68698">
      <g
         id="g104528"
         transform="matrix(1,0,0,-1,0,792)"
         style="stroke-width:2.68698">
        <g
           id="g104530"
           style="stroke-width:2.68698" />
      </g>
      <g
         id="g104996"
         transform="matrix(1,0,0,-1,0,792)"
         style="stroke-width:2.68698">
        <g
           id="g104998"
           style="stroke-width:2.68698" />
      </g>
      <g
         id="g28852"
         transform="matrix(1.070281,0,0,1.0721748,779.91249,-443.13657)">
        <g
           id="g6718"
           transform="matrix(1.117886,0,0,1.117886,-549.13111,-491.62865)">
          <g
             id="g6395"
             transform="matrix(0.53415107,0,0,0.53415109,441.93669,415.26868)">
            <g
               id="g4932"
               transform="matrix(2.3976076,0,0,2.3976076,-106.9474,-1265.5505)">
              <g
                 id="g1046"
                 transform="matrix(1,0,0,-1,-104.71842,715.69467)">
                <path
                   d="m 241.613,-135.098 c 5.715,1.688 11.16,4.782 17.231,4.969"
                   style="fill:none;stroke:#000000;stroke-width:2.61674;stroke-linecap:round;stroke-linejoin:round;stroke-miterlimit:10;stroke-dasharray:none;stroke-opacity:1"
                   id="path1048" />
              </g>
              <g
                 id="g1050"
                 transform="matrix(1,0,0,-1,-104.71842,715.69467)">
                <path
                   d="m 258.844,-130.129 c 26.218,-5.168 56.488,-8.32 83.074,-10.312"
                   style="fill:none;stroke:#000000;stroke-width:2.61674;stroke-linecap:round;stroke-linejoin:round;stroke-miterlimit:10;stroke-dasharray:none;stroke-opacity:1"
                   id="path1052" />
              </g>
              <g
                 id="g1054"
                 transform="matrix(1,0,0,-1,-104.71842,715.69467)">
                <path
                   d="m 241.469,-136.305 c -0.137,-16.257 0.871,-32.5 -0.043,-48.746 0.207,-6.824 0.82,-13.644 0.523,-20.476"
                   style="fill:none;stroke:#000000;stroke-width:2.61674;stroke-linecap:round;stroke-linejoin:round;stroke-miterlimit:10;stroke-dasharray:none;stroke-opacity:1"
                   id="path1056" />
              </g>
              <g
                 id="g1058"
                 transform="matrix(1,0,0,-1,-104.71842,715.69467)">
                <path
                   d="m 241.949,-205.527 c -12.16,-6.543 -13.894,-23.77 -12.211,-35.774 1.004,-6.121 2.867,-14.437 10.242,-15.504"
                   style="fill:none;stroke:#000000;stroke-width:2.61674;stroke-linecap:round;stroke-linejoin:round;stroke-miterlimit:10;stroke-dasharray:none;stroke-opacity:1"
                   id="path1060" />
              </g>
              <g
                 id="g1062"
                 transform="matrix(1,0,0,-1,-104.71842,715.69467)">
                <path
                   d="m 239.98,-256.805 c -0.097,-22.84 0.856,-51.148 2.454,-73.937"
                   style="fill:none;stroke:#000000;stroke-width:2.61674;stroke-linecap:round;stroke-linejoin:round;stroke-miterlimit:10;stroke-dasharray:none;stroke-opacity:1"
                   id="path1064" />
              </g>
              <g
                 id="g1066"
                 transform="matrix(1,0,0,-1,-104.71842,715.69467)">
                <path
                   d="m 341.918,-140.441 c 6.59,-21.684 0.07,-48.813 2.137,-70.848"
                   style="fill:none;stroke:#000000;stroke-width:2.61674;stroke-linecap:round;stroke-linejoin:round;stroke-miterlimit:10;stroke-dasharray:none;stroke-opacity:1"
                   id="path1068" />
              </g>
              <g
                 id="g1070"
                 transform="matrix(1,0,0,-1,-104.71842,715.69467)">
                <path
                   d="m 242.754,-136.34 c 25.59,-3.148 51.539,-3.555 76.914,-8.293 l 3.258,-2.156"
                   style="fill:none;stroke:#000000;stroke-width:2.61674;stroke-linecap:round;stroke-linejoin:round;stroke-miterlimit:10;stroke-dasharray:none;stroke-opacity:1"
                   id="path1072" />
              </g>
              <g
                 id="g1074"
                 transform="matrix(1,0,0,-1,-104.71842,715.69467)">
                <path
                   d="m 322.926,-146.789 c 3.191,-17.59 -1.336,-35.523 0.383,-53.277 0.093,-3.028 -0.043,-6.079 -0.012,-8.426"
                   style="fill:none;stroke:#000000;stroke-width:2.61674;stroke-linecap:round;stroke-linejoin:round;stroke-miterlimit:10;stroke-dasharray:none;stroke-opacity:1"
                   id="path1076" />
              </g>
              <g
                 id="g1078"
                 transform="matrix(1,0,0,-1,-104.71842,715.69467)">
                <path
                   d="m 316.52,-208.777 c 12.918,-0.137 26.738,-1.227 38.589,-5.625"
                   style="fill:none;stroke:#000000;stroke-width:2.61674;stroke-linecap:round;stroke-linejoin:round;stroke-miterlimit:10;stroke-dasharray:none;stroke-opacity:1"
                   id="path1080" />
              </g>
              <g
                 id="g1082"
                 transform="matrix(1,0,0,-1,-104.71842,715.69467)">
                <path
                   d="m 316.52,-208.777 c -9.868,-10.543 -20.391,-25.321 -18.79,-40.555 1.231,-10.305 5.836,-24.219 16.797,-27.371"
                   style="fill:none;stroke:#000000;stroke-width:2.61674;stroke-linecap:round;stroke-linejoin:round;stroke-miterlimit:10;stroke-dasharray:none;stroke-opacity:1"
                   id="path1084" />
              </g>
              <g
                 id="g1086"
                 transform="matrix(1,0,0,-1,-104.71842,715.69467)">
                <path
                   d="m 314.527,-276.703 c 9.547,-2.352 23.7,-6.141 31.868,-6.617"
                   style="fill:none;stroke:#000000;stroke-width:2.61674;stroke-linecap:round;stroke-linejoin:round;stroke-miterlimit:10;stroke-dasharray:none;stroke-opacity:1"
                   id="path1088" />
              </g>
              <g
                 id="g1090"
                 transform="matrix(1,0,0,-1,-104.71842,715.69467)">
                <path
                   d="m 354.258,-215.043 c -17.926,-1.504 -24.153,-23.723 -23.703,-39.07 -0.192,-11.387 4.828,-26.102 17.457,-28.426"
                   style="fill:none;stroke:#000000;stroke-width:2.61674;stroke-linecap:round;stroke-linejoin:round;stroke-miterlimit:10;stroke-dasharray:none;stroke-opacity:1"
                   id="path1092" />
              </g>
              <g
                 id="g1094"
                 transform="matrix(1,0,0,-1,-104.71842,715.69467)">
                <path
                   d="m 354.258,-215.043 c 18.012,-10.066 20.758,-36.523 11.34,-52.625 -4.164,-6.316 -10.157,-13.227 -17.586,-14.871"
                   style="fill:none;stroke:#000000;stroke-width:2.61674;stroke-linecap:round;stroke-linejoin:round;stroke-miterlimit:10;stroke-dasharray:none;stroke-opacity:1"
                   id="path1096" />
              </g>
              <g
                 id="g1098"
                 transform="matrix(1,0,0,-1,-104.71842,715.69467)">
                <path
                   d="m 230.629,-227.363 c 18.508,-5.028 41.922,-7.645 60.023,-12.004"
                   style="fill:none;stroke:#000000;stroke-width:2.61674;stroke-linecap:round;stroke-linejoin:round;stroke-miterlimit:10;stroke-dasharray:none;stroke-opacity:1"
                   id="path1100" />
              </g>
              <g
                 id="g1102"
                 transform="matrix(1,0,0,-1,-104.71842,715.69467)">
                <path
                   d="m 230.957,-242.141 c 18.875,-5 38.473,-6.086 57.469,-10.429"
                   style="fill:none;stroke:#000000;stroke-width:2.61674;stroke-linecap:round;stroke-linejoin:round;stroke-miterlimit:10;stroke-dasharray:none;stroke-opacity:1"
                   id="path1104" />
              </g>
              <g
                 id="g1106"
                 transform="matrix(1,0,0,-1,-104.71842,715.69467)">
                <path
                   d="m 290.652,-239.367 c 0,0 0.305,-8.653 -1.125,-12.406"
                   style="fill:none;stroke:#000000;stroke-width:2.61674;stroke-linecap:round;stroke-linejoin:round;stroke-miterlimit:10;stroke-dasharray:none;stroke-opacity:1"
                   id="path1108" />
              </g>
              <g
                 id="g1110"
                 transform="matrix(1,0,0,-1,-104.71842,715.69467)">
                <path
                   d="m 242.434,-330.742 c 18.847,-6.992 38.757,-11.11 57.574,-18.52 3.797,-1.304 9.797,-4.008 13.64,-5.164"
                   style="fill:none;stroke:#000000;stroke-width:2.61674;stroke-linecap:round;stroke-linejoin:round;stroke-miterlimit:10;stroke-dasharray:none;stroke-opacity:1"
                   id="path1112" />
              </g>
              <g
                 id="g1114"
                 transform="matrix(1,0,0,-1,-104.71842,715.69467)">
                <path
                   d="m 314.527,-276.703 c 3.395,-18.977 3.43,-42.609 3.532,-61.805 -0.52,-4.988 -1.598,-12.492 -4.938,-15.191"
                   style="fill:none;stroke:#000000;stroke-width:2.61674;stroke-linecap:round;stroke-linejoin:round;stroke-miterlimit:10;stroke-dasharray:none;stroke-opacity:1"
                   id="path1116" />
              </g>
              <g
                 id="g1118"
                 transform="matrix(1,0,0,-1,-104.71842,715.69467)">
                <path
                   d="m 343.496,-281.859 c 0.063,-18.274 1.516,-41.34 -0.047,-59.516 l -0.543,-4.402"
                   style="fill:none;stroke:#000000;stroke-width:2.61674;stroke-linecap:round;stroke-linejoin:round;stroke-miterlimit:10;stroke-dasharray:none;stroke-opacity:1"
                   id="path1120" />
              </g>
              <g
                 id="g1122"
                 transform="matrix(1,0,0,-1,-104.71842,715.69467)">
                <path
                   d="m 313.648,-354.426 c 9.914,2.055 19.95,4.828 29.258,8.649"
                   style="fill:none;stroke:#000000;stroke-width:2.61674;stroke-linecap:round;stroke-linejoin:round;stroke-miterlimit:10;stroke-dasharray:none;stroke-opacity:1"
                   id="path1124" />
              </g>
              <g
                 id="g1126"
                 transform="matrix(1,0,0,-1,-104.71842,715.69467)">
                <path
                   d="m 327.633,-279.938 c 0.699,-9.042 -1.195,-20.855 -0.418,-29.894"
                   style="fill:none;stroke:#000000;stroke-width:2.61674;stroke-linecap:round;stroke-linejoin:round;stroke-miterlimit:10;stroke-dasharray:none;stroke-opacity:1"
                   id="path1128" />
              </g>
              <g
                 id="g1130"
                 transform="matrix(1,0,0,-1,-104.71842,715.69467)">
                <path
                   d="m 321.59,-278.012 c 2.414,-9.039 2.086,-27.82 5.512,-32.699"
                   style="fill:none;stroke:#000000;stroke-width:2.61674;stroke-linecap:round;stroke-linejoin:round;stroke-miterlimit:10;stroke-dasharray:none;stroke-opacity:1"
                   id="path1132" />
              </g>
              <g
                 id="g1134"
                 transform="matrix(1,0,0,-1,-104.71842,715.69467)">
                <path
                   d="m 327.102,-310.711 c 0.984,-6.91 10.996,-1.289 15.086,-1.562"
                   style="fill:none;stroke:#000000;stroke-width:2.61674;stroke-linecap:round;stroke-linejoin:round;stroke-miterlimit:10;stroke-dasharray:none;stroke-opacity:1"
                   id="path1136" />
              </g>
              <g
                 id="g1138"
                 transform="matrix(1,0,0,-1,-104.71842,715.69467)">
                <path
                   d="m 341.301,-146.52 c -17.824,8.368 -20.649,-29.406 -2.91,-19.875 l 2.105,0.153"
                   style="fill:none;stroke:#000000;stroke-width:2.61674;stroke-linecap:round;stroke-linejoin:round;stroke-miterlimit:10;stroke-dasharray:none;stroke-opacity:1"
                   id="path1140" />
              </g>
              <g
                 id="g1142"
                 transform="matrix(1,0,0,-1,-104.71842,715.69467)">
                <path
                   d="m 338.477,-216.719 c -12.618,-15.82 -14.766,-38.875 -7.817,-57.476 -0.394,0.234 1.445,-3.801 2.235,-1.981"
                   style="fill:none;stroke:#000000;stroke-width:1.26872;stroke-linecap:round;stroke-linejoin:round;stroke-miterlimit:10;stroke-dasharray:none;stroke-opacity:1"
                   id="path1144" />
              </g>
              <g
                 id="g1146"
                 transform="matrix(1,0,0,-1,-104.71842,715.69467)">
                <path
                   d="m 230.809,-231.758 c 9.242,-2.879 20.359,-3.304 28.808,-5.933"
                   style="fill:none;stroke:#000000;stroke-width:1.26872;stroke-linecap:round;stroke-linejoin:round;stroke-miterlimit:10;stroke-dasharray:none;stroke-opacity:1"
                   id="path1148" />
              </g>
              <g
                 id="g1150"
                 transform="matrix(1,0,0,-1,-104.71842,715.69467)">
                <path
                   d="m 259.617,-237.691 -0.222,-5.606"
                   style="fill:none;stroke:#000000;stroke-width:1.26872;stroke-linecap:round;stroke-linejoin:round;stroke-miterlimit:10;stroke-dasharray:none;stroke-opacity:1"
                   id="path1152" />
              </g>
              <g
                 id="g1154"
                 transform="matrix(1,0,0,-1,-104.71842,715.69467)">
                <path
                   d="m 230.773,-238.695 c 8.239,-1.594 20.258,-3.805 28.622,-4.602"
                   style="fill:none;stroke:#000000;stroke-width:1.26872;stroke-linecap:round;stroke-linejoin:round;stroke-miterlimit:10;stroke-dasharray:none;stroke-opacity:1"
                   id="path1156" />
              </g>
              <g
                 id="g1158"
                 transform="matrix(1,0,0,-1,-104.71842,715.69467)">
                <path
                   d="m 265.441,-242.355 c 4.176,-0.438 8.36,-0.969 12.45,-1.934"
                   style="fill:none;stroke:#000000;stroke-width:1.26872;stroke-linecap:round;stroke-linejoin:round;stroke-miterlimit:10;stroke-dasharray:none;stroke-opacity:1"
                   id="path1160" />
              </g>
              <g
                 id="g1162"
                 transform="matrix(1,0,0,-1,-104.71842,715.69467)">
                <path
                   d="m 357.492,-228.918 c -5.18,2.977 -12.898,1.793 -15.867,-3.758"
                   style="fill:none;stroke:#000000;stroke-width:1.26872;stroke-linecap:round;stroke-linejoin:round;stroke-miterlimit:10;stroke-dasharray:none;stroke-opacity:1"
                   id="path1164" />
              </g>
              <g
                 id="g1166"
                 transform="matrix(1,0,0,-1,-104.71842,715.69467)">
                <path
                   d="m 359.828,-222.117 c -13.203,5.277 -21.883,-10.102 -23.445,-21.09 -2.985,-11.945 -3.172,-31.426 12.191,-34.547"
                   style="fill:none;stroke:#000000;stroke-width:1.26872;stroke-linecap:round;stroke-linejoin:round;stroke-miterlimit:10;stroke-dasharray:none;stroke-opacity:1"
                   id="path1168" />
              </g>
              <g
                 id="g1170"
                 transform="matrix(1,0,0,-1,-104.71842,715.69467)">
                <path
                   d="m 346.426,-271.387 c 0.066,2.789 6.824,8.133 5.765,1.883"
                   style="fill:none;stroke:#000000;stroke-width:1.26872;stroke-linecap:round;stroke-linejoin:round;stroke-miterlimit:10;stroke-dasharray:none;stroke-opacity:1"
                   id="path1172" />
              </g>
              <g
                 id="g1174"
                 transform="matrix(1,0,0,-1,-104.71842,715.69467)">
                <path
                   d="m 349.621,-262.012 c 7.664,5.985 7.281,19.614 3.68,27.258"
                   style="fill:none;stroke:#000000;stroke-width:1.26872;stroke-linecap:round;stroke-linejoin:round;stroke-miterlimit:10;stroke-dasharray:none;stroke-opacity:1"
                   id="path1176" />
              </g>
              <g
                 id="g1178"
                 transform="matrix(1,0,0,-1,-104.71842,715.69467)">
                <path
                   d="m 358.133,-232.676 c 7.586,-5.785 2.965,-26.629 0.137,-26.597"
                   style="fill:none;stroke:#000000;stroke-width:1.26872;stroke-linecap:round;stroke-linejoin:round;stroke-miterlimit:10;stroke-dasharray:none;stroke-opacity:1"
                   id="path1180" />
              </g>
              <g
                 id="g1182"
                 transform="matrix(1,0,0,-1,-104.71842,715.69467)">
                <path
                   d="m 360.961,-229.527 c 7.648,-8.797 6.641,-23.059 1.215,-32.668"
                   style="fill:none;stroke:#000000;stroke-width:1.26872;stroke-linecap:round;stroke-linejoin:round;stroke-miterlimit:10;stroke-dasharray:none;stroke-opacity:1"
                   id="path1184" />
              </g>
              <g
                 id="g1186"
                 transform="matrix(1,0,0,-1,-104.71842,715.69467)">
                <path
                   d="m 335.555,-150.797 c 0.656,-4.082 0.199,-8.285 -0.942,-12.234"
                   style="fill:none;stroke:#000000;stroke-width:1.26872;stroke-linecap:round;stroke-linejoin:round;stroke-miterlimit:10;stroke-dasharray:none;stroke-opacity:1"
                   id="path1188" />
              </g>
              <g
                 id="g1190"
                 transform="matrix(1,0,0,-1,-104.71842,715.69467)">
                <path
                   d="m 332.691,-152.188 c 0.61,-4.042 0.567,-8.312 -0.976,-12.156"
                   style="fill:none;stroke:#000000;stroke-width:1.26872;stroke-linecap:round;stroke-linejoin:round;stroke-miterlimit:10;stroke-dasharray:none;stroke-opacity:1"
                   id="path1192" />
              </g>
              <g
                 id="g1194"
                 transform="matrix(1,0,0,-1,-104.71842,715.69467)">
                <path
                   d="m 327.996,-173.84 c 3.508,-0.195 7.008,0.512 10.508,0.055"
                   style="fill:none;stroke:#000000;stroke-width:1.26872;stroke-linecap:round;stroke-linejoin:round;stroke-miterlimit:10;stroke-dasharray:none;stroke-opacity:1"
                   id="path1196" />
              </g>
              <g
                 id="g1198"
                 transform="matrix(1,0,0,-1,-104.71842,715.69467)">
                <path
                   d="m 331.152,-305.285 c 2.641,1.004 5.5,1.156 8.293,1.187"
                   style="fill:none;stroke:#000000;stroke-width:1.26872;stroke-linecap:round;stroke-linejoin:round;stroke-miterlimit:10;stroke-dasharray:none;stroke-opacity:1"
                   id="path1200" />
              </g>
              <g
                 id="g1202"
                 transform="matrix(1,0,0,-1,-104.71842,715.69467)">
                <path
                   d="m 246.656,-204.496 c 20.387,-0.871 40.766,-2.043 61.141,-2.781 l 2.219,-0.578"
                   style="fill:none;stroke:#000000;stroke-width:1.26872;stroke-linecap:round;stroke-linejoin:round;stroke-miterlimit:10;stroke-dasharray:none;stroke-opacity:1"
                   id="path1204" />
              </g>
              <g
                 id="g1206"
                 transform="matrix(1,0,0,-1,-104.71842,715.69467)">
                <path
                   d="m 239.98,-256.805 c 15.594,-2.039 37.922,-5.547 51.555,-10.972"
                   style="fill:none;stroke:#000000;stroke-width:1.26872;stroke-linecap:round;stroke-linejoin:round;stroke-miterlimit:10;stroke-dasharray:none;stroke-opacity:1"
                   id="path1208" />
              </g>
              <g
                 id="g1210"
                 transform="matrix(1,0,0,-1,-104.71842,715.69467)">
                <path
                   d="m 292.867,-270.348 c 4.613,-1.441 8.738,-4.047 12.988,-6.273"
                   style="fill:none;stroke:#000000;stroke-width:1.26872;stroke-linecap:round;stroke-linejoin:round;stroke-miterlimit:10;stroke-dasharray:none;stroke-opacity:1"
                   id="path1212" />
              </g>
              <g
                 id="g1214"
                 transform="matrix(1,0,0,-1,-104.71842,715.69467)">
                <path
                   d="m 308.977,-207.453 c -5.957,-1.067 -13.106,-2.488 -18.961,-4.039"
                   style="fill:none;stroke:#000000;stroke-width:1.26872;stroke-linecap:round;stroke-linejoin:round;stroke-miterlimit:10;stroke-dasharray:none;stroke-opacity:1"
                   id="path1216" />
              </g>
              <g
                 id="g1218"
                 transform="matrix(1,0,0,-1,-104.71842,715.69467)">
                <path
                   d="m 246.895,-204.621 c 14.371,-2.359 28.64,-5.301 43.121,-6.871"
                   style="fill:none;stroke:#000000;stroke-width:1.26872;stroke-linecap:round;stroke-linejoin:round;stroke-miterlimit:10;stroke-dasharray:none;stroke-opacity:1"
                   id="path1220" />
              </g>
            </g>
          </g>
        </g>
      </g>
    </g>
  </g>
</svg>
