<?xml version="1.0" encoding="UTF-8" standalone="no"?>
<!-- Created by Ashley Blewer - This work is licensed under a Creative Commons Attribution 4.0 International License -->

<svg
   width="544"
   height="480"
   viewBox="0 0 143.93334 127"
   version="1.1"
   id="svg2490"
   inkscape:version="1.2.2 (1:1.2.2+202212051552+b0a8486541)"
   sodipodi:docname="1965-super-8-3.svg"
   xmlns:inkscape="http://www.inkscape.org/namespaces/inkscape"
   xmlns:sodipodi="http://sodipodi.sourceforge.net/DTD/sodipodi-0.dtd"
   xmlns="http://www.w3.org/2000/svg"
   xmlns:svg="http://www.w3.org/2000/svg">
  <sodipodi:namedview
     id="namedview2492"
     pagecolor="#ffffff"
     bordercolor="#666666"
     borderopacity="1.0"
     inkscape:pageshadow="2"
     inkscape:pageopacity="0.0"
     inkscape:pagecheckerboard="0"
     inkscape:document-units="mm"
     showgrid="false"
     units="px"
     inkscape:zoom="0.90583674"
     inkscape:cx="337.25724"
     inkscape:cy="255.56482"
     inkscape:window-width="1846"
     inkscape:window-height="1136"
     inkscape:window-x="0"
     inkscape:window-y="0"
     inkscape:window-maximized="1"
     inkscape:current-layer="g6395"
     inkscape:showpageshadow="2"
     inkscape:deskcolor="#d1d1d1" />
  <defs
     id="defs2487" />
  <g
     inkscape:label="Layer 1"
     inkscape:groupmode="layer"
     id="layer1">
    <g
       id="g4731"
       transform="matrix(0.32961229,0,0,0.32903008,-241.78905,1.73126)"
       style="stroke-width:2.68698">
      <g
         id="g104528"
         transform="matrix(1,0,0,-1,0,792)"
         style="stroke-width:2.68698">
        <g
           id="g104530"
           style="stroke-width:2.68698" />
      </g>
      <g
         id="g104996"
         transform="matrix(1,0,0,-1,0,792)"
         style="stroke-width:2.68698">
        <g
           id="g104998"
           style="stroke-width:2.68698" />
      </g>
      <g
         id="g28852"
         transform="matrix(1.070281,0,0,1.0721748,779.91249,-443.13657)">
        <g
           id="g6718"
           transform="matrix(1.117886,0,0,1.117886,-549.13111,-491.62865)">
          <g
             id="g6395"
             transform="matrix(0.53415107,0,0,0.53415109,441.93669,415.26868)">
            <g
               id="g8115"
               transform="matrix(2.4047562,0,0,2.4047562,-1778.4721,-2216.5653)">
              <g
                 id="g2477"
                 transform="matrix(1,0,0,-1,-66.963823,764.8773)">
                <path
                   d="m 860.055,-497.848 c 6.257,-2.425 13.035,-5.117 17.847,-9.992"
                   style="fill:none;stroke:#000000;stroke-width:2.61674;stroke-linecap:round;stroke-linejoin:round;stroke-miterlimit:10;stroke-dasharray:none;stroke-opacity:1"
                   id="path2479" />
              </g>
              <g
                 id="g2481"
                 transform="matrix(1,0,0,-1,-66.963823,764.8773)">
                <path
                   d="m 877.902,-507.84 c 1.723,-16.621 5.297,-37.316 5.192,-54.094 2.468,-18.711 3.863,-37.511 5.418,-56.277 l -0.692,0.734"
                   style="fill:none;stroke:#000000;stroke-width:2.61674;stroke-linecap:round;stroke-linejoin:round;stroke-miterlimit:10;stroke-dasharray:none;stroke-opacity:1"
                   id="path2483" />
              </g>
              <g
                 id="g2485"
                 transform="matrix(1,0,0,-1,-66.963823,764.8773)">
                <path
                   d="m 860.055,-497.848 c 3.554,-17.179 3.175,-37.343 5.879,-54.613 0.589,-17.047 3.632,-35.394 5.964,-52.016"
                   style="fill:none;stroke:#000000;stroke-width:2.61674;stroke-linecap:round;stroke-linejoin:round;stroke-miterlimit:10;stroke-dasharray:none;stroke-opacity:1"
                   id="path2487" />
              </g>
              <g
                 id="g2489"
                 transform="matrix(1,0,0,-1,-66.963823,764.8773)">
                <path
                   d="m 871.898,-604.477 c 5.723,-4.367 10.672,-11.367 17.207,-13.539"
                   style="fill:none;stroke:#000000;stroke-width:2.61674;stroke-linecap:round;stroke-linejoin:round;stroke-miterlimit:10;stroke-dasharray:none;stroke-opacity:1"
                   id="path2491" />
              </g>
              <g
                 id="g2493"
                 transform="matrix(1,0,0,-1,-66.963823,764.8773)">
                <path
                   d="m 860.055,-497.848 c 37.988,7.961 75.746,14.078 111.453,22.414"
                   style="fill:none;stroke:#000000;stroke-width:2.61674;stroke-linecap:round;stroke-linejoin:round;stroke-miterlimit:10;stroke-dasharray:none;stroke-opacity:1"
                   id="path2495" />
              </g>
              <g
                 id="g2497"
                 transform="matrix(1,0,0,-1,-66.963823,764.8773)">
                <path
                   d="m 971.508,-475.434 c 7.793,0.153 16.699,-3.488 20.758,-9.418"
                   style="fill:none;stroke:#000000;stroke-width:2.61674;stroke-linecap:round;stroke-linejoin:round;stroke-miterlimit:10;stroke-dasharray:none;stroke-opacity:1"
                   id="path2499" />
              </g>
              <g
                 id="g2501"
                 transform="matrix(1,0,0,-1,-66.963823,764.8773)">
                <path
                   d="m 877.902,-507.84 114.364,22.988"
                   style="fill:none;stroke:#000000;stroke-width:2.61674;stroke-linecap:round;stroke-linejoin:round;stroke-miterlimit:10;stroke-dasharray:none;stroke-opacity:1"
                   id="path2503" />
              </g>
              <g
                 id="g2505"
                 transform="matrix(1,0,0,-1,-66.963823,764.8773)">
                <path
                   d="m 992.266,-484.852 c 2.402,-15.605 1.066,-35.089 1.871,-50.832 0.488,-14.054 -1.856,-29.433 -0.367,-42.726"
                   style="fill:none;stroke:#000000;stroke-width:2.61674;stroke-linecap:round;stroke-linejoin:round;stroke-miterlimit:10;stroke-dasharray:none;stroke-opacity:1"
                   id="path2507" />
              </g>
              <g
                 id="g2509"
                 transform="matrix(1,0,0,-1,-66.963823,764.8773)">
                <path
                   d="m 888.512,-618.211 c 2.035,-0.098 13.105,4.16 15.109,4.254"
                   style="fill:none;stroke:#000000;stroke-width:2.61674;stroke-linecap:round;stroke-linejoin:round;stroke-miterlimit:10;stroke-dasharray:none;stroke-opacity:1"
                   id="path2511" />
              </g>
              <g
                 id="g2513"
                 transform="matrix(1,0,0,-1,-66.963823,764.8773)">
                <path
                   d="m 958.988,-574.695 c 12.782,4.648 25.688,-3.258 38.36,-5.067 17.843,-5.929 35.976,-11.039 54,-16.109 1.894,-0.746 3.414,-5.707 0.812,-6.41"
                   style="fill:none;stroke:#000000;stroke-width:2.61674;stroke-linecap:round;stroke-linejoin:round;stroke-miterlimit:10;stroke-dasharray:none;stroke-opacity:1"
                   id="path2515" />
              </g>
              <g
                 id="g2517"
                 transform="matrix(1,0,0,-1,-66.963823,764.8773)">
                <path
                   d="m 958.988,-574.695 c -14.656,-6.407 -27.676,-19.793 -41.133,-28.543 -14.234,-10.719 -28.304,-23.633 -7.546,-28.567 2.289,0.367 5.023,-2.625 7.234,-1.465"
                   style="fill:none;stroke:#000000;stroke-width:2.61674;stroke-linecap:round;stroke-linejoin:round;stroke-miterlimit:10;stroke-dasharray:none;stroke-opacity:1"
                   id="path2519" />
              </g>
              <g
                 id="g2521"
                 transform="matrix(1,0,0,-1,-66.963823,764.8773)">
                <path
                   d="m 901.285,-626.195 c 5.129,-10.539 -5.336,-30.676 10.961,-32.864"
                   style="fill:none;stroke:#000000;stroke-width:2.61674;stroke-linecap:round;stroke-linejoin:round;stroke-miterlimit:10;stroke-dasharray:none;stroke-opacity:1"
                   id="path2523" />
              </g>
              <g
                 id="g2525"
                 transform="matrix(1,0,0,-1,-66.963823,764.8773)">
                <path
                   d="m 913.535,-634.391 c 0.465,-7.8 1.207,-16.312 0.77,-23.714"
                   style="fill:none;stroke:#000000;stroke-width:2.61674;stroke-linecap:round;stroke-linejoin:round;stroke-miterlimit:10;stroke-dasharray:none;stroke-opacity:1"
                   id="path2527" />
              </g>
              <g
                 id="g2529"
                 transform="matrix(1,0,0,-1,-66.963823,764.8773)">
                <path
                   d="m 912.715,-659.012 c 2.133,-0.375 7.574,0.914 9.883,1.813"
                   style="fill:none;stroke:#000000;stroke-width:2.61674;stroke-linecap:round;stroke-linejoin:round;stroke-miterlimit:10;stroke-dasharray:none;stroke-opacity:1"
                   id="path2531" />
              </g>
              <g
                 id="g2533"
                 transform="matrix(1,0,0,-1,-66.963823,764.8773)">
                <path
                   d="m 917.543,-633.27 c 15.883,-4.464 35.66,-9.57 50.434,-16.964 9.906,-3.782 24.671,-15.438 33.835,-8.543"
                   style="fill:none;stroke:#000000;stroke-width:2.61674;stroke-linecap:round;stroke-linejoin:round;stroke-miterlimit:10;stroke-dasharray:none;stroke-opacity:1"
                   id="path2535" />
              </g>
              <g
                 id="g2537"
                 transform="matrix(1,0,0,-1,-66.963823,764.8773)">
                <path
                   d="m 919.605,-654.711 c 10.598,-4.851 21.7,-8.207 33.024,-10.851"
                   style="fill:none;stroke:#000000;stroke-width:2.61674;stroke-linecap:round;stroke-linejoin:round;stroke-miterlimit:10;stroke-dasharray:none;stroke-opacity:1"
                   id="path2539" />
              </g>
              <g
                 id="g2541"
                 transform="matrix(1,0,0,-1,-66.963823,764.8773)">
                <path
                   d="m 955.508,-654.973 c -3.387,-1.636 -4.039,-18.367 -0.797,-15.218"
                   style="fill:none;stroke:#000000;stroke-width:2.61674;stroke-linecap:round;stroke-linejoin:round;stroke-miterlimit:10;stroke-dasharray:none;stroke-opacity:1"
                   id="path2543" />
              </g>
              <g
                 id="g2545"
                 transform="matrix(1,0,0,-1,-66.963823,764.8773)">
                <path
                   d="m 954.703,-657.668 c 1.141,-2.039 -1.961,-14.492 -0.387,-12.215"
                   style="fill:none;stroke:#000000;stroke-width:2.61674;stroke-linecap:round;stroke-linejoin:round;stroke-miterlimit:10;stroke-dasharray:none;stroke-opacity:1"
                   id="path2547" />
              </g>
              <g
                 id="g2549"
                 transform="matrix(1,0,0,-1,-66.963823,764.8773)">
                <path
                   d="m 956.418,-667.172 c 7.418,-2.34 15.027,-3.894 22.809,-4.414"
                   style="fill:none;stroke:#000000;stroke-width:2.61674;stroke-linecap:round;stroke-linejoin:round;stroke-miterlimit:10;stroke-dasharray:none;stroke-opacity:1"
                   id="path2551" />
              </g>
              <g
                 id="g2553"
                 transform="matrix(1,0,0,-1,-66.963823,764.8773)">
                <path
                   d="m 917.812,-639.75 c 8.825,-3.586 19.961,-7.473 27.711,-9.957"
                   style="fill:none;stroke:#000000;stroke-width:2.61674;stroke-linecap:round;stroke-linejoin:round;stroke-miterlimit:10;stroke-dasharray:none;stroke-opacity:1"
                   id="path2555" />
              </g>
              <g
                 id="g2557"
                 transform="matrix(1,0,0,-1,-66.963823,764.8773)">
                <path
                   d="m 916.977,-635.469 c 2.234,-6.347 0.656,-15.422 2.41,-20.601"
                   style="fill:none;stroke:#000000;stroke-width:2.61674;stroke-linecap:round;stroke-linejoin:round;stroke-miterlimit:10;stroke-dasharray:none;stroke-opacity:1"
                   id="path2559" />
              </g>
              <g
                 id="g2561"
                 transform="matrix(1,0,0,-1,-66.963823,764.8773)">
                <path
                   d="m 913.242,-635.926 c 0.887,-5.289 0.473,-13.031 1.57,-16.851"
                   style="fill:none;stroke:#000000;stroke-width:2.61674;stroke-linecap:round;stroke-linejoin:round;stroke-miterlimit:10;stroke-dasharray:none;stroke-opacity:1"
                   id="path2563" />
              </g>
              <g
                 id="g2565"
                 transform="matrix(1,0,0,-1,-66.963823,764.8773)">
                <path
                   d="m 988.523,-663.574 c -1.5,-14.305 7.606,-23.477 -9.929,-10.637"
                   style="fill:none;stroke:#000000;stroke-width:2.61674;stroke-linecap:round;stroke-linejoin:round;stroke-miterlimit:10;stroke-dasharray:none;stroke-opacity:1"
                   id="path2567" />
              </g>
              <g
                 id="g2569"
                 transform="matrix(1,0,0,-1,-66.963823,764.8773)">
                <path
                   d="m 978.594,-674.211 c -10.653,-10.941 12.965,-20.047 20.898,-16.449"
                   style="fill:none;stroke:#000000;stroke-width:2.61674;stroke-linecap:round;stroke-linejoin:round;stroke-miterlimit:10;stroke-dasharray:none;stroke-opacity:1"
                   id="path2571" />
              </g>
              <g
                 id="g2573"
                 transform="matrix(1,0,0,-1,-66.963823,764.8773)">
                <path
                   d="m 999.492,-690.66 c 10.301,9.398 17.899,21.902 26.59,32.504"
                   style="fill:none;stroke:#000000;stroke-width:2.61674;stroke-linecap:round;stroke-linejoin:round;stroke-miterlimit:10;stroke-dasharray:none;stroke-opacity:1"
                   id="path2575" />
              </g>
              <g
                 id="g2577"
                 transform="matrix(1,0,0,-1,-66.963823,764.8773)">
                <path
                   d="m 1026.133,-657 c -6.602,15.703 9.172,23.762 16.316,35.453 l 0.457,-0.062"
                   style="fill:none;stroke:#000000;stroke-width:2.61674;stroke-linecap:round;stroke-linejoin:round;stroke-miterlimit:10;stroke-dasharray:none;stroke-opacity:1"
                   id="path2579" />
              </g>
              <g
                 id="g2581"
                 transform="matrix(1,0,0,-1,-66.963823,764.8773)">
                <path
                   d="m 1043.652,-621.957 c -0.875,-4.109 0.157,-8.395 -1.129,-12.449"
                   style="fill:none;stroke:#000000;stroke-width:2.61674;stroke-linecap:round;stroke-linejoin:round;stroke-miterlimit:10;stroke-dasharray:none;stroke-opacity:1"
                   id="path2583" />
              </g>
              <g
                 id="g2585"
                 transform="matrix(1,0,0,-1,-66.963823,764.8773)">
                <path
                   d="m 1026.082,-658.156 c 5.383,5.953 12.371,15.226 16.227,21.781"
                   style="fill:none;stroke:#000000;stroke-width:2.61674;stroke-linecap:round;stroke-linejoin:round;stroke-miterlimit:10;stroke-dasharray:none;stroke-opacity:1"
                   id="path2587" />
              </g>
              <g
                 id="g2589"
                 transform="matrix(1,0,0,-1,-66.963823,764.8773)">
                <path
                   d="m 1042.309,-636.375 c 1.855,2.426 5.308,6.34 7.89,8.004"
                   style="fill:none;stroke:#000000;stroke-width:2.61674;stroke-linecap:round;stroke-linejoin:round;stroke-miterlimit:10;stroke-dasharray:none;stroke-opacity:1"
                   id="path2591" />
              </g>
              <g
                 id="g2593"
                 transform="matrix(1,0,0,-1,-66.963823,764.8773)">
                <path
                   d="m 1050.34,-628.223 c 0.859,8.93 2.836,17.868 2.582,26.844"
                   style="fill:none;stroke:#000000;stroke-width:2.61674;stroke-linecap:round;stroke-linejoin:round;stroke-miterlimit:10;stroke-dasharray:none;stroke-opacity:1"
                   id="path2595" />
              </g>
              <g
                 id="g2597"
                 transform="matrix(1,0,0,-1,-66.963823,764.8773)">
                <path
                   d="m 1049.543,-603.074 c 0.578,-1.942 -1.688,-5.946 1.914,-4.16"
                   style="fill:none;stroke:#000000;stroke-width:2.61674;stroke-linecap:round;stroke-linejoin:round;stroke-miterlimit:10;stroke-dasharray:none;stroke-opacity:1"
                   id="path2599" />
              </g>
              <g
                 id="g2601"
                 transform="matrix(1,0,0,-1,-66.963823,764.8773)">
                <path
                   d="m 1036.559,-617.48 c -0.278,-1.602 -2.254,-12.379 -2.891,-6.301"
                   style="fill:none;stroke:#000000;stroke-width:2.61674;stroke-linecap:round;stroke-linejoin:round;stroke-miterlimit:10;stroke-dasharray:none;stroke-opacity:1"
                   id="path2603" />
              </g>
              <g
                 id="g2605"
                 transform="matrix(1,0,0,-1,-66.963823,764.8773)">
                <path
                   d="m 1025.844,-628.832 c 0.613,-1.297 -0.66,-2.922 -2.055,-2.719"
                   style="fill:none;stroke:#000000;stroke-width:2.61674;stroke-linecap:round;stroke-linejoin:round;stroke-miterlimit:10;stroke-dasharray:none;stroke-opacity:1"
                   id="path2607" />
              </g>
              <g
                 id="g2609"
                 transform="matrix(1,0,0,-1,-66.963823,764.8773)">
                <path
                   d="m 1020.156,-636.469 c -0.523,-1.699 0.504,-6.082 -2.23,-6.543"
                   style="fill:none;stroke:#000000;stroke-width:2.61674;stroke-linecap:round;stroke-linejoin:round;stroke-miterlimit:10;stroke-dasharray:none;stroke-opacity:1"
                   id="path2611" />
              </g>
              <g
                 id="g2613"
                 transform="matrix(1,0,0,-1,-66.963823,764.8773)">
                <path
                   d="m 1002.871,-657.461 c 15.988,20.27 32.211,40.871 49.82,59.52"
                   style="fill:none;stroke:#000000;stroke-width:2.61674;stroke-linecap:round;stroke-linejoin:round;stroke-miterlimit:10;stroke-dasharray:none;stroke-opacity:1"
                   id="path2615" />
              </g>
              <g
                 id="g2617"
                 transform="matrix(1,0,0,-1,-66.963823,764.8773)">
                <path
                   d="m 1031.398,-618.371 c -12.988,-10.953 -27.32,-20.258 -41.929,-28.875 l 0.578,0.078"
                   style="fill:none;stroke:#000000;stroke-width:2.61674;stroke-linecap:round;stroke-linejoin:round;stroke-miterlimit:10;stroke-dasharray:none;stroke-opacity:1"
                   id="path2619" />
              </g>
              <g
                 id="g2621"
                 transform="matrix(1,0,0,-1,-66.963823,764.8773)">
                <path
                   d="m 1027.137,-626.734 c -9.758,-8.817 -20.676,-18.223 -31.235,-24.965"
                   style="fill:none;stroke:#000000;stroke-width:2.61674;stroke-linecap:round;stroke-linejoin:round;stroke-miterlimit:10;stroke-dasharray:none;stroke-opacity:1"
                   id="path2623" />
              </g>
              <g
                 id="g2625"
                 transform="matrix(1,0,0,-1,-66.963823,764.8773)">
                <path
                   d="m 1015.242,-630.609 c -1.699,-2.481 -4.293,-4.051 -6.195,-6.336"
                   style="fill:none;stroke:#000000;stroke-width:2.61674;stroke-linecap:round;stroke-linejoin:round;stroke-miterlimit:10;stroke-dasharray:none;stroke-opacity:1"
                   id="path2627" />
              </g>
              <g
                 id="g2629"
                 transform="matrix(1,0,0,-1,-66.963823,764.8773)">
                <path
                   d="m 885.398,-539.535 c 22.172,4.922 44.512,9.566 66.489,15.738 12.386,2.82 24.914,5.77 37.258,8.262"
                   style="fill:none;stroke:#000000;stroke-width:1.26872;stroke-linecap:round;stroke-linejoin:round;stroke-miterlimit:10;stroke-dasharray:none;stroke-opacity:1"
                   id="path2631" />
              </g>
              <g
                 id="g2633"
                 transform="matrix(1,0,0,-1,-66.963823,764.8773)">
                <path
                   d="m 885.867,-563.301 c 21.504,3.406 42.293,10.832 63.766,14.922 13.933,3.121 26.769,10.18 40.926,12.234"
                   style="fill:none;stroke:#000000;stroke-width:1.26872;stroke-linecap:round;stroke-linejoin:round;stroke-miterlimit:10;stroke-dasharray:none;stroke-opacity:1"
                   id="path2635" />
              </g>
              <g
                 id="g2637"
                 transform="matrix(1,0,0,-1,-66.963823,764.8773)">
                <path
                   d="m 867.324,-543.797 c 3.406,-1.254 6.016,-3.84 9.457,-4.965"
                   style="fill:none;stroke:#000000;stroke-width:1.26872;stroke-linecap:round;stroke-linejoin:round;stroke-miterlimit:10;stroke-dasharray:none;stroke-opacity:1"
                   id="path2639" />
              </g>
              <g
                 id="g2641"
                 transform="matrix(1,0,0,-1,-66.963823,764.8773)">
                <path
                   d="m 877.52,-551.324 c 1.347,-6.867 1.476,-14.504 0.847,-21.172"
                   style="fill:none;stroke:#000000;stroke-width:1.26872;stroke-linecap:round;stroke-linejoin:round;stroke-miterlimit:10;stroke-dasharray:none;stroke-opacity:1"
                   id="path2643" />
              </g>
              <g
                 id="g2645"
                 transform="matrix(1,0,0,-1,-66.963823,764.8773)">
                <path
                   d="m 868.688,-566.32 c 1.902,-0.989 9.972,-7.157 8.937,-6.242"
                   style="fill:none;stroke:#000000;stroke-width:1.26872;stroke-linecap:round;stroke-linejoin:round;stroke-miterlimit:10;stroke-dasharray:none;stroke-opacity:1"
                   id="path2647" />
              </g>
              <g
                 id="g2649"
                 transform="matrix(1,0,0,-1,-66.963823,764.8773)">
                <path
                   d="m 866.68,-545.684 c 2.265,-6.433 0.226,-14.64 1.293,-20.867"
                   style="fill:none;stroke:#000000;stroke-width:1.26872;stroke-linecap:round;stroke-linejoin:round;stroke-miterlimit:10;stroke-dasharray:none;stroke-opacity:1"
                   id="path2651" />
              </g>
              <g
                 id="g2653"
                 transform="matrix(1,0,0,-1,-66.963823,764.8773)">
                <path
                   d="m 867.934,-499.742 c 15.382,1.453 30.343,5.855 45.472,9.172 22.028,3.832 44.188,7.093 65.938,12.281"
                   style="fill:none;stroke:#000000;stroke-width:1.26872;stroke-linecap:round;stroke-linejoin:round;stroke-miterlimit:10;stroke-dasharray:none;stroke-opacity:1"
                   id="path2655" />
              </g>
              <g
                 id="g2657"
                 transform="matrix(1,0,0,-1,-66.963823,764.8773)">
                <path
                   d="m 875.777,-503.332 c 35.059,10.289 71.067,16.758 106.942,23.43"
                   style="fill:none;stroke:#000000;stroke-width:1.26872;stroke-linecap:round;stroke-linejoin:round;stroke-miterlimit:10;stroke-dasharray:none;stroke-opacity:1"
                   id="path2659" />
              </g>
              <g
                 id="g2661"
                 transform="matrix(1,0,0,-1,-66.963823,764.8773)">
                <path
                   d="m 955.066,-581.695 c 23.125,-5.2 44.743,-15.559 68.223,-19.422 l 1.856,-0.528 -0.418,-0.078"
                   style="fill:none;stroke:#000000;stroke-width:1.26872;stroke-linecap:round;stroke-linejoin:round;stroke-miterlimit:10;stroke-dasharray:none;stroke-opacity:1"
                   id="path2663" />
              </g>
              <g
                 id="g2665"
                 transform="matrix(1,0,0,-1,-66.963823,764.8773)">
                <path
                   d="m 929.582,-600.746 c 26.027,-8.731 51.742,-18.586 78.668,-24.406 l -0.281,0.007 -0.836,0.465"
                   style="fill:none;stroke:#000000;stroke-width:1.26872;stroke-linecap:round;stroke-linejoin:round;stroke-miterlimit:10;stroke-dasharray:none;stroke-opacity:1"
                   id="path2667" />
              </g>
              <g
                 id="g2669"
                 transform="matrix(1,0,0,-1,-66.963823,764.8773)">
                <path
                   d="m 1027.562,-603.512 c -6.167,-6.57 -12.261,-14.797 -18.074,-20.894"
                   style="fill:none;stroke:#000000;stroke-width:1.26872;stroke-linecap:round;stroke-linejoin:round;stroke-miterlimit:10;stroke-dasharray:none;stroke-opacity:1"
                   id="path2671" />
              </g>
              <g
                 id="g2673"
                 transform="matrix(1,0,0,-1,-66.963823,764.8773)">
                <path
                   d="m 921.625,-642.855 c 7.063,-2.813 17.422,-6.008 22.766,-7.575"
                   style="fill:none;stroke:#000000;stroke-width:1.26872;stroke-linecap:round;stroke-linejoin:round;stroke-miterlimit:10;stroke-dasharray:none;stroke-opacity:1"
                   id="path2675" />
              </g>
              <g
                 id="g2677"
                 transform="matrix(1,0,0,-1,-66.963823,764.8773)">
                <path
                   d="m 921.961,-644.348 c -0.934,-1.168 0.832,-2.738 1.715,-1.164"
                   style="fill:none;stroke:#000000;stroke-width:1.26872;stroke-linecap:round;stroke-linejoin:round;stroke-miterlimit:10;stroke-dasharray:none;stroke-opacity:1"
                   id="path2679" />
              </g>
              <g
                 id="g2681"
                 transform="matrix(1,0,0,-1,-66.963823,764.8773)">
                <path
                   d="m 926.688,-647.25 c 0.777,-0.34 1.726,-1.277 2.957,-0.582"
                   style="fill:none;stroke:#000000;stroke-width:1.26872;stroke-linecap:round;stroke-linejoin:round;stroke-miterlimit:10;stroke-dasharray:none;stroke-opacity:1"
                   id="path2683" />
              </g>
              <g
                 id="g2685"
                 transform="matrix(1,0,0,-1,-66.963823,764.8773)">
                <path
                   d="m 933.73,-649.012 c 0.336,-0.758 1.301,-1.117 2.071,-0.836"
                   style="fill:none;stroke:#000000;stroke-width:1.26872;stroke-linecap:round;stroke-linejoin:round;stroke-miterlimit:10;stroke-dasharray:none;stroke-opacity:1"
                   id="path2687" />
              </g>
              <g
                 id="g2689"
                 transform="matrix(1,0,0,-1,-66.963823,764.8773)">
                <path
                   d="m 939.145,-650.344 c -0.676,-0.547 2.109,-1.933 1.453,-0.394"
                   style="fill:none;stroke:#000000;stroke-width:1.26872;stroke-linecap:round;stroke-linejoin:round;stroke-miterlimit:10;stroke-dasharray:none;stroke-opacity:1"
                   id="path2691" />
              </g>
              <g
                 id="g2693"
                 transform="matrix(1,0,0,-1,-66.963823,764.8773)">
                <path
                   d="m 913.746,-635.469 c -0.348,-2.715 -1.305,-7.469 2.977,-7.351"
                   style="fill:none;stroke:#000000;stroke-width:1.26872;stroke-linecap:round;stroke-linejoin:round;stroke-miterlimit:10;stroke-dasharray:none;stroke-opacity:1"
                   id="path2695" />
              </g>
              <g
                 id="g2697"
                 transform="matrix(1,0,0,-1,-66.963823,764.8773)">
                <path
                   d="m 915.18,-648.367 c -3.961,2.566 -1.977,-9.098 0.984,-7.684"
                   style="fill:none;stroke:#000000;stroke-width:1.26872;stroke-linecap:round;stroke-linejoin:round;stroke-miterlimit:10;stroke-dasharray:none;stroke-opacity:1"
                   id="path2699" />
              </g>
              <g
                 id="g2701"
                 transform="matrix(1,0,0,-1,-66.963823,764.8773)">
                <path
                   d="m 922.703,-644.426 c 0.391,6.742 3.473,4.879 3.192,-0.472"
                   style="fill:none;stroke:#000000;stroke-width:1.26872;stroke-linecap:round;stroke-linejoin:round;stroke-miterlimit:10;stroke-dasharray:none;stroke-opacity:1"
                   id="path2703" />
              </g>
              <g
                 id="g2705"
                 transform="matrix(1,0,0,-1,-66.963823,764.8773)">
                <path
                   d="m 929.371,-645.648 c 2.406,7.035 3.102,2.144 3.75,-1.227"
                   style="fill:none;stroke:#000000;stroke-width:1.26872;stroke-linecap:round;stroke-linejoin:round;stroke-miterlimit:10;stroke-dasharray:none;stroke-opacity:1"
                   id="path2707" />
              </g>
              <g
                 id="g2709"
                 transform="matrix(1,0,0,-1,-66.963823,764.8773)">
                <path
                   d="m 936.641,-647.645 c 2.429,5.54 4.3,3.786 4.773,-1"
                   style="fill:none;stroke:#000000;stroke-width:1.26872;stroke-linecap:round;stroke-linejoin:round;stroke-miterlimit:10;stroke-dasharray:none;stroke-opacity:1"
                   id="path2711" />
              </g>
              <g
                 id="g2713"
                 transform="matrix(1,0,0,-1,-66.963823,764.8773)">
                <path
                   d="m 946.293,-646.895 c -0.82,-0.582 0.559,-2.335 -0.57,-2.652"
                   style="fill:none;stroke:#000000;stroke-width:1.26872;stroke-linecap:round;stroke-linejoin:round;stroke-miterlimit:10;stroke-dasharray:none;stroke-opacity:1"
                   id="path2715" />
              </g>
              <g
                 id="g2717"
                 transform="matrix(1,0,0,-1,-66.963823,764.8773)">
                <path
                   d="m 964.527,-661.902 c 2.035,7.468 4.774,6.89 4.012,-0.758"
                   style="fill:none;stroke:#000000;stroke-width:1.26872;stroke-linecap:round;stroke-linejoin:round;stroke-miterlimit:10;stroke-dasharray:none;stroke-opacity:1"
                   id="path2719" />
              </g>
              <g
                 id="g2721"
                 transform="matrix(1,0,0,-1,-66.963823,764.8773)">
                <path
                   d="m 976.566,-666.848 c 0.446,5.043 4.805,7.707 3.614,0.547"
                   style="fill:none;stroke:#000000;stroke-width:1.26872;stroke-linecap:round;stroke-linejoin:round;stroke-miterlimit:10;stroke-dasharray:none;stroke-opacity:1"
                   id="path2723" />
              </g>
              <g
                 id="g2725"
                 transform="matrix(1,0,0,-1,-66.963823,764.8773)">
                <path
                   d="m 1017.215,-646.297 c 0.433,-7.203 -0.594,-14.609 -1.473,-21.816"
                   style="fill:none;stroke:#000000;stroke-width:1.26872;stroke-linecap:round;stroke-linejoin:round;stroke-miterlimit:10;stroke-dasharray:none;stroke-opacity:1"
                   id="path2727" />
              </g>
              <g
                 id="g2729"
                 transform="matrix(1,0,0,-1,-66.963823,764.8773)">
                <path
                   d="m 1001.812,-658.777 c -0.652,-9.153 0.02,-21.914 -1.664,-30.965"
                   style="fill:none;stroke:#000000;stroke-width:1.26872;stroke-linecap:round;stroke-linejoin:round;stroke-miterlimit:10;stroke-dasharray:none;stroke-opacity:1"
                   id="path2731" />
              </g>
              <g
                 id="g2733"
                 transform="matrix(1,0,0,-1,-66.963823,764.8773)">
                <path
                   d="m 1030.75,-618.02 c -2.148,-4.792 7.156,-0.039 0.602,-0.097"
                   style="fill:none;stroke:#000000;stroke-width:1.26872;stroke-linecap:round;stroke-linejoin:round;stroke-miterlimit:10;stroke-dasharray:none;stroke-opacity:1"
                   id="path2735" />
              </g>
              <g
                 id="g2737"
                 transform="matrix(1,0,0,-1,-66.963823,764.8773)">
                <path
                   d="m 1032.867,-613.742 c 1.711,4.137 1.836,9.144 4.215,12.922"
                   style="fill:none;stroke:#000000;stroke-width:1.26872;stroke-linecap:round;stroke-linejoin:round;stroke-miterlimit:10;stroke-dasharray:none;stroke-opacity:1"
                   id="path2739" />
              </g>
              <g
                 id="g2741"
                 transform="matrix(1,0,0,-1,-66.963823,764.8773)">
                <path
                   d="m 1049.082,-611.754 c -0.094,0.875 -1.312,-2.961 -0.535,-2.215"
                   style="fill:none;stroke:#000000;stroke-width:1.26872;stroke-linecap:round;stroke-linejoin:round;stroke-miterlimit:10;stroke-dasharray:none;stroke-opacity:1"
                   id="path2743" />
              </g>
              <g
                 id="g2745"
                 transform="matrix(1,0,0,-1,-66.963823,764.8773)">
                <path
                   d="m 1013.676,-654.438 c -0.957,-0.41 0.035,-1.874 -0.531,-2.464"
                   style="fill:none;stroke:#000000;stroke-width:1.26872;stroke-linecap:round;stroke-linejoin:round;stroke-miterlimit:10;stroke-dasharray:none;stroke-opacity:1"
                   id="path2747" />
              </g>
            </g>
          </g>
        </g>
      </g>
    </g>
  </g>
</svg>
