<?xml version="1.0" encoding="UTF-8" standalone="no"?>
<!-- Created by Ashley Blewer - This work is licensed under a Creative Commons Attribution 4.0 International License -->

<svg
   width="544"
   height="480"
   viewBox="0 0 143.93334 127"
   version="1.1"
   id="svg2490"
   inkscape:version="1.2.2 (1:1.2.2+202212051552+b0a8486541)"
   sodipodi:docname="1965-single-8-1.svg"
   xmlns:inkscape="http://www.inkscape.org/namespaces/inkscape"
   xmlns:sodipodi="http://sodipodi.sourceforge.net/DTD/sodipodi-0.dtd"
   xmlns="http://www.w3.org/2000/svg"
   xmlns:svg="http://www.w3.org/2000/svg">
  <sodipodi:namedview
     id="namedview2492"
     pagecolor="#ffffff"
     bordercolor="#666666"
     borderopacity="1.0"
     inkscape:pageshadow="2"
     inkscape:pageopacity="0.0"
     inkscape:pagecheckerboard="0"
     inkscape:document-units="mm"
     showgrid="false"
     units="px"
     inkscape:zoom="0.90583674"
     inkscape:cx="337.25724"
     inkscape:cy="255.56482"
     inkscape:window-width="1846"
     inkscape:window-height="1136"
     inkscape:window-x="0"
     inkscape:window-y="0"
     inkscape:window-maximized="1"
     inkscape:current-layer="g6395"
     inkscape:showpageshadow="2"
     inkscape:deskcolor="#d1d1d1" />
  <defs
     id="defs2487" />
  <g
     inkscape:label="Layer 1"
     inkscape:groupmode="layer"
     id="layer1">
    <g
       id="g4731"
       transform="matrix(0.32961229,0,0,0.32903008,-241.78905,1.73126)"
       style="stroke-width:2.68698">
      <g
         id="g104528"
         transform="matrix(1,0,0,-1,0,792)"
         style="stroke-width:2.68698">
        <g
           id="g104530"
           style="stroke-width:2.68698" />
      </g>
      <g
         id="g104996"
         transform="matrix(1,0,0,-1,0,792)"
         style="stroke-width:2.68698">
        <g
           id="g104998"
           style="stroke-width:2.68698" />
      </g>
      <g
         id="g28852"
         transform="matrix(1.070281,0,0,1.0721748,779.91249,-443.13657)">
        <g
           id="g6718"
           transform="matrix(1.117886,0,0,1.117886,-549.13111,-491.62865)">
          <g
             id="g6395"
             transform="matrix(0.53415107,0,0,0.53415109,441.93669,415.26868)">
            <g
               id="g5056"
               transform="matrix(1.6747052,0,0,1.6747052,-289.48395,-1073.0466)">
              <g
                 id="g1222"
                 transform="matrix(1,0,0,-1,-104.71842,715.69467)">
                <path
                   d="m 391.727,-470.844 c -2.129,3.059 0.359,7.25 3.996,6.672"
                   style="fill:none;stroke:#000000;stroke-width:2.61674;stroke-linecap:round;stroke-linejoin:round;stroke-miterlimit:10;stroke-dasharray:none;stroke-opacity:1"
                   id="path1224" />
              </g>
              <g
                 id="g1226"
                 transform="matrix(1,0,0,-1,-104.71842,715.69467)">
                <path
                   d="m 395.723,-464.172 c 30.785,0.043 64.422,5.106 93.683,14.793 35.645,8.563 68.348,25.133 102.766,37.199 28.183,8.969 63.058,16.7 88.074,-4.023 2.078,-7.426 1.02,-16.57 0.082,-23.387"
                   style="fill:none;stroke:#000000;stroke-width:2.61674;stroke-linecap:round;stroke-linejoin:round;stroke-miterlimit:10;stroke-dasharray:none;stroke-opacity:1"
                   id="path1228" />
              </g>
              <g
                 id="g1230"
                 transform="matrix(1,0,0,-1,-104.71842,715.69467)">
                <path
                   d="m 588.215,-428.957 c 27.344,-2.973 56.328,-11.266 83.101,-2.008 l 3.098,1.828"
                   style="fill:none;stroke:#000000;stroke-width:2.61674;stroke-linecap:round;stroke-linejoin:round;stroke-miterlimit:10;stroke-dasharray:none;stroke-opacity:1"
                   id="path1232" />
              </g>
              <g
                 id="g1234"
                 transform="matrix(1,0,0,-1,-104.71842,715.69467)">
                <path
                   d="m 590.785,-428.617 c 25.004,12.215 54.695,13.746 80.391,2.726 4.515,0.313 4.531,-3.261 3.238,-3.246"
                   style="fill:none;stroke:#000000;stroke-width:2.61674;stroke-linecap:round;stroke-linejoin:round;stroke-miterlimit:10;stroke-dasharray:none;stroke-opacity:1"
                   id="path1236" />
              </g>
              <g
                 id="g1238"
                 transform="matrix(1,0,0,-1,-104.71842,715.69467)">
                <path
                   d="m 431.309,-481.008 c 37.293,5.367 75.75,10.25 109.109,29.149 34.144,19.171 73.613,5.652 109.656,1.703 9.551,-1.27 26.403,3.898 30.254,10.566"
                   style="fill:none;stroke:#000000;stroke-width:2.61674;stroke-linecap:round;stroke-linejoin:round;stroke-miterlimit:10;stroke-dasharray:none;stroke-opacity:1"
                   id="path1240" />
              </g>
              <g
                 id="g1242"
                 transform="matrix(1,0,0,-1,-104.71842,715.69467)">
                <path
                   d="m 400.234,-469.379 c 43.633,2.645 94.907,7.172 134.637,26.731 17.164,8.519 37.996,17.058 56.848,13.222"
                   style="fill:none;stroke:#000000;stroke-width:2.61674;stroke-linecap:round;stroke-linejoin:round;stroke-miterlimit:10;stroke-dasharray:none;stroke-opacity:1"
                   id="path1244" />
              </g>
              <g
                 id="g1246"
                 transform="matrix(1,0,0,-1,-104.71842,715.69467)">
                <path
                   d="m 414.75,-473.129 c 6.043,7.34 22.91,3.109 16.301,-7.625"
                   style="fill:none;stroke:#000000;stroke-width:2.61674;stroke-linecap:round;stroke-linejoin:round;stroke-miterlimit:10;stroke-dasharray:none;stroke-opacity:1"
                   id="path1248" />
              </g>
              <g
                 id="g1250"
                 transform="matrix(1,0,0,-1,-104.71842,715.69467)">
                <path
                   d="m 391.887,-472.078 c 2.183,1.105 4.195,3.57 6.898,3.394"
                   style="fill:none;stroke:#000000;stroke-width:2.61674;stroke-linecap:round;stroke-linejoin:round;stroke-miterlimit:10;stroke-dasharray:none;stroke-opacity:1"
                   id="path1252" />
              </g>
              <g
                 id="g1254"
                 transform="matrix(1,0,0,-1,-104.71842,715.69467)">
                <path
                   d="m 400.234,-469.379 c 24.055,-9.398 47.055,-22.074 71.207,-31.582"
                   style="fill:none;stroke:#000000;stroke-width:2.61674;stroke-linecap:round;stroke-linejoin:round;stroke-miterlimit:10;stroke-dasharray:none;stroke-opacity:1"
                   id="path1256" />
              </g>
              <g
                 id="g1258"
                 transform="matrix(1,0,0,-1,-104.71842,715.69467)">
                <path
                   d="m 471.441,-500.961 c 19.25,18.832 55.297,8.625 67.379,-13.668 2.981,-3.426 4.313,-12.426 3.555,-15.371"
                   style="fill:none;stroke:#000000;stroke-width:2.61674;stroke-linecap:round;stroke-linejoin:round;stroke-miterlimit:10;stroke-dasharray:none;stroke-opacity:1"
                   id="path1260" />
              </g>
              <g
                 id="g1262"
                 transform="matrix(1,0,0,-1,-104.71842,715.69467)">
                <path
                   d="m 542.375,-530 c 26.195,-13.602 57.727,-29.203 84.172,-40.805"
                   style="fill:none;stroke:#000000;stroke-width:2.61674;stroke-linecap:round;stroke-linejoin:round;stroke-miterlimit:10;stroke-dasharray:none;stroke-opacity:1"
                   id="path1264" />
              </g>
              <g
                 id="g1266"
                 transform="matrix(1,0,0,-1,-104.71842,715.69467)">
                <path
                   d="m 626.547,-570.805 c 2.515,-11.703 -0.945,-34.433 -4.098,-41.609"
                   style="fill:none;stroke:#000000;stroke-width:2.61674;stroke-linecap:round;stroke-linejoin:round;stroke-miterlimit:10;stroke-dasharray:none;stroke-opacity:1"
                   id="path1268" />
              </g>
              <g
                 id="g1270"
                 transform="matrix(1,0,0,-1,-104.71842,715.69467)">
                <path
                   d="m 309.691,-519.301 c 26.149,22.481 57.016,28.985 82.196,47.223"
                   style="fill:none;stroke:#000000;stroke-width:2.61674;stroke-linecap:round;stroke-linejoin:round;stroke-miterlimit:10;stroke-dasharray:none;stroke-opacity:1"
                   id="path1272" />
              </g>
              <g
                 id="g1274"
                 transform="matrix(1,0,0,-1,-104.71842,715.69467)">
                <path
                   d="m 309.691,-519.301 c -5.304,-10.25 -7.023,-37.902 1.536,-44.734"
                   style="fill:none;stroke:#000000;stroke-width:2.61674;stroke-linecap:round;stroke-linejoin:round;stroke-miterlimit:10;stroke-dasharray:none;stroke-opacity:1"
                   id="path1276" />
              </g>
              <g
                 id="g1278"
                 transform="matrix(1,0,0,-1,-104.71842,715.69467)">
                <path
                   d="m 311.227,-564.035 c 5.378,-7.899 20.695,-8.586 25.347,-14.211"
                   style="fill:none;stroke:#000000;stroke-width:2.61674;stroke-linecap:round;stroke-linejoin:round;stroke-miterlimit:10;stroke-dasharray:none;stroke-opacity:1"
                   id="path1280" />
              </g>
              <g
                 id="g1282"
                 transform="matrix(1,0,0,-1,-104.71842,715.69467)">
                <path
                   d="m 336.574,-578.246 c 5.219,-4.774 17.188,-9.18 22.254,-11.977"
                   style="fill:none;stroke:#000000;stroke-width:2.61674;stroke-linecap:round;stroke-linejoin:round;stroke-miterlimit:10;stroke-dasharray:none;stroke-opacity:1"
                   id="path1284" />
              </g>
              <g
                 id="g1286"
                 transform="matrix(1,0,0,-1,-104.71842,715.69467)">
                <path
                   d="m 337.035,-577.91 c -1.23,11.019 0.02,23.363 11.731,21.672 l -2.196,2.496"
                   style="fill:none;stroke:#000000;stroke-width:2.61674;stroke-linecap:round;stroke-linejoin:round;stroke-miterlimit:10;stroke-dasharray:none;stroke-opacity:1"
                   id="path1288" />
              </g>
              <g
                 id="g1290"
                 transform="matrix(1,0,0,-1,-104.71842,715.69467)">
                <path
                   d="m 348.57,-553.219 c 7.618,-0.699 23.922,-10.117 27.821,-11.945"
                   style="fill:none;stroke:#000000;stroke-width:2.61674;stroke-linecap:round;stroke-linejoin:round;stroke-miterlimit:10;stroke-dasharray:none;stroke-opacity:1"
                   id="path1292" />
              </g>
              <g
                 id="g1294"
                 transform="matrix(1,0,0,-1,-104.71842,715.69467)">
                <path
                   d="m 312.398,-519.746 c 19.149,-13.93 42.657,-21.121 63.528,-32.445 2.554,-1.422 7.762,-3.028 10.09,-4.832"
                   style="fill:none;stroke:#000000;stroke-width:2.61674;stroke-linecap:round;stroke-linejoin:round;stroke-miterlimit:10;stroke-dasharray:none;stroke-opacity:1"
                   id="path1296" />
              </g>
              <g
                 id="g1298"
                 transform="matrix(1,0,0,-1,-104.71842,715.69467)">
                <path
                   d="m 311.25,-527.062 c -3.219,-8.844 -1,-20.954 -1.305,-28.833"
                   style="fill:none;stroke:#000000;stroke-width:2.61674;stroke-linecap:round;stroke-linejoin:round;stroke-miterlimit:10;stroke-dasharray:none;stroke-opacity:1"
                   id="path1300" />
              </g>
              <g
                 id="g1302"
                 transform="matrix(1,0,0,-1,-104.71842,715.69467)">
                <path
                   d="m 471.441,-500.961 c 0,0 -102.062,-66.269 -101.695,-67.473"
                   style="fill:none;stroke:#000000;stroke-width:2.61674;stroke-linecap:round;stroke-linejoin:round;stroke-miterlimit:10;stroke-dasharray:none;stroke-opacity:1"
                   id="path1304" />
              </g>
              <g
                 id="g1306"
                 transform="matrix(1,0,0,-1,-104.71842,715.69467)">
                <path
                   d="m 369.746,-568.434 c -20.461,-19.007 -9.609,-52.308 10.703,-68.64 7.824,-7.606 20.336,-16.196 30.641,-11.285"
                   style="fill:none;stroke:#000000;stroke-width:2.61674;stroke-linecap:round;stroke-linejoin:round;stroke-miterlimit:10;stroke-dasharray:none;stroke-opacity:1"
                   id="path1308" />
              </g>
              <g
                 id="g1310"
                 transform="matrix(1,0,0,-1,-104.71842,715.69467)">
                <path
                   d="m 363.574,-578.246 c 17.055,16.004 39.328,-2.977 50.481,-17.094 11.488,-15.512 17.07,-43.457 -3.282,-54.676"
                   style="fill:none;stroke:#000000;stroke-width:2.61674;stroke-linecap:round;stroke-linejoin:round;stroke-miterlimit:10;stroke-dasharray:none;stroke-opacity:1"
                   id="path1312" />
              </g>
              <g
                 id="g1314"
                 transform="matrix(1,0,0,-1,-104.71842,715.69467)">
                <path
                   d="m 369.746,-568.434 c 26.473,18.204 53.109,-9.754 63.223,-32.937 6.574,-12.457 9.859,-35.492 -1.281,-43.137"
                   style="fill:none;stroke:#000000;stroke-width:2.61674;stroke-linecap:round;stroke-linejoin:round;stroke-miterlimit:10;stroke-dasharray:none;stroke-opacity:1"
                   id="path1316" />
              </g>
              <g
                 id="g1318"
                 transform="matrix(1,0,0,-1,-104.71842,715.69467)">
                <path
                   d="m 404.52,-649.805 c 12.539,-1.136 32.808,4.785 40.894,12.918"
                   style="fill:none;stroke:#000000;stroke-width:2.61674;stroke-linecap:round;stroke-linejoin:round;stroke-miterlimit:10;stroke-dasharray:none;stroke-opacity:1"
                   id="path1320" />
              </g>
              <g
                 id="g1322"
                 transform="matrix(1,0,0,-1,-104.71842,715.69467)">
                <path
                   d="m 445.414,-636.887 c 30.602,-9.652 56.516,-29.957 86.148,-41.793"
                   style="fill:none;stroke:#000000;stroke-width:2.61674;stroke-linecap:round;stroke-linejoin:round;stroke-miterlimit:10;stroke-dasharray:none;stroke-opacity:1"
                   id="path1324" />
              </g>
              <g
                 id="g1326"
                 transform="matrix(1,0,0,-1,-104.71842,715.69467)">
                <path
                   d="m 531.562,-678.68 c 26.989,26.168 62.438,41.93 90.887,66.266"
                   style="fill:none;stroke:#000000;stroke-width:2.61674;stroke-linecap:round;stroke-linejoin:round;stroke-miterlimit:10;stroke-dasharray:none;stroke-opacity:1"
                   id="path1328" />
              </g>
              <g
                 id="g1330"
                 transform="matrix(1,0,0,-1,-104.71842,715.69467)">
                <path
                   d="m 457.422,-602.91 c 24.211,-11.152 52.238,-21.828 72.652,-35.66"
                   style="fill:none;stroke:#000000;stroke-width:2.61674;stroke-linecap:round;stroke-linejoin:round;stroke-miterlimit:10;stroke-dasharray:none;stroke-opacity:1"
                   id="path1332" />
              </g>
              <g
                 id="g1334"
                 transform="matrix(1,0,0,-1,-104.71842,715.69467)">
                <path
                   d="m 535.137,-638.75 c 18.293,16.07 40.949,28.637 60.976,43.336 9.145,6.484 22.313,16.918 30.434,24.609"
                   style="fill:none;stroke:#000000;stroke-width:2.61674;stroke-linecap:round;stroke-linejoin:round;stroke-miterlimit:10;stroke-dasharray:none;stroke-opacity:1"
                   id="path1336" />
              </g>
              <g
                 id="g1338"
                 transform="matrix(1,0,0,-1,-104.71842,715.69467)">
                <path
                   d="m 466.441,-596.648 c 25.149,-10.122 51.364,-24.719 74.973,-35.606"
                   style="fill:none;stroke:#000000;stroke-width:2.61674;stroke-linecap:round;stroke-linejoin:round;stroke-miterlimit:10;stroke-dasharray:none;stroke-opacity:1"
                   id="path1340" />
              </g>
              <g
                 id="g1342"
                 transform="matrix(1,0,0,-1,-104.71842,715.69467)">
                <path
                   d="m 432.324,-534.938 c 4.5,-0.433 8.321,-2.847 12.27,-4.765"
                   style="fill:none;stroke:#000000;stroke-width:1.26872;stroke-linecap:round;stroke-linejoin:round;stroke-miterlimit:10;stroke-dasharray:none;stroke-opacity:1"
                   id="path1344" />
              </g>
              <g
                 id="g1346"
                 transform="matrix(1,0,0,-1,-104.71842,715.69467)">
                <path
                   d="m 409.328,-542.227 c 29.539,1.84 48.426,-26.441 53.84,-52.343 l 0.144,-1.059 -0.593,0.649"
                   style="fill:none;stroke:#000000;stroke-width:1.26872;stroke-linecap:round;stroke-linejoin:round;stroke-miterlimit:10;stroke-dasharray:none;stroke-opacity:1"
                   id="path1348" />
              </g>
              <g
                 id="g1350"
                 transform="matrix(1,0,0,-1,-104.71842,715.69467)">
                <path
                   d="m 426.234,-546.816 c -0.879,-5.356 6.645,-0.075 -0.363,-1.036"
                   style="fill:none;stroke:#000000;stroke-width:1.26872;stroke-linecap:round;stroke-linejoin:round;stroke-miterlimit:10;stroke-dasharray:none;stroke-opacity:1"
                   id="path1352" />
              </g>
              <g
                 id="g1354"
                 transform="matrix(1,0,0,-1,-104.71842,715.69467)">
                <path
                   d="m 470.133,-592.781 c 23.449,17.64 45.515,39.093 70.648,54.515 l -0.176,0.086 0.012,0.575"
                   style="fill:none;stroke:#000000;stroke-width:1.26872;stroke-linecap:round;stroke-linejoin:round;stroke-miterlimit:10;stroke-dasharray:none;stroke-opacity:1"
                   id="path1356" />
              </g>
              <g
                 id="g1358"
                 transform="matrix(1,0,0,-1,-104.71842,715.69467)">
                <path
                   d="m 436.57,-534.762 c 19.668,13.61 43.758,25.039 61.77,38.344"
                   style="fill:none;stroke:#000000;stroke-width:1.26872;stroke-linecap:round;stroke-linejoin:round;stroke-miterlimit:10;stroke-dasharray:none;stroke-opacity:1"
                   id="path1360" />
              </g>
              <g
                 id="g1362"
                 transform="matrix(1,0,0,-1,-104.71842,715.69467)">
                <path
                   d="m 448.348,-539.371 c 19.824,13.879 42.828,25.25 61.621,39.187 l -0.074,-0.386"
                   style="fill:none;stroke:#000000;stroke-width:1.26872;stroke-linecap:round;stroke-linejoin:round;stroke-miterlimit:10;stroke-dasharray:none;stroke-opacity:1"
                   id="path1364" />
              </g>
              <g
                 id="g1366"
                 transform="matrix(1,0,0,-1,-104.71842,715.69467)">
                <path
                   d="m 529.586,-590.164 c 11.613,8.98 27.715,20.469 38.129,25.301"
                   style="fill:none;stroke:#000000;stroke-width:1.26872;stroke-linecap:round;stroke-linejoin:round;stroke-miterlimit:10;stroke-dasharray:none;stroke-opacity:1"
                   id="path1368" />
              </g>
              <g
                 id="g1370"
                 transform="matrix(1,0,0,-1,-104.71842,715.69467)">
                <path
                   d="m 537.242,-594.23 c 11.285,5.726 21.805,15.039 32.363,20.554"
                   style="fill:none;stroke:#000000;stroke-width:1.26872;stroke-linecap:round;stroke-linejoin:round;stroke-miterlimit:10;stroke-dasharray:none;stroke-opacity:1"
                   id="path1372" />
              </g>
              <g
                 id="g1374"
                 transform="matrix(1,0,0,-1,-104.71842,715.69467)">
                <path
                   d="m 495.637,-624.336 c 1.086,-0.266 4.883,-1.57 5.691,-1.961"
                   style="fill:none;stroke:#000000;stroke-width:1.26872;stroke-linecap:round;stroke-linejoin:round;stroke-miterlimit:10;stroke-dasharray:none;stroke-opacity:1"
                   id="path1376" />
              </g>
              <g
                 id="g1378"
                 transform="matrix(1,0,0,-1,-104.71842,715.69467)">
                <path
                   d="m 501.457,-627.609 c -1.531,-9.235 -1.191,-20.871 -2.875,-28.981"
                   style="fill:none;stroke:#000000;stroke-width:1.26872;stroke-linecap:round;stroke-linejoin:round;stroke-miterlimit:10;stroke-dasharray:none;stroke-opacity:1"
                   id="path1380" />
              </g>
              <g
                 id="g1382"
                 transform="matrix(1,0,0,-1,-104.71842,715.69467)">
                <path
                   d="m 493.004,-624.711 c 0.812,-9.219 -4.688,-26.34 3.129,-31.305"
                   style="fill:none;stroke:#000000;stroke-width:1.26872;stroke-linecap:round;stroke-linejoin:round;stroke-miterlimit:10;stroke-dasharray:none;stroke-opacity:1"
                   id="path1384" />
              </g>
              <g
                 id="g1386"
                 transform="matrix(1,0,0,-1,-104.71842,715.69467)">
                <path
                   d="m 504.953,-629.574 c 8.383,-2.34 15.457,-8.094 24.199,-9.348"
                   style="fill:none;stroke:#000000;stroke-width:1.26872;stroke-linecap:round;stroke-linejoin:round;stroke-miterlimit:10;stroke-dasharray:none;stroke-opacity:1"
                   id="path1388" />
              </g>
              <g
                 id="g1390"
                 transform="matrix(1,0,0,-1,-104.71842,715.69467)">
                <path
                   d="m 527.871,-639.605 c 0.414,-9.165 -2.234,-24.145 -4.043,-29.727"
                   style="fill:none;stroke:#000000;stroke-width:1.26872;stroke-linecap:round;stroke-linejoin:round;stroke-miterlimit:10;stroke-dasharray:none;stroke-opacity:1"
                   id="path1392" />
              </g>
              <g
                 id="g1394"
                 transform="matrix(1,0,0,-1,-104.71842,715.69467)">
                <path
                   d="m 504.879,-630.723 c 0.285,-9 -3.156,-19.113 -3.387,-27.574"
                   style="fill:none;stroke:#000000;stroke-width:1.26872;stroke-linecap:round;stroke-linejoin:round;stroke-miterlimit:10;stroke-dasharray:none;stroke-opacity:1"
                   id="path1396" />
              </g>
              <g
                 id="g1398"
                 transform="matrix(1,0,0,-1,-104.71842,715.69467)">
                <path
                   d="m 502.008,-659.211 c 6.601,-5.504 16.121,-8.633 23.5,-10.828"
                   style="fill:none;stroke:#000000;stroke-width:1.26872;stroke-linecap:round;stroke-linejoin:round;stroke-miterlimit:10;stroke-dasharray:none;stroke-opacity:1"
                   id="path1400" />
              </g>
              <g
                 id="g1402"
                 transform="matrix(1,0,0,-1,-104.71842,715.69467)">
                <path
                   d="m 524.016,-660.215 c -7.989,11.141 -17.657,26.317 -16.7,3.309 4.356,-2.336 9.504,-2.246 13.727,-4.824"
                   style="fill:none;stroke:#000000;stroke-width:1.26872;stroke-linecap:round;stroke-linejoin:round;stroke-miterlimit:10;stroke-dasharray:none;stroke-opacity:1"
                   id="path1404" />
              </g>
              <g
                 id="g1406"
                 transform="matrix(1,0,0,-1,-104.71842,715.69467)">
                <path
                   d="m 376.391,-565.164 c -4.188,0.805 -33.735,19.016 -29.375,8.5"
                   style="fill:none;stroke:#000000;stroke-width:1.26872;stroke-linecap:round;stroke-linejoin:round;stroke-miterlimit:10;stroke-dasharray:none;stroke-opacity:1"
                   id="path1408" />
              </g>
              <g
                 id="g1410"
                 transform="matrix(1,0,0,-1,-104.71842,715.69467)">
                <path
                   d="m 340.23,-557.352 c 2.352,0.196 9.122,-1.121 10.024,-1.703"
                   style="fill:none;stroke:#000000;stroke-width:1.26872;stroke-linecap:round;stroke-linejoin:round;stroke-miterlimit:10;stroke-dasharray:none;stroke-opacity:1"
                   id="path1412" />
              </g>
              <g
                 id="g1414"
                 transform="matrix(1,0,0,-1,-104.71842,715.69467)">
                <path
                   d="m 340.23,-557.352 c -4.5,-4.918 -2.398,-13.765 -3.621,-19.957"
                   style="fill:none;stroke:#000000;stroke-width:1.26872;stroke-linecap:round;stroke-linejoin:round;stroke-miterlimit:10;stroke-dasharray:none;stroke-opacity:1"
                   id="path1416" />
              </g>
              <g
                 id="g1418"
                 transform="matrix(1,0,0,-1,-104.71842,715.69467)">
                <path
                   d="m 342.312,-562.992 c 1.067,-2.063 -3.113,-21.117 -1.171,-14.434"
                   style="fill:none;stroke:#000000;stroke-width:1.26872;stroke-linecap:round;stroke-linejoin:round;stroke-miterlimit:10;stroke-dasharray:none;stroke-opacity:1"
                   id="path1420" />
              </g>
              <g
                 id="g1422"
                 transform="matrix(1,0,0,-1,-104.71842,715.69467)">
                <path
                   d="m 346.852,-565.812 c 0.48,-0.969 -1.414,-18.626 -0.54,-12.59"
                   style="fill:none;stroke:#000000;stroke-width:1.26872;stroke-linecap:round;stroke-linejoin:round;stroke-miterlimit:10;stroke-dasharray:none;stroke-opacity:1"
                   id="path1424" />
              </g>
              <g
                 id="g1426"
                 transform="matrix(1,0,0,-1,-104.71842,715.69467)">
                <path
                   d="m 351.02,-566.469 c -0.278,-0.98 0.656,-19.777 -0.372,-14.215"
                   style="fill:none;stroke:#000000;stroke-width:1.26872;stroke-linecap:round;stroke-linejoin:round;stroke-miterlimit:10;stroke-dasharray:none;stroke-opacity:1"
                   id="path1428" />
              </g>
              <g
                 id="g1430"
                 transform="matrix(1,0,0,-1,-104.71842,715.69467)">
                <path
                   d="m 369.957,-590.684 c 14.074,-0.144 0.02,-32.054 -0.609,-10.015 l 0.547,4.82 0.152,4.184"
                   style="fill:none;stroke:#000000;stroke-width:1.26872;stroke-linecap:round;stroke-linejoin:round;stroke-miterlimit:10;stroke-dasharray:none;stroke-opacity:1"
                   id="path1432" />
              </g>
              <g
                 id="g1434"
                 transform="matrix(1,0,0,-1,-104.71842,715.69467)">
                <path
                   d="m 411.133,-596.668 c 7.605,-6.84 10.336,-30.445 3.355,-33.887"
                   style="fill:none;stroke:#000000;stroke-width:1.26872;stroke-linecap:round;stroke-linejoin:round;stroke-miterlimit:10;stroke-dasharray:none;stroke-opacity:1"
                   id="path1436" />
              </g>
              <g
                 id="g1438"
                 transform="matrix(1,0,0,-1,-104.71842,715.69467)">
                <path
                   d="m 377.023,-578.41 c 10.418,0.238 20.719,-7.328 26.411,-15.418"
                   style="fill:none;stroke:#000000;stroke-width:1.26872;stroke-linecap:round;stroke-linejoin:round;stroke-miterlimit:10;stroke-dasharray:none;stroke-opacity:1"
                   id="path1440" />
              </g>
              <g
                 id="g1442"
                 transform="matrix(1,0,0,-1,-104.71842,715.69467)">
                <path
                   d="m 412.426,-636.996 c -2.985,-4.281 -9.192,-4.133 -13.821,-4.02"
                   style="fill:none;stroke:#000000;stroke-width:1.26872;stroke-linecap:round;stroke-linejoin:round;stroke-miterlimit:10;stroke-dasharray:none;stroke-opacity:1"
                   id="path1444" />
              </g>
              <g
                 id="g1446"
                 transform="matrix(1,0,0,-1,-104.71842,715.69467)">
                <path
                   d="m 376.367,-616.484 c 2.149,-6.934 7.543,-16.274 12.86,-18.434"
                   style="fill:none;stroke:#000000;stroke-width:1.26872;stroke-linecap:round;stroke-linejoin:round;stroke-miterlimit:10;stroke-dasharray:none;stroke-opacity:1"
                   id="path1448" />
              </g>
              <g
                 id="g1450"
                 transform="matrix(1,0,0,-1,-104.71842,715.69467)">
                <path
                   d="m 373.91,-624.223 c -0.402,-2.312 -2.367,-3.828 0.348,-1.152"
                   style="fill:none;stroke:#000000;stroke-width:1.26872;stroke-linecap:round;stroke-linejoin:round;stroke-miterlimit:10;stroke-dasharray:none;stroke-opacity:1"
                   id="path1452" />
              </g>
              <g
                 id="g1454"
                 transform="matrix(1,0,0,-1,-104.71842,715.69467)">
                <path
                   d="m 426.605,-547.125 c -5.355,-6.738 8.727,-2.152 1.481,-0.824"
                   style="fill:none;stroke:#000000;stroke-width:1.26872;stroke-linecap:round;stroke-linejoin:round;stroke-miterlimit:10;stroke-dasharray:none;stroke-opacity:1"
                   id="path1456" />
              </g>
              <g
                 id="g1458"
                 transform="matrix(1,0,0,-1,-104.71842,715.69467)">
                <path
                   d="m 463.312,-595.629 c -6.332,-9.98 -1.468,-3.461 3.129,-1.019"
                   style="fill:none;stroke:#000000;stroke-width:1.26872;stroke-linecap:round;stroke-linejoin:round;stroke-miterlimit:10;stroke-dasharray:none;stroke-opacity:1"
                   id="path1460" />
              </g>
              <g
                 id="g1462"
                 transform="matrix(1,0,0,-1,-104.71842,715.69467)">
                <path
                   d="m 456.059,-607.051 c 2.804,-8.597 -3.149,-18.398 -8.735,-22.39"
                   style="fill:none;stroke:#000000;stroke-width:1.26872;stroke-linecap:round;stroke-linejoin:round;stroke-miterlimit:10;stroke-dasharray:none;stroke-opacity:1"
                   id="path1464" />
              </g>
            </g>
          </g>
        </g>
      </g>
    </g>
  </g>
</svg>
