<?xml version="1.0" encoding="UTF-8" standalone="no"?>
<!-- Created by Ashley Blewer - This work is licensed under a Creative Commons Attribution 4.0 International License -->

<svg
   width="544"
   height="480"
   viewBox="0 0 143.93334 127"
   version="1.1"
   id="svg2490"
   inkscape:version="1.2.2 (1:1.2.2+202212051552+b0a8486541)"
   sodipodi:docname="1969-super-16mm-3.svg"
   xmlns:inkscape="http://www.inkscape.org/namespaces/inkscape"
   xmlns:sodipodi="http://sodipodi.sourceforge.net/DTD/sodipodi-0.dtd"
   xmlns="http://www.w3.org/2000/svg"
   xmlns:svg="http://www.w3.org/2000/svg">
  <sodipodi:namedview
     id="namedview2492"
     pagecolor="#ffffff"
     bordercolor="#666666"
     borderopacity="1.0"
     inkscape:pageshadow="2"
     inkscape:pageopacity="0.0"
     inkscape:pagecheckerboard="0"
     inkscape:document-units="mm"
     showgrid="false"
     units="px"
     inkscape:zoom="0.90583674"
     inkscape:cx="337.25724"
     inkscape:cy="255.56482"
     inkscape:window-width="1846"
     inkscape:window-height="1136"
     inkscape:window-x="0"
     inkscape:window-y="0"
     inkscape:window-maximized="1"
     inkscape:current-layer="g6395"
     inkscape:showpageshadow="2"
     inkscape:deskcolor="#d1d1d1" />
  <defs
     id="defs2487" />
  <g
     inkscape:label="Layer 1"
     inkscape:groupmode="layer"
     id="layer1">
    <g
       id="g4731"
       transform="matrix(0.32961229,0,0,0.32903008,-241.78905,1.73126)"
       style="stroke-width:2.68698">
      <g
         id="g104528"
         transform="matrix(1,0,0,-1,0,792)"
         style="stroke-width:2.68698">
        <g
           id="g104530"
           style="stroke-width:2.68698" />
      </g>
      <g
         id="g104996"
         transform="matrix(1,0,0,-1,0,792)"
         style="stroke-width:2.68698">
        <g
           id="g104998"
           style="stroke-width:2.68698" />
      </g>
      <g
         id="g28852"
         transform="matrix(1.070281,0,0,1.0721748,779.91249,-443.13657)">
        <g
           id="g6718"
           transform="matrix(1.117886,0,0,1.117886,-549.13111,-491.62865)">
          <g
             id="g6395"
             transform="matrix(0.53415107,0,0,0.53415109,441.93669,415.26868)">
            <g
               id="g5658"
               transform="matrix(2.0599221,0,0,2.0599221,227.7397,-1766.3513)">
              <g
                 id="g1290"
                 transform="matrix(1,0,0,-1,-179.83448,768.30992)">
                <path
                   d="m 133.305,-548.305 c 19.625,26.211 56.015,21.817 84.515,28.696 29.883,3.539 62.711,0.839 88.539,-15.61 3.016,-2.617 5.43,-5.984 6.672,-9.801"
                   style="fill:none;stroke:#000000;stroke-width:2.61674;stroke-linecap:round;stroke-linejoin:round;stroke-miterlimit:10;stroke-dasharray:none;stroke-opacity:1"
                   id="path1292" />
              </g>
              <g
                 id="g1294"
                 transform="matrix(1,0,0,-1,-179.83448,768.30992)">
                <path
                   d="m 133.305,-548.305 c 2.785,-3.902 1.504,-13.519 2.543,-17.09"
                   style="fill:none;stroke:#000000;stroke-width:2.61674;stroke-linecap:round;stroke-linejoin:round;stroke-miterlimit:10;stroke-dasharray:none;stroke-opacity:1"
                   id="path1296" />
              </g>
              <g
                 id="g1298"
                 transform="matrix(1,0,0,-1,-179.83448,768.30992)">
                <path
                   d="m 135.848,-565.395 c 12.101,-7.984 30.195,-15.511 45.117,-16.73 31.801,-4.836 62.863,5.223 94.277,8.102 12.32,1.55 29.192,6.238 39.145,11.492"
                   style="fill:none;stroke:#000000;stroke-width:2.61674;stroke-linecap:round;stroke-linejoin:round;stroke-miterlimit:10;stroke-dasharray:none;stroke-opacity:1"
                   id="path1300" />
              </g>
              <g
                 id="g1302"
                 transform="matrix(1,0,0,-1,-179.83448,768.30992)">
                <path
                   d="m 312.426,-545.637 c 4.328,-3.23 5.023,-13.648 1.961,-16.894"
                   style="fill:none;stroke:#000000;stroke-width:2.61674;stroke-linecap:round;stroke-linejoin:round;stroke-miterlimit:10;stroke-dasharray:none;stroke-opacity:1"
                   id="path1304" />
              </g>
              <g
                 id="g1306"
                 transform="matrix(1,0,0,-1,-179.83448,768.30992)">
                <path
                   d="m 135.379,-548.871 c 20.398,-16.965 49.5,-16.18 74.812,-14.82 28.133,0.367 57.493,0.586 83.414,12.675 4.551,2.414 17.473,5.704 19.567,9.45"
                   style="fill:none;stroke:#000000;stroke-width:2.61674;stroke-linecap:round;stroke-linejoin:round;stroke-miterlimit:10;stroke-dasharray:none;stroke-opacity:1"
                   id="path1308" />
              </g>
              <g
                 id="g1310"
                 transform="matrix(1,0,0,-1,-179.83448,768.30992)">
                <path
                   d="m 313.172,-541.566 c 17.543,2.031 37.324,-0.465 52.918,-10.051 8.312,-5.242 7.621,-21.403 5.73,-27.336"
                   style="fill:none;stroke:#000000;stroke-width:2.61674;stroke-linecap:round;stroke-linejoin:round;stroke-miterlimit:10;stroke-dasharray:none;stroke-opacity:1"
                   id="path1312" />
              </g>
              <g
                 id="g1314"
                 transform="matrix(1,0,0,-1,-179.83448,768.30992)">
                <path
                   d="m 193.969,-584.734 c 27.535,-14.813 76.523,-11.141 106.261,-12.989 22.602,0.438 46.762,-1.547 66.625,11.586 -0.269,0.512 4.965,7.184 4.965,7.184"
                   style="fill:none;stroke:#000000;stroke-width:2.61674;stroke-linecap:round;stroke-linejoin:round;stroke-miterlimit:10;stroke-dasharray:none;stroke-opacity:1"
                   id="path1316" />
              </g>
              <g
                 id="g1318"
                 transform="matrix(1,0,0,-1,-179.83448,768.30992)">
                <path
                   d="m 251.82,-577.645 c 21.547,-0.191 62.696,-2 83.809,2.485 11.461,2.941 27.105,4.906 34.562,12.203"
                   style="fill:none;stroke:#000000;stroke-width:2.61674;stroke-linecap:round;stroke-linejoin:round;stroke-miterlimit:10;stroke-dasharray:none;stroke-opacity:1"
                   id="path1320" />
              </g>
              <g
                 id="g1322"
                 transform="matrix(1,0,0,-1,-179.83448,768.30992)">
                <path
                   d="m 342.629,-597.117 c 0.465,-4.188 2.816,-13.188 0.449,-15.649"
                   style="fill:none;stroke:#000000;stroke-width:2.61674;stroke-linecap:round;stroke-linejoin:round;stroke-miterlimit:10;stroke-dasharray:none;stroke-opacity:1"
                   id="path1324" />
              </g>
              <g
                 id="g1326"
                 transform="matrix(1,0,0,-1,-179.83448,768.30992)">
                <path
                   d="m 135.848,-565.395 c -14.504,-2.914 -39.043,-10.972 -39.735,-27.285 5.633,-15.578 27.117,-15.812 40.907,-21.664 34.5,-5.867 69.792,-7.883 104.707,-4.976 36.632,4.195 63.867,15.199 100.902,22.203"
                   style="fill:none;stroke:#000000;stroke-width:2.61674;stroke-linecap:round;stroke-linejoin:round;stroke-miterlimit:10;stroke-dasharray:none;stroke-opacity:1"
                   id="path1328" />
              </g>
              <g
                 id="g1330"
                 transform="matrix(1,0,0,-1,-179.83448,768.30992)">
                <path
                   d="m 97.176,-594.195 c -1.832,-6.09 0.722,-16.075 0.066,-20.789"
                   style="fill:none;stroke:#000000;stroke-width:2.61674;stroke-linecap:round;stroke-linejoin:round;stroke-miterlimit:10;stroke-dasharray:none;stroke-opacity:1"
                   id="path1332" />
              </g>
              <g
                 id="g1334"
                 transform="matrix(1,0,0,-1,-179.83448,768.30992)">
                <path
                   d="m 96.441,-615.32 c 12.59,-14.582 34.547,-17 52.668,-20.075 27.629,-1.757 55.371,-1.214 83.028,-2.832 34.816,-0.734 71.429,1.325 102.937,17.469 8.004,7.992 8.004,7.992 8.004,7.992"
                   style="fill:none;stroke:#000000;stroke-width:2.61674;stroke-linecap:round;stroke-linejoin:round;stroke-miterlimit:10;stroke-dasharray:none;stroke-opacity:1"
                   id="path1336" />
              </g>
              <g
                 id="g1338"
                 transform="matrix(1,0,0,-1,-179.83448,768.30992)">
                <path
                   d="m 371.82,-578.953 c 12.727,-8.703 19.188,-25.988 15.352,-40.859 -5.082,-11.438 -18.906,-12.368 -29.383,-15.817 -21.441,-5.375 -46.156,-11.621 -68.203,-10.25 -6.574,1.371 -52.461,1.766 -57.449,7.652"
                   style="fill:none;stroke:#000000;stroke-width:2.61674;stroke-linecap:round;stroke-linejoin:round;stroke-miterlimit:10;stroke-dasharray:none;stroke-opacity:1"
                   id="path1340" />
              </g>
              <g
                 id="g1342"
                 transform="matrix(1,0,0,-1,-179.83448,768.30992)">
                <path
                   d="m 136.93,-634.547 c 13.91,-12.496 38.156,-22.289 56.179,-25.695 31.61,-6.742 63.961,-12.754 96.418,-10.879 19.774,1.941 39.75,3.344 58.645,9.973 14.754,3.527 34.07,11.726 44.41,22.734"
                   style="fill:none;stroke:#000000;stroke-width:2.61674;stroke-linecap:round;stroke-linejoin:round;stroke-miterlimit:10;stroke-dasharray:none;stroke-opacity:1"
                   id="path1344" />
              </g>
              <g
                 id="g1346"
                 transform="matrix(1,0,0,-1,-179.83448,768.30992)">
                <path
                   d="m 392.582,-638.414 c 2.949,11.141 -4.281,29.656 -4.281,29.656"
                   style="fill:none;stroke:#000000;stroke-width:2.61674;stroke-linecap:round;stroke-linejoin:round;stroke-miterlimit:10;stroke-dasharray:none;stroke-opacity:1"
                   id="path1348" />
              </g>
            </g>
          </g>
        </g>
      </g>
    </g>
  </g>
</svg>
