<?xml version="1.0" encoding="UTF-8" standalone="no"?>
<!-- Created by Ashley Blewer - This work is licensed under a Creative Commons Attribution 4.0 International License -->

<svg
   width="544"
   height="480"
   viewBox="0 0 143.93334 127"
   version="1.1"
   id="svg2490"
   inkscape:version="1.2.2 (1:1.2.2+202212051552+b0a8486541)"
   sodipodi:docname="1969-super-16mm-2.svg"
   xmlns:inkscape="http://www.inkscape.org/namespaces/inkscape"
   xmlns:sodipodi="http://sodipodi.sourceforge.net/DTD/sodipodi-0.dtd"
   xmlns="http://www.w3.org/2000/svg"
   xmlns:svg="http://www.w3.org/2000/svg">
  <sodipodi:namedview
     id="namedview2492"
     pagecolor="#ffffff"
     bordercolor="#666666"
     borderopacity="1.0"
     inkscape:pageshadow="2"
     inkscape:pageopacity="0.0"
     inkscape:pagecheckerboard="0"
     inkscape:document-units="mm"
     showgrid="false"
     units="px"
     inkscape:zoom="0.90583674"
     inkscape:cx="337.25724"
     inkscape:cy="255.56482"
     inkscape:window-width="1846"
     inkscape:window-height="1136"
     inkscape:window-x="0"
     inkscape:window-y="0"
     inkscape:window-maximized="1"
     inkscape:current-layer="g6395"
     inkscape:showpageshadow="2"
     inkscape:deskcolor="#d1d1d1" />
  <defs
     id="defs2487" />
  <g
     inkscape:label="Layer 1"
     inkscape:groupmode="layer"
     id="layer1">
    <g
       id="g4731"
       transform="matrix(0.32961229,0,0,0.32903008,-241.78905,1.73126)"
       style="stroke-width:2.68698">
      <g
         id="g104528"
         transform="matrix(1,0,0,-1,0,792)"
         style="stroke-width:2.68698">
        <g
           id="g104530"
           style="stroke-width:2.68698" />
      </g>
      <g
         id="g104996"
         transform="matrix(1,0,0,-1,0,792)"
         style="stroke-width:2.68698">
        <g
           id="g104998"
           style="stroke-width:2.68698" />
      </g>
      <g
         id="g28852"
         transform="matrix(1.070281,0,0,1.0721748,779.91249,-443.13657)">
        <g
           id="g6718"
           transform="matrix(1.117886,0,0,1.117886,-549.13111,-491.62865)">
          <g
             id="g6395"
             transform="matrix(0.53415107,0,0,0.53415109,441.93669,415.26868)">
            <g
               id="g5676"
               transform="matrix(3.0357803,0,0,3.0357803,-1384.8259,-1877.5397)">
              <g
                 id="g1350"
                 transform="matrix(1,0,0,-1,-179.83448,768.30992)">
                <path
                   d="m 655.695,-254.859 c 1.067,21.246 0.067,42.679 1.457,63.961 -1.41,22.46 0.239,44.843 -0.925,67.281 1.793,2.562 -2.489,10.555 1.234,10.652"
                   style="fill:none;stroke:#000000;stroke-width:2.61674;stroke-linecap:round;stroke-linejoin:round;stroke-miterlimit:10;stroke-dasharray:none;stroke-opacity:1"
                   id="path1352" />
              </g>
              <g
                 id="g1354"
                 transform="matrix(1,0,0,-1,-179.83448,768.30992)">
                <path
                   d="m 853.77,-113.367 c 0.625,-9.192 -0.473,-20.485 0.148,-30.379 0.289,-13.641 0.859,-27.344 0.059,-40.988 -1.239,-17.817 -1.168,-35.52 -0.145,-53.34 -0.144,-5.985 0.828,-18.196 -0.684,-20.571"
                   style="fill:none;stroke:#000000;stroke-width:2.61674;stroke-linecap:round;stroke-linejoin:round;stroke-miterlimit:10;stroke-dasharray:none;stroke-opacity:1"
                   id="path1356" />
              </g>
              <g
                 id="g1358"
                 transform="matrix(1,0,0,-1,-179.83448,768.30992)">
                <path
                   d="m 663.578,-134.59 c 1.652,-5.867 36.813,-1.308 36.813,-1.308 h 35.648 l 65.953,1.187 c 10.082,-1.332 16.75,-0.648 16.219,15.668 l -0.93,0.098"
                   style="fill:none;stroke:#000000;stroke-width:2.61674;stroke-linecap:round;stroke-linejoin:round;stroke-miterlimit:10;stroke-dasharray:none;stroke-opacity:1"
                   id="path1360" />
              </g>
              <g
                 id="g1362"
                 transform="matrix(1,0,0,-1,-179.83448,768.30992)">
                <path
                   d="m 663.578,-134.59 c -2.062,2.07 -2.742,10.512 -2.863,14.824"
                   style="fill:none;stroke:#000000;stroke-width:2.61674;stroke-linecap:round;stroke-linejoin:round;stroke-miterlimit:10;stroke-dasharray:none;stroke-opacity:1"
                   id="path1364" />
              </g>
              <g
                 id="g1366"
                 transform="matrix(1,0,0,-1,-179.83448,768.30992)">
                <path
                   d="m 661.621,-141.34 c 31.145,5.672 94.113,2.531 94.113,2.531 19.418,0.829 39.446,3.747 58.375,-2.218 9.282,-13.106 5.938,-44.664 5.938,-44.664 0.164,-13.235 5.027,-39.782 -14.867,-39.329 l -41.102,-1.05 -59.176,-0.09 c -15.41,0.074 -43.984,-10.102 -41.664,15.215 -0.683,18.246 -1.476,54.648 -1.476,54.648 -0.149,5.445 0.703,11.063 3.468,15.84"
                   style="fill:none;stroke:#000000;stroke-width:2.61674;stroke-linecap:round;stroke-linejoin:round;stroke-miterlimit:10;stroke-dasharray:none;stroke-opacity:1"
                   id="path1368" />
              </g>
              <g
                 id="g1370"
                 transform="matrix(1,0,0,-1,-179.83448,768.30992)">
                <path
                   d="m 662.293,-251.988 c -3.211,12.258 -6.035,20.742 18.676,20.367 41.156,-0.801 120.324,-0.906 120.324,-0.906 0,0 21.164,-2.09 16.125,-14.926 -0.867,-1.84 2.156,-7.891 -2.188,-5.695"
                   style="fill:none;stroke:#000000;stroke-width:2.61674;stroke-linecap:round;stroke-linejoin:round;stroke-miterlimit:10;stroke-dasharray:none;stroke-opacity:1"
                   id="path1372" />
              </g>
              <g
                 id="g1374"
                 transform="matrix(1,0,0,-1,-179.83448,768.30992)">
                <path
                   d="m 820.555,-229.945 c -1.571,-10.282 15.429,-12.653 24.285,-9.532 5.418,13.946 -11.106,18.289 -21.395,12.993 -0.465,-0.989 -2.472,-3.551 -2.89,-3.461"
                   style="fill:none;stroke:#000000;stroke-width:2.61674;stroke-linecap:round;stroke-linejoin:round;stroke-miterlimit:10;stroke-dasharray:none;stroke-opacity:1"
                   id="path1376" />
              </g>
              <g
                 id="g1378"
                 transform="matrix(1,0,0,-1,-179.83448,768.30992)">
                <path
                   d="m 818.742,-135.359 c -0.137,-2.25 3.36,-7.668 14.438,-6.149 11.797,-1.117 14.843,9.211 5.129,15.528 -7.176,-0.59 -21.371,1.464 -19.567,-9.379"
                   style="fill:none;stroke:#000000;stroke-width:2.61674;stroke-linecap:round;stroke-linejoin:round;stroke-miterlimit:10;stroke-dasharray:none;stroke-opacity:1"
                   id="path1380" />
              </g>
            </g>
          </g>
        </g>
      </g>
    </g>
  </g>
</svg>
