<?xml version="1.0" encoding="UTF-8" standalone="no"?>
<!-- Created by Ashley Blewer - This work is licensed under a Creative Commons Attribution 4.0 International License -->

<svg
   width="544"
   height="480"
   viewBox="0 0 143.93334 127"
   version="1.1"
   id="svg2490"
   inkscape:version="1.2.2 (1:1.2.2+202212051552+b0a8486541)"
   sodipodi:docname="1970-imax-3.svg"
   xmlns:inkscape="http://www.inkscape.org/namespaces/inkscape"
   xmlns:sodipodi="http://sodipodi.sourceforge.net/DTD/sodipodi-0.dtd"
   xmlns="http://www.w3.org/2000/svg"
   xmlns:svg="http://www.w3.org/2000/svg">
  <sodipodi:namedview
     id="namedview2492"
     pagecolor="#ffffff"
     bordercolor="#666666"
     borderopacity="1.0"
     inkscape:pageshadow="2"
     inkscape:pageopacity="0.0"
     inkscape:pagecheckerboard="0"
     inkscape:document-units="mm"
     showgrid="false"
     units="px"
     inkscape:zoom="0.90583674"
     inkscape:cx="337.25724"
     inkscape:cy="255.56482"
     inkscape:window-width="1846"
     inkscape:window-height="1136"
     inkscape:window-x="0"
     inkscape:window-y="0"
     inkscape:window-maximized="1"
     inkscape:current-layer="g6395"
     inkscape:showpageshadow="2"
     inkscape:deskcolor="#d1d1d1" />
  <defs
     id="defs2487" />
  <g
     inkscape:label="Layer 1"
     inkscape:groupmode="layer"
     id="layer1">
    <g
       id="g4731"
       transform="matrix(0.32961229,0,0,0.32903008,-241.78905,1.73126)"
       style="stroke-width:2.68698">
      <g
         id="g104528"
         transform="matrix(1,0,0,-1,0,792)"
         style="stroke-width:2.68698">
        <g
           id="g104530"
           style="stroke-width:2.68698" />
      </g>
      <g
         id="g104996"
         transform="matrix(1,0,0,-1,0,792)"
         style="stroke-width:2.68698">
        <g
           id="g104998"
           style="stroke-width:2.68698" />
      </g>
      <g
         id="g28852"
         transform="matrix(1.070281,0,0,1.0721748,779.91249,-443.13657)">
        <g
           id="g6718"
           transform="matrix(1.117886,0,0,1.117886,-549.13111,-491.62865)">
          <g
             id="g6395"
             transform="matrix(0.53415107,0,0,0.53415109,441.93669,415.26868)">
            <g
               id="g9887"
               transform="matrix(1.8525494,0,0,1.8525494,-1287.3873,-1394.1005)">
              <g
                 id="g2102"
                 transform="matrix(1,0,0,-1,-33.459445,784.51)">
                <path
                   d="m 885.594,-518.777 c 21.851,2.293 44.285,0.093 64.101,-9.758 8.946,-3.328 19.137,-12.203 15.317,-22.059 -14.703,-16.879 -39.289,-19.078 -60.356,-21.023 -20.769,1.937 -41.703,1.625 -62.57,2.34 -16.906,1.984 -37.098,8.113 -44.867,24.074 0.66,9.172 11.926,13.676 19.57,17.797 16.16,6.992 33.801,8.816 51.348,8.367 7.914,0.551 18.492,2.227 24.816,1.047"
                   style="fill:none;stroke:#000000;stroke-width:2.61674;stroke-linecap:round;stroke-linejoin:round;stroke-miterlimit:10;stroke-dasharray:none;stroke-opacity:1"
                   id="path2104" />
              </g>
              <g
                 id="g2106"
                 transform="matrix(1,0,0,-1,-33.459445,784.51)">
                <path
                   d="m 797.312,-545.125 c 1.067,-3.605 2.27,-15.699 2.333,-18.91"
                   style="fill:none;stroke:#000000;stroke-width:2.61674;stroke-linecap:round;stroke-linejoin:round;stroke-miterlimit:10;stroke-dasharray:none;stroke-opacity:1"
                   id="path2108" />
              </g>
              <g
                 id="g2110"
                 transform="matrix(1,0,0,-1,-33.459445,784.51)">
                <path
                   d="m 799.645,-564.035 c 9.945,-8.231 25.335,-12.305 38.257,-16.246 35.18,-9.168 72.856,-6.36 107.504,3.293 6.664,2.293 14.239,8.312 18.836,10.633 4.02,5.914 0.192,15.929 0.926,22.031 l -0.152,-0.153 -0.446,0.489"
                   style="fill:none;stroke:#000000;stroke-width:2.61674;stroke-linecap:round;stroke-linejoin:round;stroke-miterlimit:10;stroke-dasharray:none;stroke-opacity:1"
                   id="path2112" />
              </g>
              <g
                 id="g2114"
                 transform="matrix(1,0,0,-1,-33.459445,784.51)">
                <path
                   d="m 807.695,-532.262 c -19.175,-4.679 -51.336,-11.859 -48.742,-37.218 9.442,-24.891 40.426,-26.332 62.621,-31.723 34.219,-7.781 69.742,-8.645 104.117,-1.508 26.536,3.441 54.918,8.469 75.469,27.035 13.504,23.93 -20.293,35.336 -38.168,35.301"
                   style="fill:none;stroke:#000000;stroke-width:2.61674;stroke-linecap:round;stroke-linejoin:round;stroke-miterlimit:10;stroke-dasharray:none;stroke-opacity:1"
                   id="path2116" />
              </g>
              <g
                 id="g2118"
                 transform="matrix(1,0,0,-1,-33.459445,784.51)">
                <path
                   d="m 876.238,-534.293 c 0.688,6.09 -1.277,13.563 0.274,19.613 1.488,3.821 1.879,-16.843 2.316,-18.078"
                   style="fill:none;stroke:#000000;stroke-width:2.61674;stroke-linecap:round;stroke-linejoin:round;stroke-miterlimit:10;stroke-dasharray:none;stroke-opacity:1"
                   id="path2120" />
              </g>
              <g
                 id="g2122"
                 transform="matrix(1,0,0,-1,-33.459445,784.51)">
                <path
                   d="m 875.641,-533.387 c -2.301,1.211 -2.543,-7.699 -1.731,-2.16 2.793,3.735 6.555,0.602 5.449,-1.871"
                   style="fill:none;stroke:#000000;stroke-width:2.61674;stroke-linecap:round;stroke-linejoin:round;stroke-miterlimit:10;stroke-dasharray:none;stroke-opacity:1"
                   id="path2124" />
              </g>
              <g
                 id="g2126"
                 transform="matrix(1,0,0,-1,-33.459445,784.51)">
                <path
                   d="m 875.16,-537.453 c -0.746,-0.801 3.633,-1.574 3.879,-0.332"
                   style="fill:none;stroke:#000000;stroke-width:2.61674;stroke-linecap:round;stroke-linejoin:round;stroke-miterlimit:10;stroke-dasharray:none;stroke-opacity:1"
                   id="path2128" />
              </g>
              <g
                 id="g2130"
                 transform="matrix(1,0,0,-1,-33.459445,784.51)">
                <path
                   d="m 858.516,-532.676 c 13.386,4.586 31.558,4.403 42.57,-3.879 1.98,-5.73 -9.5,-9.433 -14.973,-9.113 -10.648,1.199 -23.746,-0.973 -32.59,5.23 -3.89,6.551 7.008,8.051 11.918,8.543 1.004,0.313 2.059,1.165 3.168,0.563"
                   style="fill:none;stroke:#000000;stroke-width:2.61674;stroke-linecap:round;stroke-linejoin:round;stroke-miterlimit:10;stroke-dasharray:none;stroke-opacity:1"
                   id="path2132" />
              </g>
              <g
                 id="g2134"
                 transform="matrix(1,0,0,-1,-33.459445,784.51)">
                <path
                   d="m 847.672,-535.637 c -3.492,3.492 -8.606,1.379 -12.891,1.024 -4.336,2.25 -3.801,-3.418 -7.992,0.98 -4.336,-0.449 -8.894,-3.769 -11.328,-4.824"
                   style="fill:none;stroke:#000000;stroke-width:2.61674;stroke-linecap:round;stroke-linejoin:round;stroke-miterlimit:10;stroke-dasharray:none;stroke-opacity:1"
                   id="path2136" />
              </g>
              <g
                 id="g2138"
                 transform="matrix(1,0,0,-1,-33.459445,784.51)">
                <path
                   d="m 814.637,-557.492 c -0.535,5.808 7.691,1.199 5.91,1.379 1.715,8.41 9.738,-0.836 10.449,8.703 3.387,-0.645 7.395,5.492 10.668,2.613 l -0.047,-0.082"
                   style="fill:none;stroke:#000000;stroke-width:2.61674;stroke-linecap:round;stroke-linejoin:round;stroke-miterlimit:10;stroke-dasharray:none;stroke-opacity:1"
                   id="path2140" />
              </g>
              <g
                 id="g2142"
                 transform="matrix(1,0,0,-1,-33.459445,784.51)">
                <path
                   d="m 902.539,-531.227 c -0.617,2.95 2.828,1.836 4.992,0.043 -1.402,8.36 4.848,0.442 6.512,3.727 2.07,3.41 10.109,-1.477 14.203,0.973 -0.168,-0.864 1.922,0.164 0.742,-0.09"
                   style="fill:none;stroke:#000000;stroke-width:2.61674;stroke-linecap:round;stroke-linejoin:round;stroke-miterlimit:10;stroke-dasharray:none;stroke-opacity:1"
                   id="path2144" />
              </g>
              <g
                 id="g2146"
                 transform="matrix(1,0,0,-1,-33.459445,784.51)">
                <path
                   d="m 908.789,-535.492 c 3.809,-0.211 7.625,-0.18 11.191,1.609 4.411,-3.406 7.461,6.227 13.274,2.465 1.773,-0.156 5.43,1.254 5.961,0.664"
                   style="fill:none;stroke:#000000;stroke-width:2.61674;stroke-linecap:round;stroke-linejoin:round;stroke-miterlimit:10;stroke-dasharray:none;stroke-opacity:1"
                   id="path2148" />
              </g>
              <g
                 id="g2150"
                 transform="matrix(1,0,0,-1,-33.459445,784.51)">
                <path
                   d="m 867.121,-552.789 c 11.008,-3.805 24.871,-0.149 36.484,0.375"
                   style="fill:none;stroke:#000000;stroke-width:2.61674;stroke-linecap:round;stroke-linejoin:round;stroke-miterlimit:10;stroke-dasharray:none;stroke-opacity:1"
                   id="path2152" />
              </g>
              <g
                 id="g2154"
                 transform="matrix(1,0,0,-1,-33.459445,784.51)">
                <path
                   d="m 860.848,-560.664 c 18.984,-2.641 39.609,-4.274 57.007,4.59"
                   style="fill:none;stroke:#000000;stroke-width:2.61674;stroke-linecap:round;stroke-linejoin:round;stroke-miterlimit:10;stroke-dasharray:none;stroke-opacity:1"
                   id="path2156" />
              </g>
              <g
                 id="g2158"
                 transform="matrix(1,0,0,-1,-33.459445,784.51)">
                <path
                   d="m 798.363,-545.293 c 0.129,-2.172 4.457,-7.34 7.184,-9.836 26.84,-17.414 61.515,-19.465 93.383,-19.144 18.898,2.312 39.3,5.566 55.129,14.07 4.355,3.984 9.304,8.652 10,12.824 0.097,2.582 -0.547,5.227 -1.067,7.004"
                   style="fill:none;stroke:#000000;stroke-width:2.61674;stroke-linecap:round;stroke-linejoin:round;stroke-miterlimit:10;stroke-dasharray:none;stroke-opacity:1"
                   id="path2160" />
              </g>
              <g
                 id="g2874"
                 transform="matrix(1,0,0,-1,-33.459445,784.51)">
                <path
                   d="m 803.988,-419.363 c 23.278,7.73 49.274,13.879 74.645,14.062 22.738,-0.222 47.019,3.071 67.527,-5.101 4.902,-1.008 11.961,-2.11 14.418,-5.004"
                   style="fill:none;stroke:#000000;stroke-width:2.61674;stroke-linecap:round;stroke-linejoin:round;stroke-miterlimit:10;stroke-dasharray:none;stroke-opacity:1"
                   id="path2876" />
              </g>
              <g
                 id="g2878"
                 transform="matrix(1,0,0,-1,-33.459445,784.51)">
                <path
                   d="m 960.578,-415.406 c 0.973,-1.438 3.387,-11.973 2.797,-15.059 0.539,-0.383 -7.039,-2.515 -6.977,-3.312"
                   style="fill:none;stroke:#000000;stroke-width:2.61674;stroke-linecap:round;stroke-linejoin:round;stroke-miterlimit:10;stroke-dasharray:none;stroke-opacity:1"
                   id="path2880" />
              </g>
              <g
                 id="g2882"
                 transform="matrix(1,0,0,-1,-33.459445,784.51)">
                <path
                   d="m 956.398,-433.777 c -50.086,14.203 -102.168,5.175 -151.773,-6.153"
                   style="fill:none;stroke:#000000;stroke-width:2.61674;stroke-linecap:round;stroke-linejoin:round;stroke-miterlimit:10;stroke-dasharray:none;stroke-opacity:1"
                   id="path2884" />
              </g>
              <g
                 id="g2886"
                 transform="matrix(1,0,0,-1,-33.459445,784.51)">
                <path
                   d="m 803.988,-419.363 c -0.547,0.133 -1.379,-8.332 -2.176,-10.825 0.833,-1.511 1.876,-10.374 2.813,-9.742"
                   style="fill:none;stroke:#000000;stroke-width:2.61674;stroke-linecap:round;stroke-linejoin:round;stroke-miterlimit:10;stroke-dasharray:none;stroke-opacity:1"
                   id="path2888" />
              </g>
              <g
                 id="g2890"
                 transform="matrix(1,0,0,-1,-33.459445,784.51)">
                <path
                   d="m 804.625,-439.93 c -0.301,-0.008 -8.449,-3.05 -8.391,-5.914 -2.652,-6.531 9.848,-6.039 14.774,-6.957 23.281,-2.562 59.183,-3.406 82.586,-3.953 -2.68,-0.558 10.035,-9.195 11.832,1.516 13.187,1.691 49.465,14.867 50.972,21.461 1.258,1.511 9.95,3.839 6.977,3.312"
                   style="fill:none;stroke:#000000;stroke-width:2.61674;stroke-linecap:round;stroke-linejoin:round;stroke-miterlimit:10;stroke-dasharray:none;stroke-opacity:1"
                   id="path2892" />
              </g>
              <g
                 id="g2894"
                 transform="matrix(1,0,0,-1,-33.459445,784.51)">
                <path
                   d="m 907.281,-442.691 c -1.574,0.671 -2.101,-9.602 -1.855,-12.547 -1.473,-1.727 2.461,-5.649 -0.488,-5.489"
                   style="fill:none;stroke:#000000;stroke-width:2.61674;stroke-linecap:round;stroke-linejoin:round;stroke-miterlimit:10;stroke-dasharray:none;stroke-opacity:1"
                   id="path2896" />
              </g>
              <g
                 id="g2898"
                 transform="matrix(1,0,0,-1,-33.459445,784.51)">
                <path
                   d="m 896.094,-441.586 c 1.109,-3.965 -0.961,-9.648 -2.5,-15.168 -2.68,-3.976 -2.68,-3.976 -2.68,-3.976"
                   style="fill:none;stroke:#000000;stroke-width:2.61674;stroke-linecap:round;stroke-linejoin:round;stroke-miterlimit:10;stroke-dasharray:none;stroke-opacity:1"
                   id="path2900" />
              </g>
              <g
                 id="g2902"
                 transform="matrix(1,0,0,-1,-33.459445,784.51)">
                <path
                   d="m 896.094,-441.586 c -0.215,0.211 10.265,2.645 11.187,-1.105"
                   style="fill:none;stroke:#000000;stroke-width:2.61674;stroke-linecap:round;stroke-linejoin:round;stroke-miterlimit:10;stroke-dasharray:none;stroke-opacity:1"
                   id="path2904" />
              </g>
              <g
                 id="g2906"
                 transform="matrix(1,0,0,-1,-33.459445,784.51)">
                <path
                   d="m 880.727,-460.648 c 65.64,-0.727 131.339,-0.016 196.941,-1.747 l 3.73,-0.539 3.489,-0.843"
                   style="fill:none;stroke:#000000;stroke-width:2.61674;stroke-linecap:round;stroke-linejoin:round;stroke-miterlimit:10;stroke-dasharray:none;stroke-opacity:1"
                   id="path2908" />
              </g>
              <g
                 id="g2910"
                 transform="matrix(1,0,0,-1,-33.459445,784.51)">
                <path
                   d="m 1084.504,-462.879 c 3.992,-1.547 2.613,-11.476 1.078,-15.668 -1.094,-2.047 -2.75,-5.047 -4.773,-5.707"
                   style="fill:none;stroke:#000000;stroke-width:2.61674;stroke-linecap:round;stroke-linejoin:round;stroke-miterlimit:10;stroke-dasharray:none;stroke-opacity:1"
                   id="path2912" />
              </g>
              <g
                 id="g2914"
                 transform="matrix(1,0,0,-1,-33.459445,784.51)">
                <path
                   d="m 880.727,-460.648 c 0.601,-0.032 -0.754,-12.141 -0.997,-15.551 1.399,-4.176 0.786,-3.688 0.786,-3.688"
                   style="fill:none;stroke:#000000;stroke-width:2.61674;stroke-linecap:round;stroke-linejoin:round;stroke-miterlimit:10;stroke-dasharray:none;stroke-opacity:1"
                   id="path2916" />
              </g>
              <g
                 id="g2918"
                 transform="matrix(1,0,0,-1,-33.459445,784.51)">
                <path
                   d="m 880.516,-479.887 c 30.554,-4.301 61.554,-2.476 92.304,-2.504 30.836,0.504 61.758,2.95 92.481,-1.023 5.16,-0.398 10.332,-0.719 15.508,-0.84"
                   style="fill:none;stroke:#000000;stroke-width:2.61674;stroke-linecap:round;stroke-linejoin:round;stroke-miterlimit:10;stroke-dasharray:none;stroke-opacity:1"
                   id="path2920" />
              </g>
              <g
                 id="g2922"
                 transform="matrix(1,0,0,-1,-33.459445,784.51)">
                <path
                   d="m 860.484,-484.734 c 7.621,-3.625 20.149,-6.59 30.098,-8.164 39.723,-4.336 79.852,-4.129 119.563,-7.676 4.757,1.136 9.835,0.957 14.367,2.883 -10.567,4.863 -24.082,4.828 -36.063,7.203 -1.086,-0.051 -33.359,6.672 -127.965,5.754"
                   style="fill:none;stroke:#000000;stroke-width:2.61674;stroke-linecap:round;stroke-linejoin:round;stroke-miterlimit:10;stroke-dasharray:none;stroke-opacity:1"
                   id="path2924" />
              </g>
              <g
                 id="g2926"
                 transform="matrix(1,0,0,-1,-33.459445,784.51)">
                <path
                   d="m 1000.652,-495.195 c 13.575,4.5 53.805,-13.379 26.063,-22.211 -34.383,-3.856 -69.508,-5.485 -103.449,2.75 -19.602,5.398 -40.911,5.277 -59.875,11.164 -17.903,21.344 14.722,16.887 26.472,11.492 13.34,-2.184 26.887,-2.75 40.219,-4.992"
                   style="fill:none;stroke:#000000;stroke-width:2.61674;stroke-linecap:round;stroke-linejoin:round;stroke-miterlimit:10;stroke-dasharray:none;stroke-opacity:1"
                   id="path2928" />
              </g>
              <g
                 id="g2930"
                 transform="matrix(1,0,0,-1,-33.459445,784.51)">
                <path
                   d="m 893.676,-510.23 c -1.145,1.234 -1.996,-8.52 -0.656,-7.145 -2.079,0.105 1.515,-0.547 0.257,0.898"
                   style="fill:none;stroke:#000000;stroke-width:2.61674;stroke-linecap:round;stroke-linejoin:round;stroke-miterlimit:10;stroke-dasharray:none;stroke-opacity:1"
                   id="path2932" />
              </g>
              <g
                 id="g2934"
                 transform="matrix(1,0,0,-1,-33.459445,784.51)">
                <path
                   d="m 908.41,-513.559 c 0.219,-1.648 -0.637,-3.234 -0.39,-4.882"
                   style="fill:none;stroke:#000000;stroke-width:2.61674;stroke-linecap:round;stroke-linejoin:round;stroke-miterlimit:10;stroke-dasharray:none;stroke-opacity:1"
                   id="path2936" />
              </g>
              <g
                 id="g2938"
                 transform="matrix(1,0,0,-1,-33.459445,784.51)">
                <path
                   d="m 1004.473,-565.324 c 31.129,-15.848 89.074,-30.356 83.222,-73.891 -17.941,-28.215 -56.445,-20.937 -85.168,-21.269 -33.394,1.847 -68.402,4.582 -98.754,19.437 -9.8,7.02 -18.003,19.313 -14.421,31.828"
                   style="fill:none;stroke:#000000;stroke-width:2.61674;stroke-linecap:round;stroke-linejoin:round;stroke-miterlimit:10;stroke-dasharray:none;stroke-opacity:1"
                   id="path2940" />
              </g>
              <g
                 id="g2942"
                 transform="matrix(1,0,0,-1,-33.459445,784.51)">
                <path
                   d="m 995.789,-598.621 c -0.328,-0.879 -1.152,-7.531 -1.559,-9.035 -10.328,-6.344 -27.8,-7.278 -37.433,-5.848"
                   style="fill:none;stroke:#000000;stroke-width:2.61674;stroke-linecap:round;stroke-linejoin:round;stroke-miterlimit:10;stroke-dasharray:none;stroke-opacity:1"
                   id="path2944" />
              </g>
            </g>
          </g>
        </g>
      </g>
    </g>
  </g>
</svg>
