<?xml version="1.0" encoding="UTF-8" standalone="no"?>
<!-- Created by Ashley Blewer - This work is licensed under a Creative Commons Attribution 4.0 International License -->

<svg
   width="544"
   height="480"
   viewBox="0 0 143.93334 127"
   version="1.1"
   id="svg2490"
   inkscape:version="1.2.2 (1:1.2.2+202212051552+b0a8486541)"
   sodipodi:docname="1976-omnimax-3.svg"
   xmlns:inkscape="http://www.inkscape.org/namespaces/inkscape"
   xmlns:sodipodi="http://sodipodi.sourceforge.net/DTD/sodipodi-0.dtd"
   xmlns="http://www.w3.org/2000/svg"
   xmlns:svg="http://www.w3.org/2000/svg">
  <sodipodi:namedview
     id="namedview2492"
     pagecolor="#ffffff"
     bordercolor="#666666"
     borderopacity="1.0"
     inkscape:pageshadow="2"
     inkscape:pageopacity="0.0"
     inkscape:pagecheckerboard="0"
     inkscape:document-units="mm"
     showgrid="false"
     units="px"
     inkscape:zoom="0.90583674"
     inkscape:cx="337.25724"
     inkscape:cy="255.56482"
     inkscape:window-width="1846"
     inkscape:window-height="1136"
     inkscape:window-x="0"
     inkscape:window-y="0"
     inkscape:window-maximized="1"
     inkscape:current-layer="g6395"
     inkscape:showpageshadow="2"
     inkscape:deskcolor="#d1d1d1" />
  <defs
     id="defs2487" />
  <g
     inkscape:label="Layer 1"
     inkscape:groupmode="layer"
     id="layer1">
    <g
       id="g4731"
       transform="matrix(0.32961229,0,0,0.32903008,-241.78905,1.73126)"
       style="stroke-width:2.68698">
      <g
         id="g104528"
         transform="matrix(1,0,0,-1,0,792)"
         style="stroke-width:2.68698">
        <g
           id="g104530"
           style="stroke-width:2.68698" />
      </g>
      <g
         id="g104996"
         transform="matrix(1,0,0,-1,0,792)"
         style="stroke-width:2.68698">
        <g
           id="g104998"
           style="stroke-width:2.68698" />
      </g>
      <g
         id="g28852"
         transform="matrix(1.070281,0,0,1.0721748,779.91249,-443.13657)">
        <g
           id="g6718"
           transform="matrix(1.117886,0,0,1.117886,-549.13111,-491.62865)">
          <g
             id="g6395"
             transform="matrix(0.53415107,0,0,0.53415109,441.93669,415.26868)">
            <g
               id="g7866"
               transform="matrix(3.2813964,0,0,3.2813964,-2405.2837,-2020.4155)">
              <g
                 id="g1376"
                 transform="matrix(1,0,0,-1,29.832311,699.0887)">
                <path
                   d="m 897.547,-245.16 c 3.863,1.031 8.269,-0.832 10.07,-4.445 2.395,-4.024 2.321,-8.946 1.27,-13.368 -0.985,-7.328 0.207,-14.73 -0.395,-22.082 0.031,-0.441 -0.191,1.367 -0.105,0.938"
                   style="fill:none;stroke:#000000;stroke-width:2.61674;stroke-linecap:round;stroke-linejoin:round;stroke-miterlimit:10;stroke-dasharray:none;stroke-opacity:1"
                   id="path1378" />
              </g>
              <g
                 id="g1380"
                 transform="matrix(1,0,0,-1,29.832311,699.0887)">
                <path
                   d="m 896.039,-245.953 c -0.508,-12.957 -1,-25.981 -0.164,-38.918 1.609,-6.356 10.355,-3.652 12.512,0.754"
                   style="fill:none;stroke:#000000;stroke-width:2.61674;stroke-linecap:round;stroke-linejoin:round;stroke-miterlimit:10;stroke-dasharray:none;stroke-opacity:1"
                   id="path1382" />
              </g>
              <g
                 id="g1384"
                 transform="matrix(1,0,0,-1,29.832311,699.0887)">
                <path
                   d="m 894.164,-246.637 c -4.137,7.18 -10.453,1.508 -16.922,0.246"
                   style="fill:none;stroke:#000000;stroke-width:2.61674;stroke-linecap:round;stroke-linejoin:round;stroke-miterlimit:10;stroke-dasharray:none;stroke-opacity:1"
                   id="path1386" />
              </g>
              <g
                 id="g1388"
                 transform="matrix(1,0,0,-1,29.832311,699.0887)">
                <path
                   d="m 877.242,-246.391 c -5.469,1.004 -10.972,1.825 -16.422,2.942"
                   style="fill:none;stroke:#000000;stroke-width:2.61674;stroke-linecap:round;stroke-linejoin:round;stroke-miterlimit:10;stroke-dasharray:none;stroke-opacity:1"
                   id="path1390" />
              </g>
              <g
                 id="g1392"
                 transform="matrix(1,0,0,-1,29.832311,699.0887)">
                <path
                   d="m 854.523,-237.32 c 13.883,-9.93 10.168,-31.875 -1.98,-41.637 -2.016,-2.09 -5.621,-3.234 -7.445,-4.723"
                   style="fill:none;stroke:#000000;stroke-width:2.61674;stroke-linecap:round;stroke-linejoin:round;stroke-miterlimit:10;stroke-dasharray:none;stroke-opacity:1"
                   id="path1394" />
              </g>
              <g
                 id="g1396"
                 transform="matrix(1,0,0,-1,29.832311,699.0887)">
                <path
                   d="m 854.523,-237.32 c -4.144,0.945 -10.304,2.363 -14.378,3.59"
                   style="fill:none;stroke:#000000;stroke-width:2.61674;stroke-linecap:round;stroke-linejoin:round;stroke-miterlimit:10;stroke-dasharray:none;stroke-opacity:1"
                   id="path1398" />
              </g>
              <g
                 id="g1400"
                 transform="matrix(1,0,0,-1,29.832311,699.0887)">
                <path
                   d="m 822.938,-218.27 c 5.917,-4.668 10.742,-10.605 16.96,-14.906"
                   style="fill:none;stroke:#000000;stroke-width:2.61674;stroke-linecap:round;stroke-linejoin:round;stroke-miterlimit:10;stroke-dasharray:none;stroke-opacity:1"
                   id="path1402" />
              </g>
              <g
                 id="g1404"
                 transform="matrix(1,0,0,-1,29.832311,699.0887)">
                <path
                   d="m 839.293,-234.699 c 9.547,-12.625 0.414,-33.965 -11,-43.942"
                   style="fill:none;stroke:#000000;stroke-width:2.61674;stroke-linecap:round;stroke-linejoin:round;stroke-miterlimit:10;stroke-dasharray:none;stroke-opacity:1"
                   id="path1406" />
              </g>
              <g
                 id="g1408"
                 transform="matrix(1,0,0,-1,29.832311,699.0887)">
                <path
                   d="m 845.785,-283.047 c -5.863,1.344 -11.664,2.934 -17.492,4.406"
                   style="fill:none;stroke:#000000;stroke-width:2.61674;stroke-linecap:round;stroke-linejoin:round;stroke-miterlimit:10;stroke-dasharray:none;stroke-opacity:1"
                   id="path1410" />
              </g>
              <g
                 id="g1412"
                 transform="matrix(1,0,0,-1,29.832311,699.0887)">
                <path
                   d="m 828.293,-278.641 c -4.473,-3.117 -16.434,-4.863 -21.215,-7.297"
                   style="fill:none;stroke:#000000;stroke-width:2.61674;stroke-linecap:round;stroke-linejoin:round;stroke-miterlimit:10;stroke-dasharray:none;stroke-opacity:1"
                   id="path1414" />
              </g>
              <g
                 id="g1416"
                 transform="matrix(1,0,0,-1,29.832311,699.0887)">
                <path
                   d="m 755.125,-310.895 c -13.891,1.184 -26.016,11.387 -30.137,24.618 -10.347,24.074 -11.336,52.965 1.321,76.402 6.222,13.965 15.5,27.941 30.437,33.512 12.223,5.758 28.426,6.808 38.672,-3.453 11.941,-10.118 17.07,-26.102 16.789,-41.383 1.68,-21.637 -1,-44.391 -12.699,-63.125 -5.988,-11.106 -16.133,-19.606 -28.192,-23.371 -5.867,-2.282 -7.964,-4.434 -16.191,-3.2"
                   style="fill:none;stroke:#000000;stroke-width:2.61674;stroke-linecap:round;stroke-linejoin:round;stroke-miterlimit:10;stroke-dasharray:none;stroke-opacity:1"
                   id="path1418" />
              </g>
              <g
                 id="g1420"
                 transform="matrix(1,0,0,-1,29.832311,699.0887)">
                <path
                   d="m 781.301,-172.707 c 22.668,-0.789 40.285,-22.664 40.375,-44.594 1.062,-21.789 -2.446,-44.191 -11.824,-63.953 -6.938,-9.523 -17.145,-15.996 -27.551,-21.16 l -0.449,0.18 -0.368,0.144"
                   style="fill:none;stroke:#000000;stroke-width:2.61674;stroke-linecap:round;stroke-linejoin:round;stroke-miterlimit:10;stroke-dasharray:none;stroke-opacity:1"
                   id="path1422" />
              </g>
              <g
                 id="g1424"
                 transform="matrix(1,0,0,-1,29.832311,699.0887)">
                <path
                   d="m 785.953,-218.277 c -8.969,5.058 -18.613,-2.559 -22.676,-10.414 -5.613,-9.993 -9.082,-23.848 -1.07,-33.602 3.496,-4.297 9.156,-8.387 14.832,-7.992"
                   style="fill:none;stroke:#000000;stroke-width:2.61674;stroke-linecap:round;stroke-linejoin:round;stroke-miterlimit:10;stroke-dasharray:none;stroke-opacity:1"
                   id="path1426" />
              </g>
              <g
                 id="g1428"
                 transform="matrix(1,0,0,-1,29.832311,699.0887)">
                <path
                   d="m 762.277,-206.012 c 9.453,6.418 24.696,4.36 29.934,-6.511 11.98,-14.344 10.156,-36.004 0.144,-50.887 -5.078,-9.301 -14.023,-19.961 -25.863,-17.852 -11.804,1.43 -20.594,11.688 -22.476,23.067 -2.571,14.843 2.359,30.254 9.961,42.933 4.207,6.016 0,0 8.3,9.25"
                   style="fill:none;stroke:#000000;stroke-width:2.61674;stroke-linecap:round;stroke-linejoin:round;stroke-miterlimit:10;stroke-dasharray:none;stroke-opacity:1"
                   id="path1430" />
              </g>
              <g
                 id="g1432"
                 transform="matrix(1,0,0,-1,29.832311,699.0887)">
                <path
                   d="m 806.445,-205.098 c -6.164,12.739 -15.047,27.391 -30.461,29.309 -16.461,1.586 -28.945,-11.773 -37.937,-23.809 -9.805,-13.332 -15.25,-29.843 -16.067,-46.34 1.969,-19.351 5.348,-40.96 20.743,-54.5 11.757,-8.183 28.957,-6.386 39.8,2.497 l -0.054,0.226"
                   style="fill:none;stroke:#000000;stroke-width:1.26872;stroke-linecap:round;stroke-linejoin:round;stroke-miterlimit:10;stroke-dasharray:none;stroke-opacity:1"
                   id="path1434" />
              </g>
              <g
                 id="g1436"
                 transform="matrix(1,0,0,-1,29.832311,699.0887)">
                <path
                   d="m 763.988,-304.07 c 13.262,7.097 27.457,14.179 35.91,27.218 7.364,9.579 10.907,21.868 9.188,33.872 -0.098,8.308 0.73,16.718 -0.996,24.918"
                   style="fill:none;stroke:#000000;stroke-width:1.26872;stroke-linecap:round;stroke-linejoin:round;stroke-miterlimit:10;stroke-dasharray:none;stroke-opacity:1"
                   id="path1438" />
              </g>
              <g
                 id="g1440"
                 transform="matrix(1,0,0,-1,29.832311,699.0887)">
                <path
                   d="m 785.387,-218.707 c 12.179,-4.828 14.043,-20.305 10.515,-31.391 -2.382,-9.523 -7.941,-18.875 -18.863,-20.187"
                   style="fill:none;stroke:#000000;stroke-width:1.26872;stroke-linecap:round;stroke-linejoin:round;stroke-miterlimit:10;stroke-dasharray:none;stroke-opacity:1"
                   id="path1442" />
              </g>
              <g
                 id="g1444"
                 transform="matrix(1,0,0,-1,29.832311,699.0887)">
                <path
                   d="m 779.98,-204.441 c -12.398,4.269 -24.664,-6.161 -29.222,-17.075 -6.981,-15.019 -12.27,-34.14 -2.613,-49.211 3.113,-4.332 6.71,-9.558 12.507,-10.121"
                   style="fill:none;stroke:#000000;stroke-width:1.26872;stroke-linecap:round;stroke-linejoin:round;stroke-miterlimit:10;stroke-dasharray:none;stroke-opacity:1"
                   id="path1446" />
              </g>
              <g
                 id="g1448"
                 transform="matrix(1,0,0,-1,29.832311,699.0887)">
                <path
                   d="m 825.738,-230.371 c 3.45,-1.918 6.637,-4.27 9.785,-6.637"
                   style="fill:none;stroke:#000000;stroke-width:1.26872;stroke-linecap:round;stroke-linejoin:round;stroke-miterlimit:10;stroke-dasharray:none;stroke-opacity:1"
                   id="path1450" />
              </g>
              <g
                 id="g1452"
                 transform="matrix(1,0,0,-1,29.832311,699.0887)">
                <path
                   d="m 825.77,-242.039 c 2.531,-1.535 5.242,-2.727 7.894,-4.027"
                   style="fill:none;stroke:#000000;stroke-width:1.26872;stroke-linecap:round;stroke-linejoin:round;stroke-miterlimit:10;stroke-dasharray:none;stroke-opacity:1"
                   id="path1454" />
              </g>
              <g
                 id="g1456"
                 transform="matrix(1,0,0,-1,29.832311,699.0887)">
                <path
                   d="m 824.141,-259.527 c 1.285,-0.34 2.578,-0.645 3.875,-0.918"
                   style="fill:none;stroke:#000000;stroke-width:1.26872;stroke-linecap:round;stroke-linejoin:round;stroke-miterlimit:10;stroke-dasharray:none;stroke-opacity:1"
                   id="path1458" />
              </g>
              <g
                 id="g1460"
                 transform="matrix(1,0,0,-1,29.832311,699.0887)">
                <path
                   d="m 847.227,-243.324 c 1.871,-1.141 4.132,-1.09 6.14,-1.844"
                   style="fill:none;stroke:#000000;stroke-width:1.26872;stroke-linecap:round;stroke-linejoin:round;stroke-miterlimit:10;stroke-dasharray:none;stroke-opacity:1"
                   id="path1462" />
              </g>
              <g
                 id="g1464"
                 transform="matrix(1,0,0,-1,29.832311,699.0887)">
                <path
                   d="m 848.016,-256.715 c 3.5,-0.242 7.121,-0.933 10.218,-2.652"
                   style="fill:none;stroke:#000000;stroke-width:1.26872;stroke-linecap:round;stroke-linejoin:round;stroke-miterlimit:10;stroke-dasharray:none;stroke-opacity:1"
                   id="path1466" />
              </g>
              <g
                 id="g1468"
                 transform="matrix(1,0,0,-1,29.832311,699.0887)">
                <path
                   d="m 840.297,-274.191 c 3.015,-0.575 5.812,-1.907 8.754,-2.743"
                   style="fill:none;stroke:#000000;stroke-width:1.26872;stroke-linecap:round;stroke-linejoin:round;stroke-miterlimit:10;stroke-dasharray:none;stroke-opacity:1"
                   id="path1470" />
              </g>
              <g
                 id="g1472"
                 transform="matrix(1,0,0,-1,29.832311,699.0887)">
                <path
                   d="m 855.711,-258.09 c 1.504,-6.336 -0.899,-13.598 -5.754,-17.898"
                   style="fill:none;stroke:#000000;stroke-width:1.26872;stroke-linecap:round;stroke-linejoin:round;stroke-miterlimit:10;stroke-dasharray:none;stroke-opacity:1"
                   id="path1474" />
              </g>
              <g
                 id="g1476"
                 transform="matrix(1,0,0,-1,29.832311,699.0887)">
                <path
                   d="m 895.875,-284.871 c -12.215,-0.07 -27.781,-2.391 -38.465,4.766 l -0.098,0.398 -4.769,0.75"
                   style="fill:none;stroke:#000000;stroke-width:1.26872;stroke-linecap:round;stroke-linejoin:round;stroke-miterlimit:10;stroke-dasharray:none;stroke-opacity:1"
                   id="path1478" />
              </g>
              <g
                 id="g1480"
                 transform="matrix(1,0,0,-1,29.832311,699.0887)">
                <path
                   d="m 888.512,-250.488 c -4.004,-2.129 2.961,-1.176 -0.145,-0.164"
                   style="fill:none;stroke:#000000;stroke-width:1.26872;stroke-linecap:round;stroke-linejoin:round;stroke-miterlimit:10;stroke-dasharray:none;stroke-opacity:1"
                   id="path1482" />
              </g>
              <g
                 id="g1484"
                 transform="matrix(1,0,0,-1,29.832311,699.0887)">
                <path
                   d="m 881.246,-261.773 c 3.805,3.468 11.637,3.312 9.617,-3.821"
                   style="fill:none;stroke:#000000;stroke-width:1.26872;stroke-linecap:round;stroke-linejoin:round;stroke-miterlimit:10;stroke-dasharray:none;stroke-opacity:1"
                   id="path1486" />
              </g>
            </g>
          </g>
        </g>
      </g>
    </g>
  </g>
</svg>
