<?xml version="1.0" encoding="UTF-8" standalone="no"?>
<!-- Created by Ashley Blewer - This work is licensed under a Creative Commons Attribution 4.0 International License -->

<svg
   width="544"
   height="480"
   viewBox="0 0 143.93334 127"
   version="1.1"
   id="svg2490"
   inkscape:version="1.2.2 (1:1.2.2+202212051552+b0a8486541)"
   sodipodi:docname="1977-polavision-1.svg"
   xmlns:inkscape="http://www.inkscape.org/namespaces/inkscape"
   xmlns:sodipodi="http://sodipodi.sourceforge.net/DTD/sodipodi-0.dtd"
   xmlns="http://www.w3.org/2000/svg"
   xmlns:svg="http://www.w3.org/2000/svg">
  <sodipodi:namedview
     id="namedview2492"
     pagecolor="#ffffff"
     bordercolor="#666666"
     borderopacity="1.0"
     inkscape:pageshadow="2"
     inkscape:pageopacity="0.0"
     inkscape:pagecheckerboard="0"
     inkscape:document-units="mm"
     showgrid="false"
     units="px"
     inkscape:zoom="0.90583674"
     inkscape:cx="337.25724"
     inkscape:cy="255.56482"
     inkscape:window-width="1846"
     inkscape:window-height="1136"
     inkscape:window-x="0"
     inkscape:window-y="0"
     inkscape:window-maximized="1"
     inkscape:current-layer="g6395"
     inkscape:showpageshadow="2"
     inkscape:deskcolor="#d1d1d1" />
  <defs
     id="defs2487" />
  <g
     inkscape:label="Layer 1"
     inkscape:groupmode="layer"
     id="layer1">
    <g
       id="g4731"
       transform="matrix(0.32961229,0,0,0.32903008,-241.78905,1.73126)"
       style="stroke-width:2.68698">
      <g
         id="g104528"
         transform="matrix(1,0,0,-1,0,792)"
         style="stroke-width:2.68698">
        <g
           id="g104530"
           style="stroke-width:2.68698" />
      </g>
      <g
         id="g104996"
         transform="matrix(1,0,0,-1,0,792)"
         style="stroke-width:2.68698">
        <g
           id="g104998"
           style="stroke-width:2.68698" />
      </g>
      <g
         id="g28852"
         transform="matrix(1.070281,0,0,1.0721748,779.91249,-443.13657)">
        <g
           id="g6718"
           transform="matrix(1.117886,0,0,1.117886,-549.13111,-491.62865)">
          <g
             id="g6395"
             transform="matrix(0.53415107,0,0,0.53415109,441.93669,415.26868)">
            <g
               id="g3931"
               transform="matrix(1.6747052,0,0,1.6747052,-938.50683,-614.82524)">
              <g
                 id="g1171"
                 transform="matrix(1,0,0,-1,-184.27746,743.36303)">
                <path
                   d="m 894.723,-73.457 c 8.918,2.363 20.074,5.445 28.547,5.98"
                   style="fill:none;stroke:#000000;stroke-width:2.61674;stroke-linecap:round;stroke-linejoin:round;stroke-miterlimit:10;stroke-dasharray:none;stroke-opacity:1"
                   id="path1173" />
              </g>
              <g
                 id="g1175"
                 transform="matrix(1,0,0,-1,-184.27746,743.36303)">
                <path
                   d="m 923.27,-67.477 c 18.773,-9.546 33.289,-14.847 51.031,-23.402"
                   style="fill:none;stroke:#000000;stroke-width:2.61674;stroke-linecap:round;stroke-linejoin:round;stroke-miterlimit:10;stroke-dasharray:none;stroke-opacity:1"
                   id="path1177" />
              </g>
              <g
                 id="g1179"
                 transform="matrix(1,0,0,-1,-184.27746,743.36303)">
                <path
                   d="m 974.301,-90.879 c 13.902,-4.605 27.871,-10.762 40.719,-17.777"
                   style="fill:none;stroke:#000000;stroke-width:2.61674;stroke-linecap:round;stroke-linejoin:round;stroke-miterlimit:10;stroke-dasharray:none;stroke-opacity:1"
                   id="path1181" />
              </g>
              <g
                 id="g1183"
                 transform="matrix(1,0,0,-1,-184.27746,743.36303)">
                <path
                   d="m 894.723,-73.457 c -6.082,-11.469 -2.723,-26.781 -5.766,-39.516 -3.121,-14.488 -1.242,-29.484 -4.676,-43.879 -0.738,-9.015 -7.054,-10.925 -12.804,-15.847"
                   style="fill:none;stroke:#000000;stroke-width:2.61674;stroke-linecap:round;stroke-linejoin:round;stroke-miterlimit:10;stroke-dasharray:none;stroke-opacity:1"
                   id="path1185" />
              </g>
              <g
                 id="g1187"
                 transform="matrix(1,0,0,-1,-184.27746,743.36303)">
                <path
                   d="m 881.469,-163.332 c -15.61,0.644 -28.989,-14.836 -24.274,-29.512 1.477,-6.468 7.657,-11.398 13.993,-10.57"
                   style="fill:none;stroke:#000000;stroke-width:2.61674;stroke-linecap:round;stroke-linejoin:round;stroke-miterlimit:10;stroke-dasharray:none;stroke-opacity:1"
                   id="path1189" />
              </g>
              <g
                 id="g1191"
                 transform="matrix(1,0,0,-1,-184.27746,743.36303)">
                <path
                   d="m 878.512,-167.301 c -12.621,-7.859 0.105,-27.586 -7.496,-35.199"
                   style="fill:none;stroke:#000000;stroke-width:2.61674;stroke-linecap:round;stroke-linejoin:round;stroke-miterlimit:10;stroke-dasharray:none;stroke-opacity:1"
                   id="path1193" />
              </g>
              <g
                 id="g1195"
                 transform="matrix(1,0,0,-1,-184.27746,743.36303)">
                <path
                   d="m 868.422,-172.578 c 10.57,-8.055 -10.414,-10.68 -2.531,-2.582 0.808,0.086 1.757,4.816 2.531,2.582"
                   style="fill:none;stroke:#000000;stroke-width:2.61674;stroke-linecap:round;stroke-linejoin:round;stroke-miterlimit:10;stroke-dasharray:none;stroke-opacity:1"
                   id="path1197" />
              </g>
              <g
                 id="g1199"
                 transform="matrix(1,0,0,-1,-184.27746,743.36303)">
                <path
                   d="m 859.52,-197.672 c 2.019,-3.89 7.613,-12.234 12.281,-13.273"
                   style="fill:none;stroke:#000000;stroke-width:2.61674;stroke-linecap:round;stroke-linejoin:round;stroke-miterlimit:10;stroke-dasharray:none;stroke-opacity:1"
                   id="path1201" />
              </g>
              <g
                 id="g1203"
                 transform="matrix(1,0,0,-1,-184.27746,743.36303)">
                <path
                   d="m 872.801,-211.043 c 1.176,-3.344 4.133,-4.891 7.379,-5.523"
                   style="fill:none;stroke:#000000;stroke-width:2.61674;stroke-linecap:round;stroke-linejoin:round;stroke-miterlimit:10;stroke-dasharray:none;stroke-opacity:1"
                   id="path1205" />
              </g>
              <g
                 id="g1207"
                 transform="matrix(1,0,0,-1,-184.27746,743.36303)">
                <path
                   d="m 880.492,-216.379 c 0.52,-2.242 1.86,-4.129 3.289,-5.867"
                   style="fill:none;stroke:#000000;stroke-width:2.61674;stroke-linecap:round;stroke-linejoin:round;stroke-miterlimit:10;stroke-dasharray:none;stroke-opacity:1"
                   id="path1209" />
              </g>
              <g
                 id="g1211"
                 transform="matrix(1,0,0,-1,-184.27746,743.36303)">
                <path
                   d="m 883.781,-222.246 c -0.75,-8.867 3.301,-27.262 4.184,-34.621"
                   style="fill:none;stroke:#000000;stroke-width:2.61674;stroke-linecap:round;stroke-linejoin:round;stroke-miterlimit:10;stroke-dasharray:none;stroke-opacity:1"
                   id="path1213" />
              </g>
              <g
                 id="g1215"
                 transform="matrix(1,0,0,-1,-184.27746,743.36303)">
                <path
                   d="m 887.965,-256.867 c 15.058,-22.02 34.242,-40.629 53.473,-58.949 4.531,-4.262 9.957,-12.45 14.957,-15.403"
                   style="fill:none;stroke:#000000;stroke-width:2.61674;stroke-linecap:round;stroke-linejoin:round;stroke-miterlimit:10;stroke-dasharray:none;stroke-opacity:1"
                   id="path1217" />
              </g>
              <g
                 id="g1219"
                 transform="matrix(1,0,0,-1,-184.27746,743.36303)">
                <path
                   d="m 887.965,-256.867 c 17.078,-11.367 38.601,-20.406 54.66,-33.461"
                   style="fill:none;stroke:#000000;stroke-width:2.61674;stroke-linecap:round;stroke-linejoin:round;stroke-miterlimit:10;stroke-dasharray:none;stroke-opacity:1"
                   id="path1221" />
              </g>
              <g
                 id="g1223"
                 transform="matrix(1,0,0,-1,-184.27746,743.36303)">
                <path
                   d="m 943.91,-290.473 c 5.184,-15.609 8.75,-31.789 14.848,-47.031 5.172,-17.519 14.5,-56.008 14.5,-56.008 0,0 0.476,-10.058 4.156,-11.863"
                   style="fill:none;stroke:#000000;stroke-width:2.61674;stroke-linecap:round;stroke-linejoin:round;stroke-miterlimit:10;stroke-dasharray:none;stroke-opacity:1"
                   id="path1225" />
              </g>
              <g
                 id="g1227"
                 transform="matrix(1,0,0,-1,-184.27746,743.36303)">
                <path
                   d="m 977.414,-405.375 c 14.219,-9.004 32.82,-6.059 48.438,-4.645 9.304,1.711 15.148,0.836 22.043,6.997"
                   style="fill:none;stroke:#000000;stroke-width:2.61674;stroke-linecap:round;stroke-linejoin:round;stroke-miterlimit:10;stroke-dasharray:none;stroke-opacity:1"
                   id="path1229" />
              </g>
              <g
                 id="g1231"
                 transform="matrix(1,0,0,-1,-184.27746,743.36303)">
                <path
                   d="m 1047.895,-403.023 c -1.805,13.73 -8.125,26.644 -11.028,40.273 -5.789,17.777 -9.402,36.273 -13.305,54.469 -0.308,1.406 0.274,3.867 0.118,4.969"
                   style="fill:none;stroke:#000000;stroke-width:2.61674;stroke-linecap:round;stroke-linejoin:round;stroke-miterlimit:10;stroke-dasharray:none;stroke-opacity:1"
                   id="path1233" />
              </g>
              <g
                 id="g1235"
                 transform="matrix(1,0,0,-1,-184.27746,743.36303)">
                <path
                   d="m 1023.875,-302.008 c -6.566,6.278 -10.367,16.008 -8.82,24.457"
                   style="fill:none;stroke:#000000;stroke-width:2.61674;stroke-linecap:round;stroke-linejoin:round;stroke-miterlimit:10;stroke-dasharray:none;stroke-opacity:1"
                   id="path1237" />
              </g>
              <g
                 id="g1239"
                 transform="matrix(1,0,0,-1,-184.27746,743.36303)">
                <path
                   d="m 975.316,-254.312 c 15.973,-5.817 29.672,-22.165 44.094,-24.805"
                   style="fill:none;stroke:#000000;stroke-width:2.61674;stroke-linecap:round;stroke-linejoin:round;stroke-miterlimit:10;stroke-dasharray:none;stroke-opacity:1"
                   id="path1241" />
              </g>
              <g
                 id="g1243"
                 transform="matrix(1,0,0,-1,-184.27746,743.36303)">
                <path
                   d="m 1018.777,-278.555 c 17.934,-5.84 31.856,9.875 37.032,25.262 l -0.219,0.047 2.441,3.562"
                   style="fill:none;stroke:#000000;stroke-width:2.61674;stroke-linecap:round;stroke-linejoin:round;stroke-miterlimit:10;stroke-dasharray:none;stroke-opacity:1"
                   id="path1245" />
              </g>
              <g
                 id="g1247"
                 transform="matrix(1,0,0,-1,-184.27746,743.36303)">
                <path
                   d="m 1058.031,-249.684 c 5.739,-3.632 10.418,6.688 2.348,6.668"
                   style="fill:none;stroke:#000000;stroke-width:2.61674;stroke-linecap:round;stroke-linejoin:round;stroke-miterlimit:10;stroke-dasharray:none;stroke-opacity:1"
                   id="path1249" />
              </g>
              <g
                 id="g1251"
                 transform="matrix(1,0,0,-1,-184.27746,743.36303)">
                <path
                   d="m 1059.426,-242.25 c 3.429,13.902 -8.422,29.859 -23.262,27.949 -15.523,2.621 -27.258,-11.457 -31.762,-24.773 -3.675,-13.184 0.188,-29.735 12.196,-37.422 l 2.343,-2.215"
                   style="fill:none;stroke:#000000;stroke-width:2.61674;stroke-linecap:round;stroke-linejoin:round;stroke-miterlimit:10;stroke-dasharray:none;stroke-opacity:1"
                   id="path1253" />
              </g>
              <g
                 id="g1255"
                 transform="matrix(1,0,0,-1,-184.27746,743.36303)">
                <path
                   d="m 1045.434,-216.109 c -7.985,4.418 -18.204,10.613 -26.227,14.671"
                   style="fill:none;stroke:#000000;stroke-width:2.61674;stroke-linecap:round;stroke-linejoin:round;stroke-miterlimit:10;stroke-dasharray:none;stroke-opacity:1"
                   id="path1257" />
              </g>
              <g
                 id="g1259"
                 transform="matrix(1,0,0,-1,-184.27746,743.36303)">
                <path
                   d="m 1019.207,-201.438 c -13.602,4.868 -28.164,-3.953 -35.687,-14.988"
                   style="fill:none;stroke:#000000;stroke-width:2.61674;stroke-linecap:round;stroke-linejoin:round;stroke-miterlimit:10;stroke-dasharray:none;stroke-opacity:1"
                   id="path1261" />
              </g>
              <g
                 id="g1263"
                 transform="matrix(1,0,0,-1,-184.27746,743.36303)">
                <path
                   d="m 977.488,-213.91 c 2.594,-1.801 8.539,-3.117 -0.383,-0.383 -3.156,0.871 -5.921,2.836 -9.273,3.09"
                   style="fill:none;stroke:#000000;stroke-width:2.61674;stroke-linecap:round;stroke-linejoin:round;stroke-miterlimit:10;stroke-dasharray:none;stroke-opacity:1"
                   id="path1265" />
              </g>
              <g
                 id="g1267"
                 transform="matrix(1,0,0,-1,-184.27746,743.36303)">
                <path
                   d="m 976.375,-215.504 c -9.563,-8.777 -7.703,-24.305 -2.539,-34.93 1.258,-1.07 3.516,-5.234 4.602,-5.234"
                   style="fill:none;stroke:#000000;stroke-width:2.61674;stroke-linecap:round;stroke-linejoin:round;stroke-miterlimit:10;stroke-dasharray:none;stroke-opacity:1"
                   id="path1269" />
              </g>
              <g
                 id="g1271"
                 transform="matrix(1,0,0,-1,-184.27746,743.36303)">
                <path
                   d="m 975.316,-254.312 c -0.972,-11.122 20.348,-20.43 27.731,-16.891"
                   style="fill:none;stroke:#000000;stroke-width:2.61674;stroke-linecap:round;stroke-linejoin:round;stroke-miterlimit:10;stroke-dasharray:none;stroke-opacity:1"
                   id="path1273" />
              </g>
              <g
                 id="g1275"
                 transform="matrix(1,0,0,-1,-184.27746,743.36303)">
                <path
                   d="m 980.047,-264.07 c -10.395,-6.961 -24.34,-14.614 -33.703,-22.981 -0.821,-1.109 -2.149,-1.98 -2.434,-3.422"
                   style="fill:none;stroke:#000000;stroke-width:2.61674;stroke-linecap:round;stroke-linejoin:round;stroke-miterlimit:10;stroke-dasharray:none;stroke-opacity:1"
                   id="path1277" />
              </g>
              <g
                 id="g1279"
                 transform="matrix(1,0,0,-1,-184.27746,743.36303)">
                <path
                   d="m 966.328,-252.629 c 4.297,-15.961 -14.707,-21.012 -23.199,-30.988 -1.828,-1.36 -4.223,-3.106 -4.356,-3.684"
                   style="fill:none;stroke:#000000;stroke-width:2.61674;stroke-linecap:round;stroke-linejoin:round;stroke-miterlimit:10;stroke-dasharray:none;stroke-opacity:1"
                   id="path1281" />
              </g>
              <g
                 id="g1283"
                 transform="matrix(1,0,0,-1,-184.27746,743.36303)">
                <path
                   d="m 967.832,-211.203 c 1.371,24.066 2.711,46.723 3.934,70.801 1.007,8.261 4.136,19.922 6.746,26.75"
                   style="fill:none;stroke:#000000;stroke-width:2.61674;stroke-linecap:round;stroke-linejoin:round;stroke-miterlimit:10;stroke-dasharray:none;stroke-opacity:1"
                   id="path1285" />
              </g>
              <g
                 id="g1287"
                 transform="matrix(1,0,0,-1,-184.27746,743.36303)">
                <path
                   d="m 981.148,-214.914 c 0.079,25.488 -1.66,50.961 -1.253,76.426 -0.079,8.156 -1.774,17.73 -1.383,24.836"
                   style="fill:none;stroke:#000000;stroke-width:2.61674;stroke-linecap:round;stroke-linejoin:round;stroke-miterlimit:10;stroke-dasharray:none;stroke-opacity:1"
                   id="path1289" />
              </g>
              <g
                 id="g1291"
                 transform="matrix(1,0,0,-1,-184.27746,743.36303)">
                <path
                   d="m 978.512,-113.652 c 13.293,4.75 21.676,7.062 34.234,5.906"
                   style="fill:none;stroke:#000000;stroke-width:2.61674;stroke-linecap:round;stroke-linejoin:round;stroke-miterlimit:10;stroke-dasharray:none;stroke-opacity:1"
                   id="path1293" />
              </g>
              <g
                 id="g1295"
                 transform="matrix(1,0,0,-1,-184.27746,743.36303)">
                <path
                   d="m 1015.02,-108.656 c 3.011,-14.344 5.187,-31.664 8.511,-45.996 2.352,-17.606 5.285,-36.793 8.789,-54.121"
                   style="fill:none;stroke:#000000;stroke-width:2.61674;stroke-linecap:round;stroke-linejoin:round;stroke-miterlimit:10;stroke-dasharray:none;stroke-opacity:1"
                   id="path1297" />
              </g>
              <g
                 id="g1299"
                 transform="matrix(1,0,0,-1,-184.27746,743.36303)">
                <path
                   d="m 1018.098,-164.141 c 12.66,-10.339 4.535,-36.004 -12.086,-36.113 -16.567,2.566 -16.539,25.082 -3.547,32.281 3.094,1.903 14.074,8.532 15.496,2.934"
                   style="fill:none;stroke:#000000;stroke-width:2.61674;stroke-linecap:round;stroke-linejoin:round;stroke-miterlimit:10;stroke-dasharray:none;stroke-opacity:1"
                   id="path1301" />
              </g>
              <g
                 id="g1303"
                 transform="matrix(1,0,0,-1,-184.27746,743.36303)">
                <path
                   d="m 1023.359,-165.965 c -4.144,4.012 -8.953,7.371 -14.168,9.805"
                   style="fill:none;stroke:#000000;stroke-width:2.61674;stroke-linecap:round;stroke-linejoin:round;stroke-miterlimit:10;stroke-dasharray:none;stroke-opacity:1"
                   id="path1305" />
              </g>
              <g
                 id="g1307"
                 transform="matrix(1,0,0,-1,-184.27746,743.36303)">
                <path
                   d="m 1008.215,-156.18 c -16.988,4.211 -24.715,-18.632 -20.793,-31.996 1.437,-3.586 4.332,-7.508 8.254,-8.469"
                   style="fill:none;stroke:#000000;stroke-width:2.61674;stroke-linecap:round;stroke-linejoin:round;stroke-miterlimit:10;stroke-dasharray:none;stroke-opacity:1"
                   id="path1309" />
              </g>
              <g
                 id="g1311"
                 transform="matrix(1,0,0,-1,-184.27746,743.36303)">
                <path
                   d="m 904.555,-76.281 c 21.074,-7.059 39.269,-20.18 60.117,-27.824 0.711,-0.653 8.957,-3.981 7.105,-3.848"
                   style="fill:none;stroke:#000000;stroke-width:1.26872;stroke-linecap:round;stroke-linejoin:round;stroke-miterlimit:10;stroke-dasharray:none;stroke-opacity:1"
                   id="path1313" />
              </g>
              <g
                 id="g1315"
                 transform="matrix(1,0,0,-1,-184.27746,743.36303)">
                <path
                   d="m 911.539,-71.98 c 23.188,-10.684 44.359,-25.61 68.473,-34.254 -1.879,0.343 5.863,-2.735 2.25,-1.887"
                   style="fill:none;stroke:#000000;stroke-width:1.26872;stroke-linecap:round;stroke-linejoin:round;stroke-miterlimit:10;stroke-dasharray:none;stroke-opacity:1"
                   id="path1317" />
              </g>
              <g
                 id="g1319"
                 transform="matrix(1,0,0,-1,-184.27746,743.36303)">
                <path
                   d="m 922.352,-69.293 c 15.652,-5.32 29.128,-15.668 44.964,-20.766 8.649,-4.793 27.5,-12.003 30.512,-15.363"
                   style="fill:none;stroke:#000000;stroke-width:1.26872;stroke-linecap:round;stroke-linejoin:round;stroke-miterlimit:10;stroke-dasharray:none;stroke-opacity:1"
                   id="path1321" />
              </g>
              <g
                 id="g1323"
                 transform="matrix(1,0,0,-1,-184.27746,743.36303)">
                <path
                   d="m 979.012,-100.512 c -2.114,-6.629 12.238,-0.328 -0.184,0.219"
                   style="fill:none;stroke:#000000;stroke-width:1.26872;stroke-linecap:round;stroke-linejoin:round;stroke-miterlimit:10;stroke-dasharray:none;stroke-opacity:1"
                   id="path1325" />
              </g>
              <g
                 id="g1327"
                 transform="matrix(1,0,0,-1,-184.27746,743.36303)">
                <path
                   d="m 972.305,-95.402 -0.442,0.285"
                   style="fill:none;stroke:#000000;stroke-width:1.26872;stroke-linecap:round;stroke-linejoin:round;stroke-miterlimit:10;stroke-dasharray:none;stroke-opacity:1"
                   id="path1329" />
              </g>
              <g
                 id="g1331"
                 transform="matrix(1,0,0,-1,-184.27746,743.36303)">
                <path
                   d="m 967.043,-95.668 c -0.168,-0.191 -0.625,-0.508 -0.691,-0.473"
                   style="fill:none;stroke:#000000;stroke-width:1.26872;stroke-linecap:round;stroke-linejoin:round;stroke-miterlimit:10;stroke-dasharray:none;stroke-opacity:1"
                   id="path1333" />
              </g>
              <g
                 id="g1335"
                 transform="matrix(1,0,0,-1,-184.27746,743.36303)">
                <path
                   d="m 988.254,-130.383 c 7.519,1.594 15.391,2.215 23.086,2.953"
                   style="fill:none;stroke:#000000;stroke-width:1.26872;stroke-linecap:round;stroke-linejoin:round;stroke-miterlimit:10;stroke-dasharray:none;stroke-opacity:1"
                   id="path1337" />
              </g>
              <g
                 id="g1339"
                 transform="matrix(1,0,0,-1,-184.27746,743.36303)">
                <path
                   d="m 990.922,-136.961 c 7.633,6.902 25.308,-2.191 10.461,-7.355 -4.746,-2.039 -13.547,1.496 -9.645,6.957"
                   style="fill:none;stroke:#000000;stroke-width:1.26872;stroke-linecap:round;stroke-linejoin:round;stroke-miterlimit:10;stroke-dasharray:none;stroke-opacity:1"
                   id="path1341" />
              </g>
              <g
                 id="g1343"
                 transform="matrix(1,0,0,-1,-184.27746,743.36303)">
                <path
                   d="m 1015.262,-165.84 c 10.304,-10.906 0.25,-31.965 -14.446,-28.726 l 0.164,1.187"
                   style="fill:none;stroke:#000000;stroke-width:1.26872;stroke-linecap:round;stroke-linejoin:round;stroke-miterlimit:10;stroke-dasharray:none;stroke-opacity:1"
                   id="path1345" />
              </g>
              <g
                 id="g1347"
                 transform="matrix(1,0,0,-1,-184.27746,743.36303)">
                <path
                   d="m 1012.984,-182.785 c 6.2,-3.055 -10.234,-11.613 -11.879,-8.406"
                   style="fill:none;stroke:#000000;stroke-width:1.26872;stroke-linecap:round;stroke-linejoin:round;stroke-miterlimit:10;stroke-dasharray:none;stroke-opacity:1"
                   id="path1349" />
              </g>
              <g
                 id="g1351"
                 transform="matrix(1,0,0,-1,-184.27746,743.36303)">
                <path
                   d="m 1008.5,-184.02 c -0.711,-3.085 -6.613,-6.656 -9.051,-4.46"
                   style="fill:none;stroke:#000000;stroke-width:1.26872;stroke-linecap:round;stroke-linejoin:round;stroke-miterlimit:10;stroke-dasharray:none;stroke-opacity:1"
                   id="path1353" />
              </g>
              <g
                 id="g1355"
                 transform="matrix(1,0,0,-1,-184.27746,743.36303)">
                <path
                   d="m 1005.809,-183.418 c -1.329,-2.051 -5.844,-5.195 -7.989,-2.785"
                   style="fill:none;stroke:#000000;stroke-width:1.26872;stroke-linecap:round;stroke-linejoin:round;stroke-miterlimit:10;stroke-dasharray:none;stroke-opacity:1"
                   id="path1357" />
              </g>
              <g
                 id="g1359"
                 transform="matrix(1,0,0,-1,-184.27746,743.36303)">
                <path
                   d="m 1004.434,-183.934 c -1.223,-1.589 -3.907,-2.015 -5.481,-0.707"
                   style="fill:none;stroke:#000000;stroke-width:1.26872;stroke-linecap:round;stroke-linejoin:round;stroke-miterlimit:10;stroke-dasharray:none;stroke-opacity:1"
                   id="path1361" />
              </g>
              <g
                 id="g1363"
                 transform="matrix(1,0,0,-1,-184.27746,743.36303)">
                <path
                   d="m 998.395,-205.273 c -11.532,-6.188 -17.196,-20.204 -18.856,-32.707 -0.18,-6.282 0.176,-16.618 5.031,-20.493"
                   style="fill:none;stroke:#000000;stroke-width:1.26872;stroke-linecap:round;stroke-linejoin:round;stroke-miterlimit:10;stroke-dasharray:none;stroke-opacity:1"
                   id="path1365" />
              </g>
              <g
                 id="g1367"
                 transform="matrix(1,0,0,-1,-184.27746,743.36303)">
                <path
                   d="m 980.16,-250.645 c -2.004,0.731 -3.996,1.797 -5.351,3.493"
                   style="fill:none;stroke:#000000;stroke-width:1.26872;stroke-linecap:round;stroke-linejoin:round;stroke-miterlimit:10;stroke-dasharray:none;stroke-opacity:1"
                   id="path1369" />
              </g>
              <g
                 id="g1371"
                 transform="matrix(1,0,0,-1,-184.27746,743.36303)">
                <path
                   d="m 978.953,-245.105 c -1.734,-0.137 -2.793,1.578 -4.141,2.277"
                   style="fill:none;stroke:#000000;stroke-width:1.26872;stroke-linecap:round;stroke-linejoin:round;stroke-miterlimit:10;stroke-dasharray:none;stroke-opacity:1"
                   id="path1373" />
              </g>
              <g
                 id="g1375"
                 transform="matrix(1,0,0,-1,-184.27746,743.36303)">
                <path
                   d="m 977.836,-238.609 c -1.527,-0.09 -2.484,1.468 -3.461,2.308"
                   style="fill:none;stroke:#000000;stroke-width:1.26872;stroke-linecap:round;stroke-linejoin:round;stroke-miterlimit:10;stroke-dasharray:none;stroke-opacity:1"
                   id="path1377" />
              </g>
              <g
                 id="g1379"
                 transform="matrix(1,0,0,-1,-184.27746,743.36303)">
                <path
                   d="m 977.949,-231.449 c -1.129,-0.434 -1.926,1.086 -2.535,1.629"
                   style="fill:none;stroke:#000000;stroke-width:1.26872;stroke-linecap:round;stroke-linejoin:round;stroke-miterlimit:10;stroke-dasharray:none;stroke-opacity:1"
                   id="path1381" />
              </g>
              <g
                 id="g1383"
                 transform="matrix(1,0,0,-1,-184.27746,743.36303)">
                <path
                   d="m 980.027,-225.488 c -0.437,0.14 -2.199,1.097 -2.64,1.433"
                   style="fill:none;stroke:#000000;stroke-width:1.26872;stroke-linecap:round;stroke-linejoin:round;stroke-miterlimit:10;stroke-dasharray:none;stroke-opacity:1"
                   id="path1385" />
              </g>
              <g
                 id="g1387"
                 transform="matrix(1,0,0,-1,-184.27746,743.36303)">
                <path
                   d="m 982.129,-221.906 c -1.02,-0.762 -1.789,0.965 -2.586,1.105"
                   style="fill:none;stroke:#000000;stroke-width:1.26872;stroke-linecap:round;stroke-linejoin:round;stroke-miterlimit:10;stroke-dasharray:none;stroke-opacity:1"
                   id="path1389" />
              </g>
              <g
                 id="g1391"
                 transform="matrix(1,0,0,-1,-184.27746,743.36303)">
                <path
                   d="m 1025.391,-218.223 c -0.133,0.039 -0.871,-0.113 -1.106,-0.226"
                   style="fill:none;stroke:#000000;stroke-width:1.26872;stroke-linecap:round;stroke-linejoin:round;stroke-miterlimit:10;stroke-dasharray:none;stroke-opacity:1"
                   id="path1393" />
              </g>
              <g
                 id="g1395"
                 transform="matrix(1,0,0,-1,-184.27746,743.36303)">
                <path
                   d="m 1026.078,-220.262 c -6.101,-0.91 -11.676,-7.508 -13.851,-12.347"
                   style="fill:none;stroke:#000000;stroke-width:1.26872;stroke-linecap:round;stroke-linejoin:round;stroke-miterlimit:10;stroke-dasharray:none;stroke-opacity:1"
                   id="path1397" />
              </g>
              <g
                 id="g1399"
                 transform="matrix(1,0,0,-1,-184.27746,743.36303)">
                <path
                   d="m 1018.664,-235.805 c -11.59,-10.879 -3.457,-37.047 14.07,-33.898 17.11,2.004 24.25,25.476 15.305,38.652 -6.867,4.836 -16.269,7.899 -24.039,3.699"
                   style="fill:none;stroke:#000000;stroke-width:1.26872;stroke-linecap:round;stroke-linejoin:round;stroke-miterlimit:10;stroke-dasharray:none;stroke-opacity:1"
                   id="path1401" />
              </g>
              <g
                 id="g1403"
                 transform="matrix(1,0,0,-1,-184.27746,743.36303)">
                <path
                   d="m 1027.965,-230.98 c 15.172,4.496 20.453,-20.758 10.254,-28.793 -10.059,-13.032 -30.133,4.027 -20.207,16.933 2.058,6.684 8.386,17.762 14.422,17.656"
                   style="fill:none;stroke:#000000;stroke-width:1.26872;stroke-linecap:round;stroke-linejoin:round;stroke-miterlimit:10;stroke-dasharray:none;stroke-opacity:1"
                   id="path1405" />
              </g>
              <g
                 id="g1407"
                 transform="matrix(1,0,0,-1,-184.27746,743.36303)">
                <path
                   d="m 1023.68,-234.52 c -6.438,-0.972 1.523,-6.023 -1.391,-2.41"
                   style="fill:none;stroke:#000000;stroke-width:1.26872;stroke-linecap:round;stroke-linejoin:round;stroke-miterlimit:10;stroke-dasharray:none;stroke-opacity:1"
                   id="path1409" />
              </g>
              <g
                 id="g1411"
                 transform="matrix(1,0,0,-1,-184.27746,743.36303)">
                <path
                   d="m 1017.57,-245.023 c -2.039,-5.516 5.016,-4.915 -0.914,-0.75"
                   style="fill:none;stroke:#000000;stroke-width:1.26872;stroke-linecap:round;stroke-linejoin:round;stroke-miterlimit:10;stroke-dasharray:none;stroke-opacity:1"
                   id="path1413" />
              </g>
              <g
                 id="g1415"
                 transform="matrix(1,0,0,-1,-184.27746,743.36303)">
                <path
                   d="m 993.527,-278.301 c -0.273,-6.086 -0.097,-15.062 5.164,-18"
                   style="fill:none;stroke:#000000;stroke-width:1.26872;stroke-linecap:round;stroke-linejoin:round;stroke-miterlimit:10;stroke-dasharray:none;stroke-opacity:1"
                   id="path1417" />
              </g>
              <g
                 id="g1419"
                 transform="matrix(1,0,0,-1,-184.27746,743.36303)">
                <path
                   d="m 999.566,-296.102 c 6.141,3.352 14.95,-1.32 7.829,8.094 -1.583,3.555 -0.282,7.391 -0.301,10.887"
                   style="fill:none;stroke:#000000;stroke-width:1.26872;stroke-linecap:round;stroke-linejoin:round;stroke-miterlimit:10;stroke-dasharray:none;stroke-opacity:1"
                   id="path1421" />
              </g>
              <g
                 id="g1423"
                 transform="matrix(1,0,0,-1,-184.27746,743.36303)">
                <path
                   d="m 970.207,-273.371 c 12.004,-2.734 24.609,-4.281 36.707,-3.441"
                   style="fill:none;stroke:#000000;stroke-width:1.26872;stroke-linecap:round;stroke-linejoin:round;stroke-miterlimit:10;stroke-dasharray:none;stroke-opacity:1"
                   id="path1425" />
              </g>
              <g
                 id="g1427"
                 transform="matrix(1,0,0,-1,-184.27746,743.36303)">
                <path
                   d="m 979.203,-303.773 c 11.356,0.675 22.641,3.769 33.649,5.414"
                   style="fill:none;stroke:#000000;stroke-width:1.26872;stroke-linecap:round;stroke-linejoin:round;stroke-miterlimit:10;stroke-dasharray:none;stroke-opacity:1"
                   id="path1429" />
              </g>
              <g
                 id="g1431"
                 transform="matrix(1,0,0,-1,-184.27746,743.36303)">
                <path
                   d="m 1021.383,-303.91 c -14.02,-3.063 -28.246,-6.332 -41.395,-12.117 l 0.469,-0.02"
                   style="fill:none;stroke:#000000;stroke-width:1.26872;stroke-linecap:round;stroke-linejoin:round;stroke-miterlimit:10;stroke-dasharray:none;stroke-opacity:1"
                   id="path1433" />
              </g>
              <g
                 id="g1435"
                 transform="matrix(1,0,0,-1,-184.27746,743.36303)">
                <path
                   d="m 979.527,-323.5 c 2.645,-15.555 8.379,-30.352 10.004,-46.082 1.231,-11.715 2.821,-23.387 6.832,-34.551"
                   style="fill:none;stroke:#000000;stroke-width:1.26872;stroke-linecap:round;stroke-linejoin:round;stroke-miterlimit:10;stroke-dasharray:none;stroke-opacity:1"
                   id="path1437" />
              </g>
              <g
                 id="g1439"
                 transform="matrix(1,0,0,-1,-184.27746,743.36303)">
                <path
                   d="m 1031.746,-375.535 c -10.859,-0.656 -23.394,-4.793 -32.004,-8.078"
                   style="fill:none;stroke:#000000;stroke-width:1.26872;stroke-linecap:round;stroke-linejoin:round;stroke-miterlimit:10;stroke-dasharray:none;stroke-opacity:1"
                   id="path1441" />
              </g>
              <g
                 id="g1443"
                 transform="matrix(1,0,0,-1,-184.27746,743.36303)">
                <path
                   d="m 1023.5,-338.895 c -10.223,-0.054 -20.695,-5.511 -29.816,-6.57"
                   style="fill:none;stroke:#000000;stroke-width:1.26872;stroke-linecap:round;stroke-linejoin:round;stroke-miterlimit:10;stroke-dasharray:none;stroke-opacity:1"
                   id="path1445" />
              </g>
              <g
                 id="g1447"
                 transform="matrix(1,0,0,-1,-184.27746,743.36303)">
                <path
                   d="m 883.918,-192.48 c 17.687,-6.051 35.367,-12.571 50.426,-23.946"
                   style="fill:none;stroke:#000000;stroke-width:1.26872;stroke-linecap:round;stroke-linejoin:round;stroke-miterlimit:10;stroke-dasharray:none;stroke-opacity:1"
                   id="path1449" />
              </g>
              <g
                 id="g1451"
                 transform="matrix(1,0,0,-1,-184.27746,743.36303)">
                <path
                   d="m 883.586,-173.113 c 23.226,-10.731 46.484,-21.645 68.258,-35.012"
                   style="fill:none;stroke:#000000;stroke-width:1.26872;stroke-linecap:round;stroke-linejoin:round;stroke-miterlimit:10;stroke-dasharray:none;stroke-opacity:1"
                   id="path1453" />
              </g>
              <g
                 id="g1455"
                 transform="matrix(1,0,0,-1,-184.27746,743.36303)">
                <path
                   d="m 879.145,-181.379 c 21.199,-12.008 44.437,-20.117 65.441,-32.531 l -0.602,-0.051"
                   style="fill:none;stroke:#000000;stroke-width:1.26872;stroke-linecap:round;stroke-linejoin:round;stroke-miterlimit:10;stroke-dasharray:none;stroke-opacity:1"
                   id="path1457" />
              </g>
              <g
                 id="g1459"
                 transform="matrix(1,0,0,-1,-184.27746,743.36303)">
                <path
                   d="m 967.355,-207.477 c -9.179,-6.824 -23.035,-7.242 -17.746,-22.429 -1.171,-9.321 -2.593,-16.168 8.871,-17.684 1.985,-1.383 5.536,-4.34 7.848,-5.039"
                   style="fill:none;stroke:#000000;stroke-width:1.26872;stroke-linecap:round;stroke-linejoin:round;stroke-miterlimit:10;stroke-dasharray:none;stroke-opacity:1"
                   id="path1461" />
              </g>
              <g
                 id="g1463"
                 transform="matrix(1,0,0,-1,-184.27746,743.36303)">
                <path
                   d="m 877.574,-205.621 c 24.184,-10.582 49.754,-19.07 71.891,-33.953 l -4.246,2.117"
                   style="fill:none;stroke:#000000;stroke-width:1.26872;stroke-linecap:round;stroke-linejoin:round;stroke-miterlimit:10;stroke-dasharray:none;stroke-opacity:1"
                   id="path1465" />
              </g>
              <g
                 id="g1467"
                 transform="matrix(1,0,0,-1,-184.27746,743.36303)">
                <path
                   d="m 889.637,-221.551 c 18.008,-6.265 35.191,-14.738 52.82,-21.992 7.098,-3.574 17.074,-10.574 20.398,-15.258"
                   style="fill:none;stroke:#000000;stroke-width:1.26872;stroke-linecap:round;stroke-linejoin:round;stroke-miterlimit:10;stroke-dasharray:none;stroke-opacity:1"
                   id="path1469" />
              </g>
              <g
                 id="g1471"
                 transform="matrix(1,0,0,-1,-184.27746,743.36303)">
                <path
                   d="m 900.461,-235.461 c 2.07,-7.543 -0.402,-17.922 -0.824,-24.066"
                   style="fill:none;stroke:#000000;stroke-width:1.26872;stroke-linecap:round;stroke-linejoin:round;stroke-miterlimit:10;stroke-dasharray:none;stroke-opacity:1"
                   id="path1473" />
              </g>
              <g
                 id="g1475"
                 transform="matrix(1,0,0,-1,-184.27746,743.36303)">
                <path
                   d="m 894.176,-166.668 c 2.39,1.461 -0.102,6.785 2.754,8.262"
                   style="fill:none;stroke:#000000;stroke-width:1.26872;stroke-linecap:round;stroke-linejoin:round;stroke-miterlimit:10;stroke-dasharray:none;stroke-opacity:1"
                   id="path1477" />
              </g>
              <g
                 id="g1479"
                 transform="matrix(1,0,0,-1,-184.27746,743.36303)">
                <path
                   d="m 897.223,-158.207 c 2.754,-0.746 7.695,-1.727 8.769,-4.488"
                   style="fill:none;stroke:#000000;stroke-width:1.26872;stroke-linecap:round;stroke-linejoin:round;stroke-miterlimit:10;stroke-dasharray:none;stroke-opacity:1"
                   id="path1481" />
              </g>
              <g
                 id="g1483"
                 transform="matrix(1,0,0,-1,-184.27746,743.36303)">
                <path
                   d="m 906.633,-163.102 c 0.285,-0.953 2.004,-9.046 -0.821,-5.867"
                   style="fill:none;stroke:#000000;stroke-width:1.26872;stroke-linecap:round;stroke-linejoin:round;stroke-miterlimit:10;stroke-dasharray:none;stroke-opacity:1"
                   id="path1485" />
              </g>
              <g
                 id="g1487"
                 transform="matrix(1,0,0,-1,-184.27746,743.36303)">
                <path
                   d="m 895.156,-166.031 c 3.449,-1.813 9.571,-2.598 11.551,-3.434"
                   style="fill:none;stroke:#000000;stroke-width:1.26872;stroke-linecap:round;stroke-linejoin:round;stroke-miterlimit:10;stroke-dasharray:none;stroke-opacity:1"
                   id="path1489" />
              </g>
            </g>
          </g>
        </g>
      </g>
    </g>
  </g>
</svg>
