<?xml version="1.0" encoding="UTF-8" standalone="no"?>
<!-- Created by Ashley Blewer - This work is licensed under a Creative Commons Attribution 4.0 International License -->

<svg
   width="544"
   height="480"
   viewBox="0 0 143.93334 127"
   version="1.1"
   id="svg2490"
   inkscape:version="1.2.2 (1:1.2.2+202212051552+b0a8486541)"
   sodipodi:docname="1977-polavision-2.svg"
   xmlns:inkscape="http://www.inkscape.org/namespaces/inkscape"
   xmlns:sodipodi="http://sodipodi.sourceforge.net/DTD/sodipodi-0.dtd"
   xmlns="http://www.w3.org/2000/svg"
   xmlns:svg="http://www.w3.org/2000/svg">
  <sodipodi:namedview
     id="namedview2492"
     pagecolor="#ffffff"
     bordercolor="#666666"
     borderopacity="1.0"
     inkscape:pageshadow="2"
     inkscape:pageopacity="0.0"
     inkscape:pagecheckerboard="0"
     inkscape:document-units="mm"
     showgrid="false"
     units="px"
     inkscape:zoom="0.90583674"
     inkscape:cx="337.25724"
     inkscape:cy="255.56482"
     inkscape:window-width="1846"
     inkscape:window-height="1136"
     inkscape:window-x="0"
     inkscape:window-y="0"
     inkscape:window-maximized="1"
     inkscape:current-layer="g6395"
     inkscape:showpageshadow="2"
     inkscape:deskcolor="#d1d1d1" />
  <defs
     id="defs2487" />
  <g
     inkscape:label="Layer 1"
     inkscape:groupmode="layer"
     id="layer1">
    <g
       id="g4731"
       transform="matrix(0.32961229,0,0,0.32903008,-241.78905,1.73126)"
       style="stroke-width:2.68698">
      <g
         id="g104528"
         transform="matrix(1,0,0,-1,0,792)"
         style="stroke-width:2.68698">
        <g
           id="g104530"
           style="stroke-width:2.68698" />
      </g>
      <g
         id="g104996"
         transform="matrix(1,0,0,-1,0,792)"
         style="stroke-width:2.68698">
        <g
           id="g104998"
           style="stroke-width:2.68698" />
      </g>
      <g
         id="g28852"
         transform="matrix(1.070281,0,0,1.0721748,779.91249,-443.13657)">
        <g
           id="g6718"
           transform="matrix(1.117886,0,0,1.117886,-549.13111,-491.62865)">
          <g
             id="g6395"
             transform="matrix(0.53415107,0,0,0.53415109,441.93669,415.26868)">
            <g
               id="g3769"
               transform="matrix(2.1521888,0,0,2.1521888,-1250.5066,-1808.3744)">
              <g
                 id="g1491"
                 transform="matrix(1,0,0,-1,-184.27746,743.36303)">
                <path
                   d="m 819.484,-596.453 c -13.504,27.094 -7.23,58.746 -11.73,87.816 -0.293,7.75 0.019,15.715 2.762,23.063"
                   style="fill:none;stroke:#000000;stroke-width:2.61674;stroke-linecap:round;stroke-linejoin:round;stroke-miterlimit:10;stroke-dasharray:none;stroke-opacity:1"
                   id="path1493" />
              </g>
              <g
                 id="g1495"
                 transform="matrix(1,0,0,-1,-184.27746,743.36303)">
                <path
                   d="m 810.547,-485.324 c 31.855,12.554 65.101,21.066 98.246,29.429"
                   style="fill:none;stroke:#000000;stroke-width:2.61674;stroke-linecap:round;stroke-linejoin:round;stroke-miterlimit:10;stroke-dasharray:none;stroke-opacity:1"
                   id="path1497" />
              </g>
              <g
                 id="g1499"
                 transform="matrix(1,0,0,-1,-184.27746,743.36303)">
                <path
                   d="m 908.793,-455.895 c 44,-12.378 89.25,-24.039 134.176,-32.066"
                   style="fill:none;stroke:#000000;stroke-width:2.61674;stroke-linecap:round;stroke-linejoin:round;stroke-miterlimit:10;stroke-dasharray:none;stroke-opacity:1"
                   id="path1501" />
              </g>
              <g
                 id="g1503"
                 transform="matrix(1,0,0,-1,-184.27746,743.36303)">
                <path
                   d="m 1042.969,-487.961 c 10.754,-38.711 20.199,-80 25.414,-119.762"
                   style="fill:none;stroke:#000000;stroke-width:2.61674;stroke-linecap:round;stroke-linejoin:round;stroke-miterlimit:10;stroke-dasharray:none;stroke-opacity:1"
                   id="path1505" />
              </g>
              <g
                 id="g1507"
                 transform="matrix(1,0,0,-1,-184.27746,743.36303)">
                <path
                   d="m 1042.305,-488.035 c -35.11,-1.75 -68.129,-20.231 -101.059,-30.551"
                   style="fill:none;stroke:#000000;stroke-width:2.61674;stroke-linecap:round;stroke-linejoin:round;stroke-miterlimit:10;stroke-dasharray:none;stroke-opacity:1"
                   id="path1509" />
              </g>
              <g
                 id="g1511"
                 transform="matrix(1,0,0,-1,-184.27746,743.36303)">
                <path
                   d="m 941.246,-518.586 c 9.047,-41.016 14.434,-82.836 23.289,-123.793 l 1.844,-4.887"
                   style="fill:none;stroke:#000000;stroke-width:2.61674;stroke-linecap:round;stroke-linejoin:round;stroke-miterlimit:10;stroke-dasharray:none;stroke-opacity:1"
                   id="path1513" />
              </g>
              <g
                 id="g1515"
                 transform="matrix(1,0,0,-1,-184.27746,743.36303)">
                <path
                   d="m 966.379,-647.266 c 34.074,6.348 68.387,21.536 99.883,34.989 1.133,1.074 0.988,3.48 2.121,4.554"
                   style="fill:none;stroke:#000000;stroke-width:2.61674;stroke-linecap:round;stroke-linejoin:round;stroke-miterlimit:10;stroke-dasharray:none;stroke-opacity:1"
                   id="path1517" />
              </g>
              <g
                 id="g1519"
                 transform="matrix(1,0,0,-1,-184.27746,743.36303)">
                <path
                   d="m 820.203,-597.633 c 11.758,-4.152 23.711,-7.726 35.496,-11.801"
                   style="fill:none;stroke:#000000;stroke-width:2.61674;stroke-linecap:round;stroke-linejoin:round;stroke-miterlimit:10;stroke-dasharray:none;stroke-opacity:1"
                   id="path1521" />
              </g>
              <g
                 id="g1523"
                 transform="matrix(1,0,0,-1,-184.27746,743.36303)">
                <path
                   d="m 867.793,-614.09 c 30.977,-10.09 67.621,-23.023 98.586,-33.176"
                   style="fill:none;stroke:#000000;stroke-width:2.61674;stroke-linecap:round;stroke-linejoin:round;stroke-miterlimit:10;stroke-dasharray:none;stroke-opacity:1"
                   id="path1525" />
              </g>
              <g
                 id="g1527"
                 transform="matrix(1,0,0,-1,-184.27746,743.36303)">
                <path
                   d="m 927.727,-635.578 c -7.922,-36.207 27.863,-15.102 38.652,-11.688"
                   style="fill:none;stroke:#000000;stroke-width:2.61674;stroke-linecap:round;stroke-linejoin:round;stroke-miterlimit:10;stroke-dasharray:none;stroke-opacity:1"
                   id="path1529" />
              </g>
              <g
                 id="g1531"
                 transform="matrix(1,0,0,-1,-184.27746,743.36303)">
                <path
                   d="m 957.414,-649.688 c -7.961,-4.246 -23.164,-3.05 -21.262,9.415"
                   style="fill:none;stroke:#000000;stroke-width:2.61674;stroke-linecap:round;stroke-linejoin:round;stroke-miterlimit:10;stroke-dasharray:none;stroke-opacity:1"
                   id="path1533" />
              </g>
              <g
                 id="g1535"
                 transform="matrix(1,0,0,-1,-184.27746,743.36303)">
                <path
                   d="m 867.789,-630.031 c 21.07,-8.086 41.293,-18.449 62.996,-24.832"
                   style="fill:none;stroke:#000000;stroke-width:2.61674;stroke-linecap:round;stroke-linejoin:round;stroke-miterlimit:10;stroke-dasharray:none;stroke-opacity:1"
                   id="path1537" />
              </g>
              <g
                 id="g1539"
                 transform="matrix(1,0,0,-1,-184.27746,743.36303)">
                <path
                   d="m 866.645,-600.93 c -0.051,-18.5 2.277,-36.914 2.3,-55.414"
                   style="fill:none;stroke:#000000;stroke-width:2.61674;stroke-linecap:round;stroke-linejoin:round;stroke-miterlimit:10;stroke-dasharray:none;stroke-opacity:1"
                   id="path1541" />
              </g>
              <g
                 id="g1543"
                 transform="matrix(1,0,0,-1,-184.27746,743.36303)">
                <path
                   d="m 856.973,-592.602 c -2.157,-22.617 -1.469,-45.375 -2.68,-68.043"
                   style="fill:none;stroke:#000000;stroke-width:2.61674;stroke-linecap:round;stroke-linejoin:round;stroke-miterlimit:10;stroke-dasharray:none;stroke-opacity:1"
                   id="path1545" />
              </g>
              <g
                 id="g1547"
                 transform="matrix(1,0,0,-1,-184.27746,743.36303)">
                <path
                   d="m 842.438,-667.574 c 18.289,9.562 42.195,12.066 61.746,17.84"
                   style="fill:none;stroke:#000000;stroke-width:2.61674;stroke-linecap:round;stroke-linejoin:round;stroke-miterlimit:10;stroke-dasharray:none;stroke-opacity:1"
                   id="path1549" />
              </g>
              <g
                 id="g1551"
                 transform="matrix(1,0,0,-1,-184.27746,743.36303)">
                <path
                   d="m 904.359,-650.723 c 7.332,-2.679 14.211,-6.675 20.047,-11.879"
                   style="fill:none;stroke:#000000;stroke-width:2.61674;stroke-linecap:round;stroke-linejoin:round;stroke-miterlimit:10;stroke-dasharray:none;stroke-opacity:1"
                   id="path1553" />
              </g>
              <g
                 id="g1555"
                 transform="matrix(1,0,0,-1,-184.27746,743.36303)">
                <path
                   d="m 842.438,-667.574 c 5.98,-2.953 14.515,-8.406 20.343,-11.641"
                   style="fill:none;stroke:#000000;stroke-width:2.61674;stroke-linecap:round;stroke-linejoin:round;stroke-miterlimit:10;stroke-dasharray:none;stroke-opacity:1"
                   id="path1557" />
              </g>
              <g
                 id="g1559"
                 transform="matrix(1,0,0,-1,-184.27746,743.36303)">
                <path
                   d="m 842.438,-667.574 c 0.035,-1.469 0.07,-2.942 0.109,-4.41"
                   style="fill:none;stroke:#000000;stroke-width:2.61674;stroke-linecap:round;stroke-linejoin:round;stroke-miterlimit:10;stroke-dasharray:none;stroke-opacity:1"
                   id="path1561" />
              </g>
              <g
                 id="g1563"
                 transform="matrix(1,0,0,-1,-184.27746,743.36303)">
                <path
                   d="m 842.488,-673.094 c 6.934,-3.578 13.91,-9.551 20.621,-13.511"
                   style="fill:none;stroke:#000000;stroke-width:2.61674;stroke-linecap:round;stroke-linejoin:round;stroke-miterlimit:10;stroke-dasharray:none;stroke-opacity:1"
                   id="path1565" />
              </g>
              <g
                 id="g1567"
                 transform="matrix(1,0,0,-1,-184.27746,743.36303)">
                <path
                   d="m 862.781,-679.215 c 0.047,-1.191 0.262,-6.117 0.328,-7.39"
                   style="fill:none;stroke:#000000;stroke-width:2.61674;stroke-linecap:round;stroke-linejoin:round;stroke-miterlimit:10;stroke-dasharray:none;stroke-opacity:1"
                   id="path1569" />
              </g>
              <g
                 id="g1571"
                 transform="matrix(1,0,0,-1,-184.27746,743.36303)">
                <path
                   d="m 863.109,-686.605 c 21.231,2.984 43.047,11.222 63.582,17.007"
                   style="fill:none;stroke:#000000;stroke-width:2.61674;stroke-linecap:round;stroke-linejoin:round;stroke-miterlimit:10;stroke-dasharray:none;stroke-opacity:1"
                   id="path1573" />
              </g>
              <g
                 id="g1575"
                 transform="matrix(1,0,0,-1,-184.27746,743.36303)">
                <path
                   d="m 927.938,-662.234 -0.418,-7.114"
                   style="fill:none;stroke:#000000;stroke-width:2.61674;stroke-linecap:round;stroke-linejoin:round;stroke-miterlimit:10;stroke-dasharray:none;stroke-opacity:1"
                   id="path1577" />
              </g>
              <g
                 id="g1579"
                 transform="matrix(1,0,0,-1,-184.27746,743.36303)">
                <path
                   d="m 862.781,-679.215 c 19.735,4.621 42.61,12.684 62.657,15.883"
                   style="fill:none;stroke:#000000;stroke-width:2.61674;stroke-linecap:round;stroke-linejoin:round;stroke-miterlimit:10;stroke-dasharray:none;stroke-opacity:1"
                   id="path1581" />
              </g>
              <g
                 id="g1583"
                 transform="matrix(1,0,0,-1,-184.27746,743.36303)">
                <path
                   d="m 904.184,-649.734 c 7.793,-2.914 17.433,-7.399 23.754,-12.5"
                   style="fill:none;stroke:#000000;stroke-width:2.61674;stroke-linecap:round;stroke-linejoin:round;stroke-miterlimit:10;stroke-dasharray:none;stroke-opacity:1"
                   id="path1585" />
              </g>
              <g
                 id="g1587"
                 transform="matrix(1,0,0,-1,-184.27746,743.36303)">
                <path
                   d="m 934.008,-640.387 c 2.222,-4.832 0.297,-10.711 3.293,-15.234"
                   style="fill:none;stroke:#000000;stroke-width:2.61674;stroke-linecap:round;stroke-linejoin:round;stroke-miterlimit:10;stroke-dasharray:none;stroke-opacity:1"
                   id="path1589" />
              </g>
              <g
                 id="g1591"
                 transform="matrix(1,0,0,-1,-184.27746,743.36303)">
                <path
                   d="m 938.789,-650.34 c 2.363,0.137 11.82,0.633 14.184,0.742"
                   style="fill:none;stroke:#000000;stroke-width:2.61674;stroke-linecap:round;stroke-linejoin:round;stroke-miterlimit:10;stroke-dasharray:none;stroke-opacity:1"
                   id="path1593" />
              </g>
              <g
                 id="g1595"
                 transform="matrix(1,0,0,-1,-184.27746,743.36303)">
                <path
                   d="m 936.207,-646.004 c 1.504,-1.109 3.672,3.516 4.969,1.066"
                   style="fill:none;stroke:#000000;stroke-width:2.61674;stroke-linecap:round;stroke-linejoin:round;stroke-miterlimit:10;stroke-dasharray:none;stroke-opacity:1"
                   id="path1597" />
              </g>
              <g
                 id="g1599"
                 transform="matrix(1,0,0,-1,-184.27746,743.36303)">
                <path
                   d="m 935.359,-645.605 c -1.531,-1.915 2.407,-3.536 1.172,-5.672"
                   style="fill:none;stroke:#000000;stroke-width:2.61674;stroke-linecap:round;stroke-linejoin:round;stroke-miterlimit:10;stroke-dasharray:none;stroke-opacity:1"
                   id="path1601" />
              </g>
              <g
                 id="g1603"
                 transform="matrix(1,0,0,-1,-184.27746,743.36303)">
                <path
                   d="m 884.895,-619.746 c -19.239,32.637 40.757,27.574 29.488,-8.977"
                   style="fill:none;stroke:#000000;stroke-width:2.61674;stroke-linecap:round;stroke-linejoin:round;stroke-miterlimit:10;stroke-dasharray:none;stroke-opacity:1"
                   id="path1605" />
              </g>
              <g
                 id="g1607"
                 transform="matrix(1,0,0,-1,-184.27746,743.36303)">
                <path
                   d="m 853.906,-474.98 c 3.508,-2.157 8.012,-0.989 11.36,-3.45"
                   style="fill:none;stroke:#000000;stroke-width:2.61674;stroke-linecap:round;stroke-linejoin:round;stroke-miterlimit:10;stroke-dasharray:none;stroke-opacity:1"
                   id="path1609" />
              </g>
              <g
                 id="g1611"
                 transform="matrix(1,0,0,-1,-184.27746,743.36303)">
                <path
                   d="m 948.461,-534.438 c 27.633,7.52 54.621,17.239 82.312,24.567"
                   style="fill:none;stroke:#000000;stroke-width:2.61674;stroke-linecap:round;stroke-linejoin:round;stroke-miterlimit:10;stroke-dasharray:none;stroke-opacity:1"
                   id="path1613" />
              </g>
              <g
                 id="g1615"
                 transform="matrix(1,0,0,-1,-184.27746,743.36303)">
                <path
                   d="m 977.91,-519.426 c 5.887,3.106 12.59,3.832 19.059,4.852"
                   style="fill:none;stroke:#000000;stroke-width:2.61674;stroke-linecap:round;stroke-linejoin:round;stroke-miterlimit:10;stroke-dasharray:none;stroke-opacity:1"
                   id="path1617" />
              </g>
              <g
                 id="g1619"
                 transform="matrix(1,0,0,-1,-184.27746,743.36303)">
                <path
                   d="m 947.004,-474.578 c 21.605,-4.274 43.746,-7.684 63.949,-16.867"
                   style="fill:none;stroke:#000000;stroke-width:2.61674;stroke-linecap:round;stroke-linejoin:round;stroke-miterlimit:10;stroke-dasharray:none;stroke-opacity:1"
                   id="path1621" />
              </g>
              <g
                 id="g1623"
                 transform="matrix(1,0,0,-1,-184.27746,743.36303)">
                <path
                   d="m 945.418,-475.371 c -12.691,-2.527 -24.836,-7.09 -37.137,-10.984"
                   style="fill:none;stroke:#000000;stroke-width:2.61674;stroke-linecap:round;stroke-linejoin:round;stroke-miterlimit:10;stroke-dasharray:none;stroke-opacity:1"
                   id="path1625" />
              </g>
              <g
                 id="g1627"
                 transform="matrix(1,0,0,-1,-184.27746,743.36303)">
                <path
                   d="m 907.395,-488.184 c 21.105,-3.093 41.273,-10.425 62.16,-14.539"
                   style="fill:none;stroke:#000000;stroke-width:2.61674;stroke-linecap:round;stroke-linejoin:round;stroke-miterlimit:10;stroke-dasharray:none;stroke-opacity:1"
                   id="path1629" />
              </g>
              <g
                 id="g1631"
                 transform="matrix(1,0,0,-1,-184.27746,743.36303)">
                <path
                   d="m 973.148,-502.961 c 13.805,3.219 27.364,7.492 41.332,9.988"
                   style="fill:none;stroke:#000000;stroke-width:2.61674;stroke-linecap:round;stroke-linejoin:round;stroke-miterlimit:10;stroke-dasharray:none;stroke-opacity:1"
                   id="path1633" />
              </g>
              <g
                 id="g1635"
                 transform="matrix(1,0,0,-1,-184.27746,743.36303)">
                <path
                   d="m 934.465,-476.215 c -17.012,2.75 -34.043,5.61 -50.692,10.129"
                   style="fill:none;stroke:#000000;stroke-width:2.61674;stroke-linecap:round;stroke-linejoin:round;stroke-miterlimit:10;stroke-dasharray:none;stroke-opacity:1"
                   id="path1637" />
              </g>
              <g
                 id="g1639"
                 transform="matrix(1,0,0,-1,-184.27746,743.36303)">
                <path
                   d="m 926.332,-478.938 c -13.109,4.215 -26.777,6.243 -40.363,8.235"
                   style="fill:none;stroke:#000000;stroke-width:2.61674;stroke-linecap:round;stroke-linejoin:round;stroke-miterlimit:10;stroke-dasharray:none;stroke-opacity:1"
                   id="path1641" />
              </g>
              <g
                 id="g1643"
                 transform="matrix(1,0,0,-1,-184.27746,743.36303)">
                <path
                   d="m 883.352,-471.234 c -1.969,-0.621 -9.887,-2.989 -11.875,-3.551"
                   style="fill:none;stroke:#000000;stroke-width:2.61674;stroke-linecap:round;stroke-linejoin:round;stroke-miterlimit:10;stroke-dasharray:none;stroke-opacity:1"
                   id="path1645" />
              </g>
              <g
                 id="g1647"
                 transform="matrix(1,0,0,-1,-184.27746,743.36303)">
                <path
                   d="m 861.035,-471.145 c 6.211,-0.156 11.762,3.235 17.93,3.399"
                   style="fill:none;stroke:#000000;stroke-width:2.61674;stroke-linecap:round;stroke-linejoin:round;stroke-miterlimit:10;stroke-dasharray:none;stroke-opacity:1"
                   id="path1649" />
              </g>
              <g
                 id="g1651"
                 transform="matrix(1,0,0,-1,-184.27746,743.36303)">
                <path
                   d="m 872.125,-475.934 c 10.891,-3.234 22.289,-4.777 32.805,-9.222"
                   style="fill:none;stroke:#000000;stroke-width:2.61674;stroke-linecap:round;stroke-linejoin:round;stroke-miterlimit:10;stroke-dasharray:none;stroke-opacity:1"
                   id="path1653" />
              </g>
              <g
                 id="g1655"
                 transform="matrix(1,0,0,-1,-184.27746,743.36303)">
                <path
                   d="m 810.547,-485.324 c 38.18,-8.934 82.199,-23.446 121.195,-28.539 l 9.504,-4.723"
                   style="fill:none;stroke:#000000;stroke-width:1.26872;stroke-linecap:round;stroke-linejoin:round;stroke-miterlimit:10;stroke-dasharray:none;stroke-opacity:1"
                   id="path1657" />
              </g>
              <g
                 id="g1659"
                 transform="matrix(1,0,0,-1,-184.27746,743.36303)">
                <path
                   d="m 1032.891,-513.062 c 7.328,-29.547 17.308,-58.344 25.613,-87.614"
                   style="fill:none;stroke:#000000;stroke-width:1.26872;stroke-linecap:round;stroke-linejoin:round;stroke-miterlimit:10;stroke-dasharray:none;stroke-opacity:1"
                   id="path1661" />
              </g>
              <g
                 id="g1663"
                 transform="matrix(1,0,0,-1,-184.27746,743.36303)">
                <path
                   d="m 1034.195,-492.5 c 9.219,-36.664 20.356,-73.004 30.821,-109.234"
                   style="fill:none;stroke:#000000;stroke-width:1.26872;stroke-linecap:round;stroke-linejoin:round;stroke-miterlimit:10;stroke-dasharray:none;stroke-opacity:1"
                   id="path1665" />
              </g>
              <g
                 id="g1667"
                 transform="matrix(1,0,0,-1,-184.27746,743.36303)">
                <path
                   d="m 960.137,-604.852 c 5.226,-9.808 8.121,-20.613 12.539,-30.773"
                   style="fill:none;stroke:#000000;stroke-width:1.26872;stroke-linecap:round;stroke-linejoin:round;stroke-miterlimit:10;stroke-dasharray:none;stroke-opacity:1"
                   id="path1669" />
              </g>
              <g
                 id="g1671"
                 transform="matrix(1,0,0,-1,-184.27746,743.36303)">
                <path
                   d="m 1055.023,-606.699 c -25.742,-9.512 -53.199,-20.641 -78.234,-28.246"
                   style="fill:none;stroke:#000000;stroke-width:1.26872;stroke-linecap:round;stroke-linejoin:round;stroke-miterlimit:10;stroke-dasharray:none;stroke-opacity:1"
                   id="path1673" />
              </g>
              <g
                 id="g1675"
                 transform="matrix(1,0,0,-1,-184.27746,743.36303)">
                <path
                   d="m 812.719,-576.074 c -11.836,-4.496 -8.809,-29.688 6.765,-20.379"
                   style="fill:none;stroke:#000000;stroke-width:1.26872;stroke-linecap:round;stroke-linejoin:round;stroke-miterlimit:10;stroke-dasharray:none;stroke-opacity:1"
                   id="path1677" />
              </g>
              <g
                 id="g1679"
                 transform="matrix(1,0,0,-1,-184.27746,743.36303)">
                <path
                   d="m 813.574,-584.383 c -11.976,-8.656 3.188,-31.344 13.004,-16.469"
                   style="fill:none;stroke:#000000;stroke-width:1.26872;stroke-linecap:round;stroke-linejoin:round;stroke-miterlimit:10;stroke-dasharray:none;stroke-opacity:1"
                   id="path1681" />
              </g>
            </g>
          </g>
        </g>
      </g>
    </g>
  </g>
</svg>
