<?xml version="1.0" encoding="UTF-8" standalone="no"?>
<!-- Created by Ashley Blewer - This work is licensed under a Creative Commons Attribution 4.0 International License -->

<svg
   width="544"
   height="480"
   viewBox="0 0 143.93334 127"
   version="1.1"
   id="svg2490"
   inkscape:version="1.2.2 (1:1.2.2+202212051552+b0a8486541)"
   sodipodi:docname="1984-showscan-3.svg"
   xmlns:inkscape="http://www.inkscape.org/namespaces/inkscape"
   xmlns:sodipodi="http://sodipodi.sourceforge.net/DTD/sodipodi-0.dtd"
   xmlns="http://www.w3.org/2000/svg"
   xmlns:svg="http://www.w3.org/2000/svg">
  <sodipodi:namedview
     id="namedview2492"
     pagecolor="#ffffff"
     bordercolor="#666666"
     borderopacity="1.0"
     inkscape:pageshadow="2"
     inkscape:pageopacity="0.0"
     inkscape:pagecheckerboard="0"
     inkscape:document-units="mm"
     showgrid="false"
     units="px"
     inkscape:zoom="0.90583674"
     inkscape:cx="337.25724"
     inkscape:cy="255.56482"
     inkscape:window-width="1846"
     inkscape:window-height="1136"
     inkscape:window-x="0"
     inkscape:window-y="0"
     inkscape:window-maximized="1"
     inkscape:current-layer="g6395"
     inkscape:showpageshadow="2"
     inkscape:deskcolor="#d1d1d1" />
  <defs
     id="defs2487" />
  <g
     inkscape:label="Layer 1"
     inkscape:groupmode="layer"
     id="layer1">
    <g
       id="g4731"
       transform="matrix(0.32961229,0,0,0.32903008,-241.78905,1.73126)"
       style="stroke-width:2.68698">
      <g
         id="g104528"
         transform="matrix(1,0,0,-1,0,792)"
         style="stroke-width:2.68698">
        <g
           id="g104530"
           style="stroke-width:2.68698" />
      </g>
      <g
         id="g104996"
         transform="matrix(1,0,0,-1,0,792)"
         style="stroke-width:2.68698">
        <g
           id="g104998"
           style="stroke-width:2.68698" />
      </g>
      <g
         id="g28852"
         transform="matrix(1.070281,0,0,1.0721748,779.91249,-443.13657)">
        <g
           id="g6718"
           transform="matrix(1.117886,0,0,1.117886,-549.13111,-491.62865)">
          <g
             id="g6395"
             transform="matrix(0.53415107,0,0,0.53415109,441.93669,415.26868)">
            <g
               id="g8646"
               transform="matrix(1.8818818,0,0,1.8818818,-1307.6339,-1656.0704)">
              <g
                 id="g2250"
                 transform="matrix(1,0,0,-1,-74.345275,762.38571)">
                <path
                   d="m 798.941,-603.434 c 24.836,3.661 56.075,0.707 83.61,0.766 38.594,-1.012 77.129,0.793 115.66,0.012 43.164,-1.871 83.758,2.144 125.711,-0.125"
                   style="fill:none;stroke:#000000;stroke-width:2.61674;stroke-linecap:round;stroke-linejoin:round;stroke-miterlimit:10;stroke-dasharray:none;stroke-opacity:1"
                   id="path2252" />
              </g>
              <g
                 id="g2254"
                 transform="matrix(1,0,0,-1,-74.345275,762.38571)">
                <path
                   d="m 798.941,-603.434 c 1.149,-9.238 -1.921,-23.832 -0.742,-34.359 -0.261,-18.41 -1.801,-37.262 -1.066,-55.332 0.082,-12.277 0.965,-23.676 1.008,-33.313 l -0.383,0.563"
                   style="fill:none;stroke:#000000;stroke-width:2.61674;stroke-linecap:round;stroke-linejoin:round;stroke-miterlimit:10;stroke-dasharray:none;stroke-opacity:1"
                   id="path2256" />
              </g>
              <g
                 id="g2258"
                 transform="matrix(1,0,0,-1,-74.345275,762.38571)">
                <path
                   d="m 798.141,-726.438 c 39.925,-4.5 86.691,-3.429 126.882,-1.984 64.145,-1.516 198.594,1.777 198.594,1.777"
                   style="fill:none;stroke:#000000;stroke-width:2.61674;stroke-linecap:round;stroke-linejoin:round;stroke-miterlimit:10;stroke-dasharray:none;stroke-opacity:1"
                   id="path2260" />
              </g>
              <g
                 id="g2262"
                 transform="matrix(1,0,0,-1,-74.345275,762.38571)">
                <path
                   d="m 1123.617,-726.645 c 0.524,28.192 3.141,57.262 1.188,85.93 -0.731,12.457 0.574,26.043 -0.883,37.934"
                   style="fill:none;stroke:#000000;stroke-width:2.61674;stroke-linecap:round;stroke-linejoin:round;stroke-miterlimit:10;stroke-dasharray:none;stroke-opacity:1"
                   id="path2264" />
              </g>
              <g
                 id="g2266"
                 transform="matrix(1,0,0,-1,-74.345275,762.38571)">
                <path
                   d="m 1106.23,-610.492 c 7.102,2.496 16.278,-1.32 12.481,-8.434 -6.344,-4.781 -18.688,-2.812 -14.059,5.992 1.602,0.235 1.774,4.219 3.461,3.098"
                   style="fill:none;stroke:#000000;stroke-width:2.61674;stroke-linecap:round;stroke-linejoin:round;stroke-miterlimit:10;stroke-dasharray:none;stroke-opacity:1"
                   id="path2268" />
              </g>
              <g
                 id="g2270"
                 transform="matrix(1,0,0,-1,-74.345275,762.38571)">
                <path
                   d="m 1105.664,-635.66 c 3.527,0.613 17.227,2.469 13.129,-5.481 -1.406,-7.625 -19.664,-3.593 -13.129,5.481"
                   style="fill:none;stroke:#000000;stroke-width:2.61674;stroke-linecap:round;stroke-linejoin:round;stroke-miterlimit:10;stroke-dasharray:none;stroke-opacity:1"
                   id="path2272" />
              </g>
              <g
                 id="g2274"
                 transform="matrix(1,0,0,-1,-74.345275,762.38571)">
                <path
                   d="m 1105.703,-659.57 c 6.633,1.179 14.731,-0.266 11.609,-7.856 -4.777,-3.656 -13.558,-0.578 -11.609,7.856 -0.691,2.402 -0.32,0.011 0.125,0.734"
                   style="fill:none;stroke:#000000;stroke-width:2.61674;stroke-linecap:round;stroke-linejoin:round;stroke-miterlimit:10;stroke-dasharray:none;stroke-opacity:1"
                   id="path2276" />
              </g>
              <g
                 id="g2278"
                 transform="matrix(1,0,0,-1,-74.345275,762.38571)">
                <path
                   d="m 1105.742,-684.504 c 5.672,-0.133 13.82,-1.949 12.184,-8.891 -2.797,-5.367 -15.781,-3.957 -14.203,4.29 -0.418,2.375 0.375,4.82 3.422,4.101"
                   style="fill:none;stroke:#000000;stroke-width:2.61674;stroke-linecap:round;stroke-linejoin:round;stroke-miterlimit:10;stroke-dasharray:none;stroke-opacity:1"
                   id="path2280" />
              </g>
              <g
                 id="g2282"
                 transform="matrix(1,0,0,-1,-74.345275,762.38571)">
                <path
                   d="m 1107.602,-711.625 c 6.574,0.574 15.371,-1.32 11.421,-9.066 -4.148,-6.336 -23.031,4.742 -11.421,9.066"
                   style="fill:none;stroke:#000000;stroke-width:2.61674;stroke-linecap:round;stroke-linejoin:round;stroke-miterlimit:10;stroke-dasharray:none;stroke-opacity:1"
                   id="path2284" />
              </g>
              <g
                 id="g2286"
                 transform="matrix(1,0,0,-1,-74.345275,762.38571)">
                <path
                   d="m 1101.828,-727.305 c -1.121,39.692 1.176,80.922 -0.726,120.282 -0.129,1.421 0.519,4.57 0.41,4.511"
                   style="fill:none;stroke:#000000;stroke-width:2.61674;stroke-linecap:round;stroke-linejoin:round;stroke-miterlimit:10;stroke-dasharray:none;stroke-opacity:1"
                   id="path2288" />
              </g>
              <g
                 id="g2290"
                 transform="matrix(1,0,0,-1,-74.345275,762.38571)">
                <path
                   d="m 825.586,-728.742 c 1.457,4.254 -3.148,17.726 -1.055,25.027 -0.328,29.235 0.684,59.617 -0.902,87.715 1.367,4.336 -0.703,11.656 -0.137,13.875"
                   style="fill:none;stroke:#000000;stroke-width:2.61674;stroke-linecap:round;stroke-linejoin:round;stroke-miterlimit:10;stroke-dasharray:none;stroke-opacity:1"
                   id="path2292" />
              </g>
              <g
                 id="g2294"
                 transform="matrix(1,0,0,-1,-74.345275,762.38571)">
                <path
                   d="m 822.184,-610.387 c -3.965,3.715 -18.477,-4.293 -9.895,-6.937 3.316,0.312 7.008,0.344 9.668,0.82"
                   style="fill:none;stroke:#000000;stroke-width:2.61674;stroke-linecap:round;stroke-linejoin:round;stroke-miterlimit:10;stroke-dasharray:none;stroke-opacity:1"
                   id="path2296" />
              </g>
              <g
                 id="g2298"
                 transform="matrix(1,0,0,-1,-74.345275,762.38571)">
                <path
                   d="m 811.52,-602.125 c 0.082,-0.961 -0.559,-8.156 0,-8.801"
                   style="fill:none;stroke:#000000;stroke-width:2.61674;stroke-linecap:round;stroke-linejoin:round;stroke-miterlimit:10;stroke-dasharray:none;stroke-opacity:1"
                   id="path2300" />
              </g>
              <g
                 id="g2302"
                 transform="matrix(1,0,0,-1,-74.345275,762.38571)">
                <path
                   d="m 819.453,-632.848 c 1.235,-0.961 -16.988,0.555 -11.773,-7.066 3.222,-6.453 18.09,-4.348 15.445,2.754 -0.734,2.933 0.148,4.367 -3.672,4.312"
                   style="fill:none;stroke:#000000;stroke-width:2.61674;stroke-linecap:round;stroke-linejoin:round;stroke-miterlimit:10;stroke-dasharray:none;stroke-opacity:1"
                   id="path2304" />
              </g>
              <g
                 id="g2306"
                 transform="matrix(1,0,0,-1,-74.345275,762.38571)">
                <path
                   d="m 812.289,-617.324 c 0.352,-1.477 -2.18,-15.66 -1.465,-17.559"
                   style="fill:none;stroke:#000000;stroke-width:2.61674;stroke-linecap:round;stroke-linejoin:round;stroke-miterlimit:10;stroke-dasharray:none;stroke-opacity:1"
                   id="path2308" />
              </g>
              <g
                 id="g2310"
                 transform="matrix(1,0,0,-1,-74.345275,762.38571)">
                <path
                   d="m 810.43,-658.57 c 6.476,1.691 17.793,-1.895 14.82,-8.336 -6.82,-4.371 -22.223,-0.84 -15.445,7.808 1.402,0.758 3.929,0.047 4.781,0.071"
                   style="fill:none;stroke:#000000;stroke-width:2.61674;stroke-linecap:round;stroke-linejoin:round;stroke-miterlimit:10;stroke-dasharray:none;stroke-opacity:1"
                   id="path2312" />
              </g>
              <g
                 id="g2314"
                 transform="matrix(1,0,0,-1,-74.345275,762.38571)">
                <path
                   d="m 809.441,-682.875 c 7.036,2.391 18.61,-1.977 14.704,-9.242 -4.844,-3.395 -18.774,-1.656 -15.833,7.449 0.344,1.125 -0.222,1.867 1.129,1.793"
                   style="fill:none;stroke:#000000;stroke-width:2.61674;stroke-linecap:round;stroke-linejoin:round;stroke-miterlimit:10;stroke-dasharray:none;stroke-opacity:1"
                   id="path2316" />
              </g>
              <g
                 id="g2318"
                 transform="matrix(1,0,0,-1,-74.345275,762.38571)">
                <path
                   d="m 810.82,-707.316 c 4.825,0.906 14.532,1.078 13.7,-5.836 0.406,-10.832 -21.856,-6.039 -14.235,4.843 0.742,1.219 0.274,0.286 0.535,0.993"
                   style="fill:none;stroke:#000000;stroke-width:2.61674;stroke-linecap:round;stroke-linejoin:round;stroke-miterlimit:10;stroke-dasharray:none;stroke-opacity:1"
                   id="path2320" />
              </g>
              <g
                 id="g2322"
                 transform="matrix(1,0,0,-1,-74.345275,762.38571)">
                <path
                   d="m 811.953,-726.609 c -1.633,-2.004 -0.312,6.886 -1.164,8.058"
                   style="fill:none;stroke:#000000;stroke-width:2.61674;stroke-linecap:round;stroke-linejoin:round;stroke-miterlimit:10;stroke-dasharray:none;stroke-opacity:1"
                   id="path2324" />
              </g>
              <g
                 id="g2326"
                 transform="matrix(1,0,0,-1,-74.345275,762.38571)">
                <path
                   d="m 810.051,-707.848 c -1.028,2.813 1.773,10.715 0.34,14.836"
                   style="fill:none;stroke:#000000;stroke-width:2.61674;stroke-linecap:round;stroke-linejoin:round;stroke-miterlimit:10;stroke-dasharray:none;stroke-opacity:1"
                   id="path2328" />
              </g>
              <g
                 id="g2330"
                 transform="matrix(1,0,0,-1,-74.345275,762.38571)">
                <path
                   d="m 809.441,-682.875 c 0,0 0.348,11.293 2.868,14.977"
                   style="fill:none;stroke:#000000;stroke-width:2.61674;stroke-linecap:round;stroke-linejoin:round;stroke-miterlimit:10;stroke-dasharray:none;stroke-opacity:1"
                   id="path2332" />
              </g>
              <g
                 id="g2334"
                 transform="matrix(1,0,0,-1,-74.345275,762.38571)">
                <path
                   d="m 812.227,-658.809 c 0.824,0.661 -2.157,15.121 -0.739,15.52"
                   style="fill:none;stroke:#000000;stroke-width:2.61674;stroke-linecap:round;stroke-linejoin:round;stroke-miterlimit:10;stroke-dasharray:none;stroke-opacity:1"
                   id="path2336" />
              </g>
            </g>
          </g>
        </g>
      </g>
    </g>
  </g>
</svg>
