<?xml version="1.0" encoding="UTF-8" standalone="no"?>
<!-- Created by Ashley Blewer - This work is licensed under a Creative Commons Attribution 4.0 International License -->

<svg
   width="544"
   height="480"
   viewBox="0 0 143.93334 127"
   version="1.1"
   id="svg2490"
   inkscape:version="1.2.2 (1:1.2.2+202212051552+b0a8486541)"
   sodipodi:docname="1870-tinfoil-phonograph-2.svg"
   xmlns:inkscape="http://www.inkscape.org/namespaces/inkscape"
   xmlns:sodipodi="http://sodipodi.sourceforge.net/DTD/sodipodi-0.dtd"
   xmlns="http://www.w3.org/2000/svg"
   xmlns:svg="http://www.w3.org/2000/svg">
  <sodipodi:namedview
     id="namedview2492"
     pagecolor="#ffffff"
     bordercolor="#666666"
     borderopacity="1.0"
     inkscape:pageshadow="2"
     inkscape:pageopacity="0.0"
     inkscape:pagecheckerboard="0"
     inkscape:document-units="mm"
     showgrid="false"
     units="px"
     inkscape:zoom="0.90583674"
     inkscape:cx="53.541657"
     inkscape:cy="253.35691"
     inkscape:window-width="1846"
     inkscape:window-height="1136"
     inkscape:window-x="0"
     inkscape:window-y="0"
     inkscape:window-maximized="1"
     inkscape:current-layer="g4731"
     inkscape:showpageshadow="2"
     inkscape:deskcolor="#d1d1d1" />
  <defs
     id="defs2487" />
  <g
     inkscape:label="Layer 1"
     inkscape:groupmode="layer"
     id="layer1">
    <g
       id="g4731"
       transform="matrix(0.32961229,0,0,0.32903008,-241.78905,1.73126)"
       style="stroke-width:2.68698">
      <g
         id="g104528"
         transform="matrix(1,0,0,-1,0,792)"
         style="stroke-width:2.68698">
        <g
           id="g104530"
           style="stroke-width:2.68698" />
      </g>
      <g
         id="g104996"
         transform="matrix(1,0,0,-1,0,792)"
         style="stroke-width:2.68698">
        <g
           id="g104998"
           style="stroke-width:2.68698" />
      </g>
      <g
         id="g5346"
         transform="matrix(1.9091916,0,0,1.9125698,590.19071,-700.4056)">
        <g
           id="g676"
           transform="matrix(1,0,0,-1,0,792)">
          <g
             id="g678">
            <path
               d="m 232.10648,371.62238 c 21.58153,-11.93567 42.03592,-25.97811 63.53322,-38.10626"
               style="fill:none;stroke:#000000;stroke-width:2.61674;stroke-linecap:round;stroke-linejoin:round;stroke-miterlimit:10;stroke-dasharray:none;stroke-opacity:1"
               id="path680" />
          </g>
        </g>
        <g
           id="g682"
           transform="matrix(1,0,0,-1,0,792)">
          <g
             id="g684">
            <path
               d="M 295.6397,333.51612 C 260.55407,300.89684 223.5991,264.23945 183.33341,236.87092"
               style="fill:none;stroke:#000000;stroke-width:2.61674;stroke-linecap:round;stroke-linejoin:round;stroke-miterlimit:10;stroke-dasharray:none;stroke-opacity:1"
               id="path686"
               sodipodi:nodetypes="cc" />
          </g>
        </g>
        <g
           id="g688"
           transform="matrix(1,0,0,-1,0,792)">
          <g
             id="g690">
            <path
               d="m 83.266795,324.10038 c 7.385516,-3.58134 91.432055,-78.47192 100.066615,-87.22946"
               style="fill:none;stroke:#000000;stroke-width:2.61674;stroke-linecap:round;stroke-linejoin:round;stroke-miterlimit:10;stroke-dasharray:none;stroke-opacity:1"
               id="path692"
               sodipodi:nodetypes="cc" />
          </g>
        </g>
        <g
           id="g694"
           transform="matrix(1,0,0,-1,0,792)">
          <g
             id="g696">
            <path
               d="M 145.11594,361.79263 C 125.20175,348.13149 104.89456,334.91713 83.266795,324.10038"
               style="fill:none;stroke:#000000;stroke-width:2.61674;stroke-linecap:round;stroke-linejoin:round;stroke-miterlimit:10;stroke-dasharray:none;stroke-opacity:1"
               id="path698" />
          </g>
        </g>
        <g
           id="g700"
           transform="matrix(1,0,0,-1,0,792)">
          <g
             id="g702">
            <path
               d="m 145.49654,362.28436 c 4.6086,14.64908 -15.873,3.48611 -10.98576,18.24293"
               style="fill:none;stroke:#000000;stroke-width:2.61674;stroke-linecap:round;stroke-linejoin:round;stroke-miterlimit:10;stroke-dasharray:none;stroke-opacity:1"
               id="path704"
               sodipodi:nodetypes="cc" />
          </g>
        </g>
        <g
           id="g706"
           transform="matrix(1,0,0,-1,0,792)">
          <g
             id="g708">
            <path
               d="m 149.92552,368.5459 c -5.0036,4.13916 -10.66428,7.65584 -15.41474,11.98139"
               style="fill:none;stroke:#000000;stroke-width:2.61674;stroke-linecap:round;stroke-linejoin:round;stroke-miterlimit:10;stroke-dasharray:none;stroke-opacity:1"
               id="path710" />
          </g>
        </g>
        <g
           id="g712"
           transform="matrix(1,0,0,-1,0,792)">
          <g
             id="g714">
            <path
               d="m 134.5257,380.56308 c -1.39348,7.80409 2.4959,24.13775 13.46655,19.92049"
               style="fill:none;stroke:#000000;stroke-width:2.61674;stroke-linecap:round;stroke-linejoin:round;stroke-miterlimit:10;stroke-dasharray:none;stroke-opacity:1"
               id="path716" />
          </g>
        </g>
        <g
           id="g718"
           transform="matrix(1,0,0,-1,0,792)">
          <g
             id="g720">
            <path
               d="m 147.99225,400.48357 c 2.05443,-3.42134 11.96068,-9.55217 14.59154,-11.13005"
               style="fill:none;stroke:#000000;stroke-width:2.61674;stroke-linecap:round;stroke-linejoin:round;stroke-miterlimit:10;stroke-dasharray:none;stroke-opacity:1"
               id="path722"
               sodipodi:nodetypes="cc" />
          </g>
        </g>
        <g
           id="g724"
           transform="matrix(1,0,0,-1,0,792)">
          <g
             id="g726">
            <path
               d="m 179.22218,386.46716 c -10.42854,12.24313 -27.51624,-3.58229 -28.19835,-15.70736 l -1.09831,-2.2139"
               style="fill:none;stroke:#000000;stroke-width:2.61674;stroke-linecap:round;stroke-linejoin:round;stroke-miterlimit:10;stroke-dasharray:none;stroke-opacity:1"
               id="path728"
               sodipodi:nodetypes="ccc" />
          </g>
        </g>
        <g
           id="g730"
           transform="matrix(1,0,0,-1,0,792)">
          <g
             id="g732">
            <path
               d="m 149.92552,368.5459 c 12.3489,7.28427 23.09616,13.28976 36.61081,21.19318 2.76915,2.71142 5.94398,4.46253 9.76292,3.74335"
               style="fill:none;stroke:#000000;stroke-width:2.61674;stroke-linecap:round;stroke-linejoin:round;stroke-miterlimit:10;stroke-dasharray:none;stroke-opacity:1"
               id="path734"
               sodipodi:nodetypes="ccc" />
          </g>
        </g>
        <g
           id="g736"
           transform="matrix(1,0,0,-1,0,792)">
          <g
             id="g738">
            <path
               d="m 150.36668,364.41821 c -4.35248,-6.04681 0.0285,-17.70605 4.82012,-22.48977"
               style="fill:none;stroke:#000000;stroke-width:2.62109;stroke-linecap:butt;stroke-linejoin:round;stroke-miterlimit:10;stroke-dasharray:none;stroke-opacity:1"
               id="path740"
               sodipodi:nodetypes="cc" />
          </g>
        </g>
        <g
           id="g742"
           transform="matrix(1,0,0,-1,0,792)">
          <g
             id="g744">
            <path
               d="m 161.11694,333.03668 c 4.53699,-14.43325 32.75859,-16.71163 25.72603,3.60077 -4.31555,13.98886 -13.1372,34.06277 -30.98903,30.78163 -2.52088,-0.48102 -3.80993,-1.05454 -5.48726,-3.00087"
               style="fill:none;stroke:#000000;stroke-width:2.61674;stroke-linecap:round;stroke-linejoin:round;stroke-miterlimit:10;stroke-dasharray:none;stroke-opacity:1"
               id="path746"
               sodipodi:nodetypes="cccc" />
          </g>
        </g>
        <g
           id="g748"
           transform="matrix(1,0,0,-1,0,792)">
          <g
             id="g750">
            <path
               d="m 196.29925,393.48243 c 10.99896,-3.83545 19.7905,-15.16235 25.41586,-24.91217 1.99071,-2.8542 2.2055,-10.13447 1.63532,-11.44811"
               style="fill:none;stroke:#000000;stroke-width:2.61674;stroke-linecap:round;stroke-linejoin:round;stroke-miterlimit:10;stroke-dasharray:none;stroke-opacity:1"
               id="path752"
               sodipodi:nodetypes="ccc" />
          </g>
        </g>
        <g
           id="g754"
           transform="matrix(1,0,0,-1,0,792)">
          <g
             id="g756">
            <path
               d="m 212.44968,382.19794 c 7.00378,8.4363 19.00317,7.51464 18.62284,-5.22371 -1.8577,-8.48085 7.45495,-26.63718 -5.9708,-24.50199 l -0.78497,1.45504"
               style="fill:none;stroke:#000000;stroke-width:2.61674;stroke-linecap:round;stroke-linejoin:round;stroke-miterlimit:10;stroke-dasharray:none;stroke-opacity:1"
               id="path758"
               sodipodi:nodetypes="cccc" />
          </g>
        </g>
        <g
           id="g760"
           transform="matrix(1,0,0,-1,0,792)">
          <g
             id="g762">
            <path
               d="m 223.35043,357.12215 c 0,0 5.75736,-1.14143 5.23849,2.74015"
               style="fill:none;stroke:#000000;stroke-width:2.61674;stroke-linecap:round;stroke-linejoin:round;stroke-miterlimit:10;stroke-dasharray:none;stroke-opacity:1"
               id="path764"
               sodipodi:nodetypes="cc" />
          </g>
        </g>
        <g
           id="g766"
           transform="matrix(1,0,0,-1,0,792)">
          <g
             id="g768">
            <path
               d="m 232.78107,335.745 c 10.63357,-9.29126 -14.64131,-30.70671 -15.96414,-13.65126 1.06004,6.9099 9.32571,19.01799 17.05312,12.38167"
               style="fill:none;stroke:#000000;stroke-width:2.61674;stroke-linecap:round;stroke-linejoin:round;stroke-miterlimit:10;stroke-dasharray:none;stroke-opacity:1"
               id="path770" />
          </g>
        </g>
        <g
           id="g772"
           transform="matrix(1,0,0,-1,0,792)">
          <g
             id="g774">
            <path
               d="m 232.78107,335.745 c -5.32655,3.64142 -13.12537,6.88709 -7.67935,16.72724"
               style="fill:none;stroke:#000000;stroke-width:2.61674;stroke-linecap:round;stroke-linejoin:round;stroke-miterlimit:10;stroke-dasharray:none;stroke-opacity:1"
               id="path776"
               sodipodi:nodetypes="cc" />
          </g>
        </g>
        <g
           id="g778"
           transform="matrix(1,0,0,-1,0,792)">
          <g
             id="g780">
            <path
               d="m 223.20517,343.9563 c -7.98463,-1.44493 -15.41383,-13.42086 -14.61704,-21.71994"
               style="fill:none;stroke:#000000;stroke-width:2.61674;stroke-linecap:round;stroke-linejoin:round;stroke-miterlimit:10;stroke-dasharray:none;stroke-opacity:1"
               id="path782"
               sodipodi:nodetypes="cc" />
          </g>
        </g>
        <g
           id="g784"
           transform="matrix(1,0,0,-1,0,792)">
          <g
             id="g786">
            <path
               d="m 218.82707,316.8447 c 0,0 -7.1968,3.72186 -10.23894,5.39166"
               style="fill:none;stroke:#000000;stroke-width:2.61674;stroke-linecap:round;stroke-linejoin:round;stroke-miterlimit:10;stroke-dasharray:none;stroke-opacity:1"
               id="path788"
               sodipodi:nodetypes="cc" />
          </g>
        </g>
        <g
           id="g790"
           transform="matrix(1,0,0,-1,0,792)">
          <g
             id="g792">
            <path
               d="m 208.58813,322.23636 c -14.8726,-7.58911 -17.83826,12.57797 -10.72099,21.28094 5.50563,7.24725 17.00533,18.91162 26.54671,11.02192"
               style="fill:none;stroke:#000000;stroke-width:2.61674;stroke-linecap:round;stroke-linejoin:round;stroke-miterlimit:10;stroke-dasharray:none;stroke-opacity:1"
               id="path794" />
          </g>
        </g>
        <g
           id="g796"
           transform="matrix(1,0,0,-1,0,792)">
          <g
             id="g798">
            <path
               d="m 243.13098,398.48138 c -6.60748,2.32609 -11.42431,-8.79623 -18.19752,-10.56184"
               style="fill:none;stroke:#000000;stroke-width:1.26872;stroke-linecap:round;stroke-linejoin:round;stroke-miterlimit:10;stroke-dasharray:none;stroke-opacity:1"
               id="path800"
               sodipodi:nodetypes="cc" />
          </g>
        </g>
        <g
           id="g802"
           transform="matrix(1,0,0,-1,0,792)">
          <g
             id="g804">
            <path
               d="m 242.7831,391.63804 c -2.13172,-2.00956 -10.83252,-8.27202 -12.38773,-9.97563"
               style="fill:none;stroke:#000000;stroke-width:1.26872;stroke-linecap:round;stroke-linejoin:round;stroke-miterlimit:10;stroke-dasharray:none;stroke-opacity:1"
               id="path806"
               sodipodi:nodetypes="cc" />
          </g>
        </g>
        <g
           id="g808"
           transform="matrix(1,0,0,-1,0,792)">
          <g
             id="g810">
            <path
               d="m 239.6136,384.64157 c 1.51604,-7.19056 19.67057,-17.57457 13.11246,-3.87983 -3.34608,5.49942 -6.80912,11.73303 -12.28671,15.24962"
               style="fill:none;stroke:#000000;stroke-width:1.26872;stroke-linecap:round;stroke-linejoin:round;stroke-miterlimit:10;stroke-dasharray:none;stroke-opacity:1"
               id="path812" />
          </g>
        </g>
        <g
           id="g814"
           transform="matrix(1,0,0,-1,0,792)">
          <g
             id="g816">
            <path
               d="m 240.43935,396.01136 c 3.85825,-3.19313 3.80632,-11.21298 -0.82575,-11.36979"
               style="fill:none;stroke:#000000;stroke-width:1.26872;stroke-linecap:round;stroke-linejoin:round;stroke-miterlimit:10;stroke-dasharray:none;stroke-opacity:1"
               id="path818"
               sodipodi:nodetypes="cc" />
          </g>
        </g>
        <g
           id="g820"
           transform="matrix(1,0,0,-1,0,792)">
          <g
             id="g822">
            <path
               d="m 242.55492,397.22229 c 6.75974,6.16783 6.12213,-3.32795 0,0"
               style="fill:none;stroke:#000000;stroke-width:1.26872;stroke-linecap:round;stroke-linejoin:round;stroke-miterlimit:10;stroke-dasharray:none;stroke-opacity:1"
               id="path824"
               sodipodi:nodetypes="cc" />
          </g>
        </g>
        <g
           id="g826"
           transform="matrix(1,0,0,-1,0,792)">
          <g
             id="g828">
            <path
               d="m 246.88085,397.25694 c 1.17086,-5.68287 18.75733,-17.53872 7.65394,-21.85352"
               style="fill:none;stroke:#000000;stroke-width:1.26872;stroke-linecap:round;stroke-linejoin:round;stroke-miterlimit:10;stroke-dasharray:none;stroke-opacity:1"
               id="path830"
               sodipodi:nodetypes="cc" />
          </g>
        </g>
        <g
           id="g832"
           transform="matrix(1,0,0,-1,0,792)">
          <g
             id="g834">
            <path
               d="m 249.6312,388.65994 c -1.0424,-0.44349 0.95685,-2.90723 -0.67421,-0.31099"
               style="fill:none;stroke:#000000;stroke-width:1.26872;stroke-linecap:round;stroke-linejoin:round;stroke-miterlimit:10;stroke-dasharray:none;stroke-opacity:1"
               id="path836" />
          </g>
        </g>
        <g
           id="g838"
           transform="matrix(1,0,0,-1,0,792)">
          <g
             id="g840">
            <path
               d="m 254.78245,387.33938 c 6.95094,1.29367 13.87693,20.32452 22.73773,5.86723 3.17641,-10.80844 -16.59883,-5.89182 -19.37576,-13.76037"
               style="fill:none;stroke:#000000;stroke-width:1.26872;stroke-linecap:round;stroke-linejoin:round;stroke-miterlimit:10;stroke-dasharray:none;stroke-opacity:1"
               id="path842"
               sodipodi:nodetypes="ccc" />
          </g>
        </g>
        <g
           id="g844"
           transform="matrix(1,0,0,-1,0,792)">
          <g
             id="g846">
            <path
               d="m 257.4743,385.17508 c 0.27281,-0.29767 1.09757,-1.39292 1.23714,-1.64288"
               style="fill:none;stroke:#000000;stroke-width:1.26872;stroke-linecap:round;stroke-linejoin:round;stroke-miterlimit:10;stroke-dasharray:none;stroke-opacity:1"
               id="path848" />
          </g>
        </g>
        <g
           id="g850"
           transform="matrix(1,0,0,-1,0,792)">
          <g
             id="g852">
            <path
               d="m 164.78287,352.21643 c 6.31713,0.15992 12.94615,-7.669 9.28162,-13.33554"
               style="fill:none;stroke:#000000;stroke-width:1.26872;stroke-linecap:round;stroke-linejoin:round;stroke-miterlimit:10;stroke-dasharray:none;stroke-opacity:1"
               id="path854" />
          </g>
        </g>
        <g
           id="g856"
           transform="matrix(1,0,0,-1,0,792)">
          <g
             id="g858">
            <path
               d="m 174.06449,338.88089 c -1.03642,0.69442 -3.49786,-2.3393 -4.53405,-1.15619"
               style="fill:none;stroke:#000000;stroke-width:1.26872;stroke-linecap:round;stroke-linejoin:round;stroke-miterlimit:10;stroke-dasharray:none;stroke-opacity:1"
               id="path860"
               sodipodi:nodetypes="cc" />
          </g>
        </g>
        <g
           id="g862"
           transform="matrix(1,0,0,-1,0,792)">
          <g
             id="g864">
            <path
               d="m 169.53044,337.7247 c 0.75018,4.77262 -2.75222,10.2162 -7.67822,10.86246"
               style="fill:none;stroke:#000000;stroke-width:1.26872;stroke-linecap:round;stroke-linejoin:round;stroke-miterlimit:10;stroke-dasharray:none;stroke-opacity:1"
               id="path866" />
          </g>
        </g>
        <g
           id="g868"
           transform="matrix(1,0,0,-1,0,792)">
          <g
             id="g870">
            <path
               d="m 161.85222,348.58716 c -0.0283,1.86759 0.98566,4.1112 2.93065,3.62927"
               style="fill:none;stroke:#000000;stroke-width:1.26872;stroke-linecap:round;stroke-linejoin:round;stroke-miterlimit:10;stroke-dasharray:none;stroke-opacity:1"
               id="path872"
               sodipodi:nodetypes="cc" />
          </g>
        </g>
        <g
           id="g874"
           transform="matrix(1,0,0,-1,0,792)">
          <g
             id="g876">
            <path
               d="m 169.16023,339.62177 c -4.39215,-4.48053 -11.90118,-7.08443 -16.97205,-10.77261"
               style="fill:none;stroke:#000000;stroke-width:1.26872;stroke-linecap:round;stroke-linejoin:round;stroke-miterlimit:10;stroke-dasharray:none;stroke-opacity:1"
               id="path878"
               sodipodi:nodetypes="cc" />
          </g>
        </g>
        <g
           id="g880"
           transform="matrix(1,0,0,-1,0,792)">
          <g
             id="g882">
            <path
               d="m 164.14851,347.80012 c -5.27542,-4.92746 -13.31572,-7.22015 -17.7242,-10.97341"
               style="fill:none;stroke:#000000;stroke-width:1.26872;stroke-linecap:round;stroke-linejoin:round;stroke-miterlimit:10;stroke-dasharray:none;stroke-opacity:1"
               id="path884"
               sodipodi:nodetypes="cc" />
          </g>
        </g>
        <g
           id="g886"
           transform="matrix(1,0,0,-1,0,792)">
          <g
             id="g888">
            <path
               d="m 143.05801,338.04538 c 11.71644,-4.37642 11.48271,-21.49929 15.31736,-31.67306 -0.18227,-1.49479 0.0916,-2.24544 -0.63436,-3.66416"
               style="fill:none;stroke:#000000;stroke-width:1.26872;stroke-linecap:round;stroke-linejoin:round;stroke-miterlimit:10;stroke-dasharray:none;stroke-opacity:1"
               id="path890"
               sodipodi:nodetypes="ccc" />
          </g>
        </g>
        <g
           id="g892"
           transform="matrix(1,0,0,-1,0,792)">
          <g
             id="g894">
            <path
               d="m 157.74101,302.70816 c -2.11958,-2.78153 -4.49783,-5.62984 -7.77887,-7.0757"
               style="fill:none;stroke:#000000;stroke-width:1.26872;stroke-linecap:round;stroke-linejoin:round;stroke-miterlimit:10;stroke-dasharray:none;stroke-opacity:1"
               id="path896" />
          </g>
        </g>
        <g
           id="g898"
           transform="matrix(1,0,0,-1,0,792)">
          <g
             id="g900">
            <path
               d="m 143.05801,338.04538 c -3.16813,-1.43403 -9.7175,-5.76819 -10.03529,-9.15646"
               style="fill:none;stroke:#000000;stroke-width:1.26872;stroke-linecap:round;stroke-linejoin:round;stroke-miterlimit:10;stroke-dasharray:none;stroke-opacity:1"
               id="path902"
               sodipodi:nodetypes="cc" />
          </g>
        </g>
        <g
           id="g904"
           transform="matrix(1,0,0,-1,0,792)">
          <g
             id="g906">
            <path
               d="m 133.02272,328.88892 c 14.23525,3.087 10.20952,-23.24084 16.65198,-32.57448"
               style="fill:none;stroke:#000000;stroke-width:1.26872;stroke-linecap:round;stroke-linejoin:round;stroke-miterlimit:10;stroke-dasharray:none;stroke-opacity:1"
               id="path908"
               sodipodi:nodetypes="cc" />
          </g>
        </g>
        <g
           id="g910"
           transform="matrix(1,0,0,-1,0,792)">
          <g
             id="g912">
            <path
               d="m 156.11273,308.46719 c -2.29397,-1.39446 -4.87464,-4.87027 -7.46891,-5.78634"
               style="fill:none;stroke:#000000;stroke-width:1.26872;stroke-linecap:round;stroke-linejoin:round;stroke-miterlimit:10;stroke-dasharray:none;stroke-opacity:1"
               id="path914"
               sodipodi:nodetypes="cc" />
          </g>
        </g>
        <g
           id="g916"
           transform="matrix(1,0,0,-1,0,792)">
          <g
             id="g918">
            <path
               d="m 132.38836,316.58453 c -3.43439,-7.93689 1.60378,-10.21221 17.57378,-20.95207"
               style="fill:none;stroke:#000000;stroke-width:1.26872;stroke-linecap:round;stroke-linejoin:round;stroke-miterlimit:10;stroke-dasharray:none;stroke-opacity:1"
               id="path920"
               sodipodi:nodetypes="cc" />
          </g>
        </g>
        <g
           id="g922"
           transform="matrix(1,0,0,-1,0,792)">
          <g
             id="g924">
            <path
               d="M 142.42365,323.54473 C 134.68843,318.35467 124.9925,311.24294 117.70218,305.4394"
               style="fill:none;stroke:#000000;stroke-width:1.26872;stroke-linecap:round;stroke-linejoin:round;stroke-miterlimit:10;stroke-dasharray:none;stroke-opacity:1"
               id="path926"
               sodipodi:nodetypes="cc" />
          </g>
        </g>
        <g
           id="g928"
           transform="matrix(1,0,0,-1,0,792)">
          <g
             id="g930">
            <path
               d="m 117.62209,305.62918 c -0.45582,7.41395 -11.61699,9.43013 -3.56293,1.53676 l 1.7984,-1.60973 1.84462,-0.11681"
               style="fill:none;stroke:#000000;stroke-width:1.26872;stroke-linecap:round;stroke-linejoin:round;stroke-miterlimit:10;stroke-dasharray:none;stroke-opacity:1"
               id="path932"
               sodipodi:nodetypes="cccc" />
          </g>
        </g>
        <g
           id="g934"
           transform="matrix(1,0,0,-1,0,792)">
          <g
             id="g936">
            <path
               d="m 133.02272,328.88892 c -7.05455,-5.6393 -15.59532,-9.88158 -21.3879,-16.73976"
               style="fill:none;stroke:#000000;stroke-width:1.26872;stroke-linecap:round;stroke-linejoin:round;stroke-miterlimit:10;stroke-dasharray:none;stroke-opacity:1"
               id="path938"
               sodipodi:nodetypes="cc" />
          </g>
        </g>
        <g
           id="g940"
           transform="matrix(1,0,0,-1,0,792)">
          <g
             id="g942">
            <path
               d="m 149.05831,333.46715 c -1.77787,-2.07207 -6.47063,-6.7036 -7.7096,-7.42289"
               style="fill:none;stroke:#000000;stroke-width:1.26872;stroke-linecap:round;stroke-linejoin:round;stroke-miterlimit:10;stroke-dasharray:none;stroke-opacity:1"
               id="path944"
               sodipodi:nodetypes="cc" />
          </g>
        </g>
        <g
           id="g946"
           transform="matrix(1,0,0,-1,0,792)">
          <g
             id="g948">
            <path
               d="m 180.2627,285.22949 c -6.98715,-11.27169 13.69717,-3.41973 0,0"
               style="fill:none;stroke:#000000;stroke-width:1.26872;stroke-linecap:round;stroke-linejoin:round;stroke-miterlimit:10;stroke-dasharray:none;stroke-opacity:1"
               id="path950"
               sodipodi:nodetypes="cc" />
          </g>
        </g>
        <g
           id="g952"
           transform="matrix(1,0,0,-1,0,792)">
          <g
             id="g954">
            <path
               d="m 227.97453,317.61963 c 8.12895,-3.23421 3.74797,-6.49553 2.25418,-8.63306"
               style="fill:none;stroke:#000000;stroke-width:1.26872;stroke-linecap:round;stroke-linejoin:round;stroke-miterlimit:10;stroke-dasharray:none;stroke-opacity:1"
               id="path956"
               sodipodi:nodetypes="cc" />
          </g>
        </g>
        <g
           id="g958"
           transform="matrix(1,0,0,-1,0,792)">
          <g
             id="g960">
            <path
               d="m 230.22871,308.98657 c -1.72973,-0.82217 -4.62735,0.38041 -6.33223,0.66719"
               style="fill:none;stroke:#000000;stroke-width:1.26872;stroke-linecap:round;stroke-linejoin:round;stroke-miterlimit:10;stroke-dasharray:none;stroke-opacity:1"
               id="path962"
               sodipodi:nodetypes="cc" />
          </g>
        </g>
        <g
           id="g964"
           transform="matrix(1,0,0,-1,0,792)">
          <g
             id="g966">
            <path
               d="m 230.76294,304.47787 c 0.78603,-6.1778 -13.61151,-3.53018 -13.83999,2.49859"
               style="fill:none;stroke:#000000;stroke-width:1.26872;stroke-linecap:round;stroke-linejoin:round;stroke-miterlimit:10;stroke-dasharray:none;stroke-opacity:1"
               id="path968"
               sodipodi:nodetypes="cc" />
          </g>
        </g>
        <g
           id="g970"
           transform="matrix(1,0,0,-1,0,792)">
          <g
             id="g972">
            <path
               d="m 221.19014,307.13345 c -0.36518,-2.10651 3.00152,-2.69244 4.47306,-2.31437"
               style="fill:none;stroke:#000000;stroke-width:1.26872;stroke-linecap:round;stroke-linejoin:round;stroke-miterlimit:10;stroke-dasharray:none;stroke-opacity:1"
               id="path974" />
          </g>
        </g>
        <g
           id="g976"
           transform="matrix(1,0,0,-1,0,792)">
          <g
             id="g978">
            <path
               d="m 228.60889,306.3421 c 4.10089,-1.85293 9.03633,-5.77437 12.63067,-8.38906"
               style="fill:none;stroke:#000000;stroke-width:1.26872;stroke-linecap:round;stroke-linejoin:round;stroke-miterlimit:10;stroke-dasharray:none;stroke-opacity:1"
               id="path980"
               sodipodi:nodetypes="cc" />
          </g>
        </g>
        <g
           id="g982"
           transform="matrix(1,0,0,-1,0,792)">
          <g
             id="g984">
            <path
               d="m 230.22871,308.98657 c 4.70898,-2.49568 8.60814,-5.80014 13.45653,-8.04295"
               style="fill:none;stroke:#000000;stroke-width:1.26872;stroke-linecap:round;stroke-linejoin:round;stroke-miterlimit:10;stroke-dasharray:none;stroke-opacity:1"
               id="path986"
               sodipodi:nodetypes="cc" />
          </g>
        </g>
        <g
           id="g988"
           transform="matrix(1,0,0,-1,0,792)">
          <g
             id="g990">
            <path
               d="m 249.69378,300.96997 c -5.01368,8.65096 -19.46169,-18.81029 -2.66839,-8.99572 1.99544,2.14414 5.20246,6.90548 2.66839,8.99572"
               style="fill:none;stroke:#000000;stroke-width:1.26872;stroke-linecap:round;stroke-linejoin:round;stroke-miterlimit:10;stroke-dasharray:none;stroke-opacity:1"
               id="path992"
               sodipodi:nodetypes="ccc" />
          </g>
        </g>
        <g
           id="g994"
           transform="matrix(1,0,0,-1,0,792)">
          <g
             id="g996">
            <path
               d="m 220.8895,329.901 c -8.08735,-12.3849 10.12581,-15.62905 10.12512,-2.69393 0.32218,3.44725 -1.38075,7.43006 -4.93923,8.50575"
               style="fill:none;stroke:#000000;stroke-width:1.26872;stroke-linecap:round;stroke-linejoin:round;stroke-miterlimit:10;stroke-dasharray:none;stroke-opacity:1"
               id="path998" />
          </g>
        </g>
        <g
           id="g1000"
           transform="matrix(1,0,0,-1,0,792)">
          <g
             id="g1002">
            <path
               d="m 182.02504,321.91933 c 8.21016,-2.30886 23.08862,-15.21704 30.16678,-13.26349"
               style="fill:none;stroke:#000000;stroke-width:1.26872;stroke-linecap:round;stroke-linejoin:round;stroke-miterlimit:10;stroke-dasharray:none;stroke-opacity:1"
               id="path1004"
               sodipodi:nodetypes="cc" />
          </g>
        </g>
        <g
           id="g1006"
           transform="matrix(1,0,0,-1,0,792)">
          <g
             id="g1008">
            <path
               d="m 209.16523,315.95017 c 3.02659,-7.29433 6.22938,-11.46496 10.02784,-7.27495"
               style="fill:none;stroke:#000000;stroke-width:1.26872;stroke-linecap:round;stroke-linejoin:round;stroke-miterlimit:10;stroke-dasharray:none;stroke-opacity:1"
               id="path1010"
               sodipodi:nodetypes="cc" />
          </g>
        </g>
        <g
           id="g1012"
           transform="matrix(1,0,0,-1,0,792)">
          <g
             id="g1014">
            <path
               d="m 165.81345,369.20874 c 6.35185,-1.46497 11.42228,-5.51071 14.41647,-11.29208"
               style="fill:none;stroke:#000000;stroke-width:1.26872;stroke-linecap:round;stroke-linejoin:round;stroke-miterlimit:10;stroke-dasharray:none;stroke-opacity:1"
               id="path1016" />
          </g>
        </g>
        <g
           id="g1018"
           transform="matrix(1,0,0,-1,0,792)">
          <g
             id="g1020">
            <path
               d="m 171.22165,371.98444 c 7.20045,-2.37159 11.69361,-8.26086 15.51588,-14.44044"
               style="fill:none;stroke:#000000;stroke-width:1.26872;stroke-linecap:round;stroke-linejoin:round;stroke-miterlimit:10;stroke-dasharray:none;stroke-opacity:1"
               id="path1022" />
          </g>
        </g>
        <g
           id="g1024"
           transform="matrix(1,0,0,-1,0,792)">
          <g
             id="g1026">
            <path
               d="m 178.59784,373.13812 c 3.63157,-1.00719 6.76029,-4.30777 9.01066,-6.67821"
               style="fill:none;stroke:#000000;stroke-width:1.26872;stroke-linecap:round;stroke-linejoin:round;stroke-miterlimit:10;stroke-dasharray:none;stroke-opacity:1"
               id="path1028" />
          </g>
        </g>
        <g
           id="g1030"
           transform="matrix(1,0,0,-1,0,792)">
          <g
             id="g1032">
            <path
               d="m 181.18156,378.58823 c 4.62322,-2.24572 9.19515,-5.34693 11.70436,-9.96944"
               style="fill:none;stroke:#000000;stroke-width:1.26872;stroke-linecap:round;stroke-linejoin:round;stroke-miterlimit:10;stroke-dasharray:none;stroke-opacity:1"
               id="path1034" />
          </g>
        </g>
        <g
           id="g1036"
           transform="matrix(1,0,0,-1,0,792)">
          <g
             id="g1038">
            <path
               d="m 186.71754,379.08386 c 4.42809,-2.28525 8.24268,-5.83817 11.64926,-9.21798"
               style="fill:none;stroke:#000000;stroke-width:1.26872;stroke-linecap:round;stroke-linejoin:round;stroke-miterlimit:10;stroke-dasharray:none;stroke-opacity:1"
               id="path1040" />
          </g>
        </g>
        <g
           id="g1042"
           transform="matrix(1,0,0,-1,0,792)">
          <g
             id="g1044">
            <path
               d="m 194.21233,380.27014 c 2.59074,-2.17671 5.62242,-4.12632 7.18033,-7.25316"
               style="fill:none;stroke:#000000;stroke-width:1.26872;stroke-linecap:round;stroke-linejoin:round;stroke-miterlimit:10;stroke-dasharray:none;stroke-opacity:1"
               id="path1046" />
          </g>
        </g>
        <g
           id="g1048"
           transform="matrix(1,0,0,-1,0,792)">
          <g
             id="g1050">
            <path
               d="m 192.52127,386.94565 c 3.70116,-2.76842 7.55163,-5.43593 10.13678,-9.34916"
               style="fill:none;stroke:#000000;stroke-width:1.26872;stroke-linecap:round;stroke-linejoin:round;stroke-miterlimit:10;stroke-dasharray:none;stroke-opacity:1"
               id="path1052" />
          </g>
        </g>
        <g
           id="g1054"
           transform="matrix(1,0,0,-1,0,792)">
          <g
             id="g1056">
            <path
               d="m 199.99286,386.28027 c 3.08572,-1.82352 4.83407,-5.04061 6.9871,-7.76419"
               style="fill:none;stroke:#000000;stroke-width:1.26872;stroke-linecap:round;stroke-linejoin:round;stroke-miterlimit:10;stroke-dasharray:none;stroke-opacity:1"
               id="path1058" />
          </g>
        </g>
        <g
           id="g1060"
           transform="matrix(1,0,0,-1,0,792)">
          <g
             id="g1062">
            <path
               d="m 212.01657,372.43073 c 2.77358,-2.80679 5.36453,-6.284 5.76781,-10.33639"
               style="fill:none;stroke:#000000;stroke-width:1.26872;stroke-linecap:round;stroke-linejoin:round;stroke-miterlimit:10;stroke-dasharray:none;stroke-opacity:1"
               id="path1064" />
          </g>
        </g>
        <g
           id="g1066"
           transform="matrix(1,0,0,-1,0,792)">
          <g
             id="g1068">
            <path
               d="m 206.58582,369.74057 c 2.60716,-2.98219 4.3777,-7.66111 5.15881,-10.95039"
               style="fill:none;stroke:#000000;stroke-width:1.26872;stroke-linecap:round;stroke-linejoin:round;stroke-miterlimit:10;stroke-dasharray:none;stroke-opacity:1"
               id="path1070" />
          </g>
        </g>
        <g
           id="g1072"
           transform="matrix(1,0,0,-1,0,792)">
          <g
             id="g1074">
            <path
               d="m 200.06747,366.12027 c 2.64362,-2.00013 4.24941,-5.01839 5.71557,-7.91159"
               style="fill:none;stroke:#000000;stroke-width:1.26872;stroke-linecap:round;stroke-linejoin:round;stroke-miterlimit:10;stroke-dasharray:none;stroke-opacity:1"
               id="path1076" />
          </g>
        </g>
        <g
           id="g1078"
           transform="matrix(1,0,0,-1,0,792)">
          <g
             id="g1080">
            <path
               d="m 194.48325,363.87491 c 2.46186,-3.08626 5.39729,-6.21139 5.99836,-10.29127"
               style="fill:none;stroke:#000000;stroke-width:1.26872;stroke-linecap:round;stroke-linejoin:round;stroke-miterlimit:10;stroke-dasharray:none;stroke-opacity:1"
               id="path1082" />
          </g>
        </g>
        <g
           id="g1084"
           transform="matrix(1,0,0,-1,0,792)">
          <g
             id="g1086">
            <path
               d="m 188.12445,362.72614 c 2.89307,-4.33454 6.24541,-8.49914 7.95259,-13.49084"
               style="fill:none;stroke:#000000;stroke-width:1.26872;stroke-linecap:round;stroke-linejoin:round;stroke-miterlimit:10;stroke-dasharray:none;stroke-opacity:1"
               id="path1088" />
          </g>
        </g>
        <g
           id="g1090"
           transform="matrix(1,0,0,-1,0,792)">
          <g
             id="g1092">
            <path
               d="m 186.50874,351.96991 c 1.49472,-2.56993 3.1425,-5.16238 3.70429,-8.13277"
               style="fill:none;stroke:#000000;stroke-width:1.26872;stroke-linecap:round;stroke-linejoin:round;stroke-miterlimit:10;stroke-dasharray:none;stroke-opacity:1"
               id="path1094" />
          </g>
        </g>
      </g>
    </g>
  </g>
</svg>
