<?xml version="1.0" encoding="UTF-8" standalone="no"?>
<!-- Created by Ashley Blewer - This work is licensed under a Creative Commons Attribution 4.0 International License -->

<svg
   width="544"
   height="480"
   viewBox="0 0 143.93334 127"
   version="1.1"
   id="svg2490"
   inkscape:version="1.2.2 (1:1.2.2+202212051552+b0a8486541)"
   sodipodi:docname="1870-tinfoil-phonograph-3.svg"
   xmlns:inkscape="http://www.inkscape.org/namespaces/inkscape"
   xmlns:sodipodi="http://sodipodi.sourceforge.net/DTD/sodipodi-0.dtd"
   xmlns="http://www.w3.org/2000/svg"
   xmlns:svg="http://www.w3.org/2000/svg">
  <sodipodi:namedview
     id="namedview2492"
     pagecolor="#ffffff"
     bordercolor="#666666"
     borderopacity="1.0"
     inkscape:pageshadow="2"
     inkscape:pageopacity="0.0"
     inkscape:pagecheckerboard="0"
     inkscape:document-units="mm"
     showgrid="false"
     units="px"
     inkscape:zoom="0.90583674"
     inkscape:cx="53.541657"
     inkscape:cy="253.35691"
     inkscape:window-width="1846"
     inkscape:window-height="1136"
     inkscape:window-x="0"
     inkscape:window-y="0"
     inkscape:window-maximized="1"
     inkscape:current-layer="g4731"
     inkscape:showpageshadow="2"
     inkscape:deskcolor="#d1d1d1" />
  <defs
     id="defs2487" />
  <g
     inkscape:label="Layer 1"
     inkscape:groupmode="layer"
     id="layer1">
    <g
       id="g4731"
       transform="matrix(0.32961229,0,0,0.32903008,-241.78905,1.73126)"
       style="stroke-width:2.68698">
      <g
         id="g104528"
         transform="matrix(1,0,0,-1,0,792)"
         style="stroke-width:2.68698">
        <g
           id="g104530"
           style="stroke-width:2.68698" />
      </g>
      <g
         id="g104996"
         transform="matrix(1,0,0,-1,0,792)"
         style="stroke-width:2.68698">
        <g
           id="g104998"
           style="stroke-width:2.68698" />
      </g>
      <g
         id="g4711"
         transform="matrix(0.11854263,1.4781359,-1.475525,0.11875239,1665.1291,-399.63629)">
        <g
           id="g658"
           transform="matrix(1,0,0,-1,0,792)">
          <g
             id="g660">
            <path
               d="m 393.40222,147.07121 c -1.80926,17.71109 -1.16203,34.79774 0.43867,52.51343 8.8896,17.4477 0.38259,37.33076 2.9392,55.79881 -1.17382,25.78353 -0.87504,51.61558 0.40131,77.37115 0.10175,25.67419 1.73382,51.37923 -0.29848,77.00169"
               style="fill:none;stroke:#000000;stroke-width:2.61674;stroke-linecap:round;stroke-linejoin:round;stroke-miterlimit:10;stroke-dasharray:none;stroke-opacity:1"
               id="path662"
               sodipodi:nodetypes="ccccc" />
          </g>
        </g>
        <g
           id="g664"
           transform="matrix(1,0,0,-1,0,792)">
          <g
             id="g666">
            <path
               d="m 395.49011,411.6936 c -15.8972,2.27461 -32.89809,-2.7775 -47.94131,4.55804 -9.4246,-1.42241 -19.00237,-1.82922 -28.33016,-3.87321"
               style="fill:none;stroke:#000000;stroke-width:2.61674;stroke-linecap:round;stroke-linejoin:round;stroke-miterlimit:10;stroke-dasharray:none;stroke-opacity:1"
               id="path668" />
          </g>
        </g>
        <g
           id="g670"
           transform="matrix(1,0,0,-1,0,792)">
          <g
             id="g672">
            <path
               d="m 319.21864,412.37843 c -0.68508,-23.52335 -3.21607,-50.25762 -6.10626,-73.59625 -1.97894,-29.07092 -0.0721,-58.22511 -0.87131,-87.33106 0.21647,-31.79557 0.46292,-63.67517 -0.57757,-95.40894 -2.4761,-13.54968 11.86227,-6.06136 19.87714,-9.00479 19.66403,-1.74345 39.38532,-0.32452 59.04398,0.25395 l 1.40936,-0.0891 1.40824,-0.13103"
               style="fill:none;stroke:#000000;stroke-width:2.61674;stroke-linecap:round;stroke-linejoin:round;stroke-miterlimit:10;stroke-dasharray:none;stroke-opacity:1"
               id="path674"
               sodipodi:nodetypes="cccccccc" />
          </g>
        </g>
        <g
           id="g1096"
           transform="matrix(1,0,0,-1,0,792)">
          <g
             id="g1098">
            <path
               d="m 325.58975,156.42744 c -1.21352,49.15968 -0.19324,98.35291 2.51221,147.44244 0.34139,27.01873 1.80107,54.02055 4.80227,80.87112 0.38538,5.79292 0.65424,11.59475 1.16835,17.37842"
               style="fill:none;stroke:#000000;stroke-width:1.26872;stroke-linecap:round;stroke-linejoin:round;stroke-miterlimit:10;stroke-dasharray:none;stroke-opacity:1"
               id="path1100" />
          </g>
        </g>
        <g
           id="g1102"
           transform="matrix(1,0,0,-1,0,792)">
          <g
             id="g1104">
            <path
               d="m 329.7056,153.94421 c -1.82966,45.74842 0.81317,91.50295 2.02266,137.217 -0.38771,35.40048 2.07728,71.42035 4.94972,106.26028 l 0.21505,-0.37793"
               style="fill:none;stroke:#000000;stroke-width:1.26872;stroke-linecap:round;stroke-linejoin:round;stroke-miterlimit:10;stroke-dasharray:none;stroke-opacity:1"
               id="path1106" />
          </g>
        </g>
        <g
           id="g1108"
           transform="matrix(1,0,0,-1,0,792)">
          <g
             id="g1110">
            <path
               d="m 333.87772,152.24304 c -0.92884,55.75691 2.53369,111.44977 3.80923,167.17194 2.8996,20.80982 0.85977,41.91573 2.86801,62.79932 0.52608,8.43328 1.38536,20.31748 1.91911,26.76794"
               style="fill:none;stroke:#000000;stroke-width:1.26872;stroke-linecap:round;stroke-linejoin:round;stroke-miterlimit:10;stroke-dasharray:none;stroke-opacity:1"
               id="path1112" />
          </g>
        </g>
        <g
           id="g1114"
           transform="matrix(1,0,0,-1,0,792)">
          <g
             id="g1116">
            <path
               d="m 338.07608,155.42065 c 0.13126,50.16935 3.05661,100.28675 3.34551,150.45248 1.34613,24.73756 4.29447,49.39521 4.28622,74.19334 0.40358,6.35848 0.33753,12.78127 1.36904,19.08148"
               style="fill:none;stroke:#000000;stroke-width:1.26872;stroke-linecap:round;stroke-linejoin:round;stroke-miterlimit:10;stroke-dasharray:none;stroke-opacity:1"
               id="path1118" />
          </g>
        </g>
        <g
           id="g1120"
           transform="matrix(1,0,0,-1,0,792)">
          <g
             id="g1122">
            <path
               d="m 349.59125,406.30804 c -3.95734,-51.91964 -7.41675,-103.99268 -5.29239,-156.0836 0.69748,-25.36246 1.26685,-50.75917 -0.5211,-76.0904 -0.15441,-5.74108 -0.27214,-11.50486 -1.1437,-17.19248"
               style="fill:none;stroke:#000000;stroke-width:1.26872;stroke-linecap:round;stroke-linejoin:round;stroke-miterlimit:10;stroke-dasharray:none;stroke-opacity:1"
               id="path1124" />
          </g>
        </g>
        <g
           id="g1126"
           transform="matrix(1,0,0,-1,0,792)">
          <g
             id="g1128">
            <path
               d="m 349.49875,151.37688 c -1.6537,44.86545 0.34041,89.77365 -0.66022,134.64384 1.02684,38.90307 -3.44116,78.04088 2.38511,116.73249"
               style="fill:none;stroke:#000000;stroke-width:1.26872;stroke-linecap:round;stroke-linejoin:round;stroke-miterlimit:10;stroke-dasharray:none;stroke-opacity:1"
               id="path1130" />
          </g>
        </g>
        <g
           id="g1132"
           transform="matrix(1,0,0,-1,0,792)">
          <g
             id="g1134">
            <path
               d="m 353.40652,401.18002 c -2.47092,-49.23799 -4.59677,-98.60218 -2.83301,-147.89281 1.65218,-32.70233 2.59339,-65.45736 1.94317,-98.20165"
               style="fill:none;stroke:#000000;stroke-width:1.26872;stroke-linecap:round;stroke-linejoin:round;stroke-miterlimit:10;stroke-dasharray:none;stroke-opacity:1"
               id="path1136" />
          </g>
        </g>
        <g
           id="g1138"
           transform="matrix(1,0,0,-1,0,792)">
          <g
             id="g1140">
            <path
               d="m 355.90381,152.08751 c 1.68782,41.97466 1.01077,83.99562 -0.29789,125.96322 0.28722,36.06796 0.92652,72.15644 0.16383,108.20957 0.21586,4.05691 0.44395,8.15706 -0.22317,12.18708"
               style="fill:none;stroke:#000000;stroke-width:1.26872;stroke-linecap:round;stroke-linejoin:round;stroke-miterlimit:10;stroke-dasharray:none;stroke-opacity:1"
               id="path1142" />
          </g>
        </g>
        <g
           id="g1144"
           transform="matrix(1,0,0,-1,0,792)">
          <g
             id="g1146">
            <path
               d="m 361.03705,156.13415 c 0.8481,43.03519 -1.74226,86.03355 -2.48176,129.03878 -0.0524,37.37872 0.80816,74.75938 1.08506,112.12739 l -0.0418,1.31126 -0.0892,2.15395"
               style="fill:none;stroke:#000000;stroke-width:1.26872;stroke-linecap:round;stroke-linejoin:round;stroke-miterlimit:10;stroke-dasharray:none;stroke-opacity:1"
               id="path1148" />
          </g>
        </g>
        <g
           id="g1150"
           transform="matrix(1,0,0,-1,0,792)">
          <g
             id="g1152">
            <path
               d="m 366.03162,154.02928 c -0.6881,41.71532 0.47819,83.4571 -1.23886,125.15261 -0.0591,41.27699 0.63784,82.55381 1.97033,123.80889 l 0.004,-0.25232"
               style="fill:none;stroke:#000000;stroke-width:1.26872;stroke-linecap:round;stroke-linejoin:round;stroke-miterlimit:10;stroke-dasharray:none;stroke-opacity:1"
               id="path1154" />
          </g>
        </g>
        <g
           id="g1156"
           transform="matrix(1,0,0,-1,0,792)">
          <g
             id="g1158">
            <path
               d="m 368.9682,152.41678 c -1.54405,48.99973 -1.98919,98.05256 -0.62915,147.05241 -0.91075,28.55868 -0.31506,57.17547 0.507,85.71216 0.56255,6.38091 0.15996,12.81348 0.89531,19.18138"
               style="fill:none;stroke:#000000;stroke-width:1.26872;stroke-linecap:round;stroke-linejoin:round;stroke-miterlimit:10;stroke-dasharray:none;stroke-opacity:1"
               id="path1160" />
          </g>
        </g>
        <g
           id="g1162"
           transform="matrix(1,0,0,-1,0,792)">
          <g
             id="g1164">
            <path
               d="m 371.44351,190.09048 c 1.06127,31.7605 -0.14966,63.53268 0.18827,95.28848 -0.75369,23.96971 -2.46098,47.97909 -0.5507,71.93483 0.11129,13.447 -0.39866,26.95784 1.31743,40.33196"
               style="fill:none;stroke:#000000;stroke-width:1.26872;stroke-linecap:round;stroke-linejoin:round;stroke-miterlimit:10;stroke-dasharray:none;stroke-opacity:1"
               id="path1166" />
          </g>
        </g>
        <g
           id="g1168"
           transform="matrix(1,0,0,-1,0,792)">
          <g
             id="g1170">
            <path
               d="m 375.67383,155.54262 c -0.57681,48.94922 -1.18091,97.89947 -1.11973,146.85073 -0.2645,29.43249 -1.60431,58.94604 0.22788,88.33321 0.35503,2.75074 0.68618,5.59909 -0.0234,8.325"
               style="fill:none;stroke:#000000;stroke-width:1.26872;stroke-linecap:round;stroke-linejoin:round;stroke-miterlimit:10;stroke-dasharray:none;stroke-opacity:1"
               id="path1172" />
          </g>
        </g>
        <g
           id="g1174"
           transform="matrix(1,0,0,-1,0,792)">
          <g
             id="g1176">
            <path
               d="m 380.51904,159.10483 c -1.636,36.06332 -3.38108,72.14898 -2.45293,108.25846 -0.34756,28.50956 -2.57963,57.07125 0.0251,85.53538 0.4631,16.85717 -0.89103,33.78773 1.10178,50.58378 l -0.0757,-0.31711"
               style="fill:none;stroke:#000000;stroke-width:1.26872;stroke-linecap:round;stroke-linejoin:round;stroke-miterlimit:10;stroke-dasharray:none;stroke-opacity:1"
               id="path1178" />
          </g>
        </g>
        <g
           id="g1180"
           transform="matrix(1,0,0,-1,0,792)">
          <g
             id="g1182">
            <path
               d="m 384.48361,158.38629 c -2.59008,39.11404 0.17907,78.3647 -2.55373,117.47968 -1.15674,27.80276 -1.50015,55.64648 -0.46382,83.45121 -0.16285,14.92223 -0.51629,29.85752 0.23478,44.77033"
               style="fill:none;stroke:#000000;stroke-width:1.26872;stroke-linecap:round;stroke-linejoin:round;stroke-miterlimit:10;stroke-dasharray:none;stroke-opacity:1"
               id="path1184" />
          </g>
        </g>
        <g
           id="g1186"
           transform="matrix(1,0,0,-1,0,792)">
          <g
             id="g1188">
            <path
               d="m 385.47476,202.98389 c -2.22582,29.44419 -0.13102,59.00102 -1.65215,88.47861 -0.93075,24.07413 -0.75841,48.16917 -0.37489,72.24214 -0.21064,12.96966 -0.31164,25.95402 0.4191,38.91043 -0.35532,-0.27606 -0.20597,-0.67772 -0.19956,-1.0438"
               style="fill:none;stroke:#000000;stroke-width:1.26872;stroke-linecap:round;stroke-linejoin:round;stroke-miterlimit:10;stroke-dasharray:none;stroke-opacity:1"
               id="path1190" />
          </g>
        </g>
        <g
           id="g1192"
           transform="matrix(1,0,0,-1,0,792)">
          <g
             id="g1194">
            <path
               d="m 388.96945,240.61626 c -0.16734,38.80709 -5.17617,77.62246 -1.61468,116.40507 0.0612,15.68658 -1.33344,31.33826 -1.28522,47.0245"
               style="fill:none;stroke:#000000;stroke-width:1.26872;stroke-linecap:round;stroke-linejoin:round;stroke-miterlimit:10;stroke-dasharray:none;stroke-opacity:1"
               id="path1196" />
          </g>
        </g>
        <g
           id="g1198"
           transform="matrix(1,0,0,-1,0,792)">
          <g
             id="g1200">
            <path
               d="m 316.41675,327.16257 c 5.6739,-13.56523 7.8e-4,-28.61735 4.18126,-42.46905 -0.43686,-1.14285 0.65611,-16.48127 -1.10967,-8.24985"
               style="fill:none;stroke:#000000;stroke-width:1.26872;stroke-linecap:round;stroke-linejoin:round;stroke-miterlimit:10;stroke-dasharray:none;stroke-opacity:1"
               id="path1202" />
          </g>
        </g>
        <g
           id="g1204"
           transform="matrix(1,0,0,-1,0,792)">
          <g
             id="g1206">
            <path
               d="m 315.08142,286.16922 c 1.97295,-4.67014 3.56203,-9.56021 4.05824,-14.6282"
               style="fill:none;stroke:#000000;stroke-width:1.26872;stroke-linecap:round;stroke-linejoin:round;stroke-miterlimit:10;stroke-dasharray:none;stroke-opacity:1"
               id="path1208" />
          </g>
        </g>
      </g>
    </g>
  </g>
</svg>
