<?xml version="1.0" encoding="UTF-8" standalone="no"?>
<!-- Created by Ashley Blewer - This work is licensed under a Creative Commons Attribution 4.0 International License -->

<svg
   width="544"
   height="480"
   viewBox="0 0 143.93334 127"
   version="1.1"
   id="svg2490"
   inkscape:version="1.2.2 (1:1.2.2+202212051552+b0a8486541)"
   sodipodi:docname="1887-gramophone-disc-1.svg"
   xmlns:inkscape="http://www.inkscape.org/namespaces/inkscape"
   xmlns:sodipodi="http://sodipodi.sourceforge.net/DTD/sodipodi-0.dtd"
   xmlns="http://www.w3.org/2000/svg"
   xmlns:svg="http://www.w3.org/2000/svg">
  <sodipodi:namedview
     id="namedview2492"
     pagecolor="#ffffff"
     bordercolor="#666666"
     borderopacity="1.0"
     inkscape:pageshadow="2"
     inkscape:pageopacity="0.0"
     inkscape:pagecheckerboard="0"
     inkscape:document-units="mm"
     showgrid="false"
     units="px"
     inkscape:zoom="0.90583674"
     inkscape:cx="53.541657"
     inkscape:cy="253.35691"
     inkscape:window-width="1846"
     inkscape:window-height="1136"
     inkscape:window-x="0"
     inkscape:window-y="0"
     inkscape:window-maximized="1"
     inkscape:current-layer="g4731"
     inkscape:showpageshadow="2"
     inkscape:deskcolor="#d1d1d1" />
  <defs
     id="defs2487" />
  <g
     inkscape:label="Layer 1"
     inkscape:groupmode="layer"
     id="layer1">
    <g
       id="g4731"
       transform="matrix(0.32961229,0,0,0.32903008,-241.78905,1.73126)"
       style="stroke-width:2.68698">
      <g
         id="g104528"
         transform="matrix(1,0,0,-1,0,792)"
         style="stroke-width:2.68698">
        <g
           id="g104530"
           style="stroke-width:2.68698" />
      </g>
      <g
         id="g104996"
         transform="matrix(1,0,0,-1,0,792)"
         style="stroke-width:2.68698">
        <g
           id="g104998"
           style="stroke-width:2.68698" />
      </g>
      <g
         id="g123406"
         transform="matrix(1.2705787,0,0,1.2718197,-233.90841,-442.78141)"
         style="stroke-width:1.33086">
        <g
           id="g121556"
           style="stroke-width:1.33086">
          <g
             id="g119748"
             transform="matrix(1,0,0,-1,0,792)"
             style="stroke-width:1.33086">
            <g
               id="g119750"
               style="stroke-width:1.33086">
              <path
                 d="m 770.99097,386.40771 c 5.9131,-24.04064 13.21442,-50.68357 17.86352,-75.02746"
                 style="fill:none;stroke:#000000;stroke-width:3.48251;stroke-linecap:round;stroke-linejoin:round;stroke-miterlimit:10;stroke-dasharray:none;stroke-opacity:1"
                 id="path119752"
                 sodipodi:nodetypes="cc" />
            </g>
          </g>
          <g
             id="g119754"
             transform="matrix(1,0,0,-1,0,792)"
             style="stroke-width:1.33086">
            <g
               id="g119756"
               style="stroke-width:1.33086">
              <path
                 d="m 788.85449,311.38025 c 6.57388,-30.67105 18.667,-65.22678 27.26227,-95.34692"
                 style="fill:none;stroke:#000000;stroke-width:3.48251;stroke-linecap:round;stroke-linejoin:round;stroke-miterlimit:10;stroke-dasharray:none;stroke-opacity:1"
                 id="path119758"
                 sodipodi:nodetypes="cc" />
            </g>
          </g>
          <g
             id="g119760"
             transform="matrix(1,0,0,-1,0,792)"
             style="stroke-width:1.33086">
            <g
               id="g119762"
               style="stroke-width:1.33086">
              <path
                 d="m 816.11676,216.03333 c 76.4133,-19.36856 154.68656,-20.26304 230.80784,-41.01624"
                 style="fill:none;stroke:#000000;stroke-width:3.48251;stroke-linecap:round;stroke-linejoin:round;stroke-miterlimit:10;stroke-dasharray:none;stroke-opacity:1"
                 id="path119764"
                 sodipodi:nodetypes="cc" />
            </g>
          </g>
          <g
             id="g119766"
             transform="matrix(1,0,0,-1,0,792)"
             style="stroke-width:1.33086">
            <g
               id="g119768"
               style="stroke-width:1.33086">
              <path
                 d="m 1046.9246,175.01709 c 18.2529,57.0067 37.7153,113.87046 48.8706,172.8127"
                 style="fill:none;stroke:#000000;stroke-width:3.48251;stroke-linecap:round;stroke-linejoin:round;stroke-miterlimit:10;stroke-dasharray:none;stroke-opacity:1"
                 id="path119770"
                 sodipodi:nodetypes="ccccccccc" />
            </g>
          </g>
          <g
             id="g119772"
             transform="matrix(1,0,0,-1,0,792)"
             style="stroke-width:1.33086">
            <g
               id="g119774"
               style="stroke-width:1.33086">
              <path
                 d="m 771.38202,385.6954 c 2.35027,0.14925 4.4109,2.32089 4.25492,4.70622 0.4501,2.69737 1.41204,5.35575 1.09728,8.13345 -0.24621,0.80924 0.15596,2.82776 -1.03702,2.84778"
                 style="fill:none;stroke:#000000;stroke-width:3.48251;stroke-linecap:round;stroke-linejoin:round;stroke-miterlimit:10;stroke-dasharray:none;stroke-opacity:1"
                 id="path119776" />
            </g>
          </g>
          <g
             id="g119778"
             transform="matrix(1,0,0,-1,0,792)"
             style="stroke-width:1.33086">
            <g
               id="g119780"
               style="stroke-width:1.33086">
              <path
                 d="m 775.6972,401.38284 c 91.62196,13.44667 185.92127,17.0002 278.1743,23.53189"
                 style="fill:none;stroke:#000000;stroke-width:3.48251;stroke-linecap:round;stroke-linejoin:round;stroke-miterlimit:10;stroke-dasharray:none;stroke-opacity:1"
                 id="path119782"
                 sodipodi:nodetypes="cc" />
            </g>
          </g>
          <g
             id="g119784"
             transform="matrix(1,0,0,-1,0,792)"
             style="stroke-width:1.33086">
            <g
               id="g119786"
               style="stroke-width:1.33086">
              <path
                 d="m 772.20782,385.61914 c 2.17037,-0.10336 7.43993,-0.37418 10.77424,-0.69647 6.53755,-0.11424 15.33817,-0.14153 22.81664,0.57886 15.17744,1.46934 30.45535,-1.75101 44.89966,-2.91877 5.48959,-0.88066 11.99466,-1.0635 17.22419,-2.1272 12.23229,-1.46232 23.78046,-3.84255 36.31812,-5.36168 20.83729,-2.95021 41.62176,-5.82828 62.551,-7.79587 20.17967,-3.63675 40.58273,-5.87293 61.01783,-7.71425 18.6438,-1.29811 37.1857,-4.90225 55.6552,-6.29919 4.9039,-0.53142 8.6844,-2.33619 12.3304,-5.45478"
                 style="fill:none;stroke:#000000;stroke-width:3.48251;stroke-linecap:round;stroke-linejoin:round;stroke-miterlimit:10;stroke-dasharray:none;stroke-opacity:1"
                 id="path119788"
                 sodipodi:nodetypes="cccccccccc" />
            </g>
          </g>
          <g
             id="g119790"
             transform="matrix(1,0,0,-1,0,792)"
             style="stroke-width:1.33086">
            <g
               id="g119792"
               style="stroke-width:1.33086">
              <path
                 d="m 1053.8715,424.91473 c 2.5811,-0.63819 2.4074,-4.69949 1.4639,-7.25229 -0.4289,-1.9967 -1.6148,-4.01024 -2.1038,-6.12442 -1.1444,-1.99476 -1.1833,-5.22367 -0.8159,-8.05149 -0.8324,0.34475 1.2015,-0.45405 -1.0396,1.62237"
                 style="fill:none;stroke:#000000;stroke-width:3.48251;stroke-linecap:round;stroke-linejoin:round;stroke-miterlimit:10;stroke-dasharray:none;stroke-opacity:1"
                 id="path119794"
                 sodipodi:nodetypes="ccccc" />
            </g>
          </g>
          <g
             id="g119796"
             transform="matrix(1,0,0,-1,0,792)"
             style="stroke-width:1.33086">
            <g
               id="g119798"
               style="stroke-width:1.33086">
              <path
                 d="m 806.60905,404.05751 c 1.56887,0.48954 -0.70515,-2.53956 -1.40784,-4.648 -1.48204,-1.82839 -1.78262,-1.61641 -0.89779,-2.69806 -1.90345,0.12774 2.16509,-2.78343 1.68516,-2.90674 0.2618,-1.50645 -0.47558,-3.5519 -0.81119,-5.39437 0.3455,1.1334 1.6402,-3.35255 0.62131,-2.90881"
                 style="fill:none;stroke:#000000;stroke-width:3.48251;stroke-linecap:round;stroke-linejoin:round;stroke-miterlimit:10;stroke-dasharray:none;stroke-opacity:1"
                 id="path119800"
                 sodipodi:nodetypes="cccccc" />
            </g>
          </g>
          <g
             id="g119802"
             transform="matrix(1,0,0,-1,0,792)"
             style="stroke-width:1.33086">
            <g
               id="g119804"
               style="stroke-width:1.33086">
              <path
                 d="m 1052.9719,403.71432 c 0.4691,0.61369 5.0398,-0.0791 7.242,0.24272 5.0308,0.71372 5.2092,-3.12813 2.5286,-5.0184 -0.3894,-0.26852 1.0359,-0.51469 3.0907,-1.61854 1.9366,-0.75206 0.2376,-1.25841 -0.3054,-3.29416 -1.4528,-1.51055 4.8825,-2.78542 4.5992,-2.76824 0.5086,-1.61561 -0.9714,-4.73755 -0.4279,-4.16911 1.7462,-0.86015 5.388,-1.51167 3.4197,-4.13395 -0.7442,-1.27635 -2.7641,-3.73664 0.3566,-3.75438 4.0177,0.12484 0.1619,-3.50467 1.2366,-6.37459 -0.8869,-0.63423 -0.1341,-0.51638 -0.1942,-0.39246 -1.2713,-0.1356 4.8349,0.18585 7.2831,-0.21967 -0.2559,0.63901 -1.9608,-2.63453 -2.8548,-3.34479 -0.8267,-1.11311 -2.202,-5.48762 -0.4677,-4.15588 1.6566,1.11033 4.2996,-1.09241 3.3205,-0.84769 -0.3185,-0.95532 -3.3575,-4.74367 -1.9679,-4.78954 2.2665,-0.61305 8.7033,0.34511 7.1582,-3.94895 -0.3968,-2.02109 -3.5245,-1.84212 -3.5245,-1.84212"
                 style="fill:none;stroke:#000000;stroke-width:3.48251;stroke-linecap:round;stroke-linejoin:round;stroke-miterlimit:10;stroke-dasharray:none;stroke-opacity:1"
                 id="path119806"
                 sodipodi:nodetypes="cccccccccccccccccc" />
            </g>
          </g>
          <g
             id="g119808"
             transform="matrix(1,0,0,-1,0,792)"
             style="stroke-width:1.33086">
            <g
               id="g119810"
               style="stroke-width:1.33086">
              <path
                 d="m 919.7951,400.71625 c -0.16617,0.39631 4.52978,0.2946 5.90455,2.28713 4.06397,1.16944 7.22146,3.64661 12.00867,3.8211 5.82055,1.22307 15.07829,0.86226 20.55186,0.85396 3.1455,-0.0287 6.22843,-0.77168 9.46256,-1.4131"
                 style="fill:none;stroke:#000000;stroke-width:3.48251;stroke-linecap:round;stroke-linejoin:round;stroke-miterlimit:10;stroke-dasharray:none;stroke-opacity:1"
                 id="path119812"
                 sodipodi:nodetypes="ccccc" />
            </g>
          </g>
          <g
             id="g119814"
             transform="matrix(1,0,0,-1,0,792)"
             style="stroke-width:1.33086">
            <g
               id="g119816"
               style="stroke-width:1.33086">
              <path
                 d="m 923.64801,395.11267 c 0.36393,0.55613 5.55987,1.76978 7.74303,2.82033 9.76533,2.40348 20.98323,3.27745 31.68118,1.61342 2.47696,0.0161 8.2058,-1.07776 8.19307,-1.58325"
                 style="fill:none;stroke:#000000;stroke-width:3.48251;stroke-linecap:round;stroke-linejoin:round;stroke-miterlimit:10;stroke-dasharray:none;stroke-opacity:1"
                 id="path119818"
                 sodipodi:nodetypes="cccc" />
            </g>
          </g>
          <g
             id="g119820"
             transform="matrix(1,0,0,-1,0,792)"
             style="stroke-width:1.33086">
            <g
               id="g119822"
               style="stroke-width:1.33086">
              <path
                 d="m 928.62469,389.79684 c -3.00022,0.29076 2.60671,2.66019 4.3565,2.75048 11.12741,1.52839 22.78148,1.4294 33.62079,-1.48114 1.41219,-1.34519 1.90283,-1.41117 1.90283,-1.41117"
                 style="fill:none;stroke:#000000;stroke-width:3.48251;stroke-linecap:round;stroke-linejoin:round;stroke-miterlimit:10;stroke-dasharray:none;stroke-opacity:1"
                 id="path119824"
                 sodipodi:nodetypes="cccc" />
            </g>
          </g>
          <g
             id="g119826"
             transform="matrix(1,0,0,-1,0,792)"
             style="stroke-width:1.33086">
            <g
               id="g119828"
               style="stroke-width:1.33086">
              <path
                 d="m 929.62476,386.23575 c -1.90503,-1.45418 5.11308,1.71672 6.84363,1.48872 12.35541,3.22107 26.086,0.57596 37.39259,-4.04368"
                 style="fill:none;stroke:#000000;stroke-width:3.48251;stroke-linecap:round;stroke-linejoin:round;stroke-miterlimit:10;stroke-dasharray:none;stroke-opacity:1"
                 id="path119830"
                 sodipodi:nodetypes="ccc" />
            </g>
          </g>
          <g
             id="g119832"
             transform="matrix(1,0,0,-1,0,792)"
             style="stroke-width:1.33086">
            <g
               id="g119834"
               style="stroke-width:1.33086">
              <path
                 d="m 931.0036,379.49222 c 0.28022,0.40875 4.88356,1.918 6.9249,2.94828 10.83737,3.0747 26.53445,-0.81778 36.92997,-4.05569"
                 style="fill:none;stroke:#000000;stroke-width:3.48251;stroke-linecap:round;stroke-linejoin:round;stroke-miterlimit:10;stroke-dasharray:none;stroke-opacity:1"
                 id="path119836"
                 sodipodi:nodetypes="ccc" />
            </g>
          </g>
          <g
             id="g119838"
             transform="matrix(1,0,0,-1,0,792)"
             style="stroke-width:1.33086">
            <g
               id="g119840"
               style="stroke-width:1.33086">
              <path
                 d="m 929.76294,375.58435 c -1.11356,-0.30365 5.18146,2.61911 7.40438,2.24824 11.05349,1.11752 22.63659,0.35013 33.14807,-3.18997 3.54706,-1.68787 4.47353,-3.36131 7.36267,-5.03184"
                 style="fill:none;stroke:#000000;stroke-width:3.48251;stroke-linecap:round;stroke-linejoin:round;stroke-miterlimit:10;stroke-dasharray:none;stroke-opacity:1"
                 id="path119842"
                 sodipodi:nodetypes="cccc" />
            </g>
          </g>
          <g
             id="g119844"
             transform="matrix(1,0,0,-1,0,792)"
             style="stroke-width:1.33086">
            <g
               id="g119846"
               style="stroke-width:1.33086">
              <path
                 d="m 930.36145,372.866 c -0.99698,-0.68193 6.14334,0.94444 9.26062,0.96562 9.41562,0.95447 19.23559,0.26924 28.41389,-1.69433 1.26869,-0.81267 4.29471,-3.10782 5.51514,-3.87711"
                 style="fill:none;stroke:#000000;stroke-width:3.48251;stroke-linecap:round;stroke-linejoin:round;stroke-miterlimit:10;stroke-dasharray:none;stroke-opacity:1"
                 id="path119848"
                 sodipodi:nodetypes="cccc" />
            </g>
          </g>
          <g
             id="g119850"
             transform="matrix(1,0,0,-1,0,792)"
             style="stroke-width:1.33086">
            <g
               id="g119852"
               style="stroke-width:1.33086">
              <path
                 d="m 812.20551,394.46225 c 14.57031,2.74992 29.50947,2.32199 44.14478,4.64325 13.62999,1.46555 27.13144,4.35348 40.89717,3.97381 7.61838,0.2324 15.24532,0.52642 22.8656,0.19758"
                 style="fill:none;stroke:#000000;stroke-width:1.68849;stroke-linecap:round;stroke-linejoin:round;stroke-miterlimit:10;stroke-dasharray:none;stroke-opacity:1"
                 id="path119854"
                 sodipodi:nodetypes="ccccccc" />
            </g>
          </g>
          <g
             id="g119856"
             transform="matrix(1,0,0,-1,0,792)"
             style="stroke-width:1.33086">
            <g
               id="g119858"
               style="stroke-width:1.33086">
              <path
                 d="m 976.18134,400.8891 c 17.30699,0.074 34.61366,-1.49107 51.89946,-1.79322 8.1373,-0.27813 16.2056,-1.23882 23.794,-1.7616 3.5789,-0.12807 10.4029,-0.10466 12.2363,-0.21179 l -0.2192,-0.0294"
                 style="fill:none;stroke:#000000;stroke-width:1.68849;stroke-linecap:round;stroke-linejoin:round;stroke-miterlimit:10;stroke-dasharray:none;stroke-opacity:1"
                 id="path119860" />
            </g>
          </g>
          <g
             id="g119862"
             transform="matrix(1,0,0,-1,0,792)"
             style="stroke-width:1.33086">
            <g
               id="g119864"
               style="stroke-width:1.33086">
              <path
                 d="m 1065.6804,393.51373 c -4.7284,-0.42265 -10.6988,1.39443 -15.9671,0.89417 -15.3766,0.51881 -30.7786,-0.17758 -46.1011,-0.51874 -9.50411,0.90364 -19.26778,-1.05179 -28.65827,0.22192 l 0.17639,-0.01 -0.58472,0.0147"
                 style="fill:none;stroke:#000000;stroke-width:1.68849;stroke-linecap:round;stroke-linejoin:round;stroke-miterlimit:10;stroke-dasharray:none;stroke-opacity:1"
                 id="path119866" />
            </g>
          </g>
          <g
             id="g119868"
             transform="matrix(1,0,0,-1,0,792)"
             style="stroke-width:1.33086">
            <g
               id="g119870"
               style="stroke-width:1.33086">
              <path
                 d="m 1060.6016,384.74869 c -11.91,2.18692 -24.139,0.73704 -36.055,2.91012 -9.4606,-0.37612 -18.9769,0.95846 -28.29519,-0.027 -6.437,-0.0959 -11.96937,1.20202 -18.39747,0.7555"
                 style="fill:none;stroke:#000000;stroke-width:1.68849;stroke-linecap:round;stroke-linejoin:round;stroke-miterlimit:10;stroke-dasharray:none;stroke-opacity:1"
                 id="path119872" />
            </g>
          </g>
          <g
             id="g119874"
             transform="matrix(1,0,0,-1,0,792)"
             style="stroke-width:1.33086">
            <g
               id="g119876"
               style="stroke-width:1.33086">
              <path
                 d="m 979.93024,380.16504 c 15.99381,-0.81907 32.22446,-1.08183 48.31136,-1.24515 11.9514,-1.4559 23.9795,-2.66092 35.7716,-4.85592 4.0782,-0.46673 8.6175,-0.54328 12.2217,-2.54159 l -0.51,0.0537"
                 style="fill:none;stroke:#000000;stroke-width:1.68849;stroke-linecap:round;stroke-linejoin:round;stroke-miterlimit:10;stroke-dasharray:none;stroke-opacity:1"
                 id="path119878" />
            </g>
          </g>
          <g
             id="g119880"
             transform="matrix(1,0,0,-1,0,792)"
             style="stroke-width:1.33086">
            <g
               id="g119882"
               style="stroke-width:1.33086">
              <path
                 d="m 980.53198,372.46487 c 12.30349,-1.13637 24.95782,-3.01722 37.47512,-3.58827 16.5832,-2.31301 33.4249,-1.93947 50.0132,-3.82749 2.3532,-0.86546 10.1164,-0.60142 9.4163,-2.7221 l 0.063,-0.0385"
                 style="fill:none;stroke:#000000;stroke-width:1.68849;stroke-linecap:round;stroke-linejoin:round;stroke-miterlimit:10;stroke-dasharray:none;stroke-opacity:1"
                 id="path119884" />
            </g>
          </g>
          <g
             id="g119886"
             transform="matrix(1,0,0,-1,0,792)"
             style="stroke-width:1.33086">
            <g
               id="g119888"
               style="stroke-width:1.33086">
              <path
                 d="m 981.11511,367.47552 c 19.95689,-0.52806 39.73749,-4.73103 59.72239,-5.76312 10.3283,-1.72408 21.1313,-1.03183 30.8968,-5.14073 2.5317,-0.30487 6.1989,-0.59052 8.1692,-0.48778"
                 style="fill:none;stroke:#000000;stroke-width:1.68849;stroke-linecap:round;stroke-linejoin:round;stroke-miterlimit:10;stroke-dasharray:none;stroke-opacity:1"
                 id="path119890" />
            </g>
          </g>
          <g
             id="g119892"
             transform="matrix(1,0,0,-1,0,792)"
             style="stroke-width:1.33086">
            <g
               id="g119894"
               style="stroke-width:1.33086">
              <path
                 d="m 810.92114,390.20203 c 0.52996,-1.06226 5.30772,-1.05912 8.33821,-1.7459 13.34164,-1.6427 26.84143,-2.31603 40.04839,-5.08746 16.8142,-2.40433 33.93182,-2.18392 50.54,-5.89751 l -0.27442,0.08 16.87683,-2.09112"
                 style="fill:none;stroke:#000000;stroke-width:1.68849;stroke-linecap:round;stroke-linejoin:round;stroke-miterlimit:10;stroke-dasharray:none;stroke-opacity:1"
                 id="path119896"
                 sodipodi:nodetypes="cccccc" />
            </g>
          </g>
          <g
             id="g119898"
             transform="matrix(1,0,0,-1,0,792)"
             style="stroke-width:1.33086">
            <g
               id="g119900"
               style="stroke-width:1.33086">
              <path
                 d="m 810.16229,390.76559 c 6.11879,-0.71344 14.79066,-0.43983 21.87751,-1.14071 23.51415,-2.03952 46.94023,-5.19266 70.47973,-6.63969 1.52246,-0.3325 29.2795,-3.06809 28.48407,-3.49297"
                 style="fill:none;stroke:#000000;stroke-width:1.68849;stroke-linecap:round;stroke-linejoin:round;stroke-miterlimit:10;stroke-dasharray:none;stroke-opacity:1"
                 id="path119902"
                 sodipodi:nodetypes="cccc" />
            </g>
          </g>
          <g
             id="g119904"
             transform="matrix(1,0,0,-1,0,792)"
             style="stroke-width:1.33086">
            <g
               id="g119906"
               style="stroke-width:1.33086">
              <path
                 d="m 809.87036,392.84088 c 1.72702,-1.31533 7.70001,-0.94798 11.10859,-0.78354 13.98095,1.13203 28.01543,1.79007 42.00918,0.28972 17.92252,-1.69268 35.94673,-1.62563 53.88845,-2.29946 l -0.46027,-0.003"
                 style="fill:none;stroke:#000000;stroke-width:1.68849;stroke-linecap:round;stroke-linejoin:round;stroke-miterlimit:10;stroke-dasharray:none;stroke-opacity:1"
                 id="path119908" />
            </g>
          </g>
          <g
             id="g119910"
             transform="matrix(1,0,0,-1,0,792)"
             style="stroke-width:1.33086">
            <g
               id="g119912"
               style="stroke-width:1.33086">
              <path
                 d="m 819.18079,392.65762 c 10.7933,0.30943 23.45551,1.59744 35.01426,1.37348 22.26642,0.37332 44.54197,0.62958 66.76668,0.89674 l -0.40051,-0.1376"
                 style="fill:none;stroke:#000000;stroke-width:1.68849;stroke-linecap:round;stroke-linejoin:round;stroke-miterlimit:10;stroke-dasharray:none;stroke-opacity:1"
                 id="path119914" />
            </g>
          </g>
          <g
             id="g119916"
             transform="matrix(1,0,0,-1,0,792)"
             style="stroke-width:1.33086">
            <g
               id="g119918"
               style="stroke-width:1.33086">
              <path
                 d="m 807.24341,395.35187 c 1.98694,2.19348 6.48844,0.84861 9.69348,2.25869 9.97534,0.53571 60.08637,4.85732 69.72945,5.32556"
                 style="fill:none;stroke:#000000;stroke-width:1.68849;stroke-linecap:round;stroke-linejoin:round;stroke-miterlimit:10;stroke-dasharray:none;stroke-opacity:1"
                 id="path119920"
                 sodipodi:nodetypes="ccc" />
            </g>
          </g>
          <g
             id="g119922"
             transform="matrix(1,0,0,-1,0,792)"
             style="stroke-width:1.33086">
            <g
               id="g119924"
               style="stroke-width:1.33086">
              <path
                 d="m 966.88275,405.85272 c 29.49365,3.53745 56.75855,3.65519 86.34885,5.6853"
                 style="fill:none;stroke:#000000;stroke-width:1.68849;stroke-linecap:round;stroke-linejoin:round;stroke-miterlimit:10;stroke-dasharray:none;stroke-opacity:1"
                 id="path119926"
                 sodipodi:nodetypes="cc" />
            </g>
          </g>
          <g
             id="g119928"
             transform="matrix(1,0,0,-1,0,792)"
             style="stroke-width:1.33086">
            <g
               id="g119930"
               style="stroke-width:1.33086">
              <path
                 d="m 946.69495,250.53891 c 0.67085,-0.82684 7.00798,-2.6479 9.99157,-2.78867 7.31565,0.49008 13.95043,-3.11768 20.85325,-4.35467 7.54532,0.25826 15.9764,-0.0821 22.93573,-0.66212 -0.2362,0.29481 -1.12167,0.30778 -1.63241,0.56803"
                 style="fill:none;stroke:#000000;stroke-width:1.68849;stroke-linecap:round;stroke-linejoin:round;stroke-miterlimit:10;stroke-dasharray:none;stroke-opacity:1"
                 id="path119932" />
            </g>
          </g>
          <g
             id="g119934"
             transform="matrix(1,0,0,-1,0,792)"
             style="stroke-width:1.33086">
            <g
               id="g119936"
               style="stroke-width:1.33086">
              <path
                 d="m 945.74329,238.87202 c 11.65483,-0.943 22.7179,-4.62621 33.70721,-8.37751 8.92503,-1.30778 17.93039,-2.35272 26.7219,-4.32539 -0.5592,-0.21052 -1.377,0.16043 -2.0792,-0.003"
                 style="fill:none;stroke:#000000;stroke-width:1.68849;stroke-linecap:round;stroke-linejoin:round;stroke-miterlimit:10;stroke-dasharray:none;stroke-opacity:1"
                 id="path119938" />
            </g>
          </g>
        </g>
      </g>
    </g>
  </g>
</svg>
