<?xml version="1.0" encoding="UTF-8" standalone="no"?>
<!-- Created by Ashley Blewer - This work is licensed under a Creative Commons Attribution 4.0 International License -->

<svg
   width="544"
   height="480"
   viewBox="0 0 143.93334 127"
   version="1.1"
   id="svg2490"
   inkscape:version="1.2.2 (1:1.2.2+202212051552+b0a8486541)"
   sodipodi:docname="1887-gramophone-disc-4.svg"
   xmlns:inkscape="http://www.inkscape.org/namespaces/inkscape"
   xmlns:sodipodi="http://sodipodi.sourceforge.net/DTD/sodipodi-0.dtd"
   xmlns="http://www.w3.org/2000/svg"
   xmlns:svg="http://www.w3.org/2000/svg">
  <sodipodi:namedview
     id="namedview2492"
     pagecolor="#ffffff"
     bordercolor="#666666"
     borderopacity="1.0"
     inkscape:pageshadow="2"
     inkscape:pageopacity="0.0"
     inkscape:pagecheckerboard="0"
     inkscape:document-units="mm"
     showgrid="false"
     units="px"
     inkscape:zoom="0.90583674"
     inkscape:cx="53.541657"
     inkscape:cy="253.35691"
     inkscape:window-width="1846"
     inkscape:window-height="1136"
     inkscape:window-x="0"
     inkscape:window-y="0"
     inkscape:window-maximized="1"
     inkscape:current-layer="g4731"
     inkscape:showpageshadow="2"
     inkscape:deskcolor="#d1d1d1" />
  <defs
     id="defs2487" />
  <g
     inkscape:label="Layer 1"
     inkscape:groupmode="layer"
     id="layer1">
    <g
       id="g4731"
       transform="matrix(0.32961229,0,0,0.32903008,-241.78905,1.73126)"
       style="stroke-width:2.68698">
      <g
         id="g104528"
         transform="matrix(1,0,0,-1,0,792)"
         style="stroke-width:2.68698">
        <g
           id="g104530"
           style="stroke-width:2.68698" />
      </g>
      <g
         id="g104996"
         transform="matrix(1,0,0,-1,0,792)"
         style="stroke-width:2.68698">
        <g
           id="g104998"
           style="stroke-width:2.68698" />
      </g>
      <g
         id="g3907"
         transform="matrix(1.0604012,0,0,1.0606503,-143.53776,-58.525411)"
         style="stroke-width:3.16348">
        <g
           id="g64"
           transform="matrix(1,0,0,-1,0,792)"
           style="stroke-width:3.16348">
          <g
             id="g66"
             style="stroke-width:3.16348">
            <path
               d="m 969.02271,715.16309 c -1.00204,0.21595 0.82861,3.86706 1.98917,5.64575 2.02627,3.57795 4.26816,8.61847 9.14149,8.87325 5.5153,3.87875 14.47841,0.69931 17.71622,-3.59223 0.5877,-1.57883 2.79781,-4.05081 2.44431,-4.64306"
               style="fill:none;stroke:#000000;stroke-width:4.01357;stroke-linecap:round;stroke-linejoin:round;stroke-miterlimit:10;stroke-dasharray:none;stroke-opacity:1"
               id="path68" />
          </g>
        </g>
        <g
           id="g70"
           transform="matrix(1,0,0,-1,0,792)"
           style="stroke-width:3.16348">
          <g
             id="g72"
             style="stroke-width:3.16348">
            <path
               d="m 1000.1646,721.18732 c 7.9913,0.0384 11.6701,-8.32869 12.6296,-15.07969 0.7518,-6.82565 3.1803,-13.28846 3.9778,-20.07018 1.9256,-17.69145 -3.1084,-35.02521 -6.8698,-52.10858 -2.6934,-16.82745 -8.4479,-33.48699 -19.03454,-47.01735 -5.59397,-9.94947 -12.12241,-19.68873 -21.22832,-26.76892 -3.64144,-8.32004 -16.44776,-13.33598 -23.16947,-5.74269 -1.84511,2.05668 -2.50502,4.75297 -3.32337,7.31172"
               style="fill:none;stroke:#000000;stroke-width:4.01357;stroke-linecap:round;stroke-linejoin:round;stroke-miterlimit:10;stroke-dasharray:none;stroke-opacity:1"
               id="path74" />
          </g>
        </g>
        <g
           id="g76"
           transform="matrix(1,0,0,-1,0,792)"
           style="stroke-width:3.16348">
          <g
             id="g78"
             style="stroke-width:3.16348">
            <path
               d="m 942.31421,561.71155 c -7.53987,3.76092 -12.27042,11.21203 -13.1929,19.3761 -2.78204,7.1896 -1.86932,15.3713 -1.3131,22.84344 0.2818,0.0673 0.68329,2.43567 0.79427,2.15417"
               style="fill:none;stroke:#000000;stroke-width:4.01357;stroke-linecap:round;stroke-linejoin:round;stroke-miterlimit:10;stroke-dasharray:none;stroke-opacity:1"
               id="path80" />
          </g>
        </g>
        <g
           id="g82"
           transform="matrix(1,0,0,-1,0,792)"
           style="stroke-width:3.16348">
          <g
             id="g84"
             style="stroke-width:3.16348">
            <path
               d="m 967.02905,714.36078 c 0.23475,0.0403 -5.54671,-2.09815 -7.27294,-3.89735 -5.87358,-3.15208 -9.29616,-9.14236 -13.23597,-14.26552 -2.11976,-4.93356 -4.31044,-9.66092 -4.21728,-14.74496 -0.56703,-4.61598 -1.99821,-9.9575 -1.69304,-13.37436 -0.40348,-0.48788 -1.68072,-3.84574 -3.22004,-4.94411 -1.9112,-2.59854 -3.56521,-6.11544 -5.38848,-8.97058 -3.08098,-6.72611 -4.6824,-14.20397 -5.57705,-21.66962 -0.5423,-3.53696 0.0914,-8.11767 -0.36878,-12.11535 -1.00861,-3.18526 0.67221,-6.2741 0.28194,-8.55202 1.41833,-2.20177 1.00424,-4.41413 1.70165,-4.99984 -0.49876,-0.0536 -0.19833,-1.81447 0.0436,-1.99458"
               style="fill:none;stroke:#000000;stroke-width:4.01357;stroke-linecap:round;stroke-linejoin:round;stroke-miterlimit:10;stroke-dasharray:none;stroke-opacity:1"
               id="path86" />
          </g>
        </g>
        <g
           id="g88"
           transform="matrix(1,0,0,-1,0,792)"
           style="stroke-width:3.16348">
          <g
             id="g90"
             style="stroke-width:3.16348">
            <path
               d="m 1018.005,673.47449 c 6.199,-5.99097 12.2634,-13.59102 18.619,-19.589 5.194,-5.97208 11.6578,-10.81907 18.5843,-14.76003 9.1207,-5.441 17.8362,-11.92337 28.0733,-15.16524 8.1528,-4.63983 18.1552,-5.6109 27.2904,-8.62687 l 0.7683,0.3428 0.024,0.0105"
               style="fill:none;stroke:#000000;stroke-width:4.01357;stroke-linecap:round;stroke-linejoin:round;stroke-miterlimit:10;stroke-dasharray:none;stroke-opacity:1"
               id="path92" />
          </g>
        </g>
        <g
           id="g94"
           transform="matrix(1,0,0,-1,0,792)"
           style="stroke-width:3.16348">
          <g
             id="g96"
             style="stroke-width:3.16348">
            <path
               d="m 1111.6028,613.11249 c 4.5892,3.90964 10.0286,-3.7415 9.451,-8.32452 0.5669,-7.28279 -3.4602,-16.51115 -10.8502,-18.29219 -2.35,-0.49189 -5.0013,1.80776 -3.8188,3.94645"
               style="fill:none;stroke:#000000;stroke-width:4.01357;stroke-linecap:round;stroke-linejoin:round;stroke-miterlimit:10;stroke-dasharray:none;stroke-opacity:1"
               id="path98" />
          </g>
        </g>
        <g
           id="g100"
           transform="matrix(1,0,0,-1,0,792)"
           style="stroke-width:3.16348">
          <g
             id="g102"
             style="stroke-width:3.16348">
            <path
               d="m 1122.156,607.97015 c 5.0807,-4.79847 16.1534,-7.23523 15.2728,-16.40496 0.1486,-7.1929 1.4517,-14.2745 0.825,-21.09071 v 0.19317 l -0.1804,-0.11358"
               style="fill:none;stroke:#000000;stroke-width:4.01357;stroke-linecap:round;stroke-linejoin:round;stroke-miterlimit:10;stroke-dasharray:none;stroke-opacity:1"
               id="path104" />
          </g>
        </g>
        <g
           id="g106"
           transform="matrix(1,0,0,-1,0,792)"
           style="stroke-width:3.16348">
          <g
             id="g108"
             style="stroke-width:3.16348">
            <path
               d="m 1116.7626,588.68018 c 3.8384,-1.44631 2.1579,-6.3658 2.4292,-9.54779 0.5355,-2.53228 0.2789,-5.94576 -0.1338,-7.83661"
               style="fill:none;stroke:#000000;stroke-width:4.01357;stroke-linecap:round;stroke-linejoin:round;stroke-miterlimit:10;stroke-dasharray:none;stroke-opacity:1"
               id="path110" />
          </g>
        </g>
        <g
           id="g112"
           transform="matrix(1,0,0,-1,0,792)"
           style="stroke-width:3.16348">
          <g
             id="g114"
             style="stroke-width:3.16348">
            <path
               d="m 1118.7338,571.22833 c 5.0322,-4.85647 14.2134,-2.84792 19.7081,0.19504"
               style="fill:none;stroke:#000000;stroke-width:4.01357;stroke-linecap:round;stroke-linejoin:round;stroke-miterlimit:10;stroke-dasharray:none;stroke-opacity:1"
               id="path116" />
          </g>
        </g>
        <g
           id="g118"
           transform="matrix(1,0,0,-1,0,792)"
           style="stroke-width:3.16348">
          <g
             id="g120"
             style="stroke-width:3.16348">
            <path
               d="m 1117.7869,571.46686 c -5.374,1.56258 -3.4763,-6.15373 1.3463,-5.98222 7.229,-3.60163 17.9928,-4.60698 23.5037,2.47396 0.7021,1.88233 -0.2573,3.75246 -2.4603,3.31425"
               style="fill:none;stroke:#000000;stroke-width:4.01357;stroke-linecap:round;stroke-linejoin:round;stroke-miterlimit:10;stroke-dasharray:none;stroke-opacity:1"
               id="path122" />
          </g>
        </g>
        <g
           id="g124"
           transform="matrix(1,0,0,-1,0,792)"
           style="stroke-width:3.16348">
          <g
             id="g126"
             style="stroke-width:3.16348">
            <path
               d="m 1116.7626,564.54578 c -3.0536,-2.71004 -2.4756,-7.95893 2.6902,-8.94034 7.442,-2.64687 17.7729,-1.26999 22.6438,5.18687 -0.3755,1.38021 -1.1809,2.6692 -1.2598,4.117"
               style="fill:none;stroke:#000000;stroke-width:4.01357;stroke-linecap:round;stroke-linejoin:round;stroke-miterlimit:10;stroke-dasharray:none;stroke-opacity:1"
               id="path128" />
          </g>
        </g>
        <g
           id="g130"
           transform="matrix(1,0,0,-1,0,792)"
           style="stroke-width:3.16348">
          <g
             id="g132"
             style="stroke-width:3.16348">
            <path
               d="m 1137.2581,591.11365 c 2.3645,4.23927 8.9632,4.54042 10.7768,-0.4276 2.3469,-3.67628 1.3907,-10.66289 -4.2919,-9.91168 -1.4307,5.63804 -2.4253,0.84585 -3.5907,-3.20238 0.222,-1.43256 -1.2577,-3.09946 -0.6819,-4.27942"
               style="fill:none;stroke:#000000;stroke-width:4.01357;stroke-linecap:round;stroke-linejoin:round;stroke-miterlimit:10;stroke-dasharray:none;stroke-opacity:1"
               id="path134" />
          </g>
        </g>
        <g
           id="g136"
           transform="matrix(1,0,0,-1,0,792)"
           style="stroke-width:3.16348">
          <g
             id="g138"
             style="stroke-width:3.16348">
            <path
               d="m 1141.7582,587.80743 c 0.9355,2.05099 2.5021,1.43933 4.3242,1.29309"
               style="fill:none;stroke:#000000;stroke-width:4.01357;stroke-linecap:round;stroke-linejoin:round;stroke-miterlimit:10;stroke-dasharray:none;stroke-opacity:1"
               id="path140" />
          </g>
        </g>
        <g
           id="g142"
           transform="matrix(1,0,0,-1,0,792)"
           style="stroke-width:3.16348">
          <g
             id="g144"
             style="stroke-width:3.16348">
            <path
               d="m 989.23792,582.78436 c 6.16364,6.52613 16.35808,10.24802 25.49468,12.22661 15.6272,3.21444 31.7119,3.92412 47.5878,4.13638 14.7975,0.14675 29.5741,-3.62805 43.2942,-7.86345 -0.2142,-0.0895 2.3228,-0.0926 0.9305,-0.21907"
               style="fill:none;stroke:#000000;stroke-width:4.01357;stroke-linecap:round;stroke-linejoin:round;stroke-miterlimit:10;stroke-dasharray:none;stroke-opacity:1"
               id="path146" />
          </g>
        </g>
        <g
           id="g148"
           transform="matrix(1,0,0,-1,0,792)"
           style="stroke-width:3.16348">
          <g
             id="g150"
             style="stroke-width:3.16348">
            <path
               d="m 1076.9833,598.20551 c 3.2817,2.04893 6.2681,6.76503 7.4006,10.99261 2.3086,4.22733 2.8745,10.95787 0.085,14.75895"
               style="fill:none;stroke:#000000;stroke-width:4.01357;stroke-linecap:round;stroke-linejoin:round;stroke-miterlimit:10;stroke-dasharray:none;stroke-opacity:1"
               id="path152" />
          </g>
        </g>
        <g
           id="g154"
           transform="matrix(1,0,0,-1,0,792)"
           style="stroke-width:3.16348">
          <g
             id="g156"
             style="stroke-width:3.16348">
            <path
               d="m 1085.6892,617.01373 c -18.6243,3.70559 -33.9924,15.72064 -49.6332,25.69334 -6.9038,5.99006 -12.3588,13.39046 -17.8592,20.62933"
               style="fill:none;stroke:#000000;stroke-width:4.01357;stroke-linecap:round;stroke-linejoin:round;stroke-miterlimit:10;stroke-dasharray:none;stroke-opacity:1"
               id="path158" />
          </g>
        </g>
        <g
           id="g160"
           transform="matrix(1,0,0,-1,0,792)"
           style="stroke-width:3.16348">
          <g
             id="g162"
             style="stroke-width:3.16348">
            <path
               d="m 1082.3766,606.26508 c -15.8951,4.99834 -32.5761,6.45158 -49.0357,8.44296 -10.89,0.29891 -18.5203,-1.03284 -27.7821,-1.18286"
               style="fill:none;stroke:#000000;stroke-width:4.01357;stroke-linecap:round;stroke-linejoin:round;stroke-miterlimit:10;stroke-dasharray:none;stroke-opacity:1"
               id="path164"
               sodipodi:nodetypes="ccc" />
          </g>
        </g>
        <g
           id="g166"
           transform="matrix(1,0,0,-1,0,792)"
           style="stroke-width:3.16348">
          <g
             id="g168"
             style="stroke-width:3.16348">
            <path
               d="m 969.40314,715.28351 c 4.44154,-11.32772 8.50953,-23.47355 17.96985,-31.73631 8.76535,-8.24201 18.71011,-15.1636 27.34961,-23.51012 l -0.2053,-0.11764"
               style="fill:none;stroke:#000000;stroke-width:4.01357;stroke-linecap:round;stroke-linejoin:round;stroke-miterlimit:10;stroke-dasharray:none;stroke-opacity:1"
               id="path170" />
          </g>
        </g>
        <g
           id="g172"
           transform="matrix(1,0,0,-1,0,792)"
           style="stroke-width:3.16348">
          <g
             id="g174"
             style="stroke-width:3.16348">
            <path
               d="m 944.62677,690.11731 c 0.003,-9.19712 0.75985,-19.66645 7.5144,-26.72101 3.51862,-5.13224 9.67097,-8.10127 14.51471,-12.03296 10.90089,-5.51281 22.40128,-10.62807 34.69462,-12.3493 2.955,-0.68004 6.8799,-2.33002 8.2977,-1.94516"
               style="fill:none;stroke:#000000;stroke-width:4.01357;stroke-linecap:round;stroke-linejoin:round;stroke-miterlimit:10;stroke-dasharray:none;stroke-opacity:1"
               id="path176" />
          </g>
        </g>
        <g
           id="g178"
           transform="matrix(1,0,0,-1,0,792)"
           style="stroke-width:3.16348">
          <g
             id="g180"
             style="stroke-width:3.16348">
            <path
               d="m 928.3786,645.62152 c 5.10149,4.26813 11.10063,7.43894 17.42518,9.44106 5.89296,1.4244 12.50161,1.39386 17.99496,-1.4045 1.06704,-0.60456 2.05051,-1.36784 2.85714,-2.29474"
               style="fill:none;stroke:#000000;stroke-width:4.01357;stroke-linecap:round;stroke-linejoin:round;stroke-miterlimit:10;stroke-dasharray:none;stroke-opacity:1"
               id="path182"
               sodipodi:nodetypes="ccc" />
          </g>
        </g>
        <g
           id="g184"
           transform="matrix(1,0,0,-1,0,792)"
           style="stroke-width:3.16348">
          <g
             id="g186"
             style="stroke-width:3.16348">
            <path
               d="m 926.33741,611.82691 c 4.95699,-6.98642 13.10114,0.0821 21.1185,0.68199 18.07497,0.59505 36.16075,3.74 54.20629,1.97073"
               style="fill:none;stroke:#000000;stroke-width:4.01357;stroke-linecap:round;stroke-linejoin:round;stroke-miterlimit:10;stroke-dasharray:none;stroke-opacity:1"
               id="path188"
               sodipodi:nodetypes="ccc" />
          </g>
        </g>
        <g
           id="g190"
           transform="matrix(1,0,0,-1,0,792)"
           style="stroke-width:3.16348">
          <g
             id="g192"
             style="stroke-width:3.16348">
            <path
               d="m 927.06445,593.13141 c 1.33141,4.8161 5.63147,8.0064 9.45985,11.13812 10.28966,6.67739 23.22193,7.70357 35.4007,8.5154 9.47493,0.59887 21.49603,2.20433 29.4174,0.28118 l -0.2966,-0.12658 0.1653,-0.12635"
               style="fill:none;stroke:#000000;stroke-width:4.01357;stroke-linecap:round;stroke-linejoin:round;stroke-miterlimit:10;stroke-dasharray:none;stroke-opacity:1"
               id="path194" />
          </g>
        </g>
        <g
           id="g196"
           transform="matrix(1,0,0,-1,0,792)"
           style="stroke-width:3.16348">
          <g
             id="g198"
             style="stroke-width:3.16348">
            <path
               d="m 933.71716,569.77673 c 4.01939,-1.24056 9.98197,2.29085 14.3311,4.17094 6.67869,3.22417 14.07615,4.60909 20.34706,8.6859 10.43437,3.78994 18.98715,10.70848 29.06778,15.14988"
               style="fill:none;stroke:#000000;stroke-width:4.01357;stroke-linecap:round;stroke-linejoin:round;stroke-miterlimit:10;stroke-dasharray:none;stroke-opacity:1"
               id="path200" />
          </g>
        </g>
        <g
           id="g202"
           transform="matrix(1,0,0,-1,0,792)"
           style="stroke-width:3.16348">
          <g
             id="g204"
             style="stroke-width:3.16348">
            <path
               d="m 943.60701,561.31674 c 1.39637,2.46487 3.6274,5.13694 6.80006,7.24943 2.83611,4.28279 14.71595,10.59911 17.98825,14.0674"
               style="fill:none;stroke:#000000;stroke-width:4.01357;stroke-linecap:round;stroke-linejoin:round;stroke-miterlimit:10;stroke-dasharray:none;stroke-opacity:1"
               id="path206"
               sodipodi:nodetypes="ccc" />
          </g>
        </g>
        <g
           id="g208"
           transform="matrix(1,0,0,-1,0,792)"
           style="stroke-width:3.16348">
          <g
             id="g210"
             style="stroke-width:3.16348">
            <path
               d="m 1101.0206,611.12958 c 0.3154,-4.10467 -1.4152,-8.70781 -3.3861,-11.67139"
               style="fill:none;stroke:#000000;stroke-width:4.01357;stroke-linecap:round;stroke-linejoin:round;stroke-miterlimit:10;stroke-dasharray:none;stroke-opacity:1"
               id="path212" />
          </g>
        </g>
        <g
           id="g214"
           transform="matrix(1,0,0,-1,0,792)"
           style="stroke-width:3.16348">
          <g
             id="g216"
             style="stroke-width:3.16348">
            <path
               d="m 1140.1429,557.33289 c 0.161,-2.572 -0.2299,-8.7206 -0.5954,-12.64944 -0.4759,-16.42821 -0.2277,-33.14541 -5.8702,-48.80197 -0.8616,-0.52578 -0.7501,-8.72847 -1.2548,-6.77424"
               style="fill:none;stroke:#000000;stroke-width:4.01357;stroke-linecap:round;stroke-linejoin:round;stroke-miterlimit:10;stroke-dasharray:none;stroke-opacity:1"
               id="path218"
               sodipodi:nodetypes="cccc" />
          </g>
        </g>
        <g
           id="g220"
           transform="matrix(1,0,0,-1,0,792)"
           style="stroke-width:3.16348">
          <g
             id="g222"
             style="stroke-width:3.16348">
            <path
               d="m 1118.7599,553.24109 c 0.5897,-1.77156 -0.3088,-5.63439 -0.1648,-7.34617"
               style="fill:none;stroke:#000000;stroke-width:4.01357;stroke-linecap:round;stroke-linejoin:round;stroke-miterlimit:10;stroke-dasharray:none;stroke-opacity:1"
               id="path224" />
          </g>
        </g>
        <g
           id="g226"
           transform="matrix(1,0,0,-1,0,792)"
           style="stroke-width:3.16348">
          <g
             id="g228"
             style="stroke-width:3.16348">
            <path
               d="m 1113.506,542.33154 c -1.1222,0.0864 2.4126,-0.65516 2.586,-0.39089"
               style="fill:none;stroke:#000000;stroke-width:4.01357;stroke-linecap:round;stroke-linejoin:round;stroke-miterlimit:10;stroke-dasharray:none;stroke-opacity:1"
               id="path230" />
          </g>
        </g>
        <g
           id="g232"
           transform="matrix(1,0,0,-1,0,792)"
           style="stroke-width:3.16348">
          <g
             id="g234"
             style="stroke-width:3.16348">
            <path
               d="m 1117.0906,536.21954 c -2.5631,7.43522 8.3758,13.85113 14.3615,8.61253 6.5034,-2.90358 4.3491,-13.38551 -1.2391,-15.28261"
               style="fill:none;stroke:#000000;stroke-width:4.01357;stroke-linecap:round;stroke-linejoin:round;stroke-miterlimit:10;stroke-dasharray:none;stroke-opacity:1"
               id="path236" />
          </g>
        </g>
        <g
           id="g238"
           transform="matrix(1,0,0,-1,0,792)"
           style="stroke-width:3.16348">
          <g
             id="g240"
             style="stroke-width:3.16348">
            <path
               d="m 1112.0538,536.36151 c 9.7779,-0.73537 19.785,-7.511 20.7776,-17.92551 1.3645,-7.20803 -0.2477,-17.00644 -8.1423,-19.71806"
               style="fill:none;stroke:#000000;stroke-width:4.01357;stroke-linecap:round;stroke-linejoin:round;stroke-miterlimit:10;stroke-dasharray:none;stroke-opacity:1"
               id="path242" />
          </g>
        </g>
        <g
           id="g244"
           transform="matrix(1,0,0,-1,0,792)"
           style="stroke-width:3.16348">
          <g
             id="g246"
             style="stroke-width:3.16348">
            <path
               d="m 1112.1906,535.42389 c -13.6733,-1.03462 -20.3218,-19.68746 -13.031,-30.18141 1.0254,-0.94073 5.0904,-4.21504 5.372,-2.75646"
               style="fill:none;stroke:#000000;stroke-width:4.01357;stroke-linecap:round;stroke-linejoin:round;stroke-miterlimit:10;stroke-dasharray:none;stroke-opacity:1"
               id="path248" />
          </g>
        </g>
        <g
           id="g250"
           transform="matrix(1,0,0,-1,0,792)"
           style="stroke-width:3.16348">
          <g
             id="g252"
             style="stroke-width:3.16348">
            <path
               d="m 1102.5537,501.28244 c -3.4742,-5.39121 4.7925,-4.73189 8.0133,-5.28195 3.7319,-0.48092 10.6872,-4.99564 12.6324,-0.76018 0.797,1.32088 0.8603,2.70589 1.3843,4.1353"
               style="fill:none;stroke:#000000;stroke-width:4.01357;stroke-linecap:round;stroke-linejoin:round;stroke-miterlimit:10;stroke-dasharray:none;stroke-opacity:1"
               id="path254" />
          </g>
        </g>
        <g
           id="g256"
           transform="matrix(1,0,0,-1,0,792)"
           style="stroke-width:3.16348">
          <g
             id="g258"
             style="stroke-width:3.16348">
            <path
               d="m 1105.2227,501.38315 c 5.9118,-0.15126 11.8811,-1.15919 17.6618,-1.56277"
               style="fill:none;stroke:#000000;stroke-width:4.01357;stroke-linecap:round;stroke-linejoin:round;stroke-miterlimit:10;stroke-dasharray:none;stroke-opacity:1"
               id="path260" />
          </g>
        </g>
        <g
           id="g262"
           transform="matrix(1,0,0,-1,0,792)"
           style="stroke-width:3.16348">
          <g
             id="g264"
             style="stroke-width:3.16348">
            <path
               d="m 1132.4225,489.10724 c 2.0546,-0.28309 7.8693,-1.72674 10.0093,-1.99106"
               style="fill:none;stroke:#000000;stroke-width:4.01357;stroke-linecap:round;stroke-linejoin:round;stroke-miterlimit:10;stroke-dasharray:none;stroke-opacity:1"
               id="path266" />
          </g>
        </g>
        <g
           id="g268"
           transform="matrix(1,0,0,-1,0,792)"
           style="stroke-width:3.16348">
          <g
             id="g270"
             style="stroke-width:3.16348">
            <path
               d="m 1080.2123,446.59338 c 13.1981,10.58193 28.2618,18.65234 42.3402,27.98985 6.6996,3.37758 14.0398,6.11515 19.1899,11.76126"
               style="fill:none;stroke:#000000;stroke-width:4.01357;stroke-linecap:round;stroke-linejoin:round;stroke-miterlimit:10;stroke-dasharray:none;stroke-opacity:1"
               id="path272" />
          </g>
        </g>
        <g
           id="g274"
           transform="matrix(1,0,0,-1,0,792)"
           style="stroke-width:3.16348">
          <g
             id="g276"
             style="stroke-width:3.16348">
            <path
               d="m 1128.2338,475.46506 c -0.053,-2.26399 -0.7054,-4.76326 -0.3108,-6.71109"
               style="fill:none;stroke:#000000;stroke-width:4.01357;stroke-linecap:round;stroke-linejoin:round;stroke-miterlimit:10;stroke-dasharray:none;stroke-opacity:1"
               id="path278" />
          </g>
        </g>
        <g
           id="g280"
           transform="matrix(1,0,0,-1,0,792)"
           style="stroke-width:3.16348">
          <g
             id="g282"
             style="stroke-width:3.16348">
            <path
               d="m 1125.9341,455.66281 c 0.5244,-2.4265 -0.1134,-5.32266 1.2921,-7.45199"
               style="fill:none;stroke:#000000;stroke-width:4.01357;stroke-linecap:round;stroke-linejoin:round;stroke-miterlimit:10;stroke-dasharray:none;stroke-opacity:1"
               id="path284" />
          </g>
        </g>
        <g
           id="g286"
           transform="matrix(1,0,0,-1,0,792)"
           style="stroke-width:3.16348">
          <g
             id="g288"
             style="stroke-width:3.16348">
            <path
               d="m 1114.901,468.4924 c 5.1371,0.0182 10.908,-1.76825 15.9321,-2.95918 l 0.1648,0.0391"
               style="fill:none;stroke:#000000;stroke-width:4.01357;stroke-linecap:round;stroke-linejoin:round;stroke-miterlimit:10;stroke-dasharray:none;stroke-opacity:1"
               id="path290" />
          </g>
        </g>
        <g
           id="g292"
           transform="matrix(1,0,0,-1,0,792)"
           style="stroke-width:3.16348">
          <g
             id="g294"
             style="stroke-width:3.16348">
            <path
               d="m 1112.656,464.60818 c 4.1583,0.47011 10.0714,-2.01926 14.0054,-3.40699 l 0.1738,0.0531"
               style="fill:none;stroke:#000000;stroke-width:4.01357;stroke-linecap:round;stroke-linejoin:round;stroke-miterlimit:10;stroke-dasharray:none;stroke-opacity:1"
               id="path296" />
          </g>
        </g>
        <g
           id="g298"
           transform="matrix(1,0,0,-1,0,792)"
           style="stroke-width:3.16348">
          <g
             id="g300"
             style="stroke-width:3.16348">
            <path
               d="m 1131.9845,464.32355 c 1.4826,-8.10753 1.5448,-16.48328 3.4319,-24.41922"
               style="fill:none;stroke:#000000;stroke-width:4.01357;stroke-linecap:round;stroke-linejoin:round;stroke-miterlimit:10;stroke-dasharray:none;stroke-opacity:1"
               id="path302" />
          </g>
        </g>
        <g
           id="g304"
           transform="matrix(1,0,0,-1,0,792)"
           style="stroke-width:3.16348">
          <g
             id="g306"
             style="stroke-width:3.16348">
            <path
               d="m 1126.8352,461.25429 c 1.1511,-7.51579 2.1977,-18.87182 4.5027,-26.31568"
               style="fill:none;stroke:#000000;stroke-width:4.01357;stroke-linecap:round;stroke-linejoin:round;stroke-miterlimit:10;stroke-dasharray:none;stroke-opacity:1"
               id="path308"
               sodipodi:nodetypes="cc" />
          </g>
        </g>
        <g
           id="g310"
           transform="matrix(1,0,0,-1,0,792)"
           style="stroke-width:3.16348">
          <g
             id="g312"
             style="stroke-width:3.16348">
            <path
               d="m 1134.4758,437.86169 c 7.184,-1.73847 16.2329,0.41902 21.7892,-5.63348 3.6995,-5.5454 -5.3496,-7.09608 -8.6441,-4.32117 -4.859,2.23255 -8.7997,5.83581 -14.3355,6.2559 l -0.7971,0.26923 -0.5638,0.19045"
               style="fill:none;stroke:#000000;stroke-width:4.01357;stroke-linecap:round;stroke-linejoin:round;stroke-miterlimit:10;stroke-dasharray:none;stroke-opacity:1"
               id="path314" />
          </g>
        </g>
        <g
           id="g316"
           transform="matrix(1,0,0,-1,0,792)"
           style="stroke-width:3.16348">
          <g
             id="g318"
             style="stroke-width:3.16348">
            <path
               d="m 1134.1472,445.50302 c 3.9255,-1.98387 8.5869,-3.77373 12.6976,-5.67004"
               style="fill:none;stroke:#000000;stroke-width:4.01357;stroke-linecap:round;stroke-linejoin:round;stroke-miterlimit:10;stroke-dasharray:none;stroke-opacity:1"
               id="path320" />
          </g>
        </g>
        <g
           id="g322"
           transform="matrix(1,0,0,-1,0,792)"
           style="stroke-width:3.16348">
          <g
             id="g324"
             style="stroke-width:3.16348">
            <path
               d="m 1146.2528,439.92291 c -1.3747,-0.76915 -3.0863,-2.41099 -4.6512,-2.03058"
               style="fill:none;stroke:#000000;stroke-width:4.01357;stroke-linecap:round;stroke-linejoin:round;stroke-miterlimit:10;stroke-dasharray:none;stroke-opacity:1"
               id="path326" />
          </g>
        </g>
        <g
           id="g328"
           transform="matrix(1,0,0,-1,0,792)"
           style="stroke-width:3.16348">
          <g
             id="g330"
             style="stroke-width:3.16348">
            <path
               d="m 1136.5355,433.24271 c -20.5402,-13.07792 -39.3946,-28.55866 -58.2373,-43.92087"
               style="fill:none;stroke:#000000;stroke-width:4.01357;stroke-linecap:round;stroke-linejoin:round;stroke-miterlimit:10;stroke-dasharray:none;stroke-opacity:1"
               id="path332" />
          </g>
        </g>
        <g
           id="g334"
           transform="matrix(1,0,0,-1,0,792)"
           style="stroke-width:3.16348">
          <g
             id="g336"
             style="stroke-width:3.16348">
            <path
               d="m 960.67542,472.13718 c 11.12569,-4.02702 22.03774,-8.52949 33.46403,-11.62817 17.62285,-5.29133 35.43615,-10.58182 53.87145,-12.20751 9.6689,-0.927 19.3414,-2.2823 28.711,-4.59978 l 0.7201,0.0181 -0.6009,-0.13092"
               style="fill:none;stroke:#000000;stroke-width:4.01357;stroke-linecap:round;stroke-linejoin:round;stroke-miterlimit:10;stroke-dasharray:none;stroke-opacity:1"
               id="path338" />
          </g>
        </g>
        <g
           id="g340"
           transform="matrix(1,0,0,-1,0,792)"
           style="stroke-width:3.16348">
          <g
             id="g342"
             style="stroke-width:3.16348">
            <path
               d="m 1080.4823,446.32672 c 1.2917,-0.45926 -0.6963,-2.09267 -1.5252,-2.51161"
               style="fill:none;stroke:#000000;stroke-width:4.01357;stroke-linecap:round;stroke-linejoin:round;stroke-miterlimit:10;stroke-dasharray:none;stroke-opacity:1"
               id="path344" />
          </g>
        </g>
        <g
           id="g346"
           transform="matrix(1,0,0,-1,0,792)"
           style="stroke-width:3.16348">
          <g
             id="g348"
             style="stroke-width:3.16348">
            <path
               d="m 952.93799,422.32489 c 41.23629,-13.50392 83.84011,-22.13573 125.51071,-34.10843"
               style="fill:none;stroke:#000000;stroke-width:4.01357;stroke-linecap:round;stroke-linejoin:round;stroke-miterlimit:10;stroke-dasharray:none;stroke-opacity:1"
               id="path350" />
          </g>
        </g>
        <g
           id="g352"
           transform="matrix(1,0,0,-1,0,792)"
           style="stroke-width:3.16348">
          <g
             id="g354"
             style="stroke-width:3.16348">
            <path
               d="m 972.41315,437.94427 c -6.29264,-5.94723 -13.00209,-9.95614 -19.47516,-15.61938"
               style="fill:none;stroke:#000000;stroke-width:4.01357;stroke-linecap:round;stroke-linejoin:round;stroke-miterlimit:10;stroke-dasharray:none;stroke-opacity:1"
               id="path356"
               sodipodi:nodetypes="cc" />
          </g>
        </g>
        <g
           id="g358"
           transform="matrix(1,0,0,-1,0,792)"
           style="stroke-width:3.16348">
          <g
             id="g360"
             style="stroke-width:3.16348">
            <path
               d="m 973.48114,427.19733 c -0.0444,4.47156 0.28535,10.81587 0.0884,16.04049 -0.13319,6.55816 -0.92852,13.23675 -0.0459,19.51241 -0.62409,0.59872 0.49663,3.14552 -0.0199,2.78934"
               style="fill:none;stroke:#000000;stroke-width:4.01357;stroke-linecap:round;stroke-linejoin:round;stroke-miterlimit:10;stroke-dasharray:none;stroke-opacity:1"
               id="path362" />
          </g>
        </g>
        <g
           id="g364"
           transform="matrix(1,0,0,-1,0,792)"
           style="stroke-width:3.16348">
          <g
             id="g366"
             style="stroke-width:3.16348">
            <path
               d="m 960.06952,473.26285 c 8.76411,5.72815 26.86075,16.36096 26.86075,16.36096 l 10.48132,11.75772"
               style="fill:none;stroke:#000000;stroke-width:4.01357;stroke-linecap:round;stroke-linejoin:round;stroke-miterlimit:10;stroke-dasharray:none;stroke-opacity:1"
               id="path368"
               sodipodi:nodetypes="ccc" />
          </g>
        </g>
        <g
           id="g370"
           transform="matrix(1,0,0,-1,0,792)"
           style="stroke-width:3.16348">
          <g
             id="g372"
             style="stroke-width:3.16348">
            <path
               d="m 1009.2789,471.81174 c -12.48414,3.2232 -27.39108,19.52596 -11.86731,29.56979 13.62961,9.48276 31.07661,11.01569 47.18471,12.62043 17.4478,0.91304 35.1416,-1.523 51.5016,-7.73897 l -0.3873,0.0427 -0.2595,-0.26099"
               style="fill:none;stroke:#000000;stroke-width:4.01357;stroke-linecap:round;stroke-linejoin:round;stroke-miterlimit:10;stroke-dasharray:none;stroke-opacity:1"
               id="path374" />
          </g>
        </g>
        <g
           id="g376"
           transform="matrix(1,0,0,-1,0,792)"
           style="stroke-width:3.16348">
          <g
             id="g378"
             style="stroke-width:3.16348">
            <path
               d="m 1111.4514,492.77979 c 7.5396,-9.34213 -4.8109,-19.41014 -13.5954,-21.23861 -21.486,-7.62182 -44.8564,-5.96967 -67.1582,-4.04426 -9.129,1.40093 -12.8573,0.87877 -21.4189,4.31482"
               style="fill:none;stroke:#000000;stroke-width:4.01357;stroke-linecap:round;stroke-linejoin:round;stroke-miterlimit:10;stroke-dasharray:none;stroke-opacity:1"
               id="path380"
               sodipodi:nodetypes="cccc" />
          </g>
        </g>
        <g
           id="g382"
           transform="matrix(1,0,0,-1,0,792)"
           style="stroke-width:3.16348">
          <g
             id="g384"
             style="stroke-width:3.16348">
            <path
               d="m 1035.0975,498.88144 c 9.43,3.38096 19.8717,3.23946 29.5479,1.0928 4.8659,-1.62585 13.7725,-5.21473 11.3978,-11.6336 -3.8362,-5.85424 -11.7189,-5.85746 -17.9716,-6.20376 -7.6946,0.20174 -15.7255,0.24894 -22.936,3.24105 -5.8617,2.23204 -5.8881,11.90996 0.1289,13.87201 0.5772,0.28442 1.233,0.21603 1.7872,-0.0472"
               style="fill:none;stroke:#000000;stroke-width:4.01357;stroke-linecap:round;stroke-linejoin:round;stroke-miterlimit:10;stroke-dasharray:none;stroke-opacity:1"
               id="path386" />
          </g>
        </g>
        <g
           id="g388"
           transform="matrix(1,0,0,-1,0,792)"
           style="stroke-width:3.16348">
          <g
             id="g390"
             style="stroke-width:3.16348">
            <path
               d="m 975.30176,425.76199 c 32.83064,-11.92688 67.29184,-18.31145 100.75204,-28.10607"
               style="fill:none;stroke:#000000;stroke-width:4.01357;stroke-linecap:round;stroke-linejoin:round;stroke-miterlimit:10;stroke-dasharray:none;stroke-opacity:1"
               id="path392" />
          </g>
        </g>
        <g
           id="g394"
           transform="matrix(1,0,0,-1,0,792)"
           style="stroke-width:3.16348">
          <g
             id="g396"
             style="stroke-width:3.16348">
            <path
               d="m 1072.7671,442.40417 c 2.0925,-14.81464 0.041,-29.98252 3.3089,-44.66575"
               style="fill:none;stroke:#000000;stroke-width:4.01357;stroke-linecap:round;stroke-linejoin:round;stroke-miterlimit:10;stroke-dasharray:none;stroke-opacity:1"
               id="path398" />
          </g>
        </g>
        <g
           id="g400"
           transform="matrix(1,0,0,-1,0,792)"
           style="stroke-width:3.16348">
          <g
             id="g402"
             style="stroke-width:3.16348">
            <path
               d="m 1076.076,397.73842 c 6.4705,2.03004 14.1725,11.57651 20.3802,15.42455 10.2259,7.04981 19.3744,15.45362 29.4285,22.8341 0.5959,0.67127 3.8038,4.34933 3.9367,3.26938"
               style="fill:none;stroke:#000000;stroke-width:4.01357;stroke-linecap:round;stroke-linejoin:round;stroke-miterlimit:10;stroke-dasharray:none;stroke-opacity:1"
               id="path404"
               sodipodi:nodetypes="cccc" />
          </g>
        </g>
        <g
           id="g406"
           transform="matrix(1,0,0,-1,0,792)"
           style="stroke-width:3.16348">
          <g
             id="g408"
             style="stroke-width:3.16348">
            <path
               d="m 1016.6807,505.72696 c 2.0436,-1.56498 6.2719,-2.4879 8.5091,-2.36672 1.5345,-0.14403 2.1879,-2.07926 3.0313,-3.13333"
               style="fill:none;stroke:#000000;stroke-width:2.00679;stroke-linecap:round;stroke-linejoin:round;stroke-miterlimit:10;stroke-dasharray:none;stroke-opacity:1"
               id="path410" />
          </g>
        </g>
        <g
           id="g412"
           transform="matrix(1,0,0,-1,0,792)"
           style="stroke-width:3.16348">
          <g
             id="g414"
             style="stroke-width:3.16348">
            <path
               d="m 1008.1016,477.7305 c 1.0024,5.84724 3.8664,3.77592 8.0898,3.19597 3.6613,-0.42587 5.3781,4.86729 9.9228,2.9036 0.5851,-0.23777 1.3602,-2.11951 1.994,-1.5937"
               style="fill:none;stroke:#000000;stroke-width:2.00679;stroke-linecap:round;stroke-linejoin:round;stroke-miterlimit:10;stroke-dasharray:none;stroke-opacity:1"
               id="path416" />
          </g>
        </g>
        <g
           id="g418"
           transform="matrix(1,0,0,-1,0,792)"
           style="stroke-width:3.16348">
          <g
             id="g420"
             style="stroke-width:3.16348">
            <path
               d="m 1077.3118,497.96658 c 3.0472,-1.50644 5.4082,2.87948 7.7032,3.01638 2.8186,-0.99945 8.3761,3.17235 10.1986,2.36979"
               style="fill:none;stroke:#000000;stroke-width:2.00679;stroke-linecap:round;stroke-linejoin:round;stroke-miterlimit:10;stroke-dasharray:none;stroke-opacity:1"
               id="path422" />
          </g>
        </g>
        <g
           id="g424"
           transform="matrix(1,0,0,-1,0,792)"
           style="stroke-width:3.16348">
          <g
             id="g426"
             style="stroke-width:3.16348">
            <path
               d="m 1084.1538,483.40356 c -1.1414,-4.42696 5.5022,1.26996 6.7987,-2.80353 2.8115,-0.76965 7.8651,-0.2345 10.5437,-3.23192 l 0.825,-0.0167"
               style="fill:none;stroke:#000000;stroke-width:2.00679;stroke-linecap:round;stroke-linejoin:round;stroke-miterlimit:10;stroke-dasharray:none;stroke-opacity:1"
               id="path428" />
          </g>
        </g>
        <g
           id="g430"
           transform="matrix(1,0,0,-1,0,792)"
           style="stroke-width:3.16348">
          <g
             id="g432"
             style="stroke-width:3.16348">
            <path
               d="m 1015.6773,453.72725 c -2.5467,-3.09248 -8.7624,-10.53184 -7.6304,-14.71574 1.2315,-3.85974 1.9357,-8.09201 4.8168,-11.17025 4.3159,-5.51216 13.615,-6.06642 18.3754,-0.85544 3.3494,3.64427 3.4512,9.11824 2.5999,13.73478 -0.8671,3.94721 -3.1024,7.47916 -5.7803,10.42723 l -0.5962,0.26545"
               style="fill:none;stroke:#000000;stroke-width:2.00679;stroke-linecap:round;stroke-linejoin:round;stroke-miterlimit:10;stroke-dasharray:none;stroke-opacity:1"
               id="path434"
               sodipodi:nodetypes="ccccccc" />
          </g>
        </g>
        <g
           id="g436"
           transform="matrix(1,0,0,-1,0,792)"
           style="stroke-width:3.16348">
          <g
             id="g438"
             style="stroke-width:3.16348">
            <path
               d="m 999.69281,456.1127 c 0.54449,-0.31935 -1.72348,-5.3465 1.67239,-4.97417 4.0234,0.10914 0.1749,4.32246 1.1159,5.19176"
               style="fill:none;stroke:#000000;stroke-width:2.00679;stroke-linecap:round;stroke-linejoin:round;stroke-miterlimit:10;stroke-dasharray:none;stroke-opacity:1"
               id="path440" />
          </g>
        </g>
        <g
           id="g442"
           transform="matrix(1,0,0,-1,0,792)"
           style="stroke-width:3.16348">
          <g
             id="g444"
             style="stroke-width:3.16348">
            <path
               d="m 1101.1028,454.57675 c -1.6102,-0.2698 -5.5041,-6.00028 -1.3009,-6.98713 4.8461,-0.36129 4.5457,6.23687 1.2878,6.88765 l -0.303,-0.11976 -0.3235,0.15214"
               style="fill:none;stroke:#000000;stroke-width:2.00679;stroke-linecap:round;stroke-linejoin:round;stroke-miterlimit:10;stroke-dasharray:none;stroke-opacity:1"
               id="path446" />
          </g>
        </g>
        <g
           id="g448"
           transform="matrix(1,0,0,-1,0,792)"
           style="stroke-width:3.16348">
          <g
             id="g450"
             style="stroke-width:3.16348">
            <path
               d="m 1099.014,454.20328 c -1.2203,-0.14898 -2.7187,0.47771 -3.8347,-0.033"
               style="fill:none;stroke:#000000;stroke-width:2.00679;stroke-linecap:round;stroke-linejoin:round;stroke-miterlimit:10;stroke-dasharray:none;stroke-opacity:1"
               id="path452" />
          </g>
        </g>
        <g
           id="g454"
           transform="matrix(1,0,0,-1,0,792)"
           style="stroke-width:3.16348">
          <g
             id="g456"
             style="stroke-width:3.16348">
            <path
               d="m 1097.1056,447.5647 c 0.2897,1.24049 -2.6033,-0.4138 -3.1447,0.6662"
               style="fill:none;stroke:#000000;stroke-width:2.00679;stroke-linecap:round;stroke-linejoin:round;stroke-miterlimit:10;stroke-dasharray:none;stroke-opacity:1"
               id="path458" />
          </g>
        </g>
        <g
           id="g460"
           transform="matrix(1,0,0,-1,0,792)"
           style="stroke-width:3.16348">
          <g
             id="g462"
             style="stroke-width:3.16348">
            <path
               d="M 1113.9428,529.46826 1113.6,529.18591"
               style="fill:none;stroke:#000000;stroke-width:2.00679;stroke-linecap:round;stroke-linejoin:round;stroke-miterlimit:10;stroke-dasharray:none;stroke-opacity:1"
               id="path464" />
          </g>
        </g>
        <g
           id="g466"
           transform="matrix(1,0,0,-1,0,792)"
           style="stroke-width:3.16348">
          <g
             id="g468"
             style="stroke-width:3.16348">
            <path
               d="m 1102.4706,522.64581 c 4.072,3.4331 8.6924,8.98148 14.6656,7.03202 6.3946,-2.35015 10.4766,-8.88395 11.9032,-15.28365 1.4378,-6.06771 -4.8378,-9.79992 -9.8365,-11.02131 -8.7966,-2.02174 -19.4028,5.67501 -18.1593,15.11945 0.4205,2.53941 1.7827,5.26312 4.3687,6.15355"
               style="fill:none;stroke:#000000;stroke-width:2.00679;stroke-linecap:round;stroke-linejoin:round;stroke-miterlimit:10;stroke-dasharray:none;stroke-opacity:1"
               id="path470" />
          </g>
        </g>
        <g
           id="g472"
           transform="matrix(1,0,0,-1,0,792)"
           style="stroke-width:3.16348">
          <g
             id="g474"
             style="stroke-width:3.16348">
            <path
               d="m 1104.497,518.04755 c 5.7125,-1.10989 9.6752,-6.6589 8.0211,-12.39889 -0.096,-0.94047 -0.1929,-1.88095 -0.2893,-2.82142"
               style="fill:none;stroke:#000000;stroke-width:2.00679;stroke-linecap:round;stroke-linejoin:round;stroke-miterlimit:10;stroke-dasharray:none;stroke-opacity:1"
               id="path476" />
          </g>
        </g>
        <g
           id="g478"
           transform="matrix(1,0,0,-1,0,792)"
           style="stroke-width:3.16348">
          <g
             id="g480"
             style="stroke-width:3.16348">
            <path
               d="m 1116.5922,503.44702 c -0.7271,6.56216 -0.1498,5.42574 3.3176,0.82181"
               style="fill:none;stroke:#000000;stroke-width:2.00679;stroke-linecap:round;stroke-linejoin:round;stroke-miterlimit:10;stroke-dasharray:none;stroke-opacity:1"
               id="path482" />
          </g>
        </g>
        <g
           id="g484"
           transform="matrix(1,0,0,-1,0,792)"
           style="stroke-width:3.16348">
          <g
             id="g486"
             style="stroke-width:3.16348">
            <path
               d="m 1122.2655,505.73755 c -4.0669,3.61064 -3.4462,9.62635 -3.9859,14.29183 -3.4077,3.1153 -9.026,-1.18527 -12.7493,2.01899"
               style="fill:none;stroke:#000000;stroke-width:2.00679;stroke-linecap:round;stroke-linejoin:round;stroke-miterlimit:10;stroke-dasharray:none;stroke-opacity:1"
               id="path488" />
          </g>
        </g>
        <g
           id="g490"
           transform="matrix(1,0,0,-1,0,792)"
           style="stroke-width:3.16348">
          <g
             id="g492"
             style="stroke-width:3.16348">
            <path
               d="m 1131.9564,537.40149 c -0.8368,-2.43681 -3.6593,-6.26343 -3.8666,-9.29774"
               style="fill:none;stroke:#000000;stroke-width:2.00679;stroke-linecap:round;stroke-linejoin:round;stroke-miterlimit:10;stroke-dasharray:none;stroke-opacity:1"
               id="path494" />
          </g>
        </g>
        <g
           id="g496"
           transform="matrix(1,0,0,-1,0,792)"
           style="stroke-width:3.16348">
          <g
             id="g498"
             style="stroke-width:3.16348">
            <path
               d="m 1119.7434,540.16968 c 3.6683,2.01196 -1.1571,-5.97231 -0.6245,-5.74866"
               style="fill:none;stroke:#000000;stroke-width:2.00679;stroke-linecap:round;stroke-linejoin:round;stroke-miterlimit:10;stroke-dasharray:none;stroke-opacity:1"
               id="path500" />
          </g>
        </g>
        <g
           id="g502"
           transform="matrix(1,0,0,-1,0,792)"
           style="stroke-width:3.16348">
          <g
             id="g504"
             style="stroke-width:3.16348">
            <path
               d="m 1120.5658,548.7478 c 4.3359,0.0303 9.4513,-3.10743 13.3126,-1.0166 -0.3603,1.92112 0.3972,3.87424 0.7194,5.61609"
               style="fill:none;stroke:#000000;stroke-width:2.00679;stroke-linecap:round;stroke-linejoin:round;stroke-miterlimit:10;stroke-dasharray:none;stroke-opacity:1"
               id="path506" />
          </g>
        </g>
        <g
           id="g508"
           transform="matrix(1,0,0,-1,0,792)"
           style="stroke-width:3.16348">
          <g
             id="g510"
             style="stroke-width:3.16348">
            <path
               d="m 1127.4437,487.92947 c -16.2614,-15.05526 -36.089,-25.3309 -54.7451,-36.99067"
               style="fill:none;stroke:#000000;stroke-width:2.00679;stroke-linecap:round;stroke-linejoin:round;stroke-miterlimit:10;stroke-dasharray:none;stroke-opacity:1"
               id="path512" />
          </g>
        </g>
        <g
           id="g514"
           transform="matrix(1,0,0,-1,0,792)"
           style="stroke-width:3.16348">
          <g
             id="g516"
             style="stroke-width:3.16348">
            <path
               d="m 976.78186,477.40897 c 31.62564,-9.08967 62.27664,-21.9223 94.90144,-27.24262"
               style="fill:none;stroke:#000000;stroke-width:2.00679;stroke-linecap:round;stroke-linejoin:round;stroke-miterlimit:10;stroke-dasharray:none;stroke-opacity:1"
               id="path518" />
          </g>
        </g>
      </g>
    </g>
  </g>
</svg>
