<?xml version="1.0" encoding="UTF-8" standalone="no"?>
<!-- Created by Ashley Blewer - This work is licensed under a Creative Commons Attribution 4.0 International License -->

<svg
   width="544"
   height="480"
   viewBox="0 0 143.93334 127"
   version="1.1"
   id="svg2490"
   inkscape:version="1.2.2 (1:1.2.2+202212051552+b0a8486541)"
   sodipodi:docname="1887-gramophone-disc-3.svg"
   xmlns:inkscape="http://www.inkscape.org/namespaces/inkscape"
   xmlns:sodipodi="http://sodipodi.sourceforge.net/DTD/sodipodi-0.dtd"
   xmlns="http://www.w3.org/2000/svg"
   xmlns:svg="http://www.w3.org/2000/svg">
  <sodipodi:namedview
     id="namedview2492"
     pagecolor="#ffffff"
     bordercolor="#666666"
     borderopacity="1.0"
     inkscape:pageshadow="2"
     inkscape:pageopacity="0.0"
     inkscape:pagecheckerboard="0"
     inkscape:document-units="mm"
     showgrid="false"
     units="px"
     inkscape:zoom="0.90583674"
     inkscape:cx="53.541657"
     inkscape:cy="253.35691"
     inkscape:window-width="1846"
     inkscape:window-height="1136"
     inkscape:window-x="0"
     inkscape:window-y="0"
     inkscape:window-maximized="1"
     inkscape:current-layer="g4731"
     inkscape:showpageshadow="2"
     inkscape:deskcolor="#d1d1d1" />
  <defs
     id="defs2487" />
  <g
     inkscape:label="Layer 1"
     inkscape:groupmode="layer"
     id="layer1">
    <g
       id="g4731"
       transform="matrix(0.32961229,0,0,0.32903008,-241.78905,1.73126)"
       style="stroke-width:2.68698">
      <g
         id="g104528"
         transform="matrix(1,0,0,-1,0,792)"
         style="stroke-width:2.68698">
        <g
           id="g104530"
           style="stroke-width:2.68698" />
      </g>
      <g
         id="g104996"
         transform="matrix(1,0,0,-1,0,792)"
         style="stroke-width:2.68698">
        <g
           id="g104998"
           style="stroke-width:2.68698" />
      </g>
      <g
         id="g121759"
         transform="matrix(0.98878162,0,0,0.99063616,646.55241,-370.30804)"
         style="stroke-width:1.20159">
        <g
           id="g119940"
           transform="matrix(1,0,0,-1,0,792)"
           style="stroke-width:1.20159">
          <g
             id="g119942"
             style="stroke-width:1.20159">
            <path
               d="M 157.03542,101.64829 C 207.97703,88.643962 252.52174,59.166429 301.8824,41.937691"
               style="fill:none;stroke:#000000;stroke-width:3.14424;stroke-linecap:round;stroke-linejoin:round;stroke-miterlimit:10;stroke-dasharray:none;stroke-opacity:1"
               id="path119944" />
          </g>
        </g>
        <g
           id="g119946"
           transform="matrix(1,0,0,-1,0,792)"
           style="stroke-width:1.20159">
          <g
             id="g119948"
             style="stroke-width:1.20159">
            <path
               d="m 176.53346,185.07813 c 0.55331,-18.63149 0.77461,-42.93301 2.35101,-63.19098"
               style="fill:none;stroke:#000000;stroke-width:3.14424;stroke-linecap:round;stroke-linejoin:round;stroke-miterlimit:10;stroke-dasharray:none;stroke-opacity:1"
               id="path119950" />
          </g>
        </g>
        <g
           id="g119952"
           transform="matrix(1,0,0,-1,0,792)"
           style="stroke-width:1.20159">
          <g
             id="g119954"
             style="stroke-width:1.20159">
            <path
               d="m 178.88447,121.88715 c -0.0623,-0.58321 -11.80613,-2.44374 -8.13492,-7.82512"
               style="fill:none;stroke:#000000;stroke-width:3.14424;stroke-linecap:round;stroke-linejoin:round;stroke-miterlimit:10;stroke-dasharray:none;stroke-opacity:1"
               id="path119956"
               sodipodi:nodetypes="cc" />
          </g>
        </g>
        <g
           id="g119958"
           transform="matrix(1,0,0,-1,0,792)"
           style="stroke-width:1.20159">
          <g
             id="g119960"
             style="stroke-width:1.20159">
            <path
               d="m 170.74955,114.06203 c -7.37116,-1.06916 -15.09876,-6.41204 -14.572,-12.1303"
               style="fill:none;stroke:#000000;stroke-width:3.14424;stroke-linecap:round;stroke-linejoin:round;stroke-miterlimit:10;stroke-dasharray:none;stroke-opacity:1"
               id="path119962"
               sodipodi:nodetypes="cc" />
          </g>
        </g>
        <g
           id="g119964"
           transform="matrix(1,0,0,-1,0,792)"
           style="stroke-width:1.20159">
          <g
             id="g119966"
             style="stroke-width:1.20159">
            <path
               d="m 176.11964,186.2581 c -26.04344,7.47321 8.05761,15.33294 11.41046,13.72073"
               style="fill:none;stroke:#000000;stroke-width:3.14424;stroke-linecap:round;stroke-linejoin:round;stroke-miterlimit:10;stroke-dasharray:none;stroke-opacity:1"
               id="path119968" />
          </g>
        </g>
        <g
           id="g119970"
           transform="matrix(1,0,0,-1,0,792)"
           style="stroke-width:1.20159">
          <g
             id="g119972"
             style="stroke-width:1.20159">
            <path
               d="m 185.29001,201.65578 c -1.525,2.24725 -20.87683,-3.86563 -12.92728,2.69722"
               style="fill:none;stroke:#000000;stroke-width:3.14424;stroke-linecap:round;stroke-linejoin:round;stroke-miterlimit:10;stroke-dasharray:none;stroke-opacity:1"
               id="path119974" />
          </g>
        </g>
        <g
           id="g119976"
           transform="matrix(1,0,0,-1,0,792)"
           style="stroke-width:1.20159">
          <g
             id="g119978"
             style="stroke-width:1.20159">
            <path
               d="m 171.57137,205.62254 c -3.23334,6.24099 -7.8409,12.37776 -14.55152,14.21228"
               style="fill:none;stroke:#000000;stroke-width:3.14424;stroke-linecap:round;stroke-linejoin:round;stroke-miterlimit:10;stroke-dasharray:none;stroke-opacity:1"
               id="path119980" />
          </g>
        </g>
        <g
           id="g119982"
           transform="matrix(1,0,0,-1,0,792)"
           style="stroke-width:1.20159">
          <g
             id="g119984"
             style="stroke-width:1.20159">
            <path
               d="m 154.48845,220.39514 c 1.51574,11.76727 10.29219,28.25097 12.79856,39.18306"
               style="fill:none;stroke:#000000;stroke-width:3.14424;stroke-linecap:round;stroke-linejoin:round;stroke-miterlimit:10;stroke-dasharray:none;stroke-opacity:1"
               id="path119986" />
          </g>
        </g>
        <g
           id="g119988"
           transform="matrix(1,0,0,-1,0,792)"
           style="stroke-width:1.20159">
          <g
             id="g119990"
             style="stroke-width:1.20159">
            <path
               d="m 166.24794,260.98999 c -2.77425,0.42903 -1.37876,5.48264 -6.41994,1.00882"
               style="fill:none;stroke:#000000;stroke-width:3.14424;stroke-linecap:round;stroke-linejoin:round;stroke-miterlimit:10;stroke-dasharray:none;stroke-opacity:1"
               id="path119992" />
          </g>
        </g>
        <g
           id="g119994"
           transform="matrix(1,0,0,-1,0,792)"
           style="stroke-width:1.20159">
          <g
             id="g119996"
             style="stroke-width:1.20159">
            <path
               d="m 159.60402,263.8382 c 12.5787,27.14547 24.57167,54.63148 32.27964,83.69683 7.0813,18.65956 14.01749,38.43305 18.93195,56.56421"
               style="fill:none;stroke:#000000;stroke-width:3.14424;stroke-linecap:round;stroke-linejoin:round;stroke-miterlimit:10;stroke-dasharray:none;stroke-opacity:1"
               id="path119998"
               sodipodi:nodetypes="ccc" />
          </g>
        </g>
        <g
           id="g120000"
           transform="matrix(1,0,0,-1,0,792)"
           style="stroke-width:1.20159">
          <g
             id="g120002"
             style="stroke-width:1.20159">
            <path
               d="m 210.81561,404.09924 c 40.67951,3.16994 134.54069,-8.45534 175.26208,-8.15299 l 9.11464,-7.09153"
               style="fill:none;stroke:#000000;stroke-width:3.14424;stroke-linecap:round;stroke-linejoin:round;stroke-miterlimit:10;stroke-dasharray:none;stroke-opacity:1"
               id="path120004"
               sodipodi:nodetypes="ccc" />
          </g>
        </g>
        <g
           id="g120006"
           transform="matrix(1,0,0,-1,0,792)"
           style="stroke-width:1.20159">
          <g
             id="g120008"
             style="stroke-width:1.20159">
            <path
               d="m 218.30473,397.61588 c 47.85521,-3.99345 96.01431,-0.93687 143.85367,-5.88227 9.84729,-0.59949 26.75639,-0.41863 33.03393,-2.87889"
               style="fill:none;stroke:#000000;stroke-width:3.14424;stroke-linecap:round;stroke-linejoin:round;stroke-miterlimit:10;stroke-dasharray:none;stroke-opacity:1"
               id="path120010" />
          </g>
        </g>
        <g
           id="g120012"
           transform="matrix(1,0,0,-1,0,792)"
           style="stroke-width:1.20159">
          <g
             id="g120014"
             style="stroke-width:1.20159">
            <path
               d="m 218.30473,397.61588 c -8.60908,-27.41829 -18.91551,-56.80534 -29.34814,-83.71249 -7.26062,-26.71048 -14.39957,-53.2291 -27.88348,-77.50727 -1.71528,-5.66477 -5.24062,-10.68539 -6.56979,-16.29724"
               style="fill:none;stroke:#000000;stroke-width:3.14424;stroke-linecap:round;stroke-linejoin:round;stroke-miterlimit:10;stroke-dasharray:none;stroke-opacity:1"
               id="path120016"
               sodipodi:nodetypes="cccc" />
          </g>
        </g>
        <g
           id="g120018"
           transform="matrix(1,0,0,-1,0,792)"
           style="stroke-width:1.20159">
          <g
             id="g120020"
             style="stroke-width:1.20159">
            <path
               d="m 212.21461,401.82278 c 1.49247,-2.6261 7.21227,-3.02218 7.53249,-4.54003"
               style="fill:none;stroke:#000000;stroke-width:3.14424;stroke-linecap:round;stroke-linejoin:round;stroke-miterlimit:10;stroke-dasharray:none;stroke-opacity:1"
               id="path120022" />
          </g>
        </g>
        <g
           id="g120024"
           transform="matrix(1,0,0,-1,0,792)"
           style="stroke-width:1.20159">
          <g
             id="g120026"
             style="stroke-width:1.20159">
            <path
               d="m 218.30473,397.61588 c 6.24908,-8.57629 20.93665,-18.70507 22.99111,-26.92963"
               style="fill:none;stroke:#000000;stroke-width:3.14424;stroke-linecap:round;stroke-linejoin:round;stroke-miterlimit:10;stroke-dasharray:none;stroke-opacity:1"
               id="path120028"
               sodipodi:nodetypes="cc" />
          </g>
        </g>
        <g
           id="g120030"
           transform="matrix(1,0,0,-1,0,792)"
           style="stroke-width:1.20159">
          <g
             id="g120032"
             style="stroke-width:1.20159">
            <path
               d="m 395.19233,388.85472 c 0.80977,-7.29521 13.50338,-22.21625 16.25603,-23.73006"
               style="fill:none;stroke:#000000;stroke-width:3.14424;stroke-linecap:round;stroke-linejoin:round;stroke-miterlimit:10;stroke-dasharray:none;stroke-opacity:1"
               id="path120034"
               sodipodi:nodetypes="cc" />
          </g>
        </g>
        <g
           id="g120036"
           transform="matrix(1,0,0,-1,0,792)"
           style="stroke-width:1.20159">
          <g
             id="g120038"
             style="stroke-width:1.20159">
            <path
               d="m 241.29584,370.68625 c 37.83127,-0.32327 80.63214,-0.52905 118.5644,0.26775 13.44175,-0.9339 39.97605,-0.3328 47.03606,-1.43767"
               style="fill:none;stroke:#000000;stroke-width:3.14424;stroke-linecap:round;stroke-linejoin:round;stroke-miterlimit:10;stroke-dasharray:none;stroke-opacity:1"
               id="path120040"
               sodipodi:nodetypes="ccc" />
          </g>
        </g>
        <g
           id="g120042"
           transform="matrix(1,0,0,-1,0,792)"
           style="stroke-width:1.20159">
          <g
             id="g120044"
             style="stroke-width:1.20159">
            <path
               d="m 241.29584,370.68625 c -7.51006,-17.86567 -14.50355,-39.87277 -22.42849,-58.95344 -10.90822,-31.65758 -22.38772,-63.51741 -38.3153,-93.2947 -2.35658,-5.1861 -4.95174,-10.5808 -8.28815,-15.25629"
               style="fill:none;stroke:#000000;stroke-width:3.14424;stroke-linecap:round;stroke-linejoin:round;stroke-miterlimit:10;stroke-dasharray:none;stroke-opacity:1"
               id="path120046" />
          </g>
        </g>
        <g
           id="g120048"
           transform="matrix(1,0,0,-1,0,792)"
           style="stroke-width:1.20159">
          <g
             id="g120050"
             style="stroke-width:1.20159">
            <path
               d="M 245.88586,359.21384 C 228.50674,316.10525 218.2817,269.70682 193.59178,229.82697 187.84956,218.90153 183.06639,207.36598 176.47274,196.91778"
               style="fill:none;stroke:#000000;stroke-width:3.14424;stroke-linecap:round;stroke-linejoin:round;stroke-miterlimit:10;stroke-dasharray:none;stroke-opacity:1"
               id="path120052" />
          </g>
        </g>
        <g
           id="g120054"
           transform="matrix(1,0,0,-1,0,792)"
           style="stroke-width:1.20159">
          <g
             id="g120056"
             style="stroke-width:1.20159">
            <path
               d="m 245.88586,359.21384 c 47.62022,-3.99282 99.15357,-1.82309 147.33379,1.00019 0.58304,-0.74059 8.23055,0.30818 8.23055,0.30818"
               style="fill:none;stroke:#000000;stroke-width:3.14424;stroke-linecap:round;stroke-linejoin:round;stroke-miterlimit:10;stroke-dasharray:none;stroke-opacity:1"
               id="path120058"
               sodipodi:nodetypes="ccc" />
          </g>
        </g>
        <g
           id="g120060"
           transform="matrix(1,0,0,-1,0,792)"
           style="stroke-width:1.20159">
          <g
             id="g120062"
             style="stroke-width:1.20159">
            <path
               d="m 411.44836,365.12466 c -14.09381,-20.5719 -24.26463,-43.62805 -35.93756,-65.68308 -8.87951,-19.81915 -19.59078,-37.88887 -30.22262,-55.65452"
               style="fill:none;stroke:#000000;stroke-width:3.14424;stroke-linecap:round;stroke-linejoin:round;stroke-miterlimit:10;stroke-dasharray:none;stroke-opacity:1"
               id="path120064"
               sodipodi:nodetypes="ccc" />
          </g>
        </g>
        <g
           id="g120066"
           transform="matrix(1,0,0,-1,0,792)"
           style="stroke-width:1.20159">
          <g
             id="g120068"
             style="stroke-width:1.20159">
            <path
               d="m 175.99025,197.45479 c 42.50462,-7.91332 80.76182,-15.63509 122.35951,-27.5539 v 0 0"
               style="fill:none;stroke:#000000;stroke-width:3.14424;stroke-linecap:round;stroke-linejoin:round;stroke-miterlimit:10;stroke-dasharray:none;stroke-opacity:1"
               id="path120070"
               sodipodi:nodetypes="cccc" />
          </g>
        </g>
        <g
           id="g120072"
           transform="matrix(1,0,0,-1,0,792)"
           style="stroke-width:1.20159">
          <g
             id="g120074"
             style="stroke-width:1.20159">
            <path
               d="m 176.87988,186.24203 c 38.1813,-5.73019 75.34558,-17.08044 112.75902,-26.36984 l 3.25696,-1.14587 -0.38174,-0.23595"
               style="fill:none;stroke:#000000;stroke-width:3.14424;stroke-linecap:round;stroke-linejoin:round;stroke-miterlimit:10;stroke-dasharray:none;stroke-opacity:1"
               id="path120076" />
          </g>
        </g>
        <g
           id="g120078"
           transform="matrix(1,0,0,-1,0,792)"
           style="stroke-width:1.20159">
          <g
             id="g120080"
             style="stroke-width:1.20159">
            <path
               d="m 298.34976,169.90089 c -3.81581,-1.55596 -10.27174,-9.42539 -3.7934,-11.70889"
               style="fill:none;stroke:#000000;stroke-width:3.14424;stroke-linecap:round;stroke-linejoin:round;stroke-miterlimit:10;stroke-dasharray:none;stroke-opacity:1"
               id="path120082" />
          </g>
        </g>
        <g
           id="g120084"
           transform="matrix(1,0,0,-1,0,792)"
           style="stroke-width:1.20159">
          <g
             id="g120086"
             style="stroke-width:1.20159">
            <path
               d="m 295.33151,156.58539 c 0.39525,-26.80433 -0.14315,-54.49278 3.20994,-80.701271 1.47109,-0.182161 -2.23624,-0.05554 0.70717,0.187748"
               style="fill:none;stroke:#000000;stroke-width:3.14424;stroke-linecap:round;stroke-linejoin:round;stroke-miterlimit:10;stroke-dasharray:none;stroke-opacity:1"
               id="path120088" />
          </g>
        </g>
        <g
           id="g120090"
           transform="matrix(1,0,0,-1,0,792)"
           style="stroke-width:1.20159">
          <g
             id="g120092"
             style="stroke-width:1.20159">
            <path
               d="M 299.00934,72.842079 301.8824,41.937691"
               style="fill:none;stroke:#000000;stroke-width:3.14424;stroke-linecap:round;stroke-linejoin:round;stroke-miterlimit:10;stroke-dasharray:none;stroke-opacity:1"
               id="path120094"
               sodipodi:nodetypes="cc" />
          </g>
        </g>
        <g
           id="g120096"
           transform="matrix(1,0,0,-1,0,792)"
           style="stroke-width:1.20159">
          <g
             id="g120098"
             style="stroke-width:1.20159">
            <path
               d="M 170.74955,114.06203 C 210.66585,97.622942 260.70003,81.55212 298.95198,61.514754"
               style="fill:none;stroke:#000000;stroke-width:3.14424;stroke-linecap:round;stroke-linejoin:round;stroke-miterlimit:10;stroke-dasharray:none;stroke-opacity:1"
               id="path120100"
               sodipodi:nodetypes="cc" />
          </g>
        </g>
        <g
           id="g120102"
           transform="matrix(1,0,0,-1,0,792)"
           style="stroke-width:1.20159">
          <g
             id="g120104"
             style="stroke-width:1.20159">
            <path
               d="M 179.92735,121.04315 C 219.11777,105.31622 260.3732,94.540397 297.64368,74.345763 l 1.36566,-1.503684"
               style="fill:none;stroke:#000000;stroke-width:3.14424;stroke-linecap:round;stroke-linejoin:round;stroke-miterlimit:10;stroke-dasharray:none;stroke-opacity:1"
               id="path120106"
               sodipodi:nodetypes="ccc" />
          </g>
        </g>
        <g
           id="g120108"
           transform="matrix(1,0,0,-1,0,792)"
           style="stroke-width:1.20159">
          <g
             id="g120110"
             style="stroke-width:1.20159">
            <path
               d="m 182.38361,184.94973 c 1.21056,-16.62927 2.99164,-41.392 3.20941,-59.2218 -1.19608,-2.2591 -0.56442,-4.62889 1.00536,-6.11162"
               style="fill:none;stroke:#000000;stroke-width:3.14424;stroke-linecap:round;stroke-linejoin:round;stroke-miterlimit:10;stroke-dasharray:none;stroke-opacity:1"
               id="path120112"
               sodipodi:nodetypes="ccc" />
          </g>
        </g>
        <g
           id="g120114"
           transform="matrix(1,0,0,-1,0,792)"
           style="stroke-width:1.20159">
          <g
             id="g120116"
             style="stroke-width:1.20159">
            <path
               d="m 298.34976,169.90089 c 58.04778,4.77865 118.12643,11.28028 175.67352,20.01373 v 0 0"
               style="fill:none;stroke:#000000;stroke-width:3.14424;stroke-linecap:round;stroke-linejoin:round;stroke-miterlimit:10;stroke-dasharray:none;stroke-opacity:1"
               id="path120118"
               sodipodi:nodetypes="cccc" />
          </g>
        </g>
        <g
           id="g120120"
           transform="matrix(1,0,0,-1,0,792)"
           style="stroke-width:1.20159">
          <g
             id="g120122"
             style="stroke-width:1.20159">
            <path
               d="m 294.55636,158.192 c 55.00272,9.96205 117.17545,12.29794 171.74111,25.02777 l 3.14491,0.50021 -0.37161,-0.1185 -0.0233,-0.50728"
               style="fill:none;stroke:#000000;stroke-width:3.14424;stroke-linecap:round;stroke-linejoin:round;stroke-miterlimit:10;stroke-dasharray:none;stroke-opacity:1"
               id="path120124"
               sodipodi:nodetypes="ccccc" />
          </g>
        </g>
        <g
           id="g120126"
           transform="matrix(1,0,0,-1,0,792)"
           style="stroke-width:1.20159">
          <g
             id="g120128"
             style="stroke-width:1.20159">
            <path
               d="m 474.02328,189.91462 c 5.44447,2.55656 1.02106,-8.49494 -4.20053,-8.63209"
               style="fill:none;stroke:#000000;stroke-width:3.14424;stroke-linecap:round;stroke-linejoin:round;stroke-miterlimit:10;stroke-dasharray:none;stroke-opacity:1"
               id="path120130"
               sodipodi:nodetypes="cc" />
          </g>
        </g>
        <g
           id="g120132"
           transform="matrix(1,0,0,-1,0,792)"
           style="stroke-width:1.20159">
          <g
             id="g120134"
             style="stroke-width:1.20159">
            <path
               d="m 469.82275,181.28253 c -2.63336,-19.80055 -5.41377,-44.46755 -4.44443,-64.16782 2.06645,0.39805 -0.74635,0.25683 0.0846,1.2862"
               style="fill:none;stroke:#000000;stroke-width:3.14424;stroke-linecap:round;stroke-linejoin:round;stroke-miterlimit:10;stroke-dasharray:none;stroke-opacity:1"
               id="path120136"
               sodipodi:nodetypes="ccc" />
          </g>
        </g>
        <g
           id="g120138"
           transform="matrix(1,0,0,-1,0,792)"
           style="stroke-width:1.20159">
          <g
             id="g120140"
             style="stroke-width:1.20159">
            <path
               d="m 465.37832,117.11471 c 6.71884,-1.75191 29.52237,-20.316852 26.8273,-26.448013"
               style="fill:none;stroke:#000000;stroke-width:3.14424;stroke-linecap:round;stroke-linejoin:round;stroke-miterlimit:10;stroke-dasharray:none;stroke-opacity:1"
               id="path120142"
               sodipodi:nodetypes="cc" />
          </g>
        </g>
        <g
           id="g120144"
           transform="matrix(1,0,0,-1,0,792)"
           style="stroke-width:1.20159">
          <g
             id="g120146"
             style="stroke-width:1.20159">
            <path
               d="m 457.82532,181.3368 c 0,0 2.03266,-46.71529 3.38346,-65.28889 1.40215,-0.58416 -2.28317,-0.53934 -0.76264,0.70041"
               style="fill:none;stroke:#000000;stroke-width:3.14424;stroke-linecap:round;stroke-linejoin:round;stroke-miterlimit:10;stroke-dasharray:none;stroke-opacity:1"
               id="path120148"
               sodipodi:nodetypes="ccc" />
          </g>
        </g>
        <g
           id="g120150"
           transform="matrix(1,0,0,-1,0,792)"
           style="stroke-width:1.20159">
          <g
             id="g120152"
             style="stroke-width:1.20159">
            <path
               d="m 311.0351,157.85837 c -2.0328,-25.40181 3.38066,-54.94235 3.72728,-80.536017"
               style="fill:none;stroke:#000000;stroke-width:3.14424;stroke-linecap:round;stroke-linejoin:round;stroke-miterlimit:10;stroke-dasharray:none;stroke-opacity:1"
               id="path120154"
               sodipodi:nodetypes="cc" />
          </g>
        </g>
        <g
           id="g120156"
           transform="matrix(1,0,0,-1,0,792)"
           style="stroke-width:1.20159">
          <g
             id="g120158"
             style="stroke-width:1.20159">
            <path
               d="m 311.26862,126.11076 c 22.49921,2.55676 45.48362,7.30836 68.21611,10.51535 25.89811,5.34717 51.77198,11.06371 77.97911,14.82863 l -0.82414,-0.424"
               style="fill:none;stroke:#000000;stroke-width:3.14424;stroke-linecap:round;stroke-linejoin:round;stroke-miterlimit:10;stroke-dasharray:none;stroke-opacity:1"
               id="path120160" />
          </g>
        </g>
        <g
           id="g120162"
           transform="matrix(1,0,0,-1,0,792)"
           style="stroke-width:1.20159">
          <g
             id="g120164"
             style="stroke-width:1.20159">
            <path
               d="m 297.64368,74.345763 c 1.36566,-1.503684 113.15994,23.940433 167.73464,42.768947"
               style="fill:none;stroke:#000000;stroke-width:3.14424;stroke-linecap:round;stroke-linejoin:round;stroke-miterlimit:10;stroke-dasharray:none;stroke-opacity:1"
               id="path120166"
               sodipodi:nodetypes="cc" />
          </g>
        </g>
        <g
           id="g120168"
           transform="matrix(1,0,0,-1,0,792)"
           style="stroke-width:1.20159">
          <g
             id="g120170"
             style="stroke-width:1.20159">
            <path
               d="m 298.95198,61.514754 c 42.62328,10.152435 88.83554,18.980791 130.65893,32.28722 16.5941,4.338297 35.04004,8.238186 50.79397,11.351136"
               style="fill:none;stroke:#000000;stroke-width:3.14424;stroke-linecap:round;stroke-linejoin:round;stroke-miterlimit:10;stroke-dasharray:none;stroke-opacity:1"
               id="path120172"
               sodipodi:nodetypes="ccc" />
          </g>
        </g>
        <g
           id="g120174"
           transform="matrix(1,0,0,-1,0,792)"
           style="stroke-width:1.20159">
          <g
             id="g120176"
             style="stroke-width:1.20159">
            <path
               d="m 301.8824,41.937691 c 64.15818,13.382858 126.22468,35.101862 190.32322,48.729006"
               style="fill:none;stroke:#000000;stroke-width:3.14424;stroke-linecap:round;stroke-linejoin:round;stroke-miterlimit:10;stroke-dasharray:none;stroke-opacity:1"
               id="path120178"
               sodipodi:nodetypes="ccc" />
          </g>
        </g>
        <g
           id="g120180"
           transform="matrix(1,0,0,-1,0,792)"
           style="stroke-width:1.20159">
          <g
             id="g120182"
             style="stroke-width:1.20159">
            <path
               d="m 438.94006,197.97827 c 3.98434,3.3714 23.09203,1.05185 11.98108,-4.21665"
               style="fill:none;stroke:#000000;stroke-width:3.14424;stroke-linecap:round;stroke-linejoin:round;stroke-miterlimit:10;stroke-dasharray:none;stroke-opacity:1"
               id="path120184" />
          </g>
        </g>
        <g
           id="g120186"
           transform="matrix(1,0,0,-1,0,792)"
           style="stroke-width:1.20159">
          <g
             id="g120188"
             style="stroke-width:1.20159">
            <path
               d="m 441.51346,198.56923 c 0.16651,-0.65121 1.46461,-4.10885 0.69246,-3.21739"
               style="fill:none;stroke:#000000;stroke-width:3.14424;stroke-linecap:round;stroke-linejoin:round;stroke-miterlimit:10;stroke-dasharray:none;stroke-opacity:1"
               id="path120190" />
          </g>
        </g>
        <g
           id="g120192"
           transform="matrix(1,0,0,-1,0,792)"
           style="stroke-width:1.20159">
          <g
             id="g120194"
             style="stroke-width:1.20159">
            <path
               d="m 474.40658,190.25041 c -8.94324,3.56782 -15.29218,2.30536 -23.86418,6.80113"
               style="fill:none;stroke:#000000;stroke-width:3.14424;stroke-linecap:round;stroke-linejoin:round;stroke-miterlimit:10;stroke-dasharray:none;stroke-opacity:1"
               id="path120196"
               sodipodi:nodetypes="cc" />
          </g>
        </g>
        <g
           id="g120198"
           transform="matrix(1,0,0,-1,0,792)"
           style="stroke-width:1.20159">
          <g
             id="g120200"
             style="stroke-width:1.20159">
            <path
               d="m 438.41464,197.47226 c -10.98323,4.24504 -32.93098,9.97558 -42.2894,10.04076"
               style="fill:none;stroke:#000000;stroke-width:3.14424;stroke-linecap:round;stroke-linejoin:round;stroke-miterlimit:10;stroke-dasharray:none;stroke-opacity:1"
               id="path120202"
               sodipodi:nodetypes="cc" />
          </g>
        </g>
        <g
           id="g120204"
           transform="matrix(1,0,0,-1,0,792)"
           style="stroke-width:1.20159">
          <g
             id="g120206"
             style="stroke-width:1.20159">
            <path
               d="m 303.11496,246.43964 c 22.657,1.47476 47.05743,-3.45941 68.3431,-5.5772"
               style="fill:none;stroke:#000000;stroke-width:3.14424;stroke-linecap:round;stroke-linejoin:round;stroke-miterlimit:10;stroke-dasharray:none;stroke-opacity:1"
               id="path120208" />
          </g>
        </g>
        <g
           id="g120210"
           transform="matrix(1,0,0,-1,0,792)"
           style="stroke-width:1.20159">
          <g
             id="g120212"
             style="stroke-width:1.20159">
            <path
               d="m 301.9866,246.25124 c -3.91455,-21.64222 41.03185,-9.39651 56.98913,-15.026 3.49867,-0.0829 8.82722,-0.30974 11.37023,-0.81934"
               style="fill:none;stroke:#000000;stroke-width:3.14424;stroke-linecap:round;stroke-linejoin:round;stroke-miterlimit:10;stroke-dasharray:none;stroke-opacity:1"
               id="path120214" />
          </g>
        </g>
        <g
           id="g120216"
           transform="matrix(1,0,0,-1,0,792)"
           style="stroke-width:1.20159">
          <g
             id="g120218"
             style="stroke-width:1.20159">
            <path
               d="m 368.53693,240.79277 c 1.4097,-1.29189 4.35139,-7.70637 1.72948,-8.27173"
               style="fill:none;stroke:#000000;stroke-width:3.14424;stroke-linecap:round;stroke-linejoin:round;stroke-miterlimit:10;stroke-dasharray:none;stroke-opacity:1"
               id="path120220" />
          </g>
        </g>
        <g
           id="g120222"
           transform="matrix(1,0,0,-1,0,792)"
           style="stroke-width:1.20159">
          <g
             id="g120224"
             style="stroke-width:1.20159">
            <path
               d="m 370.44077,240.24486 c 3.07904,1.59152 8.99201,-4.23637 5.07733,-6.53024"
               style="fill:none;stroke:#000000;stroke-width:3.14424;stroke-linecap:round;stroke-linejoin:round;stroke-miterlimit:10;stroke-dasharray:none;stroke-opacity:1"
               id="path120226" />
          </g>
        </g>
        <g
           id="g120228"
           transform="matrix(1,0,0,-1,0,792)"
           style="stroke-width:1.20159">
          <g
             id="g120230"
             style="stroke-width:1.20159">
            <path
               d="m 376.12592,239.10291 c 4.20312,3.81316 8.52971,-9.88978 4.46414,-7.32382"
               style="fill:none;stroke:#000000;stroke-width:3.14424;stroke-linecap:round;stroke-linejoin:round;stroke-miterlimit:10;stroke-dasharray:none;stroke-opacity:1"
               id="path120232" />
          </g>
        </g>
        <g
           id="g120234"
           transform="matrix(1,0,0,-1,0,792)"
           style="stroke-width:1.20159">
          <g
             id="g120236"
             style="stroke-width:1.20159">
            <path
               d="m 374.10706,238.99174 c 1.38891,-0.34072 3.81156,2.10425 4.9742,0.39658"
               style="fill:none;stroke:#000000;stroke-width:3.14424;stroke-linecap:round;stroke-linejoin:round;stroke-miterlimit:10;stroke-dasharray:none;stroke-opacity:1"
               id="path120238" />
          </g>
        </g>
        <g
           id="g120240"
           transform="matrix(1,0,0,-1,0,792)"
           style="stroke-width:1.20159">
          <g
             id="g120242"
             style="stroke-width:1.20159">
            <path
               d="m 371.98117,230.82222 c 4.38086,-7.50703 27.98096,-23.66484 21.81338,-0.19869 3.9902,19.26461 -12.03166,35.12757 -20.97103,10.31939"
               style="fill:none;stroke:#000000;stroke-width:3.14424;stroke-linecap:round;stroke-linejoin:round;stroke-miterlimit:10;stroke-dasharray:none;stroke-opacity:1"
               id="path120244" />
          </g>
        </g>
        <g
           id="g120246"
           transform="matrix(1,0,0,-1,0,792)"
           style="stroke-width:1.20159">
          <g
             id="g120248"
             style="stroke-width:1.20159">
            <path
               d="m 382.13879,242.63832 c 8.54888,-1.31458 6.13952,-13.02241 6.41084,-19.08947"
               style="fill:none;stroke:#000000;stroke-width:3.14424;stroke-linecap:round;stroke-linejoin:round;stroke-miterlimit:10;stroke-dasharray:none;stroke-opacity:1"
               id="path120250" />
          </g>
        </g>
        <g
           id="g120252"
           transform="matrix(1,0,0,-1,0,792)"
           style="stroke-width:1.20159">
          <g
             id="g120254"
             style="stroke-width:1.20159">
            <path
               d="m 337.28651,232.40625 c 0.10697,-4.12297 1.82635,-14.49802 1.69029,-18.36128"
               style="fill:none;stroke:#000000;stroke-width:3.14424;stroke-linecap:round;stroke-linejoin:round;stroke-miterlimit:10;stroke-dasharray:none;stroke-opacity:1"
               id="path120256"
               sodipodi:nodetypes="cc" />
          </g>
        </g>
        <g
           id="g120258"
           transform="matrix(1,0,0,-1,0,792)"
           style="stroke-width:1.20159">
          <g
             id="g120260"
             style="stroke-width:1.20159">
            <path
               d="m 325.37774,232.40625 c 1.13983,-1.62631 0.30705,-14.81464 1.05708,-18.03735"
               style="fill:none;stroke:#000000;stroke-width:3.14424;stroke-linecap:round;stroke-linejoin:round;stroke-miterlimit:10;stroke-dasharray:none;stroke-opacity:1"
               id="path120262"
               sodipodi:nodetypes="cc" />
          </g>
        </g>
        <g
           id="g120264"
           transform="matrix(1,0,0,-1,0,792)"
           style="stroke-width:1.20159">
          <g
             id="g120266"
             style="stroke-width:1.20159">
            <path
               d="m 325.23948,214.12087 c -5.57599,-8.09924 26.14548,-5.33844 13.73732,-0.0759"
               style="fill:none;stroke:#000000;stroke-width:3.14424;stroke-linecap:round;stroke-linejoin:round;stroke-miterlimit:10;stroke-dasharray:none;stroke-opacity:1"
               id="path120268"
               sodipodi:nodetypes="cc" />
          </g>
        </g>
        <g
           id="g120270"
           transform="matrix(1,0,0,-1,0,792)"
           style="stroke-width:1.20159">
          <g
             id="g120272"
             style="stroke-width:1.20159">
            <path
               d="m 338.9768,214.04497 c 13.04677,2.87959 42.53106,-3.7964 52.72639,-5.28876"
               style="fill:none;stroke:#000000;stroke-width:3.14424;stroke-linecap:round;stroke-linejoin:round;stroke-miterlimit:10;stroke-dasharray:none;stroke-opacity:1"
               id="path120274"
               sodipodi:nodetypes="cc" />
          </g>
        </g>
        <g
           id="g120276"
           transform="matrix(1,0,0,-1,0,792)"
           style="stroke-width:1.20159">
          <g
             id="g120278"
             style="stroke-width:1.20159">
            <path
               d="m 391.70319,208.75621 c -4.83828,10.57337 10.05552,8.04217 4.42205,-1.24319"
               style="fill:none;stroke:#000000;stroke-width:3.14424;stroke-linecap:round;stroke-linejoin:round;stroke-miterlimit:10;stroke-dasharray:none;stroke-opacity:1"
               id="path120280" />
          </g>
        </g>
        <g
           id="g120282"
           transform="matrix(1,0,0,-1,0,792)"
           style="stroke-width:1.20159">
          <g
             id="g120284"
             style="stroke-width:1.20159">
            <path
               d="m 396.12524,207.51302 c 20.26897,-9.24771 -22.66369,-12.05189 -33.06644,-14.10143 -24.65681,-0.25756 -49.02652,-2.29374 -73.42408,-2.57317 -15.09141,-0.55653 -67.95171,2.30442 -34.84515,23.28745 22.87563,3.58793 48.09246,2.23755 70.44991,-0.005"
               style="fill:none;stroke:#000000;stroke-width:3.14424;stroke-linecap:round;stroke-linejoin:round;stroke-miterlimit:10;stroke-dasharray:none;stroke-opacity:1"
               id="path120286"
               sodipodi:nodetypes="ccccc" />
          </g>
        </g>
        <g
           id="g120288"
           transform="matrix(1,0,0,-1,0,792)"
           style="stroke-width:1.20159">
          <g
             id="g120290"
             style="stroke-width:1.20159">
            <path
               d="m 242.44048,207.84338 c 14.28432,3.1599 -35.28744,-5.87412 -37.50425,-6.32842"
               style="fill:none;stroke:#000000;stroke-width:3.14424;stroke-linecap:round;stroke-linejoin:round;stroke-miterlimit:10;stroke-dasharray:none;stroke-opacity:1"
               id="path120292"
               sodipodi:nodetypes="cc" />
          </g>
        </g>
        <g
           id="g120294"
           transform="matrix(1,0,0,-1,0,792)"
           style="stroke-width:1.20159">
          <g
             id="g120296"
             style="stroke-width:1.20159">
            <path
               d="m 193.59178,229.82697 c 0,0 12.18663,-29.42155 12.74203,-37.64518"
               style="fill:none;stroke:#000000;stroke-width:3.14424;stroke-linecap:round;stroke-linejoin:round;stroke-miterlimit:10;stroke-dasharray:none;stroke-opacity:1"
               id="path120298"
               sodipodi:nodetypes="cc" />
          </g>
        </g>
        <g
           id="g120300"
           transform="matrix(1,0,0,-1,0,792)"
           style="stroke-width:1.20159">
          <g
             id="g120302"
             style="stroke-width:1.20159">
            <path
               d="m 190.17634,221.14319 c 4.62412,-9.10376 5.12129,-23.24061 7.99731,-28.25613"
               style="fill:none;stroke:#000000;stroke-width:3.14424;stroke-linecap:round;stroke-linejoin:round;stroke-miterlimit:10;stroke-dasharray:none;stroke-opacity:1"
               id="path120304"
               sodipodi:nodetypes="cc" />
          </g>
        </g>
        <g
           id="g120306"
           transform="matrix(1,0,0,-1,0,792)"
           style="stroke-width:1.20159">
          <g
             id="g120308"
             style="stroke-width:1.20159">
            <path
               d="m 193.28778,200.13739 c -0.78894,0.84821 -27.60528,-6.5219 -20.66622,-2.24673"
               style="fill:none;stroke:#000000;stroke-width:3.14424;stroke-linecap:round;stroke-linejoin:round;stroke-miterlimit:10;stroke-dasharray:none;stroke-opacity:1"
               id="path120310" />
          </g>
        </g>
        <g
           id="g120312"
           transform="matrix(1,0,0,-1,0,792)"
           style="stroke-width:1.20159">
          <g
             id="g120314"
             style="stroke-width:1.20159">
            <path
               d="m 248.40221,209.82218 c -0.13054,0.1534 -5.98956,-3.29259 -6.19579,-3.54049"
               style="fill:none;stroke:#000000;stroke-width:3.14424;stroke-linecap:round;stroke-linejoin:round;stroke-miterlimit:10;stroke-dasharray:none;stroke-opacity:1"
               id="path120316"
               sodipodi:nodetypes="cc" />
          </g>
        </g>
        <g
           id="g120318"
           transform="matrix(1,0,0,-1,0,792)"
           style="stroke-width:1.20159">
          <g
             id="g120320"
             style="stroke-width:1.20159">
            <path
               d="m 288.26788,182.77539 c 6.86761,3.5161 34.57631,-4.87732 10.73348,-4.82328 -4.93285,1.4141 -10.68554,2.26449 -14.57084,5.67833"
               style="fill:none;stroke:#000000;stroke-width:3.14424;stroke-linecap:round;stroke-linejoin:round;stroke-miterlimit:10;stroke-dasharray:none;stroke-opacity:1"
               id="path120322" />
          </g>
        </g>
        <g
           id="g120324"
           transform="matrix(1,0,0,-1,0,792)"
           style="stroke-width:1.20159">
          <g
             id="g120326"
             style="stroke-width:1.20159">
            <path
               d="m 339.78101,185.60272 c -5.66021,6.58079 11.97751,7.75453 4.8309,-1.22653"
               style="fill:none;stroke:#000000;stroke-width:3.14424;stroke-linecap:round;stroke-linejoin:round;stroke-miterlimit:10;stroke-dasharray:none;stroke-opacity:1"
               id="path120328" />
          </g>
        </g>
        <g
           id="g120330"
           transform="matrix(1,0,0,-1,0,792)"
           style="stroke-width:1.20159">
          <g
             id="g120332"
             style="stroke-width:1.20159">
            <path
               d="m 412.34659,193.41039 c -11.5784,9.29856 10.75581,15.31234 6.6577,0.15061"
               style="fill:none;stroke:#000000;stroke-width:3.14424;stroke-linecap:round;stroke-linejoin:round;stroke-miterlimit:10;stroke-dasharray:none;stroke-opacity:1"
               id="path120334" />
          </g>
        </g>
        <g
           id="g120336"
           transform="matrix(1,0,0,-1,0,792)"
           style="stroke-width:1.20159">
          <g
             id="g120338"
             style="stroke-width:1.20159">
            <path
               d="m 444.82892,191.18224 c -2.52297,13.4557 15.72577,6.43349 7.295,-1.62089"
               style="fill:none;stroke:#000000;stroke-width:3.14424;stroke-linecap:round;stroke-linejoin:round;stroke-miterlimit:10;stroke-dasharray:none;stroke-opacity:1"
               id="path120340" />
          </g>
        </g>
      </g>
    </g>
  </g>
</svg>
