<?xml version="1.0" encoding="UTF-8" standalone="no"?>
<!-- Created by Ashley Blewer - This work is licensed under a Creative Commons Attribution 4.0 International License -->

<svg
   width="544"
   height="480"
   viewBox="0 0 143.93334 127"
   version="1.1"
   id="svg2490"
   inkscape:version="1.2.2 (1:1.2.2+202212051552+b0a8486541)"
   sodipodi:docname="1887-gramophone-disc-2.svg"
   xmlns:inkscape="http://www.inkscape.org/namespaces/inkscape"
   xmlns:sodipodi="http://sodipodi.sourceforge.net/DTD/sodipodi-0.dtd"
   xmlns="http://www.w3.org/2000/svg"
   xmlns:svg="http://www.w3.org/2000/svg">
  <sodipodi:namedview
     id="namedview2492"
     pagecolor="#ffffff"
     bordercolor="#666666"
     borderopacity="1.0"
     inkscape:pageshadow="2"
     inkscape:pageopacity="0.0"
     inkscape:pagecheckerboard="0"
     inkscape:document-units="mm"
     showgrid="false"
     units="px"
     inkscape:zoom="0.90583674"
     inkscape:cx="53.541657"
     inkscape:cy="253.35691"
     inkscape:window-width="1846"
     inkscape:window-height="1136"
     inkscape:window-x="0"
     inkscape:window-y="0"
     inkscape:window-maximized="1"
     inkscape:current-layer="g4731"
     inkscape:showpageshadow="2"
     inkscape:deskcolor="#d1d1d1" />
  <defs
     id="defs2487" />
  <g
     inkscape:label="Layer 1"
     inkscape:groupmode="layer"
     id="layer1">
    <g
       id="g4731"
       transform="matrix(0.32961229,0,0,0.32903008,-241.78905,1.73126)"
       style="stroke-width:2.68698">
      <g
         id="g104528"
         transform="matrix(1,0,0,-1,0,792)"
         style="stroke-width:2.68698">
        <g
           id="g104530"
           style="stroke-width:2.68698" />
      </g>
      <g
         id="g104996"
         transform="matrix(1,0,0,-1,0,792)"
         style="stroke-width:2.68698">
        <g
           id="g104998"
           style="stroke-width:2.68698" />
      </g>
      <g
         id="g4131"
         transform="matrix(-1.0043231,0,0,1.0020585,1903.9814,-401.33787)"
         style="stroke-width:5.14368">
        <g
           id="g520"
           transform="matrix(1,0,0,-1,0,792)"
           style="stroke-width:5.14368">
          <g
             id="g522"
             style="stroke-width:5.14368">
            <path
               d="m 823.57971,314.80435 c 0.54893,5.18076 3.05149,25.85613 3.75384,31.01305"
               style="fill:none;stroke:#000000;stroke-width:6.52589;stroke-linecap:round;stroke-linejoin:round;stroke-miterlimit:10;stroke-dasharray:none;stroke-opacity:1"
               id="path524" />
          </g>
        </g>
        <g
           id="g526"
           transform="matrix(1,0,0,-1,0,792)"
           style="stroke-width:5.14368">
          <g
             id="g528"
             style="stroke-width:5.14368">
            <path
               d="m 829.15533,345.78076 c 2.83166,-0.76713 5.77916,0.82283 8.54761,-0.26454"
               style="fill:none;stroke:#000000;stroke-width:6.52589;stroke-linecap:round;stroke-linejoin:round;stroke-miterlimit:10;stroke-dasharray:none;stroke-opacity:1"
               id="path530" />
          </g>
        </g>
        <g
           id="g532"
           transform="matrix(1,0,0,-1,0,792)"
           style="stroke-width:5.14368">
          <g
             id="g534"
             style="stroke-width:5.14368">
            <path
               d="m 837.92859,345.69537 c 86.81917,-1.14933 173.68431,1.76575 260.46811,-1.86583"
               style="fill:none;stroke:#000000;stroke-width:6.52589;stroke-linecap:round;stroke-linejoin:round;stroke-miterlimit:10;stroke-dasharray:none;stroke-opacity:1"
               id="path536" />
          </g>
        </g>
        <g
           id="g538"
           transform="matrix(1,0,0,-1,0,792)"
           style="stroke-width:5.14368">
          <g
             id="g540"
             style="stroke-width:5.14368">
            <path
               d="m 1098.4492,342.85782 0.025,-0.29581"
               style="fill:none;stroke:#000000;stroke-width:6.52589;stroke-linecap:round;stroke-linejoin:round;stroke-miterlimit:10;stroke-dasharray:none;stroke-opacity:1"
               id="path542" />
          </g>
        </g>
        <g
           id="g544"
           transform="matrix(1,0,0,-1,0,792)"
           style="stroke-width:5.14368">
          <g
             id="g546"
             style="stroke-width:5.14368">
            <path
               d="m 1098.6527,342.56824 c 17.7543,-89.35225 36.4517,-178.53095 52.169,-268.273994"
               style="fill:none;stroke:#000000;stroke-width:6.52589;stroke-linecap:round;stroke-linejoin:round;stroke-miterlimit:10;stroke-dasharray:none;stroke-opacity:1"
               id="path548" />
          </g>
        </g>
        <g
           id="g550"
           transform="matrix(1,0,0,-1,0,792)"
           style="stroke-width:5.14368">
          <g
             id="g552"
             style="stroke-width:5.14368">
            <path
               d="m 799.78894,82.071907 c -0.45802,-7.964958 -3.53426,-16.175481 4.50678,-21.466141"
               style="fill:none;stroke:#000000;stroke-width:6.52589;stroke-linecap:round;stroke-linejoin:round;stroke-miterlimit:10;stroke-dasharray:none;stroke-opacity:1"
               id="path554" />
          </g>
        </g>
        <g
           id="g556"
           transform="matrix(1,0,0,-1,0,792)"
           style="stroke-width:5.14368">
          <g
             id="g558"
             style="stroke-width:5.14368">
            <path
               d="M 793.57642,86.821564 C 791.69461,76.284671 793.04638,64.737027 804.95279,60.795249"
               style="fill:none;stroke:#000000;stroke-width:6.52589;stroke-linecap:round;stroke-linejoin:round;stroke-miterlimit:10;stroke-dasharray:none;stroke-opacity:1"
               id="path560" />
          </g>
        </g>
        <g
           id="g562"
           transform="matrix(1,0,0,-1,0,792)"
           style="stroke-width:5.14368">
          <g
             id="g564"
             style="stroke-width:5.14368">
            <path
               d="m 805.9762,59.579651 c 112.72906,-3.467579 225.8049,-4.055226 338.1975,6.608057"
               style="fill:none;stroke:#000000;stroke-width:6.52589;stroke-linecap:round;stroke-linejoin:round;stroke-miterlimit:10;stroke-dasharray:none;stroke-opacity:1"
               id="path566" />
          </g>
        </g>
        <g
           id="g568"
           transform="matrix(1,0,0,-1,0,792)"
           style="stroke-width:5.14368">
          <g
             id="g570"
             style="stroke-width:5.14368">
            <path
               d="m 1150.1378,72.200981 c -0.4876,-0.997244 -3.166,-4.455415 -4.0176,-5.187256"
               style="fill:none;stroke:#000000;stroke-width:6.52589;stroke-linecap:round;stroke-linejoin:round;stroke-miterlimit:10;stroke-dasharray:none;stroke-opacity:1"
               id="path572" />
          </g>
        </g>
        <g
           id="g574"
           transform="matrix(1,0,0,-1,0,792)"
           style="stroke-width:5.14368">
          <g
             id="g576"
             style="stroke-width:5.14368">
            <path
               d="M 826.38733,68.978371 C 714.42472,102.60009 720.27712,279.58676 830.83646,315.27823 953.99588,364.41621 1075.4909,273.87711 1038.9276,158.90688 1012.2756,71.083611 896.5188,32.498822 817.89574,73.289744"
               style="fill:none;stroke:#000000;stroke-width:6.52589;stroke-linecap:round;stroke-linejoin:round;stroke-miterlimit:10;stroke-dasharray:none;stroke-opacity:1"
               id="path578"
               sodipodi:nodetypes="cccc" />
          </g>
        </g>
        <g
           id="g580"
           transform="matrix(1,0,0,-1,0,792)"
           style="stroke-width:5.14368">
          <g
             id="g582"
             style="stroke-width:5.14368">
            <path
               d="m 879.62152,254.73776 c 29.26073,12.63822 71.33282,-10.1708 67.04331,-44.47339 -2.68656,-38.03718 -53.17889,-62.03885 -83.65296,-37.95454 -26.44428,16.09007 -29.47798,59.9012 -0.009,74.47865 6.60588,4.09293 9.02262,6.37953 16.61865,7.94928"
               style="fill:none;stroke:#000000;stroke-width:6.52589;stroke-linecap:round;stroke-linejoin:round;stroke-miterlimit:10;stroke-dasharray:none;stroke-opacity:1"
               id="path584"
               sodipodi:nodetypes="ccccc" />
          </g>
        </g>
        <g
           id="g586"
           transform="matrix(1,0,0,-1,0,792)"
           style="stroke-width:5.14368">
          <g
             id="g588"
             style="stroke-width:5.14368">
            <path
               d="m 898.04651,212.78976 c -12.85071,0.66904 4.47743,8.02586 -0.27646,-0.60148 -4.49812,-2.93839 -7.71992,5.89333 -1.84438,5.12618"
               style="fill:none;stroke:#000000;stroke-width:6.52589;stroke-linecap:round;stroke-linejoin:round;stroke-miterlimit:10;stroke-dasharray:none;stroke-opacity:1"
               id="path590" />
          </g>
        </g>
        <g
           id="g592"
           transform="matrix(1,0,0,-1,0,792)"
           style="stroke-width:5.14368">
          <g
             id="g594"
             style="stroke-width:5.14368">
            <path
               d="m 805.73273,291.80359 c 0.99635,-3.02545 1.93792,-6.08455 2.48391,-9.22847"
               style="fill:none;stroke:#000000;stroke-width:3.26295;stroke-linecap:round;stroke-linejoin:round;stroke-miterlimit:10;stroke-dasharray:none;stroke-opacity:1"
               id="path596" />
          </g>
        </g>
        <g
           id="g598"
           transform="matrix(1,0,0,-1,0,792)"
           style="stroke-width:5.14368">
          <g
             id="g600"
             style="stroke-width:5.14368">
            <path
               d="m 809.36145,283.49777 c 5.40776,5.02301 6.32095,-8.29947 12.25917,-2.00073"
               style="fill:none;stroke:#000000;stroke-width:3.26295;stroke-linecap:round;stroke-linejoin:round;stroke-miterlimit:10;stroke-dasharray:none;stroke-opacity:1"
               id="path602" />
          </g>
        </g>
        <g
           id="g604"
           transform="matrix(1,0,0,-1,0,792)"
           style="stroke-width:5.14368">
          <g
             id="g606"
             style="stroke-width:5.14368">
            <path
               d="m 823.9906,279.26141 c 9.81492,-8.33464 21.97077,-11.91918 29.67986,-22.10277 2.02449,-0.63959 3.43884,-2.47435 3.82227,-4.49371"
               style="fill:none;stroke:#000000;stroke-width:3.26295;stroke-linecap:round;stroke-linejoin:round;stroke-miterlimit:10;stroke-dasharray:none;stroke-opacity:1"
               id="path608" />
          </g>
        </g>
        <g
           id="g610"
           transform="matrix(1,0,0,-1,0,792)"
           style="stroke-width:5.14368">
          <g
             id="g612"
             style="stroke-width:5.14368">
            <path
               d="m 769.61902,254.345 c 1.78129,-18.92806 2.9681,-2.54167 11.26989,-5.5239"
               style="fill:none;stroke:#000000;stroke-width:3.26295;stroke-linecap:round;stroke-linejoin:round;stroke-miterlimit:10;stroke-dasharray:none;stroke-opacity:1"
               id="path614" />
          </g>
        </g>
        <g
           id="g616"
           transform="matrix(1,0,0,-1,0,792)"
           style="stroke-width:5.14368">
          <g
             id="g618"
             style="stroke-width:5.14368">
            <path
               d="m 786.18237,247.22787 c 0.94244,-15.15576 12.32153,5.04367 14.61296,-10.51914 l 1.38605,-0.49859 1.74187,0.84555"
               style="fill:none;stroke:#000000;stroke-width:3.26295;stroke-linecap:round;stroke-linejoin:round;stroke-miterlimit:10;stroke-dasharray:none;stroke-opacity:1"
               id="path620" />
          </g>
        </g>
        <g
           id="g622"
           transform="matrix(1,0,0,-1,0,792)"
           style="stroke-width:5.14368">
          <g
             id="g624"
             style="stroke-width:5.14368">
            <path
               d="m 808.59045,237.05652 c 4.46167,-10.82468 18.12391,-4.10938 26.32007,-9.97476"
               style="fill:none;stroke:#000000;stroke-width:3.26295;stroke-linecap:round;stroke-linejoin:round;stroke-miterlimit:10;stroke-dasharray:none;stroke-opacity:1"
               id="path626" />
          </g>
        </g>
        <g
           id="g628"
           transform="matrix(1,0,0,-1,0,792)"
           style="stroke-width:5.14368">
          <g
             id="g630"
             style="stroke-width:5.14368">
            <path
               d="m 835.33594,186.39188 c -22.10838,-1.77488 -38.18463,-18.26479 -60.83831,-15.28805 -14.31326,0.51869 -17.253,7.29927 -21.19154,20.98817"
               style="fill:none;stroke:#000000;stroke-width:3.26295;stroke-linecap:round;stroke-linejoin:round;stroke-miterlimit:10;stroke-dasharray:none;stroke-opacity:1"
               id="path632" />
          </g>
        </g>
        <g
           id="g634"
           transform="matrix(1,0,0,-1,0,792)"
           style="stroke-width:5.14368">
          <g
             id="g636"
             style="stroke-width:5.14368">
            <path
               d="m 855.8031,171.39906 c -6.25853,-6.2283 -12.79523,-8.14363 -21.40454,-8.41899 -1.78255,-2.28229 1.68278,-5.73924 -1.62031,-7.16565"
               style="fill:none;stroke:#000000;stroke-width:3.26295;stroke-linecap:round;stroke-linejoin:round;stroke-miterlimit:10;stroke-dasharray:none;stroke-opacity:1"
               id="path638" />
          </g>
        </g>
        <g
           id="g640"
           transform="matrix(1,0,0,-1,0,792)"
           style="stroke-width:5.14368">
          <g
             id="g642"
             style="stroke-width:5.14368">
            <path
               d="m 817.86688,155.31592 c -5.08773,-5.69259 -14.4669,3.86732 -11.90985,-9.08193 -15.42359,-2.63063 -19.70486,-18.3547 -31.69414,-28.48564"
               style="fill:none;stroke:#000000;stroke-width:3.26295;stroke-linecap:round;stroke-linejoin:round;stroke-miterlimit:10;stroke-dasharray:none;stroke-opacity:1"
               id="path644" />
          </g>
        </g>
        <g
           id="g646"
           transform="matrix(1,0,0,-1,0,792)"
           style="stroke-width:5.14368">
          <g
             id="g648"
             style="stroke-width:5.14368">
            <path
               d="m 862.04767,156.58414 v 0"
               style="fill:none;stroke:#000000;stroke-width:3.26295;stroke-linecap:round;stroke-linejoin:round;stroke-miterlimit:10;stroke-dasharray:none;stroke-opacity:1"
               id="path650" />
          </g>
        </g>
        <g
           id="g652"
           transform="matrix(1,0,0,-1,0,792)"
           style="stroke-width:5.14368">
          <g
             id="g654"
             style="stroke-width:5.14368">
            <path
               d="m 860.21094,162.26204 c 0.23024,-12.9486 -16.45492,-5.42018 -11.10065,-18.9883 l -2.07075,0.33665 -2.08678,0.0719"
               style="fill:none;stroke:#000000;stroke-width:3.26295;stroke-linecap:round;stroke-linejoin:round;stroke-miterlimit:10;stroke-dasharray:none;stroke-opacity:1"
               id="path656" />
          </g>
        </g>
        <g
           id="g658"
           transform="matrix(1,0,0,-1,0,792)"
           style="stroke-width:5.14368">
          <g
             id="g660"
             style="stroke-width:5.14368">
            <path
               d="m 840.8371,138.4472 c -6.63375,3.11573 -2.88312,-8.97785 -9.99789,-8.26697 2.59898,-12.42226 -15.28434,-4.71172 -10.69899,-19.84293 -1.53372,-1.17477 -4.82579,3.39268 -5.28894,1.09519"
               style="fill:none;stroke:#000000;stroke-width:3.26295;stroke-linecap:round;stroke-linejoin:round;stroke-miterlimit:10;stroke-dasharray:none;stroke-opacity:1"
               id="path662" />
          </g>
        </g>
        <g
           id="g664"
           transform="matrix(1,0,0,-1,0,792)"
           style="stroke-width:5.14368">
          <g
             id="g666"
             style="stroke-width:5.14368">
            <path
               d="m 806.0116,112.36343 c 1.3153,-4.85332 6.20447,-7.08928 9.89135,-9.83275"
               style="fill:none;stroke:#000000;stroke-width:3.26295;stroke-linecap:round;stroke-linejoin:round;stroke-miterlimit:10;stroke-dasharray:none;stroke-opacity:1"
               id="path668" />
          </g>
        </g>
        <g
           id="g670"
           transform="matrix(1,0,0,-1,0,792)"
           style="stroke-width:5.14368">
          <g
             id="g672"
             style="stroke-width:5.14368">
            <path
               d="m 803.12903,104.691 c 1.14391,-7.913113 13.44813,-16.12107 -2.15244,-12.645639 -1.14828,-3.197304 5.40043,-6.218325 7.55625,-7.821564"
               style="fill:none;stroke:#000000;stroke-width:3.26295;stroke-linecap:round;stroke-linejoin:round;stroke-miterlimit:10;stroke-dasharray:none;stroke-opacity:1"
               id="path674" />
          </g>
        </g>
        <g
           id="g676"
           transform="matrix(1,0,0,-1,0,792)"
           style="stroke-width:5.14368">
          <g
             id="g678"
             style="stroke-width:5.14368">
            <path
               d="m 921.82385,164.838 c 1.80972,-1.39338 6.15688,1.79331 8.34187,2.47256"
               style="fill:none;stroke:#000000;stroke-width:3.26295;stroke-linecap:round;stroke-linejoin:round;stroke-miterlimit:10;stroke-dasharray:none;stroke-opacity:1"
               id="path680" />
          </g>
        </g>
        <g
           id="g682"
           transform="matrix(1,0,0,-1,0,792)"
           style="stroke-width:5.14368">
          <g
             id="g684"
             style="stroke-width:5.14368">
            <path
               d="m 925.67035,159.32053 c 15.43464,3.00524 -2.59216,-16.41176 11.38911,-9.99178"
               style="fill:none;stroke:#000000;stroke-width:3.26295;stroke-linecap:round;stroke-linejoin:round;stroke-miterlimit:10;stroke-dasharray:none;stroke-opacity:1"
               id="path686" />
          </g>
        </g>
        <g
           id="g688"
           transform="matrix(1,0,0,-1,0,792)"
           style="stroke-width:5.14368">
          <g
             id="g690"
             style="stroke-width:5.14368">
            <path
               d="m 940.28986,145.02626 c 1.53732,-5.53226 -5.9537,-14.28539 5.53616,-9.30311"
               style="fill:none;stroke:#000000;stroke-width:3.26295;stroke-linecap:round;stroke-linejoin:round;stroke-miterlimit:10;stroke-dasharray:none;stroke-opacity:1"
               id="path692" />
          </g>
        </g>
        <g
           id="g694"
           transform="matrix(1,0,0,-1,0,792)"
           style="stroke-width:5.14368">
          <g
             id="g696"
             style="stroke-width:5.14368">
            <path
               d="m 947.08234,134.65318 c -3.0665,-5.64885 -10.2628,-7.94084 1.53137,-4.98408"
               style="fill:none;stroke:#000000;stroke-width:3.26295;stroke-linecap:round;stroke-linejoin:round;stroke-miterlimit:10;stroke-dasharray:none;stroke-opacity:1"
               id="path698" />
          </g>
        </g>
        <g
           id="g700"
           transform="matrix(1,0,0,-1,0,792)"
           style="stroke-width:5.14368">
          <g
             id="g702"
             style="stroke-width:5.14368">
            <path
               d="m 952.93457,124.94983 c -5.1868,-5.74345 -0.0348,-5.43331 4.0946,-4.6199"
               style="fill:none;stroke:#000000;stroke-width:3.26295;stroke-linecap:round;stroke-linejoin:round;stroke-miterlimit:10;stroke-dasharray:none;stroke-opacity:1"
               id="path704" />
          </g>
        </g>
        <g
           id="g706"
           transform="matrix(1,0,0,-1,0,792)"
           style="stroke-width:5.14368">
          <g
             id="g708"
             style="stroke-width:5.14368">
            <path
               d="m 957.9483,118.42595 c -2.14074,-1.73015 -3.35749,-4.62975 -6.2124,-5.41654"
               style="fill:none;stroke:#000000;stroke-width:3.26295;stroke-linecap:round;stroke-linejoin:round;stroke-miterlimit:10;stroke-dasharray:none;stroke-opacity:1"
               id="path710" />
          </g>
        </g>
        <g
           id="g712"
           transform="matrix(1,0,0,-1,0,792)"
           style="stroke-width:5.14368">
          <g
             id="g714"
             style="stroke-width:5.14368">
            <path
               d="m 951.69769,106.76492 c -6.32441,-6.94862 11.41053,1.43222 11.7078,0.56705"
               style="fill:none;stroke:#000000;stroke-width:3.26295;stroke-linecap:round;stroke-linejoin:round;stroke-miterlimit:10;stroke-dasharray:none;stroke-opacity:1"
               id="path716" />
          </g>
        </g>
        <g
           id="g718"
           transform="matrix(1,0,0,-1,0,792)"
           style="stroke-width:5.14368">
          <g
             id="g720"
             style="stroke-width:5.14368">
            <path
               d="m 958.72845,101.96066 c 23.92915,2.12942 -11.04201,-15.523223 4.00701,-11.063062"
               style="fill:none;stroke:#000000;stroke-width:3.26295;stroke-linecap:round;stroke-linejoin:round;stroke-miterlimit:10;stroke-dasharray:none;stroke-opacity:1"
               id="path722" />
          </g>
        </g>
        <g
           id="g724"
           transform="matrix(1,0,0,-1,0,792)"
           style="stroke-width:5.14368">
          <g
             id="g726"
             style="stroke-width:5.14368">
            <path
               d="m 965.12115,85.806908 c -1.45165,-3.645325 9.3575,2.846225 10.20606,3.377014"
               style="fill:none;stroke:#000000;stroke-width:3.26295;stroke-linecap:round;stroke-linejoin:round;stroke-miterlimit:10;stroke-dasharray:none;stroke-opacity:1"
               id="path728" />
          </g>
        </g>
        <g
           id="g730"
           transform="matrix(1,0,0,-1,0,792)"
           style="stroke-width:5.14368">
          <g
             id="g732"
             style="stroke-width:5.14368">
            <path
               d="m 951.2135,188.03326 c 0.42695,0.67141 2.31555,3.40469 2.83289,4.09992"
               style="fill:none;stroke:#000000;stroke-width:3.26295;stroke-linecap:round;stroke-linejoin:round;stroke-miterlimit:10;stroke-dasharray:none;stroke-opacity:1"
               id="path734" />
          </g>
        </g>
        <g
           id="g736"
           transform="matrix(1,0,0,-1,0,792)"
           style="stroke-width:5.14368">
          <g
             id="g738"
             style="stroke-width:5.14368">
            <path
               d="m 955.73077,194.68341 c -1.28652,-4.37793 -2.8238,-8.68734 -4.70365,-12.84724"
               style="fill:none;stroke:#000000;stroke-width:3.26295;stroke-linecap:round;stroke-linejoin:round;stroke-miterlimit:10;stroke-dasharray:none;stroke-opacity:1"
               id="path740" />
          </g>
        </g>
        <g
           id="g742"
           transform="matrix(1,0,0,-1,0,792)"
           style="stroke-width:5.14368">
          <g
             id="g744"
             style="stroke-width:5.14368">
            <path
               d="m 968.37909,177.02364 c -2.6492,-4.97168 3.06602,-0.12491 4.18208,0.47828"
               style="fill:none;stroke:#000000;stroke-width:3.26295;stroke-linecap:round;stroke-linejoin:round;stroke-miterlimit:10;stroke-dasharray:none;stroke-opacity:1"
               id="path746" />
          </g>
        </g>
        <g
           id="g748"
           transform="matrix(1,0,0,-1,0,792)"
           style="stroke-width:5.14368">
          <g
             id="g750"
             style="stroke-width:5.14368">
            <path
               d="m 976.07214,178.96036 c 2.17166,-2.19353 -5.21236,-12.49065 1.13455,-6.20813"
               style="fill:none;stroke:#000000;stroke-width:3.26295;stroke-linecap:round;stroke-linejoin:round;stroke-miterlimit:10;stroke-dasharray:none;stroke-opacity:1"
               id="path752" />
          </g>
        </g>
        <g
           id="g754"
           transform="matrix(1,0,0,-1,0,792)"
           style="stroke-width:5.14368">
          <g
             id="g756"
             style="stroke-width:5.14368">
            <path
               d="m 988.25513,177.29005 c -1.81994,-4.63182 -3.20731,-14.18126 -3.44543,-15.8771"
               style="fill:none;stroke:#000000;stroke-width:3.26295;stroke-linecap:round;stroke-linejoin:round;stroke-miterlimit:10;stroke-dasharray:none;stroke-opacity:1"
               id="path758" />
          </g>
        </g>
        <g
           id="g760"
           transform="matrix(1,0,0,-1,0,792)"
           style="stroke-width:5.14368">
          <g
             id="g762"
             style="stroke-width:5.14368">
            <path
               d="m 994.39044,167.47739 c -1.23588,-4.28408 -7.621,-16.0554 1.59225,-8.02966 l 2.21126,2.53205"
               style="fill:none;stroke:#000000;stroke-width:3.26295;stroke-linecap:round;stroke-linejoin:round;stroke-miterlimit:10;stroke-dasharray:none;stroke-opacity:1"
               id="path764" />
          </g>
        </g>
        <g
           id="g766"
           transform="matrix(1,0,0,-1,0,792)"
           style="stroke-width:5.14368">
          <g
             id="g768"
             style="stroke-width:5.14368">
            <path
               d="m 1007.6657,168.93201 c 0.5476,-4.56814 -7.83689,-22.2469 -4.3752,-19.29056"
               style="fill:none;stroke:#000000;stroke-width:3.26295;stroke-linecap:round;stroke-linejoin:round;stroke-miterlimit:10;stroke-dasharray:none;stroke-opacity:1"
               id="path770" />
          </g>
        </g>
        <g
           id="g772"
           transform="matrix(1,0,0,-1,0,792)"
           style="stroke-width:5.14368">
          <g
             id="g774"
             style="stroke-width:5.14368">
            <path
               d="m 1014.3523,162.57317 c 0.046,-3.37907 -9.0198,-24.31988 -5.4346,-16.40476"
               style="fill:none;stroke:#000000;stroke-width:3.26295;stroke-linecap:round;stroke-linejoin:round;stroke-miterlimit:10;stroke-dasharray:none;stroke-opacity:1"
               id="path776" />
          </g>
        </g>
        <g
           id="g778"
           transform="matrix(1,0,0,-1,0,792)"
           style="stroke-width:5.14368">
          <g
             id="g780"
             style="stroke-width:5.14368">
            <path
               d="m 1019.9256,158.97136 c 0.988,-4.10179 -7.6497,-17.3633 -5.7079,-15.49326"
               style="fill:none;stroke:#000000;stroke-width:3.26295;stroke-linecap:round;stroke-linejoin:round;stroke-miterlimit:10;stroke-dasharray:none;stroke-opacity:1"
               id="path782" />
          </g>
        </g>
        <g
           id="g784"
           transform="matrix(1,0,0,-1,0,792)"
           style="stroke-width:5.14368">
          <g
             id="g786"
             style="stroke-width:5.14368">
            <path
               d="m 1025.2421,151.48285 c -1.3836,-3.18812 -3.0914,-6.21878 -4.7536,-9.26596"
               style="fill:none;stroke:#000000;stroke-width:3.26295;stroke-linecap:round;stroke-linejoin:round;stroke-miterlimit:10;stroke-dasharray:none;stroke-opacity:1"
               id="path788" />
          </g>
        </g>
        <g
           id="g790"
           transform="matrix(1,0,0,-1,0,792)"
           style="stroke-width:5.14368">
          <g
             id="g792"
             style="stroke-width:5.14368">
            <path
               d="m 928.65448,254.72266 c -4.92005,4.98604 -13.66258,8.08735 -19.37662,8.31036"
               style="fill:none;stroke:#000000;stroke-width:3.26295;stroke-linecap:round;stroke-linejoin:round;stroke-miterlimit:10;stroke-dasharray:none;stroke-opacity:1"
               id="path794" />
          </g>
        </g>
        <g
           id="g796"
           transform="matrix(1,0,0,-1,0,792)"
           style="stroke-width:5.14368">
          <g
             id="g798"
             style="stroke-width:5.14368">
            <path
               d="m 932.3985,259.11014 0.82977,-0.3277"
               style="fill:none;stroke:#000000;stroke-width:3.26295;stroke-linecap:round;stroke-linejoin:round;stroke-miterlimit:10;stroke-dasharray:none;stroke-opacity:1"
               id="path800" />
          </g>
        </g>
        <g
           id="g802"
           transform="matrix(1,0,0,-1,0,792)"
           style="stroke-width:5.14368">
          <g
             id="g804"
             style="stroke-width:5.14368">
            <path
               d="m 928.65448,261.46805 c -4.38717,0.91968 -7.49134,4.31915 -10.90722,6.91372"
               style="fill:none;stroke:#000000;stroke-width:3.26295;stroke-linecap:round;stroke-linejoin:round;stroke-miterlimit:10;stroke-dasharray:none;stroke-opacity:1"
               id="path806" />
          </g>
        </g>
        <g
           id="g808"
           transform="matrix(1,0,0,-1,0,792)"
           style="stroke-width:5.14368">
          <g
             id="g810"
             style="stroke-width:5.14368">
            <path
               d="m 927.91528,269.04477 -0.28345,0.32539"
               style="fill:none;stroke:#000000;stroke-width:3.26295;stroke-linecap:round;stroke-linejoin:round;stroke-miterlimit:10;stroke-dasharray:none;stroke-opacity:1"
               id="path812" />
          </g>
        </g>
        <g
           id="g814"
           transform="matrix(1,0,0,-1,0,792)"
           style="stroke-width:5.14368">
          <g
             id="g816"
             style="stroke-width:5.14368">
            <path
               d="m 928.22864,269.14316 c 7.02224,-3.22885 18.29838,-5.68444 6.2096,2.26209 -0.41671,0.334 -13.92609,9.4506 -7.02863,5.15533"
               style="fill:none;stroke:#000000;stroke-width:3.26295;stroke-linecap:round;stroke-linejoin:round;stroke-miterlimit:10;stroke-dasharray:none;stroke-opacity:1"
               id="path818" />
          </g>
        </g>
        <g
           id="g820"
           transform="matrix(1,0,0,-1,0,792)"
           style="stroke-width:5.14368">
          <g
             id="g822"
             style="stroke-width:5.14368">
            <path
               d="m 934.28986,276.70651 c 4.85478,-1.76713 10.68634,-1.47271 14.56303,-5.42761"
               style="fill:none;stroke:#000000;stroke-width:3.26295;stroke-linecap:round;stroke-linejoin:round;stroke-miterlimit:10;stroke-dasharray:none;stroke-opacity:1"
               id="path824" />
          </g>
        </g>
        <g
           id="g826"
           transform="matrix(1,0,0,-1,0,792)"
           style="stroke-width:5.14368">
          <g
             id="g828"
             style="stroke-width:5.14368">
            <path
               d="m 942.836,279.15204 c 2.90875,0.14285 5.42644,-2.55245 8.43976,-2.50833"
               style="fill:none;stroke:#000000;stroke-width:3.26295;stroke-linecap:round;stroke-linejoin:round;stroke-miterlimit:10;stroke-dasharray:none;stroke-opacity:1"
               id="path830" />
          </g>
        </g>
        <g
           id="g832"
           transform="matrix(1,0,0,-1,0,792)"
           style="stroke-width:5.14368">
          <g
             id="g834"
             style="stroke-width:5.14368">
            <path
               d="m 943.60724,283.25327 c -6.82314,3.26216 0.71356,3.36306 1.347,1.65512"
               style="fill:none;stroke:#000000;stroke-width:3.26295;stroke-linecap:round;stroke-linejoin:round;stroke-miterlimit:10;stroke-dasharray:none;stroke-opacity:1"
               id="path836" />
          </g>
        </g>
        <g
           id="g838"
           transform="matrix(1,0,0,-1,0,792)"
           style="stroke-width:5.14368">
          <g
             id="g840"
             style="stroke-width:5.14368">
            <path
               d="m 947.47626,286.29187 c -0.83792,0.52955 -4.18961,2.64776 -5.02753,3.17731"
               style="fill:none;stroke:#000000;stroke-width:3.26295;stroke-linecap:round;stroke-linejoin:round;stroke-miterlimit:10;stroke-dasharray:none;stroke-opacity:1"
               id="path842" />
          </g>
        </g>
        <g
           id="g844"
           transform="matrix(1,0,0,-1,0,792)"
           style="stroke-width:5.14368">
          <g
             id="g846"
             style="stroke-width:5.14368">
            <path
               d="m 948.96851,289.81503 c 3.31662,-1.66318 7.33012,-2.02051 10.05474,-4.77432"
               style="fill:none;stroke:#000000;stroke-width:3.26295;stroke-linecap:round;stroke-linejoin:round;stroke-miterlimit:10;stroke-dasharray:none;stroke-opacity:1"
               id="path848" />
          </g>
        </g>
        <g
           id="g850"
           transform="matrix(1,0,0,-1,0,792)"
           style="stroke-width:5.14368">
          <g
             id="g852"
             style="stroke-width:5.14368">
            <path
               d="m 945.35468,295.16171 c 0.28301,4.55965 28.7724,-11.91815 9.24088,1.58677 -11.60471,4.15634 -7.35338,9.88277 2.5118,3.58986 1.65733,-1.29554 23.4418,-11.84517 12.92554,-5.03601"
               style="fill:none;stroke:#000000;stroke-width:3.26295;stroke-linecap:round;stroke-linejoin:round;stroke-miterlimit:10;stroke-dasharray:none;stroke-opacity:1"
               id="path854" />
          </g>
        </g>
        <g
           id="g856"
           transform="matrix(1,0,0,-1,0,792)"
           style="stroke-width:5.14368">
          <g
             id="g858"
             style="stroke-width:5.14368">
            <path
               d="m 953.42792,307.09738 c 7.01445,1.89648 17.497,-6.20475 24.0841,-10.3479"
               style="fill:none;stroke:#000000;stroke-width:3.26295;stroke-linecap:round;stroke-linejoin:round;stroke-miterlimit:10;stroke-dasharray:none;stroke-opacity:1"
               id="path860" />
          </g>
        </g>
        <g
           id="g862"
           transform="matrix(1,0,0,-1,0,792)"
           style="stroke-width:5.14368">
          <g
             id="g864"
             style="stroke-width:5.14368">
            <path
               d="m 849.60437,265.10037 c 2.88163,1.8436 5.46524,4.14932 8.55212,5.6688"
               style="fill:none;stroke:#000000;stroke-width:3.26295;stroke-linecap:round;stroke-linejoin:round;stroke-miterlimit:10;stroke-dasharray:none;stroke-opacity:1"
               id="path866" />
          </g>
        </g>
        <g
           id="g868"
           transform="matrix(1,0,0,-1,0,792)"
           style="stroke-width:5.14368">
          <g
             id="g870"
             style="stroke-width:5.14368">
            <path
               d="m 844.21051,276.78983 c 3.891,3.10466 8.11166,5.75351 12.18829,8.59944"
               style="fill:none;stroke:#000000;stroke-width:3.26295;stroke-linecap:round;stroke-linejoin:round;stroke-miterlimit:10;stroke-dasharray:none;stroke-opacity:1"
               id="path872" />
          </g>
        </g>
        <g
           id="g874"
           transform="matrix(1,0,0,-1,0,792)"
           style="stroke-width:5.14368">
          <g
             id="g876"
             style="stroke-width:5.14368">
            <path
               d="m 840.79865,285.06088 c 1.11009,3.94834 8.37154,4.47767 10.44622,8.23531"
               style="fill:none;stroke:#000000;stroke-width:3.26295;stroke-linecap:round;stroke-linejoin:round;stroke-miterlimit:10;stroke-dasharray:none;stroke-opacity:1"
               id="path878" />
          </g>
        </g>
        <g
           id="g880"
           transform="matrix(1,0,0,-1,0,792)"
           style="stroke-width:5.14368">
          <g
             id="g882"
             style="stroke-width:5.14368">
            <path
               d="m 835.98193,292.36603 c 5.26883,2.26994 9.4487,6.4517 14.76581,8.62726"
               style="fill:none;stroke:#000000;stroke-width:3.26295;stroke-linecap:round;stroke-linejoin:round;stroke-miterlimit:10;stroke-dasharray:none;stroke-opacity:1"
               id="path884" />
          </g>
        </g>
        <g
           id="g886"
           transform="matrix(1,0,0,-1,0,792)"
           style="stroke-width:5.14368">
          <g
             id="g888"
             style="stroke-width:5.14368">
            <path
               d="m 952.65259,230.81296 c 3.07122,-2.75996 3.48396,-7.4788 1.75367,-11.06435"
               style="fill:none;stroke:#000000;stroke-width:3.26295;stroke-linecap:round;stroke-linejoin:round;stroke-miterlimit:10;stroke-dasharray:none;stroke-opacity:1"
               id="path890" />
          </g>
        </g>
        <g
           id="g892"
           transform="matrix(1,0,0,-1,0,792)"
           style="stroke-width:5.14368">
          <g
             id="g894"
             style="stroke-width:5.14368">
            <path
               d="m 957.65222,227.58823 c 0.039,1.7866 -2.30629,8.00858 1.58268,2.3507"
               style="fill:none;stroke:#000000;stroke-width:3.26295;stroke-linecap:round;stroke-linejoin:round;stroke-miterlimit:10;stroke-dasharray:none;stroke-opacity:1"
               id="path896" />
          </g>
        </g>
        <g
           id="g898"
           transform="matrix(1,0,0,-1,0,792)"
           style="stroke-width:5.14368">
          <g
             id="g900"
             style="stroke-width:5.14368">
            <path
               d="m 963.8186,231.58287 c 3.22592,-1.56373 5.9593,-5.2749 4.86235,-9.01413"
               style="fill:none;stroke:#000000;stroke-width:3.26295;stroke-linecap:round;stroke-linejoin:round;stroke-miterlimit:10;stroke-dasharray:none;stroke-opacity:1"
               id="path902" />
          </g>
        </g>
        <g
           id="g904"
           transform="matrix(1,0,0,-1,0,792)"
           style="stroke-width:5.14368">
          <g
             id="g906"
             style="stroke-width:5.14368">
            <path
               d="m 967.94104,233.8208 c 4.68376,-1.93953 4.51039,-7.68817 7.65236,-10.97685"
               style="fill:none;stroke:#000000;stroke-width:3.26295;stroke-linecap:round;stroke-linejoin:round;stroke-miterlimit:10;stroke-dasharray:none;stroke-opacity:1"
               id="path908" />
          </g>
        </g>
        <g
           id="g910"
           transform="matrix(1,0,0,-1,0,792)"
           style="stroke-width:5.14368">
          <g
             id="g912"
             style="stroke-width:5.14368">
            <path
               d="m 973.9093,230.43553 c 3.36353,18.31624 12.10198,-17.41523 11.85082,-0.69213 -2.29049,8.56082 1.1385,15.34289 6.21075,3.38099 7.76642,-12.45463 3.18067,-1.5083 1.83696,5.17422 5.16952,1.22022 7.39027,-6.69071 11.57147,-8.43368"
               style="fill:none;stroke:#000000;stroke-width:3.26295;stroke-linecap:round;stroke-linejoin:round;stroke-miterlimit:10;stroke-dasharray:none;stroke-opacity:1"
               id="path914" />
          </g>
        </g>
        <g
           id="g916"
           transform="matrix(1,0,0,-1,0,792)"
           style="stroke-width:5.14368">
          <g
             id="g918"
             style="stroke-width:5.14368">
            <path
               d="m 1000.3833,237.26093 c 7.2234,-7.52641 8.9685,-8.23541 2.9342,2.2786 -3.80519,10.26302 7.415,-1.50499 8.5081,-4.12911"
               style="fill:none;stroke:#000000;stroke-width:3.26295;stroke-linecap:round;stroke-linejoin:round;stroke-miterlimit:10;stroke-dasharray:none;stroke-opacity:1"
               id="path920" />
          </g>
        </g>
        <g
           id="g922"
           transform="matrix(1,0,0,-1,0,792)"
           style="stroke-width:5.14368">
          <g
             id="g924"
             style="stroke-width:5.14368">
            <path
               d="m 1009.3084,245.67554 c 2.1829,7.27692 6.2857,-7.38606 7.6284,-8.71054"
               style="fill:none;stroke:#000000;stroke-width:3.26295;stroke-linecap:round;stroke-linejoin:round;stroke-miterlimit:10;stroke-dasharray:none;stroke-opacity:1"
               id="path926" />
          </g>
        </g>
        <g
           id="g928"
           transform="matrix(1,0,0,-1,0,792)"
           style="stroke-width:5.14368">
          <g
             id="g930"
             style="stroke-width:5.14368">
            <path
               d="m 1013.7571,248.7186 c 7.5536,-5.94199 13.4674,-17.37502 5.1842,-2.96962 -6.4886,15.97769 14.5966,-15.71937 5.0618,0.67562 -7.5134,10.80472 3.4541,3.24108 5.2937,-1.51414"
               style="fill:none;stroke:#000000;stroke-width:3.26295;stroke-linecap:round;stroke-linejoin:round;stroke-miterlimit:10;stroke-dasharray:none;stroke-opacity:1"
               id="path932" />
          </g>
        </g>
        <g
           id="g934"
           transform="matrix(1,0,0,-1,0,792)"
           style="stroke-width:5.14368">
          <g
             id="g936"
             style="stroke-width:5.14368">
            <path
               d="m 978.48138,220.33435 c -0.20616,-1.75284 -1.63245,-3.87671 -0.36965,-5.61183"
               style="fill:none;stroke:#000000;stroke-width:3.26295;stroke-linecap:round;stroke-linejoin:round;stroke-miterlimit:10;stroke-dasharray:none;stroke-opacity:1"
               id="path938" />
          </g>
        </g>
        <g
           id="g940"
           transform="matrix(1,0,0,-1,0,792)"
           style="stroke-width:5.14368">
          <g
             id="g942"
             style="stroke-width:5.14368">
            <path
               d="m 983.99805,221.63516 c 0.98499,-2.07678 -0.62441,-5.12994 1.92205,-6.46394"
               style="fill:none;stroke:#000000;stroke-width:3.26295;stroke-linecap:round;stroke-linejoin:round;stroke-miterlimit:10;stroke-dasharray:none;stroke-opacity:1"
               id="path944" />
          </g>
        </g>
        <g
           id="g946"
           transform="matrix(1,0,0,-1,0,792)"
           style="stroke-width:5.14368">
          <g
             id="g948"
             style="stroke-width:5.14368">
            <path
               d="m 991.12976,217.80716 c 1.45044,0.18068 -1.92008,-2.58666 -0.52627,-2.37148"
               style="fill:none;stroke:#000000;stroke-width:3.26295;stroke-linecap:round;stroke-linejoin:round;stroke-miterlimit:10;stroke-dasharray:none;stroke-opacity:1"
               id="path950" />
          </g>
        </g>
        <g
           id="g952"
           transform="matrix(1,0,0,-1,0,792)"
           style="stroke-width:5.14368">
          <g
             id="g954"
             style="stroke-width:5.14368">
            <path
               d="m 1011.1122,218.01787 c 2.2857,-0.66847 3.0417,-3.56173 1.7539,-5.43524"
               style="fill:none;stroke:#000000;stroke-width:3.26295;stroke-linecap:round;stroke-linejoin:round;stroke-miterlimit:10;stroke-dasharray:none;stroke-opacity:1"
               id="path956" />
          </g>
        </g>
        <g
           id="g958"
           transform="matrix(1,0,0,-1,0,792)"
           style="stroke-width:5.14368">
          <g
             id="g960"
             style="stroke-width:5.14368">
            <path
               d="m 1022.6271,217.41344 c 0.7161,-1.27477 -0.8166,-2.99787 0.6748,-3.97367"
               style="fill:none;stroke:#000000;stroke-width:3.26295;stroke-linecap:round;stroke-linejoin:round;stroke-miterlimit:10;stroke-dasharray:none;stroke-opacity:1"
               id="path962" />
          </g>
        </g>
      </g>
    </g>
  </g>
</svg>
