<?xml version="1.0" encoding="UTF-8" standalone="no"?>
<!-- Created by Ashley Blewer - This work is licensed under a Creative Commons Attribution 4.0 International License -->

<svg
   width="544"
   height="480"
   viewBox="0 0 143.93334 127"
   version="1.1"
   id="svg2490"
   inkscape:version="1.2.2 (1:1.2.2+202212051552+b0a8486541)"
   sodipodi:docname="1888-phonographic-cylinder-4.svg"
   xmlns:inkscape="http://www.inkscape.org/namespaces/inkscape"
   xmlns:sodipodi="http://sodipodi.sourceforge.net/DTD/sodipodi-0.dtd"
   xmlns="http://www.w3.org/2000/svg"
   xmlns:svg="http://www.w3.org/2000/svg">
  <sodipodi:namedview
     id="namedview2492"
     pagecolor="#ffffff"
     bordercolor="#666666"
     borderopacity="1.0"
     inkscape:pageshadow="2"
     inkscape:pageopacity="0.0"
     inkscape:pagecheckerboard="0"
     inkscape:document-units="mm"
     showgrid="false"
     units="px"
     inkscape:zoom="0.90583674"
     inkscape:cx="53.541657"
     inkscape:cy="253.35691"
     inkscape:window-width="1846"
     inkscape:window-height="1136"
     inkscape:window-x="0"
     inkscape:window-y="0"
     inkscape:window-maximized="1"
     inkscape:current-layer="g4731"
     inkscape:showpageshadow="2"
     inkscape:deskcolor="#d1d1d1" />
  <defs
     id="defs2487" />
  <g
     inkscape:label="Layer 1"
     inkscape:groupmode="layer"
     id="layer1">
    <g
       id="g4731"
       transform="matrix(0.32961229,0,0,0.32903008,-241.78905,1.73126)"
       style="stroke-width:2.68698">
      <g
         id="g104528"
         transform="matrix(1,0,0,-1,0,792)"
         style="stroke-width:2.68698">
        <g
           id="g104530"
           style="stroke-width:2.68698" />
      </g>
      <g
         id="g104996"
         transform="matrix(1,0,0,-1,0,792)"
         style="stroke-width:2.68698">
        <g
           id="g104998"
           style="stroke-width:2.68698" />
      </g>
      <g
         id="g3069"
         transform="matrix(0.72241172,0,0,0.72312844,690.54317,-217.2144)"
         style="stroke-width:2.78234">
        <g
           id="g1228"
           transform="matrix(1,0,0,-1,0,792)"
           style="stroke-width:2.78234">
          <g
             id="g1230"
             style="stroke-width:2.78234">
            <path
               d="m 150.31267,324.66589 c -6.03685,0.84159 -15.84896,2.57829 -20.89601,6.30786 -5.90351,2.62403 -11.25773,13.39665 -3.89043,18.63603 12.71118,10.8821 31.23965,8.59432 46.5436,7.30179 6.10454,-1.13463 10.47139,-4.61785 13.50985,-9.34141 2.2059,-5.2121 2.35022,-12.66943 2.35022,-12.66943 -8.11696,-8.84331 -26.46212,-10.63524 -37.61723,-10.23484"
               style="fill:none;stroke:#000000;stroke-width:3.52999;stroke-linecap:round;stroke-linejoin:round;stroke-miterlimit:10;stroke-dasharray:none;stroke-opacity:1"
               id="path1232"
               sodipodi:nodetypes="ccccccc" />
          </g>
        </g>
        <g
           id="g1234"
           transform="matrix(1,0,0,-1,0,792)"
           style="stroke-width:2.78234">
          <g
             id="g1236"
             style="stroke-width:2.78234">
            <path
               d="m 317.84871,250.18451 c -15.30965,3.43023 -35.32481,17.95344 -28.92088,35.62501 8.78988,12.4356 26.11049,13.39716 40.01491,14.10798 22.51359,0.46056 49.64118,1.86316 65.7543,-16.96242 8.15866,-12.45387 -4.5623,-26.58922 -16.95763,-28.99105 -18.15975,-5.5722 -37.73854,-6.50407 -56.51442,-4.34867 -3.72866,0.6646 -7.40778,1.6315 -10.95569,2.96196"
               style="fill:none;stroke:#000000;stroke-width:3.52999;stroke-linecap:round;stroke-linejoin:round;stroke-miterlimit:10;stroke-dasharray:none;stroke-opacity:1"
               id="path1238"
               sodipodi:nodetypes="ccccccccccccc" />
          </g>
        </g>
        <g
           id="g1240"
           transform="matrix(1,0,0,-1,0,792)"
           style="stroke-width:2.78234">
          <g
             id="g1242"
             style="stroke-width:2.78234">
            <path
               d="m 322.87498,255.93408 c -25.41964,4.63409 -34.14709,26.08887 -18.55263,32.83522 12.08793,5.66688 25.9779,3.96695 38.97441,4.85442 14.40641,0.0802 30.57409,-1.48309 41.38957,-12.02759 7.50494,-9.9734 -4.32011,-18.26868 -13.06231,-20.74219 -15.48565,-5.49547 -32.4941,-6.77018 -48.74904,-4.91986"
               style="fill:none;stroke:#000000;stroke-width:3.52999;stroke-linecap:round;stroke-linejoin:round;stroke-miterlimit:10;stroke-dasharray:none;stroke-opacity:1"
               id="path1244"
               sodipodi:nodetypes="cccccc" />
          </g>
        </g>
        <g
           id="g1246"
           transform="matrix(1,0,0,-1,0,792)"
           style="stroke-width:2.78234">
          <g
             id="g1248"
             style="stroke-width:2.78234">
            <path
               d="m 471.17279,175.15381 c 25.32382,-25.26741 56.27891,-23.7229 96.71618,-21.93736 35.32852,5.02421 50.8186,54.53768 10.765,61.31837 -32.13479,3.6176 -52.63668,8.40537 -89.30164,-2.87025 -13.78876,-6.29749 -27.07607,-24.75268 -15.96908,-39.01324"
               style="fill:none;stroke:#000000;stroke-width:3.52999;stroke-linecap:round;stroke-linejoin:round;stroke-miterlimit:10;stroke-dasharray:none;stroke-opacity:1"
               id="path1250"
               sodipodi:nodetypes="ccccc" />
          </g>
        </g>
        <g
           id="g1252"
           transform="matrix(1,0,0,-1,0,792)"
           style="stroke-width:2.78234">
          <g
             id="g1254"
             style="stroke-width:2.78234">
            <path
               d="m 495.77618,205.09203 c 20.80167,4.6085 42.42008,8.84823 63.70954,5.13716 10.8472,-1.9458 21.48754,-6.83104 28.79398,-15.27593 1.37269,-8.78465 -1.57878,-18.46399 -8.92917,-23.8439 -10.35008,-7.72677 -23.79138,-9.21558 -36.31664,-9.71682 -11.04222,-0.22018 -22.14492,0.54752 -33.01502,2.46427 -10.16439,2.94698 -19.32866,10.12838 -23.99137,19.70452 -2.96026,5.7164 -2.07478,13.37678 3.13056,17.49819 1.95195,1.71486 4.24079,3.00642 6.61812,4.03251 z"
               style="fill:none;stroke:#000000;stroke-width:3.52999;stroke-linecap:round;stroke-linejoin:round;stroke-miterlimit:10;stroke-dasharray:none;stroke-opacity:1"
               id="path1256"
               sodipodi:nodetypes="ccccc" />
          </g>
        </g>
        <g
           id="g1258"
           transform="matrix(1,0,0,-1,0,792)"
           style="stroke-width:2.78234">
          <g
             id="g1260"
             style="stroke-width:2.78234">
            <path
               d="m 122.58581,339.03249 c 0,0 -7.89323,-171.86932 1.87177,-254.604761"
               style="fill:none;stroke:#000000;stroke-width:3.52999;stroke-linecap:round;stroke-linejoin:round;stroke-miterlimit:10;stroke-dasharray:none;stroke-opacity:1"
               id="path1262"
               sodipodi:nodetypes="cc" />
          </g>
        </g>
        <g
           id="g1264"
           transform="matrix(1,0,0,-1,0,792)"
           style="stroke-width:2.78234">
          <g
             id="g1266"
             style="stroke-width:2.78234">
            <path
               d="m 187.9299,334.90073 c 0.95658,-11.27839 -0.4825,-23.45445 -0.81352,-35.28366 -0.68801,-20.22752 -2.52771,-40.10219 -2.32537,-60.32283 0.32217,-47.77443 -3.096,-90.8848 -1.78024,-135.98164 0.056,-5.682087 -0.60016,-13.824453 -0.46357,-17.876646"
               style="fill:none;stroke:#000000;stroke-width:3.52999;stroke-linecap:round;stroke-linejoin:round;stroke-miterlimit:10;stroke-dasharray:none;stroke-opacity:1"
               id="path1268"
               sodipodi:nodetypes="ccccc" />
          </g>
        </g>
        <g
           id="g1270"
           transform="matrix(1,0,0,-1,0,792)"
           style="stroke-width:2.78234">
          <g
             id="g1272"
             style="stroke-width:2.78234">
            <path
               d="m 124.45758,84.427729 c 4.89612,-14.629386 21.36002,-12.594154 36.08918,-12.604404 8.69541,1.215269 18.31909,4.956391 22.00044,13.612629"
               style="fill:none;stroke:#000000;stroke-width:3.52999;stroke-linecap:round;stroke-linejoin:round;stroke-miterlimit:10;stroke-dasharray:none;stroke-opacity:1"
               id="path1274"
               sodipodi:nodetypes="ccc" />
          </g>
        </g>
        <g
           id="g1276"
           transform="matrix(1,0,0,-1,0,792)"
           style="stroke-width:2.78234">
          <g
             id="g1278"
             style="stroke-width:2.78234">
            <path
               d="m 287.94539,276.00547 c 0,0 0.1385,-54.57864 -1.15216,-75.36433 -1.68585,-34.50337 -4.03584,-66.20587 -0.72111,-98.56561"
               style="fill:none;stroke:#000000;stroke-width:3.52999;stroke-linecap:round;stroke-linejoin:round;stroke-miterlimit:10;stroke-dasharray:none;stroke-opacity:1"
               id="path1280"
               sodipodi:nodetypes="ccc" />
          </g>
        </g>
        <g
           id="g1282"
           transform="matrix(1,0,0,-1,0,792)"
           style="stroke-width:2.78234">
          <g
             id="g1284"
             style="stroke-width:2.78234">
            <path
               d="M 397.18993,271.23787 C 393.86344,211.038 392.21992,152.85139 390.21171,97.327782"
               style="fill:none;stroke:#000000;stroke-width:3.52999;stroke-linecap:round;stroke-linejoin:round;stroke-miterlimit:10;stroke-dasharray:none;stroke-opacity:1"
               id="path1286"
               sodipodi:nodetypes="cc" />
          </g>
        </g>
        <g
           id="g1288"
           transform="matrix(1,0,0,-1,0,792)"
           style="stroke-width:2.78234">
          <g
             id="g1290"
             style="stroke-width:2.78234">
            <path
               d="m 286.33552,101.99203 c -0.2634,0.0835 7.10221,-15.399858 15.80372,-18.64934 13.99453,-8.949438 33.10224,-9.80379 49.79795,-7.974718 24.32243,3.245985 27.92819,3.211797 37.82908,20.833361"
               style="fill:none;stroke:#000000;stroke-width:3.52999;stroke-linecap:round;stroke-linejoin:round;stroke-miterlimit:10;stroke-dasharray:none;stroke-opacity:1"
               id="path1292"
               sodipodi:nodetypes="cccc" />
          </g>
        </g>
        <g
           id="g1294"
           transform="matrix(1,0,0,-1,0,792)"
           style="stroke-width:2.78234">
          <g
             id="g1296"
             style="stroke-width:2.78234">
            <path
               d="m 468.16217,173.36324 c 0.0558,0.1526 0.4228,0.64613 0.55048,0.74029"
               style="fill:none;stroke:#000000;stroke-width:3.52999;stroke-linecap:round;stroke-linejoin:round;stroke-miterlimit:10;stroke-dasharray:none;stroke-opacity:1"
               id="path1298" />
          </g>
        </g>
        <g
           id="g1300"
           transform="matrix(1,0,0,-1,0,792)"
           style="stroke-width:2.78234">
          <g
             id="g1302"
             style="stroke-width:2.78234">
            <path
               d="m 468.66604,181.39747 c -0.52249,0.65477 -0.41592,-68.90116 -0.41592,-68.90116"
               style="fill:none;stroke:#000000;stroke-width:3.52999;stroke-linecap:round;stroke-linejoin:round;stroke-miterlimit:10;stroke-dasharray:none;stroke-opacity:1"
               id="path1304"
               sodipodi:nodetypes="cc" />
          </g>
        </g>
        <g
           id="g1306"
           transform="matrix(1,0,0,-1,0,792)"
           style="stroke-width:2.78234">
          <g
             id="g1308"
             style="stroke-width:2.78234">
            <path
               d="m 602.4475,189.1885 c 0.6123,-22.50746 2.0001,-52.59604 1.38639,-75.34587"
               style="fill:none;stroke:#000000;stroke-width:3.52999;stroke-linecap:round;stroke-linejoin:round;stroke-miterlimit:10;stroke-dasharray:none;stroke-opacity:1"
               id="path1310"
               sodipodi:nodetypes="cc" />
          </g>
        </g>
        <g
           id="g1312"
           transform="matrix(1,0,0,-1,0,792)"
           style="stroke-width:2.78234">
          <g
             id="g1314"
             style="stroke-width:2.78234">
            <path
               d="m 468.25012,112.49631 c 17.08286,-27.008683 53.07456,-27.930587 81.52824,-25.21949 20.316,2.190891 41.7871,9.125009 54.05553,26.56581"
               style="fill:none;stroke:#000000;stroke-width:3.52999;stroke-linecap:round;stroke-linejoin:round;stroke-miterlimit:10;stroke-dasharray:none;stroke-opacity:1"
               id="path1316"
               sodipodi:nodetypes="ccc" />
          </g>
        </g>
      </g>
    </g>
  </g>
</svg>
