<?xml version="1.0" encoding="UTF-8" standalone="no"?>
<!-- Created by Ashley Blewer - This work is licensed under a Creative Commons Attribution 4.0 International License -->

<svg
   width="544"
   height="480"
   viewBox="0 0 143.93334 127"
   version="1.1"
   id="svg2490"
   inkscape:version="1.2.2 (1:1.2.2+202212051552+b0a8486541)"
   sodipodi:docname="1898-wire-recording-3.svg"
   xmlns:inkscape="http://www.inkscape.org/namespaces/inkscape"
   xmlns:sodipodi="http://sodipodi.sourceforge.net/DTD/sodipodi-0.dtd"
   xmlns="http://www.w3.org/2000/svg"
   xmlns:svg="http://www.w3.org/2000/svg">
  <sodipodi:namedview
     id="namedview2492"
     pagecolor="#ffffff"
     bordercolor="#666666"
     borderopacity="1.0"
     inkscape:pageshadow="2"
     inkscape:pageopacity="0.0"
     inkscape:pagecheckerboard="0"
     inkscape:document-units="mm"
     showgrid="false"
     units="px"
     inkscape:zoom="0.90583674"
     inkscape:cx="53.541657"
     inkscape:cy="253.35691"
     inkscape:window-width="1846"
     inkscape:window-height="1136"
     inkscape:window-x="0"
     inkscape:window-y="0"
     inkscape:window-maximized="1"
     inkscape:current-layer="g4731"
     inkscape:showpageshadow="2"
     inkscape:deskcolor="#d1d1d1" />
  <defs
     id="defs2487" />
  <g
     inkscape:label="Layer 1"
     inkscape:groupmode="layer"
     id="layer1">
    <g
       id="g4731"
       transform="matrix(0.32961229,0,0,0.32903008,-241.78905,1.73126)"
       style="stroke-width:2.68698">
      <g
         id="g104528"
         transform="matrix(1,0,0,-1,0,792)"
         style="stroke-width:2.68698">
        <g
           id="g104530"
           style="stroke-width:2.68698" />
      </g>
      <g
         id="g104996"
         transform="matrix(1,0,0,-1,0,792)"
         style="stroke-width:2.68698">
        <g
           id="g104998"
           style="stroke-width:2.68698" />
      </g>
      <g
         id="g43189"
         transform="matrix(1.070281,0,0,1.0721748,18.836958,-136.44159)">
        <g
           id="g64"
           transform="matrix(1,0,0,-1,-119.54666,913.45813)">
          <g
             id="g66">
            <path
               d="m 893.07983,556.49878 c 37.75987,2.39446 91.45413,-0.55385 112.73367,-15.33413 18.1691,-19.84794 -27.79542,-29.5096 -43.82925,-32.6167 -46.06412,-10.38529 -94.8545,-8.55057 -139.84931,5.50324 -30.92612,16.78197 12.30995,34.14538 31.90069,37.38979 14.57097,2.87602 29.32589,4.01077 44.08331,5.41688"
               style="fill:none;stroke:#000000;stroke-width:2.61538;stroke-linecap:round;stroke-linejoin:round;stroke-miterlimit:10;stroke-dasharray:none;stroke-opacity:1"
               id="path68"
               sodipodi:nodetypes="cccccc" />
          </g>
        </g>
        <g
           id="g70"
           transform="matrix(1,0,0,-1,-119.54666,913.45813)">
          <g
             id="g72">
            <path
               d="m 857.77307,535.37946 c 11.73208,6.28332 25.34235,7.66115 38.33663,9.27921 19.15361,1.25379 38.9664,2.78552 57.6601,-2.50302 8.53022,-0.90867 23.1053,-11.07767 9.88867,-17.38046 -20.95801,-10.62074 -45.00422,-11.69821 -68.00494,-10.0532 -14.06888,0.978 -29.02717,0.96484 -41.52792,8.39327 -4.16785,3.83112 -0.5346,10.00301 3.59185,12.03644"
               style="fill:none;stroke:#000000;stroke-width:2.61538;stroke-linecap:round;stroke-linejoin:round;stroke-miterlimit:10;stroke-dasharray:none;stroke-opacity:1"
               id="path74"
               sodipodi:nodetypes="cccccccc" />
          </g>
        </g>
        <g
           id="g76"
           transform="matrix(1,0,0,-1,-119.54666,913.45813)">
          <g
             id="g78">
            <path
               d="m 822.54144,504.10663 c -17.1569,-3.12451 -15.448,-26.49659 -1.60738,-33.15126 22.26167,-17.19176 52.34472,-14.48885 78.83347,-16.21949 34.67834,0.0391 69.43943,6.07336 101.81707,18.59583 14.7717,7.0044 11.5784,31.70773 -4.04294,35.35984"
               style="fill:none;stroke:#000000;stroke-width:2.61538;stroke-linecap:round;stroke-linejoin:round;stroke-miterlimit:10;stroke-dasharray:none;stroke-opacity:1"
               id="path80"
               sodipodi:nodetypes="ccccc" />
          </g>
        </g>
        <g
           id="g82"
           transform="matrix(1,0,0,-1,-119.54666,913.45813)">
          <g
             id="g84">
            <path
               d="m 811.53021,523.38425 c 12.6876,-22.74622 36.97186,-24.37242 60.29195,-26.27357 29.96996,-1.02385 60.39111,-1.26222 89.98752,3.89051 16.76282,5.37542 43.76442,7.65798 48.20532,28.12215 l -0.2677,2.37627"
               style="fill:none;stroke:#000000;stroke-width:2.61538;stroke-linecap:round;stroke-linejoin:round;stroke-miterlimit:10;stroke-dasharray:none;stroke-opacity:1"
               id="path86"
               sodipodi:nodetypes="ccccc" />
          </g>
        </g>
        <g
           id="g88"
           transform="matrix(1,0,0,-1,-119.54666,913.45813)">
          <g
             id="g90">
            <path
               d="m 822.34877,510.13517 c -12.59423,-35.59758 27.59715,-40.83752 60.16132,-43.65213 37.3288,-3.18418 82.55313,-4.48982 111.71035,23.09726 5.98166,7.14069 5.63185,17.72151 1.66624,26.15591"
               style="fill:none;stroke:#000000;stroke-width:2.61538;stroke-linecap:round;stroke-linejoin:round;stroke-miterlimit:10;stroke-dasharray:none;stroke-opacity:1"
               id="path92"
               sodipodi:nodetypes="cccc" />
          </g>
        </g>
        <g
           id="g94"
           transform="matrix(1,0,0,-1,-119.54666,913.45813)">
          <g
             id="g96">
            <path
               d="m 975.1759,553.72803 c -55.81012,60.84278 2.00576,175.03986 84.528,165.10249 81.5718,-0.31554 143.0568,-109.69785 86.928,-174.75079 -32.0298,-39.08514 -94.5704,-50.85944 -137.0973,-22.20155"
               style="fill:none;stroke:#000000;stroke-width:2.61538;stroke-linecap:round;stroke-linejoin:round;stroke-miterlimit:10;stroke-dasharray:none;stroke-opacity:1"
               id="path98" />
          </g>
        </g>
        <g
           id="g106"
           transform="matrix(1,0,0,-1,-119.54666,913.45813)">
          <g
             id="g108">
            <path
               d="m 1049.4863,719.43894 c 71.5617,6.90365 110.0523,-29.82681 119.5501,-80.47554 7.3833,-28.7318 3.5639,-61.49229 -15.6349,-84.96799"
               style="fill:none;stroke:#000000;stroke-width:2.61538;stroke-linecap:round;stroke-linejoin:round;stroke-miterlimit:10;stroke-dasharray:none;stroke-opacity:1"
               id="path110"
               sodipodi:nodetypes="ccc" />
          </g>
        </g>
        <g
           id="g112"
           transform="matrix(1,0,0,-1,-119.54666,913.45813)">
          <g
             id="g114">
            <path
               d="m 825.50391,504.14792 c 35.2948,-17.28629 76.06488,-15.45012 114.26992,-14.17719 19.14238,2.54866 38.11843,9.03922 53.49338,20.97389"
               style="fill:none;stroke:#000000;stroke-width:1.30769;stroke-linecap:round;stroke-linejoin:round;stroke-miterlimit:10;stroke-dasharray:none;stroke-opacity:1"
               id="path116" />
          </g>
        </g>
        <g
           id="g118"
           transform="matrix(1,0,0,-1,-119.54666,913.45813)">
          <g
             id="g120">
            <path
               d="m 823.00433,499.25833 c 48.26458,-21.76469 105.53851,-20.53434 154.7517,-2.65895 5.52309,2.35969 10.89426,5.08305 16.02455,8.20846"
               style="fill:none;stroke:#000000;stroke-width:1.30769;stroke-linecap:round;stroke-linejoin:round;stroke-miterlimit:10;stroke-dasharray:none;stroke-opacity:1"
               id="path122" />
          </g>
        </g>
        <g
           id="g124"
           transform="matrix(1,0,0,-1,-119.54666,913.45813)">
          <g
             id="g126">
            <path
               d="m 996.68719,504.12231 c -38.99542,-28.62267 -90.93452,-31.38259 -137.10891,-24.23273 -12.24051,2.81699 -24.08888,8.14406 -33.46747,16.62647"
               style="fill:none;stroke:#000000;stroke-width:1.30769;stroke-linecap:round;stroke-linejoin:round;stroke-miterlimit:10;stroke-dasharray:none;stroke-opacity:1"
               id="path128" />
          </g>
        </g>
        <g
           id="g130"
           transform="matrix(1,0,0,-1,-119.54666,913.45813)">
          <g
             id="g132">
            <path
               d="m 822.17944,497.12506 c 25.22485,-27.99189 67.37327,-25.6449 101.83096,-24.80283 24.87781,2.79413 49.17721,11.10889 70.33445,24.5329"
               style="fill:none;stroke:#000000;stroke-width:1.30769;stroke-linecap:round;stroke-linejoin:round;stroke-miterlimit:10;stroke-dasharray:none;stroke-opacity:1"
               id="path134" />
          </g>
        </g>
        <g
           id="g136"
           transform="matrix(1,0,0,-1,-119.54666,913.45813)">
          <g
             id="g138">
            <path
               d="m 997.4433,495.97095 c -40.12103,-33.73493 -97.24871,-34.02096 -146.16313,-24.56868 -11.76736,3.47459 -23.7133,9.87393 -29.59436,21.16718"
               style="fill:none;stroke:#000000;stroke-width:1.30769;stroke-linecap:round;stroke-linejoin:round;stroke-miterlimit:10;stroke-dasharray:none;stroke-opacity:1"
               id="path140" />
          </g>
        </g>
        <g
           id="g142"
           transform="matrix(1,0,0,-1,-119.54666,913.45813)">
          <g
             id="g144">
            <path
               d="m 823.71698,499.81604 c 9.19519,-26.54406 42.64813,-25.00574 65.68536,-27.89901 37.44324,-1.34423 79.00916,1.36143 109.03799,26.39652"
               style="fill:none;stroke:#000000;stroke-width:1.30769;stroke-linecap:round;stroke-linejoin:round;stroke-miterlimit:10;stroke-dasharray:none;stroke-opacity:1"
               id="path146" />
          </g>
        </g>
        <g
           id="g148"
           transform="matrix(1,0,0,-1,-119.54666,913.45813)">
          <g
             id="g150">
            <path
               d="m 822.8493,502.33905 c 50.4911,-18.84503 107.65272,-15.09083 158.33728,0.92083 l 5.44743,2.01578 5.38595,2.18058"
               style="fill:none;stroke:#000000;stroke-width:1.30769;stroke-linecap:round;stroke-linejoin:round;stroke-miterlimit:10;stroke-dasharray:none;stroke-opacity:1"
               id="path152" />
          </g>
        </g>
        <g
           id="g154"
           transform="matrix(1,0,0,-1,-119.54666,913.45813)">
          <g
             id="g156">
            <path
               d="M 992.62701,503.99326 C 941.79402,483.76325 880.79892,469.87377 830.52606,499.36375"
               style="fill:none;stroke:#000000;stroke-width:1.30769;stroke-linecap:round;stroke-linejoin:round;stroke-miterlimit:10;stroke-dasharray:none;stroke-opacity:1"
               id="path158" />
          </g>
        </g>
        <g
           id="g160"
           transform="matrix(1,0,0,-1,-119.54666,913.45813)">
          <g
             id="g162">
            <path
               d="m 821.53302,499.88605 c 50.62149,-29.18358 113.67346,-20.34248 166.36514,-1.7815 3.08653,1.28824 6.13467,2.66889 9.1349,4.14718"
               style="fill:none;stroke:#000000;stroke-width:1.30769;stroke-linecap:round;stroke-linejoin:round;stroke-miterlimit:10;stroke-dasharray:none;stroke-opacity:1"
               id="path164" />
          </g>
        </g>
        <g
           id="g166"
           transform="matrix(1,0,0,-1,-119.54666,913.45813)">
          <g
             id="g168">
            <path
               d="m 847.54535,491.36731 c 49.61015,-3.7127 103.27819,1.93464 150.64785,17.5207 l -4.14966,-1.33955 -0.23567,-0.0991"
               style="fill:none;stroke:#000000;stroke-width:1.30769;stroke-linecap:round;stroke-linejoin:round;stroke-miterlimit:10;stroke-dasharray:none;stroke-opacity:1"
               id="path170"
               sodipodi:nodetypes="cccc" />
          </g>
        </g>
        <g
           id="g172"
           transform="matrix(1,0,0,-1,-119.54666,913.45813)">
          <g
             id="g174">
            <path
               d="m 826.05804,486.75192 c 28.4472,-22.05804 67.21091,-17.10939 100.95236,-17.3482 23.28021,1.90646 46.85253,7.54847 66.58604,20.50946"
               style="fill:none;stroke:#000000;stroke-width:1.30769;stroke-linecap:round;stroke-linejoin:round;stroke-miterlimit:10;stroke-dasharray:none;stroke-opacity:1"
               id="path176" />
          </g>
        </g>
        <g
           id="g178"
           transform="matrix(1,0,0,-1,-119.54666,913.45813)">
          <g
             id="g180">
            <path
               d="m 964.08836,608.76451 c -0.72812,-7.26931 2.6221,-12.23022 4.59434,-19.09732 3.92525,-10.74317 9.77199,-20.67377 16.10486,-30.15771 3.00392,-4.08212 6.05656,-10.8108 11.72894,-13.01459"
               style="fill:none;stroke:#000000;stroke-width:1.30769;stroke-linecap:round;stroke-linejoin:round;stroke-miterlimit:10;stroke-dasharray:none;stroke-opacity:1"
               id="path182"
               sodipodi:nodetypes="cccc" />
          </g>
        </g>
        <g
           id="g184"
           transform="matrix(1,0,0,-1,-119.54666,913.45813)">
          <g
             id="g186">
            <path
               d="m 1006.3728,540.95801 c 23.4455,-10.06396 59.833,-20.84195 84.8116,-16.17089 29.8592,9.39982 57.1967,32.03716 65.1381,63.27126 11.2748,31.9836 2.0761,72.17579 -27.4003,91.22539 -28.0522,18.89479 -64.1067,26.0365 -97.338,20.63746 -40.0218,-9.35881 -66.15958,-52.33551 -67.53196,-91.48933"
               style="fill:none;stroke:#000000;stroke-width:1.30769;stroke-linecap:round;stroke-linejoin:round;stroke-miterlimit:10;stroke-dasharray:none;stroke-opacity:1"
               id="path188"
               sodipodi:nodetypes="cccccc" />
          </g>
        </g>
        <g
           id="g190"
           transform="matrix(1,0,0,-1,-119.54666,913.45813)">
          <g
             id="g192">
            <path
               d="m 968.05096,617.49884 c 60.13034,-12.25613 122.15454,-7.26952 182.51094,-17.73021"
               style="fill:none;stroke:#000000;stroke-width:1.30769;stroke-linecap:round;stroke-linejoin:round;stroke-miterlimit:10;stroke-dasharray:none;stroke-opacity:1"
               id="path194" />
          </g>
        </g>
        <g
           id="g196"
           transform="matrix(1,0,0,-1,-119.54666,913.45813)">
          <g
             id="g198">
            <path
               d="m 985.72607,650.1452 c -1.06992,-4.68901 0.59701,-10.15514 -0.67893,-14.51495"
               style="fill:none;stroke:#000000;stroke-width:1.30769;stroke-linecap:round;stroke-linejoin:round;stroke-miterlimit:10;stroke-dasharray:none;stroke-opacity:1"
               id="path200" />
          </g>
        </g>
        <g
           id="g202"
           transform="matrix(1,0,0,-1,-119.54666,913.45813)">
          <g
             id="g204">
            <path
               d="m 984.51294,648.78284 c 4.32623,5.68902 11.41933,-6.33364 2.34849,-6.69323 1.43997,-0.13649 6.36359,-7.76232 4.92646,-6.18862"
               style="fill:none;stroke:#000000;stroke-width:1.30769;stroke-linecap:round;stroke-linejoin:round;stroke-miterlimit:10;stroke-dasharray:none;stroke-opacity:1"
               id="path206"
               sodipodi:nodetypes="ccc" />
          </g>
        </g>
        <g
           id="g208"
           transform="matrix(1,0,0,-1,-119.54666,913.45813)">
          <g
             id="g210">
            <path
               d="m 996.17242,648.73303 c 2.46828,-3.64756 -4.0026,-14.15071 3.63658,-13.2292"
               style="fill:none;stroke:#000000;stroke-width:1.30769;stroke-linecap:round;stroke-linejoin:round;stroke-miterlimit:10;stroke-dasharray:none;stroke-opacity:1"
               id="path212" />
          </g>
        </g>
        <g
           id="g214"
           transform="matrix(1,0,0,-1,-119.54666,913.45813)">
          <g
             id="g216">
            <path
               d="m 996.58612,641.09003 c 1.12256,0.25009 2.24856,0.48522 3.37738,0.70532"
               style="fill:none;stroke:#000000;stroke-width:1.30769;stroke-linecap:round;stroke-linejoin:round;stroke-miterlimit:10;stroke-dasharray:none;stroke-opacity:1"
               id="path218" />
          </g>
        </g>
        <g
           id="g220"
           transform="matrix(1,0,0,-1,-119.54666,913.45813)">
          <g
             id="g222">
            <path
               d="m 996.17242,648.73303 c 0,0 2.99166,0.10541 4.34268,-0.55919"
               style="fill:none;stroke:#000000;stroke-width:1.30769;stroke-linecap:round;stroke-linejoin:round;stroke-miterlimit:10;stroke-dasharray:none;stroke-opacity:1"
               id="path224"
               sodipodi:nodetypes="cc" />
          </g>
        </g>
        <g
           id="g226"
           transform="matrix(1,0,0,-1,-119.54666,913.45813)">
          <g
             id="g228">
            <path
               d="m 1011.4799,646.97803 c -8.1164,0.88215 -6.5364,-13.64737 1.0247,-12.03216 0.1869,0.28112 0.3737,0.56223 0.5606,0.84335"
               style="fill:none;stroke:#000000;stroke-width:1.30769;stroke-linecap:round;stroke-linejoin:round;stroke-miterlimit:10;stroke-dasharray:none;stroke-opacity:1"
               id="path230" />
          </g>
        </g>
        <g
           id="g232"
           transform="matrix(1,0,0,-1,-119.54666,913.45813)">
          <g
             id="g234">
            <path
               d="m 1021.4607,646.61139 c -5.4013,-0.69378 -5.6891,-7.94108 -1.9231,-10.78545 5.2991,-4.05249 9.0445,6.03294 4.6927,9.07652 -1.2339,1.1622 -3.0034,1.69026 -4.6752,1.43527"
               style="fill:none;stroke:#000000;stroke-width:1.30769;stroke-linecap:round;stroke-linejoin:round;stroke-miterlimit:10;stroke-dasharray:none;stroke-opacity:1"
               id="path236" />
          </g>
        </g>
        <g
           id="g238"
           transform="matrix(1,0,0,-1,-119.54666,913.45813)">
          <g
             id="g240">
            <path
               d="m 1030.5175,644.90485 c -0.1408,-3.43919 0.035,-6.88087 -0.021,-10.32099"
               style="fill:none;stroke:#000000;stroke-width:1.30769;stroke-linecap:round;stroke-linejoin:round;stroke-miterlimit:10;stroke-dasharray:none;stroke-opacity:1"
               id="path242" />
          </g>
        </g>
        <g
           id="g244"
           transform="matrix(1,0,0,-1,-119.54666,913.45813)">
          <g
             id="g246">
            <path
               d="m 1029.838,643.89655 c 3.4834,5.05568 9.8456,-4.7169 3.9958,-5.05791 3.3595,-0.41973 1.773,-3.66601 2.4242,-5.72116"
               style="fill:none;stroke:#000000;stroke-width:1.30769;stroke-linecap:round;stroke-linejoin:round;stroke-miterlimit:10;stroke-dasharray:none;stroke-opacity:1"
               id="path248" />
          </g>
        </g>
        <g
           id="g250"
           transform="matrix(1,0,0,-1,-119.54666,913.45813)">
          <g
             id="g252">
            <path
               d="m 1043.1808,644.41913 c 0.66,-3.64651 -0.7539,-6.90219 -0.5986,-10.57611"
               style="fill:none;stroke:#000000;stroke-width:1.30769;stroke-linecap:round;stroke-linejoin:round;stroke-miterlimit:10;stroke-dasharray:none;stroke-opacity:1"
               id="path254"
               sodipodi:nodetypes="cc" />
          </g>
        </g>
        <g
           id="g256"
           transform="matrix(1,0,0,-1,-119.54666,913.45813)">
          <g
             id="g258">
            <path
               d="m 1043.1808,644.41913 c 5.6098,1.17062 9.1151,-7.49146 4.6743,-11.14719 -1.6658,-1.05557 -3.734,-0.33058 -5.2729,0.57108"
               style="fill:none;stroke:#000000;stroke-width:1.30769;stroke-linecap:round;stroke-linejoin:round;stroke-miterlimit:10;stroke-dasharray:none;stroke-opacity:1"
               id="path260"
               sodipodi:nodetypes="ccc" />
          </g>
        </g>
        <g
           id="g262"
           transform="matrix(1,0,0,-1,-119.54666,913.45813)">
          <g
             id="g264">
            <path
               d="m 1053.9365,642.8764 c 1.8817,-3.07761 0.4118,-6.74912 0.6673,-10.07765"
               style="fill:none;stroke:#000000;stroke-width:1.30769;stroke-linecap:round;stroke-linejoin:round;stroke-miterlimit:10;stroke-dasharray:none;stroke-opacity:1"
               id="path266" />
          </g>
        </g>
        <g
           id="g268"
           transform="matrix(1,0,0,-1,-119.54666,913.45813)">
          <g
             id="g270">
            <path
               d="m 1060.9963,631.41791 c 0.1791,2.54905 -0.5961,13.55568 3.0697,6.76888 0.3864,-2.89433 5.5227,-9.00271 4.2231,-2.25038 0.011,2.26306 -0.085,4.52979 -0.3731,6.77574"
               style="fill:none;stroke:#000000;stroke-width:1.30769;stroke-linecap:round;stroke-linejoin:round;stroke-miterlimit:10;stroke-dasharray:none;stroke-opacity:1"
               id="path272" />
          </g>
        </g>
        <g
           id="g274"
           transform="matrix(1,0,0,-1,-119.54666,913.45813)">
          <g
             id="g276">
            <path
               d="m 1080.9581,640.30322 c -4.6479,5.72381 -8.6427,-4.28018 -7.1588,-8.41338 0.9979,-8.67762 13.4468,3.40111 4.9028,2.84781"
               style="fill:none;stroke:#000000;stroke-width:1.30769;stroke-linecap:round;stroke-linejoin:round;stroke-miterlimit:10;stroke-dasharray:none;stroke-opacity:1"
               id="path278" />
          </g>
        </g>
        <g
           id="g280"
           transform="matrix(1,0,0,-1,-119.54666,913.45813)">
          <g
             id="g282">
            <path
               d="m 1097.0671,639.68549 c 2.0206,-2.68297 1.3623,-8.85426 4.2668,-9.88012 1.3881,1.72524 0.2583,11.30524 3.3403,6.79046 0.056,-2.52833 3.0238,-11.997 3.7946,-4.64596 0.5589,2.11475 1.0043,4.27482 1.882,6.28898"
               style="fill:none;stroke:#000000;stroke-width:1.30769;stroke-linecap:round;stroke-linejoin:round;stroke-miterlimit:10;stroke-dasharray:none;stroke-opacity:1"
               id="path284" />
          </g>
        </g>
        <g
           id="g286"
           transform="matrix(1,0,0,-1,-119.54666,913.45813)">
          <g
             id="g288">
            <path
               d="m 1116.2504,638.02844 c 0.046,-3.24868 -1.0403,-6.42634 -0.7222,-9.68302"
               style="fill:none;stroke:#000000;stroke-width:1.30769;stroke-linecap:round;stroke-linejoin:round;stroke-miterlimit:10;stroke-dasharray:none;stroke-opacity:1"
               id="path290" />
          </g>
        </g>
        <g
           id="g292"
           transform="matrix(1,0,0,-1,-119.54666,913.45813)">
          <g
             id="g294">
            <path
               d="m 1122.252,638.21289 c 0.324,-3.91578 0.3847,-7.8552 0.1372,-11.77727"
               style="fill:none;stroke:#000000;stroke-width:1.30769;stroke-linecap:round;stroke-linejoin:round;stroke-miterlimit:10;stroke-dasharray:none;stroke-opacity:1"
               id="path296" />
          </g>
        </g>
        <g
           id="g298"
           transform="matrix(1,0,0,-1,-119.54666,913.45813)">
          <g
             id="g300">
            <path
               d="m 1121.7694,635.94672 c -0.2692,0.56347 0.4051,2.04914 0.4826,2.26617 0.7179,0.2495 2.3588,-0.20189 3.0768,0.0476 0.4392,-0.21757 1.0381,-0.21395 1.3298,-0.64727 0.3078,-0.45186 0.8468,-0.80288 0.7399,-1.37737 0.4434,-0.34902 -0.038,-0.92149 -0.035,-1.3763 -0.1673,-0.74339 -0.6245,-1.37533 -0.9343,-2.06311 -0.2161,-0.60378 -0.9726,-0.68367 -1.4509,-1.02989 -0.4682,-0.26639 -1.0343,-0.22779 -1.5496,-0.34719 0.5233,-0.1836 1.2045,-0.0827 1.6031,-0.50353 0.4137,-0.4161 0.8715,-0.81278 1.0128,-1.40851 0.3602,-0.90362 0.7795,-1.78893 1.0835,-2.71183 0.085,-0.36033 0.1788,-0.72023 0.065,-0.95678 0.096,-0.14598 0.1592,-0.30534 0.2372,-0.46058"
               style="fill:none;stroke:#000000;stroke-width:1.30769;stroke-linecap:round;stroke-linejoin:round;stroke-miterlimit:10;stroke-dasharray:none;stroke-opacity:1"
               id="path302"
               sodipodi:nodetypes="cccccccccccccc" />
          </g>
        </g>
        <g
           id="g304"
           transform="matrix(1,0,0,-1,-119.54666,913.45813)">
          <g
             id="g306">
            <path
               d="m 1137.8993,637.7522 c -1.0158,0.007 -2.921,0.16956 -3.9325,0.0756"
               style="fill:none;stroke:#000000;stroke-width:1.30769;stroke-linecap:round;stroke-linejoin:round;stroke-miterlimit:10;stroke-dasharray:none;stroke-opacity:1"
               id="path308"
               sodipodi:nodetypes="cc" />
          </g>
        </g>
        <g
           id="g310"
           transform="matrix(1,0,0,-1,-119.54666,913.45813)">
          <g
             id="g312">
            <path
               d="m 1133.9668,637.8278 c 0.1374,-2.06697 0.607,-4.1853 0,-6.22214 -0.2499,-1.9462 -0.7343,-3.87945 -0.6497,-5.85455 0.8875,-1.21603 2.6746,-0.69188 3.9151,-0.52595"
               style="fill:none;stroke:#000000;stroke-width:1.30769;stroke-linecap:round;stroke-linejoin:round;stroke-miterlimit:10;stroke-dasharray:none;stroke-opacity:1"
               id="path314"
               sodipodi:nodetypes="cccccc" />
          </g>
        </g>
        <g
           id="g316"
           transform="matrix(1,0,0,-1,-119.54666,913.45813)">
          <g
             id="g318">
            <path
               d="m 1134.3014,631.96979 c 1.2548,-0.86128 2.7999,-0.40289 4.1967,-0.49145"
               style="fill:none;stroke:#000000;stroke-width:1.30769;stroke-linecap:round;stroke-linejoin:round;stroke-miterlimit:10;stroke-dasharray:none;stroke-opacity:1"
               id="path320" />
          </g>
        </g>
      </g>
    </g>
  </g>
</svg>
