<?xml version="1.0" encoding="UTF-8" standalone="no"?>
<!-- Created by Ashley Blewer - This work is licensed under a Creative Commons Attribution 4.0 International License -->

<svg
   width="544"
   height="480"
   viewBox="0 0 143.93334 127"
   version="1.1"
   id="svg2490"
   inkscape:version="1.2.2 (1:1.2.2+202212051552+b0a8486541)"
   sodipodi:docname="1928-sound-on-film-4.svg"
   xmlns:inkscape="http://www.inkscape.org/namespaces/inkscape"
   xmlns:sodipodi="http://sodipodi.sourceforge.net/DTD/sodipodi-0.dtd"
   xmlns="http://www.w3.org/2000/svg"
   xmlns:svg="http://www.w3.org/2000/svg">
  <sodipodi:namedview
     id="namedview2492"
     pagecolor="#ffffff"
     bordercolor="#666666"
     borderopacity="1.0"
     inkscape:pageshadow="2"
     inkscape:pageopacity="0.0"
     inkscape:pagecheckerboard="0"
     inkscape:document-units="mm"
     showgrid="false"
     units="px"
     inkscape:zoom="0.90583674"
     inkscape:cx="53.541657"
     inkscape:cy="253.35691"
     inkscape:window-width="1846"
     inkscape:window-height="1136"
     inkscape:window-x="0"
     inkscape:window-y="0"
     inkscape:window-maximized="1"
     inkscape:current-layer="g4731"
     inkscape:showpageshadow="2"
     inkscape:deskcolor="#d1d1d1" />
  <defs
     id="defs2487" />
  <g
     inkscape:label="Layer 1"
     inkscape:groupmode="layer"
     id="layer1">
    <g
       id="g4731"
       transform="matrix(0.32961229,0,0,0.32903008,-241.78905,1.73126)"
       style="stroke-width:2.68698">
      <g
         id="g104528"
         transform="matrix(1,0,0,-1,0,792)"
         style="stroke-width:2.68698">
        <g
           id="g104530"
           style="stroke-width:2.68698" />
      </g>
      <g
         id="g104996"
         transform="matrix(1,0,0,-1,0,792)"
         style="stroke-width:2.68698">
        <g
           id="g104998"
           style="stroke-width:2.68698" />
      </g>
      <g
         id="g12437"
         transform="matrix(1.2041887,0,0,1.2063195,729.77181,-502.82879)"
         style="stroke-width:2.54698">
        <g
           id="g326"
           transform="matrix(1,0,0,-1,0,792)"
           style="stroke-width:2.54698">
          <g
             id="g328"
             style="stroke-width:2.54698" />
        </g>
        <g
           id="g332"
           transform="matrix(1,0,0,-1,0,792)"
           style="stroke-width:2.54698">
          <g
             id="g334"
             style="stroke-width:2.54698" />
        </g>
        <g
           id="g338"
           transform="matrix(1,0,0,-1,0,792)"
           style="stroke-width:2.54698">
          <g
             id="g340"
             style="stroke-width:2.54698" />
        </g>
        <g
           id="g344"
           transform="matrix(1,0,0,-1,0,792)"
           style="stroke-width:2.54698">
          <g
             id="g346"
             style="stroke-width:2.54698" />
        </g>
        <g
           id="g350"
           transform="matrix(1,0,0,-1,0,792)"
           style="stroke-width:2.54698">
          <g
             id="g352"
             style="stroke-width:2.54698" />
        </g>
        <g
           id="g356"
           transform="matrix(1,0,0,-1,0,792)"
           style="stroke-width:2.54698">
          <g
             id="g358"
             style="stroke-width:2.54698" />
        </g>
        <g
           id="g362"
           transform="matrix(1,0,0,-1,0,792)"
           style="stroke-width:2.54698">
          <g
             id="g364"
             style="stroke-width:2.54698" />
        </g>
        <g
           id="g368"
           transform="matrix(1,0,0,-1,0,792)"
           style="stroke-width:2.54698">
          <g
             id="g370"
             style="stroke-width:2.54698" />
        </g>
        <g
           id="g374"
           transform="matrix(1,0,0,-1,0,792)"
           style="stroke-width:2.54698">
          <g
             id="g376"
             style="stroke-width:2.54698" />
        </g>
        <g
           id="g380"
           transform="matrix(1,0,0,-1,0,792)"
           style="stroke-width:2.54698">
          <g
             id="g382"
             style="stroke-width:2.54698" />
        </g>
        <g
           id="g386"
           transform="matrix(1,0,0,-1,0,792)"
           style="stroke-width:2.54698">
          <g
             id="g388"
             style="stroke-width:2.54698" />
        </g>
        <g
           id="g392"
           transform="matrix(1,0,0,-1,0,792)"
           style="stroke-width:2.54698">
          <g
             id="g394"
             style="stroke-width:2.54698" />
        </g>
        <g
           id="g398"
           transform="matrix(1,0,0,-1,0,792)"
           style="stroke-width:2.54698">
          <g
             id="g400"
             style="stroke-width:2.54698" />
        </g>
        <g
           id="g404"
           transform="matrix(1,0,0,-1,0,792)"
           style="stroke-width:2.54698">
          <g
             id="g406"
             style="stroke-width:2.54698" />
        </g>
        <g
           id="g410"
           transform="matrix(1,0,0,-1,0,792)"
           style="stroke-width:2.54698">
          <g
             id="g412"
             style="stroke-width:2.54698" />
        </g>
        <g
           id="g416"
           transform="matrix(1,0,0,-1,0,792)"
           style="stroke-width:2.54698">
          <g
             id="g418"
             style="stroke-width:2.54698" />
        </g>
        <g
           id="g422"
           transform="matrix(1,0,0,-1,0,792)"
           style="stroke-width:2.54698">
          <g
             id="g424"
             style="stroke-width:2.54698" />
        </g>
        <g
           id="g428"
           transform="matrix(1,0,0,-1,0,792)"
           style="stroke-width:2.54698">
          <g
             id="g430"
             style="stroke-width:2.54698" />
        </g>
        <g
           id="g434"
           transform="matrix(1,0,0,-1,0,792)"
           style="stroke-width:2.54698">
          <g
             id="g436"
             style="stroke-width:2.54698" />
        </g>
        <g
           id="g440"
           transform="matrix(1,0,0,-1,0,792)"
           style="stroke-width:2.54698">
          <g
             id="g442"
             style="stroke-width:2.54698" />
        </g>
        <g
           id="g446"
           transform="matrix(1,0,0,-1,0,792)"
           style="stroke-width:2.54698">
          <g
             id="g448"
             style="stroke-width:2.54698" />
        </g>
        <g
           id="g452"
           transform="matrix(1,0,0,-1,0,792)"
           style="stroke-width:2.54698">
          <g
             id="g454"
             style="stroke-width:2.54698" />
        </g>
        <g
           id="g458"
           transform="matrix(1,0,0,-1,0,792)"
           style="stroke-width:2.54698">
          <g
             id="g460"
             style="stroke-width:2.54698" />
        </g>
        <g
           id="g464"
           transform="matrix(1,0,0,-1,0,792)"
           style="stroke-width:2.54698">
          <g
             id="g466"
             style="stroke-width:2.54698" />
        </g>
        <g
           id="g470"
           transform="matrix(1,0,0,-1,0,792)"
           style="stroke-width:2.54698">
          <g
             id="g472"
             style="stroke-width:2.54698" />
        </g>
        <g
           id="g476"
           transform="matrix(1,0,0,-1,0,792)"
           style="stroke-width:2.54698">
          <g
             id="g478"
             style="stroke-width:2.54698" />
        </g>
        <g
           id="g482"
           transform="matrix(1,0,0,-1,0,792)"
           style="stroke-width:2.54698">
          <g
             id="g484"
             style="stroke-width:2.54698" />
        </g>
        <g
           id="g488"
           transform="matrix(1,0,0,-1,0,792)"
           style="stroke-width:2.54698">
          <g
             id="g490"
             style="stroke-width:2.54698" />
        </g>
        <g
           id="g494"
           transform="matrix(1,0,0,-1,0,792)"
           style="stroke-width:2.54698">
          <g
             id="g496"
             style="stroke-width:2.54698" />
        </g>
        <g
           id="g500"
           transform="matrix(1,0,0,-1,0,792)"
           style="stroke-width:2.54698">
          <g
             id="g502"
             style="stroke-width:2.54698" />
        </g>
        <g
           id="g506"
           transform="matrix(1,0,0,-1,0,792)"
           style="stroke-width:2.54698">
          <g
             id="g508"
             style="stroke-width:2.54698" />
        </g>
        <g
           id="g512"
           transform="matrix(1,0,0,-1,0,792)"
           style="stroke-width:2.54698">
          <g
             id="g514"
             style="stroke-width:2.54698" />
        </g>
        <g
           id="g518"
           transform="matrix(1,0,0,-1,0,792)"
           style="stroke-width:2.54698">
          <g
             id="g520"
             style="stroke-width:2.54698" />
        </g>
        <g
           id="g524"
           transform="matrix(1,0,0,-1,0,792)"
           style="stroke-width:2.54698">
          <g
             id="g526"
             style="stroke-width:2.54698" />
        </g>
        <g
           id="g530"
           transform="matrix(1,0,0,-1,0,792)"
           style="stroke-width:2.54698">
          <g
             id="g532"
             style="stroke-width:2.54698" />
        </g>
        <g
           id="g536"
           transform="matrix(1,0,0,-1,0,792)"
           style="stroke-width:2.54698">
          <g
             id="g538"
             style="stroke-width:2.54698" />
        </g>
        <g
           id="g542"
           transform="matrix(1,0,0,-1,0,792)"
           style="stroke-width:2.54698">
          <g
             id="g544"
             style="stroke-width:2.54698" />
        </g>
        <g
           id="g548"
           transform="matrix(1,0,0,-1,0,792)"
           style="stroke-width:2.54698">
          <g
             id="g550"
             style="stroke-width:2.54698" />
        </g>
        <g
           id="g554"
           transform="matrix(1,0,0,-1,0,792)"
           style="stroke-width:2.54698">
          <g
             id="g556"
             style="stroke-width:2.54698" />
        </g>
        <g
           id="g560"
           transform="matrix(1,0,0,-1,0,792)"
           style="stroke-width:2.54698">
          <g
             id="g562"
             style="stroke-width:2.54698" />
        </g>
        <g
           id="g566"
           transform="matrix(1,0,0,-1,0,792)"
           style="stroke-width:2.54698">
          <g
             id="g568"
             style="stroke-width:2.54698" />
        </g>
        <g
           id="g572"
           transform="matrix(1,0,0,-1,0,792)"
           style="stroke-width:2.54698">
          <g
             id="g574"
             style="stroke-width:2.54698" />
        </g>
        <g
           id="g578"
           transform="matrix(1,0,0,-1,0,792)"
           style="stroke-width:2.54698">
          <g
             id="g580"
             style="stroke-width:2.54698" />
        </g>
        <g
           id="g584"
           transform="matrix(1,0,0,-1,0,792)"
           style="stroke-width:2.54698">
          <g
             id="g586"
             style="stroke-width:2.54698" />
        </g>
        <g
           id="g590"
           transform="matrix(1,0,0,-1,0,792)"
           style="stroke-width:2.54698">
          <g
             id="g592"
             style="stroke-width:2.54698">
            <path
               id="path594"
               style="fill:none;stroke:#000000;stroke-width:3.23142;stroke-linecap:round;stroke-linejoin:round;stroke-miterlimit:10;stroke-dasharray:none;stroke-opacity:1"
               d="m 90.335915,128.68707 c 6.229084,0.81673 10.349205,-0.1135 1.668383,-0.50313 -0.282444,-0.65114 8.605912,0.75777 -0.08729,-1.00305 -8.163561,-1.76748 9.233962,0.26517 1.226034,-1.76799 -11.060175,-0.95174 6.449805,-0.57694 0.660612,-1.14799 -10.468706,-1.34842 5.508979,-0.66552 1.798203,-1.52538 -10.983465,-0.97588 3.522924,0.48174 0.789601,-0.50294 -7.128191,-0.93443 -7.790543,-1.07169 -0.363436,-1.64728 0.435394,-1.29731 -10.944416,-2.26602 -1.260703,-1.98067 7.663761,-0.11454 -10.000901,-1.95616 0.417528,-1.31423 6.290723,-0.76294 -11.061799,-2.24508 -0.655375,-1.57573 2.600783,-0.41071 -4.593682,-2.71265 1.149463,-2.13592 -10.462053,-0.48124 3.94124,-0.66444 -1.439899,-1.46586 -8.455123,-1.50924 8.909314,-0.54309 -1.234688,-1.19938 -3.62685,-0.83953 10.230642,-0.14287 0.940994,-1.30616 -1.179653,0.51649 11.350158,-0.23225 1.743369,-1.09269 -8.863816,-0.93145 5.446409,-1.06011 4.412789,-1.29497 -6.264009,-0.27531 -9.91737,-1.29507 -1.44183,-0.538 7.1082,0.54449 -8.022542,-0.93129 -6.404527,-1.11562 3.405553,0.70672 14.377497,0.44225 5.71853,-0.15239 -6.546732,-0.17714 -8.604183,-1.98523 -0.841484,-1.30104 -4.432388,0.19254 -9.230621,-2.93237 -1.608152,-2.0015 3.345721,-0.0133 -9.852862,-1.58401 0.195006,-0.64519 -0.0612,-0.5614 -5.371365,-0.93927 -1.350408,-2.207245 -7.150497,-0.9591 9.330765,-0.0075 -1.601831,-1.210333 -5.712092,-1.518295 11.272066,0.700917 1.964602,-1.410516 -7.39156,-0.897884 11.149074,-0.507231 1.791507,-0.786364 -8.036947,0.01316 -1.474008,-1.390938 2.715981,-1.123001 0.930186,-0.0467 -12.418657,-0.738452 -2.224414,-1.235515 8.56801,-0.551601 -10.117991,0.21117 -3.227757,-0.734961 8.605157,-0.303719 1.622719,-0.120369 -1.275992,-1.466638 9.466359,-1.071807 0.198482,-0.801337 -0.7778,-2.437394 7.752819,-0.875999 3.738299,-0.144474 1.518751,-1.163467 6.866038,-0.834035 -9.047675,0.440723 1.762363,-1.436996 -5.317011,-0.555931 -2.847417,-1.840358 2.66512,-1.905571 -7.578504,0.417252 -6.709417,-0.264986 0.290268,-0.467331 8.826087,-1.421575 -9.483497,-0.160213 -4.304119,-1.31013 9.688496,-1.261867 1.190463,-0.05555 -0.658897,-1.312295 8.201933,-1.496473 4.779477,-1.033019 -1.459927,-1.392275 -0.12017,-0.761239 14.18072,-0.651737 6.329878,-0.826709 -7.241083,0.255531 -8.187953,-0.808388 -0.329454,-0.649591 7.797356,-0.424772 -2.81341,0.613864 -5.4502,-0.715934 -8.410004,-0.922516 3.178536,-0.217683 5.128708,-1.537659 -3.540131,-0.0049 -13.246057,-1.007306 -4.576698,-1.378603 11.001016,-0.192213 -3.60202,-0.08418 -0.731696,-1.28524 9.988882,-1.189246 -5.978771,-0.249014 0.174579,-0.04877 m -0.878758,90.106938 c -0.559786,-1.07487 -1.501647,-5.86929 -1.132319,-8.23539 0.23301,-2.83684 -0.169727,-6.817 0.860902,-10.1864 0.06509,-1.79545 -0.117158,-3.5444 -1.851889,-4.59293 m 1.274719,34.31676 c 5.963119,0.36842 9.338858,-0.31254 1.52652,-1.64753 -1.82067,-1.19338 8.891518,-0.4611 9.172458,-0.48201 -1.937548,-0.8531 -13.042891,-1.52383 -8.644128,-2.73628 9.640828,1.05491 -1.249973,-1.99416 -1.763346,-1.50978 10.986394,1.81539 -4.532895,-2.44762 3.036306,-2.50486 4.882049,0.30564 -7.294776,-1.27867 1.993715,-1.63612 -8.465947,-1.8374 -0.795471,-1.92488 3.635797,-1.83647 8.129556,-0.76074 -3.857665,-0.5841 -6.534775,-1.90079 -2.023308,-2.74596 11.606281,0.34134 2.371048,-1.22327 -6.52844,-0.76362 -4.278112,-2.56955 1.073038,-1.73639 -6.223936,0.40983 -8.918972,-0.29096 -0.897181,-0.39264 2.227397,-0.73592 -10.853748,-2.43627 -2.4353,-2.61488 10.588006,1.14778 -6.762361,-3.01308 1.585013,-1.84045 5.828583,0.48642 9.839653,0.23286 1.869979,-0.53796 -7.557912,-1.51773 -2.191805,-0.92243 -1.596747,-2.34173 -10.50894,-1.88038 3.571196,-1.50782 0.713791,-2.07061 -10.416196,-2.00003 5.75659,-0.24502 -0.08846,-1.40494 -8.346113,-1.56252 0.559032,-0.82664 4.421143,-1.35831 -5.774033,0.35894 -10.483955,-0.79509 -2.341064,-2.58381 -6.032844,-0.31888 -8.622165,-1.80635 -0.932213,-1.90347 0.714981,-0.21198 -13.679707,-2.04455 -5.729056,-2.49625 9.065554,0.117 3.196348,-0.53173 0.867439,-1.78914 4.782363,-0.57104 12.126201,0.40554 3.244133,-0.33972 -7.895804,-1.24808 -4.988518,-1.27237 1.185345,-1.4495 8.555923,-0.557 -5.83569,0.0441 -4.654071,-2.1577 4.764069,-1.43191 10.871834,-1.18651 2.380697,-1.03466 -5.302781,-0.75381 11.746707,-0.99702 1.44561,-0.0804 -4.693839,-2.39926 -4.815845,5.85218 -3.623538,7.65276 2.359216,2.78798 0.814592,7.12833 1.534659,10.59932 -0.312442,0.4041 0.807893,1.8306 -0.315497,1.39312 m -1.073494,72.80825 c 1.112815,1.66304 10.901197,1.25766 4.335479,-0.40706 -7.848857,-1.04935 -3.482978,-0.69411 1.875438,-0.92618 5.79078,-0.77283 -12.43611,-1.29713 -5.191547,-1.97338 8.140027,0.61619 3.080372,-0.45183 -1.958894,-1.57855 -4.941846,-1.84313 11.786591,0.32353 1.895555,-2.17501 -5.552619,-2.23763 8.542366,-0.41201 -1.528062,-2.77339 2.167664,-0.80367 10.390238,-0.40388 10.454388,-1.62666 -2.622803,0.064 -12.461029,0.59542 -9.954055,-0.7206 1.964426,-0.11351 -4.407136,-1.49993 3.763109,-0.68165 7.090846,-0.28966 -8.635695,-1.95753 -4.141943,-2.15844 5.091197,-0.2696 9.028839,-1.00233 1.648139,-1.49588 -6.200319,-1.85545 10.51079,-0.59182 3.478433,-1.67064 -6.067742,-0.2283 -6.066775,-4.15707 0.127517,-2.51244 0.395612,-0.13885 -10.152173,-3.14637 -0.04424,-1.99767 6.03462,0.95912 -10.589593,-1.96789 -3.076193,-2.09147 7.547093,1.31497 -10.739526,-1.97804 -0.289641,-0.97574 8.209894,1.1249 -1.58014,-2.25249 -2.142258,-1.87477 7.490398,-0.11611 3.940228,-0.19699 2.66763,-1.74385 3.524298,-0.52423 -9.299122,-0.82813 0.884869,-0.88726 7.758873,-0.0144 -5.737683,-1.25795 -3.21336,-2.73413 6.42541,-0.66082 7.407645,0.26597 0.456222,-1.20762 10.105341,-1.25369 -3.670338,-1.10204 1.451051,-2.13283 3.031289,-1.47898 13.30606,0.68411 5.338042,-1.01497 -5.896326,-0.0993 -8.550763,-2.82181 -1.235336,-1.64232 -4.646007,1.18262 -10.381414,-2.32513 -2.636002,-1.52881 7.902466,0.62834 -4.491679,-2.52413 -3.156654,-2.54344 9.05395,0.26635 2.843885,-0.17717 0.364124,-1.26789 7.280575,-0.49002 5.326998,1.0364 0.06058,-1.97541 10.891006,0.75063 2.475692,-1.12736 0.502258,-1.04135 m -2.135171,52.71125 c 0.340096,5.11696 0.514907,1.08231 -1.476607,-0.64583 -0.155682,5.45883 3.256479,-1.33769 -0.01061,0.50004 m 1.858377,25.07963 c 5.961215,1.34476 7.249287,-0.88851 0.366427,-1.28578 -4.863339,-0.6834 11.101962,0.98769 2.225182,-1.11353 -8.889155,-2.57639 4.75112,1.65019 4.162515,-0.33251 -2.5942,-1.28465 -14.714671,-2.38363 -5.995657,-1.70764 8.656202,0.94905 3.218383,-1.89215 -2.326146,-2.42215 -4.345566,-1.41369 9.196687,0.41704 7.885661,-0.37657 -3.901397,-1.3521 -11.914618,-2.76962 -3.183068,-2.4793 7.341585,0.42711 -4.532514,-1.74478 -5.336478,-3.26119 6.263697,0.49655 8.231271,0.28057 1.151252,-2.35508 -0.76518,-1.45323 8.625732,1.76513 9.959016,0.71517 -1.6988,-1.20281 -14.081294,-2.98053 -5.485495,-2.38972 7.01443,1.02698 8.6301,0.33967 0.685474,-0.4375 -6.903079,-0.3932 -5.393923,-2.17455 0.637764,-1.81365 -4.889881,-0.66219 -11.000678,-2.39824 -2.40793,-1.43494 8.202472,0.50654 2.078609,-1.25103 -1.835288,-3.05531 1.936403,-3.55362 10.58938,1.21753 2.990886,-2.05741 -7.577871,-2.12008 7.683774,-0.83521 -2.824321,-1.85059 -9.480914,-1.3776 10.220045,-0.36 1.024505,-1.22523 -7.964993,-1.73106 9.22458,-0.21896 -0.708749,-0.85722 -7.237817,1.54348 4.421866,5.62488 -2.500975,4.02644 -4.257226,3.92758 3.293453,-2.5248 0.757916,-0.9229 -1.294617,1.01073 -3.007999,2.2626 0.276521,1.84992 m 1.120033,76.01134 c 5.36692,0.36523 -5.80599,-1.41035 3.10347,-1.31579 -8.618275,-1.8508 1.863682,-0.11988 -1.747576,-2.5241 -6.256525,0.31434 7.60555,-1.26922 -2.415376,-2.11652 1.350105,-0.87741 8.184212,-0.1492 -0.389053,-1.31227 4.123473,0.23773 6.681722,-1.06993 -0.73268,-1.87025 8.546179,-1.13267 1.689826,-0.99401 -0.121464,-1.77207 9.446854,0.23455 -5.097357,-1.64014 3.57867,-1.57405 -4.239807,-1.07309 5.892934,-0.73814 1.142683,-1.35023 -8.933692,0.0397 9.79164,-0.0734 3.442549,-0.8002 -5.323012,0.39448 -10.135946,-0.20916 -2.058877,-0.40314 8.796318,0.21894 -0.735079,-0.54863 -4.453887,-0.68977 0.13806,-1.62847 11.221355,0.0233 1.968337,-0.77975 -11.155077,-1.3502 6.813278,-0.78453 -1.247632,-1.45644 -8.011628,-1.05474 8.67496,-1.79892 -0.245023,-2.29648 -6.732038,-0.91428 10.992173,-1.24437 0.01334,-1.61343 -4.440401,0.18831 10.346483,-0.87976 -0.503762,-1.44148 0.522906,-1.42147 7.394435,-1.30583 -1.084843,-2.15394 1.573415,-0.72934 7.27512,-1.05965 -0.03865,-2.38291 7.025824,-0.59032 3.063505,-0.43643 1.415947,-1.37536 10.612761,-1.05698 -3.956271,-1.88286 3.211204,-1.84475 4.191378,-1.17592 -10.357587,-0.15377 -1.884689,-1.74308 9.263856,-1.77066 -7.20484,1.11375 0.175588,-1.59617 -7.411441,0.13839 0.485498,-1.69981 -1.013643,-2.13504 -3.386534,-0.35789 4.510929,-0.52713 -3.321921,-0.80686 2.947046,-0.23224 14.069332,-1.51477 11.950532,-1.53745 -2.269292,0.006 -12.405072,0.58294 -8.910058,-0.59639 9.949588,-0.46476 -0.05041,-0.62696 -1.401803,-1.36251 8.963207,-2.43731 -6.590089,-0.41824 3.708658,-1.75574 2.581107,-0.86087 -8.575962,-0.78173 0.742531,-1.10676 3.60944,-0.82862 -8.238219,-0.54163 1.328262,-1.23106 3.599857,-0.77497 -11.543011,1.63695 -3.161813,-0.85289 9.670233,-1.32053 -3.414785,-0.5501 -3.892103,-0.33756 6.176263,0.24101 9.775991,-2.18366 1.514443,-1.53158 -2.446696,1.12975 10.320453,-2.05217 0.726869,-1.20149 -7.8665,1.3129 3.890738,-1.48033 4.254367,-0.58896 M 88.33902,368.7988 c 5.1126,0.73793 7.216957,0.21245 1.039317,-0.63125 -7.471256,-1.67838 5.822909,-0.0486 4.355153,-0.80065 -8.079544,-0.37861 -5.339138,-1.12232 1.086719,-0.82346 8.772391,0.0645 -0.794706,-1.26394 -4.506677,-1.03921 -8.213208,-0.50805 3.125457,-0.86327 6.187147,-0.5665 8.554471,0.12237 -0.534162,-0.0741 -4.208273,0.0298 -8.206075,-0.68449 -0.723202,-0.98252 3.071106,-0.88761 0.290354,-0.27533 -12.738004,-1.02027 -7.075756,-2.48077 6.589028,-0.009 6.827035,-1.40928 0.137211,-0.85647 -6.345964,0.0986 11.45734,-0.54391 3.255598,-1.55202 -8.810194,0.18336 3.360008,-2.54284 2.64012,-1.65517 -7.435675,-0.26508 -5.255604,-0.57108 0.679509,-1.25572 -3.121739,0.25929 -7.02391,-1.67003 -1.550861,-1.64492 -10.291906,-1.59339 2.165635,-2.80372 0.264014,-2.58643 -8.841658,0.37786 -1.446972,-0.52489 -0.352446,-2.43372 -9.763254,-1.58979 1.939678,-1.33231 0.927995,-2.66326 -9.418024,-0.39904 1.674004,-2.61524 -2.601394,-3.52232 -5.451669,-1.82168 7.806865,-1.06308 -1.978711,-1.75154 -0.388202,-0.25133 8.057712,-0.93274 11.113309,-1.09474 -0.0328,0.35109 -7.687807,-0.21466 -10.647136,-0.20056 -8.221563,-1.2713 8.819177,0.80052 4.146493,-0.17699 -5.762475,-1.09763 0.898983,0.79834 -3.22267,-1.29647 6.505077,-0.9319 -4.553325,-1.51925 2.272026,-2.09828 -8.367341,-0.75811 5.943684,-1.47272 3.741587,-2.33983 -4.9422,1.69638 -10.195931,-1.71868 -2.17598,-1.55756 5.2063,-0.70925 -10.77213,-0.60001 -5.70672,-1.41526 8.527677,-1.35769 0.36347,0.3405 1.747606,-1.47646 10.339814,-0.97009 -4.502264,-0.35521 1.026703,-1.94232 7.205996,-1.2654 0.929605,-2.43581 -2.355924,-2.09264 -0.594396,-2.48372 11.164675,-1.6043 2.220895,-1.04738 -8.257309,-0.71623 9.01559,-2.81941 -0.88279,-2.87353 -2.180677,-0.0833 7.526864,-0.84816 -0.666734,-1.52795 7.5604,-0.54648 2.681834,-0.92068 0.844849,-1.39241 8.627118,-0.1745 -5.188073,-2.3518 2.434505,-2.19259 -5.555802,1.31866 -1.357067,-0.77056 3.872746,-1.07429 1.301519,-0.37643 -13.166052,0.69567 -3.885309,-0.72535 11.227853,0.0578 -2.994609,-0.37502 -0.619719,-0.69926 8.948652,-0.12452 -6.394102,-0.6043 0.02435,-1.46944 -6.400174,-0.0876 4.051813,-1.91803 -2.199044,-1.5352 8.505128,0.11279 2.223711,-0.99642 0.333298,-1.05585 5.274506,-1.18856 7.265272,-2.14862 0.412056,-2.17756 1.754895,-1.30747 7.593348,-0.43422 -0.94209,-0.81197 4.40897,-1.28368 5.422743,-0.92962 1.790228,-1.51451 M 110.51878,92.75499 c 0.19475,-4.572039 4.56586,-10.795086 10.3841,-10.149713 13.91328,-1.159088 27.82614,0.688281 41.68956,1.541387 14.2526,1.483349 28.67215,-0.434542 42.87288,2.047355 16.31298,1.113885 32.68121,0.884809 48.99647,0.189498 8.52415,-0.230564 18.27848,-3.213538 25.99701,0.944406 1.90102,2.979088 5.02379,6.415043 6.76293,9.103225 -0.91348,0.137116 0.34676,-0.2181 0.18717,0.285203 M 109.56468,201.64667 c 2.9504,5.63008 9.18944,10.27847 16.26453,9.69262 17.62393,-0.46093 35.21611,-0.46417 52.8476,-0.36771 18.62144,0.1832 37.24258,1.41426 55.84738,-0.14815 13.39506,-0.96386 26.72877,0.27672 40.07687,1.31877 6.10007,0.93338 9.67976,-1.92741 10.94081,-7.41688 m -176.32445,40.61225 c 1.2695,-1.38356 1.8873,-5.88176 4.19059,-7.85682 9.27324,-4.83115 20.13821,-3.93083 30.34251,-4.09214 14.19618,1.21883 28.43683,0.42379 42.6707,0.82922 14.13097,0.12482 28.26019,-0.70411 42.38449,0.47602 15.43895,0.79156 31.0803,-0.74056 46.42062,0.81507 4.00677,0.88807 7.75399,3.29819 7.2325,7.52256 0.1866,1.39351 1.50617,3.14845 1.29721,4.16859 M 109.32865,355.05411 c 2.19513,6.94986 11.58323,6.71371 17.99625,6.69598 37.38288,-0.93326 77.64368,2.65837 111.73712,-0.90774 12.42297,-1.39934 25.91739,-0.14076 37.82387,-1.30906 1.54331,-0.86612 7.78062,-3.9657 8.93895,-4.73355 M 68.764732,72.923073 c 8.65596,0.114319 17.010083,-2.301561 25.718985,-1.80371 70.155943,0.960719 142.194573,2.092236 210.980103,1.953051 1.23711,-0.563783 3.63565,0.362468 4.2776,-0.07306 M 68.140823,372.58441 c 3.238211,-0.37904 9.350113,-0.5235 13.61944,-1.29237 9.818348,-0.68751 15.713717,-1.24774 25.596817,-0.57662 60.07936,2.73445 124.02127,1.17097 182.01688,1.32097 7.32403,0.28161 14.61079,0.37131 21.94312,0.35412 M 70.974579,369.67438 c -1.417143,-4.50512 5.05915,-5.61246 3.47179,-0.0911 l 0.04314,0.74014 m -2.061867,-42.57458 c 4.039165,-1.35693 1.489062,6.14965 2.403931,9.23085 0.04682,2.43955 0.99194,11.1949 -1.200985,9.53296 -2.723979,-2.82233 -0.224085,-8.15341 -1.166305,-11.98278 -0.01685,-2.9708 0.501688,-9.05165 0.657619,-10.05027 m -2.989678,-35.2498 c 4.007194,-1.39894 2.882849,4.89341 3.416954,7.69953 0.363327,3.99925 0.219017,8.9698 0.02875,12.28392 -5.077569,-2.23002 -2.067579,-9.2255 -2.923831,-13.61128 0.404532,-2.24142 -0.179948,-6.14246 0.354556,-7.33991 m -0.254607,-37.19503 c 4.969571,-0.99138 2.978504,7.00307 3.234999,10.34297 -1.26653,2.62326 2.05921,10.9666 -2.678881,7.64466 -0.745196,-4.64959 0.723614,-9.89113 -0.133703,-14.54511 -0.04188,-1.76691 0.668383,-3.21853 0.403519,-4.97073 m -0.958663,-36.02013 c 4.397238,-2.05301 2.543444,4.49398 3.472681,7.71074 -0.180364,3.76259 0.697639,8.20815 0.170827,11.32456 -5.189912,1.03361 -2.420328,-5.63199 -3.107737,-8.91308 0.304266,-3.72794 -0.006,-8.97738 -0.01436,-11.78902 m 0.144582,-35.22144 c 4.181084,-2.83284 3.581662,3.27538 2.980617,6.82019 0.617853,3.76974 -0.08429,8.62048 1.012871,11.74434 -3.97026,0.42935 -4.300347,-0.7602 -4.009048,-4.21233 0.838384,-5.13764 -0.8618,-10.10907 0.626308,-14.97781 -0.0782,-0.4613 0.176091,-1.94949 -0.01467,-1.70938 m -0.49305,-36.61399 c 1.329421,-1.28324 5.438059,1.55953 3.945456,5.27723 -0.688102,5.53283 -0.448599,12.91879 -0.301475,17.07818 -5.209099,-0.90889 -3.409192,-6.7661 -3.791651,-10.5079 -0.20969,-3.65673 0.114857,-9.80424 0.414249,-11.58826 m 0.403099,-37.6449 c 4.428919,-2.228714 2.367521,5.07849 2.816988,8.24036 -0.163766,4.41031 -0.16082,8.97013 -0.12587,13.38098 -4.694669,0.0899 -2.148454,-5.66152 -3.108159,-8.82356 0.663054,-3.9794 0.215743,-8.28931 0.681749,-12.19573 m 0.107293,-26.799107 c 1.513141,1.292285 -2.24505,8.747803 0.768778,8.904156 4.104556,0.675276 2.041946,-6.823795 3.185373,-8.694607 M 68.293762,368.92642 c 0.237169,-9.61083 0.407357,-19.55817 0.376965,-29.31189 0.925456,-22.52998 -1.631888,-45.10201 -1.192905,-67.61037 -0.81285,-23.64678 0.338963,-47.30648 -1.44695,-70.92388 -0.915957,-21.80321 1.732281,-43.55523 0.520787,-65.40229 -0.159231,-11.70799 -0.57656,-23.37006 -0.26152,-35.07938 0.947177,-8.490439 1.019816,-17.543844 2.38587,-25.480362 m 18.14277,295.792362 c 1.880238,-5.47447 0.94888,-13.44511 1.639644,-19.992 0.828211,-12.76039 -0.850752,-25.83543 0.703166,-38.72742 -0.04485,-15.37363 -1.632035,-30.86647 -1.139951,-46.34327 0.588192,-9.50587 0.0057,-19.11101 -0.648929,-28.4455 0.45192,-12.98858 1.900482,-26.04097 1.709294,-39.08861 -0.04019,-14.12127 -0.136834,-28.44542 -0.44933,-42.5429 -0.548823,-12.91966 -0.109317,-25.55558 1.321936,-38.2593 C 90.151636,108.8187 89.611542,99.910484 90.26804,91.475632 90.013306,86.656463 89.449333,80.993454 89.622871,76.63559 m 17.734209,294.07983 c 0.96707,-8.75908 2.5875,-17.97635 2.41701,-27.2108 0.8954,-11.73455 -1.46433,-23.5196 -1.75663,-35.30328 -0.90254,-10.94092 -1.82109,-22.03669 -0.39392,-32.96721 0.66469,-17.72919 -0.34378,-35.43699 0.0665,-53.06835 0.0763,-10.9173 -0.45092,-21.57015 -0.478,-32.50684 0.40566,-11.40215 1.28432,-23.03566 1.21387,-34.50585 0.24734,-12.38196 -1.29992,-24.63411 -0.63554,-37.07794 0.35597,-9.28589 -0.76251,-18.934651 0.44351,-28.084107 -0.63194,-5.023642 1.20563,-14.419641 1.35632,-18.663082 M 285.85162,366.37787 c -0.0939,1.81553 -0.31733,3.36668 0.0104,5.28989 m 0.18809,-43.43262 c 0.28918,6.69679 0.0586,14.80698 -0.12011,21.46989 m 0.63714,-60.80339 c -0.10411,6.91454 -0.52777,14.21423 -0.50132,20.91642 m 0.77627,-61.27114 c -0.60691,5.57604 -1.0229,24.16558 -0.96978,29.37097 m 1.61646,-65.45398 c -0.23292,0.1506 0.0115,6.39393 0.21385,8.62656 0.33419,0.95287 0.67595,2.49996 0.50091,3.09749 m -1.11167,-0.58997 c -0.19555,4.05266 -0.55584,8.8009 -0.55878,12.41377 m 0.38516,-60.83198 c 1.37772,2.27147 -0.006,7.59052 0.59074,11.02202 -0.0576,4.51596 -1.26849,9.09847 -0.94291,13.55482 m 0.23599,-59.84239 c -1.00574,7.59121 -0.52508,15.34729 -0.83269,22.72859 m 0.47759,-61.25844 c -1.11556,7.1778 -1.41301,15.08839 -1.18835,22.24043 m 2.80594,-49.906152 c -0.94775,4.067386 -0.11572,9.596645 0.0812,13.896241 m 1.25289,12.507731 c 4.19344,1.33163 9.94433,1.51258 14.12754,-0.501017 2.19009,-2.744015 2.13054,-6.292063 2.67095,-9.908177 0.12454,-4.611084 -5.30993,-4.129982 -8.99779,-4.437819 -4.63739,-0.403686 -10.5412,1.113646 -11.75898,5.641407 -0.31997,3.090662 -1.09084,10.561036 4.17517,9.587476 l 0.039,-8.8e-4 m 1.76765,37.01248 c 4.53663,0.37987 11.76959,1.83269 14.12058,-2.26053 2.05193,-2.68368 0.19524,-6.61431 -0.18642,-9.57825 -1.3331,-4.36653 -8.11962,-2.31927 -12.13764,-2.92298 -3.8961,-0.0414 -10.2256,1.6159 -8.13405,6.43765 -0.91438,4.18614 0.41414,10.06404 6.024,9.28969 m 3.08022,37.74369 c 3.3875,-0.36956 9.82186,1.67744 11.20664,-1.93278 0.50892,-3.59916 0.96225,-8.21959 -0.78939,-11.04197 -4.43251,-1.29916 -9.69042,-1.65923 -14.31629,-0.9038 -3.13402,1.61136 -5.56648,4.32952 -3.77602,8.16764 -0.83369,5.86359 6.96554,4.63674 10.58828,5.85767 m -4.51942,38.09108 c 4.02865,-0.0525 10.30775,0.88232 12.50003,-2.98788 -0.55042,-4.17122 2.65864,-11.50982 -2.95926,-12.93017 -5.75381,-1.08317 -15.71245,-0.32376 -15.05592,7.45489 0.017,4.63598 -0.49001,9.02613 5.82865,8.38736 m 0.29533,36.47151 c 4.13797,-0.13082 11.35983,1.75267 12.00445,-3.54653 0.94233,-3.57543 0.32844,-7.45791 -0.66736,-10.82037 -4.51375,-2.02214 -10.44569,-1.96421 -15.05539,-0.23602 -4.68222,2.13745 -4.63585,8.65771 -2.63111,12.29092 3.15349,1.39247 7.22772,1.34647 10.50989,0.53331 m 6.83073,38.98428 c 3.38235,-1.164 1.42986,-7.21657 2.13568,-10.46316 1.37286,-6.58686 -6.80295,-4.68219 -10.86235,-4.87082 -3.81679,-0.45919 -10.54696,-0.39255 -9.58373,5.18736 -0.49638,4.09859 -1.18247,9.68551 4.2295,10.68833 4.68804,0.58733 10.8807,2.05097 14.94023,-0.23651 m -11.94749,38.6724 c 4.02524,0.77558 8.29416,-0.5627 12.15057,-1.66259 0.93316,-3.855 1.403,-8.18534 0.87305,-12.01203 -4.96962,-3.75454 -11.44489,-0.8271 -17.07011,-1.5421 -5.60838,0.72245 -4.16102,7.76128 -3.91331,11.61317 1.08269,3.62392 6.7361,2.368 9.6763,2.70785 m -5.67766,38.82026 c 4.51916,-0.58313 9.50836,0.47896 13.86029,-1.20763 1.70053,-3.28709 3.41839,-8.35944 1.66214,-12.46116 -4.56305,-3.70401 -13.22309,-1.60951 -18.72582,-1.59285 -3.29788,2.17355 0.59206,7.86436 0.18283,11.46584 0.6375,1.70596 1.10096,3.2918 2.91396,3.95683 m 22.29029,7.26281 c -1.70586,-102.86749 5.45927,-218.89534 -3.25585,-298.823698"
               sodipodi:nodetypes="cccccccccccccccccccccccccccccccccccccccccccccccccccccccccccccccccccccccccccccccccccccccccccccccccccccccccccccccccccccccccccccccccccccccccccccccccccccccccccccccccccccccccccccccccccccccccccccccccccccccccccccccccccccccccccccccccccccccccccccccccccccccccccccccccccccccccccccccccccccccccccccccccccccccccccccccccccccccccccccccccccccccccccccccccccccccccccccccccccccccccccccccccccccccccccccccccccccccccc" />
          </g>
        </g>
      </g>
    </g>
  </g>
</svg>
