<?xml version="1.0" encoding="UTF-8" standalone="no"?>
<!-- Created by Ashley Blewer - This work is licensed under a Creative Commons Attribution 4.0 International License -->

<svg
   width="544"
   height="480"
   viewBox="0 0 143.93334 127"
   version="1.1"
   id="svg2490"
   inkscape:version="1.2.2 (1:1.2.2+202212051552+b0a8486541)"
   sodipodi:docname="1928-sound-on-film-3.svg"
   xmlns:inkscape="http://www.inkscape.org/namespaces/inkscape"
   xmlns:sodipodi="http://sodipodi.sourceforge.net/DTD/sodipodi-0.dtd"
   xmlns="http://www.w3.org/2000/svg"
   xmlns:svg="http://www.w3.org/2000/svg">
  <sodipodi:namedview
     id="namedview2492"
     pagecolor="#ffffff"
     bordercolor="#666666"
     borderopacity="1.0"
     inkscape:pageshadow="2"
     inkscape:pageopacity="0.0"
     inkscape:pagecheckerboard="0"
     inkscape:document-units="mm"
     showgrid="false"
     units="px"
     inkscape:zoom="0.90583674"
     inkscape:cx="53.541657"
     inkscape:cy="253.35691"
     inkscape:window-width="1846"
     inkscape:window-height="1136"
     inkscape:window-x="0"
     inkscape:window-y="0"
     inkscape:window-maximized="1"
     inkscape:current-layer="g4731"
     inkscape:showpageshadow="2"
     inkscape:deskcolor="#d1d1d1" />
  <defs
     id="defs2487" />
  <g
     inkscape:label="Layer 1"
     inkscape:groupmode="layer"
     id="layer1">
    <g
       id="g4731"
       transform="matrix(0.32961229,0,0,0.32903008,-241.78905,1.73126)"
       style="stroke-width:2.68698">
      <g
         id="g104528"
         transform="matrix(1,0,0,-1,0,792)"
         style="stroke-width:2.68698">
        <g
           id="g104530"
           style="stroke-width:2.68698" />
      </g>
      <g
         id="g104996"
         transform="matrix(1,0,0,-1,0,792)"
         style="stroke-width:2.68698">
        <g
           id="g104998"
           style="stroke-width:2.68698" />
      </g>
      <g
         id="g11535"
         transform="matrix(1.0851326,0,0,1.0824316,662.62379,-67.206664)"
         style="stroke-width:2.10787">
        <g
           id="g80"
           transform="matrix(1,0,0,-1,0,792)"
           style="stroke-width:2.10787">
          <g
             id="g82"
             style="stroke-width:2.10787">
            <path
               d="m 79.88015,481.36118 c 0.169459,55.8915 -5.393915,111.67544 -3.780536,167.57974"
               style="fill:none;stroke:#000000;stroke-width:2.67429;stroke-linecap:round;stroke-linejoin:round;stroke-miterlimit:10;stroke-dasharray:none;stroke-opacity:1"
               id="path84" />
          </g>
        </g>
        <g
           id="g86"
           transform="matrix(1,0,0,-1,0,792)"
           style="stroke-width:2.10787">
          <g
             id="g88"
             style="stroke-width:2.10787">
            <path
               d="m 76.481834,649.49286 c 2.215613,1.88243 8.702022,1.132 12.557521,1.57211 l 358.868815,3.19019 c 1.31236,0.009 8.51795,-1.57597 7.41452,-2.0477"
               style="fill:none;stroke:#000000;stroke-width:2.67429;stroke-linecap:round;stroke-linejoin:round;stroke-miterlimit:10;stroke-dasharray:none;stroke-opacity:1"
               id="path90"
               sodipodi:nodetypes="cccc" />
          </g>
        </g>
        <g
           id="g92"
           transform="matrix(1,0,0,-1,0,792)"
           style="stroke-width:2.10787">
          <g
             id="g94"
             style="stroke-width:2.10787">
            <path
               d="m 455.32269,652.20746 c -0.31197,-1.26668 0.80778,-7.76555 0.36027,-11.106 1.01969,-13.21546 1.81448,-26.3254 1.63737,-39.59936 -0.96756,-13.6219 -1.2433,-27.27867 -1.64427,-40.90261 -0.20818,-18.8012 -1.25795,-37.59308 -3.59665,-56.30252 -0.52774,-8.63325 1.67951,-17.40488 0.43269,-25.54966 l -0.2125,0.34913"
               style="fill:none;stroke:#000000;stroke-width:2.67429;stroke-linecap:round;stroke-linejoin:round;stroke-miterlimit:10;stroke-dasharray:none;stroke-opacity:1"
               id="path96" />
          </g>
        </g>
        <g
           id="g98"
           transform="matrix(1,0,0,-1,0,792)"
           style="stroke-width:2.10787">
          <g
             id="g100"
             style="stroke-width:2.10787">
            <path
               d="m 80.429405,480.12283 c 123.954885,-3.10305 247.956805,0.018 371.924625,-1.74401"
               style="fill:none;stroke:#000000;stroke-width:2.67429;stroke-linecap:round;stroke-linejoin:round;stroke-miterlimit:10;stroke-dasharray:none;stroke-opacity:1"
               id="path102" />
          </g>
        </g>
        <g
           id="g104"
           transform="matrix(1,0,0,-1,0,792)"
           style="stroke-width:2.10787">
          <g
             id="g106"
             style="stroke-width:2.10787">
            <path
               d="m 77.435699,626.94202 c 12.676883,2.36228 25.365121,-1.64809 38.163001,-0.28947 16.21451,-0.35805 32.40623,0.48111 48.60705,0.93945 14.79472,-0.19522 29.55824,1.87757 44.34133,1.40955 15.30752,-0.64847 30.62278,-0.29382 45.87921,1.34624 16.77398,0.5758 33.53235,-1.13287 50.31775,-0.20547 31.52009,0.75533 62.99519,-2.70604 94.49946,-0.58228 18.53587,-0.93545 37.16538,-0.69572 55.68069,-1.22044 l -0.17337,0.2605"
               style="fill:none;stroke:#000000;stroke-width:2.67429;stroke-linecap:round;stroke-linejoin:round;stroke-miterlimit:10;stroke-dasharray:none;stroke-opacity:1"
               id="path108" />
          </g>
        </g>
        <g
           id="g110"
           transform="matrix(1,0,0,-1,0,792)"
           style="stroke-width:2.10787">
          <g
             id="g112"
             style="stroke-width:2.10787">
            <path
               d="m 79.832691,516.31915 c 124.475649,0.0362 248.985759,6.93935 373.426619,1.1648"
               style="fill:none;stroke:#000000;stroke-width:2.67429;stroke-linecap:round;stroke-linejoin:round;stroke-miterlimit:10;stroke-dasharray:none;stroke-opacity:1"
               id="path114"
               sodipodi:nodetypes="ccccccccccc" />
          </g>
        </g>
        <g
           id="g116"
           transform="matrix(1,0,0,-1,0,792)"
           style="stroke-width:2.10787">
          <g
             id="g118"
             style="stroke-width:2.10787">
            <path
               d="m 79.832691,505.02344 c 123.830649,-5.54169 247.765179,0.7402 371.636759,0.0329"
               style="fill:none;stroke:#000000;stroke-width:2.67429;stroke-linecap:round;stroke-linejoin:round;stroke-miterlimit:10;stroke-dasharray:none;stroke-opacity:1"
               id="path120"
               sodipodi:nodetypes="ccccccccc" />
          </g>
        </g>
        <g
           id="g122"
           transform="matrix(1,0,0,-1,0,792)"
           style="stroke-width:2.10787">
          <g
             id="g124"
             style="stroke-width:2.10787">
            <path
               d="m 92.635788,628.03094 c 4.689611,-1.57327 3.974056,5.45803 4.035136,8.6067 0.278727,3.23901 -4.989528,6.96244 -8.1857,3.94319 -1.670898,-3.61322 -1.760094,-8.07874 -0.711799,-11.56057 -0.329608,-0.68771 5.315309,-1.57475 4.862363,-0.98932"
               style="fill:none;stroke:#000000;stroke-width:2.67429;stroke-linecap:round;stroke-linejoin:round;stroke-miterlimit:10;stroke-dasharray:none;stroke-opacity:1"
               id="path126"
               sodipodi:nodetypes="ccccc" />
          </g>
        </g>
        <g
           id="g128"
           transform="matrix(1,0,0,-1,0,792)"
           style="stroke-width:2.10787">
          <g
             id="g130"
             style="stroke-width:2.10787">
            <path
               d="m 110.76201,627.71082 c -2.90667,0.59228 -0.7159,5.30327 -1.24951,7.77576 -0.59004,3.09801 -0.11028,7.51941 4.64567,6.25308 3.9037,-1.95363 5.13019,-4.37871 4.79282,-8.51468 0.6181,-3.21603 0.34711,-6.90399 -4.40785,-5.7038 l -0.81267,0.23508 -2.96846,-0.0454"
               style="fill:none;stroke:#000000;stroke-width:2.67429;stroke-linecap:round;stroke-linejoin:round;stroke-miterlimit:10;stroke-dasharray:none;stroke-opacity:1"
               id="path132"
               sodipodi:nodetypes="ccccccc" />
          </g>
        </g>
        <g
           id="g134"
           transform="matrix(1,0,0,-1,0,792)"
           style="stroke-width:2.10787">
          <g
             id="g136"
             style="stroke-width:2.10787">
            <path
               d="m 134.77113,627.42798 c -2.31727,-0.007 -2.08327,3.389 -2.22676,7.37719 0.91038,3.25021 -1.32689,7.41095 3.70323,7.73441 4.75505,1.03244 5.58754,-2.43779 5.22881,-6.15345 0.35397,-3.52452 2.21504,-8.10056 -1.28914,-9.63097 -2.99037,-0.0279 -2.57246,0.23512 -5.41614,0.67282"
               style="fill:none;stroke:#000000;stroke-width:2.67429;stroke-linecap:round;stroke-linejoin:round;stroke-miterlimit:10;stroke-dasharray:none;stroke-opacity:1"
               id="path138"
               sodipodi:nodetypes="cccccc" />
          </g>
        </g>
        <g
           id="g140"
           transform="matrix(1,0,0,-1,0,792)"
           style="stroke-width:2.10787">
          <g
             id="g142"
             style="stroke-width:2.10787">
            <path
               d="m 156.12974,628.78345 c -0.88202,1.89374 -0.55017,6.49352 -1.03791,9.229 0.20509,5.2858 7.53151,5.05933 9.27663,2.06944 0.68792,-3.6838 1.08244,-8.62799 0.6016,-11.38602 -2.73365,-1.91844 -6.11289,-0.61925 -9.00597,0.14587"
               style="fill:none;stroke:#000000;stroke-width:2.67429;stroke-linecap:round;stroke-linejoin:round;stroke-miterlimit:10;stroke-dasharray:none;stroke-opacity:1"
               id="path144"
               sodipodi:nodetypes="ccccc" />
          </g>
        </g>
        <g
           id="g146"
           transform="matrix(1,0,0,-1,0,792)"
           style="stroke-width:2.10787">
          <g
             id="g148"
             style="stroke-width:2.10787">
            <path
               d="m 181.80264,628.22052 c -1.76013,-0.0239 -4.24527,2.29702 -3.26437,5.01788 0.28612,3.33627 0.0196,6.45622 1.37071,8.74921 3.24027,2.4015 8.56557,1.54488 8.7821,-3.85656 0.57741,-2.86382 0.56678,-6.29289 -0.23166,-8.46698 -2.55387,-1.0695 -5.26689,-0.85345 -8.04632,-0.74646"
               style="fill:none;stroke:#000000;stroke-width:2.67429;stroke-linecap:round;stroke-linejoin:round;stroke-miterlimit:10;stroke-dasharray:none;stroke-opacity:1"
               id="path150"
               sodipodi:nodetypes="cccccc" />
          </g>
        </g>
        <g
           id="g152"
           transform="matrix(1,0,0,-1,0,792)"
           style="stroke-width:2.10787">
          <g
             id="g154"
             style="stroke-width:2.10787">
            <path
               d="m 206.48732,628.89148 c -5.93549,-0.86398 -3.35256,5.8112 -4.24179,9.39398 -1.12209,4.27947 5.22484,4.59284 7.99827,2.82772 2.44529,-2.79841 0.84131,-8.29739 1.13959,-11.11406 -2.04024,-1.09137 -4.89396,-0.88726 -7.13413,-0.51282"
               style="fill:none;stroke:#000000;stroke-width:2.67429;stroke-linecap:round;stroke-linejoin:round;stroke-miterlimit:10;stroke-dasharray:none;stroke-opacity:1"
               id="path156" />
          </g>
        </g>
        <g
           id="g158"
           transform="matrix(1,0,0,-1,0,792)"
           style="stroke-width:2.10787">
          <g
             id="g160"
             style="stroke-width:2.10787">
            <path
               d="m 229.74097,629.23395 c -4.53992,-0.52573 -4.73488,2.92185 -4.47651,6.10376 -1.35476,4.09124 0.21404,9.36878 5.59835,8.28879 5.92654,0.50381 4.14221,-5.69536 4.80901,-9.38885 1.49661,-4.8463 -2.70944,-5.92264 -5.93085,-5.0037"
               style="fill:none;stroke:#000000;stroke-width:2.67429;stroke-linecap:round;stroke-linejoin:round;stroke-miterlimit:10;stroke-dasharray:none;stroke-opacity:1"
               id="path162"
               sodipodi:nodetypes="ccccc" />
          </g>
        </g>
        <g
           id="g164"
           transform="matrix(1,0,0,-1,0,792)"
           style="stroke-width:2.10787">
          <g
             id="g166"
             style="stroke-width:2.10787">
            <path
               d="m 253.31456,630.65399 c -3.0507,-0.33999 -3.26126,2.95116 -3.73522,5.14934 0.22135,2.51354 -0.027,4.55088 2.91057,6.72287 5.69416,2.03685 5.52241,-2.29622 6.16672,-6.20916 0.74376,-3.38557 -0.074,-6.16793 -4.48416,-5.44565 -0.5684,-0.12612 -0.29732,-0.27475 -0.85791,-0.2174"
               style="fill:none;stroke:#000000;stroke-width:2.67429;stroke-linecap:round;stroke-linejoin:round;stroke-miterlimit:10;stroke-dasharray:none;stroke-opacity:1"
               id="path168"
               sodipodi:nodetypes="cccccc" />
          </g>
        </g>
        <g
           id="g170"
           transform="matrix(1,0,0,-1,0,792)"
           style="stroke-width:2.10787">
          <g
             id="g172"
             style="stroke-width:2.10787">
            <path
               d="m 276.50696,630.49487 c -1.15681,-0.62636 -3.03292,2.65588 -4.15447,4.66206 -1.4171,3.92103 0.62134,8.63661 5.91306,8.01859 4.15433,-1.01358 4.96027,-8.17429 3.6679,-10.33163 -0.54141,-2.31564 -3.10148,-2.31074 -5.42649,-2.34902"
               style="fill:none;stroke:#000000;stroke-width:2.67429;stroke-linecap:round;stroke-linejoin:round;stroke-miterlimit:10;stroke-dasharray:none;stroke-opacity:1"
               id="path174"
               sodipodi:nodetypes="ccccc" />
          </g>
        </g>
        <g
           id="g176"
           transform="matrix(1,0,0,-1,0,792)"
           style="stroke-width:2.10787">
          <g
             id="g178"
             style="stroke-width:2.10787">
            <path
               d="m 300.28336,630.79163 c -6.31449,-0.8527 -4.17546,6.80645 -4.07463,10.39365 1.97862,2.86276 10.02614,3.55638 9.90993,-0.79732 0.89159,-4.61217 1.41245,-10.47187 -5.11544,-9.81241 v 0 0"
               style="fill:none;stroke:#000000;stroke-width:2.67429;stroke-linecap:round;stroke-linejoin:round;stroke-miterlimit:10;stroke-dasharray:none;stroke-opacity:1"
               id="path180"
               sodipodi:nodetypes="cccccc" />
          </g>
        </g>
        <g
           id="g182"
           transform="matrix(1,0,0,-1,0,792)"
           style="stroke-width:2.10787">
          <g
             id="g184"
             style="stroke-width:2.10787">
            <path
               d="m 324.23117,630.10217 c -1.64345,0.49343 -4.52808,1.59872 -4.36493,4.09086 0.68532,3.53698 -1.62482,8.93199 3.52038,9.61976 4.16983,0.46631 7.90949,-1.44292 7.37239,-5.76934 -0.58869,-3.21488 1.20621,-8.60221 -4.15782,-7.50785 v 0"
               style="fill:none;stroke:#000000;stroke-width:2.67429;stroke-linecap:round;stroke-linejoin:round;stroke-miterlimit:10;stroke-dasharray:none;stroke-opacity:1"
               id="path186"
               sodipodi:nodetypes="cccccc" />
          </g>
        </g>
        <g
           id="g188"
           transform="matrix(1,0,0,-1,0,792)"
           style="stroke-width:2.10787">
          <g
             id="g190"
             style="stroke-width:2.10787">
            <path
               d="m 347.62198,630.17389 c -3.62869,-0.95122 -5.06002,3.68074 -4.88826,6.65741 0.4584,3.40981 0.0674,6.84061 4.75607,6.72213 6.72579,0.12265 5.86465,-8.81445 4.70483,-12.20244 -0.8862,-0.84146 -2.81191,-2.5778 -4.57264,-1.1771"
               style="fill:none;stroke:#000000;stroke-width:2.67429;stroke-linecap:round;stroke-linejoin:round;stroke-miterlimit:10;stroke-dasharray:none;stroke-opacity:1"
               id="path192"
               sodipodi:nodetypes="ccccc" />
          </g>
        </g>
        <g
           id="g194"
           transform="matrix(1,0,0,-1,0,792)"
           style="stroke-width:2.10787">
          <g
             id="g196"
             style="stroke-width:2.10787">
            <path
               d="m 372.30267,629.90668 c -6.47715,-0.9859 -5.43055,6.46658 -5.25607,10.01623 2.42331,4.5204 11.15918,2.54202 9.0719,-3.12818 -0.66917,-2.65695 0.74016,-7.62961 -3.81583,-6.88805"
               style="fill:none;stroke:#000000;stroke-width:2.67429;stroke-linecap:round;stroke-linejoin:round;stroke-miterlimit:10;stroke-dasharray:none;stroke-opacity:1"
               id="path198"
               sodipodi:nodetypes="cccc" />
          </g>
        </g>
        <g
           id="g200"
           transform="matrix(1,0,0,-1,0,792)"
           style="stroke-width:2.10787">
          <g
             id="g202"
             style="stroke-width:2.10787">
            <path
               d="m 395.52792,630.604 c -5.18856,-0.66654 -4.37161,6.11764 -3.97132,9.38321 0.0767,5.00281 7.69697,5.30442 8.46374,0.64106 -0.54,-3.62274 1.83446,-11.76328 -4.49242,-10.02427"
               style="fill:none;stroke:#000000;stroke-width:2.67429;stroke-linecap:round;stroke-linejoin:round;stroke-miterlimit:10;stroke-dasharray:none;stroke-opacity:1"
               id="path204"
               sodipodi:nodetypes="cccc" />
          </g>
        </g>
        <g
           id="g206"
           transform="matrix(1,0,0,-1,0,792)"
           style="stroke-width:2.10787">
          <g
             id="g208"
             style="stroke-width:2.10787">
            <path
               d="m 419.93878,629.33191 c -5.90877,0.65899 -5.23034,7.31031 -4.07819,11.2717 -1.02315,4.94707 9.25362,5.4514 9.11279,0.27745 1.18562,-3.68023 1.53752,-8.85503 -1.59237,-11.0587 -1.7409,-0.3496 -1.81957,-1.43484 -3.44223,-0.49045"
               style="fill:none;stroke:#000000;stroke-width:2.67429;stroke-linecap:round;stroke-linejoin:round;stroke-miterlimit:10;stroke-dasharray:none;stroke-opacity:1"
               id="path210"
               sodipodi:nodetypes="ccccc" />
          </g>
        </g>
        <g
           id="g212"
           transform="matrix(1,0,0,-1,0,792)"
           style="stroke-width:2.10787">
          <g
             id="g214"
             style="stroke-width:2.10787">
            <path
               d="m 443.59232,629.08057 c -6.34161,1.58429 -5.41813,10.22315 -2.65735,14.26068 4.31438,2.71357 7.7629,-1.66964 7.76173,-5.76128 1.60153,-4.53465 -1.36984,-9.85415 -6.74357,-7.94221"
               style="fill:none;stroke:#000000;stroke-width:2.67429;stroke-linecap:round;stroke-linejoin:round;stroke-miterlimit:10;stroke-dasharray:none;stroke-opacity:1"
               id="path216" />
          </g>
        </g>
        <g
           id="g218"
           transform="matrix(1,0,0,-1,0,792)"
           style="stroke-width:2.10787">
          <g
             id="g220"
             style="stroke-width:2.10787">
            <path
               d="m 91.154037,505.60566 c 4.372952,0.81903 5.232726,-6.2411 5.609217,-9.22026 1.356734,-3.83751 -2.785241,-8.52104 -6.506204,-6.27024 -3.480429,0.76504 -0.73208,5.7357 -1.901497,8.69073 -0.88665,2.74872 -2.086001,7.87407 2.798484,6.79977"
               style="fill:none;stroke:#000000;stroke-width:2.67429;stroke-linecap:round;stroke-linejoin:round;stroke-miterlimit:10;stroke-dasharray:none;stroke-opacity:1"
               id="path222"
               sodipodi:nodetypes="ccccc" />
          </g>
        </g>
        <g
           id="g224"
           transform="matrix(1,0,0,-1,0,792)"
           style="stroke-width:2.10787">
          <g
             id="g226"
             style="stroke-width:2.10787">
            <path
               d="m 112.12652,503.80719 c 3.34006,0.89411 8.28176,-0.10499 7.14283,-4.05 -1.40654,-3.96877 2.05481,-8.86099 -3.89693,-9.27162 -6.23145,-0.79374 -4.21287,6.84924 -4.90195,10.91262 -0.19726,1.74009 -0.12587,3.83876 2.96458,3.00482"
               style="fill:none;stroke:#000000;stroke-width:2.67429;stroke-linecap:round;stroke-linejoin:round;stroke-miterlimit:10;stroke-dasharray:none;stroke-opacity:1"
               id="path228" />
          </g>
        </g>
        <g
           id="g230"
           transform="matrix(1,0,0,-1,0,792)"
           style="stroke-width:2.10787">
          <g
             id="g232"
             style="stroke-width:2.10787">
            <path
               d="m 137.78989,503.28442 c 5.00033,1.40063 4.92193,-3.00281 5.42506,-6.68346 0.68074,-3.70867 0.12404,-7.62872 -5.08913,-6.80702 -4.52364,-0.0826 -5.2573,5.46194 -5.85388,8.83889 -0.10165,5.36657 5.07716,5.68608 9.3069,3.82939"
               style="fill:none;stroke:#000000;stroke-width:2.67429;stroke-linecap:round;stroke-linejoin:round;stroke-miterlimit:10;stroke-dasharray:none;stroke-opacity:1"
               id="path234"
               sodipodi:nodetypes="ccccc" />
          </g>
        </g>
        <g
           id="g236"
           transform="matrix(1,0,0,-1,0,792)"
           style="stroke-width:2.10787">
          <g
             id="g238"
             style="stroke-width:2.10787">
            <path
               d="m 160.97659,502.26123 c 4.36183,1.37531 7.08092,-1.6959 6.21793,-5.49264 -0.26858,-3.46589 0.67842,-7.93745 -4.38826,-7.9069 -4.52384,-1.28857 -7.24498,2.48906 -6.32762,5.7752 -0.66909,3.08107 -0.57805,8.07169 4.49795,7.62434 l 2.78759,0.38904"
               style="fill:none;stroke:#000000;stroke-width:2.67429;stroke-linecap:round;stroke-linejoin:round;stroke-miterlimit:10;stroke-dasharray:none;stroke-opacity:1"
               id="path240"
               sodipodi:nodetypes="cccccc" />
          </g>
        </g>
        <g
           id="g242"
           transform="matrix(1,0,0,-1,0,792)"
           style="stroke-width:2.10787">
          <g
             id="g244"
             style="stroke-width:2.10787">
            <path
               d="m 181.99984,502.39584 c 4.89431,1.91652 7.45699,-4.26849 6.39403,-7.47043 -0.2142,-3.30548 -0.54879,-5.31257 -5.04048,-5.3759 -4.69505,-0.35417 -5.1247,3.74086 -5.20116,6.94168 -0.90882,2.8826 -0.86355,6.74792 3.84761,5.90465"
               style="fill:none;stroke:#000000;stroke-width:2.67429;stroke-linecap:round;stroke-linejoin:round;stroke-miterlimit:10;stroke-dasharray:none;stroke-opacity:1"
               id="path246"
               sodipodi:nodetypes="ccccc" />
          </g>
        </g>
        <g
           id="g248"
           transform="matrix(1,0,0,-1,0,792)"
           style="stroke-width:2.10787">
          <g
             id="g250"
             style="stroke-width:2.10787">
            <path
               d="m 206.21045,502.61685 c 4.39629,1.51963 7.76078,-2.67708 6.15264,-6.43759 1.75538,-4.53014 -5.44035,-7.32699 -9.04024,-3.94387 -1.38702,3.09606 -0.27252,6.19198 -1.01349,9.14322 1.02862,1.52399 1.89015,1.74048 3.90109,1.23824"
               style="fill:none;stroke:#000000;stroke-width:2.67429;stroke-linecap:round;stroke-linejoin:round;stroke-miterlimit:10;stroke-dasharray:none;stroke-opacity:1"
               id="path252"
               sodipodi:nodetypes="ccccc" />
          </g>
        </g>
        <g
           id="g254"
           transform="matrix(1,0,0,-1,0,792)"
           style="stroke-width:2.10787">
          <g
             id="g256"
             style="stroke-width:2.10787">
            <path
               d="m 227.80699,502.41949 c 3.76649,0.47889 8.96668,-0.61033 7.95384,-5.05334 0.27563,-3.88319 -0.427,-7.60882 -5.39788,-7.39929 -5.84171,-0.10747 -6.74538,6.67884 -4.65307,10.59668 2.09711,1.85595 0,0 2.09711,1.85595"
               style="fill:none;stroke:#000000;stroke-width:2.67429;stroke-linecap:round;stroke-linejoin:round;stroke-miterlimit:10;stroke-dasharray:none;stroke-opacity:1"
               id="path258"
               sodipodi:nodetypes="ccccc" />
          </g>
        </g>
        <g
           id="g260"
           transform="matrix(1,0,0,-1,0,792)"
           style="stroke-width:2.10787">
          <g
             id="g262"
             style="stroke-width:2.10787">
            <path
               d="m 252.97542,501.70651 c 3.59504,1.32937 6.06364,-1.78932 6.06382,-4.97934 0.77069,-3.30746 -0.3463,-6.88913 -4.85053,-6.25262 -5.48553,-0.42269 -6.86092,4.11754 -6.43809,8.4757 0.9776,2.04349 2.66389,3.56598 5.2248,2.75626"
               style="fill:none;stroke:#000000;stroke-width:2.67429;stroke-linecap:round;stroke-linejoin:round;stroke-miterlimit:10;stroke-dasharray:none;stroke-opacity:1"
               id="path264"
               sodipodi:nodetypes="ccccc" />
          </g>
        </g>
        <g
           id="g266"
           transform="matrix(1,0,0,-1,0,792)"
           style="stroke-width:2.10787">
          <g
             id="g268"
             style="stroke-width:2.10787">
            <path
               d="m 275.98608,501.79868 c 3.71239,0.62007 6.76524,-4.86413 6.11027,-8.23594 -0.31124,-4.46357 -7.75323,-4.1472 -9.8074,-1.43623 -1.39538,4.07852 -1.88513,9.71589 3.87264,9.56352 l 0.81536,-0.064"
               style="fill:none;stroke:#000000;stroke-width:2.67429;stroke-linecap:round;stroke-linejoin:round;stroke-miterlimit:10;stroke-dasharray:none;stroke-opacity:1"
               id="path270"
               sodipodi:nodetypes="ccccc" />
          </g>
        </g>
        <g
           id="g272"
           transform="matrix(1,0,0,-1,0,792)"
           style="stroke-width:2.10787">
          <g
             id="g274"
             style="stroke-width:2.10787">
            <path
               d="m 300.72455,502.87094 c 4.92206,2.02487 6.42834,-2.51528 5.46874,-6.40248 -1.26172,-2.72989 0.43111,-7.85888 -4.74678,-6.47555 -5.79422,-0.17194 -4.8939,5.68121 -4.28153,9.38547 0.49452,2.86056 -0.31153,3.92704 3.55957,3.49256"
               style="fill:none;stroke:#000000;stroke-width:2.67429;stroke-linecap:round;stroke-linejoin:round;stroke-miterlimit:10;stroke-dasharray:none;stroke-opacity:1"
               id="path276"
               sodipodi:nodetypes="ccccc" />
          </g>
        </g>
        <g
           id="g278"
           transform="matrix(1,0,0,-1,0,792)"
           style="stroke-width:2.10787">
          <g
             id="g280"
             style="stroke-width:2.10787">
            <path
               d="m 322.01846,503.18771 c 3.82778,1.45047 5.84335,-0.003 6.27262,-4.88754 0.70656,-2.58705 0.69266,-6.50768 -1.09935,-7.61169 -3.60253,-0.76995 -9.36012,-1.15505 -8.49545,3.61538 0.63572,4.09839 -0.73185,8.11905 3.91909,9.23524 l -0.27256,0.0853"
               style="fill:none;stroke:#000000;stroke-width:2.67429;stroke-linecap:round;stroke-linejoin:round;stroke-miterlimit:10;stroke-dasharray:none;stroke-opacity:1"
               id="path282"
               sodipodi:nodetypes="cccccc" />
          </g>
        </g>
        <g
           id="g284"
           transform="matrix(1,0,0,-1,0,792)"
           style="stroke-width:2.10787">
          <g
             id="g286"
             style="stroke-width:2.10787">
            <path
               d="m 347.34064,502.96506 c 6.00674,1.23895 5.31453,-6.76558 4.93942,-10.1362 0.34907,-3.44463 -8.35613,-4.00764 -10.06271,-1.15242 0.42512,4.08272 -1.53807,11.2534 4.41709,11.40824 0.33774,0.35972 -0.15294,-0.85102 0,0"
               style="fill:none;stroke:#000000;stroke-width:2.67429;stroke-linecap:round;stroke-linejoin:round;stroke-miterlimit:10;stroke-dasharray:none;stroke-opacity:1"
               id="path288"
               sodipodi:nodetypes="ccccc" />
          </g>
        </g>
        <g
           id="g290"
           transform="matrix(1,0,0,-1,0,792)"
           style="stroke-width:2.10787">
          <g
             id="g292"
             style="stroke-width:2.10787">
            <path
               d="m 372.1492,504.15324 c 5.94113,0.9687 4.68912,-7.3753 4.91443,-10.85301 0.2686,-5.21898 -9.36336,-4.06381 -10.68695,-0.6516 0.1949,3.4129 -0.96818,7.9313 0.96908,10.38983 1.22639,1.79566 3.47158,0.14441 4.80344,1.11478"
               style="fill:none;stroke:#000000;stroke-width:2.67429;stroke-linecap:round;stroke-linejoin:round;stroke-miterlimit:10;stroke-dasharray:none;stroke-opacity:1"
               id="path294"
               sodipodi:nodetypes="ccccc" />
          </g>
        </g>
        <g
           id="g296"
           transform="matrix(1,0,0,-1,0,792)"
           style="stroke-width:2.10787">
          <g
             id="g298"
             style="stroke-width:2.10787">
            <path
               d="m 395.20898,503.05729 c 3.66671,-1.03024 3.7894,-2.06355 4.61206,-6.7795 0.42304,-3.02462 -0.23866,-7.60945 -4.73614,-6.59194 -5.66139,-0.34771 -4.82518,4.75509 -4.75569,8.86054 -0.74478,3.89132 2.21412,3.718 4.87977,4.5109"
               style="fill:none;stroke:#000000;stroke-width:2.67429;stroke-linecap:round;stroke-linejoin:round;stroke-miterlimit:10;stroke-dasharray:none;stroke-opacity:1"
               id="path300"
               sodipodi:nodetypes="ccccc" />
          </g>
        </g>
        <g
           id="g302"
           transform="matrix(1,0,0,-1,0,792)"
           style="stroke-width:2.10787">
          <g
             id="g304"
             style="stroke-width:2.10787">
            <path
               d="m 419.00439,502.37534 c 4.01849,0.55187 6.98152,-1.48003 6.33386,-5.72665 0.51718,-5.72108 -5.76651,-9.86097 -10.61048,-6.57046 -0.87111,3.67232 -2.31852,10.296 1.92619,12.07386 1.03571,0.37081 1.28151,0.15755 2.35043,0.22325"
               style="fill:none;stroke:#000000;stroke-width:2.67429;stroke-linecap:round;stroke-linejoin:round;stroke-miterlimit:10;stroke-dasharray:none;stroke-opacity:1"
               id="path306"
               sodipodi:nodetypes="ccccc" />
          </g>
        </g>
        <g
           id="g308"
           transform="matrix(1,0,0,-1,0,792)"
           style="stroke-width:2.10787">
          <g
             id="g310"
             style="stroke-width:2.10787">
            <path
               d="m 442.92139,502.19464 c 4.51671,1.36778 6.51511,-3.48575 6.58172,-7.21992 0.25517,-4.06781 -2.20328,-8.58238 -7.02824,-6.62949 -5.04936,1.31571 -2.37952,8.32912 -2.26787,11.7367 0.56583,2.39102 3.36919,2.47233 5.47986,1.69352"
               style="fill:none;stroke:#000000;stroke-width:2.67429;stroke-linecap:round;stroke-linejoin:round;stroke-miterlimit:10;stroke-dasharray:none;stroke-opacity:1"
               id="path312" />
          </g>
        </g>
        <g
           id="g314"
           transform="matrix(1,0,0,-1,0,792)"
           style="stroke-width:2.10787">
          <g
             id="g316"
             style="stroke-width:2.10787">
            <path
               d="m 80.872223,513.15845 c 0.796265,0.69685 -0.245527,-3.14922 2.009656,-0.0403 0.03814,-2.24057 3.352872,1.03663 2.628567,-1.02557 2.349032,0.35766 3.012387,0.57822 5.855406,-0.0332 1.770022,1.48603 3.578901,-0.21474 6.135231,0.52591 0.15483,-2.82706 1.285398,2.22308 1.854838,-0.55053 0.549514,1.25902 1.638979,0.47044 2.720819,0.45403 0.64044,1.26711 2.78297,1.09528 4.2179,0.58249 2.27297,1.60214 2.79667,-0.23138 4.46615,0.7829 2.25477,0.80183 3.29363,-0.47498 4.01094,-0.59476 0.97132,3.17116 1.34285,-3.74581 2.75154,-0.29508 -0.17685,0.77318 1.2161,-0.58192 1.87672,-1.16903 1.3221,0.78423 2.23993,1.73132 2.86053,0.38451 2.53052,2.73768 2.55542,-1.63799 4.47236,1.32955 0.49508,1.44101 1.47148,-3.5582 2.3776,0.078 0.92938,-1.03994 2.28615,-1.3491 3.7394,-0.81477 -0.0215,-1.39861 1.95607,1.58851 2.68157,0.70448 0.69771,-1.98807 1.28559,0.63831 3.54974,0.35213 0.53622,-1.25161 4.58517,0.48281 3.70817,-0.54675 -0.31855,-0.74989 3.26611,0.42595 4.48091,-0.44659 0.84928,0.82913 3.15234,-0.538 3.64655,2.19944 -0.15071,-3.66803 3.2725,1.22615 3.45568,-2.81674 1.32928,2.89474 1.19537,-0.11485 2.67155,1.05424 -0.29138,-0.6818 1.91402,-1.12332 1.90007,0.23343 0.57598,-3.26723 1.82239,3.05194 1.8881,-1.1035 1.6689,2.84984 1.13467,-0.78066 3.08129,1.3817 2.70858,-0.7736 2.75814,-0.75085 3.24817,-0.72761 1.20763,2.17773 1.43097,-2.84063 3.42915,0.0828 0.16919,0.23468 2.39048,-1.36623 4.07152,-0.0957 0.71494,-2.49396 3.33273,2.36137 3.24975,-0.70494 1.95291,1.46559 5.72136,-0.71599 6.11638,0.44639 1.38521,2.36958 1.96323,-1.1407 1.81167,-1.01195 2.36241,3.38059 3.70306,-0.95546 4.71872,1.27543 1.24076,-0.68133 1.18023,-0.3863 3.29478,0.34057 2.53067,-0.63524 2.85367,-0.27497 5.55193,-0.25568 3.10116,0.19415 3.74496,-0.15909 6.58682,-0.0472 2.38805,-0.20514 3.31352,0.0173 2.4532,-0.20255 4.18167,-0.82282 3.23842,0.40357 6.04099,-0.26976 1.262,0.53843 3.65594,-0.26076 6.03293,0.12105 2.07133,0.0753 3.72934,0.88392 6.4711,0.0369 2.13666,1.17506 5.97589,0.59137 7.82595,0.83201 2.12971,-0.3584 10.26299,-0.14105 8.65901,-0.3009 -0.89468,-0.46551 3.48492,0.22757 6.04642,0.19849 2.74295,0.92434 5.98147,-2.02193 7.28663,0.9363 -0.30891,-1.31043 2.24508,-1.03461 0.5674,0.20684 2.806,-6.95461 0.46988,6.05996 2.26458,-1.3642 1.60769,0.80109 2.63927,-0.17095 4.66188,0.16783 -0.93851,-0.15285 2.68927,-1.30769 3.6078,0.20407 1.37671,0.61357 1.16839,-0.31651 2.4007,-1.63106 -2.0462,7.39071 1.4732,-1.44399 1.46162,0.48389 -0.4709,4.22094 2.09673,-2.10772 2.88893,1.08145 1.09018,-3.38434 2.14991,-0.60856 3.40668,-0.30722 1.93248,-0.14677 1.27315,-0.73782 4.6718,-0.30937 3.42318,-1.05534 8.10206,0.83971 8.96468,0.90934 1.68745,-2.58294 1.99881,1.3091 3.59601,-1.41939 2.17984,-0.23026 2.19154,0.74663 3.51435,1.25524 1.22652,-1.33596 6.17258,-0.14815 4.57672,-0.68265 3.07001,0.97117 4.46641,-0.70566 5.95763,-0.19396 1.47036,-0.659 2.66557,-0.77306 4.33897,0.55733 2.63641,-2.40675 0.89289,0.45703 3.82465,-1.06775 1.9612,0.7701 2.85088,0.91285 4.51356,-0.32361 0.63317,2.39448 2.89095,0.40402 3.39234,0.35598 1.6932,0.98963 1.3817,0.21549 3.15196,0.20475 1.67213,-1.00477 2.87468,0.73673 5.15848,-0.0641 1.36487,3.80606 3.55109,-1.79453 3.96089,1.40668 -0.44525,-2.69061 4.71178,0.61514 5.78579,-1.48041 1.76855,2.064 4.43703,-1.28169 3.70958,0.57973 -0.32127,-3.11066 2.54794,2.7523 2.8655,-1.93656 0.49074,2.17788 0.95891,0.16366 1.22647,1.29649 0.88287,0.45578 2.19592,2.04973 3.86137,-0.007 1.41589,1.37446 1.08617,-0.49372 1.642,0.52732 2.57939,-1.50889 2.65342,-0.11939 3.71318,-1.50419 0.49995,2.13094 3.36819,0.48157 4.11641,0.99559 -0.35024,0.55133 2.16974,-1.25005 2.61643,1.33205 0.5999,-3.3729 5.95035,2.20085 4.7731,-0.95368 0.13726,-2.34599 2.21094,1.72435 3.61071,0.22332 -0.36964,-4.74085 0.76533,-0.5839 0.85693,0.35864 -0.49501,-2.95521 4.9083,0.14591 4.39243,-0.30283 0.81362,-1.80383 0.0277,1.56423 1.21839,-1.05743 -0.67599,-0.61906 4.51802,2.09546 2.83313,0.74905 -1.31361,-1.1863 0.80761,-0.28204 2.8489,0.4981 0.25078,-4.6017 1.80825,1.60012 2.75977,-1.27377 0.19259,1.42159 2.2428,0.18525 3.13249,0.38444 1.64504,-3.8e-4 3.36888,0.99617 3.49738,-0.61011 1.10485,2.25475 2.74934,-2.66081 4.03232,1.40376 3.60273,-4.85402 0.76855,1.47386 3.88733,-1.492 0.3746,2.16124 4.37623,-1.36747 3.86786,1.51722 2.79502,-0.59079 1.92029,-1.10679 5.21097,-0.60341 1.60423,-0.185 2.726,0.73385 4.40424,0.65943 0.0497,-3.13819 6.76745,2.17696 5.55081,-1.12148 0.005,1.20224 3.10457,0.17441 4.70518,0.34707 1.82898,0.66994 5.49661,0.019 6.94999,-0.14191 1.23673,-0.0451 4.17467,0.19857 7.19437,-0.872 1.53645,0.0373 3.32337,0.51473 4.9205,0.23523"
               style="fill:none;stroke:#000000;stroke-width:1.33715;stroke-linecap:round;stroke-linejoin:round;stroke-miterlimit:10;stroke-dasharray:none;stroke-opacity:1"
               id="path318" />
          </g>
        </g>
        <g
           id="g320"
           transform="matrix(1,0,0,-1,0,792)"
           style="stroke-width:2.10787">
          <g
             id="g322"
             style="stroke-width:2.10787">
            <path
               d="m 80.501266,508.52219 c 1.719964,-1.061 2.780298,-1.05997 3.874549,-0.28897 1.072713,-1.18983 2.078274,-2.07176 3.025299,-0.1553 1.089672,-1.15134 1.499215,-0.38015 2.812188,0.26784 0.788419,-1.18369 2.40261,1.69209 3.219124,-0.58463 1.393731,1.50605 2.050102,0.76596 3.878635,0.77139 0.568403,1.14465 4.471599,-1.05842 4.746749,-0.18954 1.4802,1.92172 2.35116,0.25658 3.86428,-0.43257 1.80256,1.63878 3.47889,0.27515 4.93221,0.3628 0.79499,-0.0672 2.65122,-0.9818 3.24761,-0.10093 1.22548,-0.64213 1.51548,0.21115 3.09868,-1.16439 0.7414,1.30333 0.87157,-1.26199 1.5229,1.13658 0.56166,-0.15832 1.94465,-2.37399 2.53047,0.60056 1.43236,-2.51102 1.19266,0.47376 3.19849,-1.21385 1.74413,0.98286 2.14105,-1.09419 3.41993,-0.16524 0.94863,0.6971 2.07194,1.52143 3.91198,0.22206 -0.0606,0.9485 1.60141,0.94214 2.91471,0.38608 0.58463,-0.1725 4.38977,0.31018 3.30901,-0.16832 -2.45237,-0.56494 5.28913,2.49792 2.98336,-1.32227 1.34014,1.5692 1.21336,2.26011 1.92053,1.19546 0.61881,2.44839 1.42678,-1.78347 2.79362,1.77217 0.13979,-3.80045 1.54659,1.64684 1.84461,-1.5593 1.47712,2.2151 1.96956,-0.8046 3.69351,0.98777 1.60054,-1.76053 1.42848,0.92034 3.2304,-0.68811 0.11071,0.155 2.64276,-2.23223 3.63083,0.53566 -0.0278,-2.28389 1.06746,0.29965 1.80364,-0.9777 1.87242,3.00204 1.66968,-1.41049 2.08862,-0.0389 -0.65853,1.31174 1.11181,-0.42828 2.09821,-0.27925 1.82545,3.35929 1.60227,-1.59571 3.78932,1.85272 -0.38489,-2.89827 1.80822,1.44838 2.6007,-0.91352 1.80002,2.84305 1.54565,-2.07377 2.29926,1.06735 1.34119,-2.59523 2.25847,-0.67921 3.54838,-0.9223 0.8536,-0.65984 2.0716,0.23556 2.41878,-0.92986 1.11899,0.27544 1.99327,1.28446 3.36202,-0.59839 0.81893,3.4105 1.0025,-0.77377 3.06234,1.94822 0.39658,-1.59715 2.43808,-1.64552 3.58344,-0.79972 1.29169,-1.16341 1.71654,-1.00969 2.69433,-0.63193 2.48007,1.52561 0.21919,-1.07216 1.98896,1.13914 -0.23751,-1.91473 2.73255,1.37235 2.74184,-0.87535 2.71666,1.25554 2.4171,0.74787 4.71816,0.32096 0.84372,0.28806 3.12561,-0.32563 3.43414,0.96663 0.1396,-1.85638 2.31898,-0.79558 2.80325,-1.46995 1.84409,2.18516 1.36145,-1.59187 2.51979,0.99822 0.3993,-1.76216 2.1533,-0.29691 2.72987,-0.61553 1.55107,0.30858 1.63594,-0.20396 3.33621,-0.66399 1.02231,1.97001 2.31256,-0.0398 2.47169,1.26345 -0.55756,-0.58614 0.55451,-0.14058 2.54508,-1.03376 1.28636,0.80987 2.47392,1.03615 3.38664,0.49458 0.62862,-0.10237 2.51695,1.30214 2.65496,-0.0315 1.12688,0.52019 2.87751,1.30225 3.5517,0.0627 2.32667,1.25716 3.34352,-0.17917 4.74074,-0.53964 1.37476,1.96057 1.91651,0.36305 2.98345,0.61749 -0.39448,-1.1711 0.60886,1.02903 2.25692,-1.13573 2.65631,1.61704 4.55695,1.54906 5.57748,0.80787 2.17738,0.52299 2.04713,-0.003 3.37916,0.76101 0.3934,-1.39211 0.63277,0.0901 2.40514,-0.0323 1.01935,-0.58906 3.05548,-0.70933 3.96377,1.29404 0.92068,-2.79915 2.78866,-3.13716 2.05622,0.62198 -0.16672,-6.21646 1.54132,0.90868 1.76952,-2.21608 1.64116,1.38307 1.48322,-0.29207 2.86928,0.88674 2.47763,-0.21378 3.92539,-1.70118 3.90904,-1.31577 0.12856,0.97631 2.7759,1.17969 3.26013,-0.66412 0.40386,2.28619 1.28417,-1.56321 2.07945,1.07016 0.58271,1.34882 1.03363,-0.39386 2.9885,-0.28398 1.30463,0.16295 -0.17976,-1.5027 3.5022,-0.12448 1.00906,-0.66475 2.53348,0.89836 4.36462,0.10171 1.05176,0.9132 5.3056,-0.4177 6.22543,0.009 1.35111,2.02108 0.55074,-2.07263 1.74371,0.0684 0.16201,-2.18315 1.27454,2.2672 2.54998,-0.59939 0.10759,1.31537 1.88973,1.75005 2.31882,1.01959 2.57118,-0.26462 2.14965,-0.43448 5.5751,0.3585 2.05358,-0.85232 4.44535,-0.62267 5.90984,-0.71302 -1.30649,0.11752 2.96068,-0.25229 2.81692,-0.57831 2.16628,0.9308 1.86819,-1.40127 3.97986,0.57322 1.12456,1.02653 2.67999,-1.5955 3.83991,0.54159 2.09277,-0.93915 3.13399,-1.71301 5.07059,0.15469 2.94665,-1.41285 2.84194,1.30738 3.63086,-0.72613 0.1615,1.00237 3.93677,-0.0225 4.66168,1.03558 0.63632,-1.62247 2.82516,0.52356 4.39616,-0.48872 0.53239,-1.0866 3.20414,0.89987 4.57343,0.0504 1.65019,-1.02444 3.08696,0.12747 5.40233,-0.6906 0.0946,-0.32193 3.1162,0.72648 3.78556,-0.43281 0.3468,-0.28217 2.9414,-0.56176 4.22047,0.17197 1.64453,-1.23555 2.78164,-0.4996 4.02532,0.67361 0.91826,-0.95963 3.52108,-0.0255 5.20583,-0.59939 1.81172,0.75244 2.0633,-1.1602 3.11888,0.96118 0.58514,-0.60194 2.47351,-0.87918 2.98315,-0.28128 1.25371,-0.72869 2.62676,-1.67457 2.92786,-0.14916 1.0696,-0.68995 1.87148,-0.21141 3.68373,0.53338 2.42418,0.32098 3.20581,-1.51196 2.89016,-1.04935 3.36325,0.5341 4.29708,1.02194 6.90615,0.13425 0.8306,1.74786 4.38584,-3.64068 5.59769,0.24408 1.76654,-0.76313 3.30131,-0.66812 5.56883,-0.12226 2.17397,0.34342 0.97403,-1.50126 3.21243,-1.7019 2.49953,-2.25976 2.70301,2.53095 4.09518,0.93229 1.70739,-0.6841 1.45701,0.009 4.69129,0.78582 1.17075,-1.00178 4.10181,-0.54697 5.59458,-0.49865 1.22991,-0.39446 2.11938,0.10915 3.87658,0.63847 1.67989,0.14263 5.80061,0.61115 6.56569,-0.31924 2.19673,-0.35195 2.62286,-1.47836 3.63317,0.30512 2.55736,0.15706 4.22841,-1.16849 7.71954,-0.47522 1.60321,1.7185 3.47305,-1.48979 5.09328,1.09876 2.09227,-2.40669 4.54786,0.18099 7.48176,-1.9719 0.10941,0.55674 1.13289,-0.551 1.13388,0.20315"
               style="fill:none;stroke:#000000;stroke-width:1.33715;stroke-linecap:round;stroke-linejoin:round;stroke-miterlimit:10;stroke-dasharray:none;stroke-opacity:1"
               id="path324" />
          </g>
        </g>
      </g>
    </g>
  </g>
</svg>
