<?xml version="1.0" encoding="UTF-8" standalone="no"?>
<!-- Created by Ashley Blewer - This work is licensed under a Creative Commons Attribution 4.0 International License -->

<svg
   width="544"
   height="480"
   viewBox="0 0 143.93334 127"
   version="1.1"
   id="svg2490"
   inkscape:version="1.2.2 (1:1.2.2+202212051552+b0a8486541)"
   sodipodi:docname="1927-reel-to-reel-4.svg"
   xmlns:inkscape="http://www.inkscape.org/namespaces/inkscape"
   xmlns:sodipodi="http://sodipodi.sourceforge.net/DTD/sodipodi-0.dtd"
   xmlns="http://www.w3.org/2000/svg"
   xmlns:svg="http://www.w3.org/2000/svg">
  <sodipodi:namedview
     id="namedview2492"
     pagecolor="#ffffff"
     bordercolor="#666666"
     borderopacity="1.0"
     inkscape:pageshadow="2"
     inkscape:pageopacity="0.0"
     inkscape:pagecheckerboard="0"
     inkscape:document-units="mm"
     showgrid="false"
     units="px"
     inkscape:zoom="0.90583674"
     inkscape:cx="53.541657"
     inkscape:cy="253.35691"
     inkscape:window-width="1846"
     inkscape:window-height="1136"
     inkscape:window-x="0"
     inkscape:window-y="0"
     inkscape:window-maximized="1"
     inkscape:current-layer="g4731"
     inkscape:showpageshadow="2"
     inkscape:deskcolor="#d1d1d1" />
  <defs
     id="defs2487" />
  <g
     inkscape:label="Layer 1"
     inkscape:groupmode="layer"
     id="layer1">
    <g
       id="g4731"
       transform="matrix(0.32961229,0,0,0.32903008,-241.78905,1.73126)"
       style="stroke-width:2.68698">
      <g
         id="g104528"
         transform="matrix(1,0,0,-1,0,792)"
         style="stroke-width:2.68698">
        <g
           id="g104530"
           style="stroke-width:2.68698" />
      </g>
      <g
         id="g104996"
         transform="matrix(1,0,0,-1,0,792)"
         style="stroke-width:2.68698">
        <g
           id="g104998"
           style="stroke-width:2.68698" />
      </g>
      <g
         id="g3939"
         transform="matrix(1.2671673,0,0,1.2686859,-339.90739,-611.31976)"
         style="stroke-width:2.82055">
        <g
           id="g1744"
           transform="matrix(1,0,0,-1,0,792)"
           style="stroke-width:2.82055">
          <g
             id="g1746"
             style="stroke-width:2.82055">
            <path
               d="m 881.56403,35.757343 c -1.6507,4.920027 -4.86219,10.944177 -5.3314,15.211738"
               style="fill:none;stroke:#000000;stroke-width:3.57849;stroke-linecap:round;stroke-linejoin:round;stroke-miterlimit:10;stroke-dasharray:none;stroke-opacity:1"
               id="path1748" />
          </g>
        </g>
        <g
           id="g1750"
           transform="matrix(1,0,0,-1,0,792)"
           style="stroke-width:2.82055">
          <g
             id="g1752"
             style="stroke-width:2.82055">
            <path
               d="M 875.45618,50.998974 C 868.25531,103.04866 865.59949,155.57102 860.79245,207.86202"
               style="fill:none;stroke:#000000;stroke-width:3.57849;stroke-linecap:round;stroke-linejoin:round;stroke-miterlimit:10;stroke-dasharray:none;stroke-opacity:1"
               id="path1754" />
          </g>
        </g>
        <g
           id="g1756"
           transform="matrix(1,0,0,-1,0,792)"
           style="stroke-width:2.82055">
          <g
             id="g1758"
             style="stroke-width:2.82055">
            <path
               d="m 860.3952,209.66888 c -0.43315,-0.5489 1.02066,1.39548 1.34168,1.77388"
               style="fill:none;stroke:#000000;stroke-width:3.57849;stroke-linecap:round;stroke-linejoin:round;stroke-miterlimit:10;stroke-dasharray:none;stroke-opacity:1"
               id="path1760" />
          </g>
        </g>
        <g
           id="g1762"
           transform="matrix(1,0,0,-1,0,792)"
           style="stroke-width:2.82055">
          <g
             id="g1764"
             style="stroke-width:2.82055">
            <path
               d="m 863.91071,212.46306 c 60.28674,6.73796 119.20037,21.79562 178.97079,31.68271"
               style="fill:none;stroke:#000000;stroke-width:3.57849;stroke-linecap:round;stroke-linejoin:round;stroke-miterlimit:10;stroke-dasharray:none;stroke-opacity:1"
               id="path1766" />
          </g>
        </g>
        <g
           id="g1768"
           transform="matrix(1,0,0,-1,0,792)"
           style="stroke-width:2.82055">
          <g
             id="g1770"
             style="stroke-width:2.82055">
            <path
               d="m 877.44299,50.638039 c 55.66848,14.34416 115.67964,34.955048 172.74651,43.238003"
               style="fill:none;stroke:#000000;stroke-width:3.57849;stroke-linecap:round;stroke-linejoin:round;stroke-miterlimit:10;stroke-dasharray:none;stroke-opacity:1"
               id="path1772"
               sodipodi:nodetypes="cc" />
          </g>
        </g>
        <g
           id="g1774"
           transform="matrix(1,0,0,-1,0,792)"
           style="stroke-width:2.82055">
          <g
             id="g1776"
             style="stroke-width:2.82055">
            <path
               d="m 882.05365,34.211632 c 70.37676,18.575964 143.24715,43.316439 214.24015,59.484446"
               style="fill:none;stroke:#000000;stroke-width:3.57849;stroke-linecap:round;stroke-linejoin:round;stroke-miterlimit:10;stroke-dasharray:none;stroke-opacity:1"
               id="path1778"
               sodipodi:nodetypes="cc" />
          </g>
        </g>
        <g
           id="g1780"
           transform="matrix(1,0,0,-1,0,792)"
           style="stroke-width:2.82055">
          <g
             id="g1782"
             style="stroke-width:2.82055">
            <path
               d="m 1033.0411,242.08056 c -30.5003,-7.04981 -69.13313,-26.00482 -69.02504,-62.14117 1.09873,-39.6106 40.22114,-62.24108 74.55414,-70.70449 28.5806,-6.65154 59.3939,-9.327411 88.0161,-2.23672 19.934,18.00454 -15.7796,33.47335 -26.3708,45.41867 -2.6053,2.45549 -5.1627,4.96238 -7.651,7.53668"
               style="fill:none;stroke:#000000;stroke-width:3.57849;stroke-linecap:round;stroke-linejoin:round;stroke-miterlimit:10;stroke-dasharray:none;stroke-opacity:1"
               id="path1784"
               sodipodi:nodetypes="ccccccccccccccccc" />
          </g>
        </g>
        <g
           id="g1786"
           transform="matrix(1,0,0,-1,0,792)"
           style="stroke-width:2.82055">
          <g
             id="g1788"
             style="stroke-width:2.82055">
            <path
               d="m 1097.7524,160.99838 c 17.8565,-30.51359 75.5078,-58.5174 81.4774,-4.90526 7.1246,43.94555 -36.8374,73.21132 -73.6995,83.61839 -24.8036,7.39767 -47.4268,7.2036 -72.4892,2.36905"
               style="fill:none;stroke:#000000;stroke-width:3.57849;stroke-linecap:round;stroke-linejoin:round;stroke-miterlimit:10;stroke-dasharray:none;stroke-opacity:1"
               id="path1790"
               sodipodi:nodetypes="cccc" />
          </g>
        </g>
        <g
           id="g1792"
           transform="matrix(1,0,0,-1,0,792)"
           style="stroke-width:2.82055">
          <g
             id="g1794"
             style="stroke-width:2.82055">
            <path
               d="m 1177.4678,152.30763 c -7.5555,-30.91893 -36.814,-49.90249 -66.6124,-55.234325 -52.5606,-14.16199 -117.96357,4.299685 -143.17488,55.597425 -2.1466,4.91327 -3.55004,10.16992 -3.94633,15.52496"
               style="fill:none;stroke:#000000;stroke-width:3.57849;stroke-linecap:round;stroke-linejoin:round;stroke-miterlimit:10;stroke-dasharray:none;stroke-opacity:1"
               id="path1796" />
          </g>
        </g>
        <g
           id="g1798"
           transform="matrix(1,0,0,-1,0,792)"
           style="stroke-width:2.82055">
          <g
             id="g1800"
             style="stroke-width:2.82055">
            <path
               d="m 1038.5585,200.68344 c -6.0621,4.44585 -11.6315,10.2852 -17.6153,15.24132 -2.8152,3.55968 -6.7843,5.76041 -9.6389,9.20973 l 0.4543,-0.0192"
               style="fill:none;stroke:#000000;stroke-width:3.57849;stroke-linecap:round;stroke-linejoin:round;stroke-miterlimit:10;stroke-dasharray:none;stroke-opacity:1"
               id="path1802" />
          </g>
        </g>
        <g
           id="g1804"
           transform="matrix(1,0,0,-1,0,792)"
           style="stroke-width:2.82055">
          <g
             id="g1806"
             style="stroke-width:2.82055">
            <path
               d="m 1011.9785,225.59369 c 0.8064,1.29646 6.1389,4.41586 9.245,5.3348 3.6692,1.00441 8.9221,2.55708 11.8568,1.7469"
               style="fill:none;stroke:#000000;stroke-width:3.57849;stroke-linecap:round;stroke-linejoin:round;stroke-miterlimit:10;stroke-dasharray:none;stroke-opacity:1"
               id="path1808" />
          </g>
        </g>
        <g
           id="g1810"
           transform="matrix(1,0,0,-1,0,792)"
           style="stroke-width:2.82055">
          <g
             id="g1812"
             style="stroke-width:2.82055">
            <path
               d="m 1034.8303,231.85155 c 5.536,-4.53575 10.0558,-11.61428 16.2498,-16.10695 2.5542,-1.95703 6.2357,-5.08552 7.9564,-7.13667"
               style="fill:none;stroke:#000000;stroke-width:3.57849;stroke-linecap:round;stroke-linejoin:round;stroke-miterlimit:10;stroke-dasharray:none;stroke-opacity:1"
               id="path1814" />
          </g>
        </g>
        <g
           id="g1816"
           transform="matrix(1,0,0,-1,0,792)"
           style="stroke-width:2.82055">
          <g
             id="g1818"
             style="stroke-width:2.82055">
            <path
               d="m 1040.1447,200.76839 c 1.4727,1.99186 6.5071,4.29452 9.668,5.75422 3.3367,0.46417 6.6421,1.51025 10.017,1.52634"
               style="fill:none;stroke:#000000;stroke-width:3.57849;stroke-linecap:round;stroke-linejoin:round;stroke-miterlimit:10;stroke-dasharray:none;stroke-opacity:1"
               id="path1820" />
          </g>
        </g>
        <g
           id="g1822"
           transform="matrix(1,0,0,-1,0,792)"
           style="stroke-width:2.82055">
          <g
             id="g1824"
             style="stroke-width:2.82055">
            <path
               d="m 1106.5536,193.06738 c 15.3135,3.46762 31.1505,3.8167 46.694,2.81205 1.9426,0.0333 3.8619,-0.63634 5.7555,-0.86954"
               style="fill:none;stroke:#000000;stroke-width:3.57849;stroke-linecap:round;stroke-linejoin:round;stroke-miterlimit:10;stroke-dasharray:none;stroke-opacity:1"
               id="path1826"
               sodipodi:nodetypes="ccc" />
          </g>
        </g>
        <g
           id="g1828"
           transform="matrix(1,0,0,-1,0,792)"
           style="stroke-width:2.82055">
          <g
             id="g1830"
             style="stroke-width:2.82055">
            <path
               d="m 1159.0031,195.00989 c 4.8168,-4.09708 7.1781,-12.47284 7.4185,-18.5342 l -1.9643,-1.5394"
               style="fill:none;stroke:#000000;stroke-width:3.57849;stroke-linecap:round;stroke-linejoin:round;stroke-miterlimit:10;stroke-dasharray:none;stroke-opacity:1"
               id="path1832"
               sodipodi:nodetypes="ccc" />
          </g>
        </g>
        <g
           id="g1834"
           transform="matrix(1,0,0,-1,0,792)"
           style="stroke-width:2.82055">
          <g
             id="g1836"
             style="stroke-width:2.82055">
            <path
               d="m 1106.5536,193.06738 c 2.3946,0.49188 3.9273,-6.62459 4.642,-9.25027 0.9076,-1.20939 -0.3903,-3.58637 -0.584,-4.12185"
               style="fill:none;stroke:#000000;stroke-width:3.57849;stroke-linecap:round;stroke-linejoin:round;stroke-miterlimit:10;stroke-dasharray:none;stroke-opacity:1"
               id="path1838"
               sodipodi:nodetypes="ccc" />
          </g>
        </g>
        <g
           id="g1840"
           transform="matrix(1,0,0,-1,0,792)"
           style="stroke-width:2.82055">
          <g
             id="g1842"
             style="stroke-width:2.82055">
            <path
               d="m 1112.7084,178.03658 c 8.9523,1.07079 18.5813,1.08397 27.8231,0.39679 7.9965,-0.13117 16.1923,-4.21918 23.9258,-3.49708"
               style="fill:none;stroke:#000000;stroke-width:3.57849;stroke-linecap:round;stroke-linejoin:round;stroke-miterlimit:10;stroke-dasharray:none;stroke-opacity:1"
               id="path1844" />
          </g>
        </g>
        <g
           id="g1846"
           transform="matrix(1,0,0,-1,0,792)"
           style="stroke-width:2.82055">
          <g
             id="g1848"
             style="stroke-width:2.82055">
            <path
               d="m 1041.9091,167.3016 c 2.1355,-1.03912 6.8149,-4.30665 10.3025,-5.31986 3.6616,-1.91987 7.78,-2.82122 11.8763,-2.01344"
               style="fill:none;stroke:#000000;stroke-width:3.57849;stroke-linecap:round;stroke-linejoin:round;stroke-miterlimit:10;stroke-dasharray:none;stroke-opacity:1"
               id="path1850" />
          </g>
        </g>
        <g
           id="g1852"
           transform="matrix(1,0,0,-1,0,792)"
           style="stroke-width:2.82055">
          <g
             id="g1854"
             style="stroke-width:2.82055">
            <path
               d="m 1065.5768,158.4424 c -1.6688,-2.71243 -3.5788,-7.35109 -6.6926,-9.9706 -3.138,-5.43124 -6.9018,-10.67631 -9.847,-16.08044 -2.9312,-2.79895 -4.5148,-8.42213 -6.3742,-10.49733"
               style="fill:none;stroke:#000000;stroke-width:3.57849;stroke-linecap:round;stroke-linejoin:round;stroke-miterlimit:10;stroke-dasharray:none;stroke-opacity:1"
               id="path1856" />
          </g>
        </g>
        <g
           id="g1858"
           transform="matrix(1,0,0,-1,0,792)"
           style="stroke-width:2.82055">
          <g
             id="g1860"
             style="stroke-width:2.82055">
            <path
               d="m 1039.786,165.48947 c -2.2513,-2.80296 -6.135,-7.53952 -9.4866,-10.76605 -2.0805,-3.67858 -5.1863,-6.38451 -8.1743,-9.36495 -4.1426,-3.72062 -6.4313,-8.10921 -9.9615,-11.62398 0.1401,-0.11057 0.096,-0.93692 -0.037,-0.56157"
               style="fill:none;stroke:#000000;stroke-width:3.57849;stroke-linecap:round;stroke-linejoin:round;stroke-miterlimit:10;stroke-dasharray:none;stroke-opacity:1"
               id="path1862" />
          </g>
        </g>
        <g
           id="g1864"
           transform="matrix(1,0,0,-1,0,792)"
           style="stroke-width:2.82055">
          <g
             id="g1866"
             style="stroke-width:2.82055">
            <path
               d="m 1011.596,132.21098 c 5.0589,-4.70533 12.4187,-8.30307 19.5972,-9.56716 3.0358,-0.44323 10.4839,-2.23229 11.3571,-0.89757"
               style="fill:none;stroke:#000000;stroke-width:3.57849;stroke-linecap:round;stroke-linejoin:round;stroke-miterlimit:10;stroke-dasharray:none;stroke-opacity:1"
               id="path1868" />
          </g>
        </g>
        <g
           id="g1870"
           transform="matrix(1,0,0,-1,0,792)"
           style="stroke-width:2.82055">
          <g
             id="g1872"
             style="stroke-width:2.82055">
            <path
               d="m 1041.9091,167.3016 c -4.7965,5.55887 -8.3138,18.50958 -5.7697,25.32006 1.4068,3.11432 4.2206,6.1437 5.9892,7.8029"
               style="fill:none;stroke:#000000;stroke-width:3.57849;stroke-linecap:round;stroke-linejoin:round;stroke-miterlimit:10;stroke-dasharray:none;stroke-opacity:1"
               id="path1874"
               sodipodi:nodetypes="ccc" />
          </g>
        </g>
        <g
           id="g1876"
           transform="matrix(1,0,0,-1,0,792)"
           style="stroke-width:2.82055">
          <g
             id="g1878"
             style="stroke-width:2.82055">
            <path
               d="m 1059.8297,208.04895 c 11.6879,0.75525 28.2252,-4.52114 37.3173,-11.76109 l -0.4254,-0.0645"
               style="fill:none;stroke:#000000;stroke-width:3.57849;stroke-linecap:round;stroke-linejoin:round;stroke-miterlimit:10;stroke-dasharray:none;stroke-opacity:1"
               id="path1880"
               sodipodi:nodetypes="ccc" />
          </g>
        </g>
        <g
           id="g1882"
           transform="matrix(1,0,0,-1,0,792)"
           style="stroke-width:2.82055">
          <g
             id="g1884"
             style="stroke-width:2.82055">
            <path
               d="m 1106.1491,175.41612 c 0.4224,-0.4633 -3.5762,-4.92631 -4.908,-6.87036 -1.2788,-1.2615 -2.9197,-4.22091 -4.4433,-3.75053"
               style="fill:none;stroke:#000000;stroke-width:3.57849;stroke-linecap:round;stroke-linejoin:round;stroke-miterlimit:10;stroke-dasharray:none;stroke-opacity:1"
               id="path1886" />
          </g>
        </g>
        <g
           id="g1888"
           transform="matrix(1,0,0,-1,0,792)"
           style="stroke-width:2.82055">
          <g
             id="g1890"
             style="stroke-width:2.82055">
            <path
               d="m 1089.7383,161.53862 c -5.7169,-2.54824 -18.1153,-5.1077 -24.1615,-3.09622"
               style="fill:none;stroke:#000000;stroke-width:3.57849;stroke-linecap:round;stroke-linejoin:round;stroke-miterlimit:10;stroke-dasharray:none;stroke-opacity:1"
               id="path1892"
               sodipodi:nodetypes="cc" />
          </g>
        </g>
        <g
           id="g1894"
           transform="matrix(1,0,0,-1,0,792)"
           style="stroke-width:2.82055">
          <g
             id="g1896"
             style="stroke-width:2.82055">
            <path
               d="m 1060.3751,194.75644 c -2.0321,-2.05355 -11.2724,-0.15405 -7.6442,4.08951 3.0147,3.30517 12.061,2.70775 10.3251,-2.61647 -0.7682,-1.66579 -2.4439,-2.12804 -4.2116,-2.37975"
               style="fill:none;stroke:#000000;stroke-width:1.78926;stroke-linecap:round;stroke-linejoin:round;stroke-miterlimit:10;stroke-dasharray:none;stroke-opacity:1"
               id="path1898" />
          </g>
        </g>
        <g
           id="g1900"
           transform="matrix(1,0,0,-1,0,792)"
           style="stroke-width:2.82055">
          <g
             id="g1902"
             style="stroke-width:2.82055">
            <path
               d="m 1051.1348,181.32585 c -4.0847,-1.50532 -10.6356,4.66535 -4.9408,7.22234 3.6332,2.69527 12.8656,1.52125 11.4157,-4.2969 -1.2581,-2.8904 -6.447,-4.81516 -9.4607,-3.33915"
               style="fill:none;stroke:#000000;stroke-width:1.78926;stroke-linecap:round;stroke-linejoin:round;stroke-miterlimit:10;stroke-dasharray:none;stroke-opacity:1"
               id="path1904" />
          </g>
        </g>
        <g
           id="g1906"
           transform="matrix(1,0,0,-1,0,792)"
           style="stroke-width:2.82055">
          <g
             id="g1908"
             style="stroke-width:2.82055">
            <path
               d="m 1079.5985,192.62511 c -4.665,-0.16022 -8.149,6.05992 -2.3544,7.44728 3.7537,1.37426 9.3056,-1.25963 7.0304,-5.68484 -0.7061,-2.35279 -5.0673,-3.03152 -7.1082,-2.2167"
               style="fill:none;stroke:#000000;stroke-width:1.78926;stroke-linecap:round;stroke-linejoin:round;stroke-miterlimit:10;stroke-dasharray:none;stroke-opacity:1"
               id="path1910" />
          </g>
        </g>
        <g
           id="g1912"
           transform="matrix(1,0,0,-1,0,792)"
           style="stroke-width:2.82055">
          <g
             id="g1914"
             style="stroke-width:2.82055">
            <path
               d="m 1073.2213,183.28667 c -5.0431,-1.03664 -6.6385,6.10153 -1.1185,5.91276 6.0578,1.11522 3.868,-7.54357 -1.0352,-6.34322 l -0.292,0.0435 -0.063,0.26964"
               style="fill:none;stroke:#000000;stroke-width:1.78926;stroke-linecap:round;stroke-linejoin:round;stroke-miterlimit:10;stroke-dasharray:none;stroke-opacity:1"
               id="path1916" />
          </g>
        </g>
        <g
           id="g1918"
           transform="matrix(1,0,0,-1,0,792)"
           style="stroke-width:2.82055">
          <g
             id="g1920"
             style="stroke-width:2.82055">
            <path
               d="m 1085.4231,170.00009 c -3.7572,-1.43746 -11.8806,1.285 -8.221,6.04512 3.1604,3.30535 13.1207,3.67151 12.3833,-2.09089 -0.8215,-2.70075 -0.8262,-4.4424 1.3946,-7.30683 -0.3709,-0.11091 2.8647,-1.86405 1.9663,-1.69203"
               style="fill:none;stroke:#000000;stroke-width:1.78926;stroke-linecap:round;stroke-linejoin:round;stroke-miterlimit:10;stroke-dasharray:none;stroke-opacity:1"
               id="path1922" />
          </g>
        </g>
        <g
           id="g1924"
           transform="matrix(1,0,0,-1,0,792)"
           style="stroke-width:2.82055">
          <g
             id="g1926"
             style="stroke-width:2.82055">
            <path
               d="m 1086.3584,167.91351 c 1.542,-0.57246 3.104,-2.98968 4.8956,-3.62175"
               style="fill:none;stroke:#000000;stroke-width:1.78926;stroke-linecap:round;stroke-linejoin:round;stroke-miterlimit:10;stroke-dasharray:none;stroke-opacity:1"
               id="path1928" />
          </g>
        </g>
        <g
           id="g1930"
           transform="matrix(1,0,0,-1,0,792)"
           style="stroke-width:2.82055">
          <g
             id="g1932"
             style="stroke-width:2.82055">
            <path
               d="m 1080.0874,231.11478 c -0.3924,1.70884 -4.7551,4.75582 -7.6245,2.8442 1.1198,-2.41884 8.4366,-2.60931 6.849,-6.14356 -2.9488,-1.40152 -7.3868,1.04621 -8.9194,3.09047"
               style="fill:none;stroke:#000000;stroke-width:1.78926;stroke-linecap:round;stroke-linejoin:round;stroke-miterlimit:10;stroke-dasharray:none;stroke-opacity:1"
               id="path1934" />
          </g>
        </g>
        <g
           id="g1936"
           transform="matrix(1,0,0,-1,0,792)"
           style="stroke-width:2.82055">
          <g
             id="g1938"
             style="stroke-width:2.82055">
            <path
               d="m 1092.6506,229.51141 c -4.4807,1.63824 -7.0089,-4.39208 -2.1828,-5.7117 2.2899,-0.87468 10.636,1.0812 6.3271,3.84358 -1.8739,1.31347 -4.3544,2.05227 -6.6167,1.50596"
               style="fill:none;stroke:#000000;stroke-width:1.78926;stroke-linecap:round;stroke-linejoin:round;stroke-miterlimit:10;stroke-dasharray:none;stroke-opacity:1"
               id="path1940" />
          </g>
        </g>
        <g
           id="g1942"
           transform="matrix(1,0,0,-1,0,792)"
           style="stroke-width:2.82055">
          <g
             id="g1944"
             style="stroke-width:2.82055">
            <path
               d="m 1101.4764,220.64275 c 1.6128,0.0913 1.5152,7.46864 3.3202,3.86743 1.7357,-2.15297 5.9736,-4.86688 6.2271,-5.15765 1.2894,0.67557 1.4283,4.17052 2.3929,3.74394"
               style="fill:none;stroke:#000000;stroke-width:1.78926;stroke-linecap:round;stroke-linejoin:round;stroke-miterlimit:10;stroke-dasharray:none;stroke-opacity:1"
               id="path1946" />
          </g>
        </g>
        <g
           id="g1948"
           transform="matrix(1,0,0,-1,0,792)"
           style="stroke-width:2.82055">
          <g
             id="g1950"
             style="stroke-width:2.82055">
            <path
               d="m 1119.7752,220.56163 c 0.2803,-1.02913 1.9704,-0.70806 2.239,-1.84207"
               style="fill:none;stroke:#000000;stroke-width:1.78926;stroke-linecap:round;stroke-linejoin:round;stroke-miterlimit:10;stroke-dasharray:none;stroke-opacity:1"
               id="path1952" />
          </g>
        </g>
        <g
           id="g1954"
           transform="matrix(1,0,0,-1,0,792)"
           style="stroke-width:2.82055">
          <g
             id="g1956"
             style="stroke-width:2.82055">
            <path
               d="m 1127.4491,218.49658 c -0.4127,0.50571 -4.0305,-1.69996 -5.5726,-0.9796"
               style="fill:none;stroke:#000000;stroke-width:1.78926;stroke-linecap:round;stroke-linejoin:round;stroke-miterlimit:10;stroke-dasharray:none;stroke-opacity:1"
               id="path1958" />
          </g>
        </g>
        <g
           id="g1960"
           transform="matrix(1,0,0,-1,0,792)"
           style="stroke-width:2.82055">
          <g
             id="g1962"
             style="stroke-width:2.82055">
            <path
               d="m 1122.8645,217.6073 c -0.4391,-0.27164 -0.83,-3.13237 -0.9812,-2.74732"
               style="fill:none;stroke:#000000;stroke-width:1.78926;stroke-linecap:round;stroke-linejoin:round;stroke-miterlimit:10;stroke-dasharray:none;stroke-opacity:1"
               id="path1964" />
          </g>
        </g>
        <g
           id="g1966"
           transform="matrix(1,0,0,-1,0,792)"
           style="stroke-width:2.82055">
          <g
             id="g1968"
             style="stroke-width:2.82055">
            <path
               d="m 1080.8096,224.1541 c 10.7965,-2.01709 20.8996,-7.06762 31.9147,-8.0894 1.0966,-0.31949 2.1931,-0.63899 3.2896,-0.95848"
               style="fill:none;stroke:#000000;stroke-width:1.78926;stroke-linecap:round;stroke-linejoin:round;stroke-miterlimit:10;stroke-dasharray:none;stroke-opacity:1"
               id="path1970" />
          </g>
        </g>
        <g
           id="g1972"
           transform="matrix(1,0,0,-1,0,792)"
           style="stroke-width:2.82055">
          <g
             id="g1974"
             style="stroke-width:2.82055">
            <path
               d="m 1094.2661,218.28313 c -4.221,1.42765 -8.3131,-7.25546 -2.4544,-7.2484 4.0093,-0.57912 8.3395,3.49448 4.3855,6.39513 -1.582,0.6761 -2.3763,0.6919 -3.6474,-0.29175"
               style="fill:none;stroke:#000000;stroke-width:1.78926;stroke-linecap:round;stroke-linejoin:round;stroke-miterlimit:10;stroke-dasharray:none;stroke-opacity:1"
               id="path1976" />
          </g>
        </g>
        <g
           id="g1978"
           transform="matrix(1,0,0,-1,0,792)"
           style="stroke-width:2.82055">
          <g
             id="g1980"
             style="stroke-width:2.82055">
            <path
               d="m 1094.6488,215.04503 c 0.2603,-0.92989 -0.4756,-1.79763 -1.3571,-1.95934"
               style="fill:none;stroke:#000000;stroke-width:1.78926;stroke-linecap:round;stroke-linejoin:round;stroke-miterlimit:10;stroke-dasharray:none;stroke-opacity:1"
               id="path1982" />
          </g>
        </g>
        <g
           id="g1984"
           transform="matrix(1,0,0,-1,0,792)"
           style="stroke-width:2.82055">
          <g
             id="g1986"
             style="stroke-width:2.82055">
            <path
               d="m 895.42395,166.57727 c -4.05724,0.48228 -9.91972,-0.18578 -12.25415,-3.94893 2.23722,-2.80667 8.71334,2.20833 11.99374,-0.74492 -1.00524,-3.06835 -7.63834,-3.15236 -11.05667,-3.03342 l -0.30958,0.0233 0.3086,0.15631"
               style="fill:none;stroke:#000000;stroke-width:1.78926;stroke-linecap:round;stroke-linejoin:round;stroke-miterlimit:10;stroke-dasharray:none;stroke-opacity:1"
               id="path1988" />
          </g>
        </g>
        <g
           id="g1990"
           transform="matrix(1,0,0,-1,0,792)"
           style="stroke-width:2.82055">
          <g
             id="g1992"
             style="stroke-width:2.82055">
            <path
               d="m 910.263,168.77031 c -4.6618,1.56804 -8.30552,-7.37528 -2.27972,-7.0126 3.28775,-0.53591 10.00247,2.83874 7.51777,6.31567 -3.6413,2.20158 -1.88007,1.58537 -5.23805,0.69693"
               style="fill:none;stroke:#000000;stroke-width:1.78926;stroke-linecap:round;stroke-linejoin:round;stroke-miterlimit:10;stroke-dasharray:none;stroke-opacity:1"
               id="path1994"
               sodipodi:nodetypes="cccc" />
          </g>
        </g>
        <g
           id="g1996"
           transform="matrix(1,0,0,-1,0,792)"
           style="stroke-width:2.82055">
          <g
             id="g1998"
             style="stroke-width:2.82055">
            <path
               d="m 925.54572,166.31952 c 1.36649,-0.66022 -3.78951,7.08866 -1.27367,4.98284 2.91345,-0.51858 10.48114,-3.29098 10.77804,-1.50631 -0.92617,1.28186 -1.38022,3.29058 -2.03276,4.24089"
               style="fill:none;stroke:#000000;stroke-width:1.78926;stroke-linecap:round;stroke-linejoin:round;stroke-miterlimit:10;stroke-dasharray:none;stroke-opacity:1"
               id="path2000" />
          </g>
        </g>
        <g
           id="g2002"
           transform="matrix(1,0,0,-1,0,792)"
           style="stroke-width:2.82055">
          <g
             id="g2004"
             style="stroke-width:2.82055">
            <path
               d="m 943.61456,174.36617 c 0.55535,0.94869 3.1694,-0.84504 4.56037,-0.65866"
               style="fill:none;stroke:#000000;stroke-width:1.78926;stroke-linecap:round;stroke-linejoin:round;stroke-miterlimit:10;stroke-dasharray:none;stroke-opacity:1"
               id="path2006" />
          </g>
        </g>
        <g
           id="g2008"
           transform="matrix(1,0,0,-1,0,792)"
           style="stroke-width:2.82055">
          <g
             id="g2010"
             style="stroke-width:2.82055">
            <path
               d="m 952.33014,176.13474 c -0.90711,-1.26939 -2.82311,-1.70417 -3.87775,-3.02221"
               style="fill:none;stroke:#000000;stroke-width:1.78926;stroke-linecap:round;stroke-linejoin:round;stroke-miterlimit:10;stroke-dasharray:none;stroke-opacity:1"
               id="path2012" />
          </g>
        </g>
        <g
           id="g2014"
           transform="matrix(1,0,0,-1,0,792)"
           style="stroke-width:2.82055">
          <g
             id="g2016"
             style="stroke-width:2.82055">
            <path
               d="m 949.026,172.22461 c -0.58166,0.68455 0.70712,-4.65698 0.42969,-2.42198"
               style="fill:none;stroke:#000000;stroke-width:1.78926;stroke-linecap:round;stroke-linejoin:round;stroke-miterlimit:10;stroke-dasharray:none;stroke-opacity:1"
               id="path2018" />
          </g>
        </g>
      </g>
    </g>
  </g>
</svg>
