<?xml version="1.0" encoding="UTF-8" standalone="no"?>
<!-- Created by Ashley Blewer - This work is licensed under a Creative Commons Attribution 4.0 International License -->

<svg
   width="544"
   height="480"
   viewBox="0 0 143.93334 127"
   version="1.1"
   id="svg2490"
   inkscape:version="1.2.2 (1:1.2.2+202212051552+b0a8486541)"
   sodipodi:docname="1927-reel-to-reel-2.svg"
   xmlns:inkscape="http://www.inkscape.org/namespaces/inkscape"
   xmlns:sodipodi="http://sodipodi.sourceforge.net/DTD/sodipodi-0.dtd"
   xmlns="http://www.w3.org/2000/svg"
   xmlns:svg="http://www.w3.org/2000/svg">
  <sodipodi:namedview
     id="namedview2492"
     pagecolor="#ffffff"
     bordercolor="#666666"
     borderopacity="1.0"
     inkscape:pageshadow="2"
     inkscape:pageopacity="0.0"
     inkscape:pagecheckerboard="0"
     inkscape:document-units="mm"
     showgrid="false"
     units="px"
     inkscape:zoom="0.90583674"
     inkscape:cx="53.541657"
     inkscape:cy="253.35691"
     inkscape:window-width="1846"
     inkscape:window-height="1136"
     inkscape:window-x="0"
     inkscape:window-y="0"
     inkscape:window-maximized="1"
     inkscape:current-layer="g4731"
     inkscape:showpageshadow="2"
     inkscape:deskcolor="#d1d1d1" />
  <defs
     id="defs2487" />
  <g
     inkscape:label="Layer 1"
     inkscape:groupmode="layer"
     id="layer1">
    <g
       id="g4731"
       transform="matrix(0.32961229,0,0,0.32903008,-241.78905,1.73126)"
       style="stroke-width:2.68698">
      <g
         id="g104528"
         transform="matrix(1,0,0,-1,0,792)"
         style="stroke-width:2.68698">
        <g
           id="g104530"
           style="stroke-width:2.68698" />
      </g>
      <g
         id="g104996"
         transform="matrix(1,0,0,-1,0,792)"
         style="stroke-width:2.68698">
        <g
           id="g104998"
           style="stroke-width:2.68698" />
      </g>
      <g
         id="g3799"
         transform="matrix(1.0766448,0,0,1.0779351,-116.69274,-50.017165)"
         style="stroke-width:2.82055">
        <g
           id="g1348"
           transform="matrix(1,0,0,-1,0,792)"
           style="stroke-width:2.82055">
          <g
             id="g1350"
             style="stroke-width:2.82055">
            <path
               d="m 1017.8278,537.13947 c -37.70412,37.39817 -111.48182,3.17572 -109.69517,-49.51251 -3.01434,-57.99839 82.33092,-91.52308 119.56357,-46.72844 22.1631,23.3647 17.4161,75.94847 -9.3288,95.91764"
               style="fill:none;stroke:#000000;stroke-width:3.57849;stroke-linecap:round;stroke-linejoin:round;stroke-miterlimit:10;stroke-dasharray:none;stroke-opacity:1"
               id="path1352"
               sodipodi:nodetypes="cccc" />
          </g>
        </g>
        <g
           id="g1354"
           transform="matrix(1,0,0,-1,0,792)"
           style="stroke-width:2.82055">
          <g
             id="g1356"
             style="stroke-width:2.82055">
            <path
               d="m 1018.3674,536.81616 c 2.4375,-12.75885 -18.1274,-20.6582 -23.75975,-29.80564"
               style="fill:none;stroke:#000000;stroke-width:3.57849;stroke-linecap:round;stroke-linejoin:round;stroke-miterlimit:10;stroke-dasharray:none;stroke-opacity:1"
               id="path1358" />
          </g>
        </g>
        <g
           id="g1360"
           transform="matrix(1,0,0,-1,0,792)"
           style="stroke-width:2.82055">
          <g
             id="g1362"
             style="stroke-width:2.82055">
            <path
               d="m 991.12299,505.98932 c -13.74567,2.58604 -7.59822,-19.7082 1.24004,-6.17371 l 1.59546,2.62219"
               style="fill:none;stroke:#000000;stroke-width:3.57849;stroke-linecap:round;stroke-linejoin:round;stroke-miterlimit:10;stroke-dasharray:none;stroke-opacity:1"
               id="path1364" />
          </g>
        </g>
        <g
           id="g1366"
           transform="matrix(1,0,0,-1,0,792)"
           style="stroke-width:2.82055">
          <g
             id="g1368"
             style="stroke-width:2.82055">
            <path
               d="m 989.99005,507.91251 c -16.44781,13.64027 -45.36316,-5.12197 -42.4403,-25.22732 3.54664,-15.74197 25.10939,-23.91816 39.08654,-16.65054 16.77421,7.30381 19.94851,26.47917 7.3222,36.40315"
               style="fill:none;stroke:#000000;stroke-width:3.57849;stroke-linecap:round;stroke-linejoin:round;stroke-miterlimit:10;stroke-dasharray:none;stroke-opacity:1"
               id="path1370"
               sodipodi:nodetypes="cccc" />
          </g>
        </g>
        <g
           id="g1372"
           transform="matrix(1,0,0,-1,0,792)"
           style="stroke-width:2.82055">
          <g
             id="g1374"
             style="stroke-width:2.82055">
            <path
               d="m 1011.6237,544.44708 c 2.585,67.42016 -75.39887,124.09818 -137.6644,92.43099 -65.41228,-23.95013 -97.86267,-118.64543 -44.7854,-170.51445 24.59587,-27.05082 68.81023,-40.87765 104.79492,-30.46597"
               style="fill:none;stroke:#000000;stroke-width:3.57849;stroke-linecap:round;stroke-linejoin:round;stroke-miterlimit:10;stroke-dasharray:none;stroke-opacity:1"
               id="path1376"
               sodipodi:nodetypes="cccc" />
          </g>
        </g>
        <g
           id="g1378"
           transform="matrix(1,0,0,-1,0,792)"
           style="stroke-width:2.82055">
          <g
             id="g1380"
             style="stroke-width:2.82055">
            <path
               d="m 941.8277,548.61572 c -2.92526,27.17558 -40.8824,38.65998 -59.41295,19.50766 -16.54918,-12.96042 -18.71287,-38.27373 -7.98146,-55.50755 7.28917,-11.8123 20.78604,-14.29578 33.44883,-10.74627"
               style="fill:none;stroke:#000000;stroke-width:3.57849;stroke-linecap:round;stroke-linejoin:round;stroke-miterlimit:10;stroke-dasharray:none;stroke-opacity:1"
               id="path1382" />
          </g>
        </g>
        <g
           id="g1384"
           transform="matrix(1,0,0,-1,0,792)"
           style="stroke-width:2.82055">
          <g
             id="g1386"
             style="stroke-width:2.82055">
            <path
               d="m 919.77509,646.82404 c 10.01117,15.6026 23.03727,28.79377 38.22802,39.544 22.16413,15.75967 48.26879,28.06188 76.08879,26.58043 l -0.6424,-0.43606"
               style="fill:none;stroke:#000000;stroke-width:3.57849;stroke-linecap:round;stroke-linejoin:round;stroke-miterlimit:10;stroke-dasharray:none;stroke-opacity:1"
               id="path1388" />
          </g>
        </g>
        <g
           id="g1390"
           transform="matrix(1,0,0,-1,0,792)"
           style="stroke-width:2.82055">
          <g
             id="g1392"
             style="stroke-width:2.82055">
            <path
               d="m 1033.8259,711.57263 c 4.8927,-8.15914 7.9468,-0.50255 11.5132,3.05592"
               style="fill:none;stroke:#000000;stroke-width:3.57849;stroke-linecap:round;stroke-linejoin:round;stroke-miterlimit:10;stroke-dasharray:none;stroke-opacity:1"
               id="path1394" />
          </g>
        </g>
        <g
           id="g1396"
           transform="matrix(1,0,0,-1,0,792)"
           style="stroke-width:2.82055">
          <g
             id="g1398"
             style="stroke-width:2.82055">
            <path
               d="m 1047.6887,714.06244 c 101.8445,3.85805 174.9782,-123.53636 122.2373,-210.31204 -28.2703,-53.04608 -90.7482,-88.36103 -150.6931,-71.71119"
               style="fill:none;stroke:#000000;stroke-width:3.57849;stroke-linecap:round;stroke-linejoin:round;stroke-miterlimit:10;stroke-dasharray:none;stroke-opacity:1"
               id="path1400"
               sodipodi:nodetypes="ccc" />
          </g>
        </g>
        <g
           id="g1402"
           transform="matrix(1,0,0,-1,0,792)"
           style="stroke-width:2.82055">
          <g
             id="g1404"
             style="stroke-width:2.82055">
            <path
               d="m 950.41827,639.27753 c 1.54657,5.23605 7.98987,10.14939 12.17647,10.80823"
               style="fill:none;stroke:#000000;stroke-width:3.57849;stroke-linecap:round;stroke-linejoin:round;stroke-miterlimit:10;stroke-dasharray:none;stroke-opacity:1"
               id="path1406" />
          </g>
        </g>
        <g
           id="g1408"
           transform="matrix(1,0,0,-1,0,792)"
           style="stroke-width:2.82055">
          <g
             id="g1410"
             style="stroke-width:2.82055">
            <path
               d="m 962.59474,650.08576 c 24.4932,-4.67615 52.33996,-25.45641 77.56966,-26.57368"
               style="fill:none;stroke:#000000;stroke-width:3.57849;stroke-linecap:round;stroke-linejoin:round;stroke-miterlimit:10;stroke-dasharray:none;stroke-opacity:1"
               id="path1412"
               sodipodi:nodetypes="cc" />
          </g>
        </g>
        <g
           id="g1414"
           transform="matrix(1,0,0,-1,0,792)"
           style="stroke-width:2.82055">
          <g
             id="g1416"
             style="stroke-width:2.82055">
            <path
               d="m 1040.1644,623.51208 c 20.632,-1.67898 47.9657,15.89726 66.8012,22.78534 4.3463,2.50175 11.3702,6.04789 14.3729,7.06556"
               style="fill:none;stroke:#000000;stroke-width:3.57849;stroke-linecap:round;stroke-linejoin:round;stroke-miterlimit:10;stroke-dasharray:none;stroke-opacity:1"
               id="path1418"
               sodipodi:nodetypes="ccc" />
          </g>
        </g>
        <g
           id="g1420"
           transform="matrix(1,0,0,-1,0,792)"
           style="stroke-width:2.82055">
          <g
             id="g1422"
             style="stroke-width:2.82055">
            <path
               d="m 1121.3385,653.36298 c 16.0536,-8.10112 24.7475,-31.11337 28.0715,-47.8656"
               style="fill:none;stroke:#000000;stroke-width:3.57849;stroke-linecap:round;stroke-linejoin:round;stroke-miterlimit:10;stroke-dasharray:none;stroke-opacity:1"
               id="path1424"
               sodipodi:nodetypes="cc" />
          </g>
        </g>
        <g
           id="g1426"
           transform="matrix(1,0,0,-1,0,792)"
           style="stroke-width:2.82055">
          <g
             id="g1428"
             style="stroke-width:2.82055">
            <path
               d="m 1149.41,605.49738 c -16.5319,-15.98278 -34.1463,-31.27965 -54.6807,-41.92517"
               style="fill:none;stroke:#000000;stroke-width:3.57849;stroke-linecap:round;stroke-linejoin:round;stroke-miterlimit:10;stroke-dasharray:none;stroke-opacity:1"
               id="path1430" />
          </g>
        </g>
        <g
           id="g1432"
           transform="matrix(1,0,0,-1,0,792)"
           style="stroke-width:2.82055">
          <g
             id="g1434"
             style="stroke-width:2.82055">
            <path
               d="m 1094.7293,563.57221 c -2.332,-8.54671 -10.7871,-23.17328 -15.991,-29.53663"
               style="fill:none;stroke:#000000;stroke-width:3.57849;stroke-linecap:round;stroke-linejoin:round;stroke-miterlimit:10;stroke-dasharray:none;stroke-opacity:1"
               id="path1436"
               sodipodi:nodetypes="cc" />
          </g>
        </g>
        <g
           id="g1438"
           transform="matrix(1,0,0,-1,0,792)"
           style="stroke-width:2.82055">
          <g
             id="g1440"
             style="stroke-width:2.82055">
            <path
               d="m 1078.7383,534.03558 c -1.4695,-23.45252 -1.914,-47.03919 -5.7638,-70.2703"
               style="fill:none;stroke:#000000;stroke-width:3.57849;stroke-linecap:round;stroke-linejoin:round;stroke-miterlimit:10;stroke-dasharray:none;stroke-opacity:1"
               id="path1442" />
          </g>
        </g>
        <g
           id="g1444"
           transform="matrix(1,0,0,-1,0,792)"
           style="stroke-width:2.82055">
          <g
             id="g1446"
             style="stroke-width:2.82055">
            <path
               d="m 1072.9745,463.76528 c -9.2758,-2.72649 -24.6062,-8.86589 -32.8792,-1.74734"
               style="fill:none;stroke:#000000;stroke-width:3.57849;stroke-linecap:round;stroke-linejoin:round;stroke-miterlimit:10;stroke-dasharray:none;stroke-opacity:1"
               id="path1448"
               sodipodi:nodetypes="cc" />
          </g>
        </g>
        <g
           id="g1450"
           transform="matrix(1,0,0,-1,0,792)"
           style="stroke-width:2.82055">
          <g
             id="g1452"
             style="stroke-width:2.82055">
            <path
               d="m 941.59753,642.93774 c 15.26654,14.11225 29.19846,30.40766 49.19527,37.97346 14.147,6.48128 30.3808,13.3797 45.5268,13.90247"
               style="fill:none;stroke:#000000;stroke-width:1.78926;stroke-linecap:round;stroke-linejoin:round;stroke-miterlimit:10;stroke-dasharray:none;stroke-opacity:1"
               id="path1454" />
          </g>
        </g>
        <g
           id="g1456"
           transform="matrix(1,0,0,-1,0,792)"
           style="stroke-width:2.82055">
          <g
             id="g1458"
             style="stroke-width:2.82055">
            <path
               d="m 1046.3853,695.10455 c 33.6143,-2.13334 64.0987,-19.32074 90.5924,-39.03001 14.6001,-13.24307 18.859,-33.8626 27.2439,-51.06324 12.0939,-32.13506 4.8696,-69.1806 -12.7003,-97.65525 -9.6243,-13.87919 -22.1429,-24.926 -34.2348,-36.54906 -23.2276,-17.60635 -53.5319,-29.22669 -82.9246,-23.45709 l -1.3411,0.56956"
               style="fill:none;stroke:#000000;stroke-width:1.78926;stroke-linecap:round;stroke-linejoin:round;stroke-miterlimit:10;stroke-dasharray:none;stroke-opacity:1"
               id="path1460"
               sodipodi:nodetypes="ccccccc" />
          </g>
        </g>
        <g
           id="g1462"
           transform="matrix(1,0,0,-1,0,792)"
           style="stroke-width:2.82055">
          <g
             id="g1464"
             style="stroke-width:2.82055">
            <path
               d="m 1049.3159,614.45166 c 21.8834,1.32007 35.3163,-23.90447 30.0671,-43.22123 -3.0014,-10.79838 -7.2046,-21.10096 -16.8767,-28.04931"
               style="fill:none;stroke:#000000;stroke-width:1.78926;stroke-linecap:round;stroke-linejoin:round;stroke-miterlimit:10;stroke-dasharray:none;stroke-opacity:1"
               id="path1466"
               sodipodi:nodetypes="ccc" />
          </g>
        </g>
        <g
           id="g1468"
           transform="matrix(1,0,0,-1,0,792)"
           style="stroke-width:2.82055">
          <g
             id="g1470"
             style="stroke-width:2.82055">
            <path
               d="m 1061.2618,550.92285 2.4889,-15.48346"
               style="fill:none;stroke:#000000;stroke-width:1.78926;stroke-linecap:round;stroke-linejoin:round;stroke-miterlimit:10;stroke-dasharray:none;stroke-opacity:1"
               id="path1472"
               sodipodi:nodetypes="cc" />
          </g>
        </g>
        <g
           id="g1474"
           transform="matrix(1,0,0,-1,0,792)"
           style="stroke-width:2.82055">
          <g
             id="g1476"
             style="stroke-width:2.82055">
            <path
               d="m 1029.8388,547.70294 c 10.4743,1.06583 20.8725,3.02216 31.423,3.21991"
               style="fill:none;stroke:#000000;stroke-width:1.78926;stroke-linecap:round;stroke-linejoin:round;stroke-miterlimit:10;stroke-dasharray:none;stroke-opacity:1"
               id="path1478" />
          </g>
        </g>
        <g
           id="g1480"
           transform="matrix(1,0,0,-1,0,792)"
           style="stroke-width:2.82055">
          <g
             id="g1482"
             style="stroke-width:2.82055">
            <path
               d="m 1029.67,547.64697 c 0.6043,-2.16379 0.2709,-16.23064 -0.2971,-14.24164"
               style="fill:none;stroke:#000000;stroke-width:1.78926;stroke-linecap:round;stroke-linejoin:round;stroke-miterlimit:10;stroke-dasharray:none;stroke-opacity:1"
               id="path1484"
               sodipodi:nodetypes="cc" />
          </g>
        </g>
        <g
           id="g1486"
           transform="matrix(1,0,0,-1,0,792)"
           style="stroke-width:2.82055">
          <g
             id="g1488"
             style="stroke-width:2.82055">
            <path
               d="m 1029.3729,533.40533 c 11.4677,-0.41709 22.9269,1.31427 34.3778,2.03406"
               style="fill:none;stroke:#000000;stroke-width:1.78926;stroke-linecap:round;stroke-linejoin:round;stroke-miterlimit:10;stroke-dasharray:none;stroke-opacity:1"
               id="path1490" />
          </g>
        </g>
        <g
           id="g1492"
           transform="matrix(1,0,0,-1,0,792)"
           style="stroke-width:2.82055">
          <g
             id="g1494"
             style="stroke-width:2.82055">
            <path
               d="m 1025.5012,541.54376 c -5.5963,2.83077 -12.0284,6.37729 -13.6912,12.95336"
               style="fill:none;stroke:#000000;stroke-width:1.78926;stroke-linecap:round;stroke-linejoin:round;stroke-miterlimit:10;stroke-dasharray:none;stroke-opacity:1"
               id="path1496" />
          </g>
        </g>
        <g
           id="g1498"
           transform="matrix(1,0,0,-1,0,792)"
           style="stroke-width:2.82055">
          <g
             id="g1500"
             style="stroke-width:2.82055">
            <path
               d="m 1036.0947,613.20007 c -16.7286,-0.24971 -25.0285,-16.62935 -30.174,-30.15039 l -0.3736,-0.15976 -0.5191,0.34913"
               style="fill:none;stroke:#000000;stroke-width:1.78926;stroke-linecap:round;stroke-linejoin:round;stroke-miterlimit:10;stroke-dasharray:none;stroke-opacity:1"
               id="path1502" />
          </g>
        </g>
        <g
           id="g1504"
           transform="matrix(1,0,0,-1,0,792)"
           style="stroke-width:2.82055">
          <g
             id="g1506"
             style="stroke-width:2.82055">
            <path
               d="m 1026.0956,550.96765 c -12.723,9.10772 -15.8099,27.18883 -7.353,40.19591 7.7288,17.21549 31.6628,20.09443 45.1235,8.07489 16.9594,-12.0762 12.3071,-35.53638 -1.8024,-47.6853"
               style="fill:none;stroke:#000000;stroke-width:1.78926;stroke-linecap:round;stroke-linejoin:round;stroke-miterlimit:10;stroke-dasharray:none;stroke-opacity:1"
               id="path1508"
               sodipodi:nodetypes="cccc" />
          </g>
        </g>
        <g
           id="g1510"
           transform="matrix(1,0,0,-1,0,792)"
           style="stroke-width:2.82055">
          <g
             id="g1512"
             style="stroke-width:2.82055">
            <path
               d="m 1040.9721,583.44849 c -1.2307,10.31657 8.8232,8.40793 5.3495,-0.41445 8.4202,-1.17057 5.1927,-10.27714 12.88,-13.57439 -8.5933,-0.64299 -20.2745,-0.93047 -29.1553,-0.60527 8.6989,2.42379 1.1274,13.84274 10.9258,14.59411"
               style="fill:none;stroke:#000000;stroke-width:1.78926;stroke-linecap:round;stroke-linejoin:round;stroke-miterlimit:10;stroke-dasharray:none;stroke-opacity:1"
               id="path1514"
               sodipodi:nodetypes="ccccc" />
          </g>
        </g>
        <g
           id="g1516"
           transform="matrix(1,0,0,-1,0,792)"
           style="stroke-width:2.82055">
          <g
             id="g1518"
             style="stroke-width:2.82055">
            <path
               d="m 1045.0047,599.42322 c 15.0912,-1.37822 27.4107,-18.64819 17.7942,-33.22365 -8.6739,-14.58278 -32.9346,-11.36335 -38.2644,4.43906 -4.4371,10.58525 0,18.82028 8.0484,24.77751 2.4883,1.50639 9.5217,4.41499 12.4218,4.00708"
               style="fill:none;stroke:#000000;stroke-width:1.78926;stroke-linecap:round;stroke-linejoin:round;stroke-miterlimit:10;stroke-dasharray:none;stroke-opacity:1"
               id="path1520"
               sodipodi:nodetypes="ccccc" />
          </g>
        </g>
        <g
           id="g1522"
           transform="matrix(1,0,0,-1,0,792)"
           style="stroke-width:2.82055">
          <g
             id="g1524"
             style="stroke-width:2.82055">
            <path
               d="m 1041.1609,704.43054 c -0.1071,-1.13808 -0.1218,-5.4164 -0.022,-6.41748"
               style="fill:none;stroke:#000000;stroke-width:1.78926;stroke-linecap:round;stroke-linejoin:round;stroke-miterlimit:10;stroke-dasharray:none;stroke-opacity:1"
               id="path1526" />
          </g>
        </g>
        <g
           id="g1528"
           transform="matrix(1,0,0,-1,0,792)"
           style="stroke-width:2.82055">
          <g
             id="g1530"
             style="stroke-width:2.82055">
            <path
               d="m 948.7998,504.79105 c -11.34724,3.07977 -24.17572,10.97139 -11.29311,22.17472 16.86241,15.32072 39.8759,20.94972 58.95729,10.86082 -1.69073,-17.03593 -6.91647,-8.75225 -36.09971,-22.49195 -4.0367,-1.89821 -10.44503,-7.1642 -11.56447,-10.54359"
               style="fill:none;stroke:#000000;stroke-width:1.78926;stroke-linecap:round;stroke-linejoin:round;stroke-miterlimit:10;stroke-dasharray:none;stroke-opacity:1"
               id="path1532"
               sodipodi:nodetypes="ccccc" />
          </g>
        </g>
        <g
           id="g1534"
           transform="matrix(1,0,0,-1,0,792)"
           style="stroke-width:2.82055">
          <g
             id="g1536"
             style="stroke-width:2.82055">
            <path
               d="m 943.08368,487.3407 c -16.34826,8.77562 -29.50647,-2.82827 -21.68459,-20.02458 6.41888,-17.15854 22.21786,-25.43663 37.7025,-32.17349 19.39276,-8.8299 17.70118,10.97188 12.72263,22.17642 -15.29987,2.68916 -28.20727,13.92785 -28.74054,30.02165"
               style="fill:none;stroke:#000000;stroke-width:1.78926;stroke-linecap:round;stroke-linejoin:round;stroke-miterlimit:10;stroke-dasharray:none;stroke-opacity:1"
               id="path1538"
               sodipodi:nodetypes="ccccc" />
          </g>
        </g>
        <g
           id="g1540"
           transform="matrix(1,0,0,-1,0,792)"
           style="stroke-width:2.82055">
          <g
             id="g1542"
             style="stroke-width:2.82055">
            <path
               d="m 991.87823,461.51941 c -6.35488,-13.66895 9.38317,-24.93184 22.53777,-14.93513 13.6676,14.48623 20.7083,50.83559 12.7081,57.15976 -18.3208,1.47723 -15.8258,-7.58775 -19.3056,-20.98463 -1.6604,-7.74108 -10.49465,-15.9072 -15.94027,-21.24"
               style="fill:none;stroke:#000000;stroke-width:1.78926;stroke-linecap:round;stroke-linejoin:round;stroke-miterlimit:10;stroke-dasharray:none;stroke-opacity:1"
               id="path1544"
               sodipodi:nodetypes="ccccc" />
          </g>
        </g>
        <g
           id="g1546"
           transform="matrix(1,0,0,-1,0,792)"
           style="stroke-width:2.82055">
          <g
             id="g1548"
             style="stroke-width:2.82055">
            <path
               d="m 984.99969,488.47739 c 14.4933,-1.92645 4.88689,-15.57282 -4.23358,-8.79626"
               style="fill:none;stroke:#000000;stroke-width:1.78926;stroke-linecap:round;stroke-linejoin:round;stroke-miterlimit:10;stroke-dasharray:none;stroke-opacity:1"
               id="path1550" />
          </g>
        </g>
        <g
           id="g1552"
           transform="matrix(1,0,0,-1,0,792)"
           style="stroke-width:2.82055">
          <g
             id="g1554"
             style="stroke-width:2.82055">
            <path
               d="m 980.40515,478.8204 c -2.3049,-2.68325 -8.5507,-3.92566 -10.51514,-2.95873"
               style="fill:none;stroke:#000000;stroke-width:1.78926;stroke-linecap:round;stroke-linejoin:round;stroke-miterlimit:10;stroke-dasharray:none;stroke-opacity:1"
               id="path1556" />
          </g>
        </g>
        <g
           id="g1558"
           transform="matrix(1,0,0,-1,0,792)"
           style="stroke-width:2.82055">
          <g
             id="g1560"
             style="stroke-width:2.82055">
            <path
               d="m 969.67816,476.34772 c -9.37722,-9.77146 -15.02162,5.4728 -5.37864,10.00067"
               style="fill:none;stroke:#000000;stroke-width:1.78926;stroke-linecap:round;stroke-linejoin:round;stroke-miterlimit:10;stroke-dasharray:none;stroke-opacity:1"
               id="path1562" />
          </g>
        </g>
        <g
           id="g1564"
           transform="matrix(1,0,0,-1,0,792)"
           style="stroke-width:2.82055">
          <g
             id="g1566"
             style="stroke-width:2.82055">
            <path
               d="m 965.14197,485.30841 c -2.47272,2.2215 0.63991,6.38658 2.12774,8.34032"
               style="fill:none;stroke:#000000;stroke-width:1.78926;stroke-linecap:round;stroke-linejoin:round;stroke-miterlimit:10;stroke-dasharray:none;stroke-opacity:1"
               id="path1568" />
          </g>
        </g>
        <g
           id="g1570"
           transform="matrix(1,0,0,-1,0,792)"
           style="stroke-width:2.82055">
          <g
             id="g1572"
             style="stroke-width:2.82055">
            <path
               d="m 967.54718,494.45074 c -7.94797,12.24213 13.38621,18.5673 10.42017,2.52955"
               style="fill:none;stroke:#000000;stroke-width:1.78926;stroke-linecap:round;stroke-linejoin:round;stroke-miterlimit:10;stroke-dasharray:none;stroke-opacity:1"
               id="path1574" />
          </g>
        </g>
        <g
           id="g1576"
           transform="matrix(1,0,0,-1,0,792)"
           style="stroke-width:2.82055">
          <g
             id="g1578"
             style="stroke-width:2.82055">
            <path
               d="m 979.38898,496.52524 c 3.19634,-0.99637 6.01221,-4.56933 5.46525,-8.02285"
               style="fill:none;stroke:#000000;stroke-width:1.78926;stroke-linecap:round;stroke-linejoin:round;stroke-miterlimit:10;stroke-dasharray:none;stroke-opacity:1"
               id="path1580" />
          </g>
        </g>
        <g
           id="g1582"
           transform="matrix(1,0,0,-1,0,792)"
           style="stroke-width:2.82055">
          <g
             id="g1584"
             style="stroke-width:2.82055">
            <path
               d="m 972.83417,493.99017 c -15.59656,-16.50134 21.75502,-7.36056 1.30511,-0.1776 -2.44938,-0.97113 -5.1452,-1.24849 -6.65149,-3.84425"
               style="fill:none;stroke:#000000;stroke-width:1.78926;stroke-linecap:round;stroke-linejoin:round;stroke-miterlimit:10;stroke-dasharray:none;stroke-opacity:1"
               id="path1586" />
          </g>
        </g>
        <g
           id="g1588"
           transform="matrix(1,0,0,-1,0,792)"
           style="stroke-width:2.82055">
          <g
             id="g1590"
             style="stroke-width:2.82055">
            <path
               d="m 994.92554,481.686 c 0.19589,0.68928 2.67866,-0.94095 1.57428,-0.1"
               style="fill:none;stroke:#000000;stroke-width:1.78926;stroke-linecap:round;stroke-linejoin:round;stroke-miterlimit:10;stroke-dasharray:none;stroke-opacity:1"
               id="path1592" />
          </g>
        </g>
        <g
           id="g1594"
           transform="matrix(1,0,0,-1,0,792)"
           style="stroke-width:2.82055">
          <g
             id="g1596"
             style="stroke-width:2.82055">
            <path
               d="m 958.53766,472.7919 c -0.19524,-0.25288 -1.2205,-0.68206 -1.5379,-0.64377"
               style="fill:none;stroke:#000000;stroke-width:1.78926;stroke-linecap:round;stroke-linejoin:round;stroke-miterlimit:10;stroke-dasharray:none;stroke-opacity:1"
               id="path1598" />
          </g>
        </g>
        <g
           id="g1600"
           transform="matrix(1,0,0,-1,0,792)"
           style="stroke-width:2.82055">
          <g
             id="g1602"
             style="stroke-width:2.82055">
            <path
               d="m 971.97101,506.67438 c 0.19068,-2.31654 -1.85178,1.6351 -1.06343,1.38036"
               style="fill:none;stroke:#000000;stroke-width:1.78926;stroke-linecap:round;stroke-linejoin:round;stroke-miterlimit:10;stroke-dasharray:none;stroke-opacity:1"
               id="path1604" />
          </g>
        </g>
        <g
           id="g1606"
           transform="matrix(1,0,0,-1,0,792)"
           style="stroke-width:2.82055">
          <g
             id="g1608"
             style="stroke-width:2.82055">
            <path
               d="m 968.66583,482.16354 c -0.99204,0.27988 -1.59862,-1.70458 -2.80334,-1.03179"
               style="fill:none;stroke:#000000;stroke-width:1.78926;stroke-linecap:round;stroke-linejoin:round;stroke-miterlimit:10;stroke-dasharray:none;stroke-opacity:1"
               id="path1610" />
          </g>
        </g>
        <g
           id="g1612"
           transform="matrix(1,0,0,-1,0,792)"
           style="stroke-width:2.82055">
          <g
             id="g1614"
             style="stroke-width:2.82055">
            <path
               d="m 973.13086,496.31677 c -0.19674,0.51507 -0.84008,2.93546 -0.96501,3.63059"
               style="fill:none;stroke:#000000;stroke-width:1.78926;stroke-linecap:round;stroke-linejoin:round;stroke-miterlimit:10;stroke-dasharray:none;stroke-opacity:1"
               id="path1616" />
          </g>
        </g>
        <g
           id="g1618"
           transform="matrix(1,0,0,-1,0,792)"
           style="stroke-width:2.82055">
          <g
             id="g1620"
             style="stroke-width:2.82055">
            <path
               d="m 983.10339,483.78662 c 1.20059,0.60087 1.81688,-1.69051 2.89356,-0.91178"
               style="fill:none;stroke:#000000;stroke-width:1.78926;stroke-linecap:round;stroke-linejoin:round;stroke-miterlimit:10;stroke-dasharray:none;stroke-opacity:1"
               id="path1622" />
          </g>
        </g>
        <g
           id="g1624"
           transform="matrix(1,0,0,-1,0,792)"
           style="stroke-width:2.82055">
          <g
             id="g1626"
             style="stroke-width:2.82055">
            <path
               d="m 942.54169,549.73859 v -0.004"
               style="fill:none;stroke:#000000;stroke-width:1.78926;stroke-linecap:round;stroke-linejoin:round;stroke-miterlimit:10;stroke-dasharray:none;stroke-opacity:1"
               id="path1628" />
          </g>
        </g>
        <g
           id="g1630"
           transform="matrix(1,0,0,-1,0,792)"
           style="stroke-width:2.82055">
          <g
             id="g1632"
             style="stroke-width:2.82055">
            <path
               d="m 905.17903,570.36364 c -13.66492,-7.1694 10.52467,-23.96068 11.60196,-6.17724 -0.68461,4.61971 -7.60051,11.02213 -11.60196,6.17724"
               style="fill:none;stroke:#000000;stroke-width:1.78926;stroke-linecap:round;stroke-linejoin:round;stroke-miterlimit:10;stroke-dasharray:none;stroke-opacity:1"
               id="path1634"
               sodipodi:nodetypes="ccc" />
          </g>
        </g>
        <g
           id="g1636"
           transform="matrix(1,0,0,-1,0,792)"
           style="stroke-width:2.82055">
          <g
             id="g1638"
             style="stroke-width:2.82055">
            <path
               d="m 886.03174,555.66809 c -12.73863,-6.75178 11.13202,-17.16556 6.55208,-1.34637 -2.19355,2.69354 -8.06855,2.44629 -9.51956,-0.93732"
               style="fill:none;stroke:#000000;stroke-width:1.78926;stroke-linecap:round;stroke-linejoin:round;stroke-miterlimit:10;stroke-dasharray:none;stroke-opacity:1"
               id="path1640" />
          </g>
        </g>
        <g
           id="g1642"
           transform="matrix(1,0,0,-1,0,792)"
           style="stroke-width:2.82055">
          <g
             id="g1644"
             style="stroke-width:2.82055">
            <path
               d="m 877.13809,532.08511 c -2.4631,-6.38113 9.79315,-22.02076 13.087,-5.57642 -0.2595,6.20387 -9.34183,13.94096 -13.087,5.57642"
               style="fill:none;stroke:#000000;stroke-width:1.78926;stroke-linecap:round;stroke-linejoin:round;stroke-miterlimit:10;stroke-dasharray:none;stroke-opacity:1"
               id="path1646"
               sodipodi:nodetypes="ccc" />
          </g>
        </g>
        <g
           id="g1648"
           transform="matrix(1,0,0,-1,0,792)"
           style="stroke-width:2.82055">
          <g
             id="g1650"
             style="stroke-width:2.82055">
            <path
               d="m 874.67499,525.70398 c -4.74324,-1.49011 0.5149,-6.00793 3.30382,-3.54569"
               style="fill:none;stroke:#000000;stroke-width:1.78926;stroke-linecap:round;stroke-linejoin:round;stroke-miterlimit:10;stroke-dasharray:none;stroke-opacity:1"
               id="path1652" />
          </g>
        </g>
        <g
           id="g1654"
           transform="matrix(1,0,0,-1,0,792)"
           style="stroke-width:2.82055">
          <g
             id="g1656"
             style="stroke-width:2.82055" />
        </g>
        <g
           id="g1660"
           transform="matrix(1,0,0,-1,0,792)"
           style="stroke-width:2.82055">
          <g
             id="g1662"
             style="stroke-width:2.82055">
            <path
               d="m 926.92334,532.92175 c -7.58996,2.76934 -8.10154,-1.78884 -7.21505,-6.32314"
               style="fill:none;stroke:#000000;stroke-width:1.78926;stroke-linecap:round;stroke-linejoin:round;stroke-miterlimit:10;stroke-dasharray:none;stroke-opacity:1"
               id="path1664"
               sodipodi:nodetypes="cc" />
          </g>
        </g>
        <g
           id="g1666"
           transform="matrix(1,0,0,-1,0,792)"
           style="stroke-width:2.82055">
          <g
             id="g1668"
             style="stroke-width:2.82055">
            <path
               d="m 903.7161,547.01155 c 12.71198,3.62167 20.60159,-26.54144 -0.48336,-16.3684 -5.93198,3.7921 -5.87343,13.22383 0.48336,16.3684"
               style="fill:none;stroke:#000000;stroke-width:1.78926;stroke-linecap:round;stroke-linejoin:round;stroke-miterlimit:10;stroke-dasharray:none;stroke-opacity:1"
               id="path1670"
               sodipodi:nodetypes="ccc" />
          </g>
        </g>
        <g
           id="g1672"
           transform="matrix(1,0,0,-1,0,792)"
           style="stroke-width:2.82055">
          <g
             id="g1674"
             style="stroke-width:2.82055">
            <path
               d="m 840.60278,601.14709 c 15.48398,-6.50297 30.55512,-14.69077 44.77937,-23.3255 l 0.29176,0.23738"
               style="fill:none;stroke:#000000;stroke-width:1.78926;stroke-linecap:round;stroke-linejoin:round;stroke-miterlimit:10;stroke-dasharray:none;stroke-opacity:1"
               id="path1676" />
          </g>
        </g>
        <g
           id="g1678"
           transform="matrix(1,0,0,-1,0,792)"
           style="stroke-width:2.82055">
          <g
             id="g1680"
             style="stroke-width:2.82055">
            <path
               d="m 827.15454,583.45123 c 11.92722,-11.32862 25.11276,-24.09821 36.40305,-34.11506 l -0.19221,0.68027"
               style="fill:none;stroke:#000000;stroke-width:1.78926;stroke-linecap:round;stroke-linejoin:round;stroke-miterlimit:10;stroke-dasharray:none;stroke-opacity:1"
               id="path1682" />
          </g>
        </g>
        <g
           id="g1684"
           transform="matrix(1,0,0,-1,0,792)"
           style="stroke-width:2.82055">
          <g
             id="g1686"
             style="stroke-width:2.82055">
            <path
               d="m 866.58118,550.2005 c 0.72803,10.28519 13.10881,25.81893 21.74252,22.62242"
               style="fill:none;stroke:#000000;stroke-width:1.78926;stroke-linecap:round;stroke-linejoin:round;stroke-miterlimit:10;stroke-dasharray:none;stroke-opacity:1"
               id="path1688" />
          </g>
        </g>
        <g
           id="g1690"
           transform="matrix(1,0,0,-1,0,792)"
           style="stroke-width:2.82055">
          <g
             id="g1692"
             style="stroke-width:2.82055">
            <path
               d="m 938.44159,574.06146 c 16.86728,5.06425 33.59994,11.6553 50.85127,14.73072"
               style="fill:none;stroke:#000000;stroke-width:1.78926;stroke-linecap:round;stroke-linejoin:round;stroke-miterlimit:10;stroke-dasharray:none;stroke-opacity:1"
               id="path1694" />
          </g>
        </g>
        <g
           id="g1696"
           transform="matrix(1,0,0,-1,0,792)"
           style="stroke-width:2.82055">
          <g
             id="g1698"
             style="stroke-width:2.82055">
            <path
               d="m 936.40759,570.63965 c 5.18979,-4.43532 10.85591,-11.3477 11.64892,-17.63899"
               style="fill:none;stroke:#000000;stroke-width:1.78926;stroke-linecap:round;stroke-linejoin:round;stroke-miterlimit:10;stroke-dasharray:none;stroke-opacity:1"
               id="path1700" />
          </g>
        </g>
        <g
           id="g1702"
           transform="matrix(1,0,0,-1,0,792)"
           style="stroke-width:2.82055">
          <g
             id="g1704"
             style="stroke-width:2.82055">
            <path
               d="m 978.92932,554.46838 c 5.66846,5.06743 14.68667,7.7511 19.6218,12.17779"
               style="fill:none;stroke:#000000;stroke-width:1.78926;stroke-linecap:round;stroke-linejoin:round;stroke-miterlimit:10;stroke-dasharray:none;stroke-opacity:1"
               id="path1706" />
          </g>
        </g>
        <g
           id="g1708"
           transform="matrix(1,0,0,-1,0,792)"
           style="stroke-width:2.82055">
          <g
             id="g1710"
             style="stroke-width:2.82055">
            <path
               d="m 883.76398,501.49588 c 4.97058,-5.64907 14.70165,-5.48598 20.2901,-6.53861"
               style="fill:none;stroke:#000000;stroke-width:1.78926;stroke-linecap:round;stroke-linejoin:round;stroke-miterlimit:10;stroke-dasharray:none;stroke-opacity:1"
               id="path1712" />
          </g>
        </g>
        <g
           id="g1714"
           transform="matrix(1,0,0,-1,0,792)"
           style="stroke-width:2.82055">
          <g
             id="g1716"
             style="stroke-width:2.82055">
            <path
               d="m 883.76398,501.49588 c 1.76842,-16.79733 0.83077,-45.14996 5.58606,-59.3316"
               style="fill:none;stroke:#000000;stroke-width:1.78926;stroke-linecap:round;stroke-linejoin:round;stroke-miterlimit:10;stroke-dasharray:none;stroke-opacity:1"
               id="path1718"
               sodipodi:nodetypes="cc" />
          </g>
        </g>
        <g
           id="g1720"
           transform="matrix(1,0,0,-1,0,792)"
           style="stroke-width:2.82055">
          <g
             id="g1722"
             style="stroke-width:2.82055">
            <path
               d="m 912.79832,460.00669 c 0.49705,-4.86337 -3.6185,-15.1239 -3.0481,-19.23788"
               style="fill:none;stroke:#000000;stroke-width:1.78926;stroke-linecap:round;stroke-linejoin:round;stroke-miterlimit:10;stroke-dasharray:none;stroke-opacity:1"
               id="path1724"
               sodipodi:nodetypes="cc" />
          </g>
        </g>
        <g
           id="g1726"
           transform="matrix(1,0,0,-1,0,792)"
           style="stroke-width:2.82055">
          <g
             id="g1728"
             style="stroke-width:2.82055">
            <path
               d="m 889.35004,442.16428 c 4.14355,-3.1822 18.7652,-4.3641 20.40018,-1.39547"
               style="fill:none;stroke:#000000;stroke-width:1.78926;stroke-linecap:round;stroke-linejoin:round;stroke-miterlimit:10;stroke-dasharray:none;stroke-opacity:1"
               id="path1730"
               sodipodi:nodetypes="cc" />
          </g>
        </g>
        <g
           id="g1732"
           transform="matrix(1,0,0,-1,0,792)"
           style="stroke-width:2.82055">
          <g
             id="g1734"
             style="stroke-width:2.82055">
            <path
               d="m 874.43501,485.6003 c -21.31439,13.41852 -37.3977,35.72602 -28.32961,61.07811 -6.39725,5.42762 -16.36536,17.5074 -21.09279,-0.22412 -0.0536,-17.66182 3.64364,-35.53171 10.25975,-51.60878 8.0963,-15.19701 22.55808,-26.05095 37.16936,-33.94427 -1.43181,8.13748 -0.54072,18.04641 1.99329,24.69906"
               style="fill:none;stroke:#000000;stroke-width:1.78926;stroke-linecap:round;stroke-linejoin:round;stroke-miterlimit:10;stroke-dasharray:none;stroke-opacity:1"
               id="path1736"
               sodipodi:nodetypes="cccccc" />
          </g>
        </g>
        <g
           id="g1738"
           transform="matrix(1,0,0,-1,0,792)"
           style="stroke-width:2.82055">
          <g
             id="g1740"
             style="stroke-width:2.82055">
            <path
               d="m 877.77563,594.27728 c -13.39234,1.89292 -20.314,15.19825 -3.4564,18.0798 24.43781,10.13664 53.28156,11.24379 77.66559,0.61701 7.9949,-4.55454 27.4546,-16.60071 8.32918,-20.68428 -17.40309,-9.76061 -34.30657,16.61986 -54.95599,11.62301 -10.01932,0.3006 -21.4997,-2.99796 -28.46668,-9.33902"
               style="fill:none;stroke:#000000;stroke-width:1.78926;stroke-linecap:round;stroke-linejoin:round;stroke-miterlimit:10;stroke-dasharray:none;stroke-opacity:1"
               id="path1742" />
          </g>
        </g>
      </g>
    </g>
  </g>
</svg>
