<?xml version="1.0" encoding="UTF-8" standalone="no"?>
<!-- Created by Ashley Blewer - This work is licensed under a Creative Commons Attribution 4.0 International License -->

<svg
   width="544"
   height="480"
   viewBox="0 0 143.93334 127"
   version="1.1"
   id="svg2490"
   inkscape:version="1.2.2 (1:1.2.2+202212051552+b0a8486541)"
   sodipodi:docname="1936-tefifon-3.svg"
   xmlns:inkscape="http://www.inkscape.org/namespaces/inkscape"
   xmlns:sodipodi="http://sodipodi.sourceforge.net/DTD/sodipodi-0.dtd"
   xmlns="http://www.w3.org/2000/svg"
   xmlns:svg="http://www.w3.org/2000/svg">
  <sodipodi:namedview
     id="namedview2492"
     pagecolor="#ffffff"
     bordercolor="#666666"
     borderopacity="1.0"
     inkscape:pageshadow="2"
     inkscape:pageopacity="0.0"
     inkscape:pagecheckerboard="0"
     inkscape:document-units="mm"
     showgrid="false"
     units="px"
     inkscape:zoom="0.90583674"
     inkscape:cx="53.541657"
     inkscape:cy="253.35691"
     inkscape:window-width="1846"
     inkscape:window-height="1136"
     inkscape:window-x="0"
     inkscape:window-y="0"
     inkscape:window-maximized="1"
     inkscape:current-layer="g4731"
     inkscape:showpageshadow="2"
     inkscape:deskcolor="#d1d1d1" />
  <defs
     id="defs2487" />
  <g
     inkscape:label="Layer 1"
     inkscape:groupmode="layer"
     id="layer1">
    <g
       id="g4731"
       transform="matrix(0.32961229,0,0,0.32903008,-241.78905,1.73126)"
       style="stroke-width:2.68698">
      <g
         id="g104528"
         transform="matrix(1,0,0,-1,0,792)"
         style="stroke-width:2.68698">
        <g
           id="g104530"
           style="stroke-width:2.68698" />
      </g>
      <g
         id="g104996"
         transform="matrix(1,0,0,-1,0,792)"
         style="stroke-width:2.68698">
        <g
           id="g104998"
           style="stroke-width:2.68698" />
      </g>
      <g
         id="g3349"
         transform="matrix(0.75783483,0,0,0.75917577,255.51772,-291.28409)">
        <g
           id="g1456"
           transform="matrix(1,0,0,-1,0,792)">
          <g
             id="g1458">
            <path
               d="m 683.77032,209.81502 c 14.80492,8.40217 26.06676,21.62284 45.25377,20.83556 35.27352,-1.08572 70.51573,-3.98514 105.82652,-3.50533 7.99428,-0.75738 25.07152,0.31923 23.76383,-4.32286"
               style="fill:none;stroke:#000000;stroke-width:2.61538;stroke-linecap:round;stroke-linejoin:round;stroke-miterlimit:10;stroke-dasharray:none;stroke-opacity:1"
               id="path1460"
               sodipodi:nodetypes="cccc" />
          </g>
        </g>
        <g
           id="g1462"
           transform="matrix(1,0,0,-1,0,792)">
          <g
             id="g1464">
            <path
               d="m 858.61444,222.82239 c -2.08556,-2.47867 -14.28041,-1.42513 -20.18248,-2.6853 -48.41077,-7.73122 -102.05402,5.92358 -149.19993,-8.57172"
               style="fill:none;stroke:#000000;stroke-width:2.61538;stroke-linecap:round;stroke-linejoin:round;stroke-miterlimit:10;stroke-dasharray:none;stroke-opacity:1"
               id="path1466"
               sodipodi:nodetypes="ccc" />
          </g>
        </g>
        <g
           id="g1468"
           transform="matrix(1,0,0,-1,0,792)">
          <g
             id="g1470">
            <path
               d="m 689.23203,211.56537 c -11.17797,-2.83034 -21.28638,-15.36301 -23.88379,-28.67462 -3.81004,-14.1387 -3.08106,-29.6626 -3.0824,-44.86429 0.64537,-18.64804 2.34674,-37.3438 9.94873,-55.501179 5.04709,-15.533232 14.47451,-29.285612 29.23146,-37.645 10.59387,-6.284762 37.47986,-3.625045 37.47986,-3.625045 35.46908,0.463733 75.81852,-2.484558 113.23162,-0.08253 8.27695,-0.06794 12.74574,5.83338 14.73285,12.449977 0.0805,2.415597 0.33495,8.602372 0.92507,8.591645"
               style="fill:none;stroke:#000000;stroke-width:2.61538;stroke-linecap:round;stroke-linejoin:round;stroke-miterlimit:10;stroke-dasharray:none;stroke-opacity:1"
               id="path1472"
               sodipodi:nodetypes="ccccccccc" />
          </g>
        </g>
        <g
           id="g1474"
           transform="matrix(1,0,0,-1,0,792)">
          <g
             id="g1476">
            <path
               d="m 858.53314,220.34416 c 2.54806,-6.46153 -0.36258,-18.56311 2.07112,-21.69278 l -0.1701,-0.0853 -0.23395,0.0856"
               style="fill:none;stroke:#000000;stroke-width:2.61538;stroke-linecap:round;stroke-linejoin:round;stroke-miterlimit:10;stroke-dasharray:none;stroke-opacity:1"
               id="path1478" />
          </g>
        </g>
        <g
           id="g1480"
           transform="matrix(1,0,0,-1,0,792)">
          <g
             id="g1482">
            <path
               d="m 861.42499,203.3699 c 4.44081,-1.13429 11.56752,-0.79481 15.68414,-3.0699"
               style="fill:none;stroke:#000000;stroke-width:2.61538;stroke-linecap:round;stroke-linejoin:round;stroke-miterlimit:10;stroke-dasharray:none;stroke-opacity:1"
               id="path1484"
               sodipodi:nodetypes="cc" />
          </g>
        </g>
        <g
           id="g1486"
           transform="matrix(1,0,0,-1,0,792)">
          <g
             id="g1488">
            <path
               d="m 877.10913,200.3 c 0.009,-1.19476 -0.21674,-10.36178 0.97875,-14.56063 0.49816,-18.23529 -1.11781,-36.80103 -0.37539,-55.51016 1.22387,-17.95505 0.47317,-35.463796 1.39631,-53.037321 -1.08099,-6.792042 0.89773,-13.207743 -5.68828,-14.051575 -3.94226,-1.291179 -8.14838,-0.791141 -12.27332,-1.369866"
               style="fill:none;stroke:#000000;stroke-width:2.61538;stroke-linecap:round;stroke-linejoin:round;stroke-miterlimit:10;stroke-dasharray:none;stroke-opacity:1"
               id="path1490" />
          </g>
        </g>
        <g
           id="g1492"
           transform="matrix(1,0,0,-1,0,792)">
          <g
             id="g1494">
            <path
               d="m 869.26706,201.83495 c -0.14374,-1.33204 0.005,-5.35737 -0.53968,-6.195"
               style="fill:none;stroke:#000000;stroke-width:2.61538;stroke-linecap:round;stroke-linejoin:round;stroke-miterlimit:10;stroke-dasharray:none;stroke-opacity:1"
               id="path1496"
               sodipodi:nodetypes="cc" />
          </g>
        </g>
        <g
           id="g1498"
           transform="matrix(1,0,0,-1,0,792)">
          <g
             id="g1500">
            <path
               d="m 876.04492,197.80176 c -12.62978,-21.36421 -41.6261,-7.00309 -61.5845,-9.87505 -33.13176,2.0073 -64.43089,0.97909 -97.57147,-1.13927 -25.97884,-14.28963 -19.36203,-46.26043 -19.85306,-70.08716 -0.0876,-36.975166 39.68438,-48.658605 67.01929,-47.800497 19.88414,-0.858108 63.24681,0.543999 94.91345,-0.331821 8.12272,0.91558 16.42755,0.594458 20.14017,8.623927"
               style="fill:none;stroke:#000000;stroke-width:2.61538;stroke-linecap:round;stroke-linejoin:round;stroke-miterlimit:10;stroke-dasharray:none;stroke-opacity:1"
               id="path1502"
               sodipodi:nodetypes="ccccccc" />
          </g>
        </g>
        <g
           id="g1504"
           transform="matrix(1,0,0,-1,0,792)">
          <g
             id="g1506">
            <path
               d="m 778.25542,162.61611 c 14.50285,-3.63456 22.35965,-14.63882 25.95374,-28.18022 2.83999,-8.10943 3.23383,-15.7768 -0.675,-23.01711 -4.40024,-11.26813 -11.93682,-20.484402 -22.75568,-23.930125 -19.60476,-2.684751 -38.68084,5.473567 -48.11411,22.978335 -7.52785,12.33099 -8.42542,30.21606 1.13023,41.76174 8.40046,7.46408 21.15036,12.57746 33.75843,12.81035 4.11287,0.0493 7.19027,-1.24275 10.70239,-2.42297"
               style="fill:none;stroke:#000000;stroke-width:2.61538;stroke-linecap:round;stroke-linejoin:round;stroke-miterlimit:10;stroke-dasharray:none;stroke-opacity:1"
               id="path1508"
               sodipodi:nodetypes="cccccccc" />
          </g>
        </g>
        <g
           id="g1510"
           transform="matrix(1,0,0,-1,0,792)">
          <g
             id="g1512">
            <path
               d="m 791.50201,128.76355 c -3.26493,12.28111 -13.11933,23.32209 -28.57353,20.37008 -11.13147,-2.831 -20.07337,-11.5801 -17.79267,-22.97193 1.3086,-9.56009 7.49325,-19.744 20.43374,-21.00647 14.31145,-4.55168 30.2524,5.65083 28.14388,18.24492 0.5484,2.94768 -1.89196,9.67005 -3.36111,11.66683"
               style="fill:none;stroke:#000000;stroke-width:2.61538;stroke-linecap:round;stroke-linejoin:round;stroke-miterlimit:10;stroke-dasharray:none;stroke-opacity:1"
               id="path1514" />
          </g>
        </g>
        <g
           id="g1516"
           transform="matrix(1,0,0,-1,0,792)">
          <g
             id="g1518">
            <path
               d="m 949.70392,117.73976 c 12.2407,10.01294 36.58374,4.13189 36.47389,-12.11011 3.18834,-16.929107 -17.00911,-31.723052 -33.8076,-22.893664 -10.0945,5.409545 -12.58797,20.520094 -9.2853,26.765974 3.27757,4.60713 3.40424,4.55821 6.61901,8.2378"
               style="fill:none;stroke:#000000;stroke-width:2.61538;stroke-linecap:round;stroke-linejoin:round;stroke-miterlimit:10;stroke-dasharray:none;stroke-opacity:1"
               id="path1520"
               sodipodi:nodetypes="ccccc" />
          </g>
        </g>
        <g
           id="g1522"
           transform="matrix(1,0,0,-1,0,792)">
          <g
             id="g1524">
            <path
               d="m 792.67865,127.0089 c 3.9103,-1.71646 9.89091,-1.33647 1.03478,-3.60875"
               style="fill:none;stroke:#000000;stroke-width:2.61538;stroke-linecap:round;stroke-linejoin:round;stroke-miterlimit:10;stroke-dasharray:none;stroke-opacity:1"
               id="path1526"
               sodipodi:nodetypes="cc" />
          </g>
        </g>
        <g
           id="g1528"
           transform="matrix(1,0,0,-1,0,792)">
          <g
             id="g1530">
            <path
               d="m 989.27466,103.08257 c -0.20128,1.11028 6.21618,-2.03142 -0.41547,-2.39448"
               style="fill:none;stroke:#000000;stroke-width:2.61538;stroke-linecap:round;stroke-linejoin:round;stroke-miterlimit:10;stroke-dasharray:none;stroke-opacity:1"
               id="path1532" />
          </g>
        </g>
        <g
           id="g1534"
           transform="matrix(1,0,0,-1,0,792)">
          <g
             id="g1536">
            <path
               d="m 1143.1652,94.037682 c 2.7625,-0.344892 6.278,-1.214638 0.9521,-2.78539"
               style="fill:none;stroke:#000000;stroke-width:2.61538;stroke-linecap:round;stroke-linejoin:round;stroke-miterlimit:10;stroke-dasharray:none;stroke-opacity:1"
               id="path1538" />
          </g>
        </g>
        <g
           id="g1540"
           transform="matrix(1,0,0,-1,0,792)">
          <g
             id="g1542">
            <path
               d="m 1143.1652,94.037682 c -0.3563,16.973138 -25.9232,28.295578 -37.2145,15.195698 -9.626,-6.19101 -12.2736,-21.348271 -6.5531,-30.205434 8.5519,-15.519923 31.4995,-9.757243 40.0779,2.351047 3.3662,3.345018 4.0641,5.89057 4.6418,9.873299"
               style="fill:none;stroke:#000000;stroke-width:2.61538;stroke-linecap:round;stroke-linejoin:round;stroke-miterlimit:10;stroke-dasharray:none;stroke-opacity:1"
               id="path1544"
               sodipodi:nodetypes="ccccc" />
          </g>
        </g>
        <g
           id="g1546"
           transform="matrix(1,0,0,-1,0,792)">
          <g
             id="g1548">
            <path
               d="m 1029.6011,155.04622 c 0.8948,2.10827 -0.4397,10.07455 -3.8862,13.36761 -6.737,3.1464 -91.7099,5.52392 -100.04656,1.87987 -13.58749,-5.83358 -16.05226,-17.34151 -22.49762,-28.73106 -3.40036,-8.63345 -7.59506,-19.20443 -7.59506,-23.26196 0,0 -1.1482,-8.06291 -0.10502,-7.08916"
               style="fill:none;stroke:#000000;stroke-width:2.61538;stroke-linecap:round;stroke-linejoin:round;stroke-miterlimit:10;stroke-dasharray:none;stroke-opacity:1"
               id="path1550"
               sodipodi:nodetypes="cccccc" />
          </g>
        </g>
        <g
           id="g1552"
           transform="matrix(1,0,0,-1,0,792)">
          <g
             id="g1554">
            <path
               d="m 895.47064,111.21152 c 6.49161,-4.46967 5.93529,-13.881474 1.41271,-18.228456"
               style="fill:none;stroke:#000000;stroke-width:2.61538;stroke-linecap:round;stroke-linejoin:round;stroke-miterlimit:10;stroke-dasharray:none;stroke-opacity:1"
               id="path1556" />
          </g>
        </g>
        <g
           id="g1558"
           transform="matrix(1,0,0,-1,0,792)">
          <g
             id="g1560">
            <path
               d="m 896.88335,92.983064 c 0.3787,-9.802174 1.97357,-27.947051 11.25419,-34.105144 11.39184,-11.166542 43.65326,-15.609781 43.65326,-15.609781 0,0 30.65153,-0.292057 45.96539,-0.23378 0,0 27.78261,1.03789 28.60051,11.358425 0.5485,1.859179 -0.1247,6.858426 0.2697,6.855405"
               style="fill:none;stroke:#000000;stroke-width:2.61538;stroke-linecap:round;stroke-linejoin:round;stroke-miterlimit:10;stroke-dasharray:none;stroke-opacity:1"
               id="path1562"
               sodipodi:nodetypes="cccccc" />
          </g>
        </g>
        <g
           id="g1564"
           transform="matrix(1,0,0,-1,0,792)">
          <g
             id="g1566">
            <path
               d="m 1029.6011,155.04622 c 15.6495,-1.13816 13.8407,-14.70485 14.1763,-21.97138 -0.3198,-12.94297 -1.2568,-27.35707 -0.9985,-40.792667 -0.4677,-19.977542 -0.7517,-19.977542 -3.281,-24.9088 -2.4537,-4.360236 -11.0774,-4.424307 -13.4797,-4.230515"
               style="fill:none;stroke:#000000;stroke-width:2.61538;stroke-linecap:round;stroke-linejoin:round;stroke-miterlimit:10;stroke-dasharray:none;stroke-opacity:1"
               id="path1568"
               sodipodi:nodetypes="ccccc" />
          </g>
        </g>
        <g
           id="g1570"
           transform="matrix(1,0,0,-1,0,792)">
          <g
             id="g1572">
            <path
               d="m 1026.7279,150.49867 c -21.9219,0.90036 -65.86025,-2.13788 -65.86025,-2.13788 -12.49687,-0.32314 -24.15867,-3.20898 -33.17142,-10.73676 -7.94834,-13.14472 -9.57762,-25.71713 -9.15939,-40.234958 -0.0653,-11.965958 2.25314,-24.420423 12.26013,-31.273437 11.50643,-7.249809 44.39923,-2.743873 44.39923,-2.743873 l 54.9839,-0.08137"
               style="fill:none;stroke:#000000;stroke-width:2.61538;stroke-linecap:round;stroke-linejoin:round;stroke-miterlimit:10;stroke-dasharray:none;stroke-opacity:1"
               id="path1574"
               sodipodi:nodetypes="ccccccc" />
          </g>
        </g>
        <g
           id="g1576"
           transform="matrix(1,0,0,-1,0,792)">
          <g
             id="g1578">
            <path
               d="m 1174.9505,122.92324 c 0.8789,6.58748 2.172,22.86865 -6.9625,26.64898 -3.4796,2.44949 -12.3678,5.94707 -12.3678,5.94707"
               style="fill:none;stroke:#000000;stroke-width:2.61538;stroke-linecap:round;stroke-linejoin:round;stroke-miterlimit:10;stroke-dasharray:none;stroke-opacity:1"
               id="path1580"
               sodipodi:nodetypes="ccc" />
          </g>
        </g>
        <g
           id="g1582"
           transform="matrix(1,0,0,-1,0,792)">
          <g
             id="g1584">
            <path
               d="m 1155.6202,155.51929 c -26.3713,-1.31132 -56.4348,4.26961 -79.4325,-11.57838 -30.2763,-24.81868 -20.7616,-79.814683 14.4878,-94.764746 25.8597,-6.433525 53.0703,0.82655 79.4823,-0.874715"
               style="fill:none;stroke:#000000;stroke-width:2.61538;stroke-linecap:round;stroke-linejoin:round;stroke-miterlimit:10;stroke-dasharray:none;stroke-opacity:1"
               id="path1586" />
          </g>
        </g>
        <g
           id="g1588"
           transform="matrix(1,0,0,-1,0,792)">
          <g
             id="g1590">
            <path
               d="m 1169.8151,48.113525 c 3.3891,1.81671 5.8251,44.531462 5.715,65.210545 0.4277,9.99556 -1.2965,22.52072 -4.0646,31.07666"
               style="fill:none;stroke:#000000;stroke-width:2.61538;stroke-linecap:round;stroke-linejoin:round;stroke-miterlimit:10;stroke-dasharray:none;stroke-opacity:1"
               id="path1592"
               sodipodi:nodetypes="ccc" />
          </g>
        </g>
        <g
           id="g1594"
           transform="matrix(1,0,0,-1,0,792)">
          <g
             id="g1596">
            <path
               d="m 1171.4655,144.40073 c -22.1826,0.32694 -52.458,0.2908 -73.8231,-8.22876 -8.3454,-3.63332 -14.5998,-6.72691 -20.8701,-15.3735 -7.5066,-12.62296 -11.4267,-27.24151 -7.8617,-41.958772 1.4783,-7.88827 5.7861,-20.01858 12.9364,-24.742743"
               style="fill:none;stroke:#000000;stroke-width:2.61538;stroke-linecap:round;stroke-linejoin:round;stroke-miterlimit:10;stroke-dasharray:none;stroke-opacity:1"
               id="path1598"
               sodipodi:nodetypes="ccccc" />
          </g>
        </g>
        <g
           id="g1600"
           transform="matrix(1,0,0,-1,0,792)">
          <g
             id="g1602">
            <path
               d="m 842.37592,211.43607 c -30.38919,4.33288 -60.8961,-0.9281 -91.5087,0.20106 -23.03579,-0.21287 -52.13662,1.21829 -67.1066,-18.92002 -7.66352,-12.20795 -9.96396,-27.6789 -12.29079,-42.17368 0.45187,-14.67138 2.54558,-28.96462 3.89444,-43.76727 2.96985,-13.131286 7.74999,-26.60546 15.19732,-36.842056 5.94229,-10.130825 14.87318,-18.522028 27.98268,-19.152723 21.04752,-2.111413 86.0537,-4.144302 131.94424,0.853786 -1.38306,-0.123197 3.25679,0.377947 3.23541,0.678748"
               style="fill:none;stroke:#000000;stroke-width:1.30769;stroke-linecap:round;stroke-linejoin:round;stroke-miterlimit:10;stroke-dasharray:none;stroke-opacity:1"
               id="path1604"
               sodipodi:nodetypes="ccccccccc" />
          </g>
        </g>
        <g
           id="g1606"
           transform="matrix(1,0,0,-1,0,792)">
          <g
             id="g1608">
            <path
               d="m 839.89264,205.06789 c -25.94709,-1.39463 -54.55942,-1.11225 -81.49555,0.17644 -24.84399,-0.56674 -36.26834,3.263 -52.18252,-6.23032 -20.2625,-11.49695 -22.58692,-37.04022 -24.95295,-57.80263 1.82284,-19.80048 2.76502,-39.05529 10.53462,-56.857597 5.09344,-17.100052 23.27615,-30.397127 42.64784,-29.509429 38.11593,-2.00978 79.7644,-0.19957 122.80067,1.185237"
               style="fill:none;stroke:#000000;stroke-width:1.30769;stroke-linecap:round;stroke-linejoin:round;stroke-miterlimit:10;stroke-dasharray:none;stroke-opacity:1"
               id="path1610"
               sodipodi:nodetypes="ccccccc" />
          </g>
        </g>
        <g
           id="g1612"
           transform="matrix(1,0,0,-1,0,792)">
          <g
             id="g1614">
            <path
               d="m 839.61487,196.11127 c -34.63228,3.22489 -69.46598,-1.19202 -104.16367,1.43125 -18.45492,0.68113 -34.81834,-13.97766 -38.83807,-31.30134 -9.72892,-20.65318 -8.06082,-43.52635 -2.6752,-64.56966 5.58336,-11.40628 8.8224,-23.702289 19.44823,-31.915462 17.73617,-11.410924 40.52429,-6.527154 60.6609,-8.505927 28.32347,-2.228248 58.756,-2.730776 87.10014,0.520317"
               style="fill:none;stroke:#000000;stroke-width:1.30769;stroke-linecap:round;stroke-linejoin:round;stroke-miterlimit:10;stroke-dasharray:none;stroke-opacity:1"
               id="path1616"
               sodipodi:nodetypes="ccccccc" />
          </g>
        </g>
        <g
           id="g1618"
           transform="matrix(1,0,0,-1,0,792)">
          <g
             id="g1620">
            <path
               d="m 1014.075,158.06718 c -27.00462,-2.42213 -56.54784,4.63842 -81.4016,-8.90536 -14.83639,-11.24641 -20.68672,-31.02081 -22.26707,-48.42054 1.58346,-14.044505 -0.94925,-29.236163 15.16422,-39.071301 23.45127,-9.196947 46.88205,-5.259226 70.06146,-5.224449 6.78209,0.259991 13.52069,1.176281 20.31239,0.384455"
               style="fill:none;stroke:#000000;stroke-width:1.30769;stroke-linecap:round;stroke-linejoin:round;stroke-miterlimit:10;stroke-dasharray:none;stroke-opacity:1"
               id="path1622"
               sodipodi:nodetypes="cccccc" />
          </g>
        </g>
        <g
           id="g1624"
           transform="matrix(1,0,0,-1,0,792)">
          <g
             id="g1626">
            <path
               d="m 1006.9477,164.10123 c -21.90581,2.07825 -55.1718,-0.70837 -65.8263,-1.75924 -21.64789,-4.52817 -28.76085,-28.09114 -33.76425,-46.81901 -3.12435,-14.24805 -1.67276,-29.872545 2.09993,-44.017863 7.83658,-21.177457 33.79185,-23.321151 53.40223,-23.25527 16.94717,-0.829292 33.75263,3.277943 50.70459,2.944554"
               style="fill:none;stroke:#000000;stroke-width:1.30769;stroke-linecap:round;stroke-linejoin:round;stroke-miterlimit:10;stroke-dasharray:none;stroke-opacity:1"
               id="path1628"
               sodipodi:nodetypes="cccccc" />
          </g>
        </g>
        <g
           id="g1630"
           transform="matrix(1,0,0,-1,0,792)">
          <g
             id="g1632">
            <path
               d="m 1167.1012,131.14676 c -21.7475,1.29464 -45.0602,1.79992 -65.5455,-6.56851 -14.7653,-9.42958 -21.9978,-28.620031 -20.0363,-45.686946 5.3149,-14.653831 17.1105,-23.973454 38.0032,-23.973454 14.7978,0 28.1473,1.253098 39.9682,1.619208"
               style="fill:none;stroke:#000000;stroke-width:1.30769;stroke-linecap:round;stroke-linejoin:round;stroke-miterlimit:10;stroke-dasharray:none;stroke-opacity:1"
               id="path1634"
               sodipodi:nodetypes="ccccc" />
          </g>
        </g>
        <g
           id="g1636"
           transform="matrix(1,0,0,-1,0,792)">
          <g
             id="g1638">
            <path
               d="m 1163.4569,135.46516 c -24.8579,6.95689 -54.7512,3.52331 -74.6807,-13.76592 -8.2276,-9.22302 -15.2574,-34.798216 -7.5463,-51.134894 14.3617,-22.737179 42.9219,-21.024058 69.9388,-18.994025 2.8368,-0.06229 5.7174,0.522343 8.5331,0.06537"
               style="fill:none;stroke:#000000;stroke-width:1.30769;stroke-linecap:round;stroke-linejoin:round;stroke-miterlimit:10;stroke-dasharray:none;stroke-opacity:1"
               id="path1640"
               sodipodi:nodetypes="ccccc" />
          </g>
        </g>
        <g
           id="g1642"
           transform="matrix(1,0,0,-1,0,792)">
          <g
             id="g1644">
            <path
               d="m 1165.2952,124.979 c -14.7596,0.0724 -29.079,-2.65216 -43.9082,-3.0487 -14.104,-3.29037 -32.1678,-10.80952 -34.2224,-24.14889 -1.5617,-15.741713 5.0912,-35.592031 22.8564,-38.035217 18.591,-4.710123 39.0613,-0.06621 57.9845,0.26438"
               style="fill:none;stroke:#000000;stroke-width:1.30769;stroke-linecap:round;stroke-linejoin:round;stroke-miterlimit:10;stroke-dasharray:none;stroke-opacity:1"
               id="path1646"
               sodipodi:nodetypes="ccccc" />
          </g>
        </g>
        <g
           id="g1648"
           transform="matrix(1,0,0,-1,0,792)">
          <g
             id="g1650">
            <path
               d="m 1147.4609,61.032654 c 4.146,17.30492 3.9563,37.25474 4.0848,55.780446 0.8726,2.77083 -0.2857,2.25741 1.3104,3.26245"
               style="fill:none;stroke:#000000;stroke-width:1.30769;stroke-linecap:round;stroke-linejoin:round;stroke-miterlimit:10;stroke-dasharray:none;stroke-opacity:1"
               id="path1652" />
          </g>
        </g>
        <g
           id="g1654"
           transform="matrix(1,0,0,-1,0,792)">
          <g
             id="g1656">
            <path
               d="m 1163.199,60.854107 c 0.6814,22.579916 2.445,45.732103 1.4443,67.937103"
               style="fill:none;stroke:#000000;stroke-width:1.30769;stroke-linecap:round;stroke-linejoin:round;stroke-miterlimit:10;stroke-dasharray:none;stroke-opacity:1"
               id="path1658" />
          </g>
        </g>
        <g
           id="g1660"
           transform="matrix(1,0,0,-1,0,792)">
          <g
             id="g1662">
            <path
               d="m 1035.4565,134.61704 c -27.1572,2.815 -62.01313,4.0079 -88.34218,-2.0918 -13.14321,-4.61819 -20.03822,-17.90713 -17.26855,-31.33988 0.54313,-10.518977 -0.1387,-27.375354 14.3208,-29.938284 21.79372,-2.892787 43.97892,0.08335 65.92793,-0.209766 6.8958,0.05811 20.9801,0.255518 23.4552,0.21703 l 1.9068,63.3627"
               style="fill:none;stroke:#000000;stroke-width:1.30769;stroke-linecap:round;stroke-linejoin:round;stroke-miterlimit:10;stroke-dasharray:none;stroke-opacity:1"
               id="path1664"
               sodipodi:nodetypes="ccccccc" />
          </g>
        </g>
        <g
           id="g1666"
           transform="matrix(1,0,0,-1,0,792)">
          <g
             id="g1668">
            <path
               d="m 1022.0517,135.80896 c 1.7376,-19.26512 -1.0983,-45.926959 0.7804,-64.634098"
               style="fill:none;stroke:#000000;stroke-width:1.30769;stroke-linecap:round;stroke-linejoin:round;stroke-miterlimit:10;stroke-dasharray:none;stroke-opacity:1"
               id="path1670"
               sodipodi:nodetypes="cc" />
          </g>
        </g>
        <g
           id="g1672"
           transform="matrix(1,0,0,-1,0,792)">
          <g
             id="g1674">
            <path
               d="m 1034.1344,142.87042 c -30.9196,-1.12187 -62.82224,1.0727 -92.895,-7.62243 -5.75451,-2.07838 -9.60196,-7.07443 -12.89619,-11.6709"
               style="fill:none;stroke:#000000;stroke-width:1.30769;stroke-linecap:round;stroke-linejoin:round;stroke-miterlimit:10;stroke-dasharray:none;stroke-opacity:1"
               id="path1676" />
          </g>
        </g>
        <g
           id="g1678"
           transform="matrix(1,0,0,-1,0,792)">
          <g
             id="g1680">
            <path
               d="m 1029.8431,126.07865 c -0.1662,0.28339 0.2359,-3.53363 0.1196,-3.04146"
               style="fill:none;stroke:#000000;stroke-width:1.30769;stroke-linecap:round;stroke-linejoin:round;stroke-miterlimit:10;stroke-dasharray:none;stroke-opacity:1"
               id="path1682" />
          </g>
        </g>
        <g
           id="g1684"
           transform="matrix(1,0,0,-1,0,792)">
          <g
             id="g1686">
            <path
               d="m 1028.9099,124.95577 c 1.4911,1.01951 -2.5324,-1.35426 -2.7403,-0.12417"
               style="fill:none;stroke:#000000;stroke-width:1.30769;stroke-linecap:round;stroke-linejoin:round;stroke-miterlimit:10;stroke-dasharray:none;stroke-opacity:1"
               id="path1688" />
          </g>
        </g>
        <g
           id="g1690"
           transform="matrix(1,0,0,-1,0,792)">
          <g
             id="g1692">
            <path
               d="m 1030.9982,106.06918 c 1.3451,5.44446 -6.9578,5.77496 -5.6397,1.31172 l 0.4691,0.12875"
               style="fill:none;stroke:#000000;stroke-width:1.30769;stroke-linecap:round;stroke-linejoin:round;stroke-miterlimit:10;stroke-dasharray:none;stroke-opacity:1"
               id="path1694" />
          </g>
        </g>
        <g
           id="g1696"
           transform="matrix(1,0,0,-1,0,792)">
          <g
             id="g1698">
            <path
               d="m 1028.1682,108.87923 c -3.2947,-1.53794 1.4605,-1.19548 -0.028,-1.60104"
               style="fill:none;stroke:#000000;stroke-width:1.30769;stroke-linecap:round;stroke-linejoin:round;stroke-miterlimit:10;stroke-dasharray:none;stroke-opacity:1"
               id="path1700" />
          </g>
        </g>
        <g
           id="g1702"
           transform="matrix(1,0,0,-1,0,792)">
          <g
             id="g1704">
            <path
               d="m 1024.1544,95.343857 c 5.6068,1.692298 7.6556,0.396959 6.6773,-2.712512"
               style="fill:none;stroke:#000000;stroke-width:1.30769;stroke-linecap:round;stroke-linejoin:round;stroke-miterlimit:10;stroke-dasharray:none;stroke-opacity:1"
               id="path1706" />
          </g>
        </g>
        <g
           id="g1708"
           transform="matrix(1,0,0,-1,0,792)">
          <g
             id="g1710">
            <path
               d="m 1028.671,93.871101 c -0.4201,0.0296 -0.056,-1.965077 -0.4349,-1.579541"
               style="fill:none;stroke:#000000;stroke-width:1.30769;stroke-linecap:round;stroke-linejoin:round;stroke-miterlimit:10;stroke-dasharray:none;stroke-opacity:1"
               id="path1712" />
          </g>
        </g>
        <g
           id="g1714"
           transform="matrix(1,0,0,-1,0,792)">
          <g
             id="g1716">
            <path
               d="m 1024.2533,79.709648 c 1.7577,0.08216 3.5153,0.164317 5.273,0.246475"
               style="fill:none;stroke:#000000;stroke-width:1.30769;stroke-linecap:round;stroke-linejoin:round;stroke-miterlimit:10;stroke-dasharray:none;stroke-opacity:1"
               id="path1718" />
          </g>
        </g>
        <g
           id="g1720"
           transform="matrix(1,0,0,-1,0,792)">
          <g
             id="g1722">
            <path
               d="m 1172.5192,116.78142 c -0.2771,2.48909 1.2151,-5.22168 0.1866,-5.54947"
               style="fill:none;stroke:#000000;stroke-width:1.30769;stroke-linecap:round;stroke-linejoin:round;stroke-miterlimit:10;stroke-dasharray:none;stroke-opacity:1"
               id="path1724" />
          </g>
        </g>
        <g
           id="g1726"
           transform="matrix(1,0,0,-1,0,792)">
          <g
             id="g1728">
            <path
               d="m 1172.1,114.03833 c -1.2066,-0.99174 -2.4784,-1.03297 -3.9317,-0.79576"
               style="fill:none;stroke:#000000;stroke-width:1.30769;stroke-linecap:round;stroke-linejoin:round;stroke-miterlimit:10;stroke-dasharray:none;stroke-opacity:1"
               id="path1730" />
          </g>
        </g>
        <g
           id="g1732"
           transform="matrix(1,0,0,-1,0,792)">
          <g
             id="g1734">
            <path
               d="m 1171.7452,97.104973 c 3.6829,6.350747 -6.5946,6.346517 -3.6571,0.305214"
               style="fill:none;stroke:#000000;stroke-width:1.30769;stroke-linecap:round;stroke-linejoin:round;stroke-miterlimit:10;stroke-dasharray:none;stroke-opacity:1"
               id="path1736" />
          </g>
        </g>
        <g
           id="g1738"
           transform="matrix(1,0,0,-1,0,792)">
          <g
             id="g1740">
            <path
               d="m 1170.1327,99.566635 c 0.033,-0.482323 0.3065,-1.796506 0.4103,-1.971275"
               style="fill:none;stroke:#000000;stroke-width:1.30769;stroke-linecap:round;stroke-linejoin:round;stroke-miterlimit:10;stroke-dasharray:none;stroke-opacity:1"
               id="path1742" />
          </g>
        </g>
        <g
           id="g1744"
           transform="matrix(1,0,0,-1,0,792)">
          <g
             id="g1746">
            <path
               d="m 1166.1014,86.816719 c 0.8568,-1.689855 8.0658,2.323853 4.8827,-4.754511"
               style="fill:none;stroke:#000000;stroke-width:1.30769;stroke-linecap:round;stroke-linejoin:round;stroke-miterlimit:10;stroke-dasharray:none;stroke-opacity:1"
               id="path1748" />
          </g>
        </g>
        <g
           id="g1750"
           transform="matrix(1,0,0,-1,0,792)">
          <g
             id="g1752">
            <path
               d="m 1168.3912,84.405022 c -0.1648,0.599559 -0.9395,-1.462097 -0.2445,-1.71148"
               style="fill:none;stroke:#000000;stroke-width:1.30769;stroke-linecap:round;stroke-linejoin:round;stroke-miterlimit:10;stroke-dasharray:none;stroke-opacity:1"
               id="path1754" />
          </g>
        </g>
        <g
           id="g1756"
           transform="matrix(1,0,0,-1,0,792)">
          <g
             id="g1758">
            <path
               d="m 1165.3668,71.880898 c -1.0478,-0.38851 3.8638,-0.144727 4.0819,0.241993"
               style="fill:none;stroke:#000000;stroke-width:1.30769;stroke-linecap:round;stroke-linejoin:round;stroke-miterlimit:10;stroke-dasharray:none;stroke-opacity:1"
               id="path1760" />
          </g>
        </g>
        <g
           id="g1762"
           transform="matrix(1,0,0,-1,0,792)">
          <g
             id="g1764">
            <path
               d="m 860.1173,185.50476 c 0.39832,-39.19466 6.34818,-79.77131 2.41648,-116.584024"
               style="fill:none;stroke:#000000;stroke-width:1.30769;stroke-linecap:round;stroke-linejoin:round;stroke-miterlimit:10;stroke-dasharray:none;stroke-opacity:1"
               id="path1766"
               sodipodi:nodetypes="cc" />
          </g>
        </g>
        <g
           id="g1768"
           transform="matrix(1,0,0,-1,0,792)">
          <g
             id="g1770">
            <path
               d="m 839.02191,186.15861 c 3.78426,-38.97849 3.69148,-78.29686 4.89682,-117.46309"
               style="fill:none;stroke:#000000;stroke-width:1.30769;stroke-linecap:round;stroke-linejoin:round;stroke-miterlimit:10;stroke-dasharray:none;stroke-opacity:1"
               id="path1772"
               sodipodi:nodetypes="cc" />
          </g>
        </g>
        <g
           id="g1774"
           transform="matrix(1,0,0,-1,0,792)">
          <g
             id="g1776">
            <path
               d="m 739.98218,113.75682 c -5.69427,11.24125 -7.53678,28.65856 5.69109,35.60249 16.30938,10.92467 43.85005,5.18938 50.67467,-13.45005 -1.36659,0.0551 1.57236,0.21127 -0.66101,-0.39785"
               style="fill:none;stroke:#000000;stroke-width:1.30769;stroke-linecap:round;stroke-linejoin:round;stroke-miterlimit:10;stroke-dasharray:none;stroke-opacity:1"
               id="path1778" />
          </g>
        </g>
        <g
           id="g1780"
           transform="matrix(1,0,0,-1,0,792)">
          <g
             id="g1782">
            <path
               d="m 797.12921,112.86569 c -1.56577,-8.83517 -11.04112,-18.637165 -22.27219,-17.754679 -11.75218,0.386135 -26.33571,6.208359 -31.98735,13.535569 -0.74299,1.05666 -1.92062,3.47713 -1.00739,2.45649"
               style="fill:none;stroke:#000000;stroke-width:1.30769;stroke-linecap:round;stroke-linejoin:round;stroke-miterlimit:10;stroke-dasharray:none;stroke-opacity:1"
               id="path1784" />
          </g>
        </g>
        <g
           id="g1786"
           transform="matrix(1,0,0,-1,0,792)">
          <g
             id="g1788">
            <path
               d="m 934.67305,100.77648 c -0.84767,6.49422 0.61291,12.3377 4.91624,18.4751 11.74535,16.19497 44.45444,9.06398 49.43445,-9.18575"
               style="fill:none;stroke:#000000;stroke-width:1.30769;stroke-linecap:round;stroke-linejoin:round;stroke-miterlimit:10;stroke-dasharray:none;stroke-opacity:1"
               id="path1790"
               sodipodi:nodetypes="ccc" />
          </g>
        </g>
        <g
           id="g1792"
           transform="matrix(1,0,0,-1,0,792)">
          <g
             id="g1794">
            <path
               d="M 990.80707,94.854111 C 986.62615,79.204752 961.72019,68.331077 946.82044,80.110014 939.51995,84.303919 934.35518,93.24816 934.67305,100.77648"
               style="fill:none;stroke:#000000;stroke-width:1.30769;stroke-linecap:round;stroke-linejoin:round;stroke-miterlimit:10;stroke-dasharray:none;stroke-opacity:1"
               id="path1796" />
          </g>
        </g>
        <g
           id="g1798"
           transform="matrix(1,0,0,-1,0,792)">
          <g
             id="g1800">
            <path
               d="m 852.85712,168.57191 c 0.3943,2.12777 1.07976,-6.33042 0.6278,-6.32248"
               style="fill:none;stroke:#000000;stroke-width:1.30769;stroke-linecap:round;stroke-linejoin:round;stroke-miterlimit:10;stroke-dasharray:none;stroke-opacity:1"
               id="path1802" />
          </g>
        </g>
        <g
           id="g1804"
           transform="matrix(1,0,0,-1,0,792)">
          <g
             id="g1806">
            <path
               d="m 852.79248,164.64448 c -2.57152,-0.0465 -5.19012,-0.58977 -7.80096,-0.59777"
               style="fill:none;stroke:#000000;stroke-width:1.30769;stroke-linecap:round;stroke-linejoin:round;stroke-miterlimit:10;stroke-dasharray:none;stroke-opacity:1"
               id="path1808" />
          </g>
        </g>
        <g
           id="g1810"
           transform="matrix(1,0,0,-1,0,792)">
          <g
             id="g1812">
            <path
               d="m 857.11414,133.02026 c -0.78481,1.63786 -2.04855,6.37642 -2.01534,6.66726"
               style="fill:none;stroke:#000000;stroke-width:1.30769;stroke-linecap:round;stroke-linejoin:round;stroke-miterlimit:10;stroke-dasharray:none;stroke-opacity:1"
               id="path1814" />
          </g>
        </g>
        <g
           id="g1816"
           transform="matrix(1,0,0,-1,0,792)">
          <g
             id="g1818">
            <path
               d="m 855.52759,139.76692 c -1.94815,0.48228 -6.9994,-1.11133 -9.10254,-0.63278"
               style="fill:none;stroke:#000000;stroke-width:1.30769;stroke-linecap:round;stroke-linejoin:round;stroke-miterlimit:10;stroke-dasharray:none;stroke-opacity:1"
               id="path1820" />
          </g>
        </g>
        <g
           id="g1822"
           transform="matrix(1,0,0,-1,0,792)">
          <g
             id="g1824">
            <path
               d="m 846.98767,137.95113 c -0.83222,2.53313 -0.74179,-5.00344 -0.19433,-3.96962"
               style="fill:none;stroke:#000000;stroke-width:1.30769;stroke-linecap:round;stroke-linejoin:round;stroke-miterlimit:10;stroke-dasharray:none;stroke-opacity:1"
               id="path1826" />
          </g>
        </g>
        <g
           id="g1828"
           transform="matrix(1,0,0,-1,0,792)">
          <g
             id="g1830">
            <path
               d="m 850.40656,137.799 c 0.37729,-1.01806 0.46882,-3.80391 0.61944,-4.09213"
               style="fill:none;stroke:#000000;stroke-width:1.30769;stroke-linecap:round;stroke-linejoin:round;stroke-miterlimit:10;stroke-dasharray:none;stroke-opacity:1"
               id="path1832" />
          </g>
        </g>
        <g
           id="g1834"
           transform="matrix(1,0,0,-1,0,792)">
          <g
             id="g1836">
            <path
               d="m 847.41504,111.21088 c 0.65365,0.1876 7.47688,2.36339 9.36765,0.39863"
               style="fill:none;stroke:#000000;stroke-width:1.30769;stroke-linecap:round;stroke-linejoin:round;stroke-miterlimit:10;stroke-dasharray:none;stroke-opacity:1"
               id="path1838" />
          </g>
        </g>
        <g
           id="g1840"
           transform="matrix(1,0,0,-1,0,792)">
          <g
             id="g1842">
            <path
               d="m 856.5014,111.22508 c -0.47189,-1.14174 0.31,-4.67856 0.0248,-5.00798"
               style="fill:none;stroke:#000000;stroke-width:1.30769;stroke-linecap:round;stroke-linejoin:round;stroke-miterlimit:10;stroke-dasharray:none;stroke-opacity:1"
               id="path1844" />
          </g>
        </g>
        <g
           id="g1846"
           transform="matrix(1,0,0,-1,0,792)">
          <g
             id="g1848">
            <path
               d="m 852.01868,109.59582 c 0.033,-1.28748 -0.47862,-2.19565 0.0831,-3.24389"
               style="fill:none;stroke:#000000;stroke-width:1.30769;stroke-linecap:round;stroke-linejoin:round;stroke-miterlimit:10;stroke-dasharray:none;stroke-opacity:1"
               id="path1850" />
          </g>
        </g>
        <g
           id="g1852"
           transform="matrix(1,0,0,-1,0,792)">
          <g
             id="g1854">
            <path
               d="m 848.08417,85.4245 c 3.39458,0.360131 10.75922,0.485771 11.781,-0.373294"
               style="fill:none;stroke:#000000;stroke-width:1.30769;stroke-linecap:round;stroke-linejoin:round;stroke-miterlimit:10;stroke-dasharray:none;stroke-opacity:1"
               id="path1856" />
          </g>
        </g>
      </g>
    </g>
  </g>
</svg>
