<?xml version="1.0" encoding="UTF-8" standalone="no"?>
<!-- Created by Ashley Blewer - This work is licensed under a Creative Commons Attribution 4.0 International License -->

<svg
   width="544"
   height="480"
   viewBox="0 0 143.93334 127"
   version="1.1"
   id="svg2490"
   inkscape:version="1.2.2 (1:1.2.2+202212051552+b0a8486541)"
   sodipodi:docname="1936-tefifon-2.svg"
   xmlns:inkscape="http://www.inkscape.org/namespaces/inkscape"
   xmlns:sodipodi="http://sodipodi.sourceforge.net/DTD/sodipodi-0.dtd"
   xmlns="http://www.w3.org/2000/svg"
   xmlns:svg="http://www.w3.org/2000/svg">
  <sodipodi:namedview
     id="namedview2492"
     pagecolor="#ffffff"
     bordercolor="#666666"
     borderopacity="1.0"
     inkscape:pageshadow="2"
     inkscape:pageopacity="0.0"
     inkscape:pagecheckerboard="0"
     inkscape:document-units="mm"
     showgrid="false"
     units="px"
     inkscape:zoom="0.90583674"
     inkscape:cx="53.541657"
     inkscape:cy="253.35691"
     inkscape:window-width="1846"
     inkscape:window-height="1136"
     inkscape:window-x="0"
     inkscape:window-y="0"
     inkscape:window-maximized="1"
     inkscape:current-layer="g4731"
     inkscape:showpageshadow="2"
     inkscape:deskcolor="#d1d1d1" />
  <defs
     id="defs2487" />
  <g
     inkscape:label="Layer 1"
     inkscape:groupmode="layer"
     id="layer1">
    <g
       id="g4731"
       transform="matrix(0.32961229,0,0,0.32903008,-241.78905,1.73126)"
       style="stroke-width:2.68698">
      <g
         id="g104528"
         transform="matrix(1,0,0,-1,0,792)"
         style="stroke-width:2.68698">
        <g
           id="g104530"
           style="stroke-width:2.68698" />
      </g>
      <g
         id="g104996"
         transform="matrix(1,0,0,-1,0,792)"
         style="stroke-width:2.68698">
        <g
           id="g104998"
           style="stroke-width:2.68698" />
      </g>
      <g
         id="g3146"
         transform="matrix(0.73479378,0,0,0.73609395,270.94376,-94.341857)">
        <g
           id="g808"
           transform="matrix(1,0,0,-1,0,792)">
          <g
             id="g810">
            <path
               d="m 680.57713,512.2692 c 19.26404,7.68183 38.07457,7.68097 58.46102,6.54373"
               style="fill:none;stroke:#000000;stroke-width:2.61538;stroke-linecap:round;stroke-linejoin:round;stroke-miterlimit:10;stroke-dasharray:none;stroke-opacity:1"
               id="path812"
               sodipodi:nodetypes="cc" />
          </g>
        </g>
        <g
           id="g814"
           transform="matrix(1,0,0,-1,0,792)">
          <g
             id="g816">
            <path
               d="m 739.03815,518.81293 c 25.11511,-8.72694 62.61175,-12.66581 68.48114,-44.21187 11.53375,-50.12942 16.12874,-102.04176 14.24637,-153.42261 -3.79846,-11.63241 -2.31612,-24.96061 -9.42381,-35.45383"
               style="fill:none;stroke:#000000;stroke-width:2.61538;stroke-linecap:round;stroke-linejoin:round;stroke-miterlimit:10;stroke-dasharray:none;stroke-opacity:1"
               id="path818" />
          </g>
        </g>
        <g
           id="g820"
           transform="matrix(1,0,0,-1,0,792)">
          <g
             id="g822">
            <path
               d="m 812.34185,285.72462 c -23.79176,-11.91449 -49.70214,-17.92814 -76.02268,-19.97129 l -3.50079,-1.02877"
               style="fill:none;stroke:#000000;stroke-width:2.61538;stroke-linecap:round;stroke-linejoin:round;stroke-miterlimit:10;stroke-dasharray:none;stroke-opacity:1"
               id="path824"
               sodipodi:nodetypes="ccc" />
          </g>
        </g>
        <g
           id="g826"
           transform="matrix(1,0,0,-1,0,792)">
          <g
             id="g828">
            <path
               d="m 729.64557,266.09235 c -17.084,17.19685 -40.44049,38.60046 -41.06589,63.24339 l 0.0742,2.45162"
               style="fill:none;stroke:#000000;stroke-width:2.61538;stroke-linecap:round;stroke-linejoin:round;stroke-miterlimit:10;stroke-dasharray:none;stroke-opacity:1"
               id="path830"
               sodipodi:nodetypes="ccc" />
          </g>
        </g>
        <g
           id="g832"
           transform="matrix(1,0,0,-1,0,792)">
          <g
             id="g834">
            <path
               d="m 688.65391,331.78736 c -2.57351,4.98503 -11.04994,13.10163 -5.64189,18.5397"
               style="fill:none;stroke:#000000;stroke-width:2.61538;stroke-linecap:round;stroke-linejoin:round;stroke-miterlimit:10;stroke-dasharray:none;stroke-opacity:1"
               id="path836"
               sodipodi:nodetypes="cc" />
          </g>
        </g>
        <g
           id="g838"
           transform="matrix(1,0,0,-1,0,792)">
          <g
             id="g840">
            <path
               d="m 683.01202,350.32706 c -6.73053,45.50085 -4.43432,91.6755 -8.14851,137.41096"
               style="fill:none;stroke:#000000;stroke-width:2.61538;stroke-linecap:round;stroke-linejoin:round;stroke-miterlimit:10;stroke-dasharray:none;stroke-opacity:1"
               id="path842" />
          </g>
        </g>
        <g
           id="g844"
           transform="matrix(1,0,0,-1,0,792)">
          <g
             id="g846">
            <path
               d="m 674.59479,487.48318 c 0.88293,2.32822 4.33498,4.77865 2.90252,7.75037"
               style="fill:none;stroke:#000000;stroke-width:2.61538;stroke-linecap:round;stroke-linejoin:round;stroke-miterlimit:10;stroke-dasharray:none;stroke-opacity:1"
               id="path848"
               sodipodi:nodetypes="cc" />
          </g>
        </g>
        <g
           id="g850"
           transform="matrix(1,0,0,-1,0,792)">
          <g
             id="g852">
            <path
               d="m 677.49731,495.23355 c 0.13236,5.68609 -0.96859,12.32524 3.07982,17.03565"
               style="fill:none;stroke:#000000;stroke-width:2.61538;stroke-linecap:round;stroke-linejoin:round;stroke-miterlimit:10;stroke-dasharray:none;stroke-opacity:1"
               id="path854" />
          </g>
        </g>
        <g
           id="g856"
           transform="matrix(1,0,0,-1,0,792)">
          <g
             id="g858">
            <path
               d="m 676.07831,474.9812 c 30.15811,-3.87483 40.37318,-28.10745 43.2248,-58.03536 4.81268,-33.1652 8.62936,-66.88887 6.55356,-100.34881 -11.51807,-23.74835 -32.79265,27.0597 -43.87548,31.72406"
               style="fill:none;stroke:#000000;stroke-width:2.61538;stroke-linecap:round;stroke-linejoin:round;stroke-miterlimit:10;stroke-dasharray:none;stroke-opacity:1"
               id="path860"
               sodipodi:nodetypes="cccc" />
          </g>
        </g>
        <g
           id="g862"
           transform="matrix(1,0,0,-1,0,792)">
          <g
             id="g864">
            <path
               d="m 680.57713,512.2692 c 15.0661,-6.24505 27.34902,-13.63278 42.78667,-18.96156"
               style="fill:none;stroke:#000000;stroke-width:2.61538;stroke-linecap:round;stroke-linejoin:round;stroke-miterlimit:10;stroke-dasharray:none;stroke-opacity:1"
               id="path866"
               sodipodi:nodetypes="cc" />
          </g>
        </g>
        <g
           id="g868"
           transform="matrix(1,0,0,-1,0,792)">
          <g
             id="g870">
            <path
               d="m 729.37433,494.61533 c 16.75499,2.13339 33.43085,4.98376 50.28778,6.24011"
               style="fill:none;stroke:#000000;stroke-width:2.61538;stroke-linecap:round;stroke-linejoin:round;stroke-miterlimit:10;stroke-dasharray:none;stroke-opacity:1"
               id="path872" />
          </g>
        </g>
        <g
           id="g874"
           transform="matrix(1,0,0,-1,0,792)">
          <g
             id="g876">
            <path
               d="m 723.3638,493.30764 c 13.66482,-26.21982 8.13591,-57.13468 13.05323,-85.43072 2.40812,-45.30557 4.28299,-90.82111 2.15248,-136.13562 -1.18343,-3.28986 -3.96778,-8.02003 -8.33952,-6.70844"
               style="fill:none;stroke:#000000;stroke-width:2.61538;stroke-linecap:round;stroke-linejoin:round;stroke-miterlimit:10;stroke-dasharray:none;stroke-opacity:1"
               id="path878"
               sodipodi:nodetypes="ccccc" />
          </g>
        </g>
        <g
           id="g880"
           transform="matrix(1,0,0,-1,0,792)">
          <g
             id="g882">
            <path
               d="m 764.33075,454.21057 c 11.68001,4.24617 24.35713,3.43378 36.5089,2.45032"
               style="fill:none;stroke:#000000;stroke-width:2.61538;stroke-linecap:round;stroke-linejoin:round;stroke-miterlimit:10;stroke-dasharray:none;stroke-opacity:1"
               id="path884" />
          </g>
        </g>
        <g
           id="g886"
           transform="matrix(1,0,0,-1,0,792)">
          <g
             id="g888">
            <path
               d="m 800.83965,456.66089 c 11.06371,-39.06175 10.46866,-80.46767 13.18134,-120.72618 -0.85906,-15.81517 1.31626,-33.46709 -5.86322,-48.01122"
               style="fill:none;stroke:#000000;stroke-width:2.61538;stroke-linecap:round;stroke-linejoin:round;stroke-miterlimit:10;stroke-dasharray:none;stroke-opacity:1"
               id="path890"
               sodipodi:nodetypes="ccccc" />
          </g>
        </g>
        <g
           id="g892"
           transform="matrix(1,0,0,-1,0,792)">
          <g
             id="g894">
            <path
               d="m 806.94885,286.44904 c -19.47147,-11.36887 -44.59924,-4.42574 -33.50095,21.08821 3.92069,47.61331 1.20051,95.76778 -9.22889,142.36636 l 0.11174,4.30696"
               style="fill:none;stroke:#000000;stroke-width:2.61538;stroke-linecap:round;stroke-linejoin:round;stroke-miterlimit:10;stroke-dasharray:none;stroke-opacity:1"
               id="path896"
               sodipodi:nodetypes="cccccc" />
          </g>
        </g>
        <g
           id="g898"
           transform="matrix(1,0,0,-1,0,792)">
          <g
             id="g900">
            <path
               d="m 776.3894,302.71429 c 8.16711,1.49545 16.34906,2.91974 24.56855,4.09928"
               style="fill:none;stroke:#000000;stroke-width:2.61538;stroke-linecap:round;stroke-linejoin:round;stroke-miterlimit:10;stroke-dasharray:none;stroke-opacity:1"
               id="path902"
               sodipodi:nodetypes="cc" />
          </g>
        </g>
        <g
           id="g904"
           transform="matrix(1,0,0,-1,0,792)">
          <g
             id="g906">
            <path
               d="m 797.43188,448.24738 c 7.04041,-27.00465 5.48161,-55.4615 9.11181,-83.03895 0.7987,-19.43804 -0.30978,-39.1985 -5.93183,-57.92611"
               style="fill:none;stroke:#000000;stroke-width:2.61538;stroke-linecap:round;stroke-linejoin:round;stroke-miterlimit:10;stroke-dasharray:none;stroke-opacity:1"
               id="path908" />
          </g>
        </g>
        <g
           id="g910"
           transform="matrix(1,0,0,-1,0,792)">
          <g
             id="g912">
            <path
               d="m 797.43188,448.24738 c -10.15349,-0.0336 -20.67501,0.83189 -30.38031,-2.82148"
               style="fill:none;stroke:#000000;stroke-width:2.61538;stroke-linecap:round;stroke-linejoin:round;stroke-miterlimit:10;stroke-dasharray:none;stroke-opacity:1"
               id="path914"
               sodipodi:nodetypes="cc" />
          </g>
        </g>
        <g
           id="g916"
           transform="matrix(1,0,0,-1,0,792)">
          <g
             id="g918">
            <path
               d="m 871.0296,425.53659 c -2.99477,32.18061 43.49178,21.71678 62.72425,24.49856"
               style="fill:none;stroke:#000000;stroke-width:2.61538;stroke-linecap:round;stroke-linejoin:round;stroke-miterlimit:10;stroke-dasharray:none;stroke-opacity:1"
               id="path920"
               sodipodi:nodetypes="cccc" />
          </g>
        </g>
        <g
           id="g922"
           transform="matrix(1,0,0,-1,0,792)">
          <g
             id="g924">
            <path
               d="m 933.75385,450.03513 c 27.37033,-10.3344 66.97295,-12.57429 75.93575,-46.48119 12.0888,-35.93833 10.2176,-75.38486 2.3734,-111.95152 -1.7166,-4.81901 -4.3803,-9.7762 -9.1337,-12.24168"
               style="fill:none;stroke:#000000;stroke-width:2.61538;stroke-linecap:round;stroke-linejoin:round;stroke-miterlimit:10;stroke-dasharray:none;stroke-opacity:1"
               id="path926"
               sodipodi:nodetypes="cccc" />
          </g>
        </g>
        <g
           id="g928"
           transform="matrix(1,0,0,-1,0,792)">
          <g
             id="g930">
            <path
               d="M 1008.0921,282.88879 C 987.2395,268.50335 960.93457,267.16035 936.52979,265.3071"
               style="fill:none;stroke:#000000;stroke-width:2.61538;stroke-linecap:round;stroke-linejoin:round;stroke-miterlimit:10;stroke-dasharray:none;stroke-opacity:1"
               id="path932"
               sodipodi:nodetypes="cc" />
          </g>
        </g>
        <g
           id="g934"
           transform="matrix(1,0,0,-1,0,792)">
          <g
             id="g936">
            <path
               d="m 936.52979,265.3071 c -26.80096,-4.2579 -42.51965,24.67345 -62.12807,37.83383 -2.76467,3.76127 -3.25685,8.58945 -2.39399,13.00433"
               style="fill:none;stroke:#000000;stroke-width:2.61538;stroke-linecap:round;stroke-linejoin:round;stroke-miterlimit:10;stroke-dasharray:none;stroke-opacity:1"
               id="path938" />
          </g>
        </g>
        <g
           id="g940"
           transform="matrix(1,0,0,-1,0,792)">
          <g
             id="g942">
            <path
               d="m 870.93286,318.38831 c -7.76536,2.23893 -8.66579,11.99705 -4.71424,17.80377"
               style="fill:none;stroke:#000000;stroke-width:2.61538;stroke-linecap:round;stroke-linejoin:round;stroke-miterlimit:10;stroke-dasharray:none;stroke-opacity:1"
               id="path944" />
          </g>
        </g>
        <g
           id="g946"
           transform="matrix(1,0,0,-1,0,792)">
          <g
             id="g948">
            <path
               d="m 867.59064,336.6134 c 0.15625,23.35655 -1.64016,46.70835 -0.54382,70.06084"
               style="fill:none;stroke:#000000;stroke-width:2.61538;stroke-linecap:round;stroke-linejoin:round;stroke-miterlimit:10;stroke-dasharray:none;stroke-opacity:1"
               id="path950" />
          </g>
        </g>
        <g
           id="g952"
           transform="matrix(1,0,0,-1,0,792)">
          <g
             id="g954">
            <path
               d="m 866.68445,406.83337 c -7.70964,1.51768 -5.15649,13.32302 1.22471,14.99834"
               style="fill:none;stroke:#000000;stroke-width:2.61538;stroke-linecap:round;stroke-linejoin:round;stroke-miterlimit:10;stroke-dasharray:none;stroke-opacity:1"
               id="path956" />
          </g>
        </g>
        <g
           id="g958"
           transform="matrix(1,0,0,-1,0,792)">
          <g
             id="g960">
            <path
               d="m 869.99756,422.92743 c 0.96929,6.71301 -1.28914,16.77127 6.4826,20.23444"
               style="fill:none;stroke:#000000;stroke-width:2.61538;stroke-linecap:round;stroke-linejoin:round;stroke-miterlimit:10;stroke-dasharray:none;stroke-opacity:1"
               id="path962" />
          </g>
        </g>
        <g
           id="g964"
           transform="matrix(1,0,0,-1,0,792)">
          <g
             id="g966">
            <path
               d="m 864.93433,406.83728 c 19.75332,-13.97761 55.0386,-14.11128 57.81966,-44.56507 9.03146,-22.52278 2.54003,-77.4673 -29.37503,-44.08006 -7.7249,7.48932 -18.41094,10.00274 -25.87963,17.74125"
               style="fill:none;stroke:#000000;stroke-width:2.61538;stroke-linecap:round;stroke-linejoin:round;stroke-miterlimit:10;stroke-dasharray:none;stroke-opacity:1"
               id="path968" />
          </g>
        </g>
        <g
           id="g970"
           transform="matrix(1,0,0,-1,0,792)">
          <g
             id="g972">
            <path
               d="m 969.93201,394.62384 c 11.29448,1.20349 22.69307,0.72379 33.98539,1.95437"
               style="fill:none;stroke:#000000;stroke-width:2.61538;stroke-linecap:round;stroke-linejoin:round;stroke-miterlimit:10;stroke-dasharray:none;stroke-opacity:1"
               id="path974" />
          </g>
        </g>
        <g
           id="g976"
           transform="matrix(1,0,0,-1,0,792)">
          <g
             id="g978">
            <path
               d="m 1002.2548,395.50833 c 15.3463,-34.12241 15.2002,-74.52583 1.0485,-109.00694"
               style="fill:none;stroke:#000000;stroke-width:2.61538;stroke-linecap:round;stroke-linejoin:round;stroke-miterlimit:10;stroke-dasharray:none;stroke-opacity:1"
               id="path980"
               sodipodi:nodetypes="cc" />
          </g>
        </g>
        <g
           id="g982"
           transform="matrix(1,0,0,-1,0,792)">
          <g
             id="g984">
            <path
               d="m 976.0745,394.08728 c 11.4112,-34.95603 16.90713,-75.50891 4.69781,-110.42512 l -0.71311,0.90491"
               style="fill:none;stroke:#000000;stroke-width:2.61538;stroke-linecap:round;stroke-linejoin:round;stroke-miterlimit:10;stroke-dasharray:none;stroke-opacity:1"
               id="path986"
               sodipodi:nodetypes="cccc" />
          </g>
        </g>
        <g
           id="g988"
           transform="matrix(1,0,0,-1,0,792)">
          <g
             id="g990">
            <path
               d="m 971.52057,283.23172 c 12.60058,1.83665 25.3826,2.24803 37.90903,4.62413"
               style="fill:none;stroke:#000000;stroke-width:2.61538;stroke-linecap:round;stroke-linejoin:round;stroke-miterlimit:10;stroke-dasharray:none;stroke-opacity:1"
               id="path992" />
          </g>
        </g>
        <g
           id="g994"
           transform="matrix(1,0,0,-1,0,792)">
          <g
             id="g996">
            <path
               d="m 967.21515,331.80817 c -3.00942,-8.85753 7.88312,-0.71202 -0.61274,-0.34147"
               style="fill:none;stroke:#000000;stroke-width:2.61538;stroke-linecap:round;stroke-linejoin:round;stroke-miterlimit:10;stroke-dasharray:none;stroke-opacity:1"
               id="path998" />
          </g>
        </g>
        <g
           id="g1000"
           transform="matrix(1,0,0,-1,0,792)">
          <g
             id="g1002">
            <path
               d="m 1038.0538,405.68449 c 12.7651,15.36741 35.1134,13.73492 53.1314,14.46318"
               style="fill:none;stroke:#000000;stroke-width:2.61538;stroke-linecap:round;stroke-linejoin:round;stroke-miterlimit:10;stroke-dasharray:none;stroke-opacity:1"
               id="path1004"
               sodipodi:nodetypes="ccc" />
          </g>
        </g>
        <g
           id="g1006"
           transform="matrix(1,0,0,-1,0,792)">
          <g
             id="g1008">
            <path
               d="m 1091.1852,420.14767 c 32.4485,-7.33125 70.6635,-21.25253 81.9662,-56.02271 9.3279,-26.67248 7.7957,-57.71371 -9.0709,-81.16338"
               style="fill:none;stroke:#000000;stroke-width:2.61538;stroke-linecap:round;stroke-linejoin:round;stroke-miterlimit:10;stroke-dasharray:none;stroke-opacity:1"
               id="path1010" />
          </g>
        </g>
        <g
           id="g1012"
           transform="matrix(1,0,0,-1,0,792)">
          <g
             id="g1014">
            <path
               d="m 1164.147,281.03955 c -28.6499,-17.57021 -67.4684,-22.52086 -96.3624,-2.67562 -10.7873,6.61129 -22.4685,12.49485 -32.0241,20.78797"
               style="fill:none;stroke:#000000;stroke-width:2.61538;stroke-linecap:round;stroke-linejoin:round;stroke-miterlimit:10;stroke-dasharray:none;stroke-opacity:1"
               id="path1016" />
          </g>
        </g>
        <g
           id="g1018"
           transform="matrix(1,0,0,-1,0,792)">
          <g
             id="g1020">
            <path
               d="m 1034.9138,300.55496 c -6.7016,33.91623 -2.1948,69.29017 2.7266,103.02881 l 2.4966,4.71466"
               style="fill:none;stroke:#000000;stroke-width:2.61538;stroke-linecap:round;stroke-linejoin:round;stroke-miterlimit:10;stroke-dasharray:none;stroke-opacity:1"
               id="path1022"
               sodipodi:nodetypes="ccc" />
          </g>
        </g>
        <g
           id="g1024"
           transform="matrix(1,0,0,-1,0,792)">
          <g
             id="g1026">
            <path
               d="m 1039.8262,388.61676 c 27.823,-5.50987 57.9367,-21.75538 61.7199,-52.89433 11.7024,-28.20934 -14.2293,-62.00664 -42.462,-38.45899 -7.4305,5.19237 -18.1785,9.77443 -23.5735,15.98093"
               style="fill:none;stroke:#000000;stroke-width:2.61538;stroke-linecap:round;stroke-linejoin:round;stroke-miterlimit:10;stroke-dasharray:none;stroke-opacity:1"
               id="path1028" />
          </g>
        </g>
        <g
           id="g1030"
           transform="matrix(1,0,0,-1,0,792)">
          <g
             id="g1032">
            <path
               d="m 1046.4088,407.44669 c 27.7683,-5.16753 56.9307,-18.42435 67.2207,-46.90338 11.9596,-28.16963 16.1374,-72.03342 -12.287,-91.03475 l -11.465,-1.24507"
               style="fill:none;stroke:#000000;stroke-width:2.61538;stroke-linecap:round;stroke-linejoin:round;stroke-miterlimit:10;stroke-dasharray:none;stroke-opacity:1"
               id="path1034"
               sodipodi:nodetypes="cccc" />
          </g>
        </g>
        <g
           id="g1036"
           transform="matrix(1,0,0,-1,0,792)">
          <g
             id="g1038">
            <path
               d="m 1127.0946,381.78363 c 10.3188,2.9805 15.5924,4.40602 26.3483,5.43601"
               style="fill:none;stroke:#000000;stroke-width:2.61538;stroke-linecap:round;stroke-linejoin:round;stroke-miterlimit:10;stroke-dasharray:none;stroke-opacity:1"
               id="path1040"
               sodipodi:nodetypes="cc" />
          </g>
        </g>
        <g
           id="g1042"
           transform="matrix(1,0,0,-1,0,792)">
          <g
             id="g1044">
            <path
               d="m 1127.0946,381.78363 c 0.6175,-2.77057 7.1866,-11.68624 9.943,-7.21821"
               style="fill:none;stroke:#000000;stroke-width:2.61538;stroke-linecap:round;stroke-linejoin:round;stroke-miterlimit:10;stroke-dasharray:none;stroke-opacity:1"
               id="path1046"
               sodipodi:nodetypes="cc" />
          </g>
        </g>
        <g
           id="g1048"
           transform="matrix(1,0,0,-1,0,792)">
          <g
             id="g1050">
            <path
               d="m 1134.0284,381.65594 c 20.4796,-27.55338 26.7174,-75.43448 5.9606,-99.9751"
               style="fill:none;stroke:#000000;stroke-width:2.61538;stroke-linecap:round;stroke-linejoin:round;stroke-miterlimit:10;stroke-dasharray:none;stroke-opacity:1"
               id="path1052" />
          </g>
        </g>
        <g
           id="g1054"
           transform="matrix(1,0,0,-1,0,792)">
          <g
             id="g1056">
            <path
               d="m 1153.4429,387.21964 c 0.8761,-0.96195 5.1457,-6.65571 5.9017,-7.72971"
               style="fill:none;stroke:#000000;stroke-width:2.61538;stroke-linecap:round;stroke-linejoin:round;stroke-miterlimit:10;stroke-dasharray:none;stroke-opacity:1"
               id="path1058"
               sodipodi:nodetypes="cc" />
          </g>
        </g>
        <g
           id="g1060"
           transform="matrix(1,0,0,-1,0,792)">
          <g
             id="g1062">
            <path
               d="m 1159.3446,379.48993 c 17.6541,-27.80595 25.3821,-67.97199 2.8144,-95.23622"
               style="fill:none;stroke:#000000;stroke-width:2.61538;stroke-linecap:round;stroke-linejoin:round;stroke-miterlimit:10;stroke-dasharray:none;stroke-opacity:1"
               id="path1064" />
          </g>
        </g>
        <g
           id="g1066"
           transform="matrix(1,0,0,-1,0,792)">
          <g
             id="g1068">
            <path
               d="m 1121.7339,273.29669 c 13.0004,0.59153 25.4546,4.97133 38.4058,5.95737"
               style="fill:none;stroke:#000000;stroke-width:2.61538;stroke-linecap:round;stroke-linejoin:round;stroke-miterlimit:10;stroke-dasharray:none;stroke-opacity:1"
               id="path1070" />
          </g>
        </g>
        <g
           id="g1348"
           transform="matrix(1,0,0,-1,0,792)">
          <g
             id="g1350">
            <path
               d="m 871.57141,439.3108 c 21.09002,-13.8886 53.82526,-11.23287 65.01326,-38.88581 13.82484,-26.41778 10.44964,-57.36138 14.07104,-86.06928 0.52302,-19.01918 -6.20524,-43.03954 -25.67056,-50.22659"
               style="fill:none;stroke:#000000;stroke-width:1.30769;stroke-linecap:round;stroke-linejoin:round;stroke-miterlimit:10;stroke-dasharray:none;stroke-opacity:1"
               id="path1352"
               sodipodi:nodetypes="ccccccc" />
          </g>
        </g>
        <g
           id="g1354"
           transform="matrix(1,0,0,-1,0,792)">
          <g
             id="g1356">
            <path
               d="m 871.02185,422.6795 c 0.32474,-20.60507 51.40619,-14.19686 53.5691,-45.04974 6.18469,-23.72071 13.21008,-51.26153 2.74459,-74.65842 -15.36315,-22.3797 -45.99495,13.61724 -61.13513,21.03403"
               style="fill:none;stroke:#000000;stroke-width:1.30769;stroke-linecap:round;stroke-linejoin:round;stroke-miterlimit:10;stroke-dasharray:none;stroke-opacity:1"
               id="path1358" />
          </g>
        </g>
        <g
           id="g1360"
           transform="matrix(1,0,0,-1,0,792)">
          <g
             id="g1362">
            <path
               d="m 876.81915,309.84958 c 16.03312,-11.02192 44.55853,-35.65133 59.78751,-12.18176 9.31356,28.14229 -0.27129,59.7547 -8.30971,87.31451 -7.68466,27.78054 -43.87319,20.90025 -55.13756,42.54055"
               style="fill:none;stroke:#000000;stroke-width:1.30769;stroke-linecap:round;stroke-linejoin:round;stroke-miterlimit:10;stroke-dasharray:none;stroke-opacity:1"
               id="path1364" />
          </g>
        </g>
        <g
           id="g1366"
           transform="matrix(1,0,0,-1,0,792)">
          <g
             id="g1368">
            <path
               d="m 872.9646,432.6991 c 14.56501,-24.22788 56.79069,-14.51233 62.53946,-47.86429 6.99241,-32.00262 17.01171,-70.20416 0.0466,-100.25536 -20.56663,-15.87221 -45.55089,18.25411 -61.75954,27.88646"
               style="fill:none;stroke:#000000;stroke-width:1.30769;stroke-linecap:round;stroke-linejoin:round;stroke-miterlimit:10;stroke-dasharray:none;stroke-opacity:1"
               id="path1370" />
          </g>
        </g>
        <g
           id="g1372"
           transform="matrix(1,0,0,-1,0,792)">
          <g
             id="g1374">
            <path
               d="m 1039.8745,395.35611 c 29.9171,-3.95243 60.2846,-22.81508 65.6595,-54.53685 6.7351,-20.76326 2.0144,-60.51767 -27.6321,-55.77401 -14.4314,2.69572 -25.989,12.33566 -38.6125,19.08453"
               style="fill:none;stroke:#000000;stroke-width:1.30769;stroke-linecap:round;stroke-linejoin:round;stroke-miterlimit:10;stroke-dasharray:none;stroke-opacity:1"
               id="path1376" />
          </g>
        </g>
        <g
           id="g1378"
           transform="matrix(1,0,0,-1,0,792)">
          <g
             id="g1380">
            <path
               d="m 1037.256,301.58929 c 20.3067,-10.54766 56.8046,-37.7197 72.2609,-7.85545 15.0477,40.47033 -7.4377,93.93148 -52.0536,102.74328 -5.1174,1.41722 -10.3253,2.46639 -15.5209,3.54689"
               style="fill:none;stroke:#000000;stroke-width:1.30769;stroke-linecap:round;stroke-linejoin:round;stroke-miterlimit:10;stroke-dasharray:none;stroke-opacity:1"
               id="path1382" />
          </g>
        </g>
        <g
           id="g1384"
           transform="matrix(1,0,0,-1,0,792)">
          <g
             id="g1386">
            <path
               d="m 1043.0189,405.03064 c 40.0312,-5.83595 75.5735,-40.62942 73.5642,-82.59664 6.792,-28.16789 -16.519,-55.98279 -45.2078,-40.36452 -12.2302,4.90518 -23.4309,11.98835 -34.0379,19.7376"
               style="fill:none;stroke:#000000;stroke-width:1.30769;stroke-linecap:round;stroke-linejoin:round;stroke-miterlimit:10;stroke-dasharray:none;stroke-opacity:1"
               id="path1388" />
          </g>
        </g>
        <g
           id="g1390"
           transform="matrix(1,0,0,-1,0,792)">
          <g
             id="g1392">
            <path
               d="m 708.31525,519.62 c 15.21364,-5.46733 27.48964,-17.22786 43.38861,-21.05598"
               style="fill:none;stroke:#000000;stroke-width:1.30769;stroke-linecap:round;stroke-linejoin:round;stroke-miterlimit:10;stroke-dasharray:none;stroke-opacity:1"
               id="path1394"
               sodipodi:nodetypes="cc" />
          </g>
        </g>
        <g
           id="g1396"
           transform="matrix(1,0,0,-1,0,792)">
          <g
             id="g1398">
            <path
               d="m 758.44482,495.44116 c 9.93899,-10.44077 13.04972,-25.10144 15.63462,-38.78159"
               style="fill:none;stroke:#000000;stroke-width:1.30769;stroke-linecap:round;stroke-linejoin:round;stroke-miterlimit:10;stroke-dasharray:none;stroke-opacity:1"
               id="path1400"
               sodipodi:nodetypes="ccc" />
          </g>
        </g>
        <g
           id="g1402"
           transform="matrix(1,0,0,-1,0,792)">
          <g
             id="g1404">
            <path
               d="m 747.41528,289.09848 c 5.59328,0.41871 11.24456,0.21492 16.7829,1.24356"
               style="fill:none;stroke:#000000;stroke-width:1.30769;stroke-linecap:round;stroke-linejoin:round;stroke-miterlimit:10;stroke-dasharray:none;stroke-opacity:1"
               id="path1406" />
          </g>
        </g>
        <g
           id="g1408"
           transform="matrix(1,0,0,-1,0,792)">
          <g
             id="g1410">
            <path
               d="m 748.12805,279.23041 c 4.72704,0.26186 9.38444,1.42432 14.14136,1.2016"
               style="fill:none;stroke:#000000;stroke-width:1.30769;stroke-linecap:round;stroke-linejoin:round;stroke-miterlimit:10;stroke-dasharray:none;stroke-opacity:1"
               id="path1412" />
          </g>
        </g>
        <g
           id="g1414"
           transform="matrix(1,0,0,-1,0,792)">
          <g
             id="g1416">
            <path
               d="m 749.54376,274.10382 c 4.94157,0.98163 9.88554,2.02387 14.91095,2.48186"
               style="fill:none;stroke:#000000;stroke-width:1.30769;stroke-linecap:round;stroke-linejoin:round;stroke-miterlimit:10;stroke-dasharray:none;stroke-opacity:1"
               id="path1418" />
          </g>
        </g>
        <g
           id="g1420"
           transform="matrix(1,0,0,-1,0,792)">
          <g
             id="g1422">
            <path
               d="m 776.14996,298.65005 c 8.8296,0.85567 17.44975,3.09035 26.27202,3.99947"
               style="fill:none;stroke:#000000;stroke-width:1.30769;stroke-linecap:round;stroke-linejoin:round;stroke-miterlimit:10;stroke-dasharray:none;stroke-opacity:1"
               id="path1424" />
          </g>
        </g>
        <g
           id="g1426"
           transform="matrix(1,0,0,-1,0,792)">
          <g
             id="g1428">
            <path
               d="m 779.69751,284.20621 c 7.37037,-1.23416 14.9062,0.11498 21.92509,2.40961"
               style="fill:none;stroke:#000000;stroke-width:1.30769;stroke-linecap:round;stroke-linejoin:round;stroke-miterlimit:10;stroke-dasharray:none;stroke-opacity:1"
               id="path1430" />
          </g>
        </g>
        <g
           id="g1432"
           transform="matrix(1,0,0,-1,0,792)">
          <g
             id="g1434">
            <path
               d="m 790.05444,292.3992 c 9.48619,-1.06467 -1.67499,5.77285 -2.11694,2.00427"
               style="fill:none;stroke:#000000;stroke-width:1.30769;stroke-linecap:round;stroke-linejoin:round;stroke-miterlimit:10;stroke-dasharray:none;stroke-opacity:1"
               id="path1436" />
          </g>
        </g>
        <g
           id="g1438"
           transform="matrix(1,0,0,-1,0,792)">
          <g
             id="g1440">
            <path
               d="m 690.76593,328.79623 c 12.91837,-14.16146 44.71904,-49.18808 39.46058,-8.01326 -1.25958,48.19343 3.50602,99.55534 -18.57756,143.94453 -8.17974,10.06517 -20.82036,14.76155 -32.70821,18.79728"
               style="fill:none;stroke:#000000;stroke-width:1.30769;stroke-linecap:round;stroke-linejoin:round;stroke-miterlimit:10;stroke-dasharray:none;stroke-opacity:1"
               id="path1442" />
          </g>
        </g>
        <g
           id="g1444"
           transform="matrix(1,0,0,-1,0,792)">
          <g
             id="g1446">
            <path
               d="m 681.39954,488.60031 c 29.72442,-2.67254 44.78816,-32.49347 47.95215,-58.99498 9.04663,-43.65555 8.71062,-89.83457 -0.35341,-133.27697 -13.1989,-13.96275 -29.78157,18.80265 -38.26582,25.71342"
               style="fill:none;stroke:#000000;stroke-width:1.30769;stroke-linecap:round;stroke-linejoin:round;stroke-miterlimit:10;stroke-dasharray:none;stroke-opacity:1"
               id="path1448" />
          </g>
        </g>
        <g
           id="g1450"
           transform="matrix(1,0,0,-1,0,792)">
          <g
             id="g1452">
            <path
               d="m 690.01373,317.76736 c 11.76652,-13.2164 44.54182,-57.35063 42.6234,-14.35926 5.02632,55.49278 8.89507,113.58244 -10.85064,166.76731 -7.35292,20.44219 -29.31588,18.45356 -45.20376,27.47888"
               style="fill:none;stroke:#000000;stroke-width:1.30769;stroke-linecap:round;stroke-linejoin:round;stroke-miterlimit:10;stroke-dasharray:none;stroke-opacity:1"
               id="path1454" />
          </g>
        </g>
        <g
           id="g1858"
           transform="matrix(1,0,0,-1,0,792)">
          <g
             id="g1860">
            <path
               d="m 689.49457,358.8385 c -3.49015,33.84678 -4.7608,69.88579 -5.63692,102.55513"
               style="fill:none;stroke:#000000;stroke-width:1.30769;stroke-linecap:round;stroke-linejoin:round;stroke-miterlimit:10;stroke-dasharray:none;stroke-opacity:1"
               id="path1862" />
          </g>
        </g>
        <g
           id="g1864"
           transform="matrix(1,0,0,-1,0,792)">
          <g
             id="g1866">
            <path
               d="m 873.15149,334.52292 c 4.11664,19.8281 2.5474,40.19361 3.01855,60.28477"
               style="fill:none;stroke:#000000;stroke-width:1.30769;stroke-linecap:round;stroke-linejoin:round;stroke-miterlimit:10;stroke-dasharray:none;stroke-opacity:1"
               id="path1868" />
          </g>
        </g>
        <g
           id="g1870"
           transform="matrix(1,0,0,-1,0,792)">
          <g
             id="g1872">
            <path
               d="m 1039.3185,313.27396 c -1.068,21.47167 -0.1774,42.97086 0.2476,64.44636"
               style="fill:none;stroke:#000000;stroke-width:1.30769;stroke-linecap:round;stroke-linejoin:round;stroke-miterlimit:10;stroke-dasharray:none;stroke-opacity:1"
               id="path1874" />
          </g>
        </g>
      </g>
    </g>
  </g>
</svg>
