<?xml version="1.0" encoding="UTF-8" standalone="no"?>
<!-- Created by Ashley Blewer - This work is licensed under a Creative Commons Attribution 4.0 International License -->

<svg
   width="544"
   height="480"
   viewBox="0 0 143.93334 127"
   version="1.1"
   id="svg2490"
   inkscape:version="1.2.2 (1:1.2.2+202212051552+b0a8486541)"
   sodipodi:docname="1936-tefifon-1.svg"
   xmlns:inkscape="http://www.inkscape.org/namespaces/inkscape"
   xmlns:sodipodi="http://sodipodi.sourceforge.net/DTD/sodipodi-0.dtd"
   xmlns="http://www.w3.org/2000/svg"
   xmlns:svg="http://www.w3.org/2000/svg">
  <sodipodi:namedview
     id="namedview2492"
     pagecolor="#ffffff"
     bordercolor="#666666"
     borderopacity="1.0"
     inkscape:pageshadow="2"
     inkscape:pageopacity="0.0"
     inkscape:pagecheckerboard="0"
     inkscape:document-units="mm"
     showgrid="false"
     units="px"
     inkscape:zoom="0.90583674"
     inkscape:cx="53.541657"
     inkscape:cy="253.35691"
     inkscape:window-width="1846"
     inkscape:window-height="1136"
     inkscape:window-x="0"
     inkscape:window-y="0"
     inkscape:window-maximized="1"
     inkscape:current-layer="g4731"
     inkscape:showpageshadow="2"
     inkscape:deskcolor="#d1d1d1" />
  <defs
     id="defs2487" />
  <g
     inkscape:label="Layer 1"
     inkscape:groupmode="layer"
     id="layer1">
    <g
       id="g4731"
       transform="matrix(0.32961229,0,0,0.32903008,-241.78905,1.73126)"
       style="stroke-width:2.68698">
      <g
         id="g104528"
         transform="matrix(1,0,0,-1,0,792)"
         style="stroke-width:2.68698">
        <g
           id="g104530"
           style="stroke-width:2.68698" />
      </g>
      <g
         id="g104996"
         transform="matrix(1,0,0,-1,0,792)"
         style="stroke-width:2.68698">
        <g
           id="g104998"
           style="stroke-width:2.68698" />
      </g>
      <g
         id="g2949"
         transform="matrix(0.78560679,0,0,0.78699687,224.94517,81.150423)">
        <g
           id="g706"
           transform="matrix(1,0,0,-1,0,792)">
          <g
             id="g708">
            <path
               d="m 678.2981,700.36523 c 0.42099,5.63497 -2.49949,12.93935 2.22893,17.42695"
               style="fill:none;stroke:#000000;stroke-width:2.61538;stroke-linecap:round;stroke-linejoin:round;stroke-miterlimit:10;stroke-dasharray:none;stroke-opacity:1"
               id="path710" />
          </g>
        </g>
        <g
           id="g712"
           transform="matrix(1,0,0,-1,0,792)">
          <g
             id="g714">
            <path
               d="m 680.52703,717.79218 c 14.71716,13.0212 53.53874,4.7635 53.53874,4.7635 0,0 77.44472,6.09716 113.85169,-7.34474 24.60546,-8.50877 25.99735,-38.21891 25.72857,-60.13311 1.85206,-30.30318 -1.5671,-60.98539 -11.51538,-89.70294 -13.254,-21.26211 -53.4466,-24.25773 -53.4466,-24.25773 0,0 -55.45764,-0.48563 -77.91656,-1.47738 -15.84464,-0.56353 -51.14361,-7.65209 -42.17547,20.59132"
               style="fill:none;stroke:#000000;stroke-width:2.61538;stroke-linecap:round;stroke-linejoin:round;stroke-miterlimit:10;stroke-dasharray:none;stroke-opacity:1"
               id="path716"
               sodipodi:nodetypes="cccccccc" />
          </g>
        </g>
        <g
           id="g718"
           transform="matrix(1,0,0,-1,0,792)">
          <g
             id="g720">
            <path
               d="m 687.98468,559.62427 c -9.13717,0.47742 -18.57899,4.9002 -15.39454,15.90187"
               style="fill:none;stroke:#000000;stroke-width:2.61538;stroke-linecap:round;stroke-linejoin:round;stroke-miterlimit:10;stroke-dasharray:none;stroke-opacity:1"
               id="path722" />
          </g>
        </g>
        <g
           id="g724"
           transform="matrix(1,0,0,-1,0,792)">
          <g
             id="g726">
            <path
               d="m 665.5714,697.70658 c 0.20322,-41.91923 8.95672,-86.61085 8.71803,-124.80199 1.03484,-1.22623 0.0696,-5.18361 2.24137,-5.72977"
               style="fill:none;stroke:#000000;stroke-width:2.61538;stroke-linecap:round;stroke-linejoin:round;stroke-miterlimit:10;stroke-dasharray:none;stroke-opacity:1"
               id="path728"
               sodipodi:nodetypes="ccc" />
          </g>
        </g>
        <g
           id="g730"
           transform="matrix(1,0,0,-1,0,792)">
          <g
             id="g732">
            <path
               d="m 665.50031,688.00464 c 22.97194,-4.94198 48.32029,-2.10981 72.24277,-4.19381 29.48082,-2.16793 60.53099,4.00783 88.78125,-6.53164 10.62727,-13.52065 13.24542,-32.05603 14.88861,-48.92574 -1.47964,-17.95411 1.39147,-40.29726 -13.84876,-53.27842 -19.82044,-9.56153 -42.51373,-1.35136 -63.57028,-4.11444 -30.27784,0.40401 -61.40494,-2.99896 -91.1277,1.93673 l -0.34522,0.72473"
               style="fill:none;stroke:#000000;stroke-width:2.61538;stroke-linecap:round;stroke-linejoin:round;stroke-miterlimit:10;stroke-dasharray:none;stroke-opacity:1"
               id="path734" />
          </g>
        </g>
        <g
           id="g736"
           transform="matrix(1,0,0,-1,0,792)">
          <g
             id="g738">
            <path
               d="m 673.94977,565.87012 c 18.05687,-9.95424 61.26747,-5.23512 61.26747,-5.23512 31.22751,-0.46473 63.69148,-4.36896 93.9823,4.67426 22.11278,10.42012 18.36414,37.5607 20.98019,57.76813 1.14939,19.04952 -1.72926,39.07938 -10.15085,55.98114 -16.07262,16.6046 -40.16747,17.83951 -61.77816,16.47728 -25.93854,-1.19987 -51.91099,-0.28243 -77.71514,1.88107 -6.41758,1.02299 -55.09278,-8.10455 -22.5416,9.17073"
               style="fill:none;stroke:#000000;stroke-width:2.61538;stroke-linecap:round;stroke-linejoin:round;stroke-miterlimit:10;stroke-dasharray:none;stroke-opacity:1"
               id="path740"
               sodipodi:nodetypes="cccccccc" />
          </g>
        </g>
        <g
           id="g742"
           transform="matrix(1,0,0,-1,0,792)">
          <g
             id="g744">
            <path
               d="m 906.28821,653.28967 c -19.07262,0.44608 -9.6485,-26.0149 -11.21113,-38.06474 0.12157,-16.09857 -1.89425,-33.97278 2.55874,-49.0555 l 2.22406,-1.07451 3.66304,-1.06566"
               style="fill:none;stroke:#000000;stroke-width:2.61538;stroke-linecap:round;stroke-linejoin:round;stroke-miterlimit:10;stroke-dasharray:none;stroke-opacity:1"
               id="path746"
               sodipodi:nodetypes="ccccc" />
          </g>
        </g>
        <g
           id="g748"
           transform="matrix(1,0,0,-1,0,792)">
          <g
             id="g750">
            <path
               d="m 909.7796,641.10919 c -11.67457,24.60193 16.24817,34.78601 38.26609,31.81418 0,0 65.51151,2.84389 71.42761,-12.40149 16.4399,-17.40885 27.8928,-41.3457 22.7991,-65.71646 -4.1094,-27.75259 -18.9272,-46.11226 -43.51544,-51.02064 -26.70157,-7.20792 -55.3019,-5.34079 -82.25155,-0.10334 -6.5526,4.01861 -8.73837,12.66659 -7.11957,19.82337"
               style="fill:none;stroke:#000000;stroke-width:2.61538;stroke-linecap:round;stroke-linejoin:round;stroke-miterlimit:10;stroke-dasharray:none;stroke-opacity:1"
               id="path752"
               sodipodi:nodetypes="ccccccc" />
          </g>
        </g>
        <g
           id="g754"
           transform="matrix(1,0,0,-1,0,792)">
          <g
             id="g756">
            <path
               d="m 906.28821,653.28967 c -22.77515,-6.48316 -7.25306,-41.10756 -11.13498,-59.52615 2.43115,-12.85834 -6.85174,-32.59041 14.23261,-30.25871"
               style="fill:none;stroke:#000000;stroke-width:2.61538;stroke-linecap:round;stroke-linejoin:round;stroke-miterlimit:10;stroke-dasharray:none;stroke-opacity:1"
               id="path758"
               sodipodi:nodetypes="cccc" />
          </g>
        </g>
        <g
           id="g760"
           transform="matrix(1,0,0,-1,0,792)">
          <g
             id="g762">
            <path
               d="m 910.21332,562.10339 c 30.82237,1.23974 62.60899,-6.33132 92.66508,2.99429 21.5692,9.03964 22.5534,37.24661 18.1796,57.04808 -3.3319,18.73601 -24.67463,21.61986 -40.35712,21.62705 -23.58882,-2.41856 -47.14876,-3.64429 -70.92128,-2.66362"
               style="fill:none;stroke:#000000;stroke-width:2.61538;stroke-linecap:round;stroke-linejoin:round;stroke-miterlimit:10;stroke-dasharray:none;stroke-opacity:1"
               id="path764"
               sodipodi:nodetypes="ccccccc" />
          </g>
        </g>
        <g
           id="g766"
           transform="matrix(1,0,0,-1,0,792)">
          <g
             id="g768">
            <path
               d="m 895.71083,646.59182 c 2.46553,-20.66265 32.09615,-5.78817 46.28061,-11.23697 18.89036,-4.05248 38.75599,0.98468 57.18997,-4.95626 16.05149,-8.89751 19.85249,-34.93297 8.13219,-48.78058 -16.39719,-13.02768 -38.72446,-7.02496 -57.9029,-11.22993 -16.22816,-1.8565 -32.91315,-3.55839 -48.99336,0.30301 -2.55213,1.91632 -5.97951,4.9421 -5.02027,8.56868"
               style="fill:none;stroke:#000000;stroke-width:2.61538;stroke-linecap:round;stroke-linejoin:round;stroke-miterlimit:10;stroke-dasharray:none;stroke-opacity:1"
               id="path770"
               sodipodi:nodetypes="cccccccc" />
          </g>
        </g>
        <g
           id="g772"
           transform="matrix(1,0,0,-1,0,792)">
          <g
             id="g774">
            <path
               d="m 1070.3992,631.30707 c -1.3077,31.77193 17.198,19.38038 46.2003,19.40946 20.9546,-2.81702 33.123,-8.52374 46.5402,-19.5266 20.7235,-10.25381 28.8801,-38.82324 15.4094,-58.05011 -17.5019,-28.0391 -54.4133,-32.1393 -84.484,-28.99282 -23.4646,-6.47468 -35.8763,16.31654 -29.9416,36.6664 1.8656,23.58216 5.5667,45.35154 8.8235,68.56636"
               style="fill:none;stroke:#000000;stroke-width:2.61538;stroke-linecap:round;stroke-linejoin:round;stroke-miterlimit:10;stroke-dasharray:none;stroke-opacity:1"
               id="path776"
               sodipodi:nodetypes="ccccccc" />
          </g>
        </g>
        <g
           id="g778"
           transform="matrix(1,0,0,-1,0,792)">
          <g
             id="g780">
            <path
               d="m 1070.3992,631.30707 c 10.7159,-18.81532 29.5708,-9.11343 54.6455,-13.68455 15.6076,0.89644 37.2345,-1.88115 40.0311,-29.70943 -3.509,-20.14533 -24.6716,-27.10172 -42.3134,-29.45114 -14.9677,-1.89075 -30.1703,0.80524 -45.1802,1.23989"
               style="fill:none;stroke:#000000;stroke-width:2.61538;stroke-linecap:round;stroke-linejoin:round;stroke-miterlimit:10;stroke-dasharray:none;stroke-opacity:1"
               id="path782"
               sodipodi:nodetypes="ccccc" />
          </g>
        </g>
        <g
           id="g784"
           transform="matrix(1,0,0,-1,0,792)">
          <g
             id="g786">
            <path
               d="m 1077.5822,559.70184 c -3.8072,5.87471 -9.8662,9.94717 -13.4098,16.00417"
               style="fill:none;stroke:#000000;stroke-width:2.61538;stroke-linecap:round;stroke-linejoin:round;stroke-miterlimit:10;stroke-dasharray:none;stroke-opacity:1"
               id="path788"
               sodipodi:nodetypes="cc" />
          </g>
        </g>
        <g
           id="g790"
           transform="matrix(1,0,0,-1,0,792)">
          <g
             id="g792">
            <path
               d="m 1072.947,649.37976 c 4.1157,-3.22703 9.0052,-5.21692 13.3425,-8.10041"
               style="fill:none;stroke:#000000;stroke-width:2.61538;stroke-linecap:round;stroke-linejoin:round;stroke-miterlimit:10;stroke-dasharray:none;stroke-opacity:1"
               id="path794"
               sodipodi:nodetypes="cc" />
          </g>
        </g>
        <g
           id="g796"
           transform="matrix(1,0,0,-1,0,792)">
          <g
             id="g798">
            <path
               d="m 1086.2895,641.27935 c 19.1254,-1.54037 45.3982,-0.3036 64.6048,-1.30769"
               style="fill:none;stroke:#000000;stroke-width:2.61538;stroke-linecap:round;stroke-linejoin:round;stroke-miterlimit:10;stroke-dasharray:none;stroke-opacity:1"
               id="path800"
               sodipodi:nodetypes="cc" />
          </g>
        </g>
        <g
           id="g802"
           transform="matrix(1,0,0,-1,0,792)">
          <g
             id="g804">
            <path
               d="m 1086.2895,641.27935 c -0.6289,-22.7074 -7.4694,-44.77888 -7.8373,-67.57617 -0.7466,-9.73498 -1.0736,-19.52059 -2.5285,-29.18698"
               style="fill:none;stroke:#000000;stroke-width:2.61538;stroke-linecap:round;stroke-linejoin:round;stroke-miterlimit:10;stroke-dasharray:none;stroke-opacity:1"
               id="path806"
               sodipodi:nodetypes="ccc" />
          </g>
        </g>
        <g
           id="g1072"
           transform="matrix(1,0,0,-1,0,792)">
          <g
             id="g1074">
            <path
               d="m 700.16791,570.65662 -6.00194,113.8705"
               style="fill:none;stroke:#000000;stroke-width:1.30769;stroke-linecap:round;stroke-linejoin:round;stroke-miterlimit:10;stroke-dasharray:none;stroke-opacity:1"
               id="path1076"
               sodipodi:nodetypes="cc" />
          </g>
        </g>
        <g
           id="g1078"
           transform="matrix(1,0,0,-1,0,792)">
          <g
             id="g1080">
            <path
               d="m 678.85181,573.93164 c -1.31799,41.02282 -8.81989,75.17487 -7.80071,112.72746"
               style="fill:none;stroke:#000000;stroke-width:1.30769;stroke-linecap:round;stroke-linejoin:round;stroke-miterlimit:10;stroke-dasharray:none;stroke-opacity:1"
               id="path1082"
               sodipodi:nodetypes="cc" />
          </g>
        </g>
        <g
           id="g1084"
           transform="matrix(1,0,0,-1,0,792)">
          <g
             id="g1086">
            <path
               d="m 683.896,582.65704 c 0.0733,2.9829 -3.50983,5.40144 -2.03703,8.4253"
               style="fill:none;stroke:#000000;stroke-width:1.30769;stroke-linecap:round;stroke-linejoin:round;stroke-miterlimit:10;stroke-dasharray:none;stroke-opacity:1"
               id="path1088" />
          </g>
        </g>
        <g
           id="g1090"
           transform="matrix(1,0,0,-1,0,792)">
          <g
             id="g1092">
            <path
               d="m 682.74506,587.53503 c 1.12145,0.13756 5.57516,0.59428 6.68056,0.68509"
               style="fill:none;stroke:#000000;stroke-width:1.30769;stroke-linecap:round;stroke-linejoin:round;stroke-miterlimit:10;stroke-dasharray:none;stroke-opacity:1"
               id="path1094" />
          </g>
        </g>
        <g
           id="g1096"
           transform="matrix(1,0,0,-1,0,792)">
          <g
             id="g1098">
            <path
               d="m 680.0116,616.58691 c -1.59759,-11.60293 13.69586,-9.77898 8.82508,0.50083"
               style="fill:none;stroke:#000000;stroke-width:1.30769;stroke-linecap:round;stroke-linejoin:round;stroke-miterlimit:10;stroke-dasharray:none;stroke-opacity:1"
               id="path1100" />
          </g>
        </g>
        <g
           id="g1102"
           transform="matrix(1,0,0,-1,0,792)">
          <g
             id="g1104">
            <path
               d="m 685.07605,611.70361 c -0.0153,0.60871 -0.20617,3.77511 -0.28632,4.74961"
               style="fill:none;stroke:#000000;stroke-width:1.30769;stroke-linecap:round;stroke-linejoin:round;stroke-miterlimit:10;stroke-dasharray:none;stroke-opacity:1"
               id="path1106" />
          </g>
        </g>
        <g
           id="g1108"
           transform="matrix(1,0,0,-1,0,792)">
          <g
             id="g1110">
            <path
               d="m 678.48883,637.36047 c 2.86556,0.52022 5.76889,0.76417 8.67145,0.94891"
               style="fill:none;stroke:#000000;stroke-width:1.30769;stroke-linecap:round;stroke-linejoin:round;stroke-miterlimit:10;stroke-dasharray:none;stroke-opacity:1"
               id="path1112" />
          </g>
        </g>
        <g
           id="g1114"
           transform="matrix(1,0,0,-1,0,792)">
          <g
             id="g1116">
            <path
               d="m 678.49701,637.34662 c 1.06803,2.04503 -0.84609,4.28397 -0.46801,6.35063"
               style="fill:none;stroke:#000000;stroke-width:1.30769;stroke-linecap:round;stroke-linejoin:round;stroke-miterlimit:10;stroke-dasharray:none;stroke-opacity:1"
               id="path1118" />
          </g>
        </g>
        <g
           id="g1120"
           transform="matrix(1,0,0,-1,0,792)">
          <g
             id="g1122">
            <path
               d="m 683.00836,639.90521 c -2.01899,-2.17051 -0.61604,6.17651 -0.64518,4.88998"
               style="fill:none;stroke:#000000;stroke-width:1.30769;stroke-linecap:round;stroke-linejoin:round;stroke-miterlimit:10;stroke-dasharray:none;stroke-opacity:1"
               id="path1124" />
          </g>
        </g>
        <g
           id="g1126"
           transform="matrix(1,0,0,-1,0,792)">
          <g
             id="g1128">
            <path
               d="m 676.91675,664.07611 c 3.08556,0.31078 6.19934,0.47435 9.2934,0.11676"
               style="fill:none;stroke:#000000;stroke-width:1.30769;stroke-linecap:round;stroke-linejoin:round;stroke-miterlimit:10;stroke-dasharray:none;stroke-opacity:1"
               id="path1130" />
          </g>
        </g>
        <g
           id="g1132"
           transform="matrix(1,0,0,-1,0,792)">
          <g
             id="g1134">
            <path
               d="m 898.3931,572.31119 c -0.18613,22.35529 -1.89021,44.7031 -1.05323,67.06305"
               style="fill:none;stroke:#000000;stroke-width:1.30769;stroke-linecap:round;stroke-linejoin:round;stroke-miterlimit:10;stroke-dasharray:none;stroke-opacity:1"
               id="path1136"
               sodipodi:nodetypes="cc" />
          </g>
        </g>
        <g
           id="g1138"
           transform="matrix(1,0,0,-1,0,792)">
          <g
             id="g1140">
            <path
               d="m 908.09448,570.36945 c -1.39063,22.05363 -0.65935,44.16533 -0.1359,66.23457"
               style="fill:none;stroke:#000000;stroke-width:1.30769;stroke-linecap:round;stroke-linejoin:round;stroke-miterlimit:10;stroke-dasharray:none;stroke-opacity:1"
               id="path1142" />
          </g>
        </g>
        <g
           id="g1144"
           transform="matrix(1,0,0,-1,0,792)">
          <g
             id="g1146">
            <path
               d="m 918.66284,570.22766 c 0.66388,15.78963 -0.21177,31.65259 -0.51428,47.39903 -0.35794,5.82734 -0.56918,11.66819 -0.45233,17.50699"
               style="fill:none;stroke:#000000;stroke-width:1.30769;stroke-linecap:round;stroke-linejoin:round;stroke-miterlimit:10;stroke-dasharray:none;stroke-opacity:1"
               id="path1148" />
          </g>
        </g>
        <g
           id="g1150"
           transform="matrix(1,0,0,-1,0,792)">
          <g
             id="g1152">
            <path
               d="m 910.15289,578.46417 c 0.27046,0.83591 0.99991,4.54128 1.09417,5.55806"
               style="fill:none;stroke:#000000;stroke-width:1.30769;stroke-linecap:round;stroke-linejoin:round;stroke-miterlimit:10;stroke-dasharray:none;stroke-opacity:1"
               id="path1154" />
          </g>
        </g>
        <g
           id="g1156"
           transform="matrix(1,0,0,-1,0,792)">
          <g
             id="g1158">
            <path
               d="m 911.0528,582.01318 c 0.52237,-1.31089 2.65322,-0.18569 3.5007,-0.53446"
               style="fill:none;stroke:#000000;stroke-width:1.30769;stroke-linecap:round;stroke-linejoin:round;stroke-miterlimit:10;stroke-dasharray:none;stroke-opacity:1"
               id="path1160" />
          </g>
        </g>
        <g
           id="g1162"
           transform="matrix(1,0,0,-1,0,792)">
          <g
             id="g1164">
            <path
               d="m 909.91602,597.71979 c 0.78547,-2.48656 1.34719,-6.11706 5.38128,-3.52034"
               style="fill:none;stroke:#000000;stroke-width:1.30769;stroke-linecap:round;stroke-linejoin:round;stroke-miterlimit:10;stroke-dasharray:none;stroke-opacity:1"
               id="path1166" />
          </g>
        </g>
        <g
           id="g1168"
           transform="matrix(1,0,0,-1,0,792)">
          <g
             id="g1170">
            <path
               d="m 914.50256,596.76007 c 0.28044,-0.5117 1.17855,-1.85414 0.18934,-2.24044"
               style="fill:none;stroke:#000000;stroke-width:1.30769;stroke-linecap:round;stroke-linejoin:round;stroke-miterlimit:10;stroke-dasharray:none;stroke-opacity:1"
               id="path1172" />
          </g>
        </g>
        <g
           id="g1174"
           transform="matrix(1,0,0,-1,0,792)">
          <g
             id="g1176">
            <path
               d="m 912.57288,596.48566 c -0.06,-0.24456 -0.0705,-1.369 -0.0157,-1.68666"
               style="fill:none;stroke:#000000;stroke-width:1.30769;stroke-linecap:round;stroke-linejoin:round;stroke-miterlimit:10;stroke-dasharray:none;stroke-opacity:1"
               id="path1178" />
          </g>
        </g>
        <g
           id="g1180"
           transform="matrix(1,0,0,-1,0,792)">
          <g
             id="g1182">
            <path
               d="m 909.82404,608.97217 c 0.93411,0.0554 4.92781,0.13771 5.99055,0.12341"
               style="fill:none;stroke:#000000;stroke-width:1.30769;stroke-linecap:round;stroke-linejoin:round;stroke-miterlimit:10;stroke-dasharray:none;stroke-opacity:1"
               id="path1184" />
          </g>
        </g>
        <g
           id="g1186"
           transform="matrix(1,0,0,-1,0,792)">
          <g
             id="g1188">
            <path
               d="m 910.27783,609.72968 c 0.19225,0.31881 0.58177,2.31 0.58428,2.98678"
               style="fill:none;stroke:#000000;stroke-width:1.30769;stroke-linecap:round;stroke-linejoin:round;stroke-miterlimit:10;stroke-dasharray:none;stroke-opacity:1"
               id="path1190" />
          </g>
        </g>
        <g
           id="g1192"
           transform="matrix(1,0,0,-1,0,792)">
          <g
             id="g1194">
            <path
               d="m 912.42731,611.42181 0.21589,1.69545"
               style="fill:none;stroke:#000000;stroke-width:1.30769;stroke-linecap:round;stroke-linejoin:round;stroke-miterlimit:10;stroke-dasharray:none;stroke-opacity:1"
               id="path1196" />
          </g>
        </g>
        <g
           id="g1198"
           transform="matrix(1,0,0,-1,0,792)">
          <g
             id="g1200">
            <path
               d="m 909.76184,622.86969 c 0.97018,0.1268 4.30626,0.112 5.00413,-0.0222"
               style="fill:none;stroke:#000000;stroke-width:1.30769;stroke-linecap:round;stroke-linejoin:round;stroke-miterlimit:10;stroke-dasharray:none;stroke-opacity:1"
               id="path1202" />
          </g>
        </g>
        <g
           id="g1204"
           transform="matrix(1,0,0,-1,0,792)">
          <g
             id="g1206">
            <path
               d="m 1092.7753,617.86511 c -0.9987,-18.78557 -2.4548,-39.13342 -5.1239,-56.78747"
               style="fill:none;stroke:#000000;stroke-width:1.30769;stroke-linecap:round;stroke-linejoin:round;stroke-miterlimit:10;stroke-dasharray:none;stroke-opacity:1"
               id="path1208" />
          </g>
        </g>
        <g
           id="g1210"
           transform="matrix(1,0,0,-1,0,792)">
          <g
             id="g1212">
            <path
               d="m 1081.4077,566.49908 c 1.736,1.20356 -0.1815,3.85135 1.7959,4.99191"
               style="fill:none;stroke:#000000;stroke-width:1.30769;stroke-linecap:round;stroke-linejoin:round;stroke-miterlimit:10;stroke-dasharray:none;stroke-opacity:1"
               id="path1214" />
          </g>
        </g>
        <g
           id="g1216"
           transform="matrix(1,0,0,-1,0,792)">
          <g
             id="g1218">
            <path
               d="m 1082.7509,570.33789 c 0.5813,-0.17846 3.3447,-0.44392 4.1452,-0.39819"
               style="fill:none;stroke:#000000;stroke-width:1.30769;stroke-linecap:round;stroke-linejoin:round;stroke-miterlimit:10;stroke-dasharray:none;stroke-opacity:1"
               id="path1220" />
          </g>
        </g>
        <g
           id="g1222"
           transform="matrix(1,0,0,-1,0,792)">
          <g
             id="g1224">
            <path
               d="m 1083.0509,581.49518 c 1.095,-2.41659 -0.2785,-6.52622 4.8344,-4.12461"
               style="fill:none;stroke:#000000;stroke-width:1.30769;stroke-linecap:round;stroke-linejoin:round;stroke-miterlimit:10;stroke-dasharray:none;stroke-opacity:1"
               id="path1226" />
          </g>
        </g>
        <g
           id="g1228"
           transform="matrix(1,0,0,-1,0,792)">
          <g
             id="g1230">
            <path
               d="m 1087.1691,578.3371 c 0.057,0.24387 0.085,1.81858 0.042,2.36207"
               style="fill:none;stroke:#000000;stroke-width:1.30769;stroke-linecap:round;stroke-linejoin:round;stroke-miterlimit:10;stroke-dasharray:none;stroke-opacity:1"
               id="path1232" />
          </g>
        </g>
        <g
           id="g1234"
           transform="matrix(1,0,0,-1,0,792)">
          <g
             id="g1236">
            <path
               d="m 1085.3308,578.36078 c 0.1418,0.36516 0.573,2.44117 0.6468,3.11401"
               style="fill:none;stroke:#000000;stroke-width:1.30769;stroke-linecap:round;stroke-linejoin:round;stroke-miterlimit:10;stroke-dasharray:none;stroke-opacity:1"
               id="path1238" />
          </g>
        </g>
        <g
           id="g1240"
           transform="matrix(1,0,0,-1,0,792)">
          <g
             id="g1242">
            <path
               d="m 1083.4603,594.25842 c 1.8244,0.73118 4.5689,-2.02606 6.1855,-0.0572"
               style="fill:none;stroke:#000000;stroke-width:1.30769;stroke-linecap:round;stroke-linejoin:round;stroke-miterlimit:10;stroke-dasharray:none;stroke-opacity:1"
               id="path1244" />
          </g>
        </g>
        <g
           id="g1246"
           transform="matrix(1,0,0,-1,0,792)">
          <g
             id="g1248">
            <path
               d="m 1083.5249,594.224 c 0.2479,0.54863 0.7143,2.75197 0.6997,3.30501"
               style="fill:none;stroke:#000000;stroke-width:1.30769;stroke-linecap:round;stroke-linejoin:round;stroke-miterlimit:10;stroke-dasharray:none;stroke-opacity:1"
               id="path1250" />
          </g>
        </g>
        <g
           id="g1252"
           transform="matrix(1,0,0,-1,0,792)">
          <g
             id="g1254">
            <path
               d="m 1085.9758,593.49402 0.6274,2.47119"
               style="fill:none;stroke:#000000;stroke-width:1.30769;stroke-linecap:round;stroke-linejoin:round;stroke-miterlimit:10;stroke-dasharray:none;stroke-opacity:1"
               id="path1256" />
          </g>
        </g>
        <g
           id="g1258"
           transform="matrix(1,0,0,-1,0,792)">
          <g
             id="g1260">
            <path
               d="m 1085.38,610.01935 c -0.8791,1.79182 4.1875,-1.81655 4.9526,-0.14254"
               style="fill:none;stroke:#000000;stroke-width:1.30769;stroke-linecap:round;stroke-linejoin:round;stroke-miterlimit:10;stroke-dasharray:none;stroke-opacity:1"
               id="path1262" />
          </g>
        </g>
        <g
           id="g1264"
           transform="matrix(1,0,0,-1,0,792)">
          <g
             id="g1266">
            <path
               d="m 777.41058,712.20105 c 21.113,-2.81852 48.66549,3.08157 63.93226,-14.95888 6.70139,-9.25468 10.81387,-20.12287 13.58308,-31.13533"
               style="fill:none;stroke:#000000;stroke-width:1.30769;stroke-linecap:round;stroke-linejoin:round;stroke-miterlimit:10;stroke-dasharray:none;stroke-opacity:1"
               id="path1268" />
          </g>
        </g>
        <g
           id="g1270"
           transform="matrix(1,0,0,-1,0,792)">
          <g
             id="g1272">
            <path
               d="m 858.41028,657.87689 c 6.65352,-27.56504 5.8716,-57.0287 -3.68572,-83.74983 -1.9851,-4.28384 -4.88744,-8.29609 -8.95486,-10.81578"
               style="fill:none;stroke:#000000;stroke-width:1.30769;stroke-linecap:round;stroke-linejoin:round;stroke-miterlimit:10;stroke-dasharray:none;stroke-opacity:1"
               id="path1274" />
          </g>
        </g>
        <g
           id="g1276"
           transform="matrix(1,0,0,-1,0,792)">
          <g
             id="g1278">
            <path
               d="m 706.79926,548.89343 c 32.60171,-1.56182 65.27192,0.14085 97.8821,-0.20211 11.5074,0.76524 23.11932,2.90428 33.53997,8.02802"
               style="fill:none;stroke:#000000;stroke-width:1.30769;stroke-linecap:round;stroke-linejoin:round;stroke-miterlimit:10;stroke-dasharray:none;stroke-opacity:1"
               id="path1280" />
          </g>
        </g>
        <g
           id="g1282"
           transform="matrix(1,0,0,-1,0,792)">
          <g
             id="g1284">
            <path
               d="m 706.10303,555.43115 c 34.39518,-3.68462 68.99019,0.86049 103.37702,1.8584 4.52132,0.5496 9.042,1.16254 13.59411,1.39552"
               style="fill:none;stroke:#000000;stroke-width:1.30769;stroke-linecap:round;stroke-linejoin:round;stroke-miterlimit:10;stroke-dasharray:none;stroke-opacity:1"
               id="path1286" />
          </g>
        </g>
        <g
           id="g1288"
           transform="matrix(1,0,0,-1,0,792)">
          <g
             id="g1290">
            <path
               d="m 831.45886,562.04462 c 20.92916,5.44912 23.21994,29.02578 25.49877,46.92668 1.74499,27.84806 -0.80413,59.13229 -19.33208,81.393 -2.54677,2.63262 -5.4694,4.90565 -8.67105,6.68843"
               style="fill:none;stroke:#000000;stroke-width:1.30769;stroke-linecap:round;stroke-linejoin:round;stroke-miterlimit:10;stroke-dasharray:none;stroke-opacity:1"
               id="path1292" />
          </g>
        </g>
        <g
           id="g1294"
           transform="matrix(1,0,0,-1,0,792)">
          <g
             id="g1296">
            <path
               d="m 813.62457,702.26721 c -38.51707,6.62113 -78.17034,4.28452 -116.69793,4.59759"
               style="fill:none;stroke:#000000;stroke-width:1.30769;stroke-linecap:round;stroke-linejoin:round;stroke-miterlimit:10;stroke-dasharray:none;stroke-opacity:1"
               id="path1298" />
          </g>
        </g>
        <g
           id="g1300"
           transform="matrix(1,0,0,-1,0,792)">
          <g
             id="g1302">
            <path
               d="m 701.2821,713.56445 c 20.49536,1.08719 41.0301,0.85513 61.54425,0.67343"
               style="fill:none;stroke:#000000;stroke-width:1.30769;stroke-linecap:round;stroke-linejoin:round;stroke-miterlimit:10;stroke-dasharray:none;stroke-opacity:1"
               id="path1304" />
          </g>
        </g>
        <g
           id="g1306"
           transform="matrix(1,0,0,-1,0,792)">
          <g
             id="g1308">
            <path
               d="m 910.27165,663.62012 c 36.21143,0.67013 73.2536,4.76806 108.75455,-4.11815 2.3125,-0.48689 6.773,-4.93185 6.2882,-6.39075"
               style="fill:none;stroke:#000000;stroke-width:1.30769;stroke-linecap:round;stroke-linejoin:round;stroke-miterlimit:10;stroke-dasharray:none;stroke-opacity:1"
               id="path1310"
               sodipodi:nodetypes="cccc" />
          </g>
        </g>
        <g
           id="g1312"
           transform="matrix(1,0,0,-1,0,792)">
          <g
             id="g1314">
            <path
               d="m 681.66626,714.68109 c 23.99112,7.473 49.51712,1.87755 74.1907,3.35788 29.22916,-0.4861 59.4106,0.0595 87.88078,-7.89861 20.23649,-9.81374 21.33474,-35.43601 23.51672,-55.543"
               style="fill:none;stroke:#000000;stroke-width:1.30769;stroke-linecap:round;stroke-linejoin:round;stroke-miterlimit:10;stroke-dasharray:none;stroke-opacity:1"
               id="path1316"
               sodipodi:nodetypes="cccc" />
          </g>
        </g>
        <g
           id="g1318"
           transform="matrix(1,0,0,-1,0,792)">
          <g
             id="g1320">
            <path
               d="m 1143.9485,639.62441 c 4.9013,-0.26983 9.4337,-2.838 13.8916,-4.69027"
               style="fill:none;stroke:#000000;stroke-width:1.30769;stroke-linecap:round;stroke-linejoin:round;stroke-miterlimit:10;stroke-dasharray:none;stroke-opacity:1"
               id="path1322"
               sodipodi:nodetypes="cc" />
          </g>
        </g>
        <g
           id="g1324"
           transform="matrix(1,0,0,-1,0,792)">
          <g
             id="g1326">
            <path
               d="m 930.39984,656.36462 c 27.76249,0.18624 56.01802,-0.2551 83.25566,-5.50313 13.5447,-8.46551 19.9154,-25.84754 20.9975,-41.19161 0.5943,-21.72832 -4.575,-47.84297 -27.2721,-56.83403 -27.68968,-7.57978 -56.7932,-2.95145 -85.01521,-2.06208 -4.46712,0.72027 -9.07955,2.76416 -11.44019,6.85017"
               style="fill:none;stroke:#000000;stroke-width:1.30769;stroke-linecap:round;stroke-linejoin:round;stroke-miterlimit:10;stroke-dasharray:none;stroke-opacity:1"
               id="path1328" />
          </g>
        </g>
        <g
           id="g1330"
           transform="matrix(1,0,0,-1,0,792)">
          <g
             id="g1332">
            <path
               d="m 914.3736,560.08636 c 14.58453,-10.00782 33.62812,-1.81758 50.08575,-4.75172 20.96963,-1.28671 47.90045,-0.6116 58.23725,21.21721 10.4916,21.03147 7.9892,48.61274 -8.2308,65.97372 -14.46879,8.9875 -33.2213,7.97639 -49.82222,9.00706 -13.23286,-0.0531 -26.58655,-1.14761 -39.37613,-4.70623"
               style="fill:none;stroke:#000000;stroke-width:1.30769;stroke-linecap:round;stroke-linejoin:round;stroke-miterlimit:10;stroke-dasharray:none;stroke-opacity:1"
               id="path1334"
               sodipodi:nodetypes="ccccccc" />
          </g>
        </g>
        <g
           id="g1336"
           transform="matrix(1,0,0,-1,0,792)">
          <g
             id="g1338">
            <path
               d="m 1092.332,628.47943 c 23.4615,-1.83286 49.5559,1.35363 69.9472,-12.73806 19.015,-20.7583 1.2398,-57.64458 -25.8928,-59.47076 -16.7216,-2.83786 -34.2136,-2.10237 -50.9069,-0.53719"
               style="fill:none;stroke:#000000;stroke-width:1.30769;stroke-linecap:round;stroke-linejoin:round;stroke-miterlimit:10;stroke-dasharray:none;stroke-opacity:1"
               id="path1340" />
          </g>
        </g>
        <g
           id="g1342"
           transform="matrix(1,0,0,-1,0,792)">
          <g
             id="g1344">
            <path
               d="m 1080.3573,548.9295 c 28.2494,-1.18731 61.3505,-5.30309 83.8424,15.79779 12.4993,15.82598 19.6247,42.63603 0.9853,56.88247 -14.112,13.20052 -34.6116,11.66842 -52.491,13.00588 -7.3319,0.0585 -14.7157,-0.0696 -21.9727,1.15087"
               style="fill:none;stroke:#000000;stroke-width:1.30769;stroke-linecap:round;stroke-linejoin:round;stroke-miterlimit:10;stroke-dasharray:none;stroke-opacity:1"
               id="path1346" />
          </g>
        </g>
      </g>
    </g>
  </g>
</svg>
