<?xml version="1.0" encoding="UTF-8" standalone="no"?>
<!-- Created by Ashley Blewer - This work is licensed under a Creative Commons Attribution 4.0 International License -->

<svg
   width="544"
   height="480"
   viewBox="0 0 143.93334 127"
   version="1.1"
   id="svg2490"
   inkscape:version="1.2.2 (1:1.2.2+202212051552+b0a8486541)"
   sodipodi:docname="1947-dictabelt-1.svg"
   xmlns:inkscape="http://www.inkscape.org/namespaces/inkscape"
   xmlns:sodipodi="http://sodipodi.sourceforge.net/DTD/sodipodi-0.dtd"
   xmlns="http://www.w3.org/2000/svg"
   xmlns:svg="http://www.w3.org/2000/svg">
  <sodipodi:namedview
     id="namedview2492"
     pagecolor="#ffffff"
     bordercolor="#666666"
     borderopacity="1.0"
     inkscape:pageshadow="2"
     inkscape:pageopacity="0.0"
     inkscape:pagecheckerboard="0"
     inkscape:document-units="mm"
     showgrid="false"
     units="px"
     inkscape:zoom="0.90583674"
     inkscape:cx="53.541657"
     inkscape:cy="253.35691"
     inkscape:window-width="1846"
     inkscape:window-height="1136"
     inkscape:window-x="0"
     inkscape:window-y="0"
     inkscape:window-maximized="1"
     inkscape:current-layer="g4731"
     inkscape:showpageshadow="2"
     inkscape:deskcolor="#d1d1d1" />
  <defs
     id="defs2487" />
  <g
     inkscape:label="Layer 1"
     inkscape:groupmode="layer"
     id="layer1">
    <g
       id="g4731"
       transform="matrix(0.32961229,0,0,0.32903008,-241.78905,1.73126)"
       style="stroke-width:2.68698">
      <g
         id="g104528"
         transform="matrix(1,0,0,-1,0,792)"
         style="stroke-width:2.68698">
        <g
           id="g104530"
           style="stroke-width:2.68698" />
      </g>
      <g
         id="g104996"
         transform="matrix(1,0,0,-1,0,792)"
         style="stroke-width:2.68698">
        <g
           id="g104998"
           style="stroke-width:2.68698" />
      </g>
      <g
         id="g2605"
         transform="matrix(1.2812672,0,0,1.2815301,-234.61038,-116.1853)"
         style="stroke-width:2.55213">
        <g
           id="g76"
           transform="matrix(1,0,0,-1,0,792)"
           style="stroke-width:2.55213">
          <g
             id="g78"
             style="stroke-width:2.55213">
            <path
               d="m 795.8717,685.27667 c 3.86041,-45.31831 6.42188,-90.89108 11.60331,-136.01864 l 1.10196,-2.02022 1.88317,-1.49155"
               style="fill:none;stroke:#000000;stroke-width:3.23794;stroke-linecap:round;stroke-linejoin:round;stroke-miterlimit:10;stroke-dasharray:none;stroke-opacity:1"
               id="path80" />
          </g>
        </g>
        <g
           id="g82"
           transform="matrix(1,0,0,-1,0,792)"
           style="stroke-width:2.55213">
          <g
             id="g84"
             style="stroke-width:2.55213">
            <path
               d="m 808.95642,545.42505 c 1.23036,-11.54831 -0.2192,-25.39174 0.43674,-37.00018"
               style="fill:none;stroke:#000000;stroke-width:3.23794;stroke-linecap:round;stroke-linejoin:round;stroke-miterlimit:10;stroke-dasharray:none;stroke-opacity:1"
               id="path86"
               sodipodi:nodetypes="cc" />
          </g>
        </g>
        <g
           id="g88"
           transform="matrix(1,0,0,-1,0,792)"
           style="stroke-width:2.55213">
          <g
             id="g90"
             style="stroke-width:2.55213">
            <path
               d="m 837.22235,416.67819 c -10.377,20.9915 -17.55351,44.0187 -23.63093,66.66746 -1.65484,8.30062 -3.48083,16.66567 -4.19826,25.07922"
               style="fill:none;stroke:#000000;stroke-width:3.23794;stroke-linecap:round;stroke-linejoin:round;stroke-miterlimit:10;stroke-dasharray:none;stroke-opacity:1"
               id="path92" />
          </g>
        </g>
        <g
           id="g94"
           transform="matrix(1,0,0,-1,0,792)"
           style="stroke-width:2.55213">
          <g
             id="g96"
             style="stroke-width:2.55213">
            <path
               d="m 811.52435,542.33575 c 10.12164,-25.55503 17.65215,-54.0319 26.07856,-80.27084"
               style="fill:none;stroke:#000000;stroke-width:3.23794;stroke-linecap:round;stroke-linejoin:round;stroke-miterlimit:10;stroke-dasharray:none;stroke-opacity:1"
               id="path98"
               sodipodi:nodetypes="cc" />
          </g>
        </g>
        <g
           id="g100"
           transform="matrix(1,0,0,-1,0,792)"
           style="stroke-width:2.55213">
          <g
             id="g102"
             style="stroke-width:2.55213">
            <path
               d="m 837.60291,462.06491 c 0.63293,-15.27584 -0.18001,-30.73486 1.19712,-45.94049"
               style="fill:none;stroke:#000000;stroke-width:3.23794;stroke-linecap:round;stroke-linejoin:round;stroke-miterlimit:10;stroke-dasharray:none;stroke-opacity:1"
               id="path104" />
          </g>
        </g>
        <g
           id="g106"
           transform="matrix(1,0,0,-1,0,792)"
           style="stroke-width:2.55213">
          <g
             id="g108"
             style="stroke-width:2.55213">
            <path
               d="m 797.18518,684.41187 c 32.2876,-10.26284 65.87481,0.41404 98.4542,3.67755 34.73158,5.2023 70.78677,4.31218 104.02191,-7.96129 16.66171,-2.34527 38.08291,-8.42506 51.72301,4.09995 -9.9507,9.90083 -33.7409,10.63047 -52.64643,10.81269 -17.80914,-1.12252 -36.75477,-4.57989 -53.45438,-4.65468"
               style="fill:none;stroke:#000000;stroke-width:3.23794;stroke-linecap:round;stroke-linejoin:round;stroke-miterlimit:10;stroke-dasharray:none;stroke-opacity:1"
               id="path110"
               sodipodi:nodetypes="cccccc" />
          </g>
        </g>
        <g
           id="g112"
           transform="matrix(1,0,0,-1,0,792)"
           style="stroke-width:2.55213">
          <g
             id="g114"
             style="stroke-width:2.55213">
            <path
               d="m 878.49284,685.80944 c -26.65489,-3.74512 -53.79314,7.85869 -79.66126,3.7209 -0.42563,-2.04382 -3.52342,-3.0539 -3.31212,-5.39465"
               style="fill:none;stroke:#000000;stroke-width:3.23794;stroke-linecap:round;stroke-linejoin:round;stroke-miterlimit:10;stroke-dasharray:none;stroke-opacity:1"
               id="path116"
               sodipodi:nodetypes="ccc" />
          </g>
        </g>
        <g
           id="g118"
           transform="matrix(1,0,0,-1,0,792)"
           style="stroke-width:2.55213">
          <g
             id="g120"
             style="stroke-width:2.55213">
            <path
               d="m 1049.4457,680.62341 c -5.3744,-22.594 -9.68,-46.26974 -11.9834,-69.63556 -3.4604,-20.75088 -4.0941,-45.88058 -5.781,-66.80487"
               style="fill:none;stroke:#000000;stroke-width:3.23794;stroke-linecap:round;stroke-linejoin:round;stroke-miterlimit:10;stroke-dasharray:none;stroke-opacity:1"
               id="path122"
               sodipodi:nodetypes="ccc" />
          </g>
        </g>
        <g
           id="g124"
           transform="matrix(1,0,0,-1,0,792)"
           style="stroke-width:2.55213">
          <g
             id="g126"
             style="stroke-width:2.55213">
            <path
               d="m 1028.4086,548.94891 c 10.0544,-15.28621 27.6178,-30.13987 39.2695,-44.09668"
               style="fill:none;stroke:#000000;stroke-width:3.23794;stroke-linecap:round;stroke-linejoin:round;stroke-miterlimit:10;stroke-dasharray:none;stroke-opacity:1"
               id="path128"
               sodipodi:nodetypes="cc" />
          </g>
        </g>
        <g
           id="g130"
           transform="matrix(1,0,0,-1,0,792)"
           style="stroke-width:2.55213">
          <g
             id="g132"
             style="stroke-width:2.55213">
            <path
               d="m 1067.6781,504.85223 c -0.1849,-14.38981 -4.1398,-30.62793 -6.4445,-43.3956"
               style="fill:none;stroke:#000000;stroke-width:3.23794;stroke-linecap:round;stroke-linejoin:round;stroke-miterlimit:10;stroke-dasharray:none;stroke-opacity:1"
               id="path134" />
          </g>
        </g>
        <g
           id="g136"
           transform="matrix(1,0,0,-1,0,792)"
           style="stroke-width:2.55213">
          <g
             id="g138"
             style="stroke-width:2.55213">
            <path
               d="m 837.22235,416.67819 c 26.75122,1.06994 56.43481,6.45768 82.59184,11.99593 46.11445,9.57654 92.12871,19.75364 138.43471,28.43291 l 2.962,0.96882 2.3455,1.1165"
               style="fill:none;stroke:#000000;stroke-width:3.23794;stroke-linecap:round;stroke-linejoin:round;stroke-miterlimit:10;stroke-dasharray:none;stroke-opacity:1"
               id="path140"
               sodipodi:nodetypes="ccccc" />
          </g>
        </g>
        <g
           id="g142"
           transform="matrix(1,0,0,-1,0,792)"
           style="stroke-width:2.55213">
          <g
             id="g144"
             style="stroke-width:2.55213">
            <path
               d="m 837.60291,462.06491 c 75.64571,15.12672 157.79505,12.89264 230.07519,42.78732"
               style="fill:none;stroke:#000000;stroke-width:3.23794;stroke-linecap:round;stroke-linejoin:round;stroke-miterlimit:10;stroke-dasharray:none;stroke-opacity:1"
               id="path146"
               sodipodi:nodetypes="cc" />
          </g>
        </g>
        <g
           id="g148"
           transform="matrix(1,0,0,-1,0,792)"
           style="stroke-width:2.55213">
          <g
             id="g150"
             style="stroke-width:2.55213">
            <path
               d="m 808.57697,547.23781 c 10.0019,-1.50319 24.87068,1.72468 34.71611,3.05733"
               style="fill:none;stroke:#000000;stroke-width:3.23794;stroke-linecap:round;stroke-linejoin:round;stroke-miterlimit:10;stroke-dasharray:none;stroke-opacity:1"
               id="path152"
               sodipodi:nodetypes="cc" />
          </g>
        </g>
        <g
           id="g154"
           transform="matrix(1,0,0,-1,0,792)"
           style="stroke-width:2.55213">
          <g
             id="g156"
             style="stroke-width:2.55213">
            <path
               d="m 884.84326,557.01147 61.40442,11.53522"
               style="fill:none;stroke:#000000;stroke-width:3.23794;stroke-linecap:round;stroke-linejoin:round;stroke-miterlimit:10;stroke-dasharray:none;stroke-opacity:1"
               id="path158"
               sodipodi:nodetypes="cc" />
          </g>
        </g>
        <g
           id="g160"
           transform="matrix(1,0,0,-1,0,792)"
           style="stroke-width:2.55213">
          <g
             id="g162"
             style="stroke-width:2.55213">
            <path
               d="m 984.11025,572.42014 c 0,0 13.20852,2.32258 19.02315,2.6209"
               style="fill:none;stroke:#000000;stroke-width:3.23794;stroke-linecap:round;stroke-linejoin:round;stroke-miterlimit:10;stroke-dasharray:none;stroke-opacity:1"
               id="path164"
               sodipodi:nodetypes="cc" />
          </g>
        </g>
        <g
           id="g166"
           transform="matrix(1,0,0,-1,0,792)"
           style="stroke-width:2.55213">
          <g
             id="g168"
             style="stroke-width:2.55213">
            <path
               d="m 1003.1334,575.04104 c 8.5205,-9.40257 20.1731,-21.64312 28.5479,-30.85806"
               style="fill:none;stroke:#000000;stroke-width:3.23794;stroke-linecap:round;stroke-linejoin:round;stroke-miterlimit:10;stroke-dasharray:none;stroke-opacity:1"
               id="path170"
               sodipodi:nodetypes="cc" />
          </g>
        </g>
        <g
           id="g172"
           transform="matrix(1,0,0,-1,0,792)"
           style="stroke-width:2.55213">
          <g
             id="g174"
             style="stroke-width:2.55213">
            <path
               d="m 949.12268,578.09399 c 17.54444,14.8238 53.43422,-9.98072 18.94849,-15.60723 -7.94694,-2.07872 -28.715,5.11933 -18.34173,15.43952"
               style="fill:none;stroke:#000000;stroke-width:3.23794;stroke-linecap:round;stroke-linejoin:round;stroke-miterlimit:10;stroke-dasharray:none;stroke-opacity:1"
               id="path176" />
          </g>
        </g>
        <g
           id="g178"
           transform="matrix(1,0,0,-1,0,792)"
           style="stroke-width:2.55213">
          <g
             id="g180"
             style="stroke-width:2.55213">
            <path
               d="m 842.3938,570.22675 c 3.24855,16.83329 54.01726,11.46006 33.85509,-4.92055 -9.15509,-2.33505 -36.44032,-7.85416 -32.97323,7.70786"
               style="fill:none;stroke:#000000;stroke-width:3.23794;stroke-linecap:round;stroke-linejoin:round;stroke-miterlimit:10;stroke-dasharray:none;stroke-opacity:1"
               id="path182" />
          </g>
        </g>
        <g
           id="g184"
           transform="matrix(1,0,0,-1,0,792)"
           style="stroke-width:2.55213">
          <g
             id="g186"
             style="stroke-width:2.55213">
            <path
               d="m 842.3938,570.22675 c 3.91858,-10.06354 -0.18782,-32.85738 5.24301,-39.86322"
               style="fill:none;stroke:#000000;stroke-width:3.23794;stroke-linecap:round;stroke-linejoin:round;stroke-miterlimit:10;stroke-dasharray:none;stroke-opacity:1"
               id="path188"
               sodipodi:nodetypes="cc" />
          </g>
        </g>
        <g
           id="g190"
           transform="matrix(1,0,0,-1,0,792)"
           style="stroke-width:2.55213">
          <g
             id="g192"
             style="stroke-width:2.55213">
            <path
               d="m 881.26355,571.47099 c -0.5641,-5.60451 0.91808,-16.8335 1.94892,-22.41254"
               style="fill:none;stroke:#000000;stroke-width:3.23794;stroke-linecap:round;stroke-linejoin:round;stroke-miterlimit:10;stroke-dasharray:none;stroke-opacity:1"
               id="path194"
               sodipodi:nodetypes="cc" />
          </g>
        </g>
        <g
           id="g196"
           transform="matrix(1,0,0,-1,0,792)"
           style="stroke-width:2.55213">
          <g
             id="g198"
             style="stroke-width:2.55213">
            <path
               d="m 946.24768,568.54669 c -0.57273,-7.87951 0.17448,-21.08621 0.27595,-28.08876"
               style="fill:none;stroke:#000000;stroke-width:3.23794;stroke-linecap:round;stroke-linejoin:round;stroke-miterlimit:10;stroke-dasharray:none;stroke-opacity:1"
               id="path200"
               sodipodi:nodetypes="cc" />
          </g>
        </g>
        <g
           id="g202"
           transform="matrix(1,0,0,-1,0,792)"
           style="stroke-width:2.55213">
          <g
             id="g204"
             style="stroke-width:2.55213">
            <path
               d="m 984.11025,572.42014 c -1.59558,-11.66427 -3.12011,-29.16335 -3.02419,-40.92746"
               style="fill:none;stroke:#000000;stroke-width:3.23794;stroke-linecap:round;stroke-linejoin:round;stroke-miterlimit:10;stroke-dasharray:none;stroke-opacity:1"
               id="path206"
               sodipodi:nodetypes="cc" />
          </g>
        </g>
        <g
           id="g208"
           transform="matrix(1,0,0,-1,0,792)"
           style="stroke-width:2.55213">
          <g
             id="g210"
             style="stroke-width:2.55213">
            <path
               d="m 838.38951,518.43258 c 13.28779,17.75573 32.06435,31.94143 56.09955,27.99128 24.1627,-2.13048 48.45512,-5.02109 72.13253,-10.36808 14.22035,-4.70757 28.0442,-13.00907 43.51761,-8.7572"
               style="fill:none;stroke:#000000;stroke-width:3.23794;stroke-linecap:round;stroke-linejoin:round;stroke-miterlimit:10;stroke-dasharray:none;stroke-opacity:1"
               id="path212"
               sodipodi:nodetypes="cccc" />
          </g>
        </g>
        <g
           id="g214"
           transform="matrix(1,0,0,-1,0,792)"
           style="stroke-width:2.55213">
          <g
             id="g216"
             style="stroke-width:2.55213">
            <path
               d="m 1011.0845,526.00647 c 2.4545,-8.95947 8.1382,-18.4796 10.6566,-26.25426"
               style="fill:none;stroke:#000000;stroke-width:3.23794;stroke-linecap:round;stroke-linejoin:round;stroke-miterlimit:10;stroke-dasharray:none;stroke-opacity:1"
               id="path218" />
          </g>
        </g>
        <g
           id="g220"
           transform="matrix(1,0,0,-1,0,792)"
           style="stroke-width:2.55213">
          <g
             id="g222"
             style="stroke-width:2.55213">
            <path
               d="m 1021.7411,499.75221 c -24.59112,-7.01691 -52.85419,5.50906 -76.70638,10.01641 -22.07195,5.80274 -38.65565,8.53467 -67.33203,7.04499 -20.79823,-1.34582 -34.23579,-18.16151 -37.72585,-24.68179 -2.68241,8.56061 -2.87469,17.43477 -1.58733,26.30076"
               style="fill:none;stroke:#000000;stroke-width:3.23794;stroke-linecap:round;stroke-linejoin:round;stroke-miterlimit:10;stroke-dasharray:none;stroke-opacity:1"
               id="path224"
               sodipodi:nodetypes="ccccc" />
          </g>
        </g>
        <g
           id="g226"
           transform="matrix(1,0,0,-1,0,792)"
           style="stroke-width:2.55213">
          <g
             id="g228"
             style="stroke-width:2.55213">
            <path
               d="m 846.40753,498.82755 c 4.18945,-4.61817 4.9167,-11.07663 7.32423,-16.60944"
               style="fill:none;stroke:#000000;stroke-width:1.61897;stroke-linecap:round;stroke-linejoin:round;stroke-miterlimit:10;stroke-dasharray:none;stroke-opacity:1"
               id="path230" />
          </g>
        </g>
        <g
           id="g232"
           transform="matrix(1,0,0,-1,0,792)"
           style="stroke-width:2.55213">
          <g
             id="g234"
             style="stroke-width:2.55213">
            <path
               d="m 853.73176,482.21811 c 40.93242,7.70963 76.40172,14.20891 113.33171,21.01515"
               style="fill:none;stroke:#000000;stroke-width:1.61897;stroke-linecap:round;stroke-linejoin:round;stroke-miterlimit:10;stroke-dasharray:none;stroke-opacity:1"
               id="path236"
               sodipodi:nodetypes="cc" />
          </g>
        </g>
        <g
           id="g238"
           transform="matrix(1,0,0,-1,0,792)"
           style="stroke-width:2.55213">
          <g
             id="g240"
             style="stroke-width:2.55213">
            <path
               d="m 985.67944,529.20038 c 12.50322,2.3917 25.12466,4.11082 37.76706,5.5711"
               style="fill:none;stroke:#000000;stroke-width:1.61897;stroke-linecap:round;stroke-linejoin:round;stroke-miterlimit:10;stroke-dasharray:none;stroke-opacity:1"
               id="path242" />
          </g>
        </g>
        <g
           id="g244"
           transform="matrix(1,0,0,-1,0,792)"
           style="stroke-width:2.55213">
          <g
             id="g246"
             style="stroke-width:2.55213">
            <path
               d="m 1023.4465,534.77148 c 5.3309,-5.03228 8.954,-13.45126 14.7944,-18.02347"
               style="fill:none;stroke:#000000;stroke-width:1.61897;stroke-linecap:round;stroke-linejoin:round;stroke-miterlimit:10;stroke-dasharray:none;stroke-opacity:1"
               id="path248"
               sodipodi:nodetypes="cc" />
          </g>
        </g>
        <g
           id="g250"
           transform="matrix(1,0,0,-1,0,792)"
           style="stroke-width:2.55213">
          <g
             id="g252"
             style="stroke-width:2.55213">
            <path
               d="m 1017.4073,511.216 c 5.8535,2.13538 14.8929,3.74038 20.8336,5.53201"
               style="fill:none;stroke:#000000;stroke-width:1.61897;stroke-linecap:round;stroke-linejoin:round;stroke-miterlimit:10;stroke-dasharray:none;stroke-opacity:1"
               id="path254"
               sodipodi:nodetypes="cc" />
          </g>
        </g>
        <g
           id="g256"
           transform="matrix(1,0,0,-1,0,792)"
           style="stroke-width:2.55213">
          <g
             id="g258"
             style="stroke-width:2.55213">
            <path
               d="m 859.74597,559.46796 c 0.81173,-6.07895 0.67329,-12.32321 2.60902,-18.20054"
               style="fill:none;stroke:#000000;stroke-width:1.61897;stroke-linecap:round;stroke-linejoin:round;stroke-miterlimit:10;stroke-dasharray:none;stroke-opacity:1"
               id="path260" />
          </g>
        </g>
        <g
           id="g262"
           transform="matrix(1,0,0,-1,0,792)"
           style="stroke-width:2.55213">
          <g
             id="g264"
             style="stroke-width:2.55213">
            <path
               d="m 874.73657,680.19446 c 9.80659,-16.182 -8.57867,-22.98645 -1.75219,-37.38052 -8.09295,-11.40928 -8.10283,-28.43662 -16.66234,-33.87976"
               style="fill:none;stroke:#000000;stroke-width:1.61897;stroke-linecap:round;stroke-linejoin:round;stroke-miterlimit:10;stroke-dasharray:none;stroke-opacity:1"
               id="path266" />
          </g>
        </g>
        <g
           id="g268"
           transform="matrix(1,0,0,-1,0,792)"
           style="stroke-width:2.55213">
          <g
             id="g270"
             style="stroke-width:2.55213">
            <path
               d="m 854.54645,610.43817 c -7.71678,-6.38606 -6.81037,-23.30161 -8.70704,-3.76824 -5.73207,25.87954 -11.80754,-12.94067 -25.76527,-2.33872 -4.0202,-0.18351 -7.49217,-3.66268 -10.18503,-5.42901"
               style="fill:none;stroke:#000000;stroke-width:1.61897;stroke-linecap:round;stroke-linejoin:round;stroke-miterlimit:10;stroke-dasharray:none;stroke-opacity:1"
               id="path272" />
          </g>
        </g>
        <g
           id="g274"
           transform="matrix(1,0,0,-1,0,792)"
           style="stroke-width:2.55213">
          <g
             id="g276"
             style="stroke-width:2.55213">
            <path
               d="m 820.55713,555.0047 c 3.38387,16.28443 -0.35024,34.38234 7.8954,49.65216 6.23167,-5.61794 5.08708,-23.73605 13.87374,-14.9405 l 1.91928,-1.41631 1.77889,-0.87889"
               style="fill:none;stroke:#000000;stroke-width:1.61897;stroke-linecap:round;stroke-linejoin:round;stroke-miterlimit:10;stroke-dasharray:none;stroke-opacity:1"
               id="path278" />
          </g>
        </g>
        <g
           id="g280"
           transform="matrix(1,0,0,-1,0,792)"
           style="stroke-width:2.55213">
          <g
             id="g282"
             style="stroke-width:2.55213">
            <path
               d="m 854.87445,592.54535 c 11.23806,-21.37021 4.86396,17.85751 16.39095,14.25914 0.44238,3.03737 1.79501,5.8553 2.04059,8.93158"
               style="fill:none;stroke:#000000;stroke-width:1.61897;stroke-linecap:round;stroke-linejoin:round;stroke-miterlimit:10;stroke-dasharray:none;stroke-opacity:1"
               id="path284" />
          </g>
        </g>
        <g
           id="g286"
           transform="matrix(1,0,0,-1,0,792)"
           style="stroke-width:2.55213">
          <g
             id="g288"
             style="stroke-width:2.55213">
            <path
               d="m 875.05963,619.57611 c -2.25455,-15.22953 8.0862,-13.01294 8.28975,0.79941 5.66046,-6.64619 9.63813,-17.96722 17.96405,-10.38432 4.35239,-3.05617 6.8421,-8.0438 10.83882,-11.49844"
               style="fill:none;stroke:#000000;stroke-width:1.61897;stroke-linecap:round;stroke-linejoin:round;stroke-miterlimit:10;stroke-dasharray:none;stroke-opacity:1"
               id="path290" />
          </g>
        </g>
        <g
           id="g292"
           transform="matrix(1,0,0,-1,0,792)"
           style="stroke-width:2.55213">
          <g
             id="g294"
             style="stroke-width:2.55213">
            <path
               d="m 922.99225,604.02136 c 9.10645,-6.94102 16.77197,-9.1e-4 25.37192,-7.43215 6.02121,8.46082 28.24744,-1.38477 23.82782,16.49261"
               style="fill:none;stroke:#000000;stroke-width:1.61897;stroke-linecap:round;stroke-linejoin:round;stroke-miterlimit:10;stroke-dasharray:none;stroke-opacity:1"
               id="path296" />
          </g>
        </g>
        <g
           id="g298"
           transform="matrix(1,0,0,-1,0,792)"
           style="stroke-width:2.55213">
          <g
             id="g300"
             style="stroke-width:2.55213">
            <path
               d="m 981.76062,617.80078 -0.0224,-1.10095"
               style="fill:none;stroke:#000000;stroke-width:1.61897;stroke-linecap:round;stroke-linejoin:round;stroke-miterlimit:10;stroke-dasharray:none;stroke-opacity:1"
               id="path302" />
          </g>
        </g>
        <g
           id="g304"
           transform="matrix(1,0,0,-1,0,792)"
           style="stroke-width:2.55213">
          <g
             id="g306"
             style="stroke-width:2.55213">
            <path
               d="m 979.18402,617.44409 c 0.94912,9.99783 -3.45043,40.66748 3.8908,15.24852 -3.18635,-0.27341 2.04262,20.11754 6.6263,4.0983 1.36249,-4.15516 3.58139,-7.91417 6.13958,-11.44216"
               style="fill:none;stroke:#000000;stroke-width:1.61897;stroke-linecap:round;stroke-linejoin:round;stroke-miterlimit:10;stroke-dasharray:none;stroke-opacity:1"
               id="path308" />
          </g>
        </g>
        <g
           id="g310"
           transform="matrix(1,0,0,-1,0,792)"
           style="stroke-width:2.55213">
          <g
             id="g312"
             style="stroke-width:2.55213">
            <path
               d="m 996.8493,626.78619 c -1.80957,-8.75645 1.7933,-33.79905 5.4811,-31.76553 -1.0281,15.03802 5.9793,-28.16405 13.6014,-19.16584"
               style="fill:none;stroke:#000000;stroke-width:1.61897;stroke-linecap:round;stroke-linejoin:round;stroke-miterlimit:10;stroke-dasharray:none;stroke-opacity:1"
               id="path314" />
          </g>
        </g>
        <g
           id="g316"
           transform="matrix(1,0,0,-1,0,792)"
           style="stroke-width:2.55213">
          <g
             id="g318"
             style="stroke-width:2.55213">
            <path
               d="m 1026.9768,615.0907 c -0.5367,-23.331 -8.198,10.65224 -14.8059,-1.15474 -9.7005,19.51427 -13.4768,41.58333 -17.82905,62.79428 l -0.035,2.51506"
               style="fill:none;stroke:#000000;stroke-width:1.61897;stroke-linecap:round;stroke-linejoin:round;stroke-miterlimit:10;stroke-dasharray:none;stroke-opacity:1"
               id="path320" />
          </g>
        </g>
        <g
           id="g322"
           transform="matrix(1,0,0,-1,0,792)"
           style="stroke-width:2.55213">
          <g
             id="g324"
             style="stroke-width:2.55213">
            <path
               d="m 997.78735,660.31708 c -0.0518,-5.46338 -1.98766,6.91935 -3.53788,6.93544"
               style="fill:none;stroke:#000000;stroke-width:1.61897;stroke-linecap:round;stroke-linejoin:round;stroke-miterlimit:10;stroke-dasharray:none;stroke-opacity:1"
               id="path326" />
          </g>
        </g>
        <g
           id="g328"
           transform="matrix(1,0,0,-1,0,792)"
           style="stroke-width:2.55213">
          <g
             id="g330"
             style="stroke-width:2.55213">
            <path
               d="m 966.44604,684.10492 c 0.71279,-6.31917 10.9513,-42.09838 2.16124,-23.95378 2.24774,-9.25388 3.9299,-28.0085 -0.82282,-33.14443"
               style="fill:none;stroke:#000000;stroke-width:1.61897;stroke-linecap:round;stroke-linejoin:round;stroke-miterlimit:10;stroke-dasharray:none;stroke-opacity:1"
               id="path332" />
          </g>
        </g>
        <g
           id="g334"
           transform="matrix(1,0,0,-1,0,792)"
           style="stroke-width:2.55213">
          <g
             id="g336"
             style="stroke-width:2.55213">
            <path
               d="m 963.7879,633.32648 c 0.3763,-13.37603 -8.08589,-21.02601 -19.39586,-13.23938 -6.6095,-16.92579 -16.98645,13.39512 -26.05073,-3.92579"
               style="fill:none;stroke:#000000;stroke-width:1.61897;stroke-linecap:round;stroke-linejoin:round;stroke-miterlimit:10;stroke-dasharray:none;stroke-opacity:1"
               id="path338" />
          </g>
        </g>
        <g
           id="g340"
           transform="matrix(1,0,0,-1,0,792)"
           style="stroke-width:2.55213">
          <g
             id="g342"
             style="stroke-width:2.55213">
            <path
               d="m 910.35632,626.06567 c -5.33659,-3.87522 -7.30816,8.14279 -8.14117,11.13385"
               style="fill:none;stroke:#000000;stroke-width:1.61897;stroke-linecap:round;stroke-linejoin:round;stroke-miterlimit:10;stroke-dasharray:none;stroke-opacity:1"
               id="path344" />
          </g>
        </g>
        <g
           id="g346"
           transform="matrix(1,0,0,-1,0,792)"
           style="stroke-width:2.55213">
          <g
             id="g348"
             style="stroke-width:2.55213">
            <path
               d="m 901.08917,640.65503 c 3.30021,-16.02439 -2.52877,23.05562 -1.22327,28.42662 0.0631,16.31966 11.48021,-4.85608 2.82123,10.81623 -1.26222,0.74529 -0.34205,4.68395 1.56768,3.33735"
               style="fill:none;stroke:#000000;stroke-width:1.61897;stroke-linecap:round;stroke-linejoin:round;stroke-miterlimit:10;stroke-dasharray:none;stroke-opacity:1"
               id="path350" />
          </g>
        </g>
      </g>
    </g>
  </g>
</svg>
