<?xml version="1.0" encoding="UTF-8" standalone="no"?>
<!-- Created by Ashley Blewer - This work is licensed under a Creative Commons Attribution 4.0 International License -->

<svg
   width="544"
   height="480"
   viewBox="0 0 143.93334 127"
   version="1.1"
   id="svg2490"
   inkscape:version="1.2.2 (1:1.2.2+202212051552+b0a8486541)"
   sodipodi:docname="1947-dictabelt-3.svg"
   xmlns:inkscape="http://www.inkscape.org/namespaces/inkscape"
   xmlns:sodipodi="http://sodipodi.sourceforge.net/DTD/sodipodi-0.dtd"
   xmlns="http://www.w3.org/2000/svg"
   xmlns:svg="http://www.w3.org/2000/svg">
  <sodipodi:namedview
     id="namedview2492"
     pagecolor="#ffffff"
     bordercolor="#666666"
     borderopacity="1.0"
     inkscape:pageshadow="2"
     inkscape:pageopacity="0.0"
     inkscape:pagecheckerboard="0"
     inkscape:document-units="mm"
     showgrid="false"
     units="px"
     inkscape:zoom="0.90583674"
     inkscape:cx="53.541657"
     inkscape:cy="253.35691"
     inkscape:window-width="1846"
     inkscape:window-height="1136"
     inkscape:window-x="0"
     inkscape:window-y="0"
     inkscape:window-maximized="1"
     inkscape:current-layer="g4731"
     inkscape:showpageshadow="2"
     inkscape:deskcolor="#d1d1d1" />
  <defs
     id="defs2487" />
  <g
     inkscape:label="Layer 1"
     inkscape:groupmode="layer"
     id="layer1">
    <g
       id="g4731"
       transform="matrix(0.32961229,0,0,0.32903008,-241.78905,1.73126)"
       style="stroke-width:2.68698">
      <g
         id="g104528"
         transform="matrix(1,0,0,-1,0,792)"
         style="stroke-width:2.68698">
        <g
           id="g104530"
           style="stroke-width:2.68698" />
      </g>
      <g
         id="g104996"
         transform="matrix(1,0,0,-1,0,792)"
         style="stroke-width:2.68698">
        <g
           id="g104998"
           style="stroke-width:2.68698" />
      </g>
      <g
         id="g2733"
         transform="matrix(1.5969063,0,0,1.597234,-698.24185,-778.1287)"
         style="stroke-width:2.55213">
        <g
           id="g352"
           transform="matrix(1,0,0,-1,0,792)"
           style="stroke-width:2.55213">
          <g
             id="g354"
             style="stroke-width:2.55213">
            <path
               d="m 940.79474,280.18417 c -2.2664,-0.67662 -7.83718,0.66895 -7.22318,2.88303 1.9119,3.3592 7.17344,2.59107 10.63542,4.17718 9.00921,0.86995 18.10716,0.81916 27.19159,0.39207 11.84574,0.16102 23.68775,0.34397 35.53493,0.54197 15.6432,0.38079 31.3181,0.60202 46.8643,2.49196 19.7826,1.06025 39.5422,5.22803 59.4029,3.47758 l 0.4405,-0.0514"
               style="fill:none;stroke:#000000;stroke-width:3.23794;stroke-linecap:round;stroke-linejoin:round;stroke-miterlimit:10;stroke-dasharray:none;stroke-opacity:1"
               id="path356" />
          </g>
        </g>
        <g
           id="g358"
           transform="matrix(1,0,0,-1,0,792)"
           style="stroke-width:2.55213">
          <g
             id="g360"
             style="stroke-width:2.55213">
            <path
               d="m 956.31784,287.57789 c 13.14839,1.47947 42.63651,1.52176 55.13046,6.76889 9.1463,3.88599 19.5654,3.39577 29.3571,3.00354 12.3551,-0.52172 24.6636,-1.56913 37.0137,-2.06743 l 8.3611,-0.87312"
               style="fill:none;stroke:#000000;stroke-width:3.23794;stroke-linecap:round;stroke-linejoin:round;stroke-miterlimit:10;stroke-dasharray:none;stroke-opacity:1"
               id="path362"
               sodipodi:nodetypes="ccccc" />
          </g>
        </g>
        <g
           id="g364"
           transform="matrix(1,0,0,-1,0,792)"
           style="stroke-width:2.55213">
          <g
             id="g366"
             style="stroke-width:2.55213">
            <path
               d="m 933.10663,280.53128 c 1.5008,-9.3349 2.06551,-18.56118 3.35008,-27.8909 0.44965,-11.29755 -0.0769,-22.89635 0.46021,-34.39574 0.44699,-8.3594 1.08342,-17.07934 -0.0464,-25.31741 0.59109,-4.08325 0.35929,-8.19561 2.08081,-11.79202 0.21111,-1.88227 0.3522,-3.88568 1.15099,-5.57657"
               style="fill:none;stroke:#000000;stroke-width:3.23794;stroke-linecap:round;stroke-linejoin:round;stroke-miterlimit:10;stroke-dasharray:none;stroke-opacity:1"
               id="path368" />
          </g>
        </g>
        <g
           id="g370"
           transform="matrix(1,0,0,-1,0,792)"
           style="stroke-width:2.55213">
          <g
             id="g372"
             style="stroke-width:2.55213">
            <path
               d="m 940.79474,280.18417 c 1.78285,2.70772 3.66675,4.86796 7.62503,3.65396 15.68677,0.37002 31.31252,1.61425 47.00471,0.48469 6.33142,0.12295 12.66422,0.81106 18.88602,-0.0222"
               style="fill:none;stroke:#000000;stroke-width:3.23794;stroke-linecap:round;stroke-linejoin:round;stroke-miterlimit:10;stroke-dasharray:none;stroke-opacity:1"
               id="path374"
               sodipodi:nodetypes="cccc" />
          </g>
        </g>
        <g
           id="g376"
           transform="matrix(1,0,0,-1,0,792)"
           style="stroke-width:2.55213">
          <g
             id="g378"
             style="stroke-width:2.55213">
            <path
               d="m 1015.9185,283.35913 c 4.5997,-2.30199 16.5699,-2.40252 16.5699,-2.40252 0,0 11.2529,-0.60169 15.3311,3.38228 1.5442,0.58994 8.4013,2.78261 9.8775,3.50614"
               style="fill:none;stroke:#000000;stroke-width:3.23794;stroke-linecap:round;stroke-linejoin:round;stroke-miterlimit:10;stroke-dasharray:none;stroke-opacity:1"
               id="path380"
               sodipodi:nodetypes="cccc" />
          </g>
        </g>
        <g
           id="g382"
           transform="matrix(1,0,0,-1,0,792)"
           style="stroke-width:2.55213">
          <g
             id="g384"
             style="stroke-width:2.55213">
            <path
               d="m 1057.697,287.84503 c 11.3239,1.0803 22.5636,2.54954 33.9623,2.70141 6.5553,0.71425 13.2606,0.91853 19.6198,2.67419"
               style="fill:none;stroke:#000000;stroke-width:3.23794;stroke-linecap:round;stroke-linejoin:round;stroke-miterlimit:10;stroke-dasharray:none;stroke-opacity:1"
               id="path386" />
          </g>
        </g>
        <g
           id="g388"
           transform="matrix(1,0,0,-1,0,792)"
           style="stroke-width:2.55213">
          <g
             id="g390"
             style="stroke-width:2.55213">
            <path
               d="m 1114.6149,292.7908 c 2.2954,-2.44133 4.5371,-6.97656 3.4101,-11.00486 -1.4793,-8.26115 -1.9824,-16.52045 -2.1602,-24.88477 -1.0834,-8.14097 0.1025,-16.42026 -1.2328,-24.58142 -1.079,-9.29393 -4.1187,-18.3712 -3.804,-27.75131 -2.0626,-3.79447 -2.8343,-8.27933 -2.8224,-12.72244 -0.2267,-1.2316 -0.1604,-2.53544 -0.6379,-3.70792"
               style="fill:none;stroke:#000000;stroke-width:3.23794;stroke-linecap:round;stroke-linejoin:round;stroke-miterlimit:10;stroke-dasharray:none;stroke-opacity:1"
               id="path392" />
          </g>
        </g>
        <g
           id="g394"
           transform="matrix(1,0,0,-1,0,792)"
           style="stroke-width:2.55213">
          <g
             id="g396"
             style="stroke-width:2.55213">
            <path
               d="m 940.34998,175.45039 c 3.42831,-2.5921 6.80035,-2.33799 10.174,-0.0244 18.41445,5.85919 38.00716,2.00602 56.93842,3.59801 9.5915,1.05099 19.3778,-0.0302 28.8765,1.60848 3.1911,2.40622 9.1289,1.50701 13.4462,1.99283 14.5375,0.51768 28.7245,5.05503 43.2522,4.93859 5.0415,-0.58171 10.3894,-1.08744 15.324,0.30945"
               style="fill:none;stroke:#000000;stroke-width:3.23794;stroke-linecap:round;stroke-linejoin:round;stroke-miterlimit:10;stroke-dasharray:none;stroke-opacity:1"
               id="path398" />
          </g>
        </g>
        <g
           id="g400"
           transform="matrix(1,0,0,-1,0,792)"
           style="stroke-width:2.55213">
          <g
             id="g402"
             style="stroke-width:2.55213">
            <path
               d="m 982.53949,176.14368 c 0,0 7.75588,-4.20566 12.35712,-3.49025 13.80089,-0.43811 27.54819,1.45991 41.16709,3.41812 10.6181,1.01646 21.2654,2.12228 31.7811,3.72069 9.8029,3.46757 20.7052,4.30584 30.8476,1.79549 3.571,-0.35204 7.1512,-0.57291 10.7073,-0.27852"
               style="fill:none;stroke:#000000;stroke-width:3.23794;stroke-linecap:round;stroke-linejoin:round;stroke-miterlimit:10;stroke-dasharray:none;stroke-opacity:1"
               id="path404"
               sodipodi:nodetypes="cccccc" />
          </g>
        </g>
        <g
           id="g406"
           transform="matrix(1,0,0,-1,0,792)"
           style="stroke-width:2.55213">
          <g
             id="g408"
             style="stroke-width:2.55213">
            <path
               d="m 1108.2399,181.40042 c 2.224,-7.60308 5.6526,-15.285 8.8833,-22.65651 2.2513,-5.97018 8.5925,-9.599 10.8523,-15.71621 4.5866,-10.38447 12.7701,-19.11603 15.349,-30.35716 4.511,-5.15405 2.6448,-11.752 8.8522,-10.83212"
               style="fill:none;stroke:#000000;stroke-width:3.23794;stroke-linecap:round;stroke-linejoin:round;stroke-miterlimit:10;stroke-dasharray:none;stroke-opacity:1"
               id="path410"
               sodipodi:nodetypes="ccccc" />
          </g>
        </g>
        <g
           id="g412"
           transform="matrix(1,0,0,-1,0,792)"
           style="stroke-width:2.55213">
          <g
             id="g414"
             style="stroke-width:2.55213">
            <path
               d="m 982.53949,176.14368 c -4.60853,2.93348 -10.9569,2.16932 -16.34741,2.57614 -6.15111,0.4767 -11.49062,-2.63189 -17.50147,-3.39008"
               style="fill:none;stroke:#000000;stroke-width:3.23794;stroke-linecap:round;stroke-linejoin:round;stroke-miterlimit:10;stroke-dasharray:none;stroke-opacity:1"
               id="path416" />
          </g>
        </g>
        <g
           id="g418"
           transform="matrix(1,0,0,-1,0,792)"
           style="stroke-width:2.55213">
          <g
             id="g420"
             style="stroke-width:2.55213">
            <path
               d="m 947.38721,173.42665 c 1.90608,-7.09414 2.08869,-15.06386 3.60061,-22.51288 1.11647,-10.89315 3.75547,-21.55501 5.10816,-32.39606 1.03338,-6.50082 1.82559,-13.10882 2.4648,-19.696482 0.57093,-5.32967 2.93111,-10.409044 3.42364,-15.676979 l 0.50519,-0.270561"
               style="fill:none;stroke:#000000;stroke-width:3.23794;stroke-linecap:round;stroke-linejoin:round;stroke-miterlimit:10;stroke-dasharray:none;stroke-opacity:1"
               id="path422" />
          </g>
        </g>
        <g
           id="g424"
           transform="matrix(1,0,0,-1,0,792)"
           style="stroke-width:2.55213">
          <g
             id="g426"
             style="stroke-width:2.55213">
            <path
               d="m 962.06812,80.846626 c 7.3976,-5.220904 16.91487,-4.257522 25.29796,-2.328794 16.08062,2.476165 32.09792,5.889179 47.90092,9.650406 9.4806,3.063065 19.6511,3.183032 29.4012,5.198145 16.2333,2.668074 32.7343,2.748223 49.1049,3.752141 9.8059,-0.648998 11.8742,-2.33386 16.6684,-5.980231 4.912,-4.104951 11.9842,-3.540401 16.7613,0.46897 3.4258,2.002856 9.4876,6.396938 4.9739,10.231157 -0.4873,0.3425 -8.3099,11.67039 -8.8522,10.83212"
               style="fill:none;stroke:#000000;stroke-width:3.23794;stroke-linecap:round;stroke-linejoin:round;stroke-miterlimit:10;stroke-dasharray:none;stroke-opacity:1"
               id="path428"
               sodipodi:nodetypes="ccccccccc" />
          </g>
        </g>
        <g
           id="g430"
           transform="matrix(1,0,0,-1,0,792)"
           style="stroke-width:2.55213">
          <g
             id="g432"
             style="stroke-width:2.55213">
            <path
               d="m 1152.1767,101.83842 c -7.9049,1.79321 -20.141,1.31383 -28.1894,0.99894 -7.4916,-1.01603 -11.8426,-1.63309 -19.4096,-2.08172 -7.0577,-1.740634 -14.066,-3.308982 -21.0765,-5.258952"
               style="fill:none;stroke:#000000;stroke-width:3.23794;stroke-linecap:round;stroke-linejoin:round;stroke-miterlimit:10;stroke-dasharray:none;stroke-opacity:1"
               id="path434"
               sodipodi:nodetypes="cccc" />
          </g>
        </g>
        <g
           id="g436"
           transform="matrix(1,0,0,-1,0,792)"
           style="stroke-width:2.55213">
          <g
             id="g438"
             style="stroke-width:2.55213">
            <path
               d="m 1035.267,88.168238 c -6.3049,-2.139213 -16.6117,-0.17828 -21.9247,3.485945 -8.3045,4.224692 -11.1803,5.22037 -25.46122,5.780502 -8.46477,0.04308 -18.80173,-5.818293 -24.59802,-11.523008 -1.56045,-1.640955 -1.91812,-2.431703 -1.21494,-5.065051"
               style="fill:none;stroke:#000000;stroke-width:3.23794;stroke-linecap:round;stroke-linejoin:round;stroke-miterlimit:10;stroke-dasharray:none;stroke-opacity:1"
               id="path440"
               sodipodi:nodetypes="ccccc" />
          </g>
        </g>
        <g
           id="g442"
           transform="matrix(1,0,0,-1,0,792)"
           style="stroke-width:2.55213">
          <g
             id="g444"
             style="stroke-width:2.55213">
            <path
               d="m 937.44836,231.95961 c 1.03003,-1.47407 6.10498,-2.76751 9.0408,-2.97839 15.62008,-0.35516 31.35959,0.0967 46.79103,2.81277 14.69931,1.78299 29.26471,4.89174 44.11451,5.31816 15.8157,1.86636 31.7787,-0.27989 47.5975,1.10354 9.9601,1.28014 20.0437,1.88291 29.6935,4.84669 l 0.3071,-0.24252"
               style="fill:none;stroke:#000000;stroke-width:1.61897;stroke-linecap:round;stroke-linejoin:round;stroke-miterlimit:10;stroke-dasharray:none;stroke-opacity:1"
               id="path446" />
          </g>
        </g>
        <g
           id="g448"
           transform="matrix(1,0,0,-1,0,792)"
           style="stroke-width:2.55213">
          <g
             id="g450"
             style="stroke-width:2.55213">
            <path
               d="m 936.99658,192.25995 c 21.3131,-13.71636 46.22163,2.46825 69.20472,1.78174 35.7776,4.21106 69.0184,4.57376 104.6267,10.52675"
               style="fill:none;stroke:#000000;stroke-width:1.61897;stroke-linecap:round;stroke-linejoin:round;stroke-miterlimit:10;stroke-dasharray:none;stroke-opacity:1"
               id="path452"
               sodipodi:nodetypes="ccc" />
          </g>
        </g>
        <g
           id="g454"
           transform="matrix(1,0,0,-1,0,792)"
           style="stroke-width:2.55213">
          <g
             id="g456"
             style="stroke-width:2.55213">
            <path
               d="m 978.65295,242.04291 c 2.73987,3.03534 3.83101,1.62388 3.60377,-2.01718 0.14818,-1.00156 0.12004,-4.56729 0.32376,-4.35449"
               style="fill:none;stroke:#000000;stroke-width:1.61897;stroke-linecap:round;stroke-linejoin:round;stroke-miterlimit:10;stroke-dasharray:none;stroke-opacity:1"
               id="path458" />
          </g>
        </g>
        <g
           id="g460"
           transform="matrix(1,0,0,-1,0,792)"
           style="stroke-width:2.55213">
          <g
             id="g462"
             style="stroke-width:2.55213">
            <path
               d="m 986.83899,244.55225 c -2.1166,-1.882 -2.49092,-5.99367 -0.29977,-8.24327 4.86651,-0.63509 5.34896,7.55114 1.24218,8.69123"
               style="fill:none;stroke:#000000;stroke-width:1.61897;stroke-linecap:round;stroke-linejoin:round;stroke-miterlimit:10;stroke-dasharray:none;stroke-opacity:1"
               id="path464" />
          </g>
        </g>
        <g
           id="g466"
           transform="matrix(1,0,0,-1,0,792)"
           style="stroke-width:2.55213">
          <g
             id="g468"
             style="stroke-width:2.55213">
            <path
               d="m 996.36975,244.73387 c 0.53945,-2.84614 0.61597,-6.97002 1.05192,-9.24305"
               style="fill:none;stroke:#000000;stroke-width:1.61897;stroke-linecap:round;stroke-linejoin:round;stroke-miterlimit:10;stroke-dasharray:none;stroke-opacity:1"
               id="path470" />
          </g>
        </g>
        <g
           id="g472"
           transform="matrix(1,0,0,-1,0,792)"
           style="stroke-width:2.55213">
          <g
             id="g474"
             style="stroke-width:2.55213">
            <path
               d="m 996.15796,243.2393 c 2.18432,2.23265 6.34414,-1.2647 4.89644,-4.15007 0.4869,-2.49144 -3.12545,-3.86687 -4.65719,-2.01272"
               style="fill:none;stroke:#000000;stroke-width:1.61897;stroke-linecap:round;stroke-linejoin:round;stroke-miterlimit:10;stroke-dasharray:none;stroke-opacity:1"
               id="path476" />
          </g>
        </g>
        <g
           id="g478"
           transform="matrix(1,0,0,-1,0,792)"
           style="stroke-width:2.55213">
          <g
             id="g480"
             style="stroke-width:2.55213">
            <path
               d="m 1003.6751,242.03558 c 0.8035,0.18007 0.4983,-4.34283 0.518,-3.62288"
               style="fill:none;stroke:#000000;stroke-width:1.61897;stroke-linecap:round;stroke-linejoin:round;stroke-miterlimit:10;stroke-dasharray:none;stroke-opacity:1"
               id="path482" />
          </g>
        </g>
        <g
           id="g484"
           transform="matrix(1,0,0,-1,0,792)"
           style="stroke-width:2.55213">
          <g
             id="g486"
             style="stroke-width:2.55213">
            <path
               d="m 1003.6132,245.12148 c 0.5382,-0.14012 -0.3186,-0.44739 0.071,-0.1356"
               style="fill:none;stroke:#000000;stroke-width:1.61897;stroke-linecap:round;stroke-linejoin:round;stroke-miterlimit:10;stroke-dasharray:none;stroke-opacity:1"
               id="path488" />
          </g>
        </g>
        <g
           id="g490"
           transform="matrix(1,0,0,-1,0,792)"
           style="stroke-width:2.55213">
          <g
             id="g492"
             style="stroke-width:2.55213">
            <path
               d="m 1010.3694,242.25888 c -2.0848,2.89846 -5.8238,-2.31292 -2.6211,-4.31694 0.6899,-0.2619 3.1712,-0.51242 2.5084,0.99068"
               style="fill:none;stroke:#000000;stroke-width:1.61897;stroke-linecap:round;stroke-linejoin:round;stroke-miterlimit:10;stroke-dasharray:none;stroke-opacity:1"
               id="path494" />
          </g>
        </g>
        <g
           id="g496"
           transform="matrix(1,0,0,-1,0,792)"
           style="stroke-width:2.55213">
          <g
             id="g498"
             style="stroke-width:2.55213">
            <path
               d="m 1014.2029,245.82832 c 1.4091,-0.91831 -1.8027,-8.88947 3.1623,-6.26136 0.936,0.3025 0.653,0.32439 0.4375,0.87555"
               style="fill:none;stroke:#000000;stroke-width:1.61897;stroke-linecap:round;stroke-linejoin:round;stroke-miterlimit:10;stroke-dasharray:none;stroke-opacity:1"
               id="path500" />
          </g>
        </g>
        <g
           id="g502"
           transform="matrix(1,0,0,-1,0,792)"
           style="stroke-width:2.55213">
          <g
             id="g504"
             style="stroke-width:2.55213">
            <path
               d="m 1012.1485,244.39767 c 0.8648,0.22075 1.7297,0.4415 2.5945,0.66225"
               style="fill:none;stroke:#000000;stroke-width:1.61897;stroke-linecap:round;stroke-linejoin:round;stroke-miterlimit:10;stroke-dasharray:none;stroke-opacity:1"
               id="path506" />
          </g>
        </g>
        <g
           id="g508"
           transform="matrix(1,0,0,-1,0,792)"
           style="stroke-width:2.55213">
          <g
             id="g510"
             style="stroke-width:2.55213">
            <path
               d="m 1017.8655,243.48122 c 2.9324,2.57228 4.8203,0.36345 4.791,-2.64485 0.6196,3.40136 -6.5381,-0.24192 -1.3423,-0.58638 0.4836,0.10015 1.2595,-0.0132 1.5087,0.53736"
               style="fill:none;stroke:#000000;stroke-width:1.61897;stroke-linecap:round;stroke-linejoin:round;stroke-miterlimit:10;stroke-dasharray:none;stroke-opacity:1"
               id="path512" />
          </g>
        </g>
        <g
           id="g514"
           transform="matrix(1,0,0,-1,0,792)"
           style="stroke-width:2.55213">
          <g
             id="g516"
             style="stroke-width:2.55213">
            <path
               d="m 1025.6187,247.79343 c 0.4228,-2.22809 1.3453,-6.93014 0.7932,-8.19455 0.9081,0.25214 -0.8917,1.29264 -0.7052,1.68898"
               style="fill:none;stroke:#000000;stroke-width:1.61897;stroke-linecap:round;stroke-linejoin:round;stroke-miterlimit:10;stroke-dasharray:none;stroke-opacity:1"
               id="path518" />
          </g>
        </g>
        <g
           id="g520"
           transform="matrix(1,0,0,-1,0,792)"
           style="stroke-width:2.55213">
          <g
             id="g522"
             style="stroke-width:2.55213">
            <path
               d="m 1026.0422,242.99042 c -0.32,1.76097 6.0267,2.7486 4.1545,-0.50582 0.3383,-1.9927 -3.623,-4.12637 -4.2915,-1.74031"
               style="fill:none;stroke:#000000;stroke-width:1.61897;stroke-linecap:round;stroke-linejoin:round;stroke-miterlimit:10;stroke-dasharray:none;stroke-opacity:1"
               id="path524" />
          </g>
        </g>
        <g
           id="g526"
           transform="matrix(1,0,0,-1,0,792)"
           style="stroke-width:2.55213">
          <g
             id="g528"
             style="stroke-width:2.55213">
            <path
               d="m 1033.6669,243.85152 c 5.6644,-1.63886 1.6041,4.72714 -0.048,0.0304 -1.0526,-2.0497 1.4934,-3.40265 2.7921,-1.91924"
               style="fill:none;stroke:#000000;stroke-width:1.61897;stroke-linecap:round;stroke-linejoin:round;stroke-miterlimit:10;stroke-dasharray:none;stroke-opacity:1"
               id="path530" />
          </g>
        </g>
        <g
           id="g532"
           transform="matrix(1,0,0,-1,0,792)"
           style="stroke-width:2.55213">
          <g
             id="g534"
             style="stroke-width:2.55213">
            <path
               d="m 1038.7786,248.74219 c 0.7857,-1.8788 0.1926,-7.08092 -0.033,-7.63047"
               style="fill:none;stroke:#000000;stroke-width:1.61897;stroke-linecap:round;stroke-linejoin:round;stroke-miterlimit:10;stroke-dasharray:none;stroke-opacity:1"
               id="path536" />
          </g>
        </g>
        <g
           id="g538"
           transform="matrix(1,0,0,-1,0,792)"
           style="stroke-width:2.55213">
          <g
             id="g540"
             style="stroke-width:2.55213">
            <path
               d="m 1042.9699,246.90663 c 1.0674,-0.29186 -1.7039,-6.50225 2.2621,-5.88602 1.0225,-0.3556 0.6834,0.15608 0.3795,0.64531"
               style="fill:none;stroke:#000000;stroke-width:1.61897;stroke-linecap:round;stroke-linejoin:round;stroke-miterlimit:10;stroke-dasharray:none;stroke-opacity:1"
               id="path542" />
          </g>
        </g>
        <g
           id="g544"
           transform="matrix(1,0,0,-1,0,792)"
           style="stroke-width:2.55213">
          <g
             id="g546"
             style="stroke-width:2.55213">
            <path
               d="m 1041.4821,245.42693 c 0.8125,-0.18976 2.196,0.46653 3.1627,0.57733"
               style="fill:none;stroke:#000000;stroke-width:1.61897;stroke-linecap:round;stroke-linejoin:round;stroke-miterlimit:10;stroke-dasharray:none;stroke-opacity:1"
               id="path548" />
          </g>
        </g>
        <g
           id="g550"
           transform="matrix(1,0,0,-1,0,792)"
           style="stroke-width:2.55213">
          <g
             id="g552"
             style="stroke-width:2.55213">
            <path
               d="m 1049.3683,241.67651 c 0.079,2.30384 -1.0428,7.9186 3.2802,7.72019 2.7274,-2.37357 -4.561,-5.48223 0.1942,-3.41742 2.0991,-0.40897 2.6764,-5.24788 2.1239,-5.39601"
               style="fill:none;stroke:#000000;stroke-width:1.61897;stroke-linecap:round;stroke-linejoin:round;stroke-miterlimit:10;stroke-dasharray:none;stroke-opacity:1"
               id="path554" />
          </g>
        </g>
        <g
           id="g556"
           transform="matrix(1,0,0,-1,0,792)"
           style="stroke-width:2.55213">
          <g
             id="g558"
             style="stroke-width:2.55213">
            <path
               d="m 1057.5466,245.55508 c 3.7178,-2.06774 3.4862,4.45014 0.5511,0.0444 -0.9078,-2.23571 2.6996,-4.50722 3.2286,-1.62997"
               style="fill:none;stroke:#000000;stroke-width:1.61897;stroke-linecap:round;stroke-linejoin:round;stroke-miterlimit:10;stroke-dasharray:none;stroke-opacity:1"
               id="path560" />
          </g>
        </g>
        <g
           id="g562"
           transform="matrix(1,0,0,-1,0,792)"
           style="stroke-width:2.55213">
          <g
             id="g564"
             style="stroke-width:2.55213">
            <path
               d="m 1066.6646,247.02951 c -1.6387,2.46929 -4.3437,-5.99384 0.031,-3.88127 l 0.1707,0.17326"
               style="fill:none;stroke:#000000;stroke-width:1.61897;stroke-linecap:round;stroke-linejoin:round;stroke-miterlimit:10;stroke-dasharray:none;stroke-opacity:1"
               id="path566" />
          </g>
        </g>
        <g
           id="g568"
           transform="matrix(1,0,0,-1,0,792)"
           style="stroke-width:2.55213">
          <g
             id="g570"
             style="stroke-width:2.55213">
            <path
               d="m 1072.9861,247.43649 c -3.9717,1.14772 -1.7707,-6.16026 1.3047,-1.80377 -0.5646,0.81793 -1.1105,2.2782 -2.378,1.6528"
               style="fill:none;stroke:#000000;stroke-width:1.61897;stroke-linecap:round;stroke-linejoin:round;stroke-miterlimit:10;stroke-dasharray:none;stroke-opacity:1"
               id="path572" />
          </g>
        </g>
        <g
           id="g574"
           transform="matrix(1,0,0,-1,0,792)"
           style="stroke-width:2.55213">
          <g
             id="g576"
             style="stroke-width:2.55213">
            <path
               d="m 1078.8639,243.85648 c -0.2674,1.79807 -1.7177,4.95426 1.874,4.14588"
               style="fill:none;stroke:#000000;stroke-width:1.61897;stroke-linecap:round;stroke-linejoin:round;stroke-miterlimit:10;stroke-dasharray:none;stroke-opacity:1"
               id="path578" />
          </g>
        </g>
        <g
           id="g580"
           transform="matrix(1,0,0,-1,0,792)"
           style="stroke-width:2.55213">
          <g
             id="g582"
             style="stroke-width:2.55213">
            <path
               d="m 1086.4805,247.26089 c -5.8969,2.51421 -3.1566,-7.36404 -0.4635,-2.24452 0.808,2.01848 -0.038,8.30389 -0.1609,3.29423 -1.3428,-1.59417 0.1711,-4.27677 0.5727,-4.46658"
               style="fill:none;stroke:#000000;stroke-width:1.61897;stroke-linecap:round;stroke-linejoin:round;stroke-miterlimit:10;stroke-dasharray:none;stroke-opacity:1"
               id="path584" />
          </g>
        </g>
        <g
           id="g586"
           transform="matrix(1,0,0,-1,0,792)"
           style="stroke-width:2.55213">
          <g
             id="g588"
             style="stroke-width:2.55213">
            <path
               d="m 1092.8635,248.66908 c -5.3632,-0.85608 -0.7871,-2.33439 0.1035,-3.90621 -0.9312,-0.77946 -2.3345,-0.85461 -3.4106,-0.36017"
               style="fill:none;stroke:#000000;stroke-width:1.61897;stroke-linecap:round;stroke-linejoin:round;stroke-miterlimit:10;stroke-dasharray:none;stroke-opacity:1"
               id="path590" />
          </g>
        </g>
        <g
           id="g592"
           transform="matrix(1,0,0,-1,0,792)"
           style="stroke-width:2.55213">
          <g
             id="g594"
             style="stroke-width:2.55213">
            <path
               d="m 1061.4442,192.75365 c 9.3723,0.59152 18.7534,0.75696 28.1172,0.45362 1.2641,0.14525 2.5346,-0.12726 3.7998,-0.15905"
               style="fill:none;stroke:#000000;stroke-width:1.61897;stroke-linecap:round;stroke-linejoin:round;stroke-miterlimit:10;stroke-dasharray:none;stroke-opacity:1"
               id="path596" />
          </g>
        </g>
        <g
           id="g598"
           transform="matrix(1,0,0,-1,0,792)"
           style="stroke-width:2.55213">
          <g
             id="g600"
             style="stroke-width:2.55213">
            <path
               d="m 1088.5375,99.617821 c 14.3449,2.286359 28.3541,10.108619 43.2537,7.177479 2.6188,-0.33997 5.028,-1.50814 7.6647,-1.68381"
               style="fill:none;stroke:#000000;stroke-width:1.61897;stroke-linecap:round;stroke-linejoin:round;stroke-miterlimit:10;stroke-dasharray:none;stroke-opacity:1"
               id="path602" />
          </g>
        </g>
      </g>
    </g>
  </g>
</svg>
