<?xml version="1.0" encoding="UTF-8" standalone="no"?>
<!-- Created by Ashley Blewer - This work is licensed under a Creative Commons Attribution 4.0 International License -->

<svg
   width="544"
   height="480"
   viewBox="0 0 143.93334 127"
   version="1.1"
   id="svg2490"
   inkscape:version="1.2.2 (1:1.2.2+202212051552+b0a8486541)"
   sodipodi:docname="1947-dictabelt-2.svg"
   xmlns:inkscape="http://www.inkscape.org/namespaces/inkscape"
   xmlns:sodipodi="http://sodipodi.sourceforge.net/DTD/sodipodi-0.dtd"
   xmlns="http://www.w3.org/2000/svg"
   xmlns:svg="http://www.w3.org/2000/svg">
  <sodipodi:namedview
     id="namedview2492"
     pagecolor="#ffffff"
     bordercolor="#666666"
     borderopacity="1.0"
     inkscape:pageshadow="2"
     inkscape:pageopacity="0.0"
     inkscape:pagecheckerboard="0"
     inkscape:document-units="mm"
     showgrid="false"
     units="px"
     inkscape:zoom="0.90583674"
     inkscape:cx="53.541657"
     inkscape:cy="253.35691"
     inkscape:window-width="1846"
     inkscape:window-height="1136"
     inkscape:window-x="0"
     inkscape:window-y="0"
     inkscape:window-maximized="1"
     inkscape:current-layer="g4731"
     inkscape:showpageshadow="2"
     inkscape:deskcolor="#d1d1d1" />
  <defs
     id="defs2487" />
  <g
     inkscape:label="Layer 1"
     inkscape:groupmode="layer"
     id="layer1">
    <g
       id="g4731"
       transform="matrix(0.32961229,0,0,0.32903008,-241.78905,1.73126)"
       style="stroke-width:2.68698">
      <g
         id="g104528"
         transform="matrix(1,0,0,-1,0,792)"
         style="stroke-width:2.68698">
        <g
           id="g104530"
           style="stroke-width:2.68698" />
      </g>
      <g
         id="g104996"
         transform="matrix(1,0,0,-1,0,792)"
         style="stroke-width:2.68698">
        <g
           id="g104998"
           style="stroke-width:2.68698" />
      </g>
      <g
         id="g2283"
         transform="matrix(2.8443681,0,0,2.8449519,384.17882,-1501.1313)"
         style="stroke-width:2.55213">
        <g
           id="g964"
           transform="matrix(1,0,0,-1,0,792)"
           style="stroke-width:2.55213">
          <g
             id="g966"
             style="stroke-width:2.55213">
            <path
               d="m 160.77872,251.32815 c -5.9384,-1.57709 -33.57726,5.73582 -19.47979,7.45368 13.98557,-3.52646 26.13451,-12.28206 40.65577,-14.48749 20.66275,-5.63451 41.82659,-9.1312 63.01898,-12.03968 14.44181,-9.07822 -5.49793,-9.96144 -12.07425,-3.95416 -5.761,4.22696 -12.60803,6.74758 -19.23344,8.76551"
               style="fill:none;stroke:#000000;stroke-width:3.23794;stroke-linecap:round;stroke-linejoin:round;stroke-miterlimit:10;stroke-dasharray:none;stroke-opacity:1"
               id="path968"
               sodipodi:nodetypes="cccccc" />
          </g>
        </g>
        <g
           id="g970"
           transform="matrix(1,0,0,-1,0,792)"
           style="stroke-width:2.55213">
          <g
             id="g972"
             style="stroke-width:2.55213">
            <path
               d="m 136.43512,256.659 c 2.15335,-24.74014 3.60337,-55.06084 5.86479,-79.80736"
               style="fill:none;stroke:#000000;stroke-width:3.23794;stroke-linecap:round;stroke-linejoin:round;stroke-miterlimit:10;stroke-dasharray:none;stroke-opacity:1"
               id="path974"
               sodipodi:nodetypes="cc" />
          </g>
        </g>
        <g
           id="g976"
           transform="matrix(1,0,0,-1,0,792)"
           style="stroke-width:2.55213">
          <g
             id="g978"
             style="stroke-width:2.55213">
            <path
               d="m 142.29991,176.85164 c 15.64043,-4.32481 31.11136,-9.14843 45.51338,-16.6447 17.30485,-4.56641 37.80166,-2.16173 51.68061,-15.43901 3.44685,-2.59654 7.99484,-6.86907 12.25434,-5.16055"
               style="fill:none;stroke:#000000;stroke-width:3.23794;stroke-linecap:round;stroke-linejoin:round;stroke-miterlimit:10;stroke-dasharray:none;stroke-opacity:1"
               id="path980"
               sodipodi:nodetypes="cccc" />
          </g>
        </g>
        <g
           id="g982"
           transform="matrix(1,0,0,-1,0,792)"
           style="stroke-width:2.55213">
          <g
             id="g984"
             style="stroke-width:2.55213">
            <path
               d="m 250.04338,226.68153 c 0.34024,-27.91686 -1.65267,-59.27861 1.70486,-87.07415"
               style="fill:none;stroke:#000000;stroke-width:3.23794;stroke-linecap:round;stroke-linejoin:round;stroke-miterlimit:10;stroke-dasharray:none;stroke-opacity:1"
               id="path986"
               sodipodi:nodetypes="cc" />
          </g>
        </g>
        <g
           id="g988"
           transform="matrix(1,0,0,-1,0,792)"
           style="stroke-width:2.55213">
          <g
             id="g990"
             style="stroke-width:2.55213">
            <path
               d="m 142.5314,248.41885 c 1.60616,-1.84911 3.4748,-3.74733 5.97855,-4.26135"
               style="fill:none;stroke:#000000;stroke-width:1.61897;stroke-linecap:round;stroke-linejoin:round;stroke-miterlimit:10;stroke-dasharray:none;stroke-opacity:1"
               id="path992" />
          </g>
        </g>
        <g
           id="g994"
           transform="matrix(1,0,0,-1,0,792)"
           style="stroke-width:2.55213">
          <g
             id="g996"
             style="stroke-width:2.55213">
            <path
               d="m 144.1161,243.22556 c 2.47465,-6.49223 -0.20928,-14.5368 1.99613,-19.56655"
               style="fill:none;stroke:#000000;stroke-width:1.61897;stroke-linecap:round;stroke-linejoin:round;stroke-miterlimit:10;stroke-dasharray:none;stroke-opacity:1"
               id="path998" />
          </g>
        </g>
        <g
           id="g1000"
           transform="matrix(1,0,0,-1,0,792)"
           style="stroke-width:2.55213">
          <g
             id="g1002"
             style="stroke-width:2.55213">
            <path
               d="m 150.25409,198.37207 c -1.97806,-5.87635 -1.5271,-15.42022 0.5406,-20.1213"
               style="fill:none;stroke:#000000;stroke-width:1.61897;stroke-linecap:round;stroke-linejoin:round;stroke-miterlimit:10;stroke-dasharray:none;stroke-opacity:1"
               id="path1004" />
          </g>
        </g>
        <g
           id="g1006"
           transform="matrix(1,0,0,-1,0,792)"
           style="stroke-width:2.55213">
          <g
             id="g1008"
             style="stroke-width:2.55213">
            <path
               d="m 178.85056,237.79616 c 1.44229,-1.46876 3.70345,-1.3818 5.4719,-2.10697"
               style="fill:none;stroke:#000000;stroke-width:1.61897;stroke-linecap:round;stroke-linejoin:round;stroke-miterlimit:10;stroke-dasharray:none;stroke-opacity:1"
               id="path1010" />
          </g>
        </g>
        <g
           id="g1012"
           transform="matrix(1,0,0,-1,0,792)"
           style="stroke-width:2.55213">
          <g
             id="g1014"
             style="stroke-width:2.55213">
            <path
               d="m 179.67116,230.49458 c 0.81099,-0.50571 4.23108,-2.15114 5.13014,-2.46814"
               style="fill:none;stroke:#000000;stroke-width:1.61897;stroke-linecap:round;stroke-linejoin:round;stroke-miterlimit:10;stroke-dasharray:none;stroke-opacity:1"
               id="path1016" />
          </g>
        </g>
        <g
           id="g1018"
           transform="matrix(1,0,0,-1,0,792)"
           style="stroke-width:2.55213">
          <g
             id="g1020"
             style="stroke-width:2.55213">
            <path
               d="m 181.72168,225.2767 c 0.45698,-0.36233 2.28492,-1.81166 2.74191,-2.17399"
               style="fill:none;stroke:#000000;stroke-width:1.61897;stroke-linecap:round;stroke-linejoin:round;stroke-miterlimit:10;stroke-dasharray:none;stroke-opacity:1"
               id="path1022" />
          </g>
        </g>
        <g
           id="g1024"
           transform="matrix(1,0,0,-1,0,792)"
           style="stroke-width:2.55213">
          <g
             id="g1026"
             style="stroke-width:2.55213">
            <path
               d="m 163.45023,246.05142 c 14.5834,-5.52926 30.53832,-6.40543 44.86637,-12.71447"
               style="fill:none;stroke:#000000;stroke-width:1.61897;stroke-linecap:round;stroke-linejoin:round;stroke-miterlimit:10;stroke-dasharray:none;stroke-opacity:1"
               id="path1028" />
          </g>
        </g>
        <g
           id="g1030"
           transform="matrix(1,0,0,-1,0,792)"
           style="stroke-width:2.55213">
          <g
             id="g1032"
             style="stroke-width:2.55213">
            <path
               d="m 183.38905,210.84317 c 0.68731,-1.57972 2.78722,-1.4808 3.56939,-2.97292"
               style="fill:none;stroke:#000000;stroke-width:1.61897;stroke-linecap:round;stroke-linejoin:round;stroke-miterlimit:10;stroke-dasharray:none;stroke-opacity:1"
               id="path1034" />
          </g>
        </g>
        <g
           id="g1036"
           transform="matrix(1,0,0,-1,0,792)"
           style="stroke-width:2.55213">
          <g
             id="g1038"
             style="stroke-width:2.55213">
            <path
               d="m 182.61169,205.99695 c 0.77114,-0.50898 3.96631,-2.35102 4.79276,-2.76306"
               style="fill:none;stroke:#000000;stroke-width:1.61897;stroke-linecap:round;stroke-linejoin:round;stroke-miterlimit:10;stroke-dasharray:none;stroke-opacity:1"
               id="path1040" />
          </g>
        </g>
        <g
           id="g1042"
           transform="matrix(1,0,0,-1,0,792)"
           style="stroke-width:2.55213">
          <g
             id="g1044"
             style="stroke-width:2.55213">
            <path
               d="m 188.625,192.71378 c -5.10092,1.60002 -1.47332,-5.13451 0.23398,-6.32429"
               style="fill:none;stroke:#000000;stroke-width:1.61897;stroke-linecap:round;stroke-linejoin:round;stroke-miterlimit:10;stroke-dasharray:none;stroke-opacity:1"
               id="path1046" />
          </g>
        </g>
        <g
           id="g1048"
           transform="matrix(1,0,0,-1,0,792)"
           style="stroke-width:2.55213">
          <g
             id="g1050"
             style="stroke-width:2.55213">
            <path
               d="m 188.01314,168.92 c 0.68659,-0.48661 1.37319,-0.97323 2.05978,-1.45984"
               style="fill:none;stroke:#000000;stroke-width:1.61897;stroke-linecap:round;stroke-linejoin:round;stroke-miterlimit:10;stroke-dasharray:none;stroke-opacity:1"
               id="path1052" />
          </g>
        </g>
        <g
           id="g1054"
           transform="matrix(1,0,0,-1,0,792)"
           style="stroke-width:2.55213">
          <g
             id="g1056"
             style="stroke-width:2.55213">
            <path
               d="m 204.28816,228.34514 c 1.08805,-1.83148 3.53351,-1.72442 4.84625,-3.29097"
               style="fill:none;stroke:#000000;stroke-width:1.61897;stroke-linecap:round;stroke-linejoin:round;stroke-miterlimit:10;stroke-dasharray:none;stroke-opacity:1"
               id="path1058" />
          </g>
        </g>
        <g
           id="g1060"
           transform="matrix(1,0,0,-1,0,792)"
           style="stroke-width:2.55213">
          <g
             id="g1062"
             style="stroke-width:2.55213">
            <path
               d="m 160.36665,225.42534 c 12.8608,-10.40894 30.58157,-9.02476 45.90878,-12.80136 7.83469,-1.15176 16.09128,-2.69196 22.33634,-7.94222"
               style="fill:none;stroke:#000000;stroke-width:1.61897;stroke-linecap:round;stroke-linejoin:round;stroke-miterlimit:10;stroke-dasharray:none;stroke-opacity:1"
               id="path1064" />
          </g>
        </g>
        <g
           id="g1066"
           transform="matrix(1,0,0,-1,0,792)"
           style="stroke-width:2.55213">
          <g
             id="g1068"
             style="stroke-width:2.55213">
            <path
               d="m 190.50296,177.78194 c 11.34311,-1.61341 23.2023,-1.93994 33.67868,-7.09821"
               style="fill:none;stroke:#000000;stroke-width:1.61897;stroke-linecap:round;stroke-linejoin:round;stroke-miterlimit:10;stroke-dasharray:none;stroke-opacity:1"
               id="path1070" />
          </g>
        </g>
        <g
           id="g1072"
           transform="matrix(1,0,0,-1,0,792)"
           style="stroke-width:2.55213">
          <g
             id="g1074"
             style="stroke-width:2.55213">
            <path
               d="m 223.62596,225.87204 c 5.90399,-1.84018 11.76688,-4.28466 16.51975,-8.33635"
               style="fill:none;stroke:#000000;stroke-width:1.61897;stroke-linecap:round;stroke-linejoin:round;stroke-miterlimit:10;stroke-dasharray:none;stroke-opacity:1"
               id="path1076" />
          </g>
        </g>
        <g
           id="g1078"
           transform="matrix(1,0,0,-1,0,792)"
           style="stroke-width:2.55213">
          <g
             id="g1080"
             style="stroke-width:2.55213">
            <path
               d="m 224.97971,217.70854 c 3.34043,-1.92834 7.46418,-3.47745 9.0657,-7.33851"
               style="fill:none;stroke:#000000;stroke-width:1.61897;stroke-linecap:round;stroke-linejoin:round;stroke-miterlimit:10;stroke-dasharray:none;stroke-opacity:1"
               id="path1082" />
          </g>
        </g>
        <g
           id="g1084"
           transform="matrix(1,0,0,-1,0,792)"
           style="stroke-width:2.55213">
          <g
             id="g1086"
             style="stroke-width:2.55213">
            <path
               d="m 226.80086,210.23196 c 7.67571,-3.88578 1.10838,-11.98443 9.05206,-16.4131"
               style="fill:none;stroke:#000000;stroke-width:1.61897;stroke-linecap:round;stroke-linejoin:round;stroke-miterlimit:10;stroke-dasharray:none;stroke-opacity:1"
               id="path1088" />
          </g>
        </g>
        <g
           id="g1090"
           transform="matrix(1,0,0,-1,0,792)"
           style="stroke-width:2.55213">
          <g
             id="g1092"
             style="stroke-width:2.55213">
            <path
               d="m 225.01633,185.77498 c 3.0357,-2.5245 6.93656,-3.96833 9.39648,-7.18051"
               style="fill:none;stroke:#000000;stroke-width:1.61897;stroke-linecap:round;stroke-linejoin:round;stroke-miterlimit:10;stroke-dasharray:none;stroke-opacity:1"
               id="path1094" />
          </g>
        </g>
        <g
           id="g1096"
           transform="matrix(1,0,0,-1,0,792)"
           style="stroke-width:2.55213">
          <g
             id="g1098"
             style="stroke-width:2.55213">
            <path
               d="m 227.94792,177.74422 c 0.66709,-0.85706 3.42843,-4.20468 4.14202,-5.02143"
               style="fill:none;stroke:#000000;stroke-width:1.61897;stroke-linecap:round;stroke-linejoin:round;stroke-miterlimit:10;stroke-dasharray:none;stroke-opacity:1"
               id="path1100" />
          </g>
        </g>
        <g
           id="g1102"
           transform="matrix(1,0,0,-1,0,792)"
           style="stroke-width:2.55213">
          <g
             id="g1104"
             style="stroke-width:2.55213">
            <path
               d="m 203.92091,198.22331 c 1.04188,-0.68064 3.35791,-1.12003 3.21061,-2.90542"
               style="fill:none;stroke:#000000;stroke-width:1.61897;stroke-linecap:round;stroke-linejoin:round;stroke-miterlimit:10;stroke-dasharray:none;stroke-opacity:1"
               id="path1106" />
          </g>
        </g>
        <g
           id="g1108"
           transform="matrix(1,0,0,-1,0,792)"
           style="stroke-width:2.55213">
          <g
             id="g1110"
             style="stroke-width:2.55213">
            <path
               d="m 204.72986,188.56007 c 2.46688,-2.31561 -0.33885,-5.16257 -0.50713,-7.69934"
               style="fill:none;stroke:#000000;stroke-width:1.61897;stroke-linecap:round;stroke-linejoin:round;stroke-miterlimit:10;stroke-dasharray:none;stroke-opacity:1"
               id="path1112" />
          </g>
        </g>
        <g
           id="g1114"
           transform="matrix(1,0,0,-1,0,792)"
           style="stroke-width:2.55213">
          <g
             id="g1116"
             style="stroke-width:2.55213">
            <path
               d="m 204.05766,168.67355 c 0.68568,-0.40225 3.40498,-2.04563 4.07895,-2.46507"
               style="fill:none;stroke:#000000;stroke-width:1.61897;stroke-linecap:round;stroke-linejoin:round;stroke-miterlimit:10;stroke-dasharray:none;stroke-opacity:1"
               id="path1118" />
          </g>
        </g>
        <g
           id="g1120"
           transform="matrix(1,0,0,-1,0,792)"
           style="stroke-width:2.55213">
          <g
             id="g1122"
             style="stroke-width:2.55213">
            <path
               d="m 245.19106,218.29529 c -0.51069,-9.521 -1.51571,-19.01309 -1.77236,-28.54793"
               style="fill:none;stroke:#000000;stroke-width:1.61897;stroke-linecap:round;stroke-linejoin:round;stroke-miterlimit:10;stroke-dasharray:none;stroke-opacity:1"
               id="path1124" />
          </g>
        </g>
        <g
           id="g1126"
           transform="matrix(1,0,0,-1,0,792)"
           style="stroke-width:2.55213">
          <g
             id="g1128"
             style="stroke-width:2.55213">
            <path
               d="m 240.41147,205.71983 c -1.98763,-19.12106 -2.17487,-38.38544 -1.56072,-57.58481"
               style="fill:none;stroke:#000000;stroke-width:1.61897;stroke-linecap:round;stroke-linejoin:round;stroke-miterlimit:10;stroke-dasharray:none;stroke-opacity:1"
               id="path1130" />
          </g>
        </g>
      </g>
    </g>
  </g>
</svg>
