<?xml version="1.0" encoding="UTF-8" standalone="no"?>
<!-- Created by Ashley Blewer - This work is licensed under a Creative Commons Attribution 4.0 International License -->

<svg
   width="544"
   height="480"
   viewBox="0 0 143.93334 127"
   version="1.1"
   id="svg2490"
   inkscape:version="1.2.2 (1:1.2.2+202212051552+b0a8486541)"
   sodipodi:docname="1951-minifon-wire-3.svg"
   xmlns:inkscape="http://www.inkscape.org/namespaces/inkscape"
   xmlns:sodipodi="http://sodipodi.sourceforge.net/DTD/sodipodi-0.dtd"
   xmlns="http://www.w3.org/2000/svg"
   xmlns:svg="http://www.w3.org/2000/svg">
  <sodipodi:namedview
     id="namedview2492"
     pagecolor="#ffffff"
     bordercolor="#666666"
     borderopacity="1.0"
     inkscape:pageshadow="2"
     inkscape:pageopacity="0.0"
     inkscape:pagecheckerboard="0"
     inkscape:document-units="mm"
     showgrid="false"
     units="px"
     inkscape:zoom="0.90583674"
     inkscape:cx="53.541657"
     inkscape:cy="253.35691"
     inkscape:window-width="1846"
     inkscape:window-height="1136"
     inkscape:window-x="0"
     inkscape:window-y="0"
     inkscape:window-maximized="1"
     inkscape:current-layer="g4731"
     inkscape:showpageshadow="2"
     inkscape:deskcolor="#d1d1d1" />
  <defs
     id="defs2487" />
  <g
     inkscape:label="Layer 1"
     inkscape:groupmode="layer"
     id="layer1">
    <g
       id="g4731"
       transform="matrix(0.32961229,0,0,0.32903008,-241.78905,1.73126)"
       style="stroke-width:2.68698">
      <g
         id="g104528"
         transform="matrix(1,0,0,-1,0,792)"
         style="stroke-width:2.68698">
        <g
           id="g104530"
           style="stroke-width:2.68698" />
      </g>
      <g
         id="g104996"
         transform="matrix(1,0,0,-1,0,792)"
         style="stroke-width:2.68698">
        <g
           id="g104998"
           style="stroke-width:2.68698" />
      </g>
      <g
         id="g3829"
         transform="matrix(1.6212616,0,0,1.6239559,-559.55461,-150.46928)"
         style="stroke-width:1.54592">
        <g
           id="g208"
           transform="matrix(1,0,0,-1,0,792)"
           style="stroke-width:1.54592">
          <g
             id="g210"
             style="stroke-width:1.54592">
            <path
               d="m 863.97559,667.22375 c 39.07955,17.8943 85.18622,17.22912 125.83277,5.46504 36.86614,-13.62778 63.42264,-55.46366 50.01324,-94.44818 -3.575,-15.73966 -14.2434,-31.48885 -26.2283,-39.20281"
               style="fill:none;stroke:#000000;stroke-width:4.04525;stroke-linecap:round;stroke-linejoin:round;stroke-miterlimit:10;stroke-dasharray:none;stroke-opacity:1"
               id="path212"
               sodipodi:nodetypes="cccc" />
          </g>
        </g>
        <g
           id="g214"
           transform="matrix(1,0,0,-1,0,792)"
           style="stroke-width:1.54592">
          <g
             id="g216"
             style="stroke-width:1.54592">
            <path
               d="m 862.71893,666.93262 c -33.82854,-17.24717 -61.69284,-62.02163 -38.08303,-97.96316 30.508,-47.5232 96.25906,-64.85575 148.42049,-46.60532 16.15847,5.5961 34.33351,9.21513 46.84201,21.74576"
               style="fill:none;stroke:#000000;stroke-width:4.04525;stroke-linecap:round;stroke-linejoin:round;stroke-miterlimit:10;stroke-dasharray:none;stroke-opacity:1"
               id="path218" />
          </g>
        </g>
        <g
           id="g220"
           transform="matrix(1,0,0,-1,0,792)"
           style="stroke-width:1.54592">
          <g
             id="g222"
             style="stroke-width:1.54592">
            <path
               d="m 817.62223,584.16531 c -3.86759,-37.27143 16.71019,-76.39186 53.64195,-87.93548 49.75503,-21.8149 115.54988,-18.45453 155.05382,21.72814 16.2289,19.83527 18.9023,46.80559 15.9471,71.38614"
               style="fill:none;stroke:#000000;stroke-width:4.04525;stroke-linecap:round;stroke-linejoin:round;stroke-miterlimit:10;stroke-dasharray:none;stroke-opacity:1"
               id="path224"
               sodipodi:nodetypes="cccccccccccccccccc" />
          </g>
        </g>
        <g
           id="g226"
           transform="matrix(1,0,0,-1,0,792)"
           style="stroke-width:1.54592">
          <g
             id="g228"
             style="stroke-width:1.54592">
            <path
               d="m 829.83782,560.80333 c -1.44289,-31.34449 29.5945,-49.27331 55.52764,-57.83414 37.64852,-11.8016 80.73337,-11.23181 115.05114,10.03336 21.5044,11.9116 29.2321,25.92802 33.0981,45.3801 l 0.9163,2.55934 1.0151,2.50116"
               style="fill:none;stroke:#000000;stroke-width:4.04525;stroke-linecap:round;stroke-linejoin:round;stroke-miterlimit:10;stroke-dasharray:none;stroke-opacity:1"
               id="path230"
               sodipodi:nodetypes="cccccc" />
          </g>
        </g>
        <g
           id="g232"
           transform="matrix(1,0,0,-1,0,792)"
           style="stroke-width:1.54592">
          <g
             id="g234"
             style="stroke-width:1.54592">
            <path
               d="m 891.02008,598.91217 c -6.04199,20.9042 15.79218,42.1228 36.48928,38.35552 19.28935,0.83992 43.55478,-10.43544 42.83696,-32.67041 -0.22206,-18.43105 -18.33439,-29.57478 -35.10676,-30.32403 -17.0085,-1.72583 -37.5314,5.29074 -44.21719,22.17938 z"
               style="fill:none;stroke:#000000;stroke-width:4.04525;stroke-linecap:round;stroke-linejoin:round;stroke-miterlimit:10;stroke-dasharray:none;stroke-opacity:1"
               id="path236"
               sodipodi:nodetypes="ccccccccccccccccc" />
          </g>
        </g>
        <g
           id="g238"
           transform="matrix(1,0,0,-1,0,792)"
           style="stroke-width:1.54592">
          <g
             id="g240"
             style="stroke-width:1.54592">
            <path
               d="m 897.35986,586.97235 c 3.92292,5.5556 10.33399,8.75863 16.50869,11.10059 9.55753,2.01023 19.5426,1.47732 29.18851,0.31005 6.8402,-1.08953 13.9911,-3.2039 18.41065,-8.93937 l 0.91871,-0.93962 0.92839,-0.92539"
               style="fill:none;stroke:#000000;stroke-width:4.04525;stroke-linecap:round;stroke-linejoin:round;stroke-miterlimit:10;stroke-dasharray:none;stroke-opacity:1"
               id="path242"
               sodipodi:nodetypes="ccccc" />
          </g>
        </g>
        <g
           id="g244"
           transform="matrix(1,0,0,-1,0,792)"
           style="stroke-width:1.54592">
          <g
             id="g246"
             style="stroke-width:1.54592">
            <path
               d="m 890.32599,648.05249 c -2.41092,2.35465 -4.54002,5.71098 -6.13794,7.69265 -1.34558,0.62142 3.78507,2.37478 4.90016,2.15085 2.64113,-1.67487 3.92324,-5.41869 5.72642,-7.94367 0.23493,-1.21877 -1.65374,-2.99487 -3.14267,-3.00715"
               style="fill:none;stroke:#000000;stroke-width:1.96133;stroke-linecap:round;stroke-linejoin:round;stroke-miterlimit:10;stroke-dasharray:none;stroke-opacity:1"
               id="path248" />
          </g>
        </g>
        <g
           id="g250"
           transform="matrix(1,0,0,-1,0,792)"
           style="stroke-width:1.54592">
          <g
             id="g252"
             style="stroke-width:1.54592">
            <path
               d="m 881.99298,651.88996 c -2.04554,2.21105 -2.09123,5.86203 -2.75648,7.6701 0.21516,1.223 3.61149,3.15182 6.19871,3.52502 1.62161,0.63719 4.23076,1.29763 4.41536,0.97336 3.35551,-4.43265 5.38247,-9.76487 8.31648,-14.32666 2.00676,-2.93803 -3.053,-4.71818 -5.08023,-4.78505 -4.57003,-0.38379 -8.06614,3.98664 -11.09384,6.94323 -0.66829,0.77313 -1.57115,1.73576 -1.49531,2.30862"
               style="fill:none;stroke:#000000;stroke-width:1.96133;stroke-linecap:round;stroke-linejoin:round;stroke-miterlimit:10;stroke-dasharray:none;stroke-opacity:1"
               id="path254"
               sodipodi:nodetypes="cccccccc" />
          </g>
        </g>
        <g
           id="g256"
           transform="matrix(1,0,0,-1,0,792)"
           style="stroke-width:1.54592">
          <g
             id="g258"
             style="stroke-width:1.54592">
            <path
               d="m 846.25787,617.35425 c -0.2005,-3.37422 -2.7594,-8.07458 -2.38574,-12.35895 -0.37234,-4.06824 -0.034,-8.072 0.67866,-12.03723 l 0.5407,-0.28368 0.0624,-0.0327"
               style="fill:none;stroke:#000000;stroke-width:1.96133;stroke-linecap:round;stroke-linejoin:round;stroke-miterlimit:10;stroke-dasharray:none;stroke-opacity:1"
               id="path260" />
          </g>
        </g>
        <g
           id="g262"
           transform="matrix(1,0,0,-1,0,792)"
           style="stroke-width:1.54592">
          <g
             id="g264"
             style="stroke-width:1.54592">
            <path
               d="m 878.5141,641.97241 c -5.44854,-4.88402 -10.90349,-10.62025 -14.73468,-17.03747 -2.9773,-5.09219 -5.32204,-10.62417 -7.1949,-16.36962 -3.05333,-8.08654 -3.15414,-17.8153 0.17198,-25.89077 1.74101,-7.11497 7.40368,-12.66765 12.29512,-17.89758 12.3323,-10.25323 27.87286,-15.21656 43.01832,-19.74417 14.73433,-3.19357 30.52616,-4.34391 45.02713,0.60456 7.05471,2.04952 13.86538,4.75069 20.92563,6.79158 0.42847,0.32434 3.39365,1.37361 2.56029,1.00977"
               style="fill:none;stroke:#000000;stroke-width:1.96133;stroke-linecap:round;stroke-linejoin:round;stroke-miterlimit:10;stroke-dasharray:none;stroke-opacity:1"
               id="path266" />
          </g>
        </g>
        <g
           id="g268"
           transform="matrix(1,0,0,-1,0,792)"
           style="stroke-width:1.54592">
          <g
             id="g270"
             style="stroke-width:1.54592">
            <path
               d="m 989.65027,561.784 c 6.44836,6.42813 11.31613,14.2538 16.12963,21.88769 2.1919,4.32394 5.0366,8.12433 5.293,13.12418 0.9267,6.7594 -0.5135,13.45545 -1.7532,20.20742 -0.6946,7.1637 -6.0827,12.63568 -11.06895,17.06101 -3.63049,2.65922 -6.55568,6.06657 -10.40347,8.79048 -5.45461,2.89866 -11.33274,4.97133 -17.22582,6.98543 -8.7035,1.61599 -17.211,3.41748 -26.00641,4.02571 -6.10397,0.84913 -11.73073,2.58595 -17.86903,1.74212 -7.00965,-1.02739 -14.51092,-1.06604 -21.25772,-3.07643"
               style="fill:none;stroke:#000000;stroke-width:1.96133;stroke-linecap:round;stroke-linejoin:round;stroke-miterlimit:10;stroke-dasharray:none;stroke-opacity:1"
               id="path272"
               sodipodi:nodetypes="cccccccccc" />
          </g>
        </g>
        <g
           id="g274"
           transform="matrix(1,0,0,-1,0,792)"
           style="stroke-width:1.54592">
          <g
             id="g276"
             style="stroke-width:1.54592">
            <path
               d="m 899.30249,663.78809 c 16.18367,-3.25653 32.75491,0.41416 49.05785,-1.54861 6.85572,-2.16504 20.23477,1.51775 16.28792,10.77743 -4.09796,6.17994 -12.70363,4.46621 -19.08957,4.77413 -12.41001,-1.22992 -24.85291,-0.97328 -37.27877,-1.73684 -6.07564,0.55135 -18.93119,-7.37512 -9.38091,-12.57889"
               style="fill:none;stroke:#000000;stroke-width:1.96133;stroke-linecap:round;stroke-linejoin:round;stroke-miterlimit:10;stroke-dasharray:none;stroke-opacity:1"
               id="path278" />
          </g>
        </g>
        <g
           id="g280"
           transform="matrix(1,0,0,-1,0,792)"
           style="stroke-width:1.54592">
          <g
             id="g282"
             style="stroke-width:1.54592">
            <path
               d="m 914.90833,537.73883 c 15.77741,1.80918 31.84059,-0.90181 47.49102,2.03506 12.89524,4.3343 26.38088,8.69009 36.70735,17.9526 14.0439,10.06459 24.9724,25.21831 28.4359,42.30072 7.5183,10.077 15.2917,-4.14566 11.4736,-12.04502 -2.1285,-11.99487 -7.6634,-23.28813 -16.5552,-31.71944 -8.9685,-8.9097 -17.8705,-18.33308 -29.71505,-23.41056 -14.01563,-6.35796 -28.53334,-12.71206 -44.17904,-13.11359 -11.92613,-1.51423 -24.10902,-0.32868 -35.83476,1.98552 -10.02684,1.42799 -8.85917,16.99245 2.17618,16.01471"
               style="fill:none;stroke:#000000;stroke-width:1.96133;stroke-linecap:round;stroke-linejoin:round;stroke-miterlimit:10;stroke-dasharray:none;stroke-opacity:1"
               id="path284"
               sodipodi:nodetypes="cccccccccc" />
          </g>
        </g>
        <g
           id="g286"
           transform="matrix(1,0,0,-1,0,792)"
           style="stroke-width:1.54592">
          <g
             id="g288"
             style="stroke-width:1.54592">
            <path
               d="m 848.13647,538.05713 c 7.26895,-4.51788 15.42145,-9.11541 24.19377,-11.12059 0.53341,-0.37643 2.13304,-1.03254 2.07068,-1.04172"
               style="fill:none;stroke:#000000;stroke-width:1.96133;stroke-linecap:round;stroke-linejoin:round;stroke-miterlimit:10;stroke-dasharray:none;stroke-opacity:1"
               id="path290" />
          </g>
        </g>
        <g
           id="g292"
           transform="matrix(1,0,0,-1,0,792)"
           style="stroke-width:1.54592">
          <g
             id="g294"
             style="stroke-width:1.54592">
            <path
               d="m 865.76398,527.43732 c 1.24287,-0.88963 4.02798,-2.63307 5.82124,-3.88069 2.42603,-1.30774 5.47532,-3.81351 0.91169,-1.95653 -2.36898,1.32135 -6.00213,1.48306 -2.44864,-0.90847 1.72538,-0.48465 7.1795,-5.4667 2.38419,-2.97589"
               style="fill:none;stroke:#000000;stroke-width:1.96133;stroke-linecap:round;stroke-linejoin:round;stroke-miterlimit:10;stroke-dasharray:none;stroke-opacity:1"
               id="path296" />
          </g>
        </g>
        <g
           id="g298"
           transform="matrix(1,0,0,-1,0,792)"
           style="stroke-width:1.54592">
          <g
             id="g300"
             style="stroke-width:1.54592">
            <path
               d="m 847.10339,536.38281 c 6.54104,-7.19436 14.10644,-14.84647 23.97934,-17.99395 0.9759,-0.28184 2.68257,-1.08873 2.99105,-1.42999"
               style="fill:none;stroke:#000000;stroke-width:1.96133;stroke-linecap:round;stroke-linejoin:round;stroke-miterlimit:10;stroke-dasharray:none;stroke-opacity:1"
               id="path302" />
          </g>
        </g>
        <g
           id="g304"
           transform="matrix(1,0,0,-1,0,792)"
           style="stroke-width:1.54592">
          <g
             id="g306"
             style="stroke-width:1.54592">
            <path
               d="m 983.73779,519.98041 c -4.33816,-2.26861 0.88943,-0.55911 2.6742,0.38376 1.11997,0.67934 8.54598,2.5477 3.80745,1.07486"
               style="fill:none;stroke:#000000;stroke-width:1.96133;stroke-linecap:round;stroke-linejoin:round;stroke-miterlimit:10;stroke-dasharray:none;stroke-opacity:1"
               id="path308" />
          </g>
        </g>
        <g
           id="g310"
           transform="matrix(1,0,0,-1,0,792)"
           style="stroke-width:1.54592">
          <g
             id="g312"
             style="stroke-width:1.54592">
            <path
               d="m 983.05005,516.22217 c 2.62737,0.50884 6.85552,2.50351 10.18445,2.92023 -3.11227,-2.22919 -8.08817,-2.59779 -10.48712,-5.58513 4.28479,0.89332 9.5269,2.5848 13.53602,3.6989"
               style="fill:none;stroke:#000000;stroke-width:1.96133;stroke-linecap:round;stroke-linejoin:round;stroke-miterlimit:10;stroke-dasharray:none;stroke-opacity:1"
               id="path314" />
          </g>
        </g>
        <g
           id="g316"
           transform="matrix(1,0,0,-1,0,792)"
           style="stroke-width:1.54592">
          <g
             id="g318"
             style="stroke-width:1.54592">
            <path
               d="m 845.95001,531.64789 c 5.08661,-4.13575 10.85324,-7.38883 16.44951,-10.93024 7.76525,-3.71008 15.23207,-7.98773 22.9074,-11.84216 14.58387,-5.42394 30.23194,-8.60646 45.85228,-8.45845 15.50641,0.36398 31.25433,1.99444 45.8274,7.39558 2.02814,0.39415 3.93693,1.2138 5.90429,1.82422"
               style="fill:none;stroke:#000000;stroke-width:1.96133;stroke-linecap:round;stroke-linejoin:round;stroke-miterlimit:10;stroke-dasharray:none;stroke-opacity:1"
               id="path320" />
          </g>
        </g>
        <g
           id="g322"
           transform="matrix(1,0,0,-1,0,792)"
           style="stroke-width:1.54592">
          <g
             id="g324"
             style="stroke-width:1.54592">
            <path
               d="m 868.88489,626.47552 c 6.33646,1.42754 13.6942,0.63246 18.82068,-3.50076 0.68228,-1.01657 1.81987,-2.89649 1.74575,-3.5125"
               style="fill:none;stroke:#000000;stroke-width:1.96133;stroke-linecap:round;stroke-linejoin:round;stroke-miterlimit:10;stroke-dasharray:none;stroke-opacity:1"
               id="path326" />
          </g>
        </g>
        <g
           id="g328"
           transform="matrix(1,0,0,-1,0,792)"
           style="stroke-width:1.54592">
          <g
             id="g330"
             style="stroke-width:1.54592">
            <path
               d="m 868.88489,626.47552 c -1.49561,0.0148 -4.04914,-5.38786 -4.84351,-7.0998 -1.70257,-4.14447 -1.83243,-9.78276 2.16321,-12.46287 3.95481,-3.34978 9.96773,-1.54141 14.59567,-0.65346 1.82928,0.5189 9.80385,5.98973 8.65106,13.20287"
               style="fill:none;stroke:#000000;stroke-width:1.96133;stroke-linecap:round;stroke-linejoin:round;stroke-miterlimit:10;stroke-dasharray:none;stroke-opacity:1"
               id="path332"
               sodipodi:nodetypes="ccccc" />
          </g>
        </g>
        <g
           id="g334"
           transform="matrix(1,0,0,-1,0,792)"
           style="stroke-width:1.54592">
          <g
             id="g336"
             style="stroke-width:1.54592">
            <path
               d="m 863.19271,578.48622 c -2.00462,2.33827 -1.24277,6.03828 -1.25829,9.29224 1.60076,5.10784 7.97321,6.69303 13.42408,7.91429 4.46598,0.49541 9.3487,-0.13671 12.28092,-3.28575 3.06251,-1.90875 4.59742,-5.4021 4.31497,-9.10791 -0.1884,-2.39208 -3.30079,-4.85975 -4.3293,-6.82777 -5.337,-5.09915 -13.88778,-5.4402 -20.60468,-3.05068 -1.61469,1.69641 -3.46835,2.56245 -3.8277,5.06558"
               style="fill:none;stroke:#000000;stroke-width:1.96133;stroke-linecap:round;stroke-linejoin:round;stroke-miterlimit:10;stroke-dasharray:none;stroke-opacity:1"
               id="path338"
               sodipodi:nodetypes="cccccccc" />
          </g>
        </g>
        <g
           id="g340"
           transform="matrix(1,0,0,-1,0,792)"
           style="stroke-width:1.54592">
          <g
             id="g342"
             style="stroke-width:1.54592">
            <path
               d="m 902.53125,568.84033 c 7.05498,4.43678 16.3713,6.58061 24.07227,2.53052 4.10524,-2.46645 4.70541,-7.38379 4.4518,-11.72343 -0.95216,-3.52373 -4.30085,-6.83115 -7.46489,-8.71352 -7.43282,-3.07958 -16.59983,0.13378 -21.93924,5.46475 -2.60719,3.61168 -2.21443,9.12361 0.81682,12.25098 v 0"
               style="fill:none;stroke:#000000;stroke-width:1.96133;stroke-linecap:round;stroke-linejoin:round;stroke-miterlimit:10;stroke-dasharray:none;stroke-opacity:1"
               id="path344"
               sodipodi:nodetypes="ccccccc" />
          </g>
        </g>
        <g
           id="g346"
           transform="matrix(1,0,0,-1,0,792)"
           style="stroke-width:1.54592">
          <g
             id="g348"
             style="stroke-width:1.54592">
            <path
               d="m 955.50434,572.07513 c -4.53573,-3.28661 -5.66645,-12.59927 -0.54782,-13.14288 5.45172,-0.85646 11.39064,0.29561 16.34896,2.34314 2.18491,2.8055 5.2513,6.45826 4.44757,10.11468 -3.2733,5.05306 -10.49677,4.54433 -15.43027,2.10633 -1.64218,-0.5006 -3.42046,-0.55936 -4.81844,-1.42127"
               style="fill:none;stroke:#000000;stroke-width:1.96133;stroke-linecap:round;stroke-linejoin:round;stroke-miterlimit:10;stroke-dasharray:none;stroke-opacity:1"
               id="path350"
               sodipodi:nodetypes="cccccc" />
          </g>
        </g>
        <g
           id="g352"
           transform="matrix(1,0,0,-1,0,792)"
           style="stroke-width:1.54592">
          <g
             id="g354"
             style="stroke-width:1.54592">
            <path
               d="m 960.49677,566.09119 c -3.08485,0.0796 -3.78135,-4.82854 -0.27463,-4.95055 2.11322,-0.20541 6.63662,1.27419 5.43411,3.7634 -1.6263,1.29765 -3.79114,0.75217 -5.69031,0.68262"
               style="fill:none;stroke:#000000;stroke-width:1.96133;stroke-linecap:round;stroke-linejoin:round;stroke-miterlimit:10;stroke-dasharray:none;stroke-opacity:1"
               id="path356" />
          </g>
        </g>
        <g
           id="g358"
           transform="matrix(1,0,0,-1,0,792)"
           style="stroke-width:1.54592">
          <g
             id="g360"
             style="stroke-width:1.54592">
            <path
               d="m 960.47437,564.41083 c -2.49598,-1.57416 3.93613,-2.88498 1.87513,-0.77428 -0.51349,0.34428 -1.18387,0.12471 -1.7606,0.23855"
               style="fill:none;stroke:#000000;stroke-width:1.96133;stroke-linecap:round;stroke-linejoin:round;stroke-miterlimit:10;stroke-dasharray:none;stroke-opacity:1"
               id="path362" />
          </g>
        </g>
        <g
           id="g364"
           transform="matrix(1,0,0,-1,0,792)"
           style="stroke-width:1.54592">
          <g
             id="g366"
             style="stroke-width:1.54592">
            <path
               d="m 974.64832,592.20898 c 0.17363,2.97582 -0.8729,6.78815 2.75713,8.27253 4.27695,3.03877 9.24719,5.89011 14.80334,4.98154 3.76829,-0.88082 8.16151,-2.35538 9.58271,-6.30594 2.9675,-4.79018 1.4759,-12.13063 -3.47354,-14.85716 -6.92487,-2.89637 -21.45271,-4.58433 -23.66964,7.90903"
               style="fill:none;stroke:#000000;stroke-width:1.96133;stroke-linecap:round;stroke-linejoin:round;stroke-miterlimit:10;stroke-dasharray:none;stroke-opacity:1"
               id="path368"
               sodipodi:nodetypes="cccccc" />
          </g>
        </g>
        <g
           id="g370"
           transform="matrix(1,0,0,-1,0,792)"
           style="stroke-width:1.54592">
          <g
             id="g372"
             style="stroke-width:1.54592">
            <path
               d="m 973.23444,616.99677 c -3.07783,1.69817 -5.21506,5.70356 -5.4072,9.40624 0.7476,4.31946 4.60552,7.44093 8.66538,9.1969 4.3144,1.90858 9.66262,1.42134 13.7286,-0.33852 5.74069,-3.98471 6.27361,-12.75496 1.72391,-17.69134 -2.7865,-4.46779 -9.38566,-4.7411 -14.10416,-3.80224 -3.3724,0.79073 -2.39016,0.74976 -4.60653,3.22896"
               style="fill:none;stroke:#000000;stroke-width:1.96133;stroke-linecap:round;stroke-linejoin:round;stroke-miterlimit:10;stroke-dasharray:none;stroke-opacity:1"
               id="path374"
               sodipodi:nodetypes="ccccccc" />
          </g>
        </g>
        <g
           id="g376"
           transform="matrix(1,0,0,-1,0,792)"
           style="stroke-width:1.54592">
          <g
             id="g378"
             style="stroke-width:1.54592">
            <path
               d="m 937.32294,637.92383 c -3.19668,0.69136 -7.47311,6.37644 -4.26905,10.0277 3.83532,4.52946 10.31459,4.75441 15.91547,4.51593 3.80813,-0.37154 8.72405,-0.20257 10.14815,-4.67837 2.96272,-5.81124 -1.81947,-13.6844 -8.61404,-13.30105 -2.16523,-0.20579 -4.21606,0.30815 -6.33179,0.27632"
               style="fill:none;stroke:#000000;stroke-width:1.96133;stroke-linecap:round;stroke-linejoin:round;stroke-miterlimit:10;stroke-dasharray:none;stroke-opacity:1"
               id="path380" />
          </g>
        </g>
        <g
           id="g382"
           transform="matrix(1,0,0,-1,0,792)"
           style="stroke-width:1.54592">
          <g
             id="g384"
             style="stroke-width:1.54592">
            <path
               d="m 899.30249,663.78809 c -1.20955,0.46234 -5.94524,-0.21982 -7.28663,-1.34531"
               style="fill:none;stroke:#000000;stroke-width:1.96133;stroke-linecap:round;stroke-linejoin:round;stroke-miterlimit:10;stroke-dasharray:none;stroke-opacity:1"
               id="path386"
               sodipodi:nodetypes="cc" />
          </g>
        </g>
        <g
           id="g388"
           transform="matrix(1,0,0,-1,0,792)"
           style="stroke-width:1.54592">
          <g
             id="g390"
             style="stroke-width:1.54592">
            <path
               d="m 875.14545,654.42334 c -3.39895,-0.32898 -6.22366,-3.49854 -9.15362,-5.38171 -8.67792,-6.80143 -15.81739,-15.37836 -20.74525,-25.18587 -3.01138,-5.22686 -5.06472,-11.33913 -6.33777,-17.07196 -1.05791,-6.2504 0.45728,-12.49686 1.54834,-18.73248 1.35352,-2.98825 1.90792,-6.37834 3.50354,-9.21472"
               style="fill:none;stroke:#000000;stroke-width:1.96133;stroke-linecap:round;stroke-linejoin:round;stroke-miterlimit:10;stroke-dasharray:none;stroke-opacity:1"
               id="path392" />
          </g>
        </g>
        <g
           id="g394"
           transform="matrix(1,0,0,-1,0,792)"
           style="stroke-width:1.54592">
          <g
             id="g396"
             style="stroke-width:1.54592">
            <path
               d="m 847.56073,566.93201 c 5.76749,-7.21151 12.25666,-14.13344 19.93188,-19.2719 5.71967,-3.7001 11.42806,-7.32689 17.62034,-10.20181 4.3274,-1.5635 8.85963,-3.13678 13.12797,-4.41301 l -0.0433,0.0906"
               style="fill:none;stroke:#000000;stroke-width:1.96133;stroke-linecap:round;stroke-linejoin:round;stroke-miterlimit:10;stroke-dasharray:none;stroke-opacity:1"
               id="path398" />
          </g>
        </g>
        <g
           id="g400"
           transform="matrix(1,0,0,-1,0,792)"
           style="stroke-width:1.54592">
          <g
             id="g402"
             style="stroke-width:1.54592">
            <path
               d="m 969.26813,661.71271 c 10.5814,-2.17614 20.97414,-6.97442 29.30027,-14.19267 4.7611,-3.47849 9.1435,-7.48517 12.5376,-12.29659 5.8562,-5.62053 8.4793,-13.615 11.6382,-20.73608 0.9586,-3.77316 1.9529,-8.53958 1.8447,-11.45598"
               style="fill:none;stroke:#000000;stroke-width:1.96133;stroke-linecap:round;stroke-linejoin:round;stroke-miterlimit:10;stroke-dasharray:none;stroke-opacity:1"
               id="path404"
               sodipodi:nodetypes="ccccc" />
          </g>
        </g>
      </g>
    </g>
  </g>
</svg>
