<?xml version="1.0" encoding="UTF-8" standalone="no"?>
<!-- Created by Ashley Blewer - This work is licensed under a Creative Commons Attribution 4.0 International License -->

<svg
   width="544"
   height="480"
   viewBox="0 0 143.93334 127"
   version="1.1"
   id="svg2490"
   inkscape:version="1.2.2 (1:1.2.2+202212051552+b0a8486541)"
   sodipodi:docname="1954-stenorette-2.svg"
   xmlns:inkscape="http://www.inkscape.org/namespaces/inkscape"
   xmlns:sodipodi="http://sodipodi.sourceforge.net/DTD/sodipodi-0.dtd"
   xmlns="http://www.w3.org/2000/svg"
   xmlns:svg="http://www.w3.org/2000/svg">
  <sodipodi:namedview
     id="namedview2492"
     pagecolor="#ffffff"
     bordercolor="#666666"
     borderopacity="1.0"
     inkscape:pageshadow="2"
     inkscape:pageopacity="0.0"
     inkscape:pagecheckerboard="0"
     inkscape:document-units="mm"
     showgrid="false"
     units="px"
     inkscape:zoom="0.90583674"
     inkscape:cx="53.541657"
     inkscape:cy="253.35691"
     inkscape:window-width="1846"
     inkscape:window-height="1136"
     inkscape:window-x="0"
     inkscape:window-y="0"
     inkscape:window-maximized="1"
     inkscape:current-layer="g4731"
     inkscape:showpageshadow="2"
     inkscape:deskcolor="#d1d1d1" />
  <defs
     id="defs2487" />
  <g
     inkscape:label="Layer 1"
     inkscape:groupmode="layer"
     id="layer1">
    <g
       id="g4731"
       transform="matrix(0.32961229,0,0,0.32903008,-241.78905,1.73126)"
       style="stroke-width:2.68698">
      <g
         id="g104528"
         transform="matrix(1,0,0,-1,0,792)"
         style="stroke-width:2.68698">
        <g
           id="g104530"
           style="stroke-width:2.68698" />
      </g>
      <g
         id="g104996"
         transform="matrix(1,0,0,-1,0,792)"
         style="stroke-width:2.68698">
        <g
           id="g104998"
           style="stroke-width:2.68698" />
      </g>
      <g
         id="g5773"
         transform="matrix(1.3098619,0,0,1.3121796,-329.68507,-118.97563)"
         style="stroke-width:1.57394">
        <g
           id="g124"
           transform="matrix(1,0,0,-1,0,792)"
           style="stroke-width:1.57394">
          <g
             id="g126"
             style="stroke-width:1.57394">
            <path
               d="m 837.6087,629.09576 c 9.9318,11.28677 24.40118,16.11406 36.94384,23.64136 31.68651,16.70832 67.54919,24.75782 103.21566,25.98062 16.12729,0.39259 32.175,-2.01926 48.0458,-4.43045 12.7915,-4.09463 15.0389,-19.69717 19.0984,-30.73141 4.5666,-14.92937 10.3118,-29.44712 15.8754,-44.03692 6.625,-19.47286 4.9393,-41.17501 -1.2692,-60.54423 -6.9536,-22.25622 -25.3239,-38.92805 -46.1439,-48.30931 -18.82203,-8.05404 -38.28791,-16.49369 -59.14303,-16.51295 -23.55919,-0.81462 -48.40209,2.52859 -67.87798,16.85507 -14.61697,10.82321 -26.21449,25.5108 -35.52067,40.99372 -11.62507,23.88828 -8.13254,51.09461 -13.13238,76.4802 -0.33528,6.81176 -2.11441,13.90098 0.16853,20.55677"
               style="fill:none;stroke:#000000;stroke-width:1.99689;stroke-linecap:round;stroke-linejoin:round;stroke-miterlimit:10;stroke-dasharray:none;stroke-opacity:1"
               id="path128" />
          </g>
        </g>
        <g
           id="g130"
           transform="matrix(1,0,0,-1,0,792)"
           style="stroke-width:1.57394">
          <g
             id="g132"
             style="stroke-width:1.57394">
            <path
               d="m 846.17394,541.17124 c 0.97799,-2.01367 2.7747,-11.71957 3.59616,-14.54322 1.79632,-8.11017 6.86557,-15.07638 10.24657,-22.66339 4.74249,-7.23442 9.84097,-14.2561 17.86605,-18.22064 10.64767,-7.283 23.4308,-11.10005 35.66279,-15.27902 23.32135,-6.40227 47.53332,-10.72234 71.80381,-8.89971 15.90858,3.53842 32.23328,6.52981 46.79718,14.23603 7.0183,4.66137 14.5631,8.75007 19.3678,15.69734 6.278,6.16211 11.2665,13.30439 14.1515,21.00339 3.0199,5.32435 4.5608,11.36541 5.9495,17.46973 1.2163,5.49001 3.5209,12.7757 3.3871,18.95946 0.019,11.3706 -2.8018,20.79455 -6.1082,31.29561 -1.7222,7.42863 -3.9592,14.33934 -7.7274,20.93591 -1.7917,5.16819 -3.8068,10.61299 -7.0773,15.19781"
               style="fill:none;stroke:#000000;stroke-width:1.99689;stroke-linecap:round;stroke-linejoin:round;stroke-miterlimit:10;stroke-dasharray:none;stroke-opacity:1"
               id="path134"
               sodipodi:nodetypes="cccccccccccccc" />
          </g>
        </g>
        <g
           id="g136"
           transform="matrix(1,0,0,-1,0,792)"
           style="stroke-width:1.57394">
          <g
             id="g138"
             style="stroke-width:1.57394">
            <path
               d="m 910.43244,633.8766 c 44.2909,27.11644 113.89016,7.93442 116.51136,-48.34842 2.7772,-43.38554 -41.01977,-76.28912 -82.14692,-70.77326 -38.54538,1.26576 -78.1983,37.37756 -66.88389,78.08956 4.03577,18.10899 14.39886,31.91863 32.51945,41.03212"
               style="fill:none;stroke:#000000;stroke-width:1.99689;stroke-linecap:round;stroke-linejoin:round;stroke-miterlimit:10;stroke-dasharray:none;stroke-opacity:1"
               id="path140"
               sodipodi:nodetypes="ccccc" />
          </g>
        </g>
        <g
           id="g142"
           transform="matrix(1,0,0,-1,0,792)"
           style="stroke-width:1.57394">
          <g
             id="g144"
             style="stroke-width:1.57394">
            <path
               d="m 1041.1006,660.36401 c 12.916,-1.21287 25.8744,-0.97202 38.8329,-2.55357 10.4308,-0.56627 20.9566,-0.12741 30.9645,-2.42199 l 0.3178,-0.40881 -0.1129,-0.19635"
               style="fill:none;stroke:#000000;stroke-width:1.99689;stroke-linecap:round;stroke-linejoin:round;stroke-miterlimit:10;stroke-dasharray:none;stroke-opacity:1"
               id="path146" />
          </g>
        </g>
        <g
           id="g148"
           transform="matrix(1,0,0,-1,0,792)"
           style="stroke-width:1.57394">
          <g
             id="g150"
             style="stroke-width:1.57394">
            <path
               d="m 874.95656,487.08007 c -0.77621,-4.07531 -2.93934,-12.13805 -2.17755,-16.89191 -1.11313,-3.60819 0.54052,-5.63682 1.40508,-9.75988 0.44314,-0.94022 4.42345,-9.36949 3.80401,-8.54922"
               style="fill:none;stroke:#000000;stroke-width:1.99689;stroke-linecap:round;stroke-linejoin:round;stroke-miterlimit:10;stroke-dasharray:none;stroke-opacity:1"
               id="path152"
               sodipodi:nodetypes="cccc" />
          </g>
        </g>
        <g
           id="g154"
           transform="matrix(1,0,0,-1,0,792)"
           style="stroke-width:1.57394">
          <g
             id="g156"
             style="stroke-width:1.57394">
            <path
               d="m 880.70329,483.92247 c -1.04656,-6.967 -1.4708,-17.92677 -1.73844,-24.32851 -0.22212,-2.47456 1.89902,-5.47951 2.39669,-7.0964 l 0.23566,0.0665 -0.24207,0.21805"
               style="fill:none;stroke:#000000;stroke-width:1.99689;stroke-linecap:round;stroke-linejoin:round;stroke-miterlimit:10;stroke-dasharray:none;stroke-opacity:1"
               id="path158"
               sodipodi:nodetypes="ccccc" />
          </g>
        </g>
        <g
           id="g160"
           transform="matrix(1,0,0,-1,0,792)"
           style="stroke-width:1.57394">
          <g
             id="g162"
             style="stroke-width:1.57394">
            <path
               d="m 877.9881,451.87906 c 54.00088,-0.66936 107.48549,-8.45511 161.4134,-10.78763 22.0919,-0.88776 44.0022,-4.97425 66.0612,-5.37675"
               style="fill:none;stroke:#000000;stroke-width:1.99689;stroke-linecap:round;stroke-linejoin:round;stroke-miterlimit:10;stroke-dasharray:none;stroke-opacity:1"
               id="path164" />
          </g>
        </g>
        <g
           id="g166"
           transform="matrix(1,0,0,-1,0,792)"
           style="stroke-width:1.57394">
          <g
             id="g168"
             style="stroke-width:1.57394">
            <path
               d="m 880.17932,466.25064 c 24.83374,-1.97808 47.56929,-1.39178 70.69101,-3.64257"
               style="fill:none;stroke:#000000;stroke-width:1.99689;stroke-linecap:round;stroke-linejoin:round;stroke-miterlimit:10;stroke-dasharray:none;stroke-opacity:1"
               id="path170"
               sodipodi:nodetypes="cc" />
          </g>
        </g>
        <g
           id="g172"
           transform="matrix(1,0,0,-1,0,792)"
           style="stroke-width:1.57394">
          <g
             id="g174"
             style="stroke-width:1.57394">
            <path
               d="m 985.34932,461.56526 c 37.85838,-2.29278 85.09868,-2.60449 122.15588,-9.4947"
               style="fill:none;stroke:#000000;stroke-width:1.99689;stroke-linecap:round;stroke-linejoin:round;stroke-miterlimit:10;stroke-dasharray:none;stroke-opacity:1"
               id="path176"
               sodipodi:nodetypes="cc" />
          </g>
        </g>
        <g
           id="g178"
           transform="matrix(1,0,0,-1,0,792)"
           style="stroke-width:1.57394">
          <g
             id="g180"
             style="stroke-width:1.57394">
            <path
               d="m 1105.5048,435.15707 c 4.6879,-0.21727 5.7786,5.89768 6.1867,9.7972 -0.865,2.74924 3.2214,7.76568 -0.5311,8.01881 -1.0091,-0.24801 -2.0183,-0.49601 -3.0274,-0.74402"
               style="fill:none;stroke:#000000;stroke-width:1.99689;stroke-linecap:round;stroke-linejoin:round;stroke-miterlimit:10;stroke-dasharray:none;stroke-opacity:1"
               id="path182" />
          </g>
        </g>
        <g
           id="g184"
           transform="matrix(1,0,0,-1,0,792)"
           style="stroke-width:1.57394">
          <g
             id="g186"
             style="stroke-width:1.57394">
            <path
               d="m 1112.1919,443.43982 c 1.6026,0.25983 5.1896,1.24898 6.5314,2.3627"
               style="fill:none;stroke:#000000;stroke-width:1.99689;stroke-linecap:round;stroke-linejoin:round;stroke-miterlimit:10;stroke-dasharray:none;stroke-opacity:1"
               id="path188"
               sodipodi:nodetypes="cc" />
          </g>
        </g>
        <g
           id="g190"
           transform="matrix(1,0,0,-1,0,792)"
           style="stroke-width:1.57394">
          <g
             id="g192"
             style="stroke-width:1.57394">
            <path
               d="m 1118.7233,445.80252 c 1.0737,5.00641 0.6128,10.26727 1.0959,15.20096"
               style="fill:none;stroke:#000000;stroke-width:1.99689;stroke-linecap:round;stroke-linejoin:round;stroke-miterlimit:10;stroke-dasharray:none;stroke-opacity:1"
               id="path194" />
          </g>
        </g>
        <g
           id="g196"
           transform="matrix(1,0,0,-1,0,792)"
           style="stroke-width:1.57394">
          <g
             id="g198"
             style="stroke-width:1.57394">
            <path
               d="m 1111.1604,452.97308 c 3.1271,65.60332 0.415,131.34853 0,196.96635 l -0.5335,4.02566"
               style="fill:none;stroke:#000000;stroke-width:1.99689;stroke-linecap:round;stroke-linejoin:round;stroke-miterlimit:10;stroke-dasharray:none;stroke-opacity:1"
               id="path200"
               sodipodi:nodetypes="cccccccc" />
          </g>
        </g>
        <g
           id="g202"
           transform="matrix(1,0,0,-1,0,792)"
           style="stroke-width:1.57394">
          <g
             id="g204"
             style="stroke-width:1.57394">
            <path
               d="m 1111.1029,654.78329 c 0.3965,-61.26305 7.7899,-127.80603 9.0021,-188.92121 -0.7462,-4.56063 -0.2907,-9.29358 -0.8337,-13.88744"
               style="fill:none;stroke:#000000;stroke-width:1.99689;stroke-linecap:round;stroke-linejoin:round;stroke-miterlimit:10;stroke-dasharray:none;stroke-opacity:1"
               id="path206"
               sodipodi:nodetypes="ccc" />
          </g>
        </g>
        <g
           id="g208"
           transform="matrix(1,0,0,-1,0,792)"
           style="stroke-width:1.57394">
          <g
             id="g210"
             style="stroke-width:1.57394">
            <path
               d="m 900.04102,569.40851 c -1.67292,0.32773 -2.24895,-3.042 -0.31563,-4.51869 3.26389,-3.09317 10.81585,-0.0424 10.53557,3.91315 -1.92488,1.97902 -6.9119,2.7489 -5.40321,-0.46673"
               style="fill:none;stroke:#000000;stroke-width:0.998448;stroke-linecap:round;stroke-linejoin:round;stroke-miterlimit:10;stroke-dasharray:none;stroke-opacity:1"
               id="path212" />
          </g>
        </g>
        <g
           id="g214"
           transform="matrix(1,0,0,-1,0,792)"
           style="stroke-width:1.57394">
          <g
             id="g216"
             style="stroke-width:1.57394">
            <path
               d="m 907.45209,573.59399 c -3.28,0.76233 -9.51132,-3.17781 -10.54294,-1.0254 -0.90222,2.32127 -0.0998,7.97443 3.55834,5.67164 0.48739,-1.63264 1.77252,-3.30405 1.35566,-4.88122"
               style="fill:none;stroke:#000000;stroke-width:0.998448;stroke-linecap:round;stroke-linejoin:round;stroke-miterlimit:10;stroke-dasharray:none;stroke-opacity:1"
               id="path218" />
          </g>
        </g>
        <g
           id="g220"
           transform="matrix(1,0,0,-1,0,792)"
           style="stroke-width:1.57394">
          <g
             id="g222"
             style="stroke-width:1.57394">
            <path
               d="m 902.23126,573.2522 c -0.88872,1.90503 2.69175,6.09683 6.04309,5.42028"
               style="fill:none;stroke:#000000;stroke-width:0.998448;stroke-linecap:round;stroke-linejoin:round;stroke-miterlimit:10;stroke-dasharray:none;stroke-opacity:1"
               id="path224" />
          </g>
        </g>
        <g
           id="g226"
           transform="matrix(1,0,0,-1,0,792)"
           style="stroke-width:1.57394">
          <g
             id="g228"
             style="stroke-width:1.57394">
            <path
               d="m 896.3092,581.51776 c 1.67057,0.0339 7.2736,-0.18036 10.07298,1.60648 4.09964,1.92645 -0.63267,4.57627 -3.68279,4.46512 -2.4192,-0.0466 -5.9542,-0.0821 -7.61606,-1.35158"
               style="fill:none;stroke:#000000;stroke-width:0.998448;stroke-linecap:round;stroke-linejoin:round;stroke-miterlimit:10;stroke-dasharray:none;stroke-opacity:1"
               id="path230" />
          </g>
        </g>
        <g
           id="g232"
           transform="matrix(1,0,0,-1,0,792)"
           style="stroke-width:1.57394">
          <g
             id="g234"
             style="stroke-width:1.57394">
            <path
               d="m 906.98456,590.14246 c -2.65495,0.89491 -10.24353,0.63829 -8.87152,4.66191 0.66182,5.38468 6.86249,2.33409 10.45635,1.2713"
               style="fill:none;stroke:#000000;stroke-width:0.998448;stroke-linecap:round;stroke-linejoin:round;stroke-miterlimit:10;stroke-dasharray:none;stroke-opacity:1"
               id="path236" />
          </g>
        </g>
        <g
           id="g238"
           transform="matrix(1,0,0,-1,0,792)"
           style="stroke-width:1.57394">
          <g
             id="g240"
             style="stroke-width:1.57394">
            <path
               d="m 901.83154,600.96448 c 2.85364,-0.82351 7.32868,-2.13448 9.26718,-3.13178"
               style="fill:none;stroke:#000000;stroke-width:0.998448;stroke-linecap:round;stroke-linejoin:round;stroke-miterlimit:10;stroke-dasharray:none;stroke-opacity:1"
               id="path242" />
          </g>
        </g>
        <g
           id="g244"
           transform="matrix(1,0,0,-1,0,792)"
           style="stroke-width:1.57394">
          <g
             id="g246"
             style="stroke-width:1.57394">
            <path
               d="m 901.58197,600.7428 c -1.72366,3.19324 3.6813,7.0301 7.14119,4.73449 1.25797,-1.97632 5.27019,-3.07886 3.58471,-6.0908 -0.12693,-0.11488 -0.85427,-2.15538 -1.73102,-1.88171"
               style="fill:none;stroke:#000000;stroke-width:0.998448;stroke-linecap:round;stroke-linejoin:round;stroke-miterlimit:10;stroke-dasharray:none;stroke-opacity:1"
               id="path248" />
          </g>
        </g>
        <g
           id="g250"
           transform="matrix(1,0,0,-1,0,792)"
           style="stroke-width:1.57394">
          <g
             id="g252"
             style="stroke-width:1.57394">
            <path
               d="m 905.80396,609.84686 c 3.16063,-1.4667 6.64493,-2.76988 9.25695,-5.11706"
               style="fill:none;stroke:#000000;stroke-width:0.998448;stroke-linecap:round;stroke-linejoin:round;stroke-miterlimit:10;stroke-dasharray:none;stroke-opacity:1"
               id="path254" />
          </g>
        </g>
        <g
           id="g256"
           transform="matrix(1,0,0,-1,0,792)"
           style="stroke-width:1.57394">
          <g
             id="g258"
             style="stroke-width:1.57394">
            <path
               d="m 914.23132,615.79456 c -4.07425,2.09588 -6.3294,-3.14146 -2.97513,-5.11658 2.06601,-1.49984 7.44662,-4.93298 7.52034,-0.55141 0.42772,1.48588 -1.99062,5.51021 -3.69815,2.98888 l -0.49557,-0.39504 -0.27539,-0.46844"
               style="fill:none;stroke:#000000;stroke-width:0.998448;stroke-linecap:round;stroke-linejoin:round;stroke-miterlimit:10;stroke-dasharray:none;stroke-opacity:1"
               id="path260" />
          </g>
        </g>
        <g
           id="g262"
           transform="matrix(1,0,0,-1,0,792)"
           style="stroke-width:1.57394">
          <g
             id="g264"
             style="stroke-width:1.57394">
            <path
               d="m 972.72504,628.44092 c 2.20191,3.82507 -6.18794,3.50594 -5.96993,0.229 -3.36677,-3.5731 0.73718,-8.90364 4.51613,-4.57334"
               style="fill:none;stroke:#000000;stroke-width:0.998448;stroke-linecap:round;stroke-linejoin:round;stroke-miterlimit:10;stroke-dasharray:none;stroke-opacity:1"
               id="path266" />
          </g>
        </g>
        <g
           id="g268"
           transform="matrix(1,0,0,-1,0,792)"
           style="stroke-width:1.57394">
          <g
             id="g270"
             style="stroke-width:1.57394">
            <path
               d="m 973.47375,620.93732 c 1.89034,2.4967 1.72127,7.58872 5.99084,7.94043 3.5185,0.47013 4.09173,-3.86891 1.63382,-5.45405 -0.66044,-1.75155 -3.0229,-4.47773 -3.57546,-4.73755"
               style="fill:none;stroke:#000000;stroke-width:0.998448;stroke-linecap:round;stroke-linejoin:round;stroke-miterlimit:10;stroke-dasharray:none;stroke-opacity:1"
               id="path272" />
          </g>
        </g>
        <g
           id="g274"
           transform="matrix(1,0,0,-1,0,792)"
           style="stroke-width:1.57394">
          <g
             id="g276"
             style="stroke-width:1.57394">
            <path
               d="m 979.18402,621.74237 c 0.7678,0.26286 -3.51629,1.36705 -3.20367,2.0542"
               style="fill:none;stroke:#000000;stroke-width:0.998448;stroke-linecap:round;stroke-linejoin:round;stroke-miterlimit:10;stroke-dasharray:none;stroke-opacity:1"
               id="path278" />
          </g>
        </g>
        <g
           id="g280"
           transform="matrix(1,0,0,-1,0,792)"
           style="stroke-width:1.57394">
          <g
             id="g282"
             style="stroke-width:1.57394">
            <path
               d="m 991.40045,619.51599 c 1.81378,0.56499 -2.81422,5.67152 -4.00225,2.10133 -3.14735,-2.63545 3.77012,-5.1056 -0.39508,-6.6626 -2.90062,-0.68191 -4.07177,0.52172 -3.4032,2.91602"
               style="fill:none;stroke:#000000;stroke-width:0.998448;stroke-linecap:round;stroke-linejoin:round;stroke-miterlimit:10;stroke-dasharray:none;stroke-opacity:1"
               id="path284" />
          </g>
        </g>
        <g
           id="g286"
           transform="matrix(1,0,0,-1,0,792)"
           style="stroke-width:1.57394">
          <g
             id="g288"
             style="stroke-width:1.57394">
            <path
               d="m 998.54333,613.48529 c 1.84227,1.50064 -2.08691,5.81419 -3.65557,2.39862 -0.6244,-2.31378 0.0357,-6.75063 -4.27972,-5.31136 -1.03589,0.2353 -2.20823,3.05356 0.0457,3.16782"
               style="fill:none;stroke:#000000;stroke-width:0.998448;stroke-linecap:round;stroke-linejoin:round;stroke-miterlimit:10;stroke-dasharray:none;stroke-opacity:1"
               id="path290" />
          </g>
        </g>
        <g
           id="g292"
           transform="matrix(1,0,0,-1,0,792)"
           style="stroke-width:1.57394">
          <g
             id="g294"
             style="stroke-width:1.57394">
            <path
               d="m 1004.4654,607.55988 c -0.6346,1.01612 -2.4128,2.81893 -2.3846,3.54026"
               style="fill:none;stroke:#000000;stroke-width:0.998448;stroke-linecap:round;stroke-linejoin:round;stroke-miterlimit:10;stroke-dasharray:none;stroke-opacity:1"
               id="path296" />
          </g>
        </g>
        <g
           id="g298"
           transform="matrix(1,0,0,-1,0,792)"
           style="stroke-width:1.57394">
          <g
             id="g300"
             style="stroke-width:1.57394">
            <path
               d="m 1001.6602,611.05194 c -2.62019,-0.75266 -7.09039,-3.00762 -8.95278,-4.5112"
               style="fill:none;stroke:#000000;stroke-width:0.998448;stroke-linecap:round;stroke-linejoin:round;stroke-miterlimit:10;stroke-dasharray:none;stroke-opacity:1"
               id="path302" />
          </g>
        </g>
        <g
           id="g304"
           transform="matrix(1,0,0,-1,0,792)"
           style="stroke-width:1.57394">
          <g
             id="g306"
             style="stroke-width:1.57394">
            <path
               d="m 993.06274,606.52148 c -0.34469,0.0923 2.1237,-2.14595 1.78425,-2.63047"
               style="fill:none;stroke:#000000;stroke-width:0.998448;stroke-linecap:round;stroke-linejoin:round;stroke-miterlimit:10;stroke-dasharray:none;stroke-opacity:1"
               id="path308" />
          </g>
        </g>
        <g
           id="g310"
           transform="matrix(1,0,0,-1,0,792)"
           style="stroke-width:1.57394">
          <g
             id="g312"
             style="stroke-width:1.57394">
            <path
               d="m 998.90698,608.36639 c -0.49167,-0.21366 1.39952,-1.313 1.04377,-2.07727"
               style="fill:none;stroke:#000000;stroke-width:0.998448;stroke-linecap:round;stroke-linejoin:round;stroke-miterlimit:10;stroke-dasharray:none;stroke-opacity:1"
               id="path314" />
          </g>
        </g>
        <g
           id="g316"
           transform="matrix(1,0,0,-1,0,792)"
           style="stroke-width:1.57394">
          <g
             id="g318"
             style="stroke-width:1.57394">
            <path
               d="m 997.9104,599.68341 c 3.1397,0.76193 6.2745,2.2097 9.2973,3.57318"
               style="fill:none;stroke:#000000;stroke-width:0.998448;stroke-linecap:round;stroke-linejoin:round;stroke-miterlimit:10;stroke-dasharray:none;stroke-opacity:1"
               id="path320" />
          </g>
        </g>
        <g
           id="g322"
           transform="matrix(1,0,0,-1,0,792)"
           style="stroke-width:1.57394">
          <g
             id="g324"
             style="stroke-width:1.57394">
            <path
               d="m 1006.6472,605.44336 c -0.085,-0.59919 1.5519,-3.38624 1.9267,-4.23156"
               style="fill:none;stroke:#000000;stroke-width:0.998448;stroke-linecap:round;stroke-linejoin:round;stroke-miterlimit:10;stroke-dasharray:none;stroke-opacity:1"
               id="path326" />
          </g>
        </g>
        <g
           id="g328"
           transform="matrix(1,0,0,-1,0,792)"
           style="stroke-width:1.57394">
          <g
             id="g330"
             style="stroke-width:1.57394">
            <path
               d="m 999.74664,594.30676 c 1.78896,0.0707 6.49276,2.27704 9.21996,1.99311"
               style="fill:none;stroke:#000000;stroke-width:0.998448;stroke-linecap:round;stroke-linejoin:round;stroke-miterlimit:10;stroke-dasharray:none;stroke-opacity:1"
               id="path332" />
          </g>
        </g>
        <g
           id="g334"
           transform="matrix(1,0,0,-1,0,792)"
           style="stroke-width:1.57394">
          <g
             id="g336"
             style="stroke-width:1.57394">
            <path
               d="m 1008.3356,597.77808 c -0.07,-0.0509 0.9528,-3.20767 1.0681,-3.7747"
               style="fill:none;stroke:#000000;stroke-width:0.998448;stroke-linecap:round;stroke-linejoin:round;stroke-miterlimit:10;stroke-dasharray:none;stroke-opacity:1"
               id="path338" />
          </g>
        </g>
        <g
           id="g340"
           transform="matrix(1,0,0,-1,0,792)"
           style="stroke-width:1.57394">
          <g
             id="g342"
             style="stroke-width:1.57394">
            <path
               d="m 1010.451,585.58771 c 1.6116,-0.26025 -0.8357,3.93076 -0.3451,4.42624"
               style="fill:none;stroke:#000000;stroke-width:0.998448;stroke-linecap:round;stroke-linejoin:round;stroke-miterlimit:10;stroke-dasharray:none;stroke-opacity:1"
               id="path344" />
          </g>
        </g>
        <g
           id="g346"
           transform="matrix(1,0,0,-1,0,792)"
           style="stroke-width:1.57394">
          <g
             id="g348"
             style="stroke-width:1.57394">
            <path
               d="m 1009.5823,590.27081 c -2.6323,-0.66805 -10.66839,0.63081 -9.4203,-2.69939 -0.43294,-0.34743 -0.3716,-1.77675 -0.08,-1.88369"
               style="fill:none;stroke:#000000;stroke-width:0.998448;stroke-linecap:round;stroke-linejoin:round;stroke-miterlimit:10;stroke-dasharray:none;stroke-opacity:1"
               id="path350" />
          </g>
        </g>
        <g
           id="g352"
           transform="matrix(1,0,0,-1,0,792)"
           style="stroke-width:1.57394">
          <g
             id="g354"
             style="stroke-width:1.57394">
            <path
               d="m 1005.8629,589.21039 c -0.3999,-0.85108 -0.014,-2.05908 -0.1791,-2.68126"
               style="fill:none;stroke:#000000;stroke-width:0.998448;stroke-linecap:round;stroke-linejoin:round;stroke-miterlimit:10;stroke-dasharray:none;stroke-opacity:1"
               id="path356" />
          </g>
        </g>
        <g
           id="g358"
           transform="matrix(1,0,0,-1,0,792)"
           style="stroke-width:1.57394">
          <g
             id="g360"
             style="stroke-width:1.57394">
            <path
               d="m 914.7486,551.97656 c 27.97461,8.38457 56.52682,15.40337 85.3068,20.10031 15.1518,-5.17102 -5.26386,-25.53947 -15.1914,-26.42736 -17.40497,-1.80426 -33.50726,-11.29749 -50.97908,-10.4383 -7.28952,0.67318 -24.97951,8.4374 -19.13632,16.76535"
               style="fill:none;stroke:#000000;stroke-width:0.998448;stroke-linecap:round;stroke-linejoin:round;stroke-miterlimit:10;stroke-dasharray:none;stroke-opacity:1"
               id="path362"
               sodipodi:nodetypes="ccccc" />
          </g>
        </g>
        <g
           id="g364"
           transform="matrix(1,0,0,-1,0,792)"
           style="stroke-width:1.57394">
          <g
             id="g366"
             style="stroke-width:1.57394">
            <path
               d="m 942.06344,591.04227 c -3.31786,-10.59395 0.52456,-14.35849 3.81027,-16.22204 6.19342,-3.44093 17.71224,-2.01697 20.48061,4.98899 2.40168,2.56739 2.30801,6.79734 0.17738,9.8349 -1.64933,4.23446 -6.89435,9.90002 -12.89288,7.60067 -4.51605,-0.56857 -8.57206,-3.9692 -11.57538,-6.20252"
               style="fill:none;stroke:#000000;stroke-width:0.998448;stroke-linecap:round;stroke-linejoin:round;stroke-miterlimit:10;stroke-dasharray:none;stroke-opacity:1"
               id="path368"
               sodipodi:nodetypes="cccccc" />
          </g>
        </g>
        <g
           id="g370"
           transform="matrix(1,0,0,-1,0,792)"
           style="stroke-width:1.57394">
          <g
             id="g372"
             style="stroke-width:1.57394">
            <path
               d="m 928.1535,626.18018 c 0.0613,-1.62933 1.01031,-5.74402 1.91276,-8.20874 0.66281,-3.54326 1.78668,-5.64439 3.72021,-8.64133 2.14437,-2.60933 5.02881,-6.35646 10.06775,-6.57558 6.22245,-0.72265 12.08694,3.02287 13.27502,8.42394 0.90342,3.05106 1.16958,8.01033 -0.34581,10.93165 -0.24744,3.15043 -1.77508,5.52125 -1.84288,8.16103 -1.82056,2.46124 0.11999,3.65514 -2.72852,2.85621"
               style="fill:none;stroke:#000000;stroke-width:0.998448;stroke-linecap:round;stroke-linejoin:round;stroke-miterlimit:10;stroke-dasharray:none;stroke-opacity:1"
               id="path374" />
          </g>
        </g>
        <g
           id="g376"
           transform="matrix(1,0,0,-1,0,792)"
           style="stroke-width:1.57394">
          <g
             id="g378"
             style="stroke-width:1.57394">
            <path
               d="m 953.28888,633.7121 c -0.25961,1.62457 0.32464,6.76246 -0.32001,8.46363"
               style="fill:none;stroke:#000000;stroke-width:0.998448;stroke-linecap:round;stroke-linejoin:round;stroke-miterlimit:10;stroke-dasharray:none;stroke-opacity:1"
               id="path380" />
          </g>
        </g>
        <g
           id="g382"
           transform="matrix(1,0,0,-1,0,792)"
           style="stroke-width:1.57394">
          <g
             id="g384"
             style="stroke-width:1.57394">
            <path
               d="m 952.12756,642.13849 c -0.0534,0.68141 -1.30473,0.017 -1.72564,0.0676"
               style="fill:none;stroke:#000000;stroke-width:0.998448;stroke-linecap:round;stroke-linejoin:round;stroke-miterlimit:10;stroke-dasharray:none;stroke-opacity:1"
               id="path386" />
          </g>
        </g>
        <g
           id="g388"
           transform="matrix(1,0,0,-1,0,792)"
           style="stroke-width:1.57394">
          <g
             id="g390"
             style="stroke-width:1.57394">
            <path
               d="m 926.97876,627.17822 c -1.56449,-0.72141 1.84913,0.53663 1.98812,0.32508"
               style="fill:none;stroke:#000000;stroke-width:0.998448;stroke-linecap:round;stroke-linejoin:round;stroke-miterlimit:10;stroke-dasharray:none;stroke-opacity:1"
               id="path392" />
          </g>
        </g>
        <g
           id="g394"
           transform="matrix(1,0,0,-1,0,792)"
           style="stroke-width:1.57394">
          <g
             id="g396"
             style="stroke-width:1.57394">
            <path
               d="m 928.89526,627.41614 c -0.37461,1.89188 -3.8483,6.00588 -4.56251,8.1983 l -0.38174,0.6516 -0.10263,0.17518"
               style="fill:none;stroke:#000000;stroke-width:0.998448;stroke-linecap:round;stroke-linejoin:round;stroke-miterlimit:10;stroke-dasharray:none;stroke-opacity:1"
               id="path398" />
          </g>
        </g>
        <g
           id="g400"
           transform="matrix(1,0,0,-1,0,792)"
           style="stroke-width:1.57394">
          <g
             id="g402"
             style="stroke-width:1.57394">
            <path
               d="m 923.71283,636.88477 c 0.87426,-0.55457 1.73245,1.18276 2.87449,1.04608"
               style="fill:none;stroke:#000000;stroke-width:0.998448;stroke-linecap:round;stroke-linejoin:round;stroke-miterlimit:10;stroke-dasharray:none;stroke-opacity:1"
               id="path404" />
          </g>
        </g>
        <g
           id="g406"
           transform="matrix(1,0,0,-1,0,792)"
           style="stroke-width:1.57394">
          <g
             id="g408"
             style="stroke-width:1.57394">
            <path
               d="m 926.97467,637.64294 c 0.33224,-2.45142 3.15003,-3.82797 4.29953,-1.97937 -0.36974,0.40434 -0.92927,0.46542 -1.1286,1.50772"
               style="fill:none;stroke:#000000;stroke-width:0.998448;stroke-linecap:round;stroke-linejoin:round;stroke-miterlimit:10;stroke-dasharray:none;stroke-opacity:1"
               id="path410" />
          </g>
        </g>
        <g
           id="g412"
           transform="matrix(1,0,0,-1,0,792)"
           style="stroke-width:1.57394">
          <g
             id="g414"
             style="stroke-width:1.57394">
            <path
               d="m 930.33527,636.6756 c -2.29786,1.69456 -1.10544,3.6979 1.48368,3.7346 -0.15548,-0.28637 2.49517,-3.7364 2.28482,-4.37515"
               style="fill:none;stroke:#000000;stroke-width:0.998448;stroke-linecap:round;stroke-linejoin:round;stroke-miterlimit:10;stroke-dasharray:none;stroke-opacity:1"
               id="path416" />
          </g>
        </g>
        <g
           id="g418"
           transform="matrix(1,0,0,-1,0,792)"
           style="stroke-width:1.57394">
          <g
             id="g420"
             style="stroke-width:1.57394">
            <path
               d="m 933.82672,636.49414 c 2.8594,-0.91357 3.20191,2.61643 1.90748,4.70053 1.51779,1.13676 4.76394,-0.0506 4.67114,-3.60217 -0.14027,0.0434 0.15625,-0.3844 -0.0756,0.26689"
               style="fill:none;stroke:#000000;stroke-width:0.998448;stroke-linecap:round;stroke-linejoin:round;stroke-miterlimit:10;stroke-dasharray:none;stroke-opacity:1"
               id="path422" />
          </g>
        </g>
        <g
           id="g424"
           transform="matrix(1,0,0,-1,0,792)"
           style="stroke-width:1.57394">
          <g
             id="g426"
             style="stroke-width:1.57394">
            <path
               d="m 940.88074,637.60205 c 4.31992,-0.0204 3.43488,1.42643 3.26108,5.18011 -1.59695,0.1153 5.77611,0.90564 3.23203,-1.19759 0.0148,-0.56485 -0.54525,-4.66474 -0.52658,-3.62237"
               style="fill:none;stroke:#000000;stroke-width:0.998448;stroke-linecap:round;stroke-linejoin:round;stroke-miterlimit:10;stroke-dasharray:none;stroke-opacity:1"
               id="path428" />
          </g>
        </g>
        <g
           id="g430"
           transform="matrix(1,0,0,-1,0,792)"
           style="stroke-width:1.57394">
          <g
             id="g432"
             style="stroke-width:1.57394">
            <path
               d="m 948.18176,637.6886 c 2.74536,-0.35285 1.33566,1.74107 2.13703,4.07341"
               style="fill:none;stroke:#000000;stroke-width:0.998448;stroke-linecap:round;stroke-linejoin:round;stroke-miterlimit:10;stroke-dasharray:none;stroke-opacity:1"
               id="path434" />
          </g>
        </g>
        <g
           id="g436"
           transform="matrix(1,0,0,-1,0,792)"
           style="stroke-width:1.57394">
          <g
             id="g438"
             style="stroke-width:1.57394">
            <path
               d="m 931.60803,632.37866 c 0.60302,-0.0174 6.47969,3.9158 9.77305,3.14615 2.09199,0.21526 5.83228,1.14098 7.11489,0.25327"
               style="fill:none;stroke:#000000;stroke-width:0.998448;stroke-linecap:round;stroke-linejoin:round;stroke-miterlimit:10;stroke-dasharray:none;stroke-opacity:1"
               id="path440" />
          </g>
        </g>
        <g
           id="g442"
           transform="matrix(1,0,0,-1,0,792)"
           style="stroke-width:1.57394">
          <g
             id="g444"
             style="stroke-width:1.57394">
            <path
               d="m 933.32233,629.0451 c 1.82937,1.02936 7.86768,3.38232 11.66599,3.81964 1.00138,-0.0155 2.80489,0.8739 3.50469,0.119"
               style="fill:none;stroke:#000000;stroke-width:0.998448;stroke-linecap:round;stroke-linejoin:round;stroke-miterlimit:10;stroke-dasharray:none;stroke-opacity:1"
               id="path446" />
          </g>
        </g>
        <g
           id="g448"
           transform="matrix(1,0,0,-1,0,792)"
           style="stroke-width:1.57394">
          <g
             id="g450"
             style="stroke-width:1.57394">
            <path
               d="m 930.8288,625.26233 c 6.77584,1.71445 13.75708,4.22469 20.69362,5.52959"
               style="fill:none;stroke:#000000;stroke-width:0.998448;stroke-linecap:round;stroke-linejoin:round;stroke-miterlimit:10;stroke-dasharray:none;stroke-opacity:1"
               id="path452" />
          </g>
        </g>
        <g
           id="g454"
           transform="matrix(1,0,0,-1,0,792)"
           style="stroke-width:1.57394">
          <g
             id="g456"
             style="stroke-width:1.57394">
            <path
               d="m 951.5224,629.82001 c 1.36711,-1.18266 1.21978,-5.39693 2.28354,-8.04771 0.90538,-4.61409 0.65827,-11.21263 -4.04095,-14.0152 -3.19895,-3.26912 -9.41914,-3.6039 -11.09175,1.29952 -2.3402,3.64087 -4.6945,7.56448 -6.23996,10.84716 -0.84459,1.68531 -1.07435,4.96495 -0.60676,4.87455"
               style="fill:none;stroke:#000000;stroke-width:0.998448;stroke-linecap:round;stroke-linejoin:round;stroke-miterlimit:10;stroke-dasharray:none;stroke-opacity:1"
               id="path458" />
          </g>
        </g>
      </g>
    </g>
  </g>
</svg>
