<?xml version="1.0" encoding="UTF-8" standalone="no"?>
<!-- Created by Ashley Blewer - This work is licensed under a Creative Commons Attribution 4.0 International License -->

<svg
   width="544"
   height="480"
   viewBox="0 0 143.93334 127"
   version="1.1"
   id="svg2490"
   inkscape:version="1.2.2 (1:1.2.2+202212051552+b0a8486541)"
   sodipodi:docname="1954-fidelipac-3.svg"
   xmlns:inkscape="http://www.inkscape.org/namespaces/inkscape"
   xmlns:sodipodi="http://sodipodi.sourceforge.net/DTD/sodipodi-0.dtd"
   xmlns="http://www.w3.org/2000/svg"
   xmlns:svg="http://www.w3.org/2000/svg">
  <sodipodi:namedview
     id="namedview2492"
     pagecolor="#ffffff"
     bordercolor="#666666"
     borderopacity="1.0"
     inkscape:pageshadow="2"
     inkscape:pageopacity="0.0"
     inkscape:pagecheckerboard="0"
     inkscape:document-units="mm"
     showgrid="false"
     units="px"
     inkscape:zoom="0.90583674"
     inkscape:cx="53.541657"
     inkscape:cy="253.35691"
     inkscape:window-width="1846"
     inkscape:window-height="1136"
     inkscape:window-x="0"
     inkscape:window-y="0"
     inkscape:window-maximized="1"
     inkscape:current-layer="g4731"
     inkscape:showpageshadow="2"
     inkscape:deskcolor="#d1d1d1" />
  <defs
     id="defs2487" />
  <g
     inkscape:label="Layer 1"
     inkscape:groupmode="layer"
     id="layer1">
    <g
       id="g4731"
       transform="matrix(0.32961229,0,0,0.32903008,-241.78905,1.73126)"
       style="stroke-width:2.68698">
      <g
         id="g104528"
         transform="matrix(1,0,0,-1,0,792)"
         style="stroke-width:2.68698">
        <g
           id="g104530"
           style="stroke-width:2.68698" />
      </g>
      <g
         id="g104996"
         transform="matrix(1,0,0,-1,0,792)"
         style="stroke-width:2.68698">
        <g
           id="g104998"
           style="stroke-width:2.68698" />
      </g>
      <g
         id="g3290"
         transform="matrix(1.2169373,0,0,1.2190906,615.04334,-517.98715)">
        <g
           id="g556"
           transform="matrix(1,0,0,-1,0,792)">
          <g
             id="g558">
            <path
               d="m 279.47931,275.35623 c 5.00726,0.36514 14.27243,-0.34519 17.80008,-4.17581"
               style="fill:none;stroke:#000000;stroke-width:2.61538;stroke-linecap:round;stroke-linejoin:round;stroke-miterlimit:10;stroke-dasharray:none;stroke-opacity:1"
               id="path560"
               sodipodi:nodetypes="cc" />
          </g>
        </g>
        <g
           id="g562"
           transform="matrix(1,0,0,-1,0,792)">
          <g
             id="g564">
            <path
               d="m 297.27939,271.18042 c 32.23495,-5.21432 63.3599,-16.08882 95.94784,-20.22858 8.5876,-1.90636 20.09994,-4.78431 26.96149,-5.96682"
               style="fill:none;stroke:#000000;stroke-width:2.61538;stroke-linecap:round;stroke-linejoin:round;stroke-miterlimit:10;stroke-dasharray:none;stroke-opacity:1"
               id="path566" />
          </g>
        </g>
        <g
           id="g568"
           transform="matrix(1,0,0,-1,0,792)">
          <g
             id="g570">
            <path
               d="m 420.38046,245.04768 c 9.67345,3.56623 21.14363,-5.20984 16.79005,-15.1944 1.53879,-9.21194 -0.62336,-19.95224 -3.0627,-28.19145"
               style="fill:none;stroke:#000000;stroke-width:2.61538;stroke-linecap:round;stroke-linejoin:round;stroke-miterlimit:10;stroke-dasharray:none;stroke-opacity:1"
               id="path572" />
          </g>
        </g>
        <g
           id="g574"
           transform="matrix(1,0,0,-1,0,792)">
          <g
             id="g576">
            <path
               d="m 279.47931,275.35623 c -32.35174,-8.81365 -63.84979,-21.0717 -96.51199,-29.07891 -21.67369,-7.78747 -45.1858,-16.50634 -65.9097,-23.03266"
               style="fill:none;stroke:#000000;stroke-width:2.61538;stroke-linecap:round;stroke-linejoin:round;stroke-miterlimit:10;stroke-dasharray:none;stroke-opacity:1"
               id="path578" />
          </g>
        </g>
        <g
           id="g580"
           transform="matrix(1,0,0,-1,0,792)">
          <g
             id="g582">
            <path
               d="m 117.05762,223.24466 c -3.69272,-12.99688 0.4889,-30.19448 0.4159,-43.4801 1.9652,-0.47458 -1.36157,-2.03414 -0.20559,-2.19205"
               style="fill:none;stroke:#000000;stroke-width:2.61538;stroke-linecap:round;stroke-linejoin:round;stroke-miterlimit:10;stroke-dasharray:none;stroke-opacity:1"
               id="path584"
               sodipodi:nodetypes="ccc" />
          </g>
        </g>
        <g
           id="g586"
           transform="matrix(1,0,0,-1,0,792)">
          <g
             id="g588">
            <path
               d="m 117.26793,177.57251 c 5.41269,-4.57726 10.6274,-0.65049 16.38486,-3.6013"
               style="fill:none;stroke:#000000;stroke-width:2.61538;stroke-linecap:round;stroke-linejoin:round;stroke-miterlimit:10;stroke-dasharray:none;stroke-opacity:1"
               id="path590" />
          </g>
        </g>
        <g
           id="g592"
           transform="matrix(1,0,0,-1,0,792)">
          <g
             id="g594">
            <path
               d="m 134.60323,173.45473 c 5.82859,3.05911 24.91436,-1.65106 23.45238,-7.76335"
               style="fill:none;stroke:#000000;stroke-width:2.61538;stroke-linecap:round;stroke-linejoin:round;stroke-miterlimit:10;stroke-dasharray:none;stroke-opacity:1"
               id="path596" />
          </g>
        </g>
        <g
           id="g598"
           transform="matrix(1,0,0,-1,0,792)">
          <g
             id="g600">
            <path
               d="m 158.54053,163.78017 c 4.09881,-2.04518 11.56701,-6.04155 14.75456,-5.151"
               style="fill:none;stroke:#000000;stroke-width:2.61538;stroke-linecap:round;stroke-linejoin:round;stroke-miterlimit:10;stroke-dasharray:none;stroke-opacity:1"
               id="path602" />
          </g>
        </g>
        <g
           id="g604"
           transform="matrix(1,0,0,-1,0,792)">
          <g
             id="g606">
            <path
               d="m 173.29509,158.62917 c 10.92992,-3.57028 27.91611,-7.86217 37.57141,-11.42136"
               style="fill:none;stroke:#000000;stroke-width:2.61538;stroke-linecap:round;stroke-linejoin:round;stroke-miterlimit:10;stroke-dasharray:none;stroke-opacity:1"
               id="path608"
               sodipodi:nodetypes="cc" />
          </g>
        </g>
        <g
           id="g610"
           transform="matrix(1,0,0,-1,0,792)">
          <g
             id="g612">
            <path
               d="m 210.8665,147.20781 c 1.32823,-3.47797 12.09081,-4.61429 14.84213,-4.22613"
               style="fill:none;stroke:#000000;stroke-width:2.61538;stroke-linecap:round;stroke-linejoin:round;stroke-miterlimit:10;stroke-dasharray:none;stroke-opacity:1"
               id="path614" />
          </g>
        </g>
        <g
           id="g616"
           transform="matrix(1,0,0,-1,0,792)">
          <g
             id="g618">
            <path
               d="m 225.70863,142.98168 c 15.09605,-6.17153 35.08814,-9.88599 48.20703,-16.94543"
               style="fill:none;stroke:#000000;stroke-width:2.61538;stroke-linecap:round;stroke-linejoin:round;stroke-miterlimit:10;stroke-dasharray:none;stroke-opacity:1"
               id="path620"
               sodipodi:nodetypes="cc" />
          </g>
        </g>
        <g
           id="g622"
           transform="matrix(1,0,0,-1,0,792)">
          <g
             id="g624">
            <path
               d="m 274.73743,125.23201 c 5.89038,-4.32992 14.86851,-2.90045 22.00256,-2.67476"
               style="fill:none;stroke:#000000;stroke-width:2.61538;stroke-linecap:round;stroke-linejoin:round;stroke-miterlimit:10;stroke-dasharray:none;stroke-opacity:1"
               id="path626" />
          </g>
        </g>
        <g
           id="g628"
           transform="matrix(1,0,0,-1,0,792)">
          <g
             id="g630">
            <path
               d="m 296.73999,122.55725 c 47.3889,23.86238 93.52746,49.34423 137.36782,79.10458"
               style="fill:none;stroke:#000000;stroke-width:2.61538;stroke-linecap:round;stroke-linejoin:round;stroke-miterlimit:10;stroke-dasharray:none;stroke-opacity:1"
               id="path632"
               sodipodi:nodetypes="cc" />
          </g>
        </g>
        <g
           id="g634"
           transform="matrix(1,0,0,-1,0,792)">
          <g
             id="g636">
            <path
               d="m 115.89439,208.0851 c 4.46109,-1.90127 10.88146,-5.39487 14.78273,-4.58852"
               style="fill:none;stroke:#000000;stroke-width:2.61538;stroke-linecap:round;stroke-linejoin:round;stroke-miterlimit:10;stroke-dasharray:none;stroke-opacity:1"
               id="path638" />
          </g>
        </g>
        <g
           id="g640"
           transform="matrix(1,0,0,-1,0,792)">
          <g
             id="g642">
            <path
               d="m 133.19641,211.64203 c -2.47269,-11.00457 -4.91138,-23.69745 0.45638,-37.67082"
               style="fill:none;stroke:#000000;stroke-width:2.61538;stroke-linecap:round;stroke-linejoin:round;stroke-miterlimit:10;stroke-dasharray:none;stroke-opacity:1"
               id="path644"
               sodipodi:nodetypes="cc" />
          </g>
        </g>
        <g
           id="g646"
           transform="matrix(1,0,0,-1,0,792)">
          <g
             id="g648">
            <path
               d="m 134.96201,211.15367 c 1.55838,-0.86391 3.93803,1.62123 5.75035,1.56554"
               style="fill:none;stroke:#000000;stroke-width:2.61538;stroke-linecap:round;stroke-linejoin:round;stroke-miterlimit:10;stroke-dasharray:none;stroke-opacity:1"
               id="path650" />
          </g>
        </g>
        <g
           id="g652"
           transform="matrix(1,0,0,-1,0,792)">
          <g
             id="g654">
            <path
               d="m 140.98901,212.65176 c 5.53271,-0.98908 12.92081,-4.70479 17.23058,-5.78816"
               style="fill:none;stroke:#000000;stroke-width:2.61538;stroke-linecap:round;stroke-linejoin:round;stroke-miterlimit:10;stroke-dasharray:none;stroke-opacity:1"
               id="path656" />
          </g>
        </g>
        <g
           id="g658"
           transform="matrix(1,0,0,-1,0,792)">
          <g
             id="g660">
            <path
               d="m 157.95149,206.78775 c -1.27812,-12.24235 0.99137,-29.72347 2.7909,-42.82586 l 0.47123,-0.57831"
               style="fill:none;stroke:#000000;stroke-width:2.61538;stroke-linecap:round;stroke-linejoin:round;stroke-miterlimit:10;stroke-dasharray:none;stroke-opacity:1"
               id="path662" />
          </g>
        </g>
        <g
           id="g664"
           transform="matrix(1,0,0,-1,0,792)">
          <g
             id="g666">
            <path
               d="m 173.17584,199.60231 c 0.22934,-9.99951 -1.88911,-34.671 0.11925,-40.97314 l -0.44677,4.98242"
               style="fill:none;stroke:#000000;stroke-width:2.61538;stroke-linecap:round;stroke-linejoin:round;stroke-miterlimit:10;stroke-dasharray:none;stroke-opacity:1"
               id="path668"
               sodipodi:nodetypes="ccc" />
          </g>
        </g>
        <g
           id="g670"
           transform="matrix(1,0,0,-1,0,792)">
          <g
             id="g672">
            <path
               d="m 173.17584,199.60231 c 12.18328,-2.0623 27.32146,-5.16493 36.65569,-10.40286"
               style="fill:none;stroke:#000000;stroke-width:2.61538;stroke-linecap:round;stroke-linejoin:round;stroke-miterlimit:10;stroke-dasharray:none;stroke-opacity:1"
               id="path674" />
          </g>
        </g>
        <g
           id="g676"
           transform="matrix(1,0,0,-1,0,792)">
          <g
             id="g678">
            <path
               d="m 209.78461,187.85674 c 0.26797,-9.39842 0.0918,-31.77964 1.08189,-40.64893"
               style="fill:none;stroke:#000000;stroke-width:2.61538;stroke-linecap:round;stroke-linejoin:round;stroke-miterlimit:10;stroke-dasharray:none;stroke-opacity:1"
               id="path680"
               sodipodi:nodetypes="cc" />
          </g>
        </g>
        <g
           id="g682"
           transform="matrix(1,0,0,-1,0,792)">
          <g
             id="g684">
            <path
               d="m 224.7039,184.00394 c -1.31929,-10.58245 -1.54767,-27.30597 -0.64823,-38.18862 l -0.0533,0.78578"
               style="fill:none;stroke:#000000;stroke-width:2.61538;stroke-linecap:round;stroke-linejoin:round;stroke-miterlimit:10;stroke-dasharray:none;stroke-opacity:1"
               id="path686" />
          </g>
        </g>
        <g
           id="g688"
           transform="matrix(1,0,0,-1,0,792)">
          <g
             id="g690">
            <path
               d="m 224.7039,184.00394 c 10.49581,-5.63659 32.04776,-6.80179 40.17247,-12.26264 l -0.26898,0.0256 -0.31033,-0.36679"
               style="fill:none;stroke:#000000;stroke-width:2.61538;stroke-linecap:round;stroke-linejoin:round;stroke-miterlimit:10;stroke-dasharray:none;stroke-opacity:1"
               id="path692"
               sodipodi:nodetypes="cccc" />
          </g>
        </g>
        <g
           id="g694"
           transform="matrix(1,0,0,-1,0,792)">
          <g
             id="g696">
            <path
               d="m 265.19193,170.66542 c 3.17803,-10.47693 3.08908,-24.44618 1.2975,-34.94881"
               style="fill:none;stroke:#000000;stroke-width:2.61538;stroke-linecap:round;stroke-linejoin:round;stroke-miterlimit:10;stroke-dasharray:none;stroke-opacity:1"
               id="path698" />
          </g>
        </g>
        <g
           id="g700"
           transform="matrix(1,0,0,-1,0,792)">
          <g
             id="g702">
            <path
               d="m 229.30237,155.24005 c 11.44268,-3.22772 22.794,-6.39637 33.88809,-10.5479"
               style="fill:none;stroke:#000000;stroke-width:2.61538;stroke-linecap:round;stroke-linejoin:round;stroke-miterlimit:10;stroke-dasharray:none;stroke-opacity:1"
               id="path704" />
          </g>
        </g>
        <g
           id="g706"
           transform="matrix(1,0,0,-1,0,792)">
          <g
             id="g708">
            <path
               d="m 228.6095,171.7592 c 12.3383,-3.03269 25.80616,-6.5233 36.42495,-12.20669"
               style="fill:none;stroke:#000000;stroke-width:2.61538;stroke-linecap:round;stroke-linejoin:round;stroke-miterlimit:10;stroke-dasharray:none;stroke-opacity:1"
               id="path710" />
          </g>
        </g>
        <g
           id="g712"
           transform="matrix(1,0,0,-1,0,792)">
          <g
             id="g714">
            <path
               d="m 224.05567,145.81532 c 13.4568,0.95859 30.95668,-3.45331 42.43376,-10.09871"
               style="fill:none;stroke:#000000;stroke-width:2.61538;stroke-linecap:round;stroke-linejoin:round;stroke-miterlimit:10;stroke-dasharray:none;stroke-opacity:1"
               id="path716"
               sodipodi:nodetypes="cc" />
          </g>
        </g>
        <g
           id="g718"
           transform="matrix(1,0,0,-1,0,792)">
          <g
             id="g720">
            <path
               d="m 176.07353,163.42862 c 0.72476,-0.0714 -0.91353,-0.22079 0.27417,-0.1403"
               style="fill:none;stroke:#000000;stroke-width:2.61538;stroke-linecap:round;stroke-linejoin:round;stroke-miterlimit:10;stroke-dasharray:none;stroke-opacity:1"
               id="path722" />
          </g>
        </g>
        <g
           id="g724"
           transform="matrix(1,0,0,-1,0,792)">
          <g
             id="g726">
            <path
               d="m 176.09613,170.67384 c 10.31895,-0.96726 22.36981,-4.26904 30.91594,-7.56041"
               style="fill:none;stroke:#000000;stroke-width:2.61538;stroke-linecap:round;stroke-linejoin:round;stroke-miterlimit:10;stroke-dasharray:none;stroke-opacity:1"
               id="path728" />
          </g>
        </g>
        <g
           id="g730"
           transform="matrix(1,0,0,-1,0,792)">
          <g
             id="g732">
            <path
               d="m 173.00783,188.34465 c 11.77276,-3.0725 25.52367,-4.76255 36.97501,-9.40406"
               style="fill:none;stroke:#000000;stroke-width:2.61538;stroke-linecap:round;stroke-linejoin:round;stroke-miterlimit:10;stroke-dasharray:none;stroke-opacity:1"
               id="path734" />
          </g>
        </g>
        <g
           id="g736"
           transform="matrix(1,0,0,-1,0,792)">
          <g
             id="g738">
            <path
               d="m 132.43393,199.13107 c 7.60419,-2.35021 17.20123,-4.36654 23.78589,-6.81083"
               style="fill:none;stroke:#000000;stroke-width:2.61538;stroke-linecap:round;stroke-linejoin:round;stroke-miterlimit:10;stroke-dasharray:none;stroke-opacity:1"
               id="path740" />
          </g>
        </g>
        <g
           id="g742"
           transform="matrix(1,0,0,-1,0,792)">
          <g
             id="g744">
            <path
               d="m 132.79748,185.55873 c 8.65265,-0.065 17.18774,-2.51733 25.37742,-4.83839"
               style="fill:none;stroke:#000000;stroke-width:2.61538;stroke-linecap:round;stroke-linejoin:round;stroke-miterlimit:10;stroke-dasharray:none;stroke-opacity:1"
               id="path746" />
          </g>
        </g>
        <g
           id="g748"
           transform="matrix(1,0,0,-1,0,792)">
          <g
             id="g750">
            <path
               d="M 437.17051,229.85328 328.73825,173.03271 c -21.34987,-10.27723 -38.83323,-21.71049 -60.888,-10.98404"
               style="fill:none;stroke:#000000;stroke-width:2.61538;stroke-linecap:round;stroke-linejoin:round;stroke-miterlimit:10;stroke-dasharray:none;stroke-opacity:1"
               id="path752"
               sodipodi:nodetypes="ccc" />
          </g>
        </g>
        <g
           id="g754"
           transform="matrix(1,0,0,-1,0,792)">
          <g
             id="g756">
            <path
               d="m 277.72284,245.32716 c 2.26231,-0.19816 7.32058,-1.89376 10.14341,-2.86035"
               style="fill:none;stroke:#000000;stroke-width:1.30769;stroke-linecap:round;stroke-linejoin:round;stroke-miterlimit:10;stroke-dasharray:none;stroke-opacity:1"
               id="path758" />
          </g>
        </g>
        <g
           id="g760"
           transform="matrix(1,0,0,-1,0,792)">
          <g
             id="g762">
            <path
               d="m 285.47287,244.14198 c 10.01834,2.60517 29.86091,5.92618 32.39868,-6.24302"
               style="fill:none;stroke:#000000;stroke-width:1.30769;stroke-linecap:round;stroke-linejoin:round;stroke-miterlimit:10;stroke-dasharray:none;stroke-opacity:1"
               id="path764"
               sodipodi:nodetypes="cc" />
          </g>
        </g>
        <g
           id="g766"
           transform="matrix(1,0,0,-1,0,792)">
          <g
             id="g768">
            <path
               d="m 317.87155,237.89896 c 4.48226,-0.20977 11.59184,-2.29304 16.69614,-3.94511"
               style="fill:none;stroke:#000000;stroke-width:1.30769;stroke-linecap:round;stroke-linejoin:round;stroke-miterlimit:10;stroke-dasharray:none;stroke-opacity:1"
               id="path770" />
          </g>
        </g>
        <g
           id="g772"
           transform="matrix(1,0,0,-1,0,792)">
          <g
             id="g774">
            <path
               d="m 334.56769,233.95385 c -1.55635,0.0579 -3.16503,-3.8829 -5.69525,-3.92667"
               style="fill:none;stroke:#000000;stroke-width:1.30769;stroke-linecap:round;stroke-linejoin:round;stroke-miterlimit:10;stroke-dasharray:none;stroke-opacity:1"
               id="path776"
               sodipodi:nodetypes="cc" />
          </g>
        </g>
        <g
           id="g778"
           transform="matrix(1,0,0,-1,0,792)">
          <g
             id="g780">
            <path
               d="m 328.87244,230.02718 c -3.1366,0.43816 -9.86226,1.84034 -13.05997,1.76591"
               style="fill:none;stroke:#000000;stroke-width:1.30769;stroke-linecap:round;stroke-linejoin:round;stroke-miterlimit:10;stroke-dasharray:none;stroke-opacity:1"
               id="path782"
               sodipodi:nodetypes="cc" />
          </g>
        </g>
        <g
           id="g784"
           transform="matrix(1,0,0,-1,0,792)">
          <g
             id="g786">
            <path
               d="m 315.81247,231.79309 c -11.63895,-5.04448 -27.93225,-2.64303 -37.29691,5.31446"
               style="fill:none;stroke:#000000;stroke-width:1.30769;stroke-linecap:round;stroke-linejoin:round;stroke-miterlimit:10;stroke-dasharray:none;stroke-opacity:1"
               id="path788" />
          </g>
        </g>
        <g
           id="g790"
           transform="matrix(1,0,0,-1,0,792)">
          <g
             id="g792">
            <path
               d="m 278.51556,237.10755 c -2.91845,2.52238 -8.76334,2.97288 -11.58694,5.31049"
               style="fill:none;stroke:#000000;stroke-width:1.30769;stroke-linecap:round;stroke-linejoin:round;stroke-miterlimit:10;stroke-dasharray:none;stroke-opacity:1"
               id="path794"
               sodipodi:nodetypes="cc" />
          </g>
        </g>
        <g
           id="g796"
           transform="matrix(1,0,0,-1,0,792)">
          <g
             id="g798">
            <path
               d="m 277.72284,245.32716 c 0,0 -11.83057,-1.225 -10.79422,-2.90912"
               style="fill:none;stroke:#000000;stroke-width:1.30769;stroke-linecap:round;stroke-linejoin:round;stroke-miterlimit:10;stroke-dasharray:none;stroke-opacity:1"
               id="path800"
               sodipodi:nodetypes="cc" />
          </g>
        </g>
        <g
           id="g802"
           transform="matrix(1,0,0,-1,0,792)">
          <g
             id="g804">
            <path
               d="m 288.38956,242.03766 c -11.44252,-8.76408 28.78075,-8.72974 17.03617,-8.0561 3.81921,-0.63787 10.01535,1.75136 9.18007,5.89379"
               style="fill:none;stroke:#000000;stroke-width:1.30769;stroke-linecap:round;stroke-linejoin:round;stroke-miterlimit:10;stroke-dasharray:none;stroke-opacity:1"
               id="path806" />
          </g>
        </g>
        <g
           id="g808"
           transform="matrix(1,0,0,-1,0,792)">
          <g
             id="g810">
            <path
               d="m 311.75986,242.35349 c -6.11767,1.81453 -16.57978,2.03703 -21.14823,-0.80598"
               style="fill:none;stroke:#000000;stroke-width:1.30769;stroke-linecap:round;stroke-linejoin:round;stroke-miterlimit:10;stroke-dasharray:none;stroke-opacity:1"
               id="path812" />
          </g>
        </g>
        <g
           id="g814"
           transform="matrix(1,0,0,-1,0,792)">
          <g
             id="g816">
            <path
               d="m 116.16736,218.83066 c 2.85308,-3.88765 8.06016,-4.72828 12.56235,-5.13458"
               style="fill:none;stroke:#000000;stroke-width:1.30769;stroke-linecap:round;stroke-linejoin:round;stroke-miterlimit:10;stroke-dasharray:none;stroke-opacity:1"
               id="path818" />
          </g>
        </g>
        <g
           id="g820"
           transform="matrix(1,0,0,-1,0,792)">
          <g
             id="g822">
            <path
               d="m 159.88438,203.75549 c 1.51964,-0.93885 3.76665,-1.11325 5.41634,-2.14244"
               style="fill:none;stroke:#000000;stroke-width:1.30769;stroke-linecap:round;stroke-linejoin:round;stroke-miterlimit:10;stroke-dasharray:none;stroke-opacity:1"
               id="path824" />
          </g>
        </g>
        <g
           id="g826"
           transform="matrix(1,0,0,-1,0,792)">
          <g
             id="g828">
            <path
               d="m 213.95049,187.52974 c -2.69074,0.0174 4.76828,-0.58961 4.09794,-1.25666"
               style="fill:none;stroke:#000000;stroke-width:1.30769;stroke-linecap:round;stroke-linejoin:round;stroke-miterlimit:10;stroke-dasharray:none;stroke-opacity:1"
               id="path830" />
          </g>
        </g>
        <g
           id="g832"
           transform="matrix(1,0,0,-1,0,792)">
          <g
             id="g834">
            <path
               d="m 268.37048,174.15926 c 8.22329,-2.21044 18.33526,-6.6387 25.90888,-5.83791"
               style="fill:none;stroke:#000000;stroke-width:1.30769;stroke-linecap:round;stroke-linejoin:round;stroke-miterlimit:10;stroke-dasharray:none;stroke-opacity:1"
               id="path836" />
          </g>
        </g>
        <g
           id="g838"
           transform="matrix(1,0,0,-1,0,792)">
          <g
             id="g840">
            <path
               d="m 298.5036,166.98694 c 23.33189,10.68399 45.75076,24.06081 69.89634,33.54195 20.71312,11.92298 44.95253,22.16602 64.10284,33.93666"
               style="fill:none;stroke:#000000;stroke-width:1.30769;stroke-linecap:round;stroke-linejoin:round;stroke-miterlimit:10;stroke-dasharray:none;stroke-opacity:1"
               id="path842" />
          </g>
        </g>
        <g
           id="g844"
           transform="matrix(1,0,0,-1,0,792)">
          <g
             id="g846">
            <path
               d="m 420.13174,244.28712 c -29.06796,-18.21982 -61.83058,-29.97534 -92.73046,-44.98078 -17.44867,-6.7452 -35.75084,-14.75782 -51.22776,-24.44108"
               style="fill:none;stroke:#000000;stroke-width:1.30769;stroke-linecap:round;stroke-linejoin:round;stroke-miterlimit:10;stroke-dasharray:none;stroke-opacity:1"
               id="path848" />
          </g>
        </g>
        <g
           id="g850"
           transform="matrix(1,0,0,-1,0,792)">
          <g
             id="g852">
            <path
               d="M 284.06406,271.47937 C 261.86558,259.92399 235.055,255.62918 212.19679,244.00366 184.31617,236.7868 154.91633,229.34351 129.60229,216.38279"
               style="fill:none;stroke:#000000;stroke-width:1.30769;stroke-linecap:round;stroke-linejoin:round;stroke-miterlimit:10;stroke-dasharray:none;stroke-opacity:1"
               id="path854" />
          </g>
        </g>
        <g
           id="g856"
           transform="matrix(1,0,0,-1,0,792)">
          <g
             id="g858">
            <path
               d="m 175.90002,227.15602 c 14.78165,-4.6384 32.29233,-10.29054 45.30462,-14.61476"
               style="fill:none;stroke:#000000;stroke-width:1.30769;stroke-linecap:round;stroke-linejoin:round;stroke-miterlimit:10;stroke-dasharray:none;stroke-opacity:1"
               id="path860" />
          </g>
        </g>
        <g
           id="g862"
           transform="matrix(1,0,0,-1,0,792)">
          <g
             id="g864">
            <path
               d="m 221.20464,212.54126 c -1.3839,-9.96131 11.1739,-7.80911 17.25347,-6.28437"
               style="fill:none;stroke:#000000;stroke-width:1.30769;stroke-linecap:round;stroke-linejoin:round;stroke-miterlimit:10;stroke-dasharray:none;stroke-opacity:1"
               id="path866"
               sodipodi:nodetypes="cc" />
          </g>
        </g>
        <g
           id="g868"
           transform="matrix(1,0,0,-1,0,792)">
          <g
             id="g870">
            <path
               d="m 238.45811,206.25689 c 16.39038,-3.46942 42.32434,-8.54011 57.80794,-15.1322"
               style="fill:none;stroke:#000000;stroke-width:1.30769;stroke-linecap:round;stroke-linejoin:round;stroke-miterlimit:10;stroke-dasharray:none;stroke-opacity:1"
               id="path872"
               sodipodi:nodetypes="cc" />
          </g>
        </g>
      </g>
    </g>
  </g>
</svg>
