<?xml version="1.0" encoding="UTF-8" standalone="no"?>
<!-- Created by Ashley Blewer - This work is licensed under a Creative Commons Attribution 4.0 International License -->

<svg
   width="544"
   height="480"
   viewBox="0 0 143.93334 127"
   version="1.1"
   id="svg2490"
   inkscape:version="1.2.2 (1:1.2.2+202212051552+b0a8486541)"
   sodipodi:docname="1959-minifon-tape-1.svg"
   xmlns:inkscape="http://www.inkscape.org/namespaces/inkscape"
   xmlns:sodipodi="http://sodipodi.sourceforge.net/DTD/sodipodi-0.dtd"
   xmlns="http://www.w3.org/2000/svg"
   xmlns:svg="http://www.w3.org/2000/svg">
  <sodipodi:namedview
     id="namedview2492"
     pagecolor="#ffffff"
     bordercolor="#666666"
     borderopacity="1.0"
     inkscape:pageshadow="2"
     inkscape:pageopacity="0.0"
     inkscape:pagecheckerboard="0"
     inkscape:document-units="mm"
     showgrid="false"
     units="px"
     inkscape:zoom="0.90583674"
     inkscape:cx="53.541657"
     inkscape:cy="253.35691"
     inkscape:window-width="1846"
     inkscape:window-height="1136"
     inkscape:window-x="0"
     inkscape:window-y="0"
     inkscape:window-maximized="1"
     inkscape:current-layer="g4731"
     inkscape:showpageshadow="2"
     inkscape:deskcolor="#d1d1d1" />
  <defs
     id="defs2487" />
  <g
     inkscape:label="Layer 1"
     inkscape:groupmode="layer"
     id="layer1">
    <g
       id="g4731"
       transform="matrix(0.32961229,0,0,0.32903008,-241.78905,1.73126)"
       style="stroke-width:2.68698">
      <g
         id="g104528"
         transform="matrix(1,0,0,-1,0,792)"
         style="stroke-width:2.68698">
        <g
           id="g104530"
           style="stroke-width:2.68698" />
      </g>
      <g
         id="g104996"
         transform="matrix(1,0,0,-1,0,792)"
         style="stroke-width:2.68698">
        <g
           id="g104998"
           style="stroke-width:2.68698" />
      </g>
      <g
         id="g3455"
         transform="matrix(1.1489983,0,0,1.1510314,-202.69171,-72.221668)">
        <g
           id="g52"
           transform="matrix(1,0,0,-1,0,792)">
          <g
             id="g54">
            <path
               d="m 918.43677,630.9176 c 8.79399,0.29775 21.09096,1.18602 28.94955,-3.35219 3.72557,-5.4658 1.36522,-12.4858 3.4403,-18.43191"
               style="fill:none;stroke:#000000;stroke-width:2.61674;stroke-linecap:round;stroke-linejoin:round;stroke-miterlimit:10;stroke-dasharray:none;stroke-opacity:1"
               id="path56"
               sodipodi:nodetypes="ccc" />
          </g>
        </g>
        <g
           id="g58"
           transform="matrix(1,0,0,-1,0,792)">
          <g
             id="g60">
            <path
               d="m 951.97803,621.49872 c 26.5927,-5.09462 54.20207,-4.25144 80.13277,-12.86362 32.3794,-8.49219 65.9251,-10.49311 98.8404,-16.03595 l -0.3675,0.0291 5.1997,1.67236"
               style="fill:none;stroke:#000000;stroke-width:2.61674;stroke-linecap:round;stroke-linejoin:round;stroke-miterlimit:10;stroke-dasharray:none;stroke-opacity:1"
               id="path62"
               sodipodi:nodetypes="ccccc" />
          </g>
        </g>
        <g
           id="g64"
           transform="matrix(1,0,0,-1,0,792)">
          <g
             id="g66">
            <path
               d="m 950.82662,609.1335 c 11.69587,-2.81779 26.87991,-4.44087 38.95813,-5.80762 6.41091,-0.60474 12.80875,-2.24272 17.70835,-6.84547 5.7747,-3.61589 11.7692,-8.34646 19.5369,-9.43914 7.3625,-1.53492 15.8069,-0.49907 22.736,1.81326 17.9958,5.32664 62.4333,-6.43965 78.2798,-11.2869"
               style="fill:none;stroke:#000000;stroke-width:2.61674;stroke-linecap:round;stroke-linejoin:round;stroke-miterlimit:10;stroke-dasharray:none;stroke-opacity:1"
               id="path68"
               sodipodi:nodetypes="cccccc" />
          </g>
        </g>
        <g
           id="g70"
           transform="matrix(1,0,0,-1,0,792)">
          <g
             id="g72">
            <path
               d="m 1128.0458,577.56763 c 3.1643,1.77263 4.9472,5.17755 6.0039,8.52086 0.8515,2.67198 1.31,5.44627 1.7337,8.21212 1.2172,0.98071 2.9539,1.30703 4.3863,0.60278 0.9424,-0.62594 2.1225,-0.42849 3.1534,-0.87404 0.5053,-0.16419 3.6207,-1.03839 3.6244,-1.15655"
               style="fill:none;stroke:#000000;stroke-width:2.61674;stroke-linecap:round;stroke-linejoin:round;stroke-miterlimit:10;stroke-dasharray:none;stroke-opacity:1"
               id="path74"
               sodipodi:nodetypes="cccccc" />
          </g>
        </g>
        <g
           id="g76"
           transform="matrix(1,0,0,-1,0,792)">
          <g
             id="g78">
            <path
               d="m 1146.9475,592.8728 c 6.3385,-2.28655 15.042,-0.72507 20.6791,-4.85899 -0.1054,0.23674 1.0475,-3.89108 1.1265,-4.00038"
               style="fill:none;stroke:#000000;stroke-width:2.61674;stroke-linecap:round;stroke-linejoin:round;stroke-miterlimit:10;stroke-dasharray:none;stroke-opacity:1"
               id="path80"
               sodipodi:nodetypes="ccc" />
          </g>
        </g>
        <g
           id="g82"
           transform="matrix(1,0,0,-1,0,792)">
          <g
             id="g84">
            <path
               d="m 1168.7531,584.01343 c -2.2142,-17.87463 -7.1927,-35.39765 -9.6814,-53.43794 -1.675,-8.09808 -1.8218,-16.34656 -3.6311,-24.43995 -2.0891,-11.3032 -4.8055,-22.41534 -7.802,-33.46201 -1.2763,-8.81344 -2.1035,-18.29593 -4.6798,-26.46864 -0.9263,-2.49776 -3.1582,-3.97806 -5.3435,-4.05851 0.3566,0.29045 -1.6806,-1.14683 -1.2945,-0.0386"
               style="fill:none;stroke:#000000;stroke-width:2.61674;stroke-linecap:round;stroke-linejoin:round;stroke-miterlimit:10;stroke-dasharray:none;stroke-opacity:1"
               id="path86" />
          </g>
        </g>
        <g
           id="g88"
           transform="matrix(1,0,0,-1,0,792)">
          <g
             id="g90">
            <path
               d="m 918.43677,630.9176 c -25.26773,-37.71292 -58.02275,-69.75102 -84.60181,-106.36815 -1.08501,-2.27289 -1.68589,-4.80886 -1.52162,-7.33698"
               style="fill:none;stroke:#000000;stroke-width:2.61674;stroke-linecap:round;stroke-linejoin:round;stroke-miterlimit:10;stroke-dasharray:none;stroke-opacity:1"
               id="path92" />
          </g>
        </g>
        <g
           id="g94"
           transform="matrix(1,0,0,-1,0,792)">
          <g
             id="g96">
            <path
               d="m 832.55249,516.08887 c 0.80928,-1.68183 2.5234,-4.0685 4.87461,-4.21811 7.2629,-3.73789 16.63891,-5.9528 25.90352,-7.2355 14.14329,-3.77546 28.61194,-7.18212 43.15704,-10.36025 19.57094,-5.3696 40.01628,-8.55289 59.40321,-13.47286 17.29549,-5.1801 35.28453,-7.9346 52.54743,-13.43906 11.7621,-3.15813 23.8363,-5.47294 35.5676,-9.0165 14.5827,-3.47042 29.5869,-5.02314 43.9563,-9.25164 11.4617,-2.69921 22.964,-5.55134 34.665,-6.76151 2.3642,-0.15393 4.4725,1.35527 6.6259,1.32855"
               style="fill:none;stroke:#000000;stroke-width:2.61674;stroke-linecap:round;stroke-linejoin:round;stroke-miterlimit:10;stroke-dasharray:none;stroke-opacity:1"
               id="path98" />
          </g>
        </g>
        <g
           id="g100"
           transform="matrix(1,0,0,-1,0,792)">
          <g
             id="g102">
            <path
               d="m 834.22998,513.51849 c 1.21835,-0.9937 3.21007,-4.88834 4.16831,-7.28474 1.25091,-3.36834 3.69493,-11.9341 3.47349,-11.79736"
               style="fill:none;stroke:#000000;stroke-width:2.61674;stroke-linecap:round;stroke-linejoin:round;stroke-miterlimit:10;stroke-dasharray:none;stroke-opacity:1"
               id="path104"
               sodipodi:nodetypes="ccc" />
          </g>
        </g>
        <g
           id="g106"
           transform="matrix(1,0,0,-1,0,792)">
          <g
             id="g108">
            <path
               d="m 839.88384,501.7136 c -1.79047,-16.6669 22.53108,-16.66396 33.89316,-21.22403 55.85894,-15.73107 113.2733,-24.62606 169.6447,-38.14998 28.621,-6.55566 56.1957,-18.37956 85.4885,-21.44741 6.378,0.74566 9.2899,5.01713 10.8203,11.21353"
               style="fill:none;stroke:#000000;stroke-width:2.61674;stroke-linecap:round;stroke-linejoin:round;stroke-miterlimit:10;stroke-dasharray:none;stroke-opacity:1"
               id="path110"
               sodipodi:nodetypes="ccccc" />
          </g>
        </g>
        <g
           id="g112"
           transform="matrix(1,0,0,-1,0,792)">
          <g
             id="g114">
            <path
               d="m 1136.9537,425.9964 c -0.4124,1.03489 1.3555,6.1602 1.8493,8.60463 0.3347,2.75753 1.8318,5.85776 2.8722,7.97466"
               style="fill:none;stroke:#000000;stroke-width:2.61674;stroke-linecap:round;stroke-linejoin:round;stroke-miterlimit:10;stroke-dasharray:none;stroke-opacity:1"
               id="path116" />
          </g>
        </g>
        <g
           id="g118"
           transform="matrix(1,0,0,-1,0,792)">
          <g
             id="g120">
            <path
               d="m 1139.7305,432.10571 c 1.8814,3.29923 2.7424,8.7045 4.2721,12.76825 5.0761,17.811 11.2931,35.56787 15.5148,53.64037 3.3421,9.56991 4.9277,19.48704 7.3969,29.15223 1.2985,12.05369 4.9398,23.89357 8.5441,35.36208 1.4186,2.55577 1.3531,21.43496 1.3531,21.43496 v 0 l -9.1849,3.55021"
               style="fill:none;stroke:#000000;stroke-width:2.61674;stroke-linecap:round;stroke-linejoin:round;stroke-miterlimit:10;stroke-dasharray:none;stroke-opacity:1"
               id="path122"
               sodipodi:nodetypes="cccccccc" />
          </g>
        </g>
        <g
           id="g124"
           transform="matrix(1,0,0,-1,0,792)">
          <g
             id="g126">
            <path
               d="m 1176.8635,575.7597 c 0.7933,2.19584 0.7546,6.97865 -0.052,8.7039 -3.004,-4.56698 -6.1985,-8.98511 -9.1086,-13.81794 -0.034,-0.53644 -1.8145,-3.21181 -1.1376,-2.27106"
               style="fill:none;stroke:#000000;stroke-width:2.61674;stroke-linecap:round;stroke-linejoin:round;stroke-miterlimit:10;stroke-dasharray:none;stroke-opacity:1"
               id="path128" />
          </g>
        </g>
        <g
           id="g130"
           transform="matrix(1,0,0,-1,0,792)">
          <g
             id="g132">
            <path
               d="m 990.20148,648.38037 c -6.24474,-2.81668 -12.99855,-7.16322 -18.62438,-11.73483 -6.93753,-5.61258 -13.80677,-9.91199 -20.79577,-15.21166 -0.72214,-0.21695 -1.50166,-0.99548 -0.62657,-0.34441"
               style="fill:none;stroke:#000000;stroke-width:2.61674;stroke-linecap:round;stroke-linejoin:round;stroke-miterlimit:10;stroke-dasharray:none;stroke-opacity:1"
               id="path134" />
          </g>
        </g>
        <g
           id="g136"
           transform="matrix(1,0,0,-1,0,792)">
          <g
             id="g138">
            <path
               d="m 990.20148,648.38037 c 57.26132,-10.09542 114.53792,-37.1033 168.75072,-57.08947"
               style="fill:none;stroke:#000000;stroke-width:2.61674;stroke-linecap:round;stroke-linejoin:round;stroke-miterlimit:10;stroke-dasharray:none;stroke-opacity:1"
               id="path140"
               sodipodi:nodetypes="cc" />
          </g>
        </g>
        <g
           id="g142"
           transform="matrix(1,0,0,-1,0,792)">
          <g
             id="g144">
            <path
               d="m 948.56122,601.4978 c 17.50892,-0.17178 36.25019,1.11088 51.85858,-8.38222 10.2285,-4.7166 17.6122,-17.89897 30.3536,-14.4095 11.4512,2.96333 23.1572,4.39216 34.9922,3.77427 20.5016,-0.49256 41.0288,-6.37976 58.475,-17.16335 17.7569,-10.93356 27.9293,-34.001 21.5715,-54.21558 -4.9795,-12.61086 -16.1797,-22.02681 -29.152,-25.75942 -20.1247,-6.80434 -41.2815,-11.45845 -62.5836,-11.58031 -18.3301,1.00343 -36.0073,8.70833 -50.7103,19.43711 -7.53949,4.28364 -11.18314,12.88082 -15.82319,18.35106 -9.45833,-3.99236 -18.93998,-7.92966 -29.34409,-9.34448 -13.07686,-2.89422 -27.06512,-2.91363 -39.53185,2.42255 -10.07238,3.61136 -23.16052,6.88396 -29.98749,14.86795"
               style="fill:none;stroke:#000000;stroke-width:2.61674;stroke-linecap:round;stroke-linejoin:round;stroke-miterlimit:10;stroke-dasharray:none;stroke-opacity:1"
               id="path146" />
          </g>
        </g>
        <g
           id="g148"
           transform="matrix(1,0,0,-1,0,792)">
          <g
             id="g150">
            <path
               d="m 946.73096,602.38287 c 0.0484,-1.16835 -4.65962,0.68549 -6.83888,0.23023 -7.04764,1.14005 -13.26903,-2.57376 -19.62353,-4.49953 -8.87266,-4.25996 -17.93098,-9.08103 -26.19988,-15.3341 -4.18512,-3.28336 -7.93966,-7.55984 -12.47189,-11.11156 -5.55547,-5.17997 -8.27059,-11.92177 -8.47232,-19.45102 -0.47387,-4.35242 -0.69329,-9.40287 -1.04237,-14.0768 0.22472,-4.62801 1.13507,-8.37199 3.25354,-12.32718"
               style="fill:none;stroke:#000000;stroke-width:2.61674;stroke-linecap:round;stroke-linejoin:round;stroke-miterlimit:10;stroke-dasharray:none;stroke-opacity:1"
               id="path152"
               sodipodi:nodetypes="cccccccc" />
          </g>
        </g>
        <g
           id="g154"
           transform="matrix(1,0,0,-1,0,792)">
          <g
             id="g156">
            <path
               d="m 944.42694,625.66461 c -0.41562,0.41574 -2.87451,-3.19911 -4.46249,-4.43323 -1.91806,-2.89138 -4.15598,-7.8134 -3.6712,-10.32163 1.9944,-2.68167 7.75546,-1.16371 11.07775,-3.15581 1.02714,-0.34594 3.37243,-1.18078 2.37011,-1.04104"
               style="fill:none;stroke:#000000;stroke-width:1.26872;stroke-linecap:round;stroke-linejoin:round;stroke-miterlimit:10;stroke-dasharray:none;stroke-opacity:1"
               id="path158" />
          </g>
        </g>
        <g
           id="g160"
           transform="matrix(1,0,0,-1,0,792)">
          <g
             id="g162">
            <path
               d="m 946.02277,620.99646 c -1.19073,-0.76769 -3.51575,-4.65817 -5.01456,-6.63082 -1.58843,-2.72828 1.25891,-4.04332 1.17743,-3.88068 -0.27465,0.015 0.11333,0.3553 -0.19422,0.40438"
               style="fill:none;stroke:#000000;stroke-width:1.26872;stroke-linecap:round;stroke-linejoin:round;stroke-miterlimit:10;stroke-dasharray:none;stroke-opacity:1"
               id="path164" />
          </g>
        </g>
        <g
           id="g166"
           transform="matrix(1,0,0,-1,0,792)">
          <g
             id="g168">
            <path
               d="m 946.94604,616.64398 c 0.23029,-0.71601 -4.64527,-3.98556 -3.72281,-6.04339 -0.18113,-0.62459 -0.0275,-0.0902 -0.26203,-0.28143"
               style="fill:none;stroke:#000000;stroke-width:1.26872;stroke-linecap:round;stroke-linejoin:round;stroke-miterlimit:10;stroke-dasharray:none;stroke-opacity:1"
               id="path170" />
          </g>
        </g>
        <g
           id="g172"
           transform="matrix(1,0,0,-1,0,792)">
          <g
             id="g174">
            <path
               d="m 1146.0502,579.12817 c -0.589,0.13369 -5.7097,-0.86074 -3.8018,-4.69005 2.4397,-4.26788 10.52,-0.6382 7.4696,3.31715 -1.2214,0.94846 -3.5303,0.96106 -4.7096,0.83112"
               style="fill:none;stroke:#000000;stroke-width:1.26872;stroke-linecap:round;stroke-linejoin:round;stroke-miterlimit:10;stroke-dasharray:none;stroke-opacity:1"
               id="path176" />
          </g>
        </g>
        <g
           id="g178"
           transform="matrix(1,0,0,-1,0,792)">
          <g
             id="g180">
            <path
               d="m 1150.7505,570.08453 c -2.1793,2.52852 -3.1354,-3.40566 0.6457,-2.19412 2.52,0.99308 -1.2561,2.46714 -2.0641,2.44144"
               style="fill:none;stroke:#000000;stroke-width:1.26872;stroke-linecap:round;stroke-linejoin:round;stroke-miterlimit:10;stroke-dasharray:none;stroke-opacity:1"
               id="path182" />
          </g>
        </g>
        <g
           id="g184"
           transform="matrix(1,0,0,-1,0,792)">
          <g
             id="g186">
            <path
               d="m 1135.8696,572.77368 c -2.0175,1.81292 -6.3172,-0.73972 -4.1674,-3.65584 2.2847,-5.07081 10.9947,-4.74616 10.264,1.66096 -1.3226,2.91537 -6.0856,1.90288 -8.4515,2.08835"
               style="fill:none;stroke:#000000;stroke-width:1.26872;stroke-linecap:round;stroke-linejoin:round;stroke-miterlimit:10;stroke-dasharray:none;stroke-opacity:1"
               id="path188" />
          </g>
        </g>
        <g
           id="g190"
           transform="matrix(1,0,0,-1,0,792)">
          <g
             id="g192">
            <path
               d="m 1132.2927,570.05591 c 2.3731,-0.39788 6.4052,-1.77936 9.3608,-1.93931"
               style="fill:none;stroke:#000000;stroke-width:1.26872;stroke-linecap:round;stroke-linejoin:round;stroke-miterlimit:10;stroke-dasharray:none;stroke-opacity:1"
               id="path194" />
          </g>
        </g>
        <g
           id="g196"
           transform="matrix(1,0,0,-1,0,792)">
          <g
             id="g198">
            <path
               d="m 924.51959,618.80298 c -1.56104,0.60363 -5.62395,-3.41442 -2.24144,-5.33933 3.10281,-2.3585 7.80585,0.81641 4.85349,4.03127 -1.44028,1.82049 -4.16842,1.44701 -5.16082,0.77378"
               style="fill:none;stroke:#000000;stroke-width:1.26872;stroke-linecap:round;stroke-linejoin:round;stroke-miterlimit:10;stroke-dasharray:none;stroke-opacity:1"
               id="path200" />
          </g>
        </g>
        <g
           id="g202"
           transform="matrix(1,0,0,-1,0,792)">
          <g
             id="g204">
            <path
               d="m 925.56409,610.64624 c -3.85512,-0.51901 -4.00163,-6.7955 0.7067,-6.78994 4.2053,-1.41944 6.812,6.1989 2.19828,6.33248 -0.96222,0.34322 -4.07821,-0.0474 -3.52536,-0.62942"
               style="fill:none;stroke:#000000;stroke-width:1.26872;stroke-linecap:round;stroke-linejoin:round;stroke-miterlimit:10;stroke-dasharray:none;stroke-opacity:1"
               id="path206" />
          </g>
        </g>
        <g
           id="g208"
           transform="matrix(1,0,0,-1,0,792)">
          <g
             id="g210">
            <path
               d="m 928.67896,608.5423 c -0.58075,0.79739 -4.51431,-5.18149 -5.78675,-3.89483"
               style="fill:none;stroke:#000000;stroke-width:1.26872;stroke-linecap:round;stroke-linejoin:round;stroke-miterlimit:10;stroke-dasharray:none;stroke-opacity:1"
               id="path212" />
          </g>
        </g>
        <g
           id="g214"
           transform="matrix(1,0,0,-1,0,792)">
          <g
             id="g216">
            <path
               d="m 915.27246,612.56738 c -3.72617,0.77565 -0.14667,-5.4188 1.9179,-2.42308 -0.23634,1.25798 -1.69202,2.04212 -2.9339,1.91761"
               style="fill:none;stroke:#000000;stroke-width:1.26872;stroke-linecap:round;stroke-linejoin:round;stroke-miterlimit:10;stroke-dasharray:none;stroke-opacity:1"
               id="path218" />
          </g>
        </g>
        <g
           id="g220"
           transform="matrix(1,0,0,-1,0,792)">
          <g
             id="g222">
            <path
               d="m 847.3479,527.4303 c -3.01662,0.22495 -5.40632,-3.03708 -4.72163,-5.99878 2.17545,-4.12116 9.84417,-2.85809 10.78856,1.71281 1.15938,3.13413 -3.41,4.54663 -6.06693,4.28597 0.28276,-0.2342 -0.55886,-0.0366 0,0"
               style="fill:none;stroke:#000000;stroke-width:1.26872;stroke-linecap:round;stroke-linejoin:round;stroke-miterlimit:10;stroke-dasharray:none;stroke-opacity:1"
               id="path224"
               sodipodi:nodetypes="ccccc" />
          </g>
        </g>
        <g
           id="g226"
           transform="matrix(1,0,0,-1,0,792)">
          <g
             id="g228">
            <path
               d="m 845.84259,523.01373 c 0.0238,0.20925 6.27094,-2.03401 5.22972,-1.2244"
               style="fill:none;stroke:#000000;stroke-width:1.26872;stroke-linecap:round;stroke-linejoin:round;stroke-miterlimit:10;stroke-dasharray:none;stroke-opacity:1"
               id="path230" />
          </g>
        </g>
        <g
           id="g232"
           transform="matrix(1,0,0,-1,0,792)">
          <g
             id="g234">
            <path
               d="m 849.01404,524.62897 c -2.2664,0.31208 -1.5619,-3.57416 -2.58294,-3.90485"
               style="fill:none;stroke:#000000;stroke-width:1.26872;stroke-linecap:round;stroke-linejoin:round;stroke-miterlimit:10;stroke-dasharray:none;stroke-opacity:1"
               id="path236" />
          </g>
        </g>
        <g
           id="g238"
           transform="matrix(1,0,0,-1,0,792)">
          <g
             id="g240">
            <path
               d="m 974.72677,496.20536 c -1.4025,-0.28702 -2.3407,-4.39933 -2.3407,-4.39933 -0.29772,-3.846 4.34579,-4.95762 8.18536,-3.97385 4.80845,0.23567 7.77157,5.93395 3.39353,8.56493 -2.61683,1.5839 -6.6058,0.61922 -9.23819,-0.19175"
               style="fill:none;stroke:#000000;stroke-width:1.26872;stroke-linecap:round;stroke-linejoin:round;stroke-miterlimit:10;stroke-dasharray:none;stroke-opacity:1"
               id="path242"
               sodipodi:nodetypes="ccccc" />
          </g>
        </g>
        <g
           id="g244"
           transform="matrix(1,0,0,-1,0,792)">
          <g
             id="g246">
            <path
               d="m 976.28479,493.80203 c 0.31089,-0.0283 3.84397,-2.84406 3.57111,-2.51955"
               style="fill:none;stroke:#000000;stroke-width:1.26872;stroke-linecap:round;stroke-linejoin:round;stroke-miterlimit:10;stroke-dasharray:none;stroke-opacity:1"
               id="path248" />
          </g>
        </g>
        <g
           id="g250"
           transform="matrix(1,0,0,-1,0,792)">
          <g
             id="g252">
            <path
               d="m 978.61957,493.34015 c -1.52345,-0.0291 -1.29317,-2.01183 -2.32757,-2.7648"
               style="fill:none;stroke:#000000;stroke-width:1.26872;stroke-linecap:round;stroke-linejoin:round;stroke-miterlimit:10;stroke-dasharray:none;stroke-opacity:1"
               id="path254" />
          </g>
        </g>
        <g
           id="g256"
           transform="matrix(1,0,0,-1,0,792)">
          <g
             id="g258">
            <path
               d="m 1127.8187,464.26718 c -6.3474,0.50503 -6.3543,-9.78841 -0.3039,-10.09384 4.9331,-1.95328 10.7008,1.00242 10.3434,6.46556 -1.998,4.71332 -9.0211,4.8107 -12.6742,2.9669"
               style="fill:none;stroke:#000000;stroke-width:1.26872;stroke-linecap:round;stroke-linejoin:round;stroke-miterlimit:10;stroke-dasharray:none;stroke-opacity:1"
               id="path260" />
          </g>
        </g>
        <g
           id="g262"
           transform="matrix(1,0,0,-1,0,792)">
          <g
             id="g264">
            <path
               d="m 1130.8991,461.30612 c -0.937,-0.46284 -1.9274,-4.13493 -2.6708,-4.6392"
               style="fill:none;stroke:#000000;stroke-width:1.26872;stroke-linecap:round;stroke-linejoin:round;stroke-miterlimit:10;stroke-dasharray:none;stroke-opacity:1"
               id="path266" />
          </g>
        </g>
        <g
           id="g268"
           transform="matrix(1,0,0,-1,0,792)">
          <g
             id="g270">
            <path
               d="m 1125.9585,459.2146 c 0.2944,-0.67384 5.3877,-3.27821 6.5649,-2.98218"
               style="fill:none;stroke:#000000;stroke-width:1.26872;stroke-linecap:round;stroke-linejoin:round;stroke-miterlimit:10;stroke-dasharray:none;stroke-opacity:1"
               id="path272" />
          </g>
        </g>
        <g
           id="g274"
           transform="matrix(1,0,0,-1,0,792)">
          <g
             id="g276">
            <path
               d="m 887.54193,518.56671 c -0.67209,-0.54192 2.24952,3.49352 2.89355,4.47467 1.70202,3.244 2.92425,6.65632 4.36235,8.52306 1.87833,2.36715 2.16366,4.39881 0.66504,6.98998 -3.49479,2.46909 -6.98459,-1.95397 -9.15676,-4.24037 -5.02694,-4.41257 -8.79511,-9.76636 -12.46497,-14.09613 -1.24822,-2.67129 -3.51078,-5.60058 -2.15455,-8.96897 0.51042,-2.71646 6.24692,-3.44055 9.82168,-1.31842 2.6286,1.96501 4.80253,5.10665 6.57482,7.99109 1.32763,0.98134 2.34291,3.29379 2.8516,3.40514"
               style="fill:none;stroke:#000000;stroke-width:1.26872;stroke-linecap:round;stroke-linejoin:round;stroke-miterlimit:10;stroke-dasharray:none;stroke-opacity:1"
               id="path278" />
          </g>
        </g>
        <g
           id="g280"
           transform="matrix(1,0,0,-1,0,792)">
          <g
             id="g282">
            <path
               d="m 877.0246,522.61987 c 1.49283,0.19347 7.318,-1.94696 9.33001,-1.80705 l -0.19073,0.17688"
               style="fill:none;stroke:#000000;stroke-width:1.26872;stroke-linecap:round;stroke-linejoin:round;stroke-miterlimit:10;stroke-dasharray:none;stroke-opacity:1"
               id="path284" />
          </g>
        </g>
        <g
           id="g286"
           transform="matrix(1,0,0,-1,0,792)">
          <g
             id="g288">
            <path
               d="m 883.54382,529.19177 c 1.82287,0.41932 6.69222,-1.97226 9.25793,-2.54411"
               style="fill:none;stroke:#000000;stroke-width:1.26872;stroke-linecap:round;stroke-linejoin:round;stroke-miterlimit:10;stroke-dasharray:none;stroke-opacity:1"
               id="path290" />
          </g>
        </g>
        <g
           id="g292"
           transform="matrix(1,0,0,-1,0,792)">
          <g
             id="g294">
            <path
               d="m 877.08606,519.36121 c 1.62324,-0.64491 4.05346,-1.52403 5.43794,-2.12888"
               style="fill:none;stroke:#000000;stroke-width:1.26872;stroke-linecap:round;stroke-linejoin:round;stroke-miterlimit:10;stroke-dasharray:none;stroke-opacity:1"
               id="path296" />
          </g>
        </g>
        <g
           id="g298"
           transform="matrix(1,0,0,-1,0,792)">
          <g
             id="g300">
            <path
               d="m 879.87134,518.01099 c -0.42706,-0.21201 -4.3175,-4.80834 -3.45551,-4.0029"
               style="fill:none;stroke:#000000;stroke-width:1.26872;stroke-linecap:round;stroke-linejoin:round;stroke-miterlimit:10;stroke-dasharray:none;stroke-opacity:1"
               id="path302" />
          </g>
        </g>
        <g
           id="g304"
           transform="matrix(1,0,0,-1,0,792)">
          <g
             id="g306">
            <path
               d="m 873.24591,514.13055 c -1.88166,-0.40023 5.42866,-1.83119 6.29012,-1.59364"
               style="fill:none;stroke:#000000;stroke-width:1.26872;stroke-linecap:round;stroke-linejoin:round;stroke-miterlimit:10;stroke-dasharray:none;stroke-opacity:1"
               id="path308" />
          </g>
        </g>
        <g
           id="g310"
           transform="matrix(1,0,0,-1,0,792)">
          <g
             id="g312">
            <path
               d="m 889.77393,573.33154 c -1.4583,-0.70477 -5.1194,-2.46415 -2.69211,-5.25772 2.41395,-3.56704 11.6867,-0.0753 7.21556,3.55696 -1.91827,1.14802 -4.0144,0.97154 -6.09057,0.46823"
               style="fill:none;stroke:#000000;stroke-width:1.26872;stroke-linecap:round;stroke-linejoin:round;stroke-miterlimit:10;stroke-dasharray:none;stroke-opacity:1"
               id="path314" />
          </g>
        </g>
        <g
           id="g316"
           transform="matrix(1,0,0,-1,0,792)">
          <g
             id="g318">
            <path
               d="m 883.07666,563.90308 c -2.41211,-1.1384 -3.47304,-6.18939 -4.45002,-9.27973 -1.14708,-6.70195 -0.98237,-15.64199 1.98007,-20.81392 l -0.15521,-0.003 0.0795,0.10736"
               style="fill:none;stroke:#000000;stroke-width:1.26872;stroke-linecap:round;stroke-linejoin:round;stroke-miterlimit:10;stroke-dasharray:none;stroke-opacity:1"
               id="path320" />
          </g>
        </g>
        <g
           id="g322"
           transform="matrix(1,0,0,-1,0,792)">
          <g
             id="g324">
            <path
               d="m 901.40356,581.10052 c 8.07977,1.53018 14.25717,7.37417 22.43967,9.62475 1.85491,0.89259 7.02783,1.58961 6.61147,2.10606"
               style="fill:none;stroke:#000000;stroke-width:1.26872;stroke-linecap:round;stroke-linejoin:round;stroke-miterlimit:10;stroke-dasharray:none;stroke-opacity:1"
               id="path326" />
          </g>
        </g>
        <g
           id="g328"
           transform="matrix(1,0,0,-1,0,792)">
          <g
             id="g330">
            <path
               d="m 946.08588,599.95593 c 0.62483,-0.57779 -0.30062,-5.81809 0.39335,-6.88756"
               style="fill:none;stroke:#000000;stroke-width:1.26872;stroke-linecap:round;stroke-linejoin:round;stroke-miterlimit:10;stroke-dasharray:none;stroke-opacity:1"
               id="path332" />
          </g>
        </g>
        <g
           id="g334"
           transform="matrix(1,0,0,-1,0,792)">
          <g
             id="g336">
            <path
               d="m 954.76227,599.77771 c 0.80323,-0.31202 0.29247,-4.48467 0.13447,-5.1494"
               style="fill:none;stroke:#000000;stroke-width:1.26872;stroke-linecap:round;stroke-linejoin:round;stroke-miterlimit:10;stroke-dasharray:none;stroke-opacity:1"
               id="path338" />
          </g>
        </g>
        <g
           id="g340"
           transform="matrix(1,0,0,-1,0,792)">
          <g
             id="g342">
            <path
               d="m 934.84192,591.69958 c 1.58753,0.54435 5.11682,1.88067 6.16843,1.96623"
               style="fill:none;stroke:#000000;stroke-width:1.26872;stroke-linecap:round;stroke-linejoin:round;stroke-miterlimit:10;stroke-dasharray:none;stroke-opacity:1"
               id="path344" />
          </g>
        </g>
        <g
           id="g346"
           transform="matrix(1,0,0,-1,0,792)">
          <g
             id="g348">
            <path
               d="m 966.79401,594.34058 c 9.38929,-1.10319 19.04361,-1.90988 27.72781,-5.96354 4.88075,-1.89349 10.02398,-4.11903 13.62658,-7.93328 l -0.054,-0.0284"
               style="fill:none;stroke:#000000;stroke-width:1.26872;stroke-linecap:round;stroke-linejoin:round;stroke-miterlimit:10;stroke-dasharray:none;stroke-opacity:1"
               id="path350" />
          </g>
        </g>
        <g
           id="g352"
           transform="matrix(1,0,0,-1,0,792)">
          <g
             id="g354">
            <path
               d="m 1014.9014,567.92786 c 11.5559,-20.27991 -2.5039,-46.4938 -22.2992,-55.22576"
               style="fill:none;stroke:#000000;stroke-width:1.26872;stroke-linecap:round;stroke-linejoin:round;stroke-miterlimit:10;stroke-dasharray:none;stroke-opacity:1"
               id="path356" />
          </g>
        </g>
        <g
           id="g358"
           transform="matrix(1,0,0,-1,0,792)">
          <g
             id="g360">
            <path
               d="m 975.29773,565.0379 c -9.95165,8.96291 -25.54737,10.74293 -37.48735,6.4796 -6.45719,-2.7579 -15.74216,-9.29812 -15.1078,-19.0482"
               style="fill:none;stroke:#000000;stroke-width:1.26872;stroke-linecap:round;stroke-linejoin:round;stroke-miterlimit:10;stroke-dasharray:none;stroke-opacity:1"
               id="path362"
               sodipodi:nodetypes="ccc" />
          </g>
        </g>
        <g
           id="g364"
           transform="matrix(1,0,0,-1,0,792)">
          <g
             id="g366">
            <path
               d="m 922.70258,552.4693 c 0.92869,-6.19045 6.79104,-9.90213 12.59389,-10.67334 10.21214,-2.28156 21.61256,-1.97466 30.97047,3.04744 6.90684,3.9075 10.07613,13.24191 5.77741,20.15597"
               style="fill:none;stroke:#000000;stroke-width:1.26872;stroke-linecap:round;stroke-linejoin:round;stroke-miterlimit:10;stroke-dasharray:none;stroke-opacity:1"
               id="path368" />
          </g>
        </g>
        <g
           id="g370"
           transform="matrix(1,0,0,-1,0,792)">
          <g
             id="g372">
            <path
               d="m 975.29773,565.0379 c 8.2673,-8.04616 2.4244,-21.70401 -6.75219,-26.27155 -12.33759,-7.78202 -28.85676,-5.27742 -40.64248,2.24812 -3.53015,2.60407 -6.02345,6.97166 -5.20048,11.45483"
               style="fill:none;stroke:#000000;stroke-width:1.26872;stroke-linecap:round;stroke-linejoin:round;stroke-miterlimit:10;stroke-dasharray:none;stroke-opacity:1"
               id="path374"
               sodipodi:nodetypes="cccccc" />
          </g>
        </g>
        <g
           id="g376"
           transform="matrix(1,0,0,-1,0,792)">
          <g
             id="g378">
            <path
               d="m 941.04755,547.2973 c 0.23589,-0.25988 -2.61761,2.54535 -3.52292,3.74701 -1.94218,1.71409 -4.0839,3.81113 -2.1321,7.19169 0.50716,2.41437 1.81891,8.45471 3.04921,8.88028"
               style="fill:none;stroke:#000000;stroke-width:1.26872;stroke-linecap:round;stroke-linejoin:round;stroke-miterlimit:10;stroke-dasharray:none;stroke-opacity:1"
               id="path380" />
          </g>
        </g>
        <g
           id="g382"
           transform="matrix(1,0,0,-1,0,792)">
          <g
             id="g384">
            <path
               d="m 938.44174,567.11628 c 2.39722,-3.58012 8.35137,-6.89978 7.82383,-9.39952 -0.20283,-3.70341 -1.50504,-8.4287 -1.90404,-11.67122 -0.48537,-0.61666 0.19188,-0.31473 -0.22389,-0.1076"
               style="fill:none;stroke:#000000;stroke-width:1.26872;stroke-linecap:round;stroke-linejoin:round;stroke-miterlimit:10;stroke-dasharray:none;stroke-opacity:1"
               id="path386"
               sodipodi:nodetypes="cccc" />
          </g>
        </g>
        <g
           id="g388"
           transform="matrix(1,0,0,-1,0,792)">
          <g
             id="g390">
            <path
               d="m 944.36153,546.04554 c 0.68895,-0.51547 -3.31398,1.25176 -2.82639,0.26338"
               style="fill:none;stroke:#000000;stroke-width:1.26872;stroke-linecap:round;stroke-linejoin:round;stroke-miterlimit:10;stroke-dasharray:none;stroke-opacity:1"
               id="path392"
               sodipodi:nodetypes="cc" />
          </g>
        </g>
        <g
           id="g394"
           transform="matrix(1,0,0,-1,0,792)">
          <g
             id="g396">
            <path
               d="m 937.48395,547.14722 c -1.48375,0.1028 -7.09261,-4.3019 -1.37838,-4.78725"
               style="fill:none;stroke:#000000;stroke-width:1.26872;stroke-linecap:round;stroke-linejoin:round;stroke-miterlimit:10;stroke-dasharray:none;stroke-opacity:1"
               id="path398" />
          </g>
        </g>
        <g
           id="g400"
           transform="matrix(1,0,0,-1,0,792)">
          <g
             id="g402">
            <path
               d="m 932.84503,542.29657 c -3.61706,2.72212 -2.75785,9.25631 0.12289,12.45516 0.7976,0.007 2.1952,3.03718 2.42461,3.48427"
               style="fill:none;stroke:#000000;stroke-width:1.26872;stroke-linecap:round;stroke-linejoin:round;stroke-miterlimit:10;stroke-dasharray:none;stroke-opacity:1"
               id="path404"
               sodipodi:nodetypes="ccc" />
          </g>
        </g>
        <g
           id="g406"
           transform="matrix(1,0,0,-1,0,792)">
          <g
             id="g408">
            <path
               d="m 945.13348,550.46997 c 1.22149,1.47467 6.74686,2.90682 9.47141,1.83951 2.35526,-0.0199 4.70757,-1.05277 6.13276,-1.60792"
               style="fill:none;stroke:#000000;stroke-width:1.26872;stroke-linecap:round;stroke-linejoin:round;stroke-miterlimit:10;stroke-dasharray:none;stroke-opacity:1"
               id="path410" />
          </g>
        </g>
        <g
           id="g412"
           transform="matrix(1,0,0,-1,0,792)">
          <g
             id="g414">
            <path
               d="m 960.73987,550.60437 c 0.0871,-1.76063 0.41193,-5.31093 3.83223,-4.48699 1.09251,0.12566 2.63851,-0.28225 2.42774,-0.10196"
               style="fill:none;stroke:#000000;stroke-width:1.26872;stroke-linecap:round;stroke-linejoin:round;stroke-miterlimit:10;stroke-dasharray:none;stroke-opacity:1"
               id="path416" />
          </g>
        </g>
        <g
           id="g418"
           transform="matrix(1,0,0,-1,0,792)">
          <g
             id="g420">
            <path
               d="m 961.63074,553.02478 c 0.22247,0.64795 -2.86618,4.30805 -2.1678,5.98888 -0.91395,0.0214 0.2711,1.09594 -0.23406,1.62629"
               style="fill:none;stroke:#000000;stroke-width:1.26872;stroke-linecap:round;stroke-linejoin:round;stroke-miterlimit:10;stroke-dasharray:none;stroke-opacity:1"
               id="path422"
               sodipodi:nodetypes="ccc" />
          </g>
        </g>
        <g
           id="g424"
           transform="matrix(1,0,0,-1,0,792)">
          <g
             id="g426">
            <path
               d="m 959.22888,560.63995 c 1.27642,0.7095 3.3609,4.8388 5.02128,6.60816 0.76002,0.12456 1.45707,1.86353 0.91038,1.20857"
               style="fill:none;stroke:#000000;stroke-width:1.26872;stroke-linecap:round;stroke-linejoin:round;stroke-miterlimit:10;stroke-dasharray:none;stroke-opacity:1"
               id="path428" />
          </g>
        </g>
        <g
           id="g430"
           transform="matrix(1,0,0,-1,0,792)">
          <g
             id="g432">
            <path
               d="m 965.16054,568.45668 c 1.03249,-1.37395 4.47136,-5.521 4.83905,-7.7656 0.76037,-2.11486 0.65401,-2.50689 0.69573,-4.65124 -0.51188,-1.1944 -0.63922,-1.60377 -0.62384,-1.68661"
               style="fill:none;stroke:#000000;stroke-width:1.26872;stroke-linecap:round;stroke-linejoin:round;stroke-miterlimit:10;stroke-dasharray:none;stroke-opacity:1"
               id="path434"
               sodipodi:nodetypes="cccc" />
          </g>
        </g>
        <g
           id="g436"
           transform="matrix(1,0,0,-1,0,792)">
          <g
             id="g438">
            <path
               d="m 970.07148,554.35323 c -4.16784,0.578 -0.1989,-4.46429 -0.72806,-4.64149"
               style="fill:none;stroke:#000000;stroke-width:1.26872;stroke-linecap:round;stroke-linejoin:round;stroke-miterlimit:10;stroke-dasharray:none;stroke-opacity:1"
               id="path440"
               sodipodi:nodetypes="cc" />
          </g>
        </g>
        <g
           id="g442"
           transform="matrix(1,0,0,-1,0,792)">
          <g
             id="g444">
            <path
               d="m 946.10838,540.4473 c -0.92274,-0.12169 2.8839,3.63445 5.07532,1.59591 0.29497,0.0425 0.28272,-1.54564 0.21226,-1.35189"
               style="fill:none;stroke:#000000;stroke-width:1.26872;stroke-linecap:round;stroke-linejoin:round;stroke-miterlimit:10;stroke-dasharray:none;stroke-opacity:1"
               id="path446"
               sodipodi:nodetypes="ccc" />
          </g>
        </g>
        <g
           id="g448"
           transform="matrix(1,0,0,-1,0,792)">
          <g
             id="g450">
            <path
               d="m 948.72058,560.77832 c 1.89489,1.97846 3.93155,8.31114 7.28243,5.59403 0.0984,-0.26216 1.41435,-0.93592 0.6097,-0.49974"
               style="fill:none;stroke:#000000;stroke-width:1.26872;stroke-linecap:round;stroke-linejoin:round;stroke-miterlimit:10;stroke-dasharray:none;stroke-opacity:1"
               id="path452" />
          </g>
        </g>
        <g
           id="g454"
           transform="matrix(1,0,0,-1,0,792)">
          <g
             id="g456">
            <path
               d="m 1035.4539,534.52533 c 2.0203,17.87785 25.3373,27.1962 40.097,18.11877 17.4706,-4.214 28.5484,-30.6073 9.3561,-40.42051 -14.1979,-6.54553 -33.591,-3.53732 -44.8566,7.43902 -4.2868,4.69938 -6.6804,11.81571 -3.6987,17.83141"
               style="fill:none;stroke:#000000;stroke-width:1.26872;stroke-linecap:round;stroke-linejoin:round;stroke-miterlimit:10;stroke-dasharray:none;stroke-opacity:1"
               id="path458" />
          </g>
        </g>
        <g
           id="g460"
           transform="matrix(1,0,0,-1,0,792)">
          <g
             id="g462">
            <path
               d="m 1034.7472,533.57886 c 3.3274,7.27077 9.4121,14.12461 17.6166,15.53626 4.3604,0.13737 8.747,0.0671 13.1221,0.034 2.958,-0.12862 5.935,-0.54181 8.7149,-1.60071"
               style="fill:none;stroke:#000000;stroke-width:1.26872;stroke-linecap:round;stroke-linejoin:round;stroke-miterlimit:10;stroke-dasharray:none;stroke-opacity:1"
               id="path464" />
          </g>
        </g>
        <g
           id="g466"
           transform="matrix(1,0,0,-1,0,792)">
          <g
             id="g468">
            <path
               d="m 1088.7858,537.87 c 0.1369,-1.52295 -2.5509,-5.74749 -0.2927,-7.99492 -0.02,-1.46528 1.0834,-4.22257 0.5395,-4.58484"
               style="fill:none;stroke:#000000;stroke-width:1.26872;stroke-linecap:round;stroke-linejoin:round;stroke-miterlimit:10;stroke-dasharray:none;stroke-opacity:1"
               id="path470" />
          </g>
        </g>
        <g
           id="g472"
           transform="matrix(1,0,0,-1,0,792)">
          <g
             id="g474">
            <path
               d="m 1088.4341,524.34412 c -2.8864,1.08603 -3.9199,-2.1303 -4.1377,-4.25869 -0.1063,-1.10841 -0.364,-2.56611 -0.6317,-2.42041"
               style="fill:none;stroke:#000000;stroke-width:1.26872;stroke-linecap:round;stroke-linejoin:round;stroke-miterlimit:10;stroke-dasharray:none;stroke-opacity:1"
               id="path476" />
          </g>
        </g>
        <g
           id="g478"
           transform="matrix(1,0,0,-1,0,792)">
          <g
             id="g480">
            <path
               d="m 1082.273,517.79102 c -2.244,-0.9091 -6.5692,-4.1084 -10.2543,-4.12643 -0.96,-10e-4 -4.2472,-0.4306 -3.7236,-0.38213"
               style="fill:none;stroke:#000000;stroke-width:1.26872;stroke-linecap:round;stroke-linejoin:round;stroke-miterlimit:10;stroke-dasharray:none;stroke-opacity:1"
               id="path482" />
          </g>
        </g>
        <g
           id="g484"
           transform="matrix(1,0,0,-1,0,792)">
          <g
             id="g486">
            <path
               d="m 1066.2672,512.7196 c -0.1672,0.98487 -1.479,4.74788 -4.0227,5.57991 -3.159,0.96736 -4.3915,-2.53904 -4.7667,-2.77892"
               style="fill:none;stroke:#000000;stroke-width:1.26872;stroke-linecap:round;stroke-linejoin:round;stroke-miterlimit:10;stroke-dasharray:none;stroke-opacity:1"
               id="path488" />
          </g>
        </g>
        <g
           id="g490"
           transform="matrix(1,0,0,-1,0,792)">
          <g
             id="g492">
            <path
               d="m 1057.7267,515.22644 c -2.2617,0.2928 -9.2707,3.78654 -10.0052,3.6211 l 0.01,0.40124"
               style="fill:none;stroke:#000000;stroke-width:1.26872;stroke-linecap:round;stroke-linejoin:round;stroke-miterlimit:10;stroke-dasharray:none;stroke-opacity:1"
               id="path494" />
          </g>
        </g>
        <g
           id="g496"
           transform="matrix(1,0,0,-1,0,792)">
          <g
             id="g498">
            <path
               d="m 1047.9675,519.03473 c -0.6908,1.79585 1.1355,6.59883 0.3859,9.69642 0.1801,1.99814 -0.6702,4.18236 -0.9123,5.35925"
               style="fill:none;stroke:#000000;stroke-width:1.26872;stroke-linecap:round;stroke-linejoin:round;stroke-miterlimit:10;stroke-dasharray:none;stroke-opacity:1"
               id="path500" />
          </g>
        </g>
        <g
           id="g502"
           transform="matrix(1,0,0,-1,0,792)">
          <g
             id="g504">
            <path
               d="m 1048.2693,533.26953 c 1.1161,-0.18334 4.0805,3.68398 3.4672,6.32175 -0.6263,2.2333 2.997,4.0449 3.1196,4.51712 l 0.2986,-0.24536 0.1295,-0.42408"
               style="fill:none;stroke:#000000;stroke-width:1.26872;stroke-linecap:round;stroke-linejoin:round;stroke-miterlimit:10;stroke-dasharray:none;stroke-opacity:1"
               id="path506" />
          </g>
        </g>
        <g
           id="g508"
           transform="matrix(1,0,0,-1,0,792)">
          <g
             id="g510">
            <path
               d="m 1056.8358,543.948 c -1.6216,-1.59959 -2.6881,-6.15371 -4.0327,-8.9554 -2.1792,-1.82308 2.1774,-2.89498 3.0623,-5.35077 1.3318,-0.60243 2.1193,-5.06454 1.3726,-4.09873"
               style="fill:none;stroke:#000000;stroke-width:1.26872;stroke-linecap:round;stroke-linejoin:round;stroke-miterlimit:10;stroke-dasharray:none;stroke-opacity:1"
               id="path512" />
          </g>
        </g>
        <g
           id="g514"
           transform="matrix(1,0,0,-1,0,792)">
          <g
             id="g516">
            <path
               d="m 1055.208,528.26227 c -0.461,1.53122 -8.0259,-3.31768 -4.8201,-1.95995"
               style="fill:none;stroke:#000000;stroke-width:1.26872;stroke-linecap:round;stroke-linejoin:round;stroke-miterlimit:10;stroke-dasharray:none;stroke-opacity:1"
               id="path518" />
          </g>
        </g>
        <g
           id="g520"
           transform="matrix(1,0,0,-1,0,792)">
          <g
             id="g522">
            <path
               d="m 1057.5664,525.47864 c 1.8672,-2.40935 6.1172,0.10235 6.7225,3.15805 1.133,1.54854 2.9622,4.70088 3.101,5.06445"
               style="fill:none;stroke:#000000;stroke-width:1.26872;stroke-linecap:round;stroke-linejoin:round;stroke-miterlimit:10;stroke-dasharray:none;stroke-opacity:1"
               id="path524" />
          </g>
        </g>
        <g
           id="g526"
           transform="matrix(1,0,0,-1,0,792)">
          <g
             id="g528">
            <path
               d="m 1067.1274,535.3363 c -0.2081,-2.20222 -1.5161,3.64948 -2.3357,5.22894 -1.2543,1.58898 -2.3984,5.3842 -4.3391,5.65005"
               style="fill:none;stroke:#000000;stroke-width:1.26872;stroke-linecap:round;stroke-linejoin:round;stroke-miterlimit:10;stroke-dasharray:none;stroke-opacity:1"
               id="path530" />
          </g>
        </g>
        <g
           id="g532"
           transform="matrix(1,0,0,-1,0,792)">
          <g
             id="g534">
            <path
               d="m 1066.9124,528.60602 c 1.5995,0.79185 6.4254,-1.19774 8.8871,-2.34831 2.0014,-0.69359 5.9282,-4.18851 5.9152,-4.50495 -0.9187,-2.09721 2.8392,-4.98627 2.9191,-4.01282"
               style="fill:none;stroke:#000000;stroke-width:1.26872;stroke-linecap:round;stroke-linejoin:round;stroke-miterlimit:10;stroke-dasharray:none;stroke-opacity:1"
               id="path536" />
          </g>
        </g>
        <g
           id="g538"
           transform="matrix(1,0,0,-1,0,792)">
          <g
             id="g540">
            <path
               d="m 1067.7777,531.61218 c 2.4094,-0.9296 8.5428,-2.62526 10.8733,-2.6729"
               style="fill:none;stroke:#000000;stroke-width:1.26872;stroke-linecap:round;stroke-linejoin:round;stroke-miterlimit:10;stroke-dasharray:none;stroke-opacity:1"
               id="path542" />
          </g>
        </g>
        <g
           id="g544"
           transform="matrix(1,0,0,-1,0,792)">
          <g
             id="g546">
            <path
               d="m 1078.9551,528.85938 c -1.9614,1.42253 -0.4494,5.53246 -0.6516,8.189 0.7658,1.44874 1.2547,6.83828 1.1826,5.98999"
               style="fill:none;stroke:#000000;stroke-width:1.26872;stroke-linecap:round;stroke-linejoin:round;stroke-miterlimit:10;stroke-dasharray:none;stroke-opacity:1"
               id="path548" />
          </g>
        </g>
        <g
           id="g550"
           transform="matrix(1,0,0,-1,0,792)">
          <g
             id="g552">
            <path
               d="m 1078.3893,542.99561 c -2.3893,-0.13568 -6.9613,0.67975 -10.0881,1.15553 -0.1983,0.56799 -0.9347,0.49515 -0.8985,0.42597"
               style="fill:none;stroke:#000000;stroke-width:1.26872;stroke-linecap:round;stroke-linejoin:round;stroke-miterlimit:10;stroke-dasharray:none;stroke-opacity:1"
               id="path554" />
          </g>
        </g>
        <g
           id="g556"
           transform="matrix(1,0,0,-1,0,792)">
          <g
             id="g558">
            <path
               d="m 1067.4633,543.20319 c -1.366,0.25661 -0.5728,-8.00287 -1.2564,-8.35252"
               style="fill:none;stroke:#000000;stroke-width:1.26872;stroke-linecap:round;stroke-linejoin:round;stroke-miterlimit:10;stroke-dasharray:none;stroke-opacity:1"
               id="path560" />
          </g>
        </g>
      </g>
    </g>
  </g>
</svg>
