<?xml version="1.0" encoding="UTF-8" standalone="no"?>
<!-- Created by Ashley Blewer - This work is licensed under a Creative Commons Attribution 4.0 International License -->

<svg
   width="544"
   height="480"
   viewBox="0 0 143.93334 127"
   version="1.1"
   id="svg2490"
   inkscape:version="1.2.2 (1:1.2.2+202212051552+b0a8486541)"
   sodipodi:docname="1962-stereo-pak-4.svg"
   xmlns:inkscape="http://www.inkscape.org/namespaces/inkscape"
   xmlns:sodipodi="http://sodipodi.sourceforge.net/DTD/sodipodi-0.dtd"
   xmlns="http://www.w3.org/2000/svg"
   xmlns:svg="http://www.w3.org/2000/svg">
  <sodipodi:namedview
     id="namedview2492"
     pagecolor="#ffffff"
     bordercolor="#666666"
     borderopacity="1.0"
     inkscape:pageshadow="2"
     inkscape:pageopacity="0.0"
     inkscape:pagecheckerboard="0"
     inkscape:document-units="mm"
     showgrid="false"
     units="px"
     inkscape:zoom="0.90583674"
     inkscape:cx="53.541657"
     inkscape:cy="253.35691"
     inkscape:window-width="1846"
     inkscape:window-height="1136"
     inkscape:window-x="0"
     inkscape:window-y="0"
     inkscape:window-maximized="1"
     inkscape:current-layer="g4731"
     inkscape:showpageshadow="2"
     inkscape:deskcolor="#d1d1d1" />
  <defs
     id="defs2487" />
  <g
     inkscape:label="Layer 1"
     inkscape:groupmode="layer"
     id="layer1">
    <g
       id="g4731"
       transform="matrix(0.32961229,0,0,0.32903008,-241.78905,1.73126)"
       style="stroke-width:2.68698">
      <g
         id="g104528"
         transform="matrix(1,0,0,-1,0,792)"
         style="stroke-width:2.68698">
        <g
           id="g104530"
           style="stroke-width:2.68698" />
      </g>
      <g
         id="g104996"
         transform="matrix(1,0,0,-1,0,792)"
         style="stroke-width:2.68698">
        <g
           id="g104998"
           style="stroke-width:2.68698" />
      </g>
      <g
         id="g2224"
         transform="matrix(1.5168107,0,0,1.5194946,297.19463,-72.504161)">
        <g
           id="g520"
           transform="matrix(1,0,0,-1,0,792)">
          <g
             id="g522">
            <path
               d="m 374.37137,513.22302 c -18.42943,67.77433 -8.52657,139.23089 1.16717,207.49617"
               style="fill:none;stroke:#000000;stroke-width:2.61538;stroke-linecap:round;stroke-linejoin:round;stroke-miterlimit:10;stroke-dasharray:none;stroke-opacity:1"
               id="path524" />
          </g>
        </g>
        <g
           id="g526"
           transform="matrix(1,0,0,-1,0,792)">
          <g
             id="g528">
            <path
               d="m 375.53854,720.71919 c 28.01063,6.86228 56.13971,5.43181 84.71356,4.46127 9.86055,-0.90311 20.28728,-1.63252 28.9498,-6.92594"
               style="fill:none;stroke:#000000;stroke-width:2.61538;stroke-linecap:round;stroke-linejoin:round;stroke-miterlimit:10;stroke-dasharray:none;stroke-opacity:1"
               id="path530"
               sodipodi:nodetypes="ccc" />
          </g>
        </g>
        <g
           id="g532"
           transform="matrix(1,0,0,-1,0,792)">
          <g
             id="g534">
            <path
               d="m 489.2019,718.25452 c 10.87317,-64.0172 11.86651,-129.51276 7.91419,-194.18939 l -0.53757,-3.29443 -0.72446,-3.25178"
               style="fill:none;stroke:#000000;stroke-width:2.61538;stroke-linecap:round;stroke-linejoin:round;stroke-miterlimit:10;stroke-dasharray:none;stroke-opacity:1"
               id="path536" />
          </g>
        </g>
        <g
           id="g538"
           transform="matrix(1,0,0,-1,0,792)">
          <g
             id="g540">
            <path
               d="m 374.37137,513.22302 c 7.66307,-0.79145 9.63401,0.30283 17.28792,-0.62159 15.60309,-0.21939 31.20609,0.66369 46.76907,1.16457 9.23856,0.82216 18.52477,0.84798 27.77224,1.07515 8.46557,0.54604 17.04981,0.53367 25.36703,1.92778 2.25073,0.99575 1.96757,0.38819 4.28643,0.74999"
               style="fill:none;stroke:#000000;stroke-width:2.61538;stroke-linecap:round;stroke-linejoin:round;stroke-miterlimit:10;stroke-dasharray:none;stroke-opacity:1"
               id="path542"
               sodipodi:nodetypes="cccccc" />
          </g>
        </g>
        <g
           id="g544"
           transform="matrix(1,0,0,-1,0,792)">
          <g
             id="g546">
            <path
               d="m 491.56763,516.76893 c -0.32995,0.79216 1.15324,-8.28775 -2.03027,-5.71303 -1.30843,0.24164 -3.93566,1.35184 -4.36773,3.21637"
               style="fill:none;stroke:#000000;stroke-width:2.61538;stroke-linecap:round;stroke-linejoin:round;stroke-miterlimit:10;stroke-dasharray:none;stroke-opacity:1"
               id="path548"
               sodipodi:nodetypes="ccc" />
          </g>
        </g>
        <g
           id="g550"
           transform="matrix(1,0,0,-1,0,792)">
          <g
             id="g552">
            <path
               d="m 374.37137,513.22302 c 0.94892,0.19587 0.45464,-7.74836 3.63761,-4.23724 1.16329,1.26847 2.23957,2.12082 2.9914,2.6133"
               style="fill:none;stroke:#000000;stroke-width:2.61538;stroke-linecap:round;stroke-linejoin:round;stroke-miterlimit:10;stroke-dasharray:none;stroke-opacity:1"
               id="path554"
               sodipodi:nodetypes="ccc" />
          </g>
        </g>
        <g
           id="g556"
           transform="matrix(1,0,0,-1,0,792)">
          <g
             id="g558">
            <path
               d="m 379.91086,691.29126 c 0.70159,2.40263 -0.81088,4.7624 -0.4445,7.2037 0.0229,3.16793 0.14428,6.37565 0.76654,9.48234 0.51353,1.75483 1.72714,-0.44712 2.68338,0.255"
               style="fill:none;stroke:#000000;stroke-width:2.61538;stroke-linecap:round;stroke-linejoin:round;stroke-miterlimit:10;stroke-dasharray:none;stroke-opacity:1"
               id="path560"
               sodipodi:nodetypes="cccc" />
          </g>
        </g>
        <g
           id="g562"
           transform="matrix(1,0,0,-1,0,792)">
          <g
             id="g564">
            <path
               d="m 382.91623,708.2323 c 29.00477,0.82375 58.02555,-1.72783 87.01488,0.0685 2.90919,-0.0583 5.82128,-0.27275 8.68915,-0.77917"
               style="fill:none;stroke:#000000;stroke-width:2.61538;stroke-linecap:round;stroke-linejoin:round;stroke-miterlimit:10;stroke-dasharray:none;stroke-opacity:1"
               id="path566" />
          </g>
        </g>
        <g
           id="g568"
           transform="matrix(1,0,0,-1,0,792)">
          <g
             id="g570">
            <path
               d="m 478.62026,707.52165 c 2.94035,-3.54609 7.29965,-14.18383 1.87539,-16.77945"
               style="fill:none;stroke:#000000;stroke-width:2.61538;stroke-linecap:round;stroke-linejoin:round;stroke-miterlimit:10;stroke-dasharray:none;stroke-opacity:1"
               id="path572"
               sodipodi:nodetypes="cc" />
          </g>
        </g>
        <g
           id="g574"
           transform="matrix(1,0,0,-1,0,792)">
          <g
             id="g576">
            <path
               d="m 480.49565,691.586 c -33.14096,0.69515 -66.28015,-3.61818 -99.39448,-0.84381"
               style="fill:none;stroke:#000000;stroke-width:2.61538;stroke-linecap:round;stroke-linejoin:round;stroke-miterlimit:10;stroke-dasharray:none;stroke-opacity:1"
               id="path578" />
          </g>
        </g>
        <g
           id="g580"
           transform="matrix(1,0,0,-1,0,792)">
          <g
             id="g582">
            <path
               d="m 372.71075,684.30707 c 39.88838,2.45018 79.85509,-3.06971 119.71416,0.39127"
               style="fill:none;stroke:#000000;stroke-width:2.61538;stroke-linecap:round;stroke-linejoin:round;stroke-miterlimit:10;stroke-dasharray:none;stroke-opacity:1"
               id="path584" />
          </g>
        </g>
        <g
           id="g586"
           transform="matrix(1,0,0,-1,0,792)">
          <g
             id="g588">
            <path
               d="m 492.23697,683.08289 c 2.11286,-8.41814 1.92662,-17.18257 3.07108,-25.74096 -0.0592,-3.59313 0.50308,-7.42847 -0.008,-10.89192"
               style="fill:none;stroke:#000000;stroke-width:2.61538;stroke-linecap:round;stroke-linejoin:round;stroke-miterlimit:10;stroke-dasharray:none;stroke-opacity:1"
               id="path590" />
          </g>
        </g>
        <g
           id="g592"
           transform="matrix(1,0,0,-1,0,792)">
          <g
             id="g594">
            <path
               d="m 372.37894,683.1001 c 0.60315,-5.72605 0.55092,-11.51264 0.63201,-17.261 -0.47766,-4.79498 -1.2004,-9.5216 -2.13806,-14.19237 -0.35562,-1.53573 -1.4176,-3.82295 0.2238,-4.9848"
               style="fill:none;stroke:#000000;stroke-width:2.61538;stroke-linecap:round;stroke-linejoin:round;stroke-miterlimit:10;stroke-dasharray:none;stroke-opacity:1"
               id="path596" />
          </g>
        </g>
        <g
           id="g598"
           transform="matrix(1,0,0,-1,0,792)">
          <g
             id="g600">
            <path
               d="m 371.74857,647.02606 c 40.85033,1.14067 81.68692,-4.8505 122.50126,-1.1993"
               style="fill:none;stroke:#000000;stroke-width:2.61538;stroke-linecap:round;stroke-linejoin:round;stroke-miterlimit:10;stroke-dasharray:none;stroke-opacity:1"
               id="path602" />
          </g>
        </g>
        <g
           id="g604"
           transform="matrix(1,0,0,-1,0,792)">
          <g
             id="g606">
            <path
               d="m 387.0224,681.51746 c -8.62655,-0.59346 -11.3508,-10.47856 -8.55306,-17.44095 2.01171,-8.2725 12.05533,-9.3617 18.45548,-5.77095 8.37151,4.65921 7.7718,19.76895 -1.46628,23.0124 -3.64247,0.76153 -8.43614,0.1995 -8.43614,0.1995"
               style="fill:none;stroke:#000000;stroke-width:2.61538;stroke-linecap:round;stroke-linejoin:round;stroke-miterlimit:10;stroke-dasharray:none;stroke-opacity:1"
               id="path608"
               sodipodi:nodetypes="ccccc" />
          </g>
        </g>
        <g
           id="g610"
           transform="matrix(1,0,0,-1,0,792)">
          <g
             id="g612">
            <path
               d="m 400.19208,655.45959 c 0.3841,0.89424 3.5188,-1.7137 2.00148,-1.44978"
               style="fill:none;stroke:#000000;stroke-width:2.61538;stroke-linecap:round;stroke-linejoin:round;stroke-miterlimit:10;stroke-dasharray:none;stroke-opacity:1"
               id="path614" />
          </g>
        </g>
        <g
           id="g616"
           transform="matrix(1,0,0,-1,0,792)">
          <g
             id="g618">
            <path
               d="m 378.98853,654.49261 c -0.76864,-0.91106 -1.36789,-1.98091 -2.35416,-2.68353"
               style="fill:none;stroke:#000000;stroke-width:2.61538;stroke-linecap:round;stroke-linejoin:round;stroke-miterlimit:10;stroke-dasharray:none;stroke-opacity:1"
               id="path620" />
          </g>
        </g>
        <g
           id="g622"
           transform="matrix(1,0,0,-1,0,792)">
          <g
             id="g624">
            <path
               d="m 426.00174,683.25781 c 0.12408,-0.52961 -0.55158,-5.35678 -1.00585,-5.64702 5.32443,-1.11755 11.00712,0.3777 16.40251,-0.55331 2.62274,-0.11777 5.88435,-0.10216 8.10522,-0.17992 v 0 c 0,0 0.98441,6.33263 0.80744,5.94231"
               style="fill:none;stroke:#000000;stroke-width:2.61538;stroke-linecap:round;stroke-linejoin:round;stroke-miterlimit:10;stroke-dasharray:none;stroke-opacity:1"
               id="path626"
               sodipodi:nodetypes="cccccc" />
          </g>
        </g>
        <g
           id="g628"
           transform="matrix(1,0,0,-1,0,792)">
          <g
             id="g630">
            <path
               d="m 461.43149,682.20965 c 0,0 0.74261,-4.77801 1.09531,-4.92974 -0.16698,-0.86812 0,0 0,0 l 23.8325,-0.1392 c 1.82866,-0.66664 -1.05881,4.437 -1.28137,6.74373 v 0"
               style="fill:none;stroke:#000000;stroke-width:2.61538;stroke-linecap:round;stroke-linejoin:round;stroke-miterlimit:10;stroke-dasharray:none;stroke-opacity:1"
               id="path632"
               sodipodi:nodetypes="cccccc" />
          </g>
        </g>
        <g
           id="g634"
           transform="matrix(1,0,0,-1,0,792)">
          <g
             id="g636">
            <path
               d="m 385.40686,638.84265 c -0.28882,-3.64103 -0.63252,-7.41547 -0.005,-11.01172 0.25476,-0.94259 0.53803,-1.91309 0.42501,-2.90112"
               style="fill:none;stroke:#000000;stroke-width:2.61538;stroke-linecap:round;stroke-linejoin:round;stroke-miterlimit:10;stroke-dasharray:none;stroke-opacity:1"
               id="path638" />
          </g>
        </g>
        <g
           id="g640"
           transform="matrix(1,0,0,-1,0,792)">
          <g
             id="g642">
            <path
               d="m 385.40686,638.84265 c 25.00906,5.234 50.56491,0.0844 75.82722,1.30622 4.95876,-0.0992 9.92789,-0.39647 14.82042,-1.24602"
               style="fill:none;stroke:#000000;stroke-width:2.61538;stroke-linecap:round;stroke-linejoin:round;stroke-miterlimit:10;stroke-dasharray:none;stroke-opacity:1"
               id="path644"
               sodipodi:nodetypes="ccccccc" />
          </g>
        </g>
        <g
           id="g646"
           transform="matrix(1,0,0,-1,0,792)">
          <g
             id="g648">
            <path
               d="m 476.0545,638.90285 c 1.51704,-2.62611 4.60306,-12.20889 3.5289,-14.42967 -0.34822,-0.49053 -3.10785,0.23968 -3.44696,-0.25714"
               style="fill:none;stroke:#000000;stroke-width:2.61538;stroke-linecap:round;stroke-linejoin:round;stroke-miterlimit:10;stroke-dasharray:none;stroke-opacity:1"
               id="path650"
               sodipodi:nodetypes="ccc" />
          </g>
        </g>
        <g
           id="g652"
           transform="matrix(1,0,0,-1,0,792)">
          <g
             id="g654">
            <path
               d="m 385.82687,624.92981 c 29.57342,1.38294 60.7568,-3.33694 90.3096,-0.7138"
               style="fill:none;stroke:#000000;stroke-width:2.61538;stroke-linecap:round;stroke-linejoin:round;stroke-miterlimit:10;stroke-dasharray:none;stroke-opacity:1"
               id="path656"
               sodipodi:nodetypes="cc" />
          </g>
        </g>
        <g
           id="g658"
           transform="matrix(1,0,0,-1,0,792)">
          <g
             id="g660">
            <path
               d="m 427.4895,673.11993 c 5.59291,0.79075 11.25041,-0.35487 16.88651,0.16062"
               style="fill:none;stroke:#000000;stroke-width:1.30769;stroke-linecap:round;stroke-linejoin:round;stroke-miterlimit:10;stroke-dasharray:none;stroke-opacity:1"
               id="path662" />
          </g>
        </g>
        <g
           id="g664"
           transform="matrix(1,0,0,-1,0,792)">
          <g
             id="g666">
            <path
               d="m 466.34995,673.54639 c 3.8662,0.15856 8.456,-0.0865 12.57965,0.10197 l -0.0817,-0.15882"
               style="fill:none;stroke:#000000;stroke-width:1.30769;stroke-linecap:round;stroke-linejoin:round;stroke-miterlimit:10;stroke-dasharray:none;stroke-opacity:1"
               id="path668" />
          </g>
        </g>
        <g
           id="g670"
           transform="matrix(1,0,0,-1,0,792)">
          <g
             id="g672">
            <path
               d="m 457.88879,653.15405 c 6.83541,0.70338 14.00183,0.98411 21.00514,1.3606 2.57682,-0.22756 6.60459,1.00569 8.35272,-0.33172"
               style="fill:none;stroke:#000000;stroke-width:1.30769;stroke-linecap:round;stroke-linejoin:round;stroke-miterlimit:10;stroke-dasharray:none;stroke-opacity:1"
               id="path674" />
          </g>
        </g>
        <g
           id="g676"
           transform="matrix(1,0,0,-1,0,792)">
          <g
             id="g678">
            <path
               d="m 487.24665,654.18293 c 0.93085,-0.52186 0.46833,-2.56525 1.50864,-3.31851"
               style="fill:none;stroke:#000000;stroke-width:1.30769;stroke-linecap:round;stroke-linejoin:round;stroke-miterlimit:10;stroke-dasharray:none;stroke-opacity:1"
               id="path680"
               sodipodi:nodetypes="cc" />
          </g>
        </g>
        <g
           id="g682"
           transform="matrix(1,0,0,-1,0,792)">
          <g
             id="g684">
            <path
               d="m 457.88879,653.15405 c 0.45738,-2.35817 0.53948,-3.28887 3.32881,-2.99689 l 27.27512,0.72696"
               style="fill:none;stroke:#000000;stroke-width:1.30769;stroke-linecap:round;stroke-linejoin:round;stroke-miterlimit:10;stroke-dasharray:none;stroke-opacity:1"
               id="path686"
               sodipodi:nodetypes="ccc" />
          </g>
        </g>
        <g
           id="g688"
           transform="matrix(1,0,0,-1,0,792)">
          <g
             id="g690">
            <path
               d="m 395.58594,629.32257 c 0.87677,1.29563 -1.47662,5.15526 0.49716,5.94739 4.79813,0.15389 2.23421,-2.93205 -0.19369,-3.11921"
               style="fill:none;stroke:#000000;stroke-width:1.30769;stroke-linecap:round;stroke-linejoin:round;stroke-miterlimit:10;stroke-dasharray:none;stroke-opacity:1"
               id="path692" />
          </g>
        </g>
        <g
           id="g694"
           transform="matrix(1,0,0,-1,0,792)">
          <g
             id="g696">
            <path
               d="m 405.33417,634.35376 c -3.40376,-0.4179 -0.96554,-6.03819 1.85328,-3.18882 1.44852,1.30546 -0.55911,3.6092 -2.16473,2.79236"
               style="fill:none;stroke:#000000;stroke-width:1.30769;stroke-linecap:round;stroke-linejoin:round;stroke-miterlimit:10;stroke-dasharray:none;stroke-opacity:1"
               id="path698" />
          </g>
        </g>
        <g
           id="g700"
           transform="matrix(1,0,0,-1,0,792)">
          <g
             id="g702">
            <path
               d="m 411.83832,634.47089 c 0.29552,1.36519 0.90065,-3.88043 0.61054,-4.28399"
               style="fill:none;stroke:#000000;stroke-width:1.30769;stroke-linecap:round;stroke-linejoin:round;stroke-miterlimit:10;stroke-dasharray:none;stroke-opacity:1"
               id="path704" />
          </g>
        </g>
        <g
           id="g706"
           transform="matrix(1,0,0,-1,0,792)">
          <g
             id="g708">
            <path
               d="m 411.57053,633.57855 c 0.20189,1.72691 7.01356,1.47104 2.34464,-0.95452 0.59597,0.21321 3.06982,-1.69285 2.65105,-2.37808"
               style="fill:none;stroke:#000000;stroke-width:1.30769;stroke-linecap:round;stroke-linejoin:round;stroke-miterlimit:10;stroke-dasharray:none;stroke-opacity:1"
               id="path710" />
          </g>
        </g>
        <g
           id="g712"
           transform="matrix(1,0,0,-1,0,792)">
          <g
             id="g714">
            <path
               d="m 419.30685,635.51599 5.22165,-0.64441"
               style="fill:none;stroke:#000000;stroke-width:1.30769;stroke-linecap:round;stroke-linejoin:round;stroke-miterlimit:10;stroke-dasharray:none;stroke-opacity:1"
               id="path716"
               sodipodi:nodetypes="cc" />
          </g>
        </g>
        <g
           id="g718"
           transform="matrix(1,0,0,-1,0,792)">
          <g
             id="g720">
            <path
               d="m 421.91768,635.19379 c -0.97672,0.27583 1.25323,-5.0035 -0.0678,-4.94178"
               style="fill:none;stroke:#000000;stroke-width:1.30769;stroke-linecap:round;stroke-linejoin:round;stroke-miterlimit:10;stroke-dasharray:none;stroke-opacity:1"
               id="path722"
               sodipodi:nodetypes="cc" />
          </g>
        </g>
        <g
           id="g724"
           transform="matrix(1,0,0,-1,0,792)">
          <g
             id="g726">
            <path
               d="m 427.22348,629.76971 c -0.96506,-0.0666 1.8665,3.43486 2.60822,5.00525 0.004,1.81096 1.92915,-4.83473 2.35789,-4.49301"
               style="fill:none;stroke:#000000;stroke-width:1.30769;stroke-linecap:round;stroke-linejoin:round;stroke-miterlimit:10;stroke-dasharray:none;stroke-opacity:1"
               id="path728" />
          </g>
        </g>
        <g
           id="g730"
           transform="matrix(1,0,0,-1,0,792)">
          <g
             id="g732">
            <path
               d="m 427.77133,631.7254 c 1.19795,0.12082 2.39502,0.61956 3.60248,0.42203"
               style="fill:none;stroke:#000000;stroke-width:1.30769;stroke-linecap:round;stroke-linejoin:round;stroke-miterlimit:10;stroke-dasharray:none;stroke-opacity:1"
               id="path734" />
          </g>
        </g>
        <g
           id="g736"
           transform="matrix(1,0,0,-1,0,792)">
          <g
             id="g738">
            <path
               d="m 440.67114,634.48157 c 0.38927,2.02068 1.30616,-4.00521 0.49573,-4.79164"
               style="fill:none;stroke:#000000;stroke-width:1.30769;stroke-linecap:round;stroke-linejoin:round;stroke-miterlimit:10;stroke-dasharray:none;stroke-opacity:1"
               id="path740" />
          </g>
        </g>
        <g
           id="g742"
           transform="matrix(1,0,0,-1,0,792)">
          <g
             id="g744">
            <path
               d="m 440.28574,635.0318 c -1.21562,-0.27215 4.98253,1.18301 4.31799,0.43611"
               style="fill:none;stroke:#000000;stroke-width:1.30769;stroke-linecap:round;stroke-linejoin:round;stroke-miterlimit:10;stroke-dasharray:none;stroke-opacity:1"
               id="path746" />
          </g>
        </g>
        <g
           id="g748"
           transform="matrix(1,0,0,-1,0,792)">
          <g
             id="g750">
            <path
               d="m 440.99838,631.9516 c -0.93513,0.64687 1.57412,0.47724 1.75745,0.63763"
               style="fill:none;stroke:#000000;stroke-width:1.30769;stroke-linecap:round;stroke-linejoin:round;stroke-miterlimit:10;stroke-dasharray:none;stroke-opacity:1"
               id="path752" />
          </g>
        </g>
        <g
           id="g754"
           transform="matrix(1,0,0,-1,0,792)">
          <g
             id="g756">
            <path
               d="m 449.98447,635.10632 c -3.03144,-0.0893 -2.95606,-5.11367 0.0208,-4.91595 3.50829,0.56347 2.00031,4.59869 -0.8446,4.66833 l -0.3221,-0.41013 -0.0201,-0.0256"
               style="fill:none;stroke:#000000;stroke-width:1.30769;stroke-linecap:round;stroke-linejoin:round;stroke-miterlimit:10;stroke-dasharray:none;stroke-opacity:1"
               id="path758" />
          </g>
        </g>
        <g
           id="g760"
           transform="matrix(1,0,0,-1,0,792)">
          <g
             id="g762">
            <path
               d="m 456.49124,634.82959 c -0.003,-2.12908 2.31827,-6.2706 4.28122,-2.96047 0.0818,0.79871 -1.47011,2.69293 -0.32822,2.97455"
               style="fill:none;stroke:#000000;stroke-width:1.30769;stroke-linecap:round;stroke-linejoin:round;stroke-miterlimit:10;stroke-dasharray:none;stroke-opacity:1"
               id="path764" />
          </g>
        </g>
        <g
           id="g766"
           transform="matrix(1,0,0,-1,0,792)">
          <g
             id="g768">
            <path
               d="m 465.01086,634.38165 c 0.16247,-0.83538 0.45213,-3.66669 1.09912,-4.35395"
               style="fill:none;stroke:#000000;stroke-width:1.30769;stroke-linecap:round;stroke-linejoin:round;stroke-miterlimit:10;stroke-dasharray:none;stroke-opacity:1"
               id="path770" />
          </g>
        </g>
        <g
           id="g772"
           transform="matrix(1,0,0,-1,0,792)">
          <g
             id="g774">
            <path
               d="m 464.84796,633.0954 c -1.3892,1.67838 5.46666,3.29359 2.55821,-0.0559 -4.26071,-1.89872 2.4391,-0.18605 2.916,-3.54713 -0.52155,-0.33593 0.63988,0.0936 -0.11962,-0.27373"
               style="fill:none;stroke:#000000;stroke-width:1.30769;stroke-linecap:round;stroke-linejoin:round;stroke-miterlimit:10;stroke-dasharray:none;stroke-opacity:1"
               id="path776" />
          </g>
        </g>
      </g>
    </g>
  </g>
</svg>
