<?xml version="1.0" encoding="UTF-8" standalone="no"?>
<!-- Created by Ashley Blewer - This work is licensed under a Creative Commons Attribution 4.0 International License -->

<svg
   width="544"
   height="480"
   viewBox="0 0 143.93334 127"
   version="1.1"
   id="svg2490"
   inkscape:version="1.2.2 (1:1.2.2+202212051552+b0a8486541)"
   sodipodi:docname="1962-stereo-pak-2.svg"
   xmlns:inkscape="http://www.inkscape.org/namespaces/inkscape"
   xmlns:sodipodi="http://sodipodi.sourceforge.net/DTD/sodipodi-0.dtd"
   xmlns="http://www.w3.org/2000/svg"
   xmlns:svg="http://www.w3.org/2000/svg">
  <sodipodi:namedview
     id="namedview2492"
     pagecolor="#ffffff"
     bordercolor="#666666"
     borderopacity="1.0"
     inkscape:pageshadow="2"
     inkscape:pageopacity="0.0"
     inkscape:pagecheckerboard="0"
     inkscape:document-units="mm"
     showgrid="false"
     units="px"
     inkscape:zoom="0.90583674"
     inkscape:cx="53.541657"
     inkscape:cy="253.35691"
     inkscape:window-width="1846"
     inkscape:window-height="1136"
     inkscape:window-x="0"
     inkscape:window-y="0"
     inkscape:window-maximized="1"
     inkscape:current-layer="g4731"
     inkscape:showpageshadow="2"
     inkscape:deskcolor="#d1d1d1" />
  <defs
     id="defs2487" />
  <g
     inkscape:label="Layer 1"
     inkscape:groupmode="layer"
     id="layer1">
    <g
       id="g4731"
       transform="matrix(0.32961229,0,0,0.32903008,-241.78905,1.73126)"
       style="stroke-width:2.68698">
      <g
         id="g104528"
         transform="matrix(1,0,0,-1,0,792)"
         style="stroke-width:2.68698">
        <g
           id="g104530"
           style="stroke-width:2.68698" />
      </g>
      <g
         id="g104996"
         transform="matrix(1,0,0,-1,0,792)"
         style="stroke-width:2.68698">
        <g
           id="g104998"
           style="stroke-width:2.68698" />
      </g>
      <g
         id="g2728"
         transform="matrix(1.070281,0,0,1.0721748,-62.450378,-428.33818)">
        <g
           id="g1030"
           transform="matrix(1,0,0,-1,0,792)">
          <g
             id="g1032">
            <path
               d="m 873.92828,76.853142 c -3.20913,22.102976 -3.23208,44.394638 -3.07781,66.675998 -0.76041,18.96371 -1.09923,37.99214 -0.34214,56.95119 l -0.0815,-0.25377 0.32678,0.004"
               style="fill:none;stroke:#000000;stroke-width:1.30769;stroke-linecap:round;stroke-linejoin:round;stroke-miterlimit:10;stroke-dasharray:none;stroke-opacity:1"
               id="path1034" />
          </g>
        </g>
        <g
           id="g1036"
           transform="matrix(1,0,0,-1,0,792)">
          <g
             id="g1038">
            <path
               d="M 870.50833,200.48033 1057.161,228.42497"
               style="fill:none;stroke:#000000;stroke-width:1.30769;stroke-linecap:round;stroke-linejoin:round;stroke-miterlimit:10;stroke-dasharray:none;stroke-opacity:1"
               id="path1040"
               sodipodi:nodetypes="cc" />
          </g>
        </g>
        <g
           id="g1042"
           transform="matrix(1,0,0,-1,0,792)">
          <g
             id="g1044">
            <path
               d="m 1057.161,228.42497 c 1.6875,-22.80053 -2.2137,-45.49351 -3.0296,-68.24718 -3.1724,-18.59964 -2.9698,-37.54799 -5.9809,-56.14047"
               style="fill:none;stroke:#000000;stroke-width:1.30769;stroke-linecap:round;stroke-linejoin:round;stroke-miterlimit:10;stroke-dasharray:none;stroke-opacity:1"
               id="path1046" />
          </g>
        </g>
        <g
           id="g1048"
           transform="matrix(1,0,0,-1,0,792)">
          <g
             id="g1050">
            <path
               d="m 873.92828,76.853142 175.23042,26.831878 v 0"
               style="fill:none;stroke:#000000;stroke-width:1.30769;stroke-linecap:round;stroke-linejoin:round;stroke-miterlimit:10;stroke-dasharray:none;stroke-opacity:1"
               id="path1052"
               sodipodi:nodetypes="ccc" />
          </g>
        </g>
        <g
           id="g1054"
           transform="matrix(1,0,0,-1,0,792)">
          <g
             id="g1056">
            <path
               d="m 848.2785,344.99988 c 6.36951,1.54342 12.89835,0.40068 19.12201,0.9034"
               style="fill:none;stroke:#000000;stroke-width:1.30769;stroke-linecap:round;stroke-linejoin:round;stroke-miterlimit:10;stroke-dasharray:none;stroke-opacity:1"
               id="path1058" />
          </g>
        </g>
        <g
           id="g1060"
           transform="matrix(1,0,0,-1,0,792)">
          <g
             id="g1062">
            <path
               d="m 845.58868,340.63199 c -3.2356,-7.55612 -7.4658,-16.78623 -8.2845,-23.94476"
               style="fill:none;stroke:#000000;stroke-width:1.30769;stroke-linecap:round;stroke-linejoin:round;stroke-miterlimit:10;stroke-dasharray:none;stroke-opacity:1"
               id="path1064" />
          </g>
        </g>
        <g
           id="g1066"
           transform="matrix(1,0,0,-1,0,792)">
          <g
             id="g1068">
            <path
               d="m 870.80487,354.08075 c -8.67842,0.20199 -19.72436,-1.52023 -28.11963,-3.57364"
               style="fill:none;stroke:#000000;stroke-width:2.61538;stroke-linecap:round;stroke-linejoin:round;stroke-miterlimit:10;stroke-dasharray:none;stroke-opacity:1"
               id="path1070"
               sodipodi:nodetypes="cc" />
          </g>
        </g>
        <g
           id="g1072"
           transform="matrix(1,0,0,-1,0,792)">
          <g
             id="g1074">
            <path
               d="m 842.68524,350.50711 c -7.03967,-13.51643 -9.69269,-28.18158 -14.41611,-42.53922"
               style="fill:none;stroke:#000000;stroke-width:2.61538;stroke-linecap:round;stroke-linejoin:round;stroke-miterlimit:10;stroke-dasharray:none;stroke-opacity:1"
               id="path1076" />
          </g>
        </g>
        <g
           id="g1078"
           transform="matrix(1,0,0,-1,0,792)">
          <g
             id="g1080">
            <path
               d="m 828.26913,307.96789 c 1.11828,-22.62481 0.36394,-47.14048 3.46359,-69.68732 0.11492,-29.80922 2.85462,-59.46072 4.94828,-89.16786 1.73811,-24.30862 1.89924,-49.05043 8.34171,-72.616103 3.60495,-3.608785 6.70164,-7.961396 8.76033,-12.696203"
               style="fill:none;stroke:#000000;stroke-width:2.61538;stroke-linecap:round;stroke-linejoin:round;stroke-miterlimit:10;stroke-dasharray:none;stroke-opacity:1"
               id="path1082"
               sodipodi:nodetypes="ccccc" />
          </g>
        </g>
        <g
           id="g1084"
           transform="matrix(1,0,0,-1,0,792)">
          <g
             id="g1086">
            <path
               d="m 852.68304,68.445969 c -0.88607,6.334406 0.93467,12.504162 -5.64296,12.973483 1.61647,7.081985 5.06317,15.721034 -4.37936,19.164908"
               style="fill:none;stroke:#000000;stroke-width:2.61538;stroke-linecap:round;stroke-linejoin:round;stroke-miterlimit:10;stroke-dasharray:none;stroke-opacity:1"
               id="path1088" />
          </g>
        </g>
        <g
           id="g1090"
           transform="matrix(1,0,0,-1,0,792)">
          <g
             id="g1092">
            <path
               d="m 855.37836,63.518818 c -8.33944,33.377099 -7.45873,68.008002 -11.4157,101.991892 -0.35128,7.82998 -0.42777,15.89631 3.48357,22.93047"
               style="fill:none;stroke:#000000;stroke-width:2.61538;stroke-linecap:round;stroke-linejoin:round;stroke-miterlimit:10;stroke-dasharray:none;stroke-opacity:1"
               id="path1094" />
          </g>
        </g>
        <g
           id="g1096"
           transform="matrix(1,0,0,-1,0,792)">
          <g
             id="g1098">
            <path
               d="m 847.35681,187.95758 c 5.80159,4.47779 8.89514,11.65328 14.35999,15.92265"
               style="fill:none;stroke:#000000;stroke-width:2.61538;stroke-linecap:round;stroke-linejoin:round;stroke-miterlimit:10;stroke-dasharray:none;stroke-opacity:1"
               id="path1100" />
          </g>
        </g>
        <g
           id="g1102"
           transform="matrix(1,0,0,-1,0,792)">
          <g
             id="g1104">
            <path
               d="m 861.28229,205.00308 c -0.36078,17.75341 -23.78931,14.91109 -25.84648,32.7261"
               style="fill:none;stroke:#000000;stroke-width:2.61538;stroke-linecap:round;stroke-linejoin:round;stroke-miterlimit:10;stroke-dasharray:none;stroke-opacity:1"
               id="path1106" />
          </g>
        </g>
        <g
           id="g1108"
           transform="matrix(1,0,0,-1,0,792)">
          <g
             id="g1110">
            <path
               d="m 835.43581,237.72918 c 2.40698,-10.65255 3.11261,-25.25346 2.98308,-36.06577"
               style="fill:none;stroke:#000000;stroke-width:2.61538;stroke-linecap:round;stroke-linejoin:round;stroke-miterlimit:10;stroke-dasharray:none;stroke-opacity:1"
               id="path1112"
               sodipodi:nodetypes="cc" />
          </g>
        </g>
        <g
           id="g1114"
           transform="matrix(1,0,0,-1,0,792)">
          <g
             id="g1116">
            <path
               d="m 838.75763,200.52528 22.95917,3.35495"
               style="fill:none;stroke:#000000;stroke-width:2.61538;stroke-linecap:round;stroke-linejoin:round;stroke-miterlimit:10;stroke-dasharray:none;stroke-opacity:1"
               id="path1118"
               sodipodi:nodetypes="cc" />
          </g>
        </g>
        <g
           id="g1120"
           transform="matrix(1,0,0,-1,0,792)">
          <g
             id="g1122">
            <path
               d="m 842.49768,226.66878 c 1.48004,23.01802 -2.43042,43.30572 -1.63208,66.35681 4.6062,11.15936 8.47498,22.8265 14.75991,33.16059"
               style="fill:none;stroke:#000000;stroke-width:2.61538;stroke-linecap:round;stroke-linejoin:round;stroke-miterlimit:10;stroke-dasharray:none;stroke-opacity:1"
               id="path1124"
               sodipodi:nodetypes="ccc" />
          </g>
        </g>
        <g
           id="g1126"
           transform="matrix(1,0,0,-1,0,792)">
          <g
             id="g1128">
            <path
               d="m 842.22369,347.52011 c 5.42278,-6.71767 11.74606,-13.29211 15.29377,-21.12674"
               style="fill:none;stroke:#000000;stroke-width:2.61538;stroke-linecap:round;stroke-linejoin:round;stroke-miterlimit:10;stroke-dasharray:none;stroke-opacity:1"
               id="path1130" />
          </g>
        </g>
        <g
           id="g1132"
           transform="matrix(1,0,0,-1,0,792)">
          <g
             id="g1134">
            <path
               d="m 858.09851,325.8006 c 3.41435,-18.3982 1.49623,-37.4093 2.63903,-56.06961 0.12481,-25.64473 1.48855,-51.22117 0.72859,-76.8604 -0.55287,-21.9959 -0.54817,-43.97974 0.24051,-65.96505 -0.0631,-22.28251 1.15762,-44.665964 3.47487,-66.770885"
               style="fill:none;stroke:#000000;stroke-width:2.61538;stroke-linecap:round;stroke-linejoin:round;stroke-miterlimit:10;stroke-dasharray:none;stroke-opacity:1"
               id="path1136" />
          </g>
        </g>
        <g
           id="g1138"
           transform="matrix(1,0,0,-1,0,792)">
          <g
             id="g1140">
            <path
               d="m 853.78304,63.800404 c 3.27863,-1.604026 8.53333,-6.446514 12.28289,-4.187386"
               style="fill:none;stroke:#000000;stroke-width:2.61538;stroke-linecap:round;stroke-linejoin:round;stroke-miterlimit:10;stroke-dasharray:none;stroke-opacity:1"
               id="path1142"
               sodipodi:nodetypes="cc" />
          </g>
        </g>
        <g
           id="g1144"
           transform="matrix(1,0,0,-1,0,792)">
          <g
             id="g1146">
            <path
               d="m 866.06593,59.613018 c 63.6093,4.073038 126.8259,21.766116 188.92077,34.727238"
               style="fill:none;stroke:#000000;stroke-width:2.61538;stroke-linecap:round;stroke-linejoin:round;stroke-miterlimit:10;stroke-dasharray:none;stroke-opacity:1"
               id="path1148"
               sodipodi:nodetypes="cc" />
          </g>
        </g>
        <g
           id="g1150"
           transform="matrix(1,0,0,-1,0,792)">
          <g
             id="g1152">
            <path
               d="m 870.80487,354.08075 c 4.3187,-6.70897 7.69976,-13.89715 11.39346,-20.86427"
               style="fill:none;stroke:#000000;stroke-width:2.61538;stroke-linecap:round;stroke-linejoin:round;stroke-miterlimit:10;stroke-dasharray:none;stroke-opacity:1"
               id="path1154" />
          </g>
        </g>
        <g
           id="g1156"
           transform="matrix(1,0,0,-1,0,792)">
          <g
             id="g1158">
            <path
               d="m 882.19833,333.21648 c 4.08576,-10.00479 22.79005,0.11745 28.09798,4.39105"
               style="fill:none;stroke:#000000;stroke-width:2.61538;stroke-linecap:round;stroke-linejoin:round;stroke-miterlimit:10;stroke-dasharray:none;stroke-opacity:1"
               id="path1160"
               sodipodi:nodetypes="cc" />
          </g>
        </g>
        <g
           id="g1162"
           transform="matrix(1,0,0,-1,0,792)">
          <g
             id="g1164">
            <path
               d="m 910.21918,338.51419 c -3.26213,5.60067 -10.60055,13.06179 -8.76471,19.24718"
               style="fill:none;stroke:#000000;stroke-width:2.61538;stroke-linecap:round;stroke-linejoin:round;stroke-miterlimit:10;stroke-dasharray:none;stroke-opacity:1"
               id="path1166" />
          </g>
        </g>
        <g
           id="g1168"
           transform="matrix(1,0,0,-1,0,792)">
          <g
             id="g1170">
            <path
               d="m 926.03229,361.07413 c 3.80847,-6.17498 9.32538,-13.63118 14.13116,-19.00864"
               style="fill:none;stroke:#000000;stroke-width:2.61538;stroke-linecap:round;stroke-linejoin:round;stroke-miterlimit:10;stroke-dasharray:none;stroke-opacity:1"
               id="path1172"
               sodipodi:nodetypes="cc" />
          </g>
        </g>
        <g
           id="g1174"
           transform="matrix(1,0,0,-1,0,792)">
          <g
             id="g1176">
            <path
               d="m 940.16345,342.06549 c 17.11694,3.29983 34.46479,6.04359 51.86872,7.29918 l -0.53968,-0.21823"
               style="fill:none;stroke:#000000;stroke-width:2.61538;stroke-linecap:round;stroke-linejoin:round;stroke-miterlimit:10;stroke-dasharray:none;stroke-opacity:1"
               id="path1178" />
          </g>
        </g>
        <g
           id="g1180"
           transform="matrix(1,0,0,-1,0,792)">
          <g
             id="g1182">
            <path
               d="m 991.34949,350.26511 c -3.65192,5.59199 -7.46097,11.45491 -10.94351,17.00697"
               style="fill:none;stroke:#000000;stroke-width:2.61538;stroke-linecap:round;stroke-linejoin:round;stroke-miterlimit:10;stroke-dasharray:none;stroke-opacity:1"
               id="path1184"
               sodipodi:nodetypes="cc" />
          </g>
        </g>
        <g
           id="g1186"
           transform="matrix(1,0,0,-1,0,792)">
          <g
             id="g1188">
            <path
               d="m 1002.3871,368.68448 c 5.9051,-3.85991 10.6527,-12.33612 14.2526,-16.48304"
               style="fill:none;stroke:#000000;stroke-width:2.61538;stroke-linecap:round;stroke-linejoin:round;stroke-miterlimit:10;stroke-dasharray:none;stroke-opacity:1"
               id="path1190" />
          </g>
        </g>
        <g
           id="g1192"
           transform="matrix(1,0,0,-1,0,792)">
          <g
             id="g1194">
            <path
               d="m 1017.2447,351.29831 c 12.64,1.96077 25.7003,5.2722 38.3311,4.88993"
               style="fill:none;stroke:#000000;stroke-width:2.61538;stroke-linecap:round;stroke-linejoin:round;stroke-miterlimit:10;stroke-dasharray:none;stroke-opacity:1"
               id="path1196" />
          </g>
        </g>
        <g
           id="g1198"
           transform="matrix(1,0,0,-1,0,792)">
          <g
             id="g1200">
            <path
               d="m 1054.6914,356.77332 c -4.0469,5.77146 -6.4578,12.67431 -10.2841,16.76918"
               style="fill:none;stroke:#000000;stroke-width:2.61538;stroke-linecap:round;stroke-linejoin:round;stroke-miterlimit:10;stroke-dasharray:none;stroke-opacity:1"
               id="path1202"
               sodipodi:nodetypes="cc" />
          </g>
        </g>
        <g
           id="g1204"
           transform="matrix(1,0,0,-1,0,792)">
          <g
             id="g1206">
            <path
               d="m 872.65393,350.94946 c 8.33411,-2.76479 23.44971,0.62188 28.98993,7.81385"
               style="fill:none;stroke:#000000;stroke-width:2.61538;stroke-linecap:round;stroke-linejoin:round;stroke-miterlimit:10;stroke-dasharray:none;stroke-opacity:1"
               id="path1208"
               sodipodi:nodetypes="cc" />
          </g>
        </g>
        <g
           id="g1210"
           transform="matrix(1,0,0,-1,0,792)">
          <g
             id="g1212">
            <path
               d="m 901.64386,358.76331 c 23.99613,4.32475 48.49228,4.88606 72.66151,8.01728 27.99943,1.38643 55.96093,4.03219 83.55413,9.00027 l 4.5115,-0.3534"
               style="fill:none;stroke:#000000;stroke-width:2.61538;stroke-linecap:round;stroke-linejoin:round;stroke-miterlimit:10;stroke-dasharray:none;stroke-opacity:1"
               id="path1214"
               sodipodi:nodetypes="cccc" />
          </g>
        </g>
        <g
           id="g1216"
           transform="matrix(1,0,0,-1,0,792)">
          <g
             id="g1218">
            <path
               d="m 1062.371,375.42746 c 13.6172,-12.81454 23.8638,-30.32947 28.841,-48.65604"
               style="fill:none;stroke:#000000;stroke-width:2.61538;stroke-linecap:round;stroke-linejoin:round;stroke-miterlimit:10;stroke-dasharray:none;stroke-opacity:1"
               id="path1220" />
          </g>
        </g>
        <g
           id="g1222"
           transform="matrix(1,0,0,-1,0,792)">
          <g
             id="g1224">
            <path
               d="m 1091.212,326.77142 c -2.5191,-22.41704 -5.1514,-47.34445 -6.6331,-69.84968 -2.5838,-14.20546 -4.862,-32.72218 -8.8044,-44.70553 l -1.5637,-2.85363"
               style="fill:none;stroke:#000000;stroke-width:2.61538;stroke-linecap:round;stroke-linejoin:round;stroke-miterlimit:10;stroke-dasharray:none;stroke-opacity:1"
               id="path1226"
               sodipodi:nodetypes="cccc" />
          </g>
        </g>
        <g
           id="g1228"
           transform="matrix(1,0,0,-1,0,792)">
          <g
             id="g1230">
            <path
               d="m 1074.2108,209.36258 c -3.7882,-39.31329 -10.509,-77.97505 -19.2001,-113.862236"
               style="fill:none;stroke:#000000;stroke-width:2.61538;stroke-linecap:round;stroke-linejoin:round;stroke-miterlimit:10;stroke-dasharray:none;stroke-opacity:1"
               id="path1232"
               sodipodi:nodetypes="cc" />
          </g>
        </g>
        <g
           id="g1234"
           transform="matrix(1,0,0,-1,0,792)">
          <g
             id="g1236">
            <path
               d="m 1072.9908,351.2179 c -16.7108,1.26577 -6.2431,-25.4224 5.7672,-13.15884 3.4631,6.31452 -0.7559,15.1368 -8.5737,12.97884"
               style="fill:none;stroke:#000000;stroke-width:2.61538;stroke-linecap:round;stroke-linejoin:round;stroke-miterlimit:10;stroke-dasharray:none;stroke-opacity:1"
               id="path1238" />
          </g>
        </g>
        <g
           id="g1240"
           transform="matrix(1,0,0,-1,0,792)">
          <g
             id="g1242">
            <path
               d="m 1076.9186,338.57938 c -2.1599,3.23634 -7.0449,6.61209 -9.1418,8.05985"
               style="fill:none;stroke:#000000;stroke-width:2.61538;stroke-linecap:round;stroke-linejoin:round;stroke-miterlimit:10;stroke-dasharray:none;stroke-opacity:1"
               id="path1244" />
          </g>
        </g>
        <g
           id="g1246"
           transform="matrix(1,0,0,-1,0,792)">
          <g
             id="g1248">
            <path
               d="m 1066.4149,339.14154 c -1.4984,-0.1363 -0.4916,3.37149 -1.3645,3.45172"
               style="fill:none;stroke:#000000;stroke-width:2.61538;stroke-linecap:round;stroke-linejoin:round;stroke-miterlimit:10;stroke-dasharray:none;stroke-opacity:1"
               id="path1250" />
          </g>
        </g>
        <g
           id="g1252"
           transform="matrix(1,0,0,-1,0,792)">
          <g
             id="g1254">
            <path
               d="m 877.01697,346.09897 c 8.66166,0.45368 17.36924,0.55295 26.00598,-0.36225"
               style="fill:none;stroke:#000000;stroke-width:2.61538;stroke-linecap:round;stroke-linejoin:round;stroke-miterlimit:10;stroke-dasharray:none;stroke-opacity:1"
               id="path1256" />
          </g>
        </g>
        <g
           id="g1258"
           transform="matrix(1,0,0,-1,0,792)">
          <g
             id="g1260">
            <path
               d="m 879.01373,340.09659 c 7.74262,0.0244 15.48819,-0.23689 23.20953,-0.81446"
               style="fill:none;stroke:#000000;stroke-width:2.61538;stroke-linecap:round;stroke-linejoin:round;stroke-miterlimit:10;stroke-dasharray:none;stroke-opacity:1"
               id="path1262" />
          </g>
        </g>
        <g
           id="g1264"
           transform="matrix(1,0,0,-1,0,792)">
          <g
             id="g1266">
            <path
               d="m 936.89661,348.07001 c 7.27164,-1.43027 14.79675,-1.5799 22.13897,-2.30729"
               style="fill:none;stroke:#000000;stroke-width:2.61538;stroke-linecap:round;stroke-linejoin:round;stroke-miterlimit:10;stroke-dasharray:none;stroke-opacity:1"
               id="path1268" />
          </g>
        </g>
        <g
           id="g1270"
           transform="matrix(1,0,0,-1,0,792)">
          <g
             id="g1272">
            <path
               d="m 1017.2593,352.68887 c 3.9572,0.68744 8.0138,0.30018 11.9679,1.04609"
               style="fill:none;stroke:#000000;stroke-width:2.61538;stroke-linecap:round;stroke-linejoin:round;stroke-miterlimit:10;stroke-dasharray:none;stroke-opacity:1"
               id="path1274" />
          </g>
        </g>
        <g
           id="g1276"
           transform="matrix(1,0,0,-1,0,792)">
          <g
             id="g1278">
            <path
               d="m 906.87227,311.13016 c -7.37442,6.51375 -21.42049,5.80773 -24.55306,-5.16233"
               style="fill:none;stroke:#000000;stroke-width:2.61538;stroke-linecap:round;stroke-linejoin:round;stroke-miterlimit:10;stroke-dasharray:none;stroke-opacity:1"
               id="path1280"
               sodipodi:nodetypes="cc" />
          </g>
        </g>
        <g
           id="g1282"
           transform="matrix(1,0,0,-1,0,792)">
          <g
             id="g1284">
            <path
               d="m 882.31921,305.96783 c -12.90912,-3.88981 -20.08499,-15.34427 -18.0748,-28.49965 -0.36049,-13.87525 10.6771,-30.46709 25.67216,-29.83065 18.69662,-0.70062 40.39427,11.28061 40.98668,31.89192 0.91645,5.86686 -1.98829,11.19514 -2.74198,16.80255"
               style="fill:none;stroke:#000000;stroke-width:2.61538;stroke-linecap:round;stroke-linejoin:round;stroke-miterlimit:10;stroke-dasharray:none;stroke-opacity:1"
               id="path1286" />
          </g>
        </g>
        <g
           id="g1288"
           transform="matrix(1,0,0,-1,0,792)">
          <g
             id="g1290">
            <path
               d="m 928.17212,296.77136 c 9.5169,14.81645 -10.88109,21.21959 -21.29985,14.3588"
               style="fill:none;stroke:#000000;stroke-width:2.61538;stroke-linecap:round;stroke-linejoin:round;stroke-miterlimit:10;stroke-dasharray:none;stroke-opacity:1"
               id="path1292" />
          </g>
        </g>
        <g
           id="g1294"
           transform="matrix(1,0,0,-1,0,792)">
          <g
             id="g1296">
            <path
               d="m 924.46008,283.16675 c -11.77208,-5.2659 -21.32526,-14.57741 -32.31322,-21.08516 -2.72286,-2.85208 -7.54344,-5.32392 -10.18823,-6.90894"
               style="fill:none;stroke:#000000;stroke-width:2.61538;stroke-linecap:round;stroke-linejoin:round;stroke-miterlimit:10;stroke-dasharray:none;stroke-opacity:1"
               id="path1298" />
          </g>
        </g>
        <g
           id="g1300"
           transform="matrix(1,0,0,-1,0,792)">
          <g
             id="g1302">
            <path
               d="m 881.95863,255.17265 c -5.02784,4.43527 -7.55013,12.30307 -10.26197,18.23943"
               style="fill:none;stroke:#000000;stroke-width:2.61538;stroke-linecap:round;stroke-linejoin:round;stroke-miterlimit:10;stroke-dasharray:none;stroke-opacity:1"
               id="path1304"
               sodipodi:nodetypes="cc" />
          </g>
        </g>
        <g
           id="g1306"
           transform="matrix(1,0,0,-1,0,792)">
          <g
             id="g1308">
            <path
               d="m 871.69666,273.41208 c 13.52565,8.29487 27.58004,18.71277 41.69765,24.79205"
               style="fill:none;stroke:#000000;stroke-width:2.61538;stroke-linecap:round;stroke-linejoin:round;stroke-miterlimit:10;stroke-dasharray:none;stroke-opacity:1"
               id="path1310" />
          </g>
        </g>
        <g
           id="g1312"
           transform="matrix(1,0,0,-1,0,792)">
          <g
             id="g1314">
            <path
               d="m 967.01117,310.08383 c 11.36536,5.49194 6.66745,-10.57573 -0.58049,-2.14352 -1.6095,-0.4901 0.29869,3.44592 -0.72765,2.33383"
               style="fill:none;stroke:#000000;stroke-width:2.61538;stroke-linecap:round;stroke-linejoin:round;stroke-miterlimit:10;stroke-dasharray:none;stroke-opacity:1"
               id="path1316" />
          </g>
        </g>
      </g>
    </g>
  </g>
</svg>
