<?xml version="1.0" encoding="UTF-8" standalone="no"?>
<!-- Created by Ashley Blewer - This work is licensed under a Creative Commons Attribution 4.0 International License -->

<svg
   width="544"
   height="480"
   viewBox="0 0 143.93334 127"
   version="1.1"
   id="svg2490"
   inkscape:version="1.2.2 (1:1.2.2+202212051552+b0a8486541)"
   sodipodi:docname="1962-stereo-pak-3.svg"
   xmlns:inkscape="http://www.inkscape.org/namespaces/inkscape"
   xmlns:sodipodi="http://sodipodi.sourceforge.net/DTD/sodipodi-0.dtd"
   xmlns="http://www.w3.org/2000/svg"
   xmlns:svg="http://www.w3.org/2000/svg">
  <sodipodi:namedview
     id="namedview2492"
     pagecolor="#ffffff"
     bordercolor="#666666"
     borderopacity="1.0"
     inkscape:pageshadow="2"
     inkscape:pageopacity="0.0"
     inkscape:pagecheckerboard="0"
     inkscape:document-units="mm"
     showgrid="false"
     units="px"
     inkscape:zoom="0.90583674"
     inkscape:cx="53.541657"
     inkscape:cy="253.35691"
     inkscape:window-width="1846"
     inkscape:window-height="1136"
     inkscape:window-x="0"
     inkscape:window-y="0"
     inkscape:window-maximized="1"
     inkscape:current-layer="g4731"
     inkscape:showpageshadow="2"
     inkscape:deskcolor="#d1d1d1" />
  <defs
     id="defs2487" />
  <g
     inkscape:label="Layer 1"
     inkscape:groupmode="layer"
     id="layer1">
    <g
       id="g4731"
       transform="matrix(0.32961229,0,0,0.32903008,-241.78905,1.73126)"
       style="stroke-width:2.68698">
      <g
         id="g104528"
         transform="matrix(1,0,0,-1,0,792)"
         style="stroke-width:2.68698">
        <g
           id="g104530"
           style="stroke-width:2.68698" />
      </g>
      <g
         id="g104996"
         transform="matrix(1,0,0,-1,0,792)"
         style="stroke-width:2.68698">
        <g
           id="g104998"
           style="stroke-width:2.68698" />
      </g>
      <g
         id="g2454"
         transform="matrix(0.87900208,0,0,0.88055742,690.14879,-270.66608)">
        <g
           id="g64"
           transform="matrix(1,0,0,-1,0,792)">
          <g
             id="g66">
            <path
               d="m 91.659943,355.3562 c 35.152767,31.53548 80.609417,47.1259 121.185567,69.9561"
               style="fill:none;stroke:#000000;stroke-width:2.61538;stroke-linecap:round;stroke-linejoin:round;stroke-miterlimit:10;stroke-dasharray:none;stroke-opacity:1"
               id="path68" />
          </g>
        </g>
        <g
           id="g70"
           transform="matrix(1,0,0,-1,0,792)">
          <g
             id="g72">
            <path
               d="m 213.83986,425.71234 c 20.42295,-2.80174 41.42747,-5.69154 62.13939,-8.1838 41.41685,-6.69451 83.17091,-11.39028 124.82885,-16.35881 40.12083,-6.04037 80.38226,-12.22876 120.32127,-18.66744"
               style="fill:none;stroke:#000000;stroke-width:2.61538;stroke-linecap:round;stroke-linejoin:round;stroke-miterlimit:10;stroke-dasharray:none;stroke-opacity:1"
               id="path74" />
          </g>
        </g>
        <g
           id="g76"
           transform="matrix(1,0,0,-1,0,792)">
          <g
             id="g78">
            <path
               d="m 91.659943,355.3562 c 23.157917,-0.0834 38.537227,-24.30276 38.414147,-45.53051"
               style="fill:none;stroke:#000000;stroke-width:2.61538;stroke-linecap:round;stroke-linejoin:round;stroke-miterlimit:10;stroke-dasharray:none;stroke-opacity:1"
               id="path80"
               sodipodi:nodetypes="cc" />
          </g>
        </g>
        <g
           id="g82"
           transform="matrix(1,0,0,-1,0,792)">
          <g
             id="g84">
            <path
               d="m 91.659943,355.3562 c 59.883047,-8.64199 123.379827,-14.67169 183.178357,-23.88325 54.75951,-10.53913 108.70203,-26.48242 164.50912,-30.564 17.55763,-2.92071 35.35112,-4.40711 52.98196,-5.70894"
               style="fill:none;stroke:#000000;stroke-width:2.61538;stroke-linecap:round;stroke-linejoin:round;stroke-miterlimit:10;stroke-dasharray:none;stroke-opacity:1"
               id="path86"
               sodipodi:nodetypes="cccc" />
          </g>
        </g>
        <g
           id="g88"
           transform="matrix(1,0,0,-1,0,792)">
          <g
             id="g90">
            <path
               d="M 522.69446,381.19354 C 513.22975,351.69 501.14432,323.01514 493.27562,293.01871"
               style="fill:none;stroke:#000000;stroke-width:2.61538;stroke-linecap:round;stroke-linejoin:round;stroke-miterlimit:10;stroke-dasharray:none;stroke-opacity:1"
               id="path92" />
          </g>
        </g>
        <g
           id="g94"
           transform="matrix(1,0,0,-1,0,792)">
          <g
             id="g96">
            <path
               d="m 522.69446,381.19354 c -2.69272,-23.31586 -6.14505,-61.47694 -8.43225,-84.76062"
               style="fill:none;stroke:#000000;stroke-width:2.61538;stroke-linecap:round;stroke-linejoin:round;stroke-miterlimit:10;stroke-dasharray:none;stroke-opacity:1"
               id="path98"
               sodipodi:nodetypes="cc" />
          </g>
        </g>
        <g
           id="g100"
           transform="matrix(1,0,0,-1,0,792)">
          <g
             id="g102">
            <path
               d="m 509.69144,275.92755 c -13.53045,6.05813 -5.75334,-26.38032 0.5316,-7.35298 0.74961,2.61886 1.33645,7.65997 -2.54992,8.13564"
               style="fill:none;stroke:#000000;stroke-width:2.61538;stroke-linecap:round;stroke-linejoin:round;stroke-miterlimit:10;stroke-dasharray:none;stroke-opacity:1"
               id="path104" />
          </g>
        </g>
        <g
           id="g106"
           transform="matrix(1,0,0,-1,0,792)">
          <g
             id="g108">
            <path
               d="m 492.90939,185.02936 c 1.2504,11.1193 2.03635,22.47921 5.98967,33.05484"
               style="fill:none;stroke:#000000;stroke-width:2.61538;stroke-linecap:round;stroke-linejoin:round;stroke-miterlimit:10;stroke-dasharray:none;stroke-opacity:1"
               id="path110" />
          </g>
        </g>
        <g
           id="g112"
           transform="matrix(1,0,0,-1,0,792)">
          <g
             id="g114">
            <path
               d="m 498.89029,218.98682 c 3.43829,-0.37349 7.26072,1.47623 10.37928,-0.75573"
               style="fill:none;stroke:#000000;stroke-width:2.61538;stroke-linecap:round;stroke-linejoin:round;stroke-miterlimit:10;stroke-dasharray:none;stroke-opacity:1"
               id="path116" />
          </g>
        </g>
        <g
           id="g118"
           transform="matrix(1,0,0,-1,0,792)">
          <g
             id="g120">
            <path
               d="m 508.73923,216.5865 c -2.81944,-11.12421 -4.79852,-22.4703 -5.81147,-33.90317"
               style="fill:none;stroke:#000000;stroke-width:2.61538;stroke-linecap:round;stroke-linejoin:round;stroke-miterlimit:10;stroke-dasharray:none;stroke-opacity:1"
               id="path122" />
          </g>
        </g>
        <g
           id="g124"
           transform="matrix(1,0,0,-1,0,792)">
          <g
             id="g126">
            <path
               d="m 502.19312,181.80055 c -1.33705,-0.007 -6.73479,0.0657 -8.09662,0.10935"
               style="fill:none;stroke:#000000;stroke-width:2.61538;stroke-linecap:round;stroke-linejoin:round;stroke-miterlimit:10;stroke-dasharray:none;stroke-opacity:1"
               id="path128" />
          </g>
        </g>
        <g
           id="g130"
           transform="matrix(1,0,0,-1,0,792)">
          <g
             id="g132">
            <path
               d="m 495.4567,215.0979 c -1.97106,-0.61967 -4.01941,1.23508 -5.90977,-0.0273"
               style="fill:none;stroke:#000000;stroke-width:2.61538;stroke-linecap:round;stroke-linejoin:round;stroke-miterlimit:10;stroke-dasharray:none;stroke-opacity:1"
               id="path134" />
          </g>
        </g>
        <g
           id="g136"
           transform="matrix(1,0,0,-1,0,792)">
          <g
             id="g138">
            <path
               d="m 491.39197,188.02798 c -0.97967,1.27044 -2.99184,-0.22712 -3.76944,1.24357"
               style="fill:none;stroke:#000000;stroke-width:2.61538;stroke-linecap:round;stroke-linejoin:round;stroke-miterlimit:10;stroke-dasharray:none;stroke-opacity:1"
               id="path140" />
          </g>
        </g>
        <g
           id="g142"
           transform="matrix(1,0,0,-1,0,792)">
          <g
             id="g144">
            <path
               d="m 514.26221,296.43292 c -1.27678,-4.09037 -5.15051,-15.69187 -6.58909,-19.72271"
               style="fill:none;stroke:#000000;stroke-width:2.61538;stroke-linecap:round;stroke-linejoin:round;stroke-miterlimit:10;stroke-dasharray:none;stroke-opacity:1"
               id="path146"
               sodipodi:nodetypes="cc" />
          </g>
        </g>
        <g
           id="g148"
           transform="matrix(1,0,0,-1,0,792)">
          <g
             id="g150">
            <path
               d="m 506.48951,262.97569 c -2.04487,-10.8546 -8.34625,-37.17344 -11.03281,-47.87779"
               style="fill:none;stroke:#000000;stroke-width:2.61538;stroke-linecap:round;stroke-linejoin:round;stroke-miterlimit:10;stroke-dasharray:none;stroke-opacity:1"
               id="path152"
               sodipodi:nodetypes="cc" />
          </g>
        </g>
        <g
           id="g154"
           transform="matrix(1,0,0,-1,0,792)">
          <g
             id="g156">
            <path
               d="m 462.32764,88.053054 c 10.8341,32.122386 19.61291,64.897656 30.58175,96.976306"
               style="fill:none;stroke:#000000;stroke-width:2.61538;stroke-linecap:round;stroke-linejoin:round;stroke-miterlimit:10;stroke-dasharray:none;stroke-opacity:1"
               id="path158"
               sodipodi:nodetypes="cccc" />
          </g>
        </g>
        <g
           id="g160"
           transform="matrix(1,0,0,-1,0,792)">
          <g
             id="g162">
            <path
               d="m 462.32764,88.053054 c 2.1561,24.452656 7.75702,50.966306 8.96504,75.540286 1.11413,8.98166 2.5266,17.92627 3.44193,26.93229"
               style="fill:none;stroke:#000000;stroke-width:2.61538;stroke-linecap:round;stroke-linejoin:round;stroke-miterlimit:10;stroke-dasharray:none;stroke-opacity:1"
               id="path164"
               sodipodi:nodetypes="ccc" />
          </g>
        </g>
        <g
           id="g166"
           transform="matrix(1,0,0,-1,0,792)">
          <g
             id="g168">
            <path
               d="m 473.79318,191.86661 c 5.81117,17.38351 12.36881,29.57479 18.95724,46.561"
               style="fill:none;stroke:#000000;stroke-width:2.61538;stroke-linecap:round;stroke-linejoin:round;stroke-miterlimit:10;stroke-dasharray:none;stroke-opacity:1"
               id="path170"
               sodipodi:nodetypes="cc" />
          </g>
        </g>
        <g
           id="g172"
           transform="matrix(1,0,0,-1,0,792)">
          <g
             id="g174">
            <path
               d="m 488.97092,214.99969 c 3.18434,23.84317 5.26718,47.93096 7.55902,71.80466 -3.10455,0.42093 -5.98916,2.28228 -4.62942,6.09152"
               style="fill:none;stroke:#000000;stroke-width:2.61538;stroke-linecap:round;stroke-linejoin:round;stroke-miterlimit:10;stroke-dasharray:none;stroke-opacity:1"
               id="path176" />
          </g>
        </g>
        <g
           id="g178"
           transform="matrix(1,0,0,-1,0,792)">
          <g
             id="g180">
            <path
               d="M 185.21405,343.43408 C 142.28926,324.61702 108.83224,290.78297 72.854675,261.8078"
               style="fill:none;stroke:#000000;stroke-width:2.61538;stroke-linecap:round;stroke-linejoin:round;stroke-miterlimit:10;stroke-dasharray:none;stroke-opacity:1"
               id="path182"
               sodipodi:nodetypes="cccc" />
          </g>
        </g>
        <g
           id="g184"
           transform="matrix(1,0,0,-1,0,792)">
          <g
             id="g186">
            <path
               d="m 72.854675,261.8078 c 2.559919,-18.79592 3.685539,-40.5656 3.918694,-59.5265"
               style="fill:none;stroke:#000000;stroke-width:2.61538;stroke-linecap:round;stroke-linejoin:round;stroke-miterlimit:10;stroke-dasharray:none;stroke-opacity:1"
               id="path188"
               sodipodi:nodetypes="cc" />
          </g>
        </g>
        <g
           id="g190"
           transform="matrix(1,0,0,-1,0,792)">
          <g
             id="g192">
            <path
               d="m 76.066315,188.18796 c 0.02455,4.64667 0.293764,-13.99734 0.229118,-14.94068"
               style="fill:none;stroke:#000000;stroke-width:2.61538;stroke-linecap:round;stroke-linejoin:round;stroke-miterlimit:10;stroke-dasharray:none;stroke-opacity:1"
               id="path194"
               sodipodi:nodetypes="cc" />
          </g>
        </g>
        <g
           id="g196"
           transform="matrix(1,0,0,-1,0,792)">
          <g
             id="g198">
            <path
               d="M 76.295433,173.24728 C 205.42943,146.90699 331.89157,108.07011 462.32764,88.053054"
               style="fill:none;stroke:#000000;stroke-width:2.61538;stroke-linecap:round;stroke-linejoin:round;stroke-miterlimit:10;stroke-dasharray:none;stroke-opacity:1"
               id="path200" />
          </g>
        </g>
        <g
           id="g202"
           transform="matrix(1,0,0,-1,0,792)">
          <g
             id="g204">
            <path
               d="m 76.773369,202.2813 c 20.021597,17.43129 50.021761,-29.17631 18.056774,-28.61135 -15.698294,-2.10077 -23.621021,21.6414 -12.934795,31.80828"
               style="fill:none;stroke:#000000;stroke-width:2.61538;stroke-linecap:round;stroke-linejoin:round;stroke-miterlimit:10;stroke-dasharray:none;stroke-opacity:1"
               id="path206"
               sodipodi:nodetypes="ccc" />
          </g>
        </g>
        <g
           id="g208"
           transform="matrix(1,0,0,-1,0,792)">
          <g
             id="g210">
            <path
               d="m 81.895348,205.47823 c 2.307243,2.3445 7.122756,3.91196 9.913368,5.61032"
               style="fill:none;stroke:#000000;stroke-width:2.61538;stroke-linecap:round;stroke-linejoin:round;stroke-miterlimit:10;stroke-dasharray:none;stroke-opacity:1"
               id="path212"
               sodipodi:nodetypes="cc" />
          </g>
        </g>
        <g
           id="g214"
           transform="matrix(1,0,0,-1,0,792)">
          <g
             id="g216">
            <path
               d="m 91.808716,211.08855 c 18.551334,8.84535 33.738614,-27.15063 13.950574,-34.48018"
               style="fill:none;stroke:#000000;stroke-width:2.61538;stroke-linecap:round;stroke-linejoin:round;stroke-miterlimit:10;stroke-dasharray:none;stroke-opacity:1"
               id="path218"
               sodipodi:nodetypes="cc" />
          </g>
        </g>
        <g
           id="g220"
           transform="matrix(1,0,0,-1,0,792)">
          <g
             id="g222">
            <path
               d="m 99.705154,213.39848 c 2.303096,31.25187 47.009496,5.27874 32.336336,-16.48435 -2.36206,-4.48765 -12.92074,-3.42047 -16.51785,0.48216"
               style="fill:none;stroke:#000000;stroke-width:2.61538;stroke-linecap:round;stroke-linejoin:round;stroke-miterlimit:10;stroke-dasharray:none;stroke-opacity:1"
               id="path224"
               sodipodi:nodetypes="ccc" />
          </g>
        </g>
        <g
           id="g226"
           transform="matrix(1,0,0,-1,0,792)">
          <g
             id="g228">
            <path
               d="m 115.52364,197.39629 c 2.94697,2.83381 5.89688,5.7286 9.30447,8.01452"
               style="fill:none;stroke:#000000;stroke-width:2.61538;stroke-linecap:round;stroke-linejoin:round;stroke-miterlimit:10;stroke-dasharray:none;stroke-opacity:1"
               id="path230" />
          </g>
        </g>
        <g
           id="g232"
           transform="matrix(1,0,0,-1,0,792)">
          <g
             id="g234">
            <path
               d="m 102.66941,212.32126 c 2.09509,3.35079 7.66209,5.99481 9.81978,7.47457"
               style="fill:none;stroke:#000000;stroke-width:2.61538;stroke-linecap:round;stroke-linejoin:round;stroke-miterlimit:10;stroke-dasharray:none;stroke-opacity:1"
               id="path236" />
          </g>
        </g>
        <g
           id="g238"
           transform="matrix(1,0,0,-1,0,792)">
          <g
             id="g240">
            <path
               d="m 168.57729,198.16139 c -0.50509,6.4784 3.56882,13.55373 10.3275,14.67179 11.48209,2.67133 25.07272,-5.75088 25.87027,-17.95954 1.29326,-6.08743 -1.47365,-13.1032 -6.91789,-16.24637 -2.45804,-1.14936 -5.53393,-0.6648 -7.54259,1.15177"
               style="fill:none;stroke:#000000;stroke-width:2.61538;stroke-linecap:round;stroke-linejoin:round;stroke-miterlimit:10;stroke-dasharray:none;stroke-opacity:1"
               id="path242" />
          </g>
        </g>
        <g
           id="g244"
           transform="matrix(1,0,0,-1,0,792)">
          <g
             id="g246">
            <path
               d="m 190.03082,182.47256 c 2.52385,1.94672 7.34276,6.31703 7.34276,6.31703"
               style="fill:none;stroke:#000000;stroke-width:2.61538;stroke-linecap:round;stroke-linejoin:round;stroke-miterlimit:10;stroke-dasharray:none;stroke-opacity:1"
               id="path248"
               sodipodi:nodetypes="cc" />
          </g>
        </g>
        <g
           id="g250"
           transform="matrix(1,0,0,-1,0,792)">
          <g
             id="g252">
            <path
               d="m 173.44315,197.11902 c 1.69996,3.4698 4.73845,6.26317 7.63318,8.75244"
               style="fill:none;stroke:#000000;stroke-width:2.61538;stroke-linecap:round;stroke-linejoin:round;stroke-miterlimit:10;stroke-dasharray:none;stroke-opacity:1"
               id="path254" />
          </g>
        </g>
        <g
           id="g256"
           transform="matrix(1,0,0,-1,0,792)">
          <g
             id="g258">
            <path
               d="m 150.39682,168.46635 c -6.06602,19.52325 19.47229,41.3128 33.24036,20.4992 18.19703,-16.0749 -7.57592,-40.87843 -25.47338,-27.87036 -5.56112,1.63505 -7.52944,7.02977 -8.86114,12.04396"
               style="fill:none;stroke:#000000;stroke-width:2.61538;stroke-linecap:round;stroke-linejoin:round;stroke-miterlimit:10;stroke-dasharray:none;stroke-opacity:1"
               id="path260" />
          </g>
        </g>
        <g
           id="g262"
           transform="matrix(1,0,0,-1,0,792)">
          <g
             id="g264">
            <path
               d="m 153.84843,186.56477 c 14.84862,9.49134 40.15483,-10.92169 28.53559,-24.94656"
               style="fill:none;stroke:#000000;stroke-width:2.61538;stroke-linecap:round;stroke-linejoin:round;stroke-miterlimit:10;stroke-dasharray:none;stroke-opacity:1"
               id="path266"
               sodipodi:nodetypes="cc" />
          </g>
        </g>
        <g
           id="g268"
           transform="matrix(1,0,0,-1,0,792)">
          <g
             id="g270">
            <path
               d="m 226.12398,200.02153 c 0.95355,3.12157 -0.24521,8.08473 1.72575,10.91965"
               style="fill:none;stroke:#000000;stroke-width:2.61538;stroke-linecap:round;stroke-linejoin:round;stroke-miterlimit:10;stroke-dasharray:none;stroke-opacity:1"
               id="path272"
               sodipodi:nodetypes="cc" />
          </g>
        </g>
        <g
           id="g274"
           transform="matrix(1,0,0,-1,0,792)">
          <g
             id="g276">
            <path
               d="m 227.84973,210.94118 c 20.24985,-4.14663 62.96207,-12.82555 62.96207,-12.82555"
               style="fill:none;stroke:#000000;stroke-width:2.61538;stroke-linecap:round;stroke-linejoin:round;stroke-miterlimit:10;stroke-dasharray:none;stroke-opacity:1"
               id="path278"
               sodipodi:nodetypes="cc" />
          </g>
        </g>
        <g
           id="g280"
           transform="matrix(1,0,0,-1,0,792)">
          <g
             id="g282">
            <path
               d="m 290.8118,198.11563 c 0.49848,-3.19124 0.93324,-6.60104 0.0712,-9.76775"
               style="fill:none;stroke:#000000;stroke-width:2.61538;stroke-linecap:round;stroke-linejoin:round;stroke-miterlimit:10;stroke-dasharray:none;stroke-opacity:1"
               id="path284" />
          </g>
        </g>
        <g
           id="g286"
           transform="matrix(1,0,0,-1,0,792)">
          <g
             id="g288">
            <path
               d="m 226.12398,200.02153 c 21.42156,-3.93161 43.82966,-10.46645 64.90284,-11.67114"
               style="fill:none;stroke:#000000;stroke-width:2.61538;stroke-linecap:round;stroke-linejoin:round;stroke-miterlimit:10;stroke-dasharray:none;stroke-opacity:1"
               id="path290" />
          </g>
        </g>
        <g
           id="g292"
           transform="matrix(1,0,0,-1,0,792)">
          <g
             id="g294">
            <path
               d="m 228.80185,173.43788 58.45401,-13.12736"
               style="fill:none;stroke:#000000;stroke-width:2.61538;stroke-linecap:round;stroke-linejoin:round;stroke-miterlimit:10;stroke-dasharray:none;stroke-opacity:1"
               id="path296"
               sodipodi:nodetypes="cc" />
          </g>
        </g>
        <g
           id="g298"
           transform="matrix(1,0,0,-1,0,792)">
          <g
             id="g300">
            <path
               d="m 287.25586,160.31052 c 0.35212,-3.21481 -0.89066,-10.11443 -0.89066,-10.11443"
               style="fill:none;stroke:#000000;stroke-width:2.61538;stroke-linecap:round;stroke-linejoin:round;stroke-miterlimit:10;stroke-dasharray:none;stroke-opacity:1"
               id="path302"
               sodipodi:nodetypes="cc" />
          </g>
        </g>
        <g
           id="g304"
           transform="matrix(1,0,0,-1,0,792)">
          <g
             id="g306">
            <path
               d="m 228.80185,173.43788 c -0.0967,-1.29749 -0.61447,-6.31108 -0.7766,-7.52038"
               style="fill:none;stroke:#000000;stroke-width:2.61538;stroke-linecap:round;stroke-linejoin:round;stroke-miterlimit:10;stroke-dasharray:none;stroke-opacity:1"
               id="path308" />
          </g>
        </g>
        <g
           id="g310"
           transform="matrix(1,0,0,-1,0,792)">
          <g
             id="g312">
            <path
               d="m 228.02525,165.9175 c 0,0 38.20043,-12.7129 57.76442,-15.97028"
               style="fill:none;stroke:#000000;stroke-width:2.61538;stroke-linecap:round;stroke-linejoin:round;stroke-miterlimit:10;stroke-dasharray:none;stroke-opacity:1"
               id="path314"
               sodipodi:nodetypes="cc" />
          </g>
        </g>
        <g
           id="g316"
           transform="matrix(1,0,0,-1,0,792)">
          <g
             id="g318">
            <path
               d="m 299.76819,155.79425 c 22.97618,15.28793 49.17539,-30.62869 17.05807,-32.10726 -13.81041,0.61773 -31.62444,21.56506 -17.05807,32.10726"
               style="fill:none;stroke:#000000;stroke-width:2.61538;stroke-linecap:round;stroke-linejoin:round;stroke-miterlimit:10;stroke-dasharray:none;stroke-opacity:1"
               id="path320"
               sodipodi:nodetypes="ccc" />
          </g>
        </g>
        <g
           id="g322"
           transform="matrix(1,0,0,-1,0,792)">
          <g
             id="g324">
            <path
               d="m 319.31732,172.05792 c -1.59328,-9.41044 -12.24702,-9.74337 -18.10665,-15.26538"
               style="fill:none;stroke:#000000;stroke-width:2.61538;stroke-linecap:round;stroke-linejoin:round;stroke-miterlimit:10;stroke-dasharray:none;stroke-opacity:1"
               id="path326" />
          </g>
        </g>
        <g
           id="g328"
           transform="matrix(1,0,0,-1,0,792)">
          <g
             id="g330">
            <path
               d="m 341.24695,166.91302 c -5.27547,-8.238 -13.78802,-18.22272 -10.16392,-28.07854"
               style="fill:none;stroke:#000000;stroke-width:2.61538;stroke-linecap:round;stroke-linejoin:round;stroke-miterlimit:10;stroke-dasharray:none;stroke-opacity:1"
               id="path332"
               sodipodi:nodetypes="cc" />
          </g>
        </g>
        <g
           id="g334"
           transform="matrix(1,0,0,-1,0,792)">
          <g
             id="g336">
            <path
               d="m 311.89275,162.98274 c -4.53167,24.05745 31.81403,29.44486 38.56345,9.92974 4.13802,-13.14437 -2.33491,-31.28333 -17.35515,-22.88778"
               style="fill:none;stroke:#000000;stroke-width:2.61538;stroke-linecap:round;stroke-linejoin:round;stroke-miterlimit:10;stroke-dasharray:none;stroke-opacity:1"
               id="path338"
               sodipodi:nodetypes="ccc" />
          </g>
        </g>
        <g
           id="g340"
           transform="matrix(1,0,0,-1,0,792)">
          <g
             id="g342">
            <path
               d="m 387.77402,139.91814 c 21.45776,12.11894 48.36631,-22.55979 23.23882,-34.27119 -16.1323,-8.912856 -38.41633,10.56836 -29.26125,27.2413 0,0 1.08445,4.63854 6.02243,7.02989"
               style="fill:none;stroke:#000000;stroke-width:2.61538;stroke-linecap:round;stroke-linejoin:round;stroke-miterlimit:10;stroke-dasharray:none;stroke-opacity:1"
               id="path344"
               sodipodi:nodetypes="cccc" />
          </g>
        </g>
        <g
           id="g346"
           transform="matrix(1,0,0,-1,0,792)">
          <g
             id="g348">
            <path
               d="m 387.77402,139.91814 c 2.80704,6.65182 10.03519,7.89158 13.07269,14.09591"
               style="fill:none;stroke:#000000;stroke-width:2.61538;stroke-linecap:round;stroke-linejoin:round;stroke-miterlimit:10;stroke-dasharray:none;stroke-opacity:1"
               id="path350"
               sodipodi:nodetypes="cc" />
          </g>
        </g>
        <g
           id="g352"
           transform="matrix(1,0,0,-1,0,792)">
          <g
             id="g354">
            <path
               d="m 419.86887,126.25691 c -2.93645,6.81434 -2.06148,16.58279 0.96127,22.8605"
               style="fill:none;stroke:#000000;stroke-width:2.61538;stroke-linecap:round;stroke-linejoin:round;stroke-miterlimit:10;stroke-dasharray:none;stroke-opacity:1"
               id="path356"
               sodipodi:nodetypes="cc" />
          </g>
        </g>
        <g
           id="g358"
           transform="matrix(1,0,0,-1,0,792)">
          <g
             id="g360">
            <path
               d="m 400.84671,154.01405 c 6.13775,7.57667 18.17634,4.52591 19.98343,-4.89664"
               style="fill:none;stroke:#000000;stroke-width:2.61538;stroke-linecap:round;stroke-linejoin:round;stroke-miterlimit:10;stroke-dasharray:none;stroke-opacity:1"
               id="path362" />
          </g>
        </g>
        <g
           id="g364"
           transform="matrix(1,0,0,-1,0,792)">
          <g
             id="g366">
            <path
               d="m 389.74802,146.22002 c -6.24108,27.33662 36.84978,30.39902 43.41502,7.05804 1.90518,-7.98866 -3.58372,-23.33565 -13.73387,-22.62789"
               style="fill:none;stroke:#000000;stroke-width:2.61538;stroke-linecap:round;stroke-linejoin:round;stroke-miterlimit:10;stroke-dasharray:none;stroke-opacity:1"
               id="path368"
               sodipodi:nodetypes="ccc" />
          </g>
        </g>
        <g
           id="g370"
           transform="matrix(1,0,0,-1,0,792)">
          <g
             id="g372">
            <path
               d="m 410.24936,175.84259 c 2.86175,-0.26197 5.74596,-0.22384 8.6072,0.019"
               style="fill:none;stroke:#000000;stroke-width:2.61538;stroke-linecap:round;stroke-linejoin:round;stroke-miterlimit:10;stroke-dasharray:none;stroke-opacity:1"
               id="path374" />
          </g>
        </g>
        <g
           id="g376"
           transform="matrix(1,0,0,-1,0,792)">
          <g
             id="g378">
            <path
               d="m 321.06863,194.515 c 5.80483,-0.15922 13.28295,-0.70389 18.08213,-0.14299"
               style="fill:none;stroke:#000000;stroke-width:2.61538;stroke-linecap:round;stroke-linejoin:round;stroke-miterlimit:10;stroke-dasharray:none;stroke-opacity:1"
               id="path380" />
          </g>
        </g>
        <g
           id="g382"
           transform="matrix(1,0,0,-1,0,792)">
          <g
             id="g384">
            <path
               d="m 237.52023,179.4395 c 12.08694,-0.23043 29.21015,-8.57634 36.85434,-10.02812"
               style="fill:none;stroke:#000000;stroke-width:2.61538;stroke-linecap:round;stroke-linejoin:round;stroke-miterlimit:10;stroke-dasharray:none;stroke-opacity:1"
               id="path386" />
          </g>
        </g>
        <g
           id="g388"
           transform="matrix(1,0,0,-1,0,792)">
          <g
             id="g390">
            <path
               d="m 173.45711,224.69724 c 7.27277,0.52623 19.35332,-1.76902 23.51388,-3.69441"
               style="fill:none;stroke:#000000;stroke-width:2.61538;stroke-linecap:round;stroke-linejoin:round;stroke-miterlimit:10;stroke-dasharray:none;stroke-opacity:1"
               id="path392" />
          </g>
        </g>
        <g
           id="g394"
           transform="matrix(1,0,0,-1,0,792)">
          <g
             id="g396">
            <path
               d="m 99.883621,238.83391 c 9.268749,-0.36097 18.437909,-2.73859 27.709209,-2.44066"
               style="fill:none;stroke:#000000;stroke-width:2.61538;stroke-linecap:round;stroke-linejoin:round;stroke-miterlimit:10;stroke-dasharray:none;stroke-opacity:1"
               id="path398" />
          </g>
        </g>
        <g
           id="g400"
           transform="matrix(1,0,0,-1,0,792)">
          <g
             id="g402">
            <path
               d="M 84.302017,269.39536 C 213.28313,239.49809 343.27121,214.04441 473.79318,191.86661"
               style="fill:none;stroke:#000000;stroke-width:2.61538;stroke-linecap:round;stroke-linejoin:round;stroke-miterlimit:10;stroke-dasharray:none;stroke-opacity:1"
               id="path404"
               sodipodi:nodetypes="cccccc" />
          </g>
        </g>
        <g
           id="g406"
           transform="matrix(1,0,0,-1,0,792)">
          <g
             id="g408">
            <path
               d="m 366.51579,297.31205 c 17.31115,-7.21683 38.2214,-3.06608 50.86443,-17.77944 l 3.21207,-5.50179"
               style="fill:none;stroke:#000000;stroke-width:2.61538;stroke-linecap:round;stroke-linejoin:round;stroke-miterlimit:10;stroke-dasharray:none;stroke-opacity:1"
               id="path410"
               sodipodi:nodetypes="ccc" />
          </g>
        </g>
        <g
           id="g412"
           transform="matrix(1,0,0,-1,0,792)">
          <g
             id="g414">
            <path
               d="m 420.59229,274.03082 c 0.40105,-12.72132 -3.02759,-27.77667 -3.77926,-38.95429"
               style="fill:none;stroke:#000000;stroke-width:2.61538;stroke-linecap:round;stroke-linejoin:round;stroke-miterlimit:10;stroke-dasharray:none;stroke-opacity:1"
               id="path416" />
          </g>
        </g>
        <g
           id="g418"
           transform="matrix(1,0,0,-1,0,792)">
          <g
             id="g420">
            <path
               d="m 420.8125,234.87863 c 1.02575,15.00377 4.51734,29.76136 5.5419,44.75294"
               style="fill:none;stroke:#000000;stroke-width:2.61538;stroke-linecap:round;stroke-linejoin:round;stroke-miterlimit:10;stroke-dasharray:none;stroke-opacity:1"
               id="path422" />
          </g>
        </g>
        <g
           id="g424"
           transform="matrix(1,0,0,-1,0,792)">
          <g
             id="g426">
            <path
               d="m 426.3544,279.63157 c -3.00227,5.48248 -2.77095,16.37279 -9.02328,20.15349"
               style="fill:none;stroke:#000000;stroke-width:2.61538;stroke-linecap:round;stroke-linejoin:round;stroke-miterlimit:10;stroke-dasharray:none;stroke-opacity:1"
               id="path428"
               sodipodi:nodetypes="cc" />
          </g>
        </g>
        <g
           id="g430"
           transform="matrix(1,0,0,-1,0,792)">
          <g
             id="g432">
            <path
               d="m 417.33112,299.78506 c -16.54693,1.27381 -38.1365,9.81706 -52.35147,1.64213 -1.39937,-1.5594 -0.22921,-3.82904 1.53614,-4.11514"
               style="fill:none;stroke:#000000;stroke-width:2.61538;stroke-linecap:round;stroke-linejoin:round;stroke-miterlimit:10;stroke-dasharray:none;stroke-opacity:1"
               id="path434" />
          </g>
        </g>
        <g
           id="g436"
           transform="matrix(1,0,0,-1,0,792)">
          <g
             id="g438">
            <path
               d="m 438.57632,237.11992 c -10.37136,-5.85005 15.35168,-5.43105 0.29436,-0.0726 l -2.43468,-0.40034"
               style="fill:none;stroke:#000000;stroke-width:2.61538;stroke-linecap:round;stroke-linejoin:round;stroke-miterlimit:10;stroke-dasharray:none;stroke-opacity:1"
               id="path440" />
          </g>
        </g>
        <g
           id="g442"
           transform="matrix(1,0,0,-1,0,792)">
          <g
             id="g444">
            <path
               d="m 437.1481,270.9231 c -10.65302,-0.45344 9.97133,-7.8273 -0.80908,1.40679 l 0.80908,-1.40679"
               style="fill:none;stroke:#000000;stroke-width:2.61538;stroke-linecap:round;stroke-linejoin:round;stroke-miterlimit:10;stroke-dasharray:none;stroke-opacity:1"
               id="path446"
               sodipodi:nodetypes="ccc" />
          </g>
        </g>
        <g
           id="g448"
           transform="matrix(1,0,0,-1,0,792)">
          <g
             id="g450">
            <path
               d="m 120.7098,365.57111 c 14.98222,-2.67524 35.52707,-8.89298 50.7584,-9.58085"
               style="fill:none;stroke:#000000;stroke-width:1.30769;stroke-linecap:round;stroke-linejoin:round;stroke-miterlimit:10;stroke-dasharray:none;stroke-opacity:1"
               id="path452"
               sodipodi:nodetypes="cc" />
          </g>
        </g>
        <g
           id="g454"
           transform="matrix(1,0,0,-1,0,792)">
          <g
             id="g456">
            <path
               d="m 145.54909,363.07388 c 4.15024,7.25901 35.35719,25.4952 22.12005,7.67473 -5.42785,-4.53492 -15.07537,-11.39979 -22.14626,-7.51492"
               style="fill:none;stroke:#000000;stroke-width:1.30769;stroke-linecap:round;stroke-linejoin:round;stroke-miterlimit:10;stroke-dasharray:none;stroke-opacity:1"
               id="path458" />
          </g>
        </g>
        <g
           id="g460"
           transform="matrix(1,0,0,-1,0,792)">
          <g
             id="g462">
            <path
               d="m 218.50658,399.79935 c -9.0279,6.57325 28.24058,21.37116 10.31283,4.33285 -3.86359,-1.70126 -7.368,-5.54261 -11.73699,-5.47869"
               style="fill:none;stroke:#000000;stroke-width:1.30769;stroke-linecap:round;stroke-linejoin:round;stroke-miterlimit:10;stroke-dasharray:none;stroke-opacity:1"
               id="path464" />
          </g>
        </g>
        <g
           id="g466"
           transform="matrix(1,0,0,-1,0,792)">
          <g
             id="g468">
            <path
               d="m 463.52295,366.97861 c 2.28562,13.43133 20.09062,14.09353 11.14137,-0.74082 -1.69204,-5.23239 -10.61544,-3.40186 -11.14137,0.74082"
               style="fill:none;stroke:#000000;stroke-width:1.30769;stroke-linecap:round;stroke-linejoin:round;stroke-miterlimit:10;stroke-dasharray:none;stroke-opacity:1"
               id="path470"
               sodipodi:nodetypes="ccc" />
          </g>
        </g>
        <g
           id="g472"
           transform="matrix(1,0,0,-1,0,792)">
          <g
             id="g474">
            <path
               d="m 438.69894,321.21369 c 0.65676,9.35674 17.60225,24.33534 14.90767,4.87028 -0.79194,-6.16536 -15.38114,-17.93912 -14.90767,-4.87028"
               style="fill:none;stroke:#000000;stroke-width:1.30769;stroke-linecap:round;stroke-linejoin:round;stroke-miterlimit:10;stroke-dasharray:none;stroke-opacity:1"
               id="path476"
               sodipodi:nodetypes="ccc" />
          </g>
        </g>
        <g
           id="g478"
           transform="matrix(1,0,0,-1,0,792)">
          <g
             id="g480">
            <path
               d="m 120.7098,365.57111 c 17.38033,10.95126 34.19807,23.1142 53.29026,31.28291 14.27152,6.65536 27.06803,16.26766 41.95226,21.59126"
               style="fill:none;stroke:#000000;stroke-width:1.30769;stroke-linecap:round;stroke-linejoin:round;stroke-miterlimit:10;stroke-dasharray:none;stroke-opacity:1"
               id="path482" />
          </g>
        </g>
        <g
           id="g484"
           transform="matrix(1,0,0,-1,0,792)">
          <g
             id="g486">
            <path
               d="m 215.95232,418.44528 c 91.76565,-8.55081 191.12043,-27.10183 282.23686,-40.46008"
               style="fill:none;stroke:#000000;stroke-width:1.30769;stroke-linecap:round;stroke-linejoin:round;stroke-miterlimit:10;stroke-dasharray:none;stroke-opacity:1"
               id="path488"
               sodipodi:nodetypes="cc" />
          </g>
        </g>
        <g
           id="g490"
           transform="matrix(1,0,0,-1,0,792)">
          <g
             id="g492">
            <path
               d="m 171.4682,355.99026 c 14.91879,12.66957 32.7316,22.04993 49.73689,31.68111"
               style="fill:none;stroke:#000000;stroke-width:1.30769;stroke-linecap:round;stroke-linejoin:round;stroke-miterlimit:10;stroke-dasharray:none;stroke-opacity:1"
               id="path494" />
          </g>
        </g>
        <g
           id="g496"
           transform="matrix(1,0,0,-1,0,792)">
          <g
             id="g498">
            <path
               d="m 221.20509,387.67137 c 68.60476,-12.18085 131.49662,-22.75411 205.99996,-35.67909"
               style="fill:none;stroke:#000000;stroke-width:1.30769;stroke-linecap:round;stroke-linejoin:round;stroke-miterlimit:10;stroke-dasharray:none;stroke-opacity:1"
               id="path500"
               sodipodi:nodetypes="cc" />
          </g>
        </g>
        <g
           id="g502"
           transform="matrix(1,0,0,-1,0,792)">
          <g
             id="g504">
            <path
               d="m 427.20505,351.99228 c -5.19797,-9.68651 -13.08454,-20.45671 -17.01438,-30.76441"
               style="fill:none;stroke:#000000;stroke-width:1.30769;stroke-linecap:round;stroke-linejoin:round;stroke-miterlimit:10;stroke-dasharray:none;stroke-opacity:1"
               id="path506"
               sodipodi:nodetypes="cc" />
          </g>
        </g>
        <g
           id="g508"
           transform="matrix(1,0,0,-1,0,792)">
          <g
             id="g510">
            <path
               d="m 410.19067,321.22787 c 12.61552,-12.88594 63.63028,-12.3449 63.63028,-12.3449"
               style="fill:none;stroke:#000000;stroke-width:1.30769;stroke-linecap:round;stroke-linejoin:round;stroke-miterlimit:10;stroke-dasharray:none;stroke-opacity:1"
               id="path512"
               sodipodi:nodetypes="cc" />
          </g>
        </g>
        <g
           id="g514"
           transform="matrix(1,0,0,-1,0,792)">
          <g
             id="g516">
            <path
               d="m 473.82095,308.88297 c 11.26537,21.38851 20.41445,45.71598 24.3682,69.10223"
               style="fill:none;stroke:#000000;stroke-width:1.30769;stroke-linecap:round;stroke-linejoin:round;stroke-miterlimit:10;stroke-dasharray:none;stroke-opacity:1"
               id="path518"
               sodipodi:nodetypes="ccc" />
          </g>
        </g>
      </g>
    </g>
  </g>
</svg>
