<?xml version="1.0" encoding="UTF-8" standalone="no"?>
<!-- Created by Ashley Blewer - This work is licensed under a Creative Commons Attribution 4.0 International License -->

<svg
   width="544"
   height="480"
   viewBox="0 0 143.93334 127"
   version="1.1"
   id="svg2490"
   inkscape:version="1.2.2 (1:1.2.2+202212051552+b0a8486541)"
   sodipodi:docname="1963-8-track-3.svg"
   xmlns:inkscape="http://www.inkscape.org/namespaces/inkscape"
   xmlns:sodipodi="http://sodipodi.sourceforge.net/DTD/sodipodi-0.dtd"
   xmlns="http://www.w3.org/2000/svg"
   xmlns:svg="http://www.w3.org/2000/svg">
  <sodipodi:namedview
     id="namedview2492"
     pagecolor="#ffffff"
     bordercolor="#666666"
     borderopacity="1.0"
     inkscape:pageshadow="2"
     inkscape:pageopacity="0.0"
     inkscape:pagecheckerboard="0"
     inkscape:document-units="mm"
     showgrid="false"
     units="px"
     inkscape:zoom="0.90583674"
     inkscape:cx="53.541657"
     inkscape:cy="253.35691"
     inkscape:window-width="1846"
     inkscape:window-height="1136"
     inkscape:window-x="0"
     inkscape:window-y="0"
     inkscape:window-maximized="1"
     inkscape:current-layer="g4731"
     inkscape:showpageshadow="2"
     inkscape:deskcolor="#d1d1d1" />
  <defs
     id="defs2487" />
  <g
     inkscape:label="Layer 1"
     inkscape:groupmode="layer"
     id="layer1">
    <g
       id="g4731"
       transform="matrix(0.32961229,0,0,0.32903008,-241.78905,1.73126)"
       style="stroke-width:2.68698">
      <g
         id="g104528"
         transform="matrix(1,0,0,-1,0,792)"
         style="stroke-width:2.68698">
        <g
           id="g104530"
           style="stroke-width:2.68698" />
      </g>
      <g
         id="g104996"
         transform="matrix(1,0,0,-1,0,792)"
         style="stroke-width:2.68698">
        <g
           id="g104998"
           style="stroke-width:2.68698" />
      </g>
      <g
         id="g2733"
         transform="matrix(1.1250363,0,0,1.127027,-186.89602,-438.74765)">
        <g
           id="g490"
           transform="matrix(1,0,0,-1,0,792)">
          <g
             id="g492">
            <path
               d="m 918.27234,77.868637 c -18.67697,1.747419 -16.51483,24.115563 -17.56634,37.752513 -0.53468,22.00032 2.15548,43.95392 1.03616,65.96492 0.36339,32.16934 1.53892,64.39675 -0.5702,96.51705 1.50469,26.43824 0.74423,53.03979 1.60326,79.39902 l 0.29603,2.41596"
               style="fill:none;stroke:#000000;stroke-width:2.61538;stroke-linecap:round;stroke-linejoin:round;stroke-miterlimit:10;stroke-dasharray:none;stroke-opacity:1"
               id="path494" />
          </g>
        </g>
        <g
           id="g496"
           transform="matrix(1,0,0,-1,0,792)">
          <g
             id="g498">
            <path
               d="m 903.07125,359.9181 c 4.57543,12.51292 7.1622,25.31898 13.17179,36.91711"
               style="fill:none;stroke:#000000;stroke-width:2.61538;stroke-linecap:round;stroke-linejoin:round;stroke-miterlimit:10;stroke-dasharray:none;stroke-opacity:1"
               id="path500"
               sodipodi:nodetypes="cc" />
          </g>
        </g>
        <g
           id="g502"
           transform="matrix(1,0,0,-1,0,792)">
          <g
             id="g504">
            <path
               d="m 916.24304,396.83521 c 4.32367,3.52701 12.78088,4.21886 18.11109,4.9483"
               style="fill:none;stroke:#000000;stroke-width:2.61538;stroke-linecap:round;stroke-linejoin:round;stroke-miterlimit:10;stroke-dasharray:none;stroke-opacity:1"
               id="path506"
               sodipodi:nodetypes="cc" />
          </g>
        </g>
        <g
           id="g508"
           transform="matrix(1,0,0,-1,0,792)">
          <g
             id="g510">
            <path
               d="m 934.35413,401.78351 c 43.96791,-0.20833 87.70127,-5.48284 131.57557,-7.75906 l 3.1094,-0.2877 3.0286,-0.34126"
               style="fill:none;stroke:#000000;stroke-width:2.61538;stroke-linecap:round;stroke-linejoin:round;stroke-miterlimit:10;stroke-dasharray:none;stroke-opacity:1"
               id="path512" />
          </g>
        </g>
        <g
           id="g514"
           transform="matrix(1,0,0,-1,0,792)">
          <g
             id="g516">
            <path
               d="m 1072.7299,392.16949 c 2.9258,-7.86223 18.5254,-9.80553 22.2431,-1.89314"
               style="fill:none;stroke:#000000;stroke-width:2.61538;stroke-linecap:round;stroke-linejoin:round;stroke-miterlimit:10;stroke-dasharray:none;stroke-opacity:1"
               id="path518" />
          </g>
        </g>
        <g
           id="g520"
           transform="matrix(1,0,0,-1,0,792)">
          <g
             id="g522">
            <path
               d="m 1072.7299,392.16949 c 4.4629,-0.52636 16.2904,-2.01414 22.2431,-1.89314"
               style="fill:none;stroke:#000000;stroke-width:2.61538;stroke-linecap:round;stroke-linejoin:round;stroke-miterlimit:10;stroke-dasharray:none;stroke-opacity:1"
               id="path524"
               sodipodi:nodetypes="cc" />
          </g>
        </g>
        <g
           id="g526"
           transform="matrix(1,0,0,-1,0,792)">
          <g
             id="g528">
            <path
               d="m 1095.0265,391.11609 c 7.9658,-0.68225 15.7842,-0.0189 23.5601,-2.36231"
               style="fill:none;stroke:#000000;stroke-width:2.61538;stroke-linecap:round;stroke-linejoin:round;stroke-miterlimit:10;stroke-dasharray:none;stroke-opacity:1"
               id="path530"
               sodipodi:nodetypes="cc" />
          </g>
        </g>
        <g
           id="g532"
           transform="matrix(1,0,0,-1,0,792)">
          <g
             id="g534">
            <path
               d="m 1118.5866,388.75378 c 5.2047,-10.92103 8.7995,-22.5091 12.3876,-34.03393"
               style="fill:none;stroke:#000000;stroke-width:2.61538;stroke-linecap:round;stroke-linejoin:round;stroke-miterlimit:10;stroke-dasharray:none;stroke-opacity:1"
               id="path536" />
          </g>
        </g>
        <g
           id="g538"
           transform="matrix(1,0,0,-1,0,792)">
          <g
             id="g540">
            <path
               d="m 1130.9742,354.71985 c 1.3923,-21.25174 0.3595,-43.35828 0.4944,-64.66121 -4.0841,-66.00112 1.5918,-131.44542 -3.111,-192.381669 -1.0151,-4.844802 -5.5979,-8.019483 -10.341,-8.466354"
               style="fill:none;stroke:#000000;stroke-width:2.61538;stroke-linecap:round;stroke-linejoin:round;stroke-miterlimit:10;stroke-dasharray:none;stroke-opacity:1"
               id="path542"
               sodipodi:nodetypes="cccc" />
          </g>
        </g>
        <g
           id="g544"
           transform="matrix(1,0,0,-1,0,792)">
          <g
             id="g546">
            <path
               d="m 918.27234,77.868637 c 0,0 163.49456,2.180896 202.20456,11.822484"
               style="fill:none;stroke:#000000;stroke-width:2.61538;stroke-linecap:round;stroke-linejoin:round;stroke-miterlimit:10;stroke-dasharray:none;stroke-opacity:1"
               id="path548"
               sodipodi:nodetypes="cc" />
          </g>
        </g>
        <g
           id="g550"
           transform="matrix(1,0,0,-1,0,792)">
          <g
             id="g552">
            <path
               d="m 934.35413,401.78351 c -8.28961,-12.36475 -14.7741,-22.86907 -16.48326,-43.64826 5.76804,-93.35716 0.38517,-279.720676 0.38517,-279.720676"
               style="fill:none;stroke:#000000;stroke-width:2.61538;stroke-linecap:round;stroke-linejoin:round;stroke-miterlimit:10;stroke-dasharray:none;stroke-opacity:1"
               id="path554"
               sodipodi:nodetypes="ccc" />
          </g>
        </g>
        <g
           id="g556"
           transform="matrix(1,0,0,-1,0,792)">
          <g
             id="g558">
            <path
               d="m 1023.993,348.57938 c -2.9449,-8.81269 13.7188,-10.61875 9.7162,-0.75617"
               style="fill:none;stroke:#000000;stroke-width:2.61538;stroke-linecap:round;stroke-linejoin:round;stroke-miterlimit:10;stroke-dasharray:none;stroke-opacity:1"
               id="path560" />
          </g>
        </g>
        <g
           id="g562"
           transform="matrix(1,0,0,-1,0,792)">
          <g
             id="g564">
            <path
               d="m 1023.993,348.57938 c 3.2657,-0.0839 6.4793,-0.17469 9.7162,-0.75617"
               style="fill:none;stroke:#000000;stroke-width:2.61538;stroke-linecap:round;stroke-linejoin:round;stroke-miterlimit:10;stroke-dasharray:none;stroke-opacity:1"
               id="path566"
               sodipodi:nodetypes="cc" />
          </g>
        </g>
        <g
           id="g568"
           transform="matrix(1,0,0,-1,0,792)">
          <g
             id="g570">
            <path
               d="m 942.91083,329.05701 c 54.80745,-3.14191 164.52937,-7.51435 164.52937,-7.51435"
               style="fill:none;stroke:#000000;stroke-width:2.61538;stroke-linecap:round;stroke-linejoin:round;stroke-miterlimit:10;stroke-dasharray:none;stroke-opacity:1"
               id="path572"
               sodipodi:nodetypes="cc" />
          </g>
        </g>
        <g
           id="g574"
           transform="matrix(1,0,0,-1,0,792)">
          <g
             id="g576">
            <path
               d="m 1107.4402,321.54266 c 5.3267,-60.63839 8.5889,-126.93766 6.4302,-187.6983"
               style="fill:none;stroke:#000000;stroke-width:2.61538;stroke-linecap:round;stroke-linejoin:round;stroke-miterlimit:10;stroke-dasharray:none;stroke-opacity:1"
               id="path578"
               sodipodi:nodetypes="cc" />
          </g>
        </g>
        <g
           id="g580"
           transform="matrix(1,0,0,-1,0,792)">
          <g
             id="g582">
            <path
               d="M 942.91083,329.05701 C 941.81531,292.95055 938.297,195.10382 941.81895,129.62448"
               style="fill:none;stroke:#000000;stroke-width:2.61538;stroke-linecap:round;stroke-linejoin:round;stroke-miterlimit:10;stroke-dasharray:none;stroke-opacity:1"
               id="path584"
               sodipodi:nodetypes="cc" />
          </g>
        </g>
        <g
           id="g586"
           transform="matrix(1,0,0,-1,0,792)">
          <g
             id="g588">
            <path
               d="m 941.81874,129.62448 c 34.65045,-0.57792 73.66036,0.48143 108.30976,0.45316 21.2503,0.93867 42.5815,1.95069 63.7419,3.76672"
               style="fill:none;stroke:#000000;stroke-width:2.61538;stroke-linecap:round;stroke-linejoin:round;stroke-miterlimit:10;stroke-dasharray:none;stroke-opacity:1"
               id="path590"
               sodipodi:nodetypes="ccc" />
          </g>
        </g>
        <g
           id="g592"
           transform="matrix(1,0,0,-1,0,792)">
          <g
             id="g594">
            <path
               d="m 924.81482,98.744141 c 4.26417,-0.04692 8.55034,0.716281 12.79431,-0.034"
               style="fill:none;stroke:#000000;stroke-width:2.61538;stroke-linecap:round;stroke-linejoin:round;stroke-miterlimit:10;stroke-dasharray:none;stroke-opacity:1"
               id="path596" />
          </g>
        </g>
        <g
           id="g598"
           transform="matrix(1,0,0,-1,0,792)">
          <g
             id="g600">
            <path
               d="m 924.81482,98.744141 c -1.44312,-10.759042 19.6103,-8.312855 12.79431,-0.034"
               style="fill:none;stroke:#000000;stroke-width:2.61538;stroke-linecap:round;stroke-linejoin:round;stroke-miterlimit:10;stroke-dasharray:none;stroke-opacity:1"
               id="path602"
               sodipodi:nodetypes="cc" />
          </g>
        </g>
      </g>
    </g>
  </g>
</svg>
