<?xml version="1.0" encoding="UTF-8" standalone="no"?>
<!-- Created by Ashley Blewer - This work is licensed under a Creative Commons Attribution 4.0 International License -->

<svg
   width="544"
   height="480"
   viewBox="0 0 143.93334 127"
   version="1.1"
   id="svg2490"
   inkscape:version="1.2.2 (1:1.2.2+202212051552+b0a8486541)"
   sodipodi:docname="1963-8-track-2.svg"
   xmlns:inkscape="http://www.inkscape.org/namespaces/inkscape"
   xmlns:sodipodi="http://sodipodi.sourceforge.net/DTD/sodipodi-0.dtd"
   xmlns="http://www.w3.org/2000/svg"
   xmlns:svg="http://www.w3.org/2000/svg">
  <sodipodi:namedview
     id="namedview2492"
     pagecolor="#ffffff"
     bordercolor="#666666"
     borderopacity="1.0"
     inkscape:pageshadow="2"
     inkscape:pageopacity="0.0"
     inkscape:pagecheckerboard="0"
     inkscape:document-units="mm"
     showgrid="false"
     units="px"
     inkscape:zoom="0.90583674"
     inkscape:cx="53.541657"
     inkscape:cy="253.35691"
     inkscape:window-width="1846"
     inkscape:window-height="1136"
     inkscape:window-x="0"
     inkscape:window-y="0"
     inkscape:window-maximized="1"
     inkscape:current-layer="g4731"
     inkscape:showpageshadow="2"
     inkscape:deskcolor="#d1d1d1" />
  <defs
     id="defs2487" />
  <g
     inkscape:label="Layer 1"
     inkscape:groupmode="layer"
     id="layer1">
    <g
       id="g4731"
       transform="matrix(0.32961229,0,0,0.32903008,-241.78905,1.73126)"
       style="stroke-width:2.68698">
      <g
         id="g104528"
         transform="matrix(1,0,0,-1,0,792)"
         style="stroke-width:2.68698">
        <g
           id="g104530"
           style="stroke-width:2.68698" />
      </g>
      <g
         id="g104996"
         transform="matrix(1,0,0,-1,0,792)"
         style="stroke-width:2.68698">
        <g
           id="g104998"
           style="stroke-width:2.68698" />
      </g>
      <g
         id="g2142"
         transform="matrix(1.0856954,0,0,1.0876164,612.00183,-55.789625)">
        <g
           id="g604"
           transform="matrix(1,0,0,-1,0,792)">
          <g
             id="g606">
            <path
               d="m 203.87613,731.3092 6.33036,-0.30905"
               style="fill:none;stroke:#000000;stroke-width:2.61538;stroke-linecap:round;stroke-linejoin:round;stroke-miterlimit:10;stroke-dasharray:none;stroke-opacity:1"
               id="path608"
               sodipodi:nodetypes="cc" />
          </g>
        </g>
        <g
           id="g610"
           transform="matrix(1,0,0,-1,0,792)">
          <g
             id="g612">
            <path
               d="m 209.70862,730.89972 c 5.1336,0.10557 10.26401,-0.16279 15.39502,-0.27295"
               style="fill:none;stroke:#000000;stroke-width:2.61538;stroke-linecap:round;stroke-linejoin:round;stroke-miterlimit:10;stroke-dasharray:none;stroke-opacity:1"
               id="path614" />
          </g>
        </g>
        <g
           id="g616"
           transform="matrix(1,0,0,-1,0,792)">
          <g
             id="g618">
            <path
               d="m 225.10364,730.62677 c 1.00112,-0.004 5.43829,-0.25336 6.43979,-0.28036"
               style="fill:none;stroke:#000000;stroke-width:2.61538;stroke-linecap:round;stroke-linejoin:round;stroke-miterlimit:10;stroke-dasharray:none;stroke-opacity:1"
               id="path620"
               sodipodi:nodetypes="cc" />
          </g>
        </g>
        <g
           id="g622"
           transform="matrix(1,0,0,-1,0,792)">
          <g
             id="g624">
            <path
               d="m 231.54343,730.34641 c 8.40946,-7.01588 23.23432,-8.14904 30.84338,0.26321"
               style="fill:none;stroke:#000000;stroke-width:2.61538;stroke-linecap:round;stroke-linejoin:round;stroke-miterlimit:10;stroke-dasharray:none;stroke-opacity:1"
               id="path626"
               sodipodi:nodetypes="cc" />
          </g>
        </g>
        <g
           id="g628"
           transform="matrix(1,0,0,-1,0,792)">
          <g
             id="g630">
            <path
               d="m 262.38681,730.60962 c 51.9603,1.92522 103.95612,2.75114 155.94965,2.99794"
               style="fill:none;stroke:#000000;stroke-width:2.61538;stroke-linecap:round;stroke-linejoin:round;stroke-miterlimit:10;stroke-dasharray:none;stroke-opacity:1"
               id="path632" />
          </g>
        </g>
        <g
           id="g634"
           transform="matrix(1,0,0,-1,0,792)">
          <g
             id="g636">
            <path
               d="m 418.33646,733.60756 c 0.9998,0.0236 6.40749,-0.68472 7.39999,-0.69972"
               style="fill:none;stroke:#000000;stroke-width:2.61538;stroke-linecap:round;stroke-linejoin:round;stroke-miterlimit:10;stroke-dasharray:none;stroke-opacity:1"
               id="path638"
               sodipodi:nodetypes="cc" />
          </g>
        </g>
        <g
           id="g640"
           transform="matrix(1,0,0,-1,0,792)">
          <g
             id="g642">
            <path
               d="m 425.73645,732.90784 c 6.90986,-7.33946 13.64756,-18.63272 18.74316,-27.23035"
               style="fill:none;stroke:#000000;stroke-width:2.61538;stroke-linecap:round;stroke-linejoin:round;stroke-miterlimit:10;stroke-dasharray:none;stroke-opacity:1"
               id="path644"
               sodipodi:nodetypes="cc" />
          </g>
        </g>
        <g
           id="g646"
           transform="matrix(1,0,0,-1,0,792)">
          <g
             id="g648">
            <path
               d="m 203.87613,731.3092 c -5.39785,-8.5733 -14.45575,-17.8688 -18.70571,-27.15622"
               style="fill:none;stroke:#000000;stroke-width:2.61538;stroke-linecap:round;stroke-linejoin:round;stroke-miterlimit:10;stroke-dasharray:none;stroke-opacity:1"
               id="path650"
               sodipodi:nodetypes="cc" />
          </g>
        </g>
        <g
           id="g652"
           transform="matrix(1,0,0,-1,0,792)">
          <g
             id="g654">
            <path
               d="m 185.17042,704.15298 c 0.60958,-17.15999 -6.0207,-37.67497 -5.84066,-54.80746"
               style="fill:none;stroke:#000000;stroke-width:2.61538;stroke-linecap:round;stroke-linejoin:round;stroke-miterlimit:10;stroke-dasharray:none;stroke-opacity:1"
               id="path656"
               sodipodi:nodetypes="cc" />
          </g>
        </g>
        <g
           id="g658"
           transform="matrix(1,0,0,-1,0,792)">
          <g
             id="g660">
            <path
               d="m 179.32976,649.34552 c 22.73519,-3.74935 14.99961,-30.65258 -2.88562,-31.98276 -0.6664,-0.20203 -2.94064,-8.28641 -2.14386,-4.165"
               style="fill:none;stroke:#000000;stroke-width:2.61538;stroke-linecap:round;stroke-linejoin:round;stroke-miterlimit:10;stroke-dasharray:none;stroke-opacity:1"
               id="path662" />
          </g>
        </g>
        <g
           id="g664"
           transform="matrix(1,0,0,-1,0,792)">
          <g
             id="g666">
            <path
               d="m 179.32976,649.34552 c -0.0197,-4.97998 1.39763,-13.17394 2.21212,-18.07202"
               style="fill:none;stroke:#000000;stroke-width:2.61538;stroke-linecap:round;stroke-linejoin:round;stroke-miterlimit:10;stroke-dasharray:none;stroke-opacity:1"
               id="path668"
               sodipodi:nodetypes="cc" />
          </g>
        </g>
        <g
           id="g670"
           transform="matrix(1,0,0,-1,0,792)">
          <g
             id="g672">
            <path
               d="m 181.1691,631.91443 c 2.31759,-1.48321 7.5636,-3.64643 9.86903,-5.14848"
               style="fill:none;stroke:#000000;stroke-width:2.61538;stroke-linecap:round;stroke-linejoin:round;stroke-miterlimit:10;stroke-dasharray:none;stroke-opacity:1"
               id="path674"
               sodipodi:nodetypes="cc" />
          </g>
        </g>
        <g
           id="g676"
           transform="matrix(1,0,0,-1,0,792)">
          <g
             id="g678">
            <path
               d="m 180.85399,630.77368 c -1.44651,-2.52244 -2.74867,-10.9435 -4.40985,-13.41092"
               style="fill:none;stroke:#000000;stroke-width:2.61538;stroke-linecap:round;stroke-linejoin:round;stroke-miterlimit:10;stroke-dasharray:none;stroke-opacity:1"
               id="path680"
               sodipodi:nodetypes="cc" />
          </g>
        </g>
        <g
           id="g682"
           transform="matrix(1,0,0,-1,0,792)">
          <g
             id="g684">
            <path
               d="m 174.30028,613.19776 c -5.75913,-41.04453 -7.4275,-83.30091 -16.90322,-123.78585 0,0 -11.82654,-42.65827 -1.96438,-61.29091 v 0"
               style="fill:none;stroke:#000000;stroke-width:2.61538;stroke-linecap:round;stroke-linejoin:round;stroke-miterlimit:10;stroke-dasharray:none;stroke-opacity:1"
               id="path686"
               sodipodi:nodetypes="cccc" />
          </g>
        </g>
        <g
           id="g688"
           transform="matrix(1,0,0,-1,0,792)">
          <g
             id="g690">
            <path
               d="m 155.43268,428.121 c 4.50675,-8.10677 4.1284,-18.95953 11.87803,-25.13955"
               style="fill:none;stroke:#000000;stroke-width:2.61538;stroke-linecap:round;stroke-linejoin:round;stroke-miterlimit:10;stroke-dasharray:none;stroke-opacity:1"
               id="path692" />
          </g>
        </g>
        <g
           id="g694"
           transform="matrix(1,0,0,-1,0,792)">
          <g
             id="g696">
            <path
               d="m 167.66684,402.58762 297.79605,3.99502 c 1.69781,0.93533 3.1696,2.04768 4.33204,3.61412"
               style="fill:none;stroke:#000000;stroke-width:2.61538;stroke-linecap:round;stroke-linejoin:round;stroke-miterlimit:10;stroke-dasharray:none;stroke-opacity:1"
               id="path698"
               sodipodi:nodetypes="ccc" />
          </g>
        </g>
        <g
           id="g700"
           transform="matrix(1,0,0,-1,0,792)">
          <g
             id="g702">
            <path
               d="m 153.92801,434.23358 c 32.215,-18.68236 310.07539,-5.11317 310.07539,-5.11317 5.36487,2.25816 8.50102,2.53774 10.64726,8.48524"
               style="fill:none;stroke:#000000;stroke-width:2.61538;stroke-linecap:round;stroke-linejoin:round;stroke-miterlimit:10;stroke-dasharray:none;stroke-opacity:1"
               id="path704"
               sodipodi:nodetypes="ccc" />
          </g>
        </g>
        <g
           id="g706"
           transform="matrix(1,0,0,-1,0,792)">
          <g
             id="g708">
            <path
               d="m 469.03268,408.86746 c 6.2074,8.70928 5.26599,18.37781 5.61798,28.73819"
               style="fill:none;stroke:#000000;stroke-width:2.61538;stroke-linecap:round;stroke-linejoin:round;stroke-miterlimit:10;stroke-dasharray:none;stroke-opacity:1"
               id="path710"
               sodipodi:nodetypes="cc" />
          </g>
        </g>
        <g
           id="g712"
           transform="matrix(1,0,0,-1,0,792)">
          <g
             id="g714">
            <path
               d="m 444.47961,705.67749 c 7.2351,-47.82178 7.9754,-96.32514 14.12463,-144.28423 3.89755,-38.27713 5.77767,-77.00424 15.14315,-114.44761 0.49083,-3.09068 0.82252,-6.21049 0.90327,-9.34"
               style="fill:none;stroke:#000000;stroke-width:2.61538;stroke-linecap:round;stroke-linejoin:round;stroke-miterlimit:10;stroke-dasharray:none;stroke-opacity:1"
               id="path716" />
          </g>
        </g>
        <g
           id="g718"
           transform="matrix(1,0,0,-1,0,792)">
          <g
             id="g720">
            <path
               d="m 449.2702,462.54 c -14.92323,-0.68288 15.61378,-33.66384 14.07295,-4.29914 -2.34129,4.89793 -9.39563,6.86622 -14.07295,4.29914"
               style="fill:none;stroke:#000000;stroke-width:2.61538;stroke-linecap:round;stroke-linejoin:round;stroke-miterlimit:10;stroke-dasharray:none;stroke-opacity:1"
               id="path722"
               sodipodi:nodetypes="ccc" />
          </g>
        </g>
        <g
           id="g724"
           transform="matrix(1,0,0,-1,0,792)">
          <g
             id="g726">
            <path
               d="m 412.82578,720.8056 c -8.55943,-14.5731 17.55057,-1.4461 1.42488,-0.14048 l -1.8406,0.0905"
               style="fill:none;stroke:#000000;stroke-width:2.61538;stroke-linecap:round;stroke-linejoin:round;stroke-miterlimit:10;stroke-dasharray:none;stroke-opacity:1"
               id="path728"
               sodipodi:nodetypes="ccc" />
          </g>
        </g>
        <g
           id="g730"
           transform="matrix(1,0,0,-1,0,792)">
          <g
             id="g732">
            <path
               d="m 313.28586,699.74926 c -14.20868,-10.48095 5.60659,-11.60481 10.26761,-2.07632 -1.44994,3.61154 -7.24101,1.793 -10.26761,2.07632"
               style="fill:none;stroke:#000000;stroke-width:2.61538;stroke-linecap:round;stroke-linejoin:round;stroke-miterlimit:10;stroke-dasharray:none;stroke-opacity:1"
               id="path734"
               sodipodi:nodetypes="ccc" />
          </g>
        </g>
        <g
           id="g736"
           transform="matrix(1,0,0,-1,0,792)">
          <g
             id="g738">
            <path
               d="m 206.4243,686.46985 c 21.32887,-1.54552 42.64511,1.66084 63.97871,0.94652"
               style="fill:none;stroke:#000000;stroke-width:2.61538;stroke-linecap:round;stroke-linejoin:round;stroke-miterlimit:10;stroke-dasharray:none;stroke-opacity:1"
               id="path740" />
          </g>
        </g>
        <g
           id="g742"
           transform="matrix(1,0,0,-1,0,792)">
          <g
             id="g744">
            <path
               d="m 206.70741,685.7301 c 6.69965,-16.71478 28.44318,-15.27183 43.11938,-12.90976 8.59927,2.20318 23.43364,2.0154 21.54176,14.8469"
               style="fill:none;stroke:#000000;stroke-width:2.61538;stroke-linecap:round;stroke-linejoin:round;stroke-miterlimit:10;stroke-dasharray:none;stroke-opacity:1"
               id="path746" />
          </g>
        </g>
        <g
           id="g748"
           transform="matrix(1,0,0,-1,0,792)">
          <g
             id="g750">
            <path
               d="m 181.5372,631.75806 c 0.82041,-2.55977 4.56641,-10.15677 4.56641,-10.15677"
               style="fill:none;stroke:#000000;stroke-width:2.61538;stroke-linecap:round;stroke-linejoin:round;stroke-miterlimit:10;stroke-dasharray:none;stroke-opacity:1"
               id="path752"
               sodipodi:nodetypes="cc" />
          </g>
        </g>
        <g
           id="g754"
           transform="matrix(1,0,0,-1,0,792)">
          <g
             id="g756">
            <path
               d="m 210.18991,651.18958 c 55.08374,-1.74831 110.19414,-1.21115 165.28224,-0.38872 15.71024,-0.1014 31.43916,-0.61704 47.13698,0.25365"
               style="fill:none;stroke:#000000;stroke-width:2.61538;stroke-linecap:round;stroke-linejoin:round;stroke-miterlimit:10;stroke-dasharray:none;stroke-opacity:1"
               id="path758" />
          </g>
        </g>
        <g
           id="g760"
           transform="matrix(1,0,0,-1,0,792)">
          <g
             id="g762">
            <path
               d="m 210.18991,651.18958 c -7.86339,-52.34777 -8.08203,-108.84459 -16.2875,-161.10009 0,0 -10.86445,-41.66943 -4.8573,-62.8094"
               style="fill:none;stroke:#000000;stroke-width:2.61538;stroke-linecap:round;stroke-linejoin:round;stroke-miterlimit:10;stroke-dasharray:none;stroke-opacity:1"
               id="path764"
               sodipodi:nodetypes="ccc" />
          </g>
        </g>
        <g
           id="g766"
           transform="matrix(1,0,0,-1,0,792)">
          <g
             id="g768">
            <path
               d="m 422.60913,651.05451 c 2.56592,-59.75998 8.98634,-122.43575 15.97777,-181.8112 1.29966,-14.5947 2.45076,-29.82161 2.0101,-40.877"
               style="fill:none;stroke:#000000;stroke-width:2.61538;stroke-linecap:round;stroke-linejoin:round;stroke-miterlimit:10;stroke-dasharray:none;stroke-opacity:1"
               id="path770"
               sodipodi:nodetypes="ccc" />
          </g>
        </g>
        <g
           id="g772"
           transform="matrix(1,0,0,-1,0,792)">
          <g
             id="g774">
            <path
               d="m 166.23399,431.1676 c 5.73682,0.5013 11.50296,0.21818 17.24855,0.51513"
               style="fill:none;stroke:#000000;stroke-width:1.30769;stroke-linecap:round;stroke-linejoin:round;stroke-miterlimit:10;stroke-dasharray:none;stroke-opacity:1"
               id="path776" />
          </g>
        </g>
        <g
           id="g778"
           transform="matrix(1,0,0,-1,0,792)">
          <g
             id="g780">
            <path
               d="m 195.36909,431.72952 c 84.38264,4.49701 165.93026,1.50353 244.57406,4.85149"
               style="fill:none;stroke:#000000;stroke-width:1.30769;stroke-linecap:round;stroke-linejoin:round;stroke-miterlimit:10;stroke-dasharray:none;stroke-opacity:1"
               id="path782"
               sodipodi:nodetypes="cc" />
          </g>
        </g>
        <g
           id="g784"
           transform="matrix(1,0,0,-1,0,792)">
          <g
             id="g786">
            <path
               d="m 209.73688,725.40094 c -0.43499,-7.05371 -2.45501,-13.93048 -2.54094,-21.01453"
               style="fill:none;stroke:#000000;stroke-width:1.30769;stroke-linecap:round;stroke-linejoin:round;stroke-miterlimit:10;stroke-dasharray:none;stroke-opacity:1"
               id="path788" />
          </g>
        </g>
        <g
           id="g790"
           transform="matrix(1,0,0,-1,0,792)">
          <g
             id="g792">
            <path
               d="m 203.13121,720.6347 c -0.82291,-5.64938 -1.30485,-11.34238 -2.13955,-16.99014"
               style="fill:none;stroke:#000000;stroke-width:1.30769;stroke-linecap:round;stroke-linejoin:round;stroke-miterlimit:10;stroke-dasharray:none;stroke-opacity:1"
               id="path794" />
          </g>
        </g>
        <g
           id="g796"
           transform="matrix(1,0,0,-1,0,792)">
          <g
             id="g798">
            <path
               d="m 195.59872,700.7605 c -1.48524,-19.43267 -3.76771,-38.83399 -3.90906,-58.3443"
               style="fill:none;stroke:#000000;stroke-width:1.30769;stroke-linecap:round;stroke-linejoin:round;stroke-miterlimit:10;stroke-dasharray:none;stroke-opacity:1"
               id="path800" />
          </g>
        </g>
        <g
           id="g802"
           transform="matrix(1,0,0,-1,0,792)">
          <g
             id="g804">
            <path
               d="m 191.20203,703.10382 -2.56828,0.18023"
               style="fill:none;stroke:#000000;stroke-width:1.30769;stroke-linecap:round;stroke-linejoin:round;stroke-miterlimit:10;stroke-dasharray:none;stroke-opacity:1"
               id="path806" />
          </g>
        </g>
        <g
           id="g808"
           transform="matrix(1,0,0,-1,0,792)">
          <g
             id="g810">
            <path
               d="m 186.10361,621.60129 c -3.239,-38.94546 -8.83803,-79.44054 -10.83225,-118.45167 -2.4418,-12.00027 -1.89812,-24.37027 -4.13677,-36.39631"
               style="fill:none;stroke:#000000;stroke-width:1.30769;stroke-linecap:round;stroke-linejoin:round;stroke-miterlimit:10;stroke-dasharray:none;stroke-opacity:1"
               id="path812"
               sodipodi:nodetypes="ccc" />
          </g>
        </g>
        <g
           id="g814"
           transform="matrix(1,0,0,-1,0,792)">
          <g
             id="g816">
            <path
               d="m 168.28676,439.89014 c -0.65397,-1.62237 -1.30795,-3.24474 -1.96192,-4.86711"
               style="fill:none;stroke:#000000;stroke-width:1.30769;stroke-linecap:round;stroke-linejoin:round;stroke-miterlimit:10;stroke-dasharray:none;stroke-opacity:1"
               id="path818" />
          </g>
        </g>
        <g
           id="g820"
           transform="matrix(1,0,0,-1,0,792)">
          <g
             id="g822">
            <path
               d="m 260.75897,724.7962 c 41.37997,0.59047 82.91408,1.11691 124.20784,-0.57975 3.99231,-1.16712 8.3814,-5.32061 6.36554,-9.83997"
               style="fill:none;stroke:#000000;stroke-width:1.30769;stroke-linecap:round;stroke-linejoin:round;stroke-miterlimit:10;stroke-dasharray:none;stroke-opacity:1"
               id="path824" />
          </g>
        </g>
        <g
           id="g826"
           transform="matrix(1,0,0,-1,0,792)">
          <g
             id="g828">
            <path
               d="m 426.37299,725.71735 c 1.25061,-5.38992 3.00476,-11.05399 1.62797,-16.59738"
               style="fill:none;stroke:#000000;stroke-width:1.30769;stroke-linecap:round;stroke-linejoin:round;stroke-miterlimit:10;stroke-dasharray:none;stroke-opacity:1"
               id="path830" />
          </g>
        </g>
        <g
           id="g832"
           transform="matrix(1,0,0,-1,0,792)">
          <g
             id="g834">
            <path
               d="m 431.68219,709.27838 c 1.77652,0.0661 3.55304,0.13216 5.32956,0.19824"
               style="fill:none;stroke:#000000;stroke-width:1.30769;stroke-linecap:round;stroke-linejoin:round;stroke-miterlimit:10;stroke-dasharray:none;stroke-opacity:1"
               id="path836" />
          </g>
        </g>
      </g>
    </g>
  </g>
</svg>
