<?xml version="1.0" encoding="UTF-8" standalone="no"?>
<!-- Created by Ashley Blewer - This work is licensed under a Creative Commons Attribution 4.0 International License -->

<svg
   width="544"
   height="480"
   viewBox="0 0 143.93334 127"
   version="1.1"
   id="svg2490"
   inkscape:version="1.2.2 (1:1.2.2+202212051552+b0a8486541)"
   sodipodi:docname="1963-compact-cassette-1.svg"
   xmlns:inkscape="http://www.inkscape.org/namespaces/inkscape"
   xmlns:sodipodi="http://sodipodi.sourceforge.net/DTD/sodipodi-0.dtd"
   xmlns="http://www.w3.org/2000/svg"
   xmlns:svg="http://www.w3.org/2000/svg">
  <sodipodi:namedview
     id="namedview2492"
     pagecolor="#ffffff"
     bordercolor="#666666"
     borderopacity="1.0"
     inkscape:pageshadow="2"
     inkscape:pageopacity="0.0"
     inkscape:pagecheckerboard="0"
     inkscape:document-units="mm"
     showgrid="false"
     units="px"
     inkscape:zoom="0.90583674"
     inkscape:cx="53.541657"
     inkscape:cy="253.35691"
     inkscape:window-width="1846"
     inkscape:window-height="1136"
     inkscape:window-x="0"
     inkscape:window-y="0"
     inkscape:window-maximized="1"
     inkscape:current-layer="g4731"
     inkscape:showpageshadow="2"
     inkscape:deskcolor="#d1d1d1" />
  <defs
     id="defs2487" />
  <g
     inkscape:label="Layer 1"
     inkscape:groupmode="layer"
     id="layer1">
    <g
       id="g4731"
       transform="matrix(0.32961229,0,0,0.32903008,-241.78905,1.73126)"
       style="stroke-width:2.68698">
      <g
         id="g104528"
         transform="matrix(1,0,0,-1,0,792)"
         style="stroke-width:2.68698">
        <g
           id="g104530"
           style="stroke-width:2.68698" />
      </g>
      <g
         id="g104996"
         transform="matrix(1,0,0,-1,0,792)"
         style="stroke-width:2.68698">
        <g
           id="g104998"
           style="stroke-width:2.68698" />
      </g>
      <g
         id="g5873"
         transform="matrix(0.98297086,0,0,0.98471018,7.5815076,-51.529744)">
        <g
           id="g4912"
           transform="matrix(1,0,0,-1,0,792)">
          <g
             id="g4914">
            <path
               d="m 805.87939,509.49014 c -6.91453,3.37279 -7.36307,13.29686 -10.53291,19.55842 0,0 0.0824,-0.36774 0,0"
               style="fill:none;stroke:#000000;stroke-width:2.61538;stroke-linecap:round;stroke-linejoin:round;stroke-miterlimit:10;stroke-dasharray:none;stroke-opacity:1"
               id="path4916"
               sodipodi:nodetypes="ccc" />
          </g>
        </g>
        <g
           id="g4918"
           transform="matrix(1,0,0,-1,0,792)">
          <g
             id="g4920">
            <path
               d="m 794.6496,529.55273 c -0.57151,58.59626 -3.52569,117.17784 -5.52241,175.73219"
               style="fill:none;stroke:#000000;stroke-width:2.61538;stroke-linecap:round;stroke-linejoin:round;stroke-miterlimit:10;stroke-dasharray:none;stroke-opacity:1"
               id="path4922"
               sodipodi:nodetypes="cc" />
          </g>
        </g>
        <g
           id="g4924"
           transform="matrix(1,0,0,-1,0,792)">
          <g
             id="g4926">
            <path
               d="m 790.43488,708.44904 c -1.62813,-3.224 -1.21933,-5.06765 -0.15046,-6.97188 0.46162,-2.071 2.61716,-4.11252 4.59094,-4.83565 0.8836,-0.45304 1.77563,-0.90746 2.56238,-1.51974"
               style="fill:none;stroke:#000000;stroke-width:2.61538;stroke-linecap:round;stroke-linejoin:round;stroke-miterlimit:10;stroke-dasharray:none;stroke-opacity:1"
               id="path4928"
               sodipodi:nodetypes="cccc" />
          </g>
        </g>
        <g
           id="g4930"
           transform="matrix(1,0,0,-1,0,792)">
          <g
             id="g4932">
            <path
               d="m 797.43774,695.12177 c 5.06281,-59.74147 6.76964,-137.8185 9.66083,-185.0831"
               style="fill:none;stroke:#000000;stroke-width:2.61538;stroke-linecap:round;stroke-linejoin:round;stroke-miterlimit:10;stroke-dasharray:none;stroke-opacity:1"
               id="path4934"
               sodipodi:nodetypes="cc" />
          </g>
        </g>
        <g
           id="g4936"
           transform="matrix(1,0,0,-1,0,792)">
          <g
             id="g4938" />
        </g>
        <g
           id="g4942"
           transform="matrix(1,0,0,-1,0,792)">
          <g
             id="g4944">
            <path
               d="m 790.43488,708.44904 c 121.94561,10.26073 303.99142,15.09191 303.99142,15.09191"
               style="fill:none;stroke:#000000;stroke-width:2.61538;stroke-linecap:round;stroke-linejoin:round;stroke-miterlimit:10;stroke-dasharray:none;stroke-opacity:1"
               id="path4946"
               sodipodi:nodetypes="cc" />
          </g>
        </g>
        <g
           id="g4948"
           transform="matrix(1,0,0,-1,0,792)">
          <g
             id="g4950">
            <path
               d="m 797.43774,695.12177 c 76.8182,10.69898 154.56513,11.97395 231.77746,18.44968 23.881,1.06707 47.7838,1.62099 71.6878,1.76426"
               style="fill:none;stroke:#000000;stroke-width:2.61538;stroke-linecap:round;stroke-linejoin:round;stroke-miterlimit:10;stroke-dasharray:none;stroke-opacity:1"
               id="path4952" />
          </g>
        </g>
        <g
           id="g4954"
           transform="matrix(1,0,0,-1,0,792)">
          <g
             id="g4956">
            <path
               d="m 1094.4263,723.54095 c 11.9062,-4.64515 12.4158,-18.8933 11.4184,-29.65276 l -21.488,-144.68183"
               style="fill:none;stroke:#000000;stroke-width:2.61538;stroke-linecap:round;stroke-linejoin:round;stroke-miterlimit:10;stroke-dasharray:none;stroke-opacity:1"
               id="path4958"
               sodipodi:nodetypes="ccc" />
          </g>
        </g>
        <g
           id="g4960"
           transform="matrix(1,0,0,-1,0,792)">
          <g
             id="g4962">
            <path
               d="m 805.87939,509.49014 c 13.48919,1.39202 26.9078,3.39112 40.28418,5.60403"
               style="fill:none;stroke:#000000;stroke-width:2.61538;stroke-linecap:round;stroke-linejoin:round;stroke-miterlimit:10;stroke-dasharray:none;stroke-opacity:1"
               id="path4964" />
          </g>
        </g>
        <g
           id="g4966"
           transform="matrix(1,0,0,-1,0,792)">
          <g
             id="g4968">
            <path
               d="m 847.77063,515.98846 -0.0179,-0.34729 0.44445,0.0162 1.23755,-0.60748 2.96717,-1.85114 0.58007,-0.25433 0.16272,0.21246"
               style="fill:none;stroke:#000000;stroke-width:2.61538;stroke-linecap:round;stroke-linejoin:round;stroke-miterlimit:10;stroke-dasharray:none;stroke-opacity:1"
               id="path4970" />
          </g>
        </g>
        <g
           id="g4972"
           transform="matrix(1,0,0,-1,0,792)">
          <g
             id="g4974">
            <path
               d="m 853.81744,513.03107 c 63.51027,9.24108 126.83515,20.13742 190.79826,25.87775"
               style="fill:none;stroke:#000000;stroke-width:2.61538;stroke-linecap:round;stroke-linejoin:round;stroke-miterlimit:10;stroke-dasharray:none;stroke-opacity:1"
               id="path4976" />
          </g>
        </g>
        <g
           id="g4978"
           transform="matrix(1,0,0,-1,0,792)">
          <g
             id="g4980">
            <path
               d="m 1044.6157,538.90882 c 0.319,0.83538 2.1995,3.07909 2.7093,3.78585 0.2257,0.34321 0.2896,0.81061 0.049,1.16489"
               style="fill:none;stroke:#000000;stroke-width:2.61538;stroke-linecap:round;stroke-linejoin:round;stroke-miterlimit:10;stroke-dasharray:none;stroke-opacity:1"
               id="path4982"
               sodipodi:nodetypes="ccc" />
          </g>
        </g>
        <g
           id="g4984"
           transform="matrix(1,0,0,-1,0,792)">
          <g
             id="g4986">
            <path
               d="m 1048.5989,542.3739 c 11.8262,2.04319 23.8077,3.26111 35.4779,6.14411"
               style="fill:none;stroke:#000000;stroke-width:2.61538;stroke-linecap:round;stroke-linejoin:round;stroke-miterlimit:10;stroke-dasharray:none;stroke-opacity:1"
               id="path4988" />
          </g>
        </g>
        <g
           id="g4990"
           transform="matrix(1,0,0,-1,0,792)">
          <g
             id="g4992">
            <path
               d="m 847.29675,515.91925 c 1.29143,6.91113 3.1865,13.70364 5.1086,20.46029 1.56697,3.76627 2.05363,7.92264 3.64461,11.69472 0.71101,3.02918 1.63912,5.99212 2.49987,8.97329"
               style="fill:none;stroke:#000000;stroke-width:2.61538;stroke-linecap:round;stroke-linejoin:round;stroke-miterlimit:10;stroke-dasharray:none;stroke-opacity:1"
               id="path4994" />
          </g>
        </g>
        <g
           id="g4996"
           transform="matrix(1,0,0,-1,0,792)">
          <g
             id="g4998">
            <path
               d="m 1047.7876,544.56079 c -2.1281,8.69299 -3.3733,17.54679 -4.6063,26.39611 -0.5803,2.5589 -0.7842,5.64422 -2.4037,7.75535"
               style="fill:none;stroke:#000000;stroke-width:2.61538;stroke-linecap:round;stroke-linejoin:round;stroke-miterlimit:10;stroke-dasharray:none;stroke-opacity:1"
               id="path5000"
               sodipodi:nodetypes="cccccccc" />
          </g>
        </g>
        <g
           id="g5002"
           transform="matrix(1,0,0,-1,0,792)">
          <g
             id="g5004">
            <path
               d="m 858.54983,557.04755 c 61.10146,4.13441 120.94899,19.40209 182.22777,21.66474"
               style="fill:none;stroke:#000000;stroke-width:2.61538;stroke-linecap:round;stroke-linejoin:round;stroke-miterlimit:10;stroke-dasharray:none;stroke-opacity:1"
               id="path5006"
               sodipodi:nodetypes="cccc" />
          </g>
        </g>
        <g
           id="g5008"
           transform="matrix(1,0,0,-1,0,792)">
          <g
             id="g5010">
            <path
               d="m 878.05653,530.82737 c -3.03878,0.19278 -2.17958,-5.14667 -1.16792,-7.34141 2.17888,-2.97519 7.05781,-2.74955 9.66846,-0.46133 2.35409,1.49711 3.049,4.89925 0.44613,6.5345 -2.5198,1.63013 -6.04451,2.09506 -8.94667,1.26824 -0.43039,0.0185 0.027,0.3383 0,0"
               style="fill:none;stroke:#000000;stroke-width:2.61538;stroke-linecap:round;stroke-linejoin:round;stroke-miterlimit:10;stroke-dasharray:none;stroke-opacity:1"
               id="path5012"
               sodipodi:nodetypes="cccccc" />
          </g>
        </g>
        <g
           id="g5014"
           transform="matrix(1,0,0,-1,0,792)">
          <g
             id="g5016">
            <path
               d="m 908.64638,536.52569 c -2.72514,0.50499 -3.77586,-2.82686 -1.70621,-5.1528 2.36193,-2.98064 6.63849,-1.70991 9.41511,-0.0733 3.36412,1.31103 2.03231,5.65976 -1.17818,5.97362 -2.2222,0.83214 -6.53072,-0.74752 -6.53072,-0.74752 -0.48548,-0.16096 0.49853,0.11509 0,0"
               style="fill:none;stroke:#000000;stroke-width:2.61538;stroke-linecap:round;stroke-linejoin:round;stroke-miterlimit:10;stroke-dasharray:none;stroke-opacity:1"
               id="path5018"
               sodipodi:nodetypes="cccccc" />
          </g>
        </g>
        <g
           id="g5020"
           transform="matrix(1,0,0,-1,0,792)">
          <g
             id="g5022">
            <path
               d="m 992.9812,547.76331 c -4.14352,1.25055 -4.60019,-6.1407 -0.67744,-6.49391 2.90304,-0.91375 9.44704,1.89153 6.25293,5.32499 -2.05132,1.30435 -5.13311,1.54657 -7.47268,1.08937"
               style="fill:none;stroke:#000000;stroke-width:2.61538;stroke-linecap:round;stroke-linejoin:round;stroke-miterlimit:10;stroke-dasharray:none;stroke-opacity:1"
               id="path5024" />
          </g>
        </g>
        <g
           id="g5026"
           transform="matrix(1,0,0,-1,0,792)">
          <g
             id="g5028">
            <path
               d="m 1021.252,552.65423 c -3.5437,0.62799 -5.046,-3.76974 -5.5884,-6.50849 0.3857,-3.78211 5.1309,-3.55451 7.8812,-2.86922 3.2472,0.31292 8.0559,3.74191 4.7631,7.07583 -2.9614,3.44419 -3.5762,0.75508 -7.0559,2.30188"
               style="fill:none;stroke:#000000;stroke-width:2.61538;stroke-linecap:round;stroke-linejoin:round;stroke-miterlimit:10;stroke-dasharray:none;stroke-opacity:1"
               id="path5030"
               sodipodi:nodetypes="ccccc" />
          </g>
        </g>
        <g
           id="g5032"
           transform="matrix(1,0,0,-1,0,792)">
          <g
             id="g5034">
            <path
               d="m 876.12256,627.3136 c 1.60966,-1.8972 5.04378,-0.84111 5.88377,1.28039 -0.1477,1.25518 -0.41573,3.13145 1.5176,2.48614 2.05871,0.20176 5.33248,2.72631 6.03016,-0.42293 1.54292,-1.27041 3.8071,-0.0173 5.47997,0.57593 0.9436,0.29891 0.37183,-2.56043 1.78154,-3.0678 0.66412,-1.26802 4.40459,-1.21975 3.57895,-2.67752 -2.08888,-1.02887 -1.99113,-4.07081 -1.12103,-5.87755 1.60331,-1.24112 1.38175,-2.85067 -0.25993,-3.84369 -0.63439,-2.19539 -2.67802,-2.05049 -4.48173,-2.32847 -2.32033,-0.65024 -2.51898,-3.3602 -3.03719,-5.31324 -0.0559,-1.90905 -1.95889,1.33227 -3.40571,0.28078 -1.2692,-0.18273 -3.80244,-2.98259 -3.70687,-0.16253 -1.39116,2.4715 -4.85578,1.81725 -6.6318,0.82903 -1.09735,1.40365 -2.65615,2.43289 -3.62032,3.88258 -1.0211,1.9848 2.16957,3.0143 1.07604,4.8761 -0.8903,1.72425 -4.2017,1.41968 -2.87677,4.04803 0.39402,1.52412 2.93544,4.1836 3.79332,5.43475"
               style="fill:none;stroke:#000000;stroke-width:2.61538;stroke-linecap:round;stroke-linejoin:round;stroke-miterlimit:10;stroke-dasharray:none;stroke-opacity:1"
               id="path5036"
               sodipodi:nodetypes="cccccccccccccccccc" />
          </g>
        </g>
        <g
           id="g5038"
           transform="matrix(1,0,0,-1,0,792)">
          <g
             id="g5040">
            <path
               d="m 1014.6323,644.3913 c 0.1099,-2.00678 2.5001,-0.9761 3.7313,-0.974 0.9699,-0.13764 3.3379,0.95556 2.3691,-0.71238 -0.6477,-1.46461 0.4189,-2.95757 2.0363,-2.77339 0.9688,-0.13564 2.2376,0.45514 2.9442,0.51851 -0.9126,-1.3892 0.3472,-2.64071 1.1383,-3.63073 0.6357,-1.08622 0.7028,-2.6007 -0.3652,-3.45461 -0.9504,-0.76097 -2.3944,-1.29324 -2.7974,-2.55813 -0.8175,-0.61211 1.2403,-1.27338 0.9281,-2.14461 0.8214,-1.3344 -0.4106,-2.70271 -1.163,-3.72249 -1.1072,-0.40012 -2.1468,-2.41726 -3.2807,-1.59745 -1.094,1.35841 -2.9422,1.69358 -4.4112,0.84364 -0.791,-1.09101 -1.1123,-2.47097 -1.6546,-3.7049 -1.3724,-0.92489 -3.1394,-0.42064 -4.5739,0.0626 -0.8125,-0.10536 -1.8024,0.0592 -1.0718,1.04234 0.048,1.71079 -1.7567,3.39934 -3.4711,2.82825 -1.0187,-0.37415 -1.5895,0.29397 -1.0825,1.22919 -0.1935,1.32957 -0.069,2.72563 -0.7375,3.93896 -0.7006,1.10597 -1.057,2.32847 0.3604,2.99156 1.2637,1.06498 -0.3147,2.7524 0.6829,3.98613 0.8354,1.03336 2.0547,1.69622 2.9011,2.75394 1.1993,0.82257 1.8014,2.27332 3.1119,2.96844 1.2981,0.37496 1.5792,2.16422 2.7803,2.32278 0.4095,-0.0319 1.583,0.0839 1.625,-0.21372"
               style="fill:none;stroke:#000000;stroke-width:2.61538;stroke-linecap:round;stroke-linejoin:round;stroke-miterlimit:10;stroke-dasharray:none;stroke-opacity:1"
               id="path5042"
               sodipodi:nodetypes="cccccccccccccccccccccccccccccc" />
          </g>
        </g>
        <g
           id="g5044"
           transform="matrix(1,0,0,-1,0,792)">
          <g
             id="g5046">
            <path
               d="m 875.56702,633.71887 c 8.91531,6.82351 23.78489,5.26984 29.41317,-5.07164 4.30452,-6.60692 3.9263,-16.25611 -2.36204,-21.52543 -5.1937,-6.72838 -13.56655,-11.07148 -22.16116,-9.59248 -8.74247,1.01215 -13.23819,9.93956 -13.31988,17.9328 -0.46749,6.81116 4.06403,13.56847 8.42991,18.25675"
               style="fill:none;stroke:#000000;stroke-width:2.61538;stroke-linecap:round;stroke-linejoin:round;stroke-miterlimit:10;stroke-dasharray:none;stroke-opacity:1"
               id="path5048"
               sodipodi:nodetypes="cccccc" />
          </g>
        </g>
        <g
           id="g5050"
           transform="matrix(1,0,0,-1,0,792)">
          <g
             id="g5052">
            <path
               d="m 1021.3151,651.0387 c 8.3024,0.61109 17.3411,-5.50905 17.6951,-14.26313 1.2005,-5.52413 -0.1049,-11.76595 -4.428,-15.66436 -3.8812,-3.56502 -8.1471,-7.27452 -13.6361,-7.78707 -4.0379,-0.83009 -8.3971,-1.53618 -12.1342,0.76758 -3.9682,1.81354 -7.5103,4.77493 -9.06437,8.95338 -2.88691,4.10142 -2.33681,9.56259 -0.10805,13.81627 1.66192,5.59148 7.30002,8.24525 11.78972,11.23896 3.8445,1.84031 8.1138,3.35668 12.4364,2.93734"
               style="fill:none;stroke:#000000;stroke-width:2.61538;stroke-linecap:round;stroke-linejoin:round;stroke-miterlimit:10;stroke-dasharray:none;stroke-opacity:1"
               id="path5054"
               sodipodi:nodetypes="ccccccccc" />
          </g>
        </g>
        <g
           id="g5056"
           transform="matrix(1,0,0,-1,0,792)">
          <g
             id="g5058">
            <path
               d="m 923.19065,635.47669 c 6.84111,1.19307 16.38721,2.11501 23.26725,3.09634 8.95969,0.89083 17.97207,1.08575 26.94324,1.69725 3.83281,0.28777 7.71565,0.003 11.49351,-0.0829"
               style="fill:none;stroke:#000000;stroke-width:2.61538;stroke-linecap:round;stroke-linejoin:round;stroke-miterlimit:10;stroke-dasharray:none;stroke-opacity:1"
               id="path5060"
               sodipodi:nodetypes="cccc" />
          </g>
        </g>
        <g
           id="g5062"
           transform="matrix(1,0,0,-1,0,792)">
          <g
             id="g5064">
            <path
               d="m 984.89465,640.18738 2.24494,-17.93661"
               style="fill:none;stroke:#000000;stroke-width:2.61538;stroke-linecap:round;stroke-linejoin:round;stroke-miterlimit:10;stroke-dasharray:none;stroke-opacity:1"
               id="path5066"
               sodipodi:nodetypes="cc" />
          </g>
        </g>
        <g
           id="g5068"
           transform="matrix(1,0,0,-1,0,792)">
          <g
             id="g5070">
            <path
               d="m 923.19065,635.47669 1.30769,-19.25577"
               style="fill:none;stroke:#000000;stroke-width:2.61538;stroke-linecap:round;stroke-linejoin:round;stroke-miterlimit:10;stroke-dasharray:none;stroke-opacity:1"
               id="path5072"
               sodipodi:nodetypes="cc" />
          </g>
        </g>
        <g
           id="g5074"
           transform="matrix(1,0,0,-1,0,792)">
          <g
             id="g5076">
            <path
               d="m 924.49834,616.22092 c 0,0 42.84797,5.11729 62.64125,6.02985"
               style="fill:none;stroke:#000000;stroke-width:2.61538;stroke-linecap:round;stroke-linejoin:round;stroke-miterlimit:10;stroke-dasharray:none;stroke-opacity:1"
               id="path5078"
               sodipodi:nodetypes="cc" />
          </g>
        </g>
        <g
           id="g5080"
           transform="matrix(1,0,0,-1,0,792)">
          <g
             id="g5082">
            <path
               d="m 759.97693,515.43396 c 0,0 23.40193,21.26232 34.06186,29.05245"
               style="fill:none;stroke:#000000;stroke-width:2.61538;stroke-linecap:round;stroke-linejoin:round;stroke-miterlimit:10;stroke-dasharray:none;stroke-opacity:1"
               id="path5084"
               sodipodi:nodetypes="cc" />
          </g>
        </g>
        <g
           id="g5086"
           transform="matrix(1,0,0,-1,0,792)">
          <g
             id="g5088">
            <path
               d="m 759.97693,515.43396 c 0.52286,-13.45578 1.16387,-28.44922 4.92279,-41.4295"
               style="fill:none;stroke:#000000;stroke-width:2.61538;stroke-linecap:round;stroke-linejoin:round;stroke-miterlimit:10;stroke-dasharray:none;stroke-opacity:1"
               id="path5090"
               sodipodi:nodetypes="cc" />
          </g>
        </g>
        <g
           id="g5092"
           transform="matrix(1,0,0,-1,0,792)">
          <g
             id="g5094">
            <path
               d="m 1075.9026,545.50958 c 10.915,-3.69124 22.5775,-4.39538 33.702,-7.37871 11.7389,-2.52219 23.4498,-5.23213 34.954,-8.68712"
               style="fill:none;stroke:#000000;stroke-width:2.61538;stroke-linecap:round;stroke-linejoin:round;stroke-miterlimit:10;stroke-dasharray:none;stroke-opacity:1"
               id="path5096" />
          </g>
        </g>
        <g
           id="g5098"
           transform="matrix(1,0,0,-1,0,792)">
          <g
             id="g5100">
            <path
               d="m 1145.4033,529.21405 c -0.1754,-13.77025 -2.7515,-27.3416 -4.7867,-40.9007"
               style="fill:none;stroke:#000000;stroke-width:2.61538;stroke-linecap:round;stroke-linejoin:round;stroke-miterlimit:10;stroke-dasharray:none;stroke-opacity:1"
               id="path5102" />
          </g>
        </g>
        <g
           id="g5104"
           transform="matrix(1,0,0,-1,0,792)">
          <g
             id="g5106">
            <path
               d="m 1072.8871,378.34457 c 13.4973,15.10841 21.1484,34.31938 32.474,50.97373 11.5391,20.48109 22.6076,39.15364 35.2555,58.99505"
               style="fill:none;stroke:#000000;stroke-width:2.61538;stroke-linecap:round;stroke-linejoin:round;stroke-miterlimit:10;stroke-dasharray:none;stroke-opacity:1"
               id="path5108"
               sodipodi:nodetypes="ccc" />
          </g>
        </g>
        <g
           id="g5110"
           transform="matrix(1,0,0,-1,0,792)">
          <g
             id="g5112">
            <path
               d="m 1075.3497,424.15497 c 22.2599,34.19377 44.9731,72.14032 68.7326,105.38033"
               style="fill:none;stroke:#000000;stroke-width:2.61538;stroke-linecap:round;stroke-linejoin:round;stroke-miterlimit:10;stroke-dasharray:none;stroke-opacity:1"
               id="path5114"
               sodipodi:nodetypes="cc" />
          </g>
        </g>
        <g
           id="g5116"
           transform="matrix(1,0,0,-1,0,792)">
          <g
             id="g5118">
            <path
               d="m 1075.3497,424.15497 c 0,0 -3.5332,-30.60331 -3.6886,-46.65449"
               style="fill:none;stroke:#000000;stroke-width:2.61538;stroke-linecap:round;stroke-linejoin:round;stroke-miterlimit:10;stroke-dasharray:none;stroke-opacity:1"
               id="path5120"
               sodipodi:nodetypes="cc" />
          </g>
        </g>
        <g
           id="g5122"
           transform="matrix(1,0,0,-1,0,792)">
          <g
             id="g5124">
            <path
               d="M 764.89972,474.00446 C 866.35075,440.52181 966.80631,403.43661 1070.6693,377.85812"
               style="fill:none;stroke:#000000;stroke-width:2.61538;stroke-linecap:round;stroke-linejoin:round;stroke-miterlimit:10;stroke-dasharray:none;stroke-opacity:1"
               id="path5126" />
          </g>
        </g>
        <g
           id="g5128"
           transform="matrix(1,0,0,-1,0,792)">
          <g
             id="g5130">
            <path
               d="m 759.97693,515.43396 c 103.19029,-33.60263 209.1048,-68.4648 315.21387,-91.80575"
               style="fill:none;stroke:#000000;stroke-width:2.61538;stroke-linecap:round;stroke-linejoin:round;stroke-miterlimit:10;stroke-dasharray:none;stroke-opacity:1"
               id="path5132"
               sodipodi:nodetypes="cc" />
          </g>
        </g>
        <g
           id="g5134"
           transform="matrix(1,0,0,-1,0,792)">
          <g
             id="g5136">
            <path
               d="m 825.76294,683.57104 c 56.57704,5.95169 113.26194,10.60918 170.00391,14.52441 28.05735,2.12701 55.99415,6.95245 84.18955,6.50667"
               style="fill:none;stroke:#000000;stroke-width:1.30769;stroke-linecap:round;stroke-linejoin:round;stroke-miterlimit:10;stroke-dasharray:none;stroke-opacity:1"
               id="path5138"
               sodipodi:nodetypes="ccc" />
          </g>
        </g>
        <g
           id="g5140"
           transform="matrix(1,0,0,-1,0,792)">
          <g
             id="g5142">
            <path
               d="m 1080.1672,704.01965 c 3.9467,-4.44403 8.4124,-8.39804 12.2875,-12.90814"
               style="fill:none;stroke:#000000;stroke-width:1.30769;stroke-linecap:round;stroke-linejoin:round;stroke-miterlimit:10;stroke-dasharray:none;stroke-opacity:1"
               id="path5144" />
          </g>
        </g>
        <g
           id="g5146"
           transform="matrix(1,0,0,-1,0,792)">
          <g
             id="g5148">
            <path
               d="m 825.76294,683.57104 c -6.20768,-3.20961 -13.24011,-10.1567 -16.36755,-16.55364"
               style="fill:none;stroke:#000000;stroke-width:1.30769;stroke-linecap:round;stroke-linejoin:round;stroke-miterlimit:10;stroke-dasharray:none;stroke-opacity:1"
               id="path5150"
               sodipodi:nodetypes="cc" />
          </g>
        </g>
        <g
           id="g5152"
           transform="matrix(1,0,0,-1,0,792)">
          <g
             id="g5154">
            <path
               d="m 809.39539,667.0174 c 4.54505,-36.38946 0.096,-73.7152 6.40408,-109.75548"
               style="fill:none;stroke:#000000;stroke-width:1.30769;stroke-linecap:round;stroke-linejoin:round;stroke-miterlimit:10;stroke-dasharray:none;stroke-opacity:1"
               id="path5156" />
          </g>
        </g>
        <g
           id="g5158"
           transform="matrix(1,0,0,-1,0,792)">
          <g
             id="g5160">
            <path
               d="m 1092.4547,691.11151 c -1.3871,-28.38013 -10.0988,-57.31519 -12.5244,-85.61087 -0.957,-5.71738 -2.2344,-10.28453 -4.6753,-15.56115"
               style="fill:none;stroke:#000000;stroke-width:1.30769;stroke-linecap:round;stroke-linejoin:round;stroke-miterlimit:10;stroke-dasharray:none;stroke-opacity:1"
               id="path5162"
               sodipodi:nodetypes="ccc" />
          </g>
        </g>
        <g
           id="g5164"
           transform="matrix(1,0,0,-1,0,792)">
          <g
             id="g5166">
            <path
               d="m 816.10168,556.78009 c 13.20959,1.30127 172.30852,25.85137 259.15332,33.1594"
               style="fill:none;stroke:#000000;stroke-width:1.30769;stroke-linecap:round;stroke-linejoin:round;stroke-miterlimit:10;stroke-dasharray:none;stroke-opacity:1"
               id="path5168"
               sodipodi:nodetypes="cc" />
          </g>
        </g>
        <g
           id="g5170"
           transform="matrix(1,0,0,-1,0,792)">
          <g
             id="g5172">
            <path
               d="m 964.71179,637.55768 c 2.5491,-3.73133 2.48333,-9.7458 1.26705,-13.72915"
               style="fill:none;stroke:#000000;stroke-width:1.30769;stroke-linecap:round;stroke-linejoin:round;stroke-miterlimit:10;stroke-dasharray:none;stroke-opacity:1"
               id="path5174" />
          </g>
        </g>
        <g
           id="g5176"
           transform="matrix(1,0,0,-1,0,792)">
          <g
             id="g5178">
            <path
               d="m 979.60596,637.93091 c 0.50281,-4.57182 -0.13066,-9.23429 -0.0479,-13.8179"
               style="fill:none;stroke:#000000;stroke-width:1.30769;stroke-linecap:round;stroke-linejoin:round;stroke-miterlimit:10;stroke-dasharray:none;stroke-opacity:1"
               id="path5180" />
          </g>
        </g>
        <g
           id="g5182"
           transform="matrix(1,0,0,-1,0,792)">
          <g
             id="g5184">
            <path
               d="m 901.84113,671.4397 c 53.59514,7.268 107.55477,11.27108 161.39897,16.15691"
               style="fill:none;stroke:#000000;stroke-width:1.30769;stroke-linecap:round;stroke-linejoin:round;stroke-miterlimit:10;stroke-dasharray:none;stroke-opacity:1"
               id="path5186" />
          </g>
        </g>
        <g
           id="g5188"
           transform="matrix(1,0,0,-1,0,792)">
          <g
             id="g5190">
            <path
               d="m 901.75281,656.18121 c 54.00029,1.29691 107.09889,12.93184 161.00539,15.45562"
               style="fill:none;stroke:#000000;stroke-width:1.30769;stroke-linecap:round;stroke-linejoin:round;stroke-miterlimit:10;stroke-dasharray:none;stroke-opacity:1"
               id="path5192" />
          </g>
        </g>
        <g
           id="g5194"
           transform="matrix(1,0,0,-1,0,792)">
          <g
             id="g5196">
            <path
               d="m 830.08026,709.00134 c 0.76548,-1.09593 2.69921,-5.70502 2.87739,-4.22839 -0.6791,1.52723 -1.61359,3.05621 -3.11553,3.89353"
               style="fill:none;stroke:#000000;stroke-width:1.30769;stroke-linecap:round;stroke-linejoin:round;stroke-miterlimit:10;stroke-dasharray:none;stroke-opacity:1"
               id="path5198" />
          </g>
        </g>
        <g
           id="g5200"
           transform="matrix(1,0,0,-1,0,792)">
          <g
             id="g5202">
            <path
               d="m 812.8111,706.16339 c 0.58053,-1.54176 3.41838,-6.46654 1.43331,-2.57769 -0.80059,1.31964 -1.79777,2.52152 -2.45471,3.92635"
               style="fill:none;stroke:#000000;stroke-width:1.30769;stroke-linecap:round;stroke-linejoin:round;stroke-miterlimit:10;stroke-dasharray:none;stroke-opacity:1"
               id="path5204" />
          </g>
        </g>
      </g>
    </g>
  </g>
</svg>
