<?xml version="1.0" encoding="UTF-8" standalone="no"?>
<!-- Created by Ashley Blewer - This work is licensed under a Creative Commons Attribution 4.0 International License -->

<svg
   width="544"
   height="480"
   viewBox="0 0 143.93334 127"
   version="1.1"
   id="svg2490"
   inkscape:version="1.2.2 (1:1.2.2+202212051552+b0a8486541)"
   sodipodi:docname="1964-35-micro-pack-2.svg"
   xmlns:inkscape="http://www.inkscape.org/namespaces/inkscape"
   xmlns:sodipodi="http://sodipodi.sourceforge.net/DTD/sodipodi-0.dtd"
   xmlns="http://www.w3.org/2000/svg"
   xmlns:svg="http://www.w3.org/2000/svg">
  <sodipodi:namedview
     id="namedview2492"
     pagecolor="#ffffff"
     bordercolor="#666666"
     borderopacity="1.0"
     inkscape:pageshadow="2"
     inkscape:pageopacity="0.0"
     inkscape:pagecheckerboard="0"
     inkscape:document-units="mm"
     showgrid="false"
     units="px"
     inkscape:zoom="0.90583674"
     inkscape:cx="53.541657"
     inkscape:cy="253.35691"
     inkscape:window-width="1846"
     inkscape:window-height="1136"
     inkscape:window-x="0"
     inkscape:window-y="0"
     inkscape:window-maximized="1"
     inkscape:current-layer="g4731"
     inkscape:showpageshadow="2"
     inkscape:deskcolor="#d1d1d1" />
  <defs
     id="defs2487" />
  <g
     inkscape:label="Layer 1"
     inkscape:groupmode="layer"
     id="layer1">
    <g
       id="g4731"
       transform="matrix(0.32961229,0,0,0.32903008,-241.78905,1.73126)"
       style="stroke-width:2.68698">
      <g
         id="g104528"
         transform="matrix(1,0,0,-1,0,792)"
         style="stroke-width:2.68698">
        <g
           id="g104530"
           style="stroke-width:2.68698" />
      </g>
      <g
         id="g104996"
         transform="matrix(1,0,0,-1,0,792)"
         style="stroke-width:2.68698">
        <g
           id="g104998"
           style="stroke-width:2.68698" />
      </g>
      <g
         id="g2901"
         transform="matrix(0.78560811,0,0,0.78699821,699.17031,-236.48193)">
        <g
           id="g1180"
           transform="matrix(1,0,0,-1,0,792)">
          <g
             id="g1182">
            <path
               d="M 99.532608,107.18655 79.986465,147.01227"
               style="fill:none;stroke:#000000;stroke-width:2.61674;stroke-linecap:round;stroke-linejoin:round;stroke-miterlimit:10;stroke-dasharray:none;stroke-opacity:1"
               id="path1184"
               sodipodi:nodetypes="cc" />
          </g>
        </g>
        <g
           id="g1186"
           transform="matrix(1,0,0,-1,0,792)">
          <g
             id="g1188">
            <path
               d="m 79.986465,147.01227 c 0,0 -12.886179,176.54828 -17.143891,251.79598"
               style="fill:none;stroke:#000000;stroke-width:2.61674;stroke-linecap:round;stroke-linejoin:round;stroke-miterlimit:10;stroke-dasharray:none;stroke-opacity:1"
               id="path1190"
               sodipodi:nodetypes="cc" />
          </g>
        </g>
        <g
           id="g1192"
           transform="matrix(1,0,0,-1,0,792)">
          <g
             id="g1194">
            <path
               d="m 62.842574,398.80825 c 6.716317,-5.08087 16.62818,-8.2017 22.142669,-14.55799"
               style="fill:none;stroke:#000000;stroke-width:2.61674;stroke-linecap:round;stroke-linejoin:round;stroke-miterlimit:10;stroke-dasharray:none;stroke-opacity:1"
               id="path1196"
               sodipodi:nodetypes="cc" />
          </g>
        </g>
        <g
           id="g1198"
           transform="matrix(1,0,0,-1,0,792)">
          <g
             id="g1200">
            <path
               d="M 84.985243,384.25026 99.532608,107.18655"
               style="fill:none;stroke:#000000;stroke-width:2.61674;stroke-linecap:round;stroke-linejoin:round;stroke-miterlimit:10;stroke-dasharray:none;stroke-opacity:1"
               id="path1202"
               sodipodi:nodetypes="cc" />
          </g>
        </g>
        <g
           id="g1204"
           transform="matrix(1,0,0,-1,0,792)">
          <g
             id="g1206">
            <path
               d="M 62.842574,398.80825 290.31497,415.96182"
               style="fill:none;stroke:#000000;stroke-width:2.61674;stroke-linecap:round;stroke-linejoin:round;stroke-miterlimit:10;stroke-dasharray:none;stroke-opacity:1"
               id="path1208"
               sodipodi:nodetypes="cc" />
          </g>
        </g>
        <g
           id="g1210"
           transform="matrix(1,0,0,-1,0,792)">
          <g
             id="g1212">
            <path
               d="m 84.985243,384.25026 c 0,0 98.374977,5.42693 146.099077,9.16805 30.91139,2.26017 65.4834,2.62806 96.42059,4.2908"
               style="fill:none;stroke:#000000;stroke-width:2.61674;stroke-linecap:round;stroke-linejoin:round;stroke-miterlimit:10;stroke-dasharray:none;stroke-opacity:1"
               id="path1214"
               sodipodi:nodetypes="ccc" />
          </g>
        </g>
        <g
           id="g1216"
           transform="matrix(1,0,0,-1,0,792)">
          <g
             id="g1218">
            <path
               d="m 290.31497,415.96182 c 11.25416,-4.71316 27.70836,-12.61755 37.18994,-18.25271"
               style="fill:none;stroke:#000000;stroke-width:2.61674;stroke-linecap:round;stroke-linejoin:round;stroke-miterlimit:10;stroke-dasharray:none;stroke-opacity:1"
               id="path1220"
               sodipodi:nodetypes="cc" />
          </g>
        </g>
        <g
           id="g1222"
           transform="matrix(1,0,0,-1,0,792)">
          <g
             id="g1224">
            <path
               d="m 327.50491,397.70911 c -0.25372,-93.76296 5.57961,-168.66607 4.94748,-263.59673"
               style="fill:none;stroke:#000000;stroke-width:2.61674;stroke-linecap:round;stroke-linejoin:round;stroke-miterlimit:10;stroke-dasharray:none;stroke-opacity:1"
               id="path1226"
               sodipodi:nodetypes="cc" />
          </g>
        </g>
        <g
           id="g1228"
           transform="matrix(1,0,0,-1,0,792)">
          <g
             id="g1230">
            <path
               d="M 99.532608,107.18655 C 177.04913,121.3902 259.79745,128.79543 332.45239,134.11238"
               style="fill:none;stroke:#000000;stroke-width:2.61674;stroke-linecap:round;stroke-linejoin:round;stroke-miterlimit:10;stroke-dasharray:none;stroke-opacity:1"
               id="path1232"
               sodipodi:nodetypes="cc" />
          </g>
        </g>
        <g
           id="g1234"
           transform="matrix(1,0,0,-1,0,792)">
          <g
             id="g1236">
            <path
               d="M 87.527557,335.83029 326.18849,348.58373"
               style="fill:none;stroke:#000000;stroke-width:2.61674;stroke-linecap:round;stroke-linejoin:round;stroke-miterlimit:10;stroke-dasharray:none;stroke-opacity:1"
               id="path1238"
               sodipodi:nodetypes="cc" />
          </g>
        </g>
        <g
           id="g1240"
           transform="matrix(1,0,0,-1,0,792)">
          <g
             id="g1242">
            <path
               d="m 329.9986,265.91075 c -3.66192,-4.91101 -15.00337,-17.4533 -18.33604,-22.59156"
               style="fill:none;stroke:#000000;stroke-width:2.61674;stroke-linecap:round;stroke-linejoin:round;stroke-miterlimit:10;stroke-dasharray:none;stroke-opacity:1"
               id="path1244"
               sodipodi:nodetypes="cc" />
          </g>
        </g>
        <g
           id="g1246"
           transform="matrix(1,0,0,-1,0,792)">
          <g
             id="g1248">
            <path
               d="m 310.76108,244.71912 c -3.08972,21.43008 -2.41283,46.13644 -22.23931,60.19342 -26.33248,23.60539 -63.07196,36.71087 -98.27952,30.11536 -31.67684,-10.82387 -66.01245,-26.38599 -79.9583,-59.1918 -11.268873,-28.23603 -13.56184,-62.16986 -0.70867,-90.26975 11.52918,-29.4319 39.31894,-53.55845 71.85202,-54.55501 25.91115,-2.94584 53.15394,1.54361 74.33982,17.53939 25.88659,14.79762 44.68404,38.64136 66.61835,58.02432 l 8.9215,11.10731"
               style="fill:none;stroke:#000000;stroke-width:2.61674;stroke-linecap:round;stroke-linejoin:round;stroke-miterlimit:10;stroke-dasharray:none;stroke-opacity:1"
               id="path1250"
               sodipodi:nodetypes="ccccccccc" />
          </g>
        </g>
        <g
           id="g1252"
           transform="matrix(1,0,0,-1,0,792)">
          <g
             id="g1254">
            <path
               d="m 201.83125,281.55966 c 21.24337,8.93559 48.18625,-3.8542 53.87677,-26.43295 10.13919,-24.10475 5.44632,-59.02005 -20.95366,-70.39391 -19.84398,-9.09631 -45.60972,-13.35684 -64.80473,-0.65729 -23.6155,20.30222 -22.30729,60.94295 0.0559,81.8164 8.52313,8.39556 19.54657,15.27541 31.82567,15.66775 z"
               style="fill:none;stroke:#000000;stroke-width:2.61674;stroke-linecap:round;stroke-linejoin:round;stroke-miterlimit:10;stroke-dasharray:none;stroke-opacity:1"
               id="path1256"
               sodipodi:nodetypes="cccccc" />
          </g>
        </g>
        <g
           id="g1258"
           transform="matrix(1,0,0,-1,0,792)">
          <g
             id="g1260">
            <path
               d="m 157.47049,380.55606 c -8.80736,5.84734 -34.82072,-4.34125 -12.34489,-4.44643 35.33112,-5.06261 -5.35259,-19.36095 -13.8248,-6.88479"
               style="fill:none;stroke:#000000;stroke-width:2.61674;stroke-linecap:round;stroke-linejoin:round;stroke-miterlimit:10;stroke-dasharray:none;stroke-opacity:1"
               id="path1262" />
          </g>
        </g>
        <g
           id="g1264"
           transform="matrix(1,0,0,-1,0,792)">
          <g
             id="g1266">
            <path
               d="m 166.70737,364.10846 c 9.57789,15.15044 12.27056,35.22301 24.9161,3.32474"
               style="fill:none;stroke:#000000;stroke-width:2.61674;stroke-linecap:round;stroke-linejoin:round;stroke-miterlimit:10;stroke-dasharray:none;stroke-opacity:1"
               id="path1268" />
          </g>
        </g>
        <g
           id="g1270"
           transform="matrix(1,0,0,-1,0,792)">
          <g
             id="g1272">
            <path
               d="m 169.83159,371.30661 c 4.9205,1.1221 13.7996,3.186 17.84066,2.95425"
               style="fill:none;stroke:#000000;stroke-width:2.61674;stroke-linecap:round;stroke-linejoin:round;stroke-miterlimit:10;stroke-dasharray:none;stroke-opacity:1"
               id="path1274"
               sodipodi:nodetypes="cc" />
          </g>
        </g>
        <g
           id="g1276"
           transform="matrix(1,0,0,-1,0,792)">
          <g
             id="g1278">
            <path
               d="m 202.60898,366.23349 c 0.66776,9.89928 -5.18602,25.27358 8.46284,12.57492 10.12818,-4.77869 11.5491,-17.88375 8.61818,8.13091"
               style="fill:none;stroke:#000000;stroke-width:2.61674;stroke-linecap:round;stroke-linejoin:round;stroke-miterlimit:10;stroke-dasharray:none;stroke-opacity:1"
               id="path1280" />
          </g>
        </g>
        <g
           id="g1282"
           transform="matrix(1,0,0,-1,0,792)">
          <g
             id="g1284">
            <path
               d="m 234.77188,385.52655 c 3.50965,-0.76884 5.67947,-4.1724 8.59617,-5.93241"
               style="fill:none;stroke:#000000;stroke-width:2.61674;stroke-linecap:round;stroke-linejoin:round;stroke-miterlimit:10;stroke-dasharray:none;stroke-opacity:1"
               id="path1286" />
          </g>
        </g>
        <g
           id="g1288"
           transform="matrix(1,0,0,-1,0,792)">
          <g
             id="g1290">
            <path
               d="m 255.44077,388.27066 c -7.13801,-5.08789 -14.47195,-9.43509 -10.89763,-19.88381"
               style="fill:none;stroke:#000000;stroke-width:2.61674;stroke-linecap:round;stroke-linejoin:round;stroke-miterlimit:10;stroke-dasharray:none;stroke-opacity:1"
               id="path1292" />
          </g>
        </g>
        <g
           id="g1294"
           transform="matrix(1,0,0,-1,0,792)">
          <g
             id="g1296">
            <path
               d="m 266.56472,388.6728 c -23.19667,-9.07866 13.99336,-31.07674 19.07809,-8.58234 0.75778,11.23847 -11.26239,12.58601 -19.07809,8.58234"
               style="fill:none;stroke:#000000;stroke-width:2.61674;stroke-linecap:round;stroke-linejoin:round;stroke-miterlimit:10;stroke-dasharray:none;stroke-opacity:1"
               id="path1298"
               sodipodi:nodetypes="ccc" />
          </g>
        </g>
        <g
           id="g1300"
           transform="matrix(1,0,0,-1,0,792)">
          <g
             id="g1302">
            <path
               d="m 352.75647,141.42602 c -0.32985,20.43053 -1.13437,43.62615 2.01547,63.91772 2.67851,54.78685 2.39291,109.67443 -0.0676,164.45478 0,0 -0.89375,12.98276 2.91233,15.37329"
               style="fill:none;stroke:#000000;stroke-width:2.61674;stroke-linecap:round;stroke-linejoin:round;stroke-miterlimit:10;stroke-dasharray:none;stroke-opacity:1"
               id="path1304"
               sodipodi:nodetypes="cccc" />
          </g>
        </g>
        <g
           id="g1306"
           transform="matrix(1,0,0,-1,0,792)">
          <g
             id="g1308">
            <path
               d="m 357.61667,385.17181 c 0,0 44.90469,4.29426 47.11458,-2.98186"
               style="fill:none;stroke:#000000;stroke-width:2.61674;stroke-linecap:round;stroke-linejoin:round;stroke-miterlimit:10;stroke-dasharray:none;stroke-opacity:1"
               id="path1310"
               sodipodi:nodetypes="cc" />
          </g>
        </g>
        <g
           id="g1312"
           transform="matrix(1,0,0,-1,0,792)">
          <g
             id="g1314">
            <path
               d="m 404.73125,382.18995 c 57.42421,-1.35122 103.45556,-2.04027 157.19121,3.4158"
               style="fill:none;stroke:#000000;stroke-width:2.61674;stroke-linecap:round;stroke-linejoin:round;stroke-miterlimit:10;stroke-dasharray:none;stroke-opacity:1"
               id="path1316"
               sodipodi:nodetypes="cc" />
          </g>
        </g>
        <g
           id="g1318"
           transform="matrix(1,0,0,-1,0,792)">
          <g
             id="g1320">
            <path
               d="m 560.60926,385.527 c 4.93943,-4.52649 19.71233,-21.12518 19.71233,-21.12518"
               style="fill:none;stroke:#000000;stroke-width:2.61674;stroke-linecap:round;stroke-linejoin:round;stroke-miterlimit:10;stroke-dasharray:none;stroke-opacity:1"
               id="path1322"
               sodipodi:nodetypes="cc" />
          </g>
        </g>
        <g
           id="g1324"
           transform="matrix(1,0,0,-1,0,792)">
          <g
             id="g1326">
            <path
               d="m 580.32159,364.40182 c 1.3132,0.0788 -3.36933,-151.77727 -12.70235,-221.21913 l -1.61536,-2.67036 -1.74846,-1.57218"
               style="fill:none;stroke:#000000;stroke-width:2.61674;stroke-linecap:round;stroke-linejoin:round;stroke-miterlimit:10;stroke-dasharray:none;stroke-opacity:1"
               id="path1328"
               sodipodi:nodetypes="cccc" />
          </g>
        </g>
        <g
           id="g1330"
           transform="matrix(1,0,0,-1,0,792)">
          <g
             id="g1332">
            <path
               d="m 352.75647,141.42602 c 24.7483,0.0517 49.41528,-3.12387 74.17419,-2.22792"
               style="fill:none;stroke:#000000;stroke-width:2.61674;stroke-linecap:round;stroke-linejoin:round;stroke-miterlimit:10;stroke-dasharray:none;stroke-opacity:1"
               id="path1334" />
          </g>
        </g>
        <g
           id="g1336"
           transform="matrix(1,0,0,-1,0,792)">
          <g
             id="g1338">
            <path
               d="m 427.98315,139.05716 c 18.41724,-3.52489 39.77166,-1.1103 59.29807,-2.88202 -0.56903,-1.87304 6.24925,0.211 3.30817,1.33018"
               style="fill:none;stroke:#000000;stroke-width:2.61674;stroke-linecap:round;stroke-linejoin:round;stroke-miterlimit:10;stroke-dasharray:none;stroke-opacity:1"
               id="path1340" />
          </g>
        </g>
        <g
           id="g1342"
           transform="matrix(1,0,0,-1,0,792)">
          <g
             id="g1344">
            <path
               d="m 490.58939,137.50532 c 23.54796,-3.05999 50.42642,0.30773 72.93472,0.99821"
               style="fill:none;stroke:#000000;stroke-width:2.61674;stroke-linecap:round;stroke-linejoin:round;stroke-miterlimit:10;stroke-dasharray:none;stroke-opacity:1"
               id="path1346"
               sodipodi:nodetypes="cc" />
          </g>
        </g>
        <g
           id="g1348"
           transform="matrix(1,0,0,-1,0,792)">
          <g
             id="g1350">
            <path
               d="m 98.172508,354.43253 c 74.713162,7.25 149.719902,10.96921 224.725592,13.48542"
               style="fill:none;stroke:#000000;stroke-width:1.26872;stroke-linecap:round;stroke-linejoin:round;stroke-miterlimit:10;stroke-dasharray:none;stroke-opacity:1"
               id="path1352" />
          </g>
        </g>
        <g
           id="g1354"
           transform="matrix(1,0,0,-1,0,792)">
          <g
             id="g1356">
            <path
               d="m 118.11156,346.32938 c 61.0299,8.05206 122.71835,7.54861 184.11054,10.06173"
               style="fill:none;stroke:#000000;stroke-width:1.26872;stroke-linecap:round;stroke-linejoin:round;stroke-miterlimit:10;stroke-dasharray:none;stroke-opacity:1"
               id="path1358" />
          </g>
        </g>
        <g
           id="g1360"
           transform="matrix(1,0,0,-1,0,792)">
          <g
             id="g1362">
            <path
               d="m 397.34256,377.72211 c -5.55046,7.34164 -16.47016,4.89828 -20.58738,-2.54356"
               style="fill:none;stroke:#000000;stroke-width:1.26872;stroke-linecap:round;stroke-linejoin:round;stroke-miterlimit:10;stroke-dasharray:none;stroke-opacity:1"
               id="path1364" />
          </g>
        </g>
        <g
           id="g1366"
           transform="matrix(1,0,0,-1,0,792)">
          <g
             id="g1368">
            <path
               d="m 378.72031,370.03806 c -22.38942,-18.89519 21.86926,-44.55167 23.84477,-14.01076 0.43003,5.45969 -3.10639,11.24374 -8.3242,13.06519"
               style="fill:none;stroke:#000000;stroke-width:1.26872;stroke-linecap:round;stroke-linejoin:round;stroke-miterlimit:10;stroke-dasharray:none;stroke-opacity:1"
               id="path1370" />
          </g>
        </g>
        <g
           id="g1372"
           transform="matrix(1,0,0,-1,0,792)">
          <g
             id="g1374">
            <path
               d="m 398.58344,369.73203 c 2.97971,-1.86219 3.39738,-5.72752 5.83646,-8.06652"
               style="fill:none;stroke:#000000;stroke-width:1.26872;stroke-linecap:round;stroke-linejoin:round;stroke-miterlimit:10;stroke-dasharray:none;stroke-opacity:1"
               id="path1376" />
          </g>
        </g>
        <g
           id="g1378"
           transform="matrix(1,0,0,-1,0,792)">
          <g
             id="g1380">
            <path
               d="m 400.09882,372.32797 c 2.37404,-1.14794 2.13991,-4.72191 4.84509,-5.40294"
               style="fill:none;stroke:#000000;stroke-width:1.26872;stroke-linecap:round;stroke-linejoin:round;stroke-miterlimit:10;stroke-dasharray:none;stroke-opacity:1"
               id="path1382" />
          </g>
        </g>
        <g
           id="g1384"
           transform="matrix(1,0,0,-1,0,792)">
          <g
             id="g1386">
            <path
               d="m 388.61105,377.48657 145.43039,1.31952"
               style="fill:none;stroke:#000000;stroke-width:1.26872;stroke-linecap:round;stroke-linejoin:round;stroke-miterlimit:10;stroke-dasharray:none;stroke-opacity:1"
               id="path1388"
               sodipodi:nodetypes="cc" />
          </g>
        </g>
        <g
           id="g1390"
           transform="matrix(1,0,0,-1,0,792)">
          <g
             id="g1392">
            <path
               d="m 386.22467,372.20996 c 51.11265,1.7835 140.21915,1.25268 140.21915,1.25268"
               style="fill:none;stroke:#000000;stroke-width:1.26872;stroke-linecap:round;stroke-linejoin:round;stroke-miterlimit:10;stroke-dasharray:none;stroke-opacity:1"
               id="path1394"
               sodipodi:nodetypes="cc" />
          </g>
        </g>
        <g
           id="g1396"
           transform="matrix(1,0,0,-1,0,792)">
          <g
             id="g1398">
            <path
               d="m 520.84165,372.21111 c -2.35866,-2.99388 -1.93106,-5.24314 0.0801,-8.3364"
               style="fill:none;stroke:#000000;stroke-width:1.26872;stroke-linecap:round;stroke-linejoin:round;stroke-miterlimit:10;stroke-dasharray:none;stroke-opacity:1"
               id="path1400"
               sodipodi:nodetypes="cc" />
          </g>
        </g>
        <g
           id="g1402"
           transform="matrix(1,0,0,-1,0,792)">
          <g
             id="g1404">
            <path
               d="m 540.33667,377.66965 c -8.6032,4.1973 -14.65045,-12.11566 -14.17598,-13.79395"
               style="fill:none;stroke:#000000;stroke-width:1.26872;stroke-linecap:round;stroke-linejoin:round;stroke-miterlimit:10;stroke-dasharray:none;stroke-opacity:1"
               id="path1406" />
          </g>
        </g>
        <g
           id="g1408"
           transform="matrix(1,0,0,-1,0,792)">
          <g
             id="g1410">
            <path
               d="m 538.07513,375.46664 c 2.50995,1.64381 6.76084,3.58171 9.09841,0.4937"
               style="fill:none;stroke:#000000;stroke-width:1.26872;stroke-linecap:round;stroke-linejoin:round;stroke-miterlimit:10;stroke-dasharray:none;stroke-opacity:1"
               id="path1412" />
          </g>
        </g>
        <g
           id="g1414"
           transform="matrix(1,0,0,-1,0,792)">
          <g
             id="g1416">
            <path
               d="m 528.59253,361.24973 c 5.62995,7.37994 27.54008,22.83282 29.85331,5.38738"
               style="fill:none;stroke:#000000;stroke-width:1.26872;stroke-linecap:round;stroke-linejoin:round;stroke-miterlimit:10;stroke-dasharray:none;stroke-opacity:1"
               id="path1418" />
          </g>
        </g>
        <g
           id="g1420"
           transform="matrix(1,0,0,-1,0,792)">
          <g
             id="g1422">
            <path
               d="m 556.75421,362.63077 c 13.31554,-25.22516 -36.98671,-32.28437 -21.941,-5.422 l 2.05202,2.44144"
               style="fill:none;stroke:#000000;stroke-width:1.26872;stroke-linecap:round;stroke-linejoin:round;stroke-miterlimit:10;stroke-dasharray:none;stroke-opacity:1"
               id="path1424" />
          </g>
        </g>
        <g
           id="g1426"
           transform="matrix(1,0,0,-1,0,792)">
          <g
             id="g1428">
            <path
               d="m 409.48267,357.12024 c 37.05205,-2.52751 74.34992,0.17533 111.40669,2.09808 l 3.63689,0.29761 0.31126,0.21452 -0.42326,-0.14072"
               style="fill:none;stroke:#000000;stroke-width:1.26872;stroke-linecap:round;stroke-linejoin:round;stroke-miterlimit:10;stroke-dasharray:none;stroke-opacity:1"
               id="path1430" />
          </g>
        </g>
        <g
           id="g1432"
           transform="matrix(1,0,0,-1,0,792)">
          <g
             id="g1434">
            <path
               d="m 409.3714,362.04523 c 38.33265,-6.13914 77.11534,0.53449 115.62524,0.97243 l -0.27557,-0.26446"
               style="fill:none;stroke:#000000;stroke-width:1.26872;stroke-linecap:round;stroke-linejoin:round;stroke-miterlimit:10;stroke-dasharray:none;stroke-opacity:1"
               id="path1436" />
          </g>
        </g>
        <g
           id="g1438"
           transform="matrix(1,0,0,-1,0,792)">
          <g
             id="g1440">
            <path
               d="m 559.74402,381.1004 c 2.4273,-2.05648 0.0934,-5.83323 1.32509,-8.25493"
               style="fill:none;stroke:#000000;stroke-width:1.26872;stroke-linecap:round;stroke-linejoin:round;stroke-miterlimit:10;stroke-dasharray:none;stroke-opacity:1"
               id="path1442" />
          </g>
        </g>
        <g
           id="g1444"
           transform="matrix(1,0,0,-1,0,792)">
          <g
             id="g1446">
            <path
               d="m 558.42883,345.44 c 0.90456,-17.05385 -2.73093,-34.48504 -1.58785,-51.23825"
               style="fill:none;stroke:#000000;stroke-width:1.26872;stroke-linecap:round;stroke-linejoin:round;stroke-miterlimit:10;stroke-dasharray:none;stroke-opacity:1"
               id="path1448" />
          </g>
        </g>
        <g
           id="g1450"
           transform="matrix(1,0,0,-1,0,792)">
          <g
             id="g1452">
            <path
               d="m 572.013,360.13312 c -0.61777,-51.27802 -3.11225,-102.58638 -7.2949,-153.70929 -1.68368,-19.78435 -5.59762,-40.62304 -3.48221,-60.03514"
               style="fill:none;stroke:#000000;stroke-width:1.26872;stroke-linecap:round;stroke-linejoin:round;stroke-miterlimit:10;stroke-dasharray:none;stroke-opacity:1"
               id="path1454" />
          </g>
        </g>
        <g
           id="g1456"
           transform="matrix(1,0,0,-1,0,792)">
          <g
             id="g1458">
            <path
               d="m 427.50241,140.00275 c 1.93913,4.99665 2.43766,10.48214 4.93621,15.27146"
               style="fill:none;stroke:#000000;stroke-width:1.26872;stroke-linecap:round;stroke-linejoin:round;stroke-miterlimit:10;stroke-dasharray:none;stroke-opacity:1"
               id="path1460" />
          </g>
        </g>
        <g
           id="g1462"
           transform="matrix(1,0,0,-1,0,792)">
          <g
             id="g1464">
            <path
               d="m 432.43862,155.27421 c 16.99341,1.15357 36.96065,-1.9624 53.68409,-2.81124"
               style="fill:none;stroke:#000000;stroke-width:1.26872;stroke-linecap:round;stroke-linejoin:round;stroke-miterlimit:10;stroke-dasharray:none;stroke-opacity:1"
               id="path1466"
               sodipodi:nodetypes="cc" />
          </g>
        </g>
        <g
           id="g1468"
           transform="matrix(1,0,0,-1,0,792)">
          <g
             id="g1470">
            <path
               d="m 486.12271,152.46297 c 0,0 2.17285,-12.2202 0.18688,-15.57302"
               style="fill:none;stroke:#000000;stroke-width:1.26872;stroke-linecap:round;stroke-linejoin:round;stroke-miterlimit:10;stroke-dasharray:none;stroke-opacity:1"
               id="path1472"
               sodipodi:nodetypes="cc" />
          </g>
        </g>
        <g
           id="g1474"
           transform="matrix(1,0,0,-1,0,792)">
          <g
             id="g1476">
            <path
               d="m 439.94427,150.9998 c 7.31983,-0.0204 14.70085,0.12146 21.93119,-1.21376"
               style="fill:none;stroke:#000000;stroke-width:1.26872;stroke-linecap:round;stroke-linejoin:round;stroke-miterlimit:10;stroke-dasharray:none;stroke-opacity:1"
               id="path1478" />
          </g>
        </g>
        <g
           id="g1480"
           transform="matrix(1,0,0,-1,0,792)">
          <g
             id="g1482">
            <path
               d="m 443.48389,146.64816 c 12.87694,-1.08468 25.78406,-2.02363 38.55859,-4.03809"
               style="fill:none;stroke:#000000;stroke-width:1.26872;stroke-linecap:round;stroke-linejoin:round;stroke-miterlimit:10;stroke-dasharray:none;stroke-opacity:1"
               id="path1484" />
          </g>
        </g>
        <g
           id="g1486"
           transform="matrix(1,0,0,-1,0,792)">
          <g
             id="g1488">
            <path
               d="m 468.00882,149.10461 c 1.47071,-0.18739 7.37841,-0.84567 8.86154,-0.98742"
               style="fill:none;stroke:#000000;stroke-width:1.26872;stroke-linecap:round;stroke-linejoin:round;stroke-miterlimit:10;stroke-dasharray:none;stroke-opacity:1"
               id="path1490" />
          </g>
        </g>
        <g
           id="g1492"
           transform="matrix(1,0,0,-1,0,792)">
          <g
             id="g1494">
            <path
               d="m 432.43862,155.27421 c -25.53452,9.97961 -46.77838,32.31524 -58.57872,57.07763 -13.28831,26.49328 -9.57843,58.80274 2.06213,85.19861 17.26268,31.31923 50.30038,55.48746 87.12337,54.26517 23.9618,-0.28279 47.40668,-12.418 64.66081,-28.63063 15.69004,-17.75356 31.60348,-38.0323 31.10527,-63.06697 5.45087,-47.30631 -27.95974,-94.97179 -72.68877,-107.65505 -2.86683,0.0702 2.32785,-2.2449 0,0"
               style="fill:none;stroke:#000000;stroke-width:1.26872;stroke-linecap:round;stroke-linejoin:round;stroke-miterlimit:10;stroke-dasharray:none;stroke-opacity:1"
               id="path1496"
               sodipodi:nodetypes="cccccccc" />
          </g>
        </g>
        <g
           id="g1498"
           transform="matrix(1,0,0,-1,0,792)">
          <g
             id="g1500">
            <path
               d="m 360.98971,280.60722 c 3.60421,25.56295 21.19841,47.84396 40.37136,64.21789 7.2672,5.2312 16.441,6.0561 24.82267,8.38641"
               style="fill:none;stroke:#000000;stroke-width:1.26872;stroke-linecap:round;stroke-linejoin:round;stroke-miterlimit:10;stroke-dasharray:none;stroke-opacity:1"
               id="path1502"
               sodipodi:nodetypes="ccc" />
          </g>
        </g>
        <g
           id="g1504"
           transform="matrix(1,0,0,-1,0,792)">
          <g
             id="g1506">
            <path
               d="m 493.41556,354.49231 c 22.76271,-9.0572 45.04241,-23.60856 54.35457,-47.31408 5.57177,-10.83292 11.55405,-22.40143 14.19843,-33.99346"
               style="fill:none;stroke:#000000;stroke-width:1.26872;stroke-linecap:round;stroke-linejoin:round;stroke-miterlimit:10;stroke-dasharray:none;stroke-opacity:1"
               id="path1508" />
          </g>
        </g>
        <g
           id="g1510"
           transform="matrix(1,0,0,-1,0,792)">
          <g
             id="g1512">
            <path
               d="m 463.34543,304.52451 c 33.99822,-1.23053 62.1445,-36.90085 50.54738,-70.10491 -13.84342,-41.01811 -82.21387,-47.94819 -100.32417,-6.71547 -14.78327,29.57272 2.40195,73.86664 38.32769,75.30965 3.79975,0.62282 7.62464,1.07301 11.4491,1.51073 z"
               style="fill:none;stroke:#000000;stroke-width:1.26872;stroke-linecap:round;stroke-linejoin:round;stroke-miterlimit:10;stroke-dasharray:none;stroke-opacity:1"
               id="path1514"
               sodipodi:nodetypes="cccccc" />
          </g>
        </g>
        <g
           id="g1516"
           transform="matrix(1,0,0,-1,0,792)">
          <g
             id="g1518">
            <path
               d="m 443.3775,295.44498 c 15.7855,7.70473 14.28979,-5.30439 0,0"
               style="fill:none;stroke:#000000;stroke-width:1.26872;stroke-linecap:round;stroke-linejoin:round;stroke-miterlimit:10;stroke-dasharray:none;stroke-opacity:1"
               id="path1520"
               sodipodi:nodetypes="cc" />
          </g>
        </g>
        <g
           id="g1522"
           transform="matrix(1,0,0,-1,0,792)">
          <g
             id="g1524">
            <path
               d="m 462.77392,298.60582 c -3.97378,-9.02973 8.6164,-3.86005 1.17024,1.02165"
               style="fill:none;stroke:#000000;stroke-width:1.26872;stroke-linecap:round;stroke-linejoin:round;stroke-miterlimit:10;stroke-dasharray:none;stroke-opacity:1"
               id="path1526"
               sodipodi:nodetypes="cc" />
          </g>
        </g>
        <g
           id="g1528"
           transform="matrix(1,0,0,-1,0,792)">
          <g
             id="g1530">
            <path
               d="m 475.82056,296.69687 c 23.60789,-4.32563 0.89876,-15.38046 0,0"
               style="fill:none;stroke:#000000;stroke-width:1.26872;stroke-linecap:round;stroke-linejoin:round;stroke-miterlimit:10;stroke-dasharray:none;stroke-opacity:1"
               id="path1532"
               sodipodi:nodetypes="cc" />
          </g>
        </g>
        <g
           id="g1534"
           transform="matrix(1,0,0,-1,0,792)">
          <g
             id="g1536">
            <path
               d="m 487.73367,284.91434 c 19.59466,-15.74643 21.79828,-52.50211 0.0963,-67.65564 -17.31586,-12.35408 -43.77424,-15.27052 -58.93636,2.19984 -19.58525,19.19318 -11.71091,58.85317 16.03626,65.57995"
               style="fill:none;stroke:#000000;stroke-width:1.26872;stroke-linecap:round;stroke-linejoin:round;stroke-miterlimit:10;stroke-dasharray:none;stroke-opacity:1"
               id="path1538" />
          </g>
        </g>
        <g
           id="g1540"
           transform="matrix(1,0,0,-1,0,792)">
          <g
             id="g1542">
            <path
               d="m 462.75748,260.56214 c 36.33222,-7.02777 -17.6395,-49.52088 -17.14039,-11.84166 1.4453,6.75336 11.08338,12.49813 17.14039,11.84166"
               style="fill:none;stroke:#000000;stroke-width:1.26872;stroke-linecap:round;stroke-linejoin:round;stroke-miterlimit:10;stroke-dasharray:none;stroke-opacity:1"
               id="path1544"
               sodipodi:nodetypes="ccc" />
          </g>
        </g>
        <g
           id="g1546"
           transform="matrix(1,0,0,-1,0,792)">
          <g
             id="g1548">
            <path
               d="m 457.01862,250.14232 c 9.40992,6.30482 12.12881,-12.60406 0.0598,-5.511"
               style="fill:none;stroke:#000000;stroke-width:1.26872;stroke-linecap:round;stroke-linejoin:round;stroke-miterlimit:10;stroke-dasharray:none;stroke-opacity:1"
               id="path1550" />
          </g>
        </g>
        <g
           id="g1552"
           transform="matrix(1,0,0,-1,0,792)">
          <g
             id="g1554">
            <path
               d="m 455.05856,246.64865 c 1.51895,-0.0204 6.9275,-0.26451 8.11283,-0.36624"
               style="fill:none;stroke:#000000;stroke-width:1.26872;stroke-linecap:round;stroke-linejoin:round;stroke-miterlimit:10;stroke-dasharray:none;stroke-opacity:1"
               id="path1556" />
          </g>
        </g>
        <g
           id="g1558"
           transform="matrix(1,0,0,-1,0,792)">
          <g
             id="g1560">
            <path
               d="m 453.5195,248.91556 c -0.42503,-0.42614 -0.99308,-4.30177 1.03952,-3.57215"
               style="fill:none;stroke:#000000;stroke-width:1.26872;stroke-linecap:round;stroke-linejoin:round;stroke-miterlimit:10;stroke-dasharray:none;stroke-opacity:1"
               id="path1562" />
          </g>
        </g>
        <g
           id="g1564"
           transform="matrix(1,0,0,-1,0,792)">
          <g
             id="g1566">
            <path
               d="m 442.99836,223.41316 c -34.78645,16.65174 -0.33324,73.46546 31.96452,53.42454 30.5807,-16.02124 12.20721,-67.36428 -21.97814,-58.08865 -3.6213,0.77407 -7.09465,2.33447 -9.98638,4.66411 z"
               style="fill:none;stroke:#000000;stroke-width:1.26872;stroke-linecap:round;stroke-linejoin:round;stroke-miterlimit:10;stroke-dasharray:none;stroke-opacity:1"
               id="path1568"
               sodipodi:nodetypes="ccccc" />
          </g>
        </g>
        <g
           id="g1570"
           transform="matrix(1,0,0,-1,0,792)">
          <g
             id="g1572">
            <path
               d="m 475.28827,287.92035 c -8.02879,2.41042 -16.35806,-1.47251 -23.96733,-2.42488"
               style="fill:none;stroke:#000000;stroke-width:1.26872;stroke-linecap:round;stroke-linejoin:round;stroke-miterlimit:10;stroke-dasharray:none;stroke-opacity:1"
               id="path1574" />
          </g>
        </g>
        <g
           id="g1576"
           transform="matrix(1,0,0,-1,0,792)">
          <g
             id="g1578">
            <path
               d="m 462.77392,298.60582 c -10.06892,-7.24622 9.82221,-6.79059 0,0"
               style="fill:none;stroke:#000000;stroke-width:1.26872;stroke-linecap:round;stroke-linejoin:round;stroke-miterlimit:10;stroke-dasharray:none;stroke-opacity:1"
               id="path1580"
               sodipodi:nodetypes="cc" />
          </g>
        </g>
        <g
           id="g1582"
           transform="matrix(1,0,0,-1,0,792)">
          <g
             id="g1584">
            <path
               d="m 444.94455,314.58395 c 2.50401,-1.54234 5.5111,1.60009 7.72748,1.82559"
               style="fill:none;stroke:#000000;stroke-width:1.26872;stroke-linecap:round;stroke-linejoin:round;stroke-miterlimit:10;stroke-dasharray:none;stroke-opacity:1"
               id="path1586" />
          </g>
        </g>
        <g
           id="g1588"
           transform="matrix(1,0,0,-1,0,792)">
          <g
             id="g1590">
            <path
               d="m 445.45395,328.52545 c 2.44407,-0.22825 5.24206,-0.29775 7.36023,1.19324"
               style="fill:none;stroke:#000000;stroke-width:1.26872;stroke-linecap:round;stroke-linejoin:round;stroke-miterlimit:10;stroke-dasharray:none;stroke-opacity:1"
               id="path1592" />
          </g>
        </g>
        <g
           id="g1594"
           transform="matrix(1,0,0,-1,0,792)">
          <g
             id="g1596">
            <path
               d="m 447.77545,339.07312 c -4.36668,-2.4086 8.30264,-0.46109 8.77472,0.61076"
               style="fill:none;stroke:#000000;stroke-width:1.26872;stroke-linecap:round;stroke-linejoin:round;stroke-miterlimit:10;stroke-dasharray:none;stroke-opacity:1"
               id="path1598" />
          </g>
        </g>
        <g
           id="g1600"
           transform="matrix(1,0,0,-1,0,792)">
          <g
             id="g1602">
            <path
               d="m 475.84402,337.5463 c -1.37638,-1.88548 6.99862,-1.06168 7.65561,-3.41254"
               style="fill:none;stroke:#000000;stroke-width:1.26872;stroke-linecap:round;stroke-linejoin:round;stroke-miterlimit:10;stroke-dasharray:none;stroke-opacity:1"
               id="path1604" />
          </g>
        </g>
        <g
           id="g1606"
           transform="matrix(1,0,0,-1,0,792)">
          <g
             id="g1608">
            <path
               d="m 475.75775,327.26932 c 3.05093,-2.37764 7.65261,0.23038 10.30258,-3.06247"
               style="fill:none;stroke:#000000;stroke-width:1.26872;stroke-linecap:round;stroke-linejoin:round;stroke-miterlimit:10;stroke-dasharray:none;stroke-opacity:1"
               id="path1610" />
          </g>
        </g>
        <g
           id="g1612"
           transform="matrix(1,0,0,-1,0,792)">
          <g
             id="g1614">
            <path
               d="m 476.5744,315.00885 c 2.75898,-1.9831 6.48145,-1.01201 9.41743,-2.61832"
               style="fill:none;stroke:#000000;stroke-width:1.26872;stroke-linecap:round;stroke-linejoin:round;stroke-miterlimit:10;stroke-dasharray:none;stroke-opacity:1"
               id="path1616" />
          </g>
        </g>
        <g
           id="g1618"
           transform="matrix(1,0,0,-1,0,792)">
          <g
             id="g1620">
            <path
               d="m 359.50562,166.4843 c 14.34423,1.15849 28.75081,1.98651 43.14225,1.30848"
               style="fill:none;stroke:#000000;stroke-width:1.26872;stroke-linecap:round;stroke-linejoin:round;stroke-miterlimit:10;stroke-dasharray:none;stroke-opacity:1"
               id="path1622" />
          </g>
        </g>
        <g
           id="g1624"
           transform="matrix(1,0,0,-1,0,792)">
          <g
             id="g1626">
            <path
               d="m 427.03024,167.94952 c 20.27713,2.44008 40.59752,5.51714 60.81045,0.68234 l 3.96619,-0.68937"
               style="fill:none;stroke:#000000;stroke-width:1.26872;stroke-linecap:round;stroke-linejoin:round;stroke-miterlimit:10;stroke-dasharray:none;stroke-opacity:1"
               id="path1628" />
          </g>
        </g>
        <g
           id="g1630"
           transform="matrix(1,0,0,-1,0,792)">
          <g
             id="g1632">
            <path
               d="m 517.62659,166.41937 c 13.18644,-1.17429 26.4477,-0.4858 39.65094,-1.30191"
               style="fill:none;stroke:#000000;stroke-width:1.26872;stroke-linecap:round;stroke-linejoin:round;stroke-miterlimit:10;stroke-dasharray:none;stroke-opacity:1"
               id="path1634" />
          </g>
        </g>
        <g
           id="g1636"
           transform="matrix(1,0,0,-1,0,792)">
          <g
             id="g1638">
            <path
               d="m 561.92246,385.60575 c 0,0 12.49554,-14.86133 18.39913,-21.20393"
               style="fill:none;stroke:#000000;stroke-width:2.61674;stroke-linecap:round;stroke-linejoin:round;stroke-miterlimit:10;stroke-dasharray:none;stroke-opacity:1"
               id="path1640"
               sodipodi:nodetypes="cc" />
          </g>
        </g>
        <g
           id="g1642"
           transform="matrix(1,0,0,-1,0,792)">
          <g
             id="g1644">
            <path
               d="m 563.58008,377.76172 c 0.82703,-5.03732 -0.38738,-10.10987 0.19252,-15.1589"
               style="fill:none;stroke:#000000;stroke-width:2.61674;stroke-linecap:round;stroke-linejoin:round;stroke-miterlimit:10;stroke-dasharray:none;stroke-opacity:1"
               id="path1646" />
          </g>
        </g>
        <g
           id="g1648"
           transform="matrix(1,0,0,-1,0,792)">
          <g
             id="g1650">
            <path
               d="m 574.16522,366.17371 c -9.19639,0.82713 -18.4161,-1.20512 -27.5664,0.81248"
               style="fill:none;stroke:#000000;stroke-width:2.61674;stroke-linecap:round;stroke-linejoin:round;stroke-miterlimit:10;stroke-dasharray:none;stroke-opacity:1"
               id="path1652" />
          </g>
        </g>
        <g
           id="g1654"
           transform="matrix(1,0,0,-1,0,792)">
          <g
             id="g1656">
            <path
               d="m 366.77828,386.04841 c 0.97581,-23.00061 -7.0577,-49.3608 -10.88326,-71.88647 -1.16622,-8.49644 -0.99555,-19.96146 0.41328,-28.48909"
               style="fill:none;stroke:#000000;stroke-width:2.61674;stroke-linecap:round;stroke-linejoin:round;stroke-miterlimit:10;stroke-dasharray:none;stroke-opacity:1"
               id="path1658"
               sodipodi:nodetypes="ccc" />
          </g>
        </g>
        <g
           id="g1660"
           transform="matrix(1,0,0,-1,0,792)">
          <g
             id="g1662">
            <path
               d="m 361.58243,341.1037 c 1.80841,-35.41866 -2.77189,-70.80395 -3.87103,-106.18708 -2.5891,-24.588 0.11637,-49.34671 -1.49794,-73.89543"
               style="fill:none;stroke:#000000;stroke-width:2.61674;stroke-linecap:round;stroke-linejoin:round;stroke-miterlimit:10;stroke-dasharray:none;stroke-opacity:1"
               id="path1664" />
          </g>
        </g>
        <g
           id="g1666"
           transform="matrix(1,0,0,-1,0,792)">
          <g
             id="g1668">
            <path
               d="m 352.75647,141.42602 c 0.63373,3.92742 3.0581,15.64612 3.45699,19.59517"
               style="fill:none;stroke:#000000;stroke-width:2.61674;stroke-linecap:round;stroke-linejoin:round;stroke-miterlimit:10;stroke-dasharray:none;stroke-opacity:1"
               id="path1670"
               sodipodi:nodetypes="cc" />
          </g>
        </g>
      </g>
    </g>
  </g>
</svg>
