<?xml version="1.0" encoding="UTF-8" standalone="no"?>
<!-- Created by Ashley Blewer - This work is licensed under a Creative Commons Attribution 4.0 International License -->

<svg
   width="544"
   height="480"
   viewBox="0 0 143.93334 127"
   version="1.1"
   id="svg2490"
   inkscape:version="1.2.2 (1:1.2.2+202212051552+b0a8486541)"
   sodipodi:docname="1965-dc-international-2.svg"
   xmlns:inkscape="http://www.inkscape.org/namespaces/inkscape"
   xmlns:sodipodi="http://sodipodi.sourceforge.net/DTD/sodipodi-0.dtd"
   xmlns="http://www.w3.org/2000/svg"
   xmlns:svg="http://www.w3.org/2000/svg">
  <sodipodi:namedview
     id="namedview2492"
     pagecolor="#ffffff"
     bordercolor="#666666"
     borderopacity="1.0"
     inkscape:pageshadow="2"
     inkscape:pageopacity="0.0"
     inkscape:pagecheckerboard="0"
     inkscape:document-units="mm"
     showgrid="false"
     units="px"
     inkscape:zoom="0.90583674"
     inkscape:cx="53.541657"
     inkscape:cy="253.35691"
     inkscape:window-width="1846"
     inkscape:window-height="1136"
     inkscape:window-x="0"
     inkscape:window-y="0"
     inkscape:window-maximized="1"
     inkscape:current-layer="g4731"
     inkscape:showpageshadow="2"
     inkscape:deskcolor="#d1d1d1" />
  <defs
     id="defs2487" />
  <g
     inkscape:label="Layer 1"
     inkscape:groupmode="layer"
     id="layer1">
    <g
       id="g4731"
       transform="matrix(0.32961229,0,0,0.32903008,-241.78905,1.73126)"
       style="stroke-width:2.68698">
      <g
         id="g104528"
         transform="matrix(1,0,0,-1,0,792)"
         style="stroke-width:2.68698">
        <g
           id="g104530"
           style="stroke-width:2.68698" />
      </g>
      <g
         id="g104996"
         transform="matrix(1,0,0,-1,0,792)"
         style="stroke-width:2.68698">
        <g
           id="g104998"
           style="stroke-width:2.68698" />
      </g>
      <g
         id="g4279"
         transform="matrix(1.012476,0,0,1.0142676,47.401514,-408.3716)">
        <g
           id="g706"
           transform="matrix(1,0,0,-1,0,792)">
          <g
             id="g708">
            <path
               d="m 782.91974,324.83179 c 2.15126,-0.46818 11.70682,-1.44191 15.39642,-3.17808"
               style="fill:none;stroke:#000000;stroke-width:2.61538;stroke-linecap:round;stroke-linejoin:round;stroke-miterlimit:10;stroke-dasharray:none;stroke-opacity:1"
               id="path710" />
          </g>
        </g>
        <g
           id="g712"
           transform="matrix(1,0,0,-1,0,792)">
          <g
             id="g714">
            <path
               d="m 797.82104,320.47177 c -0.17406,-5.15366 4.58115,-1.53816 7.18914,0.0536"
               style="fill:none;stroke:#000000;stroke-width:2.61538;stroke-linecap:round;stroke-linejoin:round;stroke-miterlimit:10;stroke-dasharray:none;stroke-opacity:1"
               id="path716" />
          </g>
        </g>
        <g
           id="g718"
           transform="matrix(1,0,0,-1,0,792)">
          <g
             id="g720">
            <path
               d="m 805.01018,320.52537 c 18.31859,-5.64632 40.03459,-10.06195 58.78902,-11.33019 -0.14121,0.0455 5.16767,-2.34947 4.7517,-2.82369"
               style="fill:none;stroke:#000000;stroke-width:2.61538;stroke-linecap:round;stroke-linejoin:round;stroke-miterlimit:10;stroke-dasharray:none;stroke-opacity:1"
               id="path722"
               sodipodi:nodetypes="ccc" />
          </g>
        </g>
        <g
           id="g724"
           transform="matrix(1,0,0,-1,0,792)">
          <g
             id="g726">
            <path
               d="m 868.5509,306.37149 c 0.35976,-2.43384 6.09765,-5.43585 7.57182,0.14812 -0.14107,-0.30362 4.90888,-1.36053 3.2651,-1.86287"
               style="fill:none;stroke:#000000;stroke-width:2.61538;stroke-linecap:round;stroke-linejoin:round;stroke-miterlimit:10;stroke-dasharray:none;stroke-opacity:1"
               id="path728"
               sodipodi:nodetypes="ccc" />
          </g>
        </g>
        <g
           id="g730"
           transform="matrix(1,0,0,-1,0,792)">
          <g
             id="g732">
            <path
               d="m 879.38782,304.65674 c 0,0 98.26576,-18.47546 97.84158,-19.60813"
               style="fill:none;stroke:#000000;stroke-width:2.61538;stroke-linecap:round;stroke-linejoin:round;stroke-miterlimit:10;stroke-dasharray:none;stroke-opacity:1"
               id="path734"
               sodipodi:nodetypes="cc" />
          </g>
        </g>
        <g
           id="g736"
           transform="matrix(1,0,0,-1,0,792)">
          <g
             id="g738">
            <path
               d="m 977.2294,285.04861 c -4.01274,-5.37284 9.46287,-7.72706 8.89676,-2.6467 0.0448,0.83897 0.29269,-0.38072 0.0972,0.0596"
               style="fill:none;stroke:#000000;stroke-width:2.61538;stroke-linecap:round;stroke-linejoin:round;stroke-miterlimit:10;stroke-dasharray:none;stroke-opacity:1"
               id="path740"
               sodipodi:nodetypes="ccc" />
          </g>
        </g>
        <g
           id="g742"
           transform="matrix(1,0,0,-1,0,792)">
          <g
             id="g744">
            <path
               d="m 986.22336,282.46151 c 22.54644,-3.58722 69.61284,-15.18462 69.61284,-15.18462 v 0"
               style="fill:none;stroke:#000000;stroke-width:2.61538;stroke-linecap:round;stroke-linejoin:round;stroke-miterlimit:10;stroke-dasharray:none;stroke-opacity:1"
               id="path746"
               sodipodi:nodetypes="ccc" />
          </g>
        </g>
        <g
           id="g748"
           transform="matrix(1,0,0,-1,0,792)">
          <g
             id="g750">
            <path
               d="m 1055.8362,267.27689 c -1.8583,-4.5852 8.161,-4.21641 8.1897,-1.74514"
               style="fill:none;stroke:#000000;stroke-width:2.61538;stroke-linecap:round;stroke-linejoin:round;stroke-miterlimit:10;stroke-dasharray:none;stroke-opacity:1"
               id="path752"
               sodipodi:nodetypes="cc" />
          </g>
        </g>
        <g
           id="g754"
           transform="matrix(1,0,0,-1,0,792)">
          <g
             id="g756">
            <path
               d="m 1064.0259,265.53175 c 0,0 14.0207,-3.81593 19.1877,-5.96589"
               style="fill:none;stroke:#000000;stroke-width:2.61538;stroke-linecap:round;stroke-linejoin:round;stroke-miterlimit:10;stroke-dasharray:none;stroke-opacity:1"
               id="path758"
               sodipodi:nodetypes="cc" />
          </g>
        </g>
        <g
           id="g760"
           transform="matrix(1,0,0,-1,0,792)">
          <g
             id="g762">
            <path
               d="m 1083.2136,259.56586 c -9.2549,-41.75677 -17.6554,-88.55953 -28.7474,-125.56794 -2.5614,-13.68922 -6.9026,-27.40985 -10.2182,-40.47832 0.7634,0.245155 -4.3627,-3.917262 -4.4922,-2.3337"
               style="fill:none;stroke:#000000;stroke-width:2.61538;stroke-linecap:round;stroke-linejoin:round;stroke-miterlimit:10;stroke-dasharray:none;stroke-opacity:1"
               id="path764"
               sodipodi:nodetypes="cccc" />
          </g>
        </g>
        <g
           id="g766"
           transform="matrix(1,0,0,-1,0,792)">
          <g
             id="g768">
            <path
               d="m 1055.2218,139.3949 c -4.0999,-2.74161 -6.6853,-10.57233 -3.4473,-13.98776"
               style="fill:none;stroke:#000000;stroke-width:2.61538;stroke-linecap:round;stroke-linejoin:round;stroke-miterlimit:10;stroke-dasharray:none;stroke-opacity:1"
               id="path770" />
          </g>
        </g>
        <g
           id="g772"
           transform="matrix(1,0,0,-1,0,792)">
          <g
             id="g774">
            <path
               d="m 1062.679,172.86629 c -2.5701,0.78269 -6.1948,-7.76283 -2.1486,-10.22337"
               style="fill:none;stroke:#000000;stroke-width:2.61538;stroke-linecap:round;stroke-linejoin:round;stroke-miterlimit:10;stroke-dasharray:none;stroke-opacity:1"
               id="path776" />
          </g>
        </g>
        <g
           id="g778"
           transform="matrix(1,0,0,-1,0,792)">
          <g
             id="g780">
            <path
               d="m 782.91974,324.83179 c 0,0 -6.87444,-12.99381 -10.34203,-16.85288 -10.58168,-15.55059 -19.83204,-32.41749 -30.84656,-46.97592 -2.62916,-3.52674 -5.84974,-6.78783 -5.61159,-8.59501 2.40913,-4.61557 -6.64353,-5.91621 -7.81881,-10.05538 -3.13375,-5.47161 -8.33766,-16.46035 -10.91894,-16.80456"
               style="fill:none;stroke:#000000;stroke-width:2.61538;stroke-linecap:round;stroke-linejoin:round;stroke-miterlimit:10;stroke-dasharray:none;stroke-opacity:1"
               id="path782"
               sodipodi:nodetypes="cccccc" />
          </g>
        </g>
        <g
           id="g784"
           transform="matrix(1,0,0,-1,0,792)">
          <g
             id="g786">
            <path
               d="m 717.03705,223.01353 c 1.82038,-4.94953 -2.07267,-9.6258 -7.22854,-11.02542"
               style="fill:none;stroke:#000000;stroke-width:2.61538;stroke-linecap:round;stroke-linejoin:round;stroke-miterlimit:10;stroke-dasharray:none;stroke-opacity:1"
               id="path788" />
          </g>
        </g>
        <g
           id="g790"
           transform="matrix(1,0,0,-1,0,792)">
          <g
             id="g792">
            <path
               d="m 709.6059,211.80086 c -1.72528,-9.83132 -15.27373,-19.21938 -10.87025,-28.53309 1.48218,0.23614 0.41088,-2.43968 1.66137,-1.27809"
               style="fill:none;stroke:#000000;stroke-width:2.61538;stroke-linecap:round;stroke-linejoin:round;stroke-miterlimit:10;stroke-dasharray:none;stroke-opacity:1"
               id="path794" />
          </g>
        </g>
        <g
           id="g796"
           transform="matrix(1,0,0,-1,0,792)">
          <g
             id="g798">
            <path
               d="m 698.12394,187.47451 c 0,0 1.38767,-18.43483 5.3326,-25.35842"
               style="fill:none;stroke:#000000;stroke-width:2.61538;stroke-linecap:round;stroke-linejoin:round;stroke-miterlimit:10;stroke-dasharray:none;stroke-opacity:1"
               id="path800"
               sodipodi:nodetypes="cc" />
          </g>
        </g>
        <g
           id="g802"
           transform="matrix(1,0,0,-1,0,792)">
          <g
             id="g804">
            <path
               d="m 700.39702,181.98968 c 77.25736,-25.25832 160.15095,-47.80554 232.29266,-66.65607 34.67728,-5.7913 67.93982,-18.262649 102.44312,-24.136434 2.7478,-0.572056 4.7393,0.932443 6.9057,2.075223"
               style="fill:none;stroke:#000000;stroke-width:2.61538;stroke-linecap:round;stroke-linejoin:round;stroke-miterlimit:10;stroke-dasharray:none;stroke-opacity:1"
               id="path806"
               sodipodi:nodetypes="cccc" />
          </g>
        </g>
        <g
           id="g808"
           transform="matrix(1,0,0,-1,0,792)">
          <g
             id="g810">
            <path
               d="m 703.45654,162.11609 c 105.52845,-38.31165 215.67029,-61.28035 324.93666,-85.991451 8.3698,1.232985 16.3126,8.629413 15.8548,17.394961"
               style="fill:none;stroke:#000000;stroke-width:2.61538;stroke-linecap:round;stroke-linejoin:round;stroke-miterlimit:10;stroke-dasharray:none;stroke-opacity:1"
               id="path812"
               sodipodi:nodetypes="cccccc" />
          </g>
        </g>
        <g
           id="g814"
           transform="matrix(1,0,0,-1,0,792)">
          <g
             id="g816">
            <path
               d="m 993.83777,90.5215 c -0.22903,-1.55032 0.41964,3.012868 -0.29975,3.484016"
               style="fill:none;stroke:#000000;stroke-width:2.61538;stroke-linecap:round;stroke-linejoin:round;stroke-miterlimit:10;stroke-dasharray:none;stroke-opacity:1"
               id="path818" />
          </g>
        </g>
        <g
           id="g820"
           transform="matrix(1,0,0,-1,0,792)">
          <g
             id="g822">
            <path
               d="m 993.62134,93.613861 c 0,0 11.45366,-2.300196 14.90616,-3.87503"
               style="fill:none;stroke:#000000;stroke-width:2.61538;stroke-linecap:round;stroke-linejoin:round;stroke-miterlimit:10;stroke-dasharray:none;stroke-opacity:1"
               id="path824"
               sodipodi:nodetypes="cc" />
          </g>
        </g>
        <g
           id="g826"
           transform="matrix(1,0,0,-1,0,792)">
          <g
             id="g828">
            <path
               d="m 1009.0385,89.11132 -0.6287,-4.053894"
               style="fill:none;stroke:#000000;stroke-width:2.61538;stroke-linecap:round;stroke-linejoin:round;stroke-miterlimit:10;stroke-dasharray:none;stroke-opacity:1"
               id="path830"
               sodipodi:nodetypes="cc" />
          </g>
        </g>
        <g
           id="g832"
           transform="matrix(1,0,0,-1,0,792)">
          <g
             id="g834">
            <path
               d="m 993.09241,89.729095 c 5.22085,-1.311876 9.96079,-3.769722 15.31739,-4.671669"
               style="fill:none;stroke:#000000;stroke-width:2.61538;stroke-linecap:round;stroke-linejoin:round;stroke-miterlimit:10;stroke-dasharray:none;stroke-opacity:1"
               id="path836" />
          </g>
        </g>
        <g
           id="g838"
           transform="matrix(1,0,0,-1,0,792)">
          <g
             id="g840">
            <path
               d="m 718.83411,168.89108 c 4.17497,-0.39988 9.44974,-3.01573 13.95567,-4.32058"
               style="fill:none;stroke:#000000;stroke-width:2.61538;stroke-linecap:round;stroke-linejoin:round;stroke-miterlimit:10;stroke-dasharray:none;stroke-opacity:1"
               id="path842" />
          </g>
        </g>
        <g
           id="g844"
           transform="matrix(1,0,0,-1,0,792)">
          <g
             id="g846">
            <path
               d="m 732.78978,164.5705 c -0.0662,1.28817 1.75853,-8.33869 0.76596,-6.27668"
               style="fill:none;stroke:#000000;stroke-width:2.61538;stroke-linecap:round;stroke-linejoin:round;stroke-miterlimit:10;stroke-dasharray:none;stroke-opacity:1"
               id="path848"
               sodipodi:nodetypes="cc" />
          </g>
        </g>
        <g
           id="g850"
           transform="matrix(1,0,0,-1,0,792)">
          <g
             id="g852">
            <path
               d="m 718.83411,168.89108 c 0.64535,-0.98614 -0.33974,-4.01503 0.0378,-4.77776"
               style="fill:none;stroke:#000000;stroke-width:2.61538;stroke-linecap:round;stroke-linejoin:round;stroke-miterlimit:10;stroke-dasharray:none;stroke-opacity:1"
               id="path854"
               sodipodi:nodetypes="cc" />
          </g>
        </g>
        <g
           id="g856"
           transform="matrix(1,0,0,-1,0,792)">
          <g
             id="g858">
            <path
               d="m 719.64423,163.46733 c 2.59428,-2.95906 9.69174,-3.68764 13.91151,-5.17351"
               style="fill:none;stroke:#000000;stroke-width:2.61538;stroke-linecap:round;stroke-linejoin:round;stroke-miterlimit:10;stroke-dasharray:none;stroke-opacity:1"
               id="path860" />
          </g>
        </g>
        <g
           id="g862"
           transform="matrix(1,0,0,-1,0,792)">
          <g
             id="g864">
            <path
               d="m 775.07532,157.88861 c 0.10069,-4.61944 -0.12369,-13.46745 2.84435,-16.38836"
               style="fill:none;stroke:#000000;stroke-width:2.61538;stroke-linecap:round;stroke-linejoin:round;stroke-miterlimit:10;stroke-dasharray:none;stroke-opacity:1"
               id="path866" />
          </g>
        </g>
        <g
           id="g868"
           transform="matrix(1,0,0,-1,0,792)">
          <g
             id="g870">
            <path
               d="m 777.91967,141.50025 c 11.57031,-0.48911 38.07196,-9.72338 38.07196,-9.72338 0,0 2.92628,-0.98203 1.34947,0.28271"
               style="fill:none;stroke:#000000;stroke-width:2.61538;stroke-linecap:round;stroke-linejoin:round;stroke-miterlimit:10;stroke-dasharray:none;stroke-opacity:1"
               id="path872"
               sodipodi:nodetypes="ccc" />
          </g>
        </g>
        <g
           id="g874"
           transform="matrix(1,0,0,-1,0,792)">
          <g
             id="g876">
            <path
               d="m 817.02277,131.9801 c 1.528,3.99184 -2.49765,10.58884 -2.70486,15.11629"
               style="fill:none;stroke:#000000;stroke-width:2.61538;stroke-linecap:round;stroke-linejoin:round;stroke-miterlimit:10;stroke-dasharray:none;stroke-opacity:1"
               id="path878" />
          </g>
        </g>
        <g
           id="g880"
           transform="matrix(1,0,0,-1,0,792)">
          <g
             id="g882">
            <path
               d="m 834.49463,141.05421 c 0.42536,-2.27109 -1.19854,-12.38914 1.03605,-13.78745"
               style="fill:none;stroke:#000000;stroke-width:2.61538;stroke-linecap:round;stroke-linejoin:round;stroke-miterlimit:10;stroke-dasharray:none;stroke-opacity:1"
               id="path884" />
          </g>
        </g>
        <g
           id="g886"
           transform="matrix(1,0,0,-1,0,792)">
          <g
             id="g888">
            <path
               d="m 835.85217,126.70556 c 0,0 34.14047,-9.06917 48.87976,-13.04715"
               style="fill:none;stroke:#000000;stroke-width:2.61538;stroke-linecap:round;stroke-linejoin:round;stroke-miterlimit:10;stroke-dasharray:none;stroke-opacity:1"
               id="path890"
               sodipodi:nodetypes="cc" />
          </g>
        </g>
        <g
           id="g892"
           transform="matrix(1,0,0,-1,0,792)">
          <g
             id="g894">
            <path
               d="m 884.73193,113.65841 c 1.51456,2.1744 2.52256,10.86882 0.45784,14.16489"
               style="fill:none;stroke:#000000;stroke-width:2.61538;stroke-linecap:round;stroke-linejoin:round;stroke-miterlimit:10;stroke-dasharray:none;stroke-opacity:1"
               id="path896" />
          </g>
        </g>
        <g
           id="g898"
           transform="matrix(1,0,0,-1,0,792)">
          <g
             id="g900">
            <path
               d="m 902.42965,123.04142 c 0,0 -2.25415,-12.87891 0.67612,-13.40506"
               style="fill:none;stroke:#000000;stroke-width:2.61538;stroke-linecap:round;stroke-linejoin:round;stroke-miterlimit:10;stroke-dasharray:none;stroke-opacity:1"
               id="path902"
               sodipodi:nodetypes="cc" />
          </g>
        </g>
        <g
           id="g904"
           transform="matrix(1,0,0,-1,0,792)">
          <g
             id="g906">
            <path
               d="m 903.10577,109.63636 c 11.46296,-6.29412 26.50078,-8.37919 39.84699,-10.996857 l -0.43408,0.168892"
               style="fill:none;stroke:#000000;stroke-width:2.61538;stroke-linecap:round;stroke-linejoin:round;stroke-miterlimit:10;stroke-dasharray:none;stroke-opacity:1"
               id="path908" />
          </g>
        </g>
        <g
           id="g910"
           transform="matrix(1,0,0,-1,0,792)">
          <g
             id="g912">
            <path
               d="m 942.95276,98.639503 c 2.43364,2.325767 0.86455,11.973487 -1.40656,14.917777"
               style="fill:none;stroke:#000000;stroke-width:2.61538;stroke-linecap:round;stroke-linejoin:round;stroke-miterlimit:10;stroke-dasharray:none;stroke-opacity:1"
               id="path914"
               sodipodi:nodetypes="cc" />
          </g>
        </g>
        <g
           id="g916"
           transform="matrix(1,0,0,-1,0,792)">
          <g
             id="g918">
            <path
               d="m 1029.3446,122.2494 c -6.2576,1.27024 -5.906,-12.72755 2.4659,-8.36726 5.165,1.96772 3.5526,8.95901 -2.4659,8.36726"
               style="fill:none;stroke:#000000;stroke-width:2.61538;stroke-linecap:round;stroke-linejoin:round;stroke-miterlimit:10;stroke-dasharray:none;stroke-opacity:1"
               id="path920"
               sodipodi:nodetypes="ccc" />
          </g>
        </g>
        <g
           id="g922"
           transform="matrix(1,0,0,-1,0,792)">
          <g
             id="g924">
            <path
               d="m 1020.3461,107.5496 c -7.7048,0.33184 1.5898,-12.447599 6.9261,-5.77699 1.9446,4.36436 -3.7262,5.89623 -6.9261,5.77699"
               style="fill:none;stroke:#000000;stroke-width:2.61538;stroke-linecap:round;stroke-linejoin:round;stroke-miterlimit:10;stroke-dasharray:none;stroke-opacity:1"
               id="path926"
               sodipodi:nodetypes="ccc" />
          </g>
        </g>
        <g
           id="g928"
           transform="matrix(1,0,0,-1,0,792)">
          <g
             id="g930">
            <path
               d="m 919.62488,140.69365 c -4.03809,-1.03616 -6.8768,-13.41628 2.15486,-10.93272 7.69405,3.32041 5.73843,14.20076 -2.15486,10.93272"
               style="fill:none;stroke:#000000;stroke-width:2.61538;stroke-linecap:round;stroke-linejoin:round;stroke-miterlimit:10;stroke-dasharray:none;stroke-opacity:1"
               id="path932"
               sodipodi:nodetypes="ccc" />
          </g>
        </g>
        <g
           id="g934"
           transform="matrix(1,0,0,-1,0,792)">
          <g
             id="g936">
            <path
               d="m 804.08526,167.48809 c -5.6591,0.70397 -8.29783,-8.29077 0.67044,-7.82768 6.51909,-0.73699 8.07655,8.73324 -0.67044,7.82768 0,0 0.85334,0.93522 0,0"
               style="fill:none;stroke:#000000;stroke-width:2.61538;stroke-linecap:round;stroke-linejoin:round;stroke-miterlimit:10;stroke-dasharray:none;stroke-opacity:1"
               id="path938"
               sodipodi:nodetypes="cccc" />
          </g>
        </g>
        <g
           id="g940"
           transform="matrix(1,0,0,-1,0,792)">
          <g
             id="g942">
            <path
               d="m 864.67529,162.11418 c -8.51005,0.18025 4.55409,-8.99827 4.40644,-2.05257 -0.6834,1.46038 -2.859,2.83725 -4.40644,2.05257"
               style="fill:none;stroke:#000000;stroke-width:2.61538;stroke-linecap:round;stroke-linejoin:round;stroke-miterlimit:10;stroke-dasharray:none;stroke-opacity:1"
               id="path944"
               sodipodi:nodetypes="ccc" />
          </g>
        </g>
        <g
           id="g946"
           transform="matrix(1,0,0,-1,0,792)">
          <g
             id="g948">
            <path
               d="m 716.58948,200.79034 c -8.08866,-5.62126 8.88145,-10.95121 5.30443,-0.60848 -1.06814,1.5793 -3.92937,1.85298 -5.30443,0.60848"
               style="fill:none;stroke:#000000;stroke-width:2.61538;stroke-linecap:round;stroke-linejoin:round;stroke-miterlimit:10;stroke-dasharray:none;stroke-opacity:1"
               id="path950"
               sodipodi:nodetypes="ccc" />
          </g>
        </g>
        <g
           id="g952"
           transform="matrix(1,0,0,-1,0,792)">
          <g
             id="g954">
            <path
               d="m 711.61563,190.32456 c -8.62483,-2.15355 6.59637,-10.74583 6.05002,-3.01625 -0.46513,2.57444 -3.71667,4.57102 -6.05002,3.01625"
               style="fill:none;stroke:#000000;stroke-width:2.61538;stroke-linecap:round;stroke-linejoin:round;stroke-miterlimit:10;stroke-dasharray:none;stroke-opacity:1"
               id="path956"
               sodipodi:nodetypes="ccc" />
          </g>
        </g>
        <g
           id="g958"
           transform="matrix(1,0,0,-1,0,792)">
          <g
             id="g960">
            <path
               d="m 919.60462,284.09491 c -4.4267,-7.22171 9.29554,-2.21742 0,0"
               style="fill:none;stroke:#000000;stroke-width:2.61538;stroke-linecap:round;stroke-linejoin:round;stroke-miterlimit:10;stroke-dasharray:none;stroke-opacity:1"
               id="path962"
               sodipodi:nodetypes="cc" />
          </g>
        </g>
        <g
           id="g964"
           transform="matrix(1,0,0,-1,0,792)">
          <g
             id="g966">
            <path
               d="m 835.1346,256.01135 c 10.46377,-0.002 18.45014,-3.52697 14.38636,-14.33033 -2.3061,-13.08497 -24.4449,-15.04109 -33.00247,-3.83767 -7.10914,8.99277 9.97219,19.61474 18.61611,18.168"
               style="fill:none;stroke:#000000;stroke-width:2.61538;stroke-linecap:round;stroke-linejoin:round;stroke-miterlimit:10;stroke-dasharray:none;stroke-opacity:1"
               id="path968"
               sodipodi:nodetypes="cccc" />
          </g>
        </g>
        <g
           id="g970"
           transform="matrix(1,0,0,-1,0,792)">
          <g
             id="g972">
            <path
               d="m 818.59623,236.22514 c 2.75217,-0.47585 6.70024,1.14439 5.7131,5.6877 1.99697,8.19336 7.9741,-2.2151 12.22846,1.99874 3.70825,5.09974 7.62986,0.0968 8.70304,-3.59005 1.70281,-0.60561 1.89591,-0.20092 2.85913,-1.06029"
               style="fill:none;stroke:#000000;stroke-width:2.61538;stroke-linecap:round;stroke-linejoin:round;stroke-miterlimit:10;stroke-dasharray:none;stroke-opacity:1"
               id="path974"
               sodipodi:nodetypes="ccccc" />
          </g>
        </g>
        <g
           id="g976"
           transform="matrix(1,0,0,-1,0,792)">
          <g
             id="g978">
            <path
               d="m 957.9862,224.25558 c 12.25123,3.87547 21.72432,-0.9547 28.01179,-10.31308 3.12965,-10.81962 -12.62997,-18.34625 -22.40289,-15.04556 -11.27639,1.01882 -19.01611,11.96416 -13.74739,21.13841 0.81075,2.64706 6.9423,4.66933 8.13849,4.22023"
               style="fill:none;stroke:#000000;stroke-width:2.61538;stroke-linecap:round;stroke-linejoin:round;stroke-miterlimit:10;stroke-dasharray:none;stroke-opacity:1"
               id="path980"
               sodipodi:nodetypes="ccccc" />
          </g>
        </g>
        <g
           id="g982"
           transform="matrix(1,0,0,-1,0,792)">
          <g
             id="g984">
            <path
               d="m 951.89545,204.61139 c -2.96539,1.64661 1.94201,8.28821 7.45059,5.69983 -0.0522,5.65348 10.32671,9.43023 11.34637,2.31775 2.30918,-4.08788 13.67009,-0.4946 11.87017,-6.60304 l -0.32092,-0.0128 0.86621,-0.37326"
               style="fill:none;stroke:#000000;stroke-width:2.61538;stroke-linecap:round;stroke-linejoin:round;stroke-miterlimit:10;stroke-dasharray:none;stroke-opacity:1"
               id="path986" />
          </g>
        </g>
        <g
           id="g988"
           transform="matrix(1,0,0,-1,0,792)">
          <g
             id="g990">
            <path
               d="m 862.06665,230.12033 c 1.70274,1.08623 5.73341,9.80753 8.21661,12.20961"
               style="fill:none;stroke:#000000;stroke-width:2.61538;stroke-linecap:round;stroke-linejoin:round;stroke-miterlimit:10;stroke-dasharray:none;stroke-opacity:1"
               id="path992"
               sodipodi:nodetypes="cc" />
          </g>
        </g>
        <g
           id="g994"
           transform="matrix(1,0,0,-1,0,792)">
          <g
             id="g996">
            <path
               d="m 870.28326,242.32994 60.9465,-15.45506 c -2.5e-4,-3.00819 -1.03242,-10.54881 -2.94424,-12.92915"
               style="fill:none;stroke:#000000;stroke-width:2.61538;stroke-linecap:round;stroke-linejoin:round;stroke-miterlimit:10;stroke-dasharray:none;stroke-opacity:1"
               id="path998"
               sodipodi:nodetypes="ccc" />
          </g>
        </g>
        <g
           id="g1000"
           transform="matrix(1,0,0,-1,0,792)">
          <g
             id="g1002">
            <path
               d="m 862.06665,230.12033 66.21887,-16.1746"
               style="fill:none;stroke:#000000;stroke-width:2.61538;stroke-linecap:round;stroke-linejoin:round;stroke-miterlimit:10;stroke-dasharray:none;stroke-opacity:1"
               id="path1004"
               sodipodi:nodetypes="cc" />
          </g>
        </g>
        <g
           id="g1006"
           transform="matrix(1,0,0,-1,0,792)">
          <g
             id="g1008">
            <path
               d="m 778.44653,303.29794 c 0,0 267.23427,-51.99401 287.17047,-61.09922"
               style="fill:none;stroke:#000000;stroke-width:1.30769;stroke-linecap:round;stroke-linejoin:round;stroke-miterlimit:10;stroke-dasharray:none;stroke-opacity:1"
               id="path1010"
               sodipodi:nodetypes="cc" />
          </g>
        </g>
        <g
           id="g1012"
           transform="matrix(1,0,0,-1,0,792)">
          <g
             id="g1014">
            <path
               d="m 1065.617,242.19872 c 3.401,-12.43298 -3.2054,-25.17964 -4.5124,-37.28194 -6.5518,-23.43248 -13.7496,-46.70133 -18.9178,-70.49384 -0.5836,-2.07161 -1.2488,-4.12188 -2.0417,-6.12344"
               style="fill:none;stroke:#000000;stroke-width:1.30769;stroke-linecap:round;stroke-linejoin:round;stroke-miterlimit:10;stroke-dasharray:none;stroke-opacity:1"
               id="path1016"
               sodipodi:nodetypes="cccc" />
          </g>
        </g>
        <g
           id="g1018"
           transform="matrix(1,0,0,-1,0,792)">
          <g
             id="g1020">
            <path
               d="m 778.44653,303.29794 c -3.87906,-7.57431 -10.29164,-15.91692 -15.29542,-23.74305 -9.65554,-15.84086 -18.5825,-31.41067 -29.22601,-46.50382 -4.29907,-9.33563 -13.36812,-16.56442 -15.81353,-24.15164 0.68756,-1.9995 2.82091,-3.02596 5.40896,-3.18502"
               style="fill:none;stroke:#000000;stroke-width:1.30769;stroke-linecap:round;stroke-linejoin:round;stroke-miterlimit:10;stroke-dasharray:none;stroke-opacity:1"
               id="path1022" />
          </g>
        </g>
        <g
           id="g1024"
           transform="matrix(1,0,0,-1,0,792)">
          <g
             id="g1026">
            <path
               d="M 723.52053,205.71441 C 828.05693,180.7474 934.27393,147.49425 1040.1451,128.2995"
               style="fill:none;stroke:#000000;stroke-width:1.30769;stroke-linecap:round;stroke-linejoin:round;stroke-miterlimit:10;stroke-dasharray:none;stroke-opacity:1"
               id="path1028"
               sodipodi:nodetypes="cc" />
          </g>
        </g>
        <g
           id="g1030"
           transform="matrix(1,0,0,-1,0,792)">
          <g
             id="g1032">
            <path
               d="m 840.42523,262.19519 c 38.18039,-5.90366 75.98221,-15.23349 113.66734,-23.9565 15.17821,-1.77117 32.00497,-9.22115 36.30895,-23.71386 1.39676,-8.46177 -7.17453,-19.21003 -17.63814,-20.09703 -1.58216,-0.73741 -5.81659,-0.23657 -7.3096,0.84607"
               style="fill:none;stroke:#000000;stroke-width:1.30769;stroke-linecap:round;stroke-linejoin:round;stroke-miterlimit:10;stroke-dasharray:none;stroke-opacity:1"
               id="path1034"
               sodipodi:nodetypes="ccccc" />
          </g>
        </g>
        <g
           id="g1036"
           transform="matrix(1,0,0,-1,0,792)">
          <g
             id="g1038">
            <path
               d="m 840.42523,262.19519 c -26.88568,5.92361 -46.23514,-22.83488 -21.30568,-32.15536 17.56248,-3.73584 34.57682,-9.14448 51.80963,-14.21051 31.44894,-8.27859 62.78121,-13.58853 94.5246,-20.55545"
               style="fill:none;stroke:#000000;stroke-width:1.30769;stroke-linecap:round;stroke-linejoin:round;stroke-miterlimit:10;stroke-dasharray:none;stroke-opacity:1"
               id="path1040"
               sodipodi:nodetypes="cccc" />
          </g>
        </g>
        <g
           id="g1042"
           transform="matrix(1,0,0,-1,0,792)">
          <g
             id="g1044">
            <path
               d="m 805.8288,312.42218 c -0.1776,0.0243 -4.88959,-5.9008 -5.22467,-7.84415"
               style="fill:none;stroke:#000000;stroke-width:1.30769;stroke-linecap:round;stroke-linejoin:round;stroke-miterlimit:10;stroke-dasharray:none;stroke-opacity:1"
               id="path1046" />
          </g>
        </g>
        <g
           id="g1048"
           transform="matrix(1,0,0,-1,0,792)">
          <g
             id="g1050">
            <path
               d="m 805.8288,312.42218 c 35.40841,-9.01148 75.0438,-17.12733 110.71301,-25.02029"
               style="fill:none;stroke:#000000;stroke-width:1.30769;stroke-linecap:round;stroke-linejoin:round;stroke-miterlimit:10;stroke-dasharray:none;stroke-opacity:1"
               id="path1052"
               sodipodi:nodetypes="cc" />
          </g>
        </g>
        <g
           id="g1054"
           transform="matrix(1,0,0,-1,0,792)">
          <g
             id="g1056">
            <path
               d="m 924.8407,286.57266 c 38.32307,-9.47411 77.8856,-14.33009 116.0761,-24.16223 2.1357,-0.79705 8.5163,-3.60095 9.5153,-5.20462"
               style="fill:none;stroke:#000000;stroke-width:1.30769;stroke-linecap:round;stroke-linejoin:round;stroke-miterlimit:10;stroke-dasharray:none;stroke-opacity:1"
               id="path1058"
               sodipodi:nodetypes="ccc" />
          </g>
        </g>
        <g
           id="g1060"
           transform="matrix(1,0,0,-1,0,792)">
          <g
             id="g1062">
            <path
               d="m 1050.4321,257.20581 c 0,0 -0.5826,-6.19663 -2.5765,-5.27556"
               style="fill:none;stroke:#000000;stroke-width:1.30769;stroke-linecap:round;stroke-linejoin:round;stroke-miterlimit:10;stroke-dasharray:none;stroke-opacity:1"
               id="path1064"
               sodipodi:nodetypes="cc" />
          </g>
        </g>
        <g
           id="g1066"
           transform="matrix(1,0,0,-1,0,792)">
          <g
             id="g1068">
            <path
               d="m 794.972,305.51545 c 23.50634,-7.90485 50.99274,-12.50544 75.80088,-17.26029 13.71651,-3.64853 28.89977,-4.71316 42.00109,-8.24028"
               style="fill:none;stroke:#000000;stroke-width:1.30769;stroke-linecap:round;stroke-linejoin:round;stroke-miterlimit:10;stroke-dasharray:none;stroke-opacity:1"
               id="path1070"
               sodipodi:nodetypes="ccc" />
          </g>
        </g>
        <g
           id="g1072"
           transform="matrix(1,0,0,-1,0,792)">
          <g
             id="g1074">
            <path
               d="m 920.89728,277.15384 c 0,0 126.95832,-25.22359 124.78352,-25.84991 0.7429,0.31579 2.1365,0.39162 2.1748,0.62632"
               style="fill:none;stroke:#000000;stroke-width:1.30769;stroke-linecap:round;stroke-linejoin:round;stroke-miterlimit:10;stroke-dasharray:none;stroke-opacity:1"
               id="path1076"
               sodipodi:nodetypes="ccc" />
          </g>
        </g>
        <g
           id="g1078"
           transform="matrix(1,0,0,-1,0,792)">
          <g
             id="g1080">
            <path
               d="m 990.8725,131.50389 c 7.19328,-0.24527 12.98,-8.87093 9.3497,-15.42292 -1.46595,-3.59568 -4.59172,-6.52591 -8.54092,-7.02792 -5.43942,-0.8478 -11.40313,0.93411 -15.24407,4.92137 -1.98102,2.88483 -0.85873,6.79737 0.17096,9.85902 1.72948,4.69751 6.56168,8.01187 11.6054,7.56161 0.87904,0.0469 1.79994,-0.0735 2.65893,0.10884 z"
               style="fill:none;stroke:#000000;stroke-width:1.30769;stroke-linecap:round;stroke-linejoin:round;stroke-miterlimit:10;stroke-dasharray:none;stroke-opacity:1"
               id="path1082"
               sodipodi:nodetypes="ccccc" />
          </g>
        </g>
        <g
           id="g1084"
           transform="matrix(1,0,0,-1,0,792)">
          <g
             id="g1086">
            <path
               d="m 750.67816,194.48654 c 10.80592,0.70793 15.58587,-11.70702 5.94216,-17.67567 -8.908,-7.13635 -26.81862,-3.19159 -23.47064,8.29687 3.78768,5.70269 7.01832,9.50111 17.52848,9.3788"
               style="fill:none;stroke:#000000;stroke-width:1.30769;stroke-linecap:round;stroke-linejoin:round;stroke-miterlimit:10;stroke-dasharray:none;stroke-opacity:1"
               id="path1088"
               sodipodi:nodetypes="cccc" />
          </g>
        </g>
        <g
           id="g1090"
           transform="matrix(1,0,0,-1,0,792)">
          <g
             id="g1092">
            <path
               d="m 822.59204,165.07573 c 0.14024,-0.62932 -3.74249,-5.7806 -3.35867,-6.25782"
               style="fill:none;stroke:#000000;stroke-width:1.30769;stroke-linecap:round;stroke-linejoin:round;stroke-miterlimit:10;stroke-dasharray:none;stroke-opacity:1"
               id="path1094" />
          </g>
        </g>
        <g
           id="g1096"
           transform="matrix(1,0,0,-1,0,792)">
          <g
             id="g1098">
            <path
               d="m 822.59204,165.07573 c 28.04202,-6.70505 57.78005,-15.53466 85.65338,-22.66469 l 0.46198,-0.81995"
               style="fill:none;stroke:#000000;stroke-width:1.30769;stroke-linecap:round;stroke-linejoin:round;stroke-miterlimit:10;stroke-dasharray:none;stroke-opacity:1"
               id="path1100"
               sodipodi:nodetypes="ccc" />
          </g>
        </g>
        <g
           id="g1102"
           transform="matrix(1,0,0,-1,0,792)">
          <g
             id="g1104">
            <path
               d="m 908.7074,141.59109 c 0.18412,-0.89947 -4.36443,-7.14566 -5.6239,-7.97198"
               style="fill:none;stroke:#000000;stroke-width:1.30769;stroke-linecap:round;stroke-linejoin:round;stroke-miterlimit:10;stroke-dasharray:none;stroke-opacity:1"
               id="path1106"
               sodipodi:nodetypes="cc" />
          </g>
        </g>
        <g
           id="g1108"
           transform="matrix(1,0,0,-1,0,792)">
          <g
             id="g1110">
            <path
               d="m 819.23337,158.81791 c 0,0 56.36433,-18.38575 83.85013,-25.1988 l -0.35981,-0.0817"
               style="fill:none;stroke:#000000;stroke-width:1.30769;stroke-linecap:round;stroke-linejoin:round;stroke-miterlimit:10;stroke-dasharray:none;stroke-opacity:1"
               id="path1112"
               sodipodi:nodetypes="ccc" />
          </g>
        </g>
        <g
           id="g1114"
           transform="matrix(1,0,0,-1,0,792)">
          <g
             id="g1116">
            <path
               d="m 717.38181,225.54804 c -3.47414,-3.27813 -9.87341,-1.30084 -13.08234,-5.6199 0,0 2.19374,-8.23044 5.30643,-8.12728"
               style="fill:none;stroke:#000000;stroke-width:2.61538;stroke-linecap:round;stroke-linejoin:round;stroke-miterlimit:10;stroke-dasharray:none;stroke-opacity:1"
               id="path1118"
               sodipodi:nodetypes="ccc" />
          </g>
        </g>
        <g
           id="g1120"
           transform="matrix(1,0,0,-1,0,792)">
          <g
             id="g1122">
            <path
               d="m 740.64444,148.07034 c 13.7312,-27.21198 23.25009,-53.586784 36.04016,-81.234963"
               style="fill:none;stroke:#000000;stroke-width:2.61538;stroke-linecap:round;stroke-linejoin:round;stroke-miterlimit:10;stroke-dasharray:none;stroke-opacity:1"
               id="path1124"
               sodipodi:nodetypes="cc" />
          </g>
        </g>
        <g
           id="g1126"
           transform="matrix(1,0,0,-1,0,792)">
          <g
             id="g1128">
            <path
               d="m 732.41624,150.82685 c 12.92795,-37.50001 36.96762,-73.713858 50.18021,-108.365596 l 0.47003,0.306648 -0.27179,0.592949"
               style="fill:none;stroke:#000000;stroke-width:2.61538;stroke-linecap:round;stroke-linejoin:round;stroke-miterlimit:10;stroke-dasharray:none;stroke-opacity:1"
               id="path1130"
               sodipodi:nodetypes="cccc" />
          </g>
        </g>
        <g
           id="g1132"
           transform="matrix(1,0,0,-1,0,792)">
          <g
             id="g1134">
            <path
               d="m 782.79469,43.360851 c -1.368,2.813057 -3.01017,10.603575 -4.4051,15.857941 -0.52224,2.800125 -2.15466,7.134772 -1.70499,7.616585"
               style="fill:none;stroke:#000000;stroke-width:2.61538;stroke-linecap:round;stroke-linejoin:round;stroke-miterlimit:10;stroke-dasharray:none;stroke-opacity:1"
               id="path1136"
               sodipodi:nodetypes="ccc" />
          </g>
        </g>
        <g
           id="g1138"
           transform="matrix(1,0,0,-1,0,792)">
          <g
             id="g1140">
            <path
               d="m 880.33527,109.10442 c -1.4547,0.79844 -17.57775,-6.20064 -21.77181,-8.30883 C 837.02827,90.719729 814.67937,82.785483 792.79917,73.881575 788.92031,71.483864 776.6846,66.835377 776.6846,66.835377"
               style="fill:none;stroke:#000000;stroke-width:2.61538;stroke-linecap:round;stroke-linejoin:round;stroke-miterlimit:10;stroke-dasharray:none;stroke-opacity:1"
               id="path1142"
               sodipodi:nodetypes="cccc" />
          </g>
        </g>
        <g
           id="g1144"
           transform="matrix(1,0,0,-1,0,792)">
          <g
             id="g1146">
            <path
               d="m 783.06648,42.767902 c 17.20243,7.569627 37.71542,15.050433 53.9829,24.828515 22.77469,9.306751 45.00246,19.882097 68.43892,27.341338 0,0 10.10426,10.315215 12.12114,6.261105"
               style="fill:none;stroke:#000000;stroke-width:2.61538;stroke-linecap:round;stroke-linejoin:round;stroke-miterlimit:10;stroke-dasharray:none;stroke-opacity:1"
               id="path1148"
               sodipodi:nodetypes="cccc" />
          </g>
        </g>
        <g
           id="g1150"
           transform="matrix(1,0,0,-1,0,792)">
          <g
             id="g1152">
            <path
               d="m 1063.1731,166.55658 c 6.0743,3.4428 15.6097,3.50136 20.9901,7.37172 l 0.2398,2.08186"
               style="fill:none;stroke:#000000;stroke-width:2.61538;stroke-linecap:round;stroke-linejoin:round;stroke-miterlimit:10;stroke-dasharray:none;stroke-opacity:1"
               id="path1154"
               sodipodi:nodetypes="ccc" />
          </g>
        </g>
        <g
           id="g1156"
           transform="matrix(1,0,0,-1,0,792)">
          <g
             id="g1158">
            <path
               d="m 1084.403,176.01016 c 1.9251,7.7479 1.9157,18.10825 4.4214,26.9476"
               style="fill:none;stroke:#000000;stroke-width:2.61538;stroke-linecap:round;stroke-linejoin:round;stroke-miterlimit:10;stroke-dasharray:none;stroke-opacity:1"
               id="path1160"
               sodipodi:nodetypes="cc" />
          </g>
        </g>
        <g
           id="g1162"
           transform="matrix(1,0,0,-1,0,792)">
          <g
             id="g1164">
            <path
               d="m 1088.8244,202.95776 c -6.6592,-4.3639 -12.9988,-4.90258 -19.1761,-8.33774"
               style="fill:none;stroke:#000000;stroke-width:2.61538;stroke-linecap:round;stroke-linejoin:round;stroke-miterlimit:10;stroke-dasharray:none;stroke-opacity:1"
               id="path1166"
               sodipodi:nodetypes="cc" />
          </g>
        </g>
        <g
           id="g1168"
           transform="matrix(1,0,0,-1,0,792)">
          <g
             id="g1170">
            <path
               d="m 1076.8458,223.45747 c 0.8458,-1.81892 6.7164,-13.60259 10.8308,-18.1585 0.607,-0.47474 0.705,-2.53386 1.1478,-2.34121"
               style="fill:none;stroke:#000000;stroke-width:2.61538;stroke-linecap:round;stroke-linejoin:round;stroke-miterlimit:10;stroke-dasharray:none;stroke-opacity:1"
               id="path1172" />
          </g>
        </g>
        <g
           id="g1174"
           transform="matrix(1,0,0,-1,0,792)">
          <g
             id="g1176">
            <path
               d="m 988.948,320.81427 c 14.9266,-13.24959 27.974,-28.92261 40.1554,-44.76233 0.7762,-0.92765 3.9786,-4.05393 2.8771,-3.30361"
               style="fill:none;stroke:#000000;stroke-width:2.61538;stroke-linecap:round;stroke-linejoin:round;stroke-miterlimit:10;stroke-dasharray:none;stroke-opacity:1"
               id="path1178"
               sodipodi:nodetypes="ccc" />
          </g>
        </g>
        <g
           id="g1180"
           transform="matrix(1,0,0,-1,0,792)">
          <g
             id="g1182">
            <path
               d="M 988.948,320.81427 C 968.51609,313.99796 924.18685,296.155 924.18685,296.155"
               style="fill:none;stroke:#000000;stroke-width:2.61538;stroke-linecap:round;stroke-linejoin:round;stroke-miterlimit:10;stroke-dasharray:none;stroke-opacity:1"
               id="path1184"
               sodipodi:nodetypes="cc" />
          </g>
        </g>
      </g>
    </g>
  </g>
</svg>
