<?xml version="1.0" encoding="UTF-8" standalone="no"?>
<!-- Created by Ashley Blewer - This work is licensed under a Creative Commons Attribution 4.0 International License -->

<svg
   width="544"
   height="480"
   viewBox="0 0 143.93334 127"
   version="1.1"
   id="svg2490"
   inkscape:version="1.2.2 (1:1.2.2+202212051552+b0a8486541)"
   sodipodi:docname="1966-playtape-1.svg"
   xmlns:inkscape="http://www.inkscape.org/namespaces/inkscape"
   xmlns:sodipodi="http://sodipodi.sourceforge.net/DTD/sodipodi-0.dtd"
   xmlns="http://www.w3.org/2000/svg"
   xmlns:svg="http://www.w3.org/2000/svg">
  <sodipodi:namedview
     id="namedview2492"
     pagecolor="#ffffff"
     bordercolor="#666666"
     borderopacity="1.0"
     inkscape:pageshadow="2"
     inkscape:pageopacity="0.0"
     inkscape:pagecheckerboard="0"
     inkscape:document-units="mm"
     showgrid="false"
     units="px"
     inkscape:zoom="0.90583674"
     inkscape:cx="53.541657"
     inkscape:cy="253.35691"
     inkscape:window-width="1846"
     inkscape:window-height="1136"
     inkscape:window-x="0"
     inkscape:window-y="0"
     inkscape:window-maximized="1"
     inkscape:current-layer="g4731"
     inkscape:showpageshadow="2"
     inkscape:deskcolor="#d1d1d1" />
  <defs
     id="defs2487" />
  <g
     inkscape:label="Layer 1"
     inkscape:groupmode="layer"
     id="layer1">
    <g
       id="g4731"
       transform="matrix(0.32961229,0,0,0.32903008,-241.78905,1.73126)"
       style="stroke-width:2.68698">
      <g
         id="g104528"
         transform="matrix(1,0,0,-1,0,792)"
         style="stroke-width:2.68698">
        <g
           id="g104530"
           style="stroke-width:2.68698" />
      </g>
      <g
         id="g104996"
         transform="matrix(1,0,0,-1,0,792)"
         style="stroke-width:2.68698">
        <g
           id="g104998"
           style="stroke-width:2.68698" />
      </g>
      <g
         id="g3600"
         transform="matrix(1.1930775,0,0,1.1951886,-196.71635,-123.59051)"
         style="stroke-width:2.03055">
        <g
           id="g52"
           transform="matrix(1,0,0,-1,0,792)"
           style="stroke-width:2.03055">
          <g
             id="g54"
             style="stroke-width:2.03055">
            <path
               d="m 853.25385,539.16626 c -14.29668,2.93364 -16.70056,16.67896 -16.20358,28.90577 0.22893,3.88573 2.55618,9.2866 5.4244,12.25805"
               style="fill:none;stroke:#000000;stroke-width:2.5762;stroke-linecap:round;stroke-linejoin:round;stroke-miterlimit:10;stroke-dasharray:none;stroke-opacity:1"
               id="path56"
               sodipodi:nodetypes="ccc" />
          </g>
        </g>
        <g
           id="g58"
           transform="matrix(1,0,0,-1,0,792)"
           style="stroke-width:2.03055">
          <g
             id="g60"
             style="stroke-width:2.03055">
            <path
               d="m 842.47467,580.33008 c 55.60749,8.70535 111.80465,12.52311 167.76453,18.18101 l 1.0624,-0.2045"
               style="fill:none;stroke:#000000;stroke-width:2.5762;stroke-linecap:round;stroke-linejoin:round;stroke-miterlimit:10;stroke-dasharray:none;stroke-opacity:1"
               id="path62"
               sodipodi:nodetypes="ccc" />
          </g>
        </g>
        <g
           id="g64"
           transform="matrix(1,0,0,-1,0,792)"
           style="stroke-width:2.03055">
          <g
             id="g66"
             style="stroke-width:2.03055">
            <path
               d="m 1009.9001,598.57636 c 39.569,-17.29406 80.1305,-32.18693 120.8494,-46.5183"
               style="fill:none;stroke:#000000;stroke-width:2.5762;stroke-linecap:round;stroke-linejoin:round;stroke-miterlimit:10;stroke-dasharray:none;stroke-opacity:1"
               id="path68"
               sodipodi:nodetypes="cc" />
          </g>
        </g>
        <g
           id="g70"
           transform="matrix(1,0,0,-1,0,792)"
           style="stroke-width:2.03055">
          <g
             id="g72"
             style="stroke-width:2.03055">
            <path
               d="m 853.69977,537.60596 c 0,0 50.50561,-39.00014 73.01343,-47.79166"
               style="fill:none;stroke:#000000;stroke-width:2.5762;stroke-linecap:round;stroke-linejoin:round;stroke-miterlimit:10;stroke-dasharray:none;stroke-opacity:1"
               id="path74"
               sodipodi:nodetypes="cc" />
          </g>
        </g>
        <g
           id="g76"
           transform="matrix(1,0,0,-1,0,792)"
           style="stroke-width:2.03055">
          <g
             id="g78"
             style="stroke-width:2.03055">
            <path
               d="m 926.7132,489.8143 c 0.0616,12.85478 -2.00669,25.95431 0.90053,38.70799"
               style="fill:none;stroke:#000000;stroke-width:2.5762;stroke-linecap:round;stroke-linejoin:round;stroke-miterlimit:10;stroke-dasharray:none;stroke-opacity:1"
               id="path80" />
          </g>
        </g>
        <g
           id="g82"
           transform="matrix(1,0,0,-1,0,792)"
           style="stroke-width:2.03055">
          <g
             id="g84"
             style="stroke-width:2.03055">
            <path
               d="m 928.17157,489.24734 c 10.375,-4.5777 22.05196,-6.38198 32.76241,-1.63091 11.22282,2.65506 22.67837,5.36743 33.99333,6.92926"
               style="fill:none;stroke:#000000;stroke-width:2.5762;stroke-linecap:round;stroke-linejoin:round;stroke-miterlimit:10;stroke-dasharray:none;stroke-opacity:1"
               id="path86" />
          </g>
        </g>
        <g
           id="g88"
           transform="matrix(1,0,0,-1,0,792)"
           style="stroke-width:2.03055">
          <g
             id="g90"
             style="stroke-width:2.03055">
            <path
               d="m 995.54547,494.93616 c 5.44233,-3.64291 24.05873,-2.39618 27.83973,4.55573"
               style="fill:none;stroke:#000000;stroke-width:2.5762;stroke-linecap:round;stroke-linejoin:round;stroke-miterlimit:10;stroke-dasharray:none;stroke-opacity:1"
               id="path92" />
          </g>
        </g>
        <g
           id="g94"
           transform="matrix(1,0,0,-1,0,792)"
           style="stroke-width:2.03055">
          <g
             id="g96"
             style="stroke-width:2.03055">
            <path
               d="m 1023.3852,499.49189 c 11.3094,2.63662 27.0518,6.42602 38.4914,8.34223"
               style="fill:none;stroke:#000000;stroke-width:2.5762;stroke-linecap:round;stroke-linejoin:round;stroke-miterlimit:10;stroke-dasharray:none;stroke-opacity:1"
               id="path98"
               sodipodi:nodetypes="cc" />
          </g>
        </g>
        <g
           id="g100"
           transform="matrix(1,0,0,-1,0,792)"
           style="stroke-width:2.03055">
          <g
             id="g102"
             style="stroke-width:2.03055">
            <path
               d="m 1061.8766,507.83412 c 5.0537,-5.69621 17.9564,0.72383 23.8229,0.30565"
               style="fill:none;stroke:#000000;stroke-width:2.5762;stroke-linecap:round;stroke-linejoin:round;stroke-miterlimit:10;stroke-dasharray:none;stroke-opacity:1"
               id="path104"
               sodipodi:nodetypes="cc" />
          </g>
        </g>
        <g
           id="g106"
           transform="matrix(1,0,0,-1,0,792)"
           style="stroke-width:2.03055">
          <g
             id="g108"
             style="stroke-width:2.03055">
            <path
               d="m 1085.6995,508.13977 c -1.8207,0.11683 -0.3746,-0.39299 -1.8991,0.38784"
               style="fill:none;stroke:#000000;stroke-width:2.5762;stroke-linecap:round;stroke-linejoin:round;stroke-miterlimit:10;stroke-dasharray:none;stroke-opacity:1"
               id="path110"
               sodipodi:nodetypes="cc" />
          </g>
        </g>
        <g
           id="g112"
           transform="matrix(1,0,0,-1,0,792)"
           style="stroke-width:2.03055">
          <g
             id="g114"
             style="stroke-width:2.03055">
            <path
               d="m 1085.6995,508.13977 c 9.9979,0.94668 19.8443,3.55153 29.7577,4.60729"
               style="fill:none;stroke:#000000;stroke-width:2.5762;stroke-linecap:round;stroke-linejoin:round;stroke-miterlimit:10;stroke-dasharray:none;stroke-opacity:1"
               id="path116" />
          </g>
        </g>
        <g
           id="g118"
           transform="matrix(1,0,0,-1,0,792)"
           style="stroke-width:2.03055">
          <g
             id="g120"
             style="stroke-width:2.03055">
            <path
               d="m 1115.4572,512.74706 c 13.5151,-6.15178 24.7487,5.6056 21.7786,18.95749 1.2452,11.6655 -6.4863,20.35351 -6.4863,20.35351"
               style="fill:none;stroke:#000000;stroke-width:2.5762;stroke-linecap:round;stroke-linejoin:round;stroke-miterlimit:10;stroke-dasharray:none;stroke-opacity:1"
               id="path122"
               sodipodi:nodetypes="ccc" />
          </g>
        </g>
        <g
           id="g124"
           transform="matrix(1,0,0,-1,0,792)"
           style="stroke-width:2.03055">
          <g
             id="g126"
             style="stroke-width:2.03055">
            <path
               d="m 850.11365,542.37445 c -1.68122,8.50647 -3.65774,18.86259 -0.86141,27.18858"
               style="fill:none;stroke:#000000;stroke-width:2.5762;stroke-linecap:round;stroke-linejoin:round;stroke-miterlimit:10;stroke-dasharray:none;stroke-opacity:1"
               id="path128" />
          </g>
        </g>
        <g
           id="g130"
           transform="matrix(1,0,0,-1,0,792)"
           style="stroke-width:2.03055">
          <g
             id="g132"
             style="stroke-width:2.03055">
            <path
               d="m 853.88556,568.04053 c 3.6457,-8.21296 2.09123,-18.73447 0.31968,-27.20328"
               style="fill:none;stroke:#000000;stroke-width:2.5762;stroke-linecap:round;stroke-linejoin:round;stroke-miterlimit:10;stroke-dasharray:none;stroke-opacity:1"
               id="path134" />
          </g>
        </g>
        <g
           id="g136"
           transform="matrix(1,0,0,-1,0,792)"
           style="stroke-width:2.03055">
          <g
             id="g138"
             style="stroke-width:2.03055">
            <path
               d="m 842.47467,580.33008 85.13906,-51.80779"
               style="fill:none;stroke:#000000;stroke-width:2.5762;stroke-linecap:round;stroke-linejoin:round;stroke-miterlimit:10;stroke-dasharray:none;stroke-opacity:1"
               id="path140"
               sodipodi:nodetypes="cc" />
          </g>
        </g>
        <g
           id="g142"
           transform="matrix(1,0,0,-1,0,792)"
           style="stroke-width:2.03055">
          <g
             id="g144"
             style="stroke-width:2.03055">
            <path
               d="m 883.02045,551.60974 c -1.40767,-9.63365 -0.0172,-22.50621 -0.11686,-30.13808"
               style="fill:none;stroke:#000000;stroke-width:2.5762;stroke-linecap:round;stroke-linejoin:round;stroke-miterlimit:10;stroke-dasharray:none;stroke-opacity:1"
               id="path146" />
          </g>
        </g>
        <g
           id="g148"
           transform="matrix(1,0,0,-1,0,792)"
           style="stroke-width:2.03055">
          <g
             id="g150"
             style="stroke-width:2.03055">
            <path
               d="m 927.61373,528.52229 c 4.73678,-3.18646 13.84089,-3.13055 18.4973,-2.67057"
               style="fill:none;stroke:#000000;stroke-width:2.5762;stroke-linecap:round;stroke-linejoin:round;stroke-miterlimit:10;stroke-dasharray:none;stroke-opacity:1"
               id="path152"
               sodipodi:nodetypes="cc" />
          </g>
        </g>
        <g
           id="g154"
           transform="matrix(1,0,0,-1,0,792)"
           style="stroke-width:2.03055">
          <g
             id="g156"
             style="stroke-width:2.03055">
            <path
               d="m 946.11103,525.85172 c 5.9543,0.16126 14.69457,-1.63787 20.44836,-0.0956"
               style="fill:none;stroke:#000000;stroke-width:2.5762;stroke-linecap:round;stroke-linejoin:round;stroke-miterlimit:10;stroke-dasharray:none;stroke-opacity:1"
               id="path158"
               sodipodi:nodetypes="cc" />
          </g>
        </g>
        <g
           id="g160"
           transform="matrix(1,0,0,-1,0,792)"
           style="stroke-width:2.03055">
          <g
             id="g162"
             style="stroke-width:2.03055">
            <path
               d="m 966.55939,525.75616 c 5.38959,5.69501 19.94677,9.5989 25.77627,2.96673"
               style="fill:none;stroke:#000000;stroke-width:2.5762;stroke-linecap:round;stroke-linejoin:round;stroke-miterlimit:10;stroke-dasharray:none;stroke-opacity:1"
               id="path164" />
          </g>
        </g>
        <g
           id="g166"
           transform="matrix(1,0,0,-1,0,792)"
           style="stroke-width:2.03055">
          <g
             id="g168"
             style="stroke-width:2.03055">
            <path
               d="m 994.71094,527.59003 c 4.0458,1.03109 20.22596,1.48183 26.09116,1.90881"
               style="fill:none;stroke:#000000;stroke-width:2.5762;stroke-linecap:round;stroke-linejoin:round;stroke-miterlimit:10;stroke-dasharray:none;stroke-opacity:1"
               id="path170"
               sodipodi:nodetypes="cc" />
          </g>
        </g>
        <g
           id="g172"
           transform="matrix(1,0,0,-1,0,792)"
           style="stroke-width:2.03055">
          <g
             id="g174"
             style="stroke-width:2.03055">
            <path
               d="m 1020.8021,529.49884 c 1.9805,1.47237 -3.4961,2.74028 -3.4065,4.46702"
               style="fill:none;stroke:#000000;stroke-width:2.5762;stroke-linecap:round;stroke-linejoin:round;stroke-miterlimit:10;stroke-dasharray:none;stroke-opacity:1"
               id="path176" />
          </g>
        </g>
        <g
           id="g178"
           transform="matrix(1,0,0,-1,0,792)"
           style="stroke-width:2.03055">
          <g
             id="g180"
             style="stroke-width:2.03055">
            <path
               d="m 1017.3956,533.96586 c 14.2222,1.50116 28.9486,5.05814 45.6821,5.90879 -0.89,-0.28457 6.7185,-7.2647 5.4061,-8.10256"
               style="fill:none;stroke:#000000;stroke-width:2.5762;stroke-linecap:round;stroke-linejoin:round;stroke-miterlimit:10;stroke-dasharray:none;stroke-opacity:1"
               id="path182"
               sodipodi:nodetypes="ccc" />
          </g>
        </g>
        <g
           id="g184"
           transform="matrix(1,0,0,-1,0,792)"
           style="stroke-width:2.03055">
          <g
             id="g186"
             style="stroke-width:2.03055">
            <path
               d="m 1068.2335,534.84027 c 1.8272,1.32752 11.0751,2.61609 13.1924,2.89563"
               style="fill:none;stroke:#000000;stroke-width:2.5762;stroke-linecap:round;stroke-linejoin:round;stroke-miterlimit:10;stroke-dasharray:none;stroke-opacity:1"
               id="path188"
               sodipodi:nodetypes="cc" />
          </g>
        </g>
        <g
           id="g190"
           transform="matrix(1,0,0,-1,0,792)"
           style="stroke-width:2.03055">
          <g
             id="g192"
             style="stroke-width:2.03055">
            <path
               d="m 1082.6893,537.59174 c -1.4845,0.93716 -3.0633,1.97402 -3.961,3.54053"
               style="fill:none;stroke:#000000;stroke-width:2.5762;stroke-linecap:round;stroke-linejoin:round;stroke-miterlimit:10;stroke-dasharray:none;stroke-opacity:1"
               id="path194" />
          </g>
        </g>
        <g
           id="g196"
           transform="matrix(1,0,0,-1,0,792)"
           style="stroke-width:2.03055">
          <g
             id="g198"
             style="stroke-width:2.03055">
            <path
               d="m 1078.7283,541.13227 c 11.1671,1.89547 26.8613,9.46133 37.3122,7.51141"
               style="fill:none;stroke:#000000;stroke-width:2.5762;stroke-linecap:round;stroke-linejoin:round;stroke-miterlimit:10;stroke-dasharray:none;stroke-opacity:1"
               id="path200"
               sodipodi:nodetypes="cc" />
          </g>
        </g>
        <g
           id="g202"
           transform="matrix(1,0,0,-1,0,792)"
           style="stroke-width:2.03055">
          <g
             id="g204"
             style="stroke-width:2.03055">
            <path
               d="m 1116.0405,548.64368 c 2.5455,-3.57922 5.1932,-7.91123 8.9759,-6.48304"
               style="fill:none;stroke:#000000;stroke-width:2.5762;stroke-linecap:round;stroke-linejoin:round;stroke-miterlimit:10;stroke-dasharray:none;stroke-opacity:1"
               id="path206"
               sodipodi:nodetypes="cc" />
          </g>
        </g>
        <g
           id="g208"
           transform="matrix(1,0,0,-1,0,792)"
           style="stroke-width:2.03055">
          <g
             id="g210"
             style="stroke-width:2.03055">
            <path
               d="m 1125.0164,542.16064 c -0.1264,-9.90815 3.2211,-23.99581 -2.3733,-31.18582"
               style="fill:none;stroke:#000000;stroke-width:2.5762;stroke-linecap:round;stroke-linejoin:round;stroke-miterlimit:10;stroke-dasharray:none;stroke-opacity:1"
               id="path212" />
          </g>
        </g>
        <g
           id="g214"
           transform="matrix(1,0,0,-1,0,792)"
           style="stroke-width:2.03055">
          <g
             id="g216"
             style="stroke-width:2.03055">
            <path
               d="m 1084.541,528.80109 c 12.4501,0.85577 24.8207,2.55919 37.1642,4.35402 l -0.5301,-0.49921"
               style="fill:none;stroke:#000000;stroke-width:2.5762;stroke-linecap:round;stroke-linejoin:round;stroke-miterlimit:10;stroke-dasharray:none;stroke-opacity:1"
               id="path218" />
          </g>
        </g>
        <g
           id="g220"
           transform="matrix(1,0,0,-1,0,792)"
           style="stroke-width:2.03055">
          <g
             id="g222"
             style="stroke-width:2.03055">
            <path
               d="m 1084.0394,515.9986 c 13.0081,1.82325 26.6494,4.23032 39.3009,5.17266"
               style="fill:none;stroke:#000000;stroke-width:2.5762;stroke-linecap:round;stroke-linejoin:round;stroke-miterlimit:10;stroke-dasharray:none;stroke-opacity:1"
               id="path224" />
          </g>
        </g>
        <g
           id="g226"
           transform="matrix(1,0,0,-1,0,792)"
           style="stroke-width:2.03055">
          <g
             id="g228"
             style="stroke-width:2.03055">
            <path
               d="m 1081.4259,537.7359 c -1.0016,-9.47753 -1.9473,-20.76556 2.3745,-29.20829"
               style="fill:none;stroke:#000000;stroke-width:2.5762;stroke-linecap:round;stroke-linejoin:round;stroke-miterlimit:10;stroke-dasharray:none;stroke-opacity:1"
               id="path230" />
          </g>
        </g>
        <g
           id="g232"
           transform="matrix(1,0,0,-1,0,792)"
           style="stroke-width:2.03055">
          <g
             id="g234"
             style="stroke-width:2.03055">
            <path
               d="m 1068.4838,531.77209 c 1.812,-8.42227 1.5817,-18.2522 -1.4987,-26.00454"
               style="fill:none;stroke:#000000;stroke-width:2.5762;stroke-linecap:round;stroke-linejoin:round;stroke-miterlimit:10;stroke-dasharray:none;stroke-opacity:1"
               id="path236"
               sodipodi:nodetypes="cc" />
          </g>
        </g>
        <g
           id="g238"
           transform="matrix(1,0,0,-1,0,792)"
           style="stroke-width:2.03055">
          <g
             id="g240"
             style="stroke-width:2.03055">
            <path
               d="m 1021.7653,520.91144 c 14.6599,1.73494 29.39,3.33093 43.9319,5.66718 l -0.555,-0.68664"
               style="fill:none;stroke:#000000;stroke-width:2.5762;stroke-linecap:round;stroke-linejoin:round;stroke-miterlimit:10;stroke-dasharray:none;stroke-opacity:1"
               id="path242" />
          </g>
        </g>
        <g
           id="g244"
           transform="matrix(1,0,0,-1,0,792)"
           style="stroke-width:2.03055">
          <g
             id="g246"
             style="stroke-width:2.03055">
            <path
               d="m 1023.7883,509.12222 c 13.2304,2.76043 29.3025,5.65432 41.0356,6.25467"
               style="fill:none;stroke:#000000;stroke-width:2.5762;stroke-linecap:round;stroke-linejoin:round;stroke-miterlimit:10;stroke-dasharray:none;stroke-opacity:1"
               id="path248" />
          </g>
        </g>
        <g
           id="g250"
           transform="matrix(1,0,0,-1,0,792)"
           style="stroke-width:2.03055">
          <g
             id="g252"
             style="stroke-width:2.03055">
            <path
               d="m 1020.5771,528.46735 c 1.9007,-9.55372 1.6173,-22.37125 0.8536,-30.55722"
               style="fill:none;stroke:#000000;stroke-width:2.5762;stroke-linecap:round;stroke-linejoin:round;stroke-miterlimit:10;stroke-dasharray:none;stroke-opacity:1"
               id="path254" />
          </g>
        </g>
        <g
           id="g256"
           transform="matrix(1,0,0,-1,0,792)"
           style="stroke-width:2.03055">
          <g
             id="g258"
             style="stroke-width:2.03055">
            <path
               d="m 992.33566,528.72289 c 6.09427,-7.50717 5.85539,-23.39037 4.48219,-32.12422"
               style="fill:none;stroke:#000000;stroke-width:2.5762;stroke-linecap:round;stroke-linejoin:round;stroke-miterlimit:10;stroke-dasharray:none;stroke-opacity:1"
               id="path260"
               sodipodi:nodetypes="cc" />
            <path
               d="m 970.91991,490.55995 c 6.09424,7.50717 -1.07133,26.00668 -2.4445,34.74053"
               style="fill:none;stroke:#000000;stroke-width:2.5762;stroke-linecap:round;stroke-linejoin:round;stroke-miterlimit:10;stroke-dasharray:none;stroke-opacity:1"
               id="path260-3"
               sodipodi:nodetypes="cc" />
          </g>
        </g>
        <g
           id="g262"
           transform="matrix(1,0,0,-1,0,792)"
           style="stroke-width:2.03055">
          <g
             id="g264"
             style="stroke-width:2.03055">
            <path
               d="m 971.53912,515.76898 c 6.27168,-1.15683 17.15114,2.02684 20.32093,2.83939"
               style="fill:none;stroke:#000000;stroke-width:2.5762;stroke-linecap:round;stroke-linejoin:round;stroke-miterlimit:10;stroke-dasharray:none;stroke-opacity:1"
               id="path266" />
          </g>
        </g>
        <g
           id="g268"
           transform="matrix(1,0,0,-1,0,792)"
           style="stroke-width:2.03055">
          <g
             id="g270"
             style="stroke-width:2.03055">
            <path
               d="m 973.29994,497.4131 c 6.46933,-2.03876 20.38359,3.01617 23.21489,4.69514"
               style="fill:none;stroke:#000000;stroke-width:2.5762;stroke-linecap:round;stroke-linejoin:round;stroke-miterlimit:10;stroke-dasharray:none;stroke-opacity:1"
               id="path272"
               sodipodi:nodetypes="cc" />
          </g>
        </g>
        <g
           id="g274"
           transform="matrix(1,0,0,-1,0,792)"
           style="stroke-width:2.03055">
          <g
             id="g276"
             style="stroke-width:2.03055">
            <path
               d="m 957.23187,486.19299 c 12.60254,5.91905 26.58931,10.61633 40.85803,7.04763 2.1544,-0.73198 4.4665,-0.10566 6.6079,-0.84686"
               style="fill:none;stroke:#000000;stroke-width:2.5762;stroke-linecap:round;stroke-linejoin:round;stroke-miterlimit:10;stroke-dasharray:none;stroke-opacity:1"
               id="path278" />
          </g>
        </g>
        <g
           id="g280"
           transform="matrix(1,0,0,-1,0,792)"
           style="stroke-width:2.03055">
          <g
             id="g282"
             style="stroke-width:2.03055">
            <path
               d="m 858.58089,582.71867 c 12.7491,-8.62474 27.01623,-18.41751 39.35218,-27.73748 9.66719,-6.28718 21.04077,-12.49169 32.28464,-15.52941"
               style="fill:none;stroke:#000000;stroke-width:2.5762;stroke-linecap:round;stroke-linejoin:round;stroke-miterlimit:10;stroke-dasharray:none;stroke-opacity:1"
               id="path284"
               sodipodi:nodetypes="ccc" />
          </g>
        </g>
        <g
           id="g286"
           transform="matrix(1,0,0,-1,0,792)"
           style="stroke-width:2.03055">
          <g
             id="g288"
             style="stroke-width:2.03055">
            <path
               d="m 1001.4485,596.18097 c 12.0384,-8.53488 26.7998,-12.63622 40.1926,-19.13213 14.3235,-6.32905 28.9353,-12.07537 43.5264,-17.66569"
               style="fill:none;stroke:#000000;stroke-width:2.5762;stroke-linecap:round;stroke-linejoin:round;stroke-miterlimit:10;stroke-dasharray:none;stroke-opacity:1"
               id="path290" />
          </g>
        </g>
        <g
           id="g292"
           transform="matrix(1,0,0,-1,0,792)"
           style="stroke-width:2.03055">
          <g
             id="g294"
             style="stroke-width:2.03055">
            <path
               d="m 930.21771,539.45178 c 23.75506,5.85986 48.52238,5.74046 72.73459,8.72001 27.0088,2.91755 54.7206,4.54456 80.9043,11.02642 l 0.2498,-0.21096"
               style="fill:none;stroke:#000000;stroke-width:2.5762;stroke-linecap:round;stroke-linejoin:round;stroke-miterlimit:10;stroke-dasharray:none;stroke-opacity:1"
               id="path296" />
          </g>
        </g>
        <g
           id="g298"
           transform="matrix(1,0,0,-1,0,792)"
           style="stroke-width:2.03055">
          <g
             id="g300"
             style="stroke-width:2.03055">
            <path
               d="m 791.04095,518.90393 c 14.18817,7.77052 29.54975,12.7202 44.85908,17.73576 5.74504,0.95171 11.55266,1.85587 17.35382,2.52657"
               style="fill:none;stroke:#000000;stroke-width:2.5762;stroke-linecap:round;stroke-linejoin:round;stroke-miterlimit:10;stroke-dasharray:none;stroke-opacity:1"
               id="path302"
               sodipodi:nodetypes="ccc" />
          </g>
        </g>
        <g
           id="g304"
           transform="matrix(1,0,0,-1,0,792)"
           style="stroke-width:2.03055">
          <g
             id="g306"
             style="stroke-width:2.03055">
            <path
               d="m 791.04095,518.90393 c 0.17093,-7.93007 -0.30966,-25.84553 3.53107,-31.73123"
               style="fill:none;stroke:#000000;stroke-width:2.5762;stroke-linecap:round;stroke-linejoin:round;stroke-miterlimit:10;stroke-dasharray:none;stroke-opacity:1"
               id="path308"
               sodipodi:nodetypes="cc" />
          </g>
        </g>
        <g
           id="g310"
           transform="matrix(1,0,0,-1,0,792)"
           style="stroke-width:2.03055">
          <g
             id="g312"
             style="stroke-width:2.03055">
            <path
               d="m 794.57202,487.1727 c 33.9513,-4.84604 65.87406,-17.56311 99.46272,-23.65787 27.17976,-6.4392 54.03069,-15.6544 81.89394,-18.51907"
               style="fill:none;stroke:#000000;stroke-width:2.5762;stroke-linecap:round;stroke-linejoin:round;stroke-miterlimit:10;stroke-dasharray:none;stroke-opacity:1"
               id="path314" />
          </g>
        </g>
        <g
           id="g316"
           transform="matrix(1,0,0,-1,0,792)"
           style="stroke-width:2.03055">
          <g
             id="g318"
             style="stroke-width:2.03055">
            <path
               d="m 978.24359,445.44568 c 1.51509,12.01849 5.51185,24.08071 -0.17596,33.99975"
               style="fill:none;stroke:#000000;stroke-width:2.5762;stroke-linecap:round;stroke-linejoin:round;stroke-miterlimit:10;stroke-dasharray:none;stroke-opacity:1"
               id="path320"
               sodipodi:nodetypes="cc" />
          </g>
        </g>
        <g
           id="g322"
           transform="matrix(1,0,0,-1,0,792)"
           style="stroke-width:2.03055">
          <g
             id="g324"
             style="stroke-width:2.03055">
            <path
               d="m 791.6463,518.34528 c 40.04669,-8.88181 81.24346,-11.60852 121.01237,-21.86774"
               style="fill:none;stroke:#000000;stroke-width:2.5762;stroke-linecap:round;stroke-linejoin:round;stroke-miterlimit:10;stroke-dasharray:none;stroke-opacity:1"
               id="path326"
               sodipodi:nodetypes="cc" />
          </g>
        </g>
        <g
           id="g328"
           transform="matrix(1,0,0,-1,0,792)"
           style="stroke-width:2.03055">
          <g
             id="g330"
             style="stroke-width:2.03055">
            <path
               d="m 803.64941,515.79211 c 18.25102,6.99739 35.44184,12.2057 54.17022,17.70032"
               style="fill:none;stroke:#000000;stroke-width:2.5762;stroke-linecap:round;stroke-linejoin:round;stroke-miterlimit:10;stroke-dasharray:none;stroke-opacity:1"
               id="path332"
               sodipodi:nodetypes="cc" />
          </g>
        </g>
        <g
           id="g334"
           transform="matrix(1,0,0,-1,0,792)"
           style="stroke-width:2.03055">
          <g
             id="g336"
             style="stroke-width:2.03055">
            <path
               d="m 960.93398,487.61643 c 14.63787,2.22335 23.29908,-15.8452 19.52512,-28.26102 -0.74485,-3.54977 -0.86272,-9.3822 -2.13424,-11.90253"
               style="fill:none;stroke:#000000;stroke-width:2.5762;stroke-linecap:round;stroke-linejoin:round;stroke-miterlimit:10;stroke-dasharray:none;stroke-opacity:1"
               id="path338"
               sodipodi:nodetypes="ccc" />
          </g>
        </g>
        <g
           id="g340"
           transform="matrix(1,0,0,-1,0,792)"
           style="stroke-width:2.03055">
          <g
             id="g342"
             style="stroke-width:2.03055">
            <path
               d="m 978.06763,479.44543 c 7.68723,3.46946 28.32897,11.88318 28.32897,11.88318"
               style="fill:none;stroke:#000000;stroke-width:2.5762;stroke-linecap:round;stroke-linejoin:round;stroke-miterlimit:10;stroke-dasharray:none;stroke-opacity:1"
               id="path344"
               sodipodi:nodetypes="cc" />
          </g>
        </g>
        <g
           id="g346"
           transform="matrix(1,0,0,-1,0,792)"
           style="stroke-width:2.03055">
          <g
             id="g348"
             style="stroke-width:2.03055">
            <path
               d="m 1002.6018,488.44675 c 5.6549,-7.56044 5.5178,-22.74217 0.7183,-28.69938"
               style="fill:none;stroke:#000000;stroke-width:2.5762;stroke-linecap:round;stroke-linejoin:round;stroke-miterlimit:10;stroke-dasharray:none;stroke-opacity:1"
               id="path350" />
          </g>
        </g>
        <g
           id="g352"
           transform="matrix(1,0,0,-1,0,792)"
           style="stroke-width:2.03055">
          <g
             id="g354"
             style="stroke-width:2.03055">
            <path
               d="m 977.13782,444.73776 c 1.10577,0.70792 31.93448,17.36042 31.93448,17.36042"
               style="fill:none;stroke:#000000;stroke-width:2.5762;stroke-linecap:round;stroke-linejoin:round;stroke-miterlimit:10;stroke-dasharray:none;stroke-opacity:1"
               id="path356"
               sodipodi:nodetypes="cc" />
          </g>
        </g>
        <g
           id="g358"
           transform="matrix(1,0,0,-1,0,792)"
           style="stroke-width:2.03055">
          <g
             id="g360"
             style="stroke-width:2.03055">
            <path
               d="m 1009.0723,462.09818 c 11.5098,7.36053 24.6033,11.9995 36.2106,19.36353 17.442,5.90594 32.2497,17.25488 47.6809,26.869 l 2.4427,0.249"
               style="fill:none;stroke:#000000;stroke-width:2.5762;stroke-linecap:round;stroke-linejoin:round;stroke-miterlimit:10;stroke-dasharray:none;stroke-opacity:1"
               id="path362" />
          </g>
        </g>
        <g
           id="g364"
           transform="matrix(1,0,0,-1,0,792)"
           style="stroke-width:2.03055">
          <g
             id="g366"
             style="stroke-width:2.03055">
            <path
               d="m 1052.2394,505.74073 c 0.7385,-6.74906 -0.1723,-12.79269 1.0353,-19.414"
               style="fill:none;stroke:#000000;stroke-width:2.5762;stroke-linecap:round;stroke-linejoin:round;stroke-miterlimit:10;stroke-dasharray:none;stroke-opacity:1"
               id="path368"
               sodipodi:nodetypes="cc" />
          </g>
        </g>
        <g
           id="g370"
           transform="matrix(1,0,0,-1,0,792)"
           style="stroke-width:2.03055">
          <g
             id="g372"
             style="stroke-width:2.03055">
            <path
               d="m 1006.3966,491.32861 c 4.7014,1.35383 9.4262,4.52336 14.1935,4.79639"
               style="fill:none;stroke:#000000;stroke-width:2.5762;stroke-linecap:round;stroke-linejoin:round;stroke-miterlimit:10;stroke-dasharray:none;stroke-opacity:1"
               id="path374" />
          </g>
        </g>
      </g>
    </g>
  </g>
</svg>
