<?xml version="1.0" encoding="UTF-8" standalone="no"?>
<!-- Created by Ashley Blewer - This work is licensed under a Creative Commons Attribution 4.0 International License -->

<svg
   width="544"
   height="480"
   viewBox="0 0 143.93334 127"
   version="1.1"
   id="svg2490"
   inkscape:version="1.2.2 (1:1.2.2+202212051552+b0a8486541)"
   sodipodi:docname="1966-playtape-3.svg"
   xmlns:inkscape="http://www.inkscape.org/namespaces/inkscape"
   xmlns:sodipodi="http://sodipodi.sourceforge.net/DTD/sodipodi-0.dtd"
   xmlns="http://www.w3.org/2000/svg"
   xmlns:svg="http://www.w3.org/2000/svg">
  <sodipodi:namedview
     id="namedview2492"
     pagecolor="#ffffff"
     bordercolor="#666666"
     borderopacity="1.0"
     inkscape:pageshadow="2"
     inkscape:pageopacity="0.0"
     inkscape:pagecheckerboard="0"
     inkscape:document-units="mm"
     showgrid="false"
     units="px"
     inkscape:zoom="0.90583674"
     inkscape:cx="53.541657"
     inkscape:cy="253.35691"
     inkscape:window-width="1846"
     inkscape:window-height="1136"
     inkscape:window-x="0"
     inkscape:window-y="0"
     inkscape:window-maximized="1"
     inkscape:current-layer="g4731"
     inkscape:showpageshadow="2"
     inkscape:deskcolor="#d1d1d1" />
  <defs
     id="defs2487" />
  <g
     inkscape:label="Layer 1"
     inkscape:groupmode="layer"
     id="layer1">
    <g
       id="g4731"
       transform="matrix(0.32961229,0,0,0.32903008,-241.78905,1.73126)"
       style="stroke-width:2.68698">
      <g
         id="g104528"
         transform="matrix(1,0,0,-1,0,792)"
         style="stroke-width:2.68698">
        <g
           id="g104530"
           style="stroke-width:2.68698" />
      </g>
      <g
         id="g104996"
         transform="matrix(1,0,0,-1,0,792)"
         style="stroke-width:2.68698">
        <g
           id="g104998"
           style="stroke-width:2.68698" />
      </g>
      <g
         id="g3239"
         transform="matrix(0.9137376,0,0,0.91535436,684.83651,-315.01152)"
         style="stroke-width:2.03055">
        <g
           id="g766"
           transform="matrix(1,0,0,-1,0,792)"
           style="stroke-width:2.03055">
          <g
             id="g768"
             style="stroke-width:2.03055">
            <path
               d="m 128.08339,191.77211 c -17.30188,9.81074 -38.094529,16.98657 -49.34537,34.36754 -2.527364,4.69641 -4.892834,9.63747 -6.310202,14.78739"
               style="fill:none;stroke:#000000;stroke-width:2.5762;stroke-linecap:round;stroke-linejoin:round;stroke-miterlimit:10;stroke-dasharray:none;stroke-opacity:1"
               id="path770" />
          </g>
        </g>
        <g
           id="g772"
           transform="matrix(1,0,0,-1,0,792)"
           style="stroke-width:2.03055">
          <g
             id="g774"
             style="stroke-width:2.03055">
            <path
               d="M 72.935661,241.98657 C 108.78182,295.23998 134.20341,357.05563 184.0581,399.56574"
               style="fill:none;stroke:#000000;stroke-width:2.5762;stroke-linecap:round;stroke-linejoin:round;stroke-miterlimit:10;stroke-dasharray:none;stroke-opacity:1"
               id="path776" />
          </g>
        </g>
        <g
           id="g778"
           transform="matrix(1,0,0,-1,0,792)"
           style="stroke-width:2.03055">
          <g
             id="g780"
             style="stroke-width:2.03055">
            <path
               d="m 184.0581,399.56574 c 18.94937,-3.01622 38.55936,-9.10009 57.36806,-12.03547"
               style="fill:none;stroke:#000000;stroke-width:2.5762;stroke-linecap:round;stroke-linejoin:round;stroke-miterlimit:10;stroke-dasharray:none;stroke-opacity:1"
               id="path782"
               sodipodi:nodetypes="cc" />
          </g>
        </g>
        <g
           id="g784"
           transform="matrix(1,0,0,-1,0,792)"
           style="stroke-width:2.03055">
          <g
             id="g786"
             style="stroke-width:2.03055">
            <path
               d="M 241.42616,387.53027 C 334.20561,352.09471 515.47928,284.53703 515.47928,284.53703 l 0.14393,-0.92022"
               style="fill:none;stroke:#000000;stroke-width:2.5762;stroke-linecap:round;stroke-linejoin:round;stroke-miterlimit:10;stroke-dasharray:none;stroke-opacity:1"
               id="path788"
               sodipodi:nodetypes="ccc" />
          </g>
        </g>
        <g
           id="g790"
           transform="matrix(1,0,0,-1,0,792)"
           style="stroke-width:2.03055">
          <g
             id="g792"
             style="stroke-width:2.03055">
            <path
               d="m 515.2326,283.73834 c 0.39061,-0.12153 -64.6815,-133.62843 -87.82242,-201.164547 l -1.7236,-2.347632"
               style="fill:none;stroke:#000000;stroke-width:2.5762;stroke-linecap:round;stroke-linejoin:round;stroke-miterlimit:10;stroke-dasharray:none;stroke-opacity:1"
               id="path794"
               sodipodi:nodetypes="ccc" />
          </g>
        </g>
        <g
           id="g796"
           transform="matrix(1,0,0,-1,0,792)"
           style="stroke-width:2.03055">
          <g
             id="g798"
             style="stroke-width:2.03055">
            <path
               d="M 426.63654,81.95575 C 421.48486,72.957555 413.08962,60.16943 401.89511,60.228093"
               style="fill:none;stroke:#000000;stroke-width:2.5762;stroke-linecap:round;stroke-linejoin:round;stroke-miterlimit:10;stroke-dasharray:none;stroke-opacity:1"
               id="path800" />
          </g>
        </g>
        <g
           id="g802"
           transform="matrix(1,0,0,-1,0,792)"
           style="stroke-width:2.03055">
          <g
             id="g804"
             style="stroke-width:2.03055">
            <path
               d="m 254.01912,130.70911 c 20.26071,-8.88965 40.66223,-22.6959 60.34064,-32.647279 19.81072,-9.670375 40.38632,-19.243396 60.63312,-28.708449 9.04331,-2.554775 17.34329,-10.564319 26.90223,-9.125289"
               style="fill:none;stroke:#000000;stroke-width:2.5762;stroke-linecap:round;stroke-linejoin:round;stroke-miterlimit:10;stroke-dasharray:none;stroke-opacity:1"
               id="path806"
               sodipodi:nodetypes="cccc" />
          </g>
        </g>
        <g
           id="g808"
           transform="matrix(1,0,0,-1,0,792)"
           style="stroke-width:2.03055">
          <g
             id="g810"
             style="stroke-width:2.03055">
            <path
               d="m 75.401367,234.35081 c 7.886786,-4.49143 23.756066,-9.7472 28.188923,-10.86285"
               style="fill:none;stroke:#000000;stroke-width:2.5762;stroke-linecap:round;stroke-linejoin:round;stroke-miterlimit:10;stroke-dasharray:none;stroke-opacity:1"
               id="path812" />
          </g>
        </g>
        <g
           id="g814"
           transform="matrix(1,0,0,-1,0,792)"
           style="stroke-width:2.03055">
          <g
             id="g816"
             style="stroke-width:2.03055">
            <path
               d="m 115.2627,219.67319 c 7.72474,-3.6468 24.09812,-6.68491 27.16509,-13.6908"
               style="fill:none;stroke:#000000;stroke-width:2.5762;stroke-linecap:round;stroke-linejoin:round;stroke-miterlimit:10;stroke-dasharray:none;stroke-opacity:1"
               id="path818"
               sodipodi:nodetypes="cc" />
          </g>
        </g>
        <g
           id="g820"
           transform="matrix(1,0,0,-1,0,792)"
           style="stroke-width:2.03055">
          <g
             id="g822"
             style="stroke-width:2.03055" />
        </g>
        <g
           id="g826"
           transform="matrix(1,0,0,-1,0,792)"
           style="stroke-width:2.03055">
          <g
             id="g828"
             style="stroke-width:2.03055">
            <path
               d="m 115.2627,219.67319 c 10.15585,-1.36536 -9.76386,8.52131 -11.64992,4.86142"
               style="fill:none;stroke:#000000;stroke-width:2.5762;stroke-linecap:round;stroke-linejoin:round;stroke-miterlimit:10;stroke-dasharray:none;stroke-opacity:1"
               id="path830"
               sodipodi:nodetypes="cc" />
          </g>
        </g>
        <g
           id="g832"
           transform="matrix(1,0,0,-1,0,792)"
           style="stroke-width:2.03055">
          <g
             id="g834"
             style="stroke-width:2.03055">
            <path
               d="m 142.42779,205.98239 c -6.43916,-8.63287 -18.08661,-17.40868 -18.16098,-27.97313"
               style="fill:none;stroke:#000000;stroke-width:2.5762;stroke-linecap:round;stroke-linejoin:round;stroke-miterlimit:10;stroke-dasharray:none;stroke-opacity:1"
               id="path836" />
          </g>
        </g>
        <g
           id="g838"
           transform="matrix(1,0,0,-1,0,792)"
           style="stroke-width:2.03055">
          <g
             id="g840"
             style="stroke-width:2.03055">
            <path
               d="m 124.26681,178.00926 c 2.61324,-3.23088 0.86685,-10.55471 3.29733,-13.91751"
               style="fill:none;stroke:#000000;stroke-width:2.5762;stroke-linecap:round;stroke-linejoin:round;stroke-miterlimit:10;stroke-dasharray:none;stroke-opacity:1"
               id="path842"
               sodipodi:nodetypes="cc" />
          </g>
        </g>
        <g
           id="g844"
           transform="matrix(1,0,0,-1,0,792)"
           style="stroke-width:2.03055">
          <g
             id="g846"
             style="stroke-width:2.03055">
            <path
               d="m 124.26681,178.00926 c 35.82122,-16.43215 67.74516,-33.73049 100.51416,-49.12955"
               style="fill:none;stroke:#000000;stroke-width:2.5762;stroke-linecap:round;stroke-linejoin:round;stroke-miterlimit:10;stroke-dasharray:none;stroke-opacity:1"
               id="path848"
               sodipodi:nodetypes="cc" />
          </g>
        </g>
        <g
           id="g850"
           transform="matrix(1,0,0,-1,0,792)"
           style="stroke-width:2.03055">
          <g
             id="g852"
             style="stroke-width:2.03055">
            <path
               d="M 127.56414,164.09175 240.42297,114.31499"
               style="fill:none;stroke:#000000;stroke-width:2.5762;stroke-linecap:round;stroke-linejoin:round;stroke-miterlimit:10;stroke-dasharray:none;stroke-opacity:1"
               id="path854"
               sodipodi:nodetypes="cc" />
          </g>
        </g>
        <g
           id="g856"
           transform="matrix(1,0,0,-1,0,792)"
           style="stroke-width:2.03055">
          <g
             id="g858"
             style="stroke-width:2.03055">
            <path
               d="m 240.42297,114.31499 c -5.47895,3.14013 -11.07903,10.35675 -15.642,14.56472"
               style="fill:none;stroke:#000000;stroke-width:2.5762;stroke-linecap:round;stroke-linejoin:round;stroke-miterlimit:10;stroke-dasharray:none;stroke-opacity:1"
               id="path860"
               sodipodi:nodetypes="cc" />
          </g>
        </g>
        <g
           id="g862"
           transform="matrix(1,0,0,-1,0,792)"
           style="stroke-width:2.03055">
          <g
             id="g864"
             style="stroke-width:2.03055">
            <path
               d="m 240.42297,114.31499 c 5.29853,5.72561 8.52466,10.5404 13.06294,16.93795"
               style="fill:none;stroke:#000000;stroke-width:2.5762;stroke-linecap:round;stroke-linejoin:round;stroke-miterlimit:10;stroke-dasharray:none;stroke-opacity:1"
               id="path866"
               sodipodi:nodetypes="cc" />
          </g>
        </g>
        <g
           id="g868"
           transform="matrix(1,0,0,-1,0,792)"
           style="stroke-width:2.03055">
          <g
             id="g870"
             style="stroke-width:2.03055">
            <path
               d="m 254.01912,130.70911 c 2.08597,7.89242 5.80229,16.56803 2.2193,24.61481"
               style="fill:none;stroke:#000000;stroke-width:2.5762;stroke-linecap:round;stroke-linejoin:round;stroke-miterlimit:10;stroke-dasharray:none;stroke-opacity:1"
               id="path872" />
          </g>
        </g>
        <g
           id="g874"
           transform="matrix(1,0,0,-1,0,792)"
           style="stroke-width:2.03055">
          <g
             id="g876"
             style="stroke-width:2.03055">
            <path
               d="m 231.38104,130.91873 c 6.11434,8.3394 13.08117,19.79242 17.31044,27.42752"
               style="fill:none;stroke:#000000;stroke-width:2.5762;stroke-linecap:round;stroke-linejoin:round;stroke-miterlimit:10;stroke-dasharray:none;stroke-opacity:1"
               id="path878" />
          </g>
        </g>
        <g
           id="g880"
           transform="matrix(1,0,0,-1,0,792)"
           style="stroke-width:2.03055">
          <g
             id="g882"
             style="stroke-width:2.03055">
            <path
               d="m 226.86087,133.05939 c 6.04012,8.74177 11.39401,18.96603 17.24346,27.15731"
               style="fill:none;stroke:#000000;stroke-width:2.5762;stroke-linecap:round;stroke-linejoin:round;stroke-miterlimit:10;stroke-dasharray:none;stroke-opacity:1"
               id="path884" />
          </g>
        </g>
        <g
           id="g886"
           transform="matrix(1,0,0,-1,0,792)"
           style="stroke-width:2.03055">
          <g
             id="g888"
             style="stroke-width:2.03055">
            <path
               d="m 142.42779,205.98239 c 39.40832,-17.39672 78.50151,-35.23807 113.81063,-50.65847"
               style="fill:none;stroke:#000000;stroke-width:2.5762;stroke-linecap:round;stroke-linejoin:round;stroke-miterlimit:10;stroke-dasharray:none;stroke-opacity:1"
               id="path890"
               sodipodi:nodetypes="cc" />
          </g>
        </g>
        <g
           id="g892"
           transform="matrix(1,0,0,-1,0,792)"
           style="stroke-width:2.03055">
          <g
             id="g894"
             style="stroke-width:2.03055">
            <path
               d="M 254.25456,155.93271 C 295.273,135.46819 336.60075,115.5165 379.24838,98.625562 394.50343,93.718223 410.72754,77.323925 426.82071,85.498517 l 0.85014,1.754587"
               style="fill:none;stroke:#000000;stroke-width:2.5762;stroke-linecap:round;stroke-linejoin:round;stroke-miterlimit:10;stroke-dasharray:none;stroke-opacity:1"
               id="path896" />
          </g>
        </g>
        <g
           id="g898"
           transform="matrix(1,0,0,-1,0,792)"
           style="stroke-width:2.03055">
          <g
             id="g900"
             style="stroke-width:2.03055">
            <path
               d="M 82.709099,237.67168 C 103.4606,231.7526 124.1686,228.29841 144.02609,219.53624 l 0.21399,0.15883 2.74285,-3.85329"
               style="fill:none;stroke:#000000;stroke-width:2.5762;stroke-linecap:round;stroke-linejoin:round;stroke-miterlimit:10;stroke-dasharray:none;stroke-opacity:1"
               id="path902"
               sodipodi:nodetypes="cccc" />
          </g>
        </g>
        <g
           id="g904"
           transform="matrix(1,0,0,-1,0,792)"
           style="stroke-width:2.03055">
          <g
             id="g906"
             style="stroke-width:2.03055">
            <path
               d="m 146.98293,215.84178 c 25.90472,-11.968 51.91096,-23.78874 77.9717,-35.49933 41.94354,-19.83882 85.0057,-37.17221 126.14049,-58.69489 22.63907,-10.27055 44.67249,-22.587478 68.82219,-28.994163 l -0.53818,0.0635 -0.40786,-0.437535"
               style="fill:none;stroke:#000000;stroke-width:2.5762;stroke-linecap:round;stroke-linejoin:round;stroke-miterlimit:10;stroke-dasharray:none;stroke-opacity:1"
               id="path908" />
          </g>
        </g>
        <g
           id="g910"
           transform="matrix(1,0,0,-1,0,792)"
           style="stroke-width:2.03055">
          <g
             id="g912"
             style="stroke-width:2.03055">
            <path
               d="m 135.17027,230.22232 c 20.36946,31.75476 41.14646,63.31093 58.70444,96.72828 11.41242,16.57057 23.5833,32.96983 35.87573,48.69572"
               style="fill:none;stroke:#000000;stroke-width:2.5762;stroke-linecap:round;stroke-linejoin:round;stroke-miterlimit:10;stroke-dasharray:none;stroke-opacity:1"
               id="path914" />
          </g>
        </g>
        <g
           id="g916"
           transform="matrix(1,0,0,-1,0,792)"
           style="stroke-width:2.03055">
          <g
             id="g918"
             style="stroke-width:2.03055">
            <path
               d="m 89.880592,244.04611 c 35.146578,48.51893 61.395788,89.63995 97.233668,137.71624"
               style="fill:none;stroke:#000000;stroke-width:2.5762;stroke-linecap:round;stroke-linejoin:round;stroke-miterlimit:10;stroke-dasharray:none;stroke-opacity:1"
               id="path920"
               sodipodi:nodetypes="cc" />
          </g>
        </g>
        <g
           id="g922"
           transform="matrix(1,0,0,-1,0,792)"
           style="stroke-width:2.03055">
          <g
             id="g924"
             style="stroke-width:2.03055">
            <path
               d="m 100.95551,240.55217 c 16.7877,24.69758 33.55447,49.89151 51.35002,74.08331 12.98836,18.53826 26.07447,37.1829 39.43753,55.27392 l -0.22475,-0.70613"
               style="fill:none;stroke:#000000;stroke-width:2.5762;stroke-linecap:round;stroke-linejoin:round;stroke-miterlimit:10;stroke-dasharray:none;stroke-opacity:1"
               id="path926" />
          </g>
        </g>
        <g
           id="g928"
           transform="matrix(1,0,0,-1,0,792)"
           style="stroke-width:2.03055">
          <g
             id="g930"
             style="stroke-width:2.03055">
            <path
               d="m 191.74306,369.9094 c 0,0 14.10884,-8.23207 21.02961,-11.61785"
               style="fill:none;stroke:#000000;stroke-width:2.5762;stroke-linecap:round;stroke-linejoin:round;stroke-miterlimit:10;stroke-dasharray:none;stroke-opacity:1"
               id="path932"
               sodipodi:nodetypes="cc" />
          </g>
        </g>
        <g
           id="g934"
           transform="matrix(1,0,0,-1,0,792)"
           style="stroke-width:2.03055">
          <g
             id="g936"
             style="stroke-width:2.03055">
            <path
               d="m 209.95033,355.00058 c -17.513,17.10265 -32.49416,-6.16998 -41.522,-19.58467 -16.34823,-28.04962 -35.97189,-53.9232 -53.32821,-81.29374 -2.54441,-5.85619 -8.70742,-15.01898 -9.54418,-18.65193"
               style="fill:none;stroke:#000000;stroke-width:2.5762;stroke-linecap:round;stroke-linejoin:round;stroke-miterlimit:10;stroke-dasharray:none;stroke-opacity:1"
               id="path938" />
          </g>
        </g>
        <g
           id="g940"
           transform="matrix(1,0,0,-1,0,792)"
           style="stroke-width:2.03055">
          <g
             id="g942"
             style="stroke-width:2.03055">
            <path
               d="m 294.15848,214.94363 c -23.2718,-15.42002 14.40808,-46.1252 26.51832,-21.34402 11.11021,17.22562 -10.18611,36.00718 -26.25757,21.73135"
               style="fill:none;stroke:#000000;stroke-width:2.5762;stroke-linecap:round;stroke-linejoin:round;stroke-miterlimit:10;stroke-dasharray:none;stroke-opacity:1"
               id="path944" />
          </g>
        </g>
        <g
           id="g946"
           transform="matrix(1,0,0,-1,0,792)"
           style="stroke-width:2.03055">
          <g
             id="g948"
             style="stroke-width:2.03055">
            <path
               d="m 284.91303,213.34561 c -9.46049,-5.91795 -9.55867,-20.14293 -2.65174,-28.08107 5.52951,-7.28422 15.46378,-10.65322 24.26175,-8.18888 9.61338,-0.2202 18.71562,5.83119 22.2415,14.77307 4.32534,9.15854 1.55311,21.42175 -7.61012,26.4925 -11.54604,7.05889 -26.36126,3.16047 -36.24139,-4.99562 z"
               style="fill:none;stroke:#000000;stroke-width:2.5762;stroke-linecap:round;stroke-linejoin:round;stroke-miterlimit:10;stroke-dasharray:none;stroke-opacity:1"
               id="path950"
               sodipodi:nodetypes="cccc" />
          </g>
        </g>
        <g
           id="g952"
           transform="matrix(1,0,0,-1,0,792)"
           style="stroke-width:2.03055">
          <g
             id="g954"
             style="stroke-width:2.03055">
            <path
               d="m 346.15142,311.86602 c -8.63481,-13.91607 8.26284,-33.46257 24.31536,-22.29194 25.97428,15.22504 -7.68362,45.44924 -24.31536,22.29194 l -1.57796,-1.36878"
               style="fill:none;stroke:#000000;stroke-width:2.5762;stroke-linecap:round;stroke-linejoin:round;stroke-miterlimit:10;stroke-dasharray:none;stroke-opacity:1"
               id="path956"
               sodipodi:nodetypes="cccc" />
          </g>
        </g>
        <g
           id="g958"
           transform="matrix(1,0,0,-1,0,792)"
           style="stroke-width:2.03055">
          <g
             id="g960"
             style="stroke-width:2.03055">
            <path
               d="m 345.55295,315.53802 c -19.96538,-15.0036 0.0256,-41.20282 20.7465,-35.74195 21.81143,0.66262 23.75442,30.1576 6.12364,38.9756 -9.95607,4.95218 -18.86613,3.06806 -26.87014,-3.23365"
               style="fill:none;stroke:#000000;stroke-width:2.5762;stroke-linecap:round;stroke-linejoin:round;stroke-miterlimit:10;stroke-dasharray:none;stroke-opacity:1"
               id="path962"
               sodipodi:nodetypes="cccc" />
          </g>
        </g>
        <g
           id="g964"
           transform="matrix(1,0,0,-1,0,792)"
           style="stroke-width:2.03055">
          <g
             id="g966"
             style="stroke-width:2.03055">
            <path
               d="m 317.08804,142.78543 c 14.26837,36.88573 35.14706,70.54812 53.42481,105.46875 10.59401,23.51553 24.31101,47.07811 37.84144,68.02827"
               style="fill:none;stroke:#000000;stroke-width:2.5762;stroke-linecap:round;stroke-linejoin:round;stroke-miterlimit:10;stroke-dasharray:none;stroke-opacity:1"
               id="path968" />
          </g>
        </g>
        <g
           id="g970"
           transform="matrix(1,0,0,-1,0,792)"
           style="stroke-width:2.03055">
          <g
             id="g972"
             style="stroke-width:2.03055">
            <path
               d="m 344.82748,188.06497 c 10.5225,-27.405 43.38514,-38.55861 70.54856,-34.6014 5.86545,0.82297 18.12381,6.45043 19.41873,9.18064"
               style="fill:none;stroke:#000000;stroke-width:1.2881;stroke-linecap:round;stroke-linejoin:round;stroke-miterlimit:10;stroke-dasharray:none;stroke-opacity:1"
               id="path974" />
          </g>
        </g>
        <g
           id="g976"
           transform="matrix(1,0,0,-1,0,792)"
           style="stroke-width:2.03055">
          <g
             id="g978"
             style="stroke-width:2.03055">
            <path
               d="m 441.00314,164.95341 c 15.08113,16.8518 12.97943,43.02045 5.11179,62.83248 -11.27818,25.6699 -45.41691,27.27128 -68.01285,17.20899 -1.48857,-1.29303 -7.25775,-2.49934 -5.97786,-4.49078"
               style="fill:none;stroke:#000000;stroke-width:1.2881;stroke-linecap:round;stroke-linejoin:round;stroke-miterlimit:10;stroke-dasharray:none;stroke-opacity:1"
               id="path980" />
          </g>
        </g>
        <g
           id="g982"
           transform="matrix(1,0,0,-1,0,792)"
           style="stroke-width:2.03055">
          <g
             id="g984"
             style="stroke-width:2.03055">
            <path
               d="m 325.67569,146.01977 c 16.37636,39.84832 41.52903,75.26991 59.58321,114.30148 9.47696,17.00408 16.75113,36.52209 27.25987,52.03446"
               style="fill:none;stroke:#000000;stroke-width:1.2881;stroke-linecap:round;stroke-linejoin:round;stroke-miterlimit:10;stroke-dasharray:none;stroke-opacity:1"
               id="path986" />
          </g>
        </g>
        <g
           id="g988"
           transform="matrix(1,0,0,-1,0,792)"
           style="stroke-width:2.03055">
          <g
             id="g990"
             style="stroke-width:2.03055">
            <path
               d="m 332.08401,140.92162 c 19.51009,44.15272 47.08776,84.32769 67.46081,128.15338 6.57699,13.55776 14.15266,28.88958 21.9527,40.2181"
               style="fill:none;stroke:#000000;stroke-width:1.2881;stroke-linecap:round;stroke-linejoin:round;stroke-miterlimit:10;stroke-dasharray:none;stroke-opacity:1"
               id="path992" />
          </g>
        </g>
        <g
           id="g994"
           transform="matrix(1,0,0,-1,0,792)"
           style="stroke-width:2.03055">
          <g
             id="g996"
             style="stroke-width:2.03055">
            <path
               d="m 340.3002,138.31873 c 11.1669,29.95572 28.47062,57.20545 42.24941,85.99492 14.60579,27.16402 27.04537,55.63476 44.68144,81.11201 l 0.42461,1.45294 0.77993,1.39526"
               style="fill:none;stroke:#000000;stroke-width:1.2881;stroke-linecap:round;stroke-linejoin:round;stroke-miterlimit:10;stroke-dasharray:none;stroke-opacity:1"
               id="path998" />
          </g>
        </g>
        <g
           id="g1000"
           transform="matrix(1,0,0,-1,0,792)"
           style="stroke-width:2.03055">
          <g
             id="g1002"
             style="stroke-width:2.03055">
            <path
               d="m 347.37991,134.68803 c 28.02815,55.09595 53.96379,111.37236 84.83331,164.94264 l 2.37713,3.73858 2.00143,3.32502"
               style="fill:none;stroke:#000000;stroke-width:1.2881;stroke-linecap:round;stroke-linejoin:round;stroke-miterlimit:10;stroke-dasharray:none;stroke-opacity:1"
               id="path1004" />
          </g>
        </g>
        <g
           id="g1006"
           transform="matrix(1,0,0,-1,0,792)"
           style="stroke-width:2.03055">
          <g
             id="g1008"
             style="stroke-width:2.03055">
            <path
               d="m 353.45847,130.33261 c 5.87708,22.08519 19.96261,40.82218 28.92816,61.68397 16.87567,29.92121 37.54878,57.8206 50.09327,90.06389 3.76581,8.4955 10.85476,20.7453 14.54234,25.78299"
               style="fill:none;stroke:#000000;stroke-width:1.2881;stroke-linecap:round;stroke-linejoin:round;stroke-miterlimit:10;stroke-dasharray:none;stroke-opacity:1"
               id="path1010" />
          </g>
        </g>
        <g
           id="g1012"
           transform="matrix(1,0,0,-1,0,792)"
           style="stroke-width:2.03055">
          <g
             id="g1014"
             style="stroke-width:2.03055">
            <path
               d="m 362.64728,127.70534 c 14.15139,36.30406 32.39591,70.695 50.06891,105.35383 9.38204,21.50027 21.59259,41.65361 32.68835,62.25464 l 2.29036,2.26386"
               style="fill:none;stroke:#000000;stroke-width:1.2881;stroke-linecap:round;stroke-linejoin:round;stroke-miterlimit:10;stroke-dasharray:none;stroke-opacity:1"
               id="path1016" />
          </g>
        </g>
        <g
           id="g1018"
           transform="matrix(1,0,0,-1,0,792)"
           style="stroke-width:2.03055">
          <g
             id="g1020"
             style="stroke-width:2.03055">
            <path
               d="m 451.42621,292.60541 c -28.86776,-47.55869 -54.77624,-96.99821 -77.86358,-147.59008 -2.62849,-6.07132 -3.55258,-12.69746 -5.69423,-18.88546"
               style="fill:none;stroke:#000000;stroke-width:1.2881;stroke-linecap:round;stroke-linejoin:round;stroke-miterlimit:10;stroke-dasharray:none;stroke-opacity:1"
               id="path1022" />
          </g>
        </g>
        <g
           id="g1024"
           transform="matrix(1,0,0,-1,0,792)"
           style="stroke-width:2.03055">
          <g
             id="g1026"
             style="stroke-width:2.03055">
            <path
               d="m 374.42743,118.69473 c 20.11249,41.84681 34.84993,86.0752 56.29206,127.32025 9.00495,16.28804 15.01405,34.97383 26.93672,49.28608"
               style="fill:none;stroke:#000000;stroke-width:1.2881;stroke-linecap:round;stroke-linejoin:round;stroke-miterlimit:10;stroke-dasharray:none;stroke-opacity:1"
               id="path1028" />
          </g>
        </g>
        <g
           id="g1030"
           transform="matrix(1,0,0,-1,0,792)"
           style="stroke-width:2.03055">
          <g
             id="g1032"
             style="stroke-width:2.03055">
            <path
               d="m 381.45102,119.22695 c 17.6789,43.33504 37.78164,85.7215 60.47606,126.68839 7.80877,15.8842 13.87338,32.60697 22.40311,48.13645"
               style="fill:none;stroke:#000000;stroke-width:1.2881;stroke-linecap:round;stroke-linejoin:round;stroke-miterlimit:10;stroke-dasharray:none;stroke-opacity:1"
               id="path1034" />
          </g>
        </g>
        <g
           id="g1036"
           transform="matrix(1,0,0,-1,0,792)"
           style="stroke-width:2.03055">
          <g
             id="g1038"
             style="stroke-width:2.03055">
            <path
               d="m 390.66702,115.99939 c 15.76083,50.57433 46.65617,94.63112 65.29452,144.08521 4.26995,9.95259 8.70918,19.85726 14.03767,29.29699"
               style="fill:none;stroke:#000000;stroke-width:1.2881;stroke-linecap:round;stroke-linejoin:round;stroke-miterlimit:10;stroke-dasharray:none;stroke-opacity:1"
               id="path1040" />
          </g>
        </g>
        <g
           id="g1042"
           transform="matrix(1,0,0,-1,0,792)"
           style="stroke-width:2.03055">
          <g
             id="g1044"
             style="stroke-width:2.03055">
            <path
               d="m 395.6839,111.68168 c 16.74672,42.054 40.18472,81.19905 55.53682,123.90785 8.74585,18.23333 14.73893,37.84772 25.11683,55.25892"
               style="fill:none;stroke:#000000;stroke-width:1.2881;stroke-linecap:round;stroke-linejoin:round;stroke-miterlimit:10;stroke-dasharray:none;stroke-opacity:1"
               id="path1046" />
          </g>
        </g>
        <g
           id="g1048"
           transform="matrix(1,0,0,-1,0,792)"
           style="stroke-width:2.03055">
          <g
             id="g1050"
             style="stroke-width:2.03055">
            <path
               d="m 401.85275,110.24128 c 24.76387,59.07321 54.86656,115.73642 79.86278,174.69279 l 1.39361,2.56253 0.53568,0.31712"
               style="fill:none;stroke:#000000;stroke-width:1.2881;stroke-linecap:round;stroke-linejoin:round;stroke-miterlimit:10;stroke-dasharray:none;stroke-opacity:1"
               id="path1052" />
          </g>
        </g>
        <g
           id="g1054"
           transform="matrix(1,0,0,-1,0,792)"
           style="stroke-width:2.03055">
          <g
             id="g1056"
             style="stroke-width:2.03055">
            <path
               d="m 408.4303,107.15256 c 13.28918,36.04943 32.84519,69.40767 47.49804,104.80359 13.93955,21.7939 24.01681,45.75818 36.10331,68.45919"
               style="fill:none;stroke:#000000;stroke-width:1.2881;stroke-linecap:round;stroke-linejoin:round;stroke-miterlimit:10;stroke-dasharray:none;stroke-opacity:1"
               id="path1058" />
          </g>
        </g>
        <g
           id="g1060"
           transform="matrix(1,0,0,-1,0,792)"
           style="stroke-width:2.03055">
          <g
             id="g1062"
             style="stroke-width:2.03055">
            <path
               d="m 418.09235,105.32583 c 18.63706,55.3662 53.07271,103.36808 76.46256,156.59961 1.76917,5.01224 2.90298,10.39052 6.21444,14.70032"
               style="fill:none;stroke:#000000;stroke-width:1.2881;stroke-linecap:round;stroke-linejoin:round;stroke-miterlimit:10;stroke-dasharray:none;stroke-opacity:1"
               id="path1064" />
          </g>
        </g>
        <g
           id="g1066"
           transform="matrix(1,0,0,-1,0,792)"
           style="stroke-width:2.03055">
          <g
             id="g1068"
             style="stroke-width:2.03055">
            <path
               d="m 265.80411,207.96613 c 2.75126,6.11549 7.03343,11.56251 9.1222,18.02758"
               style="fill:none;stroke:#000000;stroke-width:1.2881;stroke-linecap:round;stroke-linejoin:round;stroke-miterlimit:10;stroke-dasharray:none;stroke-opacity:1"
               id="path1070" />
          </g>
        </g>
        <g
           id="g1072"
           transform="matrix(1,0,0,-1,0,792)"
           style="stroke-width:2.03055">
          <g
             id="g1074"
             style="stroke-width:2.03055">
            <path
               d="m 319.05676,307.55774 c 4.1549,4.21365 7.57087,16.1294 11.20753,17.3625"
               style="fill:none;stroke:#000000;stroke-width:1.2881;stroke-linecap:round;stroke-linejoin:round;stroke-miterlimit:10;stroke-dasharray:none;stroke-opacity:1"
               id="path1076" />
          </g>
        </g>
        <g
           id="g1078"
           transform="matrix(1,0,0,-1,0,792)"
           style="stroke-width:2.03055">
          <g
             id="g1080"
             style="stroke-width:2.03055">
            <path
               d="m 324.06442,301.20529 c -3.46727,-0.0678 2.85693,-1.70861 1.96349,-1.18211"
               style="fill:none;stroke:#000000;stroke-width:1.2881;stroke-linecap:round;stroke-linejoin:round;stroke-miterlimit:10;stroke-dasharray:none;stroke-opacity:1"
               id="path1082" />
          </g>
        </g>
        <g
           id="g1084"
           transform="matrix(1,0,0,-1,0,792)"
           style="stroke-width:2.03055">
          <g
             id="g1086"
             style="stroke-width:2.03055">
            <path
               d="m 329.53625,313.8157 c 0.25116,-0.0746 1.25625,-0.33813 1.50763,-0.39532"
               style="fill:none;stroke:#000000;stroke-width:1.2881;stroke-linecap:round;stroke-linejoin:round;stroke-miterlimit:10;stroke-dasharray:none;stroke-opacity:1"
               id="path1088" />
          </g>
        </g>
        <g
           id="g1090"
           transform="matrix(1,0,0,-1,0,792)"
           style="stroke-width:2.03055">
          <g
             id="g1092"
             style="stroke-width:2.03055">
            <path
               d="m 339.01352,321.3746 c 1.70801,3.42551 2.74716,7.54995 5.94717,9.9491"
               style="fill:none;stroke:#000000;stroke-width:1.2881;stroke-linecap:round;stroke-linejoin:round;stroke-miterlimit:10;stroke-dasharray:none;stroke-opacity:1"
               id="path1094" />
          </g>
        </g>
        <g
           id="g1096"
           transform="matrix(1,0,0,-1,0,792)"
           style="stroke-width:2.03055">
          <g
             id="g1098"
             style="stroke-width:2.03055">
            <path
               d="m 310.28656,191.18932 c -2.66291,8.1431 -5.54117,16.29249 -9.75302,23.78733"
               style="fill:none;stroke:#000000;stroke-width:1.2881;stroke-linecap:round;stroke-linejoin:round;stroke-miterlimit:10;stroke-dasharray:none;stroke-opacity:1"
               id="path1100" />
          </g>
        </g>
        <g
           id="g1102"
           transform="matrix(1,0,0,-1,0,792)"
           style="stroke-width:2.03055">
          <g
             id="g1104"
             style="stroke-width:2.03055">
            <path
               d="m 351.36865,307.13065 c 7.92316,1.60941 16.37408,-3.10676 21.96685,-7.96895"
               style="fill:none;stroke:#000000;stroke-width:1.2881;stroke-linecap:round;stroke-linejoin:round;stroke-miterlimit:10;stroke-dasharray:none;stroke-opacity:1"
               id="path1106" />
          </g>
        </g>
        <g
           id="g1108"
           transform="matrix(1,0,0,-1,0,792)"
           style="stroke-width:2.03055">
          <g
             id="g1110"
             style="stroke-width:2.03055">
            <path
               d="m 244.84508,226.21078 c -15.949,2.00901 -15.141,22.42722 -1.39619,10.04592 -1.2674,-4.43513 -8.70892,-1.68883 -5.4648,0.83664"
               style="fill:none;stroke:#000000;stroke-width:1.2881;stroke-linecap:round;stroke-linejoin:round;stroke-miterlimit:10;stroke-dasharray:none;stroke-opacity:1"
               id="path1112" />
          </g>
        </g>
        <g
           id="g1114"
           transform="matrix(1,0,0,-1,0,792)"
           style="stroke-width:2.03055">
          <g
             id="g1116"
             style="stroke-width:2.03055">
            <path
               d="m 232.47026,247.78081 c 4.85491,-1.90203 11.58939,-5.42352 15.06271,-6.64167"
               style="fill:none;stroke:#000000;stroke-width:1.2881;stroke-linecap:round;stroke-linejoin:round;stroke-miterlimit:10;stroke-dasharray:none;stroke-opacity:1"
               id="path1118" />
          </g>
        </g>
        <g
           id="g1120"
           transform="matrix(1,0,0,-1,0,792)"
           style="stroke-width:2.03055">
          <g
             id="g1122"
             style="stroke-width:2.03055">
            <path
               d="m 241.79802,246.09016 c -4.90465,5.3158 5.52818,6.11664 8.56283,2.06249"
               style="fill:none;stroke:#000000;stroke-width:1.2881;stroke-linecap:round;stroke-linejoin:round;stroke-miterlimit:10;stroke-dasharray:none;stroke-opacity:1"
               id="path1124" />
          </g>
        </g>
        <g
           id="g1126"
           transform="matrix(1,0,0,-1,0,792)"
           style="stroke-width:2.03055">
          <g
             id="g1128"
             style="stroke-width:2.03055">
            <path
               d="m 248.35884,248.26157 c -9.64671,-2.46765 3.25426,-7.68594 2.71544,0.1282"
               style="fill:none;stroke:#000000;stroke-width:1.2881;stroke-linecap:round;stroke-linejoin:round;stroke-miterlimit:10;stroke-dasharray:none;stroke-opacity:1"
               id="path1130" />
          </g>
        </g>
        <g
           id="g1132"
           transform="matrix(1,0,0,-1,0,792)"
           style="stroke-width:2.03055">
          <g
             id="g1134"
             style="stroke-width:2.03055">
            <path
               d="m 244.8172,253.95247 c 4.56607,-4.17816 15.67031,1.26743 5.93681,5.00915 4.98539,-0.72217 13.25274,-5.22484 4.43641,-8.81008"
               style="fill:none;stroke:#000000;stroke-width:1.2881;stroke-linecap:round;stroke-linejoin:round;stroke-miterlimit:10;stroke-dasharray:none;stroke-opacity:1"
               id="path1136" />
          </g>
        </g>
        <g
           id="g1138"
           transform="matrix(1,0,0,-1,0,792)"
           style="stroke-width:2.03055">
          <g
             id="g1140"
             style="stroke-width:2.03055">
            <path
               d="m 243.91603,265.53531 c 9.65443,-10.36759 27.07329,4.95407 8.98017,3.22547 -4.34359,-4.75114 7.54097,-6.89426 4.45537,-1.75665"
               style="fill:none;stroke:#000000;stroke-width:1.2881;stroke-linecap:round;stroke-linejoin:round;stroke-miterlimit:10;stroke-dasharray:none;stroke-opacity:1"
               id="path1142" />
          </g>
        </g>
        <g
           id="g1144"
           transform="matrix(1,0,0,-1,0,792)"
           style="stroke-width:2.03055">
          <g
             id="g1146"
             style="stroke-width:2.03055">
            <path
               d="m 244.06471,259.1861 c -0.41058,3.90347 2.84201,7.25884 4.93206,10.21412"
               style="fill:none;stroke:#000000;stroke-width:1.2881;stroke-linecap:round;stroke-linejoin:round;stroke-miterlimit:10;stroke-dasharray:none;stroke-opacity:1"
               id="path1148" />
          </g>
        </g>
        <g
           id="g1150"
           transform="matrix(1,0,0,-1,0,792)"
           style="stroke-width:2.03055">
          <g
             id="g1152"
             style="stroke-width:2.03055">
            <path
               d="m 258.28461,272.57925 c 0.11362,6.89628 12.94122,2.77348 3.22047,-0.93503 2.12472,-2.94996 5.62693,0.96942 4.95089,3.43136"
               style="fill:none;stroke:#000000;stroke-width:1.2881;stroke-linecap:round;stroke-linejoin:round;stroke-miterlimit:10;stroke-dasharray:none;stroke-opacity:1"
               id="path1154" />
          </g>
        </g>
        <g
           id="g1156"
           transform="matrix(1,0,0,-1,0,792)"
           style="stroke-width:2.03055">
          <g
             id="g1158"
             style="stroke-width:2.03055">
            <path
               d="m 261.79068,281.2287 c 4.06218,-1.2497 7.58596,-3.76573 11.65881,-4.9875"
               style="fill:none;stroke:#000000;stroke-width:1.2881;stroke-linecap:round;stroke-linejoin:round;stroke-miterlimit:10;stroke-dasharray:none;stroke-opacity:1"
               id="path1160" />
          </g>
        </g>
        <g
           id="g1162"
           transform="matrix(1,0,0,-1,0,792)"
           style="stroke-width:2.03055">
          <g
             id="g1164"
             style="stroke-width:2.03055">
            <path
               d="m 264.02042,279.38245 c -5.31979,7.43931 12.95593,8.62721 4.54219,-0.0496"
               style="fill:none;stroke:#000000;stroke-width:1.2881;stroke-linecap:round;stroke-linejoin:round;stroke-miterlimit:10;stroke-dasharray:none;stroke-opacity:1"
               id="path1166" />
          </g>
        </g>
        <g
           id="g1168"
           transform="matrix(1,0,0,-1,0,792)"
           style="stroke-width:2.03055">
          <g
             id="g1170"
             style="stroke-width:2.03055">
            <path
               d="m 269.44601,288.6131 c 4.40315,13.73455 -7.5035,-6.72865 5.97648,0.13328 -0.06,1.33078 2.96219,4.22127 0.28681,4.67211"
               style="fill:none;stroke:#000000;stroke-width:1.2881;stroke-linecap:round;stroke-linejoin:round;stroke-miterlimit:10;stroke-dasharray:none;stroke-opacity:1"
               id="path1172" />
          </g>
        </g>
        <g
           id="g1174"
           transform="matrix(1,0,0,-1,0,792)"
           style="stroke-width:2.03055">
          <g
             id="g1176"
             style="stroke-width:2.03055">
            <path
               d="m 273.9054,301.9339 c 1.04685,-0.32517 5.62981,-1.94865 6.87444,-2.43523"
               style="fill:none;stroke:#000000;stroke-width:1.2881;stroke-linecap:round;stroke-linejoin:round;stroke-miterlimit:10;stroke-dasharray:none;stroke-opacity:1"
               id="path1178" />
          </g>
        </g>
        <g
           id="g1180"
           transform="matrix(1,0,0,-1,0,792)"
           style="stroke-width:2.03055">
          <g
             id="g1182"
             style="stroke-width:2.03055">
            <path
               d="m 276.76044,304.68515 c 5.43893,15.22579 3.39404,-9.3635 9.20225,0.35205 l 1.11167,2.47831"
               style="fill:none;stroke:#000000;stroke-width:1.2881;stroke-linecap:round;stroke-linejoin:round;stroke-miterlimit:10;stroke-dasharray:none;stroke-opacity:1"
               id="path1184" />
          </g>
        </g>
        <g
           id="g1186"
           transform="matrix(1,0,0,-1,0,792)"
           style="stroke-width:2.03055">
          <g
             id="g1188"
             style="stroke-width:2.03055">
            <path
               d="m 284.13217,317.0105 c -0.44397,-14.90577 16.0456,2.40745 0.15274,-0.21016"
               style="fill:none;stroke:#000000;stroke-width:1.2881;stroke-linecap:round;stroke-linejoin:round;stroke-miterlimit:10;stroke-dasharray:none;stroke-opacity:1"
               id="path1190" />
          </g>
        </g>
        <g
           id="g1192"
           transform="matrix(1,0,0,-1,0,792)"
           style="stroke-width:2.03055">
          <g
             id="g1194"
             style="stroke-width:2.03055">
            <path
               d="m 288.88159,325.83527 c -1.41217,-12.2329 15.93426,2.52923 -0.51996,1.44907 l -1.26859,-0.80413 -0.71103,-1.40321"
               style="fill:none;stroke:#000000;stroke-width:1.2881;stroke-linecap:round;stroke-linejoin:round;stroke-miterlimit:10;stroke-dasharray:none;stroke-opacity:1"
               id="path1196" />
          </g>
        </g>
      </g>
    </g>
  </g>
</svg>
