<?xml version="1.0" encoding="UTF-8" standalone="no"?>
<!-- Created by Ashley Blewer - This work is licensed under a Creative Commons Attribution 4.0 International License -->

<svg
   width="544"
   height="480"
   viewBox="0 0 143.93334 127"
   version="1.1"
   id="svg2490"
   inkscape:version="1.2.2 (1:1.2.2+202212051552+b0a8486541)"
   sodipodi:docname="1967-mini-cassette-1.svg"
   xmlns:inkscape="http://www.inkscape.org/namespaces/inkscape"
   xmlns:sodipodi="http://sodipodi.sourceforge.net/DTD/sodipodi-0.dtd"
   xmlns="http://www.w3.org/2000/svg"
   xmlns:svg="http://www.w3.org/2000/svg">
  <sodipodi:namedview
     id="namedview2492"
     pagecolor="#ffffff"
     bordercolor="#666666"
     borderopacity="1.0"
     inkscape:pageshadow="2"
     inkscape:pageopacity="0.0"
     inkscape:pagecheckerboard="0"
     inkscape:document-units="mm"
     showgrid="false"
     units="px"
     inkscape:zoom="0.90583674"
     inkscape:cx="53.541657"
     inkscape:cy="253.35691"
     inkscape:window-width="1846"
     inkscape:window-height="1136"
     inkscape:window-x="0"
     inkscape:window-y="0"
     inkscape:window-maximized="1"
     inkscape:current-layer="g4731"
     inkscape:showpageshadow="2"
     inkscape:deskcolor="#d1d1d1" />
  <defs
     id="defs2487" />
  <g
     inkscape:label="Layer 1"
     inkscape:groupmode="layer"
     id="layer1">
    <g
       id="g4731"
       transform="matrix(0.32961229,0,0,0.32903008,-241.78905,1.73126)"
       style="stroke-width:2.68698">
      <g
         id="g104528"
         transform="matrix(1,0,0,-1,0,792)"
         style="stroke-width:2.68698">
        <g
           id="g104530"
           style="stroke-width:2.68698" />
      </g>
      <g
         id="g104996"
         transform="matrix(1,0,0,-1,0,792)"
         style="stroke-width:2.68698">
        <g
           id="g104998"
           style="stroke-width:2.68698" />
      </g>
      <g
         id="g2564"
         transform="matrix(1.4308389,0,0,1.4326058,-386.62163,-70.29584)"
         style="stroke-width:1.21001">
        <g
           id="g1444"
           transform="matrix(1,0,0,-1,0,792)"
           style="stroke-width:1.21001">
          <g
             id="g1446"
             style="stroke-width:1.21001">
            <path
               d="m 892.51318,687.86047 c -17.11895,-8.57308 -36.42587,-16.7304 -51.22628,-29.07245 -11.68545,-9.10268 -25.75304,-15.45143 -35.85801,-26.30344 -5.09278,-6.15569 -9.01858,-16.05735 -6.74853,-25.74222 0.48978,-2.9582 0.9267,-5.97596 1.85603,-8.82542"
               style="fill:none;stroke:#000000;stroke-width:3.16464;stroke-linecap:round;stroke-linejoin:round;stroke-miterlimit:10;stroke-dasharray:none;stroke-opacity:1"
               id="path1448"
               sodipodi:nodetypes="ccccc" />
          </g>
        </g>
        <g
           id="g1450"
           transform="matrix(1,0,0,-1,0,792)"
           style="stroke-width:1.21001">
          <g
             id="g1452"
             style="stroke-width:1.21001">
            <path
               d="m 800.92517,622.37738 c 9.8489,-3.94695 17.49045,-11.85501 27.42635,-15.86816 19.5253,-9.59849 36.08645,-24.02852 55.63066,-33.56747 15.77972,-8.22054 30.46955,-18.21061 45.88219,-27.04083 11.95608,-5.63488 23.19629,-12.47715 34.59626,-19.12817 1.25095,-0.72417 2.63636,-1.27648 4.09227,-1.37873"
               style="fill:none;stroke:#000000;stroke-width:3.16464;stroke-linecap:round;stroke-linejoin:round;stroke-miterlimit:10;stroke-dasharray:none;stroke-opacity:1"
               id="path1454" />
          </g>
        </g>
        <g
           id="g1456"
           transform="matrix(1,0,0,-1,0,792)"
           style="stroke-width:1.21001">
          <g
             id="g1458"
             style="stroke-width:1.21001">
            <path
               d="m 800.53639,597.91694 c 0,0 132.25714,-82.61932 174.91997,-100.65474 1.87584,-0.33049 4.26269,-1.94497 6.04869,-1.3455"
               style="fill:none;stroke:#000000;stroke-width:3.16464;stroke-linecap:round;stroke-linejoin:round;stroke-miterlimit:10;stroke-dasharray:none;stroke-opacity:1"
               id="path1460"
               sodipodi:nodetypes="ccc" />
          </g>
        </g>
        <g
           id="g1462"
           transform="matrix(1,0,0,-1,0,792)"
           style="stroke-width:1.21001">
          <g
             id="g1464"
             style="stroke-width:1.21001">
            <path
               d="m 981.43567,495.7063 c 33.99443,22.99948 88.26223,85.00177 88.26223,85.00177"
               style="fill:none;stroke:#000000;stroke-width:3.16464;stroke-linecap:round;stroke-linejoin:round;stroke-miterlimit:10;stroke-dasharray:none;stroke-opacity:1"
               id="path1466"
               sodipodi:nodetypes="cc" />
          </g>
        </g>
        <g
           id="g1468"
           transform="matrix(1,0,0,-1,0,792)"
           style="stroke-width:1.21001">
          <g
             id="g1470"
             style="stroke-width:1.21001">
            <path
               d="m 968.93921,525.44733 c 16.59812,-3.62018 28.99189,10.52613 40.07179,20.4987 18.1294,17.99909 37.0028,35.28644 54.6718,53.7808 2.6303,1.42399 3.8164,4.4067 6.3594,5.9337"
               style="fill:none;stroke:#000000;stroke-width:3.16464;stroke-linecap:round;stroke-linejoin:round;stroke-miterlimit:10;stroke-dasharray:none;stroke-opacity:1"
               id="path1472" />
          </g>
        </g>
        <g
           id="g1474"
           transform="matrix(1,0,0,-1,0,792)"
           style="stroke-width:1.21001">
          <g
             id="g1476"
             style="stroke-width:1.21001">
            <path
               d="m 1069.6979,580.70807 c 0.662,7.94753 7.1075,19.51068 -0.2734,25.57337"
               style="fill:none;stroke:#000000;stroke-width:3.16464;stroke-linecap:round;stroke-linejoin:round;stroke-miterlimit:10;stroke-dasharray:none;stroke-opacity:1"
               id="path1478" />
          </g>
        </g>
        <g
           id="g1480"
           transform="matrix(1,0,0,-1,0,792)"
           style="stroke-width:1.21001">
          <g
             id="g1482"
             style="stroke-width:1.21001">
            <path
               d="m 892.51318,687.86047 c 57.83689,-26.52194 116.45372,-51.34131 173.79342,-78.94458 1.0151,-0.90647 2.0755,-1.76 3.1179,-2.63445"
               style="fill:none;stroke:#000000;stroke-width:3.16464;stroke-linecap:round;stroke-linejoin:round;stroke-miterlimit:10;stroke-dasharray:none;stroke-opacity:1"
               id="path1484"
               sodipodi:nodetypes="ccc" />
          </g>
        </g>
        <g
           id="g1486"
           transform="matrix(1,0,0,-1,0,792)"
           style="stroke-width:1.21001">
          <g
             id="g1488"
             style="stroke-width:1.21001">
            <path
               d="m 894.70703,651.29999 c 10.58246,0.64072 21.40016,-4.08104 27.99431,-12.40829 3.72793,-7.8873 -3.84053,-15.60305 -11.05182,-17.6868 -9.57629,-2.81717 -19.8401,-0.10675 -28.92968,3.20038 -7.3473,2.1314 -13.25268,10.44063 -7.45331,17.33303 4.28074,5.67704 11.54136,8.63747 18.41684,9.58031 1.2154,0.0433 2.45454,-0.0986 3.58903,-0.55676"
               style="fill:none;stroke:#000000;stroke-width:3.16464;stroke-linecap:round;stroke-linejoin:round;stroke-miterlimit:10;stroke-dasharray:none;stroke-opacity:1"
               id="path1490" />
          </g>
        </g>
        <g
           id="g1492"
           transform="matrix(1,0,0,-1,0,792)"
           style="stroke-width:1.21001">
          <g
             id="g1494"
             style="stroke-width:1.21001">
            <path
               d="m 960.3808,610.61877 c 11.91483,3.85343 26.02729,3.88733 36.57187,-3.61089 4.93833,-3.26237 8.78473,-9.62655 6.43443,-15.58153 -3.378,-7.49523 -11.8304,-11.16473 -19.59411,-12.05849 -8.83822,-0.70683 -18.36577,-0.0667 -26.07805,4.73289 -3.89472,2.31356 -7.52185,6.36627 -6.669,11.23062 0.86693,8.86527 9.8494,16.51893 19.08928,16.87344"
               style="fill:none;stroke:#000000;stroke-width:3.16464;stroke-linecap:round;stroke-linejoin:round;stroke-miterlimit:10;stroke-dasharray:none;stroke-opacity:1"
               id="path1496"
               sodipodi:nodetypes="ccccccc" />
          </g>
        </g>
        <g
           id="g1498"
           transform="matrix(1,0,0,-1,0,792)"
           style="stroke-width:1.21001">
          <g
             id="g1500"
             style="stroke-width:1.21001">
            <path
               d="m 961.00684,615.85699 c -6.93147,3.1731 -14.84358,8.05097 -21.78388,11.20582"
               style="fill:none;stroke:#000000;stroke-width:3.16464;stroke-linecap:round;stroke-linejoin:round;stroke-miterlimit:10;stroke-dasharray:none;stroke-opacity:1"
               id="path1502"
               sodipodi:nodetypes="cc" />
          </g>
        </g>
        <g
           id="g1504"
           transform="matrix(1,0,0,-1,0,792)"
           style="stroke-width:1.21001">
          <g
             id="g1506"
             style="stroke-width:1.21001">
            <path
               d="m 939.22296,627.06281 c -5.39068,-4.22271 -13.64891,-6.00242 -15.92026,-13.27568"
               style="fill:none;stroke:#000000;stroke-width:3.16464;stroke-linecap:round;stroke-linejoin:round;stroke-miterlimit:10;stroke-dasharray:none;stroke-opacity:1"
               id="path1508" />
          </g>
        </g>
        <g
           id="g1510"
           transform="matrix(1,0,0,-1,0,792)"
           style="stroke-width:1.21001">
          <g
             id="g1512"
             style="stroke-width:1.21001">
            <path
               d="m 922.76941,613.42725 c 7.62594,-3.59406 16.71796,-8.61159 22.75952,-12.59598"
               style="fill:none;stroke:#000000;stroke-width:3.16464;stroke-linecap:round;stroke-linejoin:round;stroke-miterlimit:10;stroke-dasharray:none;stroke-opacity:1"
               id="path1514" />
          </g>
        </g>
        <g
           id="g1516"
           transform="matrix(1,0,0,-1,0,792)"
           style="stroke-width:1.21001">
          <g
             id="g1518"
             style="stroke-width:1.21001">
            <path
               d="m 961.7132,600.78314 c 8.90573,6.6143 22.65171,6.23499 29.39278,-3.3588 1.21618,-1.73114 2.40588,-4.3056 2.45313,-6.17843"
               style="fill:none;stroke:#000000;stroke-width:3.16464;stroke-linecap:round;stroke-linejoin:round;stroke-miterlimit:10;stroke-dasharray:none;stroke-opacity:1"
               id="path1520" />
          </g>
        </g>
        <g
           id="g1522"
           transform="matrix(1,0,0,-1,0,792)"
           style="stroke-width:1.21001">
          <g
             id="g1524"
             style="stroke-width:1.21001">
            <path
               d="m 958.86115,591.31744 c 2.7487,-2.61896 8.92686,0.89115 6.48693,4.59335"
               style="fill:none;stroke:#000000;stroke-width:3.16464;stroke-linecap:round;stroke-linejoin:round;stroke-miterlimit:10;stroke-dasharray:none;stroke-opacity:1"
               id="path1526" />
          </g>
        </g>
        <g
           id="g1528"
           transform="matrix(1,0,0,-1,0,792)"
           style="stroke-width:1.21001">
          <g
             id="g1530"
             style="stroke-width:1.21001">
            <path
               d="m 967.5379,596.00439 c 7.17135,3.84264 6.59145,-10.55077 13.62793,-1.97641"
               style="fill:none;stroke:#000000;stroke-width:3.16464;stroke-linecap:round;stroke-linejoin:round;stroke-miterlimit:10;stroke-dasharray:none;stroke-opacity:1"
               id="path1532" />
          </g>
        </g>
        <g
           id="g1534"
           transform="matrix(1,0,0,-1,0,792)"
           style="stroke-width:1.21001">
          <g
             id="g1536"
             style="stroke-width:1.21001">
            <path
               d="m 987.7486,591.31799 c -0.49607,-1.62641 -3.01748,-7.40269 1.11964,-5.41449"
               style="fill:none;stroke:#000000;stroke-width:3.16464;stroke-linecap:round;stroke-linejoin:round;stroke-miterlimit:10;stroke-dasharray:none;stroke-opacity:1"
               id="path1538" />
          </g>
        </g>
        <g
           id="g1540"
           transform="matrix(1,0,0,-1,0,792)"
           style="stroke-width:1.21001">
          <g
             id="g1542"
             style="stroke-width:1.21001">
            <path
               d="m 992.276,586.48462 c -10.08595,-5.12584 -28.77485,-7.83724 -34.58532,4.65271"
               style="fill:none;stroke:#000000;stroke-width:3.16464;stroke-linecap:round;stroke-linejoin:round;stroke-miterlimit:10;stroke-dasharray:none;stroke-opacity:1"
               id="path1544" />
          </g>
        </g>
        <g
           id="g1546"
           transform="matrix(1,0,0,-1,0,792)"
           style="stroke-width:1.21001">
          <g
             id="g1548"
             style="stroke-width:1.21001">
            <path
               d="m 883.80658,630.65778 c 7.56031,-5.22145 18.56108,-6.81701 27.34741,-3.925"
               style="fill:none;stroke:#000000;stroke-width:3.16464;stroke-linecap:round;stroke-linejoin:round;stroke-miterlimit:10;stroke-dasharray:none;stroke-opacity:1"
               id="path1550" />
          </g>
        </g>
        <g
           id="g1552"
           transform="matrix(1,0,0,-1,0,792)"
           style="stroke-width:1.21001">
          <g
             id="g1554"
             style="stroke-width:1.21001">
            <path
               d="m 911.19171,630.04156 c -4.79022,-0.70567 -2.36774,5.20125 -0.87329,5.20927"
               style="fill:none;stroke:#000000;stroke-width:3.16464;stroke-linecap:round;stroke-linejoin:round;stroke-miterlimit:10;stroke-dasharray:none;stroke-opacity:1"
               id="path1556" />
          </g>
        </g>
        <g
           id="g1558"
           transform="matrix(1,0,0,-1,0,792)"
           style="stroke-width:1.21001">
          <g
             id="g1560"
             style="stroke-width:1.21001">
            <path
               d="m 905.69275,637.04034 c -4.04186,-2.29374 -6.71829,1.26922 -8.8445,2.17147"
               style="fill:none;stroke:#000000;stroke-width:3.16464;stroke-linecap:round;stroke-linejoin:round;stroke-miterlimit:10;stroke-dasharray:none;stroke-opacity:1"
               id="path1562" />
          </g>
        </g>
        <g
           id="g1564"
           transform="matrix(1,0,0,-1,0,792)"
           style="stroke-width:1.21001">
          <g
             id="g1566"
             style="stroke-width:1.21001">
            <path
               d="m 891.86987,636.95166 c -0.71035,-1.73031 -3.15841,-2.60565 -4.91098,-2.68787"
               style="fill:none;stroke:#000000;stroke-width:3.16464;stroke-linecap:round;stroke-linejoin:round;stroke-miterlimit:10;stroke-dasharray:none;stroke-opacity:1"
               id="path1568" />
          </g>
        </g>
        <g
           id="g1570"
           transform="matrix(1,0,0,-1,0,792)"
           style="stroke-width:1.21001">
          <g
             id="g1572"
             style="stroke-width:1.21001">
            <path
               d="m 883.80658,630.65778 c -5.60173,15.13743 15.54398,16.60646 25.34444,11.13201 6.37822,-1.58094 10.71045,-11.56092 3.25709,-14.72794"
               style="fill:none;stroke:#000000;stroke-width:3.16464;stroke-linecap:round;stroke-linejoin:round;stroke-miterlimit:10;stroke-dasharray:none;stroke-opacity:1"
               id="path1574"
               sodipodi:nodetypes="ccc" />
          </g>
        </g>
        <g
           id="g1576"
           transform="matrix(1,0,0,-1,0,792)"
           style="stroke-width:1.21001">
          <g
             id="g1578"
             style="stroke-width:1.21001">
            <path
               d="m 813.36322,632.33307 c 8.86632,-10.53257 14.42235,7.04948 29.26367,-5.7743 7.1428,-4.70528 3.00582,-4.6587 -0.22337,-9.22732"
               style="fill:none;stroke:#000000;stroke-width:3.16464;stroke-linecap:round;stroke-linejoin:round;stroke-miterlimit:10;stroke-dasharray:none;stroke-opacity:1"
               id="path1580"
               sodipodi:nodetypes="ccc" />
          </g>
        </g>
        <g
           id="g1582"
           transform="matrix(1,0,0,-1,0,792)"
           style="stroke-width:1.21001">
          <g
             id="g1584"
             style="stroke-width:1.21001">
            <path
               d="m 843.38031,616.80341 c 14.25732,-6.42784 26.74456,-16.10494 40.95634,-22.64228 -0.83783,0.0658 4.97983,-2.44284 3.03125,-2.03913"
               style="fill:none;stroke:#000000;stroke-width:3.16464;stroke-linecap:round;stroke-linejoin:round;stroke-miterlimit:10;stroke-dasharray:none;stroke-opacity:1"
               id="path1586"
               sodipodi:nodetypes="ccc" />
          </g>
        </g>
        <g
           id="g1588"
           transform="matrix(1,0,0,-1,0,792)"
           style="stroke-width:1.21001">
          <g
             id="g1590"
             style="stroke-width:1.21001">
            <path
               d="m 887.3679,592.122 c 6.77434,2.81189 22.81672,-2.86505 20.30489,-11.33977"
               style="fill:none;stroke:#000000;stroke-width:3.16464;stroke-linecap:round;stroke-linejoin:round;stroke-miterlimit:10;stroke-dasharray:none;stroke-opacity:1"
               id="path1592"
               sodipodi:nodetypes="cc" />
          </g>
        </g>
        <g
           id="g1594"
           transform="matrix(1,0,0,-1,0,792)"
           style="stroke-width:1.21001">
          <g
             id="g1596"
             style="stroke-width:1.21001">
            <path
               d="m 907.67279,580.78223 c 15.01496,-9.94125 31.05506,-18.3152 46.97119,-26.71239"
               style="fill:none;stroke:#000000;stroke-width:3.16464;stroke-linecap:round;stroke-linejoin:round;stroke-miterlimit:10;stroke-dasharray:none;stroke-opacity:1"
               id="path1598" />
          </g>
        </g>
        <g
           id="g1600"
           transform="matrix(1,0,0,-1,0,792)"
           style="stroke-width:1.21001">
          <g
             id="g1602"
             style="stroke-width:1.21001">
            <path
               d="m 954.93811,553.74933 c 3.66095,1.32726 6.50924,5.66281 10.36086,5.54793"
               style="fill:none;stroke:#000000;stroke-width:3.16464;stroke-linecap:round;stroke-linejoin:round;stroke-miterlimit:10;stroke-dasharray:none;stroke-opacity:1"
               id="path1604" />
          </g>
        </g>
        <g
           id="g1606"
           transform="matrix(1,0,0,-1,0,792)"
           style="stroke-width:1.21001">
          <g
             id="g1608"
             style="stroke-width:1.21001">
            <path
               d="m 965.29897,559.29726 c 6.9294,-0.60213 14.54851,-4.98747 19.9608,-9.40378"
               style="fill:none;stroke:#000000;stroke-width:3.16464;stroke-linecap:round;stroke-linejoin:round;stroke-miterlimit:10;stroke-dasharray:none;stroke-opacity:1"
               id="path1610"
               sodipodi:nodetypes="cc" />
          </g>
        </g>
        <g
           id="g1612"
           transform="matrix(1,0,0,-1,0,792)"
           style="stroke-width:1.21001">
          <g
             id="g1614"
             style="stroke-width:1.21001">
            <path
               d="m 984.42993,549.03186 c -1.32635,-2.48839 -3.82877,-4.79791 -3.93164,-7.53005"
               style="fill:none;stroke:#000000;stroke-width:3.16464;stroke-linecap:round;stroke-linejoin:round;stroke-miterlimit:10;stroke-dasharray:none;stroke-opacity:1"
               id="path1616" />
          </g>
        </g>
        <g
           id="g1618"
           transform="matrix(1,0,0,-1,0,792)"
           style="stroke-width:1.21001">
          <g
             id="g1620"
             style="stroke-width:1.21001">
            <path
               d="m 980.10425,541.23169 c 2.96827,-3.38833 12.50592,-8.38377 16.51962,-5.96829"
               style="fill:none;stroke:#000000;stroke-width:3.16464;stroke-linecap:round;stroke-linejoin:round;stroke-miterlimit:10;stroke-dasharray:none;stroke-opacity:1"
               id="path1622"
               sodipodi:nodetypes="cc" />
          </g>
        </g>
        <g
           id="g1624"
           transform="matrix(1,0,0,-1,0,792)"
           style="stroke-width:1.21001">
          <g
             id="g1626"
             style="stroke-width:1.21001">
            <path
               d="m 964.371,553.5927 c 2.9577,-0.66159 7.88427,-2.58913 10.51657,-4.00456"
               style="fill:none;stroke:#000000;stroke-width:3.16464;stroke-linecap:round;stroke-linejoin:round;stroke-miterlimit:10;stroke-dasharray:none;stroke-opacity:1"
               id="path1628"
               sodipodi:nodetypes="cc" />
          </g>
        </g>
        <g
           id="g1630"
           transform="matrix(1,0,0,-1,0,792)"
           style="stroke-width:1.21001">
          <g
             id="g1632"
             style="stroke-width:1.21001">
            <path
               d="m 974.36859,548.81525 c 1.44789,-11.97951 -25.36868,-13.94688 -15.51377,0.23779 1.21174,2.07169 2.99716,4.1687 5.51618,4.53966"
               style="fill:none;stroke:#000000;stroke-width:3.16464;stroke-linecap:round;stroke-linejoin:round;stroke-miterlimit:10;stroke-dasharray:none;stroke-opacity:1"
               id="path1634" />
          </g>
        </g>
        <g
           id="g1636"
           transform="matrix(1,0,0,-1,0,792)"
           style="stroke-width:1.21001">
          <g
             id="g1638"
             style="stroke-width:1.21001">
            <path
               d="m 891.50067,588.65167 c -11.96811,0.6118 -3.00156,-16.19181 3.45676,-5.75156 1.31594,3.57301 -4.49975,7.32372 -7.51339,5.37139"
               style="fill:none;stroke:#000000;stroke-width:3.16464;stroke-linecap:round;stroke-linejoin:round;stroke-miterlimit:10;stroke-dasharray:none;stroke-opacity:1"
               id="path1640" />
          </g>
        </g>
        <g
           id="g1642"
           transform="matrix(1,0,0,-1,0,792)"
           style="stroke-width:1.21001">
          <g
             id="g1644"
             style="stroke-width:1.21001">
            <path
               d="m 833.22345,626.81335 c 2.28542,-0.59906 4.74621,-1.71548 6.19562,-3.65217"
               style="fill:none;stroke:#000000;stroke-width:3.16464;stroke-linecap:round;stroke-linejoin:round;stroke-miterlimit:10;stroke-dasharray:none;stroke-opacity:1"
               id="path1646" />
          </g>
        </g>
        <g
           id="g1648"
           transform="matrix(1,0,0,-1,0,792)"
           style="stroke-width:1.21001">
          <g
             id="g1650"
             style="stroke-width:1.21001">
            <path
               d="m 839.50922,623.21301 c -1.83687,-10.59964 -24.21787,-9.9194 -12.859,0.5998 1.44962,1.37695 3.67655,3.27556 4.93368,3.87485"
               style="fill:none;stroke:#000000;stroke-width:3.16464;stroke-linecap:round;stroke-linejoin:round;stroke-miterlimit:10;stroke-dasharray:none;stroke-opacity:1"
               id="path1652" />
          </g>
        </g>
        <g
           id="g1654"
           transform="matrix(1,0,0,-1,0,792)"
           style="stroke-width:1.21001">
          <g
             id="g1656"
             style="stroke-width:1.21001">
            <path
               d="m 966.73022,648.09149 c -0.82762,-2.18769 -4.01823,-4.97257 -1.64847,-7.17783 2.13562,-0.81348 4.22635,-1.76016 6.30735,-2.5699 2.8935,-0.0559 3.99948,3.04381 5.51724,4.94527 0.50691,0.5143 1.31197,1.46624 2.11346,1.0969"
               style="fill:none;stroke:#000000;stroke-width:3.16464;stroke-linecap:round;stroke-linejoin:round;stroke-miterlimit:10;stroke-dasharray:none;stroke-opacity:1"
               id="path1658" />
          </g>
        </g>
        <g
           id="g1660"
           transform="matrix(1,0,0,-1,0,792)"
           style="stroke-width:1.21001">
          <g
             id="g1662"
             style="stroke-width:1.21001">
            <path
               d="m 971.36658,643.70935 c -0.80777,0.82923 3.76882,-0.57555 1.72351,-0.66102"
               style="fill:none;stroke:#000000;stroke-width:3.16464;stroke-linecap:round;stroke-linejoin:round;stroke-miterlimit:10;stroke-dasharray:none;stroke-opacity:1"
               id="path1664" />
          </g>
        </g>
        <g
           id="g1666"
           transform="matrix(1,0,0,-1,0,792)"
           style="stroke-width:1.21001">
          <g
             id="g1668"
             style="stroke-width:1.21001">
            <path
               d="m 890.90812,680.05287 c 21.33901,-10.31877 45.10121,-15.31299 65.13047,-28.36425"
               style="fill:none;stroke:#000000;stroke-width:3.16464;stroke-linecap:round;stroke-linejoin:round;stroke-miterlimit:10;stroke-dasharray:none;stroke-opacity:1"
               id="path1670" />
          </g>
        </g>
        <g
           id="g1672"
           transform="matrix(1,0,0,-1,0,792)"
           style="stroke-width:1.21001">
          <g
             id="g1674"
             style="stroke-width:1.21001">
            <path
               d="m 987.25439,637.16785 c 17.76171,-7.58258 34.05861,-18.1722 51.97871,-25.43718 6.5387,-3.14612 16.649,-7.8179 21.0499,-10.17783"
               style="fill:none;stroke:#000000;stroke-width:3.16464;stroke-linecap:round;stroke-linejoin:round;stroke-miterlimit:10;stroke-dasharray:none;stroke-opacity:1"
               id="path1676" />
          </g>
        </g>
        <g
           id="g1678"
           transform="matrix(1,0,0,-1,0,792)"
           style="stroke-width:1.21001">
          <g
             id="g1680"
             style="stroke-width:1.21001">
            <path
               d="m 808.14813,613.34076 c -0.0309,-5.22092 -1.1382,-10.5586 -0.34368,-15.76174"
               style="fill:none;stroke:#000000;stroke-width:3.16464;stroke-linecap:round;stroke-linejoin:round;stroke-miterlimit:10;stroke-dasharray:none;stroke-opacity:1"
               id="path1682" />
          </g>
        </g>
        <g
           id="g1684"
           transform="matrix(1,0,0,-1,0,792)"
           style="stroke-width:1.21001">
          <g
             id="g1686"
             style="stroke-width:1.21001">
            <path
               d="m 829.09326,600.63196 c 0.83242,-5.2378 0.0874,-15.31534 1.09486,-18.06325"
               style="fill:none;stroke:#000000;stroke-width:3.16464;stroke-linecap:round;stroke-linejoin:round;stroke-miterlimit:10;stroke-dasharray:none;stroke-opacity:1"
               id="path1688" />
          </g>
        </g>
        <g
           id="g1690"
           transform="matrix(1,0,0,-1,0,792)"
           style="stroke-width:1.21001">
          <g
             id="g1692"
             style="stroke-width:1.21001">
            <path
               d="m 836.44,595.90613 c 1.90093,-5.23034 1.4162,-10.9514 2.69387,-16.32753"
               style="fill:none;stroke:#000000;stroke-width:3.16464;stroke-linecap:round;stroke-linejoin:round;stroke-miterlimit:10;stroke-dasharray:none;stroke-opacity:1"
               id="path1694" />
          </g>
        </g>
        <g
           id="g1696"
           transform="matrix(1,0,0,-1,0,792)"
           style="stroke-width:1.21001">
          <g
             id="g1698"
             style="stroke-width:1.21001">
            <path
               d="m 859.96832,580.03479 c 1.56886,-3.44023 0.50758,-9.26624 1.8978,-11.87213"
               style="fill:none;stroke:#000000;stroke-width:3.16464;stroke-linecap:round;stroke-linejoin:round;stroke-miterlimit:10;stroke-dasharray:none;stroke-opacity:1"
               id="path1700" />
          </g>
        </g>
        <g
           id="g1702"
           transform="matrix(1,0,0,-1,0,792)"
           style="stroke-width:1.21001">
          <g
             id="g1704"
             style="stroke-width:1.21001">
            <path
               d="m 870.15485,575.52209 c 0.57166,-2.24438 0.19088,-4.65761 0.98476,-6.84801"
               style="fill:none;stroke:#000000;stroke-width:3.16464;stroke-linecap:round;stroke-linejoin:round;stroke-miterlimit:10;stroke-dasharray:none;stroke-opacity:1"
               id="path1706" />
          </g>
        </g>
        <g
           id="g1708"
           transform="matrix(1,0,0,-1,0,792)"
           style="stroke-width:1.21001">
          <g
             id="g1710"
             style="stroke-width:1.21001">
            <path
               d="m 900.75891,557.70294 c 0.43161,-2.26929 1.15325,-4.97551 -0.25243,-7.06348"
               style="fill:none;stroke:#000000;stroke-width:3.16464;stroke-linecap:round;stroke-linejoin:round;stroke-miterlimit:10;stroke-dasharray:none;stroke-opacity:1"
               id="path1712" />
          </g>
        </g>
        <g
           id="g1714"
           transform="matrix(1,0,0,-1,0,792)"
           style="stroke-width:1.21001">
          <g
             id="g1716"
             style="stroke-width:1.21001">
            <path
               d="m 910.51575,554.65002 c 1.85603,-5.41115 -0.81488,-13.56069 0.0458,-17.54492"
               style="fill:none;stroke:#000000;stroke-width:3.16464;stroke-linecap:round;stroke-linejoin:round;stroke-miterlimit:10;stroke-dasharray:none;stroke-opacity:1"
               id="path1718" />
          </g>
        </g>
        <g
           id="g1720"
           transform="matrix(1,0,0,-1,0,792)"
           style="stroke-width:1.21001">
          <g
             id="g1722"
             style="stroke-width:1.21001">
            <path
               d="m 936.26917,538.34845 c 0.89256,-1.90284 0.91508,-4.1671 0.38323,-6.17009"
               style="fill:none;stroke:#000000;stroke-width:3.16464;stroke-linecap:round;stroke-linejoin:round;stroke-miterlimit:10;stroke-dasharray:none;stroke-opacity:1"
               id="path1724" />
          </g>
        </g>
        <g
           id="g1726"
           transform="matrix(1,0,0,-1,0,792)"
           style="stroke-width:1.21001">
          <g
             id="g1728"
             style="stroke-width:1.21001">
            <path
               d="m 945.60681,536.14648 c 1.41366,-4.56127 0.1597,-10.37802 0.85847,-14.40872"
               style="fill:none;stroke:#000000;stroke-width:3.16464;stroke-linecap:round;stroke-linejoin:round;stroke-miterlimit:10;stroke-dasharray:none;stroke-opacity:1"
               id="path1730" />
          </g>
        </g>
        <g
           id="g1732"
           transform="matrix(1,0,0,-1,0,792)"
           style="stroke-width:1.21001">
          <g
             id="g1734"
             style="stroke-width:1.21001">
            <path
               d="m 943.5849,514.36029 c -1.21176,-2.00249 3.58525,2.2804 3.96077,2.40717"
               style="fill:none;stroke:#000000;stroke-width:3.16464;stroke-linecap:round;stroke-linejoin:round;stroke-miterlimit:10;stroke-dasharray:none;stroke-opacity:1"
               id="path1736" />
          </g>
        </g>
        <g
           id="g1738"
           transform="matrix(1,0,0,-1,0,792)"
           style="stroke-width:1.21001">
          <g
             id="g1740"
             style="stroke-width:1.21001">
            <path
               d="m 952.21509,520.1098 c 4.48349,-2.23887 12.56376,-5.87697 14.61181,-6.46946"
               style="fill:none;stroke:#000000;stroke-width:3.16464;stroke-linecap:round;stroke-linejoin:round;stroke-miterlimit:10;stroke-dasharray:none;stroke-opacity:1"
               id="path1742" />
          </g>
        </g>
        <g
           id="g1744"
           transform="matrix(1,0,0,-1,0,792)"
           style="stroke-width:1.21001">
          <g
             id="g1746"
             style="stroke-width:1.21001">
            <path
               d="m 913.51569,538.74976 c 5.82359,-2.08064 14.20396,-5.94942 17.97015,-7.95122"
               style="fill:none;stroke:#000000;stroke-width:3.16464;stroke-linecap:round;stroke-linejoin:round;stroke-miterlimit:10;stroke-dasharray:none;stroke-opacity:1"
               id="path1748" />
          </g>
        </g>
        <g
           id="g1750"
           transform="matrix(1,0,0,-1,0,792)"
           style="stroke-width:1.21001">
          <g
             id="g1752"
             style="stroke-width:1.21001">
            <path
               d="m 874.41333,563.01892 c 7.57727,-2.80188 16.29339,-7.99249 22.32135,-11.12943"
               style="fill:none;stroke:#000000;stroke-width:3.16464;stroke-linecap:round;stroke-linejoin:round;stroke-miterlimit:10;stroke-dasharray:none;stroke-opacity:1"
               id="path1754" />
          </g>
        </g>
        <g
           id="g1756"
           transform="matrix(1,0,0,-1,0,792)"
           style="stroke-width:1.21001">
          <g
             id="g1758"
             style="stroke-width:1.21001">
            <path
               d="m 842.97064,581.17719 c 4.23427,-2.23994 12.12385,-4.88152 13.59811,-7.38766"
               style="fill:none;stroke:#000000;stroke-width:3.16464;stroke-linecap:round;stroke-linejoin:round;stroke-miterlimit:10;stroke-dasharray:none;stroke-opacity:1"
               id="path1760" />
          </g>
        </g>
        <g
           id="g1762"
           transform="matrix(1,0,0,-1,0,792)"
           style="stroke-width:1.21001">
          <g
             id="g1764"
             style="stroke-width:1.21001">
            <path
               d="m 812.16559,599.45007 c 5.29458,-2.03813 10.19873,-4.9287 15.33188,-7.31891"
               style="fill:none;stroke:#000000;stroke-width:3.16464;stroke-linecap:round;stroke-linejoin:round;stroke-miterlimit:10;stroke-dasharray:none;stroke-opacity:1"
               id="path1766" />
          </g>
        </g>
        <g
           id="g1768"
           transform="matrix(1,0,0,-1,0,792)"
           style="stroke-width:1.21001">
          <g
             id="g1770"
             style="stroke-width:1.21001">
            <path
               d="m 804.87128,606.25677 c -1.69391,1.99968 -7.56932,4.17704 -4.8769,7.37876"
               style="fill:none;stroke:#000000;stroke-width:1.58232;stroke-linecap:round;stroke-linejoin:round;stroke-miterlimit:10;stroke-dasharray:none;stroke-opacity:1"
               id="path1772" />
          </g>
        </g>
        <g
           id="g1774"
           transform="matrix(1,0,0,-1,0,792)"
           style="stroke-width:1.21001">
          <g
             id="g1776"
             style="stroke-width:1.21001">
            <path
               d="m 1070.1825,592.20398 c 0,0 -81.81844,-80.14596 -90.05452,-82.06219 -3.15468,0.15211 -11.77307,2.16125 -13.30108,3.49855"
               style="fill:none;stroke:#000000;stroke-width:1.58232;stroke-linecap:round;stroke-linejoin:round;stroke-miterlimit:10;stroke-dasharray:none;stroke-opacity:1"
               id="path1778"
               sodipodi:nodetypes="ccc" />
          </g>
        </g>
        <g
           id="g1780"
           transform="matrix(1,0,0,-1,0,792)"
           style="stroke-width:1.21001">
          <g
             id="g1782"
             style="stroke-width:1.21001">
            <path
               d="m 835.13959,638.7287 c 16.33741,-10.17906 32.39378,-20.81848 49.64296,-29.44843 25.92288,-13.34365 52.26409,-26.08807 77.7675,-40.30498 13.47822,-6.41641 27.97308,-15.52547 40.34815,-21.06245"
               style="fill:none;stroke:#000000;stroke-width:1.58232;stroke-linecap:round;stroke-linejoin:round;stroke-miterlimit:10;stroke-dasharray:none;stroke-opacity:1"
               id="path1784" />
          </g>
        </g>
        <g
           id="g1786"
           transform="matrix(1,0,0,-1,0,792)"
           style="stroke-width:1.21001">
          <g
             id="g1788"
             style="stroke-width:1.21001">
            <path
               d="m 871.2793,668.05316 c 8.94036,-4.50553 10.91769,-4.98401 19.65156,-9.83555"
               style="fill:none;stroke:#000000;stroke-width:1.58232;stroke-linecap:round;stroke-linejoin:round;stroke-miterlimit:10;stroke-dasharray:none;stroke-opacity:1"
               id="path1790"
               sodipodi:nodetypes="cc" />
          </g>
        </g>
        <g
           id="g1792"
           transform="matrix(1,0,0,-1,0,792)"
           style="stroke-width:1.21001">
          <g
             id="g1794"
             style="stroke-width:1.21001">
            <path
               d="m 929.30963,633.48651 c 9.22518,-4.25404 18.78373,-7.63682 27.38281,-13.12117"
               style="fill:none;stroke:#000000;stroke-width:1.58232;stroke-linecap:round;stroke-linejoin:round;stroke-miterlimit:10;stroke-dasharray:none;stroke-opacity:1"
               id="path1796" />
          </g>
        </g>
        <g
           id="g1798"
           transform="matrix(1,0,0,-1,0,792)"
           style="stroke-width:1.21001">
          <g
             id="g1800"
             style="stroke-width:1.21001">
            <path
               d="m 1008.1846,598.69232 32.8907,-14.21422"
               style="fill:none;stroke:#000000;stroke-width:1.58232;stroke-linecap:round;stroke-linejoin:round;stroke-miterlimit:10;stroke-dasharray:none;stroke-opacity:1"
               id="path1802"
               sodipodi:nodetypes="cc" />
          </g>
        </g>
      </g>
    </g>
  </g>
</svg>
