<?xml version="1.0" encoding="UTF-8" standalone="no"?>
<!-- Created by Ashley Blewer - This work is licensed under a Creative Commons Attribution 4.0 International License -->

<svg
   width="544"
   height="480"
   viewBox="0 0 143.93334 127"
   version="1.1"
   id="svg2490"
   inkscape:version="1.2.2 (1:1.2.2+202212051552+b0a8486541)"
   sodipodi:docname="1969-micro-cassette-1.svg"
   xmlns:inkscape="http://www.inkscape.org/namespaces/inkscape"
   xmlns:sodipodi="http://sodipodi.sourceforge.net/DTD/sodipodi-0.dtd"
   xmlns="http://www.w3.org/2000/svg"
   xmlns:svg="http://www.w3.org/2000/svg">
  <sodipodi:namedview
     id="namedview2492"
     pagecolor="#ffffff"
     bordercolor="#666666"
     borderopacity="1.0"
     inkscape:pageshadow="2"
     inkscape:pageopacity="0.0"
     inkscape:pagecheckerboard="0"
     inkscape:document-units="mm"
     showgrid="false"
     units="px"
     inkscape:zoom="0.90583674"
     inkscape:cx="53.541657"
     inkscape:cy="253.35691"
     inkscape:window-width="1846"
     inkscape:window-height="1136"
     inkscape:window-x="0"
     inkscape:window-y="0"
     inkscape:window-maximized="1"
     inkscape:current-layer="g4731"
     inkscape:showpageshadow="2"
     inkscape:deskcolor="#d1d1d1" />
  <defs
     id="defs2487" />
  <g
     inkscape:label="Layer 1"
     inkscape:groupmode="layer"
     id="layer1">
    <g
       id="g4731"
       transform="matrix(0.32961229,0,0,0.32903008,-241.78905,1.73126)"
       style="stroke-width:2.68698">
      <g
         id="g104528"
         transform="matrix(1,0,0,-1,0,792)"
         style="stroke-width:2.68698">
        <g
           id="g104530"
           style="stroke-width:2.68698" />
      </g>
      <g
         id="g104996"
         transform="matrix(1,0,0,-1,0,792)"
         style="stroke-width:2.68698">
        <g
           id="g104998"
           style="stroke-width:2.68698" />
      </g>
      <g
         id="g7682"
         transform="matrix(1.4242963,0,0,1.4268165,-487.79082,-112.66912)">
        <g
           id="g3430"
           transform="matrix(1,0,0,-1,0,792)">
          <g
             id="g3432">
            <path
               d="m 916.26831,674.03772 c 28.15679,-3.55041 56.23081,-8.3678 84.29599,-12.75903 22.0963,-5.1687 45.1198,-5.69929 67.2067,-11.91539 8.0453,-1.47832 23.2268,-3.32296 23.2268,-3.32296"
               style="fill:none;stroke:#000000;stroke-width:2.61538;stroke-linecap:round;stroke-linejoin:round;stroke-miterlimit:10;stroke-dasharray:none;stroke-opacity:1"
               id="path3434"
               sodipodi:nodetypes="cccc" />
          </g>
        </g>
        <g
           id="g3436"
           transform="matrix(1,0,0,-1,0,792)">
          <g
             id="g3438">
            <path
               d="m 1090.9978,646.04034 c -1.1147,-3.25039 12.1024,-4.5713 11.7753,-1.15617"
               style="fill:none;stroke:#000000;stroke-width:2.61538;stroke-linecap:round;stroke-linejoin:round;stroke-miterlimit:10;stroke-dasharray:none;stroke-opacity:1"
               id="path3440" />
          </g>
        </g>
        <g
           id="g3442"
           transform="matrix(1,0,0,-1,0,792)">
          <g
             id="g3444">
            <path
               d="m 1103.5465,644.32977 c 14.3694,-1.48893 29.1943,-2.77218 43.2127,-6.07255"
               style="fill:none;stroke:#000000;stroke-width:2.61538;stroke-linecap:round;stroke-linejoin:round;stroke-miterlimit:10;stroke-dasharray:none;stroke-opacity:1"
               id="path3446" />
          </g>
        </g>
        <g
           id="g3448"
           transform="matrix(1,0,0,-1,0,792)">
          <g
             id="g3450">
            <path
               d="m 1146.7592,638.25722 c 5.571,-11.37028 -5.0259,-34.82894 -1.3501,-51.31569 -0.9769,-26.46712 -7.0662,-52.38186 -7.6693,-78.88577 -2.2605,-8.52517 -5.6564,-22.48752 -13.9193,-25.39231"
               style="fill:none;stroke:#000000;stroke-width:2.61538;stroke-linecap:round;stroke-linejoin:round;stroke-miterlimit:10;stroke-dasharray:none;stroke-opacity:1"
               id="path3452"
               sodipodi:nodetypes="cccc" />
          </g>
        </g>
        <g
           id="g3454"
           transform="matrix(1,0,0,-1,0,792)">
          <g
             id="g3456">
            <path
               d="m 914.67725,674.24573 c -9.95902,-20.51703 -14.56165,-43.17552 -23.11607,-64.30746 -4.62535,-19.56321 -14.01562,-37.97436 -18.40616,-57.48971 3.00421,-8.92035 2.92524,-24.46944 11.84319,-29.05536"
               style="fill:none;stroke:#000000;stroke-width:2.61538;stroke-linecap:round;stroke-linejoin:round;stroke-miterlimit:10;stroke-dasharray:none;stroke-opacity:1"
               id="path3458" />
          </g>
        </g>
        <g
           id="g3460"
           transform="matrix(1,0,0,-1,0,792)">
          <g
             id="g3462">
            <path
               d="m 884.99821,523.3932 c 14.20785,-7.5154 54.79122,-10.15209 81.72253,-16.69475 29.70573,-3.4798 58.42316,-12.53156 88.26676,-15.27003 22.7017,-4.24344 45.2421,-9.81567 68.3697,-10.2696 l 2.4355,0.63226 4.0163,5.70026"
               style="fill:none;stroke:#000000;stroke-width:2.61538;stroke-linecap:round;stroke-linejoin:round;stroke-miterlimit:10;stroke-dasharray:none;stroke-opacity:1"
               id="path3464"
               sodipodi:nodetypes="cccccc" />
          </g>
        </g>
        <g
           id="g3466"
           transform="matrix(1,0,0,-1,0,792)">
          <g
             id="g3468">
            <path
               d="m 983.26038,628.30267 c 17.84322,-9.52533 13.73662,-35.63884 -1.59676,-45.45102 -14.1943,-8.02489 -36.36664,-2.69163 -43.66675,12.25075 -9.4307,17.07302 7.17653,36.63486 24.99834,36.80522 7.30558,-0.2822 17.46974,0.3598 22.31975,-5.84803"
               style="fill:none;stroke:#000000;stroke-width:2.61538;stroke-linecap:round;stroke-linejoin:round;stroke-miterlimit:10;stroke-dasharray:none;stroke-opacity:1"
               id="path3470" />
          </g>
        </g>
        <g
           id="g3472"
           transform="matrix(1,0,0,-1,0,792)">
          <g
             id="g3474">
            <path
               d="m 1062.2515,613.59131 c 18.3339,4.87434 43.1179,-8.52732 40.4638,-29.38809 -3.9847,-19.19654 -28.1482,-25.75372 -44.2426,-16.82408 -21.6823,6.1586 -16.9772,33.32034 -1.9272,43.60339 3.8279,1.57938 8.9606,3.27546 12.9406,3.89297"
               style="fill:none;stroke:#000000;stroke-width:2.61538;stroke-linecap:round;stroke-linejoin:round;stroke-miterlimit:10;stroke-dasharray:none;stroke-opacity:1"
               id="path3476"
               sodipodi:nodetypes="ccccc" />
          </g>
        </g>
        <g
           id="g3478"
           transform="matrix(1,0,0,-1,0,792)">
          <g
             id="g3480">
            <path
               d="m 1001.0962,609.02216 c -2.43227,-5.7636 -4.93874,-14.88298 -4.1571,-19.37881"
               style="fill:none;stroke:#000000;stroke-width:2.61538;stroke-linecap:round;stroke-linejoin:round;stroke-miterlimit:10;stroke-dasharray:none;stroke-opacity:1"
               id="path3482" />
          </g>
        </g>
        <g
           id="g3484"
           transform="matrix(1,0,0,-1,0,792)">
          <g
             id="g3486">
            <path
               d="m 1001.1678,607.44574 c 13.1373,-0.22713 18.1046,-6.60437 10.7727,-18.56481 l -0.2938,-3.51328 c 0.5458,0.13091 0.062,-0.42256 -0.1382,-0.24731"
               style="fill:none;stroke:#000000;stroke-width:2.61538;stroke-linecap:round;stroke-linejoin:round;stroke-miterlimit:10;stroke-dasharray:none;stroke-opacity:1"
               id="path3488" />
          </g>
        </g>
        <g
           id="g3490"
           transform="matrix(1,0,0,-1,0,792)">
          <g
             id="g3492">
            <path
               d="m 996.77692,588.9071 c 4.37158,-0.24149 10.55888,-2.25158 13.58768,-2.48877"
               style="fill:none;stroke:#000000;stroke-width:2.61538;stroke-linecap:round;stroke-linejoin:round;stroke-miterlimit:10;stroke-dasharray:none;stroke-opacity:1"
               id="path3494" />
          </g>
        </g>
        <g
           id="g3496"
           transform="matrix(1,0,0,-1,0,792)">
          <g
             id="g3498">
            <path
               d="m 1010.0065,606.28876 c 8.3608,-0.757 20.8098,-3.89984 26.463,-5.46629"
               style="fill:none;stroke:#000000;stroke-width:2.61538;stroke-linecap:round;stroke-linejoin:round;stroke-miterlimit:10;stroke-dasharray:none;stroke-opacity:1"
               id="path3500" />
          </g>
        </g>
        <g
           id="g3502"
           transform="matrix(1,0,0,-1,0,792)">
          <g
             id="g3504">
            <path
               d="m 1011.5656,584.84375 c 8.2279,-0.88246 16.1194,-3.52436 24.2292,-5.03784"
               style="fill:none;stroke:#000000;stroke-width:2.61538;stroke-linecap:round;stroke-linejoin:round;stroke-miterlimit:10;stroke-dasharray:none;stroke-opacity:1"
               id="path3506" />
          </g>
        </g>
        <g
           id="g3508"
           transform="matrix(1,0,0,-1,0,792)">
          <g
             id="g3510">
            <path
               d="m 981.55798,589.66321 c 19.08422,14.40821 -3.07599,45.52404 -24.05608,34.96194 -19.56745,-5.40039 -16.56937,-39.09153 3.78705,-40.09613 9.02822,-0.96473 21.44673,-0.76117 23.87337,10.32108"
               style="fill:none;stroke:#000000;stroke-width:2.61538;stroke-linecap:round;stroke-linejoin:round;stroke-miterlimit:10;stroke-dasharray:none;stroke-opacity:1"
               id="path3512" />
          </g>
        </g>
        <g
           id="g3514"
           transform="matrix(1,0,0,-1,0,792)">
          <g
             id="g3516">
            <path
               d="m 1056.8481,573.54095 c -15.9841,13.3154 1.3446,45.02446 21.5945,33.46122 22.5956,-4.29712 23.7746,-43.72091 -2.5423,-39.72238 -6.9407,2.61152 -15.7009,3.1914 -21.1076,8.66551"
               style="fill:none;stroke:#000000;stroke-width:2.61538;stroke-linecap:round;stroke-linejoin:round;stroke-miterlimit:10;stroke-dasharray:none;stroke-opacity:1"
               id="path3518" />
          </g>
        </g>
        <g
           id="g3520"
           transform="matrix(1,0,0,-1,0,792)">
          <g
             id="g3522">
            <path
               d="m 1054.0927,579.5459 c 7.9792,13.892 29.7095,7.80013 34.0506,-5.87537"
               style="fill:none;stroke:#000000;stroke-width:2.61538;stroke-linecap:round;stroke-linejoin:round;stroke-miterlimit:10;stroke-dasharray:none;stroke-opacity:1"
               id="path3524" />
          </g>
        </g>
        <g
           id="g3526"
           transform="matrix(1,0,0,-1,0,792)">
          <g
             id="g3528">
            <path
               d="m 984.17029,594.32959 c 3.42751,17.50547 -22.82976,17.9095 -30.07963,6.44807 -2.93502,-2.1327 -2.26884,-6.51716 -3.73962,-9.4355"
               style="fill:none;stroke:#000000;stroke-width:2.61538;stroke-linecap:round;stroke-linejoin:round;stroke-miterlimit:10;stroke-dasharray:none;stroke-opacity:1"
               id="path3530" />
          </g>
        </g>
        <g
           id="g3532"
           transform="matrix(1,0,0,-1,0,792)">
          <g
             id="g3534">
            <path
               d="m 952.17914,610.74768 c 2.96847,-3.24479 9.5677,-1.19122 9.73381,3.23905"
               style="fill:none;stroke:#000000;stroke-width:2.61538;stroke-linecap:round;stroke-linejoin:round;stroke-miterlimit:10;stroke-dasharray:none;stroke-opacity:1"
               id="path3536" />
          </g>
        </g>
        <g
           id="g3538"
           transform="matrix(1,0,0,-1,0,792)">
          <g
             id="g3540">
            <path
               d="m 971.89624,613.56781 c 0.41677,-3.39599 6.00992,-3.99735 7.41534,-3.56499"
               style="fill:none;stroke:#000000;stroke-width:2.61538;stroke-linecap:round;stroke-linejoin:round;stroke-miterlimit:10;stroke-dasharray:none;stroke-opacity:1"
               id="path3542" />
          </g>
        </g>
        <g
           id="g3544"
           transform="matrix(1,0,0,-1,0,792)">
          <g
             id="g3546">
            <path
               d="m 1066.1162,595.36682 c -0.552,-3.92182 5.9499,-5.31748 6.7702,-1.75539"
               style="fill:none;stroke:#000000;stroke-width:2.61538;stroke-linecap:round;stroke-linejoin:round;stroke-miterlimit:10;stroke-dasharray:none;stroke-opacity:1"
               id="path3548" />
          </g>
        </g>
        <g
           id="g3550"
           transform="matrix(1,0,0,-1,0,792)">
          <g
             id="g3552">
            <path
               d="m 1084.6167,590.45068 c -4.8572,-2.77102 -0.085,-7.52724 2.404,-6.35254"
               style="fill:none;stroke:#000000;stroke-width:2.61538;stroke-linecap:round;stroke-linejoin:round;stroke-miterlimit:10;stroke-dasharray:none;stroke-opacity:1"
               id="path3554" />
          </g>
        </g>
        <g
           id="g3556"
           transform="matrix(1,0,0,-1,0,792)">
          <g
             id="g3558">
            <path
               d="m 1058.0289,592.82245 c 1.7761,-2.13741 -0.3066,-4.94204 -2.5351,-5.48499"
               style="fill:none;stroke:#000000;stroke-width:2.61538;stroke-linecap:round;stroke-linejoin:round;stroke-miterlimit:10;stroke-dasharray:none;stroke-opacity:1"
               id="path3560" />
          </g>
        </g>
        <g
           id="g3562"
           transform="matrix(1,0,0,-1,0,792)">
          <g
             id="g3564">
            <path
               d="m 887.01105,557.04181 c -14.12138,-4.79869 5.93503,-22.14122 8.2253,-5.3027 -1.0495,3.36225 -5.1842,7.13911 -8.53392,5.37176"
               style="fill:none;stroke:#000000;stroke-width:2.61538;stroke-linecap:round;stroke-linejoin:round;stroke-miterlimit:10;stroke-dasharray:none;stroke-opacity:1"
               id="path3566" />
          </g>
        </g>
        <g
           id="g3568"
           transform="matrix(1,0,0,-1,0,792)">
          <g
             id="g3570">
            <path
               d="m 999.85746,538.91406 c -14.08088,-4.69752 5.55874,-22.42543 10.82724,-6.35089 -0.275,6.61442 -7.0701,5.09716 -10.82724,6.35089"
               style="fill:none;stroke:#000000;stroke-width:2.61538;stroke-linecap:round;stroke-linejoin:round;stroke-miterlimit:10;stroke-dasharray:none;stroke-opacity:1"
               id="path3572"
               sodipodi:nodetypes="ccc" />
          </g>
        </g>
        <g
           id="g3574"
           transform="matrix(1,0,0,-1,0,792)">
          <g
             id="g3576">
            <path
               d="m 1104.1549,525.65985 c -11.7703,1.73969 10.7693,-0.78621 5.0088,-9.80906 -5.97,-25.73867 -24.4564,12.18787 -6.1049,9.4768"
               style="fill:none;stroke:#000000;stroke-width:2.61538;stroke-linecap:round;stroke-linejoin:round;stroke-miterlimit:10;stroke-dasharray:none;stroke-opacity:1"
               id="path3578" />
          </g>
        </g>
        <g
           id="g3580"
           transform="matrix(1,0,0,-1,0,792)">
          <g
             id="g3582">
            <path
               d="m 888.28094,534.85413 c 1.6732,-3.70193 4.77125,-13.16347 5.14368,-14.20681"
               style="fill:none;stroke:#000000;stroke-width:2.61538;stroke-linecap:round;stroke-linejoin:round;stroke-miterlimit:10;stroke-dasharray:none;stroke-opacity:1"
               id="path3584" />
          </g>
        </g>
        <g
           id="g3586"
           transform="matrix(1,0,0,-1,0,792)">
          <g
             id="g3588">
            <path
               d="m 877.29224,539.62555 c 28.08972,-6.088 56.80467,-8.48845 85.09749,-13.54149 46.75517,-7.48611 94.08807,-12.3913 139.73097,-25.60142 12.7258,-2.97962 36.4052,-5.23022 35.816,12.99351 l 0.2977,4.95297"
               style="fill:none;stroke:#000000;stroke-width:2.61538;stroke-linecap:round;stroke-linejoin:round;stroke-miterlimit:10;stroke-dasharray:none;stroke-opacity:1"
               id="path3590"
               sodipodi:nodetypes="ccccc" />
          </g>
        </g>
        <g
           id="g3592"
           transform="matrix(1,0,0,-1,0,792)">
          <g
             id="g3594">
            <path
               d="m 1123.7289,515.31934 c -14.4037,-7.32618 13.283,-13.50893 5.1115,-0.76193 -2.784,2.04545 -6.6934,1.08607 -9.1274,-0.98256"
               style="fill:none;stroke:#000000;stroke-width:2.61538;stroke-linecap:round;stroke-linejoin:round;stroke-miterlimit:10;stroke-dasharray:none;stroke-opacity:1"
               id="path3596" />
          </g>
        </g>
        <g
           id="g3598"
           transform="matrix(1,0,0,-1,0,792)">
          <g
             id="g3600">
            <path
               d="m 881.32635,563.36047 c 6.20539,-9.84528 19.2514,-6.45839 24.16112,1.73691 7.13075,-2.28864 21.23438,0.6881 17.04393,-11.09126"
               style="fill:none;stroke:#000000;stroke-width:2.61538;stroke-linecap:round;stroke-linejoin:round;stroke-miterlimit:10;stroke-dasharray:none;stroke-opacity:1"
               id="path3602" />
          </g>
        </g>
        <g
           id="g3604"
           transform="matrix(1,0,0,-1,0,792)">
          <g
             id="g3606">
            <path
               d="m 924.19586,552.63074 c 22.33225,-4.23139 44.22055,-10.8848 66.888,-13.11894 l -0.48553,0.13391"
               style="fill:none;stroke:#000000;stroke-width:2.61538;stroke-linecap:round;stroke-linejoin:round;stroke-miterlimit:10;stroke-dasharray:none;stroke-opacity:1"
               id="path3608" />
          </g>
        </g>
        <g
           id="g3610"
           transform="matrix(1,0,0,-1,0,792)">
          <g
             id="g3612">
            <path
               d="m 990.68298,539.94269 c 7.31703,7.82702 20.41672,4.68497 25.34072,-3.48876"
               style="fill:none;stroke:#000000;stroke-width:2.61538;stroke-linecap:round;stroke-linejoin:round;stroke-miterlimit:10;stroke-dasharray:none;stroke-opacity:1"
               id="path3614" />
          </g>
        </g>
        <g
           id="g3616"
           transform="matrix(1,0,0,-1,0,792)">
          <g
             id="g3618">
            <path
               d="m 1017.3781,535.15619 c 19.5111,-1.03008 38.1921,-6.52146 57.4049,-9.3385 4.238,-3.37643 9.8466,-3.94749 15.0578,-3.61157"
               style="fill:none;stroke:#000000;stroke-width:2.61538;stroke-linecap:round;stroke-linejoin:round;stroke-miterlimit:10;stroke-dasharray:none;stroke-opacity:1"
               id="path3620" />
          </g>
        </g>
        <g
           id="g3622"
           transform="matrix(1,0,0,-1,0,792)">
          <g
             id="g3624">
            <path
               d="m 1091.8712,522.57672 c -5.1383,17.24169 35.3907,10.9654 27.2642,-4.74292"
               style="fill:none;stroke:#000000;stroke-width:2.61538;stroke-linecap:round;stroke-linejoin:round;stroke-miterlimit:10;stroke-dasharray:none;stroke-opacity:1"
               id="path3626" />
          </g>
        </g>
        <g
           id="g3628"
           transform="matrix(1,0,0,-1,0,792)">
          <g
             id="g3630">
            <path
               d="m 1117.0372,515.75531 c -11.0866,-6.22018 1.7809,-8.78924 1.1162,-15.59187"
               style="fill:none;stroke:#000000;stroke-width:2.61538;stroke-linecap:round;stroke-linejoin:round;stroke-miterlimit:10;stroke-dasharray:none;stroke-opacity:1"
               id="path3632" />
          </g>
        </g>
        <g
           id="g3634"
           transform="matrix(1,0,0,-1,0,792)">
          <g
             id="g3636">
            <path
               d="m 920.29535,529.81451 c 1.24911,-1.40446 1.86381,-16.00419 2.70415,-11.90723"
               style="fill:none;stroke:#000000;stroke-width:2.61538;stroke-linecap:round;stroke-linejoin:round;stroke-miterlimit:10;stroke-dasharray:none;stroke-opacity:1"
               id="path3638" />
          </g>
        </g>
        <g
           id="g3640"
           transform="matrix(1,0,0,-1,0,792)">
          <g
             id="g3642">
            <path
               d="m 927.48804,529.02203 c 1.14739,-3.96308 2.03999,-9.5738 2.79541,-12.88802"
               style="fill:none;stroke:#000000;stroke-width:2.61538;stroke-linecap:round;stroke-linejoin:round;stroke-miterlimit:10;stroke-dasharray:none;stroke-opacity:1"
               id="path3644" />
          </g>
        </g>
        <g
           id="g3646"
           transform="matrix(1,0,0,-1,0,792)">
          <g
             id="g3648">
            <path
               d="m 969.04834,520.53607 c -0.93556,-2.21818 1.18941,-11.29343 0.40709,-10.84106"
               style="fill:none;stroke:#000000;stroke-width:2.61538;stroke-linecap:round;stroke-linejoin:round;stroke-miterlimit:10;stroke-dasharray:none;stroke-opacity:1"
               id="path3650" />
          </g>
        </g>
        <g
           id="g3652"
           transform="matrix(1,0,0,-1,0,792)">
          <g
             id="g3654">
            <path
               d="m 976.185,508.16406 c 14.85782,8.2573 37.5873,5.81612 48.0883,-8.67665 l -0.5192,0.006"
               style="fill:none;stroke:#000000;stroke-width:2.61538;stroke-linecap:round;stroke-linejoin:round;stroke-miterlimit:10;stroke-dasharray:none;stroke-opacity:1"
               id="path3656" />
          </g>
        </g>
        <g
           id="g3658"
           transform="matrix(1,0,0,-1,0,792)">
          <g
             id="g3660">
            <path
               d="m 1034.2156,509.10226 c 1.6315,-2.40021 1.3872,-10.35806 1.9808,-10.95685"
               style="fill:none;stroke:#000000;stroke-width:2.61538;stroke-linecap:round;stroke-linejoin:round;stroke-miterlimit:10;stroke-dasharray:none;stroke-opacity:1"
               id="path3662" />
          </g>
        </g>
        <g
           id="g3664"
           transform="matrix(1,0,0,-1,0,792)">
          <g
             id="g3666">
            <path
               d="m 1037.632,497.28366 c 5.4613,8.52926 31.3658,-2.56517 37.5889,-5.10335"
               style="fill:none;stroke:#000000;stroke-width:2.61538;stroke-linecap:round;stroke-linejoin:round;stroke-miterlimit:10;stroke-dasharray:none;stroke-opacity:1"
               id="path3668" />
          </g>
        </g>
        <g
           id="g3670"
           transform="matrix(1,0,0,-1,0,792)">
          <g
             id="g3672">
            <path
               d="m 961.5188,518.18951 c -8.77366,-4.27357 -19.69458,2.42752 -28.04953,3.41686"
               style="fill:none;stroke:#000000;stroke-width:2.61538;stroke-linecap:round;stroke-linejoin:round;stroke-miterlimit:10;stroke-dasharray:none;stroke-opacity:1"
               id="path3674" />
          </g>
        </g>
        <g
           id="g3676"
           transform="matrix(1,0,0,-1,0,792)">
          <g
             id="g3678">
            <path
               d="m 916.3233,523.80219 c -6.91515,2.79371 -16.13693,1.34725 -22.53302,2.54665"
               style="fill:none;stroke:#000000;stroke-width:2.61538;stroke-linecap:round;stroke-linejoin:round;stroke-miterlimit:10;stroke-dasharray:none;stroke-opacity:1"
               id="path3680" />
          </g>
        </g>
        <g
           id="g3682"
           transform="matrix(1,0,0,-1,0,792)">
          <g
             id="g3684">
            <path
               d="m 1077.5794,500.27289 c -1.0585,-1.29064 -0.558,-15.17429 -1.403,-11.44604"
               style="fill:none;stroke:#000000;stroke-width:2.61538;stroke-linecap:round;stroke-linejoin:round;stroke-miterlimit:10;stroke-dasharray:none;stroke-opacity:1"
               id="path3686" />
          </g>
        </g>
        <g
           id="g3688"
           transform="matrix(1,0,0,-1,0,792)">
          <g
             id="g3690">
            <path
               d="m 1084.4562,487.75024 c 3.5843,8.80388 34.3113,2.70617 29.8162,-5.35532"
               style="fill:none;stroke:#000000;stroke-width:2.61538;stroke-linecap:round;stroke-linejoin:round;stroke-miterlimit:10;stroke-dasharray:none;stroke-opacity:1"
               id="path3692" />
          </g>
        </g>
        <g
           id="g3694"
           transform="matrix(1,0,0,-1,0,792)">
          <g
             id="g3696">
            <path
               d="m 917.36108,664.04272 c 30.16061,-2.32797 59.86712,-9.45599 89.92412,-12.83295 1.9706,-1.35503 7.4311,0.20526 7.8544,-1.85984"
               style="fill:none;stroke:#000000;stroke-width:1.30769;stroke-linecap:round;stroke-linejoin:round;stroke-miterlimit:10;stroke-dasharray:none;stroke-opacity:1"
               id="path3698" />
          </g>
        </g>
        <g
           id="g3700"
           transform="matrix(1,0,0,-1,0,792)">
          <g
             id="g3702">
            <path
               d="m 1013.6923,648.67059 c -5.6711,-14.61387 15.9531,-12.32932 24.5245,-14.14253 0.8064,3.8184 -1.0473,7.59882 0.9392,11.28676"
               style="fill:none;stroke:#000000;stroke-width:1.30769;stroke-linecap:round;stroke-linejoin:round;stroke-miterlimit:10;stroke-dasharray:none;stroke-opacity:1"
               id="path3704" />
          </g>
        </g>
        <g
           id="g3706"
           transform="matrix(1,0,0,-1,0,792)">
          <g
             id="g3708">
            <path
               d="m 1022.531,649.40222 c 18.6118,0.6802 9.3979,-10.95962 -3.38,-4.88699 0.4538,3.94359 3.6647,7.77547 4.8209,4.6908"
               style="fill:none;stroke:#000000;stroke-width:1.30769;stroke-linecap:round;stroke-linejoin:round;stroke-miterlimit:10;stroke-dasharray:none;stroke-opacity:1"
               id="path3710" />
          </g>
        </g>
        <g
           id="g3712"
           transform="matrix(1,0,0,-1,0,792)">
          <g
             id="g3714">
            <path
               d="m 930.74438,664.63104 c 1.24362,1.08179 1.17652,3.6038 1.99035,4.45815"
               style="fill:none;stroke:#000000;stroke-width:1.30769;stroke-linecap:round;stroke-linejoin:round;stroke-miterlimit:10;stroke-dasharray:none;stroke-opacity:1"
               id="path3716" />
          </g>
        </g>
        <g
           id="g3718"
           transform="matrix(1,0,0,-1,0,792)">
          <g
             id="g3720">
            <path
               d="m 933.71448,665.53326 c 0.0532,0.22886 0.57177,2.0399 0.77783,2.71656"
               style="fill:none;stroke:#000000;stroke-width:1.30769;stroke-linecap:round;stroke-linejoin:round;stroke-miterlimit:10;stroke-dasharray:none;stroke-opacity:1"
               id="path3722" />
          </g>
        </g>
        <g
           id="g3724"
           transform="matrix(1,0,0,-1,0,792)">
          <g
             id="g3726">
            <path
               d="m 1021.4217,651.60938 c 1.555,-0.50654 -0.8849,4.75098 0.9585,2.52194"
               style="fill:none;stroke:#000000;stroke-width:1.30769;stroke-linecap:round;stroke-linejoin:round;stroke-miterlimit:10;stroke-dasharray:none;stroke-opacity:1"
               id="path3728" />
          </g>
        </g>
        <g
           id="g3730"
           transform="matrix(1,0,0,-1,0,792)">
          <g
             id="g3732">
            <path
               d="m 1037.8933,649.48242 c 1.4793,0.39808 0.073,3.17422 1.7472,3.18409"
               style="fill:none;stroke:#000000;stroke-width:1.30769;stroke-linecap:round;stroke-linejoin:round;stroke-miterlimit:10;stroke-dasharray:none;stroke-opacity:1"
               id="path3734" />
          </g>
        </g>
        <g
           id="g3736"
           transform="matrix(1,0,0,-1,0,792)">
          <g
             id="g3738">
            <path
               d="m 1040.9598,644.05719 c 25.8936,-1.96799 51.364,-7.26256 76.9133,-11.5814 7.878,-2.37568 17.5074,-1.6854 24.4512,-5.82087"
               style="fill:none;stroke:#000000;stroke-width:1.30769;stroke-linecap:round;stroke-linejoin:round;stroke-miterlimit:10;stroke-dasharray:none;stroke-opacity:1"
               id="path3740" />
          </g>
        </g>
        <g
           id="g3742"
           transform="matrix(1,0,0,-1,0,792)">
          <g
             id="g3744">
            <path
               d="m 1140.5642,567.02795 c -12.3158,-0.51825 -25.3713,3.06118 -37.9137,3.61999"
               style="fill:none;stroke:#000000;stroke-width:1.30769;stroke-linecap:round;stroke-linejoin:round;stroke-miterlimit:10;stroke-dasharray:none;stroke-opacity:1"
               id="path3746" />
          </g>
        </g>
        <g
           id="g3748"
           transform="matrix(1,0,0,-1,0,792)">
          <g
             id="g3750">
            <path
               d="m 1046.2202,609.16693 c -16.2891,1.90359 -33.179,6.67979 -49.02397,7.44468"
               style="fill:none;stroke:#000000;stroke-width:1.30769;stroke-linecap:round;stroke-linejoin:round;stroke-miterlimit:10;stroke-dasharray:none;stroke-opacity:1"
               id="path3752" />
          </g>
        </g>
        <g
           id="g3754"
           transform="matrix(1,0,0,-1,0,792)">
          <g
             id="g3756">
            <path
               d="m 931.74634,600.01709 c -9.68484,2.83848 -24.62772,6.10795 -32.0876,6.45235"
               style="fill:none;stroke:#000000;stroke-width:1.30769;stroke-linecap:round;stroke-linejoin:round;stroke-miterlimit:10;stroke-dasharray:none;stroke-opacity:1"
               id="path3758" />
          </g>
        </g>
        <g
           id="g3760"
           transform="matrix(1,0,0,-1,0,792)">
          <g
             id="g3762">
            <path
               d="m 917.18213,661.80157 c -10.30576,-16.06364 -9.46111,-35.99378 -17.96874,-52.82075 -0.39515,-0.85508 -0.007,-3.72419 -0.21724,-3.73183"
               style="fill:none;stroke:#000000;stroke-width:1.30769;stroke-linecap:round;stroke-linejoin:round;stroke-miterlimit:10;stroke-dasharray:none;stroke-opacity:1"
               id="path3764" />
          </g>
        </g>
      </g>
    </g>
  </g>
</svg>
