<?xml version="1.0" encoding="UTF-8" standalone="no"?>
<!-- Created by Ashley Blewer - This work is licensed under a Creative Commons Attribution 4.0 International License -->

<svg
   width="544"
   height="480"
   viewBox="0 0 143.93334 127"
   version="1.1"
   id="svg2490"
   inkscape:version="1.2.2 (1:1.2.2+202212051552+b0a8486541)"
   sodipodi:docname="1969-microcassette-2.svg"
   xmlns:inkscape="http://www.inkscape.org/namespaces/inkscape"
   xmlns:sodipodi="http://sodipodi.sourceforge.net/DTD/sodipodi-0.dtd"
   xmlns="http://www.w3.org/2000/svg"
   xmlns:svg="http://www.w3.org/2000/svg">
  <sodipodi:namedview
     id="namedview2492"
     pagecolor="#ffffff"
     bordercolor="#666666"
     borderopacity="1.0"
     inkscape:pageshadow="2"
     inkscape:pageopacity="0.0"
     inkscape:pagecheckerboard="0"
     inkscape:document-units="mm"
     showgrid="false"
     units="px"
     inkscape:zoom="0.90583674"
     inkscape:cx="53.541657"
     inkscape:cy="253.35691"
     inkscape:window-width="1846"
     inkscape:window-height="1136"
     inkscape:window-x="0"
     inkscape:window-y="0"
     inkscape:window-maximized="1"
     inkscape:current-layer="g4731"
     inkscape:showpageshadow="2"
     inkscape:deskcolor="#d1d1d1" />
  <defs
     id="defs2487" />
  <g
     inkscape:label="Layer 1"
     inkscape:groupmode="layer"
     id="layer1">
    <g
       id="g4731"
       transform="matrix(0.32961229,0,0,0.32903008,-241.78905,1.73126)"
       style="stroke-width:2.68698">
      <g
         id="g104528"
         transform="matrix(1,0,0,-1,0,792)"
         style="stroke-width:2.68698">
        <g
           id="g104530"
           style="stroke-width:2.68698" />
      </g>
      <g
         id="g104996"
         transform="matrix(1,0,0,-1,0,792)"
         style="stroke-width:2.68698">
        <g
           id="g104998"
           style="stroke-width:2.68698" />
      </g>
      <g
         id="g7939"
         transform="matrix(0.8397269,0,0,0.84121275,191.40633,-271.26217)">
        <g
           id="g2920"
           transform="matrix(1,0,0,-1,0,792)">
          <g
             id="g2922">
            <path
               d="m 689.77112,223.15417 c -1.56143,18.9555 -4.68224,37.85916 -5.06292,56.99922 -2.65439,27.85347 -5.53268,56.61179 -4.86967,84.11838 3.27932,10.60337 4.90435,20.98915 23.56644,22.56218"
               style="fill:none;stroke:#000000;stroke-width:2.61538;stroke-linecap:round;stroke-linejoin:round;stroke-miterlimit:10;stroke-dasharray:none;stroke-opacity:1"
               id="path2924"
               sodipodi:nodetypes="cccc" />
          </g>
        </g>
        <g
           id="g2926"
           transform="matrix(1,0,0,-1,0,792)">
          <g
             id="g2928">
            <path
               d="m 703.40497,386.83395 c 15.12088,1.17362 31.76877,-1.10956 47.47265,-2.52855 63.07492,2.01047 126.1926,2.13393 189.26533,2.49795 56.99475,2.19504 114.25175,1.95438 171.20225,-1.64668 17.883,2.35689 29.058,-4.78359 29.8142,-24.11712"
               style="fill:none;stroke:#000000;stroke-width:2.61538;stroke-linecap:round;stroke-linejoin:round;stroke-miterlimit:10;stroke-dasharray:none;stroke-opacity:1"
               id="path2930" />
          </g>
        </g>
        <g
           id="g2932"
           transform="matrix(1,0,0,-1,0,792)">
          <g
             id="g2934">
            <path
               d="m 1141.0137,360.06464 0.089,-0.0836"
               style="fill:none;stroke:#000000;stroke-width:2.61538;stroke-linecap:round;stroke-linejoin:round;stroke-miterlimit:10;stroke-dasharray:none;stroke-opacity:1"
               id="path2936" />
          </g>
        </g>
        <g
           id="g2938"
           transform="matrix(1,0,0,-1,0,792)">
          <g
             id="g2940">
            <path
               d="m 1141.2247,359.62607 c -2.9992,-48.31006 -10.0805,-96.22098 -13.2622,-144.52945 -0.2708,-2.22459 -1.0854,-4.4917 -0.4554,-6.74439"
               style="fill:none;stroke:#000000;stroke-width:2.61538;stroke-linecap:round;stroke-linejoin:round;stroke-miterlimit:10;stroke-dasharray:none;stroke-opacity:1"
               id="path2942" />
          </g>
        </g>
        <g
           id="g2944"
           transform="matrix(1,0,0,-1,0,792)">
          <g
             id="g2946">
            <path
               d="m 1127.2861,209.14226 c 4.5098,-19.30589 -4.4119,-40.09497 -4.113,-59.89574 l -1.6589,-2.55432"
               style="fill:none;stroke:#000000;stroke-width:2.61538;stroke-linecap:round;stroke-linejoin:round;stroke-miterlimit:10;stroke-dasharray:none;stroke-opacity:1"
               id="path2948" />
          </g>
        </g>
        <g
           id="g2950"
           transform="matrix(1,0,0,-1,0,792)">
          <g
             id="g2952">
            <path
               d="m 1121.6865,145.59323 c 4.7724,-20.06658 -11.9763,-30.91936 -29.9039,-23.47499 -11.2721,-0.31639 -22.8484,-0.78021 -33.7529,-0.50169"
               style="fill:none;stroke:#000000;stroke-width:2.61538;stroke-linecap:round;stroke-linejoin:round;stroke-miterlimit:10;stroke-dasharray:none;stroke-opacity:1"
               id="path2954" />
          </g>
        </g>
        <g
           id="g2956"
           transform="matrix(1,0,0,-1,0,792)">
          <g
             id="g2958">
            <path
               d="m 1109.9141,139.32558 c -20.0444,3.47353 -2.4695,-28.11555 5.3561,-8.68311 1.9619,7.32089 -4.6966,10.00925 -10.3009,7.69778"
               style="fill:none;stroke:#000000;stroke-width:2.61538;stroke-linecap:round;stroke-linejoin:round;stroke-miterlimit:10;stroke-dasharray:none;stroke-opacity:1"
               id="path2960" />
          </g>
        </g>
        <g
           id="g2962"
           transform="matrix(1,0,0,-1,0,792)">
          <g
             id="g2964">
            <path
               d="m 1105.0831,132.70599 c 0.944,-0.16586 4.8188,-1.03574 5.8123,-1.30482"
               style="fill:none;stroke:#000000;stroke-width:2.61538;stroke-linecap:round;stroke-linejoin:round;stroke-miterlimit:10;stroke-dasharray:none;stroke-opacity:1"
               id="path2966" />
          </g>
        </g>
        <g
           id="g2968"
           transform="matrix(1,0,0,-1,0,792)">
          <g
             id="g2970">
            <path
               d="m 1109.9856,135.28976 c -1.7402,-1.40475 -1.0022,-4.28855 -2.7935,-5.60832"
               style="fill:none;stroke:#000000;stroke-width:2.61538;stroke-linecap:round;stroke-linejoin:round;stroke-miterlimit:10;stroke-dasharray:none;stroke-opacity:1"
               id="path2972" />
          </g>
        </g>
        <g
           id="g2974"
           transform="matrix(1,0,0,-1,0,792)">
          <g
             id="g2976">
            <path
               d="m 1128.6649,367.01648 c -20.0691,-1.99238 1.0368,-26.90155 7.1729,-7.22247 0.5849,5.09743 -5.381,9.38496 -9.8402,6.49428"
               style="fill:none;stroke:#000000;stroke-width:2.61538;stroke-linecap:round;stroke-linejoin:round;stroke-miterlimit:10;stroke-dasharray:none;stroke-opacity:1"
               id="path2978" />
          </g>
        </g>
        <g
           id="g2980"
           transform="matrix(1,0,0,-1,0,792)">
          <g
             id="g2982">
            <path
               d="m 1124.1919,359.23358 c 1.9867,0.7243 3.5871,-1.78516 5.4104,-1.79996"
               style="fill:none;stroke:#000000;stroke-width:2.61538;stroke-linecap:round;stroke-linejoin:round;stroke-miterlimit:10;stroke-dasharray:none;stroke-opacity:1"
               id="path2984" />
          </g>
        </g>
        <g
           id="g2986"
           transform="matrix(1,0,0,-1,0,792)">
          <g
             id="g2988">
            <path
               d="m 1129.1301,362.56519 c -0.8038,-1.10683 -4.1296,-5.31603 -4.9887,-6.31381"
               style="fill:none;stroke:#000000;stroke-width:2.61538;stroke-linecap:round;stroke-linejoin:round;stroke-miterlimit:10;stroke-dasharray:none;stroke-opacity:1"
               id="path2990" />
          </g>
        </g>
        <g
           id="g2992"
           transform="matrix(1,0,0,-1,0,792)">
          <g
             id="g2994">
            <path
               d="m 696.2895,360.9688 c -19.86739,-16.8038 24.62042,-19.70826 7.04617,-0.36834 -2.1694,1.6875 -5.09724,1.45435 -7.04617,0.36834"
               style="fill:none;stroke:#000000;stroke-width:2.61538;stroke-linecap:round;stroke-linejoin:round;stroke-miterlimit:10;stroke-dasharray:none;stroke-opacity:1"
               id="path2996"
               sodipodi:nodetypes="ccc" />
          </g>
        </g>
        <g
           id="g2998"
           transform="matrix(1,0,0,-1,0,792)">
          <g
             id="g3000">
            <path
               d="m 697.85395,356.71502 c 1.83831,1.05848 0.14973,-4.7555 1.50336,-5.41608"
               style="fill:none;stroke:#000000;stroke-width:2.61538;stroke-linecap:round;stroke-linejoin:round;stroke-miterlimit:10;stroke-dasharray:none;stroke-opacity:1"
               id="path3002" />
          </g>
        </g>
        <g
           id="g3004"
           transform="matrix(1,0,0,-1,0,792)">
          <g
             id="g3006">
            <path
               d="m 695.43067,352.18148 c 2.31784,1.1609 5.37804,-0.84234 7.35828,1.28818"
               style="fill:none;stroke:#000000;stroke-width:2.61538;stroke-linecap:round;stroke-linejoin:round;stroke-miterlimit:10;stroke-dasharray:none;stroke-opacity:1"
               id="path3008" />
          </g>
        </g>
        <g
           id="g3010"
           transform="matrix(1,0,0,-1,0,792)">
          <g
             id="g3012">
            <path
               d="m 680.89661,365.92853 c 152.24417,5.53203 305.96295,10.55164 454.13929,1.39838 3.5543,-0.53679 6.2383,-4.7579 3.5975,-7.87098"
               style="fill:none;stroke:#000000;stroke-width:2.61538;stroke-linecap:round;stroke-linejoin:round;stroke-miterlimit:10;stroke-dasharray:none;stroke-opacity:1"
               id="path3014"
               sodipodi:nodetypes="ccc" />
          </g>
        </g>
        <g
           id="g3016"
           transform="matrix(1,0,0,-1,0,792)">
          <g
             id="g3018">
            <path
               d="m 711.52789,383.46423 c 1.13116,-1.3447 -2.4064,-4.62874 -1.15595,-5.22185"
               style="fill:none;stroke:#000000;stroke-width:2.61538;stroke-linecap:round;stroke-linejoin:round;stroke-miterlimit:10;stroke-dasharray:none;stroke-opacity:1"
               id="path3020" />
          </g>
        </g>
        <g
           id="g3022"
           transform="matrix(1,0,0,-1,0,792)">
          <g
             id="g3024">
            <path
               d="m 712.13623,383.08817 c -0.33973,-0.98008 -1.39407,-4.40786 -1.58151,-5.14167"
               style="fill:none;stroke:#000000;stroke-width:2.61538;stroke-linecap:round;stroke-linejoin:round;stroke-miterlimit:10;stroke-dasharray:none;stroke-opacity:1"
               id="path3026" />
          </g>
        </g>
        <g
           id="g3028"
           transform="matrix(1,0,0,-1,0,792)">
          <g
             id="g3030">
            <path
               d="m 736.04016,385.26092 c -0.10413,-0.84385 -0.8588,-7.28258 -1.132,-8.3504"
               style="fill:none;stroke:#000000;stroke-width:2.61538;stroke-linecap:round;stroke-linejoin:round;stroke-miterlimit:10;stroke-dasharray:none;stroke-opacity:1"
               id="path3032"
               sodipodi:nodetypes="cc" />
          </g>
        </g>
        <g
           id="g3034"
           transform="matrix(1,0,0,-1,0,792)">
          <g
             id="g3036">
            <path
               d="m 735.21283,376.67105 c 6.19522,0.29026 12.44229,-1.17008 18.5802,0.24901"
               style="fill:none;stroke:#000000;stroke-width:2.61538;stroke-linecap:round;stroke-linejoin:round;stroke-miterlimit:10;stroke-dasharray:none;stroke-opacity:1"
               id="path3038" />
          </g>
        </g>
        <g
           id="g3040"
           transform="matrix(1,0,0,-1,0,792)">
          <g
             id="g3042">
            <path
               d="m 754.18927,377.03604 0.91145,6.91719"
               style="fill:none;stroke:#000000;stroke-width:2.61538;stroke-linecap:round;stroke-linejoin:round;stroke-miterlimit:10;stroke-dasharray:none;stroke-opacity:1"
               id="path3044"
               sodipodi:nodetypes="cc" />
          </g>
        </g>
        <g
           id="g3046"
           transform="matrix(1,0,0,-1,0,792)">
          <g
             id="g3048">
            <path
               d="m 867.40143,384.87011 c -0.2529,3.12268 -2.25384,-7.13119 -1.46738,-7.56058"
               style="fill:none;stroke:#000000;stroke-width:2.61538;stroke-linecap:round;stroke-linejoin:round;stroke-miterlimit:10;stroke-dasharray:none;stroke-opacity:1"
               id="path3050"
               sodipodi:nodetypes="cc" />
          </g>
        </g>
        <g
           id="g3052"
           transform="matrix(1,0,0,-1,0,792)">
          <g
             id="g3054">
            <path
               d="m 866.11584,376.70673 c 5.04782,0.10129 10.13598,-0.98772 15.15876,-0.13782"
               style="fill:none;stroke:#000000;stroke-width:2.61538;stroke-linecap:round;stroke-linejoin:round;stroke-miterlimit:10;stroke-dasharray:none;stroke-opacity:1"
               id="path3056" />
          </g>
        </g>
        <g
           id="g3058"
           transform="matrix(1,0,0,-1,0,792)">
          <g
             id="g3060">
            <path
               d="m 881.50311,377.39459 c -0.22851,-0.82568 1.07918,8.58553 1.07918,8.58553"
               style="fill:none;stroke:#000000;stroke-width:2.61538;stroke-linecap:round;stroke-linejoin:round;stroke-miterlimit:10;stroke-dasharray:none;stroke-opacity:1"
               id="path3062"
               sodipodi:nodetypes="cc" />
          </g>
        </g>
        <g
           id="g3064"
           transform="matrix(1,0,0,-1,0,792)">
          <g
             id="g3066">
            <path
               d="m 935.76842,385.86203 c -0.12205,-0.68181 0.52065,-8.11712 0.57861,-9.55892"
               style="fill:none;stroke:#000000;stroke-width:2.61538;stroke-linecap:round;stroke-linejoin:round;stroke-miterlimit:10;stroke-dasharray:none;stroke-opacity:1"
               id="path3068"
               sodipodi:nodetypes="cc" />
          </g>
        </g>
        <g
           id="g3070"
           transform="matrix(1,0,0,-1,0,792)">
          <g
             id="g3072">
            <path
               d="m 937.07611,376.23846 c 4.78003,0.12491 9.54645,-0.3605 14.30586,-0.72512"
               style="fill:none;stroke:#000000;stroke-width:2.61538;stroke-linecap:round;stroke-linejoin:round;stroke-miterlimit:10;stroke-dasharray:none;stroke-opacity:1"
               id="path3074" />
          </g>
        </g>
        <g
           id="g3076"
           transform="matrix(1,0,0,-1,0,792)">
          <g
             id="g3078">
            <path
               d="m 952.20465,375.84775 c -0.84613,2.85253 0.007,8.67052 -1.52467,11.32197"
               style="fill:none;stroke:#000000;stroke-width:2.61538;stroke-linecap:round;stroke-linejoin:round;stroke-miterlimit:10;stroke-dasharray:none;stroke-opacity:1"
               id="path3080"
               sodipodi:nodetypes="cc" />
          </g>
        </g>
        <g
           id="g3082"
           transform="matrix(1,0,0,-1,0,792)">
          <g
             id="g3084">
            <path
               d="m 1062.1913,383.59351 0.9664,-8.62705"
               style="fill:none;stroke:#000000;stroke-width:2.61538;stroke-linecap:round;stroke-linejoin:round;stroke-miterlimit:10;stroke-dasharray:none;stroke-opacity:1"
               id="path3086"
               sodipodi:nodetypes="cc" />
          </g>
        </g>
        <g
           id="g3088"
           transform="matrix(1,0,0,-1,0,792)">
          <g
             id="g3090">
            <path
               d="m 1063.1577,374.96646 41.9542,0.9101 -0.061,5.33004"
               style="fill:none;stroke:#000000;stroke-width:2.61538;stroke-linecap:round;stroke-linejoin:round;stroke-miterlimit:10;stroke-dasharray:none;stroke-opacity:1"
               id="path3092"
               sodipodi:nodetypes="ccc" />
          </g>
        </g>
        <g
           id="g3094"
           transform="matrix(1,0,0,-1,0,792)">
          <g
             id="g3096">
            <path
               d="m 1083.2548,380.86206 c 0.09,-0.75254 0.4389,-3.97193 0.5238,-4.82909"
               style="fill:none;stroke:#000000;stroke-width:2.61538;stroke-linecap:round;stroke-linejoin:round;stroke-miterlimit:10;stroke-dasharray:none;stroke-opacity:1"
               id="path3098" />
          </g>
        </g>
        <g
           id="g3100"
           transform="matrix(1,0,0,-1,0,792)">
          <g
             id="g3102">
            <path
               d="m 1062.1913,383.59351 c 13.6518,0.83118 29.3548,-0.54786 42.8601,-2.38691"
               style="fill:none;stroke:#000000;stroke-width:2.61538;stroke-linecap:round;stroke-linejoin:round;stroke-miterlimit:10;stroke-dasharray:none;stroke-opacity:1"
               id="path3104"
               sodipodi:nodetypes="cc" />
          </g>
        </g>
        <g
           id="g3106"
           transform="matrix(1,0,0,-1,0,792)">
          <g
             id="g3108">
            <path
               d="m 902.83057,120.21826 c 44.82518,2.0366 89.71273,0.22749 134.57683,-0.006 3.5516,-0.42104 20.5811,-4.3021 18.8219,1.8826"
               style="fill:none;stroke:#000000;stroke-width:2.61538;stroke-linecap:round;stroke-linejoin:round;stroke-miterlimit:10;stroke-dasharray:none;stroke-opacity:1"
               id="path3110" />
          </g>
        </g>
        <g
           id="g3112"
           transform="matrix(1,0,0,-1,0,792)">
          <g
             id="g3114">
            <path
               d="m 1016.1824,279.1637 c 19.5509,-4.1988 28.9439,-32.41076 12.4117,-45.66245 -17.4941,-20.70526 -59.66966,-7.98436 -56.04961,21.65613 1.02133,23.51749 25.86021,25.61074 43.63791,24.00632"
               style="fill:none;stroke:#000000;stroke-width:2.61538;stroke-linecap:round;stroke-linejoin:round;stroke-miterlimit:10;stroke-dasharray:none;stroke-opacity:1"
               id="path3116"
               sodipodi:nodetypes="cccc" />
          </g>
        </g>
        <g
           id="g3118"
           transform="matrix(1,0,0,-1,0,792)">
          <g
             id="g3120">
            <path
               d="m 1002.5255,274.74301 c 4.5443,-3.52841 22.8526,1.9408 16.7223,-10.34071 8.8166,-4.5983 8.7546,-18.24256 -2.4312,-14.81865 -1.9866,-5.53782 6.8991,-8.87745 -6.4977,-11.35141 -8.0396,-5.44855 -8.6165,15.72959 -14.85285,1.17131 -13.24957,2.32628 -4.12082,12.7369 -14.11272,17.41954 -4.53002,12.01132 14.68456,5.60884 8.10838,14.38556 4.11153,1.98551 8.83637,1.67838 13.25709,2.41665"
               style="fill:none;stroke:#000000;stroke-width:2.61538;stroke-linecap:round;stroke-linejoin:round;stroke-miterlimit:10;stroke-dasharray:none;stroke-opacity:1"
               id="path3122" />
          </g>
        </g>
        <g
           id="g3124"
           transform="matrix(1,0,0,-1,0,792)">
          <g
             id="g3126">
            <path
               d="m 841.81842,267.34311 c -11.60878,18.38381 -37.86233,18.81556 -53.13157,4.88677 -15.71277,-14.58037 -3.96729,-38.87878 13.70916,-45.16157 21.59109,-8.41105 56.04389,11.37686 41.75417,36.45345 -1.88172,3.79856 -3.73137,7.52123 -7.48573,9.80924"
               style="fill:none;stroke:#000000;stroke-width:2.61538;stroke-linecap:round;stroke-linejoin:round;stroke-miterlimit:10;stroke-dasharray:none;stroke-opacity:1"
               id="path3128" />
          </g>
        </g>
        <g
           id="g3130"
           transform="matrix(1,0,0,-1,0,792)">
          <g
             id="g3132">
            <path
               d="m 815.45536,274.24969 c 13.88229,0.0803 0.51302,-9.67749 19.90757,-8.35 10.19332,-10.55226 -11.17402,-10.282 -0.36693,-19.43035 -7.14086,-9.48947 -19.41529,4.46331 -20.19485,-6.84236 -12.56658,-1.69436 -6.44767,14.52277 -17.88919,11.93155 -11.74434,9.62531 9.30024,7.65191 -0.23007,15.39455 6.37762,8.90407 11.44247,4.58479 18.77347,7.29661"
               style="fill:none;stroke:#000000;stroke-width:2.61538;stroke-linecap:round;stroke-linejoin:round;stroke-miterlimit:10;stroke-dasharray:none;stroke-opacity:1"
               id="path3134"
               sodipodi:nodetypes="ccccccc" />
          </g>
        </g>
        <g
           id="g3136"
           transform="matrix(1,0,0,-1,0,792)">
          <g
             id="g3138">
            <path
               d="m 844.15018,263.52176 c 31.31807,1.51365 67.70168,1.63704 99.06263,2.40679 7.44807,-0.0697 19.40258,-0.95866 23.88918,-2.7127"
               style="fill:none;stroke:#000000;stroke-width:2.61538;stroke-linecap:round;stroke-linejoin:round;stroke-miterlimit:10;stroke-dasharray:none;stroke-opacity:1"
               id="path3140"
               sodipodi:nodetypes="ccc" />
          </g>
        </g>
        <g
           id="g3142"
           transform="matrix(1,0,0,-1,0,792)">
          <g
             id="g3144">
            <path
               d="m 967.10199,263.21585 c 2.28577,-5.12723 3.80991,-16.12722 3.02383,-20.5545"
               style="fill:none;stroke:#000000;stroke-width:2.61538;stroke-linecap:round;stroke-linejoin:round;stroke-miterlimit:10;stroke-dasharray:none;stroke-opacity:1"
               id="path3146"
               sodipodi:nodetypes="cc" />
          </g>
        </g>
        <g
           id="g3148"
           transform="matrix(1,0,0,-1,0,792)">
          <g
             id="g3150">
            <path
               d="m 845.47764,241.81727 c 35.66863,1.44265 73.95424,0.57563 109.6296,0.54235 4.35327,-0.25701 15.01858,0.30173 15.01858,0.30173"
               style="fill:none;stroke:#000000;stroke-width:2.61538;stroke-linecap:round;stroke-linejoin:round;stroke-miterlimit:10;stroke-dasharray:none;stroke-opacity:1"
               id="path3152"
               sodipodi:nodetypes="ccc" />
          </g>
        </g>
        <g
           id="g3154"
           transform="matrix(1,0,0,-1,0,792)">
          <g
             id="g3156">
            <path
               d="m 859.90685,264.16274 c 4.50069,-4.59559 3.01971,-16.75389 0.20984,-21.87822"
               style="fill:none;stroke:#000000;stroke-width:2.61538;stroke-linecap:round;stroke-linejoin:round;stroke-miterlimit:10;stroke-dasharray:none;stroke-opacity:1"
               id="path3158"
               sodipodi:nodetypes="cc" />
          </g>
        </g>
        <g
           id="g3160"
           transform="matrix(1,0,0,-1,0,792)">
          <g
             id="g3162">
            <path
               d="m 894.46609,265.01901 c 5.15269,-3.79947 8.11909,-17.20924 2.89564,-22.11402"
               style="fill:none;stroke:#000000;stroke-width:2.61538;stroke-linecap:round;stroke-linejoin:round;stroke-miterlimit:10;stroke-dasharray:none;stroke-opacity:1"
               id="path3164"
               sodipodi:nodetypes="cc" />
          </g>
        </g>
        <g
           id="g3166"
           transform="matrix(1,0,0,-1,0,792)">
          <g
             id="g3168">
            <path
               d="m 959.0459,264.52354 c -6.34536,-3.8235 -6.48018,-15.81562 -2.57129,-21.39858"
               style="fill:none;stroke:#000000;stroke-width:2.61538;stroke-linecap:round;stroke-linejoin:round;stroke-miterlimit:10;stroke-dasharray:none;stroke-opacity:1"
               id="path3170"
               sodipodi:nodetypes="cc" />
          </g>
        </g>
        <g
           id="g3172"
           transform="matrix(1,0,0,-1,0,792)">
          <g
             id="g3174">
            <path
               d="m 925.24682,264.5722 c 2.50803,-4.61237 3.13206,-17.73896 0.39512,-22.06446"
               style="fill:none;stroke:#000000;stroke-width:2.61538;stroke-linecap:round;stroke-linejoin:round;stroke-miterlimit:10;stroke-dasharray:none;stroke-opacity:1"
               id="path3176"
               sodipodi:nodetypes="cc" />
          </g>
        </g>
        <g
           id="g3178"
           transform="matrix(1,0,0,-1,0,792)">
          <g
             id="g3180">
            <path
               d="m 908.26233,259.80539 c -6.30124,-14.55379 18.67427,-2.14047 0,0"
               style="fill:none;stroke:#000000;stroke-width:2.61538;stroke-linecap:round;stroke-linejoin:round;stroke-miterlimit:10;stroke-dasharray:none;stroke-opacity:1"
               id="path3182"
               sodipodi:nodetypes="cc" />
          </g>
        </g>
        <g
           id="g3184"
           transform="matrix(1,0,0,-1,0,792)">
          <g
             id="g3186">
            <path
               d="m 902.53143,162.34688 c 17.71378,11.9263 17.15837,-21.32617 1.24828,-10.04782 0.0584,3.18447 -2.77697,8.71572 -0.39344,11.28239"
               style="fill:none;stroke:#000000;stroke-width:2.61538;stroke-linecap:round;stroke-linejoin:round;stroke-miterlimit:10;stroke-dasharray:none;stroke-opacity:1"
               id="path3188" />
          </g>
        </g>
        <g
           id="g3190"
           transform="matrix(1,0,0,-1,0,792)">
          <g
             id="g3192">
            <path
               d="m 969.93286,142.54768 c -19.63956,-12.29477 16.91356,-18.5919 4.33132,-1.98803 -2.9492,1.34651 -1.29307,0.87995 -4.33132,1.98803"
               style="fill:none;stroke:#000000;stroke-width:2.61538;stroke-linecap:round;stroke-linejoin:round;stroke-miterlimit:10;stroke-dasharray:none;stroke-opacity:1"
               id="path3194"
               sodipodi:nodetypes="ccc" />
          </g>
        </g>
        <g
           id="g3196"
           transform="matrix(1,0,0,-1,0,792)">
          <g
             id="g3198">
            <path
               d="m 1008.0031,136.22301 c -20.60005,0.78002 11.6886,-24.78331 11.1173,-4.53781 -3.1596,3.33716 -6.343,4.80588 -11.1173,4.53781"
               style="fill:none;stroke:#000000;stroke-width:2.61538;stroke-linecap:round;stroke-linejoin:round;stroke-miterlimit:10;stroke-dasharray:none;stroke-opacity:1"
               id="path3200"
               sodipodi:nodetypes="ccc" />
          </g>
        </g>
        <g
           id="g3202"
           transform="matrix(1,0,0,-1,0,792)">
          <g
             id="g3204">
            <path
               d="m 672.30841,222.50229 c 32.56161,0.0751 158.23668,-2.3205 232.02509,-4.17171 v 0"
               style="fill:none;stroke:#000000;stroke-width:2.61538;stroke-linecap:round;stroke-linejoin:round;stroke-miterlimit:10;stroke-dasharray:none;stroke-opacity:1"
               id="path3206"
               sodipodi:nodetypes="ccc" />
          </g>
        </g>
        <g
           id="g3208"
           transform="matrix(1,0,0,-1,0,792)">
          <g
             id="g3210">
            <path
               d="m 904.3335,218.33058 c -0.41753,-21.44912 -5.30107,-42.8394 -3.21553,-64.46588 -0.89999,-24.01121 2.91298,-48.60189 -1.8146,-72.173984 -0.58688,-2.904022 -3.60815,-6.390865 -6.87395,-5.296702"
               style="fill:none;stroke:#000000;stroke-width:2.61538;stroke-linecap:round;stroke-linejoin:round;stroke-miterlimit:10;stroke-dasharray:none;stroke-opacity:1"
               id="path3212" />
          </g>
        </g>
        <g
           id="g3214"
           transform="matrix(1,0,0,-1,0,792)">
          <g
             id="g3216">
            <path
               d="M 671.37799,221.2697 C 668.55531,180.19625 670.19795,96.975762 676.56671,82.382514"
               style="fill:none;stroke:#000000;stroke-width:2.61538;stroke-linecap:round;stroke-linejoin:round;stroke-miterlimit:10;stroke-dasharray:none;stroke-opacity:1"
               id="path3218"
               sodipodi:nodetypes="cc" />
          </g>
        </g>
        <g
           id="g3220"
           transform="matrix(1,0,0,-1,0,792)">
          <g
             id="g3222">
            <path
               d="M 676.56671,82.382514 C 744.48311,75.357299 891.41132,76.84829 891.41132,76.84829"
               style="fill:none;stroke:#000000;stroke-width:2.61538;stroke-linecap:round;stroke-linejoin:round;stroke-miterlimit:10;stroke-dasharray:none;stroke-opacity:1"
               id="path3224"
               sodipodi:nodetypes="cc" />
          </g>
        </g>
        <g
           id="g3226"
           transform="matrix(1,0,0,-1,0,792)">
          <g
             id="g3228">
            <path
               d="m 670.30629,207.63161 c 32.80955,1.66836 105.39428,0.22875 138.14665,-1.9909 29.51859,-1.46126 59.50698,1.96498 88.67757,-3.56158 4.42393,-1.03495 5.68885,-5.50606 4.96317,-10.69729"
               style="fill:none;stroke:#000000;stroke-width:2.61538;stroke-linecap:round;stroke-linejoin:round;stroke-miterlimit:10;stroke-dasharray:none;stroke-opacity:1"
               id="path3230"
               sodipodi:nodetypes="cccc" />
          </g>
        </g>
        <g
           id="g3232"
           transform="matrix(1,0,0,-1,0,792)">
          <g
             id="g3234">
            <path
               d="m 742.61877,168.55922 c 20.79159,-2.01821 27.86416,-32.05048 10.50466,-43.34296 -20.26654,-12.92503 -52.3187,11.95138 -39.58591,34.32196 6.85273,9.98321 21.62216,12.54759 32.4206,8.17272"
               style="fill:none;stroke:#000000;stroke-width:2.61538;stroke-linecap:round;stroke-linejoin:round;stroke-miterlimit:10;stroke-dasharray:none;stroke-opacity:1"
               id="path3236" />
          </g>
        </g>
        <g
           id="g3238"
           transform="matrix(1,0,0,-1,0,792)">
          <g
             id="g3240">
            <path
               d="m 824.89624,168.16249 c 21.01077,8.08894 49.59523,-15.98731 32.44271,-36.47676 -12.4982,-14.47836 -37.70325,-9.15413 -47.38551,5.52081 -10.4972,15.24441 4.9068,31.62774 20.82066,31.55728"
               style="fill:none;stroke:#000000;stroke-width:2.61538;stroke-linecap:round;stroke-linejoin:round;stroke-miterlimit:10;stroke-dasharray:none;stroke-opacity:1"
               id="path3242" />
          </g>
        </g>
        <g
           id="g3244"
           transform="matrix(1,0,0,-1,0,792)">
          <g
             id="g3246">
            <path
               d="m 820.47003,155.64644 c 13.41673,15.62925 47.24201,-3.17203 31.44585,-20.95328 -15.29477,-20.36712 -55.19681,8.32574 -30.93008,24.71698 2.96202,1.06386 6.11049,2.03687 9.30704,1.58452"
               style="fill:none;stroke:#000000;stroke-width:2.61538;stroke-linecap:round;stroke-linejoin:round;stroke-miterlimit:10;stroke-dasharray:none;stroke-opacity:1"
               id="path3248" />
          </g>
        </g>
        <g
           id="g3250"
           transform="matrix(1,0,0,-1,0,792)">
          <g
             id="g3252">
            <path
               d="m 736.11792,162.47603 c 28.45198,4.28112 23.61743,-44.15943 -3.6707,-34.56892 -22.95511,4.24318 -19.08684,38.7863 5.49851,33.82188"
               style="fill:none;stroke:#000000;stroke-width:2.61538;stroke-linecap:round;stroke-linejoin:round;stroke-miterlimit:10;stroke-dasharray:none;stroke-opacity:1"
               id="path3254" />
          </g>
        </g>
        <g
           id="g3256"
           transform="matrix(1,0,0,-1,0,792)">
          <g
             id="g3258">
            <path
               d="m 726.76367,160.99516 c -7.92601,-17.19554 21.33971,-22.84048 28.1213,-11.1165"
               style="fill:none;stroke:#000000;stroke-width:2.61538;stroke-linecap:round;stroke-linejoin:round;stroke-miterlimit:10;stroke-dasharray:none;stroke-opacity:1"
               id="path3260"
               sodipodi:nodetypes="cc" />
          </g>
        </g>
        <g
           id="g3262"
           transform="matrix(1,0,0,-1,0,792)">
          <g
             id="g3264">
            <path
               d="m 824.10516,157.31349 c -3.64849,-16.2758 23.17645,-18.87049 31.95671,-8.35835"
               style="fill:none;stroke:#000000;stroke-width:2.61538;stroke-linecap:round;stroke-linejoin:round;stroke-miterlimit:10;stroke-dasharray:none;stroke-opacity:1"
               id="path3266" />
          </g>
        </g>
        <g
           id="g3268"
           transform="matrix(1,0,0,-1,0,792)">
          <g
             id="g3270">
            <path
               d="m 856.27521,144.84644 c -9.01955,3.68392 -5.18111,-4.67306 -7.24966,-5.7321"
               style="fill:none;stroke:#000000;stroke-width:2.61538;stroke-linecap:round;stroke-linejoin:round;stroke-miterlimit:10;stroke-dasharray:none;stroke-opacity:1"
               id="path3272" />
          </g>
        </g>
        <g
           id="g3274"
           transform="matrix(1,0,0,-1,0,792)">
          <g
             id="g3276">
            <path
               d="m 839.17041,135.93127 c -0.29023,5.12982 -8.09947,2.13948 -9.63918,0.96413"
               style="fill:none;stroke:#000000;stroke-width:2.61538;stroke-linecap:round;stroke-linejoin:round;stroke-miterlimit:10;stroke-dasharray:none;stroke-opacity:1"
               id="path3278" />
          </g>
        </g>
        <g
           id="g3280"
           transform="matrix(1,0,0,-1,0,792)">
          <g
             id="g3282">
            <path
               d="m 822.28021,142.67108 c 4.45993,2.04893 -0.35005,8.19218 -4.51115,6.43406"
               style="fill:none;stroke:#000000;stroke-width:2.61538;stroke-linecap:round;stroke-linejoin:round;stroke-miterlimit:10;stroke-dasharray:none;stroke-opacity:1"
               id="path3284" />
          </g>
        </g>
        <g
           id="g3286"
           transform="matrix(1,0,0,-1,0,792)">
          <g
             id="g3288">
            <path
               d="m 751.9455,138.04051 c -2.22277,6.38953 -10.69875,2.79503 -7.983,-2.73791"
               style="fill:none;stroke:#000000;stroke-width:2.61538;stroke-linecap:round;stroke-linejoin:round;stroke-miterlimit:10;stroke-dasharray:none;stroke-opacity:1"
               id="path3290" />
          </g>
        </g>
        <g
           id="g3292"
           transform="matrix(1,0,0,-1,0,792)">
          <g
             id="g3294">
            <path
               d="m 730.77985,134.90538 c 5.05529,2.15758 -3.03237,12.09716 -6.98487,6.37407"
               style="fill:none;stroke:#000000;stroke-width:2.61538;stroke-linecap:round;stroke-linejoin:round;stroke-miterlimit:10;stroke-dasharray:none;stroke-opacity:1"
               id="path3296" />
          </g>
        </g>
        <g
           id="g3298"
           transform="matrix(1,0,0,-1,0,792)">
          <g
             id="g3300">
            <path
               d="m 717.64703,149.81773 c 5.30464,-1.61617 9.63447,5.97944 3.80174,7.82093"
               style="fill:none;stroke:#000000;stroke-width:2.61538;stroke-linecap:round;stroke-linejoin:round;stroke-miterlimit:10;stroke-dasharray:none;stroke-opacity:1"
               id="path3302" />
          </g>
        </g>
        <g
           id="g3304"
           transform="matrix(1,0,0,-1,0,792)">
          <g
             id="g3306">
            <path
               d="m 1005.9298,284.24466 c -1.338,27.39367 -1.675,55.78774 0.3837,82.67065"
               style="fill:none;stroke:#000000;stroke-width:1.30769;stroke-linecap:round;stroke-linejoin:round;stroke-miterlimit:10;stroke-dasharray:none;stroke-opacity:1"
               id="path3308" />
          </g>
        </g>
        <g
           id="g3310"
           transform="matrix(1,0,0,-1,0,792)">
          <g
             id="g3312">
            <path
               d="m 811.93854,282.93863 c -1.42659,25.40237 -2.27581,50.85919 -2.36794,76.32459 -0.91092,2.49929 0.0444,4.97673 -0.008,7.48907"
               style="fill:none;stroke:#000000;stroke-width:1.30769;stroke-linecap:round;stroke-linejoin:round;stroke-miterlimit:10;stroke-dasharray:none;stroke-opacity:1"
               id="path3314" />
          </g>
        </g>
        <g
           id="g3316"
           transform="matrix(1,0,0,-1,0,792)">
          <g
             id="g3318">
            <path
               d="m 901.1192,173.26735 c 45.04386,1.79503 90.14387,1.70308 135.1867,3.40726 l 8.6597,0.65384"
               style="fill:none;stroke:#000000;stroke-width:1.30769;stroke-linecap:round;stroke-linejoin:round;stroke-miterlimit:10;stroke-dasharray:none;stroke-opacity:1"
               id="path3320"
               sodipodi:nodetypes="ccc" />
          </g>
        </g>
        <g
           id="g3322"
           transform="matrix(1,0,0,-1,0,792)">
          <g
             id="g3324">
            <path
               d="m 1044.9656,177.32845 c 3.0137,-17.79247 9.0807,-40.25277 11.0997,-57.34141"
               style="fill:none;stroke:#000000;stroke-width:1.30769;stroke-linecap:round;stroke-linejoin:round;stroke-miterlimit:10;stroke-dasharray:none;stroke-opacity:1"
               id="path3326"
               sodipodi:nodetypes="cc" />
          </g>
        </g>
        <g
           id="g3328"
           transform="matrix(1,0,0,-1,0,792)">
          <g
             id="g3330">
            <path
               d="m 907.34717,183.07904 c 31.07636,2.34016 62.19782,-2.42983 93.30463,-0.0698 33.8055,0.60341 67.7386,-0.97864 101.4348,-0.48237"
               style="fill:none;stroke:#000000;stroke-width:1.30769;stroke-linecap:round;stroke-linejoin:round;stroke-miterlimit:10;stroke-dasharray:none;stroke-opacity:1"
               id="path3332" />
          </g>
        </g>
        <g
           id="g3334"
           transform="matrix(1,0,0,-1,0,792)">
          <g
             id="g3336">
            <path
               d="m 1101.1566,215.75392 c -1.0242,-12.07056 1.8949,-21.15816 0.93,-33.22705"
               style="fill:none;stroke:#000000;stroke-width:1.30769;stroke-linecap:round;stroke-linejoin:round;stroke-miterlimit:10;stroke-dasharray:none;stroke-opacity:1"
               id="path3338"
               sodipodi:nodetypes="cc" />
          </g>
        </g>
        <g
           id="g3340"
           transform="matrix(1,0,0,-1,0,792)">
          <g
             id="g3342">
            <path
               d="m 915.78448,217.01938 c 0,0 123.23482,3.97694 185.37212,-1.26546"
               style="fill:none;stroke:#000000;stroke-width:1.30769;stroke-linecap:round;stroke-linejoin:round;stroke-miterlimit:10;stroke-dasharray:none;stroke-opacity:1"
               id="path3344"
               sodipodi:nodetypes="cc" />
          </g>
        </g>
        <g
           id="g3346"
           transform="matrix(1,0,0,-1,0,792)">
          <g
             id="g3348">
            <path
               d="m 776.1723,201.5302 c -0.29719,-1.33045 -0.93497,-6.58097 -0.95667,-7.87579"
               style="fill:none;stroke:#000000;stroke-width:1.30769;stroke-linecap:round;stroke-linejoin:round;stroke-miterlimit:10;stroke-dasharray:none;stroke-opacity:1"
               id="path3350" />
          </g>
        </g>
        <g
           id="g3352"
           transform="matrix(1,0,0,-1,0,792)">
          <g
             id="g3354">
            <path
               d="m 775.5473,193.14082 c 0.55936,5.81299 12.41788,8.36208 9.77085,0.43549"
               style="fill:none;stroke:#000000;stroke-width:1.30769;stroke-linecap:round;stroke-linejoin:round;stroke-miterlimit:10;stroke-dasharray:none;stroke-opacity:1"
               id="path3356" />
          </g>
        </g>
        <g
           id="g3358"
           transform="matrix(1,0,0,-1,0,792)">
          <g
             id="g3360">
            <path
               d="m 776.07233,193.287 c 3.64914,0.003 12.60193,1.37295 16.02889,-0.44828"
               style="fill:none;stroke:#000000;stroke-width:1.30769;stroke-linecap:round;stroke-linejoin:round;stroke-miterlimit:10;stroke-dasharray:none;stroke-opacity:1"
               id="path3362"
               sodipodi:nodetypes="cc" />
          </g>
        </g>
        <g
           id="g3364"
           transform="matrix(1,0,0,-1,0,792)">
          <g
             id="g3366">
            <path
               d="m 791.11212,200.89539 c 0.41995,-2.4868 2.22556,-5.62298 0.9891,-8.05667"
               style="fill:none;stroke:#000000;stroke-width:1.30769;stroke-linecap:round;stroke-linejoin:round;stroke-miterlimit:10;stroke-dasharray:none;stroke-opacity:1"
               id="path3368" />
          </g>
        </g>
        <g
           id="g3370"
           transform="matrix(1,0,0,-1,0,792)">
          <g
             id="g3372">
            <path
               d="m 676.0437,197.65059 c 29.07392,0.79168 58.15125,-2.84338 87.19601,-0.74448 -1.13705,-0.27345 3.43495,0.2577 2.33378,-0.89864"
               style="fill:none;stroke:#000000;stroke-width:1.30769;stroke-linecap:round;stroke-linejoin:round;stroke-miterlimit:10;stroke-dasharray:none;stroke-opacity:1"
               id="path3374" />
          </g>
        </g>
        <g
           id="g3376"
           transform="matrix(1,0,0,-1,0,792)">
          <g
             id="g3378">
            <path
               d="m 766.88251,195.96947 c -1.01889,-15.64788 20.11934,-15.61711 28.98639,-10.42744 2.21692,4.53212 -1.2774,9.75369 3.45571,10.65671"
               style="fill:none;stroke:#000000;stroke-width:1.30769;stroke-linecap:round;stroke-linejoin:round;stroke-miterlimit:10;stroke-dasharray:none;stroke-opacity:1"
               id="path3380"
               sodipodi:nodetypes="ccc" />
          </g>
        </g>
        <g
           id="g3382"
           transform="matrix(1,0,0,-1,0,792)">
          <g
             id="g3384">
            <path
               d="m 800.51422,196.1414 c 29.77275,0.38461 59.57849,0.86172 89.32358,-0.80496 10.13583,-16.59008 3.6358,-36.54926 5.59712,-54.71578 -1.09706,-12.12478 2.07358,-24.06436 1.4192,-36.14684 0.34575,-13.234251 -15.09016,-15.833465 -20.46311,-4.884399 -10.41822,7.243609 -17.56725,-3.650523 -25.34532,-7.855862 -15.95632,-1.353894 -32.00066,-2.572233 -48.063,-1.538624 -2.24942,0.106876 -4.49785,0.234276 -6.74513,0.379266"
               style="fill:none;stroke:#000000;stroke-width:1.30769;stroke-linecap:round;stroke-linejoin:round;stroke-miterlimit:10;stroke-dasharray:none;stroke-opacity:1"
               id="path3386" />
          </g>
        </g>
        <g
           id="g3388"
           transform="matrix(1,0,0,-1,0,792)">
          <g
             id="g3390">
            <path
               d="m 795.78174,90.518066 c -2.32078,7.099727 -13.85457,5.471048 -16.95886,-0.235858"
               style="fill:none;stroke:#000000;stroke-width:1.30769;stroke-linecap:round;stroke-linejoin:round;stroke-miterlimit:10;stroke-dasharray:none;stroke-opacity:1"
               id="path3392" />
          </g>
        </g>
        <g
           id="g3394"
           transform="matrix(1,0,0,-1,0,792)">
          <g
             id="g3396">
            <path
               d="m 778.82288,90.282208 c -19.49637,2.131724 -40.63856,3.212457 -60.28125,3.524806"
               style="fill:none;stroke:#000000;stroke-width:1.30769;stroke-linecap:round;stroke-linejoin:round;stroke-miterlimit:10;stroke-dasharray:none;stroke-opacity:1"
               id="path3398"
               sodipodi:nodetypes="cc" />
          </g>
        </g>
        <g
           id="g3400"
           transform="matrix(1,0,0,-1,0,792)">
          <g
             id="g3402">
            <path
               d="m 718.54163,93.807014 c -2.35876,13.049076 -24.63022,15.083026 -26.51544,0.881498 -10.3769,-4.601788 -15.91064,9.974938 -15.26114,18.417958 -1.3752,28.21352 -3.45802,68.66475 -0.72135,84.54412"
               style="fill:none;stroke:#000000;stroke-width:1.30769;stroke-linecap:round;stroke-linejoin:round;stroke-miterlimit:10;stroke-dasharray:none;stroke-opacity:1"
               id="path3404"
               sodipodi:nodetypes="cccc" />
          </g>
        </g>
        <g
           id="g3406"
           transform="matrix(1,0,0,-1,0,792)">
          <g
             id="g3408">
            <path
               d="m 701.25781,92.178459 c -6.82019,-16.772802 22.34517,5.217627 0,0"
               style="fill:none;stroke:#000000;stroke-width:1.30769;stroke-linecap:round;stroke-linejoin:round;stroke-miterlimit:10;stroke-dasharray:none;stroke-opacity:1"
               id="path3410"
               sodipodi:nodetypes="cc" />
          </g>
        </g>
        <g
           id="g3412"
           transform="matrix(1,0,0,-1,0,792)">
          <g
             id="g3414">
            <path
               d="m 780.58252,84.425774 c 0.42607,2.751427 1.67321,6.077811 4.69915,6.772857 3.4863,0.59534 7.14963,-2.142815 7.78852,-5.555197 -0.0892,-2.874967 -3.53974,-3.440592 -5.81566,-3.16447 -2.70917,0.08977 -4.30699,0.681412 -6.67201,1.94681"
               style="fill:none;stroke:#000000;stroke-width:1.30769;stroke-linecap:round;stroke-linejoin:round;stroke-miterlimit:10;stroke-dasharray:none;stroke-opacity:1"
               id="path3416"
               sodipodi:nodetypes="ccccc" />
          </g>
        </g>
        <g
           id="g3418"
           transform="matrix(1,0,0,-1,0,792)">
          <g
             id="g3420">
            <path
               d="m 869.65106,82.353607 c -10.28624,16.288226 20.58227,6.696677 5.63708,-1.630441 -3.464,-1.340508 -5.49314,1.454755 -7.44957,3.480087"
               style="fill:none;stroke:#000000;stroke-width:1.30769;stroke-linecap:round;stroke-linejoin:round;stroke-miterlimit:10;stroke-dasharray:none;stroke-opacity:1"
               id="path3422" />
          </g>
        </g>
        <g
           id="g3424"
           transform="matrix(1,0,0,-1,0,792)">
          <g
             id="g3426">
            <path
               d="m 670.96014,216.02353 c 41.00059,4.15735 82.14739,-4.46697 123.24129,-1.64556 31.24807,0.96828 62.61325,-1.0589 93.70106,-2.97564 4.00356,-0.55946 11.39174,-0.37142 12.3967,-4.7144"
               style="fill:none;stroke:#000000;stroke-width:1.30769;stroke-linecap:round;stroke-linejoin:round;stroke-miterlimit:10;stroke-dasharray:none;stroke-opacity:1"
               id="path3428" />
          </g>
        </g>
      </g>
    </g>
  </g>
</svg>
