<?xml version="1.0" encoding="UTF-8" standalone="no"?>
<!-- Created by Ashley Blewer - This work is licensed under a Creative Commons Attribution 4.0 International License -->

<svg
   width="544"
   height="480"
   viewBox="0 0 143.93334 127"
   version="1.1"
   id="svg2490"
   inkscape:version="1.2.2 (1:1.2.2+202212051552+b0a8486541)"
   sodipodi:docname="1971-hipac-1.svg"
   xmlns:inkscape="http://www.inkscape.org/namespaces/inkscape"
   xmlns:sodipodi="http://sodipodi.sourceforge.net/DTD/sodipodi-0.dtd"
   xmlns="http://www.w3.org/2000/svg"
   xmlns:svg="http://www.w3.org/2000/svg">
  <sodipodi:namedview
     id="namedview2492"
     pagecolor="#ffffff"
     bordercolor="#666666"
     borderopacity="1.0"
     inkscape:pageshadow="2"
     inkscape:pageopacity="0.0"
     inkscape:pagecheckerboard="0"
     inkscape:document-units="mm"
     showgrid="false"
     units="px"
     inkscape:zoom="0.90583674"
     inkscape:cx="53.541657"
     inkscape:cy="253.35691"
     inkscape:window-width="1846"
     inkscape:window-height="1136"
     inkscape:window-x="0"
     inkscape:window-y="0"
     inkscape:window-maximized="1"
     inkscape:current-layer="g4731"
     inkscape:showpageshadow="2"
     inkscape:deskcolor="#d1d1d1" />
  <defs
     id="defs2487" />
  <g
     inkscape:label="Layer 1"
     inkscape:groupmode="layer"
     id="layer1">
    <g
       id="g4731"
       transform="matrix(0.32961229,0,0,0.32903008,-241.78905,1.73126)"
       style="stroke-width:2.68698">
      <g
         id="g104528"
         transform="matrix(1,0,0,-1,0,792)"
         style="stroke-width:2.68698">
        <g
           id="g104530"
           style="stroke-width:2.68698" />
      </g>
      <g
         id="g104996"
         transform="matrix(1,0,0,-1,0,792)"
         style="stroke-width:2.68698">
        <g
           id="g104998"
           style="stroke-width:2.68698" />
      </g>
      <g
         id="g4359"
         transform="matrix(1.4577676,0,0,1.4589138,-386.48018,-202.97946)"
         style="stroke-width:2.47111">
        <g
           id="g1798"
           transform="matrix(1,0,0,-1,0,792)"
           style="stroke-width:2.47111">
          <g
             id="g1800"
             style="stroke-width:2.47111">
            <path
               d="m 788.64301,506.99182 c -3.66673,-0.62452 -5.89101,2.46592 -5.29737,5.51332 -0.0323,4.43656 0.58672,9.00869 0.0165,13.30755 0.2408,2.11153 0.1265,4.75629 0.9214,6.4578"
               style="fill:none;stroke:#000000;stroke-width:3.13514;stroke-linecap:round;stroke-linejoin:round;stroke-miterlimit:10;stroke-dasharray:none;stroke-opacity:1"
               id="path1802" />
          </g>
        </g>
        <g
           id="g1804"
           transform="matrix(1,0,0,-1,0,792)"
           style="stroke-width:2.47111">
          <g
             id="g1806"
             style="stroke-width:2.47111">
            <path
               d="m 783.25604,531.36456 c 1.63316,0.36163 3.05951,1.17238 4.53754,1.91815"
               style="fill:none;stroke:#000000;stroke-width:3.13514;stroke-linecap:round;stroke-linejoin:round;stroke-miterlimit:10;stroke-dasharray:none;stroke-opacity:1"
               id="path1808" />
          </g>
        </g>
        <g
           id="g1810"
           transform="matrix(1,0,0,-1,0,792)"
           style="stroke-width:2.47111">
          <g
             id="g1812"
             style="stroke-width:2.47111">
            <path
               d="M 787.79358,533.28271 C 829.25769,511.0961 882.92747,490.51926 927.979,477.44006"
               style="fill:none;stroke:#000000;stroke-width:3.13514;stroke-linecap:round;stroke-linejoin:round;stroke-miterlimit:10;stroke-dasharray:none;stroke-opacity:1"
               id="path1814"
               sodipodi:nodetypes="cc" />
          </g>
        </g>
        <g
           id="g1816"
           transform="matrix(1,0,0,-1,0,792)"
           style="stroke-width:2.47111">
          <g
             id="g1818"
             style="stroke-width:2.47111">
            <path
               d="m 795.42426,536.12524 c 44.43133,-20.31132 86.99848,-45.87007 134.83062,-57.67385"
               style="fill:none;stroke:#000000;stroke-width:3.13514;stroke-linecap:round;stroke-linejoin:round;stroke-miterlimit:10;stroke-dasharray:none;stroke-opacity:1"
               id="path1820" />
          </g>
        </g>
        <g
           id="g1822"
           transform="matrix(1,0,0,-1,0,792)"
           style="stroke-width:2.47111">
          <g
             id="g1824"
             style="stroke-width:2.47111">
            <path
               d="m 786.74249,532.14563 c 3.10528,4.35055 7.90929,7.07124 13.20999,7.58129 11.10021,2.05412 22.36653,3.19784 33.27657,6.23068 13.59733,3.32477 27.42715,5.66986 41.01456,8.97027 7.14131,0.25556 14.30768,0.22396 21.22947,2.22073 3.33567,0.62185 10.30966,2.36506 13.68085,2.7701"
               style="fill:none;stroke:#000000;stroke-width:3.13514;stroke-linecap:round;stroke-linejoin:round;stroke-miterlimit:10;stroke-dasharray:none;stroke-opacity:1"
               id="path1826"
               sodipodi:nodetypes="cccccc" />
          </g>
        </g>
        <g
           id="g1828"
           transform="matrix(1,0,0,-1,0,792)"
           style="stroke-width:2.47111">
          <g
             id="g1830"
             style="stroke-width:2.47111">
            <path
               d="M 909.15393,559.9187 C 954.3229,549.50972 997.6353,532.10842 1043.2479,523.47776"
               style="fill:none;stroke:#000000;stroke-width:3.13514;stroke-linecap:round;stroke-linejoin:round;stroke-miterlimit:10;stroke-dasharray:none;stroke-opacity:1"
               id="path1832" />
          </g>
        </g>
        <g
           id="g1834"
           transform="matrix(1,0,0,-1,0,792)"
           style="stroke-width:2.47111">
          <g
             id="g1836"
             style="stroke-width:2.47111">
            <path
               d="m 1043.2479,523.47776 c 0,0 4.7378,-9.04377 4.8512,-9.84446"
               style="fill:none;stroke:#000000;stroke-width:3.13514;stroke-linecap:round;stroke-linejoin:round;stroke-miterlimit:10;stroke-dasharray:none;stroke-opacity:1"
               id="path1838"
               sodipodi:nodetypes="cc" />
          </g>
        </g>
        <g
           id="g1840"
           transform="matrix(1,0,0,-1,0,792)"
           style="stroke-width:2.47111">
          <g
             id="g1842"
             style="stroke-width:2.47111">
            <path
               d="m 1048.0991,513.6333 c 3.4875,0.48607 3.7686,-3.61965 3.4155,-5.70581 0.016,-4.20741 0.1917,-8.38762 0.5656,-12.39474 -0.4326,-1.33541 1.608,-6.9828 0.5606,-7.39093"
               style="fill:none;stroke:#000000;stroke-width:3.13514;stroke-linecap:round;stroke-linejoin:round;stroke-miterlimit:10;stroke-dasharray:none;stroke-opacity:1"
               id="path1844"
               sodipodi:nodetypes="cccc" />
          </g>
        </g>
        <g
           id="g1846"
           transform="matrix(1,0,0,-1,0,792)"
           style="stroke-width:2.47111">
          <g
             id="g1848"
             style="stroke-width:2.47111">
            <path
               d="m 936.86755,450.62006 c 11.23596,2.54618 22.52288,5.18576 33.32405,9.28125 13.33371,3.25773 25.88889,9.00498 39.2529,12.12132 8.8371,2.75842 17.629,5.58286 26.2096,8.99337 5.7833,2.24879 11.2941,4.81346 16.9867,7.12582"
               style="fill:none;stroke:#000000;stroke-width:3.13514;stroke-linecap:round;stroke-linejoin:round;stroke-miterlimit:10;stroke-dasharray:none;stroke-opacity:1"
               id="path1850" />
          </g>
        </g>
        <g
           id="g1852"
           transform="matrix(1,0,0,-1,0,792)"
           style="stroke-width:2.47111">
          <g
             id="g1854"
             style="stroke-width:2.47111">
            <path
               d="m 788.64301,506.99182 c 5.95749,0.25445 17.63202,-5.54768 22.9201,-7.87284 2.56249,-0.75367 5.4453,-2.71939 3.73468,-4.19888 l 0.27533,0.0221 2.79956,-1.64175"
               style="fill:none;stroke:#000000;stroke-width:3.13514;stroke-linecap:round;stroke-linejoin:round;stroke-miterlimit:10;stroke-dasharray:none;stroke-opacity:1"
               id="path1856"
               sodipodi:nodetypes="ccccc" />
          </g>
        </g>
        <g
           id="g1858"
           transform="matrix(1,0,0,-1,0,792)"
           style="stroke-width:2.47111">
          <g
             id="g1860"
             style="stroke-width:2.47111">
            <path
               d="m 818.37268,493.30045 c 38.78529,-16.89655 77.24111,-38.36578 119.76715,-43.47688"
               style="fill:none;stroke:#000000;stroke-width:3.13514;stroke-linecap:round;stroke-linejoin:round;stroke-miterlimit:10;stroke-dasharray:none;stroke-opacity:1"
               id="path1862" />
          </g>
        </g>
        <g
           id="g1864"
           transform="matrix(1,0,0,-1,0,792)"
           style="stroke-width:2.47111">
          <g
             id="g1866"
             style="stroke-width:2.47111">
            <path
               d="m 931.94342,470.13968 c 0.0525,-2.23442 0.26164,-11.17215 0.31375,-13.40659"
               style="fill:none;stroke:#000000;stroke-width:3.13514;stroke-linecap:round;stroke-linejoin:round;stroke-miterlimit:10;stroke-dasharray:none;stroke-opacity:1"
               id="path1868" />
          </g>
        </g>
        <g
           id="g1870"
           transform="matrix(1,0,0,-1,0,792)"
           style="stroke-width:2.47111">
          <g
             id="g1872"
             style="stroke-width:2.47111">
            <path
               d="m 945.19659,452.83755 c -0.42638,0.6908 -0.36644,5.46384 -1.52035,7.80203 -1.88645,6.15374 -1.78867,12.48239 -2.83816,18.77732 0.24989,2.06569 0.19729,5.54687 0.04,6.45472"
               style="fill:none;stroke:#000000;stroke-width:3.13514;stroke-linecap:round;stroke-linejoin:round;stroke-miterlimit:10;stroke-dasharray:none;stroke-opacity:1"
               id="path1874" />
          </g>
        </g>
        <g
           id="g1876"
           transform="matrix(1,0,0,-1,0,792)"
           style="stroke-width:2.47111">
          <g
             id="g1878"
             style="stroke-width:2.47111">
            <path
               d="m 940.87808,485.87162 c 6.10597,1.97489 14.4009,6.44155 20.73742,7.43558 2.97038,0.2383 6.51946,0.46319 7.33921,-2.62851 0.68858,-2.80514 0.60847,-6.58295 0.26496,-9.31588 0.0425,-2.58829 0.93956,-5.24813 0.46756,-7.33059 0.0978,-3.71336 1.16249,-11.45384 0.50437,-14.13091 v 0 0"
               style="fill:none;stroke:#000000;stroke-width:3.13514;stroke-linecap:round;stroke-linejoin:round;stroke-miterlimit:10;stroke-dasharray:none;stroke-opacity:1"
               id="path1880"
               sodipodi:nodetypes="cccccccc" />
          </g>
        </g>
        <g
           id="g1882"
           transform="matrix(1,0,0,-1,0,792)"
           style="stroke-width:2.47111">
          <g
             id="g1884"
             style="stroke-width:2.47111">
            <path
               d="m 981.05292,465.06439 c 0.1281,1.13219 -0.40461,5.7674 -1.11838,8.23247 -0.76978,7.00234 -0.52581,13.89381 -0.69938,20.93353 -0.24577,3.13701 5.13299,3.52488 5.13299,3.52488 7.8963,2.52849 15.80795,5.20884 23.95915,6.7104 2.7868,0.69368 3.0867,-2.79495 3.3191,-4.97849 1.2489,-4.36917 -0.6188,-9.20005 0.1017,-13.89777 -0.3214,-3.14855 -0.3439,-6.35798 -0.2876,-9.65405 -0.091,-0.6832 0.6708,-2.93574 -0.5402,-1.83972"
               style="fill:none;stroke:#000000;stroke-width:3.13514;stroke-linecap:round;stroke-linejoin:round;stroke-miterlimit:10;stroke-dasharray:none;stroke-opacity:1"
               id="path1886"
               sodipodi:nodetypes="ccccccccc" />
          </g>
        </g>
        <g
           id="g1888"
           transform="matrix(1,0,0,-1,0,792)"
           style="stroke-width:2.47111">
          <g
             id="g1890"
             style="stroke-width:2.47111">
            <path
               d="m 1019.2291,480.08291 c 1.1587,-4.21042 0.6992,-2.05623 0,0 -0.8661,5.14388 -1.0561,10.57783 -1.5693,15.92945 0.091,3.4371 0.216,7.38392 0.095,11.03806"
               style="fill:none;stroke:#000000;stroke-width:3.13514;stroke-linecap:round;stroke-linejoin:round;stroke-miterlimit:10;stroke-dasharray:none;stroke-opacity:1"
               id="path1892"
               sodipodi:nodetypes="cccc" />
          </g>
        </g>
        <g
           id="g1894"
           transform="matrix(1,0,0,-1,0,792)"
           style="stroke-width:2.47111">
          <g
             id="g1896"
             style="stroke-width:2.47111">
            <path
               d="m 1017.7548,507.05042 c 0,0 5.2013,2.56769 8.3287,3.23962 6.2719,1.39012 12.6852,2.65902 18.834,4.25214 0.3017,-1.77031 0.9673,-5.65403 0.6385,-8.6059 -0.6219,-6.10818 0.7162,-11.97212 0.8718,-18.0997 -0.4273,-1.08054 2.3858,-1.14368 0,0"
               style="fill:none;stroke:#000000;stroke-width:3.13514;stroke-linecap:round;stroke-linejoin:round;stroke-miterlimit:10;stroke-dasharray:none;stroke-opacity:1"
               id="path1898"
               sodipodi:nodetypes="cccccc" />
          </g>
        </g>
        <g
           id="g1900"
           transform="matrix(1,0,0,-1,0,792)"
           style="stroke-width:2.47111">
          <g
             id="g1902"
             style="stroke-width:2.47111">
            <path
               d="m 1020.0576,501.06067 c 6.485,1.18761 12.7722,3.17816 19.1391,4.85477"
               style="fill:none;stroke:#000000;stroke-width:3.13514;stroke-linecap:round;stroke-linejoin:round;stroke-miterlimit:10;stroke-dasharray:none;stroke-opacity:1"
               id="path1904" />
          </g>
        </g>
        <g
           id="g1906"
           transform="matrix(1,0,0,-1,0,792)"
           style="stroke-width:2.47111">
          <g
             id="g1908"
             style="stroke-width:2.47111">
            <path
               d="m 1023.6229,491.08783 c 2.4541,0.41583 6.3503,2.60021 9.337,3.67694 2.3306,1.36094 5.6605,1.5272 7.5881,3.13224"
               style="fill:none;stroke:#000000;stroke-width:3.13514;stroke-linecap:round;stroke-linejoin:round;stroke-miterlimit:10;stroke-dasharray:none;stroke-opacity:1"
               id="path1910" />
          </g>
        </g>
        <g
           id="g1912"
           transform="matrix(1,0,0,-1,0,792)"
           style="stroke-width:2.47111">
          <g
             id="g1914"
             style="stroke-width:2.47111">
            <path
               d="m 982.66455,489.45367 c 7.68495,2.58953 15.56703,4.65502 23.43155,6.44657 l -0.3979,0.10986"
               style="fill:none;stroke:#000000;stroke-width:3.13514;stroke-linecap:round;stroke-linejoin:round;stroke-miterlimit:10;stroke-dasharray:none;stroke-opacity:1"
               id="path1916" />
          </g>
        </g>
        <g
           id="g1918"
           transform="matrix(1,0,0,-1,0,792)"
           style="stroke-width:2.47111">
          <g
             id="g1920"
             style="stroke-width:2.47111">
            <path
               d="m 984.84631,480.28986 c 2.40273,-0.9743 6.87497,1.26001 9.98004,1.86541 4.02553,1.61373 8.83025,1.69838 12.52435,3.76493"
               style="fill:none;stroke:#000000;stroke-width:3.13514;stroke-linecap:round;stroke-linejoin:round;stroke-miterlimit:10;stroke-dasharray:none;stroke-opacity:1"
               id="path1922" />
          </g>
        </g>
        <g
           id="g1924"
           transform="matrix(1,0,0,-1,0,792)"
           style="stroke-width:2.47111">
          <g
             id="g1926"
             style="stroke-width:2.47111">
            <path
               d="m 943.63934,477.88589 c 6.17075,1.30073 12.63942,4.05123 19.15985,4.33003 l -0.56831,-0.16488 -0.10521,-0.0305"
               style="fill:none;stroke:#000000;stroke-width:3.13514;stroke-linecap:round;stroke-linejoin:round;stroke-miterlimit:10;stroke-dasharray:none;stroke-opacity:1"
               id="path1928" />
          </g>
        </g>
        <g
           id="g1930"
           transform="matrix(1,0,0,-1,0,792)"
           style="stroke-width:2.47111">
          <g
             id="g1932"
             style="stroke-width:2.47111">
            <path
               d="m 947.30408,467.2135 c 0.91906,-0.69194 6.25004,1.32084 8.95158,1.39571 2.44064,0.66108 7.53369,0.91426 8.38728,2.32228"
               style="fill:none;stroke:#000000;stroke-width:3.13514;stroke-linecap:round;stroke-linejoin:round;stroke-miterlimit:10;stroke-dasharray:none;stroke-opacity:1"
               id="path1934" />
          </g>
        </g>
        <g
           id="g1936"
           transform="matrix(1,0,0,-1,0,792)"
           style="stroke-width:2.47111">
          <g
             id="g1938"
             style="stroke-width:2.47111">
            <path
               d="m 827.81879,523.63019 c 7.44381,-2.39653 14.67801,-5.36749 21.93991,-8.12518 8.63996,-2.68391 16.95444,-6.33738 25.71868,-8.61079 7.6422,-3.42799 16.1523,-4.64484 23.5568,-8.52797 0.59096,-0.27298 1.0082,-0.91688 1.74646,-0.59627"
               style="fill:none;stroke:#000000;stroke-width:1.56758;stroke-linecap:round;stroke-linejoin:round;stroke-miterlimit:10;stroke-dasharray:none;stroke-opacity:1"
               id="path1940" />
          </g>
        </g>
        <g
           id="g1942"
           transform="matrix(1,0,0,-1,0,792)"
           style="stroke-width:2.47111">
          <g
             id="g1944"
             style="stroke-width:2.47111">
            <path
               d="m 908.14447,495.62314 c 7.46231,4.09412 15.45876,6.89249 23.46199,9.66263 11.52733,3.99107 23.03707,8.12531 34.78586,11.42312 12.40097,2.67414 24.9219,5.22861 37.06858,8.66239 0.3368,0.0241 3.4889,0.58535 2.0423,0.29624"
               style="fill:none;stroke:#000000;stroke-width:1.56758;stroke-linecap:round;stroke-linejoin:round;stroke-miterlimit:10;stroke-dasharray:none;stroke-opacity:1"
               id="path1946" />
          </g>
        </g>
        <g
           id="g1948"
           transform="matrix(1,0,0,-1,0,792)"
           style="stroke-width:2.47111">
          <g
             id="g1950"
             style="stroke-width:2.47111">
            <path
               d="m 915.39532,555.15491 c 9.04709,-3.06241 18.21858,-5.8662 27.5306,-8.07318 7.96825,-2.263 15.75257,-5.07898 23.86766,-6.75611 11.59496,-4.56216 23.92001,-6.42423 35.91882,-9.48028"
               style="fill:none;stroke:#000000;stroke-width:1.56758;stroke-linecap:round;stroke-linejoin:round;stroke-miterlimit:10;stroke-dasharray:none;stroke-opacity:1"
               id="path1952" />
          </g>
        </g>
        <g
           id="g1954"
           transform="matrix(1,0,0,-1,0,792)"
           style="stroke-width:2.47111">
          <g
             id="g1956"
             style="stroke-width:2.47111">
            <path
               d="m 845.13361,502.01862 c 3.855,-6.9148 -0.79992,-14.66152 1.8312,-21.80809"
               style="fill:none;stroke:#000000;stroke-width:1.56758;stroke-linecap:round;stroke-linejoin:round;stroke-miterlimit:10;stroke-dasharray:none;stroke-opacity:1"
               id="path1958" />
          </g>
        </g>
        <g
           id="g1960"
           transform="matrix(1,0,0,-1,0,792)"
           style="stroke-width:2.47111">
          <g
             id="g1962"
             style="stroke-width:2.47111">
            <path
               d="m 816.3125,513.42804 c -0.44472,-2.51909 -2.22638,-12.59504 -2.67249,-15.11392"
               style="fill:none;stroke:#000000;stroke-width:1.56758;stroke-linecap:round;stroke-linejoin:round;stroke-miterlimit:10;stroke-dasharray:none;stroke-opacity:1"
               id="path1964" />
          </g>
        </g>
        <g
           id="g1966"
           transform="matrix(1,0,0,-1,0,792)"
           style="stroke-width:2.47111">
          <g
             id="g1968"
             style="stroke-width:2.47111">
            <path
               d="m 789.15686,528.40656 c 0.10398,-2.52494 0.5178,-12.62475 0.62073,-15.14972"
               style="fill:none;stroke:#000000;stroke-width:1.56758;stroke-linecap:round;stroke-linejoin:round;stroke-miterlimit:10;stroke-dasharray:none;stroke-opacity:1"
               id="path1970" />
          </g>
        </g>
      </g>
    </g>
  </g>
</svg>
