<?xml version="1.0" encoding="UTF-8" standalone="no"?>
<!-- Created by Ashley Blewer - This work is licensed under a Creative Commons Attribution 4.0 International License -->

<svg width="544" height="480" viewBox="0 0 143.93334 127" version="1.1" id="svg2490" inkscape:version="1.1.2 (08b2f3d93c, 2022-04-05)" sodipodi:docname="1971-umatic-5.svg"
   xmlns:inkscape="http://www.inkscape.org/namespaces/inkscape"
   xmlns:sodipodi="http://sodipodi.sourceforge.net/DTD/sodipodi-0.dtd"
   xmlns="http://www.w3.org/2000/svg"
   xmlns:svg="http://www.w3.org/2000/svg">
   <sodipodi:namedview id="namedview2492" pagecolor="#ffffff" bordercolor="#666666" borderopacity="1.0" inkscape:pageshadow="2" inkscape:pageopacity="0.0" inkscape:pagecheckerboard="0" inkscape:document-units="mm" showgrid="false" units="px" inkscape:zoom="0.90583674" inkscape:cx="272.67607" inkscape:cy="177.18425" inkscape:window-width="1848" inkscape:window-height="1136" inkscape:window-x="72" inkscape:window-y="27" inkscape:window-maximized="1" inkscape:current-layer="layer1" />
   <defs id="defs2487" />
   <g inkscape:label="Layer 1" inkscape:groupmode="layer" id="layer1">
      <g id="g1423" transform="matrix(0.50151464,0,0,0.50151464,-321.09115,11.518642)">
         <g id="g496" transform="scale(1,-1)">
            <path d="m 732.965,-64.055 c -1.461,2.274 180.469,-30.539 180.469,-30.539 3.039,-0.054 9.351,-2.527 8.504,-5.785" style="fill:none;stroke:#000000;stroke-width:2.61538;stroke-linecap:round;stroke-linejoin:round;stroke-miterlimit:10;stroke-dasharray:none;stroke-opacity:1" id="path498" />
         </g>
         <g id="g500" transform="scale(1,-1)">
            <path d="M 732.965,-64.055 659.5,-91.699 c -11.215,-4.196 -15.332,-8.578 -12.562,-18.832 0,0 0.457,-17.121 6.574,-20.074" style="fill:none;stroke:#000000;stroke-width:2.61538;stroke-linecap:round;stroke-linejoin:round;stroke-miterlimit:10;stroke-dasharray:none;stroke-opacity:1" id="path502" />
         </g>
         <g id="g504" transform="scale(1,-1)">
            <path d="m 653.512,-130.605 63.582,-16.665 c 8.582,2.149 18.804,-0.355 27.691,-2.074 l 36.289,-10.144 c 2.153,-1.496 12.824,-4.375 14.266,-7.75 l 28.574,-8.938 c 0,0 19.809,-5.734 29.941,-6.25 6.059,1.051 12.645,4.125 19.118,7.156 l 44.765,45.723 c 3,8.418 2.789,17.418 5.032,25.996 0.152,3.203 -1.258,6.473 -4.54,7.86" style="fill:none;stroke:#000000;stroke-width:2.61538;stroke-linecap:round;stroke-linejoin:round;stroke-miterlimit:10;stroke-dasharray:none;stroke-opacity:1" id="path506" />
         </g>
         <g id="g508" transform="scale(1,-1)">
            <path d="m 674.281,-130.238 c -9.062,0.152 -1.152,21.476 1.203,8.679 -0.879,-2.398 1.582,-7.394 -1.656,-8.308" style="fill:none;stroke:#000000;stroke-width:2.61538;stroke-linecap:round;stroke-linejoin:round;stroke-miterlimit:10;stroke-dasharray:none;stroke-opacity:1" id="path510" />
         </g>
         <g id="g512" transform="scale(1,-1)">
            <path d="m 692.227,-140.805 c -2.907,10.543 -2.305,33.465 -2.305,33.465 l 137.019,-28.027 c -10.488,4.562 -7.808,-41.711 -8.089,-39.16" style="fill:none;stroke:#000000;stroke-width:2.61538;stroke-linecap:round;stroke-linejoin:round;stroke-miterlimit:10;stroke-dasharray:none;stroke-opacity:1" id="path514" />
         </g>
         <g id="g516" transform="scale(1,-1)">
            <path d="m 696.918,-97.602 c 7.84,5.938 23.609,9.075 28.723,11.856 l 37.339,17.144" style="fill:none;stroke:#000000;stroke-width:2.61538;stroke-linecap:round;stroke-linejoin:round;stroke-miterlimit:10;stroke-dasharray:none;stroke-opacity:1" id="path518" />
         </g>
         <g id="g520" transform="scale(1,-1)">
            <path d="m 696.918,-97.602 159.969,-35.753" style="fill:none;stroke:#000000;stroke-width:2.61538;stroke-linecap:round;stroke-linejoin:round;stroke-miterlimit:10;stroke-dasharray:none;stroke-opacity:1" id="path522" />
         </g>
         <g id="g524" transform="scale(1,-1)">
            <path d="m 856.887,-133.355 52.425,38.585" style="fill:none;stroke:#000000;stroke-width:2.61538;stroke-linecap:round;stroke-linejoin:round;stroke-miterlimit:10;stroke-dasharray:none;stroke-opacity:1" id="path526" />
         </g>
         <g id="g528" transform="scale(1,-1)">
            <path d="m 921.938,-100.379 -48.95,-43.766" style="fill:none;stroke:#000000;stroke-width:2.61538;stroke-linecap:round;stroke-linejoin:round;stroke-miterlimit:10;stroke-dasharray:none;stroke-opacity:1" id="path530" />
         </g>
         <g id="g532" transform="scale(1,-1)">
            <path d="m 872.988,-144.145 -0.015,-31.125" style="fill:none;stroke:#000000;stroke-width:2.61538;stroke-linecap:round;stroke-linejoin:round;stroke-miterlimit:10;stroke-dasharray:none;stroke-opacity:1" id="path534" />
         </g>
         <g id="g536" transform="scale(1,-1)">
            <path d="m 856.305,-181.953 c 1.82,11.867 0,23.816 0.515,35.687 l 0.172,-0.304" style="fill:none;stroke:#000000;stroke-width:2.61538;stroke-linecap:round;stroke-linejoin:round;stroke-miterlimit:10;stroke-dasharray:none;stroke-opacity:1" id="path538" />
         </g>
         <g id="g540" transform="scale(1,-1)">
            <path d="m 872.988,-144.145 -16.168,-2.121" style="fill:none;stroke:#000000;stroke-width:2.61538;stroke-linecap:round;stroke-linejoin:round;stroke-miterlimit:10;stroke-dasharray:none;stroke-opacity:1" id="path542" />
         </g>
         <g id="g544" transform="scale(1,-1)">
            <path d="m 856.82,-146.266 -33.847,7.125" style="fill:none;stroke:#000000;stroke-width:2.61538;stroke-linecap:round;stroke-linejoin:round;stroke-miterlimit:10;stroke-dasharray:none;stroke-opacity:1" id="path546" />
         </g>
         <g id="g548" transform="scale(1,-1)">
            <path d="m 689.922,-107.34 c -10.012,2.192 -20.156,4.738 -30.52,5.539 -3.984,0.731 -8.48,1.262 -12.199,1.934" style="fill:none;stroke:#000000;stroke-width:2.61538;stroke-linecap:round;stroke-linejoin:round;stroke-miterlimit:10;stroke-dasharray:none;stroke-opacity:1" id="path550" />
         </g>
         <g id="g660" transform="scale(1,-1)">
            <path d="m 720.527,-88.527 103.661,-20.887" style="fill:none;stroke:#000000;stroke-width:2.61538;stroke-linecap:round;stroke-linejoin:round;stroke-miterlimit:10;stroke-dasharray:none;stroke-opacity:1" id="path662" />
         </g>
         <g id="g664" transform="scale(1,-1)">
            <path d="m 807.625,-121.648 c 6.578,1.945 10.723,8.64 16.563,12.234" style="fill:none;stroke:#000000;stroke-width:2.61538;stroke-linecap:round;stroke-linejoin:round;stroke-miterlimit:10;stroke-dasharray:none;stroke-opacity:1" id="path666" />
         </g>
         <g id="g668" transform="scale(1,-1)">
            <path d="m 827.32,-118.508 c 1.844,0.07 3.637,-0.433 5.453,-0.64" style="fill:none;stroke:#000000;stroke-width:2.61538;stroke-linecap:round;stroke-linejoin:round;stroke-miterlimit:10;stroke-dasharray:none;stroke-opacity:1" id="path670" />
         </g>
         <g id="g672" transform="scale(1,-1)">
            <path d="m 827.805,-118.902 4.73,-7.7" style="fill:none;stroke:#000000;stroke-width:2.61538;stroke-linecap:round;stroke-linejoin:round;stroke-miterlimit:10;stroke-dasharray:none;stroke-opacity:1" id="path674" />
         </g>
         <g id="g676" transform="scale(1,-1)">
            <path d="m 832.766,-127.203 17.98,4.383" style="fill:none;stroke:#000000;stroke-width:2.61538;stroke-linecap:round;stroke-linejoin:round;stroke-miterlimit:10;stroke-dasharray:none;stroke-opacity:1" id="path678" />
         </g>
         <g id="g680" transform="scale(1,-1)">
            <path d="m 850.746,-122.82 c -1.519,1.043 -2.168,-0.215 -3.832,0.578" style="fill:none;stroke:#000000;stroke-width:2.61538;stroke-linecap:round;stroke-linejoin:round;stroke-miterlimit:10;stroke-dasharray:none;stroke-opacity:1" id="path682" />
         </g>
         <g id="g684" transform="scale(1,-1)">
            <path d="m 847.266,-121.777 c 0.101,0.738 -0.266,0.918 -0.399,1.683" style="fill:none;stroke:#000000;stroke-width:2.61538;stroke-linecap:round;stroke-linejoin:round;stroke-miterlimit:10;stroke-dasharray:none;stroke-opacity:1" id="path686" />
         </g>
         <g id="g688" transform="scale(1,-1)">
            <path d="m 846.867,-120.094 -12.258,2.727" style="fill:none;stroke:#000000;stroke-width:2.61538;stroke-linecap:round;stroke-linejoin:round;stroke-miterlimit:10;stroke-dasharray:none;stroke-opacity:1" id="path690" />
         </g>
         <g id="g692" transform="scale(1,-1)">
            <path d="m 834.648,-117.82 c -0.367,-0.321 -1.398,-1.133 -1.875,-1.328" style="fill:none;stroke:#000000;stroke-width:2.61538;stroke-linecap:round;stroke-linejoin:round;stroke-miterlimit:10;stroke-dasharray:none;stroke-opacity:1" id="path694" />
         </g>
         <g id="g696" transform="scale(1,-1)">
            <path d="m 759.105,-77.121 c 45.129,-5.941 88.782,-13.481 130.497,-22.461" style="fill:none;stroke:#000000;stroke-width:2.61538;stroke-linecap:round;stroke-linejoin:round;stroke-miterlimit:10;stroke-dasharray:none;stroke-opacity:1" id="path698" />
         </g>
      </g>
   </g>
</svg>
