<?xml version="1.0" encoding="UTF-8" standalone="no"?>
<!-- Created by Ashley Blewer - This work is licensed under a Creative Commons Attribution 4.0 International License -->

<svg
   width="544"
   height="480"
   viewBox="0 0 143.93334 127"
   version="1.1"
   id="svg2490"
   inkscape:version="1.2.2 (1:1.2.2+202212051552+b0a8486541)"
   sodipodi:docname="1971-hipac-2.svg"
   xmlns:inkscape="http://www.inkscape.org/namespaces/inkscape"
   xmlns:sodipodi="http://sodipodi.sourceforge.net/DTD/sodipodi-0.dtd"
   xmlns="http://www.w3.org/2000/svg"
   xmlns:svg="http://www.w3.org/2000/svg">
  <sodipodi:namedview
     id="namedview2492"
     pagecolor="#ffffff"
     bordercolor="#666666"
     borderopacity="1.0"
     inkscape:pageshadow="2"
     inkscape:pageopacity="0.0"
     inkscape:pagecheckerboard="0"
     inkscape:document-units="mm"
     showgrid="false"
     units="px"
     inkscape:zoom="0.90583674"
     inkscape:cx="53.541657"
     inkscape:cy="253.35691"
     inkscape:window-width="1846"
     inkscape:window-height="1136"
     inkscape:window-x="0"
     inkscape:window-y="0"
     inkscape:window-maximized="1"
     inkscape:current-layer="g4731"
     inkscape:showpageshadow="2"
     inkscape:deskcolor="#d1d1d1" />
  <defs
     id="defs2487" />
  <g
     inkscape:label="Layer 1"
     inkscape:groupmode="layer"
     id="layer1">
    <g
       id="g4731"
       transform="matrix(0.32961229,0,0,0.32903008,-241.78905,1.73126)"
       style="stroke-width:2.68698">
      <g
         id="g104528"
         transform="matrix(1,0,0,-1,0,792)"
         style="stroke-width:2.68698">
        <g
           id="g104530"
           style="stroke-width:2.68698" />
      </g>
      <g
         id="g104996"
         transform="matrix(1,0,0,-1,0,792)"
         style="stroke-width:2.68698">
        <g
           id="g104998"
           style="stroke-width:2.68698" />
      </g>
      <g
         id="g4270"
         transform="matrix(1.3157671,0,0,1.3168016,-288.8474,-561.28172)"
         style="stroke-width:2.47111">
        <g
           id="g1636"
           transform="matrix(1,0,0,-1,0,792)"
           style="stroke-width:2.47111">
          <g
             id="g1638"
             style="stroke-width:2.47111">
            <path
               d="m 855.1759,98.010933 c -11.33637,-2.934162 -8.22007,11.378977 -2.98932,17.179247"
               style="fill:none;stroke:#000000;stroke-width:3.13514;stroke-linecap:round;stroke-linejoin:round;stroke-miterlimit:10;stroke-dasharray:none;stroke-opacity:1"
               id="path1640"
               sodipodi:nodetypes="cc" />
          </g>
        </g>
        <g
           id="g1642"
           transform="matrix(1,0,0,-1,0,792)"
           style="stroke-width:2.47111">
          <g
             id="g1644"
             style="stroke-width:2.47111">
            <path
               d="m 852.18658,115.19018 c -0.69233,14.09985 -1.02493,31.67724 -2.19836,45.75207"
               style="fill:none;stroke:#000000;stroke-width:3.13514;stroke-linecap:round;stroke-linejoin:round;stroke-miterlimit:10;stroke-dasharray:none;stroke-opacity:1"
               id="path1646"
               sodipodi:nodetypes="cc" />
          </g>
        </g>
        <g
           id="g1648"
           transform="matrix(1,0,0,-1,0,792)"
           style="stroke-width:2.47111">
          <g
             id="g1650"
             style="stroke-width:2.47111">
            <path
               d="m 849.98822,160.94225 c -10.7571,17.21598 -3.96254,38.25158 -6.34114,57.09854 0.31677,1.01628 0.63353,2.03255 0.9503,3.04883"
               style="fill:none;stroke:#000000;stroke-width:3.13514;stroke-linecap:round;stroke-linejoin:round;stroke-miterlimit:10;stroke-dasharray:none;stroke-opacity:1"
               id="path1652" />
          </g>
        </g>
        <g
           id="g1654"
           transform="matrix(1,0,0,-1,0,792)"
           style="stroke-width:2.47111">
          <g
             id="g1656"
             style="stroke-width:2.47111">
            <path
               d="m 844.44867,221.83925 c 2.81067,-3.54556 3.03064,3.38421 0.12445,2.22837"
               style="fill:none;stroke:#000000;stroke-width:3.13514;stroke-linecap:round;stroke-linejoin:round;stroke-miterlimit:10;stroke-dasharray:none;stroke-opacity:1"
               id="path1658" />
          </g>
        </g>
        <g
           id="g1660"
           transform="matrix(1,0,0,-1,0,792)"
           style="stroke-width:2.47111">
          <g
             id="g1662"
             style="stroke-width:2.47111">
            <path
               d="m 843.64708,218.04079 c -0.83797,33.68315 -2.56769,81.50254 -3.55609,115.18147"
               style="fill:none;stroke:#000000;stroke-width:3.13514;stroke-linecap:round;stroke-linejoin:round;stroke-miterlimit:10;stroke-dasharray:none;stroke-opacity:1"
               id="path1664"
               sodipodi:nodetypes="cc" />
          </g>
        </g>
        <g
           id="g1666"
           transform="matrix(1,0,0,-1,0,792)"
           style="stroke-width:2.47111">
          <g
             id="g1668"
             style="stroke-width:2.47111">
            <path
               d="m 840.84222,334.52954 c 1.98094,4.53067 10.63346,3.47313 13.4065,7.52371"
               style="fill:none;stroke:#000000;stroke-width:3.13514;stroke-linecap:round;stroke-linejoin:round;stroke-miterlimit:10;stroke-dasharray:none;stroke-opacity:1"
               id="path1670"
               sodipodi:nodetypes="cc" />
          </g>
        </g>
        <g
           id="g1672"
           transform="matrix(1,0,0,-1,0,792)"
           style="stroke-width:2.47111">
          <g
             id="g1674"
             style="stroke-width:2.47111">
            <path
               d="m 854.24872,342.05325 c 36.90855,0.98795 86.19118,6.00947 123.12982,5.64692"
               style="fill:none;stroke:#000000;stroke-width:3.13514;stroke-linecap:round;stroke-linejoin:round;stroke-miterlimit:10;stroke-dasharray:none;stroke-opacity:1"
               id="path1676"
               sodipodi:nodetypes="cc" />
          </g>
        </g>
        <g
           id="g1678"
           transform="matrix(1,0,0,-1,0,792)"
           style="stroke-width:2.47111">
          <g
             id="g1680"
             style="stroke-width:2.47111">
            <path
               d="m 977.37854,347.70017 c 6.22973,-8.53483 22.95236,-11.81214 32.25776,-7.75619 2.7639,1.41521 4.6192,4.46137 4.2885,7.6027"
               style="fill:none;stroke:#000000;stroke-width:3.13514;stroke-linecap:round;stroke-linejoin:round;stroke-miterlimit:10;stroke-dasharray:none;stroke-opacity:1"
               id="path1682"
               sodipodi:nodetypes="ccc" />
          </g>
        </g>
        <g
           id="g1684"
           transform="matrix(1,0,0,-1,0,792)"
           style="stroke-width:2.47111">
          <g
             id="g1686"
             style="stroke-width:2.47111">
            <path
               d="m 1013.9248,347.54668 c 6.3396,-0.002 14.5154,1.14422 20.8604,0.89354"
               style="fill:none;stroke:#000000;stroke-width:3.13514;stroke-linecap:round;stroke-linejoin:round;stroke-miterlimit:10;stroke-dasharray:none;stroke-opacity:1"
               id="path1688"
               sodipodi:nodetypes="cc" />
          </g>
        </g>
        <g
           id="g1690"
           transform="matrix(1,0,0,-1,0,792)"
           style="stroke-width:2.47111">
          <g
             id="g1692"
             style="stroke-width:2.47111">
            <path
               d="m 1035.5922,348.85919 c 1.2611,-4.5494 5.0767,-7.6221 8.0854,-11.00839"
               style="fill:none;stroke:#000000;stroke-width:3.13514;stroke-linecap:round;stroke-linejoin:round;stroke-miterlimit:10;stroke-dasharray:none;stroke-opacity:1"
               id="path1694" />
          </g>
        </g>
        <g
           id="g1696"
           transform="matrix(1,0,0,-1,0,792)"
           style="stroke-width:2.47111">
          <g
             id="g1698"
             style="stroke-width:2.47111">
            <path
               d="m 1043.6776,337.8508 c 0,0 -2.1615,-71.86407 1.4349,-103.59067"
               style="fill:none;stroke:#000000;stroke-width:3.13514;stroke-linecap:round;stroke-linejoin:round;stroke-miterlimit:10;stroke-dasharray:none;stroke-opacity:1"
               id="path1700"
               sodipodi:nodetypes="cc" />
          </g>
        </g>
        <g
           id="g1702"
           transform="matrix(1,0,0,-1,0,792)"
           style="stroke-width:2.47111">
          <g
             id="g1704"
             style="stroke-width:2.47111">
            <path
               d="m 1045.1125,234.26013 c -5.2434,0.91534 -3.6072,-8.51125 0.022,-6.71011"
               style="fill:none;stroke:#000000;stroke-width:3.13514;stroke-linecap:round;stroke-linejoin:round;stroke-miterlimit:10;stroke-dasharray:none;stroke-opacity:1"
               id="path1706"
               sodipodi:nodetypes="cc" />
          </g>
        </g>
        <g
           id="g1708"
           transform="matrix(1,0,0,-1,0,792)"
           style="stroke-width:2.47111">
          <g
             id="g1710"
             style="stroke-width:2.47111">
            <path
               d="m 1045.1343,227.55002 c 2.638,-14.55522 -2.9656,-39.21723 -0.6006,-53.79448"
               style="fill:none;stroke:#000000;stroke-width:3.13514;stroke-linecap:round;stroke-linejoin:round;stroke-miterlimit:10;stroke-dasharray:none;stroke-opacity:1"
               id="path1712"
               sodipodi:nodetypes="cc" />
          </g>
        </g>
        <g
           id="g1714"
           transform="matrix(1,0,0,-1,0,792)"
           style="stroke-width:2.47111">
          <g
             id="g1716"
             style="stroke-width:2.47111">
            <path
               d="m 1044.5337,173.75554 c -1.0459,-2.04333 -2.0745,-4.09557 -3.0857,-6.15627"
               style="fill:none;stroke:#000000;stroke-width:3.13514;stroke-linecap:round;stroke-linejoin:round;stroke-miterlimit:10;stroke-dasharray:none;stroke-opacity:1"
               id="path1718" />
          </g>
        </g>
        <g
           id="g1720"
           transform="matrix(1,0,0,-1,0,792)"
           style="stroke-width:2.47111">
          <g
             id="g1722"
             style="stroke-width:2.47111">
            <path
               d="m 1041.448,167.59927 c 0.8361,-17.53025 -5.4096,-42.04468 1.7269,-58.70183"
               style="fill:none;stroke:#000000;stroke-width:3.13514;stroke-linecap:round;stroke-linejoin:round;stroke-miterlimit:10;stroke-dasharray:none;stroke-opacity:1"
               id="path1724"
               sodipodi:nodetypes="cc" />
          </g>
        </g>
        <g
           id="g1726"
           transform="matrix(1,0,0,-1,0,792)"
           style="stroke-width:2.47111">
          <g
             id="g1728"
             style="stroke-width:2.47111">
            <path
               d="m 854.69269,99.124931 c 51.16862,1.785489 102.13629,7.831269 153.37981,7.741709 11.7123,0.457 23.4123,1.18482 35.1024,2.0308"
               style="fill:none;stroke:#000000;stroke-width:3.13514;stroke-linecap:round;stroke-linejoin:round;stroke-miterlimit:10;stroke-dasharray:none;stroke-opacity:1"
               id="path1730" />
          </g>
        </g>
        <g
           id="g1732"
           transform="matrix(1,0,0,-1,0,792)"
           style="stroke-width:2.47111">
          <g
             id="g1734"
             style="stroke-width:2.47111">
            <path
               d="m 857.6062,299.80048 c 51.01179,5.15863 102.3595,3.93795 153.5184,5.4492 2.6683,0.25492 5.3308,0.57373 7.982,0.96992"
               style="fill:none;stroke:#000000;stroke-width:1.56758;stroke-linecap:round;stroke-linejoin:round;stroke-miterlimit:10;stroke-dasharray:none;stroke-opacity:1"
               id="path1736" />
          </g>
        </g>
        <g
           id="g1738"
           transform="matrix(1,0,0,-1,0,792)"
           style="stroke-width:2.47111">
          <g
             id="g1740"
             style="stroke-width:2.47111">
            <path
               d="m 847.25464,327.03918 c 3.53185,-43.02426 5.87043,-86.16536 6.23581,-129.32472 0.8629,-10.79264 2.32085,-21.5762 1.99513,-32.42682"
               style="fill:none;stroke:#000000;stroke-width:1.56758;stroke-linecap:round;stroke-linejoin:round;stroke-miterlimit:10;stroke-dasharray:none;stroke-opacity:1"
               id="path1742" />
          </g>
        </g>
        <g
           id="g1744"
           transform="matrix(1,0,0,-1,0,792)"
           style="stroke-width:2.47111">
          <g
             id="g1746"
             style="stroke-width:2.47111">
            <path
               d="m 844.05731,225.72205 c 5.66793,1.68458 7.15611,-11.77073 0.32068,-7.73489"
               style="fill:none;stroke:#000000;stroke-width:1.56758;stroke-linecap:round;stroke-linejoin:round;stroke-miterlimit:10;stroke-dasharray:none;stroke-opacity:1"
               id="path1748" />
          </g>
        </g>
        <g
           id="g1750"
           transform="matrix(1,0,0,-1,0,792)"
           style="stroke-width:2.47111">
          <g
             id="g1752"
             style="stroke-width:2.47111">
            <path
               d="m 845.77338,334.0928 c 5.04779,-3.06884 11.16693,2.73484 8.47534,7.96045"
               style="fill:none;stroke:#000000;stroke-width:1.56758;stroke-linecap:round;stroke-linejoin:round;stroke-miterlimit:10;stroke-dasharray:none;stroke-opacity:1"
               id="path1754" />
          </g>
        </g>
        <g
           id="g1756"
           transform="matrix(1,0,0,-1,0,792)"
           style="stroke-width:2.47111">
          <g
             id="g1758"
             style="stroke-width:2.47111">
            <path
               d="m 860.10388,343.21365 c 0.0426,-1.40662 0.0853,-2.81323 0.12791,-4.21985"
               style="fill:none;stroke:#000000;stroke-width:1.56758;stroke-linecap:round;stroke-linejoin:round;stroke-miterlimit:10;stroke-dasharray:none;stroke-opacity:1"
               id="path1760" />
          </g>
        </g>
        <g
           id="g1762"
           transform="matrix(1,0,0,-1,0,792)"
           style="stroke-width:2.47111">
          <g
             id="g1764"
             style="stroke-width:2.47111">
            <path
               d="m 967.23533,345.97911 c -1.48769,-9.73688 13.96307,-9.71556 9.25962,-0.5385"
               style="fill:none;stroke:#000000;stroke-width:1.56758;stroke-linecap:round;stroke-linejoin:round;stroke-miterlimit:10;stroke-dasharray:none;stroke-opacity:1"
               id="path1766"
               sodipodi:nodetypes="cc" />
          </g>
        </g>
        <g
           id="g1768"
           transform="matrix(1,0,0,-1,0,792)"
           style="stroke-width:2.47111">
          <g
             id="g1770"
             style="stroke-width:2.47111">
            <path
               d="m 1036.1039,338.81451 c 1.1352,-53.51683 1.155,-107.07276 1.3745,-160.58567 -1.1726,-22.50447 -1.9269,-45.07108 -0.7084,-67.59108"
               style="fill:none;stroke:#000000;stroke-width:1.56758;stroke-linecap:round;stroke-linejoin:round;stroke-miterlimit:10;stroke-dasharray:none;stroke-opacity:1"
               id="path1772" />
          </g>
        </g>
        <g
           id="g1774"
           transform="matrix(1,0,0,-1,0,792)"
           style="stroke-width:2.47111">
          <g
             id="g1776"
             style="stroke-width:2.47111">
            <path
               d="m 1028.1019,302.0069 c 2.998,-52.68668 -4.5059,-105.66572 2.6679,-158.1652 0.3421,-9.7245 0.3709,-19.47143 1.3257,-29.16353"
               style="fill:none;stroke:#000000;stroke-width:1.56758;stroke-linecap:round;stroke-linejoin:round;stroke-miterlimit:10;stroke-dasharray:none;stroke-opacity:1"
               id="path1778" />
          </g>
        </g>
        <g
           id="g1780"
           transform="matrix(1,0,0,-1,0,792)"
           style="stroke-width:2.47111">
          <g
             id="g1782"
             style="stroke-width:2.47111">
            <path
               d="m 862.61243,244.70952 c 53.86482,-3.96251 107.45658,5.99103 161.26687,6.12418"
               style="fill:none;stroke:#000000;stroke-width:1.56758;stroke-linecap:round;stroke-linejoin:round;stroke-miterlimit:10;stroke-dasharray:none;stroke-opacity:1"
               id="path1784" />
          </g>
        </g>
        <g
           id="g1786"
           transform="matrix(1,0,0,-1,0,792)"
           style="stroke-width:2.47111">
          <g
             id="g1788"
             style="stroke-width:2.47111">
            <path
               d="m 939.95044,106.62894 c -5.61083,10.13112 2.65568,25.67406 14.9764,22.42086 9.45427,-2.66891 9.70267,-14.47655 7.61487,-22.27338"
               style="fill:none;stroke:#000000;stroke-width:1.56758;stroke-linecap:round;stroke-linejoin:round;stroke-miterlimit:10;stroke-dasharray:none;stroke-opacity:1"
               id="path1790" />
          </g>
        </g>
        <g
           id="g1792"
           transform="matrix(1,0,0,-1,0,792)"
           style="stroke-width:2.47111">
          <g
             id="g1794"
             style="stroke-width:2.47111">
            <path
               d="m 867.77698,132.72145 c 52.98406,3.57874 106.10727,5.02781 159.00502,9.87246"
               style="fill:none;stroke:#000000;stroke-width:1.56758;stroke-linecap:round;stroke-linejoin:round;stroke-miterlimit:10;stroke-dasharray:none;stroke-opacity:1"
               id="path1796" />
          </g>
        </g>
      </g>
    </g>
  </g>
</svg>
