<?xml version="1.0" encoding="UTF-8" standalone="no"?>
<!-- Created by Ashley Blewer - This work is licensed under a Creative Commons Attribution 4.0 International License -->

<svg width="544" height="480" viewBox="0 0 143.93334 127" version="1.1" id="svg2490" inkscape:version="1.1.2 (08b2f3d93c, 2022-04-05)" sodipodi:docname="1971-umatic-1.svg"
   xmlns:inkscape="http://www.inkscape.org/namespaces/inkscape"
   xmlns:sodipodi="http://sodipodi.sourceforge.net/DTD/sodipodi-0.dtd"
   xmlns="http://www.w3.org/2000/svg"
   xmlns:svg="http://www.w3.org/2000/svg">
   <sodipodi:namedview id="namedview2492" pagecolor="#ffffff" bordercolor="#666666" borderopacity="1.0" inkscape:pageshadow="2" inkscape:pageopacity="0.0" inkscape:pagecheckerboard="0" inkscape:document-units="mm" showgrid="false" units="px" inkscape:zoom="0.90583674" inkscape:cx="272.67607" inkscape:cy="177.18425" inkscape:window-width="1848" inkscape:window-height="1136" inkscape:window-x="72" inkscape:window-y="27" inkscape:window-maximized="1" inkscape:current-layer="layer1" />
   <defs id="defs2487" />
   <g inkscape:label="Layer 1" inkscape:groupmode="layer" id="layer1">
      <g id="g1544" transform="matrix(0.43308985,0,0,0.43376644,-107.78203,-59.034851)" style="stroke-width:0.813925">
         <g id="g22" transform="scale(1,-1)" style="stroke-width:0.813925">
            <path d="m 267.793,-348.004 c -1.301,5.121 0.035,143.613 -0.434,145.285 0.778,1.231 1.051,-0.109 1.786,1.157" style="fill:none;stroke:#000000;stroke-width:2.12872;stroke-linecap:round;stroke-linejoin:round;stroke-miterlimit:10;stroke-dasharray:none;stroke-opacity:1" id="path24" />
         </g>
         <g id="g26" transform="scale(1,-1)" style="stroke-width:0.813925">
            <path d="m 562.855,-350.156 c 2.461,5.125 -1.261,142.644 -1.261,142.644" style="fill:none;stroke:#000000;stroke-width:2.12872;stroke-linecap:round;stroke-linejoin:round;stroke-miterlimit:10;stroke-dasharray:none;stroke-opacity:1" id="path28" />
         </g>
         <g id="g30" transform="scale(1,-1)" style="stroke-width:0.813925">
            <path d="m 561.594,-207.512 c -0.239,8.285 -0.18,6.723 -20.266,7.11 0,0 -255.883,0.203 -272.183,-1.16" style="fill:none;stroke:#000000;stroke-width:2.12872;stroke-linecap:round;stroke-linejoin:round;stroke-miterlimit:10;stroke-dasharray:none;stroke-opacity:1" id="path32" />
         </g>
         <g id="g34" transform="scale(1,-1)" style="stroke-width:0.813925">
            <path d="m 562.855,-350.156 c -0.464,-0.156 -6.039,-0.969 -7.144,-0.68 l -280.938,-0.559 c -1.89,0.293 -5.312,0.231 -7.132,1.586 -0.301,0.016 -0.543,2.098 0.152,1.805" style="fill:none;stroke:#000000;stroke-width:2.12872;stroke-linecap:round;stroke-linejoin:round;stroke-miterlimit:10;stroke-dasharray:none;stroke-opacity:1" id="path36" />
         </g>
         <g id="g38" transform="scale(1,-1)" style="stroke-width:0.813925">
            <path d="m 272.562,-211.32 c -0.136,-0.305 -0.218,0.05 -0.019,-0.082 l 24.758,-0.422 c 0,0 0.519,-11.309 0.015,-12.637 l -23.675,-0.512 -1.403,12.848" style="fill:none;stroke:#000000;stroke-width:2.12872;stroke-linecap:round;stroke-linejoin:round;stroke-miterlimit:10;stroke-dasharray:none;stroke-opacity:1" id="path40" />
         </g>
         <g id="g42" transform="scale(1,-1)" style="stroke-width:0.813925">
            <path d="m 303.18,-223.707 -0.231,12.074 22.895,0.113 0.566,-12.992 -23.23,0.805" style="fill:none;stroke:#000000;stroke-width:2.12872;stroke-linecap:round;stroke-linejoin:round;stroke-miterlimit:10;stroke-dasharray:none;stroke-opacity:1" id="path44" />
         </g>
         <g id="g46" transform="scale(1,-1)" style="stroke-width:0.813925">
            <path d="m 331.305,-225.234 -0.278,13.39 23.418,-0.172 0.914,-13.25 -23.675,0.215 c 0.328,-0.019 -0.059,0.356 0,0" style="fill:none;stroke:#000000;stroke-width:2.12872;stroke-linecap:round;stroke-linejoin:round;stroke-miterlimit:10;stroke-dasharray:none;stroke-opacity:1" id="path48" />
         </g>
         <g id="g50" transform="scale(1,-1)" style="stroke-width:0.813925">
            <path d="m 283.777,-248.824 c -0.757,-0.465 -1.718,0.512 -2.675,1.433 -1.332,1.356 -1.707,4.297 0.523,5.414 1.961,1.313 5.23,-0.625 6.25,-2.55 1.016,-1.227 -0.512,-2.512 -1.094,-3.77 -2.64,-2.043 -7.293,-0.609 -8.472,2.672 0.168,4.344 6.058,4.879 9.203,2.777 1.676,-0.773 2.304,-2.859 2.066,-4.25 -0.625,-3.234 -5.351,-4.109 -7.719,-2.531 -0.179,0.336 -0.355,0.375 -0.218,0.793" style="fill:none;stroke:#000000;stroke-width:2.12872;stroke-linecap:round;stroke-linejoin:round;stroke-miterlimit:10;stroke-dasharray:none;stroke-opacity:1" id="path52" />
         </g>
         <g id="g54" transform="scale(1,-1)" style="stroke-width:0.813925">
            <path d="m 310.5,-247.668 c 0,0 -2.18,2.949 -0.508,4.512 2.449,2.371 7.766,1.851 7.684,-2.055 0.012,-1.66 -0.824,-3.961 -3.262,-3.766 -2.797,-0.687 -5.937,1.047 -6.195,3.473 1.011,3.57 6.742,5.641 9.566,2.922 1.59,-1.586 -1.004,-5.727 -1.004,-5.727" style="fill:none;stroke:#000000;stroke-width:2.12872;stroke-linecap:round;stroke-linejoin:round;stroke-miterlimit:10;stroke-dasharray:none;stroke-opacity:1" id="path56" />
         </g>
         <g id="g58" transform="scale(1,-1)" style="stroke-width:0.813925">
            <path d="m 334.832,-248.473 c -0.672,-0.875 -1.144,-0.281 -2.488,-0.109 -1.449,0.902 -2.739,2.805 -1.207,4.492 1.168,1.324 4.035,1.223 5.445,-0.523 1.715,-1.754 0.254,-5.028 -2.441,-4.543 -2.758,-0.649 -5.496,2.328 -3.996,4.476 1.972,2.387 6.863,1.235 6.417,-2.152 -0.632,-3.035 -4.492,-4.137 -6.246,-1.527" style="fill:none;stroke:#000000;stroke-width:2.12872;stroke-linecap:round;stroke-linejoin:round;stroke-miterlimit:10;stroke-dasharray:none;stroke-opacity:1" id="path60" />
         </g>
         <g id="g62" transform="scale(1,-1)" style="stroke-width:0.813925">
            <path d="m 350.141,-249.281 c -0.243,-0.289 -0.028,-0.289 -1.11,0.109 -0.859,1.039 -1.957,1.625 -2.273,3.051 0.898,3.484 6.183,4.09 6.754,0.336 0.89,-2.555 -2.321,-4.684 -4.672,-3.645 -3.348,0.871 -2.32,7.692 1.68,6.231 3.011,-0.235 4.558,-3.184 2.558,-5.543 -1.187,-1.293 -3.558,-0.731 -4.859,0.258" style="fill:none;stroke:#000000;stroke-width:2.12872;stroke-linecap:round;stroke-linejoin:round;stroke-miterlimit:10;stroke-dasharray:none;stroke-opacity:1" id="path64" />
         </g>
         <g id="g66" transform="scale(1,-1)" style="stroke-width:0.813925">
            <path d="m 335.289,-257.652 0.223,-9.782 -5.5,-0.152 -0.051,9.82 c 0.508,-0.054 5.402,-0.312 5.328,0.114" style="fill:none;stroke:#000000;stroke-width:2.12872;stroke-linecap:round;stroke-linejoin:round;stroke-miterlimit:10;stroke-dasharray:none;stroke-opacity:1" id="path68" />
         </g>
         <g id="g70" transform="scale(1,-1)" style="stroke-width:0.813925">
            <path d="m 295.445,-257.711 c 1.403,0.039 5.887,0.66 6,1.004 -0.988,-0.055 -5.015,-0.32 -5.906,-0.621 -0.121,-0.176 2.504,0.23 3.664,0.191 1.77,0.227 2.293,0.305 2.715,-0.406 1.105,-0.965 0.379,-1.512 0.531,-3.277 -0.179,-0.848 -0.715,-2.723 -0.183,-4.047 0.156,-0.496 0.144,-1.723 -0.383,-2.094 0.027,-0.832 -0.582,-0.551 -1.891,-0.867 -1.601,-0.129 -3.113,0.422 -3.945,0.648 -0.762,0.414 -0.406,0.008 -0.871,0.903 -0.629,0.722 -0.035,2.355 -0.321,3.918 0.473,1.265 0.563,4.363 0.887,5.05 -0.539,0.395 0.406,0.926 -0.094,0.59 0.309,-0.176 -0.195,0.477 0.188,0.555 0.07,-0.09 0.109,-0.145 0.125,-0.18" style="fill:none;stroke:#000000;stroke-width:2.12872;stroke-linecap:round;stroke-linejoin:round;stroke-miterlimit:10;stroke-dasharray:none;stroke-opacity:1" id="path72" />
         </g>
         <g id="g74" transform="scale(1,-1)" style="stroke-width:0.813925">
            <path d="m 539.141,-215.602 14.789,-0.031 -0.512,-22.633 -14.949,0.075 0.672,22.589" style="fill:none;stroke:#000000;stroke-width:2.12872;stroke-linecap:round;stroke-linejoin:round;stroke-miterlimit:10;stroke-dasharray:none;stroke-opacity:1" id="path76" />
         </g>
         <g id="g78" transform="scale(1,-1)" style="stroke-width:0.813925">
            <path d="m 549.703,-254.594 c 0.746,-0.152 -0.043,-13.015 -0.043,-13.015 0,0 -6.039,0.246 -8.199,0.019 0.289,0.047 -0.336,0.012 -0.191,0.094 l -0.391,12.703 c 0.043,-0.172 0,0 0,0 0,0 8.437,0.117 8.223,0.117" style="fill:none;stroke:#000000;stroke-width:2.12872;stroke-linecap:round;stroke-linejoin:round;stroke-miterlimit:10;stroke-dasharray:none;stroke-opacity:1" id="path80" />
         </g>
         <g id="g82" transform="scale(1,-1)" style="stroke-width:0.813925">
            <path d="m 500.027,-253.953 c -0.261,1.16 0.606,-1.52 -0.035,-1.809 0.481,-0.418 -0.48,1.039 -0.394,1.731 0,-0.153 0.097,-0.344 0.254,-0.547" style="fill:none;stroke:#000000;stroke-width:2.12872;stroke-linecap:round;stroke-linejoin:round;stroke-miterlimit:10;stroke-dasharray:none;stroke-opacity:1" id="path84" />
         </g>
         <g id="g86" transform="scale(1,-1)" style="stroke-width:0.813925">
            <path d="m 488.805,-253.875 c -1.176,0.113 0.07,-0.289 -0.586,0.836 0.273,0.246 0.832,1.695 1.648,1.695 2.262,0.699 4.61,0.317 7.18,0.504 4.176,0.195 8.148,0.152 12.129,0.129 0.785,0.078 0.832,-0.07 1.14,-0.324 -0.148,-0.051 0.911,-1.473 0.657,-2.399 -0.035,0.063 -0.032,0.047 -0.012,0.004" style="fill:none;stroke:#000000;stroke-width:2.12872;stroke-linecap:round;stroke-linejoin:round;stroke-miterlimit:10;stroke-dasharray:none;stroke-opacity:1" id="path88" />
         </g>
         <g id="g90" transform="scale(1,-1)" style="stroke-width:0.813925">
            <path d="m 366.543,-236.914 -0.977,23.793" style="fill:none;stroke:#000000;stroke-width:2.12872;stroke-linecap:round;stroke-linejoin:round;stroke-miterlimit:10;stroke-dasharray:none;stroke-opacity:1" id="path92" />
         </g>
         <g id="g94" transform="scale(1,-1)" style="stroke-width:0.813925">
            <path d="m 365.566,-213.121 -6.191,3.707 c -0.102,0.082 0.035,-0.031 0,0" style="fill:none;stroke:#000000;stroke-width:2.12872;stroke-linecap:round;stroke-linejoin:round;stroke-miterlimit:10;stroke-dasharray:none;stroke-opacity:1" id="path96" />
         </g>
         <g id="g98" transform="scale(1,-1)" style="stroke-width:0.813925">
            <path d="m 367.371,-233.664 c 0,0 -3.68,-3.418 -3.906,-3.356 0.226,-0.062 -4.192,27.688 -4.192,27.688" style="fill:none;stroke:#000000;stroke-width:2.12872;stroke-linecap:round;stroke-linejoin:round;stroke-miterlimit:10;stroke-dasharray:none;stroke-opacity:1" id="path100" />
         </g>
         <g id="g102" transform="scale(1,-1)" style="stroke-width:0.813925">
            <path d="m 363.691,-237.082 163.25,-2.449" style="fill:none;stroke:#000000;stroke-width:2.12872;stroke-linecap:round;stroke-linejoin:round;stroke-miterlimit:10;stroke-dasharray:none;stroke-opacity:1" id="path104" />
         </g>
         <g id="g106" transform="scale(1,-1)" style="stroke-width:0.813925">
            <path d="m 526.941,-239.531 c -0.261,-0.051 0.145,0.074 -1.097,0.488 -1.93,0.863 -4.258,1.086 -6.211,1.914" style="fill:none;stroke:#000000;stroke-width:2.12872;stroke-linecap:round;stroke-linejoin:round;stroke-miterlimit:10;stroke-dasharray:none;stroke-opacity:1" id="path108" />
         </g>
         <g id="g110" transform="scale(1,-1)" style="stroke-width:0.813925">
            <path d="m 519.5,-236.184 -154.496,2.125" style="fill:none;stroke:#000000;stroke-width:2.12872;stroke-linecap:round;stroke-linejoin:round;stroke-miterlimit:10;stroke-dasharray:none;stroke-opacity:1" id="path112" />
         </g>
         <g id="g114" transform="scale(1,-1)" style="stroke-width:0.813925">
            <path d="m 359.375,-209.414 c 54.805,3.527 167.055,1.121 167.055,1.121 0,0 2.308,-30.16 0.511,-31.238" style="fill:none;stroke:#000000;stroke-width:2.12872;stroke-linecap:round;stroke-linejoin:round;stroke-miterlimit:10;stroke-dasharray:none;stroke-opacity:1" id="path116" />
         </g>
         <g id="g118" transform="scale(1,-1)" style="stroke-width:0.813925">
            <path d="m 520.457,-237.852 c 0.324,-0.773 -0.086,2.301 -0.125,3.25 -0.883,3.563 -1.867,11.2 -1.867,11.2 l -0.281,11.746" style="fill:none;stroke:#000000;stroke-width:2.12872;stroke-linecap:round;stroke-linejoin:round;stroke-miterlimit:10;stroke-dasharray:none;stroke-opacity:1" id="path120" />
         </g>
         <g id="g122" transform="scale(1,-1)" style="stroke-width:0.813925">
            <path d="m 415.324,-253.238 8.934,-0.028 -0.043,-13.656 -9.34,0.133 0.449,13.551" style="fill:none;stroke:#000000;stroke-width:2.12872;stroke-linecap:round;stroke-linejoin:round;stroke-miterlimit:10;stroke-dasharray:none;stroke-opacity:1" id="path124" />
         </g>
         <g id="g126" transform="scale(1,-1)" style="stroke-width:0.813925">
            <path d="m 433.715,-253.652 8.937,-0.028 -0.047,-13.656 -9.335,0.133 0.445,13.551" style="fill:none;stroke:#000000;stroke-width:2.12872;stroke-linecap:round;stroke-linejoin:round;stroke-miterlimit:10;stroke-dasharray:none;stroke-opacity:1" id="path128" />
         </g>
         <g id="g130" transform="scale(1,-1)" style="stroke-width:0.813925">
            <path d="m 451.074,-253.48 8.934,-0.028 -0.043,-13.656 -9.34,0.133 0.449,13.551" style="fill:none;stroke:#000000;stroke-width:2.12872;stroke-linecap:round;stroke-linejoin:round;stroke-miterlimit:10;stroke-dasharray:none;stroke-opacity:1" id="path132" />
         </g>
         <g id="g134" transform="scale(1,-1)" style="stroke-width:0.813925">
            <path d="m 398.371,-253.047 8.934,-0.031 -0.043,-13.652 -9.34,0.132 0.449,13.551" style="fill:none;stroke:#000000;stroke-width:2.12872;stroke-linecap:round;stroke-linejoin:round;stroke-miterlimit:10;stroke-dasharray:none;stroke-opacity:1" id="path136" />
         </g>
         <g id="g138" transform="scale(1,-0.684167)" style="stroke-width:0.813925">
            <path d="m 383.703,-428.606 8.938,-0.029 -0.047,-13.651 -9.34,0.131 0.449,13.549" style="fill:none;stroke:#000000;stroke-width:2.12872;stroke-linecap:round;stroke-linejoin:round;stroke-miterlimit:10;stroke-dasharray:none;stroke-opacity:1" id="path140" />
         </g>
         <g id="g142" transform="scale(1,-0.684167)" style="stroke-width:0.813925">
            <path d="m 401.039,-429.12 8.934,-0.029 -0.043,-13.651 -9.34,0.131 0.449,13.549" style="fill:none;stroke:#000000;stroke-width:2.12872;stroke-linecap:round;stroke-linejoin:round;stroke-miterlimit:10;stroke-dasharray:none;stroke-opacity:1" id="path144" />
         </g>
         <g id="g146" transform="scale(1,-0.684167)" style="stroke-width:0.813925">
            <path d="m 414.754,-429.269 8.937,-0.028 -0.046,-13.652 -9.34,0.132 0.449,13.548" style="fill:none;stroke:#000000;stroke-width:2.12872;stroke-linecap:round;stroke-linejoin:round;stroke-miterlimit:10;stroke-dasharray:none;stroke-opacity:1" id="path148" />
         </g>
         <g id="g150" transform="scale(1,-0.684167)" style="stroke-width:0.813925">
            <path d="m 350.684,-428.778 8.933,-0.028 -0.043,-13.657 -9.34,0.131 0.45,13.554" style="fill:none;stroke:#000000;stroke-width:2.12872;stroke-linecap:round;stroke-linejoin:round;stroke-miterlimit:10;stroke-dasharray:none;stroke-opacity:1" id="path152" />
         </g>
         <g id="g154" transform="scale(1,-0.684167)" style="stroke-width:0.813925">
            <path d="m 366.133,-428.161 8.937,-0.029 -0.047,-13.657 -9.339,0.137 0.449,13.549" style="fill:none;stroke:#000000;stroke-width:2.12872;stroke-linecap:round;stroke-linejoin:round;stroke-miterlimit:10;stroke-dasharray:none;stroke-opacity:1" id="path156" />
         </g>
         <g id="g158" transform="scale(1,-0.470843)" style="stroke-width:0.813925">
            <path d="m 380.336,-676.472 12.984,-0.041 -0.066,-19.845 -13.57,0.191 0.652,19.695" style="fill:none;stroke:#000000;stroke-width:3.09318;stroke-linecap:round;stroke-linejoin:round;stroke-miterlimit:10;stroke-dasharray:none;stroke-opacity:1" id="path160" />
         </g>
         <g id="g162" transform="scale(1,-0.684167)" style="stroke-width:0.813925">
            <path d="m 400.895,-466.061 8.933,-0.028 -0.043,-13.657 -9.34,0.131 0.45,13.554" style="fill:none;stroke:#000000;stroke-width:2.12872;stroke-linecap:round;stroke-linejoin:round;stroke-miterlimit:10;stroke-dasharray:none;stroke-opacity:1" id="path164" />
         </g>
         <g id="g166" transform="scale(1,-0.684167)" style="stroke-width:0.813925">
            <path d="m 414.609,-466.209 8.934,-0.029 -0.043,-13.657 -9.34,0.131 0.449,13.555" style="fill:none;stroke:#000000;stroke-width:2.12872;stroke-linecap:round;stroke-linejoin:round;stroke-miterlimit:10;stroke-dasharray:none;stroke-opacity:1" id="path168" />
         </g>
         <g id="g170" transform="scale(1,-0.684167)" style="stroke-width:0.813925">
            <path d="m 350.535,-465.724 8.938,-0.029 -0.047,-13.657 -9.34,0.137 0.449,13.549" style="fill:none;stroke:#000000;stroke-width:2.12872;stroke-linecap:round;stroke-linejoin:round;stroke-miterlimit:10;stroke-dasharray:none;stroke-opacity:1" id="path172" />
         </g>
         <g id="g174" transform="scale(1,-0.684167)" style="stroke-width:0.813925">
            <path d="m 365.988,-465.107 8.934,-0.023 -0.043,-13.657 -9.34,0.131 0.449,13.549" style="fill:none;stroke:#000000;stroke-width:2.12872;stroke-linecap:round;stroke-linejoin:round;stroke-miterlimit:10;stroke-dasharray:none;stroke-opacity:1" id="path176" />
         </g>
         <g id="g178" transform="scale(1,-1)" style="stroke-width:0.813925">
            <path d="m 440.188,-295.289 -0.434,16.242 112.625,-0.633 c 1.219,-0.203 0.262,0.391 0.918,-0.531 0,0 0.555,-14.766 0.734,-14.441 -0.16,-0.645 -0.156,-0.274 -0.179,-0.325 0.121,-0.261 0.058,0.176 -0.254,0.27" style="fill:none;stroke:#000000;stroke-width:2.12872;stroke-linecap:round;stroke-linejoin:round;stroke-miterlimit:10;stroke-dasharray:none;stroke-opacity:1" id="path180" />
         </g>
         <g id="g182" transform="scale(1,-1)" style="stroke-width:0.813925">
            <path d="m 440.188,-295.289 113.664,0.312" style="fill:none;stroke:#000000;stroke-width:2.12872;stroke-linecap:round;stroke-linejoin:round;stroke-miterlimit:10;stroke-dasharray:none;stroke-opacity:1" id="path184" />
         </g>
         <g id="g186" transform="scale(1,-1)" style="stroke-width:0.813925">
            <path d="m 447.703,-308.238 0.035,4.242 3.914,-0.004 -0.078,-4.047 -3.871,-0.191" style="fill:none;stroke:#000000;stroke-width:2.12872;stroke-linecap:round;stroke-linejoin:round;stroke-miterlimit:10;stroke-dasharray:none;stroke-opacity:1" id="path188" />
         </g>
         <g id="g190" transform="scale(1,-1)" style="stroke-width:0.813925">
            <path d="m 459.098,-304.176 0.035,-4.242 3.914,0.004 -0.078,4.047 -3.871,0.191" style="fill:none;stroke:#000000;stroke-width:2.12872;stroke-linecap:round;stroke-linejoin:round;stroke-miterlimit:10;stroke-dasharray:none;stroke-opacity:1" id="path192" />
         </g>
         <g id="g194" transform="scale(1,-1)" style="stroke-width:0.813925">
            <path d="m 470.926,-304.332 0.031,-4.242 3.914,0.004 -0.078,4.047 -3.867,0.191" style="fill:none;stroke:#000000;stroke-width:2.12872;stroke-linecap:round;stroke-linejoin:round;stroke-miterlimit:10;stroke-dasharray:none;stroke-opacity:1" id="path196" />
         </g>
         <g id="g198" transform="scale(1,-1)" style="stroke-width:0.813925">
            <path d="m 456.012,-322.008 12.386,-0.062 -0.289,-10.492 -12.117,0.527 0.02,10.027" style="fill:none;stroke:#000000;stroke-width:2.12872;stroke-linecap:round;stroke-linejoin:round;stroke-miterlimit:10;stroke-dasharray:none;stroke-opacity:1" id="path200" />
         </g>
         <g id="g202" transform="scale(1,-1)" style="stroke-width:0.813925">
            <path d="m 509.23,-306.16 c 5.059,2.887 11.336,3.137 16.793,1.281 6.438,-1.082 12.754,-5.715 14.157,-12.336 0.777,-3.875 -0.805,-7.703 -2.164,-11.262 -2.348,-5.378 -6.008,-10.515 -11.25,-13.371 -11.704,-4.644 -24.715,5.45 -26.051,12.317 -1.449,12.07 0.113,17.14 8.515,23.371" style="fill:none;stroke:#000000;stroke-width:2.12872;stroke-linecap:round;stroke-linejoin:round;stroke-miterlimit:10;stroke-dasharray:none;stroke-opacity:1" id="path204" />
         </g>
         <g id="g206" transform="scale(1,-1)" style="stroke-width:0.813925">
            <path d="m 288.508,-288.504 c -0.563,0.07 -0.121,-0.129 -0.199,0.047 0.496,0.137 0.886,0.293 0.437,0.109 -0.289,0.082 -0.226,-0.347 -0.004,0.426 -0.086,0.031 0.324,-0.172 -0.215,0.086" style="fill:none;stroke:#000000;stroke-width:2.12872;stroke-linecap:round;stroke-linejoin:round;stroke-miterlimit:10;stroke-dasharray:none;stroke-opacity:1" id="path208" />
         </g>
         <g id="g210" transform="scale(1,-1)" style="stroke-width:0.813925">
            <path d="m 299.328,-287.84 c -1.172,-0.074 -0.176,-0.203 -0.199,-0.176 -0.781,-0.574 -2.359,0.821 -0.918,0.797 1.148,0.164 0.207,-1.09 0.117,-0.625 -0.183,0.039 -0.027,0.012 -0.043,0.039" style="fill:none;stroke:#000000;stroke-width:2.12872;stroke-linecap:round;stroke-linejoin:round;stroke-miterlimit:10;stroke-dasharray:none;stroke-opacity:1" id="path212" />
         </g>
         <g id="g214" transform="scale(1,-1)" style="stroke-width:0.813925">
            <path d="m 311.121,-287.945 c 0.067,-0.375 -0.109,-0.321 -0.312,-0.317 -0.567,0.102 -1.602,0.102 -0.641,0.621 0.66,0.203 0.918,0.465 0.711,-0.386 0.32,-0.325 -0.652,-0.239 -0.941,-0.11" style="fill:none;stroke:#000000;stroke-width:2.12872;stroke-linecap:round;stroke-linejoin:round;stroke-miterlimit:10;stroke-dasharray:none;stroke-opacity:1" id="path216" />
         </g>
         <g id="g218" transform="scale(1,-1)" style="stroke-width:0.813925">
            <path d="m 322.156,-288.75 c 0.301,0.285 -0.765,-0.496 -0.371,0.004 -1.129,0.984 2.133,1.371 0.637,0.719 -0.598,-0.602 -0.711,0.3 0.027,-0.285" style="fill:none;stroke:#000000;stroke-width:2.12872;stroke-linecap:round;stroke-linejoin:round;stroke-miterlimit:10;stroke-dasharray:none;stroke-opacity:1" id="path220" />
         </g>
         <g id="g222" transform="scale(1,-1)" style="stroke-width:0.813925">
            <path d="m 319.203,-296.25 6.352,-0.082 c -0.551,-4.395 -0.262,-4.805 -0.262,-4.805 l -6.684,-0.035 c 0,0 0.407,4.672 0.594,4.922" style="fill:none;stroke:#000000;stroke-width:2.12872;stroke-linecap:round;stroke-linejoin:round;stroke-miterlimit:10;stroke-dasharray:none;stroke-opacity:1" id="path224" />
         </g>
         <g id="g226" transform="scale(1,-1)" style="stroke-width:0.813925">
            <path d="m 307.863,-296.164 6.356,-0.082 c -0.555,-4.395 -0.262,-4.805 -0.262,-4.805 l -6.687,-0.035 c 0,0 0.41,4.672 0.593,4.922" style="fill:none;stroke:#000000;stroke-width:2.12872;stroke-linecap:round;stroke-linejoin:round;stroke-miterlimit:10;stroke-dasharray:none;stroke-opacity:1" id="path228" />
         </g>
         <g id="g230" transform="scale(1,-1)" style="stroke-width:0.813925">
            <path d="m 296.723,-296.023 6.351,-0.082 c -0.551,-4.395 -0.262,-4.805 -0.262,-4.805 l -6.683,-0.035 c 0,0 0.406,4.672 0.594,4.922" style="fill:none;stroke:#000000;stroke-width:2.12872;stroke-linecap:round;stroke-linejoin:round;stroke-miterlimit:10;stroke-dasharray:none;stroke-opacity:1" id="path232" />
         </g>
         <g id="g234" transform="scale(1,-1)" style="stroke-width:0.813925">
            <path d="m 285.453,-295.965 6.352,-0.082 c -0.551,-4.394 -0.262,-4.805 -0.262,-4.805 l -6.684,-0.035 c 0,0 0.407,4.672 0.594,4.922" style="fill:none;stroke:#000000;stroke-width:2.12872;stroke-linecap:round;stroke-linejoin:round;stroke-miterlimit:10;stroke-dasharray:none;stroke-opacity:1" id="path236" />
         </g>
         <g id="g238" transform="scale(1,-1)" style="stroke-width:0.813925">
            <path d="m 288.473,-316.488 c -1.082,1.074 -2.203,1.019 -2.782,2.363 0.813,1.91 5.711,3.676 6.625,0.699 0.903,-2.777 -4.613,-4.316 -6.152,-2.027 0.082,1.492 2.789,2.785 4.371,3.25 1.766,0.398 4.774,-1.563 2.688,-2.727 -1.379,-0.191 -4.668,-0.484 -4.559,1.094 0.289,1.926 3.168,2.34 3.453,0.266 0.836,-1.426 -3.156,-3.344 -3.625,-1.375 -1.742,1.883 1.953,4.031 3.254,1.75 0.668,-0.797 1.281,-2.391 -0.551,-2.274 -0.586,-0.082 -1.3,-0.113 -1.797,0.262" style="fill:none;stroke:#000000;stroke-width:2.12872;stroke-linecap:round;stroke-linejoin:round;stroke-miterlimit:10;stroke-dasharray:none;stroke-opacity:1" id="path240" />
         </g>
         <g id="g242" transform="scale(1,-1)" style="stroke-width:0.813925">
            <path d="m 290.547,-330.027 c -2.18,-0.403 -3.637,2.023 -1.914,3.367 1.762,1.906 5.082,-1.473 3.375,-3.348 -1.59,-2.554 -4.293,-0.465 -5.504,1.262 -1.34,1.836 2.043,2.996 3.59,3.027 2.168,0.567 5.008,-2.476 3.094,-3.738 -0.368,-0.168 -0.754,-0.242 -1.161,-0.137" style="fill:none;stroke:#000000;stroke-width:2.12872;stroke-linecap:round;stroke-linejoin:round;stroke-miterlimit:10;stroke-dasharray:none;stroke-opacity:1" id="path244" />
         </g>
         <g id="g246" transform="scale(1,-1)" style="stroke-width:0.813925">
            <path d="m 304.891,-330.664 c -0.598,-1.008 -2.481,0.949 -2.778,1.961 -2.965,3.73 6.211,5.25 6.235,0.926 0.808,-3.305 -4.598,-4.618 -6.481,-1.832 -2.433,1.597 0.656,4.734 2.992,4.679 2.61,-0.332 4.317,-4.39 1.149,-4.984 -0.356,-0.113 -0.735,-0.168 -1.11,-0.16" style="fill:none;stroke:#000000;stroke-width:2.12872;stroke-linecap:round;stroke-linejoin:round;stroke-miterlimit:10;stroke-dasharray:none;stroke-opacity:1" id="path248" />
         </g>
         <g id="g250" transform="scale(1,-1)" style="stroke-width:0.813925">
            <path d="m 317.684,-330.742 c -2.356,-0.121 -5.383,2.105 -3.582,4.543 1.793,3.562 8.695,-0.067 6.933,-3.5 -1,-1.746 -4.695,-1.832 -6.105,0.16 -2.653,1.629 1.484,6.066 3.379,3.293 2.234,-1.149 1.679,-4.379 -1.125,-4.367 -0.649,-0.297 -1.403,-0.176 -2.09,-0.129" style="fill:none;stroke:#000000;stroke-width:2.12872;stroke-linecap:round;stroke-linejoin:round;stroke-miterlimit:10;stroke-dasharray:none;stroke-opacity:1" id="path252" />
         </g>
         <g id="g254" transform="scale(1,-1)" style="stroke-width:0.813925">
            <path d="m 343.828,-281.863 c 0,0 87.258,0.242 86.371,1.023 l -1.058,-55.051 c 0.035,-0.148 -0.094,-0.113 -0.094,-0.171" style="fill:none;stroke:#000000;stroke-width:2.12872;stroke-linecap:round;stroke-linejoin:round;stroke-miterlimit:10;stroke-dasharray:none;stroke-opacity:1" id="path256" />
         </g>
         <g id="g258" transform="scale(1,-1)" style="stroke-width:0.813925">
            <path d="m 343.625,-283.188 c -0.27,0.829 -0.258,0.286 -0.258,-0.007 l 1.242,-52.321 c 0,0 55.93,0.891 84.438,-0.546" style="fill:none;stroke:#000000;stroke-width:2.12872;stroke-linecap:round;stroke-linejoin:round;stroke-miterlimit:10;stroke-dasharray:none;stroke-opacity:1" id="path260" />
         </g>
      </g>
   </g>
</svg>
