<?xml version="1.0" encoding="UTF-8" standalone="no"?>
<!-- Created by Ashley Blewer - This work is licensed under a Creative Commons Attribution 4.0 International License -->

<svg
   width="544"
   height="480"
   viewBox="0 0 143.93334 127"
   version="1.1"
   id="svg2490"
   inkscape:version="1.2.2 (1:1.2.2+202212051552+b0a8486541)"
   sodipodi:docname="1971-hipac-4.svg"
   xmlns:inkscape="http://www.inkscape.org/namespaces/inkscape"
   xmlns:sodipodi="http://sodipodi.sourceforge.net/DTD/sodipodi-0.dtd"
   xmlns="http://www.w3.org/2000/svg"
   xmlns:svg="http://www.w3.org/2000/svg">
  <sodipodi:namedview
     id="namedview2492"
     pagecolor="#ffffff"
     bordercolor="#666666"
     borderopacity="1.0"
     inkscape:pageshadow="2"
     inkscape:pageopacity="0.0"
     inkscape:pagecheckerboard="0"
     inkscape:document-units="mm"
     showgrid="false"
     units="px"
     inkscape:zoom="0.90583674"
     inkscape:cx="53.541657"
     inkscape:cy="253.35691"
     inkscape:window-width="1846"
     inkscape:window-height="1136"
     inkscape:window-x="0"
     inkscape:window-y="0"
     inkscape:window-maximized="1"
     inkscape:current-layer="g4731"
     inkscape:showpageshadow="2"
     inkscape:deskcolor="#d1d1d1" />
  <defs
     id="defs2487" />
  <g
     inkscape:label="Layer 1"
     inkscape:groupmode="layer"
     id="layer1">
    <g
       id="g4731"
       transform="matrix(0.32961229,0,0,0.32903008,-241.78905,1.73126)"
       style="stroke-width:2.68698">
      <g
         id="g104528"
         transform="matrix(1,0,0,-1,0,792)"
         style="stroke-width:2.68698">
        <g
           id="g104530"
           style="stroke-width:2.68698" />
      </g>
      <g
         id="g104996"
         transform="matrix(1,0,0,-1,0,792)"
         style="stroke-width:2.68698">
        <g
           id="g104998"
           style="stroke-width:2.68698" />
      </g>
      <g
         id="g3585"
         transform="matrix(1.2755034,0,0,1.2765062,687.77648,-566.72098)"
         style="stroke-width:2.47111">
        <g
           id="g64"
           transform="matrix(1,0,0,-1,0,792)"
           style="stroke-width:2.47111">
          <g
             id="g66"
             style="stroke-width:2.47111">
            <path
               d="m 134.8373,336.00867 c 22.24473,6.8461 45.71591,2.22199 68.50378,2.70552 26.52988,-0.76978 53.09518,0.018 79.43765,-3.97025"
               style="fill:none;stroke:#000000;stroke-width:3.13514;stroke-linecap:round;stroke-linejoin:round;stroke-miterlimit:10;stroke-dasharray:none;stroke-opacity:1"
               id="path68" />
          </g>
        </g>
        <g
           id="g70"
           transform="matrix(1,0,0,-1,0,792)"
           style="stroke-width:2.47111">
          <g
             id="g72"
             style="stroke-width:2.47111">
            <path
               d="m 282.77873,334.74394 c 2.95082,-3.6793 3.8612,-12.10615 4.6429,-16.35879"
               style="fill:none;stroke:#000000;stroke-width:3.13514;stroke-linecap:round;stroke-linejoin:round;stroke-miterlimit:10;stroke-dasharray:none;stroke-opacity:1"
               id="path74"
               sodipodi:nodetypes="cc" />
          </g>
        </g>
        <g
           id="g76"
           transform="matrix(1,0,0,-1,0,792)"
           style="stroke-width:2.47111">
          <g
             id="g78"
             style="stroke-width:2.47111">
            <path
               d="m 134.8373,336.00867 c -1.54601,-5.03253 -5.3007,-12.35009 -4.23129,-17.7222"
               style="fill:none;stroke:#000000;stroke-width:3.13514;stroke-linecap:round;stroke-linejoin:round;stroke-miterlimit:10;stroke-dasharray:none;stroke-opacity:1"
               id="path80"
               sodipodi:nodetypes="cc" />
          </g>
        </g>
        <g
           id="g82"
           transform="matrix(1,0,0,-1,0,792)"
           style="stroke-width:2.47111">
          <g
             id="g84"
             style="stroke-width:2.47111">
            <path
               d="m 130.60601,318.28647 c 26.63033,3.72353 58.47395,-1.37354 85.20562,0.55563 23.41992,-0.36204 46.89468,-2.38118 70.25234,0.12675 l 0.76779,-0.14013 0.28537,-0.35187"
               style="fill:none;stroke:#000000;stroke-width:3.13514;stroke-linecap:round;stroke-linejoin:round;stroke-miterlimit:10;stroke-dasharray:none;stroke-opacity:1"
               id="path86"
               sodipodi:nodetypes="ccccc" />
          </g>
        </g>
        <g
           id="g88"
           transform="matrix(1,0,0,-1,0,792)"
           style="stroke-width:2.47111">
          <g
             id="g90"
             style="stroke-width:2.47111">
            <path
               d="m 272.78326,317.26245 c 1.81587,-13.24515 3.23278,-29.57876 3.36445,-41.06154"
               style="fill:none;stroke:#000000;stroke-width:3.13514;stroke-linecap:round;stroke-linejoin:round;stroke-miterlimit:10;stroke-dasharray:none;stroke-opacity:1"
               id="path92" />
          </g>
        </g>
        <g
           id="g94"
           transform="matrix(1,0,0,-1,0,792)"
           style="stroke-width:2.47111">
          <g
             id="g96"
             style="stroke-width:2.47111">
            <path
               d="m 288.92014,317.61374 c 3.43233,-12.3697 5.8832,-25.62637 5.97396,-38.22363"
               style="fill:none;stroke:#000000;stroke-width:3.13514;stroke-linecap:round;stroke-linejoin:round;stroke-miterlimit:10;stroke-dasharray:none;stroke-opacity:1"
               id="path98" />
          </g>
        </g>
        <g
           id="g100"
           transform="matrix(1,0,0,-1,0,792)"
           style="stroke-width:2.47111">
          <g
             id="g102"
             style="stroke-width:2.47111">
            <path
               d="m 148.44114,319.85404 c -6.01927,-12.45052 -6.62428,-30.38853 -4.10688,-43.665"
               style="fill:none;stroke:#000000;stroke-width:3.13514;stroke-linecap:round;stroke-linejoin:round;stroke-miterlimit:10;stroke-dasharray:none;stroke-opacity:1"
               id="path104"
               sodipodi:nodetypes="cc" />
          </g>
        </g>
        <g
           id="g106"
           transform="matrix(1,0,0,-1,0,792)"
           style="stroke-width:2.47111">
          <g
             id="g108"
             style="stroke-width:2.47111">
            <path
               d="m 130.60601,318.28647 c -2.29332,-12.52153 -5.34331,-26.88859 -5.95382,-39.5742"
               style="fill:none;stroke:#000000;stroke-width:3.13514;stroke-linecap:round;stroke-linejoin:round;stroke-miterlimit:10;stroke-dasharray:none;stroke-opacity:1"
               id="path110"
               sodipodi:nodetypes="cc" />
          </g>
        </g>
        <g
           id="g112"
           transform="matrix(1,0,0,-1,0,792)"
           style="stroke-width:2.47111">
          <g
             id="g114"
             style="stroke-width:2.47111">
            <path
               d="m 124.65219,278.71227 c -22.70436,-24.65555 -20.49669,-58.92241 -20.86113,-92.33439 0.50098,-37.90141 -9.677354,-82.44596 20.96088,-109.508163 28.72962,-21.209895 69.55176,-13.429768 110.7569,-13.004551 50.41596,-0.425217 72.1654,7.460981 73.61546,48.871724 5.27261,48.35587 0.94364,96.05022 -2.64211,143.64351 -1.79363,8.47813 -5.44616,16.77174 -11.58809,23.00971"
               style="fill:none;stroke:#000000;stroke-width:3.13514;stroke-linecap:round;stroke-linejoin:round;stroke-miterlimit:10;stroke-dasharray:none;stroke-opacity:1"
               id="path116"
               sodipodi:nodetypes="ccccccc" />
          </g>
        </g>
        <g
           id="g118"
           transform="matrix(1,0,0,-1,0,792)"
           style="stroke-width:2.47111">
          <g
             id="g120"
             style="stroke-width:2.47111">
            <path
               d="m 144.33426,276.18904 c 12.71002,0.76413 53.19339,1.43946 37.84241,1.92693"
               style="fill:none;stroke:#000000;stroke-width:3.13514;stroke-linecap:round;stroke-linejoin:round;stroke-miterlimit:10;stroke-dasharray:none;stroke-opacity:1"
               id="path122"
               sodipodi:nodetypes="cc" />
          </g>
        </g>
        <g
           id="g124"
           transform="matrix(1,0,0,-1,0,792)"
           style="stroke-width:2.47111">
          <g
             id="g126"
             style="stroke-width:2.47111">
            <path
               d="m 184.6628,276.19336 c 2.85497,9.69815 26.56121,4.51752 26.56121,4.51752"
               style="fill:none;stroke:#000000;stroke-width:3.13514;stroke-linecap:round;stroke-linejoin:round;stroke-miterlimit:10;stroke-dasharray:none;stroke-opacity:1"
               id="path128"
               sodipodi:nodetypes="cc" />
          </g>
        </g>
        <g
           id="g130"
           transform="matrix(1,0,0,-1,0,792)"
           style="stroke-width:2.47111">
          <g
             id="g132"
             style="stroke-width:2.47111">
            <path
               d="m 211.22401,280.71088 c -1.11598,0.0349 0.30242,-1.4181 -0.53969,-1.73003"
               style="fill:none;stroke:#000000;stroke-width:3.13514;stroke-linecap:round;stroke-linejoin:round;stroke-miterlimit:10;stroke-dasharray:none;stroke-opacity:1"
               id="path134" />
          </g>
        </g>
        <g
           id="g136"
           transform="matrix(1,0,0,-1,0,792)"
           style="stroke-width:2.47111">
          <g
             id="g138"
             style="stroke-width:2.47111">
            <path
               d="m 186.10793,274.87347 c 8.07158,1.19127 16.30529,2.24924 24.44245,1.03156"
               style="fill:none;stroke:#000000;stroke-width:3.13514;stroke-linecap:round;stroke-linejoin:round;stroke-miterlimit:10;stroke-dasharray:none;stroke-opacity:1"
               id="path140" />
          </g>
        </g>
        <g
           id="g142"
           transform="matrix(1,0,0,-1,0,792)"
           style="stroke-width:2.47111">
          <g
             id="g144"
             style="stroke-width:2.47111">
            <path
               d="m 211.97754,275.96338 c 3.03766,8.3915 22.75102,6.6359 25.80222,1.74861"
               style="fill:none;stroke:#000000;stroke-width:3.13514;stroke-linecap:round;stroke-linejoin:round;stroke-miterlimit:10;stroke-dasharray:none;stroke-opacity:1"
               id="path146" />
          </g>
        </g>
        <g
           id="g148"
           transform="matrix(1,0,0,-1,0,792)"
           style="stroke-width:2.47111">
          <g
             id="g150"
             style="stroke-width:2.47111">
            <path
               d="m 213.41718,274.7467 c 7.4601,0.24441 14.87649,2.24724 22.35321,1.41098"
               style="fill:none;stroke:#000000;stroke-width:3.13514;stroke-linecap:round;stroke-linejoin:round;stroke-miterlimit:10;stroke-dasharray:none;stroke-opacity:1"
               id="path152" />
          </g>
        </g>
        <g
           id="g154"
           transform="matrix(1,0,0,-1,0,792)"
           style="stroke-width:2.47111">
          <g
             id="g156"
             style="stroke-width:2.47111">
            <path
               d="m 239.06454,276.37439 c -0.50957,8.25993 21.29282,7.2169 23.85685,1.37801"
               style="fill:none;stroke:#000000;stroke-width:3.13514;stroke-linecap:round;stroke-linejoin:round;stroke-miterlimit:10;stroke-dasharray:none;stroke-opacity:1"
               id="path158" />
          </g>
        </g>
        <g
           id="g160"
           transform="matrix(1,0,0,-1,0,792)"
           style="stroke-width:2.47111">
          <g
             id="g162"
             style="stroke-width:2.47111">
            <path
               d="m 240.17844,274.37988 c 7.89188,0.21142 15.62237,2.39922 23.54126,2.14084"
               style="fill:none;stroke:#000000;stroke-width:3.13514;stroke-linecap:round;stroke-linejoin:round;stroke-miterlimit:10;stroke-dasharray:none;stroke-opacity:1"
               id="path164" />
          </g>
        </g>
        <g
           id="g166"
           transform="matrix(1,0,0,-1,0,792)"
           style="stroke-width:2.47111">
          <g
             id="g168"
             style="stroke-width:2.47111">
            <path
               d="m 263.99234,277.62711 c 2.74266,-0.67207 9.43091,-0.61482 12.15537,-1.4262"
               style="fill:none;stroke:#000000;stroke-width:3.13514;stroke-linecap:round;stroke-linejoin:round;stroke-miterlimit:10;stroke-dasharray:none;stroke-opacity:1"
               id="path170"
               sodipodi:nodetypes="cc" />
          </g>
        </g>
        <g
           id="g172"
           transform="matrix(1,0,0,-1,0,792)"
           style="stroke-width:2.47111">
          <g
             id="g174"
             style="stroke-width:2.47111">
            <path
               d="m 144.96176,269.39209 c -0.74097,4.40187 4.18606,3.98787 7.02846,4.13906"
               style="fill:none;stroke:#000000;stroke-width:3.13514;stroke-linecap:round;stroke-linejoin:round;stroke-miterlimit:10;stroke-dasharray:none;stroke-opacity:1"
               id="path176" />
          </g>
        </g>
        <g
           id="g178"
           transform="matrix(1,0,0,-1,0,792)"
           style="stroke-width:2.47111">
          <g
             id="g180"
             style="stroke-width:2.47111">
            <path
               d="m 123.03572,267.30191 c 55.80877,-8.40127 112.12723,1.57285 168.14613,-0.34343"
               style="fill:none;stroke:#000000;stroke-width:3.13514;stroke-linecap:round;stroke-linejoin:round;stroke-miterlimit:10;stroke-dasharray:none;stroke-opacity:1"
               id="path182" />
          </g>
        </g>
        <g
           id="g1384"
           transform="matrix(1,0,0,-1,0,792)"
           style="stroke-width:2.47111">
          <g
             id="g1386"
             style="stroke-width:2.47111">
            <path
               d="m 121.60415,256.98883 c 3.51745,-9.81215 1.70214,-20.4156 2.53182,-30.57524"
               style="fill:none;stroke:#000000;stroke-width:1.56758;stroke-linecap:round;stroke-linejoin:round;stroke-miterlimit:10;stroke-dasharray:none;stroke-opacity:1"
               id="path1388" />
          </g>
        </g>
        <g
           id="g1390"
           transform="matrix(1,0,0,-1,0,792)"
           style="stroke-width:2.47111">
          <g
             id="g1392"
             style="stroke-width:2.47111">
            <path
               d="m 124.13597,226.41359 c 18.40823,0.81419 44.80752,-0.23309 63.18825,1.62378 30.7403,1.01864 61.50274,0.16964 92.24378,0.58211 3.77002,-0.66743 13.62235,4.08269 13.62235,4.08269"
               style="fill:none;stroke:#000000;stroke-width:1.56758;stroke-linecap:round;stroke-linejoin:round;stroke-miterlimit:10;stroke-dasharray:none;stroke-opacity:1"
               id="path1394"
               sodipodi:nodetypes="cccc" />
          </g>
        </g>
        <g
           id="g1396"
           transform="matrix(1,0,0,-1,0,792)"
           style="stroke-width:2.47111">
          <g
             id="g1398"
             style="stroke-width:2.47111">
            <path
               d="m 290.14371,261.381 c 2.38687,-7.96636 1.20745,-20.66038 3.04664,-28.67883"
               style="fill:none;stroke:#000000;stroke-width:1.56758;stroke-linecap:round;stroke-linejoin:round;stroke-miterlimit:10;stroke-dasharray:none;stroke-opacity:1"
               id="path1400"
               sodipodi:nodetypes="cc" />
          </g>
        </g>
        <g
           id="g1402"
           transform="matrix(1,0,0,-1,0,792)"
           style="stroke-width:2.47111">
          <g
             id="g1404"
             style="stroke-width:2.47111">
            <path
               d="m 121.60415,256.98883 c 10.03253,0.73374 43.49694,1.91581 53.54517,1.65027"
               style="fill:none;stroke:#000000;stroke-width:1.56758;stroke-linecap:round;stroke-linejoin:round;stroke-miterlimit:10;stroke-dasharray:none;stroke-opacity:1"
               id="path1406"
               sodipodi:nodetypes="cc" />
          </g>
        </g>
        <g
           id="g1408"
           transform="matrix(1,0,0,-1,0,792)"
           style="stroke-width:2.47111">
          <g
             id="g1410"
             style="stroke-width:2.47111">
            <path
               d="m 175.14932,258.6391 c 35.72849,2.48497 71.58839,2.29369 107.37123,2.99287 2.54157,-0.0262 5.09032,-0.005 7.62316,-0.25097"
               style="fill:none;stroke:#000000;stroke-width:1.56758;stroke-linecap:round;stroke-linejoin:round;stroke-miterlimit:10;stroke-dasharray:none;stroke-opacity:1"
               id="path1412" />
          </g>
        </g>
        <g
           id="g1414"
           transform="matrix(1,0,0,-1,0,792)"
           style="stroke-width:2.47111">
          <g
             id="g1416"
             style="stroke-width:2.47111">
            <path
               d="m 145.62334,223.30072 c 23.9097,0.52085 47.75851,3.67696 71.70049,1.82782 18.76441,-1.05099 37.59018,-1.84658 56.34812,-1.86242 14.32198,-6.19575 5.90986,-27.70122 7.86974,-39.40254 v 0 0"
               style="fill:none;stroke:#000000;stroke-width:1.56758;stroke-linecap:round;stroke-linejoin:round;stroke-miterlimit:10;stroke-dasharray:none;stroke-opacity:1"
               id="path1418"
               sodipodi:nodetypes="cccccc" />
          </g>
        </g>
        <g
           id="g1420"
           transform="matrix(1,0,0,-1,0,792)"
           style="stroke-width:2.47111">
          <g
             id="g1422"
             style="stroke-width:2.47111">
            <path
               d="m 145.62334,223.30072 c -9.68488,-9.87733 -6.28922,-26.60614 -5.81998,-38.39879 l 2.71573,-4.3269"
               style="fill:none;stroke:#000000;stroke-width:1.56758;stroke-linecap:round;stroke-linejoin:round;stroke-miterlimit:10;stroke-dasharray:none;stroke-opacity:1"
               id="path1424"
               sodipodi:nodetypes="ccc" />
          </g>
        </g>
        <g
           id="g1426"
           transform="matrix(1,0,0,-1,0,792)"
           style="stroke-width:2.47111">
          <g
             id="g1428"
             style="stroke-width:2.47111">
            <path
               d="m 142.51909,180.57503 c 24.29353,-4.22819 49.07196,-1.41546 73.55127,-1.41714 20.11287,1.37679 40.34209,-0.36571 60.41127,0.47309 1.91897,0.47542 6.46187,1.21907 5.06006,4.2326"
               style="fill:none;stroke:#000000;stroke-width:1.56758;stroke-linecap:round;stroke-linejoin:round;stroke-miterlimit:10;stroke-dasharray:none;stroke-opacity:1"
               id="path1430" />
          </g>
        </g>
        <g
           id="g1432"
           transform="matrix(1,0,0,-1,0,792)"
           style="stroke-width:2.47111">
          <g
             id="g1434"
             style="stroke-width:2.47111">
            <path
               d="m 143.96616,184.94057 c 0.48487,11.28858 1.04918,28.40002 1.01522,36.05513"
               style="fill:none;stroke:#000000;stroke-width:1.56758;stroke-linecap:round;stroke-linejoin:round;stroke-miterlimit:10;stroke-dasharray:none;stroke-opacity:1"
               id="path1436" />
          </g>
        </g>
        <g
           id="g1438"
           transform="matrix(1,0,0,-1,0,792)"
           style="stroke-width:2.47111">
          <g
             id="g1440"
             style="stroke-width:2.47111">
            <path
               d="m 150.37202,184.30698 c -0.24908,12.1844 1.08113,29.09778 -0.69566,38.30601"
               style="fill:none;stroke:#000000;stroke-width:1.56758;stroke-linecap:round;stroke-linejoin:round;stroke-miterlimit:10;stroke-dasharray:none;stroke-opacity:1"
               id="path1442" />
          </g>
        </g>
        <g
           id="g1444"
           transform="matrix(1,0,0,-1,0,792)"
           style="stroke-width:2.47111">
          <g
             id="g1446"
             style="stroke-width:2.47111">
            <path
               d="m 154.26535,187.67616 c 0.0666,9.85633 0.39794,24.22159 0.82857,31.32991"
               style="fill:none;stroke:#000000;stroke-width:1.56758;stroke-linecap:round;stroke-linejoin:round;stroke-miterlimit:10;stroke-dasharray:none;stroke-opacity:1"
               id="path1448" />
          </g>
        </g>
        <g
           id="g1450"
           transform="matrix(1,0,0,-1,0,792)"
           style="stroke-width:2.47111">
          <g
             id="g1452"
             style="stroke-width:2.47111">
            <path
               d="m 159.50703,185.14456 c 1.45678,12.61471 0.33439,25.3397 1.14769,37.9868"
               style="fill:none;stroke:#000000;stroke-width:1.56758;stroke-linecap:round;stroke-linejoin:round;stroke-miterlimit:10;stroke-dasharray:none;stroke-opacity:1"
               id="path1454" />
          </g>
        </g>
        <g
           id="g1456"
           transform="matrix(1,0,0,-1,0,792)"
           style="stroke-width:2.47111">
          <g
             id="g1458"
             style="stroke-width:2.47111">
            <path
               d="m 164.80006,186.28487 c -1.85525,12.34421 0.0715,24.80038 0.71579,37.15439"
               style="fill:none;stroke:#000000;stroke-width:1.56758;stroke-linecap:round;stroke-linejoin:round;stroke-miterlimit:10;stroke-dasharray:none;stroke-opacity:1"
               id="path1460" />
          </g>
        </g>
        <g
           id="g1462"
           transform="matrix(1,0,0,-1,0,792)"
           style="stroke-width:2.47111">
          <g
             id="g1464"
             style="stroke-width:2.47111">
            <path
               d="m 170.45274,181.68736 c 0.44671,13.6304 -1.1273,29.11239 1.88897,41.5389"
               style="fill:none;stroke:#000000;stroke-width:1.56758;stroke-linecap:round;stroke-linejoin:round;stroke-miterlimit:10;stroke-dasharray:none;stroke-opacity:1"
               id="path1466" />
          </g>
        </g>
        <g
           id="g1468"
           transform="matrix(1,0,0,-1,0,792)"
           style="stroke-width:2.47111">
          <g
             id="g1470"
             style="stroke-width:2.47111">
            <path
               d="m 175.70525,184.65645 c 2.15798,12.05193 -2.35141,24.5441 1.52019,36.39516"
               style="fill:none;stroke:#000000;stroke-width:1.56758;stroke-linecap:round;stroke-linejoin:round;stroke-miterlimit:10;stroke-dasharray:none;stroke-opacity:1"
               id="path1472" />
          </g>
        </g>
        <g
           id="g1474"
           transform="matrix(1,0,0,-1,0,792)"
           style="stroke-width:2.47111">
          <g
             id="g1476"
             style="stroke-width:2.47111">
            <path
               d="m 181.35684,182.6221 c -1.24994,13.21378 -0.82006,26.54144 0.50861,39.73091"
               style="fill:none;stroke:#000000;stroke-width:1.56758;stroke-linecap:round;stroke-linejoin:round;stroke-miterlimit:10;stroke-dasharray:none;stroke-opacity:1"
               id="path1478" />
          </g>
        </g>
        <g
           id="g1480"
           transform="matrix(1,0,0,-1,0,792)"
           style="stroke-width:2.47111">
          <g
             id="g1482"
             style="stroke-width:2.47111">
            <path
               d="m 186.9214,184.02399 c -0.98107,12.04909 -1.30019,24.21371 0.20401,36.23509"
               style="fill:none;stroke:#000000;stroke-width:1.56758;stroke-linecap:round;stroke-linejoin:round;stroke-miterlimit:10;stroke-dasharray:none;stroke-opacity:1"
               id="path1484" />
          </g>
        </g>
        <g
           id="g1486"
           transform="matrix(1,0,0,-1,0,792)"
           style="stroke-width:2.47111">
          <g
             id="g1488"
             style="stroke-width:2.47111">
            <path
               d="m 191.61736,185.01239 c -2.5556,11.67738 -0.64364,23.75221 -0.3743,35.56189"
               style="fill:none;stroke:#000000;stroke-width:1.56758;stroke-linecap:round;stroke-linejoin:round;stroke-miterlimit:10;stroke-dasharray:none;stroke-opacity:1"
               id="path1490" />
          </g>
        </g>
        <g
           id="g1492"
           transform="matrix(1,0,0,-1,0,792)"
           style="stroke-width:2.47111">
          <g
             id="g1494"
             style="stroke-width:2.47111">
            <path
               d="m 196.16339,187.33792 c -0.99704,11.35452 -2.27275,22.94605 0.22535,34.20529"
               style="fill:none;stroke:#000000;stroke-width:1.56758;stroke-linecap:round;stroke-linejoin:round;stroke-miterlimit:10;stroke-dasharray:none;stroke-opacity:1"
               id="path1496" />
          </g>
        </g>
        <g
           id="g1498"
           transform="matrix(1,0,0,-1,0,792)"
           style="stroke-width:2.47111">
          <g
             id="g1500"
             style="stroke-width:2.47111">
            <path
               d="m 199.44489,186.23705 c -0.38256,10.72597 0.311,21.46787 -0.35331,32.18698"
               style="fill:none;stroke:#000000;stroke-width:1.56758;stroke-linecap:round;stroke-linejoin:round;stroke-miterlimit:10;stroke-dasharray:none;stroke-opacity:1"
               id="path1502" />
          </g>
        </g>
        <g
           id="g1504"
           transform="matrix(1,0,0,-1,0,792)"
           style="stroke-width:2.47111">
          <g
             id="g1506"
             style="stroke-width:2.47111">
            <path
               d="m 204.70941,185.39919 c -1.39255,10.78726 -4.71229,22.37088 -1.08803,33.01801"
               style="fill:none;stroke:#000000;stroke-width:1.56758;stroke-linecap:round;stroke-linejoin:round;stroke-miterlimit:10;stroke-dasharray:none;stroke-opacity:1"
               id="path1508" />
          </g>
        </g>
        <g
           id="g1510"
           transform="matrix(1,0,0,-1,0,792)"
           style="stroke-width:2.47111">
          <g
             id="g1512"
             style="stroke-width:2.47111">
            <path
               d="m 208.71758,189.34067 c -2.92236,8.59168 -2.30304,17.84818 -1.61151,26.74066"
               style="fill:none;stroke:#000000;stroke-width:1.56758;stroke-linecap:round;stroke-linejoin:round;stroke-miterlimit:10;stroke-dasharray:none;stroke-opacity:1"
               id="path1514" />
          </g>
        </g>
        <g
           id="g1516"
           transform="matrix(1,0,0,-1,0,792)"
           style="stroke-width:2.47111">
          <g
             id="g1518"
             style="stroke-width:2.47111">
            <path
               d="m 213.47432,184.72595 c -3.17741,10.61041 -2.62105,22.02637 -0.68604,32.81035"
               style="fill:none;stroke:#000000;stroke-width:1.56758;stroke-linecap:round;stroke-linejoin:round;stroke-miterlimit:10;stroke-dasharray:none;stroke-opacity:1"
               id="path1520" />
          </g>
        </g>
        <g
           id="g1522"
           transform="matrix(1,0,0,-1,0,792)"
           style="stroke-width:2.47111">
          <g
             id="g1524"
             style="stroke-width:2.47111">
            <path
               d="m 218.44188,188.33899 c -2.61049,9.84425 -2.16173,20.1397 -2.8312,30.21481"
               style="fill:none;stroke:#000000;stroke-width:1.56758;stroke-linecap:round;stroke-linejoin:round;stroke-miterlimit:10;stroke-dasharray:none;stroke-opacity:1"
               id="path1526" />
          </g>
        </g>
        <g
           id="g1528"
           transform="matrix(1,0,0,-1,0,792)"
           style="stroke-width:2.47111">
          <g
             id="g1530"
             style="stroke-width:2.47111">
            <path
               d="m 223.70927,187.88954 c -3.11086,9.96157 -1.2489,20.52031 -1.36368,30.7354"
               style="fill:none;stroke:#000000;stroke-width:1.56758;stroke-linecap:round;stroke-linejoin:round;stroke-miterlimit:10;stroke-dasharray:none;stroke-opacity:1"
               id="path1532" />
          </g>
        </g>
        <g
           id="g1534"
           transform="matrix(1,0,0,-1,0,792)"
           style="stroke-width:2.47111">
          <g
             id="g1536"
             style="stroke-width:2.47111">
            <path
               d="m 231.27127,185.76518 c -2.59272,13.13557 0.0512,20.96719 -0.0598,34.1722"
               style="fill:none;stroke:#000000;stroke-width:1.56758;stroke-linecap:round;stroke-linejoin:round;stroke-miterlimit:10;stroke-dasharray:none;stroke-opacity:1"
               id="path1538"
               sodipodi:nodetypes="cc" />
          </g>
        </g>
        <g
           id="g1540"
           transform="matrix(1,0,0,-1,0,792)"
           style="stroke-width:2.47111">
          <g
             id="g1542"
             style="stroke-width:2.47111">
            <path
               d="m 236.38504,188.09828 c -0.15582,11.56876 -2.64212,23.03656 -0.75597,34.61388"
               style="fill:none;stroke:#000000;stroke-width:1.56758;stroke-linecap:round;stroke-linejoin:round;stroke-miterlimit:10;stroke-dasharray:none;stroke-opacity:1"
               id="path1544" />
          </g>
        </g>
        <g
           id="g1546"
           transform="matrix(1,0,0,-1,0,792)"
           style="stroke-width:2.47111">
          <g
             id="g1548"
             style="stroke-width:2.47111">
            <path
               d="m 242.95744,186.51106 c -3.46287,11.36105 -1.8326,23.40669 -0.839,35.00241"
               style="fill:none;stroke:#000000;stroke-width:1.56758;stroke-linecap:round;stroke-linejoin:round;stroke-miterlimit:10;stroke-dasharray:none;stroke-opacity:1"
               id="path1550" />
          </g>
        </g>
        <g
           id="g1552"
           transform="matrix(1,0,0,-1,0,792)"
           style="stroke-width:2.47111">
          <g
             id="g1554"
             style="stroke-width:2.47111">
            <path
               d="m 249.24936,187.59625 c -1.18857,10.21056 -3.67496,20.35445 -3.07799,30.69985"
               style="fill:none;stroke:#000000;stroke-width:1.56758;stroke-linecap:round;stroke-linejoin:round;stroke-miterlimit:10;stroke-dasharray:none;stroke-opacity:1"
               id="path1556" />
          </g>
        </g>
        <g
           id="g1558"
           transform="matrix(1,0,0,-1,0,792)"
           style="stroke-width:2.47111">
          <g
             id="g1560"
             style="stroke-width:2.47111">
            <path
               d="m 254.56128,185.96544 c -2.98981,11.75892 -4.02578,24.02606 -3.08641,36.12115"
               style="fill:none;stroke:#000000;stroke-width:1.56758;stroke-linecap:round;stroke-linejoin:round;stroke-miterlimit:10;stroke-dasharray:none;stroke-opacity:1"
               id="path1562" />
          </g>
        </g>
        <g
           id="g1564"
           transform="matrix(1,0,0,-1,0,792)"
           style="stroke-width:2.47111">
          <g
             id="g1566"
             style="stroke-width:2.47111">
            <path
               d="m 257.97104,186.2135 c -3.57716,11.89148 -3.81387,24.4405 -3.84542,36.75656"
               style="fill:none;stroke:#000000;stroke-width:1.56758;stroke-linecap:round;stroke-linejoin:round;stroke-miterlimit:10;stroke-dasharray:none;stroke-opacity:1"
               id="path1568" />
          </g>
        </g>
        <g
           id="g1570"
           transform="matrix(1,0,0,-1,0,792)"
           style="stroke-width:2.47111">
          <g
             id="g1572"
             style="stroke-width:2.47111">
            <path
               d="m 261.9841,184.06685 c -5.64787,12.05485 -1.77507,25.62912 -3.22728,38.3212"
               style="fill:none;stroke:#000000;stroke-width:1.56758;stroke-linecap:round;stroke-linejoin:round;stroke-miterlimit:10;stroke-dasharray:none;stroke-opacity:1"
               id="path1574" />
          </g>
        </g>
        <g
           id="g1576"
           transform="matrix(1,0,0,-1,0,792)"
           style="stroke-width:2.47111">
          <g
             id="g1578"
             style="stroke-width:2.47111">
            <path
               d="m 266.76376,182.14603 c -2.58644,11.90031 -2.60928,24.16149 -4.66778,36.14132"
               style="fill:none;stroke:#000000;stroke-width:1.56758;stroke-linecap:round;stroke-linejoin:round;stroke-miterlimit:10;stroke-dasharray:none;stroke-opacity:1"
               id="path1580" />
          </g>
        </g>
        <g
           id="g1582"
           transform="matrix(1,0,0,-1,0,792)"
           style="stroke-width:2.47111">
          <g
             id="g1584"
             style="stroke-width:2.47111">
            <path
               d="m 270.04358,184.52547 c -2.56709,11.34265 -4.19171,22.97633 -3.78731,34.62812"
               style="fill:none;stroke:#000000;stroke-width:1.56758;stroke-linecap:round;stroke-linejoin:round;stroke-miterlimit:10;stroke-dasharray:none;stroke-opacity:1"
               id="path1586" />
          </g>
        </g>
        <g
           id="g1588"
           transform="matrix(1,0,0,-1,0,792)"
           style="stroke-width:2.47111">
          <g
             id="g1590"
             style="stroke-width:2.47111">
            <path
               d="m 274.06964,185.7876 c -3.73981,11.43468 -4.92263,23.61694 -5.45419,35.58185"
               style="fill:none;stroke:#000000;stroke-width:1.56758;stroke-linecap:round;stroke-linejoin:round;stroke-miterlimit:10;stroke-dasharray:none;stroke-opacity:1"
               id="path1592" />
          </g>
        </g>
        <g
           id="g1594"
           transform="matrix(1,0,0,-1,0,792)"
           style="stroke-width:2.47111">
          <g
             id="g1596"
             style="stroke-width:2.47111">
            <path
               d="m 276.8175,184.41101 c -2.82729,10.89511 -1.44192,22.24615 -2.22052,33.34482"
               style="fill:none;stroke:#000000;stroke-width:1.56758;stroke-linecap:round;stroke-linejoin:round;stroke-miterlimit:10;stroke-dasharray:none;stroke-opacity:1"
               id="path1598" />
          </g>
        </g>
        <g
           id="g1600"
           transform="matrix(1,0,0,-1,0,792)"
           style="stroke-width:2.47111">
          <g
             id="g1602"
             style="stroke-width:2.47111">
            <path
               d="m 162.08324,155.74977 c -17.28382,10.30294 -19.48835,-23.36795 -1.23423,-15.25059 l 0.81889,0.59618"
               style="fill:none;stroke:#000000;stroke-width:1.56758;stroke-linecap:round;stroke-linejoin:round;stroke-miterlimit:10;stroke-dasharray:none;stroke-opacity:1"
               id="path1604"
               sodipodi:nodetypes="ccc" />
          </g>
        </g>
        <g
           id="g1606"
           transform="matrix(1,0,0,-1,0,792)"
           style="stroke-width:2.47111">
          <g
             id="g1608"
             style="stroke-width:2.47111">
            <path
               d="m 162.08324,155.74977 c 0.18934,-3.85892 1.59422,-12.76994 -0.69392,-16.11949"
               style="fill:none;stroke:#000000;stroke-width:1.56758;stroke-linecap:round;stroke-linejoin:round;stroke-miterlimit:10;stroke-dasharray:none;stroke-opacity:1"
               id="path1610"
               sodipodi:nodetypes="cc" />
          </g>
        </g>
        <g
           id="g1612"
           transform="matrix(1,0,0,-1,0,792)"
           style="stroke-width:2.47111">
          <g
             id="g1614"
             style="stroke-width:2.47111">
            <path
               d="m 182.18735,170.35246 c -6.61422,-21.0819 -4.0238,-46.72745 -3.74871,-68.41197 0.55499,-4.111546 1.83455,-14.895469 4.2106,-18.500043"
               style="fill:none;stroke:#000000;stroke-width:1.56758;stroke-linecap:round;stroke-linejoin:round;stroke-miterlimit:10;stroke-dasharray:none;stroke-opacity:1"
               id="path1616"
               sodipodi:nodetypes="ccc" />
          </g>
        </g>
        <g
           id="g1618"
           transform="matrix(1,0,0,-1,0,792)"
           style="stroke-width:2.47111">
          <g
             id="g1620"
             style="stroke-width:2.47111">
            <path
               d="m 182.18735,170.35246 c 34.43078,7.64064 70.36334,2.20334 102.62819,1.8689 l 5.48945,-1.79173"
               style="fill:none;stroke:#000000;stroke-width:1.56758;stroke-linecap:round;stroke-linejoin:round;stroke-miterlimit:10;stroke-dasharray:none;stroke-opacity:1"
               id="path1622"
               sodipodi:nodetypes="ccc" />
          </g>
        </g>
        <g
           id="g1624"
           transform="matrix(1,0,0,-1,0,792)"
           style="stroke-width:2.47111">
          <g
             id="g1626"
             style="stroke-width:2.47111">
            <path
               d="m 290.30499,170.42963 c 10.15298,-12.33577 6.51232,-29.41294 8.036,-44.15552 0.69012,-13.53377 1.75748,-28.645038 -7.17751,-39.967195 0,0 -2.30286,-3.711242 -2.79504,-4.895235"
               style="fill:none;stroke:#000000;stroke-width:1.56758;stroke-linecap:round;stroke-linejoin:round;stroke-miterlimit:10;stroke-dasharray:none;stroke-opacity:1"
               id="path1628"
               sodipodi:nodetypes="cccc" />
          </g>
        </g>
        <g
           id="g1630"
           transform="matrix(1,0,0,-1,0,792)"
           style="stroke-width:2.47111">
          <g
             id="g1632"
             style="stroke-width:2.47111">
            <path
               d="m 182.64924,83.440447 c 30.85855,-4.921432 67.67895,-0.248988 98.72175,-2.226003 2.33364,-0.0059 4.66852,0.04112 6.99745,0.197236"
               style="fill:none;stroke:#000000;stroke-width:1.56758;stroke-linecap:round;stroke-linejoin:round;stroke-miterlimit:10;stroke-dasharray:none;stroke-opacity:1"
               id="path1634"
               sodipodi:nodetypes="ccc" />
          </g>
        </g>
      </g>
    </g>
  </g>
</svg>
