<?xml version="1.0" encoding="UTF-8" standalone="no"?>
<!-- Created by Ashley Blewer - This work is licensed under a Creative Commons Attribution 4.0 International License -->

<svg width="544" height="480" viewBox="0 0 143.93334 127" version="1.1" id="svg2490" inkscape:version="1.1.2 (08b2f3d93c, 2022-04-05)" sodipodi:docname="1971-umatic-3.svg"
   xmlns:inkscape="http://www.inkscape.org/namespaces/inkscape"
   xmlns:sodipodi="http://sodipodi.sourceforge.net/DTD/sodipodi-0.dtd"
   xmlns="http://www.w3.org/2000/svg"
   xmlns:svg="http://www.w3.org/2000/svg">
   <sodipodi:namedview id="namedview2492" pagecolor="#ffffff" bordercolor="#666666" borderopacity="1.0" inkscape:pageshadow="2" inkscape:pageopacity="0.0" inkscape:pagecheckerboard="0" inkscape:document-units="mm" showgrid="false" units="px" inkscape:zoom="0.90583674" inkscape:cx="272.67607" inkscape:cy="177.18425" inkscape:window-width="1848" inkscape:window-height="1136" inkscape:window-x="72" inkscape:window-y="27" inkscape:window-maximized="1" inkscape:current-layer="layer1" />
   <defs id="defs2487" />
   <g inkscape:label="Layer 1" inkscape:groupmode="layer" id="layer1">
      <g id="g372" transform="matrix(0.68234023,0,0,-0.6826949,-136.27065,-368.56519)" style="stroke-width:0.956099">
         <path d="m 236.016,-554.941 -2.739,-9.821 7.528,-77.355 c 2.566,-6.449 10.523,-3.567 15.847,-3.613 l 100.496,9.898 c 6.989,0.555 11.711,0.191 12.211,4.992 l 4.184,64.215 c 0.789,2.629 0.098,5.379 -0.961,7.379 -1.652,2.566 -2.172,6.891 -4.879,7.25 0,0 -130.203,-1.719 -131.687,-2.945" style="fill:none;stroke:#000000;stroke-width:2.50056;stroke-linecap:round;stroke-linejoin:round;stroke-miterlimit:10;stroke-dasharray:none;stroke-opacity:1" id="path374" />
      </g>
      <g id="g376" transform="matrix(0.68234023,0,0,-0.6826949,-136.27065,-368.56519)" style="stroke-width:0.956099">
         <path d="m 350.766,-568.133 c 4.949,0.203 10.308,0.137 14.789,-0.234 l -2.043,-63.203 -11.43,-0.649 -1.316,64.086" style="fill:none;stroke:#000000;stroke-width:2.50056;stroke-linecap:round;stroke-linejoin:round;stroke-miterlimit:10;stroke-dasharray:none;stroke-opacity:1" id="path378" />
      </g>
      <g id="g380" transform="matrix(0.68234023,0,0,-0.6826949,-136.27065,-368.56519)" style="stroke-width:0.956099">
         <path d="m 239.398,-635.477 c 0,0 -15.343,-8.191 -20.441,-13.402 -1.223,-5.598 -0.992,-12.773 1.293,-17.828 0,0 112.953,-26.168 160.523,-37.715 1.27,-0.098 2.551,0 3.809,-0.203" style="fill:none;stroke:#000000;stroke-width:2.50056;stroke-linecap:round;stroke-linejoin:round;stroke-miterlimit:10;stroke-dasharray:none;stroke-opacity:1" id="path382" />
      </g>
      <g id="g384" transform="matrix(0.68234023,0,0,-0.6826949,-136.27065,-368.56519)" style="stroke-width:0.956099">
         <path d="m 384.582,-704.625 3.293,21.707 c 0,0 0.125,3.375 -1.629,2.98" style="fill:none;stroke:#000000;stroke-width:2.50056;stroke-linecap:round;stroke-linejoin:round;stroke-miterlimit:10;stroke-dasharray:none;stroke-opacity:1" id="path386" />
      </g>
      <g id="g388" transform="matrix(0.68234023,0,0,-0.6826949,-136.27065,-368.56519)" style="stroke-width:0.956099">
         <path d="m 386.922,-679.484 5.242,46.386 -22.355,3.5" style="fill:none;stroke:#000000;stroke-width:2.50056;stroke-linecap:round;stroke-linejoin:round;stroke-miterlimit:10;stroke-dasharray:none;stroke-opacity:1" id="path390" />
      </g>
      <g id="g392" transform="matrix(0.68234023,0,0,-0.6826949,-136.27065,-368.56519)" style="stroke-width:0.956099">
         <path d="m 324.582,-690.352 0.66,20.731 17.844,31.691" style="fill:none;stroke:#000000;stroke-width:2.50056;stroke-linecap:round;stroke-linejoin:round;stroke-miterlimit:10;stroke-dasharray:none;stroke-opacity:1" id="path394" />
      </g>
      <g id="g396" transform="matrix(0.68234023,0,0,-0.6826949,-136.27065,-368.56519)" style="stroke-width:0.956099">
         <path d="m 260.461,-675.812 c 0.074,3.894 -1,18.734 -1,18.734 l 14.508,12.664" style="fill:none;stroke:#000000;stroke-width:2.50056;stroke-linecap:round;stroke-linejoin:round;stroke-miterlimit:10;stroke-dasharray:none;stroke-opacity:1" id="path398" />
      </g>
      <g id="g400" transform="matrix(0.68234023,0,0,-0.6826949,-136.27065,-368.56519)" style="stroke-width:0.956099">
         <path d="m 320.055,-688.777 0.855,20.754 18.035,29.445 c 0.098,0.332 0.133,0.898 0.61,0.89" style="fill:none;stroke:#000000;stroke-width:2.50056;stroke-linecap:round;stroke-linejoin:round;stroke-miterlimit:10;stroke-dasharray:none;stroke-opacity:1" id="path402" />
      </g>
      <g id="g852" transform="matrix(0.68234023,0,0,-0.6826949,-136.27065,-368.56519)" style="stroke-width:0.956099">
         <path d="m 220,-649.738 166.266,-30.321" style="fill:none;stroke:#000000;stroke-width:2.50056;stroke-linecap:round;stroke-linejoin:round;stroke-miterlimit:10;stroke-dasharray:none;stroke-opacity:1" id="path854" />
      </g>
      <g id="g1066" transform="matrix(0.68234023,0,0,-0.6826949,-136.27065,-368.56519)" style="stroke-width:0.956099">
         <path d="m 244.574,-565.453 c 44.774,2.375 64.571,2.922 92.449,4.062" style="fill:none;stroke:#000000;stroke-width:2.50056;stroke-linecap:round;stroke-linejoin:round;stroke-miterlimit:10;stroke-dasharray:none;stroke-opacity:1" id="path1068" />
      </g>
   </g>
</svg>
