<?xml version="1.0" encoding="UTF-8" standalone="no"?>
<!-- Created by Ashley Blewer - This work is licensed under a Creative Commons Attribution 4.0 International License -->

<svg
   width="544"
   height="480"
   viewBox="0 0 143.93334 127"
   version="1.1"
   id="svg2490"
   inkscape:version="1.2.2 (1:1.2.2+202212051552+b0a8486541)"
   sodipodi:docname="1976-elcaset-1.svg"
   xmlns:inkscape="http://www.inkscape.org/namespaces/inkscape"
   xmlns:sodipodi="http://sodipodi.sourceforge.net/DTD/sodipodi-0.dtd"
   xmlns="http://www.w3.org/2000/svg"
   xmlns:svg="http://www.w3.org/2000/svg">
  <sodipodi:namedview
     id="namedview2492"
     pagecolor="#ffffff"
     bordercolor="#666666"
     borderopacity="1.0"
     inkscape:pageshadow="2"
     inkscape:pageopacity="0.0"
     inkscape:pagecheckerboard="0"
     inkscape:document-units="mm"
     showgrid="false"
     units="px"
     inkscape:zoom="0.90583674"
     inkscape:cx="53.541657"
     inkscape:cy="253.35691"
     inkscape:window-width="1846"
     inkscape:window-height="1136"
     inkscape:window-x="0"
     inkscape:window-y="0"
     inkscape:window-maximized="1"
     inkscape:current-layer="g4731"
     inkscape:showpageshadow="2"
     inkscape:deskcolor="#d1d1d1" />
  <defs
     id="defs2487" />
  <g
     inkscape:label="Layer 1"
     inkscape:groupmode="layer"
     id="layer1">
    <g
       id="g4731"
       transform="matrix(0.32961229,0,0,0.32903008,-241.78905,1.73126)"
       style="stroke-width:2.68698">
      <g
         id="g104528"
         transform="matrix(1,0,0,-1,0,792)"
         style="stroke-width:2.68698">
        <g
           id="g104530"
           style="stroke-width:2.68698" />
      </g>
      <g
         id="g104996"
         transform="matrix(1,0,0,-1,0,792)"
         style="stroke-width:2.68698">
        <g
           id="g104998"
           style="stroke-width:2.68698" />
      </g>
      <g
         id="g4065"
         transform="matrix(0.92283059,0,0,0.92446348,98.995007,-33.428386)">
        <g
           id="g1030"
           transform="matrix(1,0,0,-1,0,792)">
          <g
             id="g1032">
            <path
               d="m 718.94513,698.24554 c -3.64221,-5.25478 -15.33932,-23.51549 -6.79146,-24.95943"
               style="fill:none;stroke:#000000;stroke-width:2.61538;stroke-linecap:round;stroke-linejoin:round;stroke-miterlimit:10;stroke-dasharray:none;stroke-opacity:1"
               id="path1034"
               sodipodi:nodetypes="cc" />
          </g>
        </g>
        <g
           id="g1036"
           transform="matrix(1,0,0,-1,0,792)">
          <g
             id="g1038">
            <path
               d="m 712.50195,671.68756 c -2.68191,-7.56523 -0.39678,-20.72842 -1.72401,-29.84603 0.49637,-3.5185 -1.32678,-7.65048 1.66679,-7.06248"
               style="fill:none;stroke:#000000;stroke-width:2.61538;stroke-linecap:round;stroke-linejoin:round;stroke-miterlimit:10;stroke-dasharray:none;stroke-opacity:1"
               id="path1040" />
          </g>
        </g>
        <g
           id="g1042"
           transform="matrix(1,0,0,-1,0,792)">
          <g
             id="g1044">
            <path
               d="m 711.33771,633.26764 c -1.95165,-16.77806 -2.32627,-41.21592 -1.76637,-60.99395 0.94738,-54.24827 -2.48481,-110.5486 -0.9326,-163.33224 1.72657,-7.96137 -1.83177,-13.90606 2.55158,-18.82505 3.77639,-1.1808 1.24687,-0.26148 3.33374,-0.80914"
               style="fill:none;stroke:#000000;stroke-width:2.61538;stroke-linecap:round;stroke-linejoin:round;stroke-miterlimit:10;stroke-dasharray:none;stroke-opacity:1"
               id="path1046" />
          </g>
        </g>
        <g
           id="g1048"
           transform="matrix(1,0,0,-1,0,792)">
          <g
             id="g1050">
            <path
               d="m 714.47742,389.00687 192.87243,-3.91094 c 2.81657,-0.13304 9.88435,1.71012 9.57166,1.67731"
               style="fill:none;stroke:#000000;stroke-width:2.61538;stroke-linecap:round;stroke-linejoin:round;stroke-miterlimit:10;stroke-dasharray:none;stroke-opacity:1"
               id="path1052"
               sodipodi:nodetypes="ccc" />
          </g>
        </g>
        <g
           id="g1054"
           transform="matrix(1,0,0,-1,0,792)">
          <g
             id="g1056">
            <path
               d="m 917.01685,387.48828 c -2.44483,4.00984 6.97112,1.83331 13.27683,3.56202 0.58153,-0.23254 2.87241,-3.21526 2.71685,-4.31486"
               style="fill:none;stroke:#000000;stroke-width:2.61538;stroke-linecap:round;stroke-linejoin:round;stroke-miterlimit:10;stroke-dasharray:none;stroke-opacity:1"
               id="path1058" />
          </g>
        </g>
        <g
           id="g1060"
           transform="matrix(1,0,0,-1,0,792)">
          <g
             id="g1062">
            <path
               d="m 933.01053,386.73544 c 0,0 133.19537,-3.44641 198.34067,2.0636 -0.022,1.90919 4.9072,5.42644 4.6668,7.33988"
               style="fill:none;stroke:#000000;stroke-width:2.61538;stroke-linecap:round;stroke-linejoin:round;stroke-miterlimit:10;stroke-dasharray:none;stroke-opacity:1"
               id="path1064"
               sodipodi:nodetypes="ccc" />
          </g>
        </g>
        <g
           id="g1066"
           transform="matrix(1,0,0,-1,0,792)">
          <g
             id="g1068">
            <path
               d="m 1130.0544,696.87451 c 1.5786,-7.7126 16.3039,-16.75739 7.2147,-25.8091"
               style="fill:none;stroke:#000000;stroke-width:2.61538;stroke-linecap:round;stroke-linejoin:round;stroke-miterlimit:10;stroke-dasharray:none;stroke-opacity:1"
               id="path1070" />
          </g>
        </g>
        <g
           id="g1072"
           transform="matrix(1,0,0,-1,0,792)">
          <g
             id="g1074">
            <path
               d="m 1137.2691,671.06541 c 1.6225,-11.79396 3.6124,-26.87871 1.6512,-38.59275"
               style="fill:none;stroke:#000000;stroke-width:2.61538;stroke-linecap:round;stroke-linejoin:round;stroke-miterlimit:10;stroke-dasharray:none;stroke-opacity:1"
               id="path1076"
               sodipodi:nodetypes="cc" />
          </g>
        </g>
        <g
           id="g1078"
           transform="matrix(1,0,0,-1,0,792)">
          <g
             id="g1080">
            <path
               d="m 1138.9203,632.47266 c -0.3835,-58.0631 -1.6008,-116.29606 -0.5635,-174.47333 -1.0644,-22.5165 0.1354,-45.75235 -2.5573,-67.83649 -0.6708,-0.6475 -3.548,-3.0223 -4.4483,-1.3638"
               style="fill:none;stroke:#000000;stroke-width:2.61538;stroke-linecap:round;stroke-linejoin:round;stroke-miterlimit:10;stroke-dasharray:none;stroke-opacity:1"
               id="path1082" />
          </g>
        </g>
        <g
           id="g1084"
           transform="matrix(1,0,0,-1,0,792)">
          <g
             id="g1086">
            <path
               d="m 718.94513,698.24554 c 10.6415,0.49047 23.63616,-0.58789 34.64876,0.0825"
               style="fill:none;stroke:#000000;stroke-width:2.61538;stroke-linecap:round;stroke-linejoin:round;stroke-miterlimit:10;stroke-dasharray:none;stroke-opacity:1"
               id="path1088" />
          </g>
        </g>
        <g
           id="g1090"
           transform="matrix(1,0,0,-1,0,792)">
          <g
             id="g1092">
            <path
               d="m 754.76642,699.26831 c 3.15084,5.71242 15.14627,3.1219 22.05091,3.30561 23.06546,-0.33936 46.64056,0.81985 69.22438,-1.68637"
               style="fill:none;stroke:#000000;stroke-width:2.61538;stroke-linecap:round;stroke-linejoin:round;stroke-miterlimit:10;stroke-dasharray:none;stroke-opacity:1"
               id="path1094" />
          </g>
        </g>
        <g
           id="g1096"
           transform="matrix(1,0,0,-1,0,792)">
          <g
             id="g1098">
            <path
               d="m 846.04171,700.88755 c 0.52599,-8.80193 -0.15524,-20.53178 4.30323,-31.48555 4.69864,-10.39836 19.22752,-11.68088 22.04452,1.6627 2.46046,9.45696 1.98989,19.9523 6.09583,27.28467"
               style="fill:none;stroke:#000000;stroke-width:2.61538;stroke-linecap:round;stroke-linejoin:round;stroke-miterlimit:10;stroke-dasharray:none;stroke-opacity:1"
               id="path1100"
               sodipodi:nodetypes="cccc" />
          </g>
        </g>
        <g
           id="g1102"
           transform="matrix(1,0,0,-1,0,792)">
          <g
             id="g1104">
            <path
               d="m 878.48529,698.34937 c 28.28959,2.79663 62.80851,2.16076 91.77619,1.8108"
               style="fill:none;stroke:#000000;stroke-width:2.61538;stroke-linecap:round;stroke-linejoin:round;stroke-miterlimit:10;stroke-dasharray:none;stroke-opacity:1"
               id="path1106"
               sodipodi:nodetypes="cc" />
          </g>
        </g>
        <g
           id="g1108"
           transform="matrix(1,0,0,-1,0,792)">
          <g
             id="g1110">
            <path
               d="m 970.26148,700.16017 c -0.83894,-8.15498 3.13419,-25.23568 6.35178,-34.36666 7.57726,-12.07089 27.10794,-1.7179 23.14655,11.31025 0.46949,8.63641 3.71869,21.74872 3.71869,21.74872"
               style="fill:none;stroke:#000000;stroke-width:2.61538;stroke-linecap:round;stroke-linejoin:round;stroke-miterlimit:10;stroke-dasharray:none;stroke-opacity:1"
               id="path1112"
               sodipodi:nodetypes="cccc" />
          </g>
        </g>
        <g
           id="g1114"
           transform="matrix(1,0,0,-1,0,792)">
          <g
             id="g1116">
            <path
               d="m 1003.4785,698.85248 c 8.9926,-0.23961 25.2312,2.42078 30.4337,0.10833"
               style="fill:none;stroke:#000000;stroke-width:2.61538;stroke-linecap:round;stroke-linejoin:round;stroke-miterlimit:10;stroke-dasharray:none;stroke-opacity:1"
               id="path1118" />
          </g>
        </g>
        <g
           id="g1120"
           transform="matrix(1,0,0,-1,0,792)">
          <g
             id="g1122">
            <path
               d="m 1034.7976,698.04877 c 30.4711,-2.59153 63.3312,0.3137 93.1992,-1.0895"
               style="fill:none;stroke:#000000;stroke-width:2.61538;stroke-linecap:round;stroke-linejoin:round;stroke-miterlimit:10;stroke-dasharray:none;stroke-opacity:1"
               id="path1124" />
          </g>
        </g>
        <g
           id="g1126"
           transform="matrix(1,0,0,-1,0,792)">
          <g
             id="g1128">
            <path
               d="m 755.30469,682.263 c 1.41641,-16.63008 -5.1847,-35.86283 8.54308,-46.88119 13.81054,-13.90469 42.86222,-5.89194 44.11637,12.93371 1.11544,2.63089 2.01579,8.5711 2.78059,10.03499"
               style="fill:none;stroke:#000000;stroke-width:2.61538;stroke-linecap:round;stroke-linejoin:round;stroke-miterlimit:10;stroke-dasharray:none;stroke-opacity:1"
               id="path1130"
               sodipodi:nodetypes="cccc" />
          </g>
        </g>
        <g
           id="g1132"
           transform="matrix(1,0,0,-1,0,792)">
          <g
             id="g1134">
            <path
               d="m 847.91101,686.508 c 0,0 -5.53196,-36.69543 13.21746,-38.63231 21.97861,2.35784 14.82067,26.37805 15.50751,41.05626"
               style="fill:none;stroke:#000000;stroke-width:2.61538;stroke-linecap:round;stroke-linejoin:round;stroke-miterlimit:10;stroke-dasharray:none;stroke-opacity:1"
               id="path1136"
               sodipodi:nodetypes="ccc" />
          </g>
        </g>
        <g
           id="g1138"
           transform="matrix(1,0,0,-1,0,792)">
          <g
             id="g1140">
            <path
               d="m 971.56917,685.56968 c 0,0 -4.57409,-34.30015 15.53909,-37.36502 16.54524,-0.007 16.14544,16.68905 15.08794,28.18779 -1.5392,3.27863 2.1737,7.1292 -0.9556,9.51544"
               style="fill:none;stroke:#000000;stroke-width:2.61538;stroke-linecap:round;stroke-linejoin:round;stroke-miterlimit:10;stroke-dasharray:none;stroke-opacity:1"
               id="path1142"
               sodipodi:nodetypes="cccc" />
          </g>
        </g>
        <g
           id="g1144"
           transform="matrix(1,0,0,-1,0,792)">
          <g
             id="g1146">
            <path
               d="m 1036.2169,665.75909 c -1.3782,-15.54955 5.2437,-40.56154 27.007,-37.9121 24.7028,-1.34395 36.108,27.19458 32.1783,47.93468 -0.071,1.26393 0.9996,6.1097 -0.2895,4.89906"
               style="fill:none;stroke:#000000;stroke-width:2.61538;stroke-linecap:round;stroke-linejoin:round;stroke-miterlimit:10;stroke-dasharray:none;stroke-opacity:1"
               id="path1148" />
          </g>
        </g>
        <g
           id="g1150"
           transform="matrix(1,0,0,-1,0,792)">
          <g
             id="g1152">
            <path
               d="m 1021.7054,695.74365 c 0.4259,2.2257 2.417,-7.82826 1.7064,-6.8034"
               style="fill:none;stroke:#000000;stroke-width:2.61538;stroke-linecap:round;stroke-linejoin:round;stroke-miterlimit:10;stroke-dasharray:none;stroke-opacity:1"
               id="path1154" />
          </g>
        </g>
        <g
           id="g1156"
           transform="matrix(1,0,0,-1,0,792)">
          <g
             id="g1158">
            <path
               d="m 1036.1373,695.87891 c -0.2944,0.40272 2.5864,-4.35461 1.9994,-5.05132"
               style="fill:none;stroke:#000000;stroke-width:2.61538;stroke-linecap:round;stroke-linejoin:round;stroke-miterlimit:10;stroke-dasharray:none;stroke-opacity:1"
               id="path1160" />
          </g>
        </g>
        <g
           id="g1162"
           transform="matrix(1,0,0,-1,0,792)">
          <g
             id="g1164">
            <path
               d="m 1086.8424,695.45679 c 0.3733,1.6105 1.6418,-3.83128 2.737,-3.84126"
               style="fill:none;stroke:#000000;stroke-width:2.61538;stroke-linecap:round;stroke-linejoin:round;stroke-miterlimit:10;stroke-dasharray:none;stroke-opacity:1"
               id="path1166" />
          </g>
        </g>
        <g
           id="g1168"
           transform="matrix(1,0,0,-1,0,792)">
          <g
             id="g1170">
            <path
               d="m 1119.454,695.87482 c 0.522,0.11411 3.3946,-6.03882 3.0058,-6.13391"
               style="fill:none;stroke:#000000;stroke-width:2.61538;stroke-linecap:round;stroke-linejoin:round;stroke-miterlimit:10;stroke-dasharray:none;stroke-opacity:1"
               id="path1172" />
          </g>
        </g>
        <g
           id="g1174"
           transform="matrix(1,0,0,-1,0,792)">
          <g
             id="g1176">
            <path
               d="m 971.56917,685.56968 c 6.58467,-0.14416 22.63014,0.042 29.67143,0.33821"
               style="fill:none;stroke:#000000;stroke-width:2.61538;stroke-linecap:round;stroke-linejoin:round;stroke-miterlimit:10;stroke-dasharray:none;stroke-opacity:1"
               id="path1178"
               sodipodi:nodetypes="cc" />
          </g>
        </g>
        <g
           id="g1180"
           transform="matrix(1,0,0,-1,0,792)">
          <g
             id="g1182">
            <path
               d="m 847.91101,686.508 c 7.73346,0.94186 16.79929,0.174 24.94948,0.33464"
               style="fill:none;stroke:#000000;stroke-width:2.61538;stroke-linecap:round;stroke-linejoin:round;stroke-miterlimit:10;stroke-dasharray:none;stroke-opacity:1"
               id="path1184" />
          </g>
        </g>
        <g
           id="g1186"
           transform="matrix(1,0,0,-1,0,792)">
          <g
             id="g1188">
            <path
               d="m 827.5824,696.9201 c -0.88123,-2.59498 -2.18639,-5.98801 -3.29413,-7.75537"
               style="fill:none;stroke:#000000;stroke-width:2.61538;stroke-linecap:round;stroke-linejoin:round;stroke-miterlimit:10;stroke-dasharray:none;stroke-opacity:1"
               id="path1190" />
          </g>
        </g>
        <g
           id="g1192"
           transform="matrix(1,0,0,-1,0,792)">
          <g
             id="g1194">
            <path
               d="m 811.6228,697.3551 c -1.49169,-1.61064 -1.98985,-6.19853 -3.04431,-6.97394"
               style="fill:none;stroke:#000000;stroke-width:2.61538;stroke-linecap:round;stroke-linejoin:round;stroke-miterlimit:10;stroke-dasharray:none;stroke-opacity:1"
               id="path1196" />
          </g>
        </g>
        <g
           id="g1198"
           transform="matrix(1,0,0,-1,0,792)">
          <g
             id="g1200">
            <path
               d="m 762.37134,696.70038 c 0.6517,-1.94055 -0.28449,-5.33908 -2.32503,-6.57355"
               style="fill:none;stroke:#000000;stroke-width:2.61538;stroke-linecap:round;stroke-linejoin:round;stroke-miterlimit:10;stroke-dasharray:none;stroke-opacity:1"
               id="path1202" />
          </g>
        </g>
        <g
           id="g1204"
           transform="matrix(1,0,0,-1,0,792)">
          <g
             id="g1206">
            <path
               d="m 731.11035,696.96985 c 0.21901,1.33107 -2.19875,-6.03813 -4.33258,-5.96621"
               style="fill:none;stroke:#000000;stroke-width:2.61538;stroke-linecap:round;stroke-linejoin:round;stroke-miterlimit:10;stroke-dasharray:none;stroke-opacity:1"
               id="path1208" />
          </g>
        </g>
        <g
           id="g1210"
           transform="matrix(1,0,0,-1,0,792)">
          <g
             id="g1212">
            <path
               d="m 725.0304,624.67261 c 9.88203,7.39341 27.15518,0.62305 25.23273,-11.44776 0.81138,-16.02316 -27.38478,-19.5578 -28.84453,-2.28071 -2.31809,5.35101 2.45373,11.87888 5.6098,14.06369"
               style="fill:none;stroke:#000000;stroke-width:2.61538;stroke-linecap:round;stroke-linejoin:round;stroke-miterlimit:10;stroke-dasharray:none;stroke-opacity:1"
               id="path1214" />
          </g>
        </g>
        <g
           id="g1216"
           transform="matrix(1,0,0,-1,0,792)">
          <g
             id="g1218">
            <path
               d="m 725.0304,624.67261 c -7.96107,-11.52089 15.40417,-24.07541 25.23273,-11.44776"
               style="fill:none;stroke:#000000;stroke-width:2.61538;stroke-linecap:round;stroke-linejoin:round;stroke-miterlimit:10;stroke-dasharray:none;stroke-opacity:1"
               id="path1220"
               sodipodi:nodetypes="cc" />
          </g>
        </g>
        <g
           id="g1222"
           transform="matrix(1,0,0,-1,0,792)">
          <g
             id="g1224">
            <path
               d="m 1104.2997,599.95026 c -18.8581,8.00521 0.8,35.95501 16.3611,25.70998 17.2397,-5.96358 6.1003,-34.99984 -11.2072,-26.9745 -4.7735,0.79466 -8.6888,4.82465 -9.9876,9.34191"
               style="fill:none;stroke:#000000;stroke-width:2.61538;stroke-linecap:round;stroke-linejoin:round;stroke-miterlimit:10;stroke-dasharray:none;stroke-opacity:1"
               id="path1226" />
          </g>
        </g>
        <g
           id="g1228"
           transform="matrix(1,0,0,-1,0,792)">
          <g
             id="g1230">
            <path
               d="m 1098.283,614.10236 c 6.1564,-13.56854 28.8397,-3.57532 23.2393,9.74038"
               style="fill:none;stroke:#000000;stroke-width:2.61538;stroke-linecap:round;stroke-linejoin:round;stroke-miterlimit:10;stroke-dasharray:none;stroke-opacity:1"
               id="path1232" />
          </g>
        </g>
        <g
           id="g1234"
           transform="matrix(1,0,0,-1,0,792)">
          <g
             id="g1236">
            <path
               d="m 1077.3917,610.84686 c 12.8907,-10.36453 26.0537,-20.61174 36.1909,-33.55001"
               style="fill:none;stroke:#000000;stroke-width:2.61538;stroke-linecap:round;stroke-linejoin:round;stroke-miterlimit:10;stroke-dasharray:none;stroke-opacity:1"
               id="path1238" />
          </g>
        </g>
        <g
           id="g1240"
           transform="matrix(1,0,0,-1,0,792)">
          <g
             id="g1242">
            <path
               d="m 1113.6216,576.70837 c 4.9931,-44.37568 -1.6947,-91.93193 -0.8335,-137.43726 -0.2643,-2.75086 -2.9001,-7.25704 -5.5779,-7.6753"
               style="fill:none;stroke:#000000;stroke-width:2.61538;stroke-linecap:round;stroke-linejoin:round;stroke-miterlimit:10;stroke-dasharray:none;stroke-opacity:1"
               id="path1244"
               sodipodi:nodetypes="ccc" />
          </g>
        </g>
        <g
           id="g1246"
           transform="matrix(1,0,0,-1,0,792)">
          <g
             id="g1248">
            <path
               d="m 773.68781,611.75342 c 0,0 197.81653,6.48116 303.70389,-0.90656"
               style="fill:none;stroke:#000000;stroke-width:2.61538;stroke-linecap:round;stroke-linejoin:round;stroke-miterlimit:10;stroke-dasharray:none;stroke-opacity:1"
               id="path1250"
               sodipodi:nodetypes="cc" />
          </g>
        </g>
        <g
           id="g1252"
           transform="matrix(1,0,0,-1,0,792)">
          <g
             id="g1254">
            <path
               d="m 735.40918,573.03833 c 11.81381,10.91683 25.1512,31.11602 39.42124,38.88458"
               style="fill:none;stroke:#000000;stroke-width:2.61538;stroke-linecap:round;stroke-linejoin:round;stroke-miterlimit:10;stroke-dasharray:none;stroke-opacity:1"
               id="path1256"
               sodipodi:nodetypes="cc" />
          </g>
        </g>
        <g
           id="g1258"
           transform="matrix(1,0,0,-1,0,792)">
          <g
             id="g1260">
            <path
               d="m 735.40918,573.03833 c 1.66071,-18.55666 -0.34381,-42.20626 0.1738,-62.75957 -0.16074,-22.92215 -0.21025,-46.39963 -1.32588,-67.96132 1.53173,-2.58035 -0.60288,-7.22471 4.2608,-7.66099"
               style="fill:none;stroke:#000000;stroke-width:2.61538;stroke-linecap:round;stroke-linejoin:round;stroke-miterlimit:10;stroke-dasharray:none;stroke-opacity:1"
               id="path1262" />
          </g>
        </g>
        <g
           id="g1264"
           transform="matrix(1,0,0,-1,0,792)">
          <g
             id="g1266">
            <path
               d="m 738.5179,434.65645 c 37.81143,-1.61386 75.42303,-1.30769 113.4857,-2.73574 68.27617,-2.99875 136.54637,-2.84199 204.7944,-4.71343 20.2586,-1.13969 43.7068,-1.79011 52.9722,6.18282 1.0534,0.86007 3.693,5.08301 3.0179,5.88101"
               style="fill:none;stroke:#000000;stroke-width:2.61538;stroke-linecap:round;stroke-linejoin:round;stroke-miterlimit:10;stroke-dasharray:none;stroke-opacity:1"
               id="path1268"
               sodipodi:nodetypes="ccccc" />
          </g>
        </g>
        <g
           id="g1270"
           transform="matrix(1,0,0,-1,0,792)">
          <g
             id="g1272">
            <path
               d="m 826.79144,550.22546 c 40.2423,5.62761 81.55399,0.58004 122.24494,-1.33575 28.00501,-0.87476 57.17872,3.96687 84.41382,-2.93206 28.5523,-10.47791 26.5527,-55.468 3.8985,-68.44427 -5.9202,-4.3132 -10.7081,-6.1049 -16.0491,-5.62089"
               style="fill:none;stroke:#000000;stroke-width:2.61538;stroke-linecap:round;stroke-linejoin:round;stroke-miterlimit:10;stroke-dasharray:none;stroke-opacity:1"
               id="path1274"
               sodipodi:nodetypes="ccccc" />
          </g>
        </g>
        <g
           id="g1276"
           transform="matrix(1,0,0,-1,0,792)">
          <g
             id="g1278">
            <path
               d="m 845.83063,552.24847 c -28.88501,2.20836 -57.2539,-20.08075 -51.45389,-47.69182 6.27478,-24.27811 35.04773,-37.75702 59.74482,-31.88578 l 121.90401,-1.7464"
               style="fill:none;stroke:#000000;stroke-width:2.61538;stroke-linecap:round;stroke-linejoin:round;stroke-miterlimit:10;stroke-dasharray:none;stroke-opacity:1"
               id="path1280"
               sodipodi:nodetypes="cccc" />
          </g>
        </g>
        <g
           id="g1282"
           transform="matrix(1,0,0,-1,0,792)">
          <g
             id="g1284">
            <path
               d="m 976.02557,470.92447 c 0,0 60.48223,0.96717 45.27403,0.96802"
               style="fill:none;stroke:#000000;stroke-width:2.61538;stroke-linecap:round;stroke-linejoin:round;stroke-miterlimit:10;stroke-dasharray:none;stroke-opacity:1"
               id="path1286"
               sodipodi:nodetypes="cc" />
          </g>
        </g>
        <g
           id="g1288"
           transform="matrix(1,0,0,-1,0,792)">
          <g
             id="g1290">
            <path
               d="m 755.30469,682.263 c -3.61078,-19.05207 -4.90011,-45.06508 18.42432,-52.53052 16.80322,-4.48568 34.43966,7.36684 35.97381,21.93738 3.12415,10.07323 1.93044,23.73515 2.96364,31.53685 0.53507,0.10519 0.0905,0.32006 0,0"
               style="fill:none;stroke:#000000;stroke-width:2.61538;stroke-linecap:round;stroke-linejoin:round;stroke-miterlimit:10;stroke-dasharray:none;stroke-opacity:1"
               id="path1292"
               sodipodi:nodetypes="ccccc" />
          </g>
        </g>
        <g
           id="g1294"
           transform="matrix(1,0,0,-1,0,792)">
          <g
             id="g1296">
            <path
               d="m 755.30469,682.263 c 19.47385,0.54929 37.94264,-1.04074 57.36177,0.94371 v 0"
               style="fill:none;stroke:#000000;stroke-width:2.61538;stroke-linecap:round;stroke-linejoin:round;stroke-miterlimit:10;stroke-dasharray:none;stroke-opacity:1"
               id="path1298"
               sodipodi:nodetypes="ccc" />
          </g>
        </g>
        <g
           id="g1300"
           transform="matrix(1,0,0,-1,0,792)">
          <g
             id="g1302">
            <path
               d="m 751.84955,690.13898 c 19.84632,-1.12516 40.9015,-1.00271 60.50962,-0.11721 l -0.6004,-0.0731"
               style="fill:none;stroke:#000000;stroke-width:2.61538;stroke-linecap:round;stroke-linejoin:round;stroke-miterlimit:10;stroke-dasharray:none;stroke-opacity:1"
               id="path1304" />
          </g>
        </g>
        <g
           id="g1306"
           transform="matrix(1,0,0,-1,0,792)">
          <g
             id="g1308">
            <path
               d="m 885.87671,635.72119 c 23.97902,0.46912 52.17391,1.55715 75.48364,-0.70988"
               style="fill:none;stroke:#000000;stroke-width:1.30769;stroke-linecap:round;stroke-linejoin:round;stroke-miterlimit:10;stroke-dasharray:none;stroke-opacity:1"
               id="path1310" />
          </g>
        </g>
        <g
           id="g1312"
           transform="matrix(1,0,0,-1,0,792)">
          <g
             id="g1314">
            <path
               d="m 876.89258,688.17596 c 29.797,-1.11969 62.7657,1.16779 90.48326,1.04244"
               style="fill:none;stroke:#000000;stroke-width:1.30769;stroke-linecap:round;stroke-linejoin:round;stroke-miterlimit:10;stroke-dasharray:none;stroke-opacity:1"
               id="path1316" />
          </g>
        </g>
        <g
           id="g1318"
           transform="matrix(1,0,0,-1,0,792)">
          <g
             id="g1320">
            <path
               d="m 756.49786,584.19922 c 54.9396,1.09317 110.02101,-1.52722 165.00662,-0.51458 55.1646,-4.15406 110.45542,-1.74386 165.64662,0.55543 l -1.0328,-0.1543"
               style="fill:none;stroke:#000000;stroke-width:1.30769;stroke-linecap:round;stroke-linejoin:round;stroke-miterlimit:10;stroke-dasharray:none;stroke-opacity:1"
               id="path1322" />
          </g>
        </g>
        <g
           id="g1324"
           transform="matrix(1,0,0,-1,0,792)">
          <g
             id="g1326">
            <path
               d="m 745.67059,569.26678 c 34.05812,2.63674 68.81833,1.26192 103.19416,0.72262 41.54523,0.82942 83.03323,-0.48247 124.57856,1.17915 42.44849,1.14973 84.78459,-4.05278 127.06289,-4.28923 l -0.4525,-0.0895"
               style="fill:none;stroke:#000000;stroke-width:1.30769;stroke-linecap:round;stroke-linejoin:round;stroke-miterlimit:10;stroke-dasharray:none;stroke-opacity:1"
               id="path1328" />
          </g>
        </g>
        <g
           id="g1330"
           transform="matrix(1,0,0,-1,0,792)">
          <g
             id="g1332">
            <path
               d="m 746.06812,454.46191 c 52.7223,2.72602 105.54897,2.36816 158.30009,0.9315 52.1118,2.43965 104.16199,-4.67314 156.30799,-0.46518 13.4529,-0.56326 28.4754,0.16631 41.0158,0.0826"
               style="fill:none;stroke:#000000;stroke-width:1.30769;stroke-linecap:round;stroke-linejoin:round;stroke-miterlimit:10;stroke-dasharray:none;stroke-opacity:1"
               id="path1334" />
          </g>
        </g>
        <g
           id="g1336"
           transform="matrix(1,0,0,-1,0,792)">
          <g
             id="g1338">
            <path
               d="m 925.75049,565.4151 c 6.51712,-2.13461 13.38096,-5.19018 19.48768,-8.29654"
               style="fill:none;stroke:#000000;stroke-width:1.30769;stroke-linecap:round;stroke-linejoin:round;stroke-miterlimit:10;stroke-dasharray:none;stroke-opacity:1"
               id="path1340" />
          </g>
        </g>
        <g
           id="g1342"
           transform="matrix(1,0,0,-1,0,792)">
          <g
             id="g1344">
            <path
               d="m 925.64899,563.83307 c 1.68556,0.38354 -2.12444,-1.25318 0.11977,-1.66691"
               style="fill:none;stroke:#000000;stroke-width:1.30769;stroke-linecap:round;stroke-linejoin:round;stroke-miterlimit:10;stroke-dasharray:none;stroke-opacity:1"
               id="path1346" />
          </g>
        </g>
        <g
           id="g1348"
           transform="matrix(1,0,0,-1,0,792)">
          <g
             id="g1350">
            <path
               d="m 904.41095,561.29089 c 6.47308,0.16172 12.84053,-1.24736 19.31787,-0.7853"
               style="fill:none;stroke:#000000;stroke-width:1.30769;stroke-linecap:round;stroke-linejoin:round;stroke-miterlimit:10;stroke-dasharray:none;stroke-opacity:1"
               id="path1352" />
          </g>
        </g>
        <g
           id="g1354"
           transform="matrix(1,0,0,-1,0,792)">
          <g
             id="g1356">
            <path
               d="m 905.06665,561.00385 c -0.0196,0.11594 0.13322,-2.08852 -0.14441,-2.9215"
               style="fill:none;stroke:#000000;stroke-width:1.30769;stroke-linecap:round;stroke-linejoin:round;stroke-miterlimit:10;stroke-dasharray:none;stroke-opacity:1"
               id="path1358" />
          </g>
        </g>
        <g
           id="g1360"
           transform="matrix(1,0,0,-1,0,792)">
          <g
             id="g1362">
            <path
               d="m 905.23615,556.83972 c 13.16364,1.05234 26.79221,0.51637 40.10491,0.9961"
               style="fill:none;stroke:#000000;stroke-width:1.30769;stroke-linecap:round;stroke-linejoin:round;stroke-miterlimit:10;stroke-dasharray:none;stroke-opacity:1"
               id="path1364" />
          </g>
        </g>
        <g
           id="g1366"
           transform="matrix(1,0,0,-1,0,792)">
          <g
             id="g1368">
            <path
               d="m 844.8313,536.22278 c 3.76016,6.93157 8.682,-0.38116 6.28696,-3.58503 10.51577,2.87672 5.4404,-6.1872 4.35235,-7.63179 -2.70426,-4.00306 12.18461,-1.77123 5.91311,-7.58831 -7.21754,0.55179 -5.54321,-3.89608 -2.283,-9.30752 -1.04385,-4.98421 -7.87765,1.23976 -5.69801,-4.28204 -0.45023,1.2582 -2.71619,-1.96021 -0.93022,-5.25372 -2.70443,-5.19735 -9.33997,6.72699 -9.75635,-0.18195 0.0454,-5.78648 -9.16486,-2.91109 -7.62117,2.08307 -2.98918,2.19494 -5.85378,-4.94853 -9.27924,-1.31298 -1.71702,2.77467 2.57602,8.39825 -2.08914,6.51163 -9.29019,-3.0274 -4.83046,5.81319 -2.0918,6.60809 0.72919,3.81728 -11.40014,3.08386 -5.34475,8.81812 7.01334,-1.28214 7.01544,5.03729 1.10363,7.55284 -1.31568,7.92274 13.34613,0.0418 7.62403,6.76432 -2.0376,5.60313 8.07733,3.30168 7.44468,1.04335 7.61966,-1.98164 -1.49857,7.4203 7.87408,5.69808 5.02894,-1.88564 8.28421,-5.78977 4.73089,-6.31943 l 0.13916,-0.18457"
               style="fill:none;stroke:#000000;stroke-width:1.30769;stroke-linecap:round;stroke-linejoin:round;stroke-miterlimit:10;stroke-dasharray:none;stroke-opacity:1"
               id="path1370" />
          </g>
        </g>
        <g
           id="g1372"
           transform="matrix(1,0,0,-1,0,792)">
          <g
             id="g1374">
            <path
               d="m 884.44653,529.00531 c 29.13743,-0.72716 60.99439,-0.65342 88.55445,-0.96477 l -0.022,-0.29297"
               style="fill:none;stroke:#000000;stroke-width:1.30769;stroke-linecap:round;stroke-linejoin:round;stroke-miterlimit:10;stroke-dasharray:none;stroke-opacity:1"
               id="path1376" />
          </g>
        </g>
        <g
           id="g1378"
           transform="matrix(1,0,0,-1,0,792)">
          <g
             id="g1380">
            <path
               d="m 879.9458,495.27927 c 28.90555,0.70393 58.03703,0.68926 86.88379,-0.63871 l -0.8291,-0.10034"
               style="fill:none;stroke:#000000;stroke-width:1.30769;stroke-linecap:round;stroke-linejoin:round;stroke-miterlimit:10;stroke-dasharray:none;stroke-opacity:1"
               id="path1382" />
          </g>
        </g>
        <g
           id="g1384"
           transform="matrix(1,0,0,-1,0,792)">
          <g
             id="g1386">
            <path
               d="m 970.60199,527.07819 c -0.68927,-10.18651 -2.32112,-25.47869 -2.70398,-33.03069"
               style="fill:none;stroke:#000000;stroke-width:1.30769;stroke-linecap:round;stroke-linejoin:round;stroke-miterlimit:10;stroke-dasharray:none;stroke-opacity:1"
               id="path1388" />
          </g>
        </g>
        <g
           id="g1390"
           transform="matrix(1,0,0,-1,0,792)">
          <g
             id="g1392">
            <path
               d="m 876.05597,526.22107 c 2.45323,-9.50325 0.67846,-26.74463 0.1205,-33.38785"
               style="fill:none;stroke:#000000;stroke-width:1.30769;stroke-linecap:round;stroke-linejoin:round;stroke-miterlimit:10;stroke-dasharray:none;stroke-opacity:1"
               id="path1394" />
          </g>
        </g>
        <g
           id="g1396"
           transform="matrix(1,0,0,-1,0,792)">
          <g
             id="g1398">
            <path
               d="m 909.1626,529.50714 c 6.44729,-5.70122 5.88444,-22.16269 1.42397,-26.52245 3.26479,4.58712 6.32371,14.72488 1.43329,18.84002"
               style="fill:none;stroke:#000000;stroke-width:1.30769;stroke-linecap:round;stroke-linejoin:round;stroke-miterlimit:10;stroke-dasharray:none;stroke-opacity:1"
               id="path1400" />
          </g>
        </g>
        <g
           id="g1402"
           transform="matrix(1,0,0,-1,0,792)">
          <g
             id="g1404">
            <path
               d="m 934.41632,526.67059 c -4.23969,-6.10949 -2.17064,-21.68493 3.00473,-24.67793 -6.40863,4.72818 -5.51199,17.36954 -2.39084,22.96144"
               style="fill:none;stroke:#000000;stroke-width:1.30769;stroke-linecap:round;stroke-linejoin:round;stroke-miterlimit:10;stroke-dasharray:none;stroke-opacity:1"
               id="path1406" />
          </g>
        </g>
        <g
           id="g1408"
           transform="matrix(1,0,0,-1,0,792)">
          <g
             id="g1410">
            <path
               d="m 998.08728,534.37183 c -7.76672,6.11814 -8.71731,-6.24762 -3.31205,-5.78724 1.52863,-1.53913 -13.32175,-2.01892 -6.03253,-7.66581 5.75216,2.38673 3.99777,-2.42445 4.13946,-2.89115 -8.94677,0.23817 -3.59306,-11.67759 1.37376,-7.32378 2.7908,-0.75957 0.81427,-2.44254 -0.64429,-5.56598 -0.15708,-8.12269 14.97967,3.58022 10.52597,-5.91686 0.3421,-6.20213 9.7144,-0.85364 6.7768,2.56848 4.2798,2.62092 6.6757,-7.98238 11.4542,0.20769 -1.4028,2.89021 -2.2522,5.84047 1.4083,3.649 7.5271,-4.33277 7.41,7.86025 4.2959,6.47689 -0.921,3.3321 10.6607,1.17054 7.0219,7.20767 -8.983,0.18031 -4.7517,4.78022 -1.4111,8.41991 -2.6131,4.91395 -9.9381,0.79757 -7.2862,6.58126 3.338,4.24511 -6.5608,5.65604 -7.2212,3.078 -1.1812,1.09555 -3.4988,9.97929 -8.1319,4.11867 0.6386,-5.59875 -3.9186,-0.26464 -7.6308,0.75179 -8.02201,-1.85632 3.0958,-8.82319 -5.52299,-8.56515"
               style="fill:none;stroke:#000000;stroke-width:1.30769;stroke-linecap:round;stroke-linejoin:round;stroke-miterlimit:10;stroke-dasharray:none;stroke-opacity:1"
               id="path1412" />
          </g>
        </g>
        <g
           id="g1414"
           transform="matrix(1,0,0,-1,0,792)">
          <g
             id="g1416">
            <path
               d="m 747.8371,440.267 c 2.3062,0.31742 5.94136,-0.67745 8.69443,-0.24075"
               style="fill:none;stroke:#000000;stroke-width:1.30769;stroke-linecap:round;stroke-linejoin:round;stroke-miterlimit:10;stroke-dasharray:none;stroke-opacity:1"
               id="path1418" />
          </g>
        </g>
        <g
           id="g1420"
           transform="matrix(1,0,0,-1,0,792)">
          <g
             id="g1422">
            <path
               d="m 764.61774,437.88162 c 18.47472,-0.42582 36.94145,-0.59067 55.38568,1.11179"
               style="fill:none;stroke:#000000;stroke-width:1.30769;stroke-linecap:round;stroke-linejoin:round;stroke-miterlimit:10;stroke-dasharray:none;stroke-opacity:1"
               id="path1424" />
          </g>
        </g>
        <g
           id="g1426"
           transform="matrix(1,0,0,-1,0,792)">
          <g
             id="g1428">
            <path
               d="m 831.16986,440.82416 c 4.64812,0.26228 10.07018,1.18482 15.03259,0.88064"
               style="fill:none;stroke:#000000;stroke-width:1.30769;stroke-linecap:round;stroke-linejoin:round;stroke-miterlimit:10;stroke-dasharray:none;stroke-opacity:1"
               id="path1430" />
          </g>
        </g>
        <g
           id="g1432"
           transform="matrix(1,0,0,-1,0,792)">
          <g
             id="g1434">
            <path
               d="m 854.79547,437.83545 c 19.46122,-1.24571 40.47102,1.03514 58.92871,-0.71391"
               style="fill:none;stroke:#000000;stroke-width:1.30769;stroke-linecap:round;stroke-linejoin:round;stroke-miterlimit:10;stroke-dasharray:none;stroke-opacity:1"
               id="path1436" />
          </g>
        </g>
        <g
           id="g1438"
           transform="matrix(1,0,0,-1,0,792)">
          <g
             id="g1440">
            <path
               d="m 920.06635,440.55063 c 9.19244,-0.16755 18.3498,-1.41379 27.55792,-0.62218"
               style="fill:none;stroke:#000000;stroke-width:1.30769;stroke-linecap:round;stroke-linejoin:round;stroke-miterlimit:10;stroke-dasharray:none;stroke-opacity:1"
               id="path1442" />
          </g>
        </g>
        <g
           id="g1444"
           transform="matrix(1,0,0,-1,0,792)">
          <g
             id="g1446">
            <path
               d="m 952.86224,437.52991 c 19.7866,0.5215 43.41393,-1.00724 60.57456,-2.00932"
               style="fill:none;stroke:#000000;stroke-width:1.30769;stroke-linecap:round;stroke-linejoin:round;stroke-miterlimit:10;stroke-dasharray:none;stroke-opacity:1"
               id="path1448" />
          </g>
        </g>
        <g
           id="g1450"
           transform="matrix(1,0,0,-1,0,792)">
          <g
             id="g1452">
            <path
               d="m 1016.6744,441.06824 c 5.8343,0.54733 13.4603,0.4889 19.9324,0.49236"
               style="fill:none;stroke:#000000;stroke-width:1.30769;stroke-linecap:round;stroke-linejoin:round;stroke-miterlimit:10;stroke-dasharray:none;stroke-opacity:1"
               id="path1454" />
          </g>
        </g>
        <g
           id="g1456"
           transform="matrix(1,0,0,-1,0,792)">
          <g
             id="g1458">
            <path
               d="m 1042.827,438.13611 c 19.4054,-0.28583 41.1595,0.7976 59.1159,-1.36277"
               style="fill:none;stroke:#000000;stroke-width:1.30769;stroke-linecap:round;stroke-linejoin:round;stroke-miterlimit:10;stroke-dasharray:none;stroke-opacity:1"
               id="path1460" />
          </g>
        </g>
        <g
           id="g1462"
           transform="matrix(1,0,0,-1,0,792)">
          <g
             id="g1464">
            <path
               d="m 1118.4636,414.81012 c -1.756,4.93338 -0.9719,10.41273 0.7053,15.25685 0.8185,2.07904 2.0102,4.4159 4.2503,5.1998 2.6386,0.52488 4.5538,-1.91274 5.8111,-3.877 0.9419,-1.39315 0.2735,-3.25379 0.4261,-4.85729 -0.1863,-4.5219 -0.5406,-9.15428 -2.1847,-13.40971 -0.4806,-1.68858 -2.5844,-2.9812 -3.9957,-1.44364 0,0 -4.4251,1.34661 -5.0124,3.13099"
               style="fill:none;stroke:#000000;stroke-width:1.30769;stroke-linecap:round;stroke-linejoin:round;stroke-miterlimit:10;stroke-dasharray:none;stroke-opacity:1"
               id="path1466"
               sodipodi:nodetypes="cccccccc" />
          </g>
        </g>
        <g
           id="g1468"
           transform="matrix(1,0,0,-1,0,792)">
          <g
             id="g1470">
            <path
               d="m 1012.8595,662.95251 c 2.5714,4.31919 -4.1338,16.53114 5.863,11.02441 10.4807,2.9438 6.7791,-5.85189 7.4468,-10.54792 -4.015,-1.10741 -12.0924,0.24856 -14.4559,-0.1575"
               style="fill:none;stroke:#000000;stroke-width:1.30769;stroke-linecap:round;stroke-linejoin:round;stroke-miterlimit:10;stroke-dasharray:none;stroke-opacity:1"
               id="path1472" />
          </g>
        </g>
        <g
           id="g1474"
           transform="matrix(1,0,0,-1,0,792)">
          <g
             id="g1476">
            <path
               d="m 1012.6068,650.50696 c 3.1612,1.3422 10.0132,0.1815 11.6001,0.20869"
               style="fill:none;stroke:#000000;stroke-width:1.30769;stroke-linecap:round;stroke-linejoin:round;stroke-miterlimit:10;stroke-dasharray:none;stroke-opacity:1"
               id="path1478" />
          </g>
        </g>
        <g
           id="g1480"
           transform="matrix(1,0,0,-1,0,792)">
          <g
             id="g1482">
            <path
               d="m 737.49957,536.29572 c 21.19807,1.19096 44.56714,3.36586 64.77533,2.06952"
               style="fill:none;stroke:#000000;stroke-width:1.30769;stroke-linecap:round;stroke-linejoin:round;stroke-miterlimit:10;stroke-dasharray:none;stroke-opacity:1"
               id="path1484" />
          </g>
        </g>
        <g
           id="g1486"
           transform="matrix(1,0,0,-1,0,792)">
          <g
             id="g1488">
            <path
               d="m 736.68793,488.28033 c 20.50644,1.95208 42.90201,4.31356 62.22955,2.32172"
               style="fill:none;stroke:#000000;stroke-width:1.30769;stroke-linecap:round;stroke-linejoin:round;stroke-miterlimit:10;stroke-dasharray:none;stroke-opacity:1"
               id="path1490" />
          </g>
        </g>
        <g
           id="g1492"
           transform="matrix(1,0,0,-1,0,792)">
          <g
             id="g1494">
            <path
               d="m 1046.6445,535.13452 c 21.6916,-1.00648 43.5897,1.75837 65.2672,1.35118"
               style="fill:none;stroke:#000000;stroke-width:1.30769;stroke-linecap:round;stroke-linejoin:round;stroke-miterlimit:10;stroke-dasharray:none;stroke-opacity:1"
               id="path1496" />
          </g>
        </g>
        <g
           id="g1498"
           transform="matrix(1,0,0,-1,0,792)">
          <g
             id="g1500">
            <path
               d="m 1051.137,489.39868 c 20.6943,-3.09387 42.2687,-1.22272 62.4272,-1.95573"
               style="fill:none;stroke:#000000;stroke-width:1.30769;stroke-linecap:round;stroke-linejoin:round;stroke-miterlimit:10;stroke-dasharray:none;stroke-opacity:1"
               id="path1502" />
          </g>
        </g>
      </g>
    </g>
  </g>
</svg>
