<?xml version="1.0" encoding="UTF-8" standalone="no"?>
<!-- Created by Ashley Blewer - This work is licensed under a Creative Commons Attribution 4.0 International License -->

<svg width="544" height="480" viewBox="0 0 143.93334 127" version="1.1" id="svg2490" inkscape:version="1.1.2 (08b2f3d93c, 2022-04-05)" sodipodi:docname="1993-vcd-1.svg"
   xmlns:inkscape="http://www.inkscape.org/namespaces/inkscape"
   xmlns:sodipodi="http://sodipodi.sourceforge.net/DTD/sodipodi-0.dtd"
   xmlns="http://www.w3.org/2000/svg"
   xmlns:svg="http://www.w3.org/2000/svg">
   <sodipodi:namedview id="namedview2492" pagecolor="#ffffff" bordercolor="#666666" borderopacity="1.0" inkscape:pageshadow="2" inkscape:pageopacity="0.0" inkscape:pagecheckerboard="0" inkscape:document-units="mm" showgrid="false" units="px" inkscape:zoom="0.90583674" inkscape:cx="279.29978" inkscape:cy="194.84747" inkscape:window-width="1848" inkscape:window-height="1136" inkscape:window-x="72" inkscape:window-y="27" inkscape:window-maximized="1" inkscape:current-layer="layer1" />
   <defs id="defs2487" />
   <g inkscape:label="Layer 1" inkscape:groupmode="layer" id="layer1">
      <g id="g3188" transform="matrix(0.38100383,0,0,0.38138174,-307.10241,-157.34165)" style="stroke-width:0.642585">
         <g id="g86" transform="matrix(1,0,0,-1,0,792)" style="stroke-width:0.642585">
            <g id="g88" style="stroke-width:0.642585">
               <path d="m 1059.0121,157.05147 c -24.2512,36.4699 -38.9351,83.64166 -23.6787,126.50338 5.4315,16.27824 21.0158,32.91902 39.6806,28.81725 37.2833,-6.36087 61.2981,-41.01957 73.7333,-74.16768 8.5223,-26.79841 15.5641,-56.04248 8.8355,-84.00427 -3.8401,-15.28637 -13.6411,-35.25407 -26.8524,-37.92027 -30.1361,-3.55627 -55.2804,19.04711 -72.3156,41.29661 -1.1056,1.723 -2.0761,3.53938 -2.8069,5.45443" style="fill:none;stroke:#000000;stroke-width:1.6806;stroke-linecap:round;stroke-linejoin:round;stroke-miterlimit:10;stroke-dasharray:none;stroke-opacity:1" id="path90" sodipodi:nodetypes="cccccccc" />
            </g>
         </g>
         <g id="g92" transform="matrix(1,0,0,-1,0,792)" style="stroke-width:0.642585">
            <g id="g94" style="stroke-width:0.642585">
               <path d="m 1037.308,290.9509 c -12.8854,20.7682 -30.9715,39.95973 -55.26888,46.54458 -41.40685,15.52355 -90.44398,5.65435 -124.65803,-21.62228 -31.15507,-26.7576 -47.52105,-75.12944 -27.47309,-113.09332 15.95736,-32.40651 50.81448,-51.89554 86.09504,-54.71069 43.33163,-4.4348 91.29376,13.03307 114.74226,51.15925 1.449,3.01884 2.4957,6.20917 3.4227,9.41974" style="fill:none;stroke:#000000;stroke-width:1.6806;stroke-linecap:round;stroke-linejoin:round;stroke-miterlimit:10;stroke-dasharray:none;stroke-opacity:1" id="path96" />
            </g>
         </g>
         <g id="g98" transform="matrix(1,0,0,-1,0,792)" style="stroke-width:0.642585">
            <g id="g100" style="stroke-width:0.642585">
               <path d="m 835.17029,192.17128 c 0.69875,-38.72038 29.35671,-75.83974 64.09136,-90.13791 24.04272,-9.357302 50.86116,-7.20639 75.54402,-1.96262 33.68693,9.5605 66.97443,35.78588 74.92923,71.25122" style="fill:none;stroke:#000000;stroke-width:1.6806;stroke-linecap:round;stroke-linejoin:round;stroke-miterlimit:10;stroke-dasharray:none;stroke-opacity:1" id="path102" sodipodi:nodetypes="cccc" />
            </g>
         </g>
         <g id="g104" transform="matrix(1,0,0,-1,0,792)" style="stroke-width:0.642585">
            <g id="g106" style="stroke-width:0.642585">
               <path d="m 932.80463,249.49695 c -21.91289,12.27825 23.42812,24.87848 12.15157,2.93334 -3.62848,-4.1907 -10.80211,-4.35834 -15.01423,-0.9853" style="fill:none;stroke:#000000;stroke-width:1.6806;stroke-linecap:round;stroke-linejoin:round;stroke-miterlimit:10;stroke-dasharray:none;stroke-opacity:1" id="path108" />
            </g>
         </g>
         <g id="g110" transform="matrix(1,0,0,-1,0,792)" style="stroke-width:0.642585">
            <g id="g112" style="stroke-width:0.642585">
               <path d="m 923.89209,258.35016 c -8.89782,-22.9654 40.14959,-16.54966 19.6267,1.80165" style="fill:none;stroke:#000000;stroke-width:1.6806;stroke-linecap:round;stroke-linejoin:round;stroke-miterlimit:10;stroke-dasharray:none;stroke-opacity:1" id="path114" />
            </g>
         </g>
         <g id="g116" transform="matrix(1,0,0,-1,0,792)" style="stroke-width:0.642585">
            <g id="g118" style="stroke-width:0.642585">
               <path d="m 935.57538,262.8446 c -13.66163,-6.64612 9.00902,-13.30248 4.81061,-2.28792 l -3.04338,0.8962 -3.15027,0.39912" style="fill:none;stroke:#000000;stroke-width:1.6806;stroke-linecap:round;stroke-linejoin:round;stroke-miterlimit:10;stroke-dasharray:none;stroke-opacity:1" id="path120" />
            </g>
         </g>
         <g id="g122" transform="matrix(1,0,0,-1,0,792)" style="stroke-width:0.642585">
            <g id="g124" style="stroke-width:0.642585">
               <path d="m 929.49701,282.69208 c 21.25654,5.24136 45.78709,-18.51001 35.83784,-39.71507 -9.03603,-27.35214 -53.57195,-28.48409 -64.02188,-1.72992 -8.84793,20.89705 12.30203,41.12439 32.28823,41.85582" style="fill:none;stroke:#000000;stroke-width:1.6806;stroke-linecap:round;stroke-linejoin:round;stroke-miterlimit:10;stroke-dasharray:none;stroke-opacity:1" id="path126" />
            </g>
         </g>
         <g id="g128" transform="matrix(1,0,0,-1,0,792)" style="stroke-width:0.642585">
            <g id="g130" style="stroke-width:0.642585">
               <path d="m 1083.5535,241.38962 c -10.0529,-18.13309 5.7858,-48.9849 23.0488,-52.28661 15.5471,0.25658 14.7565,28.42972 9.0982,41.13157 -4.8219,12.7494 -20.9899,23.71618 -32.147,11.15504" style="fill:none;stroke:#000000;stroke-width:0.8403;stroke-linecap:round;stroke-linejoin:round;stroke-miterlimit:10;stroke-dasharray:none;stroke-opacity:1" id="path132" sodipodi:nodetypes="cccc" />
            </g>
         </g>
         <g id="g134" transform="matrix(1,0,0,-1,0,792)" style="stroke-width:0.642585">
            <g id="g136" style="stroke-width:0.642585">
               <path d="m 1093.3865,231.37666 c -10.3987,-5.11991 2.6097,-30.63616 15.5097,-26.37265 9.845,4.95626 -2.2199,31.69024 -15.5097,26.37265" style="fill:none;stroke:#000000;stroke-width:0.8403;stroke-linecap:round;stroke-linejoin:round;stroke-miterlimit:10;stroke-dasharray:none;stroke-opacity:1" id="path138" sodipodi:nodetypes="ccc" />
            </g>
         </g>
         <g id="g140" transform="matrix(1,0,0,-1,0,792)" style="stroke-width:0.642585">
            <g id="g142" style="stroke-width:0.642585">
               <path d="m 1095.2519,227.79574 c -10.9504,-9.20241 18.9127,-27.00285 12.3596,-7.18648 -1.6921,4.89744 -7.5916,9.68141 -12.3596,7.18648" style="fill:none;stroke:#000000;stroke-width:0.8403;stroke-linecap:round;stroke-linejoin:round;stroke-miterlimit:10;stroke-dasharray:none;stroke-opacity:1" id="path144" sodipodi:nodetypes="ccc" />
            </g>
         </g>
         <g id="g146" transform="matrix(1,0,0,-1,0,792)" style="stroke-width:0.642585">
            <g id="g148" style="stroke-width:0.642585">
               <path d="m 923.06019,266.16992 c -4.13638,-2.3413 -6.9826,-7.28711 -5.75376,-12.07167 1.61658,-7.19861 7.83804,-12.68072 14.61021,-15.05234 5.27479,-1.90067 11.81756,-1.11055 15.6686,3.23598 4.64214,4.6787 4.95596,12.27244 2.10032,17.97407 -2.9378,6.49839 -9.96814,11.70558 -17.33155,10.44718 -3.49255,-0.52852 -6.44329,-2.59157 -9.29382,-4.53322 z" style="fill:none;stroke:#000000;stroke-width:0.8403;stroke-linecap:round;stroke-linejoin:round;stroke-miterlimit:10;stroke-dasharray:none;stroke-opacity:1" id="path150" sodipodi:nodetypes="cccc" />
            </g>
         </g>
         <g id="g152" transform="matrix(1,0,0,-1,0,792)" style="stroke-width:0.642585">
            <g id="g154" style="stroke-width:0.642585">
               <path d="m 839.22656,182.23044 c 16.80789,-21.9642 42.60354,-36.55584 70.22082,-38.89488 35.74958,-5.85789 72.46987,6.1047 102.20712,25.63096 10.2468,8.23477 18.2971,18.80197 25.5732,29.65438" style="fill:none;stroke:#000000;stroke-width:0.8403;stroke-linecap:round;stroke-linejoin:round;stroke-miterlimit:10;stroke-dasharray:none;stroke-opacity:1" id="path156" />
            </g>
         </g>
         <g id="g158" transform="matrix(1,0,0,-1,0,792)" style="stroke-width:0.642585">
            <g id="g160" style="stroke-width:0.642585">
               <path d="m 847.27307,168.87405 c 13.24644,-22.38375 38.87672,-36.83403 65.04265,-34.92112 26.36412,0.76357 51.60581,9.83988 76.40588,17.97083 19.2551,7.47397 39.1058,18.6413 48.309,38.07879 l 1.9394,2.65048" style="fill:none;stroke:#000000;stroke-width:0.8403;stroke-linecap:round;stroke-linejoin:round;stroke-miterlimit:10;stroke-dasharray:none;stroke-opacity:1" id="path162" />
            </g>
         </g>
         <g id="g164" transform="matrix(1,0,0,-1,0,792)" style="stroke-width:0.642585">
            <g id="g166" style="stroke-width:0.642585">
               <path d="m 849.91266,168.79626 c 20.32359,-32.42196 62.52264,-41.15212 98.21836,-37.67762 33.49621,3.12017 70.17538,15.87284 88.25148,46.17876 1.177,2.28878 2.0663,4.74643 2.4339,7.30244" style="fill:none;stroke:#000000;stroke-width:0.8403;stroke-linecap:round;stroke-linejoin:round;stroke-miterlimit:10;stroke-dasharray:none;stroke-opacity:1" id="path168" />
            </g>
         </g>
         <g id="g170" transform="matrix(1,0,0,-1,0,792)" style="stroke-width:0.642585">
            <g id="g172" style="stroke-width:0.642585">
               <path d="m 1040.1941,175.59013 c -19.3623,-30.68497 -56.93489,-39.84712 -89.24449,-50.36907 -35.56078,-8.74234 -78.35425,3.15845 -97.49537,36.11589 -2.05899,3.24545 -3.9015,6.62785 -5.51863,10.11445" style="fill:none;stroke:#000000;stroke-width:0.8403;stroke-linecap:round;stroke-linejoin:round;stroke-miterlimit:10;stroke-dasharray:none;stroke-opacity:1" id="path174" />
            </g>
         </g>
         <g id="g176" transform="matrix(1,0,0,-1,0,792)" style="stroke-width:0.642585">
            <g id="g178" style="stroke-width:0.642585">
               <path d="m 846.14557,172.1944 c 21.62015,-45.99296 78.80812,-71.5178 127.32074,-55.4111 26.40191,7.79397 50.76369,25.06892 63.78619,49.7083 l 0.1419,1.78722 -0.2249,1.7911" style="fill:none;stroke:#000000;stroke-width:0.8403;stroke-linecap:round;stroke-linejoin:round;stroke-miterlimit:10;stroke-dasharray:none;stroke-opacity:1" id="path180" />
            </g>
         </g>
         <g id="g182" transform="matrix(1,0,0,-1,0,792)" style="stroke-width:0.642585">
            <g id="g184" style="stroke-width:0.642585">
               <path d="m 1040.8638,174.29187 c -23.8592,-36.29303 -68.85654,-51.43981 -110.445,-53.70512 -29.19556,-0.58331 -57.85197,13.66362 -75.50638,36.8245 -4.67601,4.78773 -9.36849,9.71428 -12.57392,15.64934" style="fill:none;stroke:#000000;stroke-width:0.8403;stroke-linecap:round;stroke-linejoin:round;stroke-miterlimit:10;stroke-dasharray:none;stroke-opacity:1" id="path186" />
            </g>
         </g>
         <g id="g188" transform="matrix(1,0,0,-1,0,792)" style="stroke-width:0.642585">
            <g id="g190" style="stroke-width:0.642585">
               <path d="m 846.40356,175.06511 c 11.42721,-33.07476 48.46185,-49.29176 81.5192,-48.08373 36.09066,-1.36862 76.26374,4.3174 102.78934,31.12001 4.7567,5.47376 8.457,11.74055 12.2288,17.90318" style="fill:none;stroke:#000000;stroke-width:0.8403;stroke-linecap:round;stroke-linejoin:round;stroke-miterlimit:10;stroke-dasharray:none;stroke-opacity:1" id="path192" />
            </g>
         </g>
         <g id="g194" transform="matrix(1,0,0,-1,0,792)" style="stroke-width:0.642585">
            <g id="g196" style="stroke-width:0.642585">
               <path d="m 1036.9154,186.49976 c -19.3456,-28.29617 -53.44348,-40.52628 -84.70261,-50.51962 -36.71979,-9.38061 -82.70977,-2.07583 -104.88679,31.53274 -1.77194,2.46176 -3.46587,4.97882 -5.11487,7.52428" style="fill:none;stroke:#000000;stroke-width:0.8403;stroke-linecap:round;stroke-linejoin:round;stroke-miterlimit:10;stroke-dasharray:none;stroke-opacity:1" id="path198" />
            </g>
         </g>
         <g id="g200" transform="matrix(1,0,0,-1,0,792)" style="stroke-width:0.642585">
            <g id="g202" style="stroke-width:0.642585">
               <path d="m 845.16339,178.9872 c 10.4065,-26.77531 41.73335,-35.31025 67.77912,-36.58955 38.04674,-3.36466 79.52452,4.5661 107.73809,31.99376 5.1421,3.9642 11.2314,8.19202 12.4841,15.05441" style="fill:none;stroke:#000000;stroke-width:0.8403;stroke-linecap:round;stroke-linejoin:round;stroke-miterlimit:10;stroke-dasharray:none;stroke-opacity:1" id="path204" />
            </g>
         </g>
         <g id="g206" transform="matrix(1,0,0,-1,0,792)" style="stroke-width:0.642585">
            <g id="g208" style="stroke-width:0.642585">
               <path d="m 1033.198,195.21358 c -20.8184,-26.1084 -53.15676,-38.5668 -84.60133,-46.3368 -27.65159,-8.67432 -61.25745,-11.93815 -85.02435,8.04435 -9.7038,6.58157 -20.58694,13.06503 -25.63159,24.19262" style="fill:none;stroke:#000000;stroke-width:0.8403;stroke-linecap:round;stroke-linejoin:round;stroke-miterlimit:10;stroke-dasharray:none;stroke-opacity:1" id="path210" />
            </g>
         </g>
         <g id="g212" transform="matrix(1,0,0,-1,0,792)" style="stroke-width:0.642585">
            <g id="g214" style="stroke-width:0.642585">
               <path d="m 844.76416,178.10779 c 6.32603,-24.67698 33.49672,-34.74426 56.25151,-37.79071 46.08512,-7.02595 98.28287,3.5689 130.01963,39.92039 1.7861,1.6497 3.6466,3.22174 5.6075,4.6608" style="fill:none;stroke:#000000;stroke-width:0.8403;stroke-linecap:round;stroke-linejoin:round;stroke-miterlimit:10;stroke-dasharray:none;stroke-opacity:1" id="path216" />
            </g>
         </g>
         <g id="g218" transform="matrix(1,0,0,-1,0,792)" style="stroke-width:0.642585">
            <g id="g220" style="stroke-width:0.642585">
               <path d="m 1034.5161,182.50745 c -22.6267,-40.29263 -72.86365,-62.35625 -117.8225,-51.16672 -25.76533,5.51853 -50.826,18.92127 -66.5573,40.45706 l -1.54176,1.17169" style="fill:none;stroke:#000000;stroke-width:0.8403;stroke-linecap:round;stroke-linejoin:round;stroke-miterlimit:10;stroke-dasharray:none;stroke-opacity:1" id="path222" />
            </g>
         </g>
         <g id="g224" transform="matrix(1,0,0,-1,0,792)" style="stroke-width:0.642585">
            <g id="g226" style="stroke-width:0.642585">
               <path d="m 841.98871,182.19281 c 13.79455,-35.17077 50.39483,-61.02057 88.71074,-57.88061 40.24656,0.13374 82.45895,17.51074 104.86515,52.15214 0.2055,0.91844 -1.0109,-0.0375 -0.9299,-0.16711" style="fill:none;stroke:#000000;stroke-width:0.8403;stroke-linecap:round;stroke-linejoin:round;stroke-miterlimit:10;stroke-dasharray:none;stroke-opacity:1" id="path228" />
            </g>
         </g>
         <g id="g230" transform="matrix(1,0,0,-1,0,792)" style="stroke-width:0.642585">
            <g id="g232" style="stroke-width:0.642585">
               <path d="m 1040.7239,176.55159 c -10.1999,-25.98599 -38.7803,-36.1059 -62.63759,-45.64017 -35.15709,-11.50467 -78.45729,-9.37998 -106.252,17.50158 -7.96028,4.49861 -9.45561,15.96293 -18.76339,18.64285" style="fill:none;stroke:#000000;stroke-width:0.8403;stroke-linecap:round;stroke-linejoin:round;stroke-miterlimit:10;stroke-dasharray:none;stroke-opacity:1" id="path234" />
            </g>
         </g>
         <g id="g236" transform="matrix(1,0,0,-1,0,792)" style="stroke-width:0.642585">
            <g id="g238" style="stroke-width:0.642585">
               <path d="m 852.63672,160.39484 c 17.93599,-29.99469 55.34856,-37.72868 87.57824,-40.58178 35.17758,-2.59653 69.55344,14.6157 93.98594,38.92009 1.101,1.73135 1.8981,3.69945 2.0476,5.76348" style="fill:none;stroke:#000000;stroke-width:0.8403;stroke-linecap:round;stroke-linejoin:round;stroke-miterlimit:10;stroke-dasharray:none;stroke-opacity:1" id="path240" />
            </g>
         </g>
         <g id="g242" transform="matrix(1,0,0,-1,0,792)" style="stroke-width:0.642585">
            <g id="g244" style="stroke-width:0.642585">
               <path d="m 1038.07,164.26959 c -20.9907,-27.71641 -55.68533,-41.77416 -89.62389,-44.22912 -27.72722,-2.10337 -57.45441,2.07015 -80.30735,18.97582 -8.00481,6.49317 -17.19852,14.80909 -16.50642,26.0807 5.08021,-3.94045 6.59248,-14.29132 12.27865,-19.36485 17.25903,-20.79017 45.13551,-28.648 71.13425,-30.53983 27.83998,-2.84517 58.82324,5.01604 77.25416,27.22903 4.1763,5.15559 7.4596,11.02993 9.6559,17.29077" style="fill:none;stroke:#000000;stroke-width:0.8403;stroke-linecap:round;stroke-linejoin:round;stroke-miterlimit:10;stroke-dasharray:none;stroke-opacity:1" id="path246" />
            </g>
         </g>
         <g id="g248" transform="matrix(1,0,0,-1,0,792)" style="stroke-width:0.642585">
            <g id="g250" style="stroke-width:0.642585">
               <path d="m 1033.8898,177.50853 c -2.1061,-23.78969 -24.7599,-37.26488 -42.82926,-49.03036 -37.83014,-22.03734 -86.55915,-12.6311 -121.22711,11.20311 -12.04807,7.95273 -23.30318,17.8557 -30.18545,30.74665" style="fill:none;stroke:#000000;stroke-width:0.8403;stroke-linecap:round;stroke-linejoin:round;stroke-miterlimit:10;stroke-dasharray:none;stroke-opacity:1" id="path252" />
            </g>
         </g>
         <g id="g254" transform="matrix(1,0,0,-1,0,792)" style="stroke-width:0.642585">
            <g id="g256" style="stroke-width:0.642585">
               <path d="m 844.53333,174.99472 c 15.5597,-19.74927 41.33187,-26.90477 65.30863,-29.40299 16.30193,-1.9076 32.88636,-2.65058 49.0829,0.54367 29.0918,5.083 57.62094,19.23204 75.61934,43.20783 0.8559,1.44982 1.2517,3.2654 0.698,4.8988" style="fill:none;stroke:#000000;stroke-width:0.8403;stroke-linecap:round;stroke-linejoin:round;stroke-miterlimit:10;stroke-dasharray:none;stroke-opacity:1" id="path258" />
            </g>
         </g>
         <g id="g260" transform="matrix(1,0,0,-1,0,792)" style="stroke-width:0.642585">
            <g id="g262" style="stroke-width:0.642585">
               <path d="m 1034.9529,188.46114 c -11.2511,-26.0798 -37.57037,-43.06222 -64.9582,-47.84685 -31.89596,-7.05235 -66.03189,-1.93598 -95.05451,12.80397" style="fill:none;stroke:#000000;stroke-width:0.8403;stroke-linecap:round;stroke-linejoin:round;stroke-miterlimit:10;stroke-dasharray:none;stroke-opacity:1" id="path264" />
            </g>
         </g>
      </g>
   </g>
</svg>
