<?xml version="1.0" encoding="UTF-8" standalone="no"?>
<!-- Created by Ashley Blewer - This work is licensed under a Creative Commons Attribution 4.0 International License -->

<svg
   width="544"
   height="480"
   viewBox="0 0 143.93334 127"
   version="1.1"
   id="svg2490"
   inkscape:version="1.2.2 (1:1.2.2+202212051552+b0a8486541)"
   sodipodi:docname="1987-dat-1.svg"
   xmlns:inkscape="http://www.inkscape.org/namespaces/inkscape"
   xmlns:sodipodi="http://sodipodi.sourceforge.net/DTD/sodipodi-0.dtd"
   xmlns="http://www.w3.org/2000/svg"
   xmlns:svg="http://www.w3.org/2000/svg">
  <sodipodi:namedview
     id="namedview2492"
     pagecolor="#ffffff"
     bordercolor="#666666"
     borderopacity="1.0"
     inkscape:pageshadow="2"
     inkscape:pageopacity="0.0"
     inkscape:pagecheckerboard="0"
     inkscape:document-units="mm"
     showgrid="false"
     units="px"
     inkscape:zoom="0.90583674"
     inkscape:cx="53.541657"
     inkscape:cy="253.35691"
     inkscape:window-width="1846"
     inkscape:window-height="1136"
     inkscape:window-x="0"
     inkscape:window-y="0"
     inkscape:window-maximized="1"
     inkscape:current-layer="g4731"
     inkscape:showpageshadow="2"
     inkscape:deskcolor="#d1d1d1" />
  <defs
     id="defs2487" />
  <g
     inkscape:label="Layer 1"
     inkscape:groupmode="layer"
     id="layer1">
    <g
       id="g4731"
       transform="matrix(0.32961229,0,0,0.32903008,-241.78905,1.73126)"
       style="stroke-width:2.68698">
      <g
         id="g104528"
         transform="matrix(1,0,0,-1,0,792)"
         style="stroke-width:2.68698">
        <g
           id="g104530"
           style="stroke-width:2.68698" />
      </g>
      <g
         id="g104996"
         transform="matrix(1,0,0,-1,0,792)"
         style="stroke-width:2.68698">
        <g
           id="g104998"
           style="stroke-width:2.68698" />
      </g>
      <g
         id="g2219"
         transform="matrix(0.8905182,0,0,0.89209392,102.83847,-27.620031)">
        <g
           id="g56"
           transform="matrix(1,0,0,-1,0,792)">
          <g
             id="g58">
            <path
               d="m 812.50012,502.55682 c -3.07513,4.62442 -9.25654,9.7087 -9.48987,15.48627"
               style="fill:none;stroke:#000000;stroke-width:2.61538;stroke-linecap:round;stroke-linejoin:round;stroke-miterlimit:10;stroke-dasharray:none;stroke-opacity:1"
               id="path60"
               sodipodi:nodetypes="cc" />
          </g>
        </g>
        <g
           id="g62"
           transform="matrix(1,0,0,-1,0,792)">
          <g
             id="g64">
            <path
               d="m 812.18488,503.46967 c 0.56866,47.22632 -7.88323,94.12956 -6.80663,141.4425 l -0.18487,3.8598 0.19783,3.29007"
               style="fill:none;stroke:#000000;stroke-width:2.61538;stroke-linecap:round;stroke-linejoin:round;stroke-miterlimit:10;stroke-dasharray:none;stroke-opacity:1"
               id="path66" />
          </g>
        </g>
        <g
           id="g68"
           transform="matrix(1,0,0,-1,0,792)">
          <g
             id="g70">
            <path
               d="m 805.39121,652.06204 c -0.84719,16.03752 -2.17474,35.46377 -2.45013,52.07035"
               style="fill:none;stroke:#000000;stroke-width:2.61538;stroke-linecap:round;stroke-linejoin:round;stroke-miterlimit:10;stroke-dasharray:none;stroke-opacity:1"
               id="path72"
               sodipodi:nodetypes="cc" />
          </g>
        </g>
        <g
           id="g74"
           transform="matrix(1,0,0,-1,0,792)">
          <g
             id="g76">
            <path
               d="m 803.23633,703.36646 c -2.8186,5.23449 -5.86278,12.29055 -7.72425,17.91406"
               style="fill:none;stroke:#000000;stroke-width:2.61538;stroke-linecap:round;stroke-linejoin:round;stroke-miterlimit:10;stroke-dasharray:none;stroke-opacity:1"
               id="path78"
               sodipodi:nodetypes="cc" />
          </g>
        </g>
        <g
           id="g80"
           transform="matrix(1,0,0,-1,0,792)">
          <g
             id="g82">
            <path
               d="m 803.01025,518.04309 c -0.72555,53.07887 -6.89688,106.03262 -5.10212,159.16616 -0.10216,13.34823 -1.67418,30.93772 -3.43584,44.13609"
               style="fill:none;stroke:#000000;stroke-width:2.61538;stroke-linecap:round;stroke-linejoin:round;stroke-miterlimit:10;stroke-dasharray:none;stroke-opacity:1"
               id="path84"
               sodipodi:nodetypes="ccc" />
          </g>
        </g>
        <g
           id="g86"
           transform="matrix(1,0,0,-1,0,792)">
          <g
             id="g88">
            <path
               d="m 797.61123,663.29041 c 0.73815,-1.54081 6.88159,-9.78896 7.77998,-11.22837"
               style="fill:none;stroke:#000000;stroke-width:2.61538;stroke-linecap:round;stroke-linejoin:round;stroke-miterlimit:10;stroke-dasharray:none;stroke-opacity:1"
               id="path90"
               sodipodi:nodetypes="cc" />
          </g>
        </g>
        <g
           id="g92"
           transform="matrix(1,0,0,-1,0,792)">
          <g
             id="g94">
            <path
               d="m 794.47229,721.34534 c 14.22623,2.3567 28.54625,4.00432 42.65672,7.1288"
               style="fill:none;stroke:#000000;stroke-width:2.61538;stroke-linecap:round;stroke-linejoin:round;stroke-miterlimit:10;stroke-dasharray:none;stroke-opacity:1"
               id="path96" />
          </g>
        </g>
        <g
           id="g98"
           transform="matrix(1,0,0,-1,0,792)">
          <g
             id="g100">
            <path
               d="m 836.97742,728.21527 c 1.89122,-6.57199 14.07784,0.32478 18.43895,-0.72493"
               style="fill:none;stroke:#000000;stroke-width:2.61538;stroke-linecap:round;stroke-linejoin:round;stroke-miterlimit:10;stroke-dasharray:none;stroke-opacity:1"
               id="path102" />
          </g>
        </g>
        <g
           id="g104"
           transform="matrix(1,0,0,-1,0,792)">
          <g
             id="g106">
            <path
               d="m 855.41637,727.49034 c 4.05583,2.12198 7.56381,2.39256 12.02638,2.28883"
               style="fill:none;stroke:#000000;stroke-width:2.61538;stroke-linecap:round;stroke-linejoin:round;stroke-miterlimit:10;stroke-dasharray:none;stroke-opacity:1"
               id="path108"
               sodipodi:nodetypes="cc" />
          </g>
        </g>
        <g
           id="g110"
           transform="matrix(1,0,0,-1,0,792)">
          <g
             id="g112">
            <path
               d="m 867.44275,729.77917 c 0.31422,-0.70592 0.9163,-3.37383 0.90312,-4.00186"
               style="fill:none;stroke:#000000;stroke-width:2.61538;stroke-linecap:round;stroke-linejoin:round;stroke-miterlimit:10;stroke-dasharray:none;stroke-opacity:1"
               id="path114" />
          </g>
        </g>
        <g
           id="g116"
           transform="matrix(1,0,0,-1,0,792)">
          <g
             id="g118">
            <path
               d="m 868.72552,725.50677 c 5.91861,0.18115 11.5371,2.6471 17.45981,2.60897"
               style="fill:none;stroke:#000000;stroke-width:2.61538;stroke-linecap:round;stroke-linejoin:round;stroke-miterlimit:10;stroke-dasharray:none;stroke-opacity:1"
               id="path120" />
          </g>
        </g>
        <g
           id="g122"
           transform="matrix(1,0,0,-1,0,792)">
          <g
             id="g124">
            <path
               d="m 885.02161,728.63177 c -0.19995,0.5035 -0.65231,3.1009 -0.67855,3.8961"
               style="fill:none;stroke:#000000;stroke-width:2.61538;stroke-linecap:round;stroke-linejoin:round;stroke-miterlimit:10;stroke-dasharray:none;stroke-opacity:1"
               id="path126" />
          </g>
        </g>
        <g
           id="g128"
           transform="matrix(1,0,0,-1,0,792)">
          <g
             id="g130">
            <path
               d="m 883.73737,733.01288 c 45.72278,4.31721 93.18785,8.27773 139.00863,11.47082"
               style="fill:none;stroke:#000000;stroke-width:2.61538;stroke-linecap:round;stroke-linejoin:round;stroke-miterlimit:10;stroke-dasharray:none;stroke-opacity:1"
               id="path132"
               sodipodi:nodetypes="cc" />
          </g>
        </g>
        <g
           id="g134"
           transform="matrix(1,0,0,-1,0,792)">
          <g
             id="g136">
            <path
               d="m 1022.746,744.4837 c 0.5081,-0.63351 2.3231,-3.18384 2.7224,-3.8255"
               style="fill:none;stroke:#000000;stroke-width:2.61538;stroke-linecap:round;stroke-linejoin:round;stroke-miterlimit:10;stroke-dasharray:none;stroke-opacity:1"
               id="path138" />
          </g>
        </g>
        <g
           id="g140"
           transform="matrix(1,0,0,-1,0,792)">
          <g
             id="g142">
            <path
               d="m 1026.0358,740.87604 c 4.9439,2.6824 10.8228,1.82877 16.0892,3.40106"
               style="fill:none;stroke:#000000;stroke-width:2.61538;stroke-linecap:round;stroke-linejoin:round;stroke-miterlimit:10;stroke-dasharray:none;stroke-opacity:1"
               id="path144" />
          </g>
        </g>
        <g
           id="g146"
           transform="matrix(1,0,0,-1,0,792)">
          <g
             id="g148">
            <path
               d="m 1041.7835,744.60901 c -0.5511,0.38277 -2.1893,2.1639 -2.4574,2.6717"
               style="fill:none;stroke:#000000;stroke-width:2.61538;stroke-linecap:round;stroke-linejoin:round;stroke-miterlimit:10;stroke-dasharray:none;stroke-opacity:1"
               id="path150" />
          </g>
        </g>
        <g
           id="g152"
           transform="matrix(1,0,0,-1,0,792)">
          <g
             id="g154">
            <path
               d="m 1038.6697,747.26385 c 4.566,0.94938 9.1437,1.86932 13.7887,2.35665"
               style="fill:none;stroke:#000000;stroke-width:2.61538;stroke-linecap:round;stroke-linejoin:round;stroke-miterlimit:10;stroke-dasharray:none;stroke-opacity:1"
               id="path156" />
          </g>
        </g>
        <g
           id="g158"
           transform="matrix(1,0,0,-1,0,792)">
          <g
             id="g160">
            <path
               d="m 1052.4409,749.31073 c -0.4204,-4.12168 13.0984,1.13928 13.0984,1.13928"
               style="fill:none;stroke:#000000;stroke-width:2.61538;stroke-linecap:round;stroke-linejoin:round;stroke-miterlimit:10;stroke-dasharray:none;stroke-opacity:1"
               id="path162"
               sodipodi:nodetypes="cc" />
          </g>
        </g>
        <g
           id="g164"
           transform="matrix(1,0,0,-1,0,792)">
          <g
             id="g166" />
        </g>
        <g
           id="g170"
           transform="matrix(1,0,0,-1,0,792)">
          <g
             id="g172">
            <path
               d="m 1065.5393,750.45001 c 13.751,1.86205 27.5681,3.18467 41.389,4.4011"
               style="fill:none;stroke:#000000;stroke-width:2.61538;stroke-linecap:round;stroke-linejoin:round;stroke-miterlimit:10;stroke-dasharray:none;stroke-opacity:1"
               id="path174" />
          </g>
        </g>
        <g
           id="g176"
           transform="matrix(1,0,0,-1,0,792)">
          <g
             id="g178">
            <path
               d="m 1106.9283,754.85111 c 4.3901,-6.81983 11.5283,-14.48725 15.6619,-21.48898"
               style="fill:none;stroke:#000000;stroke-width:2.61538;stroke-linecap:round;stroke-linejoin:round;stroke-miterlimit:10;stroke-dasharray:none;stroke-opacity:1"
               id="path180"
               sodipodi:nodetypes="cc" />
          </g>
        </g>
        <g
           id="g182"
           transform="matrix(1,0,0,-1,0,792)">
          <g
             id="g184">
            <path
               d="m 1122.5902,733.36213 c -1.7561,-14.04736 -1.0123,-33.83556 -3.5826,-46.31049"
               style="fill:none;stroke:#000000;stroke-width:2.61538;stroke-linecap:round;stroke-linejoin:round;stroke-miterlimit:10;stroke-dasharray:none;stroke-opacity:1"
               id="path186"
               sodipodi:nodetypes="cc" />
          </g>
        </g>
        <g
           id="g188"
           transform="matrix(1,0,0,-1,0,792)">
          <g
             id="g190">
            <path
               d="m 1119.0076,687.05164 c -0.4977,0.70972 -5.4447,-0.0556 -6.0614,0.55621"
               style="fill:none;stroke:#000000;stroke-width:2.61538;stroke-linecap:round;stroke-linejoin:round;stroke-miterlimit:10;stroke-dasharray:none;stroke-opacity:1"
               id="path192"
               sodipodi:nodetypes="cc" />
          </g>
        </g>
        <g
           id="g194"
           transform="matrix(1,0,0,-1,0,792)">
          <g
             id="g196">
            <path
               d="m 1112.9462,687.60785 3.8994,-5.36703"
               style="fill:none;stroke:#000000;stroke-width:2.61538;stroke-linecap:round;stroke-linejoin:round;stroke-miterlimit:10;stroke-dasharray:none;stroke-opacity:1"
               id="path198" />
          </g>
        </g>
        <g
           id="g200"
           transform="matrix(1,0,0,-1,0,792)">
          <g
             id="g202">
            <path
               d="m 1116.7183,680.83765 c -2.0356,-42.6768 -13.5797,-84.31079 -14.1752,-127.1932 -0.4883,-3.78157 -1.2022,-7.54797 -2.3839,-11.17975"
               style="fill:none;stroke:#000000;stroke-width:2.61538;stroke-linecap:round;stroke-linejoin:round;stroke-miterlimit:10;stroke-dasharray:none;stroke-opacity:1"
               id="path204" />
          </g>
        </g>
        <g
           id="g206"
           transform="matrix(1,0,0,-1,0,792)">
          <g
             id="g208">
            <path
               d="m 812.97656,500.99689 c 100.46512,19.0127 192.91274,26.58308 285.79454,41.16713"
               style="fill:none;stroke:#000000;stroke-width:2.61538;stroke-linecap:round;stroke-linejoin:round;stroke-miterlimit:10;stroke-dasharray:none;stroke-opacity:1"
               id="path210"
               sodipodi:nodetypes="cc" />
          </g>
        </g>
        <g
           id="g212"
           transform="matrix(1,0,0,-1,0,792)">
          <g
             id="g214">
            <path
               d="m 803.23633,703.36646 c 57.43723,6.76059 115.26009,9.22285 172.6484,16.79066 48.19597,4.83547 96.17647,11.94787 144.55127,14.64136"
               style="fill:none;stroke:#000000;stroke-width:2.61538;stroke-linecap:round;stroke-linejoin:round;stroke-miterlimit:10;stroke-dasharray:none;stroke-opacity:1"
               id="path216" />
          </g>
        </g>
        <g
           id="g218"
           transform="matrix(1,0,0,-1,0,792)">
          <g
             id="g220">
            <path
               d="m 809.00818,688.65527 c 62.565,7.5819 125.50013,12.43103 188.14695,19.421 39.78157,1.24127 79.40577,11.75876 118.87627,11.91867"
               style="fill:none;stroke:#000000;stroke-width:2.61538;stroke-linecap:round;stroke-linejoin:round;stroke-miterlimit:10;stroke-dasharray:none;stroke-opacity:1"
               id="path222" />
          </g>
        </g>
        <g
           id="g224"
           transform="matrix(1,0,0,-1,0,792)">
          <g
             id="g226">
            <path
               d="m 864.50128,606.06195 c 70.23311,10.46028 140.81782,21.61104 211.90362,23.32938 29.2157,-28.54665 -5.5388,-52.82817 -36.7731,-53.55147 -38.893,-4.9899 -77.03917,-14.01376 -116.17187,-17.48897 -30.03848,0.49335 -78.223,-25.69624 -95.21672,9.95719 -8.89242,25.51642 10.19349,34.23299 36.25807,37.75387"
               style="fill:none;stroke:#000000;stroke-width:2.61538;stroke-linecap:round;stroke-linejoin:round;stroke-miterlimit:10;stroke-dasharray:none;stroke-opacity:1"
               id="path228"
               sodipodi:nodetypes="cccccc" />
          </g>
        </g>
        <g
           id="g230"
           transform="matrix(1,0,0,-1,0,792)">
          <g
             id="g232">
            <path
               d="m 879.2632,608.26645 c -37.69186,-30.87248 23.6201,-74.36854 46.33472,-36.59337 10.69565,10.92007 1.29768,42.71117 -15.30905,41.17962"
               style="fill:none;stroke:#000000;stroke-width:2.61538;stroke-linecap:round;stroke-linejoin:round;stroke-miterlimit:10;stroke-dasharray:none;stroke-opacity:1"
               id="path234"
               sodipodi:nodetypes="ccc" />
          </g>
        </g>
        <g
           id="g236"
           transform="matrix(1,0,0,-1,0,792)">
          <g
             id="g238">
            <path
               d="m 1004.3214,624.66553 c -24.64408,-14.47493 -11.7843,-57.88957 17.3181,-49.932 30.0646,-0.8382 45.381,44.5778 13.0192,52.63626"
               style="fill:none;stroke:#000000;stroke-width:2.61538;stroke-linecap:round;stroke-linejoin:round;stroke-miterlimit:10;stroke-dasharray:none;stroke-opacity:1"
               id="path240"
               sodipodi:nodetypes="ccc" />
          </g>
        </g>
        <g
           id="g242"
           transform="matrix(1,0,0,-1,0,792)">
          <g
             id="g244">
            <path
               d="m 1028.839,616.97308 c 37.8247,-15.27996 -14.9007,-61.05091 -29.09107,-26.48157 -6.58452,19.43713 13.97377,34.26291 31.14367,25.89012"
               style="fill:none;stroke:#000000;stroke-width:2.61538;stroke-linecap:round;stroke-linejoin:round;stroke-miterlimit:10;stroke-dasharray:none;stroke-opacity:1"
               id="path246" />
          </g>
        </g>
        <g
           id="g248"
           transform="matrix(1,0,0,-1,0,792)">
          <g
             id="g250">
            <path
               d="m 907.45691,605.03046 c 42.68868,-17.89632 -26.21281,-67.42298 -31.7444,-22.50728 -0.39908,17.96471 16.59505,25.0283 31.7444,22.50728"
               style="fill:none;stroke:#000000;stroke-width:2.61538;stroke-linecap:round;stroke-linejoin:round;stroke-miterlimit:10;stroke-dasharray:none;stroke-opacity:1"
               id="path252"
               sodipodi:nodetypes="ccc" />
          </g>
        </g>
        <g
           id="g254"
           transform="matrix(1,0,0,-1,0,792)">
          <g
             id="g256">
            <path
               d="m 902.74516,597.59025 c 9.38298,-2.43679 8.31372,-11.32661 10.67694,-18.78772 -17.62636,23.02723 -8.53814,-27.04945 -21.19657,-1.80049 -6.62533,6.82886 -7.84612,-9.02034 -8.58736,10.84434 9.39283,-0.97497 9.70145,12.07726 19.10699,9.74387"
               style="fill:none;stroke:#000000;stroke-width:2.61538;stroke-linecap:round;stroke-linejoin:round;stroke-miterlimit:10;stroke-dasharray:none;stroke-opacity:1"
               id="path258"
               sodipodi:nodetypes="ccccc" />
          </g>
        </g>
        <g
           id="g260"
           transform="matrix(1,0,0,-1,0,792)">
          <g
             id="g262">
            <path
               d="m 1031.1127,607.79565 c -8.6948,13.33947 -32.65658,-6.95407 -23.331,-16.51395 7.9659,-11.05281 14.9093,-0.77426 25.0823,0.0892 -7.6819,7.61487 11.375,12.16292 -1.7513,16.42475"
               style="fill:none;stroke:#000000;stroke-width:2.61538;stroke-linecap:round;stroke-linejoin:round;stroke-miterlimit:10;stroke-dasharray:none;stroke-opacity:1"
               id="path264"
               sodipodi:nodetypes="cccc" />
          </g>
        </g>
        <g
           id="g266"
           transform="matrix(1,0,0,-1,0,792)">
          <g
             id="g268">
            <path
               d="m 1020.9951,608.591 c 10.4343,-3.83412 -7.0562,-17.22558 -10.7078,-9.98895"
               style="fill:none;stroke:#000000;stroke-width:2.61538;stroke-linecap:round;stroke-linejoin:round;stroke-miterlimit:10;stroke-dasharray:none;stroke-opacity:1"
               id="path270" />
          </g>
        </g>
        <g
           id="g272"
           transform="matrix(1,0,0,-1,0,792)">
          <g
             id="g274">
            <path
               d="m 802.85808,526.62727 c -9.81059,-13.19023 -37.00145,-51.00816 -37.00145,-51.00816"
               style="fill:none;stroke:#000000;stroke-width:2.61538;stroke-linecap:round;stroke-linejoin:round;stroke-miterlimit:10;stroke-dasharray:none;stroke-opacity:1"
               id="path276"
               sodipodi:nodetypes="cc" />
          </g>
        </g>
        <g
           id="g278"
           transform="matrix(1,0,0,-1,0,792)">
          <g
             id="g280">
            <path
               d="m 765.85663,475.61911 c 1.84766,-14.01602 3.93864,-31.34814 6.82837,-45.21637"
               style="fill:none;stroke:#000000;stroke-width:2.61538;stroke-linecap:round;stroke-linejoin:round;stroke-miterlimit:10;stroke-dasharray:none;stroke-opacity:1"
               id="path282"
               sodipodi:nodetypes="cc" />
          </g>
        </g>
        <g
           id="g284"
           transform="matrix(1,0,0,-1,0,792)">
          <g
             id="g286">
            <path
               d="m 1102.2994,549.76099 c 19.7309,-6.17747 40.1149,-9.83328 60.3544,-13.69831"
               style="fill:none;stroke:#000000;stroke-width:2.61538;stroke-linecap:round;stroke-linejoin:round;stroke-miterlimit:10;stroke-dasharray:none;stroke-opacity:1"
               id="path288" />
          </g>
        </g>
        <g
           id="g290"
           transform="matrix(1,0,0,-1,0,792)">
          <g
             id="g292">
            <path
               d="m 1162.6138,534.67163 c -1.3827,-11.41463 -0.3314,-22.94567 -0.8642,-34.30337"
               style="fill:none;stroke:#000000;stroke-width:2.61538;stroke-linecap:round;stroke-linejoin:round;stroke-miterlimit:10;stroke-dasharray:none;stroke-opacity:1"
               id="path294" />
          </g>
        </g>
        <g
           id="g296"
           transform="matrix(1,0,0,-1,0,792)">
          <g
             id="g298">
            <path
               d="m 1161.7496,500.36826 c -20.078,-41.181 -40.5838,-83.12597 -56.0472,-126.3533 -4.035,-7.94617 -12.1686,-26.00979 -15.5958,-31.22959"
               style="fill:none;stroke:#000000;stroke-width:2.61538;stroke-linecap:round;stroke-linejoin:round;stroke-miterlimit:10;stroke-dasharray:none;stroke-opacity:1"
               id="path300"
               sodipodi:nodetypes="ccc" />
          </g>
        </g>
        <g
           id="g302"
           transform="matrix(1,0,0,-1,0,792)">
          <g
             id="g304">
            <path
               d="m 1158.8595,536.27991 c -17.3009,-47.95211 -47.0573,-90.45085 -61.8824,-139.34609"
               style="fill:none;stroke:#000000;stroke-width:2.61538;stroke-linecap:round;stroke-linejoin:round;stroke-miterlimit:10;stroke-dasharray:none;stroke-opacity:1"
               id="path306" />
          </g>
        </g>
        <g
           id="g308"
           transform="matrix(1,0,0,-1,0,792)">
          <g
             id="g310">
            <path
               d="m 1090.1066,342.78537 c 4.1021,19.70156 4.8507,34.19496 6.8705,54.14845"
               style="fill:none;stroke:#000000;stroke-width:2.61538;stroke-linecap:round;stroke-linejoin:round;stroke-miterlimit:10;stroke-dasharray:none;stroke-opacity:1"
               id="path312"
               sodipodi:nodetypes="cc" />
          </g>
        </g>
        <g
           id="g314"
           transform="matrix(1,0,0,-1,0,792)">
          <g
             id="g316">
            <path
               d="m 765.85663,475.61911 c 111.5784,-21.0571 217.36393,-65.85744 329.81277,-82.99663"
               style="fill:none;stroke:#000000;stroke-width:2.61538;stroke-linecap:round;stroke-linejoin:round;stroke-miterlimit:10;stroke-dasharray:none;stroke-opacity:1"
               id="path318"
               sodipodi:nodetypes="cccc" />
          </g>
        </g>
        <g
           id="g320"
           transform="matrix(1,0,0,-1,0,792)">
          <g
             id="g322">
            <path
               d="m 772.685,430.40274 c 106.95121,-24.86116 211.5206,-59.4546 317.4216,-87.61736"
               style="fill:none;stroke:#000000;stroke-width:2.61538;stroke-linecap:round;stroke-linejoin:round;stroke-miterlimit:10;stroke-dasharray:none;stroke-opacity:1"
               id="path324"
               sodipodi:nodetypes="ccc" />
          </g>
        </g>
        <g
           id="g326"
           transform="matrix(1,0,0,-1,0,792)">
          <g
             id="g328">
            <path
               d="m 812.37811,607.17914 c 98.66831,13.99909 200.46649,23.84014 294.96499,34.97278"
               style="fill:none;stroke:#000000;stroke-width:1.30769;stroke-linecap:round;stroke-linejoin:round;stroke-miterlimit:10;stroke-dasharray:none;stroke-opacity:1"
               id="path330"
               sodipodi:nodetypes="cc" />
          </g>
        </g>
        <g
           id="g332"
           transform="matrix(1,0,0,-1,0,792)">
          <g
             id="g334">
            <path
               d="m 1107.3431,642.15192 c 0.5459,-26.78794 -3.3615,-54.43705 -7.4885,-80.03928 l -3.4475,-2.57521"
               style="fill:none;stroke:#000000;stroke-width:1.30769;stroke-linecap:round;stroke-linejoin:round;stroke-miterlimit:10;stroke-dasharray:none;stroke-opacity:1"
               id="path336"
               sodipodi:nodetypes="ccc" />
          </g>
        </g>
        <g
           id="g338"
           transform="matrix(1,0,0,-1,0,792)">
          <g
             id="g340">
            <path
               d="m 812.37811,607.17914 c -0.65385,-20.74348 3.42254,-60.41655 5.2696,-86.4306 v 0"
               style="fill:none;stroke:#000000;stroke-width:1.30769;stroke-linecap:round;stroke-linejoin:round;stroke-miterlimit:10;stroke-dasharray:none;stroke-opacity:1"
               id="path342"
               sodipodi:nodetypes="ccc" />
          </g>
        </g>
        <g
           id="g344"
           transform="matrix(1,0,0,-1,0,792)">
          <g
             id="g346">
            <path
               d="m 817.64771,520.74854 c 91.36608,15.03199 184.64739,18.88404 275.37559,37.88078 l 3.3838,0.90811"
               style="fill:none;stroke:#000000;stroke-width:1.30769;stroke-linecap:round;stroke-linejoin:round;stroke-miterlimit:10;stroke-dasharray:none;stroke-opacity:1"
               id="path348" />
          </g>
        </g>
        <g
           id="g350"
           transform="matrix(1,0,0,-1,0,792)">
          <g
             id="g352">
            <path
               d="m 1102.7929,544.20203 c 12.8421,-4.46537 26.3188,-6.60726 39.405,-10.18665"
               style="fill:none;stroke:#000000;stroke-width:1.30769;stroke-linecap:round;stroke-linejoin:round;stroke-miterlimit:10;stroke-dasharray:none;stroke-opacity:1"
               id="path354" />
          </g>
        </g>
        <g
           id="g356"
           transform="matrix(1,0,0,-1,0,792)">
          <g
             id="g358">
            <path
               d="m 1086.0783,401.77127 c 21.1467,40.12718 40.4963,85.99444 58.6529,127.46831 l -2.5333,4.7758"
               style="fill:none;stroke:#000000;stroke-width:1.30769;stroke-linecap:round;stroke-linejoin:round;stroke-miterlimit:10;stroke-dasharray:none;stroke-opacity:1"
               id="path360"
               sodipodi:nodetypes="ccc" />
          </g>
        </g>
        <g
           id="g362"
           transform="matrix(1,0,0,-1,0,792)">
          <g
             id="g364">
            <path
               d="m 805.71722,504.95355 c -1.79508,-7.62277 -9.02343,-13.22879 -12.26041,-20.35218"
               style="fill:none;stroke:#000000;stroke-width:1.30769;stroke-linecap:round;stroke-linejoin:round;stroke-miterlimit:10;stroke-dasharray:none;stroke-opacity:1"
               id="path366" />
          </g>
        </g>
        <g
           id="g368"
           transform="matrix(1,0,0,-1,0,792)">
          <g
             id="g370">
            <path
               d="m 794.9563,480.98944 c 45.98553,-14.66014 90.91161,-32.70425 138.48544,-41.96099 46.58409,-13.59342 94.05616,-24.15519 141.08636,-36.09527 l 5.7346,-0.77671 5.8156,-0.3852"
               style="fill:none;stroke:#000000;stroke-width:1.30769;stroke-linecap:round;stroke-linejoin:round;stroke-miterlimit:10;stroke-dasharray:none;stroke-opacity:1"
               id="path372" />
          </g>
        </g>
      </g>
    </g>
  </g>
</svg>
