<?xml version="1.0" encoding="UTF-8" standalone="no"?>
<!-- Created by Ashley Blewer - This work is licensed under a Creative Commons Attribution 4.0 International License -->

<svg
   width="544"
   height="480"
   viewBox="0 0 143.93334 127"
   version="1.1"
   id="svg2490"
   inkscape:version="1.2.2 (1:1.2.2+202212051552+b0a8486541)"
   sodipodi:docname="1988-pocket-rockers-2.svg"
   xmlns:inkscape="http://www.inkscape.org/namespaces/inkscape"
   xmlns:sodipodi="http://sodipodi.sourceforge.net/DTD/sodipodi-0.dtd"
   xmlns="http://www.w3.org/2000/svg"
   xmlns:svg="http://www.w3.org/2000/svg">
  <sodipodi:namedview
     id="namedview2492"
     pagecolor="#ffffff"
     bordercolor="#666666"
     borderopacity="1.0"
     inkscape:pageshadow="2"
     inkscape:pageopacity="0.0"
     inkscape:pagecheckerboard="0"
     inkscape:document-units="mm"
     showgrid="false"
     units="px"
     inkscape:zoom="0.90583674"
     inkscape:cx="53.541657"
     inkscape:cy="253.35691"
     inkscape:window-width="1846"
     inkscape:window-height="1136"
     inkscape:window-x="0"
     inkscape:window-y="0"
     inkscape:window-maximized="1"
     inkscape:current-layer="g4731"
     inkscape:showpageshadow="2"
     inkscape:deskcolor="#d1d1d1" />
  <defs
     id="defs2487" />
  <g
     inkscape:label="Layer 1"
     inkscape:groupmode="layer"
     id="layer1">
    <g
       id="g4731"
       transform="matrix(0.32961229,0,0,0.32903008,-241.78905,1.73126)"
       style="stroke-width:2.68698">
      <g
         id="g104528"
         transform="matrix(1,0,0,-1,0,792)"
         style="stroke-width:2.68698">
        <g
           id="g104530"
           style="stroke-width:2.68698" />
      </g>
      <g
         id="g104996"
         transform="matrix(1,0,0,-1,0,792)"
         style="stroke-width:2.68698">
        <g
           id="g104998"
           style="stroke-width:2.68698" />
      </g>
      <g
         id="g2741"
         transform="matrix(1.2538044,0,0,1.2560229,-206.92438,-91.511804)">
        <g
           id="g52"
           transform="matrix(1,0,0,-1,0,792)">
          <g
             id="g54">
            <path
               d="m 823.00531,697.73853 c 68.01756,7.77763 132.76351,7.59532 196.94079,8.38851"
               style="fill:none;stroke:#000000;stroke-width:2.61538;stroke-linecap:round;stroke-linejoin:round;stroke-miterlimit:10;stroke-dasharray:none;stroke-opacity:1"
               id="path56"
               sodipodi:nodetypes="cc" />
          </g>
        </g>
        <g
           id="g58"
           transform="matrix(1,0,0,-1,0,792)">
          <g
             id="g60">
            <path
               d="m 1020.9632,705.93274 c 17.3335,-0.86065 16.2598,-5.5752 17.385,-18.36556"
               style="fill:none;stroke:#000000;stroke-width:2.61538;stroke-linecap:round;stroke-linejoin:round;stroke-miterlimit:10;stroke-dasharray:none;stroke-opacity:1"
               id="path62"
               sodipodi:nodetypes="cc" />
          </g>
        </g>
        <g
           id="g64"
           transform="matrix(1,0,0,-1,0,792)">
          <g
             id="g66">
            <path
               d="m 823.00531,697.73853 c -4.06725,-22.71156 -0.0816,-44.29601 -2.18376,-66.49335 0,0 -4.56007,-182.3495 9.39838,-196.00047 47.48177,-4.23195 137.24576,3.03075 203.58637,10.09147"
               style="fill:none;stroke:#000000;stroke-width:2.61538;stroke-linecap:round;stroke-linejoin:round;stroke-miterlimit:10;stroke-dasharray:none;stroke-opacity:1"
               id="path68"
               sodipodi:nodetypes="cccc" />
          </g>
        </g>
        <g
           id="g70"
           transform="matrix(1,0,0,-1,0,792)">
          <g
             id="g72">
            <path
               d="m 1033.8063,445.33618 c 9.1895,80.5347 -4.0884,161.61524 4.5419,242.231"
               style="fill:none;stroke:#000000;stroke-width:2.61538;stroke-linecap:round;stroke-linejoin:round;stroke-miterlimit:10;stroke-dasharray:none;stroke-opacity:1"
               id="path74" />
          </g>
        </g>
        <g
           id="g76"
           transform="matrix(1,0,0,-1,0,792)">
          <g
             id="g78">
            <path
               d="m 823.00531,697.73853 c 9.13156,-4.26359 15.24687,-6.26197 24.82502,-8.84855"
               style="fill:none;stroke:#000000;stroke-width:2.61538;stroke-linecap:round;stroke-linejoin:round;stroke-miterlimit:10;stroke-dasharray:none;stroke-opacity:1"
               id="path80"
               sodipodi:nodetypes="cc" />
          </g>
        </g>
        <g
           id="g82"
           transform="matrix(1,0,0,-1,0,792)">
          <g
             id="g84">
            <path
               d="m 822.9469,681.12463 c 8.00631,-2.12666 16.06383,-4.06559 24.17095,-5.76941"
               style="fill:none;stroke:#000000;stroke-width:2.61538;stroke-linecap:round;stroke-linejoin:round;stroke-miterlimit:10;stroke-dasharray:none;stroke-opacity:1"
               id="path86" />
          </g>
        </g>
        <g
           id="g88"
           transform="matrix(1,0,0,-1,0,792)">
          <g
             id="g90">
            <path
               d="m 821.19562,662.41296 c 7.932,-0.60882 15.47579,-3.31413 23.0748,-5.44996"
               style="fill:none;stroke:#000000;stroke-width:2.61538;stroke-linecap:round;stroke-linejoin:round;stroke-miterlimit:10;stroke-dasharray:none;stroke-opacity:1"
               id="path92" />
          </g>
        </g>
        <g
           id="g94"
           transform="matrix(1,0,0,-1,0,792)">
          <g
             id="g96">
            <path
               d="m 821.63921,644.62495 c 7.96537,-4.15919 16.31899,-5.17513 24.88343,-7.48201"
               style="fill:none;stroke:#000000;stroke-width:2.61538;stroke-linecap:round;stroke-linejoin:round;stroke-miterlimit:10;stroke-dasharray:none;stroke-opacity:1"
               id="path98"
               sodipodi:nodetypes="cc" />
          </g>
        </g>
        <g
           id="g100"
           transform="matrix(1,0,0,-1,0,792)">
          <g
             id="g102">
            <path
               d="m 847.83033,688.88998 c -1.12284,-32.43941 -1.18699,-69.39384 -3.53087,-101.73742 0.27101,-50.81047 -0.68443,-101.54559 2.31812,-152.25182"
               style="fill:none;stroke:#000000;stroke-width:2.61538;stroke-linecap:round;stroke-linejoin:round;stroke-miterlimit:10;stroke-dasharray:none;stroke-opacity:1"
               id="path104"
               sodipodi:nodetypes="ccc" />
          </g>
        </g>
        <g
           id="g106"
           transform="matrix(1,0,0,-1,0,792)">
          <g
             id="g108">
            <path
               d="m 847.83033,688.88998 c 48.94641,4.42428 128.65351,10.91995 187.28367,10.15624"
               style="fill:none;stroke:#000000;stroke-width:2.61538;stroke-linecap:round;stroke-linejoin:round;stroke-miterlimit:10;stroke-dasharray:none;stroke-opacity:1"
               id="path110"
               sodipodi:nodetypes="cc" />
          </g>
        </g>
        <g
           id="g112"
           transform="matrix(1,0,0,-1,0,792)">
          <g
             id="g114">
            <path
               d="m 855.61923,681.97228 c -22.66601,-18.45797 28.08214,-36.06678 22.94758,-6.88656 -3.45353,9.28299 -14.97452,12.75741 -22.94758,6.88656"
               style="fill:none;stroke:#000000;stroke-width:2.61538;stroke-linecap:round;stroke-linejoin:round;stroke-miterlimit:10;stroke-dasharray:none;stroke-opacity:1"
               id="path116"
               sodipodi:nodetypes="ccc" />
          </g>
        </g>
        <g
           id="g118"
           transform="matrix(1,0,0,-1,0,792)">
          <g
             id="g120">
            <path
               d="m 861.2779,673.77028 c 2.50018,-12.60504 10.97885,7.89636 0,0"
               style="fill:none;stroke:#000000;stroke-width:2.61538;stroke-linecap:round;stroke-linejoin:round;stroke-miterlimit:10;stroke-dasharray:none;stroke-opacity:1"
               id="path122"
               sodipodi:nodetypes="cc" />
          </g>
        </g>
        <g
           id="g124"
           transform="matrix(1,0,0,-1,0,792)">
          <g
             id="g126">
            <path
               d="m 871.48236,655.33661 c 3.12816,-33.70862 -1.15268,-68.00655 3.18459,-101.80114 0.7437,-15.89565 -0.68217,-31.78746 -1.06459,-47.63986"
               style="fill:none;stroke:#000000;stroke-width:2.61538;stroke-linecap:round;stroke-linejoin:round;stroke-miterlimit:10;stroke-dasharray:none;stroke-opacity:1"
               id="path128" />
          </g>
        </g>
        <g
           id="g130"
           transform="matrix(1,0,0,-1,0,792)">
          <g
             id="g132">
            <path
               d="m 870.40558,504.62292 c 0.64314,-18.44799 -0.77302,-44.00364 26.11161,-35.17961 29.88868,6.38692 61.21348,-3.16882 90.18159,6.95332"
               style="fill:none;stroke:#000000;stroke-width:2.61538;stroke-linecap:round;stroke-linejoin:round;stroke-miterlimit:10;stroke-dasharray:none;stroke-opacity:1"
               id="path134" />
          </g>
        </g>
        <g
           id="g136"
           transform="matrix(1,0,0,-1,0,792)">
          <g
             id="g138">
            <path
               d="m 1027.6598,601.58099 c -20.621,-14.63196 -27.356,-36.37394 -24.9547,-60.78158 -0.5038,-22.52858 -0.1633,-46.7311 -0.6017,-68.14708"
               style="fill:none;stroke:#000000;stroke-width:2.61538;stroke-linecap:round;stroke-linejoin:round;stroke-miterlimit:10;stroke-dasharray:none;stroke-opacity:1"
               id="path140" />
          </g>
        </g>
        <g
           id="g142"
           transform="matrix(1,0,0,-1,0,792)">
          <g
             id="g144">
            <path
               d="m 1028.6553,691.66779 c -3.7924,-29.69905 -0.4913,-60.24928 -0.9955,-90.0868"
               style="fill:none;stroke:#000000;stroke-width:2.61538;stroke-linecap:round;stroke-linejoin:round;stroke-miterlimit:10;stroke-dasharray:none;stroke-opacity:1"
               id="path146"
               sodipodi:nodetypes="cc" />
          </g>
        </g>
        <g
           id="g148"
           transform="matrix(1,0,0,-1,0,792)">
          <g
             id="g150">
            <path
               d="M 834.80084,686.34064 C 829.11244,578.52133 833.1901,469.49157 836.44679,435.765"
               style="fill:none;stroke:#000000;stroke-width:2.61538;stroke-linecap:round;stroke-linejoin:round;stroke-miterlimit:10;stroke-dasharray:none;stroke-opacity:1"
               id="path152"
               sodipodi:nodetypes="cc" />
          </g>
        </g>
        <g
           id="g154"
           transform="matrix(1,0,0,-1,0,792)">
          <g
             id="g156">
            <path
               d="m 880.63262,434.17858 c -5.70758,13.15088 17.97117,14.47995 16.93033,0.52024"
               style="fill:none;stroke:#000000;stroke-width:2.61538;stroke-linecap:round;stroke-linejoin:round;stroke-miterlimit:10;stroke-dasharray:none;stroke-opacity:1"
               id="path158"
               sodipodi:nodetypes="cc" />
          </g>
        </g>
        <g
           id="g160"
           transform="matrix(1,0,0,-1,0,792)">
          <g
             id="g162">
            <path
               d="m 1002.7051,540.79941 c 3.2084,-22.68861 28.0878,-41.13216 13.6545,-64.50402 -9.4296,-32.74705 -48.85574,-25.20012 -74.96381,-25.60301 -19.34895,-0.19176 -38.77,-1.2814 -58.04903,1.80337"
               style="fill:none;stroke:#000000;stroke-width:2.61538;stroke-linecap:round;stroke-linejoin:round;stroke-miterlimit:10;stroke-dasharray:none;stroke-opacity:1"
               id="path164"
               sodipodi:nodetypes="cccc" />
          </g>
        </g>
        <g
           id="g166"
           transform="matrix(1,0,0,-1,0,792)">
          <g
             id="g168">
            <path
               d="m 883.34676,452.49575 c -23.53723,0.77598 -38.62837,22.91626 -32.64178,44.2923"
               style="fill:none;stroke:#000000;stroke-width:2.61538;stroke-linecap:round;stroke-linejoin:round;stroke-miterlimit:10;stroke-dasharray:none;stroke-opacity:1"
               id="path170"
               sodipodi:nodetypes="cc" />
          </g>
        </g>
        <g
           id="g172"
           transform="matrix(1,0,0,-1,0,792)">
          <g
             id="g174">
            <path
               d="m 1002.4766,525.59443 c 7.2912,-18.82482 23.931,-43.3573 4.5957,-62.15274 -24.04963,-21.29766 -57.55966,-4.86103 -85.81526,-7.03968 -10.70965,-1.15357 -46.25722,-7.33644 -39.81745,-1.43676 4.85922,2.4445 12.68179,4.06712 13.89845,10.29496"
               style="fill:none;stroke:#000000;stroke-width:2.61538;stroke-linecap:round;stroke-linejoin:round;stroke-miterlimit:10;stroke-dasharray:none;stroke-opacity:1"
               id="path176"
               sodipodi:nodetypes="ccccc" />
          </g>
        </g>
        <g
           id="g178"
           transform="matrix(1,0,0,-1,0,792)">
          <g
             id="g180">
            <path
               d="m 882.03907,467.91457 c -18.14648,-8.84695 -22.76656,15.99066 -11.8644,27.58682"
               style="fill:none;stroke:#000000;stroke-width:2.61538;stroke-linecap:round;stroke-linejoin:round;stroke-miterlimit:10;stroke-dasharray:none;stroke-opacity:1"
               id="path182"
               sodipodi:nodetypes="cc" />
          </g>
        </g>
      </g>
    </g>
  </g>
</svg>
