<?xml version="1.0" encoding="UTF-8" standalone="no"?>
<!-- Created by Ashley Blewer - This work is licensed under a Creative Commons Attribution 4.0 International License -->

<svg
   width="544"
   height="480"
   viewBox="0 0 143.93334 127"
   version="1.1"
   id="svg2490"
   inkscape:version="1.2.2 (1:1.2.2+202212051552+b0a8486541)"
   sodipodi:docname="1988-pocket-rockers-3.svg"
   xmlns:inkscape="http://www.inkscape.org/namespaces/inkscape"
   xmlns:sodipodi="http://sodipodi.sourceforge.net/DTD/sodipodi-0.dtd"
   xmlns="http://www.w3.org/2000/svg"
   xmlns:svg="http://www.w3.org/2000/svg">
  <sodipodi:namedview
     id="namedview2492"
     pagecolor="#ffffff"
     bordercolor="#666666"
     borderopacity="1.0"
     inkscape:pageshadow="2"
     inkscape:pageopacity="0.0"
     inkscape:pagecheckerboard="0"
     inkscape:document-units="mm"
     showgrid="false"
     units="px"
     inkscape:zoom="0.90583674"
     inkscape:cx="53.541657"
     inkscape:cy="253.35691"
     inkscape:window-width="1846"
     inkscape:window-height="1136"
     inkscape:window-x="0"
     inkscape:window-y="0"
     inkscape:window-maximized="1"
     inkscape:current-layer="g4731"
     inkscape:showpageshadow="2"
     inkscape:deskcolor="#d1d1d1" />
  <defs
     id="defs2487" />
  <g
     inkscape:label="Layer 1"
     inkscape:groupmode="layer"
     id="layer1">
    <g
       id="g4731"
       transform="matrix(0.32961229,0,0,0.32903008,-241.78905,1.73126)"
       style="stroke-width:2.68698">
      <g
         id="g104528"
         transform="matrix(1,0,0,-1,0,792)"
         style="stroke-width:2.68698">
        <g
           id="g104530"
           style="stroke-width:2.68698" />
      </g>
      <g
         id="g104996"
         transform="matrix(1,0,0,-1,0,792)"
         style="stroke-width:2.68698">
        <g
           id="g104998"
           style="stroke-width:2.68698" />
      </g>
      <g
         id="g2959"
         transform="matrix(0.95879839,0,0,0.96049493,61.409911,-397.19951)">
        <g
           id="g184"
           transform="matrix(1,0,0,-1,0,792)">
          <g
             id="g186">
            <path
               d="m 953.74219,254.50778 c 48.55371,6.04482 97.51091,-0.73325 146.13761,3.90752 4.1094,0.0372 8.2214,-0.0456 12.3208,-0.35969"
               style="fill:none;stroke:#000000;stroke-width:2.61538;stroke-linecap:round;stroke-linejoin:round;stroke-miterlimit:10;stroke-dasharray:none;stroke-opacity:1"
               id="path188" />
          </g>
        </g>
        <g
           id="g190"
           transform="matrix(1,0,0,-1,0,792)">
          <g
             id="g192">
            <path
               d="m 952.19788,253.73912 c -7.3974,-9.85227 -4.98269,-33.6871 -4.74115,-37.84581"
               style="fill:none;stroke:#000000;stroke-width:2.61538;stroke-linecap:round;stroke-linejoin:round;stroke-miterlimit:10;stroke-dasharray:none;stroke-opacity:1"
               id="path194"
               sodipodi:nodetypes="cc" />
          </g>
        </g>
        <g
           id="g196"
           transform="matrix(1,0,0,-1,0,792)">
          <g
             id="g198">
            <path
               d="m 952.19788,253.73912 c 1.37913,-35.16337 8.63729,-70.05052 10.8063,-105.14879"
               style="fill:none;stroke:#000000;stroke-width:2.61538;stroke-linecap:round;stroke-linejoin:round;stroke-miterlimit:10;stroke-dasharray:none;stroke-opacity:1"
               id="path200"
               sodipodi:nodetypes="cc" />
          </g>
        </g>
        <g
           id="g202"
           transform="matrix(1,0,0,-1,0,792)">
          <g
             id="g204">
            <path
               d="m 947.45673,215.89331 c 3.75044,-38.91597 4.05975,-78.73276 12.75039,-116.820589"
               style="fill:none;stroke:#000000;stroke-width:2.61538;stroke-linecap:round;stroke-linejoin:round;stroke-miterlimit:10;stroke-dasharray:none;stroke-opacity:1"
               id="path206" />
          </g>
        </g>
        <g
           id="g208"
           transform="matrix(1,0,0,-1,0,792)">
          <g
             id="g210">
            <path
               d="m 961.05243,100.25329 c -0.0232,16.10932 -0.93271,32.39511 1.95175,48.33704"
               style="fill:none;stroke:#000000;stroke-width:2.61538;stroke-linecap:round;stroke-linejoin:round;stroke-miterlimit:10;stroke-dasharray:none;stroke-opacity:1"
               id="path212" />
          </g>
        </g>
        <g
           id="g214"
           transform="matrix(1,0,0,-1,0,792)">
          <g
             id="g216">
            <path
               d="m 1112.2006,258.05561 c 11.6564,-32.96072 17.0607,-69.85696 25.6401,-103.60068 l -0.2132,-1.84724"
               style="fill:none;stroke:#000000;stroke-width:2.61538;stroke-linecap:round;stroke-linejoin:round;stroke-miterlimit:10;stroke-dasharray:none;stroke-opacity:1"
               id="path218"
               sodipodi:nodetypes="ccc" />
          </g>
        </g>
        <g
           id="g220"
           transform="matrix(1,0,0,-1,0,792)">
          <g
             id="g222">
            <path
               d="m 962.16357,98.717163 c 54.29493,-4.088206 108.73023,4.946607 163.00463,-0.513077 3.663,0.319779 14.206,-0.439055 9.8956,9.560124"
               style="fill:none;stroke:#000000;stroke-width:2.61538;stroke-linecap:round;stroke-linejoin:round;stroke-miterlimit:10;stroke-dasharray:none;stroke-opacity:1"
               id="path224"
               sodipodi:nodetypes="ccc" />
          </g>
        </g>
        <g
           id="g226"
           transform="matrix(1,0,0,-1,0,792)">
          <g
             id="g228">
            <path
               d="m 1135.0638,107.76421 c 1.0169,14.9499 3.8058,31.67507 2.7769,46.69072"
               style="fill:none;stroke:#000000;stroke-width:2.61538;stroke-linecap:round;stroke-linejoin:round;stroke-miterlimit:10;stroke-dasharray:none;stroke-opacity:1"
               id="path230"
               sodipodi:nodetypes="cc" />
          </g>
        </g>
        <g
           id="g232"
           transform="matrix(1,0,0,-1,0,792)">
          <g
             id="g234">
            <path
               d="m 719.43207,213.57176 c 42.9817,2.47906 127.87881,22.44656 127.87881,22.44656 7.78974,1.13575 16.14177,2.50868 23.11515,-2.83984"
               style="fill:none;stroke:#000000;stroke-width:2.61538;stroke-linecap:round;stroke-linejoin:round;stroke-miterlimit:10;stroke-dasharray:none;stroke-opacity:1"
               id="path236"
               sodipodi:nodetypes="ccc" />
          </g>
        </g>
        <g
           id="g238"
           transform="matrix(1,0,0,-1,0,792)">
          <g
             id="g240">
            <path
               d="m 870.42603,233.17848 c 14.00095,-24.61871 35.86602,-44.23241 48.74677,-69.29436 l 0.46245,-3.25094"
               style="fill:none;stroke:#000000;stroke-width:2.61538;stroke-linecap:round;stroke-linejoin:round;stroke-miterlimit:10;stroke-dasharray:none;stroke-opacity:1"
               id="path242" />
          </g>
        </g>
        <g
           id="g244"
           transform="matrix(1,0,0,-1,0,792)">
          <g
             id="g246">
            <path
               d="m 719.43207,213.57176 c 15.15619,-26.67204 28.81764,-54.11456 44.69836,-80.38524"
               style="fill:none;stroke:#000000;stroke-width:2.61538;stroke-linecap:round;stroke-linejoin:round;stroke-miterlimit:10;stroke-dasharray:none;stroke-opacity:1"
               id="path248"
               sodipodi:nodetypes="cc" />
          </g>
        </g>
        <g
           id="g250"
           transform="matrix(1,0,0,-1,0,792)">
          <g
             id="g252">
            <path
               d="m 719.43207,213.57176 c 0,0 2.65941,-37.70353 4.43219,-51.05192"
               style="fill:none;stroke:#000000;stroke-width:2.61538;stroke-linecap:round;stroke-linejoin:round;stroke-miterlimit:10;stroke-dasharray:none;stroke-opacity:1"
               id="path254"
               sodipodi:nodetypes="cc" />
          </g>
        </g>
        <g
           id="g256"
           transform="matrix(1,0,0,-1,0,792)">
          <g
             id="g258">
            <path
               d="m 723.86426,162.51984 c 0,0 23.80306,-56.65751 42.50136,-77.840249"
               style="fill:none;stroke:#000000;stroke-width:2.61538;stroke-linecap:round;stroke-linejoin:round;stroke-miterlimit:10;stroke-dasharray:none;stroke-opacity:1"
               id="path260"
               sodipodi:nodetypes="cc" />
          </g>
        </g>
        <g
           id="g262"
           transform="matrix(1,0,0,-1,0,792)">
          <g
             id="g264">
            <path
               d="m 764.13043,133.18652 c 1.61444,-16.71608 0.32671,-33.668827 3.33855,-50.253132"
               style="fill:none;stroke:#000000;stroke-width:2.61538;stroke-linecap:round;stroke-linejoin:round;stroke-miterlimit:10;stroke-dasharray:none;stroke-opacity:1"
               id="path266" />
          </g>
        </g>
        <g
           id="g268"
           transform="matrix(1,0,0,-1,0,792)">
          <g
             id="g270">
            <path
               d="m 764.13043,133.18652 c 39.65029,6.10433 86.74242,13.07826 126.48401,18.62551"
               style="fill:none;stroke:#000000;stroke-width:2.61538;stroke-linecap:round;stroke-linejoin:round;stroke-miterlimit:10;stroke-dasharray:none;stroke-opacity:1"
               id="path272"
               sodipodi:nodetypes="cc" />
          </g>
        </g>
        <g
           id="g274"
           transform="matrix(1,0,0,-1,0,792)">
          <g
             id="g276">
            <path
               d="m 890.61444,151.81203 c -1.1735,11.69912 16.56873,14.16107 14.8989,1.6646"
               style="fill:none;stroke:#000000;stroke-width:2.61538;stroke-linecap:round;stroke-linejoin:round;stroke-miterlimit:10;stroke-dasharray:none;stroke-opacity:1"
               id="path278" />
          </g>
        </g>
        <g
           id="g280"
           transform="matrix(1,0,0,-1,0,792)">
          <g
             id="g282">
            <path
               d="m 905.51334,153.47663 c 1.33564,0.4573 10.85287,4.0579 12.58203,4.54393"
               style="fill:none;stroke:#000000;stroke-width:2.61538;stroke-linecap:round;stroke-linejoin:round;stroke-miterlimit:10;stroke-dasharray:none;stroke-opacity:1"
               id="path284"
               sodipodi:nodetypes="cc" />
          </g>
        </g>
        <g
           id="g286"
           transform="matrix(1,0,0,-1,0,792)">
          <g
             id="g288">
            <path
               d="m 919.63525,160.63318 c -3.0426,-15.91442 -3.64916,-41.53739 -7.12111,-57.50624"
               style="fill:none;stroke:#000000;stroke-width:2.61538;stroke-linecap:round;stroke-linejoin:round;stroke-miterlimit:10;stroke-dasharray:none;stroke-opacity:1"
               id="path290"
               sodipodi:nodetypes="cc" />
          </g>
        </g>
        <g
           id="g292"
           transform="matrix(1,0,0,-1,0,792)">
          <g
             id="g294">
            <path
               d="m 766.36562,84.679591 c 40.48039,5.702545 99.81834,12.341845 146.14852,18.447349"
               style="fill:none;stroke:#000000;stroke-width:2.61538;stroke-linecap:round;stroke-linejoin:round;stroke-miterlimit:10;stroke-dasharray:none;stroke-opacity:1"
               id="path296"
               sodipodi:nodetypes="cc" />
          </g>
        </g>
        <g
           id="g298"
           transform="matrix(1,0,0,-1,0,792)">
          <g
             id="g300">
            <path
               d="m 852.01355,226.78416 c -10.51631,-10.10616 21.07126,-3.49446 -0.49866,0.0522"
               style="fill:none;stroke:#000000;stroke-width:2.61538;stroke-linecap:round;stroke-linejoin:round;stroke-miterlimit:10;stroke-dasharray:none;stroke-opacity:1"
               id="path302" />
          </g>
        </g>
        <g
           id="g304"
           transform="matrix(1,0,0,-1,0,792)">
          <g
             id="g306">
            <path
               d="m 743.48706,209.496 c -11.51656,-8.48064 17.7735,-0.58416 0,0"
               style="fill:none;stroke:#000000;stroke-width:2.61538;stroke-linecap:round;stroke-linejoin:round;stroke-miterlimit:10;stroke-dasharray:none;stroke-opacity:1"
               id="path308"
               sodipodi:nodetypes="cc" />
          </g>
        </g>
        <g
           id="g310"
           transform="matrix(1,0,0,-1,0,792)">
          <g
             id="g312">
            <path
               d="m 967.91864,248.68098 c -2.49563,-9.88641 14.63864,2.3498 -2.72664,-0.59602"
               style="fill:none;stroke:#000000;stroke-width:2.61538;stroke-linecap:round;stroke-linejoin:round;stroke-miterlimit:10;stroke-dasharray:none;stroke-opacity:1"
               id="path314" />
          </g>
        </g>
        <g
           id="g316"
           transform="matrix(1,0,0,-1,0,792)">
          <g
             id="g318">
            <path
               d="m 784.97368,121.61276 c 27.86896,4.23126 66.46963,5.2545 94.30904,9.70504"
               style="fill:none;stroke:#000000;stroke-width:2.61538;stroke-linecap:round;stroke-linejoin:round;stroke-miterlimit:10;stroke-dasharray:none;stroke-opacity:1"
               id="path320"
               sodipodi:nodetypes="cc" />
          </g>
        </g>
        <g
           id="g322"
           transform="matrix(1,0,0,-1,0,792)">
          <g
             id="g324">
            <path
               d="m 892.09644,133.63444 c 1.24357,0.38756 9.89312,2.69661 11.51367,3.37359"
               style="fill:none;stroke:#000000;stroke-width:2.61538;stroke-linecap:round;stroke-linejoin:round;stroke-miterlimit:10;stroke-dasharray:none;stroke-opacity:1"
               id="path326"
               sodipodi:nodetypes="cc" />
          </g>
        </g>
        <g
           id="g328"
           transform="matrix(1,0,0,-1,0,792)">
          <g
             id="g330">
            <path
               d="m 902.3313,119.65269 c -3.20341,-1.53319 -6.80567,-2.64236 -10.39963,-2.22047"
               style="fill:none;stroke:#000000;stroke-width:2.61538;stroke-linecap:round;stroke-linejoin:round;stroke-miterlimit:10;stroke-dasharray:none;stroke-opacity:1"
               id="path332" />
          </g>
        </g>
        <g
           id="g334"
           transform="matrix(1,0,0,-1,0,792)">
          <g
             id="g336">
            <path
               d="m 903.61011,137.00803 c -0.0446,-6.03857 2.46187,-15.4738 -3.913,-19.22162"
               style="fill:none;stroke:#000000;stroke-width:2.61538;stroke-linecap:round;stroke-linejoin:round;stroke-miterlimit:10;stroke-dasharray:none;stroke-opacity:1"
               id="path338" />
          </g>
        </g>
        <g
           id="g340"
           transform="matrix(1,0,0,-1,0,792)">
          <g
             id="g342">
            <path
               d="M 879.4971,115.21832 C 851.31871,112.22 816.00452,104.79693 787.73707,102.72846"
               style="fill:none;stroke:#000000;stroke-width:2.61538;stroke-linecap:round;stroke-linejoin:round;stroke-miterlimit:10;stroke-dasharray:none;stroke-opacity:1"
               id="path344"
               sodipodi:nodetypes="cc" />
          </g>
        </g>
        <g
           id="g346"
           transform="matrix(1,0,0,-1,0,792)">
          <g
             id="g348">
            <path
               d="m 784.97368,121.61276 c -0.17644,-5.43196 -3.04801,-17.72986 2.76339,-18.8843"
               style="fill:none;stroke:#000000;stroke-width:2.61538;stroke-linecap:round;stroke-linejoin:round;stroke-miterlimit:10;stroke-dasharray:none;stroke-opacity:1"
               id="path350"
               sodipodi:nodetypes="cc" />
          </g>
        </g>
        <g
           id="g352"
           transform="matrix(1,0,0,-1,0,792)">
          <g
             id="g354">
            <path
               d="m 879.28272,131.3178 0.21438,-16.09948"
               style="fill:none;stroke:#000000;stroke-width:2.61538;stroke-linecap:round;stroke-linejoin:round;stroke-miterlimit:10;stroke-dasharray:none;stroke-opacity:1"
               id="path356"
               sodipodi:nodetypes="cc" />
          </g>
        </g>
        <g
           id="g358"
           transform="matrix(1,0,0,-1,0,792)">
          <g
             id="g360">
            <path
               d="m 892.09644,133.63444 c -2.26575,-7.76202 1.04833,-11.64747 -0.16477,-16.20222"
               style="fill:none;stroke:#000000;stroke-width:2.61538;stroke-linecap:round;stroke-linejoin:round;stroke-miterlimit:10;stroke-dasharray:none;stroke-opacity:1"
               id="path362"
               sodipodi:nodetypes="cc" />
          </g>
        </g>
        <g
           id="g364"
           transform="matrix(1,0,0,-1,0,792)">
          <g
             id="g366">
            <path
               d="m 986.93163,139.0847 c 0,0 15.14137,0.28349 18.73577,-0.86691"
               style="fill:none;stroke:#000000;stroke-width:2.61538;stroke-linecap:round;stroke-linejoin:round;stroke-miterlimit:10;stroke-dasharray:none;stroke-opacity:1"
               id="path368"
               sodipodi:nodetypes="cc" />
          </g>
        </g>
        <g
           id="g370"
           transform="matrix(1,0,0,-1,0,792)">
          <g
             id="g372">
            <path
               d="m 985.65424,118.50886 c 4.63746,-3.31104 11.61697,-2.18565 16.21296,0.62069"
               style="fill:none;stroke:#000000;stroke-width:2.61538;stroke-linecap:round;stroke-linejoin:round;stroke-miterlimit:10;stroke-dasharray:none;stroke-opacity:1"
               id="path374" />
          </g>
        </g>
        <g
           id="g376"
           transform="matrix(1,0,0,-1,0,792)">
          <g
             id="g378">
            <path
               d="m 1001.6528,119.78886 c 3.4763,8.7956 0.497,20.16098 0.1368,29.52417"
               style="fill:none;stroke:#000000;stroke-width:2.61538;stroke-linecap:round;stroke-linejoin:round;stroke-miterlimit:10;stroke-dasharray:none;stroke-opacity:1"
               id="path380" />
          </g>
        </g>
        <g
           id="g382"
           transform="matrix(1,0,0,-1,0,792)">
          <g
             id="g384">
            <path
               d="m 1001.4979,149.30279 c -24.97202,18.76398 -9.16047,-20.56672 -15.84366,-30.79393"
               style="fill:none;stroke:#000000;stroke-width:2.61538;stroke-linecap:round;stroke-linejoin:round;stroke-miterlimit:10;stroke-dasharray:none;stroke-opacity:1"
               id="path386"
               sodipodi:nodetypes="cc" />
          </g>
        </g>
        <g
           id="g388"
           transform="matrix(1,0,0,-1,0,792)">
          <g
             id="g390">
            <path
               d="m 961.73566,120.46761 c 7.50403,-0.76336 15.06053,-0.81822 22.59375,-0.61687"
               style="fill:none;stroke:#000000;stroke-width:2.61538;stroke-linecap:round;stroke-linejoin:round;stroke-miterlimit:10;stroke-dasharray:none;stroke-opacity:1"
               id="path392" />
          </g>
        </g>
        <g
           id="g394"
           transform="matrix(1,0,0,-1,0,792)">
          <g
             id="g396">
            <path
               d="m 1006.1437,120.56793 c 17.7286,-0.1855 35.4287,1.22864 53.1553,1.22132"
               style="fill:none;stroke:#000000;stroke-width:2.61538;stroke-linecap:round;stroke-linejoin:round;stroke-miterlimit:10;stroke-dasharray:none;stroke-opacity:1"
               id="path398" />
          </g>
        </g>
        <g
           id="g400"
           transform="matrix(1,0,0,-1,0,792)">
          <g
             id="g402">
            <path
               d="m 1005.6674,138.21779 c 19.6401,0.79957 39.2967,1.04009 58.9454,1.5346"
               style="fill:none;stroke:#000000;stroke-width:2.61538;stroke-linecap:round;stroke-linejoin:round;stroke-miterlimit:10;stroke-dasharray:none;stroke-opacity:1"
               id="path404" />
          </g>
        </g>
        <g
           id="g406"
           transform="matrix(1,0,0,-1,0,792)">
          <g
             id="g408">
            <path
               d="m 1046.0427,148.3147 c -3.7823,-9.40295 -1.2981,-25.26671 -5.4249,-31.66247"
               style="fill:none;stroke:#000000;stroke-width:2.61538;stroke-linecap:round;stroke-linejoin:round;stroke-miterlimit:10;stroke-dasharray:none;stroke-opacity:1"
               id="path410" />
          </g>
        </g>
        <g
           id="g412"
           transform="matrix(1,0,0,-1,0,792)">
          <g
             id="g414">
            <path
               d="m 1029.4067,148.26312 c 2.2301,-10.6069 1.6363,-23.8139 -2.0628,-33.08228"
               style="fill:none;stroke:#000000;stroke-width:2.61538;stroke-linecap:round;stroke-linejoin:round;stroke-miterlimit:10;stroke-dasharray:none;stroke-opacity:1"
               id="path416" />
          </g>
        </g>
        <g
           id="g418"
           transform="matrix(1,0,0,-1,0,792)">
          <g
             id="g420">
            <path
               d="m 1008.9543,144.76718 c 3.1175,-8.52935 1.7089,-18.09864 -0.8686,-26.57146"
               style="fill:none;stroke:#000000;stroke-width:2.61538;stroke-linecap:round;stroke-linejoin:round;stroke-miterlimit:10;stroke-dasharray:none;stroke-opacity:1"
               id="path422" />
          </g>
        </g>
        <g
           id="g424"
           transform="matrix(1,0,0,-1,0,792)">
          <g
             id="g426">
            <path
               d="m 1063.2389,139.99448 c 12.2071,1.17954 24.4844,0.69892 36.7253,0.68508"
               style="fill:none;stroke:#000000;stroke-width:2.61538;stroke-linecap:round;stroke-linejoin:round;stroke-miterlimit:10;stroke-dasharray:none;stroke-opacity:1"
               id="path428" />
          </g>
        </g>
        <g
           id="g430"
           transform="matrix(1,0,0,-1,0,792)">
          <g
             id="g432">
            <path
               d="m 1056.6216,120.79748 c 19.5302,4.50382 41.8511,-0.49919 60.1373,2.96156"
               style="fill:none;stroke:#000000;stroke-width:2.61538;stroke-linecap:round;stroke-linejoin:round;stroke-miterlimit:10;stroke-dasharray:none;stroke-opacity:1"
               id="path434" />
          </g>
        </g>
        <g
           id="g436"
           transform="matrix(1,0,0,-1,0,792)">
          <g
             id="g438">
            <path
               d="m 1118.3253,123.4819 c 0.9428,5.48455 1.4208,11.20511 0.2543,16.69753"
               style="fill:none;stroke:#000000;stroke-width:2.61538;stroke-linecap:round;stroke-linejoin:round;stroke-miterlimit:10;stroke-dasharray:none;stroke-opacity:1"
               id="path440" />
          </g>
        </g>
        <g
           id="g442"
           transform="matrix(1,0,0,-1,0,792)">
          <g
             id="g444">
            <path
               d="m 1116.8234,140.02704 c -7.2418,-0.47544 -21.7107,-0.17728 -21.7107,-0.17728"
               style="fill:none;stroke:#000000;stroke-width:2.61538;stroke-linecap:round;stroke-linejoin:round;stroke-miterlimit:10;stroke-dasharray:none;stroke-opacity:1"
               id="path446"
               sodipodi:nodetypes="cc" />
          </g>
        </g>
        <g
           id="g448"
           transform="matrix(1,0,0,-1,0,792)">
          <g
             id="g450">
            <path
               d="m 1063.1569,142.29982 c 9.2108,4.0224 19.9869,1.84262 29.5561,0.4137"
               style="fill:none;stroke:#000000;stroke-width:2.61538;stroke-linecap:round;stroke-linejoin:round;stroke-miterlimit:10;stroke-dasharray:none;stroke-opacity:1"
               id="path452" />
          </g>
        </g>
        <g
           id="g454"
           transform="matrix(1,0,0,-1,0,792)">
          <g
             id="g456">
            <path
               d="m 1064.8307,121.7128 c 4.9464,-5.57956 20.406,-6.024 25.1534,-2.16275"
               style="fill:none;stroke:#000000;stroke-width:2.61538;stroke-linecap:round;stroke-linejoin:round;stroke-miterlimit:10;stroke-dasharray:none;stroke-opacity:1"
               id="path458" />
          </g>
        </g>
        <g
           id="g460"
           transform="matrix(1,0,0,-1,0,792)">
          <g
             id="g462">
            <path
               d="m 1118.9744,147.42786 c 0.097,-12.75437 3.9993,-26.18459 -0.883,-38.50284"
               style="fill:none;stroke:#000000;stroke-width:2.61538;stroke-linecap:round;stroke-linejoin:round;stroke-miterlimit:10;stroke-dasharray:none;stroke-opacity:1"
               id="path464" />
          </g>
        </g>
        <g
           id="g466"
           transform="matrix(1,0,0,-1,0,792)">
          <g
             id="g468">
            <path
               d="m 1121.0479,121.27557 c 4.7859,1.53415 10.0219,-0.0803 14.6904,1.93915"
               style="fill:none;stroke:#000000;stroke-width:2.61538;stroke-linecap:round;stroke-linejoin:round;stroke-miterlimit:10;stroke-dasharray:none;stroke-opacity:1"
               id="path470" />
          </g>
        </g>
        <g
           id="g472"
           transform="matrix(1,0,0,-1,0,792)">
          <g
             id="g474">
            <path
               d="m 995.21252,254.11676 c -5.87851,-2.63073 -11.57648,-5.73858 -16.93389,-9.31484"
               style="fill:none;stroke:#000000;stroke-width:1.30769;stroke-linecap:round;stroke-linejoin:round;stroke-miterlimit:10;stroke-dasharray:none;stroke-opacity:1"
               id="path476" />
          </g>
        </g>
        <g
           id="g478"
           transform="matrix(1,0,0,-1,0,792)">
          <g
             id="g480">
            <path
               d="m 977.97357,241.67856 c 1.50281,-28.24442 4.65961,-56.46523 9.93918,-84.25485"
               style="fill:none;stroke:#000000;stroke-width:1.30769;stroke-linecap:round;stroke-linejoin:round;stroke-miterlimit:10;stroke-dasharray:none;stroke-opacity:1"
               id="path482" />
          </g>
        </g>
        <g
           id="g484"
           transform="matrix(1,0,0,-1,0,792)">
          <g
             id="g486">
            <path
               d="m 978.91815,217.98566 c -8.25442,-5.37886 -18.17941,-18.72037 -12.99358,-28.85472"
               style="fill:none;stroke:#000000;stroke-width:1.30769;stroke-linecap:round;stroke-linejoin:round;stroke-miterlimit:10;stroke-dasharray:none;stroke-opacity:1"
               id="path488" />
          </g>
        </g>
        <g
           id="g490"
           transform="matrix(1,0,0,-1,0,792)">
          <g
             id="g492">
            <path
               d="m 976.68622,201.16763 c -8.71616,-5.50967 -12.12431,-16.8544 -12.45329,-26.63448"
               style="fill:none;stroke:#000000;stroke-width:1.30769;stroke-linecap:round;stroke-linejoin:round;stroke-miterlimit:10;stroke-dasharray:none;stroke-opacity:1"
               id="path494" />
          </g>
        </g>
        <g
           id="g496"
           transform="matrix(1,0,0,-1,0,792)">
          <g
             id="g498">
            <path
               d="m 830.56818,129.23442 c 0.22587,0.975 0.63419,6.06556 0.61248,7.63584"
               style="fill:none;stroke:#000000;stroke-width:1.30769;stroke-linecap:round;stroke-linejoin:round;stroke-miterlimit:10;stroke-dasharray:none;stroke-opacity:1"
               id="path500" />
          </g>
        </g>
        <g
           id="g502"
           transform="matrix(1,0,0,-1,0,792)">
          <g
             id="g504">
            <path
               d="m 782.32574,152.8723 c -0.4487,-0.3202 0.3747,-3.29062 -0.75357,-2.20725"
               style="fill:none;stroke:#000000;stroke-width:1.30769;stroke-linecap:round;stroke-linejoin:round;stroke-miterlimit:10;stroke-dasharray:none;stroke-opacity:1"
               id="path506" />
          </g>
        </g>
        <g
           id="g508"
           transform="matrix(1,0,0,-1,0,792)">
          <g
             id="g510">
            <path
               d="m 792.67578,147.95113 c -9.46318,15.55967 -18.40313,31.34494 -27.10388,47.35778"
               style="fill:none;stroke:#000000;stroke-width:1.30769;stroke-linecap:round;stroke-linejoin:round;stroke-miterlimit:10;stroke-dasharray:none;stroke-opacity:1"
               id="path512" />
          </g>
        </g>
        <g
           id="g514"
           transform="matrix(1,0,0,-1,0,792)">
          <g
             id="g516">
            <path
               d="m 768.45807,196.78336 c 28.03559,8.0289 57.99874,8.1889 86.09827,14.57135"
               style="fill:none;stroke:#000000;stroke-width:1.30769;stroke-linecap:round;stroke-linejoin:round;stroke-miterlimit:10;stroke-dasharray:none;stroke-opacity:1"
               id="path518" />
          </g>
        </g>
        <g
           id="g520"
           transform="matrix(1,0,0,-1,0,792)">
          <g
             id="g522">
            <path
               d="m 854.55634,211.35471 26.91058,-48.805"
               style="fill:none;stroke:#000000;stroke-width:1.30769;stroke-linecap:round;stroke-linejoin:round;stroke-miterlimit:10;stroke-dasharray:none;stroke-opacity:1"
               id="path524"
               sodipodi:nodetypes="cc" />
          </g>
        </g>
        <g
           id="g526"
           transform="matrix(1,0,0,-1,0,792)">
          <g
             id="g528">
            <path
               d="m 795.13702,147.12759 c 29.14578,2.87785 57.45888,10.8421 86.3299,15.42212"
               style="fill:none;stroke:#000000;stroke-width:1.30769;stroke-linecap:round;stroke-linejoin:round;stroke-miterlimit:10;stroke-dasharray:none;stroke-opacity:1"
               id="path530" />
          </g>
        </g>
        <g
           id="g532"
           transform="matrix(1,0,0,-1,0,792)">
          <g
             id="g534">
            <path
               d="m 831.10754,208.45406 c -18.8586,5.63423 -38.76311,-0.73634 -55.71075,-9.17755"
               style="fill:none;stroke:#000000;stroke-width:1.30769;stroke-linecap:round;stroke-linejoin:round;stroke-miterlimit:10;stroke-dasharray:none;stroke-opacity:1"
               id="path536" />
          </g>
        </g>
        <g
           id="g538"
           transform="matrix(1,0,0,-1,0,792)">
          <g
             id="g540">
            <path
               d="m 765.62427,191.26677 c -1.14663,-6.7179 1.56722,-13.49407 5.79689,-18.61007"
               style="fill:none;stroke:#000000;stroke-width:1.30769;stroke-linecap:round;stroke-linejoin:round;stroke-miterlimit:10;stroke-dasharray:none;stroke-opacity:1"
               id="path542" />
          </g>
        </g>
        <g
           id="g544"
           transform="matrix(1,0,0,-1,0,792)">
          <g
             id="g546">
            <path
               d="m 773.88947,172.798 c -2.1157,-7.56724 -12.86674,-19.19007 -9.20704,-25.23763"
               style="fill:none;stroke:#000000;stroke-width:1.30769;stroke-linecap:round;stroke-linejoin:round;stroke-miterlimit:10;stroke-dasharray:none;stroke-opacity:1"
               id="path548" />
          </g>
        </g>
        <g
           id="g550"
           transform="matrix(1,0,0,-1,0,792)">
          <g
             id="g552">
            <path
               d="m 786.22131,156.18918 c -0.57159,-0.90358 -2.72032,-4.56509 -3.2231,-5.49227"
               style="fill:none;stroke:#000000;stroke-width:1.30769;stroke-linecap:round;stroke-linejoin:round;stroke-miterlimit:10;stroke-dasharray:none;stroke-opacity:1"
               id="path554" />
          </g>
        </g>
        <g
           id="g556"
           transform="matrix(1,0,0,-1,0,792)">
          <g
             id="g558">
            <path
               d="m 863.72778,194.72139 c 14.59695,-8.19569 39.22253,-21.91453 43.40141,-36.84068"
               style="fill:none;stroke:#000000;stroke-width:1.30769;stroke-linecap:round;stroke-linejoin:round;stroke-miterlimit:10;stroke-dasharray:none;stroke-opacity:1"
               id="path560"
               sodipodi:nodetypes="cc" />
          </g>
        </g>
        <g
           id="g562"
           transform="matrix(1,0,0,-1,0,792)">
          <g
             id="g564">
            <path
               d="m 836.83081,137.76527 c 6.61948,-4.28052 20.94888,-7.05047 23.95964,2.9355"
               style="fill:none;stroke:#000000;stroke-width:1.30769;stroke-linecap:round;stroke-linejoin:round;stroke-miterlimit:10;stroke-dasharray:none;stroke-opacity:1"
               id="path566" />
          </g>
        </g>
        <g
           id="g568"
           transform="matrix(1,0,0,-1,0,792)">
          <g
             id="g570">
            <path
               d="m 835.38904,139.72577 c 8.65124,1.06596 17.40547,1.21485 26.00036,2.74334"
               style="fill:none;stroke:#000000;stroke-width:1.30769;stroke-linecap:round;stroke-linejoin:round;stroke-miterlimit:10;stroke-dasharray:none;stroke-opacity:1"
               id="path572" />
          </g>
        </g>
        <g
           id="g574"
           transform="matrix(1,0,0,-1,0,792)">
          <g
             id="g576">
            <path
               d="m 795.75128,132.54277 c 12.01373,4.01881 24.53984,6.52512 37.16895,7.49649"
               style="fill:none;stroke:#000000;stroke-width:1.30769;stroke-linecap:round;stroke-linejoin:round;stroke-miterlimit:10;stroke-dasharray:none;stroke-opacity:1"
               id="path578" />
          </g>
        </g>
        <g
           id="g580"
           transform="matrix(1,0,0,-1,0,792)">
          <g
             id="g582">
            <path
               d="m 797.42578,130.71516 c 1.39537,-0.99456 -1.84778,-3.82585 0.74527,-4.03052"
               style="fill:none;stroke:#000000;stroke-width:1.30769;stroke-linecap:round;stroke-linejoin:round;stroke-miterlimit:10;stroke-dasharray:none;stroke-opacity:1"
               id="path584" />
          </g>
        </g>
        <g
           id="g586"
           transform="matrix(1,0,0,-1,0,792)">
          <g
             id="g588">
            <path
               d="m 862.80811,141.18524 c -0.85921,-1.71479 4.42724,1.7126 5.20166,0.37776"
               style="fill:none;stroke:#000000;stroke-width:1.30769;stroke-linecap:round;stroke-linejoin:round;stroke-miterlimit:10;stroke-dasharray:none;stroke-opacity:1"
               id="path590" />
          </g>
        </g>
        <g
           id="g592"
           transform="matrix(1,0,0,-1,0,792)">
          <g
             id="g594">
            <path
               d="m 1003.1697,166.36482 c 30.1739,0.0956 60.3529,-1.98773 90.5187,-0.52743"
               style="fill:none;stroke:#000000;stroke-width:1.30769;stroke-linecap:round;stroke-linejoin:round;stroke-miterlimit:10;stroke-dasharray:none;stroke-opacity:1"
               id="path596" />
          </g>
        </g>
        <g
           id="g598"
           transform="matrix(1,0,0,-1,0,792)">
          <g
             id="g600">
            <path
               d="m 1103.1637,164.68806 c 9.0082,-0.17114 18.4428,2.13282 27.0901,-1.41372"
               style="fill:none;stroke:#000000;stroke-width:1.30769;stroke-linecap:round;stroke-linejoin:round;stroke-miterlimit:10;stroke-dasharray:none;stroke-opacity:1"
               id="path602" />
          </g>
        </g>
        <g
           id="g604"
           transform="matrix(1,0,0,-1,0,792)">
          <g
             id="g606">
            <path
               d="m 1110.8102,254.4454 c 0.3687,-10.45804 1.4883,-20.91758 3.8412,-31.12521"
               style="fill:none;stroke:#000000;stroke-width:1.30769;stroke-linecap:round;stroke-linejoin:round;stroke-miterlimit:10;stroke-dasharray:none;stroke-opacity:1"
               id="path608" />
          </g>
        </g>
        <g
           id="g610"
           transform="matrix(1,0,0,-1,0,792)">
          <g
             id="g612">
            <path
               d="m 1114.2944,221.78195 c -20.8436,-5.57058 -31.4495,-18.9118 -22.8062,-40.38853 0.6385,-5.15784 1.155,-10.35613 2.4018,-15.41358"
               style="fill:none;stroke:#000000;stroke-width:1.30769;stroke-linecap:round;stroke-linejoin:round;stroke-miterlimit:10;stroke-dasharray:none;stroke-opacity:1"
               id="path614" />
          </g>
        </g>
      </g>
    </g>
  </g>
</svg>
