<?xml version="1.0" encoding="UTF-8" standalone="no"?>
<!-- Created by Ashley Blewer - This work is licensed under a Creative Commons Attribution 4.0 International License -->

<svg
   width="544"
   height="480"
   viewBox="0 0 143.93334 127"
   version="1.1"
   id="svg2490"
   inkscape:version="1.2.2 (1:1.2.2+202212051552+b0a8486541)"
   sodipodi:docname="1992-adat-2.svg"
   xmlns:inkscape="http://www.inkscape.org/namespaces/inkscape"
   xmlns:sodipodi="http://sodipodi.sourceforge.net/DTD/sodipodi-0.dtd"
   xmlns="http://www.w3.org/2000/svg"
   xmlns:svg="http://www.w3.org/2000/svg">
  <sodipodi:namedview
     id="namedview2492"
     pagecolor="#ffffff"
     bordercolor="#666666"
     borderopacity="1.0"
     inkscape:pageshadow="2"
     inkscape:pageopacity="0.0"
     inkscape:pagecheckerboard="0"
     inkscape:document-units="mm"
     showgrid="false"
     units="px"
     inkscape:zoom="0.90583674"
     inkscape:cx="53.541657"
     inkscape:cy="253.35691"
     inkscape:window-width="1846"
     inkscape:window-height="1136"
     inkscape:window-x="0"
     inkscape:window-y="0"
     inkscape:window-maximized="1"
     inkscape:current-layer="g4731"
     inkscape:showpageshadow="2"
     inkscape:deskcolor="#d1d1d1" />
  <defs
     id="defs2487" />
  <g
     inkscape:label="Layer 1"
     inkscape:groupmode="layer"
     id="layer1">
    <g
       id="g4731"
       transform="matrix(0.32961229,0,0,0.32903008,-241.78905,1.73126)"
       style="stroke-width:2.68698">
      <g
         id="g104528"
         transform="matrix(1,0,0,-1,0,792)"
         style="stroke-width:2.68698">
        <g
           id="g104530"
           style="stroke-width:2.68698" />
      </g>
      <g
         id="g104996"
         transform="matrix(1,0,0,-1,0,792)"
         style="stroke-width:2.68698">
        <g
           id="g104998"
           style="stroke-width:2.68698" />
      </g>
      <g
         id="g4057"
         transform="matrix(1.1572233,0,0,1.1592709,-265.64632,-494.92161)">
        <g
           id="g424"
           transform="matrix(1,0,0,-1,0,792)">
          <g
             id="g426">
            <path
               d="m 995.34753,133.90135 c -0.34924,9.87725 -2.28823,20.38642 -0.96724,30.30246 0.44462,8.21102 0.79302,16.27587 0.56145,24.46861 -0.059,17.28546 0.0802,35.15709 -0.7159,52.71854 -0.20322,14.18212 -0.29981,28.19068 -0.97859,42.31831 0.24171,10.7447 -0.0416,21.41483 -0.58032,32.15109 -0.53614,10.16548 -2.56901,20.53483 -0.9751,30.71584 0.47977,1.14007 -0.0627,4.55442 0.24416,2.71206"
               style="fill:none;stroke:#000000;stroke-width:2.61674;stroke-linecap:round;stroke-linejoin:round;stroke-miterlimit:10;stroke-dasharray:none;stroke-opacity:1"
               id="path428"
               sodipodi:nodetypes="cccccccc" />
          </g>
        </g>
        <g
           id="g430"
           transform="matrix(1,0,0,-1,0,792)">
          <g
             id="g432">
            <path
               d="m 991.93599,349.28826 c 0,0 16.75051,1.30715 23.92031,1.78001 19.6338,-0.87226 37.8698,-0.71173 57.5274,-1.78154 16.1372,-0.11434 32.2699,0.24554 48.1335,-1.46506"
               style="fill:none;stroke:#000000;stroke-width:2.61674;stroke-linecap:round;stroke-linejoin:round;stroke-miterlimit:10;stroke-dasharray:none;stroke-opacity:1"
               id="path434"
               sodipodi:nodetypes="cccc" />
          </g>
        </g>
        <g
           id="g436"
           transform="matrix(1,0,0,-1,0,792)">
          <g
             id="g438">
            <path
               d="m 1121.6365,346.67706 c 3.0471,-69.38599 -6.1743,-142.85702 -8.4257,-211.7148 -3.2418,2.47659 -3.2418,2.47659 0,0"
               style="fill:none;stroke:#000000;stroke-width:2.61674;stroke-linecap:round;stroke-linejoin:round;stroke-miterlimit:10;stroke-dasharray:none;stroke-opacity:1"
               id="path440"
               sodipodi:nodetypes="ccc" />
          </g>
        </g>
        <g
           id="g442"
           transform="matrix(1,0,0,-1,0,792)">
          <g
             id="g444">
            <path
               d="m 995.34753,133.90135 c -0.604,-2.08185 5.42447,-2.1018 8.18837,-1.99108 16.0296,0.0858 32.0992,-0.0548 48.105,1.0215 18.2558,1.78702 36.6047,0.68682 54.8513,1.67523 1.3043,-0.16861 7.7011,0.93169 6.7186,0.35526"
               style="fill:none;stroke:#000000;stroke-width:2.61674;stroke-linecap:round;stroke-linejoin:round;stroke-miterlimit:10;stroke-dasharray:none;stroke-opacity:1"
               id="path446"
               sodipodi:nodetypes="ccccc" />
          </g>
        </g>
        <g
           id="g448"
           transform="matrix(1,0,0,-1,0,792)">
          <g
             id="g450">
            <path
               d="m 993.51172,274.79822 c 41.12778,-1.25842 86.52618,-0.40557 127.64718,-1.95284"
               style="fill:none;stroke:#000000;stroke-width:2.61674;stroke-linecap:round;stroke-linejoin:round;stroke-miterlimit:10;stroke-dasharray:none;stroke-opacity:1"
               id="path452"
               sodipodi:nodetypes="cc" />
          </g>
        </g>
        <g
           id="g454"
           transform="matrix(1,0,0,-1,0,792)">
          <g
             id="g456">
            <path
               d="m 994.92275,197.90183 c 37.22395,1.7833 84.52145,0.41243 121.76085,1.30843"
               style="fill:none;stroke:#000000;stroke-width:2.61674;stroke-linecap:round;stroke-linejoin:round;stroke-miterlimit:10;stroke-dasharray:none;stroke-opacity:1"
               id="path458"
               sodipodi:nodetypes="cc" />
          </g>
        </g>
        <g
           id="g460"
           transform="matrix(1,0,0,-1,0,792)">
          <g
             id="g462">
            <path
               d="m 1115.6561,154.34982 c 8.1348,-5.59097 17.5752,-9.07124 26.3956,-13.47576 3.0544,-1.46119 7.4811,-2.51663 9.8751,-3.88867 1.0492,-1.88525 5.8458,0.0841 7.5352,-2.46007 3.5036,-2.58872 9.0748,-4.85035 8.0884,-10.05434 -0.033,-6.09849 1.0062,-12.12817 -0.2562,-17.38585 -1.0037,-1.23938 -1.1265,-0.87275 -2.6103,0.59944 -1.7305,1.44629 -3.1734,-0.97083 -3.4253,-0.7529"
               style="fill:none;stroke:#000000;stroke-width:2.61674;stroke-linecap:round;stroke-linejoin:round;stroke-miterlimit:10;stroke-dasharray:none;stroke-opacity:1"
               id="path464" />
          </g>
        </g>
        <g
           id="g466"
           transform="matrix(1,0,0,-1,0,792)">
          <g
             id="g468">
            <path
               d="M 994.00671,141.33813 C 983.112,136.52525 972.091,136.45952 957.80305,127.401 c -2.91636,-6.42003 -1.08134,-13.61801 -0.46589,-20.31155"
               style="fill:none;stroke:#000000;stroke-width:2.61674;stroke-linecap:round;stroke-linejoin:round;stroke-miterlimit:10;stroke-dasharray:none;stroke-opacity:1"
               id="path470"
               sodipodi:nodetypes="ccc" />
          </g>
        </g>
        <g
           id="g472"
           transform="matrix(1,0,0,-1,0,792)">
          <g
             id="g474">
            <path
               d="m 957.33716,107.08945 c 4.18928,-4.92269 8.89137,-11.855061 12.7221,-17.401492 3.22956,-5.110109 6.85074,-10.30215 9.04097,-15.808151 1.17268,-1.317405 3.08686,-4.673525 3.16309,-4.496202 1.34785,2.22285 4.88649,0.68989 3.59505,-1.879488 -0.47136,-2.676549 -0.68537,-4.100738 2.12075,-6.182519 2.10568,-1.330758 4.24299,-6.968335 5.12574,-6.00584"
               style="fill:none;stroke:#000000;stroke-width:2.61674;stroke-linecap:round;stroke-linejoin:round;stroke-miterlimit:10;stroke-dasharray:none;stroke-opacity:1"
               id="path476"
               sodipodi:nodetypes="ccccccc" />
          </g>
        </g>
        <g
           id="g478"
           transform="matrix(1,0,0,-1,0,792)">
          <g
             id="g480">
            <path
               d="m 957.92108,125.25129 c 9.54578,-10.4675 17.31697,-22.49555 27.44007,-32.41565 2.3172,-3.117722 3.88728,-6.69896 5.97234,-9.962838"
               style="fill:none;stroke:#000000;stroke-width:2.61674;stroke-linecap:round;stroke-linejoin:round;stroke-miterlimit:10;stroke-dasharray:none;stroke-opacity:1"
               id="path482" />
          </g>
        </g>
        <g
           id="g484"
           transform="matrix(1,0,0,-1,0,792)">
          <g
             id="g486">
            <path
               d="m 991.33349,82.872802 c 0.12668,-6.602436 0.36639,-15.973357 0.65334,-22.118667 0.0517,-1.395741 0.22603,-4.161511 0.52674,-4.810842"
               style="fill:none;stroke:#000000;stroke-width:2.61674;stroke-linecap:round;stroke-linejoin:round;stroke-miterlimit:10;stroke-dasharray:none;stroke-opacity:1"
               id="path488"
               sodipodi:nodetypes="ccc" />
          </g>
        </g>
        <g
           id="g490"
           transform="matrix(1,0,0,-1,0,792)">
          <g
             id="g492">
            <path
               d="m 991.33349,82.872802 c 8.83021,2.414482 20.48891,5.0828 29.57561,7.414364"
               style="fill:none;stroke:#000000;stroke-width:2.61674;stroke-linecap:round;stroke-linejoin:round;stroke-miterlimit:10;stroke-dasharray:none;stroke-opacity:1"
               id="path494"
               sodipodi:nodetypes="cc" />
          </g>
        </g>
        <g
           id="g496"
           transform="matrix(1,0,0,-1,0,792)">
          <g
             id="g498">
            <path
               d="m 1020.9091,90.287166 c 7.9965,4.035437 19.9964,7.124084 28.2492,9.489305 13.8518,3.368099 27.8394,6.127629 41.9824,9.622579 15.0959,4.32067 30.9322,7.33092 45.9385,13.14165 10.1613,3.36928 17.4747,5.21697 27.6106,7.81473"
               style="fill:none;stroke:#000000;stroke-width:2.61674;stroke-linecap:round;stroke-linejoin:round;stroke-miterlimit:10;stroke-dasharray:none;stroke-opacity:1"
               id="path500"
               sodipodi:nodetypes="ccccc" />
          </g>
        </g>
        <g
           id="g502"
           transform="matrix(1,0,0,-1,0,792)">
          <g
             id="g504">
            <path
               d="m 993.10486,55.315758 c 1.44542,0.252251 7.48744,1.02412 5.26185,2.074761 -0.0514,3.54317 6.06519,3.842335 8.30519,3.923793 0.6106,0.138943 2.4941,-1.815299 2.7557,-1.487003"
               style="fill:none;stroke:#000000;stroke-width:2.61674;stroke-linecap:round;stroke-linejoin:round;stroke-miterlimit:10;stroke-dasharray:none;stroke-opacity:1"
               id="path506" />
          </g>
        </g>
        <g
           id="g508"
           transform="matrix(1,0,0,-1,0,792)">
          <g
             id="g510">
            <path
               d="m 1009.4276,59.827309 c 0,0 36.4931,8.941173 53.4823,13.844115 7.0285,2.109983 16.1733,4.081609 22.8377,6.54873 1.8682,1.036025 3.2489,0.42815 2.1501,2.004712 -0.6076,2.962046 7.6858,4.609692 9.3469,2.129641"
               style="fill:none;stroke:#000000;stroke-width:2.61674;stroke-linecap:round;stroke-linejoin:round;stroke-miterlimit:10;stroke-dasharray:none;stroke-opacity:1"
               id="path512"
               sodipodi:nodetypes="ccccc" />
          </g>
        </g>
        <g
           id="g514"
           transform="matrix(1,0,0,-1,0,792)">
          <g
             id="g516">
            <path
               d="m 1097.2446,84.354507 c 7.2824,2.859574 15.8922,6.16939 23.882,8.530051 14.6732,3.457295 29.001,8.281362 43.7494,11.393202 -0.418,0.45247 2.6441,2.70067 2.4182,2.80737"
               style="fill:none;stroke:#000000;stroke-width:2.61674;stroke-linecap:round;stroke-linejoin:round;stroke-miterlimit:10;stroke-dasharray:none;stroke-opacity:1"
               id="path518"
               sodipodi:nodetypes="cccc" />
          </g>
        </g>
        <g
           id="g520"
           transform="matrix(1,0,0,-1,0,792)">
          <g
             id="g522">
            <path
               d="m 990.10492,131.18744 c -4.24573,-0.11265 -10.08013,-2.64018 -14.36283,-4.35819 -4.1121,-1.48905 -6.39404,-5.89026 -4.24454,-9.50176 0.78543,-5.29366 5.45306,-8.97412 10.79292,-10.51543 7.21152,-3.16062 16.45269,-1.44315 24.51353,-0.41029 7.4402,1.35122 15.9972,2.79794 22.0943,5.33943 1.1565,0.41796 0.682,-0.18728 -0.312,1.75819 -3.152,3.49936 -6.5223,6.56161 -9.2362,10.72014 -2.4859,2.49249 -4.8021,6.79698 -6.9498,8.04942"
               style="fill:none;stroke:#000000;stroke-width:1.26872;stroke-linecap:round;stroke-linejoin:round;stroke-miterlimit:10;stroke-dasharray:none;stroke-opacity:1"
               id="path524" />
          </g>
        </g>
        <g
           id="g526"
           transform="matrix(1,0,0,-1,0,792)">
          <g
             id="g528">
            <path
               d="m 1015.8812,124.69808 c -3.5894,-0.56193 -6.2092,-3.56069 -7.853,-5.67994 -1.2949,-2.02077 -2.4804,-3.64336 -1.9715,-6.15541 -0.1258,-1.14513 2.6325,-2.76079 4.3419,-2.89125 4.3491,-0.33074 9.1126,-1.16187 13.2192,0.58063"
               style="fill:none;stroke:#000000;stroke-width:1.26872;stroke-linecap:round;stroke-linejoin:round;stroke-miterlimit:10;stroke-dasharray:none;stroke-opacity:1"
               id="path530" />
          </g>
        </g>
        <g
           id="g532"
           transform="matrix(1,0,0,-1,0,792)">
          <g
             id="g534">
            <path
               d="m 1018.4753,123.44849 c -3.1005,-0.002 -3.637,-5.47229 -2.0334,-7.1077 1.3994,-2.78205 7.5758,-1.03585 7.2961,0.20874 l 0.055,0.051 -0.248,0.0524"
               style="fill:none;stroke:#000000;stroke-width:1.26872;stroke-linecap:round;stroke-linejoin:round;stroke-miterlimit:10;stroke-dasharray:none;stroke-opacity:1"
               id="path536" />
          </g>
        </g>
        <g
           id="g538"
           transform="matrix(1,0,0,-1,0,792)">
          <g
             id="g540">
            <path
               d="m 999.53583,106.04259 c -6.43229,0.50302 -13.29097,3.5277 -16.43183,9.41736 -0.64258,2.70915 -0.75903,5.99407 0.88671,8.36182 0.36561,0.41604 0.82611,0.75489 1.34807,0.94676"
               style="fill:none;stroke:#000000;stroke-width:1.26872;stroke-linecap:round;stroke-linejoin:round;stroke-miterlimit:10;stroke-dasharray:none;stroke-opacity:1"
               id="path542" />
          </g>
        </g>
        <g
           id="g544"
           transform="matrix(1,0,0,-1,0,792)">
          <g
             id="g546">
            <path
               d="m 1128.24,144.70749 c 2.5298,-1.52846 5.7313,-3.92299 6.8002,-6.47975 -2.1818,-4.16761 -8.2833,-3.31185 -12.336,-4.50002 -3.2097,-0.72434 -6.9475,-1.38509 -9.9525,-1.18263"
               style="fill:none;stroke:#000000;stroke-width:1.26872;stroke-linecap:round;stroke-linejoin:round;stroke-miterlimit:10;stroke-dasharray:none;stroke-opacity:1"
               id="path548" />
          </g>
        </g>
        <g
           id="g550"
           transform="matrix(1,0,0,-1,0,792)">
          <g
             id="g552">
            <path
               d="m 1126.2091,144.37363 c -3.3029,2.37925 -7.3402,3.92373 -11.3302,4.41429"
               style="fill:none;stroke:#000000;stroke-width:1.26872;stroke-linecap:round;stroke-linejoin:round;stroke-miterlimit:10;stroke-dasharray:none;stroke-opacity:1"
               id="path554" />
          </g>
        </g>
        <g
           id="g556"
           transform="matrix(1,0,0,-1,0,792)">
          <g
             id="g558">
            <path
               d="m 1146.1893,127.26473 c -3.141,1.61168 3.0304,4.15289 5.1846,3.53615 2.149,-0.30673 5.9594,0.59348 6.1862,-1.30871"
               style="fill:none;stroke:#000000;stroke-width:1.26872;stroke-linecap:round;stroke-linejoin:round;stroke-miterlimit:10;stroke-dasharray:none;stroke-opacity:1"
               id="path560" />
          </g>
        </g>
        <g
           id="g562"
           transform="matrix(1,0,0,-1,0,792)">
          <g
             id="g564">
            <path
               d="m 1001.222,85.945518 c -3.21468,0.494174 -3.13416,4.837264 0.7769,4.738403 3.2774,0.15839 8.4703,2.298087 10.7435,-0.633758 0.1757,-1.215597 0.055,-1.678898 -0.5888,-2.471855"
               style="fill:none;stroke:#000000;stroke-width:1.26872;stroke-linecap:round;stroke-linejoin:round;stroke-miterlimit:10;stroke-dasharray:none;stroke-opacity:1"
               id="path566" />
          </g>
        </g>
        <g
           id="g568"
           transform="matrix(1,0,0,-1,0,792)">
          <g
             id="g570">
            <path
               d="m 989.6449,90.93647 c 12.939,4.531017 27.2077,4.0715 39.9614,9.29116 12.4713,4.26091 24.9488,8.77815 37.9509,11.13126 16.0886,3.92971 32.6869,5.57644 48.7631,9.57655 9.1442,1.71962 17.9842,4.66555 26.9024,7.19263"
               style="fill:none;stroke:#000000;stroke-width:1.26872;stroke-linecap:round;stroke-linejoin:round;stroke-miterlimit:10;stroke-dasharray:none;stroke-opacity:1"
               id="path572" />
          </g>
        </g>
        <g
           id="g574"
           transform="matrix(1,0,0,-1,0,792)">
          <g
             id="g576">
            <path
               d="m 985.30798,99.440567 c 15.81482,4.117853 31.79952,7.775173 47.25162,13.250023 24.8287,7.69144 50.4171,12.89063 76.0614,17.40835 9.7976,1.85404 19.4855,4.21061 29.1063,6.85766 0.8036,0.0254 1.4521,0.53482 2.2562,0.56053"
               style="fill:none;stroke:#000000;stroke-width:1.26872;stroke-linecap:round;stroke-linejoin:round;stroke-miterlimit:10;stroke-dasharray:none;stroke-opacity:1"
               id="path578" />
          </g>
        </g>
        <g
           id="g580"
           transform="matrix(1,0,0,-1,0,792)">
          <g
             id="g582">
            <path
               d="m 1041.4827,230.86174 5.7737,13.24218 c 0.4124,1.99677 2.5769,4.55621 2.5769,4.55621 0,0 4.0133,-0.0959 4.358,-2.33398 1.9455,-5.53966 5.3362,-11.22889 6.2708,-16.11762 0.3791,-0.95589 -5.6235,-1.78023 -5.3913,-0.18609 -0.6216,2.61787 -2.4031,5.70198 -5.0968,3.48659 -2.0273,-0.90755 -1.5535,-2.59611 -2.8755,-3.87857 -1.8088,-0.20827 -4.8476,0.62555 -5.7795,0.68802"
               style="fill:none;stroke:#000000;stroke-width:1.26872;stroke-linecap:round;stroke-linejoin:round;stroke-miterlimit:10;stroke-dasharray:none;stroke-opacity:1"
               id="path584"
               sodipodi:nodetypes="ccccccccc" />
          </g>
        </g>
        <g
           id="g586"
           transform="matrix(1,0,0,-1,0,792)">
          <g
             id="g588">
            <path
               d="m 1049.2095,238.039 c 0.8772,0.44458 1.5527,4.59158 2.0743,4.07824 0.5409,-2.27923 3.0737,-4.67986 -1.0913,-4.18961"
               style="fill:none;stroke:#000000;stroke-width:1.26872;stroke-linecap:round;stroke-linejoin:round;stroke-miterlimit:10;stroke-dasharray:none;stroke-opacity:1"
               id="path590" />
          </g>
        </g>
        <g
           id="g592"
           transform="matrix(1,0,0,-1,0,792)">
          <g
             id="g594">
            <path
               d="m 1060.2318,229.35371 c 0.05,1.7649 0.8829,4.46639 0.7943,7.15328 -0.3045,2.69109 -0.2893,10.66313 -0.8434,11.40068 5.1624,0.35519 12.4866,0.10277 16.8764,-3.79385 4.7279,-5.19094 -0.1364,-14.25814 -7.0594,-14.62646 -2.7831,-0.44615 -8.5887,-0.33615 -9.7679,-0.13365 l -0.1701,0.38253"
               style="fill:none;stroke:#000000;stroke-width:1.26872;stroke-linecap:round;stroke-linejoin:round;stroke-miterlimit:10;stroke-dasharray:none;stroke-opacity:1"
               id="path596"
               sodipodi:nodetypes="ccccccc" />
          </g>
        </g>
        <g
           id="g598"
           transform="matrix(1,0,0,-1,0,792)">
          <g
             id="g600">
            <path
               d="m 1066.0065,233.44167 c 0.1363,2.70055 0.49,5.41218 0.2285,8.11617 -0.062,0.82805 -0.016,1.67155 0.099,2.4949 0.045,0.62136 0.5377,1.25124 1.2219,1.08856 0.9021,-0.11604 1.6896,-0.60933 2.556,-0.85008 2.0787,-0.81919 3.8978,-2.45175 4.7242,-4.55128 0.2936,-0.77937 0.4111,-1.64117 0.2349,-2.46171 -1.53,-1.76116 -3.4413,-3.29249 -5.6952,-3.99199 -1.1199,-0.33454 -2.3543,-0.3833 -3.453,0.0585"
               style="fill:none;stroke:#000000;stroke-width:1.26872;stroke-linecap:round;stroke-linejoin:round;stroke-miterlimit:10;stroke-dasharray:none;stroke-opacity:1"
               id="path602" />
          </g>
        </g>
        <g
           id="g604"
           transform="matrix(1,0,0,-1,0,792)">
          <g
             id="g606">
            <path
               d="m 1076.0093,231.39464 c 2.4795,3.35428 4.0055,7.26297 6.6867,11.0785 1.3057,2.33811 3.7833,7.38646 4.0981,6.50956 0.6711,-0.871 2.2006,-1.3935 1.9414,-1.9575 1.5901,-3.27686 1.9405,-8.85985 3.0571,-12.36486 0.8715,-2.40375 1.3163,-4.4941 1.4644,-4.36953 -2.6035,-1.06896 -3.2151,-0.22565 -4.2244,1.7305 -2.1479,2.25197 -1.4327,2.87019 -3.5548,1.83224 -3.117,0.29563 -2.6297,-1.12463 -4.1904,-2.98825 -0.3765,-0.0477 -1.7666,-0.19056 -1.7666,-0.19056"
               style="fill:none;stroke:#000000;stroke-width:1.26872;stroke-linecap:round;stroke-linejoin:round;stroke-miterlimit:10;stroke-dasharray:none;stroke-opacity:1"
               id="path608"
               sodipodi:nodetypes="cccccccccc" />
          </g>
        </g>
        <g
           id="g610"
           transform="matrix(1,0,0,-1,0,792)">
          <g
             id="g612">
            <path
               d="m 1079.5208,230.67474 c -0.2554,-0.39421 -2.5247,0.21975 -3.5115,0.7199 l -0.1617,0.078"
               style="fill:none;stroke:#000000;stroke-width:1.26872;stroke-linecap:round;stroke-linejoin:round;stroke-miterlimit:10;stroke-dasharray:none;stroke-opacity:1"
               id="path614" />
          </g>
        </g>
        <g
           id="g616"
           transform="matrix(1,0,0,-1,0,792)">
          <g
             id="g618">
            <path
               d="m 1083.54,237.528 c 0.6761,0.0952 1.613,4.2695 2.0732,6.05681 1.1499,0.21758 1.4275,-3.54584 1.7964,-5.16056 -0.4585,-0.44582 -2.4616,-1.09584 -3.5661,-0.4713"
               style="fill:none;stroke:#000000;stroke-width:1.26872;stroke-linecap:round;stroke-linejoin:round;stroke-miterlimit:10;stroke-dasharray:none;stroke-opacity:1"
               id="path620" />
          </g>
        </g>
        <g
           id="g622"
           transform="matrix(1,0,0,-1,0,792)">
          <g
             id="g624">
            <path
               d="m 1090.7632,244.70544 c -1.8873,3.59665 4.4336,3.85981 7.0477,3.3817 2.296,-0.65448 7.0421,1.63265 7.234,-1.50059 1.5147,-2.63499 -2.5749,-1.58147 -4.3,-2.51967 -0.048,-11.95988 -1.3294,-13.57831 -4.4504,-13.53883 -1.6452,-0.16243 -0.9918,5.40134 -0.9918,5.40134 0,0 -1.028,7.7343 -0.8791,9.30323 0.1174,0.20764 -4.1134,0.78295 -5.5856,0.59194 -0.2967,0.36273 -0.5421,1.59513 -0.1371,1.31463"
               style="fill:none;stroke:#000000;stroke-width:1.26872;stroke-linecap:round;stroke-linejoin:round;stroke-miterlimit:10;stroke-dasharray:none;stroke-opacity:1"
               id="path626"
               sodipodi:nodetypes="ccccccccc" />
          </g>
        </g>
      </g>
    </g>
  </g>
</svg>
