<?xml version="1.0" encoding="UTF-8" standalone="no"?>
<!-- Created by Ashley Blewer - This work is licensed under a Creative Commons Attribution 4.0 International License -->

<svg
   width="544"
   height="480"
   viewBox="0 0 143.93334 127"
   version="1.1"
   id="svg2490"
   inkscape:version="1.2.2 (1:1.2.2+202212051552+b0a8486541)"
   sodipodi:docname="1992-dcc-2.svg"
   xmlns:inkscape="http://www.inkscape.org/namespaces/inkscape"
   xmlns:sodipodi="http://sodipodi.sourceforge.net/DTD/sodipodi-0.dtd"
   xmlns="http://www.w3.org/2000/svg"
   xmlns:svg="http://www.w3.org/2000/svg">
  <sodipodi:namedview
     id="namedview2492"
     pagecolor="#ffffff"
     bordercolor="#666666"
     borderopacity="1.0"
     inkscape:pageshadow="2"
     inkscape:pageopacity="0.0"
     inkscape:pagecheckerboard="0"
     inkscape:document-units="mm"
     showgrid="false"
     units="px"
     inkscape:zoom="0.90583674"
     inkscape:cx="53.541657"
     inkscape:cy="253.35691"
     inkscape:window-width="1846"
     inkscape:window-height="1136"
     inkscape:window-x="0"
     inkscape:window-y="0"
     inkscape:window-maximized="1"
     inkscape:current-layer="g4731"
     inkscape:showpageshadow="2"
     inkscape:deskcolor="#d1d1d1" />
  <defs
     id="defs2487" />
  <g
     inkscape:label="Layer 1"
     inkscape:groupmode="layer"
     id="layer1">
    <g
       id="g4731"
       transform="matrix(0.32961229,0,0,0.32903008,-241.78905,1.73126)"
       style="stroke-width:2.68698">
      <g
         id="g104528"
         transform="matrix(1,0,0,-1,0,792)"
         style="stroke-width:2.68698">
        <g
           id="g104530"
           style="stroke-width:2.68698" />
      </g>
      <g
         id="g104996"
         transform="matrix(1,0,0,-1,0,792)"
         style="stroke-width:2.68698">
        <g
           id="g104998"
           style="stroke-width:2.68698" />
      </g>
      <g
         id="g3065"
         transform="matrix(1.070281,0,0,1.0721748,-28.846207,-439.14138)">
        <g
           id="g346"
           transform="matrix(1,0,0,-1,0,792)">
          <g
             id="g348">
            <path
               d="m 1088.7402,358.82574 c 6.0321,-2.68594 12.0494,-5.40577 18.0513,-8.15872"
               style="fill:none;stroke:#000000;stroke-width:2.61538;stroke-linecap:round;stroke-linejoin:round;stroke-miterlimit:10;stroke-dasharray:none;stroke-opacity:1"
               id="path350" />
          </g>
        </g>
        <g
           id="g352"
           transform="matrix(1,0,0,-1,0,792)">
          <g
             id="g354">
            <path
               d="m 1106.7915,350.66702 c -1.1202,-74.96494 -4.9648,-150.04673 -13.4037,-224.52217 -0.2505,-1.06273 -0.5011,-2.12547 -0.7516,-3.1882"
               style="fill:none;stroke:#000000;stroke-width:2.61538;stroke-linecap:round;stroke-linejoin:round;stroke-miterlimit:10;stroke-dasharray:none;stroke-opacity:1"
               id="path356"
               sodipodi:nodetypes="ccc" />
          </g>
        </g>
        <g
           id="g358"
           transform="matrix(1,0,0,-1,0,792)">
          <g
             id="g360">
            <path
               d="m 728.04565,317.20541 c 4.5444,-3.24758 9.11682,-6.45627 13.71541,-9.62664"
               style="fill:none;stroke:#000000;stroke-width:2.61538;stroke-linecap:round;stroke-linejoin:round;stroke-miterlimit:10;stroke-dasharray:none;stroke-opacity:1"
               id="path362" />
          </g>
        </g>
        <g
           id="g364"
           transform="matrix(1,0,0,-1,0,792)">
          <g
             id="g366">
            <path
               d="m 728.04565,317.20541 c -6.61978,-64.34439 4.57034,-129.00761 -0.13725,-193.46129 0.81226,-15.74587 0.78796,-31.525588 1.80431,-47.262194"
               style="fill:none;stroke:#000000;stroke-width:2.61538;stroke-linecap:round;stroke-linejoin:round;stroke-miterlimit:10;stroke-dasharray:none;stroke-opacity:1"
               id="path368"
               sodipodi:nodetypes="ccc" />
          </g>
        </g>
        <g
           id="g370"
           transform="matrix(1,0,0,-1,0,792)">
          <g
             id="g372">
            <path
               d="m 741.76106,307.57877 c -1.29939,-53.45675 0.63664,-106.93759 2.75886,-160.32109 -0.62712,-29.6346 -0.0161,-59.359557 3.56245,-88.811158"
               style="fill:none;stroke:#000000;stroke-width:2.61538;stroke-linecap:round;stroke-linejoin:round;stroke-miterlimit:10;stroke-dasharray:none;stroke-opacity:1"
               id="path374"
               sodipodi:nodetypes="ccc" />
          </g>
        </g>
        <g
           id="g376"
           transform="matrix(1,0,0,-1,0,792)">
          <g
             id="g378">
            <path
               d="m 729.71271,76.481926 c 7.67278,-5.520551 10.36321,-15.569762 18.22509,-20.892262"
               style="fill:none;stroke:#000000;stroke-width:2.61538;stroke-linecap:round;stroke-linejoin:round;stroke-miterlimit:10;stroke-dasharray:none;stroke-opacity:1"
               id="path380" />
          </g>
        </g>
        <g
           id="g382"
           transform="matrix(1,0,0,-1,0,792)">
          <g
             id="g384">
            <path
               d="m 741.76106,307.57877 c 118.19603,11.85688 236.02471,27.02517 353.95114,41.23878"
               style="fill:none;stroke:#000000;stroke-width:2.61538;stroke-linecap:round;stroke-linejoin:round;stroke-miterlimit:10;stroke-dasharray:none;stroke-opacity:1"
               id="path386"
               sodipodi:nodetypes="cc" />
          </g>
        </g>
        <g
           id="g388"
           transform="matrix(1,0,0,-1,0,792)">
          <g
             id="g390">
            <path
               d="m 1081.1058,355.20941 c 3.7948,-1.84513 10.884,-4.40486 14.6064,-6.39186"
               style="fill:none;stroke:#000000;stroke-width:2.61538;stroke-linecap:round;stroke-linejoin:round;stroke-miterlimit:10;stroke-dasharray:none;stroke-opacity:1"
               id="path392"
               sodipodi:nodetypes="cc" />
          </g>
        </g>
        <g
           id="g394"
           transform="matrix(1,0,0,-1,0,792)">
          <g
             id="g396">
            <path
               d="m 728.04565,317.20541 c 112.35003,15.32759 227.66034,22.89277 339.72465,40.43149 7.147,0.56616 14.2991,1.07905 21.4603,1.42838"
               style="fill:none;stroke:#000000;stroke-width:2.61538;stroke-linecap:round;stroke-linejoin:round;stroke-miterlimit:10;stroke-dasharray:none;stroke-opacity:1"
               id="path398"
               sodipodi:nodetypes="ccc" />
          </g>
        </g>
        <g
           id="g400"
           transform="matrix(1,0,0,-1,0,792)">
          <g
             id="g402">
            <path
               d="m 782.54724,320.51666 c 0.54426,-0.76419 2.6745,-3.88223 3.19537,-4.67707"
               style="fill:none;stroke:#000000;stroke-width:2.61538;stroke-linecap:round;stroke-linejoin:round;stroke-miterlimit:10;stroke-dasharray:none;stroke-opacity:1"
               id="path404" />
          </g>
        </g>
        <g
           id="g406"
           transform="matrix(1,0,0,-1,0,792)">
          <g
             id="g408">
            <path
               d="m 773.82837,320.8876 c 0.71392,-0.65417 3.48536,-3.24149 4.15715,-3.88098"
               style="fill:none;stroke:#000000;stroke-width:2.61538;stroke-linecap:round;stroke-linejoin:round;stroke-miterlimit:10;stroke-dasharray:none;stroke-opacity:1"
               id="path410" />
          </g>
        </g>
        <g
           id="g412"
           transform="matrix(1,0,0,-1,0,792)">
          <g
             id="g414">
            <path
               d="m 766.56885,313.16919 c 3.6469,1.07934 7.34867,1.98364 11.07448,2.74565"
               style="fill:none;stroke:#000000;stroke-width:2.61538;stroke-linecap:round;stroke-linejoin:round;stroke-miterlimit:10;stroke-dasharray:none;stroke-opacity:1"
               id="path416" />
          </g>
        </g>
        <g
           id="g418"
           transform="matrix(1,0,0,-1,0,792)">
          <g
             id="g420">
            <path
               d="m 771.73474,320.60077 c 0.16683,-4.77029 -12.26243,4.18334 -10.19726,-2.2495"
               style="fill:none;stroke:#000000;stroke-width:2.61538;stroke-linecap:round;stroke-linejoin:round;stroke-miterlimit:10;stroke-dasharray:none;stroke-opacity:1"
               id="path422" />
          </g>
        </g>
        <g
           id="g424"
           transform="matrix(1,0,0,-1,0,792)">
          <g
             id="g426">
            <path
               d="m 761.66943,318.6228 c 1.48418,-1.23399 2.96835,-2.46799 4.45253,-3.70198"
               style="fill:none;stroke:#000000;stroke-width:2.61538;stroke-linecap:round;stroke-linejoin:round;stroke-miterlimit:10;stroke-dasharray:none;stroke-opacity:1"
               id="path428" />
          </g>
        </g>
        <g
           id="g430"
           transform="matrix(1,0,0,-1,0,792)">
          <g
             id="g432">
            <path
               d="m 727.32922,291.77191 c 2.39402,-1.50661 4.78805,-3.01322 7.18207,-4.51983"
               style="fill:none;stroke:#000000;stroke-width:2.61538;stroke-linecap:round;stroke-linejoin:round;stroke-miterlimit:10;stroke-dasharray:none;stroke-opacity:1"
               id="path434" />
          </g>
        </g>
        <g
           id="g436"
           transform="matrix(1,0,0,-1,0,792)">
          <g
             id="g438">
            <path
               d="m 729.37903,287.65018 c -1.69977,-4.76646 -4.27022,-10.36724 -1.70015,-15.33257"
               style="fill:none;stroke:#000000;stroke-width:2.61538;stroke-linecap:round;stroke-linejoin:round;stroke-miterlimit:10;stroke-dasharray:none;stroke-opacity:1"
               id="path440" />
          </g>
        </g>
        <g
           id="g442"
           transform="matrix(1,0,0,-1,0,792)">
          <g
             id="g444">
            <path
               d="m 725.91675,272.41455 c 2.89067,-1.69754 5.78135,-3.39507 8.67202,-5.09261"
               style="fill:none;stroke:#000000;stroke-width:2.61538;stroke-linecap:round;stroke-linejoin:round;stroke-miterlimit:10;stroke-dasharray:none;stroke-opacity:1"
               id="path446"
               sodipodi:nodetypes="cc" />
          </g>
        </g>
        <g
           id="g448"
           transform="matrix(1,0,0,-1,0,792)">
          <g
             id="g450">
            <path
               d="m 735.43213,286.151 c -0.14452,-6.28098 -0.42082,-12.56058 -0.84336,-18.82906"
               style="fill:none;stroke:#000000;stroke-width:2.61538;stroke-linecap:round;stroke-linejoin:round;stroke-miterlimit:10;stroke-dasharray:none;stroke-opacity:1"
               id="path452" />
          </g>
        </g>
        <g
           id="g454"
           transform="matrix(1,0,0,-1,0,792)">
          <g
             id="g456">
            <path
               d="m 734.03833,106.4329 c 1.43142,-1.29951 2.86283,-2.59903 4.29425,-3.89854"
               style="fill:none;stroke:#000000;stroke-width:2.61538;stroke-linecap:round;stroke-linejoin:round;stroke-miterlimit:10;stroke-dasharray:none;stroke-opacity:1"
               id="path458"
               sodipodi:nodetypes="cc" />
          </g>
        </g>
        <g
           id="g460"
           transform="matrix(1,0,0,-1,0,792)">
          <g
             id="g462">
            <path
               d="m 734.03833,106.4329 c -3.2e-4,-5.90848 0.006,-11.816954 0.0181,-17.725417"
               style="fill:none;stroke:#000000;stroke-width:2.61538;stroke-linecap:round;stroke-linejoin:round;stroke-miterlimit:10;stroke-dasharray:none;stroke-opacity:1"
               id="path464" />
          </g>
        </g>
        <g
           id="g466"
           transform="matrix(1,0,0,-1,0,792)">
          <g
             id="g468">
            <path
               d="m 733.42041,89.685593 c 1.98468,-2.386328 4.24623,-4.522962 6.41249,-6.740235"
               style="fill:none;stroke:#000000;stroke-width:2.61538;stroke-linecap:round;stroke-linejoin:round;stroke-miterlimit:10;stroke-dasharray:none;stroke-opacity:1"
               id="path470"
               sodipodi:nodetypes="cc" />
          </g>
        </g>
        <g
           id="g472"
           transform="matrix(1,0,0,-1,0,792)">
          <g
             id="g474">
            <path
               d="m 738.98193,102.29664 c 0.0323,-6.450992 3.50676,-13.008569 0.85097,-19.351282"
               style="fill:none;stroke:#000000;stroke-width:2.61538;stroke-linecap:round;stroke-linejoin:round;stroke-miterlimit:10;stroke-dasharray:none;stroke-opacity:1"
               id="path476" />
          </g>
        </g>
        <g
           id="g478"
           transform="matrix(1,0,0,-1,0,792)">
          <g
             id="g480">
            <path
               d="m 747.55328,279.08209 c -6.38267,-13.62098 17.10807,-0.39479 -0.39624,0.75148"
               style="fill:none;stroke:#000000;stroke-width:2.61538;stroke-linecap:round;stroke-linejoin:round;stroke-miterlimit:10;stroke-dasharray:none;stroke-opacity:1"
               id="path482" />
          </g>
        </g>
        <g
           id="g484"
           transform="matrix(1,0,0,-1,0,792)">
          <g
             id="g486">
            <path
               d="m 743.70404,261.91464 c 20.18003,4.26435 0.92201,-34.47102 -0.38911,-10.66453 -0.0541,3.31817 0.21646,6.63248 0.58179,9.92734"
               style="fill:none;stroke:#000000;stroke-width:2.61538;stroke-linecap:round;stroke-linejoin:round;stroke-miterlimit:10;stroke-dasharray:none;stroke-opacity:1"
               id="path488" />
          </g>
        </g>
        <g
           id="g490"
           transform="matrix(1,0,0,-1,0,792)">
          <g
             id="g492">
            <path
               d="m 744.17731,246.54402 c -0.2808,3.46194 6.04442,8.08759 7.47346,3.03861"
               style="fill:none;stroke:#000000;stroke-width:2.61538;stroke-linecap:round;stroke-linejoin:round;stroke-miterlimit:10;stroke-dasharray:none;stroke-opacity:1"
               id="path494" />
          </g>
        </g>
        <g
           id="g496"
           transform="matrix(1,0,0,-1,0,792)">
          <g
             id="g498">
            <path
               d="m 748.57892,123.23779 c -7.70769,-10.25047 13.88177,-2.99255 0.0582,-0.96161"
               style="fill:none;stroke:#000000;stroke-width:2.61538;stroke-linecap:round;stroke-linejoin:round;stroke-miterlimit:10;stroke-dasharray:none;stroke-opacity:1"
               id="path500" />
          </g>
        </g>
        <g
           id="g502"
           transform="matrix(1,0,0,-1,0,792)">
          <g
             id="g504">
            <path
               d="m 748.82495,89.707863 c -1.42494,-8.969473 12.84061,1.614476 0.57013,0.226275"
               style="fill:none;stroke:#000000;stroke-width:2.61538;stroke-linecap:round;stroke-linejoin:round;stroke-miterlimit:10;stroke-dasharray:none;stroke-opacity:1"
               id="path506" />
          </g>
        </g>
        <g
           id="g508"
           transform="matrix(1,0,0,-1,0,792)">
          <g
             id="g510">
            <path
               d="m 881.91648,247.93429 c 6.74093,-7.86976 22.63271,-5.04624 25.18874,4.2956"
               style="fill:none;stroke:#000000;stroke-width:2.61538;stroke-linecap:round;stroke-linejoin:round;stroke-miterlimit:10;stroke-dasharray:none;stroke-opacity:1"
               id="path512"
               sodipodi:nodetypes="cc" />
          </g>
        </g>
        <g
           id="g514"
           transform="matrix(1,0,0,-1,0,792)">
          <g
             id="g516">
            <path
               d="m 907.08419,254.62344 c 36.63946,7.29308 74.24731,7.26024 111.08791,13.11484"
               style="fill:none;stroke:#000000;stroke-width:2.61538;stroke-linecap:round;stroke-linejoin:round;stroke-miterlimit:10;stroke-dasharray:none;stroke-opacity:1"
               id="path518"
               sodipodi:nodetypes="cc" />
          </g>
        </g>
        <g
           id="g520"
           transform="matrix(1,0,0,-1,0,792)">
          <g
             id="g522">
            <path
               d="m 1018.3384,269.54755 c 10.093,-19.56912 35.1169,2.25057 19.3532,15.28223 -8.8443,1.7452 -20.6627,-7.4662 -19.5195,-17.0915"
               style="fill:none;stroke:#000000;stroke-width:2.61538;stroke-linecap:round;stroke-linejoin:round;stroke-miterlimit:10;stroke-dasharray:none;stroke-opacity:1"
               id="path524" />
          </g>
        </g>
        <g
           id="g526"
           transform="matrix(1,0,0,-1,0,792)">
          <g
             id="g528">
            <path
               d="m 907.10522,252.22989 c 1.8361,20.67098 -30.69486,12.73066 -25.18874,-4.2956"
               style="fill:none;stroke:#000000;stroke-width:2.61538;stroke-linecap:round;stroke-linejoin:round;stroke-miterlimit:10;stroke-dasharray:none;stroke-opacity:1"
               id="path530" />
          </g>
        </g>
        <g
           id="g532"
           transform="matrix(1,0,0,-1,0,792)">
          <g
             id="g534">
            <path
               d="m 1043.6835,273.32705 c 15.606,3.66207 31.7492,3.51172 47.6645,4.33066"
               style="fill:none;stroke:#000000;stroke-width:2.61538;stroke-linecap:round;stroke-linejoin:round;stroke-miterlimit:10;stroke-dasharray:none;stroke-opacity:1"
               id="path536"
               sodipodi:nodetypes="cc" />
          </g>
        </g>
        <g
           id="g538"
           transform="matrix(1,0,0,-1,0,792)">
          <g
             id="g540">
            <path
               d="m 1092.3645,276.55405 c 0.072,-0.6909 0.2633,-3.33563 0.2864,-3.96709"
               style="fill:none;stroke:#000000;stroke-width:2.61538;stroke-linecap:round;stroke-linejoin:round;stroke-miterlimit:10;stroke-dasharray:none;stroke-opacity:1"
               id="path542" />
          </g>
        </g>
        <g
           id="g544"
           transform="matrix(1,0,0,-1,0,792)">
          <g
             id="g546">
            <path
               d="m 881.91648,247.93429 c -2.44629,-48.56659 -31.08415,-93.85046 -22.71613,-143.34556 0.83202,-7.593958 0.28773,-15.363673 0.5035,-23.020304"
               style="fill:none;stroke:#000000;stroke-width:2.61538;stroke-linecap:round;stroke-linejoin:round;stroke-miterlimit:10;stroke-dasharray:none;stroke-opacity:1"
               id="path548"
               sodipodi:nodetypes="ccc" />
          </g>
        </g>
        <g
           id="g550"
           transform="matrix(1,0,0,-1,0,792)">
          <g
             id="g552">
            <path
               d="m 860.1261,80.109604 c -3.03869,3.699157 -6.16339,7.328022 -9.31775,10.928779"
               style="fill:none;stroke:#000000;stroke-width:2.61538;stroke-linecap:round;stroke-linejoin:round;stroke-miterlimit:10;stroke-dasharray:none;stroke-opacity:1"
               id="path554"
               sodipodi:nodetypes="cc" />
          </g>
        </g>
        <g
           id="g556"
           transform="matrix(1,0,0,-1,0,792)">
          <g
             id="g558">
            <path
               d="m 850.80835,91.038383 c -0.59778,9.799457 -14.19804,6.276419 -15.50133,-1.063619"
               style="fill:none;stroke:#000000;stroke-width:2.61538;stroke-linecap:round;stroke-linejoin:round;stroke-miterlimit:10;stroke-dasharray:none;stroke-opacity:1"
               id="path560" />
          </g>
        </g>
        <g
           id="g562"
           transform="matrix(1,0,0,-1,0,792)">
          <g
             id="g564">
            <path
               d="m 833.51868,89.023369 c -7.73569,-0.588431 -15.52256,-0.764593 -23.19305,-2.012186"
               style="fill:none;stroke:#000000;stroke-width:2.61538;stroke-linecap:round;stroke-linejoin:round;stroke-miterlimit:10;stroke-dasharray:none;stroke-opacity:1"
               id="path566"
               sodipodi:nodetypes="cc" />
          </g>
        </g>
        <g
           id="g568"
           transform="matrix(1,0,0,-1,0,792)">
          <g
             id="g570">
            <path
               d="m 806.91205,149.4987 c -2.39674,-22.54145 1.38179,-45.08248 2.5421,-67.568829"
               style="fill:none;stroke:#000000;stroke-width:2.61538;stroke-linecap:round;stroke-linejoin:round;stroke-miterlimit:10;stroke-dasharray:none;stroke-opacity:1"
               id="path572" />
          </g>
        </g>
        <g
           id="g574"
           transform="matrix(1,0,0,-1,0,792)">
          <g
             id="g576">
            <path
               d="m 809.01794,80.672699 c -1.14966,-6.05993 -3.84149,-12.900673 -11.66266,-10.199111"
               style="fill:none;stroke:#000000;stroke-width:2.61538;stroke-linecap:round;stroke-linejoin:round;stroke-miterlimit:10;stroke-dasharray:none;stroke-opacity:1"
               id="path578" />
          </g>
        </g>
        <g
           id="g580"
           transform="matrix(1,0,0,-1,0,792)">
          <g
             id="g582">
            <path
               d="M 795.70306,69.848404 C 783.35966,57.407732 764.0232,58.126849 747.9378,55.589664"
               style="fill:none;stroke:#000000;stroke-width:2.61538;stroke-linecap:round;stroke-linejoin:round;stroke-miterlimit:10;stroke-dasharray:none;stroke-opacity:1"
               id="path584"
               sodipodi:nodetypes="cc" />
          </g>
        </g>
        <g
           id="g586"
           transform="matrix(1,0,0,-1,0,792)">
          <g
             id="g588">
            <path
               d="m 851.34277,230.82808 c 14.46341,3.81723 29.03764,-13.3358 22.85146,-26.97218"
               style="fill:none;stroke:#000000;stroke-width:2.61538;stroke-linecap:round;stroke-linejoin:round;stroke-miterlimit:10;stroke-dasharray:none;stroke-opacity:1"
               id="path590" />
          </g>
        </g>
        <g
           id="g592"
           transform="matrix(1,0,0,-1,0,792)">
          <g
             id="g594">
            <path
               d="m 851.34277,230.82808 c -10.70402,0.96267 -21.56947,-8.56752 -21.21055,-19.47003"
               style="fill:none;stroke:#000000;stroke-width:2.61538;stroke-linecap:round;stroke-linejoin:round;stroke-miterlimit:10;stroke-dasharray:none;stroke-opacity:1"
               id="path596"
               sodipodi:nodetypes="cc" />
          </g>
        </g>
        <g
           id="g598"
           transform="matrix(1,0,0,-1,0,792)">
          <g
             id="g600">
            <path
               d="m 828.05463,210.35808 c -7.88889,1.21784 -4.4133,-15.71459 2.47441,-10.39366"
               style="fill:none;stroke:#000000;stroke-width:2.61538;stroke-linecap:round;stroke-linejoin:round;stroke-miterlimit:10;stroke-dasharray:none;stroke-opacity:1"
               id="path602" />
          </g>
        </g>
        <g
           id="g604"
           transform="matrix(1,0,0,-1,0,792)">
          <g
             id="g606">
            <path
               d="m 831.10028,199.32263 c 4.06765,-15.95665 28.46604,-20.19525 39.20336,-8.80731"
               style="fill:none;stroke:#000000;stroke-width:2.61538;stroke-linecap:round;stroke-linejoin:round;stroke-miterlimit:10;stroke-dasharray:none;stroke-opacity:1"
               id="path608"
               sodipodi:nodetypes="cc" />
          </g>
        </g>
        <g
           id="g610"
           transform="matrix(1,0,0,-1,0,792)">
          <g
             id="g612">
            <path
               d="m 854.71472,226.17506 c -0.25479,-4.47903 4.60275,-9.48018 8.24675,-4.77062"
               style="fill:none;stroke:#000000;stroke-width:2.61538;stroke-linecap:round;stroke-linejoin:round;stroke-miterlimit:10;stroke-dasharray:none;stroke-opacity:1"
               id="path614" />
          </g>
        </g>
        <g
           id="g616"
           transform="matrix(1,0,0,-1,0,792)">
          <g
             id="g618">
            <path
               d="m 863.76318,218.75844 c 10.06862,-5.98389 -11.57089,-13.4012 1.56151,-16.84766"
               style="fill:none;stroke:#000000;stroke-width:2.61538;stroke-linecap:round;stroke-linejoin:round;stroke-miterlimit:10;stroke-dasharray:none;stroke-opacity:1"
               id="path620" />
          </g>
        </g>
        <g
           id="g622"
           transform="matrix(1,0,0,-1,0,792)">
          <g
             id="g624">
            <path
               d="m 863.74036,201.29945 c -1.79686,-20.68103 -12.09986,6.90594 -17.49006,-8.58328"
               style="fill:none;stroke:#000000;stroke-width:2.61538;stroke-linecap:round;stroke-linejoin:round;stroke-miterlimit:10;stroke-dasharray:none;stroke-opacity:1"
               id="path626" />
          </g>
        </g>
        <g
           id="g628"
           transform="matrix(1,0,0,-1,0,792)">
          <g
             id="g630">
            <path
               d="m 845.18671,192.39232 c -9.6104,-1.58278 2.0065,15.44507 -10.29574,11.27101"
               style="fill:none;stroke:#000000;stroke-width:2.61538;stroke-linecap:round;stroke-linejoin:round;stroke-miterlimit:10;stroke-dasharray:none;stroke-opacity:1"
               id="path632" />
          </g>
        </g>
        <g
           id="g634"
           transform="matrix(1,0,0,-1,0,792)">
          <g
             id="g636">
            <path
               d="m 834.05756,204.97534 c -0.60375,2.26078 0.65903,4.60822 1.762,6.45403"
               style="fill:none;stroke:#000000;stroke-width:2.61538;stroke-linecap:round;stroke-linejoin:round;stroke-miterlimit:10;stroke-dasharray:none;stroke-opacity:1"
               id="path638" />
          </g>
        </g>
        <g
           id="g640"
           transform="matrix(1,0,0,-1,0,792)">
          <g
             id="g642">
            <path
               d="m 834.91595,212.20186 c -3.36132,10.49075 11.11505,6.38836 11.99651,13.9954"
               style="fill:none;stroke:#000000;stroke-width:2.61538;stroke-linecap:round;stroke-linejoin:round;stroke-miterlimit:10;stroke-dasharray:none;stroke-opacity:1"
               id="path644" />
          </g>
        </g>
        <g
           id="g646"
           transform="matrix(1,0,0,-1,0,792)">
          <g
             id="g648">
            <path
               d="m 1027.8741,239.7879 c -7.5476,20.31776 -34.88355,16.05229 -37.31013,-5.32939 -10.58004,-20.21635 11.84033,-38.40337 28.92793,-23.21529 11.6408,4.98385 11.9633,18.11906 8.3822,28.54468 z"
               style="fill:none;stroke:#000000;stroke-width:2.61538;stroke-linecap:round;stroke-linejoin:round;stroke-miterlimit:10;stroke-dasharray:none;stroke-opacity:1"
               id="path650"
               sodipodi:nodetypes="ccc" />
          </g>
        </g>
        <g
           id="g652"
           transform="matrix(1,0,0,-1,0,792)">
          <g
             id="g654">
            <path
               d="m 1001.596,248.86066 c 11.9321,-3.25602 6.3294,-17.68514 16.7865,-22.68125"
               style="fill:none;stroke:#000000;stroke-width:2.61538;stroke-linecap:round;stroke-linejoin:round;stroke-miterlimit:10;stroke-dasharray:none;stroke-opacity:1"
               id="path656" />
          </g>
        </g>
        <g
           id="g658"
           transform="matrix(1,0,0,-1,0,792)">
          <g
             id="g660">
            <path
               d="m 994.88074,244.29382 c 4.37041,-2.35136 -2.75356,-8.44307 -4.31677,-9.83531"
               style="fill:none;stroke:#000000;stroke-width:2.61538;stroke-linecap:round;stroke-linejoin:round;stroke-miterlimit:10;stroke-dasharray:none;stroke-opacity:1"
               id="path662"
               sodipodi:nodetypes="cc" />
          </g>
        </g>
        <g
           id="g664"
           transform="matrix(1,0,0,-1,0,792)">
          <g
             id="g666">
            <path
               d="m 989.15887,227.48275 c 8.82053,5.79808 11.61083,-15.06091 4.50006,-16.65824"
               style="fill:none;stroke:#000000;stroke-width:2.61538;stroke-linecap:round;stroke-linejoin:round;stroke-miterlimit:10;stroke-dasharray:none;stroke-opacity:1"
               id="path668"
               sodipodi:nodetypes="cc" />
          </g>
        </g>
        <g
           id="g670"
           transform="matrix(1,0,0,-1,0,792)">
          <g
             id="g672">
            <path
               d="m 1006.9371,213.97495 c -7.19519,3.2953 0.323,13.56353 4.9755,6.18456"
               style="fill:none;stroke:#000000;stroke-width:2.61538;stroke-linecap:round;stroke-linejoin:round;stroke-miterlimit:10;stroke-dasharray:none;stroke-opacity:1"
               id="path674" />
          </g>
        </g>
        <g
           id="g676"
           transform="matrix(1,0,0,-1,0,792)">
          <g
             id="g678">
            <path
               d="m 1092.6509,272.58696 c -0.267,-29.36108 0.7279,-58.73317 -0.2964,-88.08614"
               style="fill:none;stroke:#000000;stroke-width:2.61538;stroke-linecap:round;stroke-linejoin:round;stroke-miterlimit:10;stroke-dasharray:none;stroke-opacity:1"
               id="path680"
               sodipodi:nodetypes="cc" />
          </g>
        </g>
        <g
           id="g682"
           transform="matrix(1,0,0,-1,0,792)">
          <g
             id="g684">
            <path
               d="m 1092.3545,184.50082 c -10.9514,-7.99319 -14.4858,-32.03216 -3.5589,-41.17678"
               style="fill:none;stroke:#000000;stroke-width:2.61538;stroke-linecap:round;stroke-linejoin:round;stroke-miterlimit:10;stroke-dasharray:none;stroke-opacity:1"
               id="path686"
               sodipodi:nodetypes="cc" />
          </g>
        </g>
        <g
           id="g688"
           transform="matrix(1,0,0,-1,0,792)">
          <g
             id="g690">
            <path
               d="m 1088.7956,143.32404 c -2.7062,-5.86618 1.0878,-13.89478 -0.1279,-19.99715"
               style="fill:none;stroke:#000000;stroke-width:2.61538;stroke-linecap:round;stroke-linejoin:round;stroke-miterlimit:10;stroke-dasharray:none;stroke-opacity:1"
               id="path692"
               sodipodi:nodetypes="cc" />
          </g>
        </g>
        <g
           id="g694"
           transform="matrix(1,0,0,-1,0,792)">
          <g
             id="g696">
            <path
               d="m 860.1261,80.109604 c 60.85581,12.412617 122.3881,21.080596 183.6239,31.227556 16.3669,3.57323 32.4199,8.48958 48.8862,11.61949"
               style="fill:none;stroke:#000000;stroke-width:2.61538;stroke-linecap:round;stroke-linejoin:round;stroke-miterlimit:10;stroke-dasharray:none;stroke-opacity:1"
               id="path698"
               sodipodi:nodetypes="ccc" />
          </g>
        </g>
        <g
           id="g700"
           transform="matrix(1,0,0,-1,0,792)">
          <g
             id="g702">
            <path
               d="m 1041.862,110.93059 c 2.4586,21.89117 -39.3665,15.02249 -28.6417,-4.4753"
               style="fill:none;stroke:#000000;stroke-width:2.61538;stroke-linecap:round;stroke-linejoin:round;stroke-miterlimit:10;stroke-dasharray:none;stroke-opacity:1"
               id="path704"
               sodipodi:nodetypes="cc" />
          </g>
        </g>
        <g
           id="g706"
           transform="matrix(1,0,0,-1,0,792)">
          <g
             id="g708">
            <path
               d="m 1019.4418,125.6435 c -4.7621,2.46804 -10.6118,-2.20709 -10.8108,-7.19907"
               style="fill:none;stroke:#000000;stroke-width:2.61538;stroke-linecap:round;stroke-linejoin:round;stroke-miterlimit:10;stroke-dasharray:none;stroke-opacity:1"
               id="path710" />
          </g>
        </g>
        <g
           id="g712"
           transform="matrix(1,0,0,-1,0,792)">
          <g
             id="g714">
            <path
               d="m 975.05536,125.43031 c -16.26925,-15.97101 16.48342,-18.5491 11.1008,-3.11511 -1.88875,1.72953 -4.32747,2.58043 -6.73063,3.26767"
               style="fill:none;stroke:#000000;stroke-width:2.61538;stroke-linecap:round;stroke-linejoin:round;stroke-miterlimit:10;stroke-dasharray:none;stroke-opacity:1"
               id="path716" />
          </g>
        </g>
        <g
           id="g718"
           transform="matrix(1,0,0,-1,0,792)">
          <g
             id="g720">
            <path
               d="m 976.27167,120.88496 c 14.00505,-0.12013 -7.13375,-11.26859 0.79725,-1.39665"
               style="fill:none;stroke:#000000;stroke-width:2.61538;stroke-linecap:round;stroke-linejoin:round;stroke-miterlimit:10;stroke-dasharray:none;stroke-opacity:1"
               id="path722" />
          </g>
        </g>
        <g
           id="g724"
           transform="matrix(1,0,0,-1,0,792)">
          <g
             id="g726">
            <path
               d="m 960.38367,124.36797 c 4.95163,-11.7871 -10.11171,-21.17874 -11.74544,-5.5653 0.3565,5.84253 7.74256,6.4066 11.74544,5.5653"
               style="fill:none;stroke:#000000;stroke-width:2.61538;stroke-linecap:round;stroke-linejoin:round;stroke-miterlimit:10;stroke-dasharray:none;stroke-opacity:1"
               id="path728"
               sodipodi:nodetypes="ccc" />
          </g>
        </g>
        <g
           id="g730"
           transform="matrix(1,0,0,-1,0,792)">
          <g
             id="g732">
            <path
               d="m 889.31976,128.83423 c 0.37517,3.52511 0.69707,7.05578 1.00385,10.58742"
               style="fill:none;stroke:#000000;stroke-width:2.61538;stroke-linecap:round;stroke-linejoin:round;stroke-miterlimit:10;stroke-dasharray:none;stroke-opacity:1"
               id="path734"
               sodipodi:nodetypes="cc" />
          </g>
        </g>
        <g
           id="g736"
           transform="matrix(1,0,0,-1,0,792)">
          <g
             id="g738">
            <path
               d="m 890.32361,139.42165 c -8.46967,1.40604 -22.43129,-0.13787 -15.74188,-12.29387"
               style="fill:none;stroke:#000000;stroke-width:2.61538;stroke-linecap:round;stroke-linejoin:round;stroke-miterlimit:10;stroke-dasharray:none;stroke-opacity:1"
               id="path740"
               sodipodi:nodetypes="cc" />
          </g>
        </g>
        <g
           id="g742"
           transform="matrix(1,0,0,-1,0,792)">
          <g
             id="g744">
            <path
               d="m 874.58173,127.12778 c 4.1788,0.38611 8.35667,0.78252 12.53338,1.19063"
               style="fill:none;stroke:#000000;stroke-width:2.61538;stroke-linecap:round;stroke-linejoin:round;stroke-miterlimit:10;stroke-dasharray:none;stroke-opacity:1"
               id="path746" />
          </g>
        </g>
        <g
           id="g748"
           transform="matrix(1,0,0,-1,0,792)">
          <g
             id="g750">
            <path
               d="m 881.72784,108.74674 c 18.68611,-6.11535 -5.40823,-24.019095 -9.07643,-10.056456 2.50442,4.703916 9.53494,13.877406 14.67214,7.147956"
               style="fill:none;stroke:#000000;stroke-width:2.61538;stroke-linecap:round;stroke-linejoin:round;stroke-miterlimit:10;stroke-dasharray:none;stroke-opacity:1"
               id="path752" />
          </g>
        </g>
        <g
           id="g754"
           transform="matrix(1,0,0,-1,0,792)">
          <g
             id="g756">
            <path
               d="m 748.02441,123.17745 c -2.91423,-12.02805 11.23839,-0.42746 -1.05098,-2.08542"
               style="fill:none;stroke:#000000;stroke-width:2.61538;stroke-linecap:round;stroke-linejoin:round;stroke-miterlimit:10;stroke-dasharray:none;stroke-opacity:1"
               id="path758" />
          </g>
        </g>
        <g
           id="g760"
           transform="matrix(1,0,0,-1,0,792)">
          <g
             id="g762">
            <path
               d="m 748.51019,91.211105 c -4.66006,-13.037124 14.426,3.24232 -0.16461,1.352471"
               style="fill:none;stroke:#000000;stroke-width:2.61538;stroke-linecap:round;stroke-linejoin:round;stroke-miterlimit:10;stroke-dasharray:none;stroke-opacity:1"
               id="path764" />
          </g>
        </g>
      </g>
    </g>
  </g>
</svg>
