<?xml version="1.0" encoding="UTF-8" standalone="no"?>
<!-- Created by Ashley Blewer - This work is licensed under a Creative Commons Attribution 4.0 International License -->

<svg
   width="544"
   height="480"
   viewBox="0 0 143.93334 127"
   version="1.1"
   id="svg2490"
   inkscape:version="1.2.2 (1:1.2.2+202212051552+b0a8486541)"
   sodipodi:docname="1992-dcc-1.svg"
   xmlns:inkscape="http://www.inkscape.org/namespaces/inkscape"
   xmlns:sodipodi="http://sodipodi.sourceforge.net/DTD/sodipodi-0.dtd"
   xmlns="http://www.w3.org/2000/svg"
   xmlns:svg="http://www.w3.org/2000/svg">
  <sodipodi:namedview
     id="namedview2492"
     pagecolor="#ffffff"
     bordercolor="#666666"
     borderopacity="1.0"
     inkscape:pageshadow="2"
     inkscape:pageopacity="0.0"
     inkscape:pagecheckerboard="0"
     inkscape:document-units="mm"
     showgrid="false"
     units="px"
     inkscape:zoom="0.90583674"
     inkscape:cx="53.541657"
     inkscape:cy="253.35691"
     inkscape:window-width="1846"
     inkscape:window-height="1136"
     inkscape:window-x="0"
     inkscape:window-y="0"
     inkscape:window-maximized="1"
     inkscape:current-layer="g4731"
     inkscape:showpageshadow="2"
     inkscape:deskcolor="#d1d1d1" />
  <defs
     id="defs2487" />
  <g
     inkscape:label="Layer 1"
     inkscape:groupmode="layer"
     id="layer1">
    <g
       id="g4731"
       transform="matrix(0.32961229,0,0,0.32903008,-241.78905,1.73126)"
       style="stroke-width:2.68698">
      <g
         id="g104528"
         transform="matrix(1,0,0,-1,0,792)"
         style="stroke-width:2.68698">
        <g
           id="g104530"
           style="stroke-width:2.68698" />
      </g>
      <g
         id="g104996"
         transform="matrix(1,0,0,-1,0,792)"
         style="stroke-width:2.68698">
        <g
           id="g104998"
           style="stroke-width:2.68698" />
      </g>
      <g
         id="g2853"
         transform="matrix(0.98610098,0,0,0.98784583,-7.4099128,-30.712509)">
        <g
           id="g64"
           transform="matrix(1,0,0,-1,0,792)">
          <g
             id="g66">
            <path
               d="m 780.51685,418.08041 c -3.64831,5.72714 -7.43677,11.36965 -10.86316,17.23478"
               style="fill:none;stroke:#000000;stroke-width:2.61538;stroke-linecap:round;stroke-linejoin:round;stroke-miterlimit:10;stroke-dasharray:none;stroke-opacity:1"
               id="path68"
               sodipodi:nodetypes="cc" />
          </g>
        </g>
        <g
           id="g70"
           transform="matrix(1,0,0,-1,0,792)">
          <g
             id="g72">
            <path
               d="m 769.65369,435.31519 c 1.03784,80.71562 -0.4035,161.48274 -1.40847,242.1543 0.0708,0.69873 0.14168,1.39747 0.21252,2.0962"
               style="fill:none;stroke:#000000;stroke-width:2.61538;stroke-linecap:round;stroke-linejoin:round;stroke-miterlimit:10;stroke-dasharray:none;stroke-opacity:1"
               id="path74" />
          </g>
        </g>
        <g
           id="g76"
           transform="matrix(1,0,0,-1,0,792)">
          <g
             id="g78">
            <path
               d="m 767.83575,681.4574 c 5.10597,-1.49601 7.14016,-12.34872 12.03892,-14.1445"
               style="fill:none;stroke:#000000;stroke-width:2.61538;stroke-linecap:round;stroke-linejoin:round;stroke-miterlimit:10;stroke-dasharray:none;stroke-opacity:1"
               id="path80"
               sodipodi:nodetypes="cc" />
          </g>
        </g>
        <g
           id="g82"
           transform="matrix(1,0,0,-1,0,792)">
          <g
             id="g84">
            <path
               d="m 779.87467,667.3129 c -4.20216,-74.32662 5.04855,-148.63614 2.21056,-222.94789 0.0534,-8.62716 0.36943,-17.30122 -0.67466,-25.8868"
               style="fill:none;stroke:#000000;stroke-width:2.61538;stroke-linecap:round;stroke-linejoin:round;stroke-miterlimit:10;stroke-dasharray:none;stroke-opacity:1"
               id="path86"
               sodipodi:nodetypes="ccc" />
          </g>
        </g>
        <g
           id="g88"
           transform="matrix(1,0,0,-1,0,792)">
          <g
             id="g90">
            <path
               d="m 773.36627,465.27039 c 2.12712,-3.3076 4.35945,-6.54933 6.67462,-9.728"
               style="fill:none;stroke:#000000;stroke-width:2.61538;stroke-linecap:round;stroke-linejoin:round;stroke-miterlimit:10;stroke-dasharray:none;stroke-opacity:1"
               id="path92" />
          </g>
        </g>
        <g
           id="g94"
           transform="matrix(1,0,0,-1,0,792)">
          <g
             id="g96">
            <path
               d="m 773.36627,465.27039 c 0.0659,-6.18012 -0.46836,-12.34606 -0.68319,-18.51863"
               style="fill:none;stroke:#000000;stroke-width:2.61538;stroke-linecap:round;stroke-linejoin:round;stroke-miterlimit:10;stroke-dasharray:none;stroke-opacity:1"
               id="path98"
               sodipodi:nodetypes="cc" />
          </g>
        </g>
        <g
           id="g100"
           transform="matrix(1,0,0,-1,0,792)">
          <g
             id="g102">
            <path
               d="m 772.3952,448.57346 c 2.39424,-3.14857 4.8904,-6.22117 7.4578,-9.22998"
               style="fill:none;stroke:#000000;stroke-width:2.61538;stroke-linecap:round;stroke-linejoin:round;stroke-miterlimit:10;stroke-dasharray:none;stroke-opacity:1"
               id="path104" />
          </g>
        </g>
        <g
           id="g106"
           transform="matrix(1,0,0,-1,0,792)">
          <g
             id="g108">
            <path
               d="m 770.16821,653.83777 c 2.83295,-2.18801 5.62768,-4.4256 8.40442,-6.68438"
               style="fill:none;stroke:#000000;stroke-width:2.61538;stroke-linecap:round;stroke-linejoin:round;stroke-miterlimit:10;stroke-dasharray:none;stroke-opacity:1"
               id="path110" />
          </g>
        </g>
        <g
           id="g112"
           transform="matrix(1,0,0,-1,0,792)">
          <g
             id="g114">
            <path
               d="m 770.98279,652.50244 c -0.24987,-5.24011 -0.61865,-10.47648 -1.13059,-15.69763"
               style="fill:none;stroke:#000000;stroke-width:2.61538;stroke-linecap:round;stroke-linejoin:round;stroke-miterlimit:10;stroke-dasharray:none;stroke-opacity:1"
               id="path116" />
          </g>
        </g>
        <g
           id="g118"
           transform="matrix(1,0,0,-1,0,792)">
          <g
             id="g120">
            <path
               d="m 769.88794,637.97546 c 2.98046,-3.05183 5.97063,-6.0942 8.96993,-9.12751"
               style="fill:none;stroke:#000000;stroke-width:2.61538;stroke-linecap:round;stroke-linejoin:round;stroke-miterlimit:10;stroke-dasharray:none;stroke-opacity:1"
               id="path122" />
          </g>
        </g>
        <g
           id="g124"
           transform="matrix(1,0,0,-1,0,792)">
          <g
             id="g126">
            <path
               d="m 767.83575,681.4574 c 131.43222,12.47877 262.82075,25.51433 394.44025,35.90313"
               style="fill:none;stroke:#000000;stroke-width:2.61538;stroke-linecap:round;stroke-linejoin:round;stroke-miterlimit:10;stroke-dasharray:none;stroke-opacity:1"
               id="path128"
               sodipodi:nodetypes="cccc" />
          </g>
        </g>
        <g
           id="g130"
           transform="matrix(1,0,0,-1,0,792)">
          <g
             id="g132">
            <path
               d="m 1162.276,717.36053 c 4.8983,-4.31182 9.955,-8.448 15.1318,-12.42065"
               style="fill:none;stroke:#000000;stroke-width:2.61538;stroke-linecap:round;stroke-linejoin:round;stroke-miterlimit:10;stroke-dasharray:none;stroke-opacity:1"
               id="path134" />
          </g>
        </g>
        <g
           id="g136"
           transform="matrix(1,0,0,-1,0,792)">
          <g
             id="g138">
            <path
               d="m 1177.8132,705.27032 c -2.2747,-52.63849 -13.5485,-104.53602 -13.7322,-157.31934 -1.7356,-23.24931 -5.8,-46.23702 -8.3077,-69.40094"
               style="fill:none;stroke:#000000;stroke-width:2.61538;stroke-linecap:round;stroke-linejoin:round;stroke-miterlimit:10;stroke-dasharray:none;stroke-opacity:1"
               id="path140" />
          </g>
        </g>
        <g
           id="g142"
           transform="matrix(1,0,0,-1,0,792)">
          <g
             id="g144">
            <path
               d="m 779.32507,668.09381 c 130.5048,16.478 262.04423,23.24947 392.41963,40.86466"
               style="fill:none;stroke:#000000;stroke-width:2.61538;stroke-linecap:round;stroke-linejoin:round;stroke-miterlimit:10;stroke-dasharray:none;stroke-opacity:1"
               id="path146" />
          </g>
        </g>
        <g
           id="g148"
           transform="matrix(1,0,0,-1,0,792)">
          <g
             id="g150">
            <path
               d="m 1118.4083,712.72729 c 2.1181,-1.97772 4.1807,-4.0162 6.1921,-6.1022"
               style="fill:none;stroke:#000000;stroke-width:2.61538;stroke-linecap:round;stroke-linejoin:round;stroke-miterlimit:10;stroke-dasharray:none;stroke-opacity:1"
               id="path152" />
          </g>
        </g>
        <g
           id="g154"
           transform="matrix(1,0,0,-1,0,792)">
          <g
             id="g156">
            <path
               d="m 1130.0067,715.50601 c 0.7086,-1.03246 3.8008,-5.12989 4.6382,-6.14615"
               style="fill:none;stroke:#000000;stroke-width:2.61538;stroke-linecap:round;stroke-linejoin:round;stroke-miterlimit:10;stroke-dasharray:none;stroke-opacity:1"
               id="path158"
               sodipodi:nodetypes="cc" />
          </g>
        </g>
        <g
           id="g160"
           transform="matrix(1,0,0,-1,0,792)">
          <g
             id="g162">
            <path
               d="m 1134.6449,709.35986 c 4.1224,0.98635 8.3766,1.24699 12.5797,1.69452"
               style="fill:none;stroke:#000000;stroke-width:2.61538;stroke-linecap:round;stroke-linejoin:round;stroke-miterlimit:10;stroke-dasharray:none;stroke-opacity:1"
               id="path164"
               sodipodi:nodetypes="cc" />
          </g>
        </g>
        <g
           id="g166"
           transform="matrix(1,0,0,-1,0,792)">
          <g
             id="g168">
            <path
               d="m 1147.2246,711.05438 c -1.177,1.43302 -2.3541,2.86605 -3.5311,4.29907"
               style="fill:none;stroke:#000000;stroke-width:2.61538;stroke-linecap:round;stroke-linejoin:round;stroke-miterlimit:10;stroke-dasharray:none;stroke-opacity:1"
               id="path170" />
          </g>
        </g>
        <g
           id="g172"
           transform="matrix(1,0,0,-1,0,792)">
          <g
             id="g174">
            <path
               d="m 780.20789,418.58728 c 2.55725,0.14133 5.1145,0.28265 7.67175,0.42398"
               style="fill:none;stroke:#000000;stroke-width:2.61538;stroke-linecap:round;stroke-linejoin:round;stroke-miterlimit:10;stroke-dasharray:none;stroke-opacity:1"
               id="path176" />
          </g>
        </g>
        <g
           id="g178"
           transform="matrix(1,0,0,-1,0,792)">
          <g
             id="g180">
            <path
               d="m 792.56683,448.88217 c 0.45883,-9.51965 0.87147,-19.04147 1.28376,-28.56322"
               style="fill:none;stroke:#000000;stroke-width:2.61538;stroke-linecap:round;stroke-linejoin:round;stroke-miterlimit:10;stroke-dasharray:none;stroke-opacity:1"
               id="path182"
               sodipodi:nodetypes="cc" />
          </g>
        </g>
        <g
           id="g184"
           transform="matrix(1,0,0,-1,0,792)">
          <g
             id="g186">
            <path
               d="m 792.56683,448.88217 c 17.07841,5.26124 35.07959,6.02566 52.61396,8.92176"
               style="fill:none;stroke:#000000;stroke-width:2.61538;stroke-linecap:round;stroke-linejoin:round;stroke-miterlimit:10;stroke-dasharray:none;stroke-opacity:1"
               id="path188"
               sodipodi:nodetypes="cc" />
          </g>
        </g>
        <g
           id="g190"
           transform="matrix(1,0,0,-1,0,792)">
          <g
             id="g192">
            <path
               d="m 846.59314,455.47919 c -1.00201,-9.71556 -0.0995,-19.48969 0.87126,-29.16708"
               style="fill:none;stroke:#000000;stroke-width:2.61538;stroke-linecap:round;stroke-linejoin:round;stroke-miterlimit:10;stroke-dasharray:none;stroke-opacity:1"
               id="path194" />
          </g>
        </g>
        <g
           id="g196"
           transform="matrix(1,0,0,-1,0,792)">
          <g
             id="g198">
            <path
               d="m 787.87964,419.01126 c 19.96321,1.44673 39.8298,4.12223 59.58476,7.30085"
               style="fill:none;stroke:#000000;stroke-width:2.61538;stroke-linecap:round;stroke-linejoin:round;stroke-miterlimit:10;stroke-dasharray:none;stroke-opacity:1"
               id="path200"
               sodipodi:nodetypes="cc" />
          </g>
        </g>
        <g
           id="g202"
           transform="matrix(1,0,0,-1,0,792)">
          <g
             id="g204">
            <path
               d="m 848.04565,425.56094 c 83.74394,16.82001 168.73315,26.09812 253.14895,38.73233"
               style="fill:none;stroke:#000000;stroke-width:2.61538;stroke-linecap:round;stroke-linejoin:round;stroke-miterlimit:10;stroke-dasharray:none;stroke-opacity:1"
               id="path206" />
          </g>
        </g>
        <g
           id="g208"
           transform="matrix(1,0,0,-1,0,792)">
          <g
             id="g210">
            <path
               d="m 1100.084,464.25763 c 0.1874,10.98142 0.4717,21.99045 1.939,32.88909"
               style="fill:none;stroke:#000000;stroke-width:2.61538;stroke-linecap:round;stroke-linejoin:round;stroke-miterlimit:10;stroke-dasharray:none;stroke-opacity:1"
               id="path212" />
          </g>
        </g>
        <g
           id="g214"
           transform="matrix(1,0,0,-1,0,792)">
          <g
             id="g216">
            <path
               d="m 1100.084,464.25763 c 2.5275,4.05336 8.5415,1.80275 12.1135,4.23883"
               style="fill:none;stroke:#000000;stroke-width:2.61538;stroke-linecap:round;stroke-linejoin:round;stroke-miterlimit:10;stroke-dasharray:none;stroke-opacity:1"
               id="path218"
               sodipodi:nodetypes="cc" />
          </g>
        </g>
        <g
           id="g220"
           transform="matrix(1,0,0,-1,0,792)">
          <g
             id="g222">
            <path
               d="m 1112.1975,468.49646 c 0.03,-0.3397 0.1097,-1.26203 0.1203,-1.3835"
               style="fill:none;stroke:#000000;stroke-width:2.61538;stroke-linecap:round;stroke-linejoin:round;stroke-miterlimit:10;stroke-dasharray:none;stroke-opacity:1"
               id="path224" />
          </g>
        </g>
        <g
           id="g226"
           transform="matrix(1,0,0,-1,0,792)">
          <g
             id="g228">
            <path
               d="m 1113.1934,466.84906 c 14.0115,4.36532 30.4098,2.34813 42.5799,11.70098"
               style="fill:none;stroke:#000000;stroke-width:2.61538;stroke-linecap:round;stroke-linejoin:round;stroke-miterlimit:10;stroke-dasharray:none;stroke-opacity:1"
               id="path230"
               sodipodi:nodetypes="cc" />
          </g>
        </g>
        <g
           id="g232"
           transform="matrix(1,0,0,-1,0,792)">
          <g
             id="g234">
            <path
               d="m 847.81299,458.27969 c 84.14862,16.51898 169.19491,27.89098 254.21001,38.86703"
               style="fill:none;stroke:#000000;stroke-width:2.61538;stroke-linecap:round;stroke-linejoin:round;stroke-miterlimit:10;stroke-dasharray:none;stroke-opacity:1"
               id="path236"
               sodipodi:nodetypes="cc" />
          </g>
        </g>
        <g
           id="g238"
           transform="matrix(1,0,0,-1,0,792)">
          <g
             id="g240">
            <path
               d="m 1160.5988,618.12451 c 2.7762,-0.22983 5.5478,-0.52356 8.3108,-0.87781"
               style="fill:none;stroke:#000000;stroke-width:2.61538;stroke-linecap:round;stroke-linejoin:round;stroke-miterlimit:10;stroke-dasharray:none;stroke-opacity:1"
               id="path242" />
          </g>
        </g>
        <g
           id="g244"
           transform="matrix(1,0,0,-1,0,792)">
          <g
             id="g246">
            <path
               d="m 1159.542,616.53833 c -0.1889,-13.68809 -3.9281,-27.18666 -2.7237,-40.91687"
               style="fill:none;stroke:#000000;stroke-width:2.61538;stroke-linecap:round;stroke-linejoin:round;stroke-miterlimit:10;stroke-dasharray:none;stroke-opacity:1"
               id="path248" />
          </g>
        </g>
        <g
           id="g250"
           transform="matrix(1,0,0,-1,0,792)">
          <g
             id="g252">
            <path
               d="m 1156.582,575.96985 c 3.1466,0.0254 4.7827,0.67015 7.9009,1.08935"
               style="fill:none;stroke:#000000;stroke-width:2.61538;stroke-linecap:round;stroke-linejoin:round;stroke-miterlimit:10;stroke-dasharray:none;stroke-opacity:1"
               id="path254"
               sodipodi:nodetypes="cc" />
          </g>
        </g>
        <g
           id="g256"
           transform="matrix(1,0,0,-1,0,792)">
          <g
             id="g258">
            <path
               d="m 1164.4829,577.0592 c 0.9597,13.70803 1.0154,27.48615 2.7564,41.13324"
               style="fill:none;stroke:#000000;stroke-width:2.61538;stroke-linecap:round;stroke-linejoin:round;stroke-miterlimit:10;stroke-dasharray:none;stroke-opacity:1"
               id="path260" />
          </g>
        </g>
        <g
           id="g262"
           transform="matrix(1,0,0,-1,0,792)">
          <g
             id="g264">
            <path
               d="m 1159.3187,643.2771 c 0.6943,8.58158 1.9854,17.15542 1.5917,25.7879"
               style="fill:none;stroke:#000000;stroke-width:2.61538;stroke-linecap:round;stroke-linejoin:round;stroke-miterlimit:10;stroke-dasharray:none;stroke-opacity:1"
               id="path266" />
          </g>
        </g>
        <g
           id="g268"
           transform="matrix(1,0,0,-1,0,792)">
          <g
             id="g270">
            <path
               d="m 799.44873,624.6496 c 120.36667,15.76079 240.91307,30.12545 361.46167,44.4154"
               style="fill:none;stroke:#000000;stroke-width:2.61538;stroke-linecap:round;stroke-linejoin:round;stroke-miterlimit:10;stroke-dasharray:none;stroke-opacity:1"
               id="path272"
               sodipodi:nodetypes="cc" />
          </g>
        </g>
        <g
           id="g274"
           transform="matrix(1,0,0,-1,0,792)">
          <g
             id="g276">
            <path
               d="m 799.44873,624.6496 c 0.92822,-6.6897 1.85645,-13.37939 2.78467,-20.06909"
               style="fill:none;stroke:#000000;stroke-width:2.61538;stroke-linecap:round;stroke-linejoin:round;stroke-miterlimit:10;stroke-dasharray:none;stroke-opacity:1"
               id="path278"
               sodipodi:nodetypes="cc" />
          </g>
        </g>
        <g
           id="g280"
           transform="matrix(1,0,0,-1,0,792)">
          <g
             id="g282">
            <path
               d="m 802.2334,604.58051 c 118.55836,12.53562 237.1718,24.64674 355.499,39.24809 0.4593,0.62594 1.8969,0.65239 1.354,1.88237"
               style="fill:none;stroke:#000000;stroke-width:2.61538;stroke-linecap:round;stroke-linejoin:round;stroke-miterlimit:10;stroke-dasharray:none;stroke-opacity:1"
               id="path284" />
          </g>
        </g>
        <g
           id="g286"
           transform="matrix(1,0,0,-1,0,792)">
          <g
             id="g288">
            <path
               d="m 935.15674,594.91437 c 2.18011,-32.09649 1.33591,-64.31113 -0.32232,-96.40988"
               style="fill:none;stroke:#000000;stroke-width:1.30769;stroke-linecap:round;stroke-linejoin:round;stroke-miterlimit:10;stroke-dasharray:none;stroke-opacity:1"
               id="path290" />
          </g>
        </g>
        <g
           id="g292"
           transform="matrix(1,0,0,-1,0,792)">
          <g
             id="g294">
            <path
               d="m 948.37048,599.9397 c 0.85135,-30.88279 0.80768,-61.80029 2.77067,-92.64379"
               style="fill:none;stroke:#000000;stroke-width:1.30769;stroke-linecap:round;stroke-linejoin:round;stroke-miterlimit:10;stroke-dasharray:none;stroke-opacity:1"
               id="path296" />
          </g>
        </g>
        <g
           id="g298"
           transform="matrix(1,0,0,-1,0,792)">
          <g
             id="g300">
            <path
               d="m 959.63336,602.81824 c 59.99914,4.28326 119.29734,15.33676 179.32884,19.26807"
               style="fill:none;stroke:#000000;stroke-width:1.30769;stroke-linecap:round;stroke-linejoin:round;stroke-miterlimit:10;stroke-dasharray:none;stroke-opacity:1"
               id="path302" />
          </g>
        </g>
        <g
           id="g304"
           transform="matrix(1,0,0,-1,0,792)">
          <g
             id="g306">
            <path
               d="m 956.30383,493.09036 c 56.21657,3.31137 111.82117,14.01728 168.21067,14.86546"
               style="fill:none;stroke:#000000;stroke-width:1.30769;stroke-linecap:round;stroke-linejoin:round;stroke-miterlimit:10;stroke-dasharray:none;stroke-opacity:1"
               id="path308" />
          </g>
        </g>
        <g
           id="g310"
           transform="matrix(1,0,0,-1,0,792)">
          <g
             id="g312">
            <path
               d="m 1155.9077,620.61456 c -3.4803,-34.87668 1.2776,-71.4597 -12.532,-104.60308"
               style="fill:none;stroke:#000000;stroke-width:1.30769;stroke-linecap:round;stroke-linejoin:round;stroke-miterlimit:10;stroke-dasharray:none;stroke-opacity:1"
               id="path314" />
          </g>
        </g>
        <g
           id="g316"
           transform="matrix(1,0,0,-1,0,792)">
          <g
             id="g318">
            <path
               d="m 792.18958,593.06256 c 21.51352,3.06677 43.14668,5.19193 64.68536,8.06381"
               style="fill:none;stroke:#000000;stroke-width:1.30769;stroke-linecap:round;stroke-linejoin:round;stroke-miterlimit:10;stroke-dasharray:none;stroke-opacity:1"
               id="path320" />
          </g>
        </g>
        <g
           id="g322"
           transform="matrix(1,0,0,-1,0,792)">
          <g
             id="g324">
            <path
               d="m 791.83502,583.49603 c 1.57493,-7.37116 0.23136,-14.96808 1.37905,-22.38244"
               style="fill:none;stroke:#000000;stroke-width:1.30769;stroke-linecap:round;stroke-linejoin:round;stroke-miterlimit:10;stroke-dasharray:none;stroke-opacity:1"
               id="path326" />
          </g>
        </g>
        <g
           id="g328"
           transform="matrix(1,0,0,-1,0,792)">
          <g
             id="g330">
            <path
               d="m 792.12543,540.11792 c -0.3496,-22.70309 2.4438,-45.28906 3.48043,-67.93808"
               style="fill:none;stroke:#000000;stroke-width:1.30769;stroke-linecap:round;stroke-linejoin:round;stroke-miterlimit:10;stroke-dasharray:none;stroke-opacity:1"
               id="path332" />
          </g>
        </g>
        <g
           id="g334"
           transform="matrix(1,0,0,-1,0,792)">
          <g
             id="g336">
            <path
               d="m 799.76831,468.15295 c 13.21061,-0.19336 26.18401,2.68279 39.19278,4.54592"
               style="fill:none;stroke:#000000;stroke-width:1.30769;stroke-linecap:round;stroke-linejoin:round;stroke-miterlimit:10;stroke-dasharray:none;stroke-opacity:1"
               id="path338" />
          </g>
        </g>
        <g
           id="g340"
           transform="matrix(1,0,0,-1,0,792)">
          <g
             id="g342">
            <path
               d="m 868.36017,601.23248 c 16.67244,-0.22991 33.08655,3.38003 49.71136,3.98364"
               style="fill:none;stroke:#000000;stroke-width:1.30769;stroke-linecap:round;stroke-linejoin:round;stroke-miterlimit:10;stroke-dasharray:none;stroke-opacity:1"
               id="path344" />
          </g>
        </g>
      </g>
    </g>
  </g>
</svg>
