<?xml version="1.0" encoding="UTF-8" standalone="no"?>
<!-- Created by Ashley Blewer - This work is licensed under a Creative Commons Attribution 4.0 International License -->

<svg
   width="544"
   height="480"
   viewBox="0 0 143.93334 127"
   version="1.1"
   id="svg2490"
   inkscape:version="1.2.2 (1:1.2.2+202212051552+b0a8486541)"
   sodipodi:docname="1992-minidisc-1.svg"
   xmlns:inkscape="http://www.inkscape.org/namespaces/inkscape"
   xmlns:sodipodi="http://sodipodi.sourceforge.net/DTD/sodipodi-0.dtd"
   xmlns="http://www.w3.org/2000/svg"
   xmlns:svg="http://www.w3.org/2000/svg">
  <sodipodi:namedview
     id="namedview2492"
     pagecolor="#ffffff"
     bordercolor="#666666"
     borderopacity="1.0"
     inkscape:pageshadow="2"
     inkscape:pageopacity="0.0"
     inkscape:pagecheckerboard="0"
     inkscape:document-units="mm"
     showgrid="false"
     units="px"
     inkscape:zoom="0.90583674"
     inkscape:cx="53.541657"
     inkscape:cy="253.35691"
     inkscape:window-width="1846"
     inkscape:window-height="1136"
     inkscape:window-x="0"
     inkscape:window-y="0"
     inkscape:window-maximized="1"
     inkscape:current-layer="g4731"
     inkscape:showpageshadow="2"
     inkscape:deskcolor="#d1d1d1" />
  <defs
     id="defs2487" />
  <g
     inkscape:label="Layer 1"
     inkscape:groupmode="layer"
     id="layer1">
    <g
       id="g4731"
       transform="matrix(0.32961229,0,0,0.32903008,-241.78905,1.73126)"
       style="stroke-width:2.68698">
      <g
         id="g104528"
         transform="matrix(1,0,0,-1,0,792)"
         style="stroke-width:2.68698">
        <g
           id="g104530"
           style="stroke-width:2.68698" />
      </g>
      <g
         id="g104996"
         transform="matrix(1,0,0,-1,0,792)"
         style="stroke-width:2.68698">
        <g
           id="g104998"
           style="stroke-width:2.68698" />
      </g>
      <g
         id="g3076"
         transform="matrix(1.0035993,0,0,1.0053751,666.52283,-400.05055)">
        <g
           id="g52"
           transform="matrix(1,0,0,-1,0,792)">
          <g
             id="g54">
            <path
               d="m 231.72708,374.12555 c 8.52903,4.68221 17.59929,-3.76802 26.25428,-6.64377 21.45236,-7.28306 41.83263,-19.53012 64.0195,-29.83944 21.08937,-6.35699 37.59935,-19.22172 59.13164,-25.50859 25.1579,-10.37017 49.83307,-24.97264 74.96413,-35.48209 8.02418,-4.10743 22.55261,-9.95477 23.76831,-11.29653 0,0 7.26478,-14.29747 7.13133,-14.92013"
               style="fill:none;stroke:#000000;stroke-width:2.61538;stroke-linecap:round;stroke-linejoin:round;stroke-miterlimit:10;stroke-dasharray:none;stroke-opacity:1"
               id="path56"
               sodipodi:nodetypes="ccccccc" />
          </g>
        </g>
        <g
           id="g58"
           transform="matrix(1,0,0,-1,0,792)">
          <g
             id="g60">
            <path
               d="m 487.14252,248.73953 c 0.32083,-7.36353 -1.20367,-16.23095 0.0162,-23.30475"
               style="fill:none;stroke:#000000;stroke-width:2.61538;stroke-linecap:round;stroke-linejoin:round;stroke-miterlimit:10;stroke-dasharray:none;stroke-opacity:1"
               id="path62" />
          </g>
        </g>
        <g
           id="g64"
           transform="matrix(1,0,0,-1,0,792)">
          <g
             id="g66">
            <path
               d="m 486.96094,225.05214 c -1.38417,-3.01281 -5.65915,-10.75347 -6.24169,-13.59467"
               style="fill:none;stroke:#000000;stroke-width:2.61538;stroke-linecap:round;stroke-linejoin:round;stroke-miterlimit:10;stroke-dasharray:none;stroke-opacity:1"
               id="path68"
               sodipodi:nodetypes="cc" />
          </g>
        </g>
        <g
           id="g70"
           transform="matrix(1,0,0,-1,0,792)">
          <g
             id="g72">
            <path
               d="m 454.52301,179.25285 c -10.47206,-15.93962 -24.90057,-34.7545 -37.86629,-50.93525 -20.42585,-26.82141 -42.7165,-55.1282 -63.50654,-80.863228 -1.9686,-3.122103 -7.61334,-10.836356 -11.27536,-7.36821"
               style="fill:none;stroke:#000000;stroke-width:2.61538;stroke-linecap:round;stroke-linejoin:round;stroke-miterlimit:10;stroke-dasharray:none;stroke-opacity:1"
               id="path74" />
          </g>
        </g>
        <g
           id="g76"
           transform="matrix(1,0,0,-1,0,792)">
          <g
             id="g78">
            <path
               d="m 231.72708,374.12555 c -8.65689,-4.55755 -14.86277,-16.56195 -24.2105,-24.82588 -22.12035,-26.57697 -42.44919,-54.87535 -65.40132,-82.02783 -18.0159,-24.83129 -41.46094,-52.28834 -54.547582,-75.07501 -0.540785,0.71698 -0.935621,-1.09896 0,0"
               style="fill:none;stroke:#000000;stroke-width:2.61538;stroke-linecap:round;stroke-linejoin:round;stroke-miterlimit:10;stroke-dasharray:none;stroke-opacity:1"
               id="path80"
               sodipodi:nodetypes="ccccc" />
          </g>
        </g>
        <g
           id="g82"
           transform="matrix(1,0,0,-1,0,792)">
          <g
             id="g84">
            <path
               d="m 86.632057,191.09787 c -1.60813,-13.1141 4.241323,-29.14659 8.009216,-39.35608"
               style="fill:none;stroke:#000000;stroke-width:2.61538;stroke-linecap:round;stroke-linejoin:round;stroke-miterlimit:10;stroke-dasharray:none;stroke-opacity:1"
               id="path86"
               sodipodi:nodetypes="cc" />
          </g>
        </g>
        <g
           id="g88"
           transform="matrix(1,0,0,-1,0,792)">
          <g
             id="g90">
            <path
               d="m 94.641273,151.74179 c 21.320097,-7.49882 42.369387,-25.49509 64.429657,-31.97489 40.8385,-20.036587 84.81489,-37.415997 125.45679,-60.001906 0,0 35.49067,-21.126538 57.3471,-19.678832"
               style="fill:none;stroke:#000000;stroke-width:2.61538;stroke-linecap:round;stroke-linejoin:round;stroke-miterlimit:10;stroke-dasharray:none;stroke-opacity:1"
               id="path92"
               sodipodi:nodetypes="cccc" />
          </g>
        </g>
        <g
           id="g94"
           transform="matrix(1,0,0,-1,0,792)">
          <g
             id="g96">
            <path
               d="m 479.94016,209.74678 c 2.204,10.57574 -13.03971,14.86007 -16.4054,3.64551 -6.08886,-11.29943 -10.73114,-25.4244 -8.34605,-34.34931 14.15238,1.66932 19.43067,18.65253 25.11614,28.19541 0.0629,1.61829 0.0634,2.70336 0.4144,4.21908"
               style="fill:none;stroke:#000000;stroke-width:2.61538;stroke-linecap:round;stroke-linejoin:round;stroke-miterlimit:10;stroke-dasharray:none;stroke-opacity:1"
               id="path98" />
          </g>
        </g>
        <g
           id="g100"
           transform="matrix(1,0,0,-1,0,792)">
          <g
             id="g102">
            <path
               d="m 449.16373,172.50429 c 0.51136,9.72195 -8.24425,1.67898 -9.31828,-3.00145 -1.93971,-4.40168 -2.99447,-11.41182 3.33554,-6.0531"
               style="fill:none;stroke:#000000;stroke-width:2.61538;stroke-linecap:round;stroke-linejoin:round;stroke-miterlimit:10;stroke-dasharray:none;stroke-opacity:1"
               id="path104"
               sodipodi:nodetypes="ccc" />
          </g>
        </g>
        <g
           id="g106"
           transform="matrix(1,0,0,-1,0,792)">
          <g
             id="g108">
            <path
               d="m 417.086,293.1669 c -4.44521,-5.47955 -14.23212,-17.30806 -3.49425,-23.07494 15.22298,-9.12223 21.30028,5.15303 29.58924,11.72347"
               style="fill:none;stroke:#000000;stroke-width:2.61538;stroke-linecap:round;stroke-linejoin:round;stroke-miterlimit:10;stroke-dasharray:none;stroke-opacity:1"
               id="path110"
               sodipodi:nodetypes="ccc" />
          </g>
        </g>
        <g
           id="g112"
           transform="matrix(1,0,0,-1,0,792)">
          <g
             id="g114">
            <path
               d="m 474.31195,268.25939 c -1.199,-14.22663 -20.59012,-29.99595 -27.84895,-42.20023 -28.36729,-33.64426 -54.90349,-69.519 -79.08899,-106.56909 -6.42161,-10.50072 -12.7241,-21.793507 -21.56087,-28.171415 -1.63922,-0.409125 -6.23141,-1.472031 -6.23141,-1.472031"
               style="fill:none;stroke:#000000;stroke-width:2.61538;stroke-linecap:round;stroke-linejoin:round;stroke-miterlimit:10;stroke-dasharray:none;stroke-opacity:1"
               id="path116"
               sodipodi:nodetypes="ccccc" />
          </g>
        </g>
        <g
           id="g118"
           transform="matrix(1,0,0,-1,0,792)">
          <g
             id="g120">
            <path
               d="m 101.30209,203.55994 c 2.29265,-12.23787 20.98014,-15.77495 31.66026,-21.31434 36.31354,-13.80872 69.22463,-33.36353 105.04682,-48.89395 33.2447,-17.33419 65.5162,-34.755253 101.57256,-43.505026 1.92344,0.445426 4.64632,0.477374 6.23141,1.472031"
               style="fill:none;stroke:#000000;stroke-width:2.61538;stroke-linecap:round;stroke-linejoin:round;stroke-miterlimit:10;stroke-dasharray:none;stroke-opacity:1"
               id="path122" />
          </g>
        </g>
        <g
           id="g124"
           transform="matrix(1,0,0,-1,0,792)">
          <g
             id="g126">
            <path
               d="m 279.21234,112.10233 c -7.56451,-8.36641 18.48666,-15.488668 18.48666,-15.488668 7.20949,1.69121 7.20949,1.69121 7.20949,1.69121"
               style="fill:none;stroke:#000000;stroke-width:2.61538;stroke-linecap:round;stroke-linejoin:round;stroke-miterlimit:10;stroke-dasharray:none;stroke-opacity:1"
               id="path128"
               sodipodi:nodetypes="ccc" />
          </g>
        </g>
        <g
           id="g130"
           transform="matrix(1,0,0,-1,0,792)">
          <g
             id="g132">
            <path
               d="m 279.21234,112.10233 c 21.05733,29.84375 62.79455,90.61738 79.85362,101.99676 17.39159,3.81485 24.62483,-15.10175 13.48486,-25.95458 -18.36501,-25.56554 -39.92503,-48.83094 -55.78665,-76.41092 -3.74189,-4.9548 -9.50376,-11.1917 -13.48575,-13.89216"
               style="fill:none;stroke:#000000;stroke-width:2.61538;stroke-linecap:round;stroke-linejoin:round;stroke-miterlimit:10;stroke-dasharray:none;stroke-opacity:1"
               id="path134"
               sodipodi:nodetypes="ccccc" />
          </g>
        </g>
        <g
           id="g136"
           transform="matrix(1,0,0,-1,0,792)">
          <g
             id="g138">
            <path
               d="m 422.75995,254.01961 c 9.48905,-13.27229 1.70529,-31.5498 -12.3384,-37.73267 -15.90022,-10.62003 -42.68698,-7.84483 -50.44923,11.50019 -7.08523,17.77523 5.3146,40.66889 24.92683,42.36251 14.53949,1.95884 29.33251,-5.97785 37.99807,-17.32044 2.89989,-4.86755 4.93488,-10.71136 3.7201,-16.41935"
               style="fill:none;stroke:#000000;stroke-width:2.61538;stroke-linecap:round;stroke-linejoin:round;stroke-miterlimit:10;stroke-dasharray:none;stroke-opacity:1"
               id="path140"
               sodipodi:nodetypes="cccccc" />
          </g>
        </g>
        <g
           id="g142"
           transform="matrix(1,0,0,-1,0,792)">
          <g
             id="g144">
            <path
               d="m 227.90697,342.56836 c 22.26424,-5.42106 40.97168,-19.56186 62.44048,-27.06193 21.71349,-11.99257 46.49244,-17.94285 66.84754,-32.47209 3.79392,-8.09127 -2.84256,-16.13448 -8.71805,-21.09111 -6.24213,-5.60161 -9.28208,-15.86193 -18.76235,-16.89835 -9.30163,-1.50536 -16.79798,5.50764 -25.06119,8.42305 -20.46865,9.24088 -40.58239,19.24774 -60.53274,29.54366 -9.47205,3.86445 -19.37665,6.62185 -28.53563,11.25401 -7.87985,3.39441 -17.05422,7.1653 -20.62689,15.60645 -1.84705,9.10573 5.82842,16.28163 11.49704,22.31997 6.52876,6.90677 11.69479,15.58154 21.45179,10.37634"
               style="fill:none;stroke:#000000;stroke-width:2.61538;stroke-linecap:round;stroke-linejoin:round;stroke-miterlimit:10;stroke-dasharray:none;stroke-opacity:1"
               id="path146"
               sodipodi:nodetypes="ccccccccccc" />
          </g>
        </g>
        <g
           id="g148"
           transform="matrix(1,0,0,-1,0,792)">
          <g
             id="g150">
            <path
               d="m 227.3837,335.50966 c 0,0 9.66278,-4.363 16.40355,-7.6855 21.22623,-11.31862 44.42762,-21.15431 65.56243,-32.06999 14.10692,-5.03717 34.35657,-12.01709 39.9659,-16.23114 2.16612,-6.67628 -10.9563,-8.23925 -11.56709,-15.28233 -3.33775,-5.6929 -6.1444,-5.05059 -13.97278,-0.24871 -34.08655,16.31041 -69.11941,33.49598 -104.98657,46.10239 -8.49593,4.48876 -17.44698,8.71308 -7.22266,16.55801 5.34273,4.99072 9.58782,10.84948 15.81722,8.85727"
               style="fill:none;stroke:#000000;stroke-width:2.61538;stroke-linecap:round;stroke-linejoin:round;stroke-miterlimit:10;stroke-dasharray:none;stroke-opacity:1"
               id="path152"
               sodipodi:nodetypes="ccccccccc" />
          </g>
        </g>
        <g
           id="g154"
           transform="matrix(1,0,0,-1,0,792)">
          <g
             id="g156">
            <path
               d="m 284.41742,241.83212 c 11.44403,-3.1696 28.84752,-11.18571 37.91066,-19.30586 2.75606,-7.68379 -8.29801,-12.08352 -16.42269,-6.25992 -11.77542,5.81211 -26.61267,9.72141 -33.6891,19.08926 -0.9817,6.81491 9.22589,9.42362 15.24481,5.04698"
               style="fill:none;stroke:#000000;stroke-width:1.30769;stroke-linecap:round;stroke-linejoin:round;stroke-miterlimit:10;stroke-dasharray:none;stroke-opacity:1"
               id="path158" />
          </g>
        </g>
        <g
           id="g160"
           transform="matrix(1,0,0,-1,0,792)">
          <g
             id="g162">
            <path
               d="m 286.59741,239.8298 c -7.52074,-0.11671 -9.09975,-14.00238 1.78745,-13.67334 7.60135,-6.70908 17.2989,8.89492 8.54911,11.00819"
               style="fill:none;stroke:#000000;stroke-width:1.30769;stroke-linecap:round;stroke-linejoin:round;stroke-miterlimit:10;stroke-dasharray:none;stroke-opacity:1"
               id="path164" />
          </g>
        </g>
        <g
           id="g166"
           transform="matrix(1,0,0,-1,0,792)">
          <g
             id="g168">
            <path
               d="m 289.86456,234.81102 c -10.07145,0.92625 7.90779,-8.85457 1.28461,-0.76912 l -1.28766,0.6898 -0.63941,-0.0345"
               style="fill:none;stroke:#000000;stroke-width:1.30769;stroke-linecap:round;stroke-linejoin:round;stroke-miterlimit:10;stroke-dasharray:none;stroke-opacity:1"
               id="path170" />
          </g>
        </g>
        <g
           id="g172"
           transform="matrix(1,0,0,-1,0,792)">
          <g
             id="g174">
            <path
               d="m 311.77423,230.21307 c 10.89612,-3.76396 -2.77749,-19.19425 -11.65671,-10.82556"
               style="fill:none;stroke:#000000;stroke-width:1.30769;stroke-linecap:round;stroke-linejoin:round;stroke-miterlimit:10;stroke-dasharray:none;stroke-opacity:1"
               id="path176"
               sodipodi:nodetypes="cc" />
          </g>
        </g>
        <g
           id="g178"
           transform="matrix(1,0,0,-1,0,792)">
          <g
             id="g180">
            <path
               d="m 245.45525,286.88939 c -3.23138,9.33364 11.40411,5.67394 16.66192,-0.55306 6.42812,-4.85335 25.84301,-6.67026 20.57153,-16.46511 -13.35652,3.17492 -25.26032,11.11424 -37.23345,17.01817"
               style="fill:none;stroke:#000000;stroke-width:1.30769;stroke-linecap:round;stroke-linejoin:round;stroke-miterlimit:10;stroke-dasharray:none;stroke-opacity:1"
               id="path182"
               sodipodi:nodetypes="cccc" />
          </g>
        </g>
        <g
           id="g184"
           transform="matrix(1,0,0,-1,0,792)">
          <g
             id="g186">
            <path
               d="m 249.70697,352.39667 c -0.95085,-4.39825 -2.57371,4.90368 -8.50318,3.62091 -6.67678,-2.60359 11.17994,-9.42159 -0.0428,-8.74166 -4.1263,0.53595 -6.89756,4.90964 -4.88759,4.59071"
               style="fill:none;stroke:#000000;stroke-width:1.30769;stroke-linecap:round;stroke-linejoin:round;stroke-miterlimit:10;stroke-dasharray:none;stroke-opacity:1"
               id="path188" />
          </g>
        </g>
        <g
           id="g190"
           transform="matrix(1,0,0,-1,0,792)">
          <g
             id="g192">
            <path
               d="m 259.26971,347.78409 c -5.14348,3.55915 -11.94727,-8.44011 -2.01528,-8.33762 8.58558,0.40979 6.99215,8.74924 -0.6568,8.55451"
               style="fill:none;stroke:#000000;stroke-width:1.30769;stroke-linecap:round;stroke-linejoin:round;stroke-miterlimit:10;stroke-dasharray:none;stroke-opacity:1"
               id="path194" />
          </g>
        </g>
        <g
           id="g196"
           transform="matrix(1,0,0,-1,0,792)">
          <g
             id="g198">
            <path
               d="m 264.89844,335.54611 c 4.09786,-4.76896 4.29083,4.50138 6.01304,7.41679 1.92419,-3.8334 4.94267,-19.75835 7.86093,-8.94417 2.6136,3.52639 2.07376,3.85793 0.15246,4.18011 -0.31183,-1.56367 2.2339,-0.47063 2.07948,-1.57376"
               style="fill:none;stroke:#000000;stroke-width:1.30769;stroke-linecap:round;stroke-linejoin:round;stroke-miterlimit:10;stroke-dasharray:none;stroke-opacity:1"
               id="path200" />
          </g>
        </g>
        <g
           id="g202"
           transform="matrix(1,0,0,-1,0,792)">
          <g
             id="g204">
            <path
               d="m 287.47394,334.95767 c 5.84744,-2.6207 0.58116,-1.41707 1.87393,-6.64617 1.40047,-0.63931 -1.32929,-3.93396 -1.54007,-4.05633"
               style="fill:none;stroke:#000000;stroke-width:1.30769;stroke-linecap:round;stroke-linejoin:round;stroke-miterlimit:10;stroke-dasharray:none;stroke-opacity:1"
               id="path206" />
          </g>
        </g>
        <g
           id="g208"
           transform="matrix(1,0,0,-1,0,792)">
          <g
             id="g210">
            <path
               d="m 285.68848,324.58829 c 1.44823,0.91545 7.41331,-3.57992 0.94117,-0.2293"
               style="fill:none;stroke:#000000;stroke-width:1.30769;stroke-linecap:round;stroke-linejoin:round;stroke-miterlimit:10;stroke-dasharray:none;stroke-opacity:1"
               id="path212" />
          </g>
        </g>
        <g
           id="g214"
           transform="matrix(1,0,0,-1,0,792)">
          <g
             id="g216">
            <path
               d="m 296.91464,329.52139 c 1.39391,1.04271 -7.26426,-4.27051 -6.11972,-3.37581"
               style="fill:none;stroke:#000000;stroke-width:1.30769;stroke-linecap:round;stroke-linejoin:round;stroke-miterlimit:10;stroke-dasharray:none;stroke-opacity:1"
               id="path218" />
          </g>
        </g>
        <g
           id="g220"
           transform="matrix(1,0,0,-1,0,792)">
          <g
             id="g222">
            <path
               d="m 296.94592,330.44653 c 5.47354,-2.85123 -4.96853,1.39789 -0.34278,-0.47223"
               style="fill:none;stroke:#000000;stroke-width:1.30769;stroke-linecap:round;stroke-linejoin:round;stroke-miterlimit:10;stroke-dasharray:none;stroke-opacity:1"
               id="path224" />
          </g>
        </g>
        <g
           id="g226"
           transform="matrix(1,0,0,-1,0,792)">
          <g
             id="g228">
            <path
               d="m 424.07654,284.41309 c 13.82634,-1.73289 2.5033,-18.09837 -7.09145,-11.22368 -6.70852,4.55101 2.3236,16.46669 8.78035,10.66099"
               style="fill:none;stroke:#000000;stroke-width:1.30769;stroke-linecap:round;stroke-linejoin:round;stroke-miterlimit:10;stroke-dasharray:none;stroke-opacity:1"
               id="path230" />
          </g>
        </g>
        <g
           id="g232"
           transform="matrix(1,0,0,-1,0,792)">
          <g
             id="g234">
            <path
               d="m 367.55666,206.32753 c 9.01929,-5.22449 -2.20297,-21.38452 -12.44025,-10.38304 -4.01692,6.20108 7.04377,15.04584 12.44025,10.38304"
               style="fill:none;stroke:#000000;stroke-width:1.30769;stroke-linecap:round;stroke-linejoin:round;stroke-miterlimit:10;stroke-dasharray:none;stroke-opacity:1"
               id="path236"
               sodipodi:nodetypes="ccc" />
          </g>
        </g>
        <g
           id="g238"
           transform="matrix(1,0,0,-1,0,792)">
          <g
             id="g240">
            <path
               d="m 352.87319,186.77481 c 9.0837,-5.39288 0.57654,-21.72464 -10.28588,-12.12105 -8.67812,5.47917 3.98956,18.47528 10.28588,12.12105"
               style="fill:none;stroke:#000000;stroke-width:1.30769;stroke-linecap:round;stroke-linejoin:round;stroke-miterlimit:10;stroke-dasharray:none;stroke-opacity:1"
               id="path242"
               sodipodi:nodetypes="ccc" />
          </g>
        </g>
        <g
           id="g244"
           transform="matrix(1,0,0,-1,0,792)">
          <g
             id="g246">
            <path
               d="m 337.33427,167.28832 c 15.57168,-3.7934 -6.4703,-21.8993 -11.56257,-9.4119 -3.27503,6.45973 4.75602,9.89489 11.56257,9.4119"
               style="fill:none;stroke:#000000;stroke-width:1.30769;stroke-linecap:round;stroke-linejoin:round;stroke-miterlimit:10;stroke-dasharray:none;stroke-opacity:1"
               id="path248"
               sodipodi:nodetypes="ccc" />
          </g>
        </g>
        <g
           id="g250"
           transform="matrix(1,0,0,-1,0,792)">
          <g
             id="g252">
            <path
               d="m 308.73304,133.97363 c -0.55283,5.79292 3.45492,20.0901 14.04765,13.44705 10.68831,-6.59042 -1.21205,-17.95832 -9.25955,-18.34861 -5.78573,-6.01359 3.33433,-15.77488 -8.93408,-18.82933 -15.46193,-5.21263 -15.9458,17.115 -0.88224,16.86095 6.8141,3.77905 4.2791,9.54047 6.58389,13.24246"
               style="fill:none;stroke:#000000;stroke-width:1.30769;stroke-linecap:round;stroke-linejoin:round;stroke-miterlimit:10;stroke-dasharray:none;stroke-opacity:1"
               id="path254"
               sodipodi:nodetypes="cccccc" />
          </g>
        </g>
        <g
           id="g256"
           transform="matrix(1,0,0,-1,0,792)">
          <g
             id="g258">
            <path
               d="m 476.27847,244.86012 c -6.06686,0.80159 -1.82476,-11.85899 1.1283,-3.03396 0.38366,1.00938 -0.37861,3.79949 -1.1283,3.03396"
               style="fill:none;stroke:#000000;stroke-width:1.30769;stroke-linecap:round;stroke-linejoin:round;stroke-miterlimit:10;stroke-dasharray:none;stroke-opacity:1"
               id="path260"
               sodipodi:nodetypes="ccc" />
          </g>
        </g>
        <g
           id="g262"
           transform="matrix(1,0,0,-1,0,792)">
          <g
             id="g264">
            <path
               d="m 446.71252,199.8714 c 1.25956,0.60761 1.84309,9.50268 -1.27415,5.85664"
               style="fill:none;stroke:#000000;stroke-width:1.30769;stroke-linecap:round;stroke-linejoin:round;stroke-miterlimit:10;stroke-dasharray:none;stroke-opacity:1"
               id="path266" />
          </g>
        </g>
        <g
           id="g268"
           transform="matrix(1,0,0,-1,0,792)">
          <g
             id="g270">
            <path
               d="m 442.20456,202.51807 c 9.51517,-1.98557 -4.70908,-12.21294 -6.59003,-17.82068 -2.26803,-3.65581 -9.52672,-12.77504 -8.85098,-3.92236 6.56192,6.40214 11.39505,17.33011 18.87829,21.10105 2.53052,-1.28733 -0.22573,-2.2213 0.15777,-3.22285"
               style="fill:none;stroke:#000000;stroke-width:1.30769;stroke-linecap:round;stroke-linejoin:round;stroke-miterlimit:10;stroke-dasharray:none;stroke-opacity:1"
               id="path272" />
          </g>
        </g>
        <g
           id="g274"
           transform="matrix(1,0,0,-1,0,792)">
          <g
             id="g276">
            <path
               d="m 438.29968,194.93994 c 0.10017,-0.81711 0.60296,-2.93671 0.75418,-3.1794"
               style="fill:none;stroke:#000000;stroke-width:1.30769;stroke-linecap:round;stroke-linejoin:round;stroke-miterlimit:10;stroke-dasharray:none;stroke-opacity:1"
               id="path278" />
          </g>
        </g>
        <g
           id="g280"
           transform="matrix(1,0,0,-1,0,792)">
          <g
             id="g282">
            <path
               d="m 433.66959,188.88628 c -0.17897,0.46125 0.0682,-2.46341 0.68894,-3.04166"
               style="fill:none;stroke:#000000;stroke-width:1.30769;stroke-linecap:round;stroke-linejoin:round;stroke-miterlimit:10;stroke-dasharray:none;stroke-opacity:1"
               id="path284" />
          </g>
        </g>
        <g
           id="g286"
           transform="matrix(1,0,0,-1,0,792)">
          <g
             id="g288">
            <path
               d="m 430.63589,184.68425 c -1.04019,2.27864 0.60985,-3.09804 1.60355,-3.11668"
               style="fill:none;stroke:#000000;stroke-width:1.30769;stroke-linecap:round;stroke-linejoin:round;stroke-miterlimit:10;stroke-dasharray:none;stroke-opacity:1"
               id="path290" />
          </g>
        </g>
        <g
           id="g292"
           transform="matrix(1,0,0,-1,0,792)">
          <g
             id="g294">
            <path
               d="m 344.63876,89.383736 c 0.44098,-16.767297 0.85426,-33.219779 2.48207,-49.202818"
               style="fill:none;stroke:#000000;stroke-width:1.30769;stroke-linecap:round;stroke-linejoin:round;stroke-miterlimit:10;stroke-dasharray:none;stroke-opacity:1"
               id="path296"
               sodipodi:nodetypes="cc" />
          </g>
        </g>
        <g
           id="g298"
           transform="matrix(1,0,0,-1,0,792)">
          <g
             id="g300">
            <path
               d="m 359.93724,89.584939 c -6.36216,-0.462071 -1.53871,-14.527499 1.46729,-5.559681 1.21926,1.636976 0.12573,4.992472 -1.46729,5.559681"
               style="fill:none;stroke:#000000;stroke-width:1.30769;stroke-linecap:round;stroke-linejoin:round;stroke-miterlimit:10;stroke-dasharray:none;stroke-opacity:1"
               id="path302"
               sodipodi:nodetypes="ccc" />
          </g>
        </g>
        <g
           id="g304"
           transform="matrix(1,0,0,-1,0,792)">
          <g
             id="g306">
            <path
               d="m 327.41977,57.312469 c -8.82735,-10.361282 14.09216,-6.754709 0.52166,0.549282"
               style="fill:none;stroke:#000000;stroke-width:1.30769;stroke-linecap:round;stroke-linejoin:round;stroke-miterlimit:10;stroke-dasharray:none;stroke-opacity:1"
               id="path308" />
          </g>
        </g>
        <g
           id="g310"
           transform="matrix(1,0,0,-1,0,792)">
          <g
             id="g312">
            <path
               d="m 99.970619,163.22006 c -6.127848,-1.61419 10.750771,-6.65822 3.067661,-0.34643 -1.1771,2.16936 -5.58513,1.22689 -4.701174,0.33019"
               style="fill:none;stroke:#000000;stroke-width:1.30769;stroke-linecap:round;stroke-linejoin:round;stroke-miterlimit:10;stroke-dasharray:none;stroke-opacity:1"
               id="path314" />
          </g>
        </g>
        <g
           id="g316"
           transform="matrix(1,0,0,-1,0,792)">
          <g
             id="g318">
            <path
               d="m 89.225258,174.49786 c 13.695022,-5.77186 30.290352,-12.88844 42.992242,-22.33748 30.54834,-16.51061 60.79032,-31.10317 93.88363,-43.70765 33.84219,-16.868602 68.14281,-34.75216 102.45957,-49.639297 4.40335,0.628036 14.67784,-3.627641 17.31909,-0.297837"
               style="fill:none;stroke:#000000;stroke-width:1.30769;stroke-linecap:round;stroke-linejoin:round;stroke-miterlimit:10;stroke-dasharray:none;stroke-opacity:1"
               id="path320"
               sodipodi:nodetypes="ccccc" />
          </g>
        </g>
        <g
           id="g322"
           transform="matrix(1,0,0,-1,0,792)">
          <g
             id="g324">
            <path
               d="M 485.66132,248.93497 C 465.07249,221.08116 449.49018,189.91004 426.19823,163.78938 402.23719,130.91804 375.8419,98.913007 352.39905,66.690834 c 0,0 -6.24154,-11.126305 -14.26382,-9.177816"
               style="fill:none;stroke:#000000;stroke-width:1.30769;stroke-linecap:round;stroke-linejoin:round;stroke-miterlimit:10;stroke-dasharray:none;stroke-opacity:1"
               id="path326"
               sodipodi:nodetypes="cccc" />
          </g>
        </g>
        <g
           id="g328"
           transform="matrix(1,0,0,-1,0,792)">
          <g
             id="g330">
            <path
               d="m 132.68376,222.69859 c -4.39641,1.99091 6.16432,9.39781 6.1431,2.79707 -5.73207,-8.49771 10.52188,6.37225 9.99799,-2.45205 -2.63233,-6.42085 7.39429,-8.5513 8.76406,-1.74497 12.57737,5.79698 11.86699,-14.18562 -1.02971,-8.09566 -4.21444,-3.49537 -9.51492,-6.8949 -13.2693,-1.62382 2.39814,4.44414 -1.13774,9.53952 -4.35446,4.58483 -3.85691,-3.38028 -7.94554,0.79934 -4.85987,4.23048 0.28409,1.42124 -2.05951,3.65138 -2.2033,3.30806"
               style="fill:none;stroke:#000000;stroke-width:1.30769;stroke-linecap:round;stroke-linejoin:round;stroke-miterlimit:10;stroke-dasharray:none;stroke-opacity:1"
               id="path332" />
          </g>
        </g>
        <g
           id="g334"
           transform="matrix(1,0,0,-1,0,792)">
          <g
             id="g336">
            <path
               d="m 160.25249,209.93837 c -4.66141,-0.71304 -2.96129,-9.54004 3.84793,-8.01096 9.49263,2.12736 1.14448,11.92592 -5.80821,7.12715"
               style="fill:none;stroke:#000000;stroke-width:1.30769;stroke-linecap:round;stroke-linejoin:round;stroke-miterlimit:10;stroke-dasharray:none;stroke-opacity:1"
               id="path338" />
          </g>
        </g>
        <g
           id="g340"
           transform="matrix(1,0,0,-1,0,792)">
          <g
             id="g342">
            <path
               d="m 175.59528,203.36388 c -0.5082,-3.60572 2.02139,-13.35105 6.8193,-4.89432 1.42223,3.21334 -4.97208,-7.09863 1.31442,-5.99487 4.74509,3.46037 14.81177,3.70579 11.97378,-3.86357 1.22327,-1.37884 -4.37208,1.86835 -5.30515,1.56067"
               style="fill:none;stroke:#000000;stroke-width:1.30769;stroke-linecap:round;stroke-linejoin:round;stroke-miterlimit:10;stroke-dasharray:none;stroke-opacity:1"
               id="path344" />
          </g>
        </g>
        <g
           id="g346"
           transform="matrix(1,0,0,-1,0,792)">
          <g
             id="g348">
            <path
               d="m 202.10478,190.65573 c -2.95957,-4.38658 -5.82863,-3.67786 1.02205,-7.97159"
               style="fill:none;stroke:#000000;stroke-width:1.30769;stroke-linecap:round;stroke-linejoin:round;stroke-miterlimit:10;stroke-dasharray:none;stroke-opacity:1"
               id="path350" />
          </g>
        </g>
        <g
           id="g352"
           transform="matrix(1,0,0,-1,0,792)">
          <g
             id="g354">
            <path
               d="m 213.38068,186.98463 c -0.38624,-0.34143 -5.03805,-8.17242 -5.59168,-5.9902"
               style="fill:none;stroke:#000000;stroke-width:1.30769;stroke-linecap:round;stroke-linejoin:round;stroke-miterlimit:10;stroke-dasharray:none;stroke-opacity:1"
               id="path356" />
          </g>
        </g>
        <g
           id="g358"
           transform="matrix(1,0,0,-1,0,792)">
          <g
             id="g360">
            <path
               d="m 221.68433,182.49327 c -1.80029,-2.79196 -7.75248,-1.00605 -11.26807,-0.9433"
               style="fill:none;stroke:#000000;stroke-width:1.30769;stroke-linecap:round;stroke-linejoin:round;stroke-miterlimit:10;stroke-dasharray:none;stroke-opacity:1"
               id="path362" />
          </g>
        </g>
        <g
           id="g364"
           transform="matrix(1,0,0,-1,0,792)">
          <g
             id="g366">
            <path
               d="m 211.75835,181.21324 c 7.17139,1.15938 4.9627,-10.14879 11.68457,-3.51802 8.44589,5.90077 7.31694,-2.27026 3.784,-6.50437 -0.38999,3.59705 12.21189,7.92668 8.72075,-0.0745 0.62358,-6.48049 19.28222,4.28327 14.38394,-6.85556 1.3183,-3.8488 -3.00644,-1.24468 -5.77925,-0.63445"
               style="fill:none;stroke:#000000;stroke-width:1.30769;stroke-linecap:round;stroke-linejoin:round;stroke-miterlimit:10;stroke-dasharray:none;stroke-opacity:1"
               id="path368" />
          </g>
        </g>
        <g
           id="g370"
           transform="matrix(1,0,0,-1,0,792)">
          <g
             id="g372">
            <path
               d="m 251.85551,161.18536 c 3.72955,1.0186 14.55843,5.23456 12.15544,-3.93208 -0.18401,-0.5889 0.73622,-4.22569 0.023,-3.20666"
               style="fill:none;stroke:#000000;stroke-width:1.30769;stroke-linecap:round;stroke-linejoin:round;stroke-miterlimit:10;stroke-dasharray:none;stroke-opacity:1"
               id="path374" />
          </g>
        </g>
        <g
           id="g376"
           transform="matrix(1,0,0,-1,0,792)">
          <g
             id="g378">
            <path
               d="m 250.52403,161.09872 c -1.93711,-0.81445 1.41485,0.32162 -1.65121,0.70919"
               style="fill:none;stroke:#000000;stroke-width:1.30769;stroke-linecap:round;stroke-linejoin:round;stroke-miterlimit:10;stroke-dasharray:none;stroke-opacity:1"
               id="path380" />
          </g>
        </g>
        <g
           id="g382"
           transform="matrix(1,0,0,-1,0,792)">
          <g
             id="g384">
            <path
               d="m 119.97375,203.89748 c 2.36935,-0.0735 5.98537,-2.4616 8.66142,-3.47831"
               style="fill:none;stroke:#000000;stroke-width:1.30769;stroke-linecap:round;stroke-linejoin:round;stroke-miterlimit:10;stroke-dasharray:none;stroke-opacity:1"
               id="path386" />
          </g>
        </g>
        <g
           id="g388"
           transform="matrix(1,0,0,-1,0,792)">
          <g
             id="g390">
            <path
               d="m 134.34822,197.1076 c 1.57164,-1.00602 4.93495,-1.4681 5.45482,-2.6961"
               style="fill:none;stroke:#000000;stroke-width:1.30769;stroke-linecap:round;stroke-linejoin:round;stroke-miterlimit:10;stroke-dasharray:none;stroke-opacity:1"
               id="path392" />
          </g>
        </g>
        <g
           id="g394"
           transform="matrix(1,0,0,-1,0,792)">
          <g
             id="g396">
            <path
               d="m 147.66164,191.08163 c 10.95843,-3.14688 20.53473,-9.49925 30.94291,-13.58316"
               style="fill:none;stroke:#000000;stroke-width:1.30769;stroke-linecap:round;stroke-linejoin:round;stroke-miterlimit:10;stroke-dasharray:none;stroke-opacity:1"
               id="path398" />
          </g>
        </g>
        <g
           id="g400"
           transform="matrix(1,0,0,-1,0,792)">
          <g
             id="g402">
            <path
               d="m 181.14301,175.131 c -1.24288,-0.37292 2.72284,-1.00187 2.69464,-1.3398"
               style="fill:none;stroke:#000000;stroke-width:1.30769;stroke-linecap:round;stroke-linejoin:round;stroke-miterlimit:10;stroke-dasharray:none;stroke-opacity:1"
               id="path404" />
          </g>
        </g>
        <g
           id="g406"
           transform="matrix(1,0,0,-1,0,792)">
          <g
             id="g408">
            <path
               d="m 192.08806,168.83977 c 1.47354,-1.30064 7.83278,-3.04455 10.63689,-4.61579"
               style="fill:none;stroke:#000000;stroke-width:1.30769;stroke-linecap:round;stroke-linejoin:round;stroke-miterlimit:10;stroke-dasharray:none;stroke-opacity:1"
               id="path410" />
          </g>
        </g>
        <g
           id="g412"
           transform="matrix(1,0,0,-1,0,792)">
          <g
             id="g414">
            <path
               d="m 209.9796,161.53851 c 4.42827,-2.96968 14.72186,-5.12025 17.44968,-7.75367"
               style="fill:none;stroke:#000000;stroke-width:1.30769;stroke-linecap:round;stroke-linejoin:round;stroke-miterlimit:10;stroke-dasharray:none;stroke-opacity:1"
               id="path416" />
          </g>
        </g>
        <g
           id="g418"
           transform="matrix(1,0,0,-1,0,792)">
          <g
             id="g420">
            <path
               d="m 238.26634,153.30881 c 5.66392,-1.77621 15.78752,-6.55681 18.53133,-8.00183"
               style="fill:none;stroke:#000000;stroke-width:1.30769;stroke-linecap:round;stroke-linejoin:round;stroke-miterlimit:10;stroke-dasharray:none;stroke-opacity:1"
               id="path422" />
          </g>
        </g>
        <g
           id="g424"
           transform="matrix(1,0,0,-1,0,792)">
          <g
             id="g426">
            <path
               d="m 235.21141,147.46933 c 5.55245,-2.95342 15.15779,-3.8395 19.79932,-8.48145"
               style="fill:none;stroke:#000000;stroke-width:1.30769;stroke-linecap:round;stroke-linejoin:round;stroke-miterlimit:10;stroke-dasharray:none;stroke-opacity:1"
               id="path428" />
          </g>
        </g>
        <g
           id="g430"
           transform="matrix(1,0,0,-1,0,792)">
          <g
             id="g432">
            <path
               d="m 400.02639,255.60296 c 4.83864,-2.4424 10.77426,-7.51111 5.25056,-14.59866 -7.21547,-14.14808 -31.34674,-8.36299 -28.37177,5.70938 2.06295,9.7199 14.94014,13.29849 23.12121,8.88928"
               style="fill:none;stroke:#000000;stroke-width:1.30769;stroke-linecap:round;stroke-linejoin:round;stroke-miterlimit:10;stroke-dasharray:none;stroke-opacity:1"
               id="path434"
               sodipodi:nodetypes="cccc" />
          </g>
        </g>
        <g
           id="g436"
           transform="matrix(1,0,0,-1,0,792)">
          <g
             id="g438">
            <path
               d="m 356.80414,258.67584 c -6.36599,5.35888 -4.8651,-4.35912 -2.52503,-3.35559"
               style="fill:none;stroke:#000000;stroke-width:1.30769;stroke-linecap:round;stroke-linejoin:round;stroke-miterlimit:10;stroke-dasharray:none;stroke-opacity:1"
               id="path440" />
          </g>
        </g>
        <g
           id="g442"
           transform="matrix(1,0,0,-1,0,792)">
          <g
             id="g444">
            <path
               d="m 352.54526,258.138 c -1.66514,0.17177 8.09204,-3.95952 7.203,-3.27696"
               style="fill:none;stroke:#000000;stroke-width:1.30769;stroke-linecap:round;stroke-linejoin:round;stroke-miterlimit:10;stroke-dasharray:none;stroke-opacity:1"
               id="path446" />
          </g>
        </g>
        <g
           id="g448"
           transform="matrix(1,0,0,-1,0,792)">
          <g
             id="g450">
            <path
               d="m 431.61548,224.03976 c 5.04496,-1.98244 3.5712,-6.17672 -1.53549,-2.97045"
               style="fill:none;stroke:#000000;stroke-width:1.30769;stroke-linecap:round;stroke-linejoin:round;stroke-miterlimit:10;stroke-dasharray:none;stroke-opacity:1"
               id="path452" />
          </g>
        </g>
        <g
           id="g454"
           transform="matrix(1,0,0,-1,0,792)">
          <g
             id="g456">
            <path
               d="m 432.79196,221.23203 c -0.7338,0.76065 -7.08712,2.7176 -5.77481,3.476"
               style="fill:none;stroke:#000000;stroke-width:1.30769;stroke-linecap:round;stroke-linejoin:round;stroke-miterlimit:10;stroke-dasharray:none;stroke-opacity:1"
               id="path458" />
          </g>
        </g>
      </g>
    </g>
  </g>
</svg>
