<?xml version="1.0" encoding="UTF-8" standalone="no"?>
<!-- Created by Ashley Blewer - This work is licensed under a Creative Commons Attribution 4.0 International License -->

<svg
   width="544"
   height="480"
   viewBox="0 0 143.93334 127"
   version="1.1"
   id="svg2490"
   inkscape:version="1.2.2 (1:1.2.2+202212051552+b0a8486541)"
   sodipodi:docname="1992-minidisc.svg"
   xmlns:inkscape="http://www.inkscape.org/namespaces/inkscape"
   xmlns:sodipodi="http://sodipodi.sourceforge.net/DTD/sodipodi-0.dtd"
   xmlns="http://www.w3.org/2000/svg"
   xmlns:svg="http://www.w3.org/2000/svg">
  <sodipodi:namedview
     id="namedview2492"
     pagecolor="#ffffff"
     bordercolor="#666666"
     borderopacity="1.0"
     inkscape:pageshadow="2"
     inkscape:pageopacity="0.0"
     inkscape:pagecheckerboard="0"
     inkscape:document-units="mm"
     showgrid="false"
     units="px"
     inkscape:zoom="0.90583674"
     inkscape:cx="53.541657"
     inkscape:cy="253.35691"
     inkscape:window-width="1846"
     inkscape:window-height="1136"
     inkscape:window-x="0"
     inkscape:window-y="0"
     inkscape:window-maximized="1"
     inkscape:current-layer="g4731"
     inkscape:showpageshadow="2"
     inkscape:deskcolor="#d1d1d1" />
  <defs
     id="defs2487" />
  <g
     inkscape:label="Layer 1"
     inkscape:groupmode="layer"
     id="layer1">
    <g
       id="g4731"
       transform="matrix(0.32961229,0,0,0.32903008,-241.78905,1.73126)"
       style="stroke-width:2.68698">
      <g
         id="g104528"
         transform="matrix(1,0,0,-1,0,792)"
         style="stroke-width:2.68698">
        <g
           id="g104530"
           style="stroke-width:2.68698" />
      </g>
      <g
         id="g104996"
         transform="matrix(1,0,0,-1,0,792)"
         style="stroke-width:2.68698">
        <g
           id="g104998"
           style="stroke-width:2.68698" />
      </g>
      <g
         id="g3186"
         transform="matrix(0.98885577,0,0,0.99060549,13.443174,-57.96044)">
        <g
           id="g1456"
           transform="matrix(1,0,0,-1,0,792)">
          <g
             id="g1458">
            <path
               d="m 823.32141,508.84888 c -6.41762,2.69934 -2.81059,13.44306 -5.51648,19.2737 -1.63129,32.24298 -4.32627,67.97684 -5.53098,99.84957 -0.27671,1.66899 -3.53723,16.68019 -2.75643,24.80464 0.0875,12.52667 -4.17271,28.95352 -1.29271,37.10466 l 0.22882,0.59674 1.08655,0.83716"
               style="fill:none;stroke:#000000;stroke-width:2.61538;stroke-linecap:round;stroke-linejoin:round;stroke-miterlimit:10;stroke-dasharray:none;stroke-opacity:1"
               id="path1460" />
          </g>
        </g>
        <g
           id="g1462"
           transform="matrix(1,0,0,-1,0,792)">
          <g
             id="g1464">
            <path
               d="m 808.22481,689.88145 c 0.11441,0.29837 10.42245,9.12372 17.63124,8.18005 34.13909,2.33127 69.31681,8.14431 104.497,9.50736 25.13932,2.41107 52.53401,4.63217 76.63925,4.10015"
               style="fill:none;stroke:#000000;stroke-width:2.61538;stroke-linecap:round;stroke-linejoin:round;stroke-miterlimit:10;stroke-dasharray:none;stroke-opacity:1"
               id="path1466"
               sodipodi:nodetypes="cccc" />
          </g>
        </g>
        <g
           id="g1468"
           transform="matrix(1,0,0,-1,0,792)">
          <g
             id="g1470">
            <path
               d="m 1006.6248,710.51715 c 7.0304,-0.008 6.2563,-8.95677 6.8349,-8.20548 -4.9746,-56.23319 -8.8896,-163.87576 -8.8896,-163.87576"
               style="fill:none;stroke:#000000;stroke-width:2.61538;stroke-linecap:round;stroke-linejoin:round;stroke-miterlimit:10;stroke-dasharray:none;stroke-opacity:1"
               id="path1472"
               sodipodi:nodetypes="ccc" />
          </g>
        </g>
        <g
           id="g1474"
           transform="matrix(1,0,0,-1,0,792)">
          <g
             id="g1476">
            <path
               d="m 823.32141,508.84888 c 40.70259,1.04087 77.74807,10.46159 118.17096,15.16432 20.81257,4.82892 43.55425,8.05353 63.21803,13.66123"
               style="fill:none;stroke:#000000;stroke-width:2.61538;stroke-linecap:round;stroke-linejoin:round;stroke-miterlimit:10;stroke-dasharray:none;stroke-opacity:1"
               id="path1478"
               sodipodi:nodetypes="ccc" />
          </g>
        </g>
        <g
           id="g1480"
           transform="matrix(1,0,0,-1,0,792)">
          <g
             id="g1482">
            <path
               d="m 811.76764,609.5802 c -2.49168,14.69234 -2.42867,31.55312 -6.1352,46.73792 -0.0893,15.67811 -5.06052,35.78548 6.55614,42.06097 17.02498,6.04878 38.50607,4.04411 57.42506,7.99499 36.04199,4.52206 73.07743,4.50024 109.19441,10.0791 11.84676,1.3963 28.64195,4.6714 33.10975,-8.45639 1.1713,-3.02269 2.0075,-6.50217 0.9118,-9.60626"
               style="fill:none;stroke:#000000;stroke-width:2.61538;stroke-linecap:round;stroke-linejoin:round;stroke-miterlimit:10;stroke-dasharray:none;stroke-opacity:1"
               id="path1484" />
          </g>
        </g>
        <g
           id="g1486"
           transform="matrix(1,0,0,-1,0,792)">
          <g
             id="g1488">
            <path
               d="m 1006.1309,597.0108 c -22.42177,-3.96138 -46.88437,-8.33444 -67.9514,-9.66687 -5.45341,3.7007 -3.01333,17.06943 -3.93455,25.8819 0.34445,12.86969 -1.07624,28.79265 17.57652,27.52729 18.73042,0.067 41.17979,3.13315 56.66363,5.32536"
               style="fill:none;stroke:#000000;stroke-width:2.61538;stroke-linecap:round;stroke-linejoin:round;stroke-miterlimit:10;stroke-dasharray:none;stroke-opacity:1"
               id="path1490" />
          </g>
        </g>
        <g
           id="g1492"
           transform="matrix(1,0,0,-1,0,792)">
          <g
             id="g1494">
            <path
               d="m 914.31604,628.02332 c 9.24103,-1.56673 14.14981,-12.69189 10.85685,-21.05648 -1.7207,-5.14759 -6.05905,-8.78073 -10.04179,-12.15136 -9.1477,-5.72023 -23.67834,-0.27539 -25.09979,10.90358 -0.66918,5.5599 0.59605,11.5496 4.79604,15.525 4.78732,4.76041 11.77344,8.43903 18.66107,7.185 0.90288,-0.0492 -0.36874,0.75186 0,0"
               style="fill:none;stroke:#000000;stroke-width:2.61538;stroke-linecap:round;stroke-linejoin:round;stroke-miterlimit:10;stroke-dasharray:none;stroke-opacity:1"
               id="path1496"
               sodipodi:nodetypes="ccccccc" />
          </g>
        </g>
        <g
           id="g1498"
           transform="matrix(1,0,0,-1,0,792)">
          <g
             id="g1500">
            <path
               d="m 931.6496,623.37079 c -3.35226,11.73117 -23.59981,16.36492 -34.00366,7.93721 -16.29904,-7.75128 -21.97998,-34.69559 -2.20208,-44.0672 16.06351,-3.04912 34.1704,10.10686 37.44555,22.71161"
               style="fill:none;stroke:#000000;stroke-width:2.61538;stroke-linecap:round;stroke-linejoin:round;stroke-miterlimit:10;stroke-dasharray:none;stroke-opacity:1"
               id="path1502" />
          </g>
        </g>
        <g
           id="g1504"
           transform="matrix(1,0,0,-1,0,792)">
          <g
             id="g1506">
            <path
               d="m 935.83804,631.32542 c -5.74961,20.15386 -38.92561,17.13863 -48.75469,1.97635 -10.38031,-11.56931 -19.31007,-30.98825 -6.64212,-44.20526 12.05054,-21.36483 44.48741,-10.17918 53.89339,5.36047"
               style="fill:none;stroke:#000000;stroke-width:2.61538;stroke-linecap:round;stroke-linejoin:round;stroke-miterlimit:10;stroke-dasharray:none;stroke-opacity:1"
               id="path1508"
               sodipodi:nodetypes="cccc" />
          </g>
        </g>
        <g
           id="g1510"
           transform="matrix(1,0,0,-1,0,792)">
          <g
             id="g1512">
            <path
               d="m 998.39984,645.62653 c -4.20739,9.50261 -13.03016,24.40996 -22.32112,32.68485 -17.87162,10.88318 -40.46681,22.26986 -59.13434,19.61793 -1.8852,-0.67079 -17.97732,-0.68982 -24.60272,-4.02399 -15.00407,-2.97422 -30.64184,-9.36909 -40.09271,-21.98083 -13.34722,-13.48839 -25.30236,-31.51627 -31.3293,-46.73524 1.42192,-0.077 -1.59323,-0.2073 1.63629,-2.31299"
               style="fill:none;stroke:#000000;stroke-width:2.61538;stroke-linecap:round;stroke-linejoin:round;stroke-miterlimit:10;stroke-dasharray:none;stroke-opacity:1"
               id="path1514" />
          </g>
        </g>
        <g
           id="g1516"
           transform="matrix(1,0,0,-1,0,792)">
          <g
             id="g1518">
            <path
               d="m 822.93958,569.40601 c 2.57145,-5.13792 11.55368,-16.62319 17.11005,-18.12521"
               style="fill:none;stroke:#000000;stroke-width:2.61538;stroke-linecap:round;stroke-linejoin:round;stroke-miterlimit:10;stroke-dasharray:none;stroke-opacity:1"
               id="path1520"
               sodipodi:nodetypes="cc" />
          </g>
        </g>
        <g
           id="g1522"
           transform="matrix(1,0,0,-1,0,792)">
          <g
             id="g1524">
            <path
               d="m 856.33173,537.34259 c 16.29147,-5.61328 36.6301,-7.11334 51.37054,-6.04412"
               style="fill:none;stroke:#000000;stroke-width:2.61538;stroke-linecap:round;stroke-linejoin:round;stroke-miterlimit:10;stroke-dasharray:none;stroke-opacity:1"
               id="path1526" />
          </g>
        </g>
        <g
           id="g1528"
           transform="matrix(1,0,0,-1,0,792)">
          <g
             id="g1530">
            <path
               d="m 924.242,536.00348 c 23.36386,5.15466 45.6085,19.98769 53.97778,42.31509 1.2287,6.34698 3.0081,10.8744 2.87586,13.57685"
               style="fill:none;stroke:#000000;stroke-width:2.61538;stroke-linecap:round;stroke-linejoin:round;stroke-miterlimit:10;stroke-dasharray:none;stroke-opacity:1"
               id="path1532" />
          </g>
        </g>
        <g
           id="g1534"
           transform="matrix(1,0,0,-1,0,792)">
          <g
             id="g1536">
            <path
               d="m 907.98053,523.72308 c -0.38592,4.16397 -2.88847,16.09223 8.37729,14.04372 9.69275,2.71435 7.41377,-10.22525 6.92967,-12.88955"
               style="fill:none;stroke:#000000;stroke-width:2.61538;stroke-linecap:round;stroke-linejoin:round;stroke-miterlimit:10;stroke-dasharray:none;stroke-opacity:1"
               id="path1538" />
          </g>
        </g>
        <g
           id="g1540"
           transform="matrix(1,0,0,-1,0,792)">
          <g
             id="g1542">
            <path
               d="m 829.41199,516.37097 c -11.64692,28.20467 -3.94769,59.44098 -9.32444,88.82524 -1.77028,27.10417 -5.82069,54.55795 -2.08985,81.61435"
               style="fill:none;stroke:#000000;stroke-width:1.30769;stroke-linecap:round;stroke-linejoin:round;stroke-miterlimit:10;stroke-dasharray:none;stroke-opacity:1"
               id="path1544" />
          </g>
        </g>
        <g
           id="g1546"
           transform="matrix(1,0,0,-1,0,792)">
          <g
             id="g1548">
            <path
               d="m 817.9977,686.81056 c 3.14915,10.51635 18.19719,6.77669 28.20547,7.43767 43.01355,1.74733 90.89527,5.57782 134.27044,9.58543 10.55643,-1.30493 27.64369,8.02989 26.41739,-8.05928 -0.1736,-16.81541 -0.8444,-35.8376 -1.5557,-51.17842"
               style="fill:none;stroke:#000000;stroke-width:1.30769;stroke-linecap:round;stroke-linejoin:round;stroke-miterlimit:10;stroke-dasharray:none;stroke-opacity:1"
               id="path1550"
               sodipodi:nodetypes="ccccc" />
          </g>
        </g>
        <g
           id="g1552"
           transform="matrix(1,0,0,-1,0,792)">
          <g
             id="g1554">
            <path
               d="m 974.85951,703.30572 c -2.4759,-3.45141 3.46527,-9.64046 6.79772,-4.11112 1.6449,2.03806 0.71527,4.67115 0.72278,4.80217"
               style="fill:none;stroke:#000000;stroke-width:1.30769;stroke-linecap:round;stroke-linejoin:round;stroke-miterlimit:10;stroke-dasharray:none;stroke-opacity:1"
               id="path1556"
               sodipodi:nodetypes="ccc" />
          </g>
        </g>
        <g
           id="g1558"
           transform="matrix(1,0,0,-1,0,792)">
          <g
             id="g1560">
            <path
               d="m 828.18341,516.45856 c 25.93216,2.10037 52.55203,8.79143 77.89154,9.63124"
               style="fill:none;stroke:#000000;stroke-width:1.30769;stroke-linecap:round;stroke-linejoin:round;stroke-miterlimit:10;stroke-dasharray:none;stroke-opacity:1"
               id="path1562" />
          </g>
        </g>
        <g
           id="g1564"
           transform="matrix(1,0,0,-1,0,792)">
          <g
             id="g1566">
            <path
               d="m 926.88184,533.28632 c 24.6334,5.24974 49.94674,7.738 74.83316,11.1062"
               style="fill:none;stroke:#000000;stroke-width:1.30769;stroke-linecap:round;stroke-linejoin:round;stroke-miterlimit:10;stroke-dasharray:none;stroke-opacity:1"
               id="path1568" />
          </g>
        </g>
        <g
           id="g1570"
           transform="matrix(1,0,0,-1,0,792)">
          <g
             id="g1572">
            <path
               d="m 819.04619,520.2067 c -4.87647,-0.8551 -14.23748,-5.62489 -18.15209,-7.52097"
               style="fill:none;stroke:#000000;stroke-width:2.61538;stroke-linecap:round;stroke-linejoin:round;stroke-miterlimit:10;stroke-dasharray:none;stroke-opacity:1"
               id="path1574"
               sodipodi:nodetypes="cc" />
          </g>
        </g>
        <g
           id="g1576"
           transform="matrix(1,0,0,-1,0,792)">
          <g
             id="g1578">
            <path
               d="m 800.8941,512.68573 c 0.3524,-3.19578 -0.26465,-11.75117 0.277,-15.58073"
               style="fill:none;stroke:#000000;stroke-width:2.61538;stroke-linecap:round;stroke-linejoin:round;stroke-miterlimit:10;stroke-dasharray:none;stroke-opacity:1"
               id="path1580" />
          </g>
        </g>
        <g
           id="g1582"
           transform="matrix(1,0,0,-1,0,792)">
          <g
             id="g1584">
            <path
               d="m 801.1711,497.105 c 13.69715,-12.92995 69.38615,-68.41387 104.59412,-100.04927"
               style="fill:none;stroke:#000000;stroke-width:2.61538;stroke-linecap:round;stroke-linejoin:round;stroke-miterlimit:10;stroke-dasharray:none;stroke-opacity:1"
               id="path1586"
               sodipodi:nodetypes="cc" />
          </g>
        </g>
        <g
           id="g1588"
           transform="matrix(1,0,0,-1,0,792)">
          <g
             id="g1590">
            <path
               d="m 906.1756,397.69421 c -0.91261,4.68826 -6.52516,13.63582 -6.09397,19.30028"
               style="fill:none;stroke:#000000;stroke-width:2.61538;stroke-linecap:round;stroke-linejoin:round;stroke-miterlimit:10;stroke-dasharray:none;stroke-opacity:1"
               id="path1592" />
          </g>
        </g>
        <g
           id="g1594"
           transform="matrix(1,0,0,-1,0,792)">
          <g
             id="g1596">
            <path
               d="m 800.8941,512.68573 c 28.4657,-27.74588 61.02312,-55.90799 88.14125,-84.45165 2.87407,-3.97794 10.76988,-10.90268 11.94865,-10.52639"
               style="fill:none;stroke:#000000;stroke-width:2.61538;stroke-linecap:round;stroke-linejoin:round;stroke-miterlimit:10;stroke-dasharray:none;stroke-opacity:1"
               id="path1598"
               sodipodi:nodetypes="ccc" />
          </g>
        </g>
        <g
           id="g1600"
           transform="matrix(1,0,0,-1,0,792)">
          <g
             id="g1602">
            <path
               d="m 1004.7003,549.13153 c 25.6988,-22.65973 57.4454,-38.67618 87.598,-55.05442 -0.925,-0.19183 1.935,-1.37336 1.6658,-1.99329"
               style="fill:none;stroke:#000000;stroke-width:2.61538;stroke-linecap:round;stroke-linejoin:round;stroke-miterlimit:10;stroke-dasharray:none;stroke-opacity:1"
               id="path1604"
               sodipodi:nodetypes="ccc" />
          </g>
        </g>
        <g
           id="g1606"
           transform="matrix(1,0,0,-1,0,792)">
          <g
             id="g1608">
            <path
               d="m 1093.8908,491.57367 c 2.7742,-5.07005 3.8615,-14.70105 3.4455,-19.02715"
               style="fill:none;stroke:#000000;stroke-width:2.61538;stroke-linecap:round;stroke-linejoin:round;stroke-miterlimit:10;stroke-dasharray:none;stroke-opacity:1"
               id="path1610" />
          </g>
        </g>
        <g
           id="g1612"
           transform="matrix(1,0,0,-1,0,792)">
          <g
             id="g1614">
            <path
               d="m 903.05859,417.87018 c 31.15821,9.57703 62.02522,27.76735 95.18608,36.98992 29.81393,13.17803 62.50883,19.28481 91.21093,35.36383 1.1048,0.60833 4.5471,1.13163 4.5085,1.85989"
               style="fill:none;stroke:#000000;stroke-width:2.61538;stroke-linecap:round;stroke-linejoin:round;stroke-miterlimit:10;stroke-dasharray:none;stroke-opacity:1"
               id="path1616" />
          </g>
        </g>
        <g
           id="g1618"
           transform="matrix(1,0,0,-1,0,792)">
          <g
             id="g1620">
            <path
               d="m 908.68732,396.35184 c 26.77054,10.88642 55.58545,26.01962 85.68332,35.67546 33.27986,12.77126 66.95336,27.67289 100.66716,37.19742 0.9468,0.61563 1.869,1.98702 2.8339,2.19999"
               style="fill:none;stroke:#000000;stroke-width:2.61538;stroke-linecap:round;stroke-linejoin:round;stroke-miterlimit:10;stroke-dasharray:none;stroke-opacity:1"
               id="path1622" />
          </g>
        </g>
        <g
           id="g1624"
           transform="matrix(1,0,0,-1,0,792)">
          <g
             id="g1626">
            <path
               d="m 1090.5453,467.92428 c 9.2699,-17.54137 17.9815,-41.5782 32.9138,-56.50396"
               style="fill:none;stroke:#000000;stroke-width:2.61538;stroke-linecap:round;stroke-linejoin:round;stroke-miterlimit:10;stroke-dasharray:none;stroke-opacity:1"
               id="path1628"
               sodipodi:nodetypes="cc" />
          </g>
        </g>
        <g
           id="g1630"
           transform="matrix(1,0,0,-1,0,792)">
          <g
             id="g1632">
            <path
               d="m 1047.5438,518.82403 c 6.9326,-2.03208 19.3108,6.26546 18.8282,-3.88792 1.5753,-2.65632 2.2186,-6.76546 4.2,-8.42581"
               style="fill:none;stroke:#000000;stroke-width:2.61538;stroke-linecap:round;stroke-linejoin:round;stroke-miterlimit:10;stroke-dasharray:none;stroke-opacity:1"
               id="path1634"
               sodipodi:nodetypes="ccc" />
          </g>
        </g>
        <g
           id="g1636"
           transform="matrix(1,0,0,-1,0,792)">
          <g
             id="g1638">
            <path
               d="m 1123.4591,411.42032 c 0.5279,-6.1246 0.6677,-15.79862 0.1079,-22.02194"
               style="fill:none;stroke:#000000;stroke-width:2.61538;stroke-linecap:round;stroke-linejoin:round;stroke-miterlimit:10;stroke-dasharray:none;stroke-opacity:1"
               id="path1640"
               sodipodi:nodetypes="cc" />
          </g>
        </g>
        <g
           id="g1642"
           transform="matrix(1,0,0,-1,0,792)">
          <g
             id="g1644">
            <path
               d="m 870.55725,428.69113 c 2.68464,-9.57956 6.10591,-26.71983 6.87762,-34.45568"
               style="fill:none;stroke:#000000;stroke-width:2.61538;stroke-linecap:round;stroke-linejoin:round;stroke-miterlimit:10;stroke-dasharray:none;stroke-opacity:1"
               id="path1646" />
          </g>
        </g>
        <g
           id="g1648"
           transform="matrix(1,0,0,-1,0,792)">
          <g
             id="g1650">
            <path
               d="m 876.73065,392.56219 c -1.39192,-4.66862 -0.86267,-17.69433 0.16848,-21.21677"
               style="fill:none;stroke:#000000;stroke-width:2.61538;stroke-linecap:round;stroke-linejoin:round;stroke-miterlimit:10;stroke-dasharray:none;stroke-opacity:1"
               id="path1652" />
          </g>
        </g>
        <g
           id="g1654"
           transform="matrix(1,0,0,-1,0,792)">
          <g
             id="g1656">
            <path
               d="m 875.0965,370.09604 c -2.60707,18.91075 -4.88569,41.69081 -5.97288,60.35285"
               style="fill:none;stroke:#000000;stroke-width:2.61538;stroke-linecap:round;stroke-linejoin:round;stroke-miterlimit:10;stroke-dasharray:none;stroke-opacity:1"
               id="path1658" />
          </g>
        </g>
        <g
           id="g1660"
           transform="matrix(1,0,0,-1,0,792)">
          <g
             id="g1662">
            <path
               d="m 875.0965,370.09604 c 80.8007,9.67106 167.2697,14.19057 248.4705,19.30234"
               style="fill:none;stroke:#000000;stroke-width:2.61538;stroke-linecap:round;stroke-linejoin:round;stroke-miterlimit:10;stroke-dasharray:none;stroke-opacity:1"
               id="path1664"
               sodipodi:nodetypes="cc" />
          </g>
        </g>
        <g
           id="g1666"
           transform="matrix(1,0,0,-1,0,792)">
          <g
             id="g1668">
            <path
               d="m 876.73065,392.56219 c 81.24652,6.68761 165.21165,16.05715 246.72845,18.85813"
               style="fill:none;stroke:#000000;stroke-width:2.61538;stroke-linecap:round;stroke-linejoin:round;stroke-miterlimit:10;stroke-dasharray:none;stroke-opacity:1"
               id="path1670"
               sodipodi:nodetypes="cc" />
          </g>
        </g>
      </g>
    </g>
  </g>
</svg>
