<?xml version="1.0" encoding="UTF-8" standalone="no"?>
<!-- Created by Ashley Blewer - This work is licensed under a Creative Commons Attribution 4.0 International License -->

<svg
   width="544"
   height="480"
   viewBox="0 0 143.93334 127"
   version="1.1"
   id="svg2490"
   inkscape:version="1.2.2 (1:1.2.2+202212051552+b0a8486541)"
   sodipodi:docname="1994-dtrs-2.svg"
   xmlns:inkscape="http://www.inkscape.org/namespaces/inkscape"
   xmlns:sodipodi="http://sodipodi.sourceforge.net/DTD/sodipodi-0.dtd"
   xmlns="http://www.w3.org/2000/svg"
   xmlns:svg="http://www.w3.org/2000/svg">
  <sodipodi:namedview
     id="namedview2492"
     pagecolor="#ffffff"
     bordercolor="#666666"
     borderopacity="1.0"
     inkscape:pageshadow="2"
     inkscape:pageopacity="0.0"
     inkscape:pagecheckerboard="0"
     inkscape:document-units="mm"
     showgrid="false"
     units="px"
     inkscape:zoom="0.90583674"
     inkscape:cx="53.541657"
     inkscape:cy="253.35691"
     inkscape:window-width="1846"
     inkscape:window-height="1136"
     inkscape:window-x="0"
     inkscape:window-y="0"
     inkscape:window-maximized="1"
     inkscape:current-layer="g4731"
     inkscape:showpageshadow="2"
     inkscape:deskcolor="#d1d1d1" />
  <defs
     id="defs2487" />
  <g
     inkscape:label="Layer 1"
     inkscape:groupmode="layer"
     id="layer1">
    <g
       id="g4731"
       transform="matrix(0.32961229,0,0,0.32903008,-241.78905,1.73126)"
       style="stroke-width:2.68698">
      <g
         id="g104528"
         transform="matrix(1,0,0,-1,0,792)"
         style="stroke-width:2.68698">
        <g
           id="g104530"
           style="stroke-width:2.68698" />
      </g>
      <g
         id="g104996"
         transform="matrix(1,0,0,-1,0,792)"
         style="stroke-width:2.68698">
        <g
           id="g104998"
           style="stroke-width:2.68698" />
      </g>
      <g
         id="g5118"
         transform="matrix(1.5827183,0,0,1.5844811,-744.90531,-825.88707)"
         style="stroke-width:1.83147">
        <g
           id="g1834"
           transform="matrix(1,0,0,-1,0,792)"
           style="stroke-width:1.83147">
          <g
             id="g1836"
             style="stroke-width:1.83147">
            <path
               d="m 1009.6789,108.28337 c -6.1086,44.84053 -4.6921,95.32806 -14.92815,139.61444"
               style="fill:none;stroke:#000000;stroke-width:2.32362;stroke-linecap:round;stroke-linejoin:round;stroke-miterlimit:10;stroke-dasharray:none;stroke-opacity:1"
               id="path1838"
               sodipodi:nodetypes="cc" />
          </g>
        </g>
        <g
           id="g1840"
           transform="matrix(1,0,0,-1,0,792)"
           style="stroke-width:1.83147">
          <g
             id="g1842"
             style="stroke-width:1.83147">
            <path
               d="m 987.47766,252.55397 c 1.68251,-1.54728 5.02473,-3.04831 7.27309,-4.65616"
               style="fill:none;stroke:#000000;stroke-width:2.32362;stroke-linecap:round;stroke-linejoin:round;stroke-miterlimit:10;stroke-dasharray:none;stroke-opacity:1"
               id="path1844" />
          </g>
        </g>
        <g
           id="g1846"
           transform="matrix(1,0,0,-1,0,792)"
           style="stroke-width:1.83147">
          <g
             id="g1848"
             style="stroke-width:1.83147">
            <path
               d="m 987.47766,252.55397 c 4.03537,-45.22218 10.04101,-90.26559 12.84834,-135.59592"
               style="fill:none;stroke:#000000;stroke-width:2.32362;stroke-linecap:round;stroke-linejoin:round;stroke-miterlimit:10;stroke-dasharray:none;stroke-opacity:1"
               id="path1850"
               sodipodi:nodetypes="ccccc" />
          </g>
        </g>
        <g
           id="g1852"
           transform="matrix(1,0,0,-1,0,792)"
           style="stroke-width:1.83147">
          <g
             id="g1854"
             style="stroke-width:1.83147">
            <path
               d="m 1000.3257,116.95805 c 1.4793,-0.1416 3.9634,-4.55469 6.0023,-6.21932 1.117,-0.81845 2.2339,-1.63691 3.3509,-2.45536"
               style="fill:none;stroke:#000000;stroke-width:2.32362;stroke-linecap:round;stroke-linejoin:round;stroke-miterlimit:10;stroke-dasharray:none;stroke-opacity:1"
               id="path1856" />
          </g>
        </g>
        <g
           id="g1858"
           transform="matrix(1,0,0,-1,0,792)"
           style="stroke-width:1.83147">
          <g
             id="g1860"
             style="stroke-width:1.83147">
            <path
               d="m 987.47766,252.55397 c 30.04204,5.05176 66.31744,6.45967 96.63774,9.0551"
               style="fill:none;stroke:#000000;stroke-width:2.32362;stroke-linecap:round;stroke-linejoin:round;stroke-miterlimit:10;stroke-dasharray:none;stroke-opacity:1"
               id="path1862"
               sodipodi:nodetypes="cc" />
          </g>
        </g>
        <g
           id="g1864"
           transform="matrix(1,0,0,-1,0,792)"
           style="stroke-width:1.83147">
          <g
             id="g1866"
             style="stroke-width:1.83147">
            <path
               d="m 1084.1154,261.60907 c -0.7692,-2.03106 1.9213,-4.45441 5.0095,-3.30562 2.455,0.36058 4.6137,-2.87077 7.0807,-2.99011"
               style="fill:none;stroke:#000000;stroke-width:2.32362;stroke-linecap:round;stroke-linejoin:round;stroke-miterlimit:10;stroke-dasharray:none;stroke-opacity:1"
               id="path1868"
               sodipodi:nodetypes="ccc" />
          </g>
        </g>
        <g
           id="g1870"
           transform="matrix(1,0,0,-1,0,792)"
           style="stroke-width:1.83147">
          <g
             id="g1872"
             style="stroke-width:1.83147">
            <path
               d="m 994.75075,247.89781 c 33.82015,2.44578 67.64385,4.84542 101.45485,7.41553"
               style="fill:none;stroke:#000000;stroke-width:2.32362;stroke-linecap:round;stroke-linejoin:round;stroke-miterlimit:10;stroke-dasharray:none;stroke-opacity:1"
               id="path1874"
               sodipodi:nodetypes="cccc" />
          </g>
        </g>
        <g
           id="g1876"
           transform="matrix(1,0,0,-1,0,792)"
           style="stroke-width:1.83147">
          <g
             id="g1878"
             style="stroke-width:1.83147">
            <path
               d="m 1096.2056,255.31334 c 0.074,-18.99769 -1.5742,-38.1669 -0.6452,-57.23727 -0.2002,-15.10664 -1.5132,-30.18292 -2.8201,-45.20009 0.073,-8.0456 -1.3685,-16.15934 -1.1258,-24.03728 l -0.029,0.58612"
               style="fill:none;stroke:#000000;stroke-width:2.32362;stroke-linecap:round;stroke-linejoin:round;stroke-miterlimit:10;stroke-dasharray:none;stroke-opacity:1"
               id="path1880" />
          </g>
        </g>
        <g
           id="g1882"
           transform="matrix(1,0,0,-1,0,792)"
           style="stroke-width:1.83147">
          <g
             id="g1884"
             style="stroke-width:1.83147">
            <path
               d="m 1009.6789,108.28337 c 6.7805,1.87265 16.2267,3.31007 23.1026,4.82492 10.678,2.90779 21.5667,4.94875 32.341,7.47956 9.1674,2.01588 18.1653,4.53787 27.2336,6.9534"
               style="fill:none;stroke:#000000;stroke-width:2.32362;stroke-linecap:round;stroke-linejoin:round;stroke-miterlimit:10;stroke-dasharray:none;stroke-opacity:1"
               id="path1886"
               sodipodi:nodetypes="cccc" />
          </g>
        </g>
        <g
           id="g1888"
           transform="matrix(1,0,0,-1,0,792)"
           style="stroke-width:1.83147">
          <g
             id="g1890"
             style="stroke-width:1.83147">
            <path
               d="m 1027.2484,108.71616 c 5.0309,-10.422032 6.2682,-22.27069 11.2204,-32.747082 1.6103,-4.661802 2.7388,-10.109168 5.115,-14.094975 l 0.4429,-0.399109 0.069,-0.06226"
               style="fill:none;stroke:#000000;stroke-width:2.32362;stroke-linecap:round;stroke-linejoin:round;stroke-miterlimit:10;stroke-dasharray:none;stroke-opacity:1"
               id="path1892" />
          </g>
        </g>
        <g
           id="g1894"
           transform="matrix(1,0,0,-1,0,792)"
           style="stroke-width:1.83147">
          <g
             id="g1896"
             style="stroke-width:1.83147">
            <path
               d="m 1044.0957,61.412734 c -0.17,-5.36598 -1.9446,-12.847898 -1.3574,-18.2368"
               style="fill:none;stroke:#000000;stroke-width:2.32362;stroke-linecap:round;stroke-linejoin:round;stroke-miterlimit:10;stroke-dasharray:none;stroke-opacity:1"
               id="path1898"
               sodipodi:nodetypes="cc" />
          </g>
        </g>
        <g
           id="g1900"
           transform="matrix(1,0,0,-1,0,792)"
           style="stroke-width:1.83147">
          <g
             id="g1902"
             style="stroke-width:1.83147">
            <path
               d="m 1020.2937,109.87797 c 5.4779,-10.334914 8.8931,-25.932132 12.3597,-36.966687 3.4462,-9.873804 4.7439,-20.625519 9.6901,-29.951013 l 0.3948,0.215664"
               style="fill:none;stroke:#000000;stroke-width:2.32362;stroke-linecap:round;stroke-linejoin:round;stroke-miterlimit:10;stroke-dasharray:none;stroke-opacity:1"
               id="path1904"
               sodipodi:nodetypes="cccc" />
          </g>
        </g>
        <g
           id="g1906"
           transform="matrix(1,0,0,-1,0,792)"
           style="stroke-width:1.83147">
          <g
             id="g1908"
             style="stroke-width:1.83147">
            <path
               d="m 1044.0957,61.412734 c -0.5119,0.461369 89.3274,13.634444 133.0314,24.905877"
               style="fill:none;stroke:#000000;stroke-width:2.32362;stroke-linecap:round;stroke-linejoin:round;stroke-miterlimit:10;stroke-dasharray:none;stroke-opacity:1"
               id="path1910"
               sodipodi:nodetypes="cc" />
          </g>
        </g>
        <g
           id="g1912"
           transform="matrix(1,0,0,-1,0,792)"
           style="stroke-width:1.83147">
          <g
             id="g1914"
             style="stroke-width:1.83147">
            <path
               d="m 1042.3435,42.96027 c 45.0444,7.346475 89.2861,18.959436 134.4339,25.727401"
               style="fill:none;stroke:#000000;stroke-width:2.32362;stroke-linecap:round;stroke-linejoin:round;stroke-miterlimit:10;stroke-dasharray:none;stroke-opacity:1"
               id="path1916"
               sodipodi:nodetypes="cccccc" />
          </g>
        </g>
        <g
           id="g1918"
           transform="matrix(1,0,0,-1,0,792)"
           style="stroke-width:1.83147">
          <g
             id="g1920"
             style="stroke-width:1.83147">
            <path
               d="m 1176.7774,68.687671 c 1.1543,6.952544 1.0281,12.910318 2.6564,19.675885 l 0.051,-0.165939"
               style="fill:none;stroke:#000000;stroke-width:2.32362;stroke-linecap:round;stroke-linejoin:round;stroke-miterlimit:10;stroke-dasharray:none;stroke-opacity:1"
               id="path1922"
               sodipodi:nodetypes="ccc" />
          </g>
        </g>
        <g
           id="g1924"
           transform="matrix(1,0,0,-1,0,792)"
           style="stroke-width:1.83147">
          <g
             id="g1926"
             style="stroke-width:1.83147">
            <path
               d="m 1027.2484,108.71616 c 36.3344,11.36456 78.7169,15.5258 116.2822,20.00873"
               style="fill:none;stroke:#000000;stroke-width:2.32362;stroke-linecap:round;stroke-linejoin:round;stroke-miterlimit:10;stroke-dasharray:none;stroke-opacity:1"
               id="path1928"
               sodipodi:nodetypes="cc" />
          </g>
        </g>
        <g
           id="g1930"
           transform="matrix(1,0,0,-1,0,792)"
           style="stroke-width:1.83147">
          <g
             id="g1932"
             style="stroke-width:1.83147">
            <path
               d="m 1144.4851,128.10422 c 3.7746,-1.6742 5.6438,-5.58296 8.3356,-8.46864 2.4591,0.0769 3.5589,-2.5112 4.6072,-4.2978 1.1008,-1.85735 2.7277,-3.28515 3.9096,-5.09713 4.3341,-5.41992 9.4953,-10.09907 14.3743,-15.006197 1.8317,-1.581025 3.0663,-3.695096 4.425,-5.663965"
               style="fill:none;stroke:#000000;stroke-width:2.32362;stroke-linecap:round;stroke-linejoin:round;stroke-miterlimit:10;stroke-dasharray:none;stroke-opacity:1"
               id="path1934" />
          </g>
        </g>
        <g
           id="g1936"
           transform="matrix(1,0,0,-1,0,792)"
           style="stroke-width:1.83147">
          <g
             id="g1938"
             style="stroke-width:1.83147">
            <path
               d="m 993.2572,205.62874 c 3.24836,-1.96871 5.56386,-5.25245 8.5233,-7.58527 l -0.3022,-0.0117 0.2696,0.053"
               style="fill:none;stroke:#000000;stroke-width:1.16181;stroke-linecap:round;stroke-linejoin:round;stroke-miterlimit:10;stroke-dasharray:none;stroke-opacity:1"
               id="path1940" />
          </g>
        </g>
        <g
           id="g1942"
           transform="matrix(1,0,0,-1,0,792)"
           style="stroke-width:1.83147">
          <g
             id="g1944"
             style="stroke-width:1.83147">
            <path
               d="m 1001.7805,198.04347 c 15.605,2.11582 34.3589,4.32447 49.846,7.13916 12.3189,1.74954 26.8922,3.91555 39.1344,5.94159"
               style="fill:none;stroke:#000000;stroke-width:1.16181;stroke-linecap:round;stroke-linejoin:round;stroke-miterlimit:10;stroke-dasharray:none;stroke-opacity:1"
               id="path1946"
               sodipodi:nodetypes="ccc" />
          </g>
        </g>
        <g
           id="g1948"
           transform="matrix(1,0,0,-1,0,792)"
           style="stroke-width:1.83147">
          <g
             id="g1950"
             style="stroke-width:1.83147">
            <path
               d="m 1090.7609,211.12422 c 2.2258,-6.49326 -0.1529,-13.23632 0.4287,-19.90211 -0.2647,-7.3405 -0.8446,-14.82013 -0.6236,-22.19737 -1.0459,-6.91436 -0.5021,-13.9436 -1.8971,-20.75861 -0.3612,-6.13153 -0.9487,-12.04714 -0.5106,-18.1745 -0.7285,-0.0892 0.5305,-0.1154 -0.2596,0.15185"
               style="fill:none;stroke:#000000;stroke-width:1.16181;stroke-linecap:round;stroke-linejoin:round;stroke-miterlimit:10;stroke-dasharray:none;stroke-opacity:1"
               id="path1952" />
          </g>
        </g>
        <g
           id="g1954"
           transform="matrix(1,0,0,-1,0,792)"
           style="stroke-width:1.83147">
          <g
             id="g1956"
             style="stroke-width:1.83147">
            <path
               d="m 1043.5028,112.31612 c 0.9531,-0.99802 0.3128,-2.86364 1.4027,-3.72649"
               style="fill:none;stroke:#000000;stroke-width:1.16181;stroke-linecap:round;stroke-linejoin:round;stroke-miterlimit:10;stroke-dasharray:none;stroke-opacity:1"
               id="path1958" />
          </g>
        </g>
        <g
           id="g1960"
           transform="matrix(1,0,0,-1,0,792)"
           style="stroke-width:1.83147">
          <g
             id="g1962"
             style="stroke-width:1.83147">
            <path
               d="m 1044.9055,108.58963 c 14.1061,3.63411 30.0701,4.14276 44.2687,7.23595 11.7501,1.0359 23.0688,5.06213 34.8714,5.57956 2.5811,0.60642 7.2016,0.17143 8.7328,1.0591"
               style="fill:none;stroke:#000000;stroke-width:1.16181;stroke-linecap:round;stroke-linejoin:round;stroke-miterlimit:10;stroke-dasharray:none;stroke-opacity:1"
               id="path1964"
               sodipodi:nodetypes="cccc" />
          </g>
        </g>
        <g
           id="g1966"
           transform="matrix(1,0,0,-1,0,792)"
           style="stroke-width:1.83147">
          <g
             id="g1968"
             style="stroke-width:1.83147">
            <path
               d="m 1132.5419,124.98058 c 0.9232,-0.61849 0.2795,-1.43026 0.2365,-2.51634"
               style="fill:none;stroke:#000000;stroke-width:1.16181;stroke-linecap:round;stroke-linejoin:round;stroke-miterlimit:10;stroke-dasharray:none;stroke-opacity:1"
               id="path1970"
               sodipodi:nodetypes="cc" />
          </g>
        </g>
        <g
           id="g1972"
           transform="matrix(1,0,0,-1,0,792)"
           style="stroke-width:1.83147">
          <g
             id="g1974"
             style="stroke-width:1.83147">
            <path
               d="m 1053.4879,88.252441 c 33.2606,1.051743 64.1128,16.149439 97.1952,18.430599"
               style="fill:none;stroke:#000000;stroke-width:1.16181;stroke-linecap:round;stroke-linejoin:round;stroke-miterlimit:10;stroke-dasharray:none;stroke-opacity:1"
               id="path1976"
               sodipodi:nodetypes="ccccc" />
          </g>
        </g>
        <g
           id="g1978"
           transform="matrix(1,0,0,-1,0,792)"
           style="stroke-width:1.83147">
          <g
             id="g1980"
             style="stroke-width:1.83147">
            <path
               d="m 1150.6827,106.68298 c 2.5054,-3.42663 4.5481,-7.130743 6.5147,-10.766919 0.172,-0.566594 0.8404,-0.397327 0.098,-0.253019"
               style="fill:none;stroke:#000000;stroke-width:1.16181;stroke-linecap:round;stroke-linejoin:round;stroke-miterlimit:10;stroke-dasharray:none;stroke-opacity:1"
               id="path1982" />
          </g>
        </g>
        <g
           id="g1984"
           transform="matrix(1,0,0,-1,0,792)"
           style="stroke-width:1.83147">
          <g
             id="g1986"
             style="stroke-width:1.83147">
            <path
               d="m 1054.1918,87.879501 c 2.0667,-3.892578 6.5177,-7.327452 6.866,-12.167236 l 0.3526,-0.480784 c 0.131,-0.179741 0.122,0.464642 0.1939,0.632945"
               style="fill:none;stroke:#000000;stroke-width:1.16181;stroke-linecap:round;stroke-linejoin:round;stroke-miterlimit:10;stroke-dasharray:none;stroke-opacity:1"
               id="path1988" />
          </g>
        </g>
        <g
           id="g1990"
           transform="matrix(1,0,0,-1,0,792)"
           style="stroke-width:1.83147">
          <g
             id="g1992"
             style="stroke-width:1.83147">
            <path
               d="m 1061.4104,75.231481 c 13.9775,2.43266 30.0658,6.452536 44.1561,8.194421 8.6305,1.675981 17.3304,3.118786 25.8035,5.545033 6.5371,1.335099 12.9392,3.201454 19.4398,4.492748 1.5468,0.37463 6.4868,2.142626 6.171,1.655839"
               style="fill:none;stroke:#000000;stroke-width:1.16181;stroke-linecap:round;stroke-linejoin:round;stroke-miterlimit:10;stroke-dasharray:none;stroke-opacity:1"
               id="path1994"
               sodipodi:nodetypes="ccccc" />
          </g>
        </g>
        <g
           id="g1996"
           transform="matrix(1,0,0,-1,0,792)"
           style="stroke-width:1.83147">
          <g
             id="g1998"
             style="stroke-width:1.83147">
            <path
               d="m 1046.5267,103.45868 c 5.8561,0.0921 10.2692,3.04458 16.0137,1.1315 0.5067,-4.10586 -5.598,-4.01018 -8.2615,-5.802957 -1.5408,-0.37613 -3.9242,-2.311399 -5.3368,-1.12065"
               style="fill:none;stroke:#000000;stroke-width:1.16181;stroke-linecap:round;stroke-linejoin:round;stroke-miterlimit:10;stroke-dasharray:none;stroke-opacity:1"
               id="path2000"
               sodipodi:nodetypes="cccc" />
          </g>
        </g>
        <g
           id="g2002"
           transform="matrix(1,0,0,-1,0,792)"
           style="stroke-width:1.83147">
          <g
             id="g2004"
             style="stroke-width:1.83147">
            <path
               d="m 1048.6771,97.149681 c -1.3573,1.924818 -1.0074,4.343249 -2.1504,6.308999"
               style="fill:none;stroke:#000000;stroke-width:1.16181;stroke-linecap:round;stroke-linejoin:round;stroke-miterlimit:10;stroke-dasharray:none;stroke-opacity:1"
               id="path2006" />
          </g>
        </g>
        <g
           id="g2008"
           transform="matrix(1,0,0,-1,0,792)"
           style="stroke-width:1.83147">
          <g
             id="g2010"
             style="stroke-width:1.83147">
            <path
               d="m 1099.4379,109.64191 c 9.5286,2.04904 19.1556,4.42431 28.8473,6.0229 3.8377,0.88971 7.6067,2.30507 11.4926,2.87304"
               style="fill:none;stroke:#000000;stroke-width:1.16181;stroke-linecap:round;stroke-linejoin:round;stroke-miterlimit:10;stroke-dasharray:none;stroke-opacity:1"
               id="path2012" />
          </g>
        </g>
        <g
           id="g2014"
           transform="matrix(1,0,0,-1,0,792)"
           style="stroke-width:1.83147">
          <g
             id="g2016"
             style="stroke-width:1.83147">
            <path
               d="m 1090.721,105.65238 c 15.9409,1.79905 31.7261,4.66816 47.5571,7.10298 1.1457,0.11679 2.2914,0.23359 3.4371,0.35038"
               style="fill:none;stroke:#000000;stroke-width:1.16181;stroke-linecap:round;stroke-linejoin:round;stroke-miterlimit:10;stroke-dasharray:none;stroke-opacity:1"
               id="path2018" />
          </g>
        </g>
        <g
           id="g2020"
           transform="matrix(1,0,0,-1,0,792)"
           style="stroke-width:1.83147">
          <g
             id="g2022"
             style="stroke-width:1.83147">
            <path
               d="m 1099.6821,79.125908 c 13.2874,2.229065 26.5749,4.45813 39.8623,6.687195"
               style="fill:none;stroke:#000000;stroke-width:1.16181;stroke-linecap:round;stroke-linejoin:round;stroke-miterlimit:10;stroke-dasharray:none;stroke-opacity:1"
               id="path2024" />
          </g>
        </g>
        <g
           id="g2026"
           transform="matrix(1,0,0,-1,0,792)"
           style="stroke-width:1.83147">
          <g
             id="g2028"
             style="stroke-width:1.83147">
            <path
               d="m 1087.6193,73.554726 c 7.7962,0.11613 15.6201,1.962336 23.401,2.892127 10.0054,1.618855 19.8297,4.101639 29.7579,6.007905"
               style="fill:none;stroke:#000000;stroke-width:1.16181;stroke-linecap:round;stroke-linejoin:round;stroke-miterlimit:10;stroke-dasharray:none;stroke-opacity:1"
               id="path2030" />
          </g>
        </g>
        <g
           id="g2032"
           transform="matrix(1,0,0,-1,0,792)"
           style="stroke-width:1.83147">
          <g
             id="g2034"
             style="stroke-width:1.83147">
            <path
               d="m 1147.4216,88.73642 c 2.1285,-0.893872 -0.5241,-6.68577 3.4104,-3.623755 3.764,1.145128 7.4254,3.050884 11.4194,3.216985 -1.3236,-0.18408 -2.9124,5.381176 -3.6535,3.650726 -3.5337,-2.095092 -7.1492,-2.563127 -11.1763,-3.243956"
               style="fill:none;stroke:#000000;stroke-width:1.16181;stroke-linecap:round;stroke-linejoin:round;stroke-miterlimit:10;stroke-dasharray:none;stroke-opacity:1"
               id="path2036"
               sodipodi:nodetypes="ccccc" />
          </g>
        </g>
        <g
           id="g2038"
           transform="matrix(1,0,0,-1,0,792)"
           style="stroke-width:1.83147">
          <g
             id="g2040"
             style="stroke-width:1.83147">
            <path
               d="m 1166.8572,79.981735 c 0.6178,-2.311866 -0.6939,-6.285729 -0.7012,-7.890865 l -0.8434,-1.097904"
               style="fill:none;stroke:#000000;stroke-width:1.16181;stroke-linecap:round;stroke-linejoin:round;stroke-miterlimit:10;stroke-dasharray:none;stroke-opacity:1"
               id="path2042"
               sodipodi:nodetypes="ccc" />
          </g>
        </g>
        <g
           id="g2044"
           transform="matrix(1,0,0,-1,0,792)"
           style="stroke-width:1.83147">
          <g
             id="g2046"
             style="stroke-width:1.83147">
            <path
               d="m 1165.3126,70.992966 c 1.2106,0.108826 3.6987,1.459431 4.6383,1.522712"
               style="fill:none;stroke:#000000;stroke-width:1.16181;stroke-linecap:round;stroke-linejoin:round;stroke-miterlimit:10;stroke-dasharray:none;stroke-opacity:1"
               id="path2048" />
          </g>
        </g>
        <g
           id="g2050"
           transform="matrix(1,0,0,-1,0,792)"
           style="stroke-width:1.83147">
          <g
             id="g2052"
             style="stroke-width:1.83147">
            <path
               d="m 1170.2606,72.795845 c 0.8005,0.317491 1.2948,5.668282 1.8626,7.195108"
               style="fill:none;stroke:#000000;stroke-width:1.16181;stroke-linecap:round;stroke-linejoin:round;stroke-miterlimit:10;stroke-dasharray:none;stroke-opacity:1"
               id="path2054" />
          </g>
        </g>
        <g
           id="g2056"
           transform="matrix(1,0,0,-1,0,792)"
           style="stroke-width:1.83147">
          <g
             id="g2058"
             style="stroke-width:1.83147">
            <path
               d="m 1171.8198,80.129173 c -0.9651,-0.543745 -3.5467,-0.764261 -5.0773,-0.671868"
               style="fill:none;stroke:#000000;stroke-width:1.16181;stroke-linecap:round;stroke-linejoin:round;stroke-miterlimit:10;stroke-dasharray:none;stroke-opacity:1"
               id="path2060" />
          </g>
        </g>
        <g
           id="g2062"
           transform="matrix(1,0,0,-1,0,792)"
           style="stroke-width:1.83147">
          <g
             id="g2064"
             style="stroke-width:1.83147">
            <path
               d="m 1086.1663,207.49036 c -8.0297,-1.15496 -16.8476,-4.22787 -24.782,-7.2864 -3.5349,-0.77496 -5.549,-4.76869 -0.8624,-5.64868 7.3423,-2.80595 15.1936,-0.8228 22.7737,-2.0971 0.6387,-8e-4 4.8147,-0.26813 3.5116,0.34781"
               style="fill:none;stroke:#000000;stroke-width:1.16181;stroke-linecap:round;stroke-linejoin:round;stroke-miterlimit:10;stroke-dasharray:none;stroke-opacity:1"
               id="path2066" />
          </g>
        </g>
        <g
           id="g2068"
           transform="matrix(1,0,0,-1,0,792)"
           style="stroke-width:1.83147">
          <g
             id="g2070"
             style="stroke-width:1.83147">
            <path
               d="m 1037.3313,178.15677 c 12.6748,3.95406 26.1297,4.08345 38.9089,7.50334"
               style="fill:none;stroke:#000000;stroke-width:1.16181;stroke-linecap:round;stroke-linejoin:round;stroke-miterlimit:10;stroke-dasharray:none;stroke-opacity:1"
               id="path2072" />
          </g>
        </g>
        <g
           id="g2074"
           transform="matrix(1,0,0,-1,0,792)"
           style="stroke-width:1.83147">
          <g
             id="g2076"
             style="stroke-width:1.83147">
            <path
               d="m 1020.8746,168.13901 c 11.3534,3.20616 23.2856,4.21841 34.8885,6.53807 9.3869,1.18735 18.7085,2.96559 27.9663,4.7529"
               style="fill:none;stroke:#000000;stroke-width:1.16181;stroke-linecap:round;stroke-linejoin:round;stroke-miterlimit:10;stroke-dasharray:none;stroke-opacity:1"
               id="path2078" />
          </g>
        </g>
        <g
           id="g2080"
           transform="matrix(1,0,0,-1,0,792)"
           style="stroke-width:1.83147">
          <g
             id="g2082"
             style="stroke-width:1.83147">
            <path
               d="m 1008.6264,157.29768 c 27.2882,1.63735 51.0735,20.92819 78.9758,17.9031"
               style="fill:none;stroke:#000000;stroke-width:1.16181;stroke-linecap:round;stroke-linejoin:round;stroke-miterlimit:10;stroke-dasharray:none;stroke-opacity:1"
               id="path2084" />
          </g>
        </g>
        <g
           id="g2086"
           transform="matrix(1,0,0,-1,0,792)"
           style="stroke-width:1.83147">
          <g
             id="g2088"
             style="stroke-width:1.83147">
            <path
               d="m 1010.1866,139.43397 c 15.914,4.7189 32.6889,2.9257 48.7616,5.49556 10.1536,2.10434 20.521,4.55428 29.3639,10.21433"
               style="fill:none;stroke:#000000;stroke-width:1.16181;stroke-linecap:round;stroke-linejoin:round;stroke-miterlimit:10;stroke-dasharray:none;stroke-opacity:1"
               id="path2090" />
          </g>
        </g>
        <g
           id="g2092"
           transform="matrix(1,0,0,-1,0,792)"
           style="stroke-width:1.83147">
          <g
             id="g2094"
             style="stroke-width:1.83147">
            <path
               d="m 1069.7123,144.63806 c 0.023,-1.25189 1.464,-3.41713 0.4344,-4.35329"
               style="fill:none;stroke:#000000;stroke-width:1.16181;stroke-linecap:round;stroke-linejoin:round;stroke-miterlimit:10;stroke-dasharray:none;stroke-opacity:1"
               id="path2096" />
          </g>
        </g>
        <g
           id="g2098"
           transform="matrix(1,0,0,-1,0,792)"
           style="stroke-width:1.83147">
          <g
             id="g2100"
             style="stroke-width:1.83147">
            <path
               d="m 1069.8174,140.35849 c 3.7171,0.69722 7.5219,1.5512 11.3528,1.9218 v 0.20535"
               style="fill:none;stroke:#000000;stroke-width:1.16181;stroke-linecap:round;stroke-linejoin:round;stroke-miterlimit:10;stroke-dasharray:none;stroke-opacity:1"
               id="path2102" />
          </g>
        </g>
        <g
           id="g2104"
           transform="matrix(1,0,0,-1,0,792)"
           style="stroke-width:1.83147">
          <g
             id="g2106"
             style="stroke-width:1.83147">
            <path
               d="m 1080.8986,142.29053 c 1.1333,1.50317 -0.7878,3.99305 0.1761,5.79022"
               style="fill:none;stroke:#000000;stroke-width:1.16181;stroke-linecap:round;stroke-linejoin:round;stroke-miterlimit:10;stroke-dasharray:none;stroke-opacity:1"
               id="path2108" />
          </g>
        </g>
        <g
           id="g2110"
           transform="matrix(1,0,0,-1,0,792)"
           style="stroke-width:1.83147">
          <g
             id="g2112"
             style="stroke-width:1.83147">
            <path
               d="m 1080.2621,147.52052 c -3.4609,-0.1854 -7.3908,-1.39973 -10.7767,-2.80443"
               style="fill:none;stroke:#000000;stroke-width:1.16181;stroke-linecap:round;stroke-linejoin:round;stroke-miterlimit:10;stroke-dasharray:none;stroke-opacity:1"
               id="path2114" />
          </g>
        </g>
        <g
           id="g2116"
           transform="matrix(1,0,0,-1,0,792)"
           style="stroke-width:1.83147">
          <g
             id="g2118"
             style="stroke-width:1.83147">
            <path
               d="m 1044.9699,127.71068 c 9.9364,1.7166 19.7164,4.88862 29.6792,6.80472 0.9448,0.21431 1.8896,0.42861 2.8344,0.64291"
               style="fill:none;stroke:#000000;stroke-width:1.16181;stroke-linecap:round;stroke-linejoin:round;stroke-miterlimit:10;stroke-dasharray:none;stroke-opacity:1"
               id="path2120" />
          </g>
        </g>
        <g
           id="g2122"
           transform="matrix(1,0,0,-1,0,792)"
           style="stroke-width:1.83147">
          <g
             id="g2124"
             style="stroke-width:1.83147">
            <path
               d="m 1032.1295,119.62483 c 12.1313,2.60752 24.0973,5.92709 36.177,8.68556 4.3449,0.69926 8.4906,2.40895 12.8345,3.05777"
               style="fill:none;stroke:#000000;stroke-width:1.16181;stroke-linecap:round;stroke-linejoin:round;stroke-miterlimit:10;stroke-dasharray:none;stroke-opacity:1"
               id="path2126" />
          </g>
        </g>
      </g>
    </g>
  </g>
</svg>
