<?xml version="1.0" encoding="UTF-8" standalone="no"?>
<!-- Created by Ashley Blewer - This work is licensed under a Creative Commons Attribution 4.0 International License -->

<svg
   width="544"
   height="480"
   viewBox="0 0 143.93334 127"
   version="1.1"
   id="svg2490"
   inkscape:version="1.2.2 (1:1.2.2+202212051552+b0a8486541)"
   sodipodi:docname="1996-digital-media-player-4.svg"
   xmlns:inkscape="http://www.inkscape.org/namespaces/inkscape"
   xmlns:sodipodi="http://sodipodi.sourceforge.net/DTD/sodipodi-0.dtd"
   xmlns="http://www.w3.org/2000/svg"
   xmlns:svg="http://www.w3.org/2000/svg">
  <sodipodi:namedview
     id="namedview2492"
     pagecolor="#ffffff"
     bordercolor="#666666"
     borderopacity="1.0"
     inkscape:pageshadow="2"
     inkscape:pageopacity="0.0"
     inkscape:pagecheckerboard="0"
     inkscape:document-units="mm"
     showgrid="false"
     units="px"
     inkscape:zoom="0.90583674"
     inkscape:cx="53.541657"
     inkscape:cy="121.98666"
     inkscape:window-width="1846"
     inkscape:window-height="1136"
     inkscape:window-x="0"
     inkscape:window-y="0"
     inkscape:window-maximized="1"
     inkscape:current-layer="g4731"
     inkscape:showpageshadow="2"
     inkscape:deskcolor="#d1d1d1" />
  <defs
     id="defs2487" />
  <g
     inkscape:label="Layer 1"
     inkscape:groupmode="layer"
     id="layer1">
    <g
       id="g4731"
       transform="matrix(0.32961229,0,0,0.32903008,-241.78905,1.73126)"
       style="stroke-width:2.68698">
      <g
         id="g104528"
         transform="matrix(1,0,0,-1,0,792)"
         style="stroke-width:2.68698">
        <g
           id="g104530"
           style="stroke-width:2.68698" />
      </g>
      <g
         id="g104996"
         transform="matrix(1,0,0,-1,0,792)"
         style="stroke-width:2.68698">
        <g
           id="g104998"
           style="stroke-width:2.68698" />
      </g>
      <g
         id="g2404"
         transform="matrix(1.3823879,0,0,1.3839318,-396.57829,-258.09211)"
         style="stroke-width:2.35253">
        <g
           id="g164"
           transform="matrix(1,0,0,-1,0,792)"
           style="stroke-width:2.35253">
          <g
             id="g166"
             style="stroke-width:2.35253">
            <path
               d="m 876.7738,491.84869 c 72.98251,23.57827 148.1324,39.53956 221.4969,61.80164"
               style="fill:none;stroke:#000000;stroke-width:2.9847;stroke-linecap:round;stroke-linejoin:round;stroke-miterlimit:10;stroke-dasharray:none;stroke-opacity:1"
               id="path168" />
          </g>
        </g>
        <g
           id="g170"
           transform="matrix(1,0,0,-1,0,792)"
           style="stroke-width:2.35253">
          <g
             id="g172"
             style="stroke-width:2.35253">
            <path
               d="m 1098.2708,553.65039 c 9.877,-10.09059 9.8601,-26.66879 12.9724,-39.52556 1.8185,-14.8033 5.8817,-29.23325 7.5516,-44.0592 -0.7588,-2.55093 -2.0868,-4.84661 -4.7183,-4.98824"
               style="fill:none;stroke:#000000;stroke-width:2.9847;stroke-linecap:round;stroke-linejoin:round;stroke-miterlimit:10;stroke-dasharray:none;stroke-opacity:1"
               id="path174"
               sodipodi:nodetypes="cccc" />
          </g>
        </g>
        <g
           id="g176"
           transform="matrix(1,0,0,-1,0,792)"
           style="stroke-width:2.35253">
          <g
             id="g178"
             style="stroke-width:2.35253">
            <path
               d="m 876.88934,490.17032 c 13.2676,-27.29339 17.75798,-59.45405 23.622,-87.50403 0.10912,-2.0765 -0.30997,-4.4167 -2.13724,-5.72814"
               style="fill:none;stroke:#000000;stroke-width:2.9847;stroke-linecap:round;stroke-linejoin:round;stroke-miterlimit:10;stroke-dasharray:none;stroke-opacity:1"
               id="path180"
               sodipodi:nodetypes="ccc" />
          </g>
        </g>
        <g
           id="g182"
           transform="matrix(1,0,0,-1,0,792)"
           style="stroke-width:2.35253">
          <g
             id="g184"
             style="stroke-width:2.35253">
            <path
               d="m 876.7738,491.84869 c -3.78089,-3.20529 -2.75083,-12.13111 -6.06292,-15.33584"
               style="fill:none;stroke:#000000;stroke-width:2.9847;stroke-linecap:round;stroke-linejoin:round;stroke-miterlimit:10;stroke-dasharray:none;stroke-opacity:1"
               id="path186"
               sodipodi:nodetypes="cc" />
          </g>
        </g>
        <g
           id="g188"
           transform="matrix(1,0,0,-1,0,792)"
           style="stroke-width:2.35253">
          <g
             id="g190"
             style="stroke-width:2.35253">
            <path
               d="m 870.71088,476.51285 c -6.35272,-2.0025 -9.01565,-11.06595 -9.32192,-16.93036"
               style="fill:none;stroke:#000000;stroke-width:2.9847;stroke-linecap:round;stroke-linejoin:round;stroke-miterlimit:10;stroke-dasharray:none;stroke-opacity:1"
               id="path192"
               sodipodi:nodetypes="cc" />
          </g>
        </g>
        <g
           id="g194"
           transform="matrix(1,0,0,-1,0,792)"
           style="stroke-width:2.35253">
          <g
             id="g196"
             style="stroke-width:2.35253">
            <path
               d="m 896.86548,395.03989 c -7.85477,9.47829 -16.47042,23.00179 -24.06383,31.5074"
               style="fill:none;stroke:#000000;stroke-width:2.9847;stroke-linecap:round;stroke-linejoin:round;stroke-miterlimit:10;stroke-dasharray:none;stroke-opacity:1"
               id="path198"
               sodipodi:nodetypes="cc" />
          </g>
        </g>
        <g
           id="g200"
           transform="matrix(1,0,0,-1,0,792)"
           style="stroke-width:2.35253">
          <g
             id="g202"
             style="stroke-width:2.35253">
            <path
               d="m 896.86548,395.03989 c 75.14404,19.1309 142.69472,48.86512 217.21102,70.0375"
               style="fill:none;stroke:#000000;stroke-width:2.9847;stroke-linecap:round;stroke-linejoin:round;stroke-miterlimit:10;stroke-dasharray:none;stroke-opacity:1"
               id="path204"
               sodipodi:nodetypes="cc" />
          </g>
        </g>
        <g
           id="g206"
           transform="matrix(1,0,0,-1,0,792)"
           style="stroke-width:2.35253">
          <g
             id="g208"
             style="stroke-width:2.35253">
            <path
               d="m 940.59192,491.70544 c 26.81946,7.66404 53.932,14.69521 80.48348,23.04196 10.0729,4.08656 15.0417,-33.60642 15.0417,-33.60642 3.9838,-11.64561 7.6188,-23.97332 -10.4115,-30.65537 -15.6126,-3.34093 -30.62567,-8.91814 -45.79,-13.83774 0,0 -24.7256,-10.77572 -28.70844,3.08896 -6.00811,17.31864 -7.41127,34.20159 -10.61524,51.96861"
               style="fill:none;stroke:#000000;stroke-width:2.9847;stroke-linecap:round;stroke-linejoin:round;stroke-miterlimit:10;stroke-dasharray:none;stroke-opacity:1"
               id="path210"
               sodipodi:nodetypes="ccccccc" />
          </g>
        </g>
        <g
           id="g212"
           transform="matrix(1,0,0,-1,0,792)"
           style="stroke-width:2.35253">
          <g
             id="g214"
             style="stroke-width:2.35253">
            <path
               d="m 1072.4882,524.46746 c 9.5739,-5.10945 15.3805,-8.22772 17.197,-23.58705 2.8863,-15.16151 -13.4001,-35.39085 -28.6649,-23.87607 -13.5441,8.91427 -16.0583,29.96468 -6.9885,42.82456 4.08,4.97693 12.664,8.18943 18.4564,4.63856"
               style="fill:none;stroke:#000000;stroke-width:2.9847;stroke-linecap:round;stroke-linejoin:round;stroke-miterlimit:10;stroke-dasharray:none;stroke-opacity:1"
               id="path216"
               sodipodi:nodetypes="ccccc" />
          </g>
        </g>
        <g
           id="g218"
           transform="matrix(1,0,0,-1,0,792)"
           style="stroke-width:2.35253">
          <g
             id="g220"
             style="stroke-width:2.35253">
            <path
               d="m 1070.1089,507.56299 c 10.2737,1.8009 16.3971,-16.76064 4.6547,-21.18349 -14.3784,-6.26558 -21.6051,21.33458 -4.6547,21.18349"
               style="fill:none;stroke:#000000;stroke-width:2.9847;stroke-linecap:round;stroke-linejoin:round;stroke-miterlimit:10;stroke-dasharray:none;stroke-opacity:1"
               id="path222"
               sodipodi:nodetypes="ccc" />
          </g>
        </g>
        <g
           id="g224"
           transform="matrix(1,0,0,-1,0,792)"
           style="stroke-width:2.35253">
          <g
             id="g226"
             style="stroke-width:2.35253">
            <path
               d="m 916.28247,399.43286 c -1.63127,16.8965 -7.8225,32.94219 -9.77815,49.807 -3.33363,14.54362 -6.93413,29.10967 -11.56164,43.22472 l -1.02981,1.25319 -1.45366,0.88592"
               style="fill:none;stroke:#000000;stroke-width:1.49235;stroke-linecap:round;stroke-linejoin:round;stroke-miterlimit:10;stroke-dasharray:none;stroke-opacity:1"
               id="path228" />
          </g>
        </g>
        <g
           id="g230"
           transform="matrix(1,0,0,-1,0,792)"
           style="stroke-width:2.35253">
          <g
             id="g232"
             style="stroke-width:2.35253">
            <path
               d="m 879.33203,474.18188 c -6.76637,4.59096 -1.04336,-11.37926 1.93479,-11.09312"
               style="fill:none;stroke:#000000;stroke-width:1.49235;stroke-linecap:round;stroke-linejoin:round;stroke-miterlimit:10;stroke-dasharray:none;stroke-opacity:1"
               id="path234" />
          </g>
        </g>
        <g
           id="g236"
           transform="matrix(1,0,0,-1,0,792)"
           style="stroke-width:2.35253">
          <g
             id="g238"
             style="stroke-width:2.35253">
            <path
               d="m 859.63544,456.29272 c 8.86523,7.14088 25.93926,7.54388 26.93873,-6.94404 6.07337,-11.35272 -0.94518,-21.93951 -13.4397,-22.34734 -11.81759,-5.46631 -30.04018,-10.20293 -38.56912,2.98277 -10.55881,15.49958 7.35022,28.96657 22.33654,27.26023 3.99025,0.41551 8.00742,0.68767 11.94723,1.48119"
               style="fill:none;stroke:#000000;stroke-width:1.49235;stroke-linecap:round;stroke-linejoin:round;stroke-miterlimit:10;stroke-dasharray:none;stroke-opacity:1"
               id="path240" />
          </g>
        </g>
        <g
           id="g242"
           transform="matrix(1,0,0,-1,0,792)"
           style="stroke-width:2.35253">
          <g
             id="g244"
             style="stroke-width:2.35253">
            <path
               d="m 845.64196,455.89743 c -10.88095,-4.87774 -16.82601,-21.32272 -4.91425,-29.31354 3.00065,-2.63749 6.86187,-4.7634 10.9839,-4.46483"
               style="fill:none;stroke:#000000;stroke-width:1.49235;stroke-linecap:round;stroke-linejoin:round;stroke-miterlimit:10;stroke-dasharray:none;stroke-opacity:1"
               id="path246"
               sodipodi:nodetypes="ccc" />
          </g>
        </g>
        <g
           id="g248"
           transform="matrix(1,0,0,-1,0,792)"
           style="stroke-width:2.35253">
          <g
             id="g250"
             style="stroke-width:2.35253">
            <path
               d="m 846.49963,444.43616 c -12.36442,-11.58639 16.87045,-22.1902 13.17322,-4.61656 -0.6115,8.44165 -7.21507,8.2915 -13.17322,4.61656"
               style="fill:none;stroke:#000000;stroke-width:1.49235;stroke-linecap:round;stroke-linejoin:round;stroke-miterlimit:10;stroke-dasharray:none;stroke-opacity:1"
               id="path252"
               sodipodi:nodetypes="ccc" />
          </g>
        </g>
        <g
           id="g254"
           transform="matrix(1,0,0,-1,0,792)"
           style="stroke-width:2.35253">
          <g
             id="g256"
             style="stroke-width:2.35253">
            <path
               d="m 856.90189,457.24434 c 11.23775,-3.85779 18.71198,-21.90704 14.48043,-30.62602"
               style="fill:none;stroke:#000000;stroke-width:1.49235;stroke-linecap:round;stroke-linejoin:round;stroke-miterlimit:10;stroke-dasharray:none;stroke-opacity:1"
               id="path258"
               sodipodi:nodetypes="cc" />
          </g>
        </g>
        <g
           id="g260"
           transform="matrix(1,0,0,-1,0,792)"
           style="stroke-width:2.35253">
          <g
             id="g262"
             style="stroke-width:2.35253">
            <path
               d="m 868.84912,458.72553 c 8.4759,-6.29008 15.44735,-20.82152 9.85186,-30.68589"
               style="fill:none;stroke:#000000;stroke-width:1.49235;stroke-linecap:round;stroke-linejoin:round;stroke-miterlimit:10;stroke-dasharray:none;stroke-opacity:1"
               id="path264"
               sodipodi:nodetypes="cc" />
          </g>
        </g>
        <g
           id="g266"
           transform="matrix(1,0,0,-1,0,792)"
           style="stroke-width:2.35253">
          <g
             id="g268"
             style="stroke-width:2.35253">
            <path
               d="m 883.55823,417.28809 c -4.48458,8.97958 6.50017,6.33861 2.1202,-0.85769 -0.96948,-0.88423 -2.32444,-0.3255 -2.96491,0.56225"
               style="fill:none;stroke:#000000;stroke-width:1.49235;stroke-linecap:round;stroke-linejoin:round;stroke-miterlimit:10;stroke-dasharray:none;stroke-opacity:1"
               id="path270" />
          </g>
        </g>
        <g
           id="g272"
           transform="matrix(1,0,0,-1,0,792)"
           style="stroke-width:2.35253">
          <g
             id="g274"
             style="stroke-width:2.35253">
            <path
               d="m 921.67523,451.57822 c 2.71241,-7.93636 -0.75245,4.45917 0.0847,-0.42557"
               style="fill:none;stroke:#000000;stroke-width:1.49235;stroke-linecap:round;stroke-linejoin:round;stroke-miterlimit:10;stroke-dasharray:none;stroke-opacity:1"
               id="path276" />
          </g>
        </g>
        <g
           id="g278"
           transform="matrix(1,0,0,-1,0,792)"
           style="stroke-width:2.35253">
          <g
             id="g280"
             style="stroke-width:2.35253">
            <path
               d="m 1067.301,500.62573 c 8.8208,4.06537 13.305,-9.99582 3.3454,-7.61944 -2.5283,-0.41325 -5.6733,10.43489 -1.5144,6.97464"
               style="fill:none;stroke:#000000;stroke-width:1.49235;stroke-linecap:round;stroke-linejoin:round;stroke-miterlimit:10;stroke-dasharray:none;stroke-opacity:1"
               id="path282" />
          </g>
        </g>
        <g
           id="g284"
           transform="matrix(1,0,0,-1,0,792)"
           style="stroke-width:2.35253">
          <g
             id="g286"
             style="stroke-width:2.35253">
            <path
               d="m 1071.7612,498.78506 c -2.6712,-4.64903 5.831,0.12647 -0.3195,0.0125"
               style="fill:none;stroke:#000000;stroke-width:1.49235;stroke-linecap:round;stroke-linejoin:round;stroke-miterlimit:10;stroke-dasharray:none;stroke-opacity:1"
               id="path288" />
          </g>
        </g>
        <g
           id="g290"
           transform="matrix(1,0,0,-1,0,792)"
           style="stroke-width:2.35253">
          <g
             id="g292"
             style="stroke-width:2.35253">
            <path
               d="m 1040.7819,492.3139 c -2.1662,15.23004 4.2778,34.39711 21.8554,36.1242"
               style="fill:none;stroke:#000000;stroke-width:1.49235;stroke-linecap:round;stroke-linejoin:round;stroke-miterlimit:10;stroke-dasharray:none;stroke-opacity:1"
               id="path294" />
          </g>
        </g>
        <g
           id="g296"
           transform="matrix(1,0,0,-1,0,792)"
           style="stroke-width:2.35253">
          <g
             id="g298"
             style="stroke-width:2.35253">
            <path
               d="m 1086.9602,549.53113 c 11.1098,-9.81972 9.6143,-26.10541 12.9033,-39.35981 2.0876,-13.49694 4.7503,-26.90455 6.4735,-40.45731 -1.1521,-4.92612 -9.9974,-10.69195 -14.8162,-11.80018"
               style="fill:none;stroke:#000000;stroke-width:1.49235;stroke-linecap:round;stroke-linejoin:round;stroke-miterlimit:10;stroke-dasharray:none;stroke-opacity:1"
               id="path300"
               sodipodi:nodetypes="cccc" />
          </g>
        </g>
        <g
           id="g302"
           transform="matrix(1,0,0,-1,0,792)"
           style="stroke-width:2.35253">
          <g
             id="g304"
             style="stroke-width:2.35253">
            <path
               d="m 949.62701,488.66998 c 23.25044,6.95345 46.73897,13.31047 69.90069,20.42627 6.2146,-5.37377 7.6519,-17.52852 12.4343,-30.00374 6.5996,-14.6563 -12.0049,-16.054 -20.9195,-21.21756 -15.1693,-5.45419 -31.32459,-7.57961 -46.75216,-11.95435 -10.04218,6.53401 -12.21397,33.18769 -12.21397,33.18769 -1.08025,4.20738 -2.44936,9.56169 -2.44936,9.56169"
               style="fill:none;stroke:#000000;stroke-width:1.49235;stroke-linecap:round;stroke-linejoin:round;stroke-miterlimit:10;stroke-dasharray:none;stroke-opacity:1"
               id="path306"
               sodipodi:nodetypes="ccccccc" />
          </g>
        </g>
        <g
           id="g308"
           transform="matrix(1,0,0,-1,0,792)"
           style="stroke-width:2.35253">
          <g
             id="g310"
             style="stroke-width:2.35253">
            <path
               d="m 966.88092,436.60327 c 0.67132,2.35402 4.15892,1.58621 5.79964,2.86236"
               style="fill:none;stroke:#000000;stroke-width:1.49235;stroke-linecap:round;stroke-linejoin:round;stroke-miterlimit:10;stroke-dasharray:none;stroke-opacity:1"
               id="path312" />
          </g>
        </g>
        <g
           id="g314"
           transform="matrix(1,0,0,-1,0,792)"
           style="stroke-width:2.35253">
          <g
             id="g316"
             style="stroke-width:2.35253">
            <path
               d="m 986.25739,442.66046 c 3.32868,0.37858 6.90425,0.84436 9.75138,2.74152"
               style="fill:none;stroke:#000000;stroke-width:1.49235;stroke-linecap:round;stroke-linejoin:round;stroke-miterlimit:10;stroke-dasharray:none;stroke-opacity:1"
               id="path318" />
          </g>
        </g>
        <g
           id="g320"
           transform="matrix(1,0,0,-1,0,792)"
           style="stroke-width:2.35253">
          <g
             id="g322"
             style="stroke-width:2.35253">
            <path
               d="m 1008.6004,449.40671 c 6.9367,2.08771 13.3456,5.59401 20.2516,7.76095"
               style="fill:none;stroke:#000000;stroke-width:1.49235;stroke-linecap:round;stroke-linejoin:round;stroke-miterlimit:10;stroke-dasharray:none;stroke-opacity:1"
               id="path324" />
          </g>
        </g>
      </g>
    </g>
  </g>
</svg>
