<?xml version="1.0" encoding="UTF-8" standalone="no"?>
<!-- Created by Ashley Blewer - This work is licensed under a Creative Commons Attribution 4.0 International License -->

<svg
   width="544"
   height="480"
   viewBox="0 0 143.93334 127"
   version="1.1"
   id="svg2490"
   inkscape:version="1.2.2 (1:1.2.2+202212051552+b0a8486541)"
   sodipodi:docname="1996-digital-media-player.svg"
   xmlns:inkscape="http://www.inkscape.org/namespaces/inkscape"
   xmlns:sodipodi="http://sodipodi.sourceforge.net/DTD/sodipodi-0.dtd"
   xmlns="http://www.w3.org/2000/svg"
   xmlns:svg="http://www.w3.org/2000/svg">
  <sodipodi:namedview
     id="namedview2492"
     pagecolor="#ffffff"
     bordercolor="#666666"
     borderopacity="1.0"
     inkscape:pageshadow="2"
     inkscape:pageopacity="0.0"
     inkscape:pagecheckerboard="0"
     inkscape:document-units="mm"
     showgrid="false"
     units="px"
     inkscape:zoom="0.90583674"
     inkscape:cx="53.541657"
     inkscape:cy="121.98666"
     inkscape:window-width="1846"
     inkscape:window-height="1136"
     inkscape:window-x="0"
     inkscape:window-y="0"
     inkscape:window-maximized="1"
     inkscape:current-layer="g4731"
     inkscape:showpageshadow="2"
     inkscape:deskcolor="#d1d1d1" />
  <defs
     id="defs2487" />
  <g
     inkscape:label="Layer 1"
     inkscape:groupmode="layer"
     id="layer1">
    <g
       id="g4731"
       transform="matrix(0.32961229,0,0,0.32903008,-241.78905,1.73126)"
       style="stroke-width:2.68698">
      <g
         id="g104528"
         transform="matrix(1,0,0,-1,0,792)"
         style="stroke-width:2.68698">
        <g
           id="g104530"
           style="stroke-width:2.68698" />
      </g>
      <g
         id="g104996"
         transform="matrix(1,0,0,-1,0,792)"
         style="stroke-width:2.68698">
        <g
           id="g104998"
           style="stroke-width:2.68698" />
      </g>
      <g
         id="g2321"
         transform="matrix(1.7214259,0,0,1.7233483,-166.13444,-316.24551)"
         style="stroke-width:2.35253">
        <g
           id="g68"
           transform="matrix(1,0,0,-1,0,792)"
           style="stroke-width:2.35253">
          <g
             id="g70"
             style="stroke-width:2.35253">
            <path
               d="m 555.84357,408.70721 c -2.16773,48.40807 -5.79318,97.48566 -1.40602,145.63431 l 0.53295,1.60088"
               style="fill:none;stroke:#000000;stroke-width:2.9847;stroke-linecap:round;stroke-linejoin:round;stroke-miterlimit:10;stroke-dasharray:none;stroke-opacity:1"
               id="path72" />
          </g>
        </g>
        <g
           id="g74"
           transform="matrix(1,0,0,-1,0,792)"
           style="stroke-width:2.35253">
          <g
             id="g76"
             style="stroke-width:2.35253">
            <path
               d="m 554.9705,555.9424 c 1.42939,0.5453 11.71704,4.42991 13.14577,4.97674"
               style="fill:none;stroke:#000000;stroke-width:2.9847;stroke-linecap:round;stroke-linejoin:round;stroke-miterlimit:10;stroke-dasharray:none;stroke-opacity:1"
               id="path78"
               sodipodi:nodetypes="cc" />
          </g>
        </g>
        <g
           id="g80"
           transform="matrix(1,0,0,-1,0,792)"
           style="stroke-width:2.35253">
          <g
             id="g82"
             style="stroke-width:2.35253">
            <path
               d="m 570.70074,562.23737 c -24.1318,-0.16887 -29.09885,-22.72957 -26.4878,-46.99635 l 0.16519,-67.57582 c 0.8956,-9.47008 3.77921,-19.06842 10.08067,-26.3913"
               style="fill:none;stroke:#000000;stroke-width:2.9847;stroke-linecap:round;stroke-linejoin:round;stroke-miterlimit:10;stroke-dasharray:none;stroke-opacity:1"
               id="path84"
               sodipodi:nodetypes="cccc" />
          </g>
        </g>
        <g
           id="g86"
           transform="matrix(1,0,0,-1,0,792)"
           style="stroke-width:2.35253">
          <g
             id="g88"
             style="stroke-width:2.35253">
            <path
               d="m 568.11627,560.91914 c 9.20631,8.36337 25.23297,7.12247 36.20151,4.79768"
               style="fill:none;stroke:#000000;stroke-width:2.9847;stroke-linecap:round;stroke-linejoin:round;stroke-miterlimit:10;stroke-dasharray:none;stroke-opacity:1"
               id="path90"
               sodipodi:nodetypes="cc" />
          </g>
        </g>
        <g
           id="g92"
           transform="matrix(1,0,0,-1,0,792)"
           style="stroke-width:2.35253">
          <g
             id="g94"
             style="stroke-width:2.35253">
            <path
               d="m 604.31778,565.71682 c 26.2549,3.79461 58.01342,6.52178 84.36722,9.40269"
               style="fill:none;stroke:#000000;stroke-width:2.9847;stroke-linecap:round;stroke-linejoin:round;stroke-miterlimit:10;stroke-dasharray:none;stroke-opacity:1"
               id="path96"
               sodipodi:nodetypes="cc" />
          </g>
        </g>
        <g
           id="g98"
           transform="matrix(1,0,0,-1,0,792)"
           style="stroke-width:2.35253">
          <g
             id="g100"
             style="stroke-width:2.35253">
            <path
               d="m 688.685,575.11951 c 3.86538,9.75614 16.32354,4.38222 23.94135,6.69665"
               style="fill:none;stroke:#000000;stroke-width:2.9847;stroke-linecap:round;stroke-linejoin:round;stroke-miterlimit:10;stroke-dasharray:none;stroke-opacity:1"
               id="path102" />
          </g>
        </g>
        <g
           id="g104"
           transform="matrix(1,0,0,-1,0,792)"
           style="stroke-width:2.35253">
          <g
             id="g106"
             style="stroke-width:2.35253">
            <path
               d="m 713.22943,581.08954 c 0.1733,-0.62927 -0.017,0.0619 0,0"
               style="fill:none;stroke:#000000;stroke-width:2.9847;stroke-linecap:round;stroke-linejoin:round;stroke-miterlimit:10;stroke-dasharray:none;stroke-opacity:1"
               id="path108"
               sodipodi:nodetypes="cc" />
          </g>
        </g>
        <g
           id="g110"
           transform="matrix(1,0,0,-1,0,792)"
           style="stroke-width:2.35253">
          <g
             id="g112"
             style="stroke-width:2.35253">
            <path
               d="m 713.22943,581.08954 12.80658,-1.453"
               style="fill:none;stroke:#000000;stroke-width:2.9847;stroke-linecap:round;stroke-linejoin:round;stroke-miterlimit:10;stroke-dasharray:none;stroke-opacity:1"
               id="path114"
               sodipodi:nodetypes="cc" />
          </g>
        </g>
        <g
           id="g116"
           transform="matrix(1,0,0,-1,0,792)"
           style="stroke-width:2.35253">
          <g
             id="g118"
             style="stroke-width:2.35253">
            <path
               d="m 712.62635,581.81616 c 2.13794,0.0922 11.27172,-2.2718 13.40966,-2.17962"
               style="fill:none;stroke:#000000;stroke-width:2.9847;stroke-linecap:round;stroke-linejoin:round;stroke-miterlimit:10;stroke-dasharray:none;stroke-opacity:1"
               id="path120"
               sodipodi:nodetypes="cc" />
          </g>
        </g>
        <g
           id="g122"
           transform="matrix(1,0,0,-1,0,792)"
           style="stroke-width:2.35253">
          <g
             id="g124"
             style="stroke-width:2.35253">
            <path
               d="m 591.18965,567.85038 c 0,0 71.15498,6.77528 100.25702,11.13517"
               style="fill:none;stroke:#000000;stroke-width:2.9847;stroke-linecap:round;stroke-linejoin:round;stroke-miterlimit:10;stroke-dasharray:none;stroke-opacity:1"
               id="path126"
               sodipodi:nodetypes="cc" />
          </g>
        </g>
        <g
           id="g128"
           transform="matrix(1,0,0,-1,0,792)"
           style="stroke-width:2.35253">
          <g
             id="g130"
             style="stroke-width:2.35253">
            <path
               d="m 726.03601,579.63654 c 7.734,-1.46516 20.62659,6.75834 24.58727,-3.88906"
               style="fill:none;stroke:#000000;stroke-width:2.9847;stroke-linecap:round;stroke-linejoin:round;stroke-miterlimit:10;stroke-dasharray:none;stroke-opacity:1"
               id="path132" />
          </g>
        </g>
        <g
           id="g134"
           transform="matrix(1,0,0,-1,0,792)"
           style="stroke-width:2.35253">
          <g
             id="g136"
             style="stroke-width:2.35253">
            <path
               d="m 556.43237,554.56989 c 52.32468,-3.14208 155.3624,15.9005 155.3624,15.9005 12.76527,1.65993 25.50567,3.57178 38.12419,6.13341"
               style="fill:none;stroke:#000000;stroke-width:2.9847;stroke-linecap:round;stroke-linejoin:round;stroke-miterlimit:10;stroke-dasharray:none;stroke-opacity:1"
               id="path138"
               sodipodi:nodetypes="ccc" />
          </g>
        </g>
        <g
           id="g140"
           transform="matrix(1,0,0,-1,0,792)"
           style="stroke-width:2.35253">
          <g
             id="g142"
             style="stroke-width:2.35253">
            <path
               d="m 555.84357,408.70721 c 68.57206,0.94477 131.4648,11.59634 193.76251,22.84076"
               style="fill:none;stroke:#000000;stroke-width:2.9847;stroke-linecap:round;stroke-linejoin:round;stroke-miterlimit:10;stroke-dasharray:none;stroke-opacity:1"
               id="path144"
               sodipodi:nodetypes="cc" />
          </g>
        </g>
        <g
           id="g146"
           transform="matrix(1,0,0,-1,0,792)"
           style="stroke-width:2.35253">
          <g
             id="g148"
             style="stroke-width:2.35253">
            <path
               d="m 749.60608,431.54797 c 9.04748,45.00638 2.75043,91.07032 5.76794,136.52651 l -1.56763,5.0528 -3.70002,3.70464"
               style="fill:none;stroke:#000000;stroke-width:2.9847;stroke-linecap:round;stroke-linejoin:round;stroke-miterlimit:10;stroke-dasharray:none;stroke-opacity:1"
               id="path150" />
          </g>
        </g>
        <g
           id="g152"
           transform="matrix(1,0,0,-1,0,792)"
           style="stroke-width:2.35253">
          <g
             id="g154"
             style="stroke-width:2.35253">
            <path
               d="m 685.68992,553.23721 c 38.85374,2.45389 64.18863,-49.76241 46.84887,-84.30753 -13.99082,-41.40994 -78.85011,-51.943 -97.45008,-9.00435 -18.47734,37.20477 6.89577,91.46355 50.60121,93.31188"
               style="fill:none;stroke:#000000;stroke-width:2.9847;stroke-linecap:round;stroke-linejoin:round;stroke-miterlimit:10;stroke-dasharray:none;stroke-opacity:1"
               id="path156"
               sodipodi:nodetypes="cccc" />
          </g>
        </g>
        <g
           id="g158"
           transform="matrix(1,0,0,-1,0,792)"
           style="stroke-width:2.35253">
          <g
             id="g160"
             style="stroke-width:2.35253">
            <path
               d="m 678.4826,526.48163 c 45.35808,17.26807 54.62007,-67.05168 9.52466,-69.59109 -39.91155,-3.94866 -41.12382,58.86944 -9.52466,69.59109 v 0"
               style="fill:none;stroke:#000000;stroke-width:2.9847;stroke-linecap:round;stroke-linejoin:round;stroke-miterlimit:10;stroke-dasharray:none;stroke-opacity:1"
               id="path162"
               sodipodi:nodetypes="cccc" />
          </g>
        </g>
        <g
           id="g326"
           transform="matrix(1,0,0,-1,0,792)"
           style="stroke-width:2.35253">
          <g
             id="g328"
             style="stroke-width:2.35253">
            <path
               d="m 684.84778,545.32477 c 0.029,-1.40999 0.1464,-7.04984 0.17615,-8.45978"
               style="fill:none;stroke:#000000;stroke-width:1.49235;stroke-linecap:round;stroke-linejoin:round;stroke-miterlimit:10;stroke-dasharray:none;stroke-opacity:1"
               id="path330" />
          </g>
        </g>
        <g
           id="g332"
           transform="matrix(1,0,0,-1,0,792)"
           style="stroke-width:2.35253">
          <g
             id="g334"
             style="stroke-width:2.35253">
            <path
               d="m 679.61346,540.25397 c 1.68606,0.084 8.42995,0.42444 10.11583,0.51062"
               style="fill:none;stroke:#000000;stroke-width:1.49235;stroke-linecap:round;stroke-linejoin:round;stroke-miterlimit:10;stroke-dasharray:none;stroke-opacity:1"
               id="path336" />
          </g>
        </g>
        <g
           id="g338"
           transform="matrix(1,0,0,-1,0,792)"
           style="stroke-width:2.35253">
          <g
             id="g340"
             style="stroke-width:2.35253">
            <path
               d="m 642.50793,490.16302 c -5.39022,0.79673 -1.55323,-6.41018 1.62003,-4.69006"
               style="fill:none;stroke:#000000;stroke-width:1.49235;stroke-linecap:round;stroke-linejoin:round;stroke-miterlimit:10;stroke-dasharray:none;stroke-opacity:1"
               id="path342" />
          </g>
        </g>
        <g
           id="g344"
           transform="matrix(1,0,0,-1,0,792)"
           style="stroke-width:2.35253">
          <g
             id="g346"
             style="stroke-width:2.35253">
            <path
               d="m 723.31036,500.53326 c 5.15805,2.66704 5.09373,-7.13939 0.0896,-5.45921"
               style="fill:none;stroke:#000000;stroke-width:1.49235;stroke-linecap:round;stroke-linejoin:round;stroke-miterlimit:10;stroke-dasharray:none;stroke-opacity:1"
               id="path348" />
          </g>
        </g>
        <g
           id="g350"
           transform="matrix(1,0,0,-1,0,792)"
           style="stroke-width:2.35253">
          <g
             id="g352"
             style="stroke-width:2.35253">
            <path
               d="m 675.81372,498.0499 c 18.87894,0.30162 -7.11684,-19.15884 -1.21255,0.61729"
               style="fill:none;stroke:#000000;stroke-width:1.49235;stroke-linecap:round;stroke-linejoin:round;stroke-miterlimit:10;stroke-dasharray:none;stroke-opacity:1"
               id="path354" />
          </g>
        </g>
        <g
           id="g356"
           transform="matrix(1,0,0,-1,0,792)"
           style="stroke-width:2.35253">
          <g
             id="g358"
             style="stroke-width:2.35253">
            <path
               d="m 689.03528,498.9993 c 0.20931,-1.43438 1.04529,-7.1721 1.25396,-8.60657"
               style="fill:none;stroke:#000000;stroke-width:1.49235;stroke-linecap:round;stroke-linejoin:round;stroke-miterlimit:10;stroke-dasharray:none;stroke-opacity:1"
               id="path360" />
          </g>
        </g>
        <g
           id="g362"
           transform="matrix(1,0,0,-1,0,792)"
           style="stroke-width:2.35253">
          <g
             id="g364"
             style="stroke-width:2.35253">
            <path
               d="m 696.13062,498.8952 c 0.32012,-1.54688 1.55269,-7.74258 1.84886,-9.29355"
               style="fill:none;stroke:#000000;stroke-width:1.49235;stroke-linecap:round;stroke-linejoin:round;stroke-miterlimit:10;stroke-dasharray:none;stroke-opacity:1"
               id="path366" />
          </g>
        </g>
        <g
           id="g368"
           transform="matrix(1,0,0,-1,0,792)"
           style="stroke-width:2.35253">
          <g
             id="g370"
             style="stroke-width:2.35253">
            <path
               d="m 684.07233,444.9158 c 0.61569,-1.55706 1.23138,-3.11412 1.84707,-4.67118"
               style="fill:none;stroke:#000000;stroke-width:1.49235;stroke-linecap:round;stroke-linejoin:round;stroke-miterlimit:10;stroke-dasharray:none;stroke-opacity:1"
               id="path372" />
          </g>
        </g>
        <g
           id="g374"
           transform="matrix(1,0,0,-1,0,792)"
           style="stroke-width:2.35253">
          <g
             id="g376"
             style="stroke-width:2.35253">
            <path
               d="m 683.72339,445.4187 c 8.17621,7.74731 14.01281,-12.61321 2.19601,-5.17408"
               style="fill:none;stroke:#000000;stroke-width:1.49235;stroke-linecap:round;stroke-linejoin:round;stroke-miterlimit:10;stroke-dasharray:none;stroke-opacity:1"
               id="path378"
               sodipodi:nodetypes="cc" />
          </g>
        </g>
      </g>
    </g>
  </g>
</svg>
