<?xml version="1.0" encoding="UTF-8" standalone="no"?>
<!-- Created by Ashley Blewer - This work is licensed under a Creative Commons Attribution 4.0 International License -->

<svg
   width="544"
   height="480"
   viewBox="0 0 143.93334 127"
   version="1.1"
   id="svg2490"
   inkscape:version="1.2.2 (1:1.2.2+202212051552+b0a8486541)"
   sodipodi:docname="1996-digital-media-player-3.svg"
   xmlns:inkscape="http://www.inkscape.org/namespaces/inkscape"
   xmlns:sodipodi="http://sodipodi.sourceforge.net/DTD/sodipodi-0.dtd"
   xmlns="http://www.w3.org/2000/svg"
   xmlns:svg="http://www.w3.org/2000/svg">
  <sodipodi:namedview
     id="namedview2492"
     pagecolor="#ffffff"
     bordercolor="#666666"
     borderopacity="1.0"
     inkscape:pageshadow="2"
     inkscape:pageopacity="0.0"
     inkscape:pagecheckerboard="0"
     inkscape:document-units="mm"
     showgrid="false"
     units="px"
     inkscape:zoom="0.90583674"
     inkscape:cx="53.541657"
     inkscape:cy="121.98666"
     inkscape:window-width="1846"
     inkscape:window-height="1136"
     inkscape:window-x="0"
     inkscape:window-y="0"
     inkscape:window-maximized="1"
     inkscape:current-layer="g4731"
     inkscape:showpageshadow="2"
     inkscape:deskcolor="#d1d1d1" />
  <defs
     id="defs2487" />
  <g
     inkscape:label="Layer 1"
     inkscape:groupmode="layer"
     id="layer1">
    <g
       id="g4731"
       transform="matrix(0.32961229,0,0,0.32903008,-241.78905,1.73126)"
       style="stroke-width:2.68698">
      <g
         id="g104528"
         transform="matrix(1,0,0,-1,0,792)"
         style="stroke-width:2.68698">
        <g
           id="g104530"
           style="stroke-width:2.68698" />
      </g>
      <g
         id="g104996"
         transform="matrix(1,0,0,-1,0,792)"
         style="stroke-width:2.68698">
        <g
           id="g104998"
           style="stroke-width:2.68698" />
      </g>
      <g
         id="g2559"
         transform="matrix(1.505081,0,0,1.5067618,-288.44916,-692.91167)"
         style="stroke-width:2.35253">
        <g
           id="g380"
           transform="matrix(1,0,0,-1,0,792)"
           style="stroke-width:2.35253">
          <g
             id="g382"
             style="stroke-width:2.35253">
            <path
               d="m 783.18728,297.98826 c -18.70957,3.60578 -24.60313,-13.93979 -26.24991,-33.71114 -1.42706,-44.0417 -3.75019,-88.045 -5.52116,-132.05896 -3.59586,-26.50082 39.45527,-21.02223 39.45527,-21.02223 0,0 55.26111,-3.7458 82.89744,-5.30343 19.71964,-2.85927 15.88475,21.45038 17.83424,33.84956 -0.14332,48.10661 -2.40492,96.34819 -0.53886,144.3627 -1.59784,14.07216 -15.13585,14.20467 -26.10246,12.64295"
               style="fill:none;stroke:#000000;stroke-width:2.9847;stroke-linecap:round;stroke-linejoin:round;stroke-miterlimit:10;stroke-dasharray:none;stroke-opacity:1"
               id="path384"
               sodipodi:nodetypes="cccccccc" />
          </g>
        </g>
        <g
           id="g386"
           transform="matrix(1,0,0,-1,0,792)"
           style="stroke-width:2.35253">
          <g
             id="g388"
             style="stroke-width:2.35253">
            <path
               d="m 777.44122,219.75055 -0.0156,40.35677 c 0,0 -2.93935,33.60127 10.47903,39.58189 15.32544,1.2463 30.74936,-0.17402 46.08662,-0.16758 12.26858,-2.14343 28.79964,1.3443 38.19023,-6.68558 3.87872,-17.33405 2.39773,-52.58902 2.39773,-52.58902 l -2.39483,-21.79561"
               style="fill:none;stroke:#000000;stroke-width:2.9847;stroke-linecap:round;stroke-linejoin:round;stroke-miterlimit:10;stroke-dasharray:none;stroke-opacity:1"
               id="path390"
               sodipodi:nodetypes="ccccccc" />
          </g>
        </g>
        <g
           id="g392"
           transform="matrix(1,0,0,-1,0,792)"
           style="stroke-width:2.35253">
          <g
             id="g394"
             style="stroke-width:2.35253">
            <path
               d="m 752.67989,121.21254 c -3.51782,-12.67201 10.03039,-24.040872 21.42991,-23.093825 35.54367,-1.211308 71.08697,-4.017253 106.66138,-3.23 8.65469,0.686136 10.9511,14.153465 7.4698,21.794575"
               style="fill:none;stroke:#000000;stroke-width:2.9847;stroke-linecap:round;stroke-linejoin:round;stroke-miterlimit:10;stroke-dasharray:none;stroke-opacity:1"
               id="path396"
               sodipodi:nodetypes="cccc" />
          </g>
        </g>
        <g
           id="g398"
           transform="matrix(1,0,0,-1,0,792)"
           style="stroke-width:2.35253">
          <g
             id="g400"
             style="stroke-width:2.35253">
            <path
               d="m 888.98715,104.17494 c 0.81141,4.57895 6.20733,55.79345 6.81035,83.49388 0.34441,13.75262 -0.003,27.51821 0.156,41.2217 1.09458,14.90882 1.27499,29.77727 0.78554,44.71434 0,0 0.59042,21.43643 -12.75637,21.43643"
               style="fill:none;stroke:#000000;stroke-width:2.9847;stroke-linecap:round;stroke-linejoin:round;stroke-miterlimit:10;stroke-dasharray:none;stroke-opacity:1"
               id="path402"
               sodipodi:nodetypes="ccccc" />
          </g>
        </g>
        <g
           id="g404"
           transform="matrix(1,0,0,-1,0,792)"
           style="stroke-width:2.35253">
          <g
             id="g406"
             style="stroke-width:2.35253">
            <path
               d="m 790.5036,254.1768 c 1.27804,10.33413 -11.42576,25.47748 12.34017,23.09221 12.86836,-0.69669 25.58344,0.19861 38.45243,-0.73827 6.70683,-0.29455 13.63169,0.89403 20.12894,-1.25787"
               style="fill:none;stroke:#000000;stroke-width:2.9847;stroke-linecap:round;stroke-linejoin:round;stroke-miterlimit:10;stroke-dasharray:none;stroke-opacity:1"
               id="path408"
               sodipodi:nodetypes="cccc" />
          </g>
        </g>
        <g
           id="g410"
           transform="matrix(1,0,0,-1,0,792)"
           style="stroke-width:2.35253">
          <g
             id="g412"
             style="stroke-width:2.35253">
            <path
               d="m 862.03931,274.52515 c 0.18845,-5.98788 -0.55974,-13.00408 -1.11659,-18.08435"
               style="fill:none;stroke:#000000;stroke-width:2.9847;stroke-linecap:round;stroke-linejoin:round;stroke-miterlimit:10;stroke-dasharray:none;stroke-opacity:1"
               id="path414" />
          </g>
        </g>
        <g
           id="g416"
           transform="matrix(1,0,0,-1,0,792)"
           style="stroke-width:2.35253">
          <g
             id="g418"
             style="stroke-width:2.35253">
            <path
               d="m 792.06915,253.90608 c 22.15227,-0.3019 44.33614,2.11091 66.49219,1.18551 -1.48743,0.31609 1.47686,-0.71639 0.88778,-0.45381"
               style="fill:none;stroke:#000000;stroke-width:2.9847;stroke-linecap:round;stroke-linejoin:round;stroke-miterlimit:10;stroke-dasharray:none;stroke-opacity:1"
               id="path420" />
          </g>
        </g>
        <g
           id="g422"
           transform="matrix(1,0,0,-1,0,792)"
           style="stroke-width:2.35253">
          <g
             id="g424"
             style="stroke-width:2.35253">
            <path
               d="m 809.16211,239.21883 c 29.63661,9.23386 67.98245,-9.85 69.47475,-43.14198 0.0444,-24.90126 -13.0966,-53.90349 -37.20536,-63.63371 -31.52852,-10.72842 -69.27643,11.71581 -72.90777,45.25871 -4.25769,26.15199 13.16591,57.44644 40.63838,61.51698 z"
               style="fill:none;stroke:#000000;stroke-width:2.9847;stroke-linecap:round;stroke-linejoin:round;stroke-miterlimit:10;stroke-dasharray:none;stroke-opacity:1"
               id="path426"
               sodipodi:nodetypes="ccccccccc" />
          </g>
        </g>
        <g
           id="g428"
           transform="matrix(1,0,0,-1,0,792)"
           style="stroke-width:2.35253">
          <g
             id="g430"
             style="stroke-width:2.35253">
            <path
               d="m 816.52014,214.53125 c 15.28325,6.30631 31.86512,-7.88192 34.56735,-22.421 1.50888,-13.30991 -5.91762,-28.85269 -19.82296,-32.10787 -18.24751,-7.53793 -43.01724,7.49274 -40.00979,28.18972 0.58134,14.59823 11.36662,23.77851 25.2654,26.33915 2.45893,0.73609 -2.53206,0.30821 0,0"
               style="fill:none;stroke:#000000;stroke-width:2.9847;stroke-linecap:round;stroke-linejoin:round;stroke-miterlimit:10;stroke-dasharray:none;stroke-opacity:1"
               id="path432"
               sodipodi:nodetypes="cccccc" />
          </g>
        </g>
        <g
           id="g434"
           transform="matrix(1,0,0,-1,0,792)"
           style="stroke-width:2.35253">
          <g
             id="g436"
             style="stroke-width:2.35253">
            <path
               d="m 783.12341,250.20009 c 24.04935,0.12873 48.0761,1.62751 72.14399,1.20552 3.16633,0.0445 9.69411,-0.36361 12.85369,-0.13667"
               style="fill:none;stroke:#000000;stroke-width:1.49235;stroke-linecap:round;stroke-linejoin:round;stroke-miterlimit:10;stroke-dasharray:none;stroke-opacity:1"
               id="path438"
               sodipodi:nodetypes="ccc" />
          </g>
        </g>
        <g
           id="g440"
           transform="matrix(1,0,0,-1,0,792)"
           style="stroke-width:2.35253">
          <g
             id="g442"
             style="stroke-width:2.35253">
            <path
               d="m 868.12109,251.26894 c -0.67053,9.83245 2.109,25.66648 -2.91143,33.92261"
               style="fill:none;stroke:#000000;stroke-width:1.49235;stroke-linecap:round;stroke-linejoin:round;stroke-miterlimit:10;stroke-dasharray:none;stroke-opacity:1"
               id="path444"
               sodipodi:nodetypes="cc" />
          </g>
        </g>
        <g
           id="g446"
           transform="matrix(1,0,0,-1,0,792)"
           style="stroke-width:2.35253">
          <g
             id="g448"
             style="stroke-width:2.35253">
            <path
               d="m 783.12341,250.20009 c 0.0867,10.22611 -0.73056,23.10861 2.41755,33.10221"
               style="fill:none;stroke:#000000;stroke-width:1.49235;stroke-linecap:round;stroke-linejoin:round;stroke-miterlimit:10;stroke-dasharray:none;stroke-opacity:1"
               id="path450"
               sodipodi:nodetypes="cc" />
          </g>
        </g>
        <g
           id="g452"
           transform="matrix(1,0,0,-1,0,792)"
           style="stroke-width:2.35253">
          <g
             id="g454"
             style="stroke-width:2.35253">
            <path
               d="m 785.54096,283.3023 c 18.1002,2.57971 39.66835,2.53147 57.86263,3.90128 6.49858,-0.61612 17.90512,0.18402 21.80607,-2.01203"
               style="fill:none;stroke:#000000;stroke-width:1.49235;stroke-linecap:round;stroke-linejoin:round;stroke-miterlimit:10;stroke-dasharray:none;stroke-opacity:1"
               id="path456"
               sodipodi:nodetypes="ccc" />
          </g>
        </g>
        <g
           id="g458"
           transform="matrix(1,0,0,-1,0,792)"
           style="stroke-width:2.35253">
          <g
             id="g460"
             style="stroke-width:2.35253">
            <path
               d="m 799.46008,217.29948 c -20.38307,9.94078 16.47794,25.04824 21.10761,15.92811 4.07279,-12.72126 -21.10761,-15.92811 -21.10761,-15.92811"
               style="fill:none;stroke:#000000;stroke-width:1.49235;stroke-linecap:round;stroke-linejoin:round;stroke-miterlimit:10;stroke-dasharray:none;stroke-opacity:1"
               id="path462"
               sodipodi:nodetypes="ccc" />
          </g>
        </g>
        <g
           id="g464"
           transform="matrix(1,0,0,-1,0,792)"
           style="stroke-width:2.35253">
          <g
             id="g466"
             style="stroke-width:2.35253">
            <path
               d="m 829.23529,225.20987 c -4.74664,17.81356 21.51018,8.5841 26.7381,-0.24142 -1.0903,-13.79441 -20.79045,-2.16953 -26.7381,0.24142"
               style="fill:none;stroke:#000000;stroke-width:1.49235;stroke-linecap:round;stroke-linejoin:round;stroke-miterlimit:10;stroke-dasharray:none;stroke-opacity:1"
               id="path468"
               sodipodi:nodetypes="ccc" />
          </g>
        </g>
        <g
           id="g470"
           transform="matrix(1,0,0,-1,0,792)"
           style="stroke-width:2.35253">
          <g
             id="g472"
             style="stroke-width:2.35253">
            <path
               d="m 785.59412,197.14861 c -12.25643,11.99364 -20.84801,-18.6391 -9.04127,-20.11842 14.96735,-3.10064 10.00846,11.99188 9.4324,19.32982"
               style="fill:none;stroke:#000000;stroke-width:1.49235;stroke-linecap:round;stroke-linejoin:round;stroke-miterlimit:10;stroke-dasharray:none;stroke-opacity:1"
               id="path474" />
          </g>
        </g>
        <g
           id="g476"
           transform="matrix(1,0,0,-1,0,792)"
           style="stroke-width:2.35253">
          <g
             id="g478"
             style="stroke-width:2.35253">
            <path
               d="m 780.65533,164.91775 c 11.06909,8.30522 32.02156,-11.60185 15.2278,-19.06992 -5.89498,-0.47041 -19.13341,13.75547 -15.2278,19.06992"
               style="fill:none;stroke:#000000;stroke-width:1.49235;stroke-linecap:round;stroke-linejoin:round;stroke-miterlimit:10;stroke-dasharray:none;stroke-opacity:1"
               id="path480"
               sodipodi:nodetypes="ccc" />
          </g>
        </g>
        <g
           id="g482"
           transform="matrix(1,0,0,-1,0,792)"
           style="stroke-width:2.35253">
          <g
             id="g484"
             style="stroke-width:2.35253">
            <path
               d="m 814.42639,151.88208 c 8.7044,3.11782 26.97881,-0.0683 17.96228,-11.57892 -9.58299,-3.37423 -31.8107,-4.62157 -17.96228,11.57892"
               style="fill:none;stroke:#000000;stroke-width:1.49235;stroke-linecap:round;stroke-linejoin:round;stroke-miterlimit:10;stroke-dasharray:none;stroke-opacity:1"
               id="path486"
               sodipodi:nodetypes="ccc" />
          </g>
        </g>
        <g
           id="g488"
           transform="matrix(1,0,0,-1,0,792)"
           style="stroke-width:2.35253">
          <g
             id="g490"
             style="stroke-width:2.35253">
            <path
               d="m 845.44458,107.81619 c 0.29206,17.24968 26.12766,5.74729 37.42455,9.09047 1.78922,0.0982 3.60502,0.13226 5.37185,-0.22337"
               style="fill:none;stroke:#000000;stroke-width:1.49235;stroke-linecap:round;stroke-linejoin:round;stroke-miterlimit:10;stroke-dasharray:none;stroke-opacity:1"
               id="path492" />
          </g>
        </g>
        <g
           id="g494"
           transform="matrix(1,0,0,-1,0,792)"
           style="stroke-width:2.35253">
          <g
             id="g496"
             style="stroke-width:2.35253">
            <path
               d="m 759.33032,119.42117 c 1.55934,-1.67235 8.36564,1.98453 11.06159,0.79622"
               style="fill:none;stroke:#000000;stroke-width:1.49235;stroke-linecap:round;stroke-linejoin:round;stroke-miterlimit:10;stroke-dasharray:none;stroke-opacity:1"
               id="path498" />
          </g>
        </g>
        <g
           id="g500"
           transform="matrix(1,0,0,-1,0,792)"
           style="stroke-width:2.35253">
          <g
             id="g502"
             style="stroke-width:2.35253">
            <path
               d="m 779.47974,115.78063 c 4.24454,0.63747 8.59268,0.16943 12.79057,1.19663"
               style="fill:none;stroke:#000000;stroke-width:1.49235;stroke-linecap:round;stroke-linejoin:round;stroke-miterlimit:10;stroke-dasharray:none;stroke-opacity:1"
               id="path504" />
          </g>
        </g>
        <g
           id="g506"
           transform="matrix(1,0,0,-1,0,792)"
           style="stroke-width:2.35253">
          <g
             id="g508"
             style="stroke-width:2.35253">
            <path
               d="m 771.57336,150.8316 c 3.31234,-3.15207 7.56259,-5.99807 11.7045,-7.69344"
               style="fill:none;stroke:#000000;stroke-width:1.49235;stroke-linecap:round;stroke-linejoin:round;stroke-miterlimit:10;stroke-dasharray:none;stroke-opacity:1"
               id="path510" />
          </g>
        </g>
        <g
           id="g512"
           transform="matrix(1,0,0,-1,0,792)"
           style="stroke-width:2.35253">
          <g
             id="g514"
             style="stroke-width:2.35253">
            <path
               d="m 761.63177,180.72275 c 0.6613,5.3449 1.20542,10.72249 2.15701,15.96809"
               style="fill:none;stroke:#000000;stroke-width:1.49235;stroke-linecap:round;stroke-linejoin:round;stroke-miterlimit:10;stroke-dasharray:none;stroke-opacity:1"
               id="path516" />
          </g>
        </g>
        <g
           id="g518"
           transform="matrix(1,0,0,-1,0,792)"
           style="stroke-width:2.35253">
          <g
             id="g520"
             style="stroke-width:2.35253">
            <path
               d="m 813.45587,288.1954 c 7.62573,-0.77053 19.19014,0.84955 24.65098,0.23491"
               style="fill:none;stroke:#000000;stroke-width:1.49235;stroke-linecap:round;stroke-linejoin:round;stroke-miterlimit:10;stroke-dasharray:none;stroke-opacity:1"
               id="path522" />
          </g>
        </g>
        <g
           id="g524"
           transform="matrix(1,0,0,-1,0,792)"
           style="stroke-width:2.35253">
          <g
             id="g526"
             style="stroke-width:2.35253">
            <path
               d="m 822.87885,315.99207 c -2.24353,-4.01541 7.26947,-0.13995 -0.73783,0.35221 l 0.73783,-0.35221"
               style="fill:none;stroke:#000000;stroke-width:1.49235;stroke-linecap:round;stroke-linejoin:round;stroke-miterlimit:10;stroke-dasharray:none;stroke-opacity:1"
               id="path528"
               sodipodi:nodetypes="ccc" />
          </g>
        </g>
        <g
           id="g530"
           transform="matrix(1,0,0,-1,0,792)"
           style="stroke-width:2.35253">
          <g
             id="g532"
             style="stroke-width:2.35253">
            <path
               d="m 806.12903,294.40149 c 1.13644,7.54358 -1.89791,20.43072 -0.68712,24.38634"
               style="fill:none;stroke:#000000;stroke-width:1.49235;stroke-linecap:round;stroke-linejoin:round;stroke-miterlimit:10;stroke-dasharray:none;stroke-opacity:1"
               id="path534" />
          </g>
        </g>
        <g
           id="g536"
           transform="matrix(1,0,0,-1,0,792)"
           style="stroke-width:2.35253">
          <g
             id="g538"
             style="stroke-width:2.35253">
            <path
               d="m 805.70251,318.70917 c 15.57598,3.65936 31.80993,2.04763 47.64185,1.77378 l -0.052,-0.11983 3.2782,-2.94204"
               style="fill:none;stroke:#000000;stroke-width:1.49235;stroke-linecap:round;stroke-linejoin:round;stroke-miterlimit:10;stroke-dasharray:none;stroke-opacity:1"
               id="path540"
               sodipodi:nodetypes="cccc" />
          </g>
        </g>
        <g
           id="g542"
           transform="matrix(1,0,0,-1,0,792)"
           style="stroke-width:2.35253">
          <g
             id="g544"
             style="stroke-width:2.35253">
            <path
               d="m 856.57056,317.42108 c -0.55876,-6.90898 2.75429,-17.93566 -0.89627,-23.03209"
               style="fill:none;stroke:#000000;stroke-width:1.49235;stroke-linecap:round;stroke-linejoin:round;stroke-miterlimit:10;stroke-dasharray:none;stroke-opacity:1"
               id="path546" />
          </g>
        </g>
        <g
           id="g548"
           transform="matrix(1,0,0,-1,0,792)"
           style="stroke-width:2.35253">
          <g
             id="g550"
             style="stroke-width:2.35253">
            <path
               d="m 806.12903,294.40149 c 15.6961,-1.26058 34.81632,-1.31853 50.02511,-0.10637"
               style="fill:none;stroke:#000000;stroke-width:1.49235;stroke-linecap:round;stroke-linejoin:round;stroke-miterlimit:10;stroke-dasharray:none;stroke-opacity:1"
               id="path552"
               sodipodi:nodetypes="cc" />
          </g>
        </g>
        <g
           id="g554"
           transform="matrix(1,0,0,-1,0,792)"
           style="stroke-width:2.35253">
          <g
             id="g556"
             style="stroke-width:2.35253">
            <path
               d="m 806.2453,201.69414 c 3.04814,-3.88659 7.93867,-7.21373 11.12732,-10.21663"
               style="fill:none;stroke:#000000;stroke-width:1.49235;stroke-linecap:round;stroke-linejoin:round;stroke-miterlimit:10;stroke-dasharray:none;stroke-opacity:1"
               id="path558" />
          </g>
        </g>
        <g
           id="g560"
           transform="matrix(1,0,0,-1,0,792)"
           style="stroke-width:2.35253">
          <g
             id="g562"
             style="stroke-width:2.35253">
            <path
               d="m 828.4234,180.53818 c 3.81628,-2.43788 6.99668,-5.83408 10.90313,-8.08962"
               style="fill:none;stroke:#000000;stroke-width:1.49235;stroke-linecap:round;stroke-linejoin:round;stroke-miterlimit:10;stroke-dasharray:none;stroke-opacity:1"
               id="path564" />
          </g>
        </g>
        <g
           id="g566"
           transform="matrix(1,0,0,-1,0,792)"
           style="stroke-width:2.35253">
          <g
             id="g568"
             style="stroke-width:2.35253">
            <path
               d="m 827.95807,190.94051 c 3.41624,3.84052 7.4821,8.02743 12.33584,10.19146"
               style="fill:none;stroke:#000000;stroke-width:1.49235;stroke-linecap:round;stroke-linejoin:round;stroke-miterlimit:10;stroke-dasharray:none;stroke-opacity:1"
               id="path570" />
          </g>
        </g>
        <g
           id="g572"
           transform="matrix(1,0,0,-1,0,792)"
           style="stroke-width:2.35253">
          <g
             id="g574"
             style="stroke-width:2.35253">
            <path
               d="m 803.74835,173.17755 c 5.11855,2.96275 9.11206,8.19004 14.66845,9.8634"
               style="fill:none;stroke:#000000;stroke-width:1.49235;stroke-linecap:round;stroke-linejoin:round;stroke-miterlimit:10;stroke-dasharray:none;stroke-opacity:1"
               id="path576" />
          </g>
        </g>
        <g
           id="g578"
           transform="matrix(1,0,0,-1,0,792)"
           style="stroke-width:2.35253">
          <g
             id="g580"
             style="stroke-width:2.35253">
            <path
               d="m 821.38135,171.22479 c 1.85387,0.74631 5.52976,1.96743 3.48307,-1.563"
               style="fill:none;stroke:#000000;stroke-width:1.49235;stroke-linecap:round;stroke-linejoin:round;stroke-miterlimit:10;stroke-dasharray:none;stroke-opacity:1"
               id="path582" />
          </g>
        </g>
        <g
           id="g584"
           transform="matrix(1,0,0,-1,0,792)"
           style="stroke-width:2.35253">
          <g
             id="g586"
             style="stroke-width:2.35253">
            <path
               d="m 823.42163,169.45215 c 0.80362,0.37614 -4.10924,-2.04256 -3.62994,-0.8327"
               style="fill:none;stroke:#000000;stroke-width:1.49235;stroke-linecap:round;stroke-linejoin:round;stroke-miterlimit:10;stroke-dasharray:none;stroke-opacity:1"
               id="path588" />
          </g>
        </g>
        <g
           id="g590"
           transform="matrix(1,0,0,-1,0,792)"
           style="stroke-width:2.35253">
          <g
             id="g592"
             style="stroke-width:2.35253">
            <path
               d="m 819.56152,168.64774 c 0.0624,0.49472 0.51851,2.52668 0.68418,3.04794"
               style="fill:none;stroke:#000000;stroke-width:1.49235;stroke-linecap:round;stroke-linejoin:round;stroke-miterlimit:10;stroke-dasharray:none;stroke-opacity:1"
               id="path594" />
          </g>
        </g>
        <g
           id="g596"
           transform="matrix(1,0,0,-1,0,792)"
           style="stroke-width:2.35253">
          <g
             id="g598"
             style="stroke-width:2.35253">
            <path
               d="m 818.15985,201.82907 c 0.0562,0.48802 0.41986,3.00493 0.54555,3.77535"
               style="fill:none;stroke:#000000;stroke-width:1.49235;stroke-linecap:round;stroke-linejoin:round;stroke-miterlimit:10;stroke-dasharray:none;stroke-opacity:1"
               id="path600" />
          </g>
        </g>
        <g
           id="g602"
           transform="matrix(1,0,0,-1,0,792)"
           style="stroke-width:2.35253">
          <g
             id="g604"
             style="stroke-width:2.35253">
            <path
               d="m 818.47815,205.12915 c 4.45143,0.86766 3.4004,-1.41229 0.0116,-3.02893"
               style="fill:none;stroke:#000000;stroke-width:1.49235;stroke-linecap:round;stroke-linejoin:round;stroke-miterlimit:10;stroke-dasharray:none;stroke-opacity:1"
               id="path606" />
          </g>
        </g>
        <g
           id="g608"
           transform="matrix(1,0,0,-1,0,792)"
           style="stroke-width:2.35253">
          <g
             id="g610"
             style="stroke-width:2.35253">
            <path
               d="m 824.9848,206.72083 c -0.24328,-1.98132 -1.84275,-4.96139 -2.94073,-6.4139"
               style="fill:none;stroke:#000000;stroke-width:1.49235;stroke-linecap:round;stroke-linejoin:round;stroke-miterlimit:10;stroke-dasharray:none;stroke-opacity:1"
               id="path612" />
          </g>
        </g>
        <g
           id="g614"
           transform="matrix(1,0,0,-1,0,792)"
           style="stroke-width:2.35253">
          <g
             id="g616"
             style="stroke-width:2.35253">
            <path
               d="m 825.70923,204.30237 c 0.97559,1.50362 -0.39134,-4.35197 0.40111,-3.1683"
               style="fill:none;stroke:#000000;stroke-width:1.49235;stroke-linecap:round;stroke-linejoin:round;stroke-miterlimit:10;stroke-dasharray:none;stroke-opacity:1"
               id="path618" />
          </g>
        </g>
        <g
           id="g620"
           transform="matrix(1,0,0,-1,0,792)"
           style="stroke-width:2.35253">
          <g
             id="g622"
             style="stroke-width:2.35253">
            <path
               d="m 827.84174,204.03568 c 0.11372,-0.36748 0.12365,-2.06554 0.0149,-2.54709"
               style="fill:none;stroke:#000000;stroke-width:1.49235;stroke-linecap:round;stroke-linejoin:round;stroke-miterlimit:10;stroke-dasharray:none;stroke-opacity:1"
               id="path624" />
          </g>
        </g>
        <g
           id="g626"
           transform="matrix(1,0,0,-1,0,792)"
           style="stroke-width:2.35253">
          <g
             id="g628"
             style="stroke-width:2.35253">
            <path
               d="m 837.26355,184.04141 c -1.69035,7.54349 7.90628,1.0969 0.31444,0.0734"
               style="fill:none;stroke:#000000;stroke-width:1.49235;stroke-linecap:round;stroke-linejoin:round;stroke-miterlimit:10;stroke-dasharray:none;stroke-opacity:1"
               id="path630" />
          </g>
        </g>
        <g
           id="g632"
           transform="matrix(1,0,0,-1,0,792)"
           style="stroke-width:2.35253">
          <g
             id="g634"
             style="stroke-width:2.35253">
            <path
               d="m 842.18768,187.29878 c -0.59552,-0.94326 1.23539,-2.40885 -0.0569,-3.14675"
               style="fill:none;stroke:#000000;stroke-width:1.49235;stroke-linecap:round;stroke-linejoin:round;stroke-miterlimit:10;stroke-dasharray:none;stroke-opacity:1"
               id="path636" />
          </g>
        </g>
        <g
           id="g638"
           transform="matrix(1,0,0,-1,0,792)"
           style="stroke-width:2.35253">
          <g
             id="g640"
             style="stroke-width:2.35253">
            <path
               d="m 841.8775,184.18927 c 0.70471,1.23229 2.63414,1.04072 3.28809,2.24362"
               style="fill:none;stroke:#000000;stroke-width:1.49235;stroke-linecap:round;stroke-linejoin:round;stroke-miterlimit:10;stroke-dasharray:none;stroke-opacity:1"
               id="path642" />
          </g>
        </g>
        <g
           id="g644"
           transform="matrix(1,0,0,-1,0,792)"
           style="stroke-width:2.35253">
          <g
             id="g646"
             style="stroke-width:2.35253">
            <path
               d="m 844.1814,186.3438 c 1.99419,0.47557 -4.73803,0.66552 -2.83765,1.19945"
               style="fill:none;stroke:#000000;stroke-width:1.49235;stroke-linecap:round;stroke-linejoin:round;stroke-miterlimit:10;stroke-dasharray:none;stroke-opacity:1"
               id="path648" />
          </g>
        </g>
        <g
           id="g650"
           transform="matrix(1,0,0,-1,0,792)"
           style="stroke-width:2.35253">
          <g
             id="g652"
             style="stroke-width:2.35253">
            <path
               d="m 807.97504,188.87991 c 1.66045,1.2017 -0.10815,-3.45046 0.0562,-3.18183"
               style="fill:none;stroke:#000000;stroke-width:1.49235;stroke-linecap:round;stroke-linejoin:round;stroke-miterlimit:10;stroke-dasharray:none;stroke-opacity:1"
               id="path654" />
          </g>
        </g>
        <g
           id="g656"
           transform="matrix(1,0,0,-1,0,792)"
           style="stroke-width:2.35253">
          <g
             id="g658"
             style="stroke-width:2.35253">
            <path
               d="m 807.74158,185.55046 c -0.81547,0.7866 -1.55064,1.53182 -2.67516,1.83242"
               style="fill:none;stroke:#000000;stroke-width:1.49235;stroke-linecap:round;stroke-linejoin:round;stroke-miterlimit:10;stroke-dasharray:none;stroke-opacity:1"
               id="path660" />
          </g>
        </g>
        <g
           id="g662"
           transform="matrix(1,0,0,-1,0,792)"
           style="stroke-width:2.35253">
          <g
             id="g664"
             style="stroke-width:2.35253">
            <path
               d="m 805.78003,187.46291 c 0.8861,0.50794 2.21505,0.702 2.57402,1.82497"
               style="fill:none;stroke:#000000;stroke-width:1.49235;stroke-linecap:round;stroke-linejoin:round;stroke-miterlimit:10;stroke-dasharray:none;stroke-opacity:1"
               id="path666" />
          </g>
        </g>
        <g
           id="g668"
           transform="matrix(1,0,0,-1,0,792)"
           style="stroke-width:2.35253">
          <g
             id="g670"
             style="stroke-width:2.35253">
            <path
               d="m 803.15625,184.39499 c 0.69704,0.0659 0.0439,3.42727 1.06578,4.21402"
               style="fill:none;stroke:#000000;stroke-width:1.49235;stroke-linecap:round;stroke-linejoin:round;stroke-miterlimit:10;stroke-dasharray:none;stroke-opacity:1"
               id="path672" />
          </g>
        </g>
        <g
           id="g674"
           transform="matrix(1,0,0,-1,0,792)"
           style="stroke-width:2.35253">
          <g
             id="g676"
             style="stroke-width:2.35253">
            <path
               d="m 803.33765,188.76089 c -0.49627,-0.16823 -3.16794,-1.10397 -4.0075,-1.40361"
               style="fill:none;stroke:#000000;stroke-width:1.49235;stroke-linecap:round;stroke-linejoin:round;stroke-miterlimit:10;stroke-dasharray:none;stroke-opacity:1"
               id="path678" />
          </g>
        </g>
        <g
           id="g680"
           transform="matrix(1,0,0,-1,0,792)"
           style="stroke-width:2.35253">
          <g
             id="g682"
             style="stroke-width:2.35253">
            <path
               d="m 799.62445,186.742 c 0.7899,-1.45708 2.21087,-2.54791 3.81677,-2.93033"
               style="fill:none;stroke:#000000;stroke-width:1.49235;stroke-linecap:round;stroke-linejoin:round;stroke-miterlimit:10;stroke-dasharray:none;stroke-opacity:1"
               id="path684" />
          </g>
        </g>
      </g>
    </g>
  </g>
</svg>
