<?xml version="1.0" encoding="UTF-8" standalone="no"?>
<!-- Created by Ashley Blewer - This work is licensed under a Creative Commons Attribution 4.0 International License -->

<svg
   width="544"
   height="480"
   viewBox="0 0 143.93334 127"
   version="1.1"
   id="svg2490"
   inkscape:version="1.2.2 (1:1.2.2+202212051552+b0a8486541)"
   sodipodi:docname="1996-digital-media-player-2.svg"
   xmlns:inkscape="http://www.inkscape.org/namespaces/inkscape"
   xmlns:sodipodi="http://sodipodi.sourceforge.net/DTD/sodipodi-0.dtd"
   xmlns="http://www.w3.org/2000/svg"
   xmlns:svg="http://www.w3.org/2000/svg">
  <sodipodi:namedview
     id="namedview2492"
     pagecolor="#ffffff"
     bordercolor="#666666"
     borderopacity="1.0"
     inkscape:pageshadow="2"
     inkscape:pageopacity="0.0"
     inkscape:pagecheckerboard="0"
     inkscape:document-units="mm"
     showgrid="false"
     units="px"
     inkscape:zoom="0.90583674"
     inkscape:cx="53.541657"
     inkscape:cy="121.98666"
     inkscape:window-width="1846"
     inkscape:window-height="1136"
     inkscape:window-x="0"
     inkscape:window-y="0"
     inkscape:window-maximized="1"
     inkscape:current-layer="g4731"
     inkscape:showpageshadow="2"
     inkscape:deskcolor="#d1d1d1" />
  <defs
     id="defs2487" />
  <g
     inkscape:label="Layer 1"
     inkscape:groupmode="layer"
     id="layer1">
    <g
       id="g4731"
       transform="matrix(0.32961229,0,0,0.32903008,-241.78905,1.73126)"
       style="stroke-width:2.68698">
      <g
         id="g104528"
         transform="matrix(1,0,0,-1,0,792)"
         style="stroke-width:2.68698">
        <g
           id="g104530"
           style="stroke-width:2.68698" />
      </g>
      <g
         id="g104996"
         transform="matrix(1,0,0,-1,0,792)"
         style="stroke-width:2.68698">
        <g
           id="g104998"
           style="stroke-width:2.68698" />
      </g>
      <g
         id="g2669"
         transform="matrix(1.4719949,0,0,1.4709298,-614.47638,-711.71)"
         style="stroke-width:1.79304">
        <g
           id="g686"
           transform="matrix(1,0,0,-1,0,792)"
           style="stroke-width:1.79304">
          <g
             id="g688"
             style="stroke-width:1.79304">
            <path
               d="m 1007.1658,62.885578 c -18.62288,28.887314 -11.99833,97.035592 -11.99833,97.035592 -0.44178,41.37441 3.30751,124.00323 3.30751,124.00323 0.32694,7.52509 6.89442,14.70443 14.75062,14.17299"
               style="fill:none;stroke:#000000;stroke-width:2.27486;stroke-linecap:round;stroke-linejoin:round;stroke-miterlimit:10;stroke-dasharray:none;stroke-opacity:1"
               id="path690"
               sodipodi:nodetypes="cccc" />
          </g>
        </g>
        <g
           id="g692"
           transform="matrix(1,0,0,-1,0,792)"
           style="stroke-width:1.79304">
          <g
             id="g694"
             style="stroke-width:1.79304">
            <path
               d="m 1013.2256,298.09739 c 38.6748,0.30495 73.808,-0.48236 112.4082,-2.68394"
               style="fill:none;stroke:#000000;stroke-width:2.27486;stroke-linecap:round;stroke-linejoin:round;stroke-miterlimit:10;stroke-dasharray:none;stroke-opacity:1"
               id="path696"
               sodipodi:nodetypes="cc" />
          </g>
        </g>
        <g
           id="g698"
           transform="matrix(1,0,0,-1,0,792)"
           style="stroke-width:1.79304">
          <g
             id="g700"
             style="stroke-width:1.79304">
            <path
               d="m 1125.6338,295.41345 c 21.6546,-5.97768 12.2448,-30.37284 14.7711,-47.2894 1.7435,-50.13619 -0.2451,-100.31384 -3.2549,-150.333757 0,0 1.3729,-27.556596 -11.1655,-33.576605"
               style="fill:none;stroke:#000000;stroke-width:2.27486;stroke-linecap:round;stroke-linejoin:round;stroke-miterlimit:10;stroke-dasharray:none;stroke-opacity:1"
               id="path702"
               sodipodi:nodetypes="cccc" />
          </g>
        </g>
        <g
           id="g704"
           transform="matrix(1,0,0,-1,0,792)"
           style="stroke-width:1.79304">
          <g
             id="g706"
             style="stroke-width:1.79304">
            <path
               d="m 1007.1658,62.885578 c 39.8193,1.154948 79.0078,-0.250405 118.8187,1.32811"
               style="fill:none;stroke:#000000;stroke-width:2.27486;stroke-linecap:round;stroke-linejoin:round;stroke-miterlimit:10;stroke-dasharray:none;stroke-opacity:1"
               id="path708"
               sodipodi:nodetypes="cc" />
          </g>
        </g>
        <g
           id="g710"
           transform="matrix(1,0,0,-1,0,792)"
           style="stroke-width:1.79304">
          <g
             id="g712"
             style="stroke-width:1.79304">
            <path
               d="m 1023.9509,208.68016 c -4.9083,23.7777 -9.1135,54.39426 -1.217,75.83181"
               style="fill:none;stroke:#000000;stroke-width:2.27486;stroke-linecap:round;stroke-linejoin:round;stroke-miterlimit:10;stroke-dasharray:none;stroke-opacity:1"
               id="path714"
               sodipodi:nodetypes="cc" />
          </g>
        </g>
        <g
           id="g716"
           transform="matrix(1,0,0,-1,0,792)"
           style="stroke-width:1.79304">
          <g
             id="g718"
             style="stroke-width:1.79304">
            <path
               d="m 1022.7339,284.51197 c 26.2877,5.50122 52.3959,-1.34372 78.9815,-0.76198 3.3246,-0.25382 6.6431,-0.5849 9.9537,-0.98068"
               style="fill:none;stroke:#000000;stroke-width:2.27486;stroke-linecap:round;stroke-linejoin:round;stroke-miterlimit:10;stroke-dasharray:none;stroke-opacity:1"
               id="path720"
               sodipodi:nodetypes="ccc" />
          </g>
        </g>
        <g
           id="g722"
           transform="matrix(1,0,0,-1,0,792)"
           style="stroke-width:1.79304">
          <g
             id="g724"
             style="stroke-width:1.79304">
            <path
               d="m 1112.2013,281.72031 c 0.5522,-25.83147 4.8358,-50.3468 -1.2883,-72.45673"
               style="fill:none;stroke:#000000;stroke-width:2.27486;stroke-linecap:round;stroke-linejoin:round;stroke-miterlimit:10;stroke-dasharray:none;stroke-opacity:1"
               id="path726"
               sodipodi:nodetypes="cc" />
          </g>
        </g>
        <g
           id="g728"
           transform="matrix(1,0,0,-1,0,792)"
           style="stroke-width:1.79304">
          <g
             id="g730"
             style="stroke-width:1.79304">
            <path
               d="m 1023.6999,208.21083 c 26.9215,1.83912 53.8282,-3.76012 80.6755,-1.92172 3.2108,0.69683 3.7901,1.15638 6.5376,2.97447"
               style="fill:none;stroke:#000000;stroke-width:2.27486;stroke-linecap:round;stroke-linejoin:round;stroke-miterlimit:10;stroke-dasharray:none;stroke-opacity:1"
               id="path732"
               sodipodi:nodetypes="ccc" />
          </g>
        </g>
        <g
           id="g734"
           transform="matrix(1,0,0,-1,0,792)"
           style="stroke-width:1.79304">
          <g
             id="g736"
             style="stroke-width:1.79304">
            <path
               d="m 1068.9533,169.22054 c 30.398,3.89203 54.8524,-32.38324 42.8658,-59.73856 -9.3962,-24.633879 -42.0465,-36.354579 -64.6969,-22.610412 -27.0549,15.326422 -28.1815,62.079252 0.7213,76.061592 6.6193,3.28036 13.8677,5.02832 21.1098,6.28738 z"
               style="fill:none;stroke:#000000;stroke-width:1.13743;stroke-linecap:round;stroke-linejoin:round;stroke-miterlimit:10;stroke-dasharray:none;stroke-opacity:1"
               id="path738"
               sodipodi:nodetypes="ccccc" />
          </g>
        </g>
        <g
           id="g740"
           transform="matrix(1,0,0,-1,0,792)"
           style="stroke-width:1.79304">
          <g
             id="g742"
             style="stroke-width:1.79304">
            <path
               d="m 1065.0295,137.68684 c 8.2795,2.10686 16.4381,-5.29773 16.8721,-13.46567 1.4253,-7.79642 -3.1239,-17.75565 -11.9405,-18.08546 -11.4263,-1.28511 -23.7643,9.02724 -21.631,21.00577 1.5969,7.49482 9.6335,11.07152 16.6994,10.54536 z"
               style="fill:none;stroke:#000000;stroke-width:1.13743;stroke-linecap:round;stroke-linejoin:round;stroke-miterlimit:10;stroke-dasharray:none;stroke-opacity:1"
               id="path744"
               sodipodi:nodetypes="ccc" />
          </g>
        </g>
        <g
           id="g746"
           transform="matrix(1,0,0,-1,0,792)"
           style="stroke-width:1.79304">
          <g
             id="g748"
             style="stroke-width:1.79304">
            <path
               d="m 1020.62,195.83463 c -23.95033,-0.74122 2.5456,-38.39857 8.8836,-12.3102 1.1497,6.70246 -1.5858,14.04315 -8.8836,12.3102"
               style="fill:none;stroke:#000000;stroke-width:1.13743;stroke-linecap:round;stroke-linejoin:round;stroke-miterlimit:10;stroke-dasharray:none;stroke-opacity:1"
               id="path750"
               sodipodi:nodetypes="ccc" />
          </g>
        </g>
        <g
           id="g752"
           transform="matrix(1,0,0,-1,0,792)"
           style="stroke-width:1.79304">
          <g
             id="g754"
             style="stroke-width:1.79304">
            <path
               d="m 1050.979,198.12993 c -22.4519,-2.13805 -2.4237,-39.45173 11.0231,-18.44192 5.5547,9.52234 -3.2108,15.78767 -11.0231,18.44192"
               style="fill:none;stroke:#000000;stroke-width:1.13743;stroke-linecap:round;stroke-linejoin:round;stroke-miterlimit:10;stroke-dasharray:none;stroke-opacity:1"
               id="path756"
               sodipodi:nodetypes="ccc" />
          </g>
        </g>
        <g
           id="g758"
           transform="matrix(1,0,0,-1,0,792)"
           style="stroke-width:1.79304">
          <g
             id="g760"
             style="stroke-width:1.79304">
            <path
               d="m 1083.7421,196.08714 c -22.3061,-1.78614 0.9765,-35.97042 10.0768,-13.47195 3.1363,8.52912 -6.2276,17.01748 -14.2578,12.49864"
               style="fill:none;stroke:#000000;stroke-width:1.13743;stroke-linecap:round;stroke-linejoin:round;stroke-miterlimit:10;stroke-dasharray:none;stroke-opacity:1"
               id="path762" />
          </g>
        </g>
        <g
           id="g764"
           transform="matrix(1,0,0,-1,0,792)"
           style="stroke-width:1.79304">
          <g
             id="g766"
             style="stroke-width:1.79304">
            <path
               d="m 1107.3762,195.87511 c -19.7181,-8.43822 -3.871,-37.18292 15.7396,-21.79522 12.187,9.85371 -2.2265,29.55757 -15.7396,21.79522"
               style="fill:none;stroke:#000000;stroke-width:1.13743;stroke-linecap:round;stroke-linejoin:round;stroke-miterlimit:10;stroke-dasharray:none;stroke-opacity:1"
               id="path768"
               sodipodi:nodetypes="ccc" />
          </g>
        </g>
        <g
           id="g770"
           transform="matrix(1,0,0,-1,0,792)"
           style="stroke-width:1.79304">
          <g
             id="g772"
             style="stroke-width:1.79304">
            <path
               d="m 1023.7461,271.78586 c 27.7747,-0.0538 55.6931,3.5783 83.3436,-0.55098"
               style="fill:none;stroke:#000000;stroke-width:1.13743;stroke-linecap:round;stroke-linejoin:round;stroke-miterlimit:10;stroke-dasharray:none;stroke-opacity:1"
               id="path774" />
          </g>
        </g>
        <g
           id="g776"
           transform="matrix(1,0,0,-1,0,792)"
           style="stroke-width:1.79304">
          <g
             id="g778"
             style="stroke-width:1.79304">
            <path
               d="m 1052.0222,258.03543 c 9.3641,-0.17407 18.7117,-0.90665 28.0116,-1.99695"
               style="fill:none;stroke:#000000;stroke-width:1.13743;stroke-linecap:round;stroke-linejoin:round;stroke-miterlimit:10;stroke-dasharray:none;stroke-opacity:1"
               id="path780" />
          </g>
        </g>
        <g
           id="g782"
           transform="matrix(1,0,0,-1,0,792)"
           style="stroke-width:1.79304">
          <g
             id="g784"
             style="stroke-width:1.79304">
            <path
               d="m 1029.5459,247.63016 c 23.2419,1.19531 46.4809,-0.78989 69.6515,-2.38614"
               style="fill:none;stroke:#000000;stroke-width:1.13743;stroke-linecap:round;stroke-linejoin:round;stroke-miterlimit:10;stroke-dasharray:none;stroke-opacity:1"
               id="path786" />
          </g>
        </g>
        <g
           id="g788"
           transform="matrix(1,0,0,-1,0,792)"
           style="stroke-width:1.79304">
          <g
             id="g790"
             style="stroke-width:1.79304">
            <path
               d="m 1048.4597,237.83128 c 11.1781,-0.0211 22.3498,0.41281 33.5252,0.58347"
               style="fill:none;stroke:#000000;stroke-width:1.13743;stroke-linecap:round;stroke-linejoin:round;stroke-miterlimit:10;stroke-dasharray:none;stroke-opacity:1"
               id="path792" />
          </g>
        </g>
        <g
           id="g794"
           transform="matrix(1,0,0,-1,0,792)"
           style="stroke-width:1.79304">
          <g
             id="g796"
             style="stroke-width:1.79304">
            <path
               d="m 1027.2114,219.21313 c 3.1284,-0.13478 6.2473,0.20499 9.3608,0.44952"
               style="fill:none;stroke:#000000;stroke-width:1.13743;stroke-linecap:round;stroke-linejoin:round;stroke-miterlimit:10;stroke-dasharray:none;stroke-opacity:1"
               id="path798" />
          </g>
        </g>
        <g
           id="g800"
           transform="matrix(1,0,0,-1,0,792)"
           style="stroke-width:1.79304">
          <g
             id="g802"
             style="stroke-width:1.79304">
            <path
               d="m 1093.9005,218.05605 c 3.4081,-0.47664 6.7377,1.52588 10.1143,0.35262"
               style="fill:none;stroke:#000000;stroke-width:1.13743;stroke-linecap:round;stroke-linejoin:round;stroke-miterlimit:10;stroke-dasharray:none;stroke-opacity:1"
               id="path804" />
          </g>
        </g>
        <g
           id="g806"
           transform="matrix(1,0,0,-1,0,792)"
           style="stroke-width:1.79304">
          <g
             id="g808"
             style="stroke-width:1.79304">
            <path
               d="m 1026.3081,227.71233 c 26.4815,2.01445 53.9027,3.00823 79.889,-1.42467 -2.059,-1.47461 -5.4534,-0.5257 -7.9095,-0.56646"
               style="fill:none;stroke:#000000;stroke-width:1.13743;stroke-linecap:round;stroke-linejoin:round;stroke-miterlimit:10;stroke-dasharray:none;stroke-opacity:1"
               id="path810" />
          </g>
        </g>
        <g
           id="g812"
           transform="matrix(1,0,0,-1,0,792)"
           style="stroke-width:1.79304">
          <g
             id="g814"
             style="stroke-width:1.79304">
            <path
               d="m 1026.7961,226.20064 c 19.4609,-5.34794 39.8119,0.4903 59.6401,-1.97701 5.048,0.0727 10.0967,0.27867 15.1256,0.73477"
               style="fill:none;stroke:#000000;stroke-width:1.13743;stroke-linecap:round;stroke-linejoin:round;stroke-miterlimit:10;stroke-dasharray:none;stroke-opacity:1"
               id="path816" />
          </g>
        </g>
        <g
           id="g818"
           transform="matrix(1,0,0,-1,0,792)"
           style="stroke-width:1.79304">
          <g
             id="g820"
             style="stroke-width:1.79304">
            <path
               d="m 1032.2907,226.82237 c -0.3382,-3.37222 -3.5479,1.01815 -5.1711,-0.53539"
               style="fill:none;stroke:#000000;stroke-width:1.13743;stroke-linecap:round;stroke-linejoin:round;stroke-miterlimit:10;stroke-dasharray:none;stroke-opacity:1"
               id="path822" />
          </g>
        </g>
        <g
           id="g824"
           transform="matrix(1,0,0,-1,0,792)"
           style="stroke-width:1.79304">
          <g
             id="g826"
             style="stroke-width:1.79304">
            <path
               d="m 1026.4658,278.48227 c 7.9274,3.36485 1.1186,-6.56643 -0.3905,0.42059"
               style="fill:none;stroke:#000000;stroke-width:1.13743;stroke-linecap:round;stroke-linejoin:round;stroke-miterlimit:10;stroke-dasharray:none;stroke-opacity:1"
               id="path828" />
          </g>
        </g>
        <g
           id="g830"
           transform="matrix(1,0,0,-1,0,792)"
           style="stroke-width:1.79304">
          <g
             id="g832"
             style="stroke-width:1.79304">
            <path
               d="m 1042.798,277.53671 c 13.5984,1.47418 27.393,2.13163 40.9873,0.24712"
               style="fill:none;stroke:#000000;stroke-width:1.13743;stroke-linecap:round;stroke-linejoin:round;stroke-miterlimit:10;stroke-dasharray:none;stroke-opacity:1"
               id="path834" />
          </g>
        </g>
        <g
           id="g836"
           transform="matrix(1,0,0,-1,0,792)"
           style="stroke-width:1.79304">
          <g
             id="g838"
             style="stroke-width:1.79304">
            <path
               d="m 1097.6945,279.16089 c 1.7112,-13.86063 20.0291,7.09748 0.704,0.8224 l -3.7104,-0.44432"
               style="fill:none;stroke:#000000;stroke-width:1.13743;stroke-linecap:round;stroke-linejoin:round;stroke-miterlimit:10;stroke-dasharray:none;stroke-opacity:1"
               id="path840" />
          </g>
        </g>
        <g
           id="g842"
           transform="matrix(1,0,0,-1,0,792)"
           style="stroke-width:1.79304">
          <g
             id="g844"
             style="stroke-width:1.79304">
            <path
               d="m 1110.093,188.60815 c 3.0204,2.14356 5.436,-4.14575 1.1789,-3.51872"
               style="fill:none;stroke:#000000;stroke-width:1.13743;stroke-linecap:round;stroke-linejoin:round;stroke-miterlimit:10;stroke-dasharray:none;stroke-opacity:1"
               id="path846" />
          </g>
        </g>
        <g
           id="g848"
           transform="matrix(1,0,0,-1,0,792)"
           style="stroke-width:1.79304">
          <g
             id="g850"
             style="stroke-width:1.79304">
            <path
               d="m 1114.7216,188.98775 c 1.7409,0.46997 4.6553,-2.14092 2.3072,-3.56112"
               style="fill:none;stroke:#000000;stroke-width:1.13743;stroke-linecap:round;stroke-linejoin:round;stroke-miterlimit:10;stroke-dasharray:none;stroke-opacity:1"
               id="path852" />
          </g>
        </g>
        <g
           id="g854"
           transform="matrix(1,0,0,-1,0,792)"
           style="stroke-width:1.79304">
          <g
             id="g856"
             style="stroke-width:1.79304">
            <path
               d="m 1078.3608,187.85632 c 1.8036,0.72974 4.454,-3.15224 1.3921,-3.31737"
               style="fill:none;stroke:#000000;stroke-width:1.13743;stroke-linecap:round;stroke-linejoin:round;stroke-miterlimit:10;stroke-dasharray:none;stroke-opacity:1"
               id="path858" />
          </g>
        </g>
        <g
           id="g860"
           transform="matrix(1,0,0,-1,0,792)"
           style="stroke-width:1.79304">
          <g
             id="g862"
             style="stroke-width:1.79304">
            <path
               d="m 1085.7195,187.37839 c -0.9414,-0.88551 1.0536,-1.23095 0.4992,-2.16893"
               style="fill:none;stroke:#000000;stroke-width:1.13743;stroke-linecap:round;stroke-linejoin:round;stroke-miterlimit:10;stroke-dasharray:none;stroke-opacity:1"
               id="path864" />
          </g>
        </g>
        <g
           id="g866"
           transform="matrix(1,0,0,-1,0,792)"
           style="stroke-width:1.79304">
          <g
             id="g868"
             style="stroke-width:1.79304">
            <path
               d="m 1087.6581,187.43689 c 0.062,-0.36953 0.2922,-1.72966 0.3447,-2.04019"
               style="fill:none;stroke:#000000;stroke-width:1.13743;stroke-linecap:round;stroke-linejoin:round;stroke-miterlimit:10;stroke-dasharray:none;stroke-opacity:1"
               id="path870" />
          </g>
        </g>
        <g
           id="g872"
           transform="matrix(1,0,0,-1,0,792)"
           style="stroke-width:1.79304">
          <g
             id="g874"
             style="stroke-width:1.79304">
            <path
               d="m 1046.6559,184.13542 c 1.0247,2.8937 8.1325,5.22133 8.0158,0.47173"
               style="fill:none;stroke:#000000;stroke-width:1.13743;stroke-linecap:round;stroke-linejoin:round;stroke-miterlimit:10;stroke-dasharray:none;stroke-opacity:1"
               id="path876" />
          </g>
        </g>
        <g
           id="g878"
           transform="matrix(1,0,0,-1,0,792)"
           style="stroke-width:1.79304">
          <g
             id="g880"
             style="stroke-width:1.79304">
            <path
               d="m 1017.8283,187.89082 c -0.1081,-0.74137 0.1,-3.68487 0.3116,-4.41525"
               style="fill:none;stroke:#000000;stroke-width:1.13743;stroke-linecap:round;stroke-linejoin:round;stroke-miterlimit:10;stroke-dasharray:none;stroke-opacity:1"
               id="path882" />
          </g>
        </g>
        <g
           id="g884"
           transform="matrix(1,0,0,-1,0,792)"
           style="stroke-width:1.79304">
          <g
             id="g886"
             style="stroke-width:1.79304">
            <path
               d="m 1022.83,186.39633 c -6.5046,-1.07753 4.7311,-5.70176 0.5431,-0.18629"
               style="fill:none;stroke:#000000;stroke-width:1.13743;stroke-linecap:round;stroke-linejoin:round;stroke-miterlimit:10;stroke-dasharray:none;stroke-opacity:1"
               id="path888" />
          </g>
        </g>
        <g
           id="g890"
           transform="matrix(1,0,0,-1,0,792)"
           style="stroke-width:1.79304">
          <g
             id="g892"
             style="stroke-width:1.79304">
            <path
               d="m 1108.9738,188.20549 c -0.8213,-1.05542 0.8847,-1.9559 0.2135,-3.03501"
               style="fill:none;stroke:#000000;stroke-width:1.13743;stroke-linecap:round;stroke-linejoin:round;stroke-miterlimit:10;stroke-dasharray:none;stroke-opacity:1"
               id="path894" />
          </g>
        </g>
        <g
           id="g896"
           transform="matrix(1,0,0,-1,0,792)"
           style="stroke-width:1.79304">
          <g
             id="g898"
             style="stroke-width:1.79304">
            <path
               d="m 1115.0775,187.7802 c -1.0411,-0.72374 1.6355,-5.50024 1.4781,-1.93409"
               style="fill:none;stroke:#000000;stroke-width:1.13743;stroke-linecap:round;stroke-linejoin:round;stroke-miterlimit:10;stroke-dasharray:none;stroke-opacity:1"
               id="path900" />
          </g>
        </g>
      </g>
    </g>
  </g>
</svg>
