<svg xmlns="http://www.w3.org/2000/svg" width="5300" height="7495" viewBox="0 0 5300 7495">
  <g fill-rule="evenodd">
    <path fill-rule="nonzero" d="M4012 2053L4012 2448 4664 2448 4664 2053 4012 2053zM3998 2039L4678 2039 4678 2462 3998 2462 3998 2039zM2848 2044L2848 2456 3472 2456 3472 2044 2848 2044zM2834 2030L3486 2030 3486 2470 2834 2470 2834 2030zM4230 6179L4230 6322 4445 6322 4445 6179 4230 6179zM4216 6165L4459 6165 4459 6336 4216 6336 4216 6165zM546 3095L546 3405 1060 3405 1060 3095 546 3095zM532 3081L1074 3081 1074 3419 532 3419 532 3081zM676 5167L676 5333 930 5333 930 5167 676 5167zM662 5153L944 5153 944 5347 662 5347 662 5153zM3032 5167L3032 5333 3287 5333 3287 5167 3032 5167zM3018 5153L3301 5153 3301 5347 3018 5347 3018 5153zM614 4140L614 4361 991 4361 991 4140 614 4140zM600 4126L1005 4126 1005 4375 600 4375 600 4126zM1874 6179L1874 6322 2089 6322 2089 6179 1874 6179zM1860 6165L2103 6165 2103 6336 1860 6336 1860 6165zM2903 4095L2903 4405 3417 4405 3417 4095 2903 4095zM2889 4081L3431 4081 3431 4419 2889 4419 2889 4081zM1655 2053L1655 2448 2307 2448 2307 2053 1655 2053zM1641 2039L2321 2039 2321 2462 1641 2462 1641 2039zM2870 3061L2870 3439 3450 3439 3450 3061 2870 3061zM2856 3047L3464 3047 3464 3453 2856 3453 2856 3047zM1785 4131L1785 4370 2177 4370 2177 4131 1785 4131zM1771 4117L2191 4117 2191 4384 1771 4384 1771 4117zM1854 5167L1854 5333 2108 5333 2108 5167 1854 5167zM1840 5153L2122 5153 2122 5347 1840 5347 1840 5153zM1698 3077L1698 3423 2265 3423 2265 3077 1698 3077zM1684 3063L2279 3063 2279 3437 1684 3437 1684 3063zM4173 5146L4173 5354 4502 5354 4502 5146 4173 5146zM4159 5132L4516 5132 4516 5368 4159 5368 4159 5132zM4000 3044L4000 3457 4675 3457 4675 3044 4000 3044zM3986 3030L4689 3030 4689 3471 3986 3471 3986 3030zM4081 4095L4081 4405 4595 4405 4595 4095 4081 4095zM4067 4081L4609 4081 4609 4419 4067 4419 4067 4081zM3052 6179L3052 6322 3267 6322 3267 6179 3052 6179zM3038 6165L3281 6165 3281 6336 3038 6336 3038 6165zM546 2106L546 2395 1060 2395 1060 2106 546 2106zM532 2092L1074 2092 1074 2409 532 2409 532 2092zM4338 1669C4567.19817 1669 4753 1483.19817 4753 1254 4753 1024.80183 4567.19817 839 4338 839 4108.80183 839 3923 1024.80183 3923 1254 3923 1483.19817 4108.80183 1669 4338 1669zM4338 1683C4101.06984 1683 3909 1490.93016 3909 1254 3909 1017.06984 4101.06984 825 4338 825 4574.93016 825 4767 1017.06984 4767 1254 4767 1490.93016 4574.93016 1683 4338 1683zM3160 1669C3389.19817 1669 3575 1483.19817 3575 1254 3575 1024.80183 3389.19817 839 3160 839 2930.80183 839 2745 1024.80183 2745 1254 2745 1483.19817 2930.80183 1669 3160 1669zM3160 1683C2923.06984 1683 2731 1490.93016 2731 1254 2731 1017.06984 2923.06984 825 3160 825 3396.93016 825 3589 1017.06984 3589 1254 3589 1490.93016 3396.93016 1683 3160 1683zM1981.5 1434C2082.84425 1434 2165 1351.84425 2165 1250.5 2165 1149.15575 2082.84425 1067 1981.5 1067 1880.15575 1067 1798 1149.15575 1798 1250.5 1798 1351.84425 1880.15575 1434 1981.5 1434zM1981.5 1448C1872.42376 1448 1784 1359.57624 1784 1250.5 1784 1141.42376 1872.42376 1053 1981.5 1053 2090.57624 1053 2179 1141.42376 2179 1250.5 2179 1359.57624 2090.57624 1448 1981.5 1448z"/>
    <path d="M4276.84 2247.984L4276.84 2225.016 4281.592 2225.016 4281.592 2277 4276.84 2277 4276.84 2252.016 4269.712 2252.016 4269.712 2277 4264.96 2277 4264.96 2225.016 4269.712 2225.016 4269.712 2247.984 4276.84 2247.984zM4289.152 2277L4289.152 2225.016 4297.288 2225.016C4303.768 2225.016 4305.352 2228.328 4305.352 2233.44L4305.352 2268.576C4305.352 2273.688 4303.768 2277 4297.288 2277L4289.152 2277zM4293.904 2272.968L4296.424 2272.968C4299.592 2272.968 4300.6 2271.96 4300.6 2268.936L4300.6 2233.08C4300.6 2230.056 4299.592 2229.048 4296.424 2229.048L4293.904 2229.048 4293.904 2272.968zM4322.992 2238.624L4322.992 2231.928C4322.992 2229.696 4322.2 2228.616 4320.328 2228.616 4318.456 2228.616 4317.664 2229.696 4317.664 2231.928L4317.664 2270.088C4317.664 2272.32 4318.456 2273.4 4320.328 2273.4 4322.2 2273.4 4322.992 2272.32 4322.992 2270.088L4322.992 2262.816 4327.744 2262.816 4327.744 2270.232C4327.744 2274.624 4325.296 2277.432 4320.328 2277.432 4315.36 2277.432 4312.912 2274.624 4312.912 2270.232L4312.912 2231.784C4312.912 2227.392 4315.36 2224.584 4320.328 2224.584 4325.296 2224.584 4327.744 2227.392 4327.744 2231.784L4327.744 2238.624 4322.992 2238.624zM4347.328 2277L4345.384 2262.6 4337.032 2262.6 4335.088 2277 4330.336 2277 4337.968 2225.016 4344.448 2225.016 4352.08 2277 4347.328 2277zM4344.88 2258.568L4341.28 2228.616 4341.136 2228.616 4337.536 2258.568 4344.88 2258.568zM4369.216 2271.528L4374.544 2225.016 4381.888 2225.016 4381.888 2277 4377.712 2277 4377.712 2229.048 4377.568 2229.048 4372.096 2277 4366.192 2277 4360.72 2229.048 4360.576 2229.048 4360.576 2277 4356.4 2277 4356.4 2225.016 4363.744 2225.016 4369.072 2271.528 4369.216 2271.528zM4398.736 2277L4398.736 2225.016 4403.488 2225.016 4403.488 2272.968 4411.336 2272.968 4411.336 2277 4398.736 2277zM3014.02 2276L3014.02 2224.016 3022.156 2224.016C3028.636 2224.016 3030.22 2227.328 3030.22 2232.44L3030.22 2267.576C3030.22 2272.688 3028.636 2276 3022.156 2276L3014.02 2276zM3018.772 2271.968L3021.292 2271.968C3024.46 2271.968 3025.468 2270.96 3025.468 2267.936L3025.468 2232.08C3025.468 2229.056 3024.46 2228.048 3021.292 2228.048L3018.772 2228.048 3018.772 2271.968zM3037.78 2276L3037.78 2224.016 3042.532 2224.016 3042.532 2276 3037.78 2276zM3057.94 2254.544L3057.94 2250.512 3066.508 2250.512 3066.508 2274.848C3063.988 2275.856 3061.468 2276.432 3059.02 2276.432 3052.468 2276.432 3050.092 2273.264 3050.092 2267.288L3050.092 2231.792C3050.092 2226.392 3053.116 2223.584 3058.3 2223.584 3063.484 2223.584 3066.508 2226.392 3066.508 2231.792L3066.508 2237.624 3061.756 2237.624 3061.756 2232.44C3061.756 2229.56 3061.036 2227.616 3058.3 2227.616 3055.564 2227.616 3054.844 2229.56 3054.844 2232.44L3054.844 2267.216C3054.844 2271.464 3056.932 2272.4 3058.588 2272.4 3059.884 2272.4 3061.108 2272.112 3061.756 2271.68L3061.756 2254.544 3057.94 2254.544zM3073.852 2276L3073.852 2224.016 3078.604 2224.016 3078.604 2276 3073.852 2276zM3089.26 2276L3089.26 2228.048 3083.932 2228.048 3083.932 2224.016 3099.34 2224.016 3099.34 2228.048 3094.012 2228.048 3094.012 2276 3089.26 2276zM3117.052 2276L3115.108 2261.6 3106.756 2261.6 3104.812 2276 3100.06 2276 3107.692 2224.016 3114.172 2224.016 3121.804 2276 3117.052 2276zM3114.604 2257.568L3111.004 2227.616 3110.86 2227.616 3107.26 2257.568 3114.604 2257.568zM3126.556 2276L3126.556 2224.016 3131.308 2224.016 3131.308 2271.968 3139.156 2271.968 3139.156 2276 3126.556 2276zM3159.892 2246.984L3163.06 2246.984C3165.292 2246.984 3166.588 2246.336 3166.588 2243.24L3166.588 2231.576C3166.588 2228.552 3165.004 2228.048 3162.556 2228.048L3159.892 2228.048 3159.892 2246.984zM3155.14 2276L3155.14 2224.016 3163.996 2224.016C3168.532 2224.016 3171.34 2224.808 3171.34 2229.992L3171.34 2243.168C3171.34 2247.2 3169.828 2248.64 3166.156 2248.784L3166.156 2248.928C3169.468 2249.072 3171.556 2250.152 3171.556 2253.752L3171.556 2270.024C3171.556 2275.208 3168.748 2276 3163.996 2276L3155.14 2276zM3159.892 2271.968L3162.772 2271.968C3165.22 2271.968 3166.804 2271.464 3166.804 2268.44L3166.804 2254.184C3166.804 2251.664 3165.292 2251.016 3163.06 2251.016L3159.892 2251.016 3159.892 2271.968zM3179.116 2276L3179.116 2224.016 3191.716 2224.016 3191.716 2228.048 3183.868 2228.048 3183.868 2246.984 3191.356 2246.984 3191.356 2251.016 3183.868 2251.016 3183.868 2271.968 3191.716 2271.968 3191.716 2276 3179.116 2276zM3201.076 2276L3201.076 2228.048 3195.748 2228.048 3195.748 2224.016 3211.156 2224.016 3211.156 2228.048 3205.828 2228.048 3205.828 2276 3201.076 2276zM3228.868 2276L3226.924 2261.6 3218.572 2261.6 3216.628 2276 3211.876 2276 3219.508 2224.016 3225.988 2224.016 3233.62 2276 3228.868 2276zM3226.42 2257.568L3222.82 2227.616 3222.676 2227.616 3219.076 2257.568 3226.42 2257.568zM3247.732 2237.624L3247.732 2230.928C3247.732 2228.696 3246.94 2227.616 3245.068 2227.616 3243.196 2227.616 3242.404 2228.696 3242.404 2230.928L3242.404 2269.088C3242.404 2271.32 3243.196 2272.4 3245.068 2272.4 3246.94 2272.4 3247.732 2271.32 3247.732 2269.088L3247.732 2261.816 3252.484 2261.816 3252.484 2269.232C3252.484 2273.624 3250.036 2276.432 3245.068 2276.432 3240.1 2276.432 3237.652 2273.624 3237.652 2269.232L3237.652 2230.784C3237.652 2226.392 3240.1 2223.584 3245.068 2223.584 3250.036 2223.584 3252.484 2226.392 3252.484 2230.784L3252.484 2237.624 3247.732 2237.624zM3272.068 2276L3270.124 2261.6 3261.772 2261.6 3259.828 2276 3255.076 2276 3262.708 2224.016 3269.188 2224.016 3276.82 2276 3272.068 2276zM3269.62 2257.568L3266.02 2227.616 3265.876 2227.616 3262.276 2257.568 3269.62 2257.568zM3293.956 2270.528L3299.284 2224.016 3306.628 2224.016 3306.628 2276 3302.452 2276 3302.452 2228.048 3302.308 2228.048 3296.836 2276 3290.932 2276 3285.46 2228.048 3285.316 2228.048 3285.316 2276 3281.14 2276 3281.14 2224.016 3288.484 2224.016 3293.812 2270.528 3293.956 2270.528zM4233.532 1280L4233.532 1233.416C4232.452 1234.352 4230.148 1235.936 4228.78 1236.656L4228.78 1231.832C4230.508 1231.04 4232.956 1229.168 4234.18 1228.016L4238.284 1228.016 4238.284 1280 4233.532 1280zM4255.42 1239.824L4258.012 1228.016 4263.34 1228.016 4259.308 1239.824 4255.42 1239.824zM4246.78 1239.824L4249.372 1228.016 4254.7 1228.016 4250.668 1239.824 4246.78 1239.824zM4276.948 1271.648L4276.948 1236.368C4276.948 1231.256 4278.892 1227.584 4285.3 1227.584 4291.708 1227.584 4293.652 1231.256 4293.652 1236.368L4293.652 1271.648C4293.652 1276.76 4291.708 1280.432 4285.3 1280.432 4278.892 1280.432 4276.948 1276.76 4276.948 1271.648zM4281.7 1236.512L4281.7 1271.504C4281.7 1274.384 4282.276 1276.4 4285.3 1276.4 4288.324 1276.4 4288.9 1274.384 4288.9 1271.504L4288.9 1236.512C4288.9 1233.632 4288.324 1231.616 4285.3 1231.616 4282.276 1231.616 4281.7 1233.632 4281.7 1236.512zM4300.996 1280L4300.996 1228.016 4308.556 1228.016C4314.676 1228.016 4316.476 1230.032 4316.476 1235.936L4316.476 1248.68C4316.476 1254.584 4314.676 1256.6 4308.556 1256.6L4305.748 1256.6 4305.748 1280 4300.996 1280zM4305.748 1252.568L4308.052 1252.568C4310.212 1252.568 4311.724 1251.992 4311.724 1249.328L4311.724 1235.288C4311.724 1232.624 4310.212 1232.048 4308.052 1232.048L4305.748 1232.048 4305.748 1252.568zM4321.012 1280L4321.012 1228.016 4333.612 1228.016 4333.612 1232.048 4325.764 1232.048 4325.764 1250.984 4333.252 1250.984 4333.252 1255.016 4325.764 1255.016 4325.764 1275.968 4333.612 1275.968 4333.612 1280 4321.012 1280zM4352.332 1272.512L4352.332 1228.016 4356.508 1228.016 4356.508 1280 4349.74 1280 4343.764 1233.776 4343.62 1233.776 4343.62 1280 4339.444 1280 4339.444 1228.016 4346.356 1228.016 4352.188 1272.512 4352.332 1272.512zM4378.324 1250.984L4381.492 1250.984C4383.724 1250.984 4385.02 1250.336 4385.02 1247.24L4385.02 1235.576C4385.02 1232.552 4383.436 1232.048 4380.988 1232.048L4378.324 1232.048 4378.324 1250.984zM4385.236 1280L4385.236 1258.184C4385.236 1255.664 4383.724 1255.016 4381.492 1255.016L4378.324 1255.016 4378.324 1280 4373.572 1280 4373.572 1228.016 4382.428 1228.016C4386.964 1228.016 4389.772 1228.808 4389.772 1233.992L4389.772 1247.168C4389.772 1251.2 4388.26 1252.568 4384.588 1252.784L4384.588 1252.928C4387.972 1253.144 4389.988 1254.152 4389.988 1257.752L4389.988 1280 4385.236 1280zM4397.548 1280L4397.548 1228.016 4410.148 1228.016 4410.148 1232.048 4402.3 1232.048 4402.3 1250.984 4409.788 1250.984 4409.788 1255.016 4402.3 1255.016 4402.3 1275.968 4410.148 1275.968 4410.148 1280 4397.548 1280zM4416.196 1280L4416.196 1228.016 4428.796 1228.016 4428.796 1232.048 4420.948 1232.048 4420.948 1250.984 4428.436 1250.984 4428.436 1255.016 4420.948 1255.016 4420.948 1275.968 4428.796 1275.968 4428.796 1280 4416.196 1280zM4434.844 1280L4434.844 1228.016 4439.596 1228.016 4439.596 1275.968 4447.444 1275.968 4447.444 1280 4434.844 1280zM4291.352 6271.528L4296.68 6225.016 4304.024 6225.016 4304.024 6277 4299.848 6277 4299.848 6229.048 4299.704 6229.048 4294.232 6277 4288.328 6277 4282.856 6229.048 4282.712 6229.048 4282.712 6277 4278.536 6277 4278.536 6225.016 4285.88 6225.016 4291.208 6271.528 4291.352 6271.528zM4310.936 6277L4310.936 6225.016 4315.688 6225.016 4315.688 6277 4310.936 6277zM4335.704 6269.512L4335.704 6225.016 4339.88 6225.016 4339.88 6277 4333.112 6277 4327.136 6230.776 4326.992 6230.776 4326.992 6277 4322.816 6277 4322.816 6225.016 4329.728 6225.016 4335.56 6269.512 4335.704 6269.512zM4347.008 6277L4347.008 6225.016 4351.76 6225.016 4351.76 6277 4347.008 6277zM4359.32 6277L4359.32 6225.016 4367.456 6225.016C4373.936 6225.016 4375.52 6228.328 4375.52 6233.44L4375.52 6268.576C4375.52 6273.688 4373.936 6277 4367.456 6277L4359.32 6277zM4364.072 6272.968L4366.592 6272.968C4369.76 6272.968 4370.768 6271.96 4370.768 6268.936L4370.768 6233.08C4370.768 6230.056 4369.76 6229.048 4366.592 6229.048L4364.072 6229.048 4364.072 6272.968zM4388.768 6272.248L4393.448 6225.016 4398.2 6225.016 4392.152 6277 4385.24 6277 4379.192 6225.016 4383.944 6225.016 4388.624 6272.248 4388.768 6272.248zM741.156 3246.984L741.156 3224.016 745.908 3224.016 745.908 3276 741.156 3276 741.156 3251.016 734.028 3251.016 734.028 3276 729.276 3276 729.276 3224.016 734.028 3224.016 734.028 3246.984 741.156 3246.984zM753.468 3276L753.468 3224.016 761.604 3224.016C768.084 3224.016 769.668 3227.328 769.668 3232.44L769.668 3267.576C769.668 3272.688 768.084 3276 761.604 3276L753.468 3276zM758.22 3271.968L760.74 3271.968C763.908 3271.968 764.916 3270.96 764.916 3267.936L764.916 3232.08C764.916 3229.056 763.908 3228.048 760.74 3228.048L758.22 3228.048 758.22 3271.968zM787.308 3237.624L787.308 3230.928C787.308 3228.696 786.516 3227.616 784.644 3227.616 782.772 3227.616 781.98 3228.696 781.98 3230.928L781.98 3269.088C781.98 3271.32 782.772 3272.4 784.644 3272.4 786.516 3272.4 787.308 3271.32 787.308 3269.088L787.308 3261.816 792.06 3261.816 792.06 3269.232C792.06 3273.624 789.612 3276.432 784.644 3276.432 779.676 3276.432 777.228 3273.624 777.228 3269.232L777.228 3230.784C777.228 3226.392 779.676 3223.584 784.644 3223.584 789.612 3223.584 792.06 3226.392 792.06 3230.784L792.06 3237.624 787.308 3237.624zM811.644 3276L809.7 3261.6 801.348 3261.6 799.404 3276 794.652 3276 802.284 3224.016 808.764 3224.016 816.396 3276 811.644 3276zM809.196 3257.568L805.596 3227.616 805.452 3227.616 801.852 3257.568 809.196 3257.568zM833.532 3270.528L838.86 3224.016 846.204 3224.016 846.204 3276 842.028 3276 842.028 3228.048 841.884 3228.048 836.412 3276 830.508 3276 825.036 3228.048 824.892 3228.048 824.892 3276 820.716 3276 820.716 3224.016 828.06 3224.016 833.388 3270.528 833.532 3270.528zM872.196 3237.48L872.196 3231.144C872.196 3229.128 871.692 3227.616 869.46 3227.616 867.228 3227.616 866.724 3229.128 866.724 3231.144L866.724 3236.616C866.724 3238.272 867.012 3239.928 867.804 3241.296L875.364 3254.256C876.444 3256.056 877.092 3258.288 877.092 3260.592L877.092 3268.8C877.092 3273.696 874.212 3276.432 869.46 3276.432 864.204 3276.432 861.684 3274.056 861.684 3268.8L861.684 3261.672 866.436 3261.672 866.436 3268.512C866.436 3270.96 867.372 3272.4 869.46 3272.4 871.404 3272.4 872.34 3270.96 872.34 3268.512L872.34 3261.24C872.34 3259.44 871.98 3258.072 870.972 3256.272L863.988 3244.104C862.692 3241.872 861.972 3240.144 861.972 3237.48L861.972 3231.216C861.972 3226.104 864.636 3223.584 869.46 3223.584 874.788 3223.584 876.948 3226.104 876.948 3230.856L876.948 3237.48 872.196 3237.48zM731.252 5276L731.252 5224.016 739.388 5224.016C745.868 5224.016 747.452 5227.328 747.452 5232.44L747.452 5267.576C747.452 5272.688 745.868 5276 739.388 5276L731.252 5276zM736.004 5271.968L738.524 5271.968C741.692 5271.968 742.7 5270.96 742.7 5267.936L742.7 5232.08C742.7 5229.056 741.692 5228.048 738.524 5228.048L736.004 5228.048 736.004 5271.968zM755.012 5276L755.012 5224.016 759.764 5224.016 759.764 5276 755.012 5276zM775.172 5254.544L775.172 5250.512 783.74 5250.512 783.74 5274.848C781.22 5275.856 778.7 5276.432 776.252 5276.432 769.7 5276.432 767.324 5273.264 767.324 5267.288L767.324 5231.792C767.324 5226.392 770.348 5223.584 775.532 5223.584 780.716 5223.584 783.74 5226.392 783.74 5231.792L783.74 5237.624 778.988 5237.624 778.988 5232.44C778.988 5229.56 778.268 5227.616 775.532 5227.616 772.796 5227.616 772.076 5229.56 772.076 5232.44L772.076 5267.216C772.076 5271.464 774.164 5272.4 775.82 5272.4 777.116 5272.4 778.34 5272.112 778.988 5271.68L778.988 5254.544 775.172 5254.544zM791.084 5276L791.084 5224.016 795.836 5224.016 795.836 5276 791.084 5276zM806.492 5276L806.492 5228.048 801.164 5228.048 801.164 5224.016 816.572 5224.016 816.572 5228.048 811.244 5228.048 811.244 5276 806.492 5276zM834.284 5276L832.34 5261.6 823.988 5261.6 822.044 5276 817.292 5276 824.924 5224.016 831.404 5224.016 839.036 5276 834.284 5276zM831.836 5257.568L828.236 5227.616 828.092 5227.616 824.492 5257.568 831.836 5257.568zM843.788 5276L843.788 5224.016 848.54 5224.016 848.54 5271.968 856.388 5271.968 856.388 5276 843.788 5276zM871.652 5269.592L871.652 5253.968C871.652 5252.24 870.5 5250.728 868.7 5250.728 866.9 5250.728 865.748 5252.24 865.748 5253.968L865.748 5269.592C865.748 5271.32 866.9 5272.832 868.7 5272.832 870.5 5272.832 871.652 5271.32 871.652 5269.592zM871.652 5243.888L871.652 5230.424C871.652 5228.696 870.5 5227.184 868.7 5227.184 866.9 5227.184 865.748 5228.696 865.748 5230.424L865.748 5243.888C865.748 5245.616 866.9 5247.128 868.7 5247.128 870.5 5247.128 871.652 5245.616 871.652 5243.888zM861.284 5268.584L861.284 5254.112C861.284 5250.728 862.436 5249.576 865.028 5249.144L865.028 5249C862.436 5247.92 861.284 5247.056 861.284 5243.24L861.284 5231.432C861.284 5226.752 863.444 5223.584 868.7 5223.584 873.956 5223.584 876.116 5226.752 876.116 5231.432L876.116 5243.24C876.116 5247.056 874.964 5247.92 872.372 5249L872.372 5249.144C874.964 5249.576 876.116 5250.728 876.116 5254.112L876.116 5268.584C876.116 5273.264 873.956 5276.432 868.7 5276.432 863.444 5276.432 861.284 5273.264 861.284 5268.584zM3109.752 5271.248L3114.432 5224.016 3119.184 5224.016 3113.136 5276 3106.224 5276 3100.176 5224.016 3104.928 5224.016 3109.608 5271.248 3109.752 5271.248zM3123.36 5276L3123.36 5224.016 3128.112 5224.016 3128.112 5276 3123.36 5276zM3135.672 5276L3135.672 5224.016 3143.808 5224.016C3150.288 5224.016 3151.872 5227.328 3151.872 5232.44L3151.872 5267.576C3151.872 5272.688 3150.288 5276 3143.808 5276L3135.672 5276zM3140.424 5271.968L3142.944 5271.968C3146.112 5271.968 3147.12 5270.96 3147.12 5267.936L3147.12 5232.08C3147.12 5229.056 3146.112 5228.048 3142.944 5228.048L3140.424 5228.048 3140.424 5271.968zM3159.432 5276L3159.432 5224.016 3172.032 5224.016 3172.032 5228.048 3164.184 5228.048 3164.184 5246.984 3171.672 5246.984 3171.672 5251.016 3164.184 5251.016 3164.184 5271.968 3172.032 5271.968 3172.032 5276 3159.432 5276zM3178.08 5267.648L3178.08 5232.368C3178.08 5227.256 3180.024 5223.584 3186.432 5223.584 3192.84 5223.584 3194.784 5227.256 3194.784 5232.368L3194.784 5267.648C3194.784 5272.76 3192.84 5276.432 3186.432 5276.432 3180.024 5276.432 3178.08 5272.76 3178.08 5267.648zM3182.832 5232.512L3182.832 5267.504C3182.832 5270.384 3183.408 5272.4 3186.432 5272.4 3189.456 5272.4 3190.032 5270.384 3190.032 5267.504L3190.032 5232.512C3190.032 5229.632 3189.456 5227.616 3186.432 5227.616 3183.408 5227.616 3182.832 5229.632 3182.832 5232.512zM3211.344 5269.592L3211.344 5253.968C3211.344 5252.24 3210.192 5250.728 3208.392 5250.728 3206.592 5250.728 3205.44 5252.24 3205.44 5253.968L3205.44 5269.592C3205.44 5271.32 3206.592 5272.832 3208.392 5272.832 3210.192 5272.832 3211.344 5271.32 3211.344 5269.592zM3211.344 5243.888L3211.344 5230.424C3211.344 5228.696 3210.192 5227.184 3208.392 5227.184 3206.592 5227.184 3205.44 5228.696 3205.44 5230.424L3205.44 5243.888C3205.44 5245.616 3206.592 5247.128 3208.392 5247.128 3210.192 5247.128 3211.344 5245.616 3211.344 5243.888zM3200.976 5268.584L3200.976 5254.112C3200.976 5250.728 3202.128 5249.576 3204.72 5249.144L3204.72 5249C3202.128 5247.92 3200.976 5247.056 3200.976 5243.24L3200.976 5231.432C3200.976 5226.752 3203.136 5223.584 3208.392 5223.584 3213.648 5223.584 3215.808 5226.752 3215.808 5231.432L3215.808 5243.24C3215.808 5247.056 3214.656 5247.92 3212.064 5249L3212.064 5249.144C3214.656 5249.576 3215.808 5250.728 3215.808 5254.112L3215.808 5268.584C3215.808 5273.264 3213.648 5276.432 3208.392 5276.432 3203.136 5276.432 3200.976 5273.264 3200.976 5268.584zM746.308 4277L746.308 4225.016 754.444 4225.016C760.924 4225.016 762.508 4228.328 762.508 4233.44L762.508 4268.576C762.508 4273.688 760.924 4277 754.444 4277L746.308 4277zM751.06 4272.968L753.58 4272.968C756.748 4272.968 757.756 4271.96 757.756 4268.936L757.756 4233.08C757.756 4230.056 756.748 4229.048 753.58 4229.048L751.06 4229.048 751.06 4272.968zM775.756 4272.248L780.436 4225.016 785.188 4225.016 779.14 4277 772.228 4277 766.18 4225.016 770.932 4225.016 775.612 4272.248 775.756 4272.248zM799.444 4238.624L799.444 4231.928C799.444 4229.696 798.652 4228.616 796.78 4228.616 794.908 4228.616 794.116 4229.696 794.116 4231.928L794.116 4270.088C794.116 4272.32 794.908 4273.4 796.78 4273.4 798.652 4273.4 799.444 4272.32 799.444 4270.088L799.444 4262.816 804.196 4262.816 804.196 4270.232C804.196 4274.624 801.748 4277.432 796.78 4277.432 791.812 4277.432 789.364 4274.624 789.364 4270.232L789.364 4231.784C789.364 4227.392 791.812 4224.584 796.78 4224.584 801.748 4224.584 804.196 4227.392 804.196 4231.784L804.196 4238.624 799.444 4238.624zM823.78 4277L821.836 4262.6 813.484 4262.6 811.54 4277 806.788 4277 814.42 4225.016 820.9 4225.016 828.532 4277 823.78 4277zM821.332 4258.568L817.732 4228.616 817.588 4228.616 813.988 4258.568 821.332 4258.568zM845.668 4271.528L850.996 4225.016 858.34 4225.016 858.34 4277 854.164 4277 854.164 4229.048 854.02 4229.048 848.548 4277 842.644 4277 837.172 4229.048 837.028 4229.048 837.028 4277 832.852 4277 832.852 4225.016 840.196 4225.016 845.524 4271.528 845.668 4271.528zM3050.56 1241.408L3050.56 1235.36C3050.56 1230.176 3052.864 1227.584 3058.12 1227.584 3062.872 1227.584 3065.248 1230.536 3065.248 1235.288L3065.248 1240.328C3065.248 1242.272 3064.816 1245.08 3064.096 1247.168L3054.088 1275.968 3065.32 1275.968 3065.32 1280 3049.912 1280 3049.912 1275.176 3059.632 1246.664C3060.496 1244.216 3060.784 1242.056 3060.784 1239.536L3060.784 1235.432C3060.784 1232.552 3059.848 1231.184 3057.904 1231.184 3055.96 1231.184 3055.024 1232.552 3055.024 1235.432L3055.024 1241.408 3050.56 1241.408zM3077.92 1239.824L3080.512 1228.016 3085.84 1228.016 3081.808 1239.824 3077.92 1239.824zM3069.28 1239.824L3071.872 1228.016 3077.2 1228.016 3073.168 1239.824 3069.28 1239.824zM3099.448 1271.648L3099.448 1236.368C3099.448 1231.256 3101.392 1227.584 3107.8 1227.584 3114.208 1227.584 3116.152 1231.256 3116.152 1236.368L3116.152 1271.648C3116.152 1276.76 3114.208 1280.432 3107.8 1280.432 3101.392 1280.432 3099.448 1276.76 3099.448 1271.648zM3104.2 1236.512L3104.2 1271.504C3104.2 1274.384 3104.776 1276.4 3107.8 1276.4 3110.824 1276.4 3111.4 1274.384 3111.4 1271.504L3111.4 1236.512C3111.4 1233.632 3110.824 1231.616 3107.8 1231.616 3104.776 1231.616 3104.2 1233.632 3104.2 1236.512zM3123.496 1280L3123.496 1228.016 3131.056 1228.016C3137.176 1228.016 3138.976 1230.032 3138.976 1235.936L3138.976 1248.68C3138.976 1254.584 3137.176 1256.6 3131.056 1256.6L3128.248 1256.6 3128.248 1280 3123.496 1280zM3128.248 1252.568L3130.552 1252.568C3132.712 1252.568 3134.224 1251.992 3134.224 1249.328L3134.224 1235.288C3134.224 1232.624 3132.712 1232.048 3130.552 1232.048L3128.248 1232.048 3128.248 1252.568zM3143.512 1280L3143.512 1228.016 3156.112 1228.016 3156.112 1232.048 3148.264 1232.048 3148.264 1250.984 3155.752 1250.984 3155.752 1255.016 3148.264 1255.016 3148.264 1275.968 3156.112 1275.968 3156.112 1280 3143.512 1280zM3174.832 1272.512L3174.832 1228.016 3179.008 1228.016 3179.008 1280 3172.24 1280 3166.264 1233.776 3166.12 1233.776 3166.12 1280 3161.944 1280 3161.944 1228.016 3168.856 1228.016 3174.688 1272.512 3174.832 1272.512zM3200.824 1250.984L3203.992 1250.984C3206.224 1250.984 3207.52 1250.336 3207.52 1247.24L3207.52 1235.576C3207.52 1232.552 3205.936 1232.048 3203.488 1232.048L3200.824 1232.048 3200.824 1250.984zM3207.736 1280L3207.736 1258.184C3207.736 1255.664 3206.224 1255.016 3203.992 1255.016L3200.824 1255.016 3200.824 1280 3196.072 1280 3196.072 1228.016 3204.928 1228.016C3209.464 1228.016 3212.272 1228.808 3212.272 1233.992L3212.272 1247.168C3212.272 1251.2 3210.76 1252.568 3207.088 1252.784L3207.088 1252.928C3210.472 1253.144 3212.488 1254.152 3212.488 1257.752L3212.488 1280 3207.736 1280zM3220.048 1280L3220.048 1228.016 3232.648 1228.016 3232.648 1232.048 3224.8 1232.048 3224.8 1250.984 3232.288 1250.984 3232.288 1255.016 3224.8 1255.016 3224.8 1275.968 3232.648 1275.968 3232.648 1280 3220.048 1280zM3238.696 1280L3238.696 1228.016 3251.296 1228.016 3251.296 1232.048 3243.448 1232.048 3243.448 1250.984 3250.936 1250.984 3250.936 1255.016 3243.448 1255.016 3243.448 1275.968 3251.296 1275.968 3251.296 1280 3238.696 1280zM3257.344 1280L3257.344 1228.016 3262.096 1228.016 3262.096 1275.968 3269.944 1275.968 3269.944 1280 3257.344 1280zM1868.424 1277L1882.392 1225.016 1885.992 1225.016 1872.024 1277 1868.424 1277zM1868.28 1256.048L1868.28 1228.472 1868.136 1228.472C1867.848 1228.976 1866.48 1229.912 1865.76 1230.344L1865.76 1227.176C1866.84 1226.672 1868.424 1225.52 1869.216 1224.872L1871.88 1224.872 1871.88 1256.048 1868.28 1256.048zM1882.464 1277L1882.464 1274.12 1888.008 1258.712C1889.016 1255.976 1889.088 1254.248 1889.088 1252.736L1889.088 1250.72C1889.088 1248.992 1888.512 1248.128 1887.648 1248.128 1886.784 1248.128 1886.208 1248.992 1886.208 1250.72L1886.208 1253.816 1882.896 1253.816 1882.896 1250.216C1882.896 1247.12 1884.336 1245.536 1887.792 1245.536 1890.888 1245.536 1892.4 1247.336 1892.4 1250.144L1892.4 1253.168C1892.4 1255.184 1892.184 1256.552 1891.032 1259.792L1885.848 1274.12 1892.472 1274.12 1892.472 1277 1882.464 1277zM1904.496 1236.824L1907.088 1225.016 1912.416 1225.016 1908.384 1236.824 1904.496 1236.824zM1895.856 1236.824L1898.448 1225.016 1903.776 1225.016 1899.744 1236.824 1895.856 1236.824zM1926.024 1268.648L1926.024 1233.368C1926.024 1228.256 1927.968 1224.584 1934.376 1224.584 1940.784 1224.584 1942.728 1228.256 1942.728 1233.368L1942.728 1268.648C1942.728 1273.76 1940.784 1277.432 1934.376 1277.432 1927.968 1277.432 1926.024 1273.76 1926.024 1268.648zM1930.776 1233.512L1930.776 1268.504C1930.776 1271.384 1931.352 1273.4 1934.376 1273.4 1937.4 1273.4 1937.976 1271.384 1937.976 1268.504L1937.976 1233.512C1937.976 1230.632 1937.4 1228.616 1934.376 1228.616 1931.352 1228.616 1930.776 1230.632 1930.776 1233.512zM1950.072 1277L1950.072 1225.016 1957.632 1225.016C1963.752 1225.016 1965.552 1227.032 1965.552 1232.936L1965.552 1245.68C1965.552 1251.584 1963.752 1253.6 1957.632 1253.6L1954.824 1253.6 1954.824 1277 1950.072 1277zM1954.824 1249.568L1957.128 1249.568C1959.288 1249.568 1960.8 1248.992 1960.8 1246.328L1960.8 1232.288C1960.8 1229.624 1959.288 1229.048 1957.128 1229.048L1954.824 1229.048 1954.824 1249.568zM1970.088 1277L1970.088 1225.016 1982.688 1225.016 1982.688 1229.048 1974.84 1229.048 1974.84 1247.984 1982.328 1247.984 1982.328 1252.016 1974.84 1252.016 1974.84 1272.968 1982.688 1272.968 1982.688 1277 1970.088 1277zM2001.408 1269.512L2001.408 1225.016 2005.584 1225.016 2005.584 1277 1998.816 1277 1992.84 1230.776 1992.696 1230.776 1992.696 1277 1988.52 1277 1988.52 1225.016 1995.432 1225.016 2001.264 1269.512 2001.408 1269.512zM2027.4 1247.984L2030.568 1247.984C2032.8 1247.984 2034.096 1247.336 2034.096 1244.24L2034.096 1232.576C2034.096 1229.552 2032.512 1229.048 2030.064 1229.048L2027.4 1229.048 2027.4 1247.984zM2034.312 1277L2034.312 1255.184C2034.312 1252.664 2032.8 1252.016 2030.568 1252.016L2027.4 1252.016 2027.4 1277 2022.648 1277 2022.648 1225.016 2031.504 1225.016C2036.04 1225.016 2038.848 1225.808 2038.848 1230.992L2038.848 1244.168C2038.848 1248.2 2037.336 1249.568 2033.664 1249.784L2033.664 1249.928C2037.048 1250.144 2039.064 1251.152 2039.064 1254.752L2039.064 1277 2034.312 1277zM2046.624 1277L2046.624 1225.016 2059.224 1225.016 2059.224 1229.048 2051.376 1229.048 2051.376 1247.984 2058.864 1247.984 2058.864 1252.016 2051.376 1252.016 2051.376 1272.968 2059.224 1272.968 2059.224 1277 2046.624 1277zM2065.272 1277L2065.272 1225.016 2077.872 1225.016 2077.872 1229.048 2070.024 1229.048 2070.024 1247.984 2077.512 1247.984 2077.512 1252.016 2070.024 1252.016 2070.024 1272.968 2077.872 1272.968 2077.872 1277 2065.272 1277zM2083.92 1277L2083.92 1225.016 2088.672 1225.016 2088.672 1272.968 2096.52 1272.968 2096.52 1277 2083.92 1277zM1910.332 6277L1910.332 6225.016 1918.468 6225.016C1924.948 6225.016 1926.532 6228.328 1926.532 6233.44L1926.532 6268.576C1926.532 6273.688 1924.948 6277 1918.468 6277L1910.332 6277zM1915.084 6272.968L1917.604 6272.968C1920.772 6272.968 1921.78 6271.96 1921.78 6268.936L1921.78 6233.08C1921.78 6230.056 1920.772 6229.048 1917.604 6229.048L1915.084 6229.048 1915.084 6272.968zM1939.78 6272.248L1944.46 6225.016 1949.212 6225.016 1943.164 6277 1936.252 6277 1930.204 6225.016 1934.956 6225.016 1939.636 6272.248 1939.78 6272.248zM1963.468 6238.624L1963.468 6231.928C1963.468 6229.696 1962.676 6228.616 1960.804 6228.616 1958.932 6228.616 1958.14 6229.696 1958.14 6231.928L1958.14 6270.088C1958.14 6272.32 1958.932 6273.4 1960.804 6273.4 1962.676 6273.4 1963.468 6272.32 1963.468 6270.088L1963.468 6262.816 1968.22 6262.816 1968.22 6270.232C1968.22 6274.624 1965.772 6277.432 1960.804 6277.432 1955.836 6277.432 1953.388 6274.624 1953.388 6270.232L1953.388 6231.784C1953.388 6227.392 1955.836 6224.584 1960.804 6224.584 1965.772 6224.584 1968.22 6227.392 1968.22 6231.784L1968.22 6238.624 1963.468 6238.624zM1987.804 6277L1985.86 6262.6 1977.508 6262.6 1975.564 6277 1970.812 6277 1978.444 6225.016 1984.924 6225.016 1992.556 6277 1987.804 6277zM1985.356 6258.568L1981.756 6228.616 1981.612 6228.616 1978.012 6258.568 1985.356 6258.568zM2009.692 6271.528L2015.02 6225.016 2022.364 6225.016 2022.364 6277 2018.188 6277 2018.188 6229.048 2018.044 6229.048 2012.572 6277 2006.668 6277 2001.196 6229.048 2001.052 6229.048 2001.052 6277 1996.876 6277 1996.876 6225.016 2004.22 6225.016 2009.548 6271.528 2009.692 6271.528zM2048.356 6238.48L2048.356 6232.144C2048.356 6230.128 2047.852 6228.616 2045.62 6228.616 2043.388 6228.616 2042.884 6230.128 2042.884 6232.144L2042.884 6237.616C2042.884 6239.272 2043.172 6240.928 2043.964 6242.296L2051.524 6255.256C2052.604 6257.056 2053.252 6259.288 2053.252 6261.592L2053.252 6269.8C2053.252 6274.696 2050.372 6277.432 2045.62 6277.432 2040.364 6277.432 2037.844 6275.056 2037.844 6269.8L2037.844 6262.672 2042.596 6262.672 2042.596 6269.512C2042.596 6271.96 2043.532 6273.4 2045.62 6273.4 2047.564 6273.4 2048.5 6271.96 2048.5 6269.512L2048.5 6262.24C2048.5 6260.44 2048.14 6259.072 2047.132 6257.272L2040.148 6245.104C2038.852 6242.872 2038.132 6241.144 2038.132 6238.48L2038.132 6232.216C2038.132 6227.104 2040.796 6224.584 2045.62 6224.584 2050.948 6224.584 2053.108 6227.104 2053.108 6231.856L2053.108 6238.48 2048.356 6238.48zM3089.516 4276L3089.516 4224.016 3097.652 4224.016C3104.132 4224.016 3105.716 4227.328 3105.716 4232.44L3105.716 4267.576C3105.716 4272.688 3104.132 4276 3097.652 4276L3089.516 4276zM3094.268 4271.968L3096.788 4271.968C3099.956 4271.968 3100.964 4270.96 3100.964 4267.936L3100.964 4232.08C3100.964 4229.056 3099.956 4228.048 3096.788 4228.048L3094.268 4228.048 3094.268 4271.968zM3118.964 4271.248L3123.644 4224.016 3128.396 4224.016 3122.348 4276 3115.436 4276 3109.388 4224.016 3114.14 4224.016 3118.82 4271.248 3118.964 4271.248zM3142.652 4237.624L3142.652 4230.928C3142.652 4228.696 3141.86 4227.616 3139.988 4227.616 3138.116 4227.616 3137.324 4228.696 3137.324 4230.928L3137.324 4269.088C3137.324 4271.32 3138.116 4272.4 3139.988 4272.4 3141.86 4272.4 3142.652 4271.32 3142.652 4269.088L3142.652 4261.816 3147.404 4261.816 3147.404 4269.232C3147.404 4273.624 3144.956 4276.432 3139.988 4276.432 3135.02 4276.432 3132.572 4273.624 3132.572 4269.232L3132.572 4230.784C3132.572 4226.392 3135.02 4223.584 3139.988 4223.584 3144.956 4223.584 3147.404 4226.392 3147.404 4230.784L3147.404 4237.624 3142.652 4237.624zM3166.988 4276L3165.044 4261.6 3156.692 4261.6 3154.748 4276 3149.996 4276 3157.628 4224.016 3164.108 4224.016 3171.74 4276 3166.988 4276zM3164.54 4257.568L3160.94 4227.616 3160.796 4227.616 3157.196 4257.568 3164.54 4257.568zM3188.876 4270.528L3194.204 4224.016 3201.548 4224.016 3201.548 4276 3197.372 4276 3197.372 4228.048 3197.228 4228.048 3191.756 4276 3185.852 4276 3180.38 4228.048 3180.236 4228.048 3180.236 4276 3176.06 4276 3176.06 4224.016 3183.404 4224.016 3188.732 4270.528 3188.876 4270.528zM3218.396 4276L3218.396 4224.016 3223.148 4224.016 3223.148 4271.968 3230.996 4271.968 3230.996 4276 3218.396 4276zM1895.932 2247.984L1899.1 2247.984C1901.332 2247.984 1902.628 2247.336 1902.628 2244.24L1902.628 2232.576C1902.628 2229.552 1901.044 2229.048 1898.596 2229.048L1895.932 2229.048 1895.932 2247.984zM1891.18 2277L1891.18 2225.016 1900.036 2225.016C1904.572 2225.016 1907.38 2225.808 1907.38 2230.992L1907.38 2244.168C1907.38 2248.2 1905.868 2249.64 1902.196 2249.784L1902.196 2249.928C1905.508 2250.072 1907.596 2251.152 1907.596 2254.752L1907.596 2271.024C1907.596 2276.208 1904.788 2277 1900.036 2277L1891.18 2277zM1895.932 2272.968L1898.812 2272.968C1901.26 2272.968 1902.844 2272.464 1902.844 2269.44L1902.844 2255.184C1902.844 2252.664 1901.332 2252.016 1899.1 2252.016L1895.932 2252.016 1895.932 2272.968zM1915.156 2277L1915.156 2225.016 1927.756 2225.016 1927.756 2229.048 1919.908 2229.048 1919.908 2247.984 1927.396 2247.984 1927.396 2252.016 1919.908 2252.016 1919.908 2272.968 1927.756 2272.968 1927.756 2277 1915.156 2277zM1937.116 2277L1937.116 2229.048 1931.788 2229.048 1931.788 2225.016 1947.196 2225.016 1947.196 2229.048 1941.868 2229.048 1941.868 2277 1937.116 2277zM1964.908 2277L1962.964 2262.6 1954.612 2262.6 1952.668 2277 1947.916 2277 1955.548 2225.016 1962.028 2225.016 1969.66 2277 1964.908 2277zM1962.46 2258.568L1958.86 2228.616 1958.716 2228.616 1955.116 2258.568 1962.46 2258.568zM1983.772 2238.624L1983.772 2231.928C1983.772 2229.696 1982.98 2228.616 1981.108 2228.616 1979.236 2228.616 1978.444 2229.696 1978.444 2231.928L1978.444 2270.088C1978.444 2272.32 1979.236 2273.4 1981.108 2273.4 1982.98 2273.4 1983.772 2272.32 1983.772 2270.088L1983.772 2262.816 1988.524 2262.816 1988.524 2270.232C1988.524 2274.624 1986.076 2277.432 1981.108 2277.432 1976.14 2277.432 1973.692 2274.624 1973.692 2270.232L1973.692 2231.784C1973.692 2227.392 1976.14 2224.584 1981.108 2224.584 1986.076 2224.584 1988.524 2227.392 1988.524 2231.784L1988.524 2238.624 1983.772 2238.624zM2008.108 2277L2006.164 2262.6 1997.812 2262.6 1995.868 2277 1991.116 2277 1998.748 2225.016 2005.228 2225.016 2012.86 2277 2008.108 2277zM2005.66 2258.568L2002.06 2228.616 2001.916 2228.616 1998.316 2258.568 2005.66 2258.568zM2029.996 2271.528L2035.324 2225.016 2042.668 2225.016 2042.668 2277 2038.492 2277 2038.492 2229.048 2038.348 2229.048 2032.876 2277 2026.972 2277 2021.5 2229.048 2021.356 2229.048 2021.356 2277 2017.18 2277 2017.18 2225.016 2024.524 2225.016 2029.852 2271.528 2029.996 2271.528zM2059.516 2277L2059.516 2225.016 2064.268 2225.016 2064.268 2272.968 2072.116 2272.968 2072.116 2277 2059.516 2277zM3089.26 3265.488L3089.26 3248.856 3089.116 3248.856 3085.804 3265.488 3089.26 3265.488zM3089.26 3276L3089.26 3268.08 3083.356 3268.08 3083.356 3264.624 3088.108 3244.824 3092.572 3244.824 3092.572 3265.488 3094.876 3265.488 3094.876 3268.08 3092.572 3268.08 3092.572 3276 3089.26 3276zM3072.916 3276L3086.884 3224.016 3090.484 3224.016 3076.516 3276 3072.916 3276zM3071.188 3240.288L3071.188 3237.408 3072.196 3237.408C3073.708 3237.408 3074.572 3236.76 3074.572 3235.176L3074.572 3228.768C3074.572 3227.112 3074.068 3226.176 3073.06 3226.176 3071.908 3226.176 3071.476 3227.112 3071.476 3228.768L3071.476 3232.008 3068.164 3232.008 3068.164 3228.336C3068.164 3225.528 3069.604 3223.584 3073.06 3223.584 3076.516 3223.584 3077.884 3225.528 3077.884 3228.336L3077.884 3236.4C3077.884 3238.344 3077.02 3238.776 3075.652 3238.848L3075.652 3238.992C3077.02 3238.992 3077.884 3239.424 3077.884 3241.368L3077.884 3250.584C3077.884 3253.392 3076.516 3255.336 3073.06 3255.336 3069.604 3255.336 3068.164 3253.392 3068.164 3250.584L3068.164 3246.336 3071.476 3246.336 3071.476 3250.152C3071.476 3251.736 3071.908 3252.744 3073.06 3252.744 3074.14 3252.744 3074.572 3251.736 3074.572 3250.152L3074.572 3242.52C3074.572 3240.936 3073.708 3240.288 3072.196 3240.288L3071.188 3240.288zM3106.9 3235.824L3109.492 3224.016 3114.82 3224.016 3110.788 3235.824 3106.9 3235.824zM3098.26 3235.824L3100.852 3224.016 3106.18 3224.016 3102.148 3235.824 3098.26 3235.824zM3140.38 3267.504L3140.38 3224.016 3145.132 3224.016 3145.132 3269.016C3145.132 3274.776 3140.812 3276.432 3136.708 3276.432 3132.748 3276.432 3128.428 3274.776 3128.428 3269.016L3128.428 3224.016 3133.18 3224.016 3133.18 3267.504C3133.18 3271.248 3134.404 3272.4 3136.78 3272.4 3139.228 3272.4 3140.38 3271.248 3140.38 3267.504zM3164.86 3270.528L3170.188 3224.016 3177.532 3224.016 3177.532 3276 3173.356 3276 3173.356 3228.048 3173.212 3228.048 3167.74 3276 3161.836 3276 3156.364 3228.048 3156.22 3228.048 3156.22 3276 3152.044 3276 3152.044 3224.016 3159.388 3224.016 3164.716 3270.528 3164.86 3270.528zM3198.844 3276L3196.9 3261.6 3188.548 3261.6 3186.604 3276 3181.852 3276 3189.484 3224.016 3195.964 3224.016 3203.596 3276 3198.844 3276zM3196.396 3257.568L3192.796 3227.616 3192.652 3227.616 3189.052 3257.568 3196.396 3257.568zM3209.644 3276L3209.644 3228.048 3204.316 3228.048 3204.316 3224.016 3219.724 3224.016 3219.724 3228.048 3214.396 3228.048 3214.396 3276 3209.644 3276zM3225.052 3276L3225.052 3224.016 3229.804 3224.016 3229.804 3276 3225.052 3276zM3247.228 3237.624L3247.228 3230.928C3247.228 3228.696 3246.436 3227.616 3244.564 3227.616 3242.692 3227.616 3241.9 3228.696 3241.9 3230.928L3241.9 3269.088C3241.9 3271.32 3242.692 3272.4 3244.564 3272.4 3246.436 3272.4 3247.228 3271.32 3247.228 3269.088L3247.228 3261.816 3251.98 3261.816 3251.98 3269.232C3251.98 3273.624 3249.532 3276.432 3244.564 3276.432 3239.596 3276.432 3237.148 3273.624 3237.148 3269.232L3237.148 3230.784C3237.148 3226.392 3239.596 3223.584 3244.564 3223.584 3249.532 3223.584 3251.98 3226.392 3251.98 3230.784L3251.98 3237.624 3247.228 3237.624zM1909.864 4247.984L1913.032 4247.984C1915.264 4247.984 1916.56 4247.336 1916.56 4244.24L1916.56 4232.576C1916.56 4229.552 1914.976 4229.048 1912.528 4229.048L1909.864 4229.048 1909.864 4247.984zM1905.112 4277L1905.112 4225.016 1913.968 4225.016C1918.504 4225.016 1921.312 4225.808 1921.312 4230.992L1921.312 4244.168C1921.312 4248.2 1919.8 4249.64 1916.128 4249.784L1916.128 4249.928C1919.44 4250.072 1921.528 4251.152 1921.528 4254.752L1921.528 4271.024C1921.528 4276.208 1918.72 4277 1913.968 4277L1905.112 4277zM1909.864 4272.968L1912.744 4272.968C1915.192 4272.968 1916.776 4272.464 1916.776 4269.44L1916.776 4255.184C1916.776 4252.664 1915.264 4252.016 1913.032 4252.016L1909.864 4252.016 1909.864 4272.968zM1929.088 4277L1929.088 4225.016 1941.688 4225.016 1941.688 4229.048 1933.84 4229.048 1933.84 4247.984 1941.328 4247.984 1941.328 4252.016 1933.84 4252.016 1933.84 4272.968 1941.688 4272.968 1941.688 4277 1929.088 4277zM1951.048 4277L1951.048 4229.048 1945.72 4229.048 1945.72 4225.016 1961.128 4225.016 1961.128 4229.048 1955.8 4229.048 1955.8 4277 1951.048 4277zM1978.84 4277L1976.896 4262.6 1968.544 4262.6 1966.6 4277 1961.848 4277 1969.48 4225.016 1975.96 4225.016 1983.592 4277 1978.84 4277zM1976.392 4258.568L1972.792 4228.616 1972.648 4228.616 1969.048 4258.568 1976.392 4258.568zM2000.728 4271.528L2006.056 4225.016 2013.4 4225.016 2013.4 4277 2009.224 4277 2009.224 4229.048 2009.08 4229.048 2003.608 4277 1997.704 4277 1992.232 4229.048 1992.088 4229.048 1992.088 4277 1987.912 4277 1987.912 4225.016 1995.256 4225.016 2000.584 4271.528 2000.728 4271.528zM2034.712 4277L2032.768 4262.6 2024.416 4262.6 2022.472 4277 2017.72 4277 2025.352 4225.016 2031.832 4225.016 2039.464 4277 2034.712 4277zM2032.264 4258.568L2028.664 4228.616 2028.52 4228.616 2024.92 4258.568 2032.264 4258.568zM2050.624 4246.112L2054.728 4225.016 2059.48 4225.016 2053.36 4250.864 2059.984 4277 2055.232 4277 2050.624 4255.112 2050.48 4255.112 2045.872 4277 2041.12 4277 2047.888 4250.864 2041.624 4225.016 2046.376 4225.016 2050.48 4246.112 2050.624 4246.112zM1968.58 5246.984L1968.58 5224.016 1973.332 5224.016 1973.332 5276 1968.58 5276 1968.58 5251.016 1961.452 5251.016 1961.452 5276 1956.7 5276 1956.7 5224.016 1961.452 5224.016 1961.452 5246.984 1968.58 5246.984zM1980.676 5276L1980.676 5224.016 1985.428 5224.016 1985.428 5276 1980.676 5276zM2001.988 5269.592L2001.988 5253.968C2001.988 5252.24 2000.836 5250.728 1999.036 5250.728 1997.236 5250.728 1996.084 5252.24 1996.084 5253.968L1996.084 5269.592C1996.084 5271.32 1997.236 5272.832 1999.036 5272.832 2000.836 5272.832 2001.988 5271.32 2001.988 5269.592zM2001.988 5243.888L2001.988 5230.424C2001.988 5228.696 2000.836 5227.184 1999.036 5227.184 1997.236 5227.184 1996.084 5228.696 1996.084 5230.424L1996.084 5243.888C1996.084 5245.616 1997.236 5247.128 1999.036 5247.128 2000.836 5247.128 2001.988 5245.616 2001.988 5243.888zM1991.62 5268.584L1991.62 5254.112C1991.62 5250.728 1992.772 5249.576 1995.364 5249.144L1995.364 5249C1992.772 5247.92 1991.62 5247.056 1991.62 5243.24L1991.62 5231.432C1991.62 5226.752 1993.78 5223.584 1999.036 5223.584 2004.292 5223.584 2006.452 5226.752 2006.452 5231.432L2006.452 5243.24C2006.452 5247.056 2005.3 5247.92 2002.708 5249L2002.708 5249.144C2005.3 5249.576 2006.452 5250.728 2006.452 5254.112L2006.452 5268.584C2006.452 5273.264 2004.292 5276.432 1999.036 5276.432 1993.78 5276.432 1991.62 5273.264 1991.62 5268.584zM1962.964 3276L1962.964 3224.016 1971.1 3224.016C1977.58 3224.016 1979.164 3227.328 1979.164 3232.44L1979.164 3267.576C1979.164 3272.688 1977.58 3276 1971.1 3276L1962.964 3276zM1967.716 3271.968L1970.236 3271.968C1973.404 3271.968 1974.412 3270.96 1974.412 3267.936L1974.412 3232.08C1974.412 3229.056 1973.404 3228.048 1970.236 3228.048L1967.716 3228.048 1967.716 3271.968zM1990.324 3251.16L1990.324 3247.128 1992.988 3247.128C1994.788 3247.128 1995.94 3245.616 1995.94 3243.888L1995.94 3230.424C1995.94 3228.696 1994.788 3227.184 1992.988 3227.184 1991.188 3227.184 1990.036 3228.696 1990.036 3230.424L1990.036 3237.624 1985.572 3237.624 1985.572 3231.432C1985.572 3226.752 1987.732 3223.584 1992.988 3223.584 1998.244 3223.584 2000.404 3226.752 2000.404 3231.432L2000.404 3243.24C2000.404 3247.056 1999.252 3247.92 1996.66 3249L1996.66 3249.144C1999.252 3249.576 2000.404 3250.728 2000.404 3254.112L2000.404 3268.584C2000.404 3273.264 1998.244 3276.432 1992.988 3276.432 1987.732 3276.432 1985.572 3273.264 1985.572 3268.584L1985.572 3261.528 1990.036 3261.528 1990.036 3269.592C1990.036 3271.32 1991.188 3272.832 1992.988 3272.832 1994.788 3272.832 1995.94 3271.32 1995.94 3269.592L1995.94 3254.4C1995.94 3252.672 1994.788 3251.16 1992.988 3251.16L1990.324 3251.16zM4275.224 5276L4275.224 5224.016 4283.36 5224.016C4289.84 5224.016 4291.424 5227.328 4291.424 5232.44L4291.424 5267.576C4291.424 5272.688 4289.84 5276 4283.36 5276L4275.224 5276zM4279.976 5271.968L4282.496 5271.968C4285.664 5271.968 4286.672 5270.96 4286.672 5267.936L4286.672 5232.08C4286.672 5229.056 4285.664 5228.048 4282.496 5228.048L4279.976 5228.048 4279.976 5271.968zM4304.672 5271.248L4309.352 5224.016 4314.104 5224.016 4308.056 5276 4301.144 5276 4295.096 5224.016 4299.848 5224.016 4304.528 5271.248 4304.672 5271.248zM4328.36 5237.624L4328.36 5230.928C4328.36 5228.696 4327.568 5227.616 4325.696 5227.616 4323.824 5227.616 4323.032 5228.696 4323.032 5230.928L4323.032 5269.088C4323.032 5271.32 4323.824 5272.4 4325.696 5272.4 4327.568 5272.4 4328.36 5271.32 4328.36 5269.088L4328.36 5261.816 4333.112 5261.816 4333.112 5269.232C4333.112 5273.624 4330.664 5276.432 4325.696 5276.432 4320.728 5276.432 4318.28 5273.624 4318.28 5269.232L4318.28 5230.784C4318.28 5226.392 4320.728 5223.584 4325.696 5223.584 4330.664 5223.584 4333.112 5226.392 4333.112 5230.784L4333.112 5237.624 4328.36 5237.624zM4338.296 5276L4338.296 5224.016 4345.856 5224.016C4351.976 5224.016 4353.776 5226.032 4353.776 5231.936L4353.776 5244.68C4353.776 5250.584 4351.976 5252.6 4345.856 5252.6L4343.048 5252.6 4343.048 5276 4338.296 5276zM4343.048 5248.568L4345.352 5248.568C4347.512 5248.568 4349.024 5247.992 4349.024 5245.328L4349.024 5231.288C4349.024 5228.624 4347.512 5228.048 4345.352 5228.048L4343.048 5228.048 4343.048 5248.568zM4363.064 5246.984L4366.232 5246.984C4368.464 5246.984 4369.76 5246.336 4369.76 5243.24L4369.76 5231.576C4369.76 5228.552 4368.176 5228.048 4365.728 5228.048L4363.064 5228.048 4363.064 5246.984zM4369.976 5276L4369.976 5254.184C4369.976 5251.664 4368.464 5251.016 4366.232 5251.016L4363.064 5251.016 4363.064 5276 4358.312 5276 4358.312 5224.016 4367.168 5224.016C4371.704 5224.016 4374.512 5224.808 4374.512 5229.992L4374.512 5243.168C4374.512 5247.2 4373 5248.568 4369.328 5248.784L4369.328 5248.928C4372.712 5249.144 4374.728 5250.152 4374.728 5253.752L4374.728 5276 4369.976 5276zM4382.288 5267.648L4382.288 5232.368C4382.288 5227.256 4384.232 5223.584 4390.64 5223.584 4397.048 5223.584 4398.992 5227.256 4398.992 5232.368L4398.992 5267.648C4398.992 5272.76 4397.048 5276.432 4390.64 5276.432 4384.232 5276.432 4382.288 5272.76 4382.288 5267.648zM4387.04 5232.512L4387.04 5267.504C4387.04 5270.384 4387.616 5272.4 4390.64 5272.4 4393.664 5272.4 4394.24 5270.384 4394.24 5267.504L4394.24 5232.512C4394.24 5229.632 4393.664 5227.616 4390.64 5227.616 4387.616 5227.616 4387.04 5229.632 4387.04 5232.512zM4318.964 3277L4318.964 3225.016 4327.1 3225.016C4333.58 3225.016 4335.164 3228.328 4335.164 3233.44L4335.164 3268.576C4335.164 3273.688 4333.58 3277 4327.1 3277L4318.964 3277zM4323.716 3272.968L4326.236 3272.968C4329.404 3272.968 4330.412 3271.96 4330.412 3268.936L4330.412 3233.08C4330.412 3230.056 4329.404 3229.048 4326.236 3229.048L4323.716 3229.048 4323.716 3272.968zM4341.932 3238.408L4341.932 3232.36C4341.932 3227.176 4344.236 3224.584 4349.492 3224.584 4354.244 3224.584 4356.62 3227.536 4356.62 3232.288L4356.62 3237.328C4356.62 3239.272 4356.188 3242.08 4355.468 3244.168L4345.46 3272.968 4356.692 3272.968 4356.692 3277 4341.284 3277 4341.284 3272.176 4351.004 3243.664C4351.868 3241.216 4352.156 3239.056 4352.156 3236.536L4352.156 3232.432C4352.156 3229.552 4351.22 3228.184 4349.276 3228.184 4347.332 3228.184 4346.396 3229.552 4346.396 3232.432L4346.396 3238.408 4341.932 3238.408zM4251.748 4246.984L4254.916 4246.984C4257.148 4246.984 4258.444 4246.336 4258.444 4243.24L4258.444 4231.576C4258.444 4228.552 4256.86 4228.048 4254.412 4228.048L4251.748 4228.048 4251.748 4246.984zM4246.996 4276L4246.996 4224.016 4255.852 4224.016C4260.388 4224.016 4263.196 4224.808 4263.196 4229.992L4263.196 4243.168C4263.196 4247.2 4261.684 4248.64 4258.012 4248.784L4258.012 4248.928C4261.324 4249.072 4263.412 4250.152 4263.412 4253.752L4263.412 4270.024C4263.412 4275.208 4260.604 4276 4255.852 4276L4246.996 4276zM4251.748 4271.968L4254.628 4271.968C4257.076 4271.968 4258.66 4271.464 4258.66 4268.44L4258.66 4254.184C4258.66 4251.664 4257.148 4251.016 4254.916 4251.016L4251.748 4251.016 4251.748 4271.968zM4270.972 4276L4270.972 4224.016 4283.572 4224.016 4283.572 4228.048 4275.724 4228.048 4275.724 4246.984 4283.212 4246.984 4283.212 4251.016 4275.724 4251.016 4275.724 4271.968 4283.572 4271.968 4283.572 4276 4270.972 4276zM4292.932 4276L4292.932 4228.048 4287.604 4228.048 4287.604 4224.016 4303.012 4224.016 4303.012 4228.048 4297.684 4228.048 4297.684 4276 4292.932 4276zM4320.724 4276L4318.78 4261.6 4310.428 4261.6 4308.484 4276 4303.732 4276 4311.364 4224.016 4317.844 4224.016 4325.476 4276 4320.724 4276zM4318.276 4257.568L4314.676 4227.616 4314.532 4227.616 4310.932 4257.568 4318.276 4257.568zM4339.588 4237.624L4339.588 4230.928C4339.588 4228.696 4338.796 4227.616 4336.924 4227.616 4335.052 4227.616 4334.26 4228.696 4334.26 4230.928L4334.26 4269.088C4334.26 4271.32 4335.052 4272.4 4336.924 4272.4 4338.796 4272.4 4339.588 4271.32 4339.588 4269.088L4339.588 4261.816 4344.34 4261.816 4344.34 4269.232C4344.34 4273.624 4341.892 4276.432 4336.924 4276.432 4331.956 4276.432 4329.508 4273.624 4329.508 4269.232L4329.508 4230.784C4329.508 4226.392 4331.956 4223.584 4336.924 4223.584 4341.892 4223.584 4344.34 4226.392 4344.34 4230.784L4344.34 4237.624 4339.588 4237.624zM4363.924 4276L4361.98 4261.6 4353.628 4261.6 4351.684 4276 4346.932 4276 4354.564 4224.016 4361.044 4224.016 4368.676 4276 4363.924 4276zM4361.476 4257.568L4357.876 4227.616 4357.732 4227.616 4354.132 4257.568 4361.476 4257.568zM4385.812 4270.528L4391.14 4224.016 4398.484 4224.016 4398.484 4276 4394.308 4276 4394.308 4228.048 4394.164 4228.048 4388.692 4276 4382.788 4276 4377.316 4228.048 4377.172 4228.048 4377.172 4276 4372.996 4276 4372.996 4224.016 4380.34 4224.016 4385.668 4270.528 4385.812 4270.528zM4424.476 4237.48L4424.476 4231.144C4424.476 4229.128 4423.972 4227.616 4421.74 4227.616 4419.508 4227.616 4419.004 4229.128 4419.004 4231.144L4419.004 4236.616C4419.004 4238.272 4419.292 4239.928 4420.084 4241.296L4427.644 4254.256C4428.724 4256.056 4429.372 4258.288 4429.372 4260.592L4429.372 4268.8C4429.372 4273.696 4426.492 4276.432 4421.74 4276.432 4416.484 4276.432 4413.964 4274.056 4413.964 4268.8L4413.964 4261.672 4418.716 4261.672 4418.716 4268.512C4418.716 4270.96 4419.652 4272.4 4421.74 4272.4 4423.684 4272.4 4424.62 4270.96 4424.62 4268.512L4424.62 4261.24C4424.62 4259.44 4424.26 4258.072 4423.252 4256.272L4416.268 4244.104C4414.972 4241.872 4414.252 4240.144 4414.252 4237.48L4414.252 4231.216C4414.252 4226.104 4416.916 4223.584 4421.74 4223.584 4427.068 4223.584 4429.228 4226.104 4429.228 4230.856L4429.228 4237.48 4424.476 4237.48zM3122.1 6272.248L3126.78 6225.016 3131.532 6225.016 3125.484 6277 3118.572 6277 3112.524 6225.016 3117.276 6225.016 3121.956 6272.248 3122.1 6272.248zM3147.588 6247.984L3147.588 6225.016 3152.34 6225.016 3152.34 6277 3147.588 6277 3147.588 6252.016 3140.46 6252.016 3140.46 6277 3135.708 6277 3135.708 6225.016 3140.46 6225.016 3140.46 6247.984 3147.588 6247.984zM3168.828 6238.48L3168.828 6232.144C3168.828 6230.128 3168.324 6228.616 3166.092 6228.616 3163.86 6228.616 3163.356 6230.128 3163.356 6232.144L3163.356 6237.616C3163.356 6239.272 3163.644 6240.928 3164.436 6242.296L3171.996 6255.256C3173.076 6257.056 3173.724 6259.288 3173.724 6261.592L3173.724 6269.8C3173.724 6274.696 3170.844 6277.432 3166.092 6277.432 3160.836 6277.432 3158.316 6275.056 3158.316 6269.8L3158.316 6262.672 3163.068 6262.672 3163.068 6269.512C3163.068 6271.96 3164.004 6273.4 3166.092 6273.4 3168.036 6273.4 3168.972 6271.96 3168.972 6269.512L3168.972 6262.24C3168.972 6260.44 3168.612 6259.072 3167.604 6257.272L3160.62 6245.104C3159.324 6242.872 3158.604 6241.144 3158.604 6238.48L3158.604 6232.216C3158.604 6227.104 3161.268 6224.584 3166.092 6224.584 3171.42 6224.584 3173.58 6227.104 3173.58 6231.856L3173.58 6238.48 3168.828 6238.48zM3199.716 6238.624L3199.716 6231.928C3199.716 6229.696 3198.924 6228.616 3197.052 6228.616 3195.18 6228.616 3194.388 6229.696 3194.388 6231.928L3194.388 6270.088C3194.388 6272.32 3195.18 6273.4 3197.052 6273.4 3198.924 6273.4 3199.716 6272.32 3199.716 6270.088L3199.716 6262.816 3204.468 6262.816 3204.468 6270.232C3204.468 6274.624 3202.02 6277.432 3197.052 6277.432 3192.084 6277.432 3189.636 6274.624 3189.636 6270.232L3189.636 6231.784C3189.636 6227.392 3192.084 6224.584 3197.052 6224.584 3202.02 6224.584 3204.468 6227.392 3204.468 6231.784L3204.468 6238.624 3199.716 6238.624zM781.076 2272.248L785.756 2225.016 790.508 2225.016 784.46 2277 777.548 2277 771.5 2225.016 776.252 2225.016 780.932 2272.248 781.076 2272.248zM806.564 2247.984L806.564 2225.016 811.316 2225.016 811.316 2277 806.564 2277 806.564 2252.016 799.436 2252.016 799.436 2277 794.684 2277 794.684 2225.016 799.436 2225.016 799.436 2247.984 806.564 2247.984zM827.804 2238.48L827.804 2232.144C827.804 2230.128 827.3 2228.616 825.068 2228.616 822.836 2228.616 822.332 2230.128 822.332 2232.144L822.332 2237.616C822.332 2239.272 822.62 2240.928 823.412 2242.296L830.972 2255.256C832.052 2257.056 832.7 2259.288 832.7 2261.592L832.7 2269.8C832.7 2274.696 829.82 2277.432 825.068 2277.432 819.812 2277.432 817.292 2275.056 817.292 2269.8L817.292 2262.672 822.044 2262.672 822.044 2269.512C822.044 2271.96 822.98 2273.4 825.068 2273.4 827.012 2273.4 827.948 2271.96 827.948 2269.512L827.948 2262.24C827.948 2260.44 827.588 2259.072 826.58 2257.272L819.596 2245.104C818.3 2242.872 817.58 2241.144 817.58 2238.48L817.58 2232.216C817.58 2227.104 820.244 2224.584 825.068 2224.584 830.396 2224.584 832.556 2227.104 832.556 2231.856L832.556 2238.48 827.804 2238.48zM3096.4 470.8L3111.2 341.6 3131.6 341.6 3131.6 486 3120 486 3120 352.8 3119.6 352.8 3104.4 486 3088 486 3072.8 352.8 3072.4 352.8 3072.4 486 3060.8 486 3060.8 341.6 3081.2 341.6 3096 470.8 3096.4 470.8zM3190.8 486L3185.4 446 3162.2 446 3156.8 486 3143.6 486 3164.8 341.6 3182.8 341.6 3204 486 3190.8 486zM3184 434.8L3174 351.6 3173.6 351.6 3163.6 434.8 3184 434.8zM3237.6 426.4L3237.6 415.2 3261.4 415.2 3261.4 482.8C3254.4 485.6 3247.4 487.2 3240.6 487.2 3222.4 487.2 3215.8 478.4 3215.8 461.8L3215.8 363.2C3215.8 348.2 3224.2 340.4 3238.6 340.4 3253 340.4 3261.4 348.2 3261.4 363.2L3261.4 379.4 3248.2 379.4 3248.2 365C3248.2 357 3246.2 351.6 3238.6 351.6 3231 351.6 3229 357 3229 365L3229 461.6C3229 473.4 3234.8 476 3239.4 476 3243 476 3246.4 475.2 3248.2 474L3248.2 426.4 3237.6 426.4zM3317 465.2L3317 341.6 3328.6 341.6 3328.6 486 3309.8 486 3293.2 357.6 3292.8 357.6 3292.8 486 3281.2 486 3281.2 341.6 3300.4 341.6 3316.6 465.2 3317 465.2zM3348.4 486L3348.4 341.6 3383.4 341.6 3383.4 352.8 3361.6 352.8 3361.6 405.4 3382.4 405.4 3382.4 416.6 3361.6 416.6 3361.6 474.8 3383.4 474.8 3383.4 486 3348.4 486zM3409.4 486L3409.4 352.8 3394.6 352.8 3394.6 341.6 3437.4 341.6 3437.4 352.8 3422.6 352.8 3422.6 486 3409.4 486zM3452.2 486L3452.2 341.6 3465.4 341.6 3465.4 486 3452.2 486zM3513.8 379.4L3513.8 360.8C3513.8 354.6 3511.6 351.6 3506.4 351.6 3501.2 351.6 3499 354.6 3499 360.8L3499 466.8C3499 473 3501.2 476 3506.4 476 3511.6 476 3513.8 473 3513.8 466.8L3513.8 446.6 3527 446.6 3527 467.2C3527 479.4 3520.2 487.2 3506.4 487.2 3492.6 487.2 3485.8 479.4 3485.8 467.2L3485.8 360.4C3485.8 348.2 3492.6 340.4 3506.4 340.4 3520.2 340.4 3527 348.2 3527 360.4L3527 379.4 3513.8 379.4zM3603.4 470.8L3618.2 341.6 3638.6 341.6 3638.6 486 3627 486 3627 352.8 3626.6 352.8 3611.4 486 3595 486 3579.8 352.8 3579.4 352.8 3579.4 486 3567.8 486 3567.8 341.6 3588.2 341.6 3603 470.8 3603.4 470.8zM3657.8 486L3657.8 341.6 3692.8 341.6 3692.8 352.8 3671 352.8 3671 405.4 3691.8 405.4 3691.8 416.6 3671 416.6 3671 474.8 3692.8 474.8 3692.8 486 3657.8 486zM3710.2 486L3710.2 341.6 3732.8 341.6C3750.8 341.6 3755.2 350.8 3755.2 365L3755.2 462.6C3755.2 476.8 3750.8 486 3732.8 486L3710.2 486zM3723.4 474.8L3730.4 474.8C3739.2 474.8 3742 472 3742 463.6L3742 364C3742 355.6 3739.2 352.8 3730.4 352.8L3723.4 352.8 3723.4 474.8zM3776.2 486L3776.2 341.6 3789.4 341.6 3789.4 486 3776.2 486zM3849.8 486L3844.4 446 3821.2 446 3815.8 486 3802.6 486 3823.8 341.6 3841.8 341.6 3863 486 3849.8 486zM3843 434.8L3833 351.6 3832.6 351.6 3822.6 434.8 3843 434.8zM3903.8 486L3903.8 341.6 3938.8 341.6 3938.8 352.8 3917 352.8 3917 405.4 3937.8 405.4 3937.8 416.6 3917 416.6 3917 486 3903.8 486zM3955.6 462.8L3955.6 364.8C3955.6 350.6 3961 340.4 3978.8 340.4 3996.6 340.4 4002 350.6 4002 364.8L4002 462.8C4002 477 3996.6 487.2 3978.8 487.2 3961 487.2 3955.6 477 3955.6 462.8zM3968.8 365.2L3968.8 462.4C3968.8 470.4 3970.4 476 3978.8 476 3987.2 476 3988.8 470.4 3988.8 462.4L3988.8 365.2C3988.8 357.2 3987.2 351.6 3978.8 351.6 3970.4 351.6 3968.8 357.2 3968.8 365.2zM4035.6 405.4L4044.4 405.4C4050.6 405.4 4054.2 403.6 4054.2 395L4054.2 362.6C4054.2 354.2 4049.8 352.8 4043 352.8L4035.6 352.8 4035.6 405.4zM4054.8 486L4054.8 425.4C4054.8 418.4 4050.6 416.6 4044.4 416.6L4035.6 416.6 4035.6 486 4022.4 486 4022.4 341.6 4047 341.6C4059.6 341.6 4067.4 343.8 4067.4 358.2L4067.4 394.8C4067.4 406 4063.2 409.8 4053 410.4L4053 410.8C4062.4 411.4 4068 414.2 4068 424.2L4068 486 4054.8 486zM4123.4 470.8L4138.2 341.6 4158.6 341.6 4158.6 486 4147 486 4147 352.8 4146.6 352.8 4131.4 486 4115 486 4099.8 352.8 4099.4 352.8 4099.4 486 4087.8 486 4087.8 341.6 4108.2 341.6 4123 470.8 4123.4 470.8zM4217.8 486L4212.4 446 4189.2 446 4183.8 486 4170.6 486 4191.8 341.6 4209.8 341.6 4231 486 4217.8 486zM4211 434.8L4201 351.6 4200.6 351.6 4190.6 434.8 4211 434.8zM4247.8 486L4247.8 352.8 4233 352.8 4233 341.6 4275.8 341.6 4275.8 352.8 4261 352.8 4261 486 4247.8 486zM4316 379L4316 361.4C4316 355.8 4314.6 351.6 4308.4 351.6 4302.2 351.6 4300.8 355.8 4300.8 361.4L4300.8 376.6C4300.8 381.2 4301.6 385.8 4303.8 389.6L4324.8 425.6C4327.8 430.6 4329.6 436.8 4329.6 443.2L4329.6 466C4329.6 479.6 4321.6 487.2 4308.4 487.2 4293.8 487.2 4286.8 480.6 4286.8 466L4286.8 446.2 4300 446.2 4300 465.2C4300 472 4302.6 476 4308.4 476 4313.8 476 4316.4 472 4316.4 465.2L4316.4 445C4316.4 440 4315.4 436.2 4312.6 431.2L4293.2 397.4C4289.6 391.2 4287.6 386.4 4287.6 379L4287.6 361.6C4287.6 347.4 4295 340.4 4308.4 340.4 4323.2 340.4 4329.2 347.4 4329.2 360.6L4329.2 379 4316 379zM3663.5 613L3663.5 540.8 3670.1 540.8 3670.1 613 3663.5 613zM3697.9 602.6L3697.9 540.8 3703.7 540.8 3703.7 613 3694.3 613 3686 548.8 3685.8 548.8 3685.8 613 3680 613 3680 540.8 3689.6 540.8 3697.7 602.6 3697.9 602.6zM3726.3 559.5L3726.3 550.7C3726.3 547.9 3725.6 545.8 3722.5 545.8 3719.4 545.8 3718.7 547.9 3718.7 550.7L3718.7 558.3C3718.7 560.6 3719.1 562.9 3720.2 564.8L3730.7 582.8C3732.2 585.3 3733.1 588.4 3733.1 591.6L3733.1 603C3733.1 609.8 3729.1 613.6 3722.5 613.6 3715.2 613.6 3711.7 610.3 3711.7 603L3711.7 593.1 3718.3 593.1 3718.3 602.6C3718.3 606 3719.6 608 3722.5 608 3725.2 608 3726.5 606 3726.5 602.6L3726.5 592.5C3726.5 590 3726 588.1 3724.6 585.6L3714.9 568.7C3713.1 565.6 3712.1 563.2 3712.1 559.5L3712.1 550.8C3712.1 543.7 3715.8 540.2 3722.5 540.2 3729.9 540.2 3732.9 543.7 3732.9 550.3L3732.9 559.5 3726.3 559.5zM3741.4 613L3741.4 540.8 3751.9 540.8C3760.4 540.8 3762.9 543.6 3762.9 551.8L3762.9 569.5C3762.9 577.7 3760.4 580.5 3751.9 580.5L3748 580.5 3748 613 3741.4 613zM3748 574.9L3751.2 574.9C3754.2 574.9 3756.3 574.1 3756.3 570.4L3756.3 550.9C3756.3 547.2 3754.2 546.4 3751.2 546.4L3748 546.4 3748 574.9zM3769.2 613L3769.2 540.8 3775.8 540.8 3775.8 613 3769.2 613zM3792.6 572.7L3797 572.7C3800.1 572.7 3801.9 571.8 3801.9 567.5L3801.9 551.3C3801.9 547.1 3799.7 546.4 3796.3 546.4L3792.6 546.4 3792.6 572.7zM3802.2 613L3802.2 582.7C3802.2 579.2 3800.1 578.3 3797 578.3L3792.6 578.3 3792.6 613 3786 613 3786 540.8 3798.3 540.8C3804.6 540.8 3808.5 541.9 3808.5 549.1L3808.5 567.4C3808.5 573 3806.4 574.9 3801.3 575.2L3801.3 575.4C3806 575.7 3808.8 577.1 3808.8 582.1L3808.8 613 3802.2 613zM3819.3 613L3819.3 540.8 3836.8 540.8 3836.8 546.4 3825.9 546.4 3825.9 572.7 3836.3 572.7 3836.3 578.3 3825.9 578.3 3825.9 607.4 3836.8 607.4 3836.8 613 3819.3 613zM3845.5 613L3845.5 540.8 3856.8 540.8C3865.8 540.8 3868 545.4 3868 552.5L3868 601.3C3868 608.4 3865.8 613 3856.8 613L3845.5 613zM3852.1 607.4L3855.6 607.4C3860 607.4 3861.4 606 3861.4 601.8L3861.4 552C3861.4 547.8 3860 546.4 3855.6 546.4L3852.1 546.4 3852.1 607.4zM3898.9 572.7L3903.3 572.7C3906.4 572.7 3908.2 571.8 3908.2 567.5L3908.2 551.3C3908.2 547.1 3906 546.4 3902.6 546.4L3898.9 546.4 3898.9 572.7zM3892.3 613L3892.3 540.8 3904.6 540.8C3910.9 540.8 3914.8 541.9 3914.8 549.1L3914.8 567.4C3914.8 573 3912.7 575 3907.6 575.2L3907.6 575.4C3912.2 575.6 3915.1 577.1 3915.1 582.1L3915.1 604.7C3915.1 611.9 3911.2 613 3904.6 613L3892.3 613zM3898.9 607.4L3902.9 607.4C3906.3 607.4 3908.5 606.7 3908.5 602.5L3908.5 582.7C3908.5 579.2 3906.4 578.3 3903.3 578.3L3898.9 578.3 3898.9 607.4zM3934.5 573.6L3940.8 540.8 3947.4 540.8 3937.7 581.6 3937.7 613 3931.1 613 3931.1 581.6 3921.4 540.8 3928 540.8 3934.3 573.6 3934.5 573.6zM3984.7 613L3982 593 3970.4 593 3967.7 613 3961.1 613 3971.7 540.8 3980.7 540.8 3991.3 613 3984.7 613zM3981.3 587.4L3976.3 545.8 3976.1 545.8 3971.1 587.4 3981.3 587.4zM4010.6 559.5L4010.6 550.7C4010.6 547.9 4009.9 545.8 4006.8 545.8 4003.7 545.8 4003 547.9 4003 550.7L4003 558.3C4003 560.6 4003.4 562.9 4004.5 564.8L4015 582.8C4016.5 585.3 4017.4 588.4 4017.4 591.6L4017.4 603C4017.4 609.8 4013.4 613.6 4006.8 613.6 3999.5 613.6 3996 610.3 3996 603L3996 593.1 4002.6 593.1 4002.6 602.6C4002.6 606 4003.9 608 4006.8 608 4009.5 608 4010.8 606 4010.8 602.6L4010.8 592.5C4010.8 590 4010.3 588.1 4008.9 585.6L3999.2 568.7C3997.4 565.6 3996.4 563.2 3996.4 559.5L3996.4 550.8C3996.4 543.7 4000.1 540.2 4006.8 540.2 4014.2 540.2 4017.2 543.7 4017.2 550.3L4017.2 559.5 4010.6 559.5zM4042.2 572.7L4042.2 540.8 4048.8 540.8 4048.8 613 4042.2 613 4042.2 578.3 4032.3 578.3 4032.3 613 4025.7 613 4025.7 540.8 4032.3 540.8 4032.3 572.7 4042.2 572.7zM4059 613L4059 540.8 4065.6 540.8 4065.6 607.4 4076.5 607.4 4076.5 613 4059 613zM4084.9 613L4084.9 540.8 4102.4 540.8 4102.4 546.4 4091.5 546.4 4091.5 572.7 4101.9 572.7 4101.9 578.3 4091.5 578.3 4091.5 607.4 4102.4 607.4 4102.4 613 4084.9 613zM4119.7 573.6L4126 540.8 4132.6 540.8 4122.9 581.6 4122.9 613 4116.3 613 4116.3 581.6 4106.6 540.8 4113.2 540.8 4119.5 573.6 4119.7 573.6zM4159 572.7L4163.4 572.7C4166.5 572.7 4168.3 571.8 4168.3 567.5L4168.3 551.3C4168.3 547.1 4166.1 546.4 4162.7 546.4L4159 546.4 4159 572.7zM4152.4 613L4152.4 540.8 4164.7 540.8C4171 540.8 4174.9 541.9 4174.9 549.1L4174.9 567.4C4174.9 573 4172.8 575 4167.7 575.2L4167.7 575.4C4172.3 575.6 4175.2 577.1 4175.2 582.1L4175.2 604.7C4175.2 611.9 4171.3 613 4164.7 613L4152.4 613zM4159 607.4L4163 607.4C4166.4 607.4 4168.6 606.7 4168.6 602.5L4168.6 582.7C4168.6 579.2 4166.5 578.3 4163.4 578.3L4159 578.3 4159 607.4zM4185.7 613L4185.7 540.8 4192.3 540.8 4192.3 607.4 4203.2 607.4 4203.2 613 4185.7 613zM4211.6 613L4211.6 540.8 4229.1 540.8 4229.1 546.4 4218.2 546.4 4218.2 572.7 4228.6 572.7 4228.6 578.3 4218.2 578.3 4218.2 607.4 4229.1 607.4 4229.1 613 4211.6 613zM4264.4 605.4L4269.4 540.8 4275.6 540.8 4268.3 613 4259.7 613 4254.7 548.8 4254.5 548.8 4249.5 613 4240.9 613 4233.6 540.8 4239.8 540.8 4245.2 605.4 4245.4 605.4 4250.5 540.8 4258.7 540.8 4264.2 605.4 4264.4 605.4zM4281.9 613L4281.9 540.8 4299.4 540.8 4299.4 546.4 4288.5 546.4 4288.5 572.7 4298.9 572.7 4298.9 578.3 4288.5 578.3 4288.5 607.4 4299.4 607.4 4299.4 613 4281.9 613zM4314.4 572.7L4318.8 572.7C4321.9 572.7 4323.7 571.8 4323.7 567.5L4323.7 551.3C4323.7 547.1 4321.5 546.4 4318.1 546.4L4314.4 546.4 4314.4 572.7zM4324 613L4324 582.7C4324 579.2 4321.9 578.3 4318.8 578.3L4314.4 578.3 4314.4 613 4307.8 613 4307.8 540.8 4320.1 540.8C4326.4 540.8 4330.3 541.9 4330.3 549.1L4330.3 567.4C4330.3 573 4328.2 574.9 4323.1 575.2L4323.1 575.4C4327.8 575.7 4330.6 577.1 4330.6 582.1L4330.6 613 4324 613z"/>
  </g>
</svg>
