<?xml version="1.0" encoding="UTF-8" standalone="no"?>
<!-- Created by Ashley Blewer - This work is licensed under a Creative Commons Attribution 4.0 International License -->

<svg width="544" height="480" viewBox="0 0 143.93334 127" version="1.1" id="svg2490" inkscape:version="1.1.2 (08b2f3d93c, 2022-04-05)" sodipodi:docname="1956-quad-4.svg"
   xmlns:inkscape="http://www.inkscape.org/namespaces/inkscape"
   xmlns:sodipodi="http://sodipodi.sourceforge.net/DTD/sodipodi-0.dtd"
   xmlns="http://www.w3.org/2000/svg"
   xmlns:svg="http://www.w3.org/2000/svg">
   <sodipodi:namedview id="namedview2492" pagecolor="#ffffff" bordercolor="#666666" borderopacity="1.0" inkscape:pageshadow="2" inkscape:pageopacity="0.0" inkscape:pagecheckerboard="0" inkscape:document-units="mm" showgrid="false" units="px" inkscape:zoom="1.2810466" inkscape:cx="241.59933" inkscape:cy="250.96668" inkscape:window-width="1848" inkscape:window-height="1136" inkscape:window-x="72" inkscape:window-y="27" inkscape:window-maximized="1" inkscape:current-layer="layer1" />
   <defs id="defs2487" />
   <g inkscape:label="Layer 1" inkscape:groupmode="layer" id="layer1">
      <g id="g4865" transform="matrix(0.99342099,0,0,0.99163835,-804.21955,-70.155114)" style="stroke-width:0.629255">
         <g id="g2044" transform="scale(1,-1)" style="stroke-width:0.629255">
            <path d="m 852.87562,-174.69854 c -8.91705,11.98454 -6.77899,27.819 -6.55689,41.79189 0.81855,11.82421 1.30534,23.70837 2.8241,35.475579 0.93585,8.06802 6.13088,16.769656 14.96322,17.479838 6.69442,0.159585 13.62157,-0.139992 20.06265,-2.098883 7.76263,-3.861329 9.91357,-13.419692 13.29838,-20.698894 6.16172,-13.85146 7.46952,-29.37634 5.86828,-44.31965 -0.74018,-9.90094 -1.39172,-19.8685 -3.15704,-29.63932 -2.32939,-5.54752 -6.79059,-11.58301 -12.88352,-12.97393 -7.98209,0.57537 -15.23214,4.72113 -22.6269,7.48634 -4.36174,1.83092 -8.45539,4.08352 -11.79228,7.49703 z" style="fill:none;stroke:#000000;stroke-width:1.64574;stroke-linecap:round;stroke-linejoin:round;stroke-miterlimit:10;stroke-dasharray:none;stroke-opacity:1" id="path2046" sodipodi:nodetypes="ccccccccccccccccccc" />
         </g>
         <g id="g2048" transform="scale(1,-1)" style="stroke-width:0.629255">
            <path d="m 886.87734,-189.69472 c 0,0 3.45466,-1.52828 4.27066,-0.57128 4.993,1.004 10.809,1.176 14.493,2.539 2.953,1.559 4.871,3.887 7.578,6.512 1.996,3.32 2.347,7.332 2.926,11.668 0.816,5.258 0.808,10.629 1.972,15.485 0.875,5.886 0.848,11.882 1.231,17.644 0.605,2.16 0.609,3.242 1.289,4.469 -0.043,-0.5 -0.039,-0.145 -0.016,0.32" style="fill:none;stroke:#000000;stroke-width:1.64574;stroke-linecap:round;stroke-linejoin:round;stroke-miterlimit:10;stroke-dasharray:none;stroke-opacity:1" id="path2050" sodipodi:nodetypes="ccccccccc" />
         </g>
         <g id="g2052" transform="scale(1,-1)" style="stroke-width:0.629255">
            <path d="m 916.035,-131.152 c 8.86209,-3.05175 6.53773,9.7051 6.83094,14.82834 0.31814,8.71554 0.59649,17.765661 -2.15841,26.121811 -4.68753,9.47725 -16.70917,14.940895 -26.91514,11.790069 -5.82414,-1.021287 -11.68921,-3.190756 -17.66736,-2.021559" style="fill:none;stroke:#000000;stroke-width:1.64574;stroke-linecap:round;stroke-linejoin:round;stroke-miterlimit:10;stroke-dasharray:none;stroke-opacity:1" id="path2054" sodipodi:nodetypes="cccccccccc" />
         </g>
         <g id="g2056" transform="scale(1,-1)" style="stroke-width:0.629255">
            <path d="m 886.05819,-80.084098 c 4.35624,-0.805001 8.71234,-0.04147 13.04725,0.44216 3.75889,0.508392 7.73035,-0.572774 10.30037,-3.485804 7.04316,-6.907001 8.3244,-17.448008 7.79098,-26.844478 -0.4006,-4.13264 -0.0321,-8.26402 0.0851,-12.391 0.33494,-3.05862 -1.73356,-6.32724 -1.05194,-9.11678" style="fill:none;stroke:#000000;stroke-width:1.64574;stroke-linecap:round;stroke-linejoin:round;stroke-miterlimit:10;stroke-dasharray:none;stroke-opacity:1" id="path2058" sodipodi:nodetypes="ccccccc" />
         </g>
         <g id="g2060" transform="scale(1,-1)" style="stroke-width:0.629255">
            <path d="m 904.73,-85.016 c 0.204,-0.109 -1.957,-2.484 -0.437,-1.027 2.187,1.063 -0.918,-0.602 0.305,-1.391 2.371,-1.621 2.437,-7.207 4.836,-3.429 0.625,0.57 1.492,1.441 0.812,1.453" style="fill:none;stroke:#000000;stroke-width:1.64574;stroke-linecap:round;stroke-linejoin:round;stroke-miterlimit:10;stroke-dasharray:none;stroke-opacity:1" id="path2062" />
         </g>
         <g id="g2064" transform="scale(1,-1)" style="stroke-width:0.629255">
            <path d="m 913.168,-93.484 c 0.141,1.824 0.734,-3.672 0.641,-3.106 0.621,1.5 -2.422,4.66 -0.383,1.477 0.043,-1.813 1.25,-6.528 0.867,-6.379 -0.617,1.672 -4.129,6.637 -3.406,6.058 l 0.011,0.012 -0.007,0.008" style="fill:none;stroke:#000000;stroke-width:1.64574;stroke-linecap:round;stroke-linejoin:round;stroke-miterlimit:10;stroke-dasharray:none;stroke-opacity:1" id="path2066" />
         </g>
         <g id="g2068" transform="scale(1,-1)" style="stroke-width:0.629255">
            <path d="m 886.05819,-80.084098 c 7.60365,-5.396473 14.02972,-12.758735 16.43024,-21.944342 3.68304,-11.75798 5.2499,-24.23268 4.95922,-36.52478 -0.40419,-7.69104 -1.82499,-15.33686 -2.71456,-22.92816 0.0673,-0.39136 0.0324,-0.79165 0.0559,-1.18662" style="fill:none;stroke:#000000;stroke-width:1.64574;stroke-linecap:round;stroke-linejoin:round;stroke-miterlimit:10;stroke-dasharray:none;stroke-opacity:1" id="path2070" sodipodi:nodetypes="cccccc" />
         </g>
         <g id="g2072" transform="scale(1,-1)" style="stroke-width:0.629255">
            <path d="m 903.723,-98.852 c -0.782,-0.398 3.746,0.504 3.609,-0.957 0.633,-0.828 1.328,-1.82 1.16,-1.851" style="fill:none;stroke:#000000;stroke-width:1.64574;stroke-linecap:round;stroke-linejoin:round;stroke-miterlimit:10;stroke-dasharray:none;stroke-opacity:1" id="path2074" />
         </g>
         <g id="g2076" transform="scale(1,-1)" style="stroke-width:0.629255">
            <path d="m 908.195,-103.336 c 2.516,-3.293 2.758,-8.875 4.266,-13" style="fill:none;stroke:#000000;stroke-width:1.64574;stroke-linecap:round;stroke-linejoin:round;stroke-miterlimit:10;stroke-dasharray:none;stroke-opacity:1" id="path2078" />
         </g>
         <g id="g2080" transform="scale(1,-1)" style="stroke-width:0.629255">
            <path d="m 863.762,-124.945 c 0.597,1.582 2.199,5.39 5.586,5.672 6.238,-0.961 8.824,-9.192 7.996,-14.559 -0.649,-3.395 -1.957,-7.211 -4.793,-8.777 -4.293,-0.649 -7.133,3.214 -8.735,6.812 -1.668,5.129 -2.5,9.082 -1.144,14.219 1.18,1.066 4.613,2.997 6.676,2.305" style="fill:none;stroke:#000000;stroke-width:1.64574;stroke-linecap:round;stroke-linejoin:round;stroke-miterlimit:10;stroke-dasharray:none;stroke-opacity:1" id="path2082" sodipodi:nodetypes="ccccccc" />
         </g>
         <g id="g2084" transform="scale(1,-1)" style="stroke-width:0.629255">
            <path d="m 874.012,-125.465 c 0.031,2.403 -6.543,4.442 -7.282,0.153 -2.097,-3.993 -2.218,-10 0.231,-13.528 0.133,-0.094 0.582,-0.211 0.879,-0.203" style="fill:none;stroke:#000000;stroke-width:1.64574;stroke-linecap:round;stroke-linejoin:round;stroke-miterlimit:10;stroke-dasharray:none;stroke-opacity:1" id="path2086" />
         </g>
         <g id="g2088" transform="scale(1,-1)" style="stroke-width:0.629255">
            <path d="m 867.301,-130.762 c -0.258,-0.523 2.5,2.66 2.836,2.985" style="fill:none;stroke:#000000;stroke-width:1.64574;stroke-linecap:round;stroke-linejoin:round;stroke-miterlimit:10;stroke-dasharray:none;stroke-opacity:1" id="path2090" />
         </g>
         <g id="g2092" transform="scale(1,-1)" style="stroke-width:0.629255">
            <path d="m 868.137,-134.953 c 0.804,0.207 2.41,2.765 3.097,3.351" style="fill:none;stroke:#000000;stroke-width:1.64574;stroke-linecap:round;stroke-linejoin:round;stroke-miterlimit:10;stroke-dasharray:none;stroke-opacity:1" id="path2094" />
         </g>
         <g id="g2096" transform="scale(1,-1)" style="stroke-width:0.629255">
            <path d="m 870.734,-137.121 c 0.375,-0.102 1.848,1.426 2.36,1.926" style="fill:none;stroke:#000000;stroke-width:1.64574;stroke-linecap:round;stroke-linejoin:round;stroke-miterlimit:10;stroke-dasharray:none;stroke-opacity:1" id="path2098" />
         </g>
         <g id="g2100" transform="scale(1,-1)" style="stroke-width:0.629255">
            <path d="m 863.844,-114.426 c 2.332,0.192 6.524,0.582 8.797,0.668" style="fill:none;stroke:#000000;stroke-width:1.64574;stroke-linecap:round;stroke-linejoin:round;stroke-miterlimit:10;stroke-dasharray:none;stroke-opacity:1" id="path2102" sodipodi:nodetypes="cc" />
         </g>
         <g id="g2104" transform="scale(1,-1)" style="stroke-width:0.629255">
            <path d="m 872.641,-113.758 c -0.086,4.168 -0.282,9.586 -1.157,14.387 -0.519,3.664 -0.152,8.812 -0.316,11.473" style="fill:none;stroke:#000000;stroke-width:1.64574;stroke-linecap:round;stroke-linejoin:round;stroke-miterlimit:10;stroke-dasharray:none;stroke-opacity:1" id="path2106" />
         </g>
         <g id="g2108" transform="scale(1,-1)" style="stroke-width:0.629255">
            <path d="m 871.168,-87.898 c -1.411,0.317 -5.215,0.182938 -7.227,0.264938" style="fill:none;stroke:#000000;stroke-width:1.64574;stroke-linecap:round;stroke-linejoin:round;stroke-miterlimit:10;stroke-dasharray:none;stroke-opacity:1" id="path2110" sodipodi:nodetypes="cc" />
         </g>
         <g id="g2112" transform="scale(1,-1)" style="stroke-width:0.629255">
            <path d="m 863.941,-87.633062 c -0.602,-5.254 -1.859,-16.667938 -1.652,-23.585938 -0.684,-1.265 1.941,-2.406 1.555,-3.207" style="fill:none;stroke:#000000;stroke-width:1.64574;stroke-linecap:round;stroke-linejoin:round;stroke-miterlimit:10;stroke-dasharray:none;stroke-opacity:1" id="path2114" sodipodi:nodetypes="ccc" />
         </g>
         <g id="g2116" transform="scale(1,-1)" style="stroke-width:0.629255">
            <path d="m 863.043,-107.473 c -0.086,-0.086 0.621,-3.144 1.395,-2.789 1.07,0.688 1.792,2.121 2.621,0.235 -0.301,0.16 -0.387,-0.422 -0.481,-0.289" style="fill:none;stroke:#000000;stroke-width:0.82287;stroke-linecap:round;stroke-linejoin:round;stroke-miterlimit:10;stroke-dasharray:none;stroke-opacity:1" id="path2118" />
         </g>
         <g id="g2120" transform="scale(1,-1)" style="stroke-width:0.629255">
            <path d="m 864.332,-105.371 c -0.734,-0.09 2.543,-1.856 1.766,1.059" style="fill:none;stroke:#000000;stroke-width:0.82287;stroke-linecap:round;stroke-linejoin:round;stroke-miterlimit:10;stroke-dasharray:none;stroke-opacity:1" id="path2122" />
         </g>
         <g id="g2124" transform="scale(1,-1)" style="stroke-width:0.629255">
            <path d="m 864.625,-100.285 c -1.156,-0.832 2.563,-0.992 0.75,-0.067 0.117,-0.281 0.023,0.219 0.07,-0.093" style="fill:none;stroke:#000000;stroke-width:0.82287;stroke-linecap:round;stroke-linejoin:round;stroke-miterlimit:10;stroke-dasharray:none;stroke-opacity:1" id="path2126" />
         </g>
         <g id="g2128" transform="scale(1,-1)" style="stroke-width:0.629255">
            <path d="m 864.25,-96.742 c -1.309,0.5 2.965,-1.356 3.094,-0.985" style="fill:none;stroke:#000000;stroke-width:0.82287;stroke-linecap:round;stroke-linejoin:round;stroke-miterlimit:10;stroke-dasharray:none;stroke-opacity:1" id="path2130" />
         </g>
         <g id="g2132" transform="scale(1,-1)" style="stroke-width:0.629255">
            <path d="m 865.539,-98.02 c -0.371,-0.621 0.371,1.563 1.133,1.434" style="fill:none;stroke:#000000;stroke-width:0.82287;stroke-linecap:round;stroke-linejoin:round;stroke-miterlimit:10;stroke-dasharray:none;stroke-opacity:1" id="path2134" />
         </g>
         <g id="g2136" transform="scale(1,-1)" style="stroke-width:0.629255">
            <path d="m 866.527,-93.141 c -1.058,0.895 1.024,-1.953 1.465,-0.011" style="fill:none;stroke:#000000;stroke-width:0.82287;stroke-linecap:round;stroke-linejoin:round;stroke-miterlimit:10;stroke-dasharray:none;stroke-opacity:1" id="path2138" />
         </g>
         <g id="g2140" transform="scale(1,-1)" style="stroke-width:0.629255">
            <path d="m 864.758,-91.324 c -0.09,0.066 3.277,-0.61 2.742,0.32 0.852,1.445 1.672,1.344 2.098,1.133" style="fill:none;stroke:#000000;stroke-width:0.82287;stroke-linecap:round;stroke-linejoin:round;stroke-miterlimit:10;stroke-dasharray:none;stroke-opacity:1" id="path2142" />
         </g>
         <g id="g2144" transform="scale(1,-1)" style="stroke-width:0.629255">
            <path d="m 890.832,-145.441 c 0.852,5.539 0.91,14.433 1.664,21.632 -0.273,1.262 0.90678,3.65198 0.47678,2.72598" style="fill:none;stroke:#000000;stroke-width:0.82287;stroke-linecap:round;stroke-linejoin:round;stroke-miterlimit:10;stroke-dasharray:none;stroke-opacity:1" id="path2146" sodipodi:nodetypes="ccc" />
         </g>
         <g id="g2148" transform="scale(1,-1)" style="stroke-width:0.629255">
            <path d="m 892.97278,-121.08302 c 0,0 0,0 2.20322,0.56302 0.332,-1.117 0.746,-10.242 0.746,-10.242 0,0 0.47063,-14.87332 -0.422,-15.906 -1.883,0.934 -4.352,1.453 -4.668,1.227" style="fill:none;stroke:#000000;stroke-width:0.82287;stroke-linecap:round;stroke-linejoin:round;stroke-miterlimit:10;stroke-dasharray:none;stroke-opacity:1" id="path2150" sodipodi:nodetypes="ccccc" />
         </g>
         <g id="g2152" transform="scale(1,-1)" style="stroke-width:0.629255">
            <path d="m 863.918,-162.859 c 0.664,3.152 2.301,8.324 2.008,12.781" style="fill:none;stroke:#000000;stroke-width:0.82287;stroke-linecap:round;stroke-linejoin:round;stroke-miterlimit:10;stroke-dasharray:none;stroke-opacity:1" id="path2154" />
         </g>
         <g id="g2156" transform="scale(1,-1)" style="stroke-width:0.629255">
            <path d="m 858.195,-163.398 c -0.50241,3.48072 -0.0205,7.02043 -0.21385,10.52762 -0.0909,8.30075 -0.89866,16.5728 -1.08317,24.87038" style="fill:none;stroke:#000000;stroke-width:0.82287;stroke-linecap:round;stroke-linejoin:round;stroke-miterlimit:10;stroke-dasharray:none;stroke-opacity:1" id="path2158" sodipodi:nodetypes="ccc" />
         </g>
         <g id="g2160" transform="scale(1,-1)" style="stroke-width:0.629255">
            <path d="m 852.301,-151.234 c -0.67532,0.18619 0.31854,1.41465 0.35742,1.97344 1.4206,3.47732 0.79982,7.46129 1.72858,10.70156" style="fill:none;stroke:#000000;stroke-width:0.82287;stroke-linecap:round;stroke-linejoin:round;stroke-miterlimit:10;stroke-dasharray:none;stroke-opacity:1" id="path2162" sodipodi:nodetypes="ccc" />
         </g>
         <g id="g2164" transform="scale(1,-1)" style="stroke-width:0.629255">
            <path d="m 876.996,-111.109 1.434,20.007" style="fill:none;stroke:#000000;stroke-width:0.82287;stroke-linecap:round;stroke-linejoin:round;stroke-miterlimit:10;stroke-dasharray:none;stroke-opacity:1" id="path2166" sodipodi:nodetypes="cc" />
         </g>
         <g id="g2168" transform="scale(1,-1)" style="stroke-width:0.629255">
            <path d="m 880.902,-115.059 2.875,21.055" style="fill:none;stroke:#000000;stroke-width:0.82287;stroke-linecap:round;stroke-linejoin:round;stroke-miterlimit:10;stroke-dasharray:none;stroke-opacity:1" id="path2170" sodipodi:nodetypes="cc" />
         </g>
         <g id="g2172" transform="scale(1,-1)" style="stroke-width:0.629255">
            <path d="m 885.559,-111.672 c -0.266,-2.867 0.718,4.699 0.98,6.805 1.121,3.773 0.555,-1.66 0.758,-3.899" style="fill:none;stroke:#000000;stroke-width:0.82287;stroke-linecap:round;stroke-linejoin:round;stroke-miterlimit:10;stroke-dasharray:none;stroke-opacity:1" id="path2174" />
         </g>
         <g id="g2176" transform="scale(1,-1)" style="stroke-width:0.629255">
            <path d="m 888.789,-111.641 c -0.098,-1.953 0.348,4.965 1.637,6.36 0.527,1.144 0.066,-4.731 0.722,-5.629" style="fill:none;stroke:#000000;stroke-width:0.82287;stroke-linecap:round;stroke-linejoin:round;stroke-miterlimit:10;stroke-dasharray:none;stroke-opacity:1" id="path2178" />
         </g>
         <g id="g2180" transform="scale(1,-1)" style="stroke-width:0.629255">
            <path d="m 894.121,-112.008 c -1.394,1.016 1.016,3.301 0.645,5.059" style="fill:none;stroke:#000000;stroke-width:0.82287;stroke-linecap:round;stroke-linejoin:round;stroke-miterlimit:10;stroke-dasharray:none;stroke-opacity:1" id="path2182" />
         </g>
      </g>
   </g>
</svg>
