<?xml version="1.0" encoding="UTF-8" standalone="no"?>
<!-- Created by Ashley Blewer - This work is licensed under a Creative Commons Attribution 4.0 International License -->

<svg width="544" height="480" viewBox="0 0 143.93334 127" version="1.1" id="svg2490" inkscape:version="1.1.2 (08b2f3d93c, 2022-04-05)" sodipodi:docname="1956-quad-5.svg"
   xmlns:inkscape="http://www.inkscape.org/namespaces/inkscape"
   xmlns:sodipodi="http://sodipodi.sourceforge.net/DTD/sodipodi-0.dtd"
   xmlns="http://www.w3.org/2000/svg"
   xmlns:svg="http://www.w3.org/2000/svg">
   <sodipodi:namedview id="namedview2492" pagecolor="#ffffff" bordercolor="#666666" borderopacity="1.0" inkscape:pageshadow="2" inkscape:pageopacity="0.0" inkscape:pagecheckerboard="0" inkscape:document-units="mm" showgrid="false" units="px" inkscape:zoom="1.2810466" inkscape:cx="241.59933" inkscape:cy="250.96668" inkscape:window-width="1848" inkscape:window-height="1136" inkscape:window-x="72" inkscape:window-y="27" inkscape:window-maximized="1" inkscape:current-layer="layer1" />
   <defs id="defs2487" />
   <g inkscape:label="Layer 1" inkscape:groupmode="layer" id="layer1">
      <g id="g4913" transform="matrix(1.0916571,0,0,1.0896982,-902.00161,-240.58684)" style="stroke-width:0.629255">
         <g id="g1952" transform="scale(1,-1)" style="stroke-width:0.629255">
            <path d="m 846.41656,-318.30489 c -1.742,0.453 -1.37356,7.10589 -0.83456,10.77789 1.031,6.039 0.773,12.414 0.883,18.304 -0.512,8.543 -0.383,16.196 -1.543,24.207 -0.199,4.621 -0.473,8.582 -0.547,13.399 -0.207,3.312 -0.449,7.027 -0.219,9.922 -0.269,3.5 0.121,7.117 1.164,9.691 0.934,3.066 6.75,4.481 11.512,5.59 5.84,1.422 10.43,-1.305 15.973,-0.598 9.363,1.27 18.812,1.61 27.843,1.141 7.137,-0.699 14.942,-1.113 21.676,-1.352 1.864,0.055 3.668,-0.519 3.852,-0.394 0.996,-0.086 4.195,0.305 3.566,0.226 0.137,-0.086 -0.168,0.348 0.91,-1.57 0.336,-1.84 0.731,-4.684 0.996,-6.863 -1.16414,-28.37825 -1.87477,-57.6485 -5.328,-84.828 -0.242,-3.215 -0.277,-6.36 -0.875,-8.352 -0.621,-2.797 -3.304,-4.488 -7.422,-3.656 -10.64,-0.125 -19.597,4.34 -30.531,5.277 -7.726,1.348 -14.875,2.485 -22.262,4.426 -4.418,2.684 -9.714,2.465 -14.511,2.855 -1.176,0.653 -4.657,1.606 -4.633,1.93" style="fill:none;stroke:#000000;stroke-width:1.64574;stroke-linecap:round;stroke-linejoin:round;stroke-miterlimit:10;stroke-dasharray:none;stroke-opacity:1" id="path1954" sodipodi:nodetypes="cccccccccccccccccccccc" />
         </g>
         <g id="g1956" transform="scale(1,-1)" style="stroke-width:0.629255">
            <path d="m 923.23584,-227.04126 c 4.98351,-1.21654 12.95989,2.2015 15.58927,-3.57733 0.70389,-5.56767 0.27578,-11.25105 0.70412,-16.87205 -0.31417,-0.44018 -2.51645,-42.82579 -3.69579,-65.82465 0.58286,-6.43535 -3.5863,-12.0147 -8.90673,-15.14244 -1.48691,-1.12115 -2.99332,-2.21611 -4.48171,-3.33527" style="fill:none;stroke:#000000;stroke-width:1.64574;stroke-linecap:round;stroke-linejoin:round;stroke-miterlimit:10;stroke-dasharray:none;stroke-opacity:1" id="path1958" sodipodi:nodetypes="cccccc" />
         </g>
         <g id="g1960" transform="scale(1,-1)" style="stroke-width:0.629255">
            <path d="m 883.383,-285.012 c -4.821,-1.004 -10.516,4.688 -9.594,9.68 -0.301,5.082 2.723,9.969 8.184,10.644 6.972,0.743 9.554,-8.007 7.984,-12.777 -1.484,-3.496 -3.148,-6.449 -6.754,-7.617 -4.719,-0.965 -9.781,2.52 -10.133,8.43 -0.14,0.683 0.598,1.523 0.614,2.304" style="fill:none;stroke:#000000;stroke-width:1.64574;stroke-linecap:round;stroke-linejoin:round;stroke-miterlimit:10;stroke-dasharray:none;stroke-opacity:1" id="path1962" />
         </g>
         <g id="g1964" transform="scale(1,-1)" style="stroke-width:0.629255">
            <path d="m 852.41,-294.836 c 2.063,-0.008 7.242,-0.859 10.41,-1.332 14.809,-2.383 30.614,-3.41 44.489,-6.676 2.554,-0.422 5.734,-0.773 7.043,-1.242 l -0.215,-0.051 -0.164,-0.051" style="fill:none;stroke:#000000;stroke-width:1.64574;stroke-linecap:round;stroke-linejoin:round;stroke-miterlimit:10;stroke-dasharray:none;stroke-opacity:1" id="path1966" />
         </g>
         <g id="g1968" transform="scale(1,-1)" style="stroke-width:0.629255">
            <path d="m 915.676,-305.84 c 0.758,-1.598 0.644,-5.609 0.523,-8.765 -1.011,-1.489 0.953,-5.758 -0.64,-5.649" style="fill:none;stroke:#000000;stroke-width:1.64574;stroke-linecap:round;stroke-linejoin:round;stroke-miterlimit:10;stroke-dasharray:none;stroke-opacity:1" id="path1970" />
         </g>
         <g id="g1972" transform="scale(1,-1)" style="stroke-width:0.629255">
            <path d="m 850.586,-297.645 c 0.469,0.114 0.863,-4.296 0.402,-6.011 -0.101,-1.391 0.141,-2.102 0.324,-2.403" style="fill:none;stroke:#000000;stroke-width:1.64574;stroke-linecap:round;stroke-linejoin:round;stroke-miterlimit:10;stroke-dasharray:none;stroke-opacity:1" id="path1974" />
         </g>
         <g id="g1976" transform="scale(1,-1)" style="stroke-width:0.629255">
            <path d="m 852.945,-309.18 c 12.434,-3.754 25.926,-4.386 38.254,-6.543 7.535,-0.715 15.5,-3.351 22.024,-4.023 0.711,0.277 2.57,-0.254 2.3,-0.234" style="fill:none;stroke:#000000;stroke-width:1.64574;stroke-linecap:round;stroke-linejoin:round;stroke-miterlimit:10;stroke-dasharray:none;stroke-opacity:1" id="path1978" />
         </g>
         <g id="g1980" transform="scale(1,-1)" style="stroke-width:0.629255">
            <path d="m 848.031,-262.078 c 6.422,-0.758 24.711,-1.293 32.91,-3.012" style="fill:none;stroke:#000000;stroke-width:1.64574;stroke-linecap:round;stroke-linejoin:round;stroke-miterlimit:10;stroke-dasharray:none;stroke-opacity:1" id="path1982" />
         </g>
         <g id="g1984" transform="scale(1,-1)" style="stroke-width:0.629255">
            <path d="m 888.641,-265.949 c 10.179,0.64 21.265,0.285 30.898,-0.446" style="fill:none;stroke:#000000;stroke-width:1.64574;stroke-linecap:round;stroke-linejoin:round;stroke-miterlimit:10;stroke-dasharray:none;stroke-opacity:1" id="path1986" />
         </g>
         <g id="g1988" transform="scale(1,-1)" style="stroke-width:0.629255">
            <path d="m 925.691,-263.387 c -0.558,2.414 0.247,8.532 -0.515,12.41 -0.77,6.11 -0.707,12.391 -0.742,18.227 -0.356,1.715 -0.344,0.535 -0.071,1.277" style="fill:none;stroke:#000000;stroke-width:1.64574;stroke-linecap:round;stroke-linejoin:round;stroke-miterlimit:10;stroke-dasharray:none;stroke-opacity:1" id="path1990" />
         </g>
         <g id="g1992" transform="scale(1,-1)" style="stroke-width:0.629255">
            <path d="m 856.613,-307 c -0.371,0.441 2.16,4.992 3.907,5.867 0.046,1.344 0.363,-0.914 0.953,-2.394 1.015,-1.59 1.461,-3.977 1.597,-4.407" style="fill:none;stroke:#000000;stroke-width:1.64574;stroke-linecap:round;stroke-linejoin:round;stroke-miterlimit:10;stroke-dasharray:none;stroke-opacity:1" id="path1994" />
         </g>
         <g id="g1996" transform="scale(1,-1)" style="stroke-width:0.629255">
            <path d="m 858.551,-304.555 c -0.239,-0.949 2.875,-0.156 3.39,-0.472" style="fill:none;stroke:#000000;stroke-width:1.64574;stroke-linecap:round;stroke-linejoin:round;stroke-miterlimit:10;stroke-dasharray:none;stroke-opacity:1" id="path1998" />
         </g>
         <g id="g2000" transform="scale(1,-1)" style="stroke-width:0.629255">
            <path d="m 867.32,-308.141 c 0.368,-0.578 0.348,6.629 1.145,6.102 1.066,-0.711 3.543,-5.621 3.375,-4.371 1.07,1.207 3.574,5.746 4.582,2.75 -0.106,-1.785 0.66,-4.969 0.254,-5.953" style="fill:none;stroke:#000000;stroke-width:1.64574;stroke-linecap:round;stroke-linejoin:round;stroke-miterlimit:10;stroke-dasharray:none;stroke-opacity:1" id="path2002" />
         </g>
         <g id="g2004" transform="scale(1,-1)" style="stroke-width:0.629255">
            <path d="m 880.961,-304.309 c 0.453,-0.836 0.965,-5.796 0.582,-5.867" style="fill:none;stroke:#000000;stroke-width:1.64574;stroke-linecap:round;stroke-linejoin:round;stroke-miterlimit:10;stroke-dasharray:none;stroke-opacity:1" id="path2006" />
         </g>
         <g id="g2008" transform="scale(1,-1)" style="stroke-width:0.629255">
            <path d="m 879.621,-305.617 c 1.039,0.902 4.738,3.039 5.789,0.465 0.574,-2.024 -2.566,-2.969 -3.566,-2.168" style="fill:none;stroke:#000000;stroke-width:1.64574;stroke-linecap:round;stroke-linejoin:round;stroke-miterlimit:10;stroke-dasharray:none;stroke-opacity:1" id="path2010" />
         </g>
         <g id="g2012" transform="scale(1,-1)" style="stroke-width:0.629255">
            <path d="m 889.84,-307.113 c 0.098,-1.965 -1.582,-8.625 4.551,-6.598 -0.293,-0.078 -0.364,-0.059 -0.434,0.149" style="fill:none;stroke:#000000;stroke-width:1.64574;stroke-linecap:round;stroke-linejoin:round;stroke-miterlimit:10;stroke-dasharray:none;stroke-opacity:1" id="path2014" />
         </g>
         <g id="g2016" transform="scale(1,-1)" style="stroke-width:0.629255">
            <path d="m 890.68,-309.914 c -1.328,-0.328 3.508,0.152 2.824,0.035" style="fill:none;stroke:#000000;stroke-width:1.64574;stroke-linecap:round;stroke-linejoin:round;stroke-miterlimit:10;stroke-dasharray:none;stroke-opacity:1" id="path2018" />
         </g>
         <g id="g2020" transform="scale(1,-1)" style="stroke-width:0.629255">
            <path d="m 890.047,-306.965 c -0.192,1.133 3.629,0.07 4.566,0.008" style="fill:none;stroke:#000000;stroke-width:1.64574;stroke-linecap:round;stroke-linejoin:round;stroke-miterlimit:10;stroke-dasharray:none;stroke-opacity:1" id="path2022" />
         </g>
         <g id="g2024" transform="scale(1,-1)" style="stroke-width:0.629255">
            <path d="m 899.555,-307.547 c 2.367,-0.594 7.98,-7.34 8.144,-8.004 l -0.023,0.008 -0.11,-0.008" style="fill:none;stroke:#000000;stroke-width:1.64574;stroke-linecap:round;stroke-linejoin:round;stroke-miterlimit:10;stroke-dasharray:none;stroke-opacity:1" id="path2026" />
         </g>
         <g id="g2028" transform="scale(1,-1)" style="stroke-width:0.629255">
            <path d="m 898.59,-314.176 c -1.61,-1.047 4.105,2.188 4.039,3.149 0.883,1.863 5.117,3.215 5.715,3.433 -0.231,-0.109 -0.508,-0.109 -0.496,-0.16" style="fill:none;stroke:#000000;stroke-width:1.64574;stroke-linecap:round;stroke-linejoin:round;stroke-miterlimit:10;stroke-dasharray:none;stroke-opacity:1" id="path2030" />
         </g>
         <g id="g2032" transform="scale(1,-1)" style="stroke-width:0.629255">
            <path d="m 848.16,-253.555 c -2.086,0.555 4.141,0.285 6.297,0.844 9.027,0.481 18.371,1.277 27.145,1.344 0.804,-0.41 4.484,-0.141 2.836,-0.071" style="fill:none;stroke:#000000;stroke-width:0.82287;stroke-linecap:round;stroke-linejoin:round;stroke-miterlimit:10;stroke-dasharray:none;stroke-opacity:1" id="path2034" />
         </g>
         <g id="g2036" transform="scale(1,-1)" style="stroke-width:0.629255">
            <path d="m 898.246,-230.449 c -0.85817,-2.68318 -1.59447,-5.43545 -1.70117,-8.26532 -0.54259,-5.44749 -2.59013,-10.73224 -2.25416,-16.26117 0.15283,-0.84691 0.0174,-1.89277 0.62443,-2.55467 0.82909,-0.49009 0.48453,-1.90608 1.11443,-2.258 0.47865,0.14737 0.91341,0.40535 1.36147,0.62416" style="fill:none;stroke:#000000;stroke-width:0.82287;stroke-linecap:round;stroke-linejoin:round;stroke-miterlimit:10;stroke-dasharray:none;stroke-opacity:1" id="path2038" />
         </g>
         <g id="g2040" transform="scale(1,-1)" style="stroke-width:0.629255">
            <path d="m 897.668,-259.566 c 8.27409,0.52707 16.50252,-0.96128 24.773,-0.85597 0.0801,7.24872 -1.51354,16.34961 -1.49451,22.98926 -0.0884,2.29212 0.56604,5.66354 -2.1246,6.72259 -3.91003,1.02844 -8.02895,0.77544 -12.03304,0.55812 -2.83228,-0.17577 -5.66742,-0.39872 -8.50746,-0.33129" style="fill:none;stroke:#000000;stroke-width:0.82287;stroke-linecap:round;stroke-linejoin:round;stroke-miterlimit:10;stroke-dasharray:none;stroke-opacity:1" id="path2042" sodipodi:nodetypes="cccccc" />
         </g>
      </g>
   </g>
</svg>
