<?xml version="1.0" encoding="UTF-8" standalone="no"?>
<!-- Created by Ashley Blewer - This work is licensed under a Creative Commons Attribution 4.0 International License -->

<svg width="544" height="480" viewBox="0 0 143.93334 127" version="1.1" id="svg2490" inkscape:version="1.1.2 (08b2f3d93c, 2022-04-05)" sodipodi:docname="1956-quad-6.svg"
   xmlns:inkscape="http://www.inkscape.org/namespaces/inkscape"
   xmlns:sodipodi="http://sodipodi.sourceforge.net/DTD/sodipodi-0.dtd"
   xmlns="http://www.w3.org/2000/svg"
   xmlns:svg="http://www.w3.org/2000/svg">
   <sodipodi:namedview id="namedview2492" pagecolor="#ffffff" bordercolor="#666666" borderopacity="1.0" inkscape:pageshadow="2" inkscape:pageopacity="0.0" inkscape:pagecheckerboard="0" inkscape:document-units="mm" showgrid="false" units="px" inkscape:zoom="1.2810466" inkscape:cx="241.59933" inkscape:cy="250.96668" inkscape:window-width="1848" inkscape:window-height="1136" inkscape:window-x="72" inkscape:window-y="27" inkscape:window-maximized="1" inkscape:current-layer="layer1" />
   <defs id="defs2487" />
   <g inkscape:label="Layer 1" inkscape:groupmode="layer" id="layer1">
      <g id="g4352" transform="matrix(0.99612874,0,0,0.99434127,-1059.3907,-337.9874)" style="stroke-width:0.629255">
         <g id="g1196" transform="scale(1,-1)" style="stroke-width:0.629255">
            <path d="m 1121.2098,-462.29944 c -27.2407,11.9779 -34.6552,47.42283 -30.8192,74.48492 2.9933,20.54738 18.2994,44.56901 41.5525,43.1287 23.7647,-2.14875 38.5583,-24.95182 45.1754,-45.72651 7.055,-25.89856 0.2182,-60.42967 -27.0827,-71.55455 -13.9145,-6.3306 -30.696,-2.84127 -41.7479,8.35788" style="fill:none;stroke:#000000;stroke-width:1.64574;stroke-linecap:round;stroke-linejoin:round;stroke-miterlimit:10;stroke-dasharray:none;stroke-opacity:1" id="path1198" sodipodi:nodetypes="cccccc" />
         </g>
         <g id="g1604" transform="scale(1,-1)" style="stroke-width:0.629255">
            <path d="m 1152.5409,-460.67089 c 11.4569,4.19376 20.8945,12.75061 28.8537,21.73503 13.9576,19.15574 13.9473,46.15088 2.3736,66.43971 -4.5576,10.11183 -12.3516,18.67458 -22.2504,23.67552 -8.122,5.20867 -20.8889,5.2272 -30.0174,4.10899" style="fill:none;stroke:#000000;stroke-width:1.64574;stroke-linecap:round;stroke-linejoin:round;stroke-miterlimit:10;stroke-dasharray:none;stroke-opacity:1" id="path1606" sodipodi:nodetypes="ccccc" />
         </g>
         <g id="g1608" transform="scale(1,-1)" style="stroke-width:0.629255">
            <path d="m 1099.656,-443.562 c -0.468,0.238 -0.015,-2.36 -0.718,-3.532 -1.168,-4.062 -4.887,-0.429 -8.626,-0.543 -3.121,0.707 -5.66,0.805 -6.996,1.473 0.086,0.246 -1.113,-2.524 -2.812,-2.75 -1.484,-1.059 -1.336,-0.52 0.812,-0.883 6.039,-0.285 12.653,-0.758 17.579,-0.457 2.632,0.918 2.543,5.02 2.667,4.617 1.993,-0.816 -3.054,-6.59 -6.421,-4.957 -3.825,0.184 -9.047,1.918 -11.746,2.485 1.996,-0.477 7.484,-1.075 10.667,-1.309 1.043,0.277 3.25,-0.16 2.833,-0.059" style="fill:none;stroke:#000000;stroke-width:1.64574;stroke-linecap:round;stroke-linejoin:round;stroke-miterlimit:10;stroke-dasharray:none;stroke-opacity:1" id="path1610" />
         </g>
         <g id="g1612" transform="scale(1,-1)" style="stroke-width:0.629255">
            <path d="m 1127.488,-381.73 c -1.426,4.218 -2.972,11.132 -3.332,15.882 0.114,2.618 4.832,2.102 6.91,2.344 2.379,-0.672 8.102,1.223 7.079,-2.496 -1.043,-5.375 -2.25,-11.438 -4.559,-15.441 -1.141,-1.899 -3.313,-1.473 -6.098,-0.289" style="fill:none;stroke:#000000;stroke-width:1.64574;stroke-linecap:round;stroke-linejoin:round;stroke-miterlimit:10;stroke-dasharray:none;stroke-opacity:1" id="path1614" sodipodi:nodetypes="cccccc" />
         </g>
         <g id="g1616" transform="scale(1,-1)" style="stroke-width:0.629255">
            <path d="m 1112.477,-409.77 c -0.09,1.481 1.535,-3.73 2.207,-4.574 1.722,-2.304 -1.0127,-4.97441 -2.907,-6.918 -2.7053,-2.65478 -3.914,-4.586 -5.652,-4.281 -2.73,3.996 -4.437,9.914 -4.992,14.535 0.976,2.324 6.375,2.156 9.512,3.031 1.886,0.172 1.832,-1.793 1.832,-1.793 v 0" style="fill:none;stroke:#000000;stroke-width:1.64574;stroke-linecap:round;stroke-linejoin:round;stroke-miterlimit:10;stroke-dasharray:none;stroke-opacity:1" id="path1618" sodipodi:nodetypes="cccccccc" />
         </g>
         <g id="g1620" transform="scale(1,-1)" style="stroke-width:0.629255">
            <path d="m 1145.277,-419.422 c 0,0 1.243,0.973 3.43,0.172 3.641,-2.168 8.496,-4.121 10.5,-6.746 0.523,-2.344 -1.656,-6.211 -2.723,-9.149 -2.05,-1.972 -4.089,-6.046 -5.332,-3.808 -3.675,3.937 -7.582,10.594 -9.879,14.293 -0.898,0.91 2.875,3.867 4.004,5.238" style="fill:none;stroke:#000000;stroke-width:1.64574;stroke-linecap:round;stroke-linejoin:round;stroke-miterlimit:10;stroke-dasharray:none;stroke-opacity:1" id="path1622" sodipodi:nodetypes="ccccccc" />
         </g>
         <g id="g1624" transform="scale(1,-1)" style="stroke-width:0.629255">
            <path d="m 1132.5928,-389.53717 c 2.309,-0.898 4.8452,-4.06083 5.7552,-7.41583 2.304,-3.871 2.941,-9.387 1.804,-13.945 -0.5,-3.95 -0.82,-7.407 -4.941,-9.547 -3.789,-1.903 -7.996,-1.571 -10.953,1.05 -7.414,3.688 -9.289,14.29 -6.613,22.211 1.808,4.243 3.609,9.231 8.73,8.809 3.539,0.594 7.293,-1.043 9.313,-3.641" style="fill:none;stroke:#000000;stroke-width:1.64574;stroke-linecap:round;stroke-linejoin:round;stroke-miterlimit:10;stroke-dasharray:none;stroke-opacity:1" id="path1626" sodipodi:nodetypes="cccccccc" />
         </g>
         <g id="g1628" transform="scale(1,-1)" style="stroke-width:0.629255">
            <path d="m 1135.688,-392.016 c -2.148,-1.707 -4.637,-11.445 -4.075,-14.531 0.352,-1.012 -2.258,-0.953 0.184,-2.687 1.609,-0.762 1.547,-1.848 3.512,-3.723 1.539,-1.617 1.5635,-1.22504 3.7943,-2.6249" style="fill:none;stroke:#000000;stroke-width:1.64574;stroke-linecap:round;stroke-linejoin:round;stroke-miterlimit:10;stroke-dasharray:none;stroke-opacity:1" id="path1630" sodipodi:nodetypes="ccccc" />
         </g>
         <g id="g1632" transform="scale(1,-1)" style="stroke-width:0.629255">
            <path d="m 1129.508,-408.273 c 1.406,-0.082 -1.656,0.199 -3.403,-0.579 -2.832,-0.375 -6.9044,-0.941 -8.4234,-0.781" style="fill:none;stroke:#000000;stroke-width:1.64574;stroke-linecap:round;stroke-linejoin:round;stroke-miterlimit:10;stroke-dasharray:none;stroke-opacity:1" id="path1634" sodipodi:nodetypes="ccc" />
         </g>
         <g id="g1636" transform="scale(1,-1)" style="stroke-width:0.629255">
            <path d="m 1119.746,-434.453 c 0.672,1.023 7.797,-1.508 7.797,-1.508 2.434,-0.953 6.68,-2.242 8.148,-2.734" style="fill:none;stroke:#000000;stroke-width:0.82287;stroke-linecap:round;stroke-linejoin:round;stroke-miterlimit:10;stroke-dasharray:none;stroke-opacity:1" id="path1638" sodipodi:nodetypes="ccc" />
         </g>
         <g id="g1640" transform="scale(1,-1)" style="stroke-width:0.629255">
            <path d="m 1135.691,-438.695 c 0,0 -0.804,-4.77 -0.453,-4.395 l 0.028,-0.004 0.265,-1.121" style="fill:none;stroke:#000000;stroke-width:0.82287;stroke-linecap:round;stroke-linejoin:round;stroke-miterlimit:10;stroke-dasharray:none;stroke-opacity:1" id="path1642" sodipodi:nodetypes="cccc" />
         </g>
         <g id="g1644" transform="scale(1,-1)" style="stroke-width:0.629255">
            <path d="m 1119.27,-440.555 c 5.16,-0.703 11.332,-2.418 16.113,-3.379" style="fill:none;stroke:#000000;stroke-width:0.82287;stroke-linecap:round;stroke-linejoin:round;stroke-miterlimit:10;stroke-dasharray:none;stroke-opacity:1" id="path1646" />
         </g>
         <g id="g1648" transform="scale(1,-1)" style="stroke-width:0.629255">
            <path d="m 1119.27,-440.555 c 0,0 0.3577,7.52005 0.476,6.102" style="fill:none;stroke:#000000;stroke-width:0.82287;stroke-linecap:round;stroke-linejoin:round;stroke-miterlimit:10;stroke-dasharray:none;stroke-opacity:1" id="path1650" sodipodi:nodetypes="cc" />
         </g>
         <g id="g1652" transform="scale(1,-1)" style="stroke-width:0.629255">
            <path d="m 1119.27,-440.555 -0.6671,-4.86742" style="fill:none;stroke:#000000;stroke-width:0.82287;stroke-linecap:round;stroke-linejoin:round;stroke-miterlimit:10;stroke-dasharray:none;stroke-opacity:1" id="path1654" sodipodi:nodetypes="cc" />
         </g>
         <g id="g1656" transform="scale(1,-1)" style="stroke-width:0.629255">
            <path d="m 1118.6029,-445.42242 c 4.699,-1.918 12.2691,-3.48758 16.3191,-4.44858 -0.25,0.18 0.066,-0.441 0,0" style="fill:none;stroke:#000000;stroke-width:0.82287;stroke-linecap:round;stroke-linejoin:round;stroke-miterlimit:10;stroke-dasharray:none;stroke-opacity:1" id="path1658" sodipodi:nodetypes="ccc" />
         </g>
         <g id="g1660" transform="scale(1,-1)" style="stroke-width:0.629255">
            <path d="m 1134.922,-449.871 c -0.187,0.137 0.609,5.656 0.609,5.656 0.176,0.11 -0.293,0.188 -0.062,0.348" style="fill:none;stroke:#000000;stroke-width:0.82287;stroke-linecap:round;stroke-linejoin:round;stroke-miterlimit:10;stroke-dasharray:none;stroke-opacity:1" id="path1662" sodipodi:nodetypes="ccc" />
         </g>
         <g id="g1664" transform="scale(1,-1)" style="stroke-width:0.629255">
            <path d="m 1104.586,-387.816 c 0.95,-0.808 -3.011,0.855 -2.445,1.359" style="fill:none;stroke:#000000;stroke-width:0.82287;stroke-linecap:round;stroke-linejoin:round;stroke-miterlimit:10;stroke-dasharray:none;stroke-opacity:1" id="path1666" sodipodi:nodetypes="cc" />
         </g>
         <g id="g1668" transform="scale(1,-1)" style="stroke-width:0.629255">
            <path d="m 1102.141,-386.457 c 0.464,3.355 2.789,8.492 5.25,11.5 1.14,-0.09 2.945,2.047 3.484,0.094" style="fill:none;stroke:#000000;stroke-width:0.82287;stroke-linecap:round;stroke-linejoin:round;stroke-miterlimit:10;stroke-dasharray:none;stroke-opacity:1" id="path1670" sodipodi:nodetypes="ccc" />
         </g>
         <g id="g1672" transform="scale(1,-1)" style="stroke-width:0.629255">
            <path d="m 1110.875,-374.863 c 1.7654,-1.85046 -5.759,-12.81749 -6.289,-12.953" style="fill:none;stroke:#000000;stroke-width:0.82287;stroke-linecap:round;stroke-linejoin:round;stroke-miterlimit:10;stroke-dasharray:none;stroke-opacity:1" id="path1674" sodipodi:nodetypes="cc" />
         </g>
         <g id="g1676" transform="scale(1,-1)" style="stroke-width:0.629255">
            <path d="m 1139.258,-393.332 c 1.722,3.586 5.246,7.93 6.133,12.758 0.754,0.906 0.214,3.668 1.429,3.715" style="fill:none;stroke:#000000;stroke-width:0.82287;stroke-linecap:round;stroke-linejoin:round;stroke-miterlimit:10;stroke-dasharray:none;stroke-opacity:1" id="path1678" />
         </g>
         <g id="g1680" transform="scale(1,-1)" style="stroke-width:0.629255">
            <path d="m 1146.82,-376.859 c 5.219,-5.633 13.996,-14.321 15.141,-21.961 1.137,-2.782 2.457,-6.77 2.055,-9.321" style="fill:none;stroke:#000000;stroke-width:0.82287;stroke-linecap:round;stroke-linejoin:round;stroke-miterlimit:10;stroke-dasharray:none;stroke-opacity:1" id="path1682" sodipodi:nodetypes="ccc" />
         </g>
         <g id="g1684" transform="scale(1,-1)" style="stroke-width:0.629255">
            <path d="m 1164.016,-408.141 c -4.589,0.797 -14.989,-1.273 -19.039,-0.175" style="fill:none;stroke:#000000;stroke-width:0.82287;stroke-linecap:round;stroke-linejoin:round;stroke-miterlimit:10;stroke-dasharray:none;stroke-opacity:1" id="path1686" sodipodi:nodetypes="cc" />
         </g>
         <g id="g1688" transform="scale(1,-1)" style="stroke-width:0.629255">
            <path d="m 1144.977,-408.316 c -0.043,4.351 -2.2657,10.39683 -5.719,14.984" style="fill:none;stroke:#000000;stroke-width:0.82287;stroke-linecap:round;stroke-linejoin:round;stroke-miterlimit:10;stroke-dasharray:none;stroke-opacity:1" id="path1690" sodipodi:nodetypes="cc" />
         </g>
         <g id="g1692" transform="scale(1,-1)" style="stroke-width:0.629255">
            <path d="m 1121.406,-387.02 c -0.718,0.211 1.102,-0.062 -0.726,0.52 0.011,0.055 0.246,0.004 0.179,-0.047" style="fill:none;stroke:#000000;stroke-width:0.82287;stroke-linecap:round;stroke-linejoin:round;stroke-miterlimit:10;stroke-dasharray:none;stroke-opacity:1" id="path1694" />
         </g>
         <g id="g1696" transform="scale(1,-1)" style="stroke-width:0.629255">
            <path d="m 1133.852,-386.086 c 0.285,-0.863 2.488,-2.988 0.644,-1.293" style="fill:none;stroke:#000000;stroke-width:0.82287;stroke-linecap:round;stroke-linejoin:round;stroke-miterlimit:10;stroke-dasharray:none;stroke-opacity:1" id="path1698" />
         </g>
         <g id="g1700" transform="scale(1,-1)" style="stroke-width:0.629255">
            <path d="m 1113.816,-400.965 c -0.086,-0.883 0.246,-0.027 -0.402,-0.133 l 0.01,-0.027" style="fill:none;stroke:#000000;stroke-width:0.82287;stroke-linecap:round;stroke-linejoin:round;stroke-miterlimit:10;stroke-dasharray:none;stroke-opacity:1" id="path1702" />
         </g>
         <g id="g1704" transform="scale(1,-1)" style="stroke-width:0.629255">
            <path d="m 1119.984,-421.137 c -0.507,-0.019 -0.339,-0.086 0.043,0.321" style="fill:none;stroke:#000000;stroke-width:0.82287;stroke-linecap:round;stroke-linejoin:round;stroke-miterlimit:10;stroke-dasharray:none;stroke-opacity:1" id="path1706" />
         </g>
         <g id="g1708" transform="scale(1,-1)" style="stroke-width:0.629255">
            <path d="m 1135.02,-424.941 c -0.618,0.211 -0.715,0.371 -0.672,0.433" style="fill:none;stroke:#000000;stroke-width:0.82287;stroke-linecap:round;stroke-linejoin:round;stroke-miterlimit:10;stroke-dasharray:none;stroke-opacity:1" id="path1710" />
         </g>
         <g id="g1712" transform="scale(1,-1)" style="stroke-width:0.629255">
            <path d="m 1143.531,-409.227 c -1.09,0.961 0.957,0.774 -0.211,1.032" style="fill:none;stroke:#000000;stroke-width:0.82287;stroke-linecap:round;stroke-linejoin:round;stroke-miterlimit:10;stroke-dasharray:none;stroke-opacity:1" id="path1714" />
         </g>
      </g>
   </g>
</svg>
