<?xml version="1.0" encoding="UTF-8" standalone="no"?>
<!-- Created by Ashley Blewer - This work is licensed under a Creative Commons Attribution 4.0 International License -->

<svg width="544" height="480" viewBox="0 0 143.93334 127" version="1.1" id="svg2490" inkscape:version="1.1.2 (08b2f3d93c, 2022-04-05)" sodipodi:docname="1956-quad-3.svg"
   xmlns:inkscape="http://www.inkscape.org/namespaces/inkscape"
   xmlns:sodipodi="http://sodipodi.sourceforge.net/DTD/sodipodi-0.dtd"
   xmlns="http://www.w3.org/2000/svg"
   xmlns:svg="http://www.w3.org/2000/svg">
   <sodipodi:namedview id="namedview2492" pagecolor="#ffffff" bordercolor="#666666" borderopacity="1.0" inkscape:pageshadow="2" inkscape:pageopacity="0.0" inkscape:pagecheckerboard="0" inkscape:document-units="mm" showgrid="false" units="px" inkscape:zoom="1.2810466" inkscape:cx="241.59933" inkscape:cy="250.96668" inkscape:window-width="1848" inkscape:window-height="1136" inkscape:window-x="72" inkscape:window-y="27" inkscape:window-maximized="1" inkscape:current-layer="layer1" />
   <defs id="defs2487" />
   <g inkscape:label="Layer 1" inkscape:groupmode="layer" id="layer1">
      <g id="g4446" transform="matrix(0.92663422,0,0,0.92497147,-977.45355,-433.78974)" style="stroke-width:0.629255">
         <g id="g1316" transform="scale(1,-1)" style="stroke-width:0.629255">
            <path d="m 1094.938,-596.883 c -28.43,10.789 -40.469,45.703 -31.418,73.445 4.875,24.305 34.792,41.465 56.656,26.614 25.953,-19.063 37.457,-61.508 15.836,-87.969 -10.637,-12.102 -30.66,-19.332 -45.297,-10.375" style="fill:none;stroke:#000000;stroke-width:1.64574;stroke-linecap:round;stroke-linejoin:round;stroke-miterlimit:10;stroke-dasharray:none;stroke-opacity:1" id="path1318" />
         </g>
         <g id="g1320" transform="scale(1,-1)" style="stroke-width:0.629255">
            <path d="m 1104.3769,-491.44531 c 32.6855,3.69593 54.0251,-27.98469 52.6741,-55.65669 -0.406,-23.589 -21.6783,-50.24548 -46.8033,-51.59748" style="fill:none;stroke:#000000;stroke-width:1.64574;stroke-linecap:round;stroke-linejoin:round;stroke-miterlimit:10;stroke-dasharray:none;stroke-opacity:1" id="path1322" sodipodi:nodetypes="ccc" />
         </g>
         <g id="g1324" transform="scale(1,-1)" style="stroke-width:0.629255">
            <path d="m 1120.953,-492.008 c 13.887,19.387 44.176,14.11 59.481,-0.871 25.566,-24.144 25.859,-72.156 -3.598,-93.258 -12.035,-6.855 -27.0036,-8.05496 -38.4686,0.09" style="fill:none;stroke:#000000;stroke-width:1.64574;stroke-linecap:round;stroke-linejoin:round;stroke-miterlimit:10;stroke-dasharray:none;stroke-opacity:1" id="path1326" sodipodi:nodetypes="cccc" />
         </g>
         <g id="g1328" transform="scale(1,-1)" style="stroke-width:0.629255">
            <path d="m 1155.062,-479.742 c 19.485,-1.024 39.547,-11.965 44.864,-31.844 9.078,-21.676 4.914,-48.566 -12.66,-64.797 -1.809,-1.965 -2.1638,-3.21024 -4.3708,-4.71824" style="fill:none;stroke:#000000;stroke-width:1.64574;stroke-linecap:round;stroke-linejoin:round;stroke-miterlimit:10;stroke-dasharray:none;stroke-opacity:1" id="path1330" sodipodi:nodetypes="cccc" />
         </g>
         <g id="g1332" transform="scale(1,-1)" style="stroke-width:0.629255">
            <path d="m 1106.27,-527.027 c 0.621,-0.417 -1.402,1.011 -2.672,1.703 -1.699,1.88905 -0.966,18.59828 -0.11,19.636 3.2,-0.355 8.074,-1.765 9.817,-3.148 0.133,-3.348 -2.758,-7.461 -3.942,-10.98 -1.238,-2.235 -2.355,-6.102 -3.093,-7.211 -0.372,-0.235 -2.922,0.3 -2.672,1.703" style="fill:none;stroke:#000000;stroke-width:1.64574;stroke-linecap:round;stroke-linejoin:round;stroke-miterlimit:10;stroke-dasharray:none;stroke-opacity:1" id="path1334" sodipodi:nodetypes="ccccccc" />
         </g>
         <g id="g1336" transform="scale(1,-1)" style="stroke-width:0.629255">
            <path d="m 1084.051,-547.898 c 0.129,0.632 -1.754,0.39 -3.422,0.492 -2.957,-0.246 -8.067,-0.11 -8.75,-1.524 0.601,-3.261 1.879,-7.816 3.324,-9.16 3.277,0.645 8.086,3.457 9.238,5.418 1.731,0.836 1.133,3.817 -0.39,4.774" style="fill:none;stroke:#000000;stroke-width:1.64574;stroke-linecap:round;stroke-linejoin:round;stroke-miterlimit:10;stroke-dasharray:none;stroke-opacity:1" id="path1338" sodipodi:nodetypes="cccccc" />
         </g>
         <g id="g1340" transform="scale(1,-1)" style="stroke-width:0.629255">
            <path d="m 1111.32,-562.961 c 0.325,-0.043 3.071,4.023 5.164,1.457 3.911,-2.363 7.852,-8.035 9.371,-10.355 0.141,-1.746 -3.757,-4.848 -5.285,-5.422 -1.742,0.879 -7.699,10.757 -9.25,14.32" style="fill:none;stroke:#000000;stroke-width:1.64574;stroke-linecap:round;stroke-linejoin:round;stroke-miterlimit:10;stroke-dasharray:none;stroke-opacity:1" id="path1342" sodipodi:nodetypes="ccccc" />
         </g>
         <g id="g1344" transform="scale(1,-1)" style="stroke-width:0.629255">
            <path d="m 1099.6748,-531.582 c -1.14,0.316 1.1142,-0.414 1.9702,-0.805 5.043,-0.215 7.617,-5.09 9.714,-8.832 1.903,-6.375 -0.152,-14.23 -5.671,-17.32 -5.86,-3.613 -12.458,1.953 -14.126,7.101 -1.835,4.438 -2.054,10.165 0.153,14.52 2.133,3.387 7.113,6.656 11.871,5.691 2.195,-0.718 4.8548,-5.17003 6.0228,-6.67703" style="fill:none;stroke:#000000;stroke-width:1.64574;stroke-linecap:round;stroke-linejoin:round;stroke-miterlimit:10;stroke-dasharray:none;stroke-opacity:1" id="path1346" sodipodi:nodetypes="cccccccc" />
         </g>
         <g id="g1348" transform="scale(1,-1)" style="stroke-width:0.629255">
            <path d="m 1105.527,-534.766 c -1.461,0.293 -4.261,-3.312 -4.629,-5.5 -0.945,-1.605 0.036,-4.433 -0.425,-3.312 -3.309,-0.27 -0.535,-2.922 0.531,-2.387 -0.481,-2.265 3.641,-7.801 7.348,-8.941 0.761,-0.203 1.23,-0.813 1.5,-0.305" style="fill:none;stroke:#000000;stroke-width:1.64574;stroke-linecap:round;stroke-linejoin:round;stroke-miterlimit:10;stroke-dasharray:none;stroke-opacity:1" id="path1350" />
         </g>
         <g id="g1352" transform="scale(1,-1)" style="stroke-width:0.629255">
            <path d="m 1146.1836,-510.00713 c 0.371,0.461 0.6604,6.46413 0.7774,8.38613 0.305,4.535 0.07,9.344 1.422,13.191 2.137,2.711 4.336,3.907 8.265,2.801 2.231,-1.156 5.118,-1.699 4.422,-5.098 -1.457,-8.273 -3.031,-17.621 -6.925,-24.398 -1.25,-2.18 -4.6024,-1.41549 -4.5084,-1.33349 0.09,0.168 3.2654,-0.16651 3.2074,0.0405" style="fill:none;stroke:#000000;stroke-width:1.64574;stroke-linecap:round;stroke-linejoin:round;stroke-miterlimit:10;stroke-dasharray:none;stroke-opacity:1" id="path1354" sodipodi:nodetypes="cccccccc" />
         </g>
         <g id="g1356" transform="scale(1,-1)" style="stroke-width:0.629255">
            <path d="m 1164.984,-548.566 c -0.343,0.168 -1.738,0.847 0.262,0.004 6.102,-5.676 13.695,-10.086 18.801,-16.5 2.566,-3.504 -3.395,-6.239 -4.961,-9.344 -2.234,-2.375 -4.102,-1.043 -5.652,1.336 -4.118,4.816 -7.563,10.574 -10.977,15.875 -1.777,2.859 -4.312,6.371 -1.402,9.004 1.078,1.773 2.91,0.558 4.386,-0.352" style="fill:none;stroke:#000000;stroke-width:1.64574;stroke-linecap:round;stroke-linejoin:round;stroke-miterlimit:10;stroke-dasharray:none;stroke-opacity:1" id="path1358" />
         </g>
         <g id="g1360" transform="scale(1,-1)" style="stroke-width:0.629255">
            <path d="m 1180.73,-511.867 c 1.708,0.847 -1.132,5.508 -2.621,4.812 -0.75,-2.05 0.985,-4.992 -2.3,-5.187 -1.719,0.172 -1.918,2.359 -1.543,3.551" style="fill:none;stroke:#000000;stroke-width:0.82287;stroke-linecap:round;stroke-linejoin:round;stroke-miterlimit:10;stroke-dasharray:none;stroke-opacity:1" id="path1362" />
         </g>
         <g id="g1364" transform="scale(1,-1)" style="stroke-width:0.629255">
            <path d="m 1181.77,-517.523 c 0.082,2.527 -4.012,4.226 -5.227,1.148 -0.605,-1.023 0.855,-1.949 0.965,-2.59" style="fill:none;stroke:#000000;stroke-width:0.82287;stroke-linecap:round;stroke-linejoin:round;stroke-miterlimit:10;stroke-dasharray:none;stroke-opacity:1" id="path1366" />
         </g>
         <g id="g1368" transform="scale(1,-1)" style="stroke-width:0.629255">
            <path d="m 1182.445,-521.105 c 0.555,1.339 -4.593,-0.551 -2.605,-2.235 1.199,-0.676 3.39,0.754 2.074,1.664" style="fill:none;stroke:#000000;stroke-width:0.82287;stroke-linecap:round;stroke-linejoin:round;stroke-miterlimit:10;stroke-dasharray:none;stroke-opacity:1" id="path1370" />
         </g>
         <g id="g1372" transform="scale(1,-1)" style="stroke-width:0.629255">
            <path d="m 1186.844,-525.18 c -1.364,0.707 -4.782,-1.316 -6.418,-2.297 -0.988,-1.312 1.187,-2.785 1.832,-1.789" style="fill:none;stroke:#000000;stroke-width:0.82287;stroke-linecap:round;stroke-linejoin:round;stroke-miterlimit:10;stroke-dasharray:none;stroke-opacity:1" id="path1374" />
         </g>
         <g id="g1376" transform="scale(1,-1)" style="stroke-width:0.629255">
            <path d="m 1183.707,-524.426 c 0.023,-1.293 1.891,-1.972 1.941,-3.203" style="fill:none;stroke:#000000;stroke-width:0.82287;stroke-linecap:round;stroke-linejoin:round;stroke-miterlimit:10;stroke-dasharray:none;stroke-opacity:1" id="path1378" />
         </g>
         <g id="g1380" transform="scale(1,-1)" style="stroke-width:0.629255">
            <path d="m 1185.789,-532.656 c 0.223,-0.371 0.305,2.773 -1.125,2.609 -2.008,0.25 -4.602,-3.629 -1.937,-4.078" style="fill:none;stroke:#000000;stroke-width:0.82287;stroke-linecap:round;stroke-linejoin:round;stroke-miterlimit:10;stroke-dasharray:none;stroke-opacity:1" id="path1382" />
         </g>
         <g id="g1384" transform="scale(1,-1)" style="stroke-width:0.629255">
            <path d="m 1188.672,-533.812 c -1.152,-0.879 -5.035,-2.891 -5.324,-2.989" style="fill:none;stroke:#000000;stroke-width:0.82287;stroke-linecap:round;stroke-linejoin:round;stroke-miterlimit:10;stroke-dasharray:none;stroke-opacity:1" id="path1386" />
         </g>
         <g id="g1388" transform="scale(1,-1)" style="stroke-width:0.629255">
            <path d="m 1183.602,-537.059 c 0.746,1.301 6.109,0.661 3.16,-1.738 -0.758,-0.754 -1.782,-1.195 -2.2,-1.355" style="fill:none;stroke:#000000;stroke-width:0.82287;stroke-linecap:round;stroke-linejoin:round;stroke-miterlimit:10;stroke-dasharray:none;stroke-opacity:1" id="path1390" />
         </g>
         <g id="g1392" transform="scale(1,-1)" style="stroke-width:0.629255">
            <path d="m 1173.102,-511.398 c 0.21,-1.61 3.039,-5.95 1.613,-6.477 -1.84,-0.945 -5.137,-2.297 -4.844,-2.199 -0.117,0.656 -2.746,6.789 -2.918,7.265 1.859,-1.062 4.617,1.586 6,1.567" style="fill:none;stroke:#000000;stroke-width:0.82287;stroke-linecap:round;stroke-linejoin:round;stroke-miterlimit:10;stroke-dasharray:none;stroke-opacity:1" id="path1394" />
         </g>
         <g id="g1396" transform="scale(1,-1)" style="stroke-width:0.629255">
            <path d="m 1170.727,-511.332 c -0.649,-0.707 3.136,-1.129 0.711,-0.66 l -0.223,-0.051" style="fill:none;stroke:#000000;stroke-width:0.82287;stroke-linecap:round;stroke-linejoin:round;stroke-miterlimit:10;stroke-dasharray:none;stroke-opacity:1" id="path1398" />
         </g>
         <g id="g1400" transform="scale(1,-1)" style="stroke-width:0.629255">
            <path d="m 1170.402,-514.512 c -1.086,0.649 7.137,-2.586 2.614,-0.851 -0.407,0.121 -4.176,1.238 -2.938,0.793" style="fill:none;stroke:#000000;stroke-width:0.82287;stroke-linecap:round;stroke-linejoin:round;stroke-miterlimit:10;stroke-dasharray:none;stroke-opacity:1" id="path1402" />
         </g>
         <g id="g1404" transform="scale(1,-1)" style="stroke-width:0.629255">
            <path d="m 1169.762,-518.094 c -0.067,0.164 2.863,-1.324 -0.106,0.035" style="fill:none;stroke:#000000;stroke-width:0.82287;stroke-linecap:round;stroke-linejoin:round;stroke-miterlimit:10;stroke-dasharray:none;stroke-opacity:1" id="path1406" />
         </g>
         <g id="g1408" transform="scale(1,-1)" style="stroke-width:0.629255">
            <path d="m 1175.594,-524.098 c 0.539,-0.211 2.16,-5.578 2.922,-7.39 1.324,-3.114 1.648,-7.778 1.945,-9.133" style="fill:none;stroke:#000000;stroke-width:0.82287;stroke-linecap:round;stroke-linejoin:round;stroke-miterlimit:10;stroke-dasharray:none;stroke-opacity:1" id="path1410" />
         </g>
         <g id="g1412" transform="scale(1,-1)" style="stroke-width:0.629255">
            <path d="m 1173.109,-527.348 c 1.262,-2.332 2.536,-7.144 2.996,-8.75" style="fill:none;stroke:#000000;stroke-width:0.82287;stroke-linecap:round;stroke-linejoin:round;stroke-miterlimit:10;stroke-dasharray:none;stroke-opacity:1" id="path1414" />
         </g>
         <g id="g1416" transform="scale(1,-1)" style="stroke-width:0.629255">
            <path d="m 1171.031,-526.629 c 0.844,-3.203 3.02,-8.984 4.227,-12.461" style="fill:none;stroke:#000000;stroke-width:0.82287;stroke-linecap:round;stroke-linejoin:round;stroke-miterlimit:10;stroke-dasharray:none;stroke-opacity:1" id="path1418" />
         </g>
         <g id="g1420" transform="scale(1,-1)" style="stroke-width:0.629255">
            <path d="m 1155.645,-565.832 c 3.093,-0.113 0.644,-5 1.468,-5.813 -0.843,0.145 -2.004,0.329 -2.551,0.422" style="fill:none;stroke:#000000;stroke-width:0.82287;stroke-linecap:round;stroke-linejoin:round;stroke-miterlimit:10;stroke-dasharray:none;stroke-opacity:1" id="path1422" />
         </g>
         <g id="g1424" transform="scale(1,-1)" style="stroke-width:0.629255">
            <path d="m 1152.68,-572.707 c -0.039,-0.488 0.258,-3.789 -2.336,-2.395 -0.074,-0.093 -0.489,-0.332 -0.114,-0.253" style="fill:none;stroke:#000000;stroke-width:0.82287;stroke-linecap:round;stroke-linejoin:round;stroke-miterlimit:10;stroke-dasharray:none;stroke-opacity:1" id="path1426" />
         </g>
         <g id="g1428" transform="scale(1,-1)" style="stroke-width:0.629255">
            <path d="m 1073.477,-522.984 c -0.418,0.007 -2.836,-3.903 -1.305,-3.563 2.48,1.77 4.586,-0.84 1.844,-1.605 -0.032,0.101 0,0.226 -0.078,0.316" style="fill:none;stroke:#000000;stroke-width:0.82287;stroke-linecap:round;stroke-linejoin:round;stroke-miterlimit:10;stroke-dasharray:none;stroke-opacity:1" id="path1430" />
         </g>
         <g id="g1432" transform="scale(1,-1)" style="stroke-width:0.629255">
            <path d="m 1076.898,-522.48 c -0.14,2.601 -2.023,-2.864 0.641,-2.012 0.152,0.426 0.516,0.664 0.75,1.035" style="fill:none;stroke:#000000;stroke-width:0.82287;stroke-linecap:round;stroke-linejoin:round;stroke-miterlimit:10;stroke-dasharray:none;stroke-opacity:1" id="path1434" />
         </g>
         <g id="g1436" transform="scale(1,-1)" style="stroke-width:0.629255">
            <path d="m 1079.707,-519.16 c -1.269,2.469 -0.125,-3.797 0.93,-0.574 -0.016,0.515 -0.407,2.183 -1.117,1.511" style="fill:none;stroke:#000000;stroke-width:0.82287;stroke-linecap:round;stroke-linejoin:round;stroke-miterlimit:10;stroke-dasharray:none;stroke-opacity:1" id="path1438" />
         </g>
         <g id="g1440" transform="scale(1,-1)" style="stroke-width:0.629255">
            <path d="m 1079.406,-513.453 c 0.258,-1.52 3.266,-4.168 3.703,-4.922" style="fill:none;stroke:#000000;stroke-width:0.82287;stroke-linecap:round;stroke-linejoin:round;stroke-miterlimit:10;stroke-dasharray:none;stroke-opacity:1" id="path1442" />
         </g>
         <g id="g1444" transform="scale(1,-1)" style="stroke-width:0.629255">
            <path d="m 1079.875,-516.359 c 0.387,-1.25 3.004,2.906 2.5,1.226" style="fill:none;stroke:#000000;stroke-width:0.82287;stroke-linecap:round;stroke-linejoin:round;stroke-miterlimit:10;stroke-dasharray:none;stroke-opacity:1" id="path1446" />
         </g>
         <g id="g1448" transform="scale(1,-1)" style="stroke-width:0.629255">
            <path d="m 1082.879,-512.93 c 2.371,0.5 -0.063,-1 0.719,-2.242 0.816,-0.082 1.84,0.352 2.05,1.063" style="fill:none;stroke:#000000;stroke-width:0.82287;stroke-linecap:round;stroke-linejoin:round;stroke-miterlimit:10;stroke-dasharray:none;stroke-opacity:1" id="path1450" />
         </g>
         <g id="g1452" transform="scale(1,-1)" style="stroke-width:0.629255">
            <path d="m 1083.93,-508.57 c -1.575,0.57 2.679,-4.969 2.859,-4.41 -0.801,3.191 1.609,2.503 1.813,-1.106" style="fill:none;stroke:#000000;stroke-width:0.82287;stroke-linecap:round;stroke-linejoin:round;stroke-miterlimit:10;stroke-dasharray:none;stroke-opacity:1" id="path1454" />
         </g>
         <g id="g1456" transform="scale(1,-1)" style="stroke-width:0.629255">
            <path d="m 1079.086,-527.371 c 0.562,1.113 4.758,-4.621 3.512,-4.059 -1.743,-0.144 -2.551,-4.55 -2.868,-3.144 -1.214,0.961 -4.421,4.199 -3.66,3.394 1,1.301 2.512,2.868 3.559,3.594" style="fill:none;stroke:#000000;stroke-width:0.82287;stroke-linecap:round;stroke-linejoin:round;stroke-miterlimit:10;stroke-dasharray:none;stroke-opacity:1" id="path1458" />
         </g>
         <g id="g1460" transform="scale(1,-1)" style="stroke-width:0.629255">
            <path d="m 1080.137,-527.508 c -0.703,-0.629 -0.293,-5.535 -0.449,-4.84 -0.086,0.559 -0.083,3.641 0.121,3.176" style="fill:none;stroke:#000000;stroke-width:0.82287;stroke-linecap:round;stroke-linejoin:round;stroke-miterlimit:10;stroke-dasharray:none;stroke-opacity:1" id="path1462" />
         </g>
         <g id="g1464" transform="scale(1,-1)" style="stroke-width:0.629255">
            <path d="m 1082.438,-530.773 c -0.415,0.199 0.164,-3.602 0.031,-1.895 l 0.011,0.039" style="fill:none;stroke:#000000;stroke-width:0.82287;stroke-linecap:round;stroke-linejoin:round;stroke-miterlimit:10;stroke-dasharray:none;stroke-opacity:1" id="path1466" />
         </g>
         <g id="g1468" transform="scale(1,-1)" style="stroke-width:0.629255">
            <path d="m 1086,-541.457 c -1.0952,11.05194 11.418,17.297 11.418,17.297" style="fill:none;stroke:#000000;stroke-width:0.82287;stroke-linecap:round;stroke-linejoin:round;stroke-miterlimit:10;stroke-dasharray:none;stroke-opacity:1" id="path1470" sodipodi:nodetypes="cc" />
         </g>
         <g id="g1472" transform="scale(1,-1)" style="stroke-width:0.629255">
            <path d="m 1111.402,-531.957 c 3.0265,-4.16067 6.2939,-20.37019 3.098,-21.715" style="fill:none;stroke:#000000;stroke-width:0.82287;stroke-linecap:round;stroke-linejoin:round;stroke-miterlimit:10;stroke-dasharray:none;stroke-opacity:1" id="path1474" sodipodi:nodetypes="cc" />
         </g>
         <g id="g1476" transform="scale(1,-1)" style="stroke-width:0.629255">
            <path d="m 1088.812,-557.328 c 1.0914,-4.11921 12.7363,-9.15096 15.176,-7.25" style="fill:none;stroke:#000000;stroke-width:0.82287;stroke-linecap:round;stroke-linejoin:round;stroke-miterlimit:10;stroke-dasharray:none;stroke-opacity:1" id="path1478" sodipodi:nodetypes="cc" />
         </g>
         <g id="g1480" transform="scale(1,-1)" style="stroke-width:0.629255">
            <path d="m 1087.3804,-571.70751 c 3.582,-1.082 12.8926,-2.53149 16.4636,-3.71849" style="fill:none;stroke:#000000;stroke-width:0.82287;stroke-linecap:round;stroke-linejoin:round;stroke-miterlimit:10;stroke-dasharray:none;stroke-opacity:1" id="path1482" sodipodi:nodetypes="cc" />
         </g>
         <g id="g1484" transform="scale(1,-1)" style="stroke-width:0.629255">
            <path d="m 1103.844,-575.426 c 0.804,-2.25 0.594,-6.086 -0.688,-8.976 -0.449,-1.934 -0.64,-5.168 -2.636,-4.848 -4.852,1.098 -10.754,2.297 -14.915,4.879 -2.535,0.82 0.5914,9.39749 1.7754,12.66349" style="fill:none;stroke:#000000;stroke-width:0.82287;stroke-linecap:round;stroke-linejoin:round;stroke-miterlimit:10;stroke-dasharray:none;stroke-opacity:1" id="path1486" sodipodi:nodetypes="ccccc" />
         </g>
         <g id="g1488" transform="scale(1,-1)" style="stroke-width:0.629255">
            <path d="m 1122.852,-549.395 c -2.29,8.602 -2.164,17.731 -5.114,26.059 0.055,0.648 -0.011,1.113 0.028,1.449" style="fill:none;stroke:#000000;stroke-width:0.82287;stroke-linecap:round;stroke-linejoin:round;stroke-miterlimit:10;stroke-dasharray:none;stroke-opacity:1" id="path1490" />
         </g>
         <g id="g1492" transform="scale(1,-1)" style="stroke-width:0.629255">
            <path d="m 1117.766,-521.887 c -1.172,0.195 4.441,1.102 4.675,1.34" style="fill:none;stroke:#000000;stroke-width:0.82287;stroke-linecap:round;stroke-linejoin:round;stroke-miterlimit:10;stroke-dasharray:none;stroke-opacity:1" id="path1494" sodipodi:nodetypes="cc" />
         </g>
         <g id="g1496" transform="scale(1,-1)" style="stroke-width:0.629255">
            <path d="m 1122.441,-520.547 c 3.266,-7.292 4.45,-22.449 5.68,-27.871 -1.094,-1 -3.968,-1.809 -5.269,-0.977" style="fill:none;stroke:#000000;stroke-width:0.82287;stroke-linecap:round;stroke-linejoin:round;stroke-miterlimit:10;stroke-dasharray:none;stroke-opacity:1" id="path1498" sodipodi:nodetypes="ccc" />
         </g>
      </g>
   </g>
</svg>
