<?xml version="1.0" encoding="UTF-8" standalone="no"?>
<!-- Created by Ashley Blewer - This work is licensed under a Creative Commons Attribution 4.0 International License -->

<svg width="544" height="480" viewBox="0 0 143.93334 127" version="1.1" id="svg2490" inkscape:version="1.1.2 (08b2f3d93c, 2022-04-05)" sodipodi:docname="1956-quad-7.svg"
   xmlns:inkscape="http://www.inkscape.org/namespaces/inkscape"
   xmlns:sodipodi="http://sodipodi.sourceforge.net/DTD/sodipodi-0.dtd"
   xmlns="http://www.w3.org/2000/svg"
   xmlns:svg="http://www.w3.org/2000/svg">
   <sodipodi:namedview id="namedview2492" pagecolor="#ffffff" bordercolor="#666666" borderopacity="1.0" inkscape:pageshadow="2" inkscape:pageopacity="0.0" inkscape:pagecheckerboard="0" inkscape:document-units="mm" showgrid="false" units="px" inkscape:zoom="1.2810466" inkscape:cx="241.59933" inkscape:cy="250.96668" inkscape:window-width="1848" inkscape:window-height="1136" inkscape:window-x="72" inkscape:window-y="27" inkscape:window-maximized="1" inkscape:current-layer="layer1" />
   <defs id="defs2487" />
   <g inkscape:label="Layer 1" inkscape:groupmode="layer" id="layer1">
      <g id="g4553" transform="matrix(0.94427647,0,0,0.94258205,-986.71233,-575.03722)" style="stroke-width:0.629255">
         <g id="g1500" transform="scale(1,-1)" style="stroke-width:0.629255">
            <path d="m 1116.1147,-612.67074 c 31.9179,2.45219 61.4749,-27.02272 59.3226,-58.95265 2.6569,-25.34469 -19.8165,-46.41043 -43.8874,-48.61909 -35.2709,-5.74708 -68.7885,33.04664 -56.7351,66.94548 5.5396,23.41673 28.0836,45.54334 53.6652,39.871" style="fill:none;stroke:#000000;stroke-width:1.64574;stroke-linecap:round;stroke-linejoin:round;stroke-miterlimit:10;stroke-dasharray:none;stroke-opacity:1" id="path1502" sodipodi:nodetypes="ccccccccc" />
         </g>
         <g id="g4498" style="stroke-width:0.629255">
            <g id="g1504" transform="scale(1,-1)" style="stroke-width:0.629255">
               <path d="m 1152.521,-623.75829 c 4.148,-3.125 9.319,-7.19471 11.104,-12.80071 4.816,-9.195 7.098,-19.937 7.742,-29.988 2.106,-10.387 0.309,-20.758 -4.539,-29.656 -2.9686,-6.11303 -5.43,-7.176 -7.957,-10.27 -2.004,-3.215 -4.5643,-5.38217 -7.7403,-7.31917" style="fill:none;stroke:#000000;stroke-width:1.64574;stroke-linecap:round;stroke-linejoin:round;stroke-miterlimit:10;stroke-dasharray:none;stroke-opacity:1" id="path1506" sodipodi:nodetypes="cccccc" />
            </g>
            <g id="g1508" transform="scale(1,-1)" style="stroke-width:0.629255">
               <path d="m 1156.2301,-626.34226 c 8.707,-6.359 17.3519,-16.19674 17.1139,-27.28274 1.492,-16.059 3.117,-34.289 -8.133,-47.504 -3.125,-3.019 -5.586,-6.941 -9.027,-9.488" style="fill:none;stroke:#000000;stroke-width:1.64574;stroke-linecap:round;stroke-linejoin:round;stroke-miterlimit:10;stroke-dasharray:none;stroke-opacity:1" id="path1510" sodipodi:nodetypes="cccc" />
            </g>
            <g id="g1512" transform="scale(1,-1)" style="stroke-width:0.629255">
               <path d="m 1104.109,-653.125 c -0.16,0.027 -2.703,5.652 -3.316,7.855 -2.082,3.223 -2.539,7.809 1.168,9.34 3.637,-0.109 4.734,-5.941 7.039,-8.57 2.379,-2.789 3.27,-6.109 -0.777,-7.48 -1.813,-1.172 -4.017,-10e-4 -4.114,-1.145" style="fill:none;stroke:#000000;stroke-width:1.64574;stroke-linecap:round;stroke-linejoin:round;stroke-miterlimit:10;stroke-dasharray:none;stroke-opacity:1" id="path1514" sodipodi:nodetypes="cccccc" />
            </g>
            <g id="g1516" transform="scale(1,-1)" style="stroke-width:0.629255">
               <path d="m 1107.008,-685.723 c 1.73,-1.332 6.129,-4.785 7.383,-6.148 -0.559,-3.852 -4.914,-6.547 -6.707,-10.125 -1.262,-2.059 -3.196,-1.141 -3.934,0.348 -1.34,1.746 1.52,6.836 1.859,10.168 0.899,2.273 1.399,5.757 1.399,5.757" style="fill:none;stroke:#000000;stroke-width:1.64574;stroke-linecap:round;stroke-linejoin:round;stroke-miterlimit:10;stroke-dasharray:none;stroke-opacity:1" id="path1518" sodipodi:nodetypes="cccccc" />
            </g>
            <g id="g1520" transform="scale(1,-1)" style="stroke-width:0.629255">
               <path d="m 1140.559,-665.742 c -0.305,-0.844 0.781,-4.004 0.343,-5.934 -0.441,-2.961 1.071,-3.789 4.028,-2.035 2.9828,1.14597 6.7032,2.47659 12.093,4.711 -0.23,1.039 0.739,4.516 -1.023,3.516 -4.875,-0.68 -11.6416,0.28886 -15.441,-0.258" style="fill:none;stroke:#000000;stroke-width:1.64574;stroke-linecap:round;stroke-linejoin:round;stroke-miterlimit:10;stroke-dasharray:none;stroke-opacity:1" id="path1522" sodipodi:nodetypes="cccccc" />
            </g>
            <g id="g1524" transform="scale(1,-1)" style="stroke-width:0.629255">
               <path d="m 1121.008,-656.27577 c 3.73,-1.375 9.945,-1.93923 11.297,-6.63823 1.586,-1.938 0.015,-2.828 0.742,-4.992 -0.453,0.281 2.098,-0.961 1.305,-1.532 0.136,-1.593 -3.293,-0.972 -2.301,-2.703 -0.469,-6.937 -7.524,-11.961 -13.899,-11.539 -2.199,0.118 -5.023,1.575 -4.679,1.364 -0.703,0.246 -1.563,-1.094 -1.672,0.73 0.761,0.438 -0.688,0.652 -1.77,1.809 -2.781,3.211 -3.531,8.695 -3.847,13.386 0.261,4.598 4.941,8.895 9.832,10.063 3.343,0.035 6.0325,0.65194 8.1145,-0.61006" style="fill:none;stroke:#000000;stroke-width:1.64574;stroke-linecap:round;stroke-linejoin:round;stroke-miterlimit:10;stroke-dasharray:none;stroke-opacity:1" id="path1526" sodipodi:nodetypes="cccccccccccc" />
            </g>
            <g id="g1528" transform="scale(1,-1)" style="stroke-width:0.629255">
               <path d="m 1123.6364,-657.49536 c -0.515,0.746 -5.8084,-4.16864 -6.8044,-5.50064 -2.312,-4.828 1.582,-13.125 3.531,-13.758 -1.195,-0.949 -0.941,-3.426 2.176,-3.078 1.953,0 3.852,-1.273 5.262,-0.5" style="fill:none;stroke:#000000;stroke-width:1.64574;stroke-linecap:round;stroke-linejoin:round;stroke-miterlimit:10;stroke-dasharray:none;stroke-opacity:1" id="path1530" sodipodi:nodetypes="ccccc" />
            </g>
            <g id="g1532" transform="scale(1,-1)" style="stroke-width:0.629255">
               <path d="m 1119.074,-678.27 c 0.742,-0.347 -3.941,-2.425 -5.722,-3.082 -1.215,-0.222 -1.395,-0.179 -1.325,-0.109" style="fill:none;stroke:#000000;stroke-width:1.64574;stroke-linecap:round;stroke-linejoin:round;stroke-miterlimit:10;stroke-dasharray:none;stroke-opacity:1" id="path1534" />
            </g>
            <g id="g1536" transform="scale(1,-1)" style="stroke-width:0.629255">
               <path d="m 1130.1822,-720.71431 c 1.371,-0.656 7.4388,-2.49669 9.6028,-3.48069 2.106,-0.528 4.588,-1.43 5.478,-1.809" style="fill:none;stroke:#000000;stroke-width:1.64574;stroke-linecap:round;stroke-linejoin:round;stroke-miterlimit:10;stroke-dasharray:none;stroke-opacity:1" id="path1538" sodipodi:nodetypes="ccc" />
            </g>
            <g id="g1540" transform="scale(1,-1)" style="stroke-width:0.629255">
               <path d="m 1144.6256,-717.37858 c 0.211,-1.089 6.3948,-4.44142 7.5548,-3.07842" style="fill:none;stroke:#000000;stroke-width:1.64574;stroke-linecap:round;stroke-linejoin:round;stroke-miterlimit:10;stroke-dasharray:none;stroke-opacity:1" id="path1542" sodipodi:nodetypes="cc" />
            </g>
            <g id="g1544" transform="scale(1,-1)" style="stroke-width:0.629255">
               <path d="m 1111.988,-736.848 c -0.41,-0.386 3.02,1.883 3.887,2.289 6.664,3.075 14.707,2.528 21.148,5.27 7.36,1.289 12.622,5.629 16.942,10.961 2.769,3.293 7.07,4.629 10.933,5.324 3.09,-2.316 3.766,-7.914 5.797,-11.406 -0.054,-1.738 1.223,-3.176 0.403,-2.895 -0.473,0.078 -5.313,0.535 -4.559,0.446 1.981,0.722 4.852,1.418 1.352,0.828 -6.379,-3.793 -10.93,-7.938 -18.926,-9.805 -9.438,-3.328 -19.77,-3.449 -29.043,-6.496 -3.438,-1.352 -6.461,4.59 -9.574,4.641 -0.18,0.144 1.558,0.687 1.64,0.843" style="fill:none;stroke:#000000;stroke-width:1.64574;stroke-linecap:round;stroke-linejoin:round;stroke-miterlimit:10;stroke-dasharray:none;stroke-opacity:1" id="path1546" sodipodi:nodetypes="ccccccccccccc" />
            </g>
            <g id="g1548" transform="scale(1,-1)" style="stroke-width:0.629255">
               <path d="m 1130.043,-701.203 c 0.816,-1.719 3.559,-7.008 4.797,-7.77 4.371,1.207 10.098,4.723 12.699,6.911 -1.512,1.898 -3.375,8.613 -5.719,8.328 -3.277,-2.418 -7.289,-4.352 -10.722,-6.61" style="fill:none;stroke:#000000;stroke-width:0.82287;stroke-linecap:round;stroke-linejoin:round;stroke-miterlimit:10;stroke-dasharray:none;stroke-opacity:1" id="path1550" sodipodi:nodetypes="ccccc" />
            </g>
            <g id="g1552" transform="scale(1,-1)" style="stroke-width:0.629255">
               <path d="m 1130.277,-654.938 c -0.195,-0.144 -1.367,0.313 -0.965,0.485 0.586,-0.313 1.102,-0.043 0.235,-0.137" style="fill:none;stroke:#000000;stroke-width:0.82287;stroke-linecap:round;stroke-linejoin:round;stroke-miterlimit:10;stroke-dasharray:none;stroke-opacity:1" id="path1554" />
            </g>
            <g id="g1556" transform="scale(1,-1)" style="stroke-width:0.629255">
               <path d="m 1137.016,-674.098 c -1.223,-0.64 0.222,1.672 0.441,0.028 -0.434,-0.317 -1.223,-0.012 -1.586,0.152" style="fill:none;stroke:#000000;stroke-width:0.82287;stroke-linecap:round;stroke-linejoin:round;stroke-miterlimit:10;stroke-dasharray:none;stroke-opacity:1" id="path1558" />
            </g>
            <g id="g1560" transform="scale(1,-1)" style="stroke-width:0.629255">
               <path d="m 1123.691,-687.254 c 1.489,-0.617 -0.714,-0.004 -0.082,0.141 0.641,-0.262 0.883,-0.699 0.032,-0.172" style="fill:none;stroke:#000000;stroke-width:0.82287;stroke-linecap:round;stroke-linejoin:round;stroke-miterlimit:10;stroke-dasharray:none;stroke-opacity:1" id="path1562" />
            </g>
            <g id="g1564" transform="scale(1,-1)" style="stroke-width:0.629255">
               <path d="m 1106.441,-681.707 c 1.172,-0.926 -1.445,0.996 0.825,0.492 0.136,-0.336 -0.137,-0.012 -0.286,0.188" style="fill:none;stroke:#000000;stroke-width:0.82287;stroke-linecap:round;stroke-linejoin:round;stroke-miterlimit:10;stroke-dasharray:none;stroke-opacity:1" id="path1566" />
            </g>
            <g id="g1568" transform="scale(1,-1)" style="stroke-width:0.629255">
               <path d="m 1103.039,-667.578 c -1.445,0.648 1.227,1.781 -0.023,1.183 -0.477,0.137 -1.25,1.418 0.379,0.731" style="fill:none;stroke:#000000;stroke-width:0.82287;stroke-linecap:round;stroke-linejoin:round;stroke-miterlimit:10;stroke-dasharray:none;stroke-opacity:1" id="path1570" />
            </g>
            <g id="g1572" transform="scale(1,-1)" style="stroke-width:0.629255">
               <path d="m 1113.641,-651.473 c 0.312,-1.136 -1.18,1.336 0.347,0.145 -0.172,-0.082 -0.871,0.016 -1.258,0.254" style="fill:none;stroke:#000000;stroke-width:0.82287;stroke-linecap:round;stroke-linejoin:round;stroke-miterlimit:10;stroke-dasharray:none;stroke-opacity:1" id="path1574" />
            </g>
            <g id="g1576" transform="scale(1,-1)" style="stroke-width:0.629255">
               <path d="m 1116.387,-624.09 c 9.914,-4.828 20.793,-10.008 30.703,-14.019" style="fill:none;stroke:#000000;stroke-width:0.82287;stroke-linecap:round;stroke-linejoin:round;stroke-miterlimit:10;stroke-dasharray:none;stroke-opacity:1" id="path1578" />
            </g>
            <g id="g1580" transform="scale(1,-1)" style="stroke-width:0.629255">
               <path d="m 1116.059,-618.648 c 0.519,-0.164 -0.461,-2.364 -0.403,-2.586" style="fill:none;stroke:#000000;stroke-width:0.82287;stroke-linecap:round;stroke-linejoin:round;stroke-miterlimit:10;stroke-dasharray:none;stroke-opacity:1" id="path1582" />
            </g>
            <g id="g1584" transform="scale(1,-1)" style="stroke-width:0.629255">
               <path d="m 1119.238,-618.16 c 6.91,-2.625 13.559,-6.762 20.555,-9.465 2.73,-1.5 6.039,-3.449 8.453,-4.676" style="fill:none;stroke:#000000;stroke-width:0.82287;stroke-linecap:round;stroke-linejoin:round;stroke-miterlimit:10;stroke-dasharray:none;stroke-opacity:1" id="path1586" />
            </g>
            <g id="g1588" transform="scale(1,-1)" style="stroke-width:0.629255">
               <path d="m 1150.047,-634.633 c -1.106,-0.281 -1.024,-1.875 -1.93,-2.394" style="fill:none;stroke:#000000;stroke-width:0.82287;stroke-linecap:round;stroke-linejoin:round;stroke-miterlimit:10;stroke-dasharray:none;stroke-opacity:1" id="path1590" />
            </g>
            <g id="g1592" transform="scale(1,-1)" style="stroke-width:0.629255">
               <path d="m 1121.086,-631.246 c -0.535,-0.492 -1.656,-5.086 -2.293,-7.098 -0.133,-0.883 -0.668,-3.902 -1.078,-3.461" style="fill:none;stroke:#000000;stroke-width:0.82287;stroke-linecap:round;stroke-linejoin:round;stroke-miterlimit:10;stroke-dasharray:none;stroke-opacity:1" id="path1594" />
            </g>
            <g id="g1596" transform="scale(1,-1)" style="stroke-width:0.629255">
               <path d="m 1118.098,-645.699 c 7.218,-2.582 14.203,-7.762 21.156,-10.371" style="fill:none;stroke:#000000;stroke-width:0.82287;stroke-linecap:round;stroke-linejoin:round;stroke-miterlimit:10;stroke-dasharray:none;stroke-opacity:1" id="path1598" />
            </g>
            <g id="g1600" transform="scale(1,-1)" style="stroke-width:0.629255">
               <path d="m 1142.457,-654.969 c 1.785,4.477 3.406,9.645 4.688,14.145 0.179,0.281 0.382,0.582 0.464,0.883" style="fill:none;stroke:#000000;stroke-width:0.82287;stroke-linecap:round;stroke-linejoin:round;stroke-miterlimit:10;stroke-dasharray:none;stroke-opacity:1" id="path1602" />
            </g>
         </g>
      </g>
   </g>
</svg>
