<?xml version="1.0" encoding="UTF-8" standalone="no"?>
<!-- Created by Ashley Blewer - This work is licensed under a Creative Commons Attribution 4.0 International License -->

<svg width="544" height="480" viewBox="0 0 143.93334 127" version="1.1" id="svg2490" inkscape:version="1.1.2 (08b2f3d93c, 2022-04-05)" sodipodi:docname="1956-quad-8.svg"
   xmlns:inkscape="http://www.inkscape.org/namespaces/inkscape"
   xmlns:sodipodi="http://sodipodi.sourceforge.net/DTD/sodipodi-0.dtd"
   xmlns="http://www.w3.org/2000/svg"
   xmlns:svg="http://www.w3.org/2000/svg">
   <sodipodi:namedview id="namedview2492" pagecolor="#ffffff" bordercolor="#666666" borderopacity="1.0" inkscape:pageshadow="2" inkscape:pageopacity="0.0" inkscape:pagecheckerboard="0" inkscape:document-units="mm" showgrid="false" units="px" inkscape:zoom="1.2810466" inkscape:cx="241.59933" inkscape:cy="250.96668" inkscape:window-width="1848" inkscape:window-height="1136" inkscape:window-x="72" inkscape:window-y="27" inkscape:window-maximized="1" inkscape:current-layer="layer1" />
   <defs id="defs2487" />
   <g inkscape:label="Layer 1" inkscape:groupmode="layer" id="layer1">
      <g id="g4959" transform="matrix(0.98798466,0,0,0.98621181,-799.9225,-334.05246)" style="stroke-width:0.629255">
         <g id="g1716" transform="scale(1,-1)" style="stroke-width:0.629255">
            <path d="m 919.043,-465.336 c -0.5,3.07 -0.328,8.324 -0.313,12.336 0.293,12.25 0.672,24.25 1.563,36.234 -0.156,13.286 -0.07,26.106 1.156,39.614 0.035,6.746 2.047,15.605 -2.637,19.91 -0.48,0.437 -1.417,0.617 -1.902,1.121" style="fill:none;stroke:#000000;stroke-width:1.64574;stroke-linecap:round;stroke-linejoin:round;stroke-miterlimit:10;stroke-dasharray:none;stroke-opacity:1" id="path1718" />
         </g>
         <g id="g1720" transform="scale(1,-1)" style="stroke-width:0.629255">
            <path d="m 916.91,-356.121 c 1.187,-0.718 9.977,-2.281 12.242,-3.371 2.469,-5 0.118,-11.266 0.243,-16.699 -1.157,-10.434 0.132,-20.934 -0.93,-30.805 0.078,-5.344 -0.453,-11.367 0.074,-16.75 -0.586,-5.977 -1.25,-11.524 -1.187,-17.227 -0.579,-5.168 -1.172,-10.234 -0.993,-14.703 0.137,-1.758 0.118,-4.238 -0.351,-5.027 -1.281,-1.461 -3.766,-3.309 -5.594,-4.188 -0.539,-0.242 -1.469,-0.566 -1.766,-0.671" style="fill:none;stroke:#000000;stroke-width:1.64574;stroke-linecap:round;stroke-linejoin:round;stroke-miterlimit:10;stroke-dasharray:none;stroke-opacity:1" id="path1722" sodipodi:nodetypes="cccccccccc" />
         </g>
         <g id="g1724" transform="scale(1,-1)" style="stroke-width:0.629255">
            <path d="m 837.289,-358.742 c 0.688,0.078 4.184,1.008 5.793,1.043 13.008,2.078 26.961,1.637 40.465,1.996 10.32,-0.426 21.308,0.641 31.258,-0.012 0.461,-0.437 1.918,-0.328 1.871,-0.512" style="fill:none;stroke:#000000;stroke-width:1.64574;stroke-linecap:round;stroke-linejoin:round;stroke-miterlimit:10;stroke-dasharray:none;stroke-opacity:1" id="path1726" />
         </g>
         <g id="g1728" transform="scale(1,-1)" style="stroke-width:0.629255">
            <path d="m 837.289,-358.742 0.293,-83.875 c 0.277,-2.379 0.258,-3.039 2.723,-4.449 5,-2.211 13.261,-2.594 19.679,-4.489 7.957,-1.238 13.743,-2.574 21.516,-4.519 0,0 39.67359,-11.66795 36.699,-8.391 0.293,-0.644 0.773,-1.597 0.449,-1.097" style="fill:none;stroke:#000000;stroke-width:1.64574;stroke-linecap:round;stroke-linejoin:round;stroke-miterlimit:10;stroke-dasharray:none;stroke-opacity:1" id="path1730" sodipodi:nodetypes="ccccccc" />
         </g>
         <g id="g1732" transform="scale(1,-1)" style="stroke-width:0.629255">
            <path d="m 868.8942,-394.12413 c 4.6976,1.30734 10.14512,-0.94466 12.35451,-5.34047 2.9936,-4.9513 3.25877,-11.1048 2.03767,-16.63953 -1.15616,-3.25792 -4.91346,-4.43454 -8.05436,-4.63645 -4.0414,-0.63573 -7.71928,2.11894 -9.74423,5.40173 -1.87598,2.69963 -3.28459,5.85148 -3.19553,9.20188 -0.0149,4.01989 1.11468,8.34046 4.10215,11.17895 1.9717,1.39622 4.52542,0.59756 6.73059,1.10302" style="fill:none;stroke:#000000;stroke-width:1.64574;stroke-linecap:round;stroke-linejoin:round;stroke-miterlimit:10;stroke-dasharray:none;stroke-opacity:1" id="path1734" sodipodi:nodetypes="ccccccc" />
         </g>
         <g id="g1736" transform="scale(1,-1)" style="stroke-width:0.629255">
            <path d="m 862.96039,-355.9014 c 1.496,1.445 3.75861,7.4914 5.45361,9.7994 1.223,1.993 1.586,3.497 2.879,3.715 2.121,1.028 4.43,1.735 7.66,-0.187 4.399,-3.317 6.442,-12.61783 12.125,-13.10283 -4.254,0.692 -7.328,7.76283 -10.824,10.37583 -1.934,1.781 -5.215,2.606 -7.231,2.707 -4.683,-0.672 -3.738,-7.496 -5.371,-11.558 -0.152,-0.774 -0.812,-2.371 -0.847,-1.77" style="fill:none;stroke:#000000;stroke-width:1.64574;stroke-linecap:round;stroke-linejoin:round;stroke-miterlimit:10;stroke-dasharray:none;stroke-opacity:1" id="path1738" sodipodi:nodetypes="ccccccccc" />
         </g>
         <g id="g1740" transform="scale(1,-1)" style="stroke-width:0.629255">
            <path d="m 924.547,-371.113 c 1.848,-0.582 2.336,-5.563 2.195,-8.5 -0.039,-5.625 -1.422,-10.992 -4.144,-11.676 -0.168,0.355 -0.27,-0.762 0.5,1.527 1.39,5.543 2.859,12.168 0.843,17.121 -1.66,1.946 0.938,1.563 2.032,-0.976 -0.168,-1.578 0.804,-5.875 0.472,-6.43 -0.133,-0.141 -0.043,1.801 -0.101,1.543" style="fill:none;stroke:#000000;stroke-width:1.64574;stroke-linecap:round;stroke-linejoin:round;stroke-miterlimit:10;stroke-dasharray:none;stroke-opacity:1" id="path1742" />
         </g>
         <g id="g1744" transform="scale(1,-1)" style="stroke-width:0.629255">
            <path d="m 875.625,-401.711 c 0.594,0.344 -1.273,0.789 -2.355,0.891 -3.399,0.297 -5.215,-2.676 -5.536,-6.422 0.149,-2.246 0.161,-2.844 0.457,-2.348 0.87034,0.64385 7.434,7.879 7.434,7.879" style="fill:none;stroke:#000000;stroke-width:1.64574;stroke-linecap:round;stroke-linejoin:round;stroke-miterlimit:10;stroke-dasharray:none;stroke-opacity:1" id="path1746" sodipodi:nodetypes="ccccc" />
         </g>
         <g id="g1748" transform="scale(1,-1)" style="stroke-width:0.629255">
            <path d="m 878.266,-405.094 c 0.964,-2.699 0.23543,-8.58019 -3.61,-9.652 -1.886,-0.457 -4.195,0.242 -3.246,0.5 1.707,3.703 5.453,8.137 6.567,9.406 0.031,0.188 0.375,-0.414 0.304,-0.265 l -0.015,0.011" style="fill:none;stroke:#000000;stroke-width:1.64574;stroke-linecap:round;stroke-linejoin:round;stroke-miterlimit:10;stroke-dasharray:none;stroke-opacity:1" id="path1750" sodipodi:nodetypes="cccccc" />
         </g>
         <g id="g1752" transform="scale(1,-1)" style="stroke-width:0.629255">
            <path d="m 922.344,-397.418 c 0.281,0 3.324,0.188 4.394,0.16" style="fill:none;stroke:#000000;stroke-width:0.82287;stroke-linecap:round;stroke-linejoin:round;stroke-miterlimit:10;stroke-dasharray:none;stroke-opacity:1" id="path1754" />
         </g>
         <g id="g1756" transform="scale(1,-1)" style="stroke-width:0.629255">
            <path d="m 922.773,-402.543 c 1.415,0.004 2.848,-0.09 4.016,0.102" style="fill:none;stroke:#000000;stroke-width:0.82287;stroke-linecap:round;stroke-linejoin:round;stroke-miterlimit:10;stroke-dasharray:none;stroke-opacity:1" id="path1758" />
         </g>
         <g id="g1760" transform="scale(1,-1)" style="stroke-width:0.629255">
            <path d="m 922.664,-408.141 c -1.117,-1.023 1.648,0.368 2.41,0.375" style="fill:none;stroke:#000000;stroke-width:0.82287;stroke-linecap:round;stroke-linejoin:round;stroke-miterlimit:10;stroke-dasharray:none;stroke-opacity:1" id="path1762" />
         </g>
         <g id="g1764" transform="scale(1,-1)" style="stroke-width:0.629255">
            <path d="m 923.012,-412.586 c 0.324,-0.133 1.836,0.621 2.711,0.484" style="fill:none;stroke:#000000;stroke-width:0.82287;stroke-linecap:round;stroke-linejoin:round;stroke-miterlimit:10;stroke-dasharray:none;stroke-opacity:1" id="path1766" />
         </g>
         <g id="g1768" transform="scale(1,-1)" style="stroke-width:0.629255">
            <path d="m 922.207,-418.477 c 0.637,0.219 2.762,1.254 3.43,0.575" style="fill:none;stroke:#000000;stroke-width:0.82287;stroke-linecap:round;stroke-linejoin:round;stroke-miterlimit:10;stroke-dasharray:none;stroke-opacity:1" id="path1770" />
         </g>
         <g id="g1772" transform="scale(1,-1)" style="stroke-width:0.629255">
            <path d="m 922.281,-423.586 c 1.153,0.016 2.289,0.66 3.512,0.484" style="fill:none;stroke:#000000;stroke-width:0.82287;stroke-linecap:round;stroke-linejoin:round;stroke-miterlimit:10;stroke-dasharray:none;stroke-opacity:1" id="path1774" />
         </g>
         <g id="g1776" transform="scale(1,-1)" style="stroke-width:0.629255">
            <path d="m 923.309,-427.516 c -0.688,-0.48 2.515,0.524 2.32,0.434" style="fill:none;stroke:#000000;stroke-width:0.82287;stroke-linecap:round;stroke-linejoin:round;stroke-miterlimit:10;stroke-dasharray:none;stroke-opacity:1" id="path1778" />
         </g>
         <g id="g1780" transform="scale(1,-1)" style="stroke-width:0.629255">
            <path d="m 922.262,-435.812 c -0.563,1.222 1.82,0.468 2.574,1.14" style="fill:none;stroke:#000000;stroke-width:0.82287;stroke-linecap:round;stroke-linejoin:round;stroke-miterlimit:10;stroke-dasharray:none;stroke-opacity:1" id="path1782" />
         </g>
         <g id="g1784" transform="scale(1,-1)" style="stroke-width:0.629255">
            <path d="m 921.805,-440.059 c -0.145,-0.437 2.371,0.727 2.765,0.36" style="fill:none;stroke:#000000;stroke-width:0.82287;stroke-linecap:round;stroke-linejoin:round;stroke-miterlimit:10;stroke-dasharray:none;stroke-opacity:1" id="path1786" />
         </g>
         <g id="g1788" transform="scale(1,-1)" style="stroke-width:0.629255">
            <path d="m 920.973,-452.051 c -0.801,-0.5 1.359,0.129 2.367,0.731" style="fill:none;stroke:#000000;stroke-width:0.82287;stroke-linecap:round;stroke-linejoin:round;stroke-miterlimit:10;stroke-dasharray:none;stroke-opacity:1" id="path1790" />
         </g>
         <g id="g1792" transform="scale(1,-1)" style="stroke-width:0.629255">
            <path d="m 924.863,-366.664 c 0.575,0.332 2.391,0.125 3.246,0.504" style="fill:none;stroke:#000000;stroke-width:0.82287;stroke-linecap:round;stroke-linejoin:round;stroke-miterlimit:10;stroke-dasharray:none;stroke-opacity:1" id="path1794" />
         </g>
         <g id="g1796" transform="scale(1,-1)" style="stroke-width:0.629255">
            <path d="m 924.219,-364.938 c 0.41,-1.07 3.32,0.59 3.664,0.364" style="fill:none;stroke:#000000;stroke-width:0.82287;stroke-linecap:round;stroke-linejoin:round;stroke-miterlimit:10;stroke-dasharray:none;stroke-opacity:1" id="path1798" />
         </g>
         <g id="g1800" transform="scale(1,-1)" style="stroke-width:0.629255">
            <path d="m 925.16,-364.039 c -3.086,-0.082 3.598,0.215 0.227,1.289 -3.621,1.062 0.605,0.34 1.551,0.941 -0.333,0.094 -4.817,0.731 -2.411,0.258" style="fill:none;stroke:#000000;stroke-width:0.82287;stroke-linecap:round;stroke-linejoin:round;stroke-miterlimit:10;stroke-dasharray:none;stroke-opacity:1" id="path1802" />
         </g>
      </g>
   </g>
</svg>
