<?xml version="1.0" encoding="UTF-8" standalone="no"?>
<!-- Created by Ashley Blewer - This work is licensed under a Creative Commons Attribution 4.0 International License -->

<svg width="544" height="480" viewBox="0 0 143.93334 127" version="1.1" id="svg2490" inkscape:version="1.1.2 (08b2f3d93c, 2022-04-05)" sodipodi:docname="1961-2inch-helical-2.svg"
   xmlns:inkscape="http://www.inkscape.org/namespaces/inkscape"
   xmlns:sodipodi="http://sodipodi.sourceforge.net/DTD/sodipodi-0.dtd"
   xmlns="http://www.w3.org/2000/svg"
   xmlns:svg="http://www.w3.org/2000/svg">
   <sodipodi:namedview id="namedview2492" pagecolor="#ffffff" bordercolor="#666666" borderopacity="1.0" inkscape:pageshadow="2" inkscape:pageopacity="0.0" inkscape:pagecheckerboard="0" inkscape:document-units="mm" showgrid="false" units="px" inkscape:zoom="0.90583674" inkscape:cx="241.76542" inkscape:cy="251.14901" inkscape:window-width="1848" inkscape:window-height="1136" inkscape:window-x="72" inkscape:window-y="27" inkscape:window-maximized="1" inkscape:current-layer="layer1" />
   <defs id="defs2487" />
   <g inkscape:label="Layer 1" inkscape:groupmode="layer" id="layer1">
      <g id="g1681" transform="matrix(0.48074432,0,0,0.48074432,-319.46021,-18.408417)" style="stroke-width:0.801233">
         <g id="g12" transform="scale(1,-1)" style="stroke-width:0.801233">
            <path d="m 820.398,-44.562 c -42.73742,7.02088 -84.56909,-20.769454 -105.48456,-56.76613 -25.60534,-44.19327 -24.77433,-105.07973 10.05615,-144.25925 4.74601,-6.8807 16.05013,-12.85861 21.44065,-17.57687" style="fill:none;stroke:#000000;stroke-width:2.09553;stroke-linecap:round;stroke-linejoin:round;stroke-miterlimit:10;stroke-dasharray:none;stroke-opacity:1" id="path14" sodipodi:nodetypes="cccc" />
         </g>
         <g id="g16" transform="scale(1,-1)" style="stroke-width:0.801233">
            <path d="M 817.926,-44.355 C 760.36991,-58.18775 720.83995,-116.88304 718.05679,-174.23055 715.91012,-221.53469 739.3772,-275.43684 787.332,-290.938" style="fill:none;stroke:#000000;stroke-width:2.09553;stroke-linecap:round;stroke-linejoin:round;stroke-miterlimit:10;stroke-dasharray:none;stroke-opacity:1" id="path18" />
         </g>
         <g id="g20" transform="scale(1,-1)" style="stroke-width:0.801233">
            <path d="m 820.594,-44.438 c 25.90055,2.978197 52.88991,-6.845591 74.26875,-21.407829 12.10681,-10.083753 24.9585,-20.571353 31.98311,-34.982711 31.56407,-66.72306 -0.84961,-157.07909 -69.48744,-185.78879 -23.42899,-8.62792 -46.75311,-12.93175 -70.02642,-4.32067" style="fill:none;stroke:#000000;stroke-width:2.09553;stroke-linecap:round;stroke-linejoin:round;stroke-miterlimit:10;stroke-dasharray:none;stroke-opacity:1" id="path22" sodipodi:nodetypes="ccccc" />
         </g>
         <g id="g24" transform="scale(1,-1)" style="stroke-width:0.801233">
            <path d="m 875.43649,-116.99127 c -3.51776,6.27503 -4.67688,12.24937 -1.7013,21.915634 2.70958,6.334408 9.14257,11.388435 16.2637,10.925334 7.2833,0.754997 14.05389,-4.925317 14.46172,-12.24903 0.96904,-5.551598 2.047,-11.714468 -1.37959,-16.706908 -5.37198,-9.28856 -19.94124,-11.24313 -27.64453,-3.88503" style="fill:none;stroke:#000000;stroke-width:2.09553;stroke-linecap:round;stroke-linejoin:round;stroke-miterlimit:10;stroke-dasharray:none;stroke-opacity:1" id="path26" sodipodi:nodetypes="cccccc" />
         </g>
         <g id="g28" transform="scale(1,-1)" style="stroke-width:0.801233">
            <path d="m 780.094,-220.246 c 2.84769,-5.26677 8.22055,-8.40523 12.77377,-12.02006 3.44321,-1.89796 7.06198,-3.56326 10.28823,-5.85894 3.2984,-1.49848 7.70225,-1.44043 10.10603,-4.38553 0.31065,-3.10073 -1.71701,-6.00183 -2.05712,-9.11074 -0.96995,-3.00001 -1.17642,-6.11728 -1.76767,-9.18129 -0.86983,-2.22998 -0.7394,-5.21694 -3.32451,-6.29872 -2.07474,-1.71742 -4.89727,-2.36386 -7.47303,-1.45018 -3.95561,1.28651 -7.98558,2.44422 -11.60985,4.54045 -4.38219,2.2443 -9.2095,3.7907 -12.92422,7.14244 -5.84787,4.66084 -12.59696,8.80554 -16.15236,15.64931 -1.74428,1.86849 -1.336,4.07779 1.08912,5.18414 3.169,2.54325 4.94176,6.49747 8.58746,8.47876 3.97072,2.43951 7.32435,5.91012 11.6218,7.76323 0.84235,-0.45287 -0.76912,1.17681 0.84235,-0.45287" style="fill:none;stroke:#000000;stroke-width:2.09553;stroke-linecap:round;stroke-linejoin:round;stroke-miterlimit:10;stroke-dasharray:none;stroke-opacity:1" id="path30" sodipodi:nodetypes="ccccccccccccccc" />
         </g>
         <g id="g32" transform="scale(1,-1)" style="stroke-width:0.801233">
            <path d="m 823.645,-127.789 c -0.51991,1.4993 -6.5622,2.61245 -2.02352,1.96507 2.42564,-1.20246 2.14042,-0.67676 0.25164,0.63168 3.7919,-2.34928 -4.83952,3.82817 -5.11743,-1.53625 -0.17993,-2.66475 4.24813,-5.53071 -0.8589,-6.61547 -5.96672,-3.55695 -11.35044,-8.45107 -15.14823,-14.30949 -2.17546,-4.64438 -4.48029,-9.32364 -5.7558,-14.30319 -1.54734,-5.12711 -2.50473,-10.34312 -2.65908,-15.72709 -0.95332,-6.93689 0.92534,-13.91015 3.98743,-20.09652 2.34009,-6.17527 4.33262,-13.66172 10.77535,-16.78827 -2.80794,-2.00311 -1.69104,-5.90967 1.74743,-3.45893 3.6441,4.48948 8.03327,-2.47332 12.73263,-2.11111 5.60114,-1.54907 11.5855,-1.34064 17.06842,0.53282 5.26115,0.99109 10.91181,2.24576 14.79401,6.21989 5.59781,3.73596 10.05159,9.14439 13.39501,14.93603 2.818,6.38831 6.59233,12.44291 7.90597,19.39529 5.27017,-2.4782 5.23869,5.48184 1.44714,6.18647 -0.013,4.32989 -0.91212,8.76133 -1.33296,13.10145 -0.70614,4.29053 -1.92575,8.54417 -3.27154,12.6563 -2.90781,6.24831 -6.52139,13.09828 -13.21831,15.91502 -5.67483,3.91369 -12.60956,5.61528 -19.38941,6.09949 -5.74736,-0.35178 -11.81872,-0.77889 -16.9709,-3.58019" style="fill:none;stroke:#000000;stroke-width:2.09553;stroke-linecap:round;stroke-linejoin:round;stroke-miterlimit:10;stroke-dasharray:none;stroke-opacity:1" id="path34" />
         </g>
         <g id="g36" transform="scale(1,-1)" style="stroke-width:0.801233">
            <path d="m 828.289,-128.234 c 3.40092,-1.34487 6.49054,-4.37199 8.4979,-7.57488 2.21482,-3.11801 3.022,-6.88031 4.3691,-10.39412 0.69386,-4.60354 0.98799,-9.28852 0.83037,-13.89613 0.32238,-2.14009 4.2487,-2.28475 5.53756,-4.52055 3.67609,-2.65179 -1.88703,-5.48275 -4.63895,-4.6562 -3.68543,2.38026 -2.50551,-3.18218 -2.48057,-5.15236 -0.2534,-2.75127 -2.01584,-4.59233 -2.94519,-7.08104 0.13202,-3.47024 -3.61116,-5.30726 -5.19715,-8.09029 -2.16966,-1.99981 -3.89434,-4.48307 -6.21057,-6.2913 -2.00166,-2.83899 -5.1172,-4.73897 -7.91789,-6.60758 -3.22477,-1.81015 -6.10535,-4.55453 -9.95361,-4.80255 -2.6727,0.28962 -6.94643,-1.39738 -8.57514,1.20465 -0.89955,-0.37905 -0.1882,1.35155 -0.78542,1.59249" style="fill:none;stroke:#000000;stroke-width:2.09553;stroke-linecap:round;stroke-linejoin:round;stroke-miterlimit:10;stroke-dasharray:none;stroke-opacity:1" id="path38" sodipodi:nodetypes="ccccccccccccccccccccccccccccccccccccccccccc" />
         </g>
         <g id="g40" transform="scale(1,-1)" style="stroke-width:0.801233">
            <path d="m 848.395,-171.457 c -0.043,0.039 0.601,0.031 0.851,-0.145 7.359,-1.5 15.383,-3.566 22.559,-4.914 0.117,-0.136 -0.457,0.004 -0.571,0.078" style="fill:none;stroke:#000000;stroke-width:2.09553;stroke-linecap:round;stroke-linejoin:round;stroke-miterlimit:10;stroke-dasharray:none;stroke-opacity:1" id="path42" />
         </g>
         <g id="g44" transform="scale(1,-1)" style="stroke-width:0.801233">
            <path d="m 849.895,-166.648 c 1.941,-0.047 5.859,-1.747 8.703,-2.543 4.601,-0.825 9.48,-3.567 13.808,-3.438" style="fill:none;stroke:#000000;stroke-width:2.09553;stroke-linecap:round;stroke-linejoin:round;stroke-miterlimit:10;stroke-dasharray:none;stroke-opacity:1" id="path46" />
         </g>
         <g id="g48" transform="scale(1,-1)" style="stroke-width:0.801233">
            <path d="m 787.215,-202.676 c -6.19912,15.17166 -4.54554,32.23262 0.82106,47.3667 2.51033,9.64107 7.29506,19.00049 15.46033,25.01337 6.66978,8.29622 15.64829,14.93623 26.67467,15.11085 17.40844,2.47739 37.5013,-4.0596 45.90334,-20.49756 9.19156,-15.94917 11.28725,-36.23937 3.76957,-53.26223 -5.23882,-14.69345 -15.3451,-27.97147 -29.64536,-34.77094 -11.85886,-6.96349 -27.26034,-13.05424 -40.39899,-5.78038 -13.14749,7.00178 -17.35763,13.47053 -22.58462,26.82019" style="fill:none;stroke:#000000;stroke-width:2.09553;stroke-linecap:round;stroke-linejoin:round;stroke-miterlimit:10;stroke-dasharray:none;stroke-opacity:1" id="path50" sodipodi:nodetypes="ccccccccc" />
         </g>
         <g id="g52" transform="scale(1,-1)" style="stroke-width:0.801233">
            <path d="m 846.809,-112.656 c 0.398,1.316 -0.375,-0.559 -0.497,0.105 -0.398,-0.578 -1.308,-0.297 -2.027,-0.504 -0.902,0.512 -1.199,0.746 -1.867,1.535 -0.594,0.77 -0.113,1.25 -0.715,2.442 0.067,1.355 0.262,2.379 1.52,2.961 1.125,0.906 2.761,1.844 4.047,1.238 1.71,0.727 3.574,-1.035 3.671,-2.16 0.508,-0.836 -0.136,-1.918 -0.253,-2.652 -0.247,-0.141 -0.696,-1.02 -1.196,-1.27 -1.07,-1.375 -2.969,-1.43 -4.578,-1.434 -1.199,-0.136 -0.738,0.243 -1.566,0.579" style="fill:none;stroke:#000000;stroke-width:1.04776;stroke-linecap:round;stroke-linejoin:round;stroke-miterlimit:10;stroke-dasharray:none;stroke-opacity:1" id="path54" />
         </g>
         <g id="g56" transform="scale(1,-1)" style="stroke-width:0.801233">
            <path d="m 846.465,-109.715 c 0.883,-0.715 -0.406,1.891 -0.844,2.766 0.098,0.285 -0.004,0.324 -0.113,0.496" style="fill:none;stroke:#000000;stroke-width:1.04776;stroke-linecap:round;stroke-linejoin:round;stroke-miterlimit:10;stroke-dasharray:none;stroke-opacity:1" id="path58" />
         </g>
         <g id="g60" transform="scale(1,-1)" style="stroke-width:0.801233">
            <path d="m 845.16,-108.867 c -0.601,0.094 2.477,1.281 2.57,1.168 l 0.059,0.031 0.145,0.078" style="fill:none;stroke:#000000;stroke-width:1.04776;stroke-linecap:round;stroke-linejoin:round;stroke-miterlimit:10;stroke-dasharray:none;stroke-opacity:1" id="path62" />
         </g>
         <g id="g64" transform="scale(1,-1)" style="stroke-width:0.801233">
            <path d="m 791.969,-140.293 c -0.047,-0.402 -0.348,-0.328 -0.66,-0.352 -0.942,-0.402 -1.954,0.004 -2.379,0.317 -1.34,0.801 -2.2,1.734 -2.09,3.359 -0.711,1.727 0.047,3.512 1.172,4.242 1.215,1.114 2.535,2.297 4.09,2.407 1.546,0.468 2.41,-1.289 3.714,-2.719 0.102,-0.457 -0.281,-0.492 0.207,-1.207 -0.015,-1.387 0.731,-2.918 -0.48,-3.945 -0.801,-1.457 -3.066,-2.125 -4.91,-2.993 0.156,0.122 -0.508,-0.086 -1.133,0.852" style="fill:none;stroke:#000000;stroke-width:1.04776;stroke-linecap:round;stroke-linejoin:round;stroke-miterlimit:10;stroke-dasharray:none;stroke-opacity:1" id="path66" />
         </g>
         <g id="g68" transform="scale(1,-1)" style="stroke-width:0.801233">
            <path d="m 789.672,-138.031 c -0.774,-0.535 0.683,0.293 -0.07,1.41 0.046,0.887 -0.477,2.797 0.062,2.016" style="fill:none;stroke:#000000;stroke-width:1.04776;stroke-linecap:round;stroke-linejoin:round;stroke-miterlimit:10;stroke-dasharray:none;stroke-opacity:1" id="path70" />
         </g>
         <g id="g72" transform="scale(1,-1)" style="stroke-width:0.801233">
            <path d="m 788.543,-135.93 c -0.941,-0.59 1.574,0.414 3.465,-0.16" style="fill:none;stroke:#000000;stroke-width:1.04776;stroke-linecap:round;stroke-linejoin:round;stroke-miterlimit:10;stroke-dasharray:none;stroke-opacity:1" id="path74" />
         </g>
         <g id="g76" transform="scale(1,-1)" style="stroke-width:0.801233">
            <path d="m 777.64843,-198.391 c -1.106,0.098 -2,-1.175 -2.09,-1.304 -0.809,-0.782 -0.934,-2.45 -1.148,-3.321 0.199,-0.371 0.238,-1.312 0.859,-2.191 0.719,-2.125 3.016,-3.082 5.383,-2.641 1.824,0.403 2.42092,1.09511 3.363,2.88354 0.344,1.059 0.58769,3.07422 -0.001,3.98122 -2.01623,2.70777 -3.39432,2.69523 -6.36569,2.59224" style="fill:none;stroke:#000000;stroke-width:1.04776;stroke-linecap:round;stroke-linejoin:round;stroke-miterlimit:10;stroke-dasharray:none;stroke-opacity:1" id="path78" sodipodi:nodetypes="cccccccc" />
         </g>
         <g id="g80" transform="scale(1,-1)" style="stroke-width:0.801233">
            <path d="m 778.605,-201.082 c 0.946,0.242 -0.527,0.277 0.583,-0.285 0.636,-1.047 0.933,-2.793 1.894,-3.418 -0.281,-0.348 0.141,-0.324 0.102,-0.488 l -0.024,0.043" style="fill:none;stroke:#000000;stroke-width:1.04776;stroke-linecap:round;stroke-linejoin:round;stroke-miterlimit:10;stroke-dasharray:none;stroke-opacity:1" id="path82" />
         </g>
         <g id="g84" transform="scale(1,-1)" style="stroke-width:0.801233">
            <path d="m 777.609,-203.117 c -1.648,-0.321 1.688,0.461 2.977,0.765 0.98,0.184 1.535,0.747 2.328,0.649" style="fill:none;stroke:#000000;stroke-width:1.04776;stroke-linecap:round;stroke-linejoin:round;stroke-miterlimit:10;stroke-dasharray:none;stroke-opacity:1" id="path86" />
         </g>
         <g id="g88" transform="scale(1,-1)" style="stroke-width:0.801233">
            <path d="m 824.594,-233.426 c 0.109,1.086 -0.891,-0.179 -1.625,-0.211 0.093,-0.461 -2.36,-1.961 -2.125,-2.371 0.07,-0.883 0.215,-1.609 0.64,-2.226 0.454,-0.793 2.192,-1.922 2.926,-2.219 1.852,-0.137 3.649,-0.235 5.278,0.769 0.957,0.739 1.824,1.899 1.515,3.239 -0.015,0.273 -0.605,1.875 -1.5,2.324 -0.844,1.789 -3.047,1.703 -4.363,2.035 -0.414,-0.519 -1.492,-0.391 -2.078,-0.906" style="fill:none;stroke:#000000;stroke-width:1.04776;stroke-linecap:round;stroke-linejoin:round;stroke-miterlimit:10;stroke-dasharray:none;stroke-opacity:1" id="path90" />
         </g>
         <g id="g92" transform="scale(1,-1)" style="stroke-width:0.801233">
            <path d="m 824.926,-235.836 c 0.078,0.598 0.512,-1.199 0.574,-1.723 0.871,-0.535 0.332,-1.097 0.191,-1.164" style="fill:none;stroke:#000000;stroke-width:1.04776;stroke-linecap:round;stroke-linejoin:round;stroke-miterlimit:10;stroke-dasharray:none;stroke-opacity:1" id="path94" />
         </g>
         <g id="g96" transform="scale(1,-1)" style="stroke-width:0.801233">
            <path d="m 823.438,-237.098 c -0.098,-0.273 -0.223,0.461 0.984,0.614 1.223,0.418 2.336,0.265 3.258,0.574" style="fill:none;stroke:#000000;stroke-width:1.04776;stroke-linecap:round;stroke-linejoin:round;stroke-miterlimit:10;stroke-dasharray:none;stroke-opacity:1" id="path98" />
         </g>
         <g id="g100" transform="scale(1,-1)" style="stroke-width:0.801233">
            <path d="m 874.852,-204.824 c -0.633,-0.812 -1.06528,-3.02855 -1.06528,-3.02855 0.009,-1.32589 0.87728,-2.69845 1.74428,-3.47145 0.485,-0.727 2.637,-2.215 3.981,-1.781 1.695,0.214 2.269,0.382 2.941,2.152 0.051,1.273 -0.074,2.629 -1.07,3.73 -0.778,0.934 -2.129,2.211 -2.875,2.715 0,0 -1.45571,0.56398 -2.15471,0.35298 -0.152,0.016 -0.84929,-0.14173 -1.50129,-0.66898" style="fill:none;stroke:#000000;stroke-width:1.04776;stroke-linecap:round;stroke-linejoin:round;stroke-miterlimit:10;stroke-dasharray:none;stroke-opacity:1" id="path102" sodipodi:nodetypes="ccccccccc" />
         </g>
         <g id="g104" transform="scale(1,-1)" style="stroke-width:0.801233">
            <path d="m 876.941,-207.027 c 0.012,-0.825 0.621,-0.196 0.649,-1.223 0.324,-1.004 1.109,-1.762 1.328,-1.973" style="fill:none;stroke:#000000;stroke-width:1.04776;stroke-linecap:round;stroke-linejoin:round;stroke-miterlimit:10;stroke-dasharray:none;stroke-opacity:1" id="path106" />
         </g>
         <g id="g108" transform="scale(1,-1)" style="stroke-width:0.801233">
            <path d="m 876.203,-209.324 c -1.683,0.176 1.008,0.097 1.895,0.597 0.195,0.403 1.187,0.313 1.789,1.262" style="fill:none;stroke:#000000;stroke-width:1.04776;stroke-linecap:round;stroke-linejoin:round;stroke-miterlimit:10;stroke-dasharray:none;stroke-opacity:1" id="path110" />
         </g>
         <g id="g112" transform="scale(1,-1)" style="stroke-width:0.801233">
            <path d="m 925.395,-197.242 c 0.105,-0.492 0.097,0.031 -0.036,0.039 0.27,-0.254 -0.574,0.918 -1.086,1.121 -0.324,0.324 -1.343,1.148 -1.312,1.566 -0.629,0.407 -0.824,0.836 -0.859,1.086 0.054,-0.152 1.179,0.832 1.789,0.543 1.839,0.379 3.574,0.305 4.757,0.325 0.262,0.097 0.18,0.089 0.102,0.066" style="fill:none;stroke:#000000;stroke-width:1.04776;stroke-linecap:round;stroke-linejoin:round;stroke-miterlimit:10;stroke-dasharray:none;stroke-opacity:1" id="path114" />
         </g>
         <g id="g116" transform="scale(1,-1)" style="stroke-width:0.801233">
            <path d="m 924.727,-195.398 c -0.344,0.328 0.589,2.261 0.113,2.039 -0.152,0.308 0.246,0.433 0.051,0.605" style="fill:none;stroke:#000000;stroke-width:1.04776;stroke-linecap:round;stroke-linejoin:round;stroke-miterlimit:10;stroke-dasharray:none;stroke-opacity:1" id="path118" />
         </g>
         <g id="g120" transform="scale(1,-1)" style="stroke-width:0.801233">
            <path d="m 927.691,-188.84 c 0.133,0.324 0.079,-0.394 -0.136,0.199 -0.313,-0.023 -3.121,1.004 -3.809,1.496 -0.625,-0.113 -1.195,0.336 -0.703,0.141 0.242,-0.082 3.074,0.274 4.047,0.563 0.211,0.218 0.566,0.539 0.406,0.375 -0.422,0.621 -1.457,2.097 -2.363,2.281 -0.168,0.597 -1.195,1.469 -0.653,0.996 0.122,0.019 2.438,-0.418 3.278,-0.633 1.242,-0.656 1.957,-0.277 2.012,-0.316" style="fill:none;stroke:#000000;stroke-width:1.04776;stroke-linecap:round;stroke-linejoin:round;stroke-miterlimit:10;stroke-dasharray:none;stroke-opacity:1" id="path122" />
         </g>
         <g id="g124" transform="scale(1,-1)" style="stroke-width:0.801233">
            <path d="m 925.688,-180.352 c -1.282,-0.429 -0.547,0.082 -0.09,-0.222 1.656,0.058 3.441,-0.535 3.992,-0.391 0.211,-0.301 1.121,0.043 0.765,-0.035" style="fill:none;stroke:#000000;stroke-width:1.04776;stroke-linecap:round;stroke-linejoin:round;stroke-miterlimit:10;stroke-dasharray:none;stroke-opacity:1" id="path126" />
         </g>
         <g id="g128" transform="scale(1,-1)" style="stroke-width:0.801233">
            <path d="m 925.754,-180.25 c -1.656,0.039 -0.586,-0.137 -1.106,0.695 0.247,0.75 -0.015,1.614 0.223,2.332 1.34,-0.043 3.012,-0.23 2.301,-1.636 -0.231,-0.746 -0.629,-1 -0.703,-1.028" style="fill:none;stroke:#000000;stroke-width:1.04776;stroke-linecap:round;stroke-linejoin:round;stroke-miterlimit:10;stroke-dasharray:none;stroke-opacity:1" id="path130" />
         </g>
         <g id="g132" transform="scale(1,-1)" style="stroke-width:0.801233">
            <path d="m 924.602,-172.785 c 0.57,-1.027 2.668,-0.637 3.355,-1.336 1.246,-0.34 2.867,-0.457 3.305,0.07 -0.25,-0.129 -0.055,1.102 0.289,1.684 0.105,0.242 0.054,2.176 -0.117,1.578 -0.082,0.062 0.269,0.383 0.125,0.019" style="fill:none;stroke:#000000;stroke-width:1.04776;stroke-linecap:round;stroke-linejoin:round;stroke-miterlimit:10;stroke-dasharray:none;stroke-opacity:1" id="path134" />
         </g>
         <g id="g136" transform="scale(1,-1)" style="stroke-width:0.801233">
            <path d="m 927.691,-172.82 c 0.18,0.218 0.266,0.008 0.606,0.804 -0.125,0.192 0.238,1.067 0.195,0.911" style="fill:none;stroke:#000000;stroke-width:1.04776;stroke-linecap:round;stroke-linejoin:round;stroke-miterlimit:10;stroke-dasharray:none;stroke-opacity:1" id="path138" />
         </g>
         <g id="g140" transform="scale(1,-1)" style="stroke-width:0.801233">
            <path d="m 925.395,-172.965 c -0.239,0.676 0.062,1.992 0.437,2.36 0.289,0.238 -0.043,0.167 -0.047,0.218" style="fill:none;stroke:#000000;stroke-width:1.04776;stroke-linecap:round;stroke-linejoin:round;stroke-miterlimit:10;stroke-dasharray:none;stroke-opacity:1" id="path142" />
         </g>
         <g id="g144" transform="scale(1,-1)" style="stroke-width:0.801233">
            <path d="m 925.621,-168.262 c -0.785,-0.527 2.043,0.828 2.52,1.5 1.316,0.446 2.703,1.539 2.879,3.211 0.144,-0.121 -0.301,-0.101 -0.079,-0.09" style="fill:none;stroke:#000000;stroke-width:1.04776;stroke-linecap:round;stroke-linejoin:round;stroke-miterlimit:10;stroke-dasharray:none;stroke-opacity:1" id="path146" />
         </g>
         <g id="g148" transform="scale(1,-1)" style="stroke-width:0.801233">
            <path d="m 930.324,-167.918 c 0.176,-1 0.145,-0.277 -0.07,0.039 -0.957,2.156 -4.125,4.109 -4.406,5.609" style="fill:none;stroke:#000000;stroke-width:1.04776;stroke-linecap:round;stroke-linejoin:round;stroke-miterlimit:10;stroke-dasharray:none;stroke-opacity:1" id="path150" />
         </g>
         <g id="g152" transform="scale(1,-1)" style="stroke-width:0.801233">
            <path d="m 814.828,-56.539 c 1.176,-1.195 0.633,0.785 0.567,-0.074 -0.161,0.562 0.253,-0.102 0.207,-0.192 -0.258,0.649 0.32,-0.062 -0.149,-0.992 -0.992,-1.285 -0.871,-4.07 -1.074,-5.105 -0.149,0.015 -0.024,0.429 -0.254,1.308 -0.328,1.809 -3.004,3.625 -3.313,4.461 l 0.11,-0.012 0.086,-0.007" style="fill:none;stroke:#000000;stroke-width:1.04776;stroke-linecap:round;stroke-linejoin:round;stroke-miterlimit:10;stroke-dasharray:none;stroke-opacity:1" id="path154" />
         </g>
         <g id="g156" transform="scale(1,-1)" style="stroke-width:0.801233">
            <path d="m 813.215,-59.98 c -0.34,1.304 0.832,-0.29 1.758,0.578 0.379,0.398 0.871,-0.614 0.808,0.129" style="fill:none;stroke:#000000;stroke-width:1.04776;stroke-linecap:round;stroke-linejoin:round;stroke-miterlimit:10;stroke-dasharray:none;stroke-opacity:1" id="path158" />
         </g>
         <g id="g160" transform="scale(1,-1)" style="stroke-width:0.801233">
            <path d="m 808.867,-58.871 c -0.762,0.367 0.133,0.933 0.09,-0.258 0.215,-1.816 0.582,-3.91 0.91,-5.262 -0.176,0.051 -0.109,0.43 -0.847,0.543 -1.211,0.27 -2.047,0.953 -2.997,1.391 -0.402,-0.238 -0.773,0.519 -0.492,0.453 0.215,-0.402 -0.367,-2.273 -0.941,-2.652 -0.41,-0.61 -0.586,-2.512 -0.692,-1.055 0.282,1.481 -2.738,2.43 -2.64,4.25 -0.227,0.211 0.027,0.617 -0.047,0.77" style="fill:none;stroke:#000000;stroke-width:1.04776;stroke-linecap:round;stroke-linejoin:round;stroke-miterlimit:10;stroke-dasharray:none;stroke-opacity:1" id="path162" />
         </g>
         <g id="g164" transform="scale(1,-1)" style="stroke-width:0.801233">
            <path d="m 799.449,-62.23 c -0.328,0.566 0.035,0.199 -0.039,-0.415 0.692,-1.359 1.778,-3.746 1.559,-4.562 0.254,0.406 -1.145,-1.008 -2.153,-0.832 -1.109,-0.418 -3.23,-0.016 -1.867,1.332 0.223,2.34 3.172,2.152 4.723,2.793 0,0.129 0.082,-0.191 -0.055,-0.137" style="fill:none;stroke:#000000;stroke-width:1.04776;stroke-linecap:round;stroke-linejoin:round;stroke-miterlimit:10;stroke-dasharray:none;stroke-opacity:1" id="path166" />
         </g>
         <g id="g168" transform="scale(1,-1)" style="stroke-width:0.801233">
            <path d="m 789.754,-66.57 c -0.418,-0.219 1.476,0.738 2.082,1.011 0.871,0.293 2.746,0.485 3.043,0.68 -0.348,-0.445 0.379,-3.121 0.918,-4.016 0.496,-1.242 -0.192,0.086 -0.91,-0.839 -0.532,-0.961 -2.489,-0.965 -2.961,-1.391 -0.414,-0.023 0.172,-0.195 -0.352,0.102" style="fill:none;stroke:#000000;stroke-width:1.04776;stroke-linecap:round;stroke-linejoin:round;stroke-miterlimit:10;stroke-dasharray:none;stroke-opacity:1" id="path170" />
         </g>
         <g id="g172" transform="scale(1,-1)" style="stroke-width:0.801233">
            <path d="m 794.109,-67.117 c 1.618,0.555 -0.937,-1.051 -1.55,-1.254 -0.442,-0.543 -1.164,-0.277 -1.727,-0.352" style="fill:none;stroke:#000000;stroke-width:1.04776;stroke-linecap:round;stroke-linejoin:round;stroke-miterlimit:10;stroke-dasharray:none;stroke-opacity:1" id="path174" />
         </g>
         <g id="g176" transform="scale(1,-1)" style="stroke-width:0.801233">
            <path d="m 787.883,-67.902 c 0.215,0.722 -0.16,0.191 -0.137,-0.012 -0.613,-1.895 -1.953,-5.691 -2.516,-6.606 l -0.003,0.043 v 0.012" style="fill:none;stroke:#000000;stroke-width:1.04776;stroke-linecap:round;stroke-linejoin:round;stroke-miterlimit:10;stroke-dasharray:none;stroke-opacity:1" id="path178" />
         </g>
         <g id="g180" transform="scale(1,-1)" style="stroke-width:0.801233">
            <path d="m 783.707,-69.211 c -0.937,-0.422 -0.273,0.141 0.469,-0.707 2.148,-0.762 5.281,-1.906 6.656,-3.098 l -0.023,0.008 -0.016,0.063" style="fill:none;stroke:#000000;stroke-width:1.04776;stroke-linecap:round;stroke-linejoin:round;stroke-miterlimit:10;stroke-dasharray:none;stroke-opacity:1" id="path182" />
         </g>
         <g id="g184" transform="scale(1,-1)" style="stroke-width:0.801233">
            <path d="m 754.324,-262.184 c -1,-1.136 2.364,-0.125 3.102,-0.128 1.457,-0.188 3.777,1.515 4.57,1.07 -0.285,0.219 0.313,0.156 -0.269,-1.02 -0.856,-1.843 -1.184,-3.113 -2.536,-4.957 -0.086,-0.617 -1.074,-0.879 -0.031,-0.965" style="fill:none;stroke:#000000;stroke-width:1.04776;stroke-linecap:round;stroke-linejoin:round;stroke-miterlimit:10;stroke-dasharray:none;stroke-opacity:1" id="path186" />
         </g>
         <g id="g188" transform="scale(1,-1)" style="stroke-width:0.801233">
            <path d="m 756.414,-263.035 c 0.609,1.047 2.008,-1.711 2.813,-1.43" style="fill:none;stroke:#000000;stroke-width:1.04776;stroke-linecap:round;stroke-linejoin:round;stroke-miterlimit:10;stroke-dasharray:none;stroke-opacity:1" id="path190" />
         </g>
         <g id="g192" transform="scale(1,-1)" style="stroke-width:0.801233">
            <path d="m 761.086,-269.531 c -0.027,0.761 -0.32,-0.02 0.16,0.261 0.356,-0.207 1.215,0.895 1.719,1.719 0.832,0.617 1.535,2.617 1.277,2.414 0.93,0.782 0.762,1.149 0.738,0.739 0.473,-0.938 0.098,-2.598 -0.265,-3.344 0.402,-1.188 -0.332,-0.399 0.527,-0.485 1.238,0.301 2.617,1.344 3.012,0.758 0.808,-0.297 -0.367,-0.109 -0.164,-1.14 -0.629,-0.821 -1.902,-2.703 -1.918,-2.547 -0.195,-0.235 -0.32,0.07 0,-0.203" style="fill:none;stroke:#000000;stroke-width:1.04776;stroke-linecap:round;stroke-linejoin:round;stroke-miterlimit:10;stroke-dasharray:none;stroke-opacity:1" id="path194" />
         </g>
         <g id="g196" transform="scale(1,-1)" style="stroke-width:0.801233">
            <path d="m 769.68,-269.141 c 0.035,-0.699 0.152,-0.175 -0.684,-1.015 -0.078,-1.399 -1.363,-3.59 -1.812,-4.328 -0.457,-0.121 0.035,-0.11 -0.145,0.148" style="fill:none;stroke:#000000;stroke-width:1.04776;stroke-linecap:round;stroke-linejoin:round;stroke-miterlimit:10;stroke-dasharray:none;stroke-opacity:1" id="path198" />
         </g>
         <g id="g200" transform="scale(1,-1)" style="stroke-width:0.801233">
            <path d="m 768.805,-270.996 c 0.48,0.738 1.644,1.547 2.941,0.555 0.637,-0.762 0.832,-1.516 -0.449,-1.895 -0.836,-0.883 -2.231,-0.465 -2.859,0.02 0.082,-0.071 0.726,0.066 0.152,0.089" style="fill:none;stroke:#000000;stroke-width:1.04776;stroke-linecap:round;stroke-linejoin:round;stroke-miterlimit:10;stroke-dasharray:none;stroke-opacity:1" id="path202" />
         </g>
         <g id="g204" transform="scale(1,-1)" style="stroke-width:0.801233">
            <path d="m 773.973,-272.637 c 0.277,-0.414 -0.051,0.614 0.05,-0.476 -0.726,-0.977 -1.765,-1.453 -1.738,-2.895 0.289,-1.293 0.735,-2.051 1.719,-1.785 0.973,0.395 0.926,0.07 1.215,0.18" style="fill:none;stroke:#000000;stroke-width:1.04776;stroke-linecap:round;stroke-linejoin:round;stroke-miterlimit:10;stroke-dasharray:none;stroke-opacity:1" id="path206" />
         </g>
         <g id="g208" transform="scale(1,-1)" style="stroke-width:0.801233">
            <path d="m 772.562,-275.402 c 0.305,0.535 2.473,-1.457 2.844,-0.969 l 0.153,0.051" style="fill:none;stroke:#000000;stroke-width:1.04776;stroke-linecap:round;stroke-linejoin:round;stroke-miterlimit:10;stroke-dasharray:none;stroke-opacity:1" id="path210" />
         </g>
         <g id="g212" transform="scale(1,-1)" style="stroke-width:0.801233">
            <path d="m 773.645,-272.867 c 0.363,-0.074 3.027,-0.414 4.183,-0.914" style="fill:none;stroke:#000000;stroke-width:1.04776;stroke-linecap:round;stroke-linejoin:round;stroke-miterlimit:10;stroke-dasharray:none;stroke-opacity:1" id="path214" />
         </g>
         <g id="g216" transform="scale(1,-1)" style="stroke-width:0.801233">
            <path d="m 779.285,-275.906 c -1.121,2.5 0.817,-1.024 1.199,-2.715 0.36,-0.656 -0.019,-1.531 0.399,-1.875" style="fill:none;stroke:#000000;stroke-width:1.04776;stroke-linecap:round;stroke-linejoin:round;stroke-miterlimit:10;stroke-dasharray:none;stroke-opacity:1" id="path218" />
         </g>
         <g id="g220" transform="scale(1,-1)" style="stroke-width:0.801233">
            <path d="m 776.316,-278.613 c -1.043,-0.348 0.481,0.156 0.801,0.23 2.082,0.528 4.973,2.301 6.356,2.262 0.414,-0.024 -0.004,-0.059 0.203,-0.082" style="fill:none;stroke:#000000;stroke-width:1.04776;stroke-linecap:round;stroke-linejoin:round;stroke-miterlimit:10;stroke-dasharray:none;stroke-opacity:1" id="path222" />
         </g>
         <g id="g224" transform="scale(1,-1)" style="stroke-width:0.801233">
            <path d="m 898.977,-113.465 c -2.92359,2.81487 -6.32521,5.10564 -9.05248,8.12866 -2.7679,2.51591 -5.56035,5.05827 -7.67888,8.165947 -0.70443,0.862507 -2.60659,3.022348 -2.74701,2.902768 1.46235,-1.658874 3.4615,-2.771847 4.66666,-4.689598 1.70437,-2.131597 4.00137,-3.631367 5.81204,-5.659577 1.63723,-1.60587 3.30827,-3.17844 4.88967,-4.8402 -0.0221,-0.35853 0.53186,-0.87459 0.039,-1.121" style="fill:none;stroke:#000000;stroke-width:1.04776;stroke-linecap:round;stroke-linejoin:round;stroke-miterlimit:10;stroke-dasharray:none;stroke-opacity:1" id="path226" />
         </g>
         <g id="g228" transform="scale(1,-1)" style="stroke-width:0.801233">
            <path d="m 885.586,-149.734 c -1.578,1.688 -1.98867,2.14914 -2.10288,4.33714 0.11359,1.058 0.55588,1.70886 0.89988,2.25586 1.82,2.102 3.91,1.34 6.121,0.004 0.461,-1.008 1.488,-2.023 1.387,-3.269 -0.606,-1.117 -1.442,-2.305 -2.387,-2.762 -0.965,-1.352 -3.918,-0.566 -3.918,-0.566 -0.086,0.136 0.121,0.168 -0.086,0.136" style="fill:none;stroke:#000000;stroke-width:1.04776;stroke-linecap:round;stroke-linejoin:round;stroke-miterlimit:10;stroke-dasharray:none;stroke-opacity:1" id="path230" sodipodi:nodetypes="cccccccc" />
         </g>
         <g id="g232" transform="scale(1,-1)" style="stroke-width:0.801233">
            <path d="m 885.707,-145 c 0.598,0.684 2.109,-2.254 3.051,-3.059 0.41,0.051 0.004,-0.242 -0.129,-0.179" style="fill:none;stroke:#000000;stroke-width:1.04776;stroke-linecap:round;stroke-linejoin:round;stroke-miterlimit:10;stroke-dasharray:none;stroke-opacity:1" id="path234" />
         </g>
         <g id="g236" transform="scale(1,-1)" style="stroke-width:0.801233">
            <path d="m 885.457,-147.168 c -0.391,-0.937 1.566,0.949 1.797,1.152 0.695,0.704 1.457,0.477 1.918,0.676" style="fill:none;stroke:#000000;stroke-width:1.04776;stroke-linecap:round;stroke-linejoin:round;stroke-miterlimit:10;stroke-dasharray:none;stroke-opacity:1" id="path238" />
         </g>
      </g>
   </g>
</svg>
