<?xml version="1.0" encoding="UTF-8" standalone="no"?>
<!-- Created by Ashley Blewer - This work is licensed under a Creative Commons Attribution 4.0 International License -->

<svg width="544" height="480" viewBox="0 0 143.93334 127" version="1.1" id="svg2490" inkscape:version="1.1.2 (08b2f3d93c, 2022-04-05)" sodipodi:docname="1961-2inch-helical-3.svg"
   xmlns:inkscape="http://www.inkscape.org/namespaces/inkscape"
   xmlns:sodipodi="http://sodipodi.sourceforge.net/DTD/sodipodi-0.dtd"
   xmlns="http://www.w3.org/2000/svg"
   xmlns:svg="http://www.w3.org/2000/svg">
   <sodipodi:namedview id="namedview2492" pagecolor="#ffffff" bordercolor="#666666" borderopacity="1.0" inkscape:pageshadow="2" inkscape:pageopacity="0.0" inkscape:pagecheckerboard="0" inkscape:document-units="mm" showgrid="false" units="px" inkscape:zoom="0.90583674" inkscape:cx="241.76542" inkscape:cy="251.14901" inkscape:window-width="1848" inkscape:window-height="1136" inkscape:window-x="72" inkscape:window-y="27" inkscape:window-maximized="1" inkscape:current-layer="layer1" />
   <defs id="defs2487" />
   <g inkscape:label="Layer 1" inkscape:groupmode="layer" id="layer1">
      <g id="g12801" transform="matrix(0.34280464,0,0,0.34266742,-270.0766,-115.60921)" style="stroke-width:1.15794">
         <g id="g240" transform="scale(1,-1)" style="stroke-width:1.15794">
            <path d="m 876.363,-419.746 c -7.42928,-6.99076 -2.8459,-18.38302 4.174,-23.72392 9.37485,-8.18767 22.22044,-10.07559 33.87377,-13.1349 30.887,-6.04502 62.55109,-3.88085 93.81333,-3.79309 39.0663,1.59144 78.0182,6.84003 115.9869,16.22591 8.1907,3.48795 16.149,13.82039 11.5056,22.76721 -5.9505,6.1081 -15.2112,7.27624 -22.8053,10.65038 -52.3337,17.90192 -108.9492,21.62015 -163.61782,14.66985 -22.54008,-3.63716 -44.75635,-9.90061 -65.76703,-18.80142 -2.93496,-1.55233 -5.75057,-3.34771 -8.31145,-5.46602" style="fill:none;stroke:#000000;stroke-width:3.02846;stroke-linecap:round;stroke-linejoin:round;stroke-miterlimit:10;stroke-dasharray:none;stroke-opacity:1" id="path242" sodipodi:nodetypes="cccsccccccccc" />
            <path d="m 889.273,-471.551 c -6.37101,-10.84969 -16.00275,-22.3789 -12.83807,-35.84767 31.63851,-29.77676 101.60089,-38.3357 137.10457,-35.84304 38.8005,5.28841 84.0683,13.62169 115.352,30.52945 9.0416,7.9909 3.9789,21.29123 -1.2896,29.98599 -2.1422,3.60608 -4.6213,7.02972 -6.3436,10.87127" style="fill:none;stroke:#000000;stroke-width:3.02846;stroke-linecap:round;stroke-linejoin:round;stroke-miterlimit:10;stroke-dasharray:none;stroke-opacity:1" id="path242-3" sodipodi:nodetypes="cccccc" />
            <path d="m 1114.733,-503.68694 c -19.2532,-13.32461 -43.1545,-17.01537 -65.6352,-21.47125 -29.5001,-2.25613 -59.2129,-3.13271 -88.78013,-1.80396 -23.44276,1.09949 -45.96326,8.94384 -65.07967,22.53619" style="fill:none;stroke:#000000;stroke-width:2.61538;stroke-linecap:round;stroke-linejoin:round;stroke-miterlimit:10;stroke-dasharray:none;stroke-opacity:1" id="path242-8" sodipodi:nodetypes="ccc" />
         </g>
         <g id="g244" transform="scale(1,-1)" style="stroke-width:1.15794">
            <path d="m 965.137,-407.008 c 0.914,-0.269 -1.973,0.633 -3.559,1.039 -1.558,0.594 -4.469,1.989 -3.965,2.203 3.5,1.743 9.742,3.262 14.297,3.754 8.07,0.953 28.27,1.297 28.27,1.297 0,0 10.066,-1.75 13.273,-2.246 -0.336,-0.187 2.477,-0.418 0.93,-0.383 0.683,0.121 -1.266,-0.929 -0.875,-0.75 -0.434,-0.281 -1.879,-0.801 -3.633,-0.035 -8.254,0.863 -16.516,0.457 -24.387,-0.59 -4.965,-0.617 -10.554,-0.914 -14.48,-2.519 -2.133,-0.684 -5.129,-1.563 -5.871,-1.77" style="fill:none;stroke:#000000;stroke-width:3.02846;stroke-linecap:round;stroke-linejoin:round;stroke-miterlimit:10;stroke-dasharray:none;stroke-opacity:1" id="path246" />
         </g>
         <g id="g248" transform="scale(1,-1)" style="stroke-width:1.15794">
            <path d="m 958.492,-413.73 c 4.91,1.418 10.731,2.64 16.262,2.718 8.402,1.211 16.453,1.625 24.699,3.09 8.289,-0.058 16.867,0.094 25.508,0.313 8.285,-1.188 17.008,-1.688 24.074,-3.649 1.613,-0.457 4.254,-1.539 5.36,-2.258 3.011,-1.238 9.3,-6.757 8.449,-9.8 -4.469,-5.043 -15.082,-7.055 -22.324,-8.106 -3.536,-0.605 -8.696,-1.14 -12.344,-1.75 -5.723,-1.074 -12.828,-1.156 -18.364,-1.746 -10.624,-1.793 -21.398,-1.105 -32.968,-0.664 -4.293,-0.055 -9.844,0.894 -13.645,1.453 -4.625,0.945 -8.793,2.309 -13.199,3.414 -2.285,0.781 -5.117,3.215 -6.117,4.11 -1.266,1.539 -0.754,1.855 -1.469,3.449 -0.789,1.558 1.191,3.086 1.727,4.445 1.765,3.035 6.582,4.824 10.601,5.375 3.117,0.25 5.731,1.688 8.27,1.77" style="fill:none;stroke:#000000;stroke-width:3.02846;stroke-linecap:round;stroke-linejoin:round;stroke-miterlimit:10;stroke-dasharray:none;stroke-opacity:1" id="path250" />
         </g>
         <g id="g252" transform="scale(1,-1)" style="stroke-width:1.15794">
            <path d="m 965.82,-415.941 c -2.496,0.359 -5.914,-1.848 -8.547,-3.914 -0.601,-1.141 -2.652,-3.477 -0.918,-5.36 1.313,-3.207 5.516,-5.078 9.348,-5.836 4.692,-0.73 8.043,-0.664 11.664,-1.164 2.281,-0.508 7.785,-0.84 11.324,-0.808 10.403,0.523 20.747,1.312 31.114,2.539 4.281,0.48 8.832,1.269 12.832,2.089 4.476,1.415 9.972,1.883 13.144,3.43 1.696,0.512 2.996,1.403 3.778,2.356 1.296,0.671 -0.536,1.289 -0.454,2 -1.574,1.789 -3.433,2.789 -6.027,4.293 -3.863,1.402 -7.48,2.925 -11.754,4.089 -9.578,3.254 -19.426,4.731 -29.84,4.059 -8.55,-0.629 -17.308,-1.383 -25.316,-2.82 -5.543,-0.664 -10.578,-3.106 -15.152,-4.188 -0.817,-0.504 -0.883,-0.969 -2.282,-1.332" style="fill:none;stroke:#000000;stroke-width:3.02846;stroke-linecap:round;stroke-linejoin:round;stroke-miterlimit:10;stroke-dasharray:none;stroke-opacity:1" id="path254" />
         </g>
         <g id="g256" transform="scale(1,-1)" style="stroke-width:1.15794">
            <path d="m 934.668,-425.18 c 0.594,0.235 -2.059,-0.992 -2.941,0.004 0.496,0.367 2.976,0.031 3.007,-0.121" style="fill:none;stroke:#000000;stroke-width:3.02846;stroke-linecap:round;stroke-linejoin:round;stroke-miterlimit:10;stroke-dasharray:none;stroke-opacity:1" id="path258" />
         </g>
         <g id="g260" transform="scale(1,-1)" style="stroke-width:1.15794">
            <path d="m 975.945,-440.363 c -2.226,0.066 -2.504,0.859 0.121,0.718 1.735,0.227 4.321,0.934 2.098,0.524 -0.348,0.062 -1.754,0.101 -1.68,-0.031" style="fill:none;stroke:#000000;stroke-width:3.02846;stroke-linecap:round;stroke-linejoin:round;stroke-miterlimit:10;stroke-dasharray:none;stroke-opacity:1" id="path262" />
         </g>
         <g id="g264" transform="scale(1,-1)" style="stroke-width:1.15794">
            <path d="m 1050.789,-435.988 c -0.586,-0.778 -3.062,0.519 -0.82,0.226 1.086,-0.027 5.742,0.832 4.379,0.641 -1.258,-0.004 -5.2,-0.133 -4.711,-0.609 0.058,0.019 0.875,-0.129 0.269,-0.067" style="fill:none;stroke:#000000;stroke-width:3.02846;stroke-linecap:round;stroke-linejoin:round;stroke-miterlimit:10;stroke-dasharray:none;stroke-opacity:1" id="path266" />
         </g>
         <g id="g268" transform="scale(1,-1)" style="stroke-width:1.15794">
            <path d="m 1066.816,-418.172 c -2.566,-0.336 1.008,0.149 2.235,-0.051 2.043,0.317 -4.66,-0.742 -2.289,-0.281 0.437,0.066 1.664,0.016 1.429,0.074" style="fill:none;stroke:#000000;stroke-width:3.02846;stroke-linecap:round;stroke-linejoin:round;stroke-miterlimit:10;stroke-dasharray:none;stroke-opacity:1" id="path270" />
         </g>
         <g id="g272" transform="scale(1,-1)" style="stroke-width:1.15794">
            <path d="m 1006.785,-442.898 c 4.856,0.398 8.774,0.878 13.914,1.418 6.25,0.328 12.074,-0.211 16.906,-2.711 -0.585,-0.438 2.75,-1.711 2.196,-2.59 1.16,-0.848 -0.453,-2.703 -0.778,-2.942 -2.886,-1.55 -6.445,-1.82 -9.816,-2.574 -8.23,-0.949 -16.043,-3.332 -23.949,-1.457 -1.852,0.774 -4.852,2.277 -5.559,3.524 -1.222,1.144 -0.676,1.382 -1.508,2.851 0.508,1.379 7.036,3.973 8.594,4.481" style="fill:none;stroke:#000000;stroke-width:3.02846;stroke-linecap:round;stroke-linejoin:round;stroke-miterlimit:10;stroke-dasharray:none;stroke-opacity:1" id="path274" />
         </g>
         <g id="g276" transform="scale(1,-1)" style="stroke-width:1.15794">
            <path d="m 1006.746,-447.578 c 0,0 4.387,0.297 6.344,0.199 5.683,0.656 13.687,0.793 18.226,1.125 l -0.109,0.016 -0.086,0.023" style="fill:none;stroke:#000000;stroke-width:3.02846;stroke-linecap:round;stroke-linejoin:round;stroke-miterlimit:10;stroke-dasharray:none;stroke-opacity:1" id="path278" />
         </g>
         <g id="g280" transform="scale(1,-1)" style="stroke-width:1.15794">
            <path d="m 893.977,-439.996 c 2.835,-1.984 9.609,-3.41 14.335,-3.613 2.168,-0.161 4.965,-0.723 6.774,-0.61" style="fill:none;stroke:#000000;stroke-width:3.02846;stroke-linecap:round;stroke-linejoin:round;stroke-miterlimit:10;stroke-dasharray:none;stroke-opacity:1" id="path282" />
         </g>
         <g id="g284" transform="scale(1,-1)" style="stroke-width:1.15794">
            <path d="m 1125.34,-426.008 c 0.414,0.301 -0.399,-2.414 -0.84,-4 -1.594,-2.562 -2.906,-5.551 -6.441,-6.301" style="fill:none;stroke:#000000;stroke-width:3.02846;stroke-linecap:round;stroke-linejoin:round;stroke-miterlimit:10;stroke-dasharray:none;stroke-opacity:1" id="path286" />
         </g>
         <g id="g288" transform="scale(1,-1)" style="stroke-width:1.15794">
            <path d="m 889.129,-448.965 c 0,0 -0.399,-23.019 6.109,-55.461" style="fill:none;stroke:#000000;stroke-width:3.02846;stroke-linecap:round;stroke-linejoin:round;stroke-miterlimit:10;stroke-dasharray:none;stroke-opacity:1" id="path290" />
         </g>
         <g id="g294" transform="scale(1,-1)" style="stroke-width:1.15794">
            <path d="m 889.273,-471.551 c -20.58763,-1.27402 -39.90227,-9.24645 -59.34738,-15.43166 -8.96773,-2.96155 -17.87955,-6.14031 -26.67697,-9.56744 -6.69571,-2.18509 -6.51952,-9.57762 -6.66079,-15.32279 -0.14189,-7.51883 1.3599,-14.94942 1.24836,-22.48002 0.39936,-10.90985 1.35907,-21.87421 3.74,-32.53761 1.35001,-1.66687 0.31692,-6.0559 3.12678,-6.05448" style="fill:none;stroke:#000000;stroke-width:3.02846;stroke-linecap:round;stroke-linejoin:round;stroke-miterlimit:10;stroke-dasharray:none;stroke-opacity:1" id="path296" />
         </g>
         <g id="g298" transform="scale(1,-1)" style="stroke-width:1.15794">
            <path d="m 1121.258,-471.855 c 7.656,-2.711 16.293,-4.903 24.629,-6.434 8.363,-2.457 16.187,-5.551 24.937,-7.012 0.375,-0.195 0.801,-0.254 1.184,-0.402" style="fill:none;stroke:#000000;stroke-width:3.02846;stroke-linecap:round;stroke-linejoin:round;stroke-miterlimit:10;stroke-dasharray:none;stroke-opacity:1" id="path300" />
         </g>
         <path d="m 1188.148,566.355 c 7.567,-2.39 6.11,-24.996 7.411,-34.753 2.976,-8.211 0.101,-21.622 -1.989,-5.864 -1.332,10.481 -0.918,21.18 -3.281,31.52" style="fill:#000000;fill-opacity:1;fill-rule:nonzero;stroke:none;stroke-width:1.15794" id="path302" />
         <g id="g304" transform="scale(1,-1)" style="stroke-width:1.15794">
            <path d="m 1029.008,-671.684 155.078,105.043 c 0.609,-0.007 3.926,3.211 3.297,1.133" style="fill:none;stroke:#000000;stroke-width:3.02846;stroke-linecap:round;stroke-linejoin:round;stroke-miterlimit:10;stroke-dasharray:none;stroke-opacity:1" id="path306" sodipodi:nodetypes="ccc" />
         </g>
         <path d="m 1010.594,586.941 c 12.316,-5.851 25.515,-15.113 38.851,-21.105 41.18,-20.961 87.782,-35.981 127.367,-60.024 -0.117,-6.71 -25.199,10.606 -35.128,14.278 -43.934,21.207 -89.786,39.121 -131.336,64.828" style="fill:#000000;fill-opacity:1;fill-rule:nonzero;stroke:none;stroke-width:1.15794" id="path308" />
         <g id="g310" transform="scale(1,-1)" style="stroke-width:1.15794">
            <path d="m 1010.754,-639.898 c 57.891,34.773 122.512,74.375 180.414,109.359 0,0 3.867,6.695 4.004,5.512" style="fill:none;stroke:#000000;stroke-width:3.02846;stroke-linecap:round;stroke-linejoin:round;stroke-miterlimit:10;stroke-dasharray:none;stroke-opacity:1" id="path312" sodipodi:nodetypes="ccc" />
         </g>
         <g id="g314" transform="scale(1,-1)" style="stroke-width:1.15794">
            <path d="m 896.98,-465.055 c 1.196,-8.695 2.461,-24.074 3.84,-32.828" style="fill:none;stroke:#000000;stroke-width:3.02846;stroke-linecap:round;stroke-linejoin:round;stroke-miterlimit:10;stroke-dasharray:none;stroke-opacity:1" id="path316" />
         </g>
         <g id="g318" transform="scale(1,-1)" style="stroke-width:1.15794">
            <path d="m 900.82,-497.883 c 29.571,-7.222 50.563,-10.012 73.914,-10.164" style="fill:none;stroke:#000000;stroke-width:3.02846;stroke-linecap:round;stroke-linejoin:round;stroke-miterlimit:10;stroke-dasharray:none;stroke-opacity:1" id="path320" />
         </g>
         <g id="g322" transform="scale(1,-1)" style="stroke-width:1.15794">
            <path d="m 974.734,-508.047 c -0.992,5.391 -1.632,16.527 -3.097,21.649 -0.356,5.066 -1.196,10.515 -0.481,15.707 0.016,0.769 -39.281,0.421 -74.176,5.636" style="fill:none;stroke:#000000;stroke-width:3.02846;stroke-linecap:round;stroke-linejoin:round;stroke-miterlimit:10;stroke-dasharray:none;stroke-opacity:1" id="path324" />
         </g>
         <g id="g326" transform="scale(1,-1)" style="stroke-width:1.15794">
            <path d="m 1028.777,-672.211 c -1.457,-0.461 -3.738,-1.453 -5.304,-2.559 -2.668,-1.441 -5.793,-2.699 -8.297,-4.125 -1.465,-0.882 -3.145,-2.164 -3.461,-2.246 -0.289,-0.066 0.012,-0.027 0.055,0.11" style="fill:none;stroke:#000000;stroke-width:3.02846;stroke-linecap:round;stroke-linejoin:round;stroke-miterlimit:10;stroke-dasharray:none;stroke-opacity:1" id="path328" />
         </g>
         <g id="g330" transform="scale(1,-1)" style="stroke-width:1.15794">
            <path d="m 1005.762,-587.695 c 0.73,-0.352 3.113,-1.102 2.676,-0.864 h -0.059" style="fill:none;stroke:#000000;stroke-width:3.02846;stroke-linecap:round;stroke-linejoin:round;stroke-miterlimit:10;stroke-dasharray:none;stroke-opacity:1" id="path332" />
         </g>
         <g id="g334" transform="scale(1,-1)" style="stroke-width:1.15794">
            <path d="m 1005.992,-587.379 c -1.203,0.254 4.875,-1 1.735,-0.129 -1.598,0.336 -2.95,0.903 -0.512,0.34 1.59,-0.394 1.223,-0.301 -0.242,0.027 -3.246,1.039 1.168,-0.382 2.226,-0.488" style="fill:none;stroke:#000000;stroke-width:3.02846;stroke-linecap:round;stroke-linejoin:round;stroke-miterlimit:10;stroke-dasharray:none;stroke-opacity:1" id="path336" />
         </g>
         <g id="g338" transform="scale(1,-1)" style="stroke-width:1.15794">
            <path d="m 1008.445,-588.586 c 0.434,0.707 3.508,2.984 2.93,2.227 -0.836,-0.891 -2.918,-2.27 -0.844,-0.852" style="fill:none;stroke:#000000;stroke-width:3.02846;stroke-linecap:round;stroke-linejoin:round;stroke-miterlimit:10;stroke-dasharray:none;stroke-opacity:1" id="path340" />
         </g>
         <g id="g342" transform="scale(1,-1)" style="stroke-width:1.15794">
            <path d="m 1173.617,-487.012 c 0.176,0.141 0.317,0.067 0.453,-0.027" style="fill:none;stroke:#000000;stroke-width:3.02846;stroke-linecap:round;stroke-linejoin:round;stroke-miterlimit:10;stroke-dasharray:none;stroke-opacity:1" id="path344" />
         </g>
         <g id="g346" transform="scale(1,-1)" style="stroke-width:1.15794">
            <path d="m 1166.602,-485.527 c -1.618,0.75 -4.094,1.191 -5.551,1.562 -0.613,0 0.898,-0.312 1.765,-0.426 8.711,-1.316 19.329,-5.945 27.899,-8.656 1.535,-0.922 4.207,-1.336 4.301,-1.394 0.613,-0.067 2.339,-1.157 2.082,-1.075 0.582,-1.324 -0.692,-3.734 -0.981,-5.609 -0.793,-3.359 -0.39,-6.707 -0.648,-9.82 -0.258,-3.317 -0.321,-6.102 -0.199,-8.934 -0.012,-1.246 -0.098,-5.148 -0.098,-5.148" style="fill:none;stroke:#000000;stroke-width:3.02846;stroke-linecap:round;stroke-linejoin:round;stroke-miterlimit:10;stroke-dasharray:none;stroke-opacity:1" id="path348" />
         </g>
         <g id="g350" transform="scale(1,-1)" style="stroke-width:1.15794">
            <path d="m 1174.93,-505.062 19.234,7.058 c 1.008,0.25 1.34,1.5 0.688,1.422 0.507,0.016 0.398,0.894 0.343,0.523" style="fill:none;stroke:#000000;stroke-width:3.02846;stroke-linecap:round;stroke-linejoin:round;stroke-miterlimit:10;stroke-dasharray:none;stroke-opacity:1" id="path352" />
         </g>
         <g id="g354" transform="scale(1,-1)" style="stroke-width:1.15794">
            <path d="m 1194.574,-530.336 c -0.328,-0.172 -3.054,-0.512 -2.429,-0.723 1.05,0.137 3.351,1.145 0.964,0.559 -1.183,-0.441 -0.902,-0.516 0.02,-0.418 -0.574,-0.668 0.758,-4.273 0.027,-1.723 -0.453,1.079 -0.668,1.676 0.051,0.348 1.051,-1.398 -0.988,1.441 -0.805,1.305 0.52,0.281 1.801,1.07 1.551,0.875" style="fill:none;stroke:#000000;stroke-width:3.02846;stroke-linecap:round;stroke-linejoin:round;stroke-miterlimit:10;stroke-dasharray:none;stroke-opacity:1" id="path356" />
         </g>
         <g id="g358" transform="scale(1,-1)" style="stroke-width:1.15794">
            <path d="m 1186.805,-565.488 c 0.5,0.019 3.679,2.101 3.531,2.265 -0.43,-0.375 -3.117,-1.695 -2.215,-1.414 0.168,0.254 1.567,0.617 1.051,0.707" style="fill:none;stroke:#000000;stroke-width:3.02846;stroke-linecap:round;stroke-linejoin:round;stroke-miterlimit:10;stroke-dasharray:none;stroke-opacity:1" id="path360" />
         </g>
         <g id="g362" transform="scale(1,-1)" style="stroke-width:1.15794">
            <path d="m 803.023,-573.961 c 0.442,-0.004 -0.105,-0.621 0.489,-1.477 0.371,-0.218 1.254,-1.203 1.765,-1.187" style="fill:none;stroke:#000000;stroke-width:3.02846;stroke-linecap:round;stroke-linejoin:round;stroke-miterlimit:10;stroke-dasharray:none;stroke-opacity:1" id="path364" />
         </g>
         <g id="g366" transform="scale(1,-1)" style="stroke-width:1.15794">
            <path d="m 804.227,-575.527 c -0.696,0.781 -1.262,2.632 -0.911,2.64 0.34,-0.82 0.93,-1.703 1.571,-2.367" style="fill:none;stroke:#000000;stroke-width:3.02846;stroke-linecap:round;stroke-linejoin:round;stroke-miterlimit:10;stroke-dasharray:none;stroke-opacity:1" id="path368" />
         </g>
         <g id="g370" transform="scale(1,-1)" style="stroke-width:1.15794">
            <path d="m 805.891,-574.871 c -0.602,0.973 -1.168,1.746 -1.504,2.812" style="fill:none;stroke:#000000;stroke-width:3.02846;stroke-linecap:round;stroke-linejoin:round;stroke-miterlimit:10;stroke-dasharray:none;stroke-opacity:1" id="path372" />
         </g>
         <g id="g374" transform="scale(1,-1)" style="stroke-width:1.15794">
            <path d="m 1120.4891,-496.52074 -5.7561,-7.1662" style="fill:none;stroke:#000000;stroke-width:3.02846;stroke-linecap:round;stroke-linejoin:round;stroke-miterlimit:10;stroke-dasharray:none;stroke-opacity:1" id="path376" sodipodi:nodetypes="cc" />
         </g>
         <g id="g378" style="stroke-width:1.15794">
            <path d="m 797.703,533.746 c 0,0 70.098,34.281 129.879,63.883 44.621,22.098 83.496,41.59 83.172,42.269" style="fill:none;stroke:#000000;stroke-width:3.02846;stroke-linecap:round;stroke-linejoin:round;stroke-miterlimit:10;stroke-dasharray:none;stroke-opacity:1" id="path380" />
         </g>
         <g id="g382" style="stroke-width:1.15794">
            <path d="m 798.641,499.629 c -1.215,3.336 209.804,88.957 209.804,88.957" style="fill:none;stroke:#000000;stroke-width:3.02846;stroke-linecap:round;stroke-linejoin:round;stroke-miterlimit:10;stroke-dasharray:none;stroke-opacity:1" id="path384" />
         </g>
         <g id="g386" style="stroke-width:1.15794">
            <path d="m 805.891,574.871 c -0.614,1.754 205.285,105.66 205.285,105.66" style="fill:none;stroke:#000000;stroke-width:3.02846;stroke-linecap:round;stroke-linejoin:round;stroke-miterlimit:10;stroke-dasharray:none;stroke-opacity:1" id="path388" />
         </g>
         <g id="g390" style="stroke-width:1.15794">
            <path d="m 1008.445,588.586 c 1.196,8.695 1.946,83.691 3.325,92.445" style="fill:none;stroke:#000000;stroke-width:3.02846;stroke-linecap:round;stroke-linejoin:round;stroke-miterlimit:10;stroke-dasharray:none;stroke-opacity:1" id="path392" />
            <path d="m 1118.3231,448.6984 c 1.196,8.695 0.787,39.06834 2.166,47.82234" style="fill:none;stroke:#000000;stroke-width:3.02846;stroke-linecap:round;stroke-linejoin:round;stroke-miterlimit:10;stroke-dasharray:none;stroke-opacity:1" id="path392-1" sodipodi:nodetypes="cc" />
         </g>
      </g>
   </g>
</svg>
