<?xml version="1.0" encoding="UTF-8" standalone="no"?>
<!-- Created by Ashley Blewer - This work is licensed under a Creative Commons Attribution 4.0 International License -->

<svg width="544" height="480" viewBox="0 0 143.93334 127" version="1.1" id="svg2490" inkscape:version="1.1.2 (08b2f3d93c, 2022-04-05)" sodipodi:docname="1965-type-a-4.svg"
   xmlns:inkscape="http://www.inkscape.org/namespaces/inkscape"
   xmlns:sodipodi="http://sodipodi.sourceforge.net/DTD/sodipodi-0.dtd"
   xmlns="http://www.w3.org/2000/svg"
   xmlns:svg="http://www.w3.org/2000/svg">
   <sodipodi:namedview id="namedview2492" pagecolor="#ffffff" bordercolor="#666666" borderopacity="1.0" inkscape:pageshadow="2" inkscape:pageopacity="0.0" inkscape:pagecheckerboard="0" inkscape:document-units="mm" showgrid="false" units="px" inkscape:zoom="0.90583674" inkscape:cx="272.67607" inkscape:cy="177.18425" inkscape:window-width="1848" inkscape:window-height="1136" inkscape:window-x="72" inkscape:window-y="27" inkscape:window-maximized="1" inkscape:current-layer="layer1" />
   <defs id="defs2487" />
   <g inkscape:label="Layer 1" inkscape:groupmode="layer" id="layer1">
      <g id="g4310" transform="matrix(0.4705255,0,0,0.4705255,-100.72243,-31.354074)">
         <g id="g62" transform="matrix(1,0,0,-1,0,792)">
            <g id="g64">
               <path d="m 360.10935,702.66829 c 1.33771,5.0281 1.70385,11.87635 3.2561,16.85645" style="fill:none;stroke:#000000;stroke-width:2.61538;stroke-linecap:round;stroke-linejoin:round;stroke-miterlimit:10;stroke-dasharray:none;stroke-opacity:1" id="path66" sodipodi:nodetypes="cc" />
            </g>
         </g>
         <g id="g68" transform="matrix(1,0,0,-1,0,792)">
            <g id="g70">
               <path d="m 363.36545,719.52474 c 7.10317,0.0223 14.58364,1.06574 21.69021,0.42222" style="fill:none;stroke:#000000;stroke-width:2.61538;stroke-linecap:round;stroke-linejoin:round;stroke-miterlimit:10;stroke-dasharray:none;stroke-opacity:1" id="path72" sodipodi:nodetypes="cc" />
            </g>
         </g>
         <g id="g74" transform="matrix(1,0,0,-1,0,792)">
            <g id="g76">
               <path d="m 385.05566,719.94696 c -0.0692,-4.71283 0.88532,-11.29373 0.80447,-16.00681" style="fill:none;stroke:#000000;stroke-width:2.61538;stroke-linecap:round;stroke-linejoin:round;stroke-miterlimit:10;stroke-dasharray:none;stroke-opacity:1" id="path78" sodipodi:nodetypes="cc" />
            </g>
         </g>
         <g id="g80" transform="matrix(1,0,0,-1,0,792)">
            <g id="g82">
               <path d="m 385.05566,719.94696 c -0.57447,0.0746 14.85963,-1.92598 21.39249,-3.04381" style="fill:none;stroke:#000000;stroke-width:2.61538;stroke-linecap:round;stroke-linejoin:round;stroke-miterlimit:10;stroke-dasharray:none;stroke-opacity:1" id="path84" sodipodi:nodetypes="cc" />
            </g>
         </g>
         <g id="g86" transform="matrix(1,0,0,-1,0,792)">
            <g id="g88">
               <path d="m 406.44815,716.90315 c 0.61115,-2.72678 0.86472,-7.679 1.12966,-10.48725" style="fill:none;stroke:#000000;stroke-width:2.61538;stroke-linecap:round;stroke-linejoin:round;stroke-miterlimit:10;stroke-dasharray:none;stroke-opacity:1" id="path90" sodipodi:nodetypes="cc" />
            </g>
         </g>
         <g id="g92" transform="matrix(1,0,0,-1,0,792)">
            <g id="g94">
               <path d="m 306.89847,699.44073 c 22.15598,0.89641 44.39728,0.2918 66.46767,2.78057 12.59853,0.98051 27.6265,4.27352 40.29569,4.2783" style="fill:none;stroke:#000000;stroke-width:2.61538;stroke-linecap:round;stroke-linejoin:round;stroke-miterlimit:10;stroke-dasharray:none;stroke-opacity:1" id="path96" sodipodi:nodetypes="ccc" />
            </g>
         </g>
         <g id="g98" transform="matrix(1,0,0,-1,0,792)">
            <g id="g100">
               <path d="m 411.83423,706.4248 c 22.08684,-1.11936 42.56466,-10.59326 64.09335,-14.77489 7.7353,-1.97627 21.22762,-5.0026 28.83233,-7.38226" style="fill:none;stroke:#000000;stroke-width:2.61538;stroke-linecap:round;stroke-linejoin:round;stroke-miterlimit:10;stroke-dasharray:none;stroke-opacity:1" id="path102" sodipodi:nodetypes="ccc" />
            </g>
         </g>
         <g id="g104" transform="matrix(1,0,0,-1,0,792)">
            <g id="g106">
               <path d="m 307.32596,696.95111 c 1.93012,-33.42012 -2.49196,-66.87497 -0.0947,-100.28367" style="fill:none;stroke:#000000;stroke-width:2.61538;stroke-linecap:round;stroke-linejoin:round;stroke-miterlimit:10;stroke-dasharray:none;stroke-opacity:1" id="path108" sodipodi:nodetypes="cc" />
            </g>
         </g>
         <g id="g110" transform="matrix(1,0,0,-1,0,792)">
            <g id="g112">
               <path d="m 308.34106,595.9328 c -1.11016,0.73464 105.57688,-7.34537 105.57688,-7.34537" style="fill:none;stroke:#000000;stroke-width:2.61538;stroke-linecap:round;stroke-linejoin:round;stroke-miterlimit:10;stroke-dasharray:none;stroke-opacity:1" id="path114" sodipodi:nodetypes="cc" />
            </g>
         </g>
         <g id="g116" transform="matrix(1,0,0,-1,0,792)">
            <g id="g118">
               <path d="m 415.03976,587.52838 0.60383,0.4184 2.86886,0.9259" style="fill:none;stroke:#000000;stroke-width:2.61538;stroke-linecap:round;stroke-linejoin:round;stroke-miterlimit:10;stroke-dasharray:none;stroke-opacity:1" id="path120" />
            </g>
         </g>
         <g id="g122" transform="matrix(1,0,0,-1,0,792)">
            <g id="g124">
               <path d="m 413.66183,706.4996 0.38932,-116.19865 0.0902,-0.35338" style="fill:none;stroke:#000000;stroke-width:2.61538;stroke-linecap:round;stroke-linejoin:round;stroke-miterlimit:10;stroke-dasharray:none;stroke-opacity:1" id="path126" sodipodi:nodetypes="ccc" />
            </g>
         </g>
         <g id="g128" transform="matrix(1,0,0,-1,0,792)">
            <g id="g130">
               <path d="m 306.89847,699.44073 c -0.88722,-30.88235 -1.68082,-73.21957 -0.54209,-104.08031 0.43085,-7.18648 0.71935,-14.40233 0.20492,-21.59277" style="fill:none;stroke:#000000;stroke-width:2.61538;stroke-linecap:round;stroke-linejoin:round;stroke-miterlimit:10;stroke-dasharray:none;stroke-opacity:1" id="path132" sodipodi:nodetypes="ccc" />
            </g>
         </g>
         <g id="g134" transform="matrix(1,0,0,-1,0,792)">
            <g id="g136">
               <path d="m 310.77216,592.95526 c 0.39981,-0.48316 0.617,-1.13858 0.49886,-1.7641" style="fill:none;stroke:#000000;stroke-width:2.61538;stroke-linecap:round;stroke-linejoin:round;stroke-miterlimit:10;stroke-dasharray:none;stroke-opacity:1" id="path138" />
            </g>
         </g>
         <g id="g140" transform="matrix(1,0,0,-1,0,792)">
            <g id="g142">
               <path d="m 309.94397,573.95337 c 0.79895,4.6473 0.28268,9.38877 0.76575,14.06199" style="fill:none;stroke:#000000;stroke-width:2.61538;stroke-linecap:round;stroke-linejoin:round;stroke-miterlimit:10;stroke-dasharray:none;stroke-opacity:1" id="path144" />
            </g>
         </g>
         <g id="g146" transform="matrix(1,0,0,-1,0,792)">
            <g id="g148">
               <path d="m 312.50668,589.69635 105.24698,-7.62791" style="fill:none;stroke:#000000;stroke-width:2.61538;stroke-linecap:round;stroke-linejoin:round;stroke-miterlimit:10;stroke-dasharray:none;stroke-opacity:1" id="path150" sodipodi:nodetypes="cc" />
            </g>
         </g>
         <g id="g152" transform="matrix(1,0,0,-1,0,792)">
            <g id="g154">
               <path d="m 418.51636,586.76184 c -0.31132,-31.4662 -0.71872,-62.93604 0.0767,-94.39743" style="fill:none;stroke:#000000;stroke-width:2.61538;stroke-linecap:round;stroke-linejoin:round;stroke-miterlimit:10;stroke-dasharray:none;stroke-opacity:1" id="path156" />
            </g>
         </g>
         <g id="g158" transform="matrix(1,0,0,-1,0,792)">
            <g id="g160">
               <path d="m 419.63464,490.48431 0.0891,0.25241 0.39527,-0.62197 0.86319,-2.99085 -0.082,-0.28659 0.90613,-1.8331 0.23315,-1.0495" style="fill:none;stroke:#000000;stroke-width:2.61538;stroke-linecap:round;stroke-linejoin:round;stroke-miterlimit:10;stroke-dasharray:none;stroke-opacity:1" id="path162" />
            </g>
         </g>
         <g id="g164" transform="matrix(1,0,0,-1,0,792)">
            <g id="g166">
               <path d="m 422.03948,483.95471 c -2.57636,-2.0283 -5.10556,-2.56105 -7.91956,-2.72621 -0.55759,-0.0453 -1.02418,0.23097 -1.48808,0.49214" style="fill:none;stroke:#000000;stroke-width:2.61538;stroke-linecap:round;stroke-linejoin:round;stroke-miterlimit:10;stroke-dasharray:none;stroke-opacity:1" id="path168" sodipodi:nodetypes="ccc" />
            </g>
         </g>
         <g id="g170" transform="matrix(1,0,0,-1,0,792)">
            <g id="g172">
               <path d="m 412.20801,481.45151 -0.31568,1.58014 -1.46795,4.39334 0.12332,-0.10709 0.0655,0.18335" style="fill:none;stroke:#000000;stroke-width:2.61538;stroke-linecap:round;stroke-linejoin:round;stroke-miterlimit:10;stroke-dasharray:none;stroke-opacity:1" id="path174" />
            </g>
         </g>
         <g id="g176" transform="matrix(1,0,0,-1,0,792)">
            <g id="g178">
               <path d="m 347.97894,498.26392 61.81147,-9.31988" style="fill:none;stroke:#000000;stroke-width:2.61538;stroke-linecap:round;stroke-linejoin:round;stroke-miterlimit:10;stroke-dasharray:none;stroke-opacity:1" id="path180" sodipodi:nodetypes="cc" />
            </g>
         </g>
         <g id="g182" transform="matrix(1,0,0,-1,0,792)">
            <g id="g184">
               <path d="m 411.33148,488.64978 3.17313,1.24628 4.68149,1.30725" style="fill:none;stroke:#000000;stroke-width:2.61538;stroke-linecap:round;stroke-linejoin:round;stroke-miterlimit:10;stroke-dasharray:none;stroke-opacity:1" id="path186" />
            </g>
         </g>
         <g id="g188" transform="matrix(1,0,0,-1,0,792)">
            <g id="g190">
               <path d="m 504.75991,684.26765 c 2.56232,-43.96963 0.16841,-123.79631 0.16841,-123.79631" style="fill:none;stroke:#000000;stroke-width:2.61538;stroke-linecap:round;stroke-linejoin:round;stroke-miterlimit:10;stroke-dasharray:none;stroke-opacity:1" id="path192" sodipodi:nodetypes="cc" />
            </g>
         </g>
         <g id="g194" transform="matrix(1,0,0,-1,0,792)">
            <g id="g196">
               <path d="m 503.70074,560.33771 c 0,0 0.40769,-14.15104 -0.0961,-14.57957" style="fill:none;stroke:#000000;stroke-width:2.61538;stroke-linecap:round;stroke-linejoin:round;stroke-miterlimit:10;stroke-dasharray:none;stroke-opacity:1" id="path198" sodipodi:nodetypes="cc" />
            </g>
         </g>
         <g id="g200" transform="matrix(1,0,0,-1,0,792)">
            <g id="g202">
               <path d="m 420.93228,487.67734 1.17856,-0.39356 2.52408,-0.22101 1.91971,-0.59555 6.4085,1.07268" style="fill:none;stroke:#000000;stroke-width:2.61538;stroke-linecap:round;stroke-linejoin:round;stroke-miterlimit:10;stroke-dasharray:none;stroke-opacity:1" id="path204" sodipodi:nodetypes="ccccc" />
            </g>
         </g>
         <g id="g206" transform="matrix(1,0,0,-1,0,792)">
            <g id="g208">
               <path d="M 430.74805,694.62476 428.6008,494.19151 c 0.64377,-2.58426 1.78865,-5.44798 4.36233,-6.65161" style="fill:none;stroke:#000000;stroke-width:2.61538;stroke-linecap:round;stroke-linejoin:round;stroke-miterlimit:10;stroke-dasharray:none;stroke-opacity:1" id="path210" sodipodi:nodetypes="ccc" />
            </g>
         </g>
         <g id="g212" transform="matrix(1,0,0,-1,0,792)">
            <g id="g214">
               <path d="m 432.96313,487.5399 71.0882,58.3839" style="fill:none;stroke:#000000;stroke-width:2.61538;stroke-linecap:round;stroke-linejoin:round;stroke-miterlimit:10;stroke-dasharray:none;stroke-opacity:1" id="path216" sodipodi:nodetypes="cc" />
            </g>
         </g>
         <g id="g218" transform="matrix(1,0,0,-1,0,792)">
            <g id="g220">
               <path d="m 430.74805,694.62476 c 22.39012,-6.26073 47.5031,-10.97293 70.29026,-15.43348" style="fill:none;stroke:#000000;stroke-width:2.61538;stroke-linecap:round;stroke-linejoin:round;stroke-miterlimit:10;stroke-dasharray:none;stroke-opacity:1" id="path222" sodipodi:nodetypes="cc" />
            </g>
         </g>
         <g id="g224" transform="matrix(1,0,0,-1,0,792)">
            <g id="g226">
               <path d="m 434.76617,681.27179 c 22.04986,-3.6174 44.09361,-7.39307 66.33112,-9.6861" style="fill:none;stroke:#000000;stroke-width:2.61538;stroke-linecap:round;stroke-linejoin:round;stroke-miterlimit:10;stroke-dasharray:none;stroke-opacity:1" id="path228" sodipodi:nodetypes="cc" />
            </g>
         </g>
         <g id="g230" transform="matrix(1,0,0,-1,0,792)">
            <g id="g232">
               <path d="m 304.28891,572.42517 6.47742,0.91028 1.19946,0.38574 7.82428,1.28027 4.16556,0.92719 13.86493,3.45746 9.89492,3.15112 2.0326,0.53632 0.10757,-0.18732" style="fill:none;stroke:#000000;stroke-width:2.61538;stroke-linecap:round;stroke-linejoin:round;stroke-miterlimit:10;stroke-dasharray:none;stroke-opacity:1" id="path234" />
            </g>
         </g>
         <g id="g236" transform="matrix(1,0,0,-1,0,792)">
            <g id="g238">
               <path d="m 349.85565,582.88623 c 15.24321,3.96349 35.08523,-9.48813 34.05748,-26.03128 0.0374,-12.38257 -4.86133,-27.6903 -15.46388,-35.42392" style="fill:none;stroke:#000000;stroke-width:2.61538;stroke-linecap:round;stroke-linejoin:round;stroke-miterlimit:10;stroke-dasharray:none;stroke-opacity:1" id="path240" sodipodi:nodetypes="ccc" />
            </g>
         </g>
         <g id="g242" transform="matrix(1,0,0,-1,0,792)">
            <g id="g244">
               <path d="m 343.56235,581.33183 c 12.21597,-2.39099 24.81527,-15.27963 27.85024,-26.9537 1.55152,-5.86936 1.54682,-11.9934 1.86402,-18.0124 -0.0127,-5.19292 -1.19643,-10.71746 -4.96945,-14.5291" style="fill:none;stroke:#000000;stroke-width:2.61538;stroke-linecap:round;stroke-linejoin:round;stroke-miterlimit:10;stroke-dasharray:none;stroke-opacity:1" id="path246" sodipodi:nodetypes="cccc" />
            </g>
         </g>
         <g id="g248" transform="matrix(1,0,0,-1,0,792)">
            <g id="g250">
               <path d="m 293.66608,573.51239 c 14.57927,0.42673 28.46533,-9.03986 34.27474,-22.2736 8.00131,-15.18313 8.7257,-34.68057 -0.005,-49.69215 -1.9687,-2.20924 -5.91964,-4.81975 -8.00058,-6.89884" style="fill:none;stroke:#000000;stroke-width:2.61538;stroke-linecap:round;stroke-linejoin:round;stroke-miterlimit:10;stroke-dasharray:none;stroke-opacity:1" id="path252" sodipodi:nodetypes="cccc" />
            </g>
         </g>
         <g id="g254" transform="matrix(1,0,0,-1,0,792)">
            <g id="g256">
               <path d="m 319.93524,494.6478 c -8.15447,-2.71216 -16.04523,-6.13402 -23.95833,-9.46761" style="fill:none;stroke:#000000;stroke-width:2.61538;stroke-linecap:round;stroke-linejoin:round;stroke-miterlimit:10;stroke-dasharray:none;stroke-opacity:1" id="path258" sodipodi:nodetypes="cc" />
            </g>
         </g>
         <g id="g260" transform="matrix(1,0,0,-1,0,792)">
            <g id="g262">
               <path d="m 293.66608,573.51239 c -5.56151,-1.95446 -13.40111,-3.2242 -19.08603,-4.72809 -2.81782,-0.86917 -5.92021,-0.31756 -8.6362,-1.47619 l -0.35263,-0.26523" style="fill:none;stroke:#000000;stroke-width:2.61538;stroke-linecap:round;stroke-linejoin:round;stroke-miterlimit:10;stroke-dasharray:none;stroke-opacity:1" id="path264" sodipodi:nodetypes="cccc" />
            </g>
         </g>
         <g id="g266" transform="matrix(1,0,0,-1,0,792)">
            <g id="g268">
               <path d="m 266.23862,567.62903 c -17.7579,-7.09361 -28.69799,-28.3194 -23.03252,-46.806 2.81662,-9.7586 7.30144,-19.47685 14.70165,-26.61338 9.02131,-8.49729 22.33879,-13.79681 34.64949,-10.31261 3.61805,1.12178 7.01126,3.0881 9.60217,5.87309" style="fill:none;stroke:#000000;stroke-width:2.61538;stroke-linecap:round;stroke-linejoin:round;stroke-miterlimit:10;stroke-dasharray:none;stroke-opacity:1" id="path270" />
            </g>
         </g>
         <g id="g272" transform="matrix(1,0,0,-1,0,792)">
            <g id="g274">
               <path d="m 276.14798,568.4707 c 12.94417,-2.54934 24.26342,-14.06781 29.28511,-25.62009 5.12171,-12.46828 6.91753,-26.74518 3.35845,-39.86809 -1.65909,-5.43812 -4.45355,-10.46921 -7.44448,-15.25784 -0.96267,-1.33713 -4.11572,-1.89251 -4.11572,-1.89251" style="fill:none;stroke:#000000;stroke-width:2.61538;stroke-linecap:round;stroke-linejoin:round;stroke-miterlimit:10;stroke-dasharray:none;stroke-opacity:1" id="path276" sodipodi:nodetypes="ccccc" />
            </g>
         </g>
         <g id="g278" transform="matrix(1,0,0,-1,0,792)">
            <g id="g280">
               <path d="m 290.81171,557.42053 c -8.13853,-5.82139 -8.72719,-17.27283 -6.49545,-26.19017 2.71864,-9.16243 8.38294,-18.89697 18.09861,-21.75262 1.99303,-0.42447 4.11335,-0.26967 6.00712,0.49262" style="fill:none;stroke:#000000;stroke-width:2.61538;stroke-linecap:round;stroke-linejoin:round;stroke-miterlimit:10;stroke-dasharray:none;stroke-opacity:1" id="path282" />
            </g>
         </g>
         <g id="g284" transform="matrix(1,0,0,-1,0,792)">
            <g id="g286">
               <path d="m 254.47767,497.15071 c 0.0641,-13.66633 11.5663,-27.37985 21.95502,-34.49879 6.04302,-5.86752 14.66433,0.12749 18.96332,5.25667 7.85531,8.44475 13.21791,19.12458 22.44542,26.29015" style="fill:none;stroke:#000000;stroke-width:2.61538;stroke-linecap:round;stroke-linejoin:round;stroke-miterlimit:10;stroke-dasharray:none;stroke-opacity:1" id="path288" sodipodi:nodetypes="cccc" />
            </g>
         </g>
         <g id="g290" transform="matrix(1,0,0,-1,0,792)">
            <g id="g292">
               <path d="m 368.44925,521.43103 c -12.24228,-11.34402 -21.89244,-25.11446 -33.49227,-37.03998 -0.28445,-0.22411 -0.5689,-0.44823 -0.85335,-0.67234" style="fill:none;stroke:#000000;stroke-width:2.61538;stroke-linecap:round;stroke-linejoin:round;stroke-miterlimit:10;stroke-dasharray:none;stroke-opacity:1" id="path294" />
            </g>
         </g>
         <g id="g296" transform="matrix(1,0,0,-1,0,792)">
            <g id="g298">
               <path d="m 286.06151,461.02722 c 0,0 31.27977,14.91539 48.04212,22.69149" style="fill:none;stroke:#000000;stroke-width:2.61538;stroke-linecap:round;stroke-linejoin:round;stroke-miterlimit:10;stroke-dasharray:none;stroke-opacity:1" id="path300" sodipodi:nodetypes="cc" />
            </g>
         </g>
         <g id="g302" transform="matrix(1,0,0,-1,0,792)">
            <g id="g304">
               <path d="m 329.07178,658.72382 c 1.69632,0.9116 1.7697,3.41028 2.8416,4.86343 0.38457,0.43374 0.0434,1.5783 0.63245,1.70465" style="fill:none;stroke:#000000;stroke-width:1.30769;stroke-linecap:round;stroke-linejoin:round;stroke-miterlimit:10;stroke-dasharray:none;stroke-opacity:1" id="path306" />
            </g>
         </g>
         <g id="g308" transform="matrix(1,0,0,-1,0,792)">
            <g id="g310">
               <path d="m 332.54583,665.2919 c 0.22224,0.21856 2.38446,-2.64078 2.80283,-3.30716 0.99504,-0.97878 1.45031,-2.67544 1.76949,-3.56396 l -0.12056,0.13891" style="fill:none;stroke:#000000;stroke-width:1.30769;stroke-linecap:round;stroke-linejoin:round;stroke-miterlimit:10;stroke-dasharray:none;stroke-opacity:1" id="path312" sodipodi:nodetypes="cccc" />
            </g>
         </g>
         <g id="g314" transform="matrix(1,0,0,-1,0,792)">
            <g id="g316">
               <path d="m 331.88071,660.88281 c 0.56953,0.42948 2.35993,0.42796 3.33676,0.65362" style="fill:none;stroke:#000000;stroke-width:1.30769;stroke-linecap:round;stroke-linejoin:round;stroke-miterlimit:10;stroke-dasharray:none;stroke-opacity:1" id="path318" />
            </g>
         </g>
         <g id="g320" transform="matrix(1,0,0,-1,0,792)">
            <g id="g322">
               <path d="m 340.95978,659.72723 c -0.23618,0.17478 0.51499,2.69627 0.0266,3.77594 0.11762,1.12333 -0.7355,2.9787 0.16375,3.77235" style="fill:none;stroke:#000000;stroke-width:1.30769;stroke-linecap:round;stroke-linejoin:round;stroke-miterlimit:10;stroke-dasharray:none;stroke-opacity:1" id="path324" />
            </g>
         </g>
         <g id="g326" transform="matrix(1,0,0,-1,0,792)">
            <g id="g328">
               <path d="m 341.15013,667.27552 c 1.49375,-0.85391 2.917,-3.13772 4.10206,-4.29804 0.38905,-0.816 1.27973,-1.95171 1.48851,-2.52025" style="fill:none;stroke:#000000;stroke-width:1.30769;stroke-linecap:round;stroke-linejoin:round;stroke-miterlimit:10;stroke-dasharray:none;stroke-opacity:1" id="path330" sodipodi:nodetypes="ccc" />
            </g>
         </g>
         <g id="g332" transform="matrix(1,0,0,-1,0,792)">
            <g id="g334">
               <path d="m 346.62338,660.37561 c 1.24581,1.07097 2.61189,3.12437 3.78824,4.62002 0.22069,0.60936 0.88756,0.70725 1.30701,1.12809" style="fill:none;stroke:#000000;stroke-width:1.30769;stroke-linecap:round;stroke-linejoin:round;stroke-miterlimit:10;stroke-dasharray:none;stroke-opacity:1" id="path336" />
            </g>
         </g>
         <g id="g338" transform="matrix(1,0,0,-1,0,792)">
            <g id="g340">
               <path d="m 351.71167,665.96344 c -0.1922,-1.42632 0.10653,-3.57786 0.0199,-5.26389 0.12437,-0.46623 0.18694,-0.95692 0.15102,-1.43923" style="fill:none;stroke:#000000;stroke-width:1.30769;stroke-linecap:round;stroke-linejoin:round;stroke-miterlimit:10;stroke-dasharray:none;stroke-opacity:1" id="path342" />
            </g>
         </g>
         <g id="g344" transform="matrix(1,0,0,-1,0,792)">
            <g id="g346">
               <path d="m 356.3475,666.47815 c 0.83316,-1.59103 0.46048,-3.38553 0.66171,-5.09467 0.19039,-0.60412 -0.0838,-1.31987 0.10364,-1.91223" style="fill:none;stroke:#000000;stroke-width:1.30769;stroke-linecap:round;stroke-linejoin:round;stroke-miterlimit:10;stroke-dasharray:none;stroke-opacity:1" id="path348" />
            </g>
         </g>
         <g id="g350" transform="matrix(1,0,0,-1,0,792)">
            <g id="g352">
               <path d="m 355.68295,666.76178 c 1.6347,-0.0931 3.35634,0.38296 5.00853,-0.0553 1.51976,-0.36228 3.45114,-1.1845 3.19125,-2.90736 -0.63327,-1.71344 -2.50908,-1.41519 -4.21459,-1.74609 -0.83448,-0.0322 -1.90862,-0.39556 -2.62713,0.1086" style="fill:none;stroke:#000000;stroke-width:1.30769;stroke-linecap:round;stroke-linejoin:round;stroke-miterlimit:10;stroke-dasharray:none;stroke-opacity:1" id="path354" />
            </g>
         </g>
         <g id="g356" transform="matrix(1,0,0,-1,0,792)">
            <g id="g358">
               <path d="m 373.41821,666.6994 c -1.45659,0.031 -4.63234,-1.1004 -6.0372,-0.56653" style="fill:none;stroke:#000000;stroke-width:1.30769;stroke-linecap:round;stroke-linejoin:round;stroke-miterlimit:10;stroke-dasharray:none;stroke-opacity:1" id="path360" sodipodi:nodetypes="cc" />
            </g>
         </g>
         <g id="g362" transform="matrix(1,0,0,-1,0,792)">
            <g id="g364">
               <path d="m 367.38101,666.13287 c 1.15318,-1.6053 0.159,-3.14147 0.21953,-4.85255 -0.002,-0.99396 0.12851,-1.67613 0.0427,-2.57394" style="fill:none;stroke:#000000;stroke-width:1.30769;stroke-linecap:round;stroke-linejoin:round;stroke-miterlimit:10;stroke-dasharray:none;stroke-opacity:1" id="path366" />
            </g>
         </g>
         <g id="g368" transform="matrix(1,0,0,-1,0,792)">
            <g id="g370">
               <path d="m 367.64324,658.70638 c 2.26214,0.85501 4.07762,0.63756 6.42594,0.67141 l 0.10616,0.13651 -0.14396,0.0509" style="fill:none;stroke:#000000;stroke-width:1.30769;stroke-linecap:round;stroke-linejoin:round;stroke-miterlimit:10;stroke-dasharray:none;stroke-opacity:1" id="path372" sodipodi:nodetypes="cccc" />
            </g>
         </g>
         <g id="g374" transform="matrix(1,0,0,-1,0,792)">
            <g id="g376">
               <path d="m 368.21051,662.9599 c 0.14407,0.50386 2.04105,-0.28819 2.90384,0.19035 0.83941,0.0553 1.68111,0.0384 2.5217,0.0479" style="fill:none;stroke:#000000;stroke-width:1.30769;stroke-linecap:round;stroke-linejoin:round;stroke-miterlimit:10;stroke-dasharray:none;stroke-opacity:1" id="path378" />
            </g>
         </g>
         <g id="g380" transform="matrix(1,0,0,-1,0,792)">
            <g id="g382">
               <path d="m 377.2384,667.11505 c 0.76883,-0.49295 3.17866,-1.44207 4.15953,-2.63816 1.14667,-1.03359 2.1943,-2.18458 3.43877,-3.09832" style="fill:none;stroke:#000000;stroke-width:1.30769;stroke-linecap:round;stroke-linejoin:round;stroke-miterlimit:10;stroke-dasharray:none;stroke-opacity:1" id="path384" />
            </g>
         </g>
         <g id="g386" transform="matrix(1,0,0,-1,0,792)">
            <g id="g388">
               <path d="m 384.12097,667.44501 c -0.83461,-1.10158 -1.6728,-2.85955 -3.00666,-3.77688 -1.5096,-0.99302 -2.64376,-2.12701 -3.9167,-3.35611 -0.26111,-0.24126 -0.43705,-0.71416 -0.7534,-0.20341" style="fill:none;stroke:#000000;stroke-width:1.30769;stroke-linecap:round;stroke-linejoin:round;stroke-miterlimit:10;stroke-dasharray:none;stroke-opacity:1" id="path390" />
            </g>
         </g>
         <g id="g392" transform="matrix(1,0,0,-1,0,792)">
            <g id="g394">
               <path d="m 355.83987,577.80194 c 2.38619,0.48062 4.62432,1.47082 6.82737,2.47325" style="fill:none;stroke:#000000;stroke-width:1.30769;stroke-linecap:round;stroke-linejoin:round;stroke-miterlimit:10;stroke-dasharray:none;stroke-opacity:1" id="path396" />
            </g>
         </g>
         <g id="g398" transform="matrix(1,0,0,-1,0,792)">
            <g id="g400">
               <path d="m 361.7439,574.46075 c 2.49449,0.19945 4.40616,2.23125 6.914,2.37298" style="fill:none;stroke:#000000;stroke-width:1.30769;stroke-linecap:round;stroke-linejoin:round;stroke-miterlimit:10;stroke-dasharray:none;stroke-opacity:1" id="path402" />
            </g>
         </g>
         <g id="g404" transform="matrix(1,0,0,-1,0,792)">
            <g id="g406">
               <path d="m 365.49758,572.03418 c 1.12179,0.86474 2.53713,1.21256 3.58835,2.11707 0.47008,0.054 0.91711,-0.01 1.28767,-0.3184 0.97282,-0.76637 1.87518,-2.6875 1.92407,-2.87705 0.36243,-0.0811 -0.35366,-0.47175 -0.46179,-0.62068 -1.16784,-0.85307 -2.73157,-1.19326 -3.97658,-1.62588 0.4423,-0.027 -0.41832,-0.10724 0,0 -1.14195,0.68499 -1.61599,2.40683 -2.36172,3.32494" style="fill:none;stroke:#000000;stroke-width:1.30769;stroke-linecap:round;stroke-linejoin:round;stroke-miterlimit:10;stroke-dasharray:none;stroke-opacity:1" id="path408" sodipodi:nodetypes="cccccccc" />
            </g>
         </g>
         <g id="g410" transform="matrix(1,0,0,-1,0,792)">
            <g id="g412">
               <path d="m 371.12888,564.63043 c 1.59006,2.11051 4.49134,1.86116 6.71898,2.74825" style="fill:none;stroke:#000000;stroke-width:1.30769;stroke-linecap:round;stroke-linejoin:round;stroke-miterlimit:10;stroke-dasharray:none;stroke-opacity:1" id="path414" />
            </g>
         </g>
         <g id="g416" transform="matrix(1,0,0,-1,0,792)">
            <g id="g418">
               <path d="m 373.36307,559.86914 c 1.53983,1.29331 3.59405,1.5141 5.46562,1.99194" style="fill:none;stroke:#000000;stroke-width:1.30769;stroke-linecap:round;stroke-linejoin:round;stroke-miterlimit:10;stroke-dasharray:none;stroke-opacity:1" id="path420" />
            </g>
         </g>
         <g id="g422" transform="matrix(1,0,0,-1,0,792)">
            <g id="g424">
               <path d="m 375.82257,553.64746 c 1.44645,1.64836 3.7166,0.6324 5.53764,1.13712" style="fill:none;stroke:#000000;stroke-width:1.30769;stroke-linecap:round;stroke-linejoin:round;stroke-miterlimit:10;stroke-dasharray:none;stroke-opacity:1" id="path426" />
            </g>
         </g>
         <g id="g428" transform="matrix(1,0,0,-1,0,792)">
            <g id="g430">
               <path d="m 377.10489,547.82007 c 1.42487,0.6476 2.96477,1.04878 4.52798,1.14915" style="fill:none;stroke:#000000;stroke-width:1.30769;stroke-linecap:round;stroke-linejoin:round;stroke-miterlimit:10;stroke-dasharray:none;stroke-opacity:1" id="path432" />
            </g>
         </g>
         <g id="g434" transform="matrix(1,0,0,-1,0,792)">
            <g id="g436">
               <path d="m 377.37204,541.89545 c 0.44274,0.15766 2.2172,0.77554 2.66169,0.92682" style="fill:none;stroke:#000000;stroke-width:1.30769;stroke-linecap:round;stroke-linejoin:round;stroke-miterlimit:10;stroke-dasharray:none;stroke-opacity:1" id="path438" />
            </g>
         </g>
         <g id="g440" transform="matrix(1,0,0,-1,0,792)">
            <g id="g442">
               <path d="m 375.98285,536.1001 c 0.61722,1.15893 2.1832,0.40637 3.09149,0.62156" style="fill:none;stroke:#000000;stroke-width:1.30769;stroke-linecap:round;stroke-linejoin:round;stroke-miterlimit:10;stroke-dasharray:none;stroke-opacity:1" id="path444" />
            </g>
         </g>
         <g id="g446" transform="matrix(1,0,0,-1,0,792)">
            <g id="g448">
               <path d="m 374.78067,531.39966 c 0.43677,0.15745 2.17025,0.81845 2.60022,0.99151" style="fill:none;stroke:#000000;stroke-width:1.30769;stroke-linecap:round;stroke-linejoin:round;stroke-miterlimit:10;stroke-dasharray:none;stroke-opacity:1" id="path450" />
            </g>
         </g>
         <g id="g452" transform="matrix(1,0,0,-1,0,792)">
            <g id="g454">
               <path d="m 333.3608,514.271 38.63651,16.24322" style="fill:none;stroke:#000000;stroke-width:1.30769;stroke-linecap:round;stroke-linejoin:round;stroke-miterlimit:10;stroke-dasharray:none;stroke-opacity:1" id="path456" sodipodi:nodetypes="cc" />
            </g>
         </g>
         <g id="g458" transform="matrix(1,0,0,-1,0,792)">
            <g id="g460">
               <path d="m 327.93582,501.54664 33.30786,12.3737" style="fill:none;stroke:#000000;stroke-width:1.30769;stroke-linecap:round;stroke-linejoin:round;stroke-miterlimit:10;stroke-dasharray:none;stroke-opacity:1" id="path462" sodipodi:nodetypes="cc" />
            </g>
         </g>
         <g id="g464" transform="matrix(1,0,0,-1,0,792)">
            <g id="g466">
               <path d="m 287.41855,558.57196 c -4.49922,-2.26414 -6.0104,-7.46707 -7.72115,-11.79923" style="fill:none;stroke:#000000;stroke-width:1.30769;stroke-linecap:round;stroke-linejoin:round;stroke-miterlimit:10;stroke-dasharray:none;stroke-opacity:1" id="path468" />
            </g>
         </g>
         <g id="g470" transform="matrix(1,0,0,-1,0,792)">
            <g id="g472">
               <path d="m 279.51587,544.77087 c -1.50936,-14.41461 5.63857,-30.25017 19.1689,-36.47514 1.28301,-0.4603 2.64394,-0.72208 4.00963,-0.70764" style="fill:none;stroke:#000000;stroke-width:1.30769;stroke-linecap:round;stroke-linejoin:round;stroke-miterlimit:10;stroke-dasharray:none;stroke-opacity:1" id="path474" />
            </g>
         </g>
         <g id="g476" transform="matrix(1,0,0,-1,0,792)">
            <g id="g478">
               <path d="m 432.97211,689.41534 -0.30243,0.0352 0.39013,0.0134 -0.2344,0.30572 -0.26972,-0.16015 -0.0125,-1.63562 0.44177,-0.40137 1.22812,-0.12689 0.34119,0.42267 -0.29068,0.075 0.24896,0.18988 -0.0623,0.49133 -0.3772,0.50745 -0.46924,0.22857 0.164,0.13355 -0.12808,0.0936 -0.46015,0.13556 -0.54003,-0.29724 0.26684,-0.0824 -0.23706,0.0139" style="fill:none;stroke:#000000;stroke-width:1.30769;stroke-linecap:round;stroke-linejoin:round;stroke-miterlimit:10;stroke-dasharray:none;stroke-opacity:1" id="path480" />
            </g>
         </g>
         <g id="g482" transform="matrix(1,0,0,-1,0,792)">
            <g id="g484">
               <path d="m 409.7446,577.60291 -0.64227,-0.12104 0.17901,-0.63983 -0.24335,-0.20825 0.73877,-1.03485 0.78586,-0.21832 0.5987,0.57275 0.47299,0.14575 -0.49439,0.98071 -1.13272,0.66724 -1.13348,-0.48743" style="fill:none;stroke:#000000;stroke-width:1.30769;stroke-linecap:round;stroke-linejoin:round;stroke-miterlimit:10;stroke-dasharray:none;stroke-opacity:1" id="path486" />
            </g>
         </g>
         <g id="g488" transform="matrix(1,0,0,-1,0,792)">
            <g id="g490">
               <path d="m 410.41815,501.91669 c -0.60576,0.31929 -1.26373,-0.29267 -1.355,-0.88316 -0.0254,-0.52608 0.0925,-1.06389 0.26762,-1.55803 0.31395,-0.71145 1.2234,-0.81675 1.89044,-0.62295 0.5168,0.18233 1.10282,0.31395 1.47912,0.74144 0.42005,0.43202 -0.0101,0.93079 -0.3776,1.19963 -0.33897,0.43067 -0.76897,0.94926 -1.3837,0.85878 -0.11868,0.003 -0.24043,0.0131 -0.35004,0.0624" style="fill:none;stroke:#000000;stroke-width:1.30769;stroke-linecap:round;stroke-linejoin:round;stroke-miterlimit:10;stroke-dasharray:none;stroke-opacity:1" id="path492" />
            </g>
         </g>
         <g id="g494" transform="matrix(1,0,0,-1,0,792)">
            <g id="g496">
               <path d="m 313.10666,584.79181 -0.92624,-0.18872 -0.66934,-0.77649 0.20178,-0.34088 -0.10297,-0.61951 0.48951,-0.479 -0.17591,-0.0953 1.59015,-0.78308 1.65314,0.0175 -0.0368,0.29876 0.36524,0.26136 0.33411,1.30322 -0.13849,0.51367 -0.64753,0.82282 -1.25662,0.21807 -0.81354,-0.1145" style="fill:none;stroke:#000000;stroke-width:1.30769;stroke-linecap:round;stroke-linejoin:round;stroke-miterlimit:10;stroke-dasharray:none;stroke-opacity:1" id="path498" />
            </g>
         </g>
         <g id="g500" transform="matrix(1,0,0,-1,0,792)">
            <g id="g502">
               <path d="m 499.97098,675.96637 0.19888,0.005 -0.18826,0.1413 -0.27387,-0.0573 0.20935,-0.0154 -0.15649,-0.44482 0.12906,-0.89185 1.47265,-0.5531 0.42997,0.33161 -0.51688,0.95208 -0.42206,0.3609 -1.07901,0.27985 0.15515,-0.18384" style="fill:none;stroke:#000000;stroke-width:1.30769;stroke-linecap:round;stroke-linejoin:round;stroke-miterlimit:10;stroke-dasharray:none;stroke-opacity:1" id="path504" />
            </g>
         </g>
         <g id="g506" transform="matrix(1,0,0,-1,0,792)">
            <g id="g508">
               <path d="m 431.65555,513.13513 c 0,0 46.0019,31.57866 68.85178,44.95709" style="fill:none;stroke:#000000;stroke-width:1.30769;stroke-linecap:round;stroke-linejoin:round;stroke-miterlimit:10;stroke-dasharray:none;stroke-opacity:1" id="path510" sodipodi:nodetypes="cc" />
            </g>
         </g>
         <g id="g512" transform="matrix(1,0,0,-1,0,792)">
            <g id="g514">
               <path d="m 436.7713,502.9801 c 0.36762,0.0594 0.0753,2.01442 0.34826,2.8761 -0.18109,1.44182 0.76906,2.52378 0.58772,3.92179 0.11081,0.63666 0.0399,1.7692 0.0728,2.02545 0.67151,-1.50088 0.67162,-3.30421 1.63316,-4.76956 -0.17758,-0.71487 1.45366,-2.97935 0.59822,-2.92174" style="fill:none;stroke:#000000;stroke-width:1.30769;stroke-linecap:round;stroke-linejoin:round;stroke-miterlimit:10;stroke-dasharray:none;stroke-opacity:1" id="path516" />
            </g>
         </g>
         <g id="g518" transform="matrix(1,0,0,-1,0,792)">
            <g id="g520">
               <path d="m 438.1265,504.90363 0.11315,0.27435 0.93418,0.5376" style="fill:none;stroke:#000000;stroke-width:1.30769;stroke-linecap:round;stroke-linejoin:round;stroke-miterlimit:10;stroke-dasharray:none;stroke-opacity:1" id="path522" />
            </g>
         </g>
         <g id="g524" transform="matrix(1,0,0,-1,0,792)">
            <g id="g526">
               <path d="m 442.0751,505.55127 c -0.24082,1.43634 -0.39966,2.86519 -0.70792,4.35972 -0.0367,0.89815 -0.7156,1.99467 -0.62016,2.49938 1.6623,-0.57538 1.49942,-2.6233 2.51604,-3.66825 -0.43893,0.89985 0.1294,2.22243 -0.2086,3.33572 0.0513,0.75862 -0.41585,2.58946 -0.0357,2.57806 0.84707,-0.91823 0.75765,-2.39178 1.0922,-3.58872 -0.15444,-1.06915 0.46547,-2.03654 0.7323,-3.05511" style="fill:none;stroke:#000000;stroke-width:1.30769;stroke-linecap:round;stroke-linejoin:round;stroke-miterlimit:10;stroke-dasharray:none;stroke-opacity:1" id="path528" />
            </g>
         </g>
         <g id="g530" transform="matrix(1,0,0,-1,0,792)">
            <g id="g532">
               <path d="m 446.26932,514.33026 c 0.2456,0.28011 0.28585,-1.75337 0.40375,-2.38462 -0.008,-1.23555 0.78091,-2.35889 0.79315,-3.49862" style="fill:none;stroke:#000000;stroke-width:1.30769;stroke-linecap:round;stroke-linejoin:round;stroke-miterlimit:10;stroke-dasharray:none;stroke-opacity:1" id="path534" />
            </g>
         </g>
         <g id="g536" transform="matrix(1,0,0,-1,0,792)">
            <g id="g538">
               <path d="m 446.10904,512.86969 c -0.91281,0.58028 0.87731,2.39538 1.51786,2.77891 1.55295,0.19923 0.1297,-2.11951 -0.0524,-2.72189 -0.19562,-0.11226 -0.39123,-0.22453 -0.58684,-0.33679" style="fill:none;stroke:#000000;stroke-width:1.30769;stroke-linecap:round;stroke-linejoin:round;stroke-miterlimit:10;stroke-dasharray:none;stroke-opacity:1" id="path540" />
            </g>
         </g>
         <g id="g542" transform="matrix(1,0,0,-1,0,792)">
            <g id="g544">
               <path d="m 449.87582,517.63818 c -0.16722,-1.42503 0.31567,-2.83538 -0.16606,-4.29705 -0.50261,-1.89702 1.63308,-1.60795 2.60748,-0.80317 -0.38742,5.7e-4 -0.27349,0.38461 -0.19769,0.60181" style="fill:none;stroke:#000000;stroke-width:1.30769;stroke-linecap:round;stroke-linejoin:round;stroke-miterlimit:10;stroke-dasharray:none;stroke-opacity:1" id="path546" />
            </g>
         </g>
         <g id="g548" transform="matrix(1,0,0,-1,0,792)">
            <g id="g550">
               <path d="m 450.52698,514.46777 c -0.91837,0.21521 0.97951,0.34762 0.72607,0.95496" style="fill:none;stroke:#000000;stroke-width:1.30769;stroke-linecap:round;stroke-linejoin:round;stroke-miterlimit:10;stroke-dasharray:none;stroke-opacity:1" id="path552" />
            </g>
         </g>
         <g id="g554" transform="matrix(1,0,0,-1,0,792)">
            <g id="g556">
               <path d="m 449.58197,517.33875 c -0.0995,0.82394 1.05563,1.03325 1.60811,1.33685" style="fill:none;stroke:#000000;stroke-width:1.30769;stroke-linecap:round;stroke-linejoin:round;stroke-miterlimit:10;stroke-dasharray:none;stroke-opacity:1" id="path558" />
            </g>
         </g>
         <g id="g560" transform="matrix(1,0,0,-1,0,792)">
            <g id="g562">
               <path d="m 452.29105,519.60394 c 0.18314,0.30006 1.23723,-1.33099 1.87613,-1.62804 0.5032,-0.90116 1.43029,-1.87413 1.61281,-2.83749" style="fill:none;stroke:#000000;stroke-width:1.30769;stroke-linecap:round;stroke-linejoin:round;stroke-miterlimit:10;stroke-dasharray:none;stroke-opacity:1" id="path564" />
            </g>
         </g>
         <g id="g566" transform="matrix(1,0,0,-1,0,792)">
            <g id="g568">
               <path d="m 454.24405,513.76086 c -0.81529,-0.19639 -0.007,1.60356 -0.23079,2.20749 0.25899,1.51319 0.77899,3.00846 0.8827,4.53401 -0.29898,0.29884 0.0848,1.91961 -0.15751,1.59146" style="fill:none;stroke:#000000;stroke-width:1.30769;stroke-linecap:round;stroke-linejoin:round;stroke-miterlimit:10;stroke-dasharray:none;stroke-opacity:1" id="path570" />
            </g>
         </g>
      </g>
   </g>
</svg>
