<?xml version="1.0" encoding="UTF-8" standalone="no"?>
<!-- Created by Ashley Blewer - This work is licensed under a Creative Commons Attribution 4.0 International License -->

<svg width="544" height="480" viewBox="0 0 143.93334 127" version="1.1" id="svg2490" inkscape:version="1.1.2 (08b2f3d93c, 2022-04-05)" sodipodi:docname="1965-type-a-3.svg"
   xmlns:inkscape="http://www.inkscape.org/namespaces/inkscape"
   xmlns:sodipodi="http://sodipodi.sourceforge.net/DTD/sodipodi-0.dtd"
   xmlns="http://www.w3.org/2000/svg"
   xmlns:svg="http://www.w3.org/2000/svg">
   <sodipodi:namedview id="namedview2492" pagecolor="#ffffff" bordercolor="#666666" borderopacity="1.0" inkscape:pageshadow="2" inkscape:pageopacity="0.0" inkscape:pagecheckerboard="0" inkscape:document-units="mm" showgrid="false" units="px" inkscape:zoom="2.5620932" inkscape:cx="-41.372422" inkscape:cy="177.00371" inkscape:window-width="1848" inkscape:window-height="1136" inkscape:window-x="72" inkscape:window-y="27" inkscape:window-maximized="1" inkscape:current-layer="g4053" />
   <defs id="defs2487" />
   <g inkscape:label="Layer 1" inkscape:groupmode="layer" id="layer1">
      <g id="g4053" transform="matrix(0.36483907,0,0,0.36483147,-261.75243,-135.84921)" style="stroke-width:1.15582">
         <g id="g1634" transform="matrix(1,0,0,-1,0,792)" style="stroke-width:1.15582">
            <g id="g1636" style="stroke-width:1.15582">
               <path d="m 734.46777,365.37897 c 0.17688,-0.62354 224.39325,-16.29804 224.39325,-16.29804" style="fill:none;stroke:#000000;stroke-width:3.02292;stroke-linecap:round;stroke-linejoin:round;stroke-miterlimit:10;stroke-dasharray:none;stroke-opacity:1" id="path1638" sodipodi:nodetypes="cc" />
            </g>
         </g>
         <g id="g1640" transform="matrix(1,0,0,-1,0,792)" style="stroke-width:1.15582">
            <g id="g1642" style="stroke-width:1.15582">
               <path d="m 958.86102,349.08093 -2.00317,-38.48498" style="fill:none;stroke:#000000;stroke-width:3.02292;stroke-linecap:round;stroke-linejoin:round;stroke-miterlimit:10;stroke-dasharray:none;stroke-opacity:1" id="path1644" sodipodi:nodetypes="cc" />
            </g>
         </g>
         <g id="g1646" transform="matrix(1,0,0,-1,0,792)" style="stroke-width:1.15582">
            <g id="g1648" style="stroke-width:1.15582">
               <path d="M 734.46777,365.37897 747.98023,129.3066" style="fill:none;stroke:#000000;stroke-width:3.02292;stroke-linecap:round;stroke-linejoin:round;stroke-miterlimit:10;stroke-dasharray:none;stroke-opacity:1" id="path1650" sodipodi:nodetypes="cc" />
            </g>
         </g>
         <g id="g1652" transform="matrix(1,0,0,-1,0,792)" style="stroke-width:1.15582">
            <g id="g1654" style="stroke-width:1.15582">
               <path d="m 734.46777,365.37897 -6.79319,-4.20723" style="fill:none;stroke:#000000;stroke-width:3.02292;stroke-linecap:round;stroke-linejoin:round;stroke-miterlimit:10;stroke-dasharray:none;stroke-opacity:1" id="path1656" sodipodi:nodetypes="cc" />
            </g>
         </g>
         <g id="g1658" transform="matrix(1,0,0,-1,0,792)" style="stroke-width:1.15582">
            <g id="g1660" style="stroke-width:1.15582">
               <path d="m 727.67458,361.17174 c -0.63849,0.28705 16.25077,-227.732 16.25077,-227.732" style="fill:none;stroke:#000000;stroke-width:3.02292;stroke-linecap:round;stroke-linejoin:round;stroke-miterlimit:10;stroke-dasharray:none;stroke-opacity:1" id="path1662" sodipodi:nodetypes="cc" />
            </g>
         </g>
         <g id="g1664" transform="matrix(1,0,0,-1,0,792)" style="stroke-width:1.15582">
            <g id="g1666" style="stroke-width:1.15582">
               <path d="m 743.92535,133.43974 c -0.25038,-0.96417 0.80871,-1.63001 1.49497,-2.10074 0.98855,-0.65193 1.77709,-1.53864 2.55186,-2.42264 l 0.004,0.19497 0.004,0.19497" style="fill:none;stroke:#000000;stroke-width:3.02292;stroke-linecap:round;stroke-linejoin:round;stroke-miterlimit:10;stroke-dasharray:none;stroke-opacity:1" id="path1668" sodipodi:nodetypes="ccccc" />
            </g>
         </g>
         <g id="g1670" transform="matrix(1,0,0,-1,0,792)" style="stroke-width:1.15582">
            <g id="g1672" style="stroke-width:1.15582">
               <path d="m 747.97223,128.91666 189.93353,37.61202" style="fill:none;stroke:#000000;stroke-width:3.02292;stroke-linecap:round;stroke-linejoin:round;stroke-miterlimit:10;stroke-dasharray:none;stroke-opacity:1" id="path1674" sodipodi:nodetypes="cc" />
            </g>
         </g>
         <g id="g1676" transform="matrix(1,0,0,-1,0,792)" style="stroke-width:1.15582">
            <g id="g1678" style="stroke-width:1.15582">
               <path d="m 816.76257,347.26968 c -3.04888,-66.13982 4.29108,-128.36811 4.25933,-189.71645 l -0.11533,0.95191 -0.0231,0.19072" style="fill:none;stroke:#000000;stroke-width:3.02292;stroke-linecap:round;stroke-linejoin:round;stroke-miterlimit:10;stroke-dasharray:none;stroke-opacity:1" id="path1680" sodipodi:nodetypes="cccc" />
            </g>
         </g>
         <g id="g1682" transform="matrix(1,0,0,-1,0,792)" style="stroke-width:1.15582">
            <g id="g1684" style="stroke-width:1.15582">
               <path d="m 816.76257,347.26968 c 0,0 133.33164,-3.39894 133.59876,-3.22236 l -0.22452,-0.14838 -0.0426,-0.0282" style="fill:none;stroke:#000000;stroke-width:3.02292;stroke-linecap:round;stroke-linejoin:round;stroke-miterlimit:10;stroke-dasharray:none;stroke-opacity:1" id="path1686" sodipodi:nodetypes="cccc" />
            </g>
         </g>
         <g id="g1688" transform="matrix(1,0,0,-1,0,792)" style="stroke-width:1.15582">
            <g id="g1690" style="stroke-width:1.15582">
               <path d="m 950.36133,344.04732 -1.76034,-38.04801" style="fill:none;stroke:#000000;stroke-width:3.02292;stroke-linecap:round;stroke-linejoin:round;stroke-miterlimit:10;stroke-dasharray:none;stroke-opacity:1" id="path1692" sodipodi:nodetypes="cc" />
            </g>
         </g>
         <g id="g1694" transform="matrix(1,0,0,-1,0,792)" style="stroke-width:1.15582">
            <g id="g1696" style="stroke-width:1.15582">
               <path d="m 816.79943,283.29633 c 39.73945,1.07627 111.90128,1.09484 111.90128,1.09484" style="fill:none;stroke:#000000;stroke-width:3.02292;stroke-linecap:round;stroke-linejoin:round;stroke-miterlimit:10;stroke-dasharray:none;stroke-opacity:1" id="path1698" sodipodi:nodetypes="cc" />
            </g>
         </g>
         <g id="g1700" transform="matrix(1,0,0,-1,0,792)" style="stroke-width:1.15582">
            <g id="g1702" style="stroke-width:1.15582">
               <path d="m 821.0219,157.55323 110.87463,18.45845" style="fill:none;stroke:#000000;stroke-width:3.02292;stroke-linecap:round;stroke-linejoin:round;stroke-miterlimit:10;stroke-dasharray:none;stroke-opacity:1" id="path1704" sodipodi:nodetypes="cc" />
            </g>
         </g>
         <g id="g1706" transform="matrix(1,0,0,-1,0,792)" style="stroke-width:1.15582">
            <g id="g1708" style="stroke-width:1.15582">
               <path d="m 956.85785,310.59595 c -45.62297,-25.00204 -49.21085,-89.46758 -27.068,-131.38352 20.07577,-33.70552 54.50736,-52.56211 95.88905,-42.66672 54.6467,11.83202 91.9596,64.93815 73.3325,129.27151 -21.4633,61.22958 -110.16619,80.05867 -156.39513,34.27185" style="fill:none;stroke:#000000;stroke-width:3.02292;stroke-linecap:round;stroke-linejoin:round;stroke-miterlimit:10;stroke-dasharray:none;stroke-opacity:1" id="path1710" sodipodi:nodetypes="ccccc" />
            </g>
         </g>
         <g id="g1712" transform="matrix(1,0,0,-1,0,792)" style="stroke-width:1.15582">
            <g id="g1714" style="stroke-width:1.15582">
               <path d="m 1023.2502,297.89645 c 0.1105,-3.39975 1.0748,-6.7964 0.4244,-10.19937" style="fill:none;stroke:#000000;stroke-width:3.02292;stroke-linecap:round;stroke-linejoin:round;stroke-miterlimit:10;stroke-dasharray:none;stroke-opacity:1" id="path1716" />
            </g>
         </g>
         <g id="g1718" transform="matrix(1,0,0,-1,0,792)" style="stroke-width:1.15582">
            <g id="g1720" style="stroke-width:1.15582">
               <path d="m 1023.2927,298.01553 c 10.944,3.16646 22.0807,-0.49107 30.8138,-7.02813 l -0.6997,-0.64374" style="fill:none;stroke:#000000;stroke-width:3.02292;stroke-linecap:round;stroke-linejoin:round;stroke-miterlimit:10;stroke-dasharray:none;stroke-opacity:1" id="path1722" sodipodi:nodetypes="ccc" />
            </g>
         </g>
         <g id="g1724" transform="matrix(1,0,0,-1,0,792)" style="stroke-width:1.15582">
            <g id="g1726" style="stroke-width:1.15582">
               <path d="m 1054.0974,290.46099 c -2.8633,-2.7804 -2.7198,-8.11966 -6.735,-9.60868" style="fill:none;stroke:#000000;stroke-width:3.02292;stroke-linecap:round;stroke-linejoin:round;stroke-miterlimit:10;stroke-dasharray:none;stroke-opacity:1" id="path1728" sodipodi:nodetypes="cc" />
            </g>
         </g>
         <g id="g1730" transform="matrix(1,0,0,-1,0,792)" style="stroke-width:1.15582">
            <g id="g1732" style="stroke-width:1.15582">
               <path d="m 1023.8003,287.04838 c 7.4431,1.5876 16.7942,-1.73766 22.7399,-6.17817" style="fill:none;stroke:#000000;stroke-width:3.02292;stroke-linecap:round;stroke-linejoin:round;stroke-miterlimit:10;stroke-dasharray:none;stroke-opacity:1" id="path1734" sodipodi:nodetypes="cc" />
            </g>
         </g>
         <g id="g1736" transform="matrix(1,0,0,-1,1.7337177,788.5325)" style="stroke-width:1.15582">
            <g id="g1738" style="stroke-width:1.15582">
               <path d="m 962.92828,289.52142 c 6.92729,-5.3018 14.76814,-12.94984 18.96206,-19.94611" style="fill:none;stroke:#000000;stroke-width:3.02292;stroke-linecap:round;stroke-linejoin:round;stroke-miterlimit:10;stroke-dasharray:none;stroke-opacity:1" id="path1740" sodipodi:nodetypes="cc" />
            </g>
         </g>
         <g id="g1742" transform="matrix(1,0,0,-1,1.7337177,788.5325)" style="stroke-width:1.15582">
            <g id="g1744" style="stroke-width:1.15582">
               <path d="m 981.63586,269.49444 c -7.90432,-4.83329 -18.65593,-18.84814 -23.65567,-4.01651 -3.07531,4.48246 -6.1577,9.03246 -10.15586,12.76115" style="fill:none;stroke:#000000;stroke-width:3.02292;stroke-linecap:round;stroke-linejoin:round;stroke-miterlimit:10;stroke-dasharray:none;stroke-opacity:1" id="path1746" sodipodi:nodetypes="ccc" />
            </g>
         </g>
         <g id="g1748" transform="matrix(1,0,0,-1,1.7337177,790.26625)" style="stroke-width:1.15582">
            <g id="g1750" style="stroke-width:1.15582">
               <path d="M 962.92828,289.52142 947.82433,278.23908" style="fill:none;stroke:#000000;stroke-width:3.02292;stroke-linecap:round;stroke-linejoin:round;stroke-miterlimit:10;stroke-dasharray:none;stroke-opacity:1" id="path1752" sodipodi:nodetypes="cc" />
            </g>
         </g>
         <g id="g1754" transform="matrix(1,0,0,-1,1.7337177,788.5325)" style="stroke-width:1.15582">
            <g id="g1756" style="stroke-width:1.15582">
               <path d="m 1051.0936,241.15086 c 5.1948,-6.04698 7.2643,-13.33607 3.7671,-20.3299" style="fill:none;stroke:#000000;stroke-width:3.02292;stroke-linecap:round;stroke-linejoin:round;stroke-miterlimit:10;stroke-dasharray:none;stroke-opacity:1" id="path1758" sodipodi:nodetypes="cc" />
            </g>
         </g>
         <g id="g1760" transform="matrix(1,0,0,-1,1.7337177,788.5325)" style="stroke-width:1.15582">
            <g id="g1762" style="stroke-width:1.15582">
               <path d="m 1054.3728,220.14327 c 9.6024,2.8622 21.4146,1.21263 31.2664,-0.19863" style="fill:none;stroke:#000000;stroke-width:3.02292;stroke-linecap:round;stroke-linejoin:round;stroke-miterlimit:10;stroke-dasharray:none;stroke-opacity:1" id="path1764" sodipodi:nodetypes="cc" />
            </g>
         </g>
         <g id="g1766" transform="matrix(1,0,0,-1,1.7337177,788.5325)" style="stroke-width:1.15582">
            <g id="g1768" style="stroke-width:1.15582">
               <path d="m 1085.6392,219.94464 c 0.1039,7.35476 1.2326,19.50879 -2.9569,23.22215" style="fill:none;stroke:#000000;stroke-width:3.02292;stroke-linecap:round;stroke-linejoin:round;stroke-miterlimit:10;stroke-dasharray:none;stroke-opacity:1" id="path1770" sodipodi:nodetypes="cc" />
            </g>
         </g>
         <g id="g1772" transform="matrix(1,0,0,-1,1.7337177,788.5325)" style="stroke-width:1.15582">
            <g id="g1774" style="stroke-width:1.15582">
               <path d="m 1082.6424,242.69559 c -10.3442,-0.9537 -21.2081,1.28054 -31.2297,-1.8326" style="fill:none;stroke:#000000;stroke-width:3.02292;stroke-linecap:round;stroke-linejoin:round;stroke-miterlimit:10;stroke-dasharray:none;stroke-opacity:1" id="path1776" sodipodi:nodetypes="cc" />
            </g>
         </g>
         <g id="g1778" transform="matrix(1,0,0,-1,1.7337177,788.5325)" style="stroke-width:1.15582">
            <g id="g1780" style="stroke-width:1.15582">
               <path d="m 975.20313,187.23306 0.0276,0.3199 0.2497,-0.0439 1.07568,-0.95021 3.07855,-1.60104 6.76716,-2.70774 1.36029,-0.40194 1.91595,0.0371 1.68677,-0.45104 0.79236,0.0142 0.12738,0.0778 -0.25458,0.0402 1.16125,-0.18223" style="fill:none;stroke:#000000;stroke-width:3.02292;stroke-linecap:round;stroke-linejoin:round;stroke-miterlimit:10;stroke-dasharray:none;stroke-opacity:1" id="path1782" />
            </g>
         </g>
         <g id="g1784" transform="matrix(1,0,0,-1,0,790.26625)" style="stroke-width:1.15582">
            <g id="g1786" style="stroke-width:1.15582">
               <path d="M 993.98517,180.64252 983.28233,154.98466" style="fill:none;stroke:#000000;stroke-width:3.02292;stroke-linecap:round;stroke-linejoin:round;stroke-miterlimit:10;stroke-dasharray:none;stroke-opacity:1" id="path1788" sodipodi:nodetypes="cc" />
            </g>
         </g>
         <g id="g1790" transform="matrix(1,0,0,-1,0,790.26625)" style="stroke-width:1.15582">
            <g id="g1792" style="stroke-width:1.15582">
               <path d="m 983.13538,154.58322 c -8.85685,-1.26221 -18.26593,6.63629 -18.26593,6.63629" style="fill:none;stroke:#000000;stroke-width:3.02292;stroke-linecap:round;stroke-linejoin:round;stroke-miterlimit:10;stroke-dasharray:none;stroke-opacity:1" id="path1794" sodipodi:nodetypes="cc" />
            </g>
         </g>
         <g id="g1796" transform="matrix(1,0,0,-1,0,792)" style="stroke-width:1.15582">
            <g id="g1798" style="stroke-width:1.15582">
               <path d="m 964.86945,161.21951 c 0,0 10.36128,26.33345 11.5387,26.1158 0.28487,0.11767 0.45621,0.34913 0.63909,0.56918" style="fill:none;stroke:#000000;stroke-width:3.02292;stroke-linecap:round;stroke-linejoin:round;stroke-miterlimit:10;stroke-dasharray:none;stroke-opacity:1" id="path1800" sodipodi:nodetypes="ccc" />
            </g>
         </g>
         <g id="g1802" transform="matrix(1,0,0,-1,1.7337177,788.5325)" style="stroke-width:1.15582">
            <g id="g1804" style="stroke-width:1.15582">
               <path d="m 977.43268,262.19623 c 18.8153,10.56226 46.56402,11.08769 60.51522,-7.67116 11.3014,-13.42192 13.822,-34.26176 2.8968,-48.70062 -10.1057,-17.02483 -30.5153,-29.77543 -50.63986,-23.25896 -20.4538,4.75909 -30.85524,26.55476 -32.39092,45.8455 -1.01656,13.70596 6.35595,27.69882 19.30049,33.08532 3.09096,1.76526 -2.69615,-2.34731 0,0" style="fill:none;stroke:#000000;stroke-width:3.02292;stroke-linecap:round;stroke-linejoin:round;stroke-miterlimit:10;stroke-dasharray:none;stroke-opacity:1" id="path1806" sodipodi:nodetypes="ccccccc" />
            </g>
         </g>
         <g id="g1808" transform="matrix(1,0,0,-1,1.7337177,788.5325)" style="stroke-width:1.15582">
            <g id="g1810" style="stroke-width:1.15582">
               <path d="m 984.57428,250.26421 c 11.36301,5.5201 26.18202,8.7893 37.00092,0.27592 11.0722,-7.24934 13.4177,-22.15742 9.8637,-34.1122 -2.4292,-11.77451 -12.8825,-20.44706 -24.6955,-21.47031 -13.4681,-2.71984 -28.96301,3.92092 -33.47325,17.58842 -4.14046,10.59551 -6.45553,25.71986 4.45999,33.15464 3.88779,2.98386 8.42992,5.01555 13.08947,6.46171" style="fill:none;stroke:#000000;stroke-width:3.02292;stroke-linecap:round;stroke-linejoin:round;stroke-miterlimit:10;stroke-dasharray:none;stroke-opacity:1" id="path1812" />
            </g>
         </g>
         <g id="g1814" transform="matrix(1,0,0,-1,1.7337177,788.5325)" style="stroke-width:1.15582">
            <g id="g1816" style="stroke-width:1.15582">
               <path d="m 981.99323,248.03964 c -4.00733,-8.11838 -7.71385,-17.29266 -4.92608,-26.42383 0.90302,-7.01327 7.10714,-11.3826 13.27148,-13.6005 l 0.31737,0.24851" style="fill:none;stroke:#000000;stroke-width:3.02292;stroke-linecap:round;stroke-linejoin:round;stroke-miterlimit:10;stroke-dasharray:none;stroke-opacity:1" id="path1818" />
            </g>
         </g>
         <g id="g1820" transform="matrix(1,0,0,-1,1.7337177,788.5325)" style="stroke-width:1.15582">
            <g id="g1822" style="stroke-width:1.15582">
               <path d="m 991.44385,206.79971 c -0.64067,-0.9075 -1.86215,-1.49528 -1.77377,-2.86025 -0.0328,-1.28173 1.59832,-1.74934 2.51951,-2.18116 1.5065,-0.20256 2.92363,0.53633 4.06998,1.43109 0.59832,0.78214 0.0316,1.89243 0.0727,2.77259" style="fill:none;stroke:#000000;stroke-width:3.02292;stroke-linecap:round;stroke-linejoin:round;stroke-miterlimit:10;stroke-dasharray:none;stroke-opacity:1" id="path1824" />
            </g>
         </g>
         <g id="g1826" transform="matrix(1,0,0,-1,1.7337177,788.5325)" style="stroke-width:1.15582">
            <g id="g1828" style="stroke-width:1.15582">
               <path d="m 997.20154,204.55061 c 5.23126,-3.89193 12.21596,-0.96842 17.91646,0.19797 6.8077,1.79479 11.9166,6.96617 16.1489,12.29291 1.3535,2.01011 1.7558,7.88105 1.553,7.9455" style="fill:none;stroke:#000000;stroke-width:3.02292;stroke-linecap:round;stroke-linejoin:round;stroke-miterlimit:10;stroke-dasharray:none;stroke-opacity:1" id="path1830" sodipodi:nodetypes="cccc" />
            </g>
         </g>
      </g>
   </g>
</svg>
