<?xml version="1.0" encoding="UTF-8" standalone="no"?>
<!-- Created by Ashley Blewer - This work is licensed under a Creative Commons Attribution 4.0 International License -->

<svg width="544" height="480" viewBox="0 0 143.93334 127" version="1.1" id="svg2490" inkscape:version="1.1.2 (08b2f3d93c, 2022-04-05)" sodipodi:docname="1965-type-a-2.svg"
   xmlns:inkscape="http://www.inkscape.org/namespaces/inkscape"
   xmlns:sodipodi="http://sodipodi.sourceforge.net/DTD/sodipodi-0.dtd"
   xmlns="http://www.w3.org/2000/svg"
   xmlns:svg="http://www.w3.org/2000/svg">
   <sodipodi:namedview id="namedview2492" pagecolor="#ffffff" bordercolor="#666666" borderopacity="1.0" inkscape:pageshadow="2" inkscape:pageopacity="0.0" inkscape:pagecheckerboard="0" inkscape:document-units="mm" showgrid="false" units="px" inkscape:zoom="0.90583674" inkscape:cx="241.76542" inkscape:cy="251.14901" inkscape:window-width="1848" inkscape:window-height="1136" inkscape:window-x="72" inkscape:window-y="27" inkscape:window-maximized="1" inkscape:current-layer="layer1" />
   <defs id="defs2487" />
   <g inkscape:label="Layer 1" inkscape:groupmode="layer" id="layer1">
      <g id="g3952" transform="matrix(0.35363605,0,0,0.35362868,-253.592,-16.26881)" style="stroke-width:1.15582">
         <g id="g1442" transform="matrix(1,0,0,-1,0,792)" style="stroke-width:1.15582">
            <g id="g1444" style="stroke-width:1.15582">
               <path d="m 814.34479,664.32074 c 56.16651,6.05857 106.50587,-31.10723 109.82013,-83.68257 2.53488,-63.04302 -32.36493,-114.00607 -97.97867,-119.59829 -49.74402,1.57272 -98.71054,40.83803 -101.92167,90.90061 -2.74723,58.77684 36.03191,107.54832 90.08021,112.38025 z" style="fill:none;stroke:#000000;stroke-width:3.02292;stroke-linecap:round;stroke-linejoin:round;stroke-miterlimit:10;stroke-dasharray:none;stroke-opacity:1" id="path1446" sodipodi:nodetypes="ccccc" />
            </g>
         </g>
         <g id="g1448" transform="matrix(1,0,0,-1,0,792)" style="stroke-width:1.15582">
            <g id="g1450" style="stroke-width:1.15582">
               <path d="m 824.15731,604.18461 c 36.81899,13.02084 69.34178,-43.88458 39.44708,-69.01627 -25.08077,-27.94471 -83.59786,-3.17249 -71.40165,35.7946 4.01816,15.56088 16.615,28.52878 31.95457,33.22167 z" style="fill:none;stroke:#000000;stroke-width:2.81069;stroke-linecap:round;stroke-linejoin:round;stroke-miterlimit:10;stroke-dasharray:none;stroke-opacity:1" id="path1452" sodipodi:nodetypes="ccccccc" />
            </g>
         </g>
         <g id="g1454" transform="matrix(1,0,0,-1,0,792)" style="stroke-width:1.15582">
            <g id="g1456" style="stroke-width:1.15582">
               <path d="m 806.99872,607.57965 c -3.37267,3.80265 -24.40879,18.26853 -26.94898,18.08353" style="fill:none;stroke:#000000;stroke-width:3.02292;stroke-linecap:round;stroke-linejoin:round;stroke-miterlimit:10;stroke-dasharray:none;stroke-opacity:1" id="path1458" sodipodi:nodetypes="cc" />
            </g>
         </g>
         <g id="g1460" transform="matrix(1,0,0,-1,0,792)" style="stroke-width:1.15582">
            <g id="g1462" style="stroke-width:1.15582">
               <path d="m 779.12347,625.56934 c -5.95871,-3.85032 -19.65138,-18.09277 -20.77967,-23.82872" style="fill:none;stroke:#000000;stroke-width:3.02292;stroke-linecap:round;stroke-linejoin:round;stroke-miterlimit:10;stroke-dasharray:none;stroke-opacity:1" id="path1464" sodipodi:nodetypes="cc" />
            </g>
         </g>
         <g id="g1466" transform="matrix(1,0,0,-1,0,792)" style="stroke-width:1.15582">
            <g id="g1468" style="stroke-width:1.15582">
               <path d="m 757.82281,600.95612 c 5.5529,-2.38099 9.24553,-7.52937 14.388,-10.60206 3.91128,-2.70738 8.94737,-5.99637 11.29549,-9.4462" style="fill:none;stroke:#000000;stroke-width:3.02292;stroke-linecap:round;stroke-linejoin:round;stroke-miterlimit:10;stroke-dasharray:none;stroke-opacity:1" id="path1470" />
            </g>
         </g>
         <g id="g1472" transform="matrix(1,0,0,-1,0,792)" style="stroke-width:1.15582">
            <g id="g1474" style="stroke-width:1.15582">
               <path d="m 783.5063,580.90786 c -0.32819,7.77517 9.04904,13.51445 12.71303,19.76906 2.12975,3.25754 6.94926,6.73893 10.77939,6.90273" style="fill:none;stroke:#000000;stroke-width:3.02292;stroke-linecap:round;stroke-linejoin:round;stroke-miterlimit:10;stroke-dasharray:none;stroke-opacity:1" id="path1476" sodipodi:nodetypes="ccc" />
            </g>
         </g>
         <g id="g1478" transform="matrix(1,0,0,-1,-3.4674354,792)" style="stroke-width:1.15582">
            <g id="g1480" style="stroke-width:1.15582">
               <path d="m 883.75488,596.41742 c 6.62723,-5.48045 7.22561,-14.56313 9.32909,-22.30759 0.19416,-1.19555 0.29061,-2.41091 0.22312,-3.62186" style="fill:none;stroke:#000000;stroke-width:3.02292;stroke-linecap:round;stroke-linejoin:round;stroke-miterlimit:10;stroke-dasharray:none;stroke-opacity:1" id="path1482" />
            </g>
         </g>
         <g id="g1484" transform="matrix(1,0,0,-1,-3.4674354,792)" style="stroke-width:1.15582">
            <g id="g1486" style="stroke-width:1.15582">
               <path d="m 893.30709,570.48797 c 9.26118,6.58556 11.75201,9.02898 23.42591,11.73252" style="fill:none;stroke:#000000;stroke-width:3.02292;stroke-linecap:round;stroke-linejoin:round;stroke-miterlimit:10;stroke-dasharray:none;stroke-opacity:1" id="path1488" sodipodi:nodetypes="cc" />
            </g>
         </g>
         <g id="g1490" transform="matrix(1,0,0,-1,-3.4674354,792)" style="stroke-width:1.15582">
            <g id="g1492" style="stroke-width:1.15582">
               <path d="m 912.58313,582.56915 -0.10791,-0.15851 0.50317,-0.0639 -0.40619,0.15314 0.21436,0.69403 -0.20752,0.52942 0.20197,0.2453 -0.78052,2.27716 0.16681,0.27649 -0.70197,1.09088 -0.32953,0.8139 0.12628,0.24805 -1.00366,2.10785 -0.5531,0.41431 -0.75519,1.43774 -0.53674,0.26611 -0.15478,0.83496 -1.23236,2.84674 0.0498,0.30066 -1.64929,3.10028 0.18262,0.53357 -0.40204,0.44812 0.20544,0.3733 -0.30127,0.57116 0.0587,0.8039 -0.26764,0.0111 0.15033,0.14801" style="fill:none;stroke:#000000;stroke-width:3.02292;stroke-linecap:round;stroke-linejoin:round;stroke-miterlimit:10;stroke-dasharray:none;stroke-opacity:1" id="path1494" />
            </g>
         </g>
         <g id="g1496" transform="matrix(1,0,0,-1,-3.4674354,792)" style="stroke-width:1.15582">
            <g id="g1498" style="stroke-width:1.15582">
               <path d="m 906.86318,604.42519 c -7.43373,-0.26546 -17.02366,-5.49745 -23.69709,-8.01492 l 0.007,-0.35005" style="fill:none;stroke:#000000;stroke-width:3.02292;stroke-linecap:round;stroke-linejoin:round;stroke-miterlimit:10;stroke-dasharray:none;stroke-opacity:1" id="path1500" sodipodi:nodetypes="ccc" />
            </g>
         </g>
         <g id="g1502" transform="matrix(1,0,0,-1,0,792)" style="stroke-width:1.15582">
            <g id="g1504" style="stroke-width:1.15582">
               <path d="m 820.32288,504.23702 c 6.99279,-2.11797 23.11764,-2.79658 30.06536,-1.67272" style="fill:none;stroke:#000000;stroke-width:3.02292;stroke-linecap:round;stroke-linejoin:round;stroke-miterlimit:10;stroke-dasharray:none;stroke-opacity:1" id="path1506" sodipodi:nodetypes="cc" />
            </g>
         </g>
         <g id="g1508" transform="matrix(1,0,0,-1,0,792)" style="stroke-width:1.15582">
            <g id="g1510" style="stroke-width:1.15582">
               <path d="m 850.38824,502.5643 c -1.94382,-8.37224 -0.52077,-17.3232 -3.08369,-24.70994" style="fill:none;stroke:#000000;stroke-width:3.02292;stroke-linecap:round;stroke-linejoin:round;stroke-miterlimit:10;stroke-dasharray:none;stroke-opacity:1" id="path1512" sodipodi:nodetypes="cc" />
            </g>
         </g>
         <g id="g1514" transform="matrix(1,0,0,-1,0,792)" style="stroke-width:1.15582">
            <g id="g1516" style="stroke-width:1.15582">
               <path d="m 847.30455,477.85436 c -1.14406,-0.53919 -3.80824,-0.60968 -5.18963,-1.07911 -2.01541,-0.0966 -3.88367,-0.75176 -5.84407,-1.12583 -1.43788,-0.003 -2.72409,-1.0099 -4.22544,-0.70415 -1.56924,0.24258 -3.15609,-0.28323 -4.70204,0.19983 -1.92637,0.31998 -3.87562,0.56313 -5.72506,1.1459 -1.10963,0.0428 -0.12699,0.0489 -0.96116,1.02471" style="fill:none;stroke:#000000;stroke-width:3.02292;stroke-linecap:round;stroke-linejoin:round;stroke-miterlimit:10;stroke-dasharray:none;stroke-opacity:1" id="path1518" sodipodi:nodetypes="ccccccc" />
            </g>
         </g>
         <g id="g1520" transform="matrix(1,0,0,-1,0,792)" style="stroke-width:1.15582">
            <g id="g1522" style="stroke-width:1.15582">
               <path d="m 820.89911,476.87714 c -2.01377,5.93743 -1.6098,21.03537 -0.57623,27.35988" style="fill:none;stroke:#000000;stroke-width:3.02292;stroke-linecap:round;stroke-linejoin:round;stroke-miterlimit:10;stroke-dasharray:none;stroke-opacity:1" id="path1524" sodipodi:nodetypes="cc" />
            </g>
         </g>
         <g id="g1526" transform="matrix(1,0,0,-1,0,792)" style="stroke-width:1.15582">
            <g id="g1528" style="stroke-width:1.15582">
               <path d="m 781.82361,620.95966 c -7.00657,-3.62101 -12.89312,-10.13544 -14.07896,-18.12117 -1.78242,-2.94365 2.87533,7.43531 5.08324,9.13619 2.36487,2.93911 9.14435,5.82228 10.37834,7.058 -6.02203,-2.93917 -9.12575,-9.31187 -12.35058,-14.81939 -1.69976,-2.90305 -3.39043,-11.3141 -1.92853,-11.43072 3.41598,6.90954 6.26013,15.196 13.39713,19.11335 3.70972,0.68497 -3.81131,-5.10494 -4.69372,-7.214 -3.47407,-4.19056 -6.08316,-6.83205 -5.64482,-12.32292 4.9408,7.15925 7.94667,12.3592 14.44933,18.29189 4.26868,6.26251 8.14967,3.21811 3.23662,-0.73611 -6.06789,-4.48577 -11.41305,-10.40548 -13.2667,-17.92302 -2.37188,-7.06079 6.70983,-0.40332 6.38194,3.61032 2.9622,6.38736 7.85777,12.61463 14.8073,14.79997 1.32949,-4.75682 -6.71032,-7.35979 -8.84918,-11.519 -2.08716,-3.26173 -6.09612,-8.7465 -6.9254,-10.68043 4.50994,5.69412 9.05405,11.36111 14.20272,16.49549 4.44049,3.89549 -1.45106,-5.30075 -2.4708,-6.90281 -2.0896,-3.52796 -4.5563,-6.89761 -4.97934,-11.00532" style="fill:none;stroke:#000000;stroke-width:3.02292;stroke-linecap:round;stroke-linejoin:round;stroke-miterlimit:10;stroke-dasharray:none;stroke-opacity:1" id="path1530" sodipodi:nodetypes="ccccscccccccccccccc" />
            </g>
         </g>
         <g id="g1532" transform="matrix(1,0,0,-1,-3.4674354,792)" style="stroke-width:1.15582">
            <g id="g1534" style="stroke-width:1.15582">
               <path d="m 886.68304,595.88696 c 4.78122,-4.04857 5.19144,-10.83125 6.87277,-16.37182 1.97025,4.38799 -0.78535,10.23875 -2.22912,14.77378 0.52392,0.4984 6.16444,-4.39482 7.70163,-6.87192 1.5765,-1.23197 3.93009,-9.42034 1.83985,-7.69634 -0.79976,5.25646 -0.19429,10.99186 -3.51725,15.54598 3.09614,-2.16937 8.03937,-8.53584 8.41244,-13.86591 0.79329,-1.41634 1.99925,5.69803 0.88866,7.79812 -0.64857,3.53732 -6.16674,9.96836 -5.06824,11.09352 4.1511,-4.36547 6.77267,-10.08323 9.3618,-15.44571 1.05242,-1.09445 -1.95917,5.61634 -1.83568,7.62542 -0.0357,2.15524 -3.41297,16.10468 -1.30182,10.07611 2.61744,-4.78769 7.90034,-14.82473 8.92492,-20.3277 l -0.19181,-0.17037 -0.0719,-0.0638" style="fill:none;stroke:#000000;stroke-width:3.02292;stroke-linecap:round;stroke-linejoin:round;stroke-miterlimit:10;stroke-dasharray:none;stroke-opacity:1" id="path1536" sodipodi:nodetypes="ccccccccccccccc" />
            </g>
         </g>
         <g id="g1538" transform="matrix(1,0,0,-1,0,792)" style="stroke-width:1.15582">
            <g id="g1540" style="stroke-width:1.15582">
               <path d="m 822.2467,498.40887 c 3.90073,0.55179 7.78293,-0.93848 11.7142,-0.26721 3.48223,-0.55034 7.61813,1.76844 9.83804,2.68202 -1.86053,-3.71977 -5.95264,-4.81416 -9.81305,-4.8049 -3.87193,-0.22867 -7.83792,-0.60818 -11.65647,0.28216 7.62689,-2.22892 15.56722,0.0939 23.3348,-0.058 5.18353,0.63892 -3.39692,-1.12736 -5.01445,-2.24358 -5.2771,-1.3078 -10.64082,-2.38363 -16.07219,-2.95367 5.7766,-1.76229 11.97304,-1.78458 17.93718,-1.27262 2.09117,-0.0799 7.90375,3.40945 3.53563,0.5187 -4.17281,-2.41172 -9.16246,-2.22735 -13.76668,-3.17635 -2.36815,-0.82534 -7.62934,0.40702 -8.0974,-0.4808 3.75172,-3.42857 9.3099,-2.09161 13.92162,-1.95524 1.97581,-0.14579 8.55742,2.01449 3.59071,0.14851 -5.0172,-1.7126 -10.81281,-0.78426 -15.52547,-3.3143 3.46043,-2.54196 9.10237,-0.78943 13.31346,-0.46005 2.16931,0.15006 9.47815,2.54805 4.33931,-0.20101 -4.38945,-2.89603 -9.78227,-2.92863 -14.66261,-4.47562 -2.59497,-0.65248 -3.02124,0.55433 -0.24468,0.59614 2.30718,0.33131 4.68474,0.4787 6.85774,1.39605" style="fill:none;stroke:#000000;stroke-width:3.02292;stroke-linecap:round;stroke-linejoin:round;stroke-miterlimit:10;stroke-dasharray:none;stroke-opacity:1" id="path1542" />
            </g>
         </g>
         <g id="g1544" transform="matrix(1,0,0,-1,0,792)" style="stroke-width:1.15582">
            <g id="g1546" style="stroke-width:1.15582">
               <path d="m 914.56854,614.5328 c 1.52497,5.40612 -0.19024,8.59099 0.55665,14.08178 0.44122,8.07669 0.95327,16.15266 0.86512,24.23552 0.19831,1.61946 0.46472,3.52369 1.99207,4.45423" style="fill:none;stroke:#000000;stroke-width:3.02292;stroke-linecap:round;stroke-linejoin:round;stroke-miterlimit:10;stroke-dasharray:none;stroke-opacity:1" id="path1548" sodipodi:nodetypes="cccc" />
            </g>
         </g>
         <g id="g1550" transform="matrix(1,0,0,-1,0,792)" style="stroke-width:1.15582">
            <g id="g1552" style="stroke-width:1.15582">
               <path d="m 917.98238,657.30433 183.07562,18.11436 c 1.5223,0.6612 2.7233,-0.16986 3.9977,-0.65978" style="fill:none;stroke:#000000;stroke-width:3.02292;stroke-linecap:round;stroke-linejoin:round;stroke-miterlimit:10;stroke-dasharray:none;stroke-opacity:1" id="path1554" sodipodi:nodetypes="ccc" />
            </g>
         </g>
         <g id="g1556" transform="matrix(1,0,0,-1,0,792)" style="stroke-width:1.15582">
            <g id="g1558" style="stroke-width:1.15582">
               <path d="m 1105.0557,674.75891 c 3.2674,-2.88244 15.2632,-13.56484 16.0848,-17.91869" style="fill:none;stroke:#000000;stroke-width:3.02292;stroke-linecap:round;stroke-linejoin:round;stroke-miterlimit:10;stroke-dasharray:none;stroke-opacity:1" id="path1560" sodipodi:nodetypes="cc" />
            </g>
         </g>
         <g id="g1562" transform="matrix(1,0,0,-1,0,792)" style="stroke-width:1.15582">
            <g id="g1564" style="stroke-width:1.15582">
               <path d="m 1121.1405,656.84022 c 0,0 -17.8521,-132.8957 -24.0812,-201.76169" style="fill:none;stroke:#000000;stroke-width:3.02292;stroke-linecap:round;stroke-linejoin:round;stroke-miterlimit:10;stroke-dasharray:none;stroke-opacity:1" id="path1566" sodipodi:nodetypes="cc" />
            </g>
         </g>
         <g id="g1568" transform="matrix(1,0,0,-1,0,792)" style="stroke-width:1.15582">
            <g id="g1570" style="stroke-width:1.15582">
               <path d="m 1096.4664,453.40744 -10.6997,-8.76295" style="fill:none;stroke:#000000;stroke-width:3.02292;stroke-linecap:round;stroke-linejoin:round;stroke-miterlimit:10;stroke-dasharray:none;stroke-opacity:1" id="path1572" sodipodi:nodetypes="cc" />
            </g>
         </g>
         <g id="g1574" transform="matrix(1,0,0,-1,0,792)" style="stroke-width:1.15582">
            <g id="g1576" style="stroke-width:1.15582">
               <path d="m 1105.0557,674.75891 -19.289,-230.11442" style="fill:none;stroke:#000000;stroke-width:3.02292;stroke-linecap:round;stroke-linejoin:round;stroke-miterlimit:10;stroke-dasharray:none;stroke-opacity:1" id="path1578" sodipodi:nodetypes="cc" />
            </g>
         </g>
         <g id="g1580" transform="matrix(1,0,0,-1,0,792)" style="stroke-width:1.15582">
            <g id="g1582" style="stroke-width:1.15582">
               <path d="m 908.41376,512.83968 c -0.0277,-0.20736 -1.66773,-26.86464 -1.66773,-26.86464" style="fill:none;stroke:#000000;stroke-width:3.02292;stroke-linecap:round;stroke-linejoin:round;stroke-miterlimit:10;stroke-dasharray:none;stroke-opacity:1" id="path1584" sodipodi:nodetypes="cc" />
            </g>
         </g>
         <g id="g1586" transform="matrix(1,0,0,-1,0,792)" style="stroke-width:1.15582">
            <g id="g1588" style="stroke-width:1.15582">
               <path d="m 906.74603,485.97504 c 0,0 120.83867,-28.51933 179.02067,-41.33055" style="fill:none;stroke:#000000;stroke-width:3.02292;stroke-linecap:round;stroke-linejoin:round;stroke-miterlimit:10;stroke-dasharray:none;stroke-opacity:1" id="path1590" sodipodi:nodetypes="cc" />
            </g>
         </g>
         <g id="g1592" transform="matrix(1,0,0,-1,0,792)" style="stroke-width:1.15582">
            <g id="g1594" style="stroke-width:1.15582">
               <path d="M 925.75677,569.66797 1096.5043,554.97665" style="fill:none;stroke:#000000;stroke-width:3.02292;stroke-linecap:round;stroke-linejoin:round;stroke-miterlimit:10;stroke-dasharray:none;stroke-opacity:1" id="path1596" sodipodi:nodetypes="cc" />
            </g>
         </g>
         <g id="g1598" transform="matrix(1,0,0,-1,0,792)" style="stroke-width:1.15582">
            <g id="g1600" style="stroke-width:1.15582">
               <path d="m 1097.9934,554.89435 c -0.6683,-0.17422 0.4561,0.37303 0.7634,0.25796 1.0336,0.007 2.0741,-0.003 3.0691,0.31913 2.366,0.56481 4.7721,0.99061 7.0614,1.83265" style="fill:none;stroke:#000000;stroke-width:3.02292;stroke-linecap:round;stroke-linejoin:round;stroke-miterlimit:10;stroke-dasharray:none;stroke-opacity:1" id="path1602" sodipodi:nodetypes="cccc" />
            </g>
         </g>
         <g id="g1604" transform="matrix(1,0,0,-1,0,792)" style="stroke-width:1.15582">
            <g id="g1606" style="stroke-width:1.15582">
               <path d="m 819.73354,632.50395 c 0.73873,3.63968 0.99012,9.49203 2.26098,13.10076" style="fill:none;stroke:#000000;stroke-width:3.02292;stroke-linecap:round;stroke-linejoin:round;stroke-miterlimit:10;stroke-dasharray:none;stroke-opacity:1" id="path1608" sodipodi:nodetypes="cc" />
            </g>
         </g>
         <g id="g1610" transform="matrix(1,0,0,-1,0,792)" style="stroke-width:1.15582">
            <g id="g1612" style="stroke-width:1.15582">
               <path d="m 821.99452,645.60471 c 0,0 38.74468,-5.45348 55.27296,-11.3921" style="fill:none;stroke:#000000;stroke-width:3.02292;stroke-linecap:round;stroke-linejoin:round;stroke-miterlimit:10;stroke-dasharray:none;stroke-opacity:1" id="path1614" sodipodi:nodetypes="cc" />
            </g>
         </g>
         <g id="g1616" transform="matrix(1,0,0,-1,0,792)" style="stroke-width:1.15582">
            <g id="g1618" style="stroke-width:1.15582">
               <path d="m 877.26748,634.21261 c -0.60018,-2.59811 -3.47526,-11.79025 -3.47526,-11.79025" style="fill:none;stroke:#000000;stroke-width:3.02292;stroke-linecap:round;stroke-linejoin:round;stroke-miterlimit:10;stroke-dasharray:none;stroke-opacity:1" id="path1620" sodipodi:nodetypes="cc" />
            </g>
         </g>
         <g id="g1622" transform="matrix(1,0,0,-1,0,792)" style="stroke-width:1.15582">
            <g id="g1624" style="stroke-width:1.15582">
               <path d="m 819.73354,632.50395 c 17.903,-3.96227 36.92826,-7.99093 54.05868,-10.08159" style="fill:none;stroke:#000000;stroke-width:3.02292;stroke-linecap:round;stroke-linejoin:round;stroke-miterlimit:10;stroke-dasharray:none;stroke-opacity:1" id="path1626" sodipodi:nodetypes="cc" />
            </g>
         </g>
         <g id="g1628" transform="matrix(1,0,0,-1,0,792)" style="stroke-width:1.15582">
            <g id="g1630" style="stroke-width:1.15582">
               <path d="m 842.11304,635.22345 27.05301,-5.69282" style="fill:none;stroke:#000000;stroke-width:3.02292;stroke-linecap:round;stroke-linejoin:round;stroke-miterlimit:10;stroke-dasharray:none;stroke-opacity:1" id="path1632" sodipodi:nodetypes="cc" />
            </g>
         </g>
      </g>
   </g>
</svg>
