<?xml version="1.0" encoding="UTF-8" standalone="no"?>
<!-- Created by Ashley Blewer - This work is licensed under a Creative Commons Attribution 4.0 International License -->

<svg
   width="544"
   height="480"
   viewBox="0 0 143.93334 127"
   version="1.1"
   id="svg2490"
   inkscape:version="1.2 (1:1.2+202206011327+fc4e4096c5)"
   sodipodi:docname="1965-half-inch-cv-1.svg"
   xmlns:inkscape="http://www.inkscape.org/namespaces/inkscape"
   xmlns:sodipodi="http://sodipodi.sourceforge.net/DTD/sodipodi-0.dtd"
   xmlns="http://www.w3.org/2000/svg"
   xmlns:svg="http://www.w3.org/2000/svg">
  <sodipodi:namedview
     id="namedview2492"
     pagecolor="#ffffff"
     bordercolor="#666666"
     borderopacity="1.0"
     inkscape:pageshadow="2"
     inkscape:pageopacity="0.0"
     inkscape:pagecheckerboard="0"
     inkscape:document-units="mm"
     showgrid="false"
     units="px"
     inkscape:zoom="1.2810466"
     inkscape:cx="272.8238"
     inkscape:cy="251.74728"
     inkscape:window-width="1848"
     inkscape:window-height="1136"
     inkscape:window-x="72"
     inkscape:window-y="27"
     inkscape:window-maximized="1"
     inkscape:current-layer="layer1"
     inkscape:showpageshadow="2"
     inkscape:deskcolor="#d1d1d1" />
  <defs
     id="defs2487" />
  <g
     inkscape:label="Layer 1"
     inkscape:groupmode="layer"
     id="layer1">
    <g
       id="g6879"
       transform="matrix(0.71693144,0,0,0.71712458,-409.63884,-121.03317)"
       style="stroke-width:0.492">
      <g
         id="g1076"
         transform="matrix(1,0,0,-1,-41.745831,789.09089)"
         style="stroke-width:0.492">
        <g
           id="g1078"
           style="stroke-width:0.492">
          <path
             d="m 700.76892,615.07245 c 28.18203,4.57085 55.03726,-4.01451 73.0429,-23.82033 22.90597,-24.24652 34.39646,-61.95964 20.8551,-93.62765 -9.52353,-20.25116 -26.66219,-37.47 -48.06047,-44.83919 -37.60421,-13.5299 -84.84135,-1.28141 -107.26024,32.84836 -13.76069,21.39487 -17.79747,48.88203 -9.5871,73.09498 9.57378,30.88442 37.74878,52.87065 71.00981,56.34383 z"
             style="fill:none;stroke:#000000;stroke-width:1.28677;stroke-linecap:round;stroke-linejoin:round;stroke-miterlimit:10;stroke-dasharray:none;stroke-opacity:1"
             id="path1080"
             sodipodi:nodetypes="ccccccc" />
        </g>
      </g>
      <g
         id="g1088"
         transform="matrix(1,0,0,-1,-41.745831,789.09089)"
         style="stroke-width:0.492">
        <g
           id="g1090"
           style="stroke-width:0.492" />
      </g>
      <g
         id="g1100"
         transform="matrix(1,0,0,-1,-41.745831,789.09089)"
         style="stroke-width:0.492">
        <g
           id="g1102"
           style="stroke-width:0.492">
          <path
             d="m 698.01984,605.47247 c 8.38313,1.08344 17.1844,1.4912 25.48455,0.12329"
             style="fill:none;stroke:#000000;stroke-width:1.28677;stroke-linecap:round;stroke-linejoin:round;stroke-miterlimit:10;stroke-dasharray:none;stroke-opacity:1"
             id="path1104" />
        </g>
      </g>
      <g
         id="g1106"
         transform="matrix(1,0,0,-1,-41.745831,789.09089)"
         style="stroke-width:0.492">
        <g
           id="g1108"
           style="stroke-width:0.492">
          <path
             d="m 724.49695,604.22101 c 1.72478,-13.90228 2.12323,-31.51957 1.48483,-43.6451 0.37098,-1.54523 0.42994,-1.35205 0.44391,-1.0143"
             style="fill:none;stroke:#000000;stroke-width:1.28677;stroke-linecap:round;stroke-linejoin:round;stroke-miterlimit:10;stroke-dasharray:none;stroke-opacity:1"
             id="path1110" />
        </g>
      </g>
      <g
         id="g1112"
         transform="matrix(1,0,0,-1,-41.745831,789.09089)"
         style="stroke-width:0.492">
        <g
           id="g1114"
           style="stroke-width:0.492">
          <path
             d="m 726.1908,559.6131 c -8.50183,3.58307 -22.25977,0.77494 -27.6211,-0.64992 -3.49585,14.78295 -3.83417,33.72257 -1.82111,46.04353"
             style="fill:none;stroke:#000000;stroke-width:1.28677;stroke-linecap:round;stroke-linejoin:round;stroke-miterlimit:10;stroke-dasharray:none;stroke-opacity:1"
             id="path1116" />
        </g>
      </g>
      <g
         id="g1118"
         transform="matrix(1,0,0,-1,-41.745831,789.09089)"
         style="stroke-width:0.492">
        <g
           id="g1120"
           style="stroke-width:0.492">
          <path
             d="m 698.42159,504.67874 c 8.2532,-2.92971 27.83704,-0.84432 32.05776,0.2095 -0.433,-14.12202 -1.07955,-34.17383 -1.51221,-45.00544 -8.07209,-1.43166 -24.66227,-4.9706 -29.67688,0.71593 -2.045,13.54941 -2.44972,33.9864 -0.86867,44.08001"
             style="fill:none;stroke:#000000;stroke-width:1.28677;stroke-linecap:round;stroke-linejoin:round;stroke-miterlimit:10;stroke-dasharray:none;stroke-opacity:1"
             id="path1122"
             sodipodi:nodetypes="ccccc" />
        </g>
      </g>
      <g
         id="g1124"
         transform="matrix(1,0,0,-1,-41.745831,789.09089)"
         style="stroke-width:0.492">
        <g
           id="g1126"
           style="stroke-width:0.492">
          <path
             d="m 696.03931,511.00943 c 6.84986,-0.68059 24.57099,-2.67913 31.08442,1.62183"
             style="fill:none;stroke:#000000;stroke-width:1.28677;stroke-linecap:round;stroke-linejoin:round;stroke-miterlimit:10;stroke-dasharray:none;stroke-opacity:1"
             id="path1128" />
        </g>
      </g>
      <g
         id="g1130"
         transform="matrix(1,0,0,-1,-41.745831,789.09089)"
         style="stroke-width:0.492">
        <g
           id="g1132"
           style="stroke-width:0.492">
          <path
             d="m 727.66888,513.2818 c 2.68926,11.58215 -1.92143,31.78328 -2.17316,41.05952"
             style="fill:none;stroke:#000000;stroke-width:1.28677;stroke-linecap:round;stroke-linejoin:round;stroke-miterlimit:10;stroke-dasharray:none;stroke-opacity:1"
             id="path1134" />
        </g>
      </g>
      <g
         id="g1136"
         transform="matrix(1,0,0,-1,-41.745831,789.09089)"
         style="stroke-width:0.492">
        <g
           id="g1138"
           style="stroke-width:0.492">
          <path
             d="m 725.49572,554.34132 c -6.17761,4.04978 -25.22005,4.30862 -28.7112,-1.48973"
             style="fill:none;stroke:#000000;stroke-width:1.28677;stroke-linecap:round;stroke-linejoin:round;stroke-miterlimit:10;stroke-dasharray:none;stroke-opacity:1"
             id="path1140"
             sodipodi:nodetypes="cc" />
        </g>
      </g>
      <g
         id="g1142"
         transform="matrix(1,0,0,-1,-41.745831,789.09089)"
         style="stroke-width:0.492">
        <g
           id="g1144"
           style="stroke-width:0.492">
          <path
             d="m 697.04572,552.20764 c -1.36527,-12.7426 0.78373,-28.16834 0.73624,-41.18604"
             style="fill:none;stroke:#000000;stroke-width:1.28677;stroke-linecap:round;stroke-linejoin:round;stroke-miterlimit:10;stroke-dasharray:none;stroke-opacity:1"
             id="path1146"
             sodipodi:nodetypes="cc" />
        </g>
      </g>
      <g
         id="g1148"
         transform="matrix(1,0,0,-1,-41.745831,789.09089)"
         style="stroke-width:0.492">
        <g
           id="g1150"
           style="stroke-width:0.492">
          <path
             d="m 696.10703,576.79415 c -21.99374,-7.43146 -32.87909,-25.39672 -31.61244,-45.34664 3.55674,-18.63892 12.49636,-41.39533 30.76666,-44.85942 l 0.19476,0.74997"
             style="fill:none;stroke:#000000;stroke-width:1.28677;stroke-linecap:round;stroke-linejoin:round;stroke-miterlimit:10;stroke-dasharray:none;stroke-opacity:1"
             id="path1152"
             sodipodi:nodetypes="cccc" />
        </g>
      </g>
      <g
         id="g1154"
         transform="matrix(1,0,0,-1,-41.745831,789.09089)"
         style="stroke-width:0.492">
        <g
           id="g1156"
           style="stroke-width:0.492">
          <path
             d="m 734.70825,488.09744 c 12.35274,5.62051 21.36798,21.99952 22.91616,34.54035 2.33503,14.33272 -3.39124,29.84017 -10.7484,42.64147 -5.15405,6.3571 -12.25306,13.06863 -19.62344,13.54254"
             style="fill:none;stroke:#000000;stroke-width:1.28677;stroke-linecap:round;stroke-linejoin:round;stroke-miterlimit:10;stroke-dasharray:none;stroke-opacity:1"
             id="path1158" />
        </g>
      </g>
      <g
         id="g1160"
         transform="matrix(1,0,0,-1,-41.745831,789.09089)"
         style="stroke-width:0.492">
        <g
           id="g1162"
           style="stroke-width:0.492">
          <path
             d="m 696.10703,576.79415 c 6.54404,1.31322 20.42518,2.92673 29.69457,1.99029"
             style="fill:none;stroke:#000000;stroke-width:1.28677;stroke-linecap:round;stroke-linejoin:round;stroke-miterlimit:10;stroke-dasharray:none;stroke-opacity:1"
             id="path1164"
             sodipodi:nodetypes="cc" />
        </g>
      </g>
      <g
         id="g1166"
         transform="matrix(1,0,0,-1,-41.745831,789.09089)"
         style="stroke-width:0.492">
        <g
           id="g1168"
           style="stroke-width:0.492">
          <path
             d="m 697.84247,483.07541 c 8.56031,-2.06583 19.26335,0.14486 28.54074,2.71905"
             style="fill:none;stroke:#000000;stroke-width:1.28677;stroke-linecap:round;stroke-linejoin:round;stroke-miterlimit:10;stroke-dasharray:none;stroke-opacity:1"
             id="path1170" />
        </g>
      </g>
      <g
         id="g1172"
         transform="matrix(1,0,0,-1,-41.745831,789.09089)"
         style="stroke-width:0.492">
        <g
           id="g1174"
           style="stroke-width:0.492">
          <path
             d="m 696.78452,552.85159 c -13.05468,-4.80025 -16.21756,-40.22763 0.99744,-41.82999"
             style="fill:none;stroke:#000000;stroke-width:1.28677;stroke-linecap:round;stroke-linejoin:round;stroke-miterlimit:10;stroke-dasharray:none;stroke-opacity:1"
             id="path1176"
             sodipodi:nodetypes="cc" />
        </g>
      </g>
      <g
         id="g1178"
         transform="matrix(1,0,0,-1,-41.745831,789.09089)"
         style="stroke-width:0.492">
        <g
           id="g1180"
           style="stroke-width:0.492">
          <path
             d="m 724.81307,511.48964 c 12.70711,4.14644 18.2457,20.19548 11.73237,37.07165 -1.84217,5.0685 -6.67273,8.8973 -10.52376,10.70233"
             style="fill:none;stroke:#000000;stroke-width:1.28677;stroke-linecap:round;stroke-linejoin:round;stroke-miterlimit:10;stroke-dasharray:none;stroke-opacity:1"
             id="path1182"
             sodipodi:nodetypes="ccc" />
        </g>
      </g>
      <g
         id="g1184"
         transform="matrix(1,0,0,-1,-41.745831,789.09089)"
         style="stroke-width:0.492">
        <g
           id="g1186"
           style="stroke-width:0.492">
          <path
             d="m 675.32269,553.06281 c 11.27865,12.14091 33.11592,21.04124 50.40589,16.18499 10.14634,-5.38011 18.90133,-17.28611 19.54664,-28.50293"
             style="fill:none;stroke:#000000;stroke-width:0.643384;stroke-linecap:round;stroke-linejoin:round;stroke-miterlimit:10;stroke-dasharray:none;stroke-opacity:1"
             id="path1188" />
        </g>
      </g>
      <g
         id="g1190"
         transform="matrix(1,0,0,-1,-41.745831,789.09089)"
         style="stroke-width:0.492">
        <g
           id="g1192"
           style="stroke-width:0.492">
          <path
             d="m 686.84473,567.10376 c 16.17719,8.53044 43.46971,14.61586 52.71423,-6.67652 5.55927,-9.03921 11.8984,-18.7957 13.83095,-28.97132"
             style="fill:none;stroke:#000000;stroke-width:0.643384;stroke-linecap:round;stroke-linejoin:round;stroke-miterlimit:10;stroke-dasharray:none;stroke-opacity:1"
             id="path1194" />
        </g>
      </g>
      <g
         id="g1196"
         transform="matrix(1,0,0,-1,-41.745831,789.09089)"
         style="stroke-width:0.492">
        <g
           id="g1198"
           style="stroke-width:0.492">
          <path
             d="m 686.16614,555.89771 c 16.41699,13.83183 45.90286,7.64449 53.6041,-13.66966 -0.0529,-1.82963 3.73864,-7.5788 1.12445,-7.88121"
             style="fill:none;stroke:#000000;stroke-width:0.643384;stroke-linecap:round;stroke-linejoin:round;stroke-miterlimit:10;stroke-dasharray:none;stroke-opacity:1"
             id="path1200" />
        </g>
      </g>
      <g
         id="g1202"
         transform="matrix(1,0,0,-1,-41.745831,789.09089)"
         style="stroke-width:0.492">
        <g
           id="g1204"
           style="stroke-width:0.492">
          <path
             d="m 730.00806,562.0733 c 15.47317,-10.34992 18.10908,-32.57379 12.94415,-48.83606 -3.23606,-0.74899 2.79637,0.32465 -1.81842,1.01329"
             style="fill:none;stroke:#000000;stroke-width:0.643384;stroke-linecap:round;stroke-linejoin:round;stroke-miterlimit:10;stroke-dasharray:none;stroke-opacity:1"
             id="path1206" />
        </g>
      </g>
      <g
         id="g1208"
         transform="matrix(1,0,0,-1,-41.745831,789.09089)"
         style="stroke-width:0.492">
        <g
           id="g1210"
           style="stroke-width:0.492">
          <path
             d="m 744.38818,541.42633 c 11.13141,-10.26477 1.53462,-29.96101 -9.6368,-33.24072"
             style="fill:none;stroke:#000000;stroke-width:0.643384;stroke-linecap:round;stroke-linejoin:round;stroke-miterlimit:10;stroke-dasharray:none;stroke-opacity:1"
             id="path1212" />
        </g>
      </g>
      <g
         id="g1214"
         transform="matrix(1,0,0,-1,-41.745831,789.09089)"
         style="stroke-width:0.492">
        <g
           id="g1216"
           style="stroke-width:0.492">
          <path
             d="m 743.86792,506.5817 c -10.90709,-15.45295 -43.36193,-17.86121 -56.12585,0.25865 -4.87262,7.95843 -5.42629,19.84268 -1.18928,3.39203 1.11554,-18.61023 21.23428,-26.95253 37.08154,-19.04074 11.87426,0.97768 18.61382,16.16274 21.53734,22.16348 1.31351,-14.02798 -16.85377,-26.28151 -30.47243,-27.03038 -32.02114,-8.02205 -48.0672,33.10446 -41.4334,58.58525 0.94015,2.9872 2.99505,4.92396 5.336,6.74451"
             style="fill:none;stroke:#000000;stroke-width:0.643384;stroke-linecap:round;stroke-linejoin:round;stroke-miterlimit:10;stroke-dasharray:none;stroke-opacity:1"
             id="path1218" />
        </g>
      </g>
      <g
         id="g1220"
         transform="matrix(1,0,0,-1,-41.745831,789.09089)"
         style="stroke-width:0.492">
        <g
           id="g1222"
           style="stroke-width:0.492">
          <path
             d="m 686.19568,556.14063 c -16.76176,-17.67686 -10.66347,-52.56136 14.29499,-58.7155 2.14321,-0.55641 4.21012,0.008 6.29948,0.40513"
             style="fill:none;stroke:#000000;stroke-width:0.643384;stroke-linecap:round;stroke-linejoin:round;stroke-miterlimit:10;stroke-dasharray:none;stroke-opacity:1"
             id="path1224" />
        </g>
      </g>
      <g
         id="g1226"
         transform="matrix(1,0,0,-1,-41.745831,789.09089)"
         style="stroke-width:0.492">
        <g
           id="g1228"
           style="stroke-width:0.492">
          <path
             d="m 704.34564,495.63068 c -18.81183,6.35795 -27.59644,32.46594 -24.06327,51.36767 2.99189,6.91126 11.61414,11.26025 13.43579,17.98143"
             style="fill:none;stroke:#000000;stroke-width:0.643384;stroke-linecap:round;stroke-linejoin:round;stroke-miterlimit:10;stroke-dasharray:none;stroke-opacity:1"
             id="path1230" />
        </g>
      </g>
      <g
         id="g1232"
         transform="matrix(1,0,0,-1,-41.745831,789.09089)"
         style="stroke-width:0.492">
        <g
           id="g1234"
           style="stroke-width:0.492">
          <path
             d="m 696.39398,562.85474 c -13.06283,-17.14614 -21.00582,-43.83092 -3.04388,-60.96332 1.57917,-1.93317 3.73747,-4.6771 6.49322,-4.44938"
             style="fill:none;stroke:#000000;stroke-width:0.643384;stroke-linecap:round;stroke-linejoin:round;stroke-miterlimit:10;stroke-dasharray:none;stroke-opacity:1"
             id="path1236" />
        </g>
      </g>
      <g
         id="g1238"
         transform="matrix(1,0,0,-1,-41.745831,789.09089)"
         style="stroke-width:0.492">
        <g
           id="g1240"
           style="stroke-width:0.492">
          <path
             d="m 693.42908,498.36078 c -11.90001,-0.28897 -15.01218,19.99026 -17.67023,30.05133 -3.56779,12.76224 6.01102,25.35279 16.5307,31.08661"
             style="fill:none;stroke:#000000;stroke-width:0.643384;stroke-linecap:round;stroke-linejoin:round;stroke-miterlimit:10;stroke-dasharray:none;stroke-opacity:1"
             id="path1242" />
        </g>
      </g>
      <g
         id="g1244"
         transform="matrix(1,0,0,-1,-41.745831,789.09089)"
         style="stroke-width:0.492">
        <g
           id="g1246"
           style="stroke-width:0.492">
          <path
             d="m 686.3139,558.75336 c -15.27164,-11.421 -17.84701,-38.72038 -6.47699,-54.82331 5.81786,-5.28216 14.89781,-10.53841 21.08393,-12.4546"
             style="fill:none;stroke:#000000;stroke-width:0.643384;stroke-linecap:round;stroke-linejoin:round;stroke-miterlimit:10;stroke-dasharray:none;stroke-opacity:1"
             id="path1248" />
        </g>
      </g>
      <g
         id="g1250"
         transform="matrix(1,0,0,-1,-41.745831,789.09089)"
         style="stroke-width:0.492">
        <g
           id="g1252"
           style="stroke-width:0.492">
          <path
             d="m 697.51733,492.52402 c -14.63035,-0.84003 -24.18509,18.22097 -26.20664,31.81773 -2.76726,11.73259 3.50321,27.5162 15.67478,31.1917"
             style="fill:none;stroke:#000000;stroke-width:0.643384;stroke-linecap:round;stroke-linejoin:round;stroke-miterlimit:10;stroke-dasharray:none;stroke-opacity:1"
             id="path1254" />
        </g>
      </g>
      <g
         id="g1256"
         transform="matrix(1,0,0,-1,-41.745831,789.09089)"
         style="stroke-width:0.492">
        <g
           id="g1258"
           style="stroke-width:0.492">
          <path
             d="m 712.46674,566.63055 c 15.81812,7.63742 33.60222,-7.51417 37.41494,-22.04516 0.0269,-5.55325 6.46966,-19.81697 0.38905,-21.45546"
             style="fill:none;stroke:#000000;stroke-width:0.643384;stroke-linecap:round;stroke-linejoin:round;stroke-miterlimit:10;stroke-dasharray:none;stroke-opacity:1"
             id="path1260" />
        </g>
      </g>
      <g
         id="g1262"
         transform="matrix(1,0,0,-1,-41.745831,789.09089)"
         style="stroke-width:0.492">
        <g
           id="g1264"
           style="stroke-width:0.492">
          <path
             d="m 729.56628,568.44025 c 19.44185,-4.3696 21.7862,-29.93035 26.77859,-45.68158 5.49396,-18.4015 -12.87882,-32.70172 -28.05812,-36.00721 l -0.8963,1.13739"
             style="fill:none;stroke:#000000;stroke-width:0.643384;stroke-linecap:round;stroke-linejoin:round;stroke-miterlimit:10;stroke-dasharray:none;stroke-opacity:1"
             id="path1266" />
        </g>
      </g>
      <g
         id="g1268"
         transform="matrix(1,0,0,-1,-41.745831,789.09089)"
         style="stroke-width:0.492">
        <g
           id="g1270"
           style="stroke-width:0.492">
          <path
             d="m 726.84113,492.83664 c 14.01036,2.33111 20.10058,22.12491 22.71752,35.31906 -1.0106,12.59587 -6.38265,23.25891 -14.14788,32.9942"
             style="fill:none;stroke:#000000;stroke-width:0.643384;stroke-linecap:round;stroke-linejoin:round;stroke-miterlimit:10;stroke-dasharray:none;stroke-opacity:1"
             id="path1272" />
        </g>
      </g>
      <g
         id="g1274"
         transform="matrix(1,0,0,-1,-41.745831,789.09089)"
         style="stroke-width:0.492">
        <g
           id="g1276"
           style="stroke-width:0.492">
          <path
             d="m 737.58221,558.52039 c 9.33476,-15.36175 13.43208,-37.0577 8.20776,-54.77329 -5.41406,-4.98412 -14.93762,-17.84196 -22.10046,-14.70999"
             style="fill:none;stroke:#000000;stroke-width:0.643384;stroke-linecap:round;stroke-linejoin:round;stroke-miterlimit:10;stroke-dasharray:none;stroke-opacity:1"
             id="path1278" />
        </g>
      </g>
      <g
         id="g1280"
         transform="matrix(1,0,0,-1,-41.745831,789.09089)"
         style="stroke-width:0.492">
        <g
           id="g1282"
           style="stroke-width:0.492">
          <path
             d="m 734.40863,498.4519 c 14.55667,0.11699 12.35784,20.96717 15.53945,31.41344 -1.83884,15.81704 -8.32468,43.66924 -28.54905,42.72036"
             style="fill:none;stroke:#000000;stroke-width:0.643384;stroke-linecap:round;stroke-linejoin:round;stroke-miterlimit:10;stroke-dasharray:none;stroke-opacity:1"
             id="path1284" />
        </g>
      </g>
      <g
         id="g1286"
         transform="matrix(1,0,0,-1,-41.745831,789.09089)"
         style="stroke-width:0.492">
        <g
           id="g1288"
           style="stroke-width:0.492">
          <path
             d="m 719.11957,570.29572 c 27.00242,0.99247 34.45508,-31.87146 32.67477,-53.23517 -0.91793,-9.5639 -10.95296,-18.67262 -18.59223,-21.65406"
             style="fill:none;stroke:#000000;stroke-width:0.643384;stroke-linecap:round;stroke-linejoin:round;stroke-miterlimit:10;stroke-dasharray:none;stroke-opacity:1"
             id="path1290" />
        </g>
      </g>
      <g
         id="g1292"
         transform="matrix(1,0,0,-1,-41.745831,789.09089)"
         style="stroke-width:0.492">
        <g
           id="g1294"
           style="stroke-width:0.492">
          <path
             d="m 712.20117,566.66406 c 22.88299,4.2711 27.18944,-26.04487 29.65562,-42.46561 0.19765,-4.0066 -0.14519,-12.19419 -5.43072,-12.37156"
             style="fill:none;stroke:#000000;stroke-width:0.643384;stroke-linecap:round;stroke-linejoin:round;stroke-miterlimit:10;stroke-dasharray:none;stroke-opacity:1"
             id="path1296" />
        </g>
      </g>
      <g
         id="g1298"
         transform="matrix(1,0,0,-1,-41.745831,789.09089)"
         style="stroke-width:0.492">
        <g
           id="g1300"
           style="stroke-width:0.492">
          <path
             d="m 689.63568,557.08636 c -11.59593,-7.25028 -12.39037,-30.93781 -7.52667,-41.09339"
             style="fill:none;stroke:#000000;stroke-width:0.643384;stroke-linecap:round;stroke-linejoin:round;stroke-miterlimit:10;stroke-dasharray:none;stroke-opacity:1"
             id="path1302" />
        </g>
      </g>
      <g
         id="g1304"
         transform="matrix(1,0,0,-1,-41.745831,789.09089)"
         style="stroke-width:0.492">
        <g
           id="g1306"
           style="stroke-width:0.492">
          <path
             d="m 675.11053,508.84985 c -4.61542,9.99762 -10.59992,28.28139 -1.42083,39.46723 4.99134,9.89934 13.34155,18.73236 21.61145,25.36267"
             style="fill:none;stroke:#000000;stroke-width:0.643384;stroke-linecap:round;stroke-linejoin:round;stroke-miterlimit:10;stroke-dasharray:none;stroke-opacity:1"
             id="path1308" />
        </g>
      </g>
      <g
         id="g1310"
         transform="matrix(1,0,0,-1,-41.745831,789.09089)"
         style="stroke-width:0.492">
        <g
           id="g1312"
           style="stroke-width:0.492">
          <path
             d="m 693.46753,570.12659 c -12.57936,-9.64629 -27.08174,-24.72059 -26.47121,-41.63666 3.31131,-14.38943 12.89679,-26.91992 22.88391,-37.12232"
             style="fill:none;stroke:#000000;stroke-width:0.643384;stroke-linecap:round;stroke-linejoin:round;stroke-miterlimit:10;stroke-dasharray:none;stroke-opacity:1"
             id="path1314" />
        </g>
      </g>
      <g
         id="g1316"
         transform="matrix(1,0,0,-1,-41.745831,789.09089)"
         style="stroke-width:0.492">
        <g
           id="g1318"
           style="stroke-width:0.492">
          <path
             d="m 704.94586,492.25195 c -11.64753,0.38295 -16.07961,19.47744 -22.25659,28.84961 -2.1575,5.97524 -6.18155,12.99495 -4.65019,19.21503"
             style="fill:none;stroke:#000000;stroke-width:0.643384;stroke-linecap:round;stroke-linejoin:round;stroke-miterlimit:10;stroke-dasharray:none;stroke-opacity:1"
             id="path1320" />
        </g>
      </g>
      <g
         id="g1322"
         transform="matrix(1,0,0,-1,-41.745831,789.09089)"
         style="stroke-width:0.492">
        <g
           id="g1324"
           style="stroke-width:0.492">
          <path
             d="m 680.52008,537.80627 c -3.0181,-19.82098 11.72335,-42.18504 37.08997,-36.81525 12.8693,3.89722 24.09833,11.8772 25.64418,24.5315"
             style="fill:none;stroke:#000000;stroke-width:0.643384;stroke-linecap:round;stroke-linejoin:round;stroke-miterlimit:10;stroke-dasharray:none;stroke-opacity:1"
             id="path1326"
             sodipodi:nodetypes="ccc" />
        </g>
      </g>
      <g
         id="g1328"
         transform="matrix(1,0,0,-1,-41.745831,789.09089)"
         style="stroke-width:0.492">
        <g
           id="g1330"
           style="stroke-width:0.492">
          <path
             d="m 748.2428,524.55585 c 3.38921,-15.7076 -12.26846,-32.36242 -27.98038,-32.92905"
             style="fill:none;stroke:#000000;stroke-width:0.643384;stroke-linecap:round;stroke-linejoin:round;stroke-miterlimit:10;stroke-dasharray:none;stroke-opacity:1"
             id="path1332" />
        </g>
      </g>
      <g
         id="g1334"
         transform="matrix(1,0,0,-1,-41.745831,789.09089)"
         style="stroke-width:0.492">
        <g
           id="g1336"
           style="stroke-width:0.492">
          <path
             d="m 728.36005,575.0957 c 18.39634,-6.70248 25.22786,-28.72947 26.91777,-46.11148 -0.63527,-6.8303 0.43369,-19.67169 -0.45488,-5.1094 -2.69474,20.44882 -6.55356,50.60214 -33.08567,50.85891 -6.36231,-1.07922 -12.70628,-3.16354 -18.26935,-6.42865"
             style="fill:none;stroke:#000000;stroke-width:0.643384;stroke-linecap:round;stroke-linejoin:round;stroke-miterlimit:10;stroke-dasharray:none;stroke-opacity:1"
             id="path1338" />
        </g>
      </g>
      <g
         id="g1340"
         transform="matrix(1,0,0,-1,-41.745831,789.09089)"
         style="stroke-width:0.492">
        <g
           id="g1342"
           style="stroke-width:0.492">
          <path
             d="m 679.92889,544.86182 c 14.32012,16.07946 46.83075,30.49527 58.85889,3.92965"
             style="fill:none;stroke:#000000;stroke-width:0.643384;stroke-linecap:round;stroke-linejoin:round;stroke-miterlimit:10;stroke-dasharray:none;stroke-opacity:1"
             id="path1344" />
        </g>
      </g>
    </g>
  </g>
</svg>
