<?xml version="1.0" encoding="UTF-8" standalone="no"?>
<!-- Created by Ashley Blewer - This work is licensed under a Creative Commons Attribution 4.0 International License -->

<svg width="544" height="480" viewBox="0 0 143.93334 127" version="1.1" id="svg2490" inkscape:version="1.1.2 (08b2f3d93c, 2022-04-05)" sodipodi:docname="1967-quarter-inch-2.svg"
   xmlns:inkscape="http://www.inkscape.org/namespaces/inkscape"
   xmlns:sodipodi="http://sodipodi.sourceforge.net/DTD/sodipodi-0.dtd"
   xmlns="http://www.w3.org/2000/svg"
   xmlns:svg="http://www.w3.org/2000/svg">
   <sodipodi:namedview id="namedview2492" pagecolor="#ffffff" bordercolor="#666666" borderopacity="1.0" inkscape:pageshadow="2" inkscape:pageopacity="0.0" inkscape:pagecheckerboard="0" inkscape:document-units="mm" showgrid="false" units="px" inkscape:zoom="0.90583674" inkscape:cx="272.67607" inkscape:cy="177.18425" inkscape:window-width="1848" inkscape:window-height="1136" inkscape:window-x="72" inkscape:window-y="27" inkscape:window-maximized="1" inkscape:current-layer="layer1" />
   <defs id="defs2487" />
   <g inkscape:label="Layer 1" inkscape:groupmode="layer" id="layer1">
      <g id="g18352" transform="matrix(0.37909912,-0.02650919,0.02651444,0.37917418,-257.93268,-4.9137807)" style="stroke-width:0.85011">
         <g id="g1044" transform="scale(1,-1)" style="stroke-width:0.85011">
            <path d="m 678.156,-155.988 c 2.80734,-11.80319 2.73924,-24.21279 6.28748,-35.90365 2.41669,-12.67963 3.73167,-25.57313 5.67352,-38.29235 9.20067,-2.52271 7.2065,-12.04294 8.86131,-19.45665 1.86328,-9.21337 3.09323,-18.57652 5.41156,-27.68672 -10.20674,-3.58887 -2.93003,-13.43024 -2.16434,-20.87702 6.02047,-27.57638 5.75824,-56.67388 16.55947,-83.08861" style="fill:none;stroke:#000000;stroke-width:3.33505;stroke-linecap:round;stroke-linejoin:round;stroke-miterlimit:10;stroke-dasharray:none;stroke-opacity:1" id="path1046" sodipodi:nodetypes="cccccccccccccccc" />
         </g>
         <g id="g1048" transform="scale(1,-1)" style="stroke-width:0.85011">
            <path d="m 679.086,-154.832 c 1.28981,-2.57212 88.34136,22.62165 88.176,20.105 0.902,-0.371 0.703,-3.613 4.402,-3.148 4.484,-0.516 9.52617,0.45913 11.47517,3.51813 0.27555,1.75309 1.23851,5.74091 1.39983,5.85287 -0.508,-0.34 1.641,0.793 2.152,0.965 0.036,-0.07 6.09,1.582 9.071,2.273 l 88.855,19.457 c 1.867,0.039 -0.058,0.805 1.332,-0.836 1.391,-2.035 1.203,-5.32 3.352,-8.242 0.777,-2.004 2.488,-4.722 2.047,-4.242 0.285,0.301 -0.125,-0.168 -0.164,0.012" style="fill:none;stroke:#000000;stroke-width:3.33505;stroke-linecap:round;stroke-linejoin:round;stroke-miterlimit:10;stroke-dasharray:none;stroke-opacity:1" id="path1050" sodipodi:nodetypes="cccccccccccc" />
         </g>
         <g id="g1052" transform="scale(1,-1)" style="stroke-width:0.85011">
            <path d="m 718.785,-381.293 c -0.723,-0.504 4.856,0.996 6.699,1.668 l 100.161,31.016 c 0.796,0.109 0.535,-0.219 0.64,0.144" style="fill:none;stroke:#000000;stroke-width:3.33505;stroke-linecap:round;stroke-linejoin:round;stroke-miterlimit:10;stroke-dasharray:none;stroke-opacity:1" id="path1054" />
         </g>
         <g id="g1056" transform="scale(1,-1)" style="stroke-width:0.85011">
            <path d="m 825.645,-348.609 c 2.054,-0.739 3.089,1.629 4.21,3.144 1.911,4.074 3.133,9.817 8.872,10.981 4.628,1.597 9.289,-1.485 9.382,-5.813" style="fill:none;stroke:#000000;stroke-width:3.33505;stroke-linecap:round;stroke-linejoin:round;stroke-miterlimit:10;stroke-dasharray:none;stroke-opacity:1" id="path1058" />
         </g>
         <g id="g1060" transform="scale(1,-1)" style="stroke-width:0.85011">
            <path d="m 848.109,-340.297 c 0,0 48.274,14.352 46.036,13.953 2.437,0.633 2.8541,1.15557 4.1001,1.56657" style="fill:none;stroke:#000000;stroke-width:3.33505;stroke-linecap:round;stroke-linejoin:round;stroke-miterlimit:10;stroke-dasharray:none;stroke-opacity:1" id="path1062" sodipodi:nodetypes="ccc" />
         </g>
         <g id="g1064" transform="scale(1,-1)" style="stroke-width:0.85011">
            <path d="m 718.785,-381.293 c 1.859,0.258 7.965,-3.593 9.164,-4.906" style="fill:none;stroke:#000000;stroke-width:3.33505;stroke-linecap:round;stroke-linejoin:round;stroke-miterlimit:10;stroke-dasharray:none;stroke-opacity:1" id="path1066" sodipodi:nodetypes="cc" />
         </g>
         <g id="g1068" transform="scale(1,-1)" style="stroke-width:0.85011">
            <path d="m 727.949,-386.199 102.211,33.336 c -3.25,0.004 2.781,0.133 1.363,0.304" style="fill:none;stroke:#000000;stroke-width:3.33505;stroke-linecap:round;stroke-linejoin:round;stroke-miterlimit:10;stroke-dasharray:none;stroke-opacity:1" id="path1070" />
         </g>
         <g id="g1072" transform="scale(1,-1)" style="stroke-width:0.85011">
            <path d="m 832.258,-352.281 c 0.195,-0.188 -1.805,4.472 -0.36,5.996 1.176,4.633 10.086,4.988 12.442,2.453 0.512,-1.953 3.563,-2.915 3.57,-2.856" style="fill:none;stroke:#000000;stroke-width:3.33505;stroke-linecap:round;stroke-linejoin:round;stroke-miterlimit:10;stroke-dasharray:none;stroke-opacity:1" id="path1074" sodipodi:nodetypes="cccc" />
         </g>
         <g id="g1076" transform="scale(1,-1)" style="stroke-width:0.85011">
            <path d="m 847.91,-346.688 67.668,20.094" style="fill:none;stroke:#000000;stroke-width:3.33505;stroke-linecap:round;stroke-linejoin:round;stroke-miterlimit:10;stroke-dasharray:none;stroke-opacity:1" id="path1078" />
         </g>
         <g id="g1080" transform="scale(1,-1)" style="stroke-width:0.85011">
            <path d="m 693.07,-230.934 107.317,31.157" style="fill:none;stroke:#000000;stroke-width:3.33505;stroke-linecap:round;stroke-linejoin:round;stroke-miterlimit:10;stroke-dasharray:none;stroke-opacity:1" id="path1082" />
         </g>
         <g id="g1084" transform="scale(1,-1)" style="stroke-width:0.85011">
            <path d="m 702.484,-278.547 c 1.344,0.762 99,30.438 99,30.438 0.746,0.418 3.2,1.136 3,1.05 0.243,0.25 0.465,0.473 0.809,0.59" style="fill:none;stroke:#000000;stroke-width:3.33505;stroke-linecap:round;stroke-linejoin:round;stroke-miterlimit:10;stroke-dasharray:none;stroke-opacity:1" id="path1086" />
         </g>
         <path d="m 799.816,235.207 c 4.407,27.984 19.539,53.602 43.524,69.02 21.398,14.539 42.58482,24.06104 68.25282,24.45204 -11.46814,-8.44502 -38.46217,-8.18432 -56.89782,-22.21404 -33.429,-17.176 -55.718,-55.121 -50.832,-93 1.614,-35.192 23.199,-68.93 56.039,-82.637 24.059,-12.668 53.188,-12.59 79.047,-6.019 24.504,5.867 40.32859,21.059 60.08635,38.33227 C 990.61654,148.39153 973.43,134.633 959.336,127.941 c -28.402,-12.937 -60.707,-14.554 -90.344,-5.82 -22.394,9.766 -44.816,23.094 -55.422,46.039 -10.433,13.906 -11.976,31.91 -13.91,48.594" style="fill:#000000;fill-opacity:1;fill-rule:nonzero;stroke:none;stroke-width:0.85011" id="path1088" sodipodi:nodetypes="cccccccccccc" />
         <g id="g1090" transform="scale(1,-1)" style="stroke-width:0.85011">
            <path d="m 1019.078,-192.574 c 8.715,-22.692 11.059,-49.887 -2.746,-71.133 -10.117,-19.32 -23.492,-38.844 -43.516,-48.727 -24.421,-8.339 -50.359,-17.004 -76.433,-13.511 -0.637,0.336 -1.278,0.668 -1.914,1.004" style="fill:none;stroke:#000000;stroke-width:3.33505;stroke-linecap:round;stroke-linejoin:round;stroke-miterlimit:10;stroke-dasharray:none;stroke-opacity:1" id="path1092" />
         </g>
         <g id="g1094" transform="scale(1,-1)" style="stroke-width:0.85011">
            <path d="m 802.80731,-225.94979 c 4.39957,-41.1966 36.32094,-73.0539 73.91082,-86.84916 34.97096,-12.72303 77.79697,-9.16134 109.92687,9.54831" style="fill:none;stroke:#000000;stroke-width:3.33505;stroke-linecap:round;stroke-linejoin:round;stroke-miterlimit:10;stroke-dasharray:none;stroke-opacity:1" id="path1096" sodipodi:nodetypes="cccccccc" />
         </g>
         <g id="g1098" transform="scale(1,-1)" style="stroke-width:0.85011" />
         <g id="g1102" transform="scale(1,-1)" style="stroke-width:0.85011">
            <path d="m 1019.078,-192.574 c -6.0227,16.68405 -16.293,29.1671 -30.14,40.293" style="fill:none;stroke:#000000;stroke-width:3.33505;stroke-linecap:round;stroke-linejoin:round;stroke-miterlimit:10;stroke-dasharray:none;stroke-opacity:1" id="path1104" sodipodi:nodetypes="cc" />
         </g>
         <g id="g1106" transform="scale(1,-1)" style="stroke-width:0.85011">
            <path d="m 827.828,-172.957 c 8.51689,-1.79823 16.91927,-4.11966 25.36274,-6.21168 7.51209,-2.08032 15.46639,-5.52473 19.31342,-12.75479 2.84646,-4.53531 2.92852,-10.74131 -0.65462,-14.92771 -3.60174,-4.62625 -9.66092,-6.37737 -15.20973,-7.33382 -8.10214,-0.77131 -16.23277,0.90069 -24.14378,2.49621 -4.67933,1.81447 -11.78019,1.45895 -14.77521,5.32321 0.46764,6.95554 5.33178,30.00908 10.10718,33.40858" style="fill:none;stroke:#000000;stroke-width:3.33505;stroke-linecap:round;stroke-linejoin:round;stroke-miterlimit:10;stroke-dasharray:none;stroke-opacity:1" id="path1108" sodipodi:nodetypes="cccccccc" />
         </g>
         <g id="g1110" transform="scale(1,-1)" style="stroke-width:0.85011">
            <path d="m 1006.543,-210.359 c -5.9417,1.59418 -12.18153,1.6419 -18.156,3.13614 -7.95681,-0.17381 -16.01049,3.12088 -23.79984,0.98205 -6.89542,-2.19038 -12.14679,-9.66459 -9.71975,-16.90713 1.78109,-9.31449 10.83545,-15.87124 19.99605,-16.69576 9.36189,-1.51363 18.75039,-2.78763 27.96844,-5.04217 5.546,1.74643 4.7353,31.82248 3.7111,34.52687" style="fill:none;stroke:#000000;stroke-width:3.33505;stroke-linecap:round;stroke-linejoin:round;stroke-miterlimit:10;stroke-dasharray:none;stroke-opacity:1" id="path1112" sodipodi:nodetypes="ccccccc" />
         </g>
         <g id="g1114" transform="scale(1,-1)" style="stroke-width:0.85011">
            <path d="m 914.66,-197.941 c 0.492,0.703 -0.406,-3.52 -0.348,-5.059 -0.832,-3.223 1.309,4.129 1.071,4.75 -0.492,-0.246 1.879,0.656 -0.297,-0.098" style="fill:none;stroke:#000000;stroke-width:3.33505;stroke-linecap:round;stroke-linejoin:round;stroke-miterlimit:10;stroke-dasharray:none;stroke-opacity:1" id="path1116" />
         </g>
         <g id="g1118" transform="scale(1,-1)" style="stroke-width:0.85011">
            <path d="m 902.23,-211.352 c -1.976,-0.441 4.071,1.532 4.325,1.938 0.32,-0.059 -0.926,-0.309 -0.903,-0.27" style="fill:none;stroke:#000000;stroke-width:3.33505;stroke-linecap:round;stroke-linejoin:round;stroke-miterlimit:10;stroke-dasharray:none;stroke-opacity:1" id="path1120" />
         </g>
         <g id="g1122" transform="scale(1,-1)" style="stroke-width:0.85011">
            <path d="m 922.633,-216.707 c -0.086,-0.195 -0.125,0.461 -2.336,1.797 -1.238,0.89 -2.824,2.586 -3.113,2.926" style="fill:none;stroke:#000000;stroke-width:3.33505;stroke-linecap:round;stroke-linejoin:round;stroke-miterlimit:10;stroke-dasharray:none;stroke-opacity:1" id="path1124" />
         </g>
         <g id="g1126" transform="scale(1,-1)" style="stroke-width:0.85011">
            <path d="m 907.289,-209.469 c -0.527,0.254 0.602,4.614 3.172,4.821 4.289,0.808 8.316,-1.223 8.375,-5.082 -0.43,-3.461 -9.414,-5.766 -9.898,0.05 -0.137,1.137 -0.321,2.657 -0.458,3.52" style="fill:none;stroke:#000000;stroke-width:3.33505;stroke-linecap:round;stroke-linejoin:round;stroke-miterlimit:10;stroke-dasharray:none;stroke-opacity:1" id="path1128" />
         </g>
         <g id="g1130" transform="scale(1,-1)" style="stroke-width:0.85011">
            <path d="m 913.434,-207.746 c -0.067,1.133 -0.442,-3.945 -0.008,-1.016 0.07,0.43 0.394,1.098 -0.067,1.321" style="fill:none;stroke:#000000;stroke-width:3.33505;stroke-linecap:round;stroke-linejoin:round;stroke-miterlimit:10;stroke-dasharray:none;stroke-opacity:1" id="path1132" />
         </g>
         <g id="g1134" transform="scale(1,-1)" style="stroke-width:0.85011">
            <path d="m 942.629,-215.047 c 0.562,0.031 4.371,-0.426 6.473,-0.683 1.878,-0.04 4.175,-0.434 5.996,-0.743" style="fill:none;stroke:#000000;stroke-width:3.33505;stroke-linecap:round;stroke-linejoin:round;stroke-miterlimit:10;stroke-dasharray:none;stroke-opacity:1" id="path1136" />
         </g>
         <g id="g1138" transform="scale(1,-1)" style="stroke-width:0.85011">
            <path d="m 833.359,-164.238 c 0.071,-0.258 3.809,-0.856 5.957,-1.106 6.438,-0.855 13.403,-1.812 19.211,-3.422 3.965,-0.613 8.961,-3.074 12.5,-3.968" style="fill:none;stroke:#000000;stroke-width:2.22336;stroke-linecap:round;stroke-linejoin:round;stroke-miterlimit:10;stroke-dasharray:none;stroke-opacity:1" id="path1140" />
         </g>
         <g id="g1142" transform="scale(1,-1)" style="stroke-width:0.85011">
            <path d="m 833.359,-164.238 c 26.62656,29.18924 71.75836,43.64231 108.63025,27.71393 29.32872,-9.63773 55.38299,-32.63377 63.13975,-63.25293" style="fill:none;stroke:#000000;stroke-width:2.22336;stroke-linecap:round;stroke-linejoin:round;stroke-miterlimit:10;stroke-dasharray:none;stroke-opacity:1" id="path1144" sodipodi:nodetypes="ccc" />
         </g>
         <g id="g1146" transform="scale(1,-1)" style="stroke-width:0.85011">
            <path d="m 871.973,-172.625 c 27.48976,23.50605 78.11421,16.09274 92.316,-19.066" style="fill:none;stroke:#000000;stroke-width:2.22336;stroke-linecap:round;stroke-linejoin:round;stroke-miterlimit:10;stroke-dasharray:none;stroke-opacity:1" id="path1148" />
         </g>
         <g id="g1150" transform="scale(1,-1)" style="stroke-width:0.85011">
            <path d="m 964.289,-191.691 c 6.039,-1.394 14.91,-1.868 21.129,-3.004 6.371,-0.836 13.605,-3.141 19.711,-5.082" style="fill:none;stroke:#000000;stroke-width:2.22336;stroke-linecap:round;stroke-linejoin:round;stroke-miterlimit:10;stroke-dasharray:none;stroke-opacity:1" id="path1152" sodipodi:nodetypes="ccc" />
         </g>
         <g id="g1154" transform="scale(1,-1)" style="stroke-width:0.85011">
            <path d="m 818.062,-217.336 c 4.067,-0.562 9.586,-2.414 14.477,-2.586 7.945,-1.547 19.41,-2.734 24.82,-3.902 -0.019,-0.098 -0.117,-0.238 -0.207,-0.313" style="fill:none;stroke:#000000;stroke-width:2.22336;stroke-linecap:round;stroke-linejoin:round;stroke-miterlimit:10;stroke-dasharray:none;stroke-opacity:1" id="path1156" />
         </g>
         <g id="g1158" transform="scale(1,-1)" style="stroke-width:0.85011">
            <path d="m 818.062,-217.336 c 1.11112,-17.06016 5.23533,-34.6707 17.81198,-47.04611 28.86242,-37.08009 83.68812,-51.34789 126.39302,-30.91848 16.78378,7.42324 31.87464,21.01766 36.93618,39.07426 l 0.26583,1.87433" style="fill:none;stroke:#000000;stroke-width:2.22336;stroke-linecap:round;stroke-linejoin:round;stroke-miterlimit:10;stroke-dasharray:none;stroke-opacity:1" id="path1160" sodipodi:nodetypes="ccccccccccccc" />
         </g>
         <g id="g1162" transform="scale(1,-1)" style="stroke-width:0.85011">
            <path d="m 857.152,-224.137 c 2.086,-2.063 4.856,-9.031 6.907,-11.765 5.449,-11.008 18.535,-16.801 29.933,-21.149 9.301,-3.39 19.61,-4.101 29.137,-4.273 9.363,0.386 18.687,4.726 26.039,8.648 4.09,1.371 5.883,4.18 8.242,6.688" style="fill:none;stroke:#000000;stroke-width:2.22336;stroke-linecap:round;stroke-linejoin:round;stroke-miterlimit:10;stroke-dasharray:none;stroke-opacity:1" id="path1164" sodipodi:nodetypes="cccccc" />
         </g>
         <g id="g1166" transform="scale(1,-1)" style="stroke-width:0.85011">
            <path d="m 958.23,-245.938 c 12.899,-2.5 27.016,-5.796 39.958,-8.374 -0.168,0.14 -0.219,-0.11 -0.157,0.046" style="fill:none;stroke:#000000;stroke-width:2.22336;stroke-linecap:round;stroke-linejoin:round;stroke-miterlimit:10;stroke-dasharray:none;stroke-opacity:1" id="path1168" />
         </g>
      </g>
   </g>
</svg>
