<?xml version="1.0" encoding="UTF-8" standalone="no"?>
<!-- Created by Ashley Blewer - This work is licensed under a Creative Commons Attribution 4.0 International License -->

<svg width="544" height="480" viewBox="0 0 143.93334 127" version="1.1" id="svg2490" inkscape:version="1.1.2 (08b2f3d93c, 2022-04-05)" sodipodi:docname="1967-ivc-4.svg"
   xmlns:inkscape="http://www.inkscape.org/namespaces/inkscape"
   xmlns:sodipodi="http://sodipodi.sourceforge.net/DTD/sodipodi-0.dtd"
   xmlns="http://www.w3.org/2000/svg"
   xmlns:svg="http://www.w3.org/2000/svg">
   <sodipodi:namedview id="namedview2492" pagecolor="#ffffff" bordercolor="#666666" borderopacity="1.0" inkscape:pageshadow="2" inkscape:pageopacity="0.0" inkscape:pagecheckerboard="0" inkscape:document-units="mm" showgrid="false" units="px" inkscape:zoom="0.90583674" inkscape:cx="272.67607" inkscape:cy="177.18425" inkscape:window-width="1848" inkscape:window-height="1136" inkscape:window-x="72" inkscape:window-y="27" inkscape:window-maximized="1" inkscape:current-layer="layer1" />
   <defs id="defs2487" />
   <g inkscape:label="Layer 1" inkscape:groupmode="layer" id="layer1">
      <g id="g4280" transform="matrix(0.26267819,0,0,0.26267819,-166.9397,-97.940341)">
         <g id="g2227" transform="matrix(1.5458355,0,0,1.5500734,-621.81338,-314.80965)" style="stroke-width:0.646014">
            <g id="g2138" transform="matrix(1,0,0,-1,0,792)" style="stroke-width:0.646014">
               <g id="g2140" style="stroke-width:0.646014">
                  <path d="m 820.82849,234.0679 c 17.98369,0.54665 35.93623,1.85783 53.84663,3.54063" style="fill:none;stroke:#000000;stroke-width:1.68957;stroke-linecap:round;stroke-linejoin:round;stroke-miterlimit:10;stroke-dasharray:none;stroke-opacity:1" id="path2142" />
               </g>
            </g>
            <g id="g2144" transform="matrix(1,0,0,-1,0,792)" style="stroke-width:0.646014">
               <g id="g2146" style="stroke-width:0.646014">
                  <path d="m 820.82849,234.0679 c 0,0 1.40054,-21.81875 3.28674,-31.78169" style="fill:none;stroke:#000000;stroke-width:1.68957;stroke-linecap:round;stroke-linejoin:round;stroke-miterlimit:10;stroke-dasharray:none;stroke-opacity:1" id="path2148" sodipodi:nodetypes="cc" />
               </g>
            </g>
            <g id="g2150" transform="matrix(1,0,0,-1,0,792)" style="stroke-width:0.646014">
               <g id="g2152" style="stroke-width:0.646014">
                  <path d="m 824.11523,202.28621 c 9.13328,0.8789 19.44193,3.48924 28.57801,4.3445" style="fill:none;stroke:#000000;stroke-width:1.68957;stroke-linecap:round;stroke-linejoin:round;stroke-miterlimit:10;stroke-dasharray:none;stroke-opacity:1" id="path2154" sodipodi:nodetypes="cc" />
               </g>
            </g>
            <g id="g2156" transform="matrix(1,0,0,-1,0,792)" style="stroke-width:0.646014">
               <g id="g2158" style="stroke-width:0.646014">
                  <path d="m 852.69324,206.63071 c 9.82544,35.0548 49.70036,45.30308 81.17991,51.15317 67.72155,13.37132 140.54965,7.25905 202.60365,-24.19537 29.7707,-17.41457 18.1976,-63.44058 -14.1678,-72.46893 -41.7099,-15.04793 -76.0845,-17.76413 -114.8522,-19.80424 -45.32664,2.21106 -91.56896,10.72542 -132.41211,30.94443 -13.18501,7.91154 -25.64061,23.46949 -20.11582,39.73719" style="fill:none;stroke:#000000;stroke-width:1.68957;stroke-linecap:round;stroke-linejoin:round;stroke-miterlimit:10;stroke-dasharray:none;stroke-opacity:1" id="path2160" sodipodi:nodetypes="ccccccc" />
               </g>
            </g>
            <g id="g2162" transform="matrix(1,0,0,-1,0,792)" style="stroke-width:0.646014">
               <g id="g2164" style="stroke-width:0.646014">
                  <path d="m 1147.8512,180.86539 c 13.2496,-19.61461 6.2298,-33.25852 -3.8965,-43.909 -12.3132,-13.50219 -30.0305,-20.22771 -46.7485,-26.55113 -34.4305,-11.664395 -71.313,-13.552552 -107.38312,-13.161978 -29.94542,1.161478 -60.77689,5.210748 -87.18503,20.381868 -13.97822,7.98672 -28.37019,17.21806 -37.33593,30.90051 -5.65657,10.24713 -7.7838,23.18584 -2.93524,34.16732" style="fill:none;stroke:#000000;stroke-width:1.68957;stroke-linecap:round;stroke-linejoin:round;stroke-miterlimit:10;stroke-dasharray:none;stroke-opacity:1" id="path2166" sodipodi:nodetypes="ccccccc" />
               </g>
            </g>
            <g id="g2168" transform="matrix(1,0,0,-1,0,792)" style="stroke-width:0.646014">
               <g id="g2170" style="stroke-width:0.646014">
                  <path d="m 866.26559,178.0418 c -3.81957,-25.40559 17.75764,-44.21122 37.81126,-51.37164 19.51696,-8.72511 39.05381,-17.80251 60.15184,-22.06387 33.56511,-3.87052 61.85621,-1.89717 95.23341,2.7871 27.2412,6.04047 56.7465,13.74118 78.0783,33.34866 8.2523,9.53229 8.5089,18.92219 8.9408,30.90454 0.2405,1.82262 0.8691,7.44868 1.37,9.2188" style="fill:none;stroke:#000000;stroke-width:1.68957;stroke-linecap:round;stroke-linejoin:round;stroke-miterlimit:10;stroke-dasharray:none;stroke-opacity:1" id="path2172" sodipodi:nodetypes="ccccccc" />
               </g>
            </g>
            <g id="g2174" transform="matrix(1,0,0,-1,0,792)" style="stroke-width:0.646014">
               <g id="g2176" style="stroke-width:0.646014">
                  <path d="m 920.96985,207.2067 c 1.18461,-6.62376 7.68267,-12.36179 14.67459,-13.887" style="fill:none;stroke:#000000;stroke-width:1.68957;stroke-linecap:round;stroke-linejoin:round;stroke-miterlimit:10;stroke-dasharray:none;stroke-opacity:1" id="path2178" sodipodi:nodetypes="cc" />
               </g>
            </g>
            <g id="g2180" transform="matrix(1,0,0,-1,0,792)" style="stroke-width:0.646014">
               <g id="g2182" style="stroke-width:0.646014">
                  <path d="m 935.64444,193.3197 c -10.80002,-4.48876 -21.31964,-13.26225 -32.7633,-16.08358" style="fill:none;stroke:#000000;stroke-width:1.68957;stroke-linecap:round;stroke-linejoin:round;stroke-miterlimit:10;stroke-dasharray:none;stroke-opacity:1" id="path2184" sodipodi:nodetypes="cc" />
               </g>
            </g>
            <g id="g2186" transform="matrix(1,0,0,-1,0,792)" style="stroke-width:0.646014">
               <g id="g2188" style="stroke-width:0.646014">
                  <path d="m 920.96985,207.2067 c -14.08519,1.30831 -30.37443,-2.61685 -43.78351,-6.51249" style="fill:none;stroke:#000000;stroke-width:1.68957;stroke-linecap:round;stroke-linejoin:round;stroke-miterlimit:10;stroke-dasharray:none;stroke-opacity:1" id="path2190" sodipodi:nodetypes="cc" />
               </g>
            </g>
            <g id="g2192" transform="matrix(1,0,0,-1,0,792)" style="stroke-width:0.646014">
               <g id="g2194" style="stroke-width:0.646014">
                  <path d="m 877.18634,200.69421 c 2.93777,-12.24377 14.91794,-19.05348 25.6948,-23.45809" style="fill:none;stroke:#000000;stroke-width:1.68957;stroke-linecap:round;stroke-linejoin:round;stroke-miterlimit:10;stroke-dasharray:none;stroke-opacity:1" id="path2196" />
               </g>
            </g>
            <g id="g2198" transform="matrix(1,0,0,-1,0,792)" style="stroke-width:0.646014">
               <g id="g2200" style="stroke-width:0.646014">
                  <path d="m 956.34827,236.09044 c 35.80254,15.59489 94.87333,9.71137 112.20203,-9.62714 16.0929,-31.34152 -34.4378,-41.12348 -57.5838,-38.61585 -23.12552,0.0396 -71.47049,1.22759 -67.07156,34.24294 3.14384,8.25946 10.72967,14.72269 19.36938,16.55826" style="fill:none;stroke:#000000;stroke-width:1.68957;stroke-linecap:round;stroke-linejoin:round;stroke-miterlimit:10;stroke-dasharray:none;stroke-opacity:1" id="path2202" sodipodi:nodetypes="ccccc" />
               </g>
            </g>
            <g id="g2204" transform="matrix(1,0,0,-1,0,792)" style="stroke-width:0.646014">
               <g id="g2206" style="stroke-width:0.646014">
                  <path d="m 960.40118,229.05351 c -0.64568,7.34745 -14.6253,-3.04647 -4.40024,-1.90266" style="fill:none;stroke:#000000;stroke-width:1.68957;stroke-linecap:round;stroke-linejoin:round;stroke-miterlimit:10;stroke-dasharray:none;stroke-opacity:1" id="path2208" />
               </g>
            </g>
            <g id="g2210" transform="matrix(1,0,0,-1,0,792)" style="stroke-width:0.646014">
               <g id="g2212" style="stroke-width:0.646014">
                  <path d="m 961.68408,229.54039 c 27.25972,12.78969 61.39432,12.27172 88.50112,-1.64368" style="fill:none;stroke:#000000;stroke-width:1.68957;stroke-linecap:round;stroke-linejoin:round;stroke-miterlimit:10;stroke-dasharray:none;stroke-opacity:1" id="path2214" sodipodi:nodetypes="cc" />
               </g>
            </g>
            <g id="g2216" transform="matrix(1,0,0,-1,0,792)" style="stroke-width:0.646014">
               <g id="g2218" style="stroke-width:0.646014">
                  <path d="m 1050.1852,227.89671 c 0.9327,4.12394 14.0887,1.10475 7.8354,-2.89892" style="fill:none;stroke:#000000;stroke-width:1.68957;stroke-linecap:round;stroke-linejoin:round;stroke-miterlimit:10;stroke-dasharray:none;stroke-opacity:1" id="path2220" sodipodi:nodetypes="cc" />
               </g>
            </g>
            <g id="g2222" transform="matrix(1,0,0,-1,0,792)" style="stroke-width:0.646014">
               <g id="g2224" style="stroke-width:0.646014">
                  <path d="m 1058.1372,224.41241 c 17.6096,-23.87806 -20.4671,-29.45825 -42.7158,-28.91656" style="fill:none;stroke:#000000;stroke-width:1.68957;stroke-linecap:round;stroke-linejoin:round;stroke-miterlimit:10;stroke-dasharray:none;stroke-opacity:1" id="path2226" sodipodi:nodetypes="cc" />
               </g>
            </g>
            <g id="g2228" transform="matrix(1,0,0,-1,0,792)" style="stroke-width:0.646014">
               <g id="g2230" style="stroke-width:0.646014">
                  <path d="m 1015.4214,195.49585 c 3.182,-5.6711 -10.5956,-10.14402 -9.1008,-2.43058" style="fill:none;stroke:#000000;stroke-width:1.68957;stroke-linecap:round;stroke-linejoin:round;stroke-miterlimit:10;stroke-dasharray:none;stroke-opacity:1" id="path2232" />
               </g>
            </g>
            <g id="g2234" transform="matrix(1,0,0,-1,0,792)" style="stroke-width:0.646014">
               <g id="g2236" style="stroke-width:0.646014">
                  <path d="m 1006.3206,193.06527 c -17.26078,0.59289 -58.04696,3.31028 -50.22233,29.66785" style="fill:none;stroke:#000000;stroke-width:1.68957;stroke-linecap:round;stroke-linejoin:round;stroke-miterlimit:10;stroke-dasharray:none;stroke-opacity:1" id="path2238" sodipodi:nodetypes="cc" />
               </g>
            </g>
            <g id="g2240" transform="matrix(1,0,0,-1,0,792)" style="stroke-width:0.646014">
               <g id="g2242" style="stroke-width:0.646014">
                  <path d="m 929.71332,219.99457 c 13.5933,-0.85699 -11.45857,-5.2382 0.71091,0.44534" style="fill:none;stroke:#000000;stroke-width:1.68957;stroke-linecap:round;stroke-linejoin:round;stroke-miterlimit:10;stroke-dasharray:none;stroke-opacity:1" id="path2244" />
               </g>
            </g>
            <g id="g2246" transform="matrix(1,0,0,-1,0,792)" style="stroke-width:0.646014">
               <g id="g2248" style="stroke-width:0.646014">
                  <path d="m 964.2791,186.8603 c 9.5795,9.3944 8.53132,-10.65922 0,0" style="fill:none;stroke:#000000;stroke-width:1.68957;stroke-linecap:round;stroke-linejoin:round;stroke-miterlimit:10;stroke-dasharray:none;stroke-opacity:1" id="path2250" sodipodi:nodetypes="cc" />
               </g>
            </g>
            <g id="g2252" transform="matrix(1,0,0,-1,0,792)" style="stroke-width:0.646014">
               <g id="g2254" style="stroke-width:0.646014">
                  <path d="m 1052.1891,189.94016 c 23.3289,5.92847 -8.6316,-10.30094 1.3543,1.55639" style="fill:none;stroke:#000000;stroke-width:1.68957;stroke-linecap:round;stroke-linejoin:round;stroke-miterlimit:10;stroke-dasharray:none;stroke-opacity:1" id="path2256" />
               </g>
            </g>
            <g id="g2258" transform="matrix(1,0,0,-1,0,792)" style="stroke-width:0.646014">
               <g id="g2260" style="stroke-width:0.646014">
                  <path d="m 1079.6975,219.55176 c 12.889,10.30256 5.4654,-11.52524 0.5404,0.57179" style="fill:none;stroke:#000000;stroke-width:1.68957;stroke-linecap:round;stroke-linejoin:round;stroke-miterlimit:10;stroke-dasharray:none;stroke-opacity:1" id="path2262" />
               </g>
            </g>
            <g id="g2264" transform="matrix(1,0,0,-1,0,792)" style="stroke-width:0.646014">
               <g id="g2266" style="stroke-width:0.646014">
                  <path d="m 1040.1471,244.74542 c -11.0294,-2.35671 6.8255,6.27103 -1.7154,0.61125" style="fill:none;stroke:#000000;stroke-width:1.68957;stroke-linecap:round;stroke-linejoin:round;stroke-miterlimit:10;stroke-dasharray:none;stroke-opacity:1" id="path2268" />
               </g>
            </g>
            <g id="g2270" transform="matrix(1,0,0,-1,0,792)" style="stroke-width:0.646014">
               <g id="g2272" style="stroke-width:0.646014">
                  <path d="m 968.2309,244.19502 c -11.46584,4.78401 11.11242,2.42436 0,0" style="fill:none;stroke:#000000;stroke-width:1.68957;stroke-linecap:round;stroke-linejoin:round;stroke-miterlimit:10;stroke-dasharray:none;stroke-opacity:1" id="path2274" sodipodi:nodetypes="cc" />
               </g>
            </g>
            <g id="g2276" transform="matrix(1,0,0,-1,0,792)" style="stroke-width:0.646014">
               <g id="g2278" style="stroke-width:0.646014">
                  <path d="m 976.99182,196.57396 c 17.45222,8.25422 47.51168,6.3111 57.92178,0.24929" style="fill:none;stroke:#000000;stroke-width:1.68957;stroke-linecap:round;stroke-linejoin:round;stroke-miterlimit:10;stroke-dasharray:none;stroke-opacity:1" id="path2280" sodipodi:nodetypes="cc" />
               </g>
            </g>
            <g id="g2282" transform="matrix(1,0,0,-1,0,792)" style="stroke-width:0.646014">
               <g id="g2284" style="stroke-width:0.646014">
                  <path d="m 1058.0206,224.99779 c -0.4767,-6.90256 -2.1432,-15.68607 -3.145,-22.5109" style="fill:none;stroke:#000000;stroke-width:1.68957;stroke-linecap:round;stroke-linejoin:round;stroke-miterlimit:10;stroke-dasharray:none;stroke-opacity:1" id="path2286" sodipodi:nodetypes="cc" />
               </g>
            </g>
            <g id="g2288" transform="matrix(1,0,0,-1,0,792)" style="stroke-width:0.646014">
               <g id="g2290" style="stroke-width:0.646014">
                  <path d="m 1050.1852,227.89671 c -0.2902,-9.54445 -1.8776,-18.98326 -2.5667,-28.4969" style="fill:none;stroke:#000000;stroke-width:1.68957;stroke-linecap:round;stroke-linejoin:round;stroke-miterlimit:10;stroke-dasharray:none;stroke-opacity:1" id="path2292" />
               </g>
            </g>
            <g id="g2294" transform="matrix(1,0,0,-1,0,792)" style="stroke-width:0.646014">
               <g id="g2296" style="stroke-width:0.646014">
                  <path d="m 960.40118,229.05351 2.13058,-25.40965" style="fill:none;stroke:#000000;stroke-width:1.68957;stroke-linecap:round;stroke-linejoin:round;stroke-miterlimit:10;stroke-dasharray:none;stroke-opacity:1" id="path2298" sodipodi:nodetypes="cc" />
               </g>
            </g>
            <g id="g2300" transform="matrix(1,0,0,-1,0,792)" style="stroke-width:0.646014">
               <g id="g2302" style="stroke-width:0.646014">
                  <path d="m 956.00094,227.15085 c 0.99559,-7.02539 -0.50669,-12.31553 1.6077,-19.16709" style="fill:none;stroke:#000000;stroke-width:1.68957;stroke-linecap:round;stroke-linejoin:round;stroke-miterlimit:10;stroke-dasharray:none;stroke-opacity:1" id="path2304" sodipodi:nodetypes="cc" />
               </g>
            </g>
         </g>
      </g>
   </g>
</svg>
