<?xml version="1.0" encoding="UTF-8" standalone="no"?>
<!-- Created by Ashley Blewer - This work is licensed under a Creative Commons Attribution 4.0 International License -->

<svg width="544" height="480" viewBox="0 0 143.93334 127" version="1.1" id="svg2490" inkscape:version="1.1.2 (08b2f3d93c, 2022-04-05)" sodipodi:docname="1967-quarter-inch-3.svg"
   xmlns:inkscape="http://www.inkscape.org/namespaces/inkscape"
   xmlns:sodipodi="http://sodipodi.sourceforge.net/DTD/sodipodi-0.dtd"
   xmlns="http://www.w3.org/2000/svg"
   xmlns:svg="http://www.w3.org/2000/svg">
   <sodipodi:namedview id="namedview2492" pagecolor="#ffffff" bordercolor="#666666" borderopacity="1.0" inkscape:pageshadow="2" inkscape:pageopacity="0.0" inkscape:pagecheckerboard="0" inkscape:document-units="mm" showgrid="false" units="px" inkscape:zoom="0.90583674" inkscape:cx="272.67607" inkscape:cy="177.18425" inkscape:window-width="1848" inkscape:window-height="1136" inkscape:window-x="72" inkscape:window-y="27" inkscape:window-maximized="1" inkscape:current-layer="layer1" />
   <defs id="defs2487" />
   <g inkscape:label="Layer 1" inkscape:groupmode="layer" id="layer1">
      <g id="g12560" transform="matrix(0.30857084,0,0,0.30857084,-215.45282,-109.22649)">
         <g id="g1170" transform="scale(1,-1)">
            <path d="m 705.477,-533.957 c 9.5,2.898 20.066,4.496 29.765,8.102 10,2.511 16.039,4.789 24.891,6.656 0.387,-0.004 0.426,0.215 1.058,0.156" style="fill:none;stroke:#000000;stroke-width:3.92308;stroke-linecap:round;stroke-linejoin:round;stroke-miterlimit:10;stroke-dasharray:none;stroke-opacity:1" id="path1172" />
         </g>
         <g id="g1174" transform="scale(1,-1)">
            <path d="m 707.094,-537.512 c 3.582,-2.066 5.652,-4.718 9.609,-7.691 7.203,-6.277 14.914,-12.516 22.735,-18.047 7.285,-4.203 14.687,-9.492 20.113,-13.52 1.289,-0.679 1.433,-0.871 1.23,-0.882" style="fill:none;stroke:#000000;stroke-width:3.92308;stroke-linecap:round;stroke-linejoin:round;stroke-miterlimit:10;stroke-dasharray:none;stroke-opacity:1" id="path1176" />
         </g>
         <g id="g1178" transform="scale(1,-1)">
            <path d="m 760.266,-579.41 c -0.836,-0.402 0.14,-3.61 1.586,-3.121" style="fill:none;stroke:#000000;stroke-width:3.92308;stroke-linecap:round;stroke-linejoin:round;stroke-miterlimit:10;stroke-dasharray:none;stroke-opacity:1" id="path1180" />
         </g>
         <g id="g1182" transform="scale(1,-1)">
            <path d="m 760.984,-578.707 c 2.387,0.008 6.321,1.812 7.743,2.504" style="fill:none;stroke:#000000;stroke-width:3.92308;stroke-linecap:round;stroke-linejoin:round;stroke-miterlimit:10;stroke-dasharray:none;stroke-opacity:1" id="path1184" />
         </g>
         <g id="g1186" transform="scale(1,-1)">
            <path d="m 762.871,-583.391 c 2.684,1.387 8.606,3.11 11.18,3.582" style="fill:none;stroke:#000000;stroke-width:3.92308;stroke-linecap:round;stroke-linejoin:round;stroke-miterlimit:10;stroke-dasharray:none;stroke-opacity:1" id="path1188" />
         </g>
         <g id="g1190" transform="scale(1,-1)">
            <path d="m 762.871,-583.391 c 0,0 0.28865,-27.10522 2.59,-39.57" style="fill:none;stroke:#000000;stroke-width:3.92308;stroke-linecap:round;stroke-linejoin:round;stroke-miterlimit:10;stroke-dasharray:none;stroke-opacity:1" id="path1192" sodipodi:nodetypes="cc" />
         </g>
         <g id="g1194" transform="scale(1,-1)">
            <path d="m 705.477,-533.957 2.66,-40.961" style="fill:none;stroke:#000000;stroke-width:3.92308;stroke-linecap:round;stroke-linejoin:round;stroke-miterlimit:10;stroke-dasharray:none;stroke-opacity:1" id="path1196" />
         </g>
         <g id="g1198" transform="scale(1,-1)">
            <path d="m 708.137,-574.918 c 0,0 73.164,-62.844 70.699,-60.035" style="fill:none;stroke:#000000;stroke-width:3.92308;stroke-linecap:round;stroke-linejoin:round;stroke-miterlimit:10;stroke-dasharray:none;stroke-opacity:1" id="path1200" />
         </g>
         <g id="g1202" transform="scale(1,-1)">
            <path d="m 773.29114,-588.72319 c 0.618,-6.34 1.67786,-17.93281 1.93186,-24.63181 0.672,-6.735 0.715,-11.942 1.98,-18.235 0.512,-1.762 -0.269,-4.738 1.633,-3.363 -0.305,-0.109 -0.148,1.262 -0.5,1.726" style="fill:none;stroke:#000000;stroke-width:3.92308;stroke-linecap:round;stroke-linejoin:round;stroke-miterlimit:10;stroke-dasharray:none;stroke-opacity:1" id="path1204" sodipodi:nodetypes="ccccc" />
         </g>
         <g id="g1206" transform="scale(1,-1)" />
         <g id="g1210" transform="scale(1,-1)">
            <path d="m 773.29114,-588.72319 c 5.29,-5.445 17.85686,-14.41381 23.52486,-20.13981 6.438,-5.602 13.735,-11.016 20.692,-16.063 8.769,-5.836 16.519,-12.461 25.187,-18.636 5.864,-5.004 12.942,-10.102 19.364,-12.833 1.027,-0.41 4.082,-3.218 4.136,-2.269" style="fill:none;stroke:#000000;stroke-width:3.92308;stroke-linecap:round;stroke-linejoin:round;stroke-miterlimit:10;stroke-dasharray:none;stroke-opacity:1" id="path1212" sodipodi:nodetypes="cccccc" />
         </g>
         <g id="g1214" transform="scale(1,-1)">
            <path d="m 778.836,-634.953 c 6.562,-7.477 18.051,-14.848 25.797,-21.672 8.129,-6.535 15.281,-13.859 23.469,-20.477 3.543,-4.484 8.437,-7.152 12.992,-10.078 6.246,-4.472 12.797,-8.132 18.215,-12.582 2.828,-1.84 5.629,-3.73 8.531,-3.941" style="fill:none;stroke:#000000;stroke-width:3.92308;stroke-linecap:round;stroke-linejoin:round;stroke-miterlimit:10;stroke-dasharray:none;stroke-opacity:1" id="path1216" />
         </g>
         <g id="g1218" transform="scale(1,-1)">
            <path d="m 866.754,-703.914 c -0.031,-1.207 0.922,3.891 0.613,5.234 -0.078,11.242 -0.207,21.946 -0.566,33.336 0.582,2.414 -0.586,4.664 0.492,5.887" style="fill:none;stroke:#000000;stroke-width:3.92308;stroke-linecap:round;stroke-linejoin:round;stroke-miterlimit:10;stroke-dasharray:none;stroke-opacity:1" id="path1220" />
         </g>
         <g id="g1222" transform="scale(1,-1)">
            <path d="m 867.293,-659.457 c 1.949,-1.703 9.191,-6.078 13.078,-5.457 2.981,-0.106 7.426,0.988 8.649,2.676" style="fill:none;stroke:#000000;stroke-width:3.92308;stroke-linecap:round;stroke-linejoin:round;stroke-miterlimit:10;stroke-dasharray:none;stroke-opacity:1" id="path1224" />
         </g>
         <g id="g1226" transform="scale(1,-1)">
            <path d="m 867.84,-703.703 c 0.031,-1.063 6.058,-4.735 8.375,-5.516 2.785,-2.121 10.312,1.895 11.355,2.762 0.09,0.102 0.184,0.246 0.282,0.359" style="fill:none;stroke:#000000;stroke-width:3.92308;stroke-linecap:round;stroke-linejoin:round;stroke-miterlimit:10;stroke-dasharray:none;stroke-opacity:1" id="path1228" />
         </g>
         <g id="g1230" transform="scale(1,-1)">
            <path d="m 887.93,-708.219 c -0.438,11.149 -1.621,23.063 -0.95,34.188 -0.109,3.945 0.809,8.703 0.559,11.855" style="fill:none;stroke:#000000;stroke-width:3.92308;stroke-linecap:round;stroke-linejoin:round;stroke-miterlimit:10;stroke-dasharray:none;stroke-opacity:1" id="path1232" />
         </g>
         <g id="g1234" transform="scale(1,-1)">
            <path d="m 1011.098,-513.758 c 0,0 96.601,-46.051 97.894,-47.191 1.113,-0.442 1.274,-0.684 1.274,-0.758" style="fill:none;stroke:#000000;stroke-width:3.92308;stroke-linecap:round;stroke-linejoin:round;stroke-miterlimit:10;stroke-dasharray:none;stroke-opacity:1" id="path1236" />
         </g>
         <g id="g1238" transform="scale(1,-1)">
            <path d="m 1085.66,-570.594 c 6.207,4.223 14.844,7.278 22.039,10.785 0.84,0.274 0.664,0.149 0.531,0.079" style="fill:none;stroke:#000000;stroke-width:3.92308;stroke-linecap:round;stroke-linejoin:round;stroke-miterlimit:10;stroke-dasharray:none;stroke-opacity:1" id="path1240" />
         </g>
         <g id="g1242" transform="scale(1,-1)">
            <path d="m 1110.477,-564.004 c 0.382,-1.914 -0.461,-7.305 -1.227,-8.621 l -0.07,0.016" style="fill:none;stroke:#000000;stroke-width:3.92308;stroke-linecap:round;stroke-linejoin:round;stroke-miterlimit:10;stroke-dasharray:none;stroke-opacity:1" id="path1244" />
         </g>
         <g id="g1246" transform="scale(1,-1)">
            <path d="m 1087.422,-570.621 c 7.148,1.059 15.281,5.851 23.129,7.047 -0.125,0.101 -0.219,-0.145 -0.153,-0.106" style="fill:none;stroke:#000000;stroke-width:3.92308;stroke-linecap:round;stroke-linejoin:round;stroke-miterlimit:10;stroke-dasharray:none;stroke-opacity:1" id="path1248" />
         </g>
         <g id="g1250" transform="scale(1,-1)">
            <path d="m 1083.852,-570.941 c -5.543,3.828 -14.461,4.664 -21.731,5.355 -8.281,0.512 -16.402,0.609 -24.445,-2.758 -6.856,-3.336 -24.953,-8.226 -22.383,-17 1.508,-5.769 7.176,-9.863 10.387,-13.297" style="fill:none;stroke:#000000;stroke-width:3.92308;stroke-linecap:round;stroke-linejoin:round;stroke-miterlimit:10;stroke-dasharray:none;stroke-opacity:1" id="path1252" sodipodi:nodetypes="ccccc" />
         </g>
         <g id="g1254" transform="scale(1,-1)">
            <path d="m 887.539,-662.176 c 0.399,-0.015 1.555,4.528 4.016,4.844 l 134.695,58.852" style="fill:none;stroke:#000000;stroke-width:3.92308;stroke-linecap:round;stroke-linejoin:round;stroke-miterlimit:10;stroke-dasharray:none;stroke-opacity:1" id="path1256" sodipodi:nodetypes="ccc" />
         </g>
         <g id="g1258" transform="scale(1,-1)">
            <path d="m 1021.3508,-594.39159 c 5.598,2.238 15.5552,4.02859 21.7042,5.63359 1.652,0.781 0.89,-0.039 0.5,-0.363" style="fill:none;stroke:#000000;stroke-width:3.92308;stroke-linecap:round;stroke-linejoin:round;stroke-miterlimit:10;stroke-dasharray:none;stroke-opacity:1" id="path1260" sodipodi:nodetypes="ccc" />
         </g>
         <g id="g1262" transform="scale(1,-1)">
            <path d="m 1043.055,-588.758 c 0,0 6.133,3.969 7.601,4.414 7.758,3.828 16.719,7.727 25.383,6.274 1.938,-0.059 6.516,-2.098 5.902,-1.707 0.028,0.007 -0.011,0.062 -0.089,0.043" style="fill:none;stroke:#000000;stroke-width:3.92308;stroke-linecap:round;stroke-linejoin:round;stroke-miterlimit:10;stroke-dasharray:none;stroke-opacity:1" id="path1264" sodipodi:nodetypes="ccccc" />
         </g>
         <g id="g1266" transform="scale(1,-1)">
            <path d="m 1080.898,-577.215 c 5.489,1.418 15.661,5.086 19.911,5.133 -0.086,-0.258 -0.278,-0.465 -0.34,-0.73" style="fill:none;stroke:#000000;stroke-width:3.92308;stroke-linecap:round;stroke-linejoin:round;stroke-miterlimit:10;stroke-dasharray:none;stroke-opacity:1" id="path1268" />
         </g>
         <g id="g1270" transform="scale(1,-1)">
            <path d="m 1146.211,-581.785 c -12.195,2.273 -27.016,8.824 -39.637,7.207 -0.195,-0.047 -0.707,0.148 -0.578,-0.121" style="fill:none;stroke:#000000;stroke-width:3.92308;stroke-linecap:round;stroke-linejoin:round;stroke-miterlimit:10;stroke-dasharray:none;stroke-opacity:1" id="path1272" />
         </g>
         <g id="g1274" transform="scale(1,-1)">
            <path d="m 1146.211,-581.785 c 1.43,0.375 5.578,-0.5 7.711,-1.176" style="fill:none;stroke:#000000;stroke-width:3.92308;stroke-linecap:round;stroke-linejoin:round;stroke-miterlimit:10;stroke-dasharray:none;stroke-opacity:1" id="path1276" />
         </g>
         <g id="g1278" transform="scale(1,-1)">
            <path d="m 1154.742,-584.312 c 0.844,-6.672 -0.68,-14.418 -1.023,-21.325 -0.879,-5.508 -1.231,-11.211 -2.848,-16.082 -0.16,-1.027 -0.32,-3.949 -1.187,-1.582" style="fill:none;stroke:#000000;stroke-width:3.92308;stroke-linecap:round;stroke-linejoin:round;stroke-miterlimit:10;stroke-dasharray:none;stroke-opacity:1" id="path1280" />
         </g>
         <g id="g1282" transform="scale(1,-1)">
            <path d="m 1120.645,-592.406 c 0,-0.008 -0.016,-0.067 -0.024,-0.086" style="fill:none;stroke:#000000;stroke-width:3.92308;stroke-linecap:round;stroke-linejoin:round;stroke-miterlimit:10;stroke-dasharray:none;stroke-opacity:1" id="path1284" />
         </g>
         <g id="g1286" transform="scale(1,-1)">
            <path d="m 1120.672,-592.801 c 10.504,1.379 21,4.129 31.445,5.965 0.563,-0.078 1.195,0.223 1.688,-0.066" style="fill:none;stroke:#000000;stroke-width:3.92308;stroke-linecap:round;stroke-linejoin:round;stroke-miterlimit:10;stroke-dasharray:none;stroke-opacity:1" id="path1288" />
         </g>
         <g id="g1290" transform="scale(1,-1)">
            <path d="m 1151.066,-623.98 c -3.195,-1.114 -9.004,-2.508 -13.121,-3.77 -8.484,-2.738 -16.339,-4.551 -24.683,-5.676" style="fill:none;stroke:#000000;stroke-width:3.92308;stroke-linecap:round;stroke-linejoin:round;stroke-miterlimit:10;stroke-dasharray:none;stroke-opacity:1" id="path1292" sodipodi:nodetypes="ccc" />
         </g>
         <g id="g1294" transform="scale(1,-1)">
            <path d="m 1119.77,-591.918 c -1.032,-7.187 -1.68,-15.422 -3.438,-22.805 -1.094,-5.875 -1.863,-11.804 -3.07,-17.625 0.074,-0.32 -0.301,-1.164 0,-1.078" style="fill:none;stroke:#000000;stroke-width:3.92308;stroke-linecap:round;stroke-linejoin:round;stroke-miterlimit:10;stroke-dasharray:none;stroke-opacity:1" id="path1296" />
         </g>
         <g id="g1298" transform="scale(1,-1)">
            <path d="m 1120.672,-592.801 c -0.902,0.883 -10.797,4.762 -15.207,6.223 -8.199,2.668 -16.664,6.144 -25.153,6.555 -5.55,0.175 -7.5295,-0.85548 -16.058,-2.7 -8.3984,-2.84812 -12.867,-4.453 -15.586,-10.625 -3.859,-4.957 -2.016,-11.55 2.902,-14.871 1.024,-1.691 4.239,-4.773 4.926,-5.234 0.192,-0.129 0.024,-0.938 0.563,-0.965" style="fill:none;stroke:#000000;stroke-width:3.92308;stroke-linecap:round;stroke-linejoin:round;stroke-miterlimit:10;stroke-dasharray:none;stroke-opacity:1" id="path1300" sodipodi:nodetypes="ccccccsc" />
         </g>
         <g id="g1302" transform="scale(1,-1)">
            <path d="m 1042.324,-590.316 c -2.894,-4.157 -2.617,-10.231 -0.308,-14.95 0.058,-2.679 1.168,-4.593 0.761,-6.937" style="fill:none;stroke:#000000;stroke-width:3.92308;stroke-linecap:round;stroke-linejoin:round;stroke-miterlimit:10;stroke-dasharray:none;stroke-opacity:1" id="path1304" sodipodi:nodetypes="ccc" />
         </g>
         <g id="g1306" transform="scale(1,-1)">
            <path d="m 892.668,-662.148 c 8.836,-0.571 18.625,4.648 27.793,6.39 17.859,6.078 36.301,10.84 53.941,17.344 18.098,5.82 36.453,10.441 54.078,16.566 7.028,1.735 14.067,4.2 20.442,5.266 0.344,-0.441 3.144,1.129 3.18,0.254" style="fill:none;stroke:#000000;stroke-width:3.92308;stroke-linecap:round;stroke-linejoin:round;stroke-miterlimit:10;stroke-dasharray:none;stroke-opacity:1" id="path1308" />
         </g>
         <g id="g1310" transform="scale(1,-1)">
            <path d="m 1042.777,-612.203 c -28.929,-10.961 -60.601,-18.906 -89.953,-30.313 -16.312,-6.539 -33.664,-9.789 -50.027,-15.996 -2.375,-1.394 -11.754,-3.284 -13.777,-3.726" style="fill:none;stroke:#000000;stroke-width:3.92308;stroke-linecap:round;stroke-linejoin:round;stroke-miterlimit:10;stroke-dasharray:none;stroke-opacity:1" id="path1312" sodipodi:nodetypes="cccc" />
         </g>
         <g id="g1314" transform="scale(1,-1)">
            <path d="m 1051.641,-615.383 c -0.36,-0.527 2.414,-0.429 3.601,0.332" style="fill:none;stroke:#000000;stroke-width:3.92308;stroke-linecap:round;stroke-linejoin:round;stroke-miterlimit:10;stroke-dasharray:none;stroke-opacity:1" id="path1316" />
         </g>
         <g id="g1318" transform="scale(1,-1)">
            <path d="m 1113.172,-612.773 c -6.34,2.965 -16.481,8.921 -24.324,10.886 -7.067,2.379 -14.703,0.836 -21.707,0.504 -4.723,-0.941 -10.082,-3.019 -13.664,-4.453 -0.262,-0.215 -2.969,-2.445 -1.329,-2.437" style="fill:none;stroke:#000000;stroke-width:3.92308;stroke-linecap:round;stroke-linejoin:round;stroke-miterlimit:10;stroke-dasharray:none;stroke-opacity:1" id="path1320" sodipodi:nodetypes="ccccc" />
         </g>
         <g id="g1322" transform="scale(1,-1)">
            <path d="m 1056.152,-616.141 c -1.3362,-13.45363 -0.7707,-27.01231 -2.0106,-40.472" style="fill:none;stroke:#000000;stroke-width:3.92308;stroke-linecap:round;stroke-linejoin:round;stroke-miterlimit:10;stroke-dasharray:none;stroke-opacity:1" id="path1324" />
         </g>
         <g id="g1326" transform="scale(1,-1)">
            <path d="m 1056.402,-629.293 c 2.813,0.664 7.715,2 11.102,3.219 15.184,4.371 30.324,10.238 45.668,13.301 0.035,-0.016 0.039,-0.059 0.062,-0.079" style="fill:none;stroke:#000000;stroke-width:3.92308;stroke-linecap:round;stroke-linejoin:round;stroke-miterlimit:10;stroke-dasharray:none;stroke-opacity:1" id="path1328" />
         </g>
         <g id="g1330" transform="scale(1,-1)">
            <path d="m 1115.3307,-617.68378 c -10.75,-3.722 -25.3857,-7.04322 -36.0497,-11.12522 -7.117,-1.961 -15.601,-6.082 -21.859,-6.496 0.082,-0.023 0.152,0.012 0.234,0.02" style="fill:none;stroke:#000000;stroke-width:3.92308;stroke-linecap:round;stroke-linejoin:round;stroke-miterlimit:10;stroke-dasharray:none;stroke-opacity:1" id="path1332" sodipodi:nodetypes="cccc" />
         </g>
         <g id="g1334" transform="scale(1,-1)">
            <path d="m 887.93,-708.219 c 18.203,4.356 40.418,13.117 58.547,19.153 23.671,8.793 47.781,16.742 71.871,24.035 4.59,1.347 9.113,2.66 13.75,4.261 9.1678,0.80714 14.5335,4.19437 22.0434,4.157" style="fill:none;stroke:#000000;stroke-width:3.92308;stroke-linecap:round;stroke-linejoin:round;stroke-miterlimit:10;stroke-dasharray:none;stroke-opacity:1" id="path1336" sodipodi:nodetypes="ccccc" />
         </g>
         <g id="g1338" transform="scale(1,-1)">
            <path d="m 763.25,-518.16 c -6.344,-39.406 40.082,-56.789 71.617,-60.137 55.778,-8.738 119.414,-12.598 168.219,20.781 32.652,18.688 5.8777,56.31592 -19.95541,65.67402 -57.14274,27.5172 -121.69659,18.71698 -178.92759,2.85398 -16.98,-6.992 -39.83882,-14.10827 -41.39782,-35.36627" style="fill:none;stroke:#000000;stroke-width:3.92308;stroke-linecap:round;stroke-linejoin:round;stroke-miterlimit:10;stroke-dasharray:none;stroke-opacity:1" id="path1340" sodipodi:nodetypes="cccccc" />
         </g>
         <g id="g1342" transform="scale(1,-1)">
            <path d="m 763.637,-534.281 c -0.137,-0.949 -2.285,-12.653 -2.645,-15.774 -0.074,-4.425 0.746,-8.949 2.289,-13.218 0.84,-4.465 5.332,-8.645 8.391,-11.942 5.711,-4.547 10.746,-9.29929 17.98,-12.973 12.266,-4.624 23.23741,-8.95914 37.043,-12.562 7.582,-2.043 15.891,-2.57 22.571,-4.086 9.609,-1.418 20.039,-3.105 29.675,-3.762 12.582,-0.304 25.621,0.407 37.672,1.125 13.227,1.84 25.5,3.219 38.688,6.133 5.254,1.445 11.172,2.863 16.039,5.016 12.07,3.765 21.73,11.453 32.836,18.023 6.879,4.656 14.008,10.242 16.429,17.613 0.657,1.989 0.282,1.051 0.434,3.879 0.563,4.954 -1.504,8.778 -1.598,13.188 -0.457,2.406 -1.1044,7.57306 -1.1044,7.57306" style="fill:none;stroke:#000000;stroke-width:3.92308;stroke-linecap:round;stroke-linejoin:round;stroke-miterlimit:10;stroke-dasharray:none;stroke-opacity:1" id="path1344" sodipodi:nodetypes="cccccccccccccccc" />
         </g>
         <g id="g1346" transform="scale(1,-1)">
            <path d="m 786.105,-510.801 c 10.957,-0.363 22.891,-0.621 33.305,0.16 8.063,0.805 16.227,-2.402 21.449,-5.507 0.93,-0.59 2.243,-0.918 2.493,-1.797 0.914,-1.274 1.703,-1.578 0.121,-2.782 -5.047,-2.597 -9.512,-5.511 -16.106,-5.859 -7.285,-0.934 -13.722,-0.723 -21.285,-0.492 -7.273,-0.356 -15.687,0.957 -22.316,0.351 -2.809,0.317 -6.578,0.524 -5.918,0.454 -0.879,1.574 1.402,4.269 1.464,6.371 1.333,3.691 2.809,6.269 5.489,8.879 0.965,0.476 1.195,0.652 1.109,0.687" style="fill:none;stroke:#000000;stroke-width:3.92308;stroke-linecap:round;stroke-linejoin:round;stroke-miterlimit:10;stroke-dasharray:none;stroke-opacity:1" id="path1348" />
         </g>
         <g id="g1350" transform="scale(1,-1)">
            <path d="m 939.969,-523.254 c -0.352,-0.058 1.535,3.051 2.781,3.445 5.355,3.606 14.027,3.918 20.906,4.067 10.074,0.262 21.289,0.785 30.641,-0.113 3.305,-0.106 5.683,0.816 6.59,-0.825 1.418,-3 4.215,-5.886 3.523,-9.265 0.379,-2.176 0.414,-5.383 0.227,-6.293 0.238,-0.082 -0.117,0.074 -2.114,0.48 -7.011,0.156 -13.054,-0.437 -20.125,-1.078 -8.816,-0.793 -18.48,1.414 -26.609,1.832 -5.039,1.465 -10.285,2.539 -13.894,4.961 0.062,-0.016 -1.743,0.613 -1.93,1.355" style="fill:none;stroke:#000000;stroke-width:3.92308;stroke-linecap:round;stroke-linejoin:round;stroke-miterlimit:10;stroke-dasharray:none;stroke-opacity:1" id="path1352" />
         </g>
         <g id="g1354" transform="scale(1,-1)">
            <path d="m 892.969,-514.055 c 0.472,2.059 -0.672,-4.965 -0.27,-5.078 0.285,-0.711 -0.074,7.828 0.071,2.867 -0.079,-0.808 -0.301,-2.382 -1.059,-2.605" style="fill:none;stroke:#000000;stroke-width:3.92308;stroke-linecap:round;stroke-linejoin:round;stroke-miterlimit:10;stroke-dasharray:none;stroke-opacity:1" id="path1356" />
         </g>
         <g id="g1358" transform="scale(1,-1)">
            <path d="m 888.34,-520.918 c 0.969,0.527 4.871,1.188 6.781,0.703 3.977,-0.234 -2.5,-0.84 -3.984,-0.875 -2,0.004 -5.883,-0.328 -1.735,0.313 1.754,0.355 6.575,0.691 6.352,-0.801 -2.418,-0.473 -5.734,-0.699 -7.543,0.418" style="fill:none;stroke:#000000;stroke-width:3.92308;stroke-linecap:round;stroke-linejoin:round;stroke-miterlimit:10;stroke-dasharray:none;stroke-opacity:1" id="path1360" />
         </g>
         <g id="g1362" transform="scale(1,-1)">
            <path d="m 778.801,-534.25 c 7.5139,-21.04722 32.76489,-24.08444 51.08702,-30.9538 53.65637,-14.79038 113.77687,-11.42401 163.31168,14.87671 3.2026,2.47582 5.87047,5.88762 6.74935,9.91783" style="fill:none;stroke:#000000;stroke-width:1.30769;stroke-linecap:round;stroke-linejoin:round;stroke-miterlimit:10;stroke-dasharray:none;stroke-opacity:1" id="path1364" sodipodi:nodetypes="cccccccccc" />
         </g>
         <g id="g1366" transform="scale(1,-1)">
            <path d="m 778.801,-534.25 c 13.582,0.301 30.394,0.117 43.816,0.902 1.871,0.192 5,-0.007 5.504,0.075" style="fill:none;stroke:#000000;stroke-width:1.30769;stroke-linecap:round;stroke-linejoin:round;stroke-miterlimit:10;stroke-dasharray:none;stroke-opacity:1" id="path1368" sodipodi:nodetypes="ccc" />
         </g>
         <g id="g1370" transform="scale(1,-1)">
            <path d="m 828.121,-533.273 c 2.856,-3.625 15.824,-10.817 22.652,-11.825 9.52,-2.66 19.086,-5.547 29.422,-4.472 18.094,0.492 35.672,2.195 52.684,6.402 4.375,1.18 10.027,1.688 14.394,8.258" style="fill:none;stroke:#000000;stroke-width:1.30769;stroke-linecap:round;stroke-linejoin:round;stroke-miterlimit:10;stroke-dasharray:none;stroke-opacity:1" id="path1372" />
         </g>
         <g id="g1374" transform="scale(1,-1)">
            <path d="m 947.273,-534.91 c 9.989,-2.555 25.489,-4.563 35.829,-5.219 3.828,0.094 14.75705,-0.23426 16.84705,-0.28026" style="fill:none;stroke:#000000;stroke-width:1.30769;stroke-linecap:round;stroke-linejoin:round;stroke-miterlimit:10;stroke-dasharray:none;stroke-opacity:1" id="path1376" sodipodi:nodetypes="ccc" />
         </g>
         <g id="g1378" transform="scale(1,-1)">
            <path d="m 797.172,-502.355 c 11.11271,0.88875 22.27474,-0.10113 33.38816,0.32898 7.56283,0.30371 7.23455,1.0742 10.83084,1.73702" style="fill:none;stroke:#000000;stroke-width:1.30769;stroke-linecap:round;stroke-linejoin:round;stroke-miterlimit:10;stroke-dasharray:none;stroke-opacity:1" id="path1380" sodipodi:nodetypes="ccc" />
         </g>
         <g id="g1382" transform="scale(1,-1)">
            <path d="m 841.391,-500.289 c 33.22956,13.78932 77.39761,16.49103 106.375,-7.676" style="fill:none;stroke:#000000;stroke-width:1.30769;stroke-linecap:round;stroke-linejoin:round;stroke-miterlimit:10;stroke-dasharray:none;stroke-opacity:1" id="path1384" sodipodi:nodetypes="cccccc" />
         </g>
         <g id="g1386" transform="scale(1,-1)">
            <path d="m 797.172,-502.355 c 34.03578,16.50623 72.69195,24.52648 110.43519,22.52513 27.92396,-3.1904 54.11323,-14.11165 80.13881,-24.06809" style="fill:none;stroke:#000000;stroke-width:1.30769;stroke-linecap:round;stroke-linejoin:round;stroke-miterlimit:10;stroke-dasharray:none;stroke-opacity:1" id="path1388" />
         </g>
         <g id="g1390" transform="scale(1,-1)">
            <path d="m 947.766,-507.965 c 8.484,2.371 20.882,2.547 29.839,3.895 3.207,0.422 8.34,0.269 10.141,0.172" style="fill:none;stroke:#000000;stroke-width:1.30769;stroke-linecap:round;stroke-linejoin:round;stroke-miterlimit:10;stroke-dasharray:none;stroke-opacity:1" id="path1392" sodipodi:nodetypes="ccc" />
         </g>
         <g id="g1394" transform="scale(1,-1)">
            <path d="m 848.727,-518.324 c 0,0 6.46826,0.32573 9.42877,0.36578 0.21042,1.39639 1.26262,2.38822 1.64168,3.59879" style="fill:none;stroke:#000000;stroke-width:1.30769;stroke-linecap:round;stroke-linejoin:round;stroke-miterlimit:10;stroke-dasharray:none;stroke-opacity:1" id="path1396" sodipodi:nodetypes="ccc" />
         </g>
         <g id="g1398" transform="scale(1,-1)">
            <path d="m 859.797,-514.35948 c -2.277,0.246 -8.938,0.18748 -10.957,0.49248" style="fill:none;stroke:#000000;stroke-width:1.30769;stroke-linecap:round;stroke-linejoin:round;stroke-miterlimit:10;stroke-dasharray:none;stroke-opacity:1" id="path1400" sodipodi:nodetypes="cc" />
         </g>
         <g id="g1402" transform="scale(1,-1)">
            <path d="m 848.84,-513.867 -0.113,-4.457" style="fill:none;stroke:#000000;stroke-width:1.30769;stroke-linecap:round;stroke-linejoin:round;stroke-miterlimit:10;stroke-dasharray:none;stroke-opacity:1" id="path1404" sodipodi:nodetypes="cc" />
         </g>
         <g id="g1406" transform="scale(1,-1)">
            <path d="m 896.59319,-704.95307 c 0.762,3.031 0.49681,11.48807 1.24681,15.28107 0.137,6.551 0.726,16.801 0.047,21.317 -0.024,-0.829 -0.16,-5.254 0.062,-7.36 0.039,-8.656 1.41,-17.219 -0.156,-25.719 0.019,-0.5 3.43088,-2.30977 4.06388,-1.56377" style="fill:none;stroke:#000000;stroke-width:1.30769;stroke-linecap:round;stroke-linejoin:round;stroke-miterlimit:10;stroke-dasharray:none;stroke-opacity:1" id="path1408" sodipodi:nodetypes="cccccc" />
         </g>
         <g id="g1410" transform="scale(1,-1)">
            <path d="m 900.656,-665.906 c 49.37548,15.25335 98.65361,30.88623 148.578,44.277" style="fill:none;stroke:#000000;stroke-width:1.30769;stroke-linecap:round;stroke-linejoin:round;stroke-miterlimit:10;stroke-dasharray:none;stroke-opacity:1" id="path1412" />
         </g>
         <g id="g1414" transform="scale(1,-1)">
            <path d="m 919.68,-671.512 c 0,0 5.09671,-26.25758 4.59288,-24.93989" style="fill:none;stroke:#000000;stroke-width:1.30769;stroke-linecap:round;stroke-linejoin:round;stroke-miterlimit:10;stroke-dasharray:none;stroke-opacity:1" id="path1416" sodipodi:nodetypes="cc" />
         </g>
         <g id="g1418" transform="scale(1,-1)">
            <path d="m 919.68,-671.512 c 8.01855,4.99521 17.77776,6.8854 26.855,9.03901" style="fill:none;stroke:#000000;stroke-width:1.30769;stroke-linecap:round;stroke-linejoin:round;stroke-miterlimit:10;stroke-dasharray:none;stroke-opacity:1" id="path1420" sodipodi:nodetypes="cc" />
         </g>
         <g id="g1422" transform="scale(1,-1)">
            <path d="m 946.535,-662.47299 c 0.93499,-6.84673 2.9752,-25.35683 2.9752,-25.35683" style="fill:none;stroke:#000000;stroke-width:1.30769;stroke-linecap:round;stroke-linejoin:round;stroke-miterlimit:10;stroke-dasharray:none;stroke-opacity:1" id="path1424" sodipodi:nodetypes="cc" />
         </g>
      </g>
   </g>
</svg>
