<?xml version="1.0" encoding="UTF-8" standalone="no"?>
<!-- Created by Ashley Blewer - This work is licensed under a Creative Commons Attribution 4.0 International License -->

<svg width="544" height="480" viewBox="0 0 143.93334 127" version="1.1" id="svg2490" inkscape:version="1.1.2 (08b2f3d93c, 2022-04-05)" sodipodi:docname="1967-ivc-3.svg"
   xmlns:inkscape="http://www.inkscape.org/namespaces/inkscape"
   xmlns:sodipodi="http://sodipodi.sourceforge.net/DTD/sodipodi-0.dtd"
   xmlns="http://www.w3.org/2000/svg"
   xmlns:svg="http://www.w3.org/2000/svg">
   <sodipodi:namedview id="namedview2492" pagecolor="#ffffff" bordercolor="#666666" borderopacity="1.0" inkscape:pageshadow="2" inkscape:pageopacity="0.0" inkscape:pagecheckerboard="0" inkscape:document-units="mm" showgrid="false" units="px" inkscape:zoom="0.90583674" inkscape:cx="272.67607" inkscape:cy="177.18425" inkscape:window-width="1848" inkscape:window-height="1136" inkscape:window-x="72" inkscape:window-y="27" inkscape:window-maximized="1" inkscape:current-layer="layer1" />
   <defs id="defs2487" />
   <g inkscape:label="Layer 1" inkscape:groupmode="layer" id="layer1">
      <g id="g2141" transform="matrix(0.35165533,0,0,0.35165511,-283.36264,-12.809122)" style="stroke-width:1.00319">
         <g id="g2306" transform="matrix(1,0,0,-1,0,792)" style="stroke-width:1.00319">
            <g id="g2308" style="stroke-width:1.00319">
               <path d="m 1148.0067,656.63527 c 5.7548,20.93706 27.2309,36.69162 38.4632,54.23241" style="fill:none;stroke:#000000;stroke-width:2.62373;stroke-linecap:round;stroke-linejoin:round;stroke-miterlimit:10;stroke-dasharray:none;stroke-opacity:1" id="path2310" sodipodi:nodetypes="cc" />
            </g>
         </g>
         <g id="g2312" transform="matrix(1,0,0,-1,0,792)" style="stroke-width:1.00319">
            <g id="g2314" style="stroke-width:1.00319">
               <path d="m 1186.4699,710.86768 c -7.4434,2.64465 -15.4564,3.93743 -23.3438,3.07588" style="fill:none;stroke:#000000;stroke-width:2.62373;stroke-linecap:round;stroke-linejoin:round;stroke-miterlimit:10;stroke-dasharray:none;stroke-opacity:1" id="path2316" />
            </g>
         </g>
         <g id="g2318" transform="matrix(1,0,0,-1,0,792)" style="stroke-width:1.00319">
            <g id="g2320" style="stroke-width:1.00319">
               <path d="m 1163.1261,713.94356 c -1.2019,-7.69761 -19.5359,-26.13569 -25.4921,-38.55545" style="fill:none;stroke:#000000;stroke-width:2.62373;stroke-linecap:round;stroke-linejoin:round;stroke-miterlimit:10;stroke-dasharray:none;stroke-opacity:1" id="path2322" sodipodi:nodetypes="cc" />
            </g>
         </g>
         <g id="g2324" transform="matrix(1,0,0,-1,0,792)" style="stroke-width:1.00319">
            <g id="g2326" style="stroke-width:1.00319">
               <path d="m 973.90509,738.2901 c 47.39321,10.20012 100.67871,1.55494 136.84291,-32.52933 50.2672,-42.24282 59.7463,-116.78359 41.7779,-176.97015 -19.3089,-58.15403 -69.3559,-108.96269 -130.6761,-120.35006 -58.54203,-11.38672 -122.04504,14.6078 -154.48702,64.99864 -39.20231,56.57575 -28.54265,134.29918 5.21155,190.72705 25.61944,42.73002 70.43654,72.59788 120.63769,77.01955" style="fill:none;stroke:#000000;stroke-width:2.62373;stroke-linecap:round;stroke-linejoin:round;stroke-miterlimit:10;stroke-dasharray:none;stroke-opacity:1" id="path2328" sodipodi:nodetypes="ccccccc" />
            </g>
         </g>
         <g id="g2330" transform="matrix(1,0,0,-1,0,792)" style="stroke-width:1.00319">
            <g id="g2332" style="stroke-width:1.00319">
               <path d="M 983.75457,740.14304 C 897.58836,734.0099 833.68202,650.53096 841.49568,567.6068 c 0.60108,-9.76093 1.14935,-17.61141 1.46222,-26.82058" style="fill:none;stroke:#000000;stroke-width:2.62373;stroke-linecap:round;stroke-linejoin:round;stroke-miterlimit:10;stroke-dasharray:none;stroke-opacity:1" id="path2334" sodipodi:nodetypes="ccc" />
            </g>
         </g>
         <g id="g2336" transform="matrix(1,0,0,-1,0,792)" style="stroke-width:1.00319">
            <g id="g2338" style="stroke-width:1.00319">
               <path d="m 1001.2612,665.98041 c -7.63449,14.9484 -9.65163,32.21404 -8.22423,48.77682" style="fill:none;stroke:#000000;stroke-width:2.62373;stroke-linecap:round;stroke-linejoin:round;stroke-miterlimit:10;stroke-dasharray:none;stroke-opacity:1" id="path2340" />
            </g>
         </g>
         <g id="g2342" transform="matrix(1,0,0,-1,0,792)" style="stroke-width:1.00319">
            <g id="g2344" style="stroke-width:1.00319">
               <path d="m 993.03697,714.75723 c 19.66743,8.21755 42.81513,3.26583 62.53373,-2.62411" style="fill:none;stroke:#000000;stroke-width:2.62373;stroke-linecap:round;stroke-linejoin:round;stroke-miterlimit:10;stroke-dasharray:none;stroke-opacity:1" id="path2346" sodipodi:nodetypes="cc" />
            </g>
         </g>
         <g id="g2348" transform="matrix(1,0,0,-1,0,792)" style="stroke-width:1.00319">
            <g id="g2350" style="stroke-width:1.00319">
               <path d="m 1055.5707,712.13312 c 0.3557,-16.78361 -6.2354,-33.84619 -11.8614,-49.61724" style="fill:none;stroke:#000000;stroke-width:2.62373;stroke-linecap:round;stroke-linejoin:round;stroke-miterlimit:10;stroke-dasharray:none;stroke-opacity:1" id="path2352" sodipodi:nodetypes="cc" />
            </g>
         </g>
         <g id="g2354" transform="matrix(1,0,0,-1,0,792)" style="stroke-width:1.00319">
            <g id="g2356" style="stroke-width:1.00319">
               <path d="m 1001.2612,665.98041 c 14.944,1.53962 27.8674,0.089 42.4481,-3.46453" style="fill:none;stroke:#000000;stroke-width:2.62373;stroke-linecap:round;stroke-linejoin:round;stroke-miterlimit:10;stroke-dasharray:none;stroke-opacity:1" id="path2358" sodipodi:nodetypes="cc" />
            </g>
         </g>
         <g id="g2360" transform="matrix(1,0,0,-1,0,792)" style="stroke-width:1.00319">
            <g id="g2362" style="stroke-width:1.00319">
               <path d="m 1093.4865,572.50757 c -18.2586,-6.64356 12.2218,-15.83471 -0.036,-0.13692" style="fill:none;stroke:#000000;stroke-width:2.62373;stroke-linecap:round;stroke-linejoin:round;stroke-miterlimit:10;stroke-dasharray:none;stroke-opacity:1" id="path2364" sodipodi:nodetypes="cc" />
            </g>
         </g>
         <g id="g2366" transform="matrix(1,0,0,-1,0,792)" style="stroke-width:1.00319">
            <g id="g2368" style="stroke-width:1.00319">
               <path d="m 1060.5205,648.01337 c -17.1763,-15.96242 18.2474,-9.50572 -0.1192,0.0932" style="fill:none;stroke:#000000;stroke-width:2.62373;stroke-linecap:round;stroke-linejoin:round;stroke-miterlimit:10;stroke-dasharray:none;stroke-opacity:1" id="path2370" />
            </g>
         </g>
         <g id="g2372" transform="matrix(1,0,0,-1,0,792)" style="stroke-width:1.00319">
            <g id="g2374" style="stroke-width:1.00319">
               <path d="m 977.32458,650.27222 c -12.17253,-16.26812 22.45951,-3.92486 0,0" style="fill:none;stroke:#000000;stroke-width:2.62373;stroke-linecap:round;stroke-linejoin:round;stroke-miterlimit:10;stroke-dasharray:none;stroke-opacity:1" id="path2376" sodipodi:nodetypes="cc" />
            </g>
         </g>
         <g id="g2378" transform="matrix(1,0,0,-1,0,792)" style="stroke-width:1.00319">
            <g id="g2380" style="stroke-width:1.00319">
               <path d="m 929.98309,573.12073 c -20.7846,-16.09718 20.14622,-10.3213 0,0" style="fill:none;stroke:#000000;stroke-width:2.62373;stroke-linecap:round;stroke-linejoin:round;stroke-miterlimit:10;stroke-dasharray:none;stroke-opacity:1" id="path2382" sodipodi:nodetypes="cc" />
            </g>
         </g>
         <g id="g2384" transform="matrix(1,0,0,-1,0,792)" style="stroke-width:1.00319">
            <g id="g2386" style="stroke-width:1.00319">
               <path d="m 965.33777,495.10084 c -15.53676,-14.92236 19.10391,-1.8003 0,0" style="fill:none;stroke:#000000;stroke-width:2.62373;stroke-linecap:round;stroke-linejoin:round;stroke-miterlimit:10;stroke-dasharray:none;stroke-opacity:1" id="path2388" sodipodi:nodetypes="cc" />
            </g>
         </g>
         <g id="g2390" transform="matrix(1,0,0,-1,0,792)" style="stroke-width:1.00319">
            <g id="g2392" style="stroke-width:1.00319">
               <path d="m 1049.6335,500.11145 c -18.3925,-6.62498 17.8058,-7.64891 0,0" style="fill:none;stroke:#000000;stroke-width:2.62373;stroke-linecap:round;stroke-linejoin:round;stroke-miterlimit:10;stroke-dasharray:none;stroke-opacity:1" id="path2394" sodipodi:nodetypes="cc" />
            </g>
         </g>
         <g id="g2396" transform="matrix(1,0,0,-1,0,792)" style="stroke-width:1.00319">
            <g id="g2398" style="stroke-width:1.00319">
               <path d="m 1017.1435,640.08484 c 69.5611,-6.18839 84.4837,-67.57301 53.5066,-106.46248 -19.8288,-36.0838 -71.89425,-55.13288 -106.55729,-28.19204 -28.06665,20.06963 -31.54811,60.65526 -16.27757,89.70874 11.06305,27.58714 39.26841,47.11297 69.32826,44.94578 4.2207,-0.34695 3.5879,-0.36266 3.5879,-0.36266 l -3.5879,0.36266" style="fill:none;stroke:#000000;stroke-width:2.62373;stroke-linecap:round;stroke-linejoin:round;stroke-miterlimit:10;stroke-dasharray:none;stroke-opacity:1" id="path2400" sodipodi:nodetypes="ccccccc" />
            </g>
         </g>
         <g id="g2402" transform="matrix(1,0,0,-1,0,792)" style="stroke-width:1.00319">
            <g id="g2404" style="stroke-width:1.00319">
               <path d="m 964.46436,605.35638 c -6.73864,9.04706 -17.55852,-9.10603 -5.53786,-9.57229" style="fill:none;stroke:#000000;stroke-width:2.62373;stroke-linecap:round;stroke-linejoin:round;stroke-miterlimit:10;stroke-dasharray:none;stroke-opacity:1" id="path2406" />
            </g>
         </g>
         <g id="g2408" transform="matrix(1,0,0,-1,0,792)" style="stroke-width:1.00319">
            <g id="g2410" style="stroke-width:1.00319">
               <path d="m 965.98053,605.17615 c 19.15022,34.95748 76.67437,32.56154 97.15497,0.37853" style="fill:none;stroke:#000000;stroke-width:2.62373;stroke-linecap:round;stroke-linejoin:round;stroke-miterlimit:10;stroke-dasharray:none;stroke-opacity:1" id="path2412" />
            </g>
         </g>
         <g id="g2414" transform="matrix(1,0,0,-1,0,792)" style="stroke-width:1.00319">
            <g id="g2416" style="stroke-width:1.00319">
               <path d="m 1066.1367,604.83981 c 8.5511,6.99362 16.0522,-12.08391 3.4405,-10.33359" style="fill:none;stroke:#000000;stroke-width:2.62373;stroke-linecap:round;stroke-linejoin:round;stroke-miterlimit:10;stroke-dasharray:none;stroke-opacity:1" id="path2418" sodipodi:nodetypes="cc" />
            </g>
         </g>
         <g id="g2420" transform="matrix(1,0,0,-1,0,792)" style="stroke-width:1.00319">
            <g id="g2422" style="stroke-width:1.00319">
               <path d="m 1069.5772,594.50622 c 11.8249,-36.82528 -17.8996,-87.04617 -57.37,-90.57046" style="fill:none;stroke:#000000;stroke-width:2.62373;stroke-linecap:round;stroke-linejoin:round;stroke-miterlimit:10;stroke-dasharray:none;stroke-opacity:1" id="path2424" sodipodi:nodetypes="cc" />
            </g>
         </g>
         <g id="g2426" transform="matrix(1,0,0,-1,0,792)" style="stroke-width:1.00319">
            <g id="g2428" style="stroke-width:1.00319">
               <path d="m 1011.8699,504.21592 c 8.1585,-10.42726 -16.63752,-17.23753 -9.27,-2.37132" style="fill:none;stroke:#000000;stroke-width:2.62373;stroke-linecap:round;stroke-linejoin:round;stroke-miterlimit:10;stroke-dasharray:none;stroke-opacity:1" id="path2430" sodipodi:nodetypes="cc" />
            </g>
         </g>
         <g id="g2432" transform="matrix(1,0,0,-1,0,792)" style="stroke-width:1.00319">
            <g id="g2434" style="stroke-width:1.00319">
               <path d="m 1000.6776,504.57584 c -42.64829,0.68992 -68.66557,59.7959 -41.7511,91.20825" style="fill:none;stroke:#000000;stroke-width:2.62373;stroke-linecap:round;stroke-linejoin:round;stroke-miterlimit:10;stroke-dasharray:none;stroke-opacity:1" id="path2436" sodipodi:nodetypes="cc" />
            </g>
         </g>
         <g id="g2438" transform="matrix(1,0,0,-1,0,792)" style="stroke-width:1.00319">
            <g id="g2440" style="stroke-width:1.00319">
               <path d="m 1041.601,623.68367 c 3.5723,-3.51631 7.8031,-9.55901 9.9335,-14.18943" style="fill:none;stroke:#000000;stroke-width:2.62373;stroke-linecap:round;stroke-linejoin:round;stroke-miterlimit:10;stroke-dasharray:none;stroke-opacity:1" id="path2442" sodipodi:nodetypes="cc" />
            </g>
         </g>
         <g id="g2444" transform="matrix(1,0,0,-1,0,792)" style="stroke-width:1.00319">
            <g id="g2446" style="stroke-width:1.00319">
               <path d="m 1051.5345,609.49424 c 6.9017,-1.30628 7.5264,-3.38559 14.3234,-5.08034" style="fill:none;stroke:#000000;stroke-width:2.62373;stroke-linecap:round;stroke-linejoin:round;stroke-miterlimit:10;stroke-dasharray:none;stroke-opacity:1" id="path2448" sodipodi:nodetypes="cc" />
            </g>
         </g>
         <g id="g2450" transform="matrix(1,0,0,-1,0,792)" style="stroke-width:1.00319">
            <g id="g2452" style="stroke-width:1.00319">
               <path d="m 1056.5192,607.74033 c 0.2061,-1.76615 -1.2168,-5.51595 -2.8741,-4.63465" style="fill:none;stroke:#000000;stroke-width:2.62373;stroke-linecap:round;stroke-linejoin:round;stroke-miterlimit:10;stroke-dasharray:none;stroke-opacity:1" id="path2454" sodipodi:nodetypes="cc" />
            </g>
         </g>
         <g id="g2456" transform="matrix(1,0,0,-1,0,792)" style="stroke-width:1.00319">
            <g id="g2458" style="stroke-width:1.00319">
               <path d="m 1053.9883,602.16394 c 5.4618,-2.66513 11.1306,-4.89348 16.4908,-7.76909" style="fill:none;stroke:#000000;stroke-width:2.62373;stroke-linecap:round;stroke-linejoin:round;stroke-miterlimit:10;stroke-dasharray:none;stroke-opacity:1" id="path2460" />
            </g>
         </g>
         <g id="g2462" transform="matrix(1,0,0,-1,0,792)" style="stroke-width:1.00319">
            <g id="g2464" style="stroke-width:1.00319">
               <path d="m 1053.9883,602.16394 c 10.5054,-35.44669 -18.0146,-76.37858 -52.7559,-83.91787" style="fill:none;stroke:#000000;stroke-width:2.62373;stroke-linecap:round;stroke-linejoin:round;stroke-miterlimit:10;stroke-dasharray:none;stroke-opacity:1" id="path2466" sodipodi:nodetypes="cc" />
            </g>
         </g>
         <g id="g2468" transform="matrix(1,0,0,-1,0,792)" style="stroke-width:1.00319">
            <g id="g2470" style="stroke-width:1.00319">
               <path d="m 1000.4203,517.60535 c 3.1016,-8.52776 -8.74359,-6.74751 -9.53197,-0.52589" style="fill:none;stroke:#000000;stroke-width:2.62373;stroke-linecap:round;stroke-linejoin:round;stroke-miterlimit:10;stroke-dasharray:none;stroke-opacity:1" id="path2472" />
            </g>
         </g>
         <g id="g2474" transform="matrix(1,0,0,-1,0,792)" style="stroke-width:1.00319">
            <g id="g2476" style="stroke-width:1.00319">
               <path d="m 990.74944,516.96635 c -10.40003,0.008 -21.54478,2.8336 -29.5213,9.33915" style="fill:none;stroke:#000000;stroke-width:2.62373;stroke-linecap:round;stroke-linejoin:round;stroke-miterlimit:10;stroke-dasharray:none;stroke-opacity:1" id="path2478" sodipodi:nodetypes="cc" />
            </g>
         </g>
         <g id="g2480" transform="matrix(1,0,0,-1,0,792)" style="stroke-width:1.00319">
            <g id="g2482" style="stroke-width:1.00319">
               <path d="m 1001.232,515.1355 c 4.1274,-3.04146 6.3603,-7.93363 10.6131,-10.83891" style="fill:none;stroke:#000000;stroke-width:2.62373;stroke-linecap:round;stroke-linejoin:round;stroke-miterlimit:10;stroke-dasharray:none;stroke-opacity:1" id="path2484" />
            </g>
         </g>
         <g id="g2486" transform="matrix(1,0,0,-1,0,792)" style="stroke-width:1.00319">
            <g id="g2488" style="stroke-width:1.00319">
               <path d="m 991.97828,514.29303 c 1.75082,-1.83776 7.44601,-10.14674 10.23122,-11.03026" style="fill:none;stroke:#000000;stroke-width:2.62373;stroke-linecap:round;stroke-linejoin:round;stroke-miterlimit:10;stroke-dasharray:none;stroke-opacity:1" id="path2490" sodipodi:nodetypes="cc" />
            </g>
         </g>
      </g>
   </g>
</svg>
