<?xml version="1.0" encoding="UTF-8" standalone="no"?>
<!-- Created by Ashley Blewer - This work is licensed under a Creative Commons Attribution 4.0 International License -->

<svg
   width="544"
   height="480"
   viewBox="0 0 143.93334 127"
   version="1.1"
   id="svg2490"
   inkscape:version="1.2.2 (1:1.2.2+202305151914+b0a8486541)"
   sodipodi:docname="1968-shibaden-half-4.svg"
   xmlns:inkscape="http://www.inkscape.org/namespaces/inkscape"
   xmlns:sodipodi="http://sodipodi.sourceforge.net/DTD/sodipodi-0.dtd"
   xmlns="http://www.w3.org/2000/svg"
   xmlns:svg="http://www.w3.org/2000/svg">
  <sodipodi:namedview
     id="namedview2492"
     pagecolor="#ffffff"
     bordercolor="#666666"
     borderopacity="1.0"
     inkscape:pageshadow="2"
     inkscape:pageopacity="0.0"
     inkscape:pagecheckerboard="0"
     inkscape:document-units="mm"
     showgrid="false"
     units="px"
     inkscape:zoom="0.90583674"
     inkscape:cx="274.33199"
     inkscape:cy="178.2882"
     inkscape:window-width="1846"
     inkscape:window-height="1136"
     inkscape:window-x="0"
     inkscape:window-y="0"
     inkscape:window-maximized="1"
     inkscape:current-layer="layer1"
     inkscape:showpageshadow="2"
     inkscape:deskcolor="#d1d1d1" />
  <defs
     id="defs2487" />
  <g
     inkscape:label="Layer 1"
     inkscape:groupmode="layer"
     id="layer1">
    <g
       id="g9223"
       transform="matrix(0.36172405,0,0,0.3617618,-278.10282,-125.37512)"
       style="stroke-width:1.17795">
      <path
         d="m 814.191,574.543 c 3.891,38.867 23.149,78.898 58.68,97.937 -20.328,-21.867 -45.433,-42.152 -50.125,-73.648 -13.574,-50.27 5.051,-103.039 35.328,-143.414 18.43,-28.379 44.735,-51.559 75.914,-64.836 52.711,-31.609 127.446,-28.293 173.34,13.977 49.391,50.843 49.379,135.886 8.496,191.855 -35.941,56.148 -100.336,94.641 -167.512,94.352 -10.14,-1.274 -49.437,-5.227 -19.062,2.136 45.227,7.938 91.656,-9.269 129.699,-32.66 59.637,-40.75 104.266,-115.707 87.16,-189.445 -9.004,-47.797 -45.5,-90.887 -94.515,-99.797 -41.086,-11.168 -86.168,-5.035 -122.309,17.68 -28.953,12.656 -53.609,33.207 -70.676,59.816 -27.793,35.5 -46.132,78.207 -44.472,123.93"
         style="fill:#000000;fill-opacity:1;fill-rule:nonzero;stroke:none;stroke-width:1.17795"
         id="path1336" />
      <g
         id="g1338"
         transform="scale(1,-1)"
         style="stroke-width:1.17795">
        <path
           d="m 872.117,-670.645 c 1.043,-0.507 2.09,-1.015 3.133,-1.519"
           style="fill:none;stroke:#000000;stroke-width:4.62121;stroke-linecap:round;stroke-linejoin:round;stroke-miterlimit:10;stroke-dasharray:none;stroke-opacity:1"
           id="path1340" />
      </g>
      <g
         id="g1342"
         transform="scale(1,-1)"
         style="stroke-width:1.17795">
        <path
           d="m 870.133,-669.215 c 15.215,-8.109 30.426,-17.668 47.965,-19.508"
           style="fill:none;stroke:#000000;stroke-width:4.62121;stroke-linecap:round;stroke-linejoin:round;stroke-miterlimit:10;stroke-dasharray:none;stroke-opacity:1"
           id="path1344" />
      </g>
      <g
         id="g1346"
         transform="scale(1,-1)"
         style="stroke-width:1.17795">
        <path
           d="m 826.004,-618.688 c -27.965,51.461 -22.531,116.083 7.332,165.489 25.809,46.422 72.344,78.301 123.25,91.371 41.676,14.504 88.258,3.312 125.934,-16.965 15.042,-9.543 28.691,-22.672 35.265,-39.555"
           style="fill:none;stroke:#000000;stroke-width:4.62121;stroke-linecap:round;stroke-linejoin:round;stroke-miterlimit:10;stroke-dasharray:none;stroke-opacity:1"
           id="path1348" />
      </g>
      <g
         id="g1350"
         transform="scale(1,-1)"
         style="stroke-width:1.17795">
        <path
           d="m 873.027,-553.133 c 19.067,5.524 38.157,11.879 58.055,13.5"
           style="fill:none;stroke:#000000;stroke-width:4.62121;stroke-linecap:round;stroke-linejoin:round;stroke-miterlimit:10;stroke-dasharray:none;stroke-opacity:1"
           id="path1352" />
      </g>
      <g
         id="g1354"
         transform="scale(1,-1)"
         style="stroke-width:1.17795">
        <path
           d="m 932.051,-539.852 c -0.551,-10.363 -0.496,-22.191 6.84,-30.414"
           style="fill:none;stroke:#000000;stroke-width:4.62121;stroke-linecap:round;stroke-linejoin:round;stroke-miterlimit:10;stroke-dasharray:none;stroke-opacity:1"
           id="path1356" />
      </g>
      <g
         id="g1358"
         transform="scale(1,-1)"
         style="stroke-width:1.17795">
        <path
           d="m 874.504,-554.434 c -1.074,-9.289 -1.215,-19.488 3.992,-27.679"
           style="fill:none;stroke:#000000;stroke-width:4.62121;stroke-linecap:round;stroke-linejoin:round;stroke-miterlimit:10;stroke-dasharray:none;stroke-opacity:1"
           id="path1360" />
      </g>
      <g
         id="g1362"
         transform="scale(1,-1)"
         style="stroke-width:1.17795">
        <path
           d="m 879.641,-582.59 c 19.558,2.477 38.875,6.586 58.449,8.93"
           style="fill:none;stroke:#000000;stroke-width:4.62121;stroke-linecap:round;stroke-linejoin:round;stroke-miterlimit:10;stroke-dasharray:none;stroke-opacity:1"
           id="path1364" />
      </g>
      <g
         id="g1366"
         transform="scale(1,-1)"
         style="stroke-width:1.17795">
        <path
           d="m 1051.082,-513.062 c 17.496,1.57 34.176,8.05 51.727,9.191"
           style="fill:none;stroke:#000000;stroke-width:4.62121;stroke-linecap:round;stroke-linejoin:round;stroke-miterlimit:10;stroke-dasharray:none;stroke-opacity:1"
           id="path1368" />
      </g>
      <g
         id="g1370"
         transform="scale(1,-1)"
         style="stroke-width:1.17795">
        <path
           d="m 1102.691,-505.156 c 3.426,-8.746 2.317,-18.778 -1.32,-27.266"
           style="fill:none;stroke:#000000;stroke-width:4.62121;stroke-linecap:round;stroke-linejoin:round;stroke-miterlimit:10;stroke-dasharray:none;stroke-opacity:1"
           id="path1372" />
      </g>
      <g
         id="g1374"
         transform="scale(1,-1)"
         style="stroke-width:1.17795">
        <path
           d="m 1050.961,-546.918 c 16.996,4.449 33.871,9.348 50.918,13.609"
           style="fill:none;stroke:#000000;stroke-width:4.62121;stroke-linecap:round;stroke-linejoin:round;stroke-miterlimit:10;stroke-dasharray:none;stroke-opacity:1"
           id="path1376" />
      </g>
      <g
         id="g1378"
         transform="scale(1,-1)"
         style="stroke-width:1.17795">
        <path
           d="m 1049.457,-548.141 c 5.977,10.004 7.387,24.317 -0.035,33.985"
           style="fill:none;stroke:#000000;stroke-width:4.62121;stroke-linecap:round;stroke-linejoin:round;stroke-miterlimit:10;stroke-dasharray:none;stroke-opacity:1"
           id="path1380" />
      </g>
      <g
         id="g1382"
         transform="scale(1,-1)"
         style="stroke-width:1.17795">
        <path
           d="m 1046.25,-509.707 c -16.551,27.031 -57.77,30.531 -79.371,7.641 -11.856,-9.801 -22.465,-21.961 -27.516,-36.711"
           style="fill:none;stroke:#000000;stroke-width:4.62121;stroke-linecap:round;stroke-linejoin:round;stroke-miterlimit:10;stroke-dasharray:none;stroke-opacity:1"
           id="path1384" />
      </g>
      <g
         id="g1386"
         transform="scale(1,-1)"
         style="stroke-width:1.17795">
        <path
           d="m 942.98,-579.609 c 18.348,-27.461 57.567,-21.051 80.95,-4.036 10.156,6.551 19.066,16.133 21.843,28.207"
           style="fill:none;stroke:#000000;stroke-width:4.62121;stroke-linecap:round;stroke-linejoin:round;stroke-miterlimit:10;stroke-dasharray:none;stroke-opacity:1"
           id="path1388" />
      </g>
      <g
         id="g1390"
         transform="scale(1,-1)"
         style="stroke-width:1.17795">
        <path
           d="m 1059.848,-504.148 c -12.703,34.058 -56.539,39.589 -85.723,24.589 -20.922,-11.246 -39.871,-31.148 -49.496,-52.468"
           style="fill:none;stroke:#000000;stroke-width:4.62121;stroke-linecap:round;stroke-linejoin:round;stroke-miterlimit:10;stroke-dasharray:none;stroke-opacity:1"
           id="path1392" />
      </g>
      <g
         id="g1394"
         transform="scale(1,-1)"
         style="stroke-width:1.17795">
        <path
           d="m 931.254,-587.961 c 22.328,-34.562 72.473,-27.047 102.121,-6.727 12.988,8.383 24.281,22.165 23.301,38.473"
           style="fill:none;stroke:#000000;stroke-width:4.62121;stroke-linecap:round;stroke-linejoin:round;stroke-miterlimit:10;stroke-dasharray:none;stroke-opacity:1"
           id="path1396" />
      </g>
      <g
         id="g1398"
         transform="scale(1,-1)"
         style="stroke-width:1.17795">
        <path
           d="m 1018.031,-573.547 c -4.527,7.406 -9.73,14.363 -14.961,21.277"
           style="fill:none;stroke:#000000;stroke-width:4.62121;stroke-linecap:round;stroke-linejoin:round;stroke-miterlimit:10;stroke-dasharray:none;stroke-opacity:1"
           id="path1400" />
      </g>
      <g
         id="g1402"
         transform="scale(1,-1)"
         style="stroke-width:1.17795">
        <path
           d="m 1014.883,-536.895 c 7.949,1.547 15.316,5.637 23.555,5.743"
           style="fill:none;stroke:#000000;stroke-width:4.62121;stroke-linecap:round;stroke-linejoin:round;stroke-miterlimit:10;stroke-dasharray:none;stroke-opacity:1"
           id="path1404" />
      </g>
      <g
         id="g1406"
         transform="scale(1,-1)"
         style="stroke-width:1.17795">
        <path
           d="m 944.262,-541.082 c 6.55,4.156 14.609,3.082 21.679,5.621"
           style="fill:none;stroke:#000000;stroke-width:4.62121;stroke-linecap:round;stroke-linejoin:round;stroke-miterlimit:10;stroke-dasharray:none;stroke-opacity:1"
           id="path1408" />
      </g>
      <g
         id="g1410"
         transform="scale(1,-1)"
         style="stroke-width:1.17795">
        <path
           d="m 983.715,-563.461 c -2.039,-7.66 -4.711,-15.238 -8.848,-22.039"
           style="fill:none;stroke:#000000;stroke-width:4.62121;stroke-linecap:round;stroke-linejoin:round;stroke-miterlimit:10;stroke-dasharray:none;stroke-opacity:1"
           id="path1412" />
      </g>
      <g
         id="g1414"
         transform="scale(1,-1)"
         style="stroke-width:1.17795">
        <path
           d="m 968.777,-549.566 c -8.054,-2.176 -15.336,-7.211 -23.937,-7.196"
           style="fill:none;stroke:#000000;stroke-width:4.62121;stroke-linecap:round;stroke-linejoin:round;stroke-miterlimit:10;stroke-dasharray:none;stroke-opacity:1"
           id="path1416" />
      </g>
      <g
         id="g1418"
         transform="scale(1,-1)"
         style="stroke-width:1.17795">
        <path
           d="m 990.422,-536.309 c 20.476,-13.281 -22.992,-20.027 -0.578,-0.386"
           style="fill:none;stroke:#000000;stroke-width:4.62121;stroke-linecap:round;stroke-linejoin:round;stroke-miterlimit:10;stroke-dasharray:none;stroke-opacity:1"
           id="path1420" />
      </g>
      <g
         id="g1422"
         transform="scale(1,-1)"
         style="stroke-width:1.17795">
        <path
           d="m 985.637,-524.348 c -3.141,5.735 -7.004,11.024 -10.117,16.774"
           style="fill:none;stroke:#000000;stroke-width:4.62121;stroke-linecap:round;stroke-linejoin:round;stroke-miterlimit:10;stroke-dasharray:none;stroke-opacity:1"
           id="path1424" />
      </g>
      <g
         id="g1426"
         transform="scale(1,-1)"
         style="stroke-width:1.17795">
        <path
           d="m 1005.941,-522.613 c 5.723,7.547 9.399,16.402 12.36,25.332"
           style="fill:none;stroke:#000000;stroke-width:4.62121;stroke-linecap:round;stroke-linejoin:round;stroke-miterlimit:10;stroke-dasharray:none;stroke-opacity:1"
           id="path1428" />
      </g>
      <g
         id="g1430"
         transform="scale(1,-1)"
         style="stroke-width:1.17795">
        <path
           d="m 1015.145,-522.762 c 6.82,-0.242 13.082,2.899 19.777,3.567"
           style="fill:none;stroke:#000000;stroke-width:4.62121;stroke-linecap:round;stroke-linejoin:round;stroke-miterlimit:10;stroke-dasharray:none;stroke-opacity:1"
           id="path1432" />
      </g>
    </g>
  </g>
</svg>
