<?xml version="1.0" encoding="UTF-8" standalone="no"?>
<!-- Created by Ashley Blewer - This work is licensed under a Creative Commons Attribution 4.0 International License -->

<svg
   width="544"
   height="480"
   viewBox="0 0 143.93334 127"
   version="1.1"
   id="svg2490"
   inkscape:version="1.2.2 (1:1.2.2+202305151914+b0a8486541)"
   sodipodi:docname="1968-shibaden-half-5.svg"
   xmlns:inkscape="http://www.inkscape.org/namespaces/inkscape"
   xmlns:sodipodi="http://sodipodi.sourceforge.net/DTD/sodipodi-0.dtd"
   xmlns="http://www.w3.org/2000/svg"
   xmlns:svg="http://www.w3.org/2000/svg">
  <sodipodi:namedview
     id="namedview2492"
     pagecolor="#ffffff"
     bordercolor="#666666"
     borderopacity="1.0"
     inkscape:pageshadow="2"
     inkscape:pageopacity="0.0"
     inkscape:pagecheckerboard="0"
     inkscape:document-units="mm"
     showgrid="false"
     units="px"
     inkscape:zoom="0.90583674"
     inkscape:cx="274.33199"
     inkscape:cy="178.2882"
     inkscape:window-width="1846"
     inkscape:window-height="1136"
     inkscape:window-x="0"
     inkscape:window-y="0"
     inkscape:window-maximized="1"
     inkscape:current-layer="layer1"
     inkscape:showpageshadow="2"
     inkscape:deskcolor="#d1d1d1" />
  <defs
     id="defs2487" />
  <g
     inkscape:label="Layer 1"
     inkscape:groupmode="layer"
     id="layer1">
    <g
       id="g9619"
       transform="matrix(0.77400568,0,0,0.77400568,-30.381348,-43.10244)">
      <g
         id="g84"
         transform="scale(1,-1)">
        <path
           d="m 59.965,-196.332 c -4.195,6.945 -3.852,15.223 -6.61,22.746 -3.511,12.922 -1.82,26.316 -1.882,39.504 0.996,16.277 1.617,32.644 3.593,48.812 0.297,10.375 10.825,14.516 19.735,14.883 18.637,2.075 37.379,3.063 56.117,3.442 24.703,-0.867 50.273,1.109 73.875,-7.723 6.633,-2.801 4.375,-11.492 6.176,-17.125 1.715,-9.449 2.019,-19.047 2.39,-28.609 -0.129,-8.75 -0.363,-17.563 -1.359,-26.336 -0.574,-11.77 -2.887,-23.379 -2.832,-35.192 -1.645,-5.726 -3.266,-17.918 -10.488,-17.718 -8.028,0.179 -15.95,-1.7 -23.981,-1.957 -12.14,-0.637 -24.137,-2.93 -36.324,-2.399 -9.242,0.082 -18.457,0.656 -27.672,1.008 -11.015,1.855 -22.215,-0.121 -33.23,1.934 -7.578,1.167 -17.356,1.839 -20.946,9.859 l -0.261,0.848 -0.161,0.89"
           style="fill:none;stroke:#000000;stroke-width:3.92308;stroke-linecap:round;stroke-linejoin:round;stroke-miterlimit:10;stroke-dasharray:none;stroke-opacity:1"
           id="path86" />
      </g>
      <g
         id="g88"
         transform="scale(1,-1)">
        <path
           d="m 68.934,-189.344 c -4.243,9.672 -4.141,20.399 -5.7,30.664 -0.953,10.141 0.301,20.27 -0.007,30.438 0.57,9.504 0.019,19.105 1.418,28.566 0.992,5.949 0.332,15.946 7.511,17.637 10.805,2.262 21.762,3.477 32.805,3.816 12.918,0.856 25.844,1.875 38.789,0.871 12.703,-0.054 25.555,-0.527 37.797,-4.21 6.547,-1.739 18.293,-0.512 17.594,-10.336 1.789,-8.309 3.941,-16.676 3.23,-25.25 0.113,-8.856 2.176,-17.672 1.184,-26.59 -0.711,-7.75 1.074,-16.16 -2.551,-23.27 -1.301,-7.793 -1.809,-15.937 -5.672,-23.047 -10.781,-1.156 -21.012,-5.48 -31.941,-5.824 -13.914,-1.457 -28.012,-1.961 -41.926,-0.41 -8.942,0.023 -17.774,1.746 -26.707,1.965 -8.403,3.277 -19.278,0.066 -26.125,6.89 l -0.367,1.219"
           style="fill:none;stroke:#000000;stroke-width:3.92308;stroke-linecap:round;stroke-linejoin:round;stroke-miterlimit:10;stroke-dasharray:none;stroke-opacity:1"
           id="path90" />
      </g>
      <g
         id="g92"
         transform="scale(1,-1)">
        <path
           d="m 194.051,-108.223 c -0.102,1.996 -2.192,5.196 -4.457,5.977 -3.004,0.914 -5.676,1.121 -8.59,0.808 -2.051,-0.148 -4.785,0.391 -6.879,0.454 -8.82,1.023 -17.844,0.914 -26.777,0.48 -7.172,0.07 -14.438,0.84 -21.715,0.152 -5.231,-0.121 -10.551,-0.511 -15.676,-1.261 -1.711,-0.953 -3.656,-1.93 -4.535,-2.942 -2.293,-2.14 -3.211,-4.148 -4.559,-6.773 -1.722,-2.875 -2.496,-6.145 -4.707,-8.758 -1.371,-2.73 -2.886,-4.398 -3.859,-7.398 -0.617,-1.422 -1.891,-3.145 -2.563,-4.508 -0.976,-1.836 -1.445,-4.055 -1.746,-5.918 0.235,-1.094 0.059,-2.551 0.957,-3.91 1.082,-2.375 4.996,-2.59 7.692,-3.114 6.933,-0.718 13.875,1 20.836,0.942 5.156,0.676 10.273,0.515 15.394,-0.563 1.949,-0.906 8.692,2.106 7.129,-1.152 -1.363,-2.375 -1.289,-5.016 -2.734,-7.527 -3.098,-4.243 -7.387,-8.082 -12.821,-8.414 -3.191,-0.067 -7.398,-0.028 -9.379,2.753 -0.855,1.34 -1.742,2.098 -1.874,3.29 -0.235,1.218 -0.118,1.144 -0.762,1.894 -2.176,0.883 -5.004,-1.293 -7.637,-1.957 -5.043,-1.652 -10.508,-1.91 -15.469,-4.023 -3.429,-0.653 -7.847,-2.637 -11.293,-3.133 -3.695,0.164 -2.91,-1.856 -1.242,-3.828 1.879,-4.934 8.195,-3.446 12.395,-4.071 6.367,-0.453 12.722,0.313 19.097,0.282 5.532,-0.036 11.039,-0.082 16.571,-0.278 5.507,0.535 11.035,0 16.527,0.778 5.395,0.316 10.902,-0.364 16.199,0.726 3.024,1.172 6.266,2.442 8.512,4.324 2.547,1.825 3.84,4.774 5.316,7.485 0.875,2.344 2.629,4.105 3.528,6.386 1.597,2.641 2.523,5.715 3.597,8.262 1.2,3.227 2.395,6.793 3.368,10.18 0.191,1.922 0.519,4.558 -1.071,6.117 -1.363,1.91 -3.992,2.582 -6.398,3.02 -3.766,0.863 -7.832,1.683 -11.707,1.082 -4.145,-0.422 -8.477,-0.239 -12.598,-1.383 -5.437,-0.758 -10.98,-0.692 -16.394,-0.098 -1.875,0.801 -5.415,-1.558 -3.743,1.094 1.235,4.695 5.145,8.203 8.942,11.066 4.531,2.371 10.543,3.575 15.344,1.594 1.941,-1.285 3.296,-3.82 3.117,-6.156 -0.867,-2.223 4.781,1.672 6.765,2.203 5.821,1.043 11.356,3.48 17.293,4.027 3.293,1 7.45,1.348 10.133,2.164 0.637,-0.078 2.676,0.953 2.34,0.344"
           style="fill:none;stroke:#000000;stroke-width:2.61538;stroke-linecap:round;stroke-linejoin:round;stroke-miterlimit:10;stroke-dasharray:none;stroke-opacity:1"
           id="path94" />
      </g>
      <g
         id="g96"
         transform="scale(1,-1)">
        <path
           d="m 103.016,-131.121 c -0.246,0.094 0.179,-0.024 -0.336,0.254 -0.84,0.047 -0.649,0.265 -1.477,0.16 -0.375,0.078 -0.508,0.109 -0.613,0.086 -0.422,0.023 -1.102,-0.285 -0.957,-0.141 -0.195,0.035 -1.258,-0.031 -1.215,-0.148 -0.031,0.129 -1.375,-0.113 -1.262,-0.203 -0.527,-0.02 -0.687,-0.121 -0.781,-0.332 0.289,0.011 -0.547,0.015 -0.102,-0.188 -0.441,-0.32 -0.812,-0.699 -1.027,-0.82 0.473,0.156 -0.129,-0.211 -0.133,-0.375 0,-0.285 -0.043,-0.11 0.047,-0.496 0.086,-0.324 0.231,-0.992 0.418,-0.973 -0.121,0.137 0.207,-0.402 0.242,-0.152 -0.011,-0.063 0.84,-0.274 1.043,-0.176 0.61,-0.027 0.895,0.164 1.414,0.043 0.559,0.055 0.602,0.062 1.305,0.059 -0.02,-0.008 0.141,-0.125 0.133,-0.039 0.672,-0.145 0.031,-0.172 0.871,-0.168 -0.004,-0.129 0.488,-0.52 0.562,-0.723 -0.007,-0.059 0.907,-0.727 0.645,-1.207 0.18,-0.391 -0.148,-0.211 0.051,-0.543 -0.102,-0.465 -0.184,-0.074 -0.11,-0.465 -0.543,-0.199 -0.101,-0.246 -0.539,-0.41 0.243,-0.141 -0.156,0.012 -0.207,-0.106 -0.547,-0.468 -1.246,0.09 -2.093,0.032 -0.696,0.129 -1.098,0.05 -1.348,0.058 -0.891,0.219 -2.668,0.215 -3.485,0.215 -0.433,0.188 -0.25,-0.578 -0.648,0.262"
           style="fill:none;stroke:#000000;stroke-width:1.30769;stroke-linecap:round;stroke-linejoin:round;stroke-miterlimit:10;stroke-dasharray:none;stroke-opacity:1"
           id="path98" />
      </g>
      <g
         id="g100"
         transform="scale(1,-1)">
        <path
           d="m 109.246,-132.488 c 0.039,0.101 0.008,0.121 0.008,0.105 0.058,-0.316 0.121,-0.437 -0.293,-0.687 0.039,-0.172 -0.387,-1.063 -0.41,-1.407 -0.36,-0.425 -0.113,-0.75 -0.563,-1.375 0.078,-0.363 -0.976,-1.453 -0.265,-2.046 -0.828,-0.153 -0.176,-0.907 -0.633,-0.563 0.09,-0.129 0.039,0.086 -0.074,0.449"
           style="fill:none;stroke:#000000;stroke-width:1.30769;stroke-linecap:round;stroke-linejoin:round;stroke-miterlimit:10;stroke-dasharray:none;stroke-opacity:1"
           id="path102" />
      </g>
      <g
         id="g104"
         transform="scale(1,-1)">
        <path
           d="m 108.988,-134.938 c 0.797,-0.398 2.785,0.403 3.324,0.231 0.149,-0.02 0.059,-0.102 -0.035,-0.152"
           style="fill:none;stroke:#000000;stroke-width:1.30769;stroke-linecap:round;stroke-linejoin:round;stroke-miterlimit:10;stroke-dasharray:none;stroke-opacity:1"
           id="path106" />
      </g>
      <g
         id="g108"
         transform="scale(1,-1)">
        <path
           d="m 114.898,-131.727 c -0.058,-0.664 -0.16,-0.152 -0.023,-0.222 -0.402,-0.668 -0.289,-1.434 -1.004,-2.008 -0.375,-0.852 -1.269,-1.816 -1.32,-2.5 -0.149,-0.906 -0.613,-1.746 -0.613,-1.734 l -0.008,-0.032 0.004,-0.007"
           style="fill:none;stroke:#000000;stroke-width:1.30769;stroke-linecap:round;stroke-linejoin:round;stroke-miterlimit:10;stroke-dasharray:none;stroke-opacity:1"
           id="path110" />
      </g>
      <g
         id="g112"
         transform="scale(1,-1)">
        <path
           d="m 121.867,-132.043 c -1.172,-0.019 -0.699,0.039 -0.644,0.012 0.129,-0.391 -0.688,-0.621 0.05,-0.828 -1.105,-0.766 -1.273,-2.168 -2.082,-3.063 0.157,-0.492 -0.285,-0.707 -0.367,-1.266 -0.172,-0.523 -0.687,-0.824 -0.094,-0.835 -0.546,-0.188 -0.339,-0.329 -0.351,-0.047"
           style="fill:none;stroke:#000000;stroke-width:1.30769;stroke-linecap:round;stroke-linejoin:round;stroke-miterlimit:10;stroke-dasharray:none;stroke-opacity:1"
           id="path114" />
      </g>
      <g
         id="g116"
         transform="scale(1,-1)">
        <path
           d="m 128.605,-131.145 c -0.019,-0.265 0.094,0.161 -0.054,-0.261 0.273,0.129 -0.539,-0.809 -0.442,-1.418 -0.25,-0.262 -0.277,-1.168 -1.113,-1.883 -0.316,-0.559 -0.695,-1.32 -0.656,-1.66 -0.059,-0.309 -0.371,-1.469 -0.254,-1.863 0.156,0.128 0.059,-0.102 0.133,0.277 l -0.008,0.07"
           style="fill:none;stroke:#000000;stroke-width:1.30769;stroke-linecap:round;stroke-linejoin:round;stroke-miterlimit:10;stroke-dasharray:none;stroke-opacity:1"
           id="path118" />
      </g>
      <g
         id="g120"
         transform="scale(1,-1)">
        <path
           d="m 128.09,-130.957 c 0.269,-0.063 -0.125,0.039 0.937,-0.262 0.922,-0.164 2.024,0.106 2.535,-0.277 0.145,-0.383 0.594,-0.652 0.415,-1.457 -0.223,-0.207 0.246,-0.348 -0.301,-0.598 -0.008,-0.203 -0.992,-0.773 -1.391,-0.601 -1.144,-0.004 -0.18,-0.227 -1.336,-0.168 -0.777,-0.004 -0.433,0.117 -1.058,0.129 -0.606,0.336 -0.52,-0.024 -1.09,0.164 0.469,-0.192 -0.141,0.039 0.355,-0.11 -0.324,0.059 1.813,0.086 1.602,0.059 1.019,0.094 1.316,-0.383 1.609,-0.516 -0.078,-0.23 0.695,-0.773 0.363,-0.879 0.161,-0.351 0.082,-0.211 0.071,-0.812 -0.434,-0.215 0.183,-0.348 -0.555,-0.481 0.824,-0.324 -1.141,-0.828 -1.504,-1.211 -0.539,-0.273 -1.582,-0.316 -2.691,-0.007 -0.863,0.156 -0.215,-0.153 -0.559,0.183 l -0.031,0.055"
           style="fill:none;stroke:#000000;stroke-width:1.30769;stroke-linecap:round;stroke-linejoin:round;stroke-miterlimit:10;stroke-dasharray:none;stroke-opacity:1"
           id="path122" />
      </g>
      <g
         id="g124"
         transform="scale(1,-1)">
        <path
           d="m 134.984,-136.438 c 0.059,-0.98 -0.152,-0.515 0.024,-0.382 0.078,-0.11 0.551,0.523 1.195,1.121 0.735,1.137 1.586,2.824 2.668,3.461 0.801,0.812 0.992,1.426 1.09,1.609 0.445,0.113 -0.149,0.172 0.394,0.109 -0.636,-0.007 0.313,-0.789 0.137,-0.988 0.305,-0.629 0.238,-0.965 0.266,-1.582 -0.063,-0.476 0.004,-1.617 -0.039,-2.129 0.203,-0.363 0.023,-0.777 0.25,-1.324 -0.473,-0.684 0.238,-1.25 -0.328,-1.145 0.629,0.372 0.117,-0.39 0.129,0.254"
           style="fill:none;stroke:#000000;stroke-width:1.30769;stroke-linecap:round;stroke-linejoin:round;stroke-miterlimit:10;stroke-dasharray:none;stroke-opacity:1"
           id="path126" />
      </g>
      <g
         id="g128"
         transform="scale(1,-1)">
        <path
           d="m 136.957,-135.066 c -0.457,-0.246 0.254,0.132 0.102,0.015 0.828,0.106 3.164,0.36 2.757,0.281 -0.285,-0.058 0.028,0.024 0.059,0.024"
           style="fill:none;stroke:#000000;stroke-width:1.30769;stroke-linecap:round;stroke-linejoin:round;stroke-miterlimit:10;stroke-dasharray:none;stroke-opacity:1"
           id="path130" />
      </g>
      <g
         id="g132"
         transform="scale(1,-1)">
        <path
           d="m 149.473,-131.418 c -0.106,-0.746 -0.121,-0.305 0.027,-0.227 0.363,-0.156 -0.285,-0.386 -0.164,-0.71 -0.438,-0.457 -0.285,-1.383 -0.754,-1.75 0.25,-1.29 -1.828,-2.442 -1.531,-3.129 0.289,0.019 -0.168,-0.047 0.074,-0.094 -0.148,-0.106 -0.18,0.066 -0.051,0.144"
           style="fill:none;stroke:#000000;stroke-width:1.30769;stroke-linecap:round;stroke-linejoin:round;stroke-miterlimit:10;stroke-dasharray:none;stroke-opacity:1"
           id="path134" />
      </g>
      <g
         id="g136"
         transform="scale(1,-1)">
        <path
           d="m 150.25,-132.012 c 0.906,0.356 -0.438,0.485 0.078,0.266 -0.137,0.168 1.195,0.039 1.652,-0.031 0.973,-0.118 1.313,-0.68 2.079,-0.848 0.195,-0.324 0.703,-0.652 0.886,-1.125 -0.371,-0.086 0.446,-0.223 0.047,-0.633 0.086,-0.805 -0.738,-1.297 -1.152,-1.906 -1.328,-0.555 -2.356,-1.125 -3.621,-1.063 -1.356,0.004 -1.957,-0.168 -2.762,-0.097 0.156,0.168 -0.676,-0.156 -0.828,0.437"
           style="fill:none;stroke:#000000;stroke-width:1.30769;stroke-linecap:round;stroke-linejoin:round;stroke-miterlimit:10;stroke-dasharray:none;stroke-opacity:1"
           id="path138" />
      </g>
      <g
         id="g140"
         transform="scale(1,-1)">
        <path
           d="m 161.703,-132.137 c -0.043,0.692 0.402,0.192 0.008,0.328 -0.227,0.141 0.371,-0.41 0.207,-0.789 -0.34,-0.535 -0.477,-1.257 -1.106,-2.066 -0.472,-0.895 -0.449,-1.043 -0.882,-1.801 -0.211,-0.437 -0.438,-1.328 -0.446,-1.207 0.243,0.035 -0.101,-0.07 0.192,0.031 -0.684,-0.089 1.519,-0.019 2.008,0.086 0.996,0.317 1.214,0.071 2.183,0.27 0.395,-0.078 0.676,0.004 0.547,-0.059 0.199,-0.004 -0.695,-0.082 -0.285,0.028"
           style="fill:none;stroke:#000000;stroke-width:1.30769;stroke-linecap:round;stroke-linejoin:round;stroke-miterlimit:10;stroke-dasharray:none;stroke-opacity:1"
           id="path142" />
      </g>
      <g
         id="g144"
         transform="scale(1,-1)">
        <path
           d="m 161.285,-134.867 c -0.117,0.305 1.172,-0.067 2.035,0.144 0.91,-0.097 0.762,-0.027 1.282,-0.101"
           style="fill:none;stroke:#000000;stroke-width:1.30769;stroke-linecap:round;stroke-linejoin:round;stroke-miterlimit:10;stroke-dasharray:none;stroke-opacity:1"
           id="path146" />
      </g>
      <g
         id="g148"
         transform="scale(1,-1)">
        <path
           d="m 162.648,-132.504 c -0.32,-0.184 -0.16,0.074 0.153,0.008 1.215,0.094 2.676,0.18 3.672,-0.227 l -0.219,-0.004 -0.055,-0.054"
           style="fill:none;stroke:#000000;stroke-width:1.30769;stroke-linecap:round;stroke-linejoin:round;stroke-miterlimit:10;stroke-dasharray:none;stroke-opacity:1"
           id="path150" />
      </g>
      <g
         id="g152"
         transform="scale(1,-1)">
        <path
           d="m 169.309,-138.543 c -0.039,0.414 -0.145,0.09 -0.184,0.242 0.195,0.129 -0.016,-0.062 0.484,0.606 0.098,0.465 -0.05,1.023 0.375,1.867 0.422,1.324 0.34,2.336 0.711,3.516 0.059,0.582 0.371,1.07 0.157,0.835 0.238,-0.05 0.152,0.149 0.039,-0.015 0.175,0.031 0.269,-0.055 0.496,-0.574 0.117,-0.262 0.39,-0.645 0.644,-1.364 0.438,-0.566 0.453,-0.851 0.61,-1.613 0.375,-0.324 0.875,-1.434 1.277,-1.797 0.144,-0.16 -0.301,-0.265 0.277,-0.453 -0.019,-0.355 0.446,-0.301 0.121,-0.48 -0.207,0.019 0.27,0.152 -0.054,-0.211 0.519,-0.157 -0.285,-0.082 0.133,-0.098 -0.254,0.078 0.226,-0.152 0.121,0.258 -0.157,0.914 0.39,1.906 0.406,2.773 -0.051,0.375 0.629,0.946 0.531,1.664 0.274,0.692 0.676,1.856 0.981,1.977 -0.118,-0.082 0.168,0.008 0.007,-0.016 -0.089,0.004 -0.043,0.016 0.075,-0.008 0.066,-0.117 -0.153,0.079 -0.262,-0.121 -0.121,0 -0.184,-0.078 -0.277,-0.097"
           style="fill:none;stroke:#000000;stroke-width:1.30769;stroke-linecap:round;stroke-linejoin:round;stroke-miterlimit:10;stroke-dasharray:none;stroke-opacity:1"
           id="path154" />
      </g>
    </g>
  </g>
</svg>
