<?xml version="1.0" encoding="UTF-8" standalone="no"?>
<!-- Created by Ashley Blewer - This work is licensed under a Creative Commons Attribution 4.0 International License -->

<svg width="544" height="480" viewBox="0 0 143.93334 127" version="1.1" id="svg2490" inkscape:version="1.1.2 (08b2f3d93c, 2022-04-05)" sodipodi:docname="1969-eiaj-4.svg"
   xmlns:inkscape="http://www.inkscape.org/namespaces/inkscape"
   xmlns:sodipodi="http://sodipodi.sourceforge.net/DTD/sodipodi-0.dtd"
   xmlns="http://www.w3.org/2000/svg"
   xmlns:svg="http://www.w3.org/2000/svg">
   <sodipodi:namedview id="namedview2492" pagecolor="#ffffff" bordercolor="#666666" borderopacity="1.0" inkscape:pageshadow="2" inkscape:pageopacity="0.0" inkscape:pagecheckerboard="0" inkscape:document-units="mm" showgrid="false" units="px" inkscape:zoom="0.90583674" inkscape:cx="272.67607" inkscape:cy="177.18425" inkscape:window-width="1848" inkscape:window-height="1136" inkscape:window-x="72" inkscape:window-y="27" inkscape:window-maximized="1" inkscape:current-layer="layer1" />
   <defs id="defs2487" />
   <g inkscape:label="Layer 1" inkscape:groupmode="layer" id="layer1">
      <g id="g1804" transform="matrix(0.51463827,0,0,0.51458236,9.0323587,-271.87942)" style="stroke-width:0.959808">
         <g id="g4523" transform="scale(1,-1)" style="stroke-width:0.959808">
            <path d="m 202.848,-587.465 c -0.055,2.903 1.429,5.227 3.449,7.004 3.301,2.449 8.152,-1.223 8.605,-4.871 1.211,-2.766 1.36,-5.691 1.145,-8.617 -0.508,-2.821 -2.395,-6.254 -5.848,-5.789 -3.125,0.113 -4.304,3.363 -5.5,5.73 -2.058,2.574 -2.015,6.094 -1.172,9.121 0.34,0.672 0.442,2.25 1.461,2.172" style="fill:none;stroke:#000000;stroke-width:2.51026;stroke-linecap:round;stroke-linejoin:round;stroke-miterlimit:10;stroke-dasharray:none;stroke-opacity:1" id="path4525" />
         </g>
         <g id="g4527" transform="scale(1,-1)" style="stroke-width:0.959808">
            <path d="m 205.461,-579.301 c -2.43,0.793 -4.5,-0.429 -5.816,-2.418 -1.95,-2.84 -1.829,-6.461 -1.707,-9.769 -0.551,-3.293 2.199,-5.746 4.234,-7.95 0.625,-0.769 2.808,-0.785 2.742,-0.511" style="fill:none;stroke:#000000;stroke-width:2.51026;stroke-linecap:round;stroke-linejoin:round;stroke-miterlimit:10;stroke-dasharray:none;stroke-opacity:1" id="path4529" />
         </g>
         <g id="g4531" transform="scale(1,-1)" style="stroke-width:0.959808">
            <path d="m 196.461,-583.73 c -0.621,-0.532 -4.582,0.031 -6.109,0.988 -2.164,0.402 -5.403,2.078 -7.282,0.523 -1.953,-2.476 -3.625,-4.843 -4.914,-7.726 -0.242,-0.653 0.11,-2.18 0.996,-1.684" style="fill:none;stroke:#000000;stroke-width:2.51026;stroke-linecap:round;stroke-linejoin:round;stroke-miterlimit:10;stroke-dasharray:none;stroke-opacity:1" id="path4533" />
         </g>
         <g id="g4535" transform="scale(1,-1)" style="stroke-width:0.959808">
            <path d="m 189.566,-580.848 c 0.153,3.305 -1.027,6.864 -1.062,10.301 -0.535,1.977 0.414,4.543 -0.805,5.899 -3.047,0.378 -6.086,0.675 -9.051,1.066 -1.96,-0.109 -2.933,-2.793 -3.238,-4.59 -0.035,-3.441 -0.062,-7.004 -0.519,-10.555 0.453,-2.964 0.058,-6.058 0.461,-8.964 0.242,-1.243 0.257,-3.704 0.597,-4.418" style="fill:none;stroke:#000000;stroke-width:2.51026;stroke-linecap:round;stroke-linejoin:round;stroke-miterlimit:10;stroke-dasharray:none;stroke-opacity:1" id="path4537" />
         </g>
         <g id="g4539" transform="scale(1,-1)" style="stroke-width:0.959808">
            <path d="m 182.289,-592.43 c -1.277,-0.359 -2.586,-0.105 -3.887,-0.523" style="fill:none;stroke:#000000;stroke-width:2.51026;stroke-linecap:round;stroke-linejoin:round;stroke-miterlimit:10;stroke-dasharray:none;stroke-opacity:1" id="path4541" />
         </g>
         <g id="g4543" transform="scale(1,-1)" style="stroke-width:0.959808">
            <path d="m 178.387,-590.699 c -1.094,-1.094 -3.09,-1.344 -3.547,-2.996" style="fill:none;stroke:#000000;stroke-width:2.51026;stroke-linecap:round;stroke-linejoin:round;stroke-miterlimit:10;stroke-dasharray:none;stroke-opacity:1" id="path4545" />
         </g>
         <g id="g4547" transform="scale(1,-1)" style="stroke-width:0.959808">
            <path d="m 173.316,-593.223 c -5.14,-1.617 -10.671,-1.007 -15.933,-2.043 -3.508,-0.398 -11.86,-0.332 -12.317,-0.254 9.563,0.309 19.043,2.219 28.629,2.11 -4.511,-1.836 -9.683,-1.731 -14.531,-2.375 -5.043,-0.363 -10.098,-0.383 -15.148,-0.414 3.902,-1.571 8.601,0.078 12.82,0.039 5.336,0.246 10.707,-0.067 16.008,0.719" style="fill:none;stroke:#000000;stroke-width:2.51026;stroke-linecap:round;stroke-linejoin:round;stroke-miterlimit:10;stroke-dasharray:none;stroke-opacity:1" id="path4549" />
         </g>
         <g id="g4551" transform="scale(1,-1)" style="stroke-width:0.959808">
            <path d="m 170.152,-599.652 c -1.027,-2.91 -2.988,-5.289 -4.175,-8.032" style="fill:none;stroke:#000000;stroke-width:2.51026;stroke-linecap:round;stroke-linejoin:round;stroke-miterlimit:10;stroke-dasharray:none;stroke-opacity:1" id="path4553" />
         </g>
         <g id="g4555" transform="scale(1,-1)" style="stroke-width:0.959808">
            <path d="m 169.391,-602.477 -0.004,-0.007 -0.016,-0.039 -0.016,-0.09 -0.039,-0.133 -0.027,-0.145 -0.078,-0.14 -0.086,-0.098 -0.031,-0.141 -0.063,-0.156 -0.078,-0.144 -0.09,-0.145 -0.058,-0.125 -0.067,-0.133 -0.074,-0.117 -0.051,-0.113 -0.047,-0.133 -0.039,-0.133 -0.058,-0.093 -0.157,-0.102 -0.066,-0.141 0.047,-0.101 -0.035,-0.094 -0.043,-0.086 -0.02,-0.074 0.059,-0.086 0.012,-0.106 -0.094,-0.078 -0.039,-0.074 -0.043,-0.043 -0.047,-0.074 -0.109,-0.074 0.019,-0.067 0.035,-0.09 -0.07,-0.093 -0.055,-0.117 -0.035,-0.106 -0.051,-0.094 -0.136,-0.109 -0.055,-0.137 0.027,-0.125 -0.058,-0.109 -0.035,-0.113 -0.047,-0.129 -0.035,-0.129 -0.04,-0.102 -0.074,-0.094 -0.101,-0.144 -0.098,-0.172 -0.082,-0.184 -0.117,-0.168 -0.125,-0.171 -0.117,-0.157 -0.098,-0.175 -0.102,-0.192 -0.093,-0.164 -0.098,-0.164 -0.063,-0.18 -0.082,-0.187 -0.125,-0.172 -0.101,-0.172 -0.113,-0.16 -0.121,-0.156 -0.145,-0.157 -0.098,-0.16 -0.086,-0.168 -0.109,-0.172 -0.121,-0.148 -0.117,-0.148 -0.102,-0.165 -0.082,-0.156 -0.09,-0.152 -0.101,-0.168 -0.114,-0.156 -0.113,-0.153 -0.101,-0.152 -0.11,-0.168 -0.047,-0.164 -0.078,-0.152 -0.125,-0.18 -0.086,-0.192 -0.09,-0.152 -0.105,-0.148 -0.281,-0.145 -0.164,-0.183 0.043,-0.168 -0.063,-0.161 -0.078,-0.144 -0.066,-0.121 -0.055,-0.102 -0.035,-0.125 -0.063,-0.117 -0.07,-0.101 -0.07,-0.122 -0.078,-0.113 -0.083,-0.113 -0.066,-0.113 -0.066,-0.098 -0.063,-0.094 -0.058,-0.101 -0.079,-0.106 -0.066,-0.101 -0.082,-0.102 -0.066,-0.098 -0.032,-0.082 -0.019,-0.05 -0.024,-0.036 -0.004,-0.046 -0.015,-0.024 0.055,-0.023 0.027,-0.039 -0.043,-0.02 -0.024,0.024 0.004,0.007 0.008,0.024 0.02,0.011 -0.008,0.016 0.019,0.02 0.016,0.039 0.016,0.027 0.011,0.02 0.024,0.007 0.035,0.024 0.012,0.035 0.039,0.031" style="fill:none;stroke:#000000;stroke-width:2.51026;stroke-linecap:round;stroke-linejoin:round;stroke-miterlimit:10;stroke-dasharray:none;stroke-opacity:1" id="path4557" />
         </g>
         <g id="g4559" transform="scale(1,-1)" style="stroke-width:0.959808">
            <path d="m 163.453,-613.953 c -4.086,-6.477 -8.351,-12.945 -13.855,-18.363 -3.465,-3.571 -7.414,-6.653 -10.493,-10.598 -2.417,-2.953 -6.484,-4.129 -8.636,-7.188" style="fill:none;stroke:#000000;stroke-width:2.51026;stroke-linecap:round;stroke-linejoin:round;stroke-miterlimit:10;stroke-dasharray:none;stroke-opacity:1" id="path4561" />
         </g>
         <g id="g4563" transform="scale(1,-1)" style="stroke-width:0.959808">
            <path d="m 207.395,-602.121 c -0.297,-1.133 -0.911,-2.195 -0.836,-3.266" style="fill:none;stroke:#000000;stroke-width:2.51026;stroke-linecap:round;stroke-linejoin:round;stroke-miterlimit:10;stroke-dasharray:none;stroke-opacity:1" id="path4565" />
         </g>
         <g id="g4567" transform="scale(1,-1)" style="stroke-width:0.959808">
            <path d="m 206.172,-605.34 c 1.746,-1.086 -4.117,-3.332 -4.504,-4.527" style="fill:none;stroke:#000000;stroke-width:2.51026;stroke-linecap:round;stroke-linejoin:round;stroke-miterlimit:10;stroke-dasharray:none;stroke-opacity:1" id="path4569" />
         </g>
         <g id="g4571" transform="scale(1,-1)" style="stroke-width:0.959808">
            <path d="m 202.57,-609.238 c -2.828,-1.758 -6.152,-2.157 -9.218,-3.289 -2.829,-1.293 -5.348,-1.864 -8.153,-1.86 -0.351,-0.191 -1.113,0.078 -1.289,-0.465" style="fill:none;stroke:#000000;stroke-width:2.51026;stroke-linecap:round;stroke-linejoin:round;stroke-miterlimit:10;stroke-dasharray:none;stroke-opacity:1" id="path4573" />
         </g>
         <g id="g4575" transform="scale(1,-1)" style="stroke-width:0.959808">
            <path d="m 185.484,-614.621 c -8.5,-2.375 -13.238,-10.41 -19.246,-16.215 -5.058,-6.648 -9.793,-13.617 -13.488,-21.105 -4.047,-6.352 -8.637,-12.266 -13.641,-17.891 -1.312,-1.816 -3.039,-3.293 -4.336,-5.125" style="fill:none;stroke:#000000;stroke-width:2.51026;stroke-linecap:round;stroke-linejoin:round;stroke-miterlimit:10;stroke-dasharray:none;stroke-opacity:1" id="path4577" />
         </g>
         <g id="g4579" transform="scale(1,-1)" style="stroke-width:0.959808">
            <path d="m 134.285,-677.766 c -4.188,2.258 -10.887,5.555 -15.43,7.039 -4.437,1.684 -9.078,3.301 -12.972,6.028 -3.043,3.269 -6.715,5.879 -9.508,9.34 -2.859,3.765 -5.793,7.539 -8.855,11.109 -2.516,1.516 -5.188,3.867 -7.356,5.199" style="fill:none;stroke:#000000;stroke-width:2.51026;stroke-linecap:round;stroke-linejoin:round;stroke-miterlimit:10;stroke-dasharray:none;stroke-opacity:1" id="path4581" sodipodi:nodetypes="cccccc" />
         </g>
         <g id="g4583" transform="scale(1,-1)" style="stroke-width:0.959808">
            <path d="m 90.375,-652.625 v -0.02 l 0.023,-0.058 0.051,-0.098 -0.035,-0.113 -0.094,-0.09 -0.047,-0.062 -0.035,-0.039 -0.062,-0.024 -0.149,-0.012 -0.093,-0.004 0.031,-0.023 -0.051,-0.008 -0.051,0.004 -0.015,-0.012 h -0.012 l -0.047,0.028 -0.019,0.004 -0.008,0.007 -0.035,0.012 -0.051,0.012 -0.012,0.012 -0.027,0.015 -0.051,0.012 -0.004,0.012 -0.016,0.011 -0.031,0.004 H 89.52 l -0.047,-0.007 -0.094,-0.004 -0.086,-0.004 -0.078,-0.024 -0.07,-0.023 -0.083,-0.016 -0.089,-0.027 -0.219,-0.028 -0.152,-0.074 0.011,-0.023 -0.078,-0.024 -0.074,-0.074 -0.074,-0.055 -0.067,-0.035 -0.093,-0.039 -0.137,-0.05 -0.274,-0.133 -0.132,-0.047 -0.086,-0.07 -0.063,-0.067 -0.176,-0.059 -0.234,-0.066 -0.184,-0.051 -0.168,-0.058 -0.175,-0.059 -0.36,-0.055 -0.285,-0.078 -0.008,-0.066 -0.101,-0.078 -0.133,-0.086 -0.113,-0.09 -0.039,-0.078 -0.106,-0.07 -0.168,-0.086 -0.078,-0.125 -0.098,-0.09 -0.07,-0.102 -0.078,-0.097 -0.02,-0.118 -0.023,-0.089 -0.106,-0.071 -0.082,-0.094 -0.078,-0.089 -0.062,-0.102 -0.024,-0.117 -0.027,-0.102 -0.055,-0.097 -0.066,-0.078 -0.035,-0.086 -0.051,-0.067 -0.082,-0.062 -0.086,-0.078 0.016,-0.098 -0.004,-0.094 v -0.078 l -0.008,-0.078 0.004,-0.067 -0.055,-0.042 -0.039,-0.04 0.02,-0.058 -0.016,-0.051 -0.027,-0.016 -0.016,-0.019 -0.019,-0.016 0.164,-0.004 0.027,-0.039 -0.133,-0.004 -0.027,-0.015 -0.024,0.023 -0.023,0.012 -0.043,0.035 -0.066,0.024 -0.02,0.003 0.016,0.008 -0.047,0.035 -0.008,-0.011 0.121,0.015 -0.019,0.039 -0.098,-0.011 0.031,-0.032 -0.004,-0.011 -0.004,0.004 v 0.004 h 0.274 l 0.113,-0.051 -0.207,0.031 -0.004,0.004 -0.039,0.027 -0.035,0.059 h -0.027 l -0.012,-0.016 h -0.012 l -0.039,0.016 -0.012,-0.043 0.028,-0.004 -0.032,-0.008 -0.031,0.02 -0.004,-0.004 0.031,-0.008 0.032,0.004 0.039,0.012 0.051,0.007 -0.024,0.039 0.039,0.051 0.137,0.02 0.09,0.015 0.062,0.043 0.055,0.055 0.109,0.066 0.11,0.075 0.054,0.078 0.055,0.074 0.066,0.074 0.067,0.078 0.047,0.079 0.023,0.074 0.043,0.074 0.129,0.082 0.109,0.098 0.086,0.082 0.09,0.086 0.082,0.097 -0.035,0.098 0.07,0.098 0.157,0.074 0.113,0.094 0.098,0.089 0.101,0.075 0.211,0.062 0.191,0.07 0.036,0.086 0.078,0.059 0.293,0.195 -0.004,0.043 0.101,0.047 0.223,0.059 0.191,0.058 0.329,0.11 0.109,0.082 0.125,0.078 0.164,0.051 0.133,0.046 0.121,0.032 0.094,0.035 0.168,0.043 0.215,0.047 0.011,0.043 0.02,0.031 0.117,0.055 0.047,0.023 -0.024,0.008 0.004,0.039 0.102,0.019 0.066,0.032 0.043,0.023 0.043,0.012 0.086,0.004 0.031,-0.004 H 89.23 l 0.04,-0.008 0.015,0.008 0.024,-0.004 0.023,-0.008 0.063,-0.012 0.062,-0.007 v -0.008 l 0.008,-0.008 0.008,-0.004 0.007,0.004 0.036,-0.004 0.004,-0.019 -0.032,-0.008 -0.015,0.011 -0.012,0.024 -0.016,0.019 v -0.003 h -0.007 l -0.008,-0.016 -0.016,-0.012 -0.016,0.024 -0.011,0.019 -0.028,0.008 -0.023,0.008 0.008,-0.008 0.004,0.016 0.011,-0.008 h -0.004 l 0.075,-0.008 0.125,-0.004 -0.055,-0.004 -0.094,-0.019 -0.058,-0.008 -0.032,-0.004 -0.027,0.016 -0.094,-0.012 -0.097,-0.004 -0.02,-0.008 -0.023,-0.027 -0.012,-0.016 -0.02,-0.015 0.024,-0.032 -0.102,-0.039 -0.152,-0.043 0.019,-0.023 -0.042,-0.016 -0.067,-0.031 -0.058,-0.031 0.046,-0.047 0.012,-0.055 -0.129,-0.019 -0.09,-0.036 -0.066,-0.011 -0.063,-0.016 -0.105,-0.027 -0.105,-0.043 -0.071,-0.059 -0.09,-0.039 -0.097,-0.035 -0.102,-0.051 -0.097,-0.055 -0.118,-0.062 -0.125,-0.063 -0.078,-0.074 -0.078,-0.047 -0.117,-0.058 -0.141,-0.063 -0.179,-0.062 -0.153,-0.086 -0.097,-0.078 -0.102,-0.082 -0.121,-0.094 -0.125,-0.078 -0.07,-0.094 -0.016,-0.082 -0.102,-0.086 -0.156,-0.094 -0.129,-0.113 -0.121,-0.098 -0.125,-0.101 -0.074,-0.106 -0.102,-0.093 -0.129,-0.098 -0.109,-0.102 -0.113,-0.074 -0.121,-0.086 -0.106,-0.09 -0.234,-0.082 -0.238,-0.113 -0.024,-0.105 -0.097,-0.075 -0.083,-0.07 -0.085,-0.074 0.175,-0.067 0.02,-0.085 -0.246,-0.047 -0.137,-0.067 -0.074,-0.031 -0.051,-0.016 -0.086,-0.035 0.02,-0.058 -0.036,-0.055 -0.121,-0.012 -0.07,-0.004 -0.027,-0.011 -0.024,-0.008 -0.109,0.004 -0.035,-0.02 0.035,-0.004 h 0.016 l 0.015,-0.004 0.039,0.039 0.024,0.012 0.039,0.008 0.023,0.008 0.02,0.004 0.035,0.007 0.015,0.004 -0.011,0.004 0.011,-0.011 h 0.008 l 0.028,-0.004 0.004,-0.012 0.07,-0.008 v -0.008 l -0.051,-0.004 -0.012,-0.004 -0.011,0.016 -0.012,0.012 v -0.012 l -0.047,0.008 0.004,-0.008 0.047,-0.008 0.051,0.012 0.054,0.016 0.082,0.043 0.223,0.035 0.156,0.074 v 0.059 l 0.09,0.05 0.106,0.047 0.093,0.059 0.125,0.062 0.11,0.059 0.09,0.066 0.14,0.094 0.145,0.106 0.156,0.086 0.141,0.113 -0.071,0.125 0.078,0.121 0.27,0.098 0.191,0.101 0.153,0.098 0.152,0.113 0.25,0.102 0.23,0.109 0.067,0.129" style="fill:none;stroke:#000000;stroke-width:2.51026;stroke-linecap:round;stroke-linejoin:round;stroke-miterlimit:10;stroke-dasharray:none;stroke-opacity:1" id="path4585" />
         </g>
         <g id="g4587" transform="scale(1,-1)" style="stroke-width:0.959808">
            <path d="m 76.934,-627.168 c -0.809,-3.828 -0.192,-7.984 -0.008,-11.941 0.508,-6.407 3.035,-12.438 4.105,-18.727 1.364,-4.848 2.957,-9.648 4.453,-14.437 0.067,-1.821 2.325,-9.442 2.598,-10.278" style="fill:none;stroke:#000000;stroke-width:2.51026;stroke-linecap:round;stroke-linejoin:round;stroke-miterlimit:10;stroke-dasharray:none;stroke-opacity:1" id="path4589" />
         </g>
         <g id="g4591" transform="scale(1,-1)" style="stroke-width:0.959808">
            <path d="m 128.695,-649.742 c -3.812,2.117 -4.476,7.336 -8.199,9.808 -2.762,3.547 -5.301,7.34 -8.555,10.524 -4.226,6.43 -8.632,12.84 -14.714,17.644 -3.59,2.243 -8.973,4.973 -12.825,1.797 -4.82,-2.758 -6.882,-9.066 -7.941,-14.328 0.504,-2.285 -1.641,-5.719 -0.16,-7.277" style="fill:none;stroke:#000000;stroke-width:2.51026;stroke-linecap:round;stroke-linejoin:round;stroke-miterlimit:10;stroke-dasharray:none;stroke-opacity:1" id="path4593" />
         </g>
         <g id="g4595" transform="scale(1,-1)" style="stroke-width:0.959808">
            <path d="m 75.082,-621.973 c 0.078,-1.738 -1.441,-4.117 -1.625,-6.39 -0.625,-2.149 -0.926,-4.543 -1.672,-6.731 -0.668,-2.508 -1.219,-5.16 -2.324,-7.57 -0.422,-2.449 -1.102,-4.582 -2.023,-6.871 -0.973,-2.66 -1.668,-5.34 -2.321,-8.121 -0.711,-2.469 -0.773,-5.043 -1.758,-7.375 -0.359,-1.543 -0.617,-3.043 -0.836,-4.594 -0.207,-1.43 -0.347,-0.855 0.743,-1.465 1.582,0.223 1.468,3.016 1.945,4.445 1.383,2.446 1.488,5.407 2.617,7.969 0.793,2.516 1.145,5.121 1.875,7.668 0.488,2.918 1.16,5.906 1.899,8.86 0.808,3.113 1.468,6.246 2.871,9.148 1.054,2.43 1.531,4.957 1.918,7.422 -0.399,-1.527 -0.668,-4.055 -1.469,-5.852 -1.016,-2.828 -1.113,-5.898 -2.262,-8.722 -0.437,-2.942 -1.683,-5.582 -2.422,-8.414 -0.625,-2.832 -2.144,-5.473 -2.461,-8.407 -1.144,-2.972 -2.961,-5.648 -2.715,-8.972 l -0.031,-0.625" style="fill:none;stroke:#000000;stroke-width:2.51026;stroke-linecap:round;stroke-linejoin:round;stroke-miterlimit:10;stroke-dasharray:none;stroke-opacity:1" id="path4597" />
         </g>
         <g id="g4599" transform="scale(1,-1)" style="stroke-width:0.959808">
            <path d="m 52.516,-671.25 c -0.871,0.062 2.414,-0.711 3.25,-0.98 2.355,-1.184 5.015,-1.625 7.343,-2.895 2.258,-1.063 4.586,-1.934 7.032,-2.437 1.976,-0.762 3.925,-1.493 5.953,-2.094 1.711,-0.899 3.726,-0.914 5.351,-1.836 1.696,-0.735 3.399,-1.512 5.094,-2.184 0.473,-0.258 2.352,-0.609 1.356,-0.469" style="fill:none;stroke:#000000;stroke-width:2.51026;stroke-linecap:round;stroke-linejoin:round;stroke-miterlimit:10;stroke-dasharray:none;stroke-opacity:1" id="path4601" />
         </g>
         <g id="g4603" transform="scale(1,-1)" style="stroke-width:0.959808">
            <path d="m 51.441,-669.871 c -2.75,-4.293 -4.343,-10.336 -6.371,-15.402 -2.722,-6.278 -3.988,-13.036 -6.382,-19.426 -2.336,-10.668 -6.77,-20.801 -8.641,-31.559 -0.109,-0.996 -1.172,-2.418 -0.387,-3.32" style="fill:none;stroke:#000000;stroke-width:2.51026;stroke-linecap:round;stroke-linejoin:round;stroke-miterlimit:10;stroke-dasharray:none;stroke-opacity:1" id="path4605" />
         </g>
         <g id="g4607" transform="scale(1,-1)" style="stroke-width:0.959808">
            <path d="m 29.379,-740.785 c 1.457,-1.797 3.5,-3.36 5.41,-4.805 1.758,-1.34 2.727,-3.281 4.652,-4.355 1.871,-1.91 4.528,-2.746 6.422,-4.594 1.985,-1.215 4.215,-2.012 6.371,-2.84 1.879,-0.996 3.575,-1.859 5.157,-3.258 1.121,-1.551 3.773,-1.593 4.605,-2.453 1.434,-0.301 1.957,-1.226 2.633,-1.012 l 0.195,0.153 0.125,0.187" style="fill:none;stroke:#000000;stroke-width:2.51026;stroke-linecap:round;stroke-linejoin:round;stroke-miterlimit:10;stroke-dasharray:none;stroke-opacity:1" id="path4609" />
         </g>
         <g id="g4611" transform="scale(1,-1)" style="stroke-width:0.959808">
            <path d="m 64.949,-763.762 c 0,0 24.789,73.657 23.164,79.735 -0.14,-0.348 0.164,2.203 -0.031,1.476" style="fill:none;stroke:#000000;stroke-width:2.51026;stroke-linecap:round;stroke-linejoin:round;stroke-miterlimit:10;stroke-dasharray:none;stroke-opacity:1" id="path4613" />
         </g>
         <g id="g4615" transform="scale(1,-1)" style="stroke-width:0.959808">
            <path d="m 56.852,-746.086 v -0.148 l -0.02,-0.114 -0.023,-0.086 -0.008,-0.043 0.011,-0.007 0.008,0.004 0.008,-0.008 -0.008,-0.024 -0.004,-0.004 0.043,0.008 h 0.055 l 0.035,0.016 0.09,0.062 0.082,0.032 -0.004,0.003 0.008,0.012 0.008,0.028 0.012,0.011 0.007,0.004 -0.074,0.012 0.004,0.019 0.051,0.016 0.015,0.016 0.016,0.007 v 0.008 l 0.024,0.004 0.019,0.016 0.016,-0.004 -0.012,0.012 0.019,-0.016 0.129,0.008 -0.027,0.019 -0.066,-0.011 -0.008,-0.024 0.019,0.035 0.02,0.032 -0.129,-0.004 -0.043,-0.028 0.105,0.032 0.063,0.054 0.047,0.047 0.039,0.035 0.07,0.012 0.035,0.039 0.008,0.043 0.047,0.055 0.039,0.07 0.039,0.059 0.016,0.05 0.062,0.063 0.059,0.098 0.008,0.089 0.031,0.079 0.031,0.093 0.031,0.114 0.063,0.121 0.027,0.121 -0.004,0.129 0.039,0.129 0.047,0.156 0.016,0.148 0.008,0.11 0.019,0.121 0.039,0.144 0.016,0.141 0.023,0.101 0.012,0.098 0.02,0.078 0.054,0.043 0.059,0.055 -0.008,0.078 v 0.129 l 0.016,0.027 0.047,0.043 0.054,0.059 -0.019,0.015 -0.016,0.02 v 0.023 l 0.012,0.012 v 0.008 l -0.125,0.012 0.086,-0.008 0.043,0.027 0.004,0.004 0.004,0.016 0.05,0.004 -0.05,0.007 -0.059,0.02 0.074,0.023 0.059,0.024 0.035,0.055 0.004,0.043 0.043,0.078 0.058,0.078 0.012,0.027 0.031,0.063 0.02,0.035 0.004,0.062 -0.055,0.055 0.004,0.059 0.055,0.039 0.035,0.043 0.016,0.039 0.011,0.027 0.059,0.027 0.039,0.059 -0.02,0.019 0.032,0.043 -0.024,0.012 -0.012,-0.027 0.047,0.027 -0.05,-0.023 -0.004,-0.047 0.043,-0.008 0.047,-0.008 -0.02,-0.008 -0.035,-0.023 0.012,-0.016 0.015,-0.023 0.008,-0.063 0.004,-0.035 0.012,-0.027 0.007,-0.031 0.032,-0.024 0.027,-0.015 0.047,-0.028 0.062,-0.031 0.043,-0.031 0.028,-0.039 0.004,-0.02 0.007,-0.012 0.016,-0.031 0.027,-0.035 0.051,-0.039 0.145,0.004 0.09,-0.035 -0.032,-0.032 0.028,-0.011 0.031,-0.016 0.031,-0.004 h -0.012 l 0.047,-0.019 0.059,-0.028 0.07,-0.035 0.047,-0.008 0.051,-0.019 0.051,-0.012 0.054,-0.004 h 0.106 l 0.054,0.004 0.059,-0.012 0.078,-0.039 0.153,0.004 0.113,0.024 v -0.024 l 0.07,0.004 h 0.164 l -0.097,-0.012 -0.008,-0.035 0.133,-0.019 0.097,-0.012 0.082,-0.035 0.059,-0.024 0.066,-0.031 0.028,-0.015 0.062,-0.028 0.094,-0.031 0.082,-0.039 0.09,-0.016 0.058,-0.043 0.067,-0.019 0.058,-0.016 0.063,-0.008 0.047,-0.023 0.05,-0.035 0.055,-0.051 0.039,0.035 0.051,-0.016 0.02,-0.054 0.039,-0.059 0.023,-0.019 0.004,-0.043 -0.02,-0.035 v -0.036 l 0.036,-0.046 0.007,-0.051 0.032,-0.024 0.019,-0.023 -0.023,-0.031 0.027,-0.036 0.047,-0.023 0.012,-0.035 0.047,-0.024 0.109,-0.007 -0.016,-0.024 -0.05,-0.023 0.003,-0.024 h -0.007 l 0.019,-0.007 -0.109,-0.016 -0.043,-0.059 0.058,-0.015 0.024,-0.043 0.012,-0.047 0.027,-0.028 -0.07,-0.027 -0.028,-0.035 0.055,-0.008 0.016,-0.019 0.011,-0.036 0.012,-0.031 0.133,-0.015 0.058,-0.032 -0.062,-0.015 -0.008,-0.028 h -0.008 l -0.008,0.008 H 62.25 l 0.004,-0.015 0.027,-0.032 0.035,-0.011 0.012,-0.032 0.02,-0.043 0.027,-0.062 0.066,-0.051 0.051,-0.051 -0.004,-0.023 0.028,-0.039 0.035,-0.031 0.015,-0.036 0.036,-0.074 0.046,-0.027 0.04,0.004 0.019,-0.008 0.027,-0.02 0.012,-0.007 0.055,0.011 0.043,0.004 -0.012,-0.023 0.027,-0.004 -0.007,-0.008 -0.032,0.012 -0.023,-0.008 0.027,-0.016 v -0.027 l -0.008,0.016 -0.062,-0.012 -0.027,-0.02 0.035,0.016 h 0.008 l -0.02,0.008 -0.004,-0.024 0.063,0.02 0.019,0.043 -0.051,-0.047 -0.011,0.031 v -0.004 l -0.004,-0.004 -0.024,-0.011 h -0.047 l -0.007,-0.008 v -0.024 l -0.004,-0.039 -0.004,-0.035 -0.016,-0.043 -0.113,-0.058 -0.082,-0.067 0.058,-0.054 -0.035,-0.071 -0.035,-0.066 -0.019,-0.043 -0.039,-0.082 -0.04,-0.086 -0.019,-0.066 -0.039,-0.063 -0.039,-0.074 -0.07,-0.133 -0.098,-0.063 -0.059,-0.089 0.02,-0.075 -0.024,-0.066 -0.047,-0.07 -0.042,-0.059 -0.02,-0.043 -0.027,-0.051 -0.059,-0.086 -0.023,-0.062 -0.028,-0.055 -0.031,-0.054 -0.031,-0.075 -0.047,-0.062 -0.016,-0.051 0.004,-0.051 -0.012,-0.07 -0.043,-0.129 0.032,-0.043 -0.004,-0.051 -0.047,-0.086 -0.027,-0.093 -0.028,-0.082 -0.031,-0.079 -0.066,-0.07 -0.004,-0.058 v -0.059 l -0.071,-0.148 -0.015,-0.063 -0.024,-0.055 -0.121,-0.074 -0.051,-0.086 0.047,-0.062 0.004,-0.067 0.004,-0.086 -0.008,-0.078 0.004,-0.086 0.121,-0.054 0.004,-0.032 -0.082,-0.047 -0.031,-0.062 -0.027,-0.023 -0.079,-0.02 -0.035,-0.016 0.032,-0.011 0.003,-0.004 -0.015,0.008 v 0.015 l 0.004,0.012 -0.016,0.008 v 0.015 l 0.016,0.016 h 0.008 l 0.007,0.008 0.004,-0.012 0.086,-0.004 0.063,0.047 -0.078,-0.004 -0.008,-0.023 -0.008,-0.004 -0.023,0.031 h 0.019 l 0.02,0.004 -0.016,0.008 v 0.011 -0.003 l -0.027,0.003 -0.004,-0.015 -0.008,0.004 -0.004,-0.008 -0.051,-0.008 0.004,-0.031 0.035,0.008 -0.023,-0.012 0.004,-0.027 0.004,-0.016 0.07,0.004 0.047,0.035 h -0.027 l -0.04,0.004 -0.007,-0.016 -0.004,0.004 -0.02,0.028 -0.097,0.035 -0.04,0.008 h 0.047 l -0.004,0.046 0.004,0.047 0.008,0.004 -0.047,0.024 -0.148,0.027 -0.039,0.008 0.054,0.012 -0.007,0.011 -0.02,0.008 -0.027,-0.019 0.062,0.019 -0.019,0.043 -0.078,-0.004 -0.086,0.024 -0.071,0.035 -0.047,0.035 -0.082,0.031 -0.062,0.039 -0.035,0.035 -0.082,0.035 -0.094,0.036 -0.102,0.054 -0.066,0.063 -0.121,0.058 -0.125,0.032 H 59.73 l -0.085,0.027 -0.102,0.016 -0.098,0.027 -0.09,0.008 -0.097,0.019 -0.082,0.039 -0.086,0.047 -0.106,0.051 -0.086,0.043 -0.058,0.055 -0.074,0.043 -0.078,0.039 -0.051,0.039 -0.071,0.035 -0.058,0.051 -0.09,0.035 -0.082,0.09 -0.078,0.054 -0.078,0.012 -0.067,0.059 -0.09,0.043 -0.082,0.039 -0.066,0.031 -0.145,0.031 -0.105,0.039 -0.016,0.039 -0.031,0.032 -0.023,0.027 -0.055,0.012 0.098,0.035 0.011,0.066 -0.086,0.016 -0.043,0.031 -0.039,0.035 -0.011,0.004 -0.075,-0.015 0.047,0.003 0.078,0.02 -0.027,0.008 -0.019,0.004 v -0.016 l -0.004,-0.008 -0.137,-0.015 -0.09,0.031 0.067,-0.004 0.015,0.008 0.031,-0.008 0.004,0.012 0.035,0.027 v 0.063 l -0.046,0.035 v 0.07 l 0.003,0.07 0.004,0.051 -0.043,0.028 -0.015,0.042 0.039,0.036" style="fill:none;stroke:#000000;stroke-width:2.51026;stroke-linecap:round;stroke-linejoin:round;stroke-miterlimit:10;stroke-dasharray:none;stroke-opacity:1" id="path4617" />
         </g>
         <g id="g4619" transform="scale(1,-1)" style="stroke-width:0.959808">
            <path d="m 43.852,-742.602 c 0.432954,3.43496 1.788857,6.60337 3.031334,9.78374 1.155364,5.95285 3.666901,11.49245 5.563181,17.21703 1.260649,4.86156 3.251034,9.50562 4.098267,14.46533 1.514265,3.61401 1.89456,7.63415 3.793177,11.13391 1.036575,3.21301 1.77578,9.03138 -2.806669,9.61541 -2.806991,0.51459 -5.534215,0.5601 -5.526189,-3.1439 -1.385085,-6.35506 -4.122784,-12.31336 -5.59069,-18.65667 -1.574592,-6.0764 -3.699916,-11.99064 -5.486853,-18.00208 -1.42457,-3.4432 -1.87447,-7.17516 -3.369411,-10.59961 -0.70869,-3.23356 -2.952997,-8.01423 1.51196,-9.46125 1.754802,-0.0207 3.797076,-3.82593 5.007893,-2.05091" style="fill:none;stroke:#000000;stroke-width:2.51026;stroke-linecap:round;stroke-linejoin:round;stroke-miterlimit:10;stroke-dasharray:none;stroke-opacity:1" id="path4621" />
         </g>
         <g id="g4623" transform="scale(1,-1)" style="stroke-width:0.959808">
            <path d="m 64.949,-763.762 c 3.602,-0.574 10.547,-2.011 13.656,-3.593" style="fill:none;stroke:#000000;stroke-width:2.51026;stroke-linecap:round;stroke-linejoin:round;stroke-miterlimit:10;stroke-dasharray:none;stroke-opacity:1" id="path4625" />
         </g>
         <g id="g4627" transform="scale(1,-1)" style="stroke-width:0.959808">
            <path d="m 79.223,-767.023 c 4.898,-0.586 11.375,-1.836 11.23,5.546 1.481,7.633 4.77,14.743 5.875,22.469 2.063,6.578 4.484,13.098 5.625,19.934 1.461,6.129 2.684,12.262 4.277,18.375 0.422,4.117 2.665,8.113 1.778,12.293" style="fill:none;stroke:#000000;stroke-width:2.51026;stroke-linecap:round;stroke-linejoin:round;stroke-miterlimit:10;stroke-dasharray:none;stroke-opacity:1" id="path4629" />
         </g>
         <g id="g4631" transform="scale(1,-1)" style="stroke-width:0.959808">
            <path d="m 106.969,-668.238 c -0.508,-3.434 -0.16,-6.899 -0.024,-10.297 0.035,-4.457 -1.191,-8.688 -2.097,-12.977 -0.957,-2.125 -0.235,-7.05 -3.668,-5.726 -2.981,2.195 1.75,6.644 1.394,10.035 0.981,4.105 2.324,8.363 2.371,12.578 0.598,2.906 1.055,5.289 0.485,7.977" style="fill:none;stroke:#000000;stroke-width:2.51026;stroke-linecap:round;stroke-linejoin:round;stroke-miterlimit:10;stroke-dasharray:none;stroke-opacity:1" id="path4633" />
         </g>
         <g id="g4635" transform="scale(1,-1)" style="stroke-width:0.959808">
            <path d="m 86.719,-682.332 c 3.215,-0.285 6.14,-2.363 9.332,-3.16 1.804,-0.391 3.246,-2.391 5.07,-1.965" style="fill:none;stroke:#000000;stroke-width:2.51026;stroke-linecap:round;stroke-linejoin:round;stroke-miterlimit:10;stroke-dasharray:none;stroke-opacity:1" id="path4637" />
         </g>
         <g id="g4639" transform="scale(1,-1)" style="stroke-width:0.959808">
            <path d="M 97.574,-693.051 78.605,-767.355" style="fill:none;stroke:#000000;stroke-width:2.51026;stroke-linecap:round;stroke-linejoin:round;stroke-miterlimit:10;stroke-dasharray:none;stroke-opacity:1" id="path4641" />
         </g>
         <g id="g4643" transform="scale(1,-1)" style="stroke-width:0.959808">
            <path d="m 101.1938,-723.328 c -0.626,-0.93 5.9042,3.539 7.1462,4.711 2.512,3.246 4.297,7.035 7.5,9.672 2.137,3.429 4.105,6.945 6.59,10.097 2.054,4.067 5.285,7.539 7.011,11.821 2.356,2.715 2.957,6.25 4.844,9.261 0.61,0.762 -0.219,0.543 0.688,1.395" style="fill:none;stroke:#000000;stroke-width:2.51026;stroke-linecap:round;stroke-linejoin:round;stroke-miterlimit:10;stroke-dasharray:none;stroke-opacity:1" id="path4645" sodipodi:nodetypes="ccccccc" />
         </g>
         <g id="g4647" transform="scale(1,-1)" style="stroke-width:0.959808">
            <path d="m 153.926,-653.746 c -0.856,-5.469 1.031,-11.563 1.082,-17.305 -0.391,-11.332 0.383,-22.789 -1.129,-34.008 0.043,-7.89 -0.129,-15.961 2.078,-23.609 1.078,-6.859 4.129,-12.992 6.84,-19.309 2.234,-6.683 5.078,-13.093 7.359,-19.761 0.129,-0.008 0.754,-1.024 0.414,-1.246" style="fill:none;stroke:#000000;stroke-width:2.51026;stroke-linecap:round;stroke-linejoin:round;stroke-miterlimit:10;stroke-dasharray:none;stroke-opacity:1" id="path4649" />
         </g>
         <g id="g4651" transform="scale(1,-1)" style="stroke-width:0.959808">
            <path d="m 155.344,-656.918 c 1.293,-1.644 3.363,-3.172 4.855,-4.898 1.227,-1.536 2.352,-3.137 3.891,-4.391 2.969,-1.793 5.051,-4.731 8,-6.516 1.953,-1.203 3.789,-2.515 5.996,-3.238 2.039,-1.051 4.266,-2.547 6.492,-1.141 1.641,1.051 3.094,2.321 3.676,4.399 1.016,2.488 0.91,5.308 1.242,7.883 0.113,2.195 -0.156,4.386 -0.215,6.515 -0.312,2.125 -0.73,4.246 -0.945,6.383 -0.43,2.137 -1.762,3.922 -2.09,6.117 -0.426,2.188 -1.027,4.414 -1.812,6.512 -0.754,1.941 -1.829,3.691 -2.43,5.703 -0.953,1.797 -1.356,3.805 -1.637,5.731 0.047,1.629 -0.695,3.32 -1.066,4.8 -1.309,-0.347 -4.797,-0.324 -5.617,-0.41 0.605,-0.34 4.586,-0.422 4.214,-1.457 -0.761,-1.316 -3.953,-1.91 -4.39,-1.832 1.246,-0.234 4.082,0.215 4.332,-0.109 -0.731,-0.781 -4.067,-1.684 -3.602,-1.762 1.246,-0.422 6.461,0.098 3.625,-1.801 -0.816,-0.875 -5.258,-1.019 -2.222,-1.429 1.347,-0.329 5.011,1.015 2.347,-0.934 -1.636,-1.34 -4.402,-0.363 -5.238,1.145 -1.152,0.445 -1.562,4.336 -0.875,1.371 1.371,-1.946 0.984,-4.633 1.594,-6.914 0.093,-2.418 -0.524,-4.786 -0.641,-7.188 -0.125,-1.867 -0.109,-3.805 -0.254,-5.531 -0.105,-1.203 -0.265,-1.266 -0.207,-0.477" style="fill:none;stroke:#000000;stroke-width:2.51026;stroke-linecap:round;stroke-linejoin:round;stroke-miterlimit:10;stroke-dasharray:none;stroke-opacity:1" id="path4653" />
         </g>
         <g id="g4655" transform="scale(1,-1)" style="stroke-width:0.959808">
            <path d="m 171.594,-646.062 c -0.58305,0.74108 -1.38887,1.32425 -1.85048,2.14433 -0.32731,0.89484 -1.02586,1.5254 -1.56594,2.29645 -0.66832,0.73446 -0.90575,1.76294 -1.71009,2.39448 -0.62551,0.59372 -1.36257,1.06008 -1.85024,1.80634 -0.0933,0.42574 -0.50724,0.45787 -0.78527,1.1004" style="fill:none;stroke:#000000;stroke-width:2.51026;stroke-linecap:round;stroke-linejoin:round;stroke-miterlimit:10;stroke-dasharray:none;stroke-opacity:1" id="path4657" />
         </g>
         <g id="g4659" transform="scale(1,-1)" style="stroke-width:0.959808">
            <path d="m 89.887,-605.512 c 0.054,0.348 -5.813,-4.601 -5.485,-4.457 0.7,-0.492 6.778,4.856 7.321,5.223 0.722,0.473 1.281,1.129 1.941,1.687 0.375,0.532 1.316,0.696 1.281,1.481 0.426,0.785 1.008,1.473 1.77,1.945 0.402,0.629 1.129,0.906 1.668,1.418 0.547,-0.031 0.211,0.285 0.687,0.524 0,-0.196 -0.34,-0.016 0.188,-0.024 0.152,0.117 0.398,0.067 0.195,0.043 0.527,-0.219 1.531,-0.098 0.746,-0.48 -0.515,-0.625 -0.937,-0.786 -1.336,-1.414 -0.367,-0.387 -0.476,-0.5 -0.285,-0.372 -0.269,0.122 0.133,0.149 -0.07,0.071" style="fill:none;stroke:#000000;stroke-width:2.51026;stroke-linecap:round;stroke-linejoin:round;stroke-miterlimit:10;stroke-dasharray:none;stroke-opacity:1" id="path4661" />
         </g>
         <g id="g4663" transform="scale(1,-1)" style="stroke-width:0.959808">
            <path d="m 101.992,-598.762 c -1.066,0.364 0.981,-1.121 1.547,-1.129 0.926,-0.601 1.973,-1.078 3.039,-1.457 1.606,-0.418 3.137,-1.105 4.797,-1.289 1.414,-0.187 2.687,-0.851 4.035,-1.25 1.531,-0.383 3.11,0.125 4.641,-0.261 0.992,0.007 1.781,-0.731 2.769,-0.524" style="fill:none;stroke:#000000;stroke-width:2.51026;stroke-linecap:round;stroke-linejoin:round;stroke-miterlimit:10;stroke-dasharray:none;stroke-opacity:1" id="path4665" />
         </g>
         <g id="g4667" transform="scale(1,-1)" style="stroke-width:0.959808">
            <path d="m 128.203,-603.953 v -0.035 l -0.043,-0.074 -0.051,-0.106 0.02,-0.129 v -0.094 l 0.004,-0.054 0.008,-0.024 0.023,-0.015 0.031,-0.039 -0.011,-0.039 0.023,0.003 0.012,0.024 0.015,0.055 0.004,0.011 0.035,-0.015 0.051,-0.036 0.071,-0.007 0.05,0.019 0.117,0.016 0.075,-0.008 0.086,-0.027 0.066,-0.043 0.07,-0.032 0.075,-0.035 0.136,-0.031 0.192,-0.039 0.054,-0.02 0.016,-0.007 0.047,-0.036 0.055,-0.031 0.062,-0.039 -0.019,-0.015 0.027,-0.047 0.09,-0.051 0.094,-0.024 0.101,-0.019 0.086,-0.027 0.105,-0.012 0.047,-0.027 0.043,-0.024 0.082,-0.023 0.09,-0.028 0.098,-0.031 0.074,-0.047 0.176,-0.039 0.144,-0.039 v -0.031 l 0.075,-0.02 0.066,-0.023 0.098,-0.012 0.011,-0.027 0.047,-0.039 0.121,-0.043 0.129,-0.043 h 0.137 l 0.105,-0.004 h 0.11 l 0.101,0.019 0.082,0.047 0.11,0.055 0.133,0.035 0.132,0.024 0.11,0.043 0.133,0.042" style="fill:none;stroke:#000000;stroke-width:2.51026;stroke-linecap:round;stroke-linejoin:round;stroke-miterlimit:10;stroke-dasharray:none;stroke-opacity:1" id="path4669" />
         </g>
         <g id="g4671" transform="scale(1,-1)" style="stroke-width:0.959808">
            <path d="m 136.133,-605.199 c 1.43376,-1.29682 3.86654,-1.60126 4.36403,-3.77504 0.58027,-1.26153 1.5888,-2.16935 2.58497,-3.08796" style="fill:none;stroke:#000000;stroke-width:2.51026;stroke-linecap:round;stroke-linejoin:round;stroke-miterlimit:10;stroke-dasharray:none;stroke-opacity:1" id="path4673" />
         </g>
         <g id="g4675" transform="scale(1,-1)" style="stroke-width:0.959808">
            <path d="m 142.77,-612.141 c 1.56881,-2.07782 2.46068,-4.58914 4.19388,-6.5656 1.7843,-1.80723 2.3959,-4.65107 4.80612,-5.7464" style="fill:none;stroke:#000000;stroke-width:2.51026;stroke-linecap:round;stroke-linejoin:round;stroke-miterlimit:10;stroke-dasharray:none;stroke-opacity:1" id="path4677" />
         </g>
         <g id="g4679" transform="scale(1,-1)" style="stroke-width:0.959808">
            <path d="m 130.297,-625.465 c 0.16,-1.078 1.238,-1.664 1.586,-2.664 0.484,-0.871 1.246,-1.574 1.465,-2.582 0.39,-1.434 1.336,-2.629 1.804,-4.023 0.172,-1.172 0.727,-2.215 1.243,-3.254 -0.09,0.98 -0.551,2.004 -1.063,2.879 -0.465,1.027 -0.32,2.339 -1.234,3.144 -0.149,0.172 -0.274,0.383 -0.278,0.617" style="fill:none;stroke:#000000;stroke-width:2.51026;stroke-linecap:round;stroke-linejoin:round;stroke-miterlimit:10;stroke-dasharray:none;stroke-opacity:1" id="path4681" />
         </g>
         <g id="g4683" transform="scale(1,-1)" style="stroke-width:0.959808">
            <path d="m 131.156,-601.395 v -0.05 l 0.067,-0.075 0.031,-0.05 -0.082,-0.035 -0.031,0.015 -0.067,-0.015 -0.027,0.007 -0.106,0.004 -0.074,0.004 v 0.02 l -0.031,0.035 -0.024,0.031 -0.031,0.035 0.035,0.024 -0.031,0.039 -0.078,0.051 -0.074,0.05 -0.078,0.032 -0.047,0.039 -0.039,0.054 0.019,0.043 -0.015,0.028 -0.082,0.031 -0.075,0.082 -0.054,0.082 -0.035,0.059 -0.039,0.046 -0.047,0.047 -0.059,0.02 -0.043,0.051 -0.035,0.101 -0.016,0.094 -0.039,0.078 v 0.07 l -0.015,0.094 -0.067,0.106 -0.019,0.113 -0.008,0.094 -0.02,0.089 -0.023,0.079 -0.008,0.093 -0.019,0.094 -0.02,0.09 -0.008,0.078 -0.015,0.086 -0.004,0.086 0.066,0.086 -0.012,0.109 -0.058,0.094 0.004,0.102 -0.02,0.117 -0.008,0.097 -0.07,0.125 -0.031,0.149 0.051,0.148 0.027,0.16 -0.004,0.141 0.004,0.141 0.023,0.156 -0.007,0.148 -0.012,0.153 -0.004,0.156 -0.004,0.148 v 0.133 l -0.02,0.133 0.079,0.102 0.003,0.097 -0.066,0.063 -0.019,0.082" style="fill:none;stroke:#000000;stroke-width:2.51026;stroke-linecap:round;stroke-linejoin:round;stroke-miterlimit:10;stroke-dasharray:none;stroke-opacity:1" id="path4685" />
         </g>
         <g id="g4687" transform="scale(1,-1)" style="stroke-width:0.959808">
            <path d="m 104.512,-597.289 c 1.761,1.312 2.754,4.059 3.734,6.144 0.055,0.774 0.582,1.426 1.18,1.875" style="fill:none;stroke:#000000;stroke-width:2.51026;stroke-linecap:round;stroke-linejoin:round;stroke-miterlimit:10;stroke-dasharray:none;stroke-opacity:1" id="path4689" />
         </g>
         <g id="g4691" transform="scale(1,-1)" style="stroke-width:0.959808">
            <path d="m 110.289,-588.105 c 0.551,2.441 -0.406,4.898 -0.559,7.332" style="fill:none;stroke:#000000;stroke-width:2.51026;stroke-linecap:round;stroke-linejoin:round;stroke-miterlimit:10;stroke-dasharray:none;stroke-opacity:1" id="path4693" />
         </g>
         <g id="g4695" transform="scale(1,-1)" style="stroke-width:0.959808">
            <path d="m 107.617,-578.672 c -3.324,-1.105 -4.344,2.508 -4.57,5.074 0.047,2.379 -1.695,6.321 0.887,7.664 l 0.195,0.114 0.062,0.105" style="fill:none;stroke:#000000;stroke-width:2.51026;stroke-linecap:round;stroke-linejoin:round;stroke-miterlimit:10;stroke-dasharray:none;stroke-opacity:1" id="path4697" />
         </g>
         <g id="g4699" transform="scale(1,-1)" style="stroke-width:0.959808">
            <path d="m 146.457,-558.828 c 2.133,5.23 1.191,11.723 -4.559,13.937 -2.421,2.731 -5.699,4.239 -9.05,5.485 -4.164,1.949 -8.774,4.664 -13.516,3.148 -3.676,-0.238 -7.586,-1.953 -9.535,-5.277 -4.449,-6.137 -9.488,-12.582 -10.254,-20.387 0.652,-2.25 -0.145,-7.394 1.637,-7.57 1.648,4.043 6.965,5.441 8.062,0.308 0.567,-1.011 1.231,-2.015 1.781,-2.937" style="fill:none;stroke:#000000;stroke-width:2.51026;stroke-linecap:round;stroke-linejoin:round;stroke-miterlimit:10;stroke-dasharray:none;stroke-opacity:1" id="path4701" />
         </g>
         <g id="g4703" transform="scale(1,-1)" style="stroke-width:0.959808">
            <path d="m 114.352,-565.098 v 0.016 l 0.019,0.09 0.051,0.156 0.098,0.195 0.113,0.211 0.082,0.196 0.09,0.183 0.09,0.16 0.011,0.121 0.114,0.114 0.148,0.133 0.039,0.128 0.066,0.098 0.094,0.082 0.078,0.09 -0.062,0.082 0.039,0.086 0.164,0.117 0.094,0.121 0.078,0.055 0.051,0.062 0.117,0.067 0.156,0.066 -0.02,0.012 -0.003,0.066 0.015,0.129 0.02,0.106 0.023,0.078 0.043,0.078 0.028,0.105 0.003,0.094 0.016,0.078 -0.023,0.071 0.019,0.058 0.047,0.086 -0.031,0.074 -0.012,0.11 0.051,0.082 -0.024,0.039 0.012,0.043 -0.019,0.043 0.199,0.023 0.136,0.055 -0.078,-0.008 v 0.02 l -0.046,0.035 -0.004,0.004 -0.012,-0.008 -0.004,-0.004" style="fill:none;stroke:#000000;stroke-width:2.51026;stroke-linecap:round;stroke-linejoin:round;stroke-miterlimit:10;stroke-dasharray:none;stroke-opacity:1" id="path4705" />
         </g>
         <g id="g4707" transform="scale(1,-1)" style="stroke-width:0.959808">
            <path d="m 116.277,-562.859 0.004,-0.012 0.012,-0.067 -0.016,-0.117 -0.019,-0.148 0.035,-0.164 0.008,-0.25 0.008,-0.184 0.007,-0.043 0.004,-0.078 v -0.086 l 0.012,-0.066 0.008,-0.074 0.008,-0.082 0.019,-0.09 0.012,-0.075 0.004,-0.05 0.035,-0.051 0.035,-0.035 -0.019,-0.035 v -0.137 l 0.011,-0.051 -0.074,-0.043 0.027,-0.074 h 0.094 l -0.027,-0.016 0.004,-0.07 0.004,-0.023 0.047,-0.02 0.105,-0.055 0.012,-0.125 -0.071,-0.054 -0.011,0.011 -0.012,-0.011 -0.008,-0.024 -0.039,-0.035 -0.031,-0.035 0.008,-0.039 -0.008,-0.051 -0.008,-0.055 -0.004,-0.05 0.043,-0.039 -0.066,-0.055 -0.047,-0.024 0.058,-0.035 -0.023,-0.062 v -0.082 l -0.004,-0.047 0.117,-0.055 0.055,-0.07 -0.055,-0.035 -0.004,-0.039 -0.043,-0.028 -0.023,-0.015 v -0.02 l 0.055,-0.008 0.046,0.035 h -0.046 v -0.035 l -0.004,-0.031 v -0.043 l 0.023,-0.008 v 0.028 l -0.008,0.046 0.004,-0.003 v -0.04 l 0.004,-0.011 -0.019,-0.012 0.004,-0.027 0.042,-0.032 0.012,-0.023 0.012,-0.019 0.008,-0.012 0.051,-0.028 0.097,-0.011 -0.012,-0.063 -0.058,-0.023 -0.016,0.023 -0.011,0.008 h -0.012 l -0.004,-0.008 h -0.027 l -0.004,0.004 0.004,-0.016 v 0.004 -0.007 l -0.051,-0.028 h -0.024 l 0.028,-0.011 0.011,-0.028 0.012,-0.008 h 0.008 l 0.168,-0.031 0.082,-0.051 -0.066,-0.039 v -0.043 l -0.043,0.008 -0.024,-0.016 -0.035,-0.003" style="fill:none;stroke:#000000;stroke-width:2.51026;stroke-linecap:round;stroke-linejoin:round;stroke-miterlimit:10;stroke-dasharray:none;stroke-opacity:1" id="path4709" />
         </g>
         <g id="g4711" transform="scale(1,-1)" style="stroke-width:0.959808">
            <path d="m 119.195,-563.902 c 2.938,2.972 6.328,5.48 10.125,7.222 3.481,1.848 6.215,4.739 9.2,7.215 l 0.078,0.137" style="fill:none;stroke:#000000;stroke-width:2.51026;stroke-linecap:round;stroke-linejoin:round;stroke-miterlimit:10;stroke-dasharray:none;stroke-opacity:1" id="path4713" />
         </g>
         <g id="g4715" transform="scale(1,-1)" style="stroke-width:0.959808">
            <path d="m 141.672,-553.344 c 1.344,-1.621 1.492,-3.844 2.516,-5.633" style="fill:none;stroke:#000000;stroke-width:2.51026;stroke-linecap:round;stroke-linejoin:round;stroke-miterlimit:10;stroke-dasharray:none;stroke-opacity:1" id="path4717" />
         </g>
         <g id="g4719" transform="scale(1,-1)" style="stroke-width:0.959808">
            <path d="m 129.617,-566.453 c -1.004,2.883 -5.125,0.117 -6.445,-0.953" style="fill:none;stroke:#000000;stroke-width:2.51026;stroke-linecap:round;stroke-linejoin:round;stroke-miterlimit:10;stroke-dasharray:none;stroke-opacity:1" id="path4721" />
         </g>
         <g id="g4723" transform="scale(1,-1)" style="stroke-width:0.959808">
            <path d="m 130.867,-561.43 c -1.347,1.766 -3.926,1.883 -5.59,3.145" style="fill:none;stroke:#000000;stroke-width:2.51026;stroke-linecap:round;stroke-linejoin:round;stroke-miterlimit:10;stroke-dasharray:none;stroke-opacity:1" id="path4725" />
         </g>
         <g id="g4727" transform="scale(1,-1)" style="stroke-width:0.959808">
            <path d="m 127.621,-567.516 c 0.09,0.204 -0.336,0.211 -0.289,0.246 0.246,0.032 -0.156,0.114 -0.004,0.25 -0.058,0.168 0.024,0.204 0.086,0.141 0.031,0.039 -0.117,0.016 -0.019,0.004 0.156,-0.027 0.339,-0.074 0.347,-0.031 -0.09,0.027 -0.015,-0.133 -0.078,-0.071 -0.008,-0.23 -0.387,-0.015 -0.187,0.051 0.097,0.059 -0.25,0.137 -0.028,0.219 0.137,0.164 0.278,0.332 0.434,0.461" style="fill:none;stroke:#000000;stroke-width:2.51026;stroke-linecap:round;stroke-linejoin:round;stroke-miterlimit:10;stroke-dasharray:none;stroke-opacity:1" id="path4729" />
         </g>
         <g id="g4731" transform="scale(1,-1)" style="stroke-width:0.959808">
            <path d="m 139.453,-577.711 h -0.004 l -0.011,-0.016 -0.004,-0.043 -0.024,-0.085 -0.066,-0.055 -0.051,-0.039 -0.039,-0.059 -0.043,-0.051 -0.047,-0.054 -0.043,-0.047 -0.039,-0.129 -0.066,-0.074 -0.059,0.011 -0.047,-0.046 -0.066,-0.016 -0.059,-0.027 v -0.008 l -0.027,-0.012 -0.031,-0.059 -0.032,-0.007 h -0.007 l 0.039,-0.012 h 0.003 l -0.05,-0.027 -0.004,-0.039 -0.024,-0.008 -0.047,-0.004 0.008,-0.02 0.09,-0.019 -0.027,-0.004 -0.121,0.004 -0.051,0.004 -0.039,-0.008 -0.055,-0.012 -0.238,-0.004 -0.137,-0.066 0.067,0.004 -0.051,-0.024 -0.051,-0.062 -0.043,-0.016 -0.031,-0.027 -0.09,-0.043 -0.082,-0.024 -0.024,-0.015 -0.046,-0.024 -0.051,-0.035 -0.035,-0.027 -0.039,-0.035 -0.086,0.004 -0.063,0.019 -0.047,-0.031 -0.035,-0.004 -0.019,-0.016 -0.059,0.028 -0.074,-0.02 0.015,0.004 -0.015,0.055 -0.039,0.051 -0.028,0.066 0.024,0.055 0.015,0.078 -0.003,0.062 0.015,0.012 0.008,0.055" style="fill:none;stroke:#000000;stroke-width:2.51026;stroke-linecap:round;stroke-linejoin:round;stroke-miterlimit:10;stroke-dasharray:none;stroke-opacity:1" id="path4733" />
         </g>
         <g id="g4735" transform="scale(1,-1)" style="stroke-width:0.959808">
            <path d="m 132.996,-577.004 -0.008,0.004 -0.031,0.004 -0.051,0.012 -0.066,0.027 -0.055,0.012 -0.133,0.011 -0.144,0.039 0.027,0.004 0.02,0.008 0.004,0.004 0.007,0.012 h 0.004 l 0.055,-0.004 0.031,0.016 -0.054,0.007 -0.036,-0.027 -0.043,0.023 h -0.046 l -0.079,0.016 0.024,0.004 v 0.027 l -0.078,0.008 -0.032,-0.012 -0.05,0.028 -0.043,0.008 -0.157,0.023 -0.117,0.012 0.055,0.031 v 0.012 l 0.004,0.011 0.008,-0.004 v 0.008 l -0.016,0.02 -0.027,0.023 0.008,0.012 -0.016,0.016 -0.02,0.011 h 0.012 l -0.004,-0.011 0.008,0.007 0.039,0.024 0.012,0.031 h 0.031 l -0.019,0.024 0.003,-0.067" style="fill:none;stroke:#000000;stroke-width:2.51026;stroke-linecap:round;stroke-linejoin:round;stroke-miterlimit:10;stroke-dasharray:none;stroke-opacity:1" id="path4737" />
         </g>
         <g id="g4739" transform="scale(1,-1)" style="stroke-width:0.959808">
            <path d="m 138.254,-586.188 v -0.007 l -0.031,-0.012 -0.078,-0.027 -0.004,-0.043 0.015,-0.055 -0.051,0.008 v -0.063 l -0.054,-0.004 -0.008,0.036 -0.004,0.007 -0.019,-0.058 -0.004,-0.016 -0.012,-0.019 0.031,-0.036 0.004,0.024 -0.055,-0.012 -0.004,-0.086 -0.031,-0.054 -0.008,-0.043 -0.019,-0.024 -0.004,-0.062 -0.004,-0.047 -0.016,-0.008 -0.003,-0.027 -0.012,-0.004 0.027,-0.02 -0.027,-0.023 -0.074,-0.02 -0.028,-0.019 -0.023,-0.008 -0.031,-0.016 -0.051,-0.023 -0.086,-0.024 -0.043,-0.035 0.004,-0.008 -0.008,-0.027 -0.043,-0.027 -0.031,-0.008 0.093,-0.02 0.016,-0.035 -0.105,-0.019 -0.043,0.031 -0.035,0.008 -0.032,-0.004 -0.07,-0.016 -0.078,-0.004 -0.055,-0.004 h -0.031 l -0.031,0.012 -0.043,0.008 -0.106,0.008 -0.07,0.031 0.039,-0.012 -0.023,-0.023 -0.008,-0.004 h -0.051 l 0.051,-0.008 h -0.067 l -0.058,-0.008 -0.071,-0.008 -0.043,-0.011 -0.195,-0.004 -0.094,-0.055 0.051,-0.004 -0.109,0.004 -0.078,-0.008 -0.071,0.004 -0.043,-0.019 -0.093,0.004 -0.039,-0.012 0.015,0.008 -0.062,0.004 -0.067,-0.016 h -0.047 l -0.027,0.004 h -0.051 l -0.05,0.004 -0.059,-0.02 h -0.043 l -0.031,-0.015 -0.028,-0.008 -0.078,-0.039 -0.027,-0.031 -0.047,0.003 -0.063,-0.019 -0.074,-0.004 -0.113,-0.016 -0.086,-0.007 -0.004,-0.024 -0.031,-0.027 -0.07,-0.012 -0.043,-0.008 -0.059,-0.015 -0.043,-0.012 -0.062,-0.031 -0.055,-0.024 -0.059,0.008 0.047,-0.008 -0.008,0.004 -0.066,-0.008 h -0.145 l -0.191,0.008 -0.113,-0.058 0.066,-0.008 -0.039,0.047 -0.043,0.031 -0.039,0.008 0.039,0.007 -0.043,0.012 -0.078,0.024 -0.031,0.019 h -0.039 l -0.067,-0.015 -0.07,-0.008 -0.211,-0.004 -0.144,-0.004 0.074,-0.027 -0.043,-0.016 -0.035,-0.012 -0.004,-0.008 -0.02,-0.019 -0.031,-0.012 -0.02,-0.047 -0.023,-0.054 -0.039,0.007 -0.035,-0.007 -0.024,-0.02 0.012,-0.008 -0.008,0.024 -0.043,-0.055 -0.023,-0.07 -0.043,0.015 -0.008,-0.031 -0.031,-0.004 h -0.035 l -0.012,-0.004" style="fill:none;stroke:#000000;stroke-width:2.51026;stroke-linecap:round;stroke-linejoin:round;stroke-miterlimit:10;stroke-dasharray:none;stroke-opacity:1" id="path4741" />
         </g>
         <g id="g4743" transform="scale(1,-1)" style="stroke-width:0.959808">
            <path d="m 132.477,-587.148 v -0.016 l -0.016,-0.051 0.016,-0.074 0.011,-0.07 -0.074,-0.067 -0.055,-0.043 -0.054,-0.031 h -0.071 l -0.105,0.02 -0.117,0.007 -0.055,-0.023 -0.039,0.019 -0.063,0.051 -0.066,0.024 -0.062,0.019 v 0.055 l -0.028,0.066 -0.097,0.024 -0.059,-0.004 -0.051,0.054 -0.058,0.024 -0.067,0.035 -0.027,0.051 -0.016,0.051 -0.047,0.039 -0.039,0.023 -0.047,-0.004 0.004,0.024 0.02,0.039 -0.047,0.043 -0.074,0.039 -0.059,0.047 -0.058,0.054 -0.071,0.055 -0.133,0.043 -0.121,0.047 -0.058,0.086 -0.094,0.07 -0.082,0.035 -0.086,0.055 -0.07,0.051 -0.047,0.035 -0.082,0.047 -0.082,0.039 -0.067,0.055 -0.066,0.035 -0.059,0.062 0.008,0.055 -0.023,0.047 -0.055,0.035 -0.039,0.039 -0.031,0.07 -0.024,0.055 -0.117,0.059 -0.105,0.066 0.023,0.039 0.016,0.055 -0.008,0.082 0.004,0.058 -0.012,0.055" style="fill:none;stroke:#000000;stroke-width:2.51026;stroke-linecap:round;stroke-linejoin:round;stroke-miterlimit:10;stroke-dasharray:none;stroke-opacity:1" id="path4745" />
         </g>
         <g id="g4747" transform="scale(1,-1)" style="stroke-width:0.959808">
            <path d="m 135.977,-583.512 0.015,-0.004 0.063,-0.004 0.05,0.012 0.043,-0.004 v 0.02 l 0.141,0.004 0.02,0.066 -0.071,-0.004 -0.039,-0.054 -0.133,0.007 h -0.086 l -0.035,-0.004 -0.031,0.004 -0.066,-0.007 h -0.047 l -0.074,0.003 h -0.235 l -0.054,-0.011 -0.067,0.015 -0.09,0.008 -0.113,-0.012 h -0.297 l -0.117,0.016 -0.129,-0.012 -0.129,-0.019 -0.121,-0.012 -0.109,-0.004 -0.106,-0.004 -0.098,-0.058 -0.117,-0.004 -0.086,0.043 -0.093,-0.008 -0.082,0.004 h -0.09 l -0.074,-0.02 -0.075,-0.035 -0.066,-0.015 -0.055,0.023 -0.035,0.004 -0.082,0.008" style="fill:none;stroke:#000000;stroke-width:2.51026;stroke-linecap:round;stroke-linejoin:round;stroke-miterlimit:10;stroke-dasharray:none;stroke-opacity:1" id="path4749" />
         </g>
         <g id="g4751" transform="scale(1,-1)" style="stroke-width:0.959808">
            <path d="m 141.113,-564.18 -0.015,-0.011 -0.028,-0.047 0.028,-0.055 -0.008,-0.012 0.004,-0.054 0.07,-0.051 -0.047,-0.016 -0.094,-0.035 0.051,-0.031 v -0.016 l -0.023,-0.031 -0.043,-0.027 v -0.032 l -0.004,-0.011 -0.055,-0.039 -0.043,-0.055 -0.023,-0.024 -0.028,-0.019 -0.031,-0.063 -0.023,-0.054 -0.031,-0.047 -0.028,-0.004 -0.012,-0.02 -0.023,-0.019 -0.059,-0.004 -0.027,0.023 0.004,-0.004 -0.008,-0.046 v -0.047 l -0.004,-0.039 -0.043,-0.039 -0.019,-0.067 0.023,-0.012 -0.012,-0.035 -0.003,-0.089 -0.016,-0.067 0.031,-0.055 0.078,-0.046 -0.035,-0.059 -0.082,-0.047 -0.043,-0.023 -0.027,-0.02 -0.031,-0.043 -0.02,-0.062 -0.035,-0.078 -0.051,-0.047 -0.043,-0.059 -0.039,-0.074 -0.023,-0.074 0.023,-0.075 -0.094,-0.078 -0.113,-0.078 0.027,-0.074 -0.011,-0.067 -0.024,-0.074 -0.039,-0.078 0.145,-0.074 0.082,-0.106 -0.125,-0.113 -0.024,-0.109 -0.019,-0.039 -0.012,-0.055 -0.008,-0.074 0.047,-0.063 0.051,-0.093 -0.012,-0.09 0.008,-0.094 0.027,-0.07 0.012,-0.078 0.066,-0.094 0.047,-0.078 0.008,-0.082 0.035,-0.059 0.043,-0.023 0.039,-0.059 0.024,-0.062 0.062,-0.047 0.074,-0.051 0.059,-0.059 0.051,-0.054 0.043,-0.032 0.058,-0.031 0.063,-0.027 0.027,-0.074 0.047,-0.024 0.028,0.004 0.011,0.004 0.024,-0.012 0.011,-0.023 -0.007,-0.004 -0.008,0.015 -0.016,0.012 h 0.004 v -0.012 l -0.004,-0.011 -0.058,0.004 -0.02,0.027 0.031,-0.004 0.008,-0.019 0.008,0.003 0.098,-0.011 0.05,-0.016 -0.054,-0.035 0.015,-0.039 -0.019,0.019 -0.008,-0.031 -0.074,-0.019 0.031,-0.004 0.039,-0.008 0.012,-0.008 0.011,-0.019 0.02,-0.032 -0.027,-0.031 -0.008,-0.051 0.039,-0.023 0.012,-0.035 0.011,-0.059 0.008,-0.043 0.035,-0.051 0.055,-0.066 0.004,-0.031 -0.004,-0.035 -0.008,-0.032 -0.004,-0.019 0.012,-0.031 -0.078,-0.024 -0.031,-0.066 0.05,-0.012 0.004,0.035 0.004,-0.004 0.008,0.012 0.012,0.016 -0.004,0.015 -0.008,0.004 0.008,0.02 0.004,0.019 v 0.004 l -0.008,0.012 -0.004,0.015 0.004,0.024 v 0.027 l 0.004,0.02 v 0.004 l 0.004,-0.008 0.082,-0.008 0.031,-0.02 -0.051,-0.035 -0.011,-0.027 -0.02,0.004 -0.016,0.008 -0.023,0.007 -0.004,0.012 0.004,0.016 v -0.039 h -0.027 l 0.039,0.011 0.019,0.012 -0.019,0.039 -0.016,-0.023 0.051,-0.008 0.097,-0.027 -0.023,-0.032 -0.066,0.004 -0.02,-0.007 -0.016,-0.004 -0.117,0.015 -0.027,-0.047 0.055,-0.007 -0.004,0.054 0.004,-0.008 0.007,0.008 0.047,0.004 -0.011,0.008 -0.059,0.008 h 0.023 l 0.016,0.039 0.008,-0.016 0.043,0.004 0.035,-0.004 -0.012,-0.012 h 0.004 l 0.004,0.008 v 0.008 l -0.008,0.004 -0.008,-0.008 -0.007,-0.019 -0.008,0.015 -0.004,0.02 -0.008,0.031 -0.004,0.027 -0.019,0.02 -0.012,0.004 -0.008,-0.016 -0.004,-0.019 -0.004,-0.004 -0.019,0.008 -0.028,0.007 0.008,0.082 -0.039,0.036 -0.019,-0.02 -0.024,0.031 0.028,0.032 0.043,0.007 h -0.008 l -0.039,0.016 -0.032,0.027 -0.023,0.02 -0.031,0.031 -0.02,0.035 -0.015,0.039 -0.012,0.039 -0.008,0.051 -0.027,0.028 -0.008,0.054 0.031,0.059 -0.074,0.062 -0.059,0.071 0.059,0.066 0.043,0.059 0.015,0.054 0.012,0.059 0.16,0.062 0.067,0.11 -0.059,0.015 -0.004,0.059 0.02,0.109 0.004,0.039 v 0.028 l 0.004,0.035 0.039,0.043 0.023,0.055 0.02,0.074 0.011,0.094 0.008,0.082 0.067,0.097 0.046,0.121 -0.015,0.079 0.008,0.058 0.019,0.098 0.024,0.097 0.043,0.075 0.05,0.07 0.024,0.102 -0.008,0.082 0.023,0.058 0.043,0.059 0.047,0.054 0.004,0.075 0.008,0.011 0.074,0.086 0.043,0.137 0.055,0.109 0.039,0.075 0.062,0.07 0.008,0.09 0.012,0.101 0.059,0.094 0.043,0.066 0.046,0.059 0.036,0.074 v 0.09 l 0.003,0.09 0.04,0.07 0.027,0.032 0.008,0.031 0.004,0.051 0.113,0.05 0.039,0.067 -0.051,0.008 -0.012,0.023 -0.015,0.074 -0.012,0.035 -0.016,0.039 -0.046,0.047 -0.028,0.075 0.031,0.042 v 0.024 l 0.008,0.019 0.008,0.036 -0.039,0.039 0.016,0.058 0.07,0.051 0.027,0.02 0.02,0.027 0.023,0.016 0.039,0.019 0.082,0.027 -0.004,0.008 -0.011,0.035 0.027,0.036 0.012,0.039 0.004,0.011 h -0.141 l -0.066,-0.039 0.093,-0.011 0.012,0.027 0.016,-0.024 0.031,-0.023 0.047,-0.012 -0.027,-0.011 -0.047,-0.008 0.047,-0.028 v -0.054 l 0.003,-0.012 0.028,-0.004 0.012,-0.012 -0.036,-0.015 -0.011,-0.028 -0.012,-0.003 0.008,-0.02 0.039,-0.008 0.012,-0.027 -0.071,-0.07 -0.015,-0.032 -0.028,-0.027 -0.035,-0.055 -0.055,-0.043 -0.027,-0.008 -0.012,-0.031 -0.007,-0.051 -0.008,-0.039 -0.02,-0.035 -0.012,-0.058 -0.023,-0.067 -0.012,-0.004 -0.007,-0.035 -0.016,-0.066 -0.012,-0.043 v -0.047 l 0.059,-0.063 -0.008,-0.109 -0.094,-0.043 -0.027,-0.016 -0.043,-0.039 -0.043,-0.043 -0.125,-0.058 -0.078,-0.098 0.043,-0.031 -0.028,-0.039 -0.027,-0.055 -0.023,-0.031 0.023,-0.043 -0.023,-0.055 -0.071,-0.054 -0.023,-0.047 -0.027,-0.043 -0.032,-0.059 -0.031,-0.062 0.098,-0.043 0.015,-0.067 -0.105,-0.086 -0.043,-0.097 -0.039,-0.039 -0.039,-0.051 -0.067,-0.055 -0.054,-0.086 -0.032,-0.09 -0.039,-0.074 0.004,-0.058 -0.023,-0.071 -0.008,-0.105 -0.023,-0.098 -0.004,-0.066 v -0.094 l 0.004,-0.176 0.007,-0.148 -0.011,-0.137 v -0.137 l 0.007,-0.14 0.024,-0.11 -0.008,-0.07 0.016,-0.106 0.011,-0.097 0.043,-0.11 0.059,-0.101 -0.008,-0.106 -0.008,-0.117 0.016,-0.097 0.004,-0.106 0.023,-0.121 -0.011,-0.102 -0.004,-0.109 0.015,-0.086 v -0.176 l 0.02,-0.07 0.019,-0.062 -0.058,-0.051 -0.039,-0.074 0.043,-0.055 0.004,-0.039 0.027,-0.035 0.004,-0.016 0.039,-0.02 0.035,-0.015 -0.027,-0.043 0.023,-0.008 -0.004,0.016 v 0.015 l -0.043,0.012 -0.054,0.02 -0.02,0.015 0.043,0.008 0.016,0.008 0.023,0.004 0.02,0.019 0.05,0.008 0.047,0.074 -0.019,0.02 0.035,-0.008 0.016,-0.012 0.054,0.008 0.012,0.047 0.098,0.027" style="fill:none;stroke:#000000;stroke-width:2.51026;stroke-linecap:round;stroke-linejoin:round;stroke-miterlimit:10;stroke-dasharray:none;stroke-opacity:1" id="path4753" />
         </g>
         <g id="g4755" transform="scale(1,-1)" style="stroke-width:0.959808">
            <path d="m 142.012,-565.219 c -0.086,-4.226 0.453,-8.5 0.179,-12.687 0.543,-3.625 -0.402,-7.293 0.153,-10.93 0.359,-1.879 -1.246,-6.043 0.019,-6.734" style="fill:none;stroke:#000000;stroke-width:2.51026;stroke-linecap:round;stroke-linejoin:round;stroke-miterlimit:10;stroke-dasharray:none;stroke-opacity:1" id="path4757" />
         </g>
         <g id="g4759" transform="scale(1,-1)" style="stroke-width:0.959808">
            <path d="m 143.945,-596.266 c 7.41974,0.85654 14.29579,-2.99779 21.68654,-2.42382 1.91577,0.46497 6.10522,-0.80116 6.09146,2.27982" style="fill:none;stroke:#000000;stroke-width:2.51026;stroke-linecap:round;stroke-linejoin:round;stroke-miterlimit:10;stroke-dasharray:none;stroke-opacity:1" id="path4761" />
         </g>
         <g id="g4763" transform="scale(1,-1)" style="stroke-width:0.959808">
            <path d="m 171.902,-595.676 c -4.95305,-2.61063 -10.72704,-0.39832 -15.91081,-1.07615 l 0.025,0.15116 0.79281,0.48399" style="fill:none;stroke:#000000;stroke-width:2.51026;stroke-linecap:round;stroke-linejoin:round;stroke-miterlimit:10;stroke-dasharray:none;stroke-opacity:1" id="path4765" />
         </g>
         <g id="g4767" transform="scale(1,-1)" style="stroke-width:0.959808">
            <path d="m 173.93,-590.301 c -7.41584,-0.71083 -14.89708,-1.19199 -22.14964,-2.9219 -2.83024,-0.24269 -5.85861,-0.97275 -8.56936,0.2429" style="fill:none;stroke:#000000;stroke-width:2.51026;stroke-linecap:round;stroke-linejoin:round;stroke-miterlimit:10;stroke-dasharray:none;stroke-opacity:1" id="path4769" />
         </g>
         <g id="g4771" transform="scale(1,-1)" style="stroke-width:0.959808">
            <path d="m 146.766,-584.578 v -0.039 l 0.019,-0.035 0.043,-0.071 v -0.023 l 0.012,-0.039 0.004,-0.051 0.031,-0.062 0.066,-0.055 0.114,-0.047 0.082,-0.125 -0.02,-0.086 0.055,-0.019 0.058,-0.04 0.09,-0.058 0.133,-0.039 -0.008,-0.035 0.016,-0.067 0.141,-0.039 0.125,-0.015 0.117,-0.008 0.09,-0.016 0.234,-0.004 0.18,0.035 -0.008,0.012 0.094,-0.019 0.109,0.011 0.082,0.043 0.051,0.047 0.101,0.024 0.098,0.015 v 0.02" style="fill:none;stroke:#000000;stroke-width:2.51026;stroke-linecap:round;stroke-linejoin:round;stroke-miterlimit:10;stroke-dasharray:none;stroke-opacity:1" id="path4773" />
         </g>
         <g id="g4775" transform="scale(1,-1)" style="stroke-width:0.959808">
            <path d="m 142.738,-560.062 c 2.211,0.355 4.43,0.687 6.676,0.386 2.117,0.012 4.219,-0.015 6.316,-0.359 2.157,-0.203 4.286,-0.777 6.454,-0.512 2.39,-0.328 4.746,0.211 7.132,0.137 0.93,-0.078 1.914,0.586 2.719,-0.149" style="fill:none;stroke:#000000;stroke-width:2.51026;stroke-linecap:round;stroke-linejoin:round;stroke-miterlimit:10;stroke-dasharray:none;stroke-opacity:1" id="path4777" />
         </g>
         <g id="g4779" transform="scale(1,-1)" style="stroke-width:0.959808">
            <path d="m 186.82,-557.531 c -2.355,0.875 3.133,2.73 0.746,0.25 -3,-1.942 -0.378,3.488 1.18,1.027 -0.012,-0.59 -3.508,-2.719 -2.453,-1.07" style="fill:none;stroke:#000000;stroke-width:2.51026;stroke-linecap:round;stroke-linejoin:round;stroke-miterlimit:10;stroke-dasharray:none;stroke-opacity:1" id="path4781" />
         </g>
         <g id="g4783" transform="scale(1,-1)" style="stroke-width:0.959808">
            <path d="m 183.824,-553.238 c -3.043,-1.192 -6.66,-1.11 -9.855,-1.762 -2.168,0.711 -4.11,-0.938 -6.164,-0.441" style="fill:none;stroke:#000000;stroke-width:2.51026;stroke-linecap:round;stroke-linejoin:round;stroke-miterlimit:10;stroke-dasharray:none;stroke-opacity:1" id="path4785" />
         </g>
         <g id="g4787" transform="scale(1,-1)" style="stroke-width:0.959808">
            <path d="m 167.316,-557.691 c -1.636,-1.243 1.2,5.242 2.309,2.578 -0.051,-1.328 -1.824,-3.953 -0.219,-1.375 1.071,2.238 0.457,-3.301 1.598,-0.321 0.418,0.84 0.219,-0.199 -0.086,-0.113" style="fill:none;stroke:#000000;stroke-width:2.51026;stroke-linecap:round;stroke-linejoin:round;stroke-miterlimit:10;stroke-dasharray:none;stroke-opacity:1" id="path4789" />
         </g>
         <g id="g4791" transform="scale(1,-1)" style="stroke-width:0.959808">
            <path d="m 170.949,-558.266 c 4.516,0.133 9.047,-0.945 13.492,-1.086 l 0.442,0.157 -0.063,-0.008 -0.011,-0.02" style="fill:none;stroke:#000000;stroke-width:2.51026;stroke-linecap:round;stroke-linejoin:round;stroke-miterlimit:10;stroke-dasharray:none;stroke-opacity:1" id="path4793" />
         </g>
         <g id="g4795" transform="scale(1,-1)" style="stroke-width:0.959808">
            <path d="m 159.117,-600.066 v -0.012 l -0.004,-0.039 -0.008,-0.067 0.024,-0.082 0.012,-0.066 -0.016,0.02 v -0.059 l -0.004,-0.047 v 0.012 l 0.008,-0.008 v -0.016 l 0.004,-0.015 -0.016,-0.004 v 0.023 h 0.008 l -0.012,0.008 -0.054,-0.012 -0.036,-0.066 0.032,-0.02 0.011,0.043 v -0.007 l 0.004,0.007 0.067,-0.004 0.035,0.004 -0.063,0.008 0.012,-0.019 -0.027,-0.028 -0.012,-0.031 -0.008,-0.023 0.008,-0.051 v -0.047 l 0.004,-0.055 v -0.133 l -0.09,-0.066 -0.039,-0.102 0.086,-0.113 0.043,-0.105 0.047,-0.098 -0.008,-0.102 0.039,-0.144 0.086,-0.141 -0.016,-0.125 -0.039,-0.152 -0.011,-0.188 0.007,-0.199 0.016,-0.195 0.004,-0.199 v -0.203 l 0.016,-0.18 0.003,-0.184 -0.015,-0.211 -0.004,-0.195 0.027,-0.191 -0.027,-0.203 -0.027,-0.207 0.019,-0.196 v -0.379 l -0.035,-0.183 0.043,-0.172 0.039,-0.172 -0.02,-0.145 0.004,-0.128 0.016,-0.114 0.008,-0.125 0.023,-0.117 0.012,-0.074 0.004,-0.098 0.008,-0.113 0.004,-0.109 v -0.106 l 0.003,-0.102 0.02,-0.089" style="fill:none;stroke:#000000;stroke-width:2.51026;stroke-linecap:round;stroke-linejoin:round;stroke-miterlimit:10;stroke-dasharray:none;stroke-opacity:1" id="path4797" />
         </g>
         <g id="g4799" transform="scale(1,-1)" style="stroke-width:0.959808">
            <path d="m 160.195,-605.16 0.004,-0.02 0.004,-0.101 0.059,-0.215 0.054,-0.336 -0.007,-0.375 0.035,-0.328 0.015,-0.317 0.028,-0.308 -0.098,-0.274 -0.004,-0.281 0.121,-0.277 0.051,-0.293 0.031,-0.266 0.039,-0.179 0.098,-0.137 0.078,-0.164 -0.027,-0.16 -0.012,-0.172 0.012,-0.164 -0.004,-0.168 -0.004,-0.145 -0.168,-0.109 -0.055,-0.117 0.117,-0.098 0.024,-0.145 0.039,-0.129 0.031,-0.085 0.035,-0.082 -0.027,-0.098 -0.035,-0.094 0.059,-0.043 0.007,-0.039 0.028,-0.055 -0.008,-0.019 0.066,-0.012 0.028,-0.023 -0.047,0.011 -0.008,0.039 -0.012,0.047 -0.008,0.051 -0.004,0.008 -0.007,0.035 v 0.043 l 0.004,0.055 0.003,0.035 0.004,0.016 0.004,0.027 -0.011,0.047 -0.016,0.043 0.008,0.043 -0.004,0.074 -0.004,0.082 v 0.078 l -0.055,0.106 v 0.101 l 0.032,0.086 -0.012,0.109 v 0.207 l 0.066,0.114 0.082,0.121 -0.035,0.144 -0.066,0.118 -0.02,0.121 -0.015,0.136 -0.012,0.129 -0.059,0.157 -0.027,0.164 0.031,0.16 0.024,0.16 0.007,0.187 0.004,0.168 0.008,0.149 -0.059,0.168 -0.003,0.199 0.082,0.223 0.043,0.242 0.043,0.25 0.042,0.238 0.161,0.215 0.07,0.254 -0.086,0.25 0.012,0.266 0.015,0.265 v 0.242 l -0.05,0.231 -0.043,0.262 0.011,0.246 -0.015,0.23 -0.012,0.25 -0.008,0.234 -0.012,0.211 -0.003,0.192 -0.008,0.183 -0.004,0.176 -0.004,0.219 -0.008,0.226 v 0.2 l -0.004,0.179 0.035,0.172 0.012,0.18 -0.023,0.156 -0.008,0.289 0.051,0.117 v 0.114 l -0.028,0.101 0.032,0.086 0.007,0.02 0.004,0.008 -0.004,-0.016 -0.004,-0.008 -0.023,-0.039 0.027,-0.039 0.039,0.008 0.008,-0.067 -0.015,-0.031 -0.012,-0.043 -0.074,-0.035 -0.043,-0.059 0.047,-0.031 0.027,-0.047 0.027,-0.07 0.012,-0.055 0.07,-0.062 0.032,-0.067 -0.028,-0.062 0.016,-0.102 0.008,-0.09 0.019,-0.128 -0.023,-0.149 -0.063,-0.14 0.028,-0.157 0.05,-0.16 0.035,-0.16 0.016,-0.164 0.016,-0.176 -0.024,-0.215 0.012,-0.23 0.035,-0.246 -0.004,-0.242 -0.019,-0.211 0.011,-0.207 -0.015,-0.247 0.082,-0.261 0.043,-0.25 -0.063,-0.242 -0.011,-0.274 -0.012,-0.277 0.004,-0.266 -0.035,-0.281 -0.02,-0.281 0.043,-0.27 0.004,-0.293 0.023,-0.293 0.012,-0.285 0.043,-0.297 v -0.289 l -0.012,-0.269 0.02,-0.164 0.019,-0.133 0.024,-0.149 0.012,-0.14 0.043,-0.125 0.035,-0.118 -0.02,-0.097 0.02,-0.074 0.008,-0.055 0.019,-0.051 0.078,-0.035 0.028,-0.031 -0.028,-0.02 -0.004,-0.004 -0.004,0.012 -0.003,0.008 -0.028,0.004 -0.012,0.015 0.004,0.024 v 0.023 l -0.007,0.078 -0.004,0.055 v 0.02 l -0.012,0.035 v 0.019 l 0.023,0.02 v 0.051 l 0.004,0.031 0.024,0.023 0.109,0.016 0.047,0.039 -0.059,0.031 0.012,0.067 -0.004,0.085 0.012,0.086 -0.145,0.09 -0.015,0.129 0.133,0.106 0.031,0.129 0.043,0.117 0.043,0.121 0.062,0.156 0.012,0.129 0.019,0.102 0.079,0.093 0.054,0.137 0.047,0.145 0.047,0.148 0.09,0.172 0.062,0.168 -0.004,0.168 0.028,0.18 0.047,0.171 0.035,0.188 -0.004,0.156 -0.004,0.16 0.063,0.157 0.039,0.164" style="fill:none;stroke:#000000;stroke-width:2.51026;stroke-linecap:round;stroke-linejoin:round;stroke-miterlimit:10;stroke-dasharray:none;stroke-opacity:1" id="path4801" />
         </g>
         <g id="g4803" transform="scale(1,-1)" style="stroke-width:0.959808">
            <path d="m 161.453,-610.41 -0.015,0.004 0.011,-0.008 -0.015,-0.031 -0.129,-0.012 -0.024,0.008 -0.019,0.015 -0.012,0.012 0.039,-0.027 -0.023,-0.02 -0.016,-0.074 -0.004,-0.062 v -0.067 l 0.039,-0.094 0.016,-0.101 -0.008,-0.09 0.008,-0.098" style="fill:none;stroke:#000000;stroke-width:2.51026;stroke-linecap:round;stroke-linejoin:round;stroke-miterlimit:10;stroke-dasharray:none;stroke-opacity:1" id="path4805" />
         </g>
         <g id="g4807" transform="scale(1,-1)" style="stroke-width:0.959808">
            <path d="m 196.27,-592.207 c -0.832,0.148 -1.829,-0.594 -2.625,0.16" style="fill:none;stroke:#000000;stroke-width:2.51026;stroke-linecap:round;stroke-linejoin:round;stroke-miterlimit:10;stroke-dasharray:none;stroke-opacity:1" id="path4809" />
         </g>
         <g id="g4811" transform="scale(1,-1)" style="stroke-width:0.959808">
            <path d="m 194.828,-590.793 c 1.094,1.992 0.594,3.453 0.012,5.461" style="fill:none;stroke:#000000;stroke-width:2.51026;stroke-linecap:round;stroke-linejoin:round;stroke-miterlimit:10;stroke-dasharray:none;stroke-opacity:1" id="path4813" />
         </g>
         <g id="g4815" transform="scale(1,-1)" style="stroke-width:0.959808">
            <path d="m 192.734,-585.355 c -3.472,2.175 -2.828,-2.348 -5.097,-4.086 -0.649,-0.555 -1.332,-1.243 -2.078,-1.692" style="fill:none;stroke:#000000;stroke-width:2.51026;stroke-linecap:round;stroke-linejoin:round;stroke-miterlimit:10;stroke-dasharray:none;stroke-opacity:1" id="path4817" />
         </g>
         <g id="g4819" transform="scale(1,-1)" style="stroke-width:0.959808">
            <path d="m 185.699,-588.91 c -1.461,-0.688 -2.273,-2.266 -3.785,-2.875" style="fill:none;stroke:#000000;stroke-width:2.51026;stroke-linecap:round;stroke-linejoin:round;stroke-miterlimit:10;stroke-dasharray:none;stroke-opacity:1" id="path4821" />
         </g>
         <g id="g4823" transform="scale(1,-1)" style="stroke-width:0.959808">
            <path d="m 114.035,-573.711 0.024,0.008 0.058,0.039 0.106,0.016 0.132,-0.059 0.122,-0.059 0.238,-0.066 0.316,-0.055 0.004,-0.152 -0.051,-0.094 0.036,-0.031 0.019,-0.027 0.031,-0.043 0.059,-0.047 0.043,-0.063 0.047,-0.031 0.023,-0.031 0.039,-0.082 0.035,-0.055 0.063,-0.043 v -0.051 l -0.024,-0.019 0.043,-0.028" style="fill:none;stroke:#000000;stroke-width:2.51026;stroke-linecap:round;stroke-linejoin:round;stroke-miterlimit:10;stroke-dasharray:none;stroke-opacity:1" id="path4825" />
         </g>
         <g id="g4827" transform="scale(1,-1)" style="stroke-width:0.959808">
            <path d="m 203.547,-602.191 c -2.731,-1.258 -5.867,0.14 -8.742,-0.45 -0.395,-0.703 -1.047,0.438 -0.438,0.457" style="fill:none;stroke:#000000;stroke-width:2.51026;stroke-linecap:round;stroke-linejoin:round;stroke-miterlimit:10;stroke-dasharray:none;stroke-opacity:1" id="path4829" />
         </g>
         <g id="g4831" transform="scale(1,-1)" style="stroke-width:0.959808">
            <path d="m 202.539,-602.734 c -2.777,-0.352 -5.641,-0.387 -8.449,-0.786 -0.742,-0.023 -2.84,0.114 -2.844,0.543" style="fill:none;stroke:#000000;stroke-width:2.51026;stroke-linecap:round;stroke-linejoin:round;stroke-miterlimit:10;stroke-dasharray:none;stroke-opacity:1" id="path4833" />
         </g>
         <g id="g4835" transform="scale(1,-1)" style="stroke-width:0.959808">
            <path d="m 191.785,-591.41 c -2.89,-1.871 -5.883,-5.172 -9.234,-5.133" style="fill:none;stroke:#000000;stroke-width:2.51026;stroke-linecap:round;stroke-linejoin:round;stroke-miterlimit:10;stroke-dasharray:none;stroke-opacity:1" id="path4837" />
         </g>
         <g id="g4839" transform="scale(1,-1)" style="stroke-width:0.959808">
            <path d="m 187.914,-594.336 c -1.269,-1.117 -3.055,-1.387 -4.297,-2.543" style="fill:none;stroke:#000000;stroke-width:2.51026;stroke-linecap:round;stroke-linejoin:round;stroke-miterlimit:10;stroke-dasharray:none;stroke-opacity:1" id="path4841" />
         </g>
         <g id="g4843" transform="scale(1,-1)" style="stroke-width:0.959808">
            <path d="m 186.344,-555.355 c -1.782,1.785 1.375,6.859 2.629,2.757 1.054,-2.125 -2.957,-4.324 -1.785,-1.136 2.371,5.183 5.523,-3.848 0.738,-3.442 -3.528,0.914 1.941,6.051 1.789,1.836 -0.07,-1.16 -4.668,-3.558 -2.93,-1.004" style="fill:none;stroke:#000000;stroke-width:2.51026;stroke-linecap:round;stroke-linejoin:round;stroke-miterlimit:10;stroke-dasharray:none;stroke-opacity:1" id="path4845" />
         </g>
         <g id="g4847" transform="scale(1,-1)" style="stroke-width:0.959808">
            <path d="m 185.301,-555.973 c -2.317,-0.093 -0.953,5.719 1.261,5.457 3.876,-0.839 3.418,-5.418 -0.015,-6.515 -1.93,-0.356 0.941,4.566 1.441,3.898" style="fill:none;stroke:#000000;stroke-width:2.51026;stroke-linecap:round;stroke-linejoin:round;stroke-miterlimit:10;stroke-dasharray:none;stroke-opacity:1" id="path4849" />
         </g>
         <g id="g4851" transform="scale(1,-1)" style="stroke-width:0.959808">
            <path d="m 184.039,-567.508 c -1.309,-0.801 -4.914,-0.062 -5.351,-1.582 1.074,-0.195 6.265,1.246 5.222,0.797 -1.859,-0.309 -4.008,-0.504 -0.879,-0.984 1.414,-0.149 4.68,-1.039 1.258,-0.938 -0.406,-0.047 -0.906,-0.058 -1.234,0.242" style="fill:none;stroke:#000000;stroke-width:2.51026;stroke-linecap:round;stroke-linejoin:round;stroke-miterlimit:10;stroke-dasharray:none;stroke-opacity:1" id="path4853" />
         </g>
         <g id="g4855" transform="scale(1,-1)" style="stroke-width:0.959808">
            <path d="m 179.676,-628.176 c 0.246,0.281 -0.41,0.293 -0.074,0.535" style="fill:none;stroke:#000000;stroke-width:2.51026;stroke-linecap:round;stroke-linejoin:round;stroke-miterlimit:10;stroke-dasharray:none;stroke-opacity:1" id="path4857" />
         </g>
         <g id="g4859" transform="scale(1,-1)" style="stroke-width:0.959808">
            <path d="m 178.695,-624.578 c 1.133,1.16 5.453,1.617 6.746,3.152 0.039,1.137 -0.003,4.074 -0.867,3.926" style="fill:none;stroke:#000000;stroke-width:2.51026;stroke-linecap:round;stroke-linejoin:round;stroke-miterlimit:10;stroke-dasharray:none;stroke-opacity:1" id="path4861" />
         </g>
         <g id="g4863" transform="scale(1,-1)" style="stroke-width:0.959808">
            <path d="m 202.293,-607.262 c -2.648,-0.465 -5.285,-1.109 -7.805,-1.961" style="fill:none;stroke:#000000;stroke-width:2.51026;stroke-linecap:round;stroke-linejoin:round;stroke-miterlimit:10;stroke-dasharray:none;stroke-opacity:1" id="path4865" />
         </g>
         <g id="g4867" transform="scale(1,-1)" style="stroke-width:0.959808">
            <path d="m 198.359,-609.637 c -3.31511,-1.28537 -7.1236,-1.36518 -10.05,-3.57" style="fill:none;stroke:#000000;stroke-width:2.51026;stroke-linecap:round;stroke-linejoin:round;stroke-miterlimit:10;stroke-dasharray:none;stroke-opacity:1" id="path4869" />
         </g>
         <g id="g4871" transform="scale(1,-1)" style="stroke-width:0.959808">
            <path d="m 190.844,-611.121 c 2.238,0.258 -0.028,-0.32 -0.696,-1.102 l -0.5,-0.449" style="fill:none;stroke:#000000;stroke-width:2.51026;stroke-linecap:round;stroke-linejoin:round;stroke-miterlimit:10;stroke-dasharray:none;stroke-opacity:1" id="path4873" />
         </g>
         <g id="g4875" transform="scale(1,-1)" style="stroke-width:0.959808">
            <path d="m 207.242,-593.777 c -1.875,2.457 -2.844,5.55 -2.152,8.679 -0.371,3.114 2.363,8.305 5.719,4.797 2.957,-2.715 4.558,-6.285 5.738,-10.047 1.625,-3.211 -1.184,-8.949 -5.176,-6.722 -3.969,1.359 -3.988,5.875 -4.375,9.351 0.137,2.391 -0.703,7.453 2.289,7.625 4.106,-1.34 6.141,-5.929 6.156,-9.984 0.696,-4.137 -4.207,-9.754 -7.613,-4.984 -2.219,3.871 -4.57,8.648 -3.039,13.16 1.023,4.5 6.066,4.199 8.527,1.156 2.196,-2.457 3.329,-5.984 2.344,-9.211 -0.965,-2.453 -1.933,-5.824 -4.836,-6.543 -3.965,-0.379 -6.172,3.836 -6.648,7.199 -0.442,3.348 -0.293,9.121 3.672,10 4.82,-0.469 7.406,-5.883 6.84,-10.289 -0.09,-3.047 -1.321,-7.222 -4.977,-7.359 -3.582,0.625 -5.293,4.433 -6.504,7.476 -1.027,2.676 -0.121,6.231 1.766,8.399 2.82,2.273 6.043,-1.27 7.488,-3.582 1.594,-3.742 -0.461,-8.383 -3.598,-10.703 -3.133,-1.2 -6.207,1.648 -7.082,4.519 -1.351,3.477 -1.031,7.539 0.028,11.004 1.597,3.891 7.129,2.024 8.898,-0.824 2.375,-2.621 4.109,-6.449 2.395,-9.891 -1.008,-2.441 -2.352,-5.754 -5.52,-5.695 -3.828,0.359 -6.398,4.148 -5.496,7.867 0.687,3.41 0.719,8 4.168,9.859 3.531,0.668 7.109,-1.937 8.887,-4.843 2.246,-4.164 1.285,-9.864 -2.176,-13.043 -3.61,-1.883 -6.715,2.594 -7.055,5.801 -0.105,3.011 -0.484,7.988 2.813,9.281 3.375,-0.199 5.281,-4.551 4.05,-7.477 -0.234,-2.172 -3.515,-8.082 -5.257,-4.316 -0.344,0.75 -0.325,1.57 0.086,2.289" style="fill:none;stroke:#000000;stroke-width:2.51026;stroke-linecap:round;stroke-linejoin:round;stroke-miterlimit:10;stroke-dasharray:none;stroke-opacity:1" id="path4877" />
         </g>
         <g id="g4879" transform="scale(1,-1)" style="stroke-width:0.959808">
            <path d="m 139.559,-594.172 c -0.34017,0.34897 -1.52473,-0.7237 -2.13082,-1.32196 -1.21191,-1.41987 -3.14508,-1.25612 -4.84907,-1.309 -1.79248,0.3132 -3.49362,1.01759 -5.15233,1.74239 -1.73483,0.62383 -3.49128,1.20406 -5.03308,2.24309 -1.5118,0.8488 -3.01993,1.87918 -4.45988,2.90498 -1.01989,0.87536 -2.54336,2.27985 -3.37579,2.69567 l 0.0303,-0.006 -0.006,-0.0349" style="fill:none;stroke:#000000;stroke-width:2.51026;stroke-linecap:round;stroke-linejoin:round;stroke-miterlimit:10;stroke-dasharray:none;stroke-opacity:1" id="path4881" />
         </g>
      </g>
   </g>
</svg>
