<?xml version="1.0" encoding="UTF-8" standalone="no"?>
<!-- Created by Ashley Blewer - This work is licensed under a Creative Commons Attribution 4.0 International License -->

<svg width="544" height="480" viewBox="0 0 143.93334 127" version="1.1" id="svg2490" inkscape:version="1.1.2 (08b2f3d93c, 2022-04-05)" sodipodi:docname="1969-eiaj-2.svg"
   xmlns:inkscape="http://www.inkscape.org/namespaces/inkscape"
   xmlns:sodipodi="http://sodipodi.sourceforge.net/DTD/sodipodi-0.dtd"
   xmlns="http://www.w3.org/2000/svg"
   xmlns:svg="http://www.w3.org/2000/svg">
   <sodipodi:namedview id="namedview2492" pagecolor="#ffffff" bordercolor="#666666" borderopacity="1.0" inkscape:pageshadow="2" inkscape:pageopacity="0.0" inkscape:pagecheckerboard="0" inkscape:document-units="mm" showgrid="false" units="px" inkscape:zoom="0.90583674" inkscape:cx="272.67607" inkscape:cy="177.18425" inkscape:window-width="1848" inkscape:window-height="1136" inkscape:window-x="72" inkscape:window-y="27" inkscape:window-maximized="1" inkscape:current-layer="layer1" />
   <defs id="defs2487" />
   <g inkscape:label="Layer 1" inkscape:groupmode="layer" id="layer1">
      <g id="g4158" transform="matrix(0.39436752,0,0,0.39436752,-329.44909,-16.407015)">
         <g id="g4883" transform="scale(0.999173,-1)">
            <path d="m 843.092,-186.941 c 15.31094,41.2363 60.56973,52.69873 101.03093,60.96408 7.48223,1.52846 14.8004,2.94759 21.73479,4.42546 71.11488,7.17507 149.54078,-5.72257 207.30128,-42.58362 41.0323,-36.64428 -9.7108,-78.26728 -49.4202,-79.66495 -76.1006,-19.88989 -160.14803,-23.80938 -234.45169,5.02001 -21.85092,9.43513 -42.34934,27.1738 -46.19511,51.83902 z" style="fill:none;stroke:#000000;stroke-width:2.61647;stroke-linecap:round;stroke-linejoin:round;stroke-miterlimit:10;stroke-dasharray:none;stroke-opacity:1" id="path4885" sodipodi:nodetypes="csccccc" />
         </g>
         <g id="g4887" transform="scale(0.999173,-1)">
            <path d="m 847.322,-212.102 c -0.637,-15.707 12.182,-29.113 23.234,-38.953 32.464,-25.918 74.55,-34.648 114.477,-41.937 37.961,-3.477 76.505,-2.145 114.044,4.816 23.019,8.582 47.762,14.137 67.204,30.016 15.333,8.726 23.019,25.73 23.207,42.848 -0.01,0.914 -1.6797,13.80526 -1.6797,13.80526" style="fill:none;stroke:#000000;stroke-width:2.61647;stroke-linecap:round;stroke-linejoin:round;stroke-miterlimit:10;stroke-dasharray:none;stroke-opacity:1" id="path4889" sodipodi:nodetypes="ccccccc" />
         </g>
         <g id="g4891" transform="scale(0.999173,-1)">
            <path d="m 1183.182,-215.602 c -3.949,-22.968 -26.929,-34.664 -46.222,-43.199 -40.323,-18.953 -85.673,-21.465 -129.478,-23.172 -48.67,1.77 -99.849,10.778 -139.436,41.024 -7.362,6.679 -13.453,16.242 -12.483,26.562" style="fill:none;stroke:#000000;stroke-width:2.61647;stroke-linecap:round;stroke-linejoin:round;stroke-miterlimit:10;stroke-dasharray:none;stroke-opacity:1" id="path4893" />
         </g>
         <g id="g4895" transform="scale(0.999173,-1)">
            <path d="m 876.881,-231.828 c 12.421,-7.055 22.675,-17.57 35.921,-23.231" style="fill:none;stroke:#000000;stroke-width:2.61647;stroke-linecap:round;stroke-linejoin:round;stroke-miterlimit:10;stroke-dasharray:none;stroke-opacity:1" id="path4897" />
         </g>
         <g id="g4899" transform="scale(0.999173,-1)">
            <path d="m 914.455,-254.711 c -11.157,1.41 -19.735,9.484 -29.802,13.68" style="fill:none;stroke:#000000;stroke-width:2.61647;stroke-linecap:round;stroke-linejoin:round;stroke-miterlimit:10;stroke-dasharray:none;stroke-opacity:1" id="path4901" />
         </g>
         <g id="g4903" transform="scale(0.999173,-1)">
            <path d="m 888.336,-243.508 c 6.869,-6.871 44.584,-21.871 16.565,-12.863 -6.525,2.859 -12.64,6.539 -18.778,10.125" style="fill:none;stroke:#000000;stroke-width:2.61647;stroke-linecap:round;stroke-linejoin:round;stroke-miterlimit:10;stroke-dasharray:none;stroke-opacity:1" id="path4905" />
         </g>
         <g id="g4907" transform="scale(0.999173,-1)">
            <path d="m 894.212,-250.648 c 7.796,-5.965 46.296,-19.614 17.698,-11.555 -18.671,8.871 13.989,-5.652 18.34,-6.027" style="fill:none;stroke:#000000;stroke-width:2.61647;stroke-linecap:round;stroke-linejoin:round;stroke-miterlimit:10;stroke-dasharray:none;stroke-opacity:1" id="path4909" />
         </g>
         <g id="g4911" transform="scale(0.999173,-1)">
            <path d="m 1176.868,-222.242 c -8.914,-11.11 -23.031,-15.735 -35.874,-20.582" style="fill:none;stroke:#000000;stroke-width:2.61647;stroke-linecap:round;stroke-linejoin:round;stroke-miterlimit:10;stroke-dasharray:none;stroke-opacity:1" id="path4913" />
         </g>
         <g id="g4915" transform="scale(0.999173,-1)">
            <path d="m 1165.906,-235.523 c -8.98,-8.508 -20.623,-13.258 -31.671,-18.399" style="fill:none;stroke:#000000;stroke-width:2.61647;stroke-linecap:round;stroke-linejoin:round;stroke-miterlimit:10;stroke-dasharray:none;stroke-opacity:1" id="path4917" />
         </g>
         <g id="g4919" transform="scale(0.999173,-1)">
            <path d="m 1136.874,-251.938 c 10.055,6.411 19.719,13.411 29.333,20.458" style="fill:none;stroke:#000000;stroke-width:2.61647;stroke-linecap:round;stroke-linejoin:round;stroke-miterlimit:10;stroke-dasharray:none;stroke-opacity:1" id="path4921" />
         </g>
         <g id="g4923" transform="scale(0.999173,-1)">
            <path d="m 1152.922,-243.184 c -15.579,-8.824 -32.429,-15.179 -49.537,-20.328" style="fill:none;stroke:#000000;stroke-width:2.61647;stroke-linecap:round;stroke-linejoin:round;stroke-miterlimit:10;stroke-dasharray:none;stroke-opacity:1" id="path4925" />
         </g>
         <g id="g4927" transform="scale(0.999173,-1)">
            <path d="m 1142.167,-251.309 c -24.067,-8.574 -49.349,-23.543 -75.371,-19.601" style="fill:none;stroke:#000000;stroke-width:2.61647;stroke-linecap:round;stroke-linejoin:round;stroke-miterlimit:10;stroke-dasharray:none;stroke-opacity:1" id="path4929" />
         </g>
         <g id="g4931" transform="scale(0.999173,-1)">
            <path d="m 1135.447,-246.441 c -30.514,-11.86 -63.408,-15.043 -95.763,-17.836 l 1.278,0.168 0.227,0.031" style="fill:none;stroke:#000000;stroke-width:2.61647;stroke-linecap:round;stroke-linejoin:round;stroke-miterlimit:10;stroke-dasharray:none;stroke-opacity:1" id="path4933" />
         </g>
         <g id="g4935" transform="scale(0.999173,-1)">
            <path d="m 1121.787,-255.488 c -47.805,-16.77 -99.066,-25.61 -149.624,-18.649 -8.98,0.778 -17.948,1.723 -26.87,3.004" style="fill:none;stroke:#000000;stroke-width:2.61647;stroke-linecap:round;stroke-linejoin:round;stroke-miterlimit:10;stroke-dasharray:none;stroke-opacity:1" id="path4937" />
         </g>
         <g id="g4939" transform="scale(0.999173,-1)">
            <path d="m 1070.237,-259.406 c -52.075,-17.426 -108.481,-8.723 -159.476,8.043 -11.955,1.375 -30.615,10.961 -8.05,3.371 42.18,-11.848 85.802,-18.344 129.561,-20.063 -41.961,-10.738 -84.801,2.907 -125.37,11.813 39.459,-13.473 81.587,-19.727 123.282,-20.82 22.276,0.152 45.89,1.332 66.191,11.261 3.081,7.242 -31.999,-0.836 -44.188,0.227 -18.938,-0.696 -38.188,-3.012 -57.009,-0.125" style="fill:none;stroke:#000000;stroke-width:2.61647;stroke-linecap:round;stroke-linejoin:round;stroke-miterlimit:10;stroke-dasharray:none;stroke-opacity:1" id="path4941" />
         </g>
         <g id="g4943" transform="scale(0.999173,-1)">
            <path d="m 1080.554,-171.887 c 0,0 33.469,10.93 44.318,19.864" style="fill:none;stroke:#000000;stroke-width:2.61647;stroke-linecap:round;stroke-linejoin:round;stroke-miterlimit:10;stroke-dasharray:none;stroke-opacity:1" id="path4945" />
         </g>
         <g id="g4947" transform="scale(0.999173,-1)">
            <path d="m 1124.872,-152.023 c -12.01,4.367 -22.105,12.054 -34.318,12.421" style="fill:none;stroke:#000000;stroke-width:2.61647;stroke-linecap:round;stroke-linejoin:round;stroke-miterlimit:10;stroke-dasharray:none;stroke-opacity:1" id="path4949" />
         </g>
         <g id="g4951" transform="scale(0.999173,-1)">
            <path d="m 1090.554,-139.602 c -4.879,-1.914 -11.224,-4.675 -16.294,-6.05 -7.98,-2.422 -15.853,-5.118 -23.668,-8.016 -2.956,-0.898 -6.744,-2.078 -9.321,-2.484" style="fill:none;stroke:#000000;stroke-width:2.61647;stroke-linecap:round;stroke-linejoin:round;stroke-miterlimit:10;stroke-dasharray:none;stroke-opacity:1" id="path4953" sodipodi:nodetypes="cccc" />
         </g>
         <g id="g4955" transform="scale(0.999173,-1)">
            <path d="m 1041.256,-156.504 c 7.834,-1.273 15.18,-4.203 22.311,-7.594 4.922,-1.879 12.35,-5.242 16.987,-7.789" style="fill:none;stroke:#000000;stroke-width:2.61647;stroke-linecap:round;stroke-linejoin:round;stroke-miterlimit:10;stroke-dasharray:none;stroke-opacity:1" id="path4957" />
         </g>
         <g id="g4959" transform="scale(0.999173,-1)">
            <path d="m 997.665,-202.852 c -22.886,-11.21 -49.885,-20.086 -74.382,-27.082" style="fill:none;stroke:#000000;stroke-width:2.61647;stroke-linecap:round;stroke-linejoin:round;stroke-miterlimit:10;stroke-dasharray:none;stroke-opacity:1" id="path4961" />
         </g>
         <g id="g4963" transform="scale(0.999173,-1)">
            <path d="m 923.283,-229.934 c -7.201,1.637 -13.687,5.598 -20.274,8.793 -5.044,2.395 -9.25,5.664 -14.469,7.465 -5.912,0.672 4.871,3.297 6.11,4.617 6.834,2.883 13.308,6.473 20.083,9.434 10.837,4.039 30.482,16.699 40.193,16.504" style="fill:none;stroke:#000000;stroke-width:2.61647;stroke-linecap:round;stroke-linejoin:round;stroke-miterlimit:10;stroke-dasharray:none;stroke-opacity:1" id="path4965" />
         </g>
         <g id="g4967" transform="scale(0.999173,-1)">
            <path d="m 955.908,-183.812 c 4.398,-6.102 29.25,-14.598 43.114,-18.524" style="fill:none;stroke:#000000;stroke-width:2.61647;stroke-linecap:round;stroke-linejoin:round;stroke-miterlimit:10;stroke-dasharray:none;stroke-opacity:1" id="path4969" />
         </g>
         <g id="g4971" transform="scale(0.999173,-1)">
            <path d="m 999.412,-200.438 c 1.596,0.372 0.368,2.829 -1.501,2.68 -6.435,3.754 -13.202,7.129 -19.805,10.473 -5.028,2.148 -10.165,4.375 -14.934,6.98 l -0.032,-0.074" style="fill:none;stroke:#000000;stroke-width:2.61647;stroke-linecap:round;stroke-linejoin:round;stroke-miterlimit:10;stroke-dasharray:none;stroke-opacity:1" id="path4973" />
         </g>
         <g id="g4975" transform="scale(0.999173,-1)">
            <path d="m 964.208,-177.953 c 8.366,3.223 16.744,6.461 25.009,9.914 8.851,2.926 17.252,7.137 26.279,9.496 3.394,0.965 6.427,3.129 10.028,3.363" style="fill:none;stroke:#000000;stroke-width:2.61647;stroke-linecap:round;stroke-linejoin:round;stroke-miterlimit:10;stroke-dasharray:none;stroke-opacity:1" id="path4977" />
         </g>
         <g id="g4979" transform="scale(0.999173,-1)">
            <path d="m 1025.524,-155.18 c 15.384,-6.484 31.198,-10.379 43.579,-18.675" style="fill:none;stroke:#000000;stroke-width:2.61647;stroke-linecap:round;stroke-linejoin:round;stroke-miterlimit:10;stroke-dasharray:none;stroke-opacity:1" id="path4981" />
         </g>
         <g id="g4983" transform="scale(0.999173,-1)">
            <path d="m 1069.103,-173.855 c -9.551,-3.575 -17.452,-10.75 -27.499,-13.262 -8.719,-2.481 -17.218,-5.762 -25.889,-8.418 -1.642,-0.633 -5.837,-2.226 -7.424,-2.988" style="fill:none;stroke:#000000;stroke-width:2.61647;stroke-linecap:round;stroke-linejoin:round;stroke-miterlimit:10;stroke-dasharray:none;stroke-opacity:1" id="path4985" sodipodi:nodetypes="cccc" />
         </g>
         <g id="g4987" transform="scale(0.999173,-1)">
            <path d="m 967.597,-178.102 c 5.833,-2.058 10.446,-6.234 15.771,-9.183 4.445,-2.227 9.168,-4.082 13.472,-6.551 4.042,-0.969 7.71,-3.387 11.451,-4.687" style="fill:none;stroke:#000000;stroke-width:2.61647;stroke-linecap:round;stroke-linejoin:round;stroke-miterlimit:10;stroke-dasharray:none;stroke-opacity:1" id="path4989" />
         </g>
         <g id="g4991" transform="scale(0.999173,-1)">
            <path d="m 1033.777,-175.766 c -1.5986,-1.36348 -3.8454,-1.42705 -5.5823,-2.55668 -1.3491,-0.77169 -2.7593,-1.42719 -4.2351,-1.91475 -1.6817,-0.59106 -2.9635,-2.17296 -4.8469,-2.15716 -1.5573,0.0795 -3.0296,0.73463 -4.4904,1.24267 -1.8203,0.70548 -3.4394,1.84174 -4.797,3.23335 -0.9612,0.77959 -2.122,1.24155 -3.2353,1.75457 -0.4061,1.6735 1.8458,2.03278 2.8032,2.88893 1.3108,0.82501 2.7531,1.42074 3.9651,2.40084 1.1623,0.81055 2.6308,0.82335 3.9103,1.36595 1.1695,0.36851 2.3177,0.86623 3.532,1.05381 1.6302,-0.25098 2.9667,-1.34289 4.5301,-1.81677 2.5887,-0.90815 5.1243,-2.02268 7.3435,-3.65801 0.6892,-0.59568 1.6415,-0.6137 2.3658,-1.12975" style="fill:none;stroke:#000000;stroke-width:2.61647;stroke-linecap:round;stroke-linejoin:round;stroke-miterlimit:10;stroke-dasharray:none;stroke-opacity:1" id="path4993" />
         </g>
         <g id="g4995" transform="scale(0.999173,-1)">
            <path d="m 1016.286,-175.527 c 0.5675,1.20918 2.0593,1.2577 3.2039,1.44718 1.6782,0.41373 3.4438,-0.35862 4.5211,-1.65415 -1.5774,-1.42529 -3.9377,-1.81531 -5.935,-1.157 -0.8973,0.54163 -1.559,1.65741 -1.2479,2.71564 0.6491,0.88761 1.9015,0.7049 2.8598,0.632 1.5242,-0.18369 3.2028,-0.67253 4.1357,-1.98067 0.575,-0.75253 -0.248,-1.54112 -1.0262,-1.53832 -1.6153,-0.1995 -3.5052,-0.34826 -4.7997,0.84068 -0.654,0.61111 -0.2898,1.68385 0.5038,1.96246 1.0227,0.49817 2.2158,0.46813 3.3214,0.37992 1.0729,-0.11025 2.0297,-1.30017 1.4721,-2.3425 -0.4663,-0.93854 -1.601,-1.02716 -2.4984,-1.27409 -1.0965,-0.23123 -2.4772,-0.18601 -3.2401,0.74888 -0.5396,0.81 0.1795,1.82816 0.9041,2.23825 0.466,0.35464 1.8121,0.31329 0.5305,-0.25724" style="fill:none;stroke:#000000;stroke-width:2.61647;stroke-linecap:round;stroke-linejoin:round;stroke-miterlimit:10;stroke-dasharray:none;stroke-opacity:1" id="path4997" />
         </g>
         <g id="g5003" transform="scale(0.999173,-1)">
            <path d="m 847.20293,-202.74312 c 0.309,-3.902 0.11907,-9.35888 0.40007,-14.52988" style="fill:none;stroke:#000000;stroke-width:2.61647;stroke-linecap:round;stroke-linejoin:round;stroke-miterlimit:10;stroke-dasharray:none;stroke-opacity:1" id="path5005" sodipodi:nodetypes="cc" />
         </g>
         <g id="g5007" transform="scale(0.999173,-1)">
            <path d="m 857.17,-223 c 4.16,-5.406 9.34,-10.434 15.548,-13.445" style="fill:none;stroke:#000000;stroke-width:2.61647;stroke-linecap:round;stroke-linejoin:round;stroke-miterlimit:10;stroke-dasharray:none;stroke-opacity:1" id="path5009" />
         </g>
         <g id="g5011" transform="scale(0.999173,-1)">
            <path d="m 855.993,-220.32 c 2.549,-3.25 6.525,-4.961 9.629,-7.625 3.738,-2.95 7.264,-6.285 11.584,-8.36" style="fill:none;stroke:#000000;stroke-width:2.61647;stroke-linecap:round;stroke-linejoin:round;stroke-miterlimit:10;stroke-dasharray:none;stroke-opacity:1" id="path5013" />
         </g>
         <g id="g5015" transform="scale(0.999173,-1)">
            <path d="m 856.036,-215.773 c -0.012,-4.118 4.398,-6.297 6.427,-9.454 4.817,-3.961 9.047,-8.675 14.712,-11.496 3.639,-2.004 7.643,-3.215 11.365,-5.05" style="fill:none;stroke:#000000;stroke-width:2.61647;stroke-linecap:round;stroke-linejoin:round;stroke-miterlimit:10;stroke-dasharray:none;stroke-opacity:1" id="path5017" />
         </g>
         <g id="g5019" transform="scale(0.999173,-1)">
            <path d="m 861.791,-230.059 c -0.004,-3.363 6.673,-4.953 9.465,-7.386 5.629,-3.52 11.263,-7.071 17.42,-9.617 0.114,-0.711 0.505,-0.309 0.821,-0.18" style="fill:none;stroke:#000000;stroke-width:2.61647;stroke-linecap:round;stroke-linejoin:round;stroke-miterlimit:10;stroke-dasharray:none;stroke-opacity:1" id="path5021" />
         </g>
         <g id="g5023" transform="scale(0.999173,-1)">
            <path d="m 866.271,-235.715 c 8.492,-10.308 22.499,-13.199 33.512,-19.883" style="fill:none;stroke:#000000;stroke-width:2.61647;stroke-linecap:round;stroke-linejoin:round;stroke-miterlimit:10;stroke-dasharray:none;stroke-opacity:1" id="path5025" />
         </g>
         <g id="g5027" transform="scale(0.999173,-1)">
            <path d="m 1023.44,-272.945 c 11.455,-2.055 23.989,4.418 35.721,5.636" style="fill:none;stroke:#000000;stroke-width:2.61647;stroke-linecap:round;stroke-linejoin:round;stroke-miterlimit:10;stroke-dasharray:none;stroke-opacity:1" id="path5029" />
         </g>
         <g id="g5031" transform="scale(0.999173,-1)">
            <path d="m 1006.192,-264.113 c 8.436,-0.11 16.666,2.238 25.083,2.41" style="fill:none;stroke:#000000;stroke-width:2.61647;stroke-linecap:round;stroke-linejoin:round;stroke-miterlimit:10;stroke-dasharray:none;stroke-opacity:1" id="path5033" />
         </g>
         <g id="g5035" transform="scale(0.999173,-1)">
            <path d="m 1002.696,-262.945 c 21.89,1.437 44.08,0.211 65.734,3.75" style="fill:none;stroke:#000000;stroke-width:2.61647;stroke-linecap:round;stroke-linejoin:round;stroke-miterlimit:10;stroke-dasharray:none;stroke-opacity:1" id="path5037" />
         </g>
         <g id="g5039" transform="scale(0.999173,-1)">
            <path d="m 1062.441,-257.883 c 19.43,1.762 38.442,6.539 57.868,8.36" style="fill:none;stroke:#000000;stroke-width:2.61647;stroke-linecap:round;stroke-linejoin:round;stroke-miterlimit:10;stroke-dasharray:none;stroke-opacity:1" id="path5041" />
         </g>
         <g id="g5043" transform="scale(0.999173,-1)">
            <path d="m 1127.44,-250.59 c 4.398,1.012 8.89,1.524 13.347,2.235" style="fill:none;stroke:#000000;stroke-width:2.61647;stroke-linecap:round;stroke-linejoin:round;stroke-miterlimit:10;stroke-dasharray:none;stroke-opacity:1" id="path5045" />
         </g>
         <g id="g5047" transform="scale(0.999173,-1)">
            <path d="m 1136.577,-249.953 c -16.838,-8.981 -35.921,-12.207 -54.491,-15.524" style="fill:none;stroke:#000000;stroke-width:2.61647;stroke-linecap:round;stroke-linejoin:round;stroke-miterlimit:10;stroke-dasharray:none;stroke-opacity:1" id="path5049" />
         </g>
      </g>
   </g>
</svg>
