<?xml version="1.0" encoding="UTF-8" standalone="no"?>
<!-- Created by Ashley Blewer - This work is licensed under a Creative Commons Attribution 4.0 International License -->

<svg width="544" height="480" viewBox="0 0 143.93334 127" version="1.1" id="svg2490" inkscape:version="1.1.2 (08b2f3d93c, 2022-04-05)" sodipodi:docname="1971-umatic-6.svg"
   xmlns:inkscape="http://www.inkscape.org/namespaces/inkscape"
   xmlns:sodipodi="http://sodipodi.sourceforge.net/DTD/sodipodi-0.dtd"
   xmlns="http://www.w3.org/2000/svg"
   xmlns:svg="http://www.w3.org/2000/svg">
   <sodipodi:namedview id="namedview2492" pagecolor="#ffffff" bordercolor="#666666" borderopacity="1.0" inkscape:pageshadow="2" inkscape:pageopacity="0.0" inkscape:pagecheckerboard="0" inkscape:document-units="mm" showgrid="false" units="px" inkscape:zoom="0.90583674" inkscape:cx="272.67607" inkscape:cy="177.18425" inkscape:window-width="1848" inkscape:window-height="1136" inkscape:window-x="72" inkscape:window-y="27" inkscape:window-maximized="1" inkscape:current-layer="layer1" />
   <defs id="defs2487" />
   <g inkscape:label="Layer 1" inkscape:groupmode="layer" id="layer1">
      <g id="g6100" transform="matrix(0.36053143,0,0,0.36045237,-289.34436,-57.338012)" style="stroke-width:1.0716">
         <g id="g552" transform="scale(1,-1)" style="stroke-width:1.0716">
            <path d="m 828.254,-223.582 c -0.129,0.656 -1.875,-0.652 -1.777,-2.086 -1.598,-3.965 -3.774,-9.746 -5.891,-14.34 -1.461,-3.312 -2.297,-5.781 -3.199,-9.094 -0.457,-1.652 -0.75,-3.691 -0.528,-5.918 0.039,-2.07 0.098,-4.566 0.297,-6.582 l 15.469,-200.824 c 1.477,-2.648 4.215,-4.269 7.301,-4.441 4.629,-0.602 9.539,-0.434 14.074,0.539 1.008,0.418 1.84,0.293 2.086,0.742 0.062,-0.168 0.168,0.227 -0.289,-0.144 -0.356,-0.125 -0.086,0.074 -0.442,0.058 -0.773,0.227 -3.769,-0.105 -5.394,-0.223 -3.953,-0.066 -8.695,-1.152 -11.918,1.575 l -16.981,200.457 c 0.059,0.992 0.293,3.738 0.325,3.406 0.625,2.715 1.687,4.793 2.383,7.219 1.507,4.547 3.476,9.875 5.136,13.57 1.203,1.324 1.625,3.418 2.633,4.106 0.871,1.894 1.824,2.621 2.176,3.636 -0.137,-0.32 1.336,2.004 0.922,1.414 0.07,0.051 0.152,0.094 -0.27,-0.656 l -0.035,-0.078" style="fill:none;stroke:#000000;stroke-width:2.80265;stroke-linecap:round;stroke-linejoin:round;stroke-miterlimit:10;stroke-dasharray:none;stroke-opacity:1" id="path554" />
         </g>
         <g id="g556" transform="scale(1,-1)" style="stroke-width:1.0716">
            <path d="m 828.281,-229.246 c -3.679,-8.027 -9.558,-24.934 -9.558,-24.934 -0.723,-3.398 -1.918,-6.25 -1.625,-9.398" style="fill:none;stroke:#000000;stroke-width:2.80265;stroke-linecap:round;stroke-linejoin:round;stroke-miterlimit:10;stroke-dasharray:none;stroke-opacity:1" id="path558" />
         </g>
         <g id="g560" transform="scale(1,-1)" style="stroke-width:1.0716">
            <path d="m 828.254,-223.582 c 15.984,0.695 30.434,2.195 46.266,2.809" style="fill:none;stroke:#000000;stroke-width:2.80265;stroke-linecap:round;stroke-linejoin:round;stroke-miterlimit:10;stroke-dasharray:none;stroke-opacity:1" id="path562" />
         </g>
         <g id="g564" transform="scale(1,-1)" style="stroke-width:1.0716">
            <path d="m 834.637,-230.512 49.808,5.02" style="fill:none;stroke:#000000;stroke-width:2.80265;stroke-linecap:round;stroke-linejoin:round;stroke-miterlimit:10;stroke-dasharray:none;stroke-opacity:1" id="path566" />
         </g>
         <g id="g568" transform="scale(1,-1)" style="stroke-width:1.0716">
            <path d="m 827.59,-229.508 c -0.215,0.047 1.676,1.973 2.996,2.024 l 45.496,4.207" style="fill:none;stroke:#000000;stroke-width:2.80265;stroke-linecap:round;stroke-linejoin:round;stroke-miterlimit:10;stroke-dasharray:none;stroke-opacity:1" id="path570" />
         </g>
         <g id="g572" transform="scale(1,-1)" style="stroke-width:1.0716">
            <path d="m 874.324,-220.715 c -0.32,0.367 3.172,-0.512 4.633,-1.316 1.652,-1.188 5.656,-3.699 5.488,-3.461 -0.285,0.785 -4.867,2.289 -6.062,3.148" style="fill:none;stroke:#000000;stroke-width:2.80265;stroke-linecap:round;stroke-linejoin:round;stroke-miterlimit:10;stroke-dasharray:none;stroke-opacity:1" id="path574" />
         </g>
         <g id="g576" transform="scale(1,-1)" style="stroke-width:1.0716">
            <path d="m 1156.852,-212.578 7.472,1.359 6.063,-3.383 c 1.511,-0.785 2.824,-1.32 4.14,-2.316 -0.308,0.207 -0.066,0.035 -0.109,0.043" style="fill:none;stroke:#000000;stroke-width:2.80265;stroke-linecap:round;stroke-linejoin:round;stroke-miterlimit:10;stroke-dasharray:none;stroke-opacity:1" id="path578" />
         </g>
         <g id="g580" transform="scale(1,-1)" style="stroke-width:1.0716">
            <path d="m 1182.043,-239.371 -7.125,21.137 -0.01,0.058" style="fill:none;stroke:#000000;stroke-width:2.80265;stroke-linecap:round;stroke-linejoin:round;stroke-miterlimit:10;stroke-dasharray:none;stroke-opacity:1" id="path582" />
         </g>
         <g id="g584" transform="scale(1,-1)" style="stroke-width:1.0716">
            <path d="m 884.445,-225.492 c 1.309,-0.34 5.547,0.383 6.664,0.433 94.696,3.875 185.508,3.68 279.192,7.547 0.863,0.004 0.429,-0.183 0.422,0.032 l -0.055,0.031" style="fill:none;stroke:#000000;stroke-width:2.80265;stroke-linecap:round;stroke-linejoin:round;stroke-miterlimit:10;stroke-dasharray:none;stroke-opacity:1" id="path586" />
         </g>
         <g id="g588" transform="scale(1,-1)" style="stroke-width:1.0716">
            <path d="m 872.762,-220.828 c 1.308,-0.34 3.41,0.594 4.531,0.64 94.695,3.879 185.508,3.684 279.191,7.547 0.864,0.004 0.43,-0.183 0.422,0.036 l -0.054,0.027" style="fill:none;stroke:#000000;stroke-width:2.80265;stroke-linecap:round;stroke-linejoin:round;stroke-miterlimit:10;stroke-dasharray:none;stroke-opacity:1" id="path590" />
         </g>
         <g id="g592" transform="scale(1,-1)" style="stroke-width:1.0716">
            <path d="m 1167.059,-418.824 c 0.648,3.277 17.129,168.277 17.129,168.277 0.109,4.68 0.039,9.992 -3.223,13.715" style="fill:none;stroke:#000000;stroke-width:2.80265;stroke-linecap:round;stroke-linejoin:round;stroke-miterlimit:10;stroke-dasharray:none;stroke-opacity:1" id="path594" />
         </g>
         <g id="g596" transform="scale(1,-1)" style="stroke-width:1.0716">
            <path d="m 857.332,-466.301 c 92.25,10.367 181.031,22.188 266.629,33.426 0,0 42.969,4.777 43.098,14.051" style="fill:none;stroke:#000000;stroke-width:2.80265;stroke-linecap:round;stroke-linejoin:round;stroke-miterlimit:10;stroke-dasharray:none;stroke-opacity:1" id="path598" />
         </g>
         <g id="g600" transform="scale(1,-1)" style="stroke-width:1.0716">
            <path d="m 1114.504,-257.332 c 20.219,-11.313 45.226,-34.828 43.601,-57.516 0.176,-9.429 0.954,-18.769 -0.046,-28.179 -0.879,-8.903 -3.289,-17.481 -7.243,-25.539 -8.609,-17.758 -26.484,-43.473 -44.078,-49.461" style="fill:none;stroke:#000000;stroke-width:2.80265;stroke-linecap:round;stroke-linejoin:round;stroke-miterlimit:10;stroke-dasharray:none;stroke-opacity:1" id="path602" />
         </g>
         <g id="g604" transform="scale(1,-1)" style="stroke-width:1.0716">
            <path d="m 1105.844,-435.074 8.871,174.801" style="fill:none;stroke:#000000;stroke-width:2.80265;stroke-linecap:round;stroke-linejoin:round;stroke-miterlimit:10;stroke-dasharray:none;stroke-opacity:1" id="path606" />
         </g>
         <g id="g608" transform="scale(1,-1)" style="stroke-width:1.0716">
            <path d="m 857.332,-466.301 c -2.223,3.031 -11.242,192.719 -11.242,192.719" style="fill:none;stroke:#000000;stroke-width:2.80265;stroke-linecap:round;stroke-linejoin:round;stroke-miterlimit:10;stroke-dasharray:none;stroke-opacity:1" id="path610" />
         </g>
         <g id="g612" transform="scale(1,-1)" style="stroke-width:1.0716">
            <path d="m 846.09,-273.582 c 0.168,0.277 0.519,0.922 1.82,0.996 l 266.594,15.254 c 1.879,0.367 2.336,-0.918 3.512,-2.137" style="fill:none;stroke:#000000;stroke-width:2.80265;stroke-linecap:round;stroke-linejoin:round;stroke-miterlimit:10;stroke-dasharray:none;stroke-opacity:1" id="path614" />
         </g>
         <g id="g616" transform="scale(1,-1)" style="stroke-width:1.0716">
            <path d="m 928.93,-268.625 -0.875,-56.371 c -0.188,0.328 1.05,-1.336 2.543,-0.875 l 179.984,16.367 c -0.012,0.149 -0.332,-0.293 0.438,0.594 l 0.074,0.125 0.14,0.164" style="fill:none;stroke:#000000;stroke-width:2.80265;stroke-linecap:round;stroke-linejoin:round;stroke-miterlimit:10;stroke-dasharray:none;stroke-opacity:1" id="path618" />
         </g>
         <g id="g620" transform="scale(1,-1)" style="stroke-width:1.0716">
            <path d="m 1079.945,-263.738 -0.496,-9.649 28.11,0.481 1.761,9.972 -29.609,-0.617" style="fill:none;stroke:#000000;stroke-width:2.80265;stroke-linecap:round;stroke-linejoin:round;stroke-miterlimit:10;stroke-dasharray:none;stroke-opacity:1" id="path622" />
         </g>
         <g id="g624" transform="scale(1,-1)" style="stroke-width:1.0716">
            <path d="m 914.602,-298.66 c -0.27,0.297 -25.563,23.168 -25.563,23.168 -0.516,0.324 -0.555,-0.035 -1.398,-0.426 l -20.754,-25.641 c -0.887,-1.066 -1.106,-1.449 -0.696,-1.265 0,0 14.071,0.445 13.786,0.445 l 0.558,-7.125 22.875,1.477 -1.937,7.672 c 0,0 13.129,1.695 12.859,1.992 -0.168,-0.09 0.047,-0.106 0.207,-0.246" style="fill:none;stroke:#000000;stroke-width:2.80265;stroke-linecap:round;stroke-linejoin:round;stroke-miterlimit:10;stroke-dasharray:none;stroke-opacity:1" id="path626" />
         </g>
         <g id="g628" transform="scale(1,-1)" style="stroke-width:1.0716">
            <path d="m 861.895,-428.18 241.031,25.133 c -0.16,0.07 -0.082,-0.012 0.113,-0.16" style="fill:none;stroke:#000000;stroke-width:2.80265;stroke-linecap:round;stroke-linejoin:round;stroke-miterlimit:10;stroke-dasharray:none;stroke-opacity:1" id="path630" />
         </g>
         <g id="g632" transform="scale(1,-1)" style="stroke-width:1.0716">
            <path d="m 866.945,-359.789 c -2.886,0.469 232.106,20.383 232.903,20.508 -0.118,-0.004 -0.121,0.093 -0.797,-0.125" style="fill:none;stroke:#000000;stroke-width:1.40133;stroke-linecap:round;stroke-linejoin:round;stroke-miterlimit:10;stroke-dasharray:none;stroke-opacity:1" id="path634" />
         </g>
         <g id="g636" transform="scale(1,-1)" style="stroke-width:1.0716">
            <path d="m 864.617,-369.273 227.524,19.57 c 1.097,0.254 5.859,0.461 5.16,0.301 -0.297,-0.145 -0.625,-0.254 -0.922,-0.414" style="fill:none;stroke:#000000;stroke-width:1.40133;stroke-linecap:round;stroke-linejoin:round;stroke-miterlimit:10;stroke-dasharray:none;stroke-opacity:1" id="path638" />
         </g>
         <g id="g640" transform="scale(1,-1)" style="stroke-width:1.0716">
            <path d="m 865.25,-378.895 233.531,19.086 c 0.602,0.055 0.703,-0.414 1.239,-0.644" style="fill:none;stroke:#000000;stroke-width:1.40133;stroke-linecap:round;stroke-linejoin:round;stroke-miterlimit:10;stroke-dasharray:none;stroke-opacity:1" id="path642" />
         </g>
         <g id="g644" transform="scale(1,-1)" style="stroke-width:1.0716">
            <path d="m 864.855,-389.195 c 0,0 232.114,20.312 233.106,20.504 -0.34,-0.047 -0.637,-0.192 -0.992,-0.192" style="fill:none;stroke:#000000;stroke-width:1.40133;stroke-linecap:round;stroke-linejoin:round;stroke-miterlimit:10;stroke-dasharray:none;stroke-opacity:1" id="path646" />
         </g>
         <g id="g648" transform="scale(1,-1)" style="stroke-width:1.0716">
            <path d="m 865.184,-397.875 233.332,20.496 c 0.019,0.191 -0.739,0.078 -1.086,0.027" style="fill:none;stroke:#000000;stroke-width:1.40133;stroke-linecap:round;stroke-linejoin:round;stroke-miterlimit:10;stroke-dasharray:none;stroke-opacity:1" id="path650" />
         </g>
         <g id="g652" transform="scale(1,-1)" style="stroke-width:1.0716">
            <path d="m 866.152,-408.316 226.192,18.476 c 0.441,-0.074 1.047,-0.078 0.531,-0.043" style="fill:none;stroke:#000000;stroke-width:1.40133;stroke-linecap:round;stroke-linejoin:round;stroke-miterlimit:10;stroke-dasharray:none;stroke-opacity:1" id="path654" />
         </g>
         <g id="g656" transform="scale(1,-1)" style="stroke-width:1.0716">
            <path d="m 867.941,-416.148 c 0,0 226.7,21.035 227.848,21.199 -0.215,0.082 -0.543,0.015 -1.148,-0.164" style="fill:none;stroke:#000000;stroke-width:1.40133;stroke-linecap:round;stroke-linejoin:round;stroke-miterlimit:10;stroke-dasharray:none;stroke-opacity:1" id="path658" />
         </g>
      </g>
   </g>
</svg>
