<?xml version="1.0" encoding="UTF-8" standalone="no"?>
<!-- Created by Ashley Blewer - This work is licensed under a Creative Commons Attribution 4.0 International License -->

<svg width="544" height="480" viewBox="0 0 143.93334 127" version="1.1" id="svg2490" inkscape:version="1.1.2 (08b2f3d93c, 2022-04-05)" sodipodi:docname="1971-umatic-2.svg"
   xmlns:inkscape="http://www.inkscape.org/namespaces/inkscape"
   xmlns:sodipodi="http://sodipodi.sourceforge.net/DTD/sodipodi-0.dtd"
   xmlns="http://www.w3.org/2000/svg"
   xmlns:svg="http://www.w3.org/2000/svg">
   <sodipodi:namedview id="namedview2492" pagecolor="#ffffff" bordercolor="#666666" borderopacity="1.0" inkscape:pageshadow="2" inkscape:pageopacity="0.0" inkscape:pagecheckerboard="0" inkscape:document-units="mm" showgrid="false" units="px" inkscape:zoom="0.90583674" inkscape:cx="272.67607" inkscape:cy="177.18425" inkscape:window-width="1848" inkscape:window-height="1136" inkscape:window-x="72" inkscape:window-y="27" inkscape:window-maximized="1" inkscape:current-layer="layer1" />
   <defs id="defs2487" />
   <g inkscape:label="Layer 1" inkscape:groupmode="layer" id="layer1">
      <g id="g1907" transform="matrix(0.83991964,0,0,0.83991964,-14.994027,-459.90844)">
         <g id="g262" transform="matrix(1.045645,0,0,-1.0461885,0.27058638,-40.585128)" style="stroke-width:0.956099">
            <path d="m 34.379,-636.84 c 7.805,-7.933 10.219,-19.348 17.027,-27.98 2.348,-6.207 6.055,-12.137 7.438,-18.571 0.449,-6.093 1.976,-18.218 1.976,-18.218 l -23.672,44.328 c -1.484,2.488 -2.285,7.832 0.438,7.629 -0.645,3.164 -1.781,7.98 -2.184,11.191" style="fill:none;stroke:#000000;stroke-width:2.50056;stroke-linecap:round;stroke-linejoin:round;stroke-miterlimit:10;stroke-dasharray:none;stroke-opacity:1" id="path264" />
         </g>
         <g id="g266" transform="matrix(1.045645,0,0,-1.0461885,0.27058638,-40.585128)" style="stroke-width:0.956099">
            <path d="m 50.074,-632.41 -15.019,-2.512 c 0,0 -2.172,-2.144 -0.047,-2.519" style="fill:none;stroke:#000000;stroke-width:2.50056;stroke-linecap:round;stroke-linejoin:round;stroke-miterlimit:10;stroke-dasharray:none;stroke-opacity:1" id="path268" />
         </g>
         <path d="m 50.628852,598.27614 c 0.49459,4.99869 1.062375,9.98378 1.491089,14.9856 0.690126,7.97719 0.927488,15.99203 1.858112,23.94412 0.08156,0.7114 0.608566,1.34435 1.143935,1.82245 0.869977,0.77314 1.846609,1.50861 2.96545,1.83921 2.515821,0.75639 5.134117,1.4678 7.756595,1.37783 3.843791,-0.13497 7.544329,-1.57348 11.367207,-2.0317 6.837473,-0.81708 13.740821,-0.94367 20.569929,-1.79422 4.235911,-0.52728 8.360971,-1.78165 12.592701,-2.33299 4.95427,-0.6455 9.93782,-1.00121 14.92868,-1.2502 0,0 9.14102,-0.43312 12.77255,-0.80975 7.75241,-0.77209 15.54978,-1.03364 23.29802,-1.86327 0.3231,-0.0325 0.54791,-0.40487 0.70267,-0.69885 0.49041,-0.93634 1.0582,-1.88837 1.19726,-2.93456 1.15544,-8.70847 1.6333,-17.49855 2.6549,-26.22375 0.41198,-3.58843 1.47018,-9.64482 1.47018,-9.64482 0.42034,-5.00182 1.11465,-9.97959 1.89889,-14.93643 0.54373,-3.47021 1.65421,-6.84521 2.09129,-10.33111 0.26141,-2.05576 0.30637,-4.16906 -0.0156,-6.21645 -0.0857,-0.54716 -0.70267,-0.87461 -1.13975,-1.2094 -0.41303,-0.31071 -0.89089,-0.53565 -1.38444,-0.71141 -3.77059,-1.35272 -7.46694,-3.03603 -11.38812,-3.86566 -2.23036,-0.47393 -4.56633,-0.17157 -6.83329,0 -0.71522,0.0534 -1.33946,0.6298 -2.05469,0.66223 -4.32583,0.19565 -8.66317,0.0366 -12.989,0.0125 -0.91494,-0.004 -1.84975,0.045 -2.749,-0.10252 -0.48936,-0.0775 -0.8658,-0.53565 -1.35202,-0.57227 -2.04633,-0.15484 -4.10835,-0.1632 -6.14735,0 l -19.86307,1.36946 c -0.75495,0.1224 -1.37189,0.93947 -1.55592,1.67913 -0.1098,0.41743 0.52282,0.70723 0.88252,0.94366 0.19972,0.12764 0.4695,0.09 0.70267,0.09 l 19.8338,-1.34854 c 2.039,-0.15484 4.10102,-0.15484 6.14735,0 0.48622,0.0408 0.86266,0.49485 1.35202,0.57645 0.89925,0.14751 1.83406,0.0942 2.749,0.0983 4.32583,0.0241 8.66317,0.18413 12.989,-0.009 0.71523,-0.0325 1.33947,-0.60469 2.05469,-0.66642 2.04633,-0.1632 4.14599,-0.44463 6.14317,0 3.93372,0.8788 7.66248,2.51817 11.4404,3.9232 0.20076,0.0784 0.40467,0.28248 0.4329,0.49904 0.15161,1.13616 0.19658,2.2922 0.0899,3.43254 l -1.58415,7.58487 c -0.2656,1.1529 -0.44545,2.32149 -0.5887,3.49008 -0.64098,5.08762 -1.04983,10.20452 -1.7525,15.28063 l -2.3276,18.09174 c 0.0815,0.23644 0.0408,0.49799 0.0198,0.74698 -0.58347,5.64 -0.99231,11.30825 -1.82569,16.91477 -0.0732,0.50741 -0.51446,0.89973 -0.88149,1.25543 -0.23317,0.22389 -0.53954,0.41219 -0.86264,0.44463 -8.91622,0.85892 -17.84499,1.56196 -26.77793,2.21897 -7.43768,0.5482 -14.90462,0.60888 -22.31825,1.3977 -3.99018,0.42581 -7.84233,1.74505 -11.824154,2.23989 -6.980727,0.86624 -14.030465,1.01794 -21.015374,1.8392 -3.970314,0.46555 -7.833973,1.83502 -11.832519,2.01497 -2.034825,0.09 -4.085335,-0.50322 -6.000957,-1.21045 -1.041463,-0.38395 -2.539872,-0.88193 -2.678942,-1.98567 -2.075606,-16.7024 -2.401847,-33.57637 -3.839609,-50.34363 -0.01255,-0.204 -0.302192,-0.42894 -0.490408,-0.35989 -0.616931,0.23749 -1.536052,0.49903 -1.617613,1.15708" style="fill:#000000;fill-opacity:1;fill-rule:nonzero;stroke:none;stroke-width:1" id="path270" />
         <g id="g272" transform="matrix(1.045645,0,0,-1.0461885,0.27058638,-40.585128)" style="stroke-width:0.956099">
            <path d="m 48.113,-599.797 c -0.277,1.981 0.403,0.367 0.403,0.367 l -0.055,22.348" style="fill:none;stroke:#000000;stroke-width:2.50056;stroke-linecap:round;stroke-linejoin:round;stroke-miterlimit:10;stroke-dasharray:none;stroke-opacity:1" id="path274" />
         </g>
         <g id="g276" transform="matrix(1.045645,0,0,-1.0461885,0.27058638,-40.585128)" style="stroke-width:0.956099">
            <path d="m 99.848,-573.594 c -1.696,0.176 -3.102,0.821 -5.09,0.731 0,0 -30.453,-1.864 -45.684,-2.735 -0.433,-0.687 -0.551,-3.422 -0.551,-3.422" style="fill:none;stroke:#000000;stroke-width:2.50056;stroke-linecap:round;stroke-linejoin:round;stroke-miterlimit:10;stroke-dasharray:none;stroke-opacity:1" id="path278" />
         </g>
         <g id="g280" transform="matrix(1.045645,0,0,-1.0461885,0.27058638,-40.585128)" style="stroke-width:0.956099">
            <path d="m 53.969,-575.355 c -0.305,-0.157 3.965,-2.114 4.656,-2.618 1.379,-1.984 0.156,-4.644 0.723,-6.754 -0.2,-3.183 4.445,-1.195 6.441,-2.132 l 67.445,4.941 c 1.102,0.215 3.055,-0.129 2.969,2.145 -0.367,2.043 -0.191,3.906 -0.621,5.371 -1.477,0.843 -1.973,1.859 -3.461,1.375" style="fill:none;stroke:#000000;stroke-width:2.50056;stroke-linecap:round;stroke-linejoin:round;stroke-miterlimit:10;stroke-dasharray:none;stroke-opacity:1" id="path282" />
         </g>
         <g id="g284" transform="matrix(1.045645,0,0,-1.0461885,0.27058638,-40.585128)" style="stroke-width:0.956099">
            <path d="m 58.129,-632.906 -2.414,37.367" style="fill:none;stroke:#000000;stroke-width:2.50056;stroke-linecap:round;stroke-linejoin:round;stroke-miterlimit:10;stroke-dasharray:none;stroke-opacity:1" id="path286" />
         </g>
         <g id="g288" transform="matrix(1.045645,0,0,-1.0461885,0.27058638,-40.585128)" style="stroke-width:0.956099">
            <path d="m 55.715,-595.539 96.25,6.406 c 0,0 -1.883,-38.484 -2.871,-36.769" style="fill:none;stroke:#000000;stroke-width:2.50056;stroke-linecap:round;stroke-linejoin:round;stroke-miterlimit:10;stroke-dasharray:none;stroke-opacity:1" id="path290" />
         </g>
         <g id="g292" transform="matrix(1.045645,0,0,-1.0461885,0.27058638,-40.585128)" style="stroke-width:0.956099">
            <path d="m 58,-634.062 c 29.852,0.312 62.801,1.855 88.594,5 0,0 2.699,3.66 2.5,3.16" style="fill:none;stroke:#000000;stroke-width:2.50056;stroke-linecap:round;stroke-linejoin:round;stroke-miterlimit:10;stroke-dasharray:none;stroke-opacity:1" id="path294" />
         </g>
         <g id="g296" transform="matrix(1.045645,0,0,-1.0461885,0.27058638,-40.585128)" style="stroke-width:0.956099">
            <path d="m 155.848,-638.617 c 4.152,-5.281 11.996,-6.301 15.902,-11.856 1.262,-5.14 -1.789,-13.328 -3.121,-15.679" style="fill:none;stroke:#000000;stroke-width:2.50056;stroke-linecap:round;stroke-linejoin:round;stroke-miterlimit:10;stroke-dasharray:none;stroke-opacity:1" id="path298" />
         </g>
         <g id="g300" transform="matrix(1.045645,0,0,-1.0461885,0.27058638,-40.585128)" style="stroke-width:0.956099">
            <path d="m 60.82,-701.609 c 1.485,-0.375 107.809,35.457 107.809,35.457" style="fill:none;stroke:#000000;stroke-width:2.50056;stroke-linecap:round;stroke-linejoin:round;stroke-miterlimit:10;stroke-dasharray:none;stroke-opacity:1" id="path302" />
         </g>
         <g id="g304" transform="matrix(1.045645,0,0,-1.0461885,0.27058638,-40.585128)" style="stroke-width:0.956099">
            <path d="m 60.359,-680.156 110.899,28.929" style="fill:none;stroke:#000000;stroke-width:2.50056;stroke-linecap:round;stroke-linejoin:round;stroke-miterlimit:10;stroke-dasharray:none;stroke-opacity:1" id="path306" />
         </g>
         <g id="g308" transform="matrix(1.045645,0,0,-1.0461885,0.27058638,-40.585128)" style="stroke-width:0.956099">
            <path d="m 142.027,-674.441 -0.984,15.738" style="fill:none;stroke:#000000;stroke-width:2.50056;stroke-linecap:round;stroke-linejoin:round;stroke-miterlimit:10;stroke-dasharray:none;stroke-opacity:1" id="path310" />
         </g>
         <g id="g312" transform="matrix(1.045645,0,0,-1.0461885,0.27058638,-40.585128)" style="stroke-width:0.956099">
            <path d="m 141.043,-658.703 -13.273,14.078" style="fill:none;stroke:#000000;stroke-width:2.50056;stroke-linecap:round;stroke-linejoin:round;stroke-miterlimit:10;stroke-dasharray:none;stroke-opacity:1" id="path314" />
         </g>
         <g id="g316" transform="matrix(1.045645,0,0,-1.0461885,0.27058638,-40.585128)" style="stroke-width:0.956099">
            <path d="m 96.277,-689.348 -1.011,17.739" style="fill:none;stroke:#000000;stroke-width:2.50056;stroke-linecap:round;stroke-linejoin:round;stroke-miterlimit:10;stroke-dasharray:none;stroke-opacity:1" id="path318" />
         </g>
         <g id="g320" transform="matrix(1.045645,0,0,-1.0461885,0.27058638,-40.585128)" style="stroke-width:0.956099">
            <path d="M 95.266,-671.609 C 89,-664.867 82.332,-657.98 77.734,-650.121" style="fill:none;stroke:#000000;stroke-width:2.50056;stroke-linecap:round;stroke-linejoin:round;stroke-miterlimit:10;stroke-dasharray:none;stroke-opacity:1" id="path322" />
         </g>
         <g id="g324" transform="matrix(1.045645,0,0,-1.0461885,0.27058638,-40.585128)" style="stroke-width:0.956099">
            <path d="m 57.598,-614.945 92.925,5.199" style="fill:none;stroke:#000000;stroke-width:2.50056;stroke-linecap:round;stroke-linejoin:round;stroke-miterlimit:10;stroke-dasharray:none;stroke-opacity:1" id="path326" />
         </g>
         <g id="g328" transform="matrix(1.045645,0,0,-1.0461885,0.27058638,-40.585128)" style="stroke-width:0.956099">
            <path d="m 134.898,-611.125 c 5.942,-2.488 7.813,-10.957 2.719,-15.246 -5.566,-3.914 -15.785,-2.887 -17.785,4.535 -0.984,4.699 2.785,7.316 5.332,10.496" style="fill:none;stroke:#000000;stroke-width:2.50056;stroke-linecap:round;stroke-linejoin:round;stroke-miterlimit:10;stroke-dasharray:none;stroke-opacity:1" id="path330" />
         </g>
         <g id="g332" transform="matrix(1.045645,0,0,-1.0461885,0.27058638,-40.585128)" style="stroke-width:0.956099">
            <path d="m 128.867,-621.082 h -0.019 l -0.055,0.016 -0.086,0.027 -0.09,0.031 -0.074,0.024 v 0.015 l -0.07,0.035 -0.075,-0.004 -0.062,0.04 -0.008,0.039 -0.008,0.019 -0.062,0.012 -0.082,0.019 0.023,0.024 0.031,0.023 0.008,0.02 0.028,0.047 0.027,0.027 0.027,0.02 0.016,0.019 v 0.016 l 0.035,0.027 0.012,0.027 -0.074,0.012 -0.024,0.027 0.078,0.032 0.02,0.035 0.023,0.019 v 0.012 l 0.016,0.035 -0.141,0.032 -0.058,0.05 0.105,0.012 0.027,0.055 0.02,0.027 0.039,0.031 0.113,0.032 -0.004,0.035 -0.05,0.043 -0.008,0.047 -0.004,0.039 v 0.019 l -0.09,0.043 -0.07,0.059 0.066,0.043 0.008,0.066 0.012,0.043 0.047,0.035 0.007,0.043 -0.027,0.031 0.012,0.047 0.023,0.067 0.016,0.035 0.015,0.043 0.047,0.047 0.039,0.058 -0.015,0.039 0.004,0.047 0.05,0.086 0.032,0.043 -0.004,0.039 0.008,0.047 0.031,0.047 0.039,0.035 0.023,0.043 -0.019,0.047 -0.047,0.051 0.043,0.039 0.082,0.023 0.039,0.031 0.043,0.036 0.047,0.047 0.031,0.043 0.035,0.027 0.055,0.027 0.047,0.012 0.039,0.016 0.023,0.019 -0.023,0.023 0.082,0.02 0.113,0.016 -0.027,0.039 0.027,0.027 0.039,0.012 0.024,0.023 -0.055,0.024 v 0.031 l 0.094,0.019 0.054,0.008 0.024,0.008 0.039,0.012 0.082,0.019 0.125,0.024 0.008,0.031 -0.02,0.02 0.035,0.031 0.043,0.027 0.028,0.024 -0.078,0.027 -0.004,0.043 0.105,0.035 0.063,0.039 0.035,0.004 0.047,0.02 0.078,0.019 0.019,0.031 0.024,-0.004 0.078,0.02 0.082,0.035 0.055,0.035 0.035,0.028 0.101,0.019 0.082,0.004 v 0.008 h 0.016 l 0.035,0.008 0.063,0.011 0.031,0.028 0.023,0.035 0.071,0.035 0.035,0.008 0.004,0.008 -0.012,0.015 h 0.043 l 0.043,-0.008 0.039,-0.003 h 0.031 l 0.035,0.003 -0.058,0.004 0.027,0.004 0.094,-0.015 h 0.082 l 0.039,0.004 0.031,-0.012 0.129,-0.004 0.098,0.016 0.015,0.003 0.079,-0.015 h 0.152 l -0.102,0.004 v 0.008 h 0.11 l 0.078,0.019 0.121,0.02 0.129,0.004 0.207,-0.012 h 0.027 l -0.031,0.004 0.031,-0.016 0.028,-0.004 0.046,0.012 0.051,0.004 h 0.074 l 0.02,-0.016 0.039,-0.019 0.039,-0.012 -0.031,-0.02 0.008,-0.031 0.058,-0.015 0.043,-0.008 0.035,-0.032 0.008,-0.007 0.125,-0.024 0.094,-0.008 -0.051,-0.019 0.02,-0.008 h -0.004 v -0.004 h 0.043 l 0.008,-0.004 0.007,-0.015 0.02,-0.012 0.027,-0.02 0.008,-0.015 -0.004,-0.016 -0.019,-0.015 0.05,-0.012 0.043,-0.028 0.043,-0.031 0.032,-0.012 0.027,-0.003 -0.043,-0.016 0.039,-0.012 0.047,-0.015 0.004,-0.02 0.082,-0.027 0.047,-0.039 0.031,-0.02 0.055,-0.027 0.05,-0.012 0.008,-0.008 0.043,-0.019 0.024,-0.016 0.05,-0.023 -0.097,-0.036 -0.028,-0.046 0.09,-0.004 h 0.059 l 0.047,-0.043 0.027,-0.02 0.059,-0.019 0.066,-0.024 0.004,-0.039 0.008,-0.035 0.004,-0.023 0.019,-0.028 0.016,-0.031 0.109,-0.031 0.035,-0.043 -0.039,-0.024 -0.011,-0.015 -0.028,-0.024 -0.027,-0.015 -0.027,-0.024 -0.028,-0.015 0.039,-0.028 0.047,-0.008 -0.031,-0.035 0.016,-0.035 -0.008,-0.019 0.203,-0.016 0.137,-0.008 -0.086,-0.027 -0.008,-0.043 -0.047,-0.004 -0.031,-0.024 0.011,-0.027 -0.015,-0.031 -0.012,-0.02 0.004,-0.019 -0.004,-0.031 0.008,-0.051 -0.031,-0.063 0.023,-0.031 0.012,-0.047 0.035,-0.043 0.008,-0.023 0.008,-0.02 -0.028,-0.019 0.051,-0.032 0.07,-0.039 -0.031,-0.046 0.02,-0.047 0.023,-0.059 0.027,-0.039 -0.007,-0.043 -0.016,-0.039 -0.004,-0.043 -0.008,-0.031 -0.004,-0.051 -0.156,-0.02 -0.023,-0.062 0.113,-0.027 -0.039,-0.012 0.004,-0.051 0.008,-0.023 -0.008,-0.039 v -0.043 l 0.015,-0.028 -0.007,-0.027 v -0.031 l -0.012,-0.024 -0.004,-0.035 0.113,-0.031 0.012,-0.039 -0.074,-0.039 -0.028,-0.032 -0.066,-0.039 -0.051,-0.031 -0.144,-0.07 0.023,-0.035 0.004,-0.055 -0.027,-0.039 -0.016,-0.043 -0.035,-0.043 0.215,-0.043 0.043,-0.094 -0.188,-0.047 -0.047,-0.07 -0.062,-0.023 -0.055,-0.02 -0.043,-0.047 -0.023,-0.027 -0.055,-0.024 -0.066,-0.043 -0.047,-0.054 -0.047,-0.031 -0.059,-0.051 -0.109,-0.047 -0.09,-0.039 -0.012,-0.035 -0.05,-0.028 -0.067,-0.027 -0.062,-0.043 -0.114,-0.023 -0.097,-0.036 -0.008,-0.027 -0.055,-0.035 -0.07,-0.031 -0.059,-0.028 -0.027,-0.023 -0.031,-0.012 -0.09,-0.015 -0.113,-0.02 -0.094,-0.008 -0.098,-0.015 h -0.097 l -0.094,-0.016 -0.102,-0.02 -0.113,-0.019 -0.113,0.008 -0.11,-0.028 -0.113,-0.023 -0.129,-0.024 0.008,-0.011 -0.059,-0.012 -0.175,-0.016 -0.129,-0.007 -0.09,-0.004 h -0.098 l 0.016,-0.008 -0.028,0.004 -0.136,-0.008 -0.094,0.012 -0.074,0.015 -0.059,0.012 -0.066,0.008 -0.098,0.004 -0.078,0.027 -0.02,0.008 -0.023,0.008 -0.039,0.011 -0.047,0.012 0.051,0.012 -0.016,0.012 -0.125,0.004 -0.105,0.027 -0.082,0.031 -0.067,0.024 -0.07,0.011 -0.047,0.024 -0.082,0.023 -0.086,0.012 -0.062,0.008 -0.043,0.019 -0.098,0.008 -0.023,-0.008 -0.02,0.012 -0.039,0.004 -0.027,0.015 -0.094,0.004 -0.086,0.024 -0.016,0.019 -0.031,0.02 -0.019,0.016 -0.032,0.027 0.016,0.031 0.027,0.031 -0.054,0.028 -0.071,0.031 -0.027,0.047 -0.039,0.015 -0.012,0.008 -0.035,0.004 h -0.039 l -0.02,0.02 v 0.027 l 0.02,0.004 -0.059,0.012 -0.082,0.015 0.047,0.024 -0.019,0.05 -0.012,0.04 -0.016,0.039 0.153,0.043 0.027,0.062 -0.152,0.027 -0.067,0.075 -0.062,0.062 -0.051,0.031 -0.09,0.047 -0.144,0.055 -0.051,0.078 0.008,0.051 -0.032,0.031 -0.031,0.039" style="fill:none;stroke:#000000;stroke-width:2.50056;stroke-linecap:round;stroke-linejoin:round;stroke-miterlimit:10;stroke-dasharray:none;stroke-opacity:1" id="path334" />
         </g>
         <g id="g336" transform="matrix(1.045645,0,0,-1.0461885,0.27058638,-40.585128)" style="stroke-width:0.956099">
            <path d="m 83.684,-613.789 c 6.199,-1.043 9.187,-13.258 4.144,-17.156 -0.871,-1.196 -3.648,-2.657 -3.648,-2.657" style="fill:none;stroke:#000000;stroke-width:2.50056;stroke-linecap:round;stroke-linejoin:round;stroke-miterlimit:10;stroke-dasharray:none;stroke-opacity:1" id="path338" />
         </g>
         <g id="g340" transform="matrix(1.045645,0,0,-1.0461885,0.27058638,-40.585128)" style="stroke-width:0.956099">
            <path d="m 73.637,-633.727 c -6.5,0.907 -10.051,11.364 -5.246,16.122 0.828,0.585 3.882,3.667 5.004,3.378" style="fill:none;stroke:#000000;stroke-width:2.50056;stroke-linecap:round;stroke-linejoin:round;stroke-miterlimit:10;stroke-dasharray:none;stroke-opacity:1" id="path342" />
         </g>
         <g id="g344" transform="matrix(1.045645,0,0,-1.0461885,0.27058638,-40.585128)" style="stroke-width:0.956099">
            <path d="m 76.105,-622.902 v -0.004 l 0.004,-0.008 0.051,-0.004 -0.012,-0.012 -0.05,-0.019 v -0.024 0.032 l 0.019,0.007 -0.031,0.012 -0.016,0.012 0.02,0.012 0.023,0.011 0.012,0.024 0.027,0.019 0.071,0.012 0.05,0.012 -0.015,0.023 0.008,0.031 0.007,0.039 0.004,0.032 v 0.023 l 0.012,0.02 0.004,0.023 0.012,0.016 0.023,0.023 0.027,0.008 0.008,0.027 0.067,0.016 -0.055,0.008 -0.055,0.015 h 0.098 l 0.027,0.043 0.043,0.02 0.051,0.019 0.141,0.008 0.097,0.031 -0.031,0.02 0.031,0.027 0.047,0.028 0.051,0.035 0.043,0.031 0.055,0.031 0.039,0.016 0.035,0.027 0.043,0.012 0.051,0.004 0.039,0.019 0.043,0.02 0.054,0.004 0.055,0.019 0.035,0.004 0.043,0.004 0.059,-0.004 0.031,-0.004 0.051,-0.003 0.066,-0.008 0.051,0.015 h 0.051 l 0.058,-0.031 0.063,-0.012 0.086,-0.011 0.066,-0.012 0.012,-0.016 0.039,-0.015 0.051,-0.008 0.058,-0.024 0.059,-0.007 0.035,-0.02 0.047,-0.012 0.055,-0.019 0.062,-0.008 0.063,-0.023 0.086,-0.024 0.074,-0.027 0.086,-0.086 0.035,-0.02 0.043,-0.031 0.113,-0.027 0.063,-0.039 -0.032,-0.024 0.008,-0.031 0.004,-0.012 0.016,-0.015 v -0.02 l -0.078,-0.012 -0.008,-0.023 0.074,-0.02 0.039,-0.031 0.031,-0.027 0.012,-0.012 0.074,-0.035 0.055,-0.016 v -0.007 l 0.027,-0.024 0.016,-0.027 0.031,-0.028 0.031,-0.035 v -0.023 l 0.028,-0.031 0.066,-0.016 0.047,-0.027 0.039,-0.043 0.035,-0.028 -0.019,-0.023 0.015,-0.031 0.075,-0.039 0.066,-0.055 0.07,-0.043 0.043,-0.031 0.063,-0.032 0.078,-0.031 0.039,-0.031 0.027,-0.024 0.024,-0.011 0.035,-0.028 0.039,-0.035 0.012,-0.027 0.011,-0.016 -0.007,-0.008 -0.004,-0.015 0.011,-0.008 -0.011,-0.004 -0.008,-0.012 -0.039,-0.031 v -0.019 l -0.008,-0.012 -0.004,-0.024 0.004,-0.019 -0.027,-0.008 -0.012,-0.027 0.004,0.008 -0.016,-0.024 -0.004,-0.062 -0.015,0.035 h 0.125 l 0.05,-0.035 -0.078,-0.02 -0.043,-0.023 -0.023,-0.036 -0.043,-0.027 -0.059,-0.051 -0.105,-0.05 -0.086,-0.063 0.012,-0.047 -0.012,-0.062 -0.035,-0.047 -0.02,-0.055 -0.027,-0.062 -0.027,-0.051 -0.051,-0.043 -0.035,-0.039 -0.028,-0.031 -0.019,-0.047 -0.102,-0.063 -0.023,-0.031 -0.012,-0.004 -0.035,-0.016 -0.043,-0.035 -0.031,-0.023 -0.153,-0.016 -0.113,-0.051 0.047,-0.027 -0.027,-0.008 -0.004,-0.031 -0.012,-0.012 -0.016,-0.004 -0.035,-0.011 -0.066,-0.004 -0.055,-0.016 -0.078,-0.015 -0.059,-0.016 -0.066,-0.039 -0.055,-0.012 -0.09,-0.023 -0.125,-0.008 -0.125,-0.004 -0.109,-0.02 -0.121,-0.003 -0.078,-0.024 -0.098,-0.019 -0.16,-0.008 -0.273,-0.008 h -0.137 l -0.145,0.004 H 76.84 l -0.121,0.004 h -0.094 l -0.059,0.015 -0.039,0.004 h 0.055 l -0.023,0.008 -0.141,0.008 -0.09,-0.012 h -0.07 l -0.055,0.008 -0.062,0.004 -0.043,0.004 h -0.082 l -0.063,0.004 h -0.07 l -0.004,-0.004 -0.047,0.023 v -0.004 l 0.027,0.02 h -0.027 l -0.031,0.043 v -0.016 l -0.024,-0.015 -0.011,-0.012 -0.129,0.016 -0.086,0.011 0.043,-0.004 -0.008,0.035 -0.02,0.055 -0.027,0.039 -0.039,0.031 -0.012,0.012 -0.015,0.039 -0.004,0.043 -0.016,0.02 -0.004,0.031 -0.039,0.039 -0.008,0.012 0.02,0.027 -0.02,0.055 -0.047,0.031 -0.031,0.039 0.031,0.027 -0.023,0.047 -0.07,0.028 -0.02,0.054 -0.023,0.055 -0.012,0.059 -0.027,0.07 -0.137,0.062 -0.031,0.079 0.054,0.066" style="fill:none;stroke:#000000;stroke-width:2.50056;stroke-linecap:round;stroke-linejoin:round;stroke-miterlimit:10;stroke-dasharray:none;stroke-opacity:1" id="path346" />
         </g>
         <g id="g348" transform="matrix(1.045645,0,0,-1.0461885,0.27058638,-40.585128)" style="stroke-width:0.956099">
            <path d="m 79.043,-619.547 0.004,0.004 0.004,0.023 0.047,0.04 0.031,0.015 -0.004,0.035 v 0.016 l 0.004,0.012 0.019,-0.016 0.082,-0.023 v -0.036 l -0.023,-0.031 0.008,-0.031 0.019,-0.016 0.028,-0.015 -0.02,-0.012 -0.023,-0.008 0.047,-0.023 0.023,-0.008 0.016,-0.004 0.027,-0.027 v -0.016 l -0.004,-0.012 0.047,-0.011 0.016,-0.024 0.019,-0.019 0.008,0.004 h -0.031 l 0.027,-0.004 0.047,-0.004 -0.012,0.004 -0.008,0.011 -0.011,0.035 -0.012,0.012 h -0.074 l -0.043,-0.012 0.062,0.012 0.008,0.004 0.004,-0.008 0.008,0.016 0.023,0.019 0.102,0.004 0.019,0.008 -0.047,0.02 v 0.054 l -0.054,0.008 h -0.008 l 0.074,-0.004 0.035,0.008 0.043,0.016 0.039,0.019 0.059,0.024 -0.004,0.062 0.074,0.016 0.067,0.008 0.062,0.015 0.031,0.02 0.114,0.027 0.101,0.051 -0.031,0.047 0.027,0.043 0.024,0.019 0.023,0.024 0.02,0.027 0.031,0.016 0.027,0.023 0.004,0.024 0.016,0.039 v 0.039 l -0.004,0.031 0.023,0.023 0.032,0.028 0.027,0.023 0.008,0.024 0.004,0.031 v 0.027 l -0.047,0.008 0.012,0.02 0.046,0.031 -0.023,0.043 v 0.039 l 0.039,0.004 0.035,0.011 -0.031,0.02 -0.012,0.027 -0.008,0.004 0.004,0.016 -0.07,0.023 -0.039,-0.011 0.086,0.007 v 0.051 l 0.039,0.031 h 0.016 l 0.007,0.004 0.063,0.004 0.062,0.012 -0.023,0.023 0.023,0.036 0.028,0.019 -0.016,0.031 0.012,0.024 0.058,0.015 0.02,0.032 0.012,0.015 0.023,0.008 0.004,0.012 -0.004,0.012 0.012,-0.008 h 0.008 l 0.011,-0.008 h 0.004 l 0.09,-0.031 h 0.043 -0.086 l -0.027,-0.032 -0.016,-0.035 0.008,-0.004 h 0.008 l -0.004,-0.007 -0.02,0.003 h -0.023 l -0.016,0.008 -0.015,0.004 -0.012,-0.004 -0.012,-0.047 -0.004,-0.027 -0.004,-0.043 v -0.094 l -0.062,-0.05 -0.008,-0.067 0.055,-0.058 -0.008,-0.032 -0.004,-0.054 0.012,-0.063 0.031,-0.047 0.059,-0.047 -0.004,-0.05 -0.047,-0.036 -0.008,-0.035 -0.012,-0.023 -0.011,-0.028 -0.129,-0.007 -0.051,-0.036 0.066,-0.015 0.008,-0.024 h -0.019 l -0.012,-0.015 0.031,-0.016 0.078,-0.004 -0.011,-0.019 -0.043,-0.016 -0.016,-0.004 -0.008,-0.004 -0.008,-0.015 0.086,-0.024 0.024,-0.027 -0.071,-0.012 -0.023,-0.031 h -0.051 l -0.07,0.004 -0.012,-0.02 0.035,-0.043 0.008,-0.047 0.02,0.024 0.015,0.004 0.141,-0.024 0.105,-0.004 h -0.093 l -0.047,-0.027 h -0.02 l -0.023,0.004 0.035,-0.008 v -0.027 l -0.043,-0.008 -0.027,0.008 -0.016,-0.008 -0.016,0.004 -0.019,-0.008 -0.02,-0.004 h -0.019 l -0.008,0.004 -0.031,-0.012 -0.035,-0.003 -0.043,-0.016 -0.055,-0.008" style="fill:none;stroke:#000000;stroke-width:2.50056;stroke-linecap:round;stroke-linejoin:round;stroke-miterlimit:10;stroke-dasharray:none;stroke-opacity:1" id="path350" />
         </g>
         <g id="g352" transform="matrix(1.045645,0,0,-1.0461885,0.27058638,-40.585128)" style="stroke-width:0.956099">
            <path d="m 70.277,-625.016 0.024,-0.007 h 0.082 l 0.129,0.007 0.129,0.039 0.195,0.032 0.144,0.047 -0.007,0.05 0.027,0.004 0.008,0.004 0.031,0.043 0.027,0.039 0.024,0.012 0.019,0.047 -0.011,0.062 -0.008,0.02 0.004,0.015 -0.012,0.028 -0.035,0.012 -0.012,0.042 0.004,0.016 -0.023,0.016 -0.004,0.011 -0.051,0.028 v 0.035 l 0.047,0.008 0.004,0.023 v 0.012 l 0.004,0.004 0.023,-0.02 0.047,-0.011 -0.004,0.007 -0.016,-0.015 0.004,-0.028 0.004,-0.015 0.004,-0.012 0.004,0.012 v 0.058 -0.007 l 0.043,-0.02 -0.051,-0.008 -0.082,0.008 0.031,-0.02 h 0.004 l 0.004,0.012 0.008,-0.012 0.137,-0.019 0.07,-0.012 -0.086,0.012 -0.031,0.004 -0.02,0.012 -0.023,0.019 -0.031,0.004 h -0.016 v 0.004 l -0.023,0.004 -0.012,-0.012 -0.004,0.012 -0.004,0.004 -0.027,0.011 -0.008,0.008 -0.008,0.004 -0.019,0.02 -0.004,0.023 -0.012,-0.004 -0.012,-0.015 h 0.004 l -0.027,0.011 -0.028,-0.004 -0.027,-0.027 0.027,-0.004 -0.058,-0.015 -0.047,-0.008 0.012,0.004 -0.004,0.004 -0.016,0.003 -0.031,0.016 -0.059,0.012 -0.015,0.019 -0.02,0.024 -0.027,0.015 -0.02,0.008 0.004,0.008 -0.008,0.008 -0.023,0.004 H 70.5 l -0.02,0.011 0.055,-0.003 0.008,-0.008 h -0.051 l -0.019,-0.004 -0.016,0.015 -0.016,-0.007 -0.109,0.015 -0.086,0.039 0.059,-0.015 0.015,0.004 0.012,-0.008 0.008,0.039 0.117,-0.012 0.059,-0.012 -0.055,-0.003 -0.008,-0.016 0.008,-0.012 0.008,-0.019 0.031,-0.012 0.043,-0.012 v -0.004 l -0.004,-0.007 v 0.003 l -0.004,0.008 0.008,-0.023 0.039,-0.008 0.008,-0.012 -0.008,-0.004 v 0.004 l 0.008,-0.004 0.023,-0.004 0.016,-0.011 0.043,-0.012 0.051,-0.02 0.043,0.004 0.062,-0.004 0.039,-0.031 0.067,-0.012 0.027,-0.007 0.039,-0.008 0.055,-0.027 0.05,-0.016 0.036,-0.016 0.039,-0.023 0.043,-0.012 0.035,-0.039 0.066,-0.031 0.074,-0.035 0.063,-0.016 0.062,-0.012 0.071,-0.008 0.066,-0.023 0.059,-0.019 0.043,-0.008 0.035,-0.004 h 0.047 l 0.105,0.004 0.059,-0.02 -0.02,-0.012 0.008,-0.019 -0.004,0.012 -0.019,0.031 -0.039,-0.02 -0.145,-0.004 -0.039,0.043 h 0.066 v 0.063 h 0.059 l 0.031,-0.008 -0.043,0.016 -0.015,-0.004 h -0.012 l 0.004,-0.004 -0.02,-0.004 -0.035,0.012 -0.023,-0.004 -0.004,0.004 -0.016,-0.004 -0.004,-0.016 -0.004,0.008 -0.031,0.012 -0.039,0.004 0.008,-0.012 -0.004,0.016 -0.031,0.023 -0.043,-0.004 -0.004,-0.012 v 0.02 l -0.055,0.043 -0.047,0.047 -0.039,0.043 -0.051,0.023 -0.039,0.02 -0.078,0.027 -0.07,0.031 h -0.012 l -0.031,0.016 -0.035,0.012 -0.028,0.011 -0.05,0.016 -0.059,0.023 -0.047,0.012 -0.039,0.016 -0.051,0.008 -0.035,0.035" style="fill:none;stroke:#000000;stroke-width:2.50056;stroke-linecap:round;stroke-linejoin:round;stroke-miterlimit:10;stroke-dasharray:none;stroke-opacity:1" id="path354" />
         </g>
         <g id="g356" transform="matrix(1.045645,0,0,-1.0461885,0.27058638,-40.585128)" style="stroke-width:0.956099">
            <path d="m 82.305,-627.148 h 0.004 v -0.004 l -0.043,-0.012 -0.094,0.008 -0.074,0.004 -0.063,0.004 -0.086,0.019 -0.035,-0.004 -0.004,0.008 -0.031,0.004 -0.008,-0.008 -0.012,0.012 -0.023,0.012 -0.063,0.011 H 81.75 l 0.031,0.004 -0.031,0.004 v -0.012 0.004 l -0.004,0.004 0.047,0.012 0.023,0.012 -0.039,0.004 -0.019,0.011 H 81.75 l -0.012,0.004 h -0.156 l -0.066,-0.027 0.093,-0.012 0.012,-0.019 -0.004,0.019 0.008,0.012 0.031,0.004 h 0.063 l -0.008,0.004 h -0.02 l 0.02,0.011 0.008,0.02 0.015,0.008 0.008,0.011 0.008,-0.015 v -0.016 l 0.027,-0.012 0.004,-0.007 0.004,-0.012 0.004,-0.004 -0.035,-0.004 -0.016,-0.012 0.035,-0.015 0.008,-0.028 0.028,0.016 h 0.011 l 0.125,-0.008 0.055,-0.019 -0.066,0.004 -0.016,-0.008 h -0.012 l -0.008,-0.008 0.012,0.004 v 0.004 l -0.004,-0.012 h -0.019 l -0.012,-0.012 0.008,-0.008 0.039,-0.003 0.012,-0.012 0.015,-0.008 0.012,-0.008 -0.074,-0.004 -0.008,-0.007 h 0.07 l 0.008,0.007 0.012,0.004 h 0.011 l 0.106,0.012 -0.07,0.023 -0.016,0.012 -0.02,0.008 -0.039,0.008 -0.109,0.004 -0.047,-0.008 0.031,0.004 -0.011,-0.012 -0.016,0.023 -0.008,-0.003 h -0.023 l 0.015,0.007 -0.011,-0.007 h -0.02 l -0.023,-0.004 -0.051,-0.004 h -0.047 l 0.004,-0.004 -0.031,-0.004 h -0.231 l -0.066,0.008 -0.082,0.008 -0.098,-0.012 -0.058,-0.016 -0.016,-0.019 -0.039,0.007 -0.035,0.02 -0.028,-0.004 h 0.075 l -0.024,0.008 -0.094,-0.02 -0.019,-0.027 -0.043,0.008 -0.004,-0.004 0.012,0.004 0.027,0.008 -0.016,0.004 0.004,-0.004 0.008,0.015 0.008,0.012 0.027,-0.016 -0.015,-0.004 0.004,-0.011 0.027,-0.012 0.012,-0.008 0.039,-0.004 0.031,-0.004 -0.082,-0.011 0.012,-0.012 0.097,-0.004 0.008,-0.004 0.016,-0.031 0.027,-0.016 0.074,-0.015 0.098,-0.032 0.027,-0.035 0.016,-0.011 0.023,-0.008 0.028,-0.02 0.027,-0.015 -0.055,-0.012 -0.011,-0.035 0.101,-0.02 0.055,-0.012 0.043,-0.003 0.031,-0.004 h 0.031 l 0.024,0.019 0.015,0.008 0.004,0.012 v 0.015 h -0.011 l -0.016,0.012 0.098,0.004 0.039,0.008 -0.071,0.011 -0.035,0.008 -0.031,0.012 -0.027,0.027 -0.02,0.012 -0.043,0.004 -0.043,0.008 0.004,-0.024 -0.004,-0.004 -0.008,-0.003 -0.007,0.007 0.101,-0.004 0.074,0.004 -0.078,0.008 -0.019,-0.004 -0.012,0.012 -0.012,0.016 H 81.5 l 0.031,-0.004 h -0.043 l -0.015,0.008 v -0.008 l -0.028,-0.004 -0.015,-0.012 h 0.023 l 0.031,-0.039 0.008,-0.004 h -0.023 v 0.008 h 0.039 l 0.023,0.016 0.02,0.003 0.023,0.016 h 0.121 l 0.028,-0.004 h 0.019 l 0.008,0.004 0.031,0.008 -0.031,0.012 0.012,0.004 0.082,-0.016" style="fill:none;stroke:#000000;stroke-width:2.50056;stroke-linecap:round;stroke-linejoin:round;stroke-miterlimit:10;stroke-dasharray:none;stroke-opacity:1" id="path358" />
         </g>
         <g id="g360" transform="matrix(1.045645,0,0,-1.0461885,0.27058638,-40.585128)" style="stroke-width:0.956099">
            <path d="m 130.387,-615.359 v 0.047 l 0.023,0.027 0.004,0.023 -0.012,0.016 -0.023,-0.008 -0.004,0.008 0.008,-0.004 0.043,0.02 -0.008,-0.024 h -0.047 l 0.004,-0.004 v 0.012 l 0.004,-0.02 -0.02,0.004 0.008,0.004 0.031,-0.004 -0.007,-0.008 v 0.004 -0.011 l -0.008,0.011 -0.055,0.016 0.004,0.016 v 0.011 l -0.004,0.02 -0.004,0.023 -0.043,-0.004 -0.027,0.02 0.031,0.008 -0.004,0.015 v 0.012 l -0.008,0.02 0.02,0.031 -0.113,0.027 -0.039,0.031 0.066,0.024 -0.016,0.016 0.012,0.019 0.008,0.027 0.066,0.024 0.106,0.008 -0.008,0.027 -0.059,0.02 -0.011,-0.012 -0.012,0.031 0.008,0.039 -0.121,0.035 -0.075,0.02 0.09,0.035 0.016,0.059 0.031,0.023 0.016,0.016 0.086,0.031 0.039,0.039 -0.02,0.012 0.02,0.023 0.008,0.047 0.019,0.035 0.008,0.047 0.035,0.035 0.031,0.051 -0.004,0.039 0.004,0.047 0.004,0.043 -0.004,0.051 0.059,0.031 -0.008,0.055 -0.051,0.046 0.028,0.036 -0.02,0.046 -0.004,0.032 -0.031,0.047 0.043,0.035 0.043,0.031 h -0.055 l -0.019,0.031 -0.008,0.047 -0.012,0.027 -0.031,0.02 -0.02,0.027 0.024,0.032 -0.012,0.031 -0.012,0.012 -0.066,0.015 -0.043,0.031 0.016,0.016 0.015,0.004 0.008,0.016 0.004,-0.012 -0.086,-0.008 -0.039,-0.012 0.07,0.004 0.016,-0.031 0.043,-0.008 0.019,0.004 0.079,-0.008 0.187,-0.008 -0.004,-0.019 -0.101,-0.004 -0.016,-0.012 -0.027,-0.007 -0.02,-0.02 -0.066,-0.023 -0.055,-0.032 0.016,-0.015 -0.012,-0.028 -0.027,-0.043 -0.024,-0.062 0.012,-0.055 -0.063,-0.043 -0.066,-0.062 0.031,-0.075 -0.015,-0.066 -0.02,-0.07 -0.008,-0.063 0.094,-0.058 0.039,-0.078 -0.082,-0.067 -0.039,-0.055 -0.031,-0.031 -0.004,-0.039 -0.02,-0.051 -0.082,-0.047 0.012,-0.019 0.023,-0.035 0.008,-0.047 0.004,-0.035 -0.019,-0.031 0.046,-0.028 0.028,-0.023 -0.039,-0.035 0.019,-0.036 -0.004,-0.004 h -0.011 l -0.032,0.008 0.012,0.004 0.012,0.008 0.004,0.012 v 0.004 h 0.004 l -0.016,-0.012 0.004,-0.039 0.019,-0.012 -0.015,-0.012 -0.004,-0.027 -0.008,-0.031 0.004,-0.031" style="fill:none;stroke:#000000;stroke-width:2.50056;stroke-linecap:round;stroke-linejoin:round;stroke-miterlimit:10;stroke-dasharray:none;stroke-opacity:1" id="path362" />
         </g>
         <g id="g364" transform="matrix(1.045645,0,0,-1.0461885,0.27058638,-40.585128)" style="stroke-width:0.956099">
            <path d="m 135.344,-621.773 -0.008,0.003 -0.027,0.004 h -0.016 l -0.008,-0.007 -0.004,-0.008 -0.004,-0.02 0.055,-0.008 -0.023,-0.007 -0.055,-0.004 h -0.008 l 0.008,-0.012 -0.008,-0.008 -0.027,-0.004 0.031,-0.008 0.012,0.008 0.019,-0.015 0.012,-0.016 0.016,-0.059 0.035,-0.027 0.074,-0.07 h 0.035 l 0.129,-0.024 0.055,-0.047 -0.02,-0.019 0.035,-0.008 0.024,0.008 0.031,0.004 h 0.133 l 0.051,-0.016 -0.047,0.012 0.023,0.016 v 0.027 l -0.008,0.016 -0.023,0.011 -0.156,0.008 h -0.012 l 0.094,-0.016 0.027,0.004 0.012,0.004 0.015,0.012 0.102,0.008 0.047,-0.031 -0.059,-0.016 -0.031,-0.004 -0.008,-0.004 -0.012,0.004 -0.078,0.012 -0.07,0.008 0.031,0.003 h 0.024 l 0.011,0.004 0.012,0.012 -0.066,-0.008 -0.028,-0.019 0.059,-0.004 0.012,-0.024 0.015,-0.023 0.012,0.004 h 0.043 l 0.012,-0.004 h -0.043 l -0.016,0.016 -0.012,0.007 0.016,0.004 -0.055,0.004 -0.078,0.004 -0.023,0.016 -0.016,0.008 -0.031,-0.004 h -0.035 l -0.043,0.019 -0.028,-0.012 h -0.027 l -0.047,-0.003 -0.039,0.015 -0.035,0.004 -0.031,0.012 -0.028,-0.008 -0.05,-0.004 -0.047,0.031 -0.102,0.055 0.02,0.023 -0.043,0.036 -0.125,0.011 -0.094,0.055 -0.098,0.039 -0.066,0.043 -0.141,0.039 -0.172,0.051 -0.062,0.066 -0.012,0.035 -0.043,0.036 -0.058,0.031 -0.071,0.047 0.012,0.054 v 0.024 l -0.031,-0.004 -0.016,-0.016 h 0.004 l 0.004,0.004 -0.016,-0.008 0.028,0.008 0.031,-0.019 0.031,-0.028 0.024,-0.015 0.035,-0.012 -0.121,-0.023 0.035,-0.024 h 0.164 l 0.012,-0.027 0.043,-0.035 0.031,-0.008 0.086,-0.028 0.144,-0.031 0.094,-0.039 0.035,-0.027 0.082,-0.028 0.086,-0.027 0.121,-0.027 0.098,-0.098 0.109,-0.023 0.098,-0.028 0.102,-0.043 0.082,-0.031 0.054,-0.027 0.035,-0.024 0.059,-0.011 0.059,-0.02 0.05,-0.004 h 0.024 l 0.058,0.004 0.055,-0.008 v 0.012 l -0.004,0.012 -0.004,0.004 -0.004,0.031 0.098,0.004 h 0.027 -0.078 l -0.031,-0.02 -0.035,0.004 -0.024,0.012 -0.093,0.012 -0.102,0.027 0.012,0.027 0.039,-0.011 0.004,0.011 0.004,0.008 0.035,0.004 0.023,-0.008 -0.054,-0.023 -0.016,0.011 -0.066,0.02 v 0.019 l 0.031,0.04 -0.074,0.035 -0.055,0.019 -0.07,0.032 -0.059,0.05 -0.289,0.055 -0.125,0.082 0.094,0.043" style="fill:none;stroke:#000000;stroke-width:2.50056;stroke-linecap:round;stroke-linejoin:round;stroke-miterlimit:10;stroke-dasharray:none;stroke-opacity:1" id="path366" />
         </g>
         <g id="g368" transform="matrix(1.045645,0,0,-1.0461885,0.27058638,-40.585128)" style="stroke-width:0.956099">
            <path d="m 125.195,-621.035 v 0.137 l -0.015,0.046 -0.024,0.012 -0.043,0.012 -0.039,-0.012 v -0.023 l -0.039,-0.024 -0.066,-0.011 -0.035,-0.012 -0.028,-0.02 -0.035,-0.015 -0.078,-0.024 -0.098,-0.031 -0.004,-0.039 0.008,-0.039 -0.035,-0.035 -0.035,-0.043 -0.024,-0.032 -0.019,-0.035 -0.004,-0.023 -0.039,-0.027 -0.047,-0.032 -0.035,-0.031 -0.043,-0.023 -0.086,-0.028 0.016,-0.015 0.027,-0.008 -0.074,-0.016 -0.043,-0.027 -0.02,-0.004 h -0.023 l -0.145,0.008 -0.097,-0.024 h 0.058 l -0.027,0.008 v -0.023 l 0.004,0.008 0.043,0.003 0.058,-0.015 -0.027,-0.004 -0.047,-0.004 -0.027,0.012 -0.012,0.023 -0.012,0.008 -0.117,-0.004 h -0.105 l 0.058,-0.004 0.004,0.004 h 0.004 l 0.004,0.004 0.012,-0.012 -0.012,-0.023 -0.047,-0.047 -0.012,0.004 h -0.011 l 0.023,0.023 -0.035,-0.004 -0.039,-0.027 -0.039,0.027 -0.043,0.028 -0.031,0.023 -0.016,0.027 -0.023,0.016 -0.02,0.027 -0.035,0.032 -0.043,0.015 -0.035,0.028 -0.196,0.039 0.012,0.023 0.059,-0.015 0.027,0.003 0.02,0.008 -0.059,-0.019 0.012,0.027 0.101,-0.008 0.055,0.016 0.043,0.004 h 0.043 l 0.012,0.019 0.129,0.012 0.152,0.023 -0.008,0.024 0.043,0.027 0.07,0.047 0.09,0.031 -0.062,0.039 0.043,0.04 0.187,0.023 0.133,0.035 0.113,0.031 0.098,0.032 0.187,0.031 0.227,0.027 0.051,0.039 0.015,0.039 0.071,0.051 0.074,0.055 0.086,0.035 v 0.043 l 0.035,0.047 0.102,0.062 0.089,0.043 0.036,0.028 0.058,0.023 0.059,0.043 v 0.039 l 0.008,0.004 0.066,0.004 -0.004,0.043 v -0.016 l -0.019,-0.019 0.05,-0.016 h 0.039 l -0.066,-0.035 -0.016,-0.039 -0.023,0.016 -0.043,-0.028 v -0.008 l -0.012,-0.007 -0.066,-0.004 -0.02,-0.028 -0.023,-0.015 -0.024,-0.024 -0.062,-0.043 -0.07,-0.035 -0.032,-0.055 -0.011,-0.039 -0.02,-0.054 -0.043,-0.043 -0.043,-0.035 -0.14,-0.032 -0.086,-0.047 0.027,-0.031 -0.043,-0.043 -0.078,-0.031 -0.059,-0.039 -0.074,-0.031 0.012,-0.032 -0.008,-0.019 -0.082,-0.016 -0.051,-0.027 h -0.043 l -0.047,0.004 -0.195,-0.004 -0.16,0.004 0.066,-0.004 -0.015,0.008 -0.012,-0.008 v 0.008 l 0.082,-0.012 0.109,-0.008 -0.062,-0.015 -0.074,-0.004 -0.024,0.011 -0.012,0.008 h 0.032 l 0.019,-0.015 -0.035,0.023 -0.023,0.023 -0.008,0.004 -0.004,0.012 h 0.035 l -0.016,0.004 h -0.039 l -0.007,0.008 -0.008,0.019 -0.004,-0.004 0.004,0.008 0.074,0.012 0.066,0.004 -0.05,0.012" style="fill:none;stroke:#000000;stroke-width:2.50056;stroke-linecap:round;stroke-linejoin:round;stroke-miterlimit:10;stroke-dasharray:none;stroke-opacity:1" id="path370" />
         </g>
      </g>
   </g>
</svg>
