<?xml version="1.0" encoding="UTF-8" standalone="no"?>
<!-- Created by Ashley Blewer - This work is licensed under a Creative Commons Attribution 4.0 International License -->

<svg width="544" height="480" viewBox="0 0 143.93334 127" version="1.1" id="svg2490" inkscape:version="1.1.2 (08b2f3d93c, 2022-04-05)" sodipodi:docname="1971-umatic-4.svg"
   xmlns:inkscape="http://www.inkscape.org/namespaces/inkscape"
   xmlns:sodipodi="http://sodipodi.sourceforge.net/DTD/sodipodi-0.dtd"
   xmlns="http://www.w3.org/2000/svg"
   xmlns:svg="http://www.w3.org/2000/svg">
   <sodipodi:namedview id="namedview2492" pagecolor="#ffffff" bordercolor="#666666" borderopacity="1.0" inkscape:pageshadow="2" inkscape:pageopacity="0.0" inkscape:pagecheckerboard="0" inkscape:document-units="mm" showgrid="false" units="px" inkscape:zoom="0.90583674" inkscape:cx="272.67607" inkscape:cy="177.18425" inkscape:window-width="1848" inkscape:window-height="1136" inkscape:window-x="72" inkscape:window-y="27" inkscape:window-maximized="1" inkscape:current-layer="layer1" />
   <defs id="defs2487" />
   <g inkscape:label="Layer 1" inkscape:groupmode="layer" id="layer1">
      <g id="g2215" transform="matrix(0.65365875,0,0,0.65365875,-256.32059,-333.349)">
         <g id="g404" transform="matrix(1.045645,0,0,-1.0461885,0.27058638,-40.585128)" style="stroke-width:0.956099">
            <path d="m 448.82,-671.539 -12.168,117.988 c -1.496,1.375 -8.621,7.086 -7.23,2.645 4.09,-37.442 4.535,-75.332 9.16,-111.703 2.977,-3.317 6.293,-6.661 10.043,-8.914 l 0.098,-0.012 0.097,-0.004" style="fill:none;stroke:#000000;stroke-width:2.50056;stroke-linecap:round;stroke-linejoin:round;stroke-miterlimit:10;stroke-dasharray:none;stroke-opacity:1" id="path406" />
         </g>
         <g id="g408" transform="matrix(1.045645,0,0,-1.0461885,0.27058638,-40.585128)" style="stroke-width:0.956099">
            <path d="m 434.051,-588.547 c 1.406,-1.683 3.043,-3.223 4.98,-4.281" style="fill:none;stroke:#000000;stroke-width:2.50056;stroke-linecap:round;stroke-linejoin:round;stroke-miterlimit:10;stroke-dasharray:none;stroke-opacity:1" id="path410" />
         </g>
         <g id="g412" transform="matrix(1.045645,0,0,-1.0461885,0.27058638,-40.585128)" style="stroke-width:0.956099">
            <path d="m 435.457,-633.219 c 2.84,-1.019 4.656,-3.691 7.309,-5.035" style="fill:none;stroke:#000000;stroke-width:2.50056;stroke-linecap:round;stroke-linejoin:round;stroke-miterlimit:10;stroke-dasharray:none;stroke-opacity:1" id="path414" />
         </g>
         <g id="g416" transform="matrix(1.045645,0,0,-1.0461885,0.27058638,-40.585128)" style="stroke-width:0.956099">
            <path d="m 444.254,-637.82 70.551,18.297" style="fill:none;stroke:#000000;stroke-width:2.50056;stroke-linecap:round;stroke-linejoin:round;stroke-miterlimit:10;stroke-dasharray:none;stroke-opacity:1" id="path418" />
         </g>
         <g id="g420" transform="matrix(1.045645,0,0,-1.0461885,0.27058638,-40.585128)" style="stroke-width:0.956099">
            <path d="m 442.348,-592.355 73.949,16.195 0.484,-0.262 0.301,-0.168" style="fill:none;stroke:#000000;stroke-width:2.50056;stroke-linecap:round;stroke-linejoin:round;stroke-miterlimit:10;stroke-dasharray:none;stroke-opacity:1" id="path422" />
         </g>
         <g id="g424" transform="matrix(1.045645,0,0,-1.0461885,0.27058638,-40.585128)" style="stroke-width:0.956099">
            <path d="m 429.387,-548.234 57.984,9.492 c 0,0 13.93,2.269 16.047,-2.254" style="fill:none;stroke:#000000;stroke-width:2.50056;stroke-linecap:round;stroke-linejoin:round;stroke-miterlimit:10;stroke-dasharray:none;stroke-opacity:1" id="path426" />
         </g>
         <g id="g428" transform="matrix(1.045645,0,0,-1.0461885,0.27058638,-40.585128)" style="stroke-width:0.956099">
            <path d="m 436.652,-553.551 77.633,12.703 c 0.746,0.344 1.656,0.024 1.977,-0.668" style="fill:none;stroke:#000000;stroke-width:2.50056;stroke-linecap:round;stroke-linejoin:round;stroke-miterlimit:10;stroke-dasharray:none;stroke-opacity:1" id="path430" />
         </g>
         <g id="g432" transform="matrix(1.045645,0,0,-1.0461885,0.27058638,-40.585128)" style="stroke-width:0.956099">
            <path d="m 516.461,-541.027 c 3.984,-2.762 1.121,-9.043 0.953,-13.215 l -3.324,-93.645" style="fill:none;stroke:#000000;stroke-width:2.50056;stroke-linecap:round;stroke-linejoin:round;stroke-miterlimit:10;stroke-dasharray:none;stroke-opacity:1" id="path434" />
         </g>
         <g id="g436" transform="matrix(1.045645,0,0,-1.0461885,0.27058638,-40.585128)" style="stroke-width:0.956099">
            <path d="m 450.488,-671.016 63.602,23.129" style="fill:none;stroke:#000000;stroke-width:2.50056;stroke-linecap:round;stroke-linejoin:round;stroke-miterlimit:10;stroke-dasharray:none;stroke-opacity:1" id="path438" />
         </g>
         <g id="g440" transform="matrix(1.045645,0,0,-1.0461885,0.27058638,-40.585128)" style="stroke-width:0.956099">
            <path d="m 440.316,-683.277 109,1.023" style="fill:none;stroke:#000000;stroke-width:2.50056;stroke-linecap:round;stroke-linejoin:round;stroke-miterlimit:10;stroke-dasharray:none;stroke-opacity:1" id="path442" />
         </g>
         <g id="g444" transform="matrix(1.045645,0,0,-1.0461885,0.27058638,-40.585128)" style="stroke-width:0.956099">
            <path d="m 514.172,-645.145 24.519,-0.246 c -0.105,-0.218 -0.074,-0.48 -0.156,-0.711" style="fill:none;stroke:#000000;stroke-width:2.50056;stroke-linecap:round;stroke-linejoin:round;stroke-miterlimit:10;stroke-dasharray:none;stroke-opacity:1" id="path446" />
         </g>
         <g id="g448" transform="matrix(1.045645,0,0,-1.0461885,0.27058638,-40.585128)" style="stroke-width:0.956099">
            <path d="m 538.535,-646.102 10.781,-36.152" style="fill:none;stroke:#000000;stroke-width:2.50056;stroke-linecap:round;stroke-linejoin:round;stroke-miterlimit:10;stroke-dasharray:none;stroke-opacity:1" id="path450" />
         </g>
         <g id="g452" transform="matrix(1.045645,0,0,-1.0461885,0.27058638,-40.585128)" style="stroke-width:0.956099">
            <path d="m 549.492,-683.48 v 0.011 l 0.004,0.028 0.004,0.015 0.008,0.008 0.023,0.012 0.012,0.023 -0.012,0.004 v 0.008" style="fill:none;stroke:#000000;stroke-width:2.50056;stroke-linecap:round;stroke-linejoin:round;stroke-miterlimit:10;stroke-dasharray:none;stroke-opacity:1" id="path454" />
         </g>
         <g id="g456" transform="matrix(1.045645,0,0,-1.0461885,0.27058638,-40.585128)" style="stroke-width:0.956099">
            <path d="m 549.488,-683.41 0.012,-0.004 0.027,-0.008 0.09,0.004 0.039,0.008 0.024,0.015" style="fill:none;stroke:#000000;stroke-width:2.50056;stroke-linecap:round;stroke-linejoin:round;stroke-miterlimit:10;stroke-dasharray:none;stroke-opacity:1" id="path458" />
         </g>
         <g id="g460" transform="matrix(1.045645,0,0,-1.0461885,0.27058638,-40.585128)" style="stroke-width:0.956099">
            <path d="m 549.625,-683.91 -2.023,-13.645 -105.645,-0.039 -1.641,14.317 c 1.739,3.726 1.754,11.965 4.125,14.652" style="fill:none;stroke:#000000;stroke-width:2.50056;stroke-linecap:round;stroke-linejoin:round;stroke-miterlimit:10;stroke-dasharray:none;stroke-opacity:1" id="path462" />
         </g>
         <g id="g464" transform="matrix(1.045645,0,0,-1.0461885,0.27058638,-40.585128)" style="stroke-width:0.956099">
            <path d="m 475.793,-662.895 63.57,-0.015 c -0.121,0.015 0.535,-0.203 0.25,-0.25 l 0.274,-11.383 -84.203,0.977 c 0.203,-0.028 -0.032,0.058 0.023,-0.008 0.008,0.074 -0.039,-0.031 0.004,0.066 -0.395,1.117 0.109,2.121 0.516,2.629 0.105,0.09 0.246,0.078 0.351,0.164" style="fill:none;stroke:#000000;stroke-width:2.50056;stroke-linecap:round;stroke-linejoin:round;stroke-miterlimit:10;stroke-dasharray:none;stroke-opacity:1" id="path466" />
         </g>
         <g id="g468" transform="matrix(1.045645,0,0,-1.0461885,0.27058638,-40.585128)" style="stroke-width:0.956099">
            <path d="m 510.949,-664.188 c -1.504,-1.363 -3.879,-5.5 -1.492,-7.953 0.223,-1.168 2.215,-2.66 2.672,-1.554" style="fill:none;stroke:#000000;stroke-width:2.50056;stroke-linecap:round;stroke-linejoin:round;stroke-miterlimit:10;stroke-dasharray:none;stroke-opacity:1" id="path470" />
         </g>
         <g id="g472" transform="matrix(1.045645,0,0,-1.0461885,0.27058638,-40.585128)" style="stroke-width:0.956099">
            <path d="m 525.582,-663.504 c 1.711,-1.644 4.473,-2.695 4.266,-5.914 -0.11,-1.031 1.043,-4.574 -0.844,-4.242" style="fill:none;stroke:#000000;stroke-width:2.50056;stroke-linecap:round;stroke-linejoin:round;stroke-miterlimit:10;stroke-dasharray:none;stroke-opacity:1" id="path474" />
         </g>
         <g id="g476" transform="matrix(1.045645,0,0,-1.0461885,0.27058638,-40.585128)" style="stroke-width:0.956099">
            <path d="m 477.234,-664.715 c 2.852,-0.062 3.844,-5.539 2.27,-7.851 -0.352,-1.184 -0.211,-0.551 -0.141,0.156" style="fill:none;stroke:#000000;stroke-width:2.50056;stroke-linecap:round;stroke-linejoin:round;stroke-miterlimit:10;stroke-dasharray:none;stroke-opacity:1" id="path478" />
         </g>
         <g id="g480" transform="matrix(1.045645,0,0,-1.0461885,0.27058638,-40.585128)" style="stroke-width:0.956099">
            <path d="m 464.234,-667.059 c -2.257,0.082 -1.718,-4.148 0.016,-4.324" style="fill:none;stroke:#000000;stroke-width:2.50056;stroke-linecap:round;stroke-linejoin:round;stroke-miterlimit:10;stroke-dasharray:none;stroke-opacity:1" id="path482" />
         </g>
         <g id="g484" transform="matrix(1.045645,0,0,-1.0461885,0.27058638,-40.585128)" style="stroke-width:0.956099">
            <path d="m 489.051,-697.113 -0.008,-0.004 -0.02,0.019 -0.046,0.067 -0.094,0.074 0.004,0.078 0.043,0.078 -0.012,0.102 0.004,0.078 v 0.066 l 0.027,0.063 0.02,0.078 0.019,0.074 0.024,0.188 0.004,0.043 0.011,0.043 0.008,0.046 0.004,0.02 0.004,0.031 -0.008,0.039 -0.004,0.024 -0.004,0.031 -0.004,0.047 -0.023,0.062 -0.004,0.047 -0.027,0.059 -0.02,0.082 -0.019,0.07 -0.012,0.063 -0.02,0.054 -0.027,0.059 -0.012,0.055 -0.027,0.07 -0.012,0.07 0.016,0.075 -0.004,0.097 -0.016,0.086 -0.007,0.09 -0.032,0.09 -0.011,0.101 -0.008,0.106 -0.016,0.113 0.008,0.082 -0.012,0.113 -0.004,0.114 v 0.09 l 0.004,0.085 -0.058,0.227 0.011,0.121 -0.023,0.133 0.012,0.117 -0.012,0.106 -0.043,0.089 -0.004,0.102 -0.004,0.121 -0.035,0.109 v 0.122 l 0.012,0.113 -0.012,0.125 -0.043,0.125 -0.039,0.125 0.016,0.113 v 0.27 l 0.007,0.109 0.004,0.106 0.004,0.121 0.004,0.113 -0.012,0.109 v 0.168 l -0.019,0.094 -0.035,0.082 -0.012,0.078 -0.008,0.074 -0.027,0.071 -0.02,0.082 -0.019,0.09 -0.008,0.082 -0.016,0.086 -0.027,0.082 -0.031,0.07 -0.008,0.082 -0.027,0.094 -0.028,0.074 -0.039,0.074 -0.031,0.156 -0.02,0.059 -0.015,0.055 -0.004,0.082 0.035,0.062 0.008,0.059 -0.031,0.051 -0.008,0.042 0.019,0.047 0.004,0.043 -0.008,0.043 v 0.047 l 0.016,0.031 0.004,0.039 0.016,0.043 0.027,0.032 0.016,0.031 -0.004,0.023 0.062,0.063 0.024,0.055 0.066,0.066 0.004,0.019 0.012,0.008 0.019,0.012 0.008,0.016 0.027,0.023 0.008,0.016 v 0.008 l 0.012,0.011 0.039,0.024 0.023,0.019 h 0.024 l 0.027,0.004 0.024,0.016 h 0.066 l 0.043,0.015 0.051,0.004 h 0.027 l 0.039,-0.011 0.047,0.007 0.023,-0.027 0.043,-0.008 0.036,0.02 0.066,-0.012 h 0.07 l 0.055,-0.004 h 0.434 l 0.117,0.004 0.109,0.016 0.113,-0.008 0.129,-0.016 0.305,-0.008 0.133,0.012 0.129,0.004 0.144,0.004 0.137,0.019 0.16,0.008 0.125,0.024 0.137,0.011 0.168,0.004 0.16,0.008 0.125,0.02 0.109,0.023 h 0.133 l 0.09,0.004 0.109,0.016 0.18,0.004 0.16,0.023 0.168,0.02 0.164,-0.008 h 0.36 l 0.179,-0.004 h 0.157 l 0.175,-0.004 0.196,0.012 h 0.168 l 0.168,-0.012 0.175,-0.008 0.184,-0.019 0.184,-0.012 0.191,-0.008 0.184,-0.02 0.191,-0.011 0.203,-0.008 0.344,-0.008 0.183,-0.004 h 0.778 l 0.183,0.02 0.18,-0.008 h 0.211 l 0.211,0.031 0.203,0.031 0.207,0.028 0.184,0.019 0.172,0.028 0.179,0.015 0.18,0.012 0.18,0.023 0.144,0.032 0.133,0.027 0.133,0.043 0.16,0.035 0.156,0.016 0.16,0.027 0.141,0.031 0.141,0.028 0.164,0.027 0.148,0.043 0.145,0.031 0.152,0.016 0.16,0.023 0.149,0.024 0.156,0.012 0.16,0.019 0.148,0.004 0.325,0.031 0.152,0.004 0.168,0.016 0.176,0.004 0.191,0.015 h 0.488 l 0.176,0.012 h 0.16 l 0.141,-0.016 0.125,-0.004 0.125,0.008 h 0.125 l 0.168,-0.004 h 0.281 l 0.102,-0.015 0.109,-0.008 0.098,0.012 h 0.113 l 0.117,0.004 h 0.188 l 0.09,0.003 0.078,-0.027 0.074,-0.027 0.098,-0.012 0.089,-0.027 0.09,-0.039 0.082,-0.036 0.078,-0.003 0.047,-0.028 0.059,-0.023 0.066,-0.012 0.039,-0.023 0.059,-0.024 0.059,-0.027 0.046,-0.027 0.012,-0.012 0.031,-0.02 0.032,-0.008 0.062,0.012 0.039,-0.015 0.043,-0.016 0.031,-0.016 0.024,-0.004 0.039,-0.004 -0.004,0.02 0.004,-0.004 0.023,-0.016 0.028,-0.019 v -0.012 l 0.015,0.004 0.016,0.008 v -0.016 l 0.008,0.004 0.015,-0.008 0.028,-0.003 0.031,-0.004 h 0.039 l 0.035,-0.036 0.016,-0.007 0.027,-0.008 0.047,-0.02 0.02,-0.015 0.015,-0.004 0.016,-0.024 0.086,-0.027 0.035,-0.031 v -0.024 l 0.004,-0.047 0.023,-0.039 0.02,-0.007 0.008,-0.032 0.023,-0.031 0.031,-0.039 0.024,-0.016 0.015,-0.043 0.008,-0.046 0.047,-0.047 0.02,-0.071 0.019,-0.039 0.004,-0.015 v -0.02 l 0.012,-0.004 0.004,-0.015 h -0.012 l -0.008,-0.016 0.004,-0.004 v -0.012 h -0.039 l -0.008,-0.004 h 0.008 l 0.004,0.004 0.004,-0.019 0.004,0.004 0.019,-0.008 0.008,-0.008 0.004,-0.016 0.023,-0.019 0.012,-0.035 0.004,-0.035 0.039,-0.063 0.035,-0.058 0.035,-0.055 0.016,-0.055 0.012,-0.047 0.027,-0.07 0.07,-0.063 0.059,-0.074 0.035,-0.082 0.07,-0.066 0.086,-0.133 0.055,-0.063 0.039,-0.058 0.047,-0.043 0.055,-0.035 0.039,-0.047 0.031,-0.059 0.059,-0.05 0.109,-0.036 0.07,-0.054 0.004,-0.028 0.039,-0.05 0.043,-0.047 0.039,-0.016 0.012,-0.016 0.043,-0.011 0.043,-0.016 0.012,-0.019 0.027,-0.016 0.012,-0.012 0.011,-0.015 v -0.016 l 0.008,-0.02 -0.004,-0.003 0.012,-0.02 -0.004,-0.031 -0.004,-0.028 0.012,-0.027 -0.004,-0.027 -0.016,-0.028 0.004,-0.031 v -0.039 l -0.011,-0.078 -0.024,-0.055 -0.015,-0.062 0.019,-0.074 0.004,-0.059 v -0.063 l -0.008,-0.085 -0.004,-0.079 -0.004,-0.082 v -0.187 l -0.015,-0.098 -0.016,-0.109 -0.008,-0.117 -0.023,-0.114 -0.004,-0.105 -0.02,-0.109 -0.027,-0.129 -0.043,-0.121 -0.047,-0.118 -0.008,-0.117 -0.015,-0.129 -0.039,-0.133 -0.028,-0.14 -0.031,-0.121 -0.031,-0.102 -0.012,-0.105 -0.027,-0.094 -0.008,-0.086 -0.039,-0.047 -0.027,-0.058 -0.012,-0.086 -0.004,-0.079 0.047,-0.058 v -0.063 l -0.035,-0.062 -0.004,-0.067 -0.004,-0.062 v -0.055 l 0.012,-0.222 -0.012,-0.086 v -0.114 l 0.004,-0.109 v -0.098 l -0.024,-0.089 -0.011,-0.118 0.011,-0.129 -0.019,-0.109 -0.016,-0.113 -0.027,-0.114 -0.008,-0.128 -0.008,-0.125 -0.027,-0.118 -0.008,-0.117 -0.023,-0.113 -0.039,-0.125 -0.032,-0.109 -0.05,-0.102 -0.036,-0.109 -0.011,-0.11 -0.02,-0.105 -0.035,-0.106 -0.008,-0.093 -0.035,-0.09 -0.035,-0.117 -0.043,-0.09 -0.035,-0.086 -0.016,-0.078 -0.051,-0.075 -0.07,-0.089 0.004,-0.067 -0.008,-0.055 -0.051,-0.035 -0.031,-0.043 -0.039,-0.031 -0.039,-0.039 0.004,-0.027 -0.004,-0.016 -0.016,-0.016 -0.019,-0.027 -0.004,-0.016 v 0.004 l 0.004,0.02 0.004,0.016 0.023,0.003 v 0.012 h 0.016 l 0.008,-0.004 h 0.011 l 0.004,0.004 0.004,0.008 h 0.004 l 0.004,0.004 v 0.019 l -0.004,0.012 -0.004,-0.012 -0.004,0.008 -0.039,-0.012 -0.008,-0.039 0.032,0.016 -0.008,0.027 0.004,-0.011 v -0.016 l 0.015,-0.004 0.016,-0.008 -0.016,-0.004 -0.004,-0.011 v 0.011 l -0.007,-0.007 0.019,0.011 0.035,0.02 0.063,0.023 0.043,0.051 0.07,0.059" style="fill:none;stroke:#000000;stroke-width:2.50056;stroke-linecap:round;stroke-linejoin:round;stroke-miterlimit:10;stroke-dasharray:none;stroke-opacity:1" id="path486" />
         </g>
         <g id="g488" transform="matrix(1.045645,0,0,-1.0461885,0.27058638,-40.585128)" style="stroke-width:0.956099">
            <path d="m 539.254,-689.938 -0.012,0.004 -0.031,-0.015 0.008,-0.02 -0.004,-0.015 v -0.039 l -0.012,0.007 -0.008,-0.019 -0.015,-0.004 -0.012,-0.035 0.008,-0.02 v -0.011 l 0.004,-0.008 v -0.012 l 0.004,-0.004 0.019,-0.004 0.008,-0.012 0.031,-0.003 0.008,-0.016 0.004,-0.004 0.027,-0.004 0.008,-0.008 0.004,-0.027 -0.004,-0.02 v -0.007 l -0.004,-0.016 0.012,-0.012 0.035,-0.008 0.012,-0.011 h 0.031 l 0.004,0.008 0.008,0.003 0.023,0.02 0.004,0.008 0.004,0.004 0.012,-0.008 0.031,0.027 0.004,0.004 h 0.004 v 0.008 l -0.004,0.004 v 0.027 l 0.008,0.012 0.027,0.016 -0.004,0.011 0.031,0.043 0.012,0.039 -0.008,0.047 0.012,0.035 0.004,0.039 0.008,0.032 -0.012,0.035 0.008,0.047 0.023,0.039 0.028,0.031 0.039,0.027 0.027,0.047 0.008,0.086 0.023,0.051 0.008,0.043 0.004,0.031 v 0.027 l 0.012,0.028 0.039,0.047 0.023,0.023 0.004,0.031 v 0.016 l -0.004,0.004 -0.004,-0.016 -0.019,-0.027 -0.008,-0.023 0.004,-0.032 -0.008,-0.023 -0.008,-0.039 -0.008,-0.028 -0.007,-0.035 0.019,-0.043 0.016,-0.023 0.027,-0.016 0.008,-0.027 0.008,-0.012 -0.004,-0.015 v -0.016 l -0.004,-0.012 -0.004,-0.019 0.035,-0.024 0.004,-0.023 0.031,-0.008 0.008,-0.016 0.004,-0.023 0.004,-0.031 0.004,-0.028 v -0.035 l 0.019,-0.008 0.004,-0.007 0.004,-0.004 -0.019,0.023 0.007,0.024 v 0.015 l 0.043,0.035 -0.019,0.016 -0.031,0.012 0.019,0.039 0.012,0.031 v 0.023 l 0.027,0.039 0.008,0.051 0.008,0.039 0.023,0.032 0.024,0.05 0.015,0.055 0.02,0.059 0.031,0.058 0.012,0.074 0.039,0.079 0.035,0.086 0.016,0.078 0.027,0.078 v 0.086 l 0.012,0.09 0.047,0.171 0.027,0.071 0.008,0.078 0.027,0.051 0.004,0.058 0.016,0.035 0.011,0.028 0.004,0.011 0.012,-0.003 0.016,-0.024 0.027,-0.039 v -0.023 l 0.004,-0.028 0.004,-0.039 v -0.043 l -0.004,-0.035 v -0.043 l -0.004,-0.043 0.012,-0.043 v -0.043 l 0.019,-0.043 0.004,-0.039 v -0.211 l 0.012,-0.058 0.004,-0.071 0.035,-0.066 0.012,-0.063 0.015,-0.058 -0.015,-0.11 0.019,-0.05 0.004,-0.055 0.012,-0.055 0.008,-0.023 0.007,-0.031 v -0.063 l 0.004,-0.023 -0.004,-0.024 0.016,-0.004 v -0.011 l 0.004,-0.016 -0.008,0.004 -0.008,0.015 -0.019,0.016 -0.008,0.016 v 0.047 l 0.004,0.011 0.008,0.016 0.004,0.02 h 0.015 l -0.004,0.031 -0.004,-0.004 -0.007,0.019 0.015,0.016 0.004,0.031 0.004,0.008 -0.008,0.02 -0.004,0.019 -0.011,0.012 -0.004,0.039 0.004,0.023 0.011,0.043 0.004,0.016 0.012,0.082 -0.012,0.016 -0.031,-0.016 v -0.004 l -0.008,0.004 0.012,-0.004 v -0.008 l 0.004,-0.008 h -0.004 v 0.004 h 0.004 v 0.016 l 0.015,-0.012 0.004,0.012 0.008,-0.008 0.004,-0.012 -0.008,0.004 -0.015,0.004 -0.008,0.012 h -0.008 l -0.004,-0.004 -0.016,0.004 -0.05,0.008 -0.02,0.008" style="fill:none;stroke:#000000;stroke-width:2.50056;stroke-linecap:round;stroke-linejoin:round;stroke-miterlimit:10;stroke-dasharray:none;stroke-opacity:1" id="path490" />
         </g>
         <g id="g492" transform="matrix(1.045645,0,0,-1.0461885,0.27058638,-40.585128)" style="stroke-width:0.956099">
            <path d="m 452.211,-688.805 v -0.011 l -0.008,-0.032 -0.039,-0.031 0.016,-0.023 -0.004,-0.032 -0.004,-0.023 v 0.012 l 0.019,0.035 0.004,0.058 0.004,0.055 v 0.067 l -0.023,0.035 v 0.058 l 0.019,0.078 0.032,0.055 0.015,0.059 -0.004,0.054 0.004,0.063 -0.023,0.051 v 0.019 l -0.024,0.043 -0.015,0.047 0.019,0.027 0.004,0.036 v 0.027 l 0.004,0.019 v 0.008 h 0.004 l 0.008,-0.004 v -0.023 l -0.004,-0.024 0.027,-0.019 0.004,-0.02 0.004,-0.035 v -0.023 l -0.008,-0.024 -0.023,-0.023 -0.008,-0.031 -0.008,-0.028 -0.012,-0.039 -0.007,-0.039 -0.008,-0.019 -0.008,-0.012 v -0.059 l -0.043,-0.043 -0.016,-0.058 0.016,-0.051 v -0.152 l -0.008,-0.067 0.008,-0.09 0.004,-0.089 0.004,-0.094 -0.02,-0.074 -0.011,-0.071 0.023,-0.066 0.008,-0.063 0.004,-0.062 0.011,-0.055 -0.015,-0.047 v -0.035 l -0.004,-0.039 v -0.043 l 0.019,-0.062 -0.027,-0.047 -0.008,-0.051 -0.004,-0.043 -0.023,-0.059 -0.004,-0.046 -0.008,0.003 0.063,-0.003 0.043,0.011 -0.024,0.016 -0.039,0.031 -0.023,0.027 -0.008,0.047 -0.016,0.024 -0.027,0.031 0.008,0.027 v 0.157 l 0.004,0.043 v 0.043 l -0.024,0.109 -0.008,0.074 -0.011,0.094 -0.028,0.101 0.004,0.098 -0.011,0.109 -0.016,0.102 -0.004,0.121 -0.023,0.125 0.015,0.078 -0.031,0.086 -0.008,0.082 0.008,0.071 v 0.062 l 0.004,0.039 -0.008,0.027 -0.023,0.02 -0.004,0.031 0.031,0.012 h 0.004 l 0.019,-0.031 0.004,-0.004 0.004,0.008 0.004,-0.008 0.02,-0.008 0.039,-0.004 -0.024,0.012 v 0.043 L 452,-688.09 v -0.012 l -0.004,0.028 -0.004,0.004 0.004,-0.012 -0.023,-0.008 h -0.008 l -0.004,-0.008 0.016,-0.023 0.007,-0.016 0.059,-0.011 0.027,-0.008 -0.023,-0.004 h -0.004 l -0.016,-0.016 -0.027,-0.019 0.008,-0.012 0.008,-0.02 -0.016,-0.007 v 0.011 l -0.004,0.02 -0.004,0.008 -0.004,-0.004 v -0.02 l 0.012,-0.031 0.004,-0.035 0.004,-0.024 0.023,-0.015 0.012,-0.016 0.004,-0.015 -0.004,-0.008 0.004,-0.004 0.004,0.012 v 0.015 l 0.015,-0.004 h -0.023 l 0.016,-0.015 v -0.032 l 0.019,-0.027 0.004,-0.008 -0.012,-0.019 -0.004,-0.012 0.008,-0.016 0.004,-0.027 v -0.02 l 0.004,-0.003 v -0.004 l 0.008,-0.016 0.027,-0.019 -0.004,0.007 h 0.008 l 0.016,0.032 0.015,0.007 -0.004,0.016 v 0.008 l -0.011,0.012 -0.008,-0.008 0.031,0.015 0.024,0.032 0.007,0.027 0.004,0.008 0.02,0.008 0.008,0.015 0.019,0.024 0.008,0.004 0.016,0.023 0.011,0.023 v 0.012 l 0.004,0.004 h 0.004 l -0.008,-0.004 -0.011,0.008 h -0.008 v -0.016 l -0.008,-0.019 v -0.02 l -0.004,-0.035 -0.004,-0.031 -0.004,-0.012 0.016,-0.012 0.008,-0.027 -0.008,-0.012 -0.016,-0.039 0.012,-0.011 v -0.032 l -0.027,-0.023 0.004,-0.047 0.015,-0.055 0.016,-0.09 0.015,-0.093 0.008,-0.106 0.008,-0.109 0.004,-0.121 v -0.125 l 0.023,-0.129 0.02,-0.113 0.008,-0.106 -0.008,-0.086 v -0.09 l 0.016,-0.086 v -0.07 l 0.023,-0.078 0.016,-0.059 0.027,-0.043 0.043,-0.027 0.012,-0.019 -0.012,-0.008 0.016,0.004 v 0.015 l -0.028,0.008 v 0.004 l 0.012,0.012 v 0.015 l -0.004,0.028 -0.004,0.035 -0.004,0.027 v 0.031 l 0.02,-0.011 -0.016,-0.016 v 0.027 l 0.004,0.016 0.004,0.027 v 0.02 -0.004 l 0.004,0.004 -0.008,0.019 -0.012,-0.019 -0.066,-0.012 -0.027,-0.031 0.054,-0.008 0.008,-0.015 0.004,-0.02 0.004,0.004 0.035,-0.004 0.004,-0.008 h -0.027 l 0.015,-0.019 0.004,-0.016 v -0.02 l 0.004,0.008 v 0.008 l 0.004,-0.004 0.012,-0.015 0.027,-0.024 0.031,-0.035 0.059,-0.016 0.078,-0.031 0.059,-0.016" style="fill:none;stroke:#000000;stroke-width:2.50056;stroke-linecap:round;stroke-linejoin:round;stroke-miterlimit:10;stroke-dasharray:none;stroke-opacity:1" id="path494" />
         </g>
      </g>
   </g>
</svg>
