<?xml version="1.0" encoding="UTF-8" standalone="no"?>
<!-- Created by Ashley Blewer - This work is licensed under a Creative Commons Attribution 4.0 International License -->

<svg width="544" height="480" viewBox="0 0 143.93334 127" version="1.1" id="svg2490" inkscape:version="1.1.2 (08b2f3d93c, 2022-04-05)" sodipodi:docname="1972-vcr-2.svg"
   xmlns:inkscape="http://www.inkscape.org/namespaces/inkscape"
   xmlns:sodipodi="http://sodipodi.sourceforge.net/DTD/sodipodi-0.dtd"
   xmlns="http://www.w3.org/2000/svg"
   xmlns:svg="http://www.w3.org/2000/svg">
   <sodipodi:namedview id="namedview2492" pagecolor="#ffffff" bordercolor="#666666" borderopacity="1.0" inkscape:pageshadow="2" inkscape:pageopacity="0.0" inkscape:pagecheckerboard="0" inkscape:document-units="mm" showgrid="false" units="px" inkscape:zoom="0.90583674" inkscape:cx="272.67607" inkscape:cy="177.18425" inkscape:window-width="1848" inkscape:window-height="1136" inkscape:window-x="72" inkscape:window-y="27" inkscape:window-maximized="1" inkscape:current-layer="layer1" />
   <defs id="defs2487" />
   <g inkscape:label="Layer 1" inkscape:groupmode="layer" id="layer1">
      <g id="g39007" transform="matrix(0.36523933,0,0,0.36522938,-303.84524,-24.953541)" style="stroke-width:0.965894">
         <g id="g38866" transform="matrix(0.87815076,0,0,0.87823614,145.13667,44.66154)" style="stroke-width:1.09986">
            <g id="g62" transform="matrix(1,0,0,-1,0,792)" style="stroke-width:1.09986">
               <g id="g64" style="stroke-width:1.09986">
                  <path d="m 852.74744,708.23969 c 1.99626,8.16436 -2.26751,16.46457 -5e-4,24.60268" style="fill:none;stroke:#000000;stroke-width:2.87657;stroke-linecap:round;stroke-linejoin:round;stroke-miterlimit:10;stroke-dasharray:none;stroke-opacity:1" id="path66" />
               </g>
            </g>
            <g id="g68" transform="matrix(1,0,0,-1,0,792)" style="stroke-width:1.09986">
               <g id="g70" style="stroke-width:1.09986">
                  <path d="m 851.90265,733.32477 c 0,0 186.01405,2.01746 278.99415,3.98811 12.8525,-0.73712 26.5857,-0.0631 38.8396,-4.40675" style="fill:none;stroke:#000000;stroke-width:2.87657;stroke-linecap:round;stroke-linejoin:round;stroke-miterlimit:10;stroke-dasharray:none;stroke-opacity:1" id="path72" sodipodi:nodetypes="ccc" />
               </g>
            </g>
            <g id="g74" transform="matrix(1,0,0,-1,0,792)" style="stroke-width:1.09986">
               <g id="g76" style="stroke-width:1.09986">
                  <path d="m 1169.7855,732.79077 c 5.2891,-6.78726 4.2616,-15.93965 3.3851,-23.90962" style="fill:none;stroke:#000000;stroke-width:2.87657;stroke-linecap:round;stroke-linejoin:round;stroke-miterlimit:10;stroke-dasharray:none;stroke-opacity:1" id="path78" />
               </g>
            </g>
            <g id="g80" transform="matrix(1,0,0,-1,0,792)" style="stroke-width:1.09986">
               <g id="g82" style="stroke-width:1.09986">
                  <path d="m 1168.162,722.86694 c 2.8661,-4.45289 0.309,-10.87124 4.5721,-14.60498" style="fill:none;stroke:#000000;stroke-width:2.87657;stroke-linecap:round;stroke-linejoin:round;stroke-miterlimit:10;stroke-dasharray:none;stroke-opacity:1" id="path84" />
               </g>
            </g>
            <g id="g86" transform="matrix(1,0,0,-1,0,792)" style="stroke-width:1.09986">
               <g id="g88" style="stroke-width:1.09986">
                  <path d="m 851.83936,737.17828 c 43.25514,4.83179 130.32661,4.77028 130.32661,4.77028 0,0 114.57453,0.93438 171.86043,1.55221 8.7996,-1.12228 18.0123,-6.41522 20.5302,-15.43859" style="fill:none;stroke:#000000;stroke-width:2.87657;stroke-linecap:round;stroke-linejoin:round;stroke-miterlimit:10;stroke-dasharray:none;stroke-opacity:1" id="path90" sodipodi:nodetypes="cccc" />
               </g>
            </g>
            <g id="g92" transform="matrix(1,0,0,-1,0,792)" style="stroke-width:1.09986">
               <g id="g94" style="stroke-width:1.09986">
                  <path d="m 850.24213,736.14398 -0.53472,-2.21132" style="fill:none;stroke:#000000;stroke-width:2.87657;stroke-linecap:round;stroke-linejoin:round;stroke-miterlimit:10;stroke-dasharray:none;stroke-opacity:1" id="path96" />
               </g>
            </g>
            <g id="g98" transform="matrix(1,0,0,-1,0,792)" style="stroke-width:1.09986">
               <g id="g100" style="stroke-width:1.09986">
                  <path d="m 854.67206,728.49176 c 0.0135,-9.90502 1.26,-19.74963 1.72692,-29.63335" style="fill:none;stroke:#000000;stroke-width:2.87657;stroke-linecap:round;stroke-linejoin:round;stroke-miterlimit:10;stroke-dasharray:none;stroke-opacity:1" id="path102" />
               </g>
            </g>
            <g id="g104" transform="matrix(1,0,0,-1,0,792)" style="stroke-width:1.09986">
               <g id="g106" style="stroke-width:1.09986">
                  <path d="m 852.71832,699.15997 c -0.61829,1.1943 1.39558,-0.1075 1.50458,0.53846" style="fill:none;stroke:#000000;stroke-width:2.87657;stroke-linecap:round;stroke-linejoin:round;stroke-miterlimit:10;stroke-dasharray:none;stroke-opacity:1" id="path108" />
               </g>
            </g>
            <g id="g110" transform="matrix(1,0,0,-1,0,792)" style="stroke-width:1.09986">
               <g id="g112" style="stroke-width:1.09986">
                  <path d="m 851.92444,697.77118 c 5.43434,-299.15572 5.43434,-299.15572 5.43434,-299.15572" style="fill:none;stroke:#000000;stroke-width:2.87657;stroke-linecap:round;stroke-linejoin:round;stroke-miterlimit:10;stroke-dasharray:none;stroke-opacity:1" id="path114" sodipodi:nodetypes="cc" />
               </g>
            </g>
            <g id="g116" transform="matrix(1,0,0,-1,0,792)" style="stroke-width:1.09986">
               <g id="g118" style="stroke-width:1.09986">
                  <path d="m 854.89459,698.49249 c 3.70222,-102.55031 4.68029,-205.17591 8.15745,-307.73278" style="fill:none;stroke:#000000;stroke-width:2.87657;stroke-linecap:round;stroke-linejoin:round;stroke-miterlimit:10;stroke-dasharray:none;stroke-opacity:1" id="path120" />
               </g>
            </g>
            <g id="g122" transform="matrix(1,0,0,-1,0,792)" style="stroke-width:1.09986">
               <g id="g124" style="stroke-width:1.09986">
                  <path d="m 857.18277,399.04016 c 2.04131,-5.15621 10.87638,-15.50191 16.60618,-11.13953" style="fill:none;stroke:#000000;stroke-width:2.87657;stroke-linecap:round;stroke-linejoin:round;stroke-miterlimit:10;stroke-dasharray:none;stroke-opacity:1" id="path126" sodipodi:nodetypes="cc" />
               </g>
            </g>
            <g id="g128" transform="matrix(1,0,0,-1,0,792)" style="stroke-width:1.09986">
               <g id="g130" style="stroke-width:1.09986">
                  <path d="m 874.22125,388.05119 258.30955,1.40343" style="fill:none;stroke:#000000;stroke-width:2.87657;stroke-linecap:round;stroke-linejoin:round;stroke-miterlimit:10;stroke-dasharray:none;stroke-opacity:1" id="path132" sodipodi:nodetypes="cc" />
               </g>
            </g>
            <g id="g134" transform="matrix(1,0,0,-1,0,792)" style="stroke-width:1.09986">
               <g id="g136" style="stroke-width:1.09986">
                  <path d="m 1132.5308,389.45462 c 11.5457,-0.79729 21.2146,0.1271 32.3621,4.05485" style="fill:none;stroke:#000000;stroke-width:2.87657;stroke-linecap:round;stroke-linejoin:round;stroke-miterlimit:10;stroke-dasharray:none;stroke-opacity:1" id="path138" sodipodi:nodetypes="cc" />
               </g>
            </g>
            <g id="g140" transform="matrix(1,0,0,-1,0,792)" style="stroke-width:1.09986">
               <g id="g142" style="stroke-width:1.09986">
                  <path d="m 1174.2556,725.4245 c 1.4226,-5.76146 -0.2321,-11.64542 -0.057,-17.46094" style="fill:none;stroke:#000000;stroke-width:2.87657;stroke-linecap:round;stroke-linejoin:round;stroke-miterlimit:10;stroke-dasharray:none;stroke-opacity:1" id="path144" />
               </g>
            </g>
            <g id="g146" transform="matrix(1,0,0,-1,0,792)" style="stroke-width:1.09986">
               <g id="g148" style="stroke-width:1.09986">
                  <path d="m 1173.0774,707.13574 c -0.5288,-0.11121 -2.6055,-0.65299 -2.4113,0.72748" style="fill:none;stroke:#000000;stroke-width:2.87657;stroke-linecap:round;stroke-linejoin:round;stroke-miterlimit:10;stroke-dasharray:none;stroke-opacity:1" id="path150" />
               </g>
            </g>
            <g id="g152" transform="matrix(1,0,0,-1,0,792)" style="stroke-width:1.09986">
               <g id="g154" style="stroke-width:1.09986">
                  <path d="m 1172.6993,719.92676 c 3.5372,-7.00972 -5.0751,-15.4935 1.1354,-21.72036" style="fill:none;stroke:#000000;stroke-width:2.87657;stroke-linecap:round;stroke-linejoin:round;stroke-miterlimit:10;stroke-dasharray:none;stroke-opacity:1" id="path156" />
               </g>
            </g>
            <g id="g158" transform="matrix(1,0,0,-1,0,792)" style="stroke-width:1.09986">
               <g id="g160" style="stroke-width:1.09986">
                  <path d="m 1174.9425,696.49847 -10.0496,-302.989" style="fill:none;stroke:#000000;stroke-width:2.87657;stroke-linecap:round;stroke-linejoin:round;stroke-miterlimit:10;stroke-dasharray:none;stroke-opacity:1" id="path162" sodipodi:nodetypes="cc" />
               </g>
            </g>
            <g id="g164" transform="matrix(1,0,0,-1,0,792)" style="stroke-width:1.09986">
               <g id="g166" style="stroke-width:1.09986">
                  <path d="m 1174.2433,577.64734 c 0.9322,-6.68551 1.2929,-13.85904 -1.7123,-20.112" style="fill:none;stroke:#000000;stroke-width:2.87657;stroke-linecap:round;stroke-linejoin:round;stroke-miterlimit:10;stroke-dasharray:none;stroke-opacity:1" id="path168" />
               </g>
            </g>
            <g id="g170" transform="matrix(1,0,0,-1,0,792)" style="stroke-width:1.09986">
               <g id="g172" style="stroke-width:1.09986">
                  <path d="m 1153.6574,620.23267 c -16.2935,-9.99969 9.2884,-16.72098 8.5418,-4.07094 -2.8161,2.99595 -7.0595,3.84727 -10.848,4.90499" style="fill:none;stroke:#000000;stroke-width:2.87657;stroke-linecap:round;stroke-linejoin:round;stroke-miterlimit:10;stroke-dasharray:none;stroke-opacity:1" id="path174" />
               </g>
            </g>
            <g id="g176" transform="matrix(1,0,0,-1,0,792)" style="stroke-width:1.09986">
               <g id="g178" style="stroke-width:1.09986">
                  <path d="m 870.0379,724.44678 c 3.13904,0.21318 6.27808,0.42634 9.41712,0.63952" style="fill:none;stroke:#000000;stroke-width:2.87657;stroke-linecap:round;stroke-linejoin:round;stroke-miterlimit:10;stroke-dasharray:none;stroke-opacity:1" id="path180" />
               </g>
            </g>
            <g id="g182" transform="matrix(1,0,0,-1,0,792)" style="stroke-width:1.09986">
               <g id="g184" style="stroke-width:1.09986">
                  <path d="m 900.73462,725.16736 c 89.09465,0.33909 178.20108,1.8871 267.28818,-0.0666" style="fill:none;stroke:#000000;stroke-width:2.87657;stroke-linecap:round;stroke-linejoin:round;stroke-miterlimit:10;stroke-dasharray:none;stroke-opacity:1" id="path186" />
               </g>
            </g>
            <g id="g188" transform="matrix(1,0,0,-1,0,792)" style="stroke-width:1.09986">
               <g id="g190" style="stroke-width:1.09986">
                  <path d="m 915.41901,723.31384 c 1.22714,-0.42118 -0.80191,-1.46604 0.33258,-1.97153" style="fill:none;stroke:#000000;stroke-width:2.87657;stroke-linecap:round;stroke-linejoin:round;stroke-miterlimit:10;stroke-dasharray:none;stroke-opacity:1" id="path192" />
               </g>
            </g>
            <g id="g194" transform="matrix(1,0,0,-1,0,792)" style="stroke-width:1.09986">
               <g id="g196" style="stroke-width:1.09986">
                  <path d="m 917.46375,721.07947 c 70.57605,-2.70784 141.19685,0.48138 211.79045,-0.17567" style="fill:none;stroke:#000000;stroke-width:2.87657;stroke-linecap:round;stroke-linejoin:round;stroke-miterlimit:10;stroke-dasharray:none;stroke-opacity:1" id="path198" />
               </g>
            </g>
            <g id="g200" transform="matrix(1,0,0,-1,0,792)" style="stroke-width:1.09986">
               <g id="g202" style="stroke-width:1.09986">
                  <path d="m 1130.8373,721.5144 -0.7228,-0.16888" style="fill:none;stroke:#000000;stroke-width:2.87657;stroke-linecap:round;stroke-linejoin:round;stroke-miterlimit:10;stroke-dasharray:none;stroke-opacity:1" id="path204" />
               </g>
            </g>
            <g id="g206" transform="matrix(1,0,0,-1,0,792)" style="stroke-width:1.09986">
               <g id="g208" style="stroke-width:1.09986">
                  <path d="m 869.2879,681.09839 274.3732,2.45169" style="fill:none;stroke:#000000;stroke-width:2.87657;stroke-linecap:round;stroke-linejoin:round;stroke-miterlimit:10;stroke-dasharray:none;stroke-opacity:1" id="path210" sodipodi:nodetypes="cc" />
               </g>
            </g>
            <g id="g212" transform="matrix(1,0,0,-1,0,792)" style="stroke-width:1.09986">
               <g id="g214" style="stroke-width:1.09986">
                  <path d="M 1143.6611,683.55008 1132.5308,389.45462" style="fill:none;stroke:#000000;stroke-width:2.87657;stroke-linecap:round;stroke-linejoin:round;stroke-miterlimit:10;stroke-dasharray:none;stroke-opacity:1" id="path216" sodipodi:nodetypes="cc" />
               </g>
            </g>
            <g id="g218" transform="matrix(1,0,0,-1,0,792)" style="stroke-width:1.09986">
               <g id="g220" style="stroke-width:1.09986">
                  <path d="m 869.2879,681.09839 c 7.91691,-91.38997 1.01436,-186.14179 2.70195,-277.71928 0.24013,-3.33569 1.74158,-11.53039 2.12413,-14.85284" style="fill:none;stroke:#000000;stroke-width:2.87657;stroke-linecap:round;stroke-linejoin:round;stroke-miterlimit:10;stroke-dasharray:none;stroke-opacity:1" id="path222" sodipodi:nodetypes="ccc" />
               </g>
            </g>
            <g id="g224" transform="matrix(1,0,0,-1,0,792)" style="stroke-width:1.09986">
               <g id="g226" style="stroke-width:1.09986">
                  <path d="m 870.15709,670.53601 c 0,0 181.32121,1.18094 269.82781,-2.5654" style="fill:none;stroke:#000000;stroke-width:2.87657;stroke-linecap:round;stroke-linejoin:round;stroke-miterlimit:10;stroke-dasharray:none;stroke-opacity:1" id="path228" sodipodi:nodetypes="cc" />
               </g>
            </g>
            <g id="g230" transform="matrix(1,0,0,-1,0,792)" style="stroke-width:1.09986">
               <g id="g232" style="stroke-width:1.09986">
                  <path d="m 873.69305,550.10419 c 36.54828,-1.2822 73.172,1.46776 109.67377,-1.43833" style="fill:none;stroke:#000000;stroke-width:2.87657;stroke-linecap:round;stroke-linejoin:round;stroke-miterlimit:10;stroke-dasharray:none;stroke-opacity:1" id="path234" />
               </g>
            </g>
            <g id="g236" transform="matrix(1,0,0,-1,0,792)" style="stroke-width:1.09986">
               <g id="g238" style="stroke-width:1.09986">
                  <path d="m 871.77039,476.49643 c 37.24884,-0.96034 111.62465,2.63124 111.62465,2.63124" style="fill:none;stroke:#000000;stroke-width:2.87657;stroke-linecap:round;stroke-linejoin:round;stroke-miterlimit:10;stroke-dasharray:none;stroke-opacity:1" id="path240" sodipodi:nodetypes="cc" />
               </g>
            </g>
            <g id="g242" transform="matrix(1,0,0,-1,0,792)" style="stroke-width:1.09986">
               <g id="g244" style="stroke-width:1.09986">
                  <path d="m 985.10736,548.25531 -0.86275,-68.86038" style="fill:none;stroke:#000000;stroke-width:2.87657;stroke-linecap:round;stroke-linejoin:round;stroke-miterlimit:10;stroke-dasharray:none;stroke-opacity:1" id="path246" sodipodi:nodetypes="cc" />
               </g>
            </g>
            <g id="g248" transform="matrix(1,0,0,-1,0,792)" style="stroke-width:1.09986">
               <g id="g250" style="stroke-width:1.09986">
                  <path d="m 970.96332,547.71368 c -8.94712,-15.3929 -6.34273,-40.90548 12.19027,-47.95724" style="fill:none;stroke:#000000;stroke-width:2.87657;stroke-linecap:round;stroke-linejoin:round;stroke-miterlimit:10;stroke-dasharray:none;stroke-opacity:1" id="path252" />
               </g>
            </g>
            <g id="g254" transform="matrix(1,0,0,-1,0,792)" style="stroke-width:1.09986">
               <g id="g256" style="stroke-width:1.09986">
                  <path d="m 975.71173,546.93378 c -0.85655,-3.18412 -4.19071,-6.11143 -2.49139,-9.65894" style="fill:none;stroke:#000000;stroke-width:2.87657;stroke-linecap:round;stroke-linejoin:round;stroke-miterlimit:10;stroke-dasharray:none;stroke-opacity:1" id="path258" />
               </g>
            </g>
            <g id="g260" transform="matrix(1,0,0,-1,0,792)" style="stroke-width:1.09986">
               <g id="g262" style="stroke-width:1.09986">
                  <path d="m 972.53638,537.01385 c 0.92946,-0.40092 4.65318,-1.99615 5.58557,-2.39285" style="fill:none;stroke:#000000;stroke-width:2.87657;stroke-linecap:round;stroke-linejoin:round;stroke-miterlimit:10;stroke-dasharray:none;stroke-opacity:1" id="path264" />
               </g>
            </g>
            <g id="g266" transform="matrix(1,0,0,-1,0,792)" style="stroke-width:1.09986">
               <g id="g268" style="stroke-width:1.09986">
                  <path d="m 977.96747,533.81989 c -1.0104,-5.04828 0.20561,-10.19714 1.8203,-14.971" style="fill:none;stroke:#000000;stroke-width:2.87657;stroke-linecap:round;stroke-linejoin:round;stroke-miterlimit:10;stroke-dasharray:none;stroke-opacity:1" id="path270" />
               </g>
            </g>
            <g id="g272" transform="matrix(1,0,0,-1,0,792)" style="stroke-width:1.09986">
               <g id="g274" style="stroke-width:1.09986">
                  <path d="m 980.02325,517.59113 c -0.78767,-3.10983 -3.99454,-4.648 -5.02627,-7.62614" style="fill:none;stroke:#000000;stroke-width:2.87657;stroke-linecap:round;stroke-linejoin:round;stroke-miterlimit:10;stroke-dasharray:none;stroke-opacity:1" id="path276" />
               </g>
            </g>
            <g id="g278" transform="matrix(1,0,0,-1,0,792)" style="stroke-width:1.09986">
               <g id="g280" style="stroke-width:1.09986">
                  <path d="m 975.2608,509.39542 c 1.30383,-3.18658 3.21928,-6.75818 6.83537,-7.72691" style="fill:none;stroke:#000000;stroke-width:2.87657;stroke-linecap:round;stroke-linejoin:round;stroke-miterlimit:10;stroke-dasharray:none;stroke-opacity:1" id="path282" />
               </g>
            </g>
            <g id="g284" transform="matrix(1,0,0,-1,0,792)" style="stroke-width:1.09986">
               <g id="g286" style="stroke-width:1.09986">
                  <path d="m 982.77673,540.11102 c -0.62538,-0.22356 -3.19337,-0.90276 -3.85199,-1.0188" style="fill:none;stroke:#000000;stroke-width:2.87657;stroke-linecap:round;stroke-linejoin:round;stroke-miterlimit:10;stroke-dasharray:none;stroke-opacity:1" id="path288" />
               </g>
            </g>
            <g id="g290" transform="matrix(1,0,0,-1,0,792)" style="stroke-width:1.09986">
               <g id="g292" style="stroke-width:1.09986">
                  <path d="m 979.58624,537.44281 c -0.6039,-2.3045 0.36462,-16.69069 4.9537,-9.20542" style="fill:none;stroke:#000000;stroke-width:2.87657;stroke-linecap:round;stroke-linejoin:round;stroke-miterlimit:10;stroke-dasharray:none;stroke-opacity:1" id="path294" />
               </g>
            </g>
            <g id="g296" transform="matrix(1,0,0,-1,0,792)" style="stroke-width:1.09986">
               <g id="g298" style="stroke-width:1.09986">
                  <path d="m 982.12073,496.93994 c -2.4076,-3.46411 -5.05662,-11.49481 1.00092,-13.02703" style="fill:none;stroke:#000000;stroke-width:2.87657;stroke-linecap:round;stroke-linejoin:round;stroke-miterlimit:10;stroke-dasharray:none;stroke-opacity:1" id="path300" />
               </g>
            </g>
            <g id="g302" transform="matrix(1,0,0,-1,0,792)" style="stroke-width:1.09986">
               <g id="g304" style="stroke-width:1.09986">
                  <path d="m 912.43267,549.38332 c -7.60953,-22.23563 -4.45032,-54.35088 15.42379,-69.21254" style="fill:none;stroke:#000000;stroke-width:2.87657;stroke-linecap:round;stroke-linejoin:round;stroke-miterlimit:10;stroke-dasharray:none;stroke-opacity:1" id="path306" sodipodi:nodetypes="cc" />
               </g>
            </g>
            <g id="g308" transform="matrix(1,0,0,-1,0,792)" style="stroke-width:1.09986">
               <g id="g310" style="stroke-width:1.09986">
                  <path d="m 965.22443,544.72858 c -10.42455,-13.87645 -1.59226,-32.16227 4.12339,-46.1811 -11.68165,15.29986 -16.94007,32.58129 -10.34469,50.25155" style="fill:none;stroke:#000000;stroke-width:2.87657;stroke-linecap:round;stroke-linejoin:round;stroke-miterlimit:10;stroke-dasharray:none;stroke-opacity:1" id="path312" sodipodi:nodetypes="ccc" />
               </g>
            </g>
            <g id="g314" transform="matrix(1,0,0,-1,0,792)" style="stroke-width:1.09986">
               <g id="g316" style="stroke-width:1.09986">
                  <path d="m 959.00313,548.79903 c -18.11335,-16.60051 -6.88087,-39.47471 2.89442,-58.70413 10.18788,-17.84313 -11.99,12.3961 -11.39849,21.35381 -4.711,10.59507 -0.0579,32.32419 -0.45396,36.14474 -12.20835,-19.22442 -5.29796,-43.64834 1.08548,-63.71539 -14.31132,10.57432 -12.28818,31.0982 -11.72794,46.90452 1.73742,23.02679 -2.82055,-14.15416 2.80039,-21.25274 3.68556,-11.37247 10.83641,-21.79262 20.83391,-28.49434" style="fill:none;stroke:#000000;stroke-width:2.87657;stroke-linecap:round;stroke-linejoin:round;stroke-miterlimit:10;stroke-dasharray:none;stroke-opacity:1" id="path318" sodipodi:nodetypes="cccccccc" />
               </g>
            </g>
            <g id="g320" transform="matrix(1,0,0,-1,0,792)" style="stroke-width:1.09986">
               <g id="g322" style="stroke-width:1.09986">
                  <path d="m 974.38904,483.87872 c -17.92221,13.90162 -27.04542,38.29277 -20.54852,60.34754" style="fill:none;stroke:#000000;stroke-width:2.87657;stroke-linecap:round;stroke-linejoin:round;stroke-miterlimit:10;stroke-dasharray:none;stroke-opacity:1" id="path324" />
               </g>
            </g>
            <g id="g326" transform="matrix(1,0,0,-1,0,792)" style="stroke-width:1.09986">
               <g id="g328" style="stroke-width:1.09986">
                  <path d="m 954.0379,544.64215 c -7.22719,-21.83417 -4.45616,-50.55059 16.16944,-64.29573" style="fill:none;stroke:#000000;stroke-width:2.87657;stroke-linecap:round;stroke-linejoin:round;stroke-miterlimit:10;stroke-dasharray:none;stroke-opacity:1" id="path330" />
               </g>
            </g>
            <g id="g332" transform="matrix(1,0,0,-1,0,792)" style="stroke-width:1.09986">
               <g id="g334" style="stroke-width:1.09986">
                  <path d="m 957.09253,481.70337 c -19.04062,1.79919 -24.74833,23.38947 -24.41325,39.4293 -0.0998,8.06907 1.30939,28.4833 -2.70265,10.52327 -2.04172,-16.57226 4.58128,-32.44256 8.89598,-48.08979 -15.24979,15.61183 -14.57147,39.01034 -13.63367,59.26034 -8.6264,-15.18582 -2.37544,-33.75616 1.60206,-49.51595 8.53168,-18.07207 -11.78602,9.81696 -10.95188,16.89658 -4.93477,8.16189 -0.74848,39.54687 -1.5672,15.23151 -2.81987,-14.54474 6.13348,-39.1788 12.77078,-43.2996 -13.04898,17.40823 -9.7851,41.29743 -6.39246,61.40598 -0.7404,-18.84661 -6.16727,-41.73357 8.24048,-56.92782 2.07248,-1.86847 4.50893,-3.31616 7.10821,-4.32147" style="fill:none;stroke:#000000;stroke-width:2.87657;stroke-linecap:round;stroke-linejoin:round;stroke-miterlimit:10;stroke-dasharray:none;stroke-opacity:1" id="path336" />
               </g>
            </g>
         </g>
      </g>
   </g>
</svg>
