<?xml version="1.0" encoding="UTF-8" standalone="no"?>
<!-- Created by Ashley Blewer - This work is licensed under a Creative Commons Attribution 4.0 International License -->

<svg width="544" height="480" viewBox="0 0 143.93334 127" version="1.1" id="svg2490" inkscape:version="1.1.2 (08b2f3d93c, 2022-04-05)" sodipodi:docname="1972-vcr-3.svg"
   xmlns:inkscape="http://www.inkscape.org/namespaces/inkscape"
   xmlns:sodipodi="http://sodipodi.sourceforge.net/DTD/sodipodi-0.dtd"
   xmlns="http://www.w3.org/2000/svg"
   xmlns:svg="http://www.w3.org/2000/svg">
   <sodipodi:namedview id="namedview2492" pagecolor="#ffffff" bordercolor="#666666" borderopacity="1.0" inkscape:pageshadow="2" inkscape:pageopacity="0.0" inkscape:pagecheckerboard="0" inkscape:document-units="mm" showgrid="false" units="px" inkscape:zoom="0.90583674" inkscape:cx="272.67607" inkscape:cy="177.18425" inkscape:window-width="1848" inkscape:window-height="1136" inkscape:window-x="72" inkscape:window-y="27" inkscape:window-maximized="1" inkscape:current-layer="layer1" />
   <defs id="defs2487" />
   <g inkscape:label="Layer 1" inkscape:groupmode="layer" id="layer1">
      <g id="g2585" transform="matrix(0.43983733,0,0,0.43983733,-277.6315,-196.93855)">
         <g id="g506" transform="matrix(1,0,0,-1,0,792)">
            <g id="g508">
               <path d="m 696.99573,323.89691 -0.0599,0.4129 0.23865,-0.11514 -0.40094,-0.0569 0.9798,0.0555 5.55316,1.42361 3.20379,0.44263 7.8462,0.0709 3.54303,-0.41562" style="fill:none;stroke:#000000;stroke-width:2.61538;stroke-linecap:round;stroke-linejoin:round;stroke-miterlimit:10;stroke-dasharray:none;stroke-opacity:1" id="path510" />
            </g>
         </g>
         <g id="g512" transform="matrix(1,0,0,-1,0,792)">
            <g id="g514">
               <path d="m 718.75696,324.74545 c 4.93764,-6.5374 15.29535,-0.57682 22.62512,-3.16499 20.06546,-1.26658 39.9661,2.17762 59.99737,2.60522 13.44242,1.52702 27.05858,0.47443 40.41807,2.63795" style="fill:none;stroke:#000000;stroke-width:2.61538;stroke-linecap:round;stroke-linejoin:round;stroke-miterlimit:10;stroke-dasharray:none;stroke-opacity:1" id="path516" />
            </g>
         </g>
         <g id="g518" transform="matrix(1,0,0,-1,0,792)">
            <g id="g520">
               <path d="m 841.88359,327.05436 c 0.64882,-0.20138 4.19089,1.73842 4.68845,2.25055 0.5365,0.82997 0.21513,1.88196 0.57272,2.79269 0.036,0.35496 0.30375,1.09649 0.74575,1.03387" style="fill:none;stroke:#000000;stroke-width:2.61538;stroke-linecap:round;stroke-linejoin:round;stroke-miterlimit:10;stroke-dasharray:none;stroke-opacity:1" id="path522" sodipodi:nodetypes="cccc" />
            </g>
         </g>
         <g id="g524" transform="matrix(1,0,0,-1,0,792)">
            <g id="g526">
               <path d="m 847.54224,333.46076 c 5.95283,0.18457 28.82958,1.87246 28.82958,1.87246" style="fill:none;stroke:#000000;stroke-width:2.61538;stroke-linecap:round;stroke-linejoin:round;stroke-miterlimit:10;stroke-dasharray:none;stroke-opacity:1" id="path528" sodipodi:nodetypes="cc" />
            </g>
         </g>
         <g id="g530" transform="matrix(1,0,0,-1,0,792)">
            <g id="g532">
               <path d="m 876.47235,335.21854 c 0.34567,-0.41668 1.14325,-0.16064 1.66629,-0.31994 0.62766,-0.18224 1.22996,-0.46811 1.84771,-0.69084 0.70469,-0.27367 1.5782,-2.4327 2.28289,-2.70637" style="fill:none;stroke:#000000;stroke-width:2.61538;stroke-linecap:round;stroke-linejoin:round;stroke-miterlimit:10;stroke-dasharray:none;stroke-opacity:1" id="path534" sodipodi:nodetypes="cccc" />
            </g>
         </g>
         <g id="g536" transform="matrix(1,0,0,-1,0,792)">
            <g id="g538">
               <path d="m 882.4472,331.19531 -0.30206,-47.29363" style="fill:none;stroke:#000000;stroke-width:2.61538;stroke-linecap:round;stroke-linejoin:round;stroke-miterlimit:10;stroke-dasharray:none;stroke-opacity:1" id="path540" sodipodi:nodetypes="cc" />
            </g>
         </g>
         <g id="g542" transform="matrix(1,0,0,-1,0,792)">
            <g id="g544">
               <path d="m 697.12872,323.98384 c 1.77504,-12.59747 2.80119,-27.39992 3.33857,-40.09459 -0.41236,-7.28974 0.0241,-18.19315 0.12903,-25.49114" style="fill:none;stroke:#000000;stroke-width:2.61538;stroke-linecap:round;stroke-linejoin:round;stroke-miterlimit:10;stroke-dasharray:none;stroke-opacity:1" id="path546" sodipodi:nodetypes="ccc" />
            </g>
         </g>
         <g id="g548" transform="matrix(1,0,0,-1,0,792)">
            <g id="g550">
               <path d="m 700.4118,257.96417 c 0,0 6.92077,-17.51759 9.81289,-18.7779" style="fill:none;stroke:#000000;stroke-width:2.61538;stroke-linecap:round;stroke-linejoin:round;stroke-miterlimit:10;stroke-dasharray:none;stroke-opacity:1" id="path552" sodipodi:nodetypes="cc" />
            </g>
         </g>
         <g id="g554" transform="matrix(1,0,0,-1,0,792)">
            <g id="g556">
               <path d="m 704.51984,267.92819 c 0.0774,-1.13805 5.35982,-10.64344 6.0415,-10.95113" style="fill:none;stroke:#000000;stroke-width:2.61538;stroke-linecap:round;stroke-linejoin:round;stroke-miterlimit:10;stroke-dasharray:none;stroke-opacity:1" id="path558" sodipodi:nodetypes="cc" />
            </g>
         </g>
         <g id="g560" transform="matrix(1,0,0,-1,0,792)">
            <g id="g562">
               <path d="m 711.2533,255.2113 c 0.25919,-6.23501 -1.51279,-12.26116 -0.55451,-18.25663" style="fill:none;stroke:#000000;stroke-width:2.61538;stroke-linecap:round;stroke-linejoin:round;stroke-miterlimit:10;stroke-dasharray:none;stroke-opacity:1" id="path564" sodipodi:nodetypes="cc" />
            </g>
         </g>
         <g id="g566" transform="matrix(1,0,0,-1,0,792)">
            <g id="g568">
               <path d="m 710.88324,235.75157 c 0,0 0.0984,-51.3922 1.02921,-77.08299 -0.54144,-19.56589 1.04182,-39.16139 2.48693,-58.64853 1.82116,-7.92766 1.59917,-23.895067 1.71547,-26.603942" style="fill:none;stroke:#000000;stroke-width:2.61538;stroke-linecap:round;stroke-linejoin:round;stroke-miterlimit:10;stroke-dasharray:none;stroke-opacity:1" id="path570" sodipodi:nodetypes="cccc" />
            </g>
         </g>
         <g id="g572" transform="matrix(1,0,0,-1,0,792)">
            <g id="g574">
               <path d="m 708.71472,94.947731 9.76365,-28.213906 -0.003,0.22385 -0.008,0.326589" style="fill:none;stroke:#000000;stroke-width:2.61538;stroke-linecap:round;stroke-linejoin:round;stroke-miterlimit:10;stroke-dasharray:none;stroke-opacity:1" id="path576" sodipodi:nodetypes="cccc" />
            </g>
         </g>
         <g id="g578" transform="matrix(1,0,0,-1,0,792)">
            <g id="g580">
               <path d="m 700.49397,257.21739 3.54605,-82.50489" style="fill:none;stroke:#000000;stroke-width:2.61538;stroke-linecap:round;stroke-linejoin:round;stroke-miterlimit:10;stroke-dasharray:none;stroke-opacity:1" id="path582" sodipodi:nodetypes="cc" />
            </g>
         </g>
         <g id="g584" transform="matrix(1,0,0,-1,0,792)">
            <g id="g586">
               <path d="m 703.62201,173.26942 c -0.80973,-0.83567 -0.89039,-2.16479 -1.0158,-3.2678 0.16923,-1.30879 -0.19854,-2.61262 -0.0305,-3.90754 0.3211,-1.26466 0.98186,-2.44433 1.97394,-3.30309 0.59043,-1.06833 1.55316,-1.96628 2.79418,-2.21105 0.99955,0.16587 3.37465,-0.44797 3.1568,1.1962 -0.0774,0.20101 -0.15486,0.40202 -0.23229,0.60304" style="fill:none;stroke:#000000;stroke-width:2.61538;stroke-linecap:round;stroke-linejoin:round;stroke-miterlimit:10;stroke-dasharray:none;stroke-opacity:1" id="path588" />
            </g>
         </g>
         <g id="g590" transform="matrix(1,0,0,-1,0,792)">
            <g id="g592">
               <path d="m 705.15253,172.5748 c -0.0819,-1.12336 1.25571,-1.64406 2.06397,-2.45337 0.37878,-0.51067 1.46321,-2.0992 1.03636,-1.91214 l -0.0342,0.12505" style="fill:none;stroke:#000000;stroke-width:2.61538;stroke-linecap:round;stroke-linejoin:round;stroke-miterlimit:10;stroke-dasharray:none;stroke-opacity:1" id="path594" />
            </g>
         </g>
         <g id="g596" transform="matrix(1,0,0,-1,0,792)">
            <g id="g598">
               <path d="m 705.81061,160.59532 2.59072,-64.980122" style="fill:none;stroke:#000000;stroke-width:2.61538;stroke-linecap:round;stroke-linejoin:round;stroke-miterlimit:10;stroke-dasharray:none;stroke-opacity:1" id="path600" sodipodi:nodetypes="cc" />
            </g>
         </g>
         <g id="g602" transform="matrix(1,0,0,-1,0,792)">
            <g id="g604">
               <path d="m 719.11691,66.348663 169.00118,25.775528 1.64381,0.854342" style="fill:none;stroke:#000000;stroke-width:2.61538;stroke-linecap:round;stroke-linejoin:round;stroke-miterlimit:10;stroke-dasharray:none;stroke-opacity:1" id="path606" sodipodi:nodetypes="ccc" />
            </g>
         </g>
         <g id="g608" transform="matrix(1,0,0,-1,0,792)">
            <g id="g610">
               <path d="m 882.56372,330.05389 c 0.30586,-7.39339 -0.71617,-14.77225 -0.58782,-22.16356 0.41838,-7.54987 -1.66133,-15.09523 -0.38575,-22.59609 1.51254,-3.06761 2.91952,-6.15157 4.56879,-9.17968" style="fill:none;stroke:#000000;stroke-width:2.61538;stroke-linecap:round;stroke-linejoin:round;stroke-miterlimit:10;stroke-dasharray:none;stroke-opacity:1" id="path612" />
            </g>
         </g>
         <g id="g614" transform="matrix(1,0,0,-1,0,792)">
            <g id="g616">
               <path d="m 886.87518,274.96472 c 0.58341,-1.45403 1.60397,-2.71644 2.52887,-3.9696 1.63515,-1.54077 3.39057,-2.96375 4.7934,-4.73669 1.11137,-1.13904 2.41516,-2.17196 2.66351,-3.84035 0.75124,-1.50313 2.53411,-3.46704 1.22631,-5.10396 l -0.10512,0.12952 -0.0872,0.14592" style="fill:none;stroke:#000000;stroke-width:2.61538;stroke-linecap:round;stroke-linejoin:round;stroke-miterlimit:10;stroke-dasharray:none;stroke-opacity:1" id="path618" />
            </g>
         </g>
         <g id="g620" transform="matrix(1,0,0,-1,0,792)">
            <g id="g622">
               <path d="M 899.89697,257.07184 C 900.9189,199.96272 889.59946,145.87974 889.78635,93.231021" style="fill:none;stroke:#000000;stroke-width:2.61538;stroke-linecap:round;stroke-linejoin:round;stroke-miterlimit:10;stroke-dasharray:none;stroke-opacity:1" id="path624" sodipodi:nodetypes="cc" />
            </g>
         </g>
         <g id="g626" transform="matrix(1,0,0,-1,0,792)">
            <g id="g628">
               <path d="m 889.83747,122.74256 c 0.24815,-1.1055 -2.15584,-0.27544 -2.90851,-0.77139 -1.41539,-0.0486 -2.22174,-1.30859 -2.99134,-2.31785 -0.64355,-1.07481 -1.11637,-2.37837 -0.65328,-3.62244 0.55024,-1.41584 0.67569,-3.29611 2.21304,-4.04027 1.01573,-0.73759 2.54205,-0.70619 3.46023,-0.15825 -0.0884,0.13594 1.13196,0.46861 1.08586,0.58236" style="fill:none;stroke:#000000;stroke-width:2.61538;stroke-linecap:round;stroke-linejoin:round;stroke-miterlimit:10;stroke-dasharray:none;stroke-opacity:1" id="path630" sodipodi:nodetypes="ccccccc" />
            </g>
         </g>
         <g id="g632" transform="matrix(1,0,0,-1,0,792)">
            <g id="g634">
               <path d="m 898.32313,221.89414 c -1.84308,0.28121 -4.6639,0.83078 -6.07254,0.13292 -1.6207,-0.99044 -2.03203,-3.00114 -2.59774,-4.66398 -0.18851,-1.76375 -0.61964,-3.71354 0.14706,-5.38579 0.90659,-1.34433 2.50439,-2.24857 4.13319,-1.64857 1.00746,0.35253 5.26322,2.23697 4.41441,3.69158" style="fill:none;stroke:#000000;stroke-width:2.61538;stroke-linecap:round;stroke-linejoin:round;stroke-miterlimit:10;stroke-dasharray:none;stroke-opacity:1" id="path636" sodipodi:nodetypes="cccccc" />
            </g>
         </g>
         <g id="g638" transform="matrix(1,0,0,-1,0,792)">
            <g id="g640">
               <path d="m 884.22418,240.09938 c -2.63826,-0.14836 -2.83766,-5.18823 0.0236,-5.61784 3.37008,-1.71028 4.59952,4.23353 1.16028,4.59821 -0.59278,0.15553 -1.21437,0.24506 -1.82753,0.21196" style="fill:none;stroke:#000000;stroke-width:2.61538;stroke-linecap:round;stroke-linejoin:round;stroke-miterlimit:10;stroke-dasharray:none;stroke-opacity:1" id="path642" />
            </g>
         </g>
         <g id="g644" transform="matrix(1,0,0,-1,0,792)">
            <g id="g646">
               <path d="m 875.74237,264.86057 c 1.68071,0.60842 3.17631,2.08105 5.10494,1.36278 1.84204,0.34654 3.6989,-0.58459 3.8213,-2.60059 0.90713,-2.36759 0.29541,-4.88676 -0.54423,-7.17327 -0.30974,-1.88106 -1.13389,-3.78646 -2.62097,-5.01567 -2.17676,-0.99426 -4.98457,-2.03985 -7.12287,-0.38381 -2.16928,1.29006 -3.16765,3.76803 -3.54192,6.14593 -0.0735,2.4247 1.17802,4.51772 2.86533,5.79103 0.62661,0.71395 1.16825,2.13208 2.38432,1.64844" style="fill:none;stroke:#000000;stroke-width:2.61538;stroke-linecap:round;stroke-linejoin:round;stroke-miterlimit:10;stroke-dasharray:none;stroke-opacity:1" id="path648" sodipodi:nodetypes="ccccccccc" />
            </g>
         </g>
         <g id="g650" transform="matrix(1,0,0,-1,0,792)">
            <g id="g652">
               <path d="m 876.82483,261.72792 c -0.91459,-0.0658 -1.29678,0.7493 -1.16807,-0.0424 0.15152,-0.76553 -0.29924,-1.55454 0.0299,-2.29145 0.59828,-0.40711 1.37928,-1.40683 2.16419,-0.87951 0.2399,0.87673 0.26489,2.0303 -0.12865,2.90456 -0.37976,0.37938 -1.32154,0.4283 -1.63884,0.3363 0.12045,-0.0683 -0.0364,-0.11288 -0.0702,-0.0743" style="fill:none;stroke:#000000;stroke-width:2.61538;stroke-linecap:round;stroke-linejoin:round;stroke-miterlimit:10;stroke-dasharray:none;stroke-opacity:1" id="path654" sodipodi:nodetypes="ccccccc" />
            </g>
         </g>
         <g id="g656" transform="matrix(1,0,0,-1,0,792)">
            <g id="g658">
               <path d="m 711.12451,256.49545 0.15991,0.27845 2.47675,0.41128 4.87463,1.2316 3.73072,0.45996 6.28448,0.3974" style="fill:none;stroke:#000000;stroke-width:2.61538;stroke-linecap:round;stroke-linejoin:round;stroke-miterlimit:10;stroke-dasharray:none;stroke-opacity:1" id="path660" />
            </g>
         </g>
         <g id="g662" transform="matrix(1,0,0,-1,0,792)">
            <g id="g664">
               <path d="m 708.04596,265.57065 11.9906,1.32617 5.52698,0.25076 0.41577,-0.0345 -0.0477,-0.17719" style="fill:none;stroke:#000000;stroke-width:2.61538;stroke-linecap:round;stroke-linejoin:round;stroke-miterlimit:10;stroke-dasharray:none;stroke-opacity:1" id="path666" />
            </g>
         </g>
         <g id="g668" transform="matrix(1,0,0,-1,0,792)">
            <g id="g670">
               <path d="m 728.25385,264.65417 0.24877,-0.17752 0.15223,-0.89727 -0.34656,-0.49414 0.41485,-0.64545 -0.007,-1.25418 0.37506,-0.83704 1.12067,-4.526 -0.36786,-0.41264 0.31274,-0.0655 -0.33233,-0.0686 0.6593,-0.20381" style="fill:none;stroke:#000000;stroke-width:2.61538;stroke-linecap:round;stroke-linejoin:round;stroke-miterlimit:10;stroke-dasharray:none;stroke-opacity:1" id="path672" />
            </g>
         </g>
         <g id="g674" transform="matrix(1,0,0,-1,0,792)">
            <g id="g676">
               <path d="m 730.33929,263.48752 -0.72552,-0.27374 0.80597,-0.17069 1.23004,-0.65539 2.36578,-1.68329 1.07611,-0.50513 5.25232,-4.20929 5.68427,-3.15904 1.2688,-0.80115 0.29913,-0.39345 1.26276,-0.54446" style="fill:none;stroke:#000000;stroke-width:2.61538;stroke-linecap:round;stroke-linejoin:round;stroke-miterlimit:10;stroke-dasharray:none;stroke-opacity:1" id="path678" />
            </g>
         </g>
         <g id="g680" transform="matrix(1,0,0,-1,0,792)">
            <g id="g682">
               <path d="m 731.74963,255.66745 c 2.80006,-0.065 4.725,-2.44124 7.14602,-3.51388 2.48944,-1.87499 4.91298,-3.82982 7.51379,-5.55267 2.50725,-1.78748 4.21916,-4.38599 6.70122,-6.19856 2.1959,-1.79917 4.49516,-4.09915 7.16316,-4.88333 l -0.0713,0.29077" style="fill:none;stroke:#000000;stroke-width:2.61538;stroke-linecap:round;stroke-linejoin:round;stroke-miterlimit:10;stroke-dasharray:none;stroke-opacity:1" id="path684" />
            </g>
         </g>
         <g id="g686" transform="matrix(1,0,0,-1,0,792)">
            <g id="g688">
               <path d="m 760.54541,235.71689 78.72752,8.43896" style="fill:none;stroke:#000000;stroke-width:2.61538;stroke-linecap:round;stroke-linejoin:round;stroke-miterlimit:10;stroke-dasharray:none;stroke-opacity:1" id="path690" sodipodi:nodetypes="cc" />
            </g>
         </g>
         <g id="g692" transform="matrix(1,0,0,-1,0,792)">
            <g id="g694">
               <path d="m 867.15277,269.76205 c -1.22181,-2.21063 -3.02773,-4.05908 -4.68418,-5.93965 -2.82023,-2.70387 -4.90741,-6.10107 -8.05697,-8.46289 -1.93928,-2.36999 -4.83414,-3.40147 -7.12174,-5.27851 -2.42663,-1.84143 -4.54564,-4.06928 -7.00609,-5.85091 -0.58593,-0.34579 -1.3824,-0.70794 -1.95799,-0.0979" style="fill:none;stroke:#000000;stroke-width:2.61538;stroke-linecap:round;stroke-linejoin:round;stroke-miterlimit:10;stroke-dasharray:none;stroke-opacity:1" id="path696" />
            </g>
         </g>
         <g id="g698" transform="matrix(1,0,0,-1,0,792)">
            <g id="g700">
               <path d="m 868.7887,268.84 -0.21741,0.0573 1.16583,0.89258 0.87085,1.08957 0.1637,0.4989 0.72381,0.40942 0.19947,0.40125 1.04449,0.56393 6.24542,1.76282 5.39539,0.96777 2.74414,0.21521" style="fill:none;stroke:#000000;stroke-width:2.61538;stroke-linecap:round;stroke-linejoin:round;stroke-miterlimit:10;stroke-dasharray:none;stroke-opacity:1" id="path702" />
            </g>
         </g>
         <g id="g704" transform="matrix(1,0,0,-1,0,792)">
            <g id="g706">
               <path d="m 766.18896,265.00311 c -5.40744,2.27124 -2.22168,6.1061 4.60599,7.24619 17.0581,1.3489 34.1827,3.68384 51.2885,3.70416 1.8766,0.35916 10.13789,-1.96841 6.10715,-5.62877" style="fill:none;stroke:#000000;stroke-width:2.61538;stroke-linecap:round;stroke-linejoin:round;stroke-miterlimit:10;stroke-dasharray:none;stroke-opacity:1" id="path708" sodipodi:nodetypes="cccc" />
            </g>
         </g>
         <g id="g710" transform="matrix(1,0,0,-1,0,792)">
            <g id="g712">
               <path d="m 750.62223,263.65604 109.62966,7.7045" style="fill:none;stroke:#000000;stroke-width:2.61538;stroke-linecap:round;stroke-linejoin:round;stroke-miterlimit:10;stroke-dasharray:none;stroke-opacity:1" id="path714" sodipodi:nodetypes="cc" />
            </g>
         </g>
         <g id="g716" transform="matrix(1,0,0,-1,0,792)">
            <g id="g718">
               <path d="m 767.46324,314.30775 c 10.10746,2.12629 18.33132,2.07711 28.4128,4.32089 8.84086,1.00582 17.93796,1.77053 26.75778,0.42379 5.91647,-0.38713 8.13997,-9.64141 1.50032,-10.81101 -14.42124,-2.428 -28.96473,-4.38238 -43.46785,-6.14833 -6.29171,1.38176 -14.62033,-4.04291 -19.30696,1.73004 -2.8983,4.81155 1.29387,9.61165 6.22106,10.8024" style="fill:none;stroke:#000000;stroke-width:2.61538;stroke-linecap:round;stroke-linejoin:round;stroke-miterlimit:10;stroke-dasharray:none;stroke-opacity:1" id="path720" sodipodi:nodetypes="ccccccc" />
            </g>
         </g>
         <g id="g722" transform="matrix(1,0,0,-1,0,792)">
            <g id="g724">
               <path d="m 721.70184,313.13403 c 0.32864,-0.0682 0.65534,-0.0759 0.9786,0.024 0.75151,0.13326 1.49721,0.32041 2.25234,0.42004 1.14749,0.01 2.29628,0.0797 3.44291,0.05 1.88051,-0.12935 3.76631,-0.23196 5.64353,-0.378 1.26784,-0.42684 2.53569,-0.85368 3.80353,-1.28052 -0.2265,-0.2627 0.18461,-0.33485 0.34113,-0.48309 0.27971,-0.18192 0.31509,-0.1454 -0.0322,-0.28229" style="fill:none;stroke:#000000;stroke-width:2.61538;stroke-linecap:round;stroke-linejoin:round;stroke-miterlimit:10;stroke-dasharray:none;stroke-opacity:1" id="path726" />
            </g>
         </g>
         <g id="g728" transform="matrix(1,0,0,-1,0,792)">
            <g id="g730">
               <path d="m 739.09668,305.12003 c 0,0 0.48216,-23.36577 0.15052,-23.37837 -0.0639,-0.88201 0.15361,-0.49744 0.33164,0.0126" style="fill:none;stroke:#000000;stroke-width:2.61538;stroke-linecap:round;stroke-linejoin:round;stroke-miterlimit:10;stroke-dasharray:none;stroke-opacity:1" id="path732" sodipodi:nodetypes="ccc" />
            </g>
         </g>
         <g id="g734" transform="matrix(1,0,0,-1,0,792)">
            <g id="g736">
               <path d="m 722.54407,252.53012 c -2.86937,0.0196 -2.68304,-3.799 -3.98887,-5.5939 -0.55565,-2.45903 0.41741,-4.98329 1.16294,-7.29879 1.27359,-3.04502 4.50016,-5.02631 7.81152,-4.6048 3.5285,0.35973 7.34158,1.25797 9.61689,4.22305 1.34834,1.70152 2.1055,4.12189 2.02268,6.32213 -0.62801,2.23873 -1.35012,4.85896 -3.49159,6.09526 -2.74474,1.51733 -6.06613,1.26467 -9.10095,1.21046 -0.68656,-0.0365 -3.48773,-0.79967 -4.11997,-0.43198" style="fill:none;stroke:#000000;stroke-width:2.61538;stroke-linecap:round;stroke-linejoin:round;stroke-miterlimit:10;stroke-dasharray:none;stroke-opacity:1" id="path738" sodipodi:nodetypes="ccccccccc" />
            </g>
         </g>
         <g id="g740" transform="matrix(1,0,0,-1,0,792)">
            <g id="g742">
               <path d="m 742.5575,242.02531 -0.15662,-0.39711 0.29681,0.0706 1.70209,-1.18698 0.94867,-0.39684 4.578,-3.55206 1.1352,-0.60203 1.66003,-1.4536 3.93494,-2.14032 0.38745,-0.29181 -0.27857,-0.0763 0.26966,-0.0466 -0.35675,0.14781 0.25183,-0.0354" style="fill:none;stroke:#000000;stroke-width:2.61538;stroke-linecap:round;stroke-linejoin:round;stroke-miterlimit:10;stroke-dasharray:none;stroke-opacity:1" id="path744" />
            </g>
         </g>
         <g id="g746" transform="matrix(1,0,0,-1,0,792)">
            <g id="g748">
               <path d="m 763.9458,231.25183 78.56431,7.31578" style="fill:none;stroke:#000000;stroke-width:2.61538;stroke-linecap:round;stroke-linejoin:round;stroke-miterlimit:10;stroke-dasharray:none;stroke-opacity:1" id="path750" sodipodi:nodetypes="cc" />
            </g>
         </g>
         <g id="g752" transform="matrix(1,0,0,-1,0,792)">
            <g id="g754">
               <path d="m 850.89771,244.48822 c -3.22674,-0.86676 -1.90019,-4.92287 1.21944,-3.36309 2.40239,0.42412 2.57974,3.58613 -0.33441,2.91608 -0.91728,0.01 -1.83037,-0.14582 -2.70908,-0.40211" style="fill:none;stroke:#000000;stroke-width:2.61538;stroke-linecap:round;stroke-linejoin:round;stroke-miterlimit:10;stroke-dasharray:none;stroke-opacity:1" id="path756" />
            </g>
         </g>
         <g id="g758" transform="matrix(1,0,0,-1,0,792)">
            <g id="g760">
               <path d="m 792.87898,214.5857 c 14.78904,3.08573 36.71276,1.7682 50.24329,-5.94057 16.22945,-8.29259 30.75894,-24.22609 30.148,-43.46006 2.01749,-12.83352 -2.43463,-25.31648 -10.38673,-35.27101 -5.30635,-9.04893 -10.67599,-19.36584 -21.75882,-22.1389 -13.37976,-5.02117 -26.7405,-12.03031 -41.52235,-10.656297 -22.0695,-0.966382 -43.87322,13.866907 -52.57062,33.922077 -8.69038,21.10125 -8.41181,48.99128 9.57938,65.29067 19.56265,17.8847 48.69237,23.79393 74.03567,16.89985 2.3347,-1.14272 9.13544,-2.65937 9.55599,-3.30241" style="fill:none;stroke:#000000;stroke-width:2.61538;stroke-linecap:round;stroke-linejoin:round;stroke-miterlimit:10;stroke-dasharray:none;stroke-opacity:1" id="path762" sodipodi:nodetypes="cccccccccc" />
            </g>
         </g>
         <g id="g764" transform="matrix(1,0,0,-1,0,792)">
            <g id="g766">
               <path d="m 796.91913,173.49223 c 4.9417,1.99367 9.63663,5.47067 15.22989,5.02243 6.90892,0.097 14.55054,-2.17629 18.55438,-8.18906 2.9935,-6.05847 2.47055,-13.51164 -0.76991,-19.36332 -1.51525,-6.54346 -7.17347,-10.90438 -12.46007,-14.47754 -5.0302,-3.34614 -11.42977,-5.75305 -17.43649,-3.73735 -6.8131,2.1706 -11.65151,7.766 -16.31611,12.8752 -2.9996,4.07703 -1.9095,9.63036 0.31985,13.79238 3.02421,6.10447 7.56048,10.68691 13.08484,14.3463 1.27969,0.67131 4.22234,0.85448 4.36438,2.51103" style="fill:none;stroke:#000000;stroke-width:2.61538;stroke-linecap:round;stroke-linejoin:round;stroke-miterlimit:10;stroke-dasharray:none;stroke-opacity:1" id="path768" sodipodi:nodetypes="cccccccccc" />
            </g>
         </g>
         <g id="g770" transform="matrix(1,0,0,-1,0,792)">
            <g id="g772">
               <path d="m 794.73206,164.03058 c -0.86607,-0.19395 0.23953,-0.18689 0.0747,-0.74661 0.12968,-0.40948 0.75609,-0.4487 0.41457,-0.82781 0.5251,-0.33337 -0.27506,-0.84268 -0.14606,-1.29264 -1.00036,-0.3368 -1.3894,-1.09186 -2.49337,-1.29576 -1.01736,-0.73301 -2.27291,-1.20138 -3.09295,-2.16719 -0.16758,-0.29219 -0.57965,-0.63019 -0.21456,-0.7648 -0.0168,-0.4012 -0.96979,-0.40464 -0.21326,-0.71143 0.5961,-0.83088 1.04995,-1.7272 0.69715,-2.71568 0.35965,-0.44758 -0.95499,-0.87592 -0.88592,-1.58218 -0.45124,-1.01249 -0.72368,-2.17377 -1.43134,-3.00445 0.23463,-0.36341 -0.5857,-0.32135 -0.0868,-0.55066 -0.48065,-0.105 0.30013,-0.43328 -0.38971,-0.36638 1.00809,0.0971 -0.37372,-0.27961 0.15804,-0.0546" style="fill:none;stroke:#000000;stroke-width:2.61538;stroke-linecap:round;stroke-linejoin:round;stroke-miterlimit:10;stroke-dasharray:none;stroke-opacity:1" id="path774" />
            </g>
         </g>
         <g id="g776" transform="matrix(1,0,0,-1,0,792)">
            <g id="g778">
               <path d="m 786.3197,146.89067 c 0.61754,0.59906 1.6021,0.6121 2.32477,1.04479 0.94584,0.17213 1.99434,0.61287 2.91472,0.13735 0.98344,-0.19978 0.23789,-1.29404 0.89642,-1.67963 -0.72732,-0.55674 -0.5863,-1.44388 -1.32091,-1.9553 -0.34434,-0.18588 -0.54787,-0.84511 -0.56522,-0.78179 -0.0264,0.0905 0.59204,0.01 0.0765,0.0213 0.0963,0.0882 0.21613,0.14364 0.31796,0.22447" style="fill:none;stroke:#000000;stroke-width:2.61538;stroke-linecap:round;stroke-linejoin:round;stroke-miterlimit:10;stroke-dasharray:none;stroke-opacity:1" id="path780" />
            </g>
         </g>
         <g id="g782" transform="matrix(1,0,0,-1,0,792)">
            <g id="g784">
               <path d="m 792.8504,142.62614 c 0.12873,-1.38102 0.88802,-2.33935 2.20852,-2.47939 0.88974,0.15966 1.92322,-1.13636 2.32362,-0.84451 1.11227,0.84323 2.19864,2.61053 3.80633,1.87795 1.14169,-0.38183 1.92447,-1.57776 2.3703,-2.11969 1.32843,-0.88803 2.98599,-1.44449 4.51987,-1.58357 0.34629,0.97871 0.65659,1.80815 1.17646,2.43501 0.73423,1.04857 2.33288,1.22323 3.56187,1.44199 1.27812,0.4721 2.07129,-0.62129 3.11871,-0.0202" style="fill:none;stroke:#000000;stroke-width:2.61538;stroke-linecap:round;stroke-linejoin:round;stroke-miterlimit:10;stroke-dasharray:none;stroke-opacity:1" id="path786" />
            </g>
         </g>
         <g id="g788" transform="matrix(1,0,0,-1,0,792)">
            <g id="g790">
               <path d="m 817.20148,142.58923 c -0.0902,-0.24647 -0.27591,-0.83804 -0.0143,-0.46385 -0.0136,0.27727 -0.13089,0.94445 0.0494,1.5711 0.0914,0.52916 0.18269,1.05831 0.27404,1.58747 0.87919,0.64825 1.73394,0.8363 2.84453,0.59411 0.47389,0.01 1.84805,-0.19919 1.73871,-0.0481 -0.86956,0.18653 0.0156,1.3883 -0.32597,1.93188 0.97212,0.7148 0.18616,2.09549 1.33229,2.54185 0.76247,0.83044 1.9915,0.52529 2.99087,0.77457 1.21799,0.17625 2.35591,0.69511 3.0385,1.60381 0.0583,0.35367 -0.0786,0.69835 -0.0952,1.05007" style="fill:none;stroke:#000000;stroke-width:2.61538;stroke-linecap:round;stroke-linejoin:round;stroke-miterlimit:10;stroke-dasharray:none;stroke-opacity:1" id="path792" />
            </g>
         </g>
         <g id="g794" transform="matrix(1,0,0,-1,0,792)">
            <g id="g796">
               <path d="m 828.05957,160.43024 c -0.26707,-0.54272 0.76012,-0.11141 -0.0868,-0.14931 -0.72969,0.0252 -2.17784,0.28246 -2.19723,0.94384 0.45977,0.57606 -0.3621,1.36317 -0.0621,2.07218 -0.011,0.26442 -0.0315,0.52831 -0.0479,0.79242" style="fill:none;stroke:#000000;stroke-width:2.61538;stroke-linecap:round;stroke-linejoin:round;stroke-miterlimit:10;stroke-dasharray:none;stroke-opacity:1" id="path798" />
            </g>
         </g>
         <g id="g800" transform="matrix(1,0,0,-1,0,792)">
            <g id="g802">
               <path d="m 823.42664,169.07542 c -0.52727,-0.26226 0.52394,0.2961 0.15415,-0.48691 0.29204,-0.96241 -0.93217,-1.10091 -1.07558,-1.65465 -0.19742,-1.22533 -1.86783,-1.29058 -2.81268,-1.70899 -1.63557,-0.34784 -3.40069,-0.72338 -5.0277,-0.15811 -0.79687,0.80498 -1.74444,1.53468 -2.39838,2.48061 -0.23122,0.97296 -1.53147,1.8792 -1.30602,2.74432 0.50062,0.23564 -0.54169,0.0147 0.10894,0.42069 -0.0157,0.28827 -0.59097,0.35107 -0.38145,0.6987" style="fill:none;stroke:#000000;stroke-width:2.61538;stroke-linecap:round;stroke-linejoin:round;stroke-miterlimit:10;stroke-dasharray:none;stroke-opacity:1" id="path804" />
            </g>
         </g>
         <g id="g806" transform="matrix(1,0,0,-1,0,792)">
            <g id="g808">
               <path d="m 733.94385,95.657768 c 1.96512,3.16802 6.37302,0.847852 6.42217,-2.431539 1.29357,-3.507135 0.4099,-7.559544 -1.68172,-10.444206 -3.99999,-2.453546 -4.6423,4.219659 -4.43371,6.851265 0.41985,2.152266 -0.41691,4.241988 -0.45981,6.161123" style="fill:none;stroke:#000000;stroke-width:2.61538;stroke-linecap:round;stroke-linejoin:round;stroke-miterlimit:10;stroke-dasharray:none;stroke-opacity:1" id="path810" sodipodi:nodetypes="ccccc" />
            </g>
         </g>
         <g id="g812" transform="matrix(1,0,0,-1,0,792)">
            <g id="g814">
               <path d="m 725.38389,78.76295 c -2.79692,-2.779081 2.23978,-6.372237 4.54667,-2.896678 1.47576,3.018371 -3.50914,4.627942 -4.8436,2.532461" style="fill:none;stroke:#000000;stroke-width:2.61538;stroke-linecap:round;stroke-linejoin:round;stroke-miterlimit:10;stroke-dasharray:none;stroke-opacity:1" id="path816" sodipodi:nodetypes="ccc" />
            </g>
         </g>
         <g id="g818" transform="matrix(1,0,0,-1,0,792)">
            <g id="g820">
               <path d="m 747.29964,92.656975 c -1.57101,-1.270479 -3.36494,-5.023913 0.63133,-4.830676 4.51894,0.178401 3.94293,7.543648 -0.74,4.758014 l -0.43,-0.330222" style="fill:none;stroke:#000000;stroke-width:2.61538;stroke-linecap:round;stroke-linejoin:round;stroke-miterlimit:10;stroke-dasharray:none;stroke-opacity:1" id="path822" sodipodi:nodetypes="cccc" />
            </g>
         </g>
         <g id="g824" transform="matrix(1,0,0,-1,0,792)">
            <g id="g826">
               <path d="m 758.38495,78.728485 -0.48547,0.290283 0.0936,-0.194503 -0.32489,-0.222687 0.46466,-0.184532 -0.17877,-0.07136 0.0497,-0.313515 1.06836,-0.352218 0.91944,0.296272 0.15533,0.307045 -0.73877,0.360206 -0.79333,-0.05435" style="fill:none;stroke:#000000;stroke-width:2.61538;stroke-linecap:round;stroke-linejoin:round;stroke-miterlimit:10;stroke-dasharray:none;stroke-opacity:1" id="path828" />
            </g>
         </g>
         <g id="g830" transform="matrix(1,0,0,-1,0,792)">
            <g id="g832">
               <path d="m 878.45998,101.81342 c -0.96223,0.42115 -1.44902,0.53847 -1.85597,-0.27309 -0.30402,-1.4114 1.04333,-2.826822 2.46808,-2.659179 0.89745,0.163167 2.38045,0.397952 2.5307,1.459269 -0.39801,1.303 -2.10573,1.32754 -3.23076,1.51215 -0.69382,0.16932 -0.87312,-1.0284 -1.43865,-0.59583" style="fill:none;stroke:#000000;stroke-width:2.61538;stroke-linecap:round;stroke-linejoin:round;stroke-miterlimit:10;stroke-dasharray:none;stroke-opacity:1" id="path834" sodipodi:nodetypes="cccccc" />
            </g>
         </g>
         <g id="g836" transform="matrix(1,0,0,-1,0,792)">
            <g id="g838">
               <path d="m 711.76538,219.19518 c -0.3566,0.67369 2.02787,0.58215 2.70404,0.41153 1.34398,-0.22528 2.78336,-0.6019 3.80606,-1.54184 0.50978,-0.98151 0.54943,-2.3115 0.0681,-3.31875 -0.43777,-1.37474 -1.93224,-1.78259 -3.03442,-2.48713 -1.52018,-0.66145 -1.71799,-1.62785 -3.37043,-0.83738" style="fill:none;stroke:#000000;stroke-width:2.61538;stroke-linecap:round;stroke-linejoin:round;stroke-miterlimit:10;stroke-dasharray:none;stroke-opacity:1" id="path840" sodipodi:nodetypes="cccccc" />
            </g>
         </g>
         <g id="g842" transform="matrix(1,0,0,-1,0,792)">
            <g id="g844">
               <path d="m 725.69031,227.20044 c 0.9838,-2.601 0.17207,-5.50167 1.14095,-8.11697 -0.0497,-2.60304 1.15598,-4.95016 1.7311,-7.42688 0.30164,-1.84059 3.43479,-2.44299 4.01196,-0.62128 -0.56137,1.62683 -1.48988,3.32486 -1.1492,5.08804 -0.0581,2.06872 -0.72963,3.95478 -1.85181,5.68354 -1.12445,2.56636 -2.1113,5.30475 -3.92721,7.46293 l -0.36229,0.20793 -0.4277,0.11045" style="fill:none;stroke:#000000;stroke-width:2.61538;stroke-linecap:round;stroke-linejoin:round;stroke-miterlimit:10;stroke-dasharray:none;stroke-opacity:1" id="path846" />
            </g>
         </g>
      </g>
   </g>
</svg>
