<?xml version="1.0" encoding="UTF-8" standalone="no"?>
<!-- Created by Ashley Blewer - This work is licensed under a Creative Commons Attribution 4.0 International License -->

<svg width="544" height="480" viewBox="0 0 143.93334 127" version="1.1" id="svg2490" inkscape:version="1.1.2 (08b2f3d93c, 2022-04-05)" sodipodi:docname="1976-vcord-2.svg"
   xmlns:inkscape="http://www.inkscape.org/namespaces/inkscape"
   xmlns:sodipodi="http://sodipodi.sourceforge.net/DTD/sodipodi-0.dtd"
   xmlns="http://www.w3.org/2000/svg"
   xmlns:svg="http://www.w3.org/2000/svg">
   <sodipodi:namedview id="namedview2492" pagecolor="#ffffff" bordercolor="#666666" borderopacity="1.0" inkscape:pageshadow="2" inkscape:pageopacity="0.0" inkscape:pagecheckerboard="0" inkscape:document-units="mm" showgrid="false" units="px" inkscape:zoom="0.90583674" inkscape:cx="272.67607" inkscape:cy="177.18425" inkscape:window-width="1848" inkscape:window-height="1136" inkscape:window-x="72" inkscape:window-y="27" inkscape:window-maximized="1" inkscape:current-layer="layer1" />
   <defs id="defs2487" />
   <g inkscape:label="Layer 1" inkscape:groupmode="layer" id="layer1">
      <g id="g61519" transform="matrix(0.38035746,0,0,0.38035746,-285.36354,-18.687005)">
         <g id="g2861" transform="translate(0,-33)">
            <g id="g1430" transform="matrix(1,0,0,-1,47.890444,834.50737)">
               <g id="g1432">
                  <path d="m 928.20593,663.32983 c 18.12347,-5.19181 36.26815,-10.30659 54.36969,-15.54929 28.46528,-7.31869 57.06418,-14.56051 84.93488,-23.87442 1.8188,-1.1169 5.4773,-2.05609 4.7805,-4.91021" style="fill:none;stroke:#000000;stroke-width:2.61538;stroke-linecap:round;stroke-linejoin:round;stroke-miterlimit:10;stroke-dasharray:none;stroke-opacity:1" id="path1434" />
               </g>
            </g>
            <g id="g1436" transform="matrix(1,0,0,-1,47.890444,834.50737)">
               <g id="g1438">
                  <path d="M 928.20593,663.32983 C 901.83808,655.18169 709.36308,591.53328 709.36308,591.53328" style="fill:none;stroke:#000000;stroke-width:2.61538;stroke-linecap:round;stroke-linejoin:round;stroke-miterlimit:10;stroke-dasharray:none;stroke-opacity:1" id="path1440" sodipodi:nodetypes="cc" />
               </g>
            </g>
            <g id="g1442" transform="matrix(1,0,0,-1,47.890444,834.50737)">
               <g id="g1444">
                  <path d="m 709.36308,591.53328 c 0.61355,-17.63623 -1.00895,-33.57425 4.04793,-49.1982 v 0" style="fill:none;stroke:#000000;stroke-width:2.61538;stroke-linecap:round;stroke-linejoin:round;stroke-miterlimit:10;stroke-dasharray:none;stroke-opacity:1" id="path1446" sodipodi:nodetypes="ccc" />
               </g>
            </g>
            <g id="g1448" transform="matrix(1,0,0,-1,47.890444,834.50737)">
               <g id="g1450">
                  <path d="M 713.41101,542.33508 836.92938,472.73611" style="fill:none;stroke:#000000;stroke-width:2.61538;stroke-linecap:round;stroke-linejoin:round;stroke-miterlimit:10;stroke-dasharray:none;stroke-opacity:1" id="path1452" sodipodi:nodetypes="cc" />
               </g>
            </g>
            <g id="g1454" transform="matrix(1,0,0,-1,47.890444,834.50737)">
               <g id="g1456">
                  <path d="m 1072.2672,620.11237 c 2.0213,-14.71944 1.0095,-30.41519 -1.7352,-44.91387" style="fill:none;stroke:#000000;stroke-width:2.61538;stroke-linecap:round;stroke-linejoin:round;stroke-miterlimit:10;stroke-dasharray:none;stroke-opacity:1" id="path1458" />
               </g>
            </g>
            <g id="g1460" transform="matrix(1,0,0,-1,47.890444,834.50737)">
               <g id="g1462">
                  <path d="m 1070.532,575.1985 c -19.3338,-9.5139 -41.2066,-19.07756 -59.5133,-30.46629 -4.052,-4.01522 -11.31542,-5.63279 -14.95426,-2.54965" style="fill:none;stroke:#000000;stroke-width:2.61538;stroke-linecap:round;stroke-linejoin:round;stroke-miterlimit:10;stroke-dasharray:none;stroke-opacity:1" id="path1464" sodipodi:nodetypes="ccc" />
               </g>
            </g>
            <g id="g1466" transform="matrix(1,0,0,-1,47.890444,834.50737)">
               <g id="g1468">
                  <path d="m 996.06444,542.18256 c -10.50351,-4.40224 -24.90038,-13.13698 -34.69292,-18.93079" style="fill:none;stroke:#000000;stroke-width:2.61538;stroke-linecap:round;stroke-linejoin:round;stroke-miterlimit:10;stroke-dasharray:none;stroke-opacity:1" id="path1470" sodipodi:nodetypes="cc" />
               </g>
            </g>
            <g id="g1472" transform="matrix(1,0,0,-1,47.890444,834.50737)">
               <g id="g1474">
                  <path d="m 961.37152,523.25177 c -3.6341,-11.76185 -19.94184,-11.90836 -28.74832,-19.21779 -19.25396,-11.07687 -39.86913,-19.90608 -61.63921,-24.6671 -11.17352,-2.68239 -23.27929,-10.4243 -34.69211,-6.57648" style="fill:none;stroke:#000000;stroke-width:2.61538;stroke-linecap:round;stroke-linejoin:round;stroke-miterlimit:10;stroke-dasharray:none;stroke-opacity:1" id="path1476" sodipodi:nodetypes="cccc" />
               </g>
            </g>
            <g id="g1478" transform="matrix(1,0,0,-1,47.890444,834.50737)">
               <g id="g1480">
                  <path d="m 1049.922,624.72412 c -31.7504,-14.22963 -63.25384,-29.00848 -95.79055,-41.30806 -22.68452,-10.84889 -45.85933,-20.75558 -68.30684,-32.10614 -7.46937,-3.10234 -17.06728,-5.77762 -23.65304,-7.87791" style="fill:none;stroke:#000000;stroke-width:2.61538;stroke-linecap:round;stroke-linejoin:round;stroke-miterlimit:10;stroke-dasharray:none;stroke-opacity:1" id="path1482" />
               </g>
            </g>
            <g id="g1484" transform="matrix(1,0,0,-1,47.890444,834.50737)">
               <g id="g1486">
                  <path d="M 932.79305,661.63085 C 913.12433,651.945 889.99862,645.25223 869.71724,636.9028 837.24211,624.03213 803.66347,614.14949 770.5568,603.25484 c -6.20321,-1.69807 -16.19755,-5.45099 -22.06572,-8.06441" style="fill:none;stroke:#000000;stroke-width:2.61538;stroke-linecap:round;stroke-linejoin:round;stroke-miterlimit:10;stroke-dasharray:none;stroke-opacity:1" id="path1488" sodipodi:nodetypes="cccc" />
               </g>
            </g>
            <g id="g1490" transform="matrix(1,0,0,-1,47.890444,834.50737)">
               <g id="g1492">
                  <path d="m 748.49108,595.19043 c 30.36089,-15.04552 65.6025,-30.40311 96.5955,-44.05369 4.13358,-2.26372 12.76496,-5.83557 17.08499,-7.70473" style="fill:none;stroke:#000000;stroke-width:2.61538;stroke-linecap:round;stroke-linejoin:round;stroke-miterlimit:10;stroke-dasharray:none;stroke-opacity:1" id="path1494" sodipodi:nodetypes="ccc" />
               </g>
            </g>
            <g id="g1496" transform="matrix(1,0,0,-1,47.890444,834.50737)">
               <g id="g1498">
                  <path d="m 919.44312,503.23938 c -4.62462,8.0287 -4.779,18.56266 -5.44606,29.74857 l -0.16786,3.33229" style="fill:none;stroke:#000000;stroke-width:2.61538;stroke-linecap:round;stroke-linejoin:round;stroke-miterlimit:10;stroke-dasharray:none;stroke-opacity:1" id="path1500" />
               </g>
            </g>
            <g id="g1502" transform="matrix(1,0,0,-1,47.890444,834.50737)">
               <g id="g1504">
                  <path d="m 1037.6832,591.67261 c 6.3481,-4.3388 4.8366,-16.78483 1.74,-23.48435 -2.5482,-0.3995 -7.7323,-2.17261 -5.4293,-5.42455" style="fill:none;stroke:#000000;stroke-width:2.61538;stroke-linecap:round;stroke-linejoin:round;stroke-miterlimit:10;stroke-dasharray:none;stroke-opacity:1" id="path1506" />
               </g>
            </g>
            <g id="g1508" transform="matrix(1,0,0,-1,47.890444,834.50737)">
               <g id="g1510">
                  <path d="m 1071.1183,605.40656 c -6.2196,-5.05893 -17.1892,-6.87389 -23.0962,-11.00438" style="fill:none;stroke:#000000;stroke-width:1.30769;stroke-linecap:round;stroke-linejoin:round;stroke-miterlimit:10;stroke-dasharray:none;stroke-opacity:1" id="path1512" />
               </g>
            </g>
            <g id="g1514" transform="matrix(1,0,0,-1,47.890444,834.50737)">
               <g id="g1516">
                  <path d="m 1068.8617,581.43689 c -7.6418,-3.67387 -15.3898,-7.04008 -23.231,-10.24448" style="fill:none;stroke:#000000;stroke-width:1.30769;stroke-linecap:round;stroke-linejoin:round;stroke-miterlimit:10;stroke-dasharray:none;stroke-opacity:1" id="path1518" />
               </g>
            </g>
            <g id="g1520" transform="matrix(1,0,0,-1,47.890444,834.50737)">
               <g id="g1522">
                  <path d="m 1048.2863,594.45557 c -1.9843,-7.71956 -2.7522,-16.18648 -3.5532,-23.77863" style="fill:none;stroke:#000000;stroke-width:1.30769;stroke-linecap:round;stroke-linejoin:round;stroke-miterlimit:10;stroke-dasharray:none;stroke-opacity:1" id="path1524" />
               </g>
            </g>
            <g id="g1526" transform="matrix(1,0,0,-1,47.890444,834.50737)">
               <g id="g1528">
                  <path d="m 1037.6832,591.67261 c -23.6787,-7.77252 -68.04007,-30.14503 -68.04007,-30.14503" style="fill:none;stroke:#000000;stroke-width:1.30769;stroke-linecap:round;stroke-linejoin:round;stroke-miterlimit:10;stroke-dasharray:none;stroke-opacity:1" id="path1530" sodipodi:nodetypes="cc" />
               </g>
            </g>
            <g id="g1532" transform="matrix(1,0,0,-1,47.890444,834.50737)">
               <g id="g1534">
                  <path d="m 1031.4616,561.32507 c -11.1604,-4.25992 -22.3118,-8.85325 -32.29143,-15.50985" style="fill:none;stroke:#000000;stroke-width:1.30769;stroke-linecap:round;stroke-linejoin:round;stroke-miterlimit:10;stroke-dasharray:none;stroke-opacity:1" id="path1536" />
               </g>
            </g>
            <g id="g1538" transform="matrix(1,0,0,-1,47.890444,834.50737)">
               <g id="g1540">
                  <path d="m 911.69141,527.09961 c -14.80998,-7.42612 -47.22095,-13.31012 -47.22095,-13.31012" style="fill:none;stroke:#000000;stroke-width:1.30769;stroke-linecap:round;stroke-linejoin:round;stroke-miterlimit:10;stroke-dasharray:none;stroke-opacity:1" id="path1542" sodipodi:nodetypes="cc" />
               </g>
            </g>
            <g id="g1544" transform="matrix(1,0,0,-1,47.890444,834.50737)">
               <g id="g1546">
                  <path d="m 913.48431,517.40198 c -14.66298,-6.16776 -30.52874,-8.17542 -45.56695,-12.9491" style="fill:none;stroke:#000000;stroke-width:1.30769;stroke-linecap:round;stroke-linejoin:round;stroke-miterlimit:10;stroke-dasharray:none;stroke-opacity:1" id="path1548" />
               </g>
            </g>
            <g id="g1550" transform="matrix(1,0,0,-1,47.890444,834.50737)">
               <g id="g1552">
                  <path d="M 918.38287,502.16495 C 904.148,492.93455 870.64438,486.03558 870.64438,486.03558" style="fill:none;stroke:#000000;stroke-width:1.30769;stroke-linecap:round;stroke-linejoin:round;stroke-miterlimit:10;stroke-dasharray:none;stroke-opacity:1" id="path1554" sodipodi:nodetypes="cc" />
               </g>
            </g>
            <g id="g1556" transform="matrix(1,0,0,-1,47.890444,834.50737)">
               <g id="g1558">
                  <path d="m 922.42242,508.83444 c 10.1393,4.48059 21.41799,7.44683 31.6037,11.07761" style="fill:none;stroke:#000000;stroke-width:1.30769;stroke-linecap:round;stroke-linejoin:round;stroke-miterlimit:10;stroke-dasharray:none;stroke-opacity:1" id="path1560" />
               </g>
            </g>
            <g id="g1562" transform="matrix(1,0,0,-1,47.890444,834.50737)">
               <g id="g1564">
                  <path d="m 922.55127,540.22162 c 1.31648,-7.46445 0.29469,-15.19486 0.43841,-22.73543" style="fill:none;stroke:#000000;stroke-width:1.30769;stroke-linecap:round;stroke-linejoin:round;stroke-miterlimit:10;stroke-dasharray:none;stroke-opacity:1" id="path1566" />
               </g>
            </g>
            <g id="g1568" transform="matrix(1,0,0,-1,47.890444,834.50737)">
               <g id="g1570">
                  <path d="M 709.52521,565.79685 835.72858,494.32791" style="fill:none;stroke:#000000;stroke-width:1.30769;stroke-linecap:round;stroke-linejoin:round;stroke-miterlimit:10;stroke-dasharray:none;stroke-opacity:1" id="path1572" sodipodi:nodetypes="cc" />
               </g>
            </g>
            <g id="g1574" transform="matrix(1,0,0,-1,47.890444,834.50737)">
               <g id="g1576">
                  <path d="m 835.72858,494.32791 c 10.01896,-0.36621 19.808,3.62687 29.36486,6.29744" style="fill:none;stroke:#000000;stroke-width:1.30769;stroke-linecap:round;stroke-linejoin:round;stroke-miterlimit:10;stroke-dasharray:none;stroke-opacity:1" id="path1578" />
               </g>
            </g>
            <g id="g1580" transform="matrix(1,0,0,-1,47.890444,834.50737)">
               <g id="g1582">
                  <path d="m 709.36308,591.53328 124.61927,-66.57496 c 2.07922,-0.96975 4.36615,-1.57468 6.67591,-1.49375" style="fill:none;stroke:#000000;stroke-width:1.30769;stroke-linecap:round;stroke-linejoin:round;stroke-miterlimit:10;stroke-dasharray:none;stroke-opacity:1" id="path1584" sodipodi:nodetypes="ccc" />
               </g>
            </g>
            <g id="g1586" transform="matrix(1,0,0,-1,47.890444,834.50737)">
               <g id="g1588">
                  <path d="m 1068.178,616.85577 c -20.2299,-12.93208 -42.4495,-22.3366 -64.7684,-31.12076 -18.78228,-8.04501 -35.66911,-19.65779 -54.45976,-27.74408 -13.11235,-6.58007 -26.66216,-12.28545 -40.44871,-17.26546" style="fill:none;stroke:#000000;stroke-width:1.30769;stroke-linecap:round;stroke-linejoin:round;stroke-miterlimit:10;stroke-dasharray:none;stroke-opacity:1" id="path1590" />
               </g>
            </g>
            <g id="g1592" transform="matrix(1,0,0,-1,47.890444,834.50737)">
               <g id="g1594">
                  <path d="m 840.66498,523.48761 c 23.99247,0.98825 52.46155,11.7306 67.83615,17.23786" style="fill:none;stroke:#000000;stroke-width:1.30769;stroke-linecap:round;stroke-linejoin:round;stroke-miterlimit:10;stroke-dasharray:none;stroke-opacity:1" id="path1596" sodipodi:nodetypes="cc" />
               </g>
            </g>
            <g id="g1598" transform="matrix(1,0,0,-1,47.890444,834.50737)">
               <g id="g1600">
                  <path d="m 920.05998,562.13148 c -27.75172,-3.91127 15.30138,-12.32521 0,0" style="fill:none;stroke:#000000;stroke-width:1.30769;stroke-linecap:round;stroke-linejoin:round;stroke-miterlimit:10;stroke-dasharray:none;stroke-opacity:1" id="path1602" sodipodi:nodetypes="cc" />
               </g>
            </g>
            <g id="g1604" transform="matrix(1,0,0,-1,47.890444,834.50737)">
               <g id="g1606">
                  <path d="m 915.47306,561.25786 c 2.07337,-1.23207 2.14113,-5.47701 4.93256,-5.74346" style="fill:none;stroke:#000000;stroke-width:1.30769;stroke-linecap:round;stroke-linejoin:round;stroke-miterlimit:10;stroke-dasharray:none;stroke-opacity:1" id="path1608" sodipodi:nodetypes="cc" />
               </g>
            </g>
            <g id="g1610" transform="matrix(1,0,0,-1,47.890444,834.50737)">
               <g id="g1612">
                  <path d="m 1010.2728,602.5733 c -16.19183,-4.09825 13.2291,-13.5308 4.8959,-1.68748 -1.6115,1.17984 -3.5487,2.01648 -5.5753,2.03009" style="fill:none;stroke:#000000;stroke-width:1.30769;stroke-linecap:round;stroke-linejoin:round;stroke-miterlimit:10;stroke-dasharray:none;stroke-opacity:1" id="path1614" />
               </g>
            </g>
            <g id="g1616" transform="matrix(1,0,0,-1,47.890444,834.50737)">
               <g id="g1618">
                  <path d="m 1009.5934,602.91591 c 3.0422,-1.76278 0.9402,-5.8024 4.1372,-7.8031" style="fill:none;stroke:#000000;stroke-width:1.30769;stroke-linecap:round;stroke-linejoin:round;stroke-miterlimit:10;stroke-dasharray:none;stroke-opacity:1" id="path1620" sodipodi:nodetypes="cc" />
               </g>
            </g>
            <g id="g1622" transform="matrix(1,0,0,-1,47.890444,834.50737)">
               <g id="g1624">
                  <path d="m 885.88135,640.00989 c 17.87169,-6.56953 35.24145,-14.61484 53.61993,-19.86957 15.34799,-5.35551 30.30264,-11.81249 45.83637,-16.63898 l -0.38581,-0.0409 0.18097,0.14776" style="fill:none;stroke:#000000;stroke-width:1.30769;stroke-linecap:round;stroke-linejoin:round;stroke-miterlimit:10;stroke-dasharray:none;stroke-opacity:1" id="path1626" />
               </g>
            </g>
            <g id="g1628" transform="matrix(1,0,0,-1,47.890444,834.50737)">
               <g id="g1630">
                  <path d="m 804.84582,614.09818 c 30.31822,-9.7208 60.8044,-28.99348 91.09388,-38.87969 3.89701,-1.54826 16.47062,-7.2625 20.26347,-9.0604" style="fill:none;stroke:#000000;stroke-width:1.30769;stroke-linecap:round;stroke-linejoin:round;stroke-miterlimit:10;stroke-dasharray:none;stroke-opacity:1" id="path1632" sodipodi:nodetypes="ccc" />
               </g>
            </g>
            <g id="g1634" transform="matrix(1,0,0,-1,47.890444,834.50737)">
               <g id="g1636">
                  <path d="m 770.4162,601.75433 c 9.2358,-9.66322 21.24291,-23.78061 31.68054,-29.70343" style="fill:none;stroke:#000000;stroke-width:1.30769;stroke-linecap:round;stroke-linejoin:round;stroke-miterlimit:10;stroke-dasharray:none;stroke-opacity:1" id="path1638" sodipodi:nodetypes="cc" />
               </g>
            </g>
            <g id="g1640" transform="matrix(1,0,0,-1,47.890444,834.50737)">
               <g id="g1642">
                  <path d="m 802.09674,572.0509 c 0,0 58.31363,-13.60868 85.87585,-18.98098" style="fill:none;stroke:#000000;stroke-width:1.30769;stroke-linecap:round;stroke-linejoin:round;stroke-miterlimit:10;stroke-dasharray:none;stroke-opacity:1" id="path1644" sodipodi:nodetypes="cc" />
               </g>
            </g>
            <g id="g1646" transform="matrix(1,0,0,-1,47.890444,834.50737)">
               <g id="g1648">
                  <path d="m 869.58246,597.94751 c 18.95082,7.05883 34.64371,15.50704 53.81189,21.99091" style="fill:none;stroke:#000000;stroke-width:1.30769;stroke-linecap:round;stroke-linejoin:round;stroke-miterlimit:10;stroke-dasharray:none;stroke-opacity:1" id="path1650" sodipodi:nodetypes="cc" />
               </g>
            </g>
            <g id="g1652" transform="matrix(1,0,0,-1,47.890444,834.50737)">
               <g id="g1654">
                  <path d="m 923.39435,619.93842 c -7.43237,4.36522 -15.60137,7.00013 -23.57573,9.52891" style="fill:none;stroke:#000000;stroke-width:1.30769;stroke-linecap:round;stroke-linejoin:round;stroke-miterlimit:10;stroke-dasharray:none;stroke-opacity:1" id="path1656" />
               </g>
            </g>
            <g id="g1658" transform="matrix(1,0,0,-1,47.890444,834.50737)">
               <g id="g1660">
                  <path d="m 899.81862,629.46733 c -16.57499,-8.35157 -35.08967,-15.55334 -52.67329,-21.15028 l -0.59986,-0.53676 0.004,-0.6085" style="fill:none;stroke:#000000;stroke-width:1.30769;stroke-linecap:round;stroke-linejoin:round;stroke-miterlimit:10;stroke-dasharray:none;stroke-opacity:1" id="path1662" sodipodi:nodetypes="cccc" />
               </g>
            </g>
            <g id="g1664" transform="matrix(1,0,0,-1,47.890444,834.50737)">
               <g id="g1666">
                  <path d="m 868.35565,598.00208 c -6.42133,-0.16411 -18.39972,4.47651 -21.80618,9.16971" style="fill:none;stroke:#000000;stroke-width:1.30769;stroke-linecap:round;stroke-linejoin:round;stroke-miterlimit:10;stroke-dasharray:none;stroke-opacity:1" id="path1668" sodipodi:nodetypes="cc" />
               </g>
            </g>
            <g id="g1670" transform="matrix(1,0,0,-1,47.890444,834.50737)">
               <g id="g1672">
                  <path d="m 934.07306,612.47607 c 11.18883,-5.08396 24.58835,-9.78434 34.83697,-13.7262" style="fill:none;stroke:#000000;stroke-width:1.30769;stroke-linecap:round;stroke-linejoin:round;stroke-miterlimit:10;stroke-dasharray:none;stroke-opacity:1" id="path1674" />
               </g>
            </g>
            <g id="g1676" transform="matrix(1,0,0,-1,47.890444,834.50737)">
               <g id="g1678">
                  <path d="m 927.74672,609.56466 c 4.88372,-2.78285 9.12971,-4.55737 14.17741,-7.00662" style="fill:none;stroke:#000000;stroke-width:1.30769;stroke-linecap:round;stroke-linejoin:round;stroke-miterlimit:10;stroke-dasharray:none;stroke-opacity:1" id="path1680" sodipodi:nodetypes="cc" />
               </g>
            </g>
            <g id="g1682" transform="matrix(1,0,0,-1,47.890444,834.50737)">
               <g id="g1684">
                  <path d="m 941.92413,602.55804 c -2.44547,-0.31656 -3.39409,-3.40615 -5.75305,-3.93507" style="fill:none;stroke:#000000;stroke-width:1.30769;stroke-linecap:round;stroke-linejoin:round;stroke-miterlimit:10;stroke-dasharray:none;stroke-opacity:1" id="path1686" sodipodi:nodetypes="cc" />
               </g>
            </g>
            <g id="g1688" transform="matrix(1,0,0,-1,47.890444,834.50737)">
               <g id="g1690">
                  <path d="m 922.36017,605.96307 c 6.36212,-2.605 7.30423,-5.12291 13.81091,-7.3401" style="fill:none;stroke:#000000;stroke-width:1.30769;stroke-linecap:round;stroke-linejoin:round;stroke-miterlimit:10;stroke-dasharray:none;stroke-opacity:1" id="path1692" sodipodi:nodetypes="cc" />
               </g>
            </g>
            <g id="g1694" transform="matrix(1,0,0,-1,47.890444,834.50737)">
               <g id="g1696">
                  <path d="m 927.74672,609.56466 c -0.67365,-0.44636 -4.6958,-3.17137 -5.38655,-3.60159" style="fill:none;stroke:#000000;stroke-width:1.30769;stroke-linecap:round;stroke-linejoin:round;stroke-miterlimit:10;stroke-dasharray:none;stroke-opacity:1" id="path1698" sodipodi:nodetypes="cc" />
               </g>
            </g>
            <g id="g1700" transform="matrix(1,0,0,-1,47.890444,834.50737)">
               <g id="g1702">
                  <path d="m 913.71802,603.67352 c 9.10509,-3.77145 18.88537,-9.07184 28.18719,-12.35626" style="fill:none;stroke:#000000;stroke-width:1.30769;stroke-linecap:round;stroke-linejoin:round;stroke-miterlimit:10;stroke-dasharray:none;stroke-opacity:1" id="path1704" sodipodi:nodetypes="cc" />
               </g>
            </g>
            <g id="g1706" transform="matrix(1,0,0,-1,47.890444,834.50737)">
               <g id="g1708">
                  <path d="m 941.90521,591.31726 c -1.69929,-1.42269 -3.49797,-3.20801 -5.8371,-3.48543" style="fill:none;stroke:#000000;stroke-width:1.30769;stroke-linecap:round;stroke-linejoin:round;stroke-miterlimit:10;stroke-dasharray:none;stroke-opacity:1" id="path1710" />
               </g>
            </g>
            <g id="g1712" transform="matrix(1,0,0,-1,47.890444,834.50737)">
               <g id="g1714">
                  <path d="m 909.45343,600.0636 c 8.55921,-4.69793 26.61468,-12.23177 26.61468,-12.23177" style="fill:none;stroke:#000000;stroke-width:1.30769;stroke-linecap:round;stroke-linejoin:round;stroke-miterlimit:10;stroke-dasharray:none;stroke-opacity:1" id="path1716" sodipodi:nodetypes="cc" />
               </g>
            </g>
            <g id="g1718" transform="matrix(1,0,0,-1,47.890444,834.50737)">
               <g id="g1720">
                  <path d="m 913.71802,603.67352 c -0.42929,-0.43019 -3.80704,-3.30309 -4.26459,-3.60992" style="fill:none;stroke:#000000;stroke-width:1.30769;stroke-linecap:round;stroke-linejoin:round;stroke-miterlimit:10;stroke-dasharray:none;stroke-opacity:1" id="path1722" sodipodi:nodetypes="cc" />
               </g>
            </g>
            <g id="g1724" transform="matrix(1,0,0,-1,47.890444,834.50737)">
               <g id="g1726">
                  <path d="m 902.0932,600.43936 c 0,0 10.51153,-4.58849 15.58814,-8.17758" style="fill:none;stroke:#000000;stroke-width:1.30769;stroke-linecap:round;stroke-linejoin:round;stroke-miterlimit:10;stroke-dasharray:none;stroke-opacity:1" id="path1728" sodipodi:nodetypes="cc" />
               </g>
            </g>
            <g id="g1730" transform="matrix(1,0,0,-1,47.890444,834.50737)">
               <g id="g1732">
                  <path d="m 917.68134,592.26178 c -0.60628,-0.45515 -4.56673,-4.39454 -5.24277,-4.80501" style="fill:none;stroke:#000000;stroke-width:1.30769;stroke-linecap:round;stroke-linejoin:round;stroke-miterlimit:10;stroke-dasharray:none;stroke-opacity:1" id="path1734" sodipodi:nodetypes="cc" />
               </g>
            </g>
            <g id="g1736" transform="matrix(1,0,0,-1,47.890444,834.50737)">
               <g id="g1738">
                  <path d="m 902.0932,600.43936 c 0,0 -4.67836,-5.23699 -4.58701,-4.50689" style="fill:none;stroke:#000000;stroke-width:1.30769;stroke-linecap:round;stroke-linejoin:round;stroke-miterlimit:10;stroke-dasharray:none;stroke-opacity:1" id="path1740" sodipodi:nodetypes="cc" />
               </g>
            </g>
            <g id="g1742" transform="matrix(1,0,0,-1,47.890444,834.50737)">
               <g id="g1744">
                  <path d="m 897.50619,595.93247 c 0,0 9.71854,-6.45267 14.93238,-8.4757" style="fill:none;stroke:#000000;stroke-width:1.30769;stroke-linecap:round;stroke-linejoin:round;stroke-miterlimit:10;stroke-dasharray:none;stroke-opacity:1" id="path1746" sodipodi:nodetypes="cc" />
               </g>
            </g>
         </g>
      </g>
   </g>
</svg>
