<?xml version="1.0" encoding="UTF-8" standalone="no"?>
<!-- Created by Ashley Blewer - This work is licensed under a Creative Commons Attribution 4.0 International License -->

<svg width="544" height="480" viewBox="0 0 143.93334 127" version="1.1" id="svg2490" inkscape:version="1.1.2 (08b2f3d93c, 2022-04-05)" sodipodi:docname="1975-betamax-4.svg"
   xmlns:inkscape="http://www.inkscape.org/namespaces/inkscape"
   xmlns:sodipodi="http://sodipodi.sourceforge.net/DTD/sodipodi-0.dtd"
   xmlns="http://www.w3.org/2000/svg"
   xmlns:svg="http://www.w3.org/2000/svg">
   <sodipodi:namedview id="namedview2492" pagecolor="#ffffff" bordercolor="#666666" borderopacity="1.0" inkscape:pageshadow="2" inkscape:pageopacity="0.0" inkscape:pagecheckerboard="0" inkscape:document-units="mm" showgrid="false" units="px" inkscape:zoom="0.90583674" inkscape:cx="272.67607" inkscape:cy="177.18425" inkscape:window-width="1848" inkscape:window-height="1136" inkscape:window-x="72" inkscape:window-y="27" inkscape:window-maximized="1" inkscape:current-layer="layer1" />
   <defs id="defs2487" />
   <g inkscape:label="Layer 1" inkscape:groupmode="layer" id="layer1">
      <g id="g2235" transform="matrix(0.65980525,0,0,0.65937607,-634.92377,-36.781892)" style="stroke-width:0.77526">
         <g id="g2326" transform="scale(1,-1)" style="stroke-width:0.77526">
            <path d="m 981.633,-235.633 c -5.1617,41.41288 -7.9028,83.07507 -10.699,124.699" style="fill:none;stroke:#000000;stroke-width:2.0276;stroke-linecap:round;stroke-linejoin:round;stroke-miterlimit:10;stroke-dasharray:none;stroke-opacity:1" id="path2328" />
         </g>
         <g id="g2330" transform="scale(1,-1)" style="stroke-width:0.77526">
            <path d="m 982.273,-235.504 c 58.659,7.83786 117.6682,12.79091 176.269,21.09 l 0.4977,0.73387 1.7043,1.86013" style="fill:none;stroke:#000000;stroke-width:2.0276;stroke-linecap:round;stroke-linejoin:round;stroke-miterlimit:10;stroke-dasharray:none;stroke-opacity:1" id="path2332" sodipodi:nodetypes="cccc" />
         </g>
         <g id="g2334" transform="scale(1,-1)" style="stroke-width:0.77526">
            <path d="m 1160.703,-211.727 c -0.077,-0.38073 0.052,-0.003 0.041,-0.093 0.021,1.19666 0.4238,3.62062 0.5382,5.14478 3.0376,26.77457 6.9094,53.53565 9.4638,80.31222 0.1039,0.32409 0.3172,1.12479 0.153,0.765 0.1356,0.18199 0.1367,1.12162 -0.022,0.75 0.2242,0.15379 -0.1696,-0.1034 0.058,0.075 -0.1816,-0.0968 0.1699,-0.12873 -0.466,-0.09 -0.7076,0.12766 -1.9369,0.23364 -2.383,0.297 0.042,0.0151 -0.2516,-0.13468 0,0.035 -0.1108,0.59881 0,1.91521 0.227,2.773 -0.056,0.64727 0.06,1.74894 0.524,2.199 -0.3009,-0.33956 0.3076,0.74965 0.392,1.079 0.249,0.41831 0.038,0.3917 0.143,0.363 0.2679,0.33357 0.4001,0.95643 0.752,1.012 -0.091,-0.097 -0.1138,-0.11131 0.195,-0.125 0.4011,-0.14592 0.5135,-0.0962 1.063,-0.329 0.5007,-0.1742 1.3636,-0.42182 1.324,-0.277 0.1111,-0.18052 0,0.32369 0.453,0.621 1.1342,1.94308 0.9741,4.04252 1.3143,6.33478 0.1015,3.0292 -0.095,6.82167 -1.2743,9.42322 -0.012,0.0517 -0.033,-0.007 -0.06,0.012 0.1255,-0.0646 -0.1778,0.12097 -0.574,0.234 -0.6931,0.43432 -1.4744,0.61203 -2.105,0.941 -0.5031,0.0718 0.1278,-0.084 -0.51,0.227 -0.9943,0.619286 -2.3537,0.932091 -3.117,1.875 -1.4022,0.681296 -2.9371,1.477791 -4.371,2.172 -0.024,0.08779 -0.094,-0.07352 0.111,0.168 l 0.066,0.101 0.102,0.114" style="fill:none;stroke:#000000;stroke-width:2.0276;stroke-linecap:round;stroke-linejoin:round;stroke-miterlimit:10;stroke-dasharray:none;stroke-opacity:1" id="path2336" />
         </g>
         <g id="g2338" transform="scale(1,-1)" style="stroke-width:0.77526">
            <path d="m 971.191,-110.266 c 0.32384,-0.0533 -0.39934,0.006 0.114,0.075 0.0876,0.42895 -0.0808,0.31631 0.363,0.804 0.22745,0.31844 0.34393,0.35838 0.332,0.43 0.0866,0.12142 -0.0423,0.16446 0.102,0.48 0.47637,0.7045 3.89571,0.50744 5.1806,0.97035 47.0115,6.32283 94.5146,7.05684 141.8339,9.313147 14.5441,0.665271 29.0942,1.334379 43.6025,2.580503" style="fill:none;stroke:#000000;stroke-width:2.0276;stroke-linecap:round;stroke-linejoin:round;stroke-miterlimit:10;stroke-dasharray:none;stroke-opacity:1" id="path2340" />
         </g>
         <g id="g2342" transform="scale(1,-1)" style="stroke-width:0.77526">
            <path d="m 1172.203,-101.453 c 0.1625,0.42364 -0.6714,-0.41325 -1.226,-0.039 -61.7908,-1.0136 -123.4243,-6.09879 -185.08297,-9.96579 -3.81221,-0.0824 -10.49722,-0.8193 -13.05403,-0.66721 0.0976,-0.0974 0.42294,-0.0307 0.024,0.004" style="fill:none;stroke:#000000;stroke-width:2.0276;stroke-linecap:round;stroke-linejoin:round;stroke-miterlimit:10;stroke-dasharray:none;stroke-opacity:1" id="path2344" />
         </g>
         <g id="g2346" transform="scale(1,-1)" style="stroke-width:0.77526">
            <path d="m 981.172,-112.148 c -0.47322,-1.52147 -0.0522,-3.13797 -0.43118,-4.67829 0.12334,-1.13938 -0.44536,-2.13819 -0.54291,-3.25592 -0.0293,-1.16679 -0.31199,-2.4137 0.27917,-3.51113 0.27686,-0.61412 0.33869,-1.94195 -0.63518,-1.19687 -1.14023,-0.0316 -2.26899,0.42537 -3.39466,0.14511 -1.09036,-0.0363 0.26506,1.35702 -0.10601,2.01685 0.31842,1.3218 0.25107,2.67917 0.13992,4.03057 -0.0515,1.18088 -0.0918,2.37177 0.21906,3.53175 1.12209,-0.71569 1.08262,-2.23473 1.33671,-3.3969 -0.0247,-0.65071 0.28679,-1.12477 0.37671,-0.19689" style="fill:none;stroke:#000000;stroke-width:2.0276;stroke-linecap:round;stroke-linejoin:round;stroke-miterlimit:10;stroke-dasharray:none;stroke-opacity:1" id="path2348" />
         </g>
         <g id="g2350" transform="scale(1,-1)" style="stroke-width:0.77526">
            <path d="m 1011.008,-125.477 v -0.015 l -0.012,-0.043 -0.012,-0.063 -0.015,-0.07 -0.016,-0.012 -0.012,-0.015 -0.01,-0.043 v -0.043 l -0.012,-0.016 h -0.012 l -0.012,-0.051 v -0.054 0.054 l -0.086,0.012 -0.093,0.016 0.01,-0.004 -0.02,-0.016 -0.047,0.004 -0.07,0.016 0.058,-0.004 -0.035,0.012 -0.101,-0.02 -0.028,-0.016 -0.031,-0.011 -0.051,-0.004 -0.027,-0.012 0.031,-0.016 -0.051,-0.011 -0.093,0.011 -0.016,0.004 h -0.016 l -0.042,0.004 h -0.047 l 0.039,-0.012 v 0.02 h 0.039 l 0.012,-0.012 h 0.066 l 0.035,0.02 h -0.035 l 0.012,-0.043 v -0.024 0.032 l 0.015,0.015 0.016,0.032 v -0.004 0.007 -0.015 l -0.016,-0.008 0.01,0.016 0.012,0.004 v 0.019 -0.008 l -0.031,0.012 -0.024,0.008 0.012,0.004 0.047,-0.004 0.023,0.004 0.02,0.008 0.015,0.015 0.055,0.016 0.023,0.011 v -0.003 l 0.012,0.007 0.024,0.012 0.031,0.02 0.035,0.023 0.106,-0.016 0.105,0.036 0.051,0.062 0.07,0.024 0.074,0.031 0.055,0.019 -0.066,0.039 0.074,0.02 0.168,-0.016 0.058,-0.023 0.059,-0.012 0.047,-0.015 0.129,-0.036 0.172,-0.004 0.058,-0.054 0.051,-0.063 0.066,-0.058 0.079,-0.067 0.085,-0.074 0.071,-0.09 0.074,-0.078 0.102,-0.09 0.105,-0.113 0.113,-0.106 0.11,-0.101 0.152,-0.141 0.047,-0.113 0.023,-0.07 0.118,-0.106 0.117,-0.121 0.086,-0.113 0.039,-0.09 0.144,-0.086 0.11,-0.109 -0.059,-0.098 0.012,-0.082 -0.016,-0.051 -0.023,-0.047 -0.055,-0.062 -0.023,-0.055 -0.047,-0.043 -0.067,-0.039 -0.062,-0.043 -0.074,-0.023 -0.118,-0.028 -0.086,-0.058 -0.058,-0.035 -0.07,-0.004 -0.079,-0.016 -0.066,-0.027 -0.082,-0.016 -0.145,0.027 -0.136,-0.003 -0.032,-0.055 -0.062,-0.027 -0.09,-0.028 -0.078,-0.027 -0.09,-0.012 -0.039,0.024 -0.09,-0.008 -0.16,-0.039 -0.144,-0.016 -0.145,-0.008 -0.125,-0.004 -0.137,-0.004 h -0.125 l -0.093,0.032 -0.075,0.039 -0.035,0.047 -0.07,0.054 -0.082,0.047 -0.106,0.078 -0.07,0.094 0.01,0.059 -0.024,0.05 -0.035,0.047 -0.023,0.063 0.16,0.047 0.012,0.09 -0.133,0.07 0.01,0.07 -0.032,0.07 -0.011,0.04 -0.016,0.054 0.012,0.043 -0.01,0.059 -0.031,0.097 0.01,0.094 v 0.09 l -0.012,0.098 -0.067,0.074 -0.023,0.105 0.07,0.102 0.059,0.098 0.039,0.086 0.043,0.085 0.023,0.122 0.055,0.101 0.074,0.059 0.067,0.062 0.047,0.067 0.062,0.074 0.098,0.043 0.043,0.086 0.058,0.039 0.09,0.015 0.055,0.04 0.058,0.046 0.063,0.028 v 0.027 l 0.074,0.016 0.141,0.007 0.097,0.024 0.094,-0.004 0.098,0.008 0.07,0.015 0.031,0.043 0.121,0.024 0.172,-0.027 0.145,-0.008 0.121,-0.02 0.121,-0.027 0.25,-0.047 0.211,-0.043 0.023,-0.023 0.114,-0.039 0.101,-0.036 0.11,-0.035 0.086,-0.039 0.113,-0.047 0.137,-0.039 0.093,-0.039 0.063,-0.043 0.07,-0.051 0.055,-0.039 0.051,-0.019 0.039,-0.024 -0.012,-0.039 -0.012,-0.027 -0.019,-0.02 -0.028,-0.007 0.016,-0.004 0.059,-0.016 -0.055,-0.035 -0.113,-0.02 -0.078,-0.019 -0.079,-0.031 -0.074,-0.047 -0.152,-0.047 -0.133,-0.059 -0.059,-0.062 -0.089,-0.055 -0.118,-0.078 -0.121,-0.066 -0.062,-0.083 -0.137,-0.07 -0.215,-0.051 -0.168,-0.086 -0.156,-0.062 -0.168,-0.074 -0.195,-0.067 h -0.203 l -0.176,-0.043 -0.176,-0.07 -0.18,-0.023 -0.164,-0.012 -0.148,-0.004 -0.082,-0.051 -0.113,-0.008 -0.145,0.047 -0.094,0.039 -0.078,0.028 -0.086,0.039 -0.144,0.047 -0.149,0.031 -0.086,0.086 -0.047,0.027 -0.039,0.035 -0.023,0.043 0.019,0.055 0.024,0.047 -0.012,0.012 v 0.027 l 0.016,0.051 0.023,0.031 0.024,0.035 0.074,0.043 0.043,0.047 v 0.059 l 0.031,0.074 0.035,0.086 0.063,0.078 -0.086,0.113 0.027,0.125 0.227,0.086 0.164,0.113 0.152,0.094 0.168,0.106 0.234,0.113 0.219,0.105" style="fill:none;stroke:#000000;stroke-width:2.0276;stroke-linecap:round;stroke-linejoin:round;stroke-miterlimit:10;stroke-dasharray:none;stroke-opacity:1" id="path2352" />
         </g>
         <g id="g2354" transform="scale(1,-1)" style="stroke-width:0.77526">
            <path d="m 1139.832,-121.828 v -0.024 l -0.012,-0.05 -0.01,-0.086 -0.011,-0.09 -0.01,0.004 0.094,-0.012 0.027,-0.082 -0.078,-0.004 -0.024,0.008 -0.015,0.031 -0.012,-0.004 -0.039,-0.004 -0.027,0.051 0.019,0.02 v 0.023 l -0.011,0.016 v 0.027 l -0.012,0.035 0.023,0.016 -0.019,0.015 -0.039,0.016 -0.01,0.012 -0.012,0.015 v 0.032 l -0.035,0.031 -0.012,-0.012 h -0.01 v -0.011 l -0.015,0.011 -0.02,0.004 0.02,-0.015 v 0.015 l -0.043,0.028 -0.039,0.035 -0.031,0.007 -0.016,0.02 -0.027,0.008 -0.01,0.019 -0.024,0.008 -0.019,0.008 -0.01,0.016 -0.023,0.023 -0.02,0.031 -0.039,0.035 -0.066,0.016 -0.047,0.012 -0.012,0.019 -0.023,0.028 -0.024,0.007 -0.023,0.02 0.086,0.02 v 0.011 l -0.079,0.016 -0.046,0.035 -0.051,0.008 -0.024,-0.004 -0.058,-0.004 -0.012,0.043 0.016,0.02 -0.024,0.011 v 0.035 l 0.012,0.012 -0.047,0.004 -0.019,0.012 0.043,-0.004 h 0.039 l 0.031,0.008 0.023,0.011 v 0.032 l 0.028,-0.008 0.035,0.004 0.019,0.011 0.024,0.016 0.035,0.031 0.031,-0.004 v 0.024 l 0.012,0.035 0.031,0.039 0.027,0.039 0.028,0.031 0.035,0.063 0.047,0.062 0.027,0.02 0.01,0.023 v 0.016 l 0.012,0.023 0.011,0.032 0.01,0.031 v 0.035 l 0.012,0.008 0.01,-0.012 h -0.01 l -0.012,0.02 -0.01,-0.004 0.043,-0.004 0.016,0.027 -0.055,0.012 h -0.039 l -0.01,-0.012 -0.011,-0.043 -0.028,0.008 0.012,0.031 v 0.004 h -0.012 l -0.01,0.008 -0.012,-0.012 -0.01,0.02 -0.012,-0.004 -0.011,-0.016 -0.01,0.008 0.01,0.004 v -0.004 0.012 l -0.012,0.012 0.055,0.015 0.01,0.031 -0.023,0.012 -0.01,0.039 -0.031,0.012 -0.016,-0.004 -0.105,0.016 -0.024,0.05 h 0.067 l 0.012,0.028 0.015,0.019 0.012,0.055 0.035,0.027 v -0.019 0 h 0.012 l 0.015,0.008 0.02,0.019 0.016,0.035 0.05,0.051 h 0.02 v 0.02 -0.004 l 0.012,0.004 0.019,0.023 v 0.066 l 0.016,0.04 0.015,0.019 v 0.024 l -0.011,0.054 -0.012,0.063 0.016,0.011 v 0.032 0.062 l -0.02,0.02 -0.015,0.023 v 0.027 l -0.01,0.028 v 0.019 l -0.016,0.032 v -0.012 l 0.035,0.019 -0.047,0.036 h -0.039 v 0.05 l -0.093,0.012 -0.032,-0.023 0.094,-0.004 0.023,-0.024 0.04,0.039 0.031,0.004 0.01,-0.027 v 0.008 l 0.011,0.019 0.012,-0.004 0.01,-0.019 h 0.078 l 0.051,-0.012 -0.012,0.008 v 0.012 l 0.016,0.019 0.023,0.02 0.02,0.011 0.019,0.028 0.067,0.027 0.07,0.031 0.074,0.035 0.074,0.043 0.059,0.086 0.168,0.051 0.141,0.016 0.031,0.023 0.062,0.024 0.055,0.027 0.062,0.008 0.043,0.019 0.055,0.036 0.102,0.011 0.082,0.024 0.058,0.023 0.059,0.02 0.074,0.011 0.047,0.024 0.047,0.019 0.078,0.02 0.082,0.023 0.074,0.008 0.078,0.067 0.071,0.039 0.074,-0.008 0.094,0.015 0.07,0.02 0.09,0.008 0.105,0.031 0.11,0.012 0.082,0.004 0.07,0.015 0.074,0.008 h 0.071 l 0.062,0.016 0.066,0.004 0.118,0.011 0.07,0.004 0.012,0.004 0.01,0.008 0.016,0.008 v 0.015 l -0.047,-0.011 v -0.028 l 0.039,-0.004 -0.039,-0.007 v 0.011 l -0.012,0.004 0.012,0.012 0.01,-0.016 -0.027,-0.008 h -0.016 l -0.019,-0.003 -0.016,-0.012 -0.07,-0.012 0.01,0.008 0.036,-0.004 v 0 0.008 l 0.01,0.023 0.012,-0.023 -0.086,0.012 h -0.039 l 0.082,-0.008 0.02,-0.024 0.019,0.028 0.031,0.047 0.032,-0.008 v -0.008 h 0.01 l 0.012,0.008 h 0.01 l 0.023,-0.028 0.012,-0.011 0.01,0.004 -0.01,0.011 v -0.004 h 0.024 l 0.054,-0.004 0.098,-0.019 0.078,-0.027 0.055,-0.008 0.066,-0.02 0.039,-0.015 0.059,-0.008 0.054,-0.004 0.032,-0.02 0.054,-0.023 0.032,-0.023 0.019,-0.024 0.027,-0.031 0.047,-0.043 0.067,-0.035 -0.02,-0.02 -0.035,-0.031 -0.01,-0.027 -0.015,-0.02 0.019,-0.082 -0.023,-0.066 0.051,-0.02 0.043,-0.035 v -0.086 l 0.011,-0.023 0.047,-0.043 v -0.039 l -0.023,-0.032 0.035,-0.039 0.031,-0.035 0.035,-0.016 0.035,-0.007 0.043,-0.032 0.036,-0.054 0.035,-0.039 0.031,-0.039 0.051,-0.036 0.023,-0.035 0.031,-0.031 -0.047,-0.023 0.012,-0.016 0.067,-0.02 0.035,-0.046 0.043,-0.036 0.027,0.004 0.043,-0.008 0.01,-0.074 0.027,-0.066 0.031,-0.051 0.032,-0.043 0.015,-0.039 0.024,-0.023 0.066,-0.028 0.043,-0.062 -0.012,-0.035 0.01,-0.032 v -0.035 l 0.016,-0.078 0.023,-0.059 v -0.043 l 0.012,-0.031 -0.012,-0.031 -0.01,-0.027 -0.011,-0.004 h -0.043 l -0.012,0.011 -0.01,-0.007 -0.066,-0.008 v -0.004 l 0.027,-0.012 -0.015,-0.004 v -0.027 0.008 -0.028 l 0.054,-0.05 -0.015,-0.02 -0.039,-0.016 -0.01,-0.039 -0.02,-0.031 -0.043,-0.051 -0.082,-0.039 0.031,-0.058 -0.027,-0.047 -0.039,-0.039 -0.043,0.004 v -0.016 l -0.015,-0.051 -0.047,-0.023 -0.028,-0.027 -0.039,-0.016 -0.054,-0.039 -0.028,0.012 0.078,-0.024 0.02,-0.047 -0.113,-0.008 -0.063,-0.027 -0.043,-0.008 -0.055,-0.023 -0.109,-0.012 -0.055,0.02 -0.039,-0.008 h -0.047 l -0.054,-0.012 -0.039,-0.012 -0.063,0.016 -0.031,-0.023 -0.047,-0.051 -0.082,-0.02 -0.062,-0.039 -0.051,-0.039 -0.082,-0.035 -0.129,-0.035 -0.094,-0.055 -0.078,-0.043 -0.113,-0.035 -0.11,-0.02 -0.097,-0.031 -0.09,-0.054 -0.098,-0.028 h -0.121 l -0.086,-0.004 -0.086,-0.011 -0.098,-0.02 -0.097,-0.004 -0.113,0.016 -0.098,-0.008 -0.024,-0.02 h -0.031 l -0.054,-0.011 -0.059,0.043 -0.035,0.015 -0.047,-0.039 -0.078,-0.008 -0.055,-0.007 -0.039,-0.004 h -0.039 l -0.059,0.011 -0.043,0.008 -0.043,-0.027 -0.074,-0.004 -0.055,-0.008 -0.046,0.012 -0.036,-0.012 -0.085,0.008 -0.102,0.039 v -0.008 l 0.012,0.004 0.023,0.028 0.039,0.007 V -122 l 0.031,0.02 0.032,-0.028 0.011,-0.008 0.016,0.004 0.012,0.004 0.015,-0.035 h -0.011 l 0.043,-0.004 0.023,-0.004 v 0.004 -0.023 l 0.023,-0.043 -0.046,0.023 -0.02,0.074 0.024,0.039 v 0.055 l -0.012,0.063 -0.01,0.097 0.012,0.11 0.011,0.043 v 0.195 l 0.02,0.09 0.035,0.07 0.027,0.051 0.016,0.07 0.027,0.051 0.016,0.059 0.024,0.039 0.011,0.035 0.035,0.051 0.051,0.05 0.039,0.055 0.047,0.043 0.043,0.051 0.051,0.035 0.027,0.059 0.016,0.054 0.054,0.02 0.043,0.043 0.032,0.027 0.031,0.035 0.035,0.047 0.109,0.012 0.086,0.047 -0.035,0.039" style="fill:none;stroke:#000000;stroke-width:2.0276;stroke-linecap:round;stroke-linejoin:round;stroke-miterlimit:10;stroke-dasharray:none;stroke-opacity:1" id="path2356" />
         </g>
         <g id="g2358" transform="scale(1,-1)" style="stroke-width:0.77526">
            <path d="m 1166.289,-103.395 v 0.008 l -0.01,0.035 -0.011,0.059 -0.01,0.063 -0.016,0.05 -0.012,0.055 v 0.039 l -0.01,0.047 -0.012,0.023 -0.012,0.043 v 0.047 l -0.047,0.016 -0.015,0.019 0.031,0.012 0.012,0.004 0.01,0.016 h 0.012 l 0.024,0.004 0.039,-0.032 v -0.086 l 0.019,-0.004 v -0.011 l -0.012,-0.012 v -0.008 0.012 -0.008 l -0.011,-0.023 v 0.035 l -0.01,0.012 0.07,-0.004 0.035,-0.02 h -0.047 l -0.011,0.008 -0.012,-0.051 -0.031,-0.047 -0.012,0.032 -0.012,0.011 -0.011,0.004 -0.01,-0.008 v -0.097 l -0.016,-0.063 -0.023,-0.078 0.023,-0.09 0.02,-0.097 0.011,-0.106 0.012,-0.102 -0.023,-0.124 -0.02,-0.145 0.024,-0.141 -0.01,-0.164 v -0.164 l -0.016,-0.164 0.01,-0.172 -0.012,-0.195 -0.023,-0.18 -0.012,-0.156 -0.01,-0.137 -0.011,-0.156 -0.02,-0.152 0.012,-0.133 -0.016,-0.129 -0.023,-0.117 -0.01,-0.125 -0.012,-0.125 -0.035,-0.137 v -0.242 l -0.016,-0.133 -0.011,-0.125 -0.032,-0.117 -0.027,-0.137 -0.015,-0.121 0.066,-0.109 -0.012,-0.141 -0.07,-0.129 -0.039,-0.121 -0.031,-0.117 -0.02,-0.18 0.02,-0.183 v -0.106 l -0.036,-0.113 -0.043,-0.129 -0.019,-0.148 -0.031,-0.153 -0.012,-0.176 -0.059,-0.171 -0.035,-0.157 -0.023,-0.164 -0.028,-0.168 -0.043,-0.172 -0.05,-0.156 -0.055,-0.176 -0.055,-0.187 -0.043,-0.18 -0.058,-0.176 -0.039,-0.171 -0.039,-0.157 -0.051,-0.16 -0.067,-0.18 -0.062,-0.144 -0.031,-0.152 -0.098,-0.293 -0.055,-0.125 -0.019,-0.118 -0.043,-0.129 -0.047,-0.132 -0.031,-0.129 -0.047,-0.11 -0.031,-0.105 -0.028,-0.09 -0.027,-0.105 -0.039,-0.114 -0.031,-0.109 -0.039,-0.086 -0.032,-0.094 -0.07,-0.078 0.051,-0.094 0.039,-0.132 -0.098,-0.106 -0.074,-0.133 -0.043,-0.125 -0.023,-0.183 -0.071,-0.157 -0.047,-0.074 -0.011,-0.101 -0.032,-0.106 -0.047,-0.117 -0.031,-0.113 -0.031,-0.078 -0.07,-0.094 -0.059,-0.102 v -0.105 l -0.023,-0.102 -0.028,-0.094 -0.023,-0.07 -0.01,-0.086 v -0.097 l -0.031,-0.098 -0.024,-0.078 -0.011,-0.047 v -0.047 l -0.012,-0.09 -0.094,-0.058 -0.031,-0.043 0.07,-0.039 0.01,-0.047 0.047,-0.039 0.031,-0.012 0.024,-0.012 0.019,-0.031 0.016,-0.031 0.015,-0.012 0.012,-0.012 0.01,0.008 0.012,0.004 0.031,-0.016 0.023,-0.004 0.01,-0.003 v -0.004 l 0.012,-0.004 h 0.043 l 0.012,-0.008 -0.012,-0.016 v -0.015 l 0.012,-0.035 v 0.007 l -0.012,0.024 0.015,-0.035 v -0.02 l 0.012,-0.004 0.012,0.008 0.035,-0.008 0.031,-0.019 -0.011,-0.008 v -0.027 l 0.01,-0.024 0.024,-0.047 0.054,-0.035 0.055,-0.004 v -0.086 l 0.047,-0.027 0.024,-0.07 -0.055,-0.043 v 0.019 l 0.058,-0.008 0.051,0.004 h 0.039 l 0.043,0.016 0.082,0.008 0.063,-0.024 0.039,-0.019 0.051,-0.012 0.043,-0.02 0.062,0.008 0.063,-0.019 0.089,-0.035 0.067,-0.012 0.023,-0.008 0.016,-0.004 h 0.016 l 0.019,-0.012 0.023,-0.011 0.032,-0.012 0.054,-0.008 0.059,-0.004 0.023,-0.004 0.024,-0.023 h 0.043 l 0.031,0.016 0.016,-0.012 0.01,-0.02 0.011,-0.004 v 0.008 l 0.02,0.028 v -0.016 0.019 h 0.019 l 0.028,-0.015 0.031,-0.004 0.031,0.016 0.012,0.003 0.039,-0.015 0.027,-0.008 0.02,0.016 0.012,-0.043 -0.04,-0.016 -0.011,0.027 0.011,0.004 0.01,0.02 0.012,0.004 0.012,0.023 0.043,0.016 v -0.028 h -0.02 l -0.01,0.004 v 0.016 -0.016 l 0.028,-0.011 h 0.027 -0.035 l -0.012,-0.008 -0.012,-0.016 -0.01,-0.035 -0.012,-0.016 -0.012,0.028 v 0.008 0.007 0.032 l 0.01,0.023 0.047,0.008 0.027,0.004 -0.016,0.004 h -0.011 l -0.01,0.011 0.01,-0.015 -0.043,-0.008 v 0.035 l 0.054,0.012 0.024,0.043 0.031,0.043 0.047,0.043 -0.023,0.062 V -117 l 0.062,0.043 0.047,0.047 0.02,0.051 0.019,0.039 0.027,0.043 0.012,0.039 0.012,0.047 0.019,0.05 0.024,0.043 0.012,0.047 0.015,0.035 0.012,0.02 0.016,0.019 0.027,0.032 0.012,0.039 0.011,0.035 0.02,0.023 0.054,0.032 0.051,0.043 -0.01,0.031 0.036,0.043 -0.012,0.058 -0.012,0.036 v 0.043 l 0.028,0.05 0.019,0.02 0.01,0.027 0.016,0.024 0.023,0.011 0.027,0.051 0.078,0.027 0.059,-0.007 -0.031,0.031 v 0.019 l 0.01,0.028 0.011,0.023 v 0.028 l 0.02,0.039 0.039,0.035 0.031,0.051 0.027,0.031 0.032,0.035 0.015,0.039 -0.089,0.027 -0.01,0.043 0.093,0.02 0.043,0.031 0.036,0.035 0.019,0.047 0.047,0.039 0.02,0.02 0.015,0.023 0.012,0.024 v 0.023 l 0.01,0.051 0.011,0.035 -0.019,0.012 -0.012,0.035 v 0.031 l 0.012,0.043 0.01,0.035 v 0.528 l 0.043,0.066 0.035,0.031 -0.024,0.067 -0.011,0.074 v 0.074 l -0.02,0.078 0.051,0.074 0.015,0.075 -0.046,0.058 -0.012,0.09 0.01,0.094 0.011,0.023 -0.011,0.067 0.011,0.125 0.028,0.097 -0.016,0.098 v 0.098 l 0.016,0.109 0.011,0.102 -0.054,0.089 -0.039,0.125 0.047,0.114 v 0.117 l -0.012,0.125 v 0.121 l 0.047,0.105 0.035,0.098 -0.012,0.102 -0.015,0.109 0.015,0.113 v 0.11 l -0.015,0.078 -0.075,0.062 -0.035,0.106 0.059,0.078 0.01,0.082 0.011,0.07 v 0.102 l -0.015,0.094 v 0.07 0.086 l 0.015,0.082 0.012,0.078 v 0.219 l 0.051,0.117 0.019,0.078 -0.027,0.074 -0.01,0.086 -0.011,0.102 0.027,0.082 -0.012,0.097 -0.031,0.129 0.019,0.125 v 0.121 l 0.016,0.114 0.02,0.129 0.01,0.168 -0.011,0.16 0.019,0.125 0.035,0.121 0.028,0.133 0.035,0.14 0.031,0.145 v 0.113 l 0.035,0.125 0.067,0.133 0.043,0.137 0.039,0.132 0.054,0.122 0.047,0.101 0.11,0.219 0.027,0.129 0.051,0.129 0.035,0.117 0.035,0.109 -0.016,0.137 0.028,0.137 0.07,0.132 0.051,0.137 0.035,0.121 0.047,0.145 0.051,0.156 0.043,0.109 0.035,0.106 0.043,0.117 0.051,0.149 0.039,0.113 0.031,0.133 0.113,0.129 0.07,0.105 -0.035,0.098 0.024,0.101 v 0.141 l 0.019,0.07 -0.031,0.102 -0.012,0.14 0.059,0.106 -0.016,0.105 -0.015,0.067 v 0.074 l 0.023,0.105 0.039,0.055 0.012,0.012 -0.012,0.019 -0.01,0.004 -0.011,0.024 -0.01,-0.024 -0.024,-0.004 -0.027,-0.004 v -0.004 l 0.012,-0.011 0.015,-0.012 0.012,-0.012 v -0.019 l -0.047,-0.008 -0.035,0.004 0.024,-0.004 0.01,-0.012 0.012,0.004 0.016,0.035 0.011,0.016 v -0.055 l 0.01,-0.004 h 0.012 l -0.012,0.028 v -0.004 l 0.012,-0.012 v 0.02 l 0.012,-0.008 0.01,-0.004 v -0.024 l 0.036,0.004 0.011,0.012 -0.011,0.012 -0.016,0.004 -0.02,0.008 v -0.024 l -0.039,0.024 v 0.019 h 0.012 l -0.012,0.008 -0.01,-0.008 0.01,0.027 0.012,0.008 v -0.008 l -0.016,-0.007 -0.011,-0.004 v 0.007 l 0.01,-0.015 -0.032,-0.024 h -0.035 l 0.012,-0.011 v -0.004 h 0.019 l -0.011,0.004 -0.082,-0.012 -0.02,-0.004 0.086,0.008 0.02,-0.02 0.015,-0.004 0.012,0.028 0.012,0.019 0.011,-0.015 -0.011,0.008 h -0.012 l -0.02,-0.02 0.012,-0.02 v 0.016 -0.004 l 0.039,-0.004 0.01,-0.011 0.012,0.011 0.027,0.008 0.016,0.012 -0.024,-0.012 -0.015,-0.004 h -0.016 l -0.012,-0.019 -0.011,-0.016 0.011,-0.012 0.024,-0.047 0.011,-0.05 0.01,-0.051 0.02,-0.051 0.039,-0.078 0.082,-0.059 0.039,-0.07 0.027,-0.066 0.047,-0.063 0.055,-0.078 0.058,-0.133 0.075,-0.082 0.078,-0.031 0.066,-0.07 0.051,-0.082 0.059,-0.079" style="fill:none;stroke:#000000;stroke-width:2.0276;stroke-linecap:round;stroke-linejoin:round;stroke-miterlimit:10;stroke-dasharray:none;stroke-opacity:1" id="path2360" />
         </g>
         <g id="g2362" transform="scale(1,-1)" style="stroke-width:0.77526">
            <path d="m 1153.34,-102.082 c -15.77,-10.582 -38.582,-29.871 -53.082,-36.594" style="fill:none;stroke:#000000;stroke-width:2.0276;stroke-linecap:round;stroke-linejoin:round;stroke-miterlimit:10;stroke-dasharray:none;stroke-opacity:1" id="path2364" />
         </g>
         <g id="g2366" transform="scale(1,-1)" style="stroke-width:0.77526">
            <path d="m 1100.258,-138.676 c -12.82,0.184 -27.184,-2.297 -38.438,-2.441" style="fill:none;stroke:#000000;stroke-width:2.0276;stroke-linecap:round;stroke-linejoin:round;stroke-miterlimit:10;stroke-dasharray:none;stroke-opacity:1" id="path2368" />
         </g>
         <g id="g2370" transform="scale(1,-1)" style="stroke-width:0.77526">
            <path d="m 1061.906,-140.84 v -0.047 l -0.058,-0.054 -0.039,-0.102 0.058,-0.051 0.01,-0.066 0.012,-0.035 0.039,0.027 -0.043,-0.02 -0.059,-0.054 0.063,0.027 v -0.012 l -0.02,-0.007 0.012,0.007 0.012,0.024 -0.02,0.008 -0.023,0.015 v -0.011 l 0.031,0.015 v 0.039 l -0.047,0.008 -0.012,-0.004 v 0.016 l -0.058,0.019 -0.043,0.016 0.01,0.008 v 0.039 -0.008 l -0.063,-0.012 -0.019,-0.011 0.039,0.007 -0.039,-0.015 -0.036,0.023 h -0.031 l 0.055,0.004 0.086,-0.008 -0.02,0.02 h -0.082 l -0.078,0.027 -0.055,0.035 -0.05,0.035 -0.114,0.036 -0.082,-0.008 0.02,0.027 h -0.086 l -0.051,0.024 0.067,0.054 -0.071,0.039 -0.164,0.004 -0.031,0.043 -0.098,0.028 -0.078,0.023 -0.109,0.023 0.01,0.043 -0.051,0.055 -0.141,0.047 -0.133,0.043 c -19.136,9.242 -39.98,19.617 -55.679,29.492 l -0.028,0.051 -0.01,0.066 -0.035,0.059 -0.054,0.078 -0.051,0.078 0.043,0.078 -0.012,0.039 -0.066,0.02 -0.02,0.055 -0.031,0.054 -0.02,0.024 0.016,0.023 0.027,-0.008" style="fill:none;stroke:#000000;stroke-width:2.0276;stroke-linecap:round;stroke-linejoin:round;stroke-miterlimit:10;stroke-dasharray:none;stroke-opacity:1" id="path2372" />
         </g>
         <g id="g2374" transform="scale(1,-1)" style="stroke-width:0.77526">
            <path d="m 1030.922,-204.96901 c -13.837,-1.02287 -26.0027,12.26009 -22.7151,25.46846 2.4711,15.0848 21.5692,21.74203 33.8429,13.64965 10.6853,-5.18419 13.0932,-19.64928 6.2371,-28.79448 -5.0277,-7.69611 -15.0957,-12.88644 -24.1589,-9.40562" style="fill:none;stroke:#000000;stroke-width:2.0276;stroke-linecap:round;stroke-linejoin:round;stroke-miterlimit:10;stroke-dasharray:none;stroke-opacity:1" id="path2376" sodipodi:nodetypes="ccccc" />
         </g>
         <g id="g2378" transform="scale(1,-1)" style="stroke-width:0.77526">
            <path d="m 1033.621,-174.074 c -1.0189,-1.91153 0.5816,-3.71804 2.5845,-3.39573 2.4542,0.032 -0.3029,-3.43125 2.2388,-3.44377 1.7781,-0.24169 4.1932,-2.04343 2.6112,-3.82921 -1.5444,0.2335 -3.9763,2.17204 -5.1003,0.14546 0.5044,-1.59846 0.7865,-3.46918 -1.1648,-4.22191 -1.9404,-2.38801 -4.1351,0.17087 -6.1652,0.57037 -1.3534,-1.39722 -3.8366,-0.62762 -3.1841,1.53461 0.949,2.35702 -2.4705,2.89116 -2.5737,4.6421 0.5324,2.05803 1.9191,3.64254 3.9196,4.43569 1.1903,0.90553 2.0105,2.21777 3.3134,2.99191 0.5588,0.69265 3.0562,1.52204 2.6687,-0.16054" style="fill:none;stroke:#000000;stroke-width:2.0276;stroke-linecap:round;stroke-linejoin:round;stroke-miterlimit:10;stroke-dasharray:none;stroke-opacity:1" id="path2380" />
         </g>
         <g id="g2382" transform="scale(1,-1)" style="stroke-width:0.77526">
            <path d="m 1106.867,-162.547 c 2.3343,2.2195 2.8977,3.89929 9.3076,6.1411 4.2177,1.25953 9.1524,2.40354 13.2356,-0.29632 4.9627,-3.00332 10.748,-6.75947 11.512,-13.06765 -0.7816,-6.5991 -3.0389,-13.04331 -6.5379,-18.681 -2.8828,-3.3321 -7.1746,-5.124 -11.3058,-6.33933 -6.4406,-1.13944 -13.3726,0.32017 -18.7695,3.99356 -2.7533,2.69721 -3.1656,6.85704 -4.057,10.43769 0.098,5.81545 2.4436,13.2933 6.615,17.81195" style="fill:none;stroke:#000000;stroke-width:2.0276;stroke-linecap:round;stroke-linejoin:round;stroke-miterlimit:10;stroke-dasharray:none;stroke-opacity:1" id="path2384" sodipodi:nodetypes="ccccccccc" />
         </g>
         <g id="g2386" transform="scale(1,-1)" style="stroke-width:0.77526">
            <path d="m 1125.246,-168.902 c 0.2631,0.13942 -0.608,-0.93001 -0.4983,-1.40257 0.087,-0.96243 1.0421,-0.9857 1.8323,-1.32843 0.084,-0.25352 1.3532,-0.76686 1.4016,-1.46212 0.8116,-0.6199 0.1863,-1.79942 -0.8343,-1.88224 -0.8398,-0.34993 -0.5615,-1.3403 -0.8458,-2.01802 0.041,-0.90393 0.6681,-1.66562 0.7973,-2.61622 -0.3009,-1.2303 -1.9919,-0.90567 -2.6415,-1.92534 -0.4468,-1.05225 -0.6637,-1.41966 -1.6871,-2.08006 -0.5338,0.27068 -1.0806,1.69574 -2.1482,1.83224 -1.1318,0.43007 -2.0008,-0.73184 -3.1061,-0.54261 -1.1765,-0.29594 -1.2399,0.72519 -1.3279,1.63287 -0.087,0.73187 0.7375,1.62223 0.1123,2.34232 -0.378,0.98652 -2.0265,0.64944 -2.2714,1.38489 -0.8809,0.88132 0.039,1.57636 0.7421,2.25414 0.396,0.63115 0.987,1.1588 0.8627,2.01318 -0.037,0.73954 -0.4639,1.79717 0.1985,2.39169 0.6702,0.84596 2.0078,-0.17968 2.9624,-0.36434 1.2096,-0.12043 0.6704,1.11369 1.2483,1.70363 0.2237,0.29157 1.5853,0.90392 1.8616,0.35742 0.5489,-0.52924 1.5852,-1.22341 1.7987,-0.54649 0.5588,0.72179 2.4449,0.38681 2.4777,-0.057 0.1738,-0.0786 0.3711,-0.0538 0.543,-0.13691" style="fill:none;stroke:#000000;stroke-width:2.0276;stroke-linecap:round;stroke-linejoin:round;stroke-miterlimit:10;stroke-dasharray:none;stroke-opacity:1" id="path2388" />
         </g>
         <g id="g2390" transform="scale(1,-1)" style="stroke-width:0.77526">
            <path d="m 1155.5,-208.457 c -0.494,0.44714 -1.3014,0.0152 -1.8099,0.52206 -0.5573,0.1994 -1.8347,0.24397 -1.8424,0.78282 0.4051,0.51993 1.0209,0.77732 1.6654,0.81924 0.9513,0.15576 2.077,0.34537 2.9005,-0.27813 0.1668,-0.77056 -1.0538,-0.83887 -1.5808,-1.05969 -0.5034,-0.28641 -1.7546,0.0475 -0.7868,0.4991 0.7623,0.47265 1.6912,0.68318 2.5747,0.69623 -0.6802,-0.21911 -1.5379,-0.21003 -2.2938,-0.21864 -0.2432,0.0651 -1.5774,-0.0838 -0.9702,0.24472" style="fill:none;stroke:#000000;stroke-width:2.0276;stroke-linecap:round;stroke-linejoin:round;stroke-miterlimit:10;stroke-dasharray:none;stroke-opacity:1" id="path2392" />
         </g>
         <g id="g2394" transform="scale(1,-1)" style="stroke-width:0.77526">
            <path d="m 990.57,-225.305 -0.008,0.012 -0.042,0.031 -0.043,0.043 -0.051,0.059 0.051,0.058 0.082,0.02 -0.075,0.023 -0.007,0.012 0.003,0.02 0.016,0.011 0.043,0.008 -0.121,0.012 -0.035,-0.02 0.121,0.028 0.012,0.058 0.023,-0.011 0.023,-0.008 0.161,-0.012 0.105,0.023 -0.094,-0.039 -0.062,-0.019 -0.02,0.023 -0.015,0.008 -0.012,0.016 0.059,-0.024 0.043,-0.011 -0.063,-0.004 -0.023,-0.024 -0.02,0.004 -0.016,0.008 0.004,-0.023 -0.023,-0.024 -0.027,-0.015 v -0.024 l -0.008,-0.008 -0.02,-0.027 -0.023,-0.012 0.031,-0.027 0.027,-0.012 -0.031,-0.008 -0.004,-0.015 -0.004,-0.008 0.008,-0.004 -0.039,-0.016 -0.031,-0.004 0.043,-0.019 0.012,-0.004 -0.004,-0.02 -0.012,-0.007 0.016,-0.016 0.046,-0.008 -0.027,-0.019 -0.078,-0.02 -0.023,-0.015 -0.012,-0.004 -0.02,-0.016 h -0.117 l -0.066,0.02 0.027,-0.016 0.02,-0.004 0.011,0.012 0.016,0.008 0.035,0.019 -0.043,0.016 -0.043,0.004 0.043,0.011 h 0.004 l 0.008,0.008 v 0.016 l 0.097,0.019 0.004,0.043 -0.136,0.016 -0.09,0.062 -0.09,0.047 -0.078,0.059 -0.129,0.062 -0.16,0.051 -0.059,0.051 -0.019,0.035 -0.047,0.051 -0.071,0.051 -0.07,0.043 -0.062,0.074 -0.071,0.058 -0.062,0.063 -0.055,0.07 -0.058,0.067 -0.067,0.074 -0.043,0.082 -0.015,0.058 -0.036,0.067 -0.039,0.062 -0.011,0.078 -0.004,0.063 0.004,0.059 -0.004,0.054 0.008,0.067 0.046,0.058 0.024,0.059 0.039,0.051 0.039,0.066 0.012,0.063 0.019,0.054 0.09,0.051 0.105,0.066 0.102,0.071 0.074,0.062 0.067,0.047 0.054,0.051 0.075,0.035 0.128,0.039 0.11,0.035 0.113,0.028 0.117,0.023 0.235,0.016 0.187,0.004 0.008,0.031 0.094,0.023 0.125,0.02 0.109,0.019 0.059,0.024 0.039,-0.004 0.113,-0.02 0.121,-0.011 0.094,-0.012 0.086,-0.039 0.094,-0.024 0.203,-0.003 0.156,-0.012 -0.035,-0.02 0.035,-0.031 0.023,-0.023 0.024,-0.016 0.148,-0.027 0.215,-0.032 -0.027,-0.031 -0.063,-0.008 0.02,-0.023 0.015,-0.012 0.028,-0.023 -0.121,-0.02 -0.035,-0.055 0.089,-0.039 0.043,-0.046 0.016,-0.04 0.004,-0.031 0.047,-0.035 v -0.031 l -0.024,-0.047 0.008,-0.047 -0.004,-0.035 -0.019,-0.035 -0.008,-0.047 0.023,-0.051 0.004,-0.055 -0.054,-0.054 -0.051,-0.039 -0.039,-0.051 -0.035,-0.035 -0.04,-0.051 -0.054,-0.051 -0.07,-0.051 -0.083,-0.039 -0.074,-0.05 -0.07,-0.036 -0.094,-0.043 -0.097,-0.035 -0.082,-0.047 -0.075,-0.035 -0.093,-0.011 -0.11,-0.04 -0.07,-0.031 -0.145,0.008 -0.125,0.004 -0.058,-0.004 -0.094,0.008 -0.09,0.015 -0.086,-0.003 -0.004,-0.008 0.016,0.027 -0.09,0.008 -0.121,-0.004 -0.086,0.039 -0.059,0.02 -0.054,0.031 -0.164,0.019 -0.114,0.039 0.036,0.024 -0.032,0.015 -0.019,0.024 -0.043,0.027 0.07,0.012 -0.055,0.027 -0.082,0.008 0.028,0.02 0.027,0.031 0.012,0.023 0.015,0.012 0.184,-0.012 0.055,-0.004 -0.086,0.008 0.031,-0.008 0.02,0.008 0.019,0.012 0.066,0.023 0.075,0.012 0.019,0.047 0.129,0.129 0.043,0.031 0.051,0.035 0.066,0.035 0.078,0.032 0.055,0.039 h 0.055 l 0.058,0.004 0.008,0.031 0.051,0.023 0.086,0.004 0.012,0.008 0.011,0.004 h 0.028 l 0.054,-0.012 0.004,0.012 -0.019,-0.008 -0.004,-0.035 -0.012,0.016 0.004,-0.004 -0.012,-0.012 -0.027,-0.004 -0.031,0.004 h -0.02 l -0.015,0.008 -0.016,0.004 -0.012,-0.012 h -0.062 l -0.031,-0.019 0.035,-0.008 -0.02,-0.008 -0.023,-0.004 v 0.004 l 0.16,-0.008 v -0.004 l -0.16,0.004 -0.078,-0.019" style="fill:none;stroke:#000000;stroke-width:2.0276;stroke-linecap:round;stroke-linejoin:round;stroke-miterlimit:10;stroke-dasharray:none;stroke-opacity:1" id="path2396" />
         </g>
         <g id="g2398" transform="scale(1,-1)" style="stroke-width:0.77526">
            <path d="m 987.754,-154.672 c 56.4415,6.14504 114.2293,8.15097 170.125,13.37896" style="fill:none;stroke:#000000;stroke-width:1.0138;stroke-linecap:round;stroke-linejoin:round;stroke-miterlimit:10;stroke-dasharray:none;stroke-opacity:1" id="path2400" />
         </g>
         <g id="g2402" transform="scale(1,-1)" style="stroke-width:0.77526">
            <path d="m 990.762,-216.809 c -0.92146,20.29246 0.90959,40.85107 -3.24633,60.88759 0.72552,0.2978 -0.50254,1.82449 0.46433,1.65941" style="fill:none;stroke:#000000;stroke-width:1.0138;stroke-linecap:round;stroke-linejoin:round;stroke-miterlimit:10;stroke-dasharray:none;stroke-opacity:1" id="path2404" />
         </g>
         <g id="g2406" transform="scale(1,-1)" style="stroke-width:0.77526">
            <path d="m 990.762,-216.809 c 53.41,8.196 107.738,9.653 159.09,15.067 l 0.011,0.015 v 0.036 l 0.01,0.011 0.012,-0.004 v 0.024 h 0.074 -0.051 l -0.01,0.008 0.055,-0.004 0.07,-0.008 0.051,0.004 0.067,0.004 h 0.058 l 0.035,0.015 0.039,0.008 h 0.024 l 0.027,-0.008 0.02,0.004 v 0.004 l 0.01,0.004 h 0.078 l 0.035,-0.016 0.051,0.008 h 0.023 l 0.016,0.016 0.027,0.008 0.043,-0.004 h 0.039 l 0.055,0.012 h 0.144 l 0.102,0.035 h -0.012 l 0.051,0.019 -0.012,0.012 0.031,0.004 0.012,0.012 0.063,0.011 0.058,0.004 0.059,0.008 0.07,0.016 0.067,0.023 0.089,-0.004 0.043,-0.004 0.067,0.012 0.129,0.019 0.136,0.028 0.133,0.008 0.094,0.027 0.082,0.008 0.074,0.008 0.071,0.004 0.031,0.003 0.047,0.016 0.039,0.004 0.035,0.004 h 0.027 v 0.004 l 0.012,0.015 h -0.012 0.02 l 0.035,-0.003 0.01,-0.008 -0.012,-0.012 -0.012,-0.004 h -0.01 l -0.011,-0.008 -0.024,-0.004 -0.043,-0.004 -0.011,-0.023 0.015,-0.008 -0.039,-0.008" style="fill:none;stroke:#000000;stroke-width:1.0138;stroke-linecap:round;stroke-linejoin:round;stroke-miterlimit:10;stroke-dasharray:none;stroke-opacity:1" id="path2408" />
         </g>
         <g id="g2410" transform="scale(1,-1)" style="stroke-width:0.77526">
            <path d="m 1152.5,-201.332 c 2.3274,16.52008 3.8882,33.13622 5.0679,49.7748 0.1349,2.95145 0.6137,5.90422 0.5801,8.8542 -0.073,0.32839 -0.2629,0.16901 -0.153,0.187 l 0.012,0.016 -0.128,1.207" style="fill:none;stroke:#000000;stroke-width:1.0138;stroke-linecap:round;stroke-linejoin:round;stroke-miterlimit:10;stroke-dasharray:none;stroke-opacity:1" id="path2412" sodipodi:nodetypes="cccccc" />
         </g>
         <g id="g2414" transform="scale(1,-1)" style="stroke-width:0.77526">
            <path d="m 1029.289,-195.938 -0.016,-0.007 -0.027,-0.004 -0.035,-0.024 -0.043,-0.031 -0.023,-0.023 -0.04,-0.008 -0.019,-0.008 -0.01,-0.004 -0.012,-0.015 v -0.079 h 0.02 l 0.012,0.004 0.01,-0.008 0.012,-0.003 h 0.01 l 0.012,0.003 0.023,0.02 0.01,0.008 0.012,0.004 0.01,0.011 0.011,0.012 v 0.008 l 0.02,0.004 0.023,0.004 -0.058,0.004 -0.02,-0.016 h 0.07 l 0.063,-0.016 0.031,-0.019 0.035,0.012 0.024,0.011 -0.01,0.008 0.047,-0.004 0.105,-0.011 0.078,0.039 0.055,0.011 0.133,0.02 0.098,0.031 0.031,0.035 0.074,0.02 0.09,0.027 0.086,0.043 0.023,0.039 0.063,0.035 0.144,0.032 0.106,0.039 0.086,0.031 0.09,0.031 0.109,0.02 0.082,0.027 0.086,0.023 0.086,0.028 0.086,0.008 0.082,0.004 0.066,0.003 0.059,0.012 h 0.094 l 0.062,0.02 0.02,0.004 0.035,0.007 h 0.035 l 0.039,-0.015 -0.016,0.015 v -0.011 l 0.059,-0.004 v -0.031 l 0.023,0.023 0.01,0.004 0.016,0.004 h -0.016 l -0.012,0.004 h -0.01 l -0.012,0.004 -0.01,-0.012 -0.012,-0.012 h -0.011 l -0.01,-0.008 -0.012,0.004 v 0.008 l 0.02,0.004 h 0.031 l -0.035,0.004 v -0.008 0.004 l 0.015,0.004 -0.035,0.019" style="fill:none;stroke:#000000;stroke-width:1.0138;stroke-linecap:round;stroke-linejoin:round;stroke-miterlimit:10;stroke-dasharray:none;stroke-opacity:1" id="path2416" />
         </g>
         <g id="g2418" transform="scale(1,-1)" style="stroke-width:0.77526">
            <path d="m 1036.812,-193.207 h -0.015 l -0.01,-0.004 v -0.012 l -0.016,-0.004 -0.027,0.016 0.016,0.004 0.01,0.016 0.011,-0.012 0.01,0.039 v 0.027 -0.023 0.012 l 0.02,0.011 0.043,0.043 0.015,0.039 0.024,0.047 0.047,0.039 0.054,0.035 0.055,0.051 0.062,0.028 0.067,0.019 0.066,0.012 0.051,0.023 0.051,0.028 0.043,0.027 0.054,0.023 0.055,0.008 -0.01,0.024 0.047,0.019 0.11,0.02 0.066,0.007 0.051,0.004 h 0.117 l 0.01,0.028 0.043,0.019 0.105,0.008 0.078,0.02 0.063,0.019 0.058,0.024 0.102,0.011 0.109,0.02 0.028,0.047 0.043,0.031 0.05,0.031 0.051,0.047 0.063,0.035 0.054,0.051 0.051,0.059 0.067,0.054 0.062,0.067 0.066,0.058 0.075,0.078 0.093,0.067 0.043,0.078 0.039,0.062 0.075,0.059 0.066,0.066 0.059,0.075 0.039,0.082 0.105,0.047 0.098,0.043 0.012,0.07 0.043,0.055 0.035,0.062 0.039,0.035 0.027,0.043 0.051,0.059 0.051,0.054 0.019,0.047 0.02,0.039 0.039,0.047 0.012,0.071 0.031,0.05 0.027,0.055 0.012,0.07 0.015,0.071 v 0.07 l 0.012,0.086" style="fill:none;stroke:#000000;stroke-width:1.0138;stroke-linecap:round;stroke-linejoin:round;stroke-miterlimit:10;stroke-dasharray:none;stroke-opacity:1" id="path2420" />
         </g>
         <g id="g2422" transform="scale(1,-1)" style="stroke-width:0.77526">
            <path d="m 1131.434,-167.996 c 0.733,-0.61346 0.8196,-1.63471 1.0405,-2.50038 0.056,-0.25246 0.3233,-0.35519 0.5068,-0.16363" style="fill:none;stroke:#000000;stroke-width:1.0138;stroke-linecap:round;stroke-linejoin:round;stroke-miterlimit:10;stroke-dasharray:none;stroke-opacity:1" id="path2424" />
         </g>
      </g>
   </g>
</svg>
