<?xml version="1.0" encoding="UTF-8" standalone="no"?>
<!-- Created by Ashley Blewer - This work is licensed under a Creative Commons Attribution 4.0 International License -->

<svg width="544" height="480" viewBox="0 0 143.93334 127" version="1.1" id="svg2490" inkscape:version="1.1.2 (08b2f3d93c, 2022-04-05)" sodipodi:docname="1975-betamax-3.svg"
   xmlns:inkscape="http://www.inkscape.org/namespaces/inkscape"
   xmlns:sodipodi="http://sodipodi.sourceforge.net/DTD/sodipodi-0.dtd"
   xmlns="http://www.w3.org/2000/svg"
   xmlns:svg="http://www.w3.org/2000/svg">
   <sodipodi:namedview id="namedview2492" pagecolor="#ffffff" bordercolor="#666666" borderopacity="1.0" inkscape:pageshadow="2" inkscape:pageopacity="0.0" inkscape:pagecheckerboard="0" inkscape:document-units="mm" showgrid="false" units="px" inkscape:zoom="0.90583674" inkscape:cx="272.67607" inkscape:cy="177.18425" inkscape:window-width="1848" inkscape:window-height="1136" inkscape:window-x="72" inkscape:window-y="27" inkscape:window-maximized="1" inkscape:current-layer="layer1" />
   <defs id="defs2487" />
   <g inkscape:label="Layer 1" inkscape:groupmode="layer" id="layer1">
      <g id="g2582" transform="matrix(0.60475793,0,0,0.60436455,-398.14652,-28.209237)" style="stroke-width:0.77526">
         <path d="m 671.664,124.707 c 0.621,3.551 1.418,7.074 1.867,10.652 0.801,6.407 1.356,12.844 1.883,19.282 0.074,0.879 0.145,1.793 -0.082,2.644 -0.187,0.711 -0.816,1.227 -1.125,1.891 -0.102,0.211 -0.082,0.461 -0.082,0.691 -0.027,3.27 -0.254,6.543 0,9.801 0.547,7.07 1.523,14.105 2.402,21.141 0.352,2.796 0.797,5.586 1.297,8.359 0.906,5.066 2.184,10.066 2.922,15.16 1.027,7.113 1.301,14.32 2.363,21.426 0.184,1.23 0.637,2.461 1.36,3.476 0.215,0.301 0.769,0.129 1.105,-0.019 0.371,-0.168 0.664,-0.508 0.86,-0.863 0.117,-0.211 0.058,-0.481 0.015,-0.715 -0.39,-2.11 -1.031,-4.172 -1.308,-6.297 -0.743,-5.617 -0.926,-11.305 -1.754,-16.906 -1.172,-7.93 -3.067,-15.735 -4.246,-23.66 -1.039,-7.004 -1.84,-14.043 -2.403,-21.102 -0.238,-3.039 -0.312,-6.113 0,-9.145 0.098,-0.945 1.028,-1.652 1.211,-2.585 0.254,-1.293 0.184,-2.637 0.082,-3.954 -0.504,-6.464 -1.062,-12.929 -1.898,-19.363 -0.469,-3.605 -1.555,-7.113 -2.008,-10.723 -0.219,-1.726 -0.145,-3.488 0,-5.222 0.039,-0.465 0.453,-0.836 0.547,-1.293 0.09,-0.438 0.164,-0.926 0,-1.344 -0.149,-0.379 -0.496,-0.687 -0.863,-0.863 -0.313,-0.149 -0.786,-0.285 -1.032,-0.047 -0.597,0.582 -1.093,1.371 -1.187,2.199" style="fill:#000000;fill-opacity:1;fill-rule:nonzero;stroke:none;stroke-width:0.77526" id="path2266" />
         <g id="g2268" transform="scale(1,-1)" style="stroke-width:0.77526">
            <path d="m 676.648,-158.031 c 1.87844,-0.68268 1.74885,2.39684 2.28074,3.59074 0.52425,1.38033 -0.02,2.86111 0.33947,4.28136 0.1591,1.94307 -0.55474,3.86366 -0.22455,5.81091 -0.0178,1.70487 -0.0635,3.43211 0.18329,5.12903" style="fill:none;stroke:#000000;stroke-width:2.0276;stroke-linecap:round;stroke-linejoin:round;stroke-miterlimit:10;stroke-dasharray:none;stroke-opacity:1" id="path2270" />
         </g>
         <g id="g2272" transform="scale(1,-1)" style="stroke-width:0.77526">
            <path d="m 683.711,-137.324 c 65.37291,3.32233 130.80343,8.15351 196.242,10.824 0.48518,-0.0326 -0.0652,-0.0551 0.859,-0.148 1.02378,-0.16499 0.53232,0.0469 0.481,-0.086 -0.0466,0.0539 0.0394,0.15888 0.094,-0.235 0.59256,-0.58259 0.54283,-3.29901 0.2873,-4.8078 -0.41461,-2.05211 -0.0439,-5.52411 -0.1003,-6.8212 -0.0189,-0.4824 0.0582,-0.56419 -0.008,-0.711 0.44138,-0.16657 -0.095,-0.23717 0.157,-0.234 0.0656,-0.12305 0.27287,-0.0383 0.32,-0.203" style="fill:none;stroke:#000000;stroke-width:2.0276;stroke-linecap:round;stroke-linejoin:round;stroke-miterlimit:10;stroke-dasharray:none;stroke-opacity:1" id="path2274" />
         </g>
         <g id="g2276" transform="scale(1,-1)" style="stroke-width:0.77526">
            <path d="m 880.98,-138.16 c -1.50613,-0.63666 -0.63471,-2.43687 -0.22773,-3.52554 0.41652,-1.03588 0.29792,-2.39298 1.64924,-2.54138" style="fill:none;stroke:#000000;stroke-width:2.0276;stroke-linecap:round;stroke-linejoin:round;stroke-miterlimit:10;stroke-dasharray:none;stroke-opacity:1" id="path2278" />
         </g>
         <g id="g2280" transform="scale(1,-1)" style="stroke-width:0.77526">
            <path d="m 882.754,-138.609 c 0.0374,1.64944 0.51415,3.53804 0.71218,5.30198 0.93405,6.08676 1.62347,12.21595 2.26876,18.33252 0.5065,1.56872 0.18287,-0.23325 -0.23161,0.89507 -0.68577,1.96142 -1.99731,3.75471 -3.41522,5.31058 -2.50087,2.61818 -5.6504,4.48047 -8.39711,6.81585 -0.49414,-0.1202 -0.59623,0.48456 -0.57,0.183" style="fill:none;stroke:#000000;stroke-width:2.0276;stroke-linecap:round;stroke-linejoin:round;stroke-miterlimit:10;stroke-dasharray:none;stroke-opacity:1" id="path2282" />
         </g>
         <g id="g2284" transform="scale(1,-1)" style="stroke-width:0.77526">
            <path d="m 672.324,-116.344 c 0.57845,0.67961 -0.0622,3.9753 2.30778,4.29452 1.76303,0.56386 2.9078,-0.1879 4.17936,-1.20042 1.40912,-1.20492 3.79287,0.0965 5.61759,-0.1491 1.48507,-0.37802 1.83164,0.83844 1.6304,1.43308 1.59009,1.27874 4.24242,0.23998 6.23476,0.85223 12.11844,1.46472 24.29367,2.41344 36.49308,2.8289 3.02662,0.13393 6.05302,0.27859 9.07603,0.47979" style="fill:none;stroke:#000000;stroke-width:2.0276;stroke-linecap:round;stroke-linejoin:round;stroke-miterlimit:10;stroke-dasharray:none;stroke-opacity:1" id="path2286" />
         </g>
         <g id="g2288" transform="scale(1,-1)" style="stroke-width:0.77526">
            <path d="m 737.863,-107.805 c 26.992,1.465 88.711,4.809 131.492,6.551 l 0.071,0.016 0.062,0.023 0.063,0.008 0.051,-0.008 h 0.046 l 0.02,0.004 0.004,0.004 0.004,0.008 h 0.008 l 0.011,0.004 -0.011,0.004 -0.043,0.035 -0.02,-0.008 -0.016,-0.031 0.012,-0.004 -0.14,-0.008 -0.055,-0.027 0.062,-0.008 -0.004,-0.035 0.04,0.023 0.074,0.004 0.066,0.004 -0.035,-0.02 -0.016,0.008 -0.004,0.02 -0.007,0.011 0.062,0.008 0.028,0.043 -0.063,-0.004 0.008,-0.019 -0.02,0.035 -0.004,-0.008 h -0.027 l -0.105,0.004 -0.036,0.039 h 0.086 l 0.047,-0.047 0.18,-0.008 0.32,-0.007 0.219,-0.004 -0.012,-0.043 0.168,-0.028 0.16,0.039 0.141,0.004 0.172,0.004 0.187,-0.011 0.09,0.046 0.047,0.024 0.059,-0.012 0.09,-0.004 0.082,-0.004 -0.004,0.004 0.058,-0.012 0.067,-0.007 0.031,0.007 h 0.203 l 0.074,0.004 0.09,-0.046 0.106,-0.016 0.086,0.047 0.085,-0.004 0.106,0.004 0.059,-0.016 0.039,-0.012 0.05,0.008 0.047,0.016 0.039,0.004 0.028,0.023 0.043,-0.004 0.011,0.028 0.032,0.004 0.023,-0.012 -0.02,0.012 -0.015,0.003 -0.016,0.016 h -0.133 l -0.043,0.059 0.075,-0.024 0.011,-0.023 0.036,0.004 0.019,-0.004 0.106,-0.004 0.054,-0.031 0.004,-0.02 0.016,-0.004 -0.035,0.012 -0.028,0.004 -0.066,-0.008 -0.098,-0.004 0.028,0.024 0.058,-0.012 0.027,-0.035 0.032,-0.02 0.039,-0.027 -0.051,-0.059 0.012,-0.074 0.133,-0.066" style="fill:none;stroke:#000000;stroke-width:2.0276;stroke-linecap:round;stroke-linejoin:round;stroke-miterlimit:10;stroke-dasharray:none;stroke-opacity:1" id="path2290" />
         </g>
         <g id="g2292" transform="scale(1,-1)" style="stroke-width:0.77526">
            <path d="m 675.184,-118.633 h 0.109 l 0.016,0.024 0.015,-0.004 0.02,-0.012 0.035,-0.027 v -0.016 h 0.019 l 0.04,-0.012 h 0.046 c 65.774,0.164 136.246,6.992 204.844,8.981 l 0.11,0.004 h 0.105 l 0.105,0.004 0.094,-0.016 0.043,-0.004 0.059,-0.027 0.066,-0.016 0.059,0.027 h 0.058 l 0.047,0.004 0.137,-0.004 0.078,0.032 -0.055,-0.032 -0.011,-0.023 -0.024,0.039 -0.023,0.008 h -0.129 l -0.039,0.058 0.019,0.008 -0.015,-0.031 -0.016,-0.012 h -0.019 l -0.004,-0.004 h 0.004 l 0.007,-0.015 -0.004,-0.016 v -0.012 0.012 l 0.008,-0.004 0.063,-0.019 0.035,-0.008 -0.039,0.008 h 0.019 l -0.004,0.023 -0.156,0.004 -0.078,-0.043 0.125,-0.019 0.051,-0.039 0.062,-0.047 0.055,-0.028 0.106,-0.047 0.109,-0.058 0.031,-0.086 0.051,-0.074 0.059,-0.055 0.183,-0.184" style="fill:none;stroke:#000000;stroke-width:2.0276;stroke-linecap:round;stroke-linejoin:round;stroke-miterlimit:10;stroke-dasharray:none;stroke-opacity:1" id="path2294" />
         </g>
         <path d="m 696.008,242.547 c 0.433,0.414 0.804,0.906 1.301,1.242 0.187,0.125 0.449,0.082 0.675,0.086 2.828,0.027 5.672,0.238 8.493,0 7.804,-0.664 15.546,-1.918 23.339,-2.703 16.653,-1.684 33.325,-3.203 49.996,-4.699 17.262,-1.551 34.532,-3.067 51.813,-4.453 6.32,-0.504 12.703,-0.368 18.984,-1.223 7.868,-1.067 15.633,-2.793 23.375,-4.535 0.567,-0.125 1.332,-0.453 1.399,-1.032 0.074,-0.628 -0.582,-1.187 -1.106,-1.546 -0.3,-0.211 -0.742,-0.051 -1.105,0.019 -7.582,1.426 -15.059,3.449 -22.703,4.469 -7.399,0.988 -14.895,0.933 -22.332,1.539 -18.332,1.492 -36.649,3.105 -54.965,4.754 -14.457,1.297 -28.906,2.648 -43.352,4.086 -4.547,0.453 -9.07,1.152 -13.621,1.59 -6.676,0.644 -13.379,0.964 -20.047,1.656 -0.187,0.019 -0.293,0.273 -0.328,0.457" style="fill:#000000;fill-opacity:1;fill-rule:nonzero;stroke:none;stroke-width:0.77526" id="path2296" />
         <g id="g2298" transform="scale(1,-1)" style="stroke-width:0.77526">
            <path d="m 874.363,-223.965 c 0.15465,3.74505 0.97528,7.98197 1.2682,11.91195 2.67313,22.87843 4.76212,45.8236 6.45055,68.79421 -0.43371,-0.18911 0.10808,0.87727 -0.17575,0.47784" style="fill:none;stroke:#000000;stroke-width:2.0276;stroke-linecap:round;stroke-linejoin:round;stroke-miterlimit:10;stroke-dasharray:none;stroke-opacity:1" id="path2300" />
         </g>
         <g id="g2302" transform="scale(1,-1)" style="stroke-width:0.77526">
            <path d="m 788.3622,-145.95138 c 28.37223,1.65992 58.00834,6.95828 82.72133,7.60592 -0.55239,0.0755 0.093,-0.0819 -0.19653,-0.22854" style="fill:none;stroke:#000000;stroke-width:2.0276;stroke-linecap:round;stroke-linejoin:round;stroke-miterlimit:10;stroke-dasharray:none;stroke-opacity:1" id="path2304" sodipodi:nodetypes="ccc" />
         </g>
         <g id="g2306" transform="scale(1,-1)" style="stroke-width:0.77526">
            <path d="m 788.3622,-145.95138 c 0.43785,-1.48578 1.5558,-10.21928 1.45902,-12.96662 -0.82689,-20.63127 0.46703,-41.27566 -0.13722,-61.91 -0.1868,-1.14374 0.004,-2.89347 0.11454,-3.0128 0.73414,-1.43382 1.17238,-2.61713 2.8487,-1.57351 24.66853,2.97354 49.66985,1.72319 74.32184,4.81726 -0.35695,0.0335 1.30194,0.15613 0.62492,0.042" style="fill:none;stroke:#000000;stroke-width:2.0276;stroke-linecap:round;stroke-linejoin:round;stroke-miterlimit:10;stroke-dasharray:none;stroke-opacity:1" id="path2308" sodipodi:nodetypes="ccccccc" />
         </g>
         <g id="g2310" transform="scale(1,-1)" style="stroke-width:0.77526">
            <path d="m 867.527,-221.137 v -0.004 l -0.007,0.012 h -0.016 l -0.02,0.008 h 0.004 l -0.086,-0.027 -0.027,-0.036 0.035,0.004 v 0.024 l 0.039,0.004 0.008,-0.016 h -0.004 l 0.067,-0.02 0.023,0.02 -0.059,-0.016 -0.004,-0.027 -0.007,-0.008 -0.004,0.004 -0.016,0.012 h 0.063 l 0.046,0.004 -0.031,0.011 -0.011,0.008 v 0.02 l -0.004,0.019 -0.11,0.012 -0.062,-0.016 0.054,0.012 0.036,0.004 0.015,-0.008 0.012,0.004 0.059,0.004 0.066,0.02 -0.039,-0.004 h -0.02 l 0.028,0.008 0.004,0.023 0.011,0.016 0.035,0.023 0.02,0.039 -0.004,0.016 0.02,0.039 0.031,0.039 0.012,0.035 0.007,0.027 0.004,0.051 0.016,0.024 0.023,0.031 -0.007,0.027 -0.004,0.047 -0.028,0.043 -0.054,0.063 -0.024,0.074 0.028,0.062 v 0.125 l -0.004,0.078 -0.036,0.075 -0.011,0.093 0.023,0.106 -0.008,0.117 -0.019,0.113 -0.02,0.121 -0.027,0.137 0.051,0.125 0.011,0.133 -0.046,0.137 -0.012,0.132 -0.027,0.145 -0.008,0.156 -0.145,0.133 -0.055,0.156 0.079,0.145 0.011,0.172 0.012,0.148 c -2.023,25.867 7.012,50.309 6.313,75.27 l -0.016,0.047 0.031,0.007 -0.008,0.008 -0.011,0.02 -0.012,0.015 -0.008,0.039 -0.008,0.047 -0.039,0.055 -0.031,0.047 0.012,0.066 -0.004,0.055 v 0.023 l -0.004,0.016 0.035,0.008 0.024,0.011 -0.02,0.032 -0.023,0.015 -0.004,-0.023 -0.008,-0.016 v -0.004 l -0.016,-0.043 0.016,0.004 0.015,0.02 -0.023,-0.008 v -0.02 h -0.02 l -0.125,0.004 h -0.019 l 0.066,-0.023 0.024,0.016 0.019,0.011 0.121,0.012 0.059,0.039 -0.066,0.016 -0.004,-0.028 -0.004,-0.019 -0.004,-0.012 -0.039,0.004 v 0.012 l 0.008,-0.012 0.011,-0.004 -0.004,-0.004 -0.019,0.012 v 0.008 l 0.004,0.008 0.023,0.027 -0.023,0.012 v -0.028 l -0.031,-0.008 -0.004,-0.015 0.011,0.019 0.024,0.028 -0.024,0.051 0.004,-0.016 0.004,-0.027 0.004,0.027 0.016,-0.016 v -0.004 l -0.008,-0.011 -0.008,0.043 -0.019,0.093 0.003,0.114 0.028,0.125 -0.008,0.109 -0.016,0.137 -0.023,0.168 -0.027,0.164 -0.012,0.133 0.023,0.121 -0.039,0.132 -0.062,0.114 0.039,0.094 -0.016,0.085 v 0.125 l 0.09,0.043 0.035,0.039 h -0.051 l -0.031,0.028 -0.012,0.058 -0.007,0.024 -0.137,0.055 h 0.027 l 0.039,0.019 -0.004,0.027 0.004,0.016 v 0.023 l 0.004,0.047 h 0.004 l -0.008,-0.023 v -0.016 l -0.004,-0.008 0.043,-0.019 0.032,0.039 -0.063,-0.02 v -0.082 l -0.008,0.016 0.016,0.008 -0.102,-0.012 -0.062,-0.031 0.09,-0.012 -0.004,0.039 0.012,-0.015 h 0.043 l -0.016,0.043 0.012,0.011 0.004,0.008 0.003,0.016 0.004,0.008 0.004,0.003 v -0.015 h 0.004 v -0.004 l 0.043,0.012 0.016,-0.004 -0.047,-0.024 0.004,0.004 -0.02,0.047 -0.062,0.063 -0.137,0.082 -0.199,0.109 -0.051,0.098 0.004,0.078 -0.051,0.066 -0.035,0.07 -0.043,0.063 0.004,0.066 -0.02,0.075 -0.035,0.019 -0.015,-0.019 -0.008,0.019 v 0.016 l -0.004,-0.004 0.129,-0.004 0.008,0.019 h -0.122 l -0.074,-0.003 -0.05,0.015 -0.032,-0.004 -0.168,0.008 -0.109,0.031 0.062,-0.011 0.004,0.031 -0.007,0.004 0.003,-0.016 0.008,0.016 -0.023,0.078 -0.039,0.031 -0.047,-0.019 -0.059,0.019 -0.043,0.028 -0.019,-0.008 -0.016,-0.028 -0.027,0.004 -0.008,0.028 v 0.031 l 0.008,-0.004 -0.004,-0.004 0.004,-0.019 0.015,-0.028 0.004,0.02 0.008,-0.02 -0.004,-0.004 -0.019,0.004 -0.004,0.031 0.023,0.02 0.012,-0.016 0.004,-0.004 v -0.003 l -0.024,0.007 -0.046,0.043 -0.028,-0.004 h -0.051 l -0.046,0.039 -0.028,0.036 -0.058,0.015 -0.051,0.012 -0.078,0.008 -0.008,0.004 -0.039,0.023 -0.024,0.004 h -0.218 l -0.094,-0.051 0.129,0.008 h -0.039 l 0.011,-0.031 0.012,0.015 h 0.016 l 0.051,-0.003 0.011,0.015 -0.035,-0.019 -0.023,-0.047 -0.051,-0.043 -0.016,-0.039 -0.121,-0.028 -0.074,-0.062 0.062,-0.039 -0.015,-0.02" style="fill:none;stroke:#000000;stroke-width:2.0276;stroke-linecap:round;stroke-linejoin:round;stroke-miterlimit:10;stroke-dasharray:none;stroke-opacity:1" id="path2312" />
         </g>
         <g id="g2314" transform="scale(1,-1)" style="stroke-width:0.77526">
            <path d="m 717.934,-180.824 c 8.46936,8.76721 24.9447,11.27389 32.67704,0.19778 6.7445,-9.51784 -1.10584,-22.98363 -10.94889,-26.78579 -10.5308,-5.49853 -25.9749,0.88438 -26.29675,13.712 -0.42776,6.09622 2.20253,12.30088 6.83365,16.27801" style="fill:none;stroke:#000000;stroke-width:2.0276;stroke-linecap:round;stroke-linejoin:round;stroke-miterlimit:10;stroke-dasharray:none;stroke-opacity:1" id="path2316" />
         </g>
         <g id="g2318" transform="scale(1,-1)" style="stroke-width:0.77526">
            <path d="m 703.094,-162.336 0.004,0.012 0.004,0.008 0.003,0.015 0.004,-0.004 h 0.016 l 0.008,-0.019 h 0.008 l 0.015,-0.004 0.012,-0.004 h 0.059 l 0.011,-0.004 h 0.028 l 0.011,-0.008 0.024,-0.008 0.008,0.016 0.007,0.004 0.004,-0.008 v 0.008 l -0.004,0.012 h -0.004 l -0.003,0.004 -0.004,0.011 -0.004,0.02 -0.008,0.004 h 0.004 v -0.012 l -0.008,0.008 -0.004,0.012 0.004,0.023 0.078,0.008 0.063,0.012 -0.051,0.007 -0.008,-0.007 -0.012,0.015 0.004,0.027 0.039,0.032 -0.027,0.011 -0.035,0.008 0.012,0.043 v 0.043 l 0.003,0.016 0.004,0.019 -0.007,0.028 v 0.004 l 0.023,0.035 -0.012,0.054 0.035,0.043 0.008,0.004 -0.011,0.02 -0.012,0.012 0.027,0.011 0.02,0.012 0.015,0.035 0.012,0.039 0.027,0.016 0.106,0.015 0.051,0.004 -0.036,0.008 0.004,0.012 0.008,0.016 v 0.015 l 0.008,0.028 0.02,0.027 0.027,0.035 0.039,0.027 0.016,0.036 0.027,0.027 0.07,0.031 -0.027,0.012 -0.027,0.027 0.042,0.039 0.032,0.039 0.015,0.016 0.02,0.031 0.234,0.012 0.141,0.055 -0.137,0.027 0.031,-0.012 0.008,0.059 v 0.074 l 0.039,0.051 -0.05,0.039 -0.02,0.047 0.027,0.035 0.036,0.031 0.039,0.055 0.027,0.043 0.012,0.039 0.046,0.027 0.055,0.047 0.059,0.031 0.043,0.012 0.051,0.035 0.062,0.028 0.047,0.031 0.043,0.027 0.055,0.024 0.054,0.039 0.074,0.031 -0.035,0.043 0.035,0.035 0.125,0.027 0.075,0.012 0.07,0.031 0.082,0.059 0.039,0.055 0.043,0.039 0.066,0.015 0.063,0.028 0.055,0.039 0.043,0.047 0.039,0.019 -0.004,0.031 0.023,0.024 0.067,0.023 0.058,0.008 0.043,0.02 0.051,0.019 0.121,0.02 0.094,0.05 -0.024,0.024 0.028,0.015 0.043,0.024 0.035,0.019 v 0.04 l -0.067,0.027 0.024,0.035 0.109,0.02 0.082,0.031 0.051,0.027 0.055,0.043 0.117,0.031 0.098,0.043 v 0.047 l 0.031,0.051 0.051,0.047 0.047,0.019 0.082,0.036 0.168,0.031 -0.008,0.035 -0.055,-0.008 0.031,0.024 0.032,0.054 0.011,0.039 -0.082,0.024 v 0.031 l 0.121,0.016 0.094,0.062 0.031,0.02 0.106,0.023 0.086,0.051 -0.024,0.027 0.043,0.031 0.063,0.012 0.054,0.035 0.051,0.043 0.059,0.036 0.047,0.035 0.035,0.031 0.078,0.039 0.047,0.055 v 0.054 l -0.016,0.047 0.051,0.031 0.105,0.047 0.032,0.02 0.031,0.023 0.035,0.028 0.043,0.023 0.035,0.043 0.031,0.031 0.043,0.012 0.051,0.008 0.074,0.012 0.055,0.023 -0.008,0.023 0.028,0.024 0.05,0.051 0.028,0.007 0.031,0.024 0.039,0.004 0.031,0.004 0.032,0.027 0.043,0.024 0.054,0.027 -0.113,0.023 0.008,0.035 0.152,0.02 0.078,0.012 0.059,0.019 0.058,0.024 0.125,0.027 0.102,0.035 -0.012,0.028 0.055,-0.004 0.047,0.035 -0.004,0.054 0.047,0.032 0.086,0.007 0.047,0.024 -0.008,0.019 0.015,-0.043 0.04,-0.011 0.011,0.051 0.039,0.023 -0.043,0.02 -0.015,-0.004 0.062,0.035 0.055,0.012 0.035,-0.02 0.035,0.016 0.16,0.015 0.125,0.008 -0.039,0.008 0.02,0.023 0.004,0.016 0.008,0.016 0.023,0.011 0.039,0.008 0.051,0.023 v 0.008 l 0.035,0.02 0.07,0.023 0.055,0.008 0.039,0.02 0.039,0.027 0.051,0.027 0.039,0.051 0.051,0.035 0.051,0.02 0.003,0.011 0.036,0.02 0.058,0.016 0.035,0.015 0.063,0.02 0.082,0.023 0.121,0.028 0.125,0.027 0.019,0.031 0.016,0.012 0.051,0.008 0.039,0.023 0.035,0.016 0.133,0.015 0.09,0.043 -0.032,0.024 0.043,-0.012 0.028,0.051 0.043,0.051 0.023,0.058 -0.109,0.028 -0.004,0.015 0.117,0.024 0.051,0.015 0.031,0.012 0.016,0.012 0.16,0.008 0.125,0.027 -0.066,0.016 0.019,0.007 0.02,0.024 0.019,0.027 0.035,0.024 0.071,0.011 0.043,0.043 0.003,0.016 0.02,0.008 0.062,0.035 0.051,0.043 -0.121,0.047 0.012,0.027 0.156,0.016 0.07,0.066 0.063,0.047 0.062,0.023 0.098,0.016 0.121,0.035 0.039,0.039 0.008,0.012 0.047,0.039 0.074,0.027 0.051,0.028 0.039,0.023 0.059,0.027 0.074,0.043 h 0.051 l 0.054,0.02 0.051,0.035 0.07,0.043 0.071,0.039 0.043,0.016 0.047,0.039 0.05,0.031 0.067,0.016 0.043,0.043 -0.028,0.043 0.028,0.035 0.09,0.047 0.078,0.05 0.043,0.024 0.05,0.027 0.149,0.043 0.062,0.059 -0.031,0.023 0.039,0.031 0.031,0.032 0.028,0.011 0.031,0.012 0.074,0.02 0.004,0.027 -0.019,0.02 0.011,0.023 -0.004,0.047 0.004,0.012 -0.086,0.019 0.012,0.008 0.102,0.008 0.004,0.051 0.039,0.019 0.039,0.012 0.105,0.015 0.153,0.02 0.011,0.027 -0.015,-0.011 0.062,0.003 0.055,0.059 0.039,0.059 h -0.129 l 0.004,0.039 0.133,0.015 0.035,-0.011 0.031,0.004 0.031,0.035 0.059,0.035 -0.051,0.012 0.016,0.035 0.097,0.023 0.063,0.012 0.051,0.008 0.066,0.019 0.129,0.008 0.059,0.039 h -0.043 l 0.039,0.02 0.043,0.023 0.015,0.02 0.067,0.019 0.054,0.008 -0.011,0.027 0.027,0.02 0.047,0.031 0.031,0.012 0.02,0.019 -0.008,0.008 0.015,0.024 0.063,0.003 0.051,0.051 0.051,0.047 0.066,0.008 -0.047,0.012 0.004,0.019 0.082,-0.004 0.059,0.008 0.066,0.012 0.039,0.015 0.129,0.012 0.137,0.004 0.008,0.008 v -0.016 h 0.007 l 0.032,0.028 0.023,0.019 0.02,0.024 0.039,0.043 0.047,0.023 0.05,0.004 0.02,0.008 0.039,0.031 0.074,0.012 -0.047,0.027 -0.027,0.004 0.09,0.035 0.058,-0.016 h 0.035 l 0.051,0.02 0.219,0.019 0.098,-0.023 -0.047,0.02 0.004,0.007 -0.004,0.012 0.011,0.031 -0.031,0.039 -0.023,0.032 0.047,0.023 0.074,0.027 0.062,0.032 0.055,0.015 0.051,0.032 0.082,0.027 0.082,0.031 0.039,0.051 0.055,0.074 0.082,0.035 0.066,0.008 0.031,0.027 0.082,0.024 0.11,0.027 h 0.047 l 0.054,0.02 0.071,0.047 0.101,0.039 -0.023,0.035 0.043,0.047 0.133,0.015 0.093,0.036 0.082,0.039 0.071,0.047 0.086,0.039 0.07,0.05 0.078,0.035 0.098,0.02 0.105,0.027 0.09,0.043 0.094,0.016 0.023,0.043 0.02,0.035 0.062,0.024 0.086,0.007 0.074,0.004 0.059,0.028 0.148,0.019 0.114,0.035 v 0.004 l 0.039,0.004 h 0.054 l 0.059,0.024 -0.023,0.007 -0.168,-0.011 0.05,0.019 h 0.18 l 0.043,0.043 0.047,0.012 0.039,0.008 -0.035,-0.008 0.027,-0.008 0.063,-0.004 0.015,0.035 0.012,-0.008 0.023,-0.007 0.094,-0.004 0.016,-0.031 -0.074,-0.02 h -0.02 l 0.004,0.016 h -0.016 l -0.172,-0.004 -0.078,-0.035 0.102,0.007 0.039,0.039 0.043,0.012 h 0.004 l 0.004,-0.012 0.015,-0.003 0.008,0.015 -0.019,-0.004 0.008,-0.015 0.035,0.004 0.007,-0.004 0.075,0.004 0.007,-0.008 h -0.039 l 0.008,-0.02 -0.004,0.004 -0.007,0.02 h 0.039 l 0.015,0.011 0.02,0.008 0.062,0.027 0.102,0.012 0.082,0.012 0.047,0.019 0.031,0.008 0.016,0.008 0.019,0.008 0.02,0.004 0.015,0.004 v -0.008 l -0.019,-0.004 -0.012,-0.004 -0.008,-0.008 0.008,-0.011 0.031,-0.008 0.004,-0.032 -0.012,-0.027 -0.003,-0.008 -0.008,-0.004 0.011,-0.023 -0.113,-0.027" style="fill:none;stroke:#000000;stroke-width:2.0276;stroke-linecap:round;stroke-linejoin:round;stroke-miterlimit:10;stroke-dasharray:none;stroke-opacity:1" id="path2320" />
         </g>
         <g id="g2322" transform="scale(1,-1)" style="stroke-width:0.77526">
            <path d="m 697.996,-167.492 c 8.0557,7.47316 17.82327,14.32355 28.72545,16.45003 12.39182,1.50626 25.81939,0.86746 36.02962,-7.18546 12.83875,-7.46849 17.13261,-23.11389 15.58414,-37.10164 -0.0342,-15.02901 -9.48812,-30.35266 -24.60244,-34.19065 -17.86807,-7.34956 -41.40231,-6.95656 -54.89291,8.5761 -12.63356,15.19478 -12.24045,39.2288 -0.21738,54.68901 1.94458,2.55365 5.22163,3.28652 8.17052,3.93061" style="fill:none;stroke:#000000;stroke-width:2.0276;stroke-linecap:round;stroke-linejoin:round;stroke-miterlimit:10;stroke-dasharray:none;stroke-opacity:1" id="path2324" />
         </g>
         <g id="g2426" transform="scale(1,-1)" style="stroke-width:0.77526">
            <path d="m 752.336,-202.812 -0.004,0.003 h -0.105 l -0.122,-0.035 0.114,-0.004 0.011,-0.047 0.055,-0.035 h 0.02 l -0.02,-0.039 -0.09,-0.035 0.012,-0.058 0.074,-0.04 0.02,-0.066 0.015,-0.062 v -0.051 l 0.106,-0.043 0.043,-0.067 -0.082,-0.054 -0.035,-0.094 -0.02,-0.066 -0.043,-0.059 -0.152,-0.07 -0.09,-0.098 0.023,-0.082 -0.027,-0.09 -0.051,-0.105 -0.035,-0.106 -0.035,-0.121 -0.066,-0.117 -0.059,-0.125 -0.059,-0.117 -0.046,-0.11 -0.055,-0.109 -0.071,-0.129 0.032,-0.125 0.051,-0.105 -0.083,-0.094 -0.124,-0.117 -0.094,-0.141 -0.094,-0.133 -0.051,-0.125 -0.105,-0.129 -0.129,-0.148 -0.094,-0.152 -0.094,-0.137 -0.093,-0.172 -0.129,-0.152 -0.09,-0.168 -0.117,-0.18 -0.133,-0.176 -0.094,-0.18 -0.121,-0.183 -0.152,-0.18 -0.16,-0.176 -0.192,-0.199 -0.199,-0.187 -0.192,-0.192 -0.203,-0.195 -0.191,-0.195 -0.219,-0.196 -0.183,-0.215 -0.211,-0.214 -0.266,-0.219 -0.25,-0.227 -0.258,-0.207 -0.246,-0.207 -0.34,-0.207 -0.402,-0.215 -0.242,-0.234 -0.207,-0.207 -0.258,-0.203 -0.274,-0.207 -0.277,-0.196 -0.422,-0.183 -0.355,-0.219 -0.18,-0.226 -0.258,-0.18 -0.312,-0.188 -0.34,-0.175 -0.297,-0.164 -0.301,-0.172 -0.371,-0.157 -0.426,-0.171 -0.41,-0.161 -0.429,-0.152 -0.407,-0.156 -0.504,-0.149 -0.488,-0.14 -0.359,-0.129 -0.383,-0.113 -0.398,-0.122 -0.403,-0.109 -0.402,-0.07 -0.422,-0.102 -0.43,-0.078 -0.433,-0.023 -0.422,-0.035 -0.418,-0.032 -0.426,-0.031 -0.5,-0.027 -0.504,-0.016 -0.406,0.004 h -0.442 l -0.472,0.012 -0.438,0.011 -0.332,0.016 -0.402,0.016 -0.527,0.035 -0.547,0.039 -0.555,0.043 -0.539,0.054 -0.555,0.079 -0.59,0.086 -0.585,0.093 -0.528,0.094 -0.515,0.109 -0.528,0.118 -0.531,0.14 -0.57,0.145 -0.52,0.168 -0.449,0.191 -0.438,0.164 -0.445,0.164 -0.476,0.176 -0.469,0.18 -0.43,0.179 -0.387,0.192 -0.386,0.195 -0.383,0.199 -0.363,0.2 -0.34,0.199 -0.34,0.215 -0.36,0.234 -0.351,0.23 -0.352,0.243 -0.336,0.234 -0.332,0.231 -0.289,0.246 -0.297,0.246 -0.355,0.261 -0.332,0.293 -0.297,0.301 -0.289,0.301 -0.305,0.309 -0.394,0.324 -0.281,0.34 -0.161,0.316 -0.195,0.332 -0.18,0.356 -0.203,0.367 -0.051,0.371 -0.152,0.379 -0.332,0.383 -0.266,0.417 -0.253,0.418 -0.247,0.403 -0.261,0.418 -0.153,0.441 -0.191,0.442 -0.258,0.457 -0.187,0.468 -0.168,0.461 -0.18,0.434 -0.191,0.473 -0.161,0.496 -0.085,0.484 -0.098,0.461 -0.078,0.465 -0.067,0.469 0.016,0.484 v 0.488 l -0.051,0.52 -0.043,0.551 -0.015,0.543 0.007,0.519 0.036,0.508 0.027,0.492 0.078,0.481 0.109,0.468 0.11,0.477 0.129,0.453 0.14,0.453 0.172,0.461 0.141,0.473 0.133,0.476 0.187,0.457 0.168,0.485 0.168,0.5 0.145,0.492 0.136,0.515 0.16,0.504 0.211,0.512 0.2,0.52 0.195,0.523 0.215,0.508 0.355,0.504 0.313,0.504 0.133,0.504 0.211,0.496 0.25,0.515 0.261,0.52 0.27,0.5 0.222,0.488 0.196,0.488 0.273,0.481 0.297,0.488 0.309,0.488 0.336,0.497 0.164,0.519 0.277,0.488 0.445,0.446 0.364,0.464 0.355,0.438 0.363,0.41 0.45,0.402 0.441,0.383 0.336,0.371 0.32,0.348 0.321,0.367 0.332,0.375 0.312,0.348 0.176,0.363 0.262,0.332 0.418,0.336 0.359,0.36 0.289,0.343 0.316,0.356 0.309,0.355 0.223,0.375 0.371,0.367 0.492,0.36 0.418,0.363 0.43,0.316 0.425,0.325 0.578,0.316 0.512,0.32 0.313,0.325 0.386,0.265 0.414,0.223 0.434,0.219" style="fill:none;stroke:#000000;stroke-width:1.0138;stroke-linecap:round;stroke-linejoin:round;stroke-miterlimit:10;stroke-dasharray:none;stroke-opacity:1" id="path2428" />
         </g>
         <g id="g2430" transform="scale(1,-1)" style="stroke-width:0.77526">
            <path d="m 746.742,-169.98 c 9.46531,-6.13466 14.714,-16.84047 15.3135,-27.92206 2.55769,-9.82846 -3.35611,-19.66112 -12.62915,-23.17392 -13.01069,-6.31157 -30.57584,-1.92858 -37.50844,11.24864 -7.40776,9.18308 -7.21152,22.38757 0.93812,30.9559 8.37809,12.21739 25.92311,18.40987 39.22064,10.45466 8.94411,-4.5577 13.50236,-15.62646 9.72787,-25.0856 -3.28461,-14.25663 -15.6768,-26.79042 -30.96294,-26.38296 -13.7449,-1.13772 -25.36993,9.78095 -29.62767,22.05018 -1.76621,11.09565 5.7416,21.6711 13.74101,28.66005 11.10954,10.02805 30.49252,9.71062 39.57467,-2.87368 9.44755,-11.5199 13.44545,-29.1021 4.26461,-41.9973 -8.61236,-17.34218 -34.6332,-24.37194 -49.16089,-10.24997 -8.48867,6.62604 -13.44934,18.3138 -9.13503,28.73733 4.36439,13.91478 14.12636,29.23445 30.08224,30.49664 11.18944,1.98382 24.00038,-3.05143 27.9666,-14.31461 7.7598,-18.45967 -0.85853,-43.42632 -20.74976,-49.69481 -11.34954,-3.58527 -24.51607,0.83765 -31.03425,10.89804 -10.43082,13.00157 -14.6487,32.39794 -7.01996,47.70032 13.70999,19.70803 47.79053,18.17932 60.34293,-2.10984 8.07471,-12.64131 3.40245,-29.51095 -4.95557,-40.80522 -8.99114,-10.0578 -25.32493,-15.13262 -37.6564,-8.50127 -9.53852,6.84902 -14.88994,18.89876 -15.93179,30.3356 0.61571,13.58352 11.15519,23.88136 20.62635,32.42618 14.54438,11.7606 36.72119,2.66075 44.58365,-12.70469 10.87949,-19.18786 0.0288,-44.95406 -19.40505,-53.78191 -14.16498,-8.08231 -34.24443,-4.12625 -42.48192,10.49841 -10.17964,12.96842 -12.01951,34.30226 1.45168,45.75689 10.48374,10.48222 26.21892,14.63351 40.56698,11.08659 12.98659,-1.88137 27.87481,-9.84164 28.78356,-24.48511 1.965,-17.82478 -7.77934,-37.88495 -24.9702,-44.52875 -19.3666,-6.54992 -42.21076,3.67156 -50.47698,22.34198 -5.25494,9.76686 -5.2762,22.34558 2.18526,31.00218 9.47063,12.2489 26.58854,19.29671 41.5554,13.32596 17.48127,-5.94967 33.38949,-24.31938 28.43263,-43.68744 -3.88825,-15.25785 -20.48221,-23.18259 -34.93246,-24.99551 -14.68564,-2.05534 -30.17448,5.81062 -35.86994,19.76287 -6.7817,12.82265 -4.50909,30.39539 7.67986,39.1597 11.4959,9.47718 29.54422,11.29598 40.58384,-0.12347" style="fill:none;stroke:#000000;stroke-width:1.0138;stroke-linecap:round;stroke-linejoin:round;stroke-miterlimit:10;stroke-dasharray:none;stroke-opacity:1" id="path2432" />
         </g>
         <g id="g2434" transform="scale(1,-1)" style="stroke-width:0.77526">
            <path d="m 723.504,-171.777 c 10.29951,-0.17427 21.4464,2.78265 30.67401,-3.49712 2.20082,-1.2133 4.24995,-2.75312 5.85699,-4.69888" style="fill:none;stroke:#000000;stroke-width:1.0138;stroke-linecap:round;stroke-linejoin:round;stroke-miterlimit:10;stroke-dasharray:none;stroke-opacity:1" id="path2436" />
         </g>
         <g id="g2438" transform="scale(1,-1)" style="stroke-width:0.77526">
            <path d="m 738.902,-165.566 c 12.46811,-3.39016 22.66918,-13.23973 26.2712,-25.63248 0.76574,-3.20888 0.10317,-6.8072 -2.2352,-9.23152" style="fill:none;stroke:#000000;stroke-width:1.0138;stroke-linecap:round;stroke-linejoin:round;stroke-miterlimit:10;stroke-dasharray:none;stroke-opacity:1" id="path2440" />
         </g>
         <g id="g2442" transform="scale(1,-1)" style="stroke-width:0.77526">
            <path d="m 741.719,-161.164 h 0.027 l 0.16,-0.024 0.364,-0.062 0.597,-0.102 0.723,-0.121 0.652,-0.152 0.563,-0.145 0.558,-0.14 0.571,-0.141 0.558,-0.179 0.457,-0.188 0.5,-0.164 0.598,-0.191 0.59,-0.211 0.582,-0.192 0.558,-0.172 0.5,-0.207 0.371,-0.238 0.403,-0.246 0.508,-0.262 0.492,-0.301 0.457,-0.293 0.449,-0.285 0.633,-0.32 0.547,-0.34 0.297,-0.351 0.386,-0.348 0.434,-0.414 0.445,-0.418 0.434,-0.41 0.449,-0.399 0.445,-0.422 0.422,-0.449 0.442,-0.465 0.476,-0.492 0.508,-0.496 0.488,-0.496 0.485,-0.523 0.468,-0.563 0.473,-0.559 0.469,-0.566 0.445,-0.598 0.563,-0.597 0.566,-0.641 0.375,-0.66 0.355,-0.617 0.364,-0.629 0.383,-0.66 0.386,-0.676 0.293,-0.695 0.328,-0.731 0.418,-0.762 0.364,-0.765 0.332,-0.746 0.316,-0.739 0.379,-0.734 0.176,-0.758 0.156,-0.746 0.285,-0.711 0.18,-0.715 0.203,-0.734 0.187,-0.746 0.309,-0.727 0.242,-0.734 0.11,-0.758 0.16,-0.742 0.164,-0.719 0.133,-0.711 0.121,-0.718 0.117,-0.708 0.094,-0.691 0.074,-0.687 0.082,-0.676 0.051,-0.668 0.054,-0.703 0.012,-0.727 0.008,-0.711 0.035,-0.687 -0.004,-0.653 -0.027,-0.617 -0.039,-0.574 -0.106,-0.555 -0.086,-0.551 -0.058,-0.531 -0.098,-0.472" style="fill:none;stroke:#000000;stroke-width:1.0138;stroke-linecap:round;stroke-linejoin:round;stroke-miterlimit:10;stroke-dasharray:none;stroke-opacity:1" id="path2444" />
         </g>
         <g id="g2446" transform="scale(1,-1)" style="stroke-width:0.77526">
            <path d="m 755.52,-176.215 0.019,-0.031 0.125,-0.188 0.258,-0.414 0.344,-0.593 0.398,-0.672 0.445,-0.735 0.379,-0.75 0.364,-0.703 0.281,-0.644 0.426,-0.621 0.359,-0.641 0.168,-0.641 0.238,-0.59 0.196,-0.566 0.179,-0.562 0.16,-0.559 0.141,-0.566 0.098,-0.532 0.058,-0.504 0.047,-0.531 0.039,-0.554 0.016,-0.551 0.039,-0.535 -0.008,-0.567 -0.039,-0.582 -0.031,-0.582 -0.039,-0.594 -0.059,-0.589 -0.09,-0.61 -0.086,-0.601 -0.039,-0.594 -0.051,-0.598 -0.078,-0.605 -0.082,-0.582 -0.015,-0.594 -0.012,-0.637 -0.121,-0.664 -0.152,-0.676 -0.145,-0.64 -0.133,-0.633 -0.148,-0.617 -0.121,-0.606 -0.176,-0.582 -0.215,-0.586 -0.207,-0.609 -0.242,-0.582 -0.238,-0.547 -0.254,-0.551 -0.399,-0.543 -0.351,-0.582 -0.207,-0.543 -0.266,-0.511 -0.281,-0.52 -0.297,-0.539 -0.184,-0.531 -0.215,-0.504 -0.343,-0.496" style="fill:none;stroke:#000000;stroke-width:1.0138;stroke-linecap:round;stroke-linejoin:round;stroke-miterlimit:10;stroke-dasharray:none;stroke-opacity:1" id="path2448" />
         </g>
         <g id="g2450" transform="scale(1,-1)" style="stroke-width:0.77526">
            <path d="m 753.191,-180 0.008,-0.008 0.051,-0.07 0.078,-0.145 0.07,-0.203 0.145,-0.222 0.137,-0.25 0.07,-0.282 0.082,-0.265 0.074,-0.25 0.09,-0.246 0.074,-0.254 0.086,-0.258 0.106,-0.238 0.058,-0.243 0.078,-0.265 0.063,-0.281 0.074,-0.266 0.055,-0.274 0.039,-0.285 0.055,-0.281 0.062,-0.277 0.063,-0.297 0.046,-0.301 -0.011,-0.293 0.051,-0.305 0.109,-0.355 0.086,-0.363 0.066,-0.356 0.074,-0.383 0.145,-0.386 0.133,-0.383 0.051,-0.399 0.019,-0.394 0.063,-0.406 0.035,-0.442 0.012,-0.449 0.113,-0.449 0.062,-0.453 -0.051,-0.453 v -0.454 l 0.004,-0.464 -0.007,-0.457 -0.079,-0.438 -0.101,-0.426 -0.024,-0.449 0.024,-0.457 -0.024,-0.465 -0.031,-0.437 -0.047,-0.446 0.051,-0.468 0.024,-0.5 -0.137,-0.512 -0.074,-0.492 -0.075,-0.457 -0.086,-0.457 -0.078,-0.457 -0.058,-0.43 -0.129,-0.41 -0.149,-0.422 -0.136,-0.422 -0.149,-0.406 -0.121,-0.414 -0.293,-0.375 -0.211,-0.391 -0.051,-0.359 -0.148,-0.336 -0.176,-0.352 -0.168,-0.34 -0.152,-0.343 -0.184,-0.336 -0.203,-0.305 -0.199,-0.281 -0.199,-0.258 -0.199,-0.254 -0.168,-0.25 -0.188,-0.246 -0.262,-0.207 -0.242,-0.207 -0.234,-0.176 -0.215,-0.156 -0.223,-0.141 -0.086,-0.144 -0.152,-0.114 -0.273,-0.086 -0.219,-0.097 -0.18,-0.043 -0.164,-0.031 -0.156,-0.008 -0.203,0.019 -0.082,-0.023 -0.024,0.023 -0.082,0.055" style="fill:none;stroke:#000000;stroke-width:1.0138;stroke-linecap:round;stroke-linejoin:round;stroke-miterlimit:10;stroke-dasharray:none;stroke-opacity:1" id="path2452" />
         </g>
         <g id="g2454" transform="scale(1,-1)" style="stroke-width:0.77526">
            <path d="m 754.273,-184.312 c 0.0937,-2.93437 0.45417,-5.85358 0.59828,-8.76922 -0.41365,-5.05722 -0.51402,-10.98854 -4.73215,-14.53543 -3.33055,-5.37244 -9.88388,-7.2083 -15.5632,-8.96998 -3.93714,-1.10477 -8.00931,-1.84132 -12.11093,-1.78037" style="fill:none;stroke:#000000;stroke-width:1.0138;stroke-linecap:round;stroke-linejoin:round;stroke-miterlimit:10;stroke-dasharray:none;stroke-opacity:1" id="path2456" />
         </g>
         <g id="g2458" transform="scale(1,-1)" style="stroke-width:0.77526">
            <path d="m 701.176,-220.059 -0.008,0.016 -0.066,0.094 -0.262,0.199 -0.27,0.316 -0.062,0.309 -0.172,0.301 -0.16,0.289 -0.156,0.301 -0.004,0.296 -0.043,0.278 -0.203,0.277 -0.18,0.278 -0.145,0.269 -0.125,0.258 -0.105,0.277 -0.067,0.211 -0.058,0.18 -0.043,0.187 -0.067,0.223 -0.074,0.234 -0.09,0.262 -0.086,0.285 -0.128,0.305 -0.122,0.324 -0.125,0.348 -0.156,0.363 -0.113,0.406 -0.148,0.43 -0.126,0.445 -0.148,0.465 -0.16,0.469 -0.18,0.484 -0.219,0.489 -0.207,0.5 -0.179,0.5 -0.18,0.519 -0.168,0.535 -0.176,0.543 -0.168,0.571 -0.172,0.589 -0.187,0.61 -0.141,0.621 -0.172,0.652 -0.183,0.66 -0.168,0.661 -0.195,0.671 -0.176,0.672 -0.203,0.676 -0.16,0.691 -0.141,0.688 -0.121,0.68 -0.067,0.672 -0.086,0.656 -0.035,0.644 -0.004,0.649 -0.015,0.633 0.015,0.656 v 0.66 l -0.023,0.656 0.016,0.649 0.043,0.629 0.05,0.609 0.039,0.594 0.036,0.601 0.031,0.594 0.031,0.57 0.055,0.582 v 0.582 l 0.027,0.567 0.047,0.566 0.02,0.547 0.058,0.531 0.039,0.516 0.063,0.5" style="fill:none;stroke:#000000;stroke-width:1.0138;stroke-linecap:round;stroke-linejoin:round;stroke-miterlimit:10;stroke-dasharray:none;stroke-opacity:1" id="path2460" />
         </g>
         <g id="g2462" transform="scale(1,-1)" style="stroke-width:0.77526">
            <path d="m 693.082,-180.781 v -0.008 l -0.012,-0.059 -0.066,-0.152 -0.082,-0.27 -0.094,-0.324 -0.094,-0.351 -0.004,-0.356 -0.039,-0.359 -0.035,-0.356 -0.074,-0.328 -0.059,-0.344 -0.043,-0.351 -0.058,-0.336 0.008,-0.324 -0.02,-0.324 -0.004,-0.313 v -0.324 l -0.011,-0.313 0.003,-0.332 -0.007,-0.324 0.019,-0.332 0.031,-0.32 0.039,-0.317 0.04,-0.308 0.031,-0.305 0.011,-0.312 0.016,-0.336 0.016,-0.348 0.027,-0.355 0.035,-0.36 0.032,-0.367 0.035,-0.356 0.05,-0.367 0.039,-0.355 -0.023,-0.367 0.031,-0.375 0.039,-0.364 0.047,-0.371 0.11,-0.375 0.062,-0.383 0.051,-0.378 0.047,-0.379 0.054,-0.399 0.043,-0.402 0.039,-0.422 0.051,-0.449 0.051,-0.461 0.051,-0.473 0.055,-0.465 0.066,-0.461 0.074,-0.457 0.063,-0.457 0.078,-0.441 0.062,-0.43 0.047,-0.422 0.067,-0.433 0.074,-0.434 0.109,-0.433 0.137,-0.438 0.141,-0.434 0.203,-0.445 0.175,-0.461 0.168,-0.461 0.168,-0.472 0.118,-0.469 0.148,-0.469 0.16,-0.476 0.215,-0.493 0.187,-0.5 0.219,-0.496 0.207,-0.496 0.192,-0.515 0.222,-0.504 0.145,-0.52 0.23,-0.504 0.25,-0.504 0.266,-0.519 0.336,-0.52 0.308,-0.527 0.29,-0.527 0.296,-0.532 0.301,-0.547 0.309,-0.656 0.39,-0.836 0.356,-0.719 0.328,-0.628 0.305,-0.586 0.297,-0.582 0.308,-0.559 0.301,-0.543 0.285,-0.527 0.277,-0.504 0.344,-0.465 0.309,-0.488 0.273,-0.485 0.305,-0.465 0.293,-0.445 0.308,-0.422 0.309,-0.41 0.391,-0.414 0.367,-0.43 0.305,-0.414 0.339,-0.367 0.344,-0.39 0.356,-0.383 0.343,-0.371 0.352,-0.356 0.328,-0.344 0.297,-0.351 0.316,-0.336 0.321,-0.32 0.289,-0.313 0.308,-0.293 0.282,-0.273 0.273,-0.262 0.277,-0.277 0.301,-0.266 0.289,-0.246 0.071,-0.235 0.175,-0.21 0.391,-0.184 0.312,-0.227 0.274,-0.183 0.262,-0.16" style="fill:none;stroke:#000000;stroke-width:1.0138;stroke-linecap:round;stroke-linejoin:round;stroke-miterlimit:10;stroke-dasharray:none;stroke-opacity:1" id="path2464" />
         </g>
         <g id="g2466" transform="scale(1,-1)" style="stroke-width:0.77526">
            <path d="m 700.457,-213.266 0.016,-0.019 0.062,-0.059 0.098,-0.105" style="fill:none;stroke:#000000;stroke-width:1.0138;stroke-linecap:round;stroke-linejoin:round;stroke-miterlimit:10;stroke-dasharray:none;stroke-opacity:1" id="path2468" />
         </g>
         <g id="g2470" transform="scale(1,-1)" style="stroke-width:0.77526">
            <path d="m 701.371,-214.434 0.012,-0.004 0.047,-0.046 0.101,-0.11 0.157,-0.156 0.175,-0.195 0.199,-0.207 0.2,-0.184 0.148,-0.187 0.168,-0.176 0.203,-0.156 0.18,-0.184 0.203,-0.184 0.223,-0.168 0.203,-0.16 0.207,-0.168 0.223,-0.156 0.21,-0.16 0.235,-0.16 0.258,-0.172 0.269,-0.164 0.055,-0.16 0.215,-0.164 0.453,-0.168 0.387,-0.204 0.351,-0.164 0.313,-0.148 0.324,-0.164 0.328,-0.172 0.352,-0.16 0.39,-0.156 0.395,-0.157 0.797,-0.343 0.937,-0.383 0.41,-0.196 0.414,-0.199 0.442,-0.195 0.476,-0.227 0.453,-0.226 0.45,-0.223 0.558,-0.222 0.567,-0.219 0.515,-0.199 0.531,-0.223 0.571,-0.235 0.699,-0.246 0.656,-0.242 0.5,-0.254 0.531,-0.238 0.598,-0.246 0.617,-0.258 0.621,-0.238 0.688,-0.231 0.625,-0.25 0.535,-0.246 0.594,-0.234 0.664,-0.231 0.676,-0.23 0.597,-0.223" style="fill:none;stroke:#000000;stroke-width:1.0138;stroke-linecap:round;stroke-linejoin:round;stroke-miterlimit:10;stroke-dasharray:none;stroke-opacity:1" id="path2472" />
         </g>
         <g id="g2474" transform="scale(1,-1)" style="stroke-width:0.77526">
            <path d="m 722.141,-228.496 h -0.024 l -0.203,0.023 -0.43,0.067 -0.586,0.136 -0.601,0.176 -0.633,0.168 -0.633,0.184 -0.547,0.191 -0.519,0.176 -0.496,0.172 -0.574,0.187 -0.512,0.196 -0.383,0.195 -0.379,0.187 -0.375,0.204 -0.363,0.234 -0.414,0.238 -0.407,0.239 -0.324,0.238 -0.332,0.238 -0.281,0.235 -0.234,0.242 -0.266,0.265 -0.098,0.285 -0.234,0.266 -0.438,0.266 -0.343,0.32 -0.317,0.305 -0.304,0.308 -0.305,0.328 -0.301,0.352 -0.32,0.313 -0.336,0.316 -0.332,0.375 -0.344,0.383 -0.355,0.402 -0.297,0.418 -0.317,0.406 -0.379,0.403 -0.394,0.425 -0.375,0.461 -0.371,0.481 -0.422,0.484 -0.375,0.508 -0.316,0.512 -0.364,0.508 -0.379,0.546 -0.367,0.579 -0.351,0.589 -0.254,0.641 -0.301,0.66 -0.356,0.664 -0.316,0.676 -0.316,0.684 -0.289,0.691 -0.395,0.688 -0.316,0.73 -0.141,0.734 -0.215,0.754 -0.242,0.789 -0.227,0.817 -0.218,0.82 -0.235,0.836 -0.207,0.848 -0.172,0.863 -0.175,0.855 -0.168,0.868 -0.149,0.886 v 0.879 l -0.031,0.668 -0.027,0.66 -0.102,0.664 -0.152,0.809 -0.117,0.867 -0.122,0.903 -0.109,0.902 -0.09,0.906 -0.07,0.918 -0.043,0.922 -0.035,0.922 -0.024,0.933 -0.015,0.93 v 0.922 l 0.011,0.934 0.032,0.925 0.054,0.903 0.067,0.886 0.09,0.883 0.113,0.848 0.129,0.84 0.148,0.843 0.16,0.852 0.164,0.852 0.204,1.148 0.187,1.09 0.223,0.93 0.246,0.789 0.262,0.75 0.242,0.742 0.238,0.699 0.199,0.656 0.231,0.617 0.308,0.582" style="fill:none;stroke:#000000;stroke-width:1.0138;stroke-linecap:round;stroke-linejoin:round;stroke-miterlimit:10;stroke-dasharray:none;stroke-opacity:1" id="path2476" />
         </g>
         <g id="g2478" transform="scale(1,-1)" style="stroke-width:0.77526">
            <path d="m 706.645,-170.289 v -0.023 l -0.055,-0.165 -0.152,-0.359 -0.188,-0.5 -0.203,-0.574 -0.215,-0.602 -0.273,-0.562 -0.215,-0.547 -0.156,-0.535 -0.196,-0.52 -0.176,-0.492 -0.152,-0.473 -0.266,-0.461 -0.21,-0.484 -0.106,-0.488 -0.156,-0.477 -0.145,-0.461 -0.121,-0.457 -0.105,-0.472 -0.145,-0.524 -0.105,-0.539 -0.032,-0.527 -0.062,-0.516 -0.047,-0.531 -0.047,-0.512 0.133,-0.515 0.039,-0.532 -0.109,-0.547 -0.008,-0.582 0.008,-0.55 0.019,-0.536 -0.004,-0.574 0.067,-0.609 0.133,-0.606 0.082,-0.613 0.109,-0.633 0.133,-0.648 0.125,-0.656 0.09,-0.661 0.14,-0.679 0.196,-0.676 0.203,-0.676 0.23,-0.687 0.242,-0.68 0.278,-0.688 0.277,-0.691 0.238,-0.723 0.25,-0.746 0.254,-0.75 0.262,-0.765 0.297,-0.735 0.195,-0.718 0.234,-0.719 0.348,-0.715 0.328,-0.711 0.321,-0.684 0.316,-0.66 0.371,-0.691 0.344,-0.676 0.344,-0.652 0.445,-0.653 0.445,-0.668 0.453,-0.667 0.489,-0.645 0.582,-0.629 0.546,-0.641 0.489,-0.625 0.515,-0.574 0.489,-0.566 0.511,-0.57 0.586,-0.551 0.586,-0.539 0.551,-0.532 0.527,-0.543 0.52,-0.554 0.531,-0.535 0.528,-0.485 0.503,-0.476 0.512,-0.457 0.512,-0.414 0.465,-0.387 0.453,-0.36 0.449,-0.332 0.43,-0.324 0.445,-0.281 0.508,-0.277 0.519,-0.27 0.493,-0.246 0.484,-0.199 0.496,-0.153 0.488,-0.152 0.461,-0.144 0.446,-0.122 0.445,-0.132 0.465,-0.106 0.472,-0.097 0.465,-0.102" style="fill:none;stroke:#000000;stroke-width:1.0138;stroke-linecap:round;stroke-linejoin:round;stroke-miterlimit:10;stroke-dasharray:none;stroke-opacity:1" id="path2480" />
         </g>
         <g id="g2482" transform="scale(1,-1)" style="stroke-width:0.77526">
            <path d="m 711.227,-203.688 0.019,-0.027 0.125,-0.164 0.293,-0.363 0.348,-0.555 0.41,-0.621 0.527,-0.641 0.516,-0.629 0.492,-0.574 0.395,-0.554 0.304,-0.528 0.364,-0.508 0.453,-0.472 0.445,-0.496 0.434,-0.489 0.433,-0.449 0.461,-0.418 0.438,-0.398 0.394,-0.375 0.43,-0.344 0.437,-0.336 0.442,-0.309 0.437,-0.304 0.481,-0.281 0.461,-0.278 0.433,-0.285 0.469,-0.289 0.504,-0.25 0.527,-0.242 0.543,-0.254 0.508,-0.215 0.559,-0.211 0.683,-0.195 0.656,-0.192 0.653,-0.175 0.66,-0.172 0.75,-0.172 0.754,-0.149 0.672,-0.14 0.703,-0.129 0.769,-0.133 0.782,-0.137 0.718,-0.121 0.75,-0.101 0.789,-0.114 0.731,-0.085 0.734,-0.075 0.715,-0.054 0.746,-0.047 0.649,-0.043 0.656,-0.035 0.781,-0.012 0.77,0.004 0.746,0.008 0.781,0.046 0.863,0.04 0.825,0.046 0.753,0.082 0.731,0.106 0.726,0.121 0.719,0.129 0.735,0.148 0.699,0.16 0.683,0.18 0.696,0.199 0.707,0.211 0.656,0.223 0.582,0.238 0.492,0.246 0.414,0.246 0.555,0.254 0.637,0.278 0.554,0.304 0.516,0.289 0.48,0.293 1.024,0.61 0.398,0.316" style="fill:none;stroke:#000000;stroke-width:1.0138;stroke-linecap:round;stroke-linejoin:round;stroke-miterlimit:10;stroke-dasharray:none;stroke-opacity:1" id="path2484" />
         </g>
         <g id="g2486" transform="scale(1,-1)" style="stroke-width:0.77526">
            <path d="m 756.379,-208.77 -0.004,-0.015 -0.031,-0.07 -0.051,-0.161 0.035,-0.23 -0.004,-0.277 -0.176,-0.286 -0.14,-0.289 -0.117,-0.269 -0.11,-0.25 -0.093,-0.25 -0.118,-0.258 -0.144,-0.223 -0.149,-0.222 -0.148,-0.231 -0.156,-0.234 -0.172,-0.227 -0.235,-0.207 -0.25,-0.226 -0.203,-0.223 -0.23,-0.203 -0.266,-0.199 -0.269,-0.215 -0.328,-0.211 -0.356,-0.234 -0.301,-0.235 -0.289,-0.254 -0.312,-0.265 -0.352,-0.266 -0.39,-0.266 -0.356,-0.257 -0.352,-0.262 -0.406,-0.258 -0.394,-0.262 -0.422,-0.273 -0.457,-0.258 -0.488,-0.266 -0.446,-0.257 -0.511,-0.246 -0.61,-0.254 -0.621,-0.254 -0.629,-0.246 -0.609,-0.243 -0.77,-0.218 -0.761,-0.223 -0.575,-0.219 -0.629,-0.191 -0.699,-0.188 -0.762,-0.168 -0.746,-0.14 -0.734,-0.129 -0.746,-0.106 -0.735,-0.078 -0.707,-0.035 -0.687,-0.031 -0.664,-0.004 -0.672,0.02 -0.672,0.035 -0.644,0.054 -0.653,0.067 -0.597,0.09 -0.543,0.109 -0.563,0.113 -0.59,0.141 -0.601,0.164 -0.578,0.191 -0.582,0.196 -0.586,0.218 -0.649,0.258 -0.699,0.278 -0.559,0.293 -0.441,0.281 -0.496,0.304 -0.512,0.344 -0.531,0.344 -0.488,0.359 -0.512,0.371 -0.586,0.395 -0.555,0.434 -0.543,0.476 -0.511,0.5 -0.5,0.527 -0.465,0.575 -0.461,0.57 -0.485,0.551 -0.472,0.594" style="fill:none;stroke:#000000;stroke-width:1.0138;stroke-linecap:round;stroke-linejoin:round;stroke-miterlimit:10;stroke-dasharray:none;stroke-opacity:1" id="path2488" />
         </g>
         <g id="g2490" transform="scale(1,-1)" style="stroke-width:0.77526">
            <path d="m 710.102,-191.445 -0.012,-0.024 -0.078,-0.14 -0.137,-0.313 -0.141,-0.402 -0.218,-0.434 -0.258,-0.418 -0.203,-0.379 -0.18,-0.316 -0.18,-0.285 -0.359,-0.242 -0.254,-0.247 0.016,-0.187 -0.106,-0.152 -0.113,-0.118 -0.098,-0.07 -0.054,-0.043 -0.086,-0.008 -0.114,0.016 -0.062,0.047 -0.059,0.082 -0.086,0.105 -0.07,0.137 0.047,0.152 -0.02,0.176 -0.14,0.188 -0.106,0.234 -0.086,0.25 -0.066,0.242 -0.086,0.258 -0.074,0.285 -0.043,0.289 -0.031,0.285 -0.024,0.293 v 0.325 l 0.024,0.336 0.105,0.324 0.066,0.359 0.004,0.402 0.094,0.395 0.098,0.406 0.105,0.43 0.141,0.449 0.172,0.473 0.168,0.48 0.156,0.516 0.199,0.531 0.215,0.512 0.215,0.527 0.222,0.551 0.258,0.559 0.282,0.562 0.293,0.567 0.328,0.574 0.347,0.597 0.313,0.614 0.371,0.605 0.457,0.606 0.449,0.617 0.481,0.609 0.492,0.637 0.519,0.683 0.5,0.704 0.543,0.679 0.539,0.676 0.489,0.68 0.558,0.664 0.594,0.652 0.629,0.66 0.582,0.661 0.539,0.644 0.586,0.625 0.601,0.637 0.61,0.644 0.562,0.645 0.504,0.617 0.629,0.586 0.738,0.598 0.727,0.597 0.719,0.586 0.715,0.551 0.64,0.527 0.703,0.5 0.813,0.485 0.773,0.5 0.77,0.437 0.773,0.399 0.781,0.398 0.872,0.356 0.832,0.355 0.738,0.313 1.453,0.601 0.766,0.254 0.644,0.246 0.68,0.227 0.816,0.152 0.813,0.105 0.746,0.098 0.726,0.051 0.719,0.023 0.778,-0.031 0.851,-0.066 0.836,-0.086 0.828,-0.11 0.809,-0.136 0.808,-0.176 0.914,-0.192 0.852,-0.203 0.691,-0.218 0.711,-0.254 0.758,-0.27 0.75,-0.258 0.602,-0.25 0.519,-0.238 0.614,-0.223" style="fill:none;stroke:#000000;stroke-width:1.0138;stroke-linecap:round;stroke-linejoin:round;stroke-miterlimit:10;stroke-dasharray:none;stroke-opacity:1" id="path2492" />
         </g>
         <g id="g2494" transform="scale(1,-1)" style="stroke-width:0.77526">
            <path d="m 696.57,-242.941 c -2.27246,-0.46834 -4.61004,0.48976 -6.89821,0.015 -2.02924,-0.71662 -4.17257,0.37179 -4.4596,2.57268 -0.30379,0.57784 -0.64583,4.11841 -0.16421,1.86096 0.25918,-0.80325 0.83941,-3.40394 0.54208,-1.35368 -0.12904,0.92086 -0.31361,2.67319 -0.14085,0.84003 -0.12752,-0.74422 0.46111,-3.06406 0.21856,-1.10208 -0.11817,0.76949 -0.47848,2.55627 -0.19316,0.74743 0.34569,-0.78338 0.30345,-2.69279 -0.43259,-0.99284 -0.38995,0.92835 -1.01468,2.18752 -0.5033,0.53224 0.22852,-0.85884 0.81472,-2.84334 0.53436,-0.89714 -0.21192,0.84795 -0.0657,2.86251 -0.0323,0.91351 0.16546,-1.37617 0.87153,-4.25827 0.23266,-1.41358 -0.28247,0.86912 -0.25663,2.24197 -0.18251,0.58091 -0.11534,-1.8967 0.86935,-3.83284 3.08878,-3.00486 2.90983,0.74976 5.95511,0.40737 8.88432,0.99591 -1.29297,0.50153 -4.57701,-0.20221 -6.63929,-0.004 -0.97498,-0.0968 -3.06984,-0.0284 -0.95788,0.0184 2.80405,0.0497 5.6223,-0.0962 8.41011,0.27731 -2.87823,-0.32188 -5.71795,-0.87118 -8.54987,-1.47023 -0.71042,-0.0648 -1.83243,-0.36 -0.37979,-0.18248 2.05246,0.38171 4.09087,0.84629 6.13799,1.2609 -1.31192,-0.40947 -4.18452,-0.62799 -4.61773,-0.88651 2.90918,0.36498 5.84829,0.48943 8.75387,0.84027 -0.93579,0.1695 -2.7613,-0.41892 -4.03699,-0.57073 -1.56842,-0.34916 -3.18198,-0.27311 -4.76422,-0.3722 -0.60781,-0.11674 -1.32697,-0.37854 -1.88259,0.0399" style="fill:none;stroke:#000000;stroke-width:1.0138;stroke-linecap:round;stroke-linejoin:round;stroke-miterlimit:10;stroke-dasharray:none;stroke-opacity:1" id="path2496" />
         </g>
      </g>
   </g>
</svg>
