<?xml version="1.0" encoding="UTF-8" standalone="no"?>
<!-- Created by Ashley Blewer - This work is licensed under a Creative Commons Attribution 4.0 International License -->

<svg width="544" height="480" viewBox="0 0 143.93334 127" version="1.1" id="svg2490" inkscape:version="1.1.2 (08b2f3d93c, 2022-04-05)" sodipodi:docname="1975-type-b-3.svg"
   xmlns:inkscape="http://www.inkscape.org/namespaces/inkscape"
   xmlns:sodipodi="http://sodipodi.sourceforge.net/DTD/sodipodi-0.dtd"
   xmlns="http://www.w3.org/2000/svg"
   xmlns:svg="http://www.w3.org/2000/svg">
   <sodipodi:namedview id="namedview2492" pagecolor="#ffffff" bordercolor="#666666" borderopacity="1.0" inkscape:pageshadow="2" inkscape:pageopacity="0.0" inkscape:pagecheckerboard="0" inkscape:document-units="mm" showgrid="false" units="px" inkscape:zoom="0.90583674" inkscape:cx="272.67607" inkscape:cy="177.18425" inkscape:window-width="1848" inkscape:window-height="1136" inkscape:window-x="72" inkscape:window-y="27" inkscape:window-maximized="1" inkscape:current-layer="layer1" />
   <defs id="defs2487" />
   <g inkscape:label="Layer 1" inkscape:groupmode="layer" id="layer1">
      <g id="g7432" transform="matrix(0.55104831,0,0,0.55104831,-21.805982,-291.19252)">
         <g id="g1436" transform="scale(1,-1)">
            <path d="m 198.816,-729.83174 c -18.14649,2.17675 -34.05656,8.41653 -45.8729,20.91796 -18.14109,19.19288 -26.63325,49.20363 -18.75561,74.83206 8.1391,40.8365 39.77178,82.83453 83.9949,85.56379 44.40341,-0.55195 76.99832,-47.74583 68.39031,-89.95832 -4.96407,-42.7763 -35.71293,-86.16556 -80.92946,-91.13177 -4.43834,-0.30971 -8.95876,-0.0718 -13.18624,0.827" style="fill:none;stroke:#000000;stroke-width:2.61538;stroke-linecap:round;stroke-linejoin:round;stroke-miterlimit:10;stroke-dasharray:none;stroke-opacity:1" id="path1438" sodipodi:nodetypes="csccccc" />
         </g>
         <g id="g1440" transform="scale(1,-1)">
            <path d="m 151.51315,-708.32986 c -34.28284,-16.15702 -86.134369,-4.84254 -98.795656,33.85103 -11.339861,34.55554 5.751667,75.28691 35.255639,95.07573 18.201037,9.85584 40.850097,10.55315 59.964867,2.9191" style="fill:none;stroke:#000000;stroke-width:2.61538;stroke-linecap:round;stroke-linejoin:round;stroke-miterlimit:10;stroke-dasharray:none;stroke-opacity:1" id="path1442" sodipodi:nodetypes="cccc" />
         </g>
         <g id="g1444" transform="scale(1,-1)">
            <path d="m 212.523,-548.59 c -21.06353,3.84183 -42.69545,-5.41157 -57.12905,-20.64084 -18.60988,-19.07563 -28.70781,-45.65619 -28.78188,-72.19963 -0.59551,-20.91692 2.46091,-44.12635 17.7421,-59.74735 3.26602,-3.27321 5.63081,-6.25289 9.71484,-8.4194" style="fill:none;stroke:#000000;stroke-width:2.61538;stroke-linecap:round;stroke-linejoin:round;stroke-miterlimit:10;stroke-dasharray:none;stroke-opacity:1" id="path1446" sodipodi:nodetypes="ccccc" />
         </g>
         <g id="g1448" transform="scale(1,-1)">
            <path d="m 154.402,-737.441 c -10.75,2.707 -16.808,13.726 -18.511,23.996 -2.504,10.457 -3.321,21.297 -1.567,31.933 l 0.047,1.223 -0.008,0.961" style="fill:none;stroke:#000000;stroke-width:2.61538;stroke-linecap:round;stroke-linejoin:round;stroke-miterlimit:10;stroke-dasharray:none;stroke-opacity:1" id="path1450" />
         </g>
         <g id="g1452" transform="scale(1,-1)">
            <path d="m 147.10836,-734.18705 c -5.477,8.473 -14.43636,19.58905 -15.50336,29.73805 -1.933,8.738 -2.648,17.621 -1.628,26.57 0.277,13.84 0.277,27.684 0.414,41.524 0.308,1.714 0.297,4.121 0.511,5.277" style="fill:none;stroke:#000000;stroke-width:2.61538;stroke-linecap:round;stroke-linejoin:round;stroke-miterlimit:10;stroke-dasharray:none;stroke-opacity:1" id="path1454" sodipodi:nodetypes="ccccc" />
         </g>
         <g id="g1456" transform="scale(1,-1)">
            <path d="m 146.883,-576.059 c -34.36057,15.57108 -81.817447,-0.32124 -93.634873,-37.8301 -7.783953,-20.87322 -9.477279,-45.93489 0.784034,-66.12474 0.766613,-0.73105 1.533226,-1.46211 2.299839,-2.19316" style="fill:none;stroke:#000000;stroke-width:2.61538;stroke-linecap:round;stroke-linejoin:round;stroke-miterlimit:10;stroke-dasharray:none;stroke-opacity:1" id="path1458" />
         </g>
         <g id="g1460" transform="scale(1,-1)">
            <path d="m 129.94305,-611.90873 c -5.43,0.734 -12.86905,-2.09127 -16.85305,-5.50527 -4.449,-2.91 -8.692,-6.332 -11.152,-11.152 -3.508,-4.883 -5.02,-11.266 -5.715,-17.239 -1.012,-7.093 0.027,-14.636 4.961,-20.172 4.246,-5.589 9.254,-11.332 16.523,-12.683 4.137,-0.824 10.07,-0.559 12.734,2.598 l -0.289,0.64" style="fill:none;stroke:#000000;stroke-width:2.61538;stroke-linecap:round;stroke-linejoin:round;stroke-miterlimit:10;stroke-dasharray:none;stroke-opacity:1" id="path1462" sodipodi:nodetypes="cccccccc" />
         </g>
         <g id="g1464" transform="scale(1,-1)">
            <path d="m 127.203,-673.824 c -5.449,-1.028 -11.25,0.441 -16.289,2.574 -10.137,5.066 -13.797,17.73 -12.113,28.285 1.176,3.903 2.34,6.504 0.094,9.793 1.515,4.399 7.003,0.621 7.988,6.047 2.879,5.145 7.64,8.645 12.941,11.035 2,0.574 7.17803,1.676 8.70103,0.223" style="fill:none;stroke:#000000;stroke-width:2.61538;stroke-linecap:round;stroke-linejoin:round;stroke-miterlimit:10;stroke-dasharray:none;stroke-opacity:1" id="path1466" sodipodi:nodetypes="ccccccc" />
         </g>
         <g id="g1468" transform="scale(1,-1)">
            <path d="m 124.805,-665.18 c -0.989,-0.527 -3.934,-0.562 -1.969,-2.242 1.164,-0.941 2.344,-1.84 3.172,-3.133 0.293,-0.383 0.769,-0.547 1.043,-0.937" style="fill:none;stroke:#000000;stroke-width:2.61538;stroke-linecap:round;stroke-linejoin:round;stroke-miterlimit:10;stroke-dasharray:none;stroke-opacity:1" id="path1470" />
         </g>
         <g id="g1472" transform="scale(1,-1)">
            <path d="m 118.117,-667.836 c 1.262,-0.648 2.524,-1.352 3.61,-2.242 1.101,-1.293 2.492,-2.281 3.82,-3.328" style="fill:none;stroke:#000000;stroke-width:2.61538;stroke-linecap:round;stroke-linejoin:round;stroke-miterlimit:10;stroke-dasharray:none;stroke-opacity:1" id="path1474" />
         </g>
         <g id="g1476" transform="scale(1,-1)">
            <path d="m 119.227,-668.293 c -1.161,0.723 -3.211,0.715 -4.77,1 -1.465,0.238 -2.98,0.133 -4.367,0.766 -2.531,0.738 -5.363,1.64 -6.86,3.98 -0.25,0.438 -0.449,0.895 -0.679,1.34" style="fill:none;stroke:#000000;stroke-width:2.61538;stroke-linecap:round;stroke-linejoin:round;stroke-miterlimit:10;stroke-dasharray:none;stroke-opacity:1" id="path1478" />
         </g>
         <g id="g1480" transform="scale(1,-1)">
            <path d="m 89.387,-652.312 c -2.93,-1.899 -2.426,5.359 0.558,1.757 0.977,-0.957 0.36,-2.543 -1.093,-1.535" style="fill:none;stroke:#000000;stroke-width:2.61538;stroke-linecap:round;stroke-linejoin:round;stroke-miterlimit:10;stroke-dasharray:none;stroke-opacity:1" id="path1482" />
         </g>
         <g id="g1484" transform="scale(1,-1)">
            <path d="m 107.25,-614.152 c -3.137,-2.66 -0.961,4.414 0.594,0.375 -0.36,-2.614 -3.746,-2.684 -2.406,0.375" style="fill:none;stroke:#000000;stroke-width:2.61538;stroke-linecap:round;stroke-linejoin:round;stroke-miterlimit:10;stroke-dasharray:none;stroke-opacity:1" id="path1486" />
         </g>
         <g id="g1488" transform="scale(1,-1)">
            <path d="m 112,-683.141 c -3.109,-0.039 -0.602,3.969 -0.84,0.567 -3.004,1.433 2.375,1.98 -0.73,0.094" style="fill:none;stroke:#000000;stroke-width:2.61538;stroke-linecap:round;stroke-linejoin:round;stroke-miterlimit:10;stroke-dasharray:none;stroke-opacity:1" id="path1490" />
         </g>
         <g id="g1492" transform="scale(1,-1)">
            <path d="m 209.945,-588.297 -0.004,0.012 -0.074,0.039 -0.082,0.039 0.027,0.086 -0.011,0.051 -0.004,0.031 0.035,0.055 0.152,0.031 0.188,0.023 -0.07,0.012 -0.118,0.012 -0.035,-0.008 -0.027,0.016 0.012,-0.004 -0.118,-0.008 -0.101,-0.004 0.051,-0.02 0.007,-0.004 0.028,-0.011 0.023,0.008 0.071,-0.016 0.035,-0.02 -0.008,-0.015 0.023,-0.031 0.012,-0.012 0.027,0.004 0.012,-0.012 -0.023,0.012 h -0.008 l 0.015,-0.004 0.004,-0.008 0.008,-0.012 v -0.011 l 0.035,-0.004 -0.019,-0.004 -0.024,0.019 0.012,-0.004 0.004,0.016 0.004,-0.004 -0.016,-0.008 -0.093,-0.007 0.003,-0.012 0.047,-0.028 h 0.024 l 0.019,-0.007 0.024,0.004 0.113,-0.024 0.051,-0.039 -0.047,-0.039 0.019,-0.047 0.016,-0.031 0.004,-0.051 -0.035,-0.062 -0.133,-0.09 -0.012,-0.094 0.102,-0.078 0.043,-0.113 0.043,-0.125 0.023,-0.114 0.02,-0.125 0.031,-0.121 0.012,-0.113 0.011,-0.125 0.008,-0.133 0.004,-0.117 0.051,-0.125 0.144,-0.125 0.02,-0.141 -0.078,-0.136 -0.016,-0.133 -0.019,-0.125 -0.016,-0.137 -0.129,-0.125 -0.058,-0.141 0.082,-0.105 0.027,-0.137 -0.004,-0.148 -0.012,-0.117 0.078,-0.102 0.051,-0.113 -0.023,-0.129 -0.008,-0.153 -0.02,-0.14 -0.003,-0.16 -0.008,-0.176 -0.059,-0.145 -0.019,-0.156 0.031,-0.168 -0.012,-0.164 -0.004,-0.164 v -0.156 l 0.035,-0.137 -0.023,-0.117 -0.051,-0.113 0.016,-0.118 -0.004,-0.113 -0.004,-0.082 -0.016,-0.078 -0.039,-0.055 0.004,-0.054 0.024,-0.043 0.011,-0.059 -0.015,-0.051 0.004,-0.023 0.089,-0.031 0.04,-0.032 -0.063,-0.027 -0.008,-0.039 -0.008,-0.02 -0.019,-0.011 -0.031,-0.02 -0.196,0.004 -0.05,-0.004 0.109,-0.004 0.023,0.004 0.02,0.02 0.027,0.011 0.067,0.004 0.054,0.008 -0.027,0.012 -0.008,0.008 -0.015,0.031 h -0.051" style="fill:none;stroke:#000000;stroke-width:2.61538;stroke-linecap:round;stroke-linejoin:round;stroke-miterlimit:10;stroke-dasharray:none;stroke-opacity:1" id="path1494" />
         </g>
         <g id="g1496" transform="scale(1,-1)">
            <path d="m 208.492,-588.93 c 0.6839,0.95198 1.72358,1.5844 2.65649,2.26975 0.84982,0.72846 2.32812,0.0922 2.15273,-1.08324 0.0139,-1.10374 -1.13662,-1.45249 -1.74828,-2.11345 0.30384,-0.79062 1.75002,0.39791 2.491,-0.14877 1.07524,-0.47844 0.97877,-1.93065 0.62194,-2.85743 -0.54769,-1.47553 -2.24505,-2.54581 -3.80359,-2.01543 -0.33378,0.007 -1.7485,0.5495 -0.9795,0.87448" style="fill:none;stroke:#000000;stroke-width:2.61538;stroke-linecap:round;stroke-linejoin:round;stroke-miterlimit:10;stroke-dasharray:none;stroke-opacity:1" id="path1498" />
         </g>
         <g id="g1500" transform="scale(1,-1)">
            <path d="m 202.742,-620.477 c -3.703,2.848 -7.32,-2.523 -3.594,-4.871 -2.46,-3.789 -4.992,-7.566 -6.621,-11.828 -1.093,-5.429 -1.379,-11.117 0.328,-16.449 1.032,-4.543 3.68,-8.371 5.625,-12.527 1.735,-3.653 6.391,-1.18 9.309,-1.942" style="fill:none;stroke:#000000;stroke-width:2.61538;stroke-linecap:round;stroke-linejoin:round;stroke-miterlimit:10;stroke-dasharray:none;stroke-opacity:1" id="path1502" />
         </g>
         <g id="g1504" transform="scale(1,-1)">
            <path d="m 207.422,-667.211 c 2.53221,0.97304 4.50675,3.02213 7.17167,3.74619 3.93427,2.64507 7.06568,6.34576 9.96759,10.03375 2.10786,3.55807 3.46734,7.48931 4.66643,11.42427 0.62181,3.24829 0.37768,6.67159 0.13588,9.87105 1.92435,0.50097 6.08177,2.26244 2.97271,4.53321 -2.74272,0.17182 -4.17309,1.69883 -4.16076,4.57373 -0.96143,2.9819 -3.1485,5.42153 -4.44072,8.26734 -1.02342,1.58541 -3.07243,2.31619 -4.8248,1.94146" style="fill:none;stroke:#000000;stroke-width:2.61538;stroke-linecap:round;stroke-linejoin:round;stroke-miterlimit:10;stroke-dasharray:none;stroke-opacity:1" id="path1506" />
         </g>
         <g id="g1508" transform="scale(1,-1)">
            <path d="m 218.914,-612.785 c -1.531,-0.063 -3.012,-0.629 -4.406,-1.235 -1.707,-0.929 -3.438,-1.824 -4.977,-3.023 -1.371,-0.801 -2.734,-1.645 -3.879,-2.766 -0.57,-1.168 -2.214,-1.554 -3.047,-2.421" style="fill:none;stroke:#000000;stroke-width:2.61538;stroke-linecap:round;stroke-linejoin:round;stroke-miterlimit:10;stroke-dasharray:none;stroke-opacity:1" id="path1510" />
         </g>
         <g id="g1512" transform="scale(1,-1)">
            <path d="m 200.398,-618.246 c 10.32695,17.21415 39.77612,15.59869 45.68404,-4.508 10.76932,-22.38132 -4.62884,-53.71696 -30.43501,-55.06943 -22.37551,-0.0203 -32.93223,27.91655 -23.83851,46.01745 4.10007,9.64534 11.51539,17.73623 20.44148,23.14998" style="fill:none;stroke:#000000;stroke-width:2.61538;stroke-linecap:round;stroke-linejoin:round;stroke-miterlimit:10;stroke-dasharray:none;stroke-opacity:1" id="path1514" sodipodi:nodetypes="ccccccccccccc" />
         </g>
         <g id="g1516" transform="scale(1,-1)">
            <path d="m 228.863,-608.609 c 5.594,-1.961 8.446,-7.868 11.059,-12.731 2.308,-8.062 5.027,-16.332 3.988,-24.855 -0.984,-7.446 -4.379,-15.301 -10.336,-20.004 -5.094,-4.715 -10.293,-10.442 -17.738,-10.809 -3.141,-0.281 -9.738,-0.648 -10.426,3.196" style="fill:none;stroke:#000000;stroke-width:2.61538;stroke-linecap:round;stroke-linejoin:round;stroke-miterlimit:10;stroke-dasharray:none;stroke-opacity:1" id="path1518" />
         </g>
         <g id="g1520" transform="scale(1,-1)">
            <path d="m 203.887,-668.371 c 1.863,-0.145 3.023,-1.793 4.578,-2.621 1.695,-0.988 2.762,-2.696 4.305,-3.86 0.203,-0.128 0.492,-0.203 0.714,-0.058" style="fill:none;stroke:#000000;stroke-width:2.61538;stroke-linecap:round;stroke-linejoin:round;stroke-miterlimit:10;stroke-dasharray:none;stroke-opacity:1" id="path1522" />
         </g>
         <g id="g1524" transform="scale(1,-1)">
            <path d="m 198.578,-682.238 c -4.246,1.386 2.008,5.761 1.25,1.136 -0.73,-0.679 -1.844,-0.617 -2.453,0.196" style="fill:none;stroke:#000000;stroke-width:2.61538;stroke-linecap:round;stroke-linejoin:round;stroke-miterlimit:10;stroke-dasharray:none;stroke-opacity:1" id="path1526" />
         </g>
         <g id="g1528" transform="scale(1,-1)">
            <path d="m 181.633,-646.469 c -3.36,-3.84 -1.438,7.703 1.117,0.449 0.098,-1.191 -1.695,-1.597 -2.484,-1.015" style="fill:none;stroke:#000000;stroke-width:2.61538;stroke-linecap:round;stroke-linejoin:round;stroke-miterlimit:10;stroke-dasharray:none;stroke-opacity:1" id="path1530" />
         </g>
         <g id="g1532" transform="scale(1,-1)">
            <path d="m 204.066,-607.699 c -6.566,-1.602 2.926,8.129 1.239,-0.074 -0.493,-0.465 -3.571,-1.375 -3.243,0.054" style="fill:none;stroke:#000000;stroke-width:2.61538;stroke-linecap:round;stroke-linejoin:round;stroke-miterlimit:10;stroke-dasharray:none;stroke-opacity:1" id="path1534" />
         </g>
         <g id="g1536" transform="scale(1,-1)">
            <path d="m 239.816,-606.605 c -3.371,-1.325 -2.226,5.402 1.321,1.449 1.574,-2.715 -4.973,-2.672 -3.059,-0.621" style="fill:none;stroke:#000000;stroke-width:2.61538;stroke-linecap:round;stroke-linejoin:round;stroke-miterlimit:10;stroke-dasharray:none;stroke-opacity:1" id="path1538" />
         </g>
         <g id="g1540" transform="scale(1,-1)">
            <path d="m 252.961,-642.188 c -3.59,1.293 2.148,6.821 1.547,1.508 -0.18,-0.476 -0.844,-0.968 -1.168,-0.343" style="fill:none;stroke:#000000;stroke-width:2.61538;stroke-linecap:round;stroke-linejoin:round;stroke-miterlimit:10;stroke-dasharray:none;stroke-opacity:1" id="path1542" />
         </g>
         <g id="g1544" transform="scale(1,-1)">
            <path d="m 233.906,-676.988 c -3.082,-0.254 -1.105,4.187 0.949,1.863 -0.371,-0.773 -1.332,-1.633 -1.953,-1.414" style="fill:none;stroke:#000000;stroke-width:2.61538;stroke-linecap:round;stroke-linejoin:round;stroke-miterlimit:10;stroke-dasharray:none;stroke-opacity:1" id="path1546" />
         </g>
         <g id="g1548" transform="scale(1,-1)">
            <path d="m 186.551,-615.383 c -3.086,5.094 -6.172,11.024 -10.211,15.703 -4.594,8.512 -8.992,-0.875 -11.758,-6.132 -3.418,-4.321 -7.062,-9.668 -7.703,-14.833 4.148,-2.078 10.281,-4.171 15.441,-5.035 3.071,-0.203 8.965,-3.328 9.836,0.551 1.571,3.649 4.395,9.746 4.395,9.746" style="fill:none;stroke:#000000;stroke-width:2.61538;stroke-linecap:round;stroke-linejoin:round;stroke-miterlimit:10;stroke-dasharray:none;stroke-opacity:1" id="path1550" sodipodi:nodetypes="ccccccc" />
         </g>
         <g id="g1552" transform="scale(1,-1)">
            <path d="m 254.074,-622.309 c 0.8,5.062 -6.76745,12.74715 0.59255,16.44715 4.355,3.793 4.76345,8.28385 10.68545,9.67085 4.609,-3.149 3.918,-10.731 5.832,-15.727 3.39,-8.008 -8.719,-8.789 -13.961,-9.578 -1.098,0.117 -2.047,-1.055 -3.149,-0.813" style="fill:none;stroke:#000000;stroke-width:2.61538;stroke-linecap:round;stroke-linejoin:round;stroke-miterlimit:10;stroke-dasharray:none;stroke-opacity:1" id="path1554" sodipodi:nodetypes="cccccc" />
         </g>
         <g id="g1556" transform="scale(1,-1)">
            <path d="m 210.543,-688.633 c 3.098,-0.929 10.527,3.914 9.465,-3.07 -0.344,-5.102 6.172,-15.988 0.332,-18.231 -5.09,-1.441 -13.559,-3.984 -17.512,-1.769 0.484,5.652 2.754,11.394 4.238,16.879 1.829,2.484 1.301,4.113 3.477,6.191" style="fill:none;stroke:#000000;stroke-width:2.61538;stroke-linecap:round;stroke-linejoin:round;stroke-miterlimit:10;stroke-dasharray:none;stroke-opacity:1" id="path1558" sodipodi:nodetypes="cccccc" />
         </g>
         <g id="g1560" transform="scale(1,-1)">
            <path d="m 219.66,-593.906 c -0.0377,1.82949 -0.78338,3.58611 -0.69454,5.42226 0.16678,1.06791 1.4951,0.85044 2.25566,0.68572 0.66372,-0.14643 1.33216,-0.24997 2.01287,-0.23694" style="fill:none;stroke:#000000;stroke-width:1.30769;stroke-linecap:round;stroke-linejoin:round;stroke-miterlimit:10;stroke-dasharray:none;stroke-opacity:1" id="path1562" />
         </g>
         <g id="g1564" transform="scale(1,-1)">
            <path d="m 219.75,-591.328 c 0.64824,-0.60756 1.42493,0.35821 2.137,0.1722" style="fill:none;stroke:#000000;stroke-width:1.30769;stroke-linecap:round;stroke-linejoin:round;stroke-miterlimit:10;stroke-dasharray:none;stroke-opacity:1" id="path1566" />
         </g>
         <g id="g1568" transform="scale(1,-1)">
            <path d="m 224.098,-592.172 c -0.91736,0.7104 -1.19922,-0.79907 -0.67058,-1.33214 0.51605,-0.8994 1.82365,0.11677 1.49881,0.92575 -0.14542,0.50644 -0.56819,0.9671 -1.09828,1.06643" style="fill:none;stroke:#000000;stroke-width:1.30769;stroke-linecap:round;stroke-linejoin:round;stroke-miterlimit:10;stroke-dasharray:none;stroke-opacity:1" id="path1570" />
         </g>
         <g id="g1572" transform="scale(1,-1)">
            <path d="m 226.637,-593.234 c 0.14083,0.67697 -0.21262,1.66527 0.53216,2.05467 0.33185,0.0943 0.68297,-0.003 1.00283,-0.0976" style="fill:none;stroke:#000000;stroke-width:1.30769;stroke-linecap:round;stroke-linejoin:round;stroke-miterlimit:10;stroke-dasharray:none;stroke-opacity:1" id="path1574" />
         </g>
         <g id="g1576" transform="scale(1,-1)">
            <path d="m 229.102,-591.391 c 0.4091,-0.66567 0.54094,-1.453 0.81648,-2.17441 -0.28679,0.65071 -0.0444,2.02935 0.90255,1.58537 0.26732,-0.1809 0.12443,-0.87713 0.39982,-0.30113 0.48446,0.93818 1.43488,0.11404 0.99418,-0.63279" style="fill:none;stroke:#000000;stroke-width:1.30769;stroke-linecap:round;stroke-linejoin:round;stroke-miterlimit:10;stroke-dasharray:none;stroke-opacity:1" id="path1578" />
         </g>
         <g id="g1580" transform="scale(1,-1)">
            <path d="m 234.145,-591.363 c -0.51507,-0.39201 -0.63883,-1.56354 0.30711,-1.12156 0.53207,0.14976 0.90564,0.85004 1.32401,0.1527 0.0963,-0.072 0.20218,-0.1332 0.31784,-0.16812" style="fill:none;stroke:#000000;stroke-width:1.30769;stroke-linecap:round;stroke-linejoin:round;stroke-miterlimit:10;stroke-dasharray:none;stroke-opacity:1" id="path1582" />
         </g>
         <g id="g1584" transform="scale(1,-1)">
            <path d="m 237.184,-588.25 c -0.10765,-1.71063 0.61128,-3.31708 0.91794,-4.969" style="fill:none;stroke:#000000;stroke-width:1.30769;stroke-linecap:round;stroke-linejoin:round;stroke-miterlimit:10;stroke-dasharray:none;stroke-opacity:1" id="path1586" />
         </g>
         <g id="g1588" transform="scale(1,-1)">
            <path d="m 235.98,-591.027 c 0.82284,0.61264 1.86383,0.77553 2.79,1.16802" style="fill:none;stroke:#000000;stroke-width:1.30769;stroke-linecap:round;stroke-linejoin:round;stroke-miterlimit:10;stroke-dasharray:none;stroke-opacity:1" id="path1590" />
         </g>
         <g id="g1592" transform="scale(1,-1)">
            <path d="m 208.031,-582.742 c 9.69134,2.55748 19.79432,1.86306 29.70885,2.06531 4.80052,-1.46481 3.02963,-7.67871 3.94044,-11.43962 -0.57182,-5.35087 -6.85366,-5.04659 -10.8599,-5.01651 -6.2117,-0.19135 -12.3143,-1.58822 -18.56124,-1.42763 -6.4305,-2.05595 -7.67844,4.96829 -6.91758,9.70853 -0.52513,3.29226 1.04346,7.8448 5.20946,6.8249" style="fill:none;stroke:#000000;stroke-width:1.30769;stroke-linecap:round;stroke-linejoin:round;stroke-miterlimit:10;stroke-dasharray:none;stroke-opacity:1" id="path1594" />
         </g>
      </g>
   </g>
</svg>
