<?xml version="1.0" encoding="UTF-8" standalone="no"?>
<!-- Created by Ashley Blewer - This work is licensed under a Creative Commons Attribution 4.0 International License -->

<svg width="544" height="480" viewBox="0 0 143.93334 127" version="1.1" id="svg2490" inkscape:version="1.1.2 (08b2f3d93c, 2022-04-05)" sodipodi:docname="1975-type-b-2.svg"
   xmlns:inkscape="http://www.inkscape.org/namespaces/inkscape"
   xmlns:sodipodi="http://sodipodi.sourceforge.net/DTD/sodipodi-0.dtd"
   xmlns="http://www.w3.org/2000/svg"
   xmlns:svg="http://www.w3.org/2000/svg">
   <sodipodi:namedview id="namedview2492" pagecolor="#ffffff" bordercolor="#666666" borderopacity="1.0" inkscape:pageshadow="2" inkscape:pageopacity="0.0" inkscape:pagecheckerboard="0" inkscape:document-units="mm" showgrid="false" units="px" inkscape:zoom="0.90583674" inkscape:cx="272.67607" inkscape:cy="177.18425" inkscape:window-width="1848" inkscape:window-height="1136" inkscape:window-x="72" inkscape:window-y="27" inkscape:window-maximized="1" inkscape:current-layer="layer1" />
   <defs id="defs2487" />
   <g inkscape:label="Layer 1" inkscape:groupmode="layer" id="layer1">
      <g id="g7350" transform="matrix(0.65571135,0,0,0.65571135,-229.34589,-354.74279)">
         <g id="g1596" transform="scale(1,-1)">
            <path d="m 436.285,-549.586 c -13.594,-0.98 -27.055,-1.789 -40.426,-4.305 -8.097,-3.367 -9.898,-13.843 -8.925,-20.929" style="fill:none;stroke:#000000;stroke-width:2.61538;stroke-linecap:round;stroke-linejoin:round;stroke-miterlimit:10;stroke-dasharray:none;stroke-opacity:1" id="path1598" />
         </g>
         <g id="g1600" transform="scale(1,-1)">
            <path d="m 435.086,-552.996 c -12.348,-0.133 -22.707,-3.258 -34.848,-5.031 -4.754,-2.672 0.078,-8.84 -0.496,-12.668" style="fill:none;stroke:#000000;stroke-width:2.61538;stroke-linecap:round;stroke-linejoin:round;stroke-miterlimit:10;stroke-dasharray:none;stroke-opacity:1" id="path1602" />
         </g>
         <g id="g1604" transform="scale(1,-1)">
            <path d="m 435.051,-549.906 c 17.75,0.781 35.226,5.293 53.062,4.59 8.61,2.933 11.93,-6.375 11.989,-13.137" style="fill:none;stroke:#000000;stroke-width:2.61538;stroke-linecap:round;stroke-linejoin:round;stroke-miterlimit:10;stroke-dasharray:none;stroke-opacity:1" id="path1606" />
         </g>
         <g id="g1608" transform="scale(1,-1)">
            <path d="m 434.926,-553.188 c 14.691,0.762 29.351,2.235 44.07,2.387 2.789,-2.398 4.004,-6.461 3.453,-10.043" style="fill:none;stroke:#000000;stroke-width:2.61538;stroke-linecap:round;stroke-linejoin:round;stroke-miterlimit:10;stroke-dasharray:none;stroke-opacity:1" id="path1610" />
         </g>
         <g id="g1612" transform="scale(1,-1)">
            <path d="m 394.758,-576.996 c 4.726,9.144 26.191,6.219 38.469,8.461 14.683,1.148 29.371,2.555 43.808,5.476 10.074,1.317 20.235,3.735 30.438,2.368" style="fill:none;stroke:#000000;stroke-width:2.61538;stroke-linecap:round;stroke-linejoin:round;stroke-miterlimit:10;stroke-dasharray:none;stroke-opacity:1" id="path1614" />
         </g>
         <g id="g1616" transform="scale(1,-1)">
            <path d="m 508.215,-561.949 c 8.34,-9.051 12.262,-21.403 14.324,-33.289 2.816,-22.063 1.824,-44.301 2.445,-66.469 -0.808,-11.32 2.114,-22.918 -1.269,-33.965 l -0.52,-1.379" style="fill:none;stroke:#000000;stroke-width:2.61538;stroke-linecap:round;stroke-linejoin:round;stroke-miterlimit:10;stroke-dasharray:none;stroke-opacity:1" id="path1618" />
         </g>
         <g id="g1620" transform="scale(1,-1)">
            <path d="m 394.867,-577.742 c 2.52,-37.285 6.445,-74.477 10.438,-111.621 1.601,-9.192 1.867,-18.578 3.894,-27.703" style="fill:none;stroke:#000000;stroke-width:2.61538;stroke-linecap:round;stroke-linejoin:round;stroke-miterlimit:10;stroke-dasharray:none;stroke-opacity:1" id="path1622" />
         </g>
         <g id="g1624" transform="scale(1,-1)">
            <path d="m 386.699,-575.109 c -4.34,-14.012 -0.054,-28.68 0.844,-42.887 2.82,-20.52 5.641,-41.098 6.625,-61.789 2,-10.426 -2.031,-23.34 6.629,-31.508 9.594,-7.242 19.68,-16.199 32.445,-16.004" style="fill:none;stroke:#000000;stroke-width:2.61538;stroke-linecap:round;stroke-linejoin:round;stroke-miterlimit:10;stroke-dasharray:none;stroke-opacity:1" id="path1626" />
         </g>
         <g id="g1628" transform="scale(1,-1)">
            <path d="m 432.613,-726.574 c 7.309,1.652 19.414,0.449 21.61,9.754" style="fill:none;stroke:#000000;stroke-width:2.61538;stroke-linecap:round;stroke-linejoin:round;stroke-miterlimit:10;stroke-dasharray:none;stroke-opacity:1" id="path1630" />
         </g>
         <g id="g1632" transform="scale(1,-1)">
            <path d="m 454.699,-716.961 c 15.028,4.293 29.949,10.465 45.739,10.484" style="fill:none;stroke:#000000;stroke-width:2.61538;stroke-linecap:round;stroke-linejoin:round;stroke-miterlimit:10;stroke-dasharray:none;stroke-opacity:1" id="path1634" />
         </g>
         <g id="g1636" transform="scale(1,-1)">
            <path d="m 505.727,-704.043 c 0.511,-0.742 0.257,-1.676 0.367,-2.512 -0.102,-0.644 -0.016,-1.281 0.051,-1.925 0.183,-0.395 -0.278,-0.614 0.011,-0.129" style="fill:none;stroke:#000000;stroke-width:2.61538;stroke-linecap:round;stroke-linejoin:round;stroke-miterlimit:10;stroke-dasharray:none;stroke-opacity:1" id="path1638" />
         </g>
         <g id="g1640" transform="scale(1,-1)">
            <path d="m 501.027,-706.625 c 3.504,-6.617 15.043,-0.563 19.836,1.609" style="fill:none;stroke:#000000;stroke-width:2.61538;stroke-linecap:round;stroke-linejoin:round;stroke-miterlimit:10;stroke-dasharray:none;stroke-opacity:1" id="path1642" />
         </g>
         <g id="g1644" transform="scale(1,-1)">
            <path d="m 506.867,-703.914 c 6.356,0.719 16.473,1.43 17.242,9.633" style="fill:none;stroke:#000000;stroke-width:2.61538;stroke-linecap:round;stroke-linejoin:round;stroke-miterlimit:10;stroke-dasharray:none;stroke-opacity:1" id="path1646" />
         </g>
         <g id="g1648" transform="scale(1,-1)">
            <path d="m 521.465,-703.371 c 1.344,3.816 -0.961,1.016 -0.723,-0.629" style="fill:none;stroke:#000000;stroke-width:2.61538;stroke-linecap:round;stroke-linejoin:round;stroke-miterlimit:10;stroke-dasharray:none;stroke-opacity:1" id="path1650" />
         </g>
         <g id="g1652" transform="scale(1,-1)">
            <path d="m 395.156,-649.258 c 2.004,-1.863 5.231,-1.394 7.254,-3.265 -0.504,-4.118 -0.39,-8.301 -0.008,-12.422 0.188,-0.028 0.043,-2.325 -0.086,-1.352" style="fill:none;stroke:#000000;stroke-width:2.61538;stroke-linecap:round;stroke-linejoin:round;stroke-miterlimit:10;stroke-dasharray:none;stroke-opacity:1" id="path1654" />
         </g>
         <g id="g1656" transform="scale(1,-1)">
            <path d="m 395.457,-662.652 c 2.398,-1.235 4.898,-2.274 7.418,-3.246" style="fill:none;stroke:#000000;stroke-width:2.61538;stroke-linecap:round;stroke-linejoin:round;stroke-miterlimit:10;stroke-dasharray:none;stroke-opacity:1" id="path1658" />
         </g>
         <g id="g1660" transform="scale(1,-1)">
            <path d="m 397.227,-669.418 c 1.921,-1.449 4.031,-2.777 6.347,-3.496" style="fill:none;stroke:#000000;stroke-width:2.61538;stroke-linecap:round;stroke-linejoin:round;stroke-miterlimit:10;stroke-dasharray:none;stroke-opacity:1" id="path1662" />
         </g>
         <g id="g1664" transform="scale(1,-1)">
            <path d="m 398.156,-679.684 c 0.836,-1.504 2.86,-1.8 4.239,-2.714 0.773,-0.098 1.449,-1.59 1.304,-0.907" style="fill:none;stroke:#000000;stroke-width:2.61538;stroke-linecap:round;stroke-linejoin:round;stroke-miterlimit:10;stroke-dasharray:none;stroke-opacity:1" id="path1666" />
         </g>
         <g id="g1668" transform="scale(1,-1)">
            <path d="m 399.477,-689.434 c -1.594,0.571 0.933,-0.004 1.39,-0.277 1.434,-0.641 2.875,-1.34 4.215,-2.133 l -0.043,0.039 -0.027,-0.039" style="fill:none;stroke:#000000;stroke-width:2.61538;stroke-linecap:round;stroke-linejoin:round;stroke-miterlimit:10;stroke-dasharray:none;stroke-opacity:1" id="path1670" />
         </g>
         <g id="g1672" transform="scale(1,-1)">
            <path d="m 399.129,-697.141 c 1.324,-0.195 2.426,-1.218 3.473,-2.027 1.089,-1.289 2.496,-2.27 3.652,-3.504 0.812,-0.543 0.269,-0.008 0.226,0.442" style="fill:none;stroke:#000000;stroke-width:2.61538;stroke-linecap:round;stroke-linejoin:round;stroke-miterlimit:10;stroke-dasharray:none;stroke-opacity:1" id="path1674" />
         </g>
         <g id="g1676" transform="scale(1,-1)">
            <path d="m 400.652,-699.293 c 0.719,3.609 -0.035,7.305 0.188,10.941" style="fill:none;stroke:#000000;stroke-width:2.61538;stroke-linecap:round;stroke-linejoin:round;stroke-miterlimit:10;stroke-dasharray:none;stroke-opacity:1" id="path1678" />
         </g>
         <g id="g1680" transform="scale(1,-1)">
            <path d="m 414.438,-596.758 c -0.399,1.223 -0.922,5.387 -2.274,7.344 -0.906,2.793 -1.828,5.219 -2.551,8.137 -0.566,2.371 0.325,6.226 3.645,5.613 10.324,0.352 19.953,3.199 30.242,3.937 5.965,0.528 12.297,2.532 18.34,2.364 16.492,0.968 31.547,5.187 47.508,3.804" style="fill:none;stroke:#000000;stroke-width:1.30769;stroke-linecap:round;stroke-linejoin:round;stroke-miterlimit:10;stroke-dasharray:none;stroke-opacity:1" id="path1682" />
         </g>
         <g id="g1684" transform="scale(1,-1)">
            <path d="m 415.383,-596.742 c 8.039,0.289 15.98,1.816 23.929,3.023 5.653,1.27 11.434,1.821 17.09,3.047 4.942,1.125 10.024,1.547 15.09,1.758 6.258,0.738 12.449,2.094 18.774,2.078 5.269,0.25 10.519,0.832 15.804,0.703 3.114,0.758 6.563,0.231 9.571,1.34 2.031,0.559 1.168,3.406 0.203,5.137 -0.782,1.992 -1.059,3.742 -2.004,5.801 -0.988,2.23 -2.43,4.55 -3.578,6.597 -0.157,0.539 -0.598,1.016 -0.821,1.547" style="fill:none;stroke:#000000;stroke-width:1.30769;stroke-linecap:round;stroke-linejoin:round;stroke-miterlimit:10;stroke-dasharray:none;stroke-opacity:1" id="path1686" />
         </g>
         <g id="g1688" transform="scale(1,-1)">
            <path d="m 421.219,-603.402 c 4.504,0.691 98.343,15.078 98.343,15.078" style="fill:none;stroke:#000000;stroke-width:1.30769;stroke-linecap:round;stroke-linejoin:round;stroke-miterlimit:10;stroke-dasharray:none;stroke-opacity:1" id="path1690" />
         </g>
         <g id="g1692" transform="scale(1,-1)">
            <path d="m 404.754,-578.797 c 1.738,-8.691 0.297,-18.758 8.531,-24.973 4.11,-7.328 12.781,-5.808 19.66,-4.578 19.11,3.172 38.184,6.696 57.325,9.629 9.296,2.176 22.789,2.379 32.234,3.457" style="fill:none;stroke:#000000;stroke-width:1.30769;stroke-linecap:round;stroke-linejoin:round;stroke-miterlimit:10;stroke-dasharray:none;stroke-opacity:1" id="path1694" />
         </g>
         <g id="g1696" transform="scale(1,-1)">
            <path d="m 436.031,-702.098 c -1.258,6.953 -0.879,14.024 -2.679,20.817 -0.559,5.051 -1.391,9.301 -1.895,14.195 -0.023,5.969 -1.34,11.684 -1.777,17.551 -0.309,4.648 0.57,9.496 2.777,13.672 3.043,6.41 11.309,5.105 16.996,7.367 6.016,0.125 11.5,3 17.496,3.16 5.727,1.324 11.199,3.367 17.149,3.719 8.754,1.359 17.531,2.332 26.367,2.531 7.211,-1.367 7.156,-10.031 8.707,-15.707 0.016,-5.66 0.969,-11.238 0.976,-16.945 1.805,-7.274 -0.253,-14.844 0.297,-22.313 -0.812,-5.164 0.403,-10.949 -3.195,-15.328 -4.137,-6.293 -12.473,-5.863 -18.66,-8.898 -10.93,-2.543 -22.278,-3.973 -32.735,-8.121 -7.222,-0.883 -13.785,-5 -21.289,-4.293 -5.738,-1.149 -9.55,5.656 -9.007,10.41 l -0.071,0.644" style="fill:none;stroke:#000000;stroke-width:1.30769;stroke-linecap:round;stroke-linejoin:round;stroke-miterlimit:10;stroke-dasharray:none;stroke-opacity:1" id="path1698" />
         </g>
         <g id="g1700" transform="scale(1,-1)">
            <path d="m 444.219,-651.059 c 4.988,2.141 10.597,2.207 15.609,4.254 5.824,0.782 11.641,1.719 17.383,2.887 6.406,0.16 12.668,1.844 18.727,3.688 4.464,0.132 8.96,3.769 13.351,1.433 3.023,-2.207 2.649,-6.535 3.691,-9.789 0.684,-6.617 2.02,-13.168 1.911,-19.848 0.168,-4.449 1.007,-9.035 -0.672,-13.316 -3.086,-6.168 -10.453,-7.488 -16.227,-9.957 -8.062,-3.285 -16.824,-4.125 -25.117,-6.543 -7.441,-2.195 -14.867,-4.438 -22.348,-6.512 -3.882,-0.504 -9.293,-0.343 -9.812,4.696 -3.149,8.207 -4.125,17 -4.82,25.695 -0.961,5.32 -1.422,10.867 -0.426,16.207 1.004,1.691 -0.617,6.074 8.621,7.281" style="fill:none;stroke:#000000;stroke-width:1.30769;stroke-linecap:round;stroke-linejoin:round;stroke-miterlimit:10;stroke-dasharray:none;stroke-opacity:1" id="path1702" />
         </g>
         <g id="g1704" transform="scale(1,-1)">
            <path d="m 507.172,-642.828 c 0.75,-0.152 1.312,0.383 0.461,0.84 -1.66,0.457 -2.953,-0.985 -4.414,-1.469 -1.262,-0.602 -2.758,-1.438 -2.903,-2.992 -0.386,-1.578 0.422,-3.102 0.887,-4.559 0.707,-1.23 1.414,-2.832 2.992,-3.058 2.016,-0.403 4.153,-0.258 6.039,0.582 1.391,0.461 3.008,1.254 3.235,2.879 0.332,1.863 -0.809,3.562 -1.914,4.945 -0.836,0.98 -2.168,1.305 -3.352,1.676 -0.711,0.48 -2.168,-0.289 -2.156,0.711" style="fill:none;stroke:#000000;stroke-width:1.30769;stroke-linecap:round;stroke-linejoin:round;stroke-miterlimit:10;stroke-dasharray:none;stroke-opacity:1" id="path1706" />
         </g>
         <g id="g1708" transform="scale(1,-1)">
            <path d="m 445.16,-654.277 c 0.137,0.32 0.207,-0.989 0.363,-1.407 0.227,-1.089 0.707,-2.121 0.825,-3.23 -0.071,-0.645 0.605,-1.793 0.547,-1.977 -0.801,-0.902 -1.45,-1.941 -2.442,-2.664 -0.008,-0.347 -1.203,-1.386 -0.988,-0.98 -0.969,0.539 -1.434,1.551 -2.235,2.262 -0.785,0.699 -1.523,1.437 -2.101,2.32 -0.207,0.289 -0.379,0.625 -0.777,0.699" style="fill:none;stroke:#000000;stroke-width:1.30769;stroke-linecap:round;stroke-linejoin:round;stroke-miterlimit:10;stroke-dasharray:none;stroke-opacity:1" id="path1710" />
         </g>
         <g id="g1712" transform="scale(1,-1)">
            <path d="m 441.398,-699.082 c -0.003,1.144 1.18,3.871 3.071,3.754 2.023,-1.379 4.902,0.394 3.133,-2.914 -0.079,-1.891 -2.77,-6.348 0.175,-6.156" style="fill:none;stroke:#000000;stroke-width:1.30769;stroke-linecap:round;stroke-linejoin:round;stroke-miterlimit:10;stroke-dasharray:none;stroke-opacity:1" id="path1714" />
         </g>
         <g id="g1716" transform="scale(1,-1)">
            <path d="m 462.184,-700.949 c -0.575,0.801 -1.77,3.484 1.285,3.82 2.062,0.676 3.926,3.047 5.965,1.414 0.464,-0.683 1.117,-1.199 1.375,-2.008" style="fill:none;stroke:#000000;stroke-width:1.30769;stroke-linecap:round;stroke-linejoin:round;stroke-miterlimit:10;stroke-dasharray:none;stroke-opacity:1" id="path1718" />
         </g>
         <g id="g1720" transform="scale(1,-1)">
            <path d="m 471.27,-677.637 c 0.601,-0.312 -0.036,2.758 0.058,3.297 2.18,1.164 6.18,3.66 7.758,3.695 0.07,-2.601 0.59,-6.277 -0.531,-8.398 -2.243,0.352 -4.696,0.383 -6.825,1.289" style="fill:none;stroke:#000000;stroke-width:1.30769;stroke-linecap:round;stroke-linejoin:round;stroke-miterlimit:10;stroke-dasharray:none;stroke-opacity:1" id="path1722" />
         </g>
         <g id="g1724" transform="scale(1,-1)">
            <path d="m 454.715,-668.23 c 2.277,0.746 4.875,0.277 6.758,-1.204 1.933,-1.257 3.769,-2.843 4.711,-5 1.078,-1.726 0.726,-3.828 0.734,-5.75 0.207,-2.683 -1.453,-4.988 -2.715,-7.207 -1.812,-2.726 -5.16,-4.125 -8.351,-4.218 -2.27,0.086 -4.422,1.023 -6.356,2.152 -1.699,1.293 -2.238,3.519 -2.621,5.508 -0.273,3.039 -0.441,6.168 0.465,9.121 0.566,2.25 2.531,3.82 4.601,4.648 1.219,0.602 2.411,1.293 3.731,1.653" style="fill:none;stroke:#000000;stroke-width:1.30769;stroke-linecap:round;stroke-linejoin:round;stroke-miterlimit:10;stroke-dasharray:none;stroke-opacity:1" id="path1726" />
         </g>
         <g id="g1728" transform="scale(1,-1)">
            <path d="m 464.598,-669.281 c -1.309,1.343 -2.844,2.57 -4.7,3.023 -1.476,0.77 -3.199,1.34 -4.863,0.875 -1.754,-0.176 -3.359,-0.957 -5.039,-1.433 -1.418,-1.215 -3.594,-1.211 -4.762,-2.778 -1.941,-2.25 -4.648,-6.176 -4.3,-8.633 -0.028,-1.918 0.359,-3.824 1.132,-5.574 0.782,-5.902 4.887,-5.082 6.539,-7.39" style="fill:none;stroke:#000000;stroke-width:1.30769;stroke-linecap:round;stroke-linejoin:round;stroke-miterlimit:10;stroke-dasharray:none;stroke-opacity:1" id="path1730" />
         </g>
         <g id="g1732" transform="scale(1,-1)">
            <path d="m 456.156,-679.887 c -0.254,0.102 0.176,0.379 0.02,0.168 0.168,-0.074 -0.16,0.086 -0.098,0.196 -0.176,0.175 0.09,0.339 -0.078,0.488 0.254,0.113 0.504,0.18 0.688,0.168 0.308,0.094 0.429,-0.215 0.496,-0.461 0.023,-0.301 -0.422,-0.098 -0.586,-0.008 -0.239,0.059 -0.493,0.176 -0.536,0.371 0.208,0.113 -0.164,0.309 0.067,0.477 0.242,0.101 0.574,0.062 0.797,-0.086 0.129,-0.047 0.172,-0.117 0.039,-0.156 0.031,-0.016 -0.106,-0.102 0.008,-0.188 -0.118,-0.187 -0.496,-0.336 -0.457,-0.394 0.086,0.152 0.382,-0.016 0.093,0.074 -0.007,0.086 -0.269,-0.059 -0.109,0.008 -0.195,0.105 0.129,0.035 0.18,0.023 0.183,0.031 0.59,-0.125 0.621,-0.086 -0.16,0.051 -0.086,-0.031 -0.02,-0.008 -0.359,0.016 -0.734,0.067 -1.058,0.242 0.086,0.176 0.351,0.235 0.207,0.461 0.144,0 0.457,0.036 0.386,-0.058 0.301,-0.047 0.512,-0.274 0.735,-0.453 0.238,-0.164 0.148,-0.571 0.004,-0.684 -0.313,-0.078 -0.641,-0.035 -0.957,-0.012 -0.239,0.125 -0.493,0.223 -0.743,0.356 -0.253,-0.031 -0.507,0.347 -0.167,0.426" style="fill:none;stroke:#000000;stroke-width:1.30769;stroke-linecap:round;stroke-linejoin:round;stroke-miterlimit:10;stroke-dasharray:none;stroke-opacity:1" id="path1734" />
         </g>
         <g id="g1736" transform="scale(1,-1)">
            <path d="m 486.984,-693.453 c -0.445,-1.047 0.387,1.422 0.176,2.09 -0.148,2.265 1.813,3.941 2.184,6.105 0.523,1.82 -0.625,3.903 0.996,5.383 1.363,1.031 3.125,1.133 4.797,0.957 1.511,0.008 3.054,-0.508 4.316,-1.344 1.481,-1.398 2.887,-2.828 3.957,-4.574 0.688,-0.535 1.711,-2.246 1.688,-2.574" style="fill:none;stroke:#000000;stroke-width:1.30769;stroke-linecap:round;stroke-linejoin:round;stroke-miterlimit:10;stroke-dasharray:none;stroke-opacity:1" id="path1738" />
         </g>
         <g id="g1740" transform="scale(1,-1)">
            <path d="m 501.41,-685.84 c -0.515,1.125 -1.785,-0.234 -2.273,-0.777 -0.082,-0.875 -0.219,-1.953 0.031,-2.863 0.234,-0.422 0.398,-2.2 0.281,-1.004 0.239,1.422 1.289,2.734 2.664,3.191 0.11,0.152 1.223,-0.082 0.711,0.203" style="fill:none;stroke:#000000;stroke-width:1.30769;stroke-linecap:round;stroke-linejoin:round;stroke-miterlimit:10;stroke-dasharray:none;stroke-opacity:1" id="path1742" />
         </g>
         <g id="g1744" transform="scale(1,-1)">
            <path d="m 499.461,-684.953 c -0.145,-0.235 -0.766,0.672 -1.285,0.492 -1.184,0.152 -2.082,-0.777 -2.946,-1.422 -0.847,-0.777 -0.703,-2.055 -0.238,-2.988 0.203,-0.477 0.18,-1.742 0.238,-1.567 -0.64,0.711 -0.316,1.829 -0.218,2.684 0.324,1.152 1.437,1.781 2.011,2.77 0.11,0.257 0.114,0.554 0.016,0.816" style="fill:none;stroke:#000000;stroke-width:1.30769;stroke-linecap:round;stroke-linejoin:round;stroke-miterlimit:10;stroke-dasharray:none;stroke-opacity:1" id="path1746" />
         </g>
         <g id="g1748" transform="scale(1,-1)">
            <path d="m 496.168,-690.055 c 0.844,0.09 1.602,-0.715 2.383,-0.586" style="fill:none;stroke:#000000;stroke-width:1.30769;stroke-linecap:round;stroke-linejoin:round;stroke-miterlimit:10;stroke-dasharray:none;stroke-opacity:1" id="path1750" />
         </g>
         <g id="g1752" transform="scale(1,-1)">
            <path d="m 499.305,-684.664 h -0.039 l -0.043,-0.008 -0.055,-0.023 -0.043,-0.032 -0.082,0.008 v 0.016 l 0.039,0.004 0.016,0.008 0.011,-0.02 h 0.008 l 0.008,0.012 -0.113,0.011 -0.016,0.004 0.078,-0.007 0.016,0.007 0.019,0.012" style="fill:none;stroke:#000000;stroke-width:1.30769;stroke-linecap:round;stroke-linejoin:round;stroke-miterlimit:10;stroke-dasharray:none;stroke-opacity:1" id="path1754" />
         </g>
         <g id="g1756" transform="scale(1,-1)">
            <path d="m 492.652,-681.324 c 0.938,0.262 -0.933,0.676 -0.304,-0.27 -0.082,-1.07 2.16,-1.918 2.16,-0.586 -0.188,0.614 -1.07,1.25 -1.676,0.801" style="fill:none;stroke:#000000;stroke-width:1.30769;stroke-linecap:round;stroke-linejoin:round;stroke-miterlimit:10;stroke-dasharray:none;stroke-opacity:1" id="path1758" />
         </g>
         <g id="g1760" transform="scale(1,-1)">
            <path d="m 490.074,-691.473 c -0.441,-0.164 -0.265,-2.328 1.149,-1.64 1.328,-0.02 1.89,1.754 0.468,2.191 -0.199,0.145 -0.39,0.293 -0.566,0.461" style="fill:none;stroke:#000000;stroke-width:1.30769;stroke-linecap:round;stroke-linejoin:round;stroke-miterlimit:10;stroke-dasharray:none;stroke-opacity:1" id="path1762" />
         </g>
         <g id="g1764" transform="scale(1,-1)">
            <path d="m 487.941,-678.184 c 1.114,1.496 3.098,1.942 4.848,2.215 1.941,0.285 3.914,0.203 5.859,0.395 1.313,0.547 2.379,-0.625 3.618,-0.793 1.203,-0.254 2.179,-0.981 2.89,-1.953 1.039,-0.7 1.719,-1.715 2.313,-2.785 0.414,-0.688 1.16,-1.313 0.871,-2.192" style="fill:none;stroke:#000000;stroke-width:1.30769;stroke-linecap:round;stroke-linejoin:round;stroke-miterlimit:10;stroke-dasharray:none;stroke-opacity:1" id="path1766" />
         </g>
         <g id="g1768" transform="scale(1,-1)">
            <path d="m 507.348,-683.977 c -0.567,-0.382 0.191,-0.968 0.097,-1.437" style="fill:none;stroke:#000000;stroke-width:1.30769;stroke-linecap:round;stroke-linejoin:round;stroke-miterlimit:10;stroke-dasharray:none;stroke-opacity:1" id="path1770" />
         </g>
         <g id="g1772" transform="scale(1,-1)">
            <path d="m 485.543,-647.484 0.004,0.004 h 0.019 l 0.059,-0.024 -0.043,-0.023 -0.09,-0.035 0.133,-0.04 0.066,-0.015 0.063,-0.012 0.055,-0.051 0.027,-0.039 0.117,-0.039" style="fill:none;stroke:#000000;stroke-width:1.30769;stroke-linecap:round;stroke-linejoin:round;stroke-miterlimit:10;stroke-dasharray:none;stroke-opacity:1" id="path1774" />
         </g>
         <g id="g1776" transform="scale(1,-1)">
            <path d="m 452.168,-583.598 v -0.004 l -0.012,0.004 -0.039,0.02 -0.015,0.012 h -0.145 l -0.023,0.035 v 0.004 l -0.016,0.019 -0.008,0.012 -0.008,-0.008 -0.004,-0.012 -0.011,-0.004 -0.004,-0.007 -0.012,0.007 h 0.012 l 0.004,0.016 h 0.015 l -0.004,0.012 0.004,-0.004 0.008,-0.004 0.008,-0.016 h 0.004 l 0.004,0.004 h 0.004 l 0.004,-0.004 h 0.019 l 0.008,-0.004 h 0.031 l -0.004,-0.003 -0.011,0.003 0.007,-0.003 0.012,0.003 0.012,0.016 0.074,-0.008 0.035,0.024 -0.062,-0.024 0.054,-0.004 0.028,0.036 h 0.031 v -0.008 l 0.07,0.015 0.063,0.008 -0.016,0.024 0.035,0.011 0.035,0.032 0.043,0.023 0.047,0.031 0.047,0.016 0.067,0.012 0.082,0.023 0.078,0.012 0.074,0.023 0.039,0.035 0.086,0.028 0.16,0.007 0.133,0.004 0.109,0.004 0.125,0.035 0.106,0.032 0.152,-0.004 h 0.16 l 0.075,0.035 h 0.078 l 0.089,-0.016 0.079,0.008 0.031,0.016 0.117,0.015 0.141,0.004 0.05,-0.007 0.059,0.003 0.063,0.004 0.078,0.016 h -0.039 l 0.062,0.004 0.192,-0.008 0.121,0.027 0.105,0.02 0.117,0.008 0.192,0.004 0.238,0.004 0.074,0.039 0.043,0.019 0.098,0.012 h 0.105 l 0.098,0.004 0.035,0.008 0.051,0.007 0.121,-0.007 0.117,0.015 0.106,0.012 0.117,0.008 0.277,0.004 0.203,0.031 -0.023,0.019 0.094,0.012 0.097,0.008 0.071,0.004 0.054,0.004 0.149,0.004 h 0.242 l 0.039,0.004 0.062,0.003 h 0.161 l 0.066,0.004 0.047,-0.019 0.019,-0.004 0.047,-0.004 0.051,-0.019 v -0.012 l 0.012,-0.004 0.004,-0.004 0.007,0.02 0.02,-0.008 0.027,-0.02 -0.019,-0.012 -0.004,-0.015 0.016,-0.016 0.023,-0.012 -0.043,-0.007 0.063,-0.032 0.019,-0.011 0.004,-0.012 -0.012,-0.004 0.016,-0.008 0.004,-0.015 0.027,-0.032 0.004,-0.015 0.027,-0.039 0.008,-0.012 0.067,-0.012 0.121,-0.027 -0.008,-0.027 -0.012,-0.028 0.016,-0.023 0.008,-0.024 0.046,-0.039 -0.109,-0.011 -0.039,-0.051 0.102,-0.028 0.023,-0.023 0.055,-0.004 0.027,-0.008 0.16,-0.008 0.106,-0.031 -0.063,-0.015 0.016,-0.028 h -0.004 l 0.043,-0.043 0.004,-0.008 0.019,-0.003 h 0.016 l 0.023,-0.016 0.008,-0.008 h 0.043 l 0.008,0.004 -0.027,0.008 0.019,-0.012 h 0.016 l 0.008,-0.012 -0.02,-0.015 0.059,-0.004 0.054,-0.004 -0.043,0.004 -0.004,-0.031 h 0.004 v 0.004 l 0.039,-0.024 0.008,-0.008 -0.015,-0.004 -0.004,-0.004 h -0.004 l 0.004,-0.019 -0.012,-0.024 0.019,-0.019 -0.027,-0.027 -0.039,-0.016 -0.012,-0.012 v -0.019 l 0.016,-0.051 0.035,-0.047 -0.004,-0.019 -0.011,-0.028 -0.004,-0.043 -0.016,-0.023 0.02,-0.02 0.058,-0.015 0.024,-0.012 -0.016,-0.031 -0.004,-0.028 0.004,-0.031 0.004,-0.039 -0.152,-0.012 -0.028,-0.05 0.09,-0.028 0.02,-0.043 0.011,-0.019 0.016,-0.004 0.082,-0.02 0.101,-0.031 -0.019,-0.023 -0.023,-0.024 v -0.008 l -0.004,-0.004 h -0.028 l -0.062,0.004 h -0.035 l 0.023,0.004 -0.008,-0.015 -0.004,-0.012 -0.027,-0.004 0.074,-0.004 h -0.015 l -0.075,-0.012 v -0.023 l -0.015,-0.008 -0.02,-0.012 -0.023,-0.011 0.015,-0.024 -0.066,-0.031 -0.023,-0.043 -0.032,-0.027 -0.027,-0.016 0.019,-0.031 -0.031,-0.043 -0.086,-0.035 -0.054,-0.047 -0.051,-0.02 -0.082,-0.027 -0.11,-0.027 0.008,-0.036 0.004,-0.015 -0.047,-0.028 -0.035,-0.031 -0.035,-0.008 -0.047,-0.019 0.031,-0.024 v -0.031 l -0.058,-0.008 -0.055,-0.023 -0.031,-0.035 -0.02,-0.028 0.016,0.008 v -0.027 l -0.078,-0.004 -0.074,-0.02 -0.047,-0.031 -0.043,-0.027 -0.047,-0.016 -0.188,-0.023 -0.117,-0.047 0.067,-0.012 -0.028,-0.008 -0.055,-0.023 -0.05,-0.016 0.062,-0.027 0.082,-0.012 -0.094,-0.004 h -0.128 l -0.075,-0.015 -0.062,-0.016 -0.059,-0.004 -0.215,-0.015 -0.175,-0.008 0.035,-0.016 -0.012,-0.019 -0.023,-0.024 -0.036,-0.027 v -0.02 l -0.058,-0.015 -0.113,-0.028 -0.071,-0.011 -0.05,-0.008 -0.051,-0.024 -0.059,-0.023 -0.047,-0.012 -0.054,-0.023 -0.051,-0.024 -0.059,-0.011 -0.058,-0.028 -0.043,-0.027 0.019,0.008 -0.058,-0.016 -0.098,-0.039 -0.074,0.035 -0.063,0.008 -0.051,-0.008 -0.054,0.004 -0.024,-0.012 -0.023,0.004 -0.043,0.008 -0.047,0.024 0.063,-0.012 0.011,-0.012 -0.082,-0.004 -0.051,0.016 -0.046,-0.008 -0.036,-0.004 -0.074,0.016 -0.078,0.008 -0.027,0.003 -0.035,0.004 h -0.043 l -0.028,0.004 h -0.203 l -0.035,-0.004 -0.043,-0.007 -0.027,-0.012 -0.012,0.004 0.008,-0.004 -0.032,0.004 h -0.199 l -0.07,0.004 h -0.195 l -0.133,0.004 0.015,-0.008 -0.05,0.019 -0.028,0.02 -0.023,0.008 -0.031,-0.016 -0.051,0.016 -0.074,0.027 -0.043,0.031 -0.032,0.016 -0.011,-0.008 -0.02,0.016 -0.047,0.007 h -0.015 l -0.004,-0.007 -0.028,-0.012 -0.007,0.008 -0.036,0.019 -0.031,0.02 -0.019,0.004 -0.028,0.007 -0.015,-0.003 -0.004,0.003 -0.059,0.008 -0.054,0.004 -0.02,0.004 h -0.016 l -0.023,0.004 -0.016,0.008 h 0.063 l 0.004,0.004 -0.114,-0.008 -0.07,0.012 -0.078,0.004 h -0.059 l -0.132,0.019 -0.102,-0.023 h -0.016 l -0.074,0.015 -0.07,0.028 -0.02,-0.02 -0.047,0.027 h -0.015 l -0.035,0.016 -0.086,0.012 -0.078,0.031 -0.059,0.016 -0.047,0.007 -0.055,0.036 -0.05,0.015 -0.051,0.012 -0.055,0.008 -0.047,0.008 h -0.031 l -0.027,0.015 -0.192,0.008 -0.125,0.004 0.078,-0.008 -0.007,0.027 h 0.043 l 0.019,0.016 -0.004,0.004 h -0.074 l -0.047,0.02 0.012,0.003 -0.035,0.004 h -0.063 l -0.043,0.008 -0.023,0.008 -0.031,0.016 -0.055,-0.008 -0.102,0.019 -0.097,0.047 -0.028,0.016 -0.027,0.023 -0.055,0.016 -0.019,0.019 -0.137,0.039 -0.062,0.04 -0.055,-0.012 -0.039,0.008 -0.02,0.015 0.09,0.012 0.008,0.012 -0.098,0.015 -0.066,0.008 -0.051,0.008 -0.016,0.008 -0.058,0.011 -0.098,0.024 -0.043,0.039 0.016,0.008 v 0.019 l 0.004,0.024 v 0.011 l 0.066,0.016 0.035,0.027 -0.027,0.02 -0.02,0.012 -0.023,0.008 -0.016,0.003 -0.078,0.012 0.008,0.004 -0.047,0.023 -0.015,0.02 -0.028,0.027 -0.156,0.008 -0.066,0.047 0.089,-0.004 -0.007,0.035 v 0.02 l 0.007,0.004 0.008,-0.004 0.035,0.031 0.016,-0.004 -0.02,0.02 v 0.004 l 0.004,0.004 0.012,0.023 -0.039,0.016 -0.039,0.027 0.047,0.027 0.004,0.047 0.008,0.024 0.003,0.031 -0.019,0.023 -0.012,0.043 0.016,0.063 0.062,0.101 0.036,0.063 0.101,0.039 0.004,0.07 0.004,0.047 0.078,0.039 0.066,0.016 0.043,0.023 0.051,0.024 0.117,0.043" style="fill:none;stroke:#000000;stroke-width:1.30769;stroke-linecap:round;stroke-linejoin:round;stroke-miterlimit:10;stroke-dasharray:none;stroke-opacity:1" id="path1778" />
         </g>
         <g id="g1780" transform="scale(1,-1)">
            <path d="m 505.465,-643.699 c -1.356,-0.184 0.18,-2.156 1.07,-1.141 0.766,0.789 -0.547,1.543 -1.168,0.832" style="fill:none;stroke:#000000;stroke-width:1.30769;stroke-linecap:round;stroke-linejoin:round;stroke-miterlimit:10;stroke-dasharray:none;stroke-opacity:1" id="path1782" />
         </g>
         <g id="g1784" transform="scale(1,-1)">
            <path d="m 507.047,-652.113 c -0.043,-1 -1.594,0.086 -0.371,0.25 1.386,0.043 1.347,-2.215 -0.117,-1.621 -0.305,0.183 -1.016,0.402 -0.762,0.879" style="fill:none;stroke:#000000;stroke-width:1.30769;stroke-linecap:round;stroke-linejoin:round;stroke-miterlimit:10;stroke-dasharray:none;stroke-opacity:1" id="path1786" />
         </g>
         <g id="g1788" transform="scale(1,-1)">
            <path d="m 505.758,-642.402 c -0.879,0.836 -2.024,-0.055 -2.731,-0.676 -0.832,-0.516 -1.39,-1.246 -1.66,-2.199 -0.359,-1.012 -0.722,-2.051 -0.859,-3.114 0.062,-1.734 -0.012,-3.543 0.793,-5.136 0.633,-1.325 2.156,-1.895 3.543,-1.891 1.586,-0.215 3.308,0.301 4.301,1.602 1.105,1.089 2.351,2.312 2.398,3.972 0.234,1.715 0.434,3.676 -0.691,5.137 -0.809,1.441 -1.813,3.137 -3.622,3.348 -1.054,0.136 -2.222,0.07 -3.175,-0.395" style="fill:none;stroke:#000000;stroke-width:1.30769;stroke-linecap:round;stroke-linejoin:round;stroke-miterlimit:10;stroke-dasharray:none;stroke-opacity:1" id="path1790" />
         </g>
         <g id="g1792" transform="scale(1,-1)">
            <path d="m 500.133,-655.027 c -2.117,0.605 -4.309,0.836 -6.477,1.152 -1.816,0.43 -3.551,1.152 -5.386,1.484 -0.227,0.071 -2.395,0.664 -1.145,0.18" style="fill:none;stroke:#000000;stroke-width:1.30769;stroke-linecap:round;stroke-linejoin:round;stroke-miterlimit:10;stroke-dasharray:none;stroke-opacity:1" id="path1794" />
         </g>
         <g id="g1796" transform="scale(1,-1)">
            <path d="m 499.59,-654.883 c -1.992,0.715 -4.125,0.93 -6.106,1.68 -1.289,0.371 -2.644,0.601 -3.816,1.285" style="fill:none;stroke:#000000;stroke-width:1.30769;stroke-linecap:round;stroke-linejoin:round;stroke-miterlimit:10;stroke-dasharray:none;stroke-opacity:1" id="path1798" />
         </g>
         <g id="g1800" transform="scale(1,-1)">
            <path d="m 486.773,-650.359 c -0.359,0.14 -0.507,0.507 -0.714,0.785 -0.239,0.242 -0.18,0.609 -0.329,0.89 -0.207,0.286 -0.335,0.629 -0.453,0.95 0.18,0.152 -0.074,0.339 0.075,0.578 0.105,0.156 -0.145,0.312 0.027,0.418" style="fill:none;stroke:#000000;stroke-width:1.30769;stroke-linecap:round;stroke-linejoin:round;stroke-miterlimit:10;stroke-dasharray:none;stroke-opacity:1" id="path1802" />
         </g>
         <g id="g1804" transform="scale(1,-1)">
            <path d="m 486.312,-648.766 c 0.153,0.481 -0.585,1.239 -0.14,1.582" style="fill:none;stroke:#000000;stroke-width:1.30769;stroke-linecap:round;stroke-linejoin:round;stroke-miterlimit:10;stroke-dasharray:none;stroke-opacity:1" id="path1806" />
         </g>
         <g id="g1808" transform="scale(1,-1)">
            <path d="m 413.871,-582.492 c 0.168,0.652 0.945,-1.735 0.961,-2.047 -0.387,0.676 -1.117,2.227 -0.988,2.918 1.004,0.16 2.636,-2.723 2.211,-2.137 -0.77,1.387 1.437,2.188 1.336,0.539" style="fill:none;stroke:#000000;stroke-width:1.30769;stroke-linecap:round;stroke-linejoin:round;stroke-miterlimit:10;stroke-dasharray:none;stroke-opacity:1" id="path1810" />
         </g>
         <g id="g1812" transform="scale(1,-1)">
            <path d="m 422.629,-580.957 c -0.516,-0.797 1.324,-2.891 0.855,-2.68 -0.472,1.051 0.102,3.848 1.563,2.34 1.293,-1.738 0.16,-0.332 0.832,0.707 0.312,-0.676 1.683,-1.605 0.898,-1.402 l 0.02,-0.059 -0.102,-0.043" style="fill:none;stroke:#000000;stroke-width:1.30769;stroke-linecap:round;stroke-linejoin:round;stroke-miterlimit:10;stroke-dasharray:none;stroke-opacity:1" id="path1814" />
         </g>
         <g id="g1816" transform="scale(1,-1)">
            <path d="m 430.664,-578.863 c 0.012,0.859 -0.004,-0.344 -0.371,-1.016 -0.52,-1.156 1.18,-2.82 1.219,-3.269" style="fill:none;stroke:#000000;stroke-width:1.30769;stroke-linecap:round;stroke-linejoin:round;stroke-miterlimit:10;stroke-dasharray:none;stroke-opacity:1" id="path1818" />
         </g>
         <g id="g1820" transform="scale(1,-1)">
            <path d="m 437.473,-577.777 c 1.086,-1.024 2.039,-1.942 1.914,-3.578 0.031,-0.469 -0.414,-0.79 -0.293,-1.309" style="fill:none;stroke:#000000;stroke-width:1.30769;stroke-linecap:round;stroke-linejoin:round;stroke-miterlimit:10;stroke-dasharray:none;stroke-opacity:1" id="path1822" />
         </g>
         <g id="g1824" transform="scale(1,-1)">
            <path d="m 434.668,-580.605 c -2.113,0.437 1.363,-1.719 -0.625,-0.586 0.848,-0.086 -0.023,-0.141 -0.41,0.406" style="fill:none;stroke:#000000;stroke-width:1.30769;stroke-linecap:round;stroke-linejoin:round;stroke-miterlimit:10;stroke-dasharray:none;stroke-opacity:1" id="path1826" />
         </g>
         <g id="g1828" transform="scale(1,-1)">
            <path d="m 444.34,-578.52 c -0.024,-1.414 -2.293,0.348 -0.149,0.477 2.977,0.352 0.266,-2.852 -0.914,-1.562" style="fill:none;stroke:#000000;stroke-width:1.30769;stroke-linecap:round;stroke-linejoin:round;stroke-miterlimit:10;stroke-dasharray:none;stroke-opacity:1" id="path1830" />
         </g>
         <g id="g1832" transform="scale(1,-1)">
            <path d="m 445.707,-575.434 c 1.227,0.469 2.355,-2.16 2.633,-3.375 0.015,-0.414 -0.195,-0.851 -0.004,-1.238" style="fill:none;stroke:#000000;stroke-width:1.30769;stroke-linecap:round;stroke-linejoin:round;stroke-miterlimit:10;stroke-dasharray:none;stroke-opacity:1" id="path1834" />
         </g>
         <g id="g1836" transform="scale(1,-1)">
            <path d="m 450.387,-584.926 c 0.172,0.071 0.558,-0.031 0.14,0.016 0.575,-0.02 0.086,-1.309 0.469,-1.481 0.82,-0.472 1.789,-0.175 2.684,-0.23 0.984,-0.027 1.886,0.394 2.843,0.527 0.731,0.184 1.481,0.235 2.215,0.379 0.617,0.266 1.094,0.621 0.907,1.379 0.035,0.398 0.093,1.363 -0.313,1.406 0.293,0.129 -0.926,0.09 -1.168,0.09 -1.773,-0.015 -3.527,-0.324 -5.262,-0.683 -0.246,-0.122 -1.07,-0.211 -1.062,-0.301" style="fill:none;stroke:#000000;stroke-width:1.30769;stroke-linecap:round;stroke-linejoin:round;stroke-miterlimit:10;stroke-dasharray:none;stroke-opacity:1" id="path1838" />
         </g>
         <g id="g1840" transform="scale(1,-1)">
            <path d="m 465.512,-582.402 0.019,-0.008 -0.011,-0.028 -0.114,-0.046 -0.125,-0.047 -0.093,-0.051 -0.09,-0.02 -0.223,-0.011 -0.09,-0.059 0.024,0.016 -0.079,-0.008 -0.058,-0.008 0.019,0.012 0.004,0.008 -0.05,0.007 -0.024,0.016 0.063,-0.004 0.031,0.008 0.031,0.02 0.027,0.023 0.047,0.016 0.055,0.011 0.078,0.02 0.067,0.015 0.058,0.024 0.086,0.035 0.106,0.035 0.039,0.043 0.058,0.059 0.149,0.043 0.132,0.066 0.129,0.043 0.118,0.043 0.136,0.043 0.121,0.059 0.133,0.043 0.153,0.039 0.14,0.058 0.125,0.039 0.152,0.02 0.161,0.027 0.129,0.028 0.125,0.023 0.109,0.027 0.113,0.024 0.113,0.008 0.145,0.031 0.082,0.035 0.031,0.043 0.086,0.027 0.051,0.043 0.039,0.024 0.063,0.011 -0.012,0.032 0.023,0.019 h 0.125 l 0.106,0.02 h 0.125 l 0.195,0.008 h 0.156 l -0.054,0.011 0.062,0.004 0.09,-0.004 0.059,0.016 -0.039,0.008 -0.043,-0.004 0.085,0.019 0.098,-0.004 0.059,0.004 0.031,0.004 0.039,0.02 -0.047,0.004 0.016,0.008 h 0.058 v -0.008 l 0.008,-0.004 v 0.008 l -0.054,-0.02 -0.075,-0.012 h 0.028 l 0.027,-0.023" style="fill:none;stroke:#000000;stroke-width:1.30769;stroke-linecap:round;stroke-linejoin:round;stroke-miterlimit:10;stroke-dasharray:none;stroke-opacity:1" id="path1842" />
         </g>
         <g id="g1844" transform="scale(1,-1)">
            <path d="m 464.863,-583.848 0.02,-0.004 0.047,-0.019 0.117,-0.024 0.113,-0.035 h 0.055 l 0.082,-0.008 0.047,0.02 0.043,-0.004 -0.012,-0.004 0.02,-0.004 0.085,0.008 0.067,0.008 0.058,0.019 0.067,0.032 0.223,0.015 0.171,0.012 -0.007,0.027 0.074,0.016 0.105,0.027 0.106,0.032 0.023,0.019 0.063,0.016 0.156,0.035 0.121,0.035 0.109,0.02 0.106,0.031 0.113,0.031 -0.004,0.035 0.051,0.016 0.125,0.019 0.043,0.004 0.043,0.02 0.062,0.023 0.067,0.016 0.09,0.043 0.082,0.031 0.035,0.008 0.059,-0.004 0.039,0.016 0.05,0.035 0.016,0.043 0.023,0.012 0.051,0.015 0.047,0.008 0.035,0.019 0.028,0.008 -0.043,0.02 0.007,0.023 0.071,0.004 0.043,0.028 0.023,0.003 0.012,0.004 h 0.019 l 0.012,0.004 0.016,-0.004 h -0.012 v 0.02 h -0.004 l -0.07,-0.02" style="fill:none;stroke:#000000;stroke-width:1.30769;stroke-linecap:round;stroke-linejoin:round;stroke-miterlimit:10;stroke-dasharray:none;stroke-opacity:1" id="path1846" />
         </g>
         <g id="g1848" transform="scale(1,-1)">
            <path d="m 465.211,-585.707 0.004,-0.023 0.015,-0.047 0.059,-0.082 0.043,-0.102 0.059,-0.07 0.05,-0.031 h 0.094 l 0.035,-0.02 0.102,-0.004 0.148,0.008 0.121,0.008 0.133,-0.012 0.164,0.02 0.176,0.031 0.156,0.035 0.149,0.039 0.117,0.047 0.125,0.043 0.125,0.031 0.113,0.047 -0.047,0.043 0.047,0.047 0.168,0.054 0.082,0.067 0.051,0.043 0.074,0.027 0.145,0.031 0.125,0.016 0.074,0.035 0.078,0.024 0.082,0.043 0.09,0.035 0.078,0.012 0.141,0.019 0.133,0.023 0.027,0.036 0.058,0.019 0.063,0.024 0.055,0.023 0.031,0.023 -0.012,0.028 0.055,0.023 0.101,0.024 0.051,0.031 0.031,0.023 0.032,0.028 0.355,0.039" style="fill:none;stroke:#000000;stroke-width:1.30769;stroke-linecap:round;stroke-linejoin:round;stroke-miterlimit:10;stroke-dasharray:none;stroke-opacity:1" id="path1850" />
         </g>
         <g id="g1852" transform="scale(1,-1)">
            <path d="m 472.277,-581.211 c 0.114,-0.172 0.098,-1.269 0.157,-1.887 0,-0.863 0.878,-1.328 1.722,-1.082 0.973,0.094 1.891,0.43 2.848,0.59 0.789,0.207 1.598,0.352 2.414,0.317 0.461,0.195 1.387,0.461 0.738,1.152 -0.094,0.672 -1.054,1.183 -0.558,1.879 0.175,0.332 -0.453,0.344 -0.395,0.586 -0.816,0.562 -1.808,0.101 -2.691,-0.012 -0.766,-0.09 -1.461,-0.465 -2.203,-0.66 -0.649,-0.266 -1.375,-0.32 -2.028,-0.508 l 0.121,-0.004" style="fill:none;stroke:#000000;stroke-width:1.30769;stroke-linecap:round;stroke-linejoin:round;stroke-miterlimit:10;stroke-dasharray:none;stroke-opacity:1" id="path1854" />
         </g>
         <g id="g1856" transform="scale(1,-1)">
            <path d="m 483.73,-579.316 v 0.004 l 0.024,0.019 -0.016,0.047 0.004,-0.004 h 0.207 l 0.078,-0.051 -0.16,0.039 -0.027,-0.004 -0.031,0.02 -0.024,0.016 h -0.058 l -0.012,-0.008 0.027,0.023 v -0.015 l -0.004,-0.016 v 0.004 -0.004 l 0.008,0.008 0.004,0.023 0.004,0.004 h 0.016 l 0.003,-0.004 v 0.004 l 0.004,0.004 0.055,-0.004 0.016,-0.012 h -0.032 l 0.012,-0.023 v -0.004 l 0.016,0.016 0.004,-0.024 -0.016,-0.004 v -0.004 l 0.004,0.02 0.008,0.012 -0.09,-0.004 -0.039,-0.024 0.07,-0.019 -0.004,-0.008 0.039,-0.035 0.024,-0.02 0.07,-0.027 0.094,-0.039 0.027,-0.051 0.012,-0.059 0.012,-0.054 0.027,-0.051 0.043,-0.078 v -0.082 l 0.008,-0.09 0.066,-0.078 0.063,-0.082 0.027,-0.082 0.035,-0.086 0.051,-0.074 0.004,-0.075 0.012,-0.07 0.046,-0.047 0.02,-0.043 0.008,-0.054 -0.012,-0.059 0.148,-0.059 0.102,-0.074 -0.066,-0.047 -0.008,-0.066 -0.024,-0.043 -0.004,-0.047 -0.062,-0.035 -0.035,-0.039 0.035,-0.043 v -0.11 l 0.012,-0.031 0.004,-0.027 0.023,-0.027 0.023,-0.024 -0.003,-0.023 v -0.028 l 0.039,-0.039 0.011,-0.043 0.012,-0.035 0.02,-0.027 -0.016,-0.024 -0.004,-0.05 0.016,-0.02 0.035,0.008 0.055,-0.024 -0.02,-0.019 -0.012,-0.016 -0.004,-0.011 -0.004,-0.008 0.016,-0.008 h -0.074 l -0.008,-0.008 0.059,-0.008 0.011,0.004 v 0.012 l 0.004,0.008 0.012,-0.004 0.062,0.015 -0.011,-0.003 -0.031,-0.004 0.039,0.004 h 0.011 l -0.015,0.003 -0.047,-0.007 -0.016,-0.004 0.039,0.011 0.039,0.004 0.008,-0.011 0.004,-0.004 0.047,-0.024 -0.008,0.012 -0.039,-0.035 0.066,-0.008 0.063,-0.004 0.012,-0.035 -0.012,-0.027 0.133,-0.016 0.054,-0.023 -0.066,-0.016 0.008,-0.047 -0.008,-0.016 -0.016,-0.007 -0.007,-0.008 h -0.008 l -0.012,-0.008 v -0.004 l 0.027,-0.004 h 0.036 l 0.109,-0.012 h 0.07 l -0.058,0.02 -0.039,0.012 0.007,0.015 v 0.008 l -0.007,0.028 -0.004,0.019 0.004,-0.008" style="fill:none;stroke:#000000;stroke-width:1.30769;stroke-linecap:round;stroke-linejoin:round;stroke-miterlimit:10;stroke-dasharray:none;stroke-opacity:1" id="path1858" />
         </g>
         <g id="g1860" transform="scale(1,-1)">
            <path d="m 484.676,-579.465 c -0.207,-0.277 -0.364,-0.129 0.012,-0.019 0.257,0.48 0.933,0.703 1.46,0.839 0.946,0.368 1.977,0.305 2.95,0.555 0.359,0.149 0.824,0.11 0.562,-0.39 -0.363,-0.5 0.453,-1.032 -0.07,-1.399 0.187,-0.43 0.422,-0.879 0.351,-1.344 -0.375,-0.027 0.282,0.11 -0.289,0.043 -0.777,-0.09 -1.562,-0.148 -2.336,-0.265 -0.269,-0.114 -1.011,-0.293 -0.988,-0.301 0.152,0.004 -0.074,-0.106 -0.09,-0.059" style="fill:none;stroke:#000000;stroke-width:1.30769;stroke-linecap:round;stroke-linejoin:round;stroke-miterlimit:10;stroke-dasharray:none;stroke-opacity:1" id="path1862" />
         </g>
         <g id="g1864" transform="scale(1,-1)">
            <path d="m 496.66,-577.746 v -0.008 l -0.004,-0.012 -0.008,-0.019 0.032,-0.008 0.043,-0.008 -0.02,-0.004 h -0.015 l -0.004,0.008 v 0.008 l -0.024,-0.023 0.02,-0.036 v -0.011 l -0.02,-0.024 -0.004,-0.062 -0.008,-0.043 0.016,-0.004 -0.168,-0.051 -0.121,-0.027 0.141,-0.024 0.05,-0.066 0.024,-0.074 0.039,-0.055 0.101,-0.039 0.032,-0.059 -0.043,-0.039 0.015,-0.058 0.016,-0.051 0.008,-0.063 0.004,-0.066 -0.012,-0.043 -0.02,-0.066 0.024,-0.067 0.019,-0.07 0.004,-0.067 0.004,-0.062 0.063,-0.063 -0.012,-0.043 -0.059,-0.035 0.016,-0.05 0.008,-0.051 v -0.074 l 0.027,-0.051 0.004,-0.047 v -0.121 l 0.016,-0.043 0.039,-0.031 0.015,-0.032 -0.019,-0.023 -0.02,-0.02 -0.011,-0.019 0.007,-0.024 -0.019,-0.043 -0.027,-0.054 0.007,-0.035 -0.004,-0.032 -0.019,-0.035 -0.008,-0.031 -0.008,-0.027 0.106,-0.032 -0.035,-0.062" style="fill:none;stroke:#000000;stroke-width:1.30769;stroke-linecap:round;stroke-linejoin:round;stroke-miterlimit:10;stroke-dasharray:none;stroke-opacity:1" id="path1866" />
         </g>
         <g id="g1868" transform="scale(1,-1)">
            <path d="m 495.535,-578.102 c 0.266,0.747 1.328,0.754 1.961,1.106 0.68,0.211 1.391,0.285 2.09,0.394 1.133,0.094 2.262,0.219 3.375,0.418 0.062,-0.015 0.711,-0.027 0.543,-0.074" style="fill:none;stroke:#000000;stroke-width:1.30769;stroke-linecap:round;stroke-linejoin:round;stroke-miterlimit:10;stroke-dasharray:none;stroke-opacity:1" id="path1870" />
         </g>
         <g id="g1872" transform="scale(1,-1)">
            <path d="m 503.387,-576.859 c 0.105,-0.118 0.418,0.05 0.429,-0.114 -0.254,-0.082 -0.175,-0.402 -0.05,-0.543 0.007,-0.254 -0.09,-0.492 -0.094,-0.738 0.058,-0.207 -0.035,-0.402 -0.09,-0.574 0.113,-0.188 0.008,-0.402 -0.023,-0.598 -0.016,-0.062 -0.047,-0.117 -0.082,-0.172" style="fill:none;stroke:#000000;stroke-width:1.30769;stroke-linecap:round;stroke-linejoin:round;stroke-miterlimit:10;stroke-dasharray:none;stroke-opacity:1" id="path1874" />
         </g>
         <g id="g1876" transform="scale(1,-1)">
            <path d="m 497.539,-580.594 c -0.195,-0.246 -0.609,-0.375 -0.098,-0.191 1.36,0.301 2.762,0.398 4.11,0.762 0.554,0.039 1.066,0.246 1.605,0.367 0.492,0.051 1.239,0.082 1.574,0.191 l -0.054,0.02" style="fill:none;stroke:#000000;stroke-width:1.30769;stroke-linecap:round;stroke-linejoin:round;stroke-miterlimit:10;stroke-dasharray:none;stroke-opacity:1" id="path1878" />
         </g>
         <g id="g1880" transform="scale(1,-1)">
            <path d="m 489.234,-568.383 c -0.531,-0.066 -0.918,-0.578 -1.086,-1.148 -0.23,-0.621 -0.117,-1.246 0.274,-1.789 0.484,-0.457 1.144,-0.766 1.699,-1.168 1.059,-0.637 2.484,-0.492 3.477,0.203 0.418,0.437 1.007,0.976 0.672,1.64 -0.149,0.618 -0.645,1 -1.02,1.465 -0.387,0.504 -0.766,1.102 -1.301,1.457 -1.008,0.453 -2.226,0.895 -3.281,0.336 -0.59,-0.406 -0.695,-1.191 -0.879,-1.711 0.043,-0.742 -0.113,-1.664 0.664,-2.187 0.414,-0.387 0.977,-0.539 1.524,-0.641" style="fill:none;stroke:#000000;stroke-width:1.30769;stroke-linecap:round;stroke-linejoin:round;stroke-miterlimit:10;stroke-dasharray:none;stroke-opacity:1" id="path1882" />
         </g>
         <g id="g1884" transform="scale(1,-1)">
            <path d="m 456.906,-577.48 c -0.258,0.339 0.477,0.3 0.055,0.316 0.918,0.027 1.797,0.332 2.707,0.414 1.246,0.18 2.426,0.625 3.668,0.832 1.289,0.289 2.625,0.254 3.937,0.309 0.059,-0.024 0.532,0.019 0.422,0.035" style="fill:none;stroke:#000000;stroke-width:1.30769;stroke-linecap:round;stroke-linejoin:round;stroke-miterlimit:10;stroke-dasharray:none;stroke-opacity:1" id="path1886" />
         </g>
         <g id="g1888" transform="scale(1,-1)">
            <path d="m 467.465,-575.242 c 0.609,-0.738 0.367,0.449 0.23,0.773 -0.199,0.528 -0.195,1.094 -0.379,1.582 -0.191,0.153 -0.121,1.071 -0.05,0.977" style="fill:none;stroke:#000000;stroke-width:1.30769;stroke-linecap:round;stroke-linejoin:round;stroke-miterlimit:10;stroke-dasharray:none;stroke-opacity:1" id="path1890" />
         </g>
         <g id="g1892" transform="scale(1,-1)">
            <path d="m 465.961,-571.438 c -0.746,-0.121 -1.566,-0.078 -2.332,-0.253 -0.84,-0.184 -1.68,-0.391 -2.551,-0.379 -1.258,-0.157 -2.539,-0.055 -3.789,-0.266 -0.305,-0.199 -0.738,-0.16 -1.09,-0.121" style="fill:none;stroke:#000000;stroke-width:1.30769;stroke-linecap:round;stroke-linejoin:round;stroke-miterlimit:10;stroke-dasharray:none;stroke-opacity:1" id="path1894" />
         </g>
         <g id="g1896" transform="scale(1,-1)">
            <path d="m 457.055,-573.527 c -0.051,0.328 -0.305,0.375 0.101,0.246 -0.394,-0.34 -0.289,-1.071 -0.285,-1.465 -0.008,-0.285 -0.125,-0.535 0.285,-0.625 -0.32,0.008 -0.218,-0.395 -0.414,-0.481" style="fill:none;stroke:#000000;stroke-width:1.30769;stroke-linecap:round;stroke-linejoin:round;stroke-miterlimit:10;stroke-dasharray:none;stroke-opacity:1" id="path1898" />
         </g>
         <g id="g1900" transform="scale(1,-1)">
            <path d="m 417.926,-618.699 c 2.297,-20.516 7.961,-72.535 13.586,-107.965 l 0.179,0.019" style="fill:none;stroke:#000000;stroke-width:1.30769;stroke-linecap:round;stroke-linejoin:round;stroke-miterlimit:10;stroke-dasharray:none;stroke-opacity:1" id="path1902" />
         </g>
         <g id="g1904" transform="scale(1,-1)">
            <path d="m 398.246,-652.949 c 0.582,-1.188 2.762,-3.262 2.973,-3.535 -0.727,1.507 -2.203,2.679 -2.559,4.343 1.59,-1.703 3.774,-3.601 3.332,-6.191 -0.199,-2.266 -1.324,-4.285 -2.148,-6.359 0.832,-0.028 2.625,2.035 2.386,1.605 -0.269,-0.562 -1.601,-1.281 -0.91,-1.93" style="fill:none;stroke:#000000;stroke-width:1.30769;stroke-linecap:round;stroke-linejoin:round;stroke-miterlimit:10;stroke-dasharray:none;stroke-opacity:1" id="path1906" />
         </g>
         <g id="g1908" transform="scale(1,-1)">
            <path d="m 400.711,-667.754 c -0.555,0.742 -0.941,2.024 0.027,0.649 0.469,-0.786 2.094,-2.403 1.711,-2.735 -0.777,0.336 -2.469,1.805 -1.949,2.43 2.16,-1.192 3.707,-3.469 3.621,-5.992 0.957,-2.754 -1.641,-4.993 -1.891,-7.625 -0.785,-1.36 0.094,-1.848 0.813,-0.414 0.551,0.734 1.984,2.957 1.496,3.046 -0.93,-1.07 -1.117,-4.269 -2.203,-4.332" style="fill:none;stroke:#000000;stroke-width:1.30769;stroke-linecap:round;stroke-linejoin:round;stroke-miterlimit:10;stroke-dasharray:none;stroke-opacity:1" id="path1910" />
         </g>
         <g id="g1912" transform="scale(1,-1)">
            <path d="m 402.121,-689.367 c -2.324,0.551 -0.594,3.89 0.922,1.57 0.934,-0.672 1.355,-1.66 0.156,-0.308 -0.676,0.546 -1.965,1.902 -0.554,0.554 1.796,-1.683 2.46,-4.148 3.664,-6.222 -0.02,-2.379 -1.438,-4.407 -2.121,-6.614 0.91,0.598 2.007,3.016 2.285,3.004 -0.094,-1.457 -2.196,-3.121 -1.477,-4.25 l 0.301,0.016" style="fill:none;stroke:#000000;stroke-width:1.30769;stroke-linecap:round;stroke-linejoin:round;stroke-miterlimit:10;stroke-dasharray:none;stroke-opacity:1" id="path1914" />
         </g>
         <g id="g1916" transform="scale(1,-1)">
            <path d="m 473.449,-644.918 c 3.039,-1.52 5.785,-6.453 7.696,-9.102 1.667,-2.976 3.304,-5.968 3.605,-9.429 0.766,-3.653 0.805,-7.379 0.988,-11.098 0.36,-3.469 0.231,-6.918 -0.437,-10.301 -0.809,-3.34 -1.61,-6.73 -3.543,-9.601 -0.063,-0.391 -1.168,-1.492 -0.43,-1.66" style="fill:none;stroke:#000000;stroke-width:1.30769;stroke-linecap:round;stroke-linejoin:round;stroke-miterlimit:10;stroke-dasharray:none;stroke-opacity:1" id="path1918" />
         </g>
      </g>
   </g>
</svg>
