<?xml version="1.0" encoding="UTF-8" standalone="no"?>
<!-- Created by Ashley Blewer - This work is licensed under a Creative Commons Attribution 4.0 International License -->

<svg width="544" height="480" viewBox="0 0 143.93334 127" version="1.1" id="svg2490" inkscape:version="1.1.2 (08b2f3d93c, 2022-04-05)" sodipodi:docname="1975-type-b-5.svg"
   xmlns:inkscape="http://www.inkscape.org/namespaces/inkscape"
   xmlns:sodipodi="http://sodipodi.sourceforge.net/DTD/sodipodi-0.dtd"
   xmlns="http://www.w3.org/2000/svg"
   xmlns:svg="http://www.w3.org/2000/svg">
   <sodipodi:namedview id="namedview2492" pagecolor="#ffffff" bordercolor="#666666" borderopacity="1.0" inkscape:pageshadow="2" inkscape:pageopacity="0.0" inkscape:pagecheckerboard="0" inkscape:document-units="mm" showgrid="false" units="px" inkscape:zoom="0.90583674" inkscape:cx="272.67607" inkscape:cy="177.18425" inkscape:window-width="1848" inkscape:window-height="1136" inkscape:window-x="72" inkscape:window-y="27" inkscape:window-maximized="1" inkscape:current-layer="layer1" />
   <defs id="defs2487" />
   <g inkscape:label="Layer 1" inkscape:groupmode="layer" id="layer1">
      <g id="g18393" transform="matrix(0.3268696,0,0,0.32682961,-227.96273,-120.73007)" style="stroke-width:0.923303">
         <g id="g2172" transform="scale(1,-1)" style="stroke-width:0.923303">
            <path d="m 866.449,-707.48 h 0.016 l 0.07,-0.004 0.082,0.027 0.078,-0.047 0.121,-0.043 -0.07,0.012 -0.066,-0.059 0.117,0.008 h -0.035 l -0.024,0.035 -0.015,0.012 0.324,-0.016 0.043,0.012 -0.274,0.012 -0.074,0.058 -0.082,0.063 -0.07,0.035 -0.121,0.004 -0.117,0.008 -0.036,0.011 -0.046,0.008 -0.04,0.016 -0.046,0.039 -0.059,0.019 0.027,-0.019 -0.027,0.035 -0.078,-0.016 -0.055,-0.003 -0.035,0.003 v -0.003 l -0.023,0.015 0.015,0.004 0.02,0.004 0.011,0.008 -0.003,0.008 -0.016,0.043 -0.027,0.015 0.004,-0.023 0.003,0.011 -0.05,0.004 -0.024,0.016 -0.023,-0.012 -0.047,-0.004 -0.192,0.036 -0.14,0.039 h 0.047 l -0.047,0.011 -0.039,0.004 -0.035,-0.008 -0.051,-0.015 0.074,0.027 -0.031,0.008 -0.145,0.004 -0.125,0.004 h -0.121 l -0.094,0.004 -0.273,0.004 -0.207,0.004 v -0.008 l -0.055,-0.004 h -0.062 l -0.071,-0.012 -0.027,-0.008 -0.094,-0.004 -0.152,-0.027 -0.145,-0.008 -0.109,0.004 -0.101,0.008 -0.118,0.008 v 0.019 l -0.078,0.012 -0.179,-0.008 -0.149,0.024 -0.156,0.046 -0.067,0.008 h -0.066 l -0.172,0.008 -0.203,0.004 -0.156,0.004 -0.153,0.004 -0.144,0.015 -0.156,0.004 -0.047,-0.023 -0.102,-0.008 h -0.351 l -0.125,-0.004 -0.121,-0.004 -0.11,-0.004 h -0.101 l -0.106,-0.004 h -0.125 l -0.121,-0.003 -0.113,0.035 -0.176,0.011 -0.223,-0.027 -0.129,0.027 -0.066,-0.023 -0.101,-0.008 -0.126,-0.004 -0.132,-0.019 -0.282,0.008 -0.218,0.027 -0.004,-0.008 -0.094,0.004 -0.121,0.004 -0.117,-0.008 -0.121,-0.004 -0.028,0.008 -0.129,0.004 h -0.234 l -0.187,-0.024 -0.165,-0.007 -0.105,0.031 -0.344,0.016 -0.285,-0.036 0.031,-0.004 -0.125,-0.007 h -0.078 l -0.09,-0.028 -0.011,-0.031 -0.012,0.012 -0.156,-0.039 -0.235,-0.032 -0.179,-0.031 -0.145,-0.035 -0.117,0.012 -0.141,0.019 -0.16,-0.004 -0.16,0.004 -0.16,-0.011 -0.156,0.015 -0.172,0.008 -0.133,-0.031 -0.176,-0.004 -0.215,-0.004 h -0.433 l -0.188,0.004 -0.183,0.019 -0.157,0.024 -0.148,0.012 -0.152,0.011 -0.141,0.024 -0.141,0.031 -0.082,-0.012 -0.105,0.004 -0.188,0.008 -0.172,0.004 -0.148,0.016 -0.133,0.023 -0.199,0.012 -0.242,-0.012 -0.055,-0.004 -0.051,-0.019 -0.078,-0.012 -0.098,-0.028 -0.101,-0.043 -0.102,-0.007 -0.093,0.004 -0.082,-0.004 -0.098,-0.004 -0.106,-0.02 -0.113,-0.027 -0.097,-0.027 -0.09,-0.012 -0.149,-0.028 -0.168,-0.007 -0.148,-0.008 -0.121,-0.024 -0.11,-0.007 -0.226,-0.004 -0.203,-0.024 -0.012,-0.027 -0.102,-0.012 -0.132,-0.019 -0.118,-0.043 -0.082,-0.032 h -0.086 l -0.144,-0.019 -0.164,-0.027 -0.16,-0.008 -0.141,-0.024 -0.121,-0.007 -0.195,-0.004 -0.2,-0.016 -0.117,-0.035 -0.148,-0.008 -0.145,0.02 -0.105,-0.016 -0.164,-0.012 -0.215,-0.004 -0.121,-0.035 -0.086,-0.016 -0.102,-0.023 -0.129,-0.043 -0.132,-0.019 -0.184,0.023 -0.121,-0.023 -0.055,-0.036 -0.082,-0.011 -0.121,0.011 -0.125,0.004 -0.047,-0.035 -0.082,-0.023 -0.16,-0.008 -0.125,-0.027 -0.125,-0.024 -0.141,0.008 -0.226,-0.016 -0.27,-0.019 -0.066,-0.039 -0.047,-0.047 -0.098,-0.016 -0.101,-0.031 -0.102,-0.043 -0.004,-0.023 -0.074,-0.008 -0.176,-0.032 -0.164,-0.011 -0.152,0.008 -0.121,0.011 h -0.156 l -0.168,-0.011 -0.121,-0.02 h -0.247 l -0.125,-0.016 -0.121,-0.015 -0.164,-0.008 -0.148,-0.004 -0.09,-0.023 -0.082,-0.024 -0.121,-0.008 -0.121,-0.023 -0.098,-0.012 -0.058,-0.027 -0.114,-0.008 -0.164,-0.023 -0.156,-0.028 -0.149,-0.011 -0.07,0.011 -0.117,0.004 -0.145,-0.031 -0.062,-0.051 -0.106,-0.027 -0.093,-0.008 -0.094,-0.023 -0.227,-0.024 -0.207,-0.031 0.008,-0.035 -0.109,-0.016 -0.137,-0.027 -0.117,-0.043 -0.082,-0.016 -0.07,0.004 -0.125,-0.016 -0.137,-0.003 -0.117,-0.02 -0.102,0.016 -0.043,-0.004 -0.094,-0.039 -0.117,-0.028 -0.07,-0.011 -0.063,-0.008 -0.062,-0.02 -0.059,-0.043 -0.16,-0.015 -0.176,0.007 0.012,-0.007 -0.031,-0.008 -0.051,-0.004 -0.07,-0.012 -0.098,-0.019 0.129,-0.016 -0.082,-0.012 h -0.273 l -0.094,-0.039 -0.113,0.008 -0.129,0.012 -0.196,-0.008 -0.164,-0.016 -0.117,-0.003 h -0.219 l -0.093,-0.02 -0.122,-0.035 -0.054,-0.035 -0.074,0.007 h -0.145 l -0.117,-0.019 h -0.098 l -0.094,0.012 -0.093,-0.008 -0.059,-0.024 -0.086,-0.019 -0.101,-0.008 -0.094,-0.023 -0.098,-0.008 -0.094,0.008 -0.078,-0.016 -0.109,-0.02 -0.102,-0.027 -0.097,-0.027 -0.106,-0.028 -0.086,-0.015 -0.304,-0.008 -0.254,-0.004 0.07,-0.023 -0.086,-0.032 -0.105,-0.011 -0.086,-0.035 -0.051,-0.016 -0.051,0.019 -0.125,-0.023 -0.152,-0.008 -0.137,-0.019 -0.129,-0.004 -0.109,-0.004 -0.211,-0.012 -0.176,-0.027 -0.004,-0.028 -0.078,-0.011 -0.102,0.011 -0.085,-0.05 -0.075,-0.012 -0.129,0.023 -0.14,-0.011 h -0.098 l -0.121,0.004 -0.109,0.003 -0.118,0.004 0.067,-0.015 -0.047,-0.008 -0.262,0.004 -0.218,0.004 h -0.161 l -0.125,0.004 h -0.168 l -0.156,0.004 h -0.133 l -0.129,0.003 h -0.132 l -0.125,-0.019 -0.141,-0.055 -0.059,-0.043 -0.058,0.012 -0.164,-0.012 -0.157,-0.004 -0.117,-0.019 -0.117,0.008 -0.105,-0.016 -0.098,-0.039 -0.133,-0.031 -0.164,-0.012 -0.121,-0.051 -0.117,-0.035 -0.121,-0.035 -0.11,-0.039 -0.093,-0.035 -0.137,-0.02 -0.129,-0.027 -0.137,-0.031 -0.16,-0.012 -0.293,-0.004 -0.207,-0.027 0.016,-0.008 -0.086,-0.02 -0.11,-0.004 -0.089,-0.031 -0.059,0.004 -0.012,0.016 -0.086,-0.004 -0.136,0.004 -0.114,-0.02 -0.117,-0.019 h -0.109 l -0.309,-0.012 h -0.254 l 0.071,-0.024 -0.055,-0.031 -0.086,-0.012 -0.09,-0.035 -0.008,-0.015 -0.062,-0.004 -0.145,-0.047 -0.133,-0.016 -0.101,-0.019 h -0.082 l -0.102,0.004 -0.015,-0.02 -0.078,-0.016 -0.192,-0.019 -0.148,-0.004 -0.11,-0.019 -0.113,-0.02 -0.105,-0.012 -0.129,-0.023 -0.157,-0.024 -0.132,-0.015 -0.129,-0.008 -0.114,-0.004 -0.136,-0.035 -0.133,-0.031 -0.082,0.007 -0.113,-0.019 -0.129,-0.008 -0.133,-0.023 -0.09,0.027 -0.078,0.008 -0.09,-0.028 -0.152,-0.003 -0.172,-0.004 -0.145,-0.016 -0.14,-0.008 h -0.2 l -0.168,-0.019 -0.101,0.011 h -0.125 l -0.113,0.004 -0.118,-0.05 -0.089,-0.016 -0.223,0.019 -0.188,-0.035 -0.031,-0.031 -0.125,-0.027 -0.133,-0.032 -0.121,-0.05 -0.125,-0.02 -0.054,0.008 -0.09,-0.035 -0.141,-0.035 -0.109,-0.043 -0.074,-0.071 -0.012,-0.047 -0.281,-0.011 -0.247,-0.031 0.032,-0.028 -0.082,-0.012 -0.082,-0.003 -0.118,-0.059 -0.031,0.019 -0.113,-0.003 -0.141,0.003 -0.129,-0.007 -0.109,0.019 -0.07,0.028 -0.082,-0.016 -0.117,-0.012 -0.126,-0.004 h -0.222 l -0.117,-0.015 -0.098,-0.028 -0.121,0.008 h -0.262 l -0.117,0.004 H 816.5 l -0.125,-0.016 -0.156,-0.023 -0.129,0.012 -0.082,-0.004 h -0.098 l -0.082,-0.004 -0.098,0.015 -0.078,0.008 -0.09,-0.031 -0.117,-0.023 -0.121,-0.012 -0.117,-0.012 -0.098,-0.008 -0.246,-0.015 -0.269,-0.008 -0.043,0.004 H 814.5 l -0.055,-0.008 -0.054,-0.031 -0.079,-0.004 0.02,0.016 -0.016,-0.008 -0.125,0.004 -0.093,0.004 h -0.09 l -0.09,0.003 -0.102,0.004 -0.046,-0.007 -0.043,0.003 -0.196,0.008 -0.101,-0.043 -0.075,-0.015 -0.199,0.019 -0.176,0.004 v -0.004 l -0.089,0.02 -0.082,0.008 -0.071,-0.012 -0.031,-0.02 -0.043,0.02 -0.098,0.008 -0.101,0.011 -0.078,0.004 -0.067,0.024 -0.047,0.027 -0.101,0.012 -0.11,-0.008 -0.042,-0.031 -0.063,-0.004 h -0.078 l -0.082,-0.02 -0.156,-0.004 -0.133,0.016 -0.016,-0.008 h -0.117 l -0.063,0.02 -0.054,0.011 -0.094,0.012 -0.109,0.012 -0.047,-0.028 h -0.078 l -0.086,0.02 -0.078,0.027 -0.032,0.008 -0.058,-0.004 h -0.098 l -0.062,0.024 -0.051,0.004 -0.07,0.003 -0.188,-0.015 -0.269,-0.024 -0.036,0.047 0.008,0.012 h -0.043 l -0.055,-0.008 -0.109,0.024 h 0.141 l 0.105,-0.047 -0.176,0.008 -0.078,0.031 -0.062,0.008 -0.047,0.007 -0.164,0.016 -0.11,-0.023 -0.019,0.023 -0.113,-0.008 -0.11,-0.008 -0.097,-0.046 -0.102,-0.004 -0.039,0.05 -0.078,0.02 -0.086,0.016 -0.094,0.011 -0.097,0.028 -0.079,0.011 -0.05,0.012 h -0.024 l -0.054,0.02 -0.106,0.011 -0.078,0.008 -0.074,0.004 -0.035,0.035 -0.118,0.028 h -0.125 l -0.004,0.003 -0.082,0.012 -0.097,-0.012 -0.11,-0.003 h -0.257 l -0.164,0.039 0.042,0.015 -0.042,0.012 -0.032,0.008 -0.035,0.031 -0.004,0.063 -0.027,0.003 -0.043,-0.007 -0.063,-0.02 -0.074,-0.008 -0.074,0.012 h -0.25 l -0.125,0.023 0.012,-0.003 -0.047,0.015 -0.043,0.004 -0.047,0.004 h -0.106 l -0.054,0.02 -0.02,0.023 -0.023,0.023 -0.024,-0.004 -0.039,0.02 0.219,-0.008 0.051,-0.031 -0.149,0.019 -0.078,0.012 -0.054,0.008 -0.039,0.004 -0.067,-0.004 -0.09,0.004 -0.066,0.039 -0.024,0.012 -0.035,0.011 -0.05,-0.003 h -0.047 l 0.082,0.011 -0.012,0.012 -0.16,0.02 -0.094,0.046 -0.098,0.012 -0.062,0.031 -0.043,0.039 -0.027,0.012 -0.047,0.02 -0.078,0.011 -0.055,0.016 -0.067,-0.004 -0.066,0.016 -0.09,0.035 -0.082,0.016 -0.027,0.007 -0.031,0.02 -0.039,0.008 -0.051,0.019 -0.168,0.02 -0.094,0.047 h 0.043 l -0.004,0.007 -0.008,0.012 v 0.004 l 0.004,0.031 0.051,0.02 -0.02,0.004 -0.062,0.008 -0.035,0.015 -0.031,0.016 -0.051,-0.016 -0.227,0.008 -0.156,0.082 h 0.086 l -0.024,0.035 -0.027,0.008 -0.004,0.031 0.071,0.016 0.027,0.012 -0.027,0.007 -0.016,0.016 -0.012,0.016 -0.015,0.011 -0.008,-0.007 h 0.136 l -0.007,0.027 -0.114,-0.027 -0.058,0.035 -0.047,0.035 -0.043,-0.008 -0.102,0.012 -0.089,0.047 -0.012,0.027 -0.039,0.043 -0.055,0.035 -0.094,0.055 0.137,0.054 0.078,0.024 -0.187,0.058 -0.094,0.083 -0.086,0.062 -0.07,0.063 -0.078,0.054 -0.079,0.008 -0.054,0.047 -0.086,0.035 -0.102,0.031 -0.07,0.016 -0.082,0.035 -0.059,0.059 -0.027,0.043 -0.047,0.019 -0.031,0.024 -0.012,0.027 -0.019,0.055 -0.125,0.023 -0.043,-0.031 0.078,0.015 -0.055,0.012 -0.035,0.031 -0.02,0.032 -0.011,0.027 0.023,0.023 -0.055,0.028 -0.05,0.008 -0.036,0.043 -0.031,-0.004 -0.328,0.027 -0.105,0.125 0.179,-0.004 -0.054,0.043 -0.043,0.016 -0.02,0.039 -0.008,0.047 0.055,0.015 -0.023,0.028 -0.082,0.039 -0.075,0.043 -0.07,0.015 -0.055,-0.004 -0.047,0.02 -0.074,0.051 -0.086,0.035 -0.062,0.031 -0.063,0.035 -0.051,0.047 h 0.043 l -0.043,0.027 -0.074,0.036 -0.023,-0.004 -0.086,0.023 -0.051,0.039 -0.055,0.047 0.125,0.008 0.098,0.004 -0.129,0.043 -0.074,0.058 -0.066,0.055 -0.04,0.078 -0.074,0.055 -0.082,-0.004 -0.039,0.062 -0.027,0.047 -0.043,0.047 -0.051,0.035 -0.098,0.055 -0.058,0.066 -0.016,0.059 v 0.039 l -0.012,0.051 -0.035,0.043 -0.047,0.09 -0.074,0.035 -0.039,-0.02 0.024,0.024 -0.032,0.043 -0.035,0.031 0.004,-0.02 -0.043,0.016 0.02,0.027 0.015,0.004 h -0.019 l -0.02,0.004 -0.011,0.024 0.011,-0.004 -0.144,0.008 -0.078,0.023 0.054,0.004 -0.023,0.008 -0.012,0.031 -0.023,0.047 0.062,0.039 0.07,0.031 -0.074,0.028 -0.097,0.027 -0.075,0.051 -0.066,0.039 -0.051,-0.016 -0.168,0.027 -0.16,0.11 0.039,0.023 -0.023,0.043 -0.016,0.031 -0.039,0.047 0.102,0.043 0.035,0.075 -0.117,0.054 -0.083,0.051 -0.082,0.043 -0.058,0.051 -0.051,0.043 0.031,0.015 -0.027,0.047 -0.105,0.059 -0.086,0.066 -0.082,0.047 -0.047,0.051 -0.012,0.039 -0.074,0.035 -0.106,0.063 -0.07,0.074 -0.059,0.047 -0.054,0.047 -0.078,0.07 -0.079,0.031 -0.015,0.02 -0.012,0.023 -0.027,0.02 -0.024,0.023 -0.007,0.063 0.023,0.011 0.023,-0.015 h 0.008 l -0.015,-0.008 v -0.008 l -0.059,-0.012 -0.027,-0.011 v -0.004 l 0.007,0.011 0.008,0.004 0.004,0.012 0.035,0.023 0.028,-0.015 0.011,-0.004 v -0.004 l -0.007,-0.016 0.066,0.004 0.109,0.035 h -0.062 l -0.074,-0.003 -0.047,0.039 -0.043,0.035 -0.024,-0.028 -0.187,0.004 -0.082,0.102 h 0.086 v 0.019 l 0.004,0.012 0.015,0.02 0.063,0.019 0.07,0.039 -0.059,0.02 -0.054,0.008 -0.059,0.007 -0.035,0.04 -0.019,-0.008 -0.028,-0.012 -0.035,0.027 -0.016,0.032 -0.023,0.007 -0.023,0.012 -0.016,-0.004 0.012,0.008 h -0.047 l -0.047,0.031 0.004,0.004 h 0.012 l -0.004,0.008 -0.004,0.004 h -0.008 l 0.055,-0.008 -0.02,-0.012 0.012,-0.019 0.011,-0.004 0.071,-0.012 0.043,-0.015 -0.035,0.003 0.003,-0.015 -0.074,0.012 -0.105,0.023 0.019,-0.012 0.028,-0.004 0.008,0.016 0.007,-0.008 0.153,-0.012 0.093,-0.011 -0.078,0.008 -0.039,0.007 -0.019,0.008 -0.008,0.02 0.023,-0.008 0.082,0.004 -0.043,-0.004 -0.082,-0.012 -0.054,0.004 -0.02,-0.027 -0.133,0.015 -0.062,0.047 0.094,-0.023 0.027,0.004 h 0.019 v 0.011 l 0.094,-0.011 0.117,-0.004 -0.007,0.004 -0.028,-0.016 v -0.019 0.003 l 0.008,-0.023 -0.043,0.008 -0.035,0.027 0.043,0.016 0.015,0.039 0.012,0.031 0.024,0.035" style="fill:none;stroke:#000000;stroke-width:3.62219;stroke-linecap:round;stroke-linejoin:round;stroke-miterlimit:10;stroke-dasharray:none;stroke-opacity:1" id="path2174" />
         </g>
         <g id="g2176" transform="scale(1,-1)" style="stroke-width:0.923303">
            <path d="m 796.352,-699.973 c -5.293,38.938 -4.426,78.379 -6.04,117.567 -0.652,22.359 2.43,45.367 -2.374,67.25 -0.821,0.328 -4.747,2.594 0.593,1.523" style="fill:none;stroke:#000000;stroke-width:3.62219;stroke-linecap:round;stroke-linejoin:round;stroke-miterlimit:10;stroke-dasharray:none;stroke-opacity:1" id="path2178" />
         </g>
         <g id="g2180" transform="scale(1,-1)" style="stroke-width:0.923303">
            <path d="m 791.012,-616.336 c -1.664,-0.297 -3.282,-0.844 -4.996,-0.891 -2.45,-0.222 -1.266,-3.054 -1.84,-4.625 -0.688,-3.39 -0.715,-6.867 -0.227,-10.285 0.426,-1.675 -1.039,-4.843 1.36,-5.191 1.879,0.004 3.621,0.855 5.418,1.156 -0.379,-0.07 0.109,0.418 -0.012,0.57" style="fill:none;stroke:#000000;stroke-width:3.62219;stroke-linecap:round;stroke-linejoin:round;stroke-miterlimit:10;stroke-dasharray:none;stroke-opacity:1" id="path2182" />
         </g>
         <g id="g2184" transform="scale(1,-1)" style="stroke-width:0.923303">
            <path d="m 795.031,-705.191 c -4.988,-12.836 -21.011,3.347 -15.562,13.757 -3.539,47.368 -5.305,94.864 -4.793,142.356 -2.25,16.328 1.621,32.09 -2.231,44.074 0.317,20.192 -2.562,40.793 1.344,60.734 6.563,21.594 27.399,33.411 42.445,48.575 13.008,11.871 31.086,3.808 46.547,8.297 1.969,-0.625 13.442,2.855 9.555,-2.489" style="fill:none;stroke:#000000;stroke-width:3.62219;stroke-linecap:round;stroke-linejoin:round;stroke-miterlimit:10;stroke-dasharray:none;stroke-opacity:1" id="path2186" />
         </g>
         <g id="g2188" transform="scale(1,-1)" style="stroke-width:0.923303">
            <path d="m 872.703,-391.348 c -0.012,-7.058 0.586,-14.097 1.297,-21.109 -0.02,-3.813 3.238,-7.133 7.121,-6.731 3.32,0.215 6.699,2.126 7.559,5.547 1.422,5.453 -0.332,11.063 -0.043,16.598 -0.196,3.129 -0.664,6.262 -1.141,9.352 -1.539,3.761 -6.5,3.503 -9.734,2.515 -1.731,-0.621 -3.426,-1.75 -4.192,-3.484" style="fill:none;stroke:#000000;stroke-width:3.62219;stroke-linecap:round;stroke-linejoin:round;stroke-miterlimit:10;stroke-dasharray:none;stroke-opacity:1" id="path2190" />
         </g>
         <g id="g2192" transform="scale(1,-1)" style="stroke-width:0.923303">
            <path d="m 889.453,-389.52 v -0.003 0.031 l 0.004,0.023 0.004,-0.027 -0.027,-0.012 -0.059,-0.008 -0.012,-0.007 0.028,-0.024 0.007,-0.043 0.008,0.012 0.004,0.008 0.008,0.008 v -0.008 l -0.008,-0.016 0.02,-0.043 h 0.008 v 0.039 l 0.035,0.004 h -0.004 l 0.015,0.004 0.024,0.008 0.019,0.019 0.028,0.024 0.039,-0.028 0.062,-0.003 0.039,0.011 0.043,0.02 0.078,-0.055 0.098,-0.019 0.07,0.07 0.098,0.019 0.094,0.016 0.101,0.012 0.149,0.008 0.152,0.007 0.16,0.024 0.164,0.008 0.192,-0.012 h 0.195 l 0.188,0.051 0.183,0.031 0.195,-0.016 h 0.184 l 0.203,-0.004 0.199,0.016 0.2,0.008 0.195,0.051 h 0.207 l 0.199,-0.028 0.207,0.028 0.164,0.023 0.114,0.012 0.164,-0.028 0.203,-0.027 0.16,0.027 0.141,0.032 0.144,0.011 0.231,0.004 0.203,0.004 0.078,0.082 0.152,0.024 0.16,-0.055 0.188,-0.016 0.07,-0.011 0.078,-0.008 0.207,-0.024 0.266,-0.035 0.23,0.004 0.18,0.008 0.184,0.016 0.148,0.007 0.129,-0.027 0.199,-0.059 0.199,-0.023 0.188,0.031 0.199,0.004 0.207,-0.015 0.258,-0.004 0.227,-0.02 0.164,0.016 h 0.183 l 0.192,-0.032 0.203,-0.027 0.176,-0.008 0.16,-0.008 0.179,-0.101 0.176,-0.059 0.168,0.047 0.156,-0.015 h 0.395 l 0.121,-0.036 0.121,0.028 0.125,0.027 0.137,-0.035 0.14,-0.004 h 0.102 l 0.117,0.047 0.192,0.004 0.148,-0.051 0.09,0.02 h 0.168 l 0.097,0.019 0.106,-0.027 0.102,-0.028 0.085,0.024 0.067,0.023 0.047,0.008 0.043,0.008 0.043,-0.008 0.074,-0.019 0.047,-0.008 0.027,0.027 0.027,0.008 0.04,0.023 0.039,0.008 0.007,0.09 0.004,0.027 0.008,-0.035 -0.051,-0.004 -0.113,0.016 0.012,-0.055 0.054,-0.054 -0.003,0.027 -0.004,0.031 0.007,-0.008 0.098,-0.011 0.043,-0.016 -0.062,0.008 -0.039,0.023 -0.016,-0.008 -0.016,0.008 -0.058,-0.004 -0.067,-0.027 0.008,-0.008 0.004,0.012 -0.035,-0.008 -0.035,-0.004" style="fill:none;stroke:#000000;stroke-width:3.62219;stroke-linecap:round;stroke-linejoin:round;stroke-miterlimit:10;stroke-dasharray:none;stroke-opacity:1" id="path2194" />
         </g>
         <g id="g2196" transform="scale(1,-1)" style="stroke-width:0.923303">
            <path d="m 906.781,-389.16 c -5.09,-6.535 -2.312,-11.899 -2.871,-16.473 -0.461,-3.543 -3.66,-5.969 -6.207,-8.226 -3.808,-3.883 -8.887,-7.496 -14.625,-6.664 -3.277,0.097 -6.426,0.949 -9.523,1.921 -3.528,0.45 -7.145,0.243 -10.672,-0.117" style="fill:none;stroke:#000000;stroke-width:3.62219;stroke-linecap:round;stroke-linejoin:round;stroke-miterlimit:10;stroke-dasharray:none;stroke-opacity:1" id="path2198" />
         </g>
         <g id="g2200" transform="scale(1,-1)" style="stroke-width:0.923303">
            <path d="m 860.945,-417.25 c -5.406,-3.539 -8.402,-9.41 -12.929,-13.836 -3.032,-3.816 -6.832,-6.894 -9.723,-10.887 -4.172,-3.496 -7.453,-8.14 -12.367,-10.757 -2.758,-2.864 -6.262,-4.508 -8.524,-7.813 -3.543,-4.09 -7.39,-7.609 -11.785,-10.871 -2.355,-3.148 -5.055,-5.641 -8.117,-7.852 -3.93,-2.566 -8,1.383 -10.469,3.95 -2.164,2.789 -2.246,6.437 -2.715,9.836 1.524,4.941 1.118,10.839 3.344,15.64 2.078,5.02 6.82,7.985 10.539,11.77 3.227,4.289 7.184,7.988 9.91,12.715 2.813,4.152 6.489,7.601 10.297,10.675 3.25,1.942 5.836,4.317 9.403,5.782 6.433,3.75 14.187,4.73 21.472,3.324 3.848,-0.586 8,-2.117 10.371,-4.629 2.051,-1.613 2.266,-4.219 1.606,-6.512 -0.535,-1.043 -1.473,-2.449 -2.703,-2.605" style="fill:none;stroke:#000000;stroke-width:3.62219;stroke-linecap:round;stroke-linejoin:round;stroke-miterlimit:10;stroke-dasharray:none;stroke-opacity:1" id="path2202" />
         </g>
         <g id="g2204" transform="scale(1,-1)" style="stroke-width:0.923303">
            <path d="m 890.145,-387.785 c 8.574,-0.664 17.242,-0.063 25.839,-0.856 13.977,0.309 27.832,-1.656 41.762,-2.269 21.055,-0.297 41.996,-2.57 62.91,-4.695 8.891,-1.004 17.629,-3.067 26.477,-4.473 6.769,-2 15.965,-1.883 19.121,-9.598 2.016,-4.941 4.496,-9.863 5.117,-15.179 2.941,-6.934 3.707,-14.59 3.34,-22.083 l -0.254,0.086 -0.012,0.192" style="fill:none;stroke:#000000;stroke-width:3.62219;stroke-linecap:round;stroke-linejoin:round;stroke-miterlimit:10;stroke-dasharray:none;stroke-opacity:1" id="path2206" />
         </g>
         <g id="g2208" transform="scale(1,-1)" style="stroke-width:0.923303">
            <path d="m 1075.91,-446.645 c -0.89,-1.796 3.379,-2.773 2.047,-4.597 -0.641,-3.149 -2.051,-5.531 -2.336,-8.781 -0.676,-7.614 -0.785,-15.278 -1.543,-22.907 -0.301,-6.054 -0.812,-12.148 -1.012,-18.211 -1.027,-5.445 -0.867,-10.82 -1.652,-16.285 -0.406,-5.613 0.094,-11.371 -0.172,-17.035 -0.351,-1.824 0.817,-5.871 -0.269,-6.734" style="fill:none;stroke:#000000;stroke-width:3.62219;stroke-linecap:round;stroke-linejoin:round;stroke-miterlimit:10;stroke-dasharray:none;stroke-opacity:1" id="path2210" />
         </g>
         <g id="g2212" transform="scale(1,-1)" style="stroke-width:0.923303">
            <path d="m 936.31005,-478.94695 c 76.95205,14.29623 156.19015,-51.50097 147.68775,-129.85729 -0.3419,-90.84864 -111.7157,-168.16709 -192.93432,-115.57235 -68.99965,40.10987 -78.21817,142.94555 -25.76925,200.40426 21.41483,27.4662 53.60936,46.91844 90.26448,46.997" style="fill:none;stroke:#000000;stroke-width:3.62219;stroke-linecap:round;stroke-linejoin:round;stroke-miterlimit:10;stroke-dasharray:none;stroke-opacity:1" id="path2214" sodipodi:nodetypes="ccccc" />
         </g>
         <g id="g2216" transform="scale(1,-1)" style="stroke-width:0.923303">
            <path d="m 892.848,-496.406 c -6.71862,-2.80517 -11.7082,-8.49849 -17.11134,-13.25744 -6.77734,-6.85759 -13.24333,-14.0301 -19.03264,-21.73656 -4.21277,-5.82966 -8.18824,-12.01363 -10.60897,-18.88327 -2.97353,-5.85985 -4.66213,-12.1863 -6.24759,-18.50321 -2.17102,-6.21556 -4.71921,-12.4768 -5.14509,-19.15325 -1.3746,-7.43649 -2.82562,-15.00672 -2.97977,-22.468 l 0.1874,-0.92827" style="fill:none;stroke:#000000;stroke-width:3.62219;stroke-linecap:round;stroke-linejoin:round;stroke-miterlimit:10;stroke-dasharray:none;stroke-opacity:1" id="path2218" />
         </g>
         <g id="g2220" transform="scale(1,-1)" style="stroke-width:0.923303">
            <path d="m 954.586,-571.59 c 8.434,3.004 17.898,1.102 26.281,-1.137 11.02,-4.132 21.156,-14.179 22,-26.351 6.047,0.914 9.934,-6.91 1.887,-6.652 2.144,-9.817 0.051,-19.985 -6.387,-27.805 -4.894,-7.262 -11.793,-13.227 -19.043,-18.11 -7.91,-4.035 -17.742,-6.75 -26.156,-3.039 2.73,-7.058 -8.914,-7.171 -6.227,0.11 -10.55,5.144 -20.457,13.969 -21.808,26.281 -4.344,9.82 -2.422,20.773 0.262,30.75 0.988,7.523 13.511,11.133 5.789,18.277 3.109,7.059 12.691,0.414 17.914,6.239 9.312,3.086 21.062,5.203 29.777,-0.332" style="fill:none;stroke:#000000;stroke-width:3.62219;stroke-linecap:round;stroke-linejoin:round;stroke-miterlimit:10;stroke-dasharray:none;stroke-opacity:1" id="path2222" />
         </g>
         <g id="g2224" transform="scale(1,-1)" style="stroke-width:0.923303">
            <path d="m 986.992,-576.516 c 7.649,-6.043 10.871,-15.746 15.426,-23.929 1.402,-4.703 -8.727,1.933 -3.535,-4.489 7.258,-5.222 3.695,-17.945 -1.063,-24.336 -8.332,-11.441 -19.328,-22.918 -34.269,-24.265 -13.496,0.672 -28.41,6.125 -34.832,18.93 -0.352,1.148 -1.215,2.261 -0.934,3.523" style="fill:none;stroke:#000000;stroke-width:3.62219;stroke-linecap:round;stroke-linejoin:round;stroke-miterlimit:10;stroke-dasharray:none;stroke-opacity:1" id="path2226" />
         </g>
         <g id="g2228" transform="scale(1,-1)" style="stroke-width:0.923303">
            <path d="m 937.211,-571.164 c 8.527,5.726 18.461,10.574 29.043,8.68 18.418,0.48 36.344,-10.985 42.867,-28.379 5.508,-14.442 2.738,-30.746 -4.594,-44.02 -3.816,-9.98 -10.933,-18.609 -21.328,-22.062 -13.961,-5.153 -31.191,-9.27 -44.734,-0.813 -10.789,9.403 -23.227,19.754 -25.035,34.938 -0.996,12.355 2.699,24.816 8.031,35.832 5.492,8.957 13.121,14.765 23.246,19.965" style="fill:none;stroke:#000000;stroke-width:3.62219;stroke-linecap:round;stroke-linejoin:round;stroke-miterlimit:10;stroke-dasharray:none;stroke-opacity:1" id="path2230" />
         </g>
         <g id="g2232" transform="scale(1,-1)" style="stroke-width:0.923303">
            <path d="m 942.348,-563.121 c 0.535,-0.191 -0.926,-0.586 -1.243,-0.715 -0.98,-0.445 -2.003,-0.086 -2.777,0.582 -0.816,0.598 -1.691,1.254 -2.008,2.266 0.176,0.242 -0.695,0.804 -0.437,1.422 -0.375,1.093 0.613,1.726 0.844,2.644 1.058,1.266 2.835,1.305 4.351,1.32 1.223,-0.257 2.61,-0.414 3.547,-1.336 0.324,-1.003 1.012,-1.937 1.09,-3.058 -0.035,-0.973 -0.449,-2.031 -1.422,-2.426 -1.07,-0.504 -2.27,-0.621 -3.344,-1.117 -0.476,-0.121 -1.418,-0.484 -1.582,0.242" style="fill:none;stroke:#000000;stroke-width:1.20739;stroke-linecap:round;stroke-linejoin:round;stroke-miterlimit:10;stroke-dasharray:none;stroke-opacity:1" id="path2234" />
         </g>
         <g id="g2236" transform="scale(1,-1)" style="stroke-width:0.923303">
            <path d="m 1000.258,-564.777 c -0.903,-0.219 -1.434,-1.535 -2.539,-0.832 -0.867,0.586 -1.973,1.148 -2.278,2.23 -0.379,1.43 1.188,2.305 1.321,3.629 0.906,1.273 2.687,1.145 4.07,1.109 1.289,-0.074 2.793,-0.625 3.176,-1.988 0.387,-1.281 0.426,-2.746 -0.34,-3.91 -0.75,-1.402 -2.551,-1.254 -3.906,-1.402 -1.035,0.043 -2.614,0.05 -3.313,0.074 0.074,0.062 0.285,0.137 0.207,0.269" style="fill:none;stroke:#000000;stroke-width:1.20739;stroke-linecap:round;stroke-linejoin:round;stroke-miterlimit:10;stroke-dasharray:none;stroke-opacity:1" id="path2238" />
         </g>
         <g id="g2240" transform="scale(1,-1)" style="stroke-width:0.923303">
            <path d="m 1024.688,-618.621 c -0.465,-0.457 -1.754,-0.313 -2.555,-0.266 -0.75,0.164 -1.453,0.512 -2.184,0.75 -0.64,0.481 -1.445,0.785 -1.957,1.418 -0.504,0.68 -1.383,1.543 -0.754,2.5 0.434,0.922 1.149,1.676 2.168,1.895 0.965,0.336 2.004,0.328 3,0.472 1.149,-0.05 2.293,-0.21 3.418,-0.425 1.024,-0.313 0.59,-1.469 0.735,-2.239 0.023,-0.879 -0.602,-1.605 -0.797,-2.437 -0.395,-0.805 -1.254,-1.274 -2.102,-1.524 -0.832,-0.324 -1.73,-0.441 -2.598,-0.644 -0.542,0.219 0.012,-0.34 -0.503,0.004" style="fill:none;stroke:#000000;stroke-width:1.20739;stroke-linecap:round;stroke-linejoin:round;stroke-miterlimit:10;stroke-dasharray:none;stroke-opacity:1" id="path2242" />
         </g>
         <g id="g2244" transform="scale(1,-1)" style="stroke-width:0.923303">
            <path d="m 991.039,-667.238 c 0.039,-1.067 -1.656,-0.578 -2.394,-0.731 -1.075,0.071 -2.032,0.653 -2.844,1.317 -0.692,0.59 -1,1.359 -1.258,2.269 -0.332,1.195 0.953,1.793 1.664,2.438 1.555,0.703 3.27,0.984 4.965,0.945 0.945,-0.191 2.16,-0.254 2.723,-1.141 0.515,-0.554 0.972,-1.64 0.582,-2.421 -0.122,-1.024 -1.004,-1.723 -1.661,-2.465 -0.492,-0.703 -1.121,-1.348 -2.043,-1.391 -0.761,-0.133 -1.57,-0.109 -2.293,0.191" style="fill:none;stroke:#000000;stroke-width:1.20739;stroke-linecap:round;stroke-linejoin:round;stroke-miterlimit:10;stroke-dasharray:none;stroke-opacity:1" id="path2246" />
         </g>
         <g id="g2248" transform="scale(1,-1)" style="stroke-width:0.923303">
            <path d="m 933.16,-666.875 c 0.695,-0.176 -0.91,-0.641 -1.355,-0.363 -0.934,0.164 -2.004,0.183 -2.758,0.828 -0.754,0.98 -1.485,2.195 -0.981,3.453 0.227,0.98 0.864,1.777 1.442,2.617 0.367,0.805 1.199,0.969 1.988,1.125 1.266,0.266 2.57,-0.004 3.754,-0.469 0.84,-0.043 1.355,-0.754 1.633,-1.472 0.496,-0.809 0.258,-1.66 0.058,-2.489 -0.629,-1.269 -1.675,-2.46 -3.117,-2.777 -0.929,-0.414 -1.965,-0.379 -2.957,-0.332 -0.234,0.039 -0.461,0.117 -0.656,0.25" style="fill:none;stroke:#000000;stroke-width:1.20739;stroke-linecap:round;stroke-linejoin:round;stroke-miterlimit:10;stroke-dasharray:none;stroke-opacity:1" id="path2250" />
         </g>
         <g id="g2252" transform="scale(1,-1)" style="stroke-width:0.923303">
            <path d="m 905.977,-616.297 c -0.418,-0.281 -1.61,0.387 -2.321,0.5 -1.031,0.137 -1.718,1.156 -2.008,2.078 -0.125,0.879 0.11,1.918 0.536,2.586 -0.028,0.926 0.941,1.41 1.41,2.086 0.605,0.813 1.519,1.442 2.57,1.348 1.188,0.101 2.254,-0.489 3.258,-1.039 0.726,-0.524 0.914,-1.414 1.332,-2.059 -0.106,-0.68 -0.43,-1.547 -0.41,-2.344 -0.196,-0.839 -0.754,-1.625 -1.449,-2.136 -0.829,-0.473 -1.754,-0.86 -2.704,-0.953 -0.988,-0.098 -1.972,0.054 -2.882,0.449 -0.739,-0.02 -0.914,0.777 -1.008,1.347" style="fill:none;stroke:#000000;stroke-width:1.20739;stroke-linecap:round;stroke-linejoin:round;stroke-miterlimit:10;stroke-dasharray:none;stroke-opacity:1" id="path2254" />
         </g>
         <g id="g2256" transform="scale(1,-1)" style="stroke-width:0.923303">
            <path d="m 904.426,-610.719 c 0.656,-0.566 1.508,-1.187 1.429,-2.16 0.36,-0.226 -0.085,-0.226 0.086,-0.328" style="fill:none;stroke:#000000;stroke-width:1.20739;stroke-linecap:round;stroke-linejoin:round;stroke-miterlimit:10;stroke-dasharray:none;stroke-opacity:1" id="path2258" />
         </g>
         <g id="g2260" transform="scale(1,-1)" style="stroke-width:0.923303">
            <path d="m 903.922,-613.078 c 0.676,0.406 1.441,0.945 2.266,1.168 0.796,0.219 1.609,0.414 2.421,0.566" style="fill:none;stroke:#000000;stroke-width:1.20739;stroke-linecap:round;stroke-linejoin:round;stroke-miterlimit:10;stroke-dasharray:none;stroke-opacity:1" id="path2262" />
         </g>
         <g id="g2264" transform="scale(1,-1)" style="stroke-width:0.923303">
            <path d="m 940.117,-559.289 c -0.195,0.66 0.141,0.82 0.254,0.113 0.211,-0.824 0.727,-1.601 0.824,-2.5 -0.121,-0.105 -0.312,-0.082 -0.425,0.024" style="fill:none;stroke:#000000;stroke-width:1.20739;stroke-linecap:round;stroke-linejoin:round;stroke-miterlimit:10;stroke-dasharray:none;stroke-opacity:1" id="path2266" />
         </g>
         <g id="g2268" transform="scale(1,-1)" style="stroke-width:0.923303">
            <path d="m 938.648,-559.988 c 0.567,0.578 1.649,0.664 2.465,0.945 0.356,0.098 0.715,0.191 1.063,0.313" style="fill:none;stroke:#000000;stroke-width:1.20739;stroke-linecap:round;stroke-linejoin:round;stroke-miterlimit:10;stroke-dasharray:none;stroke-opacity:1" id="path2270" />
         </g>
         <g id="g2272" transform="scale(1,-1)" style="stroke-width:0.923303">
            <path d="m 998.355,-561.672 0.004,-0.012 0.016,-0.027 v -0.062 l -0.031,-0.059 0.011,-0.051 0.012,-0.031 0.02,0.004 h 0.015 l -0.027,-0.016 -0.016,-0.015 0.039,-0.024 0.036,-0.012 0.007,0.036 h 0.067 l -0.086,-0.008 -0.031,-0.012 0.066,0.004 0.016,0.031 0.019,-0.004 0.012,0.012 -0.066,-0.012 -0.016,-0.039 0.105,-0.031 0.032,-0.047 0.054,-0.015 0.032,-0.02 0.007,-0.027 -0.121,-0.043 0.012,-0.071 0.133,-0.043 0.039,-0.082 0.051,-0.07 0.019,-0.051 0.074,-0.066 0.071,-0.07 -0.016,-0.083 0.008,-0.082 0.031,-0.07 0.008,-0.066 -0.043,-0.086 0.051,-0.074 0.074,-0.071 -0.043,-0.086 0.016,-0.082 -0.004,-0.058 -0.008,-0.059 -0.07,-0.058 -0.032,-0.051 0.047,-0.051 0.008,-0.043 0.023,-0.055 0.016,-0.047 0.024,-0.003 -0.004,-0.012 v -0.02 l -0.004,-0.008 0.015,-0.011 -0.027,-0.016 h -0.031 l 0.035,-0.015 0.012,-0.016 0.004,-0.012 0.007,-0.031 -0.082,-0.02 v -0.007 l 0.012,-0.004" style="fill:none;stroke:#000000;stroke-width:1.20739;stroke-linecap:round;stroke-linejoin:round;stroke-miterlimit:10;stroke-dasharray:none;stroke-opacity:1" id="path2274" />
         </g>
         <g id="g2276" transform="scale(1,-1)" style="stroke-width:0.923303">
            <path d="m 996.652,-563.348 c 1.481,0.16 2.856,0.813 4.352,0.926" style="fill:none;stroke:#000000;stroke-width:1.20739;stroke-linecap:round;stroke-linejoin:round;stroke-miterlimit:10;stroke-dasharray:none;stroke-opacity:1" id="path2278" />
         </g>
         <g id="g2280" transform="scale(1,-1)" style="stroke-width:0.923303">
            <path d="m 1021.898,-614.727 v 0.02 l -0.011,0.055 -0.012,0.082 0.105,0.125 0.18,0.093 -0.098,0.067 -0.109,0.066 -0.023,0.043 -0.02,0.039 -0.015,0.02 -0.188,0.012 h -0.129 l 0.133,-0.008 0.055,-0.004 0.027,0.004 0.023,-0.028 h 0.024 l 0.01,-0.011 -0.012,-0.008 0.023,-0.02 0.016,-0.008 0.016,-0.019 v -0.027 l 0.066,-0.024 0.035,-0.039 h -0.054 l -0.01,-0.023 -0.012,-0.02 -0.01,-0.015 -0.012,-0.032 -0.035,-0.043 0.01,-0.023 v -0.031 l -0.019,-0.016 -0.028,-0.082 0.02,-0.063 0.043,-0.07 -0.051,-0.062 -0.035,-0.075 -0.016,-0.078 -0.027,-0.054 0.035,-0.055 v -0.063 l -0.043,-0.074 -0.012,-0.078 -0.027,-0.086 0.012,-0.086 -0.024,-0.054 0.055,-0.063 0.019,-0.07 -0.062,-0.055 -0.016,-0.082 -0.011,-0.074 -0.012,-0.055 -0.129,-0.051 -0.051,-0.086 0.086,-0.062 0.016,-0.07 0.015,-0.094 0.032,-0.067 0.113,-0.031 0.16,-0.015 -0.027,-0.04 -0.075,-0.019 -0.031,-0.02 -0.019,-0.035 v -0.035 l -0.239,0.008 -0.101,-0.059 0.148,-0.023 h -0.011 l -0.01,0.031 0.011,0.027 h 0.036 l 0.027,-0.003 -0.01,0.003 h -0.019" style="fill:none;stroke:#000000;stroke-width:1.20739;stroke-linecap:round;stroke-linejoin:round;stroke-miterlimit:10;stroke-dasharray:none;stroke-opacity:1" id="path2282" />
         </g>
         <g id="g2284" transform="scale(1,-1)" style="stroke-width:0.923303">
            <path d="m 1019.359,-615.852 c 0.961,-0.105 1.7,0.786 2.68,0.727 0.434,0.09 0.871,0.148 1.293,0.277" style="fill:none;stroke:#000000;stroke-width:1.20739;stroke-linecap:round;stroke-linejoin:round;stroke-miterlimit:10;stroke-dasharray:none;stroke-opacity:1" id="path2286" />
         </g>
         <g id="g2288" transform="scale(1,-1)" style="stroke-width:0.923303">
            <path d="m 988.906,-662.363 c -0.679,-0.012 0.731,0.125 0.539,-0.457 0.137,-0.664 0.215,-1.563 0.215,-2.082 -0.172,-0.086 -0.265,-0.325 -0.035,-0.403" style="fill:none;stroke:#000000;stroke-width:1.20739;stroke-linecap:round;stroke-linejoin:round;stroke-miterlimit:10;stroke-dasharray:none;stroke-opacity:1" id="path2290" />
         </g>
         <g id="g2292" transform="scale(1,-1)" style="stroke-width:0.923303">
            <path d="m 987.855,-664.688 c -0.054,-0.089 1.094,0.594 1.692,0.598 0.863,0.172 1.773,0.137 2.594,0.496" style="fill:none;stroke:#000000;stroke-width:1.20739;stroke-linecap:round;stroke-linejoin:round;stroke-miterlimit:10;stroke-dasharray:none;stroke-opacity:1" id="path2294" />
         </g>
         <g id="g2296" transform="scale(1,-1)" style="stroke-width:0.923303">
            <path d="m 930.395,-662.027 c 0.48,-0.407 0.058,-1.243 0.64,-1.785 -0.031,-0.34 0.59,-0.282 0.785,-0.438" style="fill:none;stroke:#000000;stroke-width:1.20739;stroke-linecap:round;stroke-linejoin:round;stroke-miterlimit:10;stroke-dasharray:none;stroke-opacity:1" id="path2298" />
         </g>
         <g id="g2300" transform="scale(1,-1)" style="stroke-width:0.923303">
            <path d="m 929.922,-663.73 c -0.82,-0.301 0.715,0.375 1.016,0.476 0.703,0.391 1.503,0.625 2.117,1.16 0.113,0.117 0.215,0.246 0.304,0.387" style="fill:none;stroke:#000000;stroke-width:1.20739;stroke-linecap:round;stroke-linejoin:round;stroke-miterlimit:10;stroke-dasharray:none;stroke-opacity:1" id="path2302" />
         </g>
         <g id="g2304" transform="scale(1,-1)" style="stroke-width:0.923303">
            <path d="m 949.414,-533.805 v -0.011 l 0.004,-0.028 0.023,-0.051 -0.035,-0.039 -0.008,0.004 0.004,-0.05 0.028,-0.02 -0.098,-0.012 -0.047,-0.023 0.09,0.019 h -0.016 l 0.012,-0.039 0.008,-0.011 0.062,0.011 0.039,0.039 -0.031,0.008 -0.039,0.008 -0.008,-0.008 0.036,0.02 0.031,0.015 -0.016,0.016 -0.015,0.012 -0.008,0.039 -0.004,-0.004 -0.004,0.019 h 0.004 l 0.008,0.016 v -0.004 h -0.016 v -0.004 l -0.004,0.008 0.016,-0.023 -0.028,-0.024 -0.047,-0.016 0.016,-0.062 -0.004,-0.062 0.028,-0.067 0.003,-0.055 0.172,-0.066 0.039,-0.07 -0.129,-0.043 -0.031,-0.094 -0.023,-0.066 -0.008,-0.063 -0.012,-0.074 -0.058,-0.078 -0.008,-0.082 0.031,-0.071 0.024,-0.101 -0.008,-0.106 -0.012,-0.078 0.043,-0.086 0.035,-0.093 -0.015,-0.094 -0.012,-0.113 -0.016,-0.094 -0.008,-0.098 -0.023,-0.113 0.023,-0.121 0.02,-0.125 -0.024,-0.106 0.012,-0.101 v -0.094 l 0.016,-0.094 -0.117,-0.101 -0.067,-0.094 0.086,-0.082 0.016,-0.106 0.015,-0.101 0.016,-0.078 0.023,-0.098 0.036,-0.094 0.019,-0.101 -0.004,-0.078 0.008,-0.082 0.02,-0.098 0.046,-0.094 v -0.094 l -0.007,-0.101 -0.004,-0.094 0.015,-0.105 0.024,-0.102 0.004,-0.082 0.054,-0.07 0.02,-0.078 -0.02,-0.082 v -0.086 l -0.007,-0.125 0.046,-0.059 -0.007,-0.039 -0.047,-0.031 v -0.043 l -0.008,-0.024 -0.012,-0.054 -0.004,-0.043 0.118,-0.028 0.042,-0.039 -0.105,-0.015 -0.004,-0.051 -0.019,-0.02 -0.028,-0.019 -0.019,-0.012 -0.082,-0.012 -0.043,-0.047 0.047,-0.027 -0.02,-0.008 v -0.058 l 0.141,-0.035 0.105,-0.016 -0.101,-0.008 -0.055,-0.035 -0.02,-0.016 -0.019,-0.011 -0.067,-0.028 -0.003,-0.039 0.031,-0.019 -0.028,0.015 v -0.027 h -0.023 l 0.023,0.008 -0.066,-0.004 -0.027,0.008 0.035,0.011 -0.008,0.004 0.012,-0.019 0.011,-0.004 -0.031,-0.012 0.031,0.008 0.036,0.023 -0.032,0.028 -0.004,0.051 0.028,0.015 0.008,0.031 -0.02,0.016 -0.008,0.047 -0.004,0.078" style="fill:none;stroke:#000000;stroke-width:1.20739;stroke-linecap:round;stroke-linejoin:round;stroke-miterlimit:10;stroke-dasharray:none;stroke-opacity:1" id="path2306" />
         </g>
         <g id="g2308" transform="scale(1,-1)" style="stroke-width:0.923303">
            <path d="m 948.184,-534.715 -0.008,-0.012 -0.035,-0.039 0.019,-0.054 -0.015,-0.028 -0.004,-0.058 -0.004,-0.055 0.136,-0.008 0.079,0.028 -0.11,-0.016 -0.012,-0.047 0.032,0.008 -0.016,0.043 h -0.004 l -0.019,0.015 -0.012,0.012 0.004,0.031 0.008,0.032 0.015,0.039 0.012,0.051 0.027,0.031 0.043,0.023 0.024,0.059 0.015,0.043 0.024,0.101 0.008,0.028 0.019,0.027 0.031,0.027 0.02,0.016 0.035,0.027 0.043,0.024 0.074,0.023 0.063,0.012 0.031,0.008 0.047,0.023 0.043,0.028 0.062,0.027 0.067,0.031 -0.074,0.024 0.023,0.031 0.137,0.004 0.086,0.047 0.101,0.023 0.086,0.012 0.125,0.023 0.176,0.039 h 0.09 l 0.039,0.016 0.058,0.027 0.09,0.024 0.067,0.019 0.031,0.028 0.074,0.031 0.133,0.027 0.129,0.035 0.113,0.032 0.094,0.015 0.066,0.031 0.051,0.028 0.117,0.031 0.18,0.008 0.168,0.004 0.133,0.004 0.109,-0.012 0.188,-0.012 0.132,0.016 0.067,-0.004 0.094,-0.008 0.062,-0.004 0.074,-0.019 0.051,-0.012 0.004,-0.008 0.062,-0.015 0.118,-0.024 0.09,-0.008 0.101,-0.015 0.09,-0.004 0.125,-0.02 0.125,-0.011 0.082,-0.028 0.059,-0.008 0.058,-0.004 0.059,-0.019 0.09,-0.024 0.101,-0.043 0.039,-0.027 0.012,-0.019 0.016,-0.024 0.027,-0.031 0.031,-0.016 0.016,-0.047 0.019,-0.035 0.016,-0.019 0.012,-0.035 -0.004,-0.043 -0.004,-0.032 -0.102,-0.027 -0.011,-0.062 0.089,-0.055 0.016,-0.074 0.039,-0.051 0.027,-0.043 0.063,-0.059 0.086,-0.066 0.008,-0.078 -0.012,-0.102 0.019,-0.082 0.008,-0.172 -0.078,-0.09 -0.031,-0.117 0.043,-0.101 v -0.293 l -0.043,-0.086 -0.055,-0.09 -0.008,-0.094 v -0.105 l -0.003,-0.102 -0.024,-0.097 -0.039,-0.086 0.098,-0.059 0.011,-0.086 -0.121,-0.074 -0.082,-0.071 -0.07,-0.05 -0.07,-0.047 -0.141,-0.051 -0.203,-0.031 -0.02,-0.071 0.032,-0.05 -0.078,-0.055 -0.067,-0.035 -0.062,-0.039 0.031,-0.043 0.008,-0.047 -0.125,-0.039 -0.121,-0.031 -0.094,-0.012 -0.078,-0.031 -0.059,-0.043 -0.055,-0.016 -0.074,-0.008 -0.078,-0.015 -0.055,-0.024 -0.058,-0.019 -0.043,-0.008 -0.063,-0.031 -0.058,-0.032 -0.024,0.008 -0.027,-0.004 -0.016,0.012 h -0.008 l -0.144,0.004 -0.102,0.016 h 0.082 l -0.015,0.011 0.023,0.008 0.051,0.008 0.051,-0.004 0.031,-0.004 h -0.051 l 0.024,0.008 0.004,0.019 -0.18,0.004 0.082,-0.035 0.027,-0.008 0.004,0.035 0.004,0.024 0.043,0.008 h 0.024 l 0.015,-0.008 0.004,-0.012 0.02,-0.008 0.007,-0.007 -0.011,-0.004 0.035,-0.012 v -0.004 l -0.016,-0.004 -0.019,0.016 -0.024,0.004 0.008,-0.004 -0.031,-0.008 -0.067,-0.004 -0.011,-0.023 0.039,-0.012 0.058,-0.008 0.016,-0.019 h 0.016 l 0.152,0.011 0.027,-0.004 -0.054,0.008 0.058,0.039 0.043,0.043 0.016,0.02 0.004,0.019 0.019,0.02 0.024,0.027 0.019,0.024 0.047,0.046 0.051,0.032 0.058,0.023 h 0.059 l 0.082,0.004 0.094,0.035 0.101,0.012 0.09,0.027 0.082,0.008 -0.011,0.008 0.058,-0.008 0.141,-0.023 0.086,0.015 0.09,-0.008 0.105,-0.003 0.078,-0.004 0.102,-0.02 0.105,-0.012 0.051,-0.011 0.074,0.004 0.063,-0.016 0.07,-0.004 h -0.152 l 0.007,-0.027 h 0.192 l 0.113,-0.039 0.074,-0.024 0.059,-0.019 0.051,-0.008 0.113,-0.02 0.105,-0.031 -0.003,-0.023 0.027,-0.032 0.043,-0.027 0.07,-0.031 -0.015,-0.059 v -0.039 l 0.066,-0.035 0.07,-0.055 0.059,-0.054 0.043,-0.02 0.101,-0.027 -0.007,-0.031 -0.039,-0.043 0.078,-0.063 0.047,-0.051 0.043,-0.047 0.015,-0.05 0.18,-0.039 0.14,-0.047 -0.074,-0.043 0.02,-0.051 0.004,-0.024 -0.004,-0.035 -0.008,-0.074 -0.059,-0.055 -0.015,-0.066 0.027,-0.062 -0.004,-0.067 -0.008,-0.055 -0.015,-0.035 0.015,-0.051 0.02,-0.07 -0.031,-0.066 -0.028,-0.047 -0.039,-0.051 -0.035,-0.07 -0.105,-0.063 -0.047,-0.078 0.027,-0.047 -0.051,-0.054 -0.058,-0.067 -0.039,-0.051 -0.051,-0.066 -0.09,-0.082 -0.063,-0.078 -0.05,-0.067 -0.059,-0.046 -0.062,-0.059 -0.079,-0.055 -0.207,-0.051 -0.144,-0.078 0.027,-0.074 -0.066,-0.066 -0.098,-0.063 -0.082,-0.043 -0.051,-0.047 0.055,-0.058 -0.078,-0.059 -0.23,-0.035 -0.165,-0.059 -0.136,-0.046 -0.149,-0.016 -0.183,-0.027 -0.207,-0.055 -0.168,-0.039 -0.137,-0.031 -0.133,-0.028 -0.14,-0.027 -0.102,-0.027 -0.094,-0.043 -0.105,-0.032 -0.094,-0.011 -0.098,-0.008 -0.07,-0.02 h -0.105 l -0.036,0.024 -0.078,0.008 -0.14,-0.004 h -0.137 l -0.129,0.007 -0.117,0.02 -0.18,0.016 -0.187,0.011 -0.063,0.032 -0.094,0.027 -0.07,0.027 -0.101,0.035 -0.02,0.059 -0.039,0.023 -0.059,0.02 -0.035,0.031 -0.051,0.012 -0.035,0.008 -0.039,0.019 -0.047,0.047 -0.031,0.024 -0.043,0.027 -0.062,0.043 -0.102,0.07 -0.164,0.047 -0.047,0.07 0.016,0.051 -0.051,0.063 -0.035,0.078 -0.035,0.082 -0.051,0.074 -0.028,0.07 -0.031,0.086 -0.043,0.106 -0.019,0.09 -0.024,0.078 -0.007,0.066 0.031,0.051 0.011,0.062 -0.046,0.071" style="fill:none;stroke:#000000;stroke-width:1.20739;stroke-linecap:round;stroke-linejoin:round;stroke-miterlimit:10;stroke-dasharray:none;stroke-opacity:1" id="path2310" />
         </g>
         <g id="g2312" transform="scale(1,-1)" style="stroke-width:0.923303">
            <path d="m 955.559,-538.098 h -0.004 l -0.028,-0.007 -0.031,-0.02 -0.035,-0.012 -0.027,-0.004 0.074,-0.031 h 0.023 l -0.043,0.008 -0.004,0.008 -0.004,0.019 v 0.032 -0.004 l -0.031,-0.004 -0.011,0.019 h 0.027 l 0.012,0.02 h 0.019 l 0.016,0.012 0.093,-0.004 0.086,0.015 -0.011,0.016 0.043,0.008 0.047,0.004 0.031,0.003 0.019,0.004 h 0.055 l 0.078,0.016 0.102,0.004 0.082,0.004 h 0.07 l -0.016,0.004 0.043,-0.008 0.129,-0.02 0.106,-0.004 0.093,0.004 0.086,0.004 h 0.45 l -0.004,-0.011 0.043,-0.004 0.062,0.011 0.082,0.004 -0.093,-0.011 -0.008,0.011 0.093,-0.015 h 0.059 l 0.059,0.004 0.05,0.007 0.067,0.02 0.066,0.008 0.028,0.008 0.019,-0.004 0.02,0.011 0.019,0.004 0.047,0.004 -0.019,0.027 -0.02,0.024 0.008,0.008 -0.008,0.004 -0.004,0.007" style="fill:none;stroke:#000000;stroke-width:1.20739;stroke-linecap:round;stroke-linejoin:round;stroke-miterlimit:10;stroke-dasharray:none;stroke-opacity:1" id="path2314" />
         </g>
         <g id="g2316" transform="scale(1,-1)" style="stroke-width:0.923303">
            <path d="m 961.277,-533.906 -0.011,-0.004 0.019,0.004 0.031,0.023 -0.128,-0.008 h -0.102 l -0.082,0.008 h -0.024 l -0.035,0.008 h 0.09 l 0.078,-0.004 -0.047,0.008 -0.011,0.004 -0.004,0.004 0.004,0.011 -0.098,-0.015 -0.031,-0.024 0.062,0.012 0.02,-0.008 0.019,-0.023 0.02,0.004 0.015,-0.008 0.016,-0.027 v -0.028 L 961.066,-534 v -0.086 l 0.02,-0.062 -0.031,-0.051 -0.039,-0.063 v -0.05 l -0.008,-0.075 -0.004,-0.093 -0.008,-0.086 0.012,-0.09 -0.012,-0.082 -0.019,-0.094 0.007,-0.098 -0.015,-0.113 -0.024,-0.109 -0.027,-0.106 -0.09,-0.097 -0.023,-0.125 0.054,-0.153 -0.007,-0.148 -0.012,-0.141 -0.016,-0.156 0.012,-0.18 -0.02,-0.14 -0.031,-0.153 -0.012,-0.156 -0.027,-0.141 -0.027,-0.152 -0.114,-0.145 -0.164,-0.148 0.016,-0.16 0.07,-0.137 -0.004,-0.14 -0.007,-0.137 0.007,-0.121 0.039,-0.114 0.02,-0.132 -0.031,-0.133 -0.016,-0.141 -0.023,-0.137 0.011,-0.144 0.051,-0.129 0.137,-0.156 0.039,-0.16 -0.055,-0.129 0.012,-0.141 0.035,-0.156 0.051,-0.141 -0.047,-0.16 0.008,-0.176 0.101,-0.125 0.047,-0.133 0.047,-0.128 0.028,-0.114 0.066,-0.101 0.062,-0.106 -0.003,-0.094 0.027,-0.085 0.023,-0.09 0.028,-0.102 0.031,-0.078 -0.066,-0.055 -0.047,-0.058 0.058,-0.032 0.028,-0.046 0.007,-0.02 -0.003,0.012 -0.016,0.004 -0.027,0.004 -0.024,0.011 0.004,0.016 -0.012,0.016 -0.027,0.039 -0.043,0.027 -0.027,0.023 -0.028,0.02 v -0.004 l -0.015,0.035 h -0.039 l -0.004,-0.011 -0.078,0.015 -0.024,0.059 0.02,0.058 -0.012,0.043 -0.031,0.071" style="fill:none;stroke:#000000;stroke-width:1.20739;stroke-linecap:round;stroke-linejoin:round;stroke-miterlimit:10;stroke-dasharray:none;stroke-opacity:1" id="path2318" />
         </g>
         <g id="g2320" transform="scale(1,-1)" style="stroke-width:0.923303">
            <path d="m 960.031,-534.828 h -0.019 l 0.004,0.012 -0.008,0.011 0.019,0.008 0.043,0.059 0.035,0.035 0.028,0.015 0.078,0.047 0.031,0.047 0.074,0.02 0.11,0.012 0.074,0.031 0.07,0.023 0.09,0.028 0.102,0.031 0.101,0.011 0.106,0.024 0.09,0.012 0.097,0.019 0.114,0.008 0.109,0.035 0.023,0.035 0.075,0.012 0.16,0.016 0.129,0.004 h 0.277 l 0.145,0.015 0.121,0.02 0.093,0.008 0.11,-0.016 0.101,-0.008 0.11,-0.004 0.097,-0.008 0.305,-0.015 0.094,-0.004 0.082,-0.008 0.101,-0.004 0.125,-0.004 0.168,-0.004 -0.019,0.016 0.07,-0.02 h 0.207 l 0.168,-0.003 h 0.137 l 0.109,-0.012 0.328,-0.012 0.243,-0.004 -0.043,0.004 0.074,-0.008 0.086,-0.008 0.07,-0.007 0.066,-0.016 0.11,-0.008 0.113,0.012 0.07,0.004 0.059,0.004 0.051,0.019 0.054,0.008 0.079,0.008 0.062,0.008 0.02,0.004 0.035,0.019 0.035,0.012 0.012,-0.012 0.023,0.02 0.035,0.007 0.012,-0.003 -0.023,0.003 -0.024,0.008 h -0.023" style="fill:none;stroke:#000000;stroke-width:1.20739;stroke-linecap:round;stroke-linejoin:round;stroke-miterlimit:10;stroke-dasharray:none;stroke-opacity:1" id="path2322" />
         </g>
         <g id="g2324" transform="scale(1,-1)" style="stroke-width:0.923303">
            <path d="m 960.117,-537.164 -0.012,-0.004 -0.05,-0.004 -0.063,-0.019 -0.07,-0.004 -0.164,-0.008 -0.051,-0.008 0.055,-0.016 0.015,0.004 0.016,0.016 0.027,-0.004 0.121,0.02 0.09,0.035 -0.019,0.004 0.09,0.007 0.097,0.028 0.09,0.008 0.094,0.004 0.125,0.039 0.125,0.015 0.113,0.012 0.125,0.039 0.125,0.035 0.137,0.039 0.183,0.035 0.09,0.008 0.094,0.016 0.148,0.023 0.172,0.016 0.184,0.027 0.156,0.008 0.293,0.02 0.254,0.007 0.008,0.008 0.097,0.008 h 0.086 l 0.067,0.016 0.043,0.011 0.082,0.004 0.133,0.016 0.109,0.008 0.09,0.004 h 0.183 l 0.071,-0.004 h 0.07 l 0.106,0.011 0.093,0.02 0.071,0.008 0.074,0.019 0.105,0.008 0.098,-0.016 0.039,-0.003 h 0.047 l 0.051,0.011 0.054,0.004 0.075,0.004 0.086,-0.016 0.05,-0.011" style="fill:none;stroke:#000000;stroke-width:1.20739;stroke-linecap:round;stroke-linejoin:round;stroke-miterlimit:10;stroke-dasharray:none;stroke-opacity:1" id="path2326" />
         </g>
         <g id="g2328" transform="scale(1,-1)" style="stroke-width:0.923303">
            <path d="m 967.969,-537.383 -0.008,0.004 -0.02,0.016 -0.035,0.015 -0.019,0.016 -0.028,0.027 -0.019,0.016 0.008,0.004 -0.028,0.023 0.02,-0.019 0.004,-0.016 v 0.004 l -0.012,0.008 -0.012,0.012 h 0.039 l 0.016,0.003 h 0.008 l 0.012,0.032 0.019,0.004 0.027,-0.008 0.043,-0.008 h -0.062 l -0.047,-0.012 0.016,0.028 0.019,0.004 -0.156,-0.004 -0.074,-0.024 0.097,0.012 v -0.016 l 0.016,-0.019 0.016,-0.004 0.027,0.012 0.023,0.007 0.02,0.012 v 0.024 -0.024 h -0.039 l -0.02,-0.012 -0.004,-0.011 -0.007,-0.008 -0.008,-0.027 -0.016,-0.008 -0.039,-0.008 -0.094,-0.016 -0.004,-0.031 0.032,-0.012 -0.004,-0.035 -0.024,-0.031 -0.015,-0.012 0.078,-0.019 0.039,-0.036 -0.086,-0.023 -0.027,-0.031 -0.036,-0.039 -0.039,-0.051 -0.027,-0.07 -0.035,-0.063 -0.055,-0.051 -0.043,-0.05 -0.054,-0.055 -0.047,-0.078 -0.043,-0.11 -0.024,-0.089 -0.015,-0.098 -0.043,-0.078 -0.035,-0.078 -0.032,-0.071 -0.011,-0.086 -0.043,-0.089 -0.012,-0.098 0.008,-0.078 -0.012,-0.071 v -0.066 l 0.004,-0.074 0.008,-0.082 0.062,-0.086 0.043,-0.074 -0.004,-0.047 0.028,-0.055 0.031,-0.047 0.039,-0.039 -0.176,-0.035 -0.035,-0.078 0.168,-0.043 0.094,-0.059 0.113,-0.035 0.082,-0.031 0.102,-0.043 0.14,-0.047 0.07,-0.043 0.071,-0.027 0.07,-0.032 0.109,-0.046 0.126,-0.059 -0.071,-0.016 0.016,-0.043 0.187,-0.023 0.16,-0.031 0.137,-0.032 0.086,-0.003 0.094,-0.016 0.101,-0.004 0.114,-0.012 0.101,-0.004 0.114,-0.011 h 0.199 l 0.238,0.015 0.164,0.039 -0.043,-0.007 0.07,0.007 0.063,0.036 0.039,0.011 h -0.012 l -0.031,0.028 v 0.027 l 0.012,0.019 0.004,0.028 0.008,0.031 -0.004,0.055 0.086,0.054 0.05,0.079 -0.062,0.046 v 0.067 l -0.035,0.074 -0.004,0.043 0.035,0.039 0.023,0.07 -0.019,0.079 -0.028,0.078 -0.007,0.09 0.011,0.085 -0.035,0.079 -0.027,0.07 0.004,0.101 -0.039,0.114 -0.032,0.105 -0.031,0.098 -0.015,0.117 -0.184,0.117 -0.121,0.145 0.066,0.097 -0.019,0.129 -0.031,0.098 -0.028,0.113 -0.027,0.125 0.031,0.102 -0.039,0.113 -0.105,0.098 -0.055,0.121 -0.027,0.09 -0.047,0.062 -0.25,0.071 -0.168,0.089 0.086,0.055 -0.016,0.082 -0.012,0.051 -0.019,0.043 -0.028,0.039 0.02,0.019 -0.024,0.02 -0.039,0.012 -0.031,0.019 -0.051,0.016 -0.027,-0.008 0.043,0.016 h -0.023 l -0.094,-0.008 -0.063,-0.012 -0.054,-0.008 -0.047,0.004 -0.063,-0.004 -0.093,-0.004 -0.079,0.016 -0.027,0.02 -0.055,0.007 -0.035,0.008 -0.058,0.004 0.054,0.016 -0.015,0.008 -0.082,-0.008 -0.071,-0.024 -0.093,-0.004 -0.067,-0.019 -0.031,-0.012 -0.051,0.008 -0.078,0.008 -0.051,0.004 -0.066,0.007 -0.07,-0.015 h -0.114 l -0.093,0.023" style="fill:none;stroke:#000000;stroke-width:1.20739;stroke-linecap:round;stroke-linejoin:round;stroke-miterlimit:10;stroke-dasharray:none;stroke-opacity:1" id="path2330" />
         </g>
         <g id="g2332" transform="scale(1,-1)" style="stroke-width:0.923303">
            <path d="m 973.297,-540.625 -0.02,-0.012 -0.027,-0.027 0.043,-0.051 0.016,-0.078 0.05,-0.082 0.02,-0.031 0.09,-0.043 0.011,-0.047 -0.058,-0.02 0.012,-0.035 -0.004,-0.004 0.019,-0.007 v -0.008 0.011 l -0.004,0.012 v 0.027 l -0.004,0.028 -0.003,0.015 -0.008,0.004 0.031,0.004 -0.023,0.028 -0.043,0.003 -0.012,-0.015 h -0.008 l -0.008,0.008 -0.051,0.031 -0.074,0.019 0.004,0.012 0.047,0.008 0.016,0.008 0.011,0.004 0.012,0.027 0.063,-0.008 h 0.07 l -0.051,0.012 -0.031,-0.004 -0.004,0.031 v 0.012 l 0.012,-0.008 0.007,-0.004 -0.003,0.012 -0.02,0.02 0.027,0.003 0.004,-0.003 0.012,0.011 -0.117,-0.027 0.008,-0.008 0.109,0.027 -0.043,-0.011 0.008,-0.02 0.031,0.031 0.109,0.012 0.141,0.008 -0.035,0.008 -0.078,0.008 -0.028,0.019 -0.023,0.016 -0.016,0.019 -0.129,0.035 -0.066,0.075 0.066,0.05 v 0.09 l -0.015,0.086 -0.004,0.082 0.019,0.086 -0.046,0.078 -0.032,0.082 0.004,0.078 -0.004,0.075 -0.015,0.082 -0.024,0.105 0.008,0.121 -0.019,0.098 -0.055,0.078 -0.02,0.106 -0.011,0.121 -0.012,0.105 0.027,0.09 -0.008,0.117 -0.062,0.113 -0.02,0.114 -0.011,0.105 -0.008,0.09 -0.07,0.106 -0.079,0.132 0.02,0.09 0.043,0.07 0.016,0.079 0.011,0.082 0.012,0.07 0.148,0.066 0.071,0.082 -0.074,0.051 0.019,0.055 v 0.078 l 0.012,0.027 -0.008,0.028 -0.023,0.035 0.023,0.055 0.043,0.05 0.027,0.016 0.039,0.031 0.055,0.027 -0.027,0.028 0.054,0.039 0.153,0.039 0.058,0.055 0.071,0.023 0.078,0.027 0.183,0.039 0.227,0.012 0.039,0.031 0.035,0.028 0.082,0.012 0.113,0.019 0.086,0.008 -0.019,-0.008 0.027,0.008 0.145,-0.012 0.074,0.008 0.082,0.004 0.086,0.004 0.148,0.019 0.168,0.004 0.039,-0.011 0.043,-0.004 h 0.055 l 0.074,-0.016 0.082,-0.031 0.063,0.008 0.051,-0.004 0.054,-0.02 0.051,-0.008 0.047,-0.004 0.051,-0.019 0.05,-0.024" style="fill:none;stroke:#000000;stroke-width:1.20739;stroke-linecap:round;stroke-linejoin:round;stroke-miterlimit:10;stroke-dasharray:none;stroke-opacity:1" id="path2334" />
         </g>
         <g id="g2336" transform="scale(1,-1)" style="stroke-width:0.923303">
            <path d="m 977.516,-538.098 v -0.015 l -0.012,-0.008 -0.031,-0.027 -0.016,-0.012 -0.008,-0.004 -0.008,-0.012 -0.007,-0.008 h -0.094 0.031 l 0.012,0.016 h 0.012 -0.016 l -0.067,0.004 0.028,-0.02 0.055,-0.019 0.027,-0.027 0.019,-0.028 h 0.016 l 0.105,-0.008 0.075,-0.031 -0.051,-0.023 v -0.035 l -0.016,-0.036 -0.011,-0.047 -0.028,-0.062 -0.062,-0.047 0.008,-0.051 0.031,-0.043 0.004,-0.062 0.004,-0.07 v -0.039 l 0.031,-0.067 0.031,-0.074 v -0.07 l -0.012,-0.067 v -0.078 l -0.004,-0.074 v -0.07 l 0.047,-0.055 v -0.078 l -0.031,-0.067 -0.008,-0.062 -0.008,-0.039 0.008,-0.071 -0.035,-0.062 -0.031,-0.063 0.004,-0.043 0.008,-0.035 0.004,-0.051 v -0.035 l -0.012,-0.035 -0.004,-0.047 0.016,-0.05 0.003,-0.051 0.024,-0.059 0.008,-0.039 0.023,-0.051 0.047,-0.054 0.004,-0.055 -0.02,-0.07 0.016,-0.051 v -0.055 l 0.02,-0.062 -0.043,-0.043 -0.047,-0.055 0.027,-0.039 0.031,-0.039 0.012,-0.059 0.004,-0.039 -0.031,-0.023 -0.09,-0.012 0.012,-0.023 0.078,-0.02 0.019,-0.023 -0.004,-0.016 0.008,0.012 0.051,0.019 0.023,-0.008 -0.05,-0.003 0.019,0.003 -0.004,0.012 V -541 l -0.047,0.004 -0.113,0.008 -0.004,0.019 0.055,-0.015 0.015,0.007 0.016,0.02 0.106,-0.004 0.054,0.035 -0.074,-0.015 v -0.028 l -0.004,-0.011 -0.004,0.003 -0.019,0.024 0.015,0.008 h 0.016 -0.027 l -0.012,0.011 v 0.008 l -0.028,-0.004 -0.031,-0.008 h 0.004 v 0.012 l 0.004,0.012 0.004,-0.008 -0.047,-0.008 v -0.004 l 0.031,0.012 -0.035,-0.008 0.004,-0.019 0.004,0.031 0.043,0.004 0.031,0.023 -0.004,0.016 -0.015,0.043 -0.004,0.066 -0.028,0.047 -0.007,0.051 -0.086,0.082 -0.059,0.086 0.031,0.086 -0.004,0.105 v 0.082 l 0.004,0.098 -0.05,0.106 -0.036,0.109 0.02,0.102 0.023,0.089 0.024,0.075 0.015,0.086 0.012,0.097 0.074,0.121 0.016,0.117 -0.031,0.082 0.05,0.086 0.043,0.082 0.02,0.079 -0.031,0.078 -0.129,0.078 0.058,0.07 0.149,0.047 0.09,0.063 0.058,0.046 0.075,0.051 0.23,0.027 0.184,0.059 -0.055,0.039 0.016,0.047 0.031,0.027 0.015,0.016 h 0.024 l 0.055,0.008 0.039,-0.004 0.015,-0.004 0.016,-0.012 0.015,-0.015 0.024,-0.012 0.039,-0.035 0.027,-0.02 h 0.028 l 0.004,-0.008 0.019,-0.007 0.012,-0.016 0.004,-0.023 0.051,-0.036 0.062,-0.046 0.047,-0.063 0.043,-0.051 0.035,-0.039 0.066,-0.039 0.012,-0.058 0.035,-0.063 0.074,-0.043 0.051,-0.059 0.047,-0.066 0.039,-0.059 -0.051,-0.054 v -0.086 l 0.094,-0.067 0.051,-0.078 0.066,-0.07 0.039,-0.043 0.04,-0.035 0.035,-0.047 0.019,-0.035 0.024,-0.043 0.011,-0.027 0.004,-0.059 -0.004,-0.039 0.047,-0.035 -0.023,-0.043 -0.059,-0.031 0.008,-0.032 -0.012,-0.035 -0.008,-0.039 -0.074,-0.008 -0.14,-0.019 0.007,-0.024 0.079,-0.023 0.015,-0.031 -0.008,0.003 0.008,0.016 0.176,0.02 0.137,0.015 -0.125,0.016 -0.016,-0.024 -0.023,0.012 -0.028,0.004 -0.043,0.004 -0.086,0.016 0.004,0.023 0.039,0.004 0.004,0.012 v 0.004 l 0.004,0.027 h 0.012 l 0.019,0.016 -0.003,0.007 h -0.016 l -0.004,0.008 h -0.008 l 0.024,-0.004 0.043,0.012 -0.024,-0.004 -0.019,0.02 v 0.058 l 0.011,0.02 -0.023,0.043 -0.008,0.054 0.031,0.059 0.008,0.07 0.008,0.047 0.004,0.063 -0.067,0.066 0.004,0.059 0.082,0.05 0.028,0.075 0.078,0.125 0.043,0.086 0.133,0.062 0.086,0.086 -0.016,0.063 0.035,0.05 0.035,0.063 0.043,0.055 0.035,0.054 0.036,0.059 0.046,0.07 0.075,0.063 0.062,0.062 0.051,0.043 0.055,0.035 -0.012,0.051 0.039,0.035 0.109,0.02 0.067,0.035 0.058,0.031 0.078,0.043 0.243,0.043 0.144,0.059 -0.066,0.007 0.054,0.024 h 0.106 l 0.016,-0.004 -0.09,0.008 0.035,0.004 0.137,-0.024 0.085,-0.023 0.071,-0.004 0.051,-0.004 0.171,-0.039 0.137,-0.016 -0.012,-0.031 0.047,-0.051 0.028,-0.039 0.043,-0.054 0.07,-0.071 0.074,-0.051 0.028,-0.066 0.031,-0.051 0.082,-0.136 0.035,-0.094 0.047,-0.094 0.051,-0.082 0.039,-0.059 0.015,-0.066 0.024,-0.047 0.019,-0.066 0.004,-0.082 0.035,-0.086 0.043,-0.055 -0.004,-0.059 v -0.058 l -0.015,-0.051 0.004,-0.039 0.086,-0.066 0.007,-0.067 -0.066,-0.051 -0.019,-0.054 -0.02,-0.051 -0.012,-0.039 -0.078,-0.074 -0.074,-0.051 0.027,-0.039 -0.004,-0.051 -0.027,-0.059 -0.023,-0.054 -0.008,-0.035 0.027,-0.032 -0.004,-0.062 -0.082,-0.055 -0.047,-0.047 -0.023,-0.031 -0.024,-0.027 0.039,-0.016 -0.027,-0.023 -0.07,-0.039 -0.024,-0.036 -0.027,-0.019 -0.031,-0.027 0.004,-0.032 -0.153,-0.007 h -0.125 l 0.063,-0.012 0.023,0.004 h 0.024 l 0.031,-0.004 0.113,0.012 0.078,0.015 -0.019,0.012 0.004,-0.008 -0.004,0.004 0.004,-0.008 -0.055,-0.004 -0.047,0.02 0.047,0.011 0.035,0.008" style="fill:none;stroke:#000000;stroke-width:1.20739;stroke-linecap:round;stroke-linejoin:round;stroke-miterlimit:10;stroke-dasharray:none;stroke-opacity:1" id="path2338" />
         </g>
         <g id="g2340" transform="scale(1,-1)" style="stroke-width:0.923303">
            <path d="m 987.395,-539.004 -0.016,-0.004 -0.031,-0.004 -0.036,-0.004 -0.105,0.008 -0.016,0.004 0.063,-0.004 0.004,0.059 0.004,0.023 -0.008,-0.008 0.086,0.012 0.051,0.027 -0.055,0.02 -0.004,0.047 0.004,0.008 0.016,0.008 0.015,0.015 0.031,0.008 v 0.027 l 0.004,0.016 v 0.016 -0.008 h 0.028 v 0.019 l -0.028,-0.004 -0.035,-0.007 -0.008,0.023 -0.004,0.004 -0.078,-0.008 h -0.035 l 0.031,0.004 v 0.016 l -0.007,0.023 -0.039,0.031 0.023,0.055 0.109,0.031 -0.011,0.047 -0.118,0.031 -0.089,0.075 -0.063,0.074 -0.047,0.043 -0.285,0.047 -0.207,0.023 0.113,0.023 -0.027,0.047 -0.008,0.028 0.004,0.015 0.004,0.055 -0.07,0.016 -0.075,0.007 0.043,0.016 -0.015,0.031 -0.016,0.004 -0.027,0.012 0.012,0.043 -0.02,0.012 -0.055,-0.012 -0.043,0.016 -0.062,-0.004 -0.035,-0.004 -0.02,0.004 -0.094,0.015 -0.105,0.004 h -0.078 l -0.067,-0.012 -0.07,-0.007 0.008,-0.028 -0.012,-0.023 -0.129,-0.024 -0.097,-0.039 -0.086,-0.027 -0.074,-0.031 -0.067,-0.043 -0.051,-0.035 -0.105,-0.051 -0.102,-0.063 -0.101,-0.046 -0.11,-0.075 -0.105,-0.09 -0.094,-0.082 -0.094,-0.074 -0.109,-0.07 -0.07,-0.082 -0.067,-0.067 -0.066,-0.07 -0.152,-0.078 -0.083,-0.086 0.024,-0.066 -0.031,-0.063 -0.004,-0.074 -0.004,-0.039 0.07,-0.031 0.172,-0.047 0.008,-0.071 -0.094,-0.031 -0.027,-0.051 0.008,-0.043 0.019,-0.043 -0.113,-0.046 -0.039,-0.075 0.125,-0.05 0.066,-0.067 0.082,-0.062 0.055,-0.016 0.07,-0.023 0.028,-0.055 0.062,-0.055 0.074,-0.047 0.075,-0.039 0.093,-0.039 0.078,-0.031 0.028,-0.023 0.047,-0.043 0.097,-0.032 0.102,-0.031 0.07,-0.039 0.078,-0.008 0.067,-0.019 0.031,-0.039 0.07,-0.012 0.082,0.012 0.078,-0.016 0.028,-0.004 0.043,0.035 0.136,0.035 0.098,0.024 -0.055,0.035 0.008,0.047 0.02,0.023 0.004,0.039 0.027,0.036 0.023,0.042 -0.035,0.043 -0.015,0.043 0.004,0.04 0.007,0.035 -0.039,0.031 -0.039,0.051 0.043,0.054 0.047,0.059 0.024,0.039 0.015,0.051 0.008,0.058 -0.078,0.043 0.031,0.059 0.117,0.047 0.039,0.07 0.047,0.055 0.047,0.058 0.063,0.063 0.16,0.035 0.101,0.074 -0.035,0.051 0.047,0.043 0.062,0.035 0.043,0.028 -0.125,0.027 -0.011,0.008 h 0.179 l 0.082,0.039 h 0.051 l 0.055,0.019 0.086,0.02 0.074,-0.031 0.024,-0.008 0.031,-0.012 0.043,-0.016 h 0.027 l 0.051,-0.035 -0.027,-0.039 0.015,-0.054 0.113,-0.043 0.172,-0.102 0.063,-0.027 0.051,-0.016 v -0.055 l 0.035,-0.062 0.086,-0.043 0.047,-0.063 0.046,-0.066 0.051,-0.059 0.145,-0.047 0.058,-0.058 -0.031,-0.047 0.016,-0.039 -0.004,-0.039 0.008,-0.051 0.035,-0.043 0.031,-0.031 0.008,-0.047 0.015,-0.051 0.02,-0.051 0.004,-0.035 -0.016,-0.031 -0.011,-0.027 0.019,-0.043 0.024,-0.035 0.007,-0.039 v -0.028 l 0.016,-0.023 -0.039,-0.02 0.023,-0.047 0.063,-0.031 -0.012,-0.031 0.004,-0.039 h 0.004 l -0.035,-0.004 0.054,-0.008 0.063,-0.004 -0.027,0.012 -0.008,0.012 -0.02,0.019 -0.129,-0.008 -0.015,-0.004 0.109,-0.003 0.02,0.042 0.07,-0.023 0.047,0.012 0.047,0.019 0.16,0.004 0.113,-0.031 -0.035,0.004" style="fill:none;stroke:#000000;stroke-width:1.20739;stroke-linecap:round;stroke-linejoin:round;stroke-miterlimit:10;stroke-dasharray:none;stroke-opacity:1" id="path2342" />
         </g>
         <g id="g2344" transform="scale(1,-1)" style="stroke-width:0.923303">
            <path d="m 990.98,-535.082 0.004,-0.004 0.012,-0.008 -0.078,-0.011 -0.008,-0.024 0.117,-0.035 h 0.028 l 0.019,0.008 h 0.024 l 0.05,0.023 0.055,-0.004 -0.035,0.008 -0.02,0.02 v 0.004 l 0.024,0.003 -0.051,0.004 -0.019,-0.027 h 0.023 l 0.004,0.02 0.004,-0.024 h 0.027 l -0.027,0.012 -0.008,-0.016 h 0.066 l 0.024,-0.027 v -0.024 l -0.024,-0.019 -0.058,-0.039 0.008,-0.039 0.062,-0.059 0.02,-0.062 0.015,-0.078 0.024,-0.082 0.14,-0.079 0.059,-0.113 -0.051,-0.078 v -0.176 l -0.004,-0.117 -0.043,-0.148 0.055,-0.129 0.059,-0.118 -0.028,-0.144 -0.004,-0.16 -0.004,-0.168 -0.007,-0.184 0.011,-0.211 -0.015,-0.191 -0.028,-0.164 -0.011,-0.164 -0.012,-0.184 -0.012,-0.172 0.063,-0.168 0.164,-0.156 -0.012,-0.148 -0.117,-0.141 -0.047,-0.145 -0.031,-0.125 -0.008,-0.113 -0.16,-0.121 -0.024,-0.133 0.133,-0.109 0.016,-0.121 0.023,-0.098 0.031,-0.066 0.164,-0.098 0.079,-0.109 -0.067,-0.071 0.035,-0.097 0.059,-0.09 0.043,-0.086 0.062,-0.07 0.079,-0.071 0.054,-0.09 0.035,-0.101 0.055,-0.09 0.043,-0.086 0.039,-0.07 0.07,-0.067 0.028,-0.078 0.019,-0.097 0.059,-0.071 0.035,-0.07 0.051,-0.062 -0.012,-0.075 -0.004,-0.066 0.071,-0.063 0.054,-0.078 0.047,-0.078 0.016,-0.043 0.011,-0.015 0.075,-0.008 0.027,-0.028 -0.031,-0.011 h -0.024 l -0.035,-0.008 -0.074,-0.016 -0.074,0.02 0.011,0.015 -0.003,0.004 -0.004,0.024 -0.012,0.008 -0.016,0.015 0.071,-0.004 0.019,0.043 -0.082,-0.015 h -0.098 l -0.027,0.004 -0.043,0.019 v 0.051" style="fill:none;stroke:#000000;stroke-width:1.20739;stroke-linecap:round;stroke-linejoin:round;stroke-miterlimit:10;stroke-dasharray:none;stroke-opacity:1" id="path2346" />
         </g>
         <g id="g2348" transform="scale(1,-1)" style="stroke-width:0.923303">
            <path d="m 988.281,-537.039 -0.004,-0.004 -0.07,-0.027 -0.078,-0.055 0.043,-0.02 -0.004,-0.039 v 0.02 l 0.012,0.012 0.011,0.043 0.012,0.011 0.078,0.008 h 0.067 l 0.07,0.024 0.117,0.023 0.113,0.051 0.082,0.043 0.11,0.035 0.289,0.078 0.144,0.055 0.149,0.062 0.148,0.051 0.192,0.059 0.215,0.05 0.199,0.047 0.215,0.039 0.199,0.039 0.101,0.067 0.168,0.051 0.235,0.039 0.183,0.039 0.172,0.031 0.18,0.047 0.367,0.047 0.289,0.066 0.051,0.02 0.16,0.011 0.188,0.02 h 0.156 l 0.09,-0.012 0.086,0.024 0.164,0.011 0.199,0.02 h 0.152 l 0.074,0.019 0.071,0.004 0.164,0.012 h 0.121 l -0.016,0.02 0.039,0.019 0.043,0.004 0.028,0.004 0.062,0.027 0.113,0.032 -0.035,0.011 -0.05,0.024 0.011,0.015 -0.015,0.039 -0.02,0.012 -0.168,0.059" style="fill:none;stroke:#000000;stroke-width:1.20739;stroke-linecap:round;stroke-linejoin:round;stroke-miterlimit:10;stroke-dasharray:none;stroke-opacity:1" id="path2350" />
         </g>
         <g id="g2352" transform="scale(1,-1)" style="stroke-width:0.923303">
            <path d="m 946.062,-527.176 c 5.57653,0.79733 11.26176,0.94275 16.90357,0.88336 8.15482,0.37887 16.28359,-0.88112 24.43643,-0.45734 2.76641,-0.42842 5.80545,0.10607 8.26183,-1.47495 2.53838,0.24866 2.67048,-2.70166 2.55878,-4.90051 -0.31014,-2.65867 0.32829,-5.26901 -0.21577,-7.98535 0.42019,-2.31298 0.2571,-4.82855 -0.46794,-6.78719 -2.98857,-0.0898 -6.10785,0.18147 -9.14149,-0.0588 -3.42094,-0.4959 -6.86757,0.20827 -10.30565,-0.11437 -2.89234,0.31596 -5.78184,0.12643 -8.67875,0.12388 -3.75803,0.12087 -7.51875,0.27551 -11.27611,0.47784 -3.56605,-0.13752 -7.17369,0.25758 -10.7094,0.71135 -3.57467,0.27553 -1.6685,4.17017 -2.55721,6.70983 -0.60802,2.68319 0.0359,5.56382 -0.3164,8.18441 0.20482,1.35903 -0.0406,3.25155 1.29771,3.94942" style="fill:none;stroke:#000000;stroke-width:1.20739;stroke-linecap:round;stroke-linejoin:round;stroke-miterlimit:10;stroke-dasharray:none;stroke-opacity:1" id="path2354" />
         </g>
         <g id="g2356" transform="scale(1,-1)" style="stroke-width:0.923303">
            <path d="m 915.168,-568.156 c 0.234,-0.532 -0.305,1.39 -0.957,1.636 -2.516,3.102 -4.715,6.485 -7.195,9.5 -1.602,2.106 -3.024,3.778 -4.711,5.497 -1.344,1.418 -2.348,2.769 -3.524,3.793 -0.922,0.832 -1.734,1.675 -2.179,2.218 -0.907,0.856 -2.223,2.293 -3.133,3.176 -0.063,-0.07 -1.09,0.785 -1.617,0.902 0.46,-0.304 -2.196,0.332 -1.438,0.118 -1.226,0.226 -1.164,-0.399 -2.121,-0.934 -1.121,-1.043 -2.02,-2.559 -3.09,-3.426 -1.359,-1.652 -2.371,-2.762 -3.297,-4.019 -0.801,-1.676 -1.812,-3.399 -2.679,-4.285 -0.582,-1.375 -1.344,-2.411 -2.301,-3.329 -1,-1.464 -1.434,-3.48 -2.274,-4.82 -0.515,-1.516 -1.586,-2.875 -2.144,-3.996 -0.711,-0.34 -0.446,-1.289 -1,-2.004 -0.16,-0.891 -0.891,-1.293 -0.86,-2.469 -0.066,-1.66 -1.019,-1.937 -0.812,-3.621 -0.184,-0.261 -0.121,-0.121 0.273,-0.664 0.739,-0.48 2.219,-0.961 3.161,-1.039 4.82,-1.121 9.367,-2.922 14.078,-4.648 3.07,-0.696 6.73,-1.825 9.472,-2.532 2.18,-0.136 4.59,-0.976 6.395,-0.687 0.957,-0.316 2.07,0.289 1.762,0.258 0.898,0.355 0.941,0.644 1.566,1.629 1.91,2.011 2.082,5.336 4.055,7.285 0.929,2.027 3.09,3.363 3.961,5.406 0.289,0.481 1.152,0.965 1.582,1.301" style="fill:none;stroke:#000000;stroke-width:3.62219;stroke-linecap:round;stroke-linejoin:round;stroke-miterlimit:10;stroke-dasharray:none;stroke-opacity:1" id="path2358" />
         </g>
         <g id="g2360" transform="scale(1,-1)" style="stroke-width:0.923303">
            <path d="m 1027.805,-590.918 c 0.199,0.457 -0.45,-0.039 -0.403,0.75 -0.504,1.902 -1.781,3.566 -2.304,5.543 -1.301,2.082 -1.567,4.453 -2.922,6.25 -0.285,0.527 -0.836,1.727 -0.707,2.285 0.183,0.242 0.617,2.008 1.441,2.02 2.481,2.457 5.141,4.574 6.34,7.816 1.387,2.348 3.102,4.316 4.98,6.031 1.61,2.555 4.704,4.52 6.172,7.172 1.375,2.074 3.918,3.438 5.649,4.582 1.258,0.059 1.637,0.324 2.148,-1.176 1.586,-1.66 2.203,-3.734 3.219,-5.98 1.34,-2.082 1.91,-4.07 2.723,-6.367 0.882,-1.93 1.117,-4.031 2.132,-5.813 0.485,-1.867 1.954,-3.84 2.325,-5.754 0.152,-1.218 1.445,-3.105 1.332,-4.515 0.621,-1.074 0.914,-2.821 1.152,-4.008 -0.18,-0.238 -1.07,-1.324 -1.66,-1.641 -4.508,-1.804 -9.262,-3.457 -13.731,-4.816 -3.281,-0.832 -5.921,-1.57 -9.234,-1.867 -2.703,-0.153 -5.797,-1.239 -8.187,-1.653 -0.387,0.223 0.101,-0.382 -0.309,0.332" style="fill:none;stroke:#000000;stroke-width:3.62219;stroke-linecap:round;stroke-linejoin:round;stroke-miterlimit:10;stroke-dasharray:none;stroke-opacity:1" id="path2362" />
         </g>
         <g id="g2364" transform="scale(1,-1)" style="stroke-width:0.923303">
            <path d="m 952.449,-680.715 c -0.293,0.582 1.992,-0.305 3.016,-0.039 3.57,0.418 7.113,-0.297 10.64,-0.129 0.665,0.113 1.637,0.762 1.457,0.141 0.969,-1.535 1.446,-3.692 2.172,-5.465 0.618,-2.762 2.489,-5.656 2.606,-8.461 1.117,-2.594 1.101,-5.156 1.762,-7.582 0.058,-1.422 0.73,-3.133 0.613,-4.418 -0.246,-0.984 0.254,-2.602 -0.453,-3.734 0.183,-0.633 -0.047,-1.684 -0.75,-2.465 -0.321,-1.391 -3.223,-2.047 -5.071,-2.203 -4.226,-0.91 -8.496,-1.399 -12.828,-0.977 -3.461,-0.351 -7.238,-0.492 -10.359,-0.137 -1.547,0.02 -3.125,0.149 -4.035,0.18 -0.653,0.254 -1.446,0.195 -1.114,0.285 -0.734,0.926 -1.203,1.305 -1.293,2.246 -0.464,1.043 0.833,1.961 0.946,3.098 0.812,2.828 2.519,5.48 3.062,8.531 1.27,3.168 1.875,6.711 3.575,9.723 0.722,2.691 2.496,4.883 3.289,7.516 1.484,0.855 1.574,3.402 2.152,4.425" style="fill:none;stroke:#000000;stroke-width:3.62219;stroke-linecap:round;stroke-linejoin:round;stroke-miterlimit:10;stroke-dasharray:none;stroke-opacity:1" id="path2366" />
         </g>
         <g id="g2368" transform="scale(1,-1)" style="stroke-width:0.923303">
            <path d="m 851.41,-692.332 c -9.687,-0.813 -19.535,0.453 -29.133,-0.82 -0.945,10.964 -1.757,22.121 -3.293,33.097 -0.23,15.004 1.746,29.953 0.606,44.934 -0.406,14.746 -0.242,29.519 -0.727,44.273 0.02,13.129 -2.808,26.258 -1.777,39.465 0.527,6.113 -0.122,12.656 2.777,17.547" style="fill:none;stroke:#000000;stroke-width:3.62219;stroke-linecap:round;stroke-linejoin:round;stroke-miterlimit:10;stroke-dasharray:none;stroke-opacity:1" id="path2370" sodipodi:nodetypes="ccccccc" />
         </g>
         <g id="g2372" transform="scale(1,-1)" style="stroke-width:0.923303">
            <path d="m 819.863,-513.836 c 1.305,0.246 4.129,0.473 5.985,0.32 4.777,-0.597 9.566,0.129 14.343,-0.257 4.172,-0.137 8.329,0.421 12.497,0.07 2.742,-0.016 5.457,0.523 8.195,0.191 3.547,0.278 7.121,0.207 10.648,0.535 -0.082,-0.089 0.332,-0.093 0.074,-0.175" style="fill:none;stroke:#000000;stroke-width:3.62219;stroke-linecap:round;stroke-linejoin:round;stroke-miterlimit:10;stroke-dasharray:none;stroke-opacity:1" id="path2374" />
         </g>
         <g id="g2376" transform="scale(1,-1)" style="stroke-width:0.923303">
            <path d="m 827.391,-523.621 c 2.089,0.402 4.269,-0.242 6.398,-0.258 3.27,-0.391 6.582,-0.398 9.836,0.082 1.922,-0.5 4.953,0.328 6.145,-1.148 0.355,-2.387 0.628,-4.817 0.73,-7.254 0.316,-1.215 0.777,-2.832 0.219,-3.973" style="fill:none;stroke:#000000;stroke-width:1.20739;stroke-linecap:round;stroke-linejoin:round;stroke-miterlimit:10;stroke-dasharray:none;stroke-opacity:1" id="path2378" />
         </g>
         <g id="g2380" transform="scale(1,-1)" style="stroke-width:0.923303">
            <path d="m 826.34,-524.809 c -0.836,-1.32 0.273,-3.921 -0.223,-5.796 -0.437,-2.18 0.289,-4.34 0.153,-6.52 0.257,-2.586 -0.887,-5.25 -0.153,-7.719 -0.551,-2.597 2.524,-0.863 4.258,-1.187 3.527,0.109 7.047,-0.114 10.566,-0.094 1.211,0.023 3.086,-0.316 3.911,0.336" style="fill:none;stroke:#000000;stroke-width:1.20739;stroke-linecap:round;stroke-linejoin:round;stroke-miterlimit:10;stroke-dasharray:none;stroke-opacity:1" id="path2382" />
         </g>
         <g id="g2384" transform="scale(1,-1)" style="stroke-width:0.923303">
            <path d="m 833.625,-534.27 c -0.395,-1.078 -2.332,-1.554 -2.48,-3.23 -0.563,-1.617 -0.711,-4.27 1.293,-4.926 1.781,-0.695 3.96,-0.949 5.566,0.297 2.086,0.758 2.223,3.027 0.676,4.445 -0.746,1.817 -2.403,3.172 -4.465,2.559 -0.379,0 -0.762,0.027 -1.125,0.148" style="fill:none;stroke:#000000;stroke-width:1.20739;stroke-linecap:round;stroke-linejoin:round;stroke-miterlimit:10;stroke-dasharray:none;stroke-opacity:1" id="path2386" />
         </g>
         <g id="g2388" transform="scale(1,-1)" style="stroke-width:0.923303">
            <path d="m 832.621,-531.055 c -1.863,0.203 -2.973,-1.933 -3.699,-3.386 -0.809,-1.664 -0.777,-3.637 -0.399,-5.368 0.602,-1.91 2.157,-3.613 4.278,-3.683 2.59,-0.317 4.894,1.082 7.031,2.332 1.57,1.187 2.523,3.289 1.477,5.121 -0.926,1.637 -2.262,2.98 -3.149,4.644 -1.18,1.211 -2.277,2.997 -4.207,2.899 -2.133,0.465 -4.812,-0.688 -5.187,-3.016 -0.633,-2.047 -0.328,-4.199 -0.559,-6.3 0.418,-2.028 0.395,-4.637 2.559,-5.688 2.414,-1.035 5.175,-0.535 7.648,0.02 1.68,0.644 2.996,1.964 3.949,3.472 1.188,1.399 1.957,3.258 2.059,5.09 -0.145,1.723 -1.274,3.113 -1.981,4.621 -1.328,1.656 -3.304,2.695 -5.242,3.465 -1.976,0.457 -3.984,-0.281 -5.851,-0.832 -2.133,-0.527 -3.356,-2.621 -2.825,-4.746 0.196,-1.844 -0.015,-3.856 0.774,-5.586 0.918,-2.176 1.402,-4.949 3.723,-6.094 2.949,-1.023 6.687,-1.047 9.054,1.289 1.336,1.379 2.676,2.977 2.668,5.016 0.278,1.66 0.153,3.43 0.805,5.004 0.031,1.984 -1.836,3.203 -2.883,4.668 -1.375,1.59 -3.457,2.363 -5.426,2.929 -2.258,0.704 -4.488,-0.367 -6.687,-0.789 l -0.231,-0.132" style="fill:none;stroke:#000000;stroke-width:1.20739;stroke-linecap:round;stroke-linejoin:round;stroke-miterlimit:10;stroke-dasharray:none;stroke-opacity:1" id="path2390" />
         </g>
         <g id="g2392" transform="scale(1,-1)" style="stroke-width:0.923303">
            <path d="m 822.41,-653.523 c 3.602,-0.981 7.426,0.101 10.973,-1.012" style="fill:none;stroke:#000000;stroke-width:1.20739;stroke-linecap:round;stroke-linejoin:round;stroke-miterlimit:10;stroke-dasharray:none;stroke-opacity:1" id="path2394" />
         </g>
         <g id="g2396" transform="scale(1,-1)" style="stroke-width:0.923303">
            <path d="m 823.492,-676.922 c 4.696,0.203 9.41,-0.742 14.106,-1.113 1.121,-0.149 2.242,-0.324 3.355,-0.531" style="fill:none;stroke:#000000;stroke-width:1.20739;stroke-linecap:round;stroke-linejoin:round;stroke-miterlimit:10;stroke-dasharray:none;stroke-opacity:1" id="path2398" />
         </g>
         <g id="g2400" transform="scale(1,-1)" style="stroke-width:0.923303">
            <path d="m 830.027,-617.215 c -4.312,-0.371 -1.343,-8.07 -1.832,-11.426 0.192,-4.601 -0.715,-9.168 -0.324,-13.769 -0.156,-3.848 1.656,-5.977 5.754,-4.375" style="fill:none;stroke:#000000;stroke-width:1.20739;stroke-linecap:round;stroke-linejoin:round;stroke-miterlimit:10;stroke-dasharray:none;stroke-opacity:1" id="path2402" />
         </g>
         <g id="g2404" transform="scale(1,-1)" style="stroke-width:0.923303">
            <path d="m 881.699,-395.598 c 0.028,0.278 0.262,0.602 0.067,0.176 0.234,0.176 -0.418,-0.187 0.093,-0.058 -0.097,-0.508 -0.797,-0.434 -1.222,-0.5 -0.157,-0.157 -0.192,0.07 -0.321,-0.04 -0.164,0.473 -0.789,0.438 -0.961,0.954 -0.312,-0.016 0.266,0.453 -0.16,0.668 -0.015,0.347 -0.047,0.882 -0.285,1.257 0.254,0.395 0.465,0.735 0.86,0.996 -0.297,0.141 0.343,0.012 0.406,0.227 0.551,0.309 1.25,0.539 1.789,0.074 -0.457,-0.379 0.496,-0.476 0.558,-0.945 0.02,-0.52 0.465,-0.945 0.387,-1.484 0.145,-0.618 -0.519,-0.821 -0.816,-1.18 -0.418,-0.18 -0.906,-0.383 -1.305,-0.672 -0.559,-0.133 -1.187,-0.141 -1.727,0.059 -0.374,0.308 -0.839,0.718 -0.953,1.277 -0.179,0.519 -0.086,0.848 0.223,1.238 0.16,0.531 0.621,0.875 0.926,1.321 0.398,0.32 0.773,0.742 1.269,0.906 0.45,0.242 0.946,-0.43 1.211,-0.86 0.188,-0.5 0.297,-1.039 0.633,-1.468 0.317,-0.453 0.086,-1.082 -0.289,-1.422 -0.473,-0.293 -0.922,-0.692 -1.473,-0.817 -0.152,-0.019 -0.285,0.055 -0.421,0.106" style="fill:none;stroke:#000000;stroke-width:1.20739;stroke-linecap:round;stroke-linejoin:round;stroke-miterlimit:10;stroke-dasharray:none;stroke-opacity:1" id="path2406" />
         </g>
         <g id="g2408" transform="scale(1,-1)" style="stroke-width:0.923303">
            <path d="m 870.504,-390.691 c 0.84,0.347 -0.125,-1.121 0.297,-1.614 0.011,-1.062 -1,-1.875 -1.031,-3.007 -0.227,-1.29 -0.844,-2.415 -1.043,-3.672 -0.059,-0.899 -0.844,-1.395 -0.973,-2.125 -0.613,-0.313 0.5,-1.739 -0.57,-2.075 0.652,-1.257 -0.25,-2.179 -0.536,-3.312 -0.386,-0.719 -1.027,-1.422 -0.464,-2.012 -0.278,-0.582 0.261,-0.855 -0.231,-0.777 0.391,0.004 -0.176,-0.082 0.113,0.269 0.43,1.207 0.442,2.571 0.125,3.821 -0.168,1.312 -0.836,2.343 -1.531,3.308 -0.269,0.758 -1.254,1.5 -1.617,2.367 -0.43,0.704 -1.164,1.297 -1.867,1.461 -0.543,0.387 -2.071,0.344 -1.879,0.805 -0.942,0.012 -0.16,0.195 -0.313,0.066 0.391,0.836 1.051,1.211 1.125,2.204 0.086,0.589 0.461,0.968 0.586,1.558 0.106,-0.097 1.258,1.012 1.723,1.399 0.609,0.73 1.187,0.191 2.047,0.351 1.347,0.133 2.73,-0.148 4.066,0.305 0.801,-0.141 2.629,1.254 2.492,0.891 -0.238,-0.758 -1.312,-1.368 -2.019,-2.051 -0.902,-0.883 -2.25,-1.653 -2.574,-2.781 0.132,-0.809 0.148,-0.489 -0.09,-0.598 -0.113,0.051 -0.188,-0.172 -0.215,0.098" style="fill:none;stroke:#000000;stroke-width:1.20739;stroke-linecap:round;stroke-linejoin:round;stroke-miterlimit:10;stroke-dasharray:none;stroke-opacity:1" id="path2410" />
         </g>
         <g id="g2412" transform="scale(1,-1)" style="stroke-width:0.923303">
            <path d="m 803.398,-471.395 c -1.097,3.336 5.582,6.004 7.086,9.368 2.977,3.312 6.75,5.965 8.989,9.882 1.132,2.247 2.828,4.375 3.839,6.743" style="fill:none;stroke:#000000;stroke-width:1.20739;stroke-linecap:round;stroke-linejoin:round;stroke-miterlimit:10;stroke-dasharray:none;stroke-opacity:1" id="path2414" />
         </g>
         <g id="g2416" transform="scale(1,-1)" style="stroke-width:0.923303">
            <path d="m 823.43,-444.43 0.004,-0.031 -0.004,-0.094 v -0.152 l -0.125,-0.156 -0.129,-0.125 0.105,-0.172 0.012,-0.098 0.035,0.051 0.012,-0.012 h 0.078 l -0.059,0.02 -0.05,0.011 0.086,-0.003 -0.024,0.011 0.027,0.039 0.008,0.039 0.047,0.036 0.047,0.046 -0.02,0.071 0.036,0.07 0.031,0.027 0.047,0.047 0.047,0.063 0.031,0.078 0.043,0.086 0.055,0.027 0.066,0.043 0.059,0.082 0.054,0.098 0.098,0.078 0.113,0.078 0.07,0.11 0.079,0.085 0.093,0.059 0.078,0.102 0.09,0.074 0.114,0.09 0.082,0.125 0.062,0.109 0.086,0.047 0.066,0.078 0.047,0.082 0.071,0.082 0.082,0.07 0.047,0.067 0.062,0.082 0.063,0.086 0.058,0.09 -0.051,0.066 0.036,0.063 0.113,0.035 0.07,0.105 0.074,0.125 0.078,0.074 0.141,0.051 0.16,0.059 0.035,0.086 0.004,0.062 0.067,0.059 0.047,0.043 0.07,0.043 -0.129,0.047 -0.008,0.054 0.188,-0.066 0.129,0.019 0.082,0.079 0.062,0.035 0.192,0.043 0.152,0.035 -0.027,0.031 0.05,0.035 0.047,0.035 0.024,0.028 0.043,0.023 0.113,0.039 0.07,0.047 -0.023,0.031 0.015,0.016 0.039,0.004 0.016,0.004 0.055,0.027 -0.024,0.031 -0.058,0.024 0.035,-0.004 0.023,0.023 0.024,0.028" style="fill:none;stroke:#000000;stroke-width:1.20739;stroke-linecap:round;stroke-linejoin:round;stroke-miterlimit:10;stroke-dasharray:none;stroke-opacity:1" id="path2418" />
         </g>
         <g id="g2420" transform="scale(1,-1)" style="stroke-width:0.923303">
            <path d="m 827.09,-440.137 c -1.692,-1.402 -6.387,-5.011 -3.969,-0.511 2.168,1.468 -0.141,8.101 3.262,6.777 -0.043,-1 -2.703,-7.567 -0.903,-6.219" style="fill:none;stroke:#000000;stroke-width:1.20739;stroke-linecap:round;stroke-linejoin:round;stroke-miterlimit:10;stroke-dasharray:none;stroke-opacity:1" id="path2422" />
         </g>
         <g id="g2424" transform="scale(1,-1)" style="stroke-width:0.923303">
            <path d="m 824.914,-433.988 c 3.492,-1.785 6.305,4.699 10.195,4.926 0.911,-0.645 2.754,-3.114 1.223,-3.938" style="fill:none;stroke:#000000;stroke-width:1.20739;stroke-linecap:round;stroke-linejoin:round;stroke-miterlimit:10;stroke-dasharray:none;stroke-opacity:1" id="path2426" />
         </g>
         <g id="g2428" transform="scale(1,-1)" style="stroke-width:0.923303">
            <path d="m 837.105,-433.547 c -1.433,-3.004 -6.527,-4.953 -6.546,-7.769 1.5,1.191 5.32,3.195 2.16,0.199 -1.797,-2.606 -3.973,-4.762 -6.379,-6.785 -2.621,-1.707 -4.676,-5.473 -7.367,-6.145" style="fill:none;stroke:#000000;stroke-width:1.20739;stroke-linecap:round;stroke-linejoin:round;stroke-miterlimit:10;stroke-dasharray:none;stroke-opacity:1" id="path2430" />
         </g>
      </g>
   </g>
</svg>
