<?xml version="1.0" encoding="UTF-8" standalone="no"?>
<!-- Created by Ashley Blewer - This work is licensed under a Creative Commons Attribution 4.0 International License -->

<svg width="544" height="480" viewBox="0 0 143.93334 127" version="1.1" id="svg2490" inkscape:version="1.1.2 (08b2f3d93c, 2022-04-05)" sodipodi:docname="1976-type-c-3.svg"
   xmlns:inkscape="http://www.inkscape.org/namespaces/inkscape"
   xmlns:sodipodi="http://sodipodi.sourceforge.net/DTD/sodipodi-0.dtd"
   xmlns="http://www.w3.org/2000/svg"
   xmlns:svg="http://www.w3.org/2000/svg">
   <sodipodi:namedview id="namedview2492" pagecolor="#ffffff" bordercolor="#666666" borderopacity="1.0" inkscape:pageshadow="2" inkscape:pageopacity="0.0" inkscape:pagecheckerboard="0" inkscape:document-units="mm" showgrid="false" units="px" inkscape:zoom="0.90583674" inkscape:cx="272.67607" inkscape:cy="177.18425" inkscape:window-width="1848" inkscape:window-height="1136" inkscape:window-x="72" inkscape:window-y="27" inkscape:window-maximized="1" inkscape:current-layer="layer1" />
   <defs id="defs2487" />
   <g inkscape:label="Layer 1" inkscape:groupmode="layer" id="layer1">
      <g id="g2017" transform="matrix(0.35277777,0,0,0.35277777,-253.41266,-17.362378)">
         <g id="g2160" transform="scale(1,-1)">
            <path d="m 870.664,-72.324 c 77.443,37.294592 178.4403,-8.12218 205.8813,-88.74543 32.0633,-76.9567 7.0486,-176.69416 -64.4672,-222.27287 -58.6213,-34.6885 -139.50195,-24.82924 -187.22211,24.1846 -39.64566,31.13748 -53.80308,83.91315 -54.20232,132.3678 3.48731,42.13004 21.48003,82.74152 46.35809,116.37005 31.43944,31.680394 75.33961,52.23926 120.16424,50.935277" style="fill:none;stroke:#000000;stroke-width:3.92308;stroke-linecap:round;stroke-linejoin:round;stroke-miterlimit:10;stroke-dasharray:none;stroke-opacity:1" id="path2162" sodipodi:nodetypes="ccccccc" />
         </g>
         <g id="g2164" transform="scale(1,-1)">
            <path d="m 871.441,-70.559 c -39.894,-15.711 -73.44756,-45.66533 -91.78849,-87.54791 -19.019,-37.559 -25.76151,-83.72509 -9.69951,-123.91309 6.992,-23.781 20.137,-45.039 36.402,-63.55 13.024,-15.719 29.137,-29.2 48.168,-36.825 2.219,-1.265 4.415,-2.574 6.665,-3.793" style="fill:none;stroke:#000000;stroke-width:3.92308;stroke-linecap:round;stroke-linejoin:round;stroke-miterlimit:10;stroke-dasharray:none;stroke-opacity:1" id="path2166" sodipodi:nodetypes="cccccc" />
         </g>
         <g id="g2168" transform="scale(1,-1)">
            <path d="m 899.371,-160.191 c 0.027,-0.039 -0.055,-0.469 -0.461,-0.895 0.059,-0.394 -2.086,-0.949 -2.535,-1.059 -0.969,0.043 -2.383,0.426 -3.297,1.356 -0.297,0.289 -0.801,0.699 -1.012,1.644 -0.234,1.379 -0.484,2.766 0.219,4.094 0.32,0.879 1.551,1.797 2.727,2.285 1.453,0.696 2.976,0.434 4.39,-0.296 0.231,-0.454 0.977,-0.395 1.008,-1.083 0.399,-0.246 0.856,-1.25 1.047,-2 -0.156,-0.367 0.336,-1 -0.019,-1.75 0.16,-0.285 -1.211,-1.679 -2.086,-1.765 -0.29,-0.266 -1.352,-0.684 -1.403,-0.695" style="fill:none;stroke:#000000;stroke-width:3.92308;stroke-linecap:round;stroke-linejoin:round;stroke-miterlimit:10;stroke-dasharray:none;stroke-opacity:1" id="path2170" />
         </g>
         <g id="g2172" transform="scale(1,-1)">
            <path d="m 980.246,-159.934 c -0.262,0.332 0.414,-0.019 -0.562,0 -0.258,-0.109 -2.204,-0.949 -2.516,-0.375 -1.617,0.36 -3.938,1.332 -4.547,2.75 -0.148,1.383 -0.269,2.633 0.145,4.079 0.578,1.199 1.043,2.214 1.832,2.91 2.257,1.308 4.64,0.91 6.468,-0.371 0.586,-0.704 1.758,-1.524 2.125,-2.125 -0.257,-0.164 0.559,-0.899 0.481,-1.551 0.144,-1.5 -0.465,-2.567 -1.25,-3.61 -1.188,-0.816 -1.445,-1.632 -2.848,-2.109" style="fill:none;stroke:#000000;stroke-width:3.92308;stroke-linecap:round;stroke-linejoin:round;stroke-miterlimit:10;stroke-dasharray:none;stroke-opacity:1" id="path2174" />
         </g>
         <g id="g2176" transform="scale(1,-1)">
            <path d="m 1023.359,-232.332 c -0.047,-0.215 -0.234,-0.098 -0.367,-0.055 -0.68,0.184 -1.664,0.242 -1.769,0.735 -0.977,0.484 -1.735,1.277 -2.532,2.004 -0.433,0.179 -0.871,1.671 -0.847,2.101 -0.453,0.75 -0.219,2.16 0.687,2.965 0.324,0.324 1.5,1.727 2.5,1.863 1.856,0.41 3.512,-0.187 4.949,-1.343 0.918,-1.145 1.797,-3.161 1.852,-5.126 0.094,-0.832 -0.809,-2.496 -2.246,-3.035 -1.719,-0.836 -2.332,-0.961 -3.813,-0.347" style="fill:none;stroke:#000000;stroke-width:3.92308;stroke-linecap:round;stroke-linejoin:round;stroke-miterlimit:10;stroke-dasharray:none;stroke-opacity:1" id="path2178" />
         </g>
         <g id="g2180" transform="scale(1,-1)">
            <path d="m 992.133,-307.258 c -1.051,0.406 -0.207,-0.172 -1.336,-0.183 -1.129,-0.204 -1.617,0.136 -2.52,0.312 -1.418,0.281 -2.457,1.535 -3.043,2.231 -1.07,0.82 -0.57,2.117 -0.132,3.086 0.257,1.074 1.878,2.355 3.011,2.808 2.164,1.027 4.973,0.32 6.297,-1.531 2.528,-0.777 1.57,-4.317 -0.367,-5.348 -0.988,-0.922 -1.777,-1.074 -3.086,-1.469 0.094,-0.113 -0.019,-0.062 -0.125,-0.023" style="fill:none;stroke:#000000;stroke-width:3.92308;stroke-linecap:round;stroke-linejoin:round;stroke-miterlimit:10;stroke-dasharray:none;stroke-opacity:1" id="path2182" />
         </g>
         <g id="g2184" transform="scale(1,-1)">
            <path d="m 909.578,-318.562 c -0.433,0.609 -0.898,-0.844 -2.051,-0.528 -1.097,0.004 -3.707,0.879 -4.101,2.406 -0.461,0.704 -0.891,1.266 -0.735,2.372 0.586,1.335 1.102,2.023 1.891,3.179 1.262,1.071 3.023,1.934 4.453,1.629 1.988,-0.41 3.692,-2.008 4.653,-3.312 -0.036,-0.45 0.41,-1.864 -0.145,-2.661 -1.039,-2.035 -3.652,-3.429 -5.984,-2.675" style="fill:none;stroke:#000000;stroke-width:3.92308;stroke-linecap:round;stroke-linejoin:round;stroke-miterlimit:10;stroke-dasharray:none;stroke-opacity:1" id="path2186" />
         </g>
         <g id="g2188" transform="scale(1,-1)">
            <path d="m 860.02,-244.816 c -0.25,-0.243 -0.262,-0.067 -1.18,0.004 -2.328,0.531 -3.953,1.304 -4.93,3.351 -0.914,1.301 -0.777,2.887 -0.57,4.227 1.953,3.359 7.422,2.918 10.121,1.058 1.894,-1.355 2.285,-4.531 -0.098,-5.804 -2.144,-1.153 -5.5,-2.125 -7.437,-0.997" style="fill:none;stroke:#000000;stroke-width:3.92308;stroke-linecap:round;stroke-linejoin:round;stroke-miterlimit:10;stroke-dasharray:none;stroke-opacity:1" id="path2190" />
         </g>
         <g id="g2192" transform="scale(1,-1)">
            <path d="m 875.875,-196.852 c 5.551,19.485 31.797,37.024 50.617,39.317 22.758,0.285 50.215,-1.942 64.434,-22.418 17.691,-20.32 24.086,-49.223 18.019,-75.301 -5.179,-17.918 -17.476,-33.894 -32.59,-44.558 -14.324,-6.829 -29.675,-13.942 -45.957,-10.993 -18.398,3.582 -34.406,16.192 -46.457,30.117 -17.062,23.973 -19.48,56.903 -8.066,83.836 1.418,5.692 10.055,20.309 15.992,22.133" style="fill:none;stroke:#000000;stroke-width:3.92308;stroke-linecap:round;stroke-linejoin:round;stroke-miterlimit:10;stroke-dasharray:none;stroke-opacity:1" id="path2194" />
         </g>
         <g id="g2196" transform="scale(1,-1)">
            <path d="m 888.082,-198.703 c -1.148,1.824 -9.789,3.418 -11.035,-2.547 -1.211,-3.973 3.691,-7.559 6.211,-8.074 -0.778,-5.098 -1.442,-10.227 -2.555,-15.328 -1.73,-5.969 -0.762,-12.141 -0.949,-18.254 1.789,-8.387 3.398,-17.36 8.617,-24.371 3.965,-5.098 6.121,-11.278 11.434,-15.325 5.156,-4.984 12.336,-7.296 18.855,-10.027 7.988,-3.129 17.129,-2.746 25.117,-4.555 0.239,-2.98 2.282,-6.035 5.086,-7.921 4.602,-2.254 8.395,2.445 5.746,5.937 -1.214,1.109 -0.511,1.066 -0.039,0.344 0.336,-0.414 1.223,-1.52 1.828,-1.074 5.075,4.886 12.04,7.578 16.344,13.328 4.891,5.375 8.973,11.508 14.793,16.011 4.711,4.36 5.688,11.457 9.039,16.586 1.824,4.176 3.492,8.676 3.676,13.239 0.16,4.879 1.238,9.781 0.141,14.757 -0.829,5.68 -0.977,11.567 -2.5,17.118 -0.883,3.523 -3.098,7.343 -4.024,9.629 0.461,1.261 0.836,6.792 -2.023,8.875 -5.633,0.609 -8.93,-1.95 -12.633,3.824 -8.086,4.738 -15.457,11.015 -24.375,14.281 -8.219,2.523 -16.914,1.738 -25.336,0.988 -6.809,-1.304 -13.484,-3.187 -19.223,-7.215 -5.566,-2.718 -10.054,-6.949 -13.644,-11.91 -2.067,-3.32 -7.145,-8.414 -6.516,-11.449" style="fill:none;stroke:#000000;stroke-width:3.92308;stroke-linecap:round;stroke-linejoin:round;stroke-miterlimit:10;stroke-dasharray:none;stroke-opacity:1" id="path2198" />
         </g>
         <g id="g2200" transform="scale(1,-1)">
            <path d="m 917.43,-177.32 c 5.031,2.55 10.625,4.812 16.476,3.566 6.399,-0.609 12.754,-1.93 18.289,-5.379 6.211,-3.238 12.352,-9.398 16.555,-13.578 3.551,1.856 12.773,-0.344 9.055,-6.336 -2.45,-2.941 -5.379,-3.242 -2.02,-7.312 3.262,-5.793 4.141,-12.305 4.938,-18.883 1.007,-6.11 1.476,-11.809 -0.035,-17.664 -0.34,-5.262 -2.836,-10.41 -4.84,-15.332 -2.629,-5.61 -6.082,-10.985 -9.594,-16.196 -3.652,-3.703 -7.477,-7.246 -11.66,-10.285 -6.871,-3.781 -14.219,-6.504 -21.617,-8.808 -6.508,-1.489 -12.868,1.207 -19.012,2.937 l -0.008,-0.144 -0.086,0.109" style="fill:none;stroke:#000000;stroke-width:3.92308;stroke-linecap:round;stroke-linejoin:round;stroke-miterlimit:10;stroke-dasharray:none;stroke-opacity:1" id="path2202" />
         </g>
         <g id="g2204" transform="scale(1,-1)">
            <path d="m 970.199,-330.141 c 0.863,-2.3 2.309,-5.437 3.496,-8.07 1.203,-3.809 1.907,-7.742 3.207,-11.547 1.258,-2.765 1.637,-5.914 2.5,-8.851 0.633,-2.079 0.618,-4.563 1.637,-6.637 0.18,-2.09 0.149,-4.051 0.227,-6.149 0.238,-1.543 -1.59,-2.543 -3.215,-2.953 -3.375,-1.242 -6.824,-2.347 -10.391,-2.824 -3.234,-0.894 -6.48,-1.672 -9.797,-2.183 -3.203,-0.262 -6.297,-1.075 -9.437,-1.723 -3.156,-0.309 -6.297,-0.742 -9.395,-1.438 -3.437,-0.304 -6.906,-0.73 -10.367,-0.906 -1.656,-0.293 -4.789,-0.027 -4.969,1.551 -0.789,1.664 0.039,3.848 -0.496,5.371 -0.289,2.281 -0.742,4.852 -0.414,7.227 0.555,3.222 0.262,6.132 0.695,9.378 0.305,3.747 1.098,7.442 1.887,11.165 0.91,2.714 1.293,5.703 2.613,8.281 1.114,2.129 3.106,4.191 5.024,5 2.75,0.035 5.699,-0.41 8.504,0.191 3.683,0.192 7.152,1.305 10.668,2.281 3.941,0.098 7.273,2.559 11.14,3.082 1.661,0.801 3.575,0.731 4.903,1.614" style="fill:none;stroke:#000000;stroke-width:3.92308;stroke-linecap:round;stroke-linejoin:round;stroke-miterlimit:10;stroke-dasharray:none;stroke-opacity:1" id="path2206" />
         </g>
         <g id="g2208" transform="scale(1,-1)">
            <path d="m 904.383,-88.539 c -0.56304,1.696854 -0.80798,4.86883 -3.77475,3.987357 -2.80175,-0.0031 -5.60459,-0.655461 -8.28458,-1.302033 -0.1975,-2.320829 -0.0857,-4.797215 0.39933,-7.115324 -0.68521,-3.290822 3.90492,-3.267918 5.38043,-5.406588 1.71736,-1.377369 5.85491,-4.783552 0.98294,-4.270912 -2.21004,0.0271 -4.20957,0.56153 -5.14918,2.27338 -3.23357,-0.46798 -2.57907,-7.1767 1.1738,-5.96252 2.88054,0.0687 5.77958,0.0102 8.64822,0.26704 3.04633,1.6194 1.03641,6.04313 1.17243,8.798768 -1.33252,2.917053 -5.35337,3.100022 -7.43677,5.406582 -4.23596,2.293412 2.76969,6.269186 3.05418,1.774518 1.20879,-2.407904 4.55664,0.704483 2.6447,2.843623 -0.21666,0.732296 -0.44316,2.316815 -1.49475,2.100109" style="fill:none;stroke:#000000;stroke-width:1.30769;stroke-linecap:round;stroke-linejoin:round;stroke-miterlimit:10;stroke-dasharray:none;stroke-opacity:1" id="path2210" />
         </g>
         <g id="g2212" transform="scale(1,-1)">
            <path d="m 918.035,-93.727 c 0.94625,2.92279 -2.92274,4.121357 -5.10984,3.192993 -2.26482,0.197792 -4.74236,-0.491522 -3.92943,-3.282116 -0.20405,-3.712538 0.26319,-7.415207 0.75427,-11.089877 1.94356,-2.46139 6.19244,-2.73956 8.82616,-1.18292 1.14587,1.84461 -1.19219,6.162131 -3.40666,3.48367 -3.89132,-0.59308 -2.80373,5.591381 -2.68344,8.043818 0.68856,2.818752 5.87238,-1.833481 5.28353,1.673619 l -0.21577,0.223344 -0.29582,0.137469" style="fill:none;stroke:#000000;stroke-width:1.30769;stroke-linecap:round;stroke-linejoin:round;stroke-miterlimit:10;stroke-dasharray:none;stroke-opacity:1" id="path2214" />
         </g>
         <g id="g2216" transform="scale(1,-1)">
            <path d="m 922.613,-90.422 c 1.83259,-0.117196 4.61122,0.732894 6.87898,0.111781 1.65856,-0.624526 2.23558,-3.007125 2.49915,-4.851797 0.458,-2.547761 0.79479,-4.948174 1.08962,-7.582604 0.33639,-1.70983 -0.25548,-3.95866 -3.07275,-3.08738 -2.12829,0.65418 -6.13713,-0.17082 -6.72389,2.15338 -0.2257,2.31226 -0.6423,4.608421 -1.07961,7.091495 0.0428,1.677833 -0.98509,4.903458 0.2365,5.622125" style="fill:none;stroke:#000000;stroke-width:1.30769;stroke-linecap:round;stroke-linejoin:round;stroke-miterlimit:10;stroke-dasharray:none;stroke-opacity:1" id="path2218" />
         </g>
         <g id="g2220" transform="scale(1,-1)">
            <path d="m 925.043,-95.086 c 1.06663,3.326137 5.69511,0.197756 4.47359,-2.673856 0.0131,-2.091051 0.81681,-5.690604 -2.65351,-4.373294 -2.14203,1.6479 -1.05451,5.59164 -0.77158,7.980275 l -0.007,0.543047 0.006,0.547828" style="fill:none;stroke:#000000;stroke-width:1.30769;stroke-linecap:round;stroke-linejoin:round;stroke-miterlimit:10;stroke-dasharray:none;stroke-opacity:1" id="path2222" />
         </g>
         <g id="g2224" transform="scale(1,-1)">
            <path d="m 935.488,-89.996 c 1.34298,1.635252 -0.24045,7.493026 3.55648,5.077516 2.19126,-1.274055 0.17875,-4.742383 3.69402,-4.556266 2.88775,-1.574824 -0.285,-3.288989 -2.12336,-3.374951 0.0513,-3.17176 -0.0898,-6.379006 0.47111,-9.513299 0.33642,-1.01291 4.45495,-0.95891 2.72296,-2.6777 -3.4642,-1.29921 -6.08164,1.44683 -5.29417,4.83244 -0.28891,3.021239 -1.08085,5.979305 -1.48092,8.96051 -0.99871,0.958421 -2.90516,-0.127964 -0.93212,2.28675" style="fill:none;stroke:#000000;stroke-width:1.30769;stroke-linecap:round;stroke-linejoin:round;stroke-miterlimit:10;stroke-dasharray:none;stroke-opacity:1" id="path2226" />
         </g>
         <g id="g2228" transform="scale(1,-1)">
            <path d="m 956.668,-92.926 c 1.32071,2.19128 -2.37383,5.314014 -4.99708,3.771028 -2.18677,-0.15077 -5.26051,-0.419116 -3.97992,-3.509028 0.26418,-2.704498 -0.0625,-5.452576 0.6455,-8.11315 -0.9308,-3.81537 3.18257,-4.823 6.15131,-4.55415 1.92998,-0.11995 5.42684,0.19314 3.17133,2.81533 -0.22024,2.995314 -2.33698,2.24055 -3.83502,0.62485 -3.84087,-0.15829 -3.12217,4.789277 -3.48112,7.404745 -0.18582,3.585614 4.55396,3.453304 5.97233,1.013504 0.25993,-0.191198 0.59357,-0.01839 0.86067,-0.125129" style="fill:none;stroke:#000000;stroke-width:1.30769;stroke-linecap:round;stroke-linejoin:round;stroke-miterlimit:10;stroke-dasharray:none;stroke-opacity:1" id="path2230" />
         </g>
         <g id="g2232" transform="scale(1,-1)">
            <path d="m 958.461,-84.465 c 2.84097,0.537407 6.14044,-0.856332 5.03041,-4.247812 2.37059,-0.309541 6.09559,-0.662425 7.19409,-3.916204 1.54294,-2.390226 1.54815,-5.470359 1.98078,-8.232074 0.23733,-2.47958 -0.0904,-5.53396 -3.38528,-3.91591 -3.02002,0.039 -1.34746,2.70736 -0.0805,3.8055 0.69431,2.854286 -1.39893,5.542846 -2.40019,7.932461 -3.03241,2.653051 -3.62973,-2.200453 -2.61771,-4.273698 -0.10545,-2.593207 1.31462,-5.916333 -0.14619,-7.986923 -4.7199,-1.03432 -2.77397,5.06818 -3.25757,7.79509 0.1439,3.630969 -1.4516,7.048966 -1.45112,10.652306 -0.26652,0.798562 0.33358,2.016702 -0.38972,2.602264" style="fill:none;stroke:#000000;stroke-width:1.30769;stroke-linecap:round;stroke-linejoin:round;stroke-miterlimit:10;stroke-dasharray:none;stroke-opacity:1" id="path2234" />
         </g>
         <g id="g2236" transform="scale(1,-1)">
            <path d="m 892.328,-111.398 c -0.56966,0.11449 1.7651,0.0185 2.83712,0.23543 1.7256,0.1023 3.41416,0.59685 5.14691,0.94889 2.00567,0.29887 4.02128,0.37357 6.03571,0.52887 1.82255,0.38039 3.74603,0.35628 5.62151,0.49029 0.85755,0.17589 2.89952,-0.3579 2.15572,-0.21155 0.93367,-1.07138 0.75226,-2.35297 0.91236,-3.80467 0.14808,-1.8655 1.44938,-3.32272 1.25954,-5.10859 0.57743,-1.82436 0.42141,-3.57387 0.50134,-5.42716 -0.22863,-1.93691 -0.0907,-3.8067 0.37604,-5.43705 -0.13402,-1.19353 -0.57472,-2.50126 -0.20865,-3.68577 0.27504,-0.80616 0.10291,-1.00799 -0.87066,-1.51761 -2.06711,-0.50162 -4.20527,-0.31578 -6.27498,-0.14585 -2.41161,0.11342 -4.84939,-0.0869 -7.2724,-0.0928 -1.87815,0.14131 -3.73144,-0.1827 -5.58811,0.0344 -0.99307,0.236 -3.52312,0.20942 -2.95109,0.18144 -0.074,-0.57244 0.20949,2.26243 0.0769,3.45064 -0.0519,1.79372 0.25436,3.5677 -0.75321,5.09574 0.15954,2.04025 -1.15052,3.94833 -0.48718,6.00154 0.58104,1.59152 0.026,2.90535 0.32672,4.56269 0.36135,0.588 -0.0633,0.93919 0.24614,1.25992" style="fill:none;stroke:#000000;stroke-width:1.30769;stroke-linecap:round;stroke-linejoin:round;stroke-miterlimit:10;stroke-dasharray:none;stroke-opacity:1" id="path2238" />
         </g>
         <g id="g2240" transform="scale(1,-1)">
            <path d="m 898.867,-113.039 c 0.47792,1.08003 -1.15082,-1.5882 -1.45946,-2.49674 -0.98461,-0.64313 -1.21986,-2.30394 -2.41927,-2.50796 1.38878,0.84798 0.96746,3.00522 2.43527,3.9271 0.27393,0.90464 0.78965,1.55399 -0.2657,0.75307 -0.65268,-0.72839 -3.06292,-2.68286 -1.75932,-0.7226 0.52341,0.60521 0.87723,2.22882 0.10517,1.41121 -1.06577,0.075 -1.18754,-1.24765 -1.58908,-0.77207 0.31825,0.0807 0.46208,-0.26411 0.65134,0.20097" style="fill:none;stroke:#000000;stroke-width:1.30769;stroke-linecap:round;stroke-linejoin:round;stroke-miterlimit:10;stroke-dasharray:none;stroke-opacity:1" id="path2242" />
         </g>
         <g id="g2244" transform="scale(1,-1)">
            <path d="m 911.266,-111.621 c 0.14307,-0.1412 -1.3456,-1.95902 -2.08342,-2.80675 -1.34254,-1.48957 -2.67347,-3.01496 -3.74734,-4.76723 -0.93886,-1.16213 -1.91027,-2.31978 -2.60645,-3.63694 -0.9627,-1.39809 -1.80651,-2.54015 -2.78281,-3.74371 -0.61328,-0.56626 -1.95173,-1.74086 -1.01107,-0.46138 1.25111,1.20857 2.03128,2.91846 3.51077,4.03019 1.36593,1.40706 2.50959,3.04531 3.81339,4.53299 1.28625,1.30797 1.90678,3.09342 3.49045,4.14667 0.75024,0.53536 2.1226,1.03768 1.0845,0.15916 -0.83612,-1.49839 -2.07851,-2.60968 -3.18631,-3.91669 -1.28897,-1.26311 -1.88393,-2.9798 -3.1634,-4.19007 -1.25157,-1.44957 -2.32832,-3.02484 -3.67447,-4.38108 -0.44514,-0.64517 -1.88096,-2.65823 -1.74294,-2.43781 1.3428,1.20678 2.90038,2.20191 4.3274,3.3972 1.75798,1.57566 3.33289,3.38293 4.70074,5.31047 0.93421,1.49303 2.17089,2.82842 3.54698,3.83898 0.46877,0.7176 1.73317,1.13781 0.75917,0.21405 -0.63372,-1.4766 -2.09552,-2.23186 -2.9663,-3.5255 -1.58024,-2.20754 -3.63891,-3.99727 -5.42088,-6.02076 -1.13854,-1.19625 -2.54407,-2.17196 -3.69934,-3.38781 -0.46108,-0.73179 -1.10427,-1.48253 -0.14567,-0.65681 1.11312,1.23439 2.73181,2.18611 3.84518,3.51249 0.86694,1.34551 2.30289,2.1744 3.22325,3.48326 1.03721,1.54328 2.22114,3.02647 3.44307,4.45283 0.59882,1.00998 2.22124,1.47628 1.23773,-2.6e-4 -0.59204,-1.82191 -2.21743,-2.91442 -3.45617,-4.27249 -1.39459,-1.0583 -2.37553,-2.59355 -3.92104,-3.4768 -0.47539,-0.82496 -2.20338,-1.41314 -1.789,-2.5332" style="fill:none;stroke:#000000;stroke-width:1.30769;stroke-linecap:round;stroke-linejoin:round;stroke-miterlimit:10;stroke-dasharray:none;stroke-opacity:1" id="path2246" />
         </g>
         <g id="g2248" transform="scale(1,-1)">
            <path d="m 915.219,-129.141 c 0.29824,1.27288 -1.46934,-1.05713 -1.73116,-1.53914 -0.25283,-0.9186 -2.32106,-2.83229 -2.30262,-2.51061 1.00745,-0.003 2.29695,1.17486 3.20319,1.90988 1.01298,0.3066 2.20875,2.37433 1.26837,0.68217 -0.65446,-0.90583 -1.69269,-2.12182 -2.39229,-2.63513 0.46392,0.52072 1.98374,2.11189 3.33049,2.41461 0.0409,-0.92841 -1.55587,-2.75519 -2.84805,-3.34664 0.18857,0.46163 3.0698,1.38196 2.88691,0.63662 -0.45049,-0.44479 -1.01706,-1.22488 -1.84884,-0.80672" style="fill:none;stroke:#000000;stroke-width:1.30769;stroke-linecap:round;stroke-linejoin:round;stroke-miterlimit:10;stroke-dasharray:none;stroke-opacity:1" id="path2250" />
         </g>
         <g id="g2252" transform="scale(1,-1)">
            <path d="m 920.062,-113.438 c 6.395,1.602 13.051,0.747 19.567,1.208 9.781,0.269 19.504,1.527 29.273,1.937 1.762,-0.316 6.657,0.852 6.711,0.043" style="fill:none;stroke:#000000;stroke-width:1.30769;stroke-linecap:round;stroke-linejoin:round;stroke-miterlimit:10;stroke-dasharray:none;stroke-opacity:1" id="path2254" />
         </g>
         <g id="g2256" transform="scale(1,-1)">
            <path d="m 930.488,-119.535 c 8.235,1.555 16.684,1.105 24.969,2.293 0.793,0.125 4.664,0.324 4.063,0.012" style="fill:none;stroke:#000000;stroke-width:1.30769;stroke-linecap:round;stroke-linejoin:round;stroke-miterlimit:10;stroke-dasharray:none;stroke-opacity:1" id="path2258" />
         </g>
         <g id="g2260" transform="scale(1,-1)">
            <path d="m 921.156,-125.938 c 14.121,2.102 28.399,2.684 42.633,3.571 3.981,0.082 7.949,0.734 11.914,0.711 l -0.183,-0.059 -0.094,-0.125" style="fill:none;stroke:#000000;stroke-width:1.30769;stroke-linecap:round;stroke-linejoin:round;stroke-miterlimit:10;stroke-dasharray:none;stroke-opacity:1" id="path2262" />
         </g>
         <g id="g2264" transform="scale(1,-1)">
            <path d="m 932.5,-133.742 c 3.352,1.304 7.211,0.629 10.773,1.094 5.282,0.336 10.481,1.433 15.762,1.691 l -0.375,-0.078 -0.902,-0.156" style="fill:none;stroke:#000000;stroke-width:1.30769;stroke-linecap:round;stroke-linejoin:round;stroke-miterlimit:10;stroke-dasharray:none;stroke-opacity:1" id="path2266" />
         </g>
      </g>
   </g>
</svg>
