<?xml version="1.0" encoding="UTF-8" standalone="no"?>
<!-- Created by Ashley Blewer - This work is licensed under a Creative Commons Attribution 4.0 International License -->

<svg width="544" height="480" viewBox="0 0 143.93334 127" version="1.1" id="svg2490" inkscape:version="1.1.2 (08b2f3d93c, 2022-04-05)" sodipodi:docname="1976-vhs-4.svg"
   xmlns:inkscape="http://www.inkscape.org/namespaces/inkscape"
   xmlns:sodipodi="http://sodipodi.sourceforge.net/DTD/sodipodi-0.dtd"
   xmlns="http://www.w3.org/2000/svg"
   xmlns:svg="http://www.w3.org/2000/svg">
   <sodipodi:namedview id="namedview2492" pagecolor="#ffffff" bordercolor="#666666" borderopacity="1.0" inkscape:pageshadow="2" inkscape:pageopacity="0.0" inkscape:pagecheckerboard="0" inkscape:document-units="mm" showgrid="false" units="px" inkscape:zoom="0.90583674" inkscape:cx="272.67607" inkscape:cy="177.18425" inkscape:window-width="1848" inkscape:window-height="1136" inkscape:window-x="72" inkscape:window-y="27" inkscape:window-maximized="1" inkscape:current-layer="layer1" />
   <defs id="defs2487" />
   <g inkscape:label="Layer 1" inkscape:groupmode="layer" id="layer1">
      <g id="g8738" transform="matrix(0.42944303,0,0,0.42940581,-284.56751,-201.0287)" style="stroke-width:1.10003">
         <g id="g1694" transform="scale(1,-1)" style="stroke-width:1.10003">
            <path d="m 719.383,-674.719 c -0.567,-0.02 -1.703,1.836 -2.047,3.047 -0.742,2.59 -1.797,5.223 -1.852,8.297 -0.871,3.379 -1.168,6.707 -2.324,10.051 -0.371,2.582 -2.019,5.672 -2.504,8.437 -1.965,5.235 -3.301,10.504 -4.531,16.063 -0.66,2.133 -1.785,5.027 -2.469,7.359 -1.406,3.192 -2.109,6.75 -2.816,10.067 -0.778,1.429 -1.004,4.148 -1.746,5.847 -0.297,1.395 -1.254,3.117 -0.996,4.961 -0.211,1.488 -0.036,2.172 0.015,1.86 0.028,0.332 0.996,-3.395 0.727,-3.125 0.137,0.113 -0.031,0.043 0.062,0.156 0.848,1.172 0.754,0.812 0.598,1.179 -0.387,2.555 -0.531,4.836 -1.047,7.239 -0.613,2.738 -1.094,6.176 -1.707,9.207 -0.715,2.347 -0.984,5.515 -1.93,7.84 -0.964,2.726 -1.171,5.386 -1.781,8.332 -0.215,1.906 -0.805,4.394 -0.949,5.914 -0.707,2.949 -1.047,5.961 -1.938,8.883 0.282,0.039 -0.851,1.878 -0.753,1.203" style="fill:none;stroke:#000000;stroke-width:2.877;stroke-linecap:round;stroke-linejoin:round;stroke-miterlimit:10;stroke-dasharray:none;stroke-opacity:1" id="path1696" sodipodi:nodetypes="ccccccccccccccccccccc" />
         </g>
         <g id="g1698" transform="scale(1,-1)" style="stroke-width:1.10003">
            <path d="m 697.68,-602.023 c -0.422,2.746 -1.18,4.761 -1.711,7.769 -1.25,3.406 -2.082,7.781 -2.864,11.188 -0.425,3.933 -1.511,8 -2.074,11.871 -0.562,4.281 -1.84,8.609 -3.039,12.539 -0.719,2.734 -1.887,5.375 -2.289,8.312 -1.105,3.926 -1.484,8.192 -2.125,12.203 -0.133,0.926 -0.793,3.336 -0.398,3.071" style="fill:none;stroke:#000000;stroke-width:2.877;stroke-linecap:round;stroke-linejoin:round;stroke-miterlimit:10;stroke-dasharray:none;stroke-opacity:1" id="path1700" />
         </g>
         <g id="g1702" transform="scale(1,-1)" style="stroke-width:1.10003">
            <path d="m 682.801,-534.66 c -0.989,-0.211 1.488,0.746 2.273,1.297 2.188,0.539 5.504,1.551 6.926,1.59 0.098,0.062 0.363,-2.254 0.41,-3.067 0.074,-0.98 0.524,-1.758 0.449,-1.953 0.043,0.152 0.246,-0.684 0.036,-0.285 l -0.024,0.012" style="fill:none;stroke:#000000;stroke-width:2.877;stroke-linecap:round;stroke-linejoin:round;stroke-miterlimit:10;stroke-dasharray:none;stroke-opacity:1" id="path1704" />
         </g>
         <g id="g1706" transform="scale(1,-1)" style="stroke-width:1.10003">
            <path d="m 689.359,-540.531 c -0.062,1.898 0.524,-1.297 0.625,-2.223 0.375,-3.48 1.786,-6.57 2.399,-9.902 0.066,-0.43 0.347,0.238 -0.633,-0.992 0.004,0.027 0.121,0.242 0.137,0.253" style="fill:none;stroke:#000000;stroke-width:2.877;stroke-linecap:round;stroke-linejoin:round;stroke-miterlimit:10;stroke-dasharray:none;stroke-opacity:1" id="path1708" />
         </g>
         <g id="g1710" transform="scale(1,-1)" style="stroke-width:1.10003">
            <path d="m 692.895,-537.078 c -0.246,-1.156 2.945,0.738 4.031,0.262 3.969,0.781 8.617,0.351 12.058,1.398 0.207,0.012 1.61,0.969 1.028,0.875 -0.395,1.598 -1.578,6.035 -1.481,5.859 -0.16,-0.035 0.25,-0.121 0.25,-0.199" style="fill:none;stroke:#000000;stroke-width:2.877;stroke-linecap:round;stroke-linejoin:round;stroke-miterlimit:10;stroke-dasharray:none;stroke-opacity:1" id="path1712" sodipodi:nodetypes="cccccc" />
         </g>
         <g id="g1714" transform="scale(1,-1)" style="stroke-width:1.10003">
            <path d="m 709.691,-528.551 104.204,19.512 c 0.285,-0.223 1.371,-0.129 1.675,-0.313 0.664,-0.086 1.121,-0.242 1.856,-0.468 -0.063,-0.008 1.332,-0.766 1.308,-0.883 0.727,-0.324 0.84,-1.735 0.598,-1.629 0.141,0.055 -0.059,-0.07 1.25,0.379 0.766,0.195 2.008,0.566 1.91,0.394 0.235,0.071 0.313,0.606 -0.219,1.747 -0.769,0.453 -0.253,1.937 -0.343,1.523 0.246,0.062 -0.055,-0.039 0.004,-0.066" style="fill:none;stroke:#000000;stroke-width:2.877;stroke-linecap:round;stroke-linejoin:round;stroke-miterlimit:10;stroke-dasharray:none;stroke-opacity:1" id="path1716" sodipodi:nodetypes="ccccccccccc" />
         </g>
         <g id="g1718" transform="scale(1,-1)" style="stroke-width:1.10003">
            <path d="m 823.23,-508.652 c 5.03361,1.16831 10.23172,2.15134 15.35541,3.11027 7.11995,0.14548 13.9643,2.32735 20.98667,3.21942 6.58412,1.5063 13.41748,1.29328 19.93412,3.16281 10.5119,2.54754 21.295,3.58254 31.86307,5.831 6.65891,1.20597 13.22244,2.87901 19.86873,4.14038 -0.92494,-2.63691 -0.28988,-5.81934 3.37653,-3.94352 3.9035,-0.145 -2.11057,8.3249 3.45483,5.73843 3.60061,-0.95804 5.50205,-3.67088 3.13077,-6.93066 0.66278,-2.1573 1.23149,-7.94288 4.06187,-7.71113" style="fill:none;stroke:#000000;stroke-width:2.877;stroke-linecap:round;stroke-linejoin:round;stroke-miterlimit:10;stroke-dasharray:none;stroke-opacity:1" id="path1720" />
         </g>
         <g id="g1722" transform="scale(1,-1)" style="stroke-width:1.10003">
            <path d="m 953.086,-517.023 c 0.469,-0.543 -4.547,10.011 -4.277,11.308 -0.907,3.43 -4.036,2.113 -6.266,1.203 -1.125,-0.48 -3.102,-0.3 -3.656,-0.894 -0.438,-0.262 -1.383,-1.84 -1.754,-1.824 0.199,0.085 -0.039,-0.165 -0.129,0.089 -2.227,0.934 -4.965,-0.519 -7.199,-0.925 -4.852,-0.946 -9.407,-1.868 -14.243,-2.754 -1.656,-0.438 -4.312,-0.782 -6.007,-1.262 -3.18,-0.34 -5.934,-1.059 -8.969,-1.879 -1.016,0.035 -2.844,-0.375 -2.684,-0.242 -0.937,0.113 -0.363,-0.067 -0.847,0.32 -0.395,0.707 -0.051,1.406 -1.309,1.715 -1.808,-0.137 -4.519,-1.449 -7.16,-1.797 -2.746,-0.672 -5.688,-0.953 -7.699,-1.539 -1.957,-0.562 -4.285,-0.762 -6.664,-1.32 -2.805,-0.731 -4.422,-1 -7.016,-1.66 -1.742,-0.239 -3.043,-0.133 -4.637,-0.426 -1.558,-0.25 -3.695,-1.098 -5.285,-1.469 0.387,0.067 -0.082,0.035 -0.152,-0.031 -1.188,-0.082 -0.332,-0.07 -0.512,-0.11 -0.008,-0.035 0.008,0.094 -0.039,-0.132 -0.152,-1.66 0.043,-0.973 -0.094,-1.098 0.129,0.035 0.074,0.012 -0.015,-0.023" style="fill:none;stroke:#000000;stroke-width:2.877;stroke-linecap:round;stroke-linejoin:round;stroke-miterlimit:10;stroke-dasharray:none;stroke-opacity:1" id="path1724" sodipodi:nodetypes="cccccccccccccccccccccccc" />
         </g>
         <g id="g1726" transform="scale(1,-1)" style="stroke-width:1.10003">
            <path d="m 858.641,-520.848 c 3.394,0.289 7.714,2.407 11.75,2.809 4.257,0.992 8.707,2.191 12.769,3.16 2.965,0.402 6.211,0.746 8.512,1.133 1.848,0.273 5.211,1.273 4.656,1.094 -0.226,-0.258 -2.512,-1.653 -3.781,-1.996 -2.574,-0.997 -5.172,-0.997 -7.57,-1.766 -3.735,-0.293 -6.969,-1.484 -10.657,-1.957 -3.273,-0.481 -6.867,-1.395 -10.351,-1.453 -2.258,-0.285 -4.317,-0.149 -6.645,-0.754 -1.715,-0.262 -3.586,-0.86 -4.347,-1.152" style="fill:none;stroke:#000000;stroke-width:2.877;stroke-linecap:round;stroke-linejoin:round;stroke-miterlimit:10;stroke-dasharray:none;stroke-opacity:1" id="path1728" />
         </g>
         <g id="g1730" transform="scale(1,-1)" style="stroke-width:1.10003">
            <path d="m 691.746,-549.062 c 16.1591,3.43468 32.61016,5.16454 48.82054,8.40204 6.23688,2.09096 11.58275,-0.97568 11.95298,2.24637 32.86263,5.69256 65.47425,13.18512 98.74618,16.26969 2.23987,0.33467 4.51302,0.72962 6.7813,0.3239" style="fill:none;stroke:#000000;stroke-width:2.877;stroke-linecap:round;stroke-linejoin:round;stroke-miterlimit:10;stroke-dasharray:none;stroke-opacity:1" id="path1732" />
         </g>
         <g id="g1734" transform="scale(1,-1)" style="stroke-width:1.10003">
            <path d="m 783.82,-534.488 c -0.101,-0.504 0.098,-0.059 0.125,0.043 -0.168,0.75 0.004,1.293 1.508,1.629 4.442,1.878 10.813,2.097 16.129,3.394 3.898,0.41 9.613,1.977 12.41,1.938 1.578,-0.196 2.543,0.285 2.86,-0.086 0.683,-0.172 0.398,-0.317 0.238,-0.352" style="fill:none;stroke:#000000;stroke-width:2.877;stroke-linecap:round;stroke-linejoin:round;stroke-miterlimit:10;stroke-dasharray:none;stroke-opacity:1" id="path1736" />
         </g>
         <g id="g1738" transform="scale(1,-1)" style="stroke-width:1.10003">
            <path d="m 720.328,-545.13009 c 0.99779,0.35839 -0.43336,-3.04265 0.10789,-3.57222 0.11396,-2.11088 1.53388,-3.93129 1.54411,-6.06369 0.96097,-1.41561 0.80036,-3.27106 1.72912,-4.69713 0.32698,-1.31991 0.56091,-2.66586 1.15594,-3.90589 0.49613,-1.61713 0.52438,-3.35484 1.24183,-4.91092 0.40478,-1.3994 0.59858,-2.86836 0.60548,-4.27564 0.003,-1.04148 0.57332,-2.24398 -0.20774,-3.24669 -1.4191,-1.03249 -3.27558,-1.11618 -4.96101,-1.3159 -0.58939,-0.0165 -2.08383,0.0658 -1.87053,0.0522 -0.72245,1.22843 -0.16364,2.74163 -0.66285,4.04728 -0.63766,1.99825 -0.77962,4.11534 -1.56241,6.07233 -0.63749,1.85431 -1.34396,3.71578 -1.55692,5.6706 -0.30299,1.21062 -0.84966,2.45154 -0.58191,3.7208 -0.61699,2.1473 -0.78355,4.43249 -1.747,6.473 -0.36894,1.63232 -0.97255,3.27107 -1.02649,4.91915 l -0.0665,0.0539" style="fill:none;stroke:#000000;stroke-width:2.877;stroke-linecap:round;stroke-linejoin:round;stroke-miterlimit:10;stroke-dasharray:none;stroke-opacity:1" id="path1740" sodipodi:nodetypes="ccccccccccccccccc" />
         </g>
         <g id="g1742" transform="scale(1,-1)" style="stroke-width:1.10003">
            <path d="m 708.051,-548.395 c 0.035,-0.242 0.922,-2.316 0.859,-3.429 1.891,-3.574 -3.793,-3.317 -6.562,-4.598 -1.633,-0.566 -4.903,-1.047 -4.828,-1.308 -0.208,0.07 -0.012,-0.059 -0.231,0.039 -1.5,0.3 -2.031,0.476 -3.016,2.023 -1.308,1.961 1.512,4.012 2.911,5.066 1.293,0.801 2.132,1.457 2.312,1.7" style="fill:none;stroke:#000000;stroke-width:2.877;stroke-linecap:round;stroke-linejoin:round;stroke-miterlimit:10;stroke-dasharray:none;stroke-opacity:1" id="path1744" />
         </g>
         <g id="g1746" transform="scale(1,-1)" style="stroke-width:1.10003">
            <path d="m 741.184,-543.766 c 0.004,-0.562 0.902,-1.414 1.086,-3.125 0.656,-1.656 0.152,-3.761 0.769,-5.859 0.055,-2.191 0.988,-3.867 1.027,-6.055 -0.316,-1.093 0.243,-3.64 0.243,-3.25 -0.18,0.149 0.261,-0.402 0.218,-1.027 0.25,-0.121 0.274,-0.648 0.489,-1.422 0.086,-0.172 1.394,-1.363 1.636,-1.355 2.262,-1.516 4.887,-0.215 6.899,0.879 1.199,0.898 2.203,1.57 2.172,2.82 0.089,0.453 -0.094,2.117 -0.567,2.344 -1.062,1.148 -2.191,1.75 -3.777,1.496 -1.77,-0.657 -4.074,-1.426 -4.961,-3.125 -0.391,-0.375 -0.227,-1.047 -0.301,-1.145" style="fill:none;stroke:#000000;stroke-width:2.877;stroke-linecap:round;stroke-linejoin:round;stroke-miterlimit:10;stroke-dasharray:none;stroke-opacity:1" id="path1748" />
         </g>
         <g id="g1750" transform="scale(1,-1)" style="stroke-width:1.10003">
            <path d="m 754.504,-559.445 c -0.035,-0.309 0.223,1.226 -0.406,2.218 0.144,0.372 -0.114,0.395 0.117,0.36" style="fill:none;stroke:#000000;stroke-width:2.877;stroke-linecap:round;stroke-linejoin:round;stroke-miterlimit:10;stroke-dasharray:none;stroke-opacity:1" id="path1752" />
         </g>
         <g id="g1754" transform="scale(1,-1)" style="stroke-width:1.10003">
            <path d="m 752.336,-557.016 c 0.309,0.036 0.176,-0.089 0.004,0.547 -0.606,0.758 -0.184,0.543 -0.5,1.543 0.055,0.321 -0.008,-0.039 0.078,0.211" style="fill:none;stroke:#000000;stroke-width:2.877;stroke-linecap:round;stroke-linejoin:round;stroke-miterlimit:10;stroke-dasharray:none;stroke-opacity:1" id="path1756" />
         </g>
         <g id="g1758" transform="scale(1,-1)" style="stroke-width:1.10003">
            <path d="m 750.281,-549.648 c 1.446,0.304 -0.371,1.535 -0.027,2.683 -0.098,0.211 -0.137,0.442 -0.281,0.621" style="fill:none;stroke:#000000;stroke-width:2.877;stroke-linecap:round;stroke-linejoin:round;stroke-miterlimit:10;stroke-dasharray:none;stroke-opacity:1" id="path1760" />
         </g>
         <g id="g1762" transform="scale(1,-1)" style="stroke-width:1.10003">
            <path d="m 754.879,-555.324 c 0.766,0.965 4.219,1.32 5.66,2.125 l 178.426,32.597 c 2.027,0.356 5.66,0.981 6.84,1.348 1.293,0.184 1.633,0.352 3.047,0.563 1.285,0.421 1.421,0.144 2.269,0.539 0.984,0.32 0.242,0.211 0.551,0.211 1.43,1.015 -0.055,-0.063 1.414,0.918 1.582,0.804 3.422,0.687 4.32,0.406 0.977,-0.336 0.832,-0.594 1.106,-0.75 0.722,-1.125 0.664,-1.141 1.426,-2.035 0.878,-0.325 1.832,-0.758 1.46,-1.918 0.372,-0.325 0.094,-1.789 -0.601,-2.11 -0.129,-0.504 0.191,0.012 -0.332,-0.347 l -0.059,-0.035" style="fill:none;stroke:#000000;stroke-width:2.877;stroke-linecap:round;stroke-linejoin:round;stroke-miterlimit:10;stroke-dasharray:none;stroke-opacity:1" id="path1764" sodipodi:nodetypes="ccccccccccccccc" />
         </g>
         <g id="g1766" transform="scale(1,-1)" style="stroke-width:1.10003">
            <path d="m 961.758,-524.129 c 0.012,0.152 1.879,-0.422 2.672,-0.512 -4.72531,-23.48532 -8.45511,-49.56035 -16.731,-72.297 0.434,0.54 -0.988,-1.128 -2.179,-1.367 -0.473,-0.433 -1.239,-1.656 -0.903,-2.472 0.094,-1.5 2.117,-1.989 1.992,-3.653 -0.175,-2.316 -4.929,-12.258 -5.527,-14.996" style="fill:none;stroke:#000000;stroke-width:2.877;stroke-linecap:round;stroke-linejoin:round;stroke-miterlimit:10;stroke-dasharray:none;stroke-opacity:1" id="path1768" sodipodi:nodetypes="ccccccc" />
         </g>
         <g id="g1770" transform="scale(1,-1)" style="stroke-width:1.10003">
            <path d="m 719.383,-674.719 c 0.062,-0.148 1.59,0.309 2.656,0.899 69.9087,15.43508 147.31672,38.31757 216.883,53.218 1.039,0.309 2.254,0.543 1.535,0.379 0.391,-0.031 0.609,0.469 0.625,0.797" style="fill:none;stroke:#000000;stroke-width:2.877;stroke-linecap:round;stroke-linejoin:round;stroke-miterlimit:10;stroke-dasharray:none;stroke-opacity:1" id="path1772" sodipodi:nodetypes="ccccc" />
         </g>
         <g id="g1774" transform="scale(1,-1)" style="stroke-width:1.10003">
            <path d="m 944.828,-612.371 c 0.043,-0.664 4.91,-2.926 6.145,-3.481 4.437,-1.125 10.957,-1.546 14.574,-2.433 -0.371,-0.055 0.371,0.058 -0.082,-0.074" style="fill:none;stroke:#000000;stroke-width:2.877;stroke-linecap:round;stroke-linejoin:round;stroke-miterlimit:10;stroke-dasharray:none;stroke-opacity:1" id="path1776" sodipodi:nodetypes="cccc" />
         </g>
         <g id="g1778" transform="scale(1,-1)" style="stroke-width:1.10003">
            <path d="m 965.547,-618.285 c 0,0 -11.004,-69.07147 -15.508,-102.395 -0.043,-0.683 -0.586,-1.867 0.102,-0.562 l 0.027,0.078" style="fill:none;stroke:#000000;stroke-width:2.877;stroke-linecap:round;stroke-linejoin:round;stroke-miterlimit:10;stroke-dasharray:none;stroke-opacity:1" id="path1780" sodipodi:nodetypes="cccc" />
         </g>
         <g id="g1782" transform="scale(1,-1)" style="stroke-width:1.10003">
            <path d="m 950.30162,-720.75281 c -0.043,-0.981 -0.12162,-9.52819 -0.36062,-11.39519 -0.66,-4.305 -3.734,-8.34 -3.738,-12.567 -0.07,-0.086 -0.457,-1.355 -0.488,-0.758" style="fill:none;stroke:#000000;stroke-width:2.877;stroke-linecap:round;stroke-linejoin:round;stroke-miterlimit:10;stroke-dasharray:none;stroke-opacity:1" id="path1784" sodipodi:nodetypes="cccc" />
         </g>
         <g id="g1786" transform="scale(1,-1)" style="stroke-width:1.10003">
            <path d="m 711.51441,-648.60953 c -0.078,-0.153 -1.51041,-1.60147 -1.76441,-3.04647 -0.605,-2.778 -3.336,-5.199 -3.898,-7.754 -0.743,-0.516 -0.786,-1.543 -0.661,-1.223 2.051,-1.23 6.434,-1.867 8.719,-2.121 -0.312,-0.086 -0.433,0.43 -0.785,0.645" style="fill:none;stroke:#000000;stroke-width:2.877;stroke-linecap:round;stroke-linejoin:round;stroke-miterlimit:10;stroke-dasharray:none;stroke-opacity:1" id="path1788" sodipodi:nodetypes="cccccc" />
         </g>
         <g id="g1790" transform="scale(1,-1)" style="stroke-width:1.10003">
            <path d="m 705.191,-660.633 c -0.008,-1.379 1.25,-6.711 1.364,-8.972 -0.0341,-5.14473 4.015,-14.903 4.015,-14.903" style="fill:none;stroke:#000000;stroke-width:2.877;stroke-linecap:round;stroke-linejoin:round;stroke-miterlimit:10;stroke-dasharray:none;stroke-opacity:1" id="path1792" sodipodi:nodetypes="ccc" />
         </g>
         <g id="g1794" transform="scale(1,-1)" style="stroke-width:1.10003">
            <path d="m 710.57,-684.508 c -0.293,-0.215 5.196,-1.137 6.434,-1.359 0,0 229.258,-61.567 228.711,-59.606" style="fill:none;stroke:#000000;stroke-width:2.877;stroke-linecap:round;stroke-linejoin:round;stroke-miterlimit:10;stroke-dasharray:none;stroke-opacity:1" id="path1796" sodipodi:nodetypes="ccc" />
         </g>
         <g id="g1798" transform="scale(1,-1)" style="stroke-width:1.10003">
            <path d="M 744.83818,-668.92922 C 808.58025,-686.64755 885.45034,-700.6256 950.141,-721.242" style="fill:none;stroke:#000000;stroke-width:2.877;stroke-linecap:round;stroke-linejoin:round;stroke-miterlimit:10;stroke-dasharray:none;stroke-opacity:1" id="path1800" sodipodi:nodetypes="cc" />
         </g>
         <g id="g1802" transform="scale(1,-1)" style="stroke-width:1.10003">
            <path d="m 823.262,-543.996 c 1.847,0.277 3.957,-1.277 3.836,-3.262 -0.45,-1.094 -0.235,-3.246 -0.332,-3.113 -0.141,-0.449 1.109,-1.598 2.746,-2.422 1.945,-1.266 4.961,-1.941 6.695,-3.43 0.609,-0.617 1.82,-1.363 1.547,-1.312 1.031,-0.836 1.23,-1.531 1.129,-1.223 0.23,-0.867 0.301,-1.789 -0.219,-2.504 -0.43,-1.023 -0.695,-1.039 -1.68,-1.953 -1.382,-0.867 -2.304,-2.039 -3.75,-3.25 -1.058,-1.258 -2.218,-2.473 -2.14,-4.504 0.082,-1.336 0.164,-2.183 1.094,-3.66 -0.286,0.574 1.371,-1.586 2.882,-1.777 0.075,0.195 3.047,-0.617 2.305,-0.406 1.246,-0.864 0.871,-0.528 0.922,-0.84 -0.285,-1.762 -0.317,-1.289 -0.649,-2.707 0.024,-0.465 -1.011,-1.258 -1.421,-1.731 -0.391,-0.133 -1.653,-1.258 -1.77,-1.203 0.047,-0.562 -0.172,-0.004 0.949,-1.117 0.035,-0.391 1.93,-0.356 1.91,-0.262 0.633,0.027 1.164,0.035 0.926,0.012 -0.172,-0.418 -0.695,-2.676 -0.488,-3.356 0.242,-1.535 0.551,-1.062 1.644,-1.422 0.485,0.641 2.079,0.934 1.528,1.977 0.012,0.918 -0.672,1.828 0.676,2.602 0.32,0.8 2.644,1.035 2.41,2.093 0.144,1.2 -0.293,2.18 -1.356,2.594 -0.89,0.402 -1.328,0.414 -1.308,0.418 -0.446,0.234 -0.703,1.078 -1.012,1.621 -0.57,1.371 -0.731,2.598 -0.066,2.742 2.121,0.157 4.261,0.786 5.183,1.43 1.133,0.566 1.106,2.5 1.02,3.039 0.347,1.91 0.14,2.598 -0.692,4 -0.508,0.813 -0.691,2.606 -2.16,2.848 -0.848,0.57 -1.914,1.121 -2.816,1.297 -0.582,0.043 -0.09,0.058 -0.231,0.066 -0.301,0.805 -0.179,2.098 0.102,2.746 0.039,0.313 -0.434,1.742 -0.418,1.707 -1.133,0.426 -1.242,0.801 -1.785,1.41 -0.137,1.043 0.043,1.903 0.183,3.321 0.129,0.183 0.141,0.242 0.125,0.246" style="fill:none;stroke:#000000;stroke-width:2.877;stroke-linecap:round;stroke-linejoin:round;stroke-miterlimit:10;stroke-dasharray:none;stroke-opacity:1" id="path1804" />
         </g>
         <g id="g1806" transform="scale(1,-1)" style="stroke-width:1.10003">
            <path d="m 836.547,-552.848 c 1.098,0.817 -2.074,2.594 -0.973,3.832 -0.168,0.008 1.746,1.09 2.828,0.84 3.657,0.098 8.047,1.02 11.235,0.75 0.375,0.156 2.949,-0.523 2.5,-0.441 0.633,-0.793 1.875,-3.348 2.414,-5.246 0.887,-1.262 0.566,-2.391 1.234,-3.746 -0.75,-0.051 2.656,-0.301 2.988,0.336 1.52,0.453 3.493,0.617 4.879,0.898 0.684,0.094 1.137,0.773 1.313,1.848 -0.664,2.113 -0.024,5.019 -0.578,7.187 0.515,1.473 0.359,2.781 0.207,4.188 0.375,0.84 -0.297,3.379 0.004,2.609 0.168,-0.035 -1.907,1.418 -3.176,0.938" style="fill:none;stroke:#000000;stroke-width:2.877;stroke-linecap:round;stroke-linejoin:round;stroke-miterlimit:10;stroke-dasharray:none;stroke-opacity:1" id="path1808" />
         </g>
         <g id="g1810" transform="scale(1,-1)" style="stroke-width:1.10003">
            <path d="m 881.742,-538.418 c 0.801,0.727 -2.5,-1.094 -1.066,-2.168 1.476,-1.277 4.449,-0.766 4.719,1.242 -0.641,2.055 -4.965,1.09 -4.86,0.699 -0.07,-0.031 -0.125,-0.089 -0.195,-0.125" style="fill:none;stroke:#000000;stroke-width:2.877;stroke-linecap:round;stroke-linejoin:round;stroke-miterlimit:10;stroke-dasharray:none;stroke-opacity:1" id="path1812" />
         </g>
         <g id="g1814" transform="scale(1,-1)" style="stroke-width:1.10003">
            <path d="m 733.918,-569.508 c -0.402,1.172 -2.691,-2.226 -0.047,-2.273 1.91,-0.785 5.133,0.84 2.445,2.332 -1.074,0.941 -2.144,0.894 -2.957,0.695" style="fill:none;stroke:#000000;stroke-width:2.877;stroke-linecap:round;stroke-linejoin:round;stroke-miterlimit:10;stroke-dasharray:none;stroke-opacity:1" id="path1816" />
         </g>
         <g id="g1818" transform="scale(1,-1)" style="stroke-width:1.10003">
            <path d="m 771.379,-552.641 c 0.07,0.75 0.664,-2.086 1.254,-3.07 -0.195,-1.277 1.414,-2.727 1.551,-2.281 -0.188,0.035 -0.051,0.39 -0.219,0.5" style="fill:none;stroke:#000000;stroke-width:2.877;stroke-linecap:round;stroke-linejoin:round;stroke-miterlimit:10;stroke-dasharray:none;stroke-opacity:1" id="path1820" />
         </g>
         <g id="g1822" transform="scale(1,-1)" style="stroke-width:1.10003">
            <path d="m 774.785,-559.277 c 2.625,-0.477 7.004,-0.336 7.613,3.027 -0.16,0.906 0.102,0.707 -0.48,1.613" style="fill:none;stroke:#000000;stroke-width:2.877;stroke-linecap:round;stroke-linejoin:round;stroke-miterlimit:10;stroke-dasharray:none;stroke-opacity:1" id="path1824" />
         </g>
         <g id="g1826" transform="scale(1,-1)" style="stroke-width:1.10003">
            <path d="m 782.652,-553.578 c -0.027,-0.801 -1.625,3.383 -1.281,2.535 -0.144,0.121 -0.195,0.328 -0.309,0.488" style="fill:none;stroke:#000000;stroke-width:2.877;stroke-linecap:round;stroke-linejoin:round;stroke-miterlimit:10;stroke-dasharray:none;stroke-opacity:1" id="path1828" />
         </g>
         <g id="g1830" transform="scale(1,-1)" style="stroke-width:1.10003">
            <path d="m 908.016,-531.289 c 1.148,-1.535 0.714,-3.668 1.656,-5.059 3.172,-0.679 7.703,-0.757 11.547,-1.043 4.367,0.09 8.648,-1.066 12.593,-1.632 2.208,-0.559 4.653,-0.532 6.575,1.461 2.023,1.75 2.547,4.789 4.195,6.648 0.664,1.598 1.754,2.578 2.359,4.199 1.395,2.016 2.903,3.93 5.387,5.11 0.942,0.328 2.676,1 2.828,0.921 0.024,0.075 -0.394,-0.066 -0.133,-0.019" style="fill:none;stroke:#000000;stroke-width:2.877;stroke-linecap:round;stroke-linejoin:round;stroke-miterlimit:10;stroke-dasharray:none;stroke-opacity:1" id="path1832" />
         </g>
         <g id="g1834" transform="scale(1,-1)" style="stroke-width:1.10003">
            <path d="m 929.859,-537.762 c 0.879,0.352 -2.222,5.469 -3.55,7.321 -0.27,0.957 -1.278,1.636 -0.579,1.953" style="fill:none;stroke:#000000;stroke-width:2.877;stroke-linecap:round;stroke-linejoin:round;stroke-miterlimit:10;stroke-dasharray:none;stroke-opacity:1" id="path1836" />
         </g>
         <g id="g1838" transform="scale(1,-1)" style="stroke-width:1.10003">
            <path d="m 941.969,-532.367 c -0.125,-0.211 -1.496,1.832 -1.879,2.832 -1.203,1.285 -2.051,4.594 -2.68,5.578 -0.984,0.988 0.235,-0.184 -0.742,0.621" style="fill:none;stroke:#000000;stroke-width:2.877;stroke-linecap:round;stroke-linejoin:round;stroke-miterlimit:10;stroke-dasharray:none;stroke-opacity:1" id="path1840" />
         </g>
         <g id="g1842" transform="scale(1,-1)" style="stroke-width:1.10003">
            <path d="m 911.211,-571.785 c 0.836,-0.231 2.691,-1.742 3.586,-2.649 1.66,-2.05 2.473,-4.304 2.805,-6.554 0.039,-3.309 -0.688,-6.391 -2.664,-9.332 -0.754,-0.965 -1.872,-3.118 -2.719,-3.922 -1.227,-1.078 -2.285,-3.028 -4.078,-4.02 -2.008,-1.383 -4.754,-3.101 -7.297,-4.211 -2.024,-0.988 -3.692,-1.945 -6.235,-2.234 -2.16,-0.348 -4.429,-0.199 -7.086,-0.117 -1.332,0.066 -3.484,0.383 -4.933,1.172 -1.422,0.48 -2.039,0.843 -3.539,1.816 -0.688,0.664 -2.235,2.051 -2.539,2.723 -0.86,2.097 -1.602,3.992 -1.367,6.429 0.003,1.981 0.843,3.532 1.593,5.473 0.801,1.785 2.18,3.789 3.903,5.727 1.742,1.839 5.074,3.867 7.562,5.293 1.817,1.179 3.742,2.414 5.438,2.914 3.734,1.761 7.5,2.297 11.515,1.949 2.39919,-0.11114 6.055,-0.457 6.055,-0.457" style="fill:none;stroke:#000000;stroke-width:2.877;stroke-linecap:round;stroke-linejoin:round;stroke-miterlimit:10;stroke-dasharray:none;stroke-opacity:1" id="path1844" sodipodi:nodetypes="ccccccccccccccccccc" />
         </g>
         <g id="g1846" transform="scale(1,-1)" style="stroke-width:1.10003">
            <path d="m 776.277,-597.066 c 4.69498,0.46247 9.63541,0.46021 14.05727,-1.35959 2.2645,-1.04699 3.9222,-2.92022 4.98541,-5.13464 1.37094,-1.77918 1.78916,-4.046 2.51487,-6.10725 0.11837,-2.36067 0.98323,-4.73778 0.16818,-7.06866 -0.64773,-3.56387 -3.67214,-5.85106 -6.16657,-8.14289 -1.94539,-2.48748 -4.61997,-4.2354 -7.49416,-5.46284 -2.83695,-1.56677 -5.86957,-2.84371 -9.13184,-3.1279 -3.76498,-0.48524 -7.59517,0.0609 -11.26343,0.9269 -3.11671,0.97451 -6.08071,2.55983 -8.51273,4.75387 -1.41681,1.38468 -1.98433,3.20887 -2.425,5.02099 -0.84006,2.08616 -0.73432,4.38554 -0.65992,6.58419 1.00335,1.78413 1.60215,3.84722 2.80769,5.58814 1.65631,2.56641 3.55478,5.01767 6.12141,6.73512 2.40316,2.01226 5.57174,2.7814 8.19622,4.46184 2.94325,1.18348 6.07898,2.80097 9.33936,2.061" style="fill:none;stroke:#000000;stroke-width:2.877;stroke-linecap:round;stroke-linejoin:round;stroke-miterlimit:10;stroke-dasharray:none;stroke-opacity:1" id="path1848" sodipodi:nodetypes="cccccccccccccccc" />
         </g>
         <g id="g1850" transform="scale(1,-1)" style="stroke-width:1.10003">
            <path d="m 777.477,-606.406 c 0.117,-0.071 2.257,1.386 3.32,0.918 1.238,-0.375 1.34,-1.051 1.449,-2.387 -0.289,-1.035 0.602,-2.141 2.215,-2.301 1.207,-0.301 0.832,-1.715 0.059,-1.363 -0.758,0.156 -0.235,-1.074 -0.063,-1.977 0.625,-1.355 0.695,-1.586 -0.156,-1.929 -0.91,-0.129 -1.977,0.675 -2.375,1.507 -0.469,0.7 -1.313,1.575 -1.16,1.219 -0.024,0.328 -0.914,0.746 -0.575,0.625 -0.98,1 -1.171,0.977 -1.132,-0.097 0.468,-1.309 0.718,-2.426 1.211,-3.813 0.292,-0.914 0.367,-1.773 0.007,-2.344 -0.593,-0.734 -1.089,-1.257 -2.144,-1 -0.594,-0.117 -1.129,0.985 -2.145,1.766 0.094,0.727 -1.785,2.469 -2.07,3.074 -0.414,0.149 -1.656,0.133 -1.43,-1.254 0.078,-0.668 0.321,-1.527 -0.066,-2.226 0.191,-0.453 -1.383,-1.899 -1.973,-1.117 -1.058,0.613 -0.551,1.578 -1.281,2.683 -0.098,1.426 -1.648,3 -1.84,4.234 -0.48,1.407 -1.129,2.454 -0.785,3.555 0.727,1.028 1.68,1.875 3.355,1.078 -0.25,0.012 0.54,-0.168 0.829,0.246 0.093,0.196 0.824,0.43 1.386,0.868 0.637,0.941 1.524,0.652 2.879,0.242 0.067,0.066 1.742,-0.067 1.309,-0.164 0.336,-0.047 0.219,0.035 0.351,-0.192" style="fill:none;stroke:#000000;stroke-width:1.43851;stroke-linecap:round;stroke-linejoin:round;stroke-miterlimit:10;stroke-dasharray:none;stroke-opacity:1" id="path1852" />
         </g>
         <g id="g1854" transform="scale(1,-1)" style="stroke-width:1.10003">
            <path d="m 764.395,-608.754 c -1.168,-1.332 -1.176,-3.879 -0.653,-5.793 0.707,-2.133 1.957,-4.613 3.469,-6.074 1.945,-1.344 3.984,-1.817 6.644,-1.649 4.067,0.153 8.137,0.84 10.188,4.473 1.465,1.555 0.176,4.559 0.18,6.375 -0.313,0.613 -0.262,1.293 -0.325,1.395" style="fill:none;stroke:#000000;stroke-width:1.43851;stroke-linecap:round;stroke-linejoin:round;stroke-miterlimit:10;stroke-dasharray:none;stroke-opacity:1" id="path1856" />
         </g>
         <g id="g1858" transform="scale(1,-1)" style="stroke-width:1.10003">
            <path d="m 784.078,-602.59 c -0.109,0.332 1.949,-0.492 2.25,-1.355 2.172,-1.867 3.594,-4.129 4.61,-6.582 0.519,-2.496 0.183,-4.11 -1.071,-6.45 -0.887,-2.285 -1.781,-4.617 -3.742,-6.597 -1.602,-2.074 -4.801,-3.371 -7.551,-4.438 -3.762,-0.718 -6.992,-1.144 -10.527,0.434 -2.231,0.906 -5.828,2.683 -6.699,5.266 -1.774,2.019 -2.293,4.417 -2.063,6.804 -0.027,1.133 0.039,0.586 0.676,1.231 0.141,0.183 0.418,0.086 0.582,0.242" style="fill:none;stroke:#000000;stroke-width:1.43851;stroke-linecap:round;stroke-linejoin:round;stroke-miterlimit:10;stroke-dasharray:none;stroke-opacity:1" id="path1860" />
         </g>
         <g id="g1862" transform="scale(1,-1)" style="stroke-width:1.10003">
            <path d="m 892.949,-580.906 c 0.203,0.023 2.434,1.488 3.348,0.965 0.875,-0.864 0.984,0.582 1.863,0.828 1.817,0.429 2.512,-1.199 1.25,-1.981 -0.972,-0.582 1.395,-1.011 1.731,-1.222 1.078,-0.375 1.421,-0.903 1.464,-0.981 0.161,-0.566 -1.152,-0.504 -1.98,-1.027 -0.91,-0.258 2.727,-1.961 0.734,-1.992 -1.019,-0.438 -2.351,0.554 -2.695,0.699 0.195,0.383 -0.512,-1.297 0.297,-2.094 0.66,-1.086 1.543,-2.187 0.508,-3.172 -0.778,-0.637 -2.739,1.321 -3.477,2 -1.195,1.43 -3.258,2.828 -4.16,2.789 0.367,-0.047 -0.289,-1.328 0.715,-2.234 0.5,-0.981 1.488,-2.086 1.488,-3.063 0.27,-1.359 -0.621,-2.226 -1.465,-2.14 -2.386,1.316 -3.226,3.871 -4.879,5.828 -0.48,0.367 -0.129,0.234 -0.769,0.117 -0.141,-0.801 -0.086,-2.238 0.219,-2.434 -0.313,-0.156 -2.141,1.594 -1.321,2.641 0.387,2.055 2.207,3.09 3.528,4.688 1.367,1.281 3.777,3.129 5.332,3.328 -0.278,0.09 0.031,-0.11 -0.321,-0.196" style="fill:none;stroke:#000000;stroke-width:1.43851;stroke-linecap:round;stroke-linejoin:round;stroke-miterlimit:10;stroke-dasharray:none;stroke-opacity:1" id="path1864" />
         </g>
         <g id="g1866" transform="scale(1,-1)" style="stroke-width:1.10003">
            <path d="m 904.324,-576.504 c 1.66,0.004 2.856,-2.558 3.356,-3.992 -0.266,-2.641 0.539,-4.899 -0.778,-7.262 -1.179,-2.484 -2.597,-5.597 -4.957,-6.902 -1.281,-2 -3.871,-2.969 -5.562,-3.883 -2.965,-1.379 -5.832,-2.285 -9.301,-1.145 -2.07,0.965 -3.84,1.676 -5.023,3.567 -0.829,1.051 -1.164,3.73 -1.118,5.289 -0.097,1.828 0.543,3.605 2.176,4.23" style="fill:none;stroke:#000000;stroke-width:1.43851;stroke-linecap:round;stroke-linejoin:round;stroke-miterlimit:10;stroke-dasharray:none;stroke-opacity:1" id="path1868" />
         </g>
         <g id="g1870" transform="scale(1,-1)" style="stroke-width:1.10003">
            <path d="m 923.648,-511.113 c 1.149,-0.352 0.122,0.14 1.321,-1.348 1.773,-2.559 2.82,-5.543 4.297,-8.203" style="fill:none;stroke:#000000;stroke-width:1.43851;stroke-linecap:round;stroke-linejoin:round;stroke-miterlimit:10;stroke-dasharray:none;stroke-opacity:1" id="path1872" />
         </g>
         <g id="g1874" transform="scale(1,-1)" style="stroke-width:1.10003">
            <path d="m 914.688,-514.504 c 0.781,-0.18 2.742,-3.144 3.339,-4.789 0.45,-1.219 1.676,-2.113 2.328,-3.102" style="fill:none;stroke:#000000;stroke-width:1.43851;stroke-linecap:round;stroke-linejoin:round;stroke-miterlimit:10;stroke-dasharray:none;stroke-opacity:1" id="path1876" />
         </g>
      </g>
   </g>
</svg>
