<?xml version="1.0" encoding="UTF-8" standalone="no"?>
<!-- Created by Ashley Blewer - This work is licensed under a Creative Commons Attribution 4.0 International License -->

<svg width="544" height="480" viewBox="0 0 143.93334 127" version="1.1" id="svg2490" inkscape:version="1.1.2 (08b2f3d93c, 2022-04-05)" sodipodi:docname="1976-type-c-1.svg"
   xmlns:inkscape="http://www.inkscape.org/namespaces/inkscape"
   xmlns:sodipodi="http://sodipodi.sourceforge.net/DTD/sodipodi-0.dtd"
   xmlns="http://www.w3.org/2000/svg"
   xmlns:svg="http://www.w3.org/2000/svg">
   <sodipodi:namedview id="namedview2492" pagecolor="#ffffff" bordercolor="#666666" borderopacity="1.0" inkscape:pageshadow="2" inkscape:pageopacity="0.0" inkscape:pagecheckerboard="0" inkscape:document-units="mm" showgrid="false" units="px" inkscape:zoom="0.90583674" inkscape:cx="272.67607" inkscape:cy="177.18425" inkscape:window-width="1848" inkscape:window-height="1136" inkscape:window-x="72" inkscape:window-y="27" inkscape:window-maximized="1" inkscape:current-layer="layer1" />
   <defs id="defs2487" />
   <g inkscape:label="Layer 1" inkscape:groupmode="layer" id="layer1">
      <g id="g3579" transform="matrix(0.59461078,0,0,0.59461078,-190.77707,-325.33665)">
         <g id="g896" transform="scale(1,-1)">
            <path d="m 466.16839,-629.22327 c 2.01641,28.9604 -26.02228,63.14776 -56.72599,51.32889 -36.27304,-14.2066 -46.30173,-57.74867 -46.71415,-92.7552 -0.70352,-26.10163 8.76339,-60.95573 38.39074,-65.97257 31.2238,-4.00442 49.94582,25.19216 59.4888,50.49176" style="fill:none;stroke:#000000;stroke-width:2.61538;stroke-linecap:round;stroke-linejoin:round;stroke-miterlimit:10;stroke-dasharray:none;stroke-opacity:1" id="path898" sodipodi:nodetypes="cccccccc" />
         </g>
         <g id="g900" transform="scale(1,-1)">
            <path d="m 401.594,-579.066 c -31.54611,14.44012 -59.80154,-18.43383 -68.6238,-45.83161 -13.45378,-35.48126 -6.51483,-85.62235 30.69455,-103.48415 5.18663,-1.69255 11.2103,-1.85137 16.06225,1.00276" style="fill:none;stroke:#000000;stroke-width:2.61538;stroke-linecap:round;stroke-linejoin:round;stroke-miterlimit:10;stroke-dasharray:none;stroke-opacity:1" id="path902" />
         </g>
         <g id="g904" transform="scale(1,-1)">
            <path d="m 525.141,-579.016 c -42.50087,6.77543 -61.295,-43.77782 -63.94339,-77.98775 -4.02252,-27.90478 -0.0702,-73.1338 35.68139,-76.83625" style="fill:none;stroke:#000000;stroke-width:2.61538;stroke-linecap:round;stroke-linejoin:round;stroke-miterlimit:10;stroke-dasharray:none;stroke-opacity:1" id="path906" />
         </g>
         <g id="g908" transform="scale(1,-1)">
            <path d="m 526.2318,-578.33864 c -37.13351,-13.07848 -47.05269,-56.89674 -49.41354,-91.82906 -2.00122,-25.95273 7.51976,-76.27902 43.27349,-65.2423 31.16313,14.76622 34.48182,53.15855 37.97998,83.40862 0.58909,23.01683 0.34448,50.49561 -16.74477,67.87228 -4.52331,3.5818 -10.35959,5.80643 -16.18596,5.1131" style="fill:none;stroke:#000000;stroke-width:2.61538;stroke-linecap:round;stroke-linejoin:round;stroke-miterlimit:10;stroke-dasharray:none;stroke-opacity:1" id="path910" sodipodi:nodetypes="cccccccccccc" />
         </g>
         <g id="g912" transform="scale(1,-1)">
            <path d="m 417.922,-628.301 c -0.25,1.184 -3.309,2.723 -4.274,1.485 -2.093,-1.125 -1.152,-4.254 -0.343,-4.622 -1.262,-0.878 -2.727,-2.667 -4.364,-4.152 -2.066,-2.437 -3.531,-4.008 -5.148,-7.035 -1.133,-2.418 -2.078,-5.031 -2.543,-7.891 -1.352,-3 -1.371,-6.172 -1.145,-9.472 -0.148,-2.797 0.239,-5.336 0.696,-7.824 0.761,-2.942 0.519,-6.274 2.109,-9.043 0.762,-2.352 2.176,-5.329 3.953,-6.493 1.004,-0.609 0.016,-0.566 -0.265,-1.929 -0.422,-0.95 -1.696,-2.703 0.218,-3.75 1.547,-0.895 2.461,0.359 3.102,1.211 1.984,-1 6.312,-3.086 9.609,-2.188 3.602,0.008 6.864,1.938 9.114,4.363 2.605,2.231 4.914,4.606 6.265,7.746 1.106,2.493 1.824,4.848 2.457,7.016 0.137,2 0.168,3.703 -0.246,5.469 0.324,1.472 -0.555,1.765 0.918,2.781 0.543,0.211 2.649,0.996 2.875,2.512 -0.379,1.679 -3.531,1.84 -2.348,4.582 0.36,3.527 -0.226,7.34 -1.16,10.914 -0.453,2.683 -1.429,5.629 -2.722,8.234 -1.035,3.621 -4.16,6.137 -7.762,6.977 -1.945,0.508 -5.992,0.523 -6.863,-0.512" style="fill:none;stroke:#000000;stroke-width:2.61538;stroke-linecap:round;stroke-linejoin:round;stroke-miterlimit:10;stroke-dasharray:none;stroke-opacity:1" id="path914" />
         </g>
         <g id="g916" transform="scale(1,-1)">
            <path d="m 405.254,-640.887 c 1.32,-1.273 2.758,-6.121 2.883,-8.804 1.832,-1.981 -1.981,-5.145 1.801,-4.883 1.636,-0.801 0.101,-2.942 -1.438,-3.735 -1.109,0.461 -1.09,-0.839 -1.543,-2.363 -0.734,-2.555 -2.605,-5.027 -3.691,-7.441 -0.204,-0.11 -2.192,-2.992 -2.696,-2.532" style="fill:none;stroke:#000000;stroke-width:2.61538;stroke-linecap:round;stroke-linejoin:round;stroke-miterlimit:10;stroke-dasharray:none;stroke-opacity:1" id="path918" />
         </g>
         <g id="g920" transform="scale(1,-1)">
            <path d="m 410.69896,-656.27609 c 7.719,-0.887 17.79304,-0.53591 25.52804,-1.29791 l -0.145,0.023 2.23841,0.25249" style="fill:none;stroke:#000000;stroke-width:2.61538;stroke-linecap:round;stroke-linejoin:round;stroke-miterlimit:10;stroke-dasharray:none;stroke-opacity:1" id="path922" sodipodi:nodetypes="cccc" />
         </g>
         <g id="g924" transform="scale(1,-1)">
            <path d="m 408.3355,-660.66142 c 3.18,0.754 13.1765,-0.0456 17.5355,-0.12758 3.102,0.238 8.21045,-1.54157 12.164,-1.84" style="fill:none;stroke:#000000;stroke-width:2.61538;stroke-linecap:round;stroke-linejoin:round;stroke-miterlimit:10;stroke-dasharray:none;stroke-opacity:1" id="path926" sodipodi:nodetypes="ccc" />
         </g>
         <g id="g928" transform="scale(1,-1)">
            <path d="m 424.871,-622.668 c 4.547,0.027 9.133,-1.691 11.918,-5.379 2.254,-3.422 4.523,-6.652 5.578,-10.648 1.68,-3.356 2.141,-7.465 2.578,-11.317 -1.054,-2.836 -0.527,-6.75 -0.937,-9.98 -0.559,-1.301 -0.313,-2.574 -0.606,-3.082 -0.09,-2.242 -1.324,-4.207 -1.64,-6.699 -0.188,-2.313 -1.313,-4.024 -2.266,-6.114 -1.848,-2.793 -3.371,-5.449 -5.281,-8.074 -1.746,-2.297 -2.867,-5.516 -5.309,-7.355 -2.582,-2.903 -5.992,-5.282 -10.074,-5.032 -4.121,0.817 -8.914,1.309 -12.152,4.211 -2.727,2.953 -4.063,6.793 -5.637,10.442 -0.77,2.918 -1.836,5.757 -2.281,8.84 -1.375,3.984 -1.039,8.464 -0.992,12.429 0.328,4.242 1.07,8.059 2.378,12.043 1.094,3.235 2.055,6.52 3.438,9.465 1.809,3.184 3.668,5.836 5.855,8.676 2.403,2.379 5.227,4.254 8.426,5.406 2.27,0.594 4.36,2.098 6.629,2.07" style="fill:none;stroke:#000000;stroke-width:2.61538;stroke-linecap:round;stroke-linejoin:round;stroke-miterlimit:10;stroke-dasharray:none;stroke-opacity:1" id="path930" />
         </g>
         <g id="g932" transform="scale(1,-1)">
            <path d="m 513.27,-643.676 c -3.65935,2.44373 -3.81639,-5.45283 -1.02164,-6.49325 -2.21455,-4.2467 -2.3556,-9.52497 -2.52513,-14.29712 0.0479,-5.80835 -0.31491,-11.92822 2.6593,-17.17011 1.66602,-3.28326 3.47116,-7.37696 7.6379,-7.87486 2.50453,0.21698 3.41299,-0.36326 4.21102,-2.62448 3.67353,-0.54376 4.01287,5.08291 7.01256,7.07004 3.65042,3.53707 6.75912,7.65884 7.84565,12.74401 2.06009,5.23223 3.20589,10.68825 3.5023,16.2956 0.10568,-0.002 -0.15075,3.3832 -0.11203,2.10817" style="fill:none;stroke:#000000;stroke-width:2.61538;stroke-linecap:round;stroke-linejoin:round;stroke-miterlimit:10;stroke-dasharray:none;stroke-opacity:1" id="path934" />
         </g>
         <g id="g936" transform="scale(1,-1)">
            <path d="m 542.652,-652.566 c 1.10904,3.91741 -1.72042,7.62644 -1.5063,11.60077 -1.38454,5.21313 -2.21208,11.30835 -6.73389,14.85032 -4.9249,2.95431 -11.00648,-0.73188 -13.41825,-5.30253 -1.708,-3.44227 -4.246,-6.32692 -6.01439,-9.73418 -0.55218,-0.83614 -1.18511,-1.63368 -1.97517,-2.2584" style="fill:none;stroke:#000000;stroke-width:2.61538;stroke-linecap:round;stroke-linejoin:round;stroke-miterlimit:10;stroke-dasharray:none;stroke-opacity:1" id="path938" />
         </g>
         <g id="g940" transform="scale(1,-1)">
            <path d="m 519.656,-636.754 c 1.60538,-2.38736 8.51025,2.48188 5.8813,-2.19453 -2.00097,-2.24622 -3.31905,-4.42228 -2.06072,-7.53377 0.15183,-4.62583 -0.38352,-9.08919 -0.90094,-13.68776 -0.59485,-5.84484 -2.70084,-11.48491 -6.21919,-16.20079 -0.72742,-0.82084 -2.88325,-4.57406 -3.27445,-3.62515" style="fill:none;stroke:#000000;stroke-width:2.61538;stroke-linecap:round;stroke-linejoin:round;stroke-miterlimit:10;stroke-dasharray:none;stroke-opacity:1" id="path942" />
         </g>
         <g id="g944" transform="scale(1,-1)">
            <path d="m 512.93,-639.234 c 3.402,7.867 11.672,15.351 20.777,13.222 6.836,-1.054 7.594,-9.351 8.242,-14.883 0.559,-5.359 2.856,-10.605 1.375,-16.035 -1.851,-9.117 -1.984,-19.453 -8.668,-26.675 -3.527,-4.645 -7.023,-11.833 -13.902,-11.125 -7.375,2.343 -10.543,10.425 -12.469,17.289 -0.969,5.074 -1.187,10.289 -0.605,15.41 -0.364,6.343 1.191,12.636 3.937,18.316 0.149,0.645 0.258,1.387 0.832,1.82" style="fill:none;stroke:#000000;stroke-width:2.61538;stroke-linecap:round;stroke-linejoin:round;stroke-miterlimit:10;stroke-dasharray:none;stroke-opacity:1" id="path946" />
         </g>
         <g id="g948" transform="scale(1,-1)">
            <path d="m 528.027,-704.398 c 1.27725,-3.29838 2.99542,-11.39854 2.54979,-15.81276 -3.42281,-2.83369 -9.67174,-5.05259 -14.06094,-7.13161 -0.94036,-0.44954 -1.64151,-0.30583 -2.16219,0.382 0.56841,3.7743 1.57298,12.1802 3.88214,17.96703 2.70673,1.79796 7.0623,4.19258 9.7912,4.59534" style="fill:none;stroke:#000000;stroke-width:2.61538;stroke-linecap:round;stroke-linejoin:round;stroke-miterlimit:10;stroke-dasharray:none;stroke-opacity:1" id="path950" sodipodi:nodetypes="cccccc" />
         </g>
         <g id="g952" transform="scale(1,-1)">
            <path d="m 395.664,-694.621 c 4.06376,-3.83366 10.22171,-8.03759 14.559,-8.348 -2.15186,-5.75141 -4.47779,-11.90204 -6.469,-18 -7.8039,0.40388 -25.39895,14.51647 -23.957,21.067 2.74693,2.5506 9.33504,5.56857 14.57,7.953 0.156,0.328 1.094,-2.965 1.297,-2.672" style="fill:none;stroke:#000000;stroke-width:2.61538;stroke-linecap:round;stroke-linejoin:round;stroke-miterlimit:10;stroke-dasharray:none;stroke-opacity:1" id="path954" sodipodi:nodetypes="cccccc" />
         </g>
         <g id="g956" transform="scale(1,-1)">
            <path d="m 447.125,-604.121 c -1.875,0.496 -3.488,-1.379 -4.609,-2.719 -1.422,-1.371 -1.715,-3.457 -2.02,-5.148 -0.598,-1.84 -0.031,-3.789 -0.203,-5.668 0.348,-1.672 0.914,-3.364 1.629,-4.879 0.984,-1.699 2.914,-3.434 5.168,-3.254 1.609,-0.188 3.633,0.555 4.234,2.16 0.864,1.356 1.664,3.098 1.93,4.676 1.004,1.691 0.367,3.609 0.289,5.375 -0.277,2.359 -1.535,4.16 -2.375,6.187 -0.867,1.688 -1.45738,2.58495 -4.043,3.27" style="fill:none;stroke:#000000;stroke-width:1.30769;stroke-linecap:round;stroke-linejoin:round;stroke-miterlimit:10;stroke-dasharray:none;stroke-opacity:1" id="path958" sodipodi:nodetypes="ccccccccccc" />
         </g>
         <g id="g960" transform="scale(1,-1)">
            <path d="m 442.719,-615.305 c 0.488,0.59 1.41,-1.125 1.894,-1.554 0.774,-0.676 1.746,-1.567 1.942,-2.176 -0.227,0.125 0.386,-0.156 0.144,-0.086" style="fill:none;stroke:#000000;stroke-width:1.30769;stroke-linecap:round;stroke-linejoin:round;stroke-miterlimit:10;stroke-dasharray:none;stroke-opacity:1" id="path962" />
         </g>
         <g id="g964" transform="scale(1,-1)">
            <path d="m 443.406,-611.285 c 0.926,-0.723 1.653,-1.703 2.532,-2.527 0.91,-1.133 1.839,-2.231 2.843,-3.286 0.891,-0.902 1.965,-1.597 2.778,-2.586 0.265,-0.261 0.586,-0.453 0.746,-0.757" style="fill:none;stroke:#000000;stroke-width:1.30769;stroke-linecap:round;stroke-linejoin:round;stroke-miterlimit:10;stroke-dasharray:none;stroke-opacity:1" id="path966" />
         </g>
         <g id="g968" transform="scale(1,-1)">
            <path d="m 410.676,-583.699 c -2.34212,-0.62069 -4.70545,-1.4195 -6.71191,-2.80954 -1.1843,-1.09167 -2.60295,-1.84512 -3.90339,-2.77431 -0.52039,-0.55165 -1.37581,-0.86855 -1.48664,-1.71713" style="fill:none;stroke:#000000;stroke-width:1.30769;stroke-linecap:round;stroke-linejoin:round;stroke-miterlimit:10;stroke-dasharray:none;stroke-opacity:1" id="path970" />
         </g>
         <g id="g972" transform="scale(1,-1)">
            <path d="m 382.27,-717.371 c 3.11876,-3.34144 8.9302,-6.86419 13.527,-8.281" style="fill:none;stroke:#000000;stroke-width:1.30769;stroke-linecap:round;stroke-linejoin:round;stroke-miterlimit:10;stroke-dasharray:none;stroke-opacity:1" id="path974" sodipodi:nodetypes="cc" />
         </g>
         <g id="g976" transform="scale(1,-1)">
            <path d="m 523.371,-590.602 c -0.009,1.92355 -3.28265,2.07984 -3.09025,-0.14724 -0.58553,-2.373 2.58645,-2.78212 2.81961,-4.82248 0.18347,-1.52282 -0.40413,-3.71854 -2.32448,-3.57948 -0.57569,-0.009 -1.41137,0.1899 -1.47817,0.8852" style="fill:none;stroke:#000000;stroke-width:1.30769;stroke-linecap:round;stroke-linejoin:round;stroke-miterlimit:10;stroke-dasharray:none;stroke-opacity:1" id="path978" />
         </g>
         <g id="g980" transform="scale(1,-1)">
            <path d="m 526.848,-593.629 c -0.31073,0.21795 0.0471,0.72288 -0.38579,0.9297 -0.42964,0.30606 -0.56233,-0.67623 -0.89579,-0.89555 -0.35075,-0.66115 -0.18862,-1.47033 -0.006,-2.16206 0.19073,-0.6515 0.52305,-1.25943 0.57616,-1.9471 0.0876,-0.66222 0.34091,-1.41574 1.03501,-1.65742 0.096,-0.0474 0.36257,-0.19623 0.11729,-0.0176" style="fill:none;stroke:#000000;stroke-width:1.30769;stroke-linecap:round;stroke-linejoin:round;stroke-miterlimit:10;stroke-dasharray:none;stroke-opacity:1" id="path982" />
         </g>
         <g id="g984" transform="scale(1,-1)">
            <path d="m 528.52,-594.094 c 1.64317,-0.0566 -0.13296,-2.86943 1.25069,-3.71125 2.20511,-0.94426 1.6952,2.076 0.24198,2.65506 -0.4323,0.40737 -0.85559,0.88015 -0.9739,1.48221" style="fill:none;stroke:#000000;stroke-width:1.30769;stroke-linecap:round;stroke-linejoin:round;stroke-miterlimit:10;stroke-dasharray:none;stroke-opacity:1" id="path986" />
         </g>
         <g id="g988" transform="scale(1,-1)">
            <path d="m 532.117,-588.562 c 0.81122,-2.07894 0.35835,-4.38841 1.058,-6.50722 0.20137,-1.05565 0.69016,-2.01992 0.73055,-3.1258" style="fill:none;stroke:#000000;stroke-width:1.30769;stroke-linecap:round;stroke-linejoin:round;stroke-miterlimit:10;stroke-dasharray:none;stroke-opacity:1" id="path990" />
         </g>
         <g id="g992" transform="scale(1,-1)">
            <path d="m 531.125,-594.055 c 0.33641,0.15266 2.03631,0.4915 2.926,0.227" style="fill:none;stroke:#000000;stroke-width:1.30769;stroke-linecap:round;stroke-linejoin:round;stroke-miterlimit:10;stroke-dasharray:none;stroke-opacity:1" id="path994" />
         </g>
         <g id="g996" transform="scale(1,-1)">
            <path d="m 537.531,-594.68 c -0.84103,0.20166 -1.42968,0.4789 -1.75184,-0.82915 -0.44864,-0.74244 -0.90616,-1.66717 0.38146,-1.74127 0.35367,-0.13331 2.4628,-0.78392 1.40538,-0.18762" style="fill:none;stroke:#000000;stroke-width:1.30769;stroke-linecap:round;stroke-linejoin:round;stroke-miterlimit:10;stroke-dasharray:none;stroke-opacity:1" id="path998" />
         </g>
         <g id="g1000" transform="scale(1,-1)">
            <path d="m 537.324,-589.129 c 0.92438,-2.09473 0.17773,-4.51578 1.18092,-6.60674 0.75438,-0.85934 0.1856,-3.73903 0.66564,-3.64352 0.58989,1.5276 -0.23442,3.737 1.03694,4.86831 2.00324,-0.91662 0.5944,-3.71419 1.62772,-5.24766 l 0.25932,-0.2067" style="fill:none;stroke:#000000;stroke-width:1.30769;stroke-linecap:round;stroke-linejoin:round;stroke-miterlimit:10;stroke-dasharray:none;stroke-opacity:1" id="path1002" />
         </g>
         <g id="g1004" transform="scale(1,-1)">
            <path d="m 518.223,-602.172 c -0.0854,-0.23853 0.0214,-0.22708 0.12336,-0.1319 0.69972,-0.12635 1.40468,0.1019 2.10855,0.0988 0.50644,0.0639 1.01097,0.13083 1.52279,0.13881 0.51548,-0.0212 0.99935,0.19706 1.50929,0.24385 0.34346,0.0827 0.68567,0.0493 0.95806,0.0499" style="fill:none;stroke:#000000;stroke-width:1.30769;stroke-linecap:round;stroke-linejoin:round;stroke-miterlimit:10;stroke-dasharray:none;stroke-opacity:1" id="path1006" />
         </g>
         <g id="g1008" transform="scale(1,-1)">
            <path d="m 524.457,-602.793 c -0.32285,0.41648 -0.0621,-0.74844 -0.26126,-0.98488 -0.17814,-0.81268 0.41494,-1.69822 0.0225,-2.41704 0.20867,-0.68915 -0.19279,-1.27592 -0.0647,-2.00508 0.11047,-0.75444 -0.2278,-1.60287 -0.0939,-2.22848 -0.45904,-0.5052 0.22127,-1.31087 0.0151,-1.9416 0.41766,-0.16947 -0.0316,-0.43467 0.0592,-0.51302 -0.32008,0.0406 0.30499,-0.0286 -0.30452,-0.0666 0.61726,-0.0854 -0.46347,-0.0515 -0.74294,-0.25658 -0.51609,-0.1638 -1.17301,-0.44058 -1.87075,-0.46842 -0.72748,-0.0642 -1.30813,-0.18514 -2.07876,-0.22824 -0.27154,0.0213 -0.19833,0.0581 -0.3996,0.12866 0.207,0.11741 -0.19112,0.11377 0.17094,0.13512 -0.33025,0.34502 0.14871,0.98898 -0.28402,1.25396 0.52136,0.63303 -0.30402,1.144 0.14593,1.82087 0.0568,0.79157 0.079,1.54095 -0.10221,2.34502 -0.058,0.8253 -0.23536,1.61329 -0.44218,2.42945 -0.0876,0.71497 -0.37537,1.74969 -0.0302,2.30631 -0.49882,0.16679 0.2961,-0.25748 -0.0153,-0.0166 0.0436,0.0316 0.10568,0.03 0.15149,0.004" style="fill:none;stroke:#000000;stroke-width:1.30769;stroke-linecap:round;stroke-linejoin:round;stroke-miterlimit:10;stroke-dasharray:none;stroke-opacity:1" id="path1010" />
         </g>
         <g id="g1012" transform="scale(1,-1)">
            <path d="m 522.301,-603.512 c -0.0471,-0.28381 -0.42781,-0.0167 -0.0253,-0.25185 -0.29034,-0.40846 -0.41577,-0.94888 -0.4813,-1.48662 -0.22761,-0.74353 -0.41131,-1.52972 -0.81955,-2.20154 -0.31008,-0.47067 -0.89208,-0.66741 -1.0882,-1.23223 -0.0839,-0.43368 -1.12366,-0.93218 -0.51693,-1.23209 0.31044,0.36627 0.88027,0.46865 1.15343,0.95227 0.45953,0.50527 0.6793,1.16674 0.9659,1.76805 -0.12171,0.79264 0.88398,1.22369 0.68244,2.08956 -0.14697,0.41592 0.7598,0.96109 0.47167,1.04074 0.11555,-0.61845 -0.36367,-0.93502 -0.27645,-1.50927 -0.0355,-0.18618 -0.15701,-0.37112 -0.34673,-0.42502" style="fill:none;stroke:#000000;stroke-width:1.30769;stroke-linecap:round;stroke-linejoin:round;stroke-miterlimit:10;stroke-dasharray:none;stroke-opacity:1" id="path1014" />
         </g>
         <g id="g1016" transform="scale(1,-1)">
            <path d="m 429.14438,-618.23883 c -0.0504,0.44534 -1.26691,-0.43801 -1.26691,-0.43801 -0.33921,-0.23804 -0.74097,-0.26791 -1.12467,-0.0967 -0.34948,0.2003 -0.76066,0.57771 -0.92452,0.85945 -0.0923,0.29011 -0.40753,0.67313 -0.22061,1.06476 0.13478,0.49302 0.56152,0.78178 1.0715,0.72988 0.78775,4.8e-4 1.50389,-0.39051 2.21737,-0.67024 0.52316,-0.60244 0.24784,-1.44914 0.24784,-1.44914" style="fill:none;stroke:#000000;stroke-width:1.30769;stroke-linecap:round;stroke-linejoin:round;stroke-miterlimit:10;stroke-dasharray:none;stroke-opacity:1" id="path1018" sodipodi:nodetypes="cccccccc" />
         </g>
         <g id="g1020" transform="scale(1,-1)">
            <path d="m 399.07366,-634.22942 c -0.27303,0.19569 -0.60245,-0.0316 -0.89916,0.0413 -0.0446,0.14218 0.15248,0.31882 -0.12986,0.35692 -0.22373,0.1155 -0.37047,0.45009 -0.16579,0.64998 0.17128,0.14997 0.0474,0.38183 -0.0307,0.54577 -0.13459,0.20165 -0.003,0.40513 0.0206,0.60976 0.0479,0.30138 0.28148,0.55026 0.57373,0.63045 0.42003,0.19335 0.89177,0.0727 1.31793,-0.0299 0.40417,-0.13021 0.79358,-0.34977 1.07759,-0.66898 0.20369,-0.25793 0.3383,-0.57564 0.36257,-0.90466 -0.10294,-0.41019 -0.11119,-0.88208 -0.42335,-1.20352 -0.17859,-0.31202 -0.59579,-0.3277 -0.89946,-0.21733 -0.26262,0.0803 -0.52454,0.19461 -0.80404,0.19022 z" style="fill:none;stroke:#000000;stroke-width:1.30769;stroke-linecap:round;stroke-linejoin:round;stroke-miterlimit:10;stroke-dasharray:none;stroke-opacity:1" id="path1022" sodipodi:nodetypes="ccccccccccccc" />
         </g>
         <g id="g1024" transform="scale(1,-1)">
            <path d="m 394.91,-678.914 c -0.2936,0.12408 0.18386,-0.30026 0.0821,-0.26015 0,0 -2.02361,-0.41142 -2.68696,0.52367 -0.21948,0.16458 -0.21111,0.46931 -0.16458,0.60133 -0.32147,0.24451 -0.4477,0.59651 -0.054,0.85128 0.24099,0.49724 0.80582,0.6621 1.29389,0.82577 0.46354,0.13906 0.9491,0.0226 1.39681,-0.10102 0.39552,-0.15566 0.78379,-0.61709 0.77605,-1.01295 0.0712,-0.56386 -0.5406,-0.79843 -0.66194,-1.31874 -0.29772,-0.41945 -0.90549,-0.21067 -1.21573,-0.61597" style="fill:none;stroke:#000000;stroke-width:1.30769;stroke-linecap:round;stroke-linejoin:round;stroke-miterlimit:10;stroke-dasharray:none;stroke-opacity:1" id="path1026" sodipodi:nodetypes="cccccccccc" />
         </g>
         <g id="g1028" transform="scale(1,-1)">
            <path d="m 417.5975,-702.71136 c 0.0245,-0.20712 0.13505,-0.034 0.35087,-0.12053 -0.47755,-0.12731 -1.53353,0.19256 -1.98859,0.36989 -0.58979,0.144 -0.67685,1.14469 -0.0607,1.30618 0.33949,0.32209 0.73878,0.64947 1.26937,0.59398 0.4187,0.0722 1.00737,0.34397 1.19304,-0.23661 0.14,-0.44897 0.46911,-0.83917 0.53325,-1.30268 -0.18729,-0.3328 -0.5224,-0.73258 -0.94637,-0.73076 -0.11432,0.0359 -0.28247,-0.002 -0.35087,0.12053" style="fill:none;stroke:#000000;stroke-width:1.30769;stroke-linecap:round;stroke-linejoin:round;stroke-miterlimit:10;stroke-dasharray:none;stroke-opacity:1" id="path1030" sodipodi:nodetypes="ccccccccc" />
         </g>
         <g id="g1032" transform="scale(1,-1)">
            <path d="m 444.47342,-682.01701 c -0.39782,-0.37928 -0.44582,-1.34529 -2.63079,-1.27499 -0.0687,0.3188 -0.69166,0.22566 -0.58409,0.71704 -0.0251,0.32045 0.006,0.93651 0.31534,1.30209 0.25744,0.47068 0.78464,0.7134 1.10408,1.12191 0.38717,0.18007 1.29999,0.37725 1.43197,-0.3254 0.56006,-0.29513 0.43347,-1.00991 0.36349,-1.54065" style="fill:none;stroke:#000000;stroke-width:1.30769;stroke-linecap:round;stroke-linejoin:round;stroke-miterlimit:10;stroke-dasharray:none;stroke-opacity:1" id="path1034" sodipodi:nodetypes="ccccccc" />
         </g>
         <g id="g1036" transform="scale(1,-1)">
            <path d="m 448.2424,-642.33318 c -0.12157,-0.0427 -0.29558,0.13535 0,0 -1.18628,-0.11373 -1.6531,0.0187 -1.66918,1.13036 0.0969,0.50923 0.0118,1.08305 0.51751,1.4147 0.36903,0.3672 0.0392,0.85533 0.59475,1.06704 0.35398,0.2252 0.82632,0.32719 1.16816,0.0173 0.34906,-0.29692 0.80461,-0.52081 1.02127,-0.93939 -0.1027,-0.44427 0.65136,-0.73261 0.32415,-1.16176 -0.3809,-0.0757 -0.0843,-0.52865 -0.49534,-0.64337 -0.25933,-0.45259 -0.69277,-0.71363 -1.21059,-0.77942 -0.44557,-0.0834 -0.9064,-0.16172 -1.3481,-0.0106" style="fill:none;stroke:#000000;stroke-width:1.30769;stroke-linecap:round;stroke-linejoin:round;stroke-miterlimit:10;stroke-dasharray:none;stroke-opacity:1" id="path1038" sodipodi:nodetypes="ccccccccccc" />
         </g>
         <g id="g1040" transform="scale(1,-1)">
            <path d="m 516.309,-625.117 c -5.38144,-0.40394 -2.039,6.422 2.453,2.23 0.136,-1.472 -1.106,-2.406 -2.453,-2.23" style="fill:none;stroke:#000000;stroke-width:1.30769;stroke-linecap:round;stroke-linejoin:round;stroke-miterlimit:10;stroke-dasharray:none;stroke-opacity:1" id="path1042" sodipodi:nodetypes="ccc" />
         </g>
         <g id="g1044" transform="scale(1,-1)">
            <path d="m 538.535,-622.809 c -8.387,0.797 5.668,6.973 0,0" style="fill:none;stroke:#000000;stroke-width:1.30769;stroke-linecap:round;stroke-linejoin:round;stroke-miterlimit:10;stroke-dasharray:none;stroke-opacity:1" id="path1046" sodipodi:nodetypes="cc" />
         </g>
         <g id="g1048" transform="scale(1,-1)">
            <path d="m 546.801,-655.406 c -3.785,2.851 3.781,5.824 0.726,0.761 l -0.699,-0.3 -0.73,0.039" style="fill:none;stroke:#000000;stroke-width:1.30769;stroke-linecap:round;stroke-linejoin:round;stroke-miterlimit:10;stroke-dasharray:none;stroke-opacity:1" id="path1050" />
         </g>
         <g id="g1052" transform="scale(1,-1)">
            <path d="m 536.301,-692.496 c -5.141,-0.34 2.261,6.699 1.547,0.992 -0.524,-1.117 -1.887,-0.99344 -3.094,-0.65344" style="fill:none;stroke:#000000;stroke-width:1.30769;stroke-linecap:round;stroke-linejoin:round;stroke-miterlimit:10;stroke-dasharray:none;stroke-opacity:1" id="path1054" sodipodi:nodetypes="ccc" />
         </g>
         <g id="g1056" transform="scale(1,-1)">
            <path d="m 512.75961,-699.01137 c -5.332,-1.367 -0.60761,6.71437 0.83839,1.55837 -0.059,-1.02 -1.4054,-2.58708 -2.4724,-1.77408" style="fill:none;stroke:#000000;stroke-width:1.30769;stroke-linecap:round;stroke-linejoin:round;stroke-miterlimit:10;stroke-dasharray:none;stroke-opacity:1" id="path1058" sodipodi:nodetypes="ccc" />
         </g>
         <g id="g1060" transform="scale(1,-1)">
            <path d="m 504.426,-663.984 c -3.102,-4.204 -5.571,5.941 0.129,3.156 1.203,-1.488 -0.301,-4.047 -2.164,-3.899" style="fill:none;stroke:#000000;stroke-width:1.30769;stroke-linecap:round;stroke-linejoin:round;stroke-miterlimit:10;stroke-dasharray:none;stroke-opacity:1" id="path1062" />
         </g>
      </g>
   </g>
</svg>
