<?xml version="1.0" encoding="UTF-8" standalone="no"?>
<!-- Created by Ashley Blewer - This work is licensed under a Creative Commons Attribution 4.0 International License -->

<svg width="544" height="480" viewBox="0 0 143.93334 127" version="1.1" id="svg2490" inkscape:version="1.1.2 (08b2f3d93c, 2022-04-05)" sodipodi:docname="1976-vhs-1.svg"
   xmlns:inkscape="http://www.inkscape.org/namespaces/inkscape"
   xmlns:sodipodi="http://sodipodi.sourceforge.net/DTD/sodipodi-0.dtd"
   xmlns="http://www.w3.org/2000/svg"
   xmlns:svg="http://www.w3.org/2000/svg">
   <sodipodi:namedview id="namedview2492" pagecolor="#ffffff" bordercolor="#666666" borderopacity="1.0" inkscape:pageshadow="2" inkscape:pageopacity="0.0" inkscape:pagecheckerboard="0" inkscape:document-units="mm" showgrid="false" units="px" inkscape:zoom="0.90583674" inkscape:cx="272.67607" inkscape:cy="177.18425" inkscape:window-width="1848" inkscape:window-height="1136" inkscape:window-x="72" inkscape:window-y="27" inkscape:window-maximized="1" inkscape:current-layer="layer1" />
   <defs id="defs2487" />
   <g inkscape:label="Layer 1" inkscape:groupmode="layer" id="layer1">
      <g id="g11319" transform="matrix(0.35277777,0,0,0.35277777,-63.484571,-2.7678274)">
         <g id="g56" transform="matrix(1.2244963,0,0,-1.2252114,-130.07627,-10.802077)" style="stroke-width:0.816424">
            <path d="m 344.379,-91.668 c 0,0.801 -2.512,3.25 -3.57,4.961 -2.196,2.828 -4.21209,6.452113 -6.06309,9.147113 -1.039,1.211 -0.0189,-0.07311 -0.20691,0.180887 0.055,2.551 -0.461,6.43 -0.168,9.426 0.516,3.25 -0.121,6.949 0.09,9.039 -0.328,2.207 0.863,0.172 1.613,-1.484 2.305,-3.832 4.149,-8.395 6.305,-11.61 0.691,-1.554 0.309,-0.242 0.559,-1.988 0.703,-2.484 -0.133,-7.285 0.91,-10.188 0.175,-2.093 -0.172,-5.273 0.14,-6.976" style="fill:none;stroke:#000000;stroke-width:2.13526;stroke-linecap:round;stroke-linejoin:round;stroke-miterlimit:10;stroke-dasharray:none;stroke-opacity:1" id="path58" sodipodi:nodetypes="ccccccccccc" />
         </g>
         <g id="g60" transform="matrix(1.2244963,0,0,-1.2252114,-130.07627,-10.802077)" style="stroke-width:0.816424">
            <path d="M 334.461,-57.627754 468.734,-48.109 c 2.899,-0.633 2.602,-0.618 2.899,-0.633" style="fill:none;stroke:#000000;stroke-width:2.13526;stroke-linecap:round;stroke-linejoin:round;stroke-miterlimit:10;stroke-dasharray:none;stroke-opacity:1" id="path62" sodipodi:nodetypes="ccc" />
         </g>
         <g id="g64" transform="matrix(1.2244963,0,0,-1.2252114,-130.07627,-10.802077)" style="stroke-width:0.816424">
            <path d="m 471.633,-48.742 c 4.793,-2.559 10.32,-6.199 14.621,-9.867 0.738,-0.739 1.398,-1.707 2.246,-1.868" style="fill:none;stroke:#000000;stroke-width:2.13526;stroke-linecap:round;stroke-linejoin:round;stroke-miterlimit:10;stroke-dasharray:none;stroke-opacity:1" id="path66" />
         </g>
         <g id="g68" transform="matrix(1.2244963,0,0,-1.2252114,-130.07627,-10.802077)" style="stroke-width:0.816424">
            <path d="m 342.379,-72.008 c 14.25,1.915 34.16,3.102 49.129,4.383 20.074,2.516 40.617,4.711 60.722,6.207 10.59,0.27 20.887,0.281 31.387,0.668 1.024,-0.066 1.715,0.23 2.223,-0.059" style="fill:none;stroke:#000000;stroke-width:2.13526;stroke-linecap:round;stroke-linejoin:round;stroke-miterlimit:10;stroke-dasharray:none;stroke-opacity:1" id="path70" sodipodi:nodetypes="ccccc" />
         </g>
         <g id="g72" transform="matrix(1.2244963,0,0,-1.2252114,-130.07627,-10.802077)" style="stroke-width:0.816424">
            <path d="m 344.379,-91.668 c 7.137,0.051 16.828,-0.121 23.777,0.906 11.535,0.84 23.559,2.731 35.27,2.707 17.578,0.629 34.422,2.043 52.215,3.914 10.183,0.899 19.75,1.778 29.355,1.696 1.586,-0.129 5.051,0.566 5.328,0.343 0.184,0.032 0.242,0.172 0.438,0.09" style="fill:none;stroke:#000000;stroke-width:2.13526;stroke-linecap:round;stroke-linejoin:round;stroke-miterlimit:10;stroke-dasharray:none;stroke-opacity:1" id="path74" sodipodi:nodetypes="ccccccc" />
         </g>
         <g id="g76" transform="matrix(1.2244963,0,0,-1.2252114,-130.07627,-10.802077)" style="stroke-width:0.816424">
            <path d="m 491.434,-81.43 c 0.726,-0.632 -0.579,2.086 -0.254,3.969 -0.59,3.899 -0.41,8.18 -0.274,11.527 0.25,1.848 -0.734,4.008 -1.617,4.559" style="fill:none;stroke:#000000;stroke-width:2.13526;stroke-linecap:round;stroke-linejoin:round;stroke-miterlimit:10;stroke-dasharray:none;stroke-opacity:1" id="path78" />
         </g>
         <g id="g80" transform="matrix(1.2244963,0,0,-1.2252114,-130.07627,-10.802077)" style="stroke-width:0.816424">
            <path d="m 327.844,-86.91 c -0.067,0.25 2.988,0.82 4.32,1.242 1.574,0.356 6.66627,0.457 7.47827,0.574" style="fill:none;stroke:#000000;stroke-width:2.13526;stroke-linecap:round;stroke-linejoin:round;stroke-miterlimit:10;stroke-dasharray:none;stroke-opacity:1" id="path82" sodipodi:nodetypes="ccc" />
         </g>
         <g id="g84" transform="matrix(1.2244963,0,0,-1.2252114,-130.07627,-10.802077)" style="stroke-width:0.816424">
            <path d="m 327.297,-88.246 c 0.281,-0.625 0.863,-3.969 1.023,-5.875 -0.293,-3.211 0.942,-6.363 0.95,-9.274 0.089,-0.433 1.49035,-4.02163 1.28635,-3.68963" style="fill:none;stroke:#000000;stroke-width:2.13526;stroke-linecap:round;stroke-linejoin:round;stroke-miterlimit:10;stroke-dasharray:none;stroke-opacity:1" id="path86" sodipodi:nodetypes="cccc" />
         </g>
         <g id="g88" transform="matrix(1.2244963,0,0,-1.2252114,-130.07627,-10.802077)" style="stroke-width:0.816424">
            <path d="m 327.18155,-86.988359 c 10.687,-3.523 24.18945,-7.792641 34.06045,-12.343641 3.11,-0.617 6.25,-2.246 8.711,-2.492" style="fill:none;stroke:#000000;stroke-width:2.13526;stroke-linecap:round;stroke-linejoin:round;stroke-miterlimit:10;stroke-dasharray:none;stroke-opacity:1" id="path90" sodipodi:nodetypes="ccc" />
         </g>
         <g id="g92" transform="matrix(1.2244963,0,0,-1.2252114,-130.07627,-10.802077)" style="stroke-width:0.816424">
            <path d="m 330.598,-107.418 c 4.863,-1.617 10.234,-3.059 15.183,-4.562 7.817,-2.235 14.778,-5.508 21.766,-7.825 1.66,-0.746 3.855,-1.039 3.824,-1.144 0.637,0.976 -0.226,4.793 -0.234,7.094 -0.727,3.82 -0.547,8.109 -1.196,11.316 0.247,0.016 -0.269,0.422 -0.054,0.25" style="fill:none;stroke:#000000;stroke-width:2.13526;stroke-linecap:round;stroke-linejoin:round;stroke-miterlimit:10;stroke-dasharray:none;stroke-opacity:1" id="path94" />
         </g>
         <g id="g96" transform="matrix(1.2244963,0,0,-1.2252114,-130.07627,-10.802077)" style="stroke-width:0.816424">
            <path d="m 369.953,-101.824 c 7.653,3.84 19.805,6.832 28.164,8.254 9.153,1.562 18.246,2.476 27.461,4.984 2.125,0.383 6.52084,2.122587 8.38384,2.189587" style="fill:none;stroke:#000000;stroke-width:2.13526;stroke-linecap:round;stroke-linejoin:round;stroke-miterlimit:10;stroke-dasharray:none;stroke-opacity:1" id="path98" sodipodi:nodetypes="cccc" />
         </g>
         <g id="g100" transform="matrix(1.2244963,0,0,-1.2252114,-130.07627,-10.802077)" style="stroke-width:0.816424">
            <path d="m 371.371,-120.949 c 2.594,-0.543 10.059,0.695 13.621,1.41 14.395,2.984 28.942,5.23 43.27,8.664 7.89,1.801 16.156,3.508 23.875,5.094 6.051,1.301 11.867,2.551 17.843,3.328 4.43,0.648 10.055,0.387 14.594,2.035 2.61,0.059 6.094,1.488 6.992,1.805" style="fill:none;stroke:#000000;stroke-width:2.13526;stroke-linecap:round;stroke-linejoin:round;stroke-miterlimit:10;stroke-dasharray:none;stroke-opacity:1" id="path102" sodipodi:nodetypes="ccccccc" />
         </g>
         <g id="g104" transform="matrix(1.2244963,0,0,-1.2252114,-130.07627,-10.802077)" style="stroke-width:0.816424">
            <path d="m 491.566,-98.613 c 1.023,-1.215 0.688,5.554 0.5,7.359 -0.511,3.027 0.235,5.918 -0.332,8.211" style="fill:none;stroke:#000000;stroke-width:2.13526;stroke-linecap:round;stroke-linejoin:round;stroke-miterlimit:10;stroke-dasharray:none;stroke-opacity:1" id="path106" sodipodi:nodetypes="ccc" />
         </g>
         <g id="g108" transform="matrix(1.2244963,0,0,-1.2252114,-130.07627,-10.802077)" style="stroke-width:0.816424">
            <path d="m 441.97638,-108.33228 c -1.324,-0.352 8.26962,-0.39072 9.49662,-0.46072 6.121,0.344 13.515,-0.586 18.886,0.027 -0.304,-0.058 0.227,0.114 -0.047,-0.16" style="fill:none;stroke:#000000;stroke-width:2.13526;stroke-linecap:round;stroke-linejoin:round;stroke-miterlimit:10;stroke-dasharray:none;stroke-opacity:1" id="path110" sodipodi:nodetypes="cccc" />
         </g>
         <g id="g112" transform="matrix(1.2244963,0,0,-1.2252114,-130.07627,-10.802077)" style="stroke-width:0.816424">
            <path d="m 471.211,-103.05262 c 0.176,-0.278 -0.086,-4.32238 -0.652,-4.64238" style="fill:none;stroke:#000000;stroke-width:2.13526;stroke-linecap:round;stroke-linejoin:round;stroke-miterlimit:10;stroke-dasharray:none;stroke-opacity:1" id="path114" sodipodi:nodetypes="cc" />
         </g>
         <g id="g116" transform="matrix(1.2244963,0,0,-1.2252114,-130.07627,-10.802077)" style="stroke-width:0.816424">
            <path d="m 471.117,-109.543 c -0.461,-0.832 0.403,-3.559 0.113,-5.402 0.633,-3.403 0.325,-6.508 0.118,-9.383 -0.239,-0.078 0.269,0.168 -0.301,-0.258" style="fill:none;stroke:#000000;stroke-width:2.13526;stroke-linecap:round;stroke-linejoin:round;stroke-miterlimit:10;stroke-dasharray:none;stroke-opacity:1" id="path118" />
         </g>
         <g id="g120" transform="matrix(1.2244963,0,0,-1.2252114,-130.07627,-10.802077)" style="stroke-width:0.816424">
            <path d="m 328.125,-101.27 c -0.102,-0.714 -1.465,-2.23 -2.402,-3.957 -1.477,-2.238 -2.614,-3.992 -2.27,-5.367 0.371,-2.812 0.485,-6.164 1.141,-8.383 0.168,-2.503 0.402,-4.675 0.859,-7.054 0.09,-1.102 -0.031,0.051 0.235,-1.246 0.039,-0.02 0.007,-0.043 0.015,-0.067" style="fill:none;stroke:#000000;stroke-width:2.13526;stroke-linecap:round;stroke-linejoin:round;stroke-miterlimit:10;stroke-dasharray:none;stroke-opacity:1" id="path122" />
         </g>
         <g id="g124" transform="matrix(1.2244963,0,0,-1.2252114,-130.07627,-10.802077)" style="stroke-width:0.816424">
            <path d="m 325.453,-110.066 c 0.914,0.128 2.887,0.339 3.637,0.207" style="fill:none;stroke:#000000;stroke-width:2.13526;stroke-linecap:round;stroke-linejoin:round;stroke-miterlimit:10;stroke-dasharray:none;stroke-opacity:1" id="path126" />
         </g>
         <g id="g128" transform="matrix(1.2244963,0,0,-1.2252114,-130.07627,-10.802077)" style="stroke-width:0.816424">
            <path d="m 328.02,-128.324 c 11.542,0.453 23.679,1.551 35.441,2.234 9.508,1.008 19.383,0.891 28.652,0.512 8.141,0.238 16.262,0.207 24.625,0.383 17.99399,-1.39653 53.42889,-0.41847 54.532,-0.731" style="fill:none;stroke:#000000;stroke-width:2.13526;stroke-linecap:round;stroke-linejoin:round;stroke-miterlimit:10;stroke-dasharray:none;stroke-opacity:1" id="path130" sodipodi:nodetypes="ccccc" />
         </g>
         <g id="g132" transform="matrix(1.2244963,0,0,-1.2252114,-130.07627,-10.802077)" style="stroke-width:0.816424">
            <path d="m 343.543,-128.984 c 1.129,-0.707 4.527,-1.688 6.34,-2.719 5.258,-1.852 10.535,-6.305 15.324,-7.465 2.945,-0.637 1.258,-0.727 2.141,-0.281 7.683,2.511 16.031,4.277 23.961,6.031 6.687,1.008 12.933,2.773 19.179,3.781 3.696,0.809 12.21989,3.33745 15.66089,3.97845" style="fill:none;stroke:#000000;stroke-width:2.13526;stroke-linecap:round;stroke-linejoin:round;stroke-miterlimit:10;stroke-dasharray:none;stroke-opacity:1" id="path134" sodipodi:nodetypes="ccccccc" />
         </g>
         <g id="g136" transform="matrix(1.2244963,0,0,-1.2252114,-130.07627,-10.802077)" style="stroke-width:0.816424">
            <path d="m 328.02,-128.324 c -0.043,0.34 2.902,-4.617 2.742,-6.094 0.05,-2.848 -0.594,-4.41 -1.207,-7.301 -0.453,-0.601 -0.121,-0.293 0.211,0.051" style="fill:none;stroke:#000000;stroke-width:2.13526;stroke-linecap:round;stroke-linejoin:round;stroke-miterlimit:10;stroke-dasharray:none;stroke-opacity:1" id="path138" sodipodi:nodetypes="cccc" />
         </g>
         <g id="g140" transform="matrix(1.2244963,0,0,-1.2252114,-130.07627,-10.802077)" style="stroke-width:0.816424">
            <path d="m 330.016,-141.742 c 4.015,-1.238 9.41,-4.028 14.277,-5.863 6.269,-3.54 13.391,-7.372 20.223,-9.903 1.707,-0.722 5.39,-2.203 5.714,-2.324 0.247,-0.145 -0.312,-0.004 -0.386,0.578 l -0.032,0.066" style="fill:none;stroke:#000000;stroke-width:2.13526;stroke-linecap:round;stroke-linejoin:round;stroke-miterlimit:10;stroke-dasharray:none;stroke-opacity:1" id="path142" />
         </g>
         <g id="g144" transform="matrix(1.2244963,0,0,-1.2252114,-130.07627,-10.802077)" style="stroke-width:0.816424">
            <path d="m 368.98,-158.504 c 0.016,-1.351 0.555,3.481 0.219,5.297 0.106,5.023 -1.48,9.622 -1.851,13.758 -0.859,-1.054 0.02,-0.004 0,0" style="fill:none;stroke:#000000;stroke-width:2.13526;stroke-linecap:round;stroke-linejoin:round;stroke-miterlimit:10;stroke-dasharray:none;stroke-opacity:1" id="path146" sodipodi:nodetypes="cccc" />
         </g>
         <g id="g148" transform="matrix(1.2244963,0,0,-1.2252114,-130.07627,-10.802077)" style="stroke-width:0.816424">
            <path d="m 370.23,-159.832 c 14.574,2.449 33.227,6.98 47.618,9.812 11.015,2.536 21.769,5.59 33.004,7.918 6.488,1.497 11.929,3.024 19.003,3.895 4.004,0.816 8.309,1.414 11.801,2.336 1.715,0.582 1.942,0.285 2.211,0.82 0.258,0.422 0.875,0.512 1.321,0.645" style="fill:none;stroke:#000000;stroke-width:2.13526;stroke-linecap:round;stroke-linejoin:round;stroke-miterlimit:10;stroke-dasharray:none;stroke-opacity:1" id="path150" sodipodi:nodetypes="ccccccc" />
         </g>
         <g id="g152" transform="matrix(1.2244963,0,0,-1.2252114,-130.07627,-10.802077)" style="stroke-width:0.816424">
            <path d="m 486.379,-134.121 c -0.063,-0.852 0.062,3.144 -0.109,4.211 0.285,4.16 0.593,9.969 0.648,12.558 0.141,-0.113 -0.164,0.168 0.031,0.368" style="fill:none;stroke:#000000;stroke-width:2.13526;stroke-linecap:round;stroke-linejoin:round;stroke-miterlimit:10;stroke-dasharray:none;stroke-opacity:1" id="path154" />
         </g>
         <g id="g156" transform="matrix(1.2244963,0,0,-1.2252114,-130.07627,-10.802077)" style="stroke-width:0.816424">
            <path d="m 471.97325,-120.53384 c -1.05,0.539 4.21775,0.84584 5.26075,1.44784 0.0849,-0.0571 9.715,2.102 9.715,2.102" style="fill:none;stroke:#000000;stroke-width:2.13526;stroke-linecap:round;stroke-linejoin:round;stroke-miterlimit:10;stroke-dasharray:none;stroke-opacity:1" id="path158" sodipodi:nodetypes="ccc" />
         </g>
         <g id="g160" transform="matrix(1.2244963,0,0,-1.2252114,-130.07627,-10.802077)" style="stroke-width:0.816424">
            <path d="m 486.461,-116.238 c 0.809,0.59 -2.957,2.289 -4.856,2.804 -2.917,1.219 -5.949,2.797 -8.699,3.114" style="fill:none;stroke:#000000;stroke-width:2.13526;stroke-linecap:round;stroke-linejoin:round;stroke-miterlimit:10;stroke-dasharray:none;stroke-opacity:1" id="path162" />
         </g>
         <g id="g164" transform="matrix(1.2244963,0,0,-1.2252114,-130.07627,-10.802077)" style="stroke-width:0.816424">
            <path d="m 487.582,-134.5 c 2.172,0.207 4.82,-2.527 6.254,-2.633" style="fill:none;stroke:#000000;stroke-width:2.13526;stroke-linecap:round;stroke-linejoin:round;stroke-miterlimit:10;stroke-dasharray:none;stroke-opacity:1" id="path166" />
         </g>
         <g id="g168" transform="matrix(1.2244963,0,0,-1.2252114,-130.07627,-10.802077)" style="stroke-width:0.816424">
            <path d="m 494.004,-137.836 c 0.332,-0.426 0.719,-4.148 0.601,-5.82 -0.05,-3.629 0.184,-8.348 0.211,-10.797 -0.269,-0.004 -1.499,-2.425 -1.671,-2.289" style="fill:none;stroke:#000000;stroke-width:2.13526;stroke-linecap:round;stroke-linejoin:round;stroke-miterlimit:10;stroke-dasharray:none;stroke-opacity:1" id="path170" sodipodi:nodetypes="cccc" />
         </g>
         <g id="g172" transform="matrix(1.2244963,0,0,-1.2252114,-130.07627,-10.802077)" style="stroke-width:0.816424">
            <path d="m 336.707,-147.137 c -0.25,-0.687 1.426,-4.289 0.555,-6.152 0.156,-1.527 0.601,-5.047 0.449,-5.098" style="fill:none;stroke:#000000;stroke-width:2.13526;stroke-linecap:round;stroke-linejoin:round;stroke-miterlimit:10;stroke-dasharray:none;stroke-opacity:1" id="path174" />
         </g>
         <g id="g176" transform="matrix(1.2244963,0,0,-1.2252114,-130.07627,-10.802077)" style="stroke-width:0.816424">
            <path d="m 338.52,-160.051 c 4.246,-1.207 7.859,-4.918 12.257,-6.304 4.918,-2.036 8.817,-5.481 13.196,-8.063 1.648,-1.277 4.941,-3.695 5.57,-3.766 0.019,0.043 0.094,0.036 0.109,0.09" style="fill:none;stroke:#000000;stroke-width:2.13526;stroke-linecap:round;stroke-linejoin:round;stroke-miterlimit:10;stroke-dasharray:none;stroke-opacity:1" id="path178" />
         </g>
         <g id="g180" transform="matrix(1.2244963,0,0,-1.2252114,-130.07627,-10.802077)" style="stroke-width:0.816424">
            <path d="m 376.309,-160.105 c 8.777,1.968 18.046,1.851 26.855,3.566 8.395,1.605 15.676,3.797 23.961,4.805 11.102,1.187 21.375,4.066 32.18,6.996 10.336,2.468 22.273,3.812 32.355,5.097 -0.555,-0.132 -0.133,0.153 -0.078,-0.136" style="fill:none;stroke:#000000;stroke-width:2.13526;stroke-linecap:round;stroke-linejoin:round;stroke-miterlimit:10;stroke-dasharray:none;stroke-opacity:1" id="path182" />
         </g>
         <g id="g184" transform="matrix(1.2244963,0,0,-1.2252114,-130.07627,-10.802077)" style="stroke-width:0.816424">
            <path d="m 372.023,-178.402 c 21.27,1.656 42.418,4.644 63.141,9.437 13.934,1.871 26.996,7.313 40.844,8.848 5.449,1.137 11.937,1.789 16.758,3.152 0.234,-0.133 0.296,0.172 0.379,0.223" style="fill:none;stroke:#000000;stroke-width:2.13526;stroke-linecap:round;stroke-linejoin:round;stroke-miterlimit:10;stroke-dasharray:none;stroke-opacity:1" id="path186" />
         </g>
         <g id="g188" transform="matrix(1.2244963,0,0,-1.2252114,-130.07627,-10.802077)" style="stroke-width:0.816424">
            <path d="m 337.004,-160.438 c -0.715,0.661 -3.051,1.586 -2.836,1.305 0.098,-1.773 -0.316,-6.57 -0.031,-10.168 -0.207,-1.293 0.054,-5.187 0.246,-4.551 3.637,-2.644 8.375,-4.781 12.242,-7.582 5.09,-2.445 9.832,-5.398 14.34,-8.48 1.937,-1.102 4.597,-3.559 5.59,-3.91 0.5,-0.106 0.769,-0.735 0.418,-0.059 -2.508,4.313 -0.082,9.723 -0.621,14.403 0.468,1.429 0.265,1.863 0.128,1.933" style="fill:none;stroke:#000000;stroke-width:2.13526;stroke-linecap:round;stroke-linejoin:round;stroke-miterlimit:10;stroke-dasharray:none;stroke-opacity:1" id="path190" />
         </g>
         <g id="g192" transform="matrix(1.2244963,0,0,-1.2252114,-130.07627,-10.802077)" style="stroke-width:0.816424">
            <path d="m 364.082,-177.074 c -6.176,4.121 -11.801,9.648 -18.828,12.34 -2.473,1.125 -6.274,2.8 -7.996,3.179" style="fill:none;stroke:#000000;stroke-width:2.13526;stroke-linecap:round;stroke-linejoin:round;stroke-miterlimit:10;stroke-dasharray:none;stroke-opacity:1" id="path194" />
         </g>
         <g id="g196" transform="matrix(1.2244963,0,0,-1.2252114,-130.07627,-10.802077)" style="stroke-width:0.816424">
            <path d="m 369.789,-192.695 c 8.395,1.187 17.348,3.172 26.027,3.363 11.289,1.762 22.063,4.172 32.969,5.863 12.313,2.828 23.906,6.594 36.574,8.485 7.161,2.136 15.653,1.949 22.606,3.945 -0.32,-0.027 1.707,0.516 0.894,0.363 -0.547,1.672 -0.203,6.582 -0.363,8.977 0.125,1.418 0.332,2.941 0.223,3.402" style="fill:none;stroke:#000000;stroke-width:2.13526;stroke-linecap:round;stroke-linejoin:round;stroke-miterlimit:10;stroke-dasharray:none;stroke-opacity:1" id="path198" />
         </g>
         <g id="g200" transform="matrix(1.2244963,0,0,-1.2252114,-130.07627,-10.802077)" style="stroke-width:0.816424">
            <path d="m 336.445,-176.969 c -1.133,0.449 0.094,0.239 -1.945,0.301 -3.148,0.09 0.082,-3.809 -1.066,-6.648 -0.426,-3.512 0.25,-8.243 0.203,-10.707 -0.184,-0.61 -0.258,-0.075 1.609,-1.485 5.531,-3.566 11.535,-6.453 17.203,-9.832 3.774,-1.941 8.055,-3.976 11.305,-6.105 2.09,-1.196 4.215,-1.942 5.773,-2.836 0.7,-0.301 1.832,-0.871 2.129,-0.922 0.106,-0.055 0.274,-0.164 0.414,-0.113 0.543,1.668 -1.246,6.929 -0.465,9.941 0.29,3.316 -0.203,7.074 -0.218,7.051 -0.301,0.179 -3.211,2.398 -5.039,2.949 -0.649,0.379 -1.274,0.695 -1.926,0.984" style="fill:none;stroke:#000000;stroke-width:2.13526;stroke-linecap:round;stroke-linejoin:round;stroke-miterlimit:10;stroke-dasharray:none;stroke-opacity:1" id="path202" />
         </g>
         <g id="g204" transform="matrix(1.2244963,0,0,-1.2252114,-130.07627,-10.802077)" style="stroke-width:0.816424">
            <path d="m 373.449,-197.672 c 6.09,0.832 12.489,2.242 18.59,3.652 6.527,1.086 13.074,2.192 19.406,4.059 10.86,1.625 22.235,4.512 32.188,7.711 9.277,2.887 19.062,5.242 28.168,8.703 1.965,0.492 5.871,1.676 6.859,1.93" style="fill:none;stroke:#000000;stroke-width:2.13526;stroke-linecap:round;stroke-linejoin:round;stroke-miterlimit:10;stroke-dasharray:none;stroke-opacity:1" id="path206" />
         </g>
         <g id="g208" transform="matrix(1.2244963,0,0,-1.2252114,-130.07627,-10.802077)" style="stroke-width:0.816424">
            <path d="m 373.293,-214.523 c -1.758,-0.2 2.871,0.152 3.66,0.339 14.508,1.246 28.586,4.137 42.414,8.004 12.723,5.071 26.278,8.5 39.235,12.551 8.136,1.941 15.394,4.317 23.445,5.551 2.09,0.531 4.644,1.523 6.137,1.637 0.82,0.011 0.023,-0.582 0.211,1.246 -0.27,3.773 0.156,7.621 -0.012,11.015 0.195,1.75 0.465,5.922 0.039,5.504 0.094,-0.035 -0.512,0.074 -0.317,0.016" style="fill:none;stroke:#000000;stroke-width:2.13526;stroke-linecap:round;stroke-linejoin:round;stroke-miterlimit:10;stroke-dasharray:none;stroke-opacity:1" id="path210" />
         </g>
         <g id="g212" transform="matrix(1.2244963,0,0,-1.2252114,-130.07627,-10.802077)" style="stroke-width:0.816424">
            <path d="m 333.16,-196.941 c -0.101,-0.387 0.031,-1.446 -0.195,-2.551 0.086,-2.192 -0.723,-3.688 -0.305,-5.969 -0.687,-1.484 4.117,-7.355 7.629,-10.082 5.457,-5.66 12.223,-10.441 17.969,-14.918 1.851,-2.019 3.582,-3.543 4.625,-4.527 0,-0.614 -1.203,4.504 -0.93,6.867 0.453,2.766 -0.226,7.168 -0.242,8.891 0.328,0.207 -0.578,1.195 -2.035,2.101 -2.883,2.145 -7.324,5.871 -10.641,8.453 -5.254,3.258 -9.664,7.227 -13.976,11.852 -0.075,0.355 -0.059,0.531 -0.305,0.859" style="fill:none;stroke:#000000;stroke-width:2.13526;stroke-linecap:round;stroke-linejoin:round;stroke-miterlimit:10;stroke-dasharray:none;stroke-opacity:1" id="path214" />
         </g>
         <g id="g216" transform="matrix(1.2244963,0,0,-1.2252114,-130.07627,-10.802077)" style="stroke-width:0.816424">
            <path d="m 362.691,-219.359 c 5.098,2.57 12.977,3.254 17.383,4.656 -0.5,-0.004 0.156,-0.024 0.242,-0.024" style="fill:none;stroke:#000000;stroke-width:2.13526;stroke-linecap:round;stroke-linejoin:round;stroke-miterlimit:10;stroke-dasharray:none;stroke-opacity:1" id="path218" />
         </g>
         <g id="g220" transform="matrix(1.2244963,0,0,-1.2252114,-130.07627,-10.802077)" style="stroke-width:0.816424">
            <path d="m 363.527,-235.859 c 8.672,2.027 18.012,1.664 26.672,4.101 10.66,2.305 21.91,2.449 32.446,5.16 14.917,3.883 29.894,6.508 44.793,10.348 7.664,1.617 15.199,2.055 22.417,3.816 1.665,-0.058 1.637,0.731 1.797,3.481 1.27,2.574 -0.066,5.305 0.782,7.695 -0.926,2.93 -0.543,5.246 -0.75,6.778 0.277,0.031 -2.551,-0.352 -3.883,-1.028 -10.766,-2.812 -21.375,-5.047 -32.071,-6.512 -9.695,-2.347 -19.105,-4.57 -28.39,-6.699 -4.852,-0.922 -9.496,-1.59 -13.996,-2.519 -10.043,-2.102 -19.715,-2.301 -28.653,-4.5 -3.699,-0.84 -7.613,-1.512 -10.851,-1.797 -3.172,-0.637 -8.028,-1.078 -10.656,-0.871" style="fill:none;stroke:#000000;stroke-width:2.13526;stroke-linecap:round;stroke-linejoin:round;stroke-miterlimit:10;stroke-dasharray:none;stroke-opacity:1" id="path222" />
         </g>
         <g id="g224" transform="matrix(1.2244963,0,0,-1.2252114,-130.07627,-10.802077)" style="stroke-width:0.816424">
            <path d="m 333.523,-211.879 c -1.433,-1.109 -3.316,-0.871 -3.132,-3.488 -0.317,-2.188 -0.168,-5.195 0.074,-8.289 -0.059,-3.477 -0.305,-7.332 0.976,-10.508 0.414,-0.41 -0.652,-0.508 0.172,-0.152" style="fill:none;stroke:#000000;stroke-width:2.13526;stroke-linecap:round;stroke-linejoin:round;stroke-miterlimit:10;stroke-dasharray:none;stroke-opacity:1" id="path226" />
         </g>
         <g id="g228" transform="matrix(1.2244963,0,0,-1.2252114,-130.07627,-10.802077)" style="stroke-width:0.816424">
            <path d="m 331.742,-217.004 c 4.453,-3.09 8.981,-8.156 12.934,-12.23 4.304,-3.778 7.70791,-5.60778 11.01591,-9.75978" style="fill:none;stroke:#000000;stroke-width:2.13526;stroke-linecap:round;stroke-linejoin:round;stroke-miterlimit:10;stroke-dasharray:none;stroke-opacity:1" id="path230" sodipodi:nodetypes="ccc" />
         </g>
         <g id="g232" transform="matrix(1.2244963,0,0,-1.2252114,-130.07627,-10.802077)" style="stroke-width:0.816424">
            <path d="m 330.184,-235.039 c 6.171,-3.934 11.316,-9.531 16.82,-14.246 2.918,-2.735 6.59,-5.641 8.57,-8.297 0.567,-0.289 2.016,-1.84 1.473,-0.606 -0.164,3.43 -1.664,6.508 -1.324,10.188 -1.219,3.082 -0.305,6.801 -0.664,9.484 -0.141,0.125 -0.153,0.325 -0.129,0.52" style="fill:none;stroke:#000000;stroke-width:2.13526;stroke-linecap:round;stroke-linejoin:round;stroke-miterlimit:10;stroke-dasharray:none;stroke-opacity:1" id="path234" />
         </g>
         <g id="g236" transform="matrix(1.2244963,0,0,-1.2252114,-130.07627,-10.802077)" style="stroke-width:0.816424">
            <path d="m 355.1738,-239.453 c 9.176,2.883 24.6422,3.84 34.3852,5.914 14.546,2.211 29.41,3.285 43.425,6.984 10.45,3.262 21.356,6.145 32.403,7.606 6.058,1.062 11.968,1.961 17.465,2.406 1.566,-0.191 2.836,0.809 3.011,-0.875 -0.246,-2.484 0.836,-5.969 0.895,-8.711 0.019,-2.82 -0.332,-6.406 0.519,-8.293 0.055,0.051 -0.449,0.008 -0.57,-0.129" style="fill:none;stroke:#000000;stroke-width:2.13526;stroke-linecap:round;stroke-linejoin:round;stroke-miterlimit:10;stroke-dasharray:none;stroke-opacity:1" id="path238" sodipodi:nodetypes="ccccccccc" />
         </g>
         <g id="g240" transform="matrix(1.2244963,0,0,-1.2252114,-130.07627,-10.802077)" style="stroke-width:0.816424">
            <path d="m 357.03044,-257.94284 c 3.984,0.172 11.49656,1.07184 15.23156,2.86084 6.566,0.844 13.121,1.855 19.828,1.699 11.176,1.024 22.394,3.543 33.558,5.981 7.911,1.679 15.508,2.449 23.481,4.496 8.094,2.633 16.637,3.699 24.883,5.461 4.527,0.851 10.508,1.851 12.898,1.922 l -0.098,-0.036 -0.015,-0.015" style="fill:none;stroke:#000000;stroke-width:2.13526;stroke-linecap:round;stroke-linejoin:round;stroke-miterlimit:10;stroke-dasharray:none;stroke-opacity:1" id="path242" sodipodi:nodetypes="ccccccccc" />
         </g>
         <g id="g244" transform="matrix(1.2244963,0,0,-1.2252114,-130.07627,-10.802077)" style="stroke-width:0.816424">
            <path d="m 330.379,-236.66 c -0.738,-0.324 -0.16,0.23 -0.938,-0.231 -1.55,-1.004 -2.195,-7.183 -2.187,-10.648 0.437,-1.457 0.18,-5.977 0.367,-4.469" style="fill:none;stroke:#000000;stroke-width:2.13526;stroke-linecap:round;stroke-linejoin:round;stroke-miterlimit:10;stroke-dasharray:none;stroke-opacity:1" id="path246" />
         </g>
         <g id="g248" transform="matrix(1.2244963,0,0,-1.2252114,-130.07627,-10.802077)" style="stroke-width:0.816424">
            <path d="m 328.012,-253.336 c 2.707,-1.242 7.531,-4.277 10.285,-6.894 6.648,-4.719 13.965,-8.735 20.625,-12.797 2.39,-1.45 5.016,-3.938 6.125,-5.493 -0.031,-0.984 0.496,2.336 0.476,4.954 0.008,2.851 -0.683,7.523 0.149,8.039 -0.172,0.316 0.066,0.75 -0.168,0.679" style="fill:none;stroke:#000000;stroke-width:2.13526;stroke-linecap:round;stroke-linejoin:round;stroke-miterlimit:10;stroke-dasharray:none;stroke-opacity:1" id="path250" />
         </g>
         <g id="g252" transform="matrix(1.2244963,0,0,-1.2252114,-130.07627,-10.802077)" style="stroke-width:0.816424">
            <path d="m 363.887,-264.941 c -2.102,1.773 -5.766,4.05 -7.481,6.316 0.164,-0.223 -0.062,-0.098 -0.254,-0.063" style="fill:none;stroke:#000000;stroke-width:2.13526;stroke-linecap:round;stroke-linejoin:round;stroke-miterlimit:10;stroke-dasharray:none;stroke-opacity:1" id="path254" />
         </g>
         <g id="g256" transform="matrix(1.2244963,0,0,-1.2252114,-130.07627,-10.802077)" style="stroke-width:0.816424">
            <path d="m 328.344,-237.672 c 2.148,0.188 6.265,-3.758 8.625,-5.422 0.84,-0.5 1.617,-1.39 2.629,-2.039" style="fill:none;stroke:#000000;stroke-width:2.13526;stroke-linecap:round;stroke-linejoin:round;stroke-miterlimit:10;stroke-dasharray:none;stroke-opacity:1" id="path258" />
         </g>
         <g id="g260" transform="matrix(1.2244963,0,0,-1.2252114,-130.07627,-10.802077)" style="stroke-width:0.816424">
            <path d="m 364.46606,-264.70651 c 3.461,0.418 11.70194,5.10451 15.76794,5.87451 10.317,2.332 20.528,5.258 30.895,7.09 2.726,0.609 6.273,1.875 9.305,1.984" style="fill:none;stroke:#000000;stroke-width:2.13526;stroke-linecap:round;stroke-linejoin:round;stroke-miterlimit:10;stroke-dasharray:none;stroke-opacity:1" id="path262" sodipodi:nodetypes="cccc" />
         </g>
         <g id="g264" transform="matrix(1.2244963,0,0,-1.2252114,-130.07627,-10.802077)" style="stroke-width:0.816424">
            <path d="m 365.46491,-278.90676 c 17.145,4.239 37.80109,7.46876 54.86309,12.69576 11.41,2.738 22.301,5.328 33.543,9.344 7.434,2.113 15.414,3.777 22.231,5.988 2.378,0.52 4.125,1.024 6.234,1.371 2.25,0.387 0.305,0.074 2.836,0.863 0.531,0.043 -0.008,-0.14 0.359,1.032 -1.156,1.234 -0.703,5.011 -0.765,7.191 -0.328,1.817 1.355,4.227 0.277,4.16" style="fill:none;stroke:#000000;stroke-width:2.13526;stroke-linecap:round;stroke-linejoin:round;stroke-miterlimit:10;stroke-dasharray:none;stroke-opacity:1" id="path266" sodipodi:nodetypes="ccccccccc" />
         </g>
         <g id="g268" transform="matrix(1.2244963,0,0,-1.2252114,-130.07627,-10.802077)" style="stroke-width:0.816424">
            <path d="m 488.02,-230.348 c 1.785,-1.363 5.628,-2.867 8.214,-4.254 5.985,-2.949 12.114,-7.773 17.325,-10.328 l -0.055,-0.023 0.019,-0.008" style="fill:none;stroke:#000000;stroke-width:2.13526;stroke-linecap:round;stroke-linejoin:round;stroke-miterlimit:10;stroke-dasharray:none;stroke-opacity:1" id="path270" />
         </g>
         <g id="g272" transform="matrix(1.2244963,0,0,-1.2252114,-130.07627,-10.802077)" style="stroke-width:0.816424">
            <path d="m 485.59137,-243.68087 c 8.832,-4.07 19.06863,-9.94813 27.24863,-15.23713 1.222,-1.023 4.594,-2.383 4.937,-2.422 -1.683,4.254 -3.621,9.914 -4.586,14.703 -0.168,0.477 -0.211,0.168 -0.144,1.059" style="fill:none;stroke:#000000;stroke-width:2.13526;stroke-linecap:round;stroke-linejoin:round;stroke-miterlimit:10;stroke-dasharray:none;stroke-opacity:1" id="path274" sodipodi:nodetypes="ccccc" />
         </g>
         <g id="g276" transform="matrix(1.2244963,0,0,-1.2252114,-130.07627,-10.802077)" style="stroke-width:0.816424">
            <path d="m 513.559,-244.93 c 5.801,3.465 23.507,7.047 29.789,9.434 7.035,1.715 14.093,3.32 20.699,6.226 2.879,1.243 7.519,2.582 9.808,2.797 1.672,0.379 2.348,0.496 3.211,-1.558 1.653,-3.09 2.555,-7.547 2.309,-10.637 -7.648,-4.617 -16.863,-7.852 -25.828,-10.02 -6.758,-1.308 -13.399,-3.14 -19.836,-5.347 -5.242,-2.797 -10.899,-5.317 -15.879,-7.957 -0.012,-0.09 -0.176,-0.149 -0.141,-0.231" style="fill:none;stroke:#000000;stroke-width:2.13526;stroke-linecap:round;stroke-linejoin:round;stroke-miterlimit:10;stroke-dasharray:none;stroke-opacity:1" id="path278" sodipodi:nodetypes="cccccccccc" />
         </g>
         <g id="g280" transform="matrix(1.2244963,0,0,-1.2252114,-130.07627,-10.802077)" style="stroke-width:0.816424">
            <path d="m 577.066,-228.031 c 0.898,-0.172 -1.777,4.871 -2.437,5.676 -8.195,6.976 -22.19136,13.43727 -31.20336,18.65227" style="fill:none;stroke:#000000;stroke-width:2.13526;stroke-linecap:round;stroke-linejoin:round;stroke-miterlimit:10;stroke-dasharray:none;stroke-opacity:1" id="path282" sodipodi:nodetypes="ccc" />
         </g>
         <g id="g284" transform="matrix(1.2244963,0,0,-1.2252114,-130.07627,-10.802077)" style="stroke-width:0.816424">
            <path d="m 493.492,-199.793 c 5.371,-1.238 12.524,-3.344 17.914,-4.332 3.688,-0.484 1.344,-5.598 2.789,-8.656 -0.175,-2.172 0.168,-6 0.258,-6.992 0.133,-0.286 -3.902,1.078 -5.512,1.464 -5.379,1.121 -10.89,2.5 -16.183,3.153 -0.129,-0.012 -7.25411,1.59126 -7.31611,1.54826" style="fill:none;stroke:#000000;stroke-width:2.13526;stroke-linecap:round;stroke-linejoin:round;stroke-miterlimit:10;stroke-dasharray:none;stroke-opacity:1" id="path286" sodipodi:nodetypes="ccccccc" />
         </g>
         <g id="g288" transform="matrix(1.2244963,0,0,-1.2252114,-130.07627,-10.802077)" style="stroke-width:0.816424">
            <path d="m 514.453,-219.773 c -0.727,-0.489 4.285,3.457 5.004,4.074 6.231,3.242 12.59,6.273 18.664,9.586 5.41,4.113 11.668,7.949 17.883,9.855 -0.039,0.074 -0.051,0.028 0.066,-0.23" style="fill:none;stroke:#000000;stroke-width:2.13526;stroke-linecap:round;stroke-linejoin:round;stroke-miterlimit:10;stroke-dasharray:none;stroke-opacity:1" id="path290" sodipodi:nodetypes="ccccc" />
            <path d="M 513.01889,-204.40118 552.562,-179.672" style="fill:none;stroke:#000000;stroke-width:2.61538;stroke-linecap:round;stroke-linejoin:round;stroke-miterlimit:10;stroke-dasharray:none;stroke-opacity:1" id="path290-1" sodipodi:nodetypes="cc" />
         </g>
         <g id="g292" transform="matrix(1.2244963,0,0,-1.2252114,-130.07627,-10.802077)" style="stroke-width:0.816424">
            <path d="m 556.406,-196.348 c -0.902,2.059 -0.89,6.621 -1.289,9.528 0.016,2.425 -3.606,6.007 -2.555,7.148" style="fill:none;stroke:#000000;stroke-width:2.13526;stroke-linecap:round;stroke-linejoin:round;stroke-miterlimit:10;stroke-dasharray:none;stroke-opacity:1" id="path294" sodipodi:nodetypes="ccc" />
         </g>
         <g id="g296" transform="matrix(1.2244963,0,0,-1.2252114,-130.07627,-10.802077)" style="stroke-width:0.816424">
            <path d="m 552.562,-179.672 c -5.808,2.059 -12.441,1.098 -18.324,2.582 -9.59,1.504 -18.746,4.387 -28.207,6.391 -4.601,1.836 -10.488,3.039 -14.601,4.238 -0.133,-0.125 -0.266,-0.008 -0.41,0.031" style="fill:none;stroke:#000000;stroke-width:2.13526;stroke-linecap:round;stroke-linejoin:round;stroke-miterlimit:10;stroke-dasharray:none;stroke-opacity:1" id="path298" />
         </g>
         <g id="g300" transform="matrix(1.2244963,0,0,-1.2252114,-130.07627,-10.802077)" style="stroke-width:0.816424">
            <path d="m 276.398,-101.812 c 8.079,2.371 18.051,2.449 26.942,3.488 7.609,0.691 15.906,0.84 23.203,0.406 -0.828,-0.055 1.82014,-0.023 1.34714,-0.109" style="fill:none;stroke:#000000;stroke-width:2.13526;stroke-linecap:round;stroke-linejoin:round;stroke-miterlimit:10;stroke-dasharray:none;stroke-opacity:1" id="path302" sodipodi:nodetypes="cccc" />
         </g>
         <g id="g304" transform="matrix(1.2244963,0,0,-1.2252114,-130.07627,-10.802077)" style="stroke-width:0.816424">
            <path d="m 276.31332,-102.10889 c 0.32512,-0.1346 1.83468,-5.16111 3.08168,-6.93011 2.257,-4.156 2.515,-9.277 5.293,-13.047 0.574,-2.375 2.054,-5.164 2.488,-7.434 0.512,-2 0.605,-1.918 0.601,-1.707 8.371,1.848 17.93,1.985 26.922,2.915 4.059,-0.055 9.25,0.39 12.188,0.457" style="fill:none;stroke:#000000;stroke-width:2.13526;stroke-linecap:round;stroke-linejoin:round;stroke-miterlimit:10;stroke-dasharray:none;stroke-opacity:1" id="path306" sodipodi:nodetypes="ccccccc" />
         </g>
         <g id="g308" transform="matrix(1.2244963,0,0,-1.2252114,-130.07627,-10.802077)" style="stroke-width:0.816424">
            <path d="m 276.023,-102.0144 c -0.531,-3.16 -1.308,-10.3406 -0.957,-14.5836 -0.504,-1.156 0.43,-0.691 -0.265,-1.441" style="fill:none;stroke:#000000;stroke-width:2.13526;stroke-linecap:round;stroke-linejoin:round;stroke-miterlimit:10;stroke-dasharray:none;stroke-opacity:1" id="path310" sodipodi:nodetypes="ccc" />
         </g>
         <g id="g312" transform="matrix(1.2244963,0,0,-1.2252114,-130.07627,-10.802077)" style="stroke-width:0.816424">
            <path d="m 274.258,-118.762 c 0.406,0.086 2.004,-2.726 2.398,-4.511 2.477,-4.766 4.332,-9.61 5.621,-14.731 1.489,-2.496 2.387,-5.375 3.512,-7.57 0.93,-1.723 0.356,-3.196 1.082,-0.742 -0.34,5 0.789,9.972 0.918,14.933 0.223,1.317 1.426,2.586 0.828,1.992 -0.113,-0.019 0.02,-0.101 -0.051,-0.148" style="fill:none;stroke:#000000;stroke-width:2.13526;stroke-linecap:round;stroke-linejoin:round;stroke-miterlimit:10;stroke-dasharray:none;stroke-opacity:1" id="path314" />
         </g>
         <g id="g316" transform="matrix(1.2244963,0,0,-1.2252114,-130.07627,-10.802077)" style="stroke-width:0.816424">
            <path d="m 286.25199,-148.98452 c 2.515,0.351 9.55701,1.03552 13.01401,1.22252 7.074,0.196 14.082,1.328 21.101,0.52 4.844,-0.02 11.156,0.726 14.863,0.644 0.778,0.086 1.567,0.106 2.344,0.118" style="fill:none;stroke:#000000;stroke-width:2.13526;stroke-linecap:round;stroke-linejoin:round;stroke-miterlimit:10;stroke-dasharray:none;stroke-opacity:1" id="path318" sodipodi:nodetypes="ccccc" />
         </g>
         <g id="g320" transform="matrix(1.2244963,0,0,-1.2252114,-130.07627,-10.802077)" style="stroke-width:0.816424">
            <path d="m 288.902,-151.047 c 3.16,-2.176 5.821,-7.277 9.039,-10.687 2.164,-2.348 3.672,-5.766 5.809,-7.782 0.863,-1.007 1.992,-2.589 2.184,-2.199 1.35049,4.01836 0.29498,12.15919 2.035,14.86 -0.039,1.55 0.953,-0.227 -1.305,1.253 -2.726,1.411 -5.168,4.586 -7.559,5.399" style="fill:none;stroke:#000000;stroke-width:2.13526;stroke-linecap:round;stroke-linejoin:round;stroke-miterlimit:10;stroke-dasharray:none;stroke-opacity:1" id="path322" sodipodi:nodetypes="ccccccc" />
         </g>
         <g id="g324" transform="matrix(1.2244963,0,0,-1.2252114,-130.07627,-10.802077)" style="stroke-width:0.816424">
            <path d="m 308.05606,-156.28193 c 7.281,1.793 20.91694,0.12993 27.66694,2.32893 0.668,-0.027 -0.086,0.047 0.843,0.012" style="fill:none;stroke:#000000;stroke-width:2.13526;stroke-linecap:round;stroke-linejoin:round;stroke-miterlimit:10;stroke-dasharray:none;stroke-opacity:1" id="path326" sodipodi:nodetypes="ccc" />
         </g>
         <g id="g328" transform="matrix(1.2244963,0,0,-1.2252114,-130.07627,-10.802077)" style="stroke-width:0.816424">
            <path d="m 309.83244,-170.96661 c 6.637,1.125 15.30056,2.71661 21.76156,3.02861 0.875,0.508 2.066,0.618 2.246,0.446" style="fill:none;stroke:#000000;stroke-width:2.13526;stroke-linecap:round;stroke-linejoin:round;stroke-miterlimit:10;stroke-dasharray:none;stroke-opacity:1" id="path330" sodipodi:nodetypes="ccc" />
         </g>
         <g id="g332" transform="matrix(1.2244963,0,0,-1.2252114,-130.07627,-10.802077)" style="stroke-width:0.816424">
            <path d="m 334.746,-172.32 c -3.598,-1.879 -9.777,-2.883 -14.324,-4.407 -2.731,-0.445 -3.254,-0.226 -2.996,-3.101 0.883,-4.641 -1.063,-8.656 -0.66,-13.445 -0.36,-0.239 0.738,-0.836 2.679,-0.008 4.149,1.824 9.551,1.164 13.375,1.89 -0.375,0.032 0.059,0.016 -0.058,0.079" style="fill:none;stroke:#000000;stroke-width:2.13526;stroke-linecap:round;stroke-linejoin:round;stroke-miterlimit:10;stroke-dasharray:none;stroke-opacity:1" id="path334" />
         </g>
         <g id="g336" transform="matrix(1.2244963,0,0,-1.2252114,-130.07627,-10.802077)" style="stroke-width:0.816424">
            <path d="m 317.97312,-177.24936 c -1.933,1.102 -6.66112,4.53836 -8.10212,6.08936" style="fill:none;stroke:#000000;stroke-width:2.13526;stroke-linecap:round;stroke-linejoin:round;stroke-miterlimit:10;stroke-dasharray:none;stroke-opacity:1" id="path338" sodipodi:nodetypes="cc" />
         </g>
         <g id="g340" transform="matrix(1.2244963,0,0,-1.2252114,-130.07627,-10.802077)" style="stroke-width:0.816424">
            <path d="m 286.043,-149.043 c -1.703,0.477 -3.313,3.031 -2.727,0.406 -0.957,-3.465 -0.504,-8.425 -0.757,-11.703 0.109,-1.051 3.66,-3.664 4.976,-5.277 4.375,-5.082 9.629,-9.496 15.262,-12.875 3.824,-2.504 6.777,-5.442 10.308,-8.231 1.239,-0.691 3.352,-2.086 3.649,-3.398" style="fill:none;stroke:#000000;stroke-width:2.13526;stroke-linecap:round;stroke-linejoin:round;stroke-miterlimit:10;stroke-dasharray:none;stroke-opacity:1" id="path342" />
         </g>
         <g id="g344" transform="matrix(1.2244963,0,0,-1.2252114,-130.07627,-10.802077)" style="stroke-width:0.816424">
            <path d="m 283.184,-166.145 c 2.277,-0.949 5.414,-3.214 6.961,-4.171" style="fill:none;stroke:#000000;stroke-width:2.13526;stroke-linecap:round;stroke-linejoin:round;stroke-miterlimit:10;stroke-dasharray:none;stroke-opacity:1" id="path346" />
         </g>
         <g id="g348" transform="matrix(1.2244963,0,0,-1.2252114,-130.07627,-10.802077)" style="stroke-width:0.816424">
            <path d="m 283.203,-166.898 c 0.32,-0.454 0.172,-4.375 -0.015,-6.321 -0.813,-3.136 -0.602,-6.398 -1.243,-8.597 -0.679,-1.696 -0.672,-1.891 1.461,-3.254 5.09,-3.289 9.676,-8.004 15.239,-10.907 6.312,-3.945 11.277,-9.574 18.265,-12.558 1.801,-1.086 5.918,-2.988 6.028,-2.817 0.964,2.227 0.554,6.598 1.796,9.399 0.524,1.918 0.469,4.816 0.586,4.91 -1.211,0.148 -4.472,2.32 -6.773,3.488" style="fill:none;stroke:#000000;stroke-width:2.13526;stroke-linecap:round;stroke-linejoin:round;stroke-miterlimit:10;stroke-dasharray:none;stroke-opacity:1" id="path350" />
         </g>
         <g id="g352" transform="matrix(1.2244963,0,0,-1.2252114,-130.07627,-10.802077)" style="stroke-width:0.816424">
            <path d="m 326.082,-196.832 c 1.68,-0.863 5.566,1.965 7.73,2.035" style="fill:none;stroke:#000000;stroke-width:2.13526;stroke-linecap:round;stroke-linejoin:round;stroke-miterlimit:10;stroke-dasharray:none;stroke-opacity:1" id="path354" />
         </g>
         <g id="g356" transform="matrix(1.2244963,0,0,-1.2252114,-130.07627,-10.802077)" style="stroke-width:0.816424">
            <path d="m 323.855,-211.754 c 1.317,0.512 5.805,1.399 7.274,2.609" style="fill:none;stroke:#000000;stroke-width:2.13526;stroke-linecap:round;stroke-linejoin:round;stroke-miterlimit:10;stroke-dasharray:none;stroke-opacity:1" id="path358" />
         </g>
         <g id="g360" transform="matrix(1.2244963,0,0,-1.2252114,-130.07627,-10.802077)" style="stroke-width:0.816424">
            <path d="m 333.273,-210.871 c 0.278,-0.188 -2.144,-2.059 -3.136,-2.883 -2.657,-2.273 -5.797,-4.199 -8.168,-6.144 -1.41,-1.2 -2.719,-2.02 -4.09,-2.832 -0.672,-0.227 -0.981,-0.637 -1.863,-0.547" style="fill:none;stroke:#000000;stroke-width:2.13526;stroke-linecap:round;stroke-linejoin:round;stroke-miterlimit:10;stroke-dasharray:none;stroke-opacity:1" id="path362" />
         </g>
         <g id="g364" transform="matrix(1.2244963,0,0,-1.2252114,-130.07627,-10.802077)" style="stroke-width:0.816424">
            <path d="m 314.309,-222.871 c -5.532,1.898 -10.836,4.957 -16.399,7.035 -5.465,2.414 -11.152,4.344 -16.539,6.754 -1.75,0.492 -4.312,1.961 -6.351,2.894 -4.942,2.317 -10.387,3.36 -14.942,5.079 -0.504,-0.219 -1.04262,0.45102 -0.81262,0.35802" style="fill:none;stroke:#000000;stroke-width:2.13526;stroke-linecap:round;stroke-linejoin:round;stroke-miterlimit:10;stroke-dasharray:none;stroke-opacity:1" id="path366" sodipodi:nodetypes="cccccc" />
         </g>
         <g id="g368" transform="matrix(1.2244963,0,0,-1.2252114,-130.07627,-10.802077)" style="stroke-width:0.816424">
            <path d="m 281.086,-185.387 c -0.426,-1.168 -4.648,-3.074 -6.145,-4.675 -4.57,-3.395 -8.914,-5.344 -12.976,-8.692 -1.098,-0.769 -2.32,-1.5 -2.828,-1.738" style="fill:none;stroke:#000000;stroke-width:2.13526;stroke-linecap:round;stroke-linejoin:round;stroke-miterlimit:10;stroke-dasharray:none;stroke-opacity:1" id="path370" />
         </g>
         <g id="g372" transform="matrix(1.2244963,0,0,-1.2252114,-130.07627,-10.802077)" style="stroke-width:0.816424">
            <path d="m 259.21599,-201.00872 c -0.445,0.215 -1.96999,-4.21028 -2.32099,-5.92128 0.195,-2.144 -1.024,-4.66 -0.583,-6.48 -0.285,-1.551 -0.48,-1.539 -0.117,-1.344" style="fill:none;stroke:#000000;stroke-width:2.13526;stroke-linecap:round;stroke-linejoin:round;stroke-miterlimit:10;stroke-dasharray:none;stroke-opacity:1" id="path374" sodipodi:nodetypes="cccc" />
         </g>
         <g id="g376" transform="matrix(1.2244963,0,0,-1.2252114,-130.07627,-10.802077)" style="stroke-width:0.816424">
            <path d="m 255.87189,-214.84845 c 3.93,-2.242 11.89411,-5.20255 16.69011,-6.90955 11.157,-3.492 21.856,-8.156 32.524,-12.304 2.309,-0.856 8.59523,-3.31021 9.01323,-3.43921" style="fill:none;stroke:#000000;stroke-width:2.13526;stroke-linecap:round;stroke-linejoin:round;stroke-miterlimit:10;stroke-dasharray:none;stroke-opacity:1" id="path378" sodipodi:nodetypes="cccc" />
         </g>
         <g id="g380" transform="matrix(1.2244963,0,0,-1.2252114,-130.07627,-10.802077)" style="stroke-width:0.816424">
            <path d="m 314.348,-237.945 c 0.379,-0.617 0.316,4.797 0.437,7.414 -0.351,2.984 1.039,5.212 0.465,7.61" style="fill:none;stroke:#000000;stroke-width:2.13526;stroke-linecap:round;stroke-linejoin:round;stroke-miterlimit:10;stroke-dasharray:none;stroke-opacity:1" id="path382" sodipodi:nodetypes="ccc" />
         </g>
         <g id="g384" transform="matrix(1.2244963,0,0,-1.2252114,-130.07627,-10.802077)" style="stroke-width:0.816424">
            <path d="m 315.629,-236.484 c -0.309,-1.207 2.664,1.363 3.699,1.437 3.332,1.703 7.465,3.906 9.664,5.402" style="fill:none;stroke:#000000;stroke-width:2.13526;stroke-linecap:round;stroke-linejoin:round;stroke-miterlimit:10;stroke-dasharray:none;stroke-opacity:1" id="path386" />
         </g>
         <g id="g388" transform="matrix(1.2244963,0,0,-1.2252114,-130.07627,-10.802077)" style="stroke-width:0.816424">
            <path d="m 327.176,-234.156 c -0.848,-0.86 -4.949,-2.731 -7.348,-3.649 -0.543,-0.386 -3.43,-0.507 -2.445,-0.679" style="fill:none;stroke:#000000;stroke-width:2.13526;stroke-linecap:round;stroke-linejoin:round;stroke-miterlimit:10;stroke-dasharray:none;stroke-opacity:1" id="path390" />
         </g>
         <g id="g392" transform="matrix(1.2244963,0,0,-1.2252114,-130.07627,-10.802077)" style="stroke-width:0.816424">
            <path d="m 318.883,-239.719 c 0.062,0.75 1.062,-2.422 0.586,-3.91 0.699,-2.809 -0.555,-5.293 -0.047,-7.621 -0.012,-1.07 -0.723,-0.66 1.812,-0.254 2.032,1.059 3.883,1.91 4.668,2.813" style="fill:none;stroke:#000000;stroke-width:2.13526;stroke-linecap:round;stroke-linejoin:round;stroke-miterlimit:10;stroke-dasharray:none;stroke-opacity:1" id="path394" />
         </g>
         <g id="g396" transform="matrix(1.2244963,0,0,-1.2252114,-130.07627,-10.802077)" style="stroke-width:0.816424">
            <path d="m 319.246,-252.039 c -1.672,1.262 -6.187,2.668 -9.219,4.437 -9.297,4.075 -19.711,8.079 -28.652,12.079 -5.664,2.398 -10.422,4.765 -15.141,6.398 -1.285,0.508 -1.871,0.926 -2.433,1.082 -0.66,0.207 0,-0.18 -0.539,1.398 -0.59,2.29 0.031,5.54 0.648,7.25" style="fill:none;stroke:#000000;stroke-width:2.13526;stroke-linecap:round;stroke-linejoin:round;stroke-miterlimit:10;stroke-dasharray:none;stroke-opacity:1" id="path398" />
         </g>
      </g>
   </g>
</svg>
