<?xml version="1.0" encoding="UTF-8" standalone="no"?>
<!-- Created by Ashley Blewer - This work is licensed under a Creative Commons Attribution 4.0 International License -->

<svg width="544" height="480" viewBox="0 0 143.93334 127" version="1.1" id="svg2490" inkscape:version="1.1.2 (08b2f3d93c, 2022-04-05)" sodipodi:docname="1978-laserdisc-3.svg"
   xmlns:inkscape="http://www.inkscape.org/namespaces/inkscape"
   xmlns:sodipodi="http://sodipodi.sourceforge.net/DTD/sodipodi-0.dtd"
   xmlns="http://www.w3.org/2000/svg"
   xmlns:svg="http://www.w3.org/2000/svg">
   <sodipodi:namedview id="namedview2492" pagecolor="#ffffff" bordercolor="#666666" borderopacity="1.0" inkscape:pageshadow="2" inkscape:pageopacity="0.0" inkscape:pagecheckerboard="0" inkscape:document-units="mm" showgrid="false" units="px" inkscape:zoom="0.90583674" inkscape:cx="272.67607" inkscape:cy="177.18425" inkscape:window-width="1848" inkscape:window-height="1136" inkscape:window-x="72" inkscape:window-y="27" inkscape:window-maximized="1" inkscape:current-layer="layer1" />
   <defs id="defs2487" />
   <g inkscape:label="Layer 1" inkscape:groupmode="layer" id="layer1">
      <g id="g772" transform="matrix(0.46510709,0,0,-0.46510709,-308.11508,-239.5526)">
         <path d="m 771.605,-616.602 c 25.24242,-0.75134 43.87242,-36.04969 23.95698,-54.8401 -14.97231,-16.1234 -44.77478,-18.6424 -57.16856,2.0818 -12.2038,17.64148 -2.0471,42.72295 17.33053,49.81357 9.51615,4.02896 21.51109,5.61681 30.54205,-0.49627 m -25.379,-4.102 c 21.51057,9.13357 44.53212,-18.59686 32.32491,-38.39151 -8.31157,-19.28604 -38.82092,-23.37698 -49.50456,-4.14509 -11.03028,17.46306 3.2745,41.27191 22.59765,43.9196 m -2.078,-19.058 c 20.03428,9.94358 19.95328,-30.32489 -1.06703,-19.77715 -9.87031,4.44015 -8.53676,14.42567 1.06703,19.77715 m 104.914,-52.45 c 21.07165,0.92003 16.1606,-34.60768 -4.54293,-27.63788 -19.05232,5.16262 -7.48357,35.14542 10.17452,27.29928 l 2.12841,-1.24624 1.841,-1.77416 M 928.18,-709.5 c 19.86911,1.5594 14.66566,-31.86187 -3.78999,-27.82252 -18.03848,2.9467 -12.85431,30.61036 4.7565,28.39859 l 2.10945,-0.25741 2.05604,-0.60366 m -7.16,-9.246 c 16.4264,-4.88323 -16.06662,-10.32734 0,0 m -60.613,16.051 c 18.00509,2.95694 -4.52324,-21.53355 -2.27892,-2.09699 0.51277,2.08346 2.93011,2.43391 4.45892,1.54199 m 33.711,-29.328 c -10.1656,19.52695 13.19108,42.82637 35.70287,34.35866 20.69587,-4.86195 24.38112,-36.38707 5.1361,-45.68156 -14.33188,-10.01067 -38.79687,-4.64537 -41.65687,14.42361 l -0.3311,2.70029 m 7.32518,22.22671 c -2.19586,18.52387 -12.40722,31.87748 -26.42839,36.55834 -6.82799,2.27947 -15.45079,0.80795 -22.20879,-0.1277 m 6.758,0.93565 c -27.05618,0.15949 -45.29693,-30.5071 -36.35349,-54.92965 6.07162,-22.92372 33.58064,-34.88887 54.73495,-24.44986 7.31316,2.71259 12.21589,8.48471 17.32154,13.98551 m -230.641,94.551 c -4.18751,-23.11499 2.35917,-48.40899 16.46526,-67.12214 17.39488,-21.52677 42.20099,-39.14043 70.19719,-41.97894 19.02559,0.84008 38.57734,2.16243 55.34024,12.12387 5.10051,2.53608 11.94481,9.57426 16.58182,12.89056 M 670.789,-638.312 c 3.26224,24.78438 17.91746,46.34827 37.96693,61.20021 11.9539,11.22497 32.67942,17.48576 50.14332,21.86521 24.44308,0.79462 50.50589,-2.95923 69.52155,-19.74949 16.0735,-13.45132 28.04121,-31.81284 35.36496,-51.26516 3.40064,-9.83233 4.06064,-38.71226 1.94124,-41.20777" style="fill:none;stroke:#000000;stroke-width:2.658;stroke-linecap:round;stroke-linejoin:round;stroke-miterlimit:10;stroke-dasharray:none;stroke-opacity:1" id="path774" sodipodi:nodetypes="cccccccccccccccccccccccccccccccccscccccccccccccccc" />
      </g>
   </g>
</svg>
