<?xml version="1.0" encoding="UTF-8" standalone="no"?>
<!-- Created by Ashley Blewer - This work is licensed under a Creative Commons Attribution 4.0 International License -->

<svg width="544" height="480" viewBox="0 0 143.93334 127" version="1.1" id="svg2490" inkscape:version="1.1.2 (08b2f3d93c, 2022-04-05)" sodipodi:docname="1979-video2000-3.svg"
   xmlns:inkscape="http://www.inkscape.org/namespaces/inkscape"
   xmlns:sodipodi="http://sodipodi.sourceforge.net/DTD/sodipodi-0.dtd"
   xmlns="http://www.w3.org/2000/svg"
   xmlns:svg="http://www.w3.org/2000/svg">
   <sodipodi:namedview id="namedview2492" pagecolor="#ffffff" bordercolor="#666666" borderopacity="1.0" inkscape:pageshadow="2" inkscape:pageopacity="0.0" inkscape:pagecheckerboard="0" inkscape:document-units="mm" showgrid="false" units="px" inkscape:zoom="0.90583674" inkscape:cx="272.67607" inkscape:cy="177.18425" inkscape:window-width="1848" inkscape:window-height="1136" inkscape:window-x="72" inkscape:window-y="27" inkscape:window-maximized="1" inkscape:current-layer="layer1" />
   <defs id="defs2487" />
   <g inkscape:label="Layer 1" inkscape:groupmode="layer" id="layer1">
      <g id="g2451" transform="matrix(0.30348588,0,0,0.30359271,-211.68712,-125.8449)" style="stroke-width:0.95461">
         <g id="g698" transform="matrix(1,0,0,-1,0,792)" style="stroke-width:0.95461">
            <g id="g700" style="stroke-width:0.95461">
               <path d="M 710.80585,116.34323 C 850.67238,98.173271 990.54793,77.979842 1131.4205,65.858724" style="fill:none;stroke:#000000;stroke-width:2.49666;stroke-linecap:round;stroke-linejoin:round;stroke-miterlimit:10;stroke-dasharray:none;stroke-opacity:1" id="path702" sodipodi:nodetypes="cc" />
            </g>
         </g>
         <g id="g704" transform="matrix(1,0,0,-1,0,792)" style="stroke-width:0.95461">
            <g id="g706" style="stroke-width:0.95461">
               <path d="m 710.80585,116.34323 c -3.46124,14.32843 -1.91442,30.41879 -4.06942,44.82437" style="fill:none;stroke:#000000;stroke-width:2.49666;stroke-linecap:round;stroke-linejoin:round;stroke-miterlimit:10;stroke-dasharray:none;stroke-opacity:1" id="path708" />
            </g>
         </g>
         <g id="g710" transform="matrix(1,0,0,-1,0,792)" style="stroke-width:0.95461">
            <g id="g712" style="stroke-width:0.95461">
               <path d="m 707.22858,162.87239 c 18.54468,24.24219 37.03894,41.00338 57.32007,61.03503" style="fill:none;stroke:#000000;stroke-width:2.49666;stroke-linecap:round;stroke-linejoin:round;stroke-miterlimit:10;stroke-dasharray:none;stroke-opacity:1" id="path714" sodipodi:nodetypes="cc" />
            </g>
         </g>
         <g id="g716" transform="matrix(1,0,0,-1,0,792)" style="stroke-width:0.95461">
            <g id="g718" style="stroke-width:0.95461">
               <path d="m 764.54865,223.90742 c -1.2789,1.15482 4.76153,-1.29819 4.05859,-0.81548" style="fill:none;stroke:#000000;stroke-width:2.49666;stroke-linecap:round;stroke-linejoin:round;stroke-miterlimit:10;stroke-dasharray:none;stroke-opacity:1" id="path720" />
            </g>
         </g>
         <g id="g722" transform="matrix(1,0,0,-1,0,792)" style="stroke-width:0.95461">
            <g id="g724" style="stroke-width:0.95461">
               <path d="m 770.36206,224.60681 c 0.62905,0.83121 3.5924,4.38 4.44503,5.32317" style="fill:none;stroke:#000000;stroke-width:2.49666;stroke-linecap:round;stroke-linejoin:round;stroke-miterlimit:10;stroke-dasharray:none;stroke-opacity:1" id="path726" />
            </g>
         </g>
         <g id="g728" transform="matrix(1,0,0,-1,0,792)" style="stroke-width:0.95461">
            <g id="g730" style="stroke-width:0.95461">
               <path d="m 774.80709,229.92998 c 0.039,2.52116 1.79109,4.17283 1.36466,6.6661" style="fill:none;stroke:#000000;stroke-width:2.49666;stroke-linecap:round;stroke-linejoin:round;stroke-miterlimit:10;stroke-dasharray:none;stroke-opacity:1" id="path732" sodipodi:nodetypes="cc" />
            </g>
         </g>
         <g id="g734" transform="matrix(1,0,0,-1,0,792)" style="stroke-width:0.95461">
            <g id="g736" style="stroke-width:0.95461">
               <path d="m 776.17175,236.59608 c 3.89414,7.65847 12.79464,15.93146 19.61817,21.02614" style="fill:none;stroke:#000000;stroke-width:2.49666;stroke-linecap:round;stroke-linejoin:round;stroke-miterlimit:10;stroke-dasharray:none;stroke-opacity:1" id="path738" sodipodi:nodetypes="cc" />
            </g>
         </g>
         <g id="g740" transform="matrix(1,0,0,-1,0,792)" style="stroke-width:0.95461">
            <g id="g742" style="stroke-width:0.95461">
               <path d="M 795.78992,257.62222 1146.778,225.28052" style="fill:none;stroke:#000000;stroke-width:2.49666;stroke-linecap:round;stroke-linejoin:round;stroke-miterlimit:10;stroke-dasharray:none;stroke-opacity:1" id="path744" sodipodi:nodetypes="cc" />
            </g>
         </g>
         <g id="g746" transform="matrix(1,0,0,-1,0,792)" style="stroke-width:0.95461">
            <g id="g748" style="stroke-width:0.95461">
               <path d="m 1146.778,225.28052 c 3.8403,-0.20692 10.8357,0.49588 10.3559,-5.11175" style="fill:none;stroke:#000000;stroke-width:2.49666;stroke-linecap:round;stroke-linejoin:round;stroke-miterlimit:10;stroke-dasharray:none;stroke-opacity:1" id="path750" sodipodi:nodetypes="cc" />
            </g>
         </g>
         <g id="g752" transform="matrix(1,0,0,-1,0,792)" style="stroke-width:0.95461">
            <g id="g754" style="stroke-width:0.95461">
               <path d="m 1131.4205,65.858724 c 5.1078,26.566457 14.2673,76.710506 14.2673,76.710506" style="fill:none;stroke:#000000;stroke-width:2.49666;stroke-linecap:round;stroke-linejoin:round;stroke-miterlimit:10;stroke-dasharray:none;stroke-opacity:1" id="path756" sodipodi:nodetypes="cc" />
            </g>
         </g>
         <g id="g758" transform="matrix(1,0,0,-1,0,792)" style="stroke-width:0.95461">
            <g id="g760" style="stroke-width:0.95461">
               <path d="m 1145.6878,142.56923 3.5664,17.51952" style="fill:none;stroke:#000000;stroke-width:2.49666;stroke-linecap:round;stroke-linejoin:round;stroke-miterlimit:10;stroke-dasharray:none;stroke-opacity:1" id="path762" sodipodi:nodetypes="cc" />
            </g>
         </g>
         <g id="g764" transform="matrix(1,0,0,-1,0,792)" style="stroke-width:0.95461">
            <g id="g766" style="stroke-width:0.95461">
               <path d="m 1149.2542,160.08875 7.8797,60.08002" style="fill:none;stroke:#000000;stroke-width:2.49666;stroke-linecap:round;stroke-linejoin:round;stroke-miterlimit:10;stroke-dasharray:none;stroke-opacity:1" id="path768" sodipodi:nodetypes="cc" />
            </g>
         </g>
         <g id="g770" transform="matrix(1,0,0,-1,0,792)" style="stroke-width:0.95461">
            <g id="g772" style="stroke-width:0.95461">
               <path d="m 708.67908,159.52325 c 14.48053,-3.04511 33.57451,-5.99529 46.90077,-8.72292" style="fill:none;stroke:#000000;stroke-width:2.49666;stroke-linecap:round;stroke-linejoin:round;stroke-miterlimit:10;stroke-dasharray:none;stroke-opacity:1" id="path774" sodipodi:nodetypes="cc" />
            </g>
         </g>
         <g id="g776" transform="matrix(1,0,0,-1,0,792)" style="stroke-width:0.95461">
            <g id="g778" style="stroke-width:0.95461">
               <path d="m 755.57985,150.80033 c 132.6418,-12.6308 381.96255,-44.94837 381.96255,-44.94837" style="fill:none;stroke:#000000;stroke-width:2.49666;stroke-linecap:round;stroke-linejoin:round;stroke-miterlimit:10;stroke-dasharray:none;stroke-opacity:1" id="path780" sodipodi:nodetypes="cc" />
            </g>
         </g>
         <g id="g782" transform="matrix(1,0,0,-1,0,792)" style="stroke-width:0.95461">
            <g id="g784" style="stroke-width:0.95461">
               <path d="m 1087.3684,94.080223 c 13.9965,-2.803922 19.4657,-1.397358 32.3041,-5.22979" style="fill:none;stroke:#000000;stroke-width:2.49666;stroke-linecap:round;stroke-linejoin:round;stroke-miterlimit:10;stroke-dasharray:none;stroke-opacity:1" id="path786" sodipodi:nodetypes="cc" />
            </g>
         </g>
         <g id="g788" transform="matrix(1,0,0,-1,0,792)" style="stroke-width:0.95461">
            <g id="g790" style="stroke-width:0.95461">
               <path d="m 1119.6725,88.850433 -1.991,-17.517067" style="fill:none;stroke:#000000;stroke-width:2.49666;stroke-linecap:round;stroke-linejoin:round;stroke-miterlimit:10;stroke-dasharray:none;stroke-opacity:1" id="path792" sodipodi:nodetypes="cc" />
            </g>
         </g>
         <g id="g794" transform="matrix(1,0,0,-1,0,792)" style="stroke-width:0.95461">
            <g id="g796" style="stroke-width:0.95461">
               <path d="m 1092.9255,90.515114 c 0.2694,-2.002894 0.224,-13.613261 -0.162,-11.815762" style="fill:none;stroke:#000000;stroke-width:2.49666;stroke-linecap:round;stroke-linejoin:round;stroke-miterlimit:10;stroke-dasharray:none;stroke-opacity:1" id="path798" />
            </g>
         </g>
         <g id="g800" transform="matrix(1,0,0,-1,0,792)" style="stroke-width:0.95461">
            <g id="g802" style="stroke-width:0.95461">
               <path d="m 1087.3684,94.080223 c -0.1153,-2.736014 -1.9854,-17.148342 -0.4011,-16.764788" style="fill:none;stroke:#000000;stroke-width:2.49666;stroke-linecap:round;stroke-linejoin:round;stroke-miterlimit:10;stroke-dasharray:none;stroke-opacity:1" id="path804" sodipodi:nodetypes="cc" />
            </g>
         </g>
         <g id="g806" transform="matrix(1,0,0,-1,0,792)" style="stroke-width:0.95461">
            <g id="g808" style="stroke-width:0.95461">
               <path d="m 1086.9673,77.315435 c 10.602,-2.152943 20.1388,-3.430102 30.7142,-5.982069" style="fill:none;stroke:#000000;stroke-width:2.49666;stroke-linecap:round;stroke-linejoin:round;stroke-miterlimit:10;stroke-dasharray:none;stroke-opacity:1" id="path810" sodipodi:nodetypes="cc" />
            </g>
         </g>
         <g id="g812" transform="matrix(1,0,0,-1,0,792)" style="stroke-width:0.95461">
            <g id="g814" style="stroke-width:0.95461">
               <path d="M 757.33942,118.1374 C 862.8706,107.57697 972.66919,94.444789 1077.7509,80.016705" style="fill:none;stroke:#000000;stroke-width:2.49666;stroke-linecap:round;stroke-linejoin:round;stroke-miterlimit:10;stroke-dasharray:none;stroke-opacity:1" id="path816" sodipodi:nodetypes="cc" />
            </g>
         </g>
         <g id="g818" transform="matrix(1,0,0,-1,0,792)" style="stroke-width:0.95461">
            <g id="g820" style="stroke-width:0.95461">
               <path d="m 1084.5337,112.10345 -6.7828,-32.086745" style="fill:none;stroke:#000000;stroke-width:2.49666;stroke-linecap:round;stroke-linejoin:round;stroke-miterlimit:10;stroke-dasharray:none;stroke-opacity:1" id="path822" sodipodi:nodetypes="cc" />
            </g>
         </g>
         <g id="g824" transform="matrix(1,0,0,-1,0,792)" style="stroke-width:0.95461">
            <g id="g826" style="stroke-width:0.95461">
               <path d="m 757.33942,118.1374 c -6.62375,7.60183 -3.13952,22.93873 -1.75957,32.66293" style="fill:none;stroke:#000000;stroke-width:2.49666;stroke-linecap:round;stroke-linejoin:round;stroke-miterlimit:10;stroke-dasharray:none;stroke-opacity:1" id="path828" />
            </g>
         </g>
         <g id="g830" transform="matrix(1,0,0,-1,0,792)" style="stroke-width:0.95461">
            <g id="g832" style="stroke-width:0.95461">
               <path d="m 781.78491,237.84888 c 123.51042,-9.10084 244.47419,-19.88669 362.05319,-32.35343 7.6083,-2.90643 11.9997,-13.10231 6.9529,-20.10158" style="fill:none;stroke:#000000;stroke-width:2.49666;stroke-linecap:round;stroke-linejoin:round;stroke-miterlimit:10;stroke-dasharray:none;stroke-opacity:1" id="path834" sodipodi:nodetypes="ccc" />
            </g>
         </g>
         <g id="g836" transform="matrix(1,0,0,-1,0,792)" style="stroke-width:0.95461">
            <g id="g838" style="stroke-width:0.95461">
               <path d="m 776.51544,232.58151 352.53316,-31.209 c 11.3489,-0.84228 18.7941,-4.91466 21.7424,-15.97864" style="fill:none;stroke:#000000;stroke-width:2.49666;stroke-linecap:round;stroke-linejoin:round;stroke-miterlimit:10;stroke-dasharray:none;stroke-opacity:1" id="path840" sodipodi:nodetypes="ccc" />
            </g>
         </g>
         <g id="g842" transform="matrix(1,0,0,-1,0,792)" style="stroke-width:0.95461">
            <g id="g844" style="stroke-width:0.95461">
               <path d="M 766.15393,224.33113 C 891.00006,209.85692 1012.7407,202.43714 1130.5961,186.56728" style="fill:none;stroke:#000000;stroke-width:2.49666;stroke-linecap:round;stroke-linejoin:round;stroke-miterlimit:10;stroke-dasharray:none;stroke-opacity:1" id="path846" sodipodi:nodetypes="cc" />
            </g>
         </g>
         <g id="g848" transform="matrix(1,0,0,-1,0,792)" style="stroke-width:0.95461">
            <g id="g850" style="stroke-width:0.95461">
               <path d="m 1032.5834,192.64517 c 10.5577,0.47541 37.0917,-3.05416 29.279,-17.78715 -13.1112,-9.9647 -32.4829,-10.0559 -47.1953,-3.61538 -22.50464,13.09082 6.3751,21.9756 17.9163,21.40253" style="fill:none;stroke:#000000;stroke-width:2.49666;stroke-linecap:round;stroke-linejoin:round;stroke-miterlimit:10;stroke-dasharray:none;stroke-opacity:1" id="path852" sodipodi:nodetypes="cccc" />
            </g>
         </g>
         <g id="g854" transform="matrix(1,0,0,-1,0,792)" style="stroke-width:0.95461">
            <g id="g856" style="stroke-width:0.95461">
               <path d="m 1035.0813,186.16582 c 9.0433,0.99464 28.0062,-14.09644 9.6315,-19.52927 -15.2795,-0.84412 -36.7046,4.47498 -23.2469,16.53986 5.9842,2.9128 7.0462,2.90667 13.6154,2.98941" style="fill:none;stroke:#000000;stroke-width:2.49666;stroke-linecap:round;stroke-linejoin:round;stroke-miterlimit:10;stroke-dasharray:none;stroke-opacity:1" id="path858" sodipodi:nodetypes="cccc" />
            </g>
         </g>
         <g id="g860" transform="matrix(1,0,0,-1,0,792)" style="stroke-width:0.95461">
            <g id="g862" style="stroke-width:0.95461">
               <path d="m 883.93958,207.06884 c -6.20248,-8.23338 -19.25772,-21.01156 -0.15187,-23.46567 26.22978,-0.67615 84.20938,-10.05833 110.60384,-11.88693 3.27461,6.97613 6.60895,17.30017 6.46135,25.16031 l -105.68122,11.13473 c -3.73377,0.25068 -7.72237,0.83127 -11.2321,-0.94244" style="fill:none;stroke:#000000;stroke-width:2.49666;stroke-linecap:round;stroke-linejoin:round;stroke-miterlimit:10;stroke-dasharray:none;stroke-opacity:1" id="path864" sodipodi:nodetypes="cccccc" />
            </g>
         </g>
         <g id="g866" transform="matrix(1,0,0,-1,0,792)" style="stroke-width:0.95461">
            <g id="g868" style="stroke-width:0.95461">
               <path d="m 807.4093,190.21037 253.2546,-30.2385" style="fill:none;stroke:#000000;stroke-width:2.49666;stroke-linecap:round;stroke-linejoin:round;stroke-miterlimit:10;stroke-dasharray:none;stroke-opacity:1" id="path870" sodipodi:nodetypes="cc" />
            </g>
         </g>
         <g id="g872" transform="matrix(1,0,0,-1,0,792)" style="stroke-width:0.95461">
            <g id="g874" style="stroke-width:0.95461">
               <path d="m 830.54657,209.58824 c 12.39289,1.05307 34.3328,0.7563 35.79697,-12.07476 -1.90595,-11.10375 -35.89532,-11.45849 -49.71083,-2.51379 -5.10291,8.51018 6.94949,14.7794 13.91386,14.58855" style="fill:none;stroke:#000000;stroke-width:2.49666;stroke-linecap:round;stroke-linejoin:round;stroke-miterlimit:10;stroke-dasharray:none;stroke-opacity:1" id="path876" sodipodi:nodetypes="cccc" />
            </g>
         </g>
         <g id="g878" transform="matrix(1,0,0,-1,0,792)" style="stroke-width:0.95461">
            <g id="g880" style="stroke-width:0.95461">
               <path d="m 831.20764,189.55748 c -22.49371,5.6278 5.04815,17.91834 17.05635,14.49127 12.01214,-2.67332 15.91741,-15.33659 0.29147,-14.9966 -7.38741,-0.56646 -18.47454,-2.70224 -24.20179,2.89063" style="fill:none;stroke:#000000;stroke-width:2.49666;stroke-linecap:round;stroke-linejoin:round;stroke-miterlimit:10;stroke-dasharray:none;stroke-opacity:1" id="path882" sodipodi:nodetypes="cccc" />
            </g>
         </g>
         <g id="g884" transform="matrix(1,0,0,-1,0,792)" style="stroke-width:0.95461">
            <g id="g886" style="stroke-width:0.95461">
               <path d="m 1076.9559,130.45612 c 1.3304,0.9088 5.7178,-0.21437 4.5653,-2.68531" style="fill:none;stroke:#000000;stroke-width:2.49666;stroke-linecap:round;stroke-linejoin:round;stroke-miterlimit:10;stroke-dasharray:none;stroke-opacity:1" id="path888" />
            </g>
         </g>
         <g id="g890" transform="matrix(1,0,0,-1,0,792)" style="stroke-width:0.95461">
            <g id="g892" style="stroke-width:0.95461">
               <path d="m 1076.142,128.13788 c -10.1853,-5.05159 11.8719,-9.44131 4.0439,-1.72835" style="fill:none;stroke:#000000;stroke-width:2.49666;stroke-linecap:round;stroke-linejoin:round;stroke-miterlimit:10;stroke-dasharray:none;stroke-opacity:1" id="path894" />
            </g>
         </g>
         <g id="g896" transform="matrix(1,0,0,-1,0,792)" style="stroke-width:0.95461">
            <g id="g898" style="stroke-width:0.95461">
               <path d="m 1094.413,127.68485 c 0.333,2.24095 10.0507,1.38439 6.8145,-1.23575" style="fill:none;stroke:#000000;stroke-width:2.49666;stroke-linecap:round;stroke-linejoin:round;stroke-miterlimit:10;stroke-dasharray:none;stroke-opacity:1" id="path900" />
            </g>
         </g>
         <g id="g902" transform="matrix(1,0,0,-1,0,792)" style="stroke-width:0.95461">
            <g id="g904" style="stroke-width:0.95461">
               <path d="m 1095.1902,126.78913 c -8.0895,-7.43043 16.3019,-6.88123 5.0947,-1.449" style="fill:none;stroke:#000000;stroke-width:2.49666;stroke-linecap:round;stroke-linejoin:round;stroke-miterlimit:10;stroke-dasharray:none;stroke-opacity:1" id="path906" />
            </g>
         </g>
         <g id="g908" transform="matrix(1,0,0,-1,0,792)" style="stroke-width:0.95461">
            <g id="g910" style="stroke-width:0.95461">
               <path d="m 1116.7537,124.30668 c -1.0937,3.40961 6.4499,3.7228 4.4319,0.004" style="fill:none;stroke:#000000;stroke-width:2.49666;stroke-linecap:round;stroke-linejoin:round;stroke-miterlimit:10;stroke-dasharray:none;stroke-opacity:1" id="path912" />
            </g>
         </g>
         <g id="g914" transform="matrix(1,0,0,-1,0,792)" style="stroke-width:0.95461">
            <g id="g916" style="stroke-width:0.95461">
               <path d="m 1117.5114,123.86653 c -12.3031,-4.62095 16.0096,-7.59768 3.0639,-0.8527" style="fill:none;stroke:#000000;stroke-width:2.49666;stroke-linecap:round;stroke-linejoin:round;stroke-miterlimit:10;stroke-dasharray:none;stroke-opacity:1" id="path918" />
            </g>
         </g>
         <g id="g920" transform="matrix(1,0,0,-1,0,792)" style="stroke-width:0.95461">
            <g id="g922" style="stroke-width:0.95461">
               <path d="m 722.28485,167.69878 c -4.31138,-1.37297 4.22796,2.0001 2.05177,-1.92194" style="fill:none;stroke:#000000;stroke-width:2.49666;stroke-linecap:round;stroke-linejoin:round;stroke-miterlimit:10;stroke-dasharray:none;stroke-opacity:1" id="path924" />
            </g>
         </g>
         <g id="g926" transform="matrix(1,0,0,-1,0,792)" style="stroke-width:0.95461">
            <g id="g928" style="stroke-width:0.95461">
               <path d="m 724.02496,165.34837 c 3.20989,-5.66977 -11.39842,-1.78419 -3.27685,0.75746" style="fill:none;stroke:#000000;stroke-width:2.49666;stroke-linecap:round;stroke-linejoin:round;stroke-miterlimit:10;stroke-dasharray:none;stroke-opacity:1" id="path930" />
            </g>
         </g>
         <g id="g932" transform="matrix(1,0,0,-1,0,792)" style="stroke-width:0.95461">
            <g id="g934" style="stroke-width:0.95461">
               <path d="m 736.96344,164.46562 c 0.8517,2.03717 6.54267,4.09315 4.69269,-0.0978" style="fill:none;stroke:#000000;stroke-width:2.49666;stroke-linecap:round;stroke-linejoin:round;stroke-miterlimit:10;stroke-dasharray:none;stroke-opacity:1" id="path936" />
            </g>
         </g>
         <g id="g938" transform="matrix(1,0,0,-1,0,792)" style="stroke-width:0.95461">
            <g id="g940" style="stroke-width:0.95461">
               <path d="m 742.04584,163.51904 c 5.24602,-6.61325 -15.08462,-0.78003 -3.42793,1.821" style="fill:none;stroke:#000000;stroke-width:2.49666;stroke-linecap:round;stroke-linejoin:round;stroke-miterlimit:10;stroke-dasharray:none;stroke-opacity:1" id="path942" />
            </g>
         </g>
         <g id="g944" transform="matrix(1,0,0,-1,0,792)" style="stroke-width:0.95461">
            <g id="g946" style="stroke-width:0.95461">
               <path d="m 756.10449,163.19044 c 0.0315,1.63748 4.69326,2.94724 2.32776,-0.58823" style="fill:none;stroke:#000000;stroke-width:2.49666;stroke-linecap:round;stroke-linejoin:round;stroke-miterlimit:10;stroke-dasharray:none;stroke-opacity:1" id="path948" />
            </g>
         </g>
         <g id="g950" transform="matrix(1,0,0,-1,0,792)" style="stroke-width:0.95461">
            <g id="g952" style="stroke-width:0.95461">
               <path d="m 758.52777,161.5415 c 8.5942,-8.1696 -13.06018,-0.72567 0.17328,0.95378" style="fill:none;stroke:#000000;stroke-width:2.49666;stroke-linecap:round;stroke-linejoin:round;stroke-miterlimit:10;stroke-dasharray:none;stroke-opacity:1" id="path954" />
            </g>
         </g>
         <g id="g956" transform="matrix(1,0,0,-1,0,792)" style="stroke-width:0.95461">
            <g id="g958" style="stroke-width:0.95461">
               <path d="m 771.3996,216.00508 c -13.09556,-7.46242 -32.11296,-29.90324 -32.58599,-33.82302 -2.24532,2.47128 4.92479,-6.45227 4.10559,-3.77787" style="fill:none;stroke:#000000;stroke-width:2.49666;stroke-linecap:round;stroke-linejoin:round;stroke-miterlimit:10;stroke-dasharray:none;stroke-opacity:1" id="path960" sodipodi:nodetypes="ccc" />
            </g>
         </g>
         <g id="g962" transform="matrix(1,0,0,-1,0,792)" style="stroke-width:0.95461">
            <g id="g964" style="stroke-width:0.95461">
               <path d="m 1130.5961,186.56728 c 1.2966,-9.30097 -8.5825,-42.27899 -14.4758,-47.52654" style="fill:none;stroke:#000000;stroke-width:2.49666;stroke-linecap:round;stroke-linejoin:round;stroke-miterlimit:10;stroke-dasharray:none;stroke-opacity:1" id="path966" sodipodi:nodetypes="cc" />
            </g>
         </g>
         <g id="g968" transform="matrix(1,0,0,-1,0,792)" style="stroke-width:0.95461">
            <g id="g970" style="stroke-width:0.95461">
               <path d="m 1073.4446,192.17781 c 16.4732,-4.03363 33.9225,-3.80839 50.6007,-7.37273 l -0.6488,0.0847 -0.6965,-0.28925" style="fill:none;stroke:#000000;stroke-width:2.49666;stroke-linecap:round;stroke-linejoin:round;stroke-miterlimit:10;stroke-dasharray:none;stroke-opacity:1" id="path972" />
            </g>
         </g>
         <g id="g974" transform="matrix(1,0,0,-1,0,792)" style="stroke-width:0.95461">
            <g id="g976" style="stroke-width:0.95461">
               <path d="m 745.53839,175.12497 c 18.8785,-5.17295 284.15981,-40.21879 370.58191,-36.08423" style="fill:none;stroke:#000000;stroke-width:2.49666;stroke-linecap:round;stroke-linejoin:round;stroke-miterlimit:10;stroke-dasharray:none;stroke-opacity:1" id="path978" sodipodi:nodetypes="cc" />
            </g>
         </g>
      </g>
   </g>
</svg>
