<?xml version="1.0" encoding="UTF-8" standalone="no"?>
<!-- Created by Ashley Blewer - This work is licensed under a Creative Commons Attribution 4.0 International License -->

<svg width="544" height="480" viewBox="0 0 143.93334 127" version="1.1" id="svg2490" inkscape:version="1.1.2 (08b2f3d93c, 2022-04-05)" sodipodi:docname="1979-video2000-2.svg"
   xmlns:inkscape="http://www.inkscape.org/namespaces/inkscape"
   xmlns:sodipodi="http://sodipodi.sourceforge.net/DTD/sodipodi-0.dtd"
   xmlns="http://www.w3.org/2000/svg"
   xmlns:svg="http://www.w3.org/2000/svg">
   <sodipodi:namedview id="namedview2492" pagecolor="#ffffff" bordercolor="#666666" borderopacity="1.0" inkscape:pageshadow="2" inkscape:pageopacity="0.0" inkscape:pagecheckerboard="0" inkscape:document-units="mm" showgrid="false" units="px" inkscape:zoom="0.90583674" inkscape:cx="272.67607" inkscape:cy="177.18425" inkscape:window-width="1848" inkscape:window-height="1136" inkscape:window-x="72" inkscape:window-y="27" inkscape:window-maximized="1" inkscape:current-layer="layer1" />
   <defs id="defs2487" />
   <g inkscape:label="Layer 1" inkscape:groupmode="layer" id="layer1">
      <g id="g2308" transform="matrix(0.30115482,0,0,0.30115482,-213.18657,-16.441241)">
         <g id="g980" transform="matrix(1,0,0,-1,0,792)">
            <g id="g982">
               <path d="m 1055.8156,573.02051 -1.6668,143.66852 -0.1908,-0.16493" style="fill:none;stroke:#000000;stroke-width:2.61538;stroke-linecap:round;stroke-linejoin:round;stroke-miterlimit:10;stroke-dasharray:none;stroke-opacity:1" id="path984" sodipodi:nodetypes="ccc" />
            </g>
         </g>
         <g id="g986" transform="matrix(1,0,0,-1,0,792)">
            <g id="g988">
               <path d="m 835.4007,568.15109 0.53912,154.68887" style="fill:none;stroke:#000000;stroke-width:2.61538;stroke-linecap:round;stroke-linejoin:round;stroke-miterlimit:10;stroke-dasharray:none;stroke-opacity:1" id="path990" sodipodi:nodetypes="cc" />
            </g>
         </g>
         <g id="g992" transform="matrix(1,0,0,-1,0,792)">
            <g id="g994">
               <path d="m 854.74908,567.95946 -2.84267,158.19091 0.6178,0.25372" style="fill:none;stroke:#000000;stroke-width:2.61538;stroke-linecap:round;stroke-linejoin:round;stroke-miterlimit:10;stroke-dasharray:none;stroke-opacity:1" id="path996" sodipodi:nodetypes="ccc" />
            </g>
         </g>
         <g id="g998" transform="matrix(1,0,0,-1,0,792)">
            <g id="g1000">
               <path d="m 835.93982,722.83996 15.96659,3.31041" style="fill:none;stroke:#000000;stroke-width:2.61538;stroke-linecap:round;stroke-linejoin:round;stroke-miterlimit:10;stroke-dasharray:none;stroke-opacity:1" id="path1002" sodipodi:nodetypes="cc" />
            </g>
         </g>
         <g id="g1004" transform="matrix(1,0,0,-1,-25.120144,715.1563)">
            <g id="g1006">
               <path d="m 1079.0781,639.6804 c -0.2243,-0.0433 -201.43375,9.87999 -201.43375,9.87999" style="fill:none;fill-rule:nonzero;stroke:#000000;stroke-width:2.52;stroke-linecap:round;stroke-linejoin:round;stroke-miterlimit:10;stroke-dasharray:none;stroke-opacity:1" id="path1008" sodipodi:nodetypes="cc" />
            </g>
         </g>
         <g id="g1010" transform="matrix(1,0,0,-1,0,792)">
            <g id="g1012">
               <path d="m 908.52124,699.29968 c -8.86661,16.83179 -16.81139,-12.26281 0.19979,-10.21486 11.36454,-11.89852 -13.5433,-25.91657 -13.41764,-7.53219" style="fill:none;stroke:#000000;stroke-width:2.61538;stroke-linecap:round;stroke-linejoin:round;stroke-miterlimit:10;stroke-dasharray:none;stroke-opacity:1" id="path1014" />
            </g>
         </g>
         <g id="g1016" transform="matrix(1,0,0,-1,0,792)">
            <g id="g1018">
               <path d="m 914.63037,702.68964 c 3.27792,-3.72133 5.87752,-7.96319 8.94169,-11.851" style="fill:none;stroke:#000000;stroke-width:2.61538;stroke-linecap:round;stroke-linejoin:round;stroke-miterlimit:10;stroke-dasharray:none;stroke-opacity:1" id="path1020" />
            </g>
         </g>
         <g id="g1022" transform="matrix(1,0,0,-1,0,792)">
            <g id="g1024">
               <path d="m 931.91187,702.15686 c -2.24668,-3.68717 -4.81658,-7.38091 -7.44506,-10.76375" style="fill:none;stroke:#000000;stroke-width:2.61538;stroke-linecap:round;stroke-linejoin:round;stroke-miterlimit:10;stroke-dasharray:none;stroke-opacity:1" id="path1026" />
            </g>
         </g>
         <g id="g1028" transform="matrix(1,0,0,-1,0,792)">
            <g id="g1030">
               <path d="m 923.71631,689.84265 c 1.13935,-5.57919 0.57092,-12.17836 0.41944,-17.12952" style="fill:none;stroke:#000000;stroke-width:2.61538;stroke-linecap:round;stroke-linejoin:round;stroke-miterlimit:10;stroke-dasharray:none;stroke-opacity:1" id="path1032" />
            </g>
         </g>
         <g id="g1034" transform="matrix(1,0,0,-1,0,792)">
            <g id="g1036">
               <path d="m 948.10199,697.86902 c -8.06487,15.6206 -17.62324,-10.26689 -2.07705,-9.47316 16.67683,-10.14289 -9.43852,-22.19903 -10.79642,-5.83465" style="fill:none;stroke:#000000;stroke-width:2.61538;stroke-linecap:round;stroke-linejoin:round;stroke-miterlimit:10;stroke-dasharray:none;stroke-opacity:1" id="path1038" />
            </g>
         </g>
         <g id="g1040" transform="matrix(1,0,0,-1,0,792)">
            <g id="g1042">
               <path d="m 953.39508,702.00122 c 4.63802,-0.34079 9.29311,0.20075 13.9306,0.33093" style="fill:none;stroke:#000000;stroke-width:2.61538;stroke-linecap:round;stroke-linejoin:round;stroke-miterlimit:10;stroke-dasharray:none;stroke-opacity:1" id="path1044" />
            </g>
         </g>
         <g id="g1046" transform="matrix(1,0,0,-1,0,792)">
            <g id="g1048">
               <path d="m 959.31177,700.67065 c 1.00486,-9.38696 1.10721,-18.86161 2.05635,-28.2408" style="fill:none;stroke:#000000;stroke-width:2.61538;stroke-linecap:round;stroke-linejoin:round;stroke-miterlimit:10;stroke-dasharray:none;stroke-opacity:1" id="path1050" />
            </g>
         </g>
         <g id="g1052" transform="matrix(1,0,0,-1,0,792)">
            <g id="g1054">
               <path d="m 971.55328,700.26208 c 0.0176,-8.8839 0.34237,-18.52684 0.69934,-26.90341" style="fill:none;stroke:#000000;stroke-width:2.61538;stroke-linecap:round;stroke-linejoin:round;stroke-miterlimit:10;stroke-dasharray:none;stroke-opacity:1" id="path1056" />
            </g>
         </g>
         <g id="g1058" transform="matrix(1,0,0,-1,0,792)">
            <g id="g1060">
               <path d="m 972.81146,672.35205 c 3.25322,0.99896 6.8054,-0.37908 10.14993,0.20808" style="fill:none;stroke:#000000;stroke-width:2.61538;stroke-linecap:round;stroke-linejoin:round;stroke-miterlimit:10;stroke-dasharray:none;stroke-opacity:1" id="path1062" />
            </g>
         </g>
         <g id="g1064" transform="matrix(1,0,0,-1,0,792)">
            <g id="g1066">
               <path d="m 972.53937,686.38196 c 1.52743,2.73189 6.44142,-0.23736 8.8678,1.5341" style="fill:none;stroke:#000000;stroke-width:2.61538;stroke-linecap:round;stroke-linejoin:round;stroke-miterlimit:10;stroke-dasharray:none;stroke-opacity:1" id="path1068" />
            </g>
         </g>
         <g id="g1070" transform="matrix(1,0,0,-1,0,792)">
            <g id="g1072">
               <path d="m 971.72327,701.04285 c 3.70067,-0.31162 7.49389,-0.56525 11.16195,0.17854" style="fill:none;stroke:#000000;stroke-width:2.61538;stroke-linecap:round;stroke-linejoin:round;stroke-miterlimit:10;stroke-dasharray:none;stroke-opacity:1" id="path1074" />
            </g>
         </g>
         <g id="g1076" transform="matrix(1,0,0,-1,0,792)">
            <g id="g1078">
               <path d="m 989.23541,671.14325 c -3.01159,9.69089 -0.32444,23.24151 -1.6213,31.31621" style="fill:none;stroke:#000000;stroke-width:2.61538;stroke-linecap:round;stroke-linejoin:round;stroke-miterlimit:10;stroke-dasharray:none;stroke-opacity:1" id="path1080" />
            </g>
         </g>
         <g id="g1082" transform="matrix(1,0,0,-1,0,792)">
            <g id="g1084">
               <path d="m 988.41931,700.67249 c 5.81732,-7.58701 10.81536,-15.99235 14.06759,-24.805" style="fill:none;stroke:#000000;stroke-width:2.61538;stroke-linecap:round;stroke-linejoin:round;stroke-miterlimit:10;stroke-dasharray:none;stroke-opacity:1" id="path1086" />
            </g>
         </g>
         <g id="g1088" transform="matrix(1,0,0,-1,0,792)">
            <g id="g1090">
               <path d="m 1003.4492,673.20148 c 4.7452,9.38373 9.3955,19.76796 11.927,29.74063" style="fill:none;stroke:#000000;stroke-width:2.61538;stroke-linecap:round;stroke-linejoin:round;stroke-miterlimit:10;stroke-dasharray:none;stroke-opacity:1" id="path1092" />
            </g>
         </g>
         <g id="g1094" transform="matrix(1,0,0,-1,0,792)">
            <g id="g1096">
               <path d="m 1015.4186,701.57483 c -0.2651,-10.35718 3.6269,-21.10686 1.7691,-31.21231" style="fill:none;stroke:#000000;stroke-width:2.61538;stroke-linecap:round;stroke-linejoin:round;stroke-miterlimit:10;stroke-dasharray:none;stroke-opacity:1" id="path1098" />
            </g>
         </g>
         <g id="g1100" transform="matrix(1,0,0,-1,0,792)">
            <g id="g1102">
               <path d="m 901.7088,663.75372 c 4.26603,-10.3263 7.96611,-22.21429 14.11518,-30.86651" style="fill:none;stroke:#000000;stroke-width:2.61538;stroke-linecap:round;stroke-linejoin:round;stroke-miterlimit:10;stroke-dasharray:none;stroke-opacity:1" id="path1104" />
            </g>
         </g>
         <g id="g1106" transform="matrix(1,0,0,-1,0,792)">
            <g id="g1108">
               <path d="m 927.3139,662.47748 c -3.22984,-10.05521 -7.82523,-19.48122 -11.23427,-29.45501" style="fill:none;stroke:#000000;stroke-width:2.61538;stroke-linecap:round;stroke-linejoin:round;stroke-miterlimit:10;stroke-dasharray:none;stroke-opacity:1" id="path1110" />
            </g>
         </g>
         <g id="g1112" transform="matrix(1,0,0,-1,0,792)">
            <g id="g1114">
               <path d="m 933.84222,661.1579 c 0.54597,-10.02166 0.60036,-20.12788 1.36031,-30.08903" style="fill:none;stroke:#000000;stroke-width:2.61538;stroke-linecap:round;stroke-linejoin:round;stroke-miterlimit:10;stroke-dasharray:none;stroke-opacity:1" id="path1116" />
            </g>
         </g>
         <g id="g1118" transform="matrix(1,0,0,-1,0,792)">
            <g id="g1120">
               <path d="m 942.32782,660.83594 c -0.51117,-8.98685 0.30353,-25.56828 0.70785,-30.42815" style="fill:none;stroke:#000000;stroke-width:2.61538;stroke-linecap:round;stroke-linejoin:round;stroke-miterlimit:10;stroke-dasharray:none;stroke-opacity:1" id="path1122" />
            </g>
         </g>
         <g id="g1124" transform="matrix(1,0,0,-1,0,792)">
            <g id="g1126">
               <path d="m 943.53387,660.82916 c 4.23326,1.28927 9.15728,0.90638 12.74113,-1.85589 5.0566,-3.84407 7.08228,-10.78092 5.93604,-16.89309 -0.79321,-4.54835 -3.78884,-8.75674 -8.10515,-10.55747 -1.70216,-0.74595 -3.54009,-1.15381 -5.38909,-1.29972 -1.71629,-1.62601 -4.29266,-0.57092 -6.25556,-1.54651" style="fill:none;stroke:#000000;stroke-width:2.61538;stroke-linecap:round;stroke-linejoin:round;stroke-miterlimit:10;stroke-dasharray:none;stroke-opacity:1" id="path1128" />
            </g>
         </g>
         <g id="g1130" transform="matrix(1,0,0,-1,0,792)">
            <g id="g1132">
               <path d="m 980.02026,660.76489 c -3.19546,-0.87148 -6.53671,0.85574 -9.70126,-0.32228" style="fill:none;stroke:#000000;stroke-width:2.61538;stroke-linecap:round;stroke-linejoin:round;stroke-miterlimit:10;stroke-dasharray:none;stroke-opacity:1" id="path1134" />
            </g>
         </g>
         <g id="g1136" transform="matrix(1,0,0,-1,0,792)">
            <g id="g1138">
               <path d="m 970.31067,658.36963 c -0.54108,-8.71581 0.20803,-17.4681 -1.70723,-26.0797" style="fill:none;stroke:#000000;stroke-width:2.61538;stroke-linecap:round;stroke-linejoin:round;stroke-miterlimit:10;stroke-dasharray:none;stroke-opacity:1" id="path1140" />
            </g>
         </g>
         <g id="g1142" transform="matrix(1,0,0,-1,0,792)">
            <g id="g1144">
               <path d="m 968.62891,631.38147 c 3.54503,-0.63866 7.16338,-0.72714 10.75005,-0.96117" style="fill:none;stroke:#000000;stroke-width:2.61538;stroke-linecap:round;stroke-linejoin:round;stroke-miterlimit:10;stroke-dasharray:none;stroke-opacity:1" id="path1146" />
            </g>
         </g>
         <g id="g1148" transform="matrix(1,0,0,-1,0,792)">
            <g id="g1150">
               <path d="m 970.77374,645.78845 c 1.30897,0.008 6.51637,-0.40155 7.8111,-0.61362" style="fill:none;stroke:#000000;stroke-width:2.61538;stroke-linecap:round;stroke-linejoin:round;stroke-miterlimit:10;stroke-dasharray:none;stroke-opacity:1" id="path1152" />
            </g>
         </g>
         <g id="g1154" transform="matrix(1,0,0,-1,0,792)">
            <g id="g1156">
               <path d="m 992.32977,659.24835 c -3.86008,-1.8652 -6.74661,-5.68655 -7.16596,-9.99096 -0.65748,-6.25711 2.37164,-12.62147 7.2201,-16.52016 3.29288,-2.71084 8.05789,-3.84157 12.04729,-2.05847 3.2951,1.43776 5.9161,4.15131 7.7711,7.18291 3.326,5.82937 1.8619,13.36776 -2.1208,18.4949 -3.0738,4.12477 -8.2963,7.09784 -13.54562,6.0984 -2.81237,-0.4994 -5.34259,-2.02698 -7.40525,-3.95992" style="fill:none;stroke:#000000;stroke-width:2.61538;stroke-linecap:round;stroke-linejoin:round;stroke-miterlimit:10;stroke-dasharray:none;stroke-opacity:1" id="path1158" />
            </g>
         </g>
         <g id="g1160" transform="matrix(1,0,0,-1,0,792)">
            <g id="g1162">
               <path d="m 897.11823,609.48773 c 6.89762,22.19191 31.93931,-4.03582 11.09479,-14.03096 -9.49011,-6.6841 -11.63156,-15.00014 3.11961,-10.26309 2.26069,-0.22651 4.11731,0.36848 6.2077,1.07666" style="fill:none;stroke:#000000;stroke-width:2.61538;stroke-linecap:round;stroke-linejoin:round;stroke-miterlimit:10;stroke-dasharray:none;stroke-opacity:1" id="path1164" sodipodi:nodetypes="cccc" />
            </g>
         </g>
         <g id="g1166" transform="matrix(1,0,0,-1,0,792)">
            <g id="g1168">
               <path d="m 930.01848,615.8365 c -16.48538,-5.2461 -1.49217,-43.76062 16.3166,-25.85715 9.56609,10.93285 -0.13846,34.88451 -16.3166,25.85715" style="fill:none;stroke:#000000;stroke-width:2.61538;stroke-linecap:round;stroke-linejoin:round;stroke-miterlimit:10;stroke-dasharray:none;stroke-opacity:1" id="path1170" sodipodi:nodetypes="ccc" />
            </g>
         </g>
         <g id="g1172" transform="matrix(1,0,0,-1,0,792)">
            <g id="g1174">
               <path d="m 961.37696,616.92053 c -14.25268,-13.54321 8.50457,-46.6385 19.84869,-19.40993 4.97443,12.35968 -6.3225,30.97783 -19.84869,19.40993" style="fill:none;stroke:#000000;stroke-width:2.61538;stroke-linecap:round;stroke-linejoin:round;stroke-miterlimit:10;stroke-dasharray:none;stroke-opacity:1" id="path1176" sodipodi:nodetypes="ccc" />
            </g>
         </g>
         <g id="g1178" transform="matrix(1,0,0,-1,0,792)">
            <g id="g1180">
               <path d="m 994.62633,617.68663 c -18.89632,-8.07634 3.06935,-43.36323 18.38957,-23.67999 10.7311,12.44887 -3.6538,31.28651 -18.38957,23.67999" style="fill:none;stroke:#000000;stroke-width:2.61538;stroke-linecap:round;stroke-linejoin:round;stroke-miterlimit:10;stroke-dasharray:none;stroke-opacity:1" id="path1182" sodipodi:nodetypes="ccc" />
            </g>
         </g>
         <g id="g1184" transform="matrix(1,0,0,-1,0,792)">
            <g id="g1186">
               <path d="m 789.15192,511.03674 c 0.48152,17.79941 -3.11912,38.20973 0.17737,54.06435" style="fill:none;stroke:#000000;stroke-width:2.61538;stroke-linecap:round;stroke-linejoin:round;stroke-miterlimit:10;stroke-dasharray:none;stroke-opacity:1" id="path1188" />
            </g>
         </g>
         <g id="g1190" transform="matrix(1,0,0,-1,0,792)">
            <g id="g1192">
               <path d="m 790.00519,563.72357 c 5.34648,1.42393 10.86044,-0.32211 15.99096,-1.75202" style="fill:none;stroke:#000000;stroke-width:2.61538;stroke-linecap:round;stroke-linejoin:round;stroke-miterlimit:10;stroke-dasharray:none;stroke-opacity:1" id="path1194" />
            </g>
         </g>
         <g id="g1196" transform="matrix(1,0,0,-1,0,792)">
            <g id="g1198">
               <path d="m 805.20502,560.89618 0.80331,-229.53126" style="fill:none;stroke:#000000;stroke-width:2.61538;stroke-linecap:round;stroke-linejoin:round;stroke-miterlimit:10;stroke-dasharray:none;stroke-opacity:1" id="path1200" sodipodi:nodetypes="cc" />
            </g>
         </g>
         <g id="g1202" transform="matrix(1,0,0,-1,0,792)">
            <g id="g1204">
               <path d="m 789.29114,510.67889 c 2.34517,-1.68733 8.5991,-3.80138 11.01788,-5.32086" style="fill:none;stroke:#000000;stroke-width:2.61538;stroke-linecap:round;stroke-linejoin:round;stroke-miterlimit:10;stroke-dasharray:none;stroke-opacity:1" id="path1206" sodipodi:nodetypes="cc" />
            </g>
         </g>
         <g id="g1208" transform="matrix(1,0,0,-1,0,792)">
            <g id="g1210">
               <path d="m 800.30902,505.35803 c -0.58781,-10.73679 -0.37594,-23.38645 0.27149,-34.03219" style="fill:none;stroke:#000000;stroke-width:2.61538;stroke-linecap:round;stroke-linejoin:round;stroke-miterlimit:10;stroke-dasharray:none;stroke-opacity:1" id="path1212" sodipodi:nodetypes="cc" />
            </g>
         </g>
         <g id="g1214" transform="matrix(1,0,0,-1,0,792)">
            <g id="g1216">
               <path d="m 800.58051,471.32584 c -4.0133,0.66045 -7.85995,2.25013 -11.95704,2.40096" style="fill:none;stroke:#000000;stroke-width:2.61538;stroke-linecap:round;stroke-linejoin:round;stroke-miterlimit:10;stroke-dasharray:none;stroke-opacity:1" id="path1218" />
            </g>
         </g>
         <g id="g1220" transform="matrix(1,0,0,-1,0,792)">
            <g id="g1222">
               <path d="m 794.22168,504.99222 c 0.31947,-9.59228 -0.74684,-19.16892 -0.52377,-28.76437" style="fill:none;stroke:#000000;stroke-width:2.61538;stroke-linecap:round;stroke-linejoin:round;stroke-miterlimit:10;stroke-dasharray:none;stroke-opacity:1" id="path1224" />
            </g>
         </g>
         <g id="g1226" transform="matrix(1,0,0,-1,0,792)">
            <g id="g1228">
               <path d="m 793.69791,476.22785 c -1.47751,0.88483 -5.2373,-4.71101 -5.64084,-3.24521" style="fill:none;stroke:#000000;stroke-width:2.61538;stroke-linecap:round;stroke-linejoin:round;stroke-miterlimit:10;stroke-dasharray:none;stroke-opacity:1" id="path1230" sodipodi:nodetypes="cc" />
            </g>
         </g>
         <g id="g1232" transform="matrix(1,0,0,-1,0,792)">
            <g id="g1234">
               <path d="m 793.9837,505.61575 c -0.26139,0.18275 -1.32443,0.95544 -1.59456,1.15903" style="fill:none;stroke:#000000;stroke-width:2.61538;stroke-linecap:round;stroke-linejoin:round;stroke-miterlimit:10;stroke-dasharray:none;stroke-opacity:1" id="path1236" />
            </g>
         </g>
         <g id="g1238" transform="matrix(1,0,0,-1,0,792)">
            <g id="g1240">
               <path d="m 788.44104,470.76575 c 0.53668,-39.37117 -0.9625,-78.76767 -0.62077,-118.06957 0.53733,-1.12534 -1.5471,-7.12473 0.65654,-6.65813" style="fill:none;stroke:#000000;stroke-width:2.61538;stroke-linecap:round;stroke-linejoin:round;stroke-miterlimit:10;stroke-dasharray:none;stroke-opacity:1" id="path1242" />
            </g>
         </g>
         <g id="g1244" transform="matrix(1,0,0,-1,0,792)">
            <g id="g1246">
               <path d="m 788.47681,346.03805 c 3.57877,-6.07628 12.71073,-12.27901 17.41653,-15.20506" style="fill:none;stroke:#000000;stroke-width:2.61538;stroke-linecap:round;stroke-linejoin:round;stroke-miterlimit:10;stroke-dasharray:none;stroke-opacity:1" id="path1248" sodipodi:nodetypes="cc" />
            </g>
         </g>
         <g id="g1250" transform="matrix(1,0,0,-1,0,792)">
            <g id="g1252">
               <path d="m 793.47363,357.97763 c -0.0845,-3.19991 -0.77667,-6.38803 -0.55449,-9.59255" style="fill:none;stroke:#000000;stroke-width:2.61538;stroke-linecap:round;stroke-linejoin:round;stroke-miterlimit:10;stroke-dasharray:none;stroke-opacity:1" id="path1254" />
            </g>
         </g>
         <g id="g1256" transform="matrix(1,0,0,-1,0,792)">
            <g id="g1258">
               <path d="m 792.9975,347.49731 c 6.96151,-6.92458 5.47597,-5.76744 5.4859,5.34876" style="fill:none;stroke:#000000;stroke-width:2.61538;stroke-linecap:round;stroke-linejoin:round;stroke-miterlimit:10;stroke-dasharray:none;stroke-opacity:1" id="path1260" sodipodi:nodetypes="cc" />
            </g>
         </g>
         <g id="g1262" transform="matrix(1,0,0,-1,0,792)">
            <g id="g1264">
               <path d="m 798.4834,352.84607 -5.00977,5.13156" style="fill:none;stroke:#000000;stroke-width:2.61538;stroke-linecap:round;stroke-linejoin:round;stroke-miterlimit:10;stroke-dasharray:none;stroke-opacity:1" id="path1266" sodipodi:nodetypes="cc" />
            </g>
         </g>
         <g id="g1268" transform="matrix(1,0,0,-1,0,792)">
            <g id="g1270">
               <path d="m 789.41719,566.28963 c 0,0 345.49441,3.96056 348.67091,4.65041" style="fill:none;stroke:#000000;stroke-width:2.61538;stroke-linecap:round;stroke-linejoin:round;stroke-miterlimit:10;stroke-dasharray:none;stroke-opacity:1" id="path1272" sodipodi:nodetypes="cc" />
            </g>
         </g>
         <g id="g1274" transform="matrix(1,0,0,-1,0,792)">
            <g id="g1276">
               <path d="m 805.20502,560.89618 328.36138,1.30047" style="fill:none;stroke:#000000;stroke-width:2.61538;stroke-linecap:round;stroke-linejoin:round;stroke-miterlimit:10;stroke-dasharray:none;stroke-opacity:1" id="path1278" sodipodi:nodetypes="cc" />
            </g>
         </g>
         <g id="g1280" transform="matrix(1,0,0,-1,0,792)">
            <g id="g1282">
               <path d="m 1140.8726,522.07904 c -1.7241,15.93034 5.0404,34.27591 -2.8514,48.4794 l -1.4125,0.22283" style="fill:none;stroke:#000000;stroke-width:2.61538;stroke-linecap:round;stroke-linejoin:round;stroke-miterlimit:10;stroke-dasharray:none;stroke-opacity:1" id="path1284" sodipodi:nodetypes="ccc" />
            </g>
         </g>
         <g id="g1286" transform="matrix(1,0,0,-1,0,792)">
            <g id="g1288">
               <path d="m 1141.4794,521.67444 c 0.3143,1.56711 -3.1337,3.62954 -3.5158,1.16553" style="fill:none;stroke:#000000;stroke-width:2.61538;stroke-linecap:round;stroke-linejoin:round;stroke-miterlimit:10;stroke-dasharray:none;stroke-opacity:1" id="path1290" />
            </g>
         </g>
         <g id="g1292" transform="matrix(1,0,0,-1,0,792)">
            <g id="g1294">
               <path d="m 1138.0061,523.37104 c 1.1507,-9.3462 -1.0465,-23.55459 -1.3597,-32.90549" style="fill:none;stroke:#000000;stroke-width:2.61538;stroke-linecap:round;stroke-linejoin:round;stroke-miterlimit:10;stroke-dasharray:none;stroke-opacity:1" id="path1296" sodipodi:nodetypes="cc" />
            </g>
         </g>
         <g id="g1298" transform="matrix(1,0,0,-1,0,792)">
            <g id="g1300">
               <path d="m 1136.6464,490.46555 3.8945,-3.58787" style="fill:none;stroke:#000000;stroke-width:2.61538;stroke-linecap:round;stroke-linejoin:round;stroke-miterlimit:10;stroke-dasharray:none;stroke-opacity:1" id="path1302" sodipodi:nodetypes="cc" />
            </g>
         </g>
         <g id="g1304" transform="matrix(1,0,0,-1,0,792)">
            <g id="g1306">
               <path d="m 1140.8258,487.04688 -2.1403,-112.97576 c 0.252,-2.04788 -0.7616,-5.8981 -3.6516,-4.53765" style="fill:none;stroke:#000000;stroke-width:2.61538;stroke-linecap:round;stroke-linejoin:round;stroke-miterlimit:10;stroke-dasharray:none;stroke-opacity:1" id="path1308" sodipodi:nodetypes="ccc" />
            </g>
         </g>
         <g id="g1310" transform="matrix(1,0,0,-1,0,792)">
            <g id="g1312">
               <path d="M 1135.0339,369.53347 805.89334,330.83299" style="fill:none;stroke:#000000;stroke-width:2.61538;stroke-linecap:round;stroke-linejoin:round;stroke-miterlimit:10;stroke-dasharray:none;stroke-opacity:1" id="path1314" sodipodi:nodetypes="cc" />
            </g>
         </g>
         <g id="g1316" transform="matrix(1,0,0,-1,0,792)">
            <g id="g1318">
               <path d="m 792.07941,557.1452 c -4.63986,-6.09859 6.58489,-1.8223 -0.9011,-0.91969" style="fill:none;stroke:#000000;stroke-width:2.61538;stroke-linecap:round;stroke-linejoin:round;stroke-miterlimit:10;stroke-dasharray:none;stroke-opacity:1" id="path1320" />
            </g>
         </g>
         <g id="g1322" transform="matrix(1,0,0,-1,0,792)">
            <g id="g1324">
               <path d="m 817.78015,549.28949 c 0,0 312.42855,5.31268 311.48305,7.10337" style="fill:none;stroke:#000000;stroke-width:2.61538;stroke-linecap:round;stroke-linejoin:round;stroke-miterlimit:10;stroke-dasharray:none;stroke-opacity:1" id="path1326" sodipodi:nodetypes="cc" />
            </g>
         </g>
         <g id="g1328" transform="matrix(1,0,0,-1,0,792)">
            <g id="g1330">
               <path d="m 1130.2087,554.60217 -0.1522,-30.8164" style="fill:none;stroke:#000000;stroke-width:2.61538;stroke-linecap:round;stroke-linejoin:round;stroke-miterlimit:10;stroke-dasharray:none;stroke-opacity:1" id="path1332" sodipodi:nodetypes="cc" />
            </g>
         </g>
         <g id="g1334" transform="matrix(1,0,0,-1,0,792)">
            <g id="g1336">
               <path d="m 817.78015,549.28949 -0.748,-34.63821" style="fill:none;stroke:#000000;stroke-width:2.61538;stroke-linecap:round;stroke-linejoin:round;stroke-miterlimit:10;stroke-dasharray:none;stroke-opacity:1" id="path1338" sodipodi:nodetypes="cc" />
            </g>
         </g>
         <g id="g1340" transform="matrix(1,0,0,-1,0,792)">
            <g id="g1342">
               <path d="m 817.88861,513.38654 311.37499,10.35671" style="fill:none;stroke:#000000;stroke-width:2.61538;stroke-linecap:round;stroke-linejoin:round;stroke-miterlimit:10;stroke-dasharray:none;stroke-opacity:1" id="path1344" sodipodi:nodetypes="cc" />
            </g>
         </g>
         <g id="g1346" transform="matrix(1,0,0,-1,0,792)">
            <g id="g1348">
               <path d="m 808.6759,471.11429 332.4856,15.7003" style="fill:none;stroke:#000000;stroke-width:2.61538;stroke-linecap:round;stroke-linejoin:round;stroke-miterlimit:10;stroke-dasharray:none;stroke-opacity:1" id="path1350" sodipodi:nodetypes="cc" />
            </g>
         </g>
         <g id="g1352" transform="matrix(1,0,0,-1,0,792)">
            <g id="g1354">
               <path d="m 1104.3451,372.0715 c -1.2792,-3.81951 3.7097,-0.35354 -1.6482,0.0471" style="fill:none;stroke:#000000;stroke-width:2.61538;stroke-linecap:round;stroke-linejoin:round;stroke-miterlimit:10;stroke-dasharray:none;stroke-opacity:1" id="path1356" />
            </g>
         </g>
         <g id="g1358" transform="matrix(1,0,0,-1,0,792)">
            <g id="g1360">
               <path d="m 1116.9426,375.65109 c -6.3423,-4.30711 5.1471,-3.66343 -1.5927,-1.29474" style="fill:none;stroke:#000000;stroke-width:2.61538;stroke-linecap:round;stroke-linejoin:round;stroke-miterlimit:10;stroke-dasharray:none;stroke-opacity:1" id="path1362" />
            </g>
         </g>
         <g id="g1364" transform="matrix(1,0,0,-1,0,792)">
            <g id="g1366">
               <path d="m 1129.9105,375.332 c -9.0399,-2.42557 7.9222,-3.21485 -3.8033,0.25491" style="fill:none;stroke:#000000;stroke-width:2.61538;stroke-linecap:round;stroke-linejoin:round;stroke-miterlimit:10;stroke-dasharray:none;stroke-opacity:1" id="path1368" />
            </g>
         </g>
         <g id="g1370" transform="matrix(1,0,0,-1,0,792)">
            <g id="g1372">
               <path d="m 848.21039,346.70279 c -3.41777,-11.4713 9.40573,1.45963 -1.49164,-1.40192" style="fill:none;stroke:#000000;stroke-width:2.61538;stroke-linecap:round;stroke-linejoin:round;stroke-miterlimit:10;stroke-dasharray:none;stroke-opacity:1" id="path1374" />
            </g>
         </g>
         <g id="g1376" transform="matrix(1,0,0,-1,0,792)">
            <g id="g1378">
               <path d="m 832.0343,341.51022 c -4.3508,-5.71593 10.02189,2.27048 -0.24481,1.35455" style="fill:none;stroke:#000000;stroke-width:2.61538;stroke-linecap:round;stroke-linejoin:round;stroke-miterlimit:10;stroke-dasharray:none;stroke-opacity:1" id="path1380" />
            </g>
         </g>
         <g id="g1382" transform="matrix(1,0,0,-1,0,792)">
            <g id="g1384">
               <path d="m 818.0246,342.0257 c -4.94987,-8.17061 14.31365,-0.39043 -1.27085,0.97652" style="fill:none;stroke:#000000;stroke-width:2.61538;stroke-linecap:round;stroke-linejoin:round;stroke-miterlimit:10;stroke-dasharray:none;stroke-opacity:1" id="path1386" />
            </g>
         </g>
         <g id="g1388" transform="matrix(1,0,0,-1,0,792)">
            <g id="g1390">
               <path d="m 869.77887,370.82672 c -0.0757,-9.54413 -0.53709,-22.71235 2.04815,-30.38201" style="fill:none;stroke:#000000;stroke-width:2.61538;stroke-linecap:round;stroke-linejoin:round;stroke-miterlimit:10;stroke-dasharray:none;stroke-opacity:1" id="path1392" />
            </g>
         </g>
         <g id="g1394" transform="matrix(1,0,0,-1,0,792)">
            <g id="g1396">
               <path d="m 869.77887,370.82672 221.12893,19.38147" style="fill:none;stroke:#000000;stroke-width:2.61538;stroke-linecap:round;stroke-linejoin:round;stroke-miterlimit:10;stroke-dasharray:none;stroke-opacity:1" id="path1398" sodipodi:nodetypes="cc" />
            </g>
         </g>
         <g id="g1400" transform="matrix(1,0,0,-1,0,792)">
            <g id="g1402">
               <path d="m 1090.9078,390.20819 c -0.1237,-8.47198 1.8488,-16.8554 1.6298,-25.31987" style="fill:none;stroke:#000000;stroke-width:2.61538;stroke-linecap:round;stroke-linejoin:round;stroke-miterlimit:10;stroke-dasharray:none;stroke-opacity:1" id="path1404" />
            </g>
         </g>
         <g id="g1406" transform="matrix(1,0,0,-1,0,792)">
            <g id="g1408">
               <path d="m 928.14551,462.95718 107.98019,5.4758" style="fill:none;stroke:#000000;stroke-width:2.61538;stroke-linecap:round;stroke-linejoin:round;stroke-miterlimit:10;stroke-dasharray:none;stroke-opacity:1" id="path1410" sodipodi:nodetypes="cc" />
            </g>
         </g>
         <g id="g1412" transform="matrix(1,0,0,-1,0,792)">
            <g id="g1414">
               <path d="m 1036.1257,468.43298 c 1.018,-13.14262 2.5136,-36.63613 -4.932,-46.14483" style="fill:none;stroke:#000000;stroke-width:2.61538;stroke-linecap:round;stroke-linejoin:round;stroke-miterlimit:10;stroke-dasharray:none;stroke-opacity:1" id="path1416" sodipodi:nodetypes="cc" />
            </g>
         </g>
         <g id="g1418" transform="matrix(1,0,0,-1,0,792)">
            <g id="g1420">
               <path d="m 928.14551,462.95718 c 0.89995,-14.93004 0.31879,-30.29979 1.79899,-45.01989 l -0.26336,0.19702" style="fill:none;stroke:#000000;stroke-width:2.61538;stroke-linecap:round;stroke-linejoin:round;stroke-miterlimit:10;stroke-dasharray:none;stroke-opacity:1" id="path1422" />
            </g>
         </g>
         <g id="g1424" transform="matrix(1,0,0,-1,0,792)">
            <g id="g1426">
               <path d="m 929.8302,417.49713 c 0.1143,0.44016 101.3635,4.79102 101.3635,4.79102" style="fill:none;stroke:#000000;stroke-width:2.61538;stroke-linecap:round;stroke-linejoin:round;stroke-miterlimit:10;stroke-dasharray:none;stroke-opacity:1" id="path1428" sodipodi:nodetypes="cc" />
            </g>
         </g>
         <g id="g1430" transform="matrix(1,0,0,-1,0,793.5)">
            <g id="g1432">
               <path d="m 991.74976,466.49837 0.12277,-44.00421" style="fill:none;stroke:#000000;stroke-width:2.61538;stroke-linecap:round;stroke-linejoin:round;stroke-miterlimit:10;stroke-dasharray:none;stroke-opacity:1" id="path1434" sodipodi:nodetypes="cc" />
            </g>
         </g>
         <g id="g1436" transform="matrix(1,0,0,-1,0,792)">
            <g id="g1438">
               <path d="m 969.88702,463.80157 c 0.11227,-14.63963 2.31411,-29.19113 2.79803,-43.80944" style="fill:none;stroke:#000000;stroke-width:2.61538;stroke-linecap:round;stroke-linejoin:round;stroke-miterlimit:10;stroke-dasharray:none;stroke-opacity:1" id="path1440" />
            </g>
         </g>
         <g id="g1442" transform="matrix(1,0,0,-1,0,792)">
            <g id="g1444">
               <path d="m 984.3514,403.5307 c -13.48834,-11.67031 14.79529,-8.96288 0,0" style="fill:none;stroke:#000000;stroke-width:2.61538;stroke-linecap:round;stroke-linejoin:round;stroke-miterlimit:10;stroke-dasharray:none;stroke-opacity:1" id="path1446" sodipodi:nodetypes="cc" />
            </g>
         </g>
         <g id="g1448" transform="matrix(1,0,0,-1,0,792)">
            <g id="g1450">
               <path d="m 1065.5421,473.42419 c 23.4339,0.5668 25.449,-38.41993 1.3687,-44.58958 -24.5623,-10.02555 -35.8103,31.87772 -13.4228,40.49633 4.2755,2.33801 7.1836,4.54528 12.0541,4.09325" style="fill:none;stroke:#000000;stroke-width:2.61538;stroke-linecap:round;stroke-linejoin:round;stroke-miterlimit:10;stroke-dasharray:none;stroke-opacity:1" id="path1452" sodipodi:nodetypes="cccc" />
            </g>
         </g>
         <g id="g1454" transform="matrix(1,0,0,-1,0,792)">
            <g id="g1456">
               <path d="m 1061.9022,470.4234 c 22.0997,-1.19485 15.8202,-38.19406 -5.3165,-34.67941 -16.5299,5.52248 -15.685,32.295 3.376,33.87615" style="fill:none;stroke:#000000;stroke-width:2.61538;stroke-linecap:round;stroke-linejoin:round;stroke-miterlimit:10;stroke-dasharray:none;stroke-opacity:1" id="path1458" />
            </g>
         </g>
         <g id="g1460" transform="matrix(1,0,0,-1,0,792)">
            <g id="g1462">
               <path d="m 898.32881,460.83533 c 17.68801,2.86674 31.67903,-26.11012 14.70174,-41.26647 -14.85726,-14.60151 -39.21559,-3.86213 -41.34607,15.86668 -2.952,15.89719 13.58508,23.81863 26.64433,25.39979" style="fill:none;stroke:#000000;stroke-width:2.61538;stroke-linecap:round;stroke-linejoin:round;stroke-miterlimit:10;stroke-dasharray:none;stroke-opacity:1" id="path1464" sodipodi:nodetypes="cccc" />
            </g>
         </g>
         <g id="g1466" transform="matrix(1,0,0,-1,0,792)">
            <g id="g1468">
               <path d="m 891.44324,456.7345 c 21.63475,6.73833 30.33446,-25.06548 13.6743,-35.97463 -15.33622,-12.8017 -40.42194,7.69695 -30.8257,25.12159 2.67523,4.20805 6.19004,7.91126 10.96204,9.69708" style="fill:none;stroke:#000000;stroke-width:2.61538;stroke-linecap:round;stroke-linejoin:round;stroke-miterlimit:10;stroke-dasharray:none;stroke-opacity:1" id="path1470" />
            </g>
         </g>
         <g id="g1472" transform="matrix(1,0,0,-1,0,792)">
            <g id="g1474">
               <path d="m 887.01898,452.0249 c 0.42394,-7.52335 6.04796,1.16796 -1.38202,-0.5367" style="fill:none;stroke:#000000;stroke-width:2.61538;stroke-linecap:round;stroke-linejoin:round;stroke-miterlimit:10;stroke-dasharray:none;stroke-opacity:1" id="path1476" />
            </g>
         </g>
         <g id="g1478" transform="matrix(1,0,0,-1,0,792)">
            <g id="g1480">
               <path d="m 879.06201,442.23584 c -0.94713,-5.11233 4.71564,1.66766 -1.38014,-0.17323" style="fill:none;stroke:#000000;stroke-width:2.61538;stroke-linecap:round;stroke-linejoin:round;stroke-miterlimit:10;stroke-dasharray:none;stroke-opacity:1" id="path1482" />
            </g>
         </g>
         <g id="g1484" transform="matrix(1,0,0,-1,0,792)">
            <g id="g1486">
               <path d="m 880.32019,434.48483 c -2.4076,-5.85418 5.75225,-5.75931 -0.0802,-1.22993" style="fill:none;stroke:#000000;stroke-width:2.61538;stroke-linecap:round;stroke-linejoin:round;stroke-miterlimit:10;stroke-dasharray:none;stroke-opacity:1" id="path1488" />
            </g>
         </g>
         <g id="g1490" transform="matrix(1,0,0,-1,0,792)">
            <g id="g1492">
               <path d="m 889.56934,443.30664 c -13.27201,-7.50345 14.62985,-6.72175 -1.00703,-1.02267" style="fill:none;stroke:#000000;stroke-width:2.61538;stroke-linecap:round;stroke-linejoin:round;stroke-miterlimit:10;stroke-dasharray:none;stroke-opacity:1" id="path1494" />
            </g>
         </g>
         <g id="g1496" transform="matrix(1,0,0,-1,0,792)">
            <g id="g1498">
               <path d="m 899.90656,450.41415 c -12.19686,-6.40486 10.78609,-6.83409 -1.65458,-3.19351" style="fill:none;stroke:#000000;stroke-width:2.61538;stroke-linecap:round;stroke-linejoin:round;stroke-miterlimit:10;stroke-dasharray:none;stroke-opacity:1" id="path1500" />
            </g>
         </g>
         <g id="g1502" transform="matrix(1,0,0,-1,0,792)">
            <g id="g1504">
               <path d="m 892.96973,429.85416 c -7.18014,-7.99464 11.31173,-6.0362 -1.63834,0.16702" style="fill:none;stroke:#000000;stroke-width:2.61538;stroke-linecap:round;stroke-linejoin:round;stroke-miterlimit:10;stroke-dasharray:none;stroke-opacity:1" id="path1506" />
            </g>
         </g>
         <g id="g1508" transform="matrix(1,0,0,-1,0,792)">
            <g id="g1510">
               <path d="m 1052.1674,457.40228 c -4.8005,-4.87968 8.5811,-2.82408 -0.9284,-0.089 l -0.098,-0.35477" style="fill:none;stroke:#000000;stroke-width:2.61538;stroke-linecap:round;stroke-linejoin:round;stroke-miterlimit:10;stroke-dasharray:none;stroke-opacity:1" id="path1512" />
            </g>
         </g>
         <g id="g1514" transform="matrix(1,0,0,-1,0,792)">
            <g id="g1516">
               <path d="m 1054.2184,464.88083 c -9.2759,1.29742 4.3527,-7.15763 -2.3074,-1.12729" style="fill:none;stroke:#000000;stroke-width:2.61538;stroke-linecap:round;stroke-linejoin:round;stroke-miterlimit:10;stroke-dasharray:none;stroke-opacity:1" id="path1518" />
            </g>
         </g>
         <g id="g1520" transform="matrix(1,0,0,-1,0,792)">
            <g id="g1522">
               <path d="m 1052.8572,444.65356 c -3.4613,-7.33225 9.2961,1.17689 -0.3932,0.33228" style="fill:none;stroke:#000000;stroke-width:2.61538;stroke-linecap:round;stroke-linejoin:round;stroke-miterlimit:10;stroke-dasharray:none;stroke-opacity:1" id="path1524" />
            </g>
         </g>
         <g id="g1526" transform="matrix(1,0,0,-1,0,792)">
            <g id="g1528">
               <path d="m 1046.3284,451.52997 c -4.4788,-2.88579 4.8648,-5.91593 -1.6889,-1.08212" style="fill:none;stroke:#000000;stroke-width:2.61538;stroke-linecap:round;stroke-linejoin:round;stroke-miterlimit:10;stroke-dasharray:none;stroke-opacity:1" id="path1530" />
            </g>
         </g>
         <g id="g1532" transform="matrix(1,0,0,-1,0,792)">
            <g id="g1534">
               <path d="m 1062.2083,449.52054 c -5.8602,-4.09906 6.0259,-0.66519 -1.785,0.38268" style="fill:none;stroke:#000000;stroke-width:2.61538;stroke-linecap:round;stroke-linejoin:round;stroke-miterlimit:10;stroke-dasharray:none;stroke-opacity:1" id="path1536" />
            </g>
         </g>
         <g id="g1538" transform="matrix(1,0,0,-1,0,792)">
            <g id="g1540">
               <path d="m 1062.8544,459.80069 c -3.7081,-7.92643 7.4204,0.80173 -2.6456,0.006" style="fill:none;stroke:#000000;stroke-width:2.61538;stroke-linecap:round;stroke-linejoin:round;stroke-miterlimit:10;stroke-dasharray:none;stroke-opacity:1" id="path1542" />
            </g>
         </g>
         <g id="g1544" transform="matrix(1,0,0,-1,0,792)">
            <g id="g1546">
               <path d="m 1059.1139,468.77426 c 16.6993,-2.8132 16.4453,-32.8255 -2.4344,-30.76699" style="fill:none;stroke:#000000;stroke-width:2.61538;stroke-linecap:round;stroke-linejoin:round;stroke-miterlimit:10;stroke-dasharray:none;stroke-opacity:1" id="path1548" />
            </g>
         </g>
         <g id="g1550" transform="matrix(1,0,0,-1,0,792)">
            <g id="g1552">
               <path d="m 897.22021,455.0708 c 22.01769,-3.58243 7.8168,-41.8423 -11.55012,-31.39024 l 0.38337,0.92276" style="fill:none;stroke:#000000;stroke-width:2.61538;stroke-linecap:round;stroke-linejoin:round;stroke-miterlimit:10;stroke-dasharray:none;stroke-opacity:1" id="path1554" />
            </g>
         </g>
         <g id="g1556" transform="matrix(1,0,0,-1,0,792)">
            <g id="g1558">
               <path d="m 888.4812,395.83209 c 9.93481,15.43714 15.10309,-7.32147 3.0655,-12.10447 -8.99984,-6.63036 5.97876,-0.54509 8.30885,-2.37544" style="fill:none;stroke:#000000;stroke-width:2.61538;stroke-linecap:round;stroke-linejoin:round;stroke-miterlimit:10;stroke-dasharray:none;stroke-opacity:1" id="path1560" />
            </g>
         </g>
         <g id="g1562" transform="matrix(1,0,0,-1,0,792)">
            <g id="g1564">
               <path d="m 905.43707,395.91113 c 3.43814,-3.25126 7.13433,-9.53791 9.4398,-11.52738" style="fill:none;stroke:#000000;stroke-width:2.61538;stroke-linecap:round;stroke-linejoin:round;stroke-miterlimit:10;stroke-dasharray:none;stroke-opacity:1" id="path1566" />
            </g>
         </g>
         <g id="g1568" transform="matrix(1,0,0,-1,0,792)">
            <g id="g1570">
               <path d="m 915.53052,396.22849 c -2.66325,-4.82389 -7.19529,-10.25258 -9.74825,-13.864" style="fill:none;stroke:#000000;stroke-width:2.61538;stroke-linecap:round;stroke-linejoin:round;stroke-miterlimit:10;stroke-dasharray:none;stroke-opacity:1" id="path1572" />
            </g>
         </g>
         <g id="g1574" transform="matrix(1,0,0,-1,0,792)">
            <g id="g1576">
               <path d="m 928.57202,404.11798 c -0.45469,-6.95216 0.80024,-14.0104 -0.14854,-20.99659" style="fill:none;stroke:#000000;stroke-width:2.61538;stroke-linecap:round;stroke-linejoin:round;stroke-miterlimit:10;stroke-dasharray:none;stroke-opacity:1" id="path1578" />
            </g>
         </g>
         <g id="g1580" transform="matrix(1,0,0,-1,0,792)">
            <g id="g1582">
               <path d="m 932.04047,387.7016 c -3.55194,0.43155 -7.13369,-0.98415 -10.64252,0.0727" style="fill:none;stroke:#000000;stroke-width:2.61538;stroke-linecap:round;stroke-linejoin:round;stroke-miterlimit:10;stroke-dasharray:none;stroke-opacity:1" id="path1584" />
            </g>
         </g>
         <g id="g1586" transform="matrix(1,0,0,-1,0,792)">
            <g id="g1588">
               <path d="m 920.08923,388.31909 c 4.18329,4.19153 4.25929,12.14319 8.48279,15.79889" style="fill:none;stroke:#000000;stroke-width:2.61538;stroke-linecap:round;stroke-linejoin:round;stroke-miterlimit:10;stroke-dasharray:none;stroke-opacity:1" id="path1590" sodipodi:nodetypes="cc" />
            </g>
         </g>
         <g id="g1592" transform="matrix(1,0,0,-1,0,792)">
            <g id="g1594">
               <path d="m 937.48114,403.67538 c 0.52782,-6.64034 -0.92345,-13.38263 -0.0116,-20.01718" style="fill:none;stroke:#000000;stroke-width:2.61538;stroke-linecap:round;stroke-linejoin:round;stroke-miterlimit:10;stroke-dasharray:none;stroke-opacity:1" id="path1596" />
            </g>
         </g>
         <g id="g1598" transform="matrix(1,0,0,-1,0,792)">
            <g id="g1600">
               <path d="m 937.93469,394.77039 c 7.58555,9.46654 11.32343,-1.2465 8.75288,-8.38813" style="fill:none;stroke:#000000;stroke-width:2.61538;stroke-linecap:round;stroke-linejoin:round;stroke-miterlimit:10;stroke-dasharray:none;stroke-opacity:1" id="path1602" />
            </g>
         </g>
      </g>
   </g>
</svg>
