<?xml version="1.0" encoding="UTF-8" standalone="no"?>
<!-- Created by Ashley Blewer - This work is licensed under a Creative Commons Attribution 4.0 International License -->

<svg width="544" height="480" viewBox="0 0 143.93334 127" version="1.1" id="svg2490" inkscape:version="1.1.2 (08b2f3d93c, 2022-04-05)" sodipodi:docname="1981-ced-3.svg"
   xmlns:inkscape="http://www.inkscape.org/namespaces/inkscape"
   xmlns:sodipodi="http://sodipodi.sourceforge.net/DTD/sodipodi-0.dtd"
   xmlns="http://www.w3.org/2000/svg"
   xmlns:svg="http://www.w3.org/2000/svg">
   <sodipodi:namedview id="namedview2492" pagecolor="#ffffff" bordercolor="#666666" borderopacity="1.0" inkscape:pageshadow="2" inkscape:pageopacity="0.0" inkscape:pagecheckerboard="0" inkscape:document-units="mm" showgrid="false" units="px" inkscape:zoom="0.90583674" inkscape:cx="272.67607" inkscape:cy="177.18425" inkscape:window-width="1848" inkscape:window-height="1136" inkscape:window-x="72" inkscape:window-y="27" inkscape:window-maximized="1" inkscape:current-layer="layer1" />
   <defs id="defs2487" />
   <g inkscape:label="Layer 1" inkscape:groupmode="layer" id="layer1">
      <g id="g9285" transform="matrix(0.68635383,0,0,0.68635383,-643.17765,-246.10914)">
         <g id="g2015" transform="matrix(0.76770993,0,0,0.76826246,266.84334,13.099388)" style="stroke-width:1.30211">
            <g id="g680" transform="matrix(1,0,0,-1,0,792)" style="stroke-width:1.30211">
               <g id="g682" style="stroke-width:1.30211">
                  <path d="m 887.26489,322.46719 c 6.63524,-59.46328 6.82545,-119.66464 17.8664,-178.63556" style="fill:none;stroke:#000000;stroke-width:3.4055;stroke-linecap:round;stroke-linejoin:round;stroke-miterlimit:10;stroke-dasharray:none;stroke-opacity:1" id="path684" />
               </g>
            </g>
            <g id="g686" transform="matrix(1,0,0,-1,0,792)" style="stroke-width:1.30211">
               <g id="g688" style="stroke-width:1.30211">
                  <path d="m 904.80072,143.1825 c 16.30344,-15.05584 44.50082,-6.2632 64.69251,-6.96357" style="fill:none;stroke:#000000;stroke-width:3.4055;stroke-linecap:round;stroke-linejoin:round;stroke-miterlimit:10;stroke-dasharray:none;stroke-opacity:1" id="path690" sodipodi:nodetypes="cc" />
               </g>
            </g>
            <g id="g692" transform="matrix(1,0,0,-1,0,792)" style="stroke-width:1.30211">
               <g id="g694" style="stroke-width:1.30211">
                  <path d="m 969.49323,136.21893 c -1.97081,12.29651 42.99347,13.30099 45.05897,3.03495" style="fill:none;stroke:#000000;stroke-width:3.4055;stroke-linecap:round;stroke-linejoin:round;stroke-miterlimit:10;stroke-dasharray:none;stroke-opacity:1" id="path696" />
               </g>
            </g>
            <g id="g698" transform="matrix(1,0,0,-1,0,792)" style="stroke-width:1.30211">
               <g id="g700" style="stroke-width:1.30211">
                  <path d="m 969.98175,136.74164 c 14.71404,0.55358 29.43434,-0.79965 44.14485,-0.0185" style="fill:none;stroke:#000000;stroke-width:3.4055;stroke-linecap:round;stroke-linejoin:round;stroke-miterlimit:10;stroke-dasharray:none;stroke-opacity:1" id="path702" />
               </g>
            </g>
            <g id="g704" transform="matrix(1,0,0,-1,0,792)" style="stroke-width:1.30211">
               <g id="g706" style="stroke-width:1.30211">
                  <path d="m 1013.124,136.84206 c 19.4444,2.22266 49.6209,-9.21664 62.8502,9.35784" style="fill:none;stroke:#000000;stroke-width:3.4055;stroke-linecap:round;stroke-linejoin:round;stroke-miterlimit:10;stroke-dasharray:none;stroke-opacity:1" id="path708" />
               </g>
            </g>
            <g id="g710" transform="matrix(1,0,0,-1,0,792)" style="stroke-width:1.30211">
               <g id="g712" style="stroke-width:1.30211">
                  <path d="m 886.3479,322.20432 c -0.15589,0.2312 0.15328,1.45355 0.46375,1.83352" style="fill:none;stroke:#000000;stroke-width:3.4055;stroke-linecap:round;stroke-linejoin:round;stroke-miterlimit:10;stroke-dasharray:none;stroke-opacity:1" id="path714" />
               </g>
            </g>
            <g id="g716" transform="matrix(1,0,0,-1,0,792)" style="stroke-width:1.30211">
               <g id="g718" style="stroke-width:1.30211">
                  <path d="m 886.81165,324.03784 c 8.27343,2.13463 37.49864,1.66531 52.63824,2.405" style="fill:none;stroke:#000000;stroke-width:3.4055;stroke-linecap:round;stroke-linejoin:round;stroke-miterlimit:10;stroke-dasharray:none;stroke-opacity:1" id="path720" sodipodi:nodetypes="cc" />
               </g>
            </g>
            <g id="g722" transform="matrix(1,0,0,-1,0,792)" style="stroke-width:1.30211">
               <g id="g724" style="stroke-width:1.30211">
                  <path d="m 939.44989,326.44284 c 49.89761,-0.14142 99.86061,2.46099 149.70091,-1.02659" style="fill:none;stroke:#000000;stroke-width:3.4055;stroke-linecap:round;stroke-linejoin:round;stroke-miterlimit:10;stroke-dasharray:none;stroke-opacity:1" id="path726" />
               </g>
            </g>
            <g id="g728" transform="matrix(1,0,0,-1,0,792)" style="stroke-width:1.30211">
               <g id="g730" style="stroke-width:1.30211">
                  <path d="m 1091.4579,322.56754 c -1.2373,-56.50629 -9.585,-113.01855 -14.9138,-169.33806 l -1.8229,-7.50937" style="fill:none;stroke:#000000;stroke-width:3.4055;stroke-linecap:round;stroke-linejoin:round;stroke-miterlimit:10;stroke-dasharray:none;stroke-opacity:1" id="path732" />
               </g>
            </g>
            <g id="g734" transform="matrix(1,0,0,-1,0,792)" style="stroke-width:1.30211">
               <g id="g736" style="stroke-width:1.30211">
                  <path d="m 1059.3322,327.08914 c 25.1881,-0.78586 53.7585,-0.33976 78.8855,-2.75885" style="fill:none;stroke:#000000;stroke-width:3.4055;stroke-linecap:round;stroke-linejoin:round;stroke-miterlimit:10;stroke-dasharray:none;stroke-opacity:1" id="path738" sodipodi:nodetypes="cc" />
               </g>
            </g>
            <g id="g740" transform="matrix(1,0,0,-1,0,792)" style="stroke-width:1.30211">
               <g id="g742" style="stroke-width:1.30211">
                  <path d="m 1138.2177,324.33029 c -5.4919,-51.2049 -9.2385,-102.724 -19.0568,-153.18386 -1.9131,-38.41099 -15.4548,-26.83493 -46.2226,-28.35106" style="fill:none;stroke:#000000;stroke-width:3.4055;stroke-linecap:round;stroke-linejoin:round;stroke-miterlimit:10;stroke-dasharray:none;stroke-opacity:1" id="path744" sodipodi:nodetypes="ccc" />
               </g>
            </g>
            <g id="g746" transform="matrix(1,0,0,-1,0,792)" style="stroke-width:1.30211">
               <g id="g748" style="stroke-width:1.30211">
                  <path d="m 1092.709,316.87521 c 9.1688,-0.89275 21.0183,-2.20813 30.1278,-3.60266" style="fill:none;stroke:#000000;stroke-width:3.4055;stroke-linecap:round;stroke-linejoin:round;stroke-miterlimit:10;stroke-dasharray:none;stroke-opacity:1" id="path750" sodipodi:nodetypes="cc" />
               </g>
            </g>
            <g id="g752" transform="matrix(1,0,0,-1,0,792)" style="stroke-width:1.30211">
               <g id="g754" style="stroke-width:1.30211">
                  <path d="m 1122.8368,313.27255 c -5.9122,-53.8909 -9.497,-108.11647 -16.3027,-161.87322 l -2.828,-7.08783" style="fill:none;stroke:#000000;stroke-width:3.4055;stroke-linecap:round;stroke-linejoin:round;stroke-miterlimit:10;stroke-dasharray:none;stroke-opacity:1" id="path756" />
               </g>
            </g>
            <g id="g758" transform="matrix(1,0,0,-1,0,792)" style="stroke-width:1.30211">
               <g id="g760" style="stroke-width:1.30211">
                  <path d="m 918.70264,136.36209 c -4.60022,59.75812 -18.6786,119.0043 -14.97548,179.22994 l 0.37125,-0.405 0.30295,-0.33049" style="fill:none;stroke:#000000;stroke-width:3.4055;stroke-linecap:round;stroke-linejoin:round;stroke-miterlimit:10;stroke-dasharray:none;stroke-opacity:1" id="path762" />
               </g>
            </g>
            <g id="g764" transform="matrix(1,0,0,-1,0,792)" style="stroke-width:1.30211">
               <g id="g766" style="stroke-width:1.30211">
                  <path d="m 904.40136,314.85654 c 54.9927,-1.0112 117.23424,4.34503 172.07254,-1.45816" style="fill:none;stroke:#000000;stroke-width:3.4055;stroke-linecap:round;stroke-linejoin:round;stroke-miterlimit:10;stroke-dasharray:none;stroke-opacity:1" id="path768" sodipodi:nodetypes="cc" />
               </g>
            </g>
            <g id="g770" transform="matrix(1,0,0,-1,0,792)" style="stroke-width:1.30211">
               <g id="g772" style="stroke-width:1.30211">
                  <path d="m 1076.4739,313.39838 c -6.2503,-59.44307 -5.7744,-117.72004 -15.4564,-176.69404" style="fill:none;stroke:#000000;stroke-width:3.4055;stroke-linecap:round;stroke-linejoin:round;stroke-miterlimit:10;stroke-dasharray:none;stroke-opacity:1" id="path774" sodipodi:nodetypes="cc" />
               </g>
            </g>
            <g id="g872" transform="matrix(1,0,0,-1,0,792)" style="stroke-width:1.30211">
               <g id="g874" style="stroke-width:1.30211">
                  <path d="m 1049.144,306.94452 c 2.1069,-0.21694 10.4317,-1.30241 12.4871,-1.62821" style="fill:none;stroke:#000000;stroke-width:1.70275;stroke-linecap:round;stroke-linejoin:round;stroke-miterlimit:10;stroke-dasharray:none;stroke-opacity:1" id="path876" />
               </g>
            </g>
            <g id="g878" transform="matrix(1,0,0,-1,0,792)" style="stroke-width:1.30211">
               <g id="g880" style="stroke-width:1.30211">
                  <path d="m 1030.9321,298.92639 c 11.4089,-3.59111 23.4987,0.14182 35.0594,-2.28096" style="fill:none;stroke:#000000;stroke-width:1.70275;stroke-linecap:round;stroke-linejoin:round;stroke-miterlimit:10;stroke-dasharray:none;stroke-opacity:1" id="path882" />
               </g>
            </g>
            <g id="g884" transform="matrix(1,0,0,-1,0,792)" style="stroke-width:1.30211">
               <g id="g886" style="stroke-width:1.30211">
                  <path d="m 1033.3532,292.70435 c 10.4746,0.33108 21.3081,1.03948 31.4581,-2.1622" style="fill:none;stroke:#000000;stroke-width:1.70275;stroke-linecap:round;stroke-linejoin:round;stroke-miterlimit:10;stroke-dasharray:none;stroke-opacity:1" id="path888" />
               </g>
            </g>
            <g id="g890" transform="matrix(1,0,0,-1,0,792)" style="stroke-width:1.30211">
               <g id="g892" style="stroke-width:1.30211">
                  <path d="m 1056.0392,281.22241 c 1.4511,-0.0811 8.1807,0.10719 10.0945,0.28238" style="fill:none;stroke:#000000;stroke-width:1.70275;stroke-linecap:round;stroke-linejoin:round;stroke-miterlimit:10;stroke-dasharray:none;stroke-opacity:1" id="path894" />
               </g>
            </g>
            <g id="g896" transform="matrix(1,0,0,-1,0,792)" style="stroke-width:1.30211">
               <g id="g898" style="stroke-width:1.30211">
                  <path d="m 1100.6528,310.76257 c -4.7028,-3.40397 11.904,-0.47065 8.7895,-2.81436" style="fill:none;stroke:#000000;stroke-width:1.70275;stroke-linecap:round;stroke-linejoin:round;stroke-miterlimit:10;stroke-dasharray:none;stroke-opacity:1" id="path900" />
               </g>
            </g>
            <g id="g902" transform="matrix(1,0,0,-1,0,792)" style="stroke-width:1.30211">
               <g id="g904" style="stroke-width:1.30211">
                  <path d="m 1091.0487,300.48322 c 6.6384,2.19972 14.6744,2.31114 21.0226,-0.87842" style="fill:none;stroke:#000000;stroke-width:1.70275;stroke-linecap:round;stroke-linejoin:round;stroke-miterlimit:10;stroke-dasharray:none;stroke-opacity:1" id="path906" />
               </g>
            </g>
            <g id="g908" transform="matrix(1,0,0,-1,0,792)" style="stroke-width:1.30211">
               <g id="g910" style="stroke-width:1.30211">
                  <path d="m 1089.1172,295.54599 c 7.2242,0.1502 14.8182,1.69928 21.7629,-1.12948" style="fill:none;stroke:#000000;stroke-width:1.70275;stroke-linecap:round;stroke-linejoin:round;stroke-miterlimit:10;stroke-dasharray:none;stroke-opacity:1" id="path912" />
               </g>
            </g>
            <g id="g914" transform="matrix(1,0,0,-1,0,792)" style="stroke-width:1.30211">
               <g id="g916" style="stroke-width:1.30211">
                  <path d="m 1102.0192,285.06726 c 2.3198,2.66291 6.2598,-1.88467 8.8514,0.47076" style="fill:none;stroke:#000000;stroke-width:1.70275;stroke-linecap:round;stroke-linejoin:round;stroke-miterlimit:10;stroke-dasharray:none;stroke-opacity:1" id="path918" />
               </g>
            </g>
            <g id="g920" transform="matrix(1,0,0,-1,0,792)" style="stroke-width:1.30211">
               <g id="g922" style="stroke-width:1.30211">
                  <path d="m 999.53656,149.86917 c -55.27481,-24.27822 -99.65579,55.07246 -73.85173,100.73126 21.08285,49.90743 91.39157,51.35474 119.82547,7.26636 9.5191,-17.2643 16.9267,-38.25626 11.6443,-58.13644" style="fill:none;stroke:#000000;stroke-width:1.70275;stroke-linecap:round;stroke-linejoin:round;stroke-miterlimit:10;stroke-dasharray:none;stroke-opacity:1" id="path924" />
               </g>
            </g>
            <g id="g926" transform="matrix(1,0,0,-1,0,792)" style="stroke-width:1.30211">
               <g id="g928" style="stroke-width:1.30211">
                  <path d="m 1091.9906,269.58109 c 14.7883,-19.41992 18.9395,-47.20436 10.0761,-69.99342" style="fill:none;stroke:#000000;stroke-width:1.70275;stroke-linecap:round;stroke-linejoin:round;stroke-miterlimit:10;stroke-dasharray:none;stroke-opacity:1" id="path930" />
               </g>
            </g>
            <g id="g932" transform="matrix(1,0,0,-1,0,792)" style="stroke-width:1.30211">
               <g id="g934" style="stroke-width:1.30211">
                  <path d="m 1082.9058,207.06726 c 7.5673,0.18059 26.2918,-0.22838 16.7936,-12.7317" style="fill:none;stroke:#000000;stroke-width:1.70275;stroke-linecap:round;stroke-linejoin:round;stroke-miterlimit:10;stroke-dasharray:none;stroke-opacity:1" id="path936" />
               </g>
            </g>
            <g id="g938" transform="matrix(1,0,0,-1,0,792)" style="stroke-width:1.30211">
               <g id="g940" style="stroke-width:1.30211">
                  <path d="m 1085.9323,193.34268 c 6.2889,-1.58148 13.4183,0.70307 19.3509,-2.50541" style="fill:none;stroke:#000000;stroke-width:1.70275;stroke-linecap:round;stroke-linejoin:round;stroke-miterlimit:10;stroke-dasharray:none;stroke-opacity:1" id="path942" />
               </g>
            </g>
            <g id="g944" transform="matrix(1,0,0,-1,0,792)" style="stroke-width:1.30211">
               <g id="g946" style="stroke-width:1.30211">
                  <path d="m 1097.3467,185.51448 c 0.5793,-8.54196 -0.3484,-23.59402 -12.7954,-21.30384" style="fill:none;stroke:#000000;stroke-width:1.70275;stroke-linecap:round;stroke-linejoin:round;stroke-miterlimit:10;stroke-dasharray:none;stroke-opacity:1" id="path948" />
               </g>
            </g>
            <g id="g950" transform="matrix(1,0,0,-1,0,792)" style="stroke-width:1.30211">
               <g id="g952" style="stroke-width:1.30211">
                  <path d="m 1028.9038,185.09193 c 10.4841,1.79345 26.572,0.47535 33.5247,0.53099" style="fill:none;stroke:#000000;stroke-width:1.70275;stroke-linecap:round;stroke-linejoin:round;stroke-miterlimit:10;stroke-dasharray:none;stroke-opacity:1" id="path954" />
               </g>
            </g>
            <g id="g956" transform="matrix(1,0,0,-1,0,792)" style="stroke-width:1.30211">
               <g id="g958" style="stroke-width:1.30211">
                  <path d="m 1021.2979,198.70554 c 3.2846,11.75162 43.3757,9.77305 34.9303,-8.89965" style="fill:none;stroke:#000000;stroke-width:1.70275;stroke-linecap:round;stroke-linejoin:round;stroke-miterlimit:10;stroke-dasharray:none;stroke-opacity:1" id="path960" />
               </g>
            </g>
            <g id="g962" transform="matrix(1,0,0,-1,0,792)" style="stroke-width:1.30211">
               <g id="g964" style="stroke-width:1.30211">
                  <path d="m 1055.5448,180.93468 c 1.212,-12.8231 -4.1638,-32.87586 -20.5396,-20.8015" style="fill:none;stroke:#000000;stroke-width:1.70275;stroke-linecap:round;stroke-linejoin:round;stroke-miterlimit:10;stroke-dasharray:none;stroke-opacity:1" id="path966" />
               </g>
            </g>
            <g id="g968" transform="matrix(1,0,0,-1,0,792)" style="stroke-width:1.30211">
               <g id="g970" style="stroke-width:1.30211">
                  <path d="m 1047.8908,176.87349 c 0.2291,-0.54217 0.8922,-3.58702 0.9947,-4.56728" style="fill:none;stroke:#000000;stroke-width:1.70275;stroke-linecap:round;stroke-linejoin:round;stroke-miterlimit:10;stroke-dasharray:none;stroke-opacity:1" id="path972" />
               </g>
            </g>
            <g id="g974" transform="matrix(1,0,0,-1,0,792)" style="stroke-width:1.30211">
               <g id="g976" style="stroke-width:1.30211">
                  <path d="m 1021.2577,197.60054 c 15.541,-14.09858 -8.4522,-26.711 -18.9833,-17.14144" style="fill:none;stroke:#000000;stroke-width:1.70275;stroke-linecap:round;stroke-linejoin:round;stroke-miterlimit:10;stroke-dasharray:none;stroke-opacity:1" id="path978" />
               </g>
            </g>
            <g id="g980" transform="matrix(1,0,0,-1,0,792)" style="stroke-width:1.30211">
               <g id="g982" style="stroke-width:1.30211">
                  <path d="m 1000.6774,176.98602 c 0.3171,-2.96387 1.7931,-13.68869 2.214,-16.08723" style="fill:none;stroke:#000000;stroke-width:1.70275;stroke-linecap:round;stroke-linejoin:round;stroke-miterlimit:10;stroke-dasharray:none;stroke-opacity:1" id="path984" />
               </g>
            </g>
            <g id="g986" transform="matrix(1,0,0,-1,0,792)" style="stroke-width:1.30211">
               <g id="g988" style="stroke-width:1.30211">
                  <path d="m 1003.5085,156.78982 c -33.18172,9.34441 -19.96254,71.95384 13.6125,40.06423" style="fill:none;stroke:#000000;stroke-width:1.70275;stroke-linecap:round;stroke-linejoin:round;stroke-miterlimit:10;stroke-dasharray:none;stroke-opacity:1" id="path990" />
               </g>
            </g>
            <g id="g992" transform="matrix(1,0,0,-1,0,792)" style="stroke-width:1.30211">
               <g id="g994" style="stroke-width:1.30211">
                  <path d="m 1029.2418,179.32433 c 13.3799,-21.43264 -2.9536,-37.66916 -23.3053,-22.11079" style="fill:none;stroke:#000000;stroke-width:1.70275;stroke-linecap:round;stroke-linejoin:round;stroke-miterlimit:10;stroke-dasharray:none;stroke-opacity:1" id="path996" />
               </g>
            </g>
            <g id="g998" transform="matrix(1,0,0,-1,0,792)" style="stroke-width:1.30211">
               <g id="g1000" style="stroke-width:1.30211">
                  <path d="m 1024.129,167.84943 c 0.1956,2.42281 4.0962,-3.88253 0.765,-2.75415" style="fill:none;stroke:#000000;stroke-width:1.70275;stroke-linecap:round;stroke-linejoin:round;stroke-miterlimit:10;stroke-dasharray:none;stroke-opacity:1" id="path1002" />
               </g>
            </g>
            <g id="g1004" transform="matrix(1,0,0,-1,0,792)" style="stroke-width:1.30211">
               <g id="g1006" style="stroke-width:1.30211">
                  <path d="m 1012.2131,170.4893 c -0.3177,-0.21208 -2.0447,-1.2602 -2.5905,-1.57219" style="fill:none;stroke:#000000;stroke-width:1.70275;stroke-linecap:round;stroke-linejoin:round;stroke-miterlimit:10;stroke-dasharray:none;stroke-opacity:1" id="path1008" />
               </g>
            </g>
            <g id="g1010" transform="matrix(1,0,0,-1,0,792)" style="stroke-width:1.30211">
               <g id="g1012" style="stroke-width:1.30211">
                  <path d="m 1025.9882,175.05315 -2.4149,-0.7893" style="fill:none;stroke:#000000;stroke-width:1.70275;stroke-linecap:round;stroke-linejoin:round;stroke-miterlimit:10;stroke-dasharray:none;stroke-opacity:1" id="path1014" />
               </g>
            </g>
            <g id="g1016" transform="matrix(1,0,0,-1,0,792)" style="stroke-width:1.30211">
               <g id="g1018" style="stroke-width:1.30211">
                  <path d="m 1022.143,158.20012 c 1.7449,-2.09121 3.8366,2.18021 5.5653,1.59482" style="fill:none;stroke:#000000;stroke-width:1.70275;stroke-linecap:round;stroke-linejoin:round;stroke-miterlimit:10;stroke-dasharray:none;stroke-opacity:1" id="path1020" />
               </g>
            </g>
            <g id="g1022" transform="matrix(1,0,0,-1,0,792)" style="stroke-width:1.30211">
               <g id="g1024" style="stroke-width:1.30211">
                  <path d="m 1041.2846,179.79189 c -0.9397,-0.22857 -4.2622,0.67034 -3.892,-1.47705" style="fill:none;stroke:#000000;stroke-width:1.70275;stroke-linecap:round;stroke-linejoin:round;stroke-miterlimit:10;stroke-dasharray:none;stroke-opacity:1" id="path1026" />
               </g>
            </g>
            <g id="g1028" transform="matrix(1,0,0,-1,0,792)" style="stroke-width:1.30211">
               <g id="g1030" style="stroke-width:1.30211">
                  <path d="m 1052.6511,179.85191 c -0.4022,0.2154 -2.9373,0.17207 -3.8026,-0.065" style="fill:none;stroke:#000000;stroke-width:1.70275;stroke-linecap:round;stroke-linejoin:round;stroke-miterlimit:10;stroke-dasharray:none;stroke-opacity:1" id="path1032" />
               </g>
            </g>
            <g id="g1034" transform="matrix(1,0,0,-1,0,792)" style="stroke-width:1.30211">
               <g id="g1036" style="stroke-width:1.30211">
                  <path d="m 1044.7494,166.6895 4.3782,-0.2811" style="fill:none;stroke:#000000;stroke-width:1.70275;stroke-linecap:round;stroke-linejoin:round;stroke-miterlimit:10;stroke-dasharray:none;stroke-opacity:1" id="path1038" />
               </g>
            </g>
            <g id="g1040" transform="matrix(1,0,0,-1,0,792)" style="stroke-width:1.30211">
               <g id="g1042" style="stroke-width:1.30211">
                  <path d="m 954.23914,269.23816 c 3.19757,1.56672 7.09414,-13.17001 6.92819,-5.13493" style="fill:none;stroke:#000000;stroke-width:1.70275;stroke-linecap:round;stroke-linejoin:round;stroke-miterlimit:10;stroke-dasharray:none;stroke-opacity:1" id="path1044" />
               </g>
            </g>
            <g id="g1046" transform="matrix(1,0,0,-1,0,792)" style="stroke-width:1.30211">
               <g id="g1048" style="stroke-width:1.30211">
                  <path d="m 961.9718,265.77856 c 0.55559,-1.21391 8.21201,10.38456 6.98565,5.56788" style="fill:none;stroke:#000000;stroke-width:1.70275;stroke-linecap:round;stroke-linejoin:round;stroke-miterlimit:10;stroke-dasharray:none;stroke-opacity:1" id="path1050" />
               </g>
            </g>
            <g id="g1052" transform="matrix(1,0,0,-1,0,792)" style="stroke-width:1.30211">
               <g id="g1054" style="stroke-width:1.30211">
                  <path d="m 970.6308,269.98215 c 7.73735,-3.92378 1.85578,-25.72082 1.61563,-30.30996" style="fill:none;stroke:#000000;stroke-width:1.70275;stroke-linecap:round;stroke-linejoin:round;stroke-miterlimit:10;stroke-dasharray:none;stroke-opacity:1" id="path1056" />
               </g>
            </g>
            <g id="g1058" transform="matrix(1,0,0,-1,0,792)" style="stroke-width:1.30211">
               <g id="g1060" style="stroke-width:1.30211">
                  <path d="m 971.69098,239.12668 c -8.91621,-4.04769 -3.0965,9.53001 -5.57462,13.13483" style="fill:none;stroke:#000000;stroke-width:1.70275;stroke-linecap:round;stroke-linejoin:round;stroke-miterlimit:10;stroke-dasharray:none;stroke-opacity:1" id="path1062" />
               </g>
            </g>
            <g id="g1064" transform="matrix(1,0,0,-1,0,792)" style="stroke-width:1.30211">
               <g id="g1066" style="stroke-width:1.30211">
                  <path d="m 965.05646,239.23203 c -1.98663,-0.14967 -10.49402,-0.82875 -12.76109,-1.01863" style="fill:none;stroke:#000000;stroke-width:1.70275;stroke-linecap:round;stroke-linejoin:round;stroke-miterlimit:10;stroke-dasharray:none;stroke-opacity:1" id="path1068" />
               </g>
            </g>
            <g id="g1070" transform="matrix(1,0,0,-1,0,792)" style="stroke-width:1.30211">
               <g id="g1072" style="stroke-width:1.30211">
                  <path d="m 955.80261,239.17165 -0.10967,8.62124" style="fill:none;stroke:#000000;stroke-width:1.70275;stroke-linecap:round;stroke-linejoin:round;stroke-miterlimit:10;stroke-dasharray:none;stroke-opacity:1" id="path1074" />
               </g>
            </g>
            <g id="g1076" transform="matrix(1,0,0,-1,0,792)" style="stroke-width:1.30211">
               <g id="g1078" style="stroke-width:1.30211">
                  <path d="m 947.35156,241.32307 c 0.75037,9.57509 -0.77917,19.23373 0.82805,28.75709" style="fill:none;stroke:#000000;stroke-width:1.70275;stroke-linecap:round;stroke-linejoin:round;stroke-miterlimit:10;stroke-dasharray:none;stroke-opacity:1" id="path1080" />
               </g>
            </g>
            <g id="g1082" transform="matrix(1,0,0,-1,0,792)" style="stroke-width:1.30211">
               <g id="g1084" style="stroke-width:1.30211">
                  <path d="m 977.81744,240.13545 c -9.81592,20.03014 14.17338,48.8446 13.70797,14.5558 4.92139,-23.66483 -6.66627,-16.76118 -6.86799,-13.44098 2.51913,-2.67534 -4.62334,-5.00659 -4.36944,-1.50373" style="fill:none;stroke:#000000;stroke-width:1.70275;stroke-linecap:round;stroke-linejoin:round;stroke-miterlimit:10;stroke-dasharray:none;stroke-opacity:1" id="path1086" />
               </g>
            </g>
            <g id="g1088" transform="matrix(1,0,0,-1,0,792)" style="stroke-width:1.30211">
               <g id="g1090" style="stroke-width:1.30211">
                  <path d="m 985.38123,255.9959 c -2.83083,7.28804 3.56231,9.86952 0.36394,0.69296" style="fill:none;stroke:#000000;stroke-width:1.70275;stroke-linecap:round;stroke-linejoin:round;stroke-miterlimit:10;stroke-dasharray:none;stroke-opacity:1" id="path1092" />
               </g>
            </g>
            <g id="g1094" transform="matrix(1,0,0,-1,0,792)" style="stroke-width:1.30211">
               <g id="g1096" style="stroke-width:1.30211">
                  <path d="m 997.79742,240.57396 c 0.27068,9.69092 -1.17662,19.62117 1.00246,29.1684" style="fill:none;stroke:#000000;stroke-width:1.70275;stroke-linecap:round;stroke-linejoin:round;stroke-miterlimit:10;stroke-dasharray:none;stroke-opacity:1" id="path1098" />
               </g>
            </g>
            <g id="g1100" transform="matrix(1,0,0,-1,0,792)" style="stroke-width:1.30211">
               <g id="g1102" style="stroke-width:1.30211">
                  <path d="m 999.28302,270.82559 c 25.27068,-7.35406 5.01908,-41.85086 4.56048,-28.72705 l -1.0918,-3.34827" style="fill:none;stroke:#000000;stroke-width:1.70275;stroke-linecap:round;stroke-linejoin:round;stroke-miterlimit:10;stroke-dasharray:none;stroke-opacity:1" id="path1104" />
               </g>
            </g>
            <g id="g1106" transform="matrix(1,0,0,-1,0,792)" style="stroke-width:1.30211">
               <g id="g1108" style="stroke-width:1.30211">
                  <path d="m 1005.5368,258.25986 c -0.1774,0.70088 -0.427,4.01228 -0.3744,4.9671" style="fill:none;stroke:#000000;stroke-width:1.70275;stroke-linecap:round;stroke-linejoin:round;stroke-miterlimit:10;stroke-dasharray:none;stroke-opacity:1" id="path1110" />
               </g>
            </g>
            <g id="g1112" transform="matrix(1,0,0,-1,0,792)" style="stroke-width:1.30211">
               <g id="g1114" style="stroke-width:1.30211">
                  <path d="m 1017.3287,268.92841 c -4.1315,-33.3892 15.0143,-37.50995 13.397,-3.09821 -9.6365,19.26009 -2.4024,-20.28323 -12.2379,4.00585" style="fill:none;stroke:#000000;stroke-width:1.70275;stroke-linecap:round;stroke-linejoin:round;stroke-miterlimit:10;stroke-dasharray:none;stroke-opacity:1" id="path1116" />
               </g>
            </g>
            <g id="g1118" transform="matrix(1,0,0,-1,0,792)" style="stroke-width:1.30211">
               <g id="g1120" style="stroke-width:1.30211">
                  <path d="m 929.94696,205.88376 c -8.4901,20.61857 9.84127,43.67421 13.93596,13.92204 -5.12103,-1.91569 -6.26307,-16.97839 -11.50452,-13.08192" style="fill:none;stroke:#000000;stroke-width:1.70275;stroke-linecap:round;stroke-linejoin:round;stroke-miterlimit:10;stroke-dasharray:none;stroke-opacity:1" id="path1122" />
               </g>
            </g>
            <g id="g1124" transform="matrix(1,0,0,-1,0,792)" style="stroke-width:1.30211">
               <g id="g1126" style="stroke-width:1.30211">
                  <path d="m 935.43567,222.65704 0.004,4.88701" style="fill:none;stroke:#000000;stroke-width:1.70275;stroke-linecap:round;stroke-linejoin:round;stroke-miterlimit:10;stroke-dasharray:none;stroke-opacity:1" id="path1128" />
               </g>
            </g>
            <g id="g1130" transform="matrix(1,0,0,-1,0,792)" style="stroke-width:1.30211">
               <g id="g1132" style="stroke-width:1.30211">
                  <path d="m 946.22766,231.64185 c -11.8611,-27.65762 25.08708,-37.49204 14.83809,-5.24665 5.09203,11.31083 -16.44453,11.81883 -15.2283,2.25605" style="fill:none;stroke:#000000;stroke-width:1.70275;stroke-linecap:round;stroke-linejoin:round;stroke-miterlimit:10;stroke-dasharray:none;stroke-opacity:1" id="path1134" />
               </g>
            </g>
            <g id="g1136" transform="matrix(1,0,0,-1,0,792)" style="stroke-width:1.30211">
               <g id="g1138" style="stroke-width:1.30211">
                  <path d="m 953.47852,227.18089 c 0.14705,-2.45993 0.85769,-11.54969 1.06595,-13.63464" style="fill:none;stroke:#000000;stroke-width:1.70275;stroke-linecap:round;stroke-linejoin:round;stroke-miterlimit:10;stroke-dasharray:none;stroke-opacity:1" id="path1140" />
               </g>
            </g>
            <g id="g1142" transform="matrix(1,0,0,-1,0,792)" style="stroke-width:1.30211">
               <g id="g1144" style="stroke-width:1.30211">
                  <path d="m 966.57764,205.09627 c -16.37865,30.75856 24.17608,39.44266 10.43284,10.01505 -6.97599,-0.57901 0.8236,-16.38419 -8.67982,-9.55912" style="fill:none;stroke:#000000;stroke-width:1.70275;stroke-linecap:round;stroke-linejoin:round;stroke-miterlimit:10;stroke-dasharray:none;stroke-opacity:1" id="path1146" />
               </g>
            </g>
            <g id="g1148" transform="matrix(1,0,0,-1,0,792)" style="stroke-width:1.30211">
               <g id="g1150" style="stroke-width:1.30211">
                  <path d="m 973.50745,222.51588 c -0.0447,0.9128 -0.4689,4.69468 -0.63629,5.67282" style="fill:none;stroke:#000000;stroke-width:1.70275;stroke-linecap:round;stroke-linejoin:round;stroke-miterlimit:10;stroke-dasharray:none;stroke-opacity:1" id="path1152" />
               </g>
            </g>
            <g id="g1154" transform="matrix(1,0,0,-1,0,792)" style="stroke-width:1.30211">
               <g id="g1156" style="stroke-width:1.30211">
                  <path d="m 984.7561,204.94609 c -13.64535,23.6354 17.2515,44.05613 10.75153,10.54634 -10.10049,2.10425 -1.77906,-18.65208 -11.11695,-8.24129" style="fill:none;stroke:#000000;stroke-width:1.70275;stroke-linecap:round;stroke-linejoin:round;stroke-miterlimit:10;stroke-dasharray:none;stroke-opacity:1" id="path1158" />
               </g>
            </g>
            <g id="g1160" transform="matrix(1,0,0,-1,0,792)" style="stroke-width:1.30211">
               <g id="g1162" style="stroke-width:1.30211">
                  <path d="m 990.57849,223.96849 -0.0787,3.60074" style="fill:none;stroke:#000000;stroke-width:1.70275;stroke-linecap:round;stroke-linejoin:round;stroke-miterlimit:10;stroke-dasharray:none;stroke-opacity:1" id="path1164" />
               </g>
            </g>
            <g id="g1166" transform="matrix(1,0,0,-1,0,792)" style="stroke-width:1.30211">
               <g id="g1168" style="stroke-width:1.30211">
                  <path d="m 1001.1423,205.6102 c -4.54646,23.63089 7.6545,41.7347 3.9754,7.58075 7.001,-6.37711 -0.358,-9.75774 -2.9729,-7.07236" style="fill:none;stroke:#000000;stroke-width:1.70275;stroke-linecap:round;stroke-linejoin:round;stroke-miterlimit:10;stroke-dasharray:none;stroke-opacity:1" id="path1170" />
               </g>
            </g>
            <g id="g1172" transform="matrix(1,0,0,-1,0,792)" style="stroke-width:1.30211">
               <g id="g1174" style="stroke-width:1.30211">
                  <path d="m 1011.706,205.72792 c 1.1301,10.24878 0.8586,20.58481 1.6794,30.856" style="fill:none;stroke:#000000;stroke-width:1.70275;stroke-linecap:round;stroke-linejoin:round;stroke-miterlimit:10;stroke-dasharray:none;stroke-opacity:1" id="path1176" />
               </g>
            </g>
            <g id="g1178" transform="matrix(1,0,0,-1,0,792)" style="stroke-width:1.30211">
               <g id="g1180" style="stroke-width:1.30211">
                  <path d="m 1013.1849,238.08321 c 9.7719,-4.02711 10.0381,-24.92232 12.6273,-1.74576 13.4259,0.84185 2.0513,-20.29914 5.0203,-27.44461" style="fill:none;stroke:#000000;stroke-width:1.70275;stroke-linecap:round;stroke-linejoin:round;stroke-miterlimit:10;stroke-dasharray:none;stroke-opacity:1" id="path1182" />
               </g>
            </g>
            <g id="g1184" transform="matrix(1,0,0,-1,0,792)" style="stroke-width:1.30211">
               <g id="g1186" style="stroke-width:1.30211">
                  <path d="m 1026.2539,204.06927 c -10.4058,24.72373 -1.0018,-6.24782 -11.921,2.73448" style="fill:none;stroke:#000000;stroke-width:1.70275;stroke-linecap:round;stroke-linejoin:round;stroke-miterlimit:10;stroke-dasharray:none;stroke-opacity:1" id="path1188" />
               </g>
            </g>
            <g id="g1190" transform="matrix(1,0,0,-1,0,792)" style="stroke-width:1.30211">
               <g id="g1192" style="stroke-width:1.30211">
                  <path d="m 1051.8905,225.31616 c -6.9893,26.62779 -23.6369,-4.25869 -7.7115,-11.99237 -4.3457,15.01217 -14.8624,0.35335 -8.2919,-5.46105" style="fill:none;stroke:#000000;stroke-width:1.70275;stroke-linecap:round;stroke-linejoin:round;stroke-miterlimit:10;stroke-dasharray:none;stroke-opacity:1" id="path1194" />
               </g>
            </g>
            <g id="g1196" transform="matrix(1,0,0,-1,0,792)" style="stroke-width:1.30211">
               <g id="g1198" style="stroke-width:1.30211">
                  <path d="m 1049.653,202.4278 c 16.5136,17.20067 -18.6262,27.30676 1.9341,20.95974" style="fill:none;stroke:#000000;stroke-width:1.70275;stroke-linecap:round;stroke-linejoin:round;stroke-miterlimit:10;stroke-dasharray:none;stroke-opacity:1" id="path1200" />
               </g>
            </g>
            <g id="g1202" transform="matrix(1,0,0,-1,0,792)" style="stroke-width:1.30211">
               <g id="g1204" style="stroke-width:1.30211">
                  <path d="m 1096.1161,228.1516 c 3.3471,6.46521 -2.2105,15.83451 -9.7733,11.58937" style="fill:none;stroke:#000000;stroke-width:1.70275;stroke-linecap:round;stroke-linejoin:round;stroke-miterlimit:10;stroke-dasharray:none;stroke-opacity:1" id="path1206" />
               </g>
            </g>
            <g id="g1208" transform="matrix(1,0,0,-1,0,792)" style="stroke-width:1.30211">
               <g id="g1210" style="stroke-width:1.30211">
                  <path d="m 1095.4132,228.52989 c -2.7132,-2.86262 -8.7865,0.24263 -5.3161,4.79763" style="fill:none;stroke:#000000;stroke-width:1.70275;stroke-linecap:round;stroke-linejoin:round;stroke-miterlimit:10;stroke-dasharray:none;stroke-opacity:1" id="path1212" />
               </g>
            </g>
            <g id="g1214" transform="matrix(1,0,0,-1,0,792)" style="stroke-width:1.30211">
               <g id="g1216" style="stroke-width:1.30211">
                  <path d="m 1090.8497,229.29105 c 6.1642,-3.70108 6.67,-24.58375 -3.9945,-20.24903" style="fill:none;stroke:#000000;stroke-width:1.70275;stroke-linecap:round;stroke-linejoin:round;stroke-miterlimit:10;stroke-dasharray:none;stroke-opacity:1" id="path1218" />
               </g>
            </g>
            <g id="g1220" transform="matrix(1,0,0,-1,0,792)" style="stroke-width:1.30211">
               <g id="g1222" style="stroke-width:1.30211">
                  <path d="m 1085.7368,221.50766 c 3.5695,-0.4465 4.4282,-5.2106 2.7461,-7.80093" style="fill:none;stroke:#000000;stroke-width:1.70275;stroke-linecap:round;stroke-linejoin:round;stroke-miterlimit:10;stroke-dasharray:none;stroke-opacity:1" id="path1224" />
               </g>
            </g>
         </g>
      </g>
   </g>
</svg>
