<?xml version="1.0" encoding="UTF-8" standalone="no"?>
<!-- Created by Ashley Blewer - This work is licensed under a Creative Commons Attribution 4.0 International License -->

<svg width="544" height="480" viewBox="0 0 143.93334 127" version="1.1" id="svg2490" inkscape:version="1.1.2 (08b2f3d93c, 2022-04-05)" sodipodi:docname="1981-ced-2.svg"
   xmlns:inkscape="http://www.inkscape.org/namespaces/inkscape"
   xmlns:sodipodi="http://sodipodi.sourceforge.net/DTD/sodipodi-0.dtd"
   xmlns="http://www.w3.org/2000/svg"
   xmlns:svg="http://www.w3.org/2000/svg">
   <sodipodi:namedview id="namedview2492" pagecolor="#ffffff" bordercolor="#666666" borderopacity="1.0" inkscape:pageshadow="2" inkscape:pageopacity="0.0" inkscape:pagecheckerboard="0" inkscape:document-units="mm" showgrid="false" units="px" inkscape:zoom="0.90583674" inkscape:cx="272.67607" inkscape:cy="177.18425" inkscape:window-width="1848" inkscape:window-height="1136" inkscape:window-x="72" inkscape:window-y="27" inkscape:window-maximized="1" inkscape:current-layer="layer1" />
   <defs id="defs2487" />
   <g inkscape:label="Layer 1" inkscape:groupmode="layer" id="layer1">
      <g id="g9057" transform="matrix(0.44994561,0,0,0.44999012,-378.56776,-13.685055)" style="stroke-width:0.951217">
         <g id="g1788" transform="matrix(0.76770993,0,0,0.76826246,266.84334,13.099388)" style="stroke-width:1.23859">
            <g id="g584" transform="matrix(1,0,0,-1,0,792)" style="stroke-width:1.23859">
               <g id="g586" style="stroke-width:1.23859">
                  <path d="m 991.8259,681.66929 -12.17539,53.80388" style="fill:none;stroke:#000000;stroke-width:3.23937;stroke-linecap:round;stroke-linejoin:round;stroke-miterlimit:10;stroke-dasharray:none;stroke-opacity:1" id="path588" sodipodi:nodetypes="cc" />
               </g>
            </g>
            <g id="g590" transform="matrix(1,0,0,-1,0,792)" style="stroke-width:1.23859">
               <g id="g592" style="stroke-width:1.23859">
                  <path d="m 761.21222,685.30859 218.43829,50.16458" style="fill:none;stroke:#000000;stroke-width:3.23937;stroke-linecap:round;stroke-linejoin:round;stroke-miterlimit:10;stroke-dasharray:none;stroke-opacity:1" id="path594" sodipodi:nodetypes="cc" />
               </g>
            </g>
            <g id="g596" transform="matrix(1,0,0,-1,0,792)" style="stroke-width:1.23859">
               <g id="g598" style="stroke-width:1.23859">
                  <path d="m 965.64801,723.9552 6.89297,-38.15423" style="fill:none;stroke:#000000;stroke-width:3.23937;stroke-linecap:round;stroke-linejoin:round;stroke-miterlimit:10;stroke-dasharray:none;stroke-opacity:1" id="path600" sodipodi:nodetypes="cc" />
               </g>
            </g>
            <g id="g602" transform="matrix(1,0,0,-1,0,792)" style="stroke-width:1.23859">
               <g id="g604" style="stroke-width:1.23859">
                  <path d="M 782.43018,682.16034 965.64801,723.9552" style="fill:none;stroke:#000000;stroke-width:3.23937;stroke-linecap:round;stroke-linejoin:round;stroke-miterlimit:10;stroke-dasharray:none;stroke-opacity:1" id="path606" sodipodi:nodetypes="cc" />
               </g>
            </g>
            <g id="g608" transform="matrix(1,0,0,-1,0,792)" style="stroke-width:1.23859">
               <g id="g610" style="stroke-width:1.23859">
                  <path d="M 782.43018,682.16034 C 801.45994,604.23782 809.8704,529.47346 828.40501,460.02606" style="fill:none;stroke:#000000;stroke-width:3.23937;stroke-linecap:round;stroke-linejoin:round;stroke-miterlimit:10;stroke-dasharray:none;stroke-opacity:1" id="path612" sodipodi:nodetypes="cc" />
               </g>
            </g>
            <g id="g614" transform="matrix(1,0,0,-1,0,792)" style="stroke-width:1.23859">
               <g id="g616" style="stroke-width:1.23859">
                  <path d="M 761.21222,685.30859 C 778.46398,610.08243 790.89804,531.23181 810.8255,457.69376" style="fill:none;stroke:#000000;stroke-width:3.23937;stroke-linecap:round;stroke-linejoin:round;stroke-miterlimit:10;stroke-dasharray:none;stroke-opacity:1" id="path618" sodipodi:nodetypes="cc" />
               </g>
            </g>
            <g id="g620" transform="matrix(1,0,0,-1,0,792)" style="stroke-width:1.23859">
               <g id="g622" style="stroke-width:1.23859">
                  <path d="m 810.8255,457.69376 c 27.88216,2.0384 58.44812,9.51861 86.16189,16.42562" style="fill:none;stroke:#000000;stroke-width:3.23937;stroke-linecap:round;stroke-linejoin:round;stroke-miterlimit:10;stroke-dasharray:none;stroke-opacity:1" id="path624" sodipodi:nodetypes="cc" />
               </g>
            </g>
            <g id="g626" transform="matrix(1,0,0,-1,0,792)" style="stroke-width:1.23859">
               <g id="g628" style="stroke-width:1.23859">
                  <path d="m 926.59167,689.46747 c -4.54138,-66.90716 -21.72178,-200.00276 -21.72178,-200.00276 -2.87847,-32.48414 -9.29998,-40.98078 8.85867,-46.75902" style="fill:none;stroke:#000000;stroke-width:3.23937;stroke-linecap:round;stroke-linejoin:round;stroke-miterlimit:10;stroke-dasharray:none;stroke-opacity:1" id="path630" sodipodi:nodetypes="ccc" />
               </g>
            </g>
            <g id="g632" transform="matrix(1,0,0,-1,0,792)" style="stroke-width:1.23859">
               <g id="g634" style="stroke-width:1.23859">
                  <path d="M 914.60742,443.4729 C 977.32435,431.17339 1040.9121,426.88102 1104.536,421.46894" style="fill:none;stroke:#000000;stroke-width:3.23937;stroke-linecap:round;stroke-linejoin:round;stroke-miterlimit:10;stroke-dasharray:none;stroke-opacity:1" id="path636" />
               </g>
            </g>
            <g id="g638" transform="matrix(1,0,0,-1,0,792)" style="stroke-width:1.23859">
               <g id="g640" style="stroke-width:1.23859">
                  <path d="m 982.46338,432.91 c -12.97241,19.53015 75.65892,10.94796 52.94642,-5.82487" style="fill:none;stroke:#000000;stroke-width:3.23937;stroke-linecap:round;stroke-linejoin:round;stroke-miterlimit:10;stroke-dasharray:none;stroke-opacity:1" id="path642" />
               </g>
            </g>
            <g id="g644" transform="matrix(1,0,0,-1,0,792)" style="stroke-width:1.23859">
               <g id="g646" style="stroke-width:1.23859">
                  <path d="m 901.47699,488.88388 c -9.99785,1.88259 -5.96108,-19.60883 -0.19618,-13.7325" style="fill:none;stroke:#000000;stroke-width:3.23937;stroke-linecap:round;stroke-linejoin:round;stroke-miterlimit:10;stroke-dasharray:none;stroke-opacity:1" id="path648" sodipodi:nodetypes="cc" />
               </g>
            </g>
            <g id="g650" transform="matrix(1,0,0,-1,0,792)" style="stroke-width:1.23859">
               <g id="g652" style="stroke-width:1.23859">
                  <path d="M 926.59167,689.46747 1148.7505,656.95612" style="fill:none;stroke:#000000;stroke-width:3.23937;stroke-linecap:round;stroke-linejoin:round;stroke-miterlimit:10;stroke-dasharray:none;stroke-opacity:1" id="path654" sodipodi:nodetypes="cc" />
               </g>
            </g>
            <g id="g656" transform="matrix(1,0,0,-1,0,792)" style="stroke-width:1.23859">
               <g id="g658" style="stroke-width:1.23859">
                  <path d="M 1148.7505,656.95612 1123.512,447.23214 c 0,0 -1.6012,-26.77428 -18.976,-25.7632" style="fill:none;stroke:#000000;stroke-width:3.23937;stroke-linecap:round;stroke-linejoin:round;stroke-miterlimit:10;stroke-dasharray:none;stroke-opacity:1" id="path660" sodipodi:nodetypes="ccc" />
               </g>
            </g>
            <g id="g662" transform="matrix(1,0,0,-1,0,792)" style="stroke-width:1.23859">
               <g id="g664" style="stroke-width:1.23859">
                  <path d="M 1131.6259,649.81604 C 1120.1724,575.80183 1108.9103,501.7379 1106.2012,426.7719 l -1.6652,-5.30296" style="fill:none;stroke:#000000;stroke-width:3.23937;stroke-linecap:round;stroke-linejoin:round;stroke-miterlimit:10;stroke-dasharray:none;stroke-opacity:1" id="path666" sodipodi:nodetypes="ccc" />
               </g>
            </g>
            <g id="g668" transform="matrix(1,0,0,-1,0,792)" style="stroke-width:1.23859">
               <g id="g670" style="stroke-width:1.23859">
                  <path d="M 939.49219,671.70166 1131.6259,649.81604" style="fill:none;stroke:#000000;stroke-width:3.23937;stroke-linecap:round;stroke-linejoin:round;stroke-miterlimit:10;stroke-dasharray:none;stroke-opacity:1" id="path672" sodipodi:nodetypes="cc" />
               </g>
            </g>
            <g id="g674" transform="matrix(1,0,0,-1,0,792)" style="stroke-width:1.23859">
               <g id="g676" style="stroke-width:1.23859">
                  <path d="M 939.49219,671.70166 C 920.28883,531.85184 920.28883,531.85184 920.28883,531.85184 c 0,0 -6.13229,-64.86848 -6.56027,-89.14615" style="fill:none;stroke:#000000;stroke-width:3.23937;stroke-linecap:round;stroke-linejoin:round;stroke-miterlimit:10;stroke-dasharray:none;stroke-opacity:1" id="path678" sodipodi:nodetypes="ccc" />
               </g>
            </g>
            <g id="g776" transform="matrix(1,0,0,-1,0,792)" style="stroke-width:1.23859">
               <g id="g778" style="stroke-width:1.23859">
                  <path d="m 1025.3722,661.90222 c -0.5276,-1.66212 -2.9786,-11.79014 -3.5295,-14.32258" style="fill:none;stroke:#000000;stroke-width:1.61968;stroke-linecap:round;stroke-linejoin:round;stroke-miterlimit:10;stroke-dasharray:none;stroke-opacity:1" id="path780" sodipodi:nodetypes="cc" />
               </g>
            </g>
            <g id="g782" transform="matrix(1,0,0,-1,0,792)" style="stroke-width:1.23859">
               <g id="g784" style="stroke-width:1.23859">
                  <path d="m 1044.3318,659.67651 c 0.1258,-1.52034 0.2974,-13.60051 0.079,-15.36733" style="fill:none;stroke:#000000;stroke-width:1.61968;stroke-linecap:round;stroke-linejoin:round;stroke-miterlimit:10;stroke-dasharray:none;stroke-opacity:1" id="path786" sodipodi:nodetypes="cc" />
               </g>
            </g>
            <g id="g788" transform="matrix(1,0,0,-1,0,792)" style="stroke-width:1.23859">
               <g id="g790" style="stroke-width:1.23859">
                  <path d="m 944.42084,655.24512 c 48.34223,-1.08005 95.19466,-14.18185 143.57296,-15.08717 11.3104,-1.11782 22.5992,-2.48113 33.8285,-4.24209" style="fill:none;stroke:#000000;stroke-width:1.61968;stroke-linecap:round;stroke-linejoin:round;stroke-miterlimit:10;stroke-dasharray:none;stroke-opacity:1" id="path792" />
               </g>
            </g>
            <g id="g794" transform="matrix(1,0,0,-1,0,792)" style="stroke-width:1.23859">
               <g id="g796" style="stroke-width:1.23859">
                  <path d="m 940.23145,641.09009 c 58.01205,-7.93354 116.71895,-11.7243 174.49585,-20.27694" style="fill:none;stroke:#000000;stroke-width:1.61968;stroke-linecap:round;stroke-linejoin:round;stroke-miterlimit:10;stroke-dasharray:none;stroke-opacity:1" id="path798" />
               </g>
            </g>
            <g id="g800" transform="matrix(1,0,0,-1,0,792)" style="stroke-width:1.23859">
               <g id="g802" style="stroke-width:1.23859">
                  <path d="m 923.1817,485.65228 c 59.48552,-2.86034 118.9636,-9.05642 177.5045,-20.12919" style="fill:none;stroke:#000000;stroke-width:1.61968;stroke-linecap:round;stroke-linejoin:round;stroke-miterlimit:10;stroke-dasharray:none;stroke-opacity:1" id="path804" />
               </g>
            </g>
            <g id="g806" transform="matrix(1,0,0,-1,0,792)" style="stroke-width:1.23859">
               <g id="g808" style="stroke-width:1.23859">
                  <path d="m 1004.8059,466.29568 c 1.9849,6.50377 13.3301,8.50743 10.4047,-0.90536" style="fill:none;stroke:#000000;stroke-width:1.61968;stroke-linecap:round;stroke-linejoin:round;stroke-miterlimit:10;stroke-dasharray:none;stroke-opacity:1" id="path810" />
               </g>
            </g>
            <g id="g812" transform="matrix(1,0,0,-1,0,792)" style="stroke-width:1.23859">
               <g id="g814" style="stroke-width:1.23859">
                  <path d="m 1007.7763,464.89575 c -0.9442,3.27253 6.4565,2.65097 4.9093,-0.20284" style="fill:none;stroke:#000000;stroke-width:1.61968;stroke-linecap:round;stroke-linejoin:round;stroke-miterlimit:10;stroke-dasharray:none;stroke-opacity:1" id="path816" />
               </g>
            </g>
            <g id="g818" transform="matrix(1,0,0,-1,0,792)" style="stroke-width:1.23859">
               <g id="g820" style="stroke-width:1.23859">
                  <path d="m 923.5816,456.4502 c -12.80152,-10.18782 20.38215,-5.01516 0.26865,-2.0308" style="fill:none;stroke:#000000;stroke-width:1.61968;stroke-linecap:round;stroke-linejoin:round;stroke-miterlimit:10;stroke-dasharray:none;stroke-opacity:1" id="path822" />
               </g>
            </g>
            <g id="g824" transform="matrix(1,0,0,-1,0,792)" style="stroke-width:1.23859">
               <g id="g826" style="stroke-width:1.23859">
                  <path d="m 940.12598,448.41187 c 10.49252,1.12209 20.83596,-1.78055 31.19863,-2.87315" style="fill:none;stroke:#000000;stroke-width:1.61968;stroke-linecap:round;stroke-linejoin:round;stroke-miterlimit:10;stroke-dasharray:none;stroke-opacity:1" id="path828" />
               </g>
            </g>
            <g id="g830" transform="matrix(1,0,0,-1,0,792)" style="stroke-width:1.23859">
               <g id="g832" style="stroke-width:1.23859">
                  <path d="m 833.89941,473.44958 c -10.86779,-17.71325 23.75546,5.70765 1.2064,-1.47497" style="fill:none;stroke:#000000;stroke-width:1.61968;stroke-linecap:round;stroke-linejoin:round;stroke-miterlimit:10;stroke-dasharray:none;stroke-opacity:1" id="path834" />
               </g>
            </g>
            <g id="g836" transform="matrix(1,0,0,-1,0,792)" style="stroke-width:1.23859">
               <g id="g838" style="stroke-width:1.23859">
                  <path d="m 851.51715,473.48816 c 7.99308,3.84312 17.03262,4.84341 25.69098,6.23274" style="fill:none;stroke:#000000;stroke-width:1.61968;stroke-linecap:round;stroke-linejoin:round;stroke-miterlimit:10;stroke-dasharray:none;stroke-opacity:1" id="path840" />
               </g>
            </g>
            <g id="g842" transform="matrix(1,0,0,-1,0,792)" style="stroke-width:1.23859">
               <g id="g844" style="stroke-width:1.23859">
                  <path d="m 823.1109,501.12311 c 25.12499,7.84886 50.93804,13.27652 76.83917,17.83485" style="fill:none;stroke:#000000;stroke-width:1.61968;stroke-linecap:round;stroke-linejoin:round;stroke-miterlimit:10;stroke-dasharray:none;stroke-opacity:1" id="path846" />
               </g>
            </g>
            <g id="g848" transform="matrix(1,0,0,-1,0,792)" style="stroke-width:1.23859">
               <g id="g850" style="stroke-width:1.23859">
                  <path d="M 794.39441,651.53937 912.2829,679.31485" style="fill:none;stroke:#000000;stroke-width:1.61968;stroke-linecap:round;stroke-linejoin:round;stroke-miterlimit:10;stroke-dasharray:none;stroke-opacity:1" id="path852" sodipodi:nodetypes="cc" />
               </g>
            </g>
            <g id="g854" transform="matrix(1,0,0,-1,0,792)" style="stroke-width:1.23859">
               <g id="g856" style="stroke-width:1.23859">
                  <path d="m 792.74878,665.51947 166.88979,43.71388 1.71502,-0.98363" style="fill:none;stroke:#000000;stroke-width:1.61968;stroke-linecap:round;stroke-linejoin:round;stroke-miterlimit:10;stroke-dasharray:none;stroke-opacity:1" id="path858" sodipodi:nodetypes="ccc" />
               </g>
            </g>
            <g id="g860" transform="matrix(1,0,0,-1,0,792)" style="stroke-width:1.23859">
               <g id="g862" style="stroke-width:1.23859">
                  <path d="m 885.12799,703.96277 c -1.59106,-6.169 5.96321,-10.48663 3.92184,-16.48151" style="fill:none;stroke:#000000;stroke-width:1.61968;stroke-linecap:round;stroke-linejoin:round;stroke-miterlimit:10;stroke-dasharray:none;stroke-opacity:1" id="path864" />
               </g>
            </g>
            <g id="g866" transform="matrix(1,0,0,-1,0,792)" style="stroke-width:1.23859">
               <g id="g868" style="stroke-width:1.23859">
                  <path d="m 863.13043,698.36493 c -2.01531,-4.70248 2.11196,-9.52041 0.5239,-14.2236" style="fill:none;stroke:#000000;stroke-width:1.61968;stroke-linecap:round;stroke-linejoin:round;stroke-miterlimit:10;stroke-dasharray:none;stroke-opacity:1" id="path870" />
               </g>
            </g>
         </g>
      </g>
   </g>
</svg>
