<?xml version="1.0" encoding="UTF-8" standalone="no"?>
<!-- Created by Ashley Blewer - This work is licensed under a Creative Commons Attribution 4.0 International License -->

<svg width="544" height="480" viewBox="0 0 143.93334 127" version="1.1" id="svg2490" inkscape:version="1.1.2 (08b2f3d93c, 2022-04-05)" sodipodi:docname="1981-ced-1.svg"
   xmlns:inkscape="http://www.inkscape.org/namespaces/inkscape"
   xmlns:sodipodi="http://sodipodi.sourceforge.net/DTD/sodipodi-0.dtd"
   xmlns="http://www.w3.org/2000/svg"
   xmlns:svg="http://www.w3.org/2000/svg">
   <sodipodi:namedview id="namedview2492" pagecolor="#ffffff" bordercolor="#666666" borderopacity="1.0" inkscape:pageshadow="2" inkscape:pageopacity="0.0" inkscape:pagecheckerboard="0" inkscape:document-units="mm" showgrid="false" units="px" inkscape:zoom="0.90583674" inkscape:cx="272.67607" inkscape:cy="177.18425" inkscape:window-width="1848" inkscape:window-height="1136" inkscape:window-x="72" inkscape:window-y="27" inkscape:window-maximized="1" inkscape:current-layer="layer1" />
   <defs id="defs2487" />
   <g inkscape:label="Layer 1" inkscape:groupmode="layer" id="layer1">
      <g id="g2188" transform="matrix(0.29412482,0,0,0.29412482,-24.416452,-120.62031)" style="stroke-width:0.799083">
         <g id="g62" transform="matrix(1,0,0,-1,0,792)" style="stroke-width:0.799083">
            <g id="g64" style="stroke-width:0.799083">
               <path d="m 98.586304,258.04639 c -2.058328,-15.0571 -5.316641,-35.29224 -5.198448,-50.5241" style="fill:none;stroke:#000000;stroke-width:2.0899;stroke-linecap:round;stroke-linejoin:round;stroke-miterlimit:10;stroke-dasharray:none;stroke-opacity:1" id="path66" sodipodi:nodetypes="cc" />
            </g>
         </g>
         <g id="g68" transform="matrix(1,0,0,-1,0,792)" style="stroke-width:0.799083">
            <g id="g70" style="stroke-width:0.799083">
               <path d="M 98.586304,258.04639 C 110.23895,234.15814 118.65387,205.13664 125.25552,179.55368" style="fill:none;stroke:#000000;stroke-width:2.0899;stroke-linecap:round;stroke-linejoin:round;stroke-miterlimit:10;stroke-dasharray:none;stroke-opacity:1" id="path72" sodipodi:nodetypes="cc" />
            </g>
         </g>
         <g id="g74" transform="matrix(1,0,0,-1,0,792)" style="stroke-width:0.799083">
            <g id="g76" style="stroke-width:0.799083">
               <path d="m 125.25552,179.55368 c -0.94915,-19.3812 -0.17693,-41.08253 -0.19277,-60.4641" style="fill:none;stroke:#000000;stroke-width:2.0899;stroke-linecap:round;stroke-linejoin:round;stroke-miterlimit:10;stroke-dasharray:none;stroke-opacity:1" id="path78" sodipodi:nodetypes="cc" />
            </g>
         </g>
         <g id="g80" transform="matrix(1,0,0,-1,0,792)" style="stroke-width:0.799083">
            <g id="g82" style="stroke-width:0.799083">
               <path d="m 125.06275,119.08958 c 1.62211,-9.33133 1.59939,-22.171753 1.29859,-31.585338" style="fill:none;stroke:#000000;stroke-width:2.0899;stroke-linecap:round;stroke-linejoin:round;stroke-miterlimit:10;stroke-dasharray:none;stroke-opacity:1" id="path84" sodipodi:nodetypes="cc" />
            </g>
         </g>
         <g id="g86" transform="matrix(1,0,0,-1,0,792)" style="stroke-width:0.799083">
            <g id="g88" style="stroke-width:0.799083">
               <path d="M 93.387856,207.52229 C 106.5322,168.02508 114.64873,125.91281 126.12885,86.407104" style="fill:none;stroke:#000000;stroke-width:2.0899;stroke-linecap:round;stroke-linejoin:round;stroke-miterlimit:10;stroke-dasharray:none;stroke-opacity:1" id="path90" sodipodi:nodetypes="cc" />
            </g>
         </g>
         <g id="g92" transform="matrix(1,0,0,-1,0,792)" style="stroke-width:0.799083">
            <g id="g94" style="stroke-width:0.799083">
               <path d="M 98.560364,211.29614 C 108.54294,181.8255 115.46755,148.66997 125.06275,119.08958" style="fill:none;stroke:#000000;stroke-width:2.0899;stroke-linecap:round;stroke-linejoin:round;stroke-miterlimit:10;stroke-dasharray:none;stroke-opacity:1" id="path96" sodipodi:nodetypes="cc" />
            </g>
         </g>
         <g id="g98" transform="matrix(1,0,0,-1,0,792)" style="stroke-width:0.799083">
            <g id="g100" style="stroke-width:0.799083">
               <path d="m 111.63106,205.09375 c -3.28161,-16.45895 4.25905,-16.43887 -0.37405,-1.86293" style="fill:none;stroke:#000000;stroke-width:2.0899;stroke-linecap:round;stroke-linejoin:round;stroke-miterlimit:10;stroke-dasharray:none;stroke-opacity:1" id="path102" />
            </g>
         </g>
         <g id="g104" transform="matrix(1,0,0,-1,0,792)" style="stroke-width:0.799083">
            <g id="g106" style="stroke-width:0.799083">
               <path d="M 98.586304,258.04639 392.88516,282.9906" style="fill:none;stroke:#000000;stroke-width:2.0899;stroke-linecap:round;stroke-linejoin:round;stroke-miterlimit:10;stroke-dasharray:none;stroke-opacity:1" id="path108" sodipodi:nodetypes="cc" />
            </g>
         </g>
         <g id="g110" transform="matrix(1,0,0,-1,0,792)" style="stroke-width:0.799083">
            <g id="g112" style="stroke-width:0.799083">
               <path d="m 392.88516,282.9906 c 46.70177,-22.25628 94.41265,-42.93495 143.07132,-60.44202" style="fill:none;stroke:#000000;stroke-width:2.0899;stroke-linecap:round;stroke-linejoin:round;stroke-miterlimit:10;stroke-dasharray:none;stroke-opacity:1" id="path114" />
            </g>
         </g>
         <g id="g116" transform="matrix(1,0,0,-1,0,792)" style="stroke-width:0.799083">
            <g id="g118" style="stroke-width:0.799083">
               <path d="m 536.32813,222.10788 c 6.06978,-15.04114 11.92994,-34.03189 17.19989,-49.35602" style="fill:none;stroke:#000000;stroke-width:2.0899;stroke-linecap:round;stroke-linejoin:round;stroke-miterlimit:10;stroke-dasharray:none;stroke-opacity:1" id="path120" sodipodi:nodetypes="cc" />
            </g>
         </g>
         <g id="g122" transform="matrix(1,0,0,-1,0,792)" style="stroke-width:0.799083">
            <g id="g124" style="stroke-width:0.799083">
               <path d="m 553.52802,172.75186 c 0.40202,-7.34064 -0.62835,-18.2769 -2.10053,-25.46743" style="fill:none;stroke:#000000;stroke-width:2.0899;stroke-linecap:round;stroke-linejoin:round;stroke-miterlimit:10;stroke-dasharray:none;stroke-opacity:1" id="path126" sodipodi:nodetypes="cc" />
            </g>
         </g>
         <g id="g128" transform="matrix(1,0,0,-1,0,792)" style="stroke-width:0.799083">
            <g id="g130" style="stroke-width:0.799083">
               <path d="m 542.33435,145.88092 c 1.5688,0.30939 7.63089,1.24507 9.09314,1.40351" style="fill:none;stroke:#000000;stroke-width:2.0899;stroke-linecap:round;stroke-linejoin:round;stroke-miterlimit:10;stroke-dasharray:none;stroke-opacity:1" id="path132" />
            </g>
         </g>
         <g id="g134" transform="matrix(1,0,0,-1,0,792)" style="stroke-width:0.799083">
            <g id="g136" style="stroke-width:0.799083">
               <path d="m 540.68719,144.364 c -0.41668,-2.97293 -4.2392,-14.29084 -5.08752,-17.10601" style="fill:none;stroke:#000000;stroke-width:2.0899;stroke-linecap:round;stroke-linejoin:round;stroke-miterlimit:10;stroke-dasharray:none;stroke-opacity:1" id="path138" sodipodi:nodetypes="cc" />
            </g>
         </g>
         <g id="g140" transform="matrix(1,0,0,-1,0,792)" style="stroke-width:0.799083">
            <g id="g142" style="stroke-width:0.799083">
               <path d="m 126.12885,86.407104 8.61828,1.415925" style="fill:none;stroke:#000000;stroke-width:2.0899;stroke-linecap:round;stroke-linejoin:round;stroke-miterlimit:10;stroke-dasharray:none;stroke-opacity:1" id="path144" />
            </g>
         </g>
         <g id="g146" transform="matrix(1,0,0,-1,0,792)" style="stroke-width:0.799083">
            <g id="g148" style="stroke-width:0.799083">
               <path d="m 129.18434,86.943222 c 5.23998,-5.677146 6.13915,-13.740216 10.56738,-19.892506" style="fill:none;stroke:#000000;stroke-width:2.0899;stroke-linecap:round;stroke-linejoin:round;stroke-miterlimit:10;stroke-dasharray:none;stroke-opacity:1" id="path150" />
            </g>
         </g>
         <g id="g152" transform="matrix(1,0,0,-1,0,792)" style="stroke-width:0.799083">
            <g id="g154" style="stroke-width:0.799083">
               <path d="m 137.15771,87.306221 c 0.0796,-7.161885 2.56132,-14.007169 2.98646,-21.134205" style="fill:none;stroke:#000000;stroke-width:2.0899;stroke-linecap:round;stroke-linejoin:round;stroke-miterlimit:10;stroke-dasharray:none;stroke-opacity:1" id="path156" />
            </g>
         </g>
         <g id="g158" transform="matrix(1,0,0,-1,0,792)" style="stroke-width:0.799083">
            <g id="g160" style="stroke-width:0.799083">
               <path d="M 140.49742,66.119675 535.59967,127.25799" style="fill:none;stroke:#000000;stroke-width:2.0899;stroke-linecap:round;stroke-linejoin:round;stroke-miterlimit:10;stroke-dasharray:none;stroke-opacity:1" id="path162" sodipodi:nodetypes="cc" />
            </g>
         </g>
         <g id="g164" transform="matrix(1,0,0,-1,0,792)" style="stroke-width:0.799083">
            <g id="g166" style="stroke-width:0.799083">
               <path d="m 129.0038,86.947296 c 8.15391,0.358925 416.25932,58.205694 416.25932,58.205694" style="fill:none;stroke:#000000;stroke-width:2.0899;stroke-linecap:round;stroke-linejoin:round;stroke-miterlimit:10;stroke-dasharray:none;stroke-opacity:1" id="path168" sodipodi:nodetypes="cc" />
            </g>
         </g>
         <g id="g170" transform="matrix(1,0,0,-1,0,792)" style="stroke-width:0.799083">
            <g id="g172" style="stroke-width:0.799083">
               <path d="m 125.06275,119.08958 c 39.37451,2.40652 428.46527,53.66228 428.46527,53.66228" style="fill:none;stroke:#000000;stroke-width:2.0899;stroke-linecap:round;stroke-linejoin:round;stroke-miterlimit:10;stroke-dasharray:none;stroke-opacity:1" id="path174" sodipodi:nodetypes="cc" />
            </g>
         </g>
         <g id="g176" transform="matrix(1,0,0,-1,0,792)" style="stroke-width:0.799083">
            <g id="g178" style="stroke-width:0.799083">
               <path d="m 131.84402,180.92941 c -1.78433,2.05062 -7.34345,8.43521 -3.91909,11.2268" style="fill:none;stroke:#000000;stroke-width:2.0899;stroke-linecap:round;stroke-linejoin:round;stroke-miterlimit:10;stroke-dasharray:none;stroke-opacity:1" id="path180" sodipodi:nodetypes="cc" />
            </g>
         </g>
         <g id="g182" transform="matrix(1,0,0,-1,0,792)" style="stroke-width:0.799083">
            <g id="g184" style="stroke-width:0.799083">
               <path d="m 127.92493,192.15621 c 121.86003,19.74857 253.08694,22.67888 374.88143,42.70193" style="fill:none;stroke:#000000;stroke-width:2.0899;stroke-linecap:round;stroke-linejoin:round;stroke-miterlimit:10;stroke-dasharray:none;stroke-opacity:1" id="path186" sodipodi:nodetypes="cc" />
            </g>
         </g>
         <g id="g188" transform="matrix(1,0,0,-1,0,792)" style="stroke-width:0.799083">
            <g id="g190" style="stroke-width:0.799083">
               <path d="m 131.84402,180.92941 c 0.17291,-6.9209 0.70741,-18.48218 1.53906,-22.59885" style="fill:none;stroke:#000000;stroke-width:2.0899;stroke-linecap:round;stroke-linejoin:round;stroke-miterlimit:10;stroke-dasharray:none;stroke-opacity:1" id="path192" />
            </g>
         </g>
         <g id="g194" transform="matrix(1,0,0,-1,0,792)" style="stroke-width:0.799083">
            <g id="g196" style="stroke-width:0.799083">
               <path d="m 125.25552,179.55368 5.023,0.36556" style="fill:none;stroke:#000000;stroke-width:2.0899;stroke-linecap:round;stroke-linejoin:round;stroke-miterlimit:10;stroke-dasharray:none;stroke-opacity:1" id="path198" sodipodi:nodetypes="cc" />
            </g>
         </g>
         <g id="g200" transform="matrix(1,0,0,-1,0,792)" style="stroke-width:0.799083">
            <g id="g202" style="stroke-width:0.799083">
               <path d="m 133.38308,158.33056 c 1.50711,-0.0508 12.24033,-0.29001 13.93073,-0.0786" style="fill:none;stroke:#000000;stroke-width:2.0899;stroke-linecap:round;stroke-linejoin:round;stroke-miterlimit:10;stroke-dasharray:none;stroke-opacity:1" id="path204" sodipodi:nodetypes="cc" />
            </g>
         </g>
         <g id="g206" transform="matrix(1,0,0,-1,0,792)" style="stroke-width:0.799083">
            <g id="g208" style="stroke-width:0.799083">
               <path d="m 146.0334,175.32053 c 0.0106,-8.15941 2.377,-17.01502 2.82691,-25.13852" style="fill:none;stroke:#000000;stroke-width:2.0899;stroke-linecap:round;stroke-linejoin:round;stroke-miterlimit:10;stroke-dasharray:none;stroke-opacity:1" id="path210" sodipodi:nodetypes="cc" />
            </g>
         </g>
         <g id="g212" transform="matrix(1,0,0,-1,0,792)" style="stroke-width:0.799083">
            <g id="g214" style="stroke-width:0.799083">
               <path d="m 148.86031,150.18201 c 12.99778,1.48673 25.99735,3.00833 39.04959,3.94314" style="fill:none;stroke:#000000;stroke-width:2.0899;stroke-linecap:round;stroke-linejoin:round;stroke-miterlimit:10;stroke-dasharray:none;stroke-opacity:1" id="path216" />
            </g>
         </g>
         <g id="g218" transform="matrix(1,0,0,-1,0,792)" style="stroke-width:0.799083">
            <g id="g220" style="stroke-width:0.799083">
               <path d="m 187.9099,154.12515 -3.62857,27.34505" style="fill:none;stroke:#000000;stroke-width:2.0899;stroke-linecap:round;stroke-linejoin:round;stroke-miterlimit:10;stroke-dasharray:none;stroke-opacity:1" id="path222" sodipodi:nodetypes="cc" />
            </g>
         </g>
         <g id="g224" transform="matrix(1,0,0,-1,0,792)" style="stroke-width:0.799083">
            <g id="g226" style="stroke-width:0.799083">
               <path d="m 184.28133,181.4702 c -12.47252,-1.46883 -25.21087,-1.91 -37.29164,-5.66615" style="fill:none;stroke:#000000;stroke-width:2.0899;stroke-linecap:round;stroke-linejoin:round;stroke-miterlimit:10;stroke-dasharray:none;stroke-opacity:1" id="path228" />
            </g>
         </g>
         <g id="g230" transform="matrix(1,0,0,-1,0,792)" style="stroke-width:0.799083">
            <g id="g232" style="stroke-width:0.799083">
               <path d="m 187.05913,164.48378 c 61.29472,2.93368 123.90382,22.06852 185.59638,19.3378 50.36599,6.63529 101.01173,11.20998 151.58259,16.94719 l 6.76351,1.11223 3.74444,0.96983" style="fill:none;stroke:#000000;stroke-width:2.0899;stroke-linecap:round;stroke-linejoin:round;stroke-miterlimit:10;stroke-dasharray:none;stroke-opacity:1" id="path234" sodipodi:nodetypes="ccccc" />
            </g>
         </g>
         <g id="g236" transform="matrix(1,0,0,-1,0,792)" style="stroke-width:0.799083">
            <g id="g238" style="stroke-width:0.799083">
               <path d="m 531.02588,219.28648 c 0.89144,-3.19659 3.17891,-13.37181 3.72017,-16.43565" style="fill:none;stroke:#000000;stroke-width:2.0899;stroke-linecap:round;stroke-linejoin:round;stroke-miterlimit:10;stroke-dasharray:none;stroke-opacity:1" id="path240" sodipodi:nodetypes="cc" />
            </g>
         </g>
         <g id="g242" transform="matrix(1,0,0,-1,0,792)" style="stroke-width:0.799083">
            <g id="g244" style="stroke-width:0.799083">
               <path d="m 156.4722,146.54362 22.64285,1.72286" style="fill:none;stroke:#000000;stroke-width:2.0899;stroke-linecap:round;stroke-linejoin:round;stroke-miterlimit:10;stroke-dasharray:none;stroke-opacity:1" id="path246" sodipodi:nodetypes="cc" />
            </g>
         </g>
         <g id="g248" transform="matrix(1,0,0,-1,0,792)" style="stroke-width:0.799083">
            <g id="g250" style="stroke-width:0.799083">
               <path d="m 179.11505,148.26648 c -0.0516,-1.16977 -0.28375,-6.56513 -0.21925,-7.6174" style="fill:none;stroke:#000000;stroke-width:2.0899;stroke-linecap:round;stroke-linejoin:round;stroke-miterlimit:10;stroke-dasharray:none;stroke-opacity:1" id="path252" sodipodi:nodetypes="cc" />
            </g>
         </g>
         <g id="g254" transform="matrix(1,0,0,-1,0,792)" style="stroke-width:0.799083">
            <g id="g256" style="stroke-width:0.799083">
               <path d="m 156.4722,146.54362 c 0.22188,-0.92925 1.40972,-7.78785 1.29947,-8.49437" style="fill:none;stroke:#000000;stroke-width:2.0899;stroke-linecap:round;stroke-linejoin:round;stroke-miterlimit:10;stroke-dasharray:none;stroke-opacity:1" id="path258" sodipodi:nodetypes="cc" />
            </g>
         </g>
         <g id="g260" transform="matrix(1,0,0,-1,0,792)" style="stroke-width:0.799083">
            <g id="g262" style="stroke-width:0.799083">
               <path d="m 157.77167,138.04925 21.12413,2.59983" style="fill:none;stroke:#000000;stroke-width:2.0899;stroke-linecap:round;stroke-linejoin:round;stroke-miterlimit:10;stroke-dasharray:none;stroke-opacity:1" id="path264" sodipodi:nodetypes="cc" />
            </g>
         </g>
         <g id="g266" transform="matrix(1,0,0,-1,0,792)" style="stroke-width:0.799083">
            <g id="g268" style="stroke-width:0.799083">
               <path d="m 201.76909,155.54965 c 36.05534,6.12965 114.5096,13.86159 114.5096,13.86159" style="fill:none;stroke:#000000;stroke-width:2.0899;stroke-linecap:round;stroke-linejoin:round;stroke-miterlimit:10;stroke-dasharray:none;stroke-opacity:1" id="path270" sodipodi:nodetypes="cc" />
            </g>
         </g>
         <g id="g272" transform="matrix(1,0,0,-1,0,792)" style="stroke-width:0.799083">
            <g id="g274" style="stroke-width:0.799083">
               <path d="m 316.27869,169.41124 c -0.18924,-1.18055 -0.20121,-8.90453 -0.11711,-10.15186" style="fill:none;stroke:#000000;stroke-width:2.0899;stroke-linecap:round;stroke-linejoin:round;stroke-miterlimit:10;stroke-dasharray:none;stroke-opacity:1" id="path276" sodipodi:nodetypes="cc" />
            </g>
         </g>
         <g id="g278" transform="matrix(1,0,0,-1,0,792)" style="stroke-width:0.799083">
            <g id="g280" style="stroke-width:0.799083">
               <path d="m 201.76909,155.54965 c 0.26519,-1.27792 2.21626,-8.409 2.5251,-9.71322" style="fill:none;stroke:#000000;stroke-width:2.0899;stroke-linecap:round;stroke-linejoin:round;stroke-miterlimit:10;stroke-dasharray:none;stroke-opacity:1" id="path282" sodipodi:nodetypes="cc" />
            </g>
         </g>
         <g id="g284" transform="matrix(1,0,0,-1,0,792)" style="stroke-width:0.799083">
            <g id="g286" style="stroke-width:0.799083">
               <path d="m 204.29419,145.83643 c 37.75814,4.15123 111.86739,13.42295 111.86739,13.42295" style="fill:none;stroke:#000000;stroke-width:2.0899;stroke-linecap:round;stroke-linejoin:round;stroke-miterlimit:10;stroke-dasharray:none;stroke-opacity:1" id="path288" sodipodi:nodetypes="cc" />
            </g>
         </g>
         <g id="g290" transform="matrix(1,0,0,-1,0,792)" style="stroke-width:0.799083">
            <g id="g292" style="stroke-width:0.799083">
               <path d="m 341.82059,181.76831 1.99727,-14.98192" style="fill:none;stroke:#000000;stroke-width:2.0899;stroke-linecap:round;stroke-linejoin:round;stroke-miterlimit:10;stroke-dasharray:none;stroke-opacity:1" id="path294" sodipodi:nodetypes="cc" />
            </g>
         </g>
         <g id="g296" transform="matrix(1,0,0,-1,0,792)" style="stroke-width:0.799083">
            <g id="g298" style="stroke-width:0.799083">
               <path d="m 343.86131,166.71868 c 26.37517,0.92809 59.95137,7.41644 86.30065,8.90038" style="fill:none;stroke:#000000;stroke-width:2.0899;stroke-linecap:round;stroke-linejoin:round;stroke-miterlimit:10;stroke-dasharray:none;stroke-opacity:1" id="path300" sodipodi:nodetypes="cc" />
            </g>
         </g>
         <g id="g302" transform="matrix(1,0,0,-1,0,792)" style="stroke-width:0.799083">
            <g id="g304" style="stroke-width:0.799083">
               <path d="m 430.16196,175.61906 2.33667,-12.82278" style="fill:none;stroke:#000000;stroke-width:2.0899;stroke-linecap:round;stroke-linejoin:round;stroke-miterlimit:10;stroke-dasharray:none;stroke-opacity:1" id="path306" sodipodi:nodetypes="cc" />
            </g>
         </g>
         <g id="g308" transform="matrix(1,0,0,-1,0,792)" style="stroke-width:0.799083">
            <g id="g310" style="stroke-width:0.799083">
               <path d="m 321.15436,165.90448 2.25085,-22.07004" style="fill:none;stroke:#000000;stroke-width:2.0899;stroke-linecap:round;stroke-linejoin:round;stroke-miterlimit:10;stroke-dasharray:none;stroke-opacity:1" id="path312" sodipodi:nodetypes="cc" />
            </g>
         </g>
         <g id="g314" transform="matrix(1,0,0,-1,0,792)" style="stroke-width:0.799083">
            <g id="g316" style="stroke-width:0.799083">
               <path d="m 325.64252,146.09 c 33.82847,5.32709 71.52229,6.55211 103.20184,11.86452" style="fill:none;stroke:#000000;stroke-width:2.0899;stroke-linecap:round;stroke-linejoin:round;stroke-miterlimit:10;stroke-dasharray:none;stroke-opacity:1" id="path318" />
            </g>
         </g>
         <g id="g320" transform="matrix(1,0,0,-1,0,792)" style="stroke-width:0.799083">
            <g id="g322" style="stroke-width:0.799083">
               <path d="m 323.54949,151.97932 c 35.42053,3.8393 73.44306,7.83558 108.94914,10.81696" style="fill:none;stroke:#000000;stroke-width:2.0899;stroke-linecap:round;stroke-linejoin:round;stroke-miterlimit:10;stroke-dasharray:none;stroke-opacity:1" id="path324" sodipodi:nodetypes="cc" />
            </g>
         </g>
         <g id="g326" transform="matrix(1,0,0,-1,0,792)" style="stroke-width:0.799083">
            <g id="g328" style="stroke-width:0.799083">
               <path d="m 430.16196,175.61906 c 29.9047,3.3206 98.23366,11.17189 98.23366,11.17189" style="fill:none;stroke:#000000;stroke-width:2.0899;stroke-linecap:round;stroke-linejoin:round;stroke-miterlimit:10;stroke-dasharray:none;stroke-opacity:1" id="path330" sodipodi:nodetypes="cc" />
            </g>
         </g>
         <g id="g332" transform="matrix(1,0,0,-1,0,792)" style="stroke-width:0.799083">
            <g id="g334" style="stroke-width:0.799083">
               <path d="m 528.39562,186.79095 -0.13976,6.77724" style="fill:none;stroke:#000000;stroke-width:2.0899;stroke-linecap:round;stroke-linejoin:round;stroke-miterlimit:10;stroke-dasharray:none;stroke-opacity:1" id="path336" sodipodi:nodetypes="cc" />
            </g>
         </g>
         <g id="g338" transform="matrix(1,0,0,-1,0,792)" style="stroke-width:0.799083">
            <g id="g340" style="stroke-width:0.799083">
               <path d="m 528.25586,193.56819 -7.85175,3.69926" style="fill:none;stroke:#000000;stroke-width:2.0899;stroke-linecap:round;stroke-linejoin:round;stroke-miterlimit:10;stroke-dasharray:none;stroke-opacity:1" id="path342" />
            </g>
         </g>
         <g id="g344" transform="matrix(1,0,0,-1,0,792)" style="stroke-width:0.799083">
            <g id="g346" style="stroke-width:0.799083">
               <path d="M 355.50986,192.48064 C 307.51204,185.94107 257.53128,182.06297 210.94263,172.72895" style="fill:none;stroke:#000000;stroke-width:2.0899;stroke-linecap:round;stroke-linejoin:round;stroke-miterlimit:10;stroke-dasharray:none;stroke-opacity:1" id="path348" />
            </g>
         </g>
         <g id="g350" transform="matrix(1,0,0,-1,0,792)" style="stroke-width:0.799083">
            <g id="g352" style="stroke-width:0.799083">
               <path d="m 388.27196,196.5785 c 2.58387,2.42616 5.19514,3.3992 7.61702,0.96097" style="fill:none;stroke:#000000;stroke-width:2.0899;stroke-linecap:round;stroke-linejoin:round;stroke-miterlimit:10;stroke-dasharray:none;stroke-opacity:1" id="path354" sodipodi:nodetypes="cc" />
            </g>
         </g>
         <g id="g356" transform="matrix(1,0,0,-1,0,792)" style="stroke-width:0.799083">
            <g id="g358" style="stroke-width:0.799083">
               <path d="m 396.00018,197.57959 c 4.41333,-5.57831 -12.5816,-8.11603 -7.86201,-1.17369" style="fill:none;stroke:#000000;stroke-width:2.0899;stroke-linecap:round;stroke-linejoin:round;stroke-miterlimit:10;stroke-dasharray:none;stroke-opacity:1" id="path360" sodipodi:nodetypes="cc" />
            </g>
         </g>
         <g id="g362" transform="matrix(1,0,0,-1,0,792)" style="stroke-width:0.799083">
            <g id="g364" style="stroke-width:0.799083">
               <path d="m 407.88586,198.53801 c 31.98375,5.91536 66.14342,10.00697 98.29697,14.7826" style="fill:none;stroke:#000000;stroke-width:2.0899;stroke-linecap:round;stroke-linejoin:round;stroke-miterlimit:10;stroke-dasharray:none;stroke-opacity:1" id="path366" sodipodi:nodetypes="cc" />
            </g>
         </g>
         <g id="g368" transform="matrix(1,0,0,-1,0,792)" style="stroke-width:0.799083">
            <g id="g370" style="stroke-width:0.799083">
               <path d="m 506.18283,213.32061 c -0.0337,-0.21841 0.94914,-6.3881 -0.38278,-5.0333" style="fill:none;stroke:#000000;stroke-width:2.0899;stroke-linecap:round;stroke-linejoin:round;stroke-miterlimit:10;stroke-dasharray:none;stroke-opacity:1" id="path372" sodipodi:nodetypes="cc" />
            </g>
         </g>
         <g id="g374" transform="matrix(1,0,0,-1,0,792)" style="stroke-width:0.799083">
            <g id="g376" style="stroke-width:0.799083">
               <path d="M 505.80005,208.28731 C 473.25213,204.97183 440.54992,200.85568 408.745,193.7693" style="fill:none;stroke:#000000;stroke-width:2.0899;stroke-linecap:round;stroke-linejoin:round;stroke-miterlimit:10;stroke-dasharray:none;stroke-opacity:1" id="path378" />
            </g>
         </g>
         <g id="g380" transform="matrix(1,0,0,-1,0,792)" style="stroke-width:0.799083">
            <g id="g382" style="stroke-width:0.799083">
               <path d="m 408.56061,193.86556 -0.67475,4.67245" style="fill:none;stroke:#000000;stroke-width:2.0899;stroke-linecap:round;stroke-linejoin:round;stroke-miterlimit:10;stroke-dasharray:none;stroke-opacity:1" id="path384" sodipodi:nodetypes="cc" />
            </g>
         </g>
         <g id="g386" transform="matrix(1,0,0,-1,0,792)" style="stroke-width:0.799083">
            <g id="g388" style="stroke-width:0.799083">
               <path d="m 426.73932,199.85371 c -1.53592,3.7071 4.09613,-2.24366 -0.68424,0.21572" style="fill:none;stroke:#000000;stroke-width:2.0899;stroke-linecap:round;stroke-linejoin:round;stroke-miterlimit:10;stroke-dasharray:none;stroke-opacity:1" id="path390" />
            </g>
         </g>
         <g id="g392" transform="matrix(1,0,0,-1,0,792)" style="stroke-width:0.799083">
            <g id="g394" style="stroke-width:0.799083">
               <path d="m 456.83261,204.41684 c -0.76427,3.8083 6.79028,0.0852 2.50189,0.64756" style="fill:none;stroke:#000000;stroke-width:2.0899;stroke-linecap:round;stroke-linejoin:round;stroke-miterlimit:10;stroke-dasharray:none;stroke-opacity:1" id="path396" />
            </g>
         </g>
         <g id="g398" transform="matrix(1,0,0,-1,0,792)" style="stroke-width:0.799083">
            <g id="g400" style="stroke-width:0.799083">
               <path d="m 487.34573,207.37128 c -1.28314,0.0592 -3.60235,0.42743 -3.47882,0.55235" style="fill:none;stroke:#000000;stroke-width:2.0899;stroke-linecap:round;stroke-linejoin:round;stroke-miterlimit:10;stroke-dasharray:none;stroke-opacity:1" id="path402" />
            </g>
         </g>
      </g>
   </g>
</svg>
