<?xml version="1.0" encoding="UTF-8" standalone="no"?>
<!-- Created by Ashley Blewer - This work is licensed under a Creative Commons Attribution 4.0 International License -->

<svg width="544" height="480" viewBox="0 0 143.93334 127" version="1.1" id="svg2490" inkscape:version="1.1.2 (08b2f3d93c, 2022-04-05)" sodipodi:docname="1982-betacam-1.svg"
   xmlns:inkscape="http://www.inkscape.org/namespaces/inkscape"
   xmlns:sodipodi="http://sodipodi.sourceforge.net/DTD/sodipodi-0.dtd"
   xmlns="http://www.w3.org/2000/svg"
   xmlns:svg="http://www.w3.org/2000/svg">
   <sodipodi:namedview id="namedview2492" pagecolor="#ffffff" bordercolor="#666666" borderopacity="1.0" inkscape:pageshadow="2" inkscape:pageopacity="0.0" inkscape:pagecheckerboard="0" inkscape:document-units="mm" showgrid="false" units="px" inkscape:zoom="0.90583674" inkscape:cx="272.67607" inkscape:cy="177.18425" inkscape:window-width="1848" inkscape:window-height="1136" inkscape:window-x="72" inkscape:window-y="27" inkscape:window-maximized="1" inkscape:current-layer="layer1" />
   <defs id="defs2487" />
   <g inkscape:label="Layer 1" inkscape:groupmode="layer" id="layer1">
      <g id="g3586" transform="matrix(0.36844453,0,0,0.36821665,17.348391,-157.23745)" style="stroke-width:0.824246">
         <g id="g88" transform="scale(1,-1)" style="stroke-width:0.824246">
            <path d="m 66.344,-725.32 c -2.441528,3.03247 -8.578,12.226 -8.578,12.226" style="fill:none;stroke:#000000;stroke-width:2.15572;stroke-linecap:round;stroke-linejoin:round;stroke-miterlimit:10;stroke-dasharray:none;stroke-opacity:1" id="path90" sodipodi:nodetypes="cc" />
         </g>
         <g id="g92" transform="scale(1,-1)" style="stroke-width:0.824246">
            <path d="m 57.766,-713.094 c 0,0 -9.770321,165.16375 -14.336,258.059 -0.128713,0.94211 -0.14535,2.30025 -0.453,2.547 0.247556,-0.30269 -0.105968,0.4352 -0.016,0.742 -0.01053,0.23162 -0.02674,0.1688 -0.152,0.211 0.232059,-0.12681 -0.08371,0.0533 0.164,-0.153 -0.104774,-0.0491 2.805525,-0.004 3.154641,-0.46242 2.014016,-0.30288 5.667498,-1.94163 6.149359,-1.97458 0.339839,-0.045 1.181129,-0.47162 1.032,-0.48 0.141752,0.25922 -0.01079,-0.0516 -0.032,0.113 0.276406,-0.14886 -0.299279,0.0522 0.121,-0.149 -0.203709,0.60889 -0.12497,-3.63643 0.0076,-4.91908 3.923827,-84.90924 9.424476,-169.7523 12.161414,-254.7119 0.110426,-2.28832 -0.0411,-5.95676 0.12397,-7.15802 0.118635,-0.76919 -0.129996,-1.30419 0.008,-2.172 -0.362298,-0.38917 0.129617,-1.13869 -0.211,-0.652 0.113034,-0.0366 0.142098,0.10458 0.219,0.149" style="fill:none;stroke:#000000;stroke-width:2.15572;stroke-linecap:round;stroke-linejoin:round;stroke-miterlimit:10;stroke-dasharray:none;stroke-opacity:1" id="path94" sodipodi:nodetypes="ccccccccccccccccc" />
         </g>
         <g id="g96" transform="scale(1,-1)" style="stroke-width:0.824246">
            <path d="m 42.855,-451.426 c 51.153177,3.89355 101.75045,8.96364 153.067,7.055" style="fill:none;stroke:#000000;stroke-width:2.15572;stroke-linecap:round;stroke-linejoin:round;stroke-miterlimit:10;stroke-dasharray:none;stroke-opacity:1" id="path98" sodipodi:nodetypes="cc" />
         </g>
         <g id="g100" transform="scale(1,-1)" style="stroke-width:0.824246">
            <path d="m 53.473,-454.512 c 48.93078,2.79154 102.32303,8.42188 145.453,7.207 0.7837,-0.15281 0.75786,-0.0937 0.531,0.004" style="fill:none;stroke:#000000;stroke-width:2.15572;stroke-linecap:round;stroke-linejoin:round;stroke-miterlimit:10;stroke-dasharray:none;stroke-opacity:1" id="path102" sodipodi:nodetypes="ccc" />
         </g>
         <g id="g104" transform="scale(1,-1)" style="stroke-width:0.824246">
            <path d="m 196.109,-445.234 c 0.41064,-0.24838 0.90315,0.0388 1.27914,-0.34082 0.472,-0.12789 0.93406,-0.317 1.36502,-0.54645 0.27489,-0.0514 0.71413,-0.0918 0.67147,-0.20353 -0.35552,0.18643 -0.74739,-0.10879 -1.10094,0.15028 -0.27121,0.007 -0.43724,0.15021 -0.75562,0.23101 0.0882,0.30471 -0.44842,0.10468 -0.61763,0.37433 -0.32161,0.0564 0.38806,-0.0497 0.42446,-0.11471" style="fill:none;stroke:#000000;stroke-width:2.15572;stroke-linecap:round;stroke-linejoin:round;stroke-miterlimit:10;stroke-dasharray:none;stroke-opacity:1" id="path106" />
         </g>
         <g id="g108" transform="scale(1,-1)" style="stroke-width:0.824246">
            <path d="m 199.457,-447.301 -5.48401,-135.82" style="fill:none;stroke:#000000;stroke-width:2.15572;stroke-linecap:round;stroke-linejoin:round;stroke-miterlimit:10;stroke-dasharray:none;stroke-opacity:1" id="path110" sodipodi:nodetypes="cc" />
         </g>
         <g id="g112" transform="scale(1,-1)" style="stroke-width:0.824246">
            <path d="m 156.988,-591.531 c 2.62083,0.99266 7.89758,1.49174 11.46899,2.36143 27.78779,5.29322 55.64702,10.2377 83.62901,14.39657 0.48319,-0.1352 2.27499,0.16996 1.84,-0.247" style="fill:none;stroke:#000000;stroke-width:2.15572;stroke-linecap:round;stroke-linejoin:round;stroke-miterlimit:10;stroke-dasharray:none;stroke-opacity:1" id="path114" />
         </g>
         <g id="g116" transform="scale(1,-1)" style="stroke-width:0.824246">
            <path d="m 157.289,-592.871 12.41155,-9.68949 c 0.17584,-0.14684 0.80241,-0.5125 0.13945,-0.32293" style="fill:none;stroke:#000000;stroke-width:2.15572;stroke-linecap:round;stroke-linejoin:round;stroke-miterlimit:10;stroke-dasharray:none;stroke-opacity:1" id="path118" sodipodi:nodetypes="ccc" />
         </g>
         <g id="g120" transform="scale(1,-1)" style="stroke-width:0.824246">
            <path d="m 156.988,-591.531 -7.715,-160.461 v 0" style="fill:none;stroke:#000000;stroke-width:2.15572;stroke-linecap:round;stroke-linejoin:round;stroke-miterlimit:10;stroke-dasharray:none;stroke-opacity:1" id="path122" sodipodi:nodetypes="ccc" />
         </g>
         <g id="g124" transform="scale(1,-1)" style="stroke-width:0.824246">
            <path d="m 149.273,-751.992 12.59116,-14.64599 c -0.0965,-0.089 -0.13685,0.0732 -0.0442,0.11099" style="fill:none;stroke:#000000;stroke-width:2.15572;stroke-linecap:round;stroke-linejoin:round;stroke-miterlimit:10;stroke-dasharray:none;stroke-opacity:1" id="path126" sodipodi:nodetypes="ccc" />
         </g>
         <g id="g128" transform="scale(1,-1)" style="stroke-width:0.824246">
            <path d="M 169.84,-602.88342 161.863,-766.25" style="fill:none;stroke:#000000;stroke-width:2.15572;stroke-linecap:round;stroke-linejoin:round;stroke-miterlimit:10;stroke-dasharray:none;stroke-opacity:1" id="path130" sodipodi:nodetypes="cc" />
         </g>
         <g id="g132" transform="scale(1,-1)" style="stroke-width:0.824246">
            <path d="m 162.566,-767.18 c 5.28394,1.85555 10.84602,3.1527 16.19957,4.92625 15.02219,4.67709 29.91261,9.8181 44.96228,14.3746 1.64094,0.87345 5.91183,0.6489 4.11118,3.47789 2.40356,0.75734 5.11208,0.50952 7.60819,1.13946 4.6234,0.65 9.28624,1.41062 13.61178,3.2458 l -0.348,-0.187" style="fill:none;stroke:#000000;stroke-width:2.15572;stroke-linecap:round;stroke-linejoin:round;stroke-miterlimit:10;stroke-dasharray:none;stroke-opacity:1" id="path134" />
         </g>
         <g id="g136" transform="scale(1,-1)" style="stroke-width:0.824246">
            <path d="m 169.84,-602.88342 76.91646,16.24555 c 0.13972,-0.0221 -3.355,-1.54381 -0.92046,-2.31513 -0.69925,-0.0394 4.64056,1.72493 2.777,2.148 -2.71684,0.32397 4.63837,0.9555 5.45476,1.78653 3.9735,0.82681 9.92219,1.96204 12.74099,1.51306 l -0.10977,-0.0122 0.039,-0.0684" style="fill:none;stroke:#000000;stroke-width:2.15572;stroke-linecap:round;stroke-linejoin:round;stroke-miterlimit:10;stroke-dasharray:none;stroke-opacity:1" id="path138" sodipodi:nodetypes="cccccccc" />
         </g>
         <g id="g140" transform="scale(1,-1)" style="stroke-width:0.824246">
            <path d="m 253.328,-574.953 c 0.66592,-0.43682 1.43844,-0.67784 2.12065,-1.08975 l 10.59035,-6.27724" style="fill:none;stroke:#000000;stroke-width:2.15572;stroke-linecap:round;stroke-linejoin:round;stroke-miterlimit:10;stroke-dasharray:none;stroke-opacity:1" id="path142" sodipodi:nodetypes="ccc" />
         </g>
         <g id="g144" transform="scale(1,-1)" style="stroke-width:0.824246">
            <path d="M 266.80875,-583.50541 249.023,-740.02 c 0.36021,-0.5916 0.011,0.61125 0,0" style="fill:none;stroke:#000000;stroke-width:2.15572;stroke-linecap:round;stroke-linejoin:round;stroke-miterlimit:10;stroke-dasharray:none;stroke-opacity:1" id="path146" sodipodi:nodetypes="ccc" />
         </g>
         <g id="g148" transform="scale(1,-1)" style="stroke-width:0.824246">
            <path d="m 228.438,-601.77 c 10.20854,-5.13042 16.9669,-16.75452 15.14014,-28.2175 -0.14325,-8.49189 -3.519,-16.68316 -8.8636,-23.20359 -4.56219,-5.67912 -9.98101,-10.76294 -15.46758,-15.49594 -6.02712,-4.78831 -13.83677,-5.96403 -21.18883,-7.26834 -8.20454,-0.10613 -17.37888,4.12226 -20.12942,12.3948 -2.67494,6.85493 -4.86022,14.28039 -4.29161,21.69043 0.91158,7.37106 3.39899,14.58344 8.1985,20.33944 6.54705,9.27984 15.99208,16.24507 26.63238,20.13556 6.30202,2.86818 13.76029,2.81758 19.95402,-0.33186" style="fill:none;stroke:#000000;stroke-width:2.15572;stroke-linecap:round;stroke-linejoin:round;stroke-miterlimit:10;stroke-dasharray:none;stroke-opacity:1" id="path150" />
         </g>
         <g id="g152" transform="scale(1,-1)" style="stroke-width:0.824246">
            <path d="m 218.95742,-627.09707 c -4.57535,5.73249 -13.78193,6.35665 -18.84435,0.90608 -4.80579,-4.80921 -9.63868,-10.80923 -9.68549,-17.94707 0.0709,-5.72479 5.16373,-10.82537 10.94954,-10.63358 1.5257,-0.17914 6.07908,0.37747 7.34747,1.53288" style="fill:none;stroke:#000000;stroke-width:2.15572;stroke-linecap:round;stroke-linejoin:round;stroke-miterlimit:10;stroke-dasharray:none;stroke-opacity:1" id="path154" sodipodi:nodetypes="ccccc" />
         </g>
         <g id="g156" transform="scale(1,-1)" style="stroke-width:0.824246">
            <path d="m 220.246,-629.793 c -3.65384,3.60957 -9.89966,5.96346 -14.46782,2.6048 -5.48994,-3.75086 -8.07741,-10.75117 -7.90145,-17.21161 0.58684,-3.99742 2.85319,-8.90274 7.3443,-9.45588 5.60827,0.17821 9.80479,4.80255 12.2684,9.44609 2.59309,4.1717 4.73617,9.17145 3.6863,14.14527 -0.82216,2.0215 -1.36851,1.17383 -2.21831,3.16726" style="fill:none;stroke:#000000;stroke-width:2.15572;stroke-linecap:round;stroke-linejoin:round;stroke-miterlimit:10;stroke-dasharray:none;stroke-opacity:1" id="path158" sodipodi:nodetypes="ccccccc" />
         </g>
         <g id="g160" transform="scale(1,-1)" style="stroke-width:0.824246">
            <path d="m 89.768457,-541.90828 0.271253,10.33993 c 0,0 -1.768704,32.34892 3.272014,47.76539 2.270292,6.27211 5.72715,12.36197 10.815016,16.74538 6.45269,2.79356 13.64258,3.02716 20.55241,3.6725 7.13944,0.30719 14.51869,0.46769 21.41085,-1.60692 2.16011,-1.34649 2.82653,-4.32527 3.94669,-6.78796 5.94671,-15.28728 9.26505,-31.86431 8.01888,-48.29755 -0.3753,-3.41191 -1.23583,-7.94629 -2.83601,-10.41112 -3.50036,-1.5034 -7.5062,-1.75545 -11.2094,-2.7244 -16.60799,-3.31291 -33.30445,-6.35076 -50.149114,-8.16787 l -4.092589,-0.52738" style="fill:none;stroke:#000000;stroke-width:2.15572;stroke-linecap:round;stroke-linejoin:round;stroke-miterlimit:10;stroke-dasharray:none;stroke-opacity:1" id="path162" sodipodi:nodetypes="cccccccccccc" />
         </g>
         <g id="g164" transform="scale(1,-1)" style="stroke-width:0.824246">
            <path d="m 126.52,-531.246 c -0.76166,-0.70695 -4.2045,0.21061 -5.66176,1.19714 -2.45837,1.15064 -3.95598,3.71921 -4.35328,6.33061 0.41017,2.01446 0.87566,4.29268 2.21929,5.88307 1.47763,1.54125 3.70183,2.08208 5.74041,1.47998 2.93271,-0.2976 4.91004,-3.12094 5.5774,-5.79688 1.31601,-3.07483 -0.79336,-6.38803 -2.52652,-8.8648 -0.662,-0.79927 -1.72166,-1.95684 -2.86751,-1.3196" style="fill:none;stroke:#000000;stroke-width:2.15572;stroke-linecap:round;stroke-linejoin:round;stroke-miterlimit:10;stroke-dasharray:none;stroke-opacity:1" id="path166" />
         </g>
         <g id="g168" transform="scale(1,-1)" style="stroke-width:0.824246">
            <path d="m 116.492,-533.383 c -1.7426,0.95549 -2.99293,2.70945 -3.95974,4.38562 -0.90372,2.08449 -1.59823,4.29122 -1.38246,6.58196 0.0952,1.86132 0.69575,3.71017 1.46813,5.39599 1.59614,1.79179 3.50922,3.45598 5.87671,4.11546 3.78417,0.93021 7.79209,-0.61888 10.61581,-3.13771 1.69636,-1.68266 2.37369,-4.177 3.13647,-6.34148 0.47628,-3.02701 0.81755,-6.86977 -2.20562,-8.74665 -1.59576,-1.62638 -3.56558,-2.72967 -5.59742,-3.71291 -0.59601,-0.57172 -1.50523,-1.11903 -2.33895,-0.71228" style="fill:none;stroke:#000000;stroke-width:2.15572;stroke-linecap:round;stroke-linejoin:round;stroke-miterlimit:10;stroke-dasharray:none;stroke-opacity:1" id="path170" />
         </g>
         <g id="g172" transform="scale(1,-1)" style="stroke-width:0.824246">
            <path d="m 106.81521,-539.19869 c -2.87447,2.1153 -3.99292,6.40252 -5.02296,9.64824 -1.16268,4.70847 -0.4553,9.73263 1.27106,14.19274 2.45473,3.5416 6.26883,5.8681 9.68871,8.40453 3.74428,2.72587 8.6436,4.11004 13.0968,2.33895 5.81155,-1.48513 10.02191,-6.29907 12.24828,-11.67999 2.25887,-4.30828 3.35457,-9.85262 0.58752,-14.20539 -0.73867,-0.49007 -2.98566,-4.32032 -2.98566,-4.32032" style="fill:none;stroke:#000000;stroke-width:2.15572;stroke-linecap:round;stroke-linejoin:round;stroke-miterlimit:10;stroke-dasharray:none;stroke-opacity:1" id="path174" sodipodi:nodetypes="cccccccc" />
         </g>
         <g id="g176" transform="scale(1,-1)" style="stroke-width:0.824246">
            <path d="m 91.723,-648.969 c 19.81636,6.12601 63.46677,14.85556 63.46677,14.85556" style="fill:none;stroke:#000000;stroke-width:2.15572;stroke-linecap:round;stroke-linejoin:round;stroke-miterlimit:10;stroke-dasharray:none;stroke-opacity:1" id="path178" sodipodi:nodetypes="cc" />
         </g>
         <g id="g180" transform="scale(1,-1)" style="stroke-width:0.824246">
            <path d="m 92.109,-648.93 c -1.388177,-8.86557 0.039,-33.039 0.039,-33.039 2.913595,-5.94859 5.878267,-13.13967 10.29,-16.851 -0.44189,-0.0374 0.66496,-0.35398 0.589,-0.551 0.29122,-0.286 0.45007,-0.0713 0.563,-0.375 1.71145,-0.49949 3.70427,-1.18185 5.203,-1.066 2.05618,-0.0615 4.34789,0.63645 6.46469,0.90659 8.68343,1.62797 25.96931,8.61641 25.17631,8.18241 0.2332,0.24883 0.31781,0.30866 0.793,0.434 1.88853,1.70171 3.82847,4.4718 5.60871,7.10607 1.57295,2.73346 6.08076,9.28111 6.33289,12.48766" style="fill:none;stroke:#000000;stroke-width:2.15572;stroke-linecap:round;stroke-linejoin:round;stroke-miterlimit:10;stroke-dasharray:none;stroke-opacity:1" id="path182" sodipodi:nodetypes="ccccccccccc" />
         </g>
         <g id="g184" transform="scale(1,-1)" style="stroke-width:0.824246">
            <path d="m 117.516,-651.039 -0.063,-0.066 -0.043,-0.067 -0.039,-0.066 c -2.668,-4.707 1.106,-9.41 6.551,-7.766 l 0.105,0.063 0.032,0.046 0.07,0.032 c 5.289,2.297 6.601,9.535 0.086,11.051 l -0.024,0.039 -0.031,0.007 -0.055,0.008 -0.078,0.02 c -3.726,0.047 -4.625,-0.754 -6.277,-2.848" style="fill:none;stroke:#000000;stroke-width:2.15572;stroke-linecap:round;stroke-linejoin:round;stroke-miterlimit:10;stroke-dasharray:none;stroke-opacity:1" id="path186" />
         </g>
         <g id="g188" transform="scale(1,-1)" style="stroke-width:0.824246">
            <path d="m 114.785,-645.098 c 0.59581,0.059 -0.49464,-0.0564 -0.55658,-0.52531 -0.80475,-0.24767 -0.9602,-1.29716 -1.35213,-1.9644 -1.12108,-2.69246 -1.35232,-5.97491 0.16856,-8.56266 0.27485,-0.40904 0.623,-0.96233 0.99815,-1.19363" style="fill:none;stroke:#000000;stroke-width:2.15572;stroke-linecap:round;stroke-linejoin:round;stroke-miterlimit:10;stroke-dasharray:none;stroke-opacity:1" id="path190" />
         </g>
         <g id="g192" transform="scale(1,-1)" style="stroke-width:0.824246">
            <path d="m 106.453,-645.148 c -1.68521,-4.51685 -2.6395,-9.81268 -0.41242,-14.32 2.06763,-4.24401 6.90354,-6.48708 11.47761,-6.47006 6.68414,-0.30175 13.78063,2.01174 18.12156,7.29591 1.78128,2.02241 2.4267,4.79884 2.72544,7.41448 0.30565,3.9678 -0.60112,8.2439 -3.23899,11.31783 -0.70013,0.59475 -0.13503,0.30882 -0.6909,1.05851" style="fill:none;stroke:#000000;stroke-width:2.15572;stroke-linecap:round;stroke-linejoin:round;stroke-miterlimit:10;stroke-dasharray:none;stroke-opacity:1" id="path194" sodipodi:nodetypes="ccccccc" />
         </g>
         <g id="g196" transform="scale(1,-1)" style="stroke-width:0.824246">
            <path d="m 180.598,-449.426 c 0.007,0.0413 1.08492,-0.47605 1.58522,-0.14148 0.80019,0.12169 1.61667,0.14015 2.42404,0.22528 0.76067,0.2447 1.51838,-0.38484 2.28102,-0.0594 0.74518,0.10508 1.48818,-0.0542 2.22545,0.0445 0.90365,0.0507 1.8102,-0.10647 2.69846,-0.22432 -0.7968,-0.17715 -1.63521,-0.20896 -2.42242,-0.50403 -1.04415,-0.0633 -2.06456,-0.3231 -3.06864,-0.57405 -0.97851,-0.0347 -1.9438,0.13639 -2.91269,0.23572 -0.1988,0.0169 0.45373,-0.27951 -0.0733,-0.0126 0.96192,-0.48294 2.06825,-0.68814 3.1416,-0.74729 0.9253,0.0609 1.82126,0.34318 2.75219,0.37422 0.79118,0.20034 1.83271,0.1617 2.44658,-0.0914 0.0924,0.15001 0.32692,0.0449 0.42242,0.19376" style="fill:none;stroke:#000000;stroke-width:1.07786;stroke-linecap:round;stroke-linejoin:round;stroke-miterlimit:10;stroke-dasharray:none;stroke-opacity:1" id="path198" />
         </g>
         <g id="g200" transform="scale(1,-1)" style="stroke-width:0.824246">
            <path d="m 192.926,-452.551 -4.77845,-132.637" style="fill:none;stroke:#000000;stroke-width:1.07786;stroke-linecap:round;stroke-linejoin:round;stroke-miterlimit:10;stroke-dasharray:none;stroke-opacity:1" id="path202" sodipodi:nodetypes="cc" />
         </g>
         <g id="g204" transform="scale(1,-1)" style="stroke-width:0.824246">
            <path d="m 240.066,-577.754 c 0.4534,-0.13172 0.30714,0.0329 -0.0364,-0.32754 -0.56497,-0.60132 -1.3767,-0.89421 -2.02963,-1.39495 -0.60767,-0.36964 -1.31718,-1.01284 -2.062,-1.257 -0.38613,-0.17257 0.0328,-0.0825 -0.34076,-0.1896 0.23716,0.0344 -0.38921,-0.34868 0.15875,-0.1836 l 9.86117,-5.97293 c -0.41575,-0.0914 0.0151,0.11305 -0.31931,0.0256 l 0.13865,-0.0308 -0.0814,-5.9e-4" style="fill:none;stroke:#000000;stroke-width:1.07786;stroke-linecap:round;stroke-linejoin:round;stroke-miterlimit:10;stroke-dasharray:none;stroke-opacity:1" id="path206" sodipodi:nodetypes="cccccccccc" />
         </g>
         <g id="g208" transform="scale(1,-1)" style="stroke-width:0.824246">
            <path d="m 162.66654,-597.02505 97.58648,17.58168" style="fill:none;stroke:#000000;stroke-width:1.07786;stroke-linecap:round;stroke-linejoin:round;stroke-miterlimit:10;stroke-dasharray:none;stroke-opacity:1" id="path210" sodipodi:nodetypes="cc" />
         </g>
         <g id="g212" transform="scale(1,-1)" style="stroke-width:0.824246">
            <path d="m 249.238,-577.426 c 0.73134,-0.26091 1.51075,0.0112 2.24731,0.1116 0.40288,0.0461 1.21803,0.30684 1.2416,0.53921 -1.02769,-0.18588 -2.09381,-0.0727 -3.10238,-0.38246 -0.61172,-0.12188 -1.23369,-0.19055 -1.85696,-0.21162 1.40558,0.22655 2.82797,0.30488 4.24423,0.41619 0.32508,-0.0277 1.04022,0.24017 0.94113,0.0741" style="fill:none;stroke:#000000;stroke-width:1.07786;stroke-linecap:round;stroke-linejoin:round;stroke-miterlimit:10;stroke-dasharray:none;stroke-opacity:1" id="path214" />
         </g>
         <g id="g216" transform="scale(1,-1)" style="stroke-width:0.824246">
            <path d="m 240.48,-577.676 c -0.21995,-0.66086 0.50416,-0.10471 0.78683,-0.0465 0.14902,0.0834 0.40023,-0.0546 0.47122,0.13735" style="fill:none;stroke:#000000;stroke-width:1.07786;stroke-linecap:round;stroke-linejoin:round;stroke-miterlimit:10;stroke-dasharray:none;stroke-opacity:1" id="path218" />
         </g>
         <g id="g220" transform="scale(1,-1)" style="stroke-width:0.824246">
            <path d="m 248.906,-589.273 -0.004,-0.008 -0.007,-0.004 -0.016,-0.02 -0.07,-0.039 -0.114,-0.019 -0.105,-0.035 -0.094,-0.016 -0.078,0.004 h -0.188 l -0.128,-0.004 h 0.015 l -0.035,0.023 -0.023,0.004 -0.02,0.008 -0.008,0.027 -0.074,-0.003 h -0.055 l 0.039,0.011 -0.011,0.008 -0.004,0.008 -0.008,0.004 0.059,0.004 0.027,0.004 0.008,0.004 0.011,0.015 h 0.008 l 0.02,-0.019 -0.004,-0.004 -0.051,0.011 0.008,-0.023 0.043,-0.02 0.019,-0.023 0.036,-0.023 0.015,-0.02 0.043,0.004 0.051,0.016 -0.004,-0.012 0.008,-0.012 h 0.008 l 0.007,-0.004 0.004,-0.027 0.047,-0.008 0.047,-0.004 0.039,-0.039 0.067,-0.016 0.074,-0.007 0.082,-0.004 0.094,-0.02 0.101,-0.039 0.117,-0.015 0.133,-0.028 0.164,-0.027 0.164,-0.031 0.129,-0.047 0.149,-0.02 0.195,-0.012 0.195,-0.027 0.192,-0.023 0.199,-0.028 0.238,-0.043 0.215,-0.031 0.156,-0.051 0.168,-0.031 0.188,-0.035 0.183,-0.031 0.2,-0.043 0.171,-0.039 0.192,-0.016 0.234,-0.023 0.235,-0.028 0.222,-0.023 0.223,-0.008 0.269,-0.02 0.196,-0.003 h 0.179 l 0.289,0.003 0.301,-0.011 h 0.262 l 0.234,0.019 0.235,0.028 0.234,0.019 0.215,-0.004 0.211,0.008 0.215,0.008 0.215,0.004 0.21,0.023 0.055,0.039 0.434,-0.047 0.258,-0.015 0.203,-0.024 0.195,-0.027 0.281,-0.031 0.246,-0.02 0.141,-0.011 0.152,-0.024 0.161,-0.016 0.191,-0.011 0.098,-0.008 0.105,-0.004 0.203,-0.02 0.203,-0.007 0.16,-0.004 0.153,-0.02 0.156,-0.008 0.172,0.012 0.141,0.004 0.109,0.008 0.101,0.004 0.114,0.004 0.109,-0.012 0.067,-0.035 0.113,-0.012 0.101,0.027 h 0.004 l 0.051,-0.011 0.051,-0.024 0.055,-0.004 h -0.079 l -0.062,-0.019 0.035,-0.008 0.008,0.02 -0.012,-0.028 h -0.055 l -0.023,0.012 h -0.023 l -0.02,0.012 -0.039,0.007 -0.016,0.008 h 0.016 -0.02 l -0.062,0.02 -0.02,0.004 -0.011,0.004 -0.028,0.019" style="fill:none;stroke:#000000;stroke-width:1.07786;stroke-linecap:round;stroke-linejoin:round;stroke-miterlimit:10;stroke-dasharray:none;stroke-opacity:1" id="path222" />
         </g>
         <g id="g224" transform="scale(1,-1)" style="stroke-width:0.824246">
            <path d="m 259.863,-592.938 c -2.71782,-30.57528 -6.10282,-61.12198 -9.48739,-91.64242 -2.11492,-18.12514 -4.11913,-36.27012 -6.72111,-54.3322 1.17669,0.52251 -0.6795,-1.10882 -0.1775,-0.82938" style="fill:none;stroke:#000000;stroke-width:1.07786;stroke-linecap:round;stroke-linejoin:round;stroke-miterlimit:10;stroke-dasharray:none;stroke-opacity:1" id="path226" />
         </g>
         <g id="g228" transform="scale(1,-1)" style="stroke-width:0.824246">
            <path d="m 242.062,-681.328 c 1.219,-0.063 2.106,-0.192 6.481,-0.395" style="fill:none;stroke:#000000;stroke-width:1.07786;stroke-linecap:round;stroke-linejoin:round;stroke-miterlimit:10;stroke-dasharray:none;stroke-opacity:1" id="path230" />
         </g>
         <g id="g232" transform="scale(1,-1)" style="stroke-width:0.824246">
            <path d="m 248.215,-682.273 0.008,0.003 h 0.05 l 0.047,-0.019 0.094,-0.031 0.035,-0.063 -0.004,-0.051 0.008,-0.046 0.004,-0.036 0.004,-0.054 v -0.051 l -0.063,-0.035 c -0.257,-5.953 -5.355,-39.602 -6.437,-57.106 l -0.004,-0.113 v -0.121 l -0.004,-0.117 -0.019,-0.071 0.007,-0.086 0.02,-0.097 -0.027,-0.086 -0.02,-0.07 -0.008,-0.067 0.008,-0.086 0.004,-0.07 -0.012,-0.082 0.012,-0.067 0.02,-0.054 0.007,-0.067 -0.011,-0.043 0.015,-0.043 0.012,-0.082 0.023,-0.035 0.004,0.012 0.035,-0.023 0.071,-0.024 h -0.004 l -0.024,-0.008 -0.011,0.035 -0.004,0.016 -0.078,-0.008 -0.051,0.031 0.062,0.012 0.016,0.02 0.012,0.019" style="fill:none;stroke:#000000;stroke-width:1.07786;stroke-linecap:round;stroke-linejoin:round;stroke-miterlimit:10;stroke-dasharray:none;stroke-opacity:1" id="path234" />
         </g>
         <g id="g236" transform="scale(1,-1)" style="stroke-width:0.824246">
            <path d="m 242.043,-681.812 -6.395,-58.868" style="fill:none;stroke:#000000;stroke-width:1.07786;stroke-linecap:round;stroke-linejoin:round;stroke-miterlimit:10;stroke-dasharray:none;stroke-opacity:1" id="path238" sodipodi:nodetypes="cc" />
         </g>
         <g id="g240" transform="scale(1,-1)" style="stroke-width:0.824246">
            <path d="m 240.746,-740.582 -5.109,-0.172 5.261,0.219 -0.007,0.027 h 0.675" style="fill:none;stroke:#000000;stroke-width:1.07786;stroke-linecap:round;stroke-linejoin:round;stroke-miterlimit:10;stroke-dasharray:none;stroke-opacity:1" id="path242" />
         </g>
         <g id="g244" transform="scale(1,-1)" style="stroke-width:0.824246">
            <path d="m 82.305,-521.938 c 4.497213,-48.52838 4.762473,-97.42727 5.41975,-146.04488 0.171569,-0.94691 -0.423201,-0.86413 -0.16275,-1.48212" style="fill:none;stroke:#000000;stroke-width:1.07786;stroke-linecap:round;stroke-linejoin:round;stroke-miterlimit:10;stroke-dasharray:none;stroke-opacity:1" id="path246" />
         </g>
         <g id="g248" transform="scale(1,-1)" style="stroke-width:0.824246">
            <path d="m 82.062,-522.363 c -0.04665,0.24716 -0.398342,0.21961 -0.132,0.547 -0.05477,-0.0222 0.05674,-0.28499 -0.352,-0.036 -1.648612,0.89238 -4.921101,0.49162 -7.034125,0.13125 -2.389832,-0.57773 -5.342006,-1.18049 -7.438875,-1.81025 -0.478788,-0.44121 -1.151,-0.51199 -1.152,-0.789 -1.250112,-3.30786 -0.606604,-7.43014 -0.867194,-10.63699 1.86e-4,-37.06989 2.215398,-74.09457 3.852702,-111.11735 0.369568,-7.98969 0.795327,-16.0462 1.034492,-23.99966 0.120712,-0.0508 0.06472,0.0677 -0.02,-0.008 0.10561,0.006 0.04215,-0.0487 0.094,0.004 -0.04864,-0.002 0.03295,-0.004 0.012,-0.063 0.597418,-0.65579 0.909708,-0.76479 1.906,-1.171 5.063653,-0.10812 10.615671,-0.49971 15.25325,1.71413 l -0.12825,0.0589 -0.035,0.023" style="fill:none;stroke:#000000;stroke-width:1.07786;stroke-linecap:round;stroke-linejoin:round;stroke-miterlimit:10;stroke-dasharray:none;stroke-opacity:1" id="path250" sodipodi:nodetypes="cccccccccccccccc" />
         </g>
         <g id="g252" transform="scale(1,-1)" style="stroke-width:0.824246">
            <path d="m 159.879,-537.16 0.051,-53.23744" style="fill:none;stroke:#000000;stroke-width:1.07786;stroke-linecap:round;stroke-linejoin:round;stroke-miterlimit:10;stroke-dasharray:none;stroke-opacity:1" id="path254" sodipodi:nodetypes="cc" />
         </g>
         <g id="g256" transform="scale(1,-1)" style="stroke-width:0.824246">
            <path d="m 88.43,-548.922 c 4.244171,-31.27681 3.547201,-62.96301 6.944315,-94.30838" style="fill:none;stroke:#000000;stroke-width:1.07786;stroke-linecap:round;stroke-linejoin:round;stroke-miterlimit:10;stroke-dasharray:none;stroke-opacity:1" id="path258" sodipodi:nodetypes="cc" />
         </g>
         <g id="g260" transform="scale(1,-1)" style="stroke-width:0.824246">
            <path d="m 87.887,-548.395 0.008,0.004 h 0.031 l 0.008,-0.047 0.074,-0.007 0.023,0.078 0.016,0.058 0.015,0.012 -0.21,0.016 -0.075,-0.016 0.098,0.059 0.016,0.011 0.035,-0.023 0.027,0.008 0.016,0.008 h 0.062 l 0.047,0.004 0.024,-0.004 0.039,0.015 0.031,0.016 0.039,0.027 0.105,0.02 0.086,-0.008 0.004,0.016 0.024,0.023 0.019,0.016 0.024,0.007 -0.032,0.016 -0.078,0.016 0.082,0.008 0.11,0.015 -0.004,0.027 0.031,0.012 0.039,0.008 0.234,0.008 0.172,0.051 -0.066,-0.012 0.066,0.008 -0.007,0.066 0.05,0.039 0.098,0.031 0.078,0.012 0.027,-0.004 0.032,0.016 0.05,0.012 0.075,0.023 0.066,0.008 0.176,0.012 0.152,0.027 0.016,0.023 h 0.074 l 0.094,0.012 0.082,0.004 0.039,0.008 0.105,0.008 0.129,0.003 0.117,0.04 0.122,0.023 0.128,0.008 0.125,0.023 c 23.668,5.598 46.672,7.149 69.024,10.391" style="fill:none;stroke:#000000;stroke-width:1.07786;stroke-linecap:round;stroke-linejoin:round;stroke-miterlimit:10;stroke-dasharray:none;stroke-opacity:1" id="path262" />
         </g>
         <g id="g264" transform="scale(1,-1)" style="stroke-width:0.824246">
            <path d="m 95.374315,-643.23038 59.755675,11.71607" style="fill:none;stroke:#000000;stroke-width:1.07786;stroke-linecap:round;stroke-linejoin:round;stroke-miterlimit:10;stroke-dasharray:none;stroke-opacity:1" id="path266" sodipodi:nodetypes="cc" />
         </g>
         <g id="g268" transform="scale(1,-1)" style="stroke-width:0.824246">
            <path d="m 151.332,-745.445 c 0.0906,-1.21757 0.11165,-2.6107 0.98674,-3.52021 0.49397,-1.16052 1.68023,-1.75265 2.53134,-2.61724 0.72337,-0.6281 1.38272,-1.31613 2.19429,-1.8419 0.79842,-0.34411 1.09667,-1.36627 1.78111,-1.70245 0.13343,-0.31944 1.16567,0.52729 0.67207,1.22144 -0.19381,0.26891 0.51794,0.96382 0.51037,0.88283" style="fill:none;stroke:#000000;stroke-width:1.07786;stroke-linecap:round;stroke-linejoin:round;stroke-miterlimit:10;stroke-dasharray:none;stroke-opacity:1" id="path270" />
         </g>
         <g id="g272" transform="scale(1,-1)" style="stroke-width:0.824246">
            <path d="m 54.608099,-665.61312 c 2.875,-3.387 6.528901,-7.46488 9.356901,-10.41388" style="fill:none;stroke:#000000;stroke-width:1.07786;stroke-linecap:round;stroke-linejoin:round;stroke-miterlimit:10;stroke-dasharray:none;stroke-opacity:1" id="path274" sodipodi:nodetypes="cc" />
         </g>
         <g id="g276" transform="scale(1,-1)" style="stroke-width:0.824246">
            <path d="m 66.344,-725.32 85.03261,24.55923" style="fill:none;stroke:#000000;stroke-width:2.15572;stroke-linecap:round;stroke-linejoin:round;stroke-miterlimit:10;stroke-dasharray:none;stroke-opacity:1" id="path278" sodipodi:nodetypes="cc" />
         </g>
      </g>
   </g>
</svg>
