<?xml version="1.0" encoding="UTF-8" standalone="no"?>
<!-- Created by Ashley Blewer - This work is licensed under a Creative Commons Attribution 4.0 International License -->

<svg
   width="544"
   height="480"
   viewBox="0 0 143.93334 127"
   version="1.1"
   id="svg2490"
   inkscape:version="1.1.2 (08b2f3d93c, 2022-04-05)"
   sodipodi:docname="1982-betacam-5.svg"
   xmlns:inkscape="http://www.inkscape.org/namespaces/inkscape"
   xmlns:sodipodi="http://sodipodi.sourceforge.net/DTD/sodipodi-0.dtd"
   xmlns="http://www.w3.org/2000/svg"
   xmlns:svg="http://www.w3.org/2000/svg">
  <sodipodi:namedview
     id="namedview2492"
     pagecolor="#ffffff"
     bordercolor="#666666"
     borderopacity="1.0"
     inkscape:pageshadow="2"
     inkscape:pageopacity="0.0"
     inkscape:pagecheckerboard="0"
     inkscape:document-units="mm"
     showgrid="false"
     units="px"
     inkscape:zoom="0.90583674"
     inkscape:cx="272.67607"
     inkscape:cy="177.18425"
     inkscape:window-width="1848"
     inkscape:window-height="1136"
     inkscape:window-x="72"
     inkscape:window-y="27"
     inkscape:window-maximized="1"
     inkscape:current-layer="layer1" />
  <defs
     id="defs2487" />
  <g
     inkscape:label="Layer 1"
     inkscape:groupmode="layer"
     id="layer1">
    <g
       id="g880"
       transform="matrix(0.703155,0,0,-0.703155,-627.46447,-408.71713)">
      <path
         d="m 909.039,-726.707 c -0.47264,0.94224 -1.12839,1.75111 -1.84577,2.50004 -0.76463,1.24714 -1.58987,2.45615 -2.4356,3.64828 -0.16582,0.59065 -2.12877,2.7229 -2.26963,3.26568"
         style="fill:none;stroke:#000000;stroke-width:2.61538;stroke-linecap:round;stroke-linejoin:round;stroke-miterlimit:10;stroke-dasharray:none;stroke-opacity:1"
         id="path882"
         sodipodi:nodetypes="cccc" />
    </g>
    <g
       id="g884"
       transform="matrix(0.703155,0,0,-0.703155,-627.46447,-408.71713)">
      <path
         d="m 902.488,-717.293 c 0.0319,5.80194 -0.84097,11.57842 -1.0564,17.37355 -0.51766,10.77255 -0.32867,21.54314 0.009,32.31445 -0.49248,8.87565 -0.96214,17.82847 -0.414,26.617 -1.54881,4.1314 2.88356,3.14661 0.65158,7.45619 -1.23446,5.94066 -1.34501,11.90269 -0.93574,17.93863 0.36767,2.23321 -0.47613,8.3158 2.77716,8.22618"
         style="fill:none;stroke:#000000;stroke-width:2.61538;stroke-linecap:round;stroke-linejoin:round;stroke-miterlimit:10;stroke-dasharray:none;stroke-opacity:1"
         id="path886" />
    </g>
    <g
       id="g888"
       transform="matrix(0.703155,0,0,-0.703155,-627.46447,-408.71713)">
      <path
         d="m 903.938,-608.059 v -0.07 l 0.015,-0.074 0.008,-0.086 -0.047,-0.07 -0.016,-0.059 0.036,-0.027 0.011,-0.039 0.008,-0.028 h 0.008 l 0.191,-0.004 0.118,-0.035 -0.106,0.004 -0.012,-0.023 -0.015,-0.004 -0.012,-0.012 0.023,-0.039 0.043,-0.039 0.032,-0.035 -0.016,-0.024 0.012,-0.027 0.011,-0.031 0.004,-0.043 -0.027,-0.051 0.004,-0.047 0.047,-0.039 0.035,-0.055 0.035,-0.058 0.059,-0.035 0.039,-0.047 0.07,-0.067 0.051,-0.062 0.031,-0.039 0.059,-0.063 0.062,-0.074 0.063,-0.082 -0.012,-0.078 0.035,-0.07 0.129,-0.079 0.09,-0.093 0.098,-0.09 0.101,-0.078 0.086,-0.071 0.074,-0.078 0.082,-0.078 0.09,-0.078 0.086,-0.082 0.082,-0.078 0.098,-0.082 0.078,-0.067 0.062,-0.07 0.059,-0.09 0.07,-0.078 0.071,-0.097 0.027,-0.086 0.082,-0.082 0.074,-0.098 0.059,-0.106 0.086,-0.089 0.074,-0.086 0.156,-0.164 0.008,-0.094 0.051,-0.086 0.121,-0.094 0.113,-0.105 0.086,-0.114 0.067,-0.086 0.156,-0.07 0.121,-0.086 0.031,-0.078 0.117,-0.117 0.059,-0.07 0.023,-0.063 -0.004,-0.031 0.059,-0.051 0.102,-0.047 0.062,-0.043 0.039,-0.039 0.043,-0.023 0.031,-0.02 0.043,-0.015 0.032,-0.016 0.007,-0.012 h 0.016 l 0.027,-0.008 -0.007,0.004 0.039,-0.011 0.031,-0.008 -0.012,0.019 0.008,-0.027"
         style="fill:none;stroke:#000000;stroke-width:2.61538;stroke-linecap:round;stroke-linejoin:round;stroke-miterlimit:10;stroke-dasharray:none;stroke-opacity:1"
         id="path890" />
    </g>
    <g
       id="g892"
       transform="matrix(0.703155,0,0,-0.703155,-627.46447,-408.71713)">
      <path
         d="m 907.945,-613.598 2.602,-113.82"
         style="fill:none;stroke:#000000;stroke-width:2.61538;stroke-linecap:round;stroke-linejoin:round;stroke-miterlimit:10;stroke-dasharray:none;stroke-opacity:1"
         id="path894"
         sodipodi:nodetypes="cc" />
    </g>
    <g
       id="g896"
       transform="matrix(0.703155,0,0,-0.703155,-627.46447,-408.71713)">
      <path
         d="m 905.414,-606.824 c 30.93053,3.14908 62.76125,4.60267 94.08945,6.26394 26.80665,1.18027 53.63875,2.62266 80.44305,3.33888 3.4909,-0.94638 16.2134,-9.73122 6.6701,-4.31242 -1.9802,2.72424 -12.5781,2.33456 -5.6856,-0.1344"
         style="fill:none;stroke:#000000;stroke-width:2.61538;stroke-linecap:round;stroke-linejoin:round;stroke-miterlimit:10;stroke-dasharray:none;stroke-opacity:1"
         id="path898" />
    </g>
    <g
       id="g900"
       transform="matrix(0.703155,0,0,-0.703155,-627.46447,-408.71713)">
      <path
         d="m 908.941,-611.848 h 0.121 l 0.032,0.008 h 0.086 l 0.074,0.008 0.074,0.02 0.074,0.007 0.043,0.035 0.059,0.008 0.082,0.004 0.086,0.024 0.082,0.007 0.074,0.004 0.094,0.02 0.101,0.023 0.071,0.032 0.078,0.023 0.09,0.012 0.09,0.027 0.015,0.008 0.016,0.023 0.101,0.02 0.137,0.019 0.102,0.008 0.082,0.035 0.101,0.028 c 22.778,0.613 169.59,9.25 179.34,8.238"
         style="fill:none;stroke:#000000;stroke-width:2.61538;stroke-linecap:round;stroke-linejoin:round;stroke-miterlimit:10;stroke-dasharray:none;stroke-opacity:1"
         id="path902" />
    </g>
    <g
       id="g904"
       transform="matrix(0.703155,0,0,-0.703155,-627.46447,-408.71713)">
      <path
         d="m 1090.742,-603.66 c -0.2546,-3.12081 0.1799,-6.20135 0.1421,-9.30503 0.1112,-1.92824 -0.4027,-5.49225 -2.4714,-2.5396 -4.493,0.84573 -2.4833,-6.23078 -2.1132,-8.9976 1.1541,-0.45215 2.4337,2.47622 2.3147,-0.49443 -0.5014,-7.65612 -1.8666,-15.25457 -2.7372,-22.88481 -2.011,-15.71948 -4.0743,-31.47992 -5.208,-47.27053 -2.5149,-1.36046 0.6071,-5.34833 -0.058,-7.81886 -0.1459,-1.43358 -1.012,-4.73663 -0.7447,-4.92714"
         style="fill:none;stroke:#000000;stroke-width:2.61538;stroke-linecap:round;stroke-linejoin:round;stroke-miterlimit:10;stroke-dasharray:none;stroke-opacity:1"
         id="path906" />
    </g>
    <g
       id="g908"
       transform="matrix(0.703155,0,0,-0.703155,-627.46447,-408.71713)">
      <path
         d="m 911.688,-728.234 h 0.003 l 0.024,-0.012 v 0.016 l 0.031,0.007 0.059,0.016 0.039,0.016 0.062,0.023 0.051,-0.004 h 0.313 l -0.051,0.012 0.035,0.008 0.047,0.004 0.035,-0.004 0.062,-0.008 0.063,0.031 0.031,0.004 0.043,0.004 0.043,0.008 0.035,0.019 0.059,0.02 -0.043,0.008 0.035,0.007 0.141,-0.007 h 0.093 l 0.079,0.027 0.07,0.023 h 0.137 l 0.168,0.004 0.058,0.004 c 12.981,0.856 143.051,18.203 166.91,20.207"
         style="fill:none;stroke:#000000;stroke-width:2.61538;stroke-linecap:round;stroke-linejoin:round;stroke-miterlimit:10;stroke-dasharray:none;stroke-opacity:1"
         id="path910" />
    </g>
    <g
       id="g912"
       transform="matrix(0.703155,0,0,-0.703155,-627.46447,-408.71713)">
      <path
         d="m 936.648,-611.805 h 0.008 l 0.035,-0.011 0.067,-0.012 0.07,-0.016 0.078,-0.023 0.278,-0.016 0.109,-0.047 -0.105,-0.015 0.011,-0.032 0.024,-0.003 0.043,-0.016 0.011,-0.024 0.016,-0.027 0.059,-0.039 0.074,-0.016 0.078,-0.027 0.062,-0.027 0.055,-0.028 0.094,-0.027 0.09,-0.012 0.054,-0.023 0.082,-0.02 0.094,-0.023 0.09,-0.039 0.074,-0.031 0.102,-0.039 0.137,-0.047 0.124,-0.039 0.235,-0.102 0.141,-0.039 0.156,-0.051 0.152,-0.07 0.149,-0.063 0.144,-0.074 0.145,-0.078 0.156,-0.07 -0.024,-0.074 0.098,-0.09 c 16.231,-9.629 35.797,-18.231 49.891,-24.489"
         style="fill:none;stroke:#000000;stroke-width:2.61538;stroke-linecap:round;stroke-linejoin:round;stroke-miterlimit:10;stroke-dasharray:none;stroke-opacity:1"
         id="path914" />
    </g>
    <g
       id="g916"
       transform="matrix(0.703155,0,0,-0.703155,-627.46447,-408.71713)">
      <path
         d="m 989.883,-637.711 c 10.929,0.574 30.492,1.879 31.086,1.91"
         style="fill:none;stroke:#000000;stroke-width:2.61538;stroke-linecap:round;stroke-linejoin:round;stroke-miterlimit:10;stroke-dasharray:none;stroke-opacity:1"
         id="path918" />
    </g>
    <g
       id="g920"
       transform="matrix(0.703155,0,0,-0.703155,-627.46447,-408.71713)">
      <path
         d="m 1020.805,-635.598 c 18.4852,11.97565 50.8942,32.06851 50.8942,32.06851"
         style="fill:none;stroke:#000000;stroke-width:2.61538;stroke-linecap:round;stroke-linejoin:round;stroke-miterlimit:10;stroke-dasharray:none;stroke-opacity:1"
         id="path922"
         sodipodi:nodetypes="cc" />
    </g>
    <g
       id="g924"
       transform="matrix(0.703155,0,0,-0.703155,-627.46447,-408.71713)">
      <path
         d="m 975.645,-683.238 c 1.78197,2.74229 1.23845,6.17557 2.17029,9.18735 0.22569,4.79406 -2.89948,8.89992 -5.98164,12.24592 -3.65473,3.47445 -8.63901,5.42965 -13.6178,5.8861 -5.51611,0.19816 -11.10368,-1.60913 -15.34616,-5.16881 -3.01836,-2.37965 -5.82192,-5.29893 -6.92125,-9.07888 -1.3828,-4.27223 -1.53405,-8.87705 -1.04286,-13.30844 0.66421,-3.12117 1.94474,-6.15386 3.75604,-8.77015 3.69536,-3.5993 8.82047,-5.6675 13.94378,-5.97936 6.73053,-0.26986 13.05037,2.71158 18.69689,6.06851 2.80754,1.73182 4.80753,4.49737 5.86631,7.59637 1.69387,4.06945 2.86495,8.77224 1.18643,13.04739"
         style="fill:none;stroke:#000000;stroke-width:2.61538;stroke-linecap:round;stroke-linejoin:round;stroke-miterlimit:10;stroke-dasharray:none;stroke-opacity:1"
         id="path926"
         sodipodi:nodetypes="ccccccccccccccccccccccc" />
    </g>
    <g
       id="g928"
       transform="matrix(0.703155,0,0,-0.703155,-627.46447,-408.71713)">
      <path
         d="m 966.676,-662.926 5.242,-3.70451 c -5.242,3.70451 -11.3081,7.26977 -17.73858,5.78512 -5.51257,-0.92455 -10.55532,-4.46389 -13.06643,-9.4913 -2.05224,-3.70684 -1.99395,-8.15242 -1.51271,-12.24074 1.13468,-5.37673 6.06,-9.09271 11.09071,-10.61478 3.98076,-0.92839 8.22686,-0.51227 12.10636,0.70373 4.04023,1.28935 7.541,3.90245 10.45994,6.92077 1.77659,1.88421 2.81317,4.38503 2.87626,6.97217 -0.0254,3.36668 -1.5859,9.71611 -4.21555,11.96503 -1.93989,2.24474 -5.242,3.70451 -5.242,3.70451"
         style="fill:none;stroke:#000000;stroke-width:2.61538;stroke-linecap:round;stroke-linejoin:round;stroke-miterlimit:10;stroke-dasharray:none;stroke-opacity:1"
         id="path930"
         sodipodi:nodetypes="ccccccccccc" />
    </g>
    <g
       id="g932"
       transform="matrix(0.703155,0,0,-0.703155,-627.46447,-408.71713)">
      <path
         d="m 963.988,-670.633 c -1.38688,-0.43215 1.30947,0.22059 1.87082,-0.5919 0.24246,-0.94656 1.45089,-1.24697 1.53439,-2.11052 0.36818,-0.2127 -0.25458,-0.44047 0.28281,-1.04358 -0.33561,-0.25171 -0.98599,-0.77191 -1.641,-0.785 -1.00971,0.15582 -2.19148,-0.55329 -1.40555,-1.13501 0.31052,-1.02279 1.2931,-2.08203 1.75286,-2.76994 0.67409,-0.7852 0.94699,-1.28065 0.62435,-2.2482 -0.191,-0.34705 -0.9494,-1.76858 -1.59666,-2.22985 -0.56449,-0.80793 -1.36781,-1.24609 -2.29224,-1.05699 -0.4631,0.69006 -1.19881,1.50484 -2.03976,1.72099 -1.22252,0.26416 -2.08041,-0.47096 -2.86741,-1.35003 -0.81183,-0.45732 -1.02987,-1.38616 -1.07846,-1.76577 0.0886,-0.73259 0.2253,-0.86427 -0.27713,-1.2512 -0.60151,-0.49208 -2.08684,-0.38633 -2.88669,0.1333 -0.57377,0.017 -1.0377,0.82851 -0.74512,1.46896 -0.0303,0.80195 -0.0638,1.43292 -1.21507,1.73716 -0.78198,0.88702 -1.65064,1.26612 -2.61882,1.23483 -0.48819,0.19353 -0.98905,-0.78986 -1.00136,-0.72209 -0.88914,-0.37293 -0.15623,1.62839 -0.66894,2.06582 0.24709,0.70572 -0.72187,1.60705 -0.0751,2.02993 -0.48249,1.35281 1.4309,1.25209 2.10728,1.90029 0.77714,0.23938 0.99107,0.58195 1.25282,1.16778 -0.32124,0.30497 -0.81656,1.02703 -1.387,1.593 -0.10253,0.0525 -0.62721,0.34193 -0.28117,0.21221 0.74441,1.07509 0.72974,1.50403 1.68863,2.28297 0.0259,0.1895 0.68837,0.97291 0.92127,1.2027 0.2242,-0.18508 0.21137,0.15753 0.57338,-0.26701 0.3515,-0.65677 1.5604,-0.90735 2.39614,-0.57304 0.76263,0.53118 2.25528,0.65774 1.75272,1.65813 0.76225,1.16134 2.18518,1.54848 3.64646,1.36431 0.0492,-0.13244 1.20777,-0.21611 1.52154,-0.71631 0.6463,-0.56239 1.44954,-0.26518 1.5,-0.62494"
         style="fill:none;stroke:#000000;stroke-width:2.61538;stroke-linecap:round;stroke-linejoin:round;stroke-miterlimit:10;stroke-dasharray:none;stroke-opacity:1"
         id="path934" />
    </g>
    <g
       id="g936"
       transform="matrix(0.703155,0,0,-0.703155,-627.46447,-408.71713)">
      <path
         d="m 945.887,-668.605 c 1.5802,-0.19478 2.56431,2.68493 4.437,2.589"
         style="fill:none;stroke:#000000;stroke-width:2.61538;stroke-linecap:round;stroke-linejoin:round;stroke-miterlimit:10;stroke-dasharray:none;stroke-opacity:1"
         id="path938" />
    </g>
    <g
       id="g940"
       transform="matrix(0.703155,0,0,-0.703155,-627.46447,-408.71713)">
      <path
         d="m 943.734,-674.035 c 0.54326,0.1375 -0.17145,-1.4357 -0.48,-1.809"
         style="fill:none;stroke:#000000;stroke-width:2.61538;stroke-linecap:round;stroke-linejoin:round;stroke-miterlimit:10;stroke-dasharray:none;stroke-opacity:1"
         id="path942" />
    </g>
    <g
       id="g944"
       transform="matrix(0.703155,0,0,-0.703155,-627.46447,-408.71713)">
      <path
         d="m 952.109,-677.48 c -0.47988,-0.30605 1.57078,-0.85938 2.45074,-0.53521 1.40357,0.0707 2.82814,0.57725 3.75904,1.7182 0.93953,1.00458 0.17179,3.01895 0.23169,3.58795 -0.25845,0.10089 0.60597,-1.63993 -0.003,-2.36599 -0.61585,-1.48918 -2.47139,-1.67964 -3.78501,-2.29955 -0.9931,-0.94226 -3.14626,0.75985 -3.13364,0.71065"
         style="fill:none;stroke:#000000;stroke-width:2.61538;stroke-linecap:round;stroke-linejoin:round;stroke-miterlimit:10;stroke-dasharray:none;stroke-opacity:1"
         id="path946" />
    </g>
    <g
       id="g948"
       transform="matrix(0.703155,0,0,-0.703155,-627.46447,-408.71713)">
      <path
         d="m 1036.559,-654.824 c 1.8577,0.84908 4.0222,0.85083 6.0435,1.21046 2.874,0.34482 5.8262,-0.33585 8.3435,-1.72246 2.0815,-0.69694 3.2028,-2.59615 4.461,-4.094 0.9965,-2.17077 1.0844,-4.49541 1.9625,-6.68095 0.05,-2.17726 -0.3326,-4.0917 -0.8221,-6.24075 -0.898,-2.26999 -2.1354,-4.39605 -3.6664,-6.2963 -1.4333,-1.72027 -2.7063,-3.59102 -4.817,-4.524 -1.872,-1.27952 -4.1315,-2.25101 -6.4626,-2.06826 -3.2549,0.26623 -6.4777,1.10894 -9.4424,2.50626 -1.4714,1.28562 -2.6898,2.90543 -3.5274,4.74304 -0.8417,1.71041 -1.4383,3.83036 -1.4069,5.53948 -0.215,1.97949 -0.896,3.71892 -0.8523,5.62348 0.8835,2.1753 1.4744,3.83573 2.9311,5.66712 0.8652,1.62016 2.3033,3.19914 4.0038,4.17649 1.9486,0.93931 3.6019,2.47106 5.4881,3.54639"
         style="fill:none;stroke:#000000;stroke-width:2.61538;stroke-linecap:round;stroke-linejoin:round;stroke-miterlimit:10;stroke-dasharray:none;stroke-opacity:1"
         id="path950" />
    </g>
    <g
       id="g952"
       transform="matrix(0.703155,0,0,-0.703155,-627.46447,-408.71713)">
      <path
         d="m 1037.926,-664.129 c 0.4546,0.95314 -2.1782,-0.53448 -2.1602,-1.3957 -1.5167,-1.81938 2.0569,-2.62679 0.3093,-4.33418 -1.1359,-1.10508 -3.328,-2.01422 -1.7161,-3.80971 0.7765,-0.90693 2.2858,-0.72534 1.8015,-2.33411 -0.8271,-2.36342 3.1023,-2.80418 4.2005,-1.39038 1.1272,0.88822 2.2464,0.48569 2.8982,-0.50636 1.7728,-0.75755 1.7743,2.97462 3.9233,2.06413 2.3795,0.56638 1.0019,4.32198 3.1795,5.31253 1.1591,2.16252 -3.1585,2.12234 -1.4415,4.13464 0.1262,1.81535 -1.4274,4.20948 -3.5123,3.81156 -1.7495,-0.57575 -3.4977,0.72582 -5.2562,-0.27494 -0.9817,-0.41266 -2.0262,-0.50591 -3.0584,-0.67545"
         style="fill:none;stroke:#000000;stroke-width:2.61538;stroke-linecap:round;stroke-linejoin:round;stroke-miterlimit:10;stroke-dasharray:none;stroke-opacity:1"
         id="path954" />
    </g>
    <g
       id="g956"
       transform="matrix(0.703155,0,0,-0.703155,-627.46447,-408.71713)">
      <path
         d="m 1036.738,-672.008 c 2.0583,0.44419 3.9425,1.64003 5.4226,3.11162 1.7629,1.42236 1.3831,3.44809 1.3985,5.39774 0.013,0.2498 -0.1192,0.50219 -0.3382,0.62764"
         style="fill:none;stroke:#000000;stroke-width:2.61538;stroke-linecap:round;stroke-linejoin:round;stroke-miterlimit:10;stroke-dasharray:none;stroke-opacity:1"
         id="path958" />
    </g>
    <g
       id="g960"
       transform="matrix(0.703155,0,0,-0.703155,-627.46447,-408.71713)">
      <path
         d="m 1034.086,-660.957 c 1.4299,0.38784 2.7172,1.22851 4.1492,1.65728 0.3111,0.11365 0.6233,0.2239 0.9368,0.33072"
         style="fill:none;stroke:#000000;stroke-width:2.61538;stroke-linecap:round;stroke-linejoin:round;stroke-miterlimit:10;stroke-dasharray:none;stroke-opacity:1"
         id="path962" />
    </g>
    <g
       id="g964"
       transform="matrix(0.703155,0,0,-0.703155,-627.46447,-408.71713)">
      <path
         d="m 1046.129,-658.5 c 1.3283,0.52761 2.5559,-0.39445 3.7093,-0.93691 0.503,-0.17694 0.9504,-0.46729 1.2617,-0.82109"
         style="fill:none;stroke:#000000;stroke-width:2.61538;stroke-linecap:round;stroke-linejoin:round;stroke-miterlimit:10;stroke-dasharray:none;stroke-opacity:1"
         id="path966" />
    </g>
    <g
       id="g968"
       transform="matrix(0.703155,0,0,-0.703155,-627.46447,-408.71713)">
      <path
         d="m 1053.059,-663.918 c 0.3664,-0.80579 0.5567,-1.76919 0.8093,-2.578"
         style="fill:none;stroke:#000000;stroke-width:2.61538;stroke-linecap:round;stroke-linejoin:round;stroke-miterlimit:10;stroke-dasharray:none;stroke-opacity:1"
         id="path970" />
    </g>
    <g
       id="g972"
       transform="matrix(0.703155,0,0,-0.703155,-627.46447,-408.71713)">
      <path
         d="m 1032.637,-666.301 c -0.3646,-0.62487 -0.4179,-1.28281 -0.743,-1.906"
         style="fill:none;stroke:#000000;stroke-width:2.61538;stroke-linecap:round;stroke-linejoin:round;stroke-miterlimit:10;stroke-dasharray:none;stroke-opacity:1"
         id="path974" />
    </g>
    <g
       id="g976"
       transform="matrix(0.703155,0,0,-0.703155,-627.46447,-408.71713)">
      <path
         d="m 1063.441,-618.254 v -0.004 h -0.023 l 0.012,-0.023 v -0.035 l -0.071,-0.032 -0.078,-0.05 -0.078,-0.047 -0.07,-0.008 -0.231,-0.012 -0.148,-0.004 0.062,-0.023 -0.05,-0.008 -0.059,-0.004 -0.051,-0.016 -0.019,-0.003 -0.028,-0.016 -0.062,-0.02 -0.07,-0.039 -0.067,-0.027 -0.058,-0.027 -0.067,-0.028 -0.109,-0.011 -0.082,-0.047 -0.024,-0.047 -0.07,-0.031 -0.066,-0.036 -0.055,-0.027 -0.043,-0.027 -0.066,-0.028 -0.082,-0.011 -0.051,-0.024 -0.063,-0.019 -0.133,-0.067 -0.082,-0.011 -0.066,-0.024 -0.059,-0.004 -0.054,0.012 -0.086,0.016 0.019,-0.008 h -0.015 l -0.082,0.023 -0.047,0.012 -0.024,0.012 -0.015,0.027 -0.075,0.023 h -0.058 l 0.015,0.008 -0.015,0.031 -0.01,0.051 h 0.01 v 0.012 l 0.055,0.031 -0.02,0.028 -0.02,0.031 -0.027,0.035 -0.01,0.055 -0.066,0.043 0.062,0.035 0.036,0.058 -0.039,0.051 -0.024,0.055 -0.012,0.055 -0.023,0.062 -0.121,0.059 -0.016,0.082 v 0.078 l -0.027,0.078 -0.02,0.078 -0.043,0.09 -0.035,0.09 0.012,0.082 -0.016,0.09 -0.047,0.07 -0.019,0.066 -0.012,0.078 -0.01,0.086 -0.047,0.082 0.016,0.082 v 0.172 l 0.02,0.082 0.039,0.098 0.039,0.086 0.023,0.086 0.02,0.094 0.047,0.089 0.039,0.086 0.05,0.09 0.043,0.086 0.043,0.098 0.055,0.07 0.043,0.082 0.066,0.059 0.079,0.055 0.066,0.05 0.227,0.114 0.085,0.05 0.102,0.055 0.117,0.035 0.117,0.028 0.075,0.039 0.07,0.027 0.117,0.004 0.129,0.012 0.117,0.011 0.114,0.016 0.113,0.012 0.254,0.011 0.199,-0.023 0.078,-0.024 0.082,-0.027 0.086,-0.016 -0.031,-0.011 0.051,-0.031 0.128,-0.055 0.067,-0.074 0.094,-0.047 0.164,-0.133 0.066,-0.07 0.051,-0.063 0.078,-0.074 0.09,-0.07 0.082,-0.055 0.058,-0.07 0.059,-0.079 0.078,-0.078 0.074,-0.093 0.036,-0.121 0.043,-0.126 0.035,-0.105 0.039,-0.086 -0.082,-0.094 -0.055,-0.117 0.07,-0.105 v -0.25 l 0.012,-0.094 0.051,-0.102 v -0.093 l -0.063,-0.078 -0.054,-0.083 -0.059,-0.085 -0.062,-0.106 -0.059,-0.094 -0.051,-0.082 -0.074,-0.086 -0.086,-0.097 -0.078,-0.071 -0.082,-0.07 -0.106,-0.07 -0.05,-0.082 -0.09,-0.055 -0.117,-0.047 -0.09,-0.055 -0.082,-0.039 -0.117,-0.039 -0.102,-0.047 -0.106,-0.039 -0.117,-0.039 -0.121,-0.031 -0.097,-0.008 h -0.09 l -0.125,-0.019 0.015,-0.024 -0.074,-0.004 -0.199,-0.007 -0.152,0.003 -0.133,0.004 -0.133,0.008 -0.207,0.024 -0.172,0.015 -0.062,0.008 -0.098,0.012 -0.094,0.019 -0.094,0.024 -0.086,0.015 -0.043,0.024 -0.062,0.027 -0.059,0.043 -0.082,0.051 -0.074,0.039 -0.039,0.039 -0.062,0.051 v 0.051 l -0.047,0.043 -0.063,0.035 -0.035,0.039 -0.043,0.047 -0.039,0.043 -0.121,0.05 -0.07,0.067 0.035,0.027 -0.012,0.035 0.012,0.024 v 0.035 l -0.012,0.051 0.02,0.031 0.031,0.039 -0.012,0.059 0.024,0.054 0.011,0.047 0.024,0.059 0.043,0.066 0.023,0.082 0.031,0.078 0.051,0.082 0.051,0.102 0.043,0.094 0.012,0.105 0.027,0.098 0.055,0.105 0.066,0.114 0.074,0.113 0.082,0.086 0.067,0.09 0.035,0.086 0.082,0.07 0.109,0.086 0.114,0.066 0.109,0.059 0.113,0.051 0.25,0.027 0.199,0.031 0.028,0.02 h 0.101 l 0.102,-0.012 0.086,-0.004 v -0.012 l 0.043,-0.035 0.133,-0.039 0.136,-0.051 0.098,-0.05 0.051,-0.055 0.062,-0.066 0.211,-0.055 0.137,-0.067 -0.09,-0.054 -0.012,-0.074 0.016,-0.059 0.019,-0.059 -0.011,-0.058 0.027,-0.051 0.024,-0.063 v -0.062 l 0.023,-0.086 v -0.078 l 0.027,-0.07 -0.05,-0.071 -0.024,-0.082 0.063,-0.078 0.027,-0.098 0.012,-0.082 0.011,-0.07 0.02,-0.074 0.023,-0.078 v -0.078 l -0.027,-0.063 -0.023,-0.082 -0.028,-0.074 -0.031,-0.067 -0.074,-0.054 -0.063,-0.067 -0.054,-0.058 -0.063,-0.063 -0.078,-0.066 -0.09,-0.059 -0.141,-0.047 -0.117,-0.054 -0.047,-0.039 -0.089,-0.039 -0.098,-0.047 -0.106,-0.039 -0.066,-0.032 -0.062,-0.007 -0.098,-0.016 h -0.121 l -0.113,0.004 -0.098,0.012 -0.102,-0.004 -0.019,0.004 -0.086,0.015 -0.149,-0.011 -0.117,0.066 -0.078,0.043 -0.062,0.027 -0.098,0.047 -0.129,0.047 v 0.039 l 0.02,0.047 -0.012,0.051 -0.02,0.047 -0.031,0.023 0.152,0.043 v 0.043 l -0.093,0.031 -0.012,0.07 -0.023,0.067 -0.012,0.027 -0.043,0.02 0.012,0.023 v 0.039 l 0.015,0.032 0.01,0.027 0.012,0.043 -0.012,0.043 v 0.051 l 0.031,0.062 0.043,0.055 0.035,0.054 0.063,0.051 0.062,0.071 0.012,0.054 0.086,0.051 0.094,0.055 0.019,0.023 0.063,0.016 0.097,0.015 0.094,0.016 0.059,0.004 0.09,-0.004 0.144,-0.008 0.137,-0.011 0.125,-0.012 0.109,-0.012 0.035,-0.023 0.094,-0.036 0.172,-0.039 0.121,-0.046 0.109,-0.04 0.086,-0.058 0.118,-0.051 0.097,-0.031 0.039,-0.051 0.036,-0.039 0.042,-0.035 0.055,-0.035 0.035,-0.035 0.032,-0.043 -0.01,-0.016 -0.028,-0.008 0.012,-0.016 -0.012,-0.027 -0.019,-0.039 0.043,0.008 -0.028,0.023 -0.066,-0.027 -0.031,-0.023 h -0.027 l -0.04,0.015 -0.023,-0.015 0.113,0.003 0.039,-0.031 -0.132,-0.019 -0.04,-0.051 -0.039,-0.035 -0.035,-0.024 -0.097,-0.015 -0.141,-0.051 -0.07,-0.082 -0.035,-0.051 -0.071,-0.051 -0.113,-0.043 -0.137,-0.054 -0.027,-0.047"
         style="fill:none;stroke:#000000;stroke-width:2.61538;stroke-linecap:round;stroke-linejoin:round;stroke-miterlimit:10;stroke-dasharray:none;stroke-opacity:1"
         id="path978" />
    </g>
    <g
       id="g980"
       transform="matrix(0.703155,0,0,-0.703155,-627.46447,-408.71713)">
      <path
         d="m 943.672,-625.832 h 0.012 l 0.019,-0.012 0.039,-0.008 0.039,-0.011 0.051,-0.008 0.055,-0.004 0.004,-0.004 -0.012,-0.023 0.012,-0.008 -0.016,0.027 h -0.039 l 0.055,0.008 h 0.007 l 0.008,0.008 -0.015,0.015 0.015,0.004 0.012,0.02 h -0.047 l -0.031,-0.008 -0.028,-0.004 -0.023,-0.008 -0.059,-0.004 -0.031,-0.027 -0.027,-0.008 -0.043,-0.015 -0.047,-0.012 -0.047,-0.008 -0.133,-0.016 -0.101,-0.05 -0.008,-0.035 -0.055,-0.032 -0.078,-0.019 -0.078,-0.028 -0.086,-0.023 -0.133,-0.027 -0.062,-0.047 -0.028,-0.031 -0.05,-0.028 -0.055,-0.012 -0.07,-0.007 -0.032,-0.02 -0.039,-0.019 -0.089,-0.004 -0.071,-0.02 -0.051,-0.004 h -0.039 l -0.148,0.02 -0.176,0.012 0.004,0.003 v 0.008 l -0.027,0.008 -0.055,0.023 -0.09,0.028 0.02,0.023 -0.086,0.055 -0.188,0.035 -0.14,0.07 -0.149,0.063 -0.113,0.074 -0.137,0.059 -0.101,0.051 -0.071,0.058 -0.093,0.055 -0.102,0.062 -0.105,0.043 -0.106,0.055 -0.144,0.082 -0.129,0.066 -0.055,0.067 -0.086,0.066 -0.094,0.059 -0.105,0.047 -0.102,0.05 -0.054,0.055 -0.04,0.043 -0.066,0.059 -0.066,0.054 -0.039,0.059 -0.012,0.047 -0.055,0.047 -0.07,0.05 0.012,0.036 0.003,0.043 -0.015,0.027 -0.012,0.039 -0.144,0.039 -0.047,0.055 0.09,0.027 0.027,0.051 0.043,0.039 0.031,0.066 0.063,0.067 0.066,0.058 0.024,0.075 0.011,0.066 0.031,0.062 0.059,0.075 0.059,0.09 0.074,0.074 0.051,0.07 0.07,0.078 0.082,0.082 0.07,0.102 0.094,0.086 0.078,0.078 0.024,0.086 0.086,0.09 0.168,0.082 0.152,0.09 0.117,0.085 0.117,0.079 0.281,0.062 0.172,0.106 -0.007,0.054 0.097,0.039 0.082,0.055 0.074,0.023 0.043,0.02 0.055,0.016 0.121,-0.004 0.156,0.004 0.137,-0.024 0.113,-0.051 0.102,-0.043 0.156,-0.023 0.137,-0.027 0.062,-0.043 0.059,-0.047 0.067,-0.043 0.07,-0.047 0.097,-0.059 0.11,-0.062 0.055,-0.07 0.078,-0.118 0.05,-0.074 0.075,-0.113 0.004,-0.102 0.046,-0.093 0.106,-0.09 0.09,-0.129 0.086,-0.121 0.066,-0.102 -0.019,-0.101 0.058,-0.114 0.11,-0.109 0.027,-0.133 0.035,-0.121 0.039,-0.09 0.059,-0.113 0.008,-0.141 -0.012,-0.125 0.039,-0.109 0.008,-0.121 v -0.117 l 0.011,-0.11 -0.093,-0.113 -0.079,-0.117 0.04,-0.106 -0.008,-0.105 -0.024,-0.11 -0.023,-0.082 0.012,-0.089 -0.043,-0.079 -0.047,-0.089 -0.02,-0.094 -0.027,-0.09 -0.047,-0.082 -0.063,-0.078 0.098,-0.086 -0.039,-0.106 -0.207,-0.074 -0.113,-0.097 -0.102,-0.055 -0.113,-0.059 -0.223,-0.05 -0.246,-0.051 -0.062,-0.039 -0.051,-0.039 -0.098,-0.055 -0.109,-0.047 -0.098,-0.027 0.028,-0.016 -0.067,-0.019 -0.199,-0.012 -0.149,0.004 -0.124,0.004 -0.118,0.007 -0.058,0.032 -0.074,0.015 -0.126,0.016 -0.121,0.012 -0.101,0.031 -0.078,0.004 -0.078,0.035 -0.079,0.047 -0.027,0.039 -0.047,0.019 -0.039,0.043 -0.027,0.055 -0.051,0.039 -0.074,0.02 -0.024,0.05 -0.011,0.051 -0.035,0.043 -0.04,0.051 -0.046,0.059 -0.028,0.054 -0.051,0.055 -0.074,0.082 -0.066,0.102 -0.059,0.089 -0.058,0.086 -0.043,0.09 -0.231,0.098 -0.152,0.144 0.09,0.102 -0.035,0.129 -0.016,0.125 -0.027,0.129 0.027,0.156 0.031,0.137 -0.023,0.148 -0.039,0.149 -0.024,0.168 0.008,0.175 0.035,0.161 0.102,0.156 0.066,0.156 -0.015,0.148 0.031,0.145 0.051,0.141 0.07,0.128 0.051,0.133 0.011,0.114 0.09,0.089 0.129,0.075 0.106,0.105 0.113,0.074 0.109,0.059 0.328,0.047 0.239,0.078 -0.063,0.019 0.102,0.016 0.093,0.012 0.075,-0.008 0.093,-0.008 0.086,-0.035 0.106,-0.055 0.156,-0.039 0.145,-0.07 0.136,-0.09 0.137,-0.082 0.164,-0.066 0.137,-0.094 0.219,-0.195 0.132,-0.098 0.102,-0.102 0.09,-0.109 0.117,-0.109 0.109,-0.121 0.09,-0.102 0.102,-0.121 0.117,-0.117 0.148,-0.125 0.071,-0.141 0.051,-0.117 0.074,-0.121 0.043,-0.129 0.062,-0.121 0.043,-0.11 -0.074,-0.101 -0.004,-0.113 0.094,-0.094 0.019,-0.113 0.024,-0.09 v -0.051 l 0.039,-0.07 0.082,-0.086 -0.024,-0.075 -0.054,-0.05 -0.039,-0.043 -0.047,-0.035 -0.051,-0.055 -0.035,-0.059 -0.059,-0.047 -0.078,-0.043 -0.058,-0.027 -0.059,-0.019 -0.051,-0.036 0.028,-0.039 -0.036,-0.027 -0.129,-0.047 -0.113,-0.047 -0.109,-0.047 -0.125,-0.046 -0.141,-0.036 0.074,-0.05 -0.121,-0.028 -0.34,-0.023 -0.242,-0.031 -0.187,-0.024 -0.18,-0.008 -0.187,-0.004 -0.211,-0.011 -0.223,-0.02 -0.168,-0.023 -0.164,-0.02 -0.156,-0.008 -0.16,-0.004 -0.067,0.016 -0.062,0.004 h -0.106 l -0.074,0.027 -0.066,0.008 -0.051,0.02 -0.051,0.027 -0.004,-0.008 0.004,0.008 v 0.004 l 0.008,0.019 0.015,0.008 v 0.02 l -0.011,0.039 0.023,0.031 0.008,0.043 v 0.063 l -0.008,0.082 -0.012,0.089 0.016,0.086 -0.008,0.098 -0.027,0.094 -0.012,0.113"
         style="fill:none;stroke:#000000;stroke-width:2.61538;stroke-linecap:round;stroke-linejoin:round;stroke-miterlimit:10;stroke-dasharray:none;stroke-opacity:1"
         id="path982" />
    </g>
    <g
       id="g1004"
       transform="matrix(0.703155,0,0,-0.703155,-627.46447,-408.71713)">
      <path
         d="m 906.129,-720.211 c 0.57821,16.07691 0.71282,32.15974 -0.21389,48.22969 0.0209,9.85388 -0.074,19.75878 -1.35222,29.52858 1.12298,2.37879 2.84056,-1.55654 3.9921,-2.34142"
         style="fill:none;stroke:#000000;stroke-width:1.30769;stroke-linecap:round;stroke-linejoin:round;stroke-miterlimit:10;stroke-dasharray:none;stroke-opacity:1"
         id="path1006"
         sodipodi:nodetypes="cccc" />
    </g>
    <g
       id="g1008"
       transform="matrix(0.703155,0,0,-0.703155,-627.46447,-408.71713)">
      <path
         d="m 904.547,-632.102 c 0.12354,7.93848 0.89876,15.82479 1.508,23.692"
         style="fill:none;stroke:#000000;stroke-width:1.30769;stroke-linecap:round;stroke-linejoin:round;stroke-miterlimit:10;stroke-dasharray:none;stroke-opacity:1"
         id="path1010"
         sodipodi:nodetypes="cc" />
    </g>
    <g
       id="g1012"
       transform="matrix(0.703155,0,0,-0.703155,-627.46447,-408.71713)">
      <path
         d="m 918.379,-718.273 -0.004,-0.004 -0.023,-0.004 -0.028,-0.012 -0.054,-0.019 -0.008,-0.016 -0.028,-0.016 -0.07,-0.023 -0.051,-0.031 -0.035,0.011 -0.023,0.02 -0.149,-0.02 h -0.094 l 0.071,-0.004 h -0.008 l 0.004,0.012 h 0.031 l 0.043,0.008 0.067,-0.016 0.007,0.004 -0.015,0.004 -0.012,0.004 -0.016,-0.004 -0.011,-0.004 0.027,0.012 -0.012,-0.012 h -0.039 v 0.004 l 0.008,-0.008 -0.004,-0.011 -0.101,0.007 h 0.003 l -0.027,0.024 -0.023,-0.004 -0.024,-0.016 0.121,0.008 h 0.082 -0.121 l -0.035,0.035 -0.039,-0.008 -0.027,-0.003 -0.016,0.003 -0.058,-0.003 -0.055,-0.004 -0.035,0.011 h -0.063 l -0.043,-0.011 -0.066,0.007 -0.016,0.02 -0.019,0.008 -0.043,0.004 -0.047,0.011 -0.055,0.016 -0.058,0.023 h -0.09 l -0.071,0.008 -0.054,0.016 -0.071,0.008 -0.074,0.019 -0.074,0.008 -0.078,0.023 -0.035,-0.003 -0.02,0.003 -0.062,0.02 -0.067,0.008 -0.058,0.043 -0.043,0.035 -0.192,-0.004 -0.117,0.004 0.086,-0.008 -0.004,0.024 h 0.012 l 0.012,0.019 0.035,0.027 0.089,-0.003 0.02,0.019 h -0.043 l -0.031,0.027 -0.028,0.008 v 0.008 l -0.011,0.035 -0.035,0.02 -0.028,0.023 -0.027,0.047 -0.035,0.02 -0.028,0.039 0.024,0.058 -0.028,0.067 -0.085,0.058 -0.059,0.071 -0.047,0.085 -0.043,0.051 -0.039,0.032 0.063,0.043 v 0.07 l -0.114,0.043 -0.058,0.078 -0.078,0.027 -0.04,0.035 -0.082,0.059 -0.058,0.062 0.012,0.059 -0.008,0.051 -0.012,0.043 -0.012,0.062 -0.039,0.047 0.024,0.047 0.039,0.051 0.008,0.035 0.019,0.027 0.027,0.055 0.04,0.055 0.05,0.015 0.059,0.039 0.035,0.043 0.027,0.047 0.039,0.051 0.079,0.047 0.066,0.066 0.066,0.059 0.067,0.055 0.066,0.058 0.063,0.055 0.062,0.086 0.078,0.07 -0.015,0.031 0.047,0.051 0.132,0.031 0.102,0.051 0.086,0.031 0.086,0.043 0.133,0.043 0.152,0.032 0.07,0.058 0.047,0.032 0.082,0.011 0.086,0.004 0.078,0.024 -0.082,0.015 0.031,0.008 0.18,0.004 0.113,0.019 0.083,-0.011 0.066,-0.004 0.156,0.004 0.152,-0.02 0.036,-0.023 0.062,-0.028 0.067,-0.015 0.089,-0.043 0.094,-0.063 0.106,-0.027 0.078,-0.035 0.047,-0.051 0.066,-0.039 0.063,-0.063 0.062,-0.066 0.078,-0.047 0.028,-0.054 0.031,-0.043 0.047,-0.036 0.043,-0.035 0.058,-0.062 0.035,-0.067 0.11,-0.058 0.093,-0.059 0.008,-0.07 0.047,-0.063 0.043,-0.039 0.031,-0.062 0.063,-0.09 0.039,-0.055 0.027,-0.062 0.043,-0.063 0.032,-0.027 0.023,-0.051 -0.004,-0.066 -0.035,-0.055 0.012,-0.051 0.019,-0.062 -0.015,-0.078 -0.004,-0.039 v -0.04 l -0.012,-0.093 0.012,-0.098 0.011,-0.09 -0.027,-0.066 -0.012,-0.067 -0.008,-0.058 -0.007,-0.071 -0.004,-0.066 -0.032,-0.066 -0.046,-0.063 -0.032,-0.082 -0.093,-0.094 -0.18,-0.054 -0.125,-0.082 0.051,-0.059 -0.047,-0.039 -0.063,-0.051 -0.074,-0.023 0.024,-0.043 0.031,-0.059 -0.137,-0.047 -0.16,-0.05 -0.121,-0.032 -0.102,-0.039 -0.105,-0.043 -0.114,-0.035 -0.109,-0.027 -0.109,-0.043 -0.102,-0.027 -0.082,-0.032 -0.082,-0.023 -0.094,-0.024 -0.089,-0.007 -0.067,-0.02 -0.066,-0.016 -0.063,-0.023 -0.062,-0.004 -0.067,-0.004 -0.054,-0.012 -0.032,-0.003 -0.039,0.003 h -0.035 l -0.039,0.02 -0.039,0.012 -0.078,0.015 -0.043,0.008 -0.043,0.024 -0.043,0.007 -0.031,0.008 -0.028,0.02 -0.039,0.027 -0.043,0.012 -0.043,0.023 -0.039,0.028 -0.015,0.023 -0.047,0.016 -0.047,0.023 -0.043,0.027 -0.035,0.028 -0.027,0.023 -0.032,0.012 -0.023,0.019 h -0.012 l -0.019,0.004 -0.008,0.02 -0.016,0.019 -0.004,0.008 0.004,0.016 -0.016,0.019 v 0.012 l 0.008,0.008 0.008,0.019 0.012,0.016 0.008,0.027 0.039,0.039 0.015,0.04 0.028,0.015 0.031,0.039 0.031,0.031 0.035,0.032 0.047,0.031 0.055,0.031 0.059,0.047 0.058,0.035 0.18,0.063 0.09,0.027 0.105,0.031 0.102,0.043 0.113,0.02 0.117,0.008 0.145,0.004"
         style="fill:none;stroke:#000000;stroke-width:1.30769;stroke-linecap:round;stroke-linejoin:round;stroke-miterlimit:10;stroke-dasharray:none;stroke-opacity:1"
         id="path1014" />
    </g>
    <g
       id="g1016"
       transform="matrix(0.703155,0,0,-0.703155,-627.46447,-408.71713)">
      <path
         d="m 926.312,-717.648 0.008,0.003 0.004,0.004 0.035,0.008 0.012,0.02 0.004,0.004 v 0.004 l 0.004,0.023 0.012,0.016 0.043,0.007 h 0.035 l 0.035,-0.003 0.035,0.019 h 0.031 l 0.035,0.02 0.032,0.019 0.043,0.008 0.05,0.004 0.055,0.019 0.055,0.004 0.058,0.02 0.071,0.008 0.082,0.003 0.074,0.02 0.074,-0.008 0.074,-0.004 0.082,0.012 0.083,0.016 0.074,0.004 0.078,-0.012 0.055,0.015 0.05,0.016 -0.039,0.004 0.028,0.023 0.121,-0.003 0.078,0.003 0.055,0.004 0.062,0.016 0.145,0.02 0.105,0.007 0.039,0.008 0.051,0.016 0.066,0.027 0.074,0.024 0.11,0.007 0.144,-0.007 h 0.118 l 0.078,0.019 c 51.234,6 86.062,10.5 136.539,15.773 l 0.168,0.004 h 0.238 l 0.125,0.016 0.078,0.004 0.067,-0.012 0.05,-0.008 0.028,-0.004 -0.02,-0.003 -0.027,0.007 -0.055,-0.015 -0.059,-0.004 h -0.031 l -0.097,0.019 -0.063,-0.015 h 0.039 l -0.031,0.058 -0.047,-0.004 -0.01,-0.046 0.031,-0.012 0.067,-0.008 -0.016,0.016 -0.039,-0.043 v -0.032 0.024 h -0.058 l -0.032,0.012 h 0.047 l 0.012,0.043 0.023,-0.008 0.02,-0.028 0.035,-0.007 h 0.02 l 0.011,-0.004 0.012,0.004 0.01,0.004 0.012,0.015 0.01,-0.004 h 0.153 v 0.02 l 0.051,-0.008 0.078,0.027 0.066,0.024 0.063,0.015 v 0.028 l 0.043,0.023 0.082,0.012 0.07,0.012"
         style="fill:none;stroke:#000000;stroke-width:1.30769;stroke-linecap:round;stroke-linejoin:round;stroke-miterlimit:10;stroke-dasharray:none;stroke-opacity:1"
         id="path1018" />
    </g>
    <g
       id="g1020"
       transform="matrix(0.703155,0,0,-0.703155,-627.46447,-408.71713)">
      <path
         d="m 1072.715,-700.59 v -0.004 l -0.01,-0.004 -0.055,-0.039 -0.011,-0.008 0.01,-0.015 0.012,0.008 0.01,-0.016 v 0.004 l 0.035,-0.012 -0.047,0.02 -0.011,-0.008 h -0.032 l -0.031,0.004 h -0.027 l -0.016,-0.012 -0.012,-0.019 -0.011,0.007 h -0.024 l -0.012,0.004 -0.023,-0.011 -0.035,-0.032 -0.031,-0.004 -0.024,0.004 -0.015,0.012 -0.086,0.008 -0.059,-0.016 0.031,0.004 -0.05,0.012 -0.012,-0.016 v -0.035 h 0.062 l 0.059,0.024 h -0.043 l -0.047,-0.024 -0.012,-0.031 -0.01,0.035 v 0.016 l -0.079,0.011 -0.039,0.008 h 0.028 l 0.023,0.016 0.01,0.023 0.062,0.024 -0.043,-0.008 -0.089,0.027 -0.028,0.063 -0.031,0.05 -0.039,0.047 -0.066,0.028 -0.02,0.05 -0.035,0.043 -0.055,0.036 -0.043,0.062 -0.062,0.047 -0.028,0.039 -0.043,0.035 -0.062,0.043 -0.047,0.039 -0.039,0.047 -0.047,0.047 -0.039,0.066 -0.047,0.071 v 0.062 l -0.035,0.074 -0.082,0.09 -0.051,0.086 -0.039,0.07 -0.047,0.075 v 0.066 l -0.01,0.063 -0.039,0.066 -0.031,0.051 -0.027,0.055 -0.012,0.074 v 0.09 l -0.027,0.07 v 0.074 l 0.031,0.074 0.047,0.063 0.039,0.07 0.039,0.09 v 0.102 l 0.047,0.078 0.082,0.062 0.039,0.078 0.043,0.047 0.043,0.051 0.07,0.047 0.106,0.043 0.086,0.035 0.027,0.012 0.051,0.015 0.078,0.059 0.066,0.047 -0.054,0.015 0.046,0.024 0.161,0.004 0.089,0.078 0.075,0.031 0.078,0.004 0.148,0.012 h 0.125 l 0.039,0.019 0.082,-0.008 0.11,0.004 0.105,-0.023 0.113,-0.027 0.129,-0.032 0.137,-0.047 0.152,-0.058 0.149,-0.031 0.144,-0.055 0.145,-0.078 0.144,-0.067 0.118,-0.07 0.136,-0.078 0.196,-0.086 0.168,-0.082 0.179,-0.082 0.168,-0.102 0.227,-0.125 0.199,-0.136 0.094,-0.129 0.121,-0.145 0.141,-0.156 0.152,-0.145 0.109,-0.136 0.086,-0.125 0.113,-0.117 0.114,-0.157 0.09,-0.152 0.062,-0.113 0.086,-0.215 0.016,-0.09 0.011,-0.09 -0.011,-0.09 -0.012,-0.093 -0.024,-0.09 -0.027,-0.078 -0.012,-0.086 -0.039,-0.086 -0.062,-0.078 -0.067,-0.075 -0.058,-0.054 -0.055,-0.047 -0.066,-0.059 -0.067,-0.062 -0.113,-0.063 -0.102,-0.07 -0.07,-0.043 -0.094,-0.027 -0.226,-0.032 -0.172,-0.035 v -0.035 l -0.098,-0.012 -0.121,-0.015 -0.101,-0.043 -0.055,-0.012 -0.082,-0.004 -0.156,0.004 -0.199,-0.008 -0.2,0.004 -0.164,0.004 -0.156,0.008 -0.242,0.019 -0.219,0.016 -0.125,-0.016 -0.164,0.028 -0.18,0.047 -0.172,0.023 -0.144,0.031 -0.164,0.047 -0.164,0.039 -0.117,0.039 -0.09,0.063 -0.082,0.043 -0.067,0.039 0.01,0.031 -0.016,0.035 -0.054,0.039 -0.043,0.039 -0.031,0.051 0.01,0.043 0.016,0.047 v 0.051 l -0.012,0.05 -0.01,0.047 v 0.063 l -0.011,0.094 -0.01,0.093 -0.012,0.09 v 0.098 l -0.012,0.125 0.012,0.121 -0.012,0.109 v 0.114 l 0.043,0.113 0.036,0.121 -0.028,0.117 0.012,0.102 0.035,0.097 0.039,0.11 0.063,0.094 0.074,0.074 0.062,0.078 0.067,0.043 0.078,0.031 0.098,0.035 0.109,0.035 -0.012,0.02 0.09,0.012 0.231,-0.016 0.207,0.016 0.168,-0.024 0.164,-0.058 0.179,-0.051 0.211,-0.071 0.215,-0.089 0.176,-0.09 0.351,-0.164 0.176,-0.094 0.051,-0.113 0.117,-0.106 0.219,-0.101 0.184,-0.075 0.148,-0.074 0.129,-0.117 0.164,-0.098 0.098,-0.082 0.027,-0.047 0.043,-0.062 0.016,-0.039 0.011,-0.031 -0.035,-0.016 -0.012,-0.016 -0.015,0.008 -0.059,-0.011 -0.097,-0.008 -0.086,0.023 -0.055,0.008 -0.078,0.004 h -0.117 l -0.102,-0.008 -0.062,-0.019 -0.098,-0.004 h -0.133 l -0.152,-0.012 h -0.149 l -0.207,-0.012 -0.254,0.012"
         style="fill:none;stroke:#000000;stroke-width:1.30769;stroke-linecap:round;stroke-linejoin:round;stroke-miterlimit:10;stroke-dasharray:none;stroke-opacity:1"
         id="path1022" />
    </g>
    <g
       id="g1024"
       transform="matrix(0.703155,0,0,-0.703155,-627.46447,-408.71713)">
      <path
         d="m 922.22688,-709.688 c 21.7799,0.69492 41.52422,4.72662 63.16383,7.09724 28.77999,3.89094 57.69549,7.27645 86.38489,11.52857 l 3.3264,0.28906"
         style="fill:none;stroke:#000000;stroke-width:1.30769;stroke-linecap:round;stroke-linejoin:round;stroke-miterlimit:10;stroke-dasharray:none;stroke-opacity:1"
         id="path1026"
         sodipodi:nodetypes="cccc" />
    </g>
    <g
       id="g1028"
       transform="matrix(0.703155,0,0,-0.703155,-627.46447,-408.71713)">
      <path
         d="m 1075.102,-690.77313 c 0.7682,3.7348 0.7048,6.73148 1.1921,10.51265 1.0116,13.69773 1.3133,27.51793 4.0919,41.01448 -0.1267,1.13112 -2.2405,1.80233 -1.999,2.94939"
         style="fill:none;stroke:#000000;stroke-width:1.30769;stroke-linecap:round;stroke-linejoin:round;stroke-miterlimit:10;stroke-dasharray:none;stroke-opacity:1"
         id="path1030"
         sodipodi:nodetypes="cccc" />
    </g>
    <g
       id="g1032"
       transform="matrix(0.703155,0,0,-0.703155,-627.46447,-408.71713)">
      <path
         d="m 922.22688,-709.688 -0.26588,60.34"
         style="fill:none;stroke:#000000;stroke-width:1.30769;stroke-linecap:round;stroke-linejoin:round;stroke-miterlimit:10;stroke-dasharray:none;stroke-opacity:1"
         id="path1034"
         sodipodi:nodetypes="cc" />
    </g>
    <g
       id="g1036"
       transform="matrix(0.703155,0,0,-0.703155,-627.46447,-408.71713)">
      <path
         d="m 921.961,-649.348 c 51.58008,4.16364 103.067,9.55588 154.6931,13.08919 l 1.7329,-0.0378"
         style="fill:none;stroke:#000000;stroke-width:1.30769;stroke-linecap:round;stroke-linejoin:round;stroke-miterlimit:10;stroke-dasharray:none;stroke-opacity:1"
         id="path1038" />
    </g>
  </g>
</svg>
