<?xml version="1.0" encoding="UTF-8" standalone="no"?>
<!-- Created by Ashley Blewer - This work is licensed under a Creative Commons Attribution 4.0 International License -->

<svg width="544" height="480" viewBox="0 0 143.93334 127" version="1.1" id="svg2490" inkscape:version="1.1.2 (08b2f3d93c, 2022-04-05)" sodipodi:docname="1982-betacam-2.svg"
   xmlns:inkscape="http://www.inkscape.org/namespaces/inkscape"
   xmlns:sodipodi="http://sodipodi.sourceforge.net/DTD/sodipodi-0.dtd"
   xmlns="http://www.w3.org/2000/svg"
   xmlns:svg="http://www.w3.org/2000/svg">
   <sodipodi:namedview id="namedview2492" pagecolor="#ffffff" bordercolor="#666666" borderopacity="1.0" inkscape:pageshadow="2" inkscape:pageopacity="0.0" inkscape:pagecheckerboard="0" inkscape:document-units="mm" showgrid="false" units="px" inkscape:zoom="0.90583674" inkscape:cx="272.67607" inkscape:cy="177.18425" inkscape:window-width="1848" inkscape:window-height="1136" inkscape:window-x="72" inkscape:window-y="27" inkscape:window-maximized="1" inkscape:current-layer="layer1" />
   <defs id="defs2487" />
   <g inkscape:label="Layer 1" inkscape:groupmode="layer" id="layer1">
      <g id="g1861" transform="matrix(0.4670145,0,0,0.4670145,-310.74754,-13.288917)">
         <g id="g280" transform="scale(1,-1)">
            <path d="m 678.641,-54.594 c 7.66939,1.316433 16.97713,1.117803 25.29429,1.687265 69.88966,2.630761 139.83869,3.156655 209.75592,4.752685 12.64102,-0.08925 25.36483,1.031246 37.95553,0.05042 2.1062,-0.376413 6.32565,-2.982614 6.08026,-5.345375" style="fill:none;stroke:#000000;stroke-width:2.61538;stroke-linecap:round;stroke-linejoin:round;stroke-miterlimit:10;stroke-dasharray:none;stroke-opacity:1" id="path282" />
         </g>
         <g id="g284" transform="scale(1,-1)">
            <path d="m 676.824,-54.941 0.004,-0.008 h 0.02 l 0.023,0.015 0.031,0.016 0.024,-0.012 0.015,0.035 0.008,0.008 0.008,0.02 0.004,-0.004 -0.051,-0.051 -0.023,-0.039 -0.016,-0.012 -0.012,-0.007 -0.004,-0.012 v 0.019 l -0.003,0.035 0.043,0.016 0.078,0.012 0.031,0.012 0.027,0.019 h 0.02 l 0.015,0.024 v -0.02 l -0.062,0.012 0.012,-0.032 -0.012,-0.019 h -0.016 v -0.016 l -0.004,0.012 0.024,-0.012 0.035,0.008 0.023,-0.004 0.039,0.039 0.036,0.032 0.074,-0.004 0.062,-0.02 h 0.047 l 0.059,-0.012 0.07,-0.089 0.086,-0.063 0.09,-0.102 0.086,-0.093 0.062,-0.11 0.075,-0.093 0.086,-0.11 0.097,-0.164 0.117,-0.086 0.094,-0.125 0.106,-0.121 0.117,-0.137 0.09,-0.14 0.125,-0.086 0.101,-0.117 0.11,-0.094 0.097,-0.113 0.098,-0.121 0.101,-0.106 0.079,-0.117 0.085,-0.102 0.086,-0.148 0.075,-0.137 0.066,-0.133 0.074,-0.125 0.078,-0.148 0.071,-0.121 0.074,-0.141 0.062,-0.164 0.082,-0.168 0.082,-0.164 0.083,-0.18 0.093,-0.175 0.094,-0.137 0.086,-0.164 0.113,-0.168 0.125,-0.149 0.09,-0.14 0.078,-0.129 0.094,-0.094 0.074,-0.09 0.051,-0.133 0.082,-0.124 0.027,-0.102 0.063,-0.09 0.054,-0.117 0.059,-0.121 0.074,-0.117 0.094,-0.102 0.098,-0.098 0.074,-0.093 0.074,-0.071 0.07,-0.027 0.067,-0.008 0.047,-0.027 0.039,-0.035 0.015,-0.012 0.02,-0.012 0.019,-0.074 0.032,-0.047 0.015,-0.07 0.004,-0.043 -0.008,-0.024 -0.007,-0.003 0.004,-0.004 -0.004,-0.016 -0.028,0.063 v 0.027 l -0.008,0.051 -0.007,0.046 -0.008,0.028 -0.02,-0.02 -0.011,-0.031 -0.008,-0.004 -0.024,-0.004 -0.019,-0.008 -0.027,0.008 -0.04,0.039 -0.039,0.012" style="fill:none;stroke:#000000;stroke-width:2.61538;stroke-linecap:round;stroke-linejoin:round;stroke-miterlimit:10;stroke-dasharray:none;stroke-opacity:1" id="path286" />
         </g>
         <g id="g288" transform="scale(1,-1)">
            <path d="m 682.094,-61.465 c 1.45263,0.792044 8.03898,0.616669 8.773,1.504" style="fill:none;stroke:#000000;stroke-width:2.61538;stroke-linecap:round;stroke-linejoin:round;stroke-miterlimit:10;stroke-dasharray:none;stroke-opacity:1" id="path290" sodipodi:nodetypes="cc" />
         </g>
         <g id="g292" transform="scale(1,-1)">
            <path d="m 691.414,-59.992 c -0.78168,-0.31168 0.5698,1.915636 1.41737,1.169781 0.7207,-0.112077 2.65913,-0.04921 2.56143,-0.523148 0.082,-1.121111 0.3642,-2.245945 0.38985,-3.368958 0.47805,-1.680523 0.82349,-3.458443 0.33835,-5.181685 -0.29692,-1.678641 -0.0906,-3.386197 0.21693,-5.041136 0.0343,-1.575101 -1.77871,-2.00297 -3.01259,-1.668035 -1.60228,0.299699 -0.79881,2.505522 -1.07391,3.699733 0.10614,1.26883 -0.54971,2.386834 -0.62068,3.637401 -0.24692,1.373871 -0.52695,2.74199 -0.79018,4.118205 -0.0134,1.008243 -0.65282,2.007268 -0.21963,3.020833" style="fill:none;stroke:#000000;stroke-width:2.61538;stroke-linecap:round;stroke-linejoin:round;stroke-miterlimit:10;stroke-dasharray:none;stroke-opacity:1" id="path294" />
         </g>
         <g id="g300" transform="scale(1,-1)">
            <path d="m 695.3928,-59.345367 260.2792,5.978366 c 0.20858,-0.27725 -0.13544,0.286743 0.051,-0.235 -0.10461,0.0038 -0.28423,0.09953 -0.477,0.168" style="fill:none;stroke:#000000;stroke-width:2.61538;stroke-linecap:round;stroke-linejoin:round;stroke-miterlimit:10;stroke-dasharray:none;stroke-opacity:1" id="path302" sodipodi:nodetypes="cccc" />
         </g>
         <g id="g304" transform="scale(1,-1)">
            <path d="m 954.129,-53.641 c -0.17211,-1.014064 -0.0422,-3.158826 -0.24351,-4.581903 -0.0584,-1.549787 -0.0694,-3.152886 0.42235,-4.639608 0.51169,-0.615781 0.2656,-2.028184 0.46981,-2.286386 1.12459,0.659469 2.37675,1.668999 1.291,2.919935 -0.50611,1.743082 -0.47049,3.609664 -1.17659,5.301754 -0.19184,1.458951 -0.73365,2.876272 -0.81777,4.331785 0.0372,0.555538 0.24023,1.205246 0.28905,1.685413" style="fill:none;stroke:#000000;stroke-width:2.61538;stroke-linecap:round;stroke-linejoin:round;stroke-miterlimit:10;stroke-dasharray:none;stroke-opacity:1" id="path306" />
         </g>
         <g id="g308" transform="scale(1,-1)">
            <path d="m 957.727,-53.449005 c 1.49819,0.398653 3.15739,-0.168987 3.53915,-2.308528 0.30136,-1.178369 0.30599,-2.430804 0.33288,-3.647596 -0.0782,-1.153411 -0.30208,-2.287192 -0.26112,-3.449199 0.0222,-1.296593 -0.53946,-2.467707 -0.36514,-3.747703 -0.29295,-1.099113 -1.31718,-0.852421 -2.21099,-0.612996" style="fill:none;stroke:#000000;stroke-width:2.61538;stroke-linecap:round;stroke-linejoin:round;stroke-miterlimit:10;stroke-dasharray:none;stroke-opacity:1" id="path310" sodipodi:nodetypes="cccccc" />
         </g>
         <g id="g312" transform="scale(1,-1)">
            <path d="m 958.76178,-67.215027 c 0,0 -2.56318,-2.272054 -2.62558,-2.894392 -0.2312,-1.229789 -0.61563,-2.454392 -0.55193,-3.716719 0.29072,-0.591671 0.13837,-1.344033 0.34813,-1.891132 0.1249,-0.09677 0.27039,-0.166203 0.37991,-0.282731" style="fill:none;stroke:#000000;stroke-width:2.61538;stroke-linecap:round;stroke-linejoin:round;stroke-miterlimit:10;stroke-dasharray:none;stroke-opacity:1" id="path314" sodipodi:nodetypes="ccccc" />
         </g>
         <g id="g316" transform="scale(1,-1)">
            <path d="m 957.105,-76.523 c -0.12193,0.454568 1.0158,-1.082608 1.172,-0.774" style="fill:none;stroke:#000000;stroke-width:2.61538;stroke-linecap:round;stroke-linejoin:round;stroke-miterlimit:10;stroke-dasharray:none;stroke-opacity:1" id="path318" sodipodi:nodetypes="cc" />
         </g>
         <g id="g320" transform="scale(1,-1)">
            <path d="M 958.277,-77.297 940.715,-189.434" style="fill:none;stroke:#000000;stroke-width:2.61538;stroke-linecap:round;stroke-linejoin:round;stroke-miterlimit:10;stroke-dasharray:none;stroke-opacity:1" id="path322" sodipodi:nodetypes="cc" />
         </g>
         <g id="g324" transform="scale(1,-1)">
            <path d="m 940.715,-189.434 c 0.54479,-0.11139 -1.39605,-1.38659 -1.19342,-1.81537 -0.30129,-0.30005 -0.71534,-0.48331 -1.0589,-0.74842 -0.5318,-0.2415 -1.00439,-0.55626 -1.29631,-1.0683 -0.24442,-0.32864 -0.8325,-0.42155 -0.84488,-0.89759 0.20093,-0.13984 0.0589,-0.22096 0.038,-0.19708 0.37738,-0.10039 0.76978,-0.0251 1.12708,-0.0471 0.52862,-0.0514 1.07506,-0.0788 1.59764,-0.007 0.26393,0.0447 1.76523,-4.83767 1.81677,-4.99566 -0.1134,0.0509 -1.19968,4.89016 -1.30651,4.95249" style="fill:none;stroke:#000000;stroke-width:2.61538;stroke-linecap:round;stroke-linejoin:round;stroke-miterlimit:10;stroke-dasharray:none;stroke-opacity:1" id="path326" sodipodi:nodetypes="cccccccccc" />
         </g>
         <g id="g328" transform="scale(1,-1)">
            <path d="m 937.574,-196.668 c -0.46542,0.55141 1.24823,-0.65029 1.70016,-0.72778 0.91846,-0.36924 1.89062,-0.7786 1.62682,-1.81474 0.15432,-0.62322 -0.3138,-1.92719 -0.75598,-1.85148" style="fill:none;stroke:#000000;stroke-width:2.61538;stroke-linecap:round;stroke-linejoin:round;stroke-miterlimit:10;stroke-dasharray:none;stroke-opacity:1" id="path330" sodipodi:nodetypes="cccc" />
         </g>
         <g id="g332" transform="scale(1,-1)">
            <path d="m 685.875,-234.227 c 1.9744,0.74507 -2.53183,-7.50439 7.33547,-5.16062 80.61309,11.39683 161.09789,23.76617 241.44661,36.91235 l 5.48792,1.41327" style="fill:none;stroke:#000000;stroke-width:2.61538;stroke-linecap:round;stroke-linejoin:round;stroke-miterlimit:10;stroke-dasharray:none;stroke-opacity:1" id="path334" sodipodi:nodetypes="cccc" />
         </g>
         <g id="g336" transform="scale(1,-1)">
            <path d="m 691.129,-231.414 c 0.43917,0.0615 1.37611,1.37289 2.1979,1.69 1.08831,0.36945 3.9191,-0.061 3.9191,-0.061 0,0 -2.74747,-0.45203 -4.6633,-0.77607 -1.24807,-0.31728 -7.51465,-6.47175 -8.70549,-6.92661" style="fill:none;stroke:#000000;stroke-width:2.61538;stroke-linecap:round;stroke-linejoin:round;stroke-miterlimit:10;stroke-dasharray:none;stroke-opacity:1" id="path338" sodipodi:nodetypes="ccccc" />
         </g>
         <g id="g340" transform="scale(1,-1)">
            <path d="m 697.246,-229.785 239.879,33.422" style="fill:none;stroke:#000000;stroke-width:2.61538;stroke-linecap:round;stroke-linejoin:round;stroke-miterlimit:10;stroke-dasharray:none;stroke-opacity:1" id="path342" sodipodi:nodetypes="cc" />
         </g>
         <g id="g344" transform="scale(1,-1)">
            <path d="M 775.105,-57.717934 823.215,-86.848" style="fill:none;stroke:#000000;stroke-width:2.61538;stroke-linecap:round;stroke-linejoin:round;stroke-miterlimit:10;stroke-dasharray:none;stroke-opacity:1" id="path346" sodipodi:nodetypes="cc" />
         </g>
         <g id="g348" transform="scale(1,-1)">
            <path d="m 823.215,-86.848 29.816,0.625" style="fill:none;stroke:#000000;stroke-width:2.61538;stroke-linecap:round;stroke-linejoin:round;stroke-miterlimit:10;stroke-dasharray:none;stroke-opacity:1" id="path350" sodipodi:nodetypes="cc" />
         </g>
         <g id="g352" transform="scale(1,-1)">
            <path d="m 853.031,-86.223 42.95488,31.342245" style="fill:none;stroke:#000000;stroke-width:2.61538;stroke-linecap:round;stroke-linejoin:round;stroke-miterlimit:10;stroke-dasharray:none;stroke-opacity:1" id="path354" sodipodi:nodetypes="cc" />
         </g>
         <g id="g356" transform="scale(1,-1)">
            <path d="m 910.008,-55.833767 0.18016,-16.974344 c 1.02284,-0.494379 2.986,0.05518 3.05849,1.566643 l 1.45119,15.886774 v 0" style="fill:none;stroke:#000000;stroke-width:2.61538;stroke-linecap:round;stroke-linejoin:round;stroke-miterlimit:10;stroke-dasharray:none;stroke-opacity:1" id="path358" sodipodi:nodetypes="ccccc" />
         </g>
         <g id="g360" transform="scale(1,-1)">
            <path d="m 888.516,-69.969 c -0.10572,-0.140853 -0.0193,-0.897542 -0.0895,-0.404064 0.2714,0.367766 -0.1852,1.011694 -0.17914,1.469645 -0.24834,0.72333 0.507,0.819261 1.04581,0.936405 0.59732,-0.01791 1.19184,-0.119781 1.78462,-0.226154 0.50897,-0.223829 1.40417,0.610022 1.48807,0.177213 0.32296,-0.689781 -0.0841,-1.428076 -0.0131,-2.143577 0.046,-0.683849 -0.46608,-0.878487 -1.00655,-1.13202 -0.62893,-0.05989 -1.26524,-0.183622 -1.89865,-0.09829 -0.37171,-3.51e-4 -1.18834,0.104423 -1.2984,-0.148858 l 0.10049,-0.03137" style="fill:none;stroke:#000000;stroke-width:2.61538;stroke-linecap:round;stroke-linejoin:round;stroke-miterlimit:10;stroke-dasharray:none;stroke-opacity:1" id="path362" />
         </g>
         <g id="g364" transform="scale(1,-1)">
            <path d="m 938.484,-69.316 v 0.011 l 0.004,0.028 -0.011,0.07 -0.008,0.082 -0.004,0.09 -0.004,0.094 -0.004,0.05 v 0.028 l -0.016,0.011 0.004,-0.003 v -0.024 l 0.004,0.027 v 0.02 l 0.004,0.012 0.024,-0.024 h 0.039 l 0.035,-0.07 0.015,-0.012 0.016,-0.019 -0.027,-0.02 h 0.011 l -0.035,0.024 h -0.015 l -0.016,0.007 h -0.016 v 0.004 l -0.004,0.032 0.028,0.011 0.012,0.032 0.011,-0.043 0.008,0.011 h 0.008 l 0.039,-0.008 v -0.003 l -0.012,-0.016 -0.012,-0.004 -0.007,-0.031 -0.008,0.004 -0.004,0.007 v -0.003 l -0.016,0.019 -0.015,0.012 -0.008,0.015 -0.012,0.008 -0.008,0.028 -0.004,0.015 -0.003,-0.008 -0.012,-0.015 h -0.008 l -0.019,-0.008 -0.012,-0.016 h -0.008 l -0.004,-0.004 -0.023,-0.039 h -0.008 l -0.024,-0.007 -0.007,0.003 -0.036,-0.003 h -0.066 l -0.059,-0.004 -0.058,0.031 -0.074,0.047 -0.075,0.027 -0.089,0.02 -0.075,0.011 -0.078,0.012 -0.07,-0.008 h -0.078 l -0.074,-0.039 -0.071,-0.015 -0.07,0.007 -0.067,-0.007 -0.062,0.011 -0.07,0.004 -0.063,0.035 -0.066,0.032 -0.063,0.019 -0.043,0.028 -0.039,0.015 -0.043,0.043 -0.054,0.024 -0.055,0.035 -0.035,0.035 -0.035,0.019 -0.008,0.024 -0.035,0.031 -0.024,0.035 -0.027,0.016 -0.004,0.027 -0.016,0.031 -0.031,0.032 -0.008,0.031 -0.027,0.016 -0.02,0.007 -0.004,0.036 -0.027,0.035 v 0.027 l -0.015,0.027 0.027,0.047 -0.008,0.063 0.004,0.078 -0.016,0.058 v 0.211 l 0.008,0.047 0.008,0.032 0.012,0.031 0.007,0.055 0.004,0.054 0.004,0.063 0.02,0.062 0.012,0.102 0.023,0.086 0.012,0.078 0.023,0.058 0.027,0.063 0.032,0.086 0.051,0.07 0.042,0.074 0.04,0.071 0.074,0.062 0.074,0.067 0.074,0.046 0.086,0.055 0.086,0.039 0.098,0.051 0.086,0.074 0.101,0.063 0.082,0.097 0.117,0.09 0.114,0.082 0.105,0.074 0.102,0.051 0.121,0.043 0.129,0.02 0.133,-0.012 0.117,-0.043 0.109,-0.043 0.125,-0.031 0.113,-0.031 0.122,-0.032 0.093,-0.004 0.11,-0.035 0.097,0.032 0.098,-0.02 0.094,-0.008 0.066,-0.023 0.078,-0.028 0.043,-0.062 0.055,-0.067 0.047,-0.05 0.047,-0.067 0.031,-0.054 0.039,-0.051 0.039,-0.043 0.047,-0.063 0.035,-0.023 0.035,-0.051 0.047,-0.055 0.031,-0.062 0.028,-0.059 0.043,-0.125 0.035,-0.132 0.058,-0.086 0.032,-0.094 0.035,-0.09 0.031,-0.082 0.031,-0.074 0.032,-0.086 0.007,-0.008 0.024,-0.062 0.008,-0.086 0.004,-0.079 -0.012,-0.074 -0.012,-0.105 -0.027,-0.102 -0.032,-0.101 -0.039,-0.098 -0.058,-0.098 -0.051,-0.121 -0.07,-0.09 -0.071,-0.113 -0.078,-0.086 -0.078,-0.097 -0.094,-0.094 -0.105,-0.113 -0.109,-0.086 -0.114,-0.04 -0.105,-0.085 -0.113,-0.086 -0.098,-0.075 -0.082,-0.086 -0.094,-0.082 -0.082,-0.074 -0.086,-0.078 -0.09,-0.101 -0.097,-0.063 -0.106,-0.047 -0.097,-0.039 -0.11,-0.012 -0.086,-0.019 h -0.09 l -0.093,0.008 -0.079,0.015 h -0.062 l -0.047,0.012 -0.051,0.016 -0.047,0.019 -0.046,0.031 -0.051,0.024 -0.043,0.035 -0.031,0.043 -0.043,0.039 -0.032,0.027 -0.023,0.051 -0.043,0.047 -0.008,0.059 -0.035,0.05 -0.008,0.043 -0.019,0.004 -0.004,0.039 0.004,0.059 -0.016,0.039 0.004,0.039 0.004,0.047 0.008,0.066 0.023,0.047 0.016,0.11 0.008,0.086 0.062,0.156 0.051,0.07 0.043,0.004 0.047,0.027 0.039,0.032 0.062,0.027 0.051,0.055 0.047,0.047 0.039,0.082 0.062,0.05 0.059,0.11 0.066,0.062 0.063,0.07 0.062,0.051 0.082,0.043 0.075,0.059 0.07,0.004 0.09,0.023 0.074,0.02 0.106,0.019 0.089,0.004 0.094,0.047 0.098,0.012 0.082,-0.035 0.094,-0.016 0.074,-0.012 0.07,-0.035 0.055,0.004 0.051,-0.012 0.054,-0.05 0.039,-0.043 0.043,-0.04 0.047,-0.043 0.055,-0.027 0.035,-0.019 0.012,-0.032 0.015,-0.046 -0.011,-0.024 -0.016,-0.016 -0.02,-0.015 -0.05,-0.012 -0.032,-0.019 -0.035,-0.008 -0.054,-0.004" style="fill:none;stroke:#000000;stroke-width:2.61538;stroke-linecap:round;stroke-linejoin:round;stroke-miterlimit:10;stroke-dasharray:none;stroke-opacity:1" id="path366" />
         </g>
         <g id="g368" transform="scale(1,-1)">
            <path d="m 918.809,-129.672 c 0,0 5.30684,50.961062 7.95626,74.685571" style="fill:none;stroke:#000000;stroke-width:2.61538;stroke-linecap:round;stroke-linejoin:round;stroke-miterlimit:10;stroke-dasharray:none;stroke-opacity:1" id="path370" sodipodi:nodetypes="cc" />
         </g>
         <g id="g372" transform="scale(1,-1)">
            <path d="M 914.69784,-55.354694 908.898,-121.805" style="fill:none;stroke:#000000;stroke-width:2.61538;stroke-linecap:round;stroke-linejoin:round;stroke-miterlimit:10;stroke-dasharray:none;stroke-opacity:1" id="path374" sodipodi:nodetypes="cc" />
         </g>
         <g id="g376" transform="scale(1,-1)">
            <path d="m 908.898,-121.805 c 2.69232,-3.12982 7.0066,-4.92056 9.911,-7.867" style="fill:none;stroke:#000000;stroke-width:2.61538;stroke-linecap:round;stroke-linejoin:round;stroke-miterlimit:10;stroke-dasharray:none;stroke-opacity:1" id="path378" sodipodi:nodetypes="cc" />
         </g>
         <g id="g380" transform="scale(1,-1)">
            <path d="m 745.16,-136.918 0.26222,77.856" style="fill:none;stroke:#000000;stroke-width:2.61538;stroke-linecap:round;stroke-linejoin:round;stroke-miterlimit:10;stroke-dasharray:none;stroke-opacity:1" id="path382" sodipodi:nodetypes="cc" />
         </g>
         <g id="g384" transform="scale(1,-1)">
            <path d="m 730.117,-66.039 c -3.31744,-26.739011 -1.01151,-55.15661 -2.265,-80.344 l 0.136,0.031" style="fill:none;stroke:#000000;stroke-width:2.61538;stroke-linecap:round;stroke-linejoin:round;stroke-miterlimit:10;stroke-dasharray:none;stroke-opacity:1" id="path386" sodipodi:nodetypes="ccc" />
         </g>
         <g id="g388" transform="scale(1,-1)">
            <path d="m 728.039,-147.273 -0.008,0.003 -0.027,-0.003 -0.008,-0.012 -0.031,-0.043 -0.024,-0.047 -0.015,0.016 v 0.023 l 0.008,0.055 0.027,0.066 0.008,0.027 0.004,-0.031 0.031,-0.008 0.027,0.008 0.039,0.024 0.055,-0.035 0.066,-0.008 0.082,0.023 0.043,0.031 -0.027,0.024 0.094,0.031 0.195,0.004 0.16,0.008 0.149,0.027 0.156,0.031 0.277,0.032 0.215,0.015 0.067,0.02 0.097,0.019 0.121,0.075 0.118,0.054 0.074,-0.015 0.129,0.019 0.136,0.024 0.121,0.031 0.137,-0.074 0.156,-0.008 0.114,0.074 -0.043,0.027 0.09,0.02 0.25,0.012 0.168,-0.055 0.144,0.074 0.137,0.078 0.105,-0.035 0.211,0.016 0.176,0.011 0.035,0.047 0.106,0.016 0.082,-0.031 0.082,0.008 -0.223,-0.004 h -0.02 l 0.262,-0.02 0.125,-0.004 0.07,-0.004 h 0.047 l 0.098,0.012 0.102,0.004 0.007,0.008 h 0.012 l 0.004,0.004 h 0.016 l 0.023,-0.028 v -0.011 h -0.016 l -0.019,0.003 -0.02,0.016 -0.023,0.004 -0.02,-0.016 -0.019,-0.011 -0.008,0.004 -0.035,0.003 v -0.039 l -0.004,-0.054 -0.004,0.004 -0.023,0.043 -0.008,0.011 -0.004,0.016 0.023,-0.016 -0.003,0.082 -0.032,0.016 0.008,-0.051 h 0.133 l 0.043,-0.031 -0.078,-0.008 -0.016,-0.031 -0.012,0.012 -0.019,0.015 -0.043,-0.039 -0.074,-0.012 0.015,-0.035 v -0.031 l -0.023,-0.066 -0.039,-0.055 -0.024,-0.016 0.047,-0.031 0.012,-0.016 -0.09,-0.019 -0.074,-0.055 -0.078,0.039 -0.09,0.008 -0.176,-0.086 -0.086,-0.07 0.012,-0.043 -0.094,-0.008 -0.121,-0.062 -0.086,-0.055 -0.074,-0.027 0.109,-0.036 -0.039,-0.043 -0.238,-0.027 -0.156,-0.137 -0.137,-0.078 -0.117,-0.008 -0.156,-0.031 -0.118,-0.047 -0.101,-0.035 -0.153,0.004 -0.148,-0.039 -0.141,-0.059 -0.121,-0.039 -0.195,-0.027 -0.055,-0.07 -0.027,-0.039 -0.094,-0.094 -0.101,-0.086 -0.067,0.027 h -0.023 l -0.059,-0.008 -0.058,-0.015 -0.039,-0.024 -0.036,-0.058 0.028,-0.024 v 0.032 h 0.019 l 0.02,-0.004 0.023,0.011 0.016,0.032 0.019,0.023 h 0.02 l 0.066,0.012 0.008,0.004 -0.051,-0.028 0.078,-0.023 0.055,-0.004 0.008,-0.008 0.008,-0.004 -0.051,0.004 0.031,0.008 0.094,-0.004 0.055,0.039 0.07,0.02 0.109,-0.051 0.278,-0.055 0.238,-0.051 0.07,-0.039 0.188,-0.031 h 0.199 l 0.219,-0.047 0.129,-0.101 0.082,-0.051 0.215,-0.051 0.328,-0.066 0.304,-0.078 0.254,-0.055 0.227,-0.027 0.258,-0.036 0.254,-0.035 0.203,-0.031 0.175,-0.078 0.176,-0.008 0.16,0.043 0.106,-0.004 0.137,0.012 0.144,-0.004 -0.008,0.035 0.02,0.02 h 0.023 l 0.012,-0.008 -0.055,0.008 -0.05,0.004 0.023,-0.016 0.004,-0.07 0.012,-0.059 -0.012,0.063 -0.012,0.003 0.027,0.012 -0.007,0.016 -0.047,0.035 -0.031,0.012 -0.028,-0.004 0.016,-0.004 -0.067,0.015 -0.058,-0.007 -0.02,-0.024 -0.011,-0.023 -0.028,-0.02 -0.031,-0.004 -0.02,0.008 h -0.035 l -0.05,-0.012 -0.059,-0.023 0.004,-0.039 -0.012,-0.016 -0.051,0.008 -0.074,-0.019 -0.07,-0.004 -0.086,-0.02 -0.113,0.063 -0.133,0.019 -0.113,-0.055 -0.118,-0.007 -0.152,-0.028 -0.16,-0.007 -0.137,0.011 h -0.141 l -0.125,-0.039 -0.164,-0.012 -0.253,-0.023 -0.063,-0.012 0.008,-0.043 -0.074,-0.019 -0.075,0.004 -0.054,-0.032 0.078,-0.035 0.015,-0.05 -0.132,-0.012 -0.106,-0.031 -0.078,-0.012 -0.062,0.008 -0.098,-0.012 -0.113,-0.02 -0.047,-0.019 -0.032,-0.02 -0.035,-0.019 -0.011,0.015 0.007,0.004 0.024,0.004 -0.004,0.004 v -0.09 l 0.004,-0.019 0.004,0.074 0.023,0.016 0.039,0.019 0.032,0.024 -0.008,0.027 v 0.074 l 0.008,0.031 0.019,0.008 0.012,0.012 0.011,0.023 0.004,0.055 0.024,-0.035 0.008,0.023 0.019,0.086" style="fill:none;stroke:#000000;stroke-width:2.61538;stroke-linecap:round;stroke-linejoin:round;stroke-miterlimit:10;stroke-dasharray:none;stroke-opacity:1" id="path390" />
         </g>
         <g id="g392" transform="scale(1,-1)">
            <path d="m 780.371,-74.293 0.008,-0.008 0.019,-0.023 0.032,-0.016 0.035,-0.008 0.027,-0.039 0.047,-0.039 0.02,-0.047 0.007,-0.035 -0.007,-0.051 -0.004,-0.043 -0.024,-0.023 -0.008,-0.02 -0.019,-0.007 -0.02,-0.028 -0.031,-0.023 -0.035,-0.008 -0.043,-0.004 -0.039,-0.012 -0.027,-0.023 -0.039,-0.023 -0.043,0.027 -0.043,-0.012 -0.032,0.008 -0.043,-0.012 -0.043,-0.019 -0.039,-0.02 -0.043,-0.004 -0.035,-0.019 -0.031,-0.059 -0.039,-0.043 -0.039,-0.023 -0.028,-0.031 -0.042,-0.02 -0.04,-0.008 -0.035,-0.008 -0.047,-0.004 -0.074,-0.015 -0.054,-0.004 -0.047,-0.004 -0.035,0.016 -0.04,0.011 -0.031,0.008 0.012,0.008 -0.016,0.031 0.012,0.012 0.004,0.027 -0.008,0.035 -0.012,0.036 -0.023,0.047 -0.016,0.054 -0.07,0.063 -0.047,0.058 -0.058,0.067 -0.063,0.07 -0.066,0.09 -0.071,0.098 -0.074,0.105 -0.078,0.09 -0.09,0.117 -0.062,0.117 -0.075,0.125 -0.089,0.102 -0.063,0.105 -0.07,0.106 -0.047,0.09 -0.063,0.039 -0.043,0.054 -0.035,0.074 -0.066,0.059 -0.024,0.086 -0.05,0.07 -0.032,0.094 -0.027,0.09 -0.043,0.125 -0.031,0.109 -0.028,0.102 -0.007,0.101 -0.02,0.098 -0.019,0.113 -0.004,0.094 0.004,0.094 0.023,0.105 0.016,0.09 0.031,0.09 0.039,0.106 0.043,0.101 0.051,0.063 0.043,0.078 0.066,0.066 0.07,0.066 0.079,0.059 0.089,0.07 0.11,0.028 0.105,0.043 0.094,0.031 0.121,0.008 0.117,0.015 0.114,0.016 0.113,-0.004 0.125,-0.008 0.148,-0.011 0.145,-0.016 0.281,-0.031 0.273,-0.032 0.133,-0.027 0.117,-0.035 0.106,-0.039 0.113,-0.035 0.102,-0.043 0.109,-0.055 0.113,-0.047 0.133,-0.058 0.125,-0.071 0.121,-0.086 0.09,-0.078 0.086,-0.09 0.09,-0.097 0.051,-0.106 0.07,-0.101 0.02,-0.106 0.039,-0.105 0.035,-0.168 0.047,-0.145 0.023,-0.14 v -0.137 l 0.024,-0.145 0.015,-0.14 -0.004,-0.141 -0.011,-0.137 -0.012,-0.101 -0.016,-0.113 -0.015,-0.137 -0.016,-0.133 -0.016,-0.129 -0.031,-0.121 -0.035,-0.141 -0.043,-0.117 -0.055,-0.117 -0.047,-0.105 -0.082,-0.094 -0.074,-0.094 -0.078,-0.086 -0.094,-0.082 -0.117,-0.082 -0.113,-0.086 -0.113,-0.062 -0.125,-0.059 -0.122,-0.016 -0.128,-0.039 -0.137,-0.039 -0.141,-0.023 -0.14,-0.02 -0.153,-0.015 -0.176,0.004 -0.175,-0.008 -0.172,-0.028 -0.172,-0.003 -0.188,0.023 -0.179,0.012 -0.172,0.031 -0.153,0.039 -0.14,0.023 -0.117,0.055 -0.121,0.047 -0.098,0.063 -0.094,0.05 -0.062,0.082 -0.035,0.094 -0.04,0.086 v 0.063 l -0.015,0.07 0.015,0.074 0.004,0.059 0.028,0.074 0.031,0.058 0.016,0.075 0.046,0.066 -0.003,0.086 0.039,0.07 0.023,0.071 0.039,0.113 0.043,0.105 0.047,0.086 0.055,0.086 0.07,0.098 0.051,0.113 0.066,0.106 0.07,0.105 0.071,0.098 0.07,0.101 0.055,0.082 0.058,0.09 0.067,0.035 0.078,0.036 0.066,0.027 0.067,0.039 0.05,0.004 0.11,0.023 0.058,-0.008 0.055,0.008 0.039,-0.011 0.047,-0.032 0.051,-0.023 0.051,-0.039 0.054,-0.047 0.035,-0.078 0.055,-0.067 0.067,-0.078 0.062,-0.082 0.051,-0.07 0.035,-0.074 0.031,-0.074 0.012,-0.094 0.004,-0.086 -0.004,-0.078 -0.023,-0.071 -0.004,-0.078 -0.012,-0.07 -0.016,-0.066 0.004,-0.071 0.008,-0.062 -0.008,-0.094 -0.004,-0.008 -0.019,-0.027 -0.024,-0.012 0.004,-0.023 -0.043,-0.02 -0.043,0.008 -0.035,-0.023 h -0.027 l -0.039,-0.028 -0.043,-0.004 -0.055,-0.011" style="fill:none;stroke:#000000;stroke-width:2.61538;stroke-linecap:round;stroke-linejoin:round;stroke-miterlimit:10;stroke-dasharray:none;stroke-opacity:1" id="path394" />
         </g>
         <g id="g396" transform="scale(1,-1)">
            <path d="m 836.434,-113.633 c -0.80137,-0.5337 -1.16097,0.52976 -1.67968,1.06156 -0.74068,0.34135 -1.51822,1.46966 -1.01666,2.31291 0.077,0.70892 -0.0119,1.90555 1.099,1.67733 1.06848,-0.18239 1.4548,-1.01545 2.00018,-1.76967 0.2033,-0.8886 0.0483,-1.78429 -0.27961,-2.61116 0.016,-0.98525 -1.16985,-1.37793 -1.60278,-0.38514 -0.45245,0.43652 -0.59731,1.39725 -0.38658,2.05005 0.41502,0.70465 1.15414,1.87057 2.11145,1.43898 0.69863,-0.56165 1.491,-1.58329 1.28406,-2.5038 -0.49442,-0.57071 -0.4886,-1.4527 -1.37422,-1.60398 -0.56222,-0.25113 -1.13399,-0.42606 -1.74884,-0.46008" style="fill:none;stroke:#000000;stroke-width:2.61538;stroke-linecap:round;stroke-linejoin:round;stroke-miterlimit:10;stroke-dasharray:none;stroke-opacity:1" id="path398" />
         </g>
         <g id="g400" transform="scale(1,-1)">
            <path d="m 832.191,-185.84 -0.07,0.008 -0.125,-0.035 0.043,-0.094 -0.035,-0.109 0.078,0.027 0.02,-0.039 0.113,-0.074 0.094,-0.051 -0.036,-0.039 -0.043,-0.024 -0.011,-0.027 -0.02,-0.055 0.016,-0.058 -0.094,-0.043 -0.039,-0.055 0.035,-0.066 0.004,-0.047 -0.023,-0.024 -0.032,-0.039 0.032,-0.015 -0.012,-0.028 -0.07,-0.023 -0.008,-0.074 -0.028,-0.024 h -0.015 l -0.024,0.004 0.016,0.008 0.012,0.012 -0.035,0.012 -0.039,-0.004 -0.043,-0.016 h -0.028 l 0.031,-0.02 -0.031,-0.003 -0.078,0.05 -0.047,-0.019 -0.039,-0.055 h -0.047 l -0.093,-0.012 -0.122,-0.023 0.02,-0.035 0.031,-0.016 -0.043,-0.015 -0.011,-0.02 -0.004,-0.008 -0.008,0.004 v -0.019 l -0.043,0.023 -0.078,0.012 -0.078,-0.024 -0.071,-0.023 -0.14,-0.024 -0.114,-0.011 -0.047,-0.012 -0.062,0.008 h -0.047 l -0.082,-0.02 -0.101,-0.004 -0.286,0.02 -0.211,0.035 h 0.043 l -0.105,0.027 -0.102,0.047 -0.113,0.024 -0.125,0.035 -0.016,0.019 -0.082,0.051 -0.152,0.086 -0.137,0.066 -0.121,0.036 -0.078,0.047 -0.219,0.046 -0.16,0.075 h 0.024 l -0.047,0.046 -0.035,0.075 -0.063,0.07 0.02,0.059 -0.008,0.078 -0.055,0.07 -0.031,0.059 -0.02,0.086 -0.015,0.07 v 0.082 l -0.008,0.078 -0.012,0.07 0.024,0.051 0.015,0.063 0.016,0.089 0.035,0.079 0.004,0.093 0.012,0.09 0.047,0.094 0.062,0.062 0.043,0.047 0.047,0.102 0.047,0.086 -0.035,0.078 0.035,0.086 0.133,0.062 0.097,0.055 0.074,0.07 0.079,0.063 0.226,0.059 0.156,0.082 -0.007,0.105 0.082,0.063 0.066,-0.028 0.094,0.012 -0.012,0.016 -0.023,0.019 0.156,-0.008 0.211,-0.043 0.164,-0.004 0.141,0.016 h 0.148 l 0.199,-0.004 0.192,-0.027 0.113,0.054 0.133,0.004 0.152,-0.066 0.145,-0.067 0.085,-0.027 0.118,-0.039 0.191,-0.062 0.16,-0.075 0.157,-0.074 0.156,-0.07 0.16,-0.094 -0.078,-0.074 0.023,-0.117 0.184,-0.141 0.094,-0.109 0.062,-0.024 0.035,-0.062 0.102,-0.078 0.136,-0.086 -0.007,-0.106 -0.032,-0.082 0.012,-0.054 -0.027,-0.098 0.019,-0.11 -0.054,-0.117 -0.035,-0.09 -0.016,-0.121 -0.043,-0.129 -0.031,-0.074 -0.028,-0.074 -0.004,-0.09 -0.05,-0.09 -0.039,-0.109 -0.024,-0.098 -0.047,-0.058 -0.058,-0.082 -0.047,-0.082 -0.059,-0.086 -0.07,-0.035 -0.063,-0.067 -0.047,-0.09 -0.07,-0.054 -0.097,-0.055 -0.04,-0.067 -0.089,-0.05 -0.094,0.019 -0.102,-0.015 -0.105,-0.055 -0.129,-0.016 h -0.219 l -0.305,0.004 -0.097,0.004 -0.063,-0.023 -0.086,0.011 -0.097,0.051 -0.11,0.047 0.032,0.043 -0.051,0.078 -0.203,0.137 -0.149,0.125 -0.09,-0.024 -0.058,0.059 -0.18,0.07 -0.258,0.094 -0.023,0.059 0.035,0.058 -0.012,0.078 -0.023,0.106 -0.039,0.094 0.058,0.101 0.036,0.09 -0.043,0.09 -0.012,0.117 -0.02,0.117 0.008,0.082 0.028,0.071 0.113,0.062 0.058,0.094 -0.039,0.078 0.032,0.078 0.015,0.059 0.039,0.058 0.075,0.051 0.035,0.051 0.035,-0.016 0.047,0.039 0.039,0.098 0.047,0.055 0.043,0.019 0.07,0.02 0.066,-0.012 0.035,0.031 0.055,0.031 0.063,-0.015 0.097,-0.008 0.102,-0.027 0.07,0.023 0.059,-0.023 0.078,-0.051 0.09,-0.008 0.105,-0.016 -0.035,-0.011 0.023,-0.039 0.176,-0.09" style="fill:none;stroke:#000000;stroke-width:2.61538;stroke-linecap:round;stroke-linejoin:round;stroke-miterlimit:10;stroke-dasharray:none;stroke-opacity:1" id="path402" />
         </g>
         <g id="g404" transform="scale(1,-1)">
            <path d="m 744.26845,-140.2222 c 6.17767,4.1868 15.81469,8.24237 23.4365,7.05532 7.18246,-0.3104 13.62195,-4.87922 16.74404,-11.27719 2.57636,-4.79669 4.40105,-10.64325 1.73469,-15.80898 -1.67931,-5.46948 -6.60819,-8.69934 -10.53139,-12.4603 -4.71389,-3.83794 -10.38227,-6.56233 -16.27274,-8.01641 -7.64076,-0.44565 -16.9411,1.53071 -20.37955,9.23376 -2.1165,5.76041 -3.71048,12.24304 -1.805,18.305 1.87081,4.61097 4.35183,8.82391 7.07345,12.9688 2.74202,3.23041 6.20317,4.79878 10.34455,5.6322" style="fill:none;stroke:#000000;stroke-width:2.61538;stroke-linecap:round;stroke-linejoin:round;stroke-miterlimit:10;stroke-dasharray:none;stroke-opacity:1" id="path406" sodipodi:nodetypes="cccccccccc" />
         </g>
         <g id="g408" transform="scale(1,-1)">
            <path d="m 755.812,-146.461 c 2.47759,2.61073 6.57784,2.22284 9.711,1.17201" style="fill:none;stroke:#000000;stroke-width:2.61538;stroke-linecap:round;stroke-linejoin:round;stroke-miterlimit:10;stroke-dasharray:none;stroke-opacity:1" id="path410" />
         </g>
         <g id="g412" transform="scale(1,-1)">
            <path d="m 769.316,-146.953 c 2.06378,-0.54849 6.07889,-4.12588 4.395,-6.379" style="fill:none;stroke:#000000;stroke-width:2.61538;stroke-linecap:round;stroke-linejoin:round;stroke-miterlimit:10;stroke-dasharray:none;stroke-opacity:1" id="path414" />
         </g>
         <g id="g416" transform="scale(1,-1)">
            <path d="m 776.211,-158.824 c 0.46337,-3.66545 -2.61216,-9.22029 -6.20299,-9.813" style="fill:none;stroke:#000000;stroke-width:2.61538;stroke-linecap:round;stroke-linejoin:round;stroke-miterlimit:10;stroke-dasharray:none;stroke-opacity:1" id="path418" />
         </g>
         <g id="g420" transform="scale(1,-1)">
            <path d="m 764.492,-171.25 c -3.13186,-1.18037 -6.84803,-0.57736 -9.508,1.434" style="fill:none;stroke:#000000;stroke-width:2.61538;stroke-linecap:round;stroke-linejoin:round;stroke-miterlimit:10;stroke-dasharray:none;stroke-opacity:1" id="path422" />
         </g>
         <g id="g424" transform="scale(1,-1)">
            <path d="m 750.816,-169.023 c -2.63279,2.42835 -2.79623,5.93652 -3.97107,9.03944 l -0.13393,0.46054" style="fill:none;stroke:#000000;stroke-width:2.61538;stroke-linecap:round;stroke-linejoin:round;stroke-miterlimit:10;stroke-dasharray:none;stroke-opacity:1" id="path426" />
         </g>
         <g id="g428" transform="scale(1,-1)">
            <path d="m 748.902,-156.594 c -2.75861,3.04123 1.23126,6.25057 3.25584,8.36259 l 0.0762,0.45441" style="fill:none;stroke:#000000;stroke-width:2.61538;stroke-linecap:round;stroke-linejoin:round;stroke-miterlimit:10;stroke-dasharray:none;stroke-opacity:1" id="path430" />
         </g>
         <g id="g432" transform="scale(1,-1)">
            <path d="m 755.703,-153.48 c 1.3802,-1.46511 -3.0472,-2.4839 -1.76294,-3.46265 2.1006,-1.18303 0.71902,-3.55628 -0.17164,-4.93586 -1.03673,-1.56259 1.30343,-2.12796 1.76234,-3.28427 2.12589,1.95342 3.32275,-1.34048 5.25311,-1.53206 1.09914,-0.0367 1.93026,0.0869 2.07399,1.04686 1.25035,1.01971 2.13023,-1.36767 0.63196,0.0545 -0.98865,1.14872 -1.55335,2.53457 0.13604,3.29255 1.22888,1.97895 4.45608,0.93121 5.43785,0.83949 0.59777,1.62529 0.77454,4.85408 2.27722,4.84692 -0.92604,1.42776 -4.06466,1.26928 -4.03659,3.35337 0.19194,1.16857 0.35431,2.77534 -0.89586,1.17913 -1.63414,-1.15749 -1.67117,2.85776 -3.75285,1.93318 -1.66543,-0.0932 -3.69724,1.63496 -4.058,-0.954 -0.32551,-1.58945 -1.51394,-2.86633 -2.96786,-2.30204 -0.33756,-0.0487 -0.44572,-0.41309 -0.66907,-0.51847" style="fill:none;stroke:#000000;stroke-width:2.61538;stroke-linecap:round;stroke-linejoin:round;stroke-miterlimit:10;stroke-dasharray:none;stroke-opacity:1" id="path434" />
         </g>
         <g id="g436" transform="scale(1,-1)">
            <path d="m 766.02,-138.879 c 3.40853,1.3385 7.0034,-1.29985 10.13934,-2.4039 1.08413,-0.7632 2.23673,-1.76616 2.44966,-3.14713" style="fill:none;stroke:#000000;stroke-width:2.61538;stroke-linecap:round;stroke-linejoin:round;stroke-miterlimit:10;stroke-dasharray:none;stroke-opacity:1" id="path438" />
         </g>
         <g id="g440" transform="scale(1,-1)">
            <path d="m 755.922,-141.102 c -4.58096,-1.19458 -7.26979,-5.27203 -10.5591,-8.35027 -2.44551,-2.29938 -3.62661,-5.45877 -3.96193,-8.73504 -0.41411,-2.70765 -0.24294,-6.33987 1.63003,-8.35969" style="fill:none;stroke:#000000;stroke-width:2.61538;stroke-linecap:round;stroke-linejoin:round;stroke-miterlimit:10;stroke-dasharray:none;stroke-opacity:1" id="path442" />
         </g>
         <g id="g444" transform="scale(1,-1)">
            <path d="m 745.516,-172.363 c 2.07587,0.31482 3.99055,-3.67287 6.722,-2.25003" style="fill:none;stroke:#000000;stroke-width:2.61538;stroke-linecap:round;stroke-linejoin:round;stroke-miterlimit:10;stroke-dasharray:none;stroke-opacity:1" id="path446" />
         </g>
         <g id="g448" transform="scale(1,-1)">
            <path d="m 779.477,-152.746 c 1.02595,-2.50711 1.10257,-6.6733 -0.27,-9.098" style="fill:none;stroke:#000000;stroke-width:2.61538;stroke-linecap:round;stroke-linejoin:round;stroke-miterlimit:10;stroke-dasharray:none;stroke-opacity:1" id="path450" />
         </g>
         <g id="g452" transform="scale(1,-1)">
            <path d="m 891.344,-123.148 c 8.6144,3.50781 18.507,-3.18559 20.76726,-11.67023 1.23571,-5.55598 -0.63547,-11.15099 -1.94316,-16.50711 -2.16919,-6.50912 -7.38102,-11.83663 -13.48552,-14.7827 -6.1983,-2.01839 -14.18317,-1.52082 -18.85205,3.50487 -4.6237,6.7005 -6.46135,15.60979 -3.18686,23.28435 1.78104,5.51862 4.10272,11.79524 9.96625,14.09779 3.69398,1.64444 7.70937,2.77195 11.77708,2.76403" style="fill:none;stroke:#000000;stroke-width:2.61538;stroke-linecap:round;stroke-linejoin:round;stroke-miterlimit:10;stroke-dasharray:none;stroke-opacity:1" id="path454" sodipodi:nodetypes="cccccccc" />
         </g>
         <g id="g456" transform="scale(1,-1)">
            <path d="m 892.52,-132.699 c 1.8611,0.0839 3.91252,-0.04 5.34584,-1.37927 0.48425,-0.33155 0.9625,-0.69753 1.52516,-0.88673" style="fill:none;stroke:#000000;stroke-width:2.61538;stroke-linecap:round;stroke-linejoin:round;stroke-miterlimit:10;stroke-dasharray:none;stroke-opacity:1" id="path458" />
         </g>
         <g id="g460" transform="scale(1,-1)">
            <path d="m 893.516,-138.707 c -0.83969,-0.0742 -0.19086,0.22855 -0.47124,-0.48962 -0.0732,-0.85906 0.74195,-1.26953 1.59341,-1.0613 0.81425,-0.24177 1.73937,0.5768 1.6548,-0.086 0.81649,-0.38994 0.0509,-0.77814 0.008,-1.21417 -0.7061,-0.74826 1.23807,-1.14821 1.78116,-1.31727 0.93558,-0.092 0.7121,0.002 0.32774,-0.40756 -0.83547,-0.38154 -1.65951,-0.81585 -2.53251,-0.89542 -0.43718,-0.33103 -1.5736,-0.20636 -1.62443,-0.48674 0.14001,0.1618 1.31102,-0.59983 1.56288,-1.27709 0.11585,-0.44175 0.64432,-1.08277 0.0885,-1.37924 0.40558,-0.27126 1.01372,-1.93711 0.0883,-1.48106 -1.04014,-0.37224 -2.03326,0.23276 -3.07671,-0.002 -0.47041,0.12799 -0.99627,0.20262 -0.24294,-0.20109 0.31719,-0.92507 1.99138,-1.67859 0.98313,-2.67559 -0.0817,-0.31117 0.0321,-0.37212 -0.40387,-0.43045 -0.6958,0.3267 -1.82678,0.60076 -2.01961,-0.21528 -0.89757,-0.0889 -1.30176,-1.56147 -2.06543,-1.40552 -0.38128,-0.31685 -1.65417,0.10204 -1.60291,0.25335 -0.41493,0.27411 0.24709,1.61538 0.39306,1.78677 0.37335,0.18863 -1.72459,-0.0873 -1.38964,0.13639 0.19314,-0.0891 -0.75992,0.73935 -0.37548,1.2262 0.14318,0.98099 1.09386,1.9576 1.16349,2.75904 -0.66712,0.20972 -1.34454,0.8155 -1.89858,1.10751 -1.28066,0.29045 0.44798,1.33228 0.6851,1.87131 -0.233,0.39187 0.34617,0.74525 -0.33225,0.98833 -0.75548,0.43024 -0.70085,0.34499 -0.59979,0.29792 0.37882,0.0199 1.23601,1.21769 2.03244,1.58207 -0.16783,0.45715 1.20658,1.46445 1.50762,2.26632 0.31977,-0.0107 1.53493,-0.43803 1.121,-0.2655 -0.11244,0.0109 -0.0175,0.16458 -0.047,0.211" style="fill:none;stroke:#000000;stroke-width:2.61538;stroke-linecap:round;stroke-linejoin:round;stroke-miterlimit:10;stroke-dasharray:none;stroke-opacity:1" id="path462" />
         </g>
         <g id="g464" transform="scale(1,-1)">
            <path d="m 887.566,-136.406 c -1.82516,0.037 -2.69913,-2.68934 -4.02739,-3.82125 -0.31993,-0.42513 -0.60008,-0.88171 -0.81961,-1.36675" style="fill:none;stroke:#000000;stroke-width:2.61538;stroke-linecap:round;stroke-linejoin:round;stroke-miterlimit:10;stroke-dasharray:none;stroke-opacity:1" id="path466" />
         </g>
         <g id="g468" transform="scale(1,-1)">
            <path d="m 880.398,-152.082 c 1.19074,-1.78529 2.34606,-4.26494 4.7517,-4.51302 0.43532,-0.11315 1.05766,-0.51957 1.4013,-0.007" style="fill:none;stroke:#000000;stroke-width:2.61538;stroke-linecap:round;stroke-linejoin:round;stroke-miterlimit:10;stroke-dasharray:none;stroke-opacity:1" id="path470" />
         </g>
         <g id="g472" transform="scale(1,-1)">
            <path d="m 892.277,-156.652 c 2.10529,1.09415 4.47285,2.00482 5.87222,4.0346 0.47514,0.40195 1.09823,0.78045 1.17878,1.4614" style="fill:none;stroke:#000000;stroke-width:2.61538;stroke-linecap:round;stroke-linejoin:round;stroke-miterlimit:10;stroke-dasharray:none;stroke-opacity:1" id="path474" />
         </g>
         <g id="g476" transform="scale(1,-1)">
            <path d="m 901.777,-146.172 c 0.48837,1.82519 0.94338,3.83236 0.2923,5.67506 0.2348,0.60707 -0.57707,1.14373 -0.14333,1.71594" style="fill:none;stroke:#000000;stroke-width:2.61538;stroke-linecap:round;stroke-linejoin:round;stroke-miterlimit:10;stroke-dasharray:none;stroke-opacity:1" id="path478" />
         </g>
         <g id="g480" transform="scale(1,-1)">
            <path d="m 886.383,-129.66 c 0.56024,-0.53062 2.24203,1.50537 3.179,1.472" style="fill:none;stroke:#000000;stroke-width:2.61538;stroke-linecap:round;stroke-linejoin:round;stroke-miterlimit:10;stroke-dasharray:none;stroke-opacity:1" id="path482" />
         </g>
         <g id="g484" transform="scale(1,-1)">
            <path d="m 894.012,-128.062 c 1.59214,0.28523 3.95899,1.0007 5.269,0.097" style="fill:none;stroke:#000000;stroke-width:2.61538;stroke-linecap:round;stroke-linejoin:round;stroke-miterlimit:10;stroke-dasharray:none;stroke-opacity:1" id="path486" />
         </g>
         <g id="g488" transform="scale(1,-1)">
            <path d="m 903.93,-131.168 c 1.27422,-1.41612 2.01942,-3.1683 2.75822,-4.86353 0.19802,-0.56949 2.5312,-2.25721 1.14378,-2.51147" style="fill:none;stroke:#000000;stroke-width:2.61538;stroke-linecap:round;stroke-linejoin:round;stroke-miterlimit:10;stroke-dasharray:none;stroke-opacity:1" id="path490" />
         </g>
         <g id="g492" transform="scale(1,-1)">
            <path d="m 906.207,-144.41 c 0.40348,-2.04798 -0.23739,-4.27718 -1.22586,-6.07655 -1.01706,-1.52983 -2.73999,-2.61763 -3.42179,-4.33106 -0.13793,-0.11111 -0.32493,-0.0707 -0.46935,-0.16239" style="fill:none;stroke:#000000;stroke-width:2.61538;stroke-linecap:round;stroke-linejoin:round;stroke-miterlimit:10;stroke-dasharray:none;stroke-opacity:1" id="path494" />
         </g>
         <g id="g496" transform="scale(1,-1)">
            <path d="m 893.48,-161.16 c -2.42081,-1.17364 -5.17251,-0.57935 -7.72726,-0.33222 -0.4293,0.0708 -0.85531,0.18543 -1.24474,0.3832" style="fill:none;stroke:#000000;stroke-width:2.61538;stroke-linecap:round;stroke-linejoin:round;stroke-miterlimit:10;stroke-dasharray:none;stroke-opacity:1" id="path498" />
         </g>
         <g id="g500" transform="scale(1,-1)">
            <path d="m 878.797,-159.254 c -0.35884,1.19946 -1.3877,2.09306 -1.58603,3.356" style="fill:none;stroke:#000000;stroke-width:2.61538;stroke-linecap:round;stroke-linejoin:round;stroke-miterlimit:10;stroke-dasharray:none;stroke-opacity:1" id="path502" />
         </g>
         <g id="g504" transform="scale(1,-1)">
            <path d="m 877.277,-146.363 c 0.67846,2.16021 0.45003,4.44811 0.55116,6.66551 0.57892,2.48199 2.08933,4.60955 3.49184,6.68949" style="fill:none;stroke:#000000;stroke-width:2.61538;stroke-linecap:round;stroke-linejoin:round;stroke-miterlimit:10;stroke-dasharray:none;stroke-opacity:1" id="path506" />
         </g>
         <g id="g508" transform="scale(1,-1)">
            <path d="m 831.906,-188.523 -0.031,0.019 -0.055,0.027 -0.105,0.039 -0.078,0.04 -0.082,0.027 0.078,0.023 0.008,-0.011 -0.129,-0.008 -0.039,-0.035 -0.028,0.004 -0.015,0.023 h -0.024 l -0.082,-0.012 -0.051,-0.011 0.063,-0.059 0.016,-0.047 0.015,0.016 0.004,-0.004 h 0.133 l 0.035,-0.016 -0.066,0.016 -0.032,-0.004 -0.015,-0.047 -0.016,-0.023 0.016,-0.016 -0.063,-0.027 -0.074,0.007 -0.031,-0.023 -0.035,-0.027 v 0.007 l -0.071,-0.046 -0.027,-0.036 -0.066,-0.039 h -0.164 l -0.083,0.004 -0.078,0.024 -0.144,-0.004 -0.102,0.004 -0.039,0.019 -0.109,0.047 -0.106,0.043 -0.109,0.008 -0.129,0.031 -0.098,0.043 -0.066,0.055 -0.082,0.058 -0.094,0.055 -0.078,0.031 -0.07,0.039 -0.203,0.059 -0.145,0.059 0.047,-0.02 -0.016,0.023 -0.019,0.075 -0.035,0.051 0.062,0.062 0.164,0.035 -0.031,0.067 -0.113,0.07 -0.078,0.066 -0.02,0.012 -0.008,0.039 -0.019,0.082 -0.004,0.074 -0.016,-0.027 -0.027,0.016 0.015,0.117 -0.015,0.101 0.027,0.067 0.016,0.09 -0.039,0.097 -0.008,0.074 -0.004,0.094 -0.004,0.125 v 0.117 l 0.113,0.102 0.024,0.141 -0.11,0.156 -0.031,0.168 -0.019,0.125 -0.02,0.133 -0.015,0.14 -0.067,0.157 -0.051,0.164 0.032,0.132 -0.004,0.118 -0.004,0.136 -0.02,0.137 0.086,0.125 0.051,0.121 -0.02,0.129 0.024,0.113 0.055,0.063 0.05,0.058 0.047,0.051 0.094,0.027 0.066,0.083 0.043,0.054 0.063,-0.004 0.074,-0.015 h 0.02 v -0.02 l 0.089,-0.047 0.11,-0.011 0.113,-0.028 0.082,-0.047 0.067,-0.05 0.003,-0.043 0.055,-0.055 0.141,-0.102 0.133,-0.05 0.101,-0.043 0.09,-0.059 0.113,-0.086 0.223,-0.098 0.07,-0.097 -0.015,-0.055 0.066,-0.098 0.059,-0.113 0.062,-0.078 -0.051,-0.086 0.012,-0.102 0.098,-0.156 0.07,-0.117 0.035,0.031 0.047,-0.058 0.121,-0.074 0.121,-0.043 -0.011,-0.055 0.007,-0.074 v -0.067 l -0.007,-0.058 -0.051,-0.063 -0.031,-0.094 -0.055,-0.117 -0.008,-0.094 -0.016,-0.062 -0.047,-0.059 0.012,-0.062 -0.121,-0.035 -0.113,-0.078 0.015,-0.067 -0.035,-0.055 0.004,-0.07 -0.039,-0.055 0.004,-0.046 -0.016,-0.051 -0.101,-0.004 -0.102,-0.043 -0.093,-0.039 -0.098,-0.012 -0.078,-0.027 h -0.121 l -0.137,0.039 -0.129,-0.02 -0.125,-0.043 -0.109,0.032 -0.164,0.007 -0.161,0.008 -0.05,-0.019 h -0.063 l -0.082,0.039 -0.07,0.035 -0.07,0.023 -0.028,0.032 -0.031,0.039 -0.063,0.066 -0.074,0.074 -0.07,0.012 -0.035,0.043 -0.059,0.055 v 0.062 l -0.035,0.051 -0.113,0.055 -0.106,0.113 -0.09,0.09 -0.086,0.074 -0.058,0.09 -0.086,0.097 -0.125,0.032 -0.113,0.078 -0.086,0.168 -0.074,0.117 0.011,0.098 0.082,0.097 -0.051,0.09 -0.093,0.129 -0.047,0.133 0.008,0.074 0.019,0.09 -0.137,0.094 -0.042,0.105 0.167,0.004 0.11,0.09 0.113,0.133 0.129,0.101 0.203,0.094 0.184,0.082 0.086,0.063 0.121,0.086 0.156,0.089 0.145,0.055 0.132,0.039 0.114,0.035 0.125,0.043 0.152,0.047 0.164,0.012 0.16,-0.035 h 0.133 l 0.16,-0.032 0.117,-0.027 0.121,-0.043 0.168,-0.062 0.153,-0.063 0.133,-0.043 0.093,-0.051 0.055,-0.066 0.102,-0.07 0.101,-0.094 0.094,-0.09 0.066,-0.066 0.067,-0.086 0.109,-0.082 0.031,-0.086 -0.035,-0.024 -0.012,-0.082 -0.007,-0.125 0.015,-0.054 -0.062,-0.075 -0.024,-0.07 -0.019,-0.078 -0.028,-0.086 -0.027,-0.047 -0.023,-0.015 -0.024,-0.032 0.071,-0.047 0.015,-0.058 -0.039,-0.028 -0.023,-0.023 h -0.012 l -0.02,-0.023 0.032,-0.028 0.082,-0.019 -0.043,-0.039 -0.094,0.011 -0.043,0.004 -0.039,-0.031 -0.059,-0.027 -0.199,-0.008 -0.051,-0.012 -0.039,-0.062 -0.058,-0.024 -0.043,0.028 -0.055,0.015 -0.031,0.02 -0.024,0.027 -0.101,0.016 -0.133,0.125" style="fill:none;stroke:#000000;stroke-width:2.61538;stroke-linecap:round;stroke-linejoin:round;stroke-miterlimit:10;stroke-dasharray:none;stroke-opacity:1" id="path510" />
         </g>
         <g id="g512" transform="scale(1,-1)">
            <path d="m 834.105,-113.367 c -0.0987,0.60856 -0.99104,-0.25413 -1.58699,0.39988 -0.86027,0.54065 0.13576,1.3393 0.20358,2.03048 0.18457,0.80311 1.28095,0.83601 1.67341,0.18254 0.39829,-0.5668 1.18135,-1.07866 0.9581,-1.78773 0.63376,-0.46984 0.4378,-1.96486 -0.53596,-1.57515 -0.87307,-0.006 -1.47607,0.61144 -2.1907,0.98543 -0.47057,0.19316 -1.11087,0.55838 -0.48129,1.04204" style="fill:none;stroke:#000000;stroke-width:2.61538;stroke-linecap:round;stroke-linejoin:round;stroke-miterlimit:10;stroke-dasharray:none;stroke-opacity:1" id="path514" />
         </g>
         <g id="g516" transform="scale(1,-1)">
            <path d="m 830.688,-94.113 c 1.03622,-0.307608 2.16562,0.305391 3.26569,0.27666 0.98488,0.300752 1.98319,0.535345 3.02733,0.457509 0.52818,0.137543 2.31745,-0.135855 2.19322,-0.01416 -1.53099,-0.404651 -2.99107,-1.145784 -4.60307,-1.215382 -0.76332,0.0079 -2.36715,-0.263127 -2.56217,0.107071 1.58258,0.0088 3.16252,0.119603 4.74441,0.118934 0.40367,0.06598 0.97065,0.125314 1.03154,0.624434" style="fill:none;stroke:#000000;stroke-width:2.61538;stroke-linecap:round;stroke-linejoin:round;stroke-miterlimit:10;stroke-dasharray:none;stroke-opacity:1" id="path518" />
         </g>
         <g id="g520" transform="scale(1,-1)">
            <path d="m 834.168,-96.152 c 0.36076,-0.946499 0.13087,-3.143958 1.83376,-2.373398 0.85248,0.366996 0.78683,1.63002 -0.0798,1.896386" style="fill:none;stroke:#000000;stroke-width:2.61538;stroke-linecap:round;stroke-linejoin:round;stroke-miterlimit:10;stroke-dasharray:none;stroke-opacity:1" id="path522" />
         </g>
         <g id="g820" transform="scale(1,-1)">
            <path d="m 686.477,-235.754 c 0.46627,7.19998 -0.34952,14.86305 -0.30685,22.23403 -0.79322,39.78139 -3.77343,79.49024 -4.16553,119.281687 -0.2257,3.413302 0.5477,10.193241 -0.29234,10.181011 -4.27733,1.940046 -2.05721,2.391882 0.37959,-0.425247 1.61675,-1.905019 -0.25188,6.576238 0.80315,8.072519 0.39644,5.669527 -0.38016,9.158651 -0.78202,14.832 l -0.015,-0.047" style="fill:none;stroke:#000000;stroke-width:2.61538;stroke-linecap:round;stroke-linejoin:round;stroke-miterlimit:10;stroke-dasharray:none;stroke-opacity:1" id="path822" sodipodi:nodetypes="cccccccc" />
         </g>
         <g id="g824" transform="scale(1,-1)">
            <path d="m 676.855,-54.992 7.02221,-182.49568" style="fill:none;stroke:#000000;stroke-width:2.61538;stroke-linecap:round;stroke-linejoin:round;stroke-miterlimit:10;stroke-dasharray:none;stroke-opacity:1" id="path826" sodipodi:nodetypes="cc" />
         </g>
         <g id="g1056" transform="scale(1,-1)">
            <path d="m 925.926,-153.973 c -2.89704,-0.53131 5.61213,0.75466 2.63851,-2.34474 -0.99032,-3.54981 -0.26477,-7.31923 -1.22779,-10.8902 -0.67066,-3.62396 -1.65052,-7.45811 -0.53017,-11.07604 -0.44359,-3.11002 -0.14369,2.45228 -0.45894,3.31016 -0.31978,3.09041 0.15778,6.1735 -0.0911,9.26529 0.85764,2.36928 1.6165,-2.71921 0.91606,-3.76708 -1.12451,-3.197 -2.06711,-6.49212 -3.40706,-9.59463 -1.99337,-2.34157 -5.61611,-1.92536 -8.26234,-3.26786 -1.53953,-0.5061 -5.52499,-0.38224 -1.8131,-0.37443 1.51465,-0.0281 6.32309,-0.008 5.59694,0.30619 -1.25392,-0.36664 -4.37471,-0.60283 -4.52141,-0.67516 l 0.33631,-0.14104" style="fill:none;stroke:#000000;stroke-width:1.30769;stroke-linecap:round;stroke-linejoin:round;stroke-miterlimit:10;stroke-dasharray:none;stroke-opacity:1" id="path1058" />
         </g>
         <g id="g1060" transform="scale(1,-1)">
            <path d="m 834.504,-113.406 c -0.006,-0.17976 -0.12581,-0.74326 0.0168,-0.22227 -0.0116,-0.47464 -0.28947,0.0487 -0.21272,-0.20525 -0.87874,0.41664 -1.76577,0.84579 -2.18413,1.7232 -0.0893,0.72085 -0.7934,1.37751 -0.56025,2.10805 0.382,0.83 1.40329,0.45884 2.09138,0.70244 0.93424,0.007 1.96871,0.0453 2.71168,-0.62218 0.6737,-0.4783 1.26991,-1.12589 1.55971,-1.90687 0.24981,-0.9169 -0.7873,-1.44881 -1.54424,-1.10042 -0.89425,0.1504 -1.88189,-0.11298 -2.63629,0.51621 -0.41961,0.21054 -1.3611,0.73877 -1.53716,0.39936 0.0413,-3.5e-4 0.33476,-0.12049 0.2171,0.0487" style="fill:none;stroke:#000000;stroke-width:1.30769;stroke-linecap:round;stroke-linejoin:round;stroke-miterlimit:10;stroke-dasharray:none;stroke-opacity:1" id="path1062" />
         </g>
         <g id="g1064" transform="scale(1,-1)">
            <path d="m 829.66,-187.051 -0.008,0.02 -0.007,0.051 -0.133,0.093 -0.207,0.137 0.086,-0.012 -0.032,-0.062 -0.019,-0.02 -0.051,0.02 -0.113,-0.016 -0.051,-0.019 0.035,-0.004 v -0.02 h -0.043 l -0.004,-0.004 0.02,-0.023 -0.004,-0.168 0.008,-0.016 0.008,0.086 0.015,0.016 0.012,-0.004 v 0.027 -0.004 l -0.043,0.039 h 0.023 l 0.012,-0.004 0.008,-0.007 -0.012,0.023 -0.086,-0.183 0.047,-0.086 0.035,0.125 v -0.016 l 0.004,0.023 0.203,-0.011 -0.172,0.023 -0.027,0.004 -0.023,0.074 -0.012,0.008 -0.133,0.008 -0.062,0.058 -0.004,0.004 -0.016,-0.004 -0.008,-0.023 -0.004,0.055 -0.004,0.047 h 0.02 l 0.016,-0.039 -0.118,-0.055 -0.062,0.058 -0.055,0.028 -0.039,0.027 -0.027,0.024 0.012,0.062 -0.028,0.051 -0.043,-0.012 -0.023,0.074 -0.055,0.063 0.004,0.019 -0.105,0.161 -0.086,0.148 0.05,-0.023 0.012,0.003 h 0.016 l 0.011,0.024 v 0.039 l 0.004,0.023 0.047,0.098 -0.019,0.074 v 0.074 l 0.004,0.125 0.039,0.125 0.043,0.067 -0.008,0.109 -0.024,0.11 v 0.027 l 0.043,0.098 -0.011,0.097 -0.137,0.09 -0.035,0.109 0.113,0.02 0.102,0.004 0.05,0.027 h 0.055 l 0.145,0.024 0.046,-0.153 0.004,-0.07 0.114,0.106 0.07,0.035 0.059,0.015 0.046,0.004 0.274,0.024 0.183,0.109 -0.011,0.008 0.156,-0.09 0.18,-0.023 0.156,-0.067 0.172,-0.027 0.062,-0.09 0.067,-0.106 0.203,-0.023 0.164,-0.07 0.152,-0.074 0.094,-0.063 0.398,-0.07 0.27,-0.137 -0.109,-0.063 0.05,-0.039 0.036,-0.043 0.027,-0.05 -0.051,-0.063 -0.031,-0.008 0.015,-0.015 0.012,-0.063 -0.004,-0.043 0.008,-0.05 -0.004,-0.028 -0.062,0.055 -0.004,-0.055 0.008,-0.109 -0.012,-0.063 -0.012,-0.07 -0.012,-0.016 -0.039,-0.093 0.02,-0.118 -0.016,0.036 -0.058,-0.028 -0.008,-0.105 -0.07,-0.024 -0.008,-0.066 -0.032,-0.004 -0.042,0.004 -0.02,-0.027 -0.008,-0.055 -0.078,-0.055 -0.07,-0.019 -0.16,-0.036 -0.145,-0.015 0.008,-0.016 -0.043,-0.023 -0.016,-0.016 -0.011,-0.004 -0.047,-0.004 -0.063,-0.175 -0.152,-0.028 -0.125,0.157 -0.106,-0.008 -0.07,0.043 -0.109,0.039 -0.09,0.07 -0.106,0.152 -0.132,0.082 -0.11,-0.035 -0.156,0.047 -0.152,0.067 -0.008,0.07 -0.16,0.012 -0.25,0.011 -0.071,0.157 -0.136,0.16 -0.118,0.093 -0.117,0.086 0.211,0.071 0.039,0.238 -0.332,0.172 -0.203,0.086 -0.125,0.148 -0.055,0.082 -0.062,0.133 -0.086,0.156 -0.117,0.075 v 0.046 l -0.043,0.059 v 0.035 l -0.02,0.043 0.039,0.11 0.055,-0.004 0.023,-0.024 0.043,0.028 0.039,0.023 0.04,0.016 h 0.007 l 0.102,0.039 0.156,0.043 0.059,-0.043 0.043,-0.004 0.031,0.031 0.043,-0.004 0.012,0.125 0.109,0.039 0.09,-0.144 0.09,0.011 0.082,-0.023 0.105,-0.051 0.02,-0.125 0.082,-0.152 0.156,-0.02 0.055,0.047 0.086,-0.051 0.07,-0.082 0.113,-0.093 0.199,-0.043 0.09,-0.055 0.008,-0.067 0.043,-0.089 0.012,-0.067 0.039,-0.039 -0.059,-0.051 -0.035,0.036 0.055,-0.024 0.027,-0.086 0.016,-0.027 0.008,-0.004 0.136,-0.024 -0.004,-0.148 -0.129,-0.047 0.004,0.074 -0.019,0.028 -0.02,0.043 -0.015,0.054 0.023,-0.019 v 0.133 l -0.121,0.062 -0.012,-0.121 -0.011,-0.051 0.039,0.059 0.078,0.047 -0.16,0.004 -0.102,-0.086 0.094,-0.004 -0.004,-0.035 -0.043,0.007 -0.035,0.032 0.07,-0.012" style="fill:none;stroke:#000000;stroke-width:1.30769;stroke-linecap:round;stroke-linejoin:round;stroke-miterlimit:10;stroke-dasharray:none;stroke-opacity:1" id="path1066" />
         </g>
      </g>
   </g>
</svg>
