<?xml version="1.0" encoding="UTF-8" standalone="no"?>
<!-- Created by Ashley Blewer - This work is licensed under a Creative Commons Attribution 4.0 International License -->

<svg width="544" height="480" viewBox="0 0 143.93334 127" version="1.1" id="svg2490" inkscape:version="1.1.2 (08b2f3d93c, 2022-04-05)" sodipodi:docname="1985-video8-4.svg"
   xmlns:inkscape="http://www.inkscape.org/namespaces/inkscape"
   xmlns:sodipodi="http://sodipodi.sourceforge.net/DTD/sodipodi-0.dtd"
   xmlns="http://www.w3.org/2000/svg"
   xmlns:svg="http://www.w3.org/2000/svg">
   <sodipodi:namedview id="namedview2492" pagecolor="#ffffff" bordercolor="#666666" borderopacity="1.0" inkscape:pageshadow="2" inkscape:pageopacity="0.0" inkscape:pagecheckerboard="0" inkscape:document-units="mm" showgrid="false" units="px" inkscape:zoom="0.90583674" inkscape:cx="272.67607" inkscape:cy="177.18425" inkscape:window-width="1848" inkscape:window-height="1136" inkscape:window-x="72" inkscape:window-y="27" inkscape:window-maximized="1" inkscape:current-layer="layer1" />
   <defs id="defs2487" />
   <g inkscape:label="Layer 1" inkscape:groupmode="layer" id="layer1">
      <g id="g25471" transform="matrix(0.37360243,0,0,0.37360243,-293.23029,-164.79632)">
         <g id="g1118" transform="scale(1,-1)">
            <path d="m 797.137,-533.875 c -0.055,-0.313 0.664,-0.348 1.097,-1.352 2.786,-3.562 4.145,-7.925 6.684,-11.683 0.504,-1.094 1.996,-2.723 1.832,-3.469" style="fill:none;stroke:#000000;stroke-width:2.61538;stroke-linecap:round;stroke-linejoin:round;stroke-miterlimit:10;stroke-dasharray:none;stroke-opacity:1" id="path1120" />
         </g>
         <g id="g1122" transform="scale(1,-1)">
            <path d="m 807.246,-552.008 c -0.137,-0.519 0.727,-2.969 0.766,-4.332 0.871,-6.211 1.863,-11.863 2.777,-17.457 0.203,-1.715 0.637,-3.379 -0.336,-4.144 -1.101,-0.954 -2.324,1.953 -3.488,3.031 -1.84,2.551 -3.781,5.281 -4.43,8.004 -1.363,3.504 -1.683,6.676 -2.605,10.445 -0.754,3.582 -2.192,7.016 -2.067,10.91 -0.222,3.473 -1.308,7.024 -0.425,10.375 -0.266,0.114 0.078,-0.144 -0.043,0.215" style="fill:none;stroke:#000000;stroke-width:2.61538;stroke-linecap:round;stroke-linejoin:round;stroke-miterlimit:10;stroke-dasharray:none;stroke-opacity:1" id="path1124" />
         </g>
         <g id="g1126" transform="scale(1,-1)">
            <path d="m 800.445,-557.664 c 0.77,-0.184 2.035,-3.195 2.094,-3.461 -0.023,-0.02 -0.062,-0.02 -0.074,0.012" style="fill:none;stroke:#000000;stroke-width:2.61538;stroke-linecap:round;stroke-linejoin:round;stroke-miterlimit:10;stroke-dasharray:none;stroke-opacity:1" id="path1128" />
         </g>
         <g id="g1130" transform="scale(1,-1)">
            <path d="m 807.977,-551.719 c 0.015,-0.125 0.628,-2.742 0.882,-3.75 1.871,-6.742 2.602,-13.617 4.657,-20.125 3.83882,-19.68865 8.46313,-40.32596 9.929,-58.949 0.192,-1.848 1.53141,-6.82755 1.05941,-5.90655 -0.008,0.106 -1.98441,3.80155 -2.53541,4.77755 -3.84761,7.67033 -9.54635,13.88925 -12.496,21.473 -0.094,-0.239 -0.426,2.453 -0.516,3.086 -4.27559,24.50767 -11.32394,55.02696 -11.82,77.238" style="fill:none;stroke:#000000;stroke-width:2.61538;stroke-linecap:round;stroke-linejoin:round;stroke-miterlimit:10;stroke-dasharray:none;stroke-opacity:1" id="path1132" sodipodi:nodetypes="ccccccccc" />
         </g>
         <g id="g1134" transform="scale(1,-1)">
            <path d="m 808.949,-597.039 c 1.516,-1.867 3.254,-5.563 5.113,-7.902 1.067,-1.313 2.274,-3.997 2.555,-4.571 0.809,-2.066 0.903,-6.121 1.899,-8.726 0.621,-3.278 1.152,-6.055 2.148,-9.16 0.406,-2.161 -1.047,1.71 -2.055,2.605 -2.23,3.813 -4.918,7.902 -6.898,11.25 -0.57,3.957 -2.184,8.793 -2.84,13.246 -0.195,1.129 -0.484,2.067 -0.711,3.012" style="fill:none;stroke:#000000;stroke-width:2.61538;stroke-linecap:round;stroke-linejoin:round;stroke-miterlimit:10;stroke-dasharray:none;stroke-opacity:1" id="path1136" />
         </g>
         <g id="g1138" transform="scale(1,-1)">
            <path d="m 797.82,-532.688 190.356,60.676 c 0.265,0.086 0.461,0.024 0.711,0.176" style="fill:none;stroke:#000000;stroke-width:2.61538;stroke-linecap:round;stroke-linejoin:round;stroke-miterlimit:10;stroke-dasharray:none;stroke-opacity:1" id="path1140" />
         </g>
         <g id="g1142" transform="scale(1,-1)">
            <path d="m 988.887,-471.836 c 0.078,0.012 2.312,-1.699 2.996,-2.605 3.5,-3.493 5.676,-7.997 8.281,-11.204 0.625,-0.855 0.617,-0.476 0.578,-0.875 l -0.012,0.118" style="fill:none;stroke:#000000;stroke-width:2.61538;stroke-linecap:round;stroke-linejoin:round;stroke-miterlimit:10;stroke-dasharray:none;stroke-opacity:1" id="path1144" sodipodi:nodetypes="ccccc" />
         </g>
         <g id="g1146" transform="scale(1,-1)">
            <path d="m 1000.73,-486.402 c 0.414,1.23 0.493,-4.676 0.45,-6.106 -0.278,-4.25 0.738,-8.289 0.125,-12.574 -0.141,-2.695 -1.469,-4.684 -1.93,-6.523 -0.031,-0.77 -1.707,-1.274 -2.879,-1.692 -0.348,0.231 0.098,-0.223 -0.398,0.172 l -0.055,0.082" style="fill:none;stroke:#000000;stroke-width:2.61538;stroke-linecap:round;stroke-linejoin:round;stroke-miterlimit:10;stroke-dasharray:none;stroke-opacity:1" id="path1148" sodipodi:nodetypes="ccccccc" />
         </g>
         <g id="g1150" transform="scale(1,-1)">
            <path d="m 993.598,-487.656 c 1.218,0.218 4.097,0.715 5.285,1.254 -0.11,-0.086 0.027,0.14 -0.375,-0.09" style="fill:none;stroke:#000000;stroke-width:2.61538;stroke-linecap:round;stroke-linejoin:round;stroke-miterlimit:10;stroke-dasharray:none;stroke-opacity:1" id="path1152" />
         </g>
         <g id="g1154" transform="scale(1,-1)">
            <path d="m 994.562,-488.512 c 2.13586,-0.96947 1.90151,-3.57195 1.85816,-5.50836 0.0919,-2.99229 -0.14693,-5.98605 -0.55716,-8.94864 0.45094,-2.81862 -0.0765,-5.75184 0.60078,-8.51204 -0.45691,-2.23298 -0.94723,-4.38346 -0.27135,-6.59707 -0.50009,-1.45827 2.23712,-0.11102 1.62854,-2.04739 0.0384,-1.29013 -1.85338,-3.14011 -2.66607,-2.76452 0.74008,1.17814 0.0605,3.99383 0.21632,4.34273 0.0353,-1.97663 -0.25257,-3.94494 -0.15869,-5.92283 -0.0709,-0.84867 -0.0604,-2.60784 1.20146,-2.15887" style="fill:none;stroke:#000000;stroke-width:2.61538;stroke-linecap:round;stroke-linejoin:round;stroke-miterlimit:10;stroke-dasharray:none;stroke-opacity:1" id="path1156" />
         </g>
         <g id="g1158" transform="scale(1,-1)">
            <path d="m 998.016,-527.406 c 0.218,-1.039 -0.301,-4.848 -0.411,-6.926 l -2.363,-41.016" style="fill:none;stroke:#000000;stroke-width:2.61538;stroke-linecap:round;stroke-linejoin:round;stroke-miterlimit:10;stroke-dasharray:none;stroke-opacity:1" id="path1160" sodipodi:nodetypes="ccc" />
         </g>
         <g id="g1162" transform="scale(1,-1)">
            <path d="m 824.50441,-640.44955 c 29.87945,10.67997 62.89199,23.46076 89.06159,33.08255 2.8257,1.34222 -0.324,0.332 0,0" style="fill:none;stroke:#000000;stroke-width:2.61538;stroke-linecap:round;stroke-linejoin:round;stroke-miterlimit:10;stroke-dasharray:none;stroke-opacity:1" id="path1164" sodipodi:nodetypes="ccc" />
         </g>
         <g id="g1166" transform="scale(1,-1)">
            <path d="m 928.3207,-602.06983 c 5.965,1.011 19.3703,6.38983 25.8473,8.61283 6.527,2.543 13.016,5.105 19.629,7.098 5.562,1.625 10.379,4.421 15.305,5.937 1.812,1.356 3.929,1.578 5.078,2.445 0.754,0.161 1.308,2.774 1.062,2.629" style="fill:none;stroke:#000000;stroke-width:2.61538;stroke-linecap:round;stroke-linejoin:round;stroke-miterlimit:10;stroke-dasharray:none;stroke-opacity:1" id="path1168" sodipodi:nodetypes="cccccc" />
         </g>
         <g id="g1170" transform="scale(1,-1)">
            <path d="m 808.859,-550.852 c 0.711,0.485 1.207,2.551 1.051,3.633 0.078,1.903 2.582,2.938 5.016,3.172 4.008,1.414 8.844,3.981 12.57,4.008 0.746,0.105 0.367,-1.578 1.34,-1.82 -0.617,-0.286 0.203,-0.594 -0.32,-0.457 -2.778,-1.149 -6.621,-2.356 -10.161,-3.43 -3.035,-1.504 -7.32,-1.274 -10.21,-3.09" style="fill:none;stroke:#000000;stroke-width:2.61538;stroke-linecap:round;stroke-linejoin:round;stroke-miterlimit:10;stroke-dasharray:none;stroke-opacity:1" id="path1172" />
         </g>
         <g id="g1174" transform="scale(1,-1)">
            <path d="m 829.371,-543.707 c 0.207,0.375 3.613,0.582 3.766,-0.574 0.582,-2.403 1.32,-4.141 1.968,-6.836 0.415,-2.125 1.528,-5.145 1.543,-7.113 0.321,-0.903 0.52,-2.805 0.477,-3.153 -0.27,-0.152 2.109,0.746 2.945,0.879 1.809,0.215 2.301,-0.129 2.692,-1 0.105,0.066 -0.41,-0.105 1.238,0.336 6.426,2.145 12.504,4.641 19.059,6.871 4.972,1.797 10.363,3.402 15.894,3.66 4.863,0.418 10.488,0.879 14.426,0.176 0.262,-0.269 3.242,-0.883 2.34,-0.578 -0.989,-0.227 3.59,1.25 4.832,1.887 2.949,0.797 4.34,1.714 7.23,2.32 2.977,1.027 8.051,2.246 11.664,2.988 2.539,0.707 5.774,1.906 7.602,2.293 1.996,0.621 1.73,0.547 1.574,0.52 -0.422,0.117 -0.367,-0.297 0.313,0.902 1.64,1.348 0.925,2.703 1.562,3.774 0.891,1.355 2.473,2.171 3.676,3.371 1.305,1.039 3.996,2.48 6.055,3.894 5.503,3.856 11.832,5.914 17.875,8.625 3.07,1.231 6.66,2.406 9.394,2.961 2.18,0.414 3.25,0.84 5.285,1.402 0.528,0.352 2.106,0.918 1.547,0.762 -0.531,2.703 -1.105,5.594 -0.793,8.125 0.461,2.387 -0.308,3.965 -0.543,6.082 -0.187,1.434 -0.195,1.961 -0.144,2.082" style="fill:none;stroke:#000000;stroke-width:2.61538;stroke-linecap:round;stroke-linejoin:round;stroke-miterlimit:10;stroke-dasharray:none;stroke-opacity:1" id="path1176" />
         </g>
         <g id="g1178" transform="scale(1,-1)">
            <path d="m 838.984,-551.16 c 0.60453,3.97848 -3.36938,10.54442 3.59336,10.48998 13.62747,4.89365 27.3525,9.49329 41.0441,14.2022 15.17333,3.79652 30.30021,7.83808 45.19209,12.6353 8.56869,2.00555 17.07387,4.23123 25.39901,7.10165 7.46417,2.01067 14.78657,4.55708 21.57644,8.29687 -0.77671,-3.85854 1.22454,-8.01124 3.816,-9.628" style="fill:none;stroke:#000000;stroke-width:2.61538;stroke-linecap:round;stroke-linejoin:round;stroke-miterlimit:10;stroke-dasharray:none;stroke-opacity:1" id="path1180" />
         </g>
         <g id="g1182" transform="scale(1,-1)">
            <path d="m 976.883,-498.082 c 1.078,0.414 3.551,4.305 3.887,4.641 -0.079,1.23 -1.856,2 -1.665,2.269 2.114,1.633 6.399,1.824 9.317,2.938 2.488,0.672 5.242,2.234 7.285,2.211" style="fill:none;stroke:#000000;stroke-width:2.61538;stroke-linecap:round;stroke-linejoin:round;stroke-miterlimit:10;stroke-dasharray:none;stroke-opacity:1" id="path1184" />
         </g>
         <g id="g1186" transform="scale(1,-1)">
            <path d="m 910.758,-550.121 c 0.488,0.863 -3.27,0.187 -3.879,-1.512 -1.984,-2.359 -0.621,-6.39 2.793,-6.316 3.176,-0.274 6.437,1.511 7.449,4.426 1.258,1.605 -1.848,3.418 -2.75,3.8 -3.062,1.262 -5.488,-1.937 -8.183,-2.718" style="fill:none;stroke:#000000;stroke-width:2.61538;stroke-linecap:round;stroke-linejoin:round;stroke-miterlimit:10;stroke-dasharray:none;stroke-opacity:1" id="path1188" />
         </g>
         <g id="g1190" transform="scale(1,-1)">
            <path d="m 943.301,-551.559 c 0.359,0.243 2.457,1.696 3.691,2.715 5.25,3.168 11.727,4.856 18.012,4.074 2.547,-0.441 4.348,-2.152 5.316,-4.148 0.817,-1.625 0.879,-3.437 0.567,-5.258 0.609,-1.984 -1.196,-4.512 -2.274,-6.023 -1.422,-2.074 -4.054,-3.965 -5.773,-5.235 -2.879,-1.902 -4.992,-4.078 -8.422,-5.32 -1.438,-0.73 -4.027,-1.516 -5.941,-1.617 -3.008,-0.168 -5.168,-0.242 -7.723,0.871 -1.824,1.18 -2.777,3.195 -3.484,5.023 -0.465,1.082 -0.118,2.086 -0.227,3.727 0.109,0.891 0.578,2.992 1.301,4.098 0.875,2.695 2.449,5.964 5.535,7.527 0.863,0.332 0.027,-0.055 0.902,0.336" style="fill:none;stroke:#000000;stroke-width:2.61538;stroke-linecap:round;stroke-linejoin:round;stroke-miterlimit:10;stroke-dasharray:none;stroke-opacity:1" id="path1192" />
         </g>
         <g id="g1194" transform="scale(1,-1)">
            <path d="m 952.008,-551.773 c 2.898,1.371 6.637,2.585 8.617,0.914 0.973,-0.688 0.973,-2.754 0.52,-4.52 -0.786,-1.887 -1.372,-2.457 -2.329,-2.621 -0.781,-0.184 -1.394,-1.91 -3.41,-2.27 -1.207,-0.496 -3.941,-0.734 -4.617,-0.781 -0.043,-0.179 -0.223,0.742 -0.211,0.406 -1.672,0.223 -2.836,-1.375 -1.293,0.282 2.047,0.797 1.457,2.304 1.141,2.468 0.316,-0.05 -1.535,-3.199 -2.871,-2.683 0.152,-0.004 4.004,2.461 3.203,3.019 -1.094,1.11 -3.535,0.688 -3.149,0.961 -1.015,0.2 -0.625,1.5 0.422,2.711 0.903,0.68 1.715,1.571 2.531,1.852 0.872,0.656 3.606,1.578 3.016,1.203 l 0.012,0.008 -0.016,-0.008" style="fill:none;stroke:#000000;stroke-width:2.61538;stroke-linecap:round;stroke-linejoin:round;stroke-miterlimit:10;stroke-dasharray:none;stroke-opacity:1" id="path1196" />
         </g>
         <g id="g1198" transform="scale(1,-1)">
            <path d="m 955.895,-558.617 c 0.343,-0.571 -3.04,2.441 -1.52,3.957 0.883,2.086 4.402,-0.992 4.578,-1.656 -0.015,-0.051 -0.23,0.066 -0.129,-0.02" style="fill:none;stroke:#000000;stroke-width:2.61538;stroke-linecap:round;stroke-linejoin:round;stroke-miterlimit:10;stroke-dasharray:none;stroke-opacity:1" id="path1200" />
         </g>
         <g id="g1202" transform="scale(1,-1)">
            <path d="m 867.777,-576.152 c 0.141,0.684 0.793,0.054 1.871,0.359 5.403,1.598 11.528,-1.363 14.645,-5.445 0.855,-1.375 0.93,-3.992 0.551,-5.395 -0.559,-2.453 -2.102,-3.734 -3.656,-6.07 -1.465,-2.121 -4.047,-4.93 -6.305,-6.539 -3.695,-2.684 -7.516,-4.977 -12.067,-5.512 -3.117,-0.844 -6.668,-0.047 -10.027,1.133 -0.934,0.273 -2.066,1.168 -2.898,1.992 -1.153,1.43 -1.7,3.746 -1.797,5.547 0.019,1.793 0.027,4.516 1.511,6.285 1.086,1.41 2.415,3.027 3.473,4.18 1.527,1.332 3.055,2.621 4.336,3.519 1.117,1.309 2.297,1.793 3.359,2.989 2.145,1.097 4.231,3.277 7.004,2.957" style="fill:none;stroke:#000000;stroke-width:2.61538;stroke-linecap:round;stroke-linejoin:round;stroke-miterlimit:10;stroke-dasharray:none;stroke-opacity:1" id="path1204" sodipodi:nodetypes="ccccccccccccccc" />
         </g>
         <g id="g1206" transform="scale(1,-1)">
            <path d="m 859.934,-585.258 c 1.004,1.41 2.761,1.785 4.257,2.797 2.922,1.297 7.028,2.297 9.293,0.664 0.996,-1.051 1.219,-3.398 1.332,-4.801 -0.07,-1.125 -0.613,-2.425 -1.117,-3.007 -0.867,-1.29 -2.457,-2.278 -3.031,-2.805 -1.086,-0.531 -1,0.535 -1.48,0.859 -1.403,0.723 -1.723,-0.859 -2.543,-1.457 0.226,-0.082 -1.75,1.543 -2.532,0.723 -0.992,-0.543 -3.133,-1.567 -2.871,-0.156 -0.07,1.714 0.57,2.996 -0.961,3.558 -1.722,0.219 -1.676,-0.594 -1.808,0.465 -0.078,0.484 0.836,2.289 1.277,2.461 -0.098,-0.117 0.266,0.039 -0.113,0.242" style="fill:none;stroke:#000000;stroke-width:2.61538;stroke-linecap:round;stroke-linejoin:round;stroke-miterlimit:10;stroke-dasharray:none;stroke-opacity:1" id="path1208" />
         </g>
         <g id="g1210" transform="scale(1,-1)">
            <path d="m 856.285,-591.289 c -0.195,-0.313 -1.144,-1.457 -1.48,-2.777 -0.063,-2.746 2.445,-5.305 5.215,-6.098 4.3,-1.254 9.32,2.598 13.597,4.336 0.805,0.519 1.356,0.918 2.117,1.308" style="fill:none;stroke:#000000;stroke-width:2.61538;stroke-linecap:round;stroke-linejoin:round;stroke-miterlimit:10;stroke-dasharray:none;stroke-opacity:1" id="path1212" />
         </g>
         <g id="g1214" transform="scale(1,-1)">
            <path d="m 942.523,-557.684 c -0.75,-0.359 -1.605,-3.488 -1.039,-5.32 0.207,-2.762 2.606,-4.148 5.243,-3.582 4.156,0.281 10.5,1.742 12.765,3.211 0.067,0.078 0.02,-0.121 0,0.148" style="fill:none;stroke:#000000;stroke-width:2.61538;stroke-linecap:round;stroke-linejoin:round;stroke-miterlimit:10;stroke-dasharray:none;stroke-opacity:1" id="path1216" />
         </g>
         <g id="g1218" transform="scale(1,-1)">
            <path d="m 992.273,-563.73 c 0.633,-1.696 -3.765,-0.946 -1.371,0.871 1.996,1.168 3.336,-1.848 0.41,-1.274 -0.292,0 -0.609,-0.015 -0.89,0.086" style="fill:none;stroke:#000000;stroke-width:2.61538;stroke-linecap:round;stroke-linejoin:round;stroke-miterlimit:10;stroke-dasharray:none;stroke-opacity:1" id="path1220" />
         </g>
         <g id="g1222" transform="scale(1,-1)">
            <path d="m 987.98,-569.254 c 0.868,-1.144 -2.613,-0.902 -1.527,0.402 1.652,0.715 3.531,-0.281 1.008,-0.586 -0.141,-0.039 -0.301,-0.031 -0.43,-0.121" style="fill:none;stroke:#000000;stroke-width:2.61538;stroke-linecap:round;stroke-linejoin:round;stroke-miterlimit:10;stroke-dasharray:none;stroke-opacity:1" id="path1224" />
         </g>
         <g id="g1226" transform="scale(1,-1)">
            <path d="m 990.789,-573.09 c -1.242,-0.519 -0.582,-0.879 -1,0.172 1.051,1.723 2.641,-0.887 0.363,-0.969 -0.48,-0.16 -0.976,-0.156 -1.472,-0.062" style="fill:none;stroke:#000000;stroke-width:2.61538;stroke-linecap:round;stroke-linejoin:round;stroke-miterlimit:10;stroke-dasharray:none;stroke-opacity:1" id="path1228" />
         </g>
         <g id="g1230" transform="scale(1,-1)">
            <path d="m 980.012,-576.895 c -1.203,-1.054 1.57,2.653 1.32,0.227 -1.102,-0.652 -1.613,-0.914 -1.223,0.25" style="fill:none;stroke:#000000;stroke-width:2.61538;stroke-linecap:round;stroke-linejoin:round;stroke-miterlimit:10;stroke-dasharray:none;stroke-opacity:1" id="path1232" />
         </g>
         <g id="g1234" transform="scale(1,-1)">
            <path d="m 910.246,-600.531 c -0.683,-0.656 -0.398,2.152 -1.16,3.469 -0.926,1.453 -0.844,3.414 1.437,3.695 1.797,1.07 3.512,0.547 3.684,-1.379 -0.227,-1.133 0.184,-4.535 0.703,-4.602 -0.23,-0.312 -3.652,-1.14 -4.664,-1.183 -0.351,-0.043 0.055,0.004 -0.266,0.066" style="fill:none;stroke:#000000;stroke-width:2.61538;stroke-linecap:round;stroke-linejoin:round;stroke-miterlimit:10;stroke-dasharray:none;stroke-opacity:1" id="path1236" sodipodi:nodetypes="ccccccc" />
         </g>
         <g id="g1238" transform="scale(1,-1)">
            <path d="m 912.254,-583.684 c 0.887,-0.91 -2.856,-0.675 -1.547,1.215 0.273,2.602 4.531,2.016 3.289,-0.734 -0.949,-0.735 -1.875,-1.297 -3.152,-0.707" style="fill:none;stroke:#000000;stroke-width:2.61538;stroke-linecap:round;stroke-linejoin:round;stroke-miterlimit:10;stroke-dasharray:none;stroke-opacity:1" id="path1240" />
         </g>
         <g id="g1242" transform="scale(1,-1)">
            <path d="m 914.688,-555.25 c 0.417,0.414 -1.286,-1.004 -2.321,-1.344 -3.226,-2.312 -7.469,1.719 -4.66,4.602 2.059,2.512 7.055,3.773 8.789,0.808 1.887,-3.226 -2.926,-5.968 -5.914,-5.988 -1.133,-0.168 -1.695,0.121 -2.547,0.942" style="fill:none;stroke:#000000;stroke-width:2.61538;stroke-linecap:round;stroke-linejoin:round;stroke-miterlimit:10;stroke-dasharray:none;stroke-opacity:1" id="path1244" />
         </g>
         <g id="g1246" transform="scale(1,-1)">
            <path d="m 826.027,-623.16 c -0.961,-0.785 0.692,-2.68 1.618,-1.313 0.203,0.875 -1.766,1.243 -1.418,0.875 l 0.007,-0.027" style="fill:none;stroke:#000000;stroke-width:2.61538;stroke-linecap:round;stroke-linejoin:round;stroke-miterlimit:10;stroke-dasharray:none;stroke-opacity:1" id="path1248" />
         </g>
         <g id="g1250" transform="scale(1,-1)">
            <path d="m 833.129,-626.969 c -1.582,-0.203 -2.434,-1.804 0.141,-1.32 2.484,0.973 -0.368,2.019 -1.051,1.394" style="fill:none;stroke:#000000;stroke-width:2.61538;stroke-linecap:round;stroke-linejoin:round;stroke-miterlimit:10;stroke-dasharray:none;stroke-opacity:1" id="path1252" />
         </g>
         <g id="g1254" transform="scale(1,-1)">
            <path d="m 841.125,-627.41 c 0.922,0.437 -1.477,-0.36 -0.609,-1.207 1.472,-0.805 5.687,1.719 2.117,1.629 -0.758,0.093 -1.555,0.133 -2.301,-0.067" style="fill:none;stroke:#000000;stroke-width:2.61538;stroke-linecap:round;stroke-linejoin:round;stroke-miterlimit:10;stroke-dasharray:none;stroke-opacity:1" id="path1256" />
         </g>
         <g id="g1258" transform="scale(1,-1)">
            <path d="m 828.176,-632.441 c -0.035,-0.11 -1.207,-0.274 -0.383,-1.2 1.254,-0.445 6.269,0.856 4.121,1.895 -0.867,0.301 -2.012,0.457 -2.738,-0.07" style="fill:none;stroke:#000000;stroke-width:2.61538;stroke-linecap:round;stroke-linejoin:round;stroke-miterlimit:10;stroke-dasharray:none;stroke-opacity:1" id="path1260" />
         </g>
         <g id="g1262" transform="scale(1,-1)">
            <path d="m 916.328,-602.996 211.867,2.859" style="fill:none;stroke:#000000;stroke-width:2.61538;stroke-linecap:round;stroke-linejoin:round;stroke-miterlimit:10;stroke-dasharray:none;stroke-opacity:1" id="path1264" sodipodi:nodetypes="cc" />
         </g>
         <g id="g1266" transform="scale(1,-1)">
            <path d="m 1128.594,-601.141 c 0,0 25.472,-118.953 24.187,-118.054" style="fill:none;stroke:#000000;stroke-width:2.61538;stroke-linecap:round;stroke-linejoin:round;stroke-miterlimit:10;stroke-dasharray:none;stroke-opacity:1" id="path1268" />
         </g>
         <g id="g1270" transform="scale(1,-1)">
            <path d="m 1152.453,-721.547 c 0.613,0.461 -0.699,-2.527 -0.762,-3.223 -1.996,-5.132 -4.179,-11.5 -6.144,-15.738 0.012,0.043 -0.047,0.02 0.023,0.082" style="fill:none;stroke:#000000;stroke-width:2.61538;stroke-linecap:round;stroke-linejoin:round;stroke-miterlimit:10;stroke-dasharray:none;stroke-opacity:1" id="path1272" />
         </g>
         <g id="g1274" transform="scale(1,-1)">
            <path d="m 916.328,-602.996 -4.394,-118.856" style="fill:none;stroke:#000000;stroke-width:2.61538;stroke-linecap:round;stroke-linejoin:round;stroke-miterlimit:10;stroke-dasharray:none;stroke-opacity:1" id="path1276" sodipodi:nodetypes="cc" />
         </g>
         <g id="g1278" transform="scale(1,-1)">
            <path d="m 911.934,-721.852 c 0.238,0.391 0.39,-2.734 0.574,-3.796 0.289,-3.465 0.07,-7.172 0.469,-10.758 0.453,-2.153 0.105,-4.196 0.769,-6.145 0.125,-0.117 0.473,-0.226 0.512,-0.254" style="fill:none;stroke:#000000;stroke-width:2.61538;stroke-linecap:round;stroke-linejoin:round;stroke-miterlimit:10;stroke-dasharray:none;stroke-opacity:1" id="path1280" />
         </g>
         <g id="g1282" transform="scale(1,-1)">
            <path d="m 914.598,-743.332 c -0.34,0.527 229.515,2.289 229.515,2.289 0.457,-0.086 0.473,0.191 1.071,-0.031" style="fill:none;stroke:#000000;stroke-width:2.61538;stroke-linecap:round;stroke-linejoin:round;stroke-miterlimit:10;stroke-dasharray:none;stroke-opacity:1" id="path1284" />
         </g>
         <g id="g1286" transform="scale(1,-1)">
            <path d="m 911.934,-721.852 240.504,1.59" style="fill:none;stroke:#000000;stroke-width:2.61538;stroke-linecap:round;stroke-linejoin:round;stroke-miterlimit:10;stroke-dasharray:none;stroke-opacity:1" id="path1288" sodipodi:nodetypes="cc" />
         </g>
         <g id="g1290" transform="scale(1,-1)">
            <path d="m 825.18,-582.148 76.679,25.457" style="fill:none;stroke:#000000;stroke-width:1.30769;stroke-linecap:round;stroke-linejoin:round;stroke-miterlimit:10;stroke-dasharray:none;stroke-opacity:1" id="path1292" sodipodi:nodetypes="cc" />
         </g>
         <g id="g1294" transform="scale(1,-1)">
            <path d="m 825.18,-582.148 c 3.19961,-8.61123 3.67827,-17.50031 4.742,-25.973 -0.156,-0.824 -0.445,-1.832 -0.504,-1.586 0.062,0.172 0.332,-0.176 1.488,-0.379 2.246,-0.707 4.864,-1.551 7.614,-1.922 4.371,-1.062 7.75,-2.695 11.886,-4.508 2.824,-1.386 6.067,-3.089 8.656,-4.207 0.344,-0.414 3.458,-1.297 2.782,-1.175 17.9634,6.52188 36.17831,13.30626 51.554,18.476 -0.293,-0.086 2.758,0.395 2.93,0.426" style="fill:none;stroke:#000000;stroke-width:1.30769;stroke-linecap:round;stroke-linejoin:round;stroke-miterlimit:10;stroke-dasharray:none;stroke-opacity:1" id="path1296" sodipodi:nodetypes="cccccccccc" />
         </g>
         <g id="g1298" transform="scale(1,-1)">
            <path d="m 926.668,-598.316 c 8.371,2.257 16.281,5.82 24.164,8.628 1.617,0.559 5.832,2.227 6.043,2.043 0.137,-0.003 0.266,0 0.234,0" style="fill:none;stroke:#000000;stroke-width:1.30769;stroke-linecap:round;stroke-linejoin:round;stroke-miterlimit:10;stroke-dasharray:none;stroke-opacity:1" id="path1300" />
         </g>
         <g id="g1302" transform="scale(1,-1)">
            <path d="m 956.875,-587.645 c 0.074,0.226 3.863,4.309 4.129,5.778 2.883,4.406 5.09,9.387 9.078,12.769 4.961,6.383 12.816,9.032 17.078,15.86 0.383,0.508 2.801,2.555 2.59,1.832" style="fill:none;stroke:#000000;stroke-width:1.30769;stroke-linecap:round;stroke-linejoin:round;stroke-miterlimit:10;stroke-dasharray:none;stroke-opacity:1" id="path1304" sodipodi:nodetypes="ccccc" />
         </g>
         <g id="g1306" transform="scale(1,-1)">
            <path d="m 989.75,-551.406 c 0.164,-0.324 0.293,2.113 0.387,2.679 0.043,4.497 0.16,8.696 0.961,12.95 0.293,3.597 0.515,7.91 0.597,11.199" style="fill:none;stroke:#000000;stroke-width:1.30769;stroke-linecap:round;stroke-linejoin:round;stroke-miterlimit:10;stroke-dasharray:none;stroke-opacity:1" id="path1308" />
         </g>
         <g id="g1310" transform="scale(1,-1)">
            <path d="m 921.594,-549.312 c -0.446,0.144 3.676,1.277 4.972,1.964 22.26411,7.51192 42.49752,14.97481 65.129,22.77" style="fill:none;stroke:#000000;stroke-width:1.30769;stroke-linecap:round;stroke-linejoin:round;stroke-miterlimit:10;stroke-dasharray:none;stroke-opacity:1" id="path1312" sodipodi:nodetypes="ccc" />
         </g>
      </g>
   </g>
</svg>
