<?xml version="1.0" encoding="UTF-8" standalone="no"?>
<!-- Created by Ashley Blewer - This work is licensed under a Creative Commons Attribution 4.0 International License -->

<svg width="544" height="480" viewBox="0 0 143.93334 127" version="1.1" id="svg2490" inkscape:version="1.1.2 (08b2f3d93c, 2022-04-05)" sodipodi:docname="1985-video8-3.svg"
   xmlns:inkscape="http://www.inkscape.org/namespaces/inkscape"
   xmlns:sodipodi="http://sodipodi.sourceforge.net/DTD/sodipodi-0.dtd"
   xmlns="http://www.w3.org/2000/svg"
   xmlns:svg="http://www.w3.org/2000/svg">
   <sodipodi:namedview id="namedview2492" pagecolor="#ffffff" bordercolor="#666666" borderopacity="1.0" inkscape:pageshadow="2" inkscape:pageopacity="0.0" inkscape:pagecheckerboard="0" inkscape:document-units="mm" showgrid="false" units="px" inkscape:zoom="0.90583674" inkscape:cx="272.67607" inkscape:cy="177.18425" inkscape:window-width="1848" inkscape:window-height="1136" inkscape:window-x="72" inkscape:window-y="27" inkscape:window-maximized="1" inkscape:current-layer="layer1" />
   <defs id="defs2487" />
   <g inkscape:label="Layer 1" inkscape:groupmode="layer" id="layer1">
      <g id="g25371" transform="matrix(0.32018353,0,0,0.32018353,-219.71556,-14.358772)">
         <g id="g834" transform="scale(1,-1)">
            <path d="m 721.785,-410.395 c -0.332,0.817 -1.726,2.852 -2.285,4.153 -1.941,4.754 -4.191,10.312 -6.199,14.715 -1.508,3.55 -2.406,6.722 -3.739,10.379 -0.097,0.902 -2.051,2.325 -1.328,2.035" style="fill:none;stroke:#000000;stroke-width:2.61538;stroke-linecap:round;stroke-linejoin:round;stroke-miterlimit:10;stroke-dasharray:none;stroke-opacity:1" id="path836" sodipodi:nodetypes="ccccc" />
         </g>
         <g id="g838" transform="scale(1,-1)">
            <path d="m 708.234,-379.113 c -0.17972,43.27478 -4.77333,88.83739 -3.398,131.617 -0.57,5.082 0.004,9.504 -0.082,14.199 0.172,0.113 -0.156,0.414 0.609,-2.152 0.75,-5.008 3.098,-9.379 4.422,-13.742 0.703,-2.602 1.672,-5.004 2.973,-6.621 1.148,-1.25 2.664,-1.75 3.105,-1.829 0.336,-0.078 -0.332,0.09 0.461,1.383 -0.636,3.238 -0.402,6.266 -0.621,9.266 -0.152,3.105 0.055,6.691 -0.508,9.414 -0.461,2.703 -0.011,1.18 -0.5,-1.152 -0.05,-2.715 -0.304,-5.848 -0.64,-8.129 -0.645,-2.903 -1.696,-4.399 -3.465,-2.133 -1.867,2.277 -3.188,5.89 -4.27,8.453 -0.945,1.539 -1.953,4.508 -2.16,5.109 -0.148,-0.027 -0.027,-0.148 -0.101,-0.281" style="fill:none;stroke:#000000;stroke-width:2.61538;stroke-linecap:round;stroke-linejoin:round;stroke-miterlimit:10;stroke-dasharray:none;stroke-opacity:1" id="path840" sodipodi:nodetypes="cccccccccccccccc" />
         </g>
         <g id="g842" transform="scale(1,-1)">
            <path d="m 704.152,-232.91 c 0.235,1.726 -0.543,5.715 -0.89,8.715 -1.664,7.257 -2.34,14.933 -2.996,22.461 -0.254,-7.946 -1.414,48.347 -1.414,49.414 -0.223,3.539 -0.465,7.539 -0.614,9.929 0,-0.336 0.168,0.086 -0.093,-0.05" style="fill:none;stroke:#000000;stroke-width:2.61538;stroke-linecap:round;stroke-linejoin:round;stroke-miterlimit:10;stroke-dasharray:none;stroke-opacity:1" id="path844" />
         </g>
         <g id="g846" transform="scale(1,-1)">
            <path d="m 697.699,-142.031 c -0.148,-0.235 1.656,-2.039 2.281,-3.594 2.594,-5.035 5.024,-9.84 8.122,-14.414 0.894,-1.848 1.82,-3.965 2.187,-5.25" style="fill:none;stroke:#000000;stroke-width:2.61538;stroke-linecap:round;stroke-linejoin:round;stroke-miterlimit:10;stroke-dasharray:none;stroke-opacity:1" id="path848" />
         </g>
         <g id="g850" transform="scale(1,-1)">
            <path d="m 710.512,-165.316 c -0.629,-0.7 0.265,-3.289 -0.082,-4.758 0.476,-7.883 1.531,-15.551 1.597,-23.317 0.356,-6.382 1.582,-13.73 2.379,-19.82 1.418,-6.629 2.133,-12.934 2.582,-19.203 0.344,-5.582 0.203,-11.063 -0.363,-16.645 -0.461,-1.546 0.352,-5.308 -0.32,-5.875 -0.11,0.141 -0.008,0.407 -0.078,0.598" style="fill:none;stroke:#000000;stroke-width:2.61538;stroke-linecap:round;stroke-linejoin:round;stroke-miterlimit:10;stroke-dasharray:none;stroke-opacity:1" id="path852" />
         </g>
         <g id="g854" transform="scale(1,-1)">
            <path d="m 709.711,-236.906 c 0.16,0.097 -0.285,3.594 -0.301,5.152 -0.012,2.856 -0.515,7.004 -0.406,8.774 0.101,-0.485 -0.137,1.011 0.094,1.078" style="fill:none;stroke:#000000;stroke-width:2.61538;stroke-linecap:round;stroke-linejoin:round;stroke-miterlimit:10;stroke-dasharray:none;stroke-opacity:1" id="path856" />
         </g>
         <g id="g858" transform="scale(1,-1)">
            <path d="m 715.609,-259.543 8.692,-147.008 c 0.019,-1.551 0.711,-2.41 -0.145,-4.179 0.141,0.109 -0.656,-0.567 -0.64,-0.497 -0.434,-0.265 -0.786,0.118 -1.012,0.563" style="fill:none;stroke:#000000;stroke-width:2.61538;stroke-linecap:round;stroke-linejoin:round;stroke-miterlimit:10;stroke-dasharray:none;stroke-opacity:1" id="path860" />
         </g>
         <g id="g862" transform="scale(1,-1)">
            <path d="m 715.992,-332.336 c -0.359,-0.269 -1.535,3.43 -2.387,4.309 -1.632,4.554 -3.496,8.847 -4.976,12.699 -0.027,0.086 -0.137,0.203 -0.203,0.254" style="fill:none;stroke:#000000;stroke-width:2.61538;stroke-linecap:round;stroke-linejoin:round;stroke-miterlimit:10;stroke-dasharray:none;stroke-opacity:1" id="path864" />
         </g>
         <g id="g866" transform="scale(1,-1)">
            <path d="m 708.668,-316.91 c 0.168,-1.094 0.641,-3.402 0.355,-5.152 0.926,-6.036 0.821,-12.915 1.368,-19.309 0.226,-5.758 -0.59,-11.867 0.312,-17.43 -0.359,-2.613 0.371,-7.07 0.039,-8.211 0.235,-2.691 2.09,-5.484 3.145,-8.304 2.371,-4.239 3.418,-9.368 5.441,-13.418 0.168,-1.309 0.984,-2.836 0.574,-0.77 -1.918,9.262 -2.226,19.031 -3.097,28.484 -0.692,8.36 -0.481,16.266 -0.832,24.497 0.246,1.937 -0.473,3.484 -0.262,5.046" style="fill:none;stroke:#000000;stroke-width:2.61538;stroke-linecap:round;stroke-linejoin:round;stroke-miterlimit:10;stroke-dasharray:none;stroke-opacity:1" id="path868" />
         </g>
         <g id="g870" transform="scale(1,-1)">
            <path d="m 698.277,-142.195 c -0.648,0.55 3.754,0.359 5.278,0.406 3.691,0.141 7.215,0.59 10.183,0.871 1.453,-0.137 1.442,0.406 1.848,1.356 6.441,0.882 13.359,1.679 20.352,2.3 3.652,0.375 7.89,1.336 10.394,1.313 -0.055,0.164 0.02,-0.235 1.516,-1.235 1.125,-0.449 4.449,-1.281 4.703,-0.707 1.281,0.977 -2.653,2.368 -2.192,2.61 -0.316,0.363 0.493,-0.426 -0.132,0.054" style="fill:none;stroke:#000000;stroke-width:2.61538;stroke-linecap:round;stroke-linejoin:round;stroke-miterlimit:10;stroke-dasharray:none;stroke-opacity:1" id="path872" />
         </g>
         <g id="g874" transform="scale(1,-1)">
            <path d="m 750.723,-134.648 302,28.824 c 1.55,0.449 1.75,-0.008 1.644,-0.34" style="fill:none;stroke:#000000;stroke-width:2.61538;stroke-linecap:round;stroke-linejoin:round;stroke-miterlimit:10;stroke-dasharray:none;stroke-opacity:1" id="path876" />
         </g>
         <g id="g878" transform="scale(1,-1)">
            <path d="m 1054.898,-106.426 c 0.914,-0.429 0.817,-2.969 3.469,-2.89 4.113,-0.09 8.934,-0.067 13.555,0.445 3.785,0.469 7.199,1.351 10.851,2.019 1.282,0.477 5.426,0.427 5.266,0.157" style="fill:none;stroke:#000000;stroke-width:2.61538;stroke-linecap:round;stroke-linejoin:round;stroke-miterlimit:10;stroke-dasharray:none;stroke-opacity:1" id="path880" sodipodi:nodetypes="ccccc" />
         </g>
         <g id="g882" transform="scale(1,-1)">
            <path d="m 1088.039,-106.695 c -0.48,-1.563 3.656,0.093 4.625,0.297 0.238,0.324 -0.43,2.207 -1.215,2.695 -0.363,0.164 -0.265,0.402 -0.414,0.453" style="fill:none;stroke:#000000;stroke-width:2.61538;stroke-linecap:round;stroke-linejoin:round;stroke-miterlimit:10;stroke-dasharray:none;stroke-opacity:1" id="path884" />
         </g>
         <g id="g886" transform="scale(1,-1)">
            <path d="m 1093.496,-102.77 c -2.047,-0.933 6.274,-0.558 5.973,-2.019" style="fill:none;stroke:#000000;stroke-width:2.61538;stroke-linecap:round;stroke-linejoin:round;stroke-miterlimit:10;stroke-dasharray:none;stroke-opacity:1" id="path888" sodipodi:nodetypes="cc" />
         </g>
         <g id="g890" transform="scale(1,-1)">
            <path d="m 1099.469,-104.789 c 0,0 18.699,-19.754 17.82,-18.418 0.293,-0.516 1.438,-1.523 0.879,-1.336" style="fill:none;stroke:#000000;stroke-width:2.61538;stroke-linecap:round;stroke-linejoin:round;stroke-miterlimit:10;stroke-dasharray:none;stroke-opacity:1" id="path892" />
         </g>
         <g id="g894" transform="scale(1,-1)">
            <path d="m 1118.168,-124.543 -1.066,-61.559 c 0.222,-4.289 -2.555,-7.734 -4.637,-10.562 -1.75,-2.492 -4.82,-5.094 -3.817,-8.375 0.219,-1.289 -0.558,-3.668 -0.246,-3.879 0.703,-0.977 1.543,-0.484 2.407,-0.355" style="fill:none;stroke:#000000;stroke-width:2.61538;stroke-linecap:round;stroke-linejoin:round;stroke-miterlimit:10;stroke-dasharray:none;stroke-opacity:1" id="path896" sodipodi:nodetypes="cccccc" />
         </g>
         <g id="g898" transform="scale(1,-1)">
            <path d="m 1110.809,-209.273 c -0.774,0.398 3.187,-5.25 2.64,-6.235 l -13.7722,-139.50403" style="fill:none;stroke:#000000;stroke-width:2.61538;stroke-linecap:round;stroke-linejoin:round;stroke-miterlimit:10;stroke-dasharray:none;stroke-opacity:1" id="path900" sodipodi:nodetypes="ccc" />
         </g>
         <g id="g902" transform="scale(1,-1)">
            <path d="m 724.277,-411.523 c 0.942,0.121 3.524,0.793 5.672,0.8 -5.672,-0.8 364.766,54.946 364.766,54.946 0.308,0.113 6.6258,0.35097 4.9618,0.76497" style="fill:none;stroke:#000000;stroke-width:2.61538;stroke-linecap:round;stroke-linejoin:round;stroke-miterlimit:10;stroke-dasharray:none;stroke-opacity:1" id="path904" sodipodi:nodetypes="cccc" />
         </g>
         <g id="g906" transform="scale(1,-1)">
            <path d="m 708.102,-160.039 33.14,6.816 c 1.606,0.543 0.438,0.063 2.969,0.297 0.129,0.047 0.394,0.028 0.453,0.168" style="fill:none;stroke:#000000;stroke-width:2.61538;stroke-linecap:round;stroke-linejoin:round;stroke-miterlimit:10;stroke-dasharray:none;stroke-opacity:1" id="path908" sodipodi:nodetypes="cccc" />
         </g>
         <g id="g910" transform="scale(1,-1)">
            <path d="m 748.91,-139.168 c -1.17521,-5.1515 -0.2567,-10.57524 -1.80871,-15.66325 0.43901,-6.45793 0.81248,-12.93051 0.45326,-19.39962 0.0905,-2.3112 0.25049,-4.76859 0.29725,-6.98771" style="fill:none;stroke:#000000;stroke-width:2.61538;stroke-linecap:round;stroke-linejoin:round;stroke-miterlimit:10;stroke-dasharray:none;stroke-opacity:1" id="path912" />
         </g>
         <g id="g914" transform="scale(1,-1)">
            <path d="m 744.211,-152.926 371.125,27.969 c 0.41,0.687 2.465,0.239 2.832,0.414" style="fill:none;stroke:#000000;stroke-width:2.61538;stroke-linecap:round;stroke-linejoin:round;stroke-miterlimit:10;stroke-dasharray:none;stroke-opacity:1" id="path916" sodipodi:nodetypes="ccc" />
         </g>
         <g id="g918" transform="scale(1,-1)">
            <path d="m 712.695,-189.73 c 0.582,0.859 0.43,-2.379 0.825,-3.758 -0.145,-3.106 0.335,-5.614 0.394,-8.633 -0.105,-1.176 -0.098,-2.817 0.082,-3.324 -0.168,0.242 -0.199,0.668 -0.297,1.082" style="fill:none;stroke:#000000;stroke-width:2.61538;stroke-linecap:round;stroke-linejoin:round;stroke-miterlimit:10;stroke-dasharray:none;stroke-opacity:1" id="path920" />
         </g>
         <g id="g922" transform="scale(1,-1)">
            <path d="m 712.695,-189.73 c 12.074,2.394 28.41,1.39 40.453,3.429 3.477,0.047 9.004,0.703 10.461,1.528 -0.187,0.062 0.125,-0.637 -0.535,1.23 0.164,1.656 -0.363,1.211 1.977,2.27 l 343.062,33.601 c 1.957,0.168 3.668,0.277 4.082,0.211 1.11,-0.23 2.004,0.129 1.25,-0.285 -0.191,-0.098 0.102,-0.176 -0.05,-0.277" style="fill:none;stroke:#000000;stroke-width:2.61538;stroke-linecap:round;stroke-linejoin:round;stroke-miterlimit:10;stroke-dasharray:none;stroke-opacity:1" id="path924" sodipodi:nodetypes="ccccccccc" />
         </g>
         <g id="g926" transform="scale(1,-1)">
            <path d="m 723.227,-202.684 386.261,39.532 c 1.59,-0.043 1.715,0.34 2.09,0.027 l -0.039,-0.039 4.0035,0.42832" style="fill:none;stroke:#000000;stroke-width:2.61538;stroke-linecap:round;stroke-linejoin:round;stroke-miterlimit:10;stroke-dasharray:none;stroke-opacity:1" id="path928" sodipodi:nodetypes="ccccc" />
         </g>
         <g id="g930" transform="scale(1,-1)">
            <path d="m 1113.395,-148.023 c -0.313,0.371 1.32,-6.442 1.265,-7.993 0.5,-7.043 -0.832,-14.168 -0.637,-20.984 -0.226,-4.406 -0.324,-10.02 -1.207,-13.945 0.075,0.121 0.161,0.175 0.184,0.183" style="fill:none;stroke:#000000;stroke-width:2.61538;stroke-linecap:round;stroke-linejoin:round;stroke-miterlimit:10;stroke-dasharray:none;stroke-opacity:1" id="path932" sodipodi:nodetypes="ccccc" />
         </g>
         <g id="g934" transform="scale(1,-1)">
            <path d="m 1074.828,-166.641 c 0.766,1.032 -0.176,-3.035 -0.066,-4.125 -0.621,-4.613 -0.465,-9.496 -1.36,-13.925 -0.074,-0.883 1.368,-1.571 0.52,-1.063" style="fill:none;stroke:#000000;stroke-width:2.61538;stroke-linecap:round;stroke-linejoin:round;stroke-miterlimit:10;stroke-dasharray:none;stroke-opacity:1" id="path936" sodipodi:nodetypes="cccc" />
         </g>
         <g id="g938" transform="scale(1,-1)">
            <path d="m 764.902,-200.285 c 0.43,-6.344 0.77,-13.469 1.16,-18.961" style="fill:none;stroke:#000000;stroke-width:2.61538;stroke-linecap:round;stroke-linejoin:round;stroke-miterlimit:10;stroke-dasharray:none;stroke-opacity:1" id="path940" sodipodi:nodetypes="cc" />
         </g>
         <g id="g942" transform="scale(1,-1)">
            <path d="m 766.062,-219.246 c -1.461,1.227 305.422,33.277 305.422,33.277 -0.546,-0.011 2.207,0.153 2.438,0.215" style="fill:none;stroke:#000000;stroke-width:2.61538;stroke-linecap:round;stroke-linejoin:round;stroke-miterlimit:10;stroke-dasharray:none;stroke-opacity:1" id="path944" sodipodi:nodetypes="ccc" />
         </g>
         <g id="g946" transform="scale(1,-1)">
            <path d="m 821.52,-357.797 c 0.484,-1.168 0.921,-5.051 1.089,-7.758 0.645,-4.507 0.039,-9.734 0.34,-14.254 -0.441,-3.519 -0.308,-6.886 -0.047,-10.546 0.328,-1.512 0.391,-6.63375 0.278,-5.69175" style="fill:none;stroke:#000000;stroke-width:2.61538;stroke-linecap:round;stroke-linejoin:round;stroke-miterlimit:10;stroke-dasharray:none;stroke-opacity:1" id="path948" sodipodi:nodetypes="ccccc" />
         </g>
         <g id="g950" transform="scale(1,-1)">
            <path d="m 1011.945,-330.328 c -0.1759,-1.56232 -0.4603,-3.48983 -0.6,-5.21179 -0.4121,-7.0399 -0.626,-14.09033 -0.7089,-21.14013 -0.2719,-3.9252 -1.0272,-7.79997 -1.345,-11.71945 -0.099,-0.66483 -0.5066,-0.0963 -0.5181,0.20037" style="fill:none;stroke:#000000;stroke-width:2.61538;stroke-linecap:round;stroke-linejoin:round;stroke-miterlimit:10;stroke-dasharray:none;stroke-opacity:1" id="path952" />
         </g>
         <g id="g954" transform="scale(1,-1)">
            <path d="m 824.121,-353.02 c 1.5548,3.22432 -0.98678,10.06625 0.113,14.629 -0.148,0.051 0.305,-0.086 0.18,-0.089" style="fill:none;stroke:#000000;stroke-width:2.61538;stroke-linecap:round;stroke-linejoin:round;stroke-miterlimit:10;stroke-dasharray:none;stroke-opacity:1" id="path956" sodipodi:nodetypes="ccc" />
         </g>
         <g id="g958" transform="scale(1,-1)">
            <path d="m 824.414,-338.48 c 1.645,1.304 181.609,23.484 181.609,23.484 1.946,0.121 0.528,0.019 1.094,0.019 0.68,-0.25 2.414,0.008 1.75,-0.171 -0.39,0.82 0.445,-1.989 0.078,-3.09 0.571,-2.555 0.559,-6.653 0.723,-8.188 -0.035,0.164 -0.672,-0.195 -1.238,-0.047" style="fill:none;stroke:#000000;stroke-width:2.61538;stroke-linecap:round;stroke-linejoin:round;stroke-miterlimit:10;stroke-dasharray:none;stroke-opacity:1" id="path960" />
         </g>
         <g id="g962" transform="scale(1,-1)">
            <path d="m 824.121,-353.02 185.957,23.329 c -0.07,-0.032 2.093,-0.434 1.867,-0.637" style="fill:none;stroke:#000000;stroke-width:2.61538;stroke-linecap:round;stroke-linejoin:round;stroke-miterlimit:10;stroke-dasharray:none;stroke-opacity:1" id="path964" sodipodi:nodetypes="ccc" />
         </g>
         <g id="g966" transform="scale(1,-1)">
            <path d="m 885.285,-362.695 c -0.215,0.672 1.332,-2.301 1.903,-3.446 1.382,-1.75 3,-5.218 3.054,-6.316 0.488,-0.641 0.262,-0.512 0.696,0.769 0.445,2.512 2.457,4.325 2.968,6.45 0.84,1.547 1.227,4.109 1.832,4.777" style="fill:none;stroke:#000000;stroke-width:2.61538;stroke-linecap:round;stroke-linejoin:round;stroke-miterlimit:10;stroke-dasharray:none;stroke-opacity:1" id="path968" />
         </g>
         <g id="g970" transform="scale(1,-1)">
            <path d="m 898.289,-364.172 c 0.008,-0.824 0.203,-1.445 0.313,-3.613 -0.762,-1.246 0.179,-4.082 0,-4.297 -0.731,0.137 0.394,-0.09 0,0.043" style="fill:none;stroke:#000000;stroke-width:2.61538;stroke-linecap:round;stroke-linejoin:round;stroke-miterlimit:10;stroke-dasharray:none;stroke-opacity:1" id="path972" />
         </g>
         <g id="g974" transform="scale(1,-1)">
            <path d="m 897.691,-361.148 c -0.304,-0.098 -0.179,0.003 -0.078,0.011" style="fill:none;stroke:#000000;stroke-width:2.61538;stroke-linecap:round;stroke-linejoin:round;stroke-miterlimit:10;stroke-dasharray:none;stroke-opacity:1" id="path976" />
         </g>
         <g id="g978" transform="scale(1,-1)">
            <path d="m 908.43,-364.191 c 0.976,-0.403 -0.309,0.976 -1.328,1.5 -1.856,0.617 -4.692,-0.692 -4.969,-2.688 -1.031,-1.625 0.078,-4.762 1.551,-5.125 3.394,-0.711 5.929,2.5 6.316,5.414 0.059,1.895 0.086,3.641 -0.652,5.27 -0.321,2.851 -0.071,-1.067 0.429,-2.848 0.075,-2.52 0.864,-6.664 0.934,-7.781 0.137,0.019 -0.309,-0.141 -0.168,-0.059" style="fill:none;stroke:#000000;stroke-width:2.61538;stroke-linecap:round;stroke-linejoin:round;stroke-miterlimit:10;stroke-dasharray:none;stroke-opacity:1" id="path980" />
         </g>
         <g id="g982" transform="scale(1,-1)">
            <path d="m 912.969,-365.457 c 0.019,0.973 3.758,-0.098 5.453,0.855 1.164,0.055 1.402,1.914 -0.289,2.547 -4.067,3.313 -6.418,-4.949 -2.254,-6.879 1.414,-0.761 3.609,0.039 3.941,1.235" style="fill:none;stroke:#000000;stroke-width:2.61538;stroke-linecap:round;stroke-linejoin:round;stroke-miterlimit:10;stroke-dasharray:none;stroke-opacity:1" id="path984" />
         </g>
         <g id="g986" transform="scale(1,-1)">
            <path d="m 928.621,-361.113 c -2.199,1.789 -5.832,-1.801 -4.769,-4.051 0.265,-2.785 3.906,-3.066 6.05,-1.484 3.762,1.265 -1.656,5.3 -3.629,4.699" style="fill:none;stroke:#000000;stroke-width:2.61538;stroke-linecap:round;stroke-linejoin:round;stroke-miterlimit:10;stroke-dasharray:none;stroke-opacity:1" id="path988" />
         </g>
         <g id="g990" transform="scale(1,-1)">
            <path d="m 944.051,-352.66 c 0.691,-0.235 -0.387,0.406 -2.356,-0.18 -1.773,-0.394 -4.222,-1.68 -4.414,-3.816 0.074,-2.461 4.196,-1.36 5.938,-1.594 2.383,-0.168 4.359,-0.996 4.672,-2.281 0.511,-1.246 -0.645,-2.754 -1.266,-3.781 -2.496,-1.192 -5.668,-2.297 -7.691,-0.747 -1.887,0.774 -1.625,3.762 0.148,5.414 1.41,1.297 4.059,2.036 6.363,2.059 2.067,-0.113 2.606,1.332 1.617,3.18 -0.976,1.855 -2.624,2.379 -4.82,2.113 0.524,0.066 0.016,-0.027 -0.14,-0.004" style="fill:none;stroke:#000000;stroke-width:2.61538;stroke-linecap:round;stroke-linejoin:round;stroke-miterlimit:10;stroke-dasharray:none;stroke-opacity:1" id="path992" />
         </g>
         <g id="g994" transform="scale(1,-1)">
            <path d="m 728.473,-297.504 c 0.45488,-8.38393 0.5419,-16.77322 0.4629,-25.14933 1.26397,-8.78142 0.64391,-17.7116 2.07839,-26.46068 1.92793,-9.12298 12.49107,-15.39905 21.44442,-12.65303 11.13188,1.66777 22.23883,3.52801 33.26661,5.83022 10.66574,2.07835 22.11749,2.51166 32.32104,5.3402 l -0.22637,-0.11437" style="fill:none;stroke:#000000;stroke-width:2.61538;stroke-linecap:round;stroke-linejoin:round;stroke-miterlimit:10;stroke-dasharray:none;stroke-opacity:1" id="path996" />
         </g>
         <g id="g998" transform="scale(1,-1)">
            <path d="m 1013.66,-324.848 c 27.4954,0.26385 52.1224,3.23543 78.426,7.059" style="fill:none;stroke:#000000;stroke-width:2.61538;stroke-linecap:round;stroke-linejoin:round;stroke-miterlimit:10;stroke-dasharray:none;stroke-opacity:1" id="path1000" sodipodi:nodetypes="cc" />
         </g>
         <g id="g1002" transform="scale(1,-1)">
            <path d="m 1092.086,-317.789 c 0.106,3.359 0.496,7.047 0.707,11.062 -0.191,8.215 0.129,16.348 1.691,24.383 0.391,10.852 3.2,22.184 3.727,32.254 -0.043,0.395 -2.703,2.681 -2.676,3.102" style="fill:none;stroke:#000000;stroke-width:2.61538;stroke-linecap:round;stroke-linejoin:round;stroke-miterlimit:10;stroke-dasharray:none;stroke-opacity:1" id="path1004" sodipodi:nodetypes="ccccc" />
         </g>
         <g id="g1006" transform="scale(1,-1)">
            <path d="m 728.473,-297.504 c 5.086,0.914 13.011,2.82 18.293,3.125 10.078,1.125 19.257,2.477 29.343,4.848 6.77,1.41 13.559,3.136 20.286,3.89 11.425,1.446 23.046,2.832 34.707,4.442 18.273,2.367 36.96,6.758 55.601,8.808 28.961,4.762 58.621,4.196 87.664,8.539 22.879,1.825 45.293,6.098 68.028,8.633 12.113,2.02 24.468,3.934 36.398,5.746 4.641,0.676 9.098,1.274 13.484,1.789 0.895,0.246 2.969,0.547 3.258,0.696" style="fill:none;stroke:#000000;stroke-width:2.61538;stroke-linecap:round;stroke-linejoin:round;stroke-miterlimit:10;stroke-dasharray:none;stroke-opacity:1" id="path1008" sodipodi:nodetypes="ccccccccccc" />
         </g>
         <g id="g1010" transform="scale(1,-1)">
            <path d="m 787.008,-290.477 c 0.312,0.973 -1.25,-0.898 -1.633,-1.429 -3.074,-3.864 -2.117,-8.965 -2.563,-13.852 0.317,-2.898 0.426,-6.289 1.188,-9.297 1.27,-5.047 3.621,-9.668 8.723,-11.812 6.425,-2.961 13.894,-5.289 20.832,-5.098 7.39,0.981 14.476,1.254 20.777,5.367 4.305,1.746 7.051,5.805 9.586,8.836 3.484,3.653 4.668,9.082 5.121,14.02 0.285,3.722 0.836,7.226 1.277,10.605 -0.175,1.903 0.172,5.813 -0.878,8.559 -0.5,1.683 -2,3.937 -2.774,3.691 0.059,-0.09 -0.074,-0.035 -0.312,-0.078" style="fill:none;stroke:#000000;stroke-width:2.61538;stroke-linecap:round;stroke-linejoin:round;stroke-miterlimit:10;stroke-dasharray:none;stroke-opacity:1" id="path1012" />
         </g>
         <g id="g1014" transform="scale(1,-1)">
            <path d="m 816.836,-295.832 c -1.176,0.504 -3.746,-2.344 -3.305,-4.332 -0.941,-4.352 7.578,-7.973 9.422,-2.746 0.57,3.613 -2.258,9.093 -6.117,7.078 -0.735,-0.207 -2.758,-2.664 -2.895,-2.805" style="fill:none;stroke:#000000;stroke-width:2.61538;stroke-linecap:round;stroke-linejoin:round;stroke-miterlimit:10;stroke-dasharray:none;stroke-opacity:1" id="path1016" sodipodi:nodetypes="ccccc" />
         </g>
         <g id="g1018" transform="scale(1,-1)">
            <path d="m 833.965,-283.578 c 0.777,0.519 6.027,1.008 3.863,-1.332 -2.707,-3.035 1.828,-5.086 2.793,-8.09 0.363,-1.934 0.906,-4.777 0.774,-6.762 -2.762,-2.586 -1.297,-3.554 0.578,-6.394 1.519,-2.723 -1.235,-5.832 -4.078,-5.692 -2.184,0.168 -2.633,-0.769 -2.946,-3.3 -1.398,-4.469 -7.449,-5.856 -11.562,-7.641 -3.598,0.68 -6.551,-4.016 -9.621,-1.91 -0.012,1.484 -1.391,2.113 -3.309,1.355 -3.863,-0.718 -6.969,0.274 -9.484,2.278 -1.797,1.261 -2.36,3.8 -4.731,5.449 -2.926,0.551 -5.637,3.59 -5.988,5.683 0.969,1.848 2.781,2.739 1.398,3.813 -1.476,1.812 -4.324,3.223 -3.109,4.707 1.238,2.051 2.516,3.387 2.914,5.41 1.551,0.785 1.914,3.207 1.676,3.277 -0.324,-0.089 0.422,0.387 0.39,0.563" style="fill:none;stroke:#000000;stroke-width:2.61538;stroke-linecap:round;stroke-linejoin:round;stroke-miterlimit:10;stroke-dasharray:none;stroke-opacity:1" id="path1020" />
         </g>
         <g id="g1022" transform="scale(1,-1)">
            <path d="m 1014.09,-279.41 c -0.535,1.844 -5.172,0.863 -6.336,-1.43 -3.434,-2.652 0.523,-6.183 3.926,-5.164 3.105,0.203 8.015,2.379 6.41,5.215 -1.746,2.562 -5.442,3.144 -8.035,2.402" style="fill:none;stroke:#000000;stroke-width:2.61538;stroke-linecap:round;stroke-linejoin:round;stroke-miterlimit:10;stroke-dasharray:none;stroke-opacity:1" id="path1024" />
         </g>
         <g id="g1026" transform="scale(1,-1)">
            <path d="m 1034.586,-270.039 c 2.7425,-3.87872 0.5553,-11.7388 -1.207,-15.77 -2.695,-5.449 -7.191,-9.339 -13.035,-11.539 -6.133,-2.629 -13.684,-3.054 -19.641,-0.367 -3.141,0.481 -6.851,5.434 -7.41,6.324 0.035,0.329 -0.191,-0.742 -0.578,0.887" style="fill:none;stroke:#000000;stroke-width:2.61538;stroke-linecap:round;stroke-linejoin:round;stroke-miterlimit:10;stroke-dasharray:none;stroke-opacity:1" id="path1028" sodipodi:nodetypes="cccccc" />
         </g>
         <g id="g1030" transform="scale(1,-1)">
            <path d="m 1037.395,-260.727 c 3.3073,-5.41122 2.7015,-16.19947 1.832,-22.054 -1.59,-5.36 -5.836,-9.961 -9.938,-13.606 -6.309,-3.91 -13.016,-8.011 -20.562,-9.234 -8.641,-0.586 -17.012,2.582 -22.922,8.316 -3.434,2.586 -6.047,6.481 -6.235,11.063 -0.109,3.203 -0.004,7.199 0.532,10.406 1.836,4.188 4.925,7.176 8.765,8.734 1.926,1.153 2.445,1.262 3.219,1.399 l 0.051,0.027" style="fill:none;stroke:#000000;stroke-width:2.61538;stroke-linecap:round;stroke-linejoin:round;stroke-miterlimit:10;stroke-dasharray:none;stroke-opacity:1" id="path1032" sodipodi:nodetypes="cccccccccc" />
         </g>
         <g id="g1034" transform="scale(1,-1)">
            <path d="m 979.969,-265.59 c -0.715,0.152 -3.598,-1.336 -4.574,-2.504 -2.872,-1.883 -3.012,-4.304 -3.2,-7.726 -0.297,-3.535 3.801,-7.047 5.844,-9.407 -0.062,-0.019 -0.101,-0.031 -0.129,-0.035" style="fill:none;stroke:#000000;stroke-width:2.61538;stroke-linecap:round;stroke-linejoin:round;stroke-miterlimit:10;stroke-dasharray:none;stroke-opacity:1" id="path1036" />
         </g>
         <g id="g1038" transform="scale(1,-1)">
            <path d="m 924.906,-274.129 c -2.258,-1.875 -2.765,-5.019 -3.547,-7.699 -1.125,-5.192 -1.343,-10.559 -1.23,-15.86 0.066,-2.648 0.312,-5.296 1.25,-7.789 1.672,-5.773 3.309,-11.867 7.449,-16.421 0.801,-0.801 1.539,-2.329 2.82,-2.301" style="fill:none;stroke:#000000;stroke-width:2.61538;stroke-linecap:round;stroke-linejoin:round;stroke-miterlimit:10;stroke-dasharray:none;stroke-opacity:1" id="path1040" />
         </g>
         <g id="g1042" transform="scale(1,-1)">
            <path d="m 908.793,-273.152 c 1.965,-4.801 3.164,-9.887 3.715,-15.039 0.875,-5.989 -0.403,-11.989 -1.453,-17.868 -1.61,-3.875 -2.813,-7.976 -5.125,-11.507 -1.129,-3.321 -2.625,-7.114 -6.09,-8.59 -0.07,0.07 -0.141,-0.668 -0.301,-0.532" style="fill:none;stroke:#000000;stroke-width:2.61538;stroke-linecap:round;stroke-linejoin:round;stroke-miterlimit:10;stroke-dasharray:none;stroke-opacity:1" id="path1044" />
         </g>
         <g id="g1046" transform="scale(1,-1)">
            <path d="m 1028.68,-209.84 c 0.394,-0.738 0.402,-3.683 0.8,-5.348 0.458,-1.984 -0.957,1.817 -2.71,2.692 -3.137,3.797 -10.926,2.211 -12.165,-2.984 -1.257,-2.54 -2.089,-6.34 -0.05,-8.133 2.16,-2.391 5.769,-2.321 8.562,-3.512 3.332,-0.996 6.348,-3.707 4.641,-6.914 -1.11,-4.207 -8.164,-6.5 -12.172,-3.703 -2.574,1.648 -3.383,5.203 -4.914,6.406 0.16,0.473 1.203,-3.476 1.508,-4.894 -0.028,-0.485 0.418,-1.547 -0.149,-1.137" style="fill:none;stroke:#000000;stroke-width:2.61538;stroke-linecap:round;stroke-linejoin:round;stroke-miterlimit:10;stroke-dasharray:none;stroke-opacity:1" id="path1048" />
         </g>
         <g id="g1050" transform="scale(1,-1)">
            <path d="m 1014.977,-219.055 c -0.641,0.571 0.625,-2.746 2.144,-2.754 2.926,-0.726 5.793,-1.574 7.793,-3.457 3.07,-1.343 5.402,-3.789 5.535,-6.148 -0.078,-1.074 -1.812,-1.09 -1.707,-1.047 0.672,0.586 0.36,2.602 -1.07,3.957 -2.223,2.813 -6.34,3.828 -9.332,5.32 -1.172,-0.449 -4.047,1.102 -3.461,0.543" style="fill:none;stroke:#000000;stroke-width:2.61538;stroke-linecap:round;stroke-linejoin:round;stroke-miterlimit:10;stroke-dasharray:none;stroke-opacity:1" id="path1052" />
         </g>
         <g id="g1054" transform="scale(1,-1)">
            <path d="m 1030.27,-230.48 c -0.657,-0.25 -0.813,-3.215 -2.27,-4.137" style="fill:none;stroke:#000000;stroke-width:2.61538;stroke-linecap:round;stroke-linejoin:round;stroke-miterlimit:10;stroke-dasharray:none;stroke-opacity:1" id="path1056" />
         </g>
         <g id="g1058" transform="scale(1,-1)">
            <path d="m 1031.488,-235.352 c -0.988,0.047 2.903,0.258 3.926,0.399 2.141,0.051 7.527,0.894 8.027,0.863 0.059,0.113 -0.222,0.078 -0.277,0.207" style="fill:none;stroke:#000000;stroke-width:2.61538;stroke-linecap:round;stroke-linejoin:round;stroke-miterlimit:10;stroke-dasharray:none;stroke-opacity:1" id="path1060" />
         </g>
         <g id="g1062" transform="scale(1,-1)">
            <path d="m 1035.828,-234.355 c 0.406,0.476 0.52,3.332 0.137,5.066 0.074,4.109 -0.36,8.066 -0.629,12.051 -0.141,2.531 -0.504,5.933 -0.684,6.879 -0.093,0.726 -2.699,-0.063 -2.429,0.109" style="fill:none;stroke:#000000;stroke-width:2.61538;stroke-linecap:round;stroke-linejoin:round;stroke-miterlimit:10;stroke-dasharray:none;stroke-opacity:1" id="path1064" />
         </g>
         <g id="g1066" transform="scale(1,-1)">
            <path d="m 1034.484,-210.027 c 3.313,-0.637 7.063,1.687 10.598,0.215 3.223,-1.325 8.633,-0.122 10.184,-2.75 0.082,-1.926 -0.567,-3.34 -1.403,-5.172 -0.855,-1.766 -5.371,-3.485 -5.261,-3.661 1.058,-1.558 2.687,-5.203 4.636,-6.917 1.219,-1.606 2.504,-2.571 3.032,-3.415 -0.29,0.161 1.39,-0.847 0.992,-0.515 -0.086,0.199 -3.731,-0.559 -5.383,-0.395 -2.016,-0.008 -1.801,0.41 -3.313,2.16 -2.464,1.883 -4.48,5.325 -6.554,6.985 -1.278,0.914 -1.321,1.316 -1.274,0.504 -1.09,-3.168 -0.59,-6.977 -0.742,-10.258 0.285,0.109 0.629,-1.524 0.16,-0.117 -1.312,3.203 -0.64,7.051 -0.547,10.101 -0.351,2.055 0.082,2.41 -0.011,3.746 -0.231,1.657 0.187,0.141 -0.16,1.332 -0.129,1.52 -0.958,6.731 -1.043,6.946 -0.043,-0.047 -0.032,0.105 0.019,0.023" style="fill:none;stroke:#000000;stroke-width:2.61538;stroke-linecap:round;stroke-linejoin:round;stroke-miterlimit:10;stroke-dasharray:none;stroke-opacity:1" id="path1068" />
         </g>
         <g id="g1070" transform="scale(1,-1)">
            <path d="m 1046.922,-210.648 c -0.395,0.402 2.863,-1.082 2.758,-2.504 1.285,-2.422 1.082,-4.832 0.172,-6.739 -0.29,-0.582 -0.407,-0.933 -0.313,-0.351" style="fill:none;stroke:#000000;stroke-width:2.61538;stroke-linecap:round;stroke-linejoin:round;stroke-miterlimit:10;stroke-dasharray:none;stroke-opacity:1" id="path1072" />
         </g>
         <g id="g1074" transform="scale(1,-1)">
            <path d="m 1043.816,-208.906 c 3.118,1.289 8.575,0.078 10.176,-2.356 0.293,-0.176 0.031,-0.773 -0.109,-0.98" style="fill:none;stroke:#000000;stroke-width:2.61538;stroke-linecap:round;stroke-linejoin:round;stroke-miterlimit:10;stroke-dasharray:none;stroke-opacity:1" id="path1076" />
         </g>
         <g id="g1078" transform="scale(1,-1)">
            <path d="m 1060.707,-228.578 c -0.383,0.047 0.57,-1.504 1.539,-1.938 5.188,-2.086 10.824,2.204 11.492,7.301 0.899,2.602 1.016,4.504 0.387,7.195 -0.367,3.208 -0.961,6.731 -2.953,9.118 -2.149,3.164 -6.402,0.293 -8.723,-2.215 -2.144,-3.102 -2.527,-10.227 2.485,-10.93 3.164,-0.82 7.015,-0.047 8.347,3.363 0.239,1.223 -0.195,2.356 0.035,3.325" style="fill:none;stroke:#000000;stroke-width:2.61538;stroke-linecap:round;stroke-linejoin:round;stroke-miterlimit:10;stroke-dasharray:none;stroke-opacity:1" id="path1080" />
         </g>
         <g id="g1082" transform="scale(1,-1)">
            <path d="m 1082.469,-204.07 c -1.895,-0.266 -2.18,-3.575 -3.176,-6.477 -2.195,-3.699 -2.203,-8.098 -1.508,-11.953 0.01,-0.891 0.11,-3.445 1.32,-4.211 2.833,-2.422 8.047,-1.176 10.051,2.238 2.469,4.278 3.571,10.629 1.832,15.164 -1.035,2.157 -2.414,5.129 -4.367,5.614 -1.476,0.367 -3.031,-0.078 -4.152,-0.375" style="fill:none;stroke:#000000;stroke-width:2.61538;stroke-linecap:round;stroke-linejoin:round;stroke-miterlimit:10;stroke-dasharray:none;stroke-opacity:1" id="path1084" sodipodi:nodetypes="cccccccc" />
         </g>
         <g id="g1086" transform="scale(1,-1)">
            <path d="m 748.273,-255.391 c 0.403,0.743 0.743,-2.199 0.676,-1.914 0.414,-0.445 -0.531,0.516 -1.961,0.746 -3.437,0.649 -7.508,0.176 -10.156,-1.929 -1.117,-1.574 -0.648,-3.016 1.566,-3.395 3.313,-0.801 7.309,-0.379 10.465,-1.515 2.375,0.144 2.684,-2.25 0.852,-3.168 -1.961,-2.516 -5.82,-1.782 -8.555,-1.668 -2.187,0.14 -4.879,0.988 -5.433,1.39 0.378,0.328 -0.629,-0.484 -0.426,-0.902 -0.184,0.012 0.164,0.066 0.211,-0.004" style="fill:none;stroke:#000000;stroke-width:2.61538;stroke-linecap:round;stroke-linejoin:round;stroke-miterlimit:10;stroke-dasharray:none;stroke-opacity:1" id="path1088" />
         </g>
         <g id="g1090" transform="scale(1,-1)">
            <path d="m 763.023,-255.312 c -2.128,0.218 -4.066,-2.25 -4.644,-3.883 -0.527,-2.559 0.457,-4.551 2.449,-5.68 3.11,-2.641 7.211,-1.922 11.399,-0.926 1.972,1.196 5.085,3.039 5.039,4.879 0.554,1.531 -1.34,3.86 -2.508,5.027 -1.313,1.594 -1.883,2.196 -4.156,2.786 -2.672,0.367 -6.457,-0.364 -8.469,-1.329 -1.059,-0.742 -2.16,-1.257 -3.086,-1.753" style="fill:none;stroke:#000000;stroke-width:2.61538;stroke-linecap:round;stroke-linejoin:round;stroke-miterlimit:10;stroke-dasharray:none;stroke-opacity:1" id="path1092" />
         </g>
         <g id="g1094" transform="scale(1,-1)">
            <path d="m 780.871,-263.895 c -0.008,0.797 3.602,0.375 4.652,1.2 -0.109,-0.149 -0.367,0.199 -1.367,0.195 -0.703,0.781 -0.207,3.68 -0.789,5.398 -0.113,1.782 -0.578,4.579 -0.758,4.875 -0.285,-0.062 0.137,0.497 -1.207,0.247 -0.59,-0.262 1.731,0.148 3.657,-0.04 2.257,-1.101 4.738,-5.3 7.894,-6.281 1.109,-0.769 3.231,-1.816 3.602,-2.051 0.883,-0.691 1.855,-0.73 1.761,-0.929 0.922,-1.149 -0.226,2.422 0.11,3.48 -0.141,2.153 -1.016,4.594 -1.395,6.172 -0.629,1.164 0.18,0.137 -0.957,0.785 -1.328,0.016 -3.012,-0.07 -0.941,-0.156 1.113,-0.293 4.597,0.402 4.039,0.059" style="fill:none;stroke:#000000;stroke-width:2.61538;stroke-linecap:round;stroke-linejoin:round;stroke-miterlimit:10;stroke-dasharray:none;stroke-opacity:1" id="path1096" />
         </g>
         <g id="g1098" transform="scale(1,-1)">
            <path d="m 805.492,-250.016 c -0.976,-0.078 3.074,0.633 4.539,0.711 1.157,0.223 1.121,0.18 0.953,-0.078" style="fill:none;stroke:#000000;stroke-width:2.61538;stroke-linecap:round;stroke-linejoin:round;stroke-miterlimit:10;stroke-dasharray:none;stroke-opacity:1" id="path1100" />
         </g>
         <g id="g1102" transform="scale(1,-1)">
            <path d="m 808.516,-250.113 c -0.137,-0.516 3.55,-3.34 4.129,-5.067 1.539,-0.988 0.5,-0.3 0.621,-0.543 0.277,0.051 -0.059,0.215 0.113,-0.644 0.035,-0.528 -0.801,-3.508 -0.484,-3.153 -0.102,-0.011 -0.18,0.012 -0.067,0.133" style="fill:none;stroke:#000000;stroke-width:2.61538;stroke-linecap:round;stroke-linejoin:round;stroke-miterlimit:10;stroke-dasharray:none;stroke-opacity:1" id="path1104" />
         </g>
         <g id="g1106" transform="scale(1,-1)">
            <path d="m 810.227,-260.359 c 0.039,-0.219 4.371,0.937 6.132,0.855 0.664,0.059 2.336,0.25 1.422,0.012" style="fill:none;stroke:#000000;stroke-width:2.61538;stroke-linecap:round;stroke-linejoin:round;stroke-miterlimit:10;stroke-dasharray:none;stroke-opacity:1" id="path1108" />
         </g>
         <g id="g1110" transform="scale(1,-1)">
            <path d="m 814.309,-254.148 c 0.859,1.035 3.3,1.949 4.136,3.617 1.239,1.004 0.938,0.476 1.243,0.906 0.046,-0.242 0.355,1.094 -1.188,1.016 -2.656,-0.254 -1.523,-0.207 0.777,0.07 1.325,0.258 4.203,0.832 4.586,0.894 -0.121,0.063 -0.234,-0.054 -0.211,-0.07" style="fill:none;stroke:#000000;stroke-width:2.61538;stroke-linecap:round;stroke-linejoin:round;stroke-miterlimit:10;stroke-dasharray:none;stroke-opacity:1" id="path1112" />
         </g>
         <g id="g1114" transform="scale(1,-1)">
            <path d="m 1049.812,-216.402 c -0.289,-0.414 0.602,-0.102 0.114,-1.286 -1.946,-1.335 -5.965,-2.351 -7.789,-2.261 -0.699,0.152 -0.582,-0.106 -0.539,-0.102" style="fill:none;stroke:#000000;stroke-width:2.61538;stroke-linecap:round;stroke-linejoin:round;stroke-miterlimit:10;stroke-dasharray:none;stroke-opacity:1" id="path1116" />
         </g>
      </g>
   </g>
</svg>
