<?xml version="1.0" encoding="UTF-8" standalone="no"?>
<!-- Created by Ashley Blewer - This work is licensed under a Creative Commons Attribution 4.0 International License -->

<svg width="544" height="480" viewBox="0 0 143.93334 127" version="1.1" id="svg2490" inkscape:version="1.1.2 (08b2f3d93c, 2022-04-05)" sodipodi:docname="1985-video8-1.svg"
   xmlns:inkscape="http://www.inkscape.org/namespaces/inkscape"
   xmlns:sodipodi="http://sodipodi.sourceforge.net/DTD/sodipodi-0.dtd"
   xmlns="http://www.w3.org/2000/svg"
   xmlns:svg="http://www.w3.org/2000/svg">
   <sodipodi:namedview id="namedview2492" pagecolor="#ffffff" bordercolor="#666666" borderopacity="1.0" inkscape:pageshadow="2" inkscape:pageopacity="0.0" inkscape:pagecheckerboard="0" inkscape:document-units="mm" showgrid="false" units="px" inkscape:zoom="0.90583674" inkscape:cx="272.67607" inkscape:cy="177.18425" inkscape:window-width="1848" inkscape:window-height="1136" inkscape:window-x="72" inkscape:window-y="27" inkscape:window-maximized="1" inkscape:current-layer="layer1" />
   <defs id="defs2487" />
   <g inkscape:label="Layer 1" inkscape:groupmode="layer" id="layer1">
      <g id="g166" transform="matrix(0.40550541,0,0,-0.40550541,-19.858938,-39.016209)">
         <path d="m 378.422,-169.602 c -0.137,0.922 2.035,0.051 2.543,0.235 14.47062,-6.087 17.47297,-24.84137 4.371,-34.406 -1.258,-0.649 -3.289,-0.407 -5.586,-0.836 -2.559,-0.282 -6.168,0.621 -7.078,1.254 -1.649,0.324 -6.563,-0.457 -9.363,-0.407 -2.004,0.375 -3.711,1.207 -4.426,2.032 -0.438,0.168 0.086,0.273 -1.965,0.128 -0.66,0 -3.492,-0.703 -3.242,-0.558 l -0.024,0.043" style="fill:none;stroke:#000000;stroke-width:2.61538;stroke-linecap:round;stroke-linejoin:round;stroke-miterlimit:10;stroke-dasharray:none;stroke-opacity:1" id="path168" sodipodi:nodetypes="cccccccccc" />
      </g>
      <g id="g170" transform="matrix(0.40550541,0,0,-0.40550541,-19.858938,-39.016209)">
         <path d="m 357.297,-200.32 c 1.09,-0.356 3.492,3.316 3.586,5.496 0.664,5.804 0.492,11.734 -0.477,16.594 -0.664,1.765 -0.511,0.902 -0.531,1.453 -0.133,1.418 0.305,0.312 -1.199,1.433 -2.906,1.637 -8.797,-0.211 -9.922,0.059 -0.59,-0.32 -1.32,-0.93 -1.375,-1.578 2.269,-1.102 8.293,-0.989 9.144,-2.848 0.692,-4.609 0.387,-10.227 0.473,-15.059 -0.012,-2.132 -0.293,-4.695 -0.691,-5.843 0.425,0.273 -0.149,-0.477 -0.176,-0.379" style="fill:none;stroke:#000000;stroke-width:2.61538;stroke-linecap:round;stroke-linejoin:round;stroke-miterlimit:10;stroke-dasharray:none;stroke-opacity:1" id="path172" />
      </g>
      <g id="g174" transform="matrix(0.40550541,0,0,-0.40550541,-19.858938,-39.016209)">
         <path d="m 357.172,-175.828 c 0.086,0.207 0.523,4.531 2.953,4.144 3.687,0.672 9.336,1.993 11.977,1.758 2.445,-1.679 5.519,-6.176 7.449,-10.199 1.25,-3.195 1.398,-6.641 0.972,-9.957 -0.945,-4.375 -3.37437,-9.15249 -5.81237,-12.81249 -0.418,-1.32 -0.87863,0.20749 -2.03863,-0.46051" style="fill:none;stroke:#000000;stroke-width:2.61538;stroke-linecap:round;stroke-linejoin:round;stroke-miterlimit:10;stroke-dasharray:none;stroke-opacity:1" id="path176" sodipodi:nodetypes="ccccccc" />
      </g>
      <g id="g178" transform="matrix(0.40550541,0,0,-0.40550541,-19.858938,-39.016209)">
         <path d="m 378.422,-169.602 c -0.242,0.235 -3.309,-1.289 -3.934,-1.043" style="fill:none;stroke:#000000;stroke-width:2.61538;stroke-linecap:round;stroke-linejoin:round;stroke-miterlimit:10;stroke-dasharray:none;stroke-opacity:1" id="path180" sodipodi:nodetypes="cc" />
      </g>
      <g id="g182" transform="matrix(0.40550541,0,0,-0.40550541,-19.858938,-39.016209)">
         <path d="m 347.125,-177.379 c -0.238,-0.422 -2.238,0.512 -3.988,0.078 -9.539,-0.637 -20.02,-0.726 -29.989,-2.371 -6.238,-0.969 -11.378,-1.894 -16.925,-2.629 -3.918,-0.008 -6.614,-1.617 -10.293,-2.234 -3.899,-0.676 -6.918,-1.817 -10.555,-3.438 -2.48,-1.066 -5.473,-3.406 -6.086,-4.027 0.059,-0.004 0.098,-0.055 0.16,-0.039" style="fill:none;stroke:#000000;stroke-width:2.61538;stroke-linecap:round;stroke-linejoin:round;stroke-miterlimit:10;stroke-dasharray:none;stroke-opacity:1" id="path184" />
      </g>
      <g id="g186" transform="matrix(0.40550541,0,0,-0.40550541,-19.858938,-39.016209)">
         <path d="m 280.715,-191.566 c -0.125,-1.246 1.973,1.847 3.383,2.101 3.789,2.277 7.691,4.266 11.804,5.207 4.813,2.043 11.266,2.754 16.86,3.113 8.695,1.223 18.531,1.282 26.597,1.833 5.032,0.246 10.575,0.785 15.387,0.066 0.285,0.016 -0.332,-0.012 -0.148,-0.254" style="fill:none;stroke:#000000;stroke-width:2.61538;stroke-linecap:round;stroke-linejoin:round;stroke-miterlimit:10;stroke-dasharray:none;stroke-opacity:1" id="path188" />
      </g>
      <g id="g190" transform="matrix(0.40550541,0,0,-0.40550541,-19.858938,-39.016209)">
         <path d="m 356.574,-202.82 c -0.203,-0.563 -2.129,-0.778 -1.679,-0.637 0.074,0.238 0.035,2.184 -0.457,2.371" style="fill:none;stroke:#000000;stroke-width:2.61538;stroke-linecap:round;stroke-linejoin:round;stroke-miterlimit:10;stroke-dasharray:none;stroke-opacity:1" id="path192" />
      </g>
      <g id="g194" transform="matrix(0.40550541,0,0,-0.40550541,-19.858938,-39.016209)">
         <path d="m 315.918,-192.238 c -0.094,0.359 2.871,-0.035 3.949,-0.016 6.004,-0.59 11.957,-1.184 17.75,-2.539 4.699,-1.824 9.024,-2.801 13.285,-5.043 1.485,-0.953 2.84,-1.719 2.692,-3.73 1.027,-2.11 -0.707,-5.047 -0.574,-7.329 -0.317,-1.386 -0.34,-7.628 -0.25,-7.468" style="fill:none;stroke:#000000;stroke-width:2.61538;stroke-linecap:round;stroke-linejoin:round;stroke-miterlimit:10;stroke-dasharray:none;stroke-opacity:1" id="path196" sodipodi:nodetypes="ccccccc" />
      </g>
      <g id="g198" transform="matrix(0.40550541,0,0,-0.40550541,-19.858938,-39.016209)">
         <path d="m 315.918,-192.238 c 1.27,0.172 5.863,-6.297 6.32,-6.313 1.371,-0.168 4.25471,5.11227 5.25071,5.09627" style="fill:none;stroke:#000000;stroke-width:2.61538;stroke-linecap:round;stroke-linejoin:round;stroke-miterlimit:10;stroke-dasharray:none;stroke-opacity:1" id="path200" sodipodi:nodetypes="ccc" />
      </g>
      <g id="g202" transform="matrix(0.40550541,0,0,-0.40550541,-19.858938,-39.016209)">
         <path d="m 352.77,-218.363 c 3.144,0.554 11.91,3.398 15.046,2.601 0.297,-0.504 4.68,-2.633 6.301,-3.734 l -2.375,-66.856 c -0.496,-1.199 -2.058,-2.695 -3.765,-3.156 -4.95,-1.129 -9.993,-2.652 -14.879,-3.07 -0.625,-0.34 -3.2,-0.75 -2.516,-0.684 l 0.008,0.09 0.051,0.078" style="fill:none;stroke:#000000;stroke-width:2.61538;stroke-linecap:round;stroke-linejoin:round;stroke-miterlimit:10;stroke-dasharray:none;stroke-opacity:1" id="path204" sodipodi:nodetypes="ccccccccc" />
      </g>
      <g id="g206" transform="matrix(0.40550541,0,0,-0.40550541,-19.858938,-39.016209)">
         <path d="m 355.06433,-218.0854 c -0.54017,-25.22212 -4.59579,-53.62733 -4.42333,-75.0086" style="fill:none;stroke:#000000;stroke-width:2.61538;stroke-linecap:round;stroke-linejoin:round;stroke-miterlimit:10;stroke-dasharray:none;stroke-opacity:1" id="path208" sodipodi:nodetypes="cc" />
      </g>
      <g id="g210" transform="matrix(0.40550541,0,0,-0.40550541,-19.858938,-39.016209)">
         <path d="m 270.613,-193.648 c -1.504,-0.086 -5.238,-0.618 -7.648,-0.762 -7.754,-0.391 -15.535,-1.711 -22.77,-1.52 -5.925,-0.609 -12.215,-1.691 -16.687,-3.468 -2.481,-1.676 -4.672,-2.77 -6.43,-5.301 -2.117,-2.102 -4.047,-5.422 -5.98,-7.344 -2.243,-2.34 -3.082,-5.269 -5.422,-6.797 -1.52,-2.062 -5.028,-3.398 -5.961,-4.078 0.14,-0.121 0.316,0.266 -0.004,0.078" style="fill:none;stroke:#000000;stroke-width:2.61538;stroke-linecap:round;stroke-linejoin:round;stroke-miterlimit:10;stroke-dasharray:none;stroke-opacity:1" id="path212" />
      </g>
      <g id="g214" transform="matrix(0.40550541,0,0,-0.40550541,-19.858938,-39.016209)">
         <path d="m 199.344,-223.02 -44.508,-5.093 c -0.633,0.246 0.379,-1.262 0.941,-2.262 1.149,-2.352 2.153,-4.422 3.411,-6.125 0.925,-1.672 2.882,-4.656 3.097,-4.707 1.215,-0.203 5.988,0.625 9.027,0.656 10.86,1.328 22.442,1.367 33.266,2.965 4.098,0.68 8.707,1.684 12.129,2.027 0.059,-0.328 0.039,1.071 -1.832,2.371 -2.77,2.317 -6.055,4.383 -9.117,6.649 -1.586,1.73 -4.422,2.121 -6.414,3.519" style="fill:none;stroke:#000000;stroke-width:2.61538;stroke-linecap:round;stroke-linejoin:round;stroke-miterlimit:10;stroke-dasharray:none;stroke-opacity:1" id="path216" sodipodi:nodetypes="ccccccccccc" />
      </g>
      <g id="g218" transform="matrix(0.40550541,0,0,-0.40550541,-19.858938,-39.016209)">
         <path d="m 241.547,-207.812 c -0.777,-0.668 -6.102,-7.797 -9.449,-10.208 -2.961,-3.058 -4.934,-5.289 -8.207,-8.105 -1.075,-1.645 -3.95,-3.867 -5.051,-5.359 -1.485,-1.473 -3.442,-5 -2.985,-3.461 l -0.23,0.109" style="fill:none;stroke:#000000;stroke-width:2.61538;stroke-linecap:round;stroke-linejoin:round;stroke-miterlimit:10;stroke-dasharray:none;stroke-opacity:1" id="path220" />
      </g>
      <g id="g222" transform="matrix(0.40550541,0,0,-0.40550541,-19.858938,-39.016209)">
         <path d="m 247.78069,-206.79364 c -6.09554,-6.61686 -19.83088,-27.27801 -27.63269,-29.30036 -4.91,-0.418 -8.988,-1.359 -13.125,-2.004 -0.656,0.043 0.383,-0.367 -1.121,0.211 l -0.086,0.047" style="fill:none;stroke:#000000;stroke-width:2.61538;stroke-linecap:round;stroke-linejoin:round;stroke-miterlimit:10;stroke-dasharray:none;stroke-opacity:1" id="path224" sodipodi:nodetypes="ccccc" />
      </g>
      <g id="g226" transform="matrix(0.40550541,0,0,-0.40550541,-19.858938,-39.016209)">
         <path d="m 242.676,-207.754 c 7.219,2.207 15.758,1.988 23.762,3.305 10.64,1.676 21.703,2.418 32.285,1.418 7.285,-0.297 15.207,-0.582 20.925,0.508 1.485,0.058 4.664,0.625 3.805,0.488" style="fill:none;stroke:#000000;stroke-width:2.61538;stroke-linecap:round;stroke-linejoin:round;stroke-miterlimit:10;stroke-dasharray:none;stroke-opacity:1" id="path228" />
      </g>
      <g id="g230" transform="matrix(0.40550541,0,0,-0.40550541,-19.858938,-39.016209)">
         <path d="m 323.121,-200.223 c -0.437,0.094 0.254,-0.183 -0.059,-0.187 l -0.023,0.012 -0.012,0.007" style="fill:none;stroke:#000000;stroke-width:2.61538;stroke-linecap:round;stroke-linejoin:round;stroke-miterlimit:10;stroke-dasharray:none;stroke-opacity:1" id="path232" />
      </g>
      <g id="g234" transform="matrix(0.40550541,0,0,-0.40550541,-19.858938,-39.016209)">
         <path d="m 161.04528,-227.33577 c -4.27746,3.05308 -2.83551,13.70625 -5.20528,17.26977 -1.879,2.464 -2.402,7.547 -2.215,9.004 -0.558,1 0.344,0.972 0.297,0.585 0.59,-0.089 -2.445,0.594 -3.383,0.051 -3.781,0.043 -7.586,-0.332 -10.082,-0.328 -3.102,0.215 -3.31382,0.168 -5.96682,0.238" style="fill:none;stroke:#000000;stroke-width:2.61538;stroke-linecap:round;stroke-linejoin:round;stroke-miterlimit:10;stroke-dasharray:none;stroke-opacity:1" id="path236" sodipodi:nodetypes="ccccccc" />
      </g>
      <g id="g238" transform="matrix(0.40550541,0,0,-0.40550541,-19.858938,-39.016209)">
         <path d="m 153.625,-201.062 c 0.41,0.925 0.004,7.066 0.441,9.937 -0.105,2.324 0.375,7.395 0.676,6.852 0.067,0.05 0.153,0.07 0.231,0.093" style="fill:none;stroke:#000000;stroke-width:2.61538;stroke-linecap:round;stroke-linejoin:round;stroke-miterlimit:10;stroke-dasharray:none;stroke-opacity:1" id="path240" />
      </g>
      <g id="g242" transform="matrix(0.40550541,0,0,-0.40550541,-19.858938,-39.016209)">
         <path d="m 157.711,-182.602 c 7.969,0.09 18.23,-0.586 26.644,-0.652 3.977,-0.629 7.723,-0.277 9.782,-0.281 -0.657,0.234 0.597,0.82 0.215,2.5 0.039,1.719 -0.743,4.441 -0.758,5.508 -0.453,1.379 -0.86,1.453 -3.059,1.757 -12.734,-0.101 -26.902,-0.847 -39.988,-0.71 -7.211,0.324 -16.406,0.25 -21.856,-0.184 -1.007,0.086 -0.218,0.035 -0.257,-1.578 -0.305,-1.82 -0.805,-5.336 -0.293,-5.012 3.746,-1.32 10.148,-0.914 14.894,-2.094 5.637,-0.543 11.797,-1.535 16.899,-1.605 -0.114,-0.133 -0.766,0.195 -0.219,0.027" style="fill:none;stroke:#000000;stroke-width:2.61538;stroke-linecap:round;stroke-linejoin:round;stroke-miterlimit:10;stroke-dasharray:none;stroke-opacity:1" id="path244" />
      </g>
      <g id="g246" transform="matrix(0.40550541,0,0,-0.40550541,-19.858938,-39.016209)">
         <path d="m 132.969,-184.809 c 0.187,-2.746 0.461,-6.914 0.82,-10.171 0.441,-2.633 -0.152,-6.747 -0.012,-7.368" style="fill:none;stroke:#000000;stroke-width:2.61538;stroke-linecap:round;stroke-linejoin:round;stroke-miterlimit:10;stroke-dasharray:none;stroke-opacity:1" id="path248" />
      </g>
      <g id="g250" transform="matrix(0.40550541,0,0,-0.40550541,-19.858938,-39.016209)">
         <path d="m 129.453,-203.484 c 2.59,0.621 7.102,0.961 10.695,1.296 5.043,0.379 9.41,1.607 13.477,1.126" style="fill:none;stroke:#000000;stroke-width:2.61538;stroke-linecap:round;stroke-linejoin:round;stroke-miterlimit:10;stroke-dasharray:none;stroke-opacity:1" id="path252" sodipodi:nodetypes="ccc" />
      </g>
      <g id="g254" transform="matrix(0.40550541,0,0,-0.40550541,-19.858938,-39.016209)">
         <path d="m 154.148,-204.055 c -0.265,0.082 -0.007,-0.636 -1.597,-0.547 -6.192,-0.816 -14.25,-1.007 -20.262,-0.976 -0.851,0.512 -2.371,1.058 -1.891,1.109 0.036,0.168 0.426,0.153 0.102,0.25" style="fill:none;stroke:#000000;stroke-width:2.61538;stroke-linecap:round;stroke-linejoin:round;stroke-miterlimit:10;stroke-dasharray:none;stroke-opacity:1" id="path256" />
      </g>
      <g id="g258" transform="matrix(0.40550541,0,0,-0.40550541,-19.858938,-39.016209)">
         <path d="m 130.379,-205.219 c 1.344,-0.961 3.719,-4.426 4.34,-5.949 -0.192,-0.133 -0.09,-2.508 -0.34,-4.07 0.402,-0.801 -0.27,-0.332 2.098,-0.278 6.148,1.153 14.71403,2.485 20.01503,1.985" style="fill:none;stroke:#000000;stroke-width:2.61538;stroke-linecap:round;stroke-linejoin:round;stroke-miterlimit:10;stroke-dasharray:none;stroke-opacity:1" id="path260" sodipodi:nodetypes="ccccc" />
      </g>
      <g id="g262" transform="matrix(0.40550541,0,0,-0.40550541,-19.858938,-39.016209)">
         <path d="m 135.773,-215.953 c 0.602,-2.227 1.125,-7.492 0.989,-11.289 0.078,-2.309 -0.918,-6.793 -0.473,-8.574 -0.812,-0.032 4.004,-0.934 6.121,-0.454 4.863,0.43 12.184,-0.234 14.863,-0.441 -0.398,0.715 -1.839,4.363 -2.191,6.246 0.004,0.75 -0.668,1.649 -0.816,2.277" style="fill:none;stroke:#000000;stroke-width:2.61538;stroke-linecap:round;stroke-linejoin:round;stroke-miterlimit:10;stroke-dasharray:none;stroke-opacity:1" id="path264" />
      </g>
      <g id="g266" transform="matrix(0.40550541,0,0,-0.40550541,-19.858938,-39.016209)">
         <path d="m 128.285,-205.273 c -0.246,-0.039 -2.762,-0.957 -2.402,-2.043 -0.278,-0.493 2.398,-1.86 2.512,-4.024 0.41,-2.203 1.375,-4.906 1.734,-7.289 0.551,-3.496 0.516,-7.031 0.66,-10.555 -0.293,-2.5 -0.359,-4.007 -0.945,-5.726 -0.258,-1.563 0.156,0.039 -0.071,-0.047 0.028,0.121 2.055,0.418 3.954,0.199 -0.227,0.133 1.468,-0.64 0.902,-0.222" style="fill:none;stroke:#000000;stroke-width:2.61538;stroke-linecap:round;stroke-linejoin:round;stroke-miterlimit:10;stroke-dasharray:none;stroke-opacity:1" id="path268" />
      </g>
      <g id="g270" transform="matrix(0.40550541,0,0,-0.40550541,-19.858938,-39.016209)">
         <path d="m 125.883,-207.316 c -0.137,-0.188 -2.52,-2.754 -2.875,-3.27 -0.766,-0.887 -0.758,-1.664 -1.199,-2.098 0.035,-0.722 1.015,-3.332 1.289,-5.168 0.988,-2.636 1.32,-5.05 1.543,-8.027 0.402,-2.816 0.894,-4.836 1.078,-7.168 0.426,-0.777 2.855,-1.691 3.883,-2.027" style="fill:none;stroke:#000000;stroke-width:2.61538;stroke-linecap:round;stroke-linejoin:round;stroke-miterlimit:10;stroke-dasharray:none;stroke-opacity:1" id="path272" sodipodi:nodetypes="ccccccc" />
      </g>
      <g id="g274" transform="matrix(0.40550541,0,0,-0.40550541,-19.858938,-39.016209)">
         <path d="m 120.363,-213.996 c 0.325,0.113 -4.211,0.094 -4.492,-0.141 0.238,-2.574 1.399,-7.144 1.578,-10.199 0.434,-2.527 0.285,-5.988 1.031,-7.902 -0.261,-1.414 5.11,-1.02 5.887,-1.649 0.098,0.067 0.071,0.024 0.156,0.121" style="fill:none;stroke:#000000;stroke-width:2.61538;stroke-linecap:round;stroke-linejoin:round;stroke-miterlimit:10;stroke-dasharray:none;stroke-opacity:1" id="path276" />
      </g>
      <g id="g278" transform="matrix(0.40550541,0,0,-0.40550541,-19.858938,-39.016209)">
         <path d="m 114.777,-213.574 c -1.082,1.965 -1.632,4.515 -3.519,5.894 -2.848,1.422 -6.168,0.723 -9.215,0.637 -6.871,-0.922 -13.758,-1.727 -20.668,-2.246 -4.492,-0.742 -8.934,-1.816 -13.344,-2.93 -2.261,-0.843 -5.433,-1.301 -6.312,-3.875 -0.688,-2.136 -1.664,-4.179 -1.567,-6.492 0.129,-3.371 -0.316,-6.777 0.364,-10.125 0.422,-3.519 2.41,-6.734 5.078,-8.984 2.113,-0.782 4.683,-0.141 6.961,-0.032 10.984,1.625 22.015,2.965 33.039,4.305 4.39,0.465 8.965,0.5 13.105,2.176 0.699,0.293 0.391,0.391 0.871,0.695" style="fill:none;stroke:#000000;stroke-width:2.61538;stroke-linecap:round;stroke-linejoin:round;stroke-miterlimit:10;stroke-dasharray:none;stroke-opacity:1" id="path280" />
      </g>
      <g id="g282" transform="matrix(0.40550541,0,0,-0.40550541,-19.858938,-39.016209)">
         <path d="m 63.305,-245.207 c 4.675,-0.258 9.324,0.961 14,0.508 2.191,-1.563 0.851,-4.676 1.004,-6.938 0.692696,-14.26678 1.628306,-28.57588 5.636,-41.699 1.196,-2.609 1.692,-5.457 2.543,-8.176 -0.16,-2.554 -1.418,-4.949 -1.715,-7.484 -1.5,-1.863 -4.515,-1.813 -6.812,-2.086 -2.457,-0.238 -5.113,-0.398 -7.418,-0.875 -5.265181,18.17116 -11.850387,49.30012 -7.277,67.191 0.16,0.254 -0.278,-0.547 0.039,-0.441" style="fill:none;stroke:#000000;stroke-width:2.61538;stroke-linecap:round;stroke-linejoin:round;stroke-miterlimit:10;stroke-dasharray:none;stroke-opacity:1" id="path284" sodipodi:nodetypes="cccccccccc" />
      </g>
      <g id="g286" transform="matrix(0.40550541,0,0,-0.40550541,-19.858938,-39.016209)">
         <path d="m 80.273,-249.207 c 0.981,0.199 4.485,1.133 4.489,0.035 2.654506,-10.2797 2.864647,-43.86252 1.3464,-54.60505 -0.214315,0.44982 8.519813,-0.37696 7.274596,0.85505 0.462902,11.68612 -3.581777,48.97626 -5.821,62.625 -0.184,0.305 -0.124,0.57 0,0 -2.558,-0.816 -3.049996,-6.035 -2.799996,-8.875" style="fill:none;stroke:#000000;stroke-width:2.61538;stroke-linecap:round;stroke-linejoin:round;stroke-miterlimit:10;stroke-dasharray:none;stroke-opacity:1" id="path288" sodipodi:nodetypes="ccccccc" />
      </g>
      <g id="g290" transform="matrix(0.40550541,0,0,-0.40550541,-19.858938,-39.016209)">
         <path d="m 93.382996,-302.922 c 0.778,-3.91 0.419371,-14.74125 0.426004,-16.555 0.515889,-7.35632 2.584421,-12.04741 4.199,-16.343" style="fill:none;stroke:#000000;stroke-width:2.61538;stroke-linecap:round;stroke-linejoin:round;stroke-miterlimit:10;stroke-dasharray:none;stroke-opacity:1" id="path292" sodipodi:nodetypes="ccc" />
      </g>
      <g id="g294" transform="matrix(0.40550541,0,0,-0.40550541,-19.858938,-39.016209)">
         <path d="m 93.809,-319.477 c 0.687,-0.789 4.613,-4.601 5.875,-6.23 3.043,-3.316 6.425,-6.66 10.906,-8.27 1.051,-0.382 1.07,-0.632 1.383,-0.664" style="fill:none;stroke:#000000;stroke-width:2.61538;stroke-linecap:round;stroke-linejoin:round;stroke-miterlimit:10;stroke-dasharray:none;stroke-opacity:1" id="path296" sodipodi:nodetypes="cccc" />
      </g>
      <g id="g298" transform="matrix(0.40550541,0,0,-0.40550541,-19.858938,-39.016209)">
         <path d="m 98.008,-335.82 c -1.043,-0.024 2.937,0.496 3.91,0.668 1.852,0.261 12.46141,1.41434 10.055,0.511" style="fill:none;stroke:#000000;stroke-width:2.61538;stroke-linecap:round;stroke-linejoin:round;stroke-miterlimit:10;stroke-dasharray:none;stroke-opacity:1" id="path300" sodipodi:nodetypes="ccc" />
      </g>
      <g id="g302" transform="matrix(0.40550541,0,0,-0.40550541,-19.858938,-39.016209)">
         <path d="m 113.512,-335.469 c -2.117,-0.062 1.422,-0.586 2.64,-0.261 31.43843,3.92393 61.15758,10.24391 90.86,14.675 2.261,0.516 5.703,0.582 4.254,0.629 0.648,0.227 -0.27,0.153 0.179,0.207 0.035,-0.027 -0.48,-0.164 -0.113,-0.355 0.047,-0.196 -0.445,-0.028 0.973,-0.66 -0.211,-0.059 -0.438,0.132 -0.137,-0.047 -0.504,0.234 3.855,-1.258 5,-1.356 5.926,-1.605 11.57,-1.304 17.684,0.496 9.511,1.575 19.414,3.703 29,6.043 6.043,1.082 13.586,3.012 18.695,4.032 2.441,0.351 0.351,0.066 1.152,0.152 -0.019,-0.188 -0.297,-0.008 0.321,-0.086 2.835,0.141 4.105,0.688 7.289,1.852 6.312,2.605 14.429,4.679 22.043,5.726 7.613,2.027 16.574,1.516 23.625,3.606 0.859,0.519 3.808,1.718 3.332,2.304 2.339,3.133 6.589,4.273 10.281,5.34" style="fill:none;stroke:#000000;stroke-width:2.61538;stroke-linecap:round;stroke-linejoin:round;stroke-miterlimit:10;stroke-dasharray:none;stroke-opacity:1" id="path304" sodipodi:nodetypes="ccccccccccccccccccc" />
      </g>
      <g id="g306" transform="matrix(0.40550541,0,0,-0.40550541,-19.858938,-39.016209)">
         <path d="m 132.09,-239.395 c 0.738,-6.937 2.351,-14.96 3.699,-22.367 0.422,-5.289 1.481,-10.789 2.504,-15.691 1.039,-5.774 2.32,-11.41 2.391,-17.164 0.128,-2.66 0.726,-6.184 0.789,-8.332 0.031,-1.727 0.129,-5.117 0.562,-5.117" style="fill:none;stroke:#000000;stroke-width:2.61538;stroke-linecap:round;stroke-linejoin:round;stroke-miterlimit:10;stroke-dasharray:none;stroke-opacity:1" id="path308" />
      </g>
      <g id="g310" transform="matrix(0.40550541,0,0,-0.40550541,-19.858938,-39.016209)">
         <path d="m 136.055,-239.617 c 0.816,-0.735 5.304,-3.598 6.457,-5.547 1.765,-2.133 0.426,-5.582 1.613,-8.68 1.039,-6.218 2.781,-12.25 3.895,-18.472 0.746,-4.129 1.683,-7.895 2.113,-11.649 0.133,-0.265 0.429,-2.125 0.222,-1.617 0.114,-1.098 -0.449,-2.082 -1.605,-3.863 -1.906,-3.075 -4.43,-7.559 -5.137,-11.059 -2.453,-1.441 -2.515,-7.594 -3.004,-7.609 0.082,0.133 0.012,0.301 0.059,0.445" style="fill:none;stroke:#000000;stroke-width:2.61538;stroke-linecap:round;stroke-linejoin:round;stroke-miterlimit:10;stroke-dasharray:none;stroke-opacity:1" id="path312" />
      </g>
      <g id="g314" transform="matrix(0.40550541,0,0,-0.40550541,-19.858938,-39.016209)">
         <path d="m 147.035,-302.207 c 0.356,-0.16 4.91,1.312 7.035,1.336 2.887,0.582 7.207,0.754 9.387,1.34 -0.019,-0.09 -0.043,-0.114 -0.523,-0.094" style="fill:none;stroke:#000000;stroke-width:2.61538;stroke-linecap:round;stroke-linejoin:round;stroke-miterlimit:10;stroke-dasharray:none;stroke-opacity:1" id="path316" />
      </g>
      <g id="g318" transform="matrix(0.40550541,0,0,-0.40550541,-19.858938,-39.016209)">
         <path d="m 143.711,-309.547 c -1.906,-0.418 3.355,0.684 4.254,1.07 11.82,3.543 24.449,3.704 36.5,6.27 15.215,2.395 30.39,5.434 45.672,7.051 7.254,0.894 14.5,3.144 21.851,2.937 2.668,-0.359 2.309,0.328 4.348,-0.953 7.10834,-3.42488 11.87385,-7.55965 17.562,-12.637 0.94984,-2.24516 0.88007,-5.45855 0.286,-7.68494" style="fill:none;stroke:#000000;stroke-width:2.61538;stroke-linecap:round;stroke-linejoin:round;stroke-miterlimit:10;stroke-dasharray:none;stroke-opacity:1" id="path320" sodipodi:nodetypes="cccccccc" />
      </g>
      <g id="g322" transform="matrix(0.40550541,0,0,-0.40550541,-19.858938,-39.016209)">
         <path d="m 150.125,-241.965 c 0.137,0.32 1.539,-2.285 2.543,-3.094 3.98,-5.734 7.008,-11.679 8.168,-18.484 0.5,-3.105 1.57,-7.152 1.625,-10.445 0.652,-3.114 0.176,-5.606 0.586,-8.824 -0.129,-1.485 -0.27,-5.239 -1.168,-6.305 0.125,-0.028 -0.52,0.351 1.551,-0.949 1.254,-1.024 3.961,-2.356 3.293,-2.079 -0.016,1.817 0.406,5.528 0.558,8.391 0.594,5.543 0.352,10.906 0.383,16.582 -0.527,3.922 -0.875,6.805 -1.422,10.863 -0.054,3.778 -1.582,8.461 -2.394,11.395 -0.141,0.816 -0.715,2.785 -0.895,3.812" style="fill:none;stroke:#000000;stroke-width:2.61538;stroke-linecap:round;stroke-linejoin:round;stroke-miterlimit:10;stroke-dasharray:none;stroke-opacity:1" id="path324" sodipodi:nodetypes="ccccccccccccc" />
      </g>
      <g id="g326" transform="matrix(0.40550541,0,0,-0.40550541,-19.858938,-39.016209)">
         <path d="m 148.129,-253.988 c 0.574,-0.938 5.687,1.328 5.644,-0.422 1.079,-2.184 1.055,-5.438 1.411,-7.586 0.398,-0.016 -3.454,-1.899 -5.344,-1.832 -2.965,-0.852 -1.778,-0.852 -2.238,2.121 -0.485,2.445 -0.918,7.793 -0.707,7.305 0.062,-0.008 -0.008,0.031 -0.02,0.05" style="fill:none;stroke:#000000;stroke-width:2.61538;stroke-linecap:round;stroke-linejoin:round;stroke-miterlimit:10;stroke-dasharray:none;stroke-opacity:1" id="path328" />
      </g>
      <g id="g330" transform="matrix(0.40550541,0,0,-0.40550541,-19.858938,-39.016209)">
         <path d="m 352.77,-218.363 c 0.343,0.754 -4.297,-0.051 -5.653,0.097 -2.031,-0.546 -6.062,-0.269 -6.887,-0.539 -0.07,-0.05 -1.269,-4.332 -0.976,-6.261 l -2.094,-72.379 c 0.035,-0.891 -0.055,0.32 -0.031,-1.125 -0.152,0.023 -0.016,0.097 -0.156,-0.059 -1.375,-2.246 0.375,-0.289 -2.246,-1.887" style="fill:none;stroke:#000000;stroke-width:2.61538;stroke-linecap:round;stroke-linejoin:round;stroke-miterlimit:10;stroke-dasharray:none;stroke-opacity:1" id="path332" sodipodi:nodetypes="cccccccc" />
      </g>
      <g id="g334" transform="matrix(0.40550541,0,0,-0.40550541,-19.858938,-39.016209)">
         <path d="m 180.316,-255.996 78.723,7.371 c 2.273,0.109 4.184,0.117 5.539,-1.004 1.69089,-1.84611 1.8419,-5.84288 0.914,-7.586 -1.113,-2.672 -6.80179,-3.02264 -10.113,-3.437 l -70.012,-6.606 c -2.387,0.231 -4.59,0.211 -6.238,1.399 -1.817,1.031 -2.738,6.269 -1.516,8.543 0.254,0.863 2.742,1.8 2.703,1.32" style="fill:none;stroke:#000000;stroke-width:1.30769;stroke-linecap:round;stroke-linejoin:round;stroke-miterlimit:10;stroke-dasharray:none;stroke-opacity:1" id="path336" sodipodi:nodetypes="ccccccccc" />
      </g>
      <g id="g338" transform="matrix(0.40550541,0,0,-0.40550541,-19.858938,-39.016209)">
         <path d="m 179.492,-271.473 c 4.762,0.391 11.051,1.848 14.699,1.055 0.817,-0.531 0.84,-0.953 1.629,-1.723 0.239,-0.523 -5.418,-0.836 -8.004,-0.988 -3.515,-0.074 -7.093,-0.969 -8.941,-0.344 -0.547,0.629 -0.637,0.535 0.082,1.434" style="fill:none;stroke:#000000;stroke-width:1.30769;stroke-linecap:round;stroke-linejoin:round;stroke-miterlimit:10;stroke-dasharray:none;stroke-opacity:1" id="path340" />
      </g>
      <g id="g342" transform="matrix(0.40550541,0,0,-0.40550541,-19.858938,-39.016209)">
         <path d="m 183.184,-279.047 c 1.004,-0.441 4.39,0.422 6.589,0.297 4.09,0.129 5.942,-0.012 5.293,-2.84 -0.402,-1.14 0.496,-1.472 -0.586,-1.519 -2.996,-0.266 -9.265,-1.524 -11.339,-0.918 -0.48437,1.9528 -0.67091,4.77736 0.597,4.984" style="fill:none;stroke:#000000;stroke-width:1.30769;stroke-linecap:round;stroke-linejoin:round;stroke-miterlimit:10;stroke-dasharray:none;stroke-opacity:1" id="path344" sodipodi:nodetypes="cccccc" />
      </g>
      <g id="g346" transform="matrix(0.40550541,0,0,-0.40550541,-19.858938,-39.016209)">
         <path d="m 200.352,-276.648 c 0.14,0.55 0.859,-2.551 0.328,-4.454 0.273,-1.57 5.55,0.86 8.488,0.106 2.52,-0.027 4.91,-0.223 3.977,2.379 0.062,1.461 -0.579,4.015 0.078,3.277 -2.426,0.856 -7.653,-1.664 -11.36,-1.449" style="fill:none;stroke:#000000;stroke-width:1.30769;stroke-linecap:round;stroke-linejoin:round;stroke-miterlimit:10;stroke-dasharray:none;stroke-opacity:1" id="path348" sodipodi:nodetypes="cccccc" />
      </g>
      <g id="g350" transform="matrix(0.40550541,0,0,-0.40550541,-19.858938,-39.016209)">
         <path d="m 223.684,-272.773 c 2.234,0.382 6.535,0.48 7.961,-0.278 1.304,-0.668 2.144,-1.332 1.726,-2.715 -2.301,-2.929 -7.605,-2.195 -9.887,-0.476 -0.742,1.621 2.356,4.109 4.211,3.703" style="fill:none;stroke:#000000;stroke-width:1.30769;stroke-linecap:round;stroke-linejoin:round;stroke-miterlimit:10;stroke-dasharray:none;stroke-opacity:1" id="path352" />
      </g>
      <g id="g354" transform="matrix(0.40550541,0,0,-0.40550541,-19.858938,-39.016209)">
         <path d="m 240.793,-270.219 c 2.516,0.774 6.141,1.649 9.023,0.989 2.637,-0.719 2.477,-3.879 0.914,-4.95 -2.496,-1.468 -6.281,-0.492 -9.003,-0.445 -1.692,0.082 -4.298,3.441 -0.934,4.406" style="fill:none;stroke:#000000;stroke-width:1.30769;stroke-linecap:round;stroke-linejoin:round;stroke-miterlimit:10;stroke-dasharray:none;stroke-opacity:1" id="path356" sodipodi:nodetypes="ccccc" />
      </g>
      <g id="g358" transform="matrix(0.40550541,0,0,-0.40550541,-19.858938,-39.016209)">
         <path d="m 259.69622,-267.72283 c 2.39438,0.38843 7.31515,-0.33117 6.82378,-3.08917 -0.856,-3.672 -6,-3.961 -8.813,-2.641 -2.793,0.25 -4.352,2.246 -1.809,4.406 1.18,0.762 3.79822,1.32417 3.79822,1.32417" style="fill:none;stroke:#000000;stroke-width:1.30769;stroke-linecap:round;stroke-linejoin:round;stroke-miterlimit:10;stroke-dasharray:none;stroke-opacity:1" id="path360" sodipodi:nodetypes="ccccc" />
      </g>
      <g id="g362" transform="matrix(0.40550541,0,0,-0.40550541,-19.858938,-39.016209)">
         <path d="m 184.891,-294.84 c -0.789,-0.133 3.894,0.949 5.55,0.649 0.852,-0.157 2.965,-0.633 2.383,-1.223 0.278,-0.695 -0.375,-0.977 -1.09,-1.473 -2.179,-1.14 -8.293,-0.808 -9.433,0.075 0.273,-0.004 1.719,1.991 2.59,1.972" style="fill:none;stroke:#000000;stroke-width:1.30769;stroke-linecap:round;stroke-linejoin:round;stroke-miterlimit:10;stroke-dasharray:none;stroke-opacity:1" id="path364" sodipodi:nodetypes="cccccc" />
      </g>
      <g id="g366" transform="matrix(0.40550541,0,0,-0.40550541,-19.858938,-39.016209)">
         <path d="m 239.809,-288.246 c 1.695,0.367 5.621,1.402 7.765,0.613 1.16,-0.183 2.063,0.102 1.371,-1.199 -0.328,-2.371 -5.812,-2.027 -7.937,-1.559 -2.172,0.832 -1.355,0.555 -1.199,2.145" style="fill:none;stroke:#000000;stroke-width:1.30769;stroke-linecap:round;stroke-linejoin:round;stroke-miterlimit:10;stroke-dasharray:none;stroke-opacity:1" id="path368" sodipodi:nodetypes="ccccc" />
      </g>
      <g id="g370" transform="matrix(0.40550541,0,0,-0.40550541,-19.858938,-39.016209)">
         <path d="m 215.668,-209.828 c 0.422,0.008 3.75,-1.942 4.648,-3 2.243,0.035 -0.32,-2.731 -0.914,-4.121 -0.836,-1.91 -4.203,-4.922 -6.136,-4.754 -1.426,-0.383 -2.368,2.148 -3.914,2.617 -0.743,0.391 -0.778,1.024 -1.188,1.738" style="fill:none;stroke:#000000;stroke-width:1.30769;stroke-linecap:round;stroke-linejoin:round;stroke-miterlimit:10;stroke-dasharray:none;stroke-opacity:1" id="path372" />
      </g>
      <g id="g374" transform="matrix(0.40550541,0,0,-0.40550541,-19.858938,-39.016209)">
         <path d="m 165.762,-229.246 c -0.176,0.012 4.539,0.777 6.625,0.496 3.644,-0.242 7.797,0.152 10.234,-0.273" style="fill:none;stroke:#000000;stroke-width:1.30769;stroke-linecap:round;stroke-linejoin:round;stroke-miterlimit:10;stroke-dasharray:none;stroke-opacity:1" id="path376" />
      </g>
      <g id="g378" transform="matrix(0.40550541,0,0,-0.40550541,-19.858938,-39.016209)">
         <path d="m 187.234,-235.051 c 0.321,-0.258 -2.472,1.633 -1.929,1.633 1.343,1.23 6.715,1.434 5.972,0.957 1.039,-1.851 0.239,-1.797 2.602,-1.172 1.867,0.246 3.441,0.102 3.187,0.203 0.098,0.485 0.075,1.004 1.606,1.825 2.883,0.582 5.703,0.074 5.453,-1.11 -0.516,-0.824 -0.332,-1.015 -0.488,-0.957 -0.039,-0.039 -0.196,0.074 -0.274,0.063" style="fill:none;stroke:#000000;stroke-width:1.30769;stroke-linecap:round;stroke-linejoin:round;stroke-miterlimit:10;stroke-dasharray:none;stroke-opacity:1" id="path380" />
      </g>
      <g id="g382" transform="matrix(0.40550541,0,0,-0.40550541,-19.858938,-39.016209)">
         <path d="m 185.637,-235.027 c 0.144,0.191 3.82,0.468 4.5,0.562" style="fill:none;stroke:#000000;stroke-width:1.30769;stroke-linecap:round;stroke-linejoin:round;stroke-miterlimit:10;stroke-dasharray:none;stroke-opacity:1" id="path384" />
      </g>
      <g id="g386" transform="matrix(0.40550541,0,0,-0.40550541,-19.858938,-39.016209)">
         <path d="m 197.977,-234.457 c -1.047,0.059 4.273,0.32 4.601,0.41 0.563,-0.055 0.059,0.121 0.274,0.117" style="fill:none;stroke:#000000;stroke-width:1.30769;stroke-linecap:round;stroke-linejoin:round;stroke-miterlimit:10;stroke-dasharray:none;stroke-opacity:1" id="path388" />
      </g>
      <g id="g390" transform="matrix(0.40550541,0,0,-0.40550541,-19.858938,-39.016209)">
         <path d="m 195.102,-229.59 c -0.223,-0.047 -2.801,0.402 -2.7,0.379 1.922,0.188 8.387,0.09 9.047,0.18 -0.066,-0.012 -0.511,0.047 -1.066,0 l -0.082,-0.004" style="fill:none;stroke:#000000;stroke-width:1.30769;stroke-linecap:round;stroke-linejoin:round;stroke-miterlimit:10;stroke-dasharray:none;stroke-opacity:1" id="path392" />
      </g>
      <g id="g394" transform="matrix(0.40550541,0,0,-0.40550541,-19.858938,-39.016209)">
         <path d="m 98.68,-248.246 c 0.968,-4.649 1.457,-10.336 2.617,-15.664 0.734,-4.723 1.148,-9.922 2,-14.723 0.183,-4.238 0.855,-8.078 1.109,-12.172 2.07069,-8.48694 1.41638,-18.66527 3.5,-25.425" style="fill:none;stroke:#000000;stroke-width:1.30769;stroke-linecap:round;stroke-linejoin:round;stroke-miterlimit:10;stroke-dasharray:none;stroke-opacity:1" id="path396" sodipodi:nodetypes="ccccc" />
      </g>
      <g id="g398" transform="matrix(0.40550541,0,0,-0.40550541,-19.858938,-39.016209)">
         <path d="m 108.117,-316.734 c 3.3231,-5.09548 7.89143,-9.44286 11.973,-13.758" style="fill:none;stroke:#000000;stroke-width:1.30769;stroke-linecap:round;stroke-linejoin:round;stroke-miterlimit:10;stroke-dasharray:none;stroke-opacity:1" id="path400" sodipodi:nodetypes="cc" />
      </g>
      <g id="g402" transform="matrix(0.40550541,0,0,-0.40550541,-19.858938,-39.016209)">
         <path d="m 277.77,-305.836 c 1.9116,9.03725 -0.51958,21.54539 4.171,27.816 0.438,0.688 0.606,0.95 0.645,1.012" style="fill:none;stroke:#000000;stroke-width:1.30769;stroke-linecap:round;stroke-linejoin:round;stroke-miterlimit:10;stroke-dasharray:none;stroke-opacity:1" id="path404" sodipodi:nodetypes="ccc" />
      </g>
      <g id="g406" transform="matrix(0.40550541,0,0,-0.40550541,-19.858938,-39.016209)">
         <path d="m 282.91,-257.633 c 0,0 -2.99384,16.98969 -3.59,24.051 0.0213,5.321 -0.582,20.949 -0.582,20.949" style="fill:none;stroke:#000000;stroke-width:1.30769;stroke-linecap:round;stroke-linejoin:round;stroke-miterlimit:10;stroke-dasharray:none;stroke-opacity:1" id="path408" sodipodi:nodetypes="ccc" />
      </g>
      <g id="g410" transform="matrix(0.40550541,0,0,-0.40550541,-19.858938,-39.016209)">
         <path d="m 253.734,-202.988 c -0.043,0.34 -0.582,1.676 -0.269,1.933 1.082,1.891 6.43,0.903 9.387,1.715 10.707,1.024 22.105,2.039 32.89,2.895 3.922,0.257 8.301,0.218 11.61,0.484" style="fill:none;stroke:#000000;stroke-width:1.30769;stroke-linecap:round;stroke-linejoin:round;stroke-miterlimit:10;stroke-dasharray:none;stroke-opacity:1" id="path412" />
      </g>
      <g id="g414" transform="matrix(0.40550541,0,0,-0.40550541,-19.858938,-39.016209)">
         <path d="m 260.508,-198.086 c 1.617,0.07 5.25,0.59 7.324,0.762" style="fill:none;stroke:#000000;stroke-width:1.30769;stroke-linecap:round;stroke-linejoin:round;stroke-miterlimit:10;stroke-dasharray:none;stroke-opacity:1" id="path416" />
      </g>
      <g id="g418" transform="matrix(0.40550541,0,0,-0.40550541,-19.858938,-39.016209)">
         <path d="m 218.418,-206.734 c 0.008,1.933 4.34,-0.871 5.488,-2.227 2.543,-2.199 -2.488,2.625 -4.633,3.082 -1.89,0.574 -0.296,0.051 0.485,-0.316 l 0.07,-0.024" style="fill:none;stroke:#000000;stroke-width:1.30769;stroke-linecap:round;stroke-linejoin:round;stroke-miterlimit:10;stroke-dasharray:none;stroke-opacity:1" id="path420" />
      </g>
      <g id="g422" transform="matrix(0.40550541,0,0,-0.40550541,-19.858938,-39.016209)">
         <path d="m 315.078,-215.043 c 0.274,0.523 0.188,0.422 -0.973,0.926 -2.105,0.25 -4.574,-1.711 -2.816,-2.223 2.082,0.028 5.203,-0.23 3.617,-2.332 -0.906,-1.168 -3.59,-0.43 -4.211,-0.058" style="fill:none;stroke:#000000;stroke-width:1.30769;stroke-linecap:round;stroke-linejoin:round;stroke-miterlimit:10;stroke-dasharray:none;stroke-opacity:1" id="path424" />
      </g>
      <g id="g426" transform="matrix(0.40550541,0,0,-0.40550541,-19.858938,-39.016209)">
         <path d="m 318.734,-215.75 c 1.289,0.238 -0.679,0.051 -0.515,-1.402 0.586,-1.692 4.48,-0.289 2.75,1.468 -0.535,0.707 -2.047,0.836 -2.196,0.559" style="fill:none;stroke:#000000;stroke-width:1.30769;stroke-linecap:round;stroke-linejoin:round;stroke-miterlimit:10;stroke-dasharray:none;stroke-opacity:1" id="path428" />
      </g>
      <g id="g430" transform="matrix(0.40550541,0,0,-0.40550541,-19.858938,-39.016209)">
         <path d="m 324.285,-218.289 c 0.199,0.246 -0.312,2.219 -0.683,3.781 0.148,0.84 2.296,-1.289 3.812,-1.75 2.281,-1.992 1.234,1.496 1.18,2.293" style="fill:none;stroke:#000000;stroke-width:1.30769;stroke-linecap:round;stroke-linejoin:round;stroke-miterlimit:10;stroke-dasharray:none;stroke-opacity:1" id="path432" />
      </g>
      <g id="g434" transform="matrix(0.40550541,0,0,-0.40550541,-19.858938,-39.016209)">
         <path d="m 330.914,-213.566 c -0.719,-0.227 2.055,-0.899 1.641,-0.942 0.148,0.09 0.328,0.11 0.504,0.121" style="fill:none;stroke:#000000;stroke-width:1.30769;stroke-linecap:round;stroke-linejoin:round;stroke-miterlimit:10;stroke-dasharray:none;stroke-opacity:1" id="path436" />
      </g>
      <g id="g438" transform="matrix(0.40550541,0,0,-0.40550541,-19.858938,-39.016209)">
         <path d="m 334.262,-212.488 c 0.277,-0.367 -2.77,-2.512 -1.821,-2.188 0.18,0.684 1.313,-2.578 0.852,-2.582 l 0.031,-0.031" style="fill:none;stroke:#000000;stroke-width:1.30769;stroke-linecap:round;stroke-linejoin:round;stroke-miterlimit:10;stroke-dasharray:none;stroke-opacity:1" id="path440" />
      </g>
      <g id="g442" transform="matrix(0.40550541,0,0,-0.40550541,-19.858938,-39.016209)">
         <path d="m 325.043,-262.207 c 0,0 -2.656,-3.051 -3.949,-3.762 -2.992,-2.75 -6.149,-6.304 -9.067,-9.847 -1.183,-1.512 -2.929,-4.024 -2.273,-3.696 0.871,-1.027 5.375,-0.371 6.476,-0.258 2.04,0.114 2.555,2.504 5.032,2.243 1.242,-1.024 2.453,-2.137 5.199,-0.727 2.207,0.731 1.469,-0.035 2.5,1.41 1.812,3.301 1.437,8.481 1.555,11.965 -0.051,2.004 -0.18,3.488 -0.321,3.184 0.223,-0.176 -0.617,1.211 -0.804,0.8 -1.559,0.071 -3.77,-0.695 -4.348,-1.312" style="fill:none;stroke:#000000;stroke-width:1.30769;stroke-linecap:round;stroke-linejoin:round;stroke-miterlimit:10;stroke-dasharray:none;stroke-opacity:1" id="path444" sodipodi:nodetypes="cccccccccccc" />
      </g>
      <g id="g446" transform="matrix(0.40550541,0,0,-0.40550541,-19.858938,-39.016209)">
         <path d="m 367.016,-175.324 c -0.426,0.172 3.179,-2.356 3.382,-4.238 3.356,-6.61 -0.222,-13.77 -3.156,-19.52 -0.738,-1.91 -0.902,-2.281 0.438,-0.359 2.726,5.101 3.238,10.566 1.632,16.089 0.231,1.141 -3.218,4.516 -2.832,4.387 0.094,-0.371 -0.109,0.168 -0.16,0.336" style="fill:none;stroke:#000000;stroke-width:1.30769;stroke-linecap:round;stroke-linejoin:round;stroke-miterlimit:10;stroke-dasharray:none;stroke-opacity:1" id="path448" />
      </g>
      <g id="g450" transform="matrix(0.40550541,0,0,-0.40550541,-19.858938,-39.016209)">
         <path d="m 65.332,-215.047 c -2.887,-2.055 -3.379,-7.246 -3.277,-11.133 0.062,-5.191 2.855,-9.754 4.968,-14.125 0.653,-0.355 1.008,-1.32 1.641,-1.699" style="fill:none;stroke:#000000;stroke-width:1.30769;stroke-linecap:round;stroke-linejoin:round;stroke-miterlimit:10;stroke-dasharray:none;stroke-opacity:1" id="path452" />
      </g>
      <g id="g454" transform="matrix(0.40550541,0,0,-0.40550541,-19.858938,-39.016209)">
         <path d="m 69.324,-214.457 c -2.562,-0.949 -2.82,-5.262 -3.57,-7.836 -0.711,-7.176 3.406,-13.891 7.707,-19.027" style="fill:none;stroke:#000000;stroke-width:1.30769;stroke-linecap:round;stroke-linejoin:round;stroke-miterlimit:10;stroke-dasharray:none;stroke-opacity:1" id="path456" />
      </g>
      <g id="g458" transform="matrix(0.40550541,0,0,-0.40550541,-19.858938,-39.016209)">
         <path d="m 74.078,-212.68 c -2.48,-4.414 -4.535,-12.172 -2.805,-18.058 1.454,-4.164 3.629,-8.356 6.379,-11.328" style="fill:none;stroke:#000000;stroke-width:1.30769;stroke-linecap:round;stroke-linejoin:round;stroke-miterlimit:10;stroke-dasharray:none;stroke-opacity:1" id="path460" />
      </g>
      <g id="g462" transform="matrix(0.40550541,0,0,-0.40550541,-19.858938,-39.016209)">
         <path d="m 77.867,-212.711 c -1.004,-7.148 -2.812,-14.559 0.793,-21.48 0.727,-0.211 1.266,-3.383 1.938,-2.657" style="fill:none;stroke:#000000;stroke-width:1.30769;stroke-linecap:round;stroke-linejoin:round;stroke-miterlimit:10;stroke-dasharray:none;stroke-opacity:1" id="path464" />
      </g>
      <g id="g466" transform="matrix(0.40550541,0,0,-0.40550541,-19.858938,-39.016209)">
         <path d="m 81.953,-211.434 c -1.933,-4.925 -2.883,-12.378 -1.758,-18.234 0.731,-2.527 1.774,-7.141 4.008,-8.207" style="fill:none;stroke:#000000;stroke-width:1.30769;stroke-linecap:round;stroke-linejoin:round;stroke-miterlimit:10;stroke-dasharray:none;stroke-opacity:1" id="path468" />
      </g>
      <g id="g470" transform="matrix(0.40550541,0,0,-0.40550541,-19.858938,-39.016209)">
         <path d="m 85.625,-210.23 c 0.246,-3.586 -1.035,-10.829 -0.285,-15.606 1.222,-3.621 0.285,-10.043 4.207,-11.816 0.223,0.007 0.414,0.058 0.609,0.152" style="fill:none;stroke:#000000;stroke-width:1.30769;stroke-linecap:round;stroke-linejoin:round;stroke-miterlimit:10;stroke-dasharray:none;stroke-opacity:1" id="path472" />
      </g>
      <g id="g474" transform="matrix(0.40550541,0,0,-0.40550541,-19.858938,-39.016209)">
         <path d="m 89.477,-213.031 c -0.387,-2.207 -0.032,-7.328 -0.415,-10.633 0.059,-3.074 -1.082,-12.438 4,-10.969" style="fill:none;stroke:#000000;stroke-width:1.30769;stroke-linecap:round;stroke-linejoin:round;stroke-miterlimit:10;stroke-dasharray:none;stroke-opacity:1" id="path476" />
      </g>
      <g id="g478" transform="matrix(0.40550541,0,0,-0.40550541,-19.858938,-39.016209)">
         <path d="m 94.047,-210.973 c -0.906,-7.445 -3.543,-17.988 2.812,-23.89 0.68,-0.047 -0.105,-0.024 0.297,0.246" style="fill:none;stroke:#000000;stroke-width:1.30769;stroke-linecap:round;stroke-linejoin:round;stroke-miterlimit:10;stroke-dasharray:none;stroke-opacity:1" id="path480" />
      </g>
      <g id="g482" transform="matrix(0.40550541,0,0,-0.40550541,-19.858938,-39.016209)">
         <path d="m 94.785,-211.195 c 0.262,2.875 1.844,-3.59 1.305,-4.762 0.535,-7.219 -0.117,-15.289 3.015,-21.672 0.442,0.059 0.457,0.887 0.7,1.297" style="fill:none;stroke:#000000;stroke-width:1.30769;stroke-linecap:round;stroke-linejoin:round;stroke-miterlimit:10;stroke-dasharray:none;stroke-opacity:1" id="path484" />
      </g>
      <g id="g486" transform="matrix(0.40550541,0,0,-0.40550541,-19.858938,-39.016209)">
         <path d="m 99.375,-214.754 c 1.395,-7.437 0.437,-15.769 4.539,-22.445 0.387,-0.344 0.941,0.972 0.762,1.472" style="fill:none;stroke:#000000;stroke-width:1.30769;stroke-linecap:round;stroke-linejoin:round;stroke-miterlimit:10;stroke-dasharray:none;stroke-opacity:1" id="path488" />
      </g>
      <g id="g490" transform="matrix(0.40550541,0,0,-0.40550541,-19.858938,-39.016209)">
         <path d="m 101.836,-211.492 c -0.918,-2.828 3.086,-5.59 2.406,-9.11 0.649,-4.125 1.305,-10.152 3.59,-13 0.344,0.098 0.086,0.7 0.234,0.985" style="fill:none;stroke:#000000;stroke-width:1.30769;stroke-linecap:round;stroke-linejoin:round;stroke-miterlimit:10;stroke-dasharray:none;stroke-opacity:1" id="path492" />
      </g>
      <g id="g494" transform="matrix(0.40550541,0,0,-0.40550541,-19.858938,-39.016209)">
         <path d="m 103.719,-211.277 c 3.133,-7.664 4.086,-16.403 7.386,-24.004 -0.019,0.941 -0.093,2.91 -0.71,4.148" style="fill:none;stroke:#000000;stroke-width:1.30769;stroke-linecap:round;stroke-linejoin:round;stroke-miterlimit:10;stroke-dasharray:none;stroke-opacity:1" id="path496" />
      </g>
      <g id="g498" transform="matrix(0.40550541,0,0,-0.40550541,-19.858938,-39.016209)">
         <path d="m 107.367,-211.695 c 4.289,-6.047 3.848,-14.871 7.41,-20.825 0.106,0.625 -0.336,1.321 0.043,1.989" style="fill:none;stroke:#000000;stroke-width:1.30769;stroke-linecap:round;stroke-linejoin:round;stroke-miterlimit:10;stroke-dasharray:none;stroke-opacity:1" id="path500" />
      </g>
      <g id="g502" transform="matrix(0.40550541,0,0,-0.40550541,-19.858938,-39.016209)">
         <path d="m 111.043,-211.027 c 2.891,-6.473 5.043,-12.918 7.301,-19.645" style="fill:none;stroke:#000000;stroke-width:1.30769;stroke-linecap:round;stroke-linejoin:round;stroke-miterlimit:10;stroke-dasharray:none;stroke-opacity:1" id="path504" />
      </g>
      <g id="g506" transform="matrix(0.40550541,0,0,-0.40550541,-19.858938,-39.016209)">
         <path d="m 64.508,-215.605 c 3.488,0.867 9.883,1.468 14.398,2.085 7.739,-0.246 14.957,4.106 22.539,3.547 0.336,-0.172 0.75,-0.043 0.633,-0.414" style="fill:none;stroke:#000000;stroke-width:1.30769;stroke-linecap:round;stroke-linejoin:round;stroke-miterlimit:10;stroke-dasharray:none;stroke-opacity:1" id="path508" />
      </g>
      <g id="g510" transform="matrix(0.40550541,0,0,-0.40550541,-19.858938,-39.016209)">
         <path d="m 63.129,-219.594 c -0.727,0.715 4.301,0.692 5.289,1.164 11.371,2.489 24.398,4.055 35.203,4.981" style="fill:none;stroke:#000000;stroke-width:1.30769;stroke-linecap:round;stroke-linejoin:round;stroke-miterlimit:10;stroke-dasharray:none;stroke-opacity:1" id="path512" />
      </g>
      <g id="g514" transform="matrix(0.40550541,0,0,-0.40550541,-19.858938,-39.016209)">
         <path d="m 63.797,-223.938 c 12.387,2.051 25.656,5.95 38.492,7.899 0.984,-0.07 3.719,0.281 3.859,-0.281" style="fill:none;stroke:#000000;stroke-width:1.30769;stroke-linecap:round;stroke-linejoin:round;stroke-miterlimit:10;stroke-dasharray:none;stroke-opacity:1" id="path516" />
      </g>
      <g id="g518" transform="matrix(0.40550541,0,0,-0.40550541,-19.858938,-39.016209)">
         <path d="m 65.734,-224.445 c 0.457,-0.453 5.153,0.84 6.801,0.828 11.184,0.863 22.563,4.687 33.578,4.426 -0.109,-0.016 -0.215,0 -0.32,-0.036" style="fill:none;stroke:#000000;stroke-width:1.30769;stroke-linecap:round;stroke-linejoin:round;stroke-miterlimit:10;stroke-dasharray:none;stroke-opacity:1" id="path520" />
      </g>
      <g id="g522" transform="matrix(0.40550541,0,0,-0.40550541,-19.858938,-39.016209)">
         <path d="m 68.035,-228.992 c 13.027,1.535 25.945,5.246 39.121,5.437" style="fill:none;stroke:#000000;stroke-width:1.30769;stroke-linecap:round;stroke-linejoin:round;stroke-miterlimit:10;stroke-dasharray:none;stroke-opacity:1" id="path524" />
      </g>
      <g id="g526" transform="matrix(0.40550541,0,0,-0.40550541,-19.858938,-39.016209)">
         <path d="m 69.223,-232.629 c 13.285,3.246 27.215,7.231 41.015,6.875" style="fill:none;stroke:#000000;stroke-width:1.30769;stroke-linecap:round;stroke-linejoin:round;stroke-miterlimit:10;stroke-dasharray:none;stroke-opacity:1" id="path528" />
      </g>
      <g id="g530" transform="matrix(0.40550541,0,0,-0.40550541,-19.858938,-39.016209)">
         <path d="m 73.148,-233.816 c 8.676,0.628 18.543,3.73 27.711,4.632 3.629,0.192 9.219,1.133 11.969,0.985 l -0.164,-0.004 -0.102,-0.024" style="fill:none;stroke:#000000;stroke-width:1.30769;stroke-linecap:round;stroke-linejoin:round;stroke-miterlimit:10;stroke-dasharray:none;stroke-opacity:1" id="path532" />
      </g>
      <g id="g534" transform="matrix(0.40550541,0,0,-0.40550541,-19.858938,-39.016209)">
         <path d="m 76.043,-236.645 c 0.586,-1.3 4.789,1.043 6.426,0.84 10.629,1.7 22,3.778 32.386,4.559" style="fill:none;stroke:#000000;stroke-width:1.30769;stroke-linecap:round;stroke-linejoin:round;stroke-miterlimit:10;stroke-dasharray:none;stroke-opacity:1" id="path536" />
      </g>
      <g id="g538" transform="matrix(0.40550541,0,0,-0.40550541,-19.858938,-39.016209)">
         <path d="m 180.699,-253.445 c 4.535,0.972 11.356,1.429 16.696,2.07 3.421,0.383 9.187,1.187 11.378,1.426" style="fill:none;stroke:#000000;stroke-width:1.30769;stroke-linecap:round;stroke-linejoin:round;stroke-miterlimit:10;stroke-dasharray:none;stroke-opacity:1" id="path540" />
      </g>
      <g id="g542" transform="matrix(0.40550541,0,0,-0.40550541,-19.858938,-39.016209)">
         <path d="m 202.348,-271.297 c -2.614,-0.012 3.871,0.563 5.574,0.789 1.211,0.078 4,0.5 4.512,0.555" style="fill:none;stroke:#000000;stroke-width:1.30769;stroke-linecap:round;stroke-linejoin:round;stroke-miterlimit:10;stroke-dasharray:none;stroke-opacity:1" id="path544" />
      </g>
      <g id="g546" transform="matrix(0.40550541,0,0,-0.40550541,-19.858938,-39.016209)">
         <path d="m 222.035,-269.051 c -0.543,-0.031 4.43,0.817 5.973,0.93 1.234,0.172 6.293,0.875 5.023,0.508" style="fill:none;stroke:#000000;stroke-width:1.30769;stroke-linecap:round;stroke-linejoin:round;stroke-miterlimit:10;stroke-dasharray:none;stroke-opacity:1" id="path548" />
      </g>
      <g id="g550" transform="matrix(0.40550541,0,0,-0.40550541,-19.858938,-39.016209)">
         <path d="m 239.695,-266.352 c 2.141,0.008 5.477,0.782 7.664,0.571" style="fill:none;stroke:#000000;stroke-width:1.30769;stroke-linecap:round;stroke-linejoin:round;stroke-miterlimit:10;stroke-dasharray:none;stroke-opacity:1" id="path552" />
      </g>
      <g id="g554" transform="matrix(0.40550541,0,0,-0.40550541,-19.858938,-39.016209)">
         <path d="m 257.039,-264.18 c 2.649,-0.328 6.699,1.024 9.238,0.442" style="fill:none;stroke:#000000;stroke-width:1.30769;stroke-linecap:round;stroke-linejoin:round;stroke-miterlimit:10;stroke-dasharray:none;stroke-opacity:1" id="path556" />
      </g>
      <g id="g558" transform="matrix(0.40550541,0,0,-0.40550541,-19.858938,-39.016209)">
         <path d="m 189.844,-287.957 c 0.629,1.07 -1.035,-5.711 -1.059,-4.625 0.012,-0.188 0.895,5.414 0.637,5.398 0.105,1.825 0.23,1.313 0.32,0.274" style="fill:none;stroke:#000000;stroke-width:1.30769;stroke-linecap:round;stroke-linejoin:round;stroke-miterlimit:10;stroke-dasharray:none;stroke-opacity:1" id="path560" />
      </g>
      <g id="g562" transform="matrix(0.40550541,0,0,-0.40550541,-19.858938,-39.016209)">
         <path d="m 189.89614,-289.62405 c 1.375,0.234 8.11586,1.67105 11.03786,2.16705 18.5,1.125 36.414,4.539 54.738,6.172 1.742,0.562 6.055,0.73 6.73,0.644 -0.242,-0.031 -0.246,-0.086 -0.511,-0.082" style="fill:none;stroke:#000000;stroke-width:1.30769;stroke-linecap:round;stroke-linejoin:round;stroke-miterlimit:10;stroke-dasharray:none;stroke-opacity:1" id="path564" sodipodi:nodetypes="ccccc" />
      </g>
      <g id="g566" transform="matrix(0.40550541,0,0,-0.40550541,-19.858938,-39.016209)">
         <path d="m 261.539,-278.578 c -0.086,0.699 -0.066,-3.227 -0.379,-2.285 h -0.277" style="fill:none;stroke:#000000;stroke-width:1.30769;stroke-linecap:round;stroke-linejoin:round;stroke-miterlimit:10;stroke-dasharray:none;stroke-opacity:1" id="path568" />
      </g>
      <g id="g570" transform="matrix(0.40550541,0,0,-0.40550541,-19.858938,-39.016209)">
         <path d="m 244.621,-279.492 c 0.949,0.68 -0.555,-3.586 -0.73,-5.074 -0.27,-2.356 0.445,-0.946 -0.34,0.398" style="fill:none;stroke:#000000;stroke-width:1.30769;stroke-linecap:round;stroke-linejoin:round;stroke-miterlimit:10;stroke-dasharray:none;stroke-opacity:1" id="path572" />
      </g>
      <g id="g574" transform="matrix(0.40550541,0,0,-0.40550541,-19.858938,-39.016209)">
         <path d="m 228.719,-281.621 c -0.949,0.644 0.39,-0.789 -0.274,-1.488 -0.332,0.14 0.293,-0.153 -0.269,-0.086" style="fill:none;stroke:#000000;stroke-width:1.30769;stroke-linecap:round;stroke-linejoin:round;stroke-miterlimit:10;stroke-dasharray:none;stroke-opacity:1" id="path576" />
      </g>
   </g>
</svg>
