<?xml version="1.0" encoding="UTF-8" standalone="no"?>
<!-- Created by Ashley Blewer - This work is licensed under a Creative Commons Attribution 4.0 International License -->

<svg width="544" height="480" viewBox="0 0 143.93334 127" version="1.1" id="svg2490" inkscape:version="1.1.2 (08b2f3d93c, 2022-04-05)" sodipodi:docname="1986-mii-6.svg"
   xmlns:inkscape="http://www.inkscape.org/namespaces/inkscape"
   xmlns:sodipodi="http://sodipodi.sourceforge.net/DTD/sodipodi-0.dtd"
   xmlns="http://www.w3.org/2000/svg"
   xmlns:svg="http://www.w3.org/2000/svg">
   <sodipodi:namedview id="namedview2492" pagecolor="#ffffff" bordercolor="#666666" borderopacity="1.0" inkscape:pageshadow="2" inkscape:pageopacity="0.0" inkscape:pagecheckerboard="0" inkscape:document-units="mm" showgrid="false" units="px" inkscape:zoom="0.90583674" inkscape:cx="272.67607" inkscape:cy="177.18425" inkscape:window-width="1848" inkscape:window-height="1136" inkscape:window-x="72" inkscape:window-y="27" inkscape:window-maximized="1" inkscape:current-layer="layer1" />
   <defs id="defs2487" />
   <g inkscape:label="Layer 1" inkscape:groupmode="layer" id="layer1">
      <g id="g2736" transform="matrix(0.3971332,0,0,0.3971332,-117.76783,-183.09609)">
         <g id="g2677" transform="matrix(1.419556,0,0,1.4166503,-210.74683,-166.47151)" style="stroke-width:0.705168">
            <g id="g1492" transform="scale(1,-1)" style="stroke-width:0.705168">
               <path d="m 436.574,-611.469 c -3.984,34.957 -10.965,134.727 -11.105,144.043" style="fill:none;stroke:#000000;stroke-width:1.84428;stroke-linecap:round;stroke-linejoin:round;stroke-miterlimit:10;stroke-dasharray:none;stroke-opacity:1" id="path1494" />
            </g>
            <g id="g1496" transform="scale(1,-1)" style="stroke-width:0.705168">
               <path d="m 436.57262,-611.1593 c -0.152,4.785 -5.73262,12.7373 -7.09962,17.7803 -0.27,41.453 -7.688,109.281 -7.528,124.102 0.575,2.308 -1.914,9.937 0.637,9.468" style="fill:none;stroke:#000000;stroke-width:1.84428;stroke-linecap:round;stroke-linejoin:round;stroke-miterlimit:10;stroke-dasharray:none;stroke-opacity:1" id="path1498" sodipodi:nodetypes="cccc" />
            </g>
            <g id="g1500" transform="scale(1,-1)" style="stroke-width:0.705168">
               <path d="m 421.898,-460.023 c 8.02,-0.539 62.782,4.769 88.129,5.945" style="fill:none;stroke:#000000;stroke-width:1.84428;stroke-linecap:round;stroke-linejoin:round;stroke-miterlimit:10;stroke-dasharray:none;stroke-opacity:1" id="path1502" />
            </g>
            <g id="g1504" transform="scale(1,-1)" style="stroke-width:0.705168">
               <path d="m 421.781,-460.273 c -0.054,-0.145 4.235,-7.387 4.813,-7.5 30.801,4.246 61.344,4.644 92.129,7.316 0.859,-0.121 1.859,0.094 2.621,0.074 -0.02,0.219 0.426,-0.062 0.039,0.02 -0.074,0.011 0.144,-0.129 -0.098,0 0.078,0.004 0.168,-0.11 0.176,0.011" style="fill:none;stroke:#000000;stroke-width:1.84428;stroke-linecap:round;stroke-linejoin:round;stroke-miterlimit:10;stroke-dasharray:none;stroke-opacity:1" id="path1506" />
            </g>
            <g id="g1508" transform="scale(1,-1)" style="stroke-width:0.705168">
               <path d="m 523.266,-460.297 c -3.551,0.824 -12.387,3.015 -13.239,6.219" style="fill:none;stroke:#000000;stroke-width:1.84428;stroke-linecap:round;stroke-linejoin:round;stroke-miterlimit:10;stroke-dasharray:none;stroke-opacity:1" id="path1510" sodipodi:nodetypes="cc" />
            </g>
            <g id="g1512" transform="scale(1,-1)" style="stroke-width:0.705168">
               <path d="m 523.266,-460.297 c -0.465,-10.105 -2.223,-51.047 -3.828,-75.047" style="fill:none;stroke:#000000;stroke-width:1.84428;stroke-linecap:round;stroke-linejoin:round;stroke-miterlimit:10;stroke-dasharray:none;stroke-opacity:1" id="path1514" />
            </g>
            <g id="g1516" transform="scale(1,-1)" style="stroke-width:0.705168">
               <path d="m 461.57,-545.148 c 0.868,-3.719 5.957,-7.059 8.43,-9.942" style="fill:none;stroke:#000000;stroke-width:1.84428;stroke-linecap:round;stroke-linejoin:round;stroke-miterlimit:10;stroke-dasharray:none;stroke-opacity:1" id="path1518" />
            </g>
            <g id="g1520" transform="scale(1,-1)" style="stroke-width:0.705168">
               <path d="m 460.984,-545 c -0.882,-9.168 0.832,-18.371 0.047,-27.539 1.246,-22.465 -1.195,-45.063 1.211,-67.449 l 0.293,-0.418 0.469,-0.254" style="fill:none;stroke:#000000;stroke-width:1.84428;stroke-linecap:round;stroke-linejoin:round;stroke-miterlimit:10;stroke-dasharray:none;stroke-opacity:1" id="path1522" />
            </g>
            <g id="g1524" transform="scale(1,-1)" style="stroke-width:0.705168">
               <path d="m 463.191,-639.781 c 1.579,-3.828 6.223,-8.227 8.094,-11.946" style="fill:none;stroke:#000000;stroke-width:1.84428;stroke-linecap:round;stroke-linejoin:round;stroke-miterlimit:10;stroke-dasharray:none;stroke-opacity:1" id="path1526" />
            </g>
            <g id="g1528" transform="scale(1,-1)" style="stroke-width:0.705168">
               <path d="m 471.375,-653.223 c 0.51975,32.51535 -1.01214,67.26824 -0.039,96.965" style="fill:none;stroke:#000000;stroke-width:1.84428;stroke-linecap:round;stroke-linejoin:round;stroke-miterlimit:10;stroke-dasharray:none;stroke-opacity:1" id="path1530" sodipodi:nodetypes="cc" />
            </g>
            <g id="g1532" transform="scale(1,-1)" style="stroke-width:0.705168">
               <path d="m 436.598,-611.156 c 4.703,0.492 14.148,2.465 23.765,4.207" style="fill:none;stroke:#000000;stroke-width:1.84428;stroke-linecap:round;stroke-linejoin:round;stroke-miterlimit:10;stroke-dasharray:none;stroke-opacity:1" id="path1534" />
            </g>
            <g id="g1536" transform="scale(1,-1)" style="stroke-width:0.705168">
               <path d="m 472.109,-653.789 c 21.817,4.988 63.805,14.832 69.758,16.023" style="fill:none;stroke:#000000;stroke-width:1.84428;stroke-linecap:round;stroke-linejoin:round;stroke-miterlimit:10;stroke-dasharray:none;stroke-opacity:1" id="path1538" />
            </g>
            <g id="g1540" transform="scale(1,-1)" style="stroke-width:0.705168">
               <path d="m 542.031,-637.629 c 1.555,15.91 8.571,86.539 9.164,92.766" style="fill:none;stroke:#000000;stroke-width:1.84428;stroke-linecap:round;stroke-linejoin:round;stroke-miterlimit:10;stroke-dasharray:none;stroke-opacity:1" id="path1542" />
            </g>
            <g id="g1544" transform="scale(1,-1)" style="stroke-width:0.705168">
               <path d="m 550.883,-544.172 c -2.738,2.387 -11.57329,6.79352 -13.99929,9.46952" style="fill:none;stroke:#000000;stroke-width:1.84428;stroke-linecap:round;stroke-linejoin:round;stroke-miterlimit:10;stroke-dasharray:none;stroke-opacity:1" id="path1546" sodipodi:nodetypes="cc" />
            </g>
            <g id="g1548" transform="scale(1,-1)" style="stroke-width:0.705168">
               <path d="m 461.5,-544.871 c -0.516,-0.129 75.38371,10.16852 75.38371,10.16852" style="fill:none;stroke:#000000;stroke-width:1.84428;stroke-linecap:round;stroke-linejoin:round;stroke-miterlimit:10;stroke-dasharray:none;stroke-opacity:1" id="path1550" sodipodi:nodetypes="cc" />
            </g>
            <g id="g1552" transform="scale(1,-1)" style="stroke-width:0.705168">
               <path d="m 470.348,-555.551 0.004,-0.004 0.011,-0.004 0.039,-0.007 0.071,-0.028 0.097,-0.011 -0.004,-0.012 0.059,-0.012 h 0.113 l 0.059,0.012 0.07,0.004 0.055,-0.008 0.039,-0.016 0.066,0.008 0.063,0.02 h -0.012 l 0.031,0.007 0.028,0.004 0.015,0.008 -0.097,-0.004 -0.032,-0.031 0.079,-0.004 0.035,-0.027 0.035,-0.008 0.016,-0.02 0.019,-0.031 -0.004,-0.008 -0.004,-0.019 0.028,-0.008 0.027,0.012 0.008,-0.012 0.004,-0.012 0.023,-0.015 0.035,-0.004 0.039,-0.004 0.032,-0.02 0.031,-0.004 0.07,-0.003 h 0.051" style="fill:none;stroke:#000000;stroke-width:1.84428;stroke-linecap:round;stroke-linejoin:round;stroke-miterlimit:10;stroke-dasharray:none;stroke-opacity:1" id="path1554" />
            </g>
            <g id="g1556" transform="scale(1,-1)" style="stroke-width:0.705168">
               <path d="m 470.93,-554.723 c 5.269,0.375 74.246,9.407 80.004,9.86" style="fill:none;stroke:#000000;stroke-width:1.84428;stroke-linecap:round;stroke-linejoin:round;stroke-miterlimit:10;stroke-dasharray:none;stroke-opacity:1" id="path1558" />
            </g>
            <g id="g1560" transform="scale(1,-1)" style="stroke-width:0.705168">
               <path d="m 427.473,-521.414 c 0.3,-0.367 0.48,-0.18 0.004,-0.008 -0.387,0.301 -0.649,0.754 -0.946,1.149 -0.289,0.386 -0.465,0.843 -0.719,1.242 -0.285,0.129 0.004,-0.231 0.11,-0.18" style="fill:none;stroke:#000000;stroke-width:1.84428;stroke-linecap:round;stroke-linejoin:round;stroke-miterlimit:10;stroke-dasharray:none;stroke-opacity:1" id="path1562" />
            </g>
            <g id="g1564" transform="scale(1,-1)" style="stroke-width:0.705168">
               <path d="m 429.688,-520.762 c 5.898,0.106 84.742,6.328 90.179,6.981" style="fill:none;stroke:#000000;stroke-width:1.84428;stroke-linecap:round;stroke-linejoin:round;stroke-miterlimit:10;stroke-dasharray:none;stroke-opacity:1" id="path1566" />
            </g>
            <g id="g1568" transform="scale(1,-1)" style="stroke-width:0.705168">
               <path d="m 434.184,-584.086 c 8.371,1.731 18.68657,2.65057 26.68657,4.20957" style="fill:none;stroke:#000000;stroke-width:1.84428;stroke-linecap:round;stroke-linejoin:round;stroke-miterlimit:10;stroke-dasharray:none;stroke-opacity:1" id="path1570" sodipodi:nodetypes="cc" />
            </g>
            <g id="g1572" transform="scale(1,-1)" style="stroke-width:0.705168">
               <path d="m 462.031,-574.926 c 0,0 5.981,-6.281 7.985,-9.082" style="fill:none;stroke:#000000;stroke-width:1.84428;stroke-linecap:round;stroke-linejoin:round;stroke-miterlimit:10;stroke-dasharray:none;stroke-opacity:1" id="path1574" />
            </g>
            <g id="g1576" transform="scale(1,-1)" style="stroke-width:0.705168">
               <path d="m 462.055,-613.406 c 0.808,-1.078 10.136,-12.86 8.972,-11.032" style="fill:none;stroke:#000000;stroke-width:1.84428;stroke-linecap:round;stroke-linejoin:round;stroke-miterlimit:10;stroke-dasharray:none;stroke-opacity:1" id="path1578" />
            </g>
            <g id="g1580" transform="scale(1,-1)" style="stroke-width:0.705168">
               <path d="m 472.059,-625.246 c 23.82,3.859 57.054,11.191 71.882,14.129" style="fill:none;stroke:#000000;stroke-width:1.84428;stroke-linecap:round;stroke-linejoin:round;stroke-miterlimit:10;stroke-dasharray:none;stroke-opacity:1" id="path1582" />
            </g>
            <g id="g1584" transform="scale(1,-1)" style="stroke-width:0.705168">
               <path d="m 471.625,-583.586 c 9.063,1.695 69.961,11.09 77.039,11.981" style="fill:none;stroke:#000000;stroke-width:1.84428;stroke-linecap:round;stroke-linejoin:round;stroke-miterlimit:10;stroke-dasharray:none;stroke-opacity:1" id="path1586" />
            </g>
            <g id="g1588" transform="scale(1,-1)" style="stroke-width:0.705168">
               <path d="m 466.203,-536.16 c 0.53224,0.13775 1.14857,3.05004 1.52282,4.05949 1.30104,3.07769 1.35385,6.37418 1.87159,9.60566 0.0182,1.5016 1.15203,-1.22629 1.29148,-1.88357 0.79578,-2.25805 1.85661,-4.37386 2.33978,-6.72984 0.69329,-0.81384 0.50302,-5.68066 1.22737,-2.43406 0.67512,2.14767 1.68798,4.14935 2.43449,6.3027 1.23624,2.03995 1.86164,4.49004 3.46147,6.25162 1.3646,-2.12337 0.6926,-5.2508 0.97107,-7.73521 0.0445,-2.75257 -0.52383,-5.46377 -0.43723,-8.2206 l -0.0307,-0.56419 0.118,0.281" style="fill:none;stroke:#000000;stroke-width:1.84428;stroke-linecap:round;stroke-linejoin:round;stroke-miterlimit:10;stroke-dasharray:none;stroke-opacity:1" id="path1590" />
            </g>
            <g id="g1592" transform="scale(1,-1)" style="stroke-width:0.705168">
               <path d="m 491.719,-521.938 c 0.49595,2.78976 -3.38141,3.16971 -4.43539,0.92523 -1.78321,-1.84502 -1.27776,-5.72833 1.90622,-5.15691 2.46688,-0.35055 3.31,3.30143 2.93917,4.08368 0.0704,-3.24436 0.28447,-6.54239 -0.70349,-9.68288 0.009,-2.67608 -3.13488,-3.37288 -5.14051,-2.31712 -0.75283,1.51421 -1.61268,3.18864 -0.75426,4.67008 l 0.17226,0.26792" style="fill:none;stroke:#000000;stroke-width:1.84428;stroke-linecap:round;stroke-linejoin:round;stroke-miterlimit:10;stroke-dasharray:none;stroke-opacity:1" id="path1594" />
            </g>
            <g id="g1596" transform="scale(1,-1)" style="stroke-width:0.705168">
               <path d="m 500.852,-520.129 c -1.64378,1.31844 -3.71633,-0.47862 -3.65994,-2.56255 -0.60838,-2.87018 -1.32653,-5.81504 -1.10681,-8.75788 0.11416,-2.72974 3.33992,-2.98414 4.09876,-0.44849 2.14234,1.29148 2.51662,4.02707 2.92099,6.29292 0.6459,3.02867 -1.666,5.74896 -4.804,4.57 l 0.039,0.07" style="fill:none;stroke:#000000;stroke-width:1.84428;stroke-linecap:round;stroke-linejoin:round;stroke-miterlimit:10;stroke-dasharray:none;stroke-opacity:1" id="path1598" />
            </g>
            <g id="g1600" transform="scale(1,-1)" style="stroke-width:0.705168">
               <path d="m 508.738,-518.859 c -0.18412,-1.95371 -0.55292,-4.54378 -0.77155,-6.74977 -0.37225,-2.01883 -0.51563,-4.2584 -1.10345,-5.50823 1.36167,-0.51475 4.22965,-0.55516 6.117,-0.621 -0.0573,0.15771 -0.41219,-0.10849 -0.164,-0.141" style="fill:none;stroke:#000000;stroke-width:1.84428;stroke-linecap:round;stroke-linejoin:round;stroke-miterlimit:10;stroke-dasharray:none;stroke-opacity:1" id="path1602" />
            </g>
            <g id="g1604" transform="scale(1,-1)" style="stroke-width:0.705168" />
            <g id="g1608" transform="scale(1,-1)" style="stroke-width:0.705168" />
            <g id="g1612" transform="scale(1,-1)" style="stroke-width:0.705168" />
            <g id="g1616" transform="scale(1,-1)" style="stroke-width:0.705168">
               <path id="path1618" style="fill:none;stroke:#000000;stroke-width:1.84428;stroke-linecap:round;stroke-linejoin:round;stroke-miterlimit:10;stroke-dasharray:none;stroke-opacity:1" d="m 540.141,-577.512 c 1.16384,0.53233 -1.5223,2.09697 -2.37215,0.57728 -3.4899,-1.49648 -0.0646,-3.77212 1.72803,-4.75222 2.38001,-2.28701 -1.43838,-4.77164 -3.50732,-3.13336 l -0.20834,0.2218 -0.12522,0.2665 m -4.437,5.875 c -2.58037,0.51153 -4.36439,-4.05313 -3.2143,-6.26412 1.77585,-3.07601 4.72163,-0.32887 4.5303,2.32571 0.0941,1.36312 -1.36257,2.13538 -1.543,3.37541 m -11.164,-1.968 c 0.0361,2.8854 4.47333,2.30435 4.11194,-0.49621 0.1189,-2.25596 -1.03478,-4.51825 -3.11801,-5.49469 -1.44759,-0.59343 -2.41674,1.61356 -0.30067,1.04207 1.31061,0.5449 3.90325,-2.59229 4.28374,-1.19217 m -16.832,-3.176 c -0.62185,1.59918 0.36545,4.51786 0.65329,6.60664 0.5724,3.55011 1.61903,-1.71903 2.15665,-2.93734 0.75985,-3.16717 0.95462,1.42677 1.86168,2.47124 0.76616,1.18584 1.88992,4.83151 3.07622,4.40681 0.27114,-2.69481 0.19135,-5.41672 0.30239,-8.12285 -0.0349,0.13543 0.1996,0.003 0.17179,0.1695" />
            </g>
         </g>
      </g>
   </g>
</svg>
