<?xml version="1.0" encoding="UTF-8" standalone="no"?>
<!-- Created by Ashley Blewer - This work is licensed under a Creative Commons Attribution 4.0 International License -->

<svg width="544" height="480" viewBox="0 0 143.93334 127" version="1.1" id="svg2490" inkscape:version="1.1.2 (08b2f3d93c, 2022-04-05)" sodipodi:docname="1986-d1-4.svg"
   xmlns:inkscape="http://www.inkscape.org/namespaces/inkscape"
   xmlns:sodipodi="http://sodipodi.sourceforge.net/DTD/sodipodi-0.dtd"
   xmlns="http://www.w3.org/2000/svg"
   xmlns:svg="http://www.w3.org/2000/svg">
   <sodipodi:namedview id="namedview2492" pagecolor="#ffffff" bordercolor="#666666" borderopacity="1.0" inkscape:pageshadow="2" inkscape:pageopacity="0.0" inkscape:pagecheckerboard="0" inkscape:document-units="mm" showgrid="false" units="px" inkscape:zoom="0.90583674" inkscape:cx="272.67607" inkscape:cy="177.18425" inkscape:window-width="1848" inkscape:window-height="1136" inkscape:window-x="72" inkscape:window-y="27" inkscape:window-maximized="1" inkscape:current-layer="layer1" />
   <defs id="defs2487" />
   <g inkscape:label="Layer 1" inkscape:groupmode="layer" id="layer1">
      <g id="g13323" transform="matrix(0.53599156,0,0,0.53599156,-483.91815,-218.5049)">
         <g id="g3452" transform="scale(1,-1)">
            <path d="m 933.328,-563.594 c 10.79064,-12.63755 20.28489,-26.44738 30.59545,-39.5309 8.35288,-8.27294 12.07618,-22.64829 24.10485,-25.85586 5.0583,-1.04948 10.35709,0.12646 14.9263,2.3805" style="fill:none;stroke:#000000;stroke-width:2.61538;stroke-linecap:round;stroke-linejoin:round;stroke-miterlimit:10;stroke-dasharray:none;stroke-opacity:1" id="path3454" sodipodi:nodetypes="ccccc" />
         </g>
         <g id="g3456" transform="scale(1,-1)">
            <path d="m 1002.875,-626.543 c 28.1368,12.52569 55.3908,26.99502 82.9822,40.68635 16.6337,8.9061 34.0989,16.52937 49.9548,26.72062 0.8779,0.80462 0.8051,2.271 0.044,3.12803" style="fill:none;stroke:#000000;stroke-width:2.61538;stroke-linecap:round;stroke-linejoin:round;stroke-miterlimit:10;stroke-dasharray:none;stroke-opacity:1" id="path3458" />
         </g>
         <g id="g13055">
            <g id="g3460" transform="scale(1,-1)">
               <path d="m 1135.465,-555.434 c 0.8317,6.62498 1.7994,13.13859 3.9954,19.485" style="fill:none;stroke:#000000;stroke-width:2.61538;stroke-linecap:round;stroke-linejoin:round;stroke-miterlimit:10;stroke-dasharray:none;stroke-opacity:1" id="path3462" />
            </g>
            <g id="g3464" transform="scale(1,-1)">
               <path d="m 1122.88,-519.37447 c 6.7065,-3.22332 26.5132,-11.40056 12.6914,-18.01821 -2.2409,-1.42954 -6.051,-1.34827 -7.4764,-3.61932" style="fill:none;stroke:#000000;stroke-width:2.61538;stroke-linecap:round;stroke-linejoin:round;stroke-miterlimit:10;stroke-dasharray:none;stroke-opacity:1" id="path3466" sodipodi:nodetypes="ccccccc" />
            </g>
            <g id="g3468" transform="scale(1,-1)">
               <path d="m 1002.488,-593.527 c 19.1433,8.78291 37.6374,19.10008 57.2648,26.90296 25.5924,10.85406 51.9347,19.99033 77.8082,30.00304 l -0.215,-0.395" style="fill:none;stroke:#000000;stroke-width:2.61538;stroke-linecap:round;stroke-linejoin:round;stroke-miterlimit:10;stroke-dasharray:none;stroke-opacity:1" id="path3470" />
            </g>
            <g id="g3472" transform="scale(1,-1)">
               <path d="m 1000.961,-593.789 c -13.24032,-8.01434 -22.90492,5.65006 -30.75318,14.38323 -13.3854,15.12779 -26.51172,30.51371 -40.23782,45.30777" style="fill:none;stroke:#000000;stroke-width:2.61538;stroke-linecap:round;stroke-linejoin:round;stroke-miterlimit:10;stroke-dasharray:none;stroke-opacity:1" id="path3474" />
            </g>
            <g id="g3476" transform="scale(1,-1)">
               <path d="m 932.461,-564.941 c -0.64371,10.53596 -3.92956,21.0205 -3.53498,31.61301" style="fill:none;stroke:#000000;stroke-width:2.61538;stroke-linecap:round;stroke-linejoin:round;stroke-miterlimit:10;stroke-dasharray:none;stroke-opacity:1" id="path3478" />
            </g>
            <g id="g3480" transform="scale(1,-1)">
               <path d="m 934.82,-563.191 c 0.25769,8.28525 -3.20822,16.37282 -2.39795,24.617" style="fill:none;stroke:#000000;stroke-width:2.61538;stroke-linecap:round;stroke-linejoin:round;stroke-miterlimit:10;stroke-dasharray:none;stroke-opacity:1" id="path3482" />
            </g>
            <g id="g3484" transform="scale(1,-1)">
               <path d="m 928.512,-533.141 c 6.72999,4.7222 15.64388,7.00558 23.67588,9.3935 0.87685,0.63733 3.5192,-0.32877 3.90222,0.61857" style="fill:none;stroke:#000000;stroke-width:2.61538;stroke-linecap:round;stroke-linejoin:round;stroke-miterlimit:10;stroke-dasharray:none;stroke-opacity:1" id="path3486" />
            </g>
            <g id="g3488" transform="scale(1,-1)">
               <path d="m 949.082,-429.582 c 0.74799,-11.62799 1.40151,-23.32053 2.70436,-34.93407 3.17519,-9.29642 -9.8e-4,-20.31975 2.3178,-30.57999 0.85644,-14.00939 2.19171,-28.0474 4.48501,-41.85122 4.8912,-5.06513 7.17859,0.20684 5.42661,4.48144 4.00113,3.19633 1.3975,-4.2029 2.59322,-5.52616" style="fill:none;stroke:#000000;stroke-width:2.61538;stroke-linecap:round;stroke-linejoin:round;stroke-miterlimit:10;stroke-dasharray:none;stroke-opacity:1" id="path3490" sodipodi:nodetypes="cccccccccccccccc" />
            </g>
            <g id="g3492" transform="scale(1,-1)">
               <path d="m 967.098,-539.316 c 24.52148,-2.48355 48.9408,1.54511 73.423,2.4228" style="fill:none;stroke:#000000;stroke-width:2.61538;stroke-linecap:round;stroke-linejoin:round;stroke-miterlimit:10;stroke-dasharray:none;stroke-opacity:1" id="path3494" sodipodi:nodetypes="ccc" />
            </g>
            <g id="g3496" transform="scale(1,-1)">
               <path d="m 1041.1911,-535.28457 c -1.9909,4.59595 -0.014,10.30162 3.9382,5.68963 -1.2156,-1.57234 -0.2618,-4.07606 -0.9066,-5.53003" style="fill:none;stroke:#000000;stroke-width:2.61538;stroke-linecap:round;stroke-linejoin:round;stroke-miterlimit:10;stroke-dasharray:none;stroke-opacity:1" id="path3498" sodipodi:nodetypes="ccccccccccccc" />
            </g>
            <g id="g3500" transform="scale(1,-1)">
               <path d="m 1040.93,-536.602 c 20.7101,-1.39297 41.5138,-0.15461 62.2294,0.71071 4.7725,0.87738 14.5448,-1.58537 11.1082,6.6262 1.3226,-1.13848 0.5081,-2.44279 0.2754,-3.67991" style="fill:none;stroke:#000000;stroke-width:2.61538;stroke-linecap:round;stroke-linejoin:round;stroke-miterlimit:10;stroke-dasharray:none;stroke-opacity:1" id="path3502" sodipodi:nodetypes="cccccc" />
            </g>
            <g id="g3504" transform="scale(1,-1)">
               <path d="m 1115.367,-533.672 c 10.8049,-0.64799 5.0352,16.43272 9.1499,23.33627 2.9901,12.95181 4.6146,26.20765 6.8483,39.23493 -3.6281,7.74708 4.0308,19.992 2.7263,30.03388 0.345,3.55872 -0.314,7.11087 -0.1375,10.64492" style="fill:none;stroke:#000000;stroke-width:2.61538;stroke-linecap:round;stroke-linejoin:round;stroke-miterlimit:10;stroke-dasharray:none;stroke-opacity:1" id="path3506" />
            </g>
            <g id="g3508" transform="scale(1,-1)">
               <path d="m 950.422,-430.262 c 10.25873,3.35944 21.20115,-0.084 31.75419,0.8498 48.80341,-0.7663 97.59891,0.82117 146.39781,1.20917 1.7619,-1.02 4.0035,0.0593 5.785,-0.92997" style="fill:none;stroke:#000000;stroke-width:2.61538;stroke-linecap:round;stroke-linejoin:round;stroke-miterlimit:10;stroke-dasharray:none;stroke-opacity:1" id="path3510" sodipodi:nodetypes="cccc" />
            </g>
            <g id="g3512" transform="scale(1,-1)">
               <path d="m 1134.359,-429.133 c -1.8995,2.32655 -4.208,4.25311 -6.489,6.188" style="fill:none;stroke:#000000;stroke-width:2.61538;stroke-linecap:round;stroke-linejoin:round;stroke-miterlimit:10;stroke-dasharray:none;stroke-opacity:1" id="path3514" sodipodi:nodetypes="cc" />
            </g>
            <g id="g3516" transform="scale(1,-1)">
               <path d="m 948.957,-429.281 c -0.0279,-0.71483 0.14097,1.56757 0.543,2.027 0.77789,1.8945 3.692,3.03798 3.574,4.656" style="fill:none;stroke:#000000;stroke-width:2.61538;stroke-linecap:round;stroke-linejoin:round;stroke-miterlimit:10;stroke-dasharray:none;stroke-opacity:1" id="path3518" sodipodi:nodetypes="ccc" />
            </g>
            <g id="g3520" transform="scale(1,-1)">
               <path d="m 953.074,-422.598 c 57.6752,-0.67751 115.4375,3.67086 173.0501,-0.11729 l 1.7459,-0.22971" style="fill:none;stroke:#000000;stroke-width:2.61538;stroke-linecap:round;stroke-linejoin:round;stroke-miterlimit:10;stroke-dasharray:none;stroke-opacity:1" id="path3522" sodipodi:nodetypes="ccc" />
            </g>
            <g id="g3524" transform="scale(1,-1)">
               <path d="m 1117.328,-450.812 c -0.334,0.059 -0.3956,-0.95452 -1.002,-0.262 -1.7578,0.65396 -2.0683,2.91625 -0.069,3.531 1.6345,-0.0777 3.7283,-3.4044 1.072,-3.754 -1.7804,-1.29128 -3.5263,0.29854 -2.786,2.031 0.1804,2.1961 3.8512,1.0569 2.733,-0.523 -0.5193,-0.0994 -0.8499,-0.46148 -1.45,-0.047" style="fill:none;stroke:#000000;stroke-width:2.61538;stroke-linecap:round;stroke-linejoin:round;stroke-miterlimit:10;stroke-dasharray:none;stroke-opacity:1" id="path3526" />
            </g>
            <g id="g3528" transform="scale(1,-1)">
               <path d="m 994.797,-430.527 c -1.61422,-11.60336 14.213,-3.98242 20.955,-5.98602 25.8108,0.33599 51.6402,0.19287 77.441,0.14935 2.5885,1.30948 -10e-5,4.7785 0.06,6.77772" style="fill:none;stroke:#000000;stroke-width:2.61538;stroke-linecap:round;stroke-linejoin:round;stroke-miterlimit:10;stroke-dasharray:none;stroke-opacity:1" id="path3530" />
            </g>
            <g id="g3532" transform="scale(1,-1)">
               <path d="m 970.031,-480.109 c 16.22133,-0.0374 32.4771,0.20976 48.7075,0.48233 8.5643,3.25327 7.8278,-11.22946 17.3884,-6.22865 9.8104,-0.90184 20.504,-2.32141 25.6669,6.77647 12.2027,2.61828 24.9298,-0.17538 37.3543,0.6583 4.0456,-0.10137 8.6186,0.92401 12.3729,0.0726" style="fill:none;stroke:#000000;stroke-width:2.61538;stroke-linecap:round;stroke-linejoin:round;stroke-miterlimit:10;stroke-dasharray:none;stroke-opacity:1" id="path3534" />
            </g>
            <g id="g3536" transform="scale(1,-1)">
               <path d="m 969.465,-481.176 c 2.28505,-9.48191 -5.22949,-28.20806 6.37939,-31.08463 30.92501,-1.41659 61.87381,1.1977 92.77141,2.4471 12.4621,0.57888 24.9314,1.05009 37.4072,1.17653 11.0372,5.33611 3.679,19.54622 5.4896,28.92451 l 0.01,1.36455" style="fill:none;stroke:#000000;stroke-width:2.61538;stroke-linecap:round;stroke-linejoin:round;stroke-miterlimit:10;stroke-dasharray:none;stroke-opacity:1" id="path3538" sodipodi:nodetypes="cccccc" />
            </g>
            <g id="g3540" transform="scale(1,-1)">
               <path d="m 1117.043,-452.34 c -8.1866,2.90981 6.7456,7.67602 0.4505,1.64511 -4.5274,6.77508 6.395,-1.96436 -2.4972,-0.23907" style="fill:none;stroke:#000000;stroke-width:2.61538;stroke-linecap:round;stroke-linejoin:round;stroke-miterlimit:10;stroke-dasharray:none;stroke-opacity:1" id="path3542" />
            </g>
            <g id="g3544" transform="scale(1,-1)">
               <path d="m 1029.4205,-486.60474 c 3.2529,-7.93855 1.52,-18.43568 -3.3385,-25.3714" style="fill:none;stroke:#000000;stroke-width:2.61538;stroke-linecap:round;stroke-linejoin:round;stroke-miterlimit:10;stroke-dasharray:none;stroke-opacity:1" id="path3546" sodipodi:nodetypes="cc" />
            </g>
            <g id="g3548" transform="scale(1,-1)">
               <path d="m 1016.035,-481.121 c 6.1531,-8.13172 8.4701,-21.10362 0.7095,-28.99247 -0.6597,-0.83786 -1.8356,-2.57709 -3.2555,-2.05199" style="fill:none;stroke:#000000;stroke-width:2.61538;stroke-linecap:round;stroke-linejoin:round;stroke-miterlimit:10;stroke-dasharray:none;stroke-opacity:1" id="path3550" sodipodi:nodetypes="cccc" />
            </g>
            <g id="g3552" transform="scale(1,-1)">
               <path d="m 981.887,-481.18 c -7.47662,-10.16324 -6.83558,-22.20598 2.37699,-31.10216" style="fill:none;stroke:#000000;stroke-width:2.61538;stroke-linecap:round;stroke-linejoin:round;stroke-miterlimit:10;stroke-dasharray:none;stroke-opacity:1" id="path3554" sodipodi:nodetypes="ccc" />
            </g>
            <g id="g3556" transform="scale(1,-1)">
               <path d="m 993.812,-494.516 c 10.4748,10.43588 12.473,-15.42222 0.15131,-7.30192 -2.43534,3.1768 -0.96779,6.92002 1.5077,9.50192" style="fill:none;stroke:#000000;stroke-width:2.61538;stroke-linecap:round;stroke-linejoin:round;stroke-miterlimit:10;stroke-dasharray:none;stroke-opacity:1" id="path3558" />
            </g>
            <g id="g3560" transform="scale(1,-1)">
               <path d="m 985.34677,-495.156 c 4.01838,10.62199 25.20483,9.15755 23.23333,-3.54234 -2.108,-12.11655 -25.08423,-8.86635 -23.23333,3.54234 z" style="fill:none;stroke:#000000;stroke-width:2.61538;stroke-linecap:round;stroke-linejoin:round;stroke-miterlimit:10;stroke-dasharray:none;stroke-opacity:1" id="path3562" sodipodi:nodetypes="cccccc" />
            </g>
            <g id="g3564" transform="scale(1,-1)">
               <path d="m 1059.77,-483.16 c -4.5364,-7.72037 -2.7941,-19.04137 2.1244,-26.17979" style="fill:none;stroke:#000000;stroke-width:2.61538;stroke-linecap:round;stroke-linejoin:round;stroke-miterlimit:10;stroke-dasharray:none;stroke-opacity:1" id="path3566" sodipodi:nodetypes="cc" />
            </g>
            <g id="g3568" transform="scale(1,-1)">
               <path d="m 1069.055,-481.133 c -8.0296,-9.86427 -9.5903,-21.92819 2.859,-28.54433" style="fill:none;stroke:#000000;stroke-width:2.61538;stroke-linecap:round;stroke-linejoin:round;stroke-miterlimit:10;stroke-dasharray:none;stroke-opacity:1" id="path3570" sodipodi:nodetypes="cccc" />
            </g>
            <g id="g3572" transform="scale(1,-1)">
               <path d="m 1103.719,-481.977 c 0.068,-0.79019 -0.7625,0.61682 -1.83,0.207 l -0.024,-0.007" style="fill:none;stroke:#000000;stroke-width:2.61538;stroke-linecap:round;stroke-linejoin:round;stroke-miterlimit:10;stroke-dasharray:none;stroke-opacity:1" id="path3574" />
            </g>
            <g id="g3576" transform="scale(1,-1)">
               <path d="m 1099.543,-479.395 c 8.8298,-5.49363 4.9852,-20.37862 0.3077,-24.964" style="fill:none;stroke:#000000;stroke-width:2.61538;stroke-linecap:round;stroke-linejoin:round;stroke-miterlimit:10;stroke-dasharray:none;stroke-opacity:1" id="path3578" />
            </g>
            <g id="g3580" transform="scale(1,-1)">
               <path d="m 1104.598,-479.621 c 2.9342,-3.77634 2.631,-13.54776 2.1665,-3.67071 -0.3974,3.19818 2.0252,-5.71554 -0.3163,-5.90329" style="fill:none;stroke:#000000;stroke-width:2.61538;stroke-linecap:round;stroke-linejoin:round;stroke-miterlimit:10;stroke-dasharray:none;stroke-opacity:1" id="path3582" />
            </g>
            <g id="g3584" transform="scale(1,-1)">
               <path d="m 1103.492,-499.668 c -1.5069,-5.07723 -6.226,-6.84745 -10.374,-9.17016" style="fill:none;stroke:#000000;stroke-width:2.61538;stroke-linecap:round;stroke-linejoin:round;stroke-miterlimit:10;stroke-dasharray:none;stroke-opacity:1" id="path3586" sodipodi:nodetypes="ccccc" />
            </g>
            <g id="g3588" transform="scale(1,-1)">
               <path d="m 1085.75,-502.129 c -12.0026,-1.00027 -6.6782,20.29035 3.5008,12.63401 10.6776,-9.60663 -12.2062,-21.35766 -11.7899,-6.01622 -0.01,6.86792 6.8346,11.08953 11.9544,6.15217" style="fill:none;stroke:#000000;stroke-width:2.61538;stroke-linecap:round;stroke-linejoin:round;stroke-miterlimit:10;stroke-dasharray:none;stroke-opacity:1" id="path3590" />
            </g>
            <g id="g3592" transform="scale(1,-1)">
               <path d="m 996.691,-565.227 c 7.8514,1.78467 26.5748,14.47157 23.906,-2.33446 -5.8214,-4.77432 -17.2167,-7.11499 -22.28249,-0.0549 l -0.64954,0.78714 0.097,0.74719" style="fill:none;stroke:#000000;stroke-width:2.61538;stroke-linecap:round;stroke-linejoin:round;stroke-miterlimit:10;stroke-dasharray:none;stroke-opacity:1" id="path3594" />
            </g>
            <g id="g3596" transform="scale(1,-1)">
               <path d="m 1025.184,-570.359 c 3.4196,-3.81155 10.6136,-0.91749 1.9207,-4.57042 -6.4464,-1.08374 -12.068,-4.81458 -18.3847,-5.91055" style="fill:none;stroke:#000000;stroke-width:2.61538;stroke-linecap:round;stroke-linejoin:round;stroke-miterlimit:10;stroke-dasharray:none;stroke-opacity:1" id="path3598" />
            </g>
            <g id="g3608" transform="scale(1,-1)">
               <path d="m 950.949,-445.492 c 2.96654,-0.035 5.85852,0.76848 8.821,0.797" style="fill:none;stroke:#000000;stroke-width:1.30769;stroke-linecap:round;stroke-linejoin:round;stroke-miterlimit:10;stroke-dasharray:none;stroke-opacity:1" id="path3610" />
            </g>
            <g id="g3612" transform="scale(1,-1)">
               <path d="m 963.09,-445.758 c -0.83876,-0.85526 0.36042,-2.10533 0.621,-3.344 0.26322,-1.41263 0.9792,-3.03741 0.902,-4.023 -0.094,0.0883 0.20426,0.13523 0.184,0.109" style="fill:none;stroke:#000000;stroke-width:1.30769;stroke-linecap:round;stroke-linejoin:round;stroke-miterlimit:10;stroke-dasharray:none;stroke-opacity:1" id="path3614" />
            </g>
            <g id="g3616" transform="scale(1,-1)">
               <path d="m 979.625,-446.277 c 0.17756,-1.16543 1.22571,-3.309 0.4292,-4.41802" style="fill:none;stroke:#000000;stroke-width:1.30769;stroke-linecap:round;stroke-linejoin:round;stroke-miterlimit:10;stroke-dasharray:none;stroke-opacity:1" id="path3618" />
            </g>
            <g id="g3620" transform="scale(1,-1)">
               <path d="m 982.543,-450.031 c 22.0465,1.39204 44.142,-0.17955 66.1977,1.30904 20.4422,0.6165 41.5916,0.53429 61.6463,-0.43004" style="fill:none;stroke:#000000;stroke-width:1.30769;stroke-linecap:round;stroke-linejoin:round;stroke-miterlimit:10;stroke-dasharray:none;stroke-opacity:1" id="path3622" />
            </g>
            <g id="g3624" transform="scale(1,-1)">
               <path d="m 1112.914,-446.316 c -0.2517,0.75165 -0.2006,-1.44489 0.26,-2.196 -0.1453,-0.52559 0.3565,-1.92359 -0.631,-1.976" style="fill:none;stroke:#000000;stroke-width:1.30769;stroke-linecap:round;stroke-linejoin:round;stroke-miterlimit:10;stroke-dasharray:none;stroke-opacity:1" id="path3626" />
            </g>
            <g id="g3628" transform="scale(1,-1)">
               <path d="m 1116.32,-445.512 c 3.8587,0.33969 8.5959,0.52461 11.9894,0.78177" style="fill:none;stroke:#000000;stroke-width:1.30769;stroke-linecap:round;stroke-linejoin:round;stroke-miterlimit:10;stroke-dasharray:none;stroke-opacity:1" id="path3630" />
            </g>
            <g id="g3632" transform="scale(1,-1)">
               <path d="m 972.309,-518.449 c 0.44455,-4.79994 1.69276,-10.32708 1.168,-17.164" style="fill:none;stroke:#000000;stroke-width:1.30769;stroke-linecap:round;stroke-linejoin:round;stroke-miterlimit:10;stroke-dasharray:none;stroke-opacity:1" id="path3634" />
            </g>
            <g id="g3636" transform="scale(1,-1)">
               <path d="m 1111.316,-513.184 c -1.7739,-4.79568 -2.5998,-22.87146 -1.6943,-9.30242 0.1783,2.14938 0.4283,4.30049 0.9353,6.40042" style="fill:none;stroke:#000000;stroke-width:1.30769;stroke-linecap:round;stroke-linejoin:round;stroke-miterlimit:10;stroke-dasharray:none;stroke-opacity:1" id="path3638" />
            </g>
            <g id="g3640" transform="scale(1,-1)">
               <path d="m 947.102,-529.586 c 8.88719,-11.00772 19.10182,-20.92773 28.27486,-31.72737 8.26938,-8.96722 17.29829,-17.22999 26.34414,-25.40438 0.8078,-0.71035 2.0716,-1.0057 3.034,-0.45025" style="fill:none;stroke:#000000;stroke-width:1.30769;stroke-linecap:round;stroke-linejoin:round;stroke-miterlimit:10;stroke-dasharray:none;stroke-opacity:1" id="path3642" />
            </g>
            <g id="g3644" transform="scale(1,-1)">
               <path d="m 1043.594,-541.82 c 8.0202,-6.32054 19.22,-11.95101 24.456,-20.08202" style="fill:none;stroke:#000000;stroke-width:1.30769;stroke-linecap:round;stroke-linejoin:round;stroke-miterlimit:10;stroke-dasharray:none;stroke-opacity:1" id="path3646" />
            </g>
            <g id="g3664" transform="scale(1,-1)">
               <path d="m 1058.84,-561.219 c 2.8856,9.997 -20.2711,3.66261 -15.5189,-4.49 8.7885,-5.27141 15.0837,10.98564 2.8055,6.19678" style="fill:none;stroke:#000000;stroke-width:1.30769;stroke-linecap:round;stroke-linejoin:round;stroke-miterlimit:10;stroke-dasharray:none;stroke-opacity:1" id="path3666" />
            </g>
            <g id="g3668" transform="scale(1,-1)">
               <path d="m 974.594,-468.594 c 0.26155,-0.24669 0.0481,0.36839 -0.539,0.426 -1.27102,0.0467 -2.56519,0.48761 -4.016,0.27 -1.17298,-0.29308 -1.34711,-1.82664 0.238,-1.954 1.45018,-0.35654 3.79156,-0.0735 4.414,-1.617 0.83217,-0.46313 -1.20825,-1.13156 -2.625,-1.156 -1.18286,-0.0507 -2.85765,0.43226 -3.691,0.672" style="fill:none;stroke:#000000;stroke-width:1.30769;stroke-linecap:round;stroke-linejoin:round;stroke-miterlimit:10;stroke-dasharray:none;stroke-opacity:1" id="path3670" />
            </g>
            <g id="g3672" transform="scale(1,-1)">
               <path d="m 981.109,-468.23 c 0.90044,0.0432 -0.72898,0.22316 -1.418,0.031 -1.23729,-0.24193 -1.97275,-1.78478 -1.589,-2.629 0.0529,-2.31149 3.35757,-2.18956 5.171,-1.887 1.23128,0.24231 2.6094,1.20454 2.204,2.238 0.53115,1.95618 -2.86425,2.78741 -4.102,2.469 -0.6286,-0.1632 -1.24819,-0.18594 -1.883,-0.363" style="fill:none;stroke:#000000;stroke-width:1.30769;stroke-linecap:round;stroke-linejoin:round;stroke-miterlimit:10;stroke-dasharray:none;stroke-opacity:1" id="path3674" />
            </g>
            <g id="g3676" transform="scale(1,-1)">
               <path d="m 988.078,-471.855 c 0.0274,-0.40917 0.14993,1.74238 -0.035,2.367 -0.30475,1.47739 0.11293,1.6192 0.336,1.285 1.53477,-1.17686 3.49417,-2.11706 5.055,-2.547 -0.0598,0.0811 0.0924,-0.12775 0.179,-0.027 -0.18825,0.95891 -0.14608,3.02734 -0.047,3.234" style="fill:none;stroke:#000000;stroke-width:1.30769;stroke-linecap:round;stroke-linejoin:round;stroke-miterlimit:10;stroke-dasharray:none;stroke-opacity:1" id="path3678" />
            </g>
            <g id="g3680" transform="scale(1,-1)">
               <path d="m 996.859,-467.863 c 0.39726,-0.36404 0.89212,-0.0202 1.715,-0.883 0.82313,-0.41806 1.20653,-0.54365 1.317,-0.566" style="fill:none;stroke:#000000;stroke-width:1.30769;stroke-linecap:round;stroke-linejoin:round;stroke-miterlimit:10;stroke-dasharray:none;stroke-opacity:1" id="path3682" />
            </g>
            <g id="g3684" transform="scale(1,-1)">
               <path d="m 1001.789,-467.883 c 0.8135,0.2742 -0.9732,-0.69161 -1.742,-1.179 -0.44274,-0.14469 -1.24779,-0.8076 -1.571,-0.254" style="fill:none;stroke:#000000;stroke-width:1.30769;stroke-linecap:round;stroke-linejoin:round;stroke-miterlimit:10;stroke-dasharray:none;stroke-opacity:1" id="path3686" />
            </g>
            <g id="g3688" transform="scale(1,-1)">
               <path d="m 998.973,-469.57 c 0.21046,0.25377 -0.39992,-0.64068 0.035,-1.274 -0.11848,-0.59623 0.0236,-0.83026 0.082,-0.875" style="fill:none;stroke:#000000;stroke-width:1.30769;stroke-linecap:round;stroke-linejoin:round;stroke-miterlimit:10;stroke-dasharray:none;stroke-opacity:1" id="path3690" />
            </g>
            <g id="g3692" transform="scale(1,-1)">
               <path d="m 1039.07,-464.344 c 3.2585,-0.43603 6.9763,1.21358 9.973,-0.22182" style="fill:none;stroke:#000000;stroke-width:1.30769;stroke-linecap:round;stroke-linejoin:round;stroke-miterlimit:10;stroke-dasharray:none;stroke-opacity:1" id="path3694" />
            </g>
            <g id="g3696" transform="scale(1,-1)">
               <path d="m 1048.855,-465.133 c 4.0777,-6.82134 -3.8301,-21.43655 -9.9478,-10.78599 -0.6566,4.06558 -1.0889,8.21458 -0.3005,12.28992" style="fill:none;stroke:#000000;stroke-width:1.30769;stroke-linecap:round;stroke-linejoin:round;stroke-miterlimit:10;stroke-dasharray:none;stroke-opacity:1" id="path3698" />
            </g>
            <g id="g3700" transform="scale(1,-1)">
               <path d="m 1043.945,-477.902 c -10.7675,0.35924 1.2636,13.67611 3.5812,3.4518 -0.036,-2.96745 -4.6799,-5.14664 -6.977,-3.34282" style="fill:none;stroke:#000000;stroke-width:1.30769;stroke-linecap:round;stroke-linejoin:round;stroke-miterlimit:10;stroke-dasharray:none;stroke-opacity:1" id="path3702" />
            </g>
            <g id="g3704" transform="scale(1,-1)">
               <path d="m 960.91,-481.594 c 6.08397,3.71015 6.68624,-7.58336 -0.3523,-4.76756 0.50048,1.57026 -1.0209,3.32408 0.0397,4.68079" style="fill:none;stroke:#000000;stroke-width:1.30769;stroke-linecap:round;stroke-linejoin:round;stroke-miterlimit:10;stroke-dasharray:none;stroke-opacity:1" id="path3706" />
            </g>
            <g id="g3708" transform="scale(1,-1)">
               <path d="m 1030.867,-459.289 c 3.3084,0.42753 20.4217,1.70279 13.7182,-2.40037 -1.9786,0.21537 -19.4979,-1.04258 -12.4621,2.14144" style="fill:none;stroke:#000000;stroke-width:1.30769;stroke-linecap:round;stroke-linejoin:round;stroke-miterlimit:10;stroke-dasharray:none;stroke-opacity:1" id="path3710" />
            </g>
            <g id="g3712" transform="scale(1,-1)">
               <path d="m 976.18,-452.699 c -10.81859,0.96644 4.42057,10.59604 1.0033,0.65391 -1.02476,-0.66595 -2.6512,-1.24634 -3.57431,-0.0802" style="fill:none;stroke:#000000;stroke-width:1.30769;stroke-linecap:round;stroke-linejoin:round;stroke-miterlimit:10;stroke-dasharray:none;stroke-opacity:1" id="path3714" />
            </g>
            <g id="g3716" transform="scale(1,-1)">
               <path d="m 972.707,-450.547 c 1.40457,-0.0686 2.71987,0.5864 4.12495,0.45313" style="fill:none;stroke:#000000;stroke-width:1.30769;stroke-linecap:round;stroke-linejoin:round;stroke-miterlimit:10;stroke-dasharray:none;stroke-opacity:1" id="path3718" />
            </g>
            <g id="g3720" transform="scale(1,-1)">
               <path d="m 962.863,-446.688 c 2.21203,-5.98029 2.32798,-5.19928 -0.0361,0.0952 0.57875,-0.93448 1.17344,-1.90475 1.45407,-2.97725" style="fill:none;stroke:#000000;stroke-width:1.30769;stroke-linecap:round;stroke-linejoin:round;stroke-miterlimit:10;stroke-dasharray:none;stroke-opacity:1" id="path3722" />
            </g>
            <g id="g3724" transform="scale(1,-1)">
               <path d="m 1125.379,-447.793 c -0.1762,-2.38267 1.052,-7.68936 -3.2985,-5.69505" style="fill:none;stroke:#000000;stroke-width:1.30769;stroke-linecap:round;stroke-linejoin:round;stroke-miterlimit:10;stroke-dasharray:none;stroke-opacity:1" id="path3726" />
            </g>
            <g id="g3728" transform="scale(1,-1)">
               <path d="m 1118.785,-479.613 c 10.2573,2.31731 -1.1927,-14.9975 0.4587,-0.48938" style="fill:none;stroke:#000000;stroke-width:1.30769;stroke-linecap:round;stroke-linejoin:round;stroke-miterlimit:10;stroke-dasharray:none;stroke-opacity:1" id="path3730" />
            </g>
            <g id="g3732" transform="scale(1,-1)">
               <path d="m 977.219,-528.766 c 19.96776,1.1959 40.0121,0.13259 59.957,1.80498" style="fill:none;stroke:#000000;stroke-width:1.30769;stroke-linecap:round;stroke-linejoin:round;stroke-miterlimit:10;stroke-dasharray:none;stroke-opacity:1" id="path3734" />
            </g>
            <g id="g3736" transform="scale(1,-1)">
               <path d="m 1053.055,-526.906 c 17.2094,0.0102 34.4238,-0.14041 51.627,0.42565" style="fill:none;stroke:#000000;stroke-width:1.30769;stroke-linecap:round;stroke-linejoin:round;stroke-miterlimit:10;stroke-dasharray:none;stroke-opacity:1" id="path3738" />
            </g>
         </g>
      </g>
   </g>
</svg>
