<?xml version="1.0" encoding="UTF-8" standalone="no"?>
<!-- Created by Ashley Blewer - This work is licensed under a Creative Commons Attribution 4.0 International License -->

<svg width="544" height="480" viewBox="0 0 143.93334 127" version="1.1" id="svg2490" inkscape:version="1.1.2 (08b2f3d93c, 2022-04-05)" sodipodi:docname="1986-d1-5.svg"
   xmlns:inkscape="http://www.inkscape.org/namespaces/inkscape"
   xmlns:sodipodi="http://sodipodi.sourceforge.net/DTD/sodipodi-0.dtd"
   xmlns="http://www.w3.org/2000/svg"
   xmlns:svg="http://www.w3.org/2000/svg">
   <sodipodi:namedview id="namedview2492" pagecolor="#ffffff" bordercolor="#666666" borderopacity="1.0" inkscape:pageshadow="2" inkscape:pageopacity="0.0" inkscape:pagecheckerboard="0" inkscape:document-units="mm" showgrid="false" units="px" inkscape:zoom="0.90583674" inkscape:cx="272.67607" inkscape:cy="177.18425" inkscape:window-width="1848" inkscape:window-height="1136" inkscape:window-x="72" inkscape:window-y="27" inkscape:window-maximized="1" inkscape:current-layer="layer1" />
   <defs id="defs2487" />
   <g inkscape:label="Layer 1" inkscape:groupmode="layer" id="layer1">
      <g id="g13485" transform="matrix(0.57431983,0,0,0.57431983,-380.1091,-273.53206)">
         <g id="g3200" transform="scale(1,-1)">
            <path d="m 685.133,-594.996 c 9.05925,-8.8619 15.22774,-20.25065 24.31021,-29.15828 7.80898,-7.90643 13.12894,-17.56492 21.96679,-24.36572 6.03625,-8.53706 16.84599,-10.74163 25.875,-5.625 11.7173,2.99676 22.59724,8.58699 33.95642,12.75419 11.69614,4.65894 23.90978,7.94797 35.22428,13.6272 14.66579,6.89344 29.14412,14.15383 44.23544,20.07656 7.95932,4.41831 16.83965,7.55022 24.48986,12.15605 4.7767,9.40442 -10.61163,12.18375 -16.32,16.183 l 0.067,-0.097" style="fill:none;stroke:#000000;stroke-width:2.61538;stroke-linecap:round;stroke-linejoin:round;stroke-miterlimit:10;stroke-dasharray:none;stroke-opacity:1" id="path3202" />
         </g>
         <g id="g3204" transform="scale(1,-1)">
            <path d="m 684.45351,-593.87004 c 1.73896,-10.55196 2.57841,-24.23691 5.01549,-34.68096" style="fill:none;stroke:#000000;stroke-width:2.61538;stroke-linecap:round;stroke-linejoin:round;stroke-miterlimit:10;stroke-dasharray:none;stroke-opacity:1" id="path3206" sodipodi:nodetypes="cc" />
         </g>
         <g id="g3208" transform="scale(1,-1)">
            <path d="m 689.676,-628.555 c 8.57949,-10.09276 18.2459,-19.37583 25.8425,-30.35404 8.59649,-10.51924 15.65583,-22.89396 26.39154,-31.32177 11.55083,-3.83734 20.70783,6.8901 30.75292,10.83506 39.09428,20.65352 79.77254,38.07389 119.27504,57.89975 0.36483,1.06521 1.73269,2.74319 1.73269,2.74319" style="fill:none;stroke:#000000;stroke-width:2.61538;stroke-linecap:round;stroke-linejoin:round;stroke-miterlimit:10;stroke-dasharray:none;stroke-opacity:1" id="path3210" sodipodi:nodetypes="cccccc" />
         </g>
         <g id="g3212" transform="scale(1,-1)">
            <path d="m 894.812,-596.922 c 1.36976,-7.11677 -0.14771,-14.24101 -1.144,-21.305" style="fill:none;stroke:#000000;stroke-width:2.61538;stroke-linecap:round;stroke-linejoin:round;stroke-miterlimit:10;stroke-dasharray:none;stroke-opacity:1" id="path3214" />
         </g>
         <g id="g3216" transform="scale(1,-1)">
            <path d="m 684.352,-593.84 c 9.47205,3.47491 19.41016,6.75722 29.425,8.227" style="fill:none;stroke:#000000;stroke-width:2.61538;stroke-linecap:round;stroke-linejoin:round;stroke-miterlimit:10;stroke-dasharray:none;stroke-opacity:1" id="path3218" />
         </g>
         <g id="g3220" transform="scale(1,-1)">
            <path d="m 716.574,-598.523 c -6.59014,33.98479 -7.1584,68.87206 -11.051,103.257 l 0.067,1.246 0.812,1.036" style="fill:none;stroke:#000000;stroke-width:2.61538;stroke-linecap:round;stroke-linejoin:round;stroke-miterlimit:10;stroke-dasharray:none;stroke-opacity:1" id="path3222" />
         </g>
         <g id="g3224" transform="scale(1,-1)">
            <path d="m 703.848,-493.031 c 1.44388,2.47991 1.75185,5.61591 3.433,7.894" style="fill:none;stroke:#000000;stroke-width:2.61538;stroke-linecap:round;stroke-linejoin:round;stroke-miterlimit:10;stroke-dasharray:none;stroke-opacity:1" id="path3226" />
         </g>
         <g id="g3228" transform="scale(1,-1)">
            <path d="m 707.418,-485.297 c 57.90315,2.44276 115.88641,2.02684 173.816,3.164 3.44152,-1.8064 3.34066,-4.37978 6.42311,-6.55669" style="fill:none;stroke:#000000;stroke-width:2.61538;stroke-linecap:round;stroke-linejoin:round;stroke-miterlimit:10;stroke-dasharray:none;stroke-opacity:1" id="path3230" sodipodi:nodetypes="ccc" />
         </g>
         <g id="g3232" transform="scale(1,-1)">
            <path d="m 705.688,-493.5 c 7.24166,-0.387 14.48892,-0.63073 21.718,-0.344" style="fill:none;stroke:#000000;stroke-width:2.61538;stroke-linecap:round;stroke-linejoin:round;stroke-miterlimit:10;stroke-dasharray:none;stroke-opacity:1" id="path3234" />
         </g>
         <g id="g3236" transform="scale(1,-1)">
            <path d="m 727.316,-491.637 c 1.79608,-2.66926 3.17883,-5.58717 5.551,-7.816" style="fill:none;stroke:#000000;stroke-width:2.61538;stroke-linecap:round;stroke-linejoin:round;stroke-miterlimit:10;stroke-dasharray:none;stroke-opacity:1" id="path3238" />
         </g>
         <g id="g3240" transform="scale(1,-1)">
            <path d="m 732.875,-499.84431 c -0.58666,-4.27538 0.82303,-11.45487 1.777,-15.93669" style="fill:none;stroke:#000000;stroke-width:2.61538;stroke-linecap:round;stroke-linejoin:round;stroke-miterlimit:10;stroke-dasharray:none;stroke-opacity:1" id="path3242" sodipodi:nodetypes="cc" />
         </g>
         <g id="g3244" transform="scale(1,-1)">
            <path d="m 728.422,-491.105 c 45.94867,1.91961 91.96858,1.7945 137.926,0.24198" style="fill:none;stroke:#000000;stroke-width:2.61538;stroke-linecap:round;stroke-linejoin:round;stroke-miterlimit:10;stroke-dasharray:none;stroke-opacity:1" id="path3246" />
         </g>
         <g id="g3248" transform="scale(1,-1)">
            <path d="m 733.63984,-499.6765 c 40.14484,3.11399 82.31905,3.04949 122.46736,1.62375 l 1.912,0.2014 1.9028,0.27738" style="fill:none;stroke:#000000;stroke-width:2.61538;stroke-linecap:round;stroke-linejoin:round;stroke-miterlimit:10;stroke-dasharray:none;stroke-opacity:1" id="path3250" sodipodi:nodetypes="cccc" />
         </g>
         <g id="g3252" transform="scale(1,-1)">
            <path d="m 865.047,-491.48 c -6.89894,-2.97984 -4.47725,-13.56776 -5.1841,-19.29107 0.0164,0.0173 -0.21844,-1.21328 -0.3939,-0.62393" style="fill:none;stroke:#000000;stroke-width:2.61538;stroke-linecap:round;stroke-linejoin:round;stroke-miterlimit:10;stroke-dasharray:none;stroke-opacity:1" id="path3254" />
         </g>
         <g id="g3256" transform="scale(1,-1)">
            <path d="m 867.156,-490.066 c 4.88498,0.04 10.31556,0.9484 15.332,0.476" style="fill:none;stroke:#000000;stroke-width:2.61538;stroke-linecap:round;stroke-linejoin:round;stroke-miterlimit:10;stroke-dasharray:none;stroke-opacity:1" id="path3258" />
         </g>
         <g id="g3260" transform="scale(1,-1)">
            <path d="m 882.38992,-489.78424 c 1.16912,-4.05282 -4.4471,-18.23918 2.16108,-19.60676 1.42902,6.61554 2.22576,13.71424 3.226,20.188" style="fill:none;stroke:#000000;stroke-width:2.61538;stroke-linecap:round;stroke-linejoin:round;stroke-miterlimit:10;stroke-dasharray:none;stroke-opacity:1" id="path3262" sodipodi:nodetypes="ccc" />
         </g>
         <g id="g3264" transform="scale(1,-1)">
            <path d="m 724.199,-501.871 c -8.21425,-2.76474 -1.43929,9.12341 1.79127,2.14797 0.0826,-2.03097 -4.17434,-3.80432 -5.15427,-1.90197" style="fill:none;stroke:#000000;stroke-width:2.61538;stroke-linecap:round;stroke-linejoin:round;stroke-miterlimit:10;stroke-dasharray:none;stroke-opacity:1" id="path3266" />
         </g>
         <g id="g3268" transform="scale(1,-1)">
            <path d="m 727.43,-514.352 c -8.35072,2.44704 5.94928,6.80482 0.19555,0.56142 -0.0884,-0.0698 -2.44435,-0.40708 -1.77055,0.39258" style="fill:none;stroke:#000000;stroke-width:2.61538;stroke-linecap:round;stroke-linejoin:round;stroke-miterlimit:10;stroke-dasharray:none;stroke-opacity:1" id="path3270" />
         </g>
         <g id="g3272" transform="scale(1,-1)">
            <path d="m 871.031,-499.402 c -10.18298,-0.48946 3.52708,9.89403 1.844,1.039 -1.15725,-1.69106 -3.3907,-2.15621 -5.281,-1.672" style="fill:none;stroke:#000000;stroke-width:2.61538;stroke-linecap:round;stroke-linejoin:round;stroke-miterlimit:10;stroke-dasharray:none;stroke-opacity:1" id="path3274" />
         </g>
         <g id="g3276" transform="scale(1,-1)">
            <path d="m 867.207,-511.156 c -7.87146,3.75745 7.71522,6.67127 0.0161,0.46238 l -1.27008,-0.0524 -0.074,0.25" style="fill:none;stroke:#000000;stroke-width:2.61538;stroke-linecap:round;stroke-linejoin:round;stroke-miterlimit:10;stroke-dasharray:none;stroke-opacity:1" id="path3278" />
         </g>
         <g id="g3280" transform="scale(1,-1)">
            <path d="m 735.98,-516.273 c 11.19122,1.9984 23.0273,2.16782 34.27589,0.52554 10.6783,-2.31156 19.27689,-10.45764 25.39267,-19.08545 1.23954,-2.15222 2.15564,-5.14921 1.85544,-7.01509" style="fill:none;stroke:#000000;stroke-width:2.61538;stroke-linecap:round;stroke-linejoin:round;stroke-miterlimit:10;stroke-dasharray:none;stroke-opacity:1" id="path3282" />
         </g>
         <g id="g3284" transform="scale(1,-1)">
            <path d="m 863.016,-493.574 c -4.43038,-4.54886 1.90561,-21.02593 -10.24184,-17.72358 -12.03085,-1.33912 -24.90065,-2.00603 -34.99418,-9.47386 -5.62967,-4.07555 -10.97063,-10.86853 -14.09598,-16.50156 -4.64399,-3.61542 -3.37509,-13.37845 -3.231,-19.809 0.23229,-9.63992 0.27388,-19.79244 -1.08039,-29.13245 -7.24415,2.12961 -0.56591,38.72405 -1.63461,45.93365" style="fill:none;stroke:#000000;stroke-width:2.61538;stroke-linecap:round;stroke-linejoin:round;stroke-miterlimit:10;stroke-dasharray:none;stroke-opacity:1" id="path3286" sodipodi:nodetypes="ccccccc" />
         </g>
         <g id="g3288" transform="scale(1,-1)">
            <path d="m 724.121,-500.941 c -8.87701,-4.56259 0.73914,9.17793 1.219,0.039 -2.64143,-3.64821 -9.07208,0.79816 -3.395,2.629" style="fill:none;stroke:#000000;stroke-width:2.61538;stroke-linecap:round;stroke-linejoin:round;stroke-miterlimit:10;stroke-dasharray:none;stroke-opacity:1" id="path3290" />
         </g>
         <g id="g3292" transform="scale(1,-1)">
            <path d="m 727.301,-514.008 c -5.04589,-2.81402 -1.81962,10.27508 1.957,2.449 0.16009,-5.22101 -6.47903,-2.26939 -3.227,0.301" style="fill:none;stroke:#000000;stroke-width:2.61538;stroke-linecap:round;stroke-linejoin:round;stroke-miterlimit:10;stroke-dasharray:none;stroke-opacity:1" id="path3294" />
         </g>
         <g id="g3296" transform="scale(1,-1)">
            <path d="m 723.191,-588.449 c -6.10241,-3.77709 -1.11053,8.46095 0.4115,-0.0934 -6.92455,-4.35908 -1.69263,6.76163 -0.2545,-0.16063 l -0.70255,-0.38717 -0.79345,0.10617" style="fill:none;stroke:#000000;stroke-width:2.61538;stroke-linecap:round;stroke-linejoin:round;stroke-miterlimit:10;stroke-dasharray:none;stroke-opacity:1" id="path3298" />
         </g>
         <g id="g3300" transform="scale(1,-1)">
            <path d="m 873.066,-582.289 c -7.79484,-2.50247 -0.66514,8.45427 0.41242,0.90229 -7.52443,-4.66558 -2.17085,7.11271 0.75174,0.33357 -0.13495,-1.56473 -2.16311,-2.58287 -3.42916,-1.64186" style="fill:none;stroke:#000000;stroke-width:2.61538;stroke-linecap:round;stroke-linejoin:round;stroke-miterlimit:10;stroke-dasharray:none;stroke-opacity:1" id="path3302" />
         </g>
         <g id="g3304" transform="scale(1,-1)">
            <path d="m 779.992,-534.242 c -8.76088,6.94359 -20.15724,11.02519 -31.34,8.609 -11.91104,-1.97716 -24.48394,-9.43251 -27.24945,-22.00419 -1.48698,-9.10573 -2.24503,-20.92655 5.97342,-27.13023 6.58128,-7.93005 16.08845,-14.4083 26.92257,-13.55762 10.05703,-0.53132 20.04428,3.938 27.44605,10.46822 5.8643,6.20424 7.42899,15.11577 7.25141,23.52482 -1.29927,7.84549 -3.76443,16.41774 -10.49089,21.0993 -1.0322,1.58115 -2.95261,1.60877 -4.42311,2.4237" style="fill:none;stroke:#000000;stroke-width:2.61538;stroke-linecap:round;stroke-linejoin:round;stroke-miterlimit:10;stroke-dasharray:none;stroke-opacity:1" id="path3306" />
         </g>
         <g id="g3308" transform="scale(1,-1)">
            <path d="m 826.27,-527.863 c 13.60671,6.2602 32.23175,5.14228 41.80746,-7.61442 7.31708,-7.4518 6.52898,-19.58012 1.45393,-28.15919 -4.25728,-6.99425 -8.176,-15.7822 -16.57611,-18.65518 -10.19839,-3.81532 -22.02522,-2.08792 -32.04083,1.5958 -11.34479,4.94192 -16.34199,18.69489 -12.77345,30.20799 1.68882,13.20561 13.05437,24.6134 26.445,25.308" style="fill:none;stroke:#000000;stroke-width:2.61538;stroke-linecap:round;stroke-linejoin:round;stroke-miterlimit:10;stroke-dasharray:none;stroke-opacity:1" id="path3310" />
         </g>
         <g id="g3312" transform="scale(1,-1)">
            <path d="m 754.668,-544.785 c 2.66334,-4.54189 7.67737,0.38699 10.762,-3.977 3.63373,0.80599 2.19753,-6.41756 5.238,-6.008 -4.10903,-3.07417 3.88206,-12.03792 -2.723,-4.453 -3.86902,-1.9926 1.25808,-12.97314 -3.92427,-4.42015 -5.71744,3.79833 -3.53873,-14.91277 -5.86473,-2.34485 -4.61357,8.81014 -6.36893,-11.20141 -6.64,-0.77 1.44644,5.83271 -5.1721,7.79676 -6.414,1.406 1.47788,3.52714 -0.23137,11.63147 -4.86,6.54 7.69708,2.96972 -1.90154,7.904 5.91664,7.85579 -0.65841,6.38342 5.76984,1.83331 8.24336,6.60421" style="fill:none;stroke:#000000;stroke-width:2.61538;stroke-linecap:round;stroke-linejoin:round;stroke-miterlimit:10;stroke-dasharray:none;stroke-opacity:1" id="path3314" />
         </g>
         <g id="g3316" transform="scale(1,-1)">
            <path d="m 750.551,-559.578 c -6.54624,7.0391 12.39399,16.58065 12.66,3.117 -2.06193,-5.07656 -10.12155,-6.48292 -13.977,-2.836" style="fill:none;stroke:#000000;stroke-width:2.61538;stroke-linecap:round;stroke-linejoin:round;stroke-miterlimit:10;stroke-dasharray:none;stroke-opacity:1" id="path3318" />
         </g>
         <g id="g3320" transform="scale(1,-1)">
            <path d="m 748.801,-539.91 c -0.39368,-0.65019 1.41102,0.58346 0.98,0.164" style="fill:none;stroke:#000000;stroke-width:2.61538;stroke-linecap:round;stroke-linejoin:round;stroke-miterlimit:10;stroke-dasharray:none;stroke-opacity:1" id="path3322" />
         </g>
         <g id="g3324" transform="scale(1,-1)">
            <path d="m 756.02,-538.5 c -0.7393,-1.02091 1.1346,0.54851 1.351,-0.082" style="fill:none;stroke:#000000;stroke-width:2.61538;stroke-linecap:round;stroke-linejoin:round;stroke-miterlimit:10;stroke-dasharray:none;stroke-opacity:1" id="path3326" />
         </g>
         <g id="g3328" transform="scale(1,-1)">
            <path d="m 765,-539.719 c 11.11701,-4.11847 14.13416,-19.04963 8.863,-28.742 -8.53897,-13.68776 -32.4979,-11.16758 -37.51431,4.20843 -2.44228,7.63309 0.97371,18.45693 8.35031,22.00257" style="fill:none;stroke:#000000;stroke-width:2.61538;stroke-linecap:round;stroke-linejoin:round;stroke-miterlimit:10;stroke-dasharray:none;stroke-opacity:1" id="path3330" />
         </g>
         <g id="g3332" transform="scale(1,-1)">
            <path d="m 733.227,-541.895 c 1.25898,2.03234 3.56501,5.19185 6.246,6.473" style="fill:none;stroke:#000000;stroke-width:2.61538;stroke-linecap:round;stroke-linejoin:round;stroke-miterlimit:10;stroke-dasharray:none;stroke-opacity:1" id="path3334" />
         </g>
         <g id="g3336" transform="scale(1,-1)">
            <path d="m 748.348,-533.5 c 2.57234,0.85227 5.58345,0.52833 8.035,1.426" style="fill:none;stroke:#000000;stroke-width:2.61538;stroke-linecap:round;stroke-linejoin:round;stroke-miterlimit:10;stroke-dasharray:none;stroke-opacity:1" id="path3338" />
         </g>
         <g id="g3340" transform="scale(1,-1)">
            <path d="m 762.836,-532.449 c 2.4978,-0.79437 5.15106,-1.1915 7.512,-2.469" style="fill:none;stroke:#000000;stroke-width:2.61538;stroke-linecap:round;stroke-linejoin:round;stroke-miterlimit:10;stroke-dasharray:none;stroke-opacity:1" id="path3342" />
         </g>
         <g id="g3344" transform="scale(1,-1)">
            <path d="m 774.406,-538.188 c 1.72768,-1.42079 3.47829,-2.77592 4.614,-4.82" style="fill:none;stroke:#000000;stroke-width:2.61538;stroke-linecap:round;stroke-linejoin:round;stroke-miterlimit:10;stroke-dasharray:none;stroke-opacity:1" id="path3346" />
         </g>
         <g id="g3348" transform="scale(1,-1)">
            <path d="m 781.453,-550.473 c 1.72578,-1.54242 1.8053,-4.27687 1.832,-6.468" style="fill:none;stroke:#000000;stroke-width:2.61538;stroke-linecap:round;stroke-linejoin:round;stroke-miterlimit:10;stroke-dasharray:none;stroke-opacity:1" id="path3350" />
         </g>
         <g id="g3352" transform="scale(1,-1)">
            <path d="m 782.906,-562.699 c 1.87522,-0.46004 -0.76169,-5.2691 -2.34,-5.153" style="fill:none;stroke:#000000;stroke-width:2.61538;stroke-linecap:round;stroke-linejoin:round;stroke-miterlimit:10;stroke-dasharray:none;stroke-opacity:1" id="path3354" />
         </g>
         <g id="g3356" transform="scale(1,-1)">
            <path d="m 776.395,-572.902 c -0.24153,-3.25762 -4.43929,-4.79132 -6.516,-6.801" style="fill:none;stroke:#000000;stroke-width:2.61538;stroke-linecap:round;stroke-linejoin:round;stroke-miterlimit:10;stroke-dasharray:none;stroke-opacity:1" id="path3358" />
         </g>
         <g id="g3360" transform="scale(1,-1)">
            <path d="m 765.324,-580.582 c -2.71654,-1.22286 -5.76749,-1.06218 -8.648,-1.543" style="fill:none;stroke:#000000;stroke-width:2.61538;stroke-linecap:round;stroke-linejoin:round;stroke-miterlimit:10;stroke-dasharray:none;stroke-opacity:1" id="path3362" />
         </g>
         <g id="g3364" transform="scale(1,-1)">
            <path d="m 750.086,-582.242 c -3.09719,0.35091 -6.36038,1.04587 -8.883,2.992" style="fill:none;stroke:#000000;stroke-width:2.61538;stroke-linecap:round;stroke-linejoin:round;stroke-miterlimit:10;stroke-dasharray:none;stroke-opacity:1" id="path3366" />
         </g>
         <g id="g3368" transform="scale(1,-1)">
            <path d="m 736.926,-576.906 c -2.62163,1.03072 -4.62111,3.88301 -6.508,5.957" style="fill:none;stroke:#000000;stroke-width:2.61538;stroke-linecap:round;stroke-linejoin:round;stroke-miterlimit:10;stroke-dasharray:none;stroke-opacity:1" id="path3370" />
         </g>
         <g id="g3372" transform="scale(1,-1)">
            <path d="m 727.746,-565.629 c -1.42077,2.7205 -1.57478,5.81296 -2.648,8.652" style="fill:none;stroke:#000000;stroke-width:2.61538;stroke-linecap:round;stroke-linejoin:round;stroke-miterlimit:10;stroke-dasharray:none;stroke-opacity:1" id="path3374" />
         </g>
         <g id="g3376" transform="scale(1,-1)">
            <path d="m 726.789,-554.008 c 0.629,2.58133 0.57975,6.07788 2.891,7.461" style="fill:none;stroke:#000000;stroke-width:2.61538;stroke-linecap:round;stroke-linejoin:round;stroke-miterlimit:10;stroke-dasharray:none;stroke-opacity:1" id="path3378" />
         </g>
         <g id="g3380" transform="scale(1,-1)">
            <path d="m 829.301,-533.418 c 2.27987,1.52446 4.95096,2.40443 7.695,2.512" style="fill:none;stroke:#000000;stroke-width:2.61538;stroke-linecap:round;stroke-linejoin:round;stroke-miterlimit:10;stroke-dasharray:none;stroke-opacity:1" id="path3382" />
         </g>
         <g id="g3384" transform="scale(1,-1)">
            <path d="m 843.172,-530.215 c 2.60855,-0.0681 5.18999,-0.40407 7.633,-1.383" style="fill:none;stroke:#000000;stroke-width:2.61538;stroke-linecap:round;stroke-linejoin:round;stroke-miterlimit:10;stroke-dasharray:none;stroke-opacity:1" id="path3386" />
         </g>
         <g id="g3388" transform="scale(1,-1)">
            <path d="m 855.863,-534.605 c 2.23085,0.0848 3.21757,-2.05966 4.68,-3.27" style="fill:none;stroke:#000000;stroke-width:2.61538;stroke-linecap:round;stroke-linejoin:round;stroke-miterlimit:10;stroke-dasharray:none;stroke-opacity:1" id="path3390" />
         </g>
         <g id="g3392" transform="scale(1,-1)">
            <path d="m 863.461,-544.324 c 0.63538,-1.98017 2.48788,-3.78176 1.703,-6.031" style="fill:none;stroke:#000000;stroke-width:2.61538;stroke-linecap:round;stroke-linejoin:round;stroke-miterlimit:10;stroke-dasharray:none;stroke-opacity:1" id="path3394" />
         </g>
         <g id="g3396" transform="scale(1,-1)">
            <path d="m 864.957,-557.598 c 1.45006,-0.76944 0.27562,-4.63524 -0.605,-5.941" style="fill:none;stroke:#000000;stroke-width:2.61538;stroke-linecap:round;stroke-linejoin:round;stroke-miterlimit:10;stroke-dasharray:none;stroke-opacity:1" id="path3398" />
         </g>
         <g id="g3400" transform="scale(1,-1)">
            <path d="m 860.941,-568.43 c 0.15716,-1.79411 -3.00659,-4.61834 -4.636,-4.531" style="fill:none;stroke:#000000;stroke-width:2.61538;stroke-linecap:round;stroke-linejoin:round;stroke-miterlimit:10;stroke-dasharray:none;stroke-opacity:1" id="path3402" />
         </g>
         <g id="g3404" transform="scale(1,-1)">
            <path d="m 850.66,-576.496 c -0.95045,-1.7407 -5.20975,-2.76259 -7.39,-2.731" style="fill:none;stroke:#000000;stroke-width:2.61538;stroke-linecap:round;stroke-linejoin:round;stroke-miterlimit:10;stroke-dasharray:none;stroke-opacity:1" id="path3406" />
         </g>
         <g id="g3408" transform="scale(1,-1)">
            <path d="m 836.676,-579.906 c -2.46985,0.76592 -5.57558,-0.39816 -7.66,1.07" style="fill:none;stroke:#000000;stroke-width:2.61538;stroke-linecap:round;stroke-linejoin:round;stroke-miterlimit:10;stroke-dasharray:none;stroke-opacity:1" id="path3410" />
         </g>
         <g id="g3412" transform="scale(1,-1)">
            <path d="m 824.191,-576.445 c -2.00884,0.43961 -4.63151,3.04037 -6.195,4.644" style="fill:none;stroke:#000000;stroke-width:2.61538;stroke-linecap:round;stroke-linejoin:round;stroke-miterlimit:10;stroke-dasharray:none;stroke-opacity:1" id="path3414" />
         </g>
         <g id="g3416" transform="scale(1,-1)">
            <path d="m 815.891,-567.723 c -2.40554,2.01294 -2.02316,5.16829 -2.145,7.938" style="fill:none;stroke:#000000;stroke-width:2.61538;stroke-linecap:round;stroke-linejoin:round;stroke-miterlimit:10;stroke-dasharray:none;stroke-opacity:1" id="path3418" />
         </g>
         <g id="g3420" transform="scale(1,-1)">
            <path d="m 814.18,-556.203 c -0.15467,2.53708 -0.15036,5.20413 0.511,7.445" style="fill:none;stroke:#000000;stroke-width:2.61538;stroke-linecap:round;stroke-linejoin:round;stroke-miterlimit:10;stroke-dasharray:none;stroke-opacity:1" id="path3422" />
         </g>
         <g id="g3424" transform="scale(1,-1)">
            <path d="m 817.602,-542.844 c 1.37455,2.22353 3.49621,3.6789 5.734,4.93" style="fill:none;stroke:#000000;stroke-width:2.61538;stroke-linecap:round;stroke-linejoin:round;stroke-miterlimit:10;stroke-dasharray:none;stroke-opacity:1" id="path3426" />
         </g>
         <g id="g3428" transform="scale(1,-1)">
            <path d="m 823.082,-546.512 1.008,1.364" style="fill:none;stroke:#000000;stroke-width:2.61538;stroke-linecap:round;stroke-linejoin:round;stroke-miterlimit:10;stroke-dasharray:none;stroke-opacity:1" id="path3430" />
         </g>
         <g id="g3432" transform="scale(1,-1)">
            <path d="m 827.543,-541.82 c 0.058,-1.1731 2.45044,2.12117 2.301,1.367" style="fill:none;stroke:#000000;stroke-width:2.61538;stroke-linecap:round;stroke-linejoin:round;stroke-miterlimit:10;stroke-dasharray:none;stroke-opacity:1" id="path3434" />
         </g>
         <g id="g3436" transform="scale(1,-1)">
            <path d="m 835.234,-537.816 c 8.49314,3.74093 19.55711,0.66416 23.3484,-8.68173 5.33196,-8.84867 0.77961,-20.78132 -8.87516,-24.41327 -9.06402,-4.56822 -22.74471,-4.11067 -27.48812,6.2684 -1.47214,4.23575 -3.16553,11.13509 0.16388,14.6976" style="fill:none;stroke:#000000;stroke-width:2.61538;stroke-linecap:round;stroke-linejoin:round;stroke-miterlimit:10;stroke-dasharray:none;stroke-opacity:1" id="path3438" />
         </g>
         <g id="g3440" transform="scale(1,-1)">
            <path d="m 836.895,-542.691 c 2.21164,-4.50434 7.07425,3.78804 9.093,-1.395 4.52179,1.24991 2.18266,-6.76633 8.65409,-6.73549 -11.43243,7.05773 1.97877,-8.94875 -1.37234,-6.6497 -6.27162,7.98427 -6.54495,-2.03217 -2.29275,-5.79481 -2.16329,-1.15506 -7.12294,11.09037 -8.477,1.981 3.36814,-4.05607 2.19012,-9.74192 -1.53868,-2.8569 -2.80965,6.28179 -8.84165,0.63556 -4.02332,-4.0141 -0.54965,4.88682 -9.48063,11.18256 -5.813,2.453 -1.506,5.78975 -4.51591,5.73682 -2.527,9.48 -0.48219,1.16331 -1.54084,2.6829 -1.301,2.379" style="fill:none;stroke:#000000;stroke-width:2.61538;stroke-linecap:round;stroke-linejoin:round;stroke-miterlimit:10;stroke-dasharray:none;stroke-opacity:1" id="path3442" />
         </g>
         <g id="g3444" transform="scale(1,-1)">
            <path d="m 828.09,-552.824 c 4.016,2.75814 1.42605,6.795 6.945,7.14 l 1.403,1.61 0.156,0.031" style="fill:none;stroke:#000000;stroke-width:2.61538;stroke-linecap:round;stroke-linejoin:round;stroke-miterlimit:10;stroke-dasharray:none;stroke-opacity:1" id="path3446" />
         </g>
         <g id="g3448" transform="scale(1,-1)">
            <path d="m 836.844,-558.746 c -14.58979,4.43779 7.00927,19.85802 9.668,7.519 0.0146,-1.26273 -0.96063,-3.09921 -1.442,-3.828" style="fill:none;stroke:#000000;stroke-width:2.61538;stroke-linecap:round;stroke-linejoin:round;stroke-miterlimit:10;stroke-dasharray:none;stroke-opacity:1" id="path3450" />
         </g>
         <g id="g3600" transform="scale(1,-1)">
            <path d="m 753.504,-627.355 c 6.31473,0.60417 17.74496,11.36865 22.49854,5.68161 5.51384,-12.10289 -13.28442,-15.14628 -20.64059,-9.21711 -0.71881,1.31779 -4.37054,3.29733 -1.62795,4.5355" style="fill:none;stroke:#000000;stroke-width:2.61538;stroke-linecap:round;stroke-linejoin:round;stroke-miterlimit:10;stroke-dasharray:none;stroke-opacity:1" id="path3602" />
         </g>
         <g id="g3604" transform="scale(1,-1)">
            <path d="m 780.422,-632.691 c 3.07858,-4.24525 12.82293,-1.12728 3.66788,-4.99607 -5.40683,-2.91096 -12.23583,-4.07195 -17.61288,-5.74293" style="fill:none;stroke:#000000;stroke-width:2.61538;stroke-linecap:round;stroke-linejoin:round;stroke-miterlimit:10;stroke-dasharray:none;stroke-opacity:1" id="path3606" />
         </g>
         <g id="g3648" transform="scale(1,-1)">
            <path d="m 704.301,-592.465 c -0.17621,0.11409 -0.56421,0.40876 -0.582,0.442" style="fill:none;stroke:#000000;stroke-width:1.30769;stroke-linecap:round;stroke-linejoin:round;stroke-miterlimit:10;stroke-dasharray:none;stroke-opacity:1" id="path3650" />
         </g>
         <g id="g3652" transform="scale(1,-1)">
            <path d="m 703.594,-591.645 c 12.25647,-13.31904 24.60641,-26.56289 35.88971,-40.7397 5.98965,-6.26377 11.59957,-14.17082 20.06729,-17.0643" style="fill:none;stroke:#000000;stroke-width:1.30769;stroke-linecap:round;stroke-linejoin:round;stroke-miterlimit:10;stroke-dasharray:none;stroke-opacity:1" id="path3654" />
         </g>
         <g id="g3656" transform="scale(1,-1)">
            <path d="m 791.648,-597.109 c 6.90518,-6.7172 14.8659,-12.30597 22.555,-18.133 0.88737,-2.13126 14.43827,-8.43417 8.078,-9.891" style="fill:none;stroke:#000000;stroke-width:1.30769;stroke-linecap:round;stroke-linejoin:round;stroke-miterlimit:10;stroke-dasharray:none;stroke-opacity:1" id="path3658" />
         </g>
         <g id="g3660" transform="scale(1,-1)">
            <path d="m 814.82,-622.98 c 2.09242,7.1105 -13.74159,5.83975 -15.85257,-0.91309 1.34872,-10.48801 18.87526,4.06855 4.8354,3.45117 l -1.4217,-0.561 -1.08813,-0.32908" style="fill:none;stroke:#000000;stroke-width:1.30769;stroke-linecap:round;stroke-linejoin:round;stroke-miterlimit:10;stroke-dasharray:none;stroke-opacity:1" id="path3662" />
         </g>
         <g id="g3740" transform="scale(1,-1)">
            <path d="m 722.52,-594.293 c 23.61263,0.90569 47.15938,3.70975 70.80422,3.43125 l -0.42222,-0.13425 0.024,-0.027" style="fill:none;stroke:#000000;stroke-width:1.30769;stroke-linecap:round;stroke-linejoin:round;stroke-miterlimit:10;stroke-dasharray:none;stroke-opacity:1" id="path3742" />
         </g>
         <g id="g3744" transform="scale(1,-1)">
            <path d="m 799.5,-590.578 c -0.94415,-0.0679 -1.46691,0.77861 -0.824,0.078 l -0.25,-0.059" style="fill:none;stroke:#000000;stroke-width:1.30769;stroke-linecap:round;stroke-linejoin:round;stroke-miterlimit:10;stroke-dasharray:none;stroke-opacity:1" id="path3746" />
         </g>
         <g id="g3748" transform="scale(1,-1)">
            <path d="m 805.223,-590.539 c 18.14384,1.62579 36.43724,0.62517 54.57862,1.67822 5.17918,1.01368 10.46601,0.38819 15.70238,0.64178" style="fill:none;stroke:#000000;stroke-width:1.30769;stroke-linecap:round;stroke-linejoin:round;stroke-miterlimit:10;stroke-dasharray:none;stroke-opacity:1" id="path3750" />
         </g>
         <g id="g3752" transform="scale(1,-1)">
            <path d="m 778.488,-585.441 c 4.55844,0.22777 11.698,-0.75241 14.621,-0.606" style="fill:none;stroke:#000000;stroke-width:1.30769;stroke-linecap:round;stroke-linejoin:round;stroke-miterlimit:10;stroke-dasharray:none;stroke-opacity:1" id="path3754" />
         </g>
         <g id="g3756" transform="scale(1,-1)">
            <path d="m 776.57,-585.805 0.008,-1.726 -0.24264,-0.0366 0.005,-0.15536" style="fill:none;stroke:#000000;stroke-width:1.30769;stroke-linecap:round;stroke-linejoin:round;stroke-miterlimit:10;stroke-dasharray:none;stroke-opacity:1" id="path3758" />
         </g>
         <g id="g3760" transform="scale(1,-1)">
            <path d="m 777.68,-588.664 c 4.63991,0.51873 9.33295,-0.0104 13.972,0.641" style="fill:none;stroke:#000000;stroke-width:1.30769;stroke-linecap:round;stroke-linejoin:round;stroke-miterlimit:10;stroke-dasharray:none;stroke-opacity:1" id="path3762" />
         </g>
         <g id="g3764" transform="scale(1,-1)">
            <path d="m 803.312,-584.859 c 6.14827,0.58275 12.36254,0.81446 18.524,0.847" style="fill:none;stroke:#000000;stroke-width:1.30769;stroke-linecap:round;stroke-linejoin:round;stroke-miterlimit:10;stroke-dasharray:none;stroke-opacity:1" id="path3766" />
         </g>
         <g id="g3768" transform="scale(1,-1)">
            <path d="m 803.98,-588.004 c 8.06987,1.21442 16.51841,1.70852 24.45,2.445" style="fill:none;stroke:#000000;stroke-width:1.30769;stroke-linecap:round;stroke-linejoin:round;stroke-miterlimit:10;stroke-dasharray:none;stroke-opacity:1" id="path3770" />
         </g>
         <g id="g3772" transform="scale(1,-1)">
            <path d="m 822.656,-584.586 c 1.54506,0.32084 2.75694,-1.06571 4.274,-0.859" style="fill:none;stroke:#000000;stroke-width:1.30769;stroke-linecap:round;stroke-linejoin:round;stroke-miterlimit:10;stroke-dasharray:none;stroke-opacity:1" id="path3774" />
         </g>
         <g id="g4352" transform="scale(1,-1)">
            <path d="m 884.117,-508.938 c 0,0 -5.92139,-80.72739 -5.99345,-81.56231" style="fill:none;stroke:#000000;stroke-width:2.61538;stroke-linecap:round;stroke-linejoin:round;stroke-miterlimit:10;stroke-dasharray:none;stroke-opacity:1" id="path4354" sodipodi:nodetypes="cc" />
         </g>
         <g id="g4356" transform="scale(1,-1)">
            <path d="m 716.789,-598.801 c 9.32573,-2.64641 22.70412,1.57329 33.4399,0.79668 42.60822,1.78534 85.77562,-0.93189 127.8301,7.40632" style="fill:none;stroke:#000000;stroke-width:2.61538;stroke-linecap:round;stroke-linejoin:round;stroke-miterlimit:10;stroke-dasharray:none;stroke-opacity:1" id="path4358" sodipodi:nodetypes="ccc" />
         </g>
      </g>
   </g>
</svg>
