<?xml version="1.0" encoding="UTF-8" standalone="no"?>
<!-- Created by Ashley Blewer - This work is licensed under a Creative Commons Attribution 4.0 International License -->

<svg width="544" height="480" viewBox="0 0 143.93334 127" version="1.1" id="svg2490" inkscape:version="1.1.2 (08b2f3d93c, 2022-04-05)" sodipodi:docname="1986-mii-4.svg"
   xmlns:inkscape="http://www.inkscape.org/namespaces/inkscape"
   xmlns:sodipodi="http://sodipodi.sourceforge.net/DTD/sodipodi-0.dtd"
   xmlns="http://www.w3.org/2000/svg"
   xmlns:svg="http://www.w3.org/2000/svg">
   <sodipodi:namedview id="namedview2492" pagecolor="#ffffff" bordercolor="#666666" borderopacity="1.0" inkscape:pageshadow="2" inkscape:pageopacity="0.0" inkscape:pagecheckerboard="0" inkscape:document-units="mm" showgrid="false" units="px" inkscape:zoom="0.90583674" inkscape:cx="272.67607" inkscape:cy="177.18425" inkscape:window-width="1848" inkscape:window-height="1136" inkscape:window-x="72" inkscape:window-y="27" inkscape:window-maximized="1" inkscape:current-layer="layer1" />
   <defs id="defs2487" />
   <g inkscape:label="Layer 1" inkscape:groupmode="layer" id="layer1">
      <g id="g2490" transform="matrix(0.5056067,0,0,0.5056067,-462.49825,-138.04666)">
         <g id="g1856" transform="scale(1,-1)" style="stroke-width:2.25;stroke-miterlimit:4;stroke-dasharray:none">
            <path d="m 942.949,-447.453 c -2.215,0.515 -3.574,4.644 -3.554,7.219 0.859,2.851 4.191,4.773 5.5,7.476 1.093,3.141 -4.559,2.723 -6.348,3.891 -1.598,1.945 -0.356,4.613 -1.461,6.855 -0.941,4.278 -0.895,8.973 -1.738,13.364 -0.582,10.378 -2.774,20 -4.473,29.507 -0.316,4.094 -2.395,7.696 -2.047,11.871 -0.476,1.645 -0.445,2.504 -0.48,3.766 -0.36,0.149 -3.356,4.234 -2.66,3.692 1.765,-1.86 3.675,-4.852 2.734,-0.512 0.609,4.164 -0.539,8.277 -0.426,12.414 -0.781,3.371 -0.527,6.961 -1.437,10.098 -0.508,1.156 -2.735,4.679 -3.461,6.765 -0.676,0.883 -2.688,6.711 -2.172,4.379 0.797,-4.453 1.105,-8.984 1.937,-13.441 0.895,-4.133 1.262,-8.387 2.125,-12.536 -0.09,-3.523 1.336,-7.121 1.778,-10.765 1.371,-3.457 0.972,-7.496 1.66,-11.246 1.285,-10.758 0.012,-27.442 3.344,-36.563 1.015,-6.324 2.949,-12.41 4.14,-18.719 0.742,-2.949 1.789,-6.023 2.102,-8.921 0.758,-2.786 1.222,-5.907 2.586,-8.274 0.425,-0.508 0.168,-2.043 0.859,-1.75" style="fill:none;stroke:#000000;stroke-width:2.25;stroke-linecap:round;stroke-linejoin:round;stroke-miterlimit:4;stroke-dasharray:none;stroke-opacity:1" id="path1858" />
         </g>
         <g id="g1860" transform="scale(1,-1)" style="stroke-width:2.25;stroke-miterlimit:4;stroke-dasharray:none">
            <path d="m 921.336,-325.168 c 38.074,7.121 202.398,34.523 226.602,38.176" style="fill:none;stroke:#000000;stroke-width:2.25;stroke-linecap:round;stroke-linejoin:round;stroke-miterlimit:4;stroke-dasharray:none;stroke-opacity:1" id="path1862" />
         </g>
         <g id="g1864" transform="scale(1,-1)" style="stroke-width:2.25;stroke-miterlimit:4;stroke-dasharray:none">
            <path d="m 1149.133,-287.059 c 3.008,-1.765 6.562,-6.941 9.39,-9.25 0.922,-0.808 1.368,-1.968 2.094,-2.91 0.707,-1.074 -0.726,-1.863 -1.504,-1.004 -1.023,0.153 -0.578,1.961 0.184,0.977 -0.16,-0.086 -0.356,-0.004 -0.481,0.105" style="fill:none;stroke:#000000;stroke-width:2.25;stroke-linecap:round;stroke-linejoin:round;stroke-miterlimit:4;stroke-dasharray:none;stroke-opacity:1" id="path1866" />
         </g>
         <g id="g1868" transform="scale(1,-1)" style="stroke-width:2.25;stroke-miterlimit:4;stroke-dasharray:none">
            <path d="m 1155.293,-307.73 c -1.254,0.007 -1.387,1.906 -0.125,2.097 1.07,0.324 1.406,-1.476 0.652,-1.937 -1.117,-0.555 -2.062,1.242 -1.058,1.914 0.976,1.011 2.133,-0.535 1.328,-1.438 -0.199,-0.406 -1.235,-0.554 -1.219,0.028" style="fill:none;stroke:#000000;stroke-width:2.25;stroke-linecap:round;stroke-linejoin:round;stroke-miterlimit:4;stroke-dasharray:none;stroke-opacity:1" id="path1870" />
         </g>
         <g id="g1872" transform="scale(1,-1)" style="stroke-width:2.25;stroke-miterlimit:4;stroke-dasharray:none">
            <path d="m 1161.434,-301.656 c -1.34,-11.602 -2.52,-28.965 -4.11,-40.906 2.844,0.16 -1.008,-19.583 -2.117,-25.7 -0.043,1.461 -0.051,0.703 -0.016,0.125" style="fill:none;stroke:#000000;stroke-width:2.25;stroke-linecap:round;stroke-linejoin:round;stroke-miterlimit:4;stroke-dasharray:none;stroke-opacity:1" id="path1874" />
         </g>
         <g id="g1876" transform="scale(1,-1)" style="stroke-width:2.25;stroke-miterlimit:4;stroke-dasharray:none">
            <path d="m 931.789,-337.77 c -0.211,-0.472 -0.727,0.922 -0.703,1.469 0.629,0.414 1.769,0.613 2.621,0.742 2.731,0.34 5.469,0.715 8.215,0.852 0.5,-0.105 1.363,0.289 1.117,0.156 -0.043,-0.933 -0.195,-1.844 -1.324,-1.574 -1.746,-0.07 -3.473,-0.379 -5.184,-0.723 -1.176,-0.472 -2.488,-0.109 -3.711,-0.367 -0.578,-0.008 -1.113,-0.183 -1.64,-0.078" style="fill:none;stroke:#000000;stroke-width:2.25;stroke-linecap:round;stroke-linejoin:round;stroke-miterlimit:4;stroke-dasharray:none;stroke-opacity:1" id="path1878" />
         </g>
         <g id="g1880" transform="scale(1,-1)" style="stroke-width:2.25;stroke-miterlimit:4;stroke-dasharray:none">
            <path d="m 926.309,-337.676 v -0.062 l 0.066,-0.094 0.086,-0.113 0.016,-0.082 0.011,-0.055 0.035,-0.039 0.059,-0.043 0.148,-0.02 0.102,-0.011 0.023,-0.004 0.032,0.008 0.023,0.019 0.047,0.012 0.066,0.027 0.036,0.024 0.066,0.035 0.094,0.039 0.074,0.031 0.059,0.031 0.035,0.024 -0.016,0.039 0.031,0.027 0.09,0.031 0.051,0.02 0.027,0.02 0.032,0.027 0.043,0.012 0.085,0.011 0.028,0.035 -0.016,0.02 0.031,0.012 0.032,0.027 0.011,0.004 -0.132,0.019 -0.028,0.04 0.117,-0.004 0.071,-0.004 0.051,-0.004 0.043,0.023 0.093,0.008 0.164,-0.019 0.024,0.019 -0.035,-0.004 0.035,-0.004 0.027,0.02 0.02,0.004 -0.039,0.015" style="fill:none;stroke:#000000;stroke-width:2.25;stroke-linecap:round;stroke-linejoin:round;stroke-miterlimit:4;stroke-dasharray:none;stroke-opacity:1" id="path1882" />
         </g>
         <g id="g1884" transform="scale(1,-1)" style="stroke-width:2.25;stroke-miterlimit:4;stroke-dasharray:none">
            <path d="m 946.871,-335.043 c 18.938,3.379 36.465,6.543 54.141,9.176 l -0.102,0.023" style="fill:none;stroke:#000000;stroke-width:2.25;stroke-linecap:round;stroke-linejoin:round;stroke-miterlimit:4;stroke-dasharray:none;stroke-opacity:1" id="path1886" />
         </g>
         <g id="g1888" transform="scale(1,-1)" style="stroke-width:2.25;stroke-miterlimit:4;stroke-dasharray:none">
            <path d="m 1003.891,-326.047 c -0.063,-1.062 -1.286,1.762 -0.051,1.406 2.125,0.473 4.238,1 6.41,1.235 1.41,0.5 2.91,0.476 4.355,0.336 0.368,-1.02 -0.242,-2.309 -1.562,-1.985 -2.496,-0.398 -5.004,-0.652 -7.484,-1.144 -1.168,-0.426 -2.45,-0.121 -3.621,-0.469" style="fill:none;stroke:#000000;stroke-width:2.25;stroke-linecap:round;stroke-linejoin:round;stroke-miterlimit:4;stroke-dasharray:none;stroke-opacity:1" id="path1890" />
         </g>
         <g id="g1892" transform="scale(1,-1)" style="stroke-width:2.25;stroke-miterlimit:4;stroke-dasharray:none">
            <path d="m 1014.906,-324.801 c 12.582,1.559 27.953,4.067 39.973,6.028" style="fill:none;stroke:#000000;stroke-width:2.25;stroke-linecap:round;stroke-linejoin:round;stroke-miterlimit:4;stroke-dasharray:none;stroke-opacity:1" id="path1894" />
         </g>
         <g id="g1896" transform="scale(1,-1)" style="stroke-width:2.25;stroke-miterlimit:4;stroke-dasharray:none">
            <path d="m 1054.922,-318.684 c 0,0.645 1.367,1.395 0.961,2.106 -1.043,0.504 0.922,0.742 1.433,0.715 1.125,0.175 2.254,0.379 3.395,0.429 1.219,0.243 2.441,0.461 3.691,0.438 0.407,0.105 1.371,-0.024 1.391,-0.141 0.66,-0.621 -0.426,-1.277 0.074,-1.269" style="fill:none;stroke:#000000;stroke-width:2.25;stroke-linecap:round;stroke-linejoin:round;stroke-miterlimit:4;stroke-dasharray:none;stroke-opacity:1" id="path1898" />
         </g>
         <g id="g1900" transform="scale(1,-1)" style="stroke-width:2.25;stroke-miterlimit:4;stroke-dasharray:none">
            <path d="m 1065.824,-316.09 c 8.324,1.25 34.274,5.11 40.758,5.871" style="fill:none;stroke:#000000;stroke-width:2.25;stroke-linecap:round;stroke-linejoin:round;stroke-miterlimit:4;stroke-dasharray:none;stroke-opacity:1" id="path1902" />
         </g>
         <g id="g1904" transform="scale(1,-1)" style="stroke-width:2.25;stroke-miterlimit:4;stroke-dasharray:none">
            <path d="m 1106.867,-310.125 c 17.149,2.23 43.981,6.852 52.02,8.16" style="fill:none;stroke:#000000;stroke-width:2.25;stroke-linecap:round;stroke-linejoin:round;stroke-miterlimit:4;stroke-dasharray:none;stroke-opacity:1" id="path1906" />
         </g>
         <g id="g1908" transform="scale(1,-1)" style="stroke-width:2.25;stroke-miterlimit:4;stroke-dasharray:none">
            <path d="m 1152.262,-302.988 c -0.821,-3.02 -3.957,-7.016 -4.969,-9.969 -1.738,-3.098 -4.105,-6.863 -7.781,-7.301 -3.555,-1.347 -6.18,1.352 -9.485,1.973 -4.246,1.265 -8.707,1.531 -13.097,1.824 -3.071,-0.269 -6.961,-0.449 -7.996,3.262 -0.536,0.695 -1.168,1.402 -1.309,2.304" style="fill:none;stroke:#000000;stroke-width:2.25;stroke-linecap:round;stroke-linejoin:round;stroke-miterlimit:4;stroke-dasharray:none;stroke-opacity:1" id="path1910" />
         </g>
         <g id="g1912" transform="scale(1,-1)" style="stroke-width:2.25;stroke-miterlimit:4;stroke-dasharray:none">
            <path d="m 1088.363,-319.117 c 0.266,-0.02 0.059,-0.281 -0.066,-0.031 -0.313,0.101 -0.969,0.117 -0.578,0.574 -0.176,0.512 0.289,0.918 0.648,1.195 0.332,0.168 0.66,-0.094 0.535,-0.391 0.301,-0.48 -0.172,-1.011 -0.554,-1.199 -0.66,-0.14 -0.77,0.606 -0.11,0.707 0.59,0.219 0.903,-0.398 1.36,-0.574" style="fill:none;stroke:#000000;stroke-width:2.25;stroke-linecap:round;stroke-linejoin:round;stroke-miterlimit:4;stroke-dasharray:none;stroke-opacity:1" id="path1914" />
         </g>
         <g id="g1916" transform="scale(1,-1)" style="stroke-width:2.25;stroke-miterlimit:4;stroke-dasharray:none">
            <path d="m 1078.172,-315.785 c -0.328,-2.789 -2.125,-6.309 -2.906,-9.277 -0.727,-2.411 -0.723,-4.868 -0.637,-7.411 -1.645,-2.019 -5.848,-0.496 -7.102,-3.285 -2.14,-2.445 -1.433,-5.75 -1.57,-8.664 0.141,-3.453 -0.098,-7.262 0.27,-10.906 -0.305,-4.617 0.011,-9.371 -0.184,-13.949 -0.039,-3.414 0.152,-6.121 0.074,-9.325 0.059,-2.593 -1.047,-5.699 -0.527,-8.039 -0.512,0.5 -0.012,-0.136 0.14,-0.031" style="fill:none;stroke:#000000;stroke-width:2.25;stroke-linecap:round;stroke-linejoin:round;stroke-miterlimit:4;stroke-dasharray:none;stroke-opacity:1" id="path1918" />
         </g>
         <g id="g1920" transform="scale(1,-1)" style="stroke-width:2.25;stroke-miterlimit:4;stroke-dasharray:none">
            <path d="m 1057.629,-388.16 c -0.883,2.195 0.457,6.414 -0.024,9.383 0.122,5.047 -1.636,9.824 -1.043,14.875 -0.554,3.961 -0.265,7.863 -0.621,11.703 0.196,2.539 0.102,5.277 0.414,7.769 -0.261,2.039 -1.007,4.082 -1.468,5.875 -2.629,3.059 -8.239,0.981 -11.871,0.547 -2.68,-1.504 -8.5,-4.574 -9.664,-0.242 -1.114,3.32 -2.821,6.449 -3.379,9.906 -0.332,1.817 -1.832,2.821 -1.043,4.598" style="fill:none;stroke:#000000;stroke-width:2.25;stroke-linecap:round;stroke-linejoin:round;stroke-miterlimit:4;stroke-dasharray:none;stroke-opacity:1" id="path1922" />
         </g>
         <g id="g1924" transform="scale(1,-1)" style="stroke-width:2.25;stroke-miterlimit:4;stroke-dasharray:none">
            <path d="m 1051.594,-346.508 c -1.043,-1.738 -2.856,1.281 -3.606,2.074 -1.004,2.309 1.598,5.118 3.922,3.856 1.36,-0.711 3.004,-2.094 2.664,-3.805 -0.512,-1.629 -2.355,-2.203 -3.601,-3.176 -1.575,-1.089 -2.782,0.774 -3.149,2.114 -0.719,1.668 0.879,4.359 2.871,3.621 1.59,-0.586 3.532,-1.817 3.434,-3.738 -0.828,-1.528 -2.551,-2.637 -4.262,-3.051 -2.156,-0.657 -2.512,2.312 -2.539,3.785 0.395,2.496 3.41,3.047 5.156,1.547 1.563,-0.672 2.817,-2.531 1.578,-4.078 -1.109,-1.391 -3.265,-1.547 -4.878,-1.118 -2.129,0.622 -1.996,3.344 -1.286,4.993 0.661,1.902 3.2,1.644 4.442,0.5 1.43,-0.856 2.422,-3.328 0.793,-4.469 -1.77,-1.129 -3.531,0.449 -4.571,1.805 -1.371,1.476 0.211,3.996 2.157,3.429 1.836,-0.258 3.945,-2.375 2.855,-4.261 -0.461,-0.563 -1.187,-1.071 -1.953,-0.848" style="fill:none;stroke:#000000;stroke-width:2.25;stroke-linecap:round;stroke-linejoin:round;stroke-miterlimit:4;stroke-dasharray:none;stroke-opacity:1" id="path1926" />
         </g>
         <g id="g1928" transform="scale(1,-1)" style="stroke-width:2.25;stroke-miterlimit:4;stroke-dasharray:none">
            <path d="m 1050.848,-357.316 c -1.84,1.074 1.129,3.441 0.957,1.254 -1.551,-0.758 -3.688,1.531 -1.184,1.867 1.957,0.359 0.914,-2.422 -0.594,-1.188 -1.039,0.582 1.422,0.621 0.231,0.141 0.441,0.07 0.062,-0.324 0.047,0.019" style="fill:none;stroke:#000000;stroke-width:2.25;stroke-linecap:round;stroke-linejoin:round;stroke-miterlimit:4;stroke-dasharray:none;stroke-opacity:1" id="path1930" />
         </g>
         <g id="g1932" transform="scale(1,-1)" style="stroke-width:2.25;stroke-miterlimit:4;stroke-dasharray:none">
            <path d="m 1056.27,-336.949 c 2.898,0.988 6.058,0.797 8.941,1.844" style="fill:none;stroke:#000000;stroke-width:2.25;stroke-linecap:round;stroke-linejoin:round;stroke-miterlimit:4;stroke-dasharray:none;stroke-opacity:1" id="path1934" />
         </g>
         <g id="g1936" transform="scale(1,-1)" style="stroke-width:2.25;stroke-miterlimit:4;stroke-dasharray:none">
            <path d="m 1034.98,-334.066 c 5.372,0.777 22.325,3.336 32.813,4.949" style="fill:none;stroke:#000000;stroke-width:2.25;stroke-linecap:round;stroke-linejoin:round;stroke-miterlimit:4;stroke-dasharray:none;stroke-opacity:1" id="path1938" />
         </g>
         <g id="g1940" transform="scale(1,-1)" style="stroke-width:2.25;stroke-miterlimit:4;stroke-dasharray:none">
            <path d="m 975.227,-337.184 c -1.504,-0.976 -0.504,1.938 0.187,0.395 1.332,-1.539 -2.414,-1.691 -1.301,-0.246 0.262,1.781 2.969,0.09 1.227,-0.68 l -0.383,-0.015 -0.371,0.015" style="fill:none;stroke:#000000;stroke-width:2.25;stroke-linecap:round;stroke-linejoin:round;stroke-miterlimit:4;stroke-dasharray:none;stroke-opacity:1" id="path1942" />
         </g>
         <g id="g1944" transform="scale(1,-1)" style="stroke-width:2.25;stroke-miterlimit:4;stroke-dasharray:none">
            <path d="m 961.656,-343.84 c -0.734,-0.41 -3.429,-0.109 -2.847,0.762 0.625,1.289 3.562,1.047 3.953,-0.027 0.363,-1.504 -2.422,-1.172 -3.11,-0.293 -1.601,2.039 1.922,1.156 2.559,0.496 l -0.16,0.05 -0.172,-0.039" style="fill:none;stroke:#000000;stroke-width:2.25;stroke-linecap:round;stroke-linejoin:round;stroke-miterlimit:4;stroke-dasharray:none;stroke-opacity:1" id="path1946" />
         </g>
         <g id="g1948" transform="scale(1,-1)" style="stroke-width:2.25;stroke-miterlimit:4;stroke-dasharray:none">
            <path d="m 948.504,-340.312 c 0.027,-0.864 -1.109,-0.067 0.219,-0.422 1.437,-0.11 3.168,0.597 4.328,0.496 -0.301,-0.86 0.226,-2.535 0.176,-3.754 0.16,-0.93 0.132,-2.012 -0.477,-2.481 -1.094,-0.609 -2.137,-1.179 -3.422,-1.16 -0.914,-0.203 -0.66,1.457 -0.797,2.266 -0.176,1.508 -0.121,2.965 -0.343,3.965 -0.02,0.554 -0.141,0.246 0.027,0.957 -0.203,-0.075 -0.117,0.129 0.113,-0.258" style="fill:none;stroke:#000000;stroke-width:2.25;stroke-linecap:round;stroke-linejoin:round;stroke-miterlimit:4;stroke-dasharray:none;stroke-opacity:1" id="path1950" />
         </g>
         <g id="g1952" transform="scale(1,-1)" style="stroke-width:2.25;stroke-miterlimit:4;stroke-dasharray:none">
            <path d="m 954.309,-436.285 c 1.312,-0.692 -1.997,0.754 0.933,1.129 3.004,-2.406 -3.554,-1.235 0.324,0.14 2.852,0.723 1.559,-3.035 -0.406,-1.277" style="fill:none;stroke:#000000;stroke-width:2.25;stroke-linecap:round;stroke-linejoin:round;stroke-miterlimit:4;stroke-dasharray:none;stroke-opacity:1" id="path1954" />
         </g>
         <g id="g1956" transform="scale(1,-1)" style="stroke-width:2.25;stroke-miterlimit:4;stroke-dasharray:none">
            <path d="m 949.238,-430.488 c 15.149,3.058 29.969,5.457 44.61,7.566 -0.137,0.012 -0.43,0.098 -0.438,-0.125" style="fill:none;stroke:#000000;stroke-width:2.25;stroke-linecap:round;stroke-linejoin:round;stroke-miterlimit:4;stroke-dasharray:none;stroke-opacity:1" id="path1958" />
         </g>
         <g id="g1960" transform="scale(1,-1)" style="stroke-width:2.25;stroke-miterlimit:4;stroke-dasharray:none">
            <path d="m 961.23,-441.598 c 0.606,1.071 -0.738,5.106 -0.832,7.098 -0.199,0.633 0.094,1.469 -0.359,1.973" style="fill:none;stroke:#000000;stroke-width:2.25;stroke-linecap:round;stroke-linejoin:round;stroke-miterlimit:4;stroke-dasharray:none;stroke-opacity:1" id="path1962" />
         </g>
         <g id="g1964" transform="scale(1,-1)" style="stroke-width:2.25;stroke-miterlimit:4;stroke-dasharray:none">
            <path d="m 959.004,-423.879 c -0.149,3.254 -1.399,6.688 -1.875,10.094 0.652,2.539 -0.996,4.969 0.234,7.226 2.149,-0.421 6.016,0.985 8.785,1.172 2.668,0.305 6.508,0.782 8.383,1.684" style="fill:none;stroke:#000000;stroke-width:2.25;stroke-linecap:round;stroke-linejoin:round;stroke-miterlimit:4;stroke-dasharray:none;stroke-opacity:1" id="path1966" />
         </g>
         <g id="g1968" transform="scale(1,-1)" style="stroke-width:2.25;stroke-miterlimit:4;stroke-dasharray:none">
            <path d="m 974.164,-404.555 c 3.406,-1.656 6.496,-4.738 10.563,-4.355 5.57,-0.738 11.183,0.195 16.648,1.265 -0.109,0.094 -0.238,0.071 -0.367,0.067" style="fill:none;stroke:#000000;stroke-width:2.25;stroke-linecap:round;stroke-linejoin:round;stroke-miterlimit:4;stroke-dasharray:none;stroke-opacity:1" id="path1970" />
         </g>
         <g id="g1972" transform="scale(1,-1)" style="stroke-width:2.25;stroke-miterlimit:4;stroke-dasharray:none">
            <path d="m 972.965,-401.559 c -3.094,4.993 -4.024,11.758 -0.981,16.985 2.602,4.316 5.934,8.484 10.625,10.617 3.579,2.289 7.934,2.91 12.106,2.59 5.73,-0.09 12.086,-0.781 16.383,-4.996 2.832,-3.785 5.605,-8.43 4.574,-13.364 -0.328,-2.968 -1.715,-6.191 -4.473,-7.644" style="fill:none;stroke:#000000;stroke-width:2.25;stroke-linecap:round;stroke-linejoin:round;stroke-miterlimit:4;stroke-dasharray:none;stroke-opacity:1" id="path1974" />
         </g>
         <g id="g1976" transform="scale(1,-1)" style="stroke-width:2.25;stroke-miterlimit:4;stroke-dasharray:none">
            <path d="m 1003.336,-403.504 c -1.566,-1.383 -3.008,-3.316 -5.191,-3.656 l -0.333,0.047 -0.3,0.136" style="fill:none;stroke:#000000;stroke-width:2.25;stroke-linecap:round;stroke-linejoin:round;stroke-miterlimit:4;stroke-dasharray:none;stroke-opacity:1" id="path1978" />
         </g>
         <g id="g1980" transform="scale(1,-1)" style="stroke-width:2.25;stroke-miterlimit:4;stroke-dasharray:none">
            <path d="m 998.719,-378.453 0.011,-0.004 h 0.032 l 0.027,-0.004 0.035,0.031 0.035,-0.023 0.008,-0.02 v -0.004 l 0.024,0.004 0.027,-0.007 0.004,-0.004 v -0.02 0.012 l -0.051,0.008 -0.035,0.007 0.035,-0.015 -0.004,-0.016 -0.008,0.051 -0.031,0.019 -0.047,-0.003 -0.008,-0.024 0.043,-0.004 -0.007,0.031 -0.032,-0.007 v -0.032 l 0.063,-0.007 0.086,0.019 -0.055,-0.031 -0.066,-0.012 h 0.011 l -0.007,-0.031 -0.008,0.004 h -0.071 0.004 v 0.012 l -0.004,0.023 0.004,0.02 0.102,-0.004 h 0.074 l -0.066,0.004 -0.039,0.003 -0.012,0.004 -0.008,-0.027 -0.008,-0.039 0.082,0.019 -0.027,-0.011 -0.082,-0.016 0.02,-0.039 -0.012,-0.016 -0.028,0.008 0.004,-0.019 -0.027,0.011 -0.059,0.012 v 0.004 l -0.007,0.024 -0.004,0.019 h 0.008 l 0.05,-0.016 0.047,-0.007 -0.047,-0.004 h -0.047 l -0.007,0.011 -0.024,-0.023 -0.008,-0.02 -0.007,-0.003 -0.004,-0.02 -0.004,0.004 -0.063,-0.016 0.004,-0.008 0.027,-0.027 0.004,-0.023 0.02,-0.024 0.008,-0.019 -0.008,-0.012 0.008,-0.008 0.015,-0.008 0.02,-0.011 v 0.004 l 0.012,-0.016 0.039,-0.027 0.117,-0.02 -0.016,-0.008 -0.066,-0.008 -0.02,-0.019 -0.019,-0.016 -0.012,-0.031 0.106,-0.016 0.066,-0.011 -0.086,-0.02 -0.023,-0.027 -0.02,-0.008 -0.019,0.004 0.132,-0.027 0.145,-0.012 -0.094,-0.004 -0.101,-0.02 -0.02,-0.039 -0.023,-0.05 -0.024,-0.059 0.024,-0.008 -0.004,-0.031 -0.024,-0.016 0.012,-0.031 0.008,-0.019 0.011,-0.036 0.028,-0.039 -0.012,-0.011 -0.039,-0.024 0.035,-0.027 0.024,-0.031 0.039,-0.036 -0.008,-0.031 0.055,-0.012 0.023,-0.023 -0.016,-0.023 v -0.075 l 0.016,-0.035 0.004,-0.015 0.019,-0.043 0.024,-0.032 0.027,-0.035 0.016,-0.035 -0.008,-0.027 v -0.032 l 0.027,-0.015 0.032,-0.028 0.031,-0.05 0.035,0.007 0.016,-0.015 0.062,-0.043 0.024,-0.035 -0.008,-0.028 -0.004,-0.031 -0.016,-0.027 -0.011,-0.035 0.027,-0.016 0.016,-0.027 -0.016,-0.051 -0.039,-0.031 -0.004,-0.047 -0.016,-0.078 -0.054,-0.051 0.015,-0.047 0.074,-0.039 0.024,-0.051 0.039,-0.058 0.035,-0.036 0.133,-0.035 0.207,-0.035 -0.016,-0.031 -0.078,-0.047 -0.012,-0.066 v -0.059 l -0.058,0.004 -0.027,-0.039 0.046,-0.02 0.008,-0.031 0.008,-0.035 0.016,-0.004 0.097,-0.012 0.043,-0.039 -0.047,-0.012 0.012,-0.019 h -0.004 l 0.012,-0.027 0.004,-0.036 0.066,0.004 0.024,-0.019 -0.032,-0.02 0.012,-0.023 0.012,-0.02 0.043,-0.011 -0.012,-0.004 -0.027,-0.004 0.019,-0.016 0.032,-0.019 0.05,-0.008 0.055,-0.008 0.023,-0.035 0.016,-0.035 0.035,-0.028 0.035,-0.035 0.02,-0.039 0.035,-0.019 0.043,-0.028 0.094,-0.051 0.066,-0.05 v -0.032 l 0.028,-0.019 0.019,-0.024 0.047,-0.035 -0.012,-0.011 v -0.024 l 0.028,-0.023 0.043,-0.012 0.043,-0.031 0.035,0.015 0.027,-0.011 -0.031,-0.047 0.015,-0.02 0.059,-0.023 0.023,-0.028 0.032,-0.043 0.027,-0.027 h 0.066 l 0.149,-0.019 0.012,-0.032 -0.055,-0.004 -0.012,-0.003 0.016,-0.032 0.023,-0.019 h -0.133 l -0.054,-0.051 0.168,-0.004 h 0.125 l 0.07,-0.027 0.043,0.004 0.18,-0.016 0.136,-0.051 -0.027,-0.008 0.02,-0.023 0.019,-0.004 0.02,-0.016 0.011,-0.035 -0.015,-0.011 h -0.01 l 0.023,-0.016 0.032,-0.02 0.047,-0.011 0.046,-0.008 0.043,-0.004 h 0.012 l 0.012,-0.016 0.058,-0.004 0.047,-0.003 0.086,-0.004 0.055,-0.02 0.058,-0.004 0.047,-0.004 0.039,-0.019 0.02,-0.004 0.043,-0.004 h 0.078 l 0.023,-0.008 0.016,-0.008 0.035,-0.004 0.051,-0.004 0.02,-0.027 0.031,-0.023 0.054,-0.012 0.11,-0.008 0.082,-0.004 0.055,0.016 0.043,0.004 0.027,-0.008 0.047,-0.004 h 0.031 l 0.035,-0.031 0.055,-0.031 0.035,0.019 h 0.141 l -0.016,0.004 -0.012,-0.012 -0.011,0.008 h -0.184 l -0.051,-0.012 0.094,-0.027 0.012,-0.012 v -0.004 l 0.062,0.004 0.113,-0.007 v 0.011 l -0.039,0.008 -0.027,-0.019 h -0.019 l -0.137,0.023 -0.11,0.012 0.075,-0.008 0.011,0.004 0.016,0.004 0.012,0.023 0.058,0.008 v -0.008 l -0.039,-0.012 h 0.035 l 0.012,-0.003 0.016,0.003 -0.016,0.008 0.067,-0.019 0.039,-0.012 -0.028,-0.016 -0.01,-0.011 v -0.02 l 0.016,-0.031 0.055,-0.016 v -0.015 l -0.012,-0.008 0.023,-0.02 0.024,-0.011 0.012,-0.02 -0.024,-0.004 -0.035,-0.016 v -0.003 l 0.035,-0.004 0.012,-0.016 0.01,0.02 v 0.031 l 0.011,0.012 h 0.012 l 0.01,-0.004 h -0.016 l -0.011,-0.012 v -0.008 l -0.047,0.004 -0.063,-0.012 0.047,0.004 h 0.031 l 0.012,0.02 0.01,-0.008 v 0.012 l -0.129,-0.004 h -0.016 0.106 -0.024 l -0.015,-0.028 v 0.012 l 0.035,0.008 h 0.094 -0.012 l -0.047,0.004 -0.01,-0.012 -0.011,-0.008 -0.125,0.012 -0.086,-0.027 0.082,-0.004 0.011,-0.024 0.012,-0.027 h 0.01 l 0.027,0.008 0.024,0.008 0.011,-0.004 -0.01,-0.008 0.01,-0.008 -0.031,0.016 -0.039,-0.008 -0.012,-0.035 0.02,-0.047 v -0.028 l 0.023,0.04 0.024,-0.008 -0.024,0.004 -0.035,0.004 -0.015,0.011 -0.028,0.012 -0.027,-0.004 0.01,0.004 h 0.023 l -0.027,0.004 -0.028,-0.02 h -0.011 l -0.01,0.008 -0.02,-0.008 -0.01,-0.007 -0.036,-0.004 -0.01,-0.008 h -0.079 l -0.14,0.004 0.023,-0.008 0.055,-0.008 0.019,0.012 h 0.02 l 0.012,0.019 -0.039,-0.015 -0.043,-0.008 0.047,0.008 v -0.016 l 0.01,-0.019 0.075,-0.008 0.054,-0.004 -0.031,0.004 -0.012,-0.016 -0.011,0.004 h -0.016 l -0.133,0.008 -0.058,-0.024 0.066,-0.003 0.01,-0.02 0.012,-0.008 0.01,0.008 0.071,0.004 h 0.062 l -0.012,0.008 -0.039,0.019 h -0.031 l -0.023,0.012 -0.078,0.004 -0.075,0.004 v 0.011 l -0.011,0.016 -0.024,-0.023 -0.027,0.011 -0.047,0.004 -0.043,0.004 h -0.062 l -0.04,0.004 -0.019,-0.008 -0.012,0.008 -0.01,-0.008 h -0.019 v -0.027 l -0.016,-0.016 -0.019,0.024 v 0.004 h 0.011 l 0.01,-0.004 0.012,-0.012 0.027,0.008 -0.07,0.004 -0.152,0.008 0.035,-0.008 0.062,0.008 0.024,0.019 0.023,-0.004 0.016,0.024 0.027,0.007 0.027,-0.007 0.012,0.004 0.016,0.023 h 0.012 v 0.004 l -0.063,-0.008 -0.059,0.012 0.051,-0.012 h 0.012 l 0.01,-0.004 v -0.004 l -0.024,-0.004 -0.019,-0.007 0.011,-0.004 h -0.062 l 0.012,-0.004 0.05,-0.02 -0.019,0.008 -0.059,0.016 -0.043,-0.004 -0.027,-0.008 -0.027,-0.012 -0.098,0.016 -0.074,0.004 v -0.004 l -0.01,0.015 -0.031,-0.003 h -0.031 l -0.016,0.027 -0.027,-0.016 -0.02,-0.004 -0.01,0.016 -0.027,-0.016 -0.012,-0.004 v -0.003 l -0.035,-0.004 h -0.027 l -0.024,0.015 -0.011,-0.027 -0.024,-0.008 -0.062,0.016 h -0.04 v 0.008 l 0.01,-0.008 0.012,0.039 -0.012,-0.004 -0.07,-0.004 -0.023,-0.004 0.031,-0.012 0.012,0.008 0.011,0.004 v 0.004 l 0.043,-0.012 0.016,0.024 -0.047,-0.016 v -0.027 l 0.039,0.008 0.012,-0.02 -0.086,0.004 -0.129,0.004 v -0.004 l 0.051,-0.012 0.015,0.02 0.016,0.031 0.012,0.008 0.043,-0.028 h 0.058 v 0.004 l 0.024,-0.015 0.09,0.011 -0.024,-0.011 -0.059,-0.012 -0.039,-0.035 -0.015,0.027 v 0.02 l -0.01,0.004 -0.012,0.015 h -0.011 v 0.008 0.016 l -0.015,0.004" style="fill:none;stroke:#000000;stroke-width:2.25;stroke-linecap:round;stroke-linejoin:round;stroke-miterlimit:4;stroke-dasharray:none;stroke-opacity:1" id="path1982" />
         </g>
         <g id="g1984" transform="scale(1,-1)" style="stroke-width:2.25;stroke-miterlimit:4;stroke-dasharray:none">
            <path d="m 1002.719,-388.293 c 0.086,0.645 -0.867,0.848 -1.145,1.414 -0.59,0.52 -0.512,1.332 -1.195,1.809 -0.719,0.668 -1.457,1.312 -2.055,2.09 -0.394,0.273 -0.742,0.941 -0.738,0.835" style="fill:none;stroke:#000000;stroke-width:2.25;stroke-linecap:round;stroke-linejoin:round;stroke-miterlimit:4;stroke-dasharray:none;stroke-opacity:1" id="path1986" />
         </g>
         <g id="g1988" transform="scale(1,-1)" style="stroke-width:2.25;stroke-miterlimit:4;stroke-dasharray:none">
            <path d="m 996.82,-393.543 c -0.8,0.922 -1.324,2.484 -1.886,3.723 -0.485,1.629 -1.317,3.203 -2.325,4.558 l 0.149,0.071" style="fill:none;stroke:#000000;stroke-width:2.25;stroke-linecap:round;stroke-linejoin:round;stroke-miterlimit:4;stroke-dasharray:none;stroke-opacity:1" id="path1990" />
         </g>
         <g id="g1992" transform="scale(1,-1)" style="stroke-width:2.25;stroke-miterlimit:4;stroke-dasharray:none">
            <path d="m 990.102,-395.32 c -0.438,-0.258 -0.684,2.281 -1.18,3.07 -0.543,1.516 -1.625,2.797 -2.063,4.348 -0.093,0.332 -0.48,0.707 -0.75,1.019" style="fill:none;stroke:#000000;stroke-width:2.25;stroke-linecap:round;stroke-linejoin:round;stroke-miterlimit:4;stroke-dasharray:none;stroke-opacity:1" id="path1994" />
         </g>
         <g id="g1996" transform="scale(1,-1)" style="stroke-width:2.25;stroke-miterlimit:4;stroke-dasharray:none">
            <path d="m 984.473,-392.781 -0.032,-0.035 -0.07,-0.114 0.047,-0.16 -0.055,-0.144 -0.004,-0.192 -0.004,-0.066 0.004,-0.063 0.02,-0.011 0.012,-0.004 v -0.008 h -0.036 l 0.02,0.012 0.02,0.015 -0.075,0.035 -0.074,0.047 0.055,0.051 0.047,0.059 0.011,0.05 0.02,0.047 v 0.071 l -0.035,0.043 -0.008,0.089 0.039,0.063 0.027,0.074 0.016,0.055 0.027,0.055 -0.004,0.058 0.008,0.047 0.039,0.059 0.043,0.046 0.016,0.032 0.031,0.039 0.059,0.043 0.031,0.066 -0.008,0.043 -0.008,0.035 0.024,0.047 0.023,0.012 -0.054,0.023 -0.09,0.032 0.035,0.031 0.078,0.035 0.027,0.055 0.004,0.027 0.043,0.027 0.012,0.032 -0.02,0.023 -0.007,0.031 0.015,0.008 v 0.02 l -0.078,0.031 0.039,0.031 0.09,0.008 -0.031,0.043 -0.016,0.047 0.012,0.062 -0.028,0.051 -0.144,0.008 -0.063,0.051 0.094,0.011 -0.012,0.036 0.012,0.019 0.008,0.02 -0.008,0.05 v 0.008 l 0.047,0.031 -0.043,0.024 -0.043,0.039 -0.027,0.043 -0.117,0.105" style="fill:none;stroke:#000000;stroke-width:2.25;stroke-linecap:round;stroke-linejoin:round;stroke-miterlimit:4;stroke-dasharray:none;stroke-opacity:1" id="path1998" />
         </g>
         <g id="g2000" transform="scale(1,-1)" style="stroke-width:2.25;stroke-miterlimit:4;stroke-dasharray:none">
            <path d="m 983.762,-386.141 c -0.379,1.84 2.25,2.329 2.976,3.844 1.563,3.238 5.789,3.258 8.875,4.098 0.692,-0.145 1.293,-0.524 1.942,-0.778" style="fill:none;stroke:#000000;stroke-width:2.25;stroke-linecap:round;stroke-linejoin:round;stroke-miterlimit:4;stroke-dasharray:none;stroke-opacity:1" id="path2002" />
         </g>
         <g id="g2004" transform="scale(1,-1)" style="stroke-width:2.25;stroke-miterlimit:4;stroke-dasharray:none">
            <path d="m 981.754,-388.043 c 0.93,-0.281 -0.352,-1.789 0.375,-2.609 0.117,-0.321 0.269,-0.633 0.293,-0.977" style="fill:none;stroke:#000000;stroke-width:2.25;stroke-linecap:round;stroke-linejoin:round;stroke-miterlimit:4;stroke-dasharray:none;stroke-opacity:1" id="path2006" />
         </g>
         <g id="g2008" transform="scale(1,-1)" style="stroke-width:2.25;stroke-miterlimit:4;stroke-dasharray:none">
            <path d="m 984.195,-394.082 c 0.989,0.668 2.657,-0.301 3.145,-1.559 -0.055,-0.257 0.644,-0.054 0.719,0.055" style="fill:none;stroke:#000000;stroke-width:2.25;stroke-linecap:round;stroke-linejoin:round;stroke-miterlimit:4;stroke-dasharray:none;stroke-opacity:1" id="path2010" />
         </g>
         <g id="g2012" transform="scale(1,-1)" style="stroke-width:2.25;stroke-miterlimit:4;stroke-dasharray:none">
            <path d="m 991.434,-395.344 c 0.406,0.149 2.203,0.442 2.656,1.242" style="fill:none;stroke:#000000;stroke-width:2.25;stroke-linecap:round;stroke-linejoin:round;stroke-miterlimit:4;stroke-dasharray:none;stroke-opacity:1" id="path2014" />
         </g>
         <g id="g2016" transform="scale(1,-1)" style="stroke-width:2.25;stroke-miterlimit:4;stroke-dasharray:none">
            <path d="m 997.191,-392.719 c 0.231,0.102 1.629,1.375 2.172,1.805" style="fill:none;stroke:#000000;stroke-width:2.25;stroke-linecap:round;stroke-linejoin:round;stroke-miterlimit:4;stroke-dasharray:none;stroke-opacity:1" id="path2018" />
         </g>
         <g id="g2020" transform="scale(1,-1)" style="stroke-width:2.25;stroke-miterlimit:4;stroke-dasharray:none">
            <path d="m 1002.594,-387.539 c 0.011,-0.285 0.539,-0.207 0.179,-0.199 0.172,0.047 0.122,0.742 0.372,1.011 -0.145,0.555 0.285,1.313 -0.184,1.887 0.414,0.289 0.016,0.149 -0.098,0.402" style="fill:none;stroke:#000000;stroke-width:2.25;stroke-linecap:round;stroke-linejoin:round;stroke-miterlimit:4;stroke-dasharray:none;stroke-opacity:1" id="path2022" />
         </g>
         <g id="g2024" transform="scale(1,-1)" style="stroke-width:2.25;stroke-miterlimit:4;stroke-dasharray:none">
            <path d="m 982.828,-379.777 c 0.383,-0.231 -2.476,-0.899 -2.922,-2.203 -2.613,-2.34 -3.039,-5.801 -3.23,-9.102 0.543,-3.059 1.664,-6.184 4.426,-7.969 4.269,-2.961 9.918,-2.355 14.527,-0.66 3.23,0.434 5.715,2.688 8.394,4.352 1.606,1.808 4.801,4.191 4.192,6.816" style="fill:none;stroke:#000000;stroke-width:2.25;stroke-linecap:round;stroke-linejoin:round;stroke-miterlimit:4;stroke-dasharray:none;stroke-opacity:1" id="path2026" />
         </g>
         <g id="g2028" transform="scale(1,-1)" style="stroke-width:2.25;stroke-miterlimit:4;stroke-dasharray:none">
            <path d="m 1008.668,-384.699 c -1.387,2.965 -3.836,5.156 -6.055,7.418 -0.5,0.336 -0.925,0.836 -1.476,1.035" style="fill:none;stroke:#000000;stroke-width:2.25;stroke-linecap:round;stroke-linejoin:round;stroke-miterlimit:4;stroke-dasharray:none;stroke-opacity:1" id="path2030" />
         </g>
         <g id="g2032" transform="scale(1,-1)" style="stroke-width:2.25;stroke-miterlimit:4;stroke-dasharray:none">
            <path d="m 1087.371,-382.328 c -3.82,2.168 -3.465,7.398 -3.801,11.199 0.399,5.922 4.032,11.109 8.746,14.496 4.219,3.215 9.043,6.836 14.68,6.047 5.793,-0.133 13.086,-1.363 15.391,-7.527 3.406,-5.938 0.605,-13.434 -4.809,-17.012" style="fill:none;stroke:#000000;stroke-width:2.25;stroke-linecap:round;stroke-linejoin:round;stroke-miterlimit:4;stroke-dasharray:none;stroke-opacity:1" id="path2034" />
         </g>
         <g id="g2036" transform="scale(1,-1)" style="stroke-width:2.25;stroke-miterlimit:4;stroke-dasharray:none">
            <path d="m 1111.742,-376.684 c 2.914,2.68 5.043,6.223 6.485,9.872 0.546,3.484 -0.7,7.371 -3.196,9.863 -3.738,3.261 -9.426,2.558 -13.359,0.031 -3.586,-2.078 -7.449,-4.078 -9.981,-7.457 -1.89,-3.574 -2.621,-8.32 -1.277,-12.184 1.059,-1.488 3.379,-2.777 5.18,-2.632" style="fill:none;stroke:#000000;stroke-width:2.25;stroke-linecap:round;stroke-linejoin:round;stroke-miterlimit:4;stroke-dasharray:none;stroke-opacity:1" id="path2038" />
         </g>
         <g id="g2040" transform="scale(1,-1)" style="stroke-width:2.25;stroke-miterlimit:4;stroke-dasharray:none">
            <path d="m 1096.008,-362.977 c -1.363,0.34 1.465,-0.175 1.797,0.391 1.164,1.395 3.254,1.41 3.769,3.402 1.336,1.582 3.738,-1.246 5.289,0.539 1.348,1.223 3.008,0.559 2.449,-1.238 0.653,-0.441 2.77,-1.617 2.313,-2.051 -0.258,0.032 -0.578,0.051 -0.742,0.286" style="fill:none;stroke:#000000;stroke-width:2.25;stroke-linecap:round;stroke-linejoin:round;stroke-miterlimit:4;stroke-dasharray:none;stroke-opacity:1" id="path2042" />
         </g>
         <g id="g2044" transform="scale(1,-1)" style="stroke-width:2.25;stroke-miterlimit:4;stroke-dasharray:none">
            <path d="m 1106.109,-362.473 c -0.5,0.899 1.305,-0.972 1.633,-1.257 1.281,-1.305 2.5,-2.719 4.055,-3.708 -0.207,0.094 -0.434,0.262 -0.68,0.2" style="fill:none;stroke:#000000;stroke-width:2.25;stroke-linecap:round;stroke-linejoin:round;stroke-miterlimit:4;stroke-dasharray:none;stroke-opacity:1" id="path2046" />
         </g>
         <g id="g2048" transform="scale(1,-1)" style="stroke-width:2.25;stroke-miterlimit:4;stroke-dasharray:none">
            <path d="m 1102.035,-365.719 c -0.234,0.36 0.957,-0.843 1.07,-1.195 0.942,-0.93 1.657,-2.106 2.165,-3.313 0.191,-0.558 1.492,-1.89 1.363,-1.843 l -0.176,0.132 -0.113,0.122" style="fill:none;stroke:#000000;stroke-width:2.25;stroke-linecap:round;stroke-linejoin:round;stroke-miterlimit:4;stroke-dasharray:none;stroke-opacity:1" id="path2050" />
         </g>
         <g id="g2052" transform="scale(1,-1)" style="stroke-width:2.25;stroke-miterlimit:4;stroke-dasharray:none">
            <path d="m 1097.961,-368.473 c 0.965,-1.058 1.566,-2.39 2.457,-3.523 0.625,-1.149 1.551,-2.117 2.141,-3.281 -0.336,0.148 -0.567,0.57 -0.848,0.824" style="fill:none;stroke:#000000;stroke-width:2.25;stroke-linecap:round;stroke-linejoin:round;stroke-miterlimit:4;stroke-dasharray:none;stroke-opacity:1" id="path2054" />
         </g>
         <g id="g2056" transform="scale(1,-1)" style="stroke-width:2.25;stroke-miterlimit:4;stroke-dasharray:none">
            <path d="m 1093.824,-366.496 c 0.414,-0.039 0.449,-1.578 0.563,-1.77" style="fill:none;stroke:#000000;stroke-width:2.25;stroke-linecap:round;stroke-linejoin:round;stroke-miterlimit:4;stroke-dasharray:none;stroke-opacity:1" id="path2058" />
         </g>
         <g id="g2060" transform="scale(1,-1)" style="stroke-width:2.25;stroke-miterlimit:4;stroke-dasharray:none">
            <path d="m 1096.078,-372.434 c 0.645,-0.882 1.309,-1.964 2.508,-2.093 0.23,-0.063 0.676,-0.18 0.726,0.179" style="fill:none;stroke:#000000;stroke-width:2.25;stroke-linecap:round;stroke-linejoin:round;stroke-miterlimit:4;stroke-dasharray:none;stroke-opacity:1" id="path2062" />
         </g>
         <g id="g2064" transform="scale(1,-1)" style="stroke-width:2.25;stroke-miterlimit:4;stroke-dasharray:none">
            <path d="m 1102.723,-375.23 c 0.886,-0.809 1.695,1.015 2.402,1.375" style="fill:none;stroke:#000000;stroke-width:2.25;stroke-linecap:round;stroke-linejoin:round;stroke-miterlimit:4;stroke-dasharray:none;stroke-opacity:1" id="path2066" />
         </g>
         <g id="g2068" transform="scale(1,-1)" style="stroke-width:2.25;stroke-miterlimit:4;stroke-dasharray:none">
            <path d="m 1108.672,-371.602 c 0.832,-0.128 1.5,0.575 1.976,1.161" style="fill:none;stroke:#000000;stroke-width:2.25;stroke-linecap:round;stroke-linejoin:round;stroke-miterlimit:4;stroke-dasharray:none;stroke-opacity:1" id="path2070" />
         </g>
         <g id="g2072" transform="scale(1,-1)" style="stroke-width:2.25;stroke-miterlimit:4;stroke-dasharray:none">
            <path d="m 1112.441,-367.582 c 0.172,0.973 0.637,1.816 -0.421,2.559 l -0.098,0.339 0.012,0.364" style="fill:none;stroke:#000000;stroke-width:2.25;stroke-linecap:round;stroke-linejoin:round;stroke-miterlimit:4;stroke-dasharray:none;stroke-opacity:1" id="path2074" />
         </g>
         <g id="g2076" transform="scale(1,-1)" style="stroke-width:2.25;stroke-miterlimit:4;stroke-dasharray:none">
            <path d="m 1006.598,-401.246 c 5.882,1.41 150.629,32.113 169.164,36.441 3.566,1.051 6.347,-6.168 9.547,-8.898 0.527,-2.848 11.105,-9.442 5.199,-8.699 -2.11,-0.246 -4.356,5.691 -2.375,3.437" style="fill:none;stroke:#000000;stroke-width:2.25;stroke-linecap:round;stroke-linejoin:round;stroke-miterlimit:4;stroke-dasharray:none;stroke-opacity:1" id="path2078" />
         </g>
         <g id="g2080" transform="scale(1,-1)" style="stroke-width:2.25;stroke-miterlimit:4;stroke-dasharray:none">
            <path d="m 1192.551,-383.09 c -1.805,-8.867 -4.02,-17.59 -6.035,-25.703 -0.235,-1.191 -0.864,-2.953 0.48,-2.594 0.074,-1.941 -0.504,-4.879 -0.457,-5.457 -3.043,-1.652 -1.816,-5.511 -1.84,-8.344 0.453,-3.32 -0.48,-21.363 -2.14,-23.914 -2.497,-0.113 -5.247,-0.937 -5.637,-3.789 -2.11,-2.48 1.887,-3.293 2.812,-2.879 -1.195,0.622 -0.886,2.27 -0.226,0.153 1.222,-2.668 -1.07,-5.422 -0.86,-8.137 -0.046,-1.41 -1.273,-1.219 -1.371,-2.238" style="fill:none;stroke:#000000;stroke-width:2.25;stroke-linecap:round;stroke-linejoin:round;stroke-miterlimit:4;stroke-dasharray:none;stroke-opacity:1" id="path2082" />
         </g>
         <g id="g2084" transform="scale(1,-1)" style="stroke-width:2.25;stroke-miterlimit:4;stroke-dasharray:none">
            <path d="m 1006.23,-401.844 c 2.2,-4.5 9.09,-12.808 10.215,-15.929" style="fill:none;stroke:#000000;stroke-width:2.25;stroke-linecap:round;stroke-linejoin:round;stroke-miterlimit:4;stroke-dasharray:none;stroke-opacity:1" id="path2086" />
         </g>
         <g id="g2088" transform="scale(1,-1)" style="stroke-width:2.25;stroke-miterlimit:4;stroke-dasharray:none">
            <path d="m 1006.059,-401.602 c 0.488,-11.793 1.359,-31.582 3.211,-41.945 0.828,-8 0.515,-16.047 1.019,-24.031 1.297,-1.637 4,-12.984 0.617,-7.199 -0.426,-6.535 1.289,-13.11 4.426,-18.95 2.23,-5.175 2.59,-13.097 9.719,-13.707 50.715,12.614 127.66,34.653 149.777,40.481 0.973,-0.168 1.789,1.211 2.957,1.5" style="fill:none;stroke:#000000;stroke-width:2.25;stroke-linecap:round;stroke-linejoin:round;stroke-miterlimit:4;stroke-dasharray:none;stroke-opacity:1" id="path2090" />
         </g>
         <g id="g2092" transform="scale(1,-1)" style="stroke-width:2.25;stroke-miterlimit:4;stroke-dasharray:none">
            <path d="m 1016.41,-417.277 c 0.266,-0.297 -0.461,-0.262 0.098,-0.09 1.726,0.406 3.554,0.305 5.25,0.883 2.027,0.461 4.117,0.488 6.176,0.738 -1.246,-0.082 -2.489,-0.297 -3.735,-0.418 -1.836,-0.277 -3.527,-1.129 -5.383,-1.309 -0.515,0.008 -1.48,-0.359 -1.754,0.161" style="fill:none;stroke:#000000;stroke-width:2.25;stroke-linecap:round;stroke-linejoin:round;stroke-miterlimit:4;stroke-dasharray:none;stroke-opacity:1" id="path2094" />
         </g>
         <g id="g2096" transform="scale(1,-1)" style="stroke-width:2.25;stroke-miterlimit:4;stroke-dasharray:none">
            <path d="m 1016.797,-468.5 c -1.219,16.582 0.09,40.629 -0.442,51.457 -0.371,0.59 -0.238,1.379 -0.585,1.992" style="fill:none;stroke:#000000;stroke-width:2.25;stroke-linecap:round;stroke-linejoin:round;stroke-miterlimit:4;stroke-dasharray:none;stroke-opacity:1" id="path2098" />
         </g>
         <g id="g2100" transform="scale(1,-1)" style="stroke-width:2.25;stroke-miterlimit:4;stroke-dasharray:none">
            <path d="m 1008.832,-438.238 c -0.492,0.023 0.645,-1.555 0.738,-2.125 0.727,-1.012 1.09,-2.184 1.903,-3.149 0.504,-1.281 1.289,-2.765 2.957,-2.402 0.511,0.004 1.066,0.586 1.226,0.672" style="fill:none;stroke:#000000;stroke-width:2.25;stroke-linecap:round;stroke-linejoin:round;stroke-miterlimit:4;stroke-dasharray:none;stroke-opacity:1" id="path2102" />
         </g>
         <g id="g2104" transform="scale(1,-1)" style="stroke-width:2.25;stroke-miterlimit:4;stroke-dasharray:none">
            <path d="m 1016.469,-468.848 c 2.664,-0.636 4.172,-3.144 5.883,-5.058 0.933,-1.227 1.683,-2.696 1.656,-4.274 0.453,-1.586 -0.02,-3.355 -0.199,-4.929 -0.36,-1.137 -2.016,-3.582 -3.293,-2.555" style="fill:none;stroke:#000000;stroke-width:2.25;stroke-linecap:round;stroke-linejoin:round;stroke-miterlimit:4;stroke-dasharray:none;stroke-opacity:1" id="path2106" />
         </g>
         <g id="g2108" transform="scale(1,-1)" style="stroke-width:2.25;stroke-miterlimit:4;stroke-dasharray:none">
            <path d="m 1015.75,-483.492 c -0.707,-0.082 -1.305,-0.352 -0.199,-0.508 1.32,-0.535 1.539,-3.195 3.297,-2.445 1.039,0.672 2.09,1.468 3.402,1.133 l -0.188,0.082" style="fill:none;stroke:#000000;stroke-width:2.25;stroke-linecap:round;stroke-linejoin:round;stroke-miterlimit:4;stroke-dasharray:none;stroke-opacity:1" id="path2110" />
         </g>
         <g id="g2112" transform="scale(1,-1)" style="stroke-width:2.25;stroke-miterlimit:4;stroke-dasharray:none">
            <path d="m 1013.715,-486.207 c 1.219,-0.676 1.211,-2.602 1.953,-3.707 0.926,-1.199 1.973,-2.473 3.152,-3.359 1.309,-0.25 3.528,-0.629 3.758,1.195 -0.293,0.676 -0.289,1.476 -0.226,2.187" style="fill:none;stroke:#000000;stroke-width:2.25;stroke-linecap:round;stroke-linejoin:round;stroke-miterlimit:4;stroke-dasharray:none;stroke-opacity:1" id="path2114" />
         </g>
         <g id="g2116" transform="scale(1,-1)" style="stroke-width:2.25;stroke-miterlimit:4;stroke-dasharray:none">
            <path d="m 1026.422,-501.078 c -1.621,-0.559 -3.164,1.269 -2.047,2.672 0.949,1.636 3.309,1.004 4.109,-0.442 1,-1.664 -1.746,-2.379 -2.843,-1.617 -1.477,0.973 -0.024,3.32 1.257,3.723 1.782,0.254 2.145,-3.207 0.036,-2.149 -0.262,0.09 -0.512,0.207 -0.758,0.336" style="fill:none;stroke:#000000;stroke-width:2.25;stroke-linecap:round;stroke-linejoin:round;stroke-miterlimit:4;stroke-dasharray:none;stroke-opacity:1" id="path2118" />
         </g>
         <g id="g2120" transform="scale(1,-1)" style="stroke-width:2.25;stroke-miterlimit:4;stroke-dasharray:none">
            <path d="m 1035.043,-503.242 c -1.516,0.719 -1.652,2.695 0.246,2.902 3.109,1.61 5.953,3.879 9.426,4.719 1.656,1.117 3.918,2.383 5.883,1.297 1.398,-0.84 1.445,-2.496 0.957,-3.887" style="fill:none;stroke:#000000;stroke-width:2.25;stroke-linecap:round;stroke-linejoin:round;stroke-miterlimit:4;stroke-dasharray:none;stroke-opacity:1" id="path2122" />
         </g>
         <g id="g2124" transform="scale(1,-1)" style="stroke-width:2.25;stroke-miterlimit:4;stroke-dasharray:none">
            <path d="m 1065.047,-494.332 c -1.625,0.391 2.351,2.266 1.363,0.699 -0.211,0.133 -1.172,-0.097 -1.047,0.317" style="fill:none;stroke:#000000;stroke-width:2.25;stroke-linecap:round;stroke-linejoin:round;stroke-miterlimit:4;stroke-dasharray:none;stroke-opacity:1" id="path2126" />
         </g>
         <g id="g2128" transform="scale(1,-1)" style="stroke-width:2.25;stroke-miterlimit:4;stroke-dasharray:none">
            <path d="m 1036.68,-421.129 c -0.141,-0.016 -0.27,-0.094 -0.16,-0.047 -0.422,0.266 -0.911,0.461 -1.325,0.766 -0.711,0.301 0.071,0.961 0.145,1.351 0.418,0.325 0.855,0.571 1.387,0.61 0.464,0.23 0.996,-0.016 1.207,-0.473 0.371,-0.5 0.363,-1.156 0.23,-1.715 -0.406,-0.402 -1.086,-0.574 -1.602,-0.281 -0.472,0.188 -0.933,0.438 -1.16,0.918 -0.238,0.258 -0.574,0.988 0.071,0.645 0.496,-0.188 0.992,-0.586 1.265,-1.075 0,-0.34 0.457,-0.707 -0.082,-0.386" style="fill:none;stroke:#000000;stroke-width:2.25;stroke-linecap:round;stroke-linejoin:round;stroke-miterlimit:4;stroke-dasharray:none;stroke-opacity:1" id="path2130" />
         </g>
         <g id="g2132" transform="scale(1,-1)" style="stroke-width:2.25;stroke-miterlimit:4;stroke-dasharray:none">
            <path d="m 1029.547,-416.285 c 8.711,1.574 57.297,10.828 69.379,13.668 0.789,-0.625 0.25,0.293 -0.059,-0.051" style="fill:none;stroke:#000000;stroke-width:2.25;stroke-linecap:round;stroke-linejoin:round;stroke-miterlimit:4;stroke-dasharray:none;stroke-opacity:1" id="path2134" />
         </g>
         <g id="g2136" transform="scale(1,-1)" style="stroke-width:2.25;stroke-miterlimit:4;stroke-dasharray:none">
            <path d="m 1098.207,-402.223 c 0.527,0.485 1.352,0.493 2.031,0.653 2.098,0.25 4.094,0.976 6.16,1.39 1.582,0.391 3.196,0.676 4.829,0.676 1.078,0.117 2.211,0.274 3.109,0.926 1.207,0.574 2.465,1.379 3.859,1.219 0.188,-0.149 3.758,-1.094 3.778,-1.09" style="fill:none;stroke:#000000;stroke-width:2.25;stroke-linecap:round;stroke-linejoin:round;stroke-miterlimit:4;stroke-dasharray:none;stroke-opacity:1" id="path2138" />
         </g>
         <g id="g2140" transform="scale(1,-1)" style="stroke-width:2.25;stroke-miterlimit:4;stroke-dasharray:none">
            <path d="m 1121.703,-398.52 c -0.965,0.848 1.317,-0.824 2.133,0.18 8.894,1.758 41.726,7.317 47.754,8.746 1.453,-0.453 2.41,2.207 4.547,2.582 2.488,0.942 4.738,1.223 7.086,1.614 1.117,0.257 3.203,0.769 4.828,1.191 0.105,0.039 1.629,0.168 0.699,-0.043" style="fill:none;stroke:#000000;stroke-width:2.25;stroke-linecap:round;stroke-linejoin:round;stroke-miterlimit:4;stroke-dasharray:none;stroke-opacity:1" id="path2142" />
         </g>
         <g id="g2144" transform="scale(1,-1)" style="stroke-width:2.25;stroke-miterlimit:4;stroke-dasharray:none">
            <path d="m 1184.621,-389.934 c 0.16,0.336 -0.781,0.168 -0.43,0.664 0.477,0.489 1.18,0.661 1.832,0.762 0.747,0.067 0.094,-0.601 -0.132,-0.801 -0.399,-0.281 -0.84,-0.843 -1.375,-0.515 -0.379,0.324 -0.946,0.871 -0.442,1.367 0.555,0.281 1.27,0.516 1.848,0.16 0.719,-0.305 -0.391,-0.625 -0.738,-0.594 -0.75,-0.007 -1.496,0.11 -2.223,0.274 -0.207,0.117 -0.871,0.215 -0.25,0.183 0.559,0.016 1.137,0.114 1.684,0.016 l -0.01,-0.02 -0.09,-0.05" style="fill:none;stroke:#000000;stroke-width:2.25;stroke-linecap:round;stroke-linejoin:round;stroke-miterlimit:4;stroke-dasharray:none;stroke-opacity:1" id="path2146" />
         </g>
         <g id="g2148" transform="scale(1,-1)" style="stroke-width:2.25;stroke-miterlimit:4;stroke-dasharray:none">
            <path d="m 1177.238,-388.859 c -0.554,-0.989 -1.75,-2.754 -1.871,-4.254 0.043,-2.356 -1.043,-4.645 -0.762,-6.996 0.032,-2.379 -2.507,-2.188 -3.968,-3.336 -4.106,-0.512 -26.321,-5.875 -39.082,-9.438 -1.696,-0.844 -1.575,1.024 -0.938,2.137 0.395,4.012 -0.144,9.422 0.836,12.965" style="fill:none;stroke:#000000;stroke-width:2.25;stroke-linecap:round;stroke-linejoin:round;stroke-miterlimit:4;stroke-dasharray:none;stroke-opacity:1" id="path2150" />
         </g>
         <g id="g2152" transform="scale(1,-1)" style="stroke-width:2.25;stroke-miterlimit:4;stroke-dasharray:none">
            <path d="m 1131.523,-407.184 c 5.832,1.434 32.118,8.176 44.993,11.286 0.664,0.086 1.078,0.293 0.339,0.074" style="fill:none;stroke:#000000;stroke-width:2.25;stroke-linecap:round;stroke-linejoin:round;stroke-miterlimit:4;stroke-dasharray:none;stroke-opacity:1" id="path2154" />
         </g>
         <g id="g2156" transform="scale(1,-1)" style="stroke-width:2.25;stroke-miterlimit:4;stroke-dasharray:none">
            <path d="m 1043.664,-413.945 c 0.727,-5.672 1.254,-11.895 1.816,-17.285 1.02,-1.836 3.946,0.25 5.579,0.546 8.793,2.739 18.015,3.579 26.957,5.664 4.984,0.95 9.922,2.118 14.886,3.157 1.996,0.289 3.891,0.879 3.782,3.25 1.093,5.136 1.144,10.425 1.066,15.656" style="fill:none;stroke:#000000;stroke-width:2.25;stroke-linecap:round;stroke-linejoin:round;stroke-miterlimit:4;stroke-dasharray:none;stroke-opacity:1" id="path2158" />
         </g>
         <g id="g2160" transform="scale(1,-1)" style="stroke-width:2.25;stroke-miterlimit:4;stroke-dasharray:none">
            <path d="m 1044.605,-423.855 c 12.321,2.074 43.379,9.382 52.207,10.898" style="fill:none;stroke:#000000;stroke-width:2.25;stroke-linecap:round;stroke-linejoin:round;stroke-miterlimit:4;stroke-dasharray:none;stroke-opacity:1" id="path2162" />
         </g>
         <g id="g2164" transform="scale(1,-1)" style="stroke-width:2.25;stroke-miterlimit:4;stroke-dasharray:none">
            <path d="m 1111.227,-406.297 c -0.012,0.067 -0.325,0.235 -0.043,0.109 -0.118,-0.308 -0.84,-0.191 -0.852,-0.281 0.586,0.035 -0.199,0.875 0.559,0.836 0.285,0.153 1.015,-0.058 0.953,-0.242 -0.102,-0.168 -1.024,-0.363 -1.496,-0.184 -0.465,0.118 -0.875,1.129 -0.215,1.18 0.539,0.109 1.156,-0.117 1.336,-0.676 0.336,-0.625 -0.473,-0.843 -0.938,-0.789 -0.172,0.004 -0.34,0.047 -0.504,0.098" style="fill:none;stroke:#000000;stroke-width:2.25;stroke-linecap:round;stroke-linejoin:round;stroke-miterlimit:4;stroke-dasharray:none;stroke-opacity:1" id="path2166" />
         </g>
         <g id="g2168" transform="scale(1,-1)" style="stroke-width:2.25;stroke-miterlimit:4;stroke-dasharray:none">
            <path d="m 1104.785,-402.512 c 0.352,-1.004 0.277,-1.961 0.32,-2.894 -0.199,-1.27 0.594,-2.508 1.688,-3.098 0.945,-0.785 2.133,-1.164 3.293,-1.519 1.23,0.304 2.602,0.074 3.695,0.835 1.336,0.376 2.051,1.852 2.481,2.938 -0.516,0.898 0.504,2.059 0.019,3.188 -0.074,1.335 -0.238,2.996 -0.933,4.117" style="fill:none;stroke:#000000;stroke-width:2.25;stroke-linecap:round;stroke-linejoin:round;stroke-miterlimit:4;stroke-dasharray:none;stroke-opacity:1" id="path2170" />
         </g>
         <g id="g2172" transform="scale(1,-1)" style="stroke-width:2.25;stroke-miterlimit:4;stroke-dasharray:none">
            <path d="m 1096.195,-420.734 c 1.071,-0.34 -3.031,-3.496 -4.093,-4.317 -2.172,-2.226 -5.684,-5.898 -7.59,-8.316 -1.758,-2.516 -1.696,-5.727 -2.18,-8.672 0.027,-3.254 -0.297,-6.606 -0.102,-9.836 0.36,-2.742 -0.265,-5.57 0.024,-8.305 -0.719,-3.609 -0.734,-7.386 -0.981,-11.109 -0.328,-2.09 -0.828,-4.399 -1.117,-6.145 -1.015,-1.914 -0.597,-3.605 -1.562,-5.496 -1.453,-1.707 -3.918,0.969 -3.168,2.938 -0.25,2.914 -0.563,5.875 -0.723,8.781 -0.875,3.996 -0.383,8 -0.113,12.02 0.359,3.25 0.637,6.632 0.379,9.879 0.215,2.613 0.14,5.226 0.449,7.886 -0.07,2.957 0.441,6.004 0.098,8.883 0.238,2.199 -0.219,4.344 -0.246,6.473" style="fill:none;stroke:#000000;stroke-width:2.25;stroke-linecap:round;stroke-linejoin:round;stroke-miterlimit:4;stroke-dasharray:none;stroke-opacity:1" id="path2174" />
         </g>
         <g id="g2176" transform="scale(1,-1)" style="stroke-width:2.25;stroke-miterlimit:4;stroke-dasharray:none">
            <path d="m 1077.895,-429.602 c 0.062,-0.371 -0.625,-1.078 -0.524,-0.359 0.098,0.469 0.117,0.977 0.379,1.414 0.25,0.422 0.965,0.219 1.223,-0.125 0.398,-0.5 0.339,-1.281 -0.129,-1.711 -0.239,-0.387 -0.684,-0.273 -0.848,0.102" style="fill:none;stroke:#000000;stroke-width:2.25;stroke-linecap:round;stroke-linejoin:round;stroke-miterlimit:4;stroke-dasharray:none;stroke-opacity:1" id="path2178" />
         </g>
         <g id="g2180" transform="scale(1,-1)" style="stroke-width:2.25;stroke-miterlimit:4;stroke-dasharray:none">
            <path d="m 1066.84,-438.184 c -1.082,0.223 -1.719,1.368 -2.215,2.266 -0.582,1.32 -0.672,3.094 0.539,4.102 1.129,0.589 2.313,1.324 3.633,1.316 1.711,-0.102 3.922,-0.258 4.758,-2.023 0.59,-1.219 0.39,-2.61 -0.289,-3.739 -0.465,-1.054 -1.082,-2.25 -2.348,-2.453 -2.039,-0.441 -4.242,0.035 -5.992,1.145 -1.504,1.054 -1.129,3.371 0,4.562 1.004,0.832 2.328,1.418 3.648,1.356 1.442,-0.071 2.879,-1.438 2.473,-2.95 -0.344,-1.496 -1.149,-3 -2.586,-3.695 -1.039,-0.793 -2.316,-0.121 -3.141,0.649 -0.847,0.621 -1.644,1.531 -1.859,2.554 0.18,1.399 0.867,2.985 2.367,3.352 1.219,0.394 2.758,0.523 3.82,-0.317 0.934,-1.043 0.942,-2.617 0.543,-3.89 -0.183,-1.348 -0.832,-2.684 -1.894,-3.551 -1.328,-0.883 -2.934,0.293 -3.504,1.535 -0.355,0.805 -0.992,1.985 -0.086,2.676" style="fill:none;stroke:#000000;stroke-width:2.25;stroke-linecap:round;stroke-linejoin:round;stroke-miterlimit:4;stroke-dasharray:none;stroke-opacity:1" id="path2182" />
         </g>
         <g id="g2184" transform="scale(1,-1)" style="stroke-width:2.25;stroke-miterlimit:4;stroke-dasharray:none">
            <path d="m 1054.184,-436.922 0.01,-0.004 -0.054,-0.027 -0.067,-0.039 -0.058,-0.063 -0.059,-0.058 -0.098,-0.012 0.055,-0.059 v -0.05 l -0.117,-0.036 -0.035,0.032 -0.043,-0.02 -0.051,-0.027 -0.07,-0.02 -0.059,-0.007 -0.023,-0.004 -0.02,0.011 -0.023,0.016 0.054,0.027 0.075,0.008 -0.016,0.035 -0.035,0.004 -0.012,-0.012 v 0.071 l -0.023,0.035 -0.074,0.043 -0.032,0.047 0.043,0.023 0.01,0.028 0.012,0.011 0.01,0.043 0.031,0.047 v 0.051 l -0.028,0.047 0.032,0.011 0.01,0.043 0.011,0.036 0.01,0.035 0.027,0.039 0.024,0.031 0.015,0.035 0.01,0.004 0.028,0.02 0.011,0.058 0.028,0.043 0.027,0.082 0.012,0.082 0.039,0.086 0.054,0.078 0.024,0.043 v 0.028 l -0.012,0.023 0.031,0.024 0.09,0.031 0.075,0.051 0.07,0.023 0.062,0.012 0.114,0.019 0.086,0.028 -0.012,0.004 h 0.035 l 0.039,-0.008 0.02,-0.008 0.011,0.004 0.032,-0.02 0.05,-0.011 -0.031,-0.012 -0.016,0.027 -0.019,0.028 -0.016,-0.028 -0.011,-0.027 v -0.024 l -0.02,-0.015 -0.031,-0.016 -0.016,-0.019 -0.019,-0.016 h 0.011 l 0.071,-0.016 -0.012,0.004 -0.066,-0.027 -0.032,-0.008 -0.027,-0.008 -0.047,-0.019 -0.137,-0.035 -0.113,-0.039 0.047,-0.02 -0.027,-0.051 -0.055,-0.019 -0.031,-0.012 -0.012,-0.031 -0.055,-0.035 -0.062,-0.039 -0.024,-0.086 -0.027,-0.071 -0.031,-0.004 -0.047,-0.031 -0.043,-0.023 -0.039,-0.016 v -0.074 0.055 0.019 0.125 h 0.019 v 0.012 l -0.023,0.019 -0.012,0.016 0.032,0.019 0.019,0.028 0.024,0.012 0.019,0.035 0.098,0.027 0.074,0.074 -0.031,0.035 0.039,0.051 0.039,0.07 0.031,0.075" style="fill:none;stroke:#000000;stroke-width:2.25;stroke-linecap:round;stroke-linejoin:round;stroke-miterlimit:4;stroke-dasharray:none;stroke-opacity:1" id="path2186" />
         </g>
         <g id="g2188" transform="scale(1,-1)" style="stroke-width:2.25;stroke-miterlimit:4;stroke-dasharray:none">
            <path d="m 1092.496,-435.785 v -0.008 l 0.039,-0.019 0.047,-0.047 -0.047,-0.036 -0.012,-0.082 -0.039,-0.015 -0.023,0.043 -0.043,0.015 -0.027,0.012 -0.012,0.012 0.023,0.012 0.012,0.011 h 0.01 l -0.01,-0.004 0.012,-0.011 0.027,-0.008 0.012,-0.02 h 0.035 l 0.023,0.008 h 0.079 v 0.004 l 0.01,-0.02 0.02,-0.011 0.01,0.011 -0.047,-0.035 -0.012,-0.031 0.055,-0.023 v 0.039 l -0.031,-0.008 0.031,-0.027 -0.043,0.015 -0.012,-0.015 0.012,-0.004 v 0.004 0.05 l 0.019,-0.004 -0.011,-0.011 -0.028,-0.024 -0.027,-0.031 -0.039,-0.016 -0.023,-0.035 -0.028,-0.019 -0.039,-0.032 -0.055,-0.035 -0.046,-0.035 -0.047,-0.019 -0.039,-0.012 -0.055,-0.012 -0.078,-0.004 -0.039,-0.015 -0.043,0.015 -0.059,-0.008 -0.062,-0.046 -0.067,-0.032 0.063,-0.035 -0.043,-0.015 -0.141,0.007 -0.047,-0.078 -0.05,-0.019 -0.043,0.027 -0.075,0.012 -0.062,0.011 -0.02,0.012 0.01,0.043 v 0.035 l 0.012,0.032 0.012,0.027 0.05,0.101 0.02,0.036 0.016,0.015 0.015,0.008 0.016,0.016 0.019,0.039 0.032,0.066 0.019,0.098 0.02,0.07 0.027,0.09 0.047,0.113 -0.016,0.121 0.039,0.11 0.082,0.094 0.055,0.14 0.063,0.133 0.054,0.113 0.047,0.11 0.059,0.086 0.047,0.101 0.043,0.078 0.07,0.067 0.027,0.074 0.067,0.035 0.066,-0.004 0.047,0.027 0.055,0.012 0.023,0.035 0.051,0.032 0.054,-0.004 0.055,-0.008 h 0.051 l 0.086,0.004 0.094,0.027 0.097,0.02 0.098,-0.016 0.113,-0.012 0.11,-0.008 0.054,-0.011 0.067,-0.012 0.074,-0.023 0.109,-0.016 0.106,-0.031 0.144,-0.02 0.106,-0.031 0.054,-0.047 0.059,-0.051 0.063,-0.047 0.058,-0.027 0.059,-0.035 0.039,-0.055 0.074,-0.054 0.109,-0.063 0.063,-0.074 0.066,-0.063 0.039,-0.078 0.086,-0.09 0.071,-0.097 0.011,-0.086 0.01,-0.121 v -0.11 l 0.02,-0.054 -0.055,-0.067 -0.055,-0.09 0.012,-0.105 v -0.098 l -0.01,-0.101 -0.012,-0.082 -0.027,-0.082 -0.035,-0.071 -0.023,-0.07 -0.016,-0.059 -0.031,-0.043 -0.036,-0.066 -0.031,-0.086 -0.058,-0.051 v -0.047 l -0.012,-0.043 -0.059,-0.031 -0.074,-0.043 -0.078,-0.058 -0.039,-0.063 -0.063,-0.055 -0.097,-0.039 -0.078,-0.07 -0.075,-0.059 -0.089,-0.027 -0.082,-0.031 -0.086,-0.027 -0.098,-0.008 h -0.102 l -0.109,0.004 -0.109,0.023 h -0.106 l -0.07,0.012 -0.07,0.027 -0.11,0.016 h -0.105 l -0.094,0.043 -0.078,0.054 -0.086,0.028 -0.051,0.039 -0.058,0.039 -0.075,0.023 -0.039,-0.023 -0.031,0.031 -0.012,0.063 0.02,0.035 -0.039,0.051 v 0.046 l 0.054,0.024 0.012,0.035 0.012,0.016 0.015,-0.02 0.102,0.035 0.027,0.047 -0.035,0.055 0.016,-0.043 0.012,0.027 0.01,0.102 -0.011,0.105 v 0.114 l 0.031,0.093 0.027,0.09 0.028,0.098 0.031,0.109 0.031,0.113 0.051,0.09 0.058,0.082 0.043,0.11 0.043,0.105 0.039,0.09 0.055,0.074 0.024,0.074 0.062,0.059 0.082,0.063 0.055,0.078 0.058,0.058 0.051,0.063 0.074,0.051 0.082,0.035 0.059,0.05 0.047,0.028 0.055,0.023 0.062,0.059 0.074,0.012 0.055,0.023 0.055,0.02 0.074,0.015 0.066,0.039 0.067,0.028 0.062,-0.012 0.078,0.012 0.098,0.011 0.043,-0.004 0.016,-0.043 0.023,-0.007 0.039,0.035 0.031,-0.02 -0.015,-0.023 0.019,-0.008 0.055,-0.02 0.047,-0.039 0.019,-0.023 v -0.016 l 0.024,-0.027 -0.012,-0.031 -0.043,-0.035 -0.019,-0.071 -0.02,-0.047 0.016,-0.062 -0.039,-0.086 v -0.098 l -0.024,-0.097 -0.078,-0.114 -0.035,-0.168 -0.047,-0.168 -0.066,-0.121 -0.067,-0.14 -0.113,-0.137 -0.078,-0.152 -0.031,-0.161 -0.083,-0.125 -0.07,-0.156 -0.086,-0.152 -0.062,-0.133 -0.063,-0.129 -0.082,-0.09 -0.105,-0.093 -0.098,-0.106 -0.101,-0.074 -0.118,-0.043 -0.078,-0.031 -0.054,-0.036 -0.075,-0.031 -0.09,-0.035 -0.07,0.004 -0.043,0.012 -0.031,0.019 -0.043,0.028 -0.063,0.027 -0.054,0.051 -0.039,0.035 -0.012,0.012 -0.031,0.039 -0.028,0.047 v 0.042 l -0.01,0.051 v 0.028 l -0.012,0.027 0.027,0.039 0.051,0.051 -0.012,0.054 -0.027,-0.007 -0.012,0.031 -0.023,0.078 -0.039,0.063 -0.082,0.058 -0.02,0.067 v 0.027 l -0.027,0.059 0.012,0.027 v -0.02" style="fill:none;stroke:#000000;stroke-width:2.25;stroke-linecap:round;stroke-linejoin:round;stroke-miterlimit:4;stroke-dasharray:none;stroke-opacity:1" id="path2190" />
         </g>
         <g id="g2192" transform="scale(1,-1)" style="stroke-width:2.25;stroke-miterlimit:4;stroke-dasharray:none">
            <path d="m 1091.047,-455.477 v -0.003 l 0.01,-0.02 0.011,-0.023 v -0.008 0.035 l 0.059,0.004 -0.094,0.008 -0.015,-0.028 -0.016,-0.015 -0.01,0.039 -0.097,0.039 -0.071,0.023 0.012,0.004 -0.024,0.055 -0.023,0.113 -0.047,0.074 0.024,0.055 -0.012,0.051 -0.059,0.043 -0.078,0.164 -0.035,0.031 -0.059,0.055 -0.074,0.047 -0.07,0.039 -0.031,0.047 -0.11,0.218 -0.05,0.071 -0.055,0.07 -0.02,0.082 -0.011,0.059 -0.02,0.058 -0.012,0.074 v 0.075 l -0.011,0.05 v 0.036 l 0.023,0.066 0.012,0.078 0.015,0.047 0.028,0.023 0.054,0.024 0.063,0.039 0.019,0.047 0.047,0.015 0.047,0.004 0.039,0.028 0.012,0.023 0.01,0.047 0.109,0.027 0.102,0.024 0.078,0.027 0.09,0.024 0.105,0.031 0.106,0.011 0.109,0.024 0.09,0.023 0.086,0.047 0.082,0.016 0.074,0.012 0.031,0.011 0.09,-0.015 0.09,-0.008 v -0.008 l 0.031,-0.027 0.012,-0.024 0.035,-0.019 v -0.043 l 0.012,-0.039 0.043,-0.035 0.031,-0.02 0.027,-0.02 v -0.023 l 0.063,-0.02 0.035,-0.027 -0.035,-0.039 -0.012,0.012 -0.015,0.004 -0.012,-0.032 -0.016,-0.023 -0.035,-0.039 -0.027,-0.047 -0.012,-0.07 0.012,-0.039 -0.01,-0.051 -0.024,-0.055 -0.01,-0.062 -0.02,-0.074 -0.031,-0.075 -0.012,-0.078 -0.027,-0.07 -0.012,-0.059 -0.023,-0.047 -0.043,-0.054 -0.016,-0.051 -0.016,-0.035 h -0.023 l -0.027,-0.016 -0.039,-0.039 -0.028,0.004 -0.023,0.008 -0.012,-0.02 -0.01,-0.004 -0.019,0.039 -0.059,0.02 -0.062,0.019 -0.012,0.02 0.012,0.012 -0.012,0.027 -0.012,0.02 -0.035,0.011 0.031,0.032 -0.011,0.039 -0.055,0.047 -0.059,0.046 -0.09,0.09 -0.07,0.051 0.016,0.074 -0.01,0.082 -0.063,0.051 -0.058,0.063 -0.051,0.093 -0.023,0.09 -0.067,0.094 -0.066,0.082 -0.012,0.078 -0.031,0.09 -0.012,0.101 -0.01,0.106 0.016,0.086 0.043,0.07" style="fill:none;stroke:#000000;stroke-width:2.25;stroke-linecap:round;stroke-linejoin:round;stroke-miterlimit:4;stroke-dasharray:none;stroke-opacity:1" id="path2194" />
         </g>
         <g id="g2196" transform="scale(1,-1)" style="stroke-width:2.25;stroke-miterlimit:4;stroke-dasharray:none">
            <path d="m 1176.379,-406.477 v -0.035 l -0.016,-0.062 -0.01,-0.102 -0.031,-0.109 -0.027,-0.102 0.031,-0.062 0.027,-0.039 0.012,-0.059 -0.015,-0.035 v -0.008 0.024 l 0.01,-0.012 0.012,-0.008" style="fill:none;stroke:#000000;stroke-width:2.25;stroke-linecap:round;stroke-linejoin:round;stroke-miterlimit:4;stroke-dasharray:none;stroke-opacity:1" id="path2198" />
         </g>
         <g id="g2200" transform="scale(1,-1)" style="stroke-width:2.25;stroke-miterlimit:4;stroke-dasharray:none">
            <path d="m 1176.84,-405.488 c 0.426,1.359 0.531,2.773 0.738,4.172 0.141,1.242 0.481,2.445 0.649,3.687 0.265,1.484 1.832,2.176 3.191,1.867 1.144,-0.343 2.82,-0.828 2.965,-2.222 -0.235,-1.95 -1.067,-3.821 -1.059,-5.813 -0.074,-1.515 -0.742,-2.91 -0.879,-4.414 -0.109,-1.223 -1.015,-2.332 -2.316,-2.332 -0.793,0.559 -2.691,0.676 -2.488,2.004 -0.012,0.797 -0.293,1.762 0.355,2.394" style="fill:none;stroke:#000000;stroke-width:2.25;stroke-linecap:round;stroke-linejoin:round;stroke-miterlimit:4;stroke-dasharray:none;stroke-opacity:1" id="path2202" />
         </g>
         <g id="g2204" transform="scale(1,-1)" style="stroke-width:2.25;stroke-miterlimit:4;stroke-dasharray:none">
            <path d="m 1023.926,-432.34 c 0.883,0.535 1.687,1.231 2.469,1.832 0.949,-0.402 2.183,-0.906 2.558,-1.969 0.293,-1.168 0.137,-2.39 0.25,-3.582 -0.035,-1.558 -0.219,-3.101 -0.336,-4.652 0.391,-1.101 0,-2.68 -1.359,-2.828 -1.059,-0.004 -2.551,-0.348 -3.219,0.68 -0.582,1.019 -0.641,2.199 -0.754,3.336 -0.148,1.183 -0.504,2.363 -0.277,3.566 0.156,1.019 -0.028,2.07 0.195,3.074" style="fill:none;stroke:#000000;stroke-width:2.25;stroke-linecap:round;stroke-linejoin:round;stroke-miterlimit:4;stroke-dasharray:none;stroke-opacity:1" id="path2206" />
         </g>
         <g id="g2208" transform="scale(1,-1)" style="stroke-width:2.25;stroke-miterlimit:4;stroke-dasharray:none">
            <path d="m 1138.031,-437.734 c 3.996,-0.145 6.473,-4.086 7.449,-7.559 0.977,-3.301 1.266,-6.918 -0.01,-10.187 -1.055,-3.055 -3.289,-5.563 -5.996,-7.27 -6.622,-5.027 -13.883,-10.188 -22.442,-10.848 -6.156,0.086 -12.32,4.879 -12.797,11.231 -0.527,4.57 0.891,9.351 3.907,12.84 1.902,3.406 4.937,6.05 8.109,8.23 4.941,3.121 10.789,5.938 16.785,4.715 2.727,-0.59 5.566,-1.254 7.883,-2.887" style="fill:none;stroke:#000000;stroke-width:2.25;stroke-linecap:round;stroke-linejoin:round;stroke-miterlimit:4;stroke-dasharray:none;stroke-opacity:1" id="path2210" />
         </g>
         <g id="g2212" transform="scale(1,-1)" style="stroke-width:2.25;stroke-miterlimit:4;stroke-dasharray:none">
            <path d="m 1132.195,-443.703 c 0.844,-1.258 2.598,-1.063 3.731,-1.879 l 0.078,-0.137 v -0.152" style="fill:none;stroke:#000000;stroke-width:2.25;stroke-linecap:round;stroke-linejoin:round;stroke-miterlimit:4;stroke-dasharray:none;stroke-opacity:1" id="path2214" />
         </g>
         <g id="g2216" transform="scale(1,-1)" style="stroke-width:2.25;stroke-miterlimit:4;stroke-dasharray:none">
            <path d="m 1128.926,-445.266 c 0.929,-2.269 2.773,-4.046 3.558,-6.386 0.508,-0.364 1.539,-2.66 0.309,-1.395 -1.039,1.211 -2.07,2.473 -2.762,3.918" style="fill:none;stroke:#000000;stroke-width:2.25;stroke-linecap:round;stroke-linejoin:round;stroke-miterlimit:4;stroke-dasharray:none;stroke-opacity:1" id="path2218" />
         </g>
         <g id="g2220" transform="scale(1,-1)" style="stroke-width:2.25;stroke-miterlimit:4;stroke-dasharray:none">
            <path d="m 1122.629,-450.477 c 2.211,-2.148 2.984,-5.242 4.594,-7.793 -0.383,0.082 0.015,0.618 -0.34,0.727" style="fill:none;stroke:#000000;stroke-width:2.25;stroke-linecap:round;stroke-linejoin:round;stroke-miterlimit:4;stroke-dasharray:none;stroke-opacity:1" id="path2222" />
         </g>
         <g id="g2224" transform="scale(1,-1)" style="stroke-width:2.25;stroke-miterlimit:4;stroke-dasharray:none">
            <path d="m 1119.535,-453.371 c -1.074,-0.508 0.617,-2.117 0.738,-3.039 0.368,-0.578 0.145,-2.414 0.313,-2.235" style="fill:none;stroke:#000000;stroke-width:2.25;stroke-linecap:round;stroke-linejoin:round;stroke-miterlimit:4;stroke-dasharray:none;stroke-opacity:1" id="path2226" />
         </g>
         <g id="g2228" transform="scale(1,-1)" style="stroke-width:2.25;stroke-miterlimit:4;stroke-dasharray:none">
            <path d="m 1117.535,-454.352 c -0.922,1.032 -1.324,2.715 0.106,2.102 -0.485,1.785 0.359,3.863 2.129,4.57 1.074,0.606 1.511,2.047 2.648,2.68 1.082,0.941 2.574,0.559 3.773,1.105 1.993,0.61 4.387,0.372 5.969,1.954 0.574,0.097 2.117,0.855 2.121,-0.223" style="fill:none;stroke:#000000;stroke-width:2.25;stroke-linecap:round;stroke-linejoin:round;stroke-miterlimit:4;stroke-dasharray:none;stroke-opacity:1" id="path2230" />
         </g>
         <g id="g2232" transform="scale(1,-1)" style="stroke-width:2.25;stroke-miterlimit:4;stroke-dasharray:none">
            <path d="m 1120.234,-458.043 c 1.868,-1.422 4.555,-1.539 6.606,-0.457 1.902,0.621 4.152,1.09 5.258,2.949 1.793,-0.922 2.277,1.727 3.617,2.285 0.39,1.434 1.172,2.727 1.515,4.172" style="fill:none;stroke:#000000;stroke-width:2.25;stroke-linecap:round;stroke-linejoin:round;stroke-miterlimit:4;stroke-dasharray:none;stroke-opacity:1" id="path2234" />
         </g>
         <g id="g2236" transform="scale(1,-1)" style="stroke-width:2.25;stroke-miterlimit:4;stroke-dasharray:none">
            <path d="m 1115.688,-447.824 c -1.833,-1.84 -2.157,-4.555 -3.317,-6.785 -1.019,-2.571 -1.133,-6.02 1.176,-7.942 2.098,-1.808 4.726,-3.011 7.512,-3.14 2.355,-0.184 4.625,0.625 6.726,1.597 2.93,1.067 5.977,2.344 7.934,4.883 0.156,0.133 0.308,0.266 0.465,0.395" style="fill:none;stroke:#000000;stroke-width:2.25;stroke-linecap:round;stroke-linejoin:round;stroke-miterlimit:4;stroke-dasharray:none;stroke-opacity:1" id="path2238" />
         </g>
         <g id="g2240" transform="scale(1,-1)" style="stroke-width:2.25;stroke-miterlimit:4;stroke-dasharray:none">
            <path d="m 1064.785,-455.836 c 0.785,-1.66 4.789,-2.09 5.008,-4.07 0.672,-3.114 0.941,-6.356 0.453,-9.516 0.238,-2.172 -0.887,-4.23 -1.941,-6.043 -1.192,-1.914 -3.117,-3.105 -5.043,-4.164 -3.317,-2.309 -7.09,-3.953 -11.008,-4.902 -2.652,-0.625 -5.391,-0.395 -8.07,-0.196 -2.024,-0.043 -4.149,0.539 -5.446,2.2 -1.5,1.601 -2.945,3.32 -3.578,5.468 -1.18,2.844 -0.617,6.09 0.719,8.774 0.613,1.859 1.676,3.465 2.715,5.101 1.097,1.586 2.629,2.825 3.875,4.317 1.308,0.793 2.769,1.351 4.109,2.117 1.402,0.691 2.902,1.113 4.317,1.777 1.871,0.469 3.824,0.879 5.757,0.692 1.692,-0.313 3.446,-0.297 5.016,-1.086 2.594,-0.789 5.449,-1.301 7.469,-3.262 0.187,-0.137 0.383,-0.262 0.586,-0.375" style="fill:none;stroke:#000000;stroke-width:2.25;stroke-linecap:round;stroke-linejoin:round;stroke-miterlimit:4;stroke-dasharray:none;stroke-opacity:1" id="path2242" />
         </g>
         <g id="g2244" transform="scale(1,-1)" style="stroke-width:2.25;stroke-miterlimit:4;stroke-dasharray:none">
            <path d="m 1056.602,-460.543 c -0.247,-0.383 2.074,-0.25 1.816,-1.375 0.32,-0.719 1.828,-1.617 0.445,-2.02 -0.035,-0.285 0.172,-0.699 0.504,-0.664" style="fill:none;stroke:#000000;stroke-width:2.25;stroke-linecap:round;stroke-linejoin:round;stroke-miterlimit:4;stroke-dasharray:none;stroke-opacity:1" id="path2246" />
         </g>
         <g id="g2248" transform="scale(1,-1)" style="stroke-width:2.25;stroke-miterlimit:4;stroke-dasharray:none">
            <path d="m 1055.141,-465.641 c 0.031,-0.964 1.039,-1.593 1.41,-2.461 0.297,-1.289 0.949,-2.492 1.25,-3.777 -0.516,0.078 -1.184,1.262 -1.641,1.859 -0.672,1.036 -1.64,1.829 -2.242,2.911 -0.34,0.765 -1.875,2.418 -1.531,0.554 0.172,-1.64 0.949,-3.125 1.406,-4.691 0.09,-0.231 0.672,-0.926 0.047,-0.891" style="fill:none;stroke:#000000;stroke-width:2.25;stroke-linecap:round;stroke-linejoin:round;stroke-miterlimit:4;stroke-dasharray:none;stroke-opacity:1" id="path2250" />
         </g>
         <g id="g2252" transform="scale(1,-1)" style="stroke-width:2.25;stroke-miterlimit:4;stroke-dasharray:none">
            <path d="m 1046.969,-469.773 c -0.328,0.402 0.328,-0.981 0.422,-1.329 0.402,-0.406 0.433,-2.168 -0.293,-1.566 -0.313,1.008 -0.543,2.066 -0.918,3.016 l 0.011,0.027 h 0.211" style="fill:none;stroke:#000000;stroke-width:2.25;stroke-linecap:round;stroke-linejoin:round;stroke-miterlimit:4;stroke-dasharray:none;stroke-opacity:1" id="path2254" />
         </g>
         <g id="g2256" transform="scale(1,-1)" style="stroke-width:2.25;stroke-miterlimit:4;stroke-dasharray:none">
            <path d="m 1041.289,-472.473 c 0.672,-1.601 2.758,-1.636 3.781,-2.91 1.067,-1 2.528,-1.48 3.973,-1.504 1.93,-0.383 3.93,-0.191 5.789,0.426 1.746,0.43 3.531,1.051 4.813,2.371 0.972,0.817 2.035,1.684 2.433,2.942 1.285,0.957 1.559,2.601 1.692,4.078 0.277,1.355 0.171,2.816 -0.415,4.082 -1.335,1.07 -2.617,2.293 -4.195,2.992 -0.465,0.144 -0.957,0.172 -1.422,0.316" style="fill:none;stroke:#000000;stroke-width:2.25;stroke-linecap:round;stroke-linejoin:round;stroke-miterlimit:4;stroke-dasharray:none;stroke-opacity:1" id="path2258" />
         </g>
         <g id="g2260" transform="scale(1,-1)" style="stroke-width:2.25;stroke-miterlimit:4;stroke-dasharray:none">
            <path d="m 1040.754,-468.152 c -0.57,-0.801 0.199,1.054 0.476,1.226 0.637,0.774 1.04,1.785 1.848,2.446 0.731,0.796 1.813,1.035 2.668,1.625 1.242,0.734 2.688,0.937 4.047,1.351 -0.02,0.289 0.309,0.328 0.5,0.422" style="fill:none;stroke:#000000;stroke-width:2.25;stroke-linecap:round;stroke-linejoin:round;stroke-miterlimit:4;stroke-dasharray:none;stroke-opacity:1" id="path2262" />
         </g>
         <g id="g2264" transform="scale(1,-1)" style="stroke-width:2.25;stroke-miterlimit:4;stroke-dasharray:none">
            <path d="m 941.805,-449.18 c 14.48,2.492 43.32,9.754 65.125,14.852" style="fill:none;stroke:#000000;stroke-width:2.25;stroke-linecap:round;stroke-linejoin:round;stroke-miterlimit:4;stroke-dasharray:none;stroke-opacity:1" id="path2266" />
         </g>
      </g>
   </g>
</svg>
