<?xml version="1.0" encoding="UTF-8" standalone="no"?>
<!-- Created by Ashley Blewer - This work is licensed under a Creative Commons Attribution 4.0 International License -->

<svg width="544" height="480" viewBox="0 0 143.93334 127" version="1.1" id="svg2490" inkscape:version="1.1.2 (08b2f3d93c, 2022-04-05)" sodipodi:docname="1986-mii-5.svg"
   xmlns:inkscape="http://www.inkscape.org/namespaces/inkscape"
   xmlns:sodipodi="http://sodipodi.sourceforge.net/DTD/sodipodi-0.dtd"
   xmlns="http://www.w3.org/2000/svg"
   xmlns:svg="http://www.w3.org/2000/svg">
   <sodipodi:namedview id="namedview2492" pagecolor="#ffffff" bordercolor="#666666" borderopacity="1.0" inkscape:pageshadow="2" inkscape:pageopacity="0.0" inkscape:pagecheckerboard="0" inkscape:document-units="mm" showgrid="false" units="px" inkscape:zoom="0.90583674" inkscape:cx="272.67607" inkscape:cy="177.18425" inkscape:window-width="1848" inkscape:window-height="1136" inkscape:window-x="72" inkscape:window-y="27" inkscape:window-maximized="1" inkscape:current-layer="layer1" />
   <defs id="defs2487" />
   <g inkscape:label="Layer 1" inkscape:groupmode="layer" id="layer1">
      <g id="g2282" transform="matrix(0.38498251,0,0,0.38498251,-248.66317,-180.75122)">
         <g id="g2268" transform="scale(1,-1)" style="stroke-width:2.25;stroke-miterlimit:4;stroke-dasharray:none">
            <path d="m 780.969,-687.406 c -6.879,0.707 -13.645,-1.27 -20.438,-2.016 -4.867,-0.637 -9.797,-0.711 -14.633,-1.527 -3.628,-0.489 -7.156,-1.461 -10.843,-1.512 -2.258,-0.773 -5.157,-1.867 -7.11,-0.934 -0.414,0.497 -1.32,2.02 -2.07,2.551 -3.602,0.039 -7.203,-0.441 -10.816,-0.433 -3.079,-0.543 -6.852,0 -9.184,-1.926 -1.02,-0.426 -1.18,-1.32 -2.195,-2.074 -3.328,-0.348 -6.918,0.375 -10.297,-0.442 -3.293,-0.058 -6.625,-0.906 -9.879,-0.219 -1.75,1.055 -2.785,4.489 -2.703,6.106 -0.551,3.352 -0.285,6.863 -0.129,10.148 0.441,1.571 -0.129,2.946 0.973,3.223 2.265,0.945 4.074,2.449 5.566,3.805 0.535,0.551 1.227,1.945 0.941,2.066 1.184,3.195 -3.5,1.817 -5.586,3.004 -0.878,0.035 -2.816,2.02 -2.968,3.301 0.113,1.512 -1.196,2.797 -0.446,3.551" style="fill:none;stroke:#000000;stroke-width:2.25;stroke-linecap:round;stroke-linejoin:round;stroke-miterlimit:4;stroke-dasharray:none;stroke-opacity:1" id="path2270" />
         </g>
         <g id="g2272" transform="scale(1,-1)" style="stroke-width:2.25;stroke-miterlimit:4;stroke-dasharray:none">
            <path d="m 679.199,-687.352 c 0.176,41.821 -4.379,80.657 -5.695,116.864 -0.149,12.347 -1.875,24.902 -2.473,37 l -0.105,0.156 -0.133,0.496" style="fill:none;stroke:#000000;stroke-width:2.25;stroke-linecap:round;stroke-linejoin:round;stroke-miterlimit:4;stroke-dasharray:none;stroke-opacity:1" id="path2274" />
         </g>
         <g id="g2276" transform="scale(1,-1)" style="stroke-width:2.25;stroke-miterlimit:4;stroke-dasharray:none">
            <path d="m 669.043,-531.758 c 0.027,-1.476 0.406,-3.746 0.535,-5.539 0.152,-3.246 0.465,-6.476 0.82,-9.703 0.215,-4.168 0.422,-8.336 0.899,-12.484 0.187,-5.637 0.726,-11.258 1.023,-16.887 -0.125,-1.047 -0.312,2.367 0.926,2.465 1.457,1.277 1.856,-1.887 3.156,-2.203 0.711,-1.848 0.602,-3.899 0.868,-5.836 0.324,-1.278 -1.762,-2.055 -2.149,-0.766" style="fill:none;stroke:#000000;stroke-width:2.25;stroke-linecap:round;stroke-linejoin:round;stroke-miterlimit:4;stroke-dasharray:none;stroke-opacity:1" id="path2278" />
         </g>
         <g id="g2280" transform="scale(1,-1)" style="stroke-width:2.25;stroke-miterlimit:4;stroke-dasharray:none">
            <path d="m 675.863,-572.492 c 0.481,5.097 0.348,10.222 0.219,15.336 0.023,1.972 -0.766,3.98 -0.238,5.926" style="fill:none;stroke:#000000;stroke-width:2.25;stroke-linecap:round;stroke-linejoin:round;stroke-miterlimit:4;stroke-dasharray:none;stroke-opacity:1" id="path2282" />
         </g>
         <g id="g2284" transform="scale(1,-1)" style="stroke-width:2.25;stroke-miterlimit:4;stroke-dasharray:none">
            <path d="m 668.766,-530.578 c 17.668,0.148 231.964,6.691 275.195,7.422 l -0.52,-0.153" style="fill:none;stroke:#000000;stroke-width:2.25;stroke-linecap:round;stroke-linejoin:round;stroke-miterlimit:4;stroke-dasharray:none;stroke-opacity:1" id="path2286" />
         </g>
         <g id="g2288" transform="scale(1,-1)" style="stroke-width:2.25;stroke-miterlimit:4;stroke-dasharray:none">
            <path d="m 671.32,-535 c 10.93,-1.543 250.168,7.754 273.832,9.188" style="fill:none;stroke:#000000;stroke-width:2.25;stroke-linecap:round;stroke-linejoin:round;stroke-miterlimit:4;stroke-dasharray:none;stroke-opacity:1" id="path2290" />
         </g>
         <g id="g2292" transform="scale(1,-1)" style="stroke-width:2.25;stroke-miterlimit:4;stroke-dasharray:none">
            <path d="m 943.285,-523.199 c 3.418,-2.41 3.063,-9.141 3.86,-12.828 0.511,-6.692 -0.559,-13.411 -1.614,-20.004 -0.176,-0.879 -1.367,-7.758 -1.394,-8.66" style="fill:none;stroke:#000000;stroke-width:2.25;stroke-linecap:round;stroke-linejoin:round;stroke-miterlimit:4;stroke-dasharray:none;stroke-opacity:1" id="path2294" />
         </g>
         <g id="g2296" transform="scale(1,-1)" style="stroke-width:2.25;stroke-miterlimit:4;stroke-dasharray:none">
            <path d="m 944.641,-560.328 0.023,0.008 0.059,0.015 -0.008,0.028 -0.035,0.054 -0.024,0.016 -0.015,0.031 0.015,0.031 -0.015,0.047 -0.032,-0.039 -0.043,-0.004 -0.004,-0.035 -0.031,-0.004 -0.027,-0.004 0.047,0.008 0.019,0.008 -0.043,-0.008 h -0.023 l 0.012,-0.008 -0.004,0.012 -0.02,-0.039 0.051,0.02 -0.031,-0.02 -0.078,-0.019 -0.059,0.035 -0.047,0.007 -0.023,0.008 -0.032,0.024 -0.039,0.008 -0.046,-0.008 -0.02,0.019 -0.039,0.004 -0.016,0.004 -0.082,-0.012 -0.09,-0.004 0.016,0.024 h -0.004 v 0.016 l 0.008,0.019 h 0.008 l 0.074,-0.027 0.039,-0.024 -0.031,0.004 h -0.016 l 0.008,0.012 -0.012,-0.024 0.024,-0.019 -0.02,0.008 v -0.032 l 0.004,-0.035 0.004,-0.023 0.019,-0.039 0.008,-0.027 -0.011,0.003 v -0.003 l -0.004,-0.004 -0.004,-0.008 h 0.027 l 0.082,-0.02 0.031,-0.039 -0.07,-0.035 -0.035,-0.035 -0.016,-0.027 -0.062,0.003 -0.031,0.016 0.011,-0.012 v -0.027 l 0.004,-0.008 0.063,-0.031 0.054,-0.043 -0.039,-0.035 v -0.047 l -0.004,-0.012 0.024,-0.012 0.004,-0.019 -0.016,-0.047 -0.004,-0.055 0.016,-0.039 v -0.039 l 0.004,-0.043 v -0.008 l -0.016,-0.023 0.024,-0.051 0.035,-0.019 0.011,-0.063 0.008,-0.058 0.008,-0.039 -0.008,-0.032 0.012,-0.039 0.035,-0.05 0.024,-0.126 0.003,-0.042 0.082,-0.04 0.036,-0.046 -0.043,-0.047 -0.004,-0.059 -0.004,-0.066 0.012,-0.051 -0.051,-0.043 -0.074,-0.035 0.015,-0.055 0.051,-0.055 0.016,-0.058 0.011,-0.039 0.008,-0.02 0.07,-0.043 0.055,-0.043 -0.019,-0.011 0.004,-0.028 0.015,-0.027 0.008,-0.027 0.004,-0.036 0.066,-0.027 0.024,-0.016 -0.028,-0.019 -0.004,-0.02 -0.019,-0.015 0.008,-0.008 -0.051,-0.035 -0.027,-0.055 0.047,-0.019 0.003,-0.028 0.008,-0.039 v -0.008 l 0.047,-0.019 0.074,-0.047 -0.023,-0.016 -0.043,-0.027 0.004,-0.043 v -0.031 l 0.019,0.004 -0.101,-0.039 -0.035,-0.075 0.082,-0.031 v -0.051 l 0.004,-0.035 v -0.004 l -0.02,-0.011 -0.031,-0.004 0.004,-0.004 0.011,-0.004 0.008,-0.004 0.008,0.008 0.02,-0.02 0.011,-0.008 v -0.007 l -0.011,-0.02 -0.004,-0.004 -0.004,-0.019 0.023,-0.012 0.024,0.016 -0.012,-0.016 v -0.043 l -0.02,-0.039 -0.004,-0.043 -0.07,-0.02 0.067,-0.054 0.003,-0.051 0.004,-0.043 0.004,-0.039 0.063,-0.024 0.027,-0.039 -0.058,-0.027 0.003,-0.055 -0.003,-0.047 -0.008,-0.043 -0.039,-0.054 -0.078,-0.039 0.003,-0.047 0.028,-0.035 -0.02,-0.043 -0.023,-0.035 0.004,-0.024 0.047,-0.043 0.023,-0.051 -0.016,-0.031 -0.011,-0.027 v -0.039 l -0.004,-0.035 0.039,-0.055 0.066,-0.039 -0.011,-0.035 -0.04,-0.032 -0.011,-0.043 -0.008,-0.046 -0.008,-0.036 -0.07,-0.027 -0.008,-0.035 0.031,-0.031 0.004,-0.032 v -0.035 l 0.004,-0.035 0.02,-0.047 0.031,0.004 0.012,-0.027 0.011,-0.031 0.008,-0.02 0.035,-0.012 -0.015,-0.035 -0.036,-0.051 0.043,-0.035 0.008,-0.047 0.004,-0.05 0.027,-0.024 -0.015,-0.023 -0.008,-0.039 0.023,-0.028 0.02,-0.027 0.012,-0.039 0.023,-0.031 0.059,-0.043 -0.028,-0.051 -0.035,-0.043 0.035,-0.024 0.024,-0.027 0.012,-0.055 -0.028,-0.015 h 0.016 l 0.008,-0.016 -0.039,-0.027 -0.024,-0.027 -0.019,-0.024 v -0.019 l 0.027,-0.036 -0.078,-0.027 -0.027,-0.031 0.046,-0.024 v -0.023 l 0.043,-0.012 0.008,-0.012 0.121,-0.027 0.055,-0.047 -0.051,-0.023 0.024,-0.012 0.011,-0.016 v -0.011 l 0.032,-0.004 0.031,-0.016 0.015,-0.023 0.028,-0.024 0.023,-0.039 0.016,-0.05 0.066,-0.043 0.047,-0.028 0.02,-0.031 0.035,-0.039 0.047,-0.031 0.054,-0.036 0.028,-0.054 0.051,-0.059 0.042,-0.004 0.02,-0.027 0.039,-0.012 0.008,-0.019 0.023,-0.008 -0.011,-0.016 0.015,-0.004 0.028,-0.019 0.004,-0.008 h 0.027 v -0.004 l -0.016,-0.019 -0.011,-0.008 0.019,0.008 v -0.024 l 0.063,0.02 0.042,0.011 -0.027,0.012 -0.023,-0.012 -0.016,0.024 h -0.023 l -0.047,0.015 -0.039,0.004 0.023,-0.011 v -0.032 l 0.063,-0.015 -0.071,-0.004 -0.097,-0.004 0.07,-0.023 0.012,-0.043 0.011,-0.051 0.012,-0.024 0.113,-0.015 0.055,-0.032 -0.082,-0.035 -0.016,-0.043 -0.011,-0.027 -0.012,-0.023 0.012,-0.04 -0.051,-0.015 -0.043,-0.031 0.008,-0.028 -0.004,-0.027 -0.027,-0.035 0.093,-0.012 0.059,-0.008 h -0.082 l -0.02,-0.023 -0.019,0.012 -0.02,0.019 -0.047,-0.008 -0.004,0.004 0.008,0.027 -0.054,0.004 -0.024,0.047 -0.039,0.012 -0.012,-0.012 -0.019,0.02 -0.012,0.035 -0.019,0.027 -0.016,0.028 -0.047,0.054 -0.019,0.051 v 0.012 l -0.02,0.043 -0.051,0.047" style="fill:none;stroke:#000000;stroke-width:2.25;stroke-linecap:round;stroke-linejoin:round;stroke-miterlimit:4;stroke-dasharray:none;stroke-opacity:1" id="path2298" />
         </g>
         <g id="g2300" transform="scale(1,-1)" style="stroke-width:2.25;stroke-miterlimit:4;stroke-dasharray:none">
            <path d="m 942.977,-566.426 c 0.539,7.614 1.625,15.215 1.128,22.86 -0.015,1.226 0.016,0.933 -0.14,2.152" style="fill:none;stroke:#000000;stroke-width:2.25;stroke-linecap:round;stroke-linejoin:round;stroke-miterlimit:4;stroke-dasharray:none;stroke-opacity:1" id="path2302" />
         </g>
         <g id="g2304" transform="scale(1,-1)" style="stroke-width:2.25;stroke-miterlimit:4;stroke-dasharray:none">
            <path d="m 676.215,-551.035 c 9.269,-0.543 248.449,8.215 267.269,9.551" style="fill:none;stroke:#000000;stroke-width:2.25;stroke-linecap:round;stroke-linejoin:round;stroke-miterlimit:4;stroke-dasharray:none;stroke-opacity:1" id="path2306" />
         </g>
         <g id="g2308" transform="scale(1,-1)" style="stroke-width:2.25;stroke-miterlimit:4;stroke-dasharray:none">
            <path d="m 697.105,-682.387 c 8.258,0.52 56.383,4.305 83.321,5.504" style="fill:none;stroke:#000000;stroke-width:2.25;stroke-linecap:round;stroke-linejoin:round;stroke-miterlimit:4;stroke-dasharray:none;stroke-opacity:1" id="path2310" />
         </g>
         <g id="g2312" transform="scale(1,-1)" style="stroke-width:2.25;stroke-miterlimit:4;stroke-dasharray:none">
            <path d="m 781.348,-577.262 c 1.043,-0.429 2.246,-0.761 2.875,-1.777 0.824,-0.645 1.601,-1.328 2.199,-2.199 0.262,-0.297 0.543,-0.617 0.93,-0.742" style="fill:none;stroke:#000000;stroke-width:2.25;stroke-linecap:round;stroke-linejoin:round;stroke-miterlimit:4;stroke-dasharray:none;stroke-opacity:1" id="path2314" />
         </g>
         <g id="g2316" transform="scale(1,-1)" style="stroke-width:2.25;stroke-miterlimit:4;stroke-dasharray:none">
            <path d="m 780.152,-577.09 c 1.215,-16.918 1.813,-35.851 1.805,-52.387 0.34,-2.156 2.793,-3.32 4.289,-4.714 2.02,-1.735 4.5,-2.747 7.008,-3.528 -1.399,0.567 -3.586,4.539 -0.524,3.485 0.012,0.781 -0.683,2.425 0.997,1.668 0.035,1.332 -1.793,-2.289 -3.024,-1.176 -1.351,0.375 -0.547,3.34 -0.711,4.801 -0.777,11.144 -0.625,33.652 -1.562,40.722 -0.305,2.367 0.324,3.5 -0.489,5.746" style="fill:none;stroke:#000000;stroke-width:2.25;stroke-linecap:round;stroke-linejoin:round;stroke-miterlimit:4;stroke-dasharray:none;stroke-opacity:1" id="path2318" />
         </g>
         <g id="g2320" transform="scale(1,-1)" style="stroke-width:2.25;stroke-miterlimit:4;stroke-dasharray:none">
            <path d="m 781.926,-630.352 c 0.293,-6.757 0.492,-15.183 -0.309,-21.586 -0.457,-4.808 -0.433,-9.621 -0.289,-14.437 -0.258,-5.203 -0.043,-10.445 0.008,-15.621 0.059,-2.977 -0.863,-6.5 1.059,-9.035 2.484,-1.61 2.714,-6.715 1.984,-8.887 -1.133,1.02 -2.18,2.945 -2.246,0.129 -0.481,-3.996 -1.711,-8.031 -1.188,-12.07 1.84,-3.039 3.141,-6.407 5.043,-9.426 2.012,-4.723 4.567,-9.352 8.285,-12.949 -0.394,2.918 -3.109,6.589 -3.535,10.121 -1.261,3.902 -1.586,8.168 -0.832,12.195 2.559,0.848 5.778,1.742 4.992,5.352 -0.535,3.066 -2.23,7.019 -5.406,7.875 -2.086,0.734 -4.992,4.898 -5.082,5.234 1.207,-3.563 2.836,-7.117 2.406,-10.965 0.512,-2.133 2.336,-4.398 3.973,-5.933" style="fill:none;stroke:#000000;stroke-width:2.25;stroke-linecap:round;stroke-linejoin:round;stroke-miterlimit:4;stroke-dasharray:none;stroke-opacity:1" id="path2322" />
         </g>
         <g id="g2324" transform="scale(1,-1)" style="stroke-width:2.25;stroke-miterlimit:4;stroke-dasharray:none">
            <path d="m 790.434,-698.715 c -0.34,1.156 0.011,4.047 -0.528,5.762 -0.551,17.598 1.367,45.73 1.18,61.832" style="fill:none;stroke:#000000;stroke-width:2.25;stroke-linecap:round;stroke-linejoin:round;stroke-miterlimit:4;stroke-dasharray:none;stroke-opacity:1" id="path2326" />
         </g>
         <g id="g2328" transform="scale(1,-1)" style="stroke-width:2.25;stroke-miterlimit:4;stroke-dasharray:none">
            <path d="m 780.516,-577.109 c 54.418,5.964 193.664,10.605 204.175,11.183 0.817,1.981 10.266,-5.222 16.168,-5.703" style="fill:none;stroke:#000000;stroke-width:2.25;stroke-linecap:round;stroke-linejoin:round;stroke-miterlimit:4;stroke-dasharray:none;stroke-opacity:1" id="path2330" />
         </g>
         <g id="g2332" transform="scale(1,-1)" style="stroke-width:2.25;stroke-miterlimit:4;stroke-dasharray:none">
            <path d="m 788.055,-582.18 c 13.05,1.133 204.027,10.77 211.265,11.211" style="fill:none;stroke:#000000;stroke-width:2.25;stroke-linecap:round;stroke-linejoin:round;stroke-miterlimit:4;stroke-dasharray:none;stroke-opacity:1" id="path2334" />
         </g>
         <g id="g2336" transform="scale(1,-1)" style="stroke-width:2.25;stroke-miterlimit:4;stroke-dasharray:none">
            <path d="m 1000.695,-571.82 c 0,-13.016 2.325,-35.926 -0.32,-44.645 -1.973,-2.269 -3.082,-8.281 1.414,-7.871 0.27,-4.055 -0.465,-8.18 -0.633,-12.242 -0.488,-9.367 -1.379,-18.742 -1.601,-28.125 -0.114,-4.336 -1.004,-8.567 -1.743,-12.516 -2.128,-0.652 -6.582,-4.203 -5.05,-7.383 0.457,-3.718 6.234,-4.3 3.886,-8.984 -0.269,-4.535 -1.32,-8.504 -2.238,-12.914 -1.012,-3.906 -5.828,-4.047 -8.117,-4.52" style="fill:none;stroke:#000000;stroke-width:2.25;stroke-linecap:round;stroke-linejoin:round;stroke-miterlimit:4;stroke-dasharray:none;stroke-opacity:1" id="path2338" />
         </g>
         <g id="g2340" transform="scale(1,-1)" style="stroke-width:2.25;stroke-miterlimit:4;stroke-dasharray:none">
            <path d="m 794.754,-734.281 c 17.008,1.281 174.723,18.883 195.664,23.859" style="fill:none;stroke:#000000;stroke-width:2.25;stroke-linecap:round;stroke-linejoin:round;stroke-miterlimit:4;stroke-dasharray:none;stroke-opacity:1" id="path2342" />
         </g>
         <g id="g2344" transform="scale(1,-1)" style="stroke-width:2.25;stroke-miterlimit:4;stroke-dasharray:none">
            <path d="m 688.898,-599.398 c 20.372,0.98 69.372,3.71 91.813,3.769" style="fill:none;stroke:#000000;stroke-width:2.25;stroke-linecap:round;stroke-linejoin:round;stroke-miterlimit:4;stroke-dasharray:none;stroke-opacity:1" id="path2346" />
         </g>
         <g id="g2348" transform="scale(1,-1)" style="stroke-width:2.25;stroke-miterlimit:4;stroke-dasharray:none">
            <path d="m 689.172,-600.207 c 0.574,-7.137 3.039,-19.457 3.433,-24.863 14.149,-0.16 72.411,1.578 89.411,2.867" style="fill:none;stroke:#000000;stroke-width:2.25;stroke-linecap:round;stroke-linejoin:round;stroke-miterlimit:4;stroke-dasharray:none;stroke-opacity:1" id="path2350" />
         </g>
         <g id="g2352" transform="scale(1,-1)" style="stroke-width:2.25;stroke-miterlimit:4;stroke-dasharray:none">
            <path d="m 731.145,-622.703 c -2.688,4.144 -5.649,9.422 -2.961,14.312 4.937,8.27 15.429,10.907 24.457,9.719 8.531,-0.504 16.543,-8.152 16.39,-16.902 -0.203,-1.649 0.188,-4.895 -2.414,-4.614" style="fill:none;stroke:#000000;stroke-width:2.25;stroke-linecap:round;stroke-linejoin:round;stroke-miterlimit:4;stroke-dasharray:none;stroke-opacity:1" id="path2354" />
         </g>
         <g id="g2356" transform="scale(1,-1)" style="stroke-width:2.25;stroke-miterlimit:4;stroke-dasharray:none">
            <path d="m 756.352,-621.863 c 0.785,0.656 0.601,2.832 0.39,4.074 -0.43,1.281 -0.98,2.719 -2.137,3.519 -1.113,1.079 -2.558,2.071 -4.148,2.247 -1.902,0.16 -4.574,0.046 -5.152,-2.219 -0.434,-1.531 -0.977,-3.086 -0.707,-4.707 0.148,-1.028 0.187,-2.446 1.043,-3.113" style="fill:none;stroke:#000000;stroke-width:2.25;stroke-linecap:round;stroke-linejoin:round;stroke-miterlimit:4;stroke-dasharray:none;stroke-opacity:1" id="path2358" />
         </g>
         <g id="g2360" transform="scale(1,-1)" style="stroke-width:2.25;stroke-miterlimit:4;stroke-dasharray:none">
            <path d="m 793.84,-604.242 c 0.25,-7.43 -0.84,-19.059 -1.528,-26.188 l 0.016,-0.019" style="fill:none;stroke:#000000;stroke-width:2.25;stroke-linecap:round;stroke-linejoin:round;stroke-miterlimit:4;stroke-dasharray:none;stroke-opacity:1" id="path2362" />
         </g>
         <g id="g2364" transform="scale(1,-1)" style="stroke-width:2.25;stroke-miterlimit:4;stroke-dasharray:none">
            <path d="m 794.156,-604.09 c 5.887,0.348 11.793,0.945 17.524,1.496 0.062,0.02 1.851,0 2.047,-0.015" style="fill:none;stroke:#000000;stroke-width:2.25;stroke-linecap:round;stroke-linejoin:round;stroke-miterlimit:4;stroke-dasharray:none;stroke-opacity:1" id="path2366" />
         </g>
         <g id="g2368" transform="scale(1,-1)" style="stroke-width:2.25;stroke-miterlimit:4;stroke-dasharray:none">
            <path d="m 814.781,-594.824 c -0.687,-0.024 -0.027,-3.582 -0.562,-4.422 -0.063,-5.473 -0.625,-10.762 -0.125,-16.039 0.011,-0.086 0.238,-0.563 -0.156,-0.297" style="fill:none;stroke:#000000;stroke-width:2.25;stroke-linecap:round;stroke-linejoin:round;stroke-miterlimit:4;stroke-dasharray:none;stroke-opacity:1" id="path2370" />
         </g>
         <g id="g2372" transform="scale(1,-1)" style="stroke-width:2.25;stroke-miterlimit:4;stroke-dasharray:none">
            <path d="m 815.254,-594.93 c 14.594,0.7 150.777,6.696 167.391,7.086" style="fill:none;stroke:#000000;stroke-width:2.25;stroke-linecap:round;stroke-linejoin:round;stroke-miterlimit:4;stroke-dasharray:none;stroke-opacity:1" id="path2374" />
         </g>
         <g id="g2376" transform="scale(1,-1)" style="stroke-width:2.25;stroke-miterlimit:4;stroke-dasharray:none">
            <path d="m 814.047,-615.992 c 15.316,0.808 151.043,6.554 169.133,7.73" style="fill:none;stroke:#000000;stroke-width:2.25;stroke-linecap:round;stroke-linejoin:round;stroke-miterlimit:4;stroke-dasharray:none;stroke-opacity:1" id="path2378" />
         </g>
         <g id="g2380" transform="scale(1,-1)" style="stroke-width:2.25;stroke-miterlimit:4;stroke-dasharray:none">
            <path d="m 983.523,-608.273 c -0.128,3.902 0.028,9.941 -0.589,20.617" style="fill:none;stroke:#000000;stroke-width:2.25;stroke-linecap:round;stroke-linejoin:round;stroke-miterlimit:4;stroke-dasharray:none;stroke-opacity:1" id="path2382" />
         </g>
         <g id="g2384" transform="scale(1,-1)" style="stroke-width:2.25;stroke-miterlimit:4;stroke-dasharray:none">
            <path d="m 983.73,-593.039 c 2.332,-0.055 12.008,0.379 15.809,0.707" style="fill:none;stroke:#000000;stroke-width:2.25;stroke-linecap:round;stroke-linejoin:round;stroke-miterlimit:4;stroke-dasharray:none;stroke-opacity:1" id="path2386" />
         </g>
         <g id="g2388" transform="scale(1,-1)" style="stroke-width:2.25;stroke-miterlimit:4;stroke-dasharray:none">
            <path d="m 803.809,-656.668 c 14.75,3.973 172.203,12.434 184.664,14.027" style="fill:none;stroke:#000000;stroke-width:2.25;stroke-linecap:round;stroke-linejoin:round;stroke-miterlimit:4;stroke-dasharray:none;stroke-opacity:1" id="path2390" />
         </g>
         <g id="g2392" transform="scale(1,-1)" style="stroke-width:2.25;stroke-miterlimit:4;stroke-dasharray:none">
            <path d="m 803.738,-656.754 c -0.472,-1.484 -1,-13.723 -0.398,-18.141 -2.641,-8.847 9.941,-1.988 14.484,-3.355 55.184,4.699 111.082,11.855 164.215,14.277 0.168,-0.132 6.672,1.102 4.582,0.657" style="fill:none;stroke:#000000;stroke-width:2.25;stroke-linecap:round;stroke-linejoin:round;stroke-miterlimit:4;stroke-dasharray:none;stroke-opacity:1" id="path2394" />
         </g>
         <g id="g2396" transform="scale(1,-1)" style="stroke-width:2.25;stroke-miterlimit:4;stroke-dasharray:none">
            <path d="m 986.691,-663.875 c 1.586,6.641 1.137,13.543 2.254,20.246" style="fill:none;stroke:#000000;stroke-width:2.25;stroke-linecap:round;stroke-linejoin:round;stroke-miterlimit:4;stroke-dasharray:none;stroke-opacity:1" id="path2398" />
         </g>
         <g id="g2400" transform="scale(1,-1)" style="stroke-width:2.25;stroke-miterlimit:4;stroke-dasharray:none">
            <path d="m 888.562,-669.133 c 0.106,2.176 -0.441,4.371 -1.613,6.199 -0.676,1.903 -1.133,4.219 -3.062,5.258 -1.914,2.297 -4.407,5.317 -7.797,4.371" style="fill:none;stroke:#000000;stroke-width:2.25;stroke-linecap:round;stroke-linejoin:round;stroke-miterlimit:4;stroke-dasharray:none;stroke-opacity:1" id="path2402" />
         </g>
         <g id="g2404" transform="scale(1,-1)" style="stroke-width:2.25;stroke-miterlimit:4;stroke-dasharray:none">
            <path d="m 855.512,-653.242 c -4.84,-2.371 -8.2,-7.336 -8.824,-12.664 -0.59,-3.192 -1.719,-6.489 -0.821,-9.735 -0.008,0.336 -0.015,0.676 -0.031,1.012" style="fill:none;stroke:#000000;stroke-width:2.25;stroke-linecap:round;stroke-linejoin:round;stroke-miterlimit:4;stroke-dasharray:none;stroke-opacity:1" id="path2406" />
         </g>
         <g id="g2408" transform="scale(1,-1)" style="stroke-width:2.25;stroke-miterlimit:4;stroke-dasharray:none">
            <path d="m 904.27,-651.172 c -0.18,0.188 1.918,-1.07 1.906,-1.922 0.945,-1.301 0.695,-3.164 1.738,-4.5 0.727,-1.156 0.719,-2.472 1.02,-3.558 1.007,-1.145 1.058,-2.504 1.117,-3.883 -0.578,-0.684 0.734,-2.313 -0.332,-1.285" style="fill:none;stroke:#000000;stroke-width:2.25;stroke-linecap:round;stroke-linejoin:round;stroke-miterlimit:4;stroke-dasharray:none;stroke-opacity:1" id="path2410" />
         </g>
         <g id="g2412" transform="scale(1,-1)" style="stroke-width:2.25;stroke-miterlimit:4;stroke-dasharray:none">
            <path d="m 973.012,-662.414 c -0.328,-0.629 0.961,2.891 0.41,4.051 -0.113,2.027 -0.129,4.269 -1.164,6.164 -0.656,2.379 -2.438,4.562 -5.067,4.703 0.039,0.148 0.063,-0.059 0.016,0.207" style="fill:none;stroke:#000000;stroke-width:2.25;stroke-linecap:round;stroke-linejoin:round;stroke-miterlimit:4;stroke-dasharray:none;stroke-opacity:1" id="path2414" />
         </g>
         <g id="g2416" transform="scale(1,-1)" style="stroke-width:2.25;stroke-miterlimit:4;stroke-dasharray:none">
            <path d="m 925.445,-664.852 c -0.078,-0.761 -2.218,2.231 -2.195,3.438 -0.793,2.945 -0.805,6.289 0.34,9.082 0.637,1.848 2.066,3.559 3.14,4.094" style="fill:none;stroke:#000000;stroke-width:2.25;stroke-linecap:round;stroke-linejoin:round;stroke-miterlimit:4;stroke-dasharray:none;stroke-opacity:1" id="path2418" />
         </g>
         <g id="g2420" transform="scale(1,-1)" style="stroke-width:2.25;stroke-miterlimit:4;stroke-dasharray:none">
            <path d="m 804.309,-688.125 c 0.402,-4.348 2.129,-28.906 2.129,-28.906" style="fill:none;stroke:#000000;stroke-width:2.25;stroke-linecap:round;stroke-linejoin:round;stroke-miterlimit:4;stroke-dasharray:none;stroke-opacity:1" id="path2422" />
         </g>
         <g id="g2424" transform="scale(1,-1)" style="stroke-width:2.25;stroke-miterlimit:4;stroke-dasharray:none">
            <path d="m 807.488,-717.957 c 45.192,4.137 139.657,14.687 170.532,17.785 0.105,-0.457 6.371,1.027 4.296,0.113" style="fill:none;stroke:#000000;stroke-width:2.25;stroke-linecap:round;stroke-linejoin:round;stroke-miterlimit:4;stroke-dasharray:none;stroke-opacity:1" id="path2426" />
         </g>
         <g id="g2428" transform="scale(1,-1)" style="stroke-width:2.25;stroke-miterlimit:4;stroke-dasharray:none">
            <path d="m 983.016,-699.473 c 0.531,7.457 1.336,24.387 1.41,28.301" style="fill:none;stroke:#000000;stroke-width:2.25;stroke-linecap:round;stroke-linejoin:round;stroke-miterlimit:4;stroke-dasharray:none;stroke-opacity:1" id="path2430" />
         </g>
         <g id="g2432" transform="scale(1,-1)" style="stroke-width:2.25;stroke-miterlimit:4;stroke-dasharray:none">
            <path d="m 804.531,-688.164 c 5.625,0.043 168.832,16.332 179.524,17.066" style="fill:none;stroke:#000000;stroke-width:2.25;stroke-linecap:round;stroke-linejoin:round;stroke-miterlimit:4;stroke-dasharray:none;stroke-opacity:1" id="path2434" />
         </g>
         <g id="g2436" transform="scale(1,-1)" style="stroke-width:2.25;stroke-miterlimit:4;stroke-dasharray:none">
            <path d="m 807.27,-725.785 c 58.484,7.633 117.058,13.418 171.554,20.32" style="fill:none;stroke:#000000;stroke-width:2.25;stroke-linecap:round;stroke-linejoin:round;stroke-miterlimit:4;stroke-dasharray:none;stroke-opacity:1" id="path2438" />
         </g>
         <g id="g2440" transform="scale(1,-1)" style="stroke-width:2.25;stroke-miterlimit:4;stroke-dasharray:none">
            <path d="m 880.645,-670.512 c 0.878,2.821 -1.02,5.473 -2.657,7.59 -1.988,2.293 -4.883,3.633 -7.875,3.945 -2.66,0.504 -5.406,-0.535 -7.449,-2.222 -2.512,-1.231 -4.637,-3.496 -5.07,-6.332 -0.406,-1.942 -1.168,-4.309 0.172,-6.035 0.16,-0.289 0.406,-0.567 0.414,-0.918" style="fill:none;stroke:#000000;stroke-width:2.25;stroke-linecap:round;stroke-linejoin:round;stroke-miterlimit:4;stroke-dasharray:none;stroke-opacity:1" id="path2442" />
         </g>
         <g id="g2444" transform="scale(1,-1)" style="stroke-width:2.25;stroke-miterlimit:4;stroke-dasharray:none">
            <path d="m 944.812,-664.516 c -1.824,1.45 -2.816,3.942 -1.722,6.176 0.672,2.129 3.48,3.371 5.558,4.129 2.782,0.676 5.747,1.027 8.438,-0.164 2.23,-1.512 4.187,-2.73 5.25,-5.25 0.719,-1.145 -1.305,-2.445 -0.715,-3.145" style="fill:none;stroke:#000000;stroke-width:2.25;stroke-linecap:round;stroke-linejoin:round;stroke-miterlimit:4;stroke-dasharray:none;stroke-opacity:1" id="path2446" />
         </g>
         <g id="g2448" transform="scale(1,-1)" style="stroke-width:2.25;stroke-miterlimit:4;stroke-dasharray:none">
            <path d="m 840.57,-656.668 c -0.812,-0.711 -2.066,-1.148 -2.812,-2.152 -0.664,-1.172 -1.617,-2.285 -1.832,-3.582 -0.176,-1.508 -0.602,-3.012 -0.535,-4.571 0.347,-1.265 -0.473,-3.746 -0.024,-4.203" style="fill:none;stroke:#000000;stroke-width:2.25;stroke-linecap:round;stroke-linejoin:round;stroke-miterlimit:4;stroke-dasharray:none;stroke-opacity:1" id="path2450" />
         </g>
         <g id="g2452" transform="scale(1,-1)" style="stroke-width:2.25;stroke-miterlimit:4;stroke-dasharray:none">
            <path d="m 834.859,-670.48 c -0.414,0.765 0.137,2.308 -0.136,3.382 -0.196,2.391 -0.321,4.907 0.707,7.145 0.414,1.387 0.972,2.746 1.984,3.734 1.035,0.492 -1.09,0.36 -1.695,-0.019" style="fill:none;stroke:#000000;stroke-width:2.25;stroke-linecap:round;stroke-linejoin:round;stroke-miterlimit:4;stroke-dasharray:none;stroke-opacity:1" id="path2454" />
         </g>
         <g id="g2456" transform="scale(1,-1)" style="stroke-width:2.25;stroke-miterlimit:4;stroke-dasharray:none">
            <path d="m 833.965,-656.891 c -1.563,-0.73 -3.172,-1.867 -3.629,-3.601 -0.465,-1.43 -1.16,-2.938 -1.324,-4.52 -0.203,-1.535 -0.512,-3.039 -0.524,-4.586 -0.39,-1.414 0.074,-2.882 -0.242,-4.175 -0.125,0.648 -1.223,2.656 -1.09,3.929 -0.41,1.813 0.059,3.703 -0.121,5.59 -0.097,2.094 0.18,4.172 0.195,6.258 -0.14,0.711 0.387,1.332 0.262,2.027" style="fill:none;stroke:#000000;stroke-width:2.25;stroke-linecap:round;stroke-linejoin:round;stroke-miterlimit:4;stroke-dasharray:none;stroke-opacity:1" id="path2458" />
         </g>
         <g id="g2460" transform="scale(1,-1)" style="stroke-width:2.25;stroke-miterlimit:4;stroke-dasharray:none">
            <path d="m 827.703,-655.867 c -0.043,-1.586 -0.254,-3.285 -1.496,-4.41 -0.574,-1.2 -1.203,-2.371 -1.82,-3.578 -0.383,-1.239 -0.758,-2.442 -0.973,-3.735 -0.277,-1.601 -1.012,-3.09 -1.492,-4.617 0.734,0.031 -0.262,0.137 -0.422,0.953 -0.945,1.379 -1.25,3.254 -0.684,4.816 0.465,1.907 1.2,3.817 0.93,5.813 0.176,1.246 0.133,2.48 0.113,3.738 0.532,-0.34 0.129,-2.101 -0.98,-2.148 -1.258,-0.863 -1.84,-2.387 -2.426,-3.785 -0.812,-1.629 -0.891,-3.5 -1.16,-5.27 -0.109,-1.426 -0.234,-2.855 -0.074,-4.281 -0.262,-1.18 0.586,-3.215 0.742,-3.746 -1.082,1.824 -1.902,3.765 -2.996,5.59 -0.379,1.422 -0.32,3.015 -0.164,4.5 0.281,2.734 0.461,5.519 0.457,8.242 0.09,0.582 0.879,3.035 0.824,1.277 -0.52,-1.609 -1.738,-2.953 -2.773,-4.246 -1.024,-1.308 -1.473,-2.953 -1.668,-4.582 -0.051,-1.852 0.16,-3.703 0.113,-5.559 -0.219,-1.031 0.254,-1.878 0.875,-2.718 -0.508,-0.617 -0.102,-0.867 -0.695,-0.067 -1.321,1.727 -2.496,3.645 -2.801,5.836 -0.199,1.582 -0.774,3.137 -0.684,4.746 -0.547,1.524 -0.742,3.149 -0.508,4.762 0.497,1.059 0.258,-1.219 0.313,-1.644 -0.301,-1.606 -0.465,-3.235 -0.711,-4.86 -0.238,-2.008 -0.145,-4.031 0.125,-6.027 -0.152,-1.348 -0.164,-2.723 -0.398,-4.059 -0.043,-0.543 -0.547,-0.957 -0.961,-0.738" style="fill:none;stroke:#000000;stroke-width:2.25;stroke-linecap:round;stroke-linejoin:round;stroke-miterlimit:4;stroke-dasharray:none;stroke-opacity:1" id="path2462" />
         </g>
         <g id="g2464" transform="scale(1,-1)" style="stroke-width:2.25;stroke-miterlimit:4;stroke-dasharray:none">
            <path d="m 723.777,-620.973 c -2.847,1.86 -1.101,6.149 -0.773,8.996 1.008,2.977 1.234,6.348 3.226,8.895 1.383,0.922 2.473,2.781 0.301,0.855 -3.511,-2.875 -5.554,-7.027 -8.035,-10.73 -0.91,-2.816 -1.551,-5.996 0.059,-8.703 -0.692,-0.555 -2.688,4.289 -3.106,6.019 -1.457,4.071 -0.156,8.356 0.602,12.422 0.566,1.711 1.933,2.887 -0.082,0.934 -2.028,-2.996 -4.305,-6.055 -4.797,-9.731 -0.617,-2.773 -0.192,-5.894 0.812,-8.507 -1.316,0.789 -2.609,4.613 -2.449,6.906 -0.547,3.41 0.254,6.808 0.707,10.195 1.668,4.129 -0.43,-1.508 -0.789,-2.851 -1.019,-2.821 -2.101,-5.598 -3.262,-8.368 -1.121,-1.871 0.204,-5.711 0.129,-6.394 -2.508,2.57 -3.422,6.254 -4.179,9.656 -0.289,2.777 0.066,5.578 0.144,8.359 0.11,1.489 1.231,4.575 1.067,1.157 -0.793,-2.817 -2.938,-5.035 -4.094,-7.711 -1.363,-3.012 -2.449,-6.535 -1.07,-9.738 1.664,-3.704 -1.532,1.429 -1.938,2.796 -1.766,4.36 -2.531,9.391 -1,13.914 -2.391,-2.683 -2.473,-6.628 -3.148,-10.031 0.195,-2.207 -1.758,-6.144 0.699,-7.336" style="fill:none;stroke:#000000;stroke-width:2.25;stroke-linecap:round;stroke-linejoin:round;stroke-miterlimit:4;stroke-dasharray:none;stroke-opacity:1" id="path2466" />
         </g>
         <g id="g2468" transform="scale(1,-1)" style="stroke-width:2.25;stroke-miterlimit:4;stroke-dasharray:none">
            <path d="m 768.031,-603.945 c 1.805,-0.45 2.371,-2.157 3.102,-3.653 1.199,-3.082 0.406,-6.476 1.25,-9.632 0.215,-0.727 0.738,-2.879 0.519,-2.696 0.465,2.383 0.918,4.91 -0.043,7.242 -0.769,1.235 -1.066,2.664 -1.656,3.977 -1.308,2.078 -1.574,4.645 -3.019,6.66 -1.372,1.246 1.437,0.457 2.211,0.371 1.062,-0.863 2.527,-1.32 3.187,-2.625 1.445,-1.351 2.996,-2.887 3.152,-4.988 0.09,-0.609 0.774,-3.363 -0.617,-2.473" style="fill:none;stroke:#000000;stroke-width:2.25;stroke-linecap:round;stroke-linejoin:round;stroke-miterlimit:4;stroke-dasharray:none;stroke-opacity:1" id="path2470" />
         </g>
         <g id="g2472" transform="scale(1,-1)" style="stroke-width:2.25;stroke-miterlimit:4;stroke-dasharray:none">
            <path d="m 884.406,-655.832 c 0.789,-0.27 1.098,0.391 1.203,0.203 1.637,-0.59 2.946,-1.848 4.047,-3.148 1.141,-1.446 2.067,-2.836 2.406,-4.645 0.446,-1.058 0.786,-2.805 1.336,-3.418 -0.285,1.207 1.098,3.156 0.532,4.754 -0.246,1.387 -0.621,2.801 -1.41,3.981 -0.325,1.312 -1.832,2.066 -2.098,3.5 -0.184,0.46 -2.281,1.828 -1.563,1.523 1.539,-0.348 2.817,-1.504 4.293,-2.098 2.821,-1.113 5.168,-3.148 6.973,-5.558 0.867,-0.907 1.488,-2.219 1.801,-3.395 0.086,-0.855 0.222,-1.762 -0.348,-0.586 -0.016,1.742 -0.832,3.434 -1.414,5.078 -0.586,1.657 -1.277,3.27 -2.129,4.809 -0.238,0.875 -1.418,2.793 -1.637,2.754 1.075,-0.32 2.637,-1.172 3.731,-1.969 0.855,-1.129 2.199,-1.746 3.105,-2.851 1.121,-1.207 2.274,-2.379 3.055,-3.856 1.043,-1.457 1.273,-3.281 1.535,-5.012 0.184,-1.468 -0.644,1.051 -0.902,1.739 -0.535,1.675 -0.676,3.382 -1.149,5.058 -0.746,1.574 -1.449,3.176 -2.41,4.668 -0.406,0.664 -1.332,2.567 -1.379,2.375 l 0.114,-0.105" style="fill:none;stroke:#000000;stroke-width:2.25;stroke-linecap:round;stroke-linejoin:round;stroke-miterlimit:4;stroke-dasharray:none;stroke-opacity:1" id="path2474" />
         </g>
         <g id="g2476" transform="scale(1,-1)" style="stroke-width:2.25;stroke-miterlimit:4;stroke-dasharray:none">
            <path d="m 922.598,-651.305 c -1.364,-0.574 -3.305,-1.019 -3.422,-2.832 -0.59,-1.625 -0.289,-3.383 -0.031,-5.07 0.496,-1.535 0.769,-3.02 1.585,-4.512 1.008,-1.328 -0.757,0.434 -1.019,1.02 -0.867,1.422 -1.242,3.117 -1.227,4.769 -0.695,1.649 -0.574,3.434 -0.824,5.145 -0.222,0.738 -0.226,3.387 0.184,3.097 0.394,-1.492 0.289,-2.925 -0.598,-4.304 -0.578,-1.465 -1.871,-2.696 -1.808,-4.36 -0.696,-1.609 -0.227,-3.527 0.199,-4.89 0.855,-0.555 2.746,-1.653 1.379,-0.813 -1.325,1.676 -2.52,3.555 -3.352,5.535 -0.082,1.848 -0.992,3.508 -1.437,5.274 -0.45,0.769 -0.36,3.101 -0.719,3.012 -0.504,-0.793 -0.875,-2.34 -0.863,-3.551 -0.184,-2.867 -0.149,-5.805 0.687,-8.57 -0.078,-1.079 0.84,-2.903 1.813,-3.02 -0.125,0.309 -0.028,0.664 -0.2,0.977" style="fill:none;stroke:#000000;stroke-width:2.25;stroke-linecap:round;stroke-linejoin:round;stroke-miterlimit:4;stroke-dasharray:none;stroke-opacity:1" id="path2478" />
         </g>
         <g id="g2480" transform="scale(1,-1)" style="stroke-width:2.25;stroke-miterlimit:4;stroke-dasharray:none">
            <path d="m 972.922,-649.309 c 0.094,-1.48 1.93,-1.769 2.433,-3.082 0.688,-1.261 0.891,-2.414 0.786,-3.855 0.086,-1.59 0.101,-3.188 0.027,-4.777 -0.055,-0.34 -0.164,-1.957 -0.227,-1.454 -0.214,-0.199 1.004,1.309 0.977,2.051 0.906,1.399 0.105,3.114 -0.051,4.641 0.188,1.238 -0.273,2.582 -0.461,3.867 -0.07,1.449 -1.539,2.094 -1.976,3.293 -0.551,0.336 -1.067,1.246 -0.313,0.477 1.004,-1.133 2.004,-2.274 2.942,-3.45 0.586,-1.238 1.656,-2.211 2.027,-3.547 0.406,-1.05 0.715,-2.14 0.855,-3.253 0.414,-1.321 0.598,-2.778 0.282,-4.153 -0.262,-0.496 -0.473,1.481 -0.274,2.301 0.196,2.031 0.254,4.109 -0.363,6.078 -0.195,1.629 -0.77,3.246 -0.789,4.86 -0.211,0.664 -1.285,2.183 -0.559,1.699 0.559,-1.012 1.578,-1.617 2.289,-2.578 0.551,-1.055 1.571,-1.871 1.746,-3.114 0.485,-1.34 0.528,-2.793 0.754,-4.164 0.383,-1.414 0.532,-2.886 0.582,-4.336 -0.242,-0.472 0.395,-1.687 -0.14,-1.468 0.144,1.789 0.219,3.531 -0.004,5.277 -0.231,1.348 0.062,2.672 -0.332,3.976 -0.567,1.34 -0.383,2.848 -0.934,4.2 -0.539,1.328 -0.32,2.843 -0.945,4.156 -0.328,0 1.16,-1.328 1.719,-1.457 1.023,-0.742 2.367,-1.238 2.863,-2.516 0.598,-1.281 1.625,-2.691 1.254,-4.113 -0.012,-0.863 -0.043,-1.68 -0.238,-0.527 -0.321,1.398 -1.11,2.644 -1.641,3.976 -0.527,1.082 -0.59,2.406 -0.59,3.516 0.539,-0.207 0.848,-1.258 1.481,-1.258" style="fill:none;stroke:#000000;stroke-width:2.25;stroke-linecap:round;stroke-linejoin:round;stroke-miterlimit:4;stroke-dasharray:none;stroke-opacity:1" id="path2482" />
         </g>
         <g id="g2484" transform="scale(1,-1)" style="stroke-width:2.25;stroke-miterlimit:4;stroke-dasharray:none">
            <path d="m 696.961,-682.477 c -0.637,10.235 -1,45.555 -1.215,50.524" style="fill:none;stroke:#000000;stroke-width:2.25;stroke-linecap:round;stroke-linejoin:round;stroke-miterlimit:4;stroke-dasharray:none;stroke-opacity:1" id="path2486" />
         </g>
      </g>
   </g>
</svg>
