<?xml version="1.0" encoding="UTF-8" standalone="no"?>
<!-- Created by Ashley Blewer - This work is licensed under a Creative Commons Attribution 4.0 International License -->

<svg width="544" height="480" viewBox="0 0 143.93334 127" version="1.1" id="svg2490" inkscape:version="1.1.2 (08b2f3d93c, 2022-04-05)" sodipodi:docname="1988-d2-1.svg"
   xmlns:inkscape="http://www.inkscape.org/namespaces/inkscape"
   xmlns:sodipodi="http://sodipodi.sourceforge.net/DTD/sodipodi-0.dtd"
   xmlns="http://www.w3.org/2000/svg"
   xmlns:svg="http://www.w3.org/2000/svg">
   <sodipodi:namedview id="namedview2492" pagecolor="#ffffff" bordercolor="#666666" borderopacity="1.0" inkscape:pageshadow="2" inkscape:pageopacity="0.0" inkscape:pagecheckerboard="0" inkscape:document-units="mm" showgrid="false" units="px" inkscape:zoom="0.90583674" inkscape:cx="272.67607" inkscape:cy="177.18425" inkscape:window-width="1848" inkscape:window-height="1136" inkscape:window-x="72" inkscape:window-y="27" inkscape:window-maximized="1" inkscape:current-layer="layer1" />
   <defs id="defs2487" />
   <g inkscape:label="Layer 1" inkscape:groupmode="layer" id="layer1">
      <g id="g2825" transform="matrix(0.49259613,0,0,0.49254553,-151.76873,-26.425256)" style="stroke-width:0.855356">
         <g id="g48" transform="scale(1,-1)" style="stroke-width:0.855356">
            <path d="m 350.164,-201.828 c 1.20788,-10.36844 4.11011,-20.46551 5.11703,-30.863 0.44788,-0.11863 -0.09,-1.71994 0.461,-0.7273" style="fill:none;stroke:#000000;stroke-width:2.23708;stroke-linecap:round;stroke-linejoin:round;stroke-miterlimit:10;stroke-dasharray:none;stroke-opacity:1" id="path50" />
         </g>
         <g id="g52" transform="scale(1,-1)" style="stroke-width:0.855356">
            <path d="m 355.355,-233.762 c 22.53888,-22.40436 49.90834,-44.85953 74.02843,-65.47701 6.24995,-4.45393 14.52027,-1.8712 20.34357,1.98901" style="fill:none;stroke:#000000;stroke-width:2.23708;stroke-linecap:round;stroke-linejoin:round;stroke-miterlimit:10;stroke-dasharray:none;stroke-opacity:1" id="path54" sodipodi:nodetypes="ccc" />
         </g>
         <g id="g56" transform="scale(1,-1)" style="stroke-width:0.855356">
            <path d="m 449.727,-297.25 c 13.35113,6.42429 25.37898,17.67786 37.7872,25.71964 26.65271,19.02423 53.76189,37.57803 79.67916,57.52565 1.0685,1.89774 1.01764,6.11771 1.01764,6.11771" style="fill:none;stroke:#000000;stroke-width:2.23708;stroke-linecap:round;stroke-linejoin:round;stroke-miterlimit:10;stroke-dasharray:none;stroke-opacity:1" id="path58" sodipodi:nodetypes="cccc" />
         </g>
         <g id="g60" transform="scale(1,-1)" style="stroke-width:0.855356">
            <path d="m 351.664,-204.957 c 2.84324,-1.65968 7.8936,-6.20285 11.72016,-8.69516 21.341,-16.47687 41.8415,-34.05437 63.61936,-49.95675 5.58574,-3.47322 13.63126,-3.45673 18.40677,1.5599 0.51457,0.27603 0.38311,0.21008 0.25771,0.75201" style="fill:none;stroke:#000000;stroke-width:2.23708;stroke-linecap:round;stroke-linejoin:round;stroke-miterlimit:10;stroke-dasharray:none;stroke-opacity:1" id="path62" />
         </g>
         <g id="g64" transform="scale(1,-1)" style="stroke-width:0.855356">
            <path d="m 445.668,-261.297 c 41.39122,27.84868 88.12224,51.00965 126.828,82.805 -6.5503,7.56374 -18.51171,13.32266 -27.17091,17.8229" style="fill:none;stroke:#000000;stroke-width:2.23708;stroke-linecap:round;stroke-linejoin:round;stroke-miterlimit:10;stroke-dasharray:none;stroke-opacity:1" id="path66" sodipodi:nodetypes="ccc" />
         </g>
         <g id="g68" transform="scale(1,-1)" style="stroke-width:0.855356">
            <path d="m 568.211,-207.887 c 0,0 1.28621,13.87629 2.88511,21.02963 0.4403,2.82178 1.19027,5.54336 1.39989,8.36537" style="fill:none;stroke:#000000;stroke-width:2.23708;stroke-linecap:round;stroke-linejoin:round;stroke-miterlimit:10;stroke-dasharray:none;stroke-opacity:1" id="path70" sodipodi:nodetypes="ccc" />
         </g>
         <g id="g72" transform="scale(1,-1)" style="stroke-width:0.855356">
            <path d="m 384.465,-187.801 c -0.0388,0.24091 -0.12739,5.48816 -1.086,7.004 -3.22933,0.76735 -0.04,-5.16839 0.11098,-6.99391 -0.13938,-2.34426 -2.18706,7.46978 -0.64701,2.89475 0.45427,-2.57067 -0.15987,-4.15312 -3.22778,-3.52138 -2.35732,-0.0121 -4.48392,1.91788 -4.33263,4.23058 -2.74093,19.36824 -4.0532,38.94538 -5.84856,58.38196 -0.0747,1.48029 -0.81753,4.17258 0.0538,4.52265 2.39163,1.77779 -1.5633,4.91441 -1.56572,7.44458 -1.41131,10.68697 -4.14157,21.40734 -3.37642,32.231197 -0.19269,1.681061 0.86996,3.344454 1.2175,5.369791 0.44558,2.5877 1.56034,3.662603 2.33885,5.631782" style="fill:none;stroke:#000000;stroke-width:2.23708;stroke-linecap:round;stroke-linejoin:round;stroke-miterlimit:10;stroke-dasharray:none;stroke-opacity:1" id="path74" />
         </g>
         <g id="g76" transform="scale(1,-1)" style="stroke-width:0.855356">
            <path d="m 367.812,-69.582 -0.003,-0.008 -0.016,0.012 -0.02,0.016 -0.027,0.019 -0.019,0.027 -0.09,0.02 -0.051,-0.02 0.082,-0.05 0.008,0.027 0.015,-0.027 0.012,-0.008 0.07,-0.02 0.168,0.008 -0.007,-0.016 -0.09,-0.019 0.031,0.004 h 0.035 l 0.004,0.008 -0.016,0.004 h -0.011 l 0.07,-0.012 0.055,0.023 0.05,-0.023 0.047,-0.004 0.098,0.012 0.02,0.031 -0.028,0.004 0.086,-0.031 0.082,-0.004 h 0.071 l 0.07,-0.004 0.101,-0.051 0.09,-0.02 0.02,0.039 0.054,0.004 0.063,-0.015 h 0.269 l 0.114,-0.016 0.109,-0.004 0.117,-0.004 0.055,-0.019 0.055,-0.024 0.109,-0.011 0.125,0.011 0.117,-0.023 0.106,-0.004 0.097,-0.004 0.141,-0.016 c 56.348,1.969 112.84,3.653 173.656,3.75 h 0.356 l 0.09,-0.035 0.093,-0.031 0.18,0.016 0.16,0.019 h 0.004 l 0.047,0.008 0.059,0.004 0.058,-0.012 h -0.144 l -0.036,0.024 0.114,-0.024 h 0.054 l 0.071,0.008 0.031,0.063 0.059,0.011 0.054,-0.051 -0.004,0.008 h -0.004 l -0.011,0.012 -0.012,0.004 -0.016,-0.027 -0.136,-0.004 -0.039,0.015 0.035,-0.015 -0.02,0.004 v 0.011 l 0.016,0.012 -0.008,-0.02 -0.019,0.004 0.015,-0.004 0.02,0.012 0.023,-0.004 0.004,0.004 0.051,0.008 0.008,-0.012 h -0.036 v -0.004 l 0.008,-0.004 0.086,-0.019 0.078,-0.008 -0.05,0.004 -0.04,-0.004 -0.003,-0.019 -0.028,0.007 0.016,-0.015 -0.031,0.054 -0.059,0.032 0.035,-0.051 0.031,-0.027 0.004,-0.016 h 0.024 l 0.187,-0.027 0.18,-0.012 -0.125,0.016 -0.09,-0.024 -0.027,-0.039 -0.008,-0.016 -0.016,-0.05 0.012,0.015 0.039,0.024 0.051,-0.012 0.039,-0.023 0.019,0.003 0.024,0.012 0.043,-0.008 h 0.082 l 0.035,-0.004 0.023,0.008" style="fill:none;stroke:#000000;stroke-width:2.23708;stroke-linecap:round;stroke-linejoin:round;stroke-miterlimit:10;stroke-dasharray:none;stroke-opacity:1" id="path78" />
         </g>
         <g id="g80" transform="scale(1,-1)" style="stroke-width:0.855356">
            <path d="m 545.98,-66.598 c -0.10103,-0.478482 0.30976,-1.661292 0.87109,-2.176028 0.86606,-0.656434 1.14327,-1.795078 1.83061,-2.615131 0.76733,-0.908462 1.33105,-1.984294 2.32781,-2.680114 0.0367,-0.06332 1.25602,-2.288866 0.82249,-2.059727" style="fill:none;stroke:#000000;stroke-width:2.23708;stroke-linecap:round;stroke-linejoin:round;stroke-miterlimit:10;stroke-dasharray:none;stroke-opacity:1" id="path82" sodipodi:nodetypes="ccccc" />
         </g>
         <g id="g84" transform="scale(1,-1)" style="stroke-width:0.855356">
            <path d="m 551.797,-76.48 c 0.34347,-2.432618 1.03011,-8.068254 0.53171,-11.65071 -0.62295,-7.916784 -2.7556,-15.61105 -3.68371,-23.48629 -1.19758,-0.67168 -2.03221,-4.43345 0.0388,-5.40167 2.31339,2.15789 0.13353,-3.28824 0.78289,-4.67682 -0.19393,-18.95325 -6.01823,-37.49841 -5.50702,-56.43713 -0.004,-2.85365 -4.02241,-2.28453 -5.83871,-2.07838 0.1202,1.64225 0.88131,7.27688 -1.226,6.66 -0.91921,-1.91227 0.35811,-6.19905 -0.207,-6.531" style="fill:none;stroke:#000000;stroke-width:2.23708;stroke-linecap:round;stroke-linejoin:round;stroke-miterlimit:10;stroke-dasharray:none;stroke-opacity:1" id="path86" />
         </g>
         <g id="g88" transform="scale(1,-1)" style="stroke-width:0.855356">
            <path d="m 380.227,-188.047 -0.012,-0.004 -0.074,0.004 -0.063,-0.004 -0.039,-0.004 h -0.023 0.023 l 0.063,0.004 0.125,-0.019 0.144,-0.032 0.129,0.012 h 0.105 l 0.243,-0.035 0.211,-0.016 0.035,-0.007 0.086,-0.012 0.105,-0.008 0.106,-0.004 0.132,0.012 0.141,-0.008 h 0.113 l 0.09,0.023 0.09,0.008 0.113,0.043 0.118,0.02 0.062,-0.02 h 0.094 l 0.109,0.004 h 0.121 l 0.102,-0.019 0.078,-0.004 0.008,0.015 0.066,0.016 0.152,-0.012 0.133,-0.027 0.11,-0.008 0.129,-0.019 0.179,-0.028 c 52.625,4.598 105.68,2.145 155.953,7.18 l 0.204,0.012 0.199,-0.012 0.039,0.043 0.105,0.015 0.211,0.004 0.215,0.043 h 0.176 l 0.172,0.028 0.168,0.043 0.304,0.004 0.25,0.004 0.035,0.027 0.106,0.039 0.141,0.016 0.117,0.011 0.086,0.008 0.109,0.004 0.109,0.023 0.063,0.008 0.047,0.031 0.039,0.016 0.023,-0.012 h -0.019 l -0.024,0.004 -0.015,-0.004 -0.004,0.012 -0.024,-0.016 -0.027,-0.003 h -0.105 l -0.047,-0.024 0.043,-0.012 -0.047,-0.007 -0.02,0.023 -0.019,-0.004 -0.008,-0.008 0.031,-0.008 -0.035,-0.011 -0.047,-0.004 -0.004,-0.004 0.004,0.016 0.012,-0.004 -0.16,-0.004 h -0.114 l 0.129,-0.02 0.039,-0.047 0.016,-0.007 0.02,-0.024 0.058,0.004 0.086,0.004 0.027,0.008 -0.007,0.011 0.004,0.012 0.007,0.02 0.024,0.004 0.035,0.007 0.027,0.043 0.035,0.059 0.051,0.039 0.207,0.035 0.137,0.09 -0.012,0.086 0.028,0.082 -0.039,0.078" style="fill:none;stroke:#000000;stroke-width:2.23708;stroke-linecap:round;stroke-linejoin:round;stroke-miterlimit:10;stroke-dasharray:none;stroke-opacity:1" id="path90" />
         </g>
         <g id="g92" transform="scale(1,-1)" style="stroke-width:0.855356">
            <path d="m 458.176,-182.262 c -0.14903,-0.28423 0.0551,-0.8058 0.23694,-0.33911 0.0741,0.6016 0.57982,1.60687 0.14804,2.36514 -0.14593,0.66207 -0.42057,1.16034 -0.61712,1.78555 0.48669,0.56638 0.49684,1.54068 1.42028,1.66195 0.73969,0.1771 1.43945,0.49249 2.20758,0.56013 0.12991,0.083 1.0044,0.0789 0.47901,-0.0131 0.52438,-0.0733 -0.45963,-0.62254 0.11397,-0.79066 -0.50093,-0.61107 -0.32834,-1.41632 -0.54237,-2.10248 -0.51401,-0.66436 -0.21889,-1.53493 -0.20522,-2.17699 0.64233,-0.36262 -0.71636,-0.41423 -0.003,-0.73276 0.31522,-0.0659 0.5012,-0.87069 0.0266,-0.70895 0.60806,0.10097 -0.7814,0.13781 -1.12575,0.6245 -0.68603,0.35156 -0.58923,1.27198 -1.18954,1.67633 -0.39796,0.0904 -0.71324,1.34029 -0.33054,0.68325 0.26563,-0.67835 0.89429,-1.341 0.70413,-2.10629 0.32281,-0.38942 0.59071,-0.85124 0.32487,-1.29662 0.36446,-0.72315 -0.23523,0.45306 -0.4703,0.59971 -0.22464,0.70262 -0.21188,1.62471 0.26187,2.25448 -0.11001,0.82579 -0.25645,1.73514 0.17769,2.48716 0.0828,0.30909 -0.36019,1.01553 -0.20129,0.3023 0.39873,-0.64965 0.40791,-1.4505 0.63956,-2.0743 0.28518,-0.6032 0.66347,-1.15617 0.7944,-1.81161 0.38628,-0.62622 -0.24078,-1.39902 -0.90833,-1.00393 -0.13505,0.0402 -0.26711,0.0897 -0.39784,0.14212" style="fill:none;stroke:#000000;stroke-width:2.23708;stroke-linecap:round;stroke-linejoin:round;stroke-miterlimit:10;stroke-dasharray:none;stroke-opacity:1" id="path94" />
         </g>
         <g id="g96" transform="scale(1,-1)" style="stroke-width:0.855356">
            <path d="m 367.777,-76.715 c 61.48613,-0.722096 121.60803,4.977215 183.09,2.875" style="fill:none;stroke:#000000;stroke-width:2.23708;stroke-linecap:round;stroke-linejoin:round;stroke-miterlimit:10;stroke-dasharray:none;stroke-opacity:1" id="path98" sodipodi:nodetypes="cc" />
         </g>
         <g id="g100" transform="scale(1,-1)" style="stroke-width:0.855356">
            <path d="m 409.516,-78.402 c 0.0973,-5.572717 2.53222,-7.199744 8.96105,-6.577627 15.04946,-0.138113 30.09312,0.267978 45.11396,1.168324 12.29525,0.628373 24.62911,0.354811 36.87723,1.71382 4.08256,0.112835 12.69997,-1.395961 8.69137,5.215443 -0.50938,1.068712 -1.12858,2.08362 -1.57361,3.18304" style="fill:none;stroke:#000000;stroke-width:2.23708;stroke-linecap:round;stroke-linejoin:round;stroke-miterlimit:10;stroke-dasharray:none;stroke-opacity:1" id="path102" sodipodi:nodetypes="cccccc" />
         </g>
         <g id="g104" transform="scale(1,-1)" style="stroke-width:0.855356">
            <path d="m 365.652,-94.281 c 8.93013,-1.487297 18.2441,1.494815 26.907,-0.477 -0.61282,-4.867975 8.49108,-1.812348 12.22894,-3.01242 41.39854,-0.968642 82.67804,3.814292 124.06406,4.02442 1.5517,6.887937 13.35838,4.836644 19.64921,5.540404 1.82026,-0.302873 1.83516,0.357709 3.39635,-0.470404" style="fill:none;stroke:#000000;stroke-width:2.23708;stroke-linecap:round;stroke-linejoin:round;stroke-miterlimit:10;stroke-dasharray:none;stroke-opacity:1" id="path106" sodipodi:nodetypes="cccccc" />
         </g>
         <g id="g108" transform="scale(1,-1)" style="stroke-width:0.855356">
            <path d="m 534.758,-97.094 c -0.44881,0.413655 -1.22566,0.586676 -1.38605,1.176035 -0.20799,1.134859 0.42081,2.479459 1.59649,2.774433 0.48821,0.04743 1.70606,0.01749 1.59944,-0.6179 0.18113,-1.275085 -0.97288,-2.411551 -2.20707,-2.454473 -0.70423,-0.126356 -0.96792,0.311573 -0.37942,0.73315 0.44798,0.563379 1.37225,0.414285 1.92144,0.09022 0.69401,-0.699991 -0.51361,-1.123394 -1.08943,-1.140479 -0.47086,-0.06807 -0.93584,-0.07852 -1.41144,-0.04499" style="fill:none;stroke:#000000;stroke-width:2.23708;stroke-linecap:round;stroke-linejoin:round;stroke-miterlimit:10;stroke-dasharray:none;stroke-opacity:1" id="path110" />
         </g>
         <g id="g112" transform="scale(1,-1)" style="stroke-width:0.855356">
            <path d="m 388.113,-99.758 v -0.004 h 0.039 l 0.008,-0.035 -0.012,-0.043 0.004,-0.031 0.016,-0.035 0.012,-0.028 h 0.004 l 0.004,0.012 0.003,0.004 v -0.016 l 0.016,-0.027 0.004,-0.039 0.074,-0.055 -0.07,-0.007 -0.074,0.007 0.05,-0.035 0.004,-0.012 0.004,-0.019 -0.011,-0.016 0.203,-0.008 0.082,-0.039 -0.145,-0.004 -0.07,-0.027 -0.047,-0.012 -0.035,-0.003 -0.063,-0.04 -0.086,-0.031 -0.047,-0.027 -0.039,-0.02 -0.027,-0.043 -0.039,-0.043 -0.051,-0.031 -0.039,-0.082 -0.004,-0.09 -0.008,-0.054 -0.031,-0.047 -0.027,-0.059 -0.043,-0.043 -0.016,-0.031 -0.023,-0.027 -0.028,-0.059 -0.035,-0.023 -0.023,-0.028 -0.055,-0.054 -0.105,-0.024 -0.071,-0.008 0.02,-0.008 -0.008,-0.007 v 0.011 h 0.016 l -0.055,0.02 -0.051,0.012 0.028,-0.004 -0.004,0.035 -0.012,-0.027 -0.004,0.039 -0.023,0.039 -0.016,0.011 -0.055,0.028 -0.101,0.011 -0.063,0.039 -0.066,0.028 -0.082,0.047 -0.129,0.039 -0.121,0.043 -0.098,0.058 -0.105,0.075 -0.106,0.085 -0.125,0.094 -0.043,0.082 -0.133,0.094 -0.175,0.062 -0.047,0.067 -0.086,0.066 -0.067,0.051 -0.07,0.047 0.082,0.047 -0.015,0.062 -0.141,0.032 -0.074,0.046 -0.067,0.047 -0.062,0.051 -0.067,0.02 -0.043,0.027 -0.031,0.066 -0.012,0.059 -0.019,0.07 v 0.047 l -0.008,0.043 0.106,0.047 0.086,0.066 -0.059,0.039 0.023,0.036 0.032,0.058 0.015,0.043 0.028,0.047 0.039,0.043 0.019,0.039 0.028,0.043 0.05,0.055 0.043,0.043 0.055,0.031 0.016,0.008 0.046,0.031 0.09,0.051 0.086,0.043 0.086,0.039 0.067,0.047 0.07,0.054 0.101,0.024 0.129,0.012 0.129,0.023 0.133,0.023 0.149,-0.007 0.191,0.011 0.215,-0.004 0.195,-0.019 0.172,-0.031 0.184,-0.035 0.199,-0.04 0.215,-0.039 0.101,-0.054 0.125,-0.071 0.227,-0.07 0.219,-0.043 0.187,-0.051 0.164,-0.043 0.234,-0.043 0.2,-0.062 0.047,-0.039 0.066,-0.047 0.047,-0.035 0.058,-0.039 0.063,-0.051 0.074,-0.02 0.027,-0.031 -0.046,-0.047 -0.024,-0.015 -0.012,-0.004 0.02,-0.035 -0.098,-0.036 -0.093,-0.011 v -0.024 l -0.024,-0.039 -0.047,-0.039 -0.043,-0.047 0.098,-0.023 0.012,-0.063 -0.141,-0.062 -0.062,-0.074 -0.079,-0.055 -0.074,-0.047 -0.125,-0.074 -0.133,-0.051 -0.039,-0.058 -0.086,-0.051 -0.101,-0.063 -0.086,-0.047 -0.094,-0.035 -0.133,-0.066 -0.133,-0.043 -0.113,-0.024 -0.121,-0.011 h -0.273 l -0.117,0.011 -0.137,0.008 h -0.176 l -0.184,0.028 -0.16,0.035 -0.152,0.035 -0.145,0.043 -0.105,0.047 -0.109,0.043 -0.145,0.062 -0.137,0.051 -0.101,0.07 -0.094,0.067 -0.16,0.07 -0.11,0.062 0.02,0.04 -0.043,0.074 -0.027,0.066 -0.032,0.082 0.043,0.094 0.063,0.105 -0.051,0.086 -0.098,0.078 -0.062,0.106 -0.059,0.078 -0.035,0.066 -0.09,0.067 -0.039,0.07 0.039,0.035 0.012,0.051 0.012,0.027 0.015,0.024 0.137,0.004 0.02,0.043 -0.055,0.008 0.055,0.019 0.019,-0.015 h 0.02 l 0.019,0.003 0.133,0.032 0.098,0.007 -0.024,-0.007 v 0.007 l 0.008,0.008 0.004,-0.015 -0.012,-0.016 0.016,0.008 h 0.07 l 0.043,0.004 0.043,-0.012 0.09,-0.008 0.078,-0.023 0.012,-0.024 0.055,-0.011 0.046,-0.012 0.063,-0.024 0.101,-0.007 0.059,-0.028 0.016,-0.019 0.043,-0.028 0.031,-0.015 0.016,-0.024 0.046,-0.011 0.039,-0.035 0.051,-0.036 0.039,0.008 0.032,-0.004 h 0.058 l 0.008,0.008 0.031,0.004 0.039,0.004 0.016,0.004 0.027,0.008 0.02,0.007" style="fill:none;stroke:#000000;stroke-width:2.23708;stroke-linecap:round;stroke-linejoin:round;stroke-miterlimit:10;stroke-dasharray:none;stroke-opacity:1" id="path114" />
         </g>
         <g id="g116" transform="scale(1,-1)" style="stroke-width:0.855356">
            <path d="m 459.887,-80.086 v -0.008 0.004 -0.019 l 0.004,-0.02 -0.008,-0.023 -0.031,-0.036 -0.012,-0.019 -0.012,-0.027 -0.008,-0.016 h -0.086 l -0.066,0.004 0.035,-0.004 0.024,-0.008 0.015,0.008 0.012,0.02 0.023,-0.016 0.035,-0.043 0.004,-0.016 h 0.004 l 0.008,0.004 0.004,-0.023 0.043,-0.028 0.113,-0.007 -0.011,0.011 -0.063,-0.007 -0.008,-0.024 -0.031,0.008 -0.012,0.027 -0.164,-0.011 -0.09,-0.047 0.102,0.007 h 0.059 l 0.011,-0.027 h 0.008 l 0.082,-0.004 0.02,0.004 h -0.055 v 0.024 h 0.012 -0.02 v 0.011 -0.004 l -0.008,-0.015 h -0.011 l -0.02,0.004 -0.019,-0.02 -0.036,0.047 -0.078,0.016 -0.027,-0.043 -0.004,-0.028 -0.012,-0.027 -0.008,-0.027 -0.05,-0.039 -0.098,-0.024 -0.012,0.012 v -0.012 l -0.031,-0.023 -0.019,-0.016 -0.032,0.008 -0.039,0.023 -0.031,-0.004 -0.031,0.016 -0.043,0.012 -0.035,0.011 -0.149,0.012 -0.121,0.035 0.02,0.02 0.007,0.027 -0.011,0.02 -0.039,0.023 -0.079,0.035 0.02,0.02 -0.02,0.043 -0.089,0.066 -0.098,0.031 -0.066,0.075 -0.067,0.058 -0.066,0.051 0.07,0.039 0.055,0.047 -0.106,0.039 -0.031,0.059 -0.019,0.054 0.003,0.039 -0.101,0.036 -0.074,0.015 0.078,0.035 0.074,0.051 0.031,0.047 0.032,0.043 0.109,0.039 0.113,0.059 0.024,0.058 0.039,0.043 0.047,0.059 0.062,0.054 0.106,0.086 0.007,0.063 0.075,0.016 0.148,0.023 0.109,0.051 0.118,0.027 0.105,0.035 0.105,0.043 0.106,0.016 0.094,0.004 0.105,0.015 0.086,0.004 0.094,-0.004 0.105,-0.007 0.082,-0.008 0.086,-0.008 0.114,-0.012 0.089,-0.011 0.086,-0.028 0.067,-0.031 0.078,-0.004 0.066,-0.008 0.039,-0.058 0.063,-0.059 0.051,-0.062 0.078,-0.067 0.027,-0.094 -0.051,-0.074 0.047,-0.047 0.117,-0.066 0.086,-0.102 0.055,-0.082 0.066,-0.09 0.192,-0.097 0.109,-0.106 -0.062,-0.066 -0.028,-0.094 -0.019,-0.066 -0.024,-0.059 -0.062,-0.078 0.019,-0.07 -0.035,-0.067 -0.105,-0.054 -0.094,-0.059 -0.086,-0.035 -0.07,-0.059 -0.102,-0.07 -0.113,-0.043 -0.113,-0.016 -0.11,-0.023 -0.097,-0.02 -0.121,-0.035 -0.079,-0.047 -0.066,-0.031 -0.109,0.008 -0.133,0.008 -0.129,0.008 -0.109,-0.004 -0.086,0.043 -0.168,0.023 -0.149,-0.019 v 0.007 l -0.101,0.008 -0.118,0.016 -0.105,0.012 -0.086,0.035 -0.086,0.039 -0.066,0.043 -0.055,0.039 -0.09,0.039 -0.105,0.043 -0.035,0.09 -0.071,0.074 -0.082,0.039 -0.062,0.062" style="fill:none;stroke:#000000;stroke-width:2.23708;stroke-linecap:round;stroke-linejoin:round;stroke-miterlimit:10;stroke-dasharray:none;stroke-opacity:1" id="path118" />
         </g>
         <g id="g120" transform="scale(1,-1)" style="stroke-width:0.855356">
            <path d="m 406.40482,-77.444836 c -0.92363,-8.308461 2.81158,-10.738906 10.66516,-10.197192 13.63871,-1.136633 27.3245,-1.009188 40.97403,-0.208548 15.07581,0.397125 30.02299,2.486757 45.0634,3.434883 5.87227,-1.213943 9.50614,3.054589 5.50786,8.191689 -0.32165,0.435383 -0.32059,1.091682 -0.80327,1.412004" style="fill:none;stroke:#000000;stroke-width:2.23708;stroke-linecap:round;stroke-linejoin:round;stroke-miterlimit:10;stroke-dasharray:none;stroke-opacity:1" id="path122" sodipodi:nodetypes="cccccc" />
         </g>
         <g id="g124" transform="scale(1,-1)" style="stroke-width:0.855356">
            <path d="m 395.887,-129.652 c -4.42893,-0.0952 -8.97525,0.69634 -8.63243,-6.58007 1.06792,-6.79096 2.32501,-20.47273 2.32501,-20.47273 0.28897,-7.07655 6.22242,-4.40778 10.39237,-4.78243 -5.65412,3.00266 -7.69611,10.68627 -8.39362,17.07342 -0.29451,5.03637 0.18079,15.63702 7.00649,14.73221 6.62222,-1.1465 13.19648,0.79234 19.7869,1.36597 6.558,0.72386 13.14985,2.35204 19.72718,2.20946 4.10398,-2.56404 5.19437,-9.32499 11.38552,-8.04571 8.77245,-0.88534 17.62972,-0.0313 26.26558,1.59688 2.39618,3.54962 4.85024,8.3186 10.04169,7.10244 14.95215,0.66448 29.98713,3.57107 44.92778,1.17771 2.4918,-4.97822 2.38871,-10.67417 0.88754,-15.91351 -1.7518,-4.85692 1.74167,-14.26699 -6.29815,-13.16843 -36.26359,-3.54914 -72.66467,-5.73209 -109.07092,-7.3177 -5.44023,-0.0732 -10.85989,-0.71469 -16.26599,-0.81274 -1.74409,0.14713 -3.46216,0.49507 -5.17496,0.84223" style="fill:none;stroke:#000000;stroke-width:2.23708;stroke-linecap:round;stroke-linejoin:round;stroke-miterlimit:10;stroke-dasharray:none;stroke-opacity:1" id="path126" sodipodi:nodetypes="ccccccccccccccccc" />
         </g>
         <g id="g128" transform="scale(1,-1)" style="stroke-width:0.855356">
            <path d="m 450.332,-135.578 c -0.13463,-0.56506 1.2819,-3.33255 1.41585,-4.86464 0.3034,-3.53721 0.002,-7.09743 0.29668,-10.62942 -0.39757,-2.07199 0.1782,-4.43901 -1.44908,-6.07364 -0.24183,-0.12404 -0.82539,-1.52142 -1.00919,-0.7993" style="fill:none;stroke:#000000;stroke-width:2.23708;stroke-linecap:round;stroke-linejoin:round;stroke-miterlimit:10;stroke-dasharray:none;stroke-opacity:1" id="path130" />
         </g>
         <g id="g132" transform="scale(1,-1)" style="stroke-width:0.855356">
            <path d="m 432.148,-127.785 c 5.76817,-4.98825 6.17462,-13.49634 5.08729,-20.50761 -1.45001,-4.49237 -4.43746,-7.56629 -7.08635,-11.45662" style="fill:none;stroke:#000000;stroke-width:2.23708;stroke-linecap:round;stroke-linejoin:round;stroke-miterlimit:10;stroke-dasharray:none;stroke-opacity:1" id="path134" sodipodi:nodetypes="ccc" />
         </g>
         <g id="g136" transform="scale(1,-1)" style="stroke-width:0.855356">
            <path d="m 499.949,-134.418 c 5.02896,1.84469 10.76188,-2.79747 8.93283,-8.16384 -1.38169,-5.59064 -10.4967,-9.04494 -13.3607,-2.77968 -1.53291,3.19075 1.9599,8.74642 4.42787,10.94352" style="fill:none;stroke:#000000;stroke-width:2.23708;stroke-linecap:round;stroke-linejoin:round;stroke-miterlimit:10;stroke-dasharray:none;stroke-opacity:1" id="path138" sodipodi:nodetypes="cccc" />
         </g>
         <g id="g140" transform="scale(1,-1)" style="stroke-width:0.855356">
            <path d="m 488.375,-126.113 c -3.68866,-4.40306 -6.85528,-9.64095 -6.42266,-15.62336 -0.4548,-5.23784 3.47989,-14.19967 8.98203,-14.61185" style="fill:none;stroke:#000000;stroke-width:2.23708;stroke-linecap:round;stroke-linejoin:round;stroke-miterlimit:10;stroke-dasharray:none;stroke-opacity:1" id="path142" sodipodi:nodetypes="ccc" />
         </g>
         <g id="g144" transform="scale(1,-1)" style="stroke-width:0.855356">
            <path d="m 515.082,-123.57384 c 7.44171,-1.10833 10.48939,-10.86638 8.87151,-17.46439 -0.5214,-3.72087 -2.64256,-11.79842 -8.57051,-13.18054" style="fill:none;stroke:#000000;stroke-width:2.23708;stroke-linecap:round;stroke-linejoin:round;stroke-miterlimit:10;stroke-dasharray:none;stroke-opacity:1" id="path146" sodipodi:nodetypes="ccc" />
         </g>
         <g id="g148" transform="scale(1,-1)" style="stroke-width:0.855356">
            <path d="m 461.754,-137.477 c -0.43587,-2.01411 -0.17823,-4.97963 0.34841,-7.36521 0.49231,-2.10272 1.28566,-4.02998 2.7883,-5.58696 1.26786,-2.23281 3.66533,-3.43895 5.16214,-5.49225 1.3376,-1.74414 -3.15296,0.53585 -3.4036,1.7749 -3.03073,2.7306 -4.23579,6.72275 -5.66952,10.40136 -0.13471,0.96395 -1.18203,2.47729 0.0793,3.10018" style="fill:none;stroke:#000000;stroke-width:2.23708;stroke-linecap:round;stroke-linejoin:round;stroke-miterlimit:10;stroke-dasharray:none;stroke-opacity:1" id="path150" />
         </g>
         <g id="g152" transform="scale(1,-1)" style="stroke-width:0.855356">
            <path d="m 454.309,-137.969 c 1.14178,-1.35799 2.21078,-3.5131 2.78731,-5.4778 0.17759,-1.95333 0.89857,-3.89627 0.35093,-5.88099 -0.51041,-2.01321 0.35039,-4.29058 -1.03904,-6.08366 -0.7536,-1.20047 -0.88156,-2.01254 -0.16918,-0.20954 0.70808,2.7166 1.41232,5.56912 0.55382,8.34809 -0.60835,2.15559 -1.50041,4.22409 -1.88006,6.44062 -0.38696,1.75565 -1.50329,3.93564 -3.18979,4.41828" style="fill:none;stroke:#000000;stroke-width:2.23708;stroke-linecap:round;stroke-linejoin:round;stroke-miterlimit:10;stroke-dasharray:none;stroke-opacity:1" id="path154" />
         </g>
         <g id="g156" transform="scale(1,-1)" style="stroke-width:0.855356">
            <path d="m 378.043,-97.977 c 0.96302,-1.179776 -0.3462,-2.87356 0.7041,-4.06108 1.19959,-1.64807 3.43909,-1.3021 5.21134,-1.53541 1.48966,-0.33141 3.00982,-0.32491 4.52717,-0.37984 0.31048,-0.065 0.67937,-0.0814 0.89752,0.0554" style="fill:none;stroke:#000000;stroke-width:1.11854;stroke-linecap:round;stroke-linejoin:round;stroke-miterlimit:10;stroke-dasharray:none;stroke-opacity:1" id="path158" />
         </g>
         <g id="g160" transform="scale(1,-1)" style="stroke-width:0.855356">
            <path d="m 543.746,-91.855 c -0.19134,-0.117385 0.24321,-0.371494 -0.098,-0.493 0.0678,-0.541528 -0.0556,-1.233897 -0.082,-1.859486 -0.0836,-0.692145 -0.14631,-1.195285 -0.36726,-1.809053 -0.17674,-0.28701 -0.75561,-0.906656 -0.79736,-1.194083 -0.63339,-0.395683 -1.41609,-0.470879 -2.14642,-0.619097 -0.84435,-0.303212 -1.70421,0.0798 -2.55376,0.07437 -0.68248,0.101435 -1.21148,0.187674 -1.7423,-0.1219 -0.15029,-0.09439 -0.28389,-0.07376 -0.43897,-0.0097" style="fill:none;stroke:#000000;stroke-width:1.11854;stroke-linecap:round;stroke-linejoin:round;stroke-miterlimit:10;stroke-dasharray:none;stroke-opacity:1" id="path162" />
         </g>
         <g id="g164" transform="scale(1,-1)" style="stroke-width:0.855356">
            <path d="m 537.602,-98.141 -0.016,0.004 h -0.027 v 0.004 h -0.032 l -0.054,0.004 -0.039,-0.035 -0.071,-0.012 -0.062,0.016 h -0.016 l -0.012,0.015 v -0.007 l -0.023,0.011 -0.027,0.012 -0.032,-0.016 -0.054,-0.023 -0.078,-0.012 -0.086,-0.004 -0.071,-0.007 -0.039,-0.024 -0.027,-0.012 -0.078,0.008 -0.106,0.004 -0.078,0.004 -0.082,0.016 -0.094,0.011 -0.175,0.008 -0.145,0.008 -0.109,0.008 -0.071,-0.008 -0.086,0.008 0.028,-0.008 -0.039,-0.012 h -0.141 l -0.09,-0.004 -0.09,0.012 -0.097,-0.012 h -0.117 l -0.098,0.016 -0.047,-0.008 -0.051,0.004 -0.078,0.004 -0.07,0.023 -0.067,0.008 -0.003,0.004 -0.024,0.004 -0.066,0.016 -0.063,0.011 -0.066,0.008 -0.067,0.004 -0.082,0.02 -0.089,0.008 -0.067,0.007 -0.062,0.004 h -0.063 l -0.051,0.004 -0.066,0.016 -0.066,0.019 -0.063,0.028" style="fill:none;stroke:#000000;stroke-width:1.11854;stroke-linecap:round;stroke-linejoin:round;stroke-miterlimit:10;stroke-dasharray:none;stroke-opacity:1" id="path166" />
         </g>
         <g id="g168" transform="scale(1,-1)" style="stroke-width:0.855356">
            <path d="m 534.887,-97.828 c -0.77455,-0.281183 -1.69255,-0.145293 -2.07907,0.653299 -0.67528,0.443538 -1.04186,1.241373 -0.55035,1.962994 0.25761,0.723431 0.64194,1.448722 1.38239,1.800889 1.45446,0.647947 3.32537,0.819997 4.64166,-0.224698 0.50292,-0.506018 1.06362,-1.036191 1.32636,-1.710523 0.30494,-0.856156 -0.22979,-1.526893 -1.05684,-1.790299 -0.79775,-0.271818 -1.66656,-0.354465 -2.50903,-0.337548 -0.73225,-0.0476 -1.46239,0.07973 -2.18741,0.015 -0.24534,-0.03105 -0.42465,0.137714 -0.44894,0.329892" style="fill:none;stroke:#000000;stroke-width:1.11854;stroke-linecap:round;stroke-linejoin:round;stroke-miterlimit:10;stroke-dasharray:none;stroke-opacity:1" id="path170" />
         </g>
         <g id="g172" transform="scale(1,-1)" style="stroke-width:0.855356">
            <path d="m 387.441,-100.461 c 0.90849,-1.24743 -1.51665,-1.48612 -2.14946,-0.78298 -0.61991,0.78869 -2.6469,1.19169 -1.69101,2.438096 1.05536,1.31712 2.86306,1.86185 4.5048,1.752316 1.21374,-0.07429 2.19894,-1.475005 1.89996,-2.648126 -0.40398,-1.123896 -2.06158,-1.319886 -2.96624,-0.739286" style="fill:none;stroke:#000000;stroke-width:1.11854;stroke-linecap:round;stroke-linejoin:round;stroke-miterlimit:10;stroke-dasharray:none;stroke-opacity:1" id="path174" />
         </g>
         <g id="g176" transform="scale(1,-1)" style="stroke-width:0.855356">
            <path d="m 389.891,-117.375 c -0.78093,0.31924 -2.10496,1.1538 -3.27597,0.76414 -0.79854,-0.12546 -2.8558,-0.26026 -2.43777,-1.325 1.25864,-1.04073 3.00571,-0.5823 4.48593,-0.93463 1.83278,0.0559 1.49976,-2.94226 -0.28543,-2.54883 -1.4099,-0.0597 -3.01369,-0.5477 -4.27793,0.29979 -0.1716,0.0392 -0.24895,0.26833 -0.14682,0.39253" style="fill:none;stroke:#000000;stroke-width:1.11854;stroke-linecap:round;stroke-linejoin:round;stroke-miterlimit:10;stroke-dasharray:none;stroke-opacity:1" id="path178" />
         </g>
         <g id="g180" transform="scale(1,-1)" style="stroke-width:0.855356">
            <path d="m 394.878,-116.97335 c 1.24048,0.0579 -0.19281,0.0686 -0.23243,-0.87059 -1.11118,-1.39548 0.22047,-3.50941 1.98029,-3.02233 1.29785,0.22471 3.93686,1.28363 2.74279,2.95017 -1.08806,1.40888 -2.96679,0.93523 -4.49065,0.94275 -0.24398,-0.0478 -0.24486,-0.51524 -0.23243,-0.87059" style="fill:none;stroke:#000000;stroke-width:1.11854;stroke-linecap:round;stroke-linejoin:round;stroke-miterlimit:10;stroke-dasharray:none;stroke-opacity:1" id="path182" sodipodi:nodetypes="cccccc" />
         </g>
         <g id="g184" transform="scale(1,-1)" style="stroke-width:0.855356">
            <path d="m 403.938,-120.086 c -0.55669,-0.90505 0.77377,0.9709 -0.11506,1.28874 -0.51538,0.63138 -1.55647,2.70199 0.11783,2.14958 1.37365,-0.73653 2.43389,-2.01056 3.95636,-2.47423 1.1979,-1.24098 2.22106,0.76438 1.93147,1.77322 -0.17679,0.64025 -1.36575,1.50912 -0.55856,2.11469" style="fill:none;stroke:#000000;stroke-width:1.11854;stroke-linecap:round;stroke-linejoin:round;stroke-miterlimit:10;stroke-dasharray:none;stroke-opacity:1" id="path186" />
         </g>
         <g id="g188" transform="scale(1,-1)" style="stroke-width:0.855356">
            <path d="m 412.949,-116.238 c 0.11546,-1.15491 1.88657,-3.1563 2.54439,-1.59592 l -0.42379,-0.56102" style="fill:none;stroke:#000000;stroke-width:1.11854;stroke-linecap:round;stroke-linejoin:round;stroke-miterlimit:10;stroke-dasharray:none;stroke-opacity:1" id="path190" sodipodi:nodetypes="ccc" />
         </g>
         <g id="g192" transform="scale(1,-1)" style="stroke-width:0.855356">
            <path d="m 417.773,-115.793 c -0.99549,-0.75804 -1.4251,-2.24662 -2.7034,-2.60194 l -0.0344,0.0343 0.0628,0.0837" style="fill:none;stroke:#000000;stroke-width:1.11854;stroke-linecap:round;stroke-linejoin:round;stroke-miterlimit:10;stroke-dasharray:none;stroke-opacity:1" id="path194" />
         </g>
         <g id="g196" transform="scale(1,-1)" style="stroke-width:0.855356">
            <path d="m 415.0696,-118.39494 c -0.50965,-0.77971 1.38302,-2.16019 1.0084,-2.85507" style="fill:none;stroke:#000000;stroke-width:1.11854;stroke-linecap:round;stroke-linejoin:round;stroke-miterlimit:10;stroke-dasharray:none;stroke-opacity:1" id="path198" sodipodi:nodetypes="cc" />
         </g>
         <g id="g200" transform="scale(1,-1)" style="stroke-width:0.855356">
            <path d="m 455.336,-112.809 c 0.012,-1.87607 -0.4062,-3.76442 -0.40258,-5.66328 -0.49533,-2.5569 -0.005,-5.18072 1.26942,-7.44779 1.40247,-1.64231 3.83242,-2.29703 5.81196,-1.3079 2.40732,0.36577 4.07672,2.75685 3.75757,5.16567 0.52989,1.73347 1.08505,3.14995 0.12072,4.89586 -0.1639,1.84857 -0.70875,3.55051 -1.74576,5.09794 -2.12827,-0.27097 -4.66671,-0.81167 -6.99809,-0.89518 -0.63293,-0.17895 -1.50311,-0.27883 -2.05109,-0.1383" style="fill:none;stroke:#000000;stroke-width:1.11854;stroke-linecap:round;stroke-linejoin:round;stroke-miterlimit:10;stroke-dasharray:none;stroke-opacity:1" id="path202" />
         </g>
         <g id="g204" transform="scale(1,-1)" style="stroke-width:0.855356">
            <path d="m 458.289,-119.961 c -0.3876,0.15327 -0.46603,-0.0357 -0.039,0.13021 0.65465,0.37194 1.45598,0.18367 2.17459,0.25316 0.95843,0.0125 1.92601,0.0153 2.87829,-0.0801 0.35967,-0.31762 0.25133,-0.90108 0.63619,-1.27332 -0.0261,-0.36441 0.10018,-0.61384 -0.0952,-0.87775 0.10883,-0.57413 0.26523,-1.34928 0.23445,-1.69749 -0.3019,-0.48408 -0.62227,-1.06447 -1.25256,-1.25109 -0.98303,-0.28635 -2.02979,-0.2354 -3.00929,0.0343 -0.70722,0.26532 -1.47987,0.46299 -2.16447,0.8061 -0.4343,0.2659 -0.93471,0.46401 -0.97618,1.02182" style="fill:none;stroke:#000000;stroke-width:1.11854;stroke-linecap:round;stroke-linejoin:round;stroke-miterlimit:10;stroke-dasharray:none;stroke-opacity:1" id="path206" />
         </g>
         <g id="g208" transform="scale(1,-1)" style="stroke-width:0.855356">
            <path d="m 451.559,-110.938 c -1.7139,0.0157 -4.6599,0.68924 -5.05499,2.29273 1.9471,1.30097 4.50946,1.02042 6.75463,1.36394 2.79188,0.13614 5.9739,0.53609 8.36548,-1.21411 -0.10006,-1.91561 -3.44893,-1.20287 -4.88509,-1.89802 -2.30773,-0.50017 -2.86498,-0.73484 -5.18003,-0.54454" style="fill:none;stroke:#000000;stroke-width:1.11854;stroke-linecap:round;stroke-linejoin:round;stroke-miterlimit:10;stroke-dasharray:none;stroke-opacity:1" id="path210" sodipodi:nodetypes="cccccc" />
         </g>
         <g id="g212" transform="scale(1,-1)" style="stroke-width:0.855356">
            <path d="m 460.05472,-129.86893 c 1.7358,0.24695 2.73656,0.9884 4.48284,1.08939 1.61169,0.0227 3.26033,-0.0738 4.78484,-0.6258 0.38396,-0.51895 0.66283,-1.18682 -0.21992,-1.38551 -0.70089,-1.09542 -1.91157,-1.12507 -3.07306,-1.15028 -1.14916,-0.0746 -2.28747,-0.54574 -3.42836,-0.13408 -1.40776,0.2867 -2.93033,0.12137 -4.24204,0.80889 0.42817,0.0817 -0.604,0.14077 0.0365,0.11065 -1.36815,0.90416 0.91033,1.39485 1.6592,1.28674 0.22009,0.003 0.44022,-0.005 0.66028,0.002" style="fill:none;stroke:#000000;stroke-width:1.11854;stroke-linecap:round;stroke-linejoin:round;stroke-miterlimit:10;stroke-dasharray:none;stroke-opacity:1" id="path214" sodipodi:nodetypes="cccccccccc" />
         </g>
         <g id="g216" transform="scale(1,-1)" style="stroke-width:0.855356">
            <path d="m 512.734,-108.473 c -0.2045,-0.2658 0.515,-2.02769 0.0929,-2.92487 -0.0947,-0.25874 -0.15589,-0.85754 -0.018,-0.91409" style="fill:none;stroke:#000000;stroke-width:1.11854;stroke-linecap:round;stroke-linejoin:round;stroke-miterlimit:10;stroke-dasharray:none;stroke-opacity:1" id="path218" />
         </g>
         <g id="g220" transform="scale(1,-1)" style="stroke-width:0.855356">
            <path d="m 511.914,-108.383 c 0.91429,0.95695 2.52306,0.52855 3.65655,0.14195 1.2461,-0.3865 3.17829,-2.08965 1.37988,-3.12679 -1.11883,-1.13255 -2.77871,-1.15182 -4.24992,-0.98516 -0.33981,0.01 -0.48604,0.29358 -0.70054,0.48588" style="fill:none;stroke:#000000;stroke-width:1.11854;stroke-linecap:round;stroke-linejoin:round;stroke-miterlimit:10;stroke-dasharray:none;stroke-opacity:1" id="path222" />
         </g>
         <g id="g224" transform="scale(1,-1)" style="stroke-width:0.855356">
            <path d="m 520.086,-110.23 c -0.18402,0.67409 0.95466,-0.14068 1.199,0.191" style="fill:none;stroke:#000000;stroke-width:1.11854;stroke-linecap:round;stroke-linejoin:round;stroke-miterlimit:10;stroke-dasharray:none;stroke-opacity:1" id="path226" />
         </g>
         <g id="g228" transform="scale(1,-1)" style="stroke-width:0.855356">
            <path d="m 524.059,-107.949 c -0.48339,0.33644 1.11645,1.08657 1.7212,0.72787 1.28976,-0.42609 3.13789,0.19738 4.0233,-0.91598 0.17839,-1.58026 -1.55244,-2.37254 -2.9355,-2.26179 -1.27399,0.24582 -2.89071,-0.30542 -2.93542,-1.79508 -0.54763,-1.32109 -0.16005,-2.21923 1.32804,-1.82 1.45058,-0.123 2.72694,0.72472 4.13286,0.84625 0.29324,-0.0165 0.58541,-0.047 0.87954,-0.0205" style="fill:none;stroke:#000000;stroke-width:1.11854;stroke-linecap:round;stroke-linejoin:round;stroke-miterlimit:10;stroke-dasharray:none;stroke-opacity:1" id="path230" />
         </g>
         <g id="g232" transform="scale(1,-1)" style="stroke-width:0.855356">
            <path d="m 538.145,-129.223 c 0.19013,0.0882 -0.004,0.9537 -0.12839,1.31315 -0.29898,0.5652 -0.43234,1.20832 -0.74396,1.77817 -0.46931,0.61408 0.24632,1.15554 0.79659,1.30466 0.8909,0.31245 1.74813,-0.2539 2.62611,-0.34882 0.55771,-0.0995 1.13103,-0.14034 1.69412,-0.0619 -0.43921,-0.18532 -0.75407,-1.03311 -0.866,-1.57996 0.0122,-0.77426 -0.23844,-1.56739 0.0333,-2.32403 0.10883,-0.39432 -0.005,-1.02799 -0.0453,-1.28561 -0.64216,0.40133 -1.42308,0.13203 -2.1332,0.15144 -0.33104,0.0105 -0.92133,1.17034 -1.23327,1.0529" style="fill:none;stroke:#000000;stroke-width:1.11854;stroke-linecap:round;stroke-linejoin:round;stroke-miterlimit:10;stroke-dasharray:none;stroke-opacity:1" id="path234" sodipodi:nodetypes="ccccccccccc" />
         </g>
         <g id="g236" transform="scale(1,-1)" style="stroke-width:0.855356">
            <path d="m 389.617,-186.098 c 0.14401,15.15834 -4.30904,29.90692 -4.49285,45.05997 -0.35793,4.25247 -0.75762,8.55423 -0.14737,12.80403" style="fill:none;stroke:#000000;stroke-width:1.11854;stroke-linecap:round;stroke-linejoin:round;stroke-miterlimit:10;stroke-dasharray:none;stroke-opacity:1" id="path238" />
         </g>
         <g id="g240" transform="scale(1,-1)" style="stroke-width:0.855356">
            <path d="m 394.57,-177.375 c 42.28618,0.24903 84.42594,4.95526 126.63912,5.9645 l 3.41188,-0.1985" style="fill:none;stroke:#000000;stroke-width:1.11854;stroke-linecap:round;stroke-linejoin:round;stroke-miterlimit:10;stroke-dasharray:none;stroke-opacity:1" id="path242" />
         </g>
         <g id="g244" transform="scale(1,-1)" style="stroke-width:0.855356">
            <path d="m 534.855,-124.617 c 0.27124,-18.14924 -3.27274,-36.06383 -4.14002,-54.149" style="fill:none;stroke:#000000;stroke-width:1.11854;stroke-linecap:round;stroke-linejoin:round;stroke-miterlimit:10;stroke-dasharray:none;stroke-opacity:1" id="path246" />
         </g>
         <g id="g248" transform="scale(1,-1)" style="stroke-width:0.855356">
            <path d="m 365.414,-194.617 c 27.42568,-20.66177 53.869,-42.7435 82.996,-61.039" style="fill:none;stroke:#000000;stroke-width:1.11854;stroke-linecap:round;stroke-linejoin:round;stroke-miterlimit:10;stroke-dasharray:none;stroke-opacity:1" id="path250" />
         </g>
         <g id="g252" transform="scale(1,-1)" style="stroke-width:0.855356">
            <path d="m 457.422,-185.637 c 17.01558,-10.99421 34.16262,-21.79419 50.851,-33.285" style="fill:none;stroke:#000000;stroke-width:1.11854;stroke-linecap:round;stroke-linejoin:round;stroke-miterlimit:10;stroke-dasharray:none;stroke-opacity:1" id="path254" />
         </g>
         <g id="g256" transform="scale(1,-1)" style="stroke-width:0.855356">
            <path d="m 428.77,-229.102 c 0.0457,0.23865 3.17467,2.24613 4.60287,2.58273 2.832,1.3922 5.67104,2.86987 8.53195,4.20681 1.63612,2.05611 4.07089,2.88334 6.29418,4.06246 1.91327,0.50618 2.76,2.00581 3.42431,-0.57275 1.696,-1.96564 2.88089,-4.53194 2.23169,-7.16125 -0.44531,-2.31883 -1.43886,-4.54176 -2.80071,-6.41009 -1.34601,-1.86585 -3.33679,-3.46946 -5.63512,-3.95308 -2.97165,-0.84105 -5.85942,0.59249 -8.81729,0.75963 -2.95721,0.79196 -5.39029,2.83891 -7.05488,5.34554 -0.58925,0.28139 0.21399,-0.0925 0.57804,0.39836" style="fill:none;stroke:#000000;stroke-width:2.23708;stroke-linecap:round;stroke-linejoin:round;stroke-miterlimit:10;stroke-dasharray:none;stroke-opacity:1" id="path258" />
         </g>
         <g id="g260" transform="scale(1,-1)" style="stroke-width:0.855356">
            <path d="m 456.344,-232.059 c -0.10618,0.31958 3.02914,2.05663 4.45318,1.60039 2.08464,-0.28485 6.25345,-0.92001 5.35082,-3.88939 -0.19602,-2.0465 -0.7081,-4.5884 -3.1378,-4.96432 -2.95878,-0.35521 -5.88613,-0.80198 -8.87784,-0.73438 -2.48659,0.0865 -4.96187,0.14608 -7.20533,-0.88829 -0.81367,-0.14421 -1.62462,-0.8292 -1.27546,-0.78048 1.0837,-1.27623 3.42821,-3.31057 5.16142,-4.61541 1.1385,-0.84772 1.32454,-1.73283 2.01901,-2.06712" style="fill:none;stroke:#000000;stroke-width:2.23708;stroke-linecap:round;stroke-linejoin:round;stroke-miterlimit:10;stroke-dasharray:none;stroke-opacity:1" id="path262" />
         </g>
         <g id="g264" transform="scale(1,-1)" style="stroke-width:0.855356">
            <path d="m 350.43,-201.992 c -0.16595,3.28135 3.75947,4.46033 6.23408,5.48687 6.53641,2.4353 12.44372,7.02162 19.63568,7.34413 0.87538,0.75487 2.78353,1.63602 3.31543,0.74346" style="fill:none;stroke:#000000;stroke-width:2.23708;stroke-linecap:round;stroke-linejoin:round;stroke-miterlimit:10;stroke-dasharray:none;stroke-opacity:1" id="path266" sodipodi:nodetypes="cccc" />
         </g>
         <g id="g268" transform="scale(1,-1)" style="stroke-width:0.855356">
            <path d="m 431.871,-266.301 c 1.84379,-10.21215 -0.826,-23.75084 0.40194,-33.99832" style="fill:none;stroke:#000000;stroke-width:2.23708;stroke-linecap:round;stroke-linejoin:round;stroke-miterlimit:10;stroke-dasharray:none;stroke-opacity:1" id="path270" sodipodi:nodetypes="cc" />
         </g>
         <g id="g272" transform="scale(1,-1)" style="stroke-width:0.855356">
            <path d="m 440.383,-268.609 c -0.73035,-9.97885 -1.73194,-20.07102 -0.15998,-30.024" style="fill:none;stroke:#000000;stroke-width:2.23708;stroke-linecap:round;stroke-linejoin:round;stroke-miterlimit:10;stroke-dasharray:none;stroke-opacity:1" id="path274" />
         </g>
      </g>
   </g>
</svg>
