<?xml version="1.0" encoding="UTF-8" standalone="no"?>
<!-- Created by Ashley Blewer - This work is licensed under a Creative Commons Attribution 4.0 International License -->

<svg width="544" height="480" viewBox="0 0 143.93334 127" version="1.1" id="svg2490" inkscape:version="1.1.2 (08b2f3d93c, 2022-04-05)" sodipodi:docname="1989-hi8-4.svg"
   xmlns:inkscape="http://www.inkscape.org/namespaces/inkscape"
   xmlns:sodipodi="http://sodipodi.sourceforge.net/DTD/sodipodi-0.dtd"
   xmlns="http://www.w3.org/2000/svg"
   xmlns:svg="http://www.w3.org/2000/svg">
   <sodipodi:namedview id="namedview2492" pagecolor="#ffffff" bordercolor="#666666" borderopacity="1.0" inkscape:pageshadow="2" inkscape:pageopacity="0.0" inkscape:pagecheckerboard="0" inkscape:document-units="mm" showgrid="false" units="px" inkscape:zoom="0.90583674" inkscape:cx="272.67607" inkscape:cy="177.18425" inkscape:window-width="1848" inkscape:window-height="1136" inkscape:window-x="72" inkscape:window-y="27" inkscape:window-maximized="1" inkscape:current-layer="layer1" />
   <defs id="defs2487" />
   <g inkscape:label="Layer 1" inkscape:groupmode="layer" id="layer1">
      <g id="g3401" transform="matrix(0.42762771,0,0,0.42762771,-366.68388,-192.78755)">
         <g id="g1222" transform="scale(1,-1)">
            <path d="m 906.629,-640.129 c -1.297,8.356 -1.227,16.867 -2.356,25.25 -0.316,11.734 -0.871,23.449 -1.433,35.172 -0.559,3.832 -0.832,7.68 -1.078,11.543" style="fill:none;stroke:#000000;stroke-width:2.61538;stroke-linecap:round;stroke-linejoin:round;stroke-miterlimit:10;stroke-dasharray:none;stroke-opacity:1" id="path1224" />
         </g>
         <g id="g1226" transform="scale(1,-1)">
            <path d="m 900.668,-565.176 c -2.43441,5.80954 -6.42683,11.04394 -7.45556,17.3821 0.27311,0.4529 1.01238,0.0382 0.87356,-0.42508" style="fill:none;stroke:#000000;stroke-width:2.61538;stroke-linecap:round;stroke-linejoin:round;stroke-miterlimit:10;stroke-dasharray:none;stroke-opacity:1" id="path1228" />
         </g>
         <g id="g1230" transform="scale(1,-1)">
            <path d="m 901.566,-567.863 c 0.14058,4.05426 0.90575,8.09366 0.31037,12.15448 -0.14466,1.92046 -0.32174,3.94924 0.45885,5.76708" style="fill:none;stroke:#000000;stroke-width:2.61538;stroke-linecap:round;stroke-linejoin:round;stroke-miterlimit:10;stroke-dasharray:none;stroke-opacity:1" id="path1232" />
         </g>
         <g id="g1234" transform="scale(1,-1)">
            <path d="m 892.91,-547.453 c 2.1691,-5.17612 8.75551,-0.87414 7.22145,3.69903 1.16637,11.18694 -0.36988,22.39684 -1.42041,33.52622 0.16881,2.12812 1.498,4.3337 0.42196,6.42675" style="fill:none;stroke:#000000;stroke-width:2.61538;stroke-linecap:round;stroke-linejoin:round;stroke-miterlimit:10;stroke-dasharray:none;stroke-opacity:1" id="path1236" />
         </g>
         <g id="g1238" transform="scale(1,-1)">
            <path d="m 898.465,-508.074 c 1.187,0.402 -2.535,3.64 -2.406,4.527 -0.477,1.055 -1.125,1.961 -1.563,3.004 -0.691,0.918 -1.074,2.008 -1.812,2.906 -0.403,0.594 -0.883,1.141 -1.055,1.856" style="fill:none;stroke:#000000;stroke-width:2.61538;stroke-linecap:round;stroke-linejoin:round;stroke-miterlimit:10;stroke-dasharray:none;stroke-opacity:1" id="path1240" />
         </g>
         <g id="g1242" transform="scale(1,-1)">
            <path d="m 890.188,-495.105 c -1.86,-0.231 -0.528,-4.461 -0.86,-6.184 -0.023,-2.695 0.223,-5.461 0.305,-8.141 0.422,-2.414 0.297,-4.773 0.629,-7.199 0.199,-2.578 0.242,-4.894 0.195,-7.457 0.242,-2.262 0.109,-4.496 0.27,-6.746 0.144,-2.672 0.418,-5.082 0.699,-7.746 0.773,-2.598 1.289,-5.176 2.222,-7.754 0.469,-1.016 0.879,-1.883 1.204,-2.621" style="fill:none;stroke:#000000;stroke-width:2.61538;stroke-linecap:round;stroke-linejoin:round;stroke-miterlimit:10;stroke-dasharray:none;stroke-opacity:1" id="path1244" sodipodi:nodetypes="ccccccccc" />
         </g>
         <g id="g1246" transform="scale(1,-1)">
            <path d="m 892.219,-545.859 c 0.726,-8.055 -0.707,-16.149 0.062,-24.231 0.953,-17.621 3.899,-34.609 5.379,-52.625 2.262,-6.812 3.77,-14.223 9.922,-18.734" style="fill:none;stroke:#000000;stroke-width:2.61538;stroke-linecap:round;stroke-linejoin:round;stroke-miterlimit:10;stroke-dasharray:none;stroke-opacity:1" id="path1248" />
         </g>
         <g id="g1250" transform="scale(1,-1)">
            <path d="m 909.262,-622.953 c 0.636,-1.008 -0.543,1.047 -0.574,1.598 -0.559,1.015 0.21,3.351 1.578,2.23 1.015,-1 1.324,-2.809 -0.188,-3.543 -1.648,-0.066 -1.465,2.969 -0.156,3.211 0.402,-0.035 1.058,-0.551 1.023,-0.949" style="fill:none;stroke:#000000;stroke-width:2.61538;stroke-linecap:round;stroke-linejoin:round;stroke-miterlimit:10;stroke-dasharray:none;stroke-opacity:1" id="path1252" />
         </g>
         <g id="g1254" transform="scale(1,-1)">
            <path d="m 916.559,-628.727 c -0.356,0.039 -1.332,1.247 -1.129,2.125 0.398,1.29 3.562,1.293 2.847,-0.558 0.121,-1.336 -2.449,-2.914 -2.793,-1.028" style="fill:none;stroke:#000000;stroke-width:2.61538;stroke-linecap:round;stroke-linejoin:round;stroke-miterlimit:10;stroke-dasharray:none;stroke-opacity:1" id="path1256" />
         </g>
         <g id="g1258" transform="scale(1,-1)">
            <path d="m 912.82,-635.203 c -0.758,-0.652 -1.465,0.437 -1.968,1.008 0.308,1.047 2.093,1.175 2.39,-0.297 1.168,-1.738 -1.344,-1.899 -2.301,-0.985 -0.394,0.184 -1.089,0.254 -1.066,0.836" style="fill:none;stroke:#000000;stroke-width:2.61538;stroke-linecap:round;stroke-linejoin:round;stroke-miterlimit:10;stroke-dasharray:none;stroke-opacity:1" id="path1260" />
         </g>
         <g id="g1262" transform="scale(1,-1)">
            <path d="m 927.629,-633.938 c -0.277,-0.25 -1.649,0.579 -2.133,0.938 -0.793,1.535 1.379,2.863 2.109,1.273 0.579,-1.3 -1.953,-2.738 -2.996,-1.851 l 0.106,0.316 0.027,0.125" style="fill:none;stroke:#000000;stroke-width:2.61538;stroke-linecap:round;stroke-linejoin:round;stroke-miterlimit:10;stroke-dasharray:none;stroke-opacity:1" id="path1264" />
         </g>
         <g id="g1266" transform="scale(1,-1)">
            <path d="m 890.188,-495.105 c 70.867,9.882 154.465,22.281 217.871,27.058" style="fill:none;stroke:#000000;stroke-width:2.61538;stroke-linecap:round;stroke-linejoin:round;stroke-miterlimit:10;stroke-dasharray:none;stroke-opacity:1" id="path1268" sodipodi:nodetypes="cc" />
         </g>
         <g id="g1274" transform="scale(1,-1)">
            <path d="m 896.426,-504.078 c 4.855,1.086 12.16,1.89 17.113,2.383 3.527,0.441 7.066,0.754 10.609,1.043 -0.136,-0.223 -0.507,-0.266 -0.546,-0.563" style="fill:none;stroke:#000000;stroke-width:2.61538;stroke-linecap:round;stroke-linejoin:round;stroke-miterlimit:10;stroke-dasharray:none;stroke-opacity:1" id="path1276" />
         </g>
         <g id="g1278" transform="scale(1,-1)">
            <path d="m 922.664,-502.203 c 4.219,-5.926 16.41,0.129 23.512,0.16 50.875,7.523 99.609,15.504 146.277,18.859" style="fill:none;stroke:#000000;stroke-width:2.61538;stroke-linecap:round;stroke-linejoin:round;stroke-miterlimit:10;stroke-dasharray:none;stroke-opacity:1" id="path1280" />
         </g>
         <g id="g1270" transform="scale(1,-1)">
            <path d="m 1108.059,-468.047 c 3.8,-3.047 12.519,-6.801 14.785,-11.203" style="fill:none;stroke:#000000;stroke-width:2.61538;stroke-linecap:round;stroke-linejoin:round;stroke-miterlimit:10;stroke-dasharray:none;stroke-opacity:1" id="path1272" />
         </g>
         <g id="g1282" transform="scale(1,-1)">
            <path d="m 1093.816,-483.562 c 2.805,4.582 10.172,4.48 14.602,6.371 2.965,0.609 11.664,-0.801 14.539,-2.004" style="fill:none;stroke:#000000;stroke-width:2.61538;stroke-linecap:round;stroke-linejoin:round;stroke-miterlimit:10;stroke-dasharray:none;stroke-opacity:1" id="path1284" />
         </g>
         <g id="g1286" transform="scale(1,-1)">
            <path d="m 1119.828,-480.352 c 1.36,-6.668 -0.058,-13.457 -0.199,-20.16" style="fill:none;stroke:#000000;stroke-width:2.61538;stroke-linecap:round;stroke-linejoin:round;stroke-miterlimit:10;stroke-dasharray:none;stroke-opacity:1" id="path1288" />
         </g>
         <g id="g1290" transform="scale(1,-1)">
            <path d="m 1122.957,-479.195 c -2.437,-12.668 0.441,-27.657 -5.293,-39.645" style="fill:none;stroke:#000000;stroke-width:2.61538;stroke-linecap:round;stroke-linejoin:round;stroke-miterlimit:10;stroke-dasharray:none;stroke-opacity:1" id="path1292" sodipodi:nodetypes="cc" />
         </g>
         <g id="g1294" transform="scale(1,-1)">
            <path d="m 1119.215,-505.035 c 0.5412,-9.40326 -5.8857,-17.71891 0.613,-33.371" style="fill:none;stroke:#000000;stroke-width:2.61538;stroke-linecap:round;stroke-linejoin:round;stroke-miterlimit:10;stroke-dasharray:none;stroke-opacity:1" id="path1296" sodipodi:nodetypes="cc" />
         </g>
         <g id="g1298" transform="scale(1,-1)">
            <path d="m 1118.586,-526.777 -0.016,-0.004 -0.054,-0.004 -0.09,-0.012 -0.078,0.008 -0.141,0.004 -0.074,-0.047 0.047,-0.004 0.043,-0.004 v -0.019 0.004 l -0.02,-0.012 0.012,-0.004 0.051,0.012 0.046,0.031 0.051,0.004 0.043,0.023 0.059,0.043 0.055,0.02 h 0.046 l 0.051,0.023 0.059,0.012 0.074,0.008 0.059,0.027 v 0.008 l 0.039,-0.02 h 0.093 l 0.079,0.028 0.058,0.004 h 0.016 l 0.051,0.011 0.019,0.008 0.012,-0.012 0.031,0.008 0.012,0.004 h 0.039 l 0.117,-0.004 0.039,0.043 -0.066,-0.008 0.023,-0.007 h -0.01 l 0.01,0.035 -0.019,-0.012 0.011,-0.051 0.078,-0.027 0.059,-0.016 0.062,-0.027 0.059,-0.047 0.164,-0.027 0.137,0.004 -0.035,-0.012 0.062,-0.047 0.086,-0.035 0.074,-0.035 0.047,-0.036 0.059,-0.027 0.074,-0.027 0.051,-0.031 0.055,-0.012 0.066,-0.02 0.066,-0.007 0.012,-0.004 0.023,-0.028 0.047,-0.023 0.036,-0.028 0.043,-0.011 0.01,-0.016 0.016,-0.055 0.035,-0.039 v 0.016 -0.008 l -0.012,0.004 -0.019,0.016 -0.027,0.004 -0.04,-0.024 -0.01,-0.027 -0.02,-0.024 -0.051,-0.043 -0.043,-0.019 -0.082,-0.027 -0.058,-0.047 0.015,-0.024 -0.031,-0.039 -0.051,-0.035 -0.047,-0.043 -0.023,-0.039 -0.031,-0.035 -0.074,-0.024 -0.071,-0.011 -0.058,-0.008 -0.063,-0.016 -0.082,-0.023 -0.01,-0.008 -0.051,-0.02 -0.121,-0.003 -0.089,-0.024 -0.055,-0.004 -0.047,-0.011 -0.039,0.023 -0.102,0.012 -0.086,-0.043 -0.066,-0.008 -0.047,-0.004 -0.051,-0.031 0.09,-0.012 0.02,0.047 -0.102,-0.02 -0.055,-0.004 v -0.015 0.012 l -0.01,0.023 -0.02,0.016 h 0.012" style="fill:none;stroke:#000000;stroke-width:2.61538;stroke-linecap:round;stroke-linejoin:round;stroke-miterlimit:10;stroke-dasharray:none;stroke-opacity:1" id="path1300" />
         </g>
         <g id="g1302" transform="scale(1,-1)">
            <path d="m 1119.828,-538.406 c -1.664,-22.543 -3.113,-49.016 -6.203,-68.18" style="fill:none;stroke:#000000;stroke-width:2.61538;stroke-linecap:round;stroke-linejoin:round;stroke-miterlimit:10;stroke-dasharray:none;stroke-opacity:1" id="path1304" sodipodi:nodetypes="cc" />
         </g>
         <g id="g1306" transform="scale(1,-1)">
            <path d="m 909.199,-641.738 c 67.664,14.468 136.899,19.929 204.426,35.152" style="fill:none;stroke:#000000;stroke-width:2.61538;stroke-linecap:round;stroke-linejoin:round;stroke-miterlimit:10;stroke-dasharray:none;stroke-opacity:1" id="path1308" />
         </g>
         <g id="g1310" transform="scale(1,-1)">
            <path d="m 1111.227,-587.492 c 0.347,-0.031 -1.778,0.969 -0.739,1.801 1.301,2.203 3.422,-1.391 1.258,-1.836 -2.066,-0.586 -2.004,1.988 -0.422,2.48 0.543,0.223 0.305,-0.976 0,-1.09" style="fill:none;stroke:#000000;stroke-width:2.61538;stroke-linecap:round;stroke-linejoin:round;stroke-miterlimit:10;stroke-dasharray:none;stroke-opacity:1" id="path1312" />
         </g>
         <g id="g1314" transform="scale(1,-1)">
            <path d="m 1105.605,-594.824 c -0.179,-1.235 -1.988,0.07 -0.667,0.844 0.648,0.996 2.003,0.773 1.636,-0.563 -0.437,-0.687 -1.363,-0.672 -1.922,-0.148" style="fill:none;stroke:#000000;stroke-width:2.61538;stroke-linecap:round;stroke-linejoin:round;stroke-miterlimit:10;stroke-dasharray:none;stroke-opacity:1" id="path1316" />
         </g>
         <g id="g1318" transform="scale(1,-1)">
            <path d="m 1109.52,-600.703 c -1.141,0.652 -0.582,2.523 0.894,1.961 1.465,-0.692 -1.023,-2.848 -1.531,-1.563" style="fill:none;stroke:#000000;stroke-width:2.61538;stroke-linecap:round;stroke-linejoin:round;stroke-miterlimit:10;stroke-dasharray:none;stroke-opacity:1" id="path1320" />
         </g>
         <g id="g1322" transform="scale(1,-1)">
            <path d="m 1095.582,-603.875 c 0.211,-0.891 -1.641,0.43 -0.887,1.238 0.356,1.688 2.657,1.871 2.52,-0.093 0,-1.364 -2.871,-1.442 -2.863,-0.473 l 0.117,0.027 0.25,-0.027" style="fill:none;stroke:#000000;stroke-width:2.61538;stroke-linecap:round;stroke-linejoin:round;stroke-miterlimit:10;stroke-dasharray:none;stroke-opacity:1" id="path1324" />
         </g>
         <g id="g1326" transform="scale(1,-1)">
            <path d="m 931.29017,-536.76431 c -0.86634,0.70558 -2.51123,-0.75 -3.03231,0.62286 -0.3302,1.24181 0.23568,2.81288 1.28676,3.57203 1.28483,0.76182 2.89703,0.094 3.63888,-1.10667 0.94696,-0.84105 0.35459,-2.19793 -0.63864,-2.67425 -0.71428,-0.83574 -1.98014,-0.95733 -2.7405,-0.11291 -0.91799,0.5601 -1.55356,1.60277 -0.70976,2.54608 0.54445,0.94747 2.07964,1.24559 2.70691,0.2173 0.65222,-0.90519 1.0467,-2.88889 -0.51134,-3.06444 -0.92438,-0.0258 -2.0686,-0.21422 -2.77411,0.53487" style="fill:none;stroke:#000000;stroke-width:2.61538;stroke-linecap:round;stroke-linejoin:round;stroke-miterlimit:10;stroke-dasharray:none;stroke-opacity:1" id="path1328" sodipodi:nodetypes="cccccccccc" />
         </g>
         <g id="g1330" transform="scale(1,-1)">
            <path d="m 1092.957,-515.781 v 0.004 l 0.01,-0.016 -0.027,-0.012 -0.012,-0.015 -0.01,0.011 v -0.003 l -0.023,-0.028 -0.032,-0.027 v 0.031 l -0.035,-0.027 -0.016,0.004 h 0.024 l 0.01,0.011 h 0.011 v 0.012 l 0.04,0.024 0.043,0.007 -0.032,-0.023 -0.019,-0.004 -0.012,-0.012 -0.016,-0.008 -0.031,-0.007 -0.125,0.027 -0.101,-0.016 0.058,-0.031 v -0.027 l -0.058,-0.035 -0.012,-0.016 -0.086,-0.012 -0.09,-0.008 0.02,-0.007 -0.012,-0.004 h -0.059 l 0.016,0.023 -0.039,0.016 -0.117,-0.031 -0.086,-0.008 -0.098,-0.004 -0.074,-0.004 -0.117,-0.016 -0.129,-0.004 -0.047,0.012 -0.055,0.004 -0.051,0.012 -0.054,0.008 -0.071,-0.012 h 0.043 l -0.046,0.012 -0.133,0.015 -0.082,0.059 -0.051,0.019 -0.02,0.024 -0.117,0.058 -0.015,0.028 -0.032,0.031 -0.023,0.035 -0.039,0.035 -0.028,0.051 -0.039,0.059 -0.05,0.043 -0.032,0.043 -0.027,0.054 -0.043,0.059 -0.035,0.047 -0.09,0.054 -0.055,0.082 -0.011,0.071 -0.059,0.062 -0.055,0.063 -0.047,0.082 -0.01,0.148 0.015,0.082 -0.07,0.035 -0.105,0.071 -0.063,0.113 -0.055,0.094 -0.058,0.051 -0.223,0.07 -0.101,0.097 0.097,0.043 0.012,0.079 v 0.054 l 0.015,0.063 0.016,0.082 v 0.082 l 0.016,0.066 0.031,0.074 0.023,0.094 0.02,0.094 0.016,0.078 0.015,0.109 0.051,0.102 0.074,0.063 0.067,0.078 0.07,0.082 0.09,0.086 0.105,0.039 0.051,0.074 0.066,0.113 0.125,0.082 0.125,0.094 0.122,0.07 0.093,0.071 0.231,0.085 0.191,0.102 0.016,0.055 0.101,0.043 0.106,0.054 0.121,0.043 0.113,0.016 0.121,0.039 0.098,0.059 0.129,0.035 0.137,0.043 0.152,0.047 h 0.293 l 0.137,0.043 0.234,0.054 0.133,0.004 0.137,0.02 0.152,-0.016 0.152,-0.004 0.117,-0.027 0.098,-0.012 0.109,-0.031 0.11,-0.035 0.109,-0.004 0.121,-0.059 0.114,-0.097 0.089,-0.043 0.075,-0.063 0.078,-0.082 0.097,-0.098 v -0.125 l 0.067,-0.136 0.168,-0.117 0.129,-0.161 0.129,-0.179 0.105,-0.184 0.137,-0.094 0.152,-0.14 0.121,-0.231 0.043,-0.226 0.067,-0.203 0.039,-0.168 0.031,-0.168 -0.129,-0.145 -0.043,-0.168 0.129,-0.16 0.043,-0.172 v -0.156 l -0.016,-0.129 -0.011,-0.164 -0.082,-0.129 -0.059,-0.113 -0.024,-0.102 -0.074,-0.101 -0.093,-0.118 -0.098,-0.121 0.043,-0.078 -0.078,-0.062 -0.184,-0.09 -0.133,-0.086 -0.136,-0.07 -0.137,-0.067 -0.11,-0.09 -0.16,-0.058 -0.179,-0.02 -0.141,-0.043 -0.16,-0.047 -0.168,-0.047 -0.18,-0.078 -0.039,-0.05 -0.101,-0.004 -0.227,-0.016 -0.191,0.004 -0.172,-0.008 -0.149,0.02 -0.097,0.015 -0.086,0.028 -0.172,0.039 -0.176,0.023 -0.141,0.059 -0.105,0.047 -0.152,0.058 -0.149,0.055 -0.101,0.051 -0.098,0.086 -0.09,0.058 -0.082,0.071 -0.086,0.082 -0.203,0.042 -0.117,0.075 0.012,0.097 -0.071,0.075 -0.074,0.07 -0.07,0.066 -0.039,0.176 0.035,0.106 -0.024,0.019 -0.058,0.055 -0.035,0.051 -0.036,0.043 -0.015,0.031 -0.215,0.031 -0.145,0.063 0.118,0.058 0.015,0.09 0.024,0.055 0.023,0.043 0.102,0.082 0.109,0.07 -0.012,0.066 0.012,0.078 0.035,0.106 0.035,0.113 0.051,0.11 0.074,0.101 0.051,0.121 0.047,0.094 0.074,0.094 0.067,0.097 0.082,0.094 0.179,0.039 0.106,0.078 0.012,0.094 0.101,0.067 0.106,0.07 0.07,0.055 0.074,0.035 0.188,0.058 0.14,0.082 h 0.012 l 0.07,0.02 0.102,0.015 0.086,0.016 0.074,-0.016 0.07,-0.015 0.059,-0.016 0.082,-0.015 0.102,-0.02 0.089,-0.039 0.024,-0.066 0.062,-0.059 0.09,-0.035 0.07,-0.07 0.098,-0.067 0.098,-0.086 0.082,-0.082 0.051,-0.09 0.07,-0.109 0.109,-0.109 0.078,-0.125 0.075,-0.133 0.062,-0.114 0.012,-0.074 0.035,-0.101 0.055,-0.141 0.039,-0.129 0.011,-0.094 0.028,-0.086 0.012,-0.085 -0.137,-0.11 -0.016,-0.097 0.078,-0.036 -0.031,-0.054 -0.031,-0.051 -0.016,-0.027 0.02,0.011 0.078,-0.019 -0.039,-0.078 -0.133,-0.024 -0.082,-0.023 -0.07,-0.012 h -0.075 l -0.156,-0.039 -0.137,-0.047 -0.015,-0.012 -0.071,-0.004 -0.121,0.004 -0.117,-0.011 -0.039,-0.016 -0.121,-0.004 -0.187,0.02 -0.344,0.062 -0.199,0.051 -0.207,0.082 -0.188,0.074 -0.191,0.074 -0.211,0.11 -0.207,0.105 -0.184,0.125" style="fill:none;stroke:#000000;stroke-width:2.61538;stroke-linecap:round;stroke-linejoin:round;stroke-miterlimit:10;stroke-dasharray:none;stroke-opacity:1" id="path1332" />
         </g>
         <g id="g1334" transform="scale(1,-1)">
            <path d="m 1018.824,-550 c -4.133,-1.832 -10.695,0.414 -12.109,4.809 -0.77,4.726 3.527,9.277 8.246,9.179 2.609,-0.144 5.93,-0.136 7.305,-2.812 1.742,-1.926 1.293,-4.75 0.113,-6.836 -1.07,-3.344 -4.391,-5.551 -7.859,-5.512 -1.184,0.133 -3.602,0.934 -4.348,2.074" style="fill:none;stroke:#000000;stroke-width:2.61538;stroke-linecap:round;stroke-linejoin:round;stroke-miterlimit:10;stroke-dasharray:none;stroke-opacity:1" id="path1336" />
         </g>
         <g id="g1338" transform="scale(1,-1)">
            <path d="m 1014.941,-556.797 c -0.347,0.442 -2.144,-0.473 -1.586,0.078 0.063,0.645 0.606,0.985 0.993,1.434 0.418,0.515 1.324,0.547 1.652,-0.094 0.469,-0.539 0.215,-1.25 -0.363,-1.57 -0.449,-0.324 -1.246,-0.184 -1.66,0.148 -0.176,0.223 -0.442,0.344 -0.672,0.5" style="fill:none;stroke:#000000;stroke-width:2.61538;stroke-linecap:round;stroke-linejoin:round;stroke-miterlimit:10;stroke-dasharray:none;stroke-opacity:1" id="path1340" />
         </g>
         <g id="g1342" transform="scale(1,-1)">
            <path d="m 1010.996,-603.434 c 1.02,0.075 3.399,0.942 4.926,1.25 2.293,-0.074 2.34,-3.226 2.519,-5.054 -0.175,-1.793 0.329,-3.602 0.028,-5.364 -0.961,-1.117 -3.211,-1.468 -4.809,-1.824 -1.797,-0.695 -3.789,-0.234 -3.367,2.071 0.371,2.089 -0.297,4.136 -0.398,6.23 -0.083,1.258 0.187,1.551 -0.012,2.492" style="fill:none;stroke:#000000;stroke-width:2.61538;stroke-linecap:round;stroke-linejoin:round;stroke-miterlimit:10;stroke-dasharray:none;stroke-opacity:1" id="path1344" />
         </g>
         <g id="g1346" transform="scale(1,-1)">
            <path d="m 925.879,-509.305 c 0.266,-2.769 1.09,-5.492 0.918,-8.297" style="fill:none;stroke:#000000;stroke-width:2.61538;stroke-linecap:round;stroke-linejoin:round;stroke-miterlimit:10;stroke-dasharray:none;stroke-opacity:1" id="path1348" />
         </g>
         <g id="g1350" transform="scale(1,-1)">
            <path d="m 928.684,-521.82 c 1.457,-1.879 3.457,-4.524 5.414,-6.239 2.504,-4.101 7.82,-1.949 11.785,-1.636 10.305,2.402 21.027,3.355 31.531,1.785 5.395,-0.66 11.387,-1.082 15.563,-4.973 2.425,-1.551 6.351,-1.867 10.418,-1.433 8.105,0.597 16.238,0.98 24.195,2.66 0.383,0.172 6.937,2.199 7.074,1.953" style="fill:none;stroke:#000000;stroke-width:2.61538;stroke-linecap:round;stroke-linejoin:round;stroke-miterlimit:10;stroke-dasharray:none;stroke-opacity:1" id="path1352" />
         </g>
         <g id="g1354" transform="scale(1,-1)">
            <path d="m 1034.57,-529.047 c 7.192,6.785 15.731,12.301 25.43,14.649 6.363,1.742 12.586,4.707 19.359,3.914 5.2,-1.575 7.953,2.32 12.672,2.804" style="fill:none;stroke:#000000;stroke-width:2.61538;stroke-linecap:round;stroke-linejoin:round;stroke-miterlimit:10;stroke-dasharray:none;stroke-opacity:1" id="path1356" />
         </g>
         <g id="g1358" transform="scale(1,-1)">
            <path d="m 1092.148,-507.191 c 0.6295,-0.23363 0.1499,0.91075 0.344,1.26487 0.2838,1.42645 -0.2656,2.93177 0.285,4.32113 0.098,1.36957 -0.2023,2.78092 0.243,4.113" style="fill:none;stroke:#000000;stroke-width:2.61538;stroke-linecap:round;stroke-linejoin:round;stroke-miterlimit:10;stroke-dasharray:none;stroke-opacity:1" id="path1360" />
         </g>
         <g id="g1362" transform="scale(1,-1)">
            <path d="m 1093.543,-484.996 c 0.566,-2.527 -0.012,-5.117 0.203,-7.672 -0.723,-0.973 0.01,-2.16 -0.098,-3.223 -0.226,-1.148 -1.683,-1.461 -2.664,-1.179 -1.277,0.316 -2.254,1.55 -2.156,2.882 -0.117,1.954 -0.043,3.922 -0.301,5.868 l -0.093,0.117 -0.145,0.039" style="fill:none;stroke:#000000;stroke-width:2.61538;stroke-linecap:round;stroke-linejoin:round;stroke-miterlimit:10;stroke-dasharray:none;stroke-opacity:1" id="path1364" />
         </g>
         <g id="g1366" transform="scale(1,-1)">
            <path d="m 930.09,-508.684 c 0.883,-3.211 1.566,-6.66 0.656,-9.945" style="fill:none;stroke:#000000;stroke-width:2.61538;stroke-linecap:round;stroke-linejoin:round;stroke-miterlimit:10;stroke-dasharray:none;stroke-opacity:1" id="path1368" />
         </g>
         <g id="g1370" transform="scale(1,-1)">
            <path d="m 935.379,-510.469 c 48.633,7.547 97.301,15.641 146.508,18.305" style="fill:none;stroke:#000000;stroke-width:2.61538;stroke-linecap:round;stroke-linejoin:round;stroke-miterlimit:10;stroke-dasharray:none;stroke-opacity:1" id="path1372" />
         </g>
         <g id="g1374" transform="scale(1,-1)">
            <path d="m 935.66,-514.961 c 47.281,8.481 94.957,15.684 143.047,17.066" style="fill:none;stroke:#000000;stroke-width:2.61538;stroke-linecap:round;stroke-linejoin:round;stroke-miterlimit:10;stroke-dasharray:none;stroke-opacity:1" id="path1376" />
         </g>
         <g id="g1378" transform="scale(1,-1)">
            <path d="m 939.695,-517.188 c 11.508,1.258 23.039,4.817 34.68,2.895 4.914,-0.84 9.648,-3.184 12.789,-7.137" style="fill:none;stroke:#000000;stroke-width:2.61538;stroke-linecap:round;stroke-linejoin:round;stroke-miterlimit:10;stroke-dasharray:none;stroke-opacity:1" id="path1380" />
         </g>
         <g id="g1382" transform="scale(1,-1)">
            <path d="m 988.371,-520.602 c 9.77,2.188 22.594,2.594 32.504,3.981" style="fill:none;stroke:#000000;stroke-width:2.61538;stroke-linecap:round;stroke-linejoin:round;stroke-miterlimit:10;stroke-dasharray:none;stroke-opacity:1" id="path1384" />
         </g>
         <g id="g1386" transform="scale(1,-1)">
            <path d="m 1021.961,-515.742 c 10.332,6.519 21.375,12.539 33.512,14.804 10.968,3.223 22.312,2.469 33.55,3.547" style="fill:none;stroke:#000000;stroke-width:2.61538;stroke-linecap:round;stroke-linejoin:round;stroke-miterlimit:10;stroke-dasharray:none;stroke-opacity:1" id="path1388" />
         </g>
         <g id="g1390" transform="scale(1,-1)">
            <path d="m 1020.875,-516.621 c 4.528,-2.382 8.738,-11.469 13.789,-13.082" style="fill:none;stroke:#000000;stroke-width:2.61538;stroke-linecap:round;stroke-linejoin:round;stroke-miterlimit:10;stroke-dasharray:none;stroke-opacity:1" id="path1392" sodipodi:nodetypes="cc" />
         </g>
         <g id="g1394" transform="scale(1,-1)">
            <path d="m 986.488,-521.914 c 2.7,-2.27 3.95,-8.539 6.489,-10.969" style="fill:none;stroke:#000000;stroke-width:2.61538;stroke-linecap:round;stroke-linejoin:round;stroke-miterlimit:10;stroke-dasharray:none;stroke-opacity:1" id="path1396" sodipodi:nodetypes="cc" />
         </g>
         <g id="g1398" transform="scale(1,-1)">
            <path id="path1400" style="fill:none;stroke:#000000;stroke-width:2.61538;stroke-linecap:round;stroke-linejoin:round;stroke-miterlimit:10;stroke-dasharray:none;stroke-opacity:1" d="m 966.461,-563.883 c 8.60998,-1.15439 20.65836,-12.57194 13.38638,-24.2948 -5.58462,-9.58822 -16.6277,-16.93643 -28.05797,-14.77493 -9.21096,0.55868 -16.07885,9.51579 -14.79284,18.53116 1.65828,8.5371 7.20648,17.99096 16.34962,19.90471 4.33046,0.70597 8.73332,1.1999 13.11481,0.63386" sodipodi:nodetypes="cccccc" />
         </g>
         <g id="g1410" transform="scale(1,-1)">
            <path d="m 953.426,-574.688 c 5.07743,2.86368 13.56932,3.62855 15.71287,-3.22154 2.74774,-6.23097 -2.16919,-12.38704 -7.79153,-14.6562 -5.03352,-2.27488 -13.35846,-1.52549 -14.88932,4.78417 -1.47481,6.1962 -0.24334,9.84098 6.96798,13.09357" style="fill:none;stroke:#000000;stroke-width:2.61538;stroke-linecap:round;stroke-linejoin:round;stroke-miterlimit:10;stroke-dasharray:none;stroke-opacity:1" id="path1412" sodipodi:nodetypes="ccccc" />
         </g>
         <g id="g1414" transform="scale(1,-1)">
            <path d="m 949.992,-583.105 c 0.85939,0.22069 2.78423,0.8462 1.88075,-0.80351 -0.76044,-1.06725 -1.46015,-3.38082 0.62674,-3.29537 1.89656,1.08215 1.33117,-1.88923 2.66959,-2.29759 1.20389,-0.49668 2.61413,-0.44608 3.65103,0.4082 0.48276,0.17853 1.00499,0.11927 1.50797,0.1327" style="fill:none;stroke:#000000;stroke-width:2.61538;stroke-linecap:round;stroke-linejoin:round;stroke-miterlimit:10;stroke-dasharray:none;stroke-opacity:1" id="path1416" />
         </g>
         <g id="g1418" transform="scale(1,-1)">
            <path d="m 954.094,-581.832 h -0.004 l -0.047,-0.004 -0.035,0.008 -0.016,-0.016 -0.012,-0.004 -0.019,-0.011 -0.016,0.043 h -0.011 l -0.016,-0.008 0.016,-0.008 -0.024,0.016 0.004,-0.028 v 0.028 l 0.035,0.007 -0.023,0.008 h -0.012 l 0.012,0.012 0.019,0.016 0.016,-0.004 0.012,0.004 -0.047,0.027 -0.02,0.012 0.094,0.031 0.062,0.051 h 0.024 l 0.019,0.015 0.055,0.024 0.074,0.043 0.036,0.058 0.003,0.016 0.051,0.027 0.067,0.028 0.043,0.046 0.089,0.032 0.075,0.047 v 0.05 l 0.047,0.036 0.058,0.058 0.035,0.043 0.086,0.031 0.02,0.078 v 0.063 l 0.082,0.027 0.074,0.035 0.055,0.043 0.043,0.032 0.246,0.015 0.16,0.063 -0.106,0.035 0.036,0.035 0.035,0.055 0.008,0.023 0.019,0.028 -0.035,0.031 v 0.043 l 0.051,0.047 0.047,0.054 0.027,0.051 0.008,0.059 0.094,0.043 0.082,0.039 -0.047,0.051 0.011,0.058 0.016,0.082 0.016,0.063 -0.016,0.047 0.02,0.054 0.054,0.055 -0.004,0.066 0.004,0.02 0.024,0.058 0.031,0.067 -0.07,0.027 0.035,0.016 0.066,0.015 0.004,0.024 0.02,0.012 0.015,0.004 0.004,0.007 -0.004,0.008 0.02,-0.008 0.011,-0.007 0.008,0.003 0.008,-0.007 0.02,-0.004 0.054,-0.008 0.016,-0.004 -0.059,0.012 h -0.015 l -0.004,0.015 H 956 l -0.043,0.028 -0.031,0.007 -0.008,0.016 v 0.047 -0.012 l 0.062,0.02 0.067,0.043 -0.043,0.043 -0.031,0.023 -0.008,0.063 0.012,0.047 0.003,0.05 0.153,0.039 0.07,0.004 -0.066,0.055 0.004,0.07 0.011,0.063 0.016,0.062 0.059,0.086 -0.012,0.09 0.004,0.098 0.133,0.078 0.117,0.062 0.07,0.082 0.074,0.067 0.168,0.035 0.145,0.062 0.019,0.059 0.055,0.055 0.047,0.074 0.07,0.043 0.008,0.039 0.008,0.008 0.082,0.019 0.09,0.047 0.078,0.031 h 0.043 l 0.039,0.008 -0.008,-0.004 0.039,0.004 0.098,-0.008 0.054,-0.011 h 0.04 l 0.05,-0.004 0.074,0.008 h 0.083 l 0.054,-0.004 0.043,0.011 0.051,0.004 h 0.172 l 0.015,0.024 0.036,0.019 0.05,0.008 0.047,0.043 0.02,0.039 0.039,0.02 0.078,0.011 0.051,0.032 0.051,0.015 0.074,0.008 0.129,0.02 0.144,0.027 0.035,0.012 0.032,0.023 0.062,0.027 0.047,0.012 0.043,0.02 0.031,0.027 0.051,0.016 0.066,0.023 0.079,0.012 0.066,0.008 0.047,0.023 0.066,0.02 0.008,0.05 -0.012,0.012 0.055,-0.008 -0.004,0.039 0.035,0.032 0.028,-0.024 0.121,-0.031 0.086,0.008 -0.075,0.019 0.016,0.008 h 0.016 l -0.004,0.004 h -0.071 l 0.008,-0.008 0.051,-0.008 0.031,-0.004 0.032,0.008 0.035,-0.008 0.09,-0.007 0.105,0.015 0.059,-0.004 0.07,0.004 0.07,-0.008 0.082,-0.003 0.063,-0.024 0.078,-0.023 0.105,-0.012 0.09,-0.027 0.098,-0.028 0.094,-0.031 0.086,-0.031 0.074,-0.047 0.086,-0.043 0.09,-0.039 0.074,-0.055 0.07,-0.043 0.074,-0.039 0.051,-0.039 0.07,-0.051 0.075,-0.054 0.05,-0.028 0.036,-0.031 0.039,-0.043 0.062,-0.019 0.113,-0.028 -0.015,-0.027 -0.055,-0.024 -0.008,-0.007 -0.019,0.007 -0.024,-0.003 -0.097,0.003 -0.055,-0.011 0.016,0.004 -0.016,-0.016 -0.016,-0.012 v -0.004 h 0.055 l -0.027,0.02 -0.075,-0.024 0.012,-0.05 -0.012,-0.024 -0.019,-0.011 -0.027,-0.036 0.007,-0.047 v -0.023 l -0.027,-0.012 -0.023,-0.027 -0.024,-0.023 -0.027,-0.043 -0.063,-0.055 -0.121,-0.024 -0.027,-0.062 0.043,-0.055 -0.016,-0.05 -0.019,-0.063 -0.024,-0.051 0.043,-0.062 0.016,-0.071 -0.067,-0.058 -0.031,-0.074 -0.027,-0.043 -0.043,-0.051 -0.059,-0.059 -0.023,-0.066 -0.02,-0.059 -0.011,-0.047 -0.024,-0.054 -0.023,-0.051 -0.028,-0.055 -0.054,-0.035 -0.024,-0.043 0.016,-0.027 0.004,-0.028 0.004,-0.019 0.004,-0.008 -0.016,-0.008 h 0.02 l 0.035,-0.011 -0.004,0.003 0.008,-0.019 0.015,0.004 0.047,0.008 0.082,-0.012 v -0.016 l -0.027,0.016 -0.004,0.016 -0.004,0.011 0.008,0.008 -0.09,0.02 -0.008,-0.02 0.129,-0.035 0.098,-0.008 0.05,-0.035 0.067,-0.008 0.125,-0.023 0.18,-0.016 0.043,-0.008 0.039,-0.019 0.082,-0.024 0.125,-0.015 0.14,-0.032 0.008,-0.031 0.074,-0.015 h 0.184 l 0.183,-0.024 0.168,-0.004 0.121,-0.015 0.102,-0.004 v 0.015 l 0.09,0.004 0.223,-0.019 0.148,-0.028 h 0.121 l 0.106,-0.011 0.195,-0.008 0.164,0.019 0.039,-0.011 0.062,-0.016 0.047,-0.016 0.067,-0.007 0.09,-0.028 0.023,-0.047 0.039,-0.015 0.07,-0.028 0.063,-0.039 0.016,-0.035 0.015,-0.027 0.082,-0.035 0.071,-0.039 -0.028,-0.032 -0.008,-0.019 -0.011,-0.016 -0.016,-0.023 v -0.035 l 0.004,-0.032 -0.012,-0.047 -0.043,-0.035 -0.023,-0.05 -0.031,-0.036 -0.008,-0.043 -0.028,-0.05 -0.035,-0.059 -0.015,-0.047 -0.039,-0.035 -0.04,-0.039 -0.019,-0.035 -0.141,-0.039 -0.09,-0.075 0.059,-0.05 -0.016,-0.047 -0.035,-0.055 -0.015,-0.047 0.011,-0.051 0.118,-0.062 -0.024,-0.063 -0.121,-0.058 -0.027,-0.07 -0.02,-0.051 -0.015,-0.043 -0.125,-0.047 -0.051,-0.074 0.074,-0.039 0.012,-0.059 0.039,-0.059 0.019,-0.031 0.024,-0.039 0.051,-0.051 0.046,-0.05 0.047,-0.075 0.067,-0.047 0.066,-0.05 0.039,-0.043 0.078,-0.035 0.071,-0.043 0.074,-0.071 0.094,-0.058 0.078,-0.043 0.074,-0.067 0.09,-0.062 -0.02,-0.024 0.043,-0.039 0.121,-0.043 0.074,-0.043 0.075,-0.05 0.054,-0.043 0.18,-0.032 0.074,-0.054 -0.035,-0.02 0.047,-0.008 h 0.035 l 0.024,-0.015 0.074,-0.031 0.035,-0.024 -0.02,-0.004 h -0.011 l -0.008,-0.004 -0.012,-0.015 -0.035,-0.043 -0.023,-0.032 0.007,-0.027 0.012,-0.016 0.016,-0.031 v -0.054 l -0.129,-0.012 -0.035,-0.063 0.051,-0.047 -0.036,-0.039 0.039,-0.019 0.004,-0.02 v -0.031 l 0.071,-0.066 -0.02,-0.055 -0.094,-0.031 -0.004,-0.043 -0.019,-0.043 -0.027,-0.059 -0.211,-0.039 -0.153,-0.086 0.063,-0.078 -0.047,-0.078 -0.059,-0.055 -0.019,-0.043 -0.008,-0.043 0.035,-0.047 -0.047,-0.054 -0.105,-0.051 -0.078,-0.043 -0.059,-0.043 -0.066,-0.051 -0.051,-0.058 -0.063,-0.043 -0.078,-0.047 -0.054,-0.039 -0.04,-0.032 -0.039,-0.042 -0.046,-0.036 -0.114,-0.027 -0.082,-0.031 0.012,-0.043 -0.023,-0.031 -0.028,-0.032 -0.031,-0.008 0.055,-0.011 0.035,-0.028 -0.055,-0.015 -0.039,-0.004 -0.043,-0.004 -0.039,-0.008 0.012,-0.035 -0.043,-0.012 -0.067,-0.004 -0.004,-0.039 -0.019,-0.05 -0.035,-0.051 -0.059,-0.02 -0.066,-0.031 -0.016,-0.039 -0.016,-0.016 -0.046,-0.011" style="fill:none;stroke:#000000;stroke-width:2.61538;stroke-linecap:round;stroke-linejoin:round;stroke-miterlimit:10;stroke-dasharray:none;stroke-opacity:1" id="path1420" />
         </g>
         <g id="g1422" transform="scale(1,-1)">
            <path id="path1424" style="fill:none;stroke:#000000;stroke-width:2.61538;stroke-linecap:round;stroke-linejoin:round;stroke-miterlimit:10;stroke-dasharray:none;stroke-opacity:1" d="m 1067.601,-561.69094 c -11.2318,-4.70085 3.8973,-15.11402 4.88,-3.74778 -0.01,2.41502 -2.3719,4.86104 -4.88,3.74778 m -6.2732,4.40283 c 9.345,8.20179 23.0536,-7.36082 12.9932,-14.78428 -7.0093,-8.38903 -24.6889,-0.61835 -17.0523,10.09116 2.1655,3.73334 5.9202,6.44885 10.3694,6.76087 m -3.618,6.63842 c 10.9424,4.28411 23.4951,-4.7096 22.4237,-16.56201 -0.841,-10.54089 -10.2861,-19.66947 -20.5085,-21.5076 -9.6283,-1.86265 -21.5399,5.1613 -20.4532,15.91658 0.2147,10.76114 6.8658,18.1089 18.538,22.15303" sodipodi:nodetypes="cccccccccccc" />
         </g>
         <g id="g1426" transform="scale(1,-1)">
            <path d="m 899.766,-635.609 c -1.336,-1.93 -4.075,-3.172 -4.34,-5.844 0.746,-8.762 -1.531,-34.453 3.461,-36.699" style="fill:none;stroke:#000000;stroke-width:2.61538;stroke-linecap:round;stroke-linejoin:round;stroke-miterlimit:10;stroke-dasharray:none;stroke-opacity:1" id="path1428" />
         </g>
         <g id="g1430" transform="scale(1,-1)">
            <path d="m 898.887,-678.152 c 66.738,-11.121 152.129,-39.938 225.933,-52.786" style="fill:none;stroke:#000000;stroke-width:2.61538;stroke-linecap:round;stroke-linejoin:round;stroke-miterlimit:10;stroke-dasharray:none;stroke-opacity:1" id="path1432" />
         </g>
         <g id="g1434" transform="scale(1,-1)">
            <path d="m 1126.3041,-731.29682 c -0.685,11.36617 2.0782,21.86392 3.1019,32.34782 l 0.16,0.238 0.473,0.32" style="fill:none;stroke:#000000;stroke-width:2.61538;stroke-linecap:round;stroke-linejoin:round;stroke-miterlimit:10;stroke-dasharray:none;stroke-opacity:1" id="path1436" sodipodi:nodetypes="cccc" />
         </g>
         <g id="g1438" transform="scale(1,-1)">
            <path d="m 1127.742,-728.711 h -0.01 l -0.035,0.004 -0.023,0.012 -0.035,0.023 -0.016,0.008 0.031,-0.004" style="fill:none;stroke:#000000;stroke-width:2.61538;stroke-linecap:round;stroke-linejoin:round;stroke-miterlimit:10;stroke-dasharray:none;stroke-opacity:1" id="path1440" />
         </g>
         <g id="g1442" transform="scale(1,-1)">
            <path d="m 1126.3041,-731.29682 c 15.445,27.981 28.6649,60.55082 40.0079,85.41382" style="fill:none;stroke:#000000;stroke-width:2.61538;stroke-linecap:round;stroke-linejoin:round;stroke-miterlimit:10;stroke-dasharray:none;stroke-opacity:1" id="path1444" sodipodi:nodetypes="cc" />
         </g>
         <g id="g1446" transform="scale(1,-1)">
            <path d="m 1166.508,-645.848 c 1.004,8.086 1.844,17.996 2.746,25.121 0,1.704 0.227,2.958 0.07,4.668" style="fill:none;stroke:#000000;stroke-width:2.61538;stroke-linecap:round;stroke-linejoin:round;stroke-miterlimit:10;stroke-dasharray:none;stroke-opacity:1" id="path1448" sodipodi:nodetypes="ccc" />
         </g>
         <g id="g1450" transform="scale(1,-1)">
            <path d="m 1169.426,-616.484 c -4.906,-11.067 -9.738,-22.18 -15.614,-32.774 -6.042,-13.258 -11.843,-26.644 -19.023,-39.34 -1.605,-3.242 -3.078,-6.566 -4.098,-10.039" style="fill:none;stroke:#000000;stroke-width:2.61538;stroke-linecap:round;stroke-linejoin:round;stroke-miterlimit:10;stroke-dasharray:none;stroke-opacity:1" id="path1452" />
         </g>
         <g id="g1454" transform="scale(1,-1)">
            <path d="m 896.902,-640.797 c 0.34,-0.676 1.246,-0.738 1.93,-0.867 1.051,-0.121 2.109,-0.297 3.113,-0.652 0.157,-0.028 0.321,-0.09 0.481,-0.067" style="fill:none;stroke:#000000;stroke-width:2.61538;stroke-linecap:round;stroke-linejoin:round;stroke-miterlimit:10;stroke-dasharray:none;stroke-opacity:1" id="path1456" />
         </g>
         <g id="g1458" transform="scale(1,-1)">
            <path d="m 912.574,-645.746 c 77.438,-11.984 194.082,-50.102 217.371,-53" style="fill:none;stroke:#000000;stroke-width:2.61538;stroke-linecap:round;stroke-linejoin:round;stroke-miterlimit:10;stroke-dasharray:none;stroke-opacity:1" id="path1460" />
         </g>
         <g id="g1462" transform="scale(1,-1)">
            <path d="m 1116.152,-603.695 c 8.973,-0.278 18.813,-3.657 27.516,-5.543 8.023,-2.153 16.055,-4.293 24.164,-6.063 l 0.836,-0.347 0.656,-0.411" style="fill:none;stroke:#000000;stroke-width:2.61538;stroke-linecap:round;stroke-linejoin:round;stroke-miterlimit:10;stroke-dasharray:none;stroke-opacity:1" id="path1464" />
         </g>
         <g id="g1466" transform="scale(1,-1)">
            <path d="m 1131.191,-700.395 c 2.137,-0.628 3.235,-2.808 5.133,-3.82" style="fill:none;stroke:#000000;stroke-width:1.30769;stroke-linecap:round;stroke-linejoin:round;stroke-miterlimit:10;stroke-dasharray:none;stroke-opacity:1" id="path1468" />
         </g>
         <g id="g1470" transform="scale(1,-1)">
            <path d="m 1132.039,-721.141 c 0.781,3.551 2.719,6.754 3.297,10.371 0.285,1.399 0.18,5.348 0.988,6.555" style="fill:none;stroke:#000000;stroke-width:1.30769;stroke-linecap:round;stroke-linejoin:round;stroke-miterlimit:10;stroke-dasharray:none;stroke-opacity:1" id="path1472" sodipodi:nodetypes="ccc" />
         </g>
         <g id="g1474" transform="scale(1,-1)">
            <path d="m 1141.613,-691.121 c 7.6016,16.36703 15.1735,32.76365 21.746,49.578" style="fill:none;stroke:#000000;stroke-width:1.30769;stroke-linecap:round;stroke-linejoin:round;stroke-miterlimit:10;stroke-dasharray:none;stroke-opacity:1" id="path1476" />
         </g>
         <g id="g1478" transform="scale(1,-1)">
            <path d="m 915.848,-600.828 c -0.977,12.195 -0.907,28.414 -1.551,40.988" style="fill:none;stroke:#000000;stroke-width:1.30769;stroke-linecap:round;stroke-linejoin:round;stroke-miterlimit:10;stroke-dasharray:none;stroke-opacity:1" id="path1480" />
         </g>
         <g id="g1482" transform="scale(1,-1)">
            <path d="m 914.297,-559.84 c 28.273,7.399 58.039,10.012 86.773,14.887" style="fill:none;stroke:#000000;stroke-width:1.30769;stroke-linecap:round;stroke-linejoin:round;stroke-miterlimit:10;stroke-dasharray:none;stroke-opacity:1" id="path1484" sodipodi:nodetypes="cc" />
         </g>
         <g id="g1486" transform="scale(1,-1)">
            <path d="m 1029.023,-541.332 c 15.407,7.602 32.911,9.062 49.84,9.156 9.657,0.137 21.904,0.44701 31.532,1.22501" style="fill:none;stroke:#000000;stroke-width:1.30769;stroke-linecap:round;stroke-linejoin:round;stroke-miterlimit:10;stroke-dasharray:none;stroke-opacity:1" id="path1488" sodipodi:nodetypes="ccc" />
         </g>
         <g id="g1490" transform="scale(1,-1)">
            <path d="m 1110.395,-530.95099 c 0.1153,-5.55658 -0.2888,-12.27329 -0.68,-17.80831 0.039,-5.92564 -1.7131,-11.71439 -1.6585,-17.63089 0.028,-0.31359 0.06,-0.62704 0.072,-0.94181" style="fill:none;stroke:#000000;stroke-width:1.30769;stroke-linecap:round;stroke-linejoin:round;stroke-miterlimit:10;stroke-dasharray:none;stroke-opacity:1" id="path1492" sodipodi:nodetypes="cccc" />
         </g>
         <g id="g1494" transform="scale(1,-1)">
            <path d="m 915.539,-601.055 c 12.949,-6.593 29.348,-18.007 41.879,-25.297" style="fill:none;stroke:#000000;stroke-width:1.30769;stroke-linecap:round;stroke-linejoin:round;stroke-miterlimit:10;stroke-dasharray:none;stroke-opacity:1" id="path1496" />
         </g>
         <g id="g1498" transform="scale(1,-1)">
            <path d="m 957.629,-626.602 c 38.25,6.352 76.078,15.207 114.578,20.047" style="fill:none;stroke:#000000;stroke-width:1.30769;stroke-linecap:round;stroke-linejoin:round;stroke-miterlimit:10;stroke-dasharray:none;stroke-opacity:1" id="path1500" />
         </g>
         <g id="g1502" transform="scale(1,-1)">
            <path d="m 1072.207,-606.555 c 10.601,13.715 23.461,27.157 35.922,39.223" style="fill:none;stroke:#000000;stroke-width:1.30769;stroke-linecap:round;stroke-linejoin:round;stroke-miterlimit:10;stroke-dasharray:none;stroke-opacity:1" id="path1504" sodipodi:nodetypes="cc" />
         </g>
         <g id="g1506" transform="scale(1,-1)">
            <path d="m 1016.969,-594.07 c -1.055,-1.973 -4.18,0.984 -3.856,2.64 0.153,2.121 3.774,1.305 4.293,-0.277 0.817,-1.965 -1.812,-3.992 -3.34,-2.34" style="fill:none;stroke:#000000;stroke-width:1.30769;stroke-linecap:round;stroke-linejoin:round;stroke-miterlimit:10;stroke-dasharray:none;stroke-opacity:1" id="path1508" />
         </g>
      </g>
   </g>
</svg>
