<?xml version="1.0" encoding="UTF-8" standalone="no"?>
<!-- Created by Ashley Blewer - This work is licensed under a Creative Commons Attribution 4.0 International License -->

<svg width="544" height="480" viewBox="0 0 143.93334 127" version="1.1" id="svg2490" inkscape:version="1.1.2 (08b2f3d93c, 2022-04-05)" sodipodi:docname="1989-hi8-3.svg"
   xmlns:inkscape="http://www.inkscape.org/namespaces/inkscape"
   xmlns:sodipodi="http://sodipodi.sourceforge.net/DTD/sodipodi-0.dtd"
   xmlns="http://www.w3.org/2000/svg"
   xmlns:svg="http://www.w3.org/2000/svg">
   <sodipodi:namedview id="namedview2492" pagecolor="#ffffff" bordercolor="#666666" borderopacity="1.0" inkscape:pageshadow="2" inkscape:pageopacity="0.0" inkscape:pagecheckerboard="0" inkscape:document-units="mm" showgrid="false" units="px" inkscape:zoom="0.90583674" inkscape:cx="272.67607" inkscape:cy="177.18425" inkscape:window-width="1848" inkscape:window-height="1136" inkscape:window-x="72" inkscape:window-y="27" inkscape:window-maximized="1" inkscape:current-layer="layer1" />
   <defs id="defs2487" />
   <g inkscape:label="Layer 1" inkscape:groupmode="layer" id="layer1">
      <g id="g5250" transform="matrix(0.28407729,0,0,0.28407729,-187.77822,-1.3735229)">
         <g id="g902" transform="matrix(1,0,0,-1,25.5,-42)">
            <path d="m 719.746,-317.68 v -0.027 l -0.035,-0.066 -0.031,-0.09 -0.028,-0.106 -0.007,-0.09 -0.024,-0.046 -0.016,-0.051 -0.011,0.011 -0.028,0.012 -0.011,0.016 -0.004,0.023 -0.004,0.02 -0.016,0.07 -0.031,0.059 -0.016,0.062 -0.011,0.063 -0.008,0.054 -0.004,0.051 -0.004,0.039 -0.008,0.031 -0.004,0.059 0.004,0.012 v 0.058 l 0.016,0.039 0.012,0.032 0.003,0.031 0.004,0.027 v 0.024 l 0.004,0.027 0.02,0.051 -0.012,0.043 -0.043,0.023 -0.019,0.039 -0.012,0.035 -0.024,0.02 -0.132,0.039 -0.086,0.066 0.027,0.047 -0.027,0.055 v 0.035 l -0.02,0.02 0.055,0.023 0.023,0.039 -0.039,0.024 -0.019,0.05 -0.039,0.051 -0.004,0.028 -0.02,0.043 0.008,0.031 v 0.051 l -0.012,0.035 -0.035,0.019 -0.035,0.028 -0.012,0.031 0.047,0.019 -0.031,0.024 -0.047,0.023 0.004,0.032 -0.024,0.046 -0.007,0.024 -0.024,0.047 0.125,0.031 -0.019,0.043 -0.129,0.039 0.027,0.043 -0.015,0.055 -0.012,0.039 -0.004,0.011 -0.016,0.039 -0.023,0.028 -0.024,0.047 -0.035,0.074 -0.015,0.055 -0.059,0.058 -0.027,0.067 0.015,0.046 -0.039,0.043 -0.023,0.039 -0.016,0.051 -0.008,0.059 -0.019,0.055 -0.008,0.078 -0.016,0.058 -0.023,0.063 -0.008,0.047 -0.035,0.035 -0.027,0.078 0.007,0.051 -0.003,0.027 -0.004,0.024 -0.016,0.027 -0.012,0.047 -0.109,0.058 -0.047,0.067 0.035,0.031 -0.031,0.059 -0.008,0.035 -0.019,0.05 0.027,0.055 0.09,0.047 -0.02,0.063 -0.074,0.039 -0.047,0.066 -0.039,0.066 -0.035,0.036 -0.063,0.05 -0.05,0.075 0.019,0.058 -0.027,0.028 -0.004,0.027 -0.004,0.031 0.078,0.039 0.055,0.035 -0.074,0.043 -0.036,0.059 -0.015,0.062 -0.028,0.039 -0.011,0.028 0.019,0.027 0.008,0.047 -0.055,0.047 -0.019,0.047 -0.012,0.054 -0.023,0.036 -0.028,0.031 -0.05,0.031 -0.039,0.051 0.011,0.043 -0.027,0.019 -0.004,0.024 -0.035,0.043 0.008,0.015 0.027,0.02 -0.016,0.043 v 0.07 l 0.004,0.032 0.016,0.011 0.012,0.012 -0.012,0.012 -0.004,0.027 -0.012,0.027 -0.043,0.02 -0.05,0.047 -0.008,0.019 0.027,0.008 0.008,0.02 0.004,0.023 -0.02,0.012 0.02,0.047 0.008,0.011 v 0.032 l -0.016,0.035 -0.027,0.039 -0.02,0.043 0.027,0.051 0.004,0.031 -0.023,0.031 -0.023,0.027 -0.024,0.032 -0.023,0.043 -0.157,0.074 -0.097,0.07 0.058,0.039 0.004,0.059 0.008,0.031 -0.004,0.043 0.07,0.055 0.098,0.054 -0.035,0.063 -0.086,0.055 -0.062,0.062 -0.02,0.043 -0.016,0.043 -0.058,0.051 -0.043,0.09 0.027,0.07 v 0.031 l -0.004,0.035 -0.004,0.039 v 0.071 l -0.027,0.051 -0.012,0.062 -0.004,0.063 -0.019,0.043 -0.024,0.046 -0.015,0.118 -0.02,0.054 -0.027,0.047 -0.012,0.035 -0.023,0.051 0.008,0.047 -0.02,0.055 -0.039,0.039 -0.012,0.051 -0.012,0.058 -0.019,0.055 -0.023,0.039 -0.079,0.035 -0.007,0.035 0.031,0.039 -0.012,0.051 0.004,0.031 v 0.035 l 0.094,0.028 0.039,0.043 -0.055,0.035 -0.031,0.039 -0.012,0.039 -0.008,0.023 -0.035,0.012 -0.062,0.031 -0.032,0.039 0.008,0.004 v 0.004 l 0.004,0.008 0.004,0.016 -0.035,0.023 -0.004,0.031 0.012,0.024 -0.008,0.043 -0.004,0.027 v 0.035 l 0.031,0.032 0.106,0.027 v 0.039 l -0.074,0.012 -0.024,0.047 -0.012,0.039 -0.011,0.023 -0.082,0.016 -0.047,0.031 0.019,0.016 0.008,0.046 0.008,-0.003 0.027,0.015 0.031,0.02 -0.011,0.035 -0.02,0.039 -0.031,0.043 -0.027,0.051 -0.016,0.07 -0.043,0.07 -0.035,0.082 0.016,0.075 -0.004,0.062 -0.016,0.063 -0.02,0.066 -0.011,0.059 -0.035,0.058 -0.032,0.09 0.004,0.078 -0.023,0.07 -0.008,0.063 -0.023,0.066 -0.059,0.063 -0.039,0.062 0.012,0.059 0.015,0.055 0.008,0.066 0.008,0.063 0.098,0.054 0.042,0.074 -0.07,0.036 -0.031,0.058 -0.016,0.063 -0.023,0.047 -0.016,0.046 -0.074,0.051 -0.07,0.055 0.027,0.051 0.02,0.039 -0.008,0.058 -0.02,0.055 0.059,0.055 0.047,0.05 -0.055,0.036 -0.031,0.062 -0.016,0.074 -0.012,0.055 -0.019,0.051 0.058,0.07 v 0.078 l -0.066,0.028 -0.019,0.054 -0.036,0.063 -0.015,0.047 0.047,0.047 -0.024,0.043 -0.086,0.046 -0.054,0.082 -0.051,0.071 -0.039,0.039 -0.028,0.031 0.028,0.043 0.008,0.043 -0.036,0.012 -0.011,0.043 -0.028,0.035 0.008,0.008 -0.055,0.015 -0.039,0.02 h 0.043 l 0.016,0.027 0.012,0.004 0.004,0.02 -0.016,0.023 -0.012,0.035 0.012,0.039 -0.02,0.039 -0.015,0.035 0.012,0.047 -0.024,0.051 -0.004,0.047 v 0.074 l -0.019,0.078 -0.024,0.055 -0.011,0.062 -0.024,0.071 -0.027,0.066 -0.012,0.051 -0.008,0.043 -0.008,0.051 -0.019,0.043 -0.008,0.051 -0.129,0.039 -0.051,0.054 0.067,0.031 0.011,0.055 0.016,0.031 0.012,0.04 0.078,0.046 0.035,0.047 -0.031,0.031 -0.02,0.032 -0.004,0.051 -0.023,0.015 -0.02,0.016 -0.046,0.039 -0.02,0.035 0.008,0.02 -0.016,0.042 0.008,0.028 v 0.047 l 0.02,0.051 -0.008,0.042 -0.035,0.036 -0.008,0.07 -0.028,0.066 -0.011,0.075 -0.039,0.054 -0.082,0.043 v 0.063 l 0.039,0.054 0.004,0.071 -0.008,0.05 0.015,0.063 -0.058,0.063 -0.035,0.066 0.031,0.058 0.008,0.051 -0.004,0.047 v 0.039 l 0.004,0.039 v 0.043 l 0.004,0.047 0.004,0.039 0.003,0.047 0.004,0.035 0.016,0.043 0.043,0.047 -0.035,0.055 -0.039,0.054 0.008,0.043 -0.004,0.043 -0.016,0.039 -0.043,0.036 -0.023,0.054 0.004,0.051 -0.008,0.039 -0.004,0.031 -0.004,0.043 0.031,0.051 -0.086,0.039 -0.066,0.059 0.051,0.035 0.007,0.059 0.004,0.046 0.008,0.036 -0.012,0.058 v 0.039 l 0.004,0.067 v 0.062 l -0.015,0.027 -0.004,0.032 -0.035,0.051 -0.121,0.035 -0.028,0.054 0.063,0.043 0.007,0.043 0.008,0.055 -0.008,0.078 0.071,0.047 0.027,0.055 -0.051,0.05 -0.015,0.079 -0.032,0.078 -0.011,0.058 -0.055,0.09 -0.008,0.094 0.024,0.078 -0.016,0.07 -0.019,0.055 -0.024,0.059 -0.012,0.082 -0.027,0.078 -0.008,0.07 0.008,0.074 -0.016,0.086 -0.003,0.071 -0.016,0.066 -0.008,0.066 v 0.086 l -0.004,0.078 -0.015,0.047 -0.004,0.055 -0.004,0.07 0.101,0.11 -0.019,0.074 -0.047,0.058 -0.016,0.059 -0.011,0.051 -0.02,0.051 -0.059,0.062 -0.031,0.067 0.028,0.054 0.003,0.059 v 0.039 l -0.011,0.047 0.031,0.054 0.031,0.039 -0.031,0.047 -0.027,0.051 -0.008,0.063 -0.028,0.054 -0.011,0.051 -0.086,0.039 -0.059,0.063 0.047,0.062 0.004,0.07 -0.008,0.055 -0.015,0.043 -0.004,0.059 -0.098,0.039 -0.059,0.047 0.059,0.023 0.039,0.031 -0.012,0.024 -0.007,0.004 0.109,0.015 0.043,0.043 -0.067,-0.004 -0.015,0.032 -0.012,0.035 -0.008,0.015 -0.008,-0.003 -0.019,0.007 -0.012,0.008 v 0.051 l -0.023,0.008 0.051,0.023 0.05,0.008 -0.039,0.023 -0.004,0.024 -0.007,0.043 -0.024,0.031 -0.008,0.027 0.008,0.047 -0.019,0.024 -0.008,0.031 -0.004,0.039 0.016,0.047 0.003,0.035 -0.015,0.039 v 0.012 l -0.02,0.031 h -0.008 l -0.003,0.02 -0.036,0.015 -0.011,0.024 0.023,0.015 0.012,0.012 h 0.012 l 0.007,0.039 0.02,0.012 0.078,0.015 0.004,0.004 -0.055,-0.004 0.028,0.004 0.003,0.032 v 0.004 l -0.117,0.023 -0.054,0.055 0.113,0.019 0.066,-0.015 0.051,0.019 0.051,0.016 0.058,0.031 h 0.086" style="fill:none;stroke:#000000;stroke-width:3.92308;stroke-linecap:round;stroke-linejoin:round;stroke-miterlimit:10;stroke-dasharray:none;stroke-opacity:1" id="path904" />
         </g>
         <g id="g906" transform="matrix(1,0,0,-1,25.5,-42)">
            <path d="m 714.078,-295.168 c -2.683,41.988 -1.84,84.09 -4.09,126.106 -0.906,27.941 -3.683,55.789 -4.398,83.738 4.469,-4.879 7.64,-11.156 9.191,-17.488" style="fill:none;stroke:#000000;stroke-width:3.92308;stroke-linecap:round;stroke-linejoin:round;stroke-miterlimit:10;stroke-dasharray:none;stroke-opacity:1" id="path908" sodipodi:nodetypes="cccc" />
         </g>
         <g id="g910" transform="matrix(1,0,0,-1,25.5,-42)">
            <path d="m 714.781,-102.812 c -0.129,-18.743 0.434,-40.856 -0.48,-59.618 0.14,-26.375 -0.059,-52.758 -0.235,-79.136 -0.156,-25.758 5.391,-51.168 5.848,-76.821 l 0.344,-0.746 0.262,-0.988" style="fill:none;stroke:#000000;stroke-width:3.92308;stroke-linecap:round;stroke-linejoin:round;stroke-miterlimit:10;stroke-dasharray:none;stroke-opacity:1" id="path912" />
         </g>
         <g id="g914" transform="matrix(1,0,0,-1,25.5,-42)">
            <path d="m 705.59,-85.324 c 113.891,4.25 228.75,6.031 342.637,10.355" style="fill:none;stroke:#000000;stroke-width:3.92308;stroke-linecap:round;stroke-linejoin:round;stroke-miterlimit:10;stroke-dasharray:none;stroke-opacity:1" id="path916" sodipodi:nodetypes="cc" />
         </g>
         <g id="g918" transform="matrix(1,0,0,-1,25.5,-42)">
            <path d="m 713.56809,-99.701625 c 18.067,1.281 262.40491,12.658625 347.70891,13.342625" style="fill:none;stroke:#000000;stroke-width:3.92308;stroke-linecap:round;stroke-linejoin:round;stroke-miterlimit:10;stroke-dasharray:none;stroke-opacity:1" id="path920" sodipodi:nodetypes="cc" />
         </g>
         <g id="g922" transform="matrix(1,0,0,-1,25.5,-42)">
            <path d="m 1048.227,-74.969 c 3.4379,-2.396745 7.7412,-6.461366 11.072,-8.999449 1.2805,-1.113301 2.5178,-2.283347 3.617,-3.578551" style="fill:none;stroke:#000000;stroke-width:3.92308;stroke-linecap:round;stroke-linejoin:round;stroke-miterlimit:10;stroke-dasharray:none;stroke-opacity:1" id="path924" sodipodi:nodetypes="ccc" />
         </g>
         <g id="g926" transform="matrix(1,0,0,-1,25.5,-42)">
            <path d="m 1062.916,-87.547 c 1.5735,-14.21348 1.2453,-31.32646 0.6894,-45.56399 -0.07,-9.34219 -3.353,-17.43199 -7.522,-25.65451 -0.5188,-2.00869 2.7787,-4.82059 3.3107,-6.8325" style="fill:none;stroke:#000000;stroke-width:3.92308;stroke-linecap:round;stroke-linejoin:round;stroke-miterlimit:10;stroke-dasharray:none;stroke-opacity:1" id="path928" sodipodi:nodetypes="cccc" />
         </g>
         <g id="g930" transform="matrix(1,0,0,-1,25.5,-42)">
            <path d="m 1060.414,-161.254 c -3.508,-48.312 -8.777,-117.215 -11.535,-133.934" style="fill:none;stroke:#000000;stroke-width:3.92308;stroke-linecap:round;stroke-linejoin:round;stroke-miterlimit:10;stroke-dasharray:none;stroke-opacity:1" id="path932" />
         </g>
         <g id="g934" transform="matrix(1,0,0,-1,25.5,-42)">
            <path d="m 721.336,-320.117 c 33.453,2.551 237.402,16.25 321.816,23.906 l 2.922,0.938 2.684,0.246" style="fill:none;stroke:#000000;stroke-width:3.92308;stroke-linecap:round;stroke-linejoin:round;stroke-miterlimit:10;stroke-dasharray:none;stroke-opacity:1" id="path936" />
         </g>
         <g id="g938" transform="matrix(1,0,0,-1,25.5,-42)">
            <path d="m 715.176,-119.609 c 9.996,0.789 29.621,0.117 39.605,0.879" style="fill:none;stroke:#000000;stroke-width:2.61538;stroke-linecap:round;stroke-linejoin:round;stroke-miterlimit:10;stroke-dasharray:none;stroke-opacity:1" id="path940" />
         </g>
         <g id="g942" transform="matrix(1,0,0,-1,25.5,-42)">
            <path d="m 754.773,-116.145 c 0.801,-12.519 1.641,-23.964 2.469,-34.218" style="fill:none;stroke:#000000;stroke-width:2.61538;stroke-linecap:round;stroke-linejoin:round;stroke-miterlimit:10;stroke-dasharray:none;stroke-opacity:1" id="path944" />
         </g>
         <g id="g946" transform="matrix(1,0,0,-1,25.5,-42)">
            <path d="m 754.836,-116.121 c 62.043,0.93 244.449,8.356 272.047,9.668" style="fill:none;stroke:#000000;stroke-width:2.61538;stroke-linecap:round;stroke-linejoin:round;stroke-miterlimit:10;stroke-dasharray:none;stroke-opacity:1" id="path948" sodipodi:nodetypes="cc" />
         </g>
         <g id="g950" transform="matrix(1,0,0,-1,25.5,-42)">
            <path d="m 1026.883,-106.453 c 1.336,-3.363 5.472,0.449 8.097,-0.711 8.446,-0.004 16.872,1.687 25.309,0.852 1.055,0.265 4.7832,-0.87753 4.0372,-1.56553" style="fill:none;stroke:#000000;stroke-width:2.61538;stroke-linecap:round;stroke-linejoin:round;stroke-miterlimit:10;stroke-dasharray:none;stroke-opacity:1" id="path952" sodipodi:nodetypes="cccc" />
         </g>
         <g id="g954" transform="matrix(1,0,0,-1,25.5,-42)">
            <path d="m 757.242,-150.363 c 90.656,4.262 184.813,7.41 268.922,10.894" style="fill:none;stroke:#000000;stroke-width:2.61538;stroke-linecap:round;stroke-linejoin:round;stroke-miterlimit:10;stroke-dasharray:none;stroke-opacity:1" id="path956" sodipodi:nodetypes="cc" />
         </g>
         <g id="g958" transform="matrix(1,0,0,-1,25.5,-42)">
            <path d="m 1026.125,-138.473 c 1.184,9.395 1.2181,21.13847 1.0041,30.59547" style="fill:none;stroke:#000000;stroke-width:2.61538;stroke-linecap:round;stroke-linejoin:round;stroke-miterlimit:10;stroke-dasharray:none;stroke-opacity:1" id="path960" sodipodi:nodetypes="cc" />
         </g>
         <g id="g962" transform="matrix(1,0,0,-1,25.5,-42)">
            <path d="m 970.801,-300.742 c 1.472,12.324 1.269,26.92859 1.89,39.30359" style="fill:none;stroke:#000000;stroke-width:2.61538;stroke-linecap:round;stroke-linejoin:round;stroke-miterlimit:10;stroke-dasharray:none;stroke-opacity:1" id="path964" sodipodi:nodetypes="cc" />
         </g>
         <g id="g966" transform="matrix(1,0,0,-1,25.5,-42)">
            <path d="m 806.727,-310.77 c -0.059,11.793 0.722,26.973 -0.825,38.708" style="fill:none;stroke:#000000;stroke-width:2.61538;stroke-linecap:round;stroke-linejoin:round;stroke-miterlimit:10;stroke-dasharray:none;stroke-opacity:1" id="path968" />
         </g>
         <g id="g970" transform="matrix(1,0,0,-1,25.5,-42)">
            <path d="m 732.496,-275.273 c 105.852,5.246 209.203,11.804 309.172,20.402" style="fill:none;stroke:#000000;stroke-width:2.61538;stroke-linecap:round;stroke-linejoin:round;stroke-miterlimit:10;stroke-dasharray:none;stroke-opacity:1" id="path972" />
         </g>
         <g id="g974" transform="matrix(1,0,0,-1,25.5,-42)">
            <path d="m 1041.668,-254.871 c 0,0 4.254,34.754 6.074,52.504" style="fill:none;stroke:#000000;stroke-width:2.61538;stroke-linecap:round;stroke-linejoin:round;stroke-miterlimit:10;stroke-dasharray:none;stroke-opacity:1" id="path976" sodipodi:nodetypes="cc" />
         </g>
         <g id="g978" transform="matrix(1,0,0,-1,25.5,-42)">
            <path d="m 732.141,-275.574 c -0.832,19.285 -0.481,38.601 -1.52,57.879" style="fill:none;stroke:#000000;stroke-width:2.61538;stroke-linecap:round;stroke-linejoin:round;stroke-miterlimit:10;stroke-dasharray:none;stroke-opacity:1" id="path980" />
         </g>
         <g id="g982" transform="matrix(1,0,0,-1,25.5,-42)">
            <path d="m 732.012,-217.98 c 107.937,5.078 215.711,12.136 315.922,16.707" style="fill:none;stroke:#000000;stroke-width:2.61538;stroke-linecap:round;stroke-linejoin:round;stroke-miterlimit:10;stroke-dasharray:none;stroke-opacity:1" id="path984" />
         </g>
         <g id="g986" transform="matrix(1,0,0,-1,25.5,-42)">
            <path d="m 828.16967,-213.28646 c 7.78001,-10.04733 3.94166,-26.48449 -4.7626,-34.27646 -13.00706,-10.88238 -36.11825,-9.80266 -45.38486,5.47595 -5.07511,7.85272 -8.2654,18.22749 -1.44417,25.87076" style="fill:none;stroke:#000000;stroke-width:2.61538;stroke-linecap:round;stroke-linejoin:round;stroke-miterlimit:10;stroke-dasharray:none;stroke-opacity:1" id="path988" sodipodi:nodetypes="cccc" />
         </g>
         <g id="g990" transform="matrix(1,0,0,-1,25.5,-42)">
            <path d="m 802.117,-230.738 c 0.606,0.89 2.078,0.914 3.106,1.312 1.343,0.383 2.726,-0.254 3.601,-1.269 1.41,-0.532 1.114,-2.235 0.188,-3.024 -1.004,-0.734 -1.879,-1.91 -3.231,-1.949 -1.183,-0.148 -2.304,0.418 -3.422,0.715 -1.246,0.308 -1.843,1.465 -2.734,2.226 l -0.16,0.086" style="fill:none;stroke:#000000;stroke-width:2.61538;stroke-linecap:round;stroke-linejoin:round;stroke-miterlimit:10;stroke-dasharray:none;stroke-opacity:1" id="path992" />
         </g>
         <g id="g994" transform="matrix(1,0,0,-1,25.5,-42)">
            <path d="m 798.844,-229.867 c -0.09,1.25 0.578,2.539 1.554,3.496 1.04,0.93 2.774,1.687 4.055,0.793 0.254,-0.289 1.074,-0.606 0.859,-1.07" style="fill:none;stroke:#000000;stroke-width:2.61538;stroke-linecap:round;stroke-linejoin:round;stroke-miterlimit:10;stroke-dasharray:none;stroke-opacity:1" id="path996" />
         </g>
         <g id="g998" transform="matrix(1,0,0,-1,25.5,-42)">
            <path d="m 780.91,-221.039 c -2.246,-2.383 3.902,-5.035 0.152,-7.293 -2.089,-1.781 -0.89,-3.66 -0.441,-5.613" style="fill:none;stroke:#000000;stroke-width:2.61538;stroke-linecap:round;stroke-linejoin:round;stroke-miterlimit:10;stroke-dasharray:none;stroke-opacity:1" id="path1000" />
         </g>
         <g id="g1002" transform="matrix(1,0,0,-1,25.5,-42)">
            <path d="m 781.492,-236.367 c 1.598,-3.461 3.899,-6.391 7.301,-8.219 3.41,-2.699 7.777,-3.648 12.059,-3.266 4.597,0.348 9.308,1.489 13.171,4.016 3.165,1.898 5.364,4.801 7.551,7.707 0.422,1.82 1.633,3.672 2.082,5.32" style="fill:none;stroke:#000000;stroke-width:2.61538;stroke-linecap:round;stroke-linejoin:round;stroke-miterlimit:10;stroke-dasharray:none;stroke-opacity:1" id="path1004" />
         </g>
         <g id="g1006" transform="matrix(1,0,0,-1,25.5,-42)">
            <path d="m 820.809,-224.051 c 2.828,1.895 -2.34,6.914 -5.137,6.145" style="fill:none;stroke:#000000;stroke-width:2.61538;stroke-linecap:round;stroke-linejoin:round;stroke-miterlimit:10;stroke-dasharray:none;stroke-opacity:1" id="path1008" />
         </g>
         <g id="g1010" transform="matrix(1,0,0,-1,25.5,-42)">
            <path d="m 968.973,-215.719 c -2.602,0.789 -4.047,-3.511 -1.766,-4.691 1.848,-0.883 4.227,0.519 4.223,2.598 0.261,1.738 -1.348,3.097 -2.992,2.316" style="fill:none;stroke:#000000;stroke-width:2.61538;stroke-linecap:round;stroke-linejoin:round;stroke-miterlimit:10;stroke-dasharray:none;stroke-opacity:1" id="path1012" />
         </g>
         <g id="g1014" transform="matrix(1,0,0,-1,25.5,-42)">
            <path d="m 971.355,-220.332 c -2.136,-1.27 -2.113,-4.531 -0.054,-5.863 2.039,-1.762 4.91,-0.465 6.086,1.633 1.468,2.023 -0.594,4.382 -2.532,5.042 -1.191,0.489 -2.589,0.715 -3.808,0.208" style="fill:none;stroke:#000000;stroke-width:2.61538;stroke-linecap:round;stroke-linejoin:round;stroke-miterlimit:10;stroke-dasharray:none;stroke-opacity:1" id="path1016" />
         </g>
         <g id="g1018" transform="matrix(1,0,0,-1,25.5,-42)">
            <path d="m 989.30043,-204.5725 c 3.621,-2.715 6.86757,-9.1225 5.59457,-13.6975 -0.735,-6.273 -4.418,-11.824 -8.833,-16.164 -7.148,-6.32 -18.593,-7.097 -26.437,-1.597 -4.707,2.996 -9.102,7.48 -9.813,13.261 -1.273,4.27 -0.496,9.004 1.629,12.86 0.493,0.781 1.055,1.515 1.567,2.281" style="fill:none;stroke:#000000;stroke-width:2.61538;stroke-linecap:round;stroke-linejoin:round;stroke-miterlimit:10;stroke-dasharray:none;stroke-opacity:1" id="path1020" sodipodi:nodetypes="ccccccc" />
         </g>
         <g id="g1022" transform="matrix(1,0,0,-1,25.5,-42)">
            <path d="m 899.879,-262.172 c -1.57,1.527 -2.848,3.301 -3.738,5.32 -1.278,2.036 -2.473,4.161 -3.36,6.395 -0.582,2.355 -1.117,4.73 -1.836,7.047 -0.39,1.277 0.075,2.226 0.09,3.359" style="fill:none;stroke:#000000;stroke-width:2.61538;stroke-linecap:round;stroke-linejoin:round;stroke-miterlimit:10;stroke-dasharray:none;stroke-opacity:1" id="path1024" />
         </g>
         <g id="g1026" transform="matrix(1,0,0,-1,25.5,-42)">
            <path d="m 890.742,-238.977 h -0.008 l 0.012,0.032 0.066,0.062 0.063,0.11 0.063,0.128 0.035,0.145 0.148,0.133 0.055,0.109 -0.059,0.102 -0.012,0.179 -0.007,0.153 -0.004,0.117 0.023,0.117 0.117,0.141 -0.019,0.129 -0.102,0.086 -0.031,0.109 -0.047,0.113 -0.047,0.098 v 0.113 l -0.054,0.117 -0.059,0.094 -0.051,0.102 -0.051,0.105 -0.046,0.086 -0.043,0.094 -0.047,0.113 -0.059,0.094 -0.062,0.086 -0.047,0.094 -0.063,0.086 -0.027,0.082 -0.051,0.074 -0.086,0.078 -0.07,0.062 -0.031,0.008 -0.051,0.047 -0.063,0.035 -0.156,0.039 -0.105,0.063 0.043,0.043 -0.043,0.031 -0.032,0.012 -0.027,0.015 -0.027,0.024 -0.035,-0.016 -0.024,0.004 -0.019,0.027 -0.04,0.02 -0.054,0.02 -0.055,0.023 0.008,0.008 -0.02,0.004 -0.113,0.015 -0.082,0.02 -0.074,0.012 -0.078,0.007 -0.168,0.004 -0.176,-0.015 -0.023,-0.004 -0.055,0.019 -0.086,-0.011 -0.07,-0.004 -0.063,-0.024 0.086,-0.004 0.012,-0.05 -0.117,-0.004 -0.086,0.031 -0.071,0.008 -0.058,-0.008 h -0.082 l -0.02,0.019 -0.066,-0.007 -0.094,-0.032 -0.09,0.012 -0.097,-0.004 h -0.086 l -0.02,-0.023 -0.066,-0.024 -0.141,-0.023 -0.121,-0.012 -0.094,-0.008 -0.082,-0.004 -0.094,-0.019 -0.066,-0.008 -0.078,-0.004 -0.098,-0.019 -0.082,-0.028 -0.066,-0.008 -0.047,-0.007 -0.012,-0.004 h -0.129 l -0.043,-0.008 -0.047,-0.004 -0.062,-0.004 -0.188,0.004 -0.117,0.031 0.043,-0.004 -0.023,0.004 -0.008,0.008" style="fill:none;stroke:#000000;stroke-width:2.61538;stroke-linecap:round;stroke-linejoin:round;stroke-miterlimit:10;stroke-dasharray:none;stroke-opacity:1" id="path1028" />
         </g>
         <g id="g1030" transform="matrix(1,0,0,-1,25.5,-42)">
            <path d="m 881.391,-210.418 c 2.355,-4.176 2.343,-9.172 1.578,-13.773 -0.407,-5.508 -0.934,-11.055 -2.668,-16.329 -0.996,-3.972 -2.016,-7.984 -3.942,-11.625 -1.949,-4.136 -4.98,-8.191 -7.363,-11.242 l -5.769,-4.148" style="fill:none;stroke:#000000;stroke-width:2.61538;stroke-linecap:round;stroke-linejoin:round;stroke-miterlimit:10;stroke-dasharray:none;stroke-opacity:1" id="path1032" />
         </g>
         <g id="g1034" transform="matrix(1,0,0,-1,25.5,-42)">
            <path d="m 877.672,-211.008 c 2.926,-7.84 1.926,-19.004 -0.578,-26.715 -0.789,-5.109 -3.36,-9.707 -5.317,-14.41 -7.172,-9.621 -12.797,-12.375 -16.199,-15.613" style="fill:none;stroke:#000000;stroke-width:2.61538;stroke-linecap:round;stroke-linejoin:round;stroke-miterlimit:10;stroke-dasharray:none;stroke-opacity:1" id="path1036" />
         </g>
         <g id="g1038" transform="matrix(1,0,0,-1,25.5,-42)">
            <path d="m 847.594,-181.246 c 1.96841,0.32165 3.9719,0.21968 5.953,0.394" style="fill:none;stroke:#000000;stroke-width:2.61538;stroke-linecap:round;stroke-linejoin:round;stroke-miterlimit:10;stroke-dasharray:none;stroke-opacity:1" id="path1040" />
         </g>
         <g id="g1042" transform="matrix(1,0,0,-1,25.5,-42)">
            <path d="m 850.957,-181.992 c 0.21493,-3.69747 0.25825,-7.40343 0.52701,-11.098" style="fill:none;stroke:#000000;stroke-width:2.61538;stroke-linecap:round;stroke-linejoin:round;stroke-miterlimit:10;stroke-dasharray:none;stroke-opacity:1" id="path1044" />
         </g>
         <g id="g1046" transform="matrix(1,0,0,-1,25.5,-42)">
            <path d="m 848.297,-196.41 c 1.34749,0.66011 2.96774,0.27732 4.285,1.027" style="fill:none;stroke:#000000;stroke-width:2.61538;stroke-linecap:round;stroke-linejoin:round;stroke-miterlimit:10;stroke-dasharray:none;stroke-opacity:1" id="path1048" />
         </g>
         <g id="g1050" transform="matrix(1,0,0,-1,25.5,-42)">
            <path d="m 853.891,-189.016 c 1.13606,0.62475 2.48271,0.55385 3.683,0.981" style="fill:none;stroke:#000000;stroke-width:2.61538;stroke-linecap:round;stroke-linejoin:round;stroke-miterlimit:10;stroke-dasharray:none;stroke-opacity:1" id="path1052" />
         </g>
         <g id="g1054" transform="matrix(1,0,0,-1,25.5,-42)">
            <path d="m 857.379,-180.66 c 1.21746,-0.22749 2.41125,0.54161 3.621,0.172" style="fill:none;stroke:#000000;stroke-width:2.61538;stroke-linecap:round;stroke-linejoin:round;stroke-miterlimit:10;stroke-dasharray:none;stroke-opacity:1" id="path1056" />
         </g>
         <g id="g1058" transform="matrix(1,0,0,-1,25.5,-42)">
            <path d="m 860.141,-180.82 c 0.68905,-5.24489 -0.25327,-10.57227 0.63602,-15.80101" style="fill:none;stroke:#000000;stroke-width:2.61538;stroke-linecap:round;stroke-linejoin:round;stroke-miterlimit:10;stroke-dasharray:none;stroke-opacity:1" id="path1060" />
         </g>
         <g id="g1062" transform="matrix(1,0,0,-1,25.5,-42)">
            <path d="m 857.117,-195.445 c 1.66101,-0.31767 3.35792,-0.64916 5.055,-0.438" style="fill:none;stroke:#000000;stroke-width:2.61538;stroke-linecap:round;stroke-linejoin:round;stroke-miterlimit:10;stroke-dasharray:none;stroke-opacity:1" id="path1064" />
         </g>
         <g id="g1066" transform="matrix(1,0,0,-1,25.5,-42)">
            <path d="m 868.539,-188.02 c 0.36882,-2.58087 0.74029,-5.19947 0.438,-7.808" style="fill:none;stroke:#000000;stroke-width:2.61538;stroke-linecap:round;stroke-linejoin:round;stroke-miterlimit:10;stroke-dasharray:none;stroke-opacity:1" id="path1068" />
         </g>
         <g id="g1070" transform="matrix(1,0,0,-1,25.5,-42)">
            <path d="m 867.164,-187.277 c -0.0462,0.82387 -0.95107,-0.28979 -1.223,0.257" style="fill:none;stroke:#000000;stroke-width:2.61538;stroke-linecap:round;stroke-linejoin:round;stroke-miterlimit:10;stroke-dasharray:none;stroke-opacity:1" id="path1072" />
         </g>
         <g id="g1074" transform="matrix(1,0,0,-1,25.5,-42)">
            <path d="m 866.492,-196.652 c 1.17337,0.0801 2.34571,0.17603 3.516,0.293" style="fill:none;stroke:#000000;stroke-width:2.61538;stroke-linecap:round;stroke-linejoin:round;stroke-miterlimit:10;stroke-dasharray:none;stroke-opacity:1" id="path1076" />
         </g>
         <g id="g1078" transform="matrix(1,0,0,-1,25.5,-42)">
            <path d="m 869.355,-180.156 c 0.79206,-2.0597 -1.80926,-0.59235 -1.039,-0.199" style="fill:none;stroke:#000000;stroke-width:2.61538;stroke-linecap:round;stroke-linejoin:round;stroke-miterlimit:10;stroke-dasharray:none;stroke-opacity:1" id="path1080" />
         </g>
         <g id="g1082" transform="matrix(1,0,0,-1,25.5,-42)">
            <path d="m 880.426,-179.715 c -4.63611,0.25399 -4.95498,-6.00833 -1.0744,-7.53644 2.72637,-2.36564 8.51084,0.22558 9.22228,-4.35681 -0.18648,-4.67395 -6.18169,-5.16582 -9.67288,-4.19282 -4.54523,0.70925 -4.46378,6.10387 -0.2414,7.33425 2.5586,1.53292 6.38131,2.08302 7.38334,5.24831 1.00984,4.36847 -3.67543,5.48453 -6.91399,4.33551" style="fill:none;stroke:#000000;stroke-width:2.61538;stroke-linecap:round;stroke-linejoin:round;stroke-miterlimit:10;stroke-dasharray:none;stroke-opacity:1" id="path1084" />
         </g>
         <g id="g1086" transform="matrix(1,0,0,-1,25.5,-42)">
            <path d="m 897.895,-195.574 c 0.79676,5.85193 -2.037,11.56742 -1.024,17.414" style="fill:none;stroke:#000000;stroke-width:2.61538;stroke-linecap:round;stroke-linejoin:round;stroke-miterlimit:10;stroke-dasharray:none;stroke-opacity:1" id="path1088" />
         </g>
         <g id="g1090" transform="matrix(1,0,0,-1,25.5,-42)">
            <path d="m 898.156,-179.293 c 2.92566,-4.14682 5.27709,-8.6801 7.18,-13.379" style="fill:none;stroke:#000000;stroke-width:2.61538;stroke-linecap:round;stroke-linejoin:round;stroke-miterlimit:10;stroke-dasharray:none;stroke-opacity:1" id="path1092" />
         </g>
         <g id="g1094" transform="matrix(1,0,0,-1,25.5,-42)">
            <path d="m 905.312,-192.152 c 2.34527,4.64307 4.00703,9.67134 7.133,13.886" style="fill:none;stroke:#000000;stroke-width:2.61538;stroke-linecap:round;stroke-linejoin:round;stroke-miterlimit:10;stroke-dasharray:none;stroke-opacity:1" id="path1096" />
         </g>
         <g id="g1098" transform="matrix(1,0,0,-1,25.5,-42)">
            <path d="m 913.113,-179.168 c 1.72309,-4.58281 1.53072,-9.57319 1.453,-14.383" style="fill:none;stroke:#000000;stroke-width:2.61538;stroke-linecap:round;stroke-linejoin:round;stroke-miterlimit:10;stroke-dasharray:none;stroke-opacity:1" id="path1100" />
         </g>
         <g id="g1102" transform="matrix(1,0,0,-1,25.5,-42)">
            <path d="m 913.746,-194.754 c 0.78181,-0.30475 1.55588,0.2679 2.344,0.035" style="fill:none;stroke:#000000;stroke-width:2.61538;stroke-linecap:round;stroke-linejoin:round;stroke-miterlimit:10;stroke-dasharray:none;stroke-opacity:1" id="path1104" />
         </g>
         <g id="g1106" transform="matrix(1,0,0,-1,25.5,-42)">
            <path d="m 921,-194.125 c 1.45434,-0.73029 3.09938,-0.20611 4.594,0.07" style="fill:none;stroke:#000000;stroke-width:2.61538;stroke-linecap:round;stroke-linejoin:round;stroke-miterlimit:10;stroke-dasharray:none;stroke-opacity:1" id="path1108" />
         </g>
         <g id="g1110" transform="matrix(1,0,0,-1,25.5,-42)">
            <path d="m 924.152,-194.57 c 0.71518,5.65304 -1.65451,11.05493 -2.242,16.597" style="fill:none;stroke:#000000;stroke-width:2.61538;stroke-linecap:round;stroke-linejoin:round;stroke-miterlimit:10;stroke-dasharray:none;stroke-opacity:1" id="path1112" />
         </g>
         <g id="g1114" transform="matrix(1,0,0,-1,25.5,-42)">
            <path d="m 919.945,-177.988 c 4.04906,1.64096 9.21821,-0.10118 11.48674,-3.80579 1.03346,-3.38559 -3.77295,-5.15134 -6.37674,-4.42524" style="fill:none;stroke:#000000;stroke-width:2.61538;stroke-linecap:round;stroke-linejoin:round;stroke-miterlimit:10;stroke-dasharray:none;stroke-opacity:1" id="path1116" />
         </g>
         <g id="g1118" transform="matrix(1,0,0,-1,25.5,-42)">
            <path d="m 1001.5,-275.859 c 0.7865,-1.82456 0.9353,-4.22191 -0.1112,-5.94759 -2.07608,-2.18934 -3.01091,1.82802 -2.22356,3.36739 0.21528,1.20443 1.32136,4.16872 2.81506,3.02689 0.2879,-2.06252 1.5011,-4.07038 0.8641,-6.19115 0.2092,-1.80169 -0.303,-3.48226 -1.1623,-5.05053 -0.6833,-1.58667 -2.08781,-3.35624 -3.98893,-3.26396" style="fill:none;stroke:#000000;stroke-width:2.61538;stroke-linecap:round;stroke-linejoin:round;stroke-miterlimit:10;stroke-dasharray:none;stroke-opacity:1" id="path1120" />
         </g>
         <g id="g1122" transform="matrix(1,0,0,-1,25.5,-42)">
            <path d="m 1007.867,-274.988 c -1.1317,-1.29717 -1.1758,-3.40766 -1.5076,-5.17724 -0.5549,-1.82066 -0.8166,-3.72269 -0.6318,-5.62663 -0.6505,-1.43871 0.3268,-4.19337 2.2115,-2.91009 0.5739,1.60825 0.8204,3.36497 1.4388,5.00646 0.1659,1.96153 0.1993,3.91019 -0.027,5.86884 0.036,1.13669 -0.2995,2.83686 -1.5817,3.14259" style="fill:none;stroke:#000000;stroke-width:2.61538;stroke-linecap:round;stroke-linejoin:round;stroke-miterlimit:10;stroke-dasharray:none;stroke-opacity:1" id="path1124" />
         </g>
         <g id="g1126" transform="matrix(1,0,0,-1,25.5,-42)">
            <path d="m 1017.012,-275.98 c 0.3103,-2.24514 -0.1707,-4.92098 0.311,-6.91496" style="fill:none;stroke:#000000;stroke-width:2.61538;stroke-linecap:round;stroke-linejoin:round;stroke-miterlimit:10;stroke-dasharray:none;stroke-opacity:1" id="path1128" />
         </g>
         <g id="g1130" transform="matrix(1,0,0,-1,25.5,-42)">
            <path d="m 1020.918,-276.238 c 1.1477,-2.37327 1.0424,-5.10357 1.0317,-7.66557 -0.016,-0.18437 -0.1904,-0.37334 -0.3844,-0.33443" style="fill:none;stroke:#000000;stroke-width:2.61538;stroke-linecap:round;stroke-linejoin:round;stroke-miterlimit:10;stroke-dasharray:none;stroke-opacity:1" id="path1132" />
         </g>
         <g id="g1134" transform="matrix(1,0,0,-1,25.5,-42)">
            <path d="m 1018.031,-281.02 c 0.5416,-0.66148 1.3757,0.6738 2.022,0.21098" style="fill:none;stroke:#000000;stroke-width:2.61538;stroke-linecap:round;stroke-linejoin:round;stroke-miterlimit:10;stroke-dasharray:none;stroke-opacity:1" id="path1136" />
         </g>
         <g id="g1138" transform="matrix(1,0,0,-1,25.5,-42)">
            <path d="m 1025.793,-280.355 c 0.1684,-0.9954 0.078,-2.009 0.13,-3.012" style="fill:none;stroke:#000000;stroke-width:2.61538;stroke-linecap:round;stroke-linejoin:round;stroke-miterlimit:10;stroke-dasharray:none;stroke-opacity:1" id="path1140" />
         </g>
         <g id="g1142" transform="matrix(1,0,0,-1,25.5,-42)">
            <path d="m 1024.547,-276.941 c -0.6213,-0.38159 0.3501,-0.22445 0.055,0.011" style="fill:none;stroke:#000000;stroke-width:2.61538;stroke-linecap:round;stroke-linejoin:round;stroke-miterlimit:10;stroke-dasharray:none;stroke-opacity:1" id="path1144" />
         </g>
         <g id="g1146" transform="matrix(1,0,0,-1,25.5,-42)">
            <path d="m 1030.602,-276.051 -0.036,0.035 -0.039,0.028 -0.062,0.05 -0.024,0.04 -0.011,0.023 -0.01,0.008 -0.016,-0.004 v -0.008 l 0.02,-0.008 0.054,-0.027 0.063,-0.012 0.023,-0.027 0.012,-0.016 0.01,-0.023 0.012,-0.008 -0.02,-0.031 0.02,-0.02 0.043,-0.031 0.015,-0.043 0.035,-0.039 0.024,-0.086 -0.063,-0.039 v -0.051 l 0.071,-0.035 0.043,-0.051 0.039,-0.074 0.035,-0.07 0.031,-0.098 0.133,-0.082 0.101,-0.066 -0.039,-0.082 v -0.129 l -0.011,-0.063 -0.117,-0.078 -0.055,-0.09 0.09,-0.078 0.015,-0.098 0.01,-0.097 0.012,-0.063 0.062,-0.062 0.01,-0.067 -0.031,-0.086 -0.012,-0.07 -0.012,-0.074 0.012,-0.082 0.016,-0.086 0.039,-0.086 v -0.09 l -0.043,-0.082 -0.012,-0.09 -0.031,-0.082 -0.016,-0.09 -0.027,-0.089 -0.063,-0.114 -0.046,-0.14 0.01,-0.129 -0.027,-0.114 v -0.121 l -0.02,-0.105 0.028,-0.117 0.027,-0.121 -0.019,-0.121 -0.012,-0.122 v -0.464 l -0.012,-0.11 -0.019,-0.125 -0.012,-0.125 v -0.133 l -0.016,-0.156 -0.027,-0.141 0.012,-0.128 -0.016,-0.137 -0.012,-0.149 -0.019,-0.148 -0.027,-0.148 -0.106,-0.098 -0.062,-0.106 0.011,-0.105 -0.043,-0.105 -0.019,-0.118 -0.012,-0.093 -0.055,-0.079 -0.156,-0.058 -0.027,-0.09 0.07,-0.07 -0.012,-0.063 -0.011,-0.074 0.011,-0.055 -0.093,-0.031 -0.059,-0.039 0.078,-0.02 0.024,-0.027 0.023,-0.023 0.023,-0.004 0.032,-0.004 0.047,0.004 0.023,-0.004 0.012,0.008 v -0.02 l -0.02,-0.004 -0.01,-0.008 h 0.02 l 0.012,-0.015 v 0.015 l -0.012,0.004 0.019,0.004 0.01,-0.012 -0.027,-0.003 h -0.012 l 0.012,-0.004 0.01,0.011 0.011,0.008 0.059,-0.027 0.051,-0.016 -0.01,-0.031 0.031,-0.02 v -0.023 l 0.051,-0.019 0.055,-0.016 0.011,-0.012 0.028,-0.035 0.031,-0.012 0.039,-0.008 -0.016,0.02 -0.01,-0.023 0.074,-0.004 0.117,-0.004 H 1031 l 0.078,-0.032 0.071,-0.007 0.031,0.031 0.054,0.008 0.063,0.008 0.059,0.003 0.05,0.008 0.063,0.004 -0.016,0.008 0.106,-0.012 h 0.129 l 0.019,0.016 0.047,0.016 0.082,0.003 0.063,0.008 -0.012,0.008 0.035,0.012 0.105,-0.004 0.075,0.019 0.082,0.004 0.093,0.004 h 0.336 l 0.129,0.035 h 0.02 l 0.074,-0.015 0.094,-0.004 0.109,-0.008 h -0.012 l 0.028,0.008 0.101,-0.024 0.118,-0.011 0.121,-0.004 h 0.109 l 0.148,-0.02 0.133,-0.004 0.102,-0.004 0.129,-0.003 h 0.129 l 0.129,-0.02 0.128,-0.008 0.168,-0.004 0.149,-0.004 0.094,-0.019 0.089,-0.008 0.086,0.016 0.137,0.004 0.141,-0.016 0.019,-0.016 0.02,-0.004 0.066,0.008 0.059,0.008 0.078,0.004 0.082,-0.016 0.078,0.016 0.024,0.047 0.039,0.015 0.046,0.008 0.043,0.012 0.11,-0.012 0.105,0.02 h -0.062 0.019 l -0.01,0.004 -0.078,0.015 -0.039,-0.019 0.071,0.008 v -0.055 l 0.011,0.004 v 0.012 h -0.011 v 0.003 h 0.015 l 0.02,0.004 0.023,-0.004 0.055,0.008 0.144,-0.004 h 0.039 -0.05 0.019 l 0.016,-0.004 -0.027,0.004 -0.024,0.008 0.063,-0.004 h 0.05 l 0.02,-0.015 h 0.152 l -0.01,0.004 -0.023,0.003 v 0.008 l 0.012,0.012 -0.043,-0.004 -0.051,-0.004 0.059,0.008 0.01,0.039 0.012,0.016 0.01,0.015 0.047,0.008 v 0.008 l -0.012,0.016 v 0.015 l 0.012,0.024 0.01,0.003 -0.012,0.012 0.015,0.024 0.043,0.031 -0.011,0.031 v 0.008 l -0.039,0.023 0.011,0.024 0.032,0.019 v 0.028 l 0.015,0.023 0.012,0.039 -0.07,0.016 -0.082,0.027 0.109,0.055 0.031,0.039 0.024,0.023 0.027,0.016 v 0.043 l 0.012,0.047 0.027,0.039 0.02,0.047 0.039,0.047 0.043,0.066 -0.016,0.066 0.098,0.047 0.101,0.063 -0.039,0.062 0.02,0.067 0.011,0.09 0.02,0.05 -0.01,0.059 0.01,0.074 0.051,0.067 0.031,0.07 0.027,0.062 0.016,0.079 0.113,0.078 0.168,0.082 -0.035,0.078 -0.066,0.082 -0.016,0.101 -0.016,0.094 -0.019,0.082 -0.121,0.09 -0.082,0.121 0.078,0.086 v 0.121 l -0.016,0.125 -0.023,0.125 0.012,0.117 -0.016,0.118 -0.039,0.121 0.015,0.121 -0.015,0.125 v 0.121 l -0.035,0.133 -0.047,0.148 -0.02,0.133 v 0.113 l -0.035,0.125 -0.031,0.125 -0.047,0.125 -0.039,0.137 v 0.137 l -0.023,0.129 0.011,0.101 v 0.113 l -0.015,0.098 -0.063,0.102 -0.09,0.109 0.01,0.082 0.035,0.07 0.012,0.075 0.01,0.058 -0.01,0.086 0.098,0.09 0.043,0.082 -0.059,0.07 -0.027,0.098 -0.032,0.109 -0.011,0.09 -0.075,0.086 -0.031,0.105 0.012,0.094 -0.074,0.09 -0.063,0.121 -0.055,0.098 -0.031,0.074 -0.019,0.078 -0.032,0.086 -0.031,0.07 -0.035,0.051 -0.012,0.051 -0.023,0.035 0.035,0.024 0.094,0.031 -0.012,0.043 -0.082,0.023 -0.051,0.055 -0.039,0.051 -0.015,0.008 -0.114,0.027 -0.074,0.078 0.055,0.023 v 0.024 l 0.015,0.015 v 0.028 l 0.086,0.031 -0.062,0.051 0.012,0.047 0.01,0.019 0.012,0.016 0.01,0.004 -0.02,0.015 0.032,0.004 0.015,0.008 0.012,0.024 v 0.011 l -0.023,0.004 -0.032,0.004 0.024,0.004 0.019,-0.004 0.012,0.016 h 0.012 v 0.011 l -0.075,-0.007 0.016,-0.039 h 0.102 -0.016 l 0.09,-0.012 h 0.055 l -0.032,0.004 -0.027,0.004 -0.023,0.007 -0.02,0.02 -0.063,0.016 -0.089,0.007 -0.01,0.004 h 0.019 l 0.012,-0.004 0.01,-0.003 0.012,-0.008 h 0.074 l 0.031,0.031 -0.07,-0.012 -0.01,-0.027 -0.012,-0.024 -0.011,-0.007 -0.02,0.004 0.086,-0.008 h 0.035 l -0.074,0.008 -0.047,0.003 -0.043,0.008 -0.055,-0.008 -0.16,0.016 -0.137,0.004 -0.058,0.02 -0.055,0.007 -0.062,0.004 0.019,-0.019 -0.011,-0.012 -0.083,0.016 -0.097,0.007 -0.086,0.004 -0.059,-0.011 -0.035,-0.02 -0.137,0.004 -0.144,0.023 h -0.07 l -0.059,0.016 -0.051,0.016 -0.09,0.011 -0.129,0.016 -0.089,0.008 -0.063,0.004 -0.074,0.008 -0.086,0.019 -0.09,0.024 -0.129,0.011 -0.113,0.008 -0.074,0.024 -0.094,0.011 -0.109,0.02 -0.118,0.008 -0.031,0.023 -0.101,0.008 -0.176,0.004 h -0.289 l -0.117,0.015 -0.129,0.004 -0.215,0.004 -0.16,-0.023 0.011,-0.024 -0.082,-0.015 -0.07,-0.035 -0.059,-0.028 0.102,-0.019 0.047,-0.051 -0.133,-0.012 -0.062,-0.008 -0.02,-0.015 -0.02,-0.012 -0.062,-0.004 v -0.008 l -0.016,-0.008 h -0.015 l -0.024,-0.011 -0.023,-0.016 -0.035,-0.008 -0.032,-0.023 -0.011,-0.012 -0.02,-0.008 -0.031,-0.019 -0.039,-0.004 -0.063,-0.02 v -0.004 0.012 l -0.086,-0.008 -0.066,0.032" style="fill:none;stroke:#000000;stroke-width:2.61538;stroke-linecap:round;stroke-linejoin:round;stroke-miterlimit:10;stroke-dasharray:none;stroke-opacity:1" id="path1148" />
         </g>
         <g id="g1150" transform="matrix(1,0,0,-1,25.5,-42)">
            <path d="m 1032.754,-276.285 -0.012,-0.016 -0.012,-0.043 -0.046,-0.07 -0.059,-0.074 -0.047,-0.086 -0.01,-0.071 -0.136,-0.062 -0.153,-0.055 0.02,-0.043 -0.051,-0.019 -0.07,-0.035 -0.043,-0.028 0.039,-0.023 -0.012,-0.035 -0.109,-0.008 -0.055,-0.027 -0.035,-0.012 -0.031,-0.028 0.011,-0.031 -0.019,-0.004 -0.047,-0.015 -0.012,-0.02 v -0.019 l -0.023,-0.012 0.015,-0.035 0.028,-0.024 -0.012,-0.023 0.01,-0.035 0.012,-0.032 0.01,-0.031 0.032,-0.039 0.011,-0.031 v -0.012 l -0.01,-0.023 v -0.071 l -0.051,-0.035 0.066,-0.031 0.067,-0.055 -0.055,-0.05 0.019,-0.055 -0.015,-0.043 -0.01,-0.039 -0.086,-0.051 -0.039,-0.066 0.047,-0.063 v -0.039 l -0.016,-0.039 v -0.055 l 0.031,-0.058 0.106,-0.043 0.019,-0.051 -0.062,-0.031 -0.012,-0.063 -0.011,-0.051 -0.012,-0.043 -0.125,-0.035 -0.055,-0.066 0.094,-0.047 0.039,-0.066 0.019,-0.067 0.02,-0.031 0.07,-0.047 v -0.051 l -0.019,-0.054 0.066,-0.055 0.024,-0.059 0.019,-0.046 0.016,-0.036 0.054,-0.058 0.043,-0.063 v -0.043 l 0.012,-0.035 0.02,-0.027 0.023,-0.028 0.051,-0.027 v -0.051 l 0.027,-0.019 0.028,-0.004 0.039,-0.004 -0.02,0.008 0.07,-0.016 0.071,-0.012 0.015,-0.019 0.039,-0.024 0.024,-0.003 0.035,-0.004 0.035,-0.02 h 0.176 l -0.012,-0.008 0.063,-0.007 h 0.125 l 0.027,-0.004 0.035,-0.004 0.031,-0.008 0.032,0.004 h 0.051 l 0.035,0.004 0.039,-0.012 0.039,-0.016 0.039,-0.007 0.14,-0.012 0.118,-0.008 -0.024,-0.004 0.016,-0.004 0.023,0.008 0.02,0.008 -0.125,0.004 -0.09,-0.028 0.137,-0.004 0.078,0.024 0.074,0.004 0.027,-0.004 0.09,-0.008 0.039,0.024 -0.023,-0.004 0.031,0.004 v -0.008 l -0.012,0.043 -0.01,0.011 v 0.024 l -0.024,0.008 h 0.055 -0.016 l -0.086,0.004 v -0.004 l -0.011,0.011 v -0.004 l -0.01,-0.003 0.035,0.003 0.051,-0.003 -0.036,0.003 -0.019,0.008 -0.016,0.016 -0.015,0.019 -0.028,0.004 -0.011,-0.027 0.023,-0.004 v 0.02 l 0.01,-0.012 0.027,-0.02 -0.023,-0.004 0.01,0.004 0.054,-0.015 h 0.035 l 0.04,-0.008 0.046,-0.02 0.067,-0.031 h 0.101 l 0.094,-0.027 0.02,-0.028 0.047,-0.011 0.046,-0.008 0.063,-0.024 -0.012,-0.027 0.129,-0.019 0.121,-0.024 -0.039,-0.004 0.078,-0.023 h 0.051 l 0.043,-0.008 0.039,-0.004 0.035,-0.023 0.031,-0.004 0.079,-0.004 h 0.089 -0.011 l -0.02,0.004 -0.012,0.008 v -0.016 l -0.148,-0.012 -0.066,0.047 0.066,-0.012 v 0.039 l 0.102,-0.003 0.043,-0.043 -0.059,-0.004 -0.012,-0.016 -0.011,0.004 -0.012,-0.008 -0.012,-0.004 0.024,-0.004 v -0.027 h -0.032 l -0.01,0.008 -0.011,0.023 h -0.01 v -0.008 l 0.01,-0.011 0.011,-0.024 0.01,-0.008 0.02,-0.007 -0.016,-0.004 v -0.016 l 0.039,-0.012 0.02,-0.023 0.043,-0.008 0.031,-0.023 0.051,-0.012 0.121,-0.008 0.051,-0.019 h -0.012 l 0.01,-0.012 h 0.015 l -0.019,0.016 0.051,-0.016 h 0.058 l -0.023,0.004 -0.012,0.008 v 0.004 h -0.016 l 0.047,0.007 0.028,-0.007 -0.028,-0.012 h 0.012 v -0.004 0.012 l 0.063,-0.004 0.031,0.008 -0.031,0.003 -0.024,0.004 -0.027,0.008 -0.012,-0.004 -0.141,0.012 -0.074,0.02 0.059,-0.008 0.019,-0.012 0.016,0.008 0.059,-0.008 0.039,-0.004 -0.024,0.012 0.02,0.004 0.011,0.008 0.016,0.007 -0.016,-0.007 -0.01,0.003 h 0.039 l 0.019,0.008 0.039,0.004 0.063,0.004 0.019,0.004 0.012,0.004 -0.01,0.004 v 0.008 h -0.012 l -0.011,0.019 v 0.012" style="fill:none;stroke:#000000;stroke-width:2.61538;stroke-linecap:round;stroke-linejoin:round;stroke-miterlimit:10;stroke-dasharray:none;stroke-opacity:1" id="path1152" />
         </g>
         <g id="g1154" transform="matrix(1,0,0,-1,25.5,-42)">
            <path d="m 1034.07,-279.523 c -1.0064,-0.37188 -1.5509,0.69011 -2.067,1.32437" style="fill:none;stroke:#000000;stroke-width:2.61538;stroke-linecap:round;stroke-linejoin:round;stroke-miterlimit:10;stroke-dasharray:none;stroke-opacity:1" id="path1156" />
         </g>
         <g id="g1158" transform="matrix(1,0,0,-1,25.5,-42)">
            <path d="m 1035.566,-279.684 c -0.069,1.34401 -0.2977,4.07178 -2.2576,3.72298" style="fill:none;stroke:#000000;stroke-width:2.61538;stroke-linecap:round;stroke-linejoin:round;stroke-miterlimit:10;stroke-dasharray:none;stroke-opacity:1" id="path1160" />
         </g>
         <g id="g1162" transform="matrix(1,0,0,-1,25.5,-42)">
            <path d="m 1034.156,-279.434 c -1.9375,0.61308 -2.8854,-2.29731 -1.3175,-3.29609 0.7361,-0.77453 3.3891,-0.27406 2.6611,1.08209" style="fill:none;stroke:#000000;stroke-width:2.61538;stroke-linecap:round;stroke-linejoin:round;stroke-miterlimit:10;stroke-dasharray:none;stroke-opacity:1" id="path1164" />
         </g>
         <g id="g1166" transform="matrix(1,0,0,-1,25.5,-42)">
            <path d="m 891,-228.914 c -0.891,1.371 -0.469,3.141 -0.426,4.668 0.153,2.808 0.059,5.676 1.035,8.363 0.567,1.938 1.25,3.848 1.899,5.754 0.601,-0.836 -0.34,-3.277 -0.473,-4.711 -0.773,-2.043 -0.793,-4.23 -0.867,-6.402 0.059,-0.574 -0.02,-1.231 0.281,-1.746" style="fill:none;stroke:#000000;stroke-width:2.61538;stroke-linecap:round;stroke-linejoin:round;stroke-miterlimit:10;stroke-dasharray:none;stroke-opacity:1" id="path1168" />
         </g>
         <g id="g1170" transform="matrix(1,0,0,-1,25.5,-42)">
            <path d="m 713.113,-303.668 c -7.36335,-0.0319 -27.22216,-7.81928 -30.508,-11.445 -0.31591,-16.80601 -0.78998,-37.89376 1.278,-53.621 l 0.152,-0.219 0.235,-0.156" style="fill:none;stroke:#000000;stroke-width:3.92308;stroke-linecap:round;stroke-linejoin:round;stroke-miterlimit:10;stroke-dasharray:none;stroke-opacity:1" id="path1172" sodipodi:nodetypes="ccccc" />
         </g>
         <g id="g1174" transform="matrix(1,0,0,-1,25.5,-42)">
            <path d="m 684.625,-370.766 c 0,0 74.348,-71.367 112.656,-104.058" style="fill:none;stroke:#000000;stroke-width:3.92308;stroke-linecap:round;stroke-linejoin:round;stroke-miterlimit:10;stroke-dasharray:none;stroke-opacity:1" id="path1176" sodipodi:nodetypes="cc" />
         </g>
         <g id="g1178" transform="matrix(1,0,0,-1,25.5,-42)">
            <path d="m 798.281,-475.043 c 1.11774,21.36071 2.82118,43.78715 3.93379,65.148" style="fill:none;stroke:#000000;stroke-width:3.92308;stroke-linecap:round;stroke-linejoin:round;stroke-miterlimit:10;stroke-dasharray:none;stroke-opacity:1" id="path1180" sodipodi:nodetypes="cc" />
         </g>
         <g id="g1182" transform="matrix(1,0,0,-1,25.5,-42)">
            <path d="m 682.605,-315.113 c 39.011,-29.687 79.59779,-66.36 119.60979,-94.782" style="fill:none;stroke:#000000;stroke-width:3.92308;stroke-linecap:round;stroke-linejoin:round;stroke-miterlimit:10;stroke-dasharray:none;stroke-opacity:1" id="path1184" sodipodi:nodetypes="cc" />
         </g>
         <g id="g1186" transform="matrix(1,0,0,-1,25.5,-42)">
            <path d="m 1053.199,-279.539 c 22.356,-14.902 41.418,-27.656 62.039,-39.672" style="fill:none;stroke:#000000;stroke-width:3.92308;stroke-linecap:round;stroke-linejoin:round;stroke-miterlimit:10;stroke-dasharray:none;stroke-opacity:1" id="path1188" />
         </g>
         <g id="g1190" transform="matrix(1,0,0,-1,25.5,-42)">
            <path d="m 1115.676,-320.074 c 0.01,-17.77 -0.52,-35.387 -1.793,-53.028" style="fill:none;stroke:#000000;stroke-width:3.92308;stroke-linecap:round;stroke-linejoin:round;stroke-miterlimit:10;stroke-dasharray:none;stroke-opacity:1" id="path1192" />
         </g>
         <g id="g1194" transform="matrix(1,0,0,-1,25.5,-42)">
            <path d="m 798.281,-475.043 c 106.223,26.332 210.344,66.414 313.832,101.344" style="fill:none;stroke:#000000;stroke-width:3.92308;stroke-linecap:round;stroke-linejoin:round;stroke-miterlimit:10;stroke-dasharray:none;stroke-opacity:1" id="path1196" sodipodi:nodetypes="cc" />
         </g>
         <g id="g1198" transform="matrix(1,0,0,-1,25.5,-42)">
            <path d="m 802.21479,-409.895 312.58221,91.008" style="fill:none;stroke:#000000;stroke-width:3.92308;stroke-linecap:round;stroke-linejoin:round;stroke-miterlimit:10;stroke-dasharray:none;stroke-opacity:1" id="path1200" sodipodi:nodetypes="cc" />
         </g>
         <g id="g1202" transform="matrix(1,0,0,-1,25.5,-42)">
            <path d="m 682.605,-315.113 c 1.386,-9.922 8.375,-29.242 10.547,-38.992" style="fill:none;stroke:#000000;stroke-width:2.61538;stroke-linecap:round;stroke-linejoin:round;stroke-miterlimit:10;stroke-dasharray:none;stroke-opacity:1" id="path1204" sodipodi:nodetypes="cc" />
         </g>
         <g id="g1206" transform="matrix(1,0,0,-1,25.5,-42)">
            <path d="m 693.152,-354.105 c -2.898,-5.524 -5.742,-11.079 -8.527,-16.661" style="fill:none;stroke:#000000;stroke-width:2.61538;stroke-linecap:round;stroke-linejoin:round;stroke-miterlimit:10;stroke-dasharray:none;stroke-opacity:1" id="path1208" />
         </g>
         <g id="g1210" transform="matrix(1,0,0,-1,25.5,-42)">
            <path d="m 693.152,-354.105 c 27.156,-20.265 61.028,-58.157 89.364,-76.954" style="fill:none;stroke:#000000;stroke-width:2.61538;stroke-linecap:round;stroke-linejoin:round;stroke-miterlimit:10;stroke-dasharray:none;stroke-opacity:1" id="path1212" sodipodi:nodetypes="cc" />
         </g>
         <g id="g1214" transform="matrix(1,0,0,-1,25.5,-42)">
            <path d="m 802.21479,-409.895 c -5.786,-5.543 -13.81679,-15.722 -19.69879,-21.164" style="fill:none;stroke:#000000;stroke-width:2.61538;stroke-linecap:round;stroke-linejoin:round;stroke-miterlimit:10;stroke-dasharray:none;stroke-opacity:1" id="path1216" sodipodi:nodetypes="cc" />
         </g>
         <g id="g1218" transform="matrix(1,0,0,-1,25.5,-42)">
            <path d="m 782.516,-431.059 c 6.317,-12.793 11.57,-30.379 15.765,-43.984" style="fill:none;stroke:#000000;stroke-width:2.61538;stroke-linecap:round;stroke-linejoin:round;stroke-miterlimit:10;stroke-dasharray:none;stroke-opacity:1" id="path1220" sodipodi:nodetypes="cc" />
         </g>
      </g>
   </g>
</svg>
