<?xml version="1.0" encoding="UTF-8" standalone="no"?>
<!-- Created by Ashley Blewer - This work is licensed under a Creative Commons Attribution 4.0 International License -->

<svg width="544" height="480" viewBox="0 0 143.93334 127" version="1.1" id="svg2490" inkscape:version="1.1.2 (08b2f3d93c, 2022-04-05)" sodipodi:docname="1989-hi8-1.svg"
   xmlns:inkscape="http://www.inkscape.org/namespaces/inkscape"
   xmlns:sodipodi="http://sodipodi.sourceforge.net/DTD/sodipodi-0.dtd"
   xmlns="http://www.w3.org/2000/svg"
   xmlns:svg="http://www.w3.org/2000/svg">
   <sodipodi:namedview id="namedview2492" pagecolor="#ffffff" bordercolor="#666666" borderopacity="1.0" inkscape:pageshadow="2" inkscape:pageopacity="0.0" inkscape:pagecheckerboard="0" inkscape:document-units="mm" showgrid="false" units="px" inkscape:zoom="0.90583674" inkscape:cx="272.67607" inkscape:cy="177.18425" inkscape:window-width="1848" inkscape:window-height="1136" inkscape:window-x="72" inkscape:window-y="27" inkscape:window-maximized="1" inkscape:current-layer="layer1" />
   <defs id="defs2487" />
   <g inkscape:label="Layer 1" inkscape:groupmode="layer" id="layer1">
      <g id="g1831" transform="matrix(0.38387855,0,0,0.38394078,-85.365029,-29.902917)" style="stroke-width:0.918908">
         <g id="g166" transform="scale(1,-1)" style="stroke-width:0.918908">
            <path d="m 535.219,-105.012 c 4.504,-0.074 8.508,-2.367 12.426,-4.472 7.886,-3.832 12.398,-11.731 16.761,-18.942 2.684,-4.949 3.668,-10.59 4.453,-16.086 0.844,-7.191 -4.754,-15.808 -12.699,-14.703 -8.719,1.195 -14.75,8.578 -19.98,15 -4.754,6.281 -7.606,13.906 -9.121,21.59 -0.547,4.598 -0.395,9.469 1.171,13.848 1.602,3.843 6.243,4.422 9.661,2.734" style="fill:none;stroke:#000000;stroke-width:3.60495;stroke-linecap:round;stroke-linejoin:round;stroke-miterlimit:10;stroke-dasharray:none;stroke-opacity:1" id="path168" />
         </g>
         <g id="g170" transform="scale(1,-1)" style="stroke-width:0.918908">
            <path d="m 526.289,-114.203 c -3.457,-3.59 -9.754,-5.039 -11.172,-10.266 0.969,-6.476 2.25,-13.207 5.649,-18.922 3.754,-7.132 9.652,-13.367 17.05,-16.742 1.36,-0.687 2.618,-1.535 4.059,-2.019" style="fill:none;stroke:#000000;stroke-width:3.60495;stroke-linecap:round;stroke-linejoin:round;stroke-miterlimit:10;stroke-dasharray:none;stroke-opacity:1" id="path172" />
         </g>
         <g id="g174" transform="scale(1,-1)" style="stroke-width:0.918908">
            <path d="m 550.523,-161.102 c -2.117,-2.214 -5.714,-1.691 -8.464,-2.543 -3.762,-0.441 -5.797,-3.957 -9.125,-5.3" style="fill:none;stroke:#000000;stroke-width:3.60495;stroke-linecap:round;stroke-linejoin:round;stroke-miterlimit:10;stroke-dasharray:none;stroke-opacity:1" id="path176" />
         </g>
         <g id="g178" transform="scale(1,-1)" style="stroke-width:0.918908">
            <path d="m 509.512,-130.746 v -0.004 l -0.008,-0.02 0.012,-0.039 v -0.246 l 0.046,-0.074 -0.027,-0.012 -0.035,-0.054 -0.035,-0.059 0.023,-0.047 -0.004,-0.031 -0.039,-0.078 -0.011,-0.067 0.007,-0.023 -0.031,-0.039 -0.012,-0.059 -0.011,-0.05 -0.012,-0.043 -0.094,-0.051 -0.039,-0.067 0.043,-0.054 0.008,-0.086 0.008,-0.094 0.008,-0.082 0.011,-0.109 0.008,-0.11 0.008,-0.086 0.008,-0.09 0.008,-0.093 0.003,-0.094 0.008,-0.063 -0.027,-0.074 -0.02,-0.125 0.039,-0.125 0.008,-0.109 -0.011,-0.129 v -0.098 l 0.011,-0.121 0.008,-0.137 -0.016,-0.121 -0.007,-0.234 v -0.152 l -0.004,-0.157 0.015,-0.125 -0.011,-0.117 v -0.125 l -0.004,-0.133 -0.004,-0.156 v -0.156 l 0.015,-0.137 0.004,-0.129 -0.015,-0.136 0.015,-0.161 v -0.152 l 0.004,-0.137 v -0.125 l 0.004,-0.148 v -0.18 l 0.02,-0.168 0.019,-0.172 0.028,-0.175 0.015,-0.223 0.098,-0.203 0.058,-0.145 -0.027,-0.136 0.012,-0.153 0.019,-0.16 0.008,-0.148 -0.015,-0.149 0.011,-0.156 0.032,-0.152 0.054,-0.289 0.028,-0.141 0.027,-0.172 v -0.168 l 0.023,-0.133 0.051,-0.144 0.039,-0.133 0.035,-0.129 0.036,-0.141 v -0.171 l 0.046,-0.145 0.059,-0.109 0.027,-0.114 0.032,-0.117 0.015,-0.105 0.039,-0.11 v -0.121 l 0.02,-0.148 0.058,-0.125 0.036,-0.125 0.031,-0.117 0.031,-0.102 0.031,-0.148 0.032,-0.168 0.035,-0.129 0.027,-0.121 0.012,-0.121 0.019,-0.149 0.043,-0.137 0.031,-0.129 0.032,-0.109 0.058,-0.098 0.043,-0.121 0.039,-0.136 0.059,-0.075 0.066,-0.093 0.032,-0.18 0.004,-0.18 0.058,-0.16 0.051,-0.156 0.058,-0.16 0.043,-0.133 0.036,-0.125 0.031,-0.149 0.051,-0.156 0.054,-0.152 0.055,-0.149 0.059,-0.179 0.113,-0.133 0.062,-0.121 0.004,-0.125 0.024,-0.121 0.039,-0.114 0.027,-0.113 0.012,-0.101 0.016,-0.098 0.05,-0.117 0.082,-0.114 0.067,-0.132 0.066,-0.118 0.059,-0.187 0.09,-0.152 0.058,-0.094 0.028,-0.102 0.05,-0.113 0.071,-0.113 0.074,-0.129 -0.035,-0.121 0.05,-0.106 0.114,-0.105 0.062,-0.121 0.055,-0.106 0.055,-0.097 0.058,-0.106 0.028,-0.113 0.035,-0.094 0.074,-0.09 0.062,-0.105 0.043,-0.11 0.039,-0.097 0.047,-0.113 0.086,-0.133 0.055,-0.117 0.039,-0.114 0.055,-0.101 0.07,-0.11 0.047,-0.133 0.023,-0.128 0.063,-0.086 0.066,-0.106 0.063,-0.117 0.066,-0.102 0.063,-0.062 0.054,-0.086 0.043,-0.145 0.059,-0.148 0.055,-0.129 0.043,-0.109 0.066,-0.117 0.043,-0.137 0.074,-0.113 0.074,-0.086 0.051,-0.106 0.043,-0.094 0.047,-0.101 0.039,-0.106 0.066,-0.097 0.043,-0.106 0.036,-0.094 0.046,-0.089 0.051,-0.086 0.055,-0.086 0.019,-0.071 0.012,-0.085 0.051,-0.098 0.066,-0.094 0.063,-0.09 0.043,-0.09 0.035,-0.097 0.098,-0.074 0.093,-0.075 0.008,-0.078 0.031,-0.082 0.043,-0.074 0.067,-0.098 0.004,-0.082 0.027,-0.082 0.07,-0.082 0.082,-0.074 0.067,-0.086 0.07,-0.066 0.078,-0.075 0.117,-0.082 0.055,-0.089 0.035,-0.086 0.055,-0.079 0.055,-0.085 0.074,-0.106 0.031,-0.102 0.098,-0.078 0.101,-0.07 0.047,-0.074 0.059,-0.074 0.058,-0.063 0.059,-0.09 0.027,-0.09 0.063,-0.07 0.097,-0.078 0.098,-0.09 0.074,-0.09 0.071,-0.05 0.062,-0.071 0.063,-0.109 0.07,-0.082 0.074,-0.082 0.063,-0.106 0.062,-0.097 0.074,-0.125 0.051,-0.11 0.047,-0.051 0.07,-0.074 0.063,-0.101 0.066,-0.082 0.071,-0.047 0.043,-0.07 0.023,-0.09 0.074,-0.086 0.094,-0.082 0.07,-0.094 0.071,-0.07 0.078,-0.063 0.066,-0.074 0.051,-0.07 0.074,-0.055 0.063,-0.059 0.062,-0.07 0.09,-0.074 0.176,-0.137 0.047,-0.055 0.054,-0.066 0.078,-0.059 0.079,-0.062 0.07,-0.059 0.027,-0.074 0.082,-0.059 0.11,-0.046 0.082,-0.059 0.105,-0.07 0.098,-0.063 0.168,-0.054 0.152,-0.083 0.039,-0.082 0.098,-0.07 0.105,-0.058 0.102,-0.114 0.09,-0.09 0.113,-0.054 0.082,-0.067 0.059,-0.062 0.07,-0.07 0.078,-0.063 0.094,-0.078 0.086,-0.086 0.09,-0.07 0.035,-0.079 0.078,-0.066 0.094,-0.078 0.086,-0.09 0.089,-0.074 0.129,-0.047 0.106,-0.078 0.07,-0.082 0.098,-0.059 0.105,-0.078 0.117,-0.098 0.016,-0.093 0.07,-0.059 0.141,-0.058 0.133,-0.086 0.097,-0.09 0.11,-0.047 0.082,-0.067 0.074,-0.093 0.117,-0.082 0.098,-0.075 0.109,-0.082 0.086,-0.054 0.098,-0.086 0.078,-0.106 0.074,-0.062 0.086,-0.074 0.09,-0.071 0.09,-0.031 0.035,-0.027 0.016,-0.055 0.031,-0.047 0.051,-0.051 0.082,-0.054 0.062,-0.059 0.074,-0.019 0.075,-0.039 0.046,-0.079 0.071,-0.078 0.109,-0.05 0.098,-0.063 0.098,-0.078 0.113,-0.067 0.179,-0.062 0.141,-0.09 0.074,-0.07 0.102,-0.09 0.121,-0.078 0.125,-0.106 0.102,-0.086 0.078,-0.058 0.109,-0.074 0.137,-0.086 0.125,-0.09 0.125,-0.07 0.117,-0.067 0.168,-0.078 0.109,-0.105 0.024,-0.075 0.078,-0.062 0.074,-0.078 0.063,-0.117 0.019,-0.075 0.078,-0.004 0.086,-0.035 0.031,-0.051 0.063,-0.023 0.043,-0.012 0.035,-0.035 h -0.004 l 0.024,-0.012 0.027,0.004 0.027,0.008 0.028,-0.012 0.019,0.012 h -0.012 l 0.008,-0.012 h 0.024 l 0.015,-0.011 0.008,-0.012 v 0.004 l 0.012,-0.024 -0.039,-0.011 -0.016,0.011 0.031,-0.003 h 0.02 l 0.019,0.011 v -0.004 l -0.011,-0.011 0.004,-0.012 0.031,-0.008 0.035,-0.031 0.016,-0.02 0.007,-0.004 h 0.016 l 0.016,-0.031 0.011,-0.008 0.012,-0.023 0.027,-0.031 0.016,-0.028 0.027,-0.047" style="fill:none;stroke:#000000;stroke-width:3.60495;stroke-linecap:round;stroke-linejoin:round;stroke-miterlimit:10;stroke-dasharray:none;stroke-opacity:1" id="path180" />
         </g>
         <g id="g182" transform="scale(1,-1)" style="stroke-width:0.918908">
            <path d="m 512.289,-125.16 c -5.246,-4.91 -11.656,-9.668 -15.836,-15.785 -3.211,-7.621 2.469,-16.278 6.067,-23.125 3.832,-7.27 12.132,-12.293 20.449,-10.461 0.402,1.668 1.582,-0.219 2.168,0.39" style="fill:none;stroke:#000000;stroke-width:3.60495;stroke-linecap:round;stroke-linejoin:round;stroke-miterlimit:10;stroke-dasharray:none;stroke-opacity:1" id="path184" />
         </g>
         <g id="g186" transform="scale(1,-1)" style="stroke-width:0.918908">
            <path d="m 533.32,-171.539 c 0.52,-3 0.461,-6.016 0.395,-9.059 -1.121,-3.679 2.121,-6.422 2.695,-9.871 0.281,-0.91 0.352,-1.961 0.074,-2.875" style="fill:none;stroke:#000000;stroke-width:3.60495;stroke-linecap:round;stroke-linejoin:round;stroke-miterlimit:10;stroke-dasharray:none;stroke-opacity:1" id="path188" />
         </g>
         <g id="g190" transform="scale(1,-1)" style="stroke-width:0.918908">
            <path d="m 495.754,-140.133 c -5.566,-4.367 -12.555,-8.711 -18.785,-12.863 -8.141,-3.938 -15.211,-9.613 -21.574,-15.969 -8.133,-6.922 -14.27,-15.926 -22.657,-22.555 -1.398,-2.335 -4.215,-4.027 -5.418,-5.808" style="fill:none;stroke:#000000;stroke-width:3.60495;stroke-linecap:round;stroke-linejoin:round;stroke-miterlimit:10;stroke-dasharray:none;stroke-opacity:1" id="path192" />
         </g>
         <g id="g194" transform="scale(1,-1)" style="stroke-width:0.918908">
            <path d="m 422.789,-196.844 c -2.727,1.102 -2.371,4.457 -0.469,6.188 1.825,2.457 4.418,4.136 6.645,6.179 1.715,1.356 3.414,2.782 5.101,4.188 0.692,1.004 2.614,1.617 2.192,3.062" style="fill:none;stroke:#000000;stroke-width:3.60495;stroke-linecap:round;stroke-linejoin:round;stroke-miterlimit:10;stroke-dasharray:none;stroke-opacity:1" id="path196" />
         </g>
         <g id="g198" transform="scale(1,-1)" style="stroke-width:0.918908">
            <path d="m 474.375,-155.008 c -9.25,3.203 -17.734,12.012 -28.051,8.926 -7.051,1.363 -9.785,10.043 -17.605,10.809 -5.989,4.406 -13.367,4.211 -19.52,5.617 -6.972,5.386 -15.883,6.285 -24.371,6.801 -5.656,0.863 -10.648,4.316 -16.387,4.757" style="fill:none;stroke:#000000;stroke-width:3.60495;stroke-linecap:round;stroke-linejoin:round;stroke-miterlimit:10;stroke-dasharray:none;stroke-opacity:1" id="path200" />
         </g>
         <g id="g202" transform="scale(1,-1)" style="stroke-width:0.918908">
            <path d="m 368.441,-118.098 c -0.258,0.347 -3.457,-2.847 -4.226,-2.898 -1.477,-0.559 -2.527,-2.168 -4.293,-1.777 -1.305,-0.43 -2.988,-0.258 -3.809,-1.543 -0.636,-0.598 -3.406,-4.34 -4.418,-4.329" style="fill:none;stroke:#000000;stroke-width:3.60495;stroke-linecap:round;stroke-linejoin:round;stroke-miterlimit:10;stroke-dasharray:none;stroke-opacity:1" id="path204" sodipodi:nodetypes="ccccc" />
         </g>
         <g id="g206" transform="scale(1,-1)" style="stroke-width:0.918908">
            <path d="m 351.695,-128.645 c -2.875,-2.046 -7.429,-4.539 -10.828,-6.769 -4.269,-2.512 -9.222,-3.996 -12.75,-7.633 -5.144,-2.539 -7.996,-7.473 -11.164,-11.945 -1.758,-3.196 -3.875,-6.625 -4.48,-10.145 -0.989,-3.523 -1.235,-6.918 -1.555,-10.543 0.73,-2.832 -0.109,-5.894 0.953,-8.699 0.859,-2.269 2.238,-4.246 4.164,-6.285 3.102,-3.512 7.25,-5.77 11.805,-7.621 4.863,-2.469 8.941,-6.344 12.769,-10.02 1.168,-0.984 2.758,-2.812 3.114,-3.734 -1.817,-2.02 -1.918,-4.953 -2.864,-7.231 l 0.059,-0.347" style="fill:none;stroke:#000000;stroke-width:3.60495;stroke-linecap:round;stroke-linejoin:round;stroke-miterlimit:10;stroke-dasharray:none;stroke-opacity:1" id="path208" />
         </g>
         <g id="g210" transform="scale(1,-1)" style="stroke-width:0.918908">
            <path d="m 330.051,-201.695 c 0.418,-1.43 0.539,-2.899 0.765,-4.364 0.539,-1.64 0.278,-3.406 0.918,-5.023 0.055,-0.309 0.621,-1.629 0.063,-1.422" style="fill:none;stroke:#000000;stroke-width:3.60495;stroke-linecap:round;stroke-linejoin:round;stroke-miterlimit:10;stroke-dasharray:none;stroke-opacity:1" id="path212" />
         </g>
         <g id="g214" transform="scale(1,-1)" style="stroke-width:0.918908">
            <path d="m 326.254,-210.172 c 17.711,-15.359 37.711,-28.137 54.07,-45.004 2.328,-17.043 -23.19025,-32.269 -38.355,-47.789" style="fill:none;stroke:#000000;stroke-width:3.60495;stroke-linecap:round;stroke-linejoin:round;stroke-miterlimit:10;stroke-dasharray:none;stroke-opacity:1" id="path216" sodipodi:nodetypes="ccc" />
         </g>
         <g id="g218" transform="scale(1,-1)" style="stroke-width:0.918908">
            <path d="m 327.945,-211.598 c -8.218,7.176 -15.515,-4.316 -21.8,-8.601 -18.043,-13.16 -37.883,-24.129 -53.446,-40.414 -5.578,-6.735 -18.027,-10.766 -19.726,-18.575 7.695,-7.542 15.918,-15.343 23.578,-22.558" style="fill:none;stroke:#000000;stroke-width:3.60495;stroke-linecap:round;stroke-linejoin:round;stroke-miterlimit:10;stroke-dasharray:none;stroke-opacity:1" id="path220" />
         </g>
         <g id="g222" transform="scale(1,-1)" style="stroke-width:0.918908">
            <path d="m 232.973,-279.188 c -5.48199,-5.57618 22.429,-29.89 35.125,-41.652 10.64,-8.465 24.074,-24.348 38.804,-14.762 13.215,9.321 24.368,20.563 35.067,32.637" style="fill:none;stroke:#000000;stroke-width:3.60495;stroke-linecap:round;stroke-linejoin:round;stroke-miterlimit:10;stroke-dasharray:none;stroke-opacity:1" id="path224" sodipodi:nodetypes="cccc" />
         </g>
         <g id="g226" transform="scale(1,-1)" style="stroke-width:0.918908">
            <path d="m 279.574,-321.223 v -0.007 l -0.035,-0.016 -0.039,-0.035 -0.043,-0.043 -0.109,-0.067 -0.168,-0.035 0.027,-0.035 0.094,-0.047 0.051,-0.012 0.035,-0.003 0.043,0.003 0.105,-0.003 0.078,-0.043 -0.019,-0.024 0.031,-0.012 0.02,-0.007 0.046,-0.008 0.02,-0.028 0.121,-0.035 0.113,-0.035 -0.019,-0.008 0.035,-0.031 0.051,-0.031 0.043,-0.031 -0.032,-0.016 0.028,-0.023 0.09,-0.04 0.078,-0.058 0.082,-0.02 0.058,-0.039 0.125,-0.035 0.161,-0.039 0.019,-0.047 0.02,-0.055 0.039,-0.035 0.047,-0.05 0.058,-0.063 -0.016,-0.078 0.032,-0.07 0.09,-0.063 0.086,-0.09 0.074,-0.082 0.062,-0.082 0.106,-0.07 0.047,-0.067 0.031,-0.054 0.074,-0.07 0.082,-0.071 0.059,-0.051 0.043,-0.054 0.047,-0.063 0.054,-0.078 0.051,-0.082 0.039,-0.07 0.078,-0.078 0.078,-0.086 0.09,-0.09 0.07,-0.09 0.067,-0.09 0.098,-0.09 0.109,-0.09 0.117,-0.078 0.074,-0.101 0.039,-0.11 0.106,-0.093 0.137,-0.114 0.097,-0.109 0.086,-0.102 0.086,-0.07 0.18,-0.086 0.152,-0.113 0.035,-0.074 0.063,-0.09 0.078,-0.082 0.101,-0.059 0.055,-0.078 0.07,-0.094 0.094,-0.082 0.067,-0.086 0.082,-0.066 0.074,-0.094 0.082,-0.09 0.176,-0.05 0.109,-0.086 0.004,-0.059 0.059,-0.07 0.054,-0.059 0.071,-0.039 0.121,-0.051 0.191,-0.066 0.078,-0.078 -0.004,-0.031 0.051,-0.04 0.063,-0.062 0.089,-0.074 -0.086,-0.074 0.016,-0.079 0.188,-0.062 0.109,-0.098 0.117,-0.074 0.09,-0.082 0.137,-0.074 0.133,-0.055 0.062,-0.062 0.09,-0.075 0.101,-0.074 0.106,-0.074 0.129,-0.063 -0.008,-0.093 0.066,-0.078 0.192,-0.082 0.14,-0.102 0.157,-0.074 0.144,-0.078 0.16,-0.071 0.114,-0.07 0.136,-0.055 0.161,-0.058 0.128,-0.078 0.129,-0.063 0.125,-0.07 0.137,-0.063 0.16,-0.058 0.11,-0.043 0.082,-0.047 0.093,-0.047 0.09,-0.055 0.141,-0.05 0.129,-0.036 0.015,-0.047 0.075,-0.05 0.066,-0.047 0.074,-0.039 0.004,-0.031 v -0.055 l 0.078,-0.039 0.102,-0.055 0.097,-0.043 0.083,-0.035 0.082,-0.031 0.144,-0.043 0.117,-0.055 0.043,-0.055 0.059,-0.039 0.058,-0.031 0.075,0.016 0.086,-0.032 0.113,-0.074 0.101,-0.043 0.063,-0.035 0.078,-0.047 0.086,-0.054 0.09,-0.059 0.004,-0.043 0.062,-0.039 0.133,-0.039 0.133,-0.055 0.117,-0.062 0.113,-0.055 0.141,-0.039 0.18,-0.039 0.125,-0.059 0.066,-0.051 0.098,-0.05 0.109,-0.055 0.137,-0.043 -0.082,-0.047 0.043,-0.07 0.234,-0.055 0.176,-0.051 0.14,-0.062 0.102,-0.059 0.133,-0.058 0.121,-0.028 0.086,-0.035 0.074,-0.027 0.082,-0.028 0.078,-0.023 0.094,-0.023 0.102,-0.039 0.093,-0.028 0.055,-0.008 0.051,-0.004 0.066,0.004 0.055,-0.031 0.094,-0.019 0.074,-0.024 0.027,-0.023 0.071,-0.024 0.074,-0.027 0.086,-0.027 0.066,-0.032 0.078,-0.031 0.082,-0.027 0.071,-0.016 0.066,-0.008 0.059,-0.023 0.074,-0.024 0.168,-0.011 0.101,-0.035 0.012,-0.02 0.059,-0.039 0.05,-0.031 0.059,0.035 0.043,-0.016 0.031,-0.047 0.086,-0.031 0.11,-0.031 0.089,-0.016 0.071,-0.043 0.082,-0.05 0.09,-0.04 0.093,-0.023 0.09,-0.031 0.164,-0.063 0.09,-0.015 0.024,-0.004 0.078,-0.039 0.058,-0.039 0.047,-0.039 0.086,-0.032 0.066,-0.035 0.067,-0.016 h -0.223 l -0.051,-0.058 h 0.168 l 0.032,-0.035 0.019,-0.016 0.008,0.012 0.027,0.012" style="fill:none;stroke:#000000;stroke-width:3.60495;stroke-linecap:round;stroke-linejoin:round;stroke-miterlimit:10;stroke-dasharray:none;stroke-opacity:1" id="path228" />
         </g>
         <g id="g230" transform="scale(1,-1)" style="stroke-width:0.918908">
            <path d="m 385.723,-152.23 c -3.621,-2.438 -7.516,-4.446 -10.832,-7.332 -7.157,-5.922 -15.184,-11.649 -18.782,-20.559 -3.191,-7.109 -4.972,-14.918 -5.328,-22.691 0.547,-2.161 0.426,-4.473 1.281,-6.555" style="fill:none;stroke:#000000;stroke-width:3.60495;stroke-linecap:round;stroke-linejoin:round;stroke-miterlimit:10;stroke-dasharray:none;stroke-opacity:1" id="path232" />
         </g>
         <g id="g234" transform="scale(1,-1)" style="stroke-width:0.918908">
            <path d="m 533.758,-197.402 c -0.477,0.898 -2.758,-3.25 -4.356,-3.719 -2.226,-1.707 -3.918,-3.969 -6.109,-5.734 -2.129,-2.219 -4.254,-4.45 -6.121,-6.883 -1.957,-2.274 -4.352,-4.547 -4.902,-7.606 0.015,-1.316 -0.192,-2.832 0.625,-3.715" style="fill:none;stroke:#000000;stroke-width:3.60495;stroke-linecap:round;stroke-linejoin:round;stroke-miterlimit:10;stroke-dasharray:none;stroke-opacity:1" id="path236" />
         </g>
         <g id="g238" transform="scale(1,-1)" style="stroke-width:0.918908">
            <path d="m 462.727,-172.441 c 3.062,-8.747 10.691,-17.286 17.171,-24.727 2.411,-2.172 5.223,-5.73 7.731,-6.875" style="fill:none;stroke:#000000;stroke-width:3.60495;stroke-linecap:round;stroke-linejoin:round;stroke-miterlimit:10;stroke-dasharray:none;stroke-opacity:1" id="path240" />
         </g>
         <g id="g242" transform="scale(1,-1)" style="stroke-width:0.918908">
            <path d="m 485.59,-206.844 c -7.668,-2.484 -14.86,-6.281 -21.18,-11.148" style="fill:none;stroke:#000000;stroke-width:3.60495;stroke-linecap:round;stroke-linejoin:round;stroke-miterlimit:10;stroke-dasharray:none;stroke-opacity:1" id="path244" />
         </g>
         <g id="g246" transform="scale(1,-1)" style="stroke-width:0.918908">
            <path d="m 498.348,-208.992 -0.008,0.008 -0.028,0.019 -0.031,0.016 -0.035,0.031 -0.058,0.023 -0.075,0.016 -0.008,0.008 0.032,0.004 0.011,0.004 -0.003,-0.004 0.043,-0.004 0.011,-0.012 -0.027,-0.004 h -0.016 l -0.011,0.004 -0.02,0.004 -0.035,-0.004 -0.012,-0.027 0.008,-0.031 -0.039,-0.02 -0.027,-0.035 -0.012,-0.016 -0.008,-0.023 -0.051,-0.016 -0.039,-0.011 -0.019,-0.012 -0.012,-0.012 -0.024,-0.031 -0.031,-0.031 -0.051,-0.028 -0.043,-0.015 -0.003,-0.028 -0.036,-0.011 -0.039,-0.032 -0.031,-0.023 -0.016,-0.024 -0.027,-0.031 -0.039,-0.043 -0.066,-0.015 -0.075,-0.028 -0.07,-0.031 -0.066,-0.043 -0.102,-0.035 -0.086,-0.055 -0.062,-0.043 -0.051,-0.035 -0.063,-0.047 -0.078,-0.039 -0.05,-0.058 -0.086,-0.04 -0.102,-0.05 -0.086,-0.063 -0.086,-0.055 -0.094,-0.058 -0.105,-0.063 -0.086,-0.082 -0.105,-0.066 -0.114,-0.066 -0.09,-0.086 -0.105,-0.067 -0.098,-0.086 -0.113,-0.074 -0.172,-0.062 -0.148,-0.09 -0.09,-0.09 -0.125,-0.082 -0.129,-0.094 -0.125,-0.09 -0.059,-0.094 -0.09,-0.089 -0.179,-0.071 -0.16,-0.09 -0.153,-0.101 -0.152,-0.059 -0.141,-0.078 -0.129,-0.113 -0.132,-0.098 -0.157,-0.09 -0.164,-0.093 -0.14,-0.11 -0.149,-0.093 -0.133,-0.079 -0.14,-0.082 -0.141,-0.07 -0.16,-0.062 -0.195,-0.086 -0.18,-0.071 -0.203,-0.058 -0.164,-0.078 -0.117,-0.067 -0.133,-0.051 -0.141,-0.07 -0.125,-0.078 -0.117,-0.063 -0.098,-0.042 -0.113,-0.047 -0.152,-0.051 -0.133,-0.035 -0.117,-0.047 -0.114,-0.063 -0.214,-0.05 -0.188,-0.063 -0.039,-0.062 -0.09,-0.067 -0.113,-0.066 -0.121,-0.063 -0.094,-0.058 -0.09,-0.063 -0.113,-0.058 -0.125,-0.079 -0.137,-0.066 -0.125,-0.062 -0.105,-0.067 -0.153,-0.059 -0.156,-0.062 -0.109,-0.066 -0.125,-0.075 -0.117,-0.066 -0.118,-0.063 -0.113,-0.078 -0.164,-0.047 -0.152,-0.078 -0.125,-0.086 -0.137,-0.062 -0.117,-0.07 -0.117,-0.043 -0.086,-0.075 -0.114,-0.074 -0.304,-0.152 -0.137,-0.082 -0.144,-0.051 -0.102,-0.082 -0.082,-0.078 -0.129,-0.082 -0.125,-0.074 -0.117,-0.063 -0.125,-0.062 -0.153,-0.059 -0.121,-0.062 -0.101,-0.075 -0.125,-0.058 -0.141,-0.059 -0.125,-0.062 -0.121,-0.039 -0.133,-0.047 -0.109,-0.086 -0.086,-0.086 -0.145,-0.063 -0.148,-0.066 -0.113,-0.067 -0.153,-0.054 -0.07,-0.063 -0.059,-0.035 -0.128,-0.051 -0.125,-0.078 -0.102,-0.043 -0.09,-0.035 -0.16,-0.012 -0.109,-0.05 -0.051,-0.047 -0.086,-0.039 -0.07,-0.075 -0.075,-0.07 -0.078,-0.062 -0.043,-0.067 -0.09,-0.074 -0.16,-0.082 -0.14,-0.078 -0.125,-0.086 -0.114,-0.09 -0.179,-0.07 -0.176,-0.078 -0.063,-0.094 -0.093,-0.067 -0.098,-0.07 -0.09,-0.082 -0.086,-0.078 -0.117,-0.055 -0.113,-0.058 -0.082,-0.078 -0.086,-0.079 -0.102,-0.046 -0.109,-0.039 -0.106,-0.067 -0.113,-0.07 -0.086,-0.067 -0.101,-0.039 -0.11,-0.05 -0.097,-0.036 -0.075,-0.062 -0.113,-0.055 -0.133,-0.039 -0.109,-0.051 -0.11,-0.031 -0.117,-0.047 -0.148,-0.047 -0.164,-0.05 -0.133,-0.059 -0.098,-0.059 -0.125,-0.039 -0.144,-0.035 -0.117,-0.015 -0.082,-0.039 -0.102,-0.059 -0.141,-0.055 -0.144,-0.062 -0.109,-0.078 -0.118,-0.051 -0.175,-0.039 -0.149,-0.063 -0.066,-0.066 -0.082,-0.055 -0.106,-0.058 -0.09,-0.043 -0.082,-0.039 -0.093,-0.047 -0.071,-0.039 -0.078,-0.051 -0.09,-0.031 -0.07,-0.055 -0.055,-0.067 -0.086,-0.042 -0.07,-0.04 -0.039,-0.05 -0.086,-0.047 -0.074,-0.063 -0.074,-0.074 -0.067,-0.047 -0.121,-0.035 -0.101,-0.039 -0.008,-0.035 -0.035,-0.028 -0.063,-0.027 -0.039,-0.062 -0.027,-0.032 -0.043,-0.015 -0.043,-0.024 -0.047,-0.023 -0.035,-0.008 h -0.032 l -0.011,-0.012 h -0.035 l -0.047,0.004 -0.016,-0.031 -0.019,-0.004 -0.008,0.02 h -0.004 0.008 v 0.004 l -0.02,0.007 0.004,0.012 0.004,0.02 0.008,0.015 v -0.004" style="fill:none;stroke:#000000;stroke-width:3.60495;stroke-linecap:round;stroke-linejoin:round;stroke-miterlimit:10;stroke-dasharray:none;stroke-opacity:1" id="path248" />
         </g>
         <g id="g250" transform="scale(1,-1)" style="stroke-width:0.918908">
            <path d="m 490.41,-156.816 c 7.137,-10.231 13.817,-20.926 23.117,-29.356 0.793,-1.172 1.938,-2.039 2.754,-3.195" style="fill:none;stroke:#000000;stroke-width:3.60495;stroke-linecap:round;stroke-linejoin:round;stroke-miterlimit:10;stroke-dasharray:none;stroke-opacity:1" id="path252" />
         </g>
         <g id="g254" transform="scale(1,-1)" style="stroke-width:0.918908">
            <path d="m 538.988,-197.039 c 3.098,-0.762 2.778,-4.285 2.539,-6.707 -0.629,-2.922 -1.812,-5.715 -1.855,-8.758 -0.762,-2.902 0.207,-6.512 -2.301,-8.711 -2.691,-2.223 -5.941,-3.734 -9.144,-5.07 -2.954,-0.57 -5.579,-2.117 -8.426,-3.051 l -0.012,0.133 -0.07,0.105" style="fill:none;stroke:#000000;stroke-width:3.60495;stroke-linecap:round;stroke-linejoin:round;stroke-miterlimit:10;stroke-dasharray:none;stroke-opacity:1" id="path256" />
         </g>
         <g id="g258" transform="scale(1,-1)" style="stroke-width:0.918908">
            <path d="m 534.17334,-222.39152 c -1.519,-7.453 -3.97434,-19.39348 -6.86834,-26.37448 -1.192,-3.851 -2.93,-7.566 -4.133,-11.39 -2.57,-4.539 -3.137,-9.899 -5.383,-14.547 -3.891,-2.879 -5.984,-7.258 -9.055,-10.703" style="fill:none;stroke:#000000;stroke-width:3.60495;stroke-linecap:round;stroke-linejoin:round;stroke-miterlimit:10;stroke-dasharray:none;stroke-opacity:1" id="path260" sodipodi:nodetypes="ccccc" />
         </g>
         <g id="g262" transform="scale(1,-1)" style="stroke-width:0.918908">
            <path d="m 507.09,-283.641 c 0.156,2.989 -1.977,4.387 -4.106,5.586 -1.64,2.071 -0.875,4.856 -0.113,7.219 0.762,2.856 2.383,5.301 3.223,8.09 2.113,4.078 3.152,8.566 5.191,12.668 1.375,3.148 2.195,6.535 4.063,9.461 1.351,4.019 3.746,7.527 5.199,11.504 -0.137,0.008 0.055,-0.239 -0.039,-0.004" style="fill:none;stroke:#000000;stroke-width:3.60495;stroke-linecap:round;stroke-linejoin:round;stroke-miterlimit:10;stroke-dasharray:none;stroke-opacity:1" id="path264" />
         </g>
         <g id="g266" transform="scale(1,-1)" style="stroke-width:0.918908">
            <path d="m 512.895,-225.059 c -0.129,-1.695 -1.262,-6.484 -1.973,-8.05 -0.949,-2.485 -1.918,-4.957 -2.883,-7.434 -0.664,-2.269 -0.644,-4.723 -1.898,-6.793 -0.688,-2.691 -1.153,-5.457 -2.137,-8.055 -0.164,-0.461 -0.348,-1.359 -1.039,-1.171" style="fill:none;stroke:#000000;stroke-width:3.60495;stroke-linecap:round;stroke-linejoin:round;stroke-miterlimit:10;stroke-dasharray:none;stroke-opacity:1" id="path268" sodipodi:nodetypes="cccccc" />
         </g>
         <g id="g270" transform="scale(1,-1)" style="stroke-width:0.918908">
            <path d="m 481.531,-227.789 c 4.188,-9.606 5.071,-20.805 4.465,-30.973" style="fill:none;stroke:#000000;stroke-width:3.60495;stroke-linecap:round;stroke-linejoin:round;stroke-miterlimit:10;stroke-dasharray:none;stroke-opacity:1" id="path272" />
         </g>
         <g id="g274" transform="scale(1,-1)" style="stroke-width:0.918908">
            <path d="m 484.539,-260.539 c -2.707,-0.344 -7.184,-2.5 -10.441,-3.211" style="fill:none;stroke:#000000;stroke-width:3.60495;stroke-linecap:round;stroke-linejoin:round;stroke-miterlimit:10;stroke-dasharray:none;stroke-opacity:1" id="path276" />
         </g>
         <g id="g278" transform="scale(1,-1)" style="stroke-width:0.918908">
            <path d="m 380.93311,-260.45655 c 5.411,-4.203 16.57089,-10.74645 22.30889,-14.43845 6.379,-2.5 12.035,-6.335 17.938,-9.773 5.859,-3.125 10.992,-7.547 17.086,-10.277 6.336,-3.672 12.984,-6.828 19.25,-10.668 4.742,-2.66 9.523,-5.918 15.004,-6.809 2.628,-0.543 10.155,-0.57 9.144,3.11" style="fill:none;stroke:#000000;stroke-width:3.60495;stroke-linecap:round;stroke-linejoin:round;stroke-miterlimit:10;stroke-dasharray:none;stroke-opacity:1" id="path280" sodipodi:nodetypes="ccccccc" />
         </g>
         <g id="g282" transform="scale(1,-1)" style="stroke-width:0.918908">
            <path d="m 481.664,-309.312 c 0.297,3.371 1.473,6.621 2.016,9.968 1.527,7.602 4.453,14.887 5.351,22.625 0.375,3.188 0.957,6.364 1.563,9.5 l 0.281,0.528" style="fill:none;stroke:#000000;stroke-width:3.60495;stroke-linecap:round;stroke-linejoin:round;stroke-miterlimit:10;stroke-dasharray:none;stroke-opacity:1" id="path284" />
         </g>
         <g id="g286" transform="scale(1,-1)" style="stroke-width:0.918908">
            <path d="m 544.945,-203.289 c 2.793,-0.375 5.289,-2.34 6.852,-4.598 0.933,-2.82 1.734,-5.711 2.336,-8.629 1.101,-5.754 1.351,-11.808 3.762,-17.218 0.632,-1.926 4.492,-5.242 5.363,-6.848" style="fill:none;stroke:#000000;stroke-width:3.60495;stroke-linecap:round;stroke-linejoin:round;stroke-miterlimit:10;stroke-dasharray:none;stroke-opacity:1" id="path288" sodipodi:nodetypes="ccccc" />
         </g>
         <g id="g290" transform="scale(1,-1)" style="stroke-width:0.918908">
            <path d="m 563.258,-240.582 c 2.273,-6.324 3.754,-12.895 5.269,-19.43" style="fill:none;stroke:#000000;stroke-width:3.60495;stroke-linecap:round;stroke-linejoin:round;stroke-miterlimit:10;stroke-dasharray:none;stroke-opacity:1" id="path292" />
         </g>
         <g id="g294" transform="scale(1,-1)" style="stroke-width:0.918908">
            <path d="m 545.785,-246.406 c 0.836,-5.61 2.692,-11.012 4.813,-16.254" style="fill:none;stroke:#000000;stroke-width:3.60495;stroke-linecap:round;stroke-linejoin:round;stroke-miterlimit:10;stroke-dasharray:none;stroke-opacity:1" id="path296" />
         </g>
         <g id="g298" transform="scale(1,-1)" style="stroke-width:0.918908">
            <path d="m 563.258,-240.582 c -2.773,-3.383 -11.649,-3.652 -15.629,-4.266" style="fill:none;stroke:#000000;stroke-width:3.60495;stroke-linecap:round;stroke-linejoin:round;stroke-miterlimit:10;stroke-dasharray:none;stroke-opacity:1" id="path300" sodipodi:nodetypes="cc" />
         </g>
         <g id="g302" transform="scale(1,-1)" style="stroke-width:0.918908">
            <path d="m 534.17334,-222.39152 c 2.809,-5.394 10.04566,-14.00348 12.26466,-19.67048" style="fill:none;stroke:#000000;stroke-width:3.60495;stroke-linecap:round;stroke-linejoin:round;stroke-miterlimit:10;stroke-dasharray:none;stroke-opacity:1" id="path304" sodipodi:nodetypes="cc" />
         </g>
         <g id="g306" transform="scale(1,-1)" style="stroke-width:0.918908">
            <path d="m 553.297,-263.168 c 4.269,2.695 9.625,1.547 14.207,3.246" style="fill:none;stroke:#000000;stroke-width:3.60495;stroke-linecap:round;stroke-linejoin:round;stroke-miterlimit:10;stroke-dasharray:none;stroke-opacity:1" id="path308" />
         </g>
         <g id="g310" transform="scale(1,-1)" style="stroke-width:0.918908">
            <path d="m 554.211,-268.863 c 2.465,-14.852 6.07,-30.539 19.336,-39.539 19.851,-18.657 14.617,-51.735 -1.203,-71.219 l -2.27,-1.801 -2.488,-1.476" style="fill:none;stroke:#000000;stroke-width:3.60495;stroke-linecap:round;stroke-linejoin:round;stroke-miterlimit:10;stroke-dasharray:none;stroke-opacity:1" id="path312" />
         </g>
         <g id="g314" transform="scale(1,-1)" style="stroke-width:0.918908">
            <path d="m 566.5,-265.012 c 4.449,-21.203 7.188,-42.847 8.211,-64.367 -2.934,-13.941 -7.215,-27.469 -8.293,-41.758 -3.777,-15.777 -23.176,-16.078 -35.203,-22.613 -4.957,-0.781 -13.914,-6.242 -16.883,0.371" style="fill:none;stroke:#000000;stroke-width:3.60495;stroke-linecap:round;stroke-linejoin:round;stroke-miterlimit:10;stroke-dasharray:none;stroke-opacity:1" id="path316" />
         </g>
         <g id="g318" transform="scale(1,-1)" style="stroke-width:0.918908">
            <path d="m 500.574,-293.543 h 0.004 v -0.012 l 0.02,-0.027 0.074,-0.027 0.039,-0.047 0.055,-0.035 0.039,-0.043 0.047,-0.047 0.043,-0.039 0.039,-0.055 0.039,-0.047 0.015,-0.039 0.043,-0.051 v -0.043 l 0.055,-0.07 0.066,-0.082 0.028,-0.09 0.039,-0.066 0.027,-0.071 0.031,-0.117 -0.074,-0.066 0.027,-0.078 0.067,-0.086 0.004,-0.094 0.023,-0.113 0.02,-0.074 0.023,-0.086 0.039,-0.102 0.016,-0.117 0.023,-0.129 0.028,-0.113 0.027,-0.102 0.027,-0.098 -0.035,-0.105 0.004,-0.121 0.074,-0.098 0.039,-0.101 0.055,-0.11 0.059,-0.094 0.043,-0.105 0.027,-0.109 0.051,-0.094 0.054,-0.106 0.047,-0.097 0.055,-0.09 0.074,-0.086 0.067,-0.102 0.07,-0.109 0.086,-0.09 0.07,-0.09 0.071,-0.101 0.085,-0.11 0.125,-0.093 0.071,-0.098 0.043,-0.086 0.058,-0.055 0.071,-0.066 0.078,-0.109 0.035,-0.098 0.016,-0.066 0.066,-0.075 0.09,-0.066 0.051,-0.102 0.062,-0.07 0.039,-0.047 0.133,-0.035 0.101,-0.035 -0.003,-0.035 0.031,-0.028 0.015,-0.011 0.036,-0.016 0.007,-0.027 0.032,-0.016 0.05,-0.012 0.012,0.004 h 0.016 l 0.027,0.004 0.027,-0.004 0.04,-0.004 h 0.07 l 0.019,-0.011 0.028,-0.004 h 0.011 l 0.024,0.015 0.023,0.004 -0.004,0.004 0.012,0.012 0.004,0.019 -0.004,0.024 -0.039,0.015 -0.023,0.024 0.031,0.019 0.031,0.04 0.02,0.039 0.015,0.035 0.028,0.054 0.015,0.024 0.02,0.078 0.015,0.055 0.02,0.054 -0.012,0.055 -0.019,0.066 0.011,0.075 -0.003,0.074 -0.016,0.051 -0.008,0.058 -0.008,0.051 -0.039,0.055 -0.015,0.07 -0.016,0.086 -0.008,0.07 -0.023,0.067 -0.012,0.062 -0.023,0.078 -0.028,0.086 -0.015,0.086 -0.008,0.059 -0.004,0.058 -0.004,0.071 0.047,0.062 0.019,0.067 -0.043,0.07 -0.011,0.086 -0.008,0.078 v 0.043 l -0.016,0.059 -0.008,0.078 0.016,0.066 v 0.074 l 0.004,0.078 0.004,0.075 0.004,0.078 0.051,0.078 0.019,0.078 -0.047,0.063 0.012,0.05 -0.004,0.059 -0.004,0.047 -0.062,0.051 -0.008,0.058 0.051,0.047 -0.008,0.074 -0.012,0.055 -0.008,0.074 -0.019,0.086 -0.059,0.082 -0.023,0.078 0.015,0.078 -0.019,0.09 -0.039,0.071 -0.039,0.058 -0.032,0.059 -0.035,0.058 -0.015,0.055 -0.032,0.023 -0.027,0.039 -0.031,0.079 -0.055,0.066 -0.109,0.055 -0.075,0.05 -0.023,0.036 -0.051,0.054 -0.058,0.039 -0.063,0.032 -0.066,0.035 -0.067,0.027 -0.058,0.039 -0.047,0.047 -0.109,0.063 -0.043,0.027 -0.067,0.027 -0.074,0.028 -0.051,0.043 -0.043,0.035 -0.047,0.023 -0.05,0.047 v 0.035 l -0.04,0.047 -0.066,0.035 -0.066,0.055 -0.067,0.062 -0.058,0.028 -0.055,0.015 -0.078,0.008 -0.082,0.024 -0.035,0.039 -0.055,-0.024 -0.055,0.008 -0.058,0.047 0.054,0.008" style="fill:none;stroke:#000000;stroke-width:3.60495;stroke-linecap:round;stroke-linejoin:round;stroke-miterlimit:10;stroke-dasharray:none;stroke-opacity:1" id="path320" />
         </g>
         <g id="g322" transform="scale(1,-1)" style="stroke-width:0.918908">
            <path d="m 490.953,-296.434 -0.004,-0.004 0.008,-0.011 0.031,-0.028 -0.004,-0.043 0.016,-0.015 0.008,-0.051 -0.016,-0.039 -0.015,-0.023 0.035,-0.04 0.011,-0.027 0.008,-0.027 0.02,-0.02 0.027,-0.008 0.031,-0.027 0.012,-0.012 v -0.011 0.015 l -0.004,0.024 -0.012,0.015 -0.019,0.024 -0.004,0.019 0.008,0.012 0.008,0.02 -0.024,0.007 -0.012,0.008 h -0.003 l 0.003,-0.008 v 0.012 l 0.012,0.004 0.016,0.004 -0.012,0.012 0.008,0.023 0.008,0.004 h 0.004 l 0.004,-0.016 0.043,-0.015 0.019,-0.008 0.004,-0.004 -0.008,-0.012 -0.012,0.008 -0.003,-0.008 -0.055,-0.004 -0.028,-0.004 0.024,0.004 0.012,-0.004 0.007,0.008 0.008,-0.008 0.039,-0.007 0.039,-0.004 h 0.008 l -0.004,-0.004 -0.015,0.015 0.015,0.02 0.024,0.004 h -0.02 l -0.019,0.004 -0.008,0.012 v 0.031 -0.004 l 0.016,-0.008 0.027,-0.008 -0.016,-0.004 v 0.016 l 0.004,0.004 0.031,0.019 0.047,0.028 0.028,0.008 0.023,0.015 0.023,0.035 0.028,0.043 0.043,0.047 -0.004,0.067 0.043,0.086 0.086,0.093 0.07,0.125 0.055,0.11 0.031,0.097 0.023,0.106 0.032,0.109 0.047,0.106 0.039,0.074 0.031,0.086 0.059,0.101 0.046,0.106 0.02,0.098 0.027,0.093 0.031,0.078 0.028,0.067 0.039,0.054 0.031,0.09 0.031,0.082 0.008,0.082 0.024,0.067 0.039,0.058 0.031,0.02 0.023,0.035 0.012,0.039 -0.016,0.063 0.032,0.066 0.058,0.055 0.036,0.051 0.027,0.078 0.015,0.101 0.09,0.106 0.071,0.105 0.004,0.117 0.007,0.133 0.004,0.156 0.039,0.125 0.024,0.125 -0.004,0.133 0.027,0.145 0.043,0.14 0.031,0.153 0.063,0.273 0.078,0.125 0.051,0.133 -0.004,0.137 0.023,0.129 0.028,0.128 0.023,0.118 0.012,0.132 0.039,0.122 0.043,0.132 0.019,0.141 0.024,0.141 0.031,0.144 0.008,0.133 0.008,0.121 0.035,0.133 0.043,0.121 0.035,0.121 0.031,0.129 0.032,0.137 0.015,0.144 0.043,0.125 0.051,0.137 0.019,0.113 0.028,0.125 0.031,0.137 0.035,0.109 0.028,0.098 0.011,0.102 0.024,0.109 0.027,0.094 0.008,0.101 0.035,0.086 -0.008,0.074 v 0.075 l 0.031,0.074 0.043,0.074 0.047,0.059 0.035,0.066 0.039,0.074 0.036,0.078 0.015,0.067 0.028,0.074 0.027,0.09 0.047,0.09 0.019,0.09 0.059,0.085 0.039,0.094 0.004,0.094 0.023,0.117 0.047,0.11 0.051,0.085 0.078,0.098 0.035,0.121 0.004,0.125 0.074,0.133 0.071,0.125 0.058,0.133 0.063,0.16 0.144,0.156 0.121,0.153 0.043,0.156 0.067,0.183 0.086,0.176 0.09,0.153 0.074,0.14 0.113,0.129 0.102,0.149 0.082,0.148 0.09,0.156 0.097,0.156 0.09,0.137 0.105,0.137 0.098,0.129 0.078,0.137 0.086,0.121 0.09,0.101 0.066,0.106 0.051,0.074 0.094,0.07 0.117,0.086 0.07,0.07 0.059,0.079 0.063,0.074 0.078,0.039 0.039,0.062 0.051,0.047 0.078,0.043 0.062,0.047 0.055,0.043 0.055,0.027 0.039,0.043 0.031,0.024 0.055,0.019 0.054,0.024 0.031,0.035 0.047,0.023 0.067,0.028 0.058,0.023 0.024,0.027 0.027,0.024 0.031,0.031 0.039,0.024 0.032,0.011 0.039,0.008 0.035,0.02 0.047,0.019 0.066,0.028 0.051,0.031 0.055,0.012 0.086,0.023 0.066,0.008 0.027,0.008 0.059,0.011 0.141,0.032 0.058,0.019 0.145,0.027 0.129,0.016 0.043,0.051 0.082,0.047 0.101,0.023 0.098,0.02 0.113,0.011 0.098,0.028 0.101,0.027 0.125,0.043 0.129,-0.016 h 0.129 l 0.121,0.016 h 0.367 l 0.082,-0.008 0.094,-0.004 0.106,-0.015 0.105,-0.028 0.067,-0.035 0.086,-0.031 0.082,-0.004 0.093,-0.027 0.106,-0.032 0.035,-0.019 0.055,-0.027 0.035,-0.012 0.043,-0.024 0.074,-0.027 0.059,-0.035 0.062,-0.012 0.055,-0.008 0.054,-0.023 0.067,-0.023 0.058,-0.008 0.039,-0.02 0.032,0.012 h 0.027 l 0.043,-0.012 h 0.031 l 0.02,-0.008 0.027,-0.004 0.024,0.016 0.023,0.008 0.027,0.008 -0.007,0.015 0.027,-0.004 h 0.016 l 0.019,0.012 0.027,-0.004 0.059,-0.004 0.051,-0.023 0.011,0.008" style="fill:none;stroke:#000000;stroke-width:3.60495;stroke-linecap:round;stroke-linejoin:round;stroke-miterlimit:10;stroke-dasharray:none;stroke-opacity:1" id="path324" />
         </g>
         <g id="g326" transform="scale(1,-1)" style="stroke-width:0.918908">
            <path d="m 491.121,-296.82 c 10.402,-10.644 17.395,-28.496 22.457,-41.961 6.102,-11.828 8.395,-31.028 -5.414,-38.332 -7.469,-4.539 -17.199,-4.34 -23.594,-10.762" style="fill:none;stroke:#000000;stroke-width:3.60495;stroke-linecap:round;stroke-linejoin:round;stroke-miterlimit:10;stroke-dasharray:none;stroke-opacity:1" id="path328" sodipodi:nodetypes="cccc" />
         </g>
         <g id="g330" transform="scale(1,-1)" style="stroke-width:0.918908">
            <path d="m 508.734,-285.406 c 6.617,-12.024 17.942,-27.207 18.688,-41.707 3.504,-12.809 10.844,-28.699 0.058,-40.129 -6.503,-10.656 -14.863,-20.567 -28.839,-18.981 -15.481,1.649 -23.153,-15.437 0.324,-13.507" style="fill:none;stroke:#000000;stroke-width:3.60495;stroke-linecap:round;stroke-linejoin:round;stroke-miterlimit:10;stroke-dasharray:none;stroke-opacity:1" id="path332" sodipodi:nodetypes="ccccc" />
         </g>
         <g id="g334" transform="scale(1,-1)" style="stroke-width:0.918908">
            <path d="m 393.492,-127.844 c -0.898,-1.097 -3.972,-2.383 -5.488,-3.906 -3.641,-3.734 2.082,-6.281 5.187,-7.754 4.399,-2.808 9.621,-4.062 14.106,-6.707 3.527,-1.547 6.891,-3.41 10.492,-4.777 5.449,-1.828 10.848,-3.957 16.109,-6.168 4.274,-1.489 8.614,-2.582 12.793,-4.418 2.129,-1.059 5.653,-1.625 7.196,-2.422" style="fill:none;stroke:#000000;stroke-width:2.40329;stroke-linecap:round;stroke-linejoin:round;stroke-miterlimit:10;stroke-dasharray:none;stroke-opacity:1" id="path336" />
         </g>
         <g id="g338" transform="scale(1,-1)" style="stroke-width:0.918908">
            <path d="m 380.609,-127.004 c -0.285,-1.418 -2.882,-1.883 -3.824,-3.258 -1.941,-1.308 -3.34,-3.152 -5.015,-4.722 -1.282,-1.582 -3.231,-1.379 -5.051,-1.465 -2.516,-0.09 -5.098,0.25 -7.559,-0.297" style="fill:none;stroke:#000000;stroke-width:2.40329;stroke-linecap:round;stroke-linejoin:round;stroke-miterlimit:10;stroke-dasharray:none;stroke-opacity:1" id="path340" />
         </g>
         <g id="g342" transform="scale(1,-1)" style="stroke-width:0.918908">
            <path d="m 365.875,-142.684 c 9.605,-3.078 18.449,-8.109 27.441,-12.609 7.836,-4.75 17,-6.566 24.965,-11.09 7.067,-2.344 13.965,-5.16 20.821,-8.043 l -0.282,0.008" style="fill:none;stroke:#000000;stroke-width:2.40329;stroke-linecap:round;stroke-linejoin:round;stroke-miterlimit:10;stroke-dasharray:none;stroke-opacity:1" id="path344" />
         </g>
         <g id="g346" transform="scale(1,-1)" style="stroke-width:0.918908">
            <path d="m 373.98,-150.543 c -2.953,-2.879 -6.972,-4.172 -9.933,-7.066 -2.606,-2.223 -5.457,-4.235 -7.102,-7.352 -2.609,-3.996 -4.765,-8.242 -5.976,-12.879 -1.203,-4.133 -3.196,-8.047 -3.438,-12.418 -1.027,-2.863 0.719,-6.801 -1.078,-9.097" style="fill:none;stroke:#000000;stroke-width:2.40329;stroke-linecap:round;stroke-linejoin:round;stroke-miterlimit:10;stroke-dasharray:none;stroke-opacity:1" id="path348" />
         </g>
         <g id="g350" transform="scale(1,-1)" style="stroke-width:0.918908">
            <path d="m 318.941,-187.02 c 0.09,1.821 0.524,3.422 0.664,5.254 0.735,2.164 0.207,4.524 0.852,6.704 0.387,2.093 0.25,4.933 2.207,6.218 1.789,0.926 4.82,1 5.547,-1.308 1.637,-1.559 1.059,-3.364 0.477,-5.243 -0.731,-3.257 -2.239,-6.507 -1.668,-9.914 0.003,-1.964 0.597,-5.14 -1.032,-6.199 -2.172,0.867 -4.519,1.828 -6.008,3.707 l -0.062,0.211 -0.215,0.285" style="fill:none;stroke:#000000;stroke-width:2.40329;stroke-linecap:round;stroke-linejoin:round;stroke-miterlimit:10;stroke-dasharray:none;stroke-opacity:1" id="path352" />
         </g>
         <g id="g354" transform="scale(1,-1)" style="stroke-width:0.918908">
            <path d="m 320.672,-184.266 c 1.308,0.266 2.535,-0.539 3.836,-0.601 0.304,0.008 0.781,-0.203 0.98,0.125" style="fill:none;stroke:#000000;stroke-width:2.40329;stroke-linecap:round;stroke-linejoin:round;stroke-miterlimit:10;stroke-dasharray:none;stroke-opacity:1" id="path356" />
         </g>
         <g id="g358" transform="scale(1,-1)" style="stroke-width:0.918908">
            <path d="m 321.695,-176.363 c 0.2,-1.418 1.977,-0.653 2.879,-1.098 0.379,-0.105 0.754,-0.219 1.145,-0.262" style="fill:none;stroke:#000000;stroke-width:2.40329;stroke-linecap:round;stroke-linejoin:round;stroke-miterlimit:10;stroke-dasharray:none;stroke-opacity:1" id="path360" />
         </g>
         <g id="g362" transform="scale(1,-1)" style="stroke-width:0.918908">
            <path d="m 322.875,-225.625 c 11.492,-7.449 23.742,-16.516 34.219,-25.316 4.133,-2.567 10.664,-8.352 13.015,-11.789" style="fill:none;stroke:#000000;stroke-width:2.40329;stroke-linecap:round;stroke-linejoin:round;stroke-miterlimit:10;stroke-dasharray:none;stroke-opacity:1" id="path364" />
         </g>
         <g id="g366" transform="scale(1,-1)" style="stroke-width:0.918908">
            <path d="m 369.746,-263.035 c -11.609,-7.977 -19.781,-19.828 -30.808,-28.535 -9.372,-9.043 -17.911,-18.969 -27.61,-27.676 -0.691,-0.203 -3.547,-3.246 -3.551,-1.465" style="fill:none;stroke:#000000;stroke-width:2.40329;stroke-linecap:round;stroke-linejoin:round;stroke-miterlimit:10;stroke-dasharray:none;stroke-opacity:1" id="path368" />
         </g>
         <g id="g370" transform="scale(1,-1)" style="stroke-width:0.918908">
            <path d="m 322.688,-225.711 c -5.747,-1.078 -10.762,-6.766 -16.211,-9.707 -6.27,-3.605 -11.465,-8.809 -16.653,-13.828 -6.449,-5.418 -12.851,-10.856 -19.781,-15.668 -1.902,-3.43 -15.074,-10.117 -13.637,-12.844" style="fill:none;stroke:#000000;stroke-width:2.40329;stroke-linecap:round;stroke-linejoin:round;stroke-miterlimit:10;stroke-dasharray:none;stroke-opacity:1" id="path372" />
         </g>
         <g id="g374" transform="scale(1,-1)" style="stroke-width:0.918908">
            <path d="m 256.879,-278.262 c 8.328,-8.402 18.683,-16.011 26.586,-24.894 6.64,-5.965 12.387,-12.91 19.59,-18.16 1.761,-0.258 3.867,-0.965 5.496,0.078" style="fill:none;stroke:#000000;stroke-width:2.40329;stroke-linecap:round;stroke-linejoin:round;stroke-miterlimit:10;stroke-dasharray:none;stroke-opacity:1" id="path376" />
         </g>
         <g id="g378" transform="scale(1,-1)" style="stroke-width:0.918908">
            <path d="m 259.48,-308.77 v -0.046 l 0.008,0.011 v -0.035 l 0.024,-0.023 0.004,-0.012 0.023,-0.035 0.008,-0.039 0.008,-0.016 v -0.008 l -0.008,-0.019 0.019,-0.012 -0.004,-0.008 -0.015,-0.019 0.031,-0.008 0.016,-0.031 0.008,-0.035 0.027,-0.032 0.008,-0.023 0.07,-0.047 0.082,-0.043 0.016,-0.02 0.007,-0.027 0.024,-0.023 0.039,-0.028 0.059,-0.07 -0.028,-0.059 0.02,-0.05 0.097,-0.035 0.102,-0.063 0.09,-0.066 0.09,-0.055 0.097,-0.059 0.067,-0.078 0.062,-0.055 0.09,-0.07 0.082,-0.07 0.09,-0.067 0.09,-0.046 0.152,-0.086 0.141,-0.11 0.047,-0.086 0.097,-0.082 0.09,-0.086 0.098,-0.097 0.043,-0.11 -0.008,-0.078 0.086,-0.09 0.168,-0.089 0.129,-0.09 0.121,-0.102 0.121,-0.023 0.18,-0.047 0.148,-0.137 0.098,-0.105 0.054,-0.079 0.043,-0.066 0.098,-0.078 0.031,-0.09 0.067,-0.09 0.136,-0.035 0.129,-0.039 0.102,-0.062 0.109,-0.079 0.114,-0.062 0.132,-0.039 0.094,-0.055 0.063,-0.062 0.093,-0.055 0.071,-0.055 0.066,-0.054 0.07,-0.071 0.094,-0.058 0.067,-0.078 0.027,-0.055 0.043,-0.024 0.039,-0.023 0.012,-0.031 0.015,-0.039 0.028,-0.024 0.023,-0.027 0.024,-0.008 h 0.015 l 0.016,-0.027 -0.059,-0.016 -0.027,0.008 h 0.058 v 0.008 l 0.024,0.004 0.035,-0.004 0.016,0.004 -0.004,-0.008 v 0.008 l 0.011,0.011 0.032,-0.019 -0.075,-0.016 -0.019,-0.023 0.059,-0.016 0.062,-0.047 0.059,-0.05" style="fill:none;stroke:#000000;stroke-width:2.40329;stroke-linecap:round;stroke-linejoin:round;stroke-miterlimit:10;stroke-dasharray:none;stroke-opacity:1" id="path380" />
         </g>
         <g id="g382" transform="scale(1,-1)" style="stroke-width:0.918908">
            <path d="m 258.867,-309.082 v 0.316 l 0.031,-0.019 0.004,-0.024 0.004,-0.039 0.028,-0.015 0.004,-0.028 -0.059,-0.019 0.019,-0.039 0.098,-0.035 0.066,-0.055 0.055,-0.047 0.031,-0.047 0.067,-0.062 0.035,-0.059 0.07,-0.062 0.114,-0.071 0.105,-0.093 0.129,-0.082 0.125,-0.075 0.148,-0.105 0.297,-0.117 0.223,-0.129 0.07,-0.102 0.125,-0.098 0.145,-0.113 0.152,-0.156 0.051,-0.148 0.117,-0.098 0.223,-0.129 0.195,-0.145 0.176,-0.128 0.156,-0.102 0.231,-0.109 0.226,-0.137 0.102,-0.133 0.125,-0.105 0.117,-0.11 0.101,-0.117 0.122,-0.125 0.109,-0.105 0.121,-0.059 0.133,-0.09 0.137,-0.101 0.132,-0.102 0.133,-0.098 0.168,-0.09 0.086,-0.109 0.059,-0.086 0.14,-0.078 0.145,-0.09 0.16,-0.101 0.133,-0.09 0.199,-0.098 0.191,-0.109 0.086,-0.117 0.149,-0.11 0.144,-0.129 0.168,-0.129 0.192,-0.14 0.183,-0.164 0.188,-0.145 0.199,-0.152 0.211,-0.156 0.199,-0.161 0.18,-0.144 0.211,-0.129 0.246,-0.133 0.215,-0.148 0.203,-0.145 0.223,-0.156 0.234,-0.188 0.293,-0.164 0.281,-0.164 0.231,-0.175 0.211,-0.176 0.199,-0.16 0.191,-0.157 0.168,-0.136 0.227,-0.125 0.179,-0.125 0.071,-0.118 0.093,-0.074 0.086,-0.07 0.086,-0.106 0.016,-0.074 0.039,-0.015 0.094,-0.043 0.062,-0.051 0.063,-0.02 0.039,0.012 h 0.203 -0.07 l -0.032,0.031 -0.019,-0.035 h -0.125 l -0.035,0.031 0.043,0.004 0.007,0.004 h 0.008 l 0.004,0.012 0.09,-0.008 0.02,-0.008" style="fill:none;stroke:#000000;stroke-width:2.40329;stroke-linecap:round;stroke-linejoin:round;stroke-miterlimit:10;stroke-dasharray:none;stroke-opacity:1" id="path384" />
         </g>
         <g id="g386" transform="scale(1,-1)" style="stroke-width:0.918908">
            <path d="m 261.809,-306.004 0.007,-0.004 0.036,-0.008 0.07,-0.039 0.043,-0.07 0.082,-0.059 0.082,-0.054 0.086,-0.051 0.125,-0.09 0.027,-0.098 0.059,-0.039 0.066,-0.058 0.031,-0.071 0.059,-0.066 0.051,-0.09 0.078,-0.082 0.082,-0.074 0.082,-0.082 0.086,-0.106 0.101,-0.097 0.094,-0.11 0.125,-0.097 0.055,-0.117 0.066,-0.102 0.149,-0.109 0.133,-0.137 0.117,-0.133 0.117,-0.121 0.18,-0.121 0.156,-0.129 0.09,-0.109 0.113,-0.121 0.277,-0.278 0.114,-0.148 0.066,-0.133 0.141,-0.137 0.215,-0.144 0.203,-0.16 0.175,-0.149 0.18,-0.113 0.301,-0.133 0.246,-0.203 0.129,-0.188 0.156,-0.164 0.156,-0.16 0.188,-0.187 0.133,-0.18 0.175,-0.141 0.223,-0.16 0.203,-0.164 0.219,-0.168 0.211,-0.168 0.23,-0.14 0.102,-0.102 0.16,-0.117 0.285,-0.121 0.235,-0.145 0.226,-0.133 0.196,-0.128 0.16,-0.133 0.172,-0.117 0.183,-0.114 0.145,-0.129 0.144,-0.117 0.153,-0.109 0.156,-0.129 0.058,-0.11 0.086,-0.085 0.188,-0.098 0.195,-0.133 0.168,-0.121 0.145,-0.109 0.175,-0.11 0.165,-0.101 0.14,-0.11 0.156,-0.109 0.157,-0.098 0.148,-0.074 0.176,-0.098 0.16,-0.109 0.16,-0.094 0.16,-0.086 0.176,-0.101 0.176,-0.11 0.176,-0.129 0.199,-0.105 0.187,-0.102 0.137,-0.113 0.149,-0.097 0.148,-0.094 0.129,-0.094 0.094,-0.074 0.082,-0.078 0.109,-0.063 0.121,-0.062 0.094,-0.055 0.098,-0.035 0.07,-0.012 0.129,-0.027 0.105,-0.043 -0.011,-0.004 0.015,-0.008 0.004,0.004 h -0.012 l -0.086,0.008 -0.093,0.011 v 0.004 l 0.015,0.008 -0.004,0.028 -0.007,0.023" style="fill:none;stroke:#000000;stroke-width:2.40329;stroke-linecap:round;stroke-linejoin:round;stroke-miterlimit:10;stroke-dasharray:none;stroke-opacity:1" id="path388" />
         </g>
         <g id="g390" transform="scale(1,-1)" style="stroke-width:0.918908">
            <path d="m 390.977,-192.336 c 4.906,-2.055 9.804,-4.129 14.695,-6.211 1.953,-0.879 3.851,-1.887 5.699,-2.961" style="fill:none;stroke:#000000;stroke-width:2.40329;stroke-linecap:round;stroke-linejoin:round;stroke-miterlimit:10;stroke-dasharray:none;stroke-opacity:1" id="path392" />
         </g>
         <g id="g394" transform="scale(1,-1)" style="stroke-width:0.918908">
            <path d="m 412.086,-203.816 c -1,-3.942 -2.461,-7.739 -3.633,-11.625 -0.242,-0.621 -0.496,-1.243 -0.836,-1.821" style="fill:none;stroke:#000000;stroke-width:2.40329;stroke-linecap:round;stroke-linejoin:round;stroke-miterlimit:10;stroke-dasharray:none;stroke-opacity:1" id="path396" />
         </g>
         <g id="g398" transform="scale(1,-1)" style="stroke-width:0.918908">
            <path d="m 383.766,-207.684 c 6.562,-1.66 11.781,-6.386 18.23,-8.351 1.871,-0.77 3.703,-1.645 5.609,-2.336" style="fill:none;stroke:#000000;stroke-width:2.40329;stroke-linecap:round;stroke-linejoin:round;stroke-miterlimit:10;stroke-dasharray:none;stroke-opacity:1" id="path400" />
         </g>
         <g id="g402" transform="scale(1,-1)" style="stroke-width:0.918908">
            <path d="m 387.477,-193.285 c 1.074,-2.473 -0.797,-5.477 -1.161,-8.106 -0.738,-1.953 -1.156,-4.336 -1.519,-6.066" style="fill:none;stroke:#000000;stroke-width:2.40329;stroke-linecap:round;stroke-linejoin:round;stroke-miterlimit:10;stroke-dasharray:none;stroke-opacity:1" id="path404" />
         </g>
         <g id="g406" transform="scale(1,-1)" style="stroke-width:0.918908">
            <path d="m 361.551,-157.195 c -0.961,1.261 -2.61,1.699 -3.731,2.8 -2.043,1.579 -4.683,2.325 -6.449,4.25 -1.848,1.2 -3.953,1.911 -5.84,3.043 1.313,0.368 2.301,1.563 3.469,2.278 1.098,1.222 2.852,1.457 4.043,2.586 0.269,0.445 0.324,1.422 1.066,1.297" style="fill:none;stroke:#000000;stroke-width:2.40329;stroke-linecap:round;stroke-linejoin:round;stroke-miterlimit:10;stroke-dasharray:none;stroke-opacity:1" id="path408" />
         </g>
         <g id="g410" transform="scale(1,-1)" style="stroke-width:0.918908">
            <path d="m 346.145,-139.172 c 1.214,-0.308 2.609,-1.476 3.781,-1.293" style="fill:none;stroke:#000000;stroke-width:2.40329;stroke-linecap:round;stroke-linejoin:round;stroke-miterlimit:10;stroke-dasharray:none;stroke-opacity:1" id="path412" />
         </g>
         <g id="g414" transform="scale(1,-1)" style="stroke-width:0.918908">
            <path d="m 352.191,-139.281 c 1.2,-0.375 1.696,1.113 2.68,1.39" style="fill:none;stroke:#000000;stroke-width:2.40329;stroke-linecap:round;stroke-linejoin:round;stroke-miterlimit:10;stroke-dasharray:none;stroke-opacity:1" id="path416" />
         </g>
         <g id="g418" transform="scale(1,-1)" style="stroke-width:0.918908">
            <path d="m 507.762,-141.777 c -1.871,-1.496 -3.953,-2.715 -5.739,-4.321" style="fill:none;stroke:#000000;stroke-width:2.40329;stroke-linecap:round;stroke-linejoin:round;stroke-miterlimit:10;stroke-dasharray:none;stroke-opacity:1" id="path420" />
         </g>
         <g id="g422" transform="scale(1,-1)" style="stroke-width:0.918908">
            <path d="m 507.656,-147.637 c -1.121,-0.734 -2.054,-1.718 -2.828,-2.804" style="fill:none;stroke:#000000;stroke-width:2.40329;stroke-linecap:round;stroke-linejoin:round;stroke-miterlimit:10;stroke-dasharray:none;stroke-opacity:1" id="path424" />
         </g>
         <g id="g426" transform="scale(1,-1)" style="stroke-width:0.918908">
            <path d="m 511.547,-153.355 c -1.543,-0.813 -2.645,-2.211 -3.945,-3.333" style="fill:none;stroke:#000000;stroke-width:2.40329;stroke-linecap:round;stroke-linejoin:round;stroke-miterlimit:10;stroke-dasharray:none;stroke-opacity:1" id="path428" />
         </g>
         <g id="g430" transform="scale(1,-1)" style="stroke-width:0.918908">
            <path d="m 514.246,-159.078 c -1.121,-0.949 -2.351,-1.867 -3.031,-3.207" style="fill:none;stroke:#000000;stroke-width:2.40329;stroke-linecap:round;stroke-linejoin:round;stroke-miterlimit:10;stroke-dasharray:none;stroke-opacity:1" id="path432" />
         </g>
         <g id="g434" transform="scale(1,-1)" style="stroke-width:0.918908">
            <path d="m 516.844,-164.129 c -0.379,-0.656 -2.266,-1.773 -0.785,-2.433" style="fill:none;stroke:#000000;stroke-width:2.40329;stroke-linecap:round;stroke-linejoin:round;stroke-miterlimit:10;stroke-dasharray:none;stroke-opacity:1" id="path436" />
         </g>
         <g id="g438" transform="scale(1,-1)" style="stroke-width:0.918908">
            <path d="m 521.051,-166.926 c -0.555,-0.562 -1.422,-1.715 -0.489,-2.359" style="fill:none;stroke:#000000;stroke-width:2.40329;stroke-linecap:round;stroke-linejoin:round;stroke-miterlimit:10;stroke-dasharray:none;stroke-opacity:1" id="path440" />
         </g>
         <g id="g442" transform="scale(1,-1)" style="stroke-width:0.918908">
            <path d="m 525.812,-168.566 c -0.808,-0.442 -1.355,-1.336 -1.351,-2.262" style="fill:none;stroke:#000000;stroke-width:2.40329;stroke-linecap:round;stroke-linejoin:round;stroke-miterlimit:10;stroke-dasharray:none;stroke-opacity:1" id="path444" />
         </g>
         <g id="g446" transform="scale(1,-1)" style="stroke-width:0.918908">
            <path d="m 534.668,-114.816 c 3.945,1.265 8.266,0.125 11.367,-2.547 3.875,-2.782 7.723,-5.86 10.113,-10.067 1.993,-2.918 3.231,-6.289 4.758,-9.461 1.059,-3.886 3.465,-8.07 1.778,-12.121 -0.375,-0.703 -0.829,-1.664 -1.543,-2.019" style="fill:none;stroke:#000000;stroke-width:2.40329;stroke-linecap:round;stroke-linejoin:round;stroke-miterlimit:10;stroke-dasharray:none;stroke-opacity:1" id="path448" />
         </g>
         <g id="g450" transform="scale(1,-1)" style="stroke-width:0.918908">
            <path d="m 532.969,-123.391 c 0.926,-5.82 4.609,-10.593 7.136,-15.777 3.098,-4.836 6.77,-9.703 12.153,-12.121 0.711,-0.473 1.418,-0.859 2.238,-1.125" style="fill:none;stroke:#000000;stroke-width:2.40329;stroke-linecap:round;stroke-linejoin:round;stroke-miterlimit:10;stroke-dasharray:none;stroke-opacity:1" id="path452" />
         </g>
         <g id="g454" transform="scale(1,-1)" style="stroke-width:0.918908">
            <path d="m 532.062,-180.777 c -0.757,-0.207 -1.679,-2.325 -2.808,-2.993 -2.106,-1.792 -3.555,-4.261 -5.848,-5.855 -0.558,-0.473 -1.023,-1.109 -1.105,-1.855" style="fill:none;stroke:#000000;stroke-width:2.40329;stroke-linecap:round;stroke-linejoin:round;stroke-miterlimit:10;stroke-dasharray:none;stroke-opacity:1" id="path456" />
         </g>
         <g id="g458" transform="scale(1,-1)" style="stroke-width:0.918908">
            <path d="m 520.699,-195.293 c 0.219,1.406 1.129,-1.832 2.113,-0.652 1.446,0.761 2.989,1.613 3.825,3.082 1.117,2.031 3.207,3.144 4.863,4.652 0.574,0.734 1.27,1.191 2.078,1.145" style="fill:none;stroke:#000000;stroke-width:2.40329;stroke-linecap:round;stroke-linejoin:round;stroke-miterlimit:10;stroke-dasharray:none;stroke-opacity:1" id="path460" />
         </g>
         <g id="g462" transform="scale(1,-1)" style="stroke-width:0.918908">
            <path d="m 524.352,-201.75 -0.04,0.039 -0.05,0.078 -0.051,0.121 -0.082,0.141 -0.004,0.125 -0.016,0.137 -0.089,0.14 -0.051,0.133 -0.047,0.148 -0.039,0.118 -0.055,0.129 -0.043,0.132 v 0.129 l -0.023,0.129 -0.024,0.121 -0.023,0.11 0.012,0.113 0.023,0.125 -0.047,0.117 -0.058,0.129 -0.016,0.121 -0.024,0.141 -0.043,0.125 -0.078,0.113 -0.031,0.145 0.016,0.109 v 0.078 l -0.012,0.086 v 0.102 l 0.02,0.117 -0.004,0.125 -0.032,0.117 -0.003,0.113 v 0.125 l -0.016,0.137 -0.024,0.109 0.012,0.082 0.004,0.098 -0.031,0.09 -0.008,0.074 -0.023,0.074 -0.008,0.09 0.011,0.067 -0.023,0.027 -0.016,0.019 -0.011,-0.023 v -0.016 l -0.039,-0.015 0.015,-0.024 0.012,-0.023 0.019,-0.024 v -0.078 l 0.04,-0.031 0.007,-0.055 -0.011,-0.047 -0.012,-0.058 0.008,-0.047 0.015,-0.074 -0.011,-0.074 0.015,-0.106" style="fill:none;stroke:#000000;stroke-width:2.40329;stroke-linecap:round;stroke-linejoin:round;stroke-miterlimit:10;stroke-dasharray:none;stroke-opacity:1" id="path464" />
         </g>
         <g id="g466" transform="scale(1,-1)" style="stroke-width:0.918908">
            <path d="m 523.125,-199.328 0.008,-0.008 v -0.047 l -0.059,-0.051 -0.035,-0.07 -0.031,-0.07 -0.043,-0.067 -0.086,-0.035 -0.031,-0.051 0.015,-0.039 v -0.058 l -0.027,-0.047 -0.004,-0.07 -0.012,-0.043 0.02,-0.024 -0.012,-0.058 -0.019,-0.063 0.011,-0.078 0.004,-0.07 0.008,-0.09 -0.055,-0.086 -0.011,-0.109 0.066,-0.114 0.023,-0.109 0.024,-0.137 0.031,-0.152 0.024,-0.145 -0.016,-0.121 0.016,-0.125 0.043,-0.113 0.015,-0.121 0.012,-0.11 0.043,-0.109 0.051,-0.129 0.004,-0.125 0.011,-0.101 0.024,-0.079 0.027,-0.078 0.008,-0.093 0.043,-0.09 0.015,-0.078 -0.007,-0.079 -0.004,-0.058 -0.004,-0.067 -0.024,-0.054 0.004,-0.071 0.012,-0.054 -0.019,-0.067 0.007,-0.074 v -0.043 l -0.019,-0.043 -0.008,-0.035 0.051,-0.055 -0.004,-0.058 -0.059,-0.035 -0.031,-0.043 -0.02,-0.047 -0.015,-0.02 -0.059,-0.039 -0.023,-0.066 v -0.043 l -0.039,-0.047 -0.039,-0.059 -0.047,-0.05 -0.039,-0.059 -0.004,-0.047 -0.028,-0.039 -0.074,-0.051 -0.047,-0.078 -0.043,-0.047 -0.05,-0.039 -0.063,-0.035 -0.027,-0.055 -0.035,-0.066 -0.067,-0.066 -0.066,-0.047 -0.055,-0.039 -0.043,-0.051 -0.14,-0.039 -0.11,-0.063 0.004,-0.039 -0.047,-0.031 -0.043,-0.055 -0.047,-0.043 -0.062,-0.047 -0.074,-0.007 -0.051,-0.024 -0.039,-0.019 -0.063,-0.024 -0.062,0.016 -0.047,-0.016 -0.07,-0.012 -0.086,-0.035 -0.067,-0.007 -0.054,-0.02 -0.055,-0.004 -0.063,-0.019 -0.058,-0.004 -0.059,-0.02 -0.054,-0.039 -0.043,-0.035 -0.051,-0.016 -0.051,-0.023 -0.051,-0.028 -0.07,-0.031 -0.047,-0.035 -0.039,-0.031 -0.059,-0.031 -0.027,-0.028 -0.039,0.004 0.02,-0.035 -0.032,-0.023 -0.109,-0.008 -0.039,-0.043 -0.055,-0.012 -0.058,-0.008 -0.094,-0.031 -0.078,-0.063 -0.078,-0.043 -0.086,-0.035 -0.079,-0.039 -0.085,-0.035 -0.106,-0.047 -0.027,-0.051 -0.074,-0.035 -0.129,-0.035 -0.114,-0.035 -0.097,-0.043 -0.102,-0.019 -0.133,-0.028 -0.129,-0.043 -0.062,-0.058 -0.039,-0.043 -0.067,-0.032 -0.078,-0.05 -0.058,-0.036 -0.125,-0.027 -0.094,-0.039 -0.043,-0.035 -0.063,-0.024 -0.062,-0.046 -0.059,-0.051 -0.062,-0.031 -0.078,-0.036 -0.043,-0.047 -0.067,-0.035 -0.062,-0.035 -0.039,-0.031 -0.031,-0.027 -0.055,-0.043 -0.074,-0.016 -0.043,-0.031 -0.047,-0.035 -0.039,-0.036 -0.032,-0.046 -0.042,-0.02 -0.036,-0.012 -0.023,-0.015 -0.023,-0.008 0.011,-0.039 -0.015,-0.008 -0.016,0.027 0.008,0.012 0.012,0.027 0.011,0.004 0.008,0.043 0.027,0.012 0.024,0.023 h 0.004 l 0.008,-0.003 0.003,0.007 h 0.004 l 0.024,-0.004 -0.004,-0.003 -0.024,-0.004 h -0.007 v 0.011 -0.015 l 0.058,-0.012 h 0.035 l -0.047,-0.004 -0.023,-0.004 -0.008,-0.004 -0.011,0.012 -0.063,0.016 0.016,-0.024 0.035,-0.023 -0.028,-0.004 h -0.031 l 0.004,-0.012 v 0.008 l -0.008,0.031 0.004,-0.012 h 0.004 v 0.004 l -0.008,0.004 -0.004,-0.004 -0.011,-0.004 -0.008,0.012 h 0.012 l 0.011,0.004 -0.004,0.008 0.004,0.004 h -0.015 l -0.012,0.012 h -0.004 l -0.004,0.015 -0.019,0.051" style="fill:none;stroke:#000000;stroke-width:2.40329;stroke-linecap:round;stroke-linejoin:round;stroke-miterlimit:10;stroke-dasharray:none;stroke-opacity:1" id="path468" />
         </g>
         <g id="g470" transform="scale(1,-1)" style="stroke-width:0.918908">
            <path d="m 516.531,-204.848 0.004,0.012 -0.008,0.02 -0.015,0.035 -0.028,0.023 -0.144,0.02 -0.067,-0.016 0.079,0.035 0.007,0.004 0.004,-0.004 0.008,0.012 0.008,0.023 0.016,0.032 0.011,0.027 h 0.012 v 0.004 l 0.004,0.012 v 0.023 h -0.004 l -0.004,0.004 0.004,0.02 0.004,0.027 0.004,0.023 0.004,0.039 0.035,0.035 -0.004,0.071 -0.027,0.082 0.011,0.078 -0.004,0.082 v 0.164 l 0.063,0.07 0.023,0.114 -0.035,0.097 -0.004,0.106 -0.023,0.109 0.012,0.11 -0.004,0.121 v 0.23 l -0.004,0.125 v 0.141 l 0.035,0.097 0.027,0.114 0.012,0.117 0.012,0.121 0.007,0.121 0.004,0.121 0.004,0.102 0.02,0.093 0.008,0.075 0.019,0.062 0.012,0.067 -0.012,0.089 0.016,0.063 0.019,0.058 -0.007,0.075 -0.004,0.078 0.015,0.078 0.004,0.078 v 0.094 l -0.023,0.074 0.011,0.078 -0.066,0.098 -0.027,0.097 0.047,0.083 0.007,0.093 0.004,0.098 -0.015,0.098 0.019,0.097 0.035,0.09 v 0.094 l -0.011,0.09 v 0.187 l 0.015,0.055 -0.07,0.062 -0.027,0.075 0.078,0.054" style="fill:none;stroke:#000000;stroke-width:2.40329;stroke-linecap:round;stroke-linejoin:round;stroke-miterlimit:10;stroke-dasharray:none;stroke-opacity:1" id="path472" />
         </g>
         <g id="g474" transform="scale(1,-1)" style="stroke-width:0.918908">
            <path d="m 514.215,-195.727 v 0.016 l -0.012,0.016 -0.019,0.015 -0.036,0.035 -0.035,0.094 h -0.015 l -0.024,-0.011 0.004,0.003 0.004,-0.011 -0.004,0.004 0.004,-0.012 -0.023,0.012 -0.036,-0.016 0.032,-0.031 -0.024,-0.012 0.004,0.031 v 0.016 l 0.004,0.004 -0.004,0.008 -0.004,0.004 v -0.02 l -0.011,0.004 0.062,-0.008 0.027,-0.027 -0.047,-0.024 -0.031,-0.027 -0.031,-0.02 -0.027,-0.027 -0.102,-0.031 -0.008,-0.028 -0.039,-0.027 -0.051,-0.039 -0.054,-0.043 -0.055,-0.035 -0.008,-0.024 -0.058,-0.027 -0.114,-0.047 -0.074,-0.047 -0.078,-0.027 -0.113,-0.051 -0.125,-0.039 -0.086,-0.039 -0.063,-0.051 -0.218,-0.109 -0.118,-0.078 -0.105,-0.067 -0.192,-0.05 -0.167,-0.047 -0.055,-0.047 -0.098,-0.047 -0.125,-0.055 -0.105,-0.074 -0.09,-0.058 -0.121,-0.059 -0.137,-0.063 -0.121,-0.062 -0.137,-0.059 -0.14,-0.043 -0.133,-0.07 -0.184,-0.09 -0.187,-0.074 -0.157,-0.07 -0.164,-0.063 -0.164,-0.082 -0.16,-0.086 -0.16,-0.07 -0.168,-0.066 -0.172,-0.079 -0.164,-0.07 -0.168,-0.078 -0.16,-0.066 -0.141,-0.067 -0.183,-0.09 -0.196,-0.105 -0.16,-0.082 -0.148,-0.086 -0.145,-0.09 -0.164,-0.07 -0.086,-0.098 -0.129,-0.098 -0.222,-0.054 -0.188,-0.051 -0.144,-0.066 -0.168,-0.055 -0.196,-0.09 -0.191,-0.066 -0.18,-0.063 -0.168,-0.074 -0.187,-0.078 -0.199,-0.063 -0.207,-0.062 -0.11,-0.09 -0.175,-0.074 -0.282,-0.078 -0.254,-0.09 -0.226,-0.086 -0.203,-0.086 -0.235,-0.074 -0.195,-0.086 -0.168,-0.137 -0.223,-0.121 -0.218,-0.113 -0.192,-0.137 -0.183,-0.113 -0.239,-0.075 -0.222,-0.093 -0.164,-0.11 -0.172,-0.109 -0.16,-0.102 -0.161,-0.109 -0.175,-0.078 -0.125,-0.094 -0.098,-0.07 -0.129,-0.071 -0.113,-0.086 -0.117,-0.074 -0.122,-0.082 -0.124,-0.062 -0.141,-0.055 -0.168,-0.055 -0.168,-0.066 -0.156,-0.055 -0.168,-0.07 -0.246,-0.066 -0.207,-0.071 -0.122,-0.066 -0.148,-0.051 -0.156,-0.074 -0.16,-0.043 -0.145,-0.051 -0.18,-0.066 -0.191,-0.094 -0.172,-0.09 -0.164,-0.074 -0.305,-0.172 -0.121,-0.098 -0.144,-0.089 -0.192,-0.094 -0.152,-0.082 -0.176,-0.086 -0.176,-0.09 -0.113,-0.102 -0.148,-0.086 -0.164,-0.074 -0.137,-0.09 -0.125,-0.066 -0.102,-0.082 -0.121,-0.066 0.008,-0.067 -0.047,-0.078 -0.179,-0.07 -0.122,-0.075 -0.089,-0.054 -0.098,-0.039 -0.129,-0.032 -0.066,-0.062 -0.067,-0.051 -0.105,-0.047 -0.094,-0.054 -0.086,-0.063 -0.098,-0.058 -0.093,-0.024 -0.075,-0.027 -0.078,-0.039 -0.082,-0.047 -0.086,-0.055 -0.214,-0.039 -0.09,-0.047 -0.047,-0.051 -0.086,-0.046 -0.106,-0.055 -0.093,-0.059 -0.075,-0.058 -0.054,-0.043 -0.082,-0.039 -0.133,-0.036 -0.109,-0.035 -0.114,-0.047 -0.121,-0.05 -0.172,-0.035 -0.152,-0.036 -0.035,-0.058 -0.094,-0.051 -0.102,-0.043 -0.105,-0.016 -0.059,-0.027 -0.074,-0.055 -0.125,-0.07 -0.109,-0.031 -0.078,-0.035 -0.09,-0.032 -0.082,-0.035 -0.125,-0.027 -0.11,-0.012 -0.003,-0.027 -0.028,-0.008 h -0.047 l -0.023,0.004 0.07,-0.008 h -0.004 l -0.086,0.004 0.012,0.004 0.004,0.023 0.019,0.008 0.047,-0.008 h 0.051 -0.027 l 0.004,0.028 v 0.004 l 0.004,0.004 v 0.007 l -0.036,0.024 -0.003,0.011 0.007,0.016 0.036,0.039" style="fill:none;stroke:#000000;stroke-width:2.40329;stroke-linecap:round;stroke-linejoin:round;stroke-miterlimit:10;stroke-dasharray:none;stroke-opacity:1" id="path476" />
         </g>
         <g id="g478" transform="scale(1,-1)" style="stroke-width:0.918908">
            <path d="m 507.496,-214.297 c -0.269,-3.945 -1.449,-7.769 -1.93,-11.695 -1.05,-4.524 -1.906,-9.133 -3.777,-13.41 -0.949,-1.957 -0.109,-4.328 -1.391,-6.145" style="fill:none;stroke:#000000;stroke-width:2.40329;stroke-linecap:round;stroke-linejoin:round;stroke-miterlimit:10;stroke-dasharray:none;stroke-opacity:1" id="path480" />
         </g>
         <g id="g482" transform="scale(1,-1)" style="stroke-width:0.918908">
            <path d="m 499.641,-246.477 c -2.5,-1.203 -4.289,-3.855 -7.211,-4.128" style="fill:none;stroke:#000000;stroke-width:2.40329;stroke-linecap:round;stroke-linejoin:round;stroke-miterlimit:10;stroke-dasharray:none;stroke-opacity:1" id="path484" />
         </g>
         <g id="g486" transform="scale(1,-1)" style="stroke-width:0.918908">
            <path d="m 492.43,-263.254 c 2.054,0.492 3.656,4.684 5.695,3.582" style="fill:none;stroke:#000000;stroke-width:2.40329;stroke-linecap:round;stroke-linejoin:round;stroke-miterlimit:10;stroke-dasharray:none;stroke-opacity:1" id="path488" />
         </g>
         <g id="g490" transform="scale(1,-1)" style="stroke-width:0.918908">
            <path d="m 498.266,-261.523 c -0.989,-1.039 -0.961,-2.789 -2.278,-3.563" style="fill:none;stroke:#000000;stroke-width:2.40329;stroke-linecap:round;stroke-linejoin:round;stroke-miterlimit:10;stroke-dasharray:none;stroke-opacity:1" id="path492" />
         </g>
         <g id="g494" transform="scale(1,-1)" style="stroke-width:0.918908">
            <path d="m 493.418,-273.172 c 2.82,-0.012 3.402,4.34 6.277,3.906" style="fill:none;stroke:#000000;stroke-width:2.40329;stroke-linecap:round;stroke-linejoin:round;stroke-miterlimit:10;stroke-dasharray:none;stroke-opacity:1" id="path496" />
         </g>
         <g id="g498" transform="scale(1,-1)" style="stroke-width:0.918908">
            <path d="m 498.734,-271.414 c -1.343,-1.645 -0.879,-3.914 -1.511,-5.813" style="fill:none;stroke:#000000;stroke-width:2.40329;stroke-linecap:round;stroke-linejoin:round;stroke-miterlimit:10;stroke-dasharray:none;stroke-opacity:1" id="path500" />
         </g>
         <g id="g502" transform="scale(1,-1)" style="stroke-width:0.918908">
            <path d="m 430.195,-276.547 v 0.012 l -0.043,0.019 -0.074,0.043 -0.023,0.055 -0.028,0.063 -0.019,0.054 -0.008,0.043 0.086,-0.019 0.07,-0.008 -0.062,-0.008 -0.008,-0.023 -0.008,0.004 0.004,-0.008 -0.043,-0.028 -0.082,-0.011 0.008,-0.016 0.043,-0.031 0.031,-0.024 0.051,-0.011 0.039,-0.008 0.101,-0.043 0.098,-0.02 v -0.031 l 0.02,-0.027 0.015,-0.004 0.02,-0.031 0.051,-0.04 0.07,-0.035 0.027,-0.031 0.02,-0.023 0.023,-0.039 0.043,-0.02 0.071,-0.012 0.066,-0.031 0.047,-0.027 0.062,-0.024 0.063,-0.039 0.086,-0.035 0.086,-0.031 0.074,-0.051 0.09,-0.051 0.105,-0.039 0.102,-0.055 0.101,-0.062 0.067,-0.043 0.097,-0.039 0.137,-0.051 0.125,-0.043 0.094,-0.035 0.101,-0.043 0.102,-0.07 0.102,-0.043 0.058,-0.039 0.09,-0.051 0.16,-0.066 0.16,-0.086 0.141,-0.071 0.125,-0.066 0.098,-0.066 0.097,-0.063 0.121,-0.074 0.137,-0.071 0.129,-0.07 0.117,-0.094 0.121,-0.093 0.133,-0.075 0.141,-0.086 0.113,-0.078 0.117,-0.066 0.125,-0.078 0.141,-0.086 0.129,-0.086 0.019,-0.07 0.094,-0.078 0.199,-0.082 0.18,-0.079 0.164,-0.07 0.148,-0.074 0.278,-0.063 0.222,-0.066 0.043,-0.07 0.121,-0.075 0.129,-0.062 0.153,-0.059 0.121,-0.082 0.156,-0.093 0.211,-0.071 0.195,-0.086 0.188,-0.117 0.187,-0.098 0.184,-0.082 0.172,-0.089 0.176,-0.09 0.164,-0.11 0.156,-0.097 0.168,-0.075 0.168,-0.089 0.156,-0.106 0.211,-0.09 0.18,-0.078 0.129,-0.086 0.152,-0.097 0.148,-0.09 0.145,-0.074 0.109,-0.086 0.125,-0.063 0.141,-0.062 0.14,-0.075 0.153,-0.078 0.144,-0.082 0.125,-0.082 0.137,-0.078 0.168,-0.086 0.156,-0.09 0.168,-0.086 0.172,-0.07 0.176,-0.066 0.164,-0.063 0.141,-0.078 0.16,-0.074 0.16,-0.067 0.137,-0.078 0.14,-0.082 0.129,-0.066 0.106,-0.063 0.152,-0.074 0.164,-0.066 0.168,-0.082 0.156,-0.082 0.153,-0.067 0.101,-0.082 0.156,-0.082 0.211,-0.07 0.2,-0.07 0.187,-0.098 0.168,-0.102 0.27,-0.113 0.234,-0.09 0.09,-0.097 0.148,-0.102 0.164,-0.098 0.176,-0.113 0.148,-0.09 0.106,-0.09 0.141,-0.086 0.136,-0.089 0.09,-0.094 0.098,-0.082 0.109,-0.071 0.258,-0.078 0.203,-0.078 0.02,-0.074 0.086,-0.07 0.125,-0.032 0.128,-0.062 0.106,-0.094 0.164,-0.078 0.168,-0.098 0.094,-0.082 0.121,-0.078 0.121,-0.082 0.125,-0.054 0.051,-0.075 0.086,-0.078 0.183,-0.082 0.168,-0.094 0.149,-0.054 0.14,-0.055 0.117,-0.074 0.11,-0.082 0.113,-0.09 0.121,-0.078 0.117,-0.067 0.129,-0.097 0.168,-0.09 0.09,-0.102 0.109,-0.101 0.204,-0.098 0.195,-0.101 0.18,-0.102 0.164,-0.09 0.144,-0.109 0.156,-0.114 0.172,-0.101 0.176,-0.098 0.149,-0.113 0.136,-0.098 0.305,-0.187 0.121,-0.074 0.129,-0.079 0.148,-0.082 0.118,-0.085 0.109,-0.094 0.172,-0.102 0.14,-0.082 0.079,-0.086 0.109,-0.082 0.109,-0.097 0.11,-0.094 0.082,-0.039 0.015,-0.043 0.063,-0.071 0.121,-0.054 0.094,-0.059 0.105,-0.039 0.071,-0.043 0.152,-0.047 0.121,-0.035 0.004,-0.023 0.051,-0.004 h 0.019 l 0.024,-0.004 -0.02,-0.031 h 0.008 l 0.027,-0.012 h 0.024 v -0.016 h 0.035 l -0.024,0.008 0.012,-0.023 -0.012,0.031 0.012,0.012 -0.023,-0.028 0.058,-0.023 0.043,-0.004 -0.015,-0.004 0.015,-0.008 h 0.008 l 0.012,0.008 -0.067,-0.023 -0.031,-0.036 0.09,-0.011 0.055,-0.035 0.062,-0.012" style="fill:none;stroke:#000000;stroke-width:2.40329;stroke-linecap:round;stroke-linejoin:round;stroke-miterlimit:10;stroke-dasharray:none;stroke-opacity:1" id="path504" />
         </g>
         <g id="g506" transform="scale(1,-1)" style="stroke-width:0.918908">
            <path d="m 378.824,-215.613 c 4.5,-2.36 9.055,-4.61 13.567,-6.942 4.089,-1.828 8.273,-3.453 12.195,-5.633 0.371,-0.148 0.726,-0.363 1.141,-0.343" style="fill:none;stroke:#000000;stroke-width:2.40329;stroke-linecap:round;stroke-linejoin:round;stroke-miterlimit:10;stroke-dasharray:none;stroke-opacity:1" id="path508" />
         </g>
         <g id="g510" transform="scale(1,-1)" style="stroke-width:0.918908">
            <path d="m 392.93,-224.102 c -4.387,-7.804 -1.567,-15.332 6.562,-18.648 13.242,-8.625 27.461,-15.578 41.215,-23.367 10.223,-5.281 19.231,-12.852 29.789,-17.504 8.633,0.914 5.379,14.019 9.422,19.484" style="fill:none;stroke:#000000;stroke-width:2.40329;stroke-linecap:round;stroke-linejoin:round;stroke-miterlimit:10;stroke-dasharray:none;stroke-opacity:1" id="path512" />
         </g>
         <g id="g514" transform="scale(1,-1)" style="stroke-width:0.918908">
            <path d="m 425.652,-243.836 c 2.473,-1.121 4.864,-2.496 7.543,-3.066" style="fill:none;stroke:#000000;stroke-width:2.40329;stroke-linecap:round;stroke-linejoin:round;stroke-miterlimit:10;stroke-dasharray:none;stroke-opacity:1" id="path516" />
         </g>
         <g id="g518" transform="scale(1,-1)" style="stroke-width:0.918908">
            <path d="m 438.617,-250.984 c -1.41,0.027 2.695,-1.34 3.301,-1.93 1,-0.508 1.973,-1.102 3.074,-1.356" style="fill:none;stroke:#000000;stroke-width:2.40329;stroke-linecap:round;stroke-linejoin:round;stroke-miterlimit:10;stroke-dasharray:none;stroke-opacity:1" id="path520" />
         </g>
         <g id="g522" transform="scale(1,-1)" style="stroke-width:0.918908">
            <path d="m 448.758,-256.191 c 1.23,-1.422 3.508,-2.454 5.078,-3" style="fill:none;stroke:#000000;stroke-width:2.40329;stroke-linecap:round;stroke-linejoin:round;stroke-miterlimit:10;stroke-dasharray:none;stroke-opacity:1" id="path524" />
         </g>
         <g id="g526" transform="scale(1,-1)" style="stroke-width:0.918908">
            <path d="m 422.141,-250.523 c 2.164,-1.258 4.785,-2.086 7.195,-2.661" style="fill:none;stroke:#000000;stroke-width:2.40329;stroke-linecap:round;stroke-linejoin:round;stroke-miterlimit:10;stroke-dasharray:none;stroke-opacity:1" id="path528" />
         </g>
         <g id="g530" transform="scale(1,-1)" style="stroke-width:0.918908">
            <path d="m 434.328,-256.988 c 2.336,-0.5 4.742,-2.578 7.203,-3.043" style="fill:none;stroke:#000000;stroke-width:2.40329;stroke-linecap:round;stroke-linejoin:round;stroke-miterlimit:10;stroke-dasharray:none;stroke-opacity:1" id="path532" />
         </g>
         <g id="g534" transform="scale(1,-1)" style="stroke-width:0.918908">
            <path d="m 443.586,-262.227 c 1.359,-1.039 4.531,-2.359 6.57,-3.511 0.782,-0.266 1.684,-1.504 2.348,-1.387" style="fill:none;stroke:#000000;stroke-width:2.40329;stroke-linecap:round;stroke-linejoin:round;stroke-miterlimit:10;stroke-dasharray:none;stroke-opacity:1" id="path536" />
         </g>
         <g id="g538" transform="scale(1,-1)" style="stroke-width:0.918908">
            <path d="m 465.809,-264.277 c 0.183,0.16 -0.391,-0.11 0.003,0.047 0.317,0.031 -0.148,0.027 0.09,-0.211 0.028,-0.723 -0.015,-1.258 0.078,-2 -0.164,-0.325 -0.371,-0.594 -0.292,-0.879 -0.59,-0.383 -0.348,-1.157 -0.649,-1.684 -0.266,-0.41 -0.156,-0.68 -0.086,-0.902 -0.098,0.25 0.332,-0.426 0.664,-0.574 -0.082,-0.25 0.52,-0.172 0.629,-0.489 0.453,-0.09 1.356,-0.429 1.543,-0.297 -0.422,-0.023 0.125,0.25 -0.258,0.383 0.504,0.242 -0.156,0.891 0.258,1.258 -0.101,0.59 -0.141,1.254 -0.051,1.84 -0.031,0.574 0.102,1.07 -0.211,1.57 0.121,0.363 0.309,0.719 -0.023,1.063 0.254,0.316 0.582,0.98 0.394,1.285 -0.171,0.078 -0.562,0.035 -0.308,0.031 -0.039,0.219 -0.817,0.125 -0.453,0.414 -0.203,0.086 -0.563,0.438 -0.446,0.34 -0.437,-0.039 0.368,-0.074 -0.121,0" style="fill:none;stroke:#000000;stroke-width:2.40329;stroke-linecap:round;stroke-linejoin:round;stroke-miterlimit:10;stroke-dasharray:none;stroke-opacity:1" id="path540" />
         </g>
         <g id="g542" transform="scale(1,-1)" style="stroke-width:0.918908">
            <path d="m 368.387,-212.422 c -0.719,-7.234 -2.582,-13.469 -2.504,-20.785 -0.524,-2.379 0.082,-5.488 -0.61,-7.402" style="fill:none;stroke:#000000;stroke-width:2.40329;stroke-linecap:round;stroke-linejoin:round;stroke-miterlimit:10;stroke-dasharray:none;stroke-opacity:1" id="path544" />
         </g>
         <g id="g546" transform="scale(1,-1)" style="stroke-width:0.918908">
            <path d="m 354.344,-215.84 c 1.281,-1.637 3.246,-2.543 4.547,-4.168 1.504,-1.613 3.32,-2.883 4.98,-4.324 0.223,-0.227 1.777,-1.402 1.961,-1.66" style="fill:none;stroke:#000000;stroke-width:2.40329;stroke-linecap:round;stroke-linejoin:round;stroke-miterlimit:10;stroke-dasharray:none;stroke-opacity:1" id="path548" />
         </g>
         <g id="g550" transform="scale(1,-1)" style="stroke-width:0.918908">
            <path d="m 348.773,-222.48 c 5.52,-4.586 11.696,-9.274 16.879,-13.071" style="fill:none;stroke:#000000;stroke-width:2.40329;stroke-linecap:round;stroke-linejoin:round;stroke-miterlimit:10;stroke-dasharray:none;stroke-opacity:1" id="path552" />
         </g>
         <g id="g554" transform="scale(1,-1)" style="stroke-width:0.918908">
            <path d="m 358.617,-144.855 c 0.965,-0.5 1.996,-0.86 2.953,-1.379 1.02,-0.325 2.059,-0.598 2.965,-1.188 0.981,-0.43 1.703,-1.367 2.77,-1.594" style="fill:none;stroke:#000000;stroke-width:2.40329;stroke-linecap:round;stroke-linejoin:round;stroke-miterlimit:10;stroke-dasharray:none;stroke-opacity:1" id="path556" />
         </g>
         <g id="g558" transform="scale(1,-1)" style="stroke-width:0.918908">
            <path d="m 355.84,-147.75 c 0.644,-0.82 1.898,-0.645 2.699,-1.277 0.965,-0.379 1.695,-1.157 2.656,-1.512" style="fill:none;stroke:#000000;stroke-width:2.40329;stroke-linecap:round;stroke-linejoin:round;stroke-miterlimit:10;stroke-dasharray:none;stroke-opacity:1" id="path560" />
         </g>
         <g id="g562" transform="scale(1,-1)" style="stroke-width:0.918908">
            <path d="m 360.34,-127.531 c 2.801,-1.145 5.367,-2.778 8.172,-3.922 0.449,-0.152 0.754,-0.492 1.121,-0.774" style="fill:none;stroke:#000000;stroke-width:2.40329;stroke-linecap:round;stroke-linejoin:round;stroke-miterlimit:10;stroke-dasharray:none;stroke-opacity:1" id="path564" />
         </g>
         <g id="g566" transform="scale(1,-1)" style="stroke-width:0.918908">
            <path d="m 353.941,-131.402 c 1.293,-0.786 2.954,-0.676 4.106,-1.789" style="fill:none;stroke:#000000;stroke-width:2.40329;stroke-linecap:round;stroke-linejoin:round;stroke-miterlimit:10;stroke-dasharray:none;stroke-opacity:1" id="path568" />
         </g>
         <g id="g570" transform="scale(1,-1)" style="stroke-width:0.918908">
            <path d="m 348.215,-135.73 c 0.058,0.816 1.644,-0.719 2.121,-0.391" style="fill:none;stroke:#000000;stroke-width:2.40329;stroke-linecap:round;stroke-linejoin:round;stroke-miterlimit:10;stroke-dasharray:none;stroke-opacity:1" id="path572" />
         </g>
         <g id="g574" transform="scale(1,-1)" style="stroke-width:0.918908">
            <path d="m 505.102,-400.727 c 13.89,1.672 28.941,-1.703 40.734,8.176 3.906,2.035 7.766,4.16 11.535,6.442" style="fill:none;stroke:#000000;stroke-width:2.40329;stroke-linecap:round;stroke-linejoin:round;stroke-miterlimit:10;stroke-dasharray:none;stroke-opacity:1" id="path576" />
         </g>
         <g id="g578" transform="scale(1,-1)" style="stroke-width:0.918908">
            <path d="m 474.879,-225.234 c -8.805,4.336 -17.754,8.437 -26.191,13.488 -8.079,4.266 -16.665,7.492 -24.547,12.113 -8.883,3.723 -18.274,6.305 -26.657,11.184 l -0.207,0.09" style="fill:none;stroke:#000000;stroke-width:2.40329;stroke-linecap:round;stroke-linejoin:round;stroke-miterlimit:10;stroke-dasharray:none;stroke-opacity:1" id="path580" />
         </g>
         <g id="g582" transform="scale(1,-1)" style="stroke-width:0.918908">
            <path d="m 372.293,-175.543 c 1.414,-0.766 2.902,-1.398 4.324,-2.141 2.68,-1.136 5.582,-1.695 8.133,-3.136 1.934,-0.774 3.762,-1.778 5.684,-2.582 0.5,-0.293 1.07,-0.457 1.632,-0.586" style="fill:none;stroke:#000000;stroke-width:2.40329;stroke-linecap:round;stroke-linejoin:round;stroke-miterlimit:10;stroke-dasharray:none;stroke-opacity:1" id="path584" />
         </g>
         <g id="g586" transform="scale(1,-1)" style="stroke-width:0.918908">
            <path d="m 353.641,-205.031 c 1.324,-1.192 2.89,-2.086 4.464,-2.899 1.844,-0.89 3.833,-1.425 5.665,-2.347 1.609,-0.633 3.168,-1.407 4.625,-2.325" style="fill:none;stroke:#000000;stroke-width:2.40329;stroke-linecap:round;stroke-linejoin:round;stroke-miterlimit:10;stroke-dasharray:none;stroke-opacity:1" id="path588" />
         </g>
         <g id="g590" transform="scale(1,-1)" style="stroke-width:0.918908">
            <path d="m 424.301,-237.004 c 2.637,-1.777 5.683,-2.879 8.5,-4.332 3.656,-2.195 7.699,-3.59 11.48,-5.559 3.692,-1.449 6.989,-3.71 10.485,-5.527 4.714,-1.57 9.488,-2.918 14.113,-4.754" style="fill:none;stroke:#000000;stroke-width:2.40329;stroke-linecap:round;stroke-linejoin:round;stroke-miterlimit:10;stroke-dasharray:none;stroke-opacity:1" id="path592" />
         </g>
      </g>
   </g>
</svg>
