<?xml version="1.0" encoding="UTF-8" standalone="no"?>
<!-- Created by Ashley Blewer - This work is licensed under a Creative Commons Attribution 4.0 International License -->

<svg width="544" height="480" viewBox="0 0 143.93334 127" version="1.1" id="svg2490" inkscape:version="1.1.2 (08b2f3d93c, 2022-04-05)" sodipodi:docname="1989-hi8-2.svg"
   xmlns:inkscape="http://www.inkscape.org/namespaces/inkscape"
   xmlns:sodipodi="http://sodipodi.sourceforge.net/DTD/sodipodi-0.dtd"
   xmlns="http://www.w3.org/2000/svg"
   xmlns:svg="http://www.w3.org/2000/svg">
   <sodipodi:namedview id="namedview2492" pagecolor="#ffffff" bordercolor="#666666" borderopacity="1.0" inkscape:pageshadow="2" inkscape:pageopacity="0.0" inkscape:pagecheckerboard="0" inkscape:document-units="mm" showgrid="false" units="px" inkscape:zoom="0.90583674" inkscape:cx="272.67607" inkscape:cy="177.18425" inkscape:window-width="1848" inkscape:window-height="1136" inkscape:window-x="72" inkscape:window-y="27" inkscape:window-maximized="1" inkscape:current-layer="layer1" />
   <defs id="defs2487" />
   <g inkscape:label="Layer 1" inkscape:groupmode="layer" id="layer1">
      <g id="g2203" transform="matrix(0.51674994,0,0,0.51674994,-153.23775,-300.47434)" style="stroke-width:0.852637">
         <g id="g594" transform="scale(1,-1)" style="stroke-width:0.852637">
            <path d="m 309.219,-654.266 c 86.113,-0.328 172.246,2.559 258.34,-0.355" style="fill:none;stroke:#000000;stroke-width:2.22997;stroke-linecap:round;stroke-linejoin:round;stroke-miterlimit:10;stroke-dasharray:none;stroke-opacity:1" id="path596" />
         </g>
         <g id="g598" transform="scale(1,-1)" style="stroke-width:0.852637">
            <path d="m 308.52,-654.402 c -0.157,-10.391 0.382,-22.426 0.109,-32.84 0.039,-11.91 -0.203,-23.809 -0.691,-35.707 -0.008,-2.5 3.718,-9.399 4.855,-11.656" style="fill:none;stroke:#000000;stroke-width:2.22997;stroke-linecap:round;stroke-linejoin:round;stroke-miterlimit:10;stroke-dasharray:none;stroke-opacity:1" id="path600" />
         </g>
         <g id="g602" transform="scale(1,-1)" style="stroke-width:0.852637">
            <path d="m 312.969,-730.684 c 0,0 212.406,2.836 253.457,1.731" style="fill:none;stroke:#000000;stroke-width:2.22997;stroke-linecap:round;stroke-linejoin:round;stroke-miterlimit:10;stroke-dasharray:none;stroke-opacity:1" id="path604" sodipodi:nodetypes="cc" />
         </g>
         <g id="g606" transform="scale(1,-1)" style="stroke-width:0.852637">
            <path d="m 567.578,-654.594 c 3.856,-24.48 -0.187,-50.926 -0.875,-75.476" style="fill:none;stroke:#000000;stroke-width:2.22997;stroke-linecap:round;stroke-linejoin:round;stroke-miterlimit:10;stroke-dasharray:none;stroke-opacity:1" id="path608" />
         </g>
         <g id="g610" transform="scale(1,-1)" style="stroke-width:0.852637">
            <path d="m 312.969,-730.684 c -0.344,-2.226 -0.36,-4.589 -0.309,-6.711 l -0.109,-0.05 -0.141,-0.004" style="fill:none;stroke:#000000;stroke-width:2.22997;stroke-linecap:round;stroke-linejoin:round;stroke-miterlimit:10;stroke-dasharray:none;stroke-opacity:1" id="path612" />
         </g>
         <g id="g614" transform="scale(1,-1)" style="stroke-width:0.852637">
            <path d="m 313.168,-737.715 c 81.094,0.004 166.07,1.852 247.152,1.317" style="fill:none;stroke:#000000;stroke-width:2.22997;stroke-linecap:round;stroke-linejoin:round;stroke-miterlimit:10;stroke-dasharray:none;stroke-opacity:1" id="path616" />
         </g>
         <g id="g618" transform="scale(1,-1)" style="stroke-width:0.852637">
            <path d="m 566.703,-730.07 c 0.539,0.207 -1.773,-2.231 -1.672,-2.567 -0.156,-0.683 -0.402,-1.347 -0.668,-1.961 -0.281,-0.769 -0.472,-1.64 -1.222,-2.031 -0.567,-0.297 -2.227,0.454 -2.821,0.231" style="fill:none;stroke:#000000;stroke-width:2.22997;stroke-linecap:round;stroke-linejoin:round;stroke-miterlimit:10;stroke-dasharray:none;stroke-opacity:1" id="path620" sodipodi:nodetypes="ccccc" />
         </g>
         <g id="g622" transform="scale(1,-1)" style="stroke-width:0.852637">
            <path d="m 351.695,-659.34 c 1.922,-21.777 3.45,-43.64 2.93,-65.519" style="fill:none;stroke:#000000;stroke-width:2.22997;stroke-linecap:round;stroke-linejoin:round;stroke-miterlimit:10;stroke-dasharray:none;stroke-opacity:1" id="path624" />
         </g>
         <g id="g626" transform="scale(1,-1)" style="stroke-width:0.852637">
            <path d="m 360.246,-692.391 c 40.133,2.805 80.352,0 120.484,-1.14" style="fill:none;stroke:#000000;stroke-width:2.22997;stroke-linecap:round;stroke-linejoin:round;stroke-miterlimit:10;stroke-dasharray:none;stroke-opacity:1" id="path628" />
         </g>
         <g id="g630" transform="scale(1,-1)" style="stroke-width:0.852637">
            <path d="m 483.57,-658.016 c -3.004,-21.964 -0.73,-44.218 -2.867,-66.242" style="fill:none;stroke:#000000;stroke-width:2.22997;stroke-linecap:round;stroke-linejoin:round;stroke-miterlimit:10;stroke-dasharray:none;stroke-opacity:1" id="path632" />
         </g>
         <g id="g634" transform="scale(1,-1)" style="stroke-width:0.852637">
            <path d="m 357.758,-726.395 c 40.621,-1.773 81.273,0.094 121.894,0.645" style="fill:none;stroke:#000000;stroke-width:2.22997;stroke-linecap:round;stroke-linejoin:round;stroke-miterlimit:10;stroke-dasharray:none;stroke-opacity:1" id="path636" />
         </g>
         <g id="g638" transform="scale(1,-1)" style="stroke-width:0.852637">
            <path d="m 510.918,-710.809 c -3.063,2.047 -4.172,5.856 -5.457,9.11 -1.281,4.097 -2.309,8.398 -1.656,12.715 0.351,6.714 2.668,13.617 7.488,18.441 2.742,2.348 6.215,3.637 8.922,6.035 4.539,2.899 10.238,1.965 15.238,1.11 5.086,-1.489 10.543,-3.024 14.43,-6.813 4.297,-4.863 8.765,-10.344 9.176,-17.113 0.714,-5.375 -0.278,-10.891 -2.504,-15.801 -2.157,-4.145 -5.11,-8.07 -9.387,-10.195 -4.043,-2.457 -8.711,-3.879 -13.465,-3.715 -6.492,-0.305 -13.031,1.019 -18.816,4.008 -2.68,1.289 -3.5963,1.88099 -5.9353,3.72799 -1.684,1.813 -2.6317,5.35001 -3.4907,7.60001" style="fill:none;stroke:#000000;stroke-width:2.22997;stroke-linecap:round;stroke-linejoin:round;stroke-miterlimit:10;stroke-dasharray:none;stroke-opacity:1" id="path640" sodipodi:nodetypes="cccccccccccccc" />
         </g>
         <g id="g642" transform="scale(1,-1)" style="stroke-width:0.852637">
            <path d="m 505.84776,-690.469 c -0.16304,6.16689 2.07484,12.67478 7.39707,16.21849 6.79064,5.7708 16.56951,7.49457 25.01851,4.89059 6.95231,-2.59317 12.79968,-7.87134 16.71663,-14.09243 2.46539,-5.5204 1.89927,-11.99818 0.31962,-17.67099 -5.13344,-11.38138 -19.58145,-15.39595 -30.98193,-12.40524 -6.15496,1.44913 -11.54008,5.48022 -14.22887,11.25208 -2.86004,4.40253 -4.8467,9.43032 -4.17963,14.76549 -0.0254,1.86564 0.85487,3.56012 1.00082,5.37801" style="fill:none;stroke:#000000;stroke-width:2.22997;stroke-linecap:round;stroke-linejoin:round;stroke-miterlimit:10;stroke-dasharray:none;stroke-opacity:1" id="path644" sodipodi:nodetypes="ccccccccccccc" />
         </g>
         <g id="g646" transform="scale(1,-1)" style="stroke-width:0.852637">
            <path d="m 363.148,-683.004 c -0.468,6.383 -0.683,11.402 -0.14,18.442" style="fill:none;stroke:#000000;stroke-width:2.22997;stroke-linecap:round;stroke-linejoin:round;stroke-miterlimit:10;stroke-dasharray:none;stroke-opacity:1" id="path648" />
         </g>
         <g id="g650" transform="scale(1,-1)" style="stroke-width:0.852637">
            <path d="m 362.891,-664.199 c 0,0 75.476,0.375 110.441,-0.789" style="fill:none;stroke:#000000;stroke-width:2.22997;stroke-linecap:round;stroke-linejoin:round;stroke-miterlimit:10;stroke-dasharray:none;stroke-opacity:1" id="path652" sodipodi:nodetypes="cc" />
         </g>
         <g id="g654" transform="scale(1,-1)" style="stroke-width:0.852637">
            <path d="m 363.402,-683 c 38.524,0.453 73.715,0.344 109.895,-0.492" style="fill:none;stroke:#000000;stroke-width:2.22997;stroke-linecap:round;stroke-linejoin:round;stroke-miterlimit:10;stroke-dasharray:none;stroke-opacity:1" id="path656" />
         </g>
         <g id="g658" transform="scale(1,-1)" style="stroke-width:0.852637">
            <path d="m 473.461,-683.391 c -0.191,6.133 0.543,12.286 -0.129,18.403" style="fill:none;stroke:#000000;stroke-width:2.22997;stroke-linecap:round;stroke-linejoin:round;stroke-miterlimit:10;stroke-dasharray:none;stroke-opacity:1" id="path660" />
         </g>
         <g id="g662" transform="scale(1,-1)" style="stroke-width:0.852637">
            <path d="m 508.371,-666.758 c 2.68,2.574 5.52,5.34 9.309,6.086" style="fill:none;stroke:#000000;stroke-width:1.11499;stroke-linecap:round;stroke-linejoin:round;stroke-miterlimit:10;stroke-dasharray:none;stroke-opacity:1" id="path664" />
         </g>
         <g id="g666" transform="scale(1,-1)" style="stroke-width:0.852637">
            <path d="m 525.094,-659.105 c 2.98,0.894 6.258,0.093 9.215,-0.036" style="fill:none;stroke:#000000;stroke-width:1.11499;stroke-linecap:round;stroke-linejoin:round;stroke-miterlimit:10;stroke-dasharray:none;stroke-opacity:1" id="path668" />
         </g>
         <g id="g670" transform="scale(1,-1)" style="stroke-width:0.852637">
            <path d="m 544.383,-662.078 c 4,1.359 6.933,-3.082 9.39,-5.402" style="fill:none;stroke:#000000;stroke-width:1.11499;stroke-linecap:round;stroke-linejoin:round;stroke-miterlimit:10;stroke-dasharray:none;stroke-opacity:1" id="path672" />
         </g>
         <g id="g674" transform="scale(1,-1)" style="stroke-width:0.852637">
            <path d="m 559.812,-673.477 c 0.04,-0.707 0.872,-0.781 1.215,-1.269" style="fill:none;stroke:#000000;stroke-width:1.11499;stroke-linecap:round;stroke-linejoin:round;stroke-miterlimit:10;stroke-dasharray:none;stroke-opacity:1" id="path676" />
         </g>
         <g id="g678" transform="scale(1,-1)" style="stroke-width:0.852637">
            <path d="m 491.938,-715.988 c 4.324,-0.004 8.667,0.465 12.984,-0.012 0.879,0.094 2.687,-0.199 2.937,-0.086 -0.609,-0.141 0.082,-2.074 -0.074,-3 -0.047,-0.953 0.567,-2.094 0.32,-2.527 -1.175,-0.449 -2.472,-0.246 -3.695,-0.477 -1.453,0.035 -2.887,-0.199 -4.332,-0.262 -2.801,-0.027 -5.598,0.2 -8.387,0.391 -0.425,0.324 -0.777,2.191 -0.406,3.149 0.168,0.777 0.465,1.558 0.383,2.359" style="fill:none;stroke:#000000;stroke-width:1.11499;stroke-linecap:round;stroke-linejoin:round;stroke-miterlimit:10;stroke-dasharray:none;stroke-opacity:1" id="path680" />
         </g>
         <g id="g682" transform="scale(1,-1)" style="stroke-width:0.852637">
            <path d="m 458.699,-716.418 c 1.922,-0.203 3.504,0.141 5.434,-0.012 2.179,-0.101 4.363,-0.004 6.535,0.067 1.852,-0.278 3.707,-0.231 5.562,-0.192 -0.437,-1.316 1.235,-4.222 -0.894,-4.976 -1.91,-0.594 -3.969,-0.278 -5.945,-0.348 -2.688,0.106 -5.375,0.199 -8.067,0.207 -1.453,0.192 -3.91,-0.047 -3.148,2.125 0.004,1.051 0.301,2.078 0.691,3.047" style="fill:none;stroke:#000000;stroke-width:1.11499;stroke-linecap:round;stroke-linejoin:round;stroke-miterlimit:10;stroke-dasharray:none;stroke-opacity:1" id="path684" />
         </g>
         <g id="g686" transform="scale(1,-1)" style="stroke-width:0.852637">
            <path d="m 411.602,-706.586 c -0.043,2.652 -0.211,5.961 -0.422,8.625" style="fill:none;stroke:#000000;stroke-width:1.11499;stroke-linecap:round;stroke-linejoin:round;stroke-miterlimit:10;stroke-dasharray:none;stroke-opacity:1" id="path688" />
         </g>
         <g id="g690" transform="scale(1,-1)" style="stroke-width:0.852637">
            <path d="m 411.199,-698.105 c 21.899,0.089 43.77,0.078 63.379,-1.313 -0.172,-2.551 -0.344,-6.488 -0.691,-8.746" style="fill:none;stroke:#000000;stroke-width:1.11499;stroke-linecap:round;stroke-linejoin:round;stroke-miterlimit:10;stroke-dasharray:none;stroke-opacity:1" id="path692" />
         </g>
         <g id="g694" transform="scale(1,-1)" style="stroke-width:0.852637">
            <path d="m 411.355,-706.602 c 21.063,-0.132 41.172,0.555 62.157,-1.687" style="fill:none;stroke:#000000;stroke-width:1.11499;stroke-linecap:round;stroke-linejoin:round;stroke-miterlimit:10;stroke-dasharray:none;stroke-opacity:1" id="path696" />
         </g>
         <g id="g698" transform="scale(1,-1)" style="stroke-width:0.852637">
            <path d="m 361.242,-711.73 c 1.285,0.785 2.887,-0.067 4.203,0.605" style="fill:none;stroke:#000000;stroke-width:1.11499;stroke-linecap:round;stroke-linejoin:round;stroke-miterlimit:10;stroke-dasharray:none;stroke-opacity:1" id="path700" />
         </g>
         <g id="g702" transform="scale(1,-1)" style="stroke-width:0.852637">
            <path d="m 358.461,-714.242 c 3.445,0.176 6.918,-0.254 10.34,0.293 l 0.375,-0.031 0.359,-0.114" style="fill:none;stroke:#000000;stroke-width:1.11499;stroke-linecap:round;stroke-linejoin:round;stroke-miterlimit:10;stroke-dasharray:none;stroke-opacity:1" id="path704" />
         </g>
         <g id="g706" transform="scale(1,-1)" style="stroke-width:0.852637">
            <path d="m 380.402,-711.48 c 1.036,-0.332 2.145,0 3.176,-0.364" style="fill:none;stroke:#000000;stroke-width:1.11499;stroke-linecap:round;stroke-linejoin:round;stroke-miterlimit:10;stroke-dasharray:none;stroke-opacity:1" id="path708" />
         </g>
         <g id="g710" transform="scale(1,-1)" style="stroke-width:0.852637">
            <path d="m 375.172,-715.324 c 4.512,0.855 9.14,0.719 13.695,0.316" style="fill:none;stroke:#000000;stroke-width:1.11499;stroke-linecap:round;stroke-linejoin:round;stroke-miterlimit:10;stroke-dasharray:none;stroke-opacity:1" id="path712" />
         </g>
         <g id="g714" transform="scale(1,-1)" style="stroke-width:0.852637">
            <path d="m 399.242,-712.156 c 1.106,0.105 2.215,0.328 3.328,0.199" style="fill:none;stroke:#000000;stroke-width:1.11499;stroke-linecap:round;stroke-linejoin:round;stroke-miterlimit:10;stroke-dasharray:none;stroke-opacity:1" id="path716" />
         </g>
         <g id="g718" transform="scale(1,-1)" style="stroke-width:0.852637">
            <path d="m 395.035,-715.352 c 4.613,0.321 9.281,0.797 13.879,0.02" style="fill:none;stroke:#000000;stroke-width:1.11499;stroke-linecap:round;stroke-linejoin:round;stroke-miterlimit:10;stroke-dasharray:none;stroke-opacity:1" id="path720" />
         </g>
         <g id="g722" transform="scale(1,-1)" style="stroke-width:0.852637">
            <path d="m 418.375,-713.84 c 2.707,-0.555 5.457,0.035 8.176,0.137" style="fill:none;stroke:#000000;stroke-width:1.11499;stroke-linecap:round;stroke-linejoin:round;stroke-miterlimit:10;stroke-dasharray:none;stroke-opacity:1" id="path724" />
         </g>
         <g id="g726" transform="scale(1,-1)" style="stroke-width:0.852637">
            <path d="m 415.25,-718.32 c 5.57,0.945 11.242,0.836 16.867,0.593 -2.027,-4.211 -7.418,-2.628 -11.32,-2.832 -1.641,0.399 -6.692,-0.355 -4.961,2.356" style="fill:none;stroke:#000000;stroke-width:1.11499;stroke-linecap:round;stroke-linejoin:round;stroke-miterlimit:10;stroke-dasharray:none;stroke-opacity:1" id="path728" />
         </g>
         <g id="g730" transform="scale(1,-1)" style="stroke-width:0.852637">
            <path d="m 396.031,-718.395 c 5.074,-0.183 10.582,1.399 15.383,-0.191 0.453,-3.879 -5.699,-1.445 -8.254,-2.383 -2.265,0.469 -8.414,-1.593 -6.594,2.664" style="fill:none;stroke:#000000;stroke-width:1.11499;stroke-linecap:round;stroke-linejoin:round;stroke-miterlimit:10;stroke-dasharray:none;stroke-opacity:1" id="path732" />
         </g>
         <g id="g734" transform="scale(1,-1)" style="stroke-width:0.852637">
            <path d="m 376.688,-718 c 5.003,-0.43 8.789,-0.062 13.785,-0.234 1.988,-3.957 -5.403,-2.309 -7.828,-2.727 -2.106,0.684 -8.571,-1.648 -6.145,2.609" style="fill:none;stroke:#000000;stroke-width:1.11499;stroke-linecap:round;stroke-linejoin:round;stroke-miterlimit:10;stroke-dasharray:none;stroke-opacity:1" id="path736" />
         </g>
         <g id="g738" transform="scale(1,-1)" style="stroke-width:0.852637">
            <path d="m 358.164,-717.617 c 2.484,-0.395 4.492,0.117 6.988,-0.102 1.973,-0.078 4.012,0.196 5.938,-0.324 0.406,-0.914 0.519,-1.793 -0.746,-3.031 -4.66,-0.137 -9.153,-1.336 -12.114,-0.055 -1.3,0.285 0.09,2.098 -0.113,2.934" style="fill:none;stroke:#000000;stroke-width:1.11499;stroke-linecap:round;stroke-linejoin:round;stroke-miterlimit:10;stroke-dasharray:none;stroke-opacity:1" id="path740" />
         </g>
         <g id="g742" transform="scale(1,-1)" style="stroke-width:0.852637">
            <path d="m 322.391,-724.883 c -0.864,-0.836 1.41,0.59 0.218,-0.129 -0.062,-0.062 -1.031,-0.054 -0.457,0.032" style="fill:none;stroke:#000000;stroke-width:1.11499;stroke-linecap:round;stroke-linejoin:round;stroke-miterlimit:10;stroke-dasharray:none;stroke-opacity:1" id="path744" />
         </g>
         <g id="g746" transform="scale(1,-1)" style="stroke-width:0.852637">
            <path d="m 339.355,-725.949 c -0.89,0.765 2.418,-0.008 0.61,0.121 l -0.289,-0.055 -0.297,-0.023" style="fill:none;stroke:#000000;stroke-width:1.11499;stroke-linecap:round;stroke-linejoin:round;stroke-miterlimit:10;stroke-dasharray:none;stroke-opacity:1" id="path748" />
         </g>
         <g id="g750" transform="scale(1,-1)" style="stroke-width:0.852637">
            <path d="m 323.328,-720.742 c -0.711,-1.973 -5.125,0.281 -3.922,2.371 0.852,1.726 2.867,3.125 4.75,1.996 2.41,-0.898 1.098,-4.875 -0.976,-4.867" style="fill:none;stroke:#000000;stroke-width:1.11499;stroke-linecap:round;stroke-linejoin:round;stroke-miterlimit:10;stroke-dasharray:none;stroke-opacity:1" id="path752" />
         </g>
         <g id="g754" transform="scale(1,-1)" style="stroke-width:0.852637">
            <path d="m 341.875,-720.156 c -1.766,-1.188 -5.148,-0.465 -4.641,1.976 0.93,1.805 3.184,2.086 4.891,1.336 2.25,-1.054 0.129,-3.281 -1.453,-3.703" style="fill:none;stroke:#000000;stroke-width:1.11499;stroke-linecap:round;stroke-linejoin:round;stroke-miterlimit:10;stroke-dasharray:none;stroke-opacity:1" id="path756" />
         </g>
         <g id="g758" transform="scale(1,-1)" style="stroke-width:0.852637">
            <path d="m 319.605,-713.266 c 3.29,0.313 6.618,0.008 9.911,0.356 0.082,-0.219 0.175,0.035 0.289,-0.012" style="fill:none;stroke:#000000;stroke-width:1.11499;stroke-linecap:round;stroke-linejoin:round;stroke-miterlimit:10;stroke-dasharray:none;stroke-opacity:1" id="path760" />
         </g>
         <g id="g762" transform="scale(1,-1)" style="stroke-width:0.852637">
            <path d="m 338.719,-713.938 c 0.347,0.282 2.496,0.372 3.297,-0.082" style="fill:none;stroke:#000000;stroke-width:1.11499;stroke-linecap:round;stroke-linejoin:round;stroke-miterlimit:10;stroke-dasharray:none;stroke-opacity:1" id="path764" />
         </g>
         <g id="g766" transform="scale(1,-1)" style="stroke-width:0.852637">
            <path d="m 322.715,-705.547 c 0.273,1.899 -0.422,3.832 -0.293,5.738 -0.621,2.079 1.812,1.661 3.262,1.364 2.601,-0.219 5.226,-0.164 7.828,-0.446 1.914,-0.144 3.883,-0.183 5.718,-0.754 1.129,-0.523 0.5,-2.531 0.348,-4.023 -0.437,-1.02 0.242,-2.371 -1.316,-1.578 -2.254,0.254 -4.543,-0.016 -6.805,-0.059 -2.684,-0.359 -5.402,0.051 -8.086,-0.383" style="fill:none;stroke:#000000;stroke-width:1.11499;stroke-linecap:round;stroke-linejoin:round;stroke-miterlimit:10;stroke-dasharray:none;stroke-opacity:1" id="path768" />
         </g>
         <g id="g770" transform="scale(1,-1)" style="stroke-width:0.852637">
            <path d="m 343.715,-705.848 c -0.149,-0.004 -0.727,0.114 -0.297,0.047 0.086,-0.004 0.418,0.063 0.25,-0.125 0.352,-0.074 -0.106,-0.265 -0.07,-0.285 0.175,-0.051 0.066,-0.094 -0.028,-0.035 0.121,0.082 -0.121,0.012 0.071,0.058 0.152,0 0.23,0.153 0.019,0.149 0.149,-0.094 0.145,-0.055 -0.012,-0.031 0.223,-0.063 -0.402,-0.059 -0.003,-0.071 0.191,-0.047 -0.106,0.125 0.121,0.071 -0.149,0.23 0.183,0.543 0.191,0.758 0.285,0.019 0.043,0.097 -0.055,0.054 0.227,-0.012 -0.011,-0.019 0,-0.039 0.176,-0.015 -0.074,-0.008 0.137,-0.07 -0.094,0.074 0.191,-0.059 -0.027,-0.043 0.242,-0.028 -0.473,-0.055 -0.114,-0.008 0.125,0.078 0.188,0.008 0.336,0.133 0.243,0 0.59,-0.145 0.864,-0.262 0.293,-0.094 -0.149,0.035 -0.071,0.012 -0.125,-0.145 0.555,-0.09 0.157,-0.141 -0.055,-0.051 -0.496,-0.125 -0.278,-0.066 -0.148,0.019 -0.629,-0.047 -0.418,-0.168 -0.105,-0.024 -0.461,0 -0.258,-0.192" style="fill:none;stroke:#000000;stroke-width:1.11499;stroke-linecap:round;stroke-linejoin:round;stroke-miterlimit:10;stroke-dasharray:none;stroke-opacity:1" id="path772" />
         </g>
         <g id="g774" transform="scale(1,-1)" style="stroke-width:0.852637">
            <path d="m 322.578,-695.25 c 2,-0.023 3.379,-0.312 4.824,-0.07 3.778,0.031 7.578,-0.629 11.328,-0.071 0.997,-0.41 1.805,-0.507 1.735,0.715 1.019,1.672 0.148,2.672 0.066,3.977 -1.332,0.726 -3.066,0.289 -4.562,0.515 -2.66,0.024 -5.321,0.008 -7.965,0.332 -1.606,-0.316 -4.336,0.79 -5.121,-0.882 0.312,-1.371 -0.809,-2.871 -0.297,-4.118 -0.547,0.094 -0.203,0.055 -0.074,0.047" style="fill:none;stroke:#000000;stroke-width:1.11499;stroke-linecap:round;stroke-linejoin:round;stroke-miterlimit:10;stroke-dasharray:none;stroke-opacity:1" id="path776" />
         </g>
         <g id="g778" transform="scale(1,-1)" style="stroke-width:0.852637">
            <path d="m 322.945,-681.34 c 1.418,-0.058 2.95,0.121 4.414,0.192 3.52,0.257 7.036,0.589 10.555,0.816 2.25953,-0.17602 1.57314,5.74244 1.934,7.129 0.132,0.855 -2.457,0.476 -3.539,0.558 -1.883,0.168 -3.723,-0.316 -5.602,-0.167 -1.574,-0.098 -3.113,0.195 -4.672,0.3 -1.555,-0.105 -3.137,-0.195 -4.687,-0.156 0.257,-0.18 0.679,-1.957 0.851,-2.957 0.375,-2.496 -0.039,-3.625 0.84,-5.941" style="fill:none;stroke:#000000;stroke-width:1.11499;stroke-linecap:round;stroke-linejoin:round;stroke-miterlimit:10;stroke-dasharray:none;stroke-opacity:1" id="path780" sodipodi:nodetypes="cccccccccc" />
         </g>
         <g id="g782" transform="scale(1,-1)" style="stroke-width:0.852637">
            <path d="m 321.457,-661.242 c 0.26853,0.0865 -1.84757,0.43774 -2.6723,0.13509 -0.86193,-0.21921 -1.89189,-0.55653 -0.6597,-1.34212 1.12541,-0.4101 3.02856,-0.11032 3.57134,-1.49116 0.10993,-0.21502 0.0641,-1.67004 -1.09399,-1.53535 -0.78874,-0.21692 -2.08193,-0.13187 -2.56735,0.51051" style="fill:none;stroke:#000000;stroke-width:1.11499;stroke-linecap:round;stroke-linejoin:round;stroke-miterlimit:10;stroke-dasharray:none;stroke-opacity:1" id="path784" />
         </g>
         <g id="g786" transform="scale(1,-1)" style="stroke-width:0.852637">
            <path d="m 325.984,-661.82 c -0.33068,-0.64636 -0.53166,-2.06209 0.649,-2.364 1.19225,-1.0861 2.23245,1.07003 1.04345,1.74103 0.009,0.57958 -1.52402,0.75466 -1.77445,0.88397" style="fill:none;stroke:#000000;stroke-width:1.11499;stroke-linecap:round;stroke-linejoin:round;stroke-miterlimit:10;stroke-dasharray:none;stroke-opacity:1" id="path788" />
         </g>
         <g id="g790" transform="scale(1,-1)" style="stroke-width:0.852637">
            <path d="m 332.43,-664.609 c -0.14336,0.2326 -0.0493,1.94291 -0.57801,2.625 -0.31157,1.15034 0.75742,-0.10866 1.4815,-0.21039 1.07232,-0.2829 2.1072,-1.82256 3.2039,-1.0137 -0.33637,0.44652 -0.34804,1.60547 0.0446,1.92709" style="fill:none;stroke:#000000;stroke-width:1.11499;stroke-linecap:round;stroke-linejoin:round;stroke-miterlimit:10;stroke-dasharray:none;stroke-opacity:1" id="path792" />
         </g>
         <g id="g794" transform="scale(1,-1)" style="stroke-width:0.852637">
            <path d="m 339.656,-661.406 c 0.73507,0.0327 2.46607,-0.82933 2.856,-1.117" style="fill:none;stroke:#000000;stroke-width:1.11499;stroke-linecap:round;stroke-linejoin:round;stroke-miterlimit:10;stroke-dasharray:none;stroke-opacity:1" id="path796" />
         </g>
         <g id="g798" transform="scale(1,-1)" style="stroke-width:0.852637">
            <path d="m 344.531,-661.281 c -0.7816,0.43777 -1.74356,-1.62723 -3.07,-1.485 0.0444,-0.0547 -0.50847,0.0479 -0.117,0.02" style="fill:none;stroke:#000000;stroke-width:1.11499;stroke-linecap:round;stroke-linejoin:round;stroke-miterlimit:10;stroke-dasharray:none;stroke-opacity:1" id="path800" />
         </g>
         <g id="g802" transform="scale(1,-1)" style="stroke-width:0.852637">
            <path d="m 341.672,-662.895 c 1.23868,0.28414 -0.24689,-0.90785 0.50363,-1.71779 -0.0308,-0.20387 -0.0179,-0.42732 -0.14063,-0.60621" style="fill:none;stroke:#000000;stroke-width:1.11499;stroke-linecap:round;stroke-linejoin:round;stroke-miterlimit:10;stroke-dasharray:none;stroke-opacity:1" id="path804" />
         </g>
         <g id="g806" transform="scale(1,-1)" style="stroke-width:0.852637">
            <path d="m 401.609,-674.762 c -0.49534,0.9974 1.07203,-1.09363 1.35675,-1.47466 1.50054,-1.72745 1.19923,0.81441 1.50974,1.97938 0.34466,0.33421 0.0703,0.93102 0.70454,0.90932" style="fill:none;stroke:#000000;stroke-width:1.11499;stroke-linecap:round;stroke-linejoin:round;stroke-miterlimit:10;stroke-dasharray:none;stroke-opacity:1" id="path808" />
         </g>
         <g id="g810" transform="scale(1,-1)" style="stroke-width:0.852637">
            <path d="m 407.043,-674.469 c -0.5668,-0.62389 1.00356,-1.63942 0.34402,-2.531 l 0.195,-0.02" style="fill:none;stroke:#000000;stroke-width:1.11499;stroke-linecap:round;stroke-linejoin:round;stroke-miterlimit:10;stroke-dasharray:none;stroke-opacity:1" id="path812" />
         </g>
         <g id="g814" transform="scale(1,-1)" style="stroke-width:0.852637">
            <path d="m 410.156,-674.633 c -0.65163,0.70772 -1.88817,-1.49562 -0.57472,-1.70465 1.38862,-1.05014 2.76054,1.1486 1.76281,2.19042 0.371,0.64753 -1.83009,2.37215 -1.04705,2.01423" style="fill:none;stroke:#000000;stroke-width:1.11499;stroke-linecap:round;stroke-linejoin:round;stroke-miterlimit:10;stroke-dasharray:none;stroke-opacity:1" id="path816" />
         </g>
         <g id="g818" transform="scale(1,-1)" style="stroke-width:0.852637">
            <path d="m 413.652,-675.137 c -1.22471,-0.84417 2.23011,0.23295 0.61374,0.9221 -1.59278,-0.21552 -1.5912,-2.41634 0.29662,-2.33839 l 0.32064,0.002" style="fill:none;stroke:#000000;stroke-width:1.11499;stroke-linecap:round;stroke-linejoin:round;stroke-miterlimit:10;stroke-dasharray:none;stroke-opacity:1" id="path820" />
         </g>
         <g id="g822" transform="scale(1,-1)" style="stroke-width:0.852637">
            <path d="m 418.23,-674.621 c -2.20786,0.0182 0.35586,-2.62185 1.31539,-1.49995 1.28524,0.59052 -1.75776,2.0326 -2.43639,1.78893" style="fill:none;stroke:#000000;stroke-width:1.11499;stroke-linecap:round;stroke-linejoin:round;stroke-miterlimit:10;stroke-dasharray:none;stroke-opacity:1" id="path824" />
         </g>
         <g id="g826" transform="scale(1,-1)" style="stroke-width:0.852637">
            <path d="m 422.113,-671.148 c -1.33971,0.34172 0.0207,-2.2313 -0.41732,-3.34533 0.19303,-0.86984 0.80642,-2.55134 0.65056,-2.3736 l 0.0637,0.10088" style="fill:none;stroke:#000000;stroke-width:1.11499;stroke-linecap:round;stroke-linejoin:round;stroke-miterlimit:10;stroke-dasharray:none;stroke-opacity:1" id="path828" />
         </g>
         <g id="g830" transform="scale(1,-1)" style="stroke-width:0.852637">
            <path d="m 424.656,-671.242 c 0.40758,-0.91105 1.03715,-2.2959 1.28628,-3.58233 0.3135,-0.65336 0.0591,-2.07643 0.42872,-1.71467" style="fill:none;stroke:#000000;stroke-width:1.11499;stroke-linecap:round;stroke-linejoin:round;stroke-miterlimit:10;stroke-dasharray:none;stroke-opacity:1" id="path832" />
         </g>
         <g id="g834" transform="scale(1,-1)" style="stroke-width:0.852637">
            <path d="m 423.047,-674.707 c 0.2314,0.27996 2.01635,0.39744 2.781,0.211" style="fill:none;stroke:#000000;stroke-width:1.11499;stroke-linecap:round;stroke-linejoin:round;stroke-miterlimit:10;stroke-dasharray:none;stroke-opacity:1" id="path836" />
         </g>
         <g id="g838" transform="scale(1,-1)" style="stroke-width:0.852637">
            <path d="m 429.738,-674.816 c -1.04034,0.95298 0.1594,-1.89917 -0.109,-1.844" style="fill:none;stroke:#000000;stroke-width:1.11499;stroke-linecap:round;stroke-linejoin:round;stroke-miterlimit:10;stroke-dasharray:none;stroke-opacity:1" id="path840" />
         </g>
         <g id="g842" transform="scale(1,-1)" style="stroke-width:0.852637">
            <path d="m 427.285,-672.605 c 0.0273,0.1 0.0422,0.004 0.102,0.16" style="fill:none;stroke:#000000;stroke-width:1.11499;stroke-linecap:round;stroke-linejoin:round;stroke-miterlimit:10;stroke-dasharray:none;stroke-opacity:1" id="path844" />
         </g>
         <g id="g846" transform="scale(1,-1)" style="stroke-width:0.852637">
            <path d="m 434.398,-671.941 c -0.42585,0.62218 -2.05359,0.41241 -2.69537,-0.83124 0.50422,-1.2998 3.74022,-0.96203 4.95337,-2.30176 1.74455,-1.10105 -0.80956,-3.05175 -2.164,-2.117 -1.11982,1.25084 0.87561,2.69871 0.58815,4.181 -0.57335,0.9165 0.28075,1.4551 -0.95115,1.662" style="fill:none;stroke:#000000;stroke-width:1.11499;stroke-linecap:round;stroke-linejoin:round;stroke-miterlimit:10;stroke-dasharray:none;stroke-opacity:1" id="path848" />
         </g>
         <g id="g850" transform="scale(1,-1)" style="stroke-width:0.852637">
            <path d="m 362.738,-695.375 c 0.0989,-0.9792 0.3205,-2.51795 0.22524,-3.73862 0.0833,-0.10094 -0.12821,-0.69968 0.10649,-0.29638" style="fill:none;stroke:#000000;stroke-width:1.11499;stroke-linecap:round;stroke-linejoin:round;stroke-miterlimit:10;stroke-dasharray:none;stroke-opacity:1" id="path852" sodipodi:nodetypes="ccc" />
         </g>
         <g id="g854" transform="scale(1,-1)" style="stroke-width:0.852637">
            <path d="m 366.695,-695.121 c -0.7556,-0.0326 0.34574,-0.73686 0.11347,-1.10988 0.67753,-0.9325 0.40756,-2.17673 0.16042,-3.16857 l 0.0942,-0.0578 0.19097,-0.0348" style="fill:none;stroke:#000000;stroke-width:1.11499;stroke-linecap:round;stroke-linejoin:round;stroke-miterlimit:10;stroke-dasharray:none;stroke-opacity:1" id="path856" sodipodi:nodetypes="ccccc" />
         </g>
         <g id="g858" transform="scale(1,-1)" style="stroke-width:0.852637">
            <path d="m 364.102,-698.406 c 0.92437,0.23223 1.89956,0.21426 2.843,0.25426" style="fill:none;stroke:#000000;stroke-width:1.11499;stroke-linecap:round;stroke-linejoin:round;stroke-miterlimit:10;stroke-dasharray:none;stroke-opacity:1" id="path860" sodipodi:nodetypes="cc" />
         </g>
         <g id="g862" transform="scale(1,-1)" style="stroke-width:0.852637">
            <path d="m 370.59,-698.285 c 0.22178,-0.39846 0.7477,-0.94643 0.26507,-1.324" style="fill:none;stroke:#000000;stroke-width:1.11499;stroke-linecap:round;stroke-linejoin:round;stroke-miterlimit:10;stroke-dasharray:none;stroke-opacity:1" id="path864" sodipodi:nodetypes="cc" />
         </g>
         <g id="g866" transform="scale(1,-1)" style="stroke-width:0.852637">
            <path d="m 369.586,-695.945 c -0.16526,-0.036 -0.27505,0.0649 -0.051,-0.0205" style="fill:none;stroke:#000000;stroke-width:1.11499;stroke-linecap:round;stroke-linejoin:round;stroke-miterlimit:10;stroke-dasharray:none;stroke-opacity:1" id="path868" sodipodi:nodetypes="cc" />
         </g>
         <g id="g870" transform="scale(1,-1)" style="stroke-width:0.852637">
            <path d="m 377.133,-695.367 c -0.9667,0.17842 -2.84539,-0.3002 -3.11329,-1.14763 1.07519,-0.85425 2.57541,-0.66005 3.71533,-1.36235 1.08009,-1.21014 -1.042,-1.77686 -1.85922,-2.25762 -0.96783,0.28529 0.46218,1.57683 0.1221,2.2477 0.74425,1.14078 1.08846,1.3017 1.13508,2.5199" style="fill:none;stroke:#000000;stroke-width:1.11499;stroke-linecap:round;stroke-linejoin:round;stroke-miterlimit:10;stroke-dasharray:none;stroke-opacity:1" id="path872" sodipodi:nodetypes="cccccc" />
         </g>
         <g id="g874" transform="scale(1,-1)" style="stroke-width:0.852637">
            <path d="m 529.605,-679.992 c 0.493,-0.817 1.637,-0.43 2.329,-0.981 1.711,-0.754 3.742,-0.808 5.211,-2.066 0.195,-0.129 1.023,-0.652 1.253,-0.695" style="fill:none;stroke:#000000;stroke-width:1.11499;stroke-linecap:round;stroke-linejoin:round;stroke-miterlimit:10;stroke-dasharray:none;stroke-opacity:1" id="path876" sodipodi:nodetypes="cccc" />
         </g>
         <g id="g878" transform="scale(1,-1)" style="stroke-width:0.852637">
            <path d="m 538.398,-683.734 c -1.277,-1.262 -3.164,-1.43 -4.789,-1.969 -1.105,-0.231 -2.285,-1.07 -3.414,-0.488" style="fill:none;stroke:#000000;stroke-width:1.11499;stroke-linecap:round;stroke-linejoin:round;stroke-miterlimit:10;stroke-dasharray:none;stroke-opacity:1" id="path880" />
         </g>
         <g id="g882" transform="scale(1,-1)" style="stroke-width:0.852637">
            <path d="m 530.195,-686.191 c 0.414,1.383 -0.261,4.843 -0.59,6.199" style="fill:none;stroke:#000000;stroke-width:1.11499;stroke-linecap:round;stroke-linejoin:round;stroke-miterlimit:10;stroke-dasharray:none;stroke-opacity:1" id="path884" sodipodi:nodetypes="cc" />
         </g>
         <g id="g886" transform="scale(1,-1)" style="stroke-width:0.852637">
            <path d="m 513.305,-693.043 c 4.007,0.254 8.011,-0.18 12.023,-0.172 4.649,-0.324 9.317,-0.41 13.942,-0.984 3.578,-0.184 7.152,-0.336 10.73,-0.465 -0.105,-0.027 -0.211,-0.051 -0.316,-0.078" style="fill:none;stroke:#000000;stroke-width:1.11499;stroke-linecap:round;stroke-linejoin:round;stroke-miterlimit:10;stroke-dasharray:none;stroke-opacity:1" id="path888" />
         </g>
         <g id="g890" transform="scale(1,-1)" style="stroke-width:0.852637">
            <path d="m 531.125,-704.141 c 0.937,0.34 0.184,-1.488 -0.105,-2.011 -0.383,-0.778 -0.317,-2.067 0.863,-1.575 1.633,0.122 3.277,0.11 4.894,-0.152 0.457,1.082 0.528,2.309 0.59,3.469 -0.242,1.512 -2.121,0.547 -3.164,0.754 -1.08556,-0.089 -2.15685,-0.36459 -3.246,-0.375" style="fill:none;stroke:#000000;stroke-width:1.11499;stroke-linecap:round;stroke-linejoin:round;stroke-miterlimit:10;stroke-dasharray:none;stroke-opacity:1" id="path892" sodipodi:nodetypes="ccccccc" />
         </g>
         <g id="g894" transform="scale(1,-1)" style="stroke-width:0.852637">
            <path d="m 529.422,-699.695 c -0.899,0.203 1.398,0.324 1.789,0.293 2.082,0.007 4.164,-0.293 6.242,-0.051" style="fill:none;stroke:#000000;stroke-width:1.11499;stroke-linecap:round;stroke-linejoin:round;stroke-miterlimit:10;stroke-dasharray:none;stroke-opacity:1" id="path896" />
         </g>
         <g id="g898" transform="scale(1,-1)" style="stroke-width:0.852637">
            <path d="m 530.797,-676.805 c -0.274,-0.343 1.441,0.106 1.883,0.004 1.566,0.031 3.121,-0.289 4.687,-0.148" style="fill:none;stroke:#000000;stroke-width:1.11499;stroke-linecap:round;stroke-linejoin:round;stroke-miterlimit:10;stroke-dasharray:none;stroke-opacity:1" id="path900" />
         </g>
      </g>
   </g>
</svg>
