<?xml version="1.0" encoding="UTF-8" standalone="no"?>
<!-- Created by Ashley Blewer - This work is licensed under a Creative Commons Attribution 4.0 International License -->

<svg width="544" height="480" viewBox="0 0 143.93334 127" version="1.1" id="svg2490" inkscape:version="1.1.2 (08b2f3d93c, 2022-04-05)" sodipodi:docname="1991-digital8-4.svg"
   xmlns:inkscape="http://www.inkscape.org/namespaces/inkscape"
   xmlns:sodipodi="http://sodipodi.sourceforge.net/DTD/sodipodi-0.dtd"
   xmlns="http://www.w3.org/2000/svg"
   xmlns:svg="http://www.w3.org/2000/svg">
   <sodipodi:namedview id="namedview2492" pagecolor="#ffffff" bordercolor="#666666" borderopacity="1.0" inkscape:pageshadow="2" inkscape:pageopacity="0.0" inkscape:pagecheckerboard="0" inkscape:document-units="mm" showgrid="false" units="px" inkscape:zoom="0.90583674" inkscape:cx="279.29978" inkscape:cy="194.84747" inkscape:window-width="1848" inkscape:window-height="1136" inkscape:window-x="72" inkscape:window-y="27" inkscape:window-maximized="1" inkscape:current-layer="layer1" />
   <defs id="defs2487" />
   <g inkscape:label="Layer 1" inkscape:groupmode="layer" id="layer1">
      <g id="g2946" transform="matrix(0.42253169,0,0,0.42253169,-333.95029,-187.27753)">
         <g id="g1956" transform="scale(1,-1)">
            <path d="m 830.348,-715.188 -12.18,18.77" style="fill:none;stroke:#000000;stroke-width:2.61538;stroke-linecap:round;stroke-linejoin:round;stroke-miterlimit:10;stroke-dasharray:none;stroke-opacity:1" id="path1958" sodipodi:nodetypes="cc" />
         </g>
         <g id="g1960" transform="scale(1,-1)">
            <path d="m 818.168,-696.418 c -0.59757,20.19721 -2.58431,40.36331 -3.44318,60.56538 -0.9754,18.13963 -1.60814,37.38249 -1.57282,54.87262" style="fill:none;stroke:#000000;stroke-width:2.61538;stroke-linecap:round;stroke-linejoin:round;stroke-miterlimit:10;stroke-dasharray:none;stroke-opacity:1" id="path1962" />
         </g>
         <g id="g1964" transform="scale(1,-1)">
            <path d="m 816.242,-586.145 c -0.97534,3.21745 -1.1249,7.41439 -1.64862,11.03299 -1.7946,16.95158 -2.98568,34.00745 -2.78739,51.05953 0.6551,1.85184 -0.5611,5.19857 1.14701,5.40748" style="fill:none;stroke:#000000;stroke-width:2.61538;stroke-linecap:round;stroke-linejoin:round;stroke-miterlimit:10;stroke-dasharray:none;stroke-opacity:1" id="path1966" />
         </g>
         <g id="g1968" transform="scale(1,-1)">
            <path d="m 812.695,-518.297 c 0.81743,-1.22777 2.20305,-1.8944 3.16265,-2.99115 1.9092,-1.77568 3.92754,-3.43559 5.779,-5.27186 0.64724,-0.75094 1.19088,-1.68583 2.11735,-2.12383" style="fill:none;stroke:#000000;stroke-width:2.61538;stroke-linecap:round;stroke-linejoin:round;stroke-miterlimit:10;stroke-dasharray:none;stroke-opacity:1" id="path1970" />
         </g>
         <g id="g1972" transform="scale(1,-1)">
            <path d="m 823.316,-530.293 c -0.14492,-19.90224 3.96406,-39.65478 2.78603,-59.582 0.22546,-7.04852 -8.67214,-3.87501 -9.45771,1.17116 -3.04684,4.63916 -3.04035,10.4297 -3.09729,15.74284" style="fill:none;stroke:#000000;stroke-width:2.61538;stroke-linecap:round;stroke-linejoin:round;stroke-miterlimit:10;stroke-dasharray:none;stroke-opacity:1" id="path1974" />
         </g>
         <g id="g1976" transform="scale(1,-1)">
            <path d="m 817.648,-566.652 h -0.015 l -0.028,-0.008 -0.027,-0.012 -0.043,-0.008 0.004,-0.035 -0.031,-0.008 -0.059,-0.007 0.008,-0.028 -0.012,-0.004 -0.007,-0.015 -0.004,-0.004 -0.059,-0.016 -0.047,-0.004 0.043,-0.008 0.016,-0.011 0.011,0.004 0.016,-0.02 0.008,0.004 -0.031,-0.004 v 0.016 l 0.058,0.004 h 0.024 l 0.019,0.011 0.016,0.016 0.027,-0.004 h 0.039 l 0.008,-0.008 0.008,0.016 0.004,0.004 -0.059,0.015 -0.094,0.004 0.028,-0.015 0.054,-0.004 0.012,-0.02 0.008,-0.008 0.008,0.012 0.176,-0.004 0.128,-0.004 -0.105,0.004 -0.051,0.004 h -0.023 l -0.016,0.004 0.016,-0.012 0.004,-0.047 -0.028,-0.015 v -0.016 l 0.004,-0.019 0.004,-0.036 -0.004,-0.039 0.008,-0.05 0.016,-0.063 0.023,-0.074 0.012,-0.047 0.019,-0.043 0.012,-0.039 0.027,-0.043 0.012,-0.019 -0.004,-0.024 0.02,-0.012 0.004,-0.019 -0.047,-0.004 -0.035,-0.02 0.019,-0.015 v -0.031 h 0.02 l -0.059,-0.008 -0.027,-0.035 0.051,-0.016 -0.012,0.016 0.008,-0.02 0.004,-0.019 0.043,0.007 0.066,0.004 -0.012,0.035 -0.039,-0.015 -0.008,-0.039" style="fill:none;stroke:#000000;stroke-width:2.61538;stroke-linecap:round;stroke-linejoin:round;stroke-miterlimit:10;stroke-dasharray:none;stroke-opacity:1" id="path1978" />
         </g>
         <g id="g1980" transform="scale(1,-1)">
            <path d="m 828.23,-586.535 c 0.41771,-5.45754 -0.007,-10.91644 -0.01,-16.37091 0.0226,-3.11682 0.48863,-6.27693 0.0753,-9.37509" style="fill:none;stroke:#000000;stroke-width:2.61538;stroke-linecap:round;stroke-linejoin:round;stroke-miterlimit:10;stroke-dasharray:none;stroke-opacity:1" id="path1982" />
         </g>
         <g id="g1984" transform="scale(1,-1)">
            <path d="m 827.598,-604.012 c -1.79997,4.69245 -5.78203,7.97059 -8.72427,11.90211 -0.57316,0.65613 -1.17455,1.28941 -1.82673,1.8679" style="fill:none;stroke:#000000;stroke-width:2.61538;stroke-linecap:round;stroke-linejoin:round;stroke-miterlimit:10;stroke-dasharray:none;stroke-opacity:1" id="path1986" />
         </g>
         <g id="g1988" transform="scale(1,-1)">
            <path d="m 814.168,-589.949 c 1.88533,-3.04499 1.00551,-6.98294 2.9494,-10.01011 2.014,-3.90479 5.7147,-6.73155 7.26886,-10.90354 0.84728,-1.41994 2.21644,-2.4384 3.04391,-3.87138" style="fill:none;stroke:#000000;stroke-width:2.61538;stroke-linecap:round;stroke-linejoin:round;stroke-miterlimit:10;stroke-dasharray:none;stroke-opacity:1" id="path1990" />
         </g>
         <g id="g1992" transform="scale(1,-1)">
            <path d="m 828.2953,-612.281 c 0,0 5.10885,-69.64782 2.79469,-103.547" style="fill:none;stroke:#000000;stroke-width:2.61538;stroke-linecap:round;stroke-linejoin:round;stroke-miterlimit:10;stroke-dasharray:none;stroke-opacity:1" id="path1994" sodipodi:nodetypes="cc" />
         </g>
         <g id="g1996" transform="scale(1,-1)">
            <path d="m 828.613,-699.73 c -2.38342,4.55109 -5.53216,10.29598 -7.886,14.847" style="fill:none;stroke:#000000;stroke-width:2.61538;stroke-linecap:round;stroke-linejoin:round;stroke-miterlimit:10;stroke-dasharray:none;stroke-opacity:1" id="path1998" sodipodi:nodetypes="cc" />
         </g>
         <g id="g2000" transform="scale(1,-1)">
            <path d="m 820.727,-684.883 c 0.16294,12.09736 -0.81592,24.168 -1.14901,36.254 -0.01,0.16422 0.31574,0.31164 0.063,0.488" style="fill:none;stroke:#000000;stroke-width:2.61538;stroke-linecap:round;stroke-linejoin:round;stroke-miterlimit:10;stroke-dasharray:none;stroke-opacity:1" id="path2002" sodipodi:nodetypes="ccc" />
         </g>
         <g id="g2004" transform="scale(1,-1)">
            <path d="m 819.64099,-648.141 c 2.36471,-3.09445 5.26902,-9.58153 6.85101,-13.129" style="fill:none;stroke:#000000;stroke-width:2.61538;stroke-linecap:round;stroke-linejoin:round;stroke-miterlimit:10;stroke-dasharray:none;stroke-opacity:1" id="path2006" sodipodi:nodetypes="cc" />
         </g>
         <g id="g2008" transform="scale(1,-1)">
            <path d="m 826.492,-661.27 c -0.62572,-12.64843 1.52996,-25.19576 1.81298,-37.812" style="fill:none;stroke:#000000;stroke-width:2.61538;stroke-linecap:round;stroke-linejoin:round;stroke-miterlimit:10;stroke-dasharray:none;stroke-opacity:1" id="path2010" sodipodi:nodetypes="cc" />
         </g>
         <g id="g2012" transform="scale(1,-1)">
            <path d="m 838.172,-692.078 c -6.05971,0.88618 -0.0546,10.54967 3.26578,4.46128 1.57603,-2.72698 -1.08802,-4.67829 -3.26578,-4.46128" style="fill:none;stroke:#000000;stroke-width:2.61538;stroke-linecap:round;stroke-linejoin:round;stroke-miterlimit:10;stroke-dasharray:none;stroke-opacity:1" id="path2014" sodipodi:nodetypes="ccc" />
         </g>
         <g id="g2016" transform="scale(1,-1)">
            <path d="m 848.608,-700.38285 c -6.39574,0.17843 -0.27429,10.37262 2.8822,5.48168 2.41074,-3.4406 -3.01912,-7.60796 -5.67023,-4.26286" style="fill:none;stroke:#000000;stroke-width:2.61538;stroke-linecap:round;stroke-linejoin:round;stroke-miterlimit:10;stroke-dasharray:none;stroke-opacity:1" id="path2018" sodipodi:nodetypes="ccc" />
         </g>
         <g id="g2020" transform="scale(1,-1)">
            <path d="m 840.465,-710.867 c -6.44138,0.1203 -2.04273,10.26876 2.65265,5.3734 3.42049,-3.26562 -2.52156,-7.00539 -4.7857,-4.10843" style="fill:none;stroke:#000000;stroke-width:2.61538;stroke-linecap:round;stroke-linejoin:round;stroke-miterlimit:10;stroke-dasharray:none;stroke-opacity:1" id="path2022" />
         </g>
         <g id="g2024" transform="scale(1,-1)">
            <path d="m 860.02,-705.762 c -4.68402,-1.46731 -5.74976,6.19897 -0.95953,6.48387 4.82989,0.79308 4.98735,-5.6423 0.20913,-5.75659 -1.18662,-0.34488 -1.31628,-1.41343 -1.99816,-0.0782" style="fill:none;stroke:#000000;stroke-width:2.61538;stroke-linecap:round;stroke-linejoin:round;stroke-miterlimit:10;stroke-dasharray:none;stroke-opacity:1" id="path2026" sodipodi:nodetypes="cccc" />
         </g>
         <g id="g2028" transform="scale(1,-1)" />
         <g id="g2032" transform="scale(1,-1)">
            <path d="m 831.223,-716.238 c 84.78153,14.29341 170.8739,30.07909 255.396,45.851 l 0.8131,1.46869 v 0.66831" style="fill:none;stroke:#000000;stroke-width:2.61538;stroke-linecap:round;stroke-linejoin:round;stroke-miterlimit:10;stroke-dasharray:none;stroke-opacity:1" id="path2034" sodipodi:nodetypes="cccc" />
         </g>
         <g id="g2036" transform="scale(1,-1)">
            <path d="m 812.75,-517.82 c 92.51917,8.71635 184.98472,19.81069 277.6993,25.32398 l 2.8357,-1.69198" style="fill:none;stroke:#000000;stroke-width:2.61538;stroke-linecap:round;stroke-linejoin:round;stroke-miterlimit:10;stroke-dasharray:none;stroke-opacity:1" id="path2038" />
         </g>
         <g id="g2040" transform="scale(1,-1)">
            <path d="m 1107.281,-501.305 c -5.4188,4.84291 -10.6359,5.33082 -16.8317,8.80898" style="fill:none;stroke:#000000;stroke-width:2.61538;stroke-linecap:round;stroke-linejoin:round;stroke-miterlimit:10;stroke-dasharray:none;stroke-opacity:1" id="path2042" sodipodi:nodetypes="cc" />
         </g>
         <g id="g2044" transform="scale(1,-1)">
            <path d="m 821.496,-527.383 c 8.84697,1.66841 25.23823,11.05693 34.16958,4.07539 53.04281,6.30056 106.40217,9.58685 159.61602,14.16207 21.5114,1.52175 40.4197,2.2537 61.978,2.77936 -10.2112,4.36533 15.9838,2.7984 21.3724,5.16718" style="fill:none;stroke:#000000;stroke-width:2.61538;stroke-linecap:round;stroke-linejoin:round;stroke-miterlimit:10;stroke-dasharray:none;stroke-opacity:1" id="path2046" sodipodi:nodetypes="ccccc" />
         </g>
         <g id="g2048" transform="scale(1,-1)">
            <path d="m 1104.883,-499.363 c 2.8184,-1.2244 5.7278,-3.93562 5.1094,-7.29878 -0.2666,-13.67664 -3.3075,-27.08148 -5.8249,-40.46555 -0.5661,-2.72742 -0.9029,-5.62368 -2.7465,-7.84882 -0.5825,-0.7094 -1.8697,-3.57422 -2.1535,-2.71278 0.334,5.70038 2.0637,11.2085 2.4633,16.90549 0.2805,2.35828 0.5909,4.73564 0.4146,7.11452 -2.8539,0.84651 -1.2846,4.17933 -0.9653,6.17573 0.9709,6.6025 1.7605,13.26038 1.8392,19.93718 -0.3305,2.55868 -2.3237,4.39418 -3.6413,6.47001" style="fill:none;stroke:#000000;stroke-width:2.61538;stroke-linecap:round;stroke-linejoin:round;stroke-miterlimit:10;stroke-dasharray:none;stroke-opacity:1" id="path2050" />
         </g>
         <g id="g2052" transform="scale(1,-1)">
            <path d="m 1099.2675,-557.68893 c 0.3937,-1.1269 -1.3405,-3.23694 -1.1322,-4.50901 0.2887,-0.88096 -0.1764,-2.69286 1.1495,-2.68011 0.9458,0.11094 2.1093,0.86528 1.9902,-0.64367 0.149,-1.14622 0.696,-2.35502 0.2365,-3.49026 -0.8483,-0.59558 -1.9838,0.11736 -2.8692,0.39918 l -0.1445,0.0444 -0.1458,0.0377" style="fill:none;stroke:#000000;stroke-width:2.61538;stroke-linecap:round;stroke-linejoin:round;stroke-miterlimit:10;stroke-dasharray:none;stroke-opacity:1" id="path2054" sodipodi:nodetypes="cccccccc" />
         </g>
         <g id="g2056" transform="scale(1,-1)">
            <path d="m 1097.367,-569.078 c 0.068,-5.65319 4.059,-11.31233 1.6082,-17.6644 -1.5187,-11.08826 -3.4611,-22.11495 -4.1317,-33.29931 -0.9412,-9.52784 -2.4342,-18.99641 -3.7352,-28.45876 -0.722,-6.99947 -0.5242,-14.27899 -2.4482,-21.04353 l -0.5918,-0.64604 -0.8163,-0.37196" style="fill:none;stroke:#000000;stroke-width:2.61538;stroke-linecap:round;stroke-linejoin:round;stroke-miterlimit:10;stroke-dasharray:none;stroke-opacity:1" id="path2058" />
         </g>
         <g id="g2060" transform="scale(1,-1)">
            <path d="m 1087.867,-647.473 c -4.2262,0.0922 -2.8484,8.65812 0.9606,5.06392 1.977,-1.77078 0.2315,-6.59513 -2.9754,-4.01794" style="fill:none;stroke:#000000;stroke-width:2.61538;stroke-linecap:round;stroke-linejoin:round;stroke-miterlimit:10;stroke-dasharray:none;stroke-opacity:1" id="path2062" sodipodi:nodetypes="ccc" />
         </g>
         <g id="g2064" transform="scale(1,-1)">
            <path d="m 1080.219,-656.32 c -3.933,2.06206 0.7743,8.4264 3.2693,3.95416 1.3359,-2.39548 -1.5854,-5.64038 -3.6919,-3.06416" style="fill:none;stroke:#000000;stroke-width:2.61538;stroke-linecap:round;stroke-linejoin:round;stroke-miterlimit:10;stroke-dasharray:none;stroke-opacity:1" id="path2066" sodipodi:nodetypes="ccc" />
         </g>
         <g id="g2068" transform="scale(1,-1)">
            <path d="m 1085.012,-665.449 c -4.8616,2.04941 1.7048,8.90858 2.5299,2.76033 -0.048,-2.37153 -3.5152,-3.18484 -4.6389,-1.08833" style="fill:none;stroke:#000000;stroke-width:2.61538;stroke-linecap:round;stroke-linejoin:round;stroke-miterlimit:10;stroke-dasharray:none;stroke-opacity:1" id="path2070" sodipodi:nodetypes="ccc" />
         </g>
         <g id="g2072" transform="scale(1,-1)">
            <path d="m 1070.07,-666.434 c -5.3836,0.34766 0.057,8.14343 2.7323,3.52065 2.4128,-2.59676 -2.0399,-5.32209 -3.5937,-2.30565" style="fill:none;stroke:#000000;stroke-width:2.61538;stroke-linecap:round;stroke-linejoin:round;stroke-miterlimit:10;stroke-dasharray:none;stroke-opacity:1" id="path2074" sodipodi:nodetypes="ccc" />
         </g>
         <g id="g2076" transform="scale(1,-1)">
            <path d="m 966.363,-679.523 c 0.39999,2.60751 0.55567,4.41255 0.80158,6.33984 -0.1363,1.31954 -0.43045,2.62889 -0.25312,3.96322 0.35718,1.41259 -0.16464,2.39013 0.0894,4.30294 0,0 5.5332,1.02381 8.37188,1.65606 0.31492,-1.27474 -0.0169,-2.75718 0.23206,-4.11001 -0.21576,-1.79298 -0.46476,-3.57359 -0.56553,-5.37586 l -0.0595,-6.06626 c -2.08292,-0.22891 -7.31116,-0.22437 -8.61676,-0.70993" style="fill:none;stroke:#000000;stroke-width:2.61538;stroke-linecap:round;stroke-linejoin:round;stroke-miterlimit:10;stroke-dasharray:none;stroke-opacity:1" id="path2078" sodipodi:nodetypes="ccccccccc" />
         </g>
         <g id="g2080" transform="scale(1,-1)">
            <path d="m 968.21412,-672.5174 c 0,0 4.77773,0.49557 6.49689,0.76369" style="fill:none;stroke:#000000;stroke-width:2.61538;stroke-linecap:round;stroke-linejoin:round;stroke-miterlimit:10;stroke-dasharray:none;stroke-opacity:1" id="path2082" sodipodi:nodetypes="cc" />
         </g>
         <g id="g2084" transform="scale(1,-1)">
            <path d="m 855.66558,-523.30761 c 6.67172,-4.45979 8.03179,-15.77488 8.69451,-22.6565 1.03502,-6.08445 -2.18577,-15.61723 0.49615,-19.77595 6.71407,4.90374 10.16845,-6.87369 16.61648,-1.85349 19.64592,4.24908 40.72061,5.5637 59.79738,-1.88553 1.85108,0.16139 7.96585,-5.39811 6.5149,-5.22792" style="fill:none;stroke:#000000;stroke-width:2.61538;stroke-linecap:round;stroke-linejoin:round;stroke-miterlimit:10;stroke-dasharray:none;stroke-opacity:1" id="path2086" sodipodi:nodetypes="cccccc" />
         </g>
         <g id="g2088" transform="scale(1,-1)">
            <path d="m 947.785,-574.707 c 10.05076,1.69352 20.20058,2.71518 30.30626,4.02167 8.13202,1.0393 16.28813,1.95419 24.36574,3.36933" style="fill:none;stroke:#000000;stroke-width:2.61538;stroke-linecap:round;stroke-linejoin:round;stroke-miterlimit:10;stroke-dasharray:none;stroke-opacity:1" id="path2090" />
         </g>
         <g id="g2092" transform="scale(1,-1)">
            <path d="m 1002.762,-566.992 c 9.0898,12.37455 24.7233,17.01686 39.3076,18.69111 9.4621,1.33446 19.053,2.11678 28.2914,4.68789 4.3279,7.74025 3.6043,17.04046 4.9166,25.56807 0.7761,4.30343 -0.082,11.51578 1.3464,14.09993" style="fill:none;stroke:#000000;stroke-width:2.61538;stroke-linecap:round;stroke-linejoin:round;stroke-miterlimit:10;stroke-dasharray:none;stroke-opacity:1" id="path2094" />
         </g>
         <g id="g2096" transform="scale(1,-1)">
            <path d="m 1072.836,-546.535 c -0.1474,-0.77827 -1.0508,0.66811 -1.6609,0.17846 -1.668,-0.0443 -3.1403,-1.46087 -3.476,-3.05013 -0.1827,-1.18574 0.4624,-2.21963 1.3935,-2.89972 0.7375,-0.96722 2.2092,-0.7365 2.8932,0.16428 1.1442,0.8623 2.3091,1.86496 2.8435,3.22702 0.4163,1.45326 -1.0286,2.50071 -2.0742,3.20749 -0.2342,0.40621 -2.0225,-1.14245 -1.58,-0.64894" style="fill:none;stroke:#000000;stroke-width:2.61538;stroke-linecap:round;stroke-linejoin:round;stroke-miterlimit:10;stroke-dasharray:none;stroke-opacity:1" id="path2098" sodipodi:nodetypes="cccccccc" />
         </g>
         <g id="g2100" transform="scale(1,-1)">
            <path d="m 870.559,-568.684 c -1.15348,-0.46195 -2.67451,0.49082 -3.65381,-0.78519 -0.99594,-0.79545 -2.40178,-1.49802 -2.68245,-2.84245 -0.17796,-1.18381 -0.11381,-2.61298 1.17987,-3.14189 2.18495,-1.19832 4.87744,-0.63775 6.97608,0.4722 1.5552,0.34352 2.21889,2.18765 1.03594,3.33616 -0.6447,1.23652 -1.87706,1.98362 -2.98359,2.78372" style="fill:none;stroke:#000000;stroke-width:2.61538;stroke-linecap:round;stroke-linejoin:round;stroke-miterlimit:10;stroke-dasharray:none;stroke-opacity:1" id="path2102" sodipodi:nodetypes="ccccccc" />
         </g>
         <g id="g2104" transform="scale(1,-1)">
            <path d="m 979.055,-576.328 c -1.81193,0.81541 -4.56547,-0.19053 -6.38799,-1.223 -2.87073,-1.78294 -5.41003,-4.60477 -6.03602,-8.00643 -0.49761,-3.65372 2.63876,-7.27983 6.34319,-7.21407 3.00113,-0.0204 6.00175,1.20702 8.19994,3.21308 1.6507,1.82104 3.16905,4.1931 2.59078,6.76472 -0.49023,2.13608 -1.57297,4.23697 -3.20824,5.71205 -0.61033,0.4527 -1.30753,0.77292 -2.01763,1.03465" style="fill:none;stroke:#000000;stroke-width:2.61538;stroke-linecap:round;stroke-linejoin:round;stroke-miterlimit:10;stroke-dasharray:none;stroke-opacity:1" id="path2106" />
         </g>
         <g id="g2108" transform="scale(1,-1)">
            <path d="m 975.168,-599.172 c 0.85089,0.49186 -0.36853,1.16202 -0.63467,0.33042 -1.10778,-0.6517 -2.03506,-1.65045 -2.13266,-2.98642 -0.31492,-1.36965 1.04936,-2.72188 2.41142,-2.29026 0.95876,0.36702 2.56444,1.08154 2.09799,2.37338 -0.56496,0.86175 -0.80607,2.02226 -1.67705,2.63931 -0.17888,0.0708 -0.4047,0.15132 -0.59206,0.0664" style="fill:none;stroke:#000000;stroke-width:2.61538;stroke-linecap:round;stroke-linejoin:round;stroke-miterlimit:10;stroke-dasharray:none;stroke-opacity:1" id="path2110" />
         </g>
         <g id="g2112" transform="scale(1,-1)">
            <path d="m 927.793,-616.656 c 7.05334,-8.02075 6.05146,-20.32876 2.0742,-29.54849 -4.74794,-10.01354 -15.02984,-18.09426 -26.32265,-18.47596 -13.35759,-0.11662 -26.86588,10.46778 -26.98967,24.40797 -0.67031,12.78727 8.64997,23.94178 19.26957,29.86995 10.79435,5.50719 22.67491,0.21144 31.67555,-6.24503" style="fill:none;stroke:#000000;stroke-width:2.61538;stroke-linecap:round;stroke-linejoin:round;stroke-miterlimit:10;stroke-dasharray:none;stroke-opacity:1" id="path2114" />
         </g>
         <g id="g2116" transform="scale(1,-1)">
            <path d="m 1015.234,-607.566 c 4.0745,7.21166 10.1128,13.70118 18.4558,15.64277 9.1733,4.34592 21.3445,0.82563 26.1602,-8.25474 4.7414,-8.83462 2.9159,-19.5956 -1.9525,-27.95444 -4.1899,-9.19184 -13.9997,-14.49662 -23.8831,-14.47075 -8.1485,-1.34184 -17.0255,2.26657 -20.2508,10.26938 -4.2219,9.42398 -0.4878,20.03596 3.8984,28.64578" style="fill:none;stroke:#000000;stroke-width:2.61538;stroke-linecap:round;stroke-linejoin:round;stroke-miterlimit:10;stroke-dasharray:none;stroke-opacity:1" id="path2118" />
         </g>
         <g id="g2120" transform="scale(1,-1)">
            <path d="m 1043.359,-601.625 c 3.8567,-0.87731 7.2267,-3.86007 7.6047,-7.94582 1.3438,-5.80477 -0.8611,-11.95249 -4.9096,-16.1723 -2.4773,-4.38802 -7.8707,-6.05109 -12.4499,-3.97869 -5.9462,0.98338 -11.0115,5.89104 -11.0192,12.10638 -0.3702,7.0077 4.7952,13.40529 11.2411,15.71085 4.5755,2.49567 9.5491,0.3637 13.9639,-1.71883" style="fill:none;stroke:#000000;stroke-width:2.61538;stroke-linecap:round;stroke-linejoin:round;stroke-miterlimit:10;stroke-dasharray:none;stroke-opacity:1" id="path2122" sodipodi:nodetypes="ccccccc" />
         </g>
         <g id="g2124" transform="scale(1,-1)">
            <path d="m 909.828,-622.875 c 8.69252,-2.37973 10.87187,-13.76573 5.7155,-20.46581 -5.05254,-9.8407 -20.62028,-10.648 -26.54637,-1.34302 -5.13163,9.21609 2.86233,23.81041 13.964,22.59431 3.00495,-0.12549 6.0166,-0.42426 8.94087,-1.15248" style="fill:none;stroke:#000000;stroke-width:2.61538;stroke-linecap:round;stroke-linejoin:round;stroke-miterlimit:10;stroke-dasharray:none;stroke-opacity:1" id="path2126" />
         </g>
         <g id="g2128" transform="scale(1,-1)">
            <path d="m 911.715,-615.082 c 5.54693,-2.59039 11.21018,-6.65779 11.90256,-13.25812 2.1531,-10.07278 -2.24075,-22.33735 -12.09228,-26.58054 -2.75307,-0.84205 -5.66286,-0.54517 -8.49028,-0.45439" style="fill:none;stroke:#000000;stroke-width:2.61538;stroke-linecap:round;stroke-linejoin:round;stroke-miterlimit:10;stroke-dasharray:none;stroke-opacity:1" id="path2130" />
         </g>
         <g id="g2132" transform="scale(1,-1)">
            <path d="m 1048.918,-598.379 c 5.0765,-3.43677 7.7352,-9.58967 7.3236,-15.62721 -0.07,-2.38083 0.7523,-5.03331 -0.7326,-7.15379" style="fill:none;stroke:#000000;stroke-width:2.61538;stroke-linecap:round;stroke-linejoin:round;stroke-miterlimit:10;stroke-dasharray:none;stroke-opacity:1" id="path2134" />
         </g>
         <g id="g2136" transform="scale(1,-1)">
            <path d="m 1048.574,-630.703 c -2.9372,-4.01194 -8.0602,-6.70952 -13.083,-5.59" style="fill:none;stroke:#000000;stroke-width:2.61538;stroke-linecap:round;stroke-linejoin:round;stroke-miterlimit:10;stroke-dasharray:none;stroke-opacity:1" id="path2138" />
         </g>
         <g id="g2140" transform="scale(1,-1)">
            <path d="m 1031.207,-610.148 c 5.2875,-2.59453 5.6545,7.41491 9.7742,4.09713 3.9368,-0.23342 3.9763,-2.46357 2.6871,-5.53218 0.1998,-2.89354 2.7607,-3.41239 -0.6804,-4.43253 -1.0175,-3.55043 -4.1165,-9.35086 -8.5327,-6.41269 -5.4531,3.55791 0.7666,9.32825 -2.2418,12.74025" style="fill:none;stroke:#000000;stroke-width:2.61538;stroke-linecap:round;stroke-linejoin:round;stroke-miterlimit:10;stroke-dasharray:none;stroke-opacity:1" id="path2142" />
         </g>
         <g id="g2144" transform="scale(1,-1)">
            <path d="m 901.402,-629.25 c 2.38182,-2.90231 13.25346,-1.25329 8.84672,-7.88227 3.72879,-7.56678 -13.42959,-12.18536 -12.09577,-2.5352 -7.19538,2.32335 1.35605,5.59114 2.28505,9.03447" style="fill:none;stroke:#000000;stroke-width:2.61538;stroke-linecap:round;stroke-linejoin:round;stroke-miterlimit:10;stroke-dasharray:none;stroke-opacity:1" id="path2146" />
         </g>
         <g id="g2148" transform="scale(1,-1)">
            <path d="m 867.297,-554.465 v -0.015 l -0.012,-0.036 -0.023,-0.05 -0.028,-0.055 -0.043,-0.047 -0.054,-0.027 -0.02,-0.028 -0.015,-0.004 -0.008,-0.011 -0.004,-0.008 -0.016,0.016 0.004,0.015 0.004,-0.015 0.004,0.042 0.004,0.028 0.008,-0.012 0.004,0.039 0.007,0.031 0.008,0.036 0.004,0.015 h 0.016 l 0.023,-0.004 h 0.012 l 0.008,0.008 0.023,0.012 0.02,0.023 0.015,0.004 0.051,-0.008 -0.027,-0.004 -0.047,-0.003 0.035,-0.012 0.016,-0.004 h -0.004 l -0.004,0.016 0.07,0.007 0.078,0.02 0.008,0.027 0.047,0.016 0.125,0.055 h 0.09 l 0.09,0.023 0.043,0.047 0.082,0.031 0.187,0.07 0.067,0.016 0.035,0.02 0.078,0.003 c 65.488,7.043 145.199,10.891 203.43,20.274 l 0.16,0.023 -0.094,0.024 0.062,0.012 0.246,0.007 0.137,0.039 0.11,0.012 0.078,0.004 0.121,-0.043 0.152,-0.019 0.016,0.043 -0.028,-0.004 -0.01,-0.016 h -0.043 l -0.012,0.02 -0.25,0.011 -0.168,0.004 0.129,-0.015 0.055,-0.004 -0.01,0.035 v -0.012 l 0.062,-0.012 v -0.007 l -0.047,-0.008 v -0.004 0.035 l 0.102,-0.012 0.047,-0.027 -0.063,-0.004 h -0.043 l -0.011,0.008 -0.012,0.012 -0.067,0.003 -0.023,-0.011 0.043,-0.004 -0.012,-0.031 0.012,-0.02 v 0.004 l 0.129,-0.008 0.105,-0.023 -0.066,0.019 -0.012,0.008 -0.011,0.02 -0.01,0.023 0.015,0.008 -0.027,0.023 -0.047,-0.019 0.028,0.004 -0.016,-0.028 h -0.063 l -0.027,0.02 -0.012,0.004 v 0.035 -0.004 l -0.078,-0.008 -0.01,0.008 0.043,-0.012 0.016,-0.004 v 0.004 h 0.012 l -0.016,-0.027 -0.01,0.004 0.012,0.031 v 0.016 l 0.012,-0.004 -0.012,-0.008 -0.207,-0.004 -0.09,-0.035 0.152,-0.004 -0.011,-0.004 0.027,0.031 0.024,0.02 0.089,-0.027 0.149,-0.004 -0.024,0.007 -0.078,-0.046 -0.012,-0.067 -0.046,-0.055 -0.043,-0.035 -0.125,-0.027 -0.102,-0.059 v -0.039 l -0.062,-0.054 -0.036,-0.059 -0.039,-0.035 0.032,-0.051 0.011,-0.066 -0.129,-0.039 -0.121,-0.059" style="fill:none;stroke:#000000;stroke-width:2.61538;stroke-linecap:round;stroke-linejoin:round;stroke-miterlimit:10;stroke-dasharray:none;stroke-opacity:1" id="path2150" />
         </g>
         <g id="g2152" transform="scale(1,-1)">
            <path d="m 868.383,-530.602 c 0.071,0.33581 0.11791,-0.70597 0.222,-0.66 0.1082,-4.42589 2.79211,-9.18957 2.735,-13.625 0.13686,-0.0382 -0.17689,-0.54947 0.058,-0.648 -0.43152,0.0715 0.54641,-0.4154 0.278,-0.574 2.71881,-1.00196 6.44868,0.54644 9.52481,0.29563 62.37601,5.2027 124.59429,12.08349 186.84219,18.59837" style="fill:none;stroke:#000000;stroke-width:2.61538;stroke-linecap:round;stroke-linejoin:round;stroke-miterlimit:10;stroke-dasharray:none;stroke-opacity:1" id="path2154" />
         </g>
         <g id="g2156" transform="scale(1,-1)">
            <path d="m 1065.246,-511.73 2.797,-15.485" style="fill:none;stroke:#000000;stroke-width:2.61538;stroke-linecap:round;stroke-linejoin:round;stroke-miterlimit:10;stroke-dasharray:none;stroke-opacity:1" id="path2158" sodipodi:nodetypes="cc" />
         </g>
         <g id="g2160" transform="scale(1,-1)">
            <path d="m 1065.246,-511.73 c -64.8191,-5.69252 -131.44711,-10.30855 -196.02368,-18.39321" style="fill:none;stroke:#000000;stroke-width:2.61538;stroke-linecap:round;stroke-linejoin:round;stroke-miterlimit:10;stroke-dasharray:none;stroke-opacity:1" id="path2162" sodipodi:nodetypes="cc" />
         </g>
         <g id="g2164" transform="scale(1,-1)">
            <path d="m 845.086,-660.188 c 18.62243,-10.97402 35.75815,-24.94695 53.0561,-37.3576 l -0.11915,0.23877 1.20705,-0.97817" style="fill:none;stroke:#000000;stroke-width:1.30769;stroke-linecap:round;stroke-linejoin:round;stroke-miterlimit:10;stroke-dasharray:none;stroke-opacity:1" id="path2166" sodipodi:nodetypes="cccc" />
         </g>
         <g id="g2168" transform="scale(1,-1)">
            <path d="m 845.145,-660.152 0.003,0.031 0.024,0.086 -0.02,0.125 -0.047,0.09 0.055,0.105 0.043,0.074 -0.004,0.036 -0.023,0.031 0.187,-0.008 0.098,-0.023 -0.121,0.019 -0.047,0.027 -0.035,0.008 -0.028,0.008 0.004,0.012 -0.082,0.015 -0.023,-0.027 0.039,0.039 c 1.371,18.402 -1.395,38.297 -1.031,56.676" style="fill:none;stroke:#000000;stroke-width:1.30769;stroke-linecap:round;stroke-linejoin:round;stroke-miterlimit:10;stroke-dasharray:none;stroke-opacity:1" id="path2170" />
         </g>
         <g id="g2172" transform="scale(1,-1)">
            <path d="m 899.125,-698.387 c 46.34119,3.89156 91.3302,16.5783 137.309,22.918" style="fill:none;stroke:#000000;stroke-width:1.30769;stroke-linecap:round;stroke-linejoin:round;stroke-miterlimit:10;stroke-dasharray:none;stroke-opacity:1" id="path2174" />
         </g>
         <g id="g2176" transform="scale(1,-1)">
            <path d="m 1036.125,-675.535 c 17.4135,19.64144 34.0788,39.95557 52.223,58.941" style="fill:none;stroke:#000000;stroke-width:1.30769;stroke-linecap:round;stroke-linejoin:round;stroke-miterlimit:10;stroke-dasharray:none;stroke-opacity:1" id="path2178" />
         </g>
         <g id="g2180" transform="scale(1,-1)">
            <path d="m 1092.402,-570.254 c -0.9512,-15.2067 -2.2952,-30.40155 -4.428,-45.4901 -0.3295,-0.29297 -0.022,-0.55084 0.221,-0.6039" style="fill:none;stroke:#000000;stroke-width:1.30769;stroke-linecap:round;stroke-linejoin:round;stroke-miterlimit:10;stroke-dasharray:none;stroke-opacity:1" id="path2182" />
         </g>
         <g id="g2184" transform="scale(1,-1)">
            <path d="m 844.145,-602.758 v -0.117 l -0.012,-0.082 -0.008,-0.07 -0.031,-0.055 -0.024,-0.023 -0.015,-0.024 -0.016,-0.016 H 844 v -0.015 l 0.008,-0.008 0.012,0.004 -0.012,-0.02 0.101,0.004 0.086,0.039 -0.066,-0.007 v -0.012 l -0.027,0.015 0.011,0.02 0.028,0.02 0.015,0.019 0.008,0.031 v 0.024 l -0.004,0.011 -0.008,-0.015 h -0.019 l -0.012,0.012 0.012,0.007 0.008,0.004 0.007,0.016 0.012,0.012 -0.012,-0.004 0.012,-0.004 0.055,-0.028 0.031,0.004 0.035,-0.004 0.047,-0.003 0.09,0.031 0.07,0.008 0.067,-0.008 0.07,0.015 0.086,0.004 h 0.101 l 0.102,0.02 h -0.105 l 0.058,0.008 c 5.598,0.437 103.953,13.547 109.485,13.929 l 0.171,-0.031 0.176,-0.035 0.133,-0.07 0.137,-0.063" style="fill:none;stroke:#000000;stroke-width:1.30769;stroke-linecap:round;stroke-linejoin:round;stroke-miterlimit:10;stroke-dasharray:none;stroke-opacity:1" id="path2186" />
         </g>
         <g id="g2188" transform="scale(1,-1)">
            <path d="m 987.836,-583.238 c 13.156,2.633 95.871,11.797 104.461,12.871" style="fill:none;stroke:#000000;stroke-width:1.30769;stroke-linecap:round;stroke-linejoin:round;stroke-miterlimit:10;stroke-dasharray:none;stroke-opacity:1" id="path2190" />
         </g>
      </g>
   </g>
</svg>
