<?xml version="1.0" encoding="UTF-8" standalone="no"?>
<!-- Created by Ashley Blewer - This work is licensed under a Creative Commons Attribution 4.0 International License -->

<svg width="544" height="480" viewBox="0 0 143.93334 127" version="1.1" id="svg2490" inkscape:version="1.1.2 (08b2f3d93c, 2022-04-05)" sodipodi:docname="1991-d3-1.svg"
   xmlns:inkscape="http://www.inkscape.org/namespaces/inkscape"
   xmlns:sodipodi="http://sodipodi.sourceforge.net/DTD/sodipodi-0.dtd"
   xmlns="http://www.w3.org/2000/svg"
   xmlns:svg="http://www.w3.org/2000/svg">
   <sodipodi:namedview id="namedview2492" pagecolor="#ffffff" bordercolor="#666666" borderopacity="1.0" inkscape:pageshadow="2" inkscape:pageopacity="0.0" inkscape:pagecheckerboard="0" inkscape:document-units="mm" showgrid="false" units="px" inkscape:zoom="0.90583674" inkscape:cx="272.67607" inkscape:cy="177.18425" inkscape:window-width="1848" inkscape:window-height="1136" inkscape:window-x="72" inkscape:window-y="27" inkscape:window-maximized="1" inkscape:current-layer="layer1" />
   <defs id="defs2487" />
   <g inkscape:label="Layer 1" inkscape:groupmode="layer" id="layer1">
      <g id="g10920" transform="matrix(0.47853565,0,0,0.47853565,-296.61802,-236.18028)">
         <g id="g1252" transform="scale(1,-1)">
            <path d="m 687.219,-745.375 c -4.32109,0.52011 -4.00321,6.01857 -4.51248,9.42692 -4.08976,33.71315 -6.89696,67.65152 -9.35452,101.46408 -0.36036,2.02669 -3.45885,6.5873 -4.282,9.242 1.46834,-5.68442 2.45384,-14.3325 2.50791,-20.52493 1.85086,-30.04211 1.15224,-60.9146 10.77838,-89.8026 1.28156,-3.65873 2.99922,-7.87881 5.83871,-10.12547" style="fill:none;stroke:#000000;stroke-width:2.61538;stroke-linecap:round;stroke-linejoin:round;stroke-miterlimit:10;stroke-dasharray:none;stroke-opacity:1" id="path1254" sodipodi:nodetypes="ccccccc" />
         </g>
         <g id="g1256" transform="scale(1,-1)">
            <path d="m 688.195,-745.695 c 1.05453,-0.22336 14.68609,2.82954 18.98625,3.71805 47.37787,11.8921 95.36164,21.59403 142.05235,36.06977 6.89454,1.17955 7.4684,4.08777 5.1024,7.75118 0.28104,1.49653 1.92962,2.39725 2.836,3.371" style="fill:none;stroke:#000000;stroke-width:2.61538;stroke-linecap:round;stroke-linejoin:round;stroke-miterlimit:10;stroke-dasharray:none;stroke-opacity:1" id="path1258" sodipodi:nodetypes="ccccc" />
         </g>
         <g id="g1260" transform="scale(1,-1)">
            <path d="m 858.945,-694.172 c 0.23376,0.68641 1.142,4.33491 1.48473,6.2598 3.6132,17.12062 4.66796,35.42819 5.90974,52.34887 -0.35302,-0.0802 -2.59731,1.48689 -2.38537,3.2032 2.45203,3.64649 2.42037,8.3015 3.0303,12.72667 0.19326,4.36607 0.80963,10.30835 -1.8434,13.64946 -2.5191,1.14658 -4.49629,5.05178 -7.368,4.437" style="fill:none;stroke:#000000;stroke-width:2.61538;stroke-linecap:round;stroke-linejoin:round;stroke-miterlimit:10;stroke-dasharray:none;stroke-opacity:1" id="path1262" sodipodi:nodetypes="ccccccc" />
         </g>
         <g id="g1264" transform="scale(1,-1)">
            <path d="m 669.07,-625.242 c 62.41538,11.50081 126.02881,14.04437 188.703,23.695" style="fill:none;stroke:#000000;stroke-width:2.61538;stroke-linecap:round;stroke-linejoin:round;stroke-miterlimit:10;stroke-dasharray:none;stroke-opacity:1" id="path1266" />
         </g>
         <g id="g1268" transform="scale(1,-1)">
            <path d="m 673.352,-634.484 c 34.64343,5.9096 72.77526,11.13971 107.76704,14.92085 28.55594,3.30155 57.35295,6.15234 85.67726,10.37953 l 0.58746,-0.28556 0.24524,-0.44882" style="fill:none;stroke:#000000;stroke-width:2.61538;stroke-linecap:round;stroke-linejoin:round;stroke-miterlimit:10;stroke-dasharray:none;stroke-opacity:1" id="path1270" sodipodi:nodetypes="ccccc" />
         </g>
         <g id="g1272" transform="scale(1,-1)">
            <path d="m 856.48,-612.457 c -0.3381,0.71833 1.46728,-3.2982 -0.51248,-2.60653 -2.36744,0.1315 -4.67167,-0.4838 -6.94331,-1.02609 -1.27551,-0.52891 -1.24954,3.26169 -2.71512,2.01543" style="fill:none;stroke:#000000;stroke-width:2.61538;stroke-linecap:round;stroke-linejoin:round;stroke-miterlimit:10;stroke-dasharray:none;stroke-opacity:1" id="path1274" />
         </g>
         <g id="g1276" transform="scale(1,-1)">
            <path d="m 827.531,-619.023 c -1.37828,-1.33761 -0.51996,-6.63371 -0.679,-9.02 -10.96119,-1.4164 -22.04605,-2.30125 -33.00138,-3.96683 -20.08082,-2.84921 -40.09854,-6.20717 -60.0778,-9.64787 -2.43947,-0.48783 -1.92001,5.7518 -3.28795,7.75835 -0.25725,1.0448 -1.08237,3.50327 -1.18387,3.70035" style="fill:none;stroke:#000000;stroke-width:2.61538;stroke-linecap:round;stroke-linejoin:round;stroke-miterlimit:10;stroke-dasharray:none;stroke-opacity:1" id="path1278" />
         </g>
         <g id="g1280" transform="scale(1,-1)">
            <path d="m 724.531,-639.266 0.008,0.004 -0.043,0.008 -0.109,0.004 0.07,0.023 -0.047,0.067 -0.004,0.019 -0.011,0.024 0.097,0.012 0.051,0.007 -0.066,0.047 -0.024,0.043 -0.015,0.059 -0.012,0.023 -0.047,0.039 -0.059,0.051 -0.019,0.031 -0.004,0.032 v 0.062 l -0.024,0.039 -0.003,0.031 v 0.024 l -0.008,0.023 -0.02,0.012 -0.008,0.031 -0.031,0.031 h -0.004 l 0.016,0.024 -0.035,0.027 -0.078,-0.015 -0.051,0.035 -0.043,0.004 0.004,0.011 0.05,0.02 -0.035,0.008 h -0.152 l -0.051,0.027 -0.039,0.035 -0.074,0.016 -0.082,-0.047 -0.024,-0.012 -0.027,-0.004 -0.047,-0.004 0.051,-0.039 0.063,-0.039 -0.102,-0.004 -0.125,-0.027 -0.082,-0.031 -0.07,-0.043 -0.086,-0.043 -0.223,-0.059 -0.191,-0.101 0.023,-0.063 -0.07,-0.101 -0.074,-0.11 -0.086,-0.09 0.015,-0.121 -0.058,-0.121 -0.125,-0.097 -0.039,-0.125 -0.055,-0.106 -0.047,-0.097 -0.035,-0.126 -0.067,-0.144 -0.046,-0.133 0.003,-0.105 v -0.086 l -0.011,-0.078 0.004,-0.09 0.031,-0.055 -0.012,-0.074 -0.012,-0.102 0.063,-0.093 0.047,-0.075 0.051,-0.07 0.011,-0.023 0.121,-0.079 0.098,-0.101 -0.019,-0.074 0.043,-0.075 0.035,-0.054 0.039,-0.078 0.062,-0.075 0.067,-0.046 0.027,-0.075 0.035,-0.066 0.035,-0.063 0.047,-0.058 0.02,-0.035 0.058,-0.047 0.078,-0.086 0.059,-0.082 0.047,-0.07 0.059,-0.067 0.042,-0.07 0.098,-0.051 0.098,-0.043 0.023,-0.059 0.039,-0.046 0.047,-0.016 0.055,-0.039 0.09,-0.059 0.125,-0.015 0.05,-0.016 h 0.02 l 0.043,0.008 0.047,0.008 0.047,0.011 -0.032,0.032 0.051,0.043 h 0.16 l 0.086,0.047 0.067,0.035 0.074,0.039 0.133,0.008 0.156,0.027 0.047,0.086 0.047,0.055 0.066,0.062 0.047,0.094 0.059,0.062 -0.141,0.071 -0.004,0.113 0.195,0.082 0.086,0.113 0.055,0.078 0.047,0.082 0.117,0.086 0.051,0.094 -0.008,0.09 0.004,0.082 v 0.101 l -0.008,0.075 -0.012,0.105 -0.015,0.086 -0.016,0.078 -0.015,0.086 -0.039,0.094 -0.043,0.098 -0.047,0.128 -0.071,0.137 -0.078,0.102 -0.062,0.086 -0.055,0.093 -0.055,0.118 -0.07,0.121 -0.07,0.164 -0.063,0.121 -0.031,0.078 -0.031,0.102 -0.059,0.085 -0.039,0.079 -0.055,0.07 -0.015,0.062 -0.028,0.075 -0.062,0.082 -0.063,0.07 -0.043,0.047 -0.035,0.051 -0.031,0.086 -0.141,0.066 -0.085,0.062 0.046,0.028 -0.011,0.039 -0.008,0.039 -0.012,0.031 -0.074,0.004 -0.016,0.027 0.012,0.02 -0.008,0.016 -0.015,0.003 v -0.015 l -0.04,-0.027 -0.035,0.011 0.012,0.008 0.008,-0.004 0.012,0.004 0.015,-0.023 0.012,0.007 -0.098,0.004 h -0.05 l 0.082,-0.019 0.058,-0.039 0.067,-0.012 0.039,-0.023 0.066,-0.067 0.148,-0.07 0.118,-0.035 0.046,-0.063 0.094,-0.07 0.106,-0.055 0.144,-0.086 0.106,-0.074 0.125,-0.031" style="fill:none;stroke:#000000;stroke-width:2.61538;stroke-linecap:round;stroke-linejoin:round;stroke-miterlimit:10;stroke-dasharray:none;stroke-opacity:1" id="path1282" />
         </g>
         <g id="g1284" transform="scale(1,-1)">
            <path d="m 832.805,-623.879 c 0.28675,0.21878 -0.30934,-0.0804 0.004,0.0882 -0.43861,0.20278 -1.01296,0.23943 -1.48203,0.0158 -0.49399,-0.14506 -0.86868,-0.51562 -1.32825,-0.72655 -0.26445,-0.24345 -0.009,-0.52044 -0.35285,-0.70708 0.49328,-0.32294 1.07479,-0.62997 1.69181,-0.57976 0.46606,-0.0177 1.16888,-0.13232 1.19498,0.36447 0.0363,0.30718 0.0798,0.6143 0.18888,0.84517 -0.0727,0.17415 -0.43062,0.0999 -0.11623,0.16778 -0.07,0.002 -0.15308,0.0217 -0.14398,-0.0654" style="fill:none;stroke:#000000;stroke-width:2.61538;stroke-linecap:round;stroke-linejoin:round;stroke-miterlimit:10;stroke-dasharray:none;stroke-opacity:1" id="path1286" />
         </g>
         <g id="g1288" transform="scale(1,-1)">
            <path d="m 863.52,-617.938 c -1.73862,-0.0389 -3.39403,-0.74378 -5.14107,-0.702 -3.28034,-0.39665 -6.49397,-1.19239 -9.73987,-1.77656 -1.89163,-0.2212 -3.87073,-0.13814 -5.65075,-0.91572 -0.042,-0.31478 -1.07484,-0.15269 -0.45331,-0.47672" style="fill:none;stroke:#000000;stroke-width:2.61538;stroke-linecap:round;stroke-linejoin:round;stroke-miterlimit:10;stroke-dasharray:none;stroke-opacity:1" id="path1290" />
         </g>
         <g id="g1292" transform="scale(1,-1)">
            <path d="m 719.809,-637.309 c -13.94734,-1.71951 -28.11658,-1.72382 -41.887,-4.76505" style="fill:none;stroke:#000000;stroke-width:2.61538;stroke-linecap:round;stroke-linejoin:round;stroke-miterlimit:10;stroke-dasharray:none;stroke-opacity:1" id="path1294" />
         </g>
         <g id="g1296" transform="scale(1,-1)">
            <path d="m 818.027,-645.613 c 0.16924,-1.38526 0.0917,-2.72291 -0.15154,-3.99627 -0.13189,-0.63093 -0.0307,-1.79964 -0.22783,-2.1447" style="fill:none;stroke:#000000;stroke-width:2.61538;stroke-linecap:round;stroke-linejoin:round;stroke-miterlimit:10;stroke-dasharray:none;stroke-opacity:1" id="path1298" />
         </g>
         <g id="g1300" transform="scale(1,-1)">
            <path d="m 817.262,-645.242 c -0.902,-0.8862 1.34254,0.26483 1.79938,-0.17257 1.45148,-0.005 2.70869,-1.46453 2.57555,-2.7639 0.23807,-1.68094 -0.68158,-2.55068 -1.65761,-3.75709 -0.76885,-0.32998 -1.9231,-0.25371 -2.53833,0.35751" style="fill:none;stroke:#000000;stroke-width:2.61538;stroke-linecap:round;stroke-linejoin:round;stroke-miterlimit:10;stroke-dasharray:none;stroke-opacity:1" id="path1302" />
         </g>
         <g id="g1304" transform="scale(1,-1)">
            <path d="m 823.203,-648.195 c -0.32588,0.42921 0.0856,-0.14578 0.16,0.203" style="fill:none;stroke:#000000;stroke-width:2.61538;stroke-linecap:round;stroke-linejoin:round;stroke-miterlimit:10;stroke-dasharray:none;stroke-opacity:1" id="path1306" />
         </g>
         <g id="g1308" transform="scale(1,-1)">
            <path d="m 824.863,-643.5 c -0.1843,-0.0148 1.51715,-0.3083 2.10564,-0.17072 1.03015,-0.11546 2.31556,0.5376 3.15473,-0.2459 0.66867,-1.14584 -0.77369,-2.44873 -1.59201,-3.1703 -1.20184,-0.51641 1.68364,0.27848 1.97126,-0.52518 0.64057,-1.08662 -0.66832,-2.33952 -1.75802,-2.53293 -1.13547,-0.037 -2.28104,-0.39538 -3.39587,-0.0134 -0.3319,0.0834 -0.85539,0.16629 -1.07908,0.13578" style="fill:none;stroke:#000000;stroke-width:2.61538;stroke-linecap:round;stroke-linejoin:round;stroke-miterlimit:10;stroke-dasharray:none;stroke-opacity:1" id="path1310" />
         </g>
         <g id="g1312" transform="scale(1,-1)">
            <path d="m 692.48,-659.488 c -0.12586,-1.13447 0.7494,-7.56566 0.561,-3.76496 -0.55967,3.45812 3.94814,7.26961 4.16833,1.96267 0.34904,-2.81488 1.61804,5.6445 3.95526,2.50854 1.02093,-1.51265 0.54697,-4.18873 0.52351,-5.4172" style="fill:none;stroke:#000000;stroke-width:2.61538;stroke-linecap:round;stroke-linejoin:round;stroke-miterlimit:10;stroke-dasharray:none;stroke-opacity:1" id="path1314" />
         </g>
         <g id="g1316" transform="scale(1,-1)">
            <path d="m 703.41,-658.629 c 1.10201,3.45239 7.16063,2.77932 5.96082,-1.43537 0.14318,-1.96026 0.22088,-2.03227 -0.85255,-0.39081 -3.45755,2.38773 -5.22132,-4.06542 -0.66698,-2.55191 0.50335,0.15838 1.54922,0.30841 1.71508,0.80399" style="fill:none;stroke:#000000;stroke-width:2.61538;stroke-linecap:round;stroke-linejoin:round;stroke-miterlimit:10;stroke-dasharray:none;stroke-opacity:1" id="path1318" />
         </g>
         <g id="g1320" transform="scale(1,-1)">
            <path d="m 712.516,-656.738 c 3.3047,0.4911 4.48539,-3.74247 6.765,-5.211" style="fill:none;stroke:#000000;stroke-width:2.61538;stroke-linecap:round;stroke-linejoin:round;stroke-miterlimit:10;stroke-dasharray:none;stroke-opacity:1" id="path1322" />
         </g>
         <g id="g1324" transform="scale(1,-1)">
            <path d="m 714.008,-662.172 c 2.42541,2.13264 2.66946,5.4046 4.64,7.805" style="fill:none;stroke:#000000;stroke-width:2.61538;stroke-linecap:round;stroke-linejoin:round;stroke-miterlimit:10;stroke-dasharray:none;stroke-opacity:1" id="path1326" />
         </g>
         <g id="g1328" transform="scale(1,-1)">
            <path d="m 722.848,-657.395 c 1.29611,-0.32658 6.38901,-0.17302 3.88359,2.7987 -3.05126,3.264 -5.92268,-3.80188 -3.94886,-6.28263 1.28018,-1.4776 3.80506,-0.47889 4.88127,0.76595" style="fill:none;stroke:#000000;stroke-width:2.61538;stroke-linecap:round;stroke-linejoin:round;stroke-miterlimit:10;stroke-dasharray:none;stroke-opacity:1" id="path1330" />
         </g>
         <g id="g1332" transform="scale(1,-1)">
            <path d="m 730.379,-660.512 c 0.51465,3.73085 -1.3399,7.3166 -1.10347,11.05378 -0.72329,0.48667 0.61477,0.37236 0.18543,0.47822" style="fill:none;stroke:#000000;stroke-width:2.61538;stroke-linecap:round;stroke-linejoin:round;stroke-miterlimit:10;stroke-dasharray:none;stroke-opacity:1" id="path1334" />
         </g>
         <g id="g1336" transform="scale(1,-1)">
            <path d="m 733.535,-658.809 c 0.15819,2.86264 -1.33044,6.10793 -0.87932,9.22529 -0.006,0.71623 -0.0268,1.43363 -0.10912,2.14571" style="fill:none;stroke:#000000;stroke-width:2.61538;stroke-linecap:round;stroke-linejoin:round;stroke-miterlimit:10;stroke-dasharray:none;stroke-opacity:1" id="path1338" />
         </g>
         <g id="g1340" transform="scale(1,-1)">
            <path d="m 724.727,-642.555 c -0.1625,-0.95125 -1.09081,0.0904 -1.40769,0.54823 -0.61807,0.58804 -0.67749,1.37329 -0.86364,2.0588 0.31837,0.73446 1.3342,1.25134 1.99781,0.44125 0.86563,-0.27847 0.10229,-1.26155 0.19834,-1.6453 -0.69561,-0.28943 -1.38283,-0.69115 -2.16781,-0.48503" style="fill:none;stroke:#000000;stroke-width:2.61538;stroke-linecap:round;stroke-linejoin:round;stroke-miterlimit:10;stroke-dasharray:none;stroke-opacity:1" id="path1342" />
         </g>
         <g id="g1344" transform="scale(1,-1)">
            <path d="m 717.211,-644.309 c -0.0918,-0.28363 -1.22389,-0.34635 -0.66384,-0.12916 -0.84686,0.49984 -0.45045,1.52749 0.36437,1.89706 0.33063,0.55873 0.83252,0.38651 0.82225,0.006 -0.51916,-0.29607 -1.17433,-0.19806 -1.68678,0.0628" style="fill:none;stroke:#000000;stroke-width:2.61538;stroke-linecap:round;stroke-linejoin:round;stroke-miterlimit:10;stroke-dasharray:none;stroke-opacity:1" id="path1346" />
         </g>
         <g id="g1348" transform="scale(1,-1)">
            <path d="m 688.109,-632.684 0.032,0.008 0.086,0.055 0.152,0.062 0.144,0.063 0.235,0.055 0.168,0.039 -0.059,0.027 0.004,-0.012 0.012,0.016 v 0.008 l -0.016,-0.012 -0.152,0.004 -0.012,-0.004 0.098,-0.02 h -0.028 l -0.015,0.008 -0.02,0.016 0.008,-0.008 -0.078,-0.027 -0.07,-0.016 0.019,-0.004 -0.015,-0.008 -0.012,-0.019 -0.028,-0.031 h 0.098 l 0.02,-0.028 -0.075,-0.035 -0.023,-0.066 -0.027,-0.024 -0.024,-0.035 -0.031,-0.019 -0.09,-0.012 -0.043,-0.059 0.02,-0.039 -0.004,-0.062 -0.028,-0.051 -0.019,-0.07 0.199,-0.055 0.137,-0.031 -0.156,-0.035 -0.075,-0.055 -0.031,-0.028 -0.023,-0.011 -0.071,-0.051 -0.035,-0.031 0.008,-0.043 -0.027,-0.055 -0.008,-0.055 -0.02,-0.046 -0.027,-0.055 -0.031,-0.027 -0.016,-0.016 0.008,-0.024 0.004,-0.031 0.004,-0.035 0.023,-0.027 v -0.075 l 0.031,-0.078 0.055,-0.031 0.008,-0.031 0.035,-0.047 0.016,-0.027 0.047,-0.016 0.023,-0.012 -0.016,-0.035 v -0.047 l -0.003,-0.015 -0.004,-0.024 0.019,-0.012 -0.148,-0.07 -0.004,-0.09 0.133,-0.031 0.007,-0.066 0.051,-0.055 0.02,-0.023 0.117,-0.036 0.191,-0.043 -0.019,-0.035 -0.078,-0.031 -0.016,-0.016 -0.016,-0.007 0.004,0.011 -0.066,0.02 -0.024,-0.047 0.079,-0.02 0.007,-0.027 v -0.004 l 0.016,-0.004 0.125,-0.011 h -0.004 l -0.078,0.003 0.043,-0.003 0.023,0.007 0.024,0.004 0.027,-0.011 0.129,-0.012 0.109,0.015 -0.007,-0.031 0.066,-0.004 0.078,-0.004 0.18,-0.007 v 0.003 l 0.031,-0.003 0.11,-0.012 0.097,-0.016 0.098,0.008 0.094,-0.027 0.179,-0.032 0.207,0.043 0.098,0.051 0.121,0.008 0.129,0.027 0.137,0.012 0.16,0.027 0.156,0.036 0.152,0.015 0.129,0.035 0.137,0.016 0.109,0.035 0.071,0.016 0.078,0.043 0.105,0.039 0.114,0.019 0.121,0.032 0.117,0.031 0.105,0.035 0.102,0.055 0.113,0.062 0.125,0.047 0.094,0.047 0.105,0.039 0.106,0.043 0.152,0.016 0.192,0.046 h 0.086 l 0.066,0.012 0.094,0.02 0.109,0.031 0.113,0.031 -0.078,0.004 0.063,0.004 0.234,0.02 0.176,0.007 0.141,0.004 0.14,0.02 0.25,-0.031 0.317,-0.016 0.046,0.059 0.036,0.003 0.125,0.008 0.121,0.02 0.109,-0.012 -0.09,0.004 0.035,-0.016 0.243,-0.066 0.191,-0.016 0.172,-0.004 0.152,-0.011 0.231,-0.043 0.117,-0.035 0.078,-0.004 0.121,-0.016 0.117,-0.004 h 0.227 l 0.105,0.008 0.102,-0.012 0.101,0.02 0.082,0.008 0.09,-0.008 h 0.075 l 0.093,0.054 h 0.039 l 0.016,-0.023 0.066,0.016 0.055,0.007 0.066,-0.019 h 0.043 l 0.075,-0.004 0.07,0.019 -0.023,0.028 v -0.004 l 0.031,0.012 0.023,-0.024 0.035,0.09 -0.004,0.063 -0.031,-0.063 -0.023,-0.031 -0.02,0.023 h -0.211 l 0.004,-0.004 0.028,-0.007 0.003,0.007 0.004,-0.004 0.004,0.004 0.012,-0.007 -0.004,0.027 h -0.004 l -0.012,0.019 0.008,-0.027 0.004,0.039 -0.027,0.012 0.051,0.039 0.066,0.051 0.012,0.035 0.027,0.031 0.024,0.055 0.015,0.027 -0.133,0.024 -0.062,0.054 0.117,0.028 0.039,0.058 0.02,0.043 0.019,0.035 0.035,0.004 0.086,0.024 0.039,0.082 -0.031,0.05 v 0.067 l -0.019,0.051 0.007,0.07 -0.277,0.055 -0.18,0.023 0.164,0.047 0.036,0.09 0.007,0.043 0.012,0.035 0.035,0.051 -0.008,0.043 -0.043,0.047 -0.015,0.066 -0.012,0.055 -0.023,0.015 v 0.039 l -0.024,0.059 -0.047,0.019 -0.015,0.024 -0.035,0.035 -0.032,0.023 -0.031,0.028 -0.039,0.082 -0.047,0.027 -0.039,-0.004 -0.016,0.02 -0.011,0.031 -0.004,0.016 -0.031,0.011 -0.106,-0.003 h 0.012 l 0.058,0.023 0.016,0.023 v 0.016 l -0.019,0.004 0.023,0.062 0.012,0.055 -0.024,0.02 -0.035,0.031 -0.047,0.043 -0.015,0.035 -0.098,0.035 -0.192,0.035 0.02,0.016 0.098,0.016 -0.004,0.035 v 0.047 l -0.02,-0.004" style="fill:none;stroke:#000000;stroke-width:2.61538;stroke-linecap:round;stroke-linejoin:round;stroke-miterlimit:10;stroke-dasharray:none;stroke-opacity:1" id="path1350" />
         </g>
         <g id="g1352" transform="scale(1,-1)">
            <path d="m 693.457,-688.32 c 49.81502,10.2812 104.51847,21.06417 155.32,24.961" style="fill:none;stroke:#000000;stroke-width:2.61538;stroke-linecap:round;stroke-linejoin:round;stroke-miterlimit:10;stroke-dasharray:none;stroke-opacity:1" id="path1354" sodipodi:nodetypes="cc" />
         </g>
         <g id="g1356" transform="scale(1,-1)">
            <path d="m 848.926,-662.949 -0.008,-0.012 -0.09,-0.055 -0.066,-0.07 0.058,-0.094 -0.008,-0.125 -0.031,-0.023 -0.004,-0.031 0.27,-0.047 0.176,-0.024 -0.211,-0.019 -0.082,-0.047 -0.032,-0.004 -0.027,0.023 h -0.039 l 0.023,-0.015 h 0.016 l -0.016,-0.016 -0.007,-0.027 -0.012,0.008 -0.004,0.007 0.055,-0.027 0.031,-0.008 0.008,-0.011 -0.008,-0.02 -0.016,-0.019 -0.011,-0.032 0.05,-0.035 0.079,-0.039 -0.016,-0.039 -0.047,-0.035 -0.012,-0.035 v -0.032 l 0.02,-0.043 -0.117,-0.05 -0.075,-0.082 0.047,-0.047 v -0.145 l 0.028,-0.031 -0.02,-0.051 -0.031,-0.07 0.008,-0.067 0.015,-0.062 0.008,-0.078 0.008,-0.11 0.043,-0.109 0.019,-0.058 v -0.067 l 0.004,-0.066 -0.011,-0.086 -0.004,-0.117 -0.004,-0.094 -0.09,-0.059 -0.039,-0.101 0.023,-0.09 0.035,-0.102 0.043,-0.074 -0.003,-0.098 -0.051,-0.113 -0.074,-0.086 0.003,-0.082 0.04,-0.078 0.011,-0.129 -0.011,-0.137 0.003,-0.113 0.207,-0.09 0.114,-0.148 -0.16,-0.098 -0.028,-0.109 -0.027,-0.082 -0.051,-0.078 -0.129,-0.114 -0.121,-0.125 0.027,-0.129 0.075,-0.136 v -0.149 l -0.016,-0.086 0.004,-0.101 0.312,-0.192 0.161,-0.23 -0.211,-0.164 -0.059,-0.184 -0.051,-0.164 -0.039,-0.156 -0.008,-0.184 0.024,-0.144 -0.043,-0.141 -0.07,-0.137 -0.036,-0.156 -0.027,-0.09 -0.035,-0.109 -0.129,-0.164 -0.078,-0.176 0.008,-0.148 0.004,-0.153 -0.028,-0.152 -0.023,-0.152 -0.094,-0.157 -0.016,-0.156 0.075,-0.156 0.004,-0.156 -0.004,-0.18 0.027,-0.168 0.02,-0.152 -0.024,-0.106 -0.031,-0.136 0.008,-0.153 v -0.144 l -0.016,-0.121 0.016,-0.122 -0.184,-0.132 -0.098,-0.176 0.125,-0.137 -0.003,-0.129 0.011,-0.117 0.012,-0.105 0.066,-0.118 0.149,-0.105 -0.012,-0.141 -0.09,-0.129 -0.019,-0.097 -0.032,-0.117 -0.019,-0.102 0.027,-0.062 -0.035,-0.094 -0.074,-0.114 -0.035,-0.105 -0.043,-0.051 -0.043,-0.062 -0.012,-0.114 -0.086,-0.132 -0.101,-0.141 -0.004,-0.125 -0.02,-0.094 -0.015,-0.105 -0.028,-0.102 0.168,-0.105 0.094,-0.125 -0.152,-0.094 -0.055,-0.121 -0.027,-0.094 -0.024,-0.101 -0.016,-0.118 -0.097,-0.082 -0.063,-0.101 0.035,-0.098 -0.019,-0.082 -0.027,-0.058 -0.039,-0.055 0.054,-0.074 0.063,-0.09 -0.067,-0.067 -0.031,-0.078 -0.023,-0.035 -0.012,-0.078 0.012,-0.117 -0.016,-0.106 -0.023,-0.105 -0.008,-0.102 -0.024,-0.07 -0.027,-0.055 -0.063,-0.074 -0.007,-0.094 0.027,-0.062 v -0.051 l 0.004,0.012 -0.016,-0.028 -0.047,-0.074 0.008,-0.058 0.059,-0.02 -0.012,-0.027 -0.016,-0.067 0.012,-0.039 0.024,-0.015 0.132,-0.043 -0.011,-0.063 -0.117,-0.012 0.011,-0.035 -0.015,-0.039 -0.012,-0.039 -0.149,-0.027 -0.089,-0.067 0.07,-0.039 0.008,-0.164 -0.008,-0.031 0.113,-0.043 0.219,-0.059 -0.047,-0.085 -0.121,-0.071 -0.047,-0.031 -0.023,-0.043 -0.024,-0.027 -0.086,-0.016 -0.066,-0.055 0.019,-0.035 0.012,-0.031 -0.004,-0.043 0.024,0.016 0.074,0.003 -0.055,-0.031 -0.105,-0.039 0.054,-0.015 -0.003,-0.004 v -0.043 l -0.012,-0.028 0.066,0.008 0.024,-0.031 h -0.035 l -0.024,-0.02 0.004,-0.004 -0.012,-0.011 -0.008,0.019 -0.019,0.02 -0.02,0.004 h 0.039 l -0.035,0.074 0.004,-0.035 -0.055,-0.043 0.016,0.035 0.078,-0.004 h 0.024 v -0.004 l -0.02,0.031 -0.012,0.004 0.079,-0.023 0.011,0.039 -0.086,-0.027 -0.011,-0.032 -0.012,-0.015 -0.027,-0.016 -0.106,0.004 -0.023,0.016 0.047,0.011 -0.012,0.004 -0.004,0.012 v 0.066 l 0.012,-0.023 0.007,-0.008 H 847 l -0.039,-0.008 -0.027,-0.054 -0.012,-0.043 0.09,0.007 0.121,0.02 -0.067,-0.012 -0.097,-0.008 -0.024,-0.039 -0.023,0.032 -0.016,0.027 -0.14,0.008 -0.11,0.051 0.032,0.054 -0.098,0.071 -0.09,0.054 -0.105,0.075 -0.098,0.105" style="fill:none;stroke:#000000;stroke-width:2.61538;stroke-linecap:round;stroke-linejoin:round;stroke-miterlimit:10;stroke-dasharray:none;stroke-opacity:1" id="path1358" />
         </g>
         <g id="g1360" transform="scale(1,-1)">
            <path d="m 693.828,-690.059 c 1.92949,-4.57108 1.84638,-9.64003 2.23931,-14.50267 0.15172,-1.48682 0.14608,-2.9607 0.0574,-4.44649" style="fill:none;stroke:#000000;stroke-width:2.61538;stroke-linecap:round;stroke-linejoin:round;stroke-miterlimit:10;stroke-dasharray:none;stroke-opacity:1" id="path1362" />
         </g>
         <g id="g1364" transform="scale(1,-1)">
            <path d="m 696.12471,-709.00816 c 51.18316,5.20521 101.38402,17.53316 151.54729,28.19916" style="fill:none;stroke:#000000;stroke-width:2.61538;stroke-linecap:round;stroke-linejoin:round;stroke-miterlimit:10;stroke-dasharray:none;stroke-opacity:1" id="path1366" sodipodi:nodetypes="cc" />
         </g>
         <g id="g1368" transform="scale(1,-1)">
            <path d="m 822.887,-675.309 -0.004,-0.007 -0.024,-0.02 0.184,-0.059 0.105,0.02 -0.273,-0.102 -0.117,-0.117 -0.11,-0.011 h -0.046 l -0.102,-0.016 -0.133,-0.024 -0.004,-0.062 0.039,-0.012 -0.066,0.008 -0.047,0.051 -0.008,-0.043 0.157,-0.051 -0.004,0.024 -0.122,-0.04 -0.082,-0.003 -0.042,-0.024 -0.012,-0.008 0.019,0.032 0.008,0.003 -0.047,-0.003 -0.043,-0.012 -0.023,0.012 -0.031,0.011 -0.02,0.012 -0.055,-0.008 -0.078,0.004 -0.027,-0.008 -0.043,-0.008 -0.051,-0.023 -0.047,-0.012 -0.133,0.012 -0.062,0.035 h 0.031 l -0.019,0.008 -0.012,0.004 -0.027,-0.016 -0.02,-0.011 0.008,0.05 -0.063,-0.031 -0.093,-0.012 -0.063,0.036 -0.047,0.011 -0.027,0.02 -0.168,0.031 -0.133,0.016 0.039,0.023 -0.047,0.016 -0.023,0.027 -0.024,-0.004 -0.066,0.02 0.004,0.047 0.019,0.039 -0.031,0.019 -0.027,0.012 -0.008,-0.008 -0.023,0.027 0.047,0.024 -0.004,0.012 -0.043,0.023 -0.016,0.059 -0.059,0.046 -0.031,0.02 -0.074,0.047 -0.129,0.062 -0.035,0.075 0.012,0.043 -0.004,0.043 -0.016,0.054 -0.031,0.055 0.187,0.039 0.075,0.098 -0.129,0.035 -0.024,0.058 -0.043,0.067 -0.031,0.027 0.023,0.031 0.008,0.059 -0.051,0.051 0.024,0.054 0.031,0.024 0.008,0.062 0.008,0.059 0.094,0.031 0.062,0.086 -0.02,0.082 0.047,0.094 0.051,0.043 0.035,0.043 -0.027,0.07 0.031,0.094 0.106,0.059 0.031,0.082 0.051,0.043 0.066,0.082 0.055,0.074 0.051,0.051 0.058,0.062 0.086,0.043 0.082,0.039 0.059,0.035 0.066,0.063 -0.051,0.062 0.039,0.047 0.161,0.031 0.093,0.047 0.09,0.028 0.067,0.007 0.109,0.055 0.227,0.051 0.046,-0.004 -0.019,0.043 0.031,0.035 0.031,0.024 0.039,0.027 -0.011,0.035 0.023,-0.012 0.082,0.004 h 0.063 l 0.054,0.02 0.047,-0.016 0.153,-0.035 0.109,0.012 -0.043,-0.035 v -0.036 l 0.031,-0.007 0.016,-0.055 -0.008,-0.035 0.008,0.031 0.004,-0.012 -0.004,-0.027 0.008,-0.024 0.011,0.024 0.02,-0.031 0.141,-0.063 -0.051,-0.039 -0.086,-0.035 0.058,-0.043 0.024,-0.059 0.051,-0.089 v -0.083 l 0.144,-0.042 0.094,-0.059 -0.09,-0.035 0.008,-0.074 -0.027,-0.067 -0.016,-0.078 0.027,-0.086 -0.023,-0.055 -0.047,-0.07 -0.023,-0.051 -0.04,-0.054 -0.042,-0.024 -0.098,-0.051 -0.067,-0.074 0.02,-0.066 -0.055,-0.074 -0.05,-0.051 -0.036,-0.055 -0.035,-0.039 -0.019,-0.023 -0.028,-0.039 -0.05,-0.032 -0.043,-0.035 -0.051,-0.023 -0.059,0.007 -0.066,0.008 0.023,-0.043 v -0.019 l -0.101,-0.02 -0.082,-0.023 -0.047,-0.004 -0.039,-0.012 -0.028,-0.008 h -0.062 l -0.09,0.004 -0.094,0.004 -0.039,-0.015 -0.031,-0.008 -0.031,0.019 -0.035,0.032 -0.075,0.015 -0.132,0.031 -0.153,0.039 -0.113,0.043 -0.094,0.055 -0.293,0.067 -0.211,0.039 0.016,0.035" style="fill:none;stroke:#000000;stroke-width:2.61538;stroke-linecap:round;stroke-linejoin:round;stroke-miterlimit:10;stroke-dasharray:none;stroke-opacity:1" id="path1370" />
         </g>
         <g id="g1372" transform="scale(1,-1)">
            <path d="m 817.824,-670.098 -0.004,0.012 -0.004,0.039 -0.043,0.067 -0.043,0.046 0.016,0.051 -0.051,0.035 -0.023,-0.023 -0.016,0.016 0.035,0.015 0.11,-0.035 -0.012,-0.02 -0.098,-0.015 -0.066,-0.012 -0.055,-0.023 -0.035,-0.016 -0.23,-0.019 -0.102,-0.106 0.102,-0.027 -0.024,-0.051 -0.027,-0.024 0.004,-0.035 0.019,-0.043 0.047,-0.031 -0.062,-0.035 -0.094,-0.043 -0.051,-0.055 -0.027,-0.054 -0.039,-0.055 -0.192,-0.023 -0.109,-0.079 0.078,-0.078 -0.035,-0.078 -0.039,-0.035 -0.012,-0.047 0.031,-0.043 -0.07,-0.039 -0.086,-0.043 0.035,-0.055 0.004,-0.082 -0.011,-0.105 -0.055,-0.082 0.078,-0.059 0.027,-0.078 -0.097,-0.062 -0.051,-0.082 -0.039,-0.079 -0.039,-0.066 -0.028,-0.082 -0.031,-0.066 -0.039,-0.051 -0.039,-0.078 -0.051,-0.086 -0.054,-0.035 -0.075,-0.055 -0.05,-0.109 -0.008,-0.098 -0.035,-0.102 -0.036,-0.117 -0.05,-0.113 -0.043,-0.109 v -0.094 l 0.015,-0.102 -0.05,-0.086 -0.051,-0.117 -0.035,-0.125 -0.036,-0.019 v -0.082 l 0.016,-0.125 -0.016,-0.106 -0.039,-0.105 -0.019,-0.11 -0.008,-0.094 -0.004,-0.082 -0.121,-0.066 -0.047,-0.121 0.078,-0.078 0.016,-0.063 0.031,-0.097 0.043,-0.075 0.043,-0.046 0.082,-0.055 0.027,-0.074 -0.011,-0.063 0.027,-0.043 0.016,-0.062 0.035,-0.051 -0.277,-0.027 -0.11,-0.114 0.223,-0.074 0.082,-0.09 0.078,-0.058 0.039,-0.043 0.07,-0.047 0.11,-0.043 0.054,-0.039 0.02,-0.047 0.039,-0.051 0.039,-0.101 0.047,-0.075 -0.016,-0.007 0.024,-0.063 0.097,-0.066 0.071,-0.067 0.062,-0.039 0.016,-0.027 0.098,-0.043 0.054,-0.059 0.008,-0.015 0.078,-0.047 0.067,-0.067 0.48,-0.32 0.125,-0.07 0.105,-0.035 0.106,-0.055 0.195,-0.082 0.09,-0.074 0.059,-0.039 0.097,-0.051 0.11,-0.043 0.093,0.004 0.079,-0.024 -0.004,-0.054 0.078,-0.04 0.133,-0.015 0.082,-0.039 0.097,-0.004 0.082,-0.047 0.203,-0.039 0.176,0.012 0.028,-0.008 0.07,0.004 0.094,-0.035 0.109,-0.008 0.047,0.019 v 0.008 l 0.09,0.028 0.164,-0.012 0.105,0.008 0.09,0.035 0.117,0.008 h -0.066 l 0.062,0.007 0.188,-0.019 0.121,0.008 0.117,-0.035 0.102,0.003 0.101,0.036 0.211,0.007 0.176,0.036 -0.004,0.027 0.078,0.015 0.102,0.032 0.086,0.011 -0.02,0.012 0.035,0.016 0.145,-0.012 0.098,0.004 0.097,0.008 0.106,0.019 0.117,0.032 0.113,0.031 0.028,0.043 0.027,0.035 0.051,0.039 0.07,0.016 0.074,0.027 -0.012,0.051 0.04,0.043 0.121,0.054 0.101,0.047 0.098,0.063 0.082,0.086 0.137,0.039 0.109,0.027 0.051,0.059 0.082,0.054 0.101,0.071 0.106,0.027 0.097,0.035 0.086,0.074 0.059,0.09 0.078,0.059 0.066,0.047 0.063,0.058 0.059,0.067 0.101,0.066 0.078,0.07 0.032,0.075 0.07,0.062 0.074,0.055 0.063,0.058 -0.016,0.083 -0.117,0.066 0.07,0.074 0.168,0.074 0.098,0.086 0.058,0.067 0.051,0.039 0.086,0.054 0.055,0.118 0.027,0.097 0.043,0.082 0.016,0.059 0.004,0.062 -0.075,0.067 0.012,0.047 0.074,0.051 0.035,0.062 0.016,0.055 0.023,0.093 0.008,0.075 0.106,0.007 0.07,0.051 -0.055,0.028 -0.011,0.035 -0.043,0.004 0.004,0.027 0.015,0.043 0.071,0.027 0.023,0.032 -0.07,0.062 -0.047,0.074 -0.047,0.114 -0.047,0.085" style="fill:none;stroke:#000000;stroke-width:2.61538;stroke-linecap:round;stroke-linejoin:round;stroke-miterlimit:10;stroke-dasharray:none;stroke-opacity:1" id="path1374" />
         </g>
         <g id="g1376" transform="scale(1,-1)">
            <path d="m 809.797,-671.277 -0.004,-0.004 0.055,-0.012 0.058,-0.039 -0.152,-0.035 -0.133,-0.02 -0.078,-0.015 -0.047,-0.012 h -0.035 l -0.149,-0.059 -0.105,-0.023 0.008,-0.035 -0.016,-0.02 -0.035,-0.035 -0.027,-0.035 0.215,-0.035 0.086,-0.059 -0.184,-0.019 -0.035,-0.059 -0.043,-0.035 -0.024,-0.004 -0.05,0.012 -0.043,-0.047 0.003,-0.035 -0.039,-0.012 -0.043,-0.031 -0.042,0.007 -0.059,-0.023 0.016,-0.047 -0.028,-0.039 -0.066,-0.051 -0.043,-0.043 -0.035,-0.101 -0.059,-0.067 -0.047,-0.019 -0.039,-0.07 -0.016,-0.071 -0.035,-0.062 -0.054,-0.051 -0.032,-0.078 0.004,-0.078 0.078,-0.035 -0.05,-0.063 -0.098,-0.062 -0.031,-0.055 -0.032,-0.059 -0.042,-0.054 -0.145,-0.039 -0.082,-0.071 0.023,-0.058 -0.027,-0.067 -0.012,-0.074 v -0.129 l 0.028,-0.101 0.074,-0.028 -0.02,-0.078 -0.074,-0.074 -0.035,-0.07 -0.031,-0.055 -0.039,-0.07 -0.02,-0.09 -0.012,-0.114 -0.011,-0.109 -0.024,-0.109 -0.008,-0.09 -0.003,-0.098 0.074,-0.125 -0.051,-0.113 -0.098,-0.129 0.024,-0.137 -0.004,-0.121 -0.024,-0.121 -0.027,-0.113 0.18,-0.09 0.07,-0.129 -0.16,-0.07 -0.059,-0.106 -0.039,-0.066 -0.047,-0.106 -0.039,-0.082 v -0.082 l 0.012,-0.066 0.02,-0.082 0.007,-0.055 -0.007,-0.086 0.078,-0.09 0.074,-0.082 -0.016,-0.07 0.028,-0.09 0.011,-0.101 0.032,-0.09 0.058,-0.063 0.043,-0.05 0.004,-0.094 0.027,-0.094 0.051,-0.078 0.02,-0.055 0.031,-0.066 0.051,-0.094 0.023,-0.086 0.031,-0.094 0.051,-0.093 0.043,-0.121 0.067,-0.098 0.047,-0.047 0.039,-0.059 0.039,-0.07 0.035,-0.062 0.031,-0.075 0.055,-0.074 0.078,-0.066 0.125,-0.071 0.055,-0.058 -0.012,-0.035 0.035,-0.047 0.027,-0.051 0.055,-0.019 -0.141,-0.024 -0.011,-0.086 0.187,-0.051 0.18,-0.117 0.09,-0.047 0.211,-0.058 0.257,-0.047 0.043,-0.086 0.047,-0.067 0.067,-0.043 0.086,-0.089 0.132,-0.067 -0.011,-0.011 0.097,-0.079 0.215,-0.066 0.172,-0.094 0.137,-0.023 0.105,-0.047 0.192,-0.074 0.136,-0.078 0.047,-0.043 0.114,-0.059 0.121,-0.078 0.117,-0.098 0.113,-0.062 0.129,-0.012 0.133,-0.051 0.094,-0.093 0.101,-0.09 0.098,-0.036 0.054,-0.058 0.083,-0.066 0.066,-0.043 0.055,-0.059 0.109,-0.059 0.121,-0.027 0.086,-0.012 0.055,-0.039 0.058,-0.051 0.09,-0.031 0.113,-0.035 0.11,-0.035 0.086,-0.012 0.074,-0.035 0.105,-0.035 0.09,0.012 h 0.008 l 0.051,0.007 0.078,-0.019 0.066,0.043 0.024,0.012 -0.039,-0.02 0.07,-0.008 0.133,-0.004 0.082,-0.039 0.121,-0.004 0.133,-0.004 0.152,-0.023 0.137,-0.008 0.09,0.016 0.101,0.004 0.129,-0.035 0.145,0.007 0.156,0.016 0.305,-0.031 0.23,-0.043 0.063,-0.008 0.117,-0.012 0.129,-0.015 0.105,-0.012 0.028,0.004 0.07,-0.004 0.207,-0.043 0.148,-0.027 0.149,-0.02 0.195,-0.008 0.266,0.012 0.238,0.004 0.059,0.008 0.043,0.007 0.078,0.008 0.105,-0.035 0.106,0.008 -0.106,0.035 0.043,-0.012 0.231,0.008 0.164,0.008 0.097,0.039 0.086,0.023 0.153,0.016 0.011,0.016 0.047,0.008 0.067,0.003 0.043,0.012 0.066,-0.015 0.098,0.007 0.113,0.055 0.129,0.039 0.105,0.02 0.102,0.05 0.105,0.039 0.125,0.043 0.188,0.024 0.152,0.012 0.098,0.054 0.14,0.035 0.149,0.059 0.148,0.082 0.114,0.059 0.078,0.031 0.117,0.035 0.199,0.055 0.176,0.047 0.141,0.062 0.117,0.113 0.242,0.102 0.219,0.051 0.047,0.066 0.109,0.059 0.152,0.051 0.102,0.089 0.062,0.086 0.114,0.039 0.136,0.059 0.129,0.047 0.137,0.055 0.141,0.078 0.121,0.031 0.14,0.051 0.137,0.093 0.125,0.079 0.109,0.074 0.106,0.031 0.133,0.055 0.09,0.133 0.144,0.089 0.117,0.09 0.067,0.082 0.078,0.075 0.09,0.093 0.078,0.063 -0.137,0.047 -0.008,0.093 0.242,0.051 0.133,0.086 0.106,0.059 0.093,0.05 0.168,0.082 0.157,0.09 0.101,0.086 0.074,0.09 0.114,0.074 0.148,0.071 0.125,0.054 0.039,0.118 0.086,0.121 0.149,0.074 0.121,0.086 0.101,0.105 0.067,0.129 0.144,0.129 0.11,0.09 0.046,0.086 0.086,0.086 0.078,0.129 0.094,0.07 0.071,0.09 0.062,0.125 0.047,0.121 0.055,0.109 0.07,0.106 0.082,0.121 0.066,0.133 0.106,0.093 0.082,0.09 0.035,0.098 0.074,0.109 0.09,0.11 0.078,0.105 0.047,0.113 0.024,0.129 0.07,0.114 0.113,0.121 0.106,0.133 0.085,0.117 0.083,0.093 0.16,0.11 0.14,0.133 v 0.117 l 0.067,0.105 0.066,0.125 0.027,0.149 -0.011,0.121 -0.067,0.094 0.075,0.097 0.195,0.082 0.101,0.098 0.051,0.113 0.055,0.09 0.07,0.059 0.047,0.097 -0.004,0.078 0.004,0.09 -0.004,0.078 0.012,0.063 -0.078,0.098 -0.106,0.097 0.043,0.074 -0.015,0.102 -0.032,0.086 -0.019,0.141 -0.047,0.117 -0.059,0.074 -0.046,0.09 -0.047,0.101 -0.063,0.098 -0.07,0.082 -0.074,0.113 0.015,0.137 0.02,0.106 -0.098,0.101 -0.113,0.125 -0.074,0.113 -0.059,0.102 -0.031,0.109 -0.074,0.129 -0.075,0.098 -0.007,0.101 -0.047,0.106 -0.012,0.082 -0.02,0.105 0.036,0.086 -0.004,0.059 -0.035,0.074 -0.028,0.09 -0.004,0.082 0.004,0.043 0.02,0.043 -0.024,0.074 -0.058,0.063 -0.016,0.07 -0.027,0.066" style="fill:none;stroke:#000000;stroke-width:2.61538;stroke-linecap:round;stroke-linejoin:round;stroke-miterlimit:10;stroke-dasharray:none;stroke-opacity:1" id="path1378" />
         </g>
         <g id="g1380" transform="scale(1,-1)">
            <path d="m 777.516,-677.922 h 0.015 l 0.024,-0.004 -0.004,0.012 0.008,-0.012 -0.028,-0.031 -0.039,0.031 -0.121,0.028 -0.113,-0.055 0.054,-0.016 0.047,-0.043 v -0.05 l 0.004,-0.055 v -0.02 l -0.23,-0.015 -0.094,-0.055 0.168,-0.02 0.039,-0.035 0.031,-0.031 0.032,-0.016 0.027,-0.015 0.144,0.012 0.043,-0.024 -0.074,-0.031 -0.004,-0.02 -0.007,-0.011 -0.004,-0.004 -0.11,-0.016 -0.07,-0.055 0.051,-0.05 -0.004,-0.051 -0.028,-0.043 -0.003,-0.086 0.035,-0.078 0.035,0.004 -0.055,-0.028 -0.031,-0.05 -0.008,-0.063 -0.047,-0.055 -0.039,-0.062 -0.019,-0.043 -0.032,-0.027 -0.015,-0.071 -0.032,-0.066 -0.015,-0.039 -0.012,-0.067 -0.004,-0.066 -0.023,-0.055 -0.039,-0.054 0.004,-0.086 -0.024,-0.094 -0.031,-0.067 -0.008,-0.089 -0.09,-0.071 -0.062,-0.09 0.023,-0.093 -0.019,-0.098 -0.008,-0.078 -0.004,-0.082 0.074,-0.094 0.008,-0.09 -0.082,-0.105 -0.023,-0.149 -0.036,-0.121 -0.039,-0.058 -0.152,-0.102 -0.219,-0.137 0.024,-0.148 0.078,-0.125 0.004,-0.148 -0.008,-0.141 -0.012,-0.129 -0.055,-0.082 -0.035,-0.082 0.02,-0.09 0.004,-0.098 -0.012,-0.117 v -0.07 l -0.105,-0.07 0.019,-0.114 0.086,-0.078 -0.07,-0.082 -0.012,-0.09 -0.023,-0.07 -0.012,-0.059 -0.047,-0.082 -0.035,-0.105 v -0.102 l -0.008,-0.082 -0.004,-0.078 v -0.101 l 0.098,-0.102 0.152,-0.086 -0.012,-0.101 -0.046,-0.079 -0.004,-0.07 -0.004,-0.094 0.058,-0.086 -0.023,-0.101 -0.02,-0.137 0.071,-0.097 0.035,-0.106 0.039,-0.113 0.039,-0.121 0.019,-0.129 0.016,-0.106 0.059,-0.101 0.043,-0.125 0.047,-0.141 0.039,-0.168 0.105,-0.117 0.039,-0.105 -0.027,-0.098 0.054,-0.106 0.032,-0.117 0.035,-0.078 -0.008,-0.082 -0.019,-0.137 0.05,-0.121 0.078,-0.125 0.067,-0.121 0.051,-0.129 0.058,-0.144 0.012,-0.121 -0.109,-0.075 0.058,-0.101 0.156,-0.094 0.125,-0.113 0.106,-0.082 0.066,-0.09 0.184,-0.129 0.156,-0.102 -0.012,-0.058 0.059,-0.086 0.055,-0.094 0.086,-0.062 -0.047,-0.063 -0.106,-0.074 0.117,-0.066 0.18,-0.086 0.121,-0.114 0.102,-0.054 0.078,-0.067 0.269,-0.066 0.211,-0.063 -0.058,-0.031 0.012,-0.062 0.011,-0.075 0.028,-0.031 0.043,-0.039 0.128,-0.051 0.09,-0.066 -0.004,-0.055 0.055,-0.039 h 0.051 l 0.039,-0.039 0.144,-0.066 0.083,-0.051 -0.012,-0.031 0.019,-0.055 0.032,-0.07 0.097,-0.02 0.074,-0.035 0.028,-0.035 0.051,-0.024 0.019,-0.007 0.066,-0.004 0.004,-0.02 0.008,-0.027 0.051,-0.039 0.043,-0.016 0.039,-0.031 0.039,-0.012 -0.113,-0.004 v -0.035 l 0.172,-0.043 0.113,-0.047 0.105,-0.015 0.079,-0.067 0.125,-0.058 0.136,0.027 0.094,-0.043 0.055,-0.039 0.066,-0.024 0.055,-0.015 0.066,-0.028 -0.058,-0.023 0.031,-0.039 0.137,-0.031 0.101,-0.039 0.129,-0.129 0.07,-0.055 0.071,0.012 0.031,-0.028 0.016,-0.031 0.019,-0.004 0.016,-0.015 0.031,-0.004 0.211,-0.008 0.121,-0.039 -0.133,0.004 -0.012,0.004 -0.023,0.019 -0.019,0.055 -0.024,-0.008 -0.082,-0.004 0.023,-0.031 -0.019,-0.016 -0.016,0.004 -0.031,0.004 0.191,-0.015 0.114,0.066 -0.18,-0.043 -0.098,-0.004 -0.058,0.043 -0.043,0.016 -0.016,0.011 0.004,0.024 -0.031,0.031 -0.031,0.047 -0.039,0.078 -0.036,0.094 -0.07,0.082" style="fill:none;stroke:#000000;stroke-width:2.61538;stroke-linecap:round;stroke-linejoin:round;stroke-miterlimit:10;stroke-dasharray:none;stroke-opacity:1" id="path1382" />
         </g>
         <g id="g1384" transform="scale(1,-1)">
            <path d="m 729.773,-687.121 c 4.02873,3.18445 8.98815,-3.04133 3.90905,-5.35475 -2.22563,-1.31951 -5.06201,0.38492 -6.29105,2.31175" style="fill:none;stroke:#000000;stroke-width:2.61538;stroke-linecap:round;stroke-linejoin:round;stroke-miterlimit:10;stroke-dasharray:none;stroke-opacity:1" id="path1386" />
         </g>
         <g id="g1388" transform="scale(1,-1)">
            <path d="m 734.34,-684.203 c 5.5119,-1.16373 4.35987,-8.22507 -0.0402,-9.96746 -3.02935,-2.46101 -7.75221,-1.39041 -9.46911,2.10236 -0.90359,1.10924 -0.56268,2.22635 -0.61573,3.47412" style="fill:none;stroke:#000000;stroke-width:2.61538;stroke-linecap:round;stroke-linejoin:round;stroke-miterlimit:10;stroke-dasharray:none;stroke-opacity:1" id="path1390" />
         </g>
         <g id="g1392" transform="scale(1,-1)">
            <path d="m 717.98,-687.461 c -3.3371,-4.23558 -1.22511,-11.39512 3.5976,-13.66285 5.18479,-1.98088 11.89564,-1.56506 15.89457,2.63745 2.27715,2.84717 5.47992,5.61434 4.39168,9.67929 -0.65558,2.14689 -2.2012,3.91481 -3.51985,5.67011" style="fill:none;stroke:#000000;stroke-width:2.61538;stroke-linecap:round;stroke-linejoin:round;stroke-miterlimit:10;stroke-dasharray:none;stroke-opacity:1" id="path1394" />
         </g>
         <g id="g1396" transform="scale(1,-1)">
            <path d="m 755.523,-681.094 h -0.003 l 0.015,-0.019 0.039,-0.059 0.024,-0.039 0.015,-0.019 0.008,-0.043 0.031,-0.004 -0.312,-0.075 -0.039,-0.109 0.297,-0.023 h 0.156 l 0.101,-0.032 0.055,-0.043 0.102,-0.003 0.203,0.027 0.097,-0.047 -0.035,0.004 0.016,0.012 0.031,0.004 0.028,-0.008 -0.102,-0.024 h -0.008 l 0.149,-0.027 0.066,-0.02 0.043,-0.004 0.031,-0.035 0.106,-0.043 0.074,0.004 -0.016,-0.019 0.012,-0.043 0.035,-0.043 0.043,-0.008 0.02,-0.047 0.113,-0.031 0.008,-0.043 -0.071,-0.043 -0.023,-0.047 -0.012,-0.035 -0.004,-0.059 0.055,-0.07 0.008,-0.059 -0.031,-0.027 0.039,-0.035 0.027,-0.067 0.031,-0.078 -0.007,-0.074 0.074,-0.051 0.07,-0.05 -0.02,-0.059 0.004,-0.055 0.016,-0.047 0.043,-0.023 0.059,-0.074 0.066,-0.106 0.012,-0.101 0.015,-0.078 0.028,-0.079 0.031,-0.078 -0.004,-0.113 -0.02,-0.094 0.047,-0.097 0.082,-0.121 0.059,-0.129 0.07,-0.153 0.063,-0.066 v -0.074 l 0.035,-0.164 0.117,-0.129 0.039,-0.129 0.051,-0.117 0.059,-0.106 0.027,-0.105 0.109,-0.106 0.082,-0.129 -0.019,-0.086 0.027,-0.097 0.02,-0.09 0.008,-0.078 -0.157,-0.063 -0.047,-0.101 0.121,-0.082 0.024,-0.102 0.016,-0.082 0.007,-0.098 0.133,-0.101 0.246,-0.067 -0.023,-0.089 -0.145,-0.086 -0.035,-0.082 -0.035,-0.055 -0.031,-0.078 -0.086,-0.09 -0.024,-0.121 0.028,-0.106 -0.004,-0.125 -0.004,-0.121 v -0.14 l 0.109,-0.145 -0.027,-0.066 -0.074,-0.102 0.015,-0.121 -0.019,-0.105 -0.008,-0.102 -0.008,-0.078 0.016,-0.09 -0.016,-0.109 -0.039,-0.125 -0.035,-0.09 -0.016,-0.094 -0.031,-0.082 0.004,-0.109 -0.055,-0.137 -0.066,-0.102 -0.008,-0.125 -0.047,-0.121 -0.023,-0.144 -0.067,-0.153 -0.086,-0.144 v -0.137 l 0.004,-0.152 -0.023,-0.152 -0.004,-0.168 -0.02,-0.133 0.055,-0.141 0.024,-0.176 -0.079,-0.172 -0.054,-0.164 -0.02,-0.129 -0.015,-0.113 -0.118,-0.14 -0.179,-0.157 0.043,-0.132 0.058,-0.098 -0.011,-0.086 0.007,-0.137 0.008,-0.121 0.086,-0.09 0.024,-0.097 -0.067,-0.086 -0.031,-0.094 -0.031,-0.082 -0.036,-0.067 -0.019,-0.085 0.109,-0.118 0.02,-0.136 -0.125,-0.082 -0.051,-0.106 -0.051,-0.125 -0.031,-0.094 -0.059,-0.105 -0.07,-0.113 -0.035,-0.133 -0.047,-0.117 -0.043,-0.11 -0.043,-0.144 0.063,-0.106 0.058,-0.078 -0.082,-0.105 -0.062,-0.11 -0.059,-0.097 -0.047,-0.106 v -0.078 l -0.133,-0.086 -0.121,-0.121 0.02,-0.105 -0.055,-0.098 -0.051,-0.07 -0.054,-0.079 -0.09,-0.097 -0.129,-0.063 -0.055,-0.097 -0.054,-0.067 -0.071,-0.051 -0.066,-0.093 -0.055,-0.055 -0.078,-0.008 -0.051,-0.078 -0.023,-0.062 -0.051,-0.059 -0.059,-0.02 -0.039,-0.027 -0.109,-0.039 -0.113,-0.055 -0.024,-0.066 -0.027,-0.02 -0.031,-0.027 -0.031,-0.047 -0.141,-0.043 -0.231,-0.019 0.02,-0.035 0.055,-0.032 -0.02,-0.039 -0.035,-0.011 -0.008,-0.012 0.149,-0.028 -0.008,-0.015 -0.176,-0.016 -0.098,-0.035 -0.054,-0.004 -0.059,0.008 -0.129,-0.008 -0.156,-0.035 -0.055,0.012 -0.023,-0.016 -0.031,-0.008 -0.047,-0.004 h -0.071 l 0.246,-0.027 0.098,0.074" style="fill:none;stroke:#000000;stroke-width:2.61538;stroke-linecap:round;stroke-linejoin:round;stroke-miterlimit:10;stroke-dasharray:none;stroke-opacity:1" id="path1398" />
         </g>
         <g id="g1400" transform="scale(1,-1)">
            <path d="m 701.488,-617.176 c -0.14209,-5.89648 -0.2281,5.44087 -0.61185,7.7358 -1.96043,34.38849 -3.07106,68.83202 -4.41504,103.24366 -1.85048,4.51377 4.36593,-1.72269 7.30137,-0.31988 2.2927,0.16017 0.53877,-6.97506 1.38327,-9.55083 1.62263,-33.89256 2.54556,-67.82421 4.18625,-101.70975 l 0.957,-0.016" style="fill:none;stroke:#000000;stroke-width:2.61538;stroke-linecap:round;stroke-linejoin:round;stroke-miterlimit:10;stroke-dasharray:none;stroke-opacity:1" id="path1402" />
         </g>
         <g id="g1404" transform="scale(1,-1)">
            <path d="m 695.309,-502.953 c 41.57693,2.01766 83.2237,0.48819 124.81658,-0.30593 4.8742,-0.12736 9.62378,0.48567 13.73742,-2.76407" style="fill:none;stroke:#000000;stroke-width:2.61538;stroke-linecap:round;stroke-linejoin:round;stroke-miterlimit:10;stroke-dasharray:none;stroke-opacity:1" id="path1406" />
         </g>
         <g id="g1408" transform="scale(1,-1)">
            <path d="m 704.156,-506.461 c 42.49974,-0.51897 86.4482,0.11334 128.949,-0.297" style="fill:none;stroke:#000000;stroke-width:2.61538;stroke-linecap:round;stroke-linejoin:round;stroke-miterlimit:10;stroke-dasharray:none;stroke-opacity:1" id="path1410" sodipodi:nodetypes="cc" />
         </g>
         <g id="g1412" transform="scale(1,-1)">
            <path d="m 825.449,-507.109 0.004,0.004 -0.012,0.007 0.016,0.008 0.023,0.024 -0.203,0.039 -0.082,-0.047 0.2,-0.008 0.003,0.078 h 0.071 l 0.043,-0.019 0.023,-0.008 -0.004,0.015 -0.004,-0.007 0.028,-0.016 0.007,0.023 0.008,-0.015 0.028,-0.024 0.043,-0.007 0.019,0.015 -0.027,-0.027 -0.004,0.027 -0.004,-0.008 v -0.004 l 0.027,-0.003 0.016,0.015 -0.035,0.02 v -0.039 l -0.004,-0.012 v -0.016 h -0.02 l 0.02,0.012 0.031,0.004 0.02,0.027 0.019,0.004 0.024,0.016 0.152,0.011 0.129,0.008 -0.055,0.008 0.028,0.024 v 0.031 l -0.016,0.011 0.019,0.004 h -0.039 l 0.016,-0.004 0.059,-0.011 0.043,-0.004 0.027,0.015 0.035,-0.007 0.024,0.004 0.035,-0.008 0.05,-0.008 0.024,-0.008 0.016,-0.008 0.023,0.012 -0.012,0.023 0.028,-0.015 h 0.054 l 0.012,0.012 h 0.027 l 0.016,0.023 0.031,-0.012 h -0.078 l -0.012,-0.004 0.075,-0.015 0.05,0.011 0.047,-0.003 0.051,-0.016 0.106,0.008 h 0.109 l 0.027,-0.004 0.024,-0.004 0.035,-0.008 0.066,-0.008 -0.031,0.02 h 0.184 l 0.05,0.004 h 0.051 l 0.027,0.004 0.036,0.019 0.046,0.008 0.067,-0.012 0.07,-0.004 h 0.156 l 0.043,0.02 0.036,0.004 0.054,0.004 0.043,0.004 h 0.051 l 0.074,0.004 0.059,0.023 0.027,0.008 0.047,0.004 0.055,-0.012 0.047,-0.004 0.058,-0.008 h -0.054 l 0.015,0.008 0.121,-0.019 0.164,0.007 0.063,-0.007 0.117,-0.024 0.098,-0.012 0.039,-0.007 0.054,-0.004 h 0.036 l 0.039,0.004 -0.016,0.003 -0.102,-0.003 0.086,0.027 0.172,-0.027 0.082,0.003 0.051,0.008 0.039,0.02 0.145,-0.004 0.113,-0.02 0.019,-0.007 0.02,-0.012 0.043,0.012 -0.031,-0.012 0.078,-0.024 0.109,0.02 -0.031,-0.016 0.055,-0.031 0.066,0.031 0.063,0.008 0.043,0.004 0.003,-0.008 0.016,-0.004 0.02,0.016 0.019,0.008 0.082,-0.016 0.07,-0.004 0.004,0.008 -0.004,0.031 -0.011,0.008 0.015,0.004 h -0.058 l -0.055,-0.031 0.051,-0.008 0.035,-0.004 0.043,0.023 h 0.016 -0.051 l -0.02,0.016 0.043,-0.012 0.035,-0.015 0.028,0.004 h 0.027 l 0.067,0.023 -0.047,-0.019 -0.024,-0.032 0.106,-0.007 0.007,0.046 h 0.055 l 0.02,-0.011 -0.028,0.004 -0.011,0.003 0.047,-0.019 0.046,-0.008 0.036,0.008 0.085,-0.016 h -0.054 l -0.012,-0.023 h 0.149 l 0.035,-0.016 0.023,0.008 h 0.109 l 0.086,0.008 -0.058,0.004 h 0.012 l -0.008,0.027 h -0.032 l -0.066,0.004 -0.004,-0.004 0.012,-0.004 -0.004,0.016 h 0.004 l -0.016,0.004 0.129,-0.008 0.102,-0.004 h -0.137 l -0.035,0.035 -0.027,0.004 -0.028,0.027 -0.019,0.008 -0.016,-0.015 -0.016,-0.032 -0.019,-0.007 -0.016,-0.012 -0.019,-0.008 -0.016,-0.012 -0.027,-0.004 -0.032,-0.003 -0.019,-0.012 -0.012,0.004 -0.008,0.015 -0.027,0.008 -0.016,0.004 -0.011,-0.012" style="fill:none;stroke:#000000;stroke-width:2.61538;stroke-linecap:round;stroke-linejoin:round;stroke-miterlimit:10;stroke-dasharray:none;stroke-opacity:1" id="path1414" />
         </g>
         <g id="g1416" transform="scale(1,-1)">
            <path d="m 824.133,-506.613 c 2.89849,0.34079 7.95789,1.30848 10.24321,-1.1204 1.72058,-3.34368 0.0325,-7.42803 0.29491,-11.08129 -1.48389,-28.13653 -3.18279,-58.24942 -5.79612,-86.25889" style="fill:none;stroke:#000000;stroke-width:2.61538;stroke-linecap:round;stroke-linejoin:round;stroke-miterlimit:10;stroke-dasharray:none;stroke-opacity:1" id="path1418" sodipodi:nodetypes="cccc" />
         </g>
         <g id="g1420" transform="scale(1,-1)">
            <path d="m 700.105,-589.5 v -0.066 l 0.274,-0.047 0.176,-0.004 -0.188,0.012 -0.09,0.007 -0.035,0.008 -0.023,0.051 -0.008,-0.023 -0.094,-0.016 -0.051,0.027 0.051,-0.008 0.008,0.012 h 0.012 l -0.004,0.02 0.32,0.007 0.223,0.004 -0.227,-0.027 -0.043,-0.051 h -0.051 l 0.02,-0.015 0.039,0.004 -0.023,0.027 -0.032,0.008 0.02,-0.024 -0.008,-0.019 -0.035,0.008 -0.055,-0.012 -0.004,-0.004 h 0.059 l 0.016,-0.024 0.015,0.024 0.008,0.031 0.027,0.008 0.008,-0.004 0.039,-0.004 0.028,-0.031 0.07,-0.012 0.058,-0.023 0.094,-0.035 0.047,-0.059 0.07,-0.062 0.125,-0.051 c 3.258,-2.227 5.461,-3.211 8.024,-4.825" style="fill:none;stroke:#000000;stroke-width:1.30769;stroke-linecap:round;stroke-linejoin:round;stroke-miterlimit:10;stroke-dasharray:none;stroke-opacity:1" id="path1422" />
         </g>
         <g id="g1424" transform="scale(1,-1)">
            <path d="m 712.879,-593.641 -0.164,-0.062 -0.203,-0.031 -3.149,0.011 3.219,-0.011 0.043,0.023 0.051,0.016 0.082,0.011 c 40.769,0.039 82.074,6.286 118.32,10.75" style="fill:none;stroke:#000000;stroke-width:1.30769;stroke-linecap:round;stroke-linejoin:round;stroke-miterlimit:10;stroke-dasharray:none;stroke-opacity:1" id="path1426" />
         </g>
         <g id="g1428" transform="scale(1,-1)">
            <path d="m 788.918,-599.906 c -0.12137,-0.87545 0.2883,0.36342 0.11329,-0.48854 3.5e-4,-0.0642 0.23325,-1.29917 -0.3498,-1.18298 0.62327,-0.59521 -0.46612,-1.66778 0.0132,-2.34675 -0.2363,-0.80914 -0.97142,-2.16524 -0.84797,-2.55007 0.0316,0.17243 -0.29079,0.15188 -0.12359,-0.0485" style="fill:none;stroke:#000000;stroke-width:1.30769;stroke-linecap:round;stroke-linejoin:round;stroke-miterlimit:10;stroke-dasharray:none;stroke-opacity:1" id="path1430" />
         </g>
         <g id="g1432" transform="scale(1,-1)">
            <path d="m 787.973,-600.477 c 0.71179,-0.60658 1.56059,0.94509 2.55221,0.57138 1.16647,0.16801 2.38107,-0.50865 2.64417,-1.69368 0.2068,-0.80471 -0.58481,-1.73244 -0.36449,-2.16296 -0.92351,-0.74861 -1.59107,-1.92651 -2.89593,-2.07586 -0.9716,-0.0819 -2.37208,-0.46484 -3.01388,0.49013" style="fill:none;stroke:#000000;stroke-width:1.30769;stroke-linecap:round;stroke-linejoin:round;stroke-miterlimit:10;stroke-dasharray:none;stroke-opacity:1" id="path1434" />
         </g>
         <g id="g1436" transform="scale(1,-1)">
            <path d="m 794.82,-601.668 c -0.12733,-0.32338 0.24832,-0.033 0.18,0.039" style="fill:none;stroke:#000000;stroke-width:1.30769;stroke-linecap:round;stroke-linejoin:round;stroke-miterlimit:10;stroke-dasharray:none;stroke-opacity:1" id="path1438" />
         </g>
         <g id="g1440" transform="scale(1,-1)">
            <path d="m 796.008,-598.281 c -0.34041,0.20302 1.37601,-0.12423 1.83499,-0.0409 1.16359,-0.1887 3.04489,0.29382 3.55372,-1.06808 -0.47825,-1.3321 -2.27134,-1.85672 -3.62385,-1.90639 0.1217,0.0122 2.02629,0.44241 2.63404,-0.24504 1.51152,-0.42108 0.56421,-2.25668 -0.59144,-2.57002 -0.89055,-0.39849 -1.90158,-0.46007 -2.9136,-0.49401 -0.80396,0.1636 -1.7203,0.025 -2.3818,0.53533" style="fill:none;stroke:#000000;stroke-width:1.30769;stroke-linecap:round;stroke-linejoin:round;stroke-miterlimit:10;stroke-dasharray:none;stroke-opacity:1" id="path1442" />
         </g>
         <g id="g1444" transform="scale(1,-1)">
            <path d="m 713.258,-602.016 c 0.86251,-1.60636 1.10681,-3.64002 0.71501,-5.41004" style="fill:none;stroke:#000000;stroke-width:1.30769;stroke-linecap:round;stroke-linejoin:round;stroke-miterlimit:10;stroke-dasharray:none;stroke-opacity:1" id="path1446" />
         </g>
         <g id="g1448" transform="scale(1,-1)">
            <path d="m 713.598,-606.848 c 0.019,2.10891 3.05556,5.53582 3.4663,1.61894 0.22476,-1.73042 -0.46048,-3.89128 -0.1478,-0.9458 -0.68349,2.38841 2.58627,5.35665 3.09134,1.63057 0.19119,-1.18527 0.0517,-2.41984 0.4141,-3.57667" style="fill:none;stroke:#000000;stroke-width:1.30769;stroke-linecap:round;stroke-linejoin:round;stroke-miterlimit:10;stroke-dasharray:none;stroke-opacity:1" id="path1450" />
         </g>
         <g id="g1452" transform="scale(1,-1)">
            <path d="m 721.961,-603.426 c 1.38249,3.21461 5.47622,0.58347 4.55436,-2.41327 0.10897,-2.2351 0.0487,2.29739 -1.82293,1.34607 -2.37538,0.54162 -3.81173,-3.59956 1.38154,-1.86545" style="fill:none;stroke:#000000;stroke-width:1.30769;stroke-linecap:round;stroke-linejoin:round;stroke-miterlimit:10;stroke-dasharray:none;stroke-opacity:1" id="path1454" />
         </g>
         <g id="g1456" transform="scale(1,-1)">
            <path d="m 728.195,-601.25 c 1.65981,-0.93104 3.67648,-3.36498 4.227,-4.32005" style="fill:none;stroke:#000000;stroke-width:1.30769;stroke-linecap:round;stroke-linejoin:round;stroke-miterlimit:10;stroke-dasharray:none;stroke-opacity:1" id="path1458" />
         </g>
         <g id="g1460" transform="scale(1,-1)">
            <path d="m 728.215,-606.152 c 2.04685,1.17915 2.56778,3.7948 4.519,5.09" style="fill:none;stroke:#000000;stroke-width:1.30769;stroke-linecap:round;stroke-linejoin:round;stroke-miterlimit:10;stroke-dasharray:none;stroke-opacity:1" id="path1462" />
         </g>
         <g id="g1464" transform="scale(1,-1)">
            <path d="m 735.984,-603.105 c 2.34767,-1.08839 3.87665,2.13445 1.00928,2.47748 -3.5966,-0.78555 -1.29729,-6.81256 2.11127,-4.90227 0.37251,0.12728 0.72812,0.30125 1.06344,0.50679" style="fill:none;stroke:#000000;stroke-width:1.30769;stroke-linecap:round;stroke-linejoin:round;stroke-miterlimit:10;stroke-dasharray:none;stroke-opacity:1" id="path1466" />
         </g>
         <g id="g1468" transform="scale(1,-1)">
            <path d="m 741.289,-597.586 c -0.12861,-1.95931 -0.42412,-5.45184 0.293,-6.469" style="fill:none;stroke:#000000;stroke-width:1.30769;stroke-linecap:round;stroke-linejoin:round;stroke-miterlimit:10;stroke-dasharray:none;stroke-opacity:1" id="path1470" />
         </g>
         <g id="g1472" transform="scale(1,-1)">
            <path d="m 743.684,-597.629 c 7.8e-4,-2.06201 0.80931,-4.85684 0.49344,-6.4297 l 0.0645,-0.0783" style="fill:none;stroke:#000000;stroke-width:1.30769;stroke-linecap:round;stroke-linejoin:round;stroke-miterlimit:10;stroke-dasharray:none;stroke-opacity:1" id="path1474" />
         </g>
         <g id="g1476" transform="scale(1,-1)">
            <path d="m 687.81887,-647.043 c 1.27882,-31.48622 3.49503,-63.05018 5.87213,-94.496 0.25972,-0.0442 0.0809,-3.24277 0.004,-2.73552" style="fill:none;stroke:#000000;stroke-width:1.30769;stroke-linecap:round;stroke-linejoin:round;stroke-miterlimit:10;stroke-dasharray:none;stroke-opacity:1" id="path1478" sodipodi:nodetypes="ccc" />
         </g>
         <g id="g1480" transform="scale(1,-1)">
            <path d="m 694.066,-670.031 c 3.63176,2.01749 8.10632,1.35873 12.09249,2.28487 9.2479,1.14967 18.53036,2.08161 27.71651,3.67213 0.08,0.21081 -0.73865,-0.17609 -0.25,-0.145" style="fill:none;stroke:#000000;stroke-width:1.30769;stroke-linecap:round;stroke-linejoin:round;stroke-miterlimit:10;stroke-dasharray:none;stroke-opacity:1" id="path1482" />
         </g>
         <g id="g1484" transform="scale(1,-1)">
            <path d="m 850.242,-663.621 -0.008,-0.02 -0.054,-0.043 -0.063,-0.054 -0.07,-0.051 0.07,-0.09 0.028,-0.019 -0.141,-0.04 -0.031,-0.078 -0.028,0.036 -0.015,0.05 h -0.086 l -0.032,-0.019 0.067,0.004 0.012,-0.016 0.007,-0.004 0.012,0.016 0.012,0.043 0.043,-0.008 h 0.039 l -0.031,0.019 0.007,-0.031 0.008,-0.047 0.008,-0.027 0.051,0.027 -0.141,-0.007 -0.121,-0.004 0.125,0.011 0.028,-0.023 0.019,0.008 0.02,0.043 -0.157,-0.024 -0.074,-0.019 0.129,-0.028 0.035,-0.054 0.031,-0.051 0.028,-0.02 0.09,-0.019 0.125,-0.035 -0.02,-0.016 -0.055,-0.047 -0.007,-0.054 -0.012,-0.075 0.015,-0.066 -0.191,-0.016 -0.082,-0.074 0.102,-0.047 0.011,-0.055 0.012,-0.066 0.012,-0.031 0.008,-0.031 0.003,-0.051 0.008,-0.078 0.012,-0.141 0.02,-0.09 0.027,-0.105 0.047,-0.047 0.015,-0.063 -0.004,-0.09 -0.039,-0.074 -0.011,-0.07 -0.012,-0.074 0.047,-0.055 -0.008,-0.086 -0.055,-0.09 -0.019,-0.097 -0.02,-0.059 c -0.804,-10.645 -1.836,-23.57 -2.14,-32.566 l 0.05,-0.036 0.008,-0.039 0.004,-0.101 0.004,-0.059 -0.008,-0.004 -0.019,-0.023 -0.012,-0.016 -0.004,-0.023 -0.004,-0.059 -0.004,-0.054 0.02,-0.079 0.008,-0.054 -0.028,-0.063 -0.008,-0.051 -0.007,-0.042 -0.004,-0.09 -0.028,-0.09 -0.007,-0.02 -0.02,-0.035 -0.023,-0.027 -0.016,-0.055 -0.031,-0.07 -0.016,-0.051 -0.047,-0.031 -0.14,-0.031 -0.032,-0.047 0.059,-0.043 -0.02,-0.047 0.004,-0.063 0.071,-0.047 0.035,-0.046 -0.039,-0.036 -0.024,-0.035 -0.004,-0.008 v -0.035 l -0.109,-0.027 -0.145,-0.035 0.04,-0.012 0.058,-0.008 0.016,-0.039 0.015,-0.008 h 0.016 l 0.098,-0.019 0.047,-0.02 -0.047,0.004 v -0.004 l -0.016,0.028 -0.027,0.039 -0.016,-0.008 0.039,0.012 0.043,-0.024 -0.07,0.008 -0.016,-0.023 -0.023,-0.012 h -0.02 l -0.019,0.019 -0.012,0.028 -0.008,0.004 -0.019,0.015 -0.024,0.024" style="fill:none;stroke:#000000;stroke-width:1.30769;stroke-linecap:round;stroke-linejoin:round;stroke-miterlimit:10;stroke-dasharray:none;stroke-opacity:1" id="path1486" />
         </g>
         <g id="g1488" transform="scale(1,-1)">
            <path d="m 703.789,-732.422 c 45.20341,13.04444 91.74977,20.52709 138.133,27.938" style="fill:none;stroke:#000000;stroke-width:1.30769;stroke-linecap:round;stroke-linejoin:round;stroke-miterlimit:10;stroke-dasharray:none;stroke-opacity:1" id="path1490" />
         </g>
      </g>
   </g>
</svg>
