<?xml version="1.0" encoding="UTF-8" standalone="no"?>
<!-- Created by Ashley Blewer - This work is licensed under a Creative Commons Attribution 4.0 International License -->

<svg width="544" height="480" viewBox="0 0 143.93334 127" version="1.1" id="svg2490" inkscape:version="1.1.2 (08b2f3d93c, 2022-04-05)" sodipodi:docname="1991-d3-3.svg"
   xmlns:inkscape="http://www.inkscape.org/namespaces/inkscape"
   xmlns:sodipodi="http://sodipodi.sourceforge.net/DTD/sodipodi-0.dtd"
   xmlns="http://www.w3.org/2000/svg"
   xmlns:svg="http://www.w3.org/2000/svg">
   <sodipodi:namedview id="namedview2492" pagecolor="#ffffff" bordercolor="#666666" borderopacity="1.0" inkscape:pageshadow="2" inkscape:pageopacity="0.0" inkscape:pagecheckerboard="0" inkscape:document-units="mm" showgrid="false" units="px" inkscape:zoom="0.90583674" inkscape:cx="272.67607" inkscape:cy="177.18425" inkscape:window-width="1848" inkscape:window-height="1136" inkscape:window-x="72" inkscape:window-y="27" inkscape:window-maximized="1" inkscape:current-layer="layer1" />
   <defs id="defs2487" />
   <g inkscape:label="Layer 1" inkscape:groupmode="layer" id="layer1">
      <g id="g1692" transform="matrix(0.41144223,0,0,-0.41147814,-275.14355,-5.1571565)" style="stroke-width:0.85738">
         <path d="m 726.191,-263.695 c -3.95619,0.4447 -8.03675,1.73396 -10.89669,4.62643 -1.33103,1.4712 -1.1495,3.75699 -0.17177,5.36492 0.40027,0.55218 0.72948,1.1434 0.87419,1.81858 0.48152,1.70952 0.43018,3.84588 -0.99218,5.10732 -0.81544,0.74792 -2.11992,1.46073 -3.14556,0.66475" style="fill:none;stroke:#000000;stroke-width:2.24237;stroke-linecap:round;stroke-linejoin:round;stroke-miterlimit:10;stroke-dasharray:none;stroke-opacity:1" id="path1694" />
      </g>
      <g id="g1696" transform="matrix(0.41144223,0,0,-0.41147814,-275.14355,-5.1571565)" style="stroke-width:0.85738">
         <path d="m 714.25583,-257.29403 c -4.16137,15.56278 -4.39488,33.67924 -6.56814,49.54261 -3.34452,39.35241 -7.09298,78.74133 -11.40271,117.95442" style="fill:none;stroke:#000000;stroke-width:2.24237;stroke-linecap:round;stroke-linejoin:round;stroke-miterlimit:10;stroke-dasharray:none;stroke-opacity:1" id="path1698" sodipodi:nodetypes="ccc" />
      </g>
      <g id="g1700" transform="matrix(0.41144223,0,0,-0.41147814,-275.14355,-5.1571565)" style="stroke-width:0.85738">
         <path d="m 696.28498,-89.797 c -1.24336,1.99217 -0.88336,5.37147 -0.97598,7.738" style="fill:none;stroke:#000000;stroke-width:2.24237;stroke-linecap:round;stroke-linejoin:round;stroke-miterlimit:10;stroke-dasharray:none;stroke-opacity:1" id="path1702" sodipodi:nodetypes="cc" />
      </g>
      <g id="g1704" transform="matrix(0.41144223,0,0,-0.41147814,-275.14355,-5.1571565)" style="stroke-width:0.85738">
         <path d="m 695.262,-82.109 c 95.06712,6.760599 190.22481,12.620125 285.41475,17.06759 L 981.883,-65.398" style="fill:none;stroke:#000000;stroke-width:2.24237;stroke-linecap:round;stroke-linejoin:round;stroke-miterlimit:10;stroke-dasharray:none;stroke-opacity:1" id="path1706" />
      </g>
      <g id="g1708" transform="matrix(0.41144223,0,0,-0.41147814,-275.14355,-5.1571565)" style="stroke-width:0.85738">
         <path d="m 981.883,-65.398 c -0.0769,-0.670543 2.04018,-1.35437 2.49906,-1.560889 0.48583,-0.515666 1.03946,-0.935111 1.6456,-1.311328 1.26737,-0.980568 2.46102,-2.06018 3.83276,-2.8991 0.54809,-0.393877 1.17541,-0.775745 1.53052,-1.365681" style="fill:none;stroke:#000000;stroke-width:2.24237;stroke-linecap:round;stroke-linejoin:round;stroke-miterlimit:10;stroke-dasharray:none;stroke-opacity:1" id="path1710" sodipodi:nodetypes="ccccc" />
      </g>
      <g id="g1712" transform="matrix(0.41144223,0,0,-0.41147814,-275.14355,-5.1571565)" style="stroke-width:0.85738">
         <path d="M 696.28498,-89.797 989.652,-72.09" style="fill:none;stroke:#000000;stroke-width:2.24237;stroke-linecap:round;stroke-linejoin:round;stroke-miterlimit:10;stroke-dasharray:none;stroke-opacity:1" id="path1714" sodipodi:nodetypes="cc" />
      </g>
      <g id="g1716" transform="matrix(0.41144223,0,0,-0.41147814,-275.14355,-5.1571565)" style="stroke-width:0.85738">
         <path d="m 991.391,-72.535 c 2.47483,-5.000778 4.37602,-10.65651 2.85632,-16.241392 -1.00325,-7.649771 -0.53121,-15.798768 -3.65053,-22.963158 -3.54903,-2.89166 -3.22362,-6.13339 -1.80069,-9.51415 -4.95693,-28.95994 -6.94671,-58.40452 -12.90341,-87.18841 -2.03076,-2.50542 -7.91606,-5.61956 -2.76355,-9.05811 5.75858,-1.64701 0.3929,-9.93162 -3.49992,-11.00499 -1.72806,-0.48332 -4.96772,-1.55442 -6.66022,-1.08879" style="fill:none;stroke:#000000;stroke-width:2.24237;stroke-linecap:round;stroke-linejoin:round;stroke-miterlimit:10;stroke-dasharray:none;stroke-opacity:1" id="path1718" sodipodi:nodetypes="cccccccc" />
      </g>
      <g id="g1720" transform="matrix(0.41144223,0,0,-0.41147814,-275.14355,-5.1571565)" style="stroke-width:0.85738">
         <path d="m 725.336,-263.652 c 59.547,5.625 226.359,32.918 237.633,34.058" style="fill:none;stroke:#000000;stroke-width:2.24237;stroke-linecap:round;stroke-linejoin:round;stroke-miterlimit:10;stroke-dasharray:none;stroke-opacity:1" id="path1722" />
      </g>
      <g id="g1724" transform="matrix(0.41144223,0,0,-0.41147814,-275.14355,-5.1571565)" style="stroke-width:0.85738">
         <path d="m 718.465,-91.391 c 0.78542,-0.64526 0.17073,-1.728898 0.13822,-2.556497 -0.14911,-0.912336 0.97327,-0.873046 1.55797,-0.683702 l 15.22097,0.925497 c 1.0748,0.03105 0.58981,1.195476 0.11729,1.65685 -0.59089,0.645303 -0.78955,1.478698 -1.17856,2.225482 -0.12533,0.201199 -0.23596,0.488208 -0.49698,0.53847" style="fill:none;stroke:#000000;stroke-width:2.24237;stroke-linecap:round;stroke-linejoin:round;stroke-miterlimit:10;stroke-dasharray:none;stroke-opacity:1" id="path1726" sodipodi:nodetypes="ccccccc" />
      </g>
      <g id="g1728" transform="matrix(0.41144223,0,0,-0.41147814,-275.14355,-5.1571565)" style="stroke-width:0.85738">
         <path d="m 963.316,-78.758 c 0.2667,0.811954 -0.65176,-3.271104 0.32462,-3.559555 l 12.554,0.352605 -0.97539,4.346925 -11.78531,-1.076887" style="fill:none;stroke:#000000;stroke-width:2.24237;stroke-linecap:round;stroke-linejoin:round;stroke-miterlimit:10;stroke-dasharray:none;stroke-opacity:1" id="path1730" sodipodi:nodetypes="ccccc" />
      </g>
      <g id="g1732" transform="matrix(0.41144223,0,0,-0.41147814,-275.14355,-5.1571565)" style="stroke-width:0.85738">
         <path d="m 718.703,-91.195 c 0,0 15.61789,1.37163 15.12091,1.9101" style="fill:none;stroke:#000000;stroke-width:2.24237;stroke-linecap:round;stroke-linejoin:round;stroke-miterlimit:10;stroke-dasharray:none;stroke-opacity:1" id="path1734" sodipodi:nodetypes="cc" />
      </g>
      <g id="g1736" transform="matrix(0.41144223,0,0,-0.41147814,-275.14355,-5.1571565)" style="stroke-width:0.85738">
         <path d="m 771.91,-109.16 0.004,-0.039 -0.019,-0.063 -0.024,-0.05 0.039,-0.102 0.074,-0.078 -0.035,-0.028 -0.043,-0.003 -0.015,0.031 -0.004,-0.016 -0.004,-0.008 -0.199,-0.007 -0.086,-0.032 0.14,0.02 0.043,-0.102 0.082,-0.019 0.004,0.058 0.039,0.024 0.043,0.023 v 0.024 l -0.008,0.027 0.004,-0.008 -0.007,0.004 -0.012,0.027 -0.039,0.012 -0.039,0.008 0.011,0.008 -0.004,0.047 -0.007,0.027 v -0.004 l -0.012,-0.019 -0.059,-0.012 -0.031,-0.039 0.004,0.062 -0.027,-0.023 -0.028,-0.106 -0.054,0.004 0.144,-0.031 0.055,-0.023 -0.094,-0.032 -0.051,-0.015 -0.043,-0.004 -0.035,-0.004 h -0.051 l -0.066,-0.008 -0.062,0.055 -0.083,0.047 -0.043,-0.047 -0.082,-0.02 0.012,-0.011 v -0.004 l -0.078,-0.036 -0.062,-0.043 -0.047,-0.003 -0.035,0.003 -0.086,0.02 -0.063,0.012 0.008,-0.012 -0.039,-0.047 -0.059,0.008 -0.051,0.031 -0.042,0.008 -0.067,0.008 -0.07,0.004 -0.051,0.027 -0.055,0.024 -0.058,0.015 -0.043,-0.008 h -0.231 l -0.152,0.008 0.09,-0.012 -0.008,-0.089 -0.035,-0.036 -0.024,0.047 0.004,0.024 0.043,0.015 -0.035,0.032 -0.098,0.011 -0.078,0.082 -0.074,0.055 -0.043,-0.004 -0.199,0.008 -0.149,0.039 0.051,0.027 -0.023,0.004 -0.028,0.004 -0.015,0.008 0.035,0.02 v 0.019 l -0.078,0.008 -0.067,0.051 -0.042,-0.035 h -0.047 l -0.055,0.046 0.008,0.028 -0.02,0.031 -0.074,0.043 -0.07,0.066 -0.082,0.028 -0.047,0.035 -0.012,0.031 -0.055,0.039 -0.066,0.016 -0.051,0.137 -0.097,0.078 -0.055,-0.051 -0.067,0.012 0.024,0.011 -0.016,0.016 -0.066,-0.012 -0.051,-0.012 -0.059,0.043 -0.058,0.055 0.023,0.027 -0.027,0.067 -0.082,0.058 -0.051,0.09 -0.043,0.082 -0.019,0.016 -0.094,0.035 -0.137,0.059 0.004,0.035 0.047,0.023 0.019,0.032 0.02,0.054 V -108 l -0.008,0.082 0.012,0.074 0.047,0.063 0.027,0.023 0.039,0.043 0.02,0.102 0.015,0.109 -0.027,0.09 0.035,0.086 0.082,0.09 0.055,0.144 0.066,0.117 0.055,0.039 -0.02,0.075 0.04,0.07 0.109,0.082 0.051,0.023 0.066,0.047 0.063,0.133 0.191,0.106 0.227,0.105 0.003,0.125 -0.011,0.051 0.062,0.082 0.035,0.137 0.047,0.09 -0.019,0.089 -0.016,0.094 0.074,0.133 0.067,0.082 0.043,0.039 0.043,0.078 0.082,0.063 0.031,0.074 v 0.058 l 0.035,0.079 0.039,0.027 0.039,0.043 0.039,0.066 0.035,0.071 0.032,0.058 0.054,0.039 0.059,0.063 0.043,0.058 0.051,0.039 0.043,0.036 0.019,0.027 0.055,0.035 0.078,0.047 0.055,0.016 0.062,0.007 0.055,0.016 h -0.023 l 0.046,-0.004 0.11,-0.078 0.082,-0.055 0.066,0.02 0.07,0.031 0.122,0.008 0.089,-0.016 0.047,-0.008 0.075,0.063 0.085,0.008 0.075,-0.071 -0.035,-0.027 -0.145,-0.043 0.078,-0.043 0.231,-0.062 0.16,-0.032 0.121,-0.043 0.086,-0.058 0.191,-0.07 0.149,-0.055 0.015,-0.059 0.074,-0.082 0.063,-0.066 0.059,-0.055 0.058,-0.066 0.082,-0.043 0.082,-0.059 0.028,-0.07 0.062,0.004 0.051,-0.035 0.062,-0.106 0.114,-0.09 0.058,-0.062 0.016,-0.039 0.031,-0.11 0.027,-0.117 0.032,-0.027 0.09,-0.078 0.125,-0.09 -0.028,-0.09 -0.035,-0.156 v -0.129 l -0.016,-0.07 0.008,-0.114 -0.101,-0.101 -0.067,-0.129 0.067,-0.071 0.004,-0.109 0.003,-0.148 -0.015,-0.11 -0.051,-0.093 -0.055,-0.094 -0.011,-0.094 -0.02,-0.105 -0.043,-0.114 -0.058,-0.082 -0.008,-0.07 -0.028,-0.059 -0.074,-0.066 -0.047,-0.098 -0.054,-0.125 -0.086,-0.066 -0.09,-0.035 -0.082,-0.043 -0.094,-0.047 -0.066,-0.07 -0.059,-0.02 -0.074,-0.035 -0.067,-0.086 -0.113,-0.078 -0.238,-0.063 -0.098,-0.078 0.016,-0.066 -0.039,-0.094 -0.059,-0.059 -0.047,-0.015 0.086,-0.043 0.016,-0.047 -0.125,-0.039 -0.086,-0.012 -0.07,-0.008 -0.059,-0.011 -0.098,-0.016 -0.16,-0.016 -0.101,-0.031 -0.032,0.024 -0.066,0.046 -0.043,-0.023 -0.047,-0.043 0.18,-0.016 0.012,-0.007 h -0.2 l -0.105,-0.024 -0.074,-0.004 -0.063,0.008 -0.09,0.024 -0.062,0.031 -0.067,0.015 -0.093,-0.031 -0.102,0.027 -0.098,0.075 -0.086,0.027 -0.128,0.035 -0.106,0.02 -0.035,0.078 -0.063,0.051 -0.054,-0.004 -0.067,0.027 -0.129,0.043 -0.105,0.055 -0.043,0.054 -0.086,-0.039 -0.121,0.008 -0.133,0.125 -0.027,0.067 -0.035,0.07 -0.129,0.066 -0.149,0.11 -0.144,0.125 -0.133,0.054 -0.125,0.055 -0.246,0.063 -0.18,0.078 0.004,0.078 -0.062,0.07 -0.059,0.047 -0.035,0.066 0.031,0.047 -0.012,0.055 -0.058,0.047 0.012,0.062 -0.02,0.043 v 0.035 l -0.004,0.079 0.09,0.074 0.066,0.074 -0.047,0.074 0.016,0.196 0.035,0.156 0.028,0.043 0.062,0.086 -0.035,0.105 -0.02,0.113 0.094,0.145 0.078,0.105 0.082,0.098 0.071,0.152 0.363,0.11 0.238,0.168 -0.117,0.097 0.059,0.145 0.086,0.152 0.066,0.09 0.055,0.09 0.082,0.09 0.101,0.086 0.102,0.121 0.125,0.141 0.129,0.035 0.09,0.008 0.187,0.027 0.191,0.019 0.036,-0.007 h 0.093 l 0.118,0.019 0.117,0.004 0.121,-0.012 0.125,-0.011 0.09,-0.016 0.082,-0.063 0.105,-0.019 0.106,0.008 0.109,-0.063 0.098,-0.047 0.097,-0.062 0.121,-0.031 0.149,-0.063 0.133,-0.098 0.097,-0.085 0.032,-0.067 0.074,-0.086 0.179,-0.094 0.125,-0.195 0.106,-0.144 0.074,-0.036 0.133,-0.062 0.152,-0.086 0.024,-0.07 0.027,-0.047 0.035,-0.008 0.02,-0.07 0.004,-0.141 -0.082,-0.098 -0.039,-0.089 0.066,-0.106 0.023,-0.109 0.004,-0.118 -0.004,-0.109 0.149,-0.113 0.094,-0.121 -0.094,-0.09 -0.055,-0.098 -0.031,-0.101 -0.039,-0.102 -0.047,-0.086 0.031,-0.086 v -0.074 l -0.094,-0.055 -0.062,-0.023 -0.031,-0.047 -0.051,-0.07 -0.027,-0.086 -0.114,-0.074 -0.105,-0.063 h -0.02 l -0.058,-0.047 -0.063,-0.113 -0.086,-0.078 v -0.094 l -0.039,-0.094 -0.168,-0.121 -0.136,-0.086 -0.106,-0.047 -0.098,-0.054 -0.136,-0.059 -0.168,-0.059 -0.137,-0.062 -0.105,-0.023 -0.114,-0.024 -0.105,-0.058 -0.117,-0.051 -0.11,-0.016 -0.078,-0.027 -0.105,-0.063 -0.086,-0.004 -0.082,0.028 -0.063,-0.02 0.028,-0.019 -0.024,-0.004 -0.121,-0.012 -0.098,0.02 -0.05,0.023 -0.051,0.004 -0.094,0.008" style="fill:none;stroke:#000000;stroke-width:2.24237;stroke-linecap:round;stroke-linejoin:round;stroke-miterlimit:10;stroke-dasharray:none;stroke-opacity:1" id="path1738" />
      </g>
      <g id="g1740" transform="matrix(0.41144223,0,0,-0.41147814,-275.14355,-5.1571565)" style="stroke-width:0.85738">
         <path d="m 911.938,-126.293 c 2.08606,-0.30201 5.52921,0.93127 6.25601,-1.91265 0.084,-1.92193 -0.0906,-3.96063 -0.67936,-5.78709 -1.14153,-2.34675 -4.49685,-1.78069 -6.54168,-1.44534" style="fill:none;stroke:#000000;stroke-width:2.24237;stroke-linecap:round;stroke-linejoin:round;stroke-miterlimit:10;stroke-dasharray:none;stroke-opacity:1" id="path1742" />
      </g>
      <g id="g1744" transform="matrix(0.41144223,0,0,-0.41147814,-275.14355,-5.1571565)" style="stroke-width:0.85738">
         <path d="m 911.457,-134.902 c 0.7099,2.35452 0.0631,4.9316 1.04718,7.2441 0.14507,0.43742 0.3059,0.86941 0.47282,1.2989" style="fill:none;stroke:#000000;stroke-width:2.24237;stroke-linecap:round;stroke-linejoin:round;stroke-miterlimit:10;stroke-dasharray:none;stroke-opacity:1" id="path1746" />
      </g>
      <g id="g1748" transform="matrix(0.41144223,0,0,-0.41147814,-275.14355,-5.1571565)" style="stroke-width:0.85738">
         <path d="m 925.465,-126.039 c 1.85949,1.20899 4.67967,0.85512 6.50615,-0.14247 1.3132,-2.38153 -1.63472,-3.56502 -3.56973,-3.25729 -0.91141,0.0345 -3.88302,-0.2077 -1.48556,-0.61274 2.41125,0.44259 6.00302,-1.98564 3.0581,-4.08058 -1.95898,-1.4403 -4.62495,-1.19391 -6.87997,-0.79402" style="fill:none;stroke:#000000;stroke-width:2.24237;stroke-linecap:round;stroke-linejoin:round;stroke-miterlimit:10;stroke-dasharray:none;stroke-opacity:1" id="path1750" />
      </g>
      <g id="g1752" transform="matrix(0.41144223,0,0,-0.41147814,-275.14355,-5.1571565)" style="stroke-width:0.85738">
         <path d="m 920.336,-130.691 -0.031,0.011 -0.039,0.059 -0.004,0.07 -0.028,0.043 -0.019,0.035 -0.016,0.043 0.028,0.02 0.097,0.031 -0.015,-0.039 -0.047,-0.027 0.004,0.011 0.004,0.02 h 0.019 l 0.012,-0.004 v -0.082 l 0.054,-0.016 0.036,0.039 0.047,-0.027 0.042,-0.004 0.028,-0.008 0.019,0.012 h 0.051 l 0.024,0.016 0.011,0.004 0.043,-0.004 0.016,-0.035 -0.008,-0.028 v 0.024 l -0.019,0.015 -0.012,0.016 -0.016,0.012 -0.012,-0.004 0.012,0.008 -0.004,0.007 h -0.008 l -0.007,0.008 -0.039,0.016 -0.121,0.008 -0.008,0.019 0.054,0.004 0.012,0.02" style="fill:none;stroke:#000000;stroke-width:2.24237;stroke-linecap:round;stroke-linejoin:round;stroke-miterlimit:10;stroke-dasharray:none;stroke-opacity:1" id="path1754" />
      </g>
      <g id="g1756" transform="matrix(0.41144223,0,0,-0.41147814,-275.14355,-5.1571565)" style="stroke-width:0.85738">
         <path d="m 727.891,-179.637 234.945,22.184 c 3.21195,-10.01443 -0.55732,-24.95307 -7.359,-30.934" style="fill:none;stroke:#000000;stroke-width:2.24237;stroke-linecap:round;stroke-linejoin:round;stroke-miterlimit:10;stroke-dasharray:none;stroke-opacity:1" id="path1758" sodipodi:nodetypes="ccc" />
      </g>
      <g id="g1760" transform="matrix(0.41144223,0,0,-0.41147814,-275.14355,-5.1571565)" style="stroke-width:0.85738">
         <path d="m 727.836,-179.605 c 1.59082,-11.3572 2.09768,-23.53431 4.215,-34.407 0.39499,-0.47734 0.59688,-0.22167 1.066,-0.48 0.76783,-0.20229 2.16831,-0.47839 3.211,-0.516 49.07153,2.25033 97.73735,9.48114 146.35886,16.14256 24.29478,3.45282 48.56356,7.08482 72.83614,10.68944" style="fill:none;stroke:#000000;stroke-width:2.24237;stroke-linecap:round;stroke-linejoin:round;stroke-miterlimit:10;stroke-dasharray:none;stroke-opacity:1" id="path1762" />
      </g>
      <g id="g1764" transform="matrix(0.41144223,0,0,-0.41147814,-275.14355,-5.1571565)" style="stroke-width:0.85738">
         <path d="m 922.438,-178.145 c -1.38113,-1.43438 -3.63907,-0.83128 -5.31776,-0.35062 -1.80835,0.79442 -3.7605,1.89851 -4.35661,3.91769 -0.71633,2.0682 -0.26124,4.4299 0.63515,6.37401 0.46869,1.65617 1.91032,2.85383 3.61835,3.10845 2.82626,0.61075 5.73612,-0.2024 8.29275,-1.3931 1.84142,-1.02243 2.17567,-3.61548 1.834,-5.52341 -0.81214,-4.38723 -5.35026,-7.93633 -9.8303,-7.19988 -0.79607,0.15872 -1.56472,0.4522 -2.26661,0.85954" style="fill:none;stroke:#000000;stroke-width:2.24237;stroke-linecap:round;stroke-linejoin:round;stroke-miterlimit:10;stroke-dasharray:none;stroke-opacity:1" id="path1766" />
      </g>
      <g id="g1768" transform="matrix(0.41144223,0,0,-0.41147814,-275.14355,-5.1571565)" style="stroke-width:0.85738">
         <path d="m 783.477,-194.113 c -3.85628,0.44675 -3.34864,1.65133 -5.03759,2.92665 -1.90092,1.72719 -3.32168,4.29284 -3.44927,6.82311 1.39203,4.08118 6.1197,6.84531 10.34093,5.54716 2.25235,-0.76562 5.06959,-1.78826 5.94875,-4.19357 0.91869,-3.37372 -0.18157,-7.48958 -3.08462,-9.56201 -1.42684,-0.88055 -3.1047,-1.18902 -4.7182,-1.54134" style="fill:none;stroke:#000000;stroke-width:2.24237;stroke-linecap:round;stroke-linejoin:round;stroke-miterlimit:10;stroke-dasharray:none;stroke-opacity:1" id="path1770" sodipodi:nodetypes="ccccccc" />
      </g>
      <g id="g1772" transform="matrix(0.41144223,0,0,-0.41147814,-275.14355,-5.1571565)" style="stroke-width:0.85738">
         <path d="m 763.055,-176.34912 c -1.71692,-0.763 -2.1388,-4.54785 -2.44696,-6.2601 -0.69471,-5.25081 0.60938,-11.26095 4.96927,-14.65128 3.3848,-2.63366 7.75588,-3.48279 11.94901,-3.63613 7.48818,-1.69531 15.51967,2.58315 18.99664,9.28614 2.93547,5.15348 3.61881,11.96392 0.40352,17.15367 -0.0225,0.0663 -0.045,0.13255 -0.0674,0.19882" style="fill:none;stroke:#000000;stroke-width:2.24237;stroke-linecap:round;stroke-linejoin:round;stroke-miterlimit:10;stroke-dasharray:none;stroke-opacity:1" id="path1774" sodipodi:nodetypes="ccccccc" />
      </g>
      <g id="g1776" transform="matrix(0.41144223,0,0,-0.41147814,-275.14355,-5.1571565)" style="stroke-width:0.85738">
         <path d="m 820.50034,-171.58638 c 2.78615,-2.56083 5.12439,-8.1657 5.09197,-11.69087 -0.3863,-5.6006 -1.7289,-11.32534 -4.77424,-16.10535 -1.03292,-1.25324 -2.31259,-3.38039 -4.14607,-3.0904" style="fill:none;stroke:#000000;stroke-width:2.24237;stroke-linecap:round;stroke-linejoin:round;stroke-miterlimit:10;stroke-dasharray:none;stroke-opacity:1" id="path1778" sodipodi:nodetypes="cccc" />
      </g>
      <g id="g1780" transform="matrix(0.41144223,0,0,-0.41147814,-275.14355,-5.1571565)" style="stroke-width:0.85738">
         <path d="m 899.16814,-163.65577 c -0.65922,-1.89579 -2.52094,-6.71442 -2.84022,-9.13328 -0.65114,-3.29942 -0.57298,-7.26338 2.04308,-9.72295 2.33201,-1.70419 4.92531,-3.10028 7.7128,-4.03684 7.2685,-2.42317 15.25071,-1.41446 22.2992,1.26384 1.85336,1.28853 3.86935,2.62766 4.85224,4.79275 2.34441,4.70454 2.68397,10.74121 -0.0305,15.36698 -1.15035,1.15254 -1.67167,2.92042 -3.05048,3.38868 l -0.16629,0.13459" style="fill:none;stroke:#000000;stroke-width:2.24237;stroke-linecap:round;stroke-linejoin:round;stroke-miterlimit:10;stroke-dasharray:none;stroke-opacity:1" id="path1782" sodipodi:nodetypes="ccccccccc" />
      </g>
      <g id="g1784" transform="matrix(0.41144223,0,0,-0.41147814,-275.14355,-5.1571565)" style="stroke-width:0.85738">
         <path d="m 853.93,-169.1389 c -4.24433,-9.45762 1.77218,-25.7209 4.78903,-27.34064" style="fill:none;stroke:#000000;stroke-width:2.24237;stroke-linecap:round;stroke-linejoin:round;stroke-miterlimit:10;stroke-dasharray:none;stroke-opacity:1" id="path1786" sodipodi:nodetypes="cc" />
      </g>
      <g id="g1788" transform="matrix(0.41144223,0,0,-0.41147814,-275.14355,-5.1571565)" style="stroke-width:0.85738">
         <path d="m 845.824,-197.277 c 1.23256,0.3747 1.57275,1.83663 2.00648,2.89438 0.7983,2.18283 1.49436,4.40549 1.86334,6.7069 2.05371,8.54305 -0.81134,12.16597 -1.32214,18.83906" style="fill:none;stroke:#000000;stroke-width:2.24237;stroke-linecap:round;stroke-linejoin:round;stroke-miterlimit:10;stroke-dasharray:none;stroke-opacity:1" id="path1790" sodipodi:nodetypes="cccc" />
      </g>
      <g id="g1792" transform="matrix(0.41144223,0,0,-0.41147814,-275.14355,-5.1571565)" style="stroke-width:0.85738">
         <path d="m 836.23655,-196.80559 c 2.66252,2.89477 3.39425,6.9699 4.41658,10.64018 0.85905,4.36325 1.3331,9.07306 -0.10519,13.35913 -0.53018,1.23439 -1.3127,2.33378 -2.00493,3.47828" style="fill:none;stroke:#000000;stroke-width:2.24237;stroke-linecap:round;stroke-linejoin:round;stroke-miterlimit:10;stroke-dasharray:none;stroke-opacity:1" id="path1794" sodipodi:nodetypes="cccc" />
      </g>
      <g id="g1796" transform="matrix(0.41144223,0,0,-0.41147814,-275.14355,-5.1571565)" style="stroke-width:0.85738">
         <path d="m 724.84,-131.527 c 1.65492,-3.0866 1.95787,-9.51974 2.383,-11.211" style="fill:none;stroke:#000000;stroke-width:1.12118;stroke-linecap:round;stroke-linejoin:round;stroke-miterlimit:10;stroke-dasharray:none;stroke-opacity:1" id="path1798" />
      </g>
      <g id="g1800" transform="matrix(0.41144223,0,0,-0.41147814,-275.14355,-5.1571565)" style="stroke-width:0.85738">
         <path d="m 726.52533,-137.21981 c -0.48491,4.76715 5.6164,8.03999 5.48648,1.99783 0.90723,-1.96914 0.27185,-9.42709 -0.0251,-3.62154 -0.003,3.21355 0.0324,10.78772 5.02497,8.25093 3.60304,-3.10992 2.44882,-7.56084 2.82031,-11.70443" style="fill:none;stroke:#000000;stroke-width:1.12118;stroke-linecap:round;stroke-linejoin:round;stroke-miterlimit:10;stroke-dasharray:none;stroke-opacity:1" id="path1802" sodipodi:nodetypes="ccccc" />
      </g>
      <g id="g1804" transform="matrix(0.41144223,0,0,-0.41147814,-275.14355,-5.1571565)" style="stroke-width:0.85738">
         <path d="m 742.211,-132.957 c 1.48899,4.63646 11.9636,3.29416 9.00795,-2.97446 -0.0412,-1.68078 -0.44481,-5.06927 0.90205,-5.17754" style="fill:none;stroke:#000000;stroke-width:1.12118;stroke-linecap:round;stroke-linejoin:round;stroke-miterlimit:10;stroke-dasharray:none;stroke-opacity:1" id="path1806" />
      </g>
      <g id="g1808" transform="matrix(0.41144223,0,0,-0.41147814,-275.14355,-5.1571565)" style="stroke-width:0.85738">
         <path d="m 749.625,-136.215 c -2.93487,3.65569 -11.74407,-0.21835 -6.62932,-3.76542 2.15122,-0.62235 4.61708,-0.52081 6.55132,0.69142" style="fill:none;stroke:#000000;stroke-width:1.12118;stroke-linecap:round;stroke-linejoin:round;stroke-miterlimit:10;stroke-dasharray:none;stroke-opacity:1" id="path1810" />
      </g>
      <g id="g1812" transform="matrix(0.41144223,0,0,-0.41147814,-275.14355,-5.1571565)" style="stroke-width:0.85738">
         <path d="m 754.703,-130.68 c 3.86946,-2.1681 6.09844,-6.05795 9.07209,-9.18964 -0.19019,0.0327 -0.27803,0.19945 -0.39607,0.32664" style="fill:none;stroke:#000000;stroke-width:1.12118;stroke-linecap:round;stroke-linejoin:round;stroke-miterlimit:10;stroke-dasharray:none;stroke-opacity:1" id="path1814" />
      </g>
      <g id="g1816" transform="matrix(0.41144223,0,0,-0.41147814,-275.14355,-5.1571565)" style="stroke-width:0.85738">
         <path d="m 763.512,-129.391 c -2.06396,-4.1197 -4.14104,-8.45597 -8.14444,-11.03475 l -0.7896,-0.70325 -0.019,-0.023" style="fill:none;stroke:#000000;stroke-width:1.12118;stroke-linecap:round;stroke-linejoin:round;stroke-miterlimit:10;stroke-dasharray:none;stroke-opacity:1" id="path1818" />
      </g>
      <g id="g1820" transform="matrix(0.41144223,0,0,-0.41147814,-275.14355,-5.1571565)" style="stroke-width:0.85738">
         <path d="m 768.289,-134.277 c 3.57383,-0.89901 10.02022,1.68038 6.31464,5.77002 -5.87199,3.02349 -6.6492,-4.7756 -6.34832,-8.74296 0.0351,-4.09193 7.26281,-1.32613 8.82276,-0.19492 -0.0995,0.56827 -0.10286,1.22585 -0.57808,1.64385" style="fill:none;stroke:#000000;stroke-width:1.12118;stroke-linecap:round;stroke-linejoin:round;stroke-miterlimit:10;stroke-dasharray:none;stroke-opacity:1" id="path1822" />
      </g>
      <g id="g1824" transform="matrix(0.41144223,0,0,-0.41147814,-275.14355,-5.1571565)" style="stroke-width:0.85738">
         <path d="m 781.484,-139.039 c 1.55181,4.56155 -0.73038,9.10538 -1.63882,13.59327 -0.22683,0.84071 -0.31716,3.13555 0.28378,3.18773" style="fill:none;stroke:#000000;stroke-width:1.12118;stroke-linecap:round;stroke-linejoin:round;stroke-miterlimit:10;stroke-dasharray:none;stroke-opacity:1" id="path1826" />
      </g>
      <g id="g1828" transform="matrix(0.41144223,0,0,-0.41147814,-275.14355,-5.1571565)" style="stroke-width:0.85738">
         <path d="m 785.488,-138.422 c 2.37564,3.35168 -0.47032,8.35887 -0.82774,12.24861 l -0.0118,0.65744 0.13655,0.64095" style="fill:none;stroke:#000000;stroke-width:1.12118;stroke-linecap:round;stroke-linejoin:round;stroke-miterlimit:10;stroke-dasharray:none;stroke-opacity:1" id="path1830" />
      </g>
      <g id="g1832" transform="matrix(0.41144223,0,0,-0.41147814,-275.14355,-5.1571565)" style="stroke-width:0.85738">
         <path d="m 725.578,-148.492 c 3.36488,-0.18961 6.7622,0.65049 10.13216,1.01773 3.7852,0.39666 7.58168,0.6177 11.35553,1.16487 4.6551,0.58587 9.35051,0.89421 14.02605,1.3011 3.17631,0.39302 6.42525,0.5767 9.60312,0.75449 3.93875,0.18146 7.84965,0.51301 11.78879,0.44899 1.73954,0.28745 3.9048,0.35304 5.48135,0.13682" style="fill:none;stroke:#000000;stroke-width:1.12118;stroke-linecap:round;stroke-linejoin:round;stroke-miterlimit:10;stroke-dasharray:none;stroke-opacity:1" id="path1834" />
      </g>
      <g id="g1836" transform="matrix(0.41144223,0,0,-0.41147814,-275.14355,-5.1571565)" style="stroke-width:0.85738">
         <path d="m 702.867,-107.441 c 9.46273,0.26142 18.93299,0.3344 28.37047,1.15471 8.37698,0.56181 16.75245,1.24067 25.05927,2.47118 0.74848,0.0379 1.50161,0.14092 2.25026,0.0491" style="fill:none;stroke:#000000;stroke-width:1.12118;stroke-linecap:round;stroke-linejoin:round;stroke-miterlimit:10;stroke-dasharray:none;stroke-opacity:1" id="path1838" />
      </g>
      <g id="g1840" transform="matrix(0.41144223,0,0,-0.41147814,-275.14355,-5.1571565)" style="stroke-width:0.85738">
         <path d="m 760.734,-103.973 c 0.0511,1.12785 1.17138,1.62496 2.25265,1.76067 1.28243,0.28718 2.58692,0.34962 3.85658,0.65761 1.26727,0.14386 2.57421,-0.004 3.81446,0.32909 1.33723,0.0245 2.65491,0.22599 3.99098,0.22387 0.72339,-0.0502 2.48425,0.33206 2.22476,-0.54724 0.30173,-0.48381 -0.20336,-0.60467 -0.55343,-0.43554" style="fill:none;stroke:#000000;stroke-width:1.12118;stroke-linecap:round;stroke-linejoin:round;stroke-miterlimit:10;stroke-dasharray:none;stroke-opacity:1" id="path1842" />
      </g>
      <g id="g1844" transform="matrix(0.41144223,0,0,-0.41147814,-275.14355,-5.1571565)" style="stroke-width:0.85738">
         <path d="m 766.891,-105.41 0.007,-0.024 0.032,-0.058 0.015,-0.141 0.024,-0.094 0.004,-0.027 0.062,-0.035 0.024,-0.027 -0.067,-0.032 -0.035,-0.011 -0.035,-0.008 -0.039,-0.004 -0.098,-0.016 h -0.121 l 0.004,-0.019 0.02,-0.02 -0.043,0.024 h -0.04 l -0.019,-0.036 -0.008,-0.031 -0.023,-0.019 -0.055,-0.012 -0.035,-0.098 -0.039,-0.054 -0.031,0.031 -0.051,-0.031 0.015,-0.02 -0.015,-0.023 -0.102,-0.102 -0.078,-0.035 -0.047,0.004 -0.043,-0.047 -0.14,-0.051 -0.129,-0.066 0.019,-0.028 -0.047,-0.089 -0.058,-0.149 -0.051,-0.086 -0.066,-0.086 -0.036,-0.105 v -0.09 l -0.015,-0.125 -0.039,-0.148 -0.032,-0.09 0.012,-0.067 -0.019,-0.078 -0.055,-0.074 0.016,-0.031 -0.004,-0.055 -0.016,-0.105 v -0.114 l -0.027,-0.086 -0.004,-0.093 0.058,-0.086 0.067,-0.043 0.066,-0.075 0.071,-0.152 0.078,-0.133 0.031,-0.136 0.09,-0.129 0.176,-0.133 0.117,-0.219 0.164,-0.168 0.164,-0.086 0.207,-0.129 0.219,-0.148 0.164,-0.152 0.203,-0.063 0.187,-0.086 0.211,-0.144 0.106,-0.129 0.066,-0.106 0.242,-0.078 0.348,-0.09 0.328,-0.09 0.297,-0.062 0.262,-0.051 0.324,-0.047 0.297,-0.027 0.164,-0.059 0.18,-0.05 0.179,0.023 0.18,0.051 0.129,0.031 0.117,0.035 0.156,0.031 0.141,0.051 0.125,0.086 0.121,0.066 0.102,0.012 0.05,0.047 0.059,0.039 0.105,0.055 0.071,0.051 0.058,0.039 0.059,0.07 0.078,0.063 0.113,0.058 0.055,0.09 0.004,0.008 0.016,0.047 0.035,0.129 0.054,0.101 -0.007,0.109 -0.008,0.106 0.031,0.176 0.019,0.176 0.004,0.074 v 0.066 l -0.039,0.098 -0.007,0.113 0.031,0.121 -0.016,0.121 -0.035,0.117 -0.035,0.157 0.035,0.168 -0.016,0.152 -0.093,0.129 -0.075,0.152 -0.097,0.086 -0.059,0.106 -0.07,0.14 -0.152,0.137 -0.141,0.117 -0.067,0.117 -0.097,0.125 -0.129,0.118 -0.113,0.117 -0.157,0.129 -0.218,0.121 -0.157,0.129 -0.101,0.113 -0.133,0.062 -0.145,0.106 -0.152,0.156 -0.09,0.121 -0.121,0.094 -0.172,0.07 -0.148,0.121 -0.152,0.11 -0.149,0.043 -0.203,0.066 -0.285,0.07 -0.196,0.075 -0.078,0.058 -0.121,0.063 -0.152,0.019 -0.164,0.008 -0.016,0.016 -0.086,0.011 -0.179,-0.007 -0.145,-0.016 -0.125,0.023 -0.09,0.024 -0.078,0.004 -0.039,-0.004 -0.027,-0.004 -0.063,-0.02 -0.027,0.036 -0.024,0.007 -0.035,-0.039 -0.019,0.004 -0.02,0.012" style="fill:none;stroke:#000000;stroke-width:1.12118;stroke-linecap:round;stroke-linejoin:round;stroke-miterlimit:10;stroke-dasharray:none;stroke-opacity:1" id="path1846" />
      </g>
      <g id="g1848" transform="matrix(0.41144223,0,0,-0.41147814,-275.14355,-5.1571565)" style="stroke-width:0.85738">
         <path d="m 776.652,-84.879545 c 0.7926,-1.646594 0.53102,-6.10818 0.77918,-7.932093 0.40836,-5.525796 0.96439,-11.123442 0.18078,-16.637302 -0.16101,-0.61726 0.26182,-3.47436 1.34904,-2.72306" style="fill:none;stroke:#000000;stroke-width:1.12118;stroke-linecap:round;stroke-linejoin:round;stroke-miterlimit:10;stroke-dasharray:none;stroke-opacity:1" id="path1850" sodipodi:nodetypes="cccc" />
      </g>
      <g id="g1856" transform="matrix(0.41144223,0,0,-0.41147814,-275.14355,-5.1571565)" style="stroke-width:0.85738">
         <path d="m 926.18798,-103.105 c 1.02807,7.410596 0.80395,26.664728 0.80395,26.664728" style="fill:none;stroke:#000000;stroke-width:1.12118;stroke-linecap:round;stroke-linejoin:round;stroke-miterlimit:10;stroke-dasharray:none;stroke-opacity:1" id="path1858" sodipodi:nodetypes="cc" />
      </g>
      <g id="g1860" transform="matrix(0.41144223,0,0,-0.41147814,-275.14355,-5.1571565)" style="stroke-width:0.85738">
         <path d="m 931.547,-90.324 c 2.7294,0.749078 5.77072,1.273596 8.62214,0.802935 2.11239,-0.34588 0.52682,-3.870716 3.05786,-2.712935 15.8686,0.779039 31.67011,3.020948 47.582,2.793 0.32785,0.06735 0.0636,-0.387055 -0.118,-0.18" style="fill:none;stroke:#000000;stroke-width:1.12118;stroke-linecap:round;stroke-linejoin:round;stroke-miterlimit:10;stroke-dasharray:none;stroke-opacity:1" id="path1862" />
      </g>
      <g id="g1864" transform="matrix(0.41144223,0,0,-0.41147814,-275.14355,-5.1571565)" style="stroke-width:0.85738">
         <path d="m 934.863,-93.977 c -0.96673,0.221649 -1.84357,-1.288884 -2.3192,-2.123955 -0.60016,-1.090491 0.52006,-2.079611 1.55292,-2.169585 1.41715,-0.170347 2.82206,0.362442 4.13257,0.843586 1.33117,0.381062 0.98367,1.836078 -0.0506,2.335777 -0.71221,0.745207 -1.58693,1.562476 -2.6939,1.05904 -0.8916,0.04781 0.26927,0.205761 -0.62179,0.05514" style="fill:none;stroke:#000000;stroke-width:1.12118;stroke-linecap:round;stroke-linejoin:round;stroke-miterlimit:10;stroke-dasharray:none;stroke-opacity:1" id="path1866" sodipodi:nodetypes="ccccccc" />
      </g>
      <g id="g1868" transform="matrix(0.41144223,0,0,-0.41147814,-275.14355,-5.1571565)" style="stroke-width:0.85738">
         <path d="m 847.10898,-83.187864 c 0.17326,0.553871 -0.67664,-4.720207 0.61741,-3.199123 -0.37156,-1.179296 1.7136,-0.687699 2.76143,-0.327859 3.83842,0.79315 7.7789,0.660692 11.4635,0.545151 1.41482,-0.13901 -0.46476,1.542441 -0.75998,2.151841 -0.21999,1.187734 -0.38111,2.70566 -1.93419,1.989197 l -11.55417,-0.991211 c -0.23254,-0.02075 -0.30745,-0.409632 -0.594,-0.167996" style="fill:none;stroke:#000000;stroke-width:1.12118;stroke-linecap:round;stroke-linejoin:round;stroke-miterlimit:10;stroke-dasharray:none;stroke-opacity:1" id="path1870" sodipodi:nodetypes="cccccccc" />
      </g>
      <g id="g1872" transform="matrix(0.41144223,0,0,-0.41147814,-275.14355,-5.1571565)" style="stroke-width:0.85738">
         <path d="m 734.082,-251.176 c 74.70678,9.57736 148.92081,22.95386 223.606,32.719" style="fill:none;stroke:#000000;stroke-width:1.12118;stroke-linecap:round;stroke-linejoin:round;stroke-miterlimit:10;stroke-dasharray:none;stroke-opacity:1" id="path1874" />
      </g>
      <g id="g1876" transform="matrix(0.41144223,0,0,-0.41147814,-275.14355,-5.1571565)" style="stroke-width:0.85738">
         <path d="m 961.797,-217.953 c 2.86351,19.02481 5.44232,38.09402 8.64801,57.066" style="fill:none;stroke:#000000;stroke-width:1.12118;stroke-linecap:round;stroke-linejoin:round;stroke-miterlimit:10;stroke-dasharray:none;stroke-opacity:1" id="path1878" />
      </g>
      <g id="g1880" transform="matrix(0.41144223,0,0,-0.41147814,-275.14355,-5.1571565)" style="stroke-width:0.85738">
         <path d="m 734.238,-251.012 c -5.328,28.047 -10.855,77.528 -14.664,109.793 l -0.004,0.114 0.028,0.05 0.023,0.067 0.012,0.074 0.027,0.074 0.063,0.11 0.058,0.125 0.055,0.097" style="fill:none;stroke:#000000;stroke-width:1.12118;stroke-linecap:round;stroke-linejoin:round;stroke-miterlimit:10;stroke-dasharray:none;stroke-opacity:1" id="path1882" />
      </g>
      <g id="g1884" transform="matrix(0.41144223,0,0,-0.41147814,-275.14355,-5.1571565)" style="stroke-width:0.85738">
         <path d="m 974.402,-155.309 c 1.68282,9.21996 2.68773,18.54405 3.99868,27.82035 0.22868,0.10106 0.27055,0.40948 0.20852,0.62158" style="fill:none;stroke:#000000;stroke-width:1.12118;stroke-linecap:round;stroke-linejoin:round;stroke-miterlimit:10;stroke-dasharray:none;stroke-opacity:1" id="path1886" />
      </g>
      <g id="g1888" transform="matrix(0.41144223,0,0,-0.41147814,-275.14355,-5.1571565)" style="stroke-width:0.85738">
         <path d="m 778.961,-112.172 c 49.00434,4.09082 98.13934,6.26703 147.22698,9.067" style="fill:none;stroke:#000000;stroke-width:1.12118;stroke-linecap:round;stroke-linejoin:round;stroke-miterlimit:10;stroke-dasharray:none;stroke-opacity:1" id="path1890" />
      </g>
   </g>
</svg>
