<?xml version="1.0" encoding="UTF-8" standalone="no"?>
<!-- Created by Ashley Blewer - This work is licensed under a Creative Commons Attribution 4.0 International License -->

<svg width="544" height="480" viewBox="0 0 143.93334 127" version="1.1" id="svg2490" inkscape:version="1.1.2 (08b2f3d93c, 2022-04-05)" sodipodi:docname="1993-digibeta-4.svg"
   xmlns:inkscape="http://www.inkscape.org/namespaces/inkscape"
   xmlns:sodipodi="http://sodipodi.sourceforge.net/DTD/sodipodi-0.dtd"
   xmlns="http://www.w3.org/2000/svg"
   xmlns:svg="http://www.w3.org/2000/svg">
   <sodipodi:namedview id="namedview2492" pagecolor="#ffffff" bordercolor="#666666" borderopacity="1.0" inkscape:pageshadow="2" inkscape:pageopacity="0.0" inkscape:pagecheckerboard="0" inkscape:document-units="mm" showgrid="false" units="px" inkscape:zoom="0.90583674" inkscape:cx="272.67607" inkscape:cy="177.18425" inkscape:window-width="1848" inkscape:window-height="1136" inkscape:window-x="72" inkscape:window-y="27" inkscape:window-maximized="1" inkscape:current-layer="layer1" />
   <defs id="defs2487" />
   <g inkscape:label="Layer 1" inkscape:groupmode="layer" id="layer1">
      <g id="g6158" transform="matrix(0.53271979,0,0,0.53243226,-494.04216,-28.079689)" style="stroke-width:0.893432">
         <g id="g2672" transform="matrix(1,0,0,-1,-3.7469315,-20.257942)" style="stroke-width:0.893432">
            <path d="m 1066.926,-301.668 -0.969,129.848" style="fill:none;stroke:#000000;stroke-width:2.33666;stroke-linecap:round;stroke-linejoin:round;stroke-miterlimit:10;stroke-dasharray:none;stroke-opacity:1" id="path2674" sodipodi:nodetypes="cc" />
         </g>
         <g id="g2676" transform="matrix(1,0,0,-1,-3.7469315,-20.257942)" style="stroke-width:0.893432">
            <path d="m 1057.473,-167.66 c 1.422,-0.867 6.093,-2.937 8.484,-4.16" style="fill:none;stroke:#000000;stroke-width:2.33666;stroke-linecap:round;stroke-linejoin:round;stroke-miterlimit:10;stroke-dasharray:none;stroke-opacity:1" id="path2678" sodipodi:nodetypes="cc" />
         </g>
         <g id="g2680" transform="matrix(1,0,0,-1,-3.7469315,-20.257942)" style="stroke-width:0.893432">
            <path d="m 1057.473,-167.66 c 0.7652,-40.51659 -1.5158,-121.5 -1.5158,-121.5" style="fill:none;stroke:#000000;stroke-width:2.33666;stroke-linecap:round;stroke-linejoin:round;stroke-miterlimit:10;stroke-dasharray:none;stroke-opacity:1" id="path2682" sodipodi:nodetypes="cc" />
         </g>
         <g id="g2684" transform="matrix(1,0,0,-1,-3.7469315,-20.257942)" style="stroke-width:0.893432">
            <path d="m 1055.957,-289.16 c 2.0633,-2.38311 5.9558,-8.83739 8.0385,-11.20032 0.6163,-0.77864 1.2989,-1.91559 2.3915,-1.97978" style="fill:none;stroke:#000000;stroke-width:2.33666;stroke-linecap:round;stroke-linejoin:round;stroke-miterlimit:10;stroke-dasharray:none;stroke-opacity:1" id="path2686" sodipodi:nodetypes="ccc" />
         </g>
         <g id="g2688" transform="matrix(1,0,0,-1,-3.7469315,-20.257942)" style="stroke-width:0.893432">
            <path d="m 1057.473,-167.66 c 23.621,3.156 50.379,7.418 74.25,7.082 0.082,0.176 0.867,-0.227 0.058,-1.039" style="fill:none;stroke:#000000;stroke-width:2.33666;stroke-linecap:round;stroke-linejoin:round;stroke-miterlimit:10;stroke-dasharray:none;stroke-opacity:1" id="path2690" sodipodi:nodetypes="ccc" />
         </g>
         <g id="g2692" transform="matrix(1,0,0,-1,-3.7469315,-20.257942)" style="stroke-width:0.893432">
            <path d="m 1065.957,-171.82 c 26.3786,3.05149 53.9296,5.91494 80.574,3.636" style="fill:none;stroke:#000000;stroke-width:2.33666;stroke-linecap:round;stroke-linejoin:round;stroke-miterlimit:10;stroke-dasharray:none;stroke-opacity:1" id="path2694" sodipodi:nodetypes="cc" />
         </g>
         <g id="g2696" transform="matrix(1,0,0,-1,-3.7469315,-20.257942)" style="stroke-width:0.893432">
            <path d="m 1126.9265,-161.32401 c 2.18,0.937 10.3152,-6.52805 12.5922,-6.41805" style="fill:none;stroke:#000000;stroke-width:2.33666;stroke-linecap:round;stroke-linejoin:round;stroke-miterlimit:10;stroke-dasharray:none;stroke-opacity:1" id="path2698" sodipodi:nodetypes="cc" />
         </g>
         <g id="g2700" transform="matrix(1,0,0,-1,-3.7469315,-20.257942)" style="stroke-width:0.893432">
            <path d="m 1146.531,-168.184 c -3.8409,-38.32987 -6.5669,-78.54603 -9.491,-116.961" style="fill:none;stroke:#000000;stroke-width:2.33666;stroke-linecap:round;stroke-linejoin:round;stroke-miterlimit:10;stroke-dasharray:none;stroke-opacity:1" id="path2702" sodipodi:nodetypes="cc" />
         </g>
         <g id="g2704" transform="matrix(1,0,0,-1,-3.7469315,-20.257942)" style="stroke-width:0.893432">
            <path d="m 1066.766,-302.539 c 23.8326,3.93658 47.3866,9.65196 70.274,17.394" style="fill:none;stroke:#000000;stroke-width:2.33666;stroke-linecap:round;stroke-linejoin:round;stroke-miterlimit:10;stroke-dasharray:none;stroke-opacity:1" id="path2706" />
         </g>
         <g id="g2708" transform="matrix(1,0,0,-1,-3.7469315,-20.257942)" style="stroke-width:0.893432">
            <path d="m 1110.203,-160.766 c -0.2046,25.24282 0.9308,50.46936 1.8672,75.688" style="fill:none;stroke:#000000;stroke-width:2.33666;stroke-linecap:round;stroke-linejoin:round;stroke-miterlimit:10;stroke-dasharray:none;stroke-opacity:1" id="path2710" />
         </g>
         <g id="g2712" transform="matrix(1,0,0,-1,-3.7469315,-20.257942)" style="stroke-width:0.893432">
            <path d="m 991.668,-83.648 c 1.035,1.824 5.18,1.781 6.652,3.488" style="fill:none;stroke:#000000;stroke-width:2.33666;stroke-linecap:round;stroke-linejoin:round;stroke-miterlimit:10;stroke-dasharray:none;stroke-opacity:1" id="path2714" />
         </g>
         <g id="g2716" transform="matrix(1,0,0,-1,-3.7469315,-20.257942)" style="stroke-width:0.893432">
            <path d="m 998.766,-80.492 c 38.157,-1.585531 76.6463,0.848925 114.5576,-4.118429 L 1113.73,-84.746" style="fill:none;stroke:#000000;stroke-width:2.33666;stroke-linecap:round;stroke-linejoin:round;stroke-miterlimit:10;stroke-dasharray:none;stroke-opacity:1" id="path2718" />
         </g>
         <g id="g2720" transform="matrix(1,0,0,-1,-3.7469315,-20.257942)" style="stroke-width:0.893432">
            <path d="m 991.91,-83.984 c 4.65375,-61.75982 13.399,-184.231 13.305,-182.606 l 0.094,-1.625" style="fill:none;stroke:#000000;stroke-width:2.33666;stroke-linecap:round;stroke-linejoin:round;stroke-miterlimit:10;stroke-dasharray:none;stroke-opacity:1" id="path2722" sodipodi:nodetypes="ccc" />
         </g>
         <g id="g2724" transform="matrix(1,0,0,-1,-3.7469315,-20.257942)" style="stroke-width:0.893432">
            <path d="m 1005.309,-268.215 c 1.035,-2.57 5.664,-6.832 6.753,-10.281" style="fill:none;stroke:#000000;stroke-width:2.33666;stroke-linecap:round;stroke-linejoin:round;stroke-miterlimit:10;stroke-dasharray:none;stroke-opacity:1" id="path2726" />
         </g>
         <g id="g2728" transform="matrix(1,0,0,-1,-3.7469315,-20.257942)" style="stroke-width:0.893432">
            <path d="m 1012.465,-278.742 c 9.523,0.465 18.871,3.332 28.305,4.883 3.968,0.898 11.2197,2.13218 15.1297,3.01518" style="fill:none;stroke:#000000;stroke-width:2.33666;stroke-linecap:round;stroke-linejoin:round;stroke-miterlimit:10;stroke-dasharray:none;stroke-opacity:1" id="path2730" sodipodi:nodetypes="ccc" />
         </g>
         <g id="g2732" transform="matrix(1,0,0,-1,-3.7469315,-20.257942)" style="stroke-width:0.893432">
            <path d="m 998.766,-80.492 13.699,-198.25" style="fill:none;stroke:#000000;stroke-width:2.33666;stroke-linecap:round;stroke-linejoin:round;stroke-miterlimit:10;stroke-dasharray:none;stroke-opacity:1" id="path2734" sodipodi:nodetypes="cc" />
         </g>
         <g id="g2736" transform="matrix(1,0,0,-1,-3.7469315,-20.257942)" style="stroke-width:0.893432">
            <path d="m 996.375,-148.914 c 1.301,0.074 5.4997,-2.992 6.0037,-2.742" style="fill:none;stroke:#000000;stroke-width:2.33666;stroke-linecap:round;stroke-linejoin:round;stroke-miterlimit:10;stroke-dasharray:none;stroke-opacity:1" id="path2738" sodipodi:nodetypes="cc" />
         </g>
         <g id="g2740" transform="matrix(1,0,0,-1,-3.7469315,-20.257942)" style="stroke-width:0.893432">
            <path d="m 1002.3787,-151.656 c 34.243,2.97685 73.5034,3.63451 107.8051,5.64795" style="fill:none;stroke:#000000;stroke-width:2.33666;stroke-linecap:round;stroke-linejoin:round;stroke-miterlimit:10;stroke-dasharray:none;stroke-opacity:1" id="path2742" sodipodi:nodetypes="cc" />
         </g>
         <g id="g2744" transform="matrix(1,0,0,-1,-3.7469315,-20.257942)" style="stroke-width:0.893432">
            <path d="m 1001.9312,-219.777 c 4.9247,-5.24603 3.7525,-3.87564 6.1043,-5.81347" style="fill:none;stroke:#000000;stroke-width:2.33666;stroke-linecap:round;stroke-linejoin:round;stroke-miterlimit:10;stroke-dasharray:none;stroke-opacity:1" id="path2746" sodipodi:nodetypes="cc" />
         </g>
         <g id="g2748" transform="matrix(1,0,0,-1,-3.7469315,-20.257942)" style="stroke-width:0.893432">
            <path d="m 1009.828,-225.305 c 13.949,1.977 27.965,3.633 41.926,5.403 l -0.328,0.027" style="fill:none;stroke:#000000;stroke-width:2.33666;stroke-linecap:round;stroke-linejoin:round;stroke-miterlimit:10;stroke-dasharray:none;stroke-opacity:1" id="path2750" />
         </g>
         <g id="g2752" transform="matrix(1,0,0,-1,-3.7469315,-20.257942)" style="stroke-width:0.893432">
            <path d="m 1056.973,-209.078 c 3.145,-0.867 6.972,-3.77 9.933,-4.051" style="fill:none;stroke:#000000;stroke-width:2.33666;stroke-linecap:round;stroke-linejoin:round;stroke-miterlimit:10;stroke-dasharray:none;stroke-opacity:1" id="path2754" sodipodi:nodetypes="cc" />
         </g>
         <g id="g2756" transform="matrix(1,0,0,-1,-3.7469315,-20.257942)" style="stroke-width:0.893432">
            <path d="m 1066.906,-213.129 c 24.638,2.73087 51.4837,7.79452 76.1425,10.363" style="fill:none;stroke:#000000;stroke-width:2.33666;stroke-linecap:round;stroke-linejoin:round;stroke-miterlimit:10;stroke-dasharray:none;stroke-opacity:1" id="path2758" sodipodi:nodetypes="cc" />
         </g>
         <g id="g2760" transform="matrix(1,0,0,-1,-3.7469315,-20.257942)" style="stroke-width:0.893432">
            <path d="m 1056.941,-256.914 c 3.09,-3.434 6.739,-7.535 9.414,-11.231" style="fill:none;stroke:#000000;stroke-width:2.33666;stroke-linecap:round;stroke-linejoin:round;stroke-miterlimit:10;stroke-dasharray:none;stroke-opacity:1" id="path2762" />
         </g>
         <g id="g2764" transform="matrix(1,0,0,-1,-3.7469315,-20.257942)" style="stroke-width:0.893432">
            <path d="m 1068.301,-268.199 c 22.8342,4.81332 47.4955,11.21017 70.6999,14.05322" style="fill:none;stroke:#000000;stroke-width:2.33666;stroke-linecap:round;stroke-linejoin:round;stroke-miterlimit:10;stroke-dasharray:none;stroke-opacity:1" id="path2766" sodipodi:nodetypes="cc" />
         </g>
         <g id="g2768" transform="matrix(1,0,0,-1,-3.7469315,-20.257942)" style="stroke-width:0.893432">
            <path d="m 1126.41,-225.008 c -0.472,4.496 1.555,22.66 -1.926,10.278 -0.789,-2.965 -6.613,-8.141 0.383,-5.461 1.024,0.851 3.082,-0.684 3.977,0.265" style="fill:none;stroke:#000000;stroke-width:1.16833;stroke-linecap:round;stroke-linejoin:round;stroke-miterlimit:10;stroke-dasharray:none;stroke-opacity:1" id="path2770" />
         </g>
         <g id="g2772" transform="matrix(1,0,0,-1,-3.7469315,-20.257942)" style="stroke-width:0.893432">
            <path d="m 1134.152,-208.988 c -8.262,-1.867 -1.144,-20.672 3.325,-8.852 0.398,2.891 2.562,11.332 -3.325,8.852" style="fill:none;stroke:#000000;stroke-width:1.16833;stroke-linecap:round;stroke-linejoin:round;stroke-miterlimit:10;stroke-dasharray:none;stroke-opacity:1" id="path2774" sodipodi:nodetypes="ccc" />
         </g>
         <g id="g2776" transform="matrix(1,0,0,-1,-3.7469315,-20.257942)" style="stroke-width:0.893432">
            <path d="m 1084.152,-156.398 c 1.457,9.66 15.774,0.074 7.082,-4.098 0.383,0.73 2.844,-2.899 1.661,-2.496" style="fill:none;stroke:#000000;stroke-width:1.16833;stroke-linecap:round;stroke-linejoin:round;stroke-miterlimit:10;stroke-dasharray:none;stroke-opacity:1" id="path2778" />
         </g>
         <g id="g2780" transform="matrix(1,0,0,-1,-3.7469315,-20.257942)" style="stroke-width:0.893432">
            <path d="m 1103.109,-151.27 c -1.828,-3.816 -4.222,-7.691 -6.203,-11.281" style="fill:none;stroke:#000000;stroke-width:1.16833;stroke-linecap:round;stroke-linejoin:round;stroke-miterlimit:10;stroke-dasharray:none;stroke-opacity:1" id="path2782" />
         </g>
         <g id="g2784" transform="matrix(1,0,0,-1,-3.7469315,-20.257942)" style="stroke-width:0.893432">
            <path d="m 1102.91,-151.621 c 0.676,-2.949 -0.012,-6.149 1.039,-8.988" style="fill:none;stroke:#000000;stroke-width:1.16833;stroke-linecap:round;stroke-linejoin:round;stroke-miterlimit:10;stroke-dasharray:none;stroke-opacity:1" id="path2786" />
         </g>
         <g id="g2932" transform="matrix(1,0,0,-1,-3.7469315,-20.257942)" style="stroke-width:0.893432">
            <path d="m 1070.422,-250.211 c 0.07,-3.09 0.23,-6.363 0.465,-9.309" style="fill:none;stroke:#000000;stroke-width:1.16833;stroke-linecap:round;stroke-linejoin:round;stroke-miterlimit:10;stroke-dasharray:none;stroke-opacity:1" id="path2934" />
         </g>
         <g id="g2936" transform="matrix(1,0,0,-1,-3.7469315,-20.257942)" style="stroke-width:0.893432">
            <path d="m 1070.004,-252.641 c 6.125,8.871 9.914,-8.875 1.781,-7.488" style="fill:none;stroke:#000000;stroke-width:1.16833;stroke-linecap:round;stroke-linejoin:round;stroke-miterlimit:10;stroke-dasharray:none;stroke-opacity:1" id="path2938" />
         </g>
         <g id="g2940" transform="matrix(1,0,0,-1,-3.7469315,-20.257942)" style="stroke-width:0.893432">
            <path d="m 1079.324,-254.008 c -0.898,-1.769 -0.074,-4.23 -0.304,-6.199" style="fill:none;stroke:#000000;stroke-width:1.16833;stroke-linecap:round;stroke-linejoin:round;stroke-miterlimit:10;stroke-dasharray:none;stroke-opacity:1" id="path2942" />
         </g>
         <g id="g2944" transform="matrix(1,0,0,-1,-3.7469315,-20.257942)" style="stroke-width:0.893432">
            <path d="m 1079.41,-249.27 c -0.074,0.055 -0.027,0.184 0.067,0.192" style="fill:none;stroke:#000000;stroke-width:1.16833;stroke-linecap:round;stroke-linejoin:round;stroke-miterlimit:10;stroke-dasharray:none;stroke-opacity:1" id="path2946" />
         </g>
         <g id="g2948" transform="matrix(1,0,0,-1,-3.7469315,-20.257942)" style="stroke-width:0.893432">
            <path d="m 1087.727,-253.148 c -3.84,7.277 -6.395,-10.84 -0.879,-1.844 -0.903,8.515 3.472,-12.903 -4.297,-5.977" style="fill:none;stroke:#000000;stroke-width:1.16833;stroke-linecap:round;stroke-linejoin:round;stroke-miterlimit:10;stroke-dasharray:none;stroke-opacity:1" id="path2950" />
         </g>
         <g id="g2952" transform="matrix(1,0,0,-1,-3.7469315,-20.257942)" style="stroke-width:0.893432">
            <path d="m 1091.195,-250.801 c 0.075,-2.5 -0.078,-4.996 -0.16,-7.492" style="fill:none;stroke:#000000;stroke-width:1.16833;stroke-linecap:round;stroke-linejoin:round;stroke-miterlimit:10;stroke-dasharray:none;stroke-opacity:1" id="path2954" />
         </g>
         <g id="g2956" transform="matrix(1,0,0,-1,-3.7469315,-20.257942)" style="stroke-width:0.893432">
            <path d="m 1091.465,-247.242 c -0.055,-0.074 -0.086,-0.145 -0.047,-0.106" style="fill:none;stroke:#000000;stroke-width:1.16833;stroke-linecap:round;stroke-linejoin:round;stroke-miterlimit:10;stroke-dasharray:none;stroke-opacity:1" id="path2958" />
         </g>
         <g id="g2960" transform="matrix(1,0,0,-1,-3.7469315,-20.257942)" style="stroke-width:0.893432">
            <path d="m 1094.535,-244.395 c 0.512,-2.316 -1.601,-14.687 1.582,-12.578" style="fill:none;stroke:#000000;stroke-width:1.16833;stroke-linecap:round;stroke-linejoin:round;stroke-miterlimit:10;stroke-dasharray:none;stroke-opacity:1" id="path2962" />
         </g>
         <g id="g2964" transform="matrix(1,0,0,-1,-3.7469315,-20.257942)" style="stroke-width:0.893432">
            <path d="m 1093.418,-249.414 c -0.188,-1 1.953,0.508 1.91,-0.156" style="fill:none;stroke:#000000;stroke-width:1.16833;stroke-linecap:round;stroke-linejoin:round;stroke-miterlimit:10;stroke-dasharray:none;stroke-opacity:1" id="path2966" />
         </g>
         <g id="g2968" transform="matrix(1,0,0,-1,-3.7469315,-20.257942)" style="stroke-width:0.893432">
            <path d="m 1098.137,-250.723 c 2.144,5.567 6.019,0.93 3.968,-3.39 -0.953,6.902 -7.164,-3.965 0.098,-0.313" style="fill:none;stroke:#000000;stroke-width:1.16833;stroke-linecap:round;stroke-linejoin:round;stroke-miterlimit:10;stroke-dasharray:none;stroke-opacity:1" id="path2970" />
         </g>
         <g id="g2972" transform="matrix(1,0,0,-1,-3.7469315,-20.257942)" style="stroke-width:0.893432">
            <path d="m 1104.375,-242.355 c -0.129,-4.067 -0.52,-8.176 0.02,-12.2" style="fill:none;stroke:#000000;stroke-width:1.16833;stroke-linecap:round;stroke-linejoin:round;stroke-miterlimit:10;stroke-dasharray:none;stroke-opacity:1" id="path2974" />
         </g>
         <g id="g2976" transform="matrix(1,0,0,-1,-3.7469315,-20.257942)" style="stroke-width:0.893432">
            <path d="m 1010.469,-202.035 c 0.258,-4.27 -0.742,-9.785 0.445,-13.418" style="fill:none;stroke:#000000;stroke-width:1.16833;stroke-linecap:round;stroke-linejoin:round;stroke-miterlimit:10;stroke-dasharray:none;stroke-opacity:1" id="path2978" />
         </g>
         <g id="g2980" transform="matrix(1,0,0,-1,-3.7469315,-20.257942)" style="stroke-width:0.893432">
            <path d="m 1009.688,-201.941 c 10.507,5.613 17.374,-11.727 4.675,-12.856 -1.203,-0.324 -3.433,-0.492 -4.148,0.883" style="fill:none;stroke:#000000;stroke-width:1.16833;stroke-linecap:round;stroke-linejoin:round;stroke-miterlimit:10;stroke-dasharray:none;stroke-opacity:1" id="path2982" />
         </g>
         <g id="g2984" transform="matrix(1,0,0,-1,-3.7469315,-20.257942)" style="stroke-width:0.893432">
            <path d="m 1027.379,-204.219 c -0.594,-0.894 1.418,-6.824 0.16,-7.105" style="fill:none;stroke:#000000;stroke-width:1.16833;stroke-linecap:round;stroke-linejoin:round;stroke-miterlimit:10;stroke-dasharray:none;stroke-opacity:1" id="path2986" />
         </g>
         <g id="g2988" transform="matrix(1,0,0,-1,-3.7469315,-20.257942)" style="stroke-width:0.893432">
            <path d="m 1026.324,-198.355 c 0.028,0.074 -0.019,0.058 -0.07,-0.02" style="fill:none;stroke:#000000;stroke-width:1.16833;stroke-linecap:round;stroke-linejoin:round;stroke-miterlimit:10;stroke-dasharray:none;stroke-opacity:1" id="path2990" />
         </g>
         <g id="g2992" transform="matrix(1,0,0,-1,-3.7469315,-20.257942)" style="stroke-width:0.893432">
            <path d="m 1039.133,-200.328 c 4.609,-6 -1.559,-22.598 -8.934,-13.36" style="fill:none;stroke:#000000;stroke-width:1.16833;stroke-linecap:round;stroke-linejoin:round;stroke-miterlimit:10;stroke-dasharray:none;stroke-opacity:1" id="path2994" />
         </g>
         <g id="g2996" transform="matrix(1,0,0,-1,-3.7469315,-20.257942)" style="stroke-width:0.893432">
            <path d="m 1038.574,-204.566 c -4.004,12.48 -13.804,-11.473 -0.355,-6.012 l 1.293,1.086 -0.274,0.605" style="fill:none;stroke:#000000;stroke-width:1.16833;stroke-linecap:round;stroke-linejoin:round;stroke-miterlimit:10;stroke-dasharray:none;stroke-opacity:1" id="path2998" />
         </g>
         <g id="g3000" transform="matrix(1,0,0,-1,-3.7469315,-20.257942)" style="stroke-width:0.893432">
            <path d="m 1042.875,-201.18 c 1.156,-2.488 1.031,-6.679 1.512,-8.508" style="fill:none;stroke:#000000;stroke-width:1.16833;stroke-linecap:round;stroke-linejoin:round;stroke-miterlimit:10;stroke-dasharray:none;stroke-opacity:1" id="path3002" />
         </g>
         <g id="g3004" transform="matrix(1,0,0,-1,-3.7469315,-20.257942)" style="stroke-width:0.893432">
            <path d="m 1042.457,-195.359 c -0.926,-0.348 -0.145,-0.418 0,-0.157" style="fill:none;stroke:#000000;stroke-width:1.16833;stroke-linecap:round;stroke-linejoin:round;stroke-miterlimit:10;stroke-dasharray:none;stroke-opacity:1" id="path3006" />
         </g>
         <g id="g3008" transform="matrix(1,0,0,-1,-3.7469315,-20.257942)" style="stroke-width:0.893432">
            <path d="m 1047.676,-195.258 c 0.965,-4.336 -3.293,-20.469 5.672,-13.867" style="fill:none;stroke:#000000;stroke-width:1.16833;stroke-linecap:round;stroke-linejoin:round;stroke-miterlimit:10;stroke-dasharray:none;stroke-opacity:1" id="path3010" />
         </g>
         <g id="g3012" transform="matrix(1,0,0,-1,-3.7469315,-20.257942)" style="stroke-width:0.893432">
            <path d="m 1045.277,-199.863 c 0.571,0.152 2.914,0.562 3.52,0.617" style="fill:none;stroke:#000000;stroke-width:1.16833;stroke-linecap:round;stroke-linejoin:round;stroke-miterlimit:10;stroke-dasharray:none;stroke-opacity:1" id="path3014" />
         </g>
         <g id="g3016" transform="matrix(1,0,0,-1,-3.7469315,-20.257942)" style="stroke-width:0.893432">
            <path d="m 1051.75,-201.496 c 1.145,-0.238 1.355,2.535 2.691,1.945" style="fill:none;stroke:#000000;stroke-width:1.16833;stroke-linecap:round;stroke-linejoin:round;stroke-miterlimit:10;stroke-dasharray:none;stroke-opacity:1" id="path3018" />
         </g>
         <g id="g3020" transform="matrix(1,0,0,-1,-3.7469315,-20.257942)" style="stroke-width:0.893432">
            <path d="m 1055.469,-203.031 c -4.082,-0.617 -3.141,-8.278 1.504,-6.047" style="fill:none;stroke:#000000;stroke-width:1.16833;stroke-linecap:round;stroke-linejoin:round;stroke-miterlimit:10;stroke-dasharray:none;stroke-opacity:1" id="path3022" />
         </g>
      </g>
   </g>
</svg>
