<?xml version="1.0" encoding="UTF-8" standalone="no"?>
<!-- Created by Ashley Blewer - This work is licensed under a Creative Commons Attribution 4.0 International License -->

<svg width="544" height="480" viewBox="0 0 143.93334 127" version="1.1" id="svg2490" inkscape:version="1.1.2 (08b2f3d93c, 2022-04-05)" sodipodi:docname="1993-vcd-2.svg"
   xmlns:inkscape="http://www.inkscape.org/namespaces/inkscape"
   xmlns:sodipodi="http://sodipodi.sourceforge.net/DTD/sodipodi-0.dtd"
   xmlns="http://www.w3.org/2000/svg"
   xmlns:svg="http://www.w3.org/2000/svg">
   <sodipodi:namedview id="namedview2492" pagecolor="#ffffff" bordercolor="#666666" borderopacity="1.0" inkscape:pageshadow="2" inkscape:pageopacity="0.0" inkscape:pagecheckerboard="0" inkscape:document-units="mm" showgrid="false" units="px" inkscape:zoom="0.90583674" inkscape:cx="279.29978" inkscape:cy="194.84747" inkscape:window-width="1848" inkscape:window-height="1136" inkscape:window-x="72" inkscape:window-y="27" inkscape:window-maximized="1" inkscape:current-layer="layer1" />
   <defs id="defs2487" />
   <g inkscape:label="Layer 1" inkscape:groupmode="layer" id="layer1">
      <g id="g2884" transform="matrix(0.33525344,0,0,0.3351459,-17.422999,-14.557826)" style="stroke-width:0.883783">
         <g id="g266" transform="matrix(1,0,0,-1,0,792)" style="stroke-width:0.883783">
            <g id="g268" style="stroke-width:0.883783">
               <path d="m 205.7513,716.76617 13.50873,1.29621" style="fill:none;stroke:#000000;stroke-width:2.31143;stroke-linecap:round;stroke-linejoin:round;stroke-miterlimit:10;stroke-dasharray:none;stroke-opacity:1" id="path270" sodipodi:nodetypes="cc" />
            </g>
         </g>
         <g id="g272" transform="matrix(1,0,0,-1,0,792)" style="stroke-width:0.883783">
            <g id="g274" style="stroke-width:0.883783">
               <path d="m 219.26003,718.06238 c 54.74874,5.58747 111.56367,11.68998 163.70027,9.63775" style="fill:none;stroke:#000000;stroke-width:2.31143;stroke-linecap:round;stroke-linejoin:round;stroke-miterlimit:10;stroke-dasharray:none;stroke-opacity:1" id="path276" sodipodi:nodetypes="cc" />
            </g>
         </g>
         <g id="g278" transform="matrix(1,0,0,-1,0,792)" style="stroke-width:0.883783">
            <g id="g280" style="stroke-width:0.883783">
               <path d="m 214.76036,708.95831 c 7.41248,2.15118 14.70223,5.10872 22.56443,4.99126 12.60735,0.64971 25.29538,0.0914 37.85745,1.33032" style="fill:none;stroke:#000000;stroke-width:2.31143;stroke-linecap:round;stroke-linejoin:round;stroke-miterlimit:10;stroke-dasharray:none;stroke-opacity:1" id="path282" />
            </g>
         </g>
         <g id="g284" transform="matrix(1,0,0,-1,0,792)" style="stroke-width:0.883783">
            <g id="g286" style="stroke-width:0.883783">
               <path d="m 275.09402,715.72327 c 0.019,0.43504 0.0499,0.86956 0.0614,1.30492 -0.13102,0.3498 -0.19814,0.73787 -0.36703,1.065 -0.13403,0.13829 -0.26807,0.27658 -0.4021,0.41487" style="fill:none;stroke:#000000;stroke-width:2.31143;stroke-linecap:round;stroke-linejoin:round;stroke-miterlimit:10;stroke-dasharray:none;stroke-opacity:1" id="path288" />
            </g>
         </g>
         <g id="g290" transform="matrix(1,0,0,-1,0,792)" style="stroke-width:0.883783">
            <g id="g292" style="stroke-width:0.883783">
               <path d="m 274.38629,718.50806 56.65604,3.83703" style="fill:none;stroke:#000000;stroke-width:2.31143;stroke-linecap:round;stroke-linejoin:round;stroke-miterlimit:10;stroke-dasharray:none;stroke-opacity:1" id="path294" sodipodi:nodetypes="cc" />
            </g>
         </g>
         <g id="g296" transform="matrix(1,0,0,-1,0,792)" style="stroke-width:0.883783">
            <g id="g298" style="stroke-width:0.883783">
               <path d="m 331.04233,722.34509 c 3.38424,-4.34994 9.54078,-0.90556 14.1485,-1.89754 12.71864,0.4313 25.45119,0.20943 38.16455,0.6609 1.18464,0.29272 4.76525,-0.14243 4.27326,1.94528" style="fill:none;stroke:#000000;stroke-width:2.31143;stroke-linecap:round;stroke-linejoin:round;stroke-miterlimit:10;stroke-dasharray:none;stroke-opacity:1" id="path300" />
            </g>
         </g>
         <g id="g302" transform="matrix(1,0,0,-1,0,792)" style="stroke-width:0.883783">
            <g id="g304" style="stroke-width:0.883783">
               <path d="m 382.9603,727.70013 c -0.13551,0.12703 0.65612,-0.28959 0.72996,-0.62141 0.74885,-0.54992 1.24231,-1.32292 1.91934,-1.92064 0.18823,-0.84178 2.08422,-1.67461 1.42556,-2.37113" style="fill:none;stroke:#000000;stroke-width:2.31143;stroke-linecap:round;stroke-linejoin:round;stroke-miterlimit:10;stroke-dasharray:none;stroke-opacity:1" id="path306" />
            </g>
         </g>
         <g id="g308" transform="matrix(1,0,0,-1,0,792)" style="stroke-width:0.883783">
            <g id="g310" style="stroke-width:0.883783">
               <path d="M 387.0351,722.78696 375.33539,608.28713" style="fill:none;stroke:#000000;stroke-width:2.31143;stroke-linecap:round;stroke-linejoin:round;stroke-miterlimit:10;stroke-dasharray:none;stroke-opacity:1" id="path312" sodipodi:nodetypes="cc" />
            </g>
         </g>
         <g id="g314" transform="matrix(1,0,0,-1,0,792)" style="stroke-width:0.883783">
            <g id="g316" style="stroke-width:0.883783">
               <path d="m 222.36169,710.60866 c 0,0 34.04425,-9.00186 49.65878,-13.8991" style="fill:none;stroke:#000000;stroke-width:2.31143;stroke-linecap:round;stroke-linejoin:round;stroke-miterlimit:10;stroke-dasharray:none;stroke-opacity:1" id="path318" sodipodi:nodetypes="cc" />
            </g>
         </g>
         <g id="g320" transform="matrix(1,0,0,-1,0,792)" style="stroke-width:0.883783">
            <g id="g322" style="stroke-width:0.883783">
               <path d="m 272.02047,696.70956 c 2.28803,-3.57375 8.36117,-6.1319 12.15579,-6.50331 3.81049,-0.3474 7.19063,-2.24427 10.81755,-3.30168 6.99843,-2.44708 14.0119,-5.00806 21.34432,-6.26681 0.98748,0.0686 1.93031,0.63715 2.43777,1.48934" style="fill:none;stroke:#000000;stroke-width:2.31143;stroke-linecap:round;stroke-linejoin:round;stroke-miterlimit:10;stroke-dasharray:none;stroke-opacity:1" id="path324" sodipodi:nodetypes="ccccc" />
            </g>
         </g>
         <g id="g326" transform="matrix(1,0,0,-1,0,792)" style="stroke-width:0.883783">
            <g id="g328" style="stroke-width:0.883783">
               <path d="m 318.7759,682.1271 56.31733,-20.80233" style="fill:none;stroke:#000000;stroke-width:2.31143;stroke-linecap:round;stroke-linejoin:round;stroke-miterlimit:10;stroke-dasharray:none;stroke-opacity:1" id="path330" sodipodi:nodetypes="cc" />
            </g>
         </g>
         <g id="g332" transform="matrix(1,0,0,-1,0,792)" style="stroke-width:0.883783">
            <g id="g334" style="stroke-width:0.883783">
               <path d="m 375.09323,661.32477 c -2.83746,-37.37741 -6.4317,-77.46596 -9.98242,-114.77828" style="fill:none;stroke:#000000;stroke-width:2.31143;stroke-linecap:round;stroke-linejoin:round;stroke-miterlimit:10;stroke-dasharray:none;stroke-opacity:1" id="path336" sodipodi:nodetypes="cc" />
            </g>
         </g>
         <g id="g338" transform="matrix(1,0,0,-1,0,792)" style="stroke-width:0.883783">
            <g id="g340" style="stroke-width:0.883783">
               <path d="M 229.0816,591.20276 365.11081,546.54649" style="fill:none;stroke:#000000;stroke-width:2.31143;stroke-linecap:round;stroke-linejoin:round;stroke-miterlimit:10;stroke-dasharray:none;stroke-opacity:1" id="path342" sodipodi:nodetypes="cc" />
            </g>
         </g>
         <g id="g344" transform="matrix(1,0,0,-1,0,792)" style="stroke-width:0.883783">
            <g id="g346" style="stroke-width:0.883783">
               <path d="m 372.3681,608.75592 0.17121,0.049 -0.22541,0.0965 0.58527,-0.0643 2.43622,-0.54999" style="fill:none;stroke:#000000;stroke-width:2.31143;stroke-linecap:round;stroke-linejoin:round;stroke-miterlimit:10;stroke-dasharray:none;stroke-opacity:1" id="path348" />
            </g>
         </g>
         <g id="g350" transform="matrix(1,0,0,-1,0,792)" style="stroke-width:0.883783">
            <g id="g352" style="stroke-width:0.883783">
               <path d="m 253.88058,683.65903 c -3.82183,1.89196 -12.87334,3.88136 -16.94662,4.99009 -3.78596,1.58976 -7.4814,-1.48222 -6.82916,-5.47592 -0.0757,-3.81149 -0.38883,-8.07711 1.85861,-11.38686 0.50823,-0.44569 2.69549,-1.98443 3.43645,-1.61062" style="fill:none;stroke:#000000;stroke-width:2.31143;stroke-linecap:round;stroke-linejoin:round;stroke-miterlimit:10;stroke-dasharray:none;stroke-opacity:1" id="path354" sodipodi:nodetypes="ccccc" />
            </g>
         </g>
         <g id="g356" transform="matrix(1,0,0,-1,0,792)" style="stroke-width:0.883783">
            <g id="g358" style="stroke-width:0.883783">
               <path d="m 237.83651,672.77686 c -1.84432,0.0379 -3.61024,2.29013 -4.06376,3.81163 -0.55811,1.5467 -0.46366,3.22358 -0.50502,4.82845 0.6359,1.87277 1.39446,5.26429 2.50847,6.94306" style="fill:none;stroke:#000000;stroke-width:2.31143;stroke-linecap:round;stroke-linejoin:round;stroke-miterlimit:10;stroke-dasharray:none;stroke-opacity:1" id="path360" sodipodi:nodetypes="cccc" />
            </g>
         </g>
         <g id="g362" transform="matrix(1,0,0,-1,0,792)" style="stroke-width:0.883783">
            <g id="g364" style="stroke-width:0.883783">
               <path d="m 340.25503,653.91273 c 7.41859,-1.26156 18.12387,-1.75518 24.10397,-6.59902 3.07961,-3.98354 4.41055,-9.25622 4.46542,-14.2304 -0.3264,-3.34239 -5.90747,-5.82572 -8.99375,-6.34868" style="fill:none;stroke:#000000;stroke-width:2.31143;stroke-linecap:round;stroke-linejoin:round;stroke-miterlimit:10;stroke-dasharray:none;stroke-opacity:1" id="path366" sodipodi:nodetypes="cccc" />
            </g>
         </g>
         <g id="g368" transform="matrix(1,0,0,-1,0,792)" style="stroke-width:0.883783">
            <g id="g370" style="stroke-width:0.883783">
               <path d="m 235.39986,670.17572 c 29.6995,31.91712 80.09298,11.916 104.85517,-16.26299 26.19103,-22.46188 36.69551,-81.31598 -6.08052,-91.20449 -50.76593,-0.15171 -90.2733,33.75396 -103.06094,76.72909 -3.62246,13.08554 -0.69729,28.92366 10.97419,37.00878" style="fill:none;stroke:#000000;stroke-width:2.31143;stroke-linecap:round;stroke-linejoin:round;stroke-miterlimit:10;stroke-dasharray:none;stroke-opacity:1" id="path372" sodipodi:nodetypes="ccccc" />
            </g>
         </g>
         <g id="g374" transform="matrix(1,0,0,-1,0,792)" style="stroke-width:0.883783">
            <g id="g376" style="stroke-width:0.883783">
               <path d="m 236.01053,625.3032 c 0,0 -0.29356,-9.02 0.28796,-11.41937 0.38193,-2.59873 0.1783,-5.65104 2.17766,-7.63882 1.52994,-2.06184 4.30525,-1.26913 6.44119,-2.02852 0.69856,-0.17274 3.14392,-0.38408 3.81809,-0.63585" style="fill:none;stroke:#000000;stroke-width:2.31143;stroke-linecap:round;stroke-linejoin:round;stroke-miterlimit:10;stroke-dasharray:none;stroke-opacity:1" id="path378" sodipodi:nodetypes="ccccc" />
            </g>
         </g>
         <g id="g380" transform="matrix(1,0,0,-1,0,792)" style="stroke-width:0.883783">
            <g id="g382" style="stroke-width:0.883783">
               <path d="m 214.76036,708.95831 c 0,0 13.06728,-115.78272 13.41642,-116.30759 l -0.31704,0.47657 -0.0321,0.0483" style="fill:none;stroke:#000000;stroke-width:2.31143;stroke-linecap:round;stroke-linejoin:round;stroke-miterlimit:10;stroke-dasharray:none;stroke-opacity:1" id="path384" sodipodi:nodetypes="cccc" />
            </g>
         </g>
         <g id="g386" transform="matrix(1,0,0,-1,0,792)" style="stroke-width:0.883783">
            <g id="g388" style="stroke-width:0.883783">
               <path d="m 219.59365,593.38966 0.56285,-0.14063 5.32139,-0.47217 3.08054,-1.68238" style="fill:none;stroke:#000000;stroke-width:2.31143;stroke-linecap:round;stroke-linejoin:round;stroke-miterlimit:10;stroke-dasharray:none;stroke-opacity:1" id="path390" sodipodi:nodetypes="cccc" />
            </g>
         </g>
         <g id="g392" transform="matrix(1,0,0,-1,0,792)" style="stroke-width:0.883783">
            <g id="g394" style="stroke-width:0.883783">
               <path d="M 206.67219,696.67193 219.59365,593.38966" style="fill:none;stroke:#000000;stroke-width:2.31143;stroke-linecap:round;stroke-linejoin:round;stroke-miterlimit:10;stroke-dasharray:none;stroke-opacity:1" id="path396" sodipodi:nodetypes="cc" />
            </g>
         </g>
         <g id="g398" transform="matrix(1,0,0,-1,0,792)" style="stroke-width:0.883783">
            <g id="g400" style="stroke-width:0.883783">
               <path d="M 218.11931,715.94592 C 191.11534,673.75546 171.36809,628.38906 143.38649,586.80377" style="fill:none;stroke:#000000;stroke-width:2.31143;stroke-linecap:round;stroke-linejoin:round;stroke-miterlimit:10;stroke-dasharray:none;stroke-opacity:1" id="path402" sodipodi:nodetypes="cc" />
            </g>
         </g>
         <g id="g404" transform="matrix(1,0,0,-1,0,792)" style="stroke-width:0.883783">
            <g id="g406" style="stroke-width:0.883783">
               <path d="M 205.7513,716.76617 C 179.22604,675.9673 154.64708,630.45158 131.1707,587.89737" style="fill:none;stroke:#000000;stroke-width:2.31143;stroke-linecap:round;stroke-linejoin:round;stroke-miterlimit:10;stroke-dasharray:none;stroke-opacity:1" id="path408" sodipodi:nodetypes="cc" />
            </g>
         </g>
         <g id="g410" transform="matrix(1,0,0,-1,0,792)" style="stroke-width:0.883783">
            <g id="g412" style="stroke-width:0.883783">
               <path d="m 131.1707,587.89737 12.21579,-1.0936" style="fill:none;stroke:#000000;stroke-width:2.31143;stroke-linecap:round;stroke-linejoin:round;stroke-miterlimit:10;stroke-dasharray:none;stroke-opacity:1" id="path414" sodipodi:nodetypes="cc" />
            </g>
         </g>
         <g id="g416" transform="matrix(1,0,0,-1,0,792)" style="stroke-width:0.883783">
            <g id="g418" style="stroke-width:0.883783">
               <path d="m 143.38091,608.76636 0.58329,-0.085 3.08422,-5.4e-4" style="fill:none;stroke:#000000;stroke-width:2.31143;stroke-linecap:round;stroke-linejoin:round;stroke-miterlimit:10;stroke-dasharray:none;stroke-opacity:1" id="path420" sodipodi:nodetypes="ccc" />
            </g>
         </g>
         <g id="g422" transform="matrix(1,0,0,-1,0,792)" style="stroke-width:0.883783">
            <g id="g424" style="stroke-width:0.883783">
               <path d="m 147.04842,608.68082 c 0.6885,1.66237 5.08372,10.2574 4.93903,10.46372" style="fill:none;stroke:#000000;stroke-width:2.31143;stroke-linecap:round;stroke-linejoin:round;stroke-miterlimit:10;stroke-dasharray:none;stroke-opacity:1" id="path426" sodipodi:nodetypes="cc" />
            </g>
         </g>
         <g id="g428" transform="matrix(1,0,0,-1,0,792)" style="stroke-width:0.883783">
            <g id="g430" style="stroke-width:0.883783">
               <path d="m 149.98714,619.96643 c 0.57681,0.59554 1.48107,-1.48358 2.00031,-0.82189" style="fill:none;stroke:#000000;stroke-width:2.31143;stroke-linecap:round;stroke-linejoin:round;stroke-miterlimit:10;stroke-dasharray:none;stroke-opacity:1" id="path432" sodipodi:nodetypes="cc" />
            </g>
         </g>
         <g id="g434" transform="matrix(1,0,0,-1,0,792)" style="stroke-width:0.883783">
            <g id="g436" style="stroke-width:0.883783">
               <path d="m 188.10695,687.76886 0.0608,0.20172 0.36939,0.0522 3.98088,-0.0697" style="fill:none;stroke:#000000;stroke-width:2.31143;stroke-linecap:round;stroke-linejoin:round;stroke-miterlimit:10;stroke-dasharray:none;stroke-opacity:1" id="path438" sodipodi:nodetypes="cccc" />
            </g>
         </g>
         <g id="g440" transform="matrix(1,0,0,-1,0,792)" style="stroke-width:0.883783">
            <g id="g442" style="stroke-width:0.883783">
               <path d="m 192.51802,687.95313 5.32954,7.79192" style="fill:none;stroke:#000000;stroke-width:2.31143;stroke-linecap:round;stroke-linejoin:round;stroke-miterlimit:10;stroke-dasharray:none;stroke-opacity:1" id="path444" sodipodi:nodetypes="cc" />
            </g>
         </g>
         <g id="g446" transform="matrix(1,0,0,-1,0,792)" style="stroke-width:0.883783">
            <g id="g448" style="stroke-width:0.883783">
               <path d="m 195.75636,696.58893 c -0.30969,-0.30075 -2.41442,0.21713 -2.20987,0.25833 0.47631,-0.0713 3.88189,-0.55201 4.32804,-0.44121 0.0975,-0.0193 0.50652,-0.0761 0.25885,-0.18964" style="fill:none;stroke:#000000;stroke-width:2.31143;stroke-linecap:round;stroke-linejoin:round;stroke-miterlimit:10;stroke-dasharray:none;stroke-opacity:1" id="path450" sodipodi:nodetypes="cccc" />
            </g>
         </g>
         <g id="g452" transform="matrix(1,0,0,-1,0,792)" style="stroke-width:0.883783">
            <g id="g454" style="stroke-width:0.883783">
               <path d="m 131.1707,587.89737 c 5.00887,-29.73069 15.44151,-61.36985 22.0568,-90.73564 2.45914,-8.36878 5.49543,-18.76873 9.49143,-26.56908" style="fill:none;stroke:#000000;stroke-width:2.31143;stroke-linecap:round;stroke-linejoin:round;stroke-miterlimit:10;stroke-dasharray:none;stroke-opacity:1" id="path456" sodipodi:nodetypes="ccc" />
            </g>
         </g>
         <g id="g458" transform="matrix(1,0,0,-1,0,792)" style="stroke-width:0.883783">
            <g id="g460" style="stroke-width:0.883783">
               <path d="m 162.71893,470.59265 c 3.72876,-0.58226 7.17235,-0.94941 10.96311,-0.76987" style="fill:none;stroke:#000000;stroke-width:2.31143;stroke-linecap:round;stroke-linejoin:round;stroke-miterlimit:10;stroke-dasharray:none;stroke-opacity:1" id="path462" sodipodi:nodetypes="cc" />
            </g>
         </g>
         <g id="g464" transform="matrix(1,0,0,-1,0,792)" style="stroke-width:0.883783">
            <g id="g466" style="stroke-width:0.883783">
               <path d="m 229.0816,591.20276 c 0,0 -38.58905,-82.29799 -55.39956,-121.37998 l 0.0878,0.39875" style="fill:none;stroke:#000000;stroke-width:2.31143;stroke-linecap:round;stroke-linejoin:round;stroke-miterlimit:10;stroke-dasharray:none;stroke-opacity:1" id="path468" sodipodi:nodetypes="ccc" />
            </g>
         </g>
         <g id="g470" transform="matrix(1,0,0,-1,0,792)" style="stroke-width:0.883783">
            <g id="g472" style="stroke-width:0.883783">
               <path d="m 219.80101,592.30029 c -19.5541,-36.95976 -37.65906,-74.79803 -51.79624,-114.19094 1.96498,-1.8638 -4.20723,-4.59443 -3.68571,-6.29747" style="fill:none;stroke:#000000;stroke-width:2.31143;stroke-linecap:round;stroke-linejoin:round;stroke-miterlimit:10;stroke-dasharray:none;stroke-opacity:1" id="path474" sodipodi:nodetypes="ccc" />
            </g>
         </g>
         <g id="g476" transform="matrix(1,0,0,-1,0,792)" style="stroke-width:0.883783">
            <g id="g478" style="stroke-width:0.883783">
               <path d="m 175.7478,496.55078 -0.33514,-0.9259 0.006,-1.42081 0.20178,-0.6196 -0.38702,-1.8713 -0.23084,-0.2428 0.43245,0.10638 0.29219,0.50797" style="fill:none;stroke:#000000;stroke-width:2.31143;stroke-linecap:round;stroke-linejoin:round;stroke-miterlimit:10;stroke-dasharray:none;stroke-opacity:1" id="path480" />
            </g>
         </g>
         <g id="g482" transform="matrix(1,0,0,-1,0,792)" style="stroke-width:0.883783">
            <g id="g484" style="stroke-width:0.883783">
               <path d="m 176.21202,494.32999 c 0.22299,1.70934 0.75355,3.36237 1.13012,5.03975 0.84278,1.16857 0.27815,3.69841 1.89566,4.01329 1.06133,-0.15952 1.82642,-1.01719 2.42353,-1.77203" style="fill:none;stroke:#000000;stroke-width:2.31143;stroke-linecap:round;stroke-linejoin:round;stroke-miterlimit:10;stroke-dasharray:none;stroke-opacity:1" id="path486" />
            </g>
         </g>
         <g id="g488" transform="matrix(1,0,0,-1,0,792)" style="stroke-width:0.883783">
            <g id="g490" style="stroke-width:0.883783">
               <path d="m 212.2327,571.12775 c -1.17723,1.54676 -0.13455,3.47498 0.0636,5.16194 0.55957,2.22387 2.1642,3.9513 3.21104,5.94068 0.95644,1.62332 3.68904,1.75846 4.61147,0.026 0.27402,-0.3453 0.8545,-0.6101 1.19129,-0.18526" style="fill:none;stroke:#000000;stroke-width:2.31143;stroke-linecap:round;stroke-linejoin:round;stroke-miterlimit:10;stroke-dasharray:none;stroke-opacity:1" id="path492" />
            </g>
         </g>
         <g id="g494" transform="matrix(1,0,0,-1,0,792)" style="stroke-width:0.883783">
            <g id="g496" style="stroke-width:0.883783">
               <path d="m 292.34473,510.25204 c 41.38957,5.82544 85.90982,-28.43642 84.94138,-71.52938 -0.0533,-24.59516 -18.53285,-45.47996 -40.86291,-53.75394 -31.20196,-13.19248 -71.60431,-13.02958 -96.83574,12.2982 -21.7554,19.67936 -28.55874,55.73133 -10.23796,79.89259 14.04392,20.86938 39.30901,29.17312 62.99523,33.09253 z" style="fill:none;stroke:#000000;stroke-width:2.31143;stroke-linecap:round;stroke-linejoin:round;stroke-miterlimit:10;stroke-dasharray:none;stroke-opacity:1" id="path498" sodipodi:nodetypes="cccccc" />
            </g>
         </g>
         <g id="g500" transform="matrix(1,0,0,-1,0,792)" style="stroke-width:0.883783">
            <g id="g502" style="stroke-width:0.883783">
               <path d="m 306.03799,466.15095 c 10.24673,-1.89077 18.25643,-6.64721 18.54475,-19.19626 0.69827,-10.38064 -8.70605,-16.49237 -17.64201,-18.53816 -10.51349,-3.77048 -24.1015,-1.81327 -30.28458,8.37469 -6.19772,9.08892 -3.50943,23.66185 7.34228,27.8504 5.03599,2.19115 16.71839,2.58761 22.03956,1.50933 z" style="fill:none;stroke:#000000;stroke-width:2.31143;stroke-linecap:round;stroke-linejoin:round;stroke-miterlimit:10;stroke-dasharray:none;stroke-opacity:1" id="path504" sodipodi:nodetypes="cccccc" />
            </g>
         </g>
         <g id="g506" transform="matrix(1,0,0,-1,0,792)" style="stroke-width:0.883783">
            <g id="g508" style="stroke-width:0.883783">
               <path d="m 289.89655,455.06259 c 5.11936,3.14494 11.86867,2.73145 17.1346,0.19484 3.96326,-2.01399 5.04525,-7.66537 1.47391,-10.60639 -2.92451,-3.08695 -7.1454,-5.40938 -11.50989,-4.51574 -3.25806,0.67424 -6.91198,1.69931 -9.00239,4.45627 -1.94226,3.52186 -0.56644,7.64744 1.90377,10.47102" style="fill:none;stroke:#000000;stroke-width:1.15571;stroke-linecap:round;stroke-linejoin:round;stroke-miterlimit:10;stroke-dasharray:none;stroke-opacity:1" id="path510" sodipodi:nodetypes="cccccc" />
            </g>
         </g>
         <g id="g932" transform="matrix(1,0,0,-1,0,792)" style="stroke-width:0.883783">
            <g id="g934" style="stroke-width:0.883783">
               <path d="m 281.3101,637.26879 c -2.78688,-2.60504 -3.06748,-3.74597 -3.65468,-5.44362 -0.27615,-6.20001 0.77729,-12.57773 6.67513,-16.58999 5.29357,-3.86124 13.78117,-5.79518 18.97858,-0.81576 5.17538,6.49079 2.75188,16.0124 -2.65024,21.56082 -5.29237,7.24652 -16.474,3.91337 -19.34879,1.28855" style="fill:none;stroke:#000000;stroke-width:1.15571;stroke-linecap:round;stroke-linejoin:round;stroke-miterlimit:10;stroke-dasharray:none;stroke-opacity:1" id="path936" sodipodi:nodetypes="cccccc" />
            </g>
         </g>
         <g id="g938" transform="matrix(1,0,0,-1,0,792)" style="stroke-width:0.883783">
            <g id="g940" style="stroke-width:0.883783">
               <path d="m 286.47474,628.91416 c -1.35452,-2.23946 0.69864,-6.17043 2.01,-8.04266 2.54072,-2.78926 7.77475,-0.86757 8.31137,2.75891 0.24612,1.9737 0.33861,4.0454 -0.0508,6.00454 -0.82292,2.40276 -3.61951,4.13936 -6.11962,3.57401 -1.84934,-0.6512 -3.90945,-2.36077 -4.15095,-4.2948" style="fill:none;stroke:#000000;stroke-width:1.15571;stroke-linecap:round;stroke-linejoin:round;stroke-miterlimit:10;stroke-dasharray:none;stroke-opacity:1" id="path942" sodipodi:nodetypes="cccccc" />
            </g>
         </g>
      </g>
   </g>
</svg>
