<?xml version="1.0" encoding="UTF-8" standalone="no"?>
<!-- Created by Ashley Blewer - This work is licensed under a Creative Commons Attribution 4.0 International License -->

<svg width="544" height="480" viewBox="0 0 143.93334 127" version="1.1" id="svg2490" inkscape:version="1.1.2 (08b2f3d93c, 2022-04-05)" sodipodi:docname="1993-digibeta-5.svg"
   xmlns:inkscape="http://www.inkscape.org/namespaces/inkscape"
   xmlns:sodipodi="http://sodipodi.sourceforge.net/DTD/sodipodi-0.dtd"
   xmlns="http://www.w3.org/2000/svg"
   xmlns:svg="http://www.w3.org/2000/svg">
   <sodipodi:namedview id="namedview2492" pagecolor="#ffffff" bordercolor="#666666" borderopacity="1.0" inkscape:pageshadow="2" inkscape:pageopacity="0.0" inkscape:pagecheckerboard="0" inkscape:document-units="mm" showgrid="false" units="px" inkscape:zoom="0.90583674" inkscape:cx="272.67607" inkscape:cy="177.18425" inkscape:window-width="1848" inkscape:window-height="1136" inkscape:window-x="72" inkscape:window-y="27" inkscape:window-maximized="1" inkscape:current-layer="layer1" />
   <defs id="defs2487" />
   <g inkscape:label="Layer 1" inkscape:groupmode="layer" id="layer1">
      <g id="g6050" transform="matrix(0.35277777,0,0,0.35277777,-290.68764,-143.53052)">
         <g id="g3024" transform="matrix(1,0,0,-1,-15.965153,16.736161)">
            <path d="m 947.812,-407.402 c -0.156,0.261 0.93,0.312 1.348,0.683 0.824,0.356 1.715,0.531 2.547,0.809 1.02,0.16 1.941,0.676 2.941,0.91 0.75,0.141 3.754,0.234 4.5,0.359" style="fill:none;stroke:#000000;stroke-width:2.61538;stroke-linecap:round;stroke-linejoin:round;stroke-miterlimit:10;stroke-dasharray:none;stroke-opacity:1" id="path3026" />
         </g>
         <g id="g3028" transform="matrix(1,0,0,-1,-15.965153,16.736161)">
            <path d="m 959.188,-404.898 c 52.164,1.484 104.406,0.957 156.593,0.718 l 2.246,-0.191 0.223,-0.285" style="fill:none;stroke:#000000;stroke-width:2.61538;stroke-linecap:round;stroke-linejoin:round;stroke-miterlimit:10;stroke-dasharray:none;stroke-opacity:1" id="path3030" />
         </g>
         <g id="g3032" transform="matrix(1,0,0,-1,-15.965153,16.736161)">
            <path d="m 1118.93,-406.324 c -4.52,-35.563 -3.84,-71.477 -4.821,-107.254 0.118,-6.418 0.309,-13.027 0.672,-19.332" style="fill:none;stroke:#000000;stroke-width:2.61538;stroke-linecap:round;stroke-linejoin:round;stroke-miterlimit:10;stroke-dasharray:none;stroke-opacity:1" id="path3034" />
         </g>
         <g id="g3036" transform="matrix(1,0,0,-1,-15.965153,16.736161)">
            <path d="m 958.953,-409.145 c 1.266,-15.144 -1.312,-30.558 0.485,-45.632" style="fill:none;stroke:#000000;stroke-width:2.61538;stroke-linecap:round;stroke-linejoin:round;stroke-miterlimit:10;stroke-dasharray:none;stroke-opacity:1" id="path3038" />
         </g>
         <g id="g3040" transform="matrix(1,0,0,-1,-15.965153,16.736161)">
            <path d="m 959.008,-456.949 c 6.539,3.039 2.875,-11.524 3.156,-14.063" style="fill:none;stroke:#000000;stroke-width:2.61538;stroke-linecap:round;stroke-linejoin:round;stroke-miterlimit:10;stroke-dasharray:none;stroke-opacity:1" id="path3042" />
         </g>
         <g id="g3044" transform="matrix(1,0,0,-1,-15.965153,16.736161)">
            <path d="m 958.555,-456.43 c 3.304,-3.554 -3.243,-16.976 3.656,-15.886" style="fill:none;stroke:#000000;stroke-width:2.61538;stroke-linecap:round;stroke-linejoin:round;stroke-miterlimit:10;stroke-dasharray:none;stroke-opacity:1" id="path3046" />
         </g>
         <g id="g3048" transform="matrix(1,0,0,-1,-15.965153,16.736161)">
            <path d="m 960.344,-473.684 c 2.187,0.711 -1.742,-5.726 0.14,-5.078" style="fill:none;stroke:#000000;stroke-width:2.61538;stroke-linecap:round;stroke-linejoin:round;stroke-miterlimit:10;stroke-dasharray:none;stroke-opacity:1" id="path3050" />
         </g>
         <g id="g3052" transform="matrix(1,0,0,-1,-15.965153,16.736161)">
            <path d="m 959.117,-478.746 c 3.606,1.355 4.133,-5.207 2.328,-5.762" style="fill:none;stroke:#000000;stroke-width:2.61538;stroke-linecap:round;stroke-linejoin:round;stroke-miterlimit:10;stroke-dasharray:none;stroke-opacity:1" id="path3054" />
         </g>
         <g id="g3056" transform="matrix(1,0,0,-1,-15.965153,16.736161)">
            <path d="m 958.949,-478.98 c 1.504,-2.329 -1.387,-7.821 3.512,-6.379" style="fill:none;stroke:#000000;stroke-width:2.61538;stroke-linecap:round;stroke-linejoin:round;stroke-miterlimit:10;stroke-dasharray:none;stroke-opacity:1" id="path3058" />
         </g>
         <g id="g3060" transform="matrix(1,0,0,-1,-15.965153,16.736161)">
            <path d="m 961.445,-484.508 c 0.266,-4.016 -0.078,-13.773 0.5,-16.437" style="fill:none;stroke:#000000;stroke-width:2.61538;stroke-linecap:round;stroke-linejoin:round;stroke-miterlimit:10;stroke-dasharray:none;stroke-opacity:1" id="path3062" sodipodi:nodetypes="cc" />
         </g>
         <g id="g3064" transform="matrix(1,0,0,-1,-15.965153,16.736161)">
            <path d="m 961.945,-500.945 c 1.813,-23.679 2.7,-50.727 4.051,-74.414 1.168,-18.551 0.551,-37.246 2.066,-55.731 l 0.434,0.07" style="fill:none;stroke:#000000;stroke-width:2.61538;stroke-linecap:round;stroke-linejoin:round;stroke-miterlimit:10;stroke-dasharray:none;stroke-opacity:1" id="path3066" sodipodi:nodetypes="cccc" />
         </g>
         <g id="g3068" transform="matrix(1,0,0,-1,-15.965153,16.736161)">
            <path d="m 969.055,-634.469 c 1.363,-4.297 0.808,-15.531 1.476,-17.152" style="fill:none;stroke:#000000;stroke-width:2.61538;stroke-linecap:round;stroke-linejoin:round;stroke-miterlimit:10;stroke-dasharray:none;stroke-opacity:1" id="path3070" sodipodi:nodetypes="cc" />
         </g>
         <g id="g3072" transform="matrix(1,0,0,-1,-15.965153,16.736161)">
            <path d="m 970.531,-651.621 c 0.278,-2.141 0.114,-4.406 0.864,-6.465" style="fill:none;stroke:#000000;stroke-width:2.61538;stroke-linecap:round;stroke-linejoin:round;stroke-miterlimit:10;stroke-dasharray:none;stroke-opacity:1" id="path3074" />
         </g>
         <g id="g3076" transform="matrix(1,0,0,-1,-15.965153,16.736161)">
            <path d="m 970.715,-657.645 c -0.035,-3.683 -0.242,-8.757 1.223,-11.808" style="fill:none;stroke:#000000;stroke-width:2.61538;stroke-linecap:round;stroke-linejoin:round;stroke-miterlimit:10;stroke-dasharray:none;stroke-opacity:1" id="path3078" />
         </g>
         <g id="g3080" transform="matrix(1,0,0,-1,-15.965153,16.736161)">
            <path d="m 972.348,-669.031 c 3.191,0.238 -1.246,9.597 -1.207,10.73" style="fill:none;stroke:#000000;stroke-width:2.61538;stroke-linecap:round;stroke-linejoin:round;stroke-miterlimit:10;stroke-dasharray:none;stroke-opacity:1" id="path3082" />
         </g>
         <g id="g3084" transform="matrix(1,0,0,-1,-15.965153,16.736161)">
            <path d="m 970.824,-673.879 c 0.258,-6.187 1.731,-13.738 2,-20.109" style="fill:none;stroke:#000000;stroke-width:2.61538;stroke-linecap:round;stroke-linejoin:round;stroke-miterlimit:10;stroke-dasharray:none;stroke-opacity:1" id="path3086" />
         </g>
         <g id="g3088" transform="matrix(1,0,0,-1,-15.965153,16.736161)">
            <path d="m 972.824,-693.988 c -1.664,-8.836 2.692,-13.985 11.153,-11.043" style="fill:none;stroke:#000000;stroke-width:2.61538;stroke-linecap:round;stroke-linejoin:round;stroke-miterlimit:10;stroke-dasharray:none;stroke-opacity:1" id="path3090" sodipodi:nodetypes="cc" />
         </g>
         <g id="g3092" transform="matrix(1,0,0,-1,-15.965153,16.736161)">
            <path d="m 975.375,-695.734 c 2.641,-0.399 6.164,0.129 8.227,0.531" style="fill:none;stroke:#000000;stroke-width:2.61538;stroke-linecap:round;stroke-linejoin:round;stroke-miterlimit:10;stroke-dasharray:none;stroke-opacity:1" id="path3094" />
         </g>
         <g id="g3096" transform="matrix(1,0,0,-1,-15.965153,16.736161)">
            <path d="m 982.992,-695.859 c 2.801,-3.461 -6.691,-4.664 -6.047,-1.891" style="fill:none;stroke:#000000;stroke-width:2.61538;stroke-linecap:round;stroke-linejoin:round;stroke-miterlimit:10;stroke-dasharray:none;stroke-opacity:1" id="path3098" />
         </g>
         <g id="g3100" transform="matrix(1,0,0,-1,-15.965153,16.736161)">
            <path d="m 966.898,-694.961 c 0.047,-2.817 6.434,-8.496 9.387,-10.867" style="fill:none;stroke:#000000;stroke-width:2.61538;stroke-linecap:round;stroke-linejoin:round;stroke-miterlimit:10;stroke-dasharray:none;stroke-opacity:1" id="path3102" sodipodi:nodetypes="cc" />
         </g>
         <g id="g3104" transform="matrix(1,0,0,-1,-15.965153,16.736161)">
            <path d="m 947.812,-407.402 c 7.105,-99.047 18.809,-285.86 18.809,-285.86 l 0.277,-1.699" style="fill:none;stroke:#000000;stroke-width:2.61538;stroke-linecap:round;stroke-linejoin:round;stroke-miterlimit:10;stroke-dasharray:none;stroke-opacity:1" id="path3106" sodipodi:nodetypes="ccc" />
         </g>
         <g id="g3108" transform="matrix(1,0,0,-1,-15.965153,16.736161)">
            <path d="m 1110.441,-413.168 c -8.238,-4.445 11.649,-5.594 1.75,0.031 l -1.925,-0.179 -1.391,-0.141" style="fill:none;stroke:#000000;stroke-width:2.61538;stroke-linecap:round;stroke-linejoin:round;stroke-miterlimit:10;stroke-dasharray:none;stroke-opacity:1" id="path3110" />
         </g>
         <g id="g3112" transform="matrix(1,0,0,-1,-15.965153,16.736161)">
            <path d="m 1109.023,-406.43 c 0.477,-1.367 1.645,-3.004 1.114,-4.578" style="fill:none;stroke:#000000;stroke-width:2.61538;stroke-linecap:round;stroke-linejoin:round;stroke-miterlimit:10;stroke-dasharray:none;stroke-opacity:1" id="path3114" />
         </g>
         <g id="g3116" transform="matrix(1,0,0,-1,-15.965153,16.736161)">
            <path d="m 1113.238,-407.004 c -0.066,-0.73 -0.59,-3.637 -0.789,-4.355" style="fill:none;stroke:#000000;stroke-width:2.61538;stroke-linecap:round;stroke-linejoin:round;stroke-miterlimit:10;stroke-dasharray:none;stroke-opacity:1" id="path3118" />
         </g>
         <g id="g3120" transform="matrix(1,0,0,-1,-15.965153,16.736161)">
            <path d="m 1111.285,-421.789 c -2.191,-36.57 -4.183,-73.266 -2.301,-109.918 -0.015,-0.469 -0.523,-5.684 0.016,-0.957" style="fill:none;stroke:#000000;stroke-width:2.61538;stroke-linecap:round;stroke-linejoin:round;stroke-miterlimit:10;stroke-dasharray:none;stroke-opacity:1" id="path3122" />
         </g>
         <g id="g3124" transform="matrix(1,0,0,-1,-15.965153,16.736161)">
            <path d="m 959.523,-414.793 c 4.743,-0.844 6.137,0.164 10.61,-1.051" style="fill:none;stroke:#000000;stroke-width:2.61538;stroke-linecap:round;stroke-linejoin:round;stroke-miterlimit:10;stroke-dasharray:none;stroke-opacity:1" id="path3126" />
         </g>
         <g id="g3128" transform="matrix(1,0,0,-1,-15.965153,16.736161)">
            <path d="m 969.863,-416.27 c -0.148,-1.363 0.918,-3.96 -0.152,-4.937" style="fill:none;stroke:#000000;stroke-width:2.61538;stroke-linecap:round;stroke-linejoin:round;stroke-miterlimit:10;stroke-dasharray:none;stroke-opacity:1" id="path3130" />
         </g>
         <g id="g3132" transform="matrix(1,0,0,-1,-15.965153,16.736161)">
            <path d="m 959.816,-421.375 c 4.079,0.148 5.122,0.156 8.461,0.059" style="fill:none;stroke:#000000;stroke-width:2.61538;stroke-linecap:round;stroke-linejoin:round;stroke-miterlimit:10;stroke-dasharray:none;stroke-opacity:1" id="path3134" />
         </g>
         <g id="g3136" transform="matrix(1,0,0,-1,-15.965153,16.736161)">
            <path d="m 960.066,-406.258 c -0.664,-0.758 0.496,-1.726 0.008,-2.551" style="fill:none;stroke:#000000;stroke-width:2.61538;stroke-linecap:round;stroke-linejoin:round;stroke-miterlimit:10;stroke-dasharray:none;stroke-opacity:1" id="path3138" />
         </g>
         <g id="g3140" transform="matrix(1,0,0,-1,-15.965153,16.736161)">
            <path d="m 959.906,-409.25 c 6.207,0.707 12.61,0.406 18.844,0.371" style="fill:none;stroke:#000000;stroke-width:2.61538;stroke-linecap:round;stroke-linejoin:round;stroke-miterlimit:10;stroke-dasharray:none;stroke-opacity:1" id="path3142" />
         </g>
         <g id="g3144" transform="matrix(1,0,0,-1,-15.965153,16.736161)">
            <path d="m 979.352,-408.656 c -0.008,0.301 -0.243,2.211 -0.348,2.859" style="fill:none;stroke:#000000;stroke-width:2.61538;stroke-linecap:round;stroke-linejoin:round;stroke-miterlimit:10;stroke-dasharray:none;stroke-opacity:1" id="path3146" />
         </g>
         <g id="g3148" transform="matrix(1,0,0,-1,-15.965153,16.736161)">
            <path d="m 960.582,-478.969 c 5.547,0.918 11.148,1.403 16.766,1.446" style="fill:none;stroke:#000000;stroke-width:2.61538;stroke-linecap:round;stroke-linejoin:round;stroke-miterlimit:10;stroke-dasharray:none;stroke-opacity:1" id="path3150" />
         </g>
         <g id="g3152" transform="matrix(1,0,0,-1,-15.965153,16.736161)">
            <path d="m 977.348,-477.523 c 0.094,-0.711 0.406,-4.438 0.418,-4.977" style="fill:none;stroke:#000000;stroke-width:2.61538;stroke-linecap:round;stroke-linejoin:round;stroke-miterlimit:10;stroke-dasharray:none;stroke-opacity:1" id="path3154" sodipodi:nodetypes="cc" />
         </g>
         <g id="g3156" transform="matrix(1,0,0,-1,-15.965153,16.736161)">
            <path d="m 960.625,-483.477 c 5.055,0.102 11.485,0.957 17.141,0.977" style="fill:none;stroke:#000000;stroke-width:2.61538;stroke-linecap:round;stroke-linejoin:round;stroke-miterlimit:10;stroke-dasharray:none;stroke-opacity:1" id="path3158" sodipodi:nodetypes="cc" />
         </g>
         <g id="g3160" transform="matrix(1,0,0,-1,-15.965153,16.736161)">
            <path d="m 961.945,-500.945 c 3.059,-3.348 6.703,-10.391 9.379,-12.867" style="fill:none;stroke:#000000;stroke-width:2.61538;stroke-linecap:round;stroke-linejoin:round;stroke-miterlimit:10;stroke-dasharray:none;stroke-opacity:1" id="path3162" sodipodi:nodetypes="cc" />
         </g>
         <g id="g3164" transform="matrix(1,0,0,-1,-15.965153,16.736161)">
            <path d="m 971.324,-513.812 c 0,0 5.688,-0.997 7.942,-0.504" style="fill:none;stroke:#000000;stroke-width:2.61538;stroke-linecap:round;stroke-linejoin:round;stroke-miterlimit:10;stroke-dasharray:none;stroke-opacity:1" id="path3166" sodipodi:nodetypes="cc" />
         </g>
         <g id="g3168" transform="matrix(1,0,0,-1,-15.965153,16.736161)">
            <path d="m 979.266,-514.316 c 0.645,-12.024 4.234,-27.129 15.179,-33.993" style="fill:none;stroke:#000000;stroke-width:2.61538;stroke-linecap:round;stroke-linejoin:round;stroke-miterlimit:10;stroke-dasharray:none;stroke-opacity:1" id="path3170" sodipodi:nodetypes="cc" />
         </g>
         <g id="g3172" transform="matrix(1,0,0,-1,-15.965153,16.736161)">
            <path d="m 994.445,-548.309 c 1.789,-10.269 1.196,-21.503 1.731,-31.879" style="fill:none;stroke:#000000;stroke-width:2.61538;stroke-linecap:round;stroke-linejoin:round;stroke-miterlimit:10;stroke-dasharray:none;stroke-opacity:1" id="path3174" sodipodi:nodetypes="cc" />
         </g>
         <g id="g3176" transform="matrix(1,0,0,-1,-15.965153,16.736161)">
            <path d="m 996.176,-580.188 c -6.996,-9.036 -9.738,-23.507 -8.864,-35.765" style="fill:none;stroke:#000000;stroke-width:2.61538;stroke-linecap:round;stroke-linejoin:round;stroke-miterlimit:10;stroke-dasharray:none;stroke-opacity:1" id="path3178" sodipodi:nodetypes="cc" />
         </g>
         <g id="g3180" transform="matrix(1,0,0,-1,-15.965153,16.736161)">
            <path d="m 987.312,-615.953 c -2.601,-1.699 -7.874,-1.113 -10.585,-2.856" style="fill:none;stroke:#000000;stroke-width:2.61538;stroke-linecap:round;stroke-linejoin:round;stroke-miterlimit:10;stroke-dasharray:none;stroke-opacity:1" id="path3182" sodipodi:nodetypes="cc" />
         </g>
         <g id="g3184" transform="matrix(1,0,0,-1,-15.965153,16.736161)">
            <path d="m 976.223,-619.25 c -3.672,-2.895 -3.489,-16.188 -9.821,-12.48" style="fill:none;stroke:#000000;stroke-width:2.61538;stroke-linecap:round;stroke-linejoin:round;stroke-miterlimit:10;stroke-dasharray:none;stroke-opacity:1" id="path3186" />
         </g>
         <g id="g3188" transform="matrix(1,0,0,-1,-15.965153,16.736161)">
            <path d="m 970.531,-651.621 c 0,0 5.926,1.433 8.961,1.484" style="fill:none;stroke:#000000;stroke-width:2.61538;stroke-linecap:round;stroke-linejoin:round;stroke-miterlimit:10;stroke-dasharray:none;stroke-opacity:1" id="path3190" sodipodi:nodetypes="cc" />
         </g>
         <g id="g3192" transform="matrix(1,0,0,-1,-15.965153,16.736161)">
            <path d="m 979.492,-650.137 c 3.731,-6.984 -3.543,-4.109 -7.347,-5.554" style="fill:none;stroke:#000000;stroke-width:2.61538;stroke-linecap:round;stroke-linejoin:round;stroke-miterlimit:10;stroke-dasharray:none;stroke-opacity:1" id="path3194" />
         </g>
         <g id="g3196" transform="matrix(1,0,0,-1,-15.965153,16.736161)">
            <path d="m 984.906,-675.07 c -6.886,-8.34 10.692,-3.203 0.305,-0.821" style="fill:none;stroke:#000000;stroke-width:2.61538;stroke-linecap:round;stroke-linejoin:round;stroke-miterlimit:10;stroke-dasharray:none;stroke-opacity:1" id="path3198" />
         </g>
         <g id="g3200" transform="matrix(1,0,0,-1,-15.965153,16.736161)">
            <path d="m 983.977,-705.031 0.539,2.929 -0.133,0.34 h 0.258" style="fill:none;stroke:#000000;stroke-width:2.61538;stroke-linecap:round;stroke-linejoin:round;stroke-miterlimit:10;stroke-dasharray:none;stroke-opacity:1" id="path3202" sodipodi:nodetypes="cccc" />
         </g>
         <g id="g3204" transform="matrix(1,0,0,-1,-15.965153,16.736161)">
            <path d="m 984.641,-701.762 c -0.258,0 9.468,4.125 9.394,-0.898" style="fill:none;stroke:#000000;stroke-width:2.61538;stroke-linecap:round;stroke-linejoin:round;stroke-miterlimit:10;stroke-dasharray:none;stroke-opacity:1" id="path3206" sodipodi:nodetypes="cc" />
         </g>
         <g id="g3208" transform="matrix(1,0,0,-1,-15.965153,16.736161)">
            <path d="m 994.734,-702.566 c 7.817,2.39 15.965,3.832 23.996,5.254" style="fill:none;stroke:#000000;stroke-width:2.61538;stroke-linecap:round;stroke-linejoin:round;stroke-miterlimit:10;stroke-dasharray:none;stroke-opacity:1" id="path3210" />
         </g>
         <g id="g3212" transform="matrix(1,0,0,-1,-15.965153,16.736161)">
            <path d="m 1019.07,-697.164 c -0.031,1.5 -1.765,2.258 -1.812,3.711" style="fill:none;stroke:#000000;stroke-width:2.61538;stroke-linecap:round;stroke-linejoin:round;stroke-miterlimit:10;stroke-dasharray:none;stroke-opacity:1" id="path3214" />
         </g>
         <g id="g3216" transform="matrix(1,0,0,-1,-15.965153,16.736161)">
            <path d="m 1017.258,-693.453 c 1.649,0.648 5.562,1.562 7.281,1.199" style="fill:none;stroke:#000000;stroke-width:2.61538;stroke-linecap:round;stroke-linejoin:round;stroke-miterlimit:10;stroke-dasharray:none;stroke-opacity:1" id="path3218" sodipodi:nodetypes="cc" />
         </g>
         <g id="g3220" transform="matrix(1,0,0,-1,-15.965153,16.736161)">
            <path d="m 1024.777,-692.32 c 0.961,-0.645 -0.011,-2.571 1.043,-2.989" style="fill:none;stroke:#000000;stroke-width:2.61538;stroke-linecap:round;stroke-linejoin:round;stroke-miterlimit:10;stroke-dasharray:none;stroke-opacity:1" id="path3222" />
         </g>
         <g id="g3224" transform="matrix(1,0,0,-1,-15.965153,16.736161)">
            <path d="m 1025.82,-695.309 c 0,0 8.5423,2.286 7.7493,1.852" style="fill:none;stroke:#000000;stroke-width:2.61538;stroke-linecap:round;stroke-linejoin:round;stroke-miterlimit:10;stroke-dasharray:none;stroke-opacity:1" id="path3226" sodipodi:nodetypes="cc" />
         </g>
         <g id="g3228" transform="matrix(1,0,0,-1,-15.965153,16.736161)">
            <path d="m 1010.535,-698.254 c 0.699,1.332 -0.695,2.599 -0.566,4.102" style="fill:none;stroke:#000000;stroke-width:2.61538;stroke-linecap:round;stroke-linejoin:round;stroke-miterlimit:10;stroke-dasharray:none;stroke-opacity:1" id="path3230" sodipodi:nodetypes="cc" />
         </g>
         <g id="g3232" transform="matrix(1,0,0,-1,-15.965153,16.736161)">
            <path d="m 1009.969,-694.152 c -6.035,-0.52 -3.606,-1.036 -4.953,-4.68" style="fill:none;stroke:#000000;stroke-width:2.61538;stroke-linecap:round;stroke-linejoin:round;stroke-miterlimit:10;stroke-dasharray:none;stroke-opacity:1" id="path3234" />
         </g>
         <g id="g3236" transform="matrix(1,0,0,-1,-15.965153,16.736161)">
            <path d="m 984.434,-675.367 c -3.825,-8.59 7.996,-1.117 -1.457,-0.942" style="fill:none;stroke:#000000;stroke-width:2.61538;stroke-linecap:round;stroke-linejoin:round;stroke-miterlimit:10;stroke-dasharray:none;stroke-opacity:1" id="path3238" />
         </g>
         <g id="g3240" transform="matrix(1,0,0,-1,-15.965153,16.736161)">
            <path d="m 1035.781,-544.219 c 3.106,-2.648 6.082,-6.664 9.563,-8.179" style="fill:none;stroke:#000000;stroke-width:2.61538;stroke-linecap:round;stroke-linejoin:round;stroke-miterlimit:10;stroke-dasharray:none;stroke-opacity:1" id="path3242" />
         </g>
         <g id="g3244" transform="matrix(1,0,0,-1,-15.965153,16.736161)">
            <path d="m 1035.602,-544.07 103.648,12.082" style="fill:none;stroke:#000000;stroke-width:2.61538;stroke-linecap:round;stroke-linejoin:round;stroke-miterlimit:10;stroke-dasharray:none;stroke-opacity:1" id="path3246" />
         </g>
         <g id="g3248" transform="matrix(1,0,0,-1,-15.965153,16.736161)">
            <path d="m 1139.27,-531.934 c 5.117,-2.578 12.539,-5.961 17.078,-8.199" style="fill:none;stroke:#000000;stroke-width:2.61538;stroke-linecap:round;stroke-linejoin:round;stroke-miterlimit:10;stroke-dasharray:none;stroke-opacity:1" id="path3250" sodipodi:nodetypes="cc" />
         </g>
         <g id="g3252" transform="matrix(1,0,0,-1,-15.965153,16.736161)">
            <path d="m 1043.871,-551.867 c 4.844,0.738 12.945,0.883 16.184,2.219" style="fill:none;stroke:#000000;stroke-width:2.61538;stroke-linecap:round;stroke-linejoin:round;stroke-miterlimit:10;stroke-dasharray:none;stroke-opacity:1" id="path3254" />
         </g>
         <g id="g3256" transform="matrix(1,0,0,-1,-15.965153,16.736161)">
            <path d="m 1059.453,-547.695 c -2.375,3.254 9.649,-0.821 7.555,-3.922" style="fill:none;stroke:#000000;stroke-width:2.61538;stroke-linecap:round;stroke-linejoin:round;stroke-miterlimit:10;stroke-dasharray:none;stroke-opacity:1" id="path3258" />
         </g>
         <g id="g3260" transform="matrix(1,0,0,-1,-15.965153,16.736161)">
            <path d="m 1043.949,-555.184 c 7.617,2.02 15.668,0.868 23.352,2.231" style="fill:none;stroke:#000000;stroke-width:2.61538;stroke-linecap:round;stroke-linejoin:round;stroke-miterlimit:10;stroke-dasharray:none;stroke-opacity:1" id="path3262" />
         </g>
         <g id="g3264" transform="matrix(1,0,0,-1,-15.965153,16.736161)">
            <path d="m 1065.18,-548.434 c 25.613,1.848 54.484,6.946 80.113,8.45 3.602,0.054 7.949,0.011 11.055,-0.149" style="fill:none;stroke:#000000;stroke-width:2.61538;stroke-linecap:round;stroke-linejoin:round;stroke-miterlimit:10;stroke-dasharray:none;stroke-opacity:1" id="path3266" />
         </g>
         <g id="g3268" transform="matrix(1,0,0,-1,-15.965153,16.736161)">
            <path d="m 1079.66,-548.602 c 0.547,-1.265 0.238,-3.16 0.102,-4.543" style="fill:none;stroke:#000000;stroke-width:2.61538;stroke-linecap:round;stroke-linejoin:round;stroke-miterlimit:10;stroke-dasharray:none;stroke-opacity:1" id="path3270" />
         </g>
         <g id="g3272" transform="matrix(1,0,0,-1,-15.965153,16.736161)">
            <path d="m 1079.801,-553.711 c 7.183,0.242 9.535,-0.828 7.238,7.09" style="fill:none;stroke:#000000;stroke-width:2.61538;stroke-linecap:round;stroke-linejoin:round;stroke-miterlimit:10;stroke-dasharray:none;stroke-opacity:1" id="path3274" />
         </g>
         <g id="g3276" transform="matrix(1,0,0,-1,-15.965153,16.736161)">
            <path d="m 1156.109,-540.457 c -0.722,-41.605 -5.89,-85.277 -7.379,-126.875 -0.55,-16.145 -1.933,-32.883 -3.968,-48.426" style="fill:none;stroke:#000000;stroke-width:2.61538;stroke-linecap:round;stroke-linejoin:round;stroke-miterlimit:10;stroke-dasharray:none;stroke-opacity:1" id="path3278" />
         </g>
         <g id="g3280" transform="matrix(1,0,0,-1,-15.965153,16.736161)">
            <path d="m 1043.871,-551.867 c -0.734,-28.984 0.953,-57.168 0.324,-86.172 0.953,-22.438 -0.418,-44.824 -0.89,-67.242 1.078,-11.809 -1.246,-24.992 -0.184,-35.883" style="fill:none;stroke:#000000;stroke-width:2.61538;stroke-linecap:round;stroke-linejoin:round;stroke-miterlimit:10;stroke-dasharray:none;stroke-opacity:1" id="path3282" sodipodi:nodetypes="cccc" />
         </g>
         <g id="g3284" transform="matrix(1,0,0,-1,-15.965153,16.736161)">
            <path d="m 1035.484,-544.32 -1.48,-185.555" style="fill:none;stroke:#000000;stroke-width:2.61538;stroke-linecap:round;stroke-linejoin:round;stroke-miterlimit:10;stroke-dasharray:none;stroke-opacity:1" id="path3286" sodipodi:nodetypes="cc" />
         </g>
         <g id="g3288" transform="matrix(1,0,0,-1,-15.965153,16.736161)">
            <path d="m 1034.309,-730.625 c 2.23,-4.414 6,-8.398 9.281,-11.742" style="fill:none;stroke:#000000;stroke-width:2.61538;stroke-linecap:round;stroke-linejoin:round;stroke-miterlimit:10;stroke-dasharray:none;stroke-opacity:1" id="path3290" />
         </g>
         <g id="g3292" transform="matrix(1,0,0,-1,-15.965153,16.736161)">
            <path d="m 1044.281,-743.348 c 31.028,6.051 60.813,17.133 91.281,25.114 3.344,0.113 6.2,2.043 9.2,2.476" style="fill:none;stroke:#000000;stroke-width:2.61538;stroke-linecap:round;stroke-linejoin:round;stroke-miterlimit:10;stroke-dasharray:none;stroke-opacity:1" id="path3294" sodipodi:nodetypes="ccc" />
         </g>
         <g id="g3296" transform="matrix(1,0,0,-1,-15.965153,16.736161)">
            <path d="m 1044.16,-582.074 c 3.086,-4.653 8.492,-11.813 10.426,-14.473" style="fill:none;stroke:#000000;stroke-width:2.61538;stroke-linecap:round;stroke-linejoin:round;stroke-miterlimit:10;stroke-dasharray:none;stroke-opacity:1" id="path3298" />
         </g>
         <g id="g3300" transform="matrix(1,0,0,-1,-15.965153,16.736161)">
            <path d="m 1054.738,-597.168 c 3.024,1.629 6.629,1.539 9.914,2.063" style="fill:none;stroke:#000000;stroke-width:2.61538;stroke-linecap:round;stroke-linejoin:round;stroke-miterlimit:10;stroke-dasharray:none;stroke-opacity:1" id="path3302" />
         </g>
         <g id="g3304" transform="matrix(1,0,0,-1,-15.965153,16.736161)">
            <path d="m 1065.125,-596.301 c -0.391,-11.148 -0.75,-25.496 9.945,-32.98 0.246,-1.172 -0.121,0.894 0.016,-0.414" style="fill:none;stroke:#000000;stroke-width:2.61538;stroke-linecap:round;stroke-linejoin:round;stroke-miterlimit:10;stroke-dasharray:none;stroke-opacity:1" id="path3306" />
         </g>
         <g id="g3308" transform="matrix(1,0,0,-1,-15.965153,16.736161)">
            <path d="m 1075.613,-629.57 c -0.168,-8.7 -0.801,-23.746 -0.386,-31.368" style="fill:none;stroke:#000000;stroke-width:2.61538;stroke-linecap:round;stroke-linejoin:round;stroke-miterlimit:10;stroke-dasharray:none;stroke-opacity:1" id="path3310" />
         </g>
         <g id="g3312" transform="matrix(1,0,0,-1,-15.965153,16.736161)">
            <path d="m 1075.434,-661.355 c -6.868,-11.747 -11.782,-26 -11.532,-40.047" style="fill:none;stroke:#000000;stroke-width:2.61538;stroke-linecap:round;stroke-linejoin:round;stroke-miterlimit:10;stroke-dasharray:none;stroke-opacity:1" id="path3314" sodipodi:nodetypes="cc" />
         </g>
         <g id="g3316" transform="matrix(1,0,0,-1,-15.965153,16.736161)">
            <path d="m 1063.223,-701.367 c -2.735,-0.887 -5.52,-1.531 -8.414,-1.625" style="fill:none;stroke:#000000;stroke-width:2.61538;stroke-linecap:round;stroke-linejoin:round;stroke-miterlimit:10;stroke-dasharray:none;stroke-opacity:1" id="path3318" />
         </g>
         <g id="g3320" transform="matrix(1,0,0,-1,-15.965153,16.736161)">
            <path d="m 1054.297,-703.176 -10.309,-16.144" style="fill:none;stroke:#000000;stroke-width:2.61538;stroke-linecap:round;stroke-linejoin:round;stroke-miterlimit:10;stroke-dasharray:none;stroke-opacity:1" id="path3322" />
         </g>
         <g id="g3324" transform="matrix(1,0,0,-1,-15.965153,16.736161)">
            <path d="m 1057.66,-708.82 c -4.574,-4.129 6.176,-4.196 0.871,-0.84" style="fill:none;stroke:#000000;stroke-width:2.61538;stroke-linecap:round;stroke-linejoin:round;stroke-miterlimit:10;stroke-dasharray:none;stroke-opacity:1" id="path3326" />
         </g>
         <g id="g3328" transform="matrix(1,0,0,-1,-15.965153,16.736161)">
            <path d="m 1058.32,-592.195 c -4.008,14.445 13.36,7.179 4.93,-1.352 -1.473,-0.238 -4.914,-1.019 -4.93,1.352" style="fill:none;stroke:#000000;stroke-width:2.61538;stroke-linecap:round;stroke-linejoin:round;stroke-miterlimit:10;stroke-dasharray:none;stroke-opacity:1" id="path3330" sodipodi:nodetypes="ccc" />
         </g>
         <g id="g3332" transform="matrix(1,0,0,-1,-15.965153,16.736161)">
            <path d="m 1136.125,-709.707 c -2.301,-6.02 7.324,-2.258 -0.328,-0.137" style="fill:none;stroke:#000000;stroke-width:2.61538;stroke-linecap:round;stroke-linejoin:round;stroke-miterlimit:10;stroke-dasharray:none;stroke-opacity:1" id="path3334" />
         </g>
         <g id="g3336" transform="matrix(1,0,0,-1,-15.965153,16.736161)">
            <path d="m 1077.766,-732.316 c -0.032,7.566 11.39,-1.399 0.765,0.285" style="fill:none;stroke:#000000;stroke-width:2.61538;stroke-linecap:round;stroke-linejoin:round;stroke-miterlimit:10;stroke-dasharray:none;stroke-opacity:1" id="path3338" />
         </g>
         <g id="g3340" transform="matrix(1,0,0,-1,-15.965153,16.736161)">
            <path d="m 968.805,-455.504 c 23.343,1.887 47.441,0.383 70.367,1.055" style="fill:none;stroke:#000000;stroke-width:1.30769;stroke-linecap:round;stroke-linejoin:round;stroke-miterlimit:10;stroke-dasharray:none;stroke-opacity:1" id="path3342" />
         </g>
         <g id="g3344" transform="matrix(1,0,0,-1,-15.965153,16.736161)">
            <path d="m 1042.316,-454.395 c -0.01,1.333 0.551,-1.648 0.141,-1.796" style="fill:none;stroke:#000000;stroke-width:1.30769;stroke-linecap:round;stroke-linejoin:round;stroke-miterlimit:10;stroke-dasharray:none;stroke-opacity:1" id="path3346" />
         </g>
         <g id="g3348" transform="matrix(1,0,0,-1,-15.965153,16.736161)">
            <path d="m 968.172,-469.863 c 0,0 39.918,0.804 59.875,0.965" style="fill:none;stroke:#000000;stroke-width:1.30769;stroke-linecap:round;stroke-linejoin:round;stroke-miterlimit:10;stroke-dasharray:none;stroke-opacity:1" id="path3350" sodipodi:nodetypes="cc" />
         </g>
         <g id="g3352" transform="matrix(1,0,0,-1,-15.965153,16.736161)">
            <path d="m 1041.188,-459.758 c -4.961,-2.133 -8.098,-6.761 -13.141,-9.14" style="fill:none;stroke:#000000;stroke-width:1.30769;stroke-linecap:round;stroke-linejoin:round;stroke-miterlimit:10;stroke-dasharray:none;stroke-opacity:1" id="path3354" sodipodi:nodetypes="cc" />
         </g>
         <g id="g3356" transform="matrix(1,0,0,-1,-15.965153,16.736161)">
            <path d="m 1064.031,-444.535 c 1.043,2.93 -0.883,5.918 0.133,8.961" style="fill:none;stroke:#000000;stroke-width:1.30769;stroke-linecap:round;stroke-linejoin:round;stroke-miterlimit:10;stroke-dasharray:none;stroke-opacity:1" id="path3358" />
         </g>
         <g id="g3360" transform="matrix(1,0,0,-1,-15.965153,16.736161)">
            <path d="m 1064.164,-435.574 c 10.105,1.269 21.797,-0.235 32.231,0.117" style="fill:none;stroke:#000000;stroke-width:1.30769;stroke-linecap:round;stroke-linejoin:round;stroke-miterlimit:10;stroke-dasharray:none;stroke-opacity:1" id="path3362" sodipodi:nodetypes="cc" />
         </g>
         <g id="g3364" transform="matrix(1,0,0,-1,-15.965153,16.736161)">
            <path d="m 1096.395,-435.457 c -0.438,-6.261 -0.083,-14.336 -0.93,-20.348" style="fill:none;stroke:#000000;stroke-width:1.30769;stroke-linecap:round;stroke-linejoin:round;stroke-miterlimit:10;stroke-dasharray:none;stroke-opacity:1" id="path3366" sodipodi:nodetypes="cc" />
         </g>
         <g id="g3368" transform="matrix(1,0,0,-1,-15.965153,16.736161)">
            <path d="m 1064.031,-444.535 c 4.278,-0.95 10.293,-0.813 14.77,-2.063" style="fill:none;stroke:#000000;stroke-width:1.30769;stroke-linecap:round;stroke-linejoin:round;stroke-miterlimit:10;stroke-dasharray:none;stroke-opacity:1" id="path3370" sodipodi:nodetypes="cc" />
         </g>
         <g id="g3372" transform="matrix(1,0,0,-1,-15.965153,16.736161)">
            <path d="m 1078.801,-446.598 c -0.016,-3.047 -0.047,-7.687 0.562,-10.597" style="fill:none;stroke:#000000;stroke-width:1.30769;stroke-linecap:round;stroke-linejoin:round;stroke-miterlimit:10;stroke-dasharray:none;stroke-opacity:1" id="path3374" sodipodi:nodetypes="cc" />
         </g>
         <g id="g3376" transform="matrix(1,0,0,-1,-15.965153,16.736161)">
            <path d="m 1079.363,-457.195 c 5.093,0.703 11.215,0.722 16.242,0.945" style="fill:none;stroke:#000000;stroke-width:1.30769;stroke-linecap:round;stroke-linejoin:round;stroke-miterlimit:10;stroke-dasharray:none;stroke-opacity:1" id="path3378" sodipodi:nodetypes="cc" />
         </g>
         <g id="g3380" transform="matrix(1,0,0,-1,-14.084752,15.650045)">
            <path d="m 1067.215,-439.719 c -5.351,-7.633 10.629,0.399 0,0" style="fill:none;stroke:#000000;stroke-width:1.30769;stroke-linecap:round;stroke-linejoin:round;stroke-miterlimit:10;stroke-dasharray:none;stroke-opacity:1" id="path3382" sodipodi:nodetypes="cc" />
         </g>
         <g id="g3384" transform="matrix(1,0,0,-1,-15.965153,16.736161)">
            <path d="m 1050.027,-458.35176 c 16.844,3.047 28.27,-17.06224 23.246,-31.75024 -2.464,-10.378 -9.3,-23.316 -21.957,-21.406 -16.089,0.684 -25.574,19.149 -21.226,33.465 3.07,9.805 8.741,17.51622 19.937,19.69124" style="fill:none;stroke:#000000;stroke-width:1.30769;stroke-linecap:round;stroke-linejoin:round;stroke-miterlimit:10;stroke-dasharray:none;stroke-opacity:1" id="path3386" sodipodi:nodetypes="ccccc" />
         </g>
         <g id="g3388" transform="matrix(1,0,0,-1,-15.965153,16.736161)">
            <path d="m 1053.938,-476.219 c -0.454,-4.683 6.124,-1.769 3.019,-7.523 5.273,-2.985 -1.289,-6.067 -1.223,-10.653 -3.586,2.231 -10.574,-3.367 -9.394,4.504 -7.16,1.95 1.582,13.223 5.613,13.664" style="fill:none;stroke:#000000;stroke-width:1.30769;stroke-linecap:round;stroke-linejoin:round;stroke-miterlimit:10;stroke-dasharray:none;stroke-opacity:1" id="path3390" />
         </g>
         <g id="g3392" transform="matrix(1,0,0,-1,-15.965153,16.736161)">
            <path d="m 1048.457,-472.652 c -11.633,-3.836 -14.738,-24.27 -0.543,-26.848 l 0.277,0.223 -0.078,0.476" style="fill:none;stroke:#000000;stroke-width:1.30769;stroke-linecap:round;stroke-linejoin:round;stroke-miterlimit:10;stroke-dasharray:none;stroke-opacity:1" id="path3394" />
         </g>
         <g id="g3396" transform="matrix(1,0,0,-1,-15.965153,16.736161)">
            <path d="m 1053.789,-472.559 c 13.422,-1.179 12.836,-23.57 0.18,-25.785 l -1.336,0.547" style="fill:none;stroke:#000000;stroke-width:1.30769;stroke-linecap:round;stroke-linejoin:round;stroke-miterlimit:10;stroke-dasharray:none;stroke-opacity:1" id="path3398" />
         </g>
         <g id="g3400" transform="matrix(1,0,0,-1,-15.965153,16.736161)">
            <path d="m 1039.832,-471.871 c -4.117,-9.496 -8.555,-25.637 2.785,-30.961" style="fill:none;stroke:#000000;stroke-width:1.30769;stroke-linecap:round;stroke-linejoin:round;stroke-miterlimit:10;stroke-dasharray:none;stroke-opacity:1" id="path3402" />
         </g>
         <g id="g3404" transform="matrix(1,0,0,-1,-15.965153,16.736161)">
            <path d="m 1048.039,-504.793 c 3.875,-0.406 8.168,-0.562 11.715,1.016" style="fill:none;stroke:#000000;stroke-width:1.30769;stroke-linecap:round;stroke-linejoin:round;stroke-miterlimit:10;stroke-dasharray:none;stroke-opacity:1" id="path3406" />
         </g>
         <g id="g3408" transform="matrix(1,0,0,-1,-15.965153,16.736161)">
            <path d="m 1064.617,-499.941 c 6.602,7.55 8.961,23.648 -0.055,31.507 l -1.015,0.985 -0.371,0.527" style="fill:none;stroke:#000000;stroke-width:1.30769;stroke-linecap:round;stroke-linejoin:round;stroke-miterlimit:10;stroke-dasharray:none;stroke-opacity:1" id="path3410" />
         </g>
         <g id="g3412" transform="matrix(1,0,0,-1,-15.965153,16.736161)">
            <path d="m 1057.16,-465.559 c -4.363,2.625 -10.035,0.512 -13.844,-1.914" style="fill:none;stroke:#000000;stroke-width:1.30769;stroke-linecap:round;stroke-linejoin:round;stroke-miterlimit:10;stroke-dasharray:none;stroke-opacity:1" id="path3414" />
         </g>
         <g id="g3416" transform="matrix(1,0,0,-1,-15.965153,16.736161)">
            <path d="m 1017.758,-560.488 c -8.696,-3.266 7.008,-8.977 1.859,-0.403 l -2.265,0.364 v 0" style="fill:none;stroke:#000000;stroke-width:1.30769;stroke-linecap:round;stroke-linejoin:round;stroke-miterlimit:10;stroke-dasharray:none;stroke-opacity:1" id="path3418" sodipodi:nodetypes="cccc" />
         </g>
         <g id="g3420" transform="matrix(1,0,0,-1,-15.965153,16.736161)">
            <path d="m 1009.133,-562.992 c -1.84,-2.82 5.301,-0.078 -0.649,0.031" style="fill:none;stroke:#000000;stroke-width:1.30769;stroke-linecap:round;stroke-linejoin:round;stroke-miterlimit:10;stroke-dasharray:none;stroke-opacity:1" id="path3422" />
         </g>
         <g id="g3424" transform="matrix(1,0,0,-1,-15.965153,16.736161)">
            <path d="m 981.754,-654.41 53.379,9.293" style="fill:none;stroke:#000000;stroke-width:1.30769;stroke-linecap:round;stroke-linejoin:round;stroke-miterlimit:10;stroke-dasharray:none;stroke-opacity:1" id="path3426" />
         </g>
         <g id="g3428" transform="matrix(1,0,0,-1,-15.965153,16.736161)">
            <path d="m 976.812,-667.82 57.7219,11.34" style="fill:none;stroke:#000000;stroke-width:1.30769;stroke-linecap:round;stroke-linejoin:round;stroke-miterlimit:10;stroke-dasharray:none;stroke-opacity:1" id="path3430" sodipodi:nodetypes="cc" />
         </g>
         <g id="g3432" transform="matrix(1,0,0,-1,-15.965153,16.736161)">
            <path d="m 1137.637,-551.773 -10.321,-161.536" style="fill:none;stroke:#000000;stroke-width:1.30769;stroke-linecap:round;stroke-linejoin:round;stroke-miterlimit:10;stroke-dasharray:none;stroke-opacity:1" id="path3434" />
         </g>
         <g id="g3436" transform="matrix(1,0,0,-1,-15.965153,16.736161)">
            <path d="m 1084.855,-555.766 c 0,0 37.211,6.895 52.903,4.395" style="fill:none;stroke:#000000;stroke-width:1.30769;stroke-linecap:round;stroke-linejoin:round;stroke-miterlimit:10;stroke-dasharray:none;stroke-opacity:1" id="path3438" />
         </g>
         <g id="g3440" transform="matrix(1,0,0,-1,-15.965153,16.736161)">
            <path d="m 1149.793,-545.191 c -12.422,-6.493 6.434,-16.922 0,-0.368" style="fill:none;stroke:#000000;stroke-width:1.30769;stroke-linecap:round;stroke-linejoin:round;stroke-miterlimit:10;stroke-dasharray:none;stroke-opacity:1" id="path3442" />
         </g>
         <g id="g3444" transform="matrix(1,0,0,-1,-15.965153,16.736161)">
            <path d="m 1148.906,-559.137 -11.394,-149.289" style="fill:none;stroke:#000000;stroke-width:1.30769;stroke-linecap:round;stroke-linejoin:round;stroke-miterlimit:10;stroke-dasharray:none;stroke-opacity:1" id="path3446" />
         </g>
         <g id="g3448" transform="matrix(1,0,0,-1,-15.965153,16.736161)">
            <path d="m 1085.312,-555.887 c 0.29,-24.175 -0.6309,-53.30465 -1.3969,-77.48365" style="fill:none;stroke:#000000;stroke-width:1.30769;stroke-linecap:round;stroke-linejoin:round;stroke-miterlimit:10;stroke-dasharray:none;stroke-opacity:1" id="path3450" sodipodi:nodetypes="cc" />
         </g>
         <g id="g3452" transform="matrix(1,0,0,-1,-15.965153,16.736161)">
            <path d="m 1083.9151,-633.37065 c 0,0 5.4519,0.0696 7.7529,0.12465" style="fill:none;stroke:#000000;stroke-width:1.30769;stroke-linecap:round;stroke-linejoin:round;stroke-miterlimit:10;stroke-dasharray:none;stroke-opacity:1" id="path3454" sodipodi:nodetypes="cc" />
         </g>
         <g id="g3456" transform="matrix(1,0,0,-1,-15.965153,16.736161)">
            <path d="m 1091.668,-633.246 c -0.492,-6.891 -0.453,-15.078 -1.219,-21.844" style="fill:none;stroke:#000000;stroke-width:1.30769;stroke-linecap:round;stroke-linejoin:round;stroke-miterlimit:10;stroke-dasharray:none;stroke-opacity:1" id="path3458" sodipodi:nodetypes="cc" />
         </g>
         <g id="g3460" transform="matrix(1,0,0,-1,-15.965153,16.736161)">
            <path d="m 1083.375,-657.008 c 3.004,-0.234 4.145,0.496 6.922,1.485" style="fill:none;stroke:#000000;stroke-width:1.30769;stroke-linecap:round;stroke-linejoin:round;stroke-miterlimit:10;stroke-dasharray:none;stroke-opacity:1" id="path3462" />
         </g>
         <g id="g3464" transform="matrix(1,0,0,-1,-15.965153,16.736161)">
            <path d="m 1083.062,-657.262 c 1.192,-21.019 -3.941,-45.058 -3.171,-66.121 l 0.398,0.328" style="fill:none;stroke:#000000;stroke-width:1.30769;stroke-linecap:round;stroke-linejoin:round;stroke-miterlimit:10;stroke-dasharray:none;stroke-opacity:1" id="path3466" />
         </g>
         <g id="g3468" transform="matrix(1,0,0,-1,-15.965153,16.736161)">
            <path d="m 1079.949,-723.336 c 14.535,2.816 47.301,9.93 47.301,9.93" style="fill:none;stroke:#000000;stroke-width:1.30769;stroke-linecap:round;stroke-linejoin:round;stroke-miterlimit:10;stroke-dasharray:none;stroke-opacity:1" id="path3470" />
         </g>
         <g id="g3472" transform="matrix(1,0,0,-1,-15.965153,16.736161)">
            <path d="m 1085.523,-642.434 c -2.961,1.446 1.922,-2.972 -0.07,0.547" style="fill:none;stroke:#000000;stroke-width:1.30769;stroke-linecap:round;stroke-linejoin:round;stroke-miterlimit:10;stroke-dasharray:none;stroke-opacity:1" id="path3474" />
         </g>
         <g id="g3476" transform="matrix(1,0,0,-1,-15.965153,16.736161)">
            <path d="m 1085.758,-649.418 c -4.231,-1.836 3.465,-3.402 -0.508,-0.375" style="fill:none;stroke:#000000;stroke-width:1.30769;stroke-linecap:round;stroke-linejoin:round;stroke-miterlimit:10;stroke-dasharray:none;stroke-opacity:1" id="path3478" />
         </g>
         <g id="g3480" transform="matrix(1,0,0,-1,-15.965153,16.736161)">
            <path d="m 1080.84,-641.195 c -3.301,-2.77 3.699,-3.754 -0.438,-1.543" style="fill:none;stroke:#000000;stroke-width:1.30769;stroke-linecap:round;stroke-linejoin:round;stroke-miterlimit:10;stroke-dasharray:none;stroke-opacity:1" id="path3482" />
         </g>
         <g id="g3484" transform="matrix(1,0,0,-1,-15.965153,16.736161)">
            <path d="m 1080.188,-650.637 c -4.118,-2.5 5.195,-3.679 0.933,-0.058" style="fill:none;stroke:#000000;stroke-width:1.30769;stroke-linecap:round;stroke-linejoin:round;stroke-miterlimit:10;stroke-dasharray:none;stroke-opacity:1" id="path3486" />
         </g>
         <g id="g3488" transform="matrix(1,0,0,-1,-15.965153,16.736161)">
            <path d="m 1090.016,-644.703 c -2.934,-2.016 3.468,-4.231 0.328,-0.93" style="fill:none;stroke:#000000;stroke-width:1.30769;stroke-linecap:round;stroke-linejoin:round;stroke-miterlimit:10;stroke-dasharray:none;stroke-opacity:1" id="path3490" />
         </g>
         <g id="g3492" transform="matrix(1,0,0,-1,-15.965153,16.736161)">
            <path d="m 1127.836,-635.73 c -5.191,-4.735 8.559,-3.786 0.109,-0.211" style="fill:none;stroke:#000000;stroke-width:1.30769;stroke-linecap:round;stroke-linejoin:round;stroke-miterlimit:10;stroke-dasharray:none;stroke-opacity:1" id="path3494" />
         </g>
         <g id="g3496" transform="matrix(1,0,0,-1,-15.965153,16.736161)">
            <path d="m 1112.809,-587.535 c 7.613,-0.418 1.472,-5.309 6.035,-9.363 -3.387,-2.625 -9.078,1.953 -5.188,-6.68 -2.89,-5.258 -9.804,0.73 -11.422,0.953 -3.722,5.789 4.457,16.543 11.012,14.082" style="fill:none;stroke:#000000;stroke-width:1.30769;stroke-linecap:round;stroke-linejoin:round;stroke-miterlimit:10;stroke-dasharray:none;stroke-opacity:1" id="path3498" />
         </g>
         <g id="g3500" transform="matrix(1,0,0,-1,-15.965153,16.736161)">
            <path d="m 1108.883,-582.777 c 3.679,1.359 7.59,0.015 10.847,-1.762" style="fill:none;stroke:#000000;stroke-width:1.30769;stroke-linecap:round;stroke-linejoin:round;stroke-miterlimit:10;stroke-dasharray:none;stroke-opacity:1" id="path3502" />
         </g>
         <g id="g3504" transform="matrix(1,0,0,-1,-15.965153,16.736161)">
            <path d="m 1121.551,-588.82 c 1.859,-1.289 1.097,-4.571 1.523,-6.43" style="fill:none;stroke:#000000;stroke-width:1.30769;stroke-linecap:round;stroke-linejoin:round;stroke-miterlimit:10;stroke-dasharray:none;stroke-opacity:1" id="path3506" />
         </g>
         <g id="g3508" transform="matrix(1,0,0,-1,-15.965153,16.736161)">
            <path d="m 1121.582,-600.402 c -0.586,-3.922 -4.012,-6.578 -7.172,-8.52" style="fill:none;stroke:#000000;stroke-width:1.30769;stroke-linecap:round;stroke-linejoin:round;stroke-miterlimit:10;stroke-dasharray:none;stroke-opacity:1" id="path3510" />
         </g>
         <g id="g3512" transform="matrix(1,0,0,-1,-15.965153,16.736161)">
            <path d="m 1108.492,-611.398 c -0.883,0.3 -4.203,1.714 -4.98,2.117" style="fill:none;stroke:#000000;stroke-width:1.30769;stroke-linecap:round;stroke-linejoin:round;stroke-miterlimit:10;stroke-dasharray:none;stroke-opacity:1" id="path3514" />
         </g>
         <g id="g3516" transform="matrix(1,0,0,-1,-15.965153,16.736161)">
            <path d="m 1098.918,-606.375 c -4.258,6.387 -1.566,15.359 4.203,19.871" style="fill:none;stroke:#000000;stroke-width:1.30769;stroke-linecap:round;stroke-linejoin:round;stroke-miterlimit:10;stroke-dasharray:none;stroke-opacity:1" id="path3518" />
         </g>
         <g id="g3520" transform="matrix(1,0,0,-1,-15.965153,16.736161)">
            <path d="m 1105.285,-577.172 c 16.297,9.25 28.93,-10.539 22.758,-25.426 -4.953,-10.347 -24.133,-16.511 -32.238,-6.285 -8.344,10.082 -0.055,25.781 9.48,31.711" style="fill:none;stroke:#000000;stroke-width:1.30769;stroke-linecap:round;stroke-linejoin:round;stroke-miterlimit:10;stroke-dasharray:none;stroke-opacity:1" id="path3522" sodipodi:nodetypes="cccc" />
         </g>
         <g id="g3524" transform="matrix(1,0,0,-1,-15.965153,16.736161)">
            <path d="m 1099.758,-578.184 c 11.902,11.797 33.347,3.899 31.972,-15.742 0.5,-13.258 -11.035,-21.703 -23.312,-22.539 -19.113,-2.949 -22.254,24.039 -11.449,34.567 2.219,2.98 4.543,5.558 8.363,6.308" style="fill:none;stroke:#000000;stroke-width:1.30769;stroke-linecap:round;stroke-linejoin:round;stroke-miterlimit:10;stroke-dasharray:none;stroke-opacity:1" id="path3526" />
         </g>
         <g id="g3528" transform="matrix(1,0,0,-1,-15.965153,16.736161)">
            <path d="m 1106.539,-676.48 c 4.012,3.418 13.981,-5.848 4.77,-5.418 5.75,-7.286 -5.5,-3.235 -3.766,-7.743 -2.816,0.168 -6.441,-5.246 -7.84,1.399 -2.949,1.586 1.297,12.156 6.899,11.566" style="fill:none;stroke:#000000;stroke-width:1.30769;stroke-linecap:round;stroke-linejoin:round;stroke-miterlimit:10;stroke-dasharray:none;stroke-opacity:1" id="path3530" />
         </g>
         <g id="g3532" transform="matrix(1,0,0,-1,-15.965153,16.736161)">
            <path d="m 1102.082,-673.344 c 4.516,1.934 13.059,3.77 16.168,-0.949" style="fill:none;stroke:#000000;stroke-width:1.30769;stroke-linecap:round;stroke-linejoin:round;stroke-miterlimit:10;stroke-dasharray:none;stroke-opacity:1" id="path3534" />
         </g>
         <g id="g3536" transform="matrix(1,0,0,-1,-15.965153,16.736161)">
            <path d="m 1119.539,-680.73 c -0.449,-3.95 -2.379,-7.813 -4.797,-10.688" style="fill:none;stroke:#000000;stroke-width:1.30769;stroke-linecap:round;stroke-linejoin:round;stroke-miterlimit:10;stroke-dasharray:none;stroke-opacity:1" id="path3538" />
         </g>
         <g id="g3540" transform="matrix(1,0,0,-1,-15.965153,16.736161)">
            <path d="m 1109.027,-696.184 c -2.898,-1.308 -6.304,-1.57 -9.23,-0.222" style="fill:none;stroke:#000000;stroke-width:1.30769;stroke-linecap:round;stroke-linejoin:round;stroke-miterlimit:10;stroke-dasharray:none;stroke-opacity:1" id="path3542" />
         </g>
         <g id="g3544" transform="matrix(1,0,0,-1,-15.965153,16.736161)">
            <path d="m 1096.637,-694.305 c -2.922,4.211 -2.645,11.282 0.847,15.524" style="fill:none;stroke:#000000;stroke-width:1.30769;stroke-linecap:round;stroke-linejoin:round;stroke-miterlimit:10;stroke-dasharray:none;stroke-opacity:1" id="path3546" />
         </g>
         <g id="g3548" transform="matrix(1,0,0,-1,-15.965153,16.736161)">
            <path d="m 1102.492,-667.973 c -14.113,-5.586 -20.058,-34.023 -0.496,-35.07 14.102,2.711 24.734,19.945 16.84,33.09 -4.672,4.922 -12.613,2.875 -17.574,0.418" style="fill:none;stroke:#000000;stroke-width:1.30769;stroke-linecap:round;stroke-linejoin:round;stroke-miterlimit:10;stroke-dasharray:none;stroke-opacity:1" id="path3550" />
         </g>
         <g id="g3552" transform="matrix(1,0,0,-1,-15.965153,16.736161)">
            <path d="m 1097.16,-669.84 c 8.762,7.692 26.832,6.617 28.235,-7.594 2.293,-15.144 -12.872,-30.738 -28.227,-25.554 -15.051,4.422 -8.281,33.855 5.324,35.015" style="fill:none;stroke:#000000;stroke-width:1.30769;stroke-linecap:round;stroke-linejoin:round;stroke-miterlimit:10;stroke-dasharray:none;stroke-opacity:1" id="path3554" sodipodi:nodetypes="cccc" />
         </g>
      </g>
   </g>
</svg>
