<?xml version="1.0" encoding="UTF-8" standalone="no"?>
<!-- Created by Ashley Blewer - This work is licensed under a Creative Commons Attribution 4.0 International License -->

<svg width="544" height="480" viewBox="0 0 143.93334 127" version="1.1" id="svg2490" inkscape:version="1.1.2 (08b2f3d93c, 2022-04-05)" sodipodi:docname="1993-digibeta-3.svg"
   xmlns:inkscape="http://www.inkscape.org/namespaces/inkscape"
   xmlns:sodipodi="http://sodipodi.sourceforge.net/DTD/sodipodi-0.dtd"
   xmlns="http://www.w3.org/2000/svg"
   xmlns:svg="http://www.w3.org/2000/svg">
   <sodipodi:namedview id="namedview2492" pagecolor="#ffffff" bordercolor="#666666" borderopacity="1.0" inkscape:pageshadow="2" inkscape:pageopacity="0.0" inkscape:pagecheckerboard="0" inkscape:document-units="mm" showgrid="false" units="px" inkscape:zoom="0.90583674" inkscape:cx="272.67607" inkscape:cy="177.18425" inkscape:window-width="1848" inkscape:window-height="1136" inkscape:window-x="72" inkscape:window-y="27" inkscape:window-maximized="1" inkscape:current-layer="layer1" />
   <defs id="defs2487" />
   <g inkscape:label="Layer 1" inkscape:groupmode="layer" id="layer1">
      <g id="g2617" transform="matrix(0.35277777,0,0,0.35277777,-198.51753,-28.913375)">
         <g id="g2516" transform="matrix(1,0,0,-1,-44.217747,21.207511)">
            <path d="m 735.945,-361.867 c 2.446,-3.113 4.481,-6.567 7.184,-9.473" style="fill:none;stroke:#000000;stroke-width:2.61538;stroke-linecap:round;stroke-linejoin:round;stroke-miterlimit:10;stroke-dasharray:none;stroke-opacity:1" id="path2518" />
         </g>
         <g id="g2520" transform="matrix(1,0,0,-1,-44.217747,21.207511)">
            <path d="m 719.645,-75.027 c 0.531,-1.571 -1.129,-3.996 -0.422,-5.543" style="fill:none;stroke:#000000;stroke-width:2.61538;stroke-linecap:round;stroke-linejoin:round;stroke-miterlimit:10;stroke-dasharray:none;stroke-opacity:1" id="path2522" />
         </g>
         <g id="g2524" transform="matrix(1,0,0,-1,-44.217747,21.207511)">
            <path d="m 719.285,-81.23 c 3.485,-0.024 2.32,-5.86 0.145,-6.809" style="fill:none;stroke:#000000;stroke-width:2.61538;stroke-linecap:round;stroke-linejoin:round;stroke-miterlimit:10;stroke-dasharray:none;stroke-opacity:1" id="path2526" />
         </g>
         <g id="g2528" transform="matrix(1,0,0,-1,-44.217747,21.207511)">
            <path d="m 719.379,-88.312 16.738,-272.926" style="fill:none;stroke:#000000;stroke-width:2.61538;stroke-linecap:round;stroke-linejoin:round;stroke-miterlimit:10;stroke-dasharray:none;stroke-opacity:1" id="path2530" />
         </g>
         <g id="g2532" transform="matrix(1,0,0,-1,-44.217747,21.207511)">
            <path d="m 719.312,-74.953 c 4.899,-0.121 9.876,1.414 14.7,1.223" style="fill:none;stroke:#000000;stroke-width:2.61538;stroke-linecap:round;stroke-linejoin:round;stroke-miterlimit:10;stroke-dasharray:none;stroke-opacity:1" id="path2534" />
         </g>
         <g id="g2536" transform="matrix(1,0,0,-1,-44.217747,21.207511)">
            <path d="m 725.68,-74.211 16.054,-274.848 c 0.922,-7.222 1.727,-14.437 1.633,-21.714" style="fill:none;stroke:#000000;stroke-width:2.61538;stroke-linecap:round;stroke-linejoin:round;stroke-miterlimit:10;stroke-dasharray:none;stroke-opacity:1" id="path2538" />
         </g>
         <g id="g2540" transform="matrix(1,0,0,-1,-44.217747,21.207511)">
            <path d="m 732.457,-75.266 c -1.156,-20.578 2.129,-61.589 2.129,-61.589 l 15.168,-234.215" style="fill:none;stroke:#000000;stroke-width:2.61538;stroke-linecap:round;stroke-linejoin:round;stroke-miterlimit:10;stroke-dasharray:none;stroke-opacity:1" id="path2542" />
         </g>
         <g id="g2544" transform="matrix(1,0,0,-1,-44.217747,21.207511)">
            <path d="m 743.062,-371.152 7.711,-0.528" style="fill:none;stroke:#000000;stroke-width:2.61538;stroke-linecap:round;stroke-linejoin:round;stroke-miterlimit:10;stroke-dasharray:none;stroke-opacity:1" id="path2546" />
         </g>
         <g id="g2548" transform="matrix(1,0,0,-1,-44.217747,21.207511)">
            <path d="m 751.055,-371.609 c 5.543,0.433 11.039,1.793 16.429,2.898" style="fill:none;stroke:#000000;stroke-width:2.61538;stroke-linecap:round;stroke-linejoin:round;stroke-miterlimit:10;stroke-dasharray:none;stroke-opacity:1" id="path2550" />
         </g>
         <g id="g2552" transform="matrix(1,0,0,-1,-44.217747,21.207511)">
            <path d="m 766.512,-367.898 c 0.242,2.937 8.722,8.136 6.554,0.371" style="fill:none;stroke:#000000;stroke-width:2.61538;stroke-linecap:round;stroke-linejoin:round;stroke-miterlimit:10;stroke-dasharray:none;stroke-opacity:1" id="path2554" />
         </g>
         <g id="g2556" transform="matrix(1,0,0,-1,-44.217747,21.207511)">
            <path d="m 773.168,-367.766 c 4.738,1.387 8.937,2.067 13.582,3.727" style="fill:none;stroke:#000000;stroke-width:2.61538;stroke-linecap:round;stroke-linejoin:round;stroke-miterlimit:10;stroke-dasharray:none;stroke-opacity:1" id="path2558" />
         </g>
         <g id="g2560" transform="matrix(1,0,0,-1,-44.217747,21.207511)">
            <path d="m 743.102,-74.336 c 11.316,-96.312 14.597,-295.508 14.597,-295.508" style="fill:none;stroke:#000000;stroke-width:2.61538;stroke-linecap:round;stroke-linejoin:round;stroke-miterlimit:10;stroke-dasharray:none;stroke-opacity:1" id="path2562" />
         </g>
         <g id="g2564" transform="matrix(1,0,0,-1,-44.217747,21.207511)">
            <path d="m 726.484,-73.184 c 6.676,2.293 19.137,2.399 27.961,3.614 2.301,-0.047 4.813,1.09 7.035,0.308" style="fill:none;stroke:#000000;stroke-width:2.61538;stroke-linecap:round;stroke-linejoin:round;stroke-miterlimit:10;stroke-dasharray:none;stroke-opacity:1" id="path2566" />
         </g>
         <g id="g2568" transform="matrix(1,0,0,-1,-44.217747,21.207511)">
            <path d="m 730.023,-74.883 c 10.625,0.59 21.266,1.321 31.911,1.207" style="fill:none;stroke:#000000;stroke-width:2.61538;stroke-linecap:round;stroke-linejoin:round;stroke-miterlimit:10;stroke-dasharray:none;stroke-opacity:1" id="path2570" />
         </g>
         <g id="g2572" transform="matrix(1,0,0,-1,-44.217747,21.207511)">
            <path d="m 760.77,-69.434 c -0.524,-1.222 0.613,-2.429 0.156,-3.691" style="fill:none;stroke:#000000;stroke-width:2.61538;stroke-linecap:round;stroke-linejoin:round;stroke-miterlimit:10;stroke-dasharray:none;stroke-opacity:1" id="path2574" />
         </g>
         <g id="g2576" transform="matrix(1,0,0,-1,-44.217747,21.207511)">
            <path d="M 763.09,-70.832 891.793,-71.43" style="fill:none;stroke:#000000;stroke-width:2.61538;stroke-linecap:round;stroke-linejoin:round;stroke-miterlimit:10;stroke-dasharray:none;stroke-opacity:1" id="path2578" />
         </g>
         <g id="g2580" transform="matrix(1,0,0,-1,-44.217747,21.207511)">
            <path d="m 891.742,-72.531 -3.808,-128.172" style="fill:none;stroke:#000000;stroke-width:2.61538;stroke-linecap:round;stroke-linejoin:round;stroke-miterlimit:10;stroke-dasharray:none;stroke-opacity:1" id="path2582" />
         </g>
         <g id="g2584" transform="matrix(1,0,0,-1,-44.217747,21.207511)">
            <path d="m 785.988,-211.008 c 39.914,3.403 111.082,10.77 111.082,10.77" style="fill:none;stroke:#000000;stroke-width:2.61538;stroke-linecap:round;stroke-linejoin:round;stroke-miterlimit:10;stroke-dasharray:none;stroke-opacity:1" id="path2586" />
         </g>
         <g id="g2588" transform="matrix(1,0,0,-1,-44.217747,21.207511)">
            <path d="m 897.637,-200.613 c 4.551,-2.227 11.586,-6.664 16.148,-8.91" style="fill:none;stroke:#000000;stroke-width:2.61538;stroke-linecap:round;stroke-linejoin:round;stroke-miterlimit:10;stroke-dasharray:none;stroke-opacity:1" id="path2590" />
         </g>
         <g id="g2592" transform="matrix(1,0,0,-1,-44.217747,21.207511)">
            <path d="m 787.055,-213.129 c 5.429,-3.668 9.886,-8.91 17.05,-7.836" style="fill:none;stroke:#000000;stroke-width:2.61538;stroke-linecap:round;stroke-linejoin:round;stroke-miterlimit:10;stroke-dasharray:none;stroke-opacity:1" id="path2594" />
         </g>
         <g id="g2596" transform="matrix(1,0,0,-1,-44.217747,21.207511)">
            <path d="m 793.703,-216.547 c 9.379,0.231 18.762,0.828 27.977,2.555" style="fill:none;stroke:#000000;stroke-width:2.61538;stroke-linecap:round;stroke-linejoin:round;stroke-miterlimit:10;stroke-dasharray:none;stroke-opacity:1" id="path2598" />
         </g>
         <g id="g2600" transform="matrix(1,0,0,-1,-44.217747,21.207511)">
            <path d="m 824.617,-212.789 c 16.008,-8.402 -7.305,-6.293 -12.043,-9.246" style="fill:none;stroke:#000000;stroke-width:2.61538;stroke-linecap:round;stroke-linejoin:round;stroke-miterlimit:10;stroke-dasharray:none;stroke-opacity:1" id="path2602" />
         </g>
         <g id="g2604" transform="matrix(1,0,0,-1,-44.217747,21.207511)">
            <path d="m 801.254,-218.371 c 8.031,0.664 16.301,1.594 24.269,1.094" style="fill:none;stroke:#000000;stroke-width:2.61538;stroke-linecap:round;stroke-linejoin:round;stroke-miterlimit:10;stroke-dasharray:none;stroke-opacity:1" id="path2606" />
         </g>
         <g id="g2608" transform="matrix(1,0,0,-1,-44.217747,21.207511)">
            <path d="m 786.289,-213.512 c -0.285,-26.164 -0.566,-52.422 -0.144,-78.629 0.75,30.379 0.757,-94.222 0.757,-94.222" style="fill:none;stroke:#000000;stroke-width:2.61538;stroke-linecap:round;stroke-linejoin:round;stroke-miterlimit:10;stroke-dasharray:none;stroke-opacity:1" id="path2610" />
         </g>
         <g id="g2612" transform="matrix(1,0,0,-1,-44.217747,21.207511)">
            <path d="m 787.746,-386.34 c 3.117,0.828 6.066,-7.371 0.664,-4.836" style="fill:none;stroke:#000000;stroke-width:2.61538;stroke-linecap:round;stroke-linejoin:round;stroke-miterlimit:10;stroke-dasharray:none;stroke-opacity:1" id="path2614" />
         </g>
         <g id="g2616" transform="matrix(1,0,0,-1,-44.217747,21.207511)">
            <path d="m 788.168,-391.398 c -1.297,0.503 0.676,-5.473 0.676,-5.473" style="fill:none;stroke:#000000;stroke-width:2.61538;stroke-linecap:round;stroke-linejoin:round;stroke-miterlimit:10;stroke-dasharray:none;stroke-opacity:1" id="path2618" />
         </g>
         <g id="g2620" transform="matrix(1,0,0,-1,-44.217747,21.207511)">
            <path d="m 789.059,-396.926 c 2.949,-3 12.187,-14.332 14.726,-16.308" style="fill:none;stroke:#000000;stroke-width:2.61538;stroke-linecap:round;stroke-linejoin:round;stroke-miterlimit:10;stroke-dasharray:none;stroke-opacity:1" id="path2622" />
         </g>
         <g id="g2624" transform="matrix(1,0,0,-1,-44.217747,21.207511)">
            <path d="m 799.582,-408.719 c 2.859,0.543 3.856,-4.097 6.422,-4.258" style="fill:none;stroke:#000000;stroke-width:2.61538;stroke-linecap:round;stroke-linejoin:round;stroke-miterlimit:10;stroke-dasharray:none;stroke-opacity:1" id="path2626" />
         </g>
         <g id="g2628" transform="matrix(1,0,0,-1,-44.217747,21.207511)">
            <path d="m 804.277,-413.68 c 5.145,2.465 14.289,3.461 19.164,6.25" style="fill:none;stroke:#000000;stroke-width:2.61538;stroke-linecap:round;stroke-linejoin:round;stroke-miterlimit:10;stroke-dasharray:none;stroke-opacity:1" id="path2630" />
         </g>
         <g id="g2632" transform="matrix(1,0,0,-1,-44.217747,21.207511)">
            <path d="m 823.836,-406.969 c 1.371,3.367 3.887,5.328 5.68,1.133" style="fill:none;stroke:#000000;stroke-width:2.61538;stroke-linecap:round;stroke-linejoin:round;stroke-miterlimit:10;stroke-dasharray:none;stroke-opacity:1" id="path2634" />
         </g>
         <g id="g2636" transform="matrix(1,0,0,-1,-44.217747,21.207511)">
            <path d="m 829.797,-405.844 c 19.066,5.727 41.469,9.133 60.168,16.344 1.73,0.371 3.422,1.246 5.234,1.02" style="fill:none;stroke:#000000;stroke-width:2.61538;stroke-linecap:round;stroke-linejoin:round;stroke-miterlimit:10;stroke-dasharray:none;stroke-opacity:1" id="path2638" />
         </g>
         <g id="g2640" transform="matrix(1,0,0,-1,-44.217747,21.207511)">
            <path d="m 894.477,-388.25 c -1.911,3.52 5.285,5.73 5.437,1.316" style="fill:none;stroke:#000000;stroke-width:2.61538;stroke-linecap:round;stroke-linejoin:round;stroke-miterlimit:10;stroke-dasharray:none;stroke-opacity:1" id="path2642" />
         </g>
         <g id="g2644" transform="matrix(1,0,0,-1,-44.217747,21.207511)">
            <path d="m 899.754,-387.578 c 0.379,-0.563 1.957,0.113 2.629,0.039" style="fill:none;stroke:#000000;stroke-width:2.61538;stroke-linecap:round;stroke-linejoin:round;stroke-miterlimit:10;stroke-dasharray:none;stroke-opacity:1" id="path2646" />
         </g>
         <g id="g2648" transform="matrix(1,0,0,-1,-44.217747,21.207511)">
            <path d="m 903.406,-387.695 10.254,177.578 0.004,-0.231" style="fill:none;stroke:#000000;stroke-width:2.61538;stroke-linecap:round;stroke-linejoin:round;stroke-miterlimit:10;stroke-dasharray:none;stroke-opacity:1" id="path2650" />
         </g>
         <g id="g2652" transform="matrix(1,0,0,-1,-44.217747,21.207511)">
            <path d="m 796.375,-220.785 c 0.07,-24.906 -0.102,-50.844 1.277,-76.106 1.055,-30.644 0.387,-61.336 1.914,-91.98 -0.496,-6.32 0.122,-15.063 0.774,-20.024" style="fill:none;stroke:#000000;stroke-width:2.61538;stroke-linecap:round;stroke-linejoin:round;stroke-miterlimit:10;stroke-dasharray:none;stroke-opacity:1" id="path2654" />
         </g>
         <g id="g2656" transform="matrix(1,0,0,-1,-44.217747,21.207511)">
            <path d="m 801.812,-221.246 c -0.695,-48.039 -2.593,-96.094 -0.218,-144.121 0.594,-16 1.359,-32.492 2.34,-48.153" style="fill:none;stroke:#000000;stroke-width:2.61538;stroke-linecap:round;stroke-linejoin:round;stroke-miterlimit:10;stroke-dasharray:none;stroke-opacity:1" id="path2658" />
         </g>
         <g id="g2660" transform="matrix(1,0,0,-1,-44.217747,21.207511)">
            <path d="m 814.637,-223.348 c 0.008,-38.777 -2.899,-77.515 -1.207,-116.285 -0.438,-23.281 0.89,-46.555 1.097,-69.816" style="fill:none;stroke:#000000;stroke-width:2.61538;stroke-linecap:round;stroke-linejoin:round;stroke-miterlimit:10;stroke-dasharray:none;stroke-opacity:1" id="path2662" />
         </g>
         <g id="g2664" transform="matrix(1,0,0,-1,-44.217747,21.207511)">
            <path d="m 817.332,-222.18 c 6.527,0.832 23.238,3.543 9.023,10.231" style="fill:none;stroke:#000000;stroke-width:2.61538;stroke-linecap:round;stroke-linejoin:round;stroke-miterlimit:10;stroke-dasharray:none;stroke-opacity:1" id="path2666" />
         </g>
         <g id="g2668" transform="matrix(1,0,0,-1,-44.217747,21.207511)">
            <path d="m 797.32,-214.297 c 9.465,1.281 19.153,2.106 28.711,2.102" style="fill:none;stroke:#000000;stroke-width:2.61538;stroke-linecap:round;stroke-linejoin:round;stroke-miterlimit:10;stroke-dasharray:none;stroke-opacity:1" id="path2670" />
         </g>
         <g id="g2788" transform="matrix(1,0,0,-1,-44.217747,21.207511)">
            <path d="m 818.141,-233.648 c -2.387,11.839 9.75,9.152 17.554,9.32" style="fill:none;stroke:#000000;stroke-width:1.30769;stroke-linecap:round;stroke-linejoin:round;stroke-miterlimit:10;stroke-dasharray:none;stroke-opacity:1" id="path2790" />
         </g>
         <g id="g2792" transform="matrix(1,0,0,-1,-44.217747,21.207511)">
            <path d="m 883.926,-218.004 c 12.265,4.649 22.418,-3.18 17.488,-16.551 0.082,-1.64 -0.785,-3.39 -0.172,-5.023" style="fill:none;stroke:#000000;stroke-width:1.30769;stroke-linecap:round;stroke-linejoin:round;stroke-miterlimit:10;stroke-dasharray:none;stroke-opacity:1" id="path2794" />
         </g>
         <g id="g2796" transform="matrix(1,0,0,-1,-44.217747,21.207511)">
            <path d="m 896.57,-321.824 c 0.731,-7.617 0.946,-17.852 -10.101,-15.504" style="fill:none;stroke:#000000;stroke-width:1.30769;stroke-linecap:round;stroke-linejoin:round;stroke-miterlimit:10;stroke-dasharray:none;stroke-opacity:1" id="path2798" />
         </g>
         <g id="g2800" transform="matrix(1,0,0,-1,-44.217747,21.207511)">
            <path d="m 829.918,-350.703 c -13.914,-6.414 -11.242,5.668 -11.477,14.57" style="fill:none;stroke:#000000;stroke-width:1.30769;stroke-linecap:round;stroke-linejoin:round;stroke-miterlimit:10;stroke-dasharray:none;stroke-opacity:1" id="path2802" />
         </g>
         <g id="g2804" transform="matrix(1,0,0,-1,-44.217747,21.207511)">
            <path d="m 844.238,-350.914 c 12.36,4.18 26.285,7.113 39.297,7.797" style="fill:none;stroke:#000000;stroke-width:1.30769;stroke-linecap:round;stroke-linejoin:round;stroke-miterlimit:10;stroke-dasharray:none;stroke-opacity:1" id="path2806" />
         </g>
         <g id="g2808" transform="matrix(1,0,0,-1,-44.217747,21.207511)">
            <path d="m 883.484,-343.258 c 2.934,-11.914 -1.261,-25.472 -0.589,-37.578 l -0.36,0.012" style="fill:none;stroke:#000000;stroke-width:1.30769;stroke-linecap:round;stroke-linejoin:round;stroke-miterlimit:10;stroke-dasharray:none;stroke-opacity:1" id="path2810" />
         </g>
         <g id="g2812" transform="matrix(1,0,0,-1,-44.217747,21.207511)">
            <path d="m 843.586,-351.117 -0.797,-40.059" style="fill:none;stroke:#000000;stroke-width:1.30769;stroke-linecap:round;stroke-linejoin:round;stroke-miterlimit:10;stroke-dasharray:none;stroke-opacity:1" id="path2814" />
         </g>
         <g id="g2816" transform="matrix(1,0,0,-1,-44.217747,21.207511)">
            <path d="m 842.758,-391.34 c 9.441,-0.719 34.597,6.141 40.125,10.258" style="fill:none;stroke:#000000;stroke-width:1.30769;stroke-linecap:round;stroke-linejoin:round;stroke-miterlimit:10;stroke-dasharray:none;stroke-opacity:1" id="path2818" />
         </g>
         <g id="g2820" transform="matrix(1,0,0,-1,-44.217747,21.207511)">
            <path d="m 843.746,-354.711 c 2.559,-18.351 28.043,-15.441 33.563,-0.805 1.078,3.684 1.054,8.821 -0.895,11.84" style="fill:none;stroke:#000000;stroke-width:1.30769;stroke-linecap:round;stroke-linejoin:round;stroke-miterlimit:10;stroke-dasharray:none;stroke-opacity:1" id="path2822" />
         </g>
         <g id="g2824" transform="matrix(1,0,0,-1,-44.217747,21.207511)">
            <path d="m 871.281,-345.242 c 1.176,-6.606 -2.543,-15.367 -10.019,-15.633" style="fill:none;stroke:#000000;stroke-width:1.30769;stroke-linecap:round;stroke-linejoin:round;stroke-miterlimit:10;stroke-dasharray:none;stroke-opacity:1" id="path2826" />
         </g>
         <g id="g2828" transform="matrix(1,0,0,-1,-44.217747,21.207511)">
            <path d="m 864.32,-346.074 c 3.778,-3.738 -2.476,-11.215 -6.566,-9.016" style="fill:none;stroke:#000000;stroke-width:1.30769;stroke-linecap:round;stroke-linejoin:round;stroke-miterlimit:10;stroke-dasharray:none;stroke-opacity:1" id="path2830" />
         </g>
         <g id="g2832" transform="matrix(1,0,0,-1,-44.217747,21.207511)">
            <path d="m 801.676,-91.344 c 11.551,7.336 34.719,6.328 43.633,2.258" style="fill:none;stroke:#000000;stroke-width:1.30769;stroke-linecap:round;stroke-linejoin:round;stroke-miterlimit:10;stroke-dasharray:none;stroke-opacity:1" id="path2834" />
         </g>
         <g id="g2836" transform="matrix(1,0,0,-1,-44.217747,21.207511)">
            <path d="m 845.492,-89.223 c -0.121,-23.547 0.082,-49.746 -0.668,-73.246 l -0.058,0.055" style="fill:none;stroke:#000000;stroke-width:1.30769;stroke-linecap:round;stroke-linejoin:round;stroke-miterlimit:10;stroke-dasharray:none;stroke-opacity:1" id="path2838" />
         </g>
         <g id="g2840" transform="matrix(1,0,0,-1,-44.217747,21.207511)">
            <path d="m 801.605,-91.41 c 0,0 -2.519,-53.133 0.247,-72.742" style="fill:none;stroke:#000000;stroke-width:1.30769;stroke-linecap:round;stroke-linejoin:round;stroke-miterlimit:10;stroke-dasharray:none;stroke-opacity:1" id="path2842" />
         </g>
         <g id="g2844" transform="matrix(1,0,0,-1,-44.217747,21.207511)">
            <path d="m 801.785,-164.582 c 13.008,-3.23 30.016,-0.891 42.91,2.141" style="fill:none;stroke:#000000;stroke-width:1.30769;stroke-linecap:round;stroke-linejoin:round;stroke-miterlimit:10;stroke-dasharray:none;stroke-opacity:1" id="path2846" />
         </g>
         <g id="g2848" transform="matrix(1,0,0,-1,-44.217747,21.207511)">
            <path d="m 825.734,-141.938 c -14.214,0.649 -9.746,-26.832 4.383,-14.968 5.613,4.218 0.328,16.695 -6.937,14.883" style="fill:none;stroke:#000000;stroke-width:1.30769;stroke-linecap:round;stroke-linejoin:round;stroke-miterlimit:10;stroke-dasharray:none;stroke-opacity:1" id="path2850" />
         </g>
         <g id="g2852" transform="matrix(1,0,0,-1,-44.217747,21.207511)">
            <path d="m 823.926,-137.062 c -19.367,-4.047 -7.418,-38.793 9.652,-23.008 7.586,6.468 0.945,28.05 -11.969,22.187" style="fill:none;stroke:#000000;stroke-width:1.30769;stroke-linecap:round;stroke-linejoin:round;stroke-miterlimit:10;stroke-dasharray:none;stroke-opacity:1" id="path2854" />
         </g>
         <g id="g2856" transform="matrix(1,0,0,-1,-44.217747,21.207511)">
            <path d="m 803.51641,-145.363 c 2.145,12.699 20.2,20.996 31.118,13.504 6.468,-3.446 8.875,-10.801 8.16,-17.715" style="fill:none;stroke:#000000;stroke-width:1.30769;stroke-linecap:round;stroke-linejoin:round;stroke-miterlimit:10;stroke-dasharray:none;stroke-opacity:1" id="path2858" />
         </g>
         <g id="g2860" transform="matrix(1,0,0,-1,-44.217747,21.207511)">
            <path d="m 786.984,-172.598 c 22.504,2.59 48.828,4.996 71.387,6.918" style="fill:none;stroke:#000000;stroke-width:1.30769;stroke-linecap:round;stroke-linejoin:round;stroke-miterlimit:10;stroke-dasharray:none;stroke-opacity:1" id="path2862" />
         </g>
         <g id="g2864" transform="matrix(1,0,0,-1,-44.217747,21.207511)">
            <path d="m 858.395,-165.852 2,-36.75" style="fill:none;stroke:#000000;stroke-width:1.30769;stroke-linecap:round;stroke-linejoin:round;stroke-miterlimit:10;stroke-dasharray:none;stroke-opacity:1" id="path2866" />
         </g>
         <g id="g2868" transform="matrix(1,0,0,-1,-44.217747,21.207511)">
            <path d="m 786.992,-172.637 c -1.047,-11.347 -2.008,-29.043 -1.301,-40.695" style="fill:none;stroke:#000000;stroke-width:1.30769;stroke-linecap:round;stroke-linejoin:round;stroke-miterlimit:10;stroke-dasharray:none;stroke-opacity:1" id="path2870" />
         </g>
         <g id="g2872" transform="matrix(1,0,0,-1,-44.217747,21.207511)">
            <path d="m 799.105,-208.797 c 0.7,8.395 0.192,17.805 0.852,26.203" style="fill:none;stroke:#000000;stroke-width:1.30769;stroke-linecap:round;stroke-linejoin:round;stroke-miterlimit:10;stroke-dasharray:none;stroke-opacity:1" id="path2874" />
         </g>
         <g id="g2876" transform="matrix(1,0,0,-1,-44.217747,21.207511)">
            <path d="m 800.289,-182.523 c 15.652,3.132 30.215,4.613 44.762,5.234" style="fill:none;stroke:#000000;stroke-width:1.30769;stroke-linecap:round;stroke-linejoin:round;stroke-miterlimit:10;stroke-dasharray:none;stroke-opacity:1" id="path2878" />
         </g>
         <g id="g2880" transform="matrix(1,0,0,-1,-44.217747,21.207511)">
            <path d="m 864.84,-202.312 c -0.203,12.542 -0.402,25.605 0.633,38.171" style="fill:none;stroke:#000000;stroke-width:1.30769;stroke-linecap:round;stroke-linejoin:round;stroke-miterlimit:10;stroke-dasharray:none;stroke-opacity:1" id="path2882" />
         </g>
         <g id="g2884" transform="matrix(1,0,0,-1,-44.217747,21.207511)">
            <path d="m 865.488,-164.156 10.278,0.715" style="fill:none;stroke:#000000;stroke-width:1.30769;stroke-linecap:round;stroke-linejoin:round;stroke-miterlimit:10;stroke-dasharray:none;stroke-opacity:1" id="path2886" />
         </g>
         <g id="g2888" transform="matrix(1,0,0,-1,-44.217747,21.207511)">
            <path d="m 875.832,-163.855 -0.039,-38.176" style="fill:none;stroke:#000000;stroke-width:1.30769;stroke-linecap:round;stroke-linejoin:round;stroke-miterlimit:10;stroke-dasharray:none;stroke-opacity:1" id="path2890" />
         </g>
         <g id="g2892" transform="matrix(1,0,0,-1,-44.217747,21.207511)">
            <path d="m 809.965,-278.699 0.625,47.883" style="fill:none;stroke:#000000;stroke-width:1.30769;stroke-linecap:round;stroke-linejoin:round;stroke-miterlimit:10;stroke-dasharray:none;stroke-opacity:1" id="path2894" />
         </g>
         <g id="g2896" transform="matrix(1,0,0,-1,-44.217747,21.207511)">
            <path d="m 805.75,-230.789 c 0,0 2.926,0.141 4.742,0.199" style="fill:none;stroke:#000000;stroke-width:1.30769;stroke-linecap:round;stroke-linejoin:round;stroke-miterlimit:10;stroke-dasharray:none;stroke-opacity:1" id="path2898" />
         </g>
         <g id="g2900" transform="matrix(1,0,0,-1,-44.217747,21.207511)">
            <path d="m 805.469,-230.676 c 1.054,-16.039 -0.313,-48.23 -0.313,-48.23 l 5.059,-0.364" style="fill:none;stroke:#000000;stroke-width:1.30769;stroke-linecap:round;stroke-linejoin:round;stroke-miterlimit:10;stroke-dasharray:none;stroke-opacity:1" id="path2902" />
         </g>
         <g id="g2904" transform="matrix(1,0,0,-1,-44.217747,21.207511)">
            <path d="m 809.602,-366.891 c 0.992,-12.754 0.164,-25.593 2.277,-38.226" style="fill:none;stroke:#000000;stroke-width:1.30769;stroke-linecap:round;stroke-linejoin:round;stroke-miterlimit:10;stroke-dasharray:none;stroke-opacity:1" id="path2906" />
         </g>
         <g id="g2908" transform="matrix(1,0,0,-1,-44.217747,21.207511)">
            <path d="m 752.551,-365.723 v 0" style="fill:none;stroke:#000000;stroke-width:1.30769;stroke-linecap:round;stroke-linejoin:round;stroke-miterlimit:10;stroke-dasharray:none;stroke-opacity:1" id="path2910" />
         </g>
         <g id="g2912" transform="matrix(1,0,0,-1,-44.217747,21.207511)">
            <path d="m 752.547,-365.184 c 0.043,11.2 -2.442,25.551 -0.758,34.778" style="fill:none;stroke:#000000;stroke-width:1.30769;stroke-linecap:round;stroke-linejoin:round;stroke-miterlimit:10;stroke-dasharray:none;stroke-opacity:1" id="path2914" />
         </g>
         <g id="g2916" transform="matrix(1,0,0,-1,-44.217747,21.207511)">
            <path d="m 735.484,-130.621 c -1.347,15.797 -1.804,31.867 -1.132,47.683" style="fill:none;stroke:#000000;stroke-width:1.30769;stroke-linecap:round;stroke-linejoin:round;stroke-miterlimit:10;stroke-dasharray:none;stroke-opacity:1" id="path2918" />
         </g>
         <g id="g2920" transform="matrix(1,0,0,-1,-44.217747,21.207511)">
            <path d="m 734.383,-82.168 c 1.469,-0.398 2.808,-1.367 4.285,-1.727" style="fill:none;stroke:#000000;stroke-width:1.30769;stroke-linecap:round;stroke-linejoin:round;stroke-miterlimit:10;stroke-dasharray:none;stroke-opacity:1" id="path2922" />
         </g>
         <g id="g2924" transform="matrix(1,0,0,-1,-44.217747,21.207511)">
            <path d="m 739.602,-85.16 c 1.402,-15.656 -1.422,-31.473 0.496,-47.121" style="fill:none;stroke:#000000;stroke-width:1.30769;stroke-linecap:round;stroke-linejoin:round;stroke-miterlimit:10;stroke-dasharray:none;stroke-opacity:1" id="path2926" />
         </g>
         <g id="g2928" transform="matrix(1,0,0,-1,-44.217747,21.207511)">
            <path d="m 734.133,-131.605 c 1.148,-0.375 4.043,-1.551 5.832,-1.645" style="fill:none;stroke:#000000;stroke-width:1.30769;stroke-linecap:round;stroke-linejoin:round;stroke-miterlimit:10;stroke-dasharray:none;stroke-opacity:1" id="path2930" />
         </g>
      </g>
   </g>
</svg>
