<?xml version="1.0" encoding="UTF-8" standalone="no"?>
<!-- Created by Ashley Blewer - This work is licensed under a Creative Commons Attribution 4.0 International License -->

<svg width="544" height="480" viewBox="0 0 143.93334 127" version="1.1" id="svg2490" inkscape:version="1.1.2 (08b2f3d93c, 2022-04-05)" sodipodi:docname="1993-vcd-3.svg"
   xmlns:inkscape="http://www.inkscape.org/namespaces/inkscape"
   xmlns:sodipodi="http://sodipodi.sourceforge.net/DTD/sodipodi-0.dtd"
   xmlns="http://www.w3.org/2000/svg"
   xmlns:svg="http://www.w3.org/2000/svg">
   <sodipodi:namedview id="namedview2492" pagecolor="#ffffff" bordercolor="#666666" borderopacity="1.0" inkscape:pageshadow="2" inkscape:pageopacity="0.0" inkscape:pagecheckerboard="0" inkscape:document-units="mm" showgrid="false" units="px" inkscape:zoom="0.90583674" inkscape:cx="279.29978" inkscape:cy="194.84747" inkscape:window-width="1848" inkscape:window-height="1136" inkscape:window-x="72" inkscape:window-y="27" inkscape:window-maximized="1" inkscape:current-layer="layer1" />
   <defs id="defs2487" />
   <g inkscape:label="Layer 1" inkscape:groupmode="layer" id="layer1">
      <g id="g3096" transform="matrix(0.31101671,0,0,0.31140701,-8.7016852,-127.11849)" style="stroke-width:0.813436">
         <g id="g512" transform="matrix(1,0,0,-1,0,792)" style="stroke-width:0.813436">
            <g id="g514" style="stroke-width:0.813436">
               <path d="m 114.31596,258.12442 c 95.44672,-0.4136 192.64832,-0.88597 288.09499,-1.31871" style="fill:none;stroke:#000000;stroke-width:2.12744;stroke-linecap:round;stroke-linejoin:round;stroke-miterlimit:10;stroke-dasharray:none;stroke-opacity:1" id="path516" sodipodi:nodetypes="cc" />
            </g>
         </g>
         <g id="g518" transform="matrix(1,0,0,-1,0,792)" style="stroke-width:0.813436">
            <g id="g520" style="stroke-width:0.813436">
               <path d="m 402.41095,256.80571 c 0,0 59.75203,-43.13789 58.97855,-42.4617" style="fill:none;stroke:#000000;stroke-width:2.12744;stroke-linecap:round;stroke-linejoin:round;stroke-miterlimit:10;stroke-dasharray:none;stroke-opacity:1" id="path522" sodipodi:nodetypes="cc" />
            </g>
         </g>
         <g id="g524" transform="matrix(1,0,0,-1,0,792)" style="stroke-width:0.813436">
            <g id="g526" style="stroke-width:0.813436">
               <path d="M 114.31596,258.12442 C 92.013246,242.18861 65.04303,226.65277 44.737457,208.01805" style="fill:none;stroke:#000000;stroke-width:2.12744;stroke-linecap:round;stroke-linejoin:round;stroke-miterlimit:10;stroke-dasharray:none;stroke-opacity:1" id="path528" sodipodi:nodetypes="cc" />
            </g>
         </g>
         <g id="g530" transform="matrix(1,0,0,-1,0,792)" style="stroke-width:0.813436">
            <g id="g532" style="stroke-width:0.813436">
               <path d="m 44.737457,208.01805 c 1.129639,-9.18324 1.015611,-18.51089 0.884776,-27.754 -1.593897,-15.05704 -2.900019,-30.16374 -2.649821,-45.32728 -0.103295,-11.72272 1.587483,-23.73483 6.807438,-34.28767 l 1.423286,-1.020776" style="fill:none;stroke:#000000;stroke-width:2.12744;stroke-linecap:round;stroke-linejoin:round;stroke-miterlimit:10;stroke-dasharray:none;stroke-opacity:1" id="path534" />
            </g>
         </g>
         <g id="g536" transform="matrix(1,0,0,-1,0,792)" style="stroke-width:0.813436">
            <g id="g538" style="stroke-width:0.813436">
               <path d="m 50.247341,98.577724 c 0,0 1.109346,-10.210994 0.894915,-9.696439 -0.0181,-0.21759 0.131905,-0.33805 0.214431,-0.514555" style="fill:none;stroke:#000000;stroke-width:2.12744;stroke-linecap:round;stroke-linejoin:round;stroke-miterlimit:10;stroke-dasharray:none;stroke-opacity:1" id="path540" sodipodi:nodetypes="ccc" />
            </g>
         </g>
         <g id="g542" transform="matrix(1,0,0,-1,0,792)" style="stroke-width:0.813436">
            <g id="g544" style="stroke-width:0.813436">
               <path d="m 51.342728,87.642807 5.752437,0.151085 5.194855,-0.380959" style="fill:none;stroke:#000000;stroke-width:2.12744;stroke-linecap:round;stroke-linejoin:round;stroke-miterlimit:10;stroke-dasharray:none;stroke-opacity:1" id="path546" />
            </g>
         </g>
         <g id="g548" transform="matrix(1,0,0,-1,0,792)" style="stroke-width:0.813436">
            <g id="g550" style="stroke-width:0.813436">
               <path d="m 88.370995,86.806343 -0.03895,0.378563 0.195304,-0.210075 -0.459495,-0.296677 -0.089,-0.881317 -0.235451,-0.157952 0.320534,-0.279197 -0.216774,-0.06305" style="fill:none;stroke:#000000;stroke-width:2.12744;stroke-linecap:round;stroke-linejoin:round;stroke-miterlimit:10;stroke-dasharray:none;stroke-opacity:1" id="path552" />
            </g>
         </g>
         <g id="g554" transform="matrix(1,0,0,-1,0,792)" style="stroke-width:0.813436">
            <g id="g556" style="stroke-width:0.813436">
               <path d="m 88.063937,85.359688 c 8.07854,-2.90714 17.986903,-5.094365 26.514253,-5.048425 8.03158,0.387513 15.79449,2.521943 23.78257,3.220373 2.13162,0.303085 5.32232,0.966569 7.51078,0.930419" style="fill:none;stroke:#000000;stroke-width:2.12744;stroke-linecap:round;stroke-linejoin:round;stroke-miterlimit:10;stroke-dasharray:none;stroke-opacity:1" id="path558" sodipodi:nodetypes="cccc" />
            </g>
         </g>
         <g id="g560" transform="matrix(1,0,0,-1,0,792)" style="stroke-width:0.813436">
            <g id="g562" style="stroke-width:0.813436">
               <path d="m 146.00244,86.028778 c -0.12156,0.303008 -0.55649,-0.135132 -0.0778,-0.0844 0.22421,-0.316042 -0.39523,-0.682677 -0.0907,-1.0614 0.0174,-0.124169 -0.12914,-0.357478 0.0376,-0.420923" style="fill:none;stroke:#000000;stroke-width:2.12744;stroke-linecap:round;stroke-linejoin:round;stroke-miterlimit:10;stroke-dasharray:none;stroke-opacity:1" id="path564" />
            </g>
         </g>
         <g id="g566" transform="matrix(1,0,0,-1,0,792)" style="stroke-width:0.813436">
            <g id="g568" style="stroke-width:0.813436" />
         </g>
         <g id="g572" transform="matrix(1,0,0,-1,0,792)" style="stroke-width:0.813436">
            <g id="g574" style="stroke-width:0.813436">
               <path d="m 373.4114,86.431371 c 12.43897,-5.162127 26.95838,-6.413857 40.1488,-7.714441 6.44427,-0.570825 14.16986,2.034829 19.72684,5.119974" style="fill:none;stroke:#000000;stroke-width:2.12744;stroke-linecap:round;stroke-linejoin:round;stroke-miterlimit:10;stroke-dasharray:none;stroke-opacity:1" id="path576" sodipodi:nodetypes="ccc" />
            </g>
         </g>
         <g id="g578" transform="matrix(1,0,0,-1,0,792)" style="stroke-width:0.813436">
            <g id="g580" style="stroke-width:0.813436">
               <path d="m 433.49249,86.611191 c -0.10431,-0.54032 -0.19573,-1.097944 -0.0283,-1.635751 0.0333,-0.388548 -0.0974,-0.763819 -0.17715,-1.138536" style="fill:none;stroke:#000000;stroke-width:2.12744;stroke-linecap:round;stroke-linejoin:round;stroke-miterlimit:10;stroke-dasharray:none;stroke-opacity:1" id="path582" />
            </g>
         </g>
         <g id="g584" transform="matrix(1,0,0,-1,0,792)" style="stroke-width:0.813436">
            <g id="g586" style="stroke-width:0.813436">
               <path d="M 63.956322,86.499214 C 199.0115,90.416909 334.14928,83.419104 469.18674,88.483656" style="fill:none;stroke:#000000;stroke-width:2.12744;stroke-linecap:round;stroke-linejoin:round;stroke-miterlimit:10;stroke-dasharray:none;stroke-opacity:1" id="path588" />
            </g>
         </g>
         <g id="g590" transform="matrix(1,0,0,-1,0,792)" style="stroke-width:0.813436">
            <g id="g592" style="stroke-width:0.813436">
               <path d="m 461.3895,214.34401 c 5.1283,-13.79236 14.04129,-34.26743 14.77187,-48.26675 0.4494,-19.04764 -1.10493,-38.15233 -3.39403,-57.03408 -0.7197,-3.54929 -1.57478,-9.346982 -2.45881,-12.857275" style="fill:none;stroke:#000000;stroke-width:2.12744;stroke-linecap:round;stroke-linejoin:round;stroke-miterlimit:10;stroke-dasharray:none;stroke-opacity:1" id="path594" sodipodi:nodetypes="cccc" />
            </g>
         </g>
         <g id="g596" transform="matrix(1,0,0,-1,0,792)" style="stroke-width:0.813436">
            <g id="g598" style="stroke-width:0.813436">
               <path d="m 470.30853,96.185905 c 0,0 0.11898,-0.944885 0.10629,-1.327296 -0.0121,-0.597144 -0.15525,-1.187557 -0.11263,-1.78993 0.0348,-1.644449 0.38893,-3.323524 -0.0823,-4.939884 -0.13407,-0.81881 -1.15113,-0.823091 -1.79981,-0.893932 -0.51493,-0.0022 -1.09896,-0.03706 -1.53418,0.28887" style="fill:none;stroke:#000000;stroke-width:2.12744;stroke-linecap:round;stroke-linejoin:round;stroke-miterlimit:10;stroke-dasharray:none;stroke-opacity:1" id="path600" sodipodi:nodetypes="cccccc" />
            </g>
         </g>
         <g id="g602" transform="matrix(1,0,0,-1,0,792)" style="stroke-width:0.813436">
            <g id="g604" style="stroke-width:0.813436">
               <path d="M 50.847863,212.91363 C 184.68963,212.63772 327.56165,217.8218 461.3895,214.34401" style="fill:none;stroke:#000000;stroke-width:2.12744;stroke-linecap:round;stroke-linejoin:round;stroke-miterlimit:10;stroke-dasharray:none;stroke-opacity:1" id="path606" sodipodi:nodetypes="cc" />
            </g>
         </g>
         <g id="g608" transform="matrix(1,0,0,-1,0,792)" style="stroke-width:0.813436">
            <g id="g610" style="stroke-width:0.813436">
               <path d="m 46.306068,192.52972 c 9.050644,0.4072 18.45772,1.72346 27.202821,-1.38641 5.626058,-2.9018 7.996729,-9.27448 9.318163,-15.08373 1.606944,-5.56009 0.979865,-11.42947 1.80641,-17.10743 0.624632,-7.11002 1.28518,-14.2364 0.963171,-21.37941 0.165957,-4.39654 1.334629,-8.83425 0.361128,-13.21252" style="fill:none;stroke:#000000;stroke-width:2.12744;stroke-linecap:round;stroke-linejoin:round;stroke-miterlimit:10;stroke-dasharray:none;stroke-opacity:1" id="path612" />
            </g>
         </g>
         <g id="g614" transform="matrix(1,0,0,-1,0,792)" style="stroke-width:0.813436">
            <g id="g616" style="stroke-width:0.813436">
               <path d="m 46.032133,187.32899 c 7.352799,0.49938 14.136485,-1.05093 21.306164,-2.48148 5.070906,-0.84716 8.110109,-5.31843 8.208768,-10.23143 l 4.563075,-43.20413 c 0,0 0.400099,-8.58294 0.906138,-9.84709" style="fill:none;stroke:#000000;stroke-width:2.12744;stroke-linecap:round;stroke-linejoin:round;stroke-miterlimit:10;stroke-dasharray:none;stroke-opacity:1" id="path618" sodipodi:nodetypes="ccccc" />
            </g>
         </g>
         <g id="g620" transform="matrix(1,0,0,-1,0,792)" style="stroke-width:0.813436">
            <g id="g622" style="stroke-width:0.813436">
               <path d="m 84.816505,121.91849 c 0.612093,0.29915 -0.792491,-0.07 -0.294222,-0.54929 -0.42996,-0.97412 -1.368728,-1.69849 -1.930461,-2.62831 -0.174925,-1.14502 -1.472438,-2.27514 -1.467931,-3.16319 -0.113237,-0.16251 -0.782721,-0.3729 -0.674392,0.0182" style="fill:none;stroke:#000000;stroke-width:2.12744;stroke-linecap:round;stroke-linejoin:round;stroke-miterlimit:10;stroke-dasharray:none;stroke-opacity:1" id="path624" />
            </g>
         </g>
         <g id="g626" transform="matrix(1,0,0,-1,0,792)" style="stroke-width:0.813436">
            <g id="g628" style="stroke-width:0.813436">
               <path d="m 50.167206,98.97377 c -0.271033,-0.222658 -0.07891,-0.539941 0.24043,-0.370421 1.32425,0.136384 2.645171,0.302476 3.967586,0.455144 0.245444,0.06409 0.616692,0.151248 0.195177,0.220755 0.04331,0.04946 0.117072,0.05481 0.160002,0.104933" style="fill:none;stroke:#000000;stroke-width:2.12744;stroke-linecap:round;stroke-linejoin:round;stroke-miterlimit:10;stroke-dasharray:none;stroke-opacity:1" id="path630" />
            </g>
         </g>
         <g id="g632" transform="matrix(1,0,0,-1,0,792)" style="stroke-width:0.813436">
            <g id="g634" style="stroke-width:0.813436">
               <path d="m 66.596687,86.598665 c -5.446179,1.242419 -8.33078,6.409212 -8.244203,11.602735 -0.0085,5.40191 0.142279,10.86035 1.277447,16.15855 1.51711,4.25018 6.860424,2.86942 10.344299,3.36142 10.680908,0.24095 21.288797,-1.4525 31.97127,-1.23337 4.84319,-0.0795 10.02056,0.35462 14.57635,-1.43687 2.7831,-2.95241 2.72092,-7.45447 3.49295,-11.24092 0.29275,-4.860089 -0.32295,-10.338011 -2.84236,-14.499295 -1.50957,-1.299975 -5.62327,-1.903768 -5.62327,-1.903768" style="fill:none;stroke:#000000;stroke-width:2.12744;stroke-linecap:round;stroke-linejoin:round;stroke-miterlimit:10;stroke-dasharray:none;stroke-opacity:1" id="path636" sodipodi:nodetypes="ccccccccc" />
            </g>
         </g>
         <g id="g638" transform="matrix(1,0,0,-1,0,792)" style="stroke-width:0.813436">
            <g id="g640" style="stroke-width:0.813436">
               <path d="m 58.591621,142.80513 c -3.95035,-1.30758 -6.270199,-6.23529 -4.310946,-10.02741 1.113499,-3.44177 3.953659,-6.78221 7.842151,-6.74789 4.029309,0.42335 8.394391,2.97111 9.137156,7.24596 1.019722,3.19518 -0.83209,6.49085 -2.901953,8.81767 -2.538874,2.43206 -6.629782,2.68429 -9.504784,0.66538 -0.630098,-0.32901 -1.256164,-0.66748 -1.906213,-0.95627" style="fill:none;stroke:#000000;stroke-width:2.12744;stroke-linecap:round;stroke-linejoin:round;stroke-miterlimit:10;stroke-dasharray:none;stroke-opacity:1" id="path642" />
            </g>
         </g>
         <g id="g644" transform="matrix(1,0,0,-1,0,792)" style="stroke-width:0.813436">
            <g id="g646" style="stroke-width:0.813436">
               <path d="m 72.459318,108.63837 c -1.207683,-2.02112 -1.293454,-4.76092 -0.02411,-6.76984 1.246884,-1.46297 3.431072,-1.17401 5.082875,-0.69609 1.586265,0.4597 2.697447,1.88588 2.963904,3.48707 0.48346,1.91289 -0.166884,4.46169 -2.276416,5.05654 -2.0079,0.61691 -3.860586,-0.61826 -5.746255,-1.07768 z" style="fill:none;stroke:#000000;stroke-width:2.12744;stroke-linecap:round;stroke-linejoin:round;stroke-miterlimit:10;stroke-dasharray:none;stroke-opacity:1" id="path648" sodipodi:nodetypes="cccccc" />
            </g>
         </g>
         <g id="g650" transform="matrix(1,0,0,-1,0,792)" style="stroke-width:0.813436">
            <g id="g652" style="stroke-width:0.813436">
               <path d="m 99.370331,109.11357 c -0.933578,-0.98514 -2.46679,-2.05333 -1.996855,-3.61351 -0.134998,-1.26865 0.462947,-2.4777 1.704246,-2.92232 1.092518,-0.55594 2.206788,-1.26866 3.492348,-1.09715 1.2037,0.13006 2.43405,0.37039 3.53022,0.89255 1.35261,0.81648 2.12274,2.31268 2.60021,3.76621 0.15578,1.4334 -1.39916,2.12395 -2.50383,2.55034 -2.14487,1.02033 -4.55482,0.59567 -6.826339,0.42388 z" style="fill:none;stroke:#000000;stroke-width:2.12744;stroke-linecap:round;stroke-linejoin:round;stroke-miterlimit:10;stroke-dasharray:none;stroke-opacity:1" id="path654" sodipodi:nodetypes="ccccccc" />
            </g>
         </g>
         <g id="g656" transform="matrix(1,0,0,-1,0,792)" style="stroke-width:0.813436">
            <g id="g658" style="stroke-width:0.813436">
               <path d="m 136.1467,94.741486 c -12.50218,15.900754 -20.25717,62.661334 -17.88093,82.607704 -0.0397,2.20387 1.8488,3.46803 2.83394,5.23955" style="fill:none;stroke:#000000;stroke-width:2.12744;stroke-linecap:round;stroke-linejoin:round;stroke-miterlimit:10;stroke-dasharray:none;stroke-opacity:1" id="path660" sodipodi:nodetypes="ccc" />
            </g>
         </g>
         <g id="g662" transform="matrix(1,0,0,-1,0,792)" style="stroke-width:0.813436">
            <g id="g664" style="stroke-width:0.813436">
               <path d="m 121.38256,183.12469 c 13.27558,7.8517 29.5476,0.46628 44.10341,2.40701 0,0 155.21854,8.13997 227.87417,-1.31833 12.50115,-19.52401 2.36952,-64.86117 -3.43664,-80.84836 v 0" style="fill:none;stroke:#000000;stroke-width:2.12744;stroke-linecap:round;stroke-linejoin:round;stroke-miterlimit:10;stroke-dasharray:none;stroke-opacity:1" id="path666" sodipodi:nodetypes="ccccc" />
            </g>
         </g>
         <g id="g668" transform="matrix(1,0,0,-1,0,792)" style="stroke-width:0.813436">
            <g id="g670" style="stroke-width:0.813436">
               <path d="m 136.1775,94.554962 222.56848,0.141852 c 9.6255,0.667673 19.65552,0.553493 28.79056,3.922405 1.94951,0.99805 2.03892,3.205331 2.38696,4.745791" style="fill:none;stroke:#000000;stroke-width:2.12744;stroke-linecap:round;stroke-linejoin:round;stroke-miterlimit:10;stroke-dasharray:none;stroke-opacity:1" id="path672" sodipodi:nodetypes="cccc" />
            </g>
         </g>
         <g id="g674" transform="matrix(1,0,0,-1,0,792)" style="stroke-width:0.813436">
            <g id="g676" style="stroke-width:0.813436">
               <path d="m 155.97726,183.99472 c -7.90747,-3.96476 -5.34227,-15.81017 -5.79067,-23.29565 1.85415,-7.59702 1.46344,-14.90535 2.56201,-22.48171 0.42348,-9.25564 2.87547,-18.19418 4.77486,-27.14134 3.75487,-9.61961 13.68893,-9.67297 23.78477,-9.88237 51.32028,-2.082064 103.21331,-0.4285 152.61878,-1.419379 8.88279,0.370369 18.79129,0.988739 26.34663,5.631609 1.94979,1.61865 8.79657,15.15282 8.04985,23.9382 -0.12303,10.74598 -0.61778,21.51524 0.0476,32.222 1.68932,10.16265 -3.98159,20.30381 -13.78512,23.65386 -4.67686,1.50165 -11.02048,2.85808 -11.02048,2.85808" style="fill:none;stroke:#000000;stroke-width:2.12744;stroke-linecap:round;stroke-linejoin:round;stroke-miterlimit:10;stroke-dasharray:none;stroke-opacity:1" id="path678" sodipodi:nodetypes="ccccccccccc" />
            </g>
         </g>
         <g id="g680" transform="matrix(1,0,0,-1,0,792)" style="stroke-width:0.813436">
            <g id="g682" style="stroke-width:0.813436">
               <path d="m 126.68916,149.17697 2.74013,0.58392 5.99309,0.61216 12.71974,0.10267" style="fill:none;stroke:#000000;stroke-width:2.12744;stroke-linecap:round;stroke-linejoin:round;stroke-miterlimit:10;stroke-dasharray:none;stroke-opacity:1" id="path684" />
            </g>
         </g>
         <g id="g686" transform="matrix(1,0,0,-1,0,792)" style="stroke-width:0.813436">
            <g id="g688" style="stroke-width:0.813436">
               <path d="m 127.88168,142.80911 6.18209,0.52522 15.15266,-0.64299" style="fill:none;stroke:#000000;stroke-width:2.12744;stroke-linecap:round;stroke-linejoin:round;stroke-miterlimit:10;stroke-dasharray:none;stroke-opacity:1" id="path690" />
            </g>
         </g>
         <g id="g692" transform="matrix(1,0,0,-1,0,792)" style="stroke-width:0.813436">
            <g id="g694" style="stroke-width:0.813436">
               <path d="M 154.00871,151.01648 361.8392,148.1233" style="fill:none;stroke:#000000;stroke-width:2.12744;stroke-linecap:round;stroke-linejoin:round;stroke-miterlimit:10;stroke-dasharray:none;stroke-opacity:1" id="path696" sodipodi:nodetypes="cc" />
            </g>
         </g>
         <g id="g698" transform="matrix(1,0,0,-1,0,792)" style="stroke-width:0.813436">
            <g id="g700" style="stroke-width:0.813436">
               <path d="m 370.91107,149.95972 c 7.40136,-0.20859 14.92421,0.72639 22.20237,-1.05949" style="fill:none;stroke:#000000;stroke-width:2.12744;stroke-linecap:round;stroke-linejoin:round;stroke-miterlimit:10;stroke-dasharray:none;stroke-opacity:1" id="path702" />
            </g>
         </g>
         <g id="g704" transform="matrix(1,0,0,-1,0,792)" style="stroke-width:0.813436">
            <g id="g706" style="stroke-width:0.813436">
               <path d="m 371.61942,143.42409 19.93536,1.06241" style="fill:none;stroke:#000000;stroke-width:2.12744;stroke-linecap:round;stroke-linejoin:round;stroke-miterlimit:10;stroke-dasharray:none;stroke-opacity:1" id="path708" sodipodi:nodetypes="cc" />
            </g>
         </g>
         <g id="g710" transform="matrix(1,0,0,-1,0,792)" style="stroke-width:0.813436">
            <g id="g712" style="stroke-width:0.813436">
               <path d="m 154.16913,144.24272 212.01471,-2.02114" style="fill:none;stroke:#000000;stroke-width:2.12744;stroke-linecap:round;stroke-linejoin:round;stroke-miterlimit:10;stroke-dasharray:none;stroke-opacity:1" id="path714" sodipodi:nodetypes="cc" />
            </g>
         </g>
         <g id="g716" transform="matrix(1,0,0,-1,0,792)" style="stroke-width:0.813436">
            <g id="g718" style="stroke-width:0.813436">
               <path d="m 469.26115,192.24092 c -8.02151,1.15382 -17.71112,1.43946 -23.66991,-5.03696 -6.51312,-7.67857 -5.59611,-18.41958 -7.98078,-27.63187 -2.69785,-11.49564 -2.65197,-23.42087 -2.70168,-35.16899 0.11862,-1.39828 0.18894,-4.9363 0.53701,-6.29656" style="fill:none;stroke:#000000;stroke-width:2.12744;stroke-linecap:round;stroke-linejoin:round;stroke-miterlimit:10;stroke-dasharray:none;stroke-opacity:1" id="path720" sodipodi:nodetypes="ccccc" />
            </g>
         </g>
         <g id="g722" transform="matrix(1,0,0,-1,0,792)" style="stroke-width:0.813436">
            <g id="g724" style="stroke-width:0.813436">
               <path d="m 395.91808,121.49571 c 9.15877,0.0883 19.92068,-0.36335 29.07713,-0.47217" style="fill:none;stroke:#000000;stroke-width:2.12744;stroke-linecap:round;stroke-linejoin:round;stroke-miterlimit:10;stroke-dasharray:none;stroke-opacity:1" id="path726" sodipodi:nodetypes="cc" />
            </g>
         </g>
         <g id="g728" transform="matrix(1,0,0,-1,0,792)" style="stroke-width:0.813436">
            <g id="g730" style="stroke-width:0.813436">
               <path d="m 401.69803,116.14601 c 12.75977,2.5428 25.85196,1.05134 38.72433,2.10829 5.9547,-0.74544 12.61347,1.42246 18.14119,-1.18849 2.60183,-3.14632 2.90581,-7.65168 2.97234,-11.57845 -0.18903,-3.97828 -1.95206,-16.960609 -2.52123,-16.581685" style="fill:none;stroke:#000000;stroke-width:2.12744;stroke-linecap:round;stroke-linejoin:round;stroke-miterlimit:10;stroke-dasharray:none;stroke-opacity:1" id="path732" sodipodi:nodetypes="ccccc" />
            </g>
         </g>
         <g id="g734" transform="matrix(1,0,0,-1,0,792)" style="stroke-width:0.813436">
            <g id="g736" style="stroke-width:0.813436">
               <path d="m 401.69803,116.14601 c -2.1677,-6.75784 -1.34755,-17.952101 -1.6909,-23.154791 -0.17399,-3.585265 2.94577,-5.764254 5.995,-6.114416" style="fill:none;stroke:#000000;stroke-width:2.12744;stroke-linecap:round;stroke-linejoin:round;stroke-miterlimit:10;stroke-dasharray:none;stroke-opacity:1" id="path738" sodipodi:nodetypes="ccc" />
            </g>
         </g>
         <g id="g740" transform="matrix(1,0,0,-1,0,792)" style="stroke-width:0.813436">
            <g id="g742" style="stroke-width:0.813436">
               <path d="m 55.848774,148.66934 c 6.342885,0.12213 13.188055,-0.0788 19.075911,-0.0709" style="fill:none;stroke:#000000;stroke-width:1.06373;stroke-linecap:round;stroke-linejoin:round;stroke-miterlimit:10;stroke-dasharray:none;stroke-opacity:1" id="path744" sodipodi:nodetypes="cc" />
            </g>
         </g>
         <g id="g746" transform="matrix(1,0,0,-1,0,792)" style="stroke-width:0.813436">
            <g id="g748" style="stroke-width:0.813436">
               <path d="m 75.104668,113.40978 c 10.345477,0.56781 11.819473,-16.711763 0.515899,-16.237001 -10.473015,-1.97626 -14.879469,14.340331 -3.272099,15.697271 l 1.379754,0.30905 z" style="fill:none;stroke:#000000;stroke-width:1.06373;stroke-linecap:round;stroke-linejoin:round;stroke-miterlimit:10;stroke-dasharray:none;stroke-opacity:1" id="path750" sodipodi:nodetypes="cccccccccc" />
            </g>
         </g>
         <g id="g752" transform="matrix(1,0,0,-1,0,792)" style="stroke-width:0.813436">
            <g id="g754" style="stroke-width:0.813436">
               <path d="m 95.144112,110.74899 c 7.460778,4.95426 20.564778,-4.60422 11.878248,-11.955627 -5.91511,-5.705058 -16.128013,-0.91205 -15.93936,7.144757 -0.294882,2.47563 1.429155,4.945 4.061112,4.81087 z" style="fill:none;stroke:#000000;stroke-width:1.06373;stroke-linecap:round;stroke-linejoin:round;stroke-miterlimit:10;stroke-dasharray:none;stroke-opacity:1" id="path756" sodipodi:nodetypes="ccccccccc" />
            </g>
         </g>
         <g id="g758" transform="matrix(1,0,0,-1,0,792)" style="stroke-width:0.813436">
            <g id="g760" style="stroke-width:0.813436">
               <path d="m 91.738137,129.41918 c -0.377246,0.71326 -0.968122,2.47527 -0.643228,3.08469 0.06937,0.683 0.983568,2.21699 2.034028,2.20504" style="fill:none;stroke:#000000;stroke-width:1.06373;stroke-linecap:round;stroke-linejoin:round;stroke-miterlimit:10;stroke-dasharray:none;stroke-opacity:1" id="path762" sodipodi:nodetypes="ccc" />
            </g>
         </g>
         <g id="g764" transform="matrix(1,0,0,-1,0,792)" style="stroke-width:0.813436">
            <g id="g766" style="stroke-width:0.813436">
               <path d="m 93.128937,134.70891 c 0,0 3.424555,0.66252 5.660518,0.6808 2.582965,-0.0573 5.165905,-0.17112 7.751335,-0.12156 2.16128,-0.0259 4.28271,-0.11123 6.42582,-0.3373 0.68416,-0.99439 0.47177,-2.51236 0.43281,-3.55035 -0.49723,-1.55436 -1.19193,-2.01034 -2.441,-2.1721 -2.2436,-0.1793 -4.49795,0.0453 -6.74265,-0.14382 -4.16254,-0.0568 -8.31745,0.31361 -12.477633,0.3546" style="fill:none;stroke:#000000;stroke-width:1.06373;stroke-linecap:round;stroke-linejoin:round;stroke-miterlimit:10;stroke-dasharray:none;stroke-opacity:1" id="path768" sodipodi:nodetypes="cccccccc" />
            </g>
         </g>
         <g id="g770" transform="matrix(1,0,0,-1,0,792)" style="stroke-width:0.813436">
            <g id="g772" style="stroke-width:0.813436">
               <path d="m 90.433418,146.75346 c -1.563992,-0.29156 -2.918756,1.28021 -2.36159,2.76068 0.613058,1.45213 1.013636,3.63471 2.999175,3.59201 3.289502,0.43294 6.619022,0.17933 9.925887,0.25517 2.30096,-0.0633 4.59178,-0.30408 6.88908,-0.43341 1.31011,-0.54481 1.3372,-2.62835 1.3372,-2.62835 l -0.37344,-2.61272 c -1.1053,-1.45363 -2.57512,-0.72357 -3.68164,-1.15553 -3.09185,-0.19489 -8.980347,-0.0129 -8.980347,-0.0129 -1.886446,-0.0155 -3.889732,-0.0212 -5.754325,0.23505" style="fill:none;stroke:#000000;stroke-width:1.06373;stroke-linecap:round;stroke-linejoin:round;stroke-miterlimit:10;stroke-dasharray:none;stroke-opacity:1" id="path774" sodipodi:nodetypes="cccccccccc" />
            </g>
         </g>
         <g id="g776" transform="matrix(1,0,0,-1,0,792)" style="stroke-width:0.813436">
            <g id="g778" style="stroke-width:0.813436">
               <path d="m 93.800659,157.30824 7.155511,-0.0456 c 0.0311,-0.0372 0.0621,-0.0744 0.0932,-0.11156" style="fill:none;stroke:#000000;stroke-width:1.06373;stroke-linecap:round;stroke-linejoin:round;stroke-miterlimit:10;stroke-dasharray:none;stroke-opacity:1" id="path780" sodipodi:nodetypes="ccc" />
            </g>
         </g>
         <g id="g782" transform="matrix(1,0,0,-1,0,792)" style="stroke-width:0.813436">
            <g id="g784" style="stroke-width:0.813436">
               <path d="m 97.187225,139.78607 7.137075,0.24436" style="fill:none;stroke:#000000;stroke-width:1.06373;stroke-linecap:round;stroke-linejoin:round;stroke-miterlimit:10;stroke-dasharray:none;stroke-opacity:1" id="path786" sodipodi:nodetypes="cc" />
            </g>
         </g>
         <g id="g788" transform="matrix(1,0,0,-1,0,792)" style="stroke-width:0.813436">
            <g id="g790" style="stroke-width:0.813436">
               <path d="m 133.93565,171.27995 c -0.02,-0.18354 -0.0838,-0.62507 -0.15252,-0.31601 0.43263,0.27943 0.91438,-0.0683 1.38301,-0.0671 0.97221,-0.19092 1.9568,-0.30337 2.94811,-0.30832 0.12979,-0.005 0.25957,-0.0102 0.38935,-0.0152" style="fill:none;stroke:#000000;stroke-width:1.06373;stroke-linecap:round;stroke-linejoin:round;stroke-miterlimit:10;stroke-dasharray:none;stroke-opacity:1" id="path792" />
            </g>
         </g>
         <g id="g794" transform="matrix(1,0,0,-1,0,792)" style="stroke-width:0.813436">
            <g id="g796" style="stroke-width:0.813436">
               <path d="m 132.39625,166.0195 c -1.47257,-1.63618 -1.80955,-3.95669 -1.91845,-6.07372 -0.2104,-1.82089 1.03712,-3.21226 2.46726,-4.1184 1.29577,-1.22114 3.05356,-0.57696 4.48468,-0.0274 1.99398,0.73885 4.16536,1.89875 4.96689,3.99325 0.4771,1.57972 -0.33876,3.21633 -1.46634,4.29413 -0.75884,1.26843 -1.77369,2.45667 -3.24666,2.87549 -1.54618,0.5864 -3.46852,0.59193 -4.77819,-0.53834" style="fill:none;stroke:#000000;stroke-width:1.06373;stroke-linecap:round;stroke-linejoin:round;stroke-miterlimit:10;stroke-dasharray:none;stroke-opacity:1" id="path798" sodipodi:nodetypes="ccccccccc" />
            </g>
         </g>
         <g id="g800" transform="matrix(1,0,0,-1,0,792)" style="stroke-width:0.813436">
            <g id="g802" style="stroke-width:0.813436">
               <path d="m 131.76976,193.41923 c -3.16162,0.15749 -2.60779,3.67818 -2.29301,5.70112 1.50524,2.3214 3.52023,1.66918 5.36013,1.92266 3.7769,0.0581 7.41837,-0.01 11.18792,-0.0119 4.01428,-0.46213 3.55524,-1.85207 3.47563,-4.49816 -0.0833,-2.34121 -0.3803,-3.65609 -2.49713,-3.41477 -5.08034,-0.0242 -10.14999,0.10019 -15.23354,0.30109" style="fill:none;stroke:#000000;stroke-width:1.06373;stroke-linecap:round;stroke-linejoin:round;stroke-miterlimit:10;stroke-dasharray:none;stroke-opacity:1" id="path804" sodipodi:nodetypes="ccccccc" />
            </g>
         </g>
         <g id="g806" transform="matrix(1,0,0,-1,0,792)" style="stroke-width:0.813436">
            <g id="g808" style="stroke-width:0.813436">
               <path d="m 157.13777,194.05383 c -1.0623,1.65624 -1.78916,3.98404 -0.3315,5.647 1.43792,1.91806 3.91496,2.65221 6.23447,2.32094 4.70795,-0.18784 9.43135,-0.31176 14.10233,-0.98263 1.30307,-1.78382 -0.12091,-4.04924 0.24906,-6.03836 -0.80415,-2.00916 -3.38606,-1.54757 -5.11265,-1.8005 -4.64084,-0.45467 -9.30918,-0.27771 -13.95176,-5.1e-4 -0.92775,0.11522 -0.34099,0.45494 -1.18995,0.85406" style="fill:none;stroke:#000000;stroke-width:1.06373;stroke-linecap:round;stroke-linejoin:round;stroke-miterlimit:10;stroke-dasharray:none;stroke-opacity:1" id="path810" sodipodi:nodetypes="cccccccc" />
            </g>
         </g>
         <g id="g812" transform="matrix(1,0,0,-1,0,792)" style="stroke-width:0.813436">
            <g id="g814" style="stroke-width:0.813436">
               <path d="m 185.43961,193.58452 c -1.63959,0.73944 -1.50584,2.67879 -1.1004,4.31116 -0.37762,1.99663 1.42626,3.13937 3.24191,2.81088 4.52978,0.29734 9.11271,0.39612 13.60752,-0.30707 1.90354,-0.51907 2.3178,-3.13455 2.3524,-4.87461 -0.0143,-2.24871 -3.11183,-2.04309 -4.69271,-2.4075 -3.71602,-0.0236 -7.43973,-0.20837 -11.15513,-0.0399 -1.16516,0.13157 -1.21213,0.37968 -2.25359,0.50704" style="fill:none;stroke:#000000;stroke-width:1.06373;stroke-linecap:round;stroke-linejoin:round;stroke-miterlimit:10;stroke-dasharray:none;stroke-opacity:1" id="path816" sodipodi:nodetypes="cccccccc" />
            </g>
         </g>
         <g id="g818" transform="matrix(1,0,0,-1,0,792)" style="stroke-width:0.813436">
            <g id="g820" style="stroke-width:0.813436">
               <path d="m 213.19798,192.38896 c -1.80477,0.58415 -4.20786,2.13743 -3.26046,4.36674 0.16791,2.15866 1.98765,3.34838 4.04781,3.29842 4.79563,0.53248 9.63747,0.58151 14.44655,0.71269 2.11164,-0.49293 2.16691,-3.06511 2.54111,-4.79259 0.41472,-2.57258 -2.9251,-2.90807 -4.73133,-3.28847 -3.79409,-0.56581 -7.65455,-1.08918 -11.48503,-0.58458 -1.30696,0.10423 -0.29391,-0.0472 -1.55865,0.28779" style="fill:none;stroke:#000000;stroke-width:1.06373;stroke-linecap:round;stroke-linejoin:round;stroke-miterlimit:10;stroke-dasharray:none;stroke-opacity:1" id="path822" sodipodi:nodetypes="cccccccc" />
            </g>
         </g>
         <g id="g824" transform="matrix(1,0,0,-1,0,792)" style="stroke-width:0.813436">
            <g id="g826" style="stroke-width:0.813436">
               <path d="m 240.68466,192.86789 c -1.57224,0.0586 -4.22336,0.44739 -4.48092,2.20526 -0.26567,1.70842 -1.33447,4.35959 0.55581,5.4442 2.37201,0.62087 4.86001,-0.0554 7.28176,0.20169 2.76663,0.19774 5.51825,-0.11565 8.26778,-0.31242 1.83969,-0.35092 5.17495,0.6357 5.64958,-1.87979 -0.0604,-1.78897 0.40951,-4.50534 -1.88887,-5.07853 -3.18816,-0.63277 -5.85485,-0.0918 -9.07009,-0.55055 -2.67935,-0.0214 -3.42236,0.0827 -6.31505,-0.0299" style="fill:none;stroke:#000000;stroke-width:1.06373;stroke-linecap:round;stroke-linejoin:round;stroke-miterlimit:10;stroke-dasharray:none;stroke-opacity:1" id="path828" sodipodi:nodetypes="ccccccccc" />
            </g>
         </g>
         <g id="g830" transform="matrix(1,0,0,-1,0,792)" style="stroke-width:0.813436">
            <g id="g832" style="stroke-width:0.813436">
               <path d="m 271.42317,194.21151 c 5.43861,-0.0303 10.44678,-0.53293 16.67594,-0.19176 2.43229,-0.28769 4.38324,2.47408 3.12815,4.64011 -0.93986,1.44211 -2.01756,3.53411 -4.0602,3.35751 -4.11899,-0.16633 -8.36364,0.20891 -12.49496,-0.1604 -1.71648,0.0415 -3.66008,-0.7506 -4.2027,-2.67849 -0.83017,-1.6488 -0.592,-3.82937 0.95377,-4.96697" style="fill:none;stroke:#000000;stroke-width:1.06373;stroke-linecap:round;stroke-linejoin:round;stroke-miterlimit:10;stroke-dasharray:none;stroke-opacity:1" id="path834" sodipodi:nodetypes="ccccccc" />
            </g>
         </g>
         <g id="g836" transform="matrix(1,0,0,-1,0,792)" style="stroke-width:0.813436">
            <g id="g838" style="stroke-width:0.813436">
               <path d="m 297.61542,194.31004 c 3.94288,-0.52086 7.64496,-0.0972 11.87096,-0.51018 2.46971,-0.0707 2.69133,-0.16032 4.85369,1.31642 1.58662,2.23822 1.3922,3.75172 0.251,5.41541 -2.17529,2.15996 -5.50081,1.71955 -8.30004,1.93787 -3.23201,-0.005 -6.48695,-0.22401 -9.66126,-0.82748 -2.13776,-0.84189 -1.00832,-3.3094 -1.0429,-4.97371 -0.0631,-2.74031 2.02855,-2.64289 5.36321,-2.62965" style="fill:none;stroke:#000000;stroke-width:1.06373;stroke-linecap:round;stroke-linejoin:round;stroke-miterlimit:10;stroke-dasharray:none;stroke-opacity:1" id="path840" sodipodi:nodetypes="cccccccc" />
            </g>
         </g>
         <g id="g842" transform="matrix(1,0,0,-1,0,792)" style="stroke-width:0.813436">
            <g id="g844" style="stroke-width:0.813436">
               <path d="m 325.73822,193.66098 c -2.45884,0.16893 -2.71308,0.66877 -3.40803,1.90642 -0.21456,0.88979 -0.15351,1.85551 -0.004,2.76348 0.32402,1.12884 1.00853,2.12438 1.72973,3.03146 1.43826,0.23612 3.52906,0.36845 5.31717,0.0773 2.72401,-0.4899 5.47279,0.0126 8.23652,-0.14566 1.49787,-0.12795 3.04225,-0.10482 4.44443,-0.72707 1.00077,-0.35356 2.1243,-1.18006 1.95306,-2.37881 -0.14508,-1.00643 -0.007,-2.1019 -0.54954,-3.02219 -0.43416,-0.96297 -1.5507,-0.94839 -2.44182,-1.02458 -3.04462,-0.3293 -6.11269,-0.55325 -9.17535,-0.47153 -2.86873,0.20285 -3.23344,-0.21168 -6.10217,-0.009" style="fill:none;stroke:#000000;stroke-width:1.06373;stroke-linecap:round;stroke-linejoin:round;stroke-miterlimit:10;stroke-dasharray:none;stroke-opacity:1" id="path846" sodipodi:nodetypes="cccccccccccc" />
            </g>
         </g>
         <g id="g848" transform="matrix(1,0,0,-1,0,792)" style="stroke-width:0.813436">
            <g id="g850" style="stroke-width:0.813436">
               <path d="m 354.1864,193.97069 c 0.89242,0.10128 -2.73123,0.1477 -3.81304,0.55963 -1.33462,0.78851 -1.54078,2.41141 -1.02399,3.75649 0.48557,1.27699 0.72145,3.0745 2.42661,3.18266 4.02919,0.0729 8.07855,0.35697 12.10793,0.0848 1.7849,-0.30755 4.47703,-0.22296 5.10307,-2.33686 -0.36088,-1.4112 0.95345,-3.26121 -0.62452,-4.17666 -1.40646,-0.84874 -3.18212,-0.66421 -4.75152,-1.04526 -3.13578,-0.1032 -6.2842,-0.0548 -9.42454,-0.0248" style="fill:none;stroke:#000000;stroke-width:1.06373;stroke-linecap:round;stroke-linejoin:round;stroke-miterlimit:10;stroke-dasharray:none;stroke-opacity:1" id="path852" sodipodi:nodetypes="ccccccccc" />
            </g>
         </g>
         <g id="g854" transform="matrix(1,0,0,-1,0,792)" style="stroke-width:0.813436">
            <g id="g856" style="stroke-width:0.813436">
               <path d="m 377.37338,194.66849 c -0.93802,0.61901 -0.31365,-0.40008 -1.28275,0.67145 -1.28324,0.89735 -0.26932,2.43852 -0.50442,3.57924 0.0715,1.67606 1.4092,3.02539 3.10056,2.99926 2.03384,0.45964 4.1089,0.0777 6.16389,0.0327 2.43099,-0.0822 4.86697,-0.39408 7.29458,-0.11606 1.27159,0.005 2.53661,-0.20625 3.79943,-0.34396 1.16371,-0.53371 1.98687,-1.71949 1.4416,-2.79984 0.0622,-1.2847 -0.61016,-2.58124 -1.72409,-3.2915 -0.82681,-0.74224 -1.78548,-1.22119 -2.91936,-1.1702 -3.28074,-0.11201 -6.57031,-0.0576 -9.85448,-0.0714 -1.83832,0.1701 -3.67664,0.34021 -5.51496,0.51031" style="fill:none;stroke:#000000;stroke-width:1.06373;stroke-linecap:round;stroke-linejoin:round;stroke-miterlimit:10;stroke-dasharray:none;stroke-opacity:1" id="path858" sodipodi:nodetypes="cccccccccccc" />
            </g>
         </g>
         <g id="g860" transform="matrix(1,0,0,-1,0,792)" style="stroke-width:0.813436">
            <g id="g862" style="stroke-width:0.813436">
               <path d="m 409.7841,196.36286 c -0.33975,1.61897 0.39119,5.12582 3.56878,5.00572 3.50364,0.30176 7.03568,-0.13692 10.55667,0.0345 3.01779,0.28193 8.17641,-0.88916 6.20596,-4.96935 -1.45408,-2.66697 -5.07669,-1.42957 -7.56407,-1.8673 -3.01921,0.061 -6.09707,-0.26728 -9.07706,1.1e-4 -3.36799,-0.0996 -3.69028,1.79632 -3.69028,1.79632" style="fill:none;stroke:#000000;stroke-width:1.06373;stroke-linecap:round;stroke-linejoin:round;stroke-miterlimit:10;stroke-dasharray:none;stroke-opacity:1" id="path864" sodipodi:nodetypes="ccccccc" />
            </g>
         </g>
         <g id="g866" transform="matrix(1,0,0,-1,0,792)" style="stroke-width:0.813436">
            <g id="g868" style="stroke-width:0.813436">
               <path d="m 380.18365,166.58131 c -1.59223,-1.21939 -3.79221,-2.56381 -3.21485,-4.94246 0.24994,-2.41731 2.59994,-3.49307 4.54599,-4.35997 2.42811,-1.24153 5.08764,0.59976 6.44248,2.58612 1.37261,1.40181 0.69104,3.44105 -0.15126,4.91786 -0.88541,1.67442 -2.90048,2.36411 -4.69677,2.11723 -0.97917,0.0458 -2.01766,0.1296 -2.92559,-0.31878 z" style="fill:none;stroke:#000000;stroke-width:1.06373;stroke-linecap:round;stroke-linejoin:round;stroke-miterlimit:10;stroke-dasharray:none;stroke-opacity:1" id="path870" sodipodi:nodetypes="ccccccccc" />
            </g>
         </g>
         <g id="g872" transform="matrix(1,0,0,-1,0,792)" style="stroke-width:0.813436">
            <g id="g874" style="stroke-width:0.813436">
               <path d="m 377.84735,171.70488 c 1.73336,-0.0741 3.46671,-0.14827 5.20007,-0.2224" style="fill:none;stroke:#000000;stroke-width:1.06373;stroke-linecap:round;stroke-linejoin:round;stroke-miterlimit:10;stroke-dasharray:none;stroke-opacity:1" id="path876" sodipodi:nodetypes="cc" />
            </g>
         </g>
         <g id="g878" transform="matrix(1,0,0,-1,0,792)" style="stroke-width:0.813436">
            <g id="g880" style="stroke-width:0.813436">
               <path d="m 409.66976,153.39996 c 2.56726,0.40313 5.94944,0.22893 8.54032,0.32122 2.63521,-0.0707 5.35714,-0.0681 7.89591,-0.78829 1.25247,-0.77782 3.54523,-2.00505 2.5893,-3.76669 -0.54746,-1.83822 -2.55695,-2.05387 -4.17572,-2.08705 -3.501,-0.0162 -7.00815,0.27434 -10.50084,-0.14593 -2.10893,-0.2794 -4.72675,0.32165 -5.50148,2.56215 -0.74923,1.5401 0.33402,2.76328 1.15251,3.90459" style="fill:none;stroke:#000000;stroke-width:1.06373;stroke-linecap:round;stroke-linejoin:round;stroke-miterlimit:10;stroke-dasharray:none;stroke-opacity:1" id="path882" sodipodi:nodetypes="cccccccc" />
            </g>
         </g>
         <g id="g884" transform="matrix(1,0,0,-1,0,792)" style="stroke-width:0.813436">
            <g id="g886" style="stroke-width:0.813436">
               <path d="m 407.41821,158.30472 17.58314,-1.15885" style="fill:none;stroke:#000000;stroke-width:1.06373;stroke-linecap:round;stroke-linejoin:round;stroke-miterlimit:10;stroke-dasharray:none;stroke-opacity:1" id="path888" sodipodi:nodetypes="cc" />
            </g>
         </g>
         <g id="g890" transform="matrix(1,0,0,-1,0,792)" style="stroke-width:0.813436">
            <g id="g892" style="stroke-width:0.813436">
               <path d="m 408.4151,141.38705 c 2.71885,-0.0841 5.43833,-0.43307 8.07581,-1.09705" style="fill:none;stroke:#000000;stroke-width:1.06373;stroke-linecap:round;stroke-linejoin:round;stroke-miterlimit:10;stroke-dasharray:none;stroke-opacity:1" id="path894" sodipodi:nodetypes="cc" />
            </g>
         </g>
         <g id="g896" transform="matrix(1,0,0,-1,0,792)" style="stroke-width:0.813436">
            <g id="g898" style="stroke-width:0.813436">
               <path d="m 405.8334,135.849 c 4.49456,0.28856 9.00752,0.57308 13.49846,0.0699 2.07028,-0.0719 4.19465,-0.0792 5.70986,-1.70374 1.39933,-1.08871 1.67019,-4.03373 -0.37151,-4.59449 -1.69329,-0.22953 -3.44461,-0.14291 -5.14987,-0.45556 -3.03693,-0.48131 -6.09681,-0.87505 -9.17642,-0.58611 -2.54197,0.17297 -5.64126,0.72149 -6.83581,3.28502 -0.3451,1.41099 1.06547,3.15926 2.32529,3.98498" style="fill:none;stroke:#000000;stroke-width:1.06373;stroke-linecap:round;stroke-linejoin:round;stroke-miterlimit:10;stroke-dasharray:none;stroke-opacity:1" id="path900" sodipodi:nodetypes="cccccccc" />
            </g>
         </g>
         <g id="g902" transform="matrix(1,0,0,-1,0,792)" style="stroke-width:0.813436">
            <g id="g904" style="stroke-width:0.813436">
               <path d="m 412.89322,111.98532 c -4.69391,-1.42732 -4.8767,-8.44268 -2.21325,-11.78165 3.64093,-4.378997 11.47122,-3.880585 14.83032,0.51068 2.13314,4.14199 0.54162,10.71545 -4.51107,11.78804 -3.62973,0.87751 -7.62054,0.7156 -10.58915,-1.99995" style="fill:none;stroke:#000000;stroke-width:1.06373;stroke-linecap:round;stroke-linejoin:round;stroke-miterlimit:10;stroke-dasharray:none;stroke-opacity:1" id="path906" sodipodi:nodetypes="ccccc" />
            </g>
         </g>
         <g id="g908" transform="matrix(1,0,0,-1,0,792)" style="stroke-width:0.813436">
            <g id="g910" style="stroke-width:0.813436">
               <path d="m 443.3813,113.91984 c -5.57886,0.97484 -9.89177,-7.55602 -7.83583,-11.83545 2.80379,-6.564346 13.81735,-6.816803 16.09255,0.25575 2.86714,5.69416 -1.77976,12.69297 -8.25672,11.5797 -2.84423,-0.27743 -4.32389,-1.78972 -6.59785,-3.53681" style="fill:none;stroke:#000000;stroke-width:1.06373;stroke-linecap:round;stroke-linejoin:round;stroke-miterlimit:10;stroke-dasharray:none;stroke-opacity:1" id="path912" sodipodi:nodetypes="ccccc" />
            </g>
         </g>
         <g id="g914" transform="matrix(1,0,0,-1,0,792)" style="stroke-width:0.813436">
            <g id="g916" style="stroke-width:0.813436">
               <path d="m 417.23062,92.845718 28.23782,0.699105" style="fill:none;stroke:#000000;stroke-width:1.06373;stroke-linecap:round;stroke-linejoin:round;stroke-miterlimit:10;stroke-dasharray:none;stroke-opacity:1" id="path918" sodipodi:nodetypes="cc" />
            </g>
         </g>
         <g id="g920" transform="matrix(1,0,0,-1,0,792)" style="stroke-width:0.813436">
            <g id="g922" style="stroke-width:0.813436">
               <path d="m 443.90695,149.25148 c 7.80149,1.36162 17.10773,1.53448 24.52029,0.25287" style="fill:none;stroke:#000000;stroke-width:1.06373;stroke-linecap:round;stroke-linejoin:round;stroke-miterlimit:10;stroke-dasharray:none;stroke-opacity:1" id="path924" sodipodi:nodetypes="cc" />
            </g>
         </g>
         <g id="g926" transform="matrix(1,0,0,-1,0,792)" style="stroke-width:0.813436">
            <g id="g928" style="stroke-width:0.813436">
               <path d="m 451.56528,142.5836 c -1.56318,-1.77263 -3.23403,-3.79272 -3.28657,-6.27705 0.0102,-1.11646 -0.11198,-2.26076 0.26587,-3.3411 0.73516,-2.42814 2.74228,-4.53591 5.23359,-5.13697 2.84029,-0.17516 5.7452,0.66438 8.03061,2.36567 1.84759,2.27677 2.99276,5.39886 2.1603,8.31169 -0.41521,2.33649 -1.39595,4.83664 -3.52949,6.10291 -1.48862,0.8384 -3.30155,0.77501 -4.93054,0.46832 -1.35515,-0.27288 -2.60285,-1.01824 -3.45267,-2.10949 -0.14886,-0.14685 -0.32212,-0.26216 -0.4911,-0.38398 z" style="fill:none;stroke:#000000;stroke-width:1.06373;stroke-linecap:round;stroke-linejoin:round;stroke-miterlimit:10;stroke-dasharray:none;stroke-opacity:1" id="path930" sodipodi:nodetypes="ccccccccccccccccccccccccccccccccccc" />
            </g>
         </g>
      </g>
   </g>
</svg>
