<?xml version="1.0" encoding="UTF-8" standalone="no"?>
<!-- Created by Ashley Blewer - This work is licensed under a Creative Commons Attribution 4.0 International License -->

<svg width="544" height="480" viewBox="0 0 143.93334 127" version="1.1" id="svg2490" inkscape:version="1.1.2 (08b2f3d93c, 2022-04-05)" sodipodi:docname="1995-dvcpro-4.svg"
   xmlns:inkscape="http://www.inkscape.org/namespaces/inkscape"
   xmlns:sodipodi="http://sodipodi.sourceforge.net/DTD/sodipodi-0.dtd"
   xmlns="http://www.w3.org/2000/svg"
   xmlns:svg="http://www.w3.org/2000/svg">
   <sodipodi:namedview id="namedview2492" pagecolor="#ffffff" bordercolor="#666666" borderopacity="1.0" inkscape:pageshadow="2" inkscape:pageopacity="0.0" inkscape:pagecheckerboard="0" inkscape:document-units="mm" showgrid="false" units="px" inkscape:zoom="0.90583674" inkscape:cx="279.29978" inkscape:cy="194.84747" inkscape:window-width="1848" inkscape:window-height="1136" inkscape:window-x="72" inkscape:window-y="27" inkscape:window-maximized="1" inkscape:current-layer="layer1" />
   <defs id="defs2487" />
   <g inkscape:label="Layer 1" inkscape:groupmode="layer" id="layer1">
      <g id="g1836" transform="matrix(0.26759535,0,0,-0.26759535,-171.07963,-105.64642)">
         <path d="m 687.891,-699.664 c -3.32756,4.20265 -6.39049,8.66187 -8.79848,13.44724 L 678.98,-685.781" style="fill:none;stroke:#000000;stroke-width:2.61538;stroke-linecap:round;stroke-linejoin:round;stroke-miterlimit:10;stroke-dasharray:none;stroke-opacity:1" id="path1838" />
      </g>
      <g id="g1840" transform="matrix(0.26759535,0,0,-0.26759535,-171.07963,-105.64642)">
         <path d="m 686.887,-696.211 c -1.44111,19.92279 -7.36664,39.15717 -9.8936,58.93585 -0.9394,6.25842 -2.62928,12.82656 -3.4774,18.81837" style="fill:none;stroke:#000000;stroke-width:2.61538;stroke-linecap:round;stroke-linejoin:round;stroke-miterlimit:10;stroke-dasharray:none;stroke-opacity:1" id="path1842" />
      </g>
      <g id="g1844" transform="matrix(0.26759535,0,0,-0.26759535,-171.07963,-105.64642)">
         <path d="m 672.691,-594.246 c 0.192,-5.316 1.477,-19.828 1.602,-23.375 -3.539,-0.5 -2.672,5.328 -3.867,7.73 -1.145,5.77 -2.336,11.532 -3.172,17.356 l -0.078,0.355" style="fill:none;stroke:#000000;stroke-width:2.61538;stroke-linecap:round;stroke-linejoin:round;stroke-miterlimit:10;stroke-dasharray:none;stroke-opacity:1" id="path1846" />
      </g>
      <g id="g1848" transform="matrix(0.26759535,0,0,-0.26759535,-171.07963,-105.64642)">
         <path d="m 663.273,-586.141 -0.003,0.008 0.003,0.016 -0.003,0.012 -0.004,0.015 -0.032,0.008 0.004,0.004 0.032,-0.016 0.035,-0.035 0.007,-0.039 0.008,-0.023 0.024,-0.016 0.09,-0.012 0.007,-0.008 -0.039,-0.023 0.008,-0.039 0.004,-0.031 v -0.032 l -0.09,-0.027 -0.035,-0.043 0.07,-0.031 0.016,-0.059 0.012,-0.054 0.011,-0.039 0.036,-0.055 0.019,-0.047 0.012,-0.043 0.023,-0.051 0.016,-0.07 0.008,-0.07 0.023,-0.067 -0.004,-0.047 0.016,-0.062 0.039,-0.043 -0.004,-0.055 0.023,-0.062 0.02,-0.055 0.059,-0.07 0.023,-0.086 -0.031,-0.067 0.031,-0.05 0.004,-0.067 0.019,-0.07 0.02,-0.082 -0.008,-0.078 0.016,-0.106 0.039,-0.082 0.027,-0.074 0.031,-0.059 0.016,-0.07 0.102,-0.078 0.062,-0.094 -0.027,-0.051 0.015,-0.058 0.02,-0.051 0.023,-0.07 -0.011,-0.067 -0.153,-0.05 -0.023,-0.09 0.141,-0.075 0.074,-0.066 0.066,-0.062 0.047,-0.04 0.094,-0.054 0.082,-0.039 v -0.043 l 0.051,-0.051 0.05,-0.047 0.039,-0.066 0.02,-0.082 0.062,-0.063 0.086,-0.078 0.02,-0.078 0.035,-0.082 0.031,-0.067 0.047,-0.082 0.059,-0.078 0.055,-0.07 0.023,-0.066 0.027,-0.075 0.043,-0.07 0.051,-0.062 -0.016,-0.079 0.067,-0.07 0.113,-0.047 0.047,-0.066 0.047,-0.074 0.039,-0.071 0.035,-0.078 -0.031,-0.066 0.012,-0.071 0.054,-0.058 0.031,-0.067 0.051,-0.066 0.035,-0.055 0.028,-0.054 0.015,-0.055 0.039,-0.07 0.047,-0.047 0.055,-0.07 0.039,-0.083 0.039,-0.05 0.078,-0.055 0.051,-0.062 0.031,-0.063 0.032,-0.051 0.035,-0.054 0.062,-0.071 0.067,-0.07 0.043,-0.078 0.074,-0.071 0.066,-0.031 0.047,-0.035 0.043,-0.047 0.051,-0.062 -0.051,-0.051 0.023,-0.047 0.125,-0.035 0.067,-0.067 0.074,-0.054 0.059,-0.059 0.066,-0.058 0.055,-0.047 0.054,-0.035 0.047,-0.036 0.035,-0.043 0.051,-0.05 0.035,-0.039 -0.043,-0.028 0.024,-0.035 0.094,-0.039 0.07,-0.062 0.055,-0.043 0.035,-0.028 0.152,-0.011 0.098,-0.04 -0.059,-0.015 0.012,-0.043 0.019,-0.024 0.032,-0.023 -0.012,-0.031 0.031,-0.012 0.059,-0.031 0.047,-0.055 0.043,-0.039 0.058,-0.059 v -0.011 l 0.035,-0.043 0.055,-0.032 0.043,-0.039 0.039,-0.05 0.035,-0.039 0.016,-0.016 0.055,-0.024 0.058,-0.031 0.024,-0.047 0.05,-0.05 0.024,-0.039 0.027,-0.036 0.012,-0.031 0.008,-0.031 0.035,-0.031 0.023,-0.036 0.032,-0.031 0.007,-0.031 -0.019,-0.012 0.004,-0.023 0.035,-0.02 0.031,-0.031 0.012,-0.02 0.031,-0.015 0.047,-0.02 -0.008,0.012 0.004,-0.004 v -0.035 l -0.004,-0.016 h -0.07 l -0.012,-0.027 0.067,-0.019 0.011,-0.02 0.012,-0.012 h 0.016" style="fill:none;stroke:#000000;stroke-width:2.61538;stroke-linecap:round;stroke-linejoin:round;stroke-miterlimit:10;stroke-dasharray:none;stroke-opacity:1" id="path1850" />
      </g>
      <g id="g1852" transform="matrix(0.26759535,0,0,-0.26759535,-171.07963,-105.64642)">
         <path d="m 664.172,-589.617 c 4.25865,-33.53631 9.11161,-67.00366 15.035,-100.289" style="fill:none;stroke:#000000;stroke-width:2.61538;stroke-linecap:round;stroke-linejoin:round;stroke-miterlimit:10;stroke-dasharray:none;stroke-opacity:1" id="path1854" />
      </g>
      <g id="g1856" transform="matrix(0.26759535,0,0,-0.26759535,-171.07963,-105.64642)">
         <path d="m 677.781,-671.855 c -0.0533,-0.80582 0.72629,-1.29719 0.84419,-2.19749 0.30216,-0.84206 0.64145,-1.71627 1.13868,-2.45582 0.57087,-0.89355 0.0879,-1.77473 -0.58786,-2.43054 -0.16282,-0.21856 -0.32741,-0.46979 -0.60194,-0.55712" style="fill:none;stroke:#000000;stroke-width:2.61538;stroke-linecap:round;stroke-linejoin:round;stroke-miterlimit:10;stroke-dasharray:none;stroke-opacity:1" id="path1858" />
      </g>
      <g id="g1860" transform="matrix(0.26759535,0,0,-0.26759535,-171.07963,-105.64642)">
         <path d="m 658.402,-554.258 c 1.84448,-4.96644 1.3092,-10.38569 2.49385,-15.49729 0.5239,-3.3932 0.35735,-6.90097 1.37489,-10.21483 0.40263,-2.15445 1.25786,-5.95151 1.52626,-8.11988" style="fill:none;stroke:#000000;stroke-width:2.61538;stroke-linecap:round;stroke-linejoin:round;stroke-miterlimit:10;stroke-dasharray:none;stroke-opacity:1" id="path1862" sodipodi:nodetypes="cccc" />
      </g>
      <g id="g1864" transform="matrix(0.26759535,0,0,-0.26759535,-171.07963,-105.64642)">
         <path d="m 659.504,-554.188 c 0.484,-0.203 -0.672,0.161 0.293,0.086 1.949,0.575 5.246,0.645 6.996,1.192 3.324,0.707 6.602,0.66 9.652,1.531 1.813,0.184 4.625,0.984 5.813,0.918 0.066,-0.012 2.621,0.836 2.601,0.801" style="fill:none;stroke:#000000;stroke-width:2.61538;stroke-linecap:round;stroke-linejoin:round;stroke-miterlimit:10;stroke-dasharray:none;stroke-opacity:1" id="path1866" />
      </g>
      <g id="g1868" transform="matrix(0.26759535,0,0,-0.26759535,-171.07963,-105.64642)">
         <path d="m 659.055,-553.883 c 64.91,11.582 166.519,26.828 214.316,35.071 0.809,0.218 1.817,0.359 2.395,0.519 0.82,0.305 1.839,0.231 1.992,0.395 -0.449,-0.004 0.113,-0.086 0.172,0.039 -0.2,-0.071 -0.168,0.035 0.019,-0.133 -0.133,0.168 -0.14,0.008 -0.004,-0.028 0.078,0.09 0.684,-0.894 0.36,-0.437 0.547,-0.691 -0.18,-0.168 0.55,-0.383 0.856,-0.137 2.016,0.27 3.129,0.402 0.727,-0.046 1.954,0.293 2.184,0.645 0.332,0.031 0.719,0.777 1.57,0.676 -0.761,0.015 1.375,0.39 0.899,0.336 0.363,-0.371 0.906,-0.114 1.742,-0.813 3.859,-2.707 7.133,-4.918 8.695,-7.988 -0.121,-0.395 0.473,-0.48 0.059,-0.313 0.012,-0.023 0.183,0.024 0.015,-0.039 0.161,-0.925 0.114,-0.621 0.176,-1.746 0.379,-5.976 0.039,-11.699 1.235,-17.078 -0.051,0.141 -0.032,0.043 -0.149,-0.57 0.11,-0.172 -0.004,-0.172 -0.121,-0.137" style="fill:none;stroke:#000000;stroke-width:2.61538;stroke-linecap:round;stroke-linejoin:round;stroke-miterlimit:10;stroke-dasharray:none;stroke-opacity:1" id="path1870" />
      </g>
      <g id="g1872" transform="matrix(0.26759535,0,0,-0.26759535,-171.07963,-105.64642)">
         <path d="m 670.148,-567.379 c 75.047,14.813 161.754,27.313 226.875,40.047" style="fill:none;stroke:#000000;stroke-width:2.61538;stroke-linecap:round;stroke-linejoin:round;stroke-miterlimit:10;stroke-dasharray:none;stroke-opacity:1" id="path1874" />
      </g>
      <g id="g1876" transform="matrix(0.26759535,0,0,-0.26759535,-171.07963,-105.64642)">
         <path d="m 658.465,-554.57 c 0.992,-0.731 3.828,-4.508 5.113,-5.375 1.18,-0.52 1.926,-1.801 2.524,-1.766" style="fill:none;stroke:#000000;stroke-width:2.61538;stroke-linecap:round;stroke-linejoin:round;stroke-miterlimit:10;stroke-dasharray:none;stroke-opacity:1" id="path1878" />
      </g>
      <g id="g1880" transform="matrix(0.26759535,0,0,-0.26759535,-171.07963,-105.64642)">
         <path d="m 666.102,-561.711 c 1.536,-2.574 1.531,-10.375 2.433,-13.16 0.817,-4.43 0.621,-8.965 1.129,-13.434 0.082,-1.242 0.09,-2.547 0.676,-3.679" style="fill:none;stroke:#000000;stroke-width:2.61538;stroke-linecap:round;stroke-linejoin:round;stroke-miterlimit:10;stroke-dasharray:none;stroke-opacity:1" id="path1882" sodipodi:nodetypes="cccc" />
      </g>
      <g id="g1884" transform="matrix(0.26759535,0,0,-0.26759535,-171.07963,-105.64642)">
         <path d="m 663.707,-587.488 c 18.918,4.344 96.426,14.238 142.195,21.363 1.203,0.348 2.368,1.031 3.672,0.875" style="fill:none;stroke:#000000;stroke-width:2.61538;stroke-linecap:round;stroke-linejoin:round;stroke-miterlimit:10;stroke-dasharray:none;stroke-opacity:1" id="path1886" sodipodi:nodetypes="ccc" />
      </g>
      <g id="g1888" transform="matrix(0.26759535,0,0,-0.26759535,-171.07963,-105.64642)">
         <path d="m 809.816,-562.395 c -0.023,-1.156 0.477,-2.195 0.227,-2.816 0.715,-1.375 -0.055,-2.805 0.645,-4.137 0.324,-1.398 -0.165,-2.816 -0.028,-4.234 -0.008,-1.121 -0.367,-13.641 -0.437,-14.762" style="fill:none;stroke:#000000;stroke-width:2.61538;stroke-linecap:round;stroke-linejoin:round;stroke-miterlimit:10;stroke-dasharray:none;stroke-opacity:1" id="path1890" />
      </g>
      <g id="g1892" transform="matrix(0.26759535,0,0,-0.26759535,-171.07963,-105.64642)">
         <path d="m 809.816,-562.395 c 0,0 70.95812,11.51024 105.51428,18.19516 32.1872,5.90471 64.30415,12.23251 96.20072,19.55884 3.197,-7.29875 8.7343,4.83709 13.6961,-2.29924 12.9581,-2.89857 9.7854,-17.354 9.2817,-27.21371 -0.5882,-0.59979 -0.3471,-4.66297 -1.1928,-4.02205" style="fill:none;stroke:#000000;stroke-width:2.61538;stroke-linecap:round;stroke-linejoin:round;stroke-miterlimit:10;stroke-dasharray:none;stroke-opacity:1" id="path1894" sodipodi:nodetypes="cccccc" />
      </g>
      <g id="g1896" transform="matrix(0.26759535,0,0,-0.26759535,-171.07963,-105.64642)">
         <path d="m 809.613,-589.973 c 0.121,0.422 0.403,-1.164 0.727,-1.371 0.531,-1.215 0.476,-2.601 1.113,-3.769 0.242,-1.137 0.957,-2.047 1.164,-3.039 0.926,-1.168 1.91,-2.379 3.215,-3.032 1.047,-0.175 2.082,-0.695 2.379,0.071 0.176,0.945 -0.051,2.586 0.437,3.726 0.079,0.524 0.082,0.5 -0.136,1.114 0.289,-0.059 -0.078,-0.356 0.047,0.382" style="fill:none;stroke:#000000;stroke-width:2.61538;stroke-linecap:round;stroke-linejoin:round;stroke-miterlimit:10;stroke-dasharray:none;stroke-opacity:1" id="path1898" />
      </g>
      <g id="g1900" transform="matrix(0.26759535,0,0,-0.26759535,-171.07963,-105.64642)">
         <path d="m 813.766,-592.016 0.023,0.008 0.035,0.024 0.063,0.015 0.066,0.016 0.055,0.015 0.086,0.059 0.031,0.063 -0.02,0.015 0.012,-0.008 -0.019,0.012 0.05,0.008 v -0.004 h -0.039 l -0.004,0.012 -0.007,-0.02 -0.008,0.031 -0.012,-0.007 -0.027,0.007 -0.004,-0.019 -0.008,-0.016 -0.008,0.004 -0.019,-0.023 0.027,-0.012 -0.023,0.008 -0.063,-0.024 h 0.02 l -0.004,-0.007 -0.004,0.015 -0.004,0.02 -0.094,-0.016 -0.078,-0.012 0.059,0.012 -0.012,0.008 0.012,0.004 -0.016,0.008 -0.094,0.004 -0.008,0.023 0.04,0.016 0.015,0.027 0.012,0.016 0.008,0.007 0.136,-0.003 0.094,0.023 -0.078,0.004 -0.039,0.004 0.012,0.004 -0.082,-0.008 -0.118,-0.004 h -0.011 l 0.031,0.008 0.016,0.008 0.015,0.019 0.008,-0.004 0.035,0.008 0.016,0.02 -0.047,-0.004 -0.039,-0.004 -0.031,0.027 -0.028,0.027 -0.054,0.028 -0.028,0.031 -0.004,0.047 -0.043,0.039 -0.031,0.055 -0.019,0.066 -0.036,0.031 -0.027,0.035 -0.012,0.059 -0.027,0.047 -0.023,0.051 -0.028,0.043 -0.093,0.054 -0.036,0.067 0.024,0.058 v 0.059 l -0.008,0.074 -0.023,0.055 -0.055,0.047 0.035,0.054 0.047,0.059 -0.027,0.039 -0.012,0.051 -0.027,0.062 0.015,0.055 -0.09,0.055 -0.058,0.051 0.062,0.027 0.039,0.035 0.02,0.02 0.019,0.015 0.047,0.039 0.047,0.012 -0.008,0.023 0.02,0.004 0.023,-0.007 0.004,0.027 0.031,0.004 0.02,0.015 -0.004,-0.019 v -0.016 l -0.004,-0.004 -0.004,-0.015 -0.035,-0.028 -0.125,-0.015 -0.008,-0.02 0.071,-0.027 h 0.015 l 0.02,-0.008 0.023,-0.004 0.129,-0.019 0.063,-0.004 -0.055,0.007 -0.02,0.008 -0.019,0.012 -0.02,0.016 -0.047,-0.008 -0.027,-0.008 0.023,0.016 h -0.027 l 0.024,0.007 0.003,-0.015 v 0.004 h 0.004 l 0.008,0.011 -0.019,-0.003 0.004,-0.02 0.003,-0.012 v -0.004 l -0.043,0.008 0.012,0.004 h 0.055 l 0.012,0.008 0.007,0.016 0.004,0.015 0.032,0.004 0.058,-0.004 -0.012,-0.015 -0.031,-0.004 h -0.004 l -0.007,-0.008 0.003,-0.008 h -0.121 l -0.039,-0.023 0.098,-0.024 0.059,-0.043 0.054,-0.058 0.055,-0.032 0.109,-0.039 0.149,-0.039 0.039,-0.078 v -0.078 l 0.047,-0.07 0.035,-0.071 0.019,-0.078 -0.097,-0.054 0.004,-0.059 0.109,-0.07 0.051,-0.118 0.027,-0.089 0.027,-0.047 0.016,-0.055 -0.055,-0.055 v -0.066 l 0.075,-0.07 0.043,-0.078 0.043,-0.051 0.015,-0.039 0.102,-0.036 0.062,-0.058 -0.043,-0.024 -0.004,-0.031 v -0.015 l -0.004,-0.028 -0.043,-0.047 -0.066,-0.023 -0.016,-0.008 0.02,-0.019 -0.008,-0.032 -0.012,-0.007 0.067,-0.016 0.023,-0.016 -0.07,-0.008 -0.02,-0.015 -0.023,0.004 -0.023,-0.004 -0.032,-0.016 0.004,-0.008 h 0.016 -0.035 l -0.032,-0.019" style="fill:none;stroke:#000000;stroke-width:2.61538;stroke-linecap:round;stroke-linejoin:round;stroke-miterlimit:10;stroke-dasharray:none;stroke-opacity:1" id="path1902" />
      </g>
      <g id="g1904" transform="matrix(0.26759535,0,0,-0.26759535,-171.07963,-105.64642)">
         <path d="m 818.672,-600.145 c 1.332,-0.953 3.269,-0.917 4.269,-2.355 0.711,-0.672 1.719,0.348 1.145,1.078 0.129,4.625 -0.871,17.75 -0.949,22.293" style="fill:none;stroke:#000000;stroke-width:2.61538;stroke-linecap:round;stroke-linejoin:round;stroke-miterlimit:10;stroke-dasharray:none;stroke-opacity:1" id="path1906" />
      </g>
      <g id="g1908" transform="matrix(0.26759535,0,0,-0.26759535,-171.07963,-105.64642)">
         <path d="m 817.66,-575.215 c 0.785,-4.765 1.735,-9.508 2.477,-14.281" style="fill:none;stroke:#000000;stroke-width:2.61538;stroke-linecap:round;stroke-linejoin:round;stroke-miterlimit:10;stroke-dasharray:none;stroke-opacity:1" id="path1910" />
      </g>
      <g id="g1912" transform="matrix(0.26759535,0,0,-0.26759535,-171.07963,-105.64642)">
         <path d="m 817.664,-574.715 0.016,0.004 0.125,0.004 0.136,-0.023 0.325,0.007 0.336,0.035 -0.04,-0.003 h -0.05 l 0.058,0.019 0.043,0.008 0.012,0.031 -0.145,0.004 -0.023,0.016 0.109,-0.016 0.043,0.031 0.059,0.024 0.039,0.031 0.125,0.035 0.02,0.051 -0.04,0.027 0.075,0.02 0.062,0.035 0.028,0.027 0.031,0.024 0.051,0.051 0.035,0.043 0.027,0.039 0.039,0.015 0.047,0.012 0.051,0.019 0.039,0.024 0.012,0.031 0.043,0.039 0.066,0.031 0.043,0.032 0.062,0.043 0.063,0.05 0.094,0.059 0.082,0.043 v 0.023 l 0.047,0.043 0.062,0.039 0.07,0.032 0.098,0.023 0.106,0.051 0.046,0.047 0.051,0.015 0.043,0.028 0.067,0.035 0.05,0.035 0.055,0.031 0.07,0.024 0.067,0.031 0.058,0.008 0.043,0.023 0.055,0.024 0.02,0.031 0.058,0.004 0.102,0.016 0.062,0.027 0.043,0.023 0.039,0.008 h 0.125 l 0.153,-0.004 h 0.003 l -0.046,0.016 -0.008,0.004 h -0.137 l -0.07,-0.032 h 0.094 l 0.05,-0.003 0.016,-0.02 0.019,0.004 0.125,0.016 0.114,0.003 -0.071,-0.007" style="fill:none;stroke:#000000;stroke-width:2.61538;stroke-linecap:round;stroke-linejoin:round;stroke-miterlimit:10;stroke-dasharray:none;stroke-opacity:1" id="path1914" />
      </g>
      <g id="g1916" transform="matrix(0.26759535,0,0,-0.26759535,-171.07963,-105.64642)">
         <path d="m 811.473,-569.117 0.011,-0.012 0.028,-0.023 0.05,-0.032 0.079,-0.039 0.074,-0.047 0.043,-0.027 0.187,0.004 v -0.012 l -0.101,-0.023 0.066,0.004 0.035,0.004 v 0.023 l 0.086,0.016 0.055,0.011 0.012,0.004 0.035,-0.011 0.039,-0.016 0.055,-0.008 0.085,-0.054 0.059,-0.043 0.027,-0.02 0.04,-0.027 0.066,-0.032 0.066,-0.054 -0.008,-0.039 0.02,-0.055 0.106,-0.059 0.101,-0.07 0.106,-0.074 0.093,-0.067 0.098,-0.07 0.082,-0.113 0.129,-0.106 0.109,-0.105 0.071,-0.106 0.105,-0.101 0.113,-0.106 0.035,-0.121 0.079,-0.109 0.148,-0.113 0.102,-0.149 0.105,-0.136 0.094,-0.125 0.109,-0.125 0.012,-0.114 0.078,-0.148 0.184,-0.145 0.136,-0.136 0.114,-0.125 0.113,-0.149 0.191,-0.129 0.293,-0.129 0.129,-0.179 0.008,-0.125 0.086,-0.118 0.082,-0.132 0.082,-0.145 -0.027,-0.125 0.023,-0.105 0.129,-0.09 0.109,-0.117 0.098,-0.094 0.051,-0.078 0.176,-0.075 0.132,-0.07 -0.035,-0.078 0.016,-0.094 0.015,-0.043 0.008,-0.043 0.028,-0.046 -0.024,-0.047 0.004,-0.032 0.031,-0.031 0.02,-0.043 0.039,-0.031 0.027,-0.02 0.071,-0.035 -0.024,-0.023 -0.047,0.008 0.012,-0.008 v 0.047 l 0.086,-0.008 -0.016,-0.02 0.028,-0.007" style="fill:none;stroke:#000000;stroke-width:2.61538;stroke-linecap:round;stroke-linejoin:round;stroke-miterlimit:10;stroke-dasharray:none;stroke-opacity:1" id="path1918" />
      </g>
      <g id="g1920" transform="matrix(0.26759535,0,0,-0.26759535,-171.07963,-105.64642)">
         <path d="m 821.867,-573.461 c 0.914,-0.851 3.457,-4.168 4.496,-4.922" style="fill:none;stroke:#000000;stroke-width:2.61538;stroke-linecap:round;stroke-linejoin:round;stroke-miterlimit:10;stroke-dasharray:none;stroke-opacity:1" id="path1922" />
      </g>
      <g id="g1924" transform="matrix(0.26759535,0,0,-0.26759535,-171.07963,-105.64642)">
         <path d="m 826.828,-578.867 c 19.121,4.094 161.305,30.008 203.274,40.179 0.765,0.016 1.535,0.032 2.3,0.047" style="fill:none;stroke:#000000;stroke-width:2.61538;stroke-linecap:round;stroke-linejoin:round;stroke-miterlimit:10;stroke-dasharray:none;stroke-opacity:1" id="path1926" />
      </g>
      <g id="g1928" transform="matrix(0.26759535,0,0,-0.26759535,-171.07963,-105.64642)">
         <path d="m 826.895,-601.324 c 68.437,15.39 137.203,29.418 206.453,40.652" style="fill:none;stroke:#000000;stroke-width:2.61538;stroke-linecap:round;stroke-linejoin:round;stroke-miterlimit:10;stroke-dasharray:none;stroke-opacity:1" id="path1930" />
      </g>
      <g id="g1932" transform="matrix(0.26759535,0,0,-0.26759535,-171.07963,-105.64642)">
         <path d="m 963.781,-578.344 h 0.016 l 0.023,-0.015 -0.008,-0.012 0.008,-0.016 v -0.008 h -0.004 l 0.004,0.008 -0.004,0.004 0.012,0.02 -0.004,-0.008 h 0.008 l 0.004,0.016 h 0.008 -0.028 l -0.039,-0.004 0.059,0.004 0.016,-0.008 0.007,0.008 0.008,-0.004 -0.066,-0.004 -0.059,-0.004 0.051,-0.012 0.031,0.012 0.043,-0.008 0.051,-0.004 h 0.059 l 0.039,-0.012 0.062,-0.023 0.063,-0.027 0.089,-0.02 0.086,-0.012 0.082,-0.023 0.028,-0.012 0.039,-0.027 0.058,-0.008 0.067,-0.027 0.078,-0.035 0.062,-0.012 0.043,-0.004 -0.046,-0.016 0.035,-0.031 0.113,-0.012 0.082,-0.027 0.078,-0.031 0.059,-0.008 0.207,-0.02 0.156,-0.007 -0.066,-0.016 0.039,-0.031 0.054,-0.008 h 0.036 l 0.015,-0.027 0.043,-0.059 0.078,-0.024 0.063,-0.015 0.058,-0.031 0.028,-0.028 0.187,-0.023 0.164,-0.008 -0.035,-0.016 0.055,-0.031 0.043,-0.008 0.07,-0.004 0.109,-0.019 0.141,-0.02 0.117,-0.007 h 0.074 l 0.086,-0.016 0.106,-0.02 0.121,-0.007 0.019,-0.004 0.075,-0.008 0.136,-0.016 0.106,-0.011 h 0.215 l 0.094,0.003 0.113,0.008 0.133,0.004 0.121,0.004 0.101,0.004 0.114,0.004 0.136,0.004 h 0.114 l 0.089,0.004 0.114,-0.012 0.242,-0.008 0.101,-0.019 -0.011,-0.008 0.062,-0.028 0.176,-0.011 0.164,0.011 0.168,-0.023 0.117,-0.008 0.137,-0.004 0.082,-0.019 0.078,-0.024 0.121,-0.011 0.11,-0.008 0.101,-0.004 0.09,0.012 0.156,-0.012 0.149,-0.004 0.023,0.004 h 0.055 l 0.07,-0.004 h 0.082 l 0.102,0.004 0.035,0.004 0.066,-0.016 h 0.141 l 0.144,-0.004 h 0.204 l 0.316,-0.004 h 0.246 l -0.07,0.008 0.07,0.012 0.078,0.004 0.059,0.035 0.031,0.031 0.039,0.008 0.086,0.008 0.062,0.027 0.055,0.028 0.051,0.015 0.082,0.008 0.027,0.035 0.043,0.008 0.082,0.035 0.082,0.031 0.051,0.036 0.055,0.027 0.074,0.031 0.082,0.035 0.082,0.031 0.074,0.051 0.071,0.039 0.082,0.051 0.09,0.043 0.015,0.043 0.051,0.051 0.09,0.035 0.07,0.059 0.059,0.035 0.062,0.035 0.027,0.058 0.032,0.067 0.082,0.047 0.066,0.043 0.039,0.035 0.035,0.043 0.032,0.058 0.078,0.02 0.047,0.055 0.023,0.035 0.024,0.023 0.007,0.035 0.004,0.043 0.012,0.028 -0.004,0.035 -0.004,0.023 0.004,0.024 -0.004,0.031 -0.004,0.035 0.039,0.031 -0.015,0.036 -0.047,0.027 0.019,0.027 -0.004,0.039 -0.007,0.032 -0.016,0.035 0.109,0.027 0.043,-0.004 -0.07,0.039 -0.039,0.047 -0.035,0.035 -0.039,0.043 -0.031,0.074 -0.106,0.059 -0.105,0.07 -0.016,0.051 -0.031,0.067 -0.032,0.043 -0.062,0.054 0.004,0.086 -0.008,0.074 -0.094,0.067 -0.07,0.086 -0.063,0.062 -0.054,0.059 -0.094,0.058 -0.062,0.051 -0.004,0.035 -0.039,0.012 -0.024,0.031 -0.008,0.032 -0.035,0.043 -0.07,0.023 -0.024,0.051 0.008,0.043 -0.015,0.031 -0.043,0.027 -0.039,0.032 -0.012,0.031 -0.004,0.035 -0.016,0.047 -0.035,0.035 -0.062,0.031 -0.047,0.039 -0.035,0.032 0.035,0.011 -0.008,0.028 -0.074,0.015 -0.051,0.051 -0.051,0.039 -0.008,0.004 -0.054,-0.012 -0.035,-0.004 v 0.004 l 0.003,0.004 0.008,0.02 0.004,0.004 0.035,0.011 0.043,0.02 -0.019,0.027 -0.071,0.028 -0.066,0.015 -0.02,0.051 -0.031,0.039 -0.062,0.039 -0.02,0.027 -0.011,0.032 -0.02,0.011 -0.012,0.02 0.055,0.023 -0.051,0.016 -0.109,0.004 -0.016,0.031 -0.031,0.047 -0.027,0.023 -0.114,0.028 0.055,0.015 0.102,0.016 -0.094,0.031 -0.043,0.012 0.004,0.008 -0.008,0.008 h 0.004 l -0.012,-0.004 v -0.012 l 0.016,0.008 0.015,-0.07 0.004,-0.008 0.02,0.011 -0.008,-0.027 0.047,-0.004 -0.016,0.043 h 0.043 l 0.012,-0.023 0.012,-0.012 v -0.004 0.008 l -0.012,-0.004 0.008,0.008 0.004,-0.012 0.004,-0.004 -0.004,-0.004 0.011,-0.019 -0.027,-0.008 -0.016,0.016 h 0.012 l 0.004,0.019 v 0.016 l 0.031,-0.012 0.16,-0.012 0.004,-0.008 -0.101,0.012 -0.02,-0.004 -0.008,0.004 -0.007,-0.012 -0.121,-0.019 -0.047,0.019 0.062,-0.003 0.012,-0.008 h 0.019 l 0.016,0.019 0.105,-0.023 0.024,-0.008 -0.07,0.008 0.019,0.012 h 0.008 l 0.012,-0.004 -0.004,0.007 -0.012,0.02 -0.012,-0.004 0.02,-0.008 -0.004,-0.011 0.019,-0.004 v 0.019 l 0.016,0.004 -0.027,-0.012 -0.035,-0.004 h -0.012 v 0.012 -0.004 l 0.019,-0.004 0.047,-0.011 0.051,-0.008 h -0.008 l -0.011,0.008 -0.008,-0.008 0.019,0.004 h 0.016 -0.012 l -0.015,-0.008 -0.012,-0.02 -0.031,0.004 -0.032,0.028 -0.011,0.004 h -0.004 0.007 l 0.02,-0.02 0.051,0.008 h 0.023 -0.023 l -0.016,-0.016 0.008,-0.004 v -0.015 l 0.047,0.011 0.152,-0.007 h -0.129 l -0.019,0.019 -0.016,0.02 -0.09,-0.016 -0.086,-0.008 0.047,-0.008 h 0.008 l -0.004,-0.011 0.117,-0.024 0.157,-0.015 -0.071,-0.004 -0.093,-0.012 0.015,0.004 -0.019,0.039 -0.012,0.016 -0.199,0.003 -0.149,-0.023 0.125,-0.012 0.016,0.039 0.051,-0.027 0.043,-0.004 h 0.058 l -0.015,0.012 -0.024,-0.024 h 0.07 l 0.016,-0.019 -0.008,0.023 -0.011,0.012 0.035,-0.008 h 0.039 -0.039 l -0.004,-0.027 -0.004,0.004 -0.004,-0.004 0.027,0.016 0.004,0.007 -0.015,0.004 -0.016,-0.004 -0.008,-0.004 0.016,-0.003 -0.039,-0.004 -0.032,-0.004 h -0.015 l 0.004,0.004 0.011,-0.004 0.012,0.015 0.012,-0.004 h 0.039 l 0.031,0.004 0.012,-0.007 0.004,0.003 0.039,-0.003 0.121,-0.008 0.152,-0.008 0.145,-0.004 0.152,-0.004 0.157,-0.004 h 0.5 l 0.113,0.016 0.14,0.023 0.137,0.031 0.133,0.032 0.137,0.051 0.164,0.027 0.265,0.016 0.188,0.039 0.051,0.054 0.101,0.051 0.137,0.063 0.164,0.043 -0.102,0.031 0.055,0.062 0.277,0.024 0.204,0.039 0.144,0.066 0.125,0.043 0.191,0.039 0.223,0.055 0.16,0.066 0.114,0.043 0.117,0.051 0.136,0.074 0.129,0.047 -0.027,0.027 0.078,0.043 0.227,0.04 0.164,0.062 0.109,0.035 0.11,0.031 0.148,0.047 0.102,0.059 0.113,0.055 0.156,0.035 0.129,0.039 0.117,0.043 0.102,0.051 0.172,0.035 0.117,0.015 0.051,0.032 0.066,0.035 0.098,0.031 0.089,0.027 0.133,0.039 0.141,0.016 0.027,0.035 0.086,0.008 0.125,0.016 0.121,-0.02 0.094,0.012 0.082,0.012 0.117,0.019 0.164,0.004 0.149,-0.004 h 0.133 l 0.16,0.012 0.191,0.004 0.184,-0.02 0.125,0.016 h 0.297 l 0.171,-0.004 h 0.461 l 0.09,0.023 0.098,0.004 0.113,0.004 0.125,0.004 -0.015,0.008 0.05,-0.008 0.168,-0.012 0.145,0.004 0.133,0.012 0.113,0.008 0.141,-0.004 0.195,0.015 0.129,0.051 0.027,0.016 0.055,0.015 0.062,0.008 0.016,0.012 -0.172,0.008 -0.031,0.012 0.168,-0.032 0.066,0.004 0.039,0.012 0.106,-0.008 0.101,0.043 h -0.039 l -0.015,-0.023 -0.004,-0.02 -0.012,0.035 -0.016,0.035 0.008,-0.019 -0.019,0.004 h -0.043 l 0.015,-0.004 -0.023,0.023 -0.059,-0.011 0.004,-0.008 0.02,-0.004 -0.012,-0.016 h -0.027 l 0.019,-0.004 h 0.024 l -0.004,-0.007 v -0.012 0.019 l 0.035,-0.004 0.023,0.02 h -0.015 v -0.008 h -0.004 v 0.008 l -0.11,0.008 -0.078,-0.012 0.075,-0.004 h 0.078 l 0.023,-0.019 0.016,-0.016 0.015,0.008 0.012,-0.004 0.008,0.016 0.008,0.007 0.019,0.008 -0.008,-0.008 -0.007,0.004 -0.012,0.012 0.004,0.008 0.09,0.015 0.062,0.012 0.047,0.024 0.059,0.011 0.007,0.016 -0.129,0.039 0.04,0.008 0.152,-0.012 0.058,0.043 0.051,0.016 0.067,0.011 0.121,0.008 0.129,0.035 0.007,0.012 -0.019,0.004 0.031,0.012 0.024,0.023 0.047,-0.008 h -0.032 l -0.074,0.016 0.02,-0.004 -0.012,0.023 -0.008,0.004 0.035,-0.019 0.008,-0.024 -0.039,-0.011 -0.016,-0.016 -0.015,-0.012 -0.012,0.016 -0.012,0.012 v -0.008 l 0.008,-0.004 -0.039,-0.008 -0.012,0.004 -0.008,0.004 v -0.012 l -0.023,0.004 v 0.031 -0.011 l -0.055,-0.012 -0.004,-0.008 0.032,-0.012 0.011,0.008 0.016,0.008 0.012,0.004 0.082,-0.008 0.043,-0.019 h -0.043 l -0.004,-0.008 v 0.008 l -0.004,-0.012 -0.141,0.012 -0.168,0.004 0.055,-0.016 0.102,-0.008 0.019,0.043 0.024,-0.035 0.011,-0.012 0.032,-0.004 0.023,0.004 0.02,-0.004 0.011,0.012 0.004,0.012 0.004,0.004 0.055,-0.008 -0.012,-0.02 v -0.019 l -0.004,-0.004 -0.008,-0.004 -0.035,0.016 -0.012,-0.004 0.024,-0.024 -0.031,-0.012 0.019,0.012 v 0.016 h 0.055 -0.059 l -0.008,0.004 0.004,0.008 0.008,0.007 -0.023,-0.015 -0.024,0.004 h -0.004 0.012 l 0.008,-0.008 -0.078,-0.008 -0.039,-0.016 0.074,0.012 0.019,-0.031 h -0.011 0.008 l 0.019,0.004 0.02,0.019 h 0.035 l 0.011,0.016 0.016,-0.012 0.035,-0.004 0.028,0.008 0.004,-0.004 -0.008,0.008 -0.008,0.004 h -0.008 l -0.051,-0.004 -0.136,-0.004 0.015,-0.023 0.145,-0.059 0.129,-0.113 0.148,-0.117 0.137,-0.102 0.281,-0.094 0.223,-0.125 v -0.086 l 0.066,-0.105 0.051,-0.094 0.055,-0.055 0.046,-0.054 -0.003,-0.071 0.05,-0.05 0.047,-0.035 0.031,-0.036 0.04,-0.058 0.058,-0.012 0.078,-0.004 0.028,-0.019 -0.032,-0.02 v -0.031 l 0.016,-0.02 -0.004,-0.007 0.102,-0.016 0.117,-0.035 -0.039,-0.004 -0.031,-0.02 -0.012,0.008 h -0.008 l 0.012,-0.016 -0.055,0.004 -0.023,-0.023 0.035,-0.016 0.031,-0.004 0.012,-0.027 0.023,-0.023 -0.012,-0.02 0.02,-0.004 0.031,-0.015 0.02,-0.016 0.019,-0.008 0.012,-0.004 0.066,-0.031 -0.019,-0.016 -0.043,0.024 0.008,-0.012 0.004,0.012 0.003,-0.016 v 0.031 l -0.035,-0.003 -0.023,-0.004 0.039,-0.016 0.012,0.012 h 0.011 l 0.008,-0.004 h -0.054 v -0.028 l 0.042,-0.007 0.012,-0.016 0.031,-0.027 -0.007,-0.004 0.129,-0.028 0.097,-0.031 -0.07,-0.039 -0.02,-0.055 0.012,-0.054 0.008,-0.043 v -0.055 l -0.113,-0.07 -0.012,-0.082 0.109,-0.039 0.063,-0.028 0.023,-0.054 -0.023,-0.02 0.203,-0.027 0.16,-0.031 -0.121,0.011 -0.063,0.035 -0.062,0.047 -0.012,0.031 0.004,0.016 -0.019,0.02 -0.028,0.004 -0.011,0.011 -0.008,0.028 -0.02,0.004 0.031,0.011 0.028,0.004 -0.059,0.008 0.004,-0.004 -0.016,0.016 0.012,-0.004 -0.019,0.035 -0.043,-0.043 0.035,-0.004 -0.02,0.031 -0.004,-0.035 0.036,-0.008 v -0.004 l -0.008,-0.007 v 0.019 l 0.004,-0.008 -0.024,-0.007 -0.035,0.007 0.024,-0.004 h 0.007 l -0.004,-0.003 -0.003,-0.008 0.082,-0.024 0.105,-0.011 h -0.062 l -0.059,-0.008 0.016,0.004 -0.012,0.039 -0.035,-0.016 h -0.039 0.031 -0.016 l -0.004,-0.008 -0.007,0.047 0.062,-0.008 -0.043,0.008 -0.09,0.004 0.063,-0.019 0.008,-0.008 0.007,0.027 0.004,0.016 0.141,-0.039 0.078,-0.012 -0.094,0.012 -0.019,-0.028 0.004,0.024 h -0.051 l -0.035,-0.008 v -0.004 h -0.016 l 0.004,-0.004 0.004,0.008 0.113,-0.012 h 0.039 l -0.097,0.016 -0.016,0.008 -0.012,0.004 0.004,-0.004 -0.016,-0.004 -0.015,-0.012 0.019,-0.012 -0.039,-0.008 -0.035,-0.003 h -0.012 l -0.007,0.007 0.015,-0.007 0.024,-0.028 -0.012,-0.008 0.012,-0.004 0.008,0.012" style="fill:none;stroke:#000000;stroke-width:2.61538;stroke-linecap:round;stroke-linejoin:round;stroke-miterlimit:10;stroke-dasharray:none;stroke-opacity:1" id="path1934" />
      </g>
      <g id="g1936" transform="matrix(0.26759535,0,0,-0.26759535,-171.07963,-105.64642)">
         <path d="m 986.191,-573.887 c 13.473,3.914 111.844,25.778 161.067,35.125 6.683,-1.718 0.699,4.61 3.949,1.817 5.004,-3.485 11.367,-5.555 15.609,-9.844 -0.07,-6.809 0.61,-18.309 -4.015,-22.262 l -0.125,0.09" style="fill:none;stroke:#000000;stroke-width:2.61538;stroke-linecap:round;stroke-linejoin:round;stroke-miterlimit:10;stroke-dasharray:none;stroke-opacity:1" id="path1938" />
      </g>
      <g id="g1940" transform="matrix(0.26759535,0,0,-0.26759535,-171.07963,-105.64642)">
         <path d="m 963.809,-580.699 c 3.546,-1.86 6.953,-3.985 10.082,-6.481 2.918,-1.113 4.039,-3.8 3.601,-6.679 -0.019,-3.801 0.699,-7.528 1.238,-11.27 0.344,-3.047 0.223,-6.125 0.883,-9.137 0.418,-5.3 -0.031,-10.625 -0.304,-15.922 -0.118,-2.843 0.164,-5.761 -0.426,-8.55 -1.242,-1.891 -0.996,-6.321 -4.02,-5.785 -3.113,0.41 -2.515,3.878 -2.14,6.093 0.273,4.516 0.441,9.035 0.91,13.532 0.582,2.898 -3.742,3.367 -3.41,6.062 2.304,0.274 4.742,-0.824 7.054,-1.258 0.289,0.071 1.133,-0.519 0.407,0.032" style="fill:none;stroke:#000000;stroke-width:2.61538;stroke-linecap:round;stroke-linejoin:round;stroke-miterlimit:10;stroke-dasharray:none;stroke-opacity:1" id="path1942" />
      </g>
      <g id="g1944" transform="matrix(0.26759535,0,0,-0.26759535,-171.07963,-105.64642)">
         <path d="m 973.66,-588.234 c -0.039,-9.95 0.637,-19.899 0.141,-29.844" style="fill:none;stroke:#000000;stroke-width:2.61538;stroke-linecap:round;stroke-linejoin:round;stroke-miterlimit:10;stroke-dasharray:none;stroke-opacity:1" id="path1946" />
      </g>
      <g id="g1948" transform="matrix(0.26759535,0,0,-0.26759535,-171.07963,-105.64642)">
         <path d="m 960.5,-610.586 v 0.008 l -0.008,0.019 -0.062,0.024 -0.051,0.058 -0.09,0.055 -0.035,0.016 -0.004,-0.008 -0.008,-0.031 h -0.035 l -0.004,0.011 v 0.008 l 0.008,0.004 0.012,-0.012 -0.039,-0.027 0.023,-0.023 0.063,-0.02 0.003,-0.016 0.016,-0.023 0.023,-0.016 0.184,-0.031 0.059,-0.086 -0.032,-0.019 0.036,-0.032 -0.016,-0.031 0.019,-0.015 0.032,-0.032 -0.051,-0.039 0.043,-0.047 0.066,-0.047 0.008,-0.062 0.035,-0.051 v -0.031 l 0.078,-0.051 0.051,-0.051 -0.023,-0.05 -0.004,-0.059 0.008,-0.07 0.015,-0.051 0.051,-0.059 0.051,-0.082 0.004,-0.07 0.008,-0.078 0.004,-0.082 0.015,-0.074 0.004,-0.075 -0.016,-0.082 0.028,-0.074 0.047,-0.082 0.039,-0.094 0.031,-0.109 0.051,-0.094 -0.008,-0.093 0.039,-0.114 0.094,-0.113 0.054,-0.129 0.071,-0.113 0.066,-0.129 0.07,-0.129 0.122,-0.098 0.07,-0.101 0.012,-0.09 0.031,-0.09 0.031,-0.082 0.043,-0.086 -0.035,-0.098 0.004,-0.097 0.054,-0.082 0.047,-0.086 0.055,-0.074 0.047,-0.075 0.117,-0.058 0.051,-0.051 -0.027,-0.039 0.015,-0.031 v -0.016 h 0.012 l -0.004,-0.008 0.098,-0.027 0.07,0.004 -0.078,-0.004 -0.028,-0.012 -0.023,0.016 -0.027,0.027 -0.11,0.016 -0.066,0.019 0.055,-0.004 h 0.039 l -0.028,0.032 h -0.011 l 0.125,-0.012 0.043,-0.035 -0.067,0.019 0.016,0.004 0.004,0.004 -0.016,0.02 0.004,0.007 v 0.016 l 0.008,0.008 0.035,0.004 0.012,0.023 -0.004,0.02 v 0.035 l 0.023,0.031 0.008,0.043 0.004,0.035 -0.02,0.02 -0.019,0.031" style="fill:none;stroke:#000000;stroke-width:2.61538;stroke-linecap:round;stroke-linejoin:round;stroke-miterlimit:10;stroke-dasharray:none;stroke-opacity:1" id="path1950" />
      </g>
      <g id="g1952" transform="matrix(0.26759535,0,0,-0.26759535,-171.07963,-105.64642)">
         <path d="m 959.492,-608.168 c 1.2348,1.08147 2.85013,0.14128 3.75853,-0.86622 1.41112,-1.52051 1.94892,-3.61737 3.27831,-5.20891 0.75518,-1.36623 -1.15073,-2.61376 -2.23232,-2.99082" style="fill:none;stroke:#000000;stroke-width:2.61538;stroke-linecap:round;stroke-linejoin:round;stroke-miterlimit:10;stroke-dasharray:none;stroke-opacity:1" id="path1954" />
      </g>
      <g id="g1956" transform="matrix(0.26759535,0,0,-0.26759535,-171.07963,-105.64642)">
         <path d="m 958.16,-610.934 c -0.34633,0.12481 0.0388,0.48235 0.11112,0.17787 -0.16997,-0.30096 -0.11871,-0.79996 -0.021,-1.10233 0.17796,-0.24415 -0.40601,-0.36877 -0.0498,-0.63613 0.14657,-0.55531 0.26593,-1.14022 0.44104,-1.68767 0.2134,-0.57858 0.51372,-0.92675 1.03374,-1.24461 -0.24804,-0.3646 0.76014,-0.44995 0.85272,-0.88016 0.55025,-0.35202 1.2189,-0.4181 1.79289,-0.70224 0.6099,-0.18908 -0.62992,0.0157 -0.0439,-0.0496 0.53447,-0.0278 -0.24134,0.0314 0.16649,-0.003 l 0.0913,0.0263" style="fill:none;stroke:#000000;stroke-width:2.61538;stroke-linecap:round;stroke-linejoin:round;stroke-miterlimit:10;stroke-dasharray:none;stroke-opacity:1" id="path1958" />
      </g>
      <g id="g1960" transform="matrix(0.26759535,0,0,-0.26759535,-171.07963,-105.64642)">
         <path d="m 979.336,-592.121 c 18.039,4.226 36.504,6.598 54.012,12.926 34.535,9.496 70.07,14.859 104.554,24.414 9.555,1.918 19.254,3.183 28.668,5.754" style="fill:none;stroke:#000000;stroke-width:2.61538;stroke-linecap:round;stroke-linejoin:round;stroke-miterlimit:10;stroke-dasharray:none;stroke-opacity:1" id="path1962" />
      </g>
      <g id="g1964" transform="matrix(0.26759535,0,0,-0.26759535,-171.07963,-105.64642)">
         <path d="m 980.902,-619.445 c 64.567,18.031 163.836,44.359 179.571,47.507 l 3.527,1.223" style="fill:none;stroke:#000000;stroke-width:2.61538;stroke-linecap:round;stroke-linejoin:round;stroke-miterlimit:10;stroke-dasharray:none;stroke-opacity:1" id="path1966" />
      </g>
      <g id="g1968" transform="matrix(0.26759535,0,0,-0.26759535,-171.07963,-105.64642)">
         <path d="m 1161.359,-573.676 c -1.179,-5.117 -1.445,-10.695 -4.078,-15.414 -1.82,-4.312 3.93,-3.41 1.856,-7.965 -0.184,-5.621 -2.992,-10.648 -3.559,-16.226 -1.144,-5.574 -1.887,-11.192 -3.301,-16.703 -0.691,-5.094 -2.058,-10.028 -3.351,-14.985 -0.321,-4.738 -1.836,-9.179 -2.473,-13.843 -1.137,-2.876 -2.015,-8.188 -4.156,-9.403" style="fill:none;stroke:#000000;stroke-width:2.61538;stroke-linecap:round;stroke-linejoin:round;stroke-miterlimit:10;stroke-dasharray:none;stroke-opacity:1" id="path1970" />
      </g>
      <g id="g1972" transform="matrix(0.26759535,0,0,-0.26759535,-171.07963,-105.64642)">
         <path d="m 974.488,-646.785 c -2.176,-20.695 -5.633,-41.617 -6.105,-62.25 l -0.215,-0.235" style="fill:none;stroke:#000000;stroke-width:2.61538;stroke-linecap:round;stroke-linejoin:round;stroke-miterlimit:10;stroke-dasharray:none;stroke-opacity:1" id="path1974" />
      </g>
      <g id="g1976" transform="matrix(0.26759535,0,0,-0.26759535,-171.07963,-105.64642)">
         <path d="m 954.938,-697.453 c 3.605,-3.231 11.921,-12.457 13.624,-13.735 0.055,-0.878 0.036,-1.734 0.008,-2.617 -0.125,-0.836 -0.004,-1.832 -0.535,-2.519 -1.023,0.019 -1.754,0.801 -2.39,1.496 -0.801,0.66 -1.891,1.031 -2.403,1.992 -2.691,2.449 -5.07,4.867 -7.312,7.512 -0.481,0.386 -1.336,1.328 -1.098,1.797 0.977,0.191 1.414,1.293 1.238,2.199 -0.14,0.437 0.039,1.101 -0.125,1.242" style="fill:none;stroke:#000000;stroke-width:2.61538;stroke-linecap:round;stroke-linejoin:round;stroke-miterlimit:10;stroke-dasharray:none;stroke-opacity:1" id="path1978" />
      </g>
      <g id="g1980" transform="matrix(0.26759535,0,0,-0.26759535,-171.07963,-105.64642)">
         <path d="m 955.09,-704.023 c -0.52,-2.86 -0.695,-8.168 -1.664,-11.653 -0.266,-1.66 2.312,-2.472 3.262,-3.695 1.761,-1.461 3.332,-3.141 5.121,-4.567 1.789,-1.925 3.171,-4.304 5.601,-5.519 1.957,-1.387 0.629,2.367 0.504,3.355 -0.562,2.168 -0.469,4.418 -0.777,6.625 -0.325,1.938 0.035,3.868 -0.063,5.786 l -0.074,0.347 -0.094,0.332" style="fill:none;stroke:#000000;stroke-width:2.61538;stroke-linecap:round;stroke-linejoin:round;stroke-miterlimit:10;stroke-dasharray:none;stroke-opacity:1" id="path1982" />
      </g>
      <g id="g1984" transform="matrix(0.26759535,0,0,-0.26759535,-171.07963,-105.64642)">
         <path d="m 957.898,-619.453 c -1.476,-26.457 -2.898,-52.922 -3.421,-79.422" style="fill:none;stroke:#000000;stroke-width:2.61538;stroke-linecap:round;stroke-linejoin:round;stroke-miterlimit:10;stroke-dasharray:none;stroke-opacity:1" id="path1986" />
      </g>
      <g id="g1988" transform="matrix(0.26759535,0,0,-0.26759535,-171.07963,-105.64642)">
         <path d="m 969.578,-731.121 c 58.156,21.422 117.652,39.144 175.043,62.641" style="fill:none;stroke:#000000;stroke-width:2.61538;stroke-linecap:round;stroke-linejoin:round;stroke-miterlimit:10;stroke-dasharray:none;stroke-opacity:1" id="path1990" />
      </g>
      <g id="g1992" transform="matrix(0.26759535,0,0,-0.26759535,-171.07963,-105.64642)">
         <path d="m 1010.27,-656.031 c 7.07,1.898 14.292,3.121 21.464,4.551 2.653,0.644 5.133,1.875 7.828,2.355" style="fill:none;stroke:#000000;stroke-width:2.61538;stroke-linecap:round;stroke-linejoin:round;stroke-miterlimit:10;stroke-dasharray:none;stroke-opacity:1" id="path1994" />
      </g>
      <g id="g1996" transform="matrix(0.26759535,0,0,-0.26759535,-171.07963,-105.64642)">
         <path d="m 1009.828,-656.496 c -1.363,-2.449 -1.031,-6.844 -1.539,-9.52 -0.34,-2.761 -2.633,-23.73 -3.074,-33.504 0.758,-2.25 1.765,-4.316 2.656,-6.542 0.57,-1.36 0.274,-3.141 2.215,-2.192 3.43,0.531 6.816,1.285 10.262,1.731 2.422,0.382 9.609,3.003 11.996,3.531 3.285,10.027 5.097,15.648 5.605,22.719" style="fill:none;stroke:#000000;stroke-width:2.61538;stroke-linecap:round;stroke-linejoin:round;stroke-miterlimit:10;stroke-dasharray:none;stroke-opacity:1" id="path1998" />
      </g>
      <g id="g2000" transform="matrix(0.26759535,0,0,-0.26759535,-171.07963,-105.64642)">
         <path d="m 1040.324,-649.113 c -0.558,-10.809 -1.015,-21.199 -2.367,-31.055" style="fill:none;stroke:#000000;stroke-width:2.61538;stroke-linecap:round;stroke-linejoin:round;stroke-miterlimit:10;stroke-dasharray:none;stroke-opacity:1" id="path2002" />
      </g>
      <g id="g2004" transform="matrix(0.26759535,0,0,-0.26759535,-171.07963,-105.64642)">
         <path d="m 899.316,-636.316 c -1.234,-11.457 0.032,-22.977 0.805,-34.418" style="fill:none;stroke:#000000;stroke-width:2.61538;stroke-linecap:round;stroke-linejoin:round;stroke-miterlimit:10;stroke-dasharray:none;stroke-opacity:1" id="path2006" />
      </g>
      <g id="g2008" transform="matrix(0.26759535,0,0,-0.26759535,-171.07963,-105.64642)">
         <path d="m 900.078,-671.145 c -2.219,-5.32 -3.922,-10.839 -5.562,-16.363" style="fill:none;stroke:#000000;stroke-width:2.61538;stroke-linecap:round;stroke-linejoin:round;stroke-miterlimit:10;stroke-dasharray:none;stroke-opacity:1" id="path2010" />
      </g>
      <g id="g2012" transform="matrix(0.26759535,0,0,-0.26759535,-171.07963,-105.64642)">
         <path d="m 894.438,-687.703 c -7.051,-3.074 -15.364,-6.848 -22.446,-7.774" style="fill:none;stroke:#000000;stroke-width:2.61538;stroke-linecap:round;stroke-linejoin:round;stroke-miterlimit:10;stroke-dasharray:none;stroke-opacity:1" id="path2014" />
      </g>
      <g id="g2016" transform="matrix(0.26759535,0,0,-0.26759535,-171.07963,-105.64642)">
         <path d="m 871.453,-695.211 c -2.41,4.09 -5.933,7.406 -8.187,11.598" style="fill:none;stroke:#000000;stroke-width:2.61538;stroke-linecap:round;stroke-linejoin:round;stroke-miterlimit:10;stroke-dasharray:none;stroke-opacity:1" id="path2018" />
      </g>
      <g id="g2020" transform="matrix(0.26759535,0,0,-0.26759535,-171.07963,-105.64642)">
         <path d="m 863.344,-682.949 c -1.242,12.89 -2.688,26.101 -2.032,39.078" style="fill:none;stroke:#000000;stroke-width:2.61538;stroke-linecap:round;stroke-linejoin:round;stroke-miterlimit:10;stroke-dasharray:none;stroke-opacity:1" id="path2022" />
      </g>
      <g id="g2024" transform="matrix(0.26759535,0,0,-0.26759535,-171.07963,-105.64642)">
         <path d="m 861.34,-643.969 c 10.613,2.84 27.375,3.602 37.648,7.614" style="fill:none;stroke:#000000;stroke-width:2.61538;stroke-linecap:round;stroke-linejoin:round;stroke-miterlimit:10;stroke-dasharray:none;stroke-opacity:1" id="path2026" />
      </g>
      <g id="g2028" transform="matrix(0.26759535,0,0,-0.26759535,-171.07963,-105.64642)">
         <path d="m 720.152,-629.086 c 12.102,1.27 28,6.172 38.66,7.371 -0.226,0.102 -0.187,-0.191 -0.07,-0.23" style="fill:none;stroke:#000000;stroke-width:2.61538;stroke-linecap:round;stroke-linejoin:round;stroke-miterlimit:10;stroke-dasharray:none;stroke-opacity:1" id="path2030" />
      </g>
      <g id="g2032" transform="matrix(0.26759535,0,0,-0.26759535,-171.07963,-105.64642)">
         <path d="m 758.883,-622.602 c 1.652,-10.488 4.41,-26.519 4.363,-37.199" style="fill:none;stroke:#000000;stroke-width:2.61538;stroke-linecap:round;stroke-linejoin:round;stroke-miterlimit:10;stroke-dasharray:none;stroke-opacity:1" id="path2034" />
      </g>
      <g id="g2036" transform="matrix(0.26759535,0,0,-0.26759535,-171.07963,-105.64642)">
         <path d="m 763.242,-660.254 c -2.289,-7.023 -5.652,-14.187 -7.551,-18.184 -6.996,-2.015 -12.757,-3.332 -18.574,-5.179 -2.508,-1.145 -2.957,-1.469 -4.32,1.195 -3.641,4.203 -5.676,6.918 -8.945,11.563 0.027,-0.036 0.457,-1.265 0,0 -0.961,4.895 -2.461,14.375 -3.094,19.371 -0.758,5.117 -2.031,9.988 -2.672,15.176 0.266,2.16 -1.699,6.828 -0.648,6.949" style="fill:none;stroke:#000000;stroke-width:2.61538;stroke-linecap:round;stroke-linejoin:round;stroke-miterlimit:10;stroke-dasharray:none;stroke-opacity:1" id="path2038" sodipodi:nodetypes="ccccccccc" />
      </g>
      <g id="g2040" transform="matrix(0.26759535,0,0,-0.26759535,-171.07963,-105.64642)">
         <path d="m 1041.055,-648.742 c 1.441,8.633 1.925,17.387 2.875,26.078" style="fill:none;stroke:#000000;stroke-width:1.30769;stroke-linecap:round;stroke-linejoin:round;stroke-miterlimit:10;stroke-dasharray:none;stroke-opacity:1" id="path2042" />
      </g>
      <g id="g2044" transform="matrix(0.26759535,0,0,-0.26759535,-171.07963,-105.64642)">
         <path d="m 1044.012,-622.086 c -0.922,4.551 -2.246,8.074 -3.375,12.188" style="fill:none;stroke:#000000;stroke-width:1.30769;stroke-linecap:round;stroke-linejoin:round;stroke-miterlimit:10;stroke-dasharray:none;stroke-opacity:1" id="path2046" />
      </g>
      <g id="g2048" transform="matrix(0.26759535,0,0,-0.26759535,-171.07963,-105.64642)">
         <path d="m 1040.363,-609.766 c -7.742,-1.129 -14.273,-3.461 -21.718,-5.898" style="fill:none;stroke:#000000;stroke-width:1.30769;stroke-linecap:round;stroke-linejoin:round;stroke-miterlimit:10;stroke-dasharray:none;stroke-opacity:1" id="path2050" />
      </g>
      <g id="g2052" transform="matrix(0.26759535,0,0,-0.26759535,-171.07963,-105.64642)">
         <path d="m 1018.461,-615.773 c -2.934,-4.118 -4.727,-8.836 -5.82,-13.555" style="fill:none;stroke:#000000;stroke-width:1.30769;stroke-linecap:round;stroke-linejoin:round;stroke-miterlimit:10;stroke-dasharray:none;stroke-opacity:1" id="path2054" />
      </g>
      <g id="g2056" transform="matrix(0.26759535,0,0,-0.26759535,-171.07963,-105.64642)">
         <path d="m 1012.469,-629.48 c -1.188,-5.688 -2.352,-19.848 -3.68,-28.825" style="fill:none;stroke:#000000;stroke-width:1.30769;stroke-linecap:round;stroke-linejoin:round;stroke-miterlimit:10;stroke-dasharray:none;stroke-opacity:1" id="path2058" />
      </g>
      <g id="g2060" transform="matrix(0.26759535,0,0,-0.26759535,-171.07963,-105.64642)">
         <path d="m 861.34,-643.969 c -0.96925,8.71391 2.20599,17.38337 0.691,26.078" style="fill:none;stroke:#000000;stroke-width:1.30769;stroke-linecap:round;stroke-linejoin:round;stroke-miterlimit:10;stroke-dasharray:none;stroke-opacity:1" id="path2062" sodipodi:nodetypes="cc" />
      </g>
      <g id="g2064" transform="matrix(0.26759535,0,0,-0.26759535,-171.07963,-105.64642)">
         <path d="m 862.137,-617.902 c 1.191,5.851 2.328,12.922 5.058,18.297" style="fill:none;stroke:#000000;stroke-width:1.30769;stroke-linecap:round;stroke-linejoin:round;stroke-miterlimit:10;stroke-dasharray:none;stroke-opacity:1" id="path2066" />
      </g>
      <g id="g2068" transform="matrix(0.26759535,0,0,-0.26759535,-171.07963,-105.64642)">
         <path d="m 867.258,-599.621 c 7.394,1.621 19.047,4.094 26.269,4.949" style="fill:none;stroke:#000000;stroke-width:1.30769;stroke-linecap:round;stroke-linejoin:round;stroke-miterlimit:10;stroke-dasharray:none;stroke-opacity:1" id="path2070" />
      </g>
      <g id="g2072" transform="matrix(0.26759535,0,0,-0.26759535,-171.07963,-105.64642)">
         <path d="m 893.633,-594.648 c 3.297,-3.661 5.312,-8.196 8.035,-12.25" style="fill:none;stroke:#000000;stroke-width:1.30769;stroke-linecap:round;stroke-linejoin:round;stroke-miterlimit:10;stroke-dasharray:none;stroke-opacity:1" id="path2074" />
      </g>
      <g id="g2076" transform="matrix(0.26759535,0,0,-0.26759535,-171.07963,-105.64642)">
         <path d="m 901.504,-606.973 c -0.41,-9.961 -1.258,-20.761 -1.82,-30.722" style="fill:none;stroke:#000000;stroke-width:1.30769;stroke-linecap:round;stroke-linejoin:round;stroke-miterlimit:10;stroke-dasharray:none;stroke-opacity:1" id="path2078" />
      </g>
      <g id="g2080" transform="matrix(0.26759535,0,0,-0.26759535,-171.07963,-105.64642)">
         <path d="m 755.82,-622.184 c -0.332,3.086 -0.574,8.313 -1.035,12.282 -0.648,5.672 0.098,11.597 -0.64,17 -0.028,-0.063 0.203,-0.254 0.039,-0.051" style="fill:none;stroke:#000000;stroke-width:1.30769;stroke-linecap:round;stroke-linejoin:round;stroke-miterlimit:10;stroke-dasharray:none;stroke-opacity:1" id="path2082" />
      </g>
      <g id="g2084" transform="matrix(0.26759535,0,0,-0.26759535,-171.07963,-105.64642)">
         <path d="m 754.137,-592.383 c -1.446,3.93 -4.059,7.692 -6.469,11.227 0.262,-0.227 -1.148,1.476 -0.918,0.851" style="fill:none;stroke:#000000;stroke-width:1.30769;stroke-linecap:round;stroke-linejoin:round;stroke-miterlimit:10;stroke-dasharray:none;stroke-opacity:1" id="path2086" />
      </g>
      <g id="g2088" transform="matrix(0.26759535,0,0,-0.26759535,-171.07963,-105.64642)">
         <path d="m 746.133,-580.316 c -5.785,-0.219 -13.863,-1.969 -19.715,-3.235 -1.867,-0.472 -3.801,-1.988 -5.168,-2.785" style="fill:none;stroke:#000000;stroke-width:1.30769;stroke-linecap:round;stroke-linejoin:round;stroke-miterlimit:10;stroke-dasharray:none;stroke-opacity:1" id="path2090" />
      </g>
      <g id="g2092" transform="matrix(0.26759535,0,0,-0.26759535,-171.07963,-105.64642)">
         <path d="m 720.68,-586.984 c -1.102,-4.993 -3.473,-12.868 -5.25,-18.055" style="fill:none;stroke:#000000;stroke-width:1.30769;stroke-linecap:round;stroke-linejoin:round;stroke-miterlimit:10;stroke-dasharray:none;stroke-opacity:1" id="path2094" />
      </g>
      <g id="g2096" transform="matrix(0.26759535,0,0,-0.26759535,-171.07963,-105.64642)">
         <path d="m 715.27,-605.133 c 0.746,-6.199 1.679,-12.422 2.656,-18.633 0.035,-2.058 1.082,-3.902 1.117,-5.933" style="fill:none;stroke:#000000;stroke-width:1.30769;stroke-linecap:round;stroke-linejoin:round;stroke-miterlimit:10;stroke-dasharray:none;stroke-opacity:1" id="path2098" />
      </g>
      <g id="g2100" transform="matrix(0.26759535,0,0,-0.26759535,-171.07963,-105.64642)">
         <path d="m 811.301,-599.523 c 1.929,-27.172 5.344,-54.258 6.582,-81.477 -1.321,-3.602 2.433,-4.18 4.199,-6.863 1.813,-1.949 4.203,-3.766 5.512,-5.895 -0.137,-1.332 0.086,-3.844 0.113,-5.265 0.16,-3.274 -2.41,1.82 -3.625,2.625 -2.039,2.128 -4.223,4.836 -5.727,7.093 -0.769,0.157 1.266,1.5 1.247,2.145" style="fill:none;stroke:#000000;stroke-width:2.61538;stroke-linecap:round;stroke-linejoin:round;stroke-miterlimit:10;stroke-dasharray:none;stroke-opacity:1" id="path2102" />
      </g>
      <g id="g2104" transform="matrix(0.26759535,0,0,-0.26759535,-171.07963,-105.64642)">
         <path d="m 818.043,-691.031 c 0.656,-3.578 -1.926,-8.145 1.734,-10.774 3.043,-3.207 5.938,-6.554 8.766,-9.953 0.07,3.649 -1.715,7.078 -1.551,10.762 -1.086,11.234 -2.43,22.449 -2.793,33.738 -0.523,9.629 -0.746,19.27 -1.433,28.891 -0.188,5.07 -0.614,10.179 -0.571,15.23 l 0.047,0.176 -1.062,22.695" style="fill:none;stroke:#000000;stroke-width:2.61538;stroke-linecap:round;stroke-linejoin:round;stroke-miterlimit:10;stroke-dasharray:none;stroke-opacity:1" id="path2106" />
      </g>
      <g id="g2108" transform="matrix(0.26759535,0,0,-0.26759535,-171.07963,-105.64642)">
         <path d="m 829.312,-713.805 c 5.559,1.852 13.446,2.477 19.602,5.149 11.785,4.176 23.871,6.883 35.781,10.664 11.504,3.551 22.813,7.832 34.41,11.14 9.161,2.473 18.227,5.262 27.5,7.25 1.512,0.813 7.207,2.028 7.821,2.102" style="fill:none;stroke:#000000;stroke-width:2.61538;stroke-linecap:round;stroke-linejoin:round;stroke-miterlimit:10;stroke-dasharray:none;stroke-opacity:1" id="path2110" />
      </g>
      <g id="g2112" transform="matrix(0.26759535,0,0,-0.26759535,-171.07963,-105.64642)">
         <path d="m 687.996,-701.336 c 40.60515,11.29095 82.31679,18.29099 122.4632,31.30453 2.21559,0.61257 4.44154,1.19824 6.7008,1.62944" style="fill:none;stroke:#000000;stroke-width:2.61538;stroke-linecap:round;stroke-linejoin:round;stroke-miterlimit:10;stroke-dasharray:none;stroke-opacity:1" id="path2114" />
      </g>
      <g id="g2116" transform="matrix(0.26759535,0,0,-0.26759535,-171.07963,-105.64642)">
         <path d="m 962.684,-582.656 c -2.657,-8.348 -0.383,-17.156 -1.02,-25.688" style="fill:none;stroke:#000000;stroke-width:2.61538;stroke-linecap:round;stroke-linejoin:round;stroke-miterlimit:10;stroke-dasharray:none;stroke-opacity:1" id="path2118" />
      </g>
   </g>
</svg>
