<?xml version="1.0" encoding="UTF-8" standalone="no"?>
<!-- Created by Ashley Blewer - This work is licensed under a Creative Commons Attribution 4.0 International License -->

<svg width="544" height="480" viewBox="0 0 143.93334 127" version="1.1" id="svg2490" inkscape:version="1.1.2 (08b2f3d93c, 2022-04-05)" sodipodi:docname="1995-minidv-1.svg"
   xmlns:inkscape="http://www.inkscape.org/namespaces/inkscape"
   xmlns:sodipodi="http://sodipodi.sourceforge.net/DTD/sodipodi-0.dtd"
   xmlns="http://www.w3.org/2000/svg"
   xmlns:svg="http://www.w3.org/2000/svg">
   <sodipodi:namedview id="namedview2492" pagecolor="#ffffff" bordercolor="#666666" borderopacity="1.0" inkscape:pageshadow="2" inkscape:pageopacity="0.0" inkscape:pagecheckerboard="0" inkscape:document-units="mm" showgrid="false" units="px" inkscape:zoom="0.90583674" inkscape:cx="279.29978" inkscape:cy="194.84747" inkscape:window-width="1848" inkscape:window-height="1136" inkscape:window-x="72" inkscape:window-y="27" inkscape:window-maximized="1" inkscape:current-layer="layer1" />
   <defs id="defs2487" />
   <g inkscape:label="Layer 1" inkscape:groupmode="layer" id="layer1">
      <g id="g7175" transform="matrix(0.47818951,0,0,0.47832479,-136.9285,-98.069359)" style="stroke-width:0.639464">
         <g id="g176" transform="scale(1,-1)" style="stroke-width:0.639464">
            <path d="m 315.758,-316.32 c 7.554,1.367 15.289,-1.219 20.804,-6.489 6.227,-6.367 11.59,-14.089 13.852,-22.808 1.613,-7.656 1.75,-16.117 -1.598,-23.305 -4.836,-7.148 -14.418,-9.305 -22.144,-5.781 -11.059,3.863 -17.539,14.906 -20.406,25.695 -2.446,8.555 -1.61,17.961 1.132,26.356 2.45,3.757 4.016,5.153 8.36,6.332" style="fill:none;stroke:#000000;stroke-width:1.67244;stroke-linecap:round;stroke-linejoin:round;stroke-miterlimit:10;stroke-dasharray:none;stroke-opacity:1" id="path178" sodipodi:nodetypes="cccccccc" />
         </g>
         <g id="g180" transform="scale(1,-1)" style="stroke-width:0.639464">
            <path d="m 312.91,-317.125 c 4.207,5.207 11.453,8.273 18.195,7.453 6.872,-0.629 14.848,-1.058 19.461,-7 5.168,-4.551 8.489,-10.723 11.973,-16.555 2.805,-7.75 6.031,-16.132 3.273,-24.41 -1.199,-6.617 -5.093,-13.859 -11.636,-16.328 -6.071,-2.574 -12.442,-4.234 -19.074,-4.473 -2.118,-0.101 -6.548,2.693 -8.43,3.735" style="fill:none;stroke:#000000;stroke-width:1.67244;stroke-linecap:round;stroke-linejoin:round;stroke-miterlimit:10;stroke-dasharray:none;stroke-opacity:1" id="path182" sodipodi:nodetypes="cccccccc" />
         </g>
         <g id="g184" transform="scale(1,-1)" style="stroke-width:0.639464">
            <path d="m 328.566,-313.582 c 15.49264,-1.89008 24.99339,-17.31522 27.72553,-31.47072 1.43721,-8.27452 0.33556,-16.92032 -2.80753,-24.68528" style="fill:none;stroke:#000000;stroke-width:1.67244;stroke-linecap:round;stroke-linejoin:round;stroke-miterlimit:10;stroke-dasharray:none;stroke-opacity:1" id="path186" />
         </g>
         <g id="g188" transform="scale(1,-1)" style="stroke-width:0.639464">
            <path d="m 335.598,-382 c -1.438,-1.406 -1.75,-3.508 -2.817,-5.156 -1.039,-2.235 -1.015,-4.903 -0.011,-7.149 0.656,-1.652 1.132,-3.402 2.062,-4.929 0.551,-0.836 1.5,-1.422 2.523,-1.375 1.348,-0.071 2.7,0.105 4.047,0.027 1.203,0.086 2.231,1.418 1.7,2.586 -0.446,0.93 -1.258,1.644 -1.54,2.664 -0.394,0.996 -0.964,1.914 -1.671,2.715 -1.481,2.004 -2.887,4.066 -4.379,6.066 -0.34,0.61 -0.895,1.348 -0.617,2.063 0.128,0.308 0.285,0.613 0.347,0.945" style="fill:none;stroke:#000000;stroke-width:1.67244;stroke-linecap:round;stroke-linejoin:round;stroke-miterlimit:10;stroke-dasharray:none;stroke-opacity:1" id="path190" />
         </g>
         <g id="g192" transform="scale(1,-1)" style="stroke-width:0.639464">
            <path d="m 343.51891,-398.742 c 1.597,-1.047 2.52409,-0.578 4.24309,-0.442 0.468,0.063 -1.184,2.075 -1.278,3.196 -0.304,1.242 -0.91,2.582 -0.98,3.89 0.449,1.34 0.074,2.555 -1.527,2.563 -1.618,0.883 -3.122,1.984 -4.719,2.89 -0.863,0.649 -2.02,1.457 -2.828,2.383 -0.305,0.403 -0.688,0.758 -0.895,1.227" style="fill:none;stroke:#000000;stroke-width:1.67244;stroke-linecap:round;stroke-linejoin:round;stroke-miterlimit:10;stroke-dasharray:none;stroke-opacity:1" id="path194" sodipodi:nodetypes="cccccccc" />
         </g>
         <g id="g196" transform="scale(1,-1)" style="stroke-width:0.639464">
            <path d="m 344.57,-388.246 c -0.41128,3.04099 -0.60688,7.70443 -1.22182,10.71564" style="fill:none;stroke:#000000;stroke-width:1.67244;stroke-linecap:round;stroke-linejoin:round;stroke-miterlimit:10;stroke-dasharray:none;stroke-opacity:1" id="path198" sodipodi:nodetypes="cc" />
         </g>
         <g id="g200" transform="scale(1,-1)" style="stroke-width:0.639464">
            <path d="m 347.578,-378.875 c 3.41147,-1.96883 7.08737,-3.4 10.8627,-4.49763 4.39802,-1.30363 8.62985,-3.07029 12.84696,-4.8586 1.45753,-0.91202 3.05069,-1.31748 4.6816,-1.79155 2.2871,-0.90218 4.75216,-1.53646 7.21702,-1.35422 2.40307,-0.17758 4.30614,4.25357 6.34386,1.47242 1.10693,-2.53929 1.28711,-5.44984 1.84981,-8.1949 0.0784,-2.58021 0.68163,-5.11873 0.67357,-7.71694 0.19925,-1.63563 0.5411,-3.90981 -1.57161,-4.39585 -3.13815,-1.0932 -6.5749,-0.98813 -9.74865,-0.11879 -3.25949,0.42676 -6.10767,2.2367 -9.26153,3.05969 -3.67265,1.47052 -7.26568,3.14267 -11.04221,4.3466 -3.60612,1.28264 -7.19148,2.66341 -10.60152,4.40877 -1.24317,1.29304 -3.33034,2.0954 -3.75323,3.94364 -0.27543,0.65673 -0.61872,1.28508 -0.85177,1.95936" style="fill:none;stroke:#000000;stroke-width:1.67244;stroke-linecap:round;stroke-linejoin:round;stroke-miterlimit:10;stroke-dasharray:none;stroke-opacity:1" id="path202" />
         </g>
         <g id="g204" transform="scale(1,-1)" style="stroke-width:0.639464">
            <path d="m 350.191,-399.336 c 2.20175,-6.67143 10.21355,-7.50698 15.89285,-9.59881 9.32611,-3.01614 18.31287,-7.66043 28.1898,-8.63801 7.77295,1.25358 14.66661,5.07353 21.53135,8.68982" style="fill:none;stroke:#000000;stroke-width:1.67244;stroke-linecap:round;stroke-linejoin:round;stroke-miterlimit:10;stroke-dasharray:none;stroke-opacity:1" id="path206" />
         </g>
         <g id="g208" transform="scale(1,-1)" style="stroke-width:0.639464">
            <path d="m 416.594,-410.328 c -1.20069,2.07209 -0.65363,4.66738 -1.25302,6.93807 -0.44019,3.35321 0.058,6.73659 0.74037,10.01522 -0.50278,2.49678 -3.77465,2.25748 -5.66776,3.08997 -3.02412,0.76428 -5.91569,1.94626 -8.8335,3.0061 -3.30465,0.91759 -6.68837,1.88835 -9.49917,3.91684 -1.54367,1.46161 -3.48573,3.6207 -5.64497,1.53445 -3.27941,-2.66841 -7.5178,-3.58156 -11.14695,-5.63765 -3.59055,-0.96818 -7.56187,0.29763 -10.719,2.027" style="fill:none;stroke:#000000;stroke-width:1.67244;stroke-linecap:round;stroke-linejoin:round;stroke-miterlimit:10;stroke-dasharray:none;stroke-opacity:1" id="path210" sodipodi:nodetypes="cccccccccc" />
         </g>
         <g id="g212" transform="scale(1,-1)" style="stroke-width:0.639464">
            <path d="m 368.785,-331.797 c 6.29067,1.41629 8.66085,1.36665 12.8775,1.78098 6.43585,2.37748 8.02434,-4.72123 8.28787,-9.53906 0.80601,-8.45681 1.55622,-37.82766 -8.46177,-37.41756 -3.82015,2.11234 -8.47633,-0.31847 -11.84011,2.73781 l -0.0409,36.25502 c -0.41129,2.02729 -0.82262,6.18281 -0.82262,6.18281 z" style="fill:none;stroke:#000000;stroke-width:1.67244;stroke-linecap:round;stroke-linejoin:round;stroke-miterlimit:10;stroke-dasharray:none;stroke-opacity:1" id="path214" sodipodi:nodetypes="cccccccc" />
         </g>
         <g id="g216" transform="scale(1,-1)" style="stroke-width:0.639464">
            <path d="m 383.582,-375.605 c 0.402,3.085 2.594,5.679 2.543,8.882 0.582,3.161 0.664,6.352 0.379,9.559 0.129,8.074 -0.086,16.41 -3,24.043 l -0.277,0.535 -1.461,2.664" style="fill:none;stroke:#000000;stroke-width:1.67244;stroke-linecap:round;stroke-linejoin:round;stroke-miterlimit:10;stroke-dasharray:none;stroke-opacity:1" id="path218" />
         </g>
         <g id="g220" transform="scale(1,-1)" style="stroke-width:0.639464">
            <path d="m 375.586,-349.258 c 2.602,0.278 5.887,-1.113 7.848,-1.332" style="fill:none;stroke:#000000;stroke-width:1.67244;stroke-linecap:round;stroke-linejoin:round;stroke-miterlimit:10;stroke-dasharray:none;stroke-opacity:1" id="path222" />
         </g>
         <g id="g224" transform="scale(1,-1)" style="stroke-width:0.639464">
            <path d="m 381.336,-328.781 c -2.387,4.98 -4.996,10.859 -10.723,12.648 -5.511,2.715 -11.312,4.774 -17.164,6.653 -5.953,2.816 -12.156,5.3 -18.785,5.835 -4.898,1.329 -10.664,0.27 -13.797,-3.988 -0.875,-1.172 -2.328,-2.617 -2.398,-3.902" style="fill:none;stroke:#000000;stroke-width:1.67244;stroke-linecap:round;stroke-linejoin:round;stroke-miterlimit:10;stroke-dasharray:none;stroke-opacity:1" id="path226" />
         </g>
         <g id="g228" transform="scale(1,-1)" style="stroke-width:0.639464">
            <path d="m 328.87126,-302.96324 c 0.918,1.754 3.55474,2.75624 5.23374,3.42424 3.133,0.937 6.934,1.644 10.094,2.492" style="fill:none;stroke:#000000;stroke-width:1.67244;stroke-linecap:round;stroke-linejoin:round;stroke-miterlimit:10;stroke-dasharray:none;stroke-opacity:1" id="path230" sodipodi:nodetypes="ccc" />
         </g>
         <g id="g232" transform="scale(1,-1)" style="stroke-width:0.639464">
            <path d="m 344.199,-297.047 c 0.477,0.906 1.707,4.399 3.035,5.992 1.516,2.168 2.735,4.766 5.512,5.379 4.035,1.387 8.383,1.664 12.379,3.219 2.707,0.992 5.285,2.301 8.074,3.082 0.133,-0.031 1.996,0.719 1.328,0.152" style="fill:none;stroke:#000000;stroke-width:1.67244;stroke-linecap:round;stroke-linejoin:round;stroke-miterlimit:10;stroke-dasharray:none;stroke-opacity:1" id="path234" />
         </g>
         <g id="g236" transform="scale(1,-1)" style="stroke-width:0.639464">
            <path d="m 375.609,-281.504 c -5.015,-2.348 -10.234,-4.195 -15.5,-5.883 -3.254,-1.461 -7.015,-3.011 -8.586,-6.457 -0.664,-1.25 -1.625,-2.851 -1.8,-4.062" style="fill:none;stroke:#000000;stroke-width:1.67244;stroke-linecap:round;stroke-linejoin:round;stroke-miterlimit:10;stroke-dasharray:none;stroke-opacity:1" id="path238" />
         </g>
         <g id="g240" transform="scale(1,-1)" style="stroke-width:0.639464">
            <path d="m 351.586,-299.703 c 3.55864,1.13334 7.52038,2.09413 10.95002,0.0335 2.09581,-0.7005 4.81983,-1.3035 5.57302,-3.70587" style="fill:none;stroke:#000000;stroke-width:1.67244;stroke-linecap:round;stroke-linejoin:round;stroke-miterlimit:10;stroke-dasharray:none;stroke-opacity:1" id="path242" sodipodi:nodetypes="ccc" />
         </g>
         <g id="g244" transform="scale(1,-1)" style="stroke-width:0.639464">
            <path d="m 368.10904,-303.37537 c 1.93214,2.09896 6.03387,4.35102 6.84097,7.18996 0.23184,0.43469 1.04125,0.73637 1.01148,1.25931" style="fill:none;stroke:#000000;stroke-width:1.67244;stroke-linecap:round;stroke-linejoin:round;stroke-miterlimit:10;stroke-dasharray:none;stroke-opacity:1" id="path246" sodipodi:nodetypes="ccc" />
         </g>
         <g id="g248" transform="scale(1,-1)" style="stroke-width:0.639464">
            <path d="m 373.078,-297.391 c 0.809,1.012 -2.906,0.426 -2.98,2.293 -0.227,2.575 2.765,3.946 4.316,5.418 3.047,2.075 6.844,2.45 10.043,4.235 1.875,0.867 5.531,1.609 6.605,1.894 -0.023,-0.047 -0.031,-0.144 -0.117,-0.121" style="fill:none;stroke:#000000;stroke-width:1.67244;stroke-linecap:round;stroke-linejoin:round;stroke-miterlimit:10;stroke-dasharray:none;stroke-opacity:1" id="path250" />
         </g>
         <g id="g252" transform="scale(1,-1)" style="stroke-width:0.639464">
            <path d="m 391.062,-283.551 c 1.48,0.102 4.961,-2.574 5.961,-3.777 -0.015,-1.52 -1.031,-3.051 -0.73,-4.727 -0.234,-0.175 -0.703,-0.946 -0.938,-1.211" style="fill:none;stroke:#000000;stroke-width:1.67244;stroke-linecap:round;stroke-linejoin:round;stroke-miterlimit:10;stroke-dasharray:none;stroke-opacity:1" id="path254" sodipodi:nodetypes="cccc" />
         </g>
         <g id="g256" transform="scale(1,-1)" style="stroke-width:0.639464">
            <path d="m 400.102,-292.723 c 2.046,-1.902 -0.341,-6.245 -1.231,-8.386" style="fill:none;stroke:#000000;stroke-width:1.67244;stroke-linecap:round;stroke-linejoin:round;stroke-miterlimit:10;stroke-dasharray:none;stroke-opacity:1" id="path258" sodipodi:nodetypes="cc" />
         </g>
         <g id="g260" transform="scale(1,-1)" style="stroke-width:0.639464">
            <path d="m 398.871,-301.109 c 1.863,-0.382 10.078,-0.598 11.934,-1.063" style="fill:none;stroke:#000000;stroke-width:1.67244;stroke-linecap:round;stroke-linejoin:round;stroke-miterlimit:10;stroke-dasharray:none;stroke-opacity:1" id="path262" sodipodi:nodetypes="cc" />
         </g>
         <g id="g264" transform="scale(1,-1)" style="stroke-width:0.639464">
            <path d="m 398.871,-301.109 c -8.586,-4.778 -18.285,-6.786 -27.199,-10.793 -0.973,-0.391 -3.95419,-1.7056 -4.93519,-2.0766" style="fill:none;stroke:#000000;stroke-width:1.67244;stroke-linecap:round;stroke-linejoin:round;stroke-miterlimit:10;stroke-dasharray:none;stroke-opacity:1" id="path266" sodipodi:nodetypes="ccc" />
         </g>
         <g id="g268" transform="scale(1,-1)" style="stroke-width:0.639464">
            <path d="m 378.422,-299.66 c 4.13362,1.37606 8.03196,3.35192 12.117,4.855 1.67408,0.21505 3.35018,0.69293 4.816,1.539" style="fill:none;stroke:#000000;stroke-width:1.67244;stroke-linecap:round;stroke-linejoin:round;stroke-miterlimit:10;stroke-dasharray:none;stroke-opacity:1" id="path270" />
         </g>
         <g id="g272" transform="scale(1,-1)" style="stroke-width:0.639464">
            <path d="m 380.324,-292.988 c 2.192,1.211 6.321,2.59 9.406,3.39 0.754,0.43 2.055,0.469 2.536,0.961" style="fill:none;stroke:#000000;stroke-width:1.67244;stroke-linecap:round;stroke-linejoin:round;stroke-miterlimit:10;stroke-dasharray:none;stroke-opacity:1" id="path274" />
         </g>
         <g id="g276" transform="scale(1,-1)" style="stroke-width:0.639464">
            <path d="m 374.527,-279.223 c 6.65687,4.75474 15.51529,8.67081 22.90995,11.80543 6.93021,1.9256 16.69216,3.32319 23.57105,5.35557" style="fill:none;stroke:#000000;stroke-width:1.67244;stroke-linecap:round;stroke-linejoin:round;stroke-miterlimit:10;stroke-dasharray:none;stroke-opacity:1" id="path278" sodipodi:nodetypes="ccc" />
         </g>
         <g id="g280" transform="scale(1,-1)" style="stroke-width:0.639464">
            <path d="m 421.535,-261.133 c 1.574,0.898 3.86,4.528 5.824,5.723 1.039,0.711 3.7,1.933 4.153,1.621 -1.164,-1.606 -3.555,-3.649 -5.926,-3.852" style="fill:none;stroke:#000000;stroke-width:1.67244;stroke-linecap:round;stroke-linejoin:round;stroke-miterlimit:10;stroke-dasharray:none;stroke-opacity:1" id="path282" sodipodi:nodetypes="cccc" />
         </g>
         <g id="g284" transform="scale(1,-1)" style="stroke-width:0.639464">
            <path d="m 429.102,-257.902 c -0.497,0.031 1.27537,-2.41567 1.14237,-2.81767" style="fill:none;stroke:#000000;stroke-width:1.67244;stroke-linecap:round;stroke-linejoin:round;stroke-miterlimit:10;stroke-dasharray:none;stroke-opacity:1" id="path286" sodipodi:nodetypes="cc" />
         </g>
         <g id="g288" transform="scale(1,-1)" style="stroke-width:0.639464">
            <path d="m 421.535,-261.133 0.004,-0.015 -0.004,-0.04 v -0.058 l 0.27,-0.059 0.14,-0.121 -0.238,-0.051 -0.039,0.028 -0.051,-0.031 -0.035,0.015 -0.062,-0.015 -0.067,-0.008 0.031,-0.02 0.016,-0.027 -0.027,-0.008 v -0.012 l -0.008,-0.004 0.09,-0.003 0.054,-0.051 -0.066,-0.02 -0.012,0.016 -0.019,0.004 -0.016,0.015 0.024,-0.011 0.05,0.027 -0.066,-0.027 -0.078,-0.071 0.004,-0.05 0.011,-0.008 v -0.024 l -0.136,-0.004 -0.102,0.024 0.039,-0.02 -0.008,-0.023 0.004,-0.004 h 0.004 l -0.004,-0.027 -0.019,-0.039 -0.02,-0.036 -0.019,-0.023 -0.028,-0.016 -0.027,-0.023 0.008,-0.016 -0.004,-0.031 -0.024,-0.008 -0.019,0.008 -0.008,-0.023 -0.004,-0.008 v -0.012 h -0.019 l -0.02,-0.019 h -0.019 l -0.004,-0.004 -0.004,0.004" style="fill:none;stroke:#000000;stroke-width:1.67244;stroke-linecap:round;stroke-linejoin:round;stroke-miterlimit:10;stroke-dasharray:none;stroke-opacity:1" id="path290" />
         </g>
         <g id="g292" transform="scale(1,-1)" style="stroke-width:0.639464">
            <path d="m 388.891,-281.266 c -1.899,1.274 2.175,2.461 2.773,3.891 1.313,1.867 4.941,1.539 5.633,-0.555 1.902,-1.14 -1.723,-2.41 -2.809,-3.125" style="fill:none;stroke:#000000;stroke-width:1.67244;stroke-linecap:round;stroke-linejoin:round;stroke-miterlimit:10;stroke-dasharray:none;stroke-opacity:1" id="path294" />
         </g>
         <g id="g296" transform="scale(1,-1)" style="stroke-width:0.639464">
            <path d="m 407.23,-276.75 c -1.621,0.285 -3.777,1.633 -0.312,2.273 3.379,1.399 6.344,3.93 10.113,4.196 2.434,0.883 5.598,1.808 7.504,-0.434 l -0.078,-0.004 -0.086,-0.004" style="fill:none;stroke:#000000;stroke-width:1.67244;stroke-linecap:round;stroke-linejoin:round;stroke-miterlimit:10;stroke-dasharray:none;stroke-opacity:1" id="path298" />
         </g>
         <g id="g300" transform="scale(1,-1)" style="stroke-width:0.639464">
            <path d="m 415.465,-272.637 c -0.121,-0.051 0.805,-0.246 0.742,-0.531" style="fill:none;stroke:#000000;stroke-width:1.67244;stroke-linecap:round;stroke-linejoin:round;stroke-miterlimit:10;stroke-dasharray:none;stroke-opacity:1" id="path302" />
         </g>
         <g id="g304" transform="scale(1,-1)" style="stroke-width:0.639464">
            <path d="m 400.199,-283.207 c 3.50484,-0.76934 6.99458,-1.69923 10.44146,-2.58419 3.14845,0.5662 6.25521,1.76445 9.33566,2.75403 5.53267,2.4664 11.23648,4.58984 17.18938,5.79456 2.13581,0.33148 7.21991,2.38318 3.09011,4.17266 -1.98201,0.66958 -4.05955,1.05934 -6.06756,1.65595" style="fill:none;stroke:#000000;stroke-width:1.67244;stroke-linecap:round;stroke-linejoin:round;stroke-miterlimit:10;stroke-dasharray:none;stroke-opacity:1" id="path306" />
         </g>
         <g id="g308" transform="scale(1,-1)" style="stroke-width:0.639464">
            <path d="m 427.715,-266.172 c 1.746,6.055 7.859,9.074 11.269,14.027 4.832,5.989 9.684,12.168 16.153,16.485" style="fill:none;stroke:#000000;stroke-width:1.67244;stroke-linecap:round;stroke-linejoin:round;stroke-miterlimit:10;stroke-dasharray:none;stroke-opacity:1" id="path310" />
         </g>
         <g id="g312" transform="scale(1,-1)" style="stroke-width:0.639464">
            <path d="m 455.137,-235.66 c 8.531,-1.242 20.26302,-0.33717 28.52502,-3.23117" style="fill:none;stroke:#000000;stroke-width:1.67244;stroke-linecap:round;stroke-linejoin:round;stroke-miterlimit:10;stroke-dasharray:none;stroke-opacity:1" id="path314" sodipodi:nodetypes="cc" />
         </g>
         <g id="g316" transform="scale(1,-1)" style="stroke-width:0.639464">
            <path d="m 482.379,-240.773 c -5.926,-5.407 -11.899,-10.84 -16.738,-17.278 -3.739,-4.363 -8.309,-7.984 -11.625,-12.711" style="fill:none;stroke:#000000;stroke-width:1.67244;stroke-linecap:round;stroke-linejoin:round;stroke-miterlimit:10;stroke-dasharray:none;stroke-opacity:1" id="path318" />
         </g>
         <g id="g320" transform="scale(1,-1)" style="stroke-width:0.639464">
            <path d="m 454.531,-236.133 c 3.703,3.613 8.508,5.863 12.133,9.563 1.121,0.843 2.328,1.636 3.703,1.996" style="fill:none;stroke:#000000;stroke-width:1.67244;stroke-linecap:round;stroke-linejoin:round;stroke-miterlimit:10;stroke-dasharray:none;stroke-opacity:1" id="path322" />
         </g>
         <g id="g324" transform="scale(1,-1)" style="stroke-width:0.639464">
            <path d="m 466.664,-226.57 c -3.305,4.016 2.984,10.707 6.754,9.613 4.644,-1.574 9.566,-1.594 14.344,-2.539 5.898,-1.008 12.449,-1.641 17.101,-5.813 2.821,-3.621 3.016,-8.507 4.325,-12.789 1.863,-4.597 -2.418,-6.64 -5.583,-6.855" style="fill:none;stroke:#000000;stroke-width:1.67244;stroke-linecap:round;stroke-linejoin:round;stroke-miterlimit:10;stroke-dasharray:none;stroke-opacity:1" id="path326" sodipodi:nodetypes="cccccc" />
         </g>
         <g id="g328" transform="scale(1,-1)" style="stroke-width:0.639464">
            <path d="m 487.941,-227.184 c 3.539,1.047 6.981,-2.246 9.727,-4.195 2.523,-3.82 4.805,-8.07 4.824,-12.805 0.145,-0.961 0.871,-2.121 0.492,-3.004" style="fill:none;stroke:#000000;stroke-width:1.67244;stroke-linecap:round;stroke-linejoin:round;stroke-miterlimit:10;stroke-dasharray:none;stroke-opacity:1" id="path330" />
         </g>
         <g id="g332" transform="scale(1,-1)" style="stroke-width:0.639464">
            <path d="m 504.094,-246.117 c -3.86958,-2.86758 -6.08526,-7.44957 -10.137,-10.11 -0.39262,-0.30829 -2.527,-2.445 -2.527,-2.445" style="fill:none;stroke:#000000;stroke-width:1.67244;stroke-linecap:round;stroke-linejoin:round;stroke-miterlimit:10;stroke-dasharray:none;stroke-opacity:1" id="path334" sodipodi:nodetypes="ccc" />
         </g>
         <g id="g336" transform="scale(1,-1)" style="stroke-width:0.639464">
            <path d="m 492.793,-232.09 c -3.793,-2.476 -7.145,-5.558 -10.332,-8.758" style="fill:none;stroke:#000000;stroke-width:1.67244;stroke-linecap:round;stroke-linejoin:round;stroke-miterlimit:10;stroke-dasharray:none;stroke-opacity:1" id="path338" />
         </g>
         <g id="g340" transform="scale(1,-1)" style="stroke-width:0.639464">
            <path d="m 491.43,-258.672 c -0.887,-1.246 -2.508,-4.976 -3.504,-6.125" style="fill:none;stroke:#000000;stroke-width:1.67244;stroke-linecap:round;stroke-linejoin:round;stroke-miterlimit:10;stroke-dasharray:none;stroke-opacity:1" id="path342" />
         </g>
         <g id="g344" transform="scale(1,-1)" style="stroke-width:0.639464">
            <path d="m 408.227,-293.426 c 9.027,4.36 22.73,8.961 31.968,12.817 10.364,3.851 21.125,6.457 31.61,9.91 5.492,1.008 10.383,4.277 15.992,4.679" style="fill:none;stroke:#000000;stroke-width:1.67244;stroke-linecap:round;stroke-linejoin:round;stroke-miterlimit:10;stroke-dasharray:none;stroke-opacity:1" id="path346" />
         </g>
         <g id="g348" transform="scale(1,-1)" style="stroke-width:0.639464">
            <path d="m 488.527,-264.938 c 1.18,-2.316 2.371,-4.667 2.723,-7.277 0.402,-1.613 0.504,-3.258 0.949,-4.863 0.16,-1.106 0.551,-2.227 0.461,-3.336" style="fill:none;stroke:#000000;stroke-width:1.67244;stroke-linecap:round;stroke-linejoin:round;stroke-miterlimit:10;stroke-dasharray:none;stroke-opacity:1" id="path350" />
         </g>
         <g id="g352" transform="scale(1,-1)" style="stroke-width:0.639464">
            <path d="m 493.871,-279.809 c 4.254,-0.043 2.121,-6.687 2.598,-9.648 -0.535,-4.383 -0.571,-8.805 -0.41,-13.195 0.843,-3.094 -2.352,-7.715 0.746,-9.895 4.215,-1.008 3.035,-6.59 3.808,-9.832 -0.043,-2.09 0.93,-4.988 0.563,-6.613" style="fill:none;stroke:#000000;stroke-width:1.67244;stroke-linecap:round;stroke-linejoin:round;stroke-miterlimit:10;stroke-dasharray:none;stroke-opacity:1" id="path354" />
         </g>
         <g id="g356" transform="scale(1,-1)" style="stroke-width:0.639464">
            <path d="m 401.207,-291.254 c 4.738,-0.855 11.91,-3.125 8.25,-9.262 l -0.199,-0.32 -0.32,-0.207" style="fill:none;stroke:#000000;stroke-width:1.67244;stroke-linecap:round;stroke-linejoin:round;stroke-miterlimit:10;stroke-dasharray:none;stroke-opacity:1" id="path358" />
         </g>
         <g id="g360" transform="scale(1,-1)" style="stroke-width:0.639464">
            <path d="m 479.316,-274.828 h 0.016 l 0.02,0.016 0.027,-0.004 v -0.016 0.016 l 0.012,0.031 h 0.011 l -0.007,0.012 -0.004,0.011 0.015,-0.004 v -0.011 l -0.015,-0.004 -0.008,-0.004 -0.004,0.008 h -0.008 l 0.024,-0.004 v -0.004 l -0.016,-0.004 -0.004,-0.004 0.004,0.004 0.019,-0.004 v -0.004 l -0.023,0.016 -0.008,0.008 -0.004,-0.008 -0.008,-0.008 0.036,0.004 v -0.035 l -0.016,0.011 -0.02,0.02 -0.003,0.012 -0.004,0.015 v 0.004 l 0.007,0.016 -0.007,0.023 v 0.004 -0.008 0.008 l 0.027,-0.019 h 0.039 -0.051 l -0.004,-0.028 v -0.015 l -0.004,-0.004 -0.015,-0.035 -0.004,-0.024 0.008,0.043 -0.028,0.008 v -0.012 l -0.004,-0.004 -0.132,0.028 -0.051,-0.008 0.086,0.004 0.019,-0.004 0.02,0.035 0.016,0.02 0.058,0.011 0.047,0.004 -0.027,-0.012 -0.02,0.032 -0.004,0.004 -0.019,0.011 -0.043,0.012 -0.274,0.012 -0.117,-0.039 0.164,0.007 0.024,-0.031 0.023,-0.008 0.023,0.032 0.032,-0.004 0.011,0.011 v 0.024 l 0.012,0.004 h 0.016 l 0.015,-0.008 v -0.016 l 0.094,-0.007 h 0.047 l -0.051,0.003 -0.015,0.004 h -0.004 l -0.016,0.004 0.027,-0.043 -0.003,-0.011 -0.028,0.019 -0.019,-0.004 -0.016,0.016 -0.012,0.008 -0.031,0.007 -0.031,0.004 -0.02,0.004 -0.035,0.016 -0.051,0.012 -0.039,0.023 -0.054,0.012 -0.032,0.023 -0.023,0.024 -0.004,-0.016 v -0.008 l -0.031,-0.008 -0.016,-0.007 v -0.008 l 0.102,-0.028 -0.016,-0.011 -0.059,0.008 h -0.007 l -0.004,0.007 0.019,-0.004 -0.168,-0.007 -0.109,-0.008 0.144,-0.031 0.028,-0.039 0.023,0.027 0.02,0.023 h 0.09 l 0.058,0.016 -0.062,0.008 -0.004,-0.055 h -0.055 l -0.055,0.004 -0.039,-0.012 0.071,-0.035 0.019,-0.035 -0.101,0.012 -0.055,-0.024 h -0.059 l -0.062,-0.011 -0.125,-0.02 -0.152,-0.008 -0.04,-0.019 h -0.015 l -0.012,-0.012 -0.035,-0.027 0.047,-0.02 v -0.012 l -0.059,-0.027 -0.027,-0.012 -0.02,-0.019 -0.011,-0.032 -0.02,0.004 -0.027,-0.027 -0.008,-0.035 -0.02,-0.02 -0.003,-0.039 v -0.015 l -0.043,-0.02 -0.051,-0.023 0.008,0.004 v -0.004 l 0.007,-0.008 0.012,-0.008 -0.055,-0.016 -0.043,-0.031 0.008,-0.043 -0.019,-0.019 -0.008,-0.059 -0.004,-0.055 -0.004,-0.031 -0.031,-0.019 -0.027,-0.028 -0.016,-0.047 -0.027,-0.035 -0.012,-0.047 -0.024,-0.031 -0.027,-0.066 -0.016,-0.051 -0.023,-0.012 -0.031,-0.008 -0.028,-0.031 -0.019,-0.012 -0.043,-0.043 -0.227,-0.007 -0.039,-0.016 0.094,-0.055 0.023,-0.031 0.02,-0.023 0.02,-0.02 0.183,-0.035 0.121,-0.059 -0.133,-0.023 -0.023,-0.074 -0.02,-0.032 -0.019,-0.015 -0.059,-0.031 0.02,-0.067 0.035,-0.047 -0.047,-0.023 0.008,-0.059 -0.004,-0.043 -0.019,-0.054 -0.079,-0.063 -0.011,-0.086 0.035,-0.054 0.004,-0.055 -0.016,-0.063 -0.004,-0.043 -0.023,-0.007 -0.016,-0.04 0.008,-0.105 -0.004,-0.07 v -0.11 l 0.004,-0.043 -0.016,-0.019 -0.035,-0.028 0.004,-0.054 -0.008,-0.028 0.016,-0.027 0.004,-0.027 -0.012,-0.055 -0.023,-0.016 -0.02,-0.011 -0.012,-0.028 -0.011,-0.031 -0.004,-0.035 -0.004,-0.031 -0.11,-0.004 -0.046,-0.028 0.07,-0.027 0.019,-0.047 0.016,-0.062 0.004,-0.028 0.051,-0.066 -0.012,-0.027 -0.027,-0.02 -0.004,-0.043 -0.016,-0.031 0.016,-0.043 -0.047,-0.047 -0.137,-0.101 -0.008,-0.098 0.043,-0.028 0.004,-0.046 -0.019,-0.039 -0.004,-0.043 -0.16,-0.016 -0.071,-0.059 0.121,-0.039 0.028,-0.062 -0.004,-0.043 0.016,-0.016 0.031,0.004 0.054,-0.027 0.032,-0.051 -0.008,-0.008 0.012,-0.027 0.003,-0.024 0.024,-0.031 -0.086,-0.027 -0.031,-0.047 0.101,-0.008 0.028,-0.035 0.05,-0.031 0.036,-0.016 0.074,-0.055 0.082,-0.019 0.008,-0.012 0.047,-0.062 0.054,-0.035 0.043,-0.055 0.07,-0.047 0.137,-0.008 0.106,-0.055 v -0.062 l 0.074,-0.047 0.074,-0.019 0.035,-0.036 0.074,-0.066 0.063,-0.039 0.004,0.019 0.043,-0.019 0.016,-0.012 0.015,-0.008 h 0.008 l -0.012,-0.027 0.012,-0.027 0.027,0.008 v 0.003 l 0.024,0.004 -0.004,0.012 -0.016,0.016 -0.015,0.027 -0.012,0.023 -0.024,0.012 -0.007,-0.008 0.046,-0.011 0.188,-0.032 0.012,-0.015 -0.121,0.019 -0.051,-0.019 h -0.031 l -0.028,-0.004 -0.226,0.012 -0.137,-0.036 0.129,-0.003 h 0.07 -0.008 l 0.012,0.003 0.086,0.028 0.105,0.051 0.012,-0.024 0.004,-0.012" style="fill:none;stroke:#000000;stroke-width:1.67244;stroke-linecap:round;stroke-linejoin:round;stroke-miterlimit:10;stroke-dasharray:none;stroke-opacity:1" id="path362" />
         </g>
         <g id="g364" transform="scale(1,-1)" style="stroke-width:0.639464">
            <path d="m 484.047,-274.895 0.012,0.004 -0.004,0.02 -0.024,0.023 -0.011,0.028 -0.008,0.035 -0.024,0.015 -0.035,0.032 0.008,-0.032 v -0.023 l -0.047,0.008 -0.012,-0.02 -0.007,-0.004 0.003,0.012 0.004,-0.019 0.012,-0.008 -0.004,0.004 -0.004,0.027 v 0.02 -0.016 l -0.14,0.012 -0.063,-0.032 h 0.109 l -0.031,0.032 -0.019,-0.008 0.035,0.008 0.09,-0.02 0.043,0.047 -0.012,0.016 0.016,-0.051 -0.024,-0.012 0.004,-0.035 0.004,-0.023 0.129,-0.043 0.055,-0.051 -0.102,0.004 -0.004,-0.004 -0.019,0.015 -0.016,0.016 -0.012,-0.012 -0.058,-0.015 -0.059,-0.008 0.035,-0.016 0.008,-0.011 h 0.008 l 0.008,0.015 0.156,-0.012 0.07,-0.054 -0.117,0.011 0.004,-0.031 -0.016,0.004 -0.015,-0.008 -0.012,-0.011 0.019,-0.016 0.004,-0.027 -0.015,0.004 h -0.004 l -0.004,0.011 -0.004,-0.015 -0.102,-0.02 -0.039,-0.027 0.047,-0.004 0.008,-0.008 0.004,-0.012 0.008,0.012 v 0.012 l -0.02,0.011 0.012,-0.019 0.023,-0.004 0.008,-0.016 -0.015,0.004 h -0.012 l 0.004,0.02 v 0.012 l -0.004,-0.012 -0.008,0.004 -0.004,0.004 0.016,-0.028 -0.028,-0.047 -0.05,-0.023 -0.004,-0.008 h 0.011 -0.003 l -0.071,-0.015 -0.191,0.023 0.047,0.008 0.097,-0.043 h 0.032 l 0.023,0.004 0.027,0.004 0.157,-0.008 0.117,-0.008 -0.094,-0.019 -0.012,-0.032 -0.015,0.004 -0.012,0.016 -0.012,-0.039 -0.074,-0.047" style="fill:none;stroke:#000000;stroke-width:1.67244;stroke-linecap:round;stroke-linejoin:round;stroke-miterlimit:10;stroke-dasharray:none;stroke-opacity:1" id="path366" />
         </g>
         <g id="g368" transform="scale(1,-1)" style="stroke-width:0.639464">
            <path d="m 420.41,-316.137 c 5.43,2.594 13.512,5.688 19.801,3.235 38.84676,-11.91188 83.03751,-22.81233 118.262,-38.481 3.578,-2.164 6.289,-5.871 7.48,-9.648 -1.78417,-15.31042 -2.80584,-30.44279 -4.297,-45.41 0.117,-2.973 2.477,-5.082 2.301,-8.161 0.137,-2.851 0.492,-4.484 0.273,-7.207 0.594,-4.339 -3.648,-3.738 -4.3,-6.75 -0.883,-4.199 -3.688,-8.808 -4.86,-13.281 -1.617,-3.805 -3.55,-7.23 -5.406,-10.863 -0.852,-1.906 -1.57,-4.223 -3.035,-5.66 -4.609,-1.766 -10.676,1.726 -15.871,1.836 l -114.141,45.605 -0.289,0.899" style="fill:none;stroke:#000000;stroke-width:1.67244;stroke-linecap:round;stroke-linejoin:round;stroke-miterlimit:10;stroke-dasharray:none;stroke-opacity:1" id="path370" sodipodi:nodetypes="cccccccccccccc" />
         </g>
         <g id="g372" transform="scale(1,-1)" style="stroke-width:0.639464">
            <path d="m 421.258,-320.539 c 6.605,2.105 13.812,2.25 20.484,0.25 8.797,-2.121 17.016,-6.094 25.785,-8.363 10.008,-3.481 20.336,-5.879 30.348,-9.254 8.383,-2.918 17.195,-4.723 25.437,-8.121 6.118,-3.161 12.575,-5.411 18.93,-8.133 5.153,-1.309 11.719,-4.656 12.516,-10.387 0.68,-3.234 -0.598,-5.062 -0.324,-8.398 0.078,-2.918 -0.93,-6.532 -0.446,-9.785 -0.711,-5.43 -0.465,-10.844 -1.625,-16.25 -1.043,-5.852 -2.066,-11.821 -3.121,-17.731 -0.226,-4.797 -0.082,-9.348 -1.422,-13.977 -0.222,-3.574 -0.668,-7.335 -1.863,-10.855 -0.691,-2.312 -1.508,-5.523 -2.367,-7.473 -0.949,-1.687 -1.473,-3.402 -3.469,-3.75 0,0 -83.133,29.391 -79.281,28.418 -8.801,3.387 -16.852,8.379 -25.567,11.973 -5.05,1.715 -4.648,7.16 -4.289,11.027 0.371,13.25 -3.898,50.5 1.821,70.868 -0.157,1.035 1.406,1.32 1.039,1.121 0.636,0.191 -0.289,-0.489 -0.043,0.011" style="fill:none;stroke:#000000;stroke-width:1.67244;stroke-linecap:round;stroke-linejoin:round;stroke-miterlimit:10;stroke-dasharray:none;stroke-opacity:1" id="path374" />
         </g>
         <g id="g376" transform="scale(1,-1)" style="stroke-width:0.639464">
            <path d="m 433.793,-329.242 c 36.184,-9.188 74.777,-21.367 108.5,-34.235 l 0.996,-0.625 c -0.125,0.051 2.934,-2.57479 3.551,-2.41079" style="fill:none;stroke:#000000;stroke-width:1.67244;stroke-linecap:round;stroke-linejoin:round;stroke-miterlimit:10;stroke-dasharray:none;stroke-opacity:1" id="path378" sodipodi:nodetypes="cccc" />
         </g>
         <g id="g380" transform="scale(1,-1)" style="stroke-width:0.639464">
            <path d="m 546.84,-366.51279 c 0.22617,-4.92188 -1.035,-17.40521 -2.184,-24.19421 -1.187,-12.434 -0.742,-25.039 -3.199,-37.34 -1.012,-6.375 -0.434,-12.871 -1.621,-19.223 l -0.348,-1.042 0.266,0.203 -0.332,-0.145" style="fill:none;stroke:#000000;stroke-width:1.67244;stroke-linecap:round;stroke-linejoin:round;stroke-miterlimit:10;stroke-dasharray:none;stroke-opacity:1" id="path382" sodipodi:nodetypes="ccccccc" />
         </g>
         <g id="g384" transform="scale(1,-1)" style="stroke-width:0.639464">
            <path d="m 437.504,-412.363 89.031,-31.676 c 3.274,-1.055 5.945,-4.02 9.449,-4.156" style="fill:none;stroke:#000000;stroke-width:1.67244;stroke-linecap:round;stroke-linejoin:round;stroke-miterlimit:10;stroke-dasharray:none;stroke-opacity:1" id="path386" />
         </g>
         <g id="g388" transform="scale(1,-1)" style="stroke-width:0.639464">
            <path d="m 439.059,-339.773 c -2.164,-2.844 -0.918,-5.696 -1.196,-9.641 0.418,-5.68 -0.258,-11.195 -0.187,-16.848 -0.77,-6.195 -0.836,-12.511 -0.688,-18.707 0.567,-4.875 -0.508,-9.969 0.266,-14.902 0.719,-3.164 -0.043,-6.789 0.613,-9.598" style="fill:none;stroke:#000000;stroke-width:1.67244;stroke-linecap:round;stroke-linejoin:round;stroke-miterlimit:10;stroke-dasharray:none;stroke-opacity:1" id="path390" />
         </g>
         <g id="g392" transform="scale(1,-1)" style="stroke-width:0.639464">
            <path d="m 439.438,-339.391 c 32.21066,-8.52182 63.30477,-20.66193 95.09794,-30.54796 10e-4,-0.66266 7.2302,-2.10666 6.09706,-2.38504" style="fill:none;stroke:#000000;stroke-width:1.67244;stroke-linecap:round;stroke-linejoin:round;stroke-miterlimit:10;stroke-dasharray:none;stroke-opacity:1" id="path394" sodipodi:nodetypes="ccc" />
         </g>
         <g id="g396" transform="scale(1,-1)" style="stroke-width:0.639464">
            <path d="m 540.633,-372.324 c 1.03662,-0.18607 1.82704,-1.18591 2.16881,-2.13208 0.3706,-1.12045 0.57577,-2.27978 0.74112,-3.44195" style="fill:none;stroke:#000000;stroke-width:1.67244;stroke-linecap:round;stroke-linejoin:round;stroke-miterlimit:10;stroke-dasharray:none;stroke-opacity:1" id="path398" />
         </g>
         <g id="g400" transform="scale(1,-1)" style="stroke-width:0.639464">
            <path d="m 555.832,-416.711 c -1.35223,0.74977 1.771,-0.31854 2.004,-1.17095 1.01615,-1.17619 0.28813,-2.65283 -0.0356,-3.92451 0.13619,-1.64287 -0.24554,-3.26713 -0.25597,-4.90846 -0.84278,-1.38724 -2.37943,-2.11037 -3.89613,-2.51619 -0.29185,-0.0453 -0.59379,-0.0533 -0.88238,0.0202" style="fill:none;stroke:#000000;stroke-width:1.67244;stroke-linecap:round;stroke-linejoin:round;stroke-miterlimit:10;stroke-dasharray:none;stroke-opacity:1" id="path402" />
         </g>
         <g id="g404" transform="scale(1,-1)" style="stroke-width:0.639464">
            <path d="m 558.793,-418.535 c 0.41654,1.21334 0.71359,2.65094 1.86303,3.402" style="fill:none;stroke:#000000;stroke-width:1.67244;stroke-linecap:round;stroke-linejoin:round;stroke-miterlimit:10;stroke-dasharray:none;stroke-opacity:1" id="path406" />
         </g>
         <g id="g408" transform="scale(1,-1)" style="stroke-width:0.639464">
            <path d="m 421.133,-320.773 c 0.668,-3.286 -1.145,-8.348 -0.918,-11.625 0.008,-2.868 -0.035,-6.735 -0.418,-9" style="fill:none;stroke:#000000;stroke-width:1.67244;stroke-linecap:round;stroke-linejoin:round;stroke-miterlimit:10;stroke-dasharray:none;stroke-opacity:1" id="path410" />
         </g>
         <g id="g412" transform="scale(1,-1)" style="stroke-width:0.639464">
            <path d="m 419.812,-342.41 c -0.773,-2.465 0.313,-8.82 -3.804,-6.848 -1.344,0.488 -6.012,1.082 -2.613,2.403 2.343,1.035 4.695,2.054 6.992,3.187" style="fill:none;stroke:#000000;stroke-width:1.67244;stroke-linecap:round;stroke-linejoin:round;stroke-miterlimit:10;stroke-dasharray:none;stroke-opacity:1" id="path414" />
         </g>
         <g id="g416" transform="scale(1,-1)" style="stroke-width:0.639464">
            <path d="m 409.488,-348.238 c -1.468,-0.317 -4.066,1.187 -2.851,-1.469 -0.16,-1.824 0.129,-3.695 -0.11,-5.551 -0.004,-1.91 0.274,-3.812 -0.129,-5.703 0.008,-2.832 -0.558,-5.633 -0.265,-8.418 -0.262,-2.641 2.734,-3.035 4.633,-3.715 1.765,-0.773 3.546,-1.5 5.25,-2.402 l -0.129,0.117" style="fill:none;stroke:#000000;stroke-width:1.67244;stroke-linecap:round;stroke-linejoin:round;stroke-miterlimit:10;stroke-dasharray:none;stroke-opacity:1" id="path418" />
         </g>
         <g id="g420" transform="scale(1,-1)" style="stroke-width:0.639464">
            <path d="m 417.707,-349.734 c 0.031,-3.899 0,-7.844 -0.441,-11.7 -0.551,-4.601 -0.774,-9.214 -0.805,-13.836 2.391,-3.316 0.047,-7.41 0.519,-11.085 2.418,-2.426 3.442,-5.43 3.719,-8.872 -0.07,-3.32 0.442,-6.644 -0.137,-9.945 -0.191,-1.625 -0.624,-5.437 -0.734,-5.746" style="fill:none;stroke:#000000;stroke-width:1.67244;stroke-linecap:round;stroke-linejoin:round;stroke-miterlimit:10;stroke-dasharray:none;stroke-opacity:1" id="path422" />
         </g>
         <g id="g424" transform="scale(1,-1)" style="stroke-width:0.639464">
            <path d="m 415.605,-379.441 c -0.3552,-1.63869 -1.72424,-2.73319 -2.80404,-3.90869 -1.43648,-0.50861 -3.14895,-1.4609 -4.59993,-0.47728 -0.92661,0.54723 -1.9327,1.04021 -2.48303,2.01383 -0.94524,1.19441 -1.87155,2.55992 -1.86371,4.1467 -0.29353,1.18629 0.41349,2.26978 0.57928,3.29944" style="fill:none;stroke:#000000;stroke-width:1.67244;stroke-linecap:round;stroke-linejoin:round;stroke-miterlimit:10;stroke-dasharray:none;stroke-opacity:1" id="path426" />
         </g>
         <g id="g428" transform="scale(1,-1)" style="stroke-width:0.639464">
            <path d="m 417.094,-339.715 c 0.008,1.313 -0.696,2.953 -2.121,3.344 -1.211,0.105 -2.469,-0.453 -3.653,-0.133 -0.097,1.164 -0.937,2.254 -2.218,1.297 -1.028,-1.199 -2.52,-1.945 -3.446,-3.309 -1.367,-1.257 -0.445,-2.941 -0.597,-4.48 0.238,-0.969 -0.082,-2.356 0.046,-3.02" style="fill:none;stroke:#000000;stroke-width:1.67244;stroke-linecap:round;stroke-linejoin:round;stroke-miterlimit:10;stroke-dasharray:none;stroke-opacity:1" id="path430" />
         </g>
         <g id="g432" transform="scale(1,-1)" style="stroke-width:0.639464">
            <path d="m 420.441,-316.215 c -0.136,4.797 -3.507,9.629 -7.132,12.617 -0.696,0.489 -1.422,0.938 -2.207,1.274" style="fill:none;stroke:#000000;stroke-width:1.67244;stroke-linecap:round;stroke-linejoin:round;stroke-miterlimit:10;stroke-dasharray:none;stroke-opacity:1" id="path434" />
         </g>
         <g id="g436" transform="scale(1,-1)" style="stroke-width:0.639464">
            <path d="m 417.859,-296.691 c 3.55225,-1.36991 7.09862,-3.19763 9.40885,-6.33156 1.76079,-2.34314 3.16059,-4.96262 4.2201,-7.68777 0.0844,-0.28711 0.14962,-0.57931 0.12124,-0.87967" style="fill:none;stroke:#000000;stroke-width:0.83622;stroke-linecap:round;stroke-linejoin:round;stroke-miterlimit:10;stroke-dasharray:none;stroke-opacity:1" id="path438" />
         </g>
         <g id="g440" transform="scale(1,-1)" style="stroke-width:0.639464">
            <path d="m 437.969,-312.02081 c -0.817,0.438 -0.52,5.52481 0.429,6.67681 7.664,4.727 35.79,16.625 51.036,17.992 0.953,-0.918 0.636,-2.992 0.765,-3.902" style="fill:none;stroke:#000000;stroke-width:0.83622;stroke-linecap:round;stroke-linejoin:round;stroke-miterlimit:10;stroke-dasharray:none;stroke-opacity:1" id="path442" sodipodi:nodetypes="cccc" />
         </g>
         <g id="g444" transform="scale(1,-1)" style="stroke-width:0.639464">
            <path d="m 490.49999,-296.895 c 0.69272,1.38531 1.55101,2.707 2.71901,1.473 1.117,-0.738 1.433,-1.933 1.773,-3.254 -0.015,-0.48 0.578,-0.691 0.192,-1.359 0.621,-0.574 0.086,-1.305 0.574,-2.063 -0.684,-0.379 0.75,-0.449 0.027,-0.48 l 0.024,-0.125 0.07,-0.207" style="fill:none;stroke:#000000;stroke-width:0.83622;stroke-linecap:round;stroke-linejoin:round;stroke-miterlimit:10;stroke-dasharray:none;stroke-opacity:1" id="path446" sodipodi:nodetypes="cccccccc" />
         </g>
         <g id="g448" transform="scale(1,-1)" style="stroke-width:0.639464">
            <path d="m 494.809,-302.574 c 0.16564,-0.64392 1.30487,-0.71138 1.04698,-1.52792 -0.21893,-1.53048 -0.68117,-3.246 -2.06736,-4.12615 -0.80863,-0.48008 -1.89343,-0.62537 -2.74927,-0.21013 -0.54483,0.54296 -0.429,1.43262 -0.96899,1.99055 -0.42152,1.06587 -0.24766,2.24577 -0.24094,3.36398 0.35082,1.25699 -0.01,2.57984 0.2756,3.84567 -0.0649,0.81468 0.0911,1.74104 0.54682,2.4055 0.0854,-0.0652 -0.13081,-0.0941 -0.15185,-0.0625" style="fill:none;stroke:#000000;stroke-width:0.83622;stroke-linecap:round;stroke-linejoin:round;stroke-miterlimit:10;stroke-dasharray:none;stroke-opacity:1" id="path450" />
         </g>
         <g id="g452" transform="scale(1,-1)" style="stroke-width:0.639464">
            <path d="m 490.379,-313.238 c 0.95916,0.80917 2.44072,0.5908 3.58869,0.53421 1.34504,-0.53453 1.82862,-2.02058 2.53451,-3.15555 0.43167,-1.1273 0.75609,-2.29109 1.03175,-3.46638 0.0927,-1.25177 0.18393,-2.57143 0.89605,-3.65428 0.18621,-1.69774 0.56232,-3.39826 0.9833,-5.03649 0.0887,-0.24136 0.31092,-1.41428 -0.2723,-0.76851" style="fill:none;stroke:#000000;stroke-width:0.83622;stroke-linecap:round;stroke-linejoin:round;stroke-miterlimit:10;stroke-dasharray:none;stroke-opacity:1" id="path454" />
         </g>
         <g id="g456" transform="scale(1,-1)" style="stroke-width:0.639464">
            <path d="m 490.938,-312.371 c 0.0646,-1.27872 -0.0111,-2.58203 0.22226,-3.91189 0.11612,-1.27251 -0.22208,-2.51353 -0.27739,-3.77886 -0.16524,-1.83203 -1.17214,-3.48538 -1.08673,-5.35717 -0.12585,-0.2393 0.30863,-1.82656 0.0278,-1.31108" style="fill:none;stroke:#000000;stroke-width:0.83622;stroke-linecap:round;stroke-linejoin:round;stroke-miterlimit:10;stroke-dasharray:none;stroke-opacity:1" id="path458" />
         </g>
         <g id="g460" transform="scale(1,-1)" style="stroke-width:0.639464">
            <path d="m 479.047,-278.734 c 0.45242,0.0496 0.55934,-0.52217 0.0661,-0.55166 -0.69652,-0.22236 -1.43558,0.16567 -1.93133,0.63665 -0.1565,0.4847 -0.41978,0.89112 -0.54637,1.38065 -0.005,0.56468 0.16006,1.15264 0.48627,1.61672 0.35514,0.34217 0.71628,0.73227 1.20236,0.88164 0.7701,-0.1508 1.66299,-0.51208 1.8911,-1.34414 0.19618,-0.5743 0.33319,-1.25995 -0.0105,-1.80771 -0.0987,-0.59442 -0.26046,-1.20758 -0.8854,-1.42126 -0.51288,-0.47982 -1.33341,-0.0589 -1.91968,0.10364 -0.10639,0.0442 -0.21099,0.0928 -0.31349,0.14547" style="fill:none;stroke:#000000;stroke-width:0.83622;stroke-linecap:round;stroke-linejoin:round;stroke-miterlimit:10;stroke-dasharray:none;stroke-opacity:1" id="path462" />
         </g>
         <g id="g464" transform="scale(1,-1)" style="stroke-width:0.639464">
            <path d="m 483.512,-276.281 c 0.156,-0.004 0.617,-0.102 0.179,-0.016 0.36,-0.039 -0.156,0.242 0.145,0.496 -0.141,0.485 0.555,0.942 0.684,0.805 -0.54,0.074 -0.446,-0.469 -0.793,-0.66" style="fill:none;stroke:#000000;stroke-width:0.83622;stroke-linecap:round;stroke-linejoin:round;stroke-miterlimit:10;stroke-dasharray:none;stroke-opacity:1" id="path466" />
         </g>
         <g id="g468" transform="scale(1,-1)" style="stroke-width:0.639464">
            <path d="m 451.988,-310.844 c 0.239,-0.457 -0.359,2.41 -0.676,3.758 -1.222,2.551 1.036,2.672 2.989,3.535 2.894,0.828 3.625,0.004 3.621,-2.586 0.211,-2.125 0.109,-4.031 -2.418,-4.414 -1.09,-0.426 -2.633,-1.394 -3.516,-0.293" style="fill:none;stroke:#000000;stroke-width:0.83622;stroke-linecap:round;stroke-linejoin:round;stroke-miterlimit:10;stroke-dasharray:none;stroke-opacity:1" id="path470" sodipodi:nodetypes="cccccc" />
         </g>
         <g id="g472" transform="scale(1,-1)" style="stroke-width:0.639464">
            <path d="m 461.16,-306.984 c 0,0 -0.781,4.793 0.145,6.64 1.027,1.352 4.695,1.168 5.765,1.637 1.766,0.203 0.567,-3.199 0.762,-4.809 0.645,-2.679 -3.77,-3.035 -5.777,-3.843 -0.45,-0.114 -0.836,-0.141 -0.895,0.375" style="fill:none;stroke:#000000;stroke-width:0.83622;stroke-linecap:round;stroke-linejoin:round;stroke-miterlimit:10;stroke-dasharray:none;stroke-opacity:1" id="path474" sodipodi:nodetypes="cccccc" />
         </g>
         <g id="g476" transform="scale(1,-1)" style="stroke-width:0.639464">
            <path d="m 470.77,-303.258 c 0.679,1.918 -0.387,4.477 0.382,6.625 1.692,0.582 4.825,1.094 5.743,1.465 0.132,-1.777 0.914,-4.238 0.351,-5.66 -1.074,-1.508 -5.367,-2.574 -6.476,-2.43" style="fill:none;stroke:#000000;stroke-width:0.83622;stroke-linecap:round;stroke-linejoin:round;stroke-miterlimit:10;stroke-dasharray:none;stroke-opacity:1" id="path478" sodipodi:nodetypes="ccccc" />
         </g>
         <g id="g480" transform="scale(1,-1)" style="stroke-width:0.639464">
            <path d="m 480.02,-298.43 c 0.11062,1.09178 -1.102,4.262 0.418,5.77 0.703,1.242 3.714,1.43 4.874,1.07 0.176,-1.195 0.543,-4.59 0.083,-5.609 -0.43,-1.113 -3.851,-1.802 -5.375,-1.231" style="fill:none;stroke:#000000;stroke-width:0.83622;stroke-linecap:round;stroke-linejoin:round;stroke-miterlimit:10;stroke-dasharray:none;stroke-opacity:1" id="path482" sodipodi:nodetypes="ccccc" />
         </g>
         <g id="g484" transform="scale(1,-1)" style="stroke-width:0.639464">
            <path d="m 478.961,-305.004 c 1.98,0.32193 4.93,2.926 5.648,0.692 -0.054,-1.59 0.168,-3.551 -0.05,-4.614 -1.317,-1.211 -5.219,-3.812 -4.813,-1.16 0.445,1.91 -0.785,5.082 -0.785,5.082" style="fill:none;stroke:#000000;stroke-width:0.83622;stroke-linecap:round;stroke-linejoin:round;stroke-miterlimit:10;stroke-dasharray:none;stroke-opacity:1" id="path486" sodipodi:nodetypes="ccccc" />
         </g>
         <g id="g488" transform="scale(1,-1)" style="stroke-width:0.639464">
            <path d="m 470.676,-309.906 c -0.696,0.601 2.765,0.613 3.418,1.773 2.293,1.606 1.644,-2.371 2.054,-3.472 -0.007,-1.375 -1.093,-2.473 -2.925,-3.204 -1.504,-0.816 -4.403,-2.519 -3.157,0.606 -0.175,1.426 0.719,2.973 0.411,4.113" style="fill:none;stroke:#000000;stroke-width:0.83622;stroke-linecap:round;stroke-linejoin:round;stroke-miterlimit:10;stroke-dasharray:none;stroke-opacity:1" id="path490" />
         </g>
         <g id="g492" transform="scale(1,-1)" style="stroke-width:0.639464">
            <path d="m 461.133,-313.88398 c 0,0 3.961,2.25898 5.574,2.52898 1.43,-0.723 0.539,-2.372 0.766,-3.762 0.136,-1.141 -1.504,-1.66 -2.614,-2.324 -0.765,-0.336 -0.992,-0.594 -0.898,-0.528" style="fill:none;stroke:#000000;stroke-width:0.83622;stroke-linecap:round;stroke-linejoin:round;stroke-miterlimit:10;stroke-dasharray:none;stroke-opacity:1" id="path494" sodipodi:nodetypes="ccccc" />
         </g>
         <g id="g496" transform="scale(1,-1)" style="stroke-width:0.639464">
            <path d="m 460.21752,-315.03742 c 0,0 0.13236,-3.6511 2.00369,-3.18442" style="fill:none;stroke:#000000;stroke-width:0.83622;stroke-linecap:round;stroke-linejoin:round;stroke-miterlimit:10;stroke-dasharray:none;stroke-opacity:1" id="path498" sodipodi:nodetypes="cc" />
         </g>
         <g id="g500" transform="scale(1,-1)" style="stroke-width:0.639464">
            <path d="m 470.148,-320.695 c 1.731,1.023 5.368,2.359 7.825,3.222 2.047,0.52 3.914,1.735 5.652,1.918 0.629,0.336 1,-0.695 1.258,-1.984 -0.641,-1.883 0.621,-3.781 -1.848,-4.125 -1.488,-0.688 -3.226,-1.074 -4.215,-1.484 -1.015,0.433 -1.031,3.234 -0.656,4.421 -0.519,0.379 0.481,0.215 -0.262,0.473" style="fill:none;stroke:#000000;stroke-width:0.83622;stroke-linecap:round;stroke-linejoin:round;stroke-miterlimit:10;stroke-dasharray:none;stroke-opacity:1" id="path502" />
         </g>
         <g id="g504" transform="scale(1,-1)" style="stroke-width:0.639464">
            <path d="m 476.242,-319.902 -0.012,-0.004 -0.019,-0.008 -0.031,-0.012 -0.028,-0.031 -0.023,-0.047 -0.016,-0.019 -0.008,-0.055 -0.007,-0.051 v -0.133 l -0.032,-0.031 0.012,-0.039 0.031,-0.031 0.012,-0.039 0.031,-0.055 0.036,-0.035 -0.055,-0.043 -0.016,-0.055 0.063,-0.035 0.023,-0.051 0.039,-0.062 0.02,-0.051 0.062,-0.043 0.086,-0.055 0.024,-0.062 -0.028,-0.055 0.016,-0.058 0.035,-0.059 0.035,-0.067 -0.023,-0.082 0.015,-0.07 0.032,-0.066 0.011,-0.051 0.004,-0.063 v -0.054 l 0.067,-0.059 -0.063,-0.058 -0.078,-0.043 0.035,-0.055 0.012,-0.039 0.004,-0.059 -0.016,-0.051 0.164,-0.039 0.067,-0.074 -0.125,-0.043 -0.055,-0.066 -0.047,-0.031 -0.031,-0.036 -0.047,-0.039 v -0.011 l 0.016,-0.008 -0.036,-0.02 -0.011,-0.027 -0.02,-0.023 0.051,-0.008 0.051,-0.004 -0.047,-0.016 h -0.035 l -0.008,0.008 -0.008,0.016 -0.023,-0.016" style="fill:none;stroke:#000000;stroke-width:0.83622;stroke-linecap:round;stroke-linejoin:round;stroke-miterlimit:10;stroke-dasharray:none;stroke-opacity:1" id="path506" />
         </g>
         <g id="g508" transform="scale(1,-1)" style="stroke-width:0.639464">
            <path d="m 474.77,-319.852 c -0.168,-0.023 -0.024,-0.566 -0.368,-0.816" style="fill:none;stroke:#000000;stroke-width:0.83622;stroke-linecap:round;stroke-linejoin:round;stroke-miterlimit:10;stroke-dasharray:none;stroke-opacity:1" id="path510" />
         </g>
         <g id="g512" transform="scale(1,-1)" style="stroke-width:0.639464">
            <path d="m 358.219,-305.008 c -0.29492,0.024 -0.0897,-0.002 -0.0231,0.053 -0.40695,-0.035 -0.76438,0.20996 -1.10851,0.3776 -0.19813,0.0118 -0.48564,0.15868 -0.34235,0.23726 -0.30553,0.0138 -0.67395,0.28376 -0.77105,0.52952 0.17015,0.0375 -0.21721,0.17599 0.0784,0.27717 0.20823,0.12896 0.62703,0.23244 0.6306,0.39023 0.4387,0.0482 0.88732,0.11035 1.32705,0.0676 0.30874,-0.1841 0.56723,-0.38802 0.94909,-0.3895 -0.18497,-0.0305 -0.30221,-0.33045 -0.18612,-0.5053 -0.30149,-0.16311 -0.70541,-0.34721 -1.04403,-0.22133 -0.54909,0.12004 -1.04351,0.39176 -1.49578,0.71669 -0.0733,0.0457 -0.14624,0.0922 -0.21676,0.14215" style="fill:none;stroke:#000000;stroke-width:0.83622;stroke-linecap:round;stroke-linejoin:round;stroke-miterlimit:10;stroke-dasharray:none;stroke-opacity:1" id="path514" />
         </g>
         <g id="g516" transform="scale(1,-1)" style="stroke-width:0.639464">
            <path d="m 313.68,-329.668 c -3,-3.594 -4.125,-8.777 -2.5,-13.215 1.234,-5.433 2.675,-11.043 6.285,-15.437 2.793,-3.828 6.105,-7.879 10.926,-9.047 3.414,-1.133 7.097,-1.715 10.652,-0.988 0.09,-0.004 0.184,-0.008 0.277,-0.012" style="fill:none;stroke:#000000;stroke-width:0.83622;stroke-linecap:round;stroke-linejoin:round;stroke-miterlimit:10;stroke-dasharray:none;stroke-opacity:1" id="path518" />
         </g>
         <g id="g520" transform="scale(1,-1)" style="stroke-width:0.639464">
            <path d="m 332.297,-325.32 c -5.24207,5.87562 -15.86604,4.29007 -19.36355,-2.71452 -3.94565,-6.74818 -4.07096,-15.47498 -0.45528,-22.3938 0.56463,-1.42383 1.2718,-4.41168 1.2718,-4.41168" style="fill:none;stroke:#000000;stroke-width:0.83622;stroke-linecap:round;stroke-linejoin:round;stroke-miterlimit:10;stroke-dasharray:none;stroke-opacity:1" id="path522" sodipodi:nodetypes="cccc" />
         </g>
         <g id="g524" transform="scale(1,-1)" style="stroke-width:0.639464">
            <path d="m 332.297,-325.32 c 10.01888,-10.77378 18.46447,-27.58108 9.941,-41.723" style="fill:none;stroke:#000000;stroke-width:0.83622;stroke-linecap:round;stroke-linejoin:round;stroke-miterlimit:10;stroke-dasharray:none;stroke-opacity:1" id="path526" sodipodi:nodetypes="ccccc" />
         </g>
         <g id="g528" transform="scale(1,-1)" style="stroke-width:0.639464">
            <path d="m 333.668,-331.883 c -1.87558,1.63472 -4.74495,1.15047 -6.61878,-0.23871 -2.39115,-1.70558 -3.68007,-4.54192 -4.07369,-7.39117 -0.73499,-3.88462 0.2276,-7.92846 2.03592,-11.38855 1.40489,-2.76173 3.83814,-4.95372 6.62291,-6.27307 1.37477,-0.58446 2.91288,-1.04479 4.41145,-0.82409 2.99981,0.80564 5.0509,3.29261 7.48519,5.04559 -0.9423,-2.37626 -3.73415,-3.34693 -6.12103,-3.11703 -4.36604,0.36013 -8.12899,3.51883 -9.83678,7.46526 -0.95162,2.0272 -1.27867,4.27605 -1.27698,6.49607 -0.24236,2.69388 -0.8031,5.65816 0.63195,8.12986 0.69686,1.01303 1.56348,1.96371 2.57899,2.65583 0.30223,0.15121 0.6786,0.1528 0.96585,-0.036" style="fill:none;stroke:#000000;stroke-width:0.83622;stroke-linecap:round;stroke-linejoin:round;stroke-miterlimit:10;stroke-dasharray:none;stroke-opacity:1" id="path530" />
         </g>
         <g id="g532" transform="scale(1,-1)" style="stroke-width:0.639464">
            <path d="m 338.961,-362.879 c -4.14928,-1.06091 -8.63258,0.17755 -12.51405,1.62997 -5.06357,2.98936 -7.869,8.7258 -9.11826,14.2791 -0.83592,5.95137 0.49089,12.39924 4.11494,17.24737 1.38897,1.70933 3.16797,3.13221 5.22437,3.94956" style="fill:none;stroke:#000000;stroke-width:0.83622;stroke-linecap:round;stroke-linejoin:round;stroke-miterlimit:10;stroke-dasharray:none;stroke-opacity:1" id="path534" sodipodi:nodetypes="ccccc" />
         </g>
         <g id="g536" transform="scale(1,-1)" style="stroke-width:0.639464">
            <path d="m 332.09,-366.18 c -4.68413,1.52914 -9.14715,4.37152 -11.62063,8.74229 -5.05205,6.40719 -6.93178,15.39974 -4.39998,23.20411 1.38789,3.51569 3.51218,6.86632 6.34693,9.35755 1.49888,0.81465 3.05608,2.09599 4.88068,1.66505" style="fill:none;stroke:#000000;stroke-width:0.83622;stroke-linecap:round;stroke-linejoin:round;stroke-miterlimit:10;stroke-dasharray:none;stroke-opacity:1" id="path538" />
         </g>
      </g>
   </g>
</svg>
