<?xml version="1.0" encoding="UTF-8" standalone="no"?>
<!-- Created by Ashley Blewer - This work is licensed under a Creative Commons Attribution 4.0 International License -->

<svg width="544" height="480" viewBox="0 0 143.93334 127" version="1.1" id="svg2490" inkscape:version="1.1.2 (08b2f3d93c, 2022-04-05)" sodipodi:docname="1995-minidv-3.svg"
   xmlns:inkscape="http://www.inkscape.org/namespaces/inkscape"
   xmlns:sodipodi="http://sodipodi.sourceforge.net/DTD/sodipodi-0.dtd"
   xmlns="http://www.w3.org/2000/svg"
   xmlns:svg="http://www.w3.org/2000/svg">
   <sodipodi:namedview id="namedview2492" pagecolor="#ffffff" bordercolor="#666666" borderopacity="1.0" inkscape:pageshadow="2" inkscape:pageopacity="0.0" inkscape:pagecheckerboard="0" inkscape:document-units="mm" showgrid="false" units="px" inkscape:zoom="0.90583674" inkscape:cx="279.29978" inkscape:cy="194.84747" inkscape:window-width="1848" inkscape:window-height="1136" inkscape:window-x="72" inkscape:window-y="27" inkscape:window-maximized="1" inkscape:current-layer="layer1" />
   <defs id="defs2487" />
   <g inkscape:label="Layer 1" inkscape:groupmode="layer" id="layer1">
      <g id="g7314" transform="matrix(0.32756485,0,0,0.3275266,-203.76647,-1.8698555)" style="stroke-width:1.07703">
         <g id="g832" transform="matrix(1.1128865,0,0,-1.1128195,-103.46292,-42.391363)" style="stroke-width:0.967813">
            <path d="m 711.324,-358.043 c -3.066,-0.18 -6.32,1.199 -6.32,1.199 -2.848,0.512 -5.707,1.672 -7.723,3.789 -5.023,5 -8.484,11.203 -12.418,16.512 -1.386,1.566 -1.367,3.801 -1.445,5.828 -0.082,2.063 0.215,4.153 -0.047,6.207 0.004,2.113 -0.32,4.215 -0.246,6.328 3.496,-6.882 5.961,-11.449 10.355,-17.617 0.868,-0.676 0.149,10.727 -0.031,11.445 -2,2.028 -3.058,4.817 -4.965,6.942 -2.058,2.719 -3.554,5.777 -5.015,8.84 -0.442,0.195 -0.008,0.457 -0.192,0.718" style="fill:none;stroke:#000000;stroke-width:2.5312;stroke-linecap:round;stroke-linejoin:round;stroke-miterlimit:10;stroke-dasharray:none;stroke-opacity:1" id="path834" />
         </g>
         <g id="g836" transform="matrix(1.1128865,0,0,-1.1128195,-103.46292,-42.391363)" style="stroke-width:0.967813">
            <path d="m 685.801,-316.781 c -0.367,-0.739 -0.367,-1.61 -0.965,-2.258 -0.242,-0.359 -0.563,-0.684 -0.981,-0.813" style="fill:none;stroke:#000000;stroke-width:2.5312;stroke-linecap:round;stroke-linejoin:round;stroke-miterlimit:10;stroke-dasharray:none;stroke-opacity:1" id="path838" />
         </g>
         <g id="g840" transform="matrix(1.1128865,0,0,-1.1128195,-103.46292,-42.391363)" style="stroke-width:0.967813">
            <path d="m 683.141,-307.707 c -0.789,13.82 -2.743,99.258 -3.414,121.957" style="fill:none;stroke:#000000;stroke-width:2.5312;stroke-linecap:round;stroke-linejoin:round;stroke-miterlimit:10;stroke-dasharray:none;stroke-opacity:1" id="path842" />
         </g>
         <g id="g844" transform="matrix(1.1128865,0,0,-1.1128195,-103.46292,-42.391363)" style="stroke-width:0.967813">
            <path d="m 681.543,-184.109 c 0.051,0.074 1.121,-0.629 1.562,-1.059 0.7,-0.375 1.415,-0.758 2.071,-1.215 0.797,-0.289 1.406,-0.855 1.945,-1.484 0.484,-0.403 1.031,-0.977 1.656,-1.067" style="fill:none;stroke:#000000;stroke-width:2.5312;stroke-linecap:round;stroke-linejoin:round;stroke-miterlimit:10;stroke-dasharray:none;stroke-opacity:1" id="path846" />
         </g>
         <g id="g848" transform="matrix(1.1128865,0,0,-1.1128195,-103.46292,-42.391363)" style="stroke-width:0.967813">
            <path d="m 679.727,-185.75 c 1.41253,-0.006 1.08482,1.70396 2.05002,2.39755" style="fill:none;stroke:#000000;stroke-width:2.5312;stroke-linecap:round;stroke-linejoin:round;stroke-miterlimit:10;stroke-dasharray:none;stroke-opacity:1" id="path850" sodipodi:nodetypes="cc" />
         </g>
         <g id="g852" transform="matrix(1.1128865,0,0,-1.1128195,-103.46292,-42.391363)" style="stroke-width:0.967813">
            <path d="m 682,-184.934 c -5.58033,25.93788 -4.47029,52.63559 -4.97714,78.985" style="fill:none;stroke:#000000;stroke-width:2.5312;stroke-linecap:round;stroke-linejoin:round;stroke-miterlimit:10;stroke-dasharray:none;stroke-opacity:1" id="path854" sodipodi:nodetypes="cccc" />
         </g>
         <g id="g856" transform="matrix(1.1128865,0,0,-1.1128195,-103.46292,-42.391363)" style="stroke-width:0.967813">
            <path d="m 677.023,-105.949 c -0.082,-0.903 1.305,-1.602 1.895,-2.531 0.867,-1.129 2.043,-1.973 2.863,-3.145 1.012,-0.945 1.992,-1.887 3.008,-2.82 0.859,-0.821 2.086,-1.481 2.613,-2.446" style="fill:none;stroke:#000000;stroke-width:2.5312;stroke-linecap:round;stroke-linejoin:round;stroke-miterlimit:10;stroke-dasharray:none;stroke-opacity:1" id="path858" />
         </g>
         <g id="g860" transform="matrix(1.1128865,0,0,-1.1128195,-103.46292,-42.391363)" style="stroke-width:0.967813">
            <path d="m 686.71358,-115.07305 c 0.067,-5.153 2.13842,-17.19295 2.27842,-22.34495 0.621,-7.762 1.196,-15.531 1.754,-23.297 0.539,-7.125 1.977,-14.207 1.524,-21.379 -0.2,-1.066 0.398,-3.922 0.218,-3.84 -1.437,2.34 -2.715,4.875 -5.004,6.52 -3.172,2.91 -3.277,14.894 -3.113,18.687 0.156,0.586 0.004,1.743 0.539,2.012" style="fill:none;stroke:#000000;stroke-width:2.5312;stroke-linecap:round;stroke-linejoin:round;stroke-miterlimit:10;stroke-dasharray:none;stroke-opacity:1" id="path862" sodipodi:nodetypes="cccccccc" />
         </g>
         <g id="g864" transform="matrix(1.1128865,0,0,-1.1128195,-103.46292,-42.391363)" style="stroke-width:0.967813">
            <path d="m 693.277,-182.176 c 2.16858,-5.95573 0.94831,-12.45643 1.56279,-18.65755 0.16082,-9.78257 3.09746,-21.07065 1.92508,-30.84428 -3.32012,-8.03126 -7.11846,6.49737 -7.34208,10.26844 -1.20578,8.34283 1.02707,16.77618 -0.14294,25.15752 0.0376,5.53988 -0.89939,11.01013 -1.20989,16.49787" style="fill:none;stroke:#000000;stroke-width:2.5312;stroke-linecap:round;stroke-linejoin:round;stroke-miterlimit:10;stroke-dasharray:none;stroke-opacity:1" id="path866" sodipodi:nodetypes="cccccc" />
         </g>
         <g id="g868" transform="matrix(1.1128865,0,0,-1.1128195,-103.46292,-42.391363)" style="stroke-width:0.967813">
            <path d="m 694.742,-234.762 c 3.34,-37.605 0.938,-76.828 3.149,-112.687 -0.051,-1.449 -0.231,-5.83038 1.113,-6.78338" style="fill:none;stroke:#000000;stroke-width:2.5312;stroke-linecap:round;stroke-linejoin:round;stroke-miterlimit:10;stroke-dasharray:none;stroke-opacity:1" id="path870" sodipodi:nodetypes="ccc" />
         </g>
         <g id="g872" transform="matrix(1.1128865,0,0,-1.1128195,-103.46292,-42.391363)" style="stroke-width:0.967813">
            <path d="m 677.023,-105.949 c 5.519,0.148 11.641,1.554 17.106,2.285 1.484,2.234 9.269,2.953 9.269,2.953 4.532,0.813 9.149,1.215 13.754,1.473 1.946,0.14 2.70507,-4.30368 3.87707,-1.56968 L 722.699,-99.02" style="fill:none;stroke:#000000;stroke-width:2.5312;stroke-linecap:round;stroke-linejoin:round;stroke-miterlimit:10;stroke-dasharray:none;stroke-opacity:1" id="path874" sodipodi:nodetypes="cccccc" />
         </g>
         <g id="g876" transform="matrix(1.1128865,0,0,-1.1128195,-103.46292,-42.391363)" style="stroke-width:0.967813">
            <path d="m 722.699,-99.02 c 85.879,1.672 168.629,10.208 251.098,15.852 3.535,-2.578 13.402,0.402 16.773,0.953 6.203,-4.457 14.262,-8.476 18.871,-13.926 l -0.308,-0.062" style="fill:none;stroke:#000000;stroke-width:2.5312;stroke-linecap:round;stroke-linejoin:round;stroke-miterlimit:10;stroke-dasharray:none;stroke-opacity:1" id="path878" />
         </g>
         <g id="g880" transform="matrix(1.1128865,0,0,-1.1128195,-103.46292,-42.391363)" style="stroke-width:0.967813">
            <path d="m 686.71358,-115.07305 c 0,0 10.878,0.76884 16.13768,1.45317 l -0.46258,-0.062 -0.46672,-0.003" style="fill:none;stroke:#000000;stroke-width:2.5312;stroke-linecap:round;stroke-linejoin:round;stroke-miterlimit:10;stroke-dasharray:none;stroke-opacity:1" id="path882" sodipodi:nodetypes="cccc" />
         </g>
         <g id="g884" transform="matrix(1.1128865,0,0,-1.1128195,-103.46292,-42.391363)" style="stroke-width:0.967813">
            <path d="m 703.391,-113.742 c 53.359,1.801 236.261,14.504 305.519,17.371" style="fill:none;stroke:#000000;stroke-width:2.5312;stroke-linecap:round;stroke-linejoin:round;stroke-miterlimit:10;stroke-dasharray:none;stroke-opacity:1" id="path886" sodipodi:nodetypes="cc" />
         </g>
         <g id="g888" transform="matrix(1.1128865,0,0,-1.1128195,-103.46292,-42.391363)" style="stroke-width:0.967813">
            <path d="m 701.92196,-113.68488 c 2.281,-2.606 -0.65196,-15.88112 6.95304,-10.48712 l 290.844,20.453 c -0.008,1.43 -3.28323,6.190015 -3.28323,6.190015" style="fill:none;stroke:#000000;stroke-width:2.5312;stroke-linecap:round;stroke-linejoin:round;stroke-miterlimit:10;stroke-dasharray:none;stroke-opacity:1" id="path890" sodipodi:nodetypes="cccc" />
         </g>
         <g id="g892" transform="matrix(1.1128865,0,0,-1.1128195,-103.46292,-42.391363)" style="stroke-width:0.967813">
            <path d="m 1008.91,-96.371 c 1.6129,-7.73317 1.2286,-15.72948 2.8035,-23.46423 0.7239,-2.36867 0.8786,-4.86617 1.1747,-7.31886 -0.087,-0.25931 0.3494,-1.92972 -0.1852,-1.45491" style="fill:none;stroke:#000000;stroke-width:2.5312;stroke-linecap:round;stroke-linejoin:round;stroke-miterlimit:10;stroke-dasharray:none;stroke-opacity:1" id="path894" />
         </g>
         <g id="g896" transform="matrix(1.1128865,0,0,-1.1128195,-103.46292,-42.391363)" style="stroke-width:0.967813">
            <path d="m 1012.703,-128.609 c -0.4383,-3.42424 0.2702,-8.73788 -1.0064,-12.00618 -1.2658,-4.87065 -2.2532,-9.83145 -2.8832,-14.81873" style="fill:none;stroke:#000000;stroke-width:2.5312;stroke-linecap:round;stroke-linejoin:round;stroke-miterlimit:10;stroke-dasharray:none;stroke-opacity:1" id="path898" sodipodi:nodetypes="ccc" />
         </g>
         <g id="g900" transform="matrix(1.1128865,0,0,-1.1128195,-103.46292,-42.391363)" style="stroke-width:0.967813">
            <path d="m 690.98703,-156.914 c 46.574,3.699 216.37597,18.172 319.96597,25.422" style="fill:none;stroke:#000000;stroke-width:2.5312;stroke-linecap:round;stroke-linejoin:round;stroke-miterlimit:10;stroke-dasharray:none;stroke-opacity:1" id="path902" sodipodi:nodetypes="cc" />
         </g>
         <g id="g904" transform="matrix(1.1128865,0,0,-1.1128195,-103.46292,-42.391363)" style="stroke-width:0.967813">
            <path d="m 695.539,-184.234 c 106.223,9.285 210.227,21.293 312.793,29.125" style="fill:none;stroke:#000000;stroke-width:2.5312;stroke-linecap:round;stroke-linejoin:round;stroke-miterlimit:10;stroke-dasharray:none;stroke-opacity:1" id="path906" />
         </g>
         <g id="g908" transform="matrix(1.1128865,0,0,-1.1128195,-103.46292,-42.391363)" style="stroke-width:0.967813">
            <path d="m 1004.805,-156.305 c 1.312,-3.175 0.558,-6.683 1.082,-10.004 -0.039,-4.586 -1.375,-9.086 -0.903,-13.691 -0.179,-2.738 0.125,-5.453 0.125,-8.203 0.524,-4.199 -1.144,-9.246 2.125,-12.684 l 0.211,-0.633 c 0.172,-0.101 1,-1.183 1.008,-1.121" style="fill:none;stroke:#000000;stroke-width:2.5312;stroke-linecap:round;stroke-linejoin:round;stroke-miterlimit:10;stroke-dasharray:none;stroke-opacity:1" id="path910" />
         </g>
         <g id="g912" transform="matrix(1.1128865,0,0,-1.1128195,-103.46292,-42.391363)" style="stroke-width:0.967813">
            <path d="m 1008.641,-203.383 c -0.582,-32.363 0.996,-76.437 -10.672,-109.992 -0.977,-0.75 -2.094,-1.258 -3.172,-1.824" style="fill:none;stroke:#000000;stroke-width:2.5312;stroke-linecap:round;stroke-linejoin:round;stroke-miterlimit:10;stroke-dasharray:none;stroke-opacity:1" id="path914" />
         </g>
         <g id="g916" transform="matrix(1.1128865,0,0,-1.1128195,-103.46292,-42.391363)" style="stroke-width:0.967813">
            <path d="m 711.223,-357.965 c 33.746,5.266 240.64,35.91 283.043,42.598" style="fill:none;stroke:#000000;stroke-width:2.5312;stroke-linecap:round;stroke-linejoin:round;stroke-miterlimit:10;stroke-dasharray:none;stroke-opacity:1" id="path918" />
         </g>
         <g id="g920" transform="matrix(1.1128865,0,0,-1.1128195,-103.46292,-42.391363)" style="stroke-width:0.967813">
            <path d="m 853.082,-110.84 c 1.207,0.59694 1.02695,2.20643 1.39293,3.28745 l -0.12728,0.19755" style="fill:none;stroke:#000000;stroke-width:1.2656;stroke-linecap:round;stroke-linejoin:round;stroke-miterlimit:10;stroke-dasharray:none;stroke-opacity:1" id="path922" />
         </g>
         <g id="g924" transform="matrix(1.1128865,0,0,-1.1128195,-103.46292,-42.391363)" style="stroke-width:0.967813">
            <path d="m 863.48,-109.98 c 0.071,0.50506 -0.44796,2.17471 -0.90629,2.41804" style="fill:none;stroke:#000000;stroke-width:1.2656;stroke-linecap:round;stroke-linejoin:round;stroke-miterlimit:10;stroke-dasharray:none;stroke-opacity:1" id="path926" />
         </g>
         <g id="g928" transform="matrix(1.1128865,0,0,-1.1128195,-103.46292,-42.391363)" style="stroke-width:0.967813">
            <path d="m 850.652,-157.777 c 1.51209,0.88081 2.33732,2.60208 4.01115,3.2897 1.6474,1.14434 2.94923,2.8095 4.85285,3.5613" style="fill:none;stroke:#000000;stroke-width:1.2656;stroke-linecap:round;stroke-linejoin:round;stroke-miterlimit:10;stroke-dasharray:none;stroke-opacity:1" id="path930" sodipodi:nodetypes="ccc" />
         </g>
         <g id="g932" transform="matrix(1.1128865,0,0,-1.1128195,-103.46292,-42.391363)" style="stroke-width:0.967813">
            <path d="m 859.516,-150.926 c 1.43666,-1.3719 5.66257,-2.97162 7.32644,-4.63244 0.47335,-0.48042 0.89749,-1.01523 1.21259,-1.61356" style="fill:none;stroke:#000000;stroke-width:1.2656;stroke-linecap:round;stroke-linejoin:round;stroke-miterlimit:10;stroke-dasharray:none;stroke-opacity:1" id="path934" sodipodi:nodetypes="ccc" />
         </g>
         <g id="g936" transform="matrix(1.1128865,0,0,-1.1128195,-103.46292,-42.391363)" style="stroke-width:0.967813">
            <path d="m 867.488,-157.863 c -1.07936,-0.33515 -2.31755,-0.12172 -3.308,-0.73508" style="fill:none;stroke:#000000;stroke-width:1.2656;stroke-linecap:round;stroke-linejoin:round;stroke-miterlimit:10;stroke-dasharray:none;stroke-opacity:1" id="path938" sodipodi:nodetypes="cc" />
         </g>
         <g id="g940" transform="matrix(1.1128865,0,0,-1.1128195,-103.46292,-42.391363)" style="stroke-width:0.967813">
            <path d="m 864.785,-159.59 c 0.73682,-2.60448 -2.05439,-3.72413 -4.12795,-3.73811 -1.81472,-0.0619 -5.24535,-1.65157 -5.8789,0.85684 -0.24925,1.5715 -0.15324,3.2697 -0.46612,4.73737" style="fill:none;stroke:#000000;stroke-width:1.2656;stroke-linecap:round;stroke-linejoin:round;stroke-miterlimit:10;stroke-dasharray:none;stroke-opacity:1" id="path942" sodipodi:nodetypes="cccc" />
         </g>
         <g id="g944" transform="matrix(1.1128865,0,0,-1.1128195,-103.46292,-42.391363)" style="stroke-width:0.967813">
            <path d="m 854.129,-157.648 c -0.26105,0.68096 -1.44503,0.43038 -1.984,0.273" style="fill:none;stroke:#000000;stroke-width:1.2656;stroke-linecap:round;stroke-linejoin:round;stroke-miterlimit:10;stroke-dasharray:none;stroke-opacity:1" id="path946" sodipodi:nodetypes="cc" />
         </g>
         <g id="g948" transform="matrix(1.1128865,0,0,-1.1128195,-103.46292,-42.391363)" style="stroke-width:0.967813">
            <path d="m 710.363,-245.305 c 35.407,4.008 103.227,12.52 135.258,15.418" style="fill:none;stroke:#000000;stroke-width:1.2656;stroke-linecap:round;stroke-linejoin:round;stroke-miterlimit:10;stroke-dasharray:none;stroke-opacity:1" id="path950" sodipodi:nodetypes="cc" />
         </g>
         <g id="g952" transform="matrix(1.1128865,0,0,-1.1128195,-103.46292,-42.391363)" style="stroke-width:0.967813">
            <path d="m 849.594,-296.336 c 1.031,22.356 -1.637,44.242 -3.973,66.449" style="fill:none;stroke:#000000;stroke-width:1.2656;stroke-linecap:round;stroke-linejoin:round;stroke-miterlimit:10;stroke-dasharray:none;stroke-opacity:1" id="path954" sodipodi:nodetypes="cc" />
         </g>
         <g id="g956" transform="matrix(1.1128865,0,0,-1.1128195,-103.46292,-42.391363)" style="stroke-width:0.967813">
            <path d="m 710.445,-245.184 c 0.821,-19.918 0.774,-42.574 1.887,-62.48 0.016,-2.586 0.437,-6.254 0.32,-8.84" style="fill:none;stroke:#000000;stroke-width:1.2656;stroke-linecap:round;stroke-linejoin:round;stroke-miterlimit:10;stroke-dasharray:none;stroke-opacity:1" id="path958" sodipodi:nodetypes="ccc" />
         </g>
         <g id="g960" transform="matrix(1.1128865,0,0,-1.1128195,-103.46292,-42.391363)" style="stroke-width:0.967813">
            <path d="m 712.652,-316.504 c 45.899,4.344 94.36,16.578 136.711,20.102 l 0.157,0.047 0.074,0.019" style="fill:none;stroke:#000000;stroke-width:1.2656;stroke-linecap:round;stroke-linejoin:round;stroke-miterlimit:10;stroke-dasharray:none;stroke-opacity:1" id="path962" />
         </g>
         <g id="g964" transform="matrix(1.1128865,0,0,-1.1128195,-103.46292,-42.391363)" style="stroke-width:0.967813">
            <path d="m 777.98,-306.379 c 1.551,22.785 -0.668,59.188 -0.792,68.449" style="fill:none;stroke:#000000;stroke-width:1.2656;stroke-linecap:round;stroke-linejoin:round;stroke-miterlimit:10;stroke-dasharray:none;stroke-opacity:1" id="path966" />
         </g>
         <g id="g968" transform="matrix(1.1128865,0,0,-1.1128195,-103.46292,-42.391363)" style="stroke-width:0.967813">
            <path d="m 797.754,-235.414 c 7.53872,-8.40045 5.51285,-21.19212 0.0723,-30.13527 -3.77641,-8.57028 -11.57485,-13.16044 -19.40027,-17.42373" style="fill:none;stroke:#000000;stroke-width:1.2656;stroke-linecap:round;stroke-linejoin:round;stroke-miterlimit:10;stroke-dasharray:none;stroke-opacity:1" id="path970" />
         </g>
         <g id="g972" transform="matrix(1.1128865,0,0,-1.1128195,-103.46292,-42.391363)" style="stroke-width:0.967813">
            <path d="m 790.672,-236.13927 c 0.176,0.696 4.32,-1.50173 0.383,-3.63073 -5.059,-1.449 1.004,-4.042 -0.528,-7.664 0.321,-3.101 0.743,-6.132 -0.425,-8.984 1.109,-1.469 7.628,-5.625 1.8,-3.652 -2.714,0.32 -2.011,-4 -3.945,-5.149 -1.117,-3.004 -3.461,0.172 -3.875,-0.429 -0.789,-0.055 -5.898,-5.571 -4.816,-2.161" style="fill:none;stroke:#000000;stroke-width:1.2656;stroke-linecap:round;stroke-linejoin:round;stroke-miterlimit:10;stroke-dasharray:none;stroke-opacity:1" id="path974" sodipodi:nodetypes="cccccccc" />
         </g>
         <g id="g976" transform="matrix(1.1128865,0,0,-1.1128195,-103.46292,-42.391363)" style="stroke-width:0.967813">
            <path d="m 847.35004,-246.68 c -0.97434,-13.92208 -5.87246,-27.67142 -14.39686,-38.75658 -3.35363,-4.62101 -6.00963,-9.62969 -9.92618,-13.80142" style="fill:none;stroke:#000000;stroke-width:1.2656;stroke-linecap:round;stroke-linejoin:round;stroke-miterlimit:10;stroke-dasharray:none;stroke-opacity:1" id="path978" sodipodi:nodetypes="ccc" />
         </g>
      </g>
   </g>
</svg>
