<?xml version="1.0" encoding="UTF-8" standalone="no"?>
<!-- Created by Ashley Blewer - This work is licensed under a Creative Commons Attribution 4.0 International License -->

<svg width="544" height="480" viewBox="0 0 143.93334 127" version="1.1" id="svg2490" inkscape:version="1.1.2 (08b2f3d93c, 2022-04-05)" sodipodi:docname="1995-minidv-4.svg"
   xmlns:inkscape="http://www.inkscape.org/namespaces/inkscape"
   xmlns:sodipodi="http://sodipodi.sourceforge.net/DTD/sodipodi-0.dtd"
   xmlns="http://www.w3.org/2000/svg"
   xmlns:svg="http://www.w3.org/2000/svg">
   <sodipodi:namedview id="namedview2492" pagecolor="#ffffff" bordercolor="#666666" borderopacity="1.0" inkscape:pageshadow="2" inkscape:pageopacity="0.0" inkscape:pagecheckerboard="0" inkscape:document-units="mm" showgrid="false" units="px" inkscape:zoom="0.90583674" inkscape:cx="279.29978" inkscape:cy="194.84747" inkscape:window-width="1848" inkscape:window-height="1136" inkscape:window-x="72" inkscape:window-y="27" inkscape:window-maximized="1" inkscape:current-layer="layer1" />
   <defs id="defs2487" />
   <g inkscape:label="Layer 1" inkscape:groupmode="layer" id="layer1">
      <g id="g632" transform="matrix(0.4586347,0,0,-0.45873034,-381.3725,-155.43833)" style="stroke-width:0.769111">
         <path d="m 865.449,-601.367 c -2.847,1.668 -3.871,5.715 -5.472,8.488 -2.614,5.328 -4.895,10.805 -7.18,16.281 -1.262,3.164 -2.738,6.309 -3.043,9.75" style="fill:none;stroke:#000000;stroke-width:2.01152;stroke-linecap:round;stroke-linejoin:round;stroke-miterlimit:10;stroke-dasharray:none;stroke-opacity:1" id="path634" />
      </g>
      <g id="g636" transform="matrix(0.4586347,0,0,-0.45873034,-381.3725,-155.43833)" style="stroke-width:0.769111">
         <path d="m 852.68,-569.258 c 1.195,-2.695 1.972,-5.574 2.988,-8.347 1.16,-4.161 2.719,-8.243 4.875,-11.993 -1.25,1.86 -2.477,4.309 -3.473,6.532 -1.457,3.554 -3.355,6.941 -4.25,10.703 -1.558,3.84 -2.215,8.047 -2.031,12.164 -0.277,1.625 -0.078,2.48 0.516,0.465 1.476,-4.133 2.843,-8.336 4.843,-12.25 1.137,-3.27 2.84,-6.469 5.29,-8.922 2.796,-1.403 5.312,-3.52 6.441,-6.512 -0.504,-2.648 -4.555,-3.715 -7.024,-4.613 l -0.421,-0.192" style="fill:none;stroke:#000000;stroke-width:2.01152;stroke-linecap:round;stroke-linejoin:round;stroke-miterlimit:10;stroke-dasharray:none;stroke-opacity:1" id="path638" />
      </g>
      <g id="g640" transform="matrix(0.4586347,0,0,-0.45873034,-381.3725,-155.43833)" style="stroke-width:0.769111">
         <path d="m 850,-567.172 c -1.184,9.492 -1.27,19.145 -1.77,28.684 0.325,24.797 -2.082,49.418 -4.531,73.996 0.403,4.695 1.383,9.054 -1.504,13.222 -1.621,13.961 -2.199,27.965 -1.828,42.012 -0.105,1.028 -0.406,2.254 0.059,3.176" style="fill:none;stroke:#000000;stroke-width:2.01152;stroke-linecap:round;stroke-linejoin:round;stroke-miterlimit:10;stroke-dasharray:none;stroke-opacity:1" id="path642" />
      </g>
      <g id="g644" transform="matrix(0.4586347,0,0,-0.45873034,-381.3725,-155.43833)" style="stroke-width:0.769111">
         <path d="m 839.922,-405.785 c 2.402,-5.203 7.762,-15.11 10.465,-19.238" style="fill:none;stroke:#000000;stroke-width:2.01152;stroke-linecap:round;stroke-linejoin:round;stroke-miterlimit:10;stroke-dasharray:none;stroke-opacity:1" id="path646" />
      </g>
      <g id="g648" transform="matrix(0.4586347,0,0,-0.45873034,-381.3725,-155.43833)" style="stroke-width:0.769111">
         <path d="m 850.387,-425.023 c 0.0209,-15.01398 0.63362,-31.88557 1.77602,-46.85345 0.47762,-2.28631 0.70322,-10.10164 -2.48719,-4.98656 -1.6761,2.37645 -4.61051,4.72466 -5.62683,7.48001" style="fill:none;stroke:#000000;stroke-width:2.01152;stroke-linecap:round;stroke-linejoin:round;stroke-miterlimit:10;stroke-dasharray:none;stroke-opacity:1" id="path650" sodipodi:nodetypes="cccc" />
      </g>
      <g id="g652" transform="matrix(0.4586347,0,0,-0.45873034,-381.3725,-155.43833)" style="stroke-width:0.769111">
         <path d="m 852.801,-478.922 c 0.23,-2.062 0.769,-7.266 0.933,-9.332 -0.007,-2.043 -0.144,-3.953 0.059,-6 0.414,-2.23 0.32,-4.57 1.031,-6.734 0.434,-1.848 1.977,-4.785 3.028,-6.328" style="fill:none;stroke:#000000;stroke-width:2.01152;stroke-linecap:round;stroke-linejoin:round;stroke-miterlimit:10;stroke-dasharray:none;stroke-opacity:1" id="path654" />
      </g>
      <g id="g656" transform="matrix(0.4586347,0,0,-0.45873034,-381.3725,-155.43833)" style="stroke-width:0.769111">
         <path d="m 858.246,-507.934 c 0.547,-7.878 2.535,-50.558 3.805,-72.718" style="fill:none;stroke:#000000;stroke-width:2.01152;stroke-linecap:round;stroke-linejoin:round;stroke-miterlimit:10;stroke-dasharray:none;stroke-opacity:1" id="path658" />
      </g>
      <g id="g660" transform="matrix(0.4586347,0,0,-0.45873034,-381.3725,-155.43833)" style="stroke-width:0.769111">
         <path d="m 858.238,-507.562 c 1.27,-0.126 2.41,0.601 3.399,1.3 0.812,0.465 2.058,0.707 2.281,1.75 -0.211,3 -0.969,13.282 -0.969,13.282 -0.226,0.429 -0.347,0.816 -0.222,0.648 -1.036,0.473 -2.18,0.316 -3.254,0.094 -1.086,-0.262 -2.215,0.054 -3.293,-0.278 -0.856,-0.214 -1.836,-0.523 -2.61,-0.679" style="fill:none;stroke:#000000;stroke-width:2.01152;stroke-linecap:round;stroke-linejoin:round;stroke-miterlimit:10;stroke-dasharray:none;stroke-opacity:1" id="path662" />
      </g>
      <g id="g664" transform="matrix(0.4586347,0,0,-0.45873034,-381.3725,-155.43833)" style="stroke-width:0.769111">
         <path d="m 854.758,-484.148 c 1.691,0.761 6.89,1.363 7.082,1.238 0.64,18.437 3.711,44.137 4.598,56.75 -0.024,1.348 0.437,2.824 -0.047,3.836 0.613,0.883 -2.211,-0.43 -3.258,-0.481 -2.86,-0.652 -5.77,-1.172 -8.59,-1.695 -0.652,-0.02 -4.109,-0.742 -4.059,-0.906" style="fill:none;stroke:#000000;stroke-width:2.01152;stroke-linecap:round;stroke-linejoin:round;stroke-miterlimit:10;stroke-dasharray:none;stroke-opacity:1" id="path666" />
      </g>
      <g id="g668" transform="matrix(0.4586347,0,0,-0.45873034,-381.3725,-155.43833)" style="stroke-width:0.769111">
         <path d="m 840.266,-404.871 c 38.324,5.41 265.429,43.504 281.027,46.094" style="fill:none;stroke:#000000;stroke-width:2.01152;stroke-linecap:round;stroke-linejoin:round;stroke-miterlimit:10;stroke-dasharray:none;stroke-opacity:1" id="path670" />
      </g>
      <g id="g672" transform="matrix(0.4586347,0,0,-0.45873034,-381.3725,-155.43833)" style="stroke-width:0.769111">
         <path d="m 1121.293,-358.777 c 5,-5.304 16.895,-14.438 19.562,-18.2" style="fill:none;stroke:#000000;stroke-width:2.01152;stroke-linecap:round;stroke-linejoin:round;stroke-miterlimit:10;stroke-dasharray:none;stroke-opacity:1" id="path674" sodipodi:nodetypes="cc" />
      </g>
      <g id="g676" transform="matrix(0.4586347,0,0,-0.45873034,-381.3725,-155.43833)" style="stroke-width:0.769111">
         <path d="m 1140.855,-376.977 c 0.477,-1.578 0.9861,-3.18288 0.301,-7.3 -1.285,-5.809 -2.0735,-35.71691 -8.109,-35.477" style="fill:none;stroke:#000000;stroke-width:2.01152;stroke-linecap:round;stroke-linejoin:round;stroke-miterlimit:10;stroke-dasharray:none;stroke-opacity:1" id="path678" sodipodi:nodetypes="ccc" />
      </g>
      <g id="g684" transform="matrix(0.4586347,0,0,-0.45873034,-381.3725,-155.43833)" style="stroke-width:0.769111">
         <path d="m 1128.586,-428.555 c 2.273,-2.011 3.824,-4.695 6.09,-6.722 0.386,-0.434 0.801,-0.864 1.047,-1.399" style="fill:none;stroke:#000000;stroke-width:2.01152;stroke-linecap:round;stroke-linejoin:round;stroke-miterlimit:10;stroke-dasharray:none;stroke-opacity:1" id="path686" />
      </g>
      <g id="g688" transform="matrix(0.4586347,0,0,-0.45873034,-381.3725,-155.43833)" style="stroke-width:0.769111">
         <path d="m 1128.457,-432.539 c -0.019,-0.926 0.426,-3.773 -0.035,-3.59 0.457,2.906 -0.777,5.777 -0.34,8.695 -0.02,2.891 -0.031,5.84 0.844,8.625 0.742,4.797 1.324,9.614 1.625,14.461 0.48,5.051 0.988,10.118 0.922,15.196 -0.473,3.316 -3.024,5.664 -4.649,8.429 -0.383,0.575 -0.762,1.145 -1.133,1.727" style="fill:none;stroke:#000000;stroke-width:2.01152;stroke-linecap:round;stroke-linejoin:round;stroke-miterlimit:10;stroke-dasharray:none;stroke-opacity:1" id="path690" />
      </g>
      <g id="g692" transform="matrix(0.4586347,0,0,-0.45873034,-381.3725,-155.43833)" style="stroke-width:0.769111">
         <path d="m 1126.082,-378.711 c 2.8795,0.21222 6.049,1.41524 8.7503,-0.14198 1.7986,-1.18966 2.0293,-3.6328 2.1162,-5.60504 -0.039,-3.11726 -0.7533,-6.18218 -0.7832,-9.30164 -0.4953,-5.39128 -0.8095,-10.79787 -1.1755,-16.19712 -0.5186,-3.8514 -1.8579,-7.54914 -2.2261,-11.42576 -0.5823,-2.32171 -3.1104,-3.21385 -4.4107,-5.02346" style="fill:none;stroke:#000000;stroke-width:2.01152;stroke-linecap:round;stroke-linejoin:round;stroke-miterlimit:10;stroke-dasharray:none;stroke-opacity:1" id="path694" sodipodi:nodetypes="cccccccccc" />
      </g>
      <g id="g696" transform="matrix(0.4586347,0,0,-0.45873034,-381.3725,-155.43833)" style="stroke-width:0.769111">
         <path d="m 1136.129,-437.387 c 0,0 -2.012,-59.11533 -8.025,-88.14941 -8.1652,-3.67861 -4.3849,-10.44791 -1.6284,-15.39124 -0.039,-3.19312 -1.6202,-6.41934 -4.3386,-8.16635" style="fill:none;stroke:#000000;stroke-width:2.01152;stroke-linecap:round;stroke-linejoin:round;stroke-miterlimit:10;stroke-dasharray:none;stroke-opacity:1" id="path698" sodipodi:nodetypes="cccc" />
      </g>
      <g id="g700" transform="matrix(0.4586347,0,0,-0.45873034,-381.3725,-155.43833)" style="stroke-width:0.769111">
         <path d="m 1120.113,-531.602 c -0.359,0.532 -2.304,-0.433 -3.289,0.286 -1.89,-0.184 -4.41,-0.27 -4.215,2.375 -0.429,1.867 1.731,3.101 3.207,3.789 2.059,0.507 4.668,1.414 6.258,-0.598 2.176,-1.797 0.321,-5.707 -2.328,-5.742" style="fill:none;stroke:#000000;stroke-width:2.01152;stroke-linecap:round;stroke-linejoin:round;stroke-miterlimit:10;stroke-dasharray:none;stroke-opacity:1" id="path702" sodipodi:nodetypes="cccccc" />
      </g>
      <g id="g704" transform="matrix(0.4586347,0,0,-0.45873034,-381.3725,-155.43833)" style="stroke-width:0.769111">
         <path d="m 864.98,-601.5 c 1.883,-0.219 4.25,0.609 6.399,0.586 1.258,0.238 3.25,0.238 3.785,0.844 0.09,-0.157 0.09,1.261 0.387,1.867 1.238,0.898 2.738,1.582 4.261,1.758 1.532,0.367 3.762,0.84 4.469,0.156 1.074,-0.004 1.059,-1.738 1.348,-1.621 0.715,0.129 1.164,1.277 1.68,1.941 1.683,1.176 3.269,1.309 5.359,1.688 1.613,0.652 3.355,1.664 5.047,1.414 1.195,0.164 1.59,-1.231 1.379,-1.934 1.336,-0.691 2.765,0.891 2.937,1.86 0.43,1.257 2.473,1.218 3.903,1.656 1.519,0.207 3.898,0.937 4.699,-0.242 0.719,-0.215 0.629,-1.332 0.937,-1.168 0.774,0.004 2.582,0.59 3.801,0.918 0.125,0.054 -0.129,0.547 0.039,1.191 1.152,0.934 2.606,1.18 4.211,1.645 1.438,0.089 3.129,0.644 3.492,-0.121 0.77,-0.266 0.02,-1.293 0.207,-1.43 -0.359,0.019 0.325,-1.328 0.086,-1.367" style="fill:none;stroke:#000000;stroke-width:2.01152;stroke-linecap:round;stroke-linejoin:round;stroke-miterlimit:10;stroke-dasharray:none;stroke-opacity:1" id="path706" />
      </g>
      <g id="g708" transform="matrix(0.4586347,0,0,-0.45873034,-381.3725,-155.43833)" style="stroke-width:0.769111">
         <path d="m 923.414,-591.77 c 11.016,2.391 180.965,38.512 198.664,42.708" style="fill:none;stroke:#000000;stroke-width:2.01152;stroke-linecap:round;stroke-linejoin:round;stroke-miterlimit:10;stroke-dasharray:none;stroke-opacity:1" id="path710" />
      </g>
      <g id="g712" transform="matrix(0.4586347,0,0,-0.45873034,-381.3725,-155.43833)" style="stroke-width:0.769111">
         <path d="m 869.594,-422 c 0.695,-1.582 2.855,0.977 4.242,0.633" style="fill:none;stroke:#000000;stroke-width:2.01152;stroke-linecap:round;stroke-linejoin:round;stroke-miterlimit:10;stroke-dasharray:none;stroke-opacity:1" id="path714" />
      </g>
      <g id="g716" transform="matrix(0.4586347,0,0,-0.45873034,-381.3725,-155.43833)" style="stroke-width:0.769111">
         <path d="m 864.96061,-419.37721 c 5.125,0.718 17.69139,3.17021 21.69139,3.50221" style="fill:none;stroke:#000000;stroke-width:2.01152;stroke-linecap:round;stroke-linejoin:round;stroke-miterlimit:10;stroke-dasharray:none;stroke-opacity:1" id="path718" sodipodi:nodetypes="cc" />
      </g>
      <g id="g720" transform="matrix(0.4586347,0,0,-0.45873034,-381.3725,-155.43833)" style="stroke-width:0.769111">
         <path d="m 886.52,-415.445 c -2.711,-0.223 1.5,-1.422 1.507,-2.93 1.977,-1.445 6.317,-6.906 6.317,-6.906" style="fill:none;stroke:#000000;stroke-width:2.01152;stroke-linecap:round;stroke-linejoin:round;stroke-miterlimit:10;stroke-dasharray:none;stroke-opacity:1" id="path722" />
      </g>
      <g id="g724" transform="matrix(0.4586347,0,0,-0.45873034,-381.3725,-155.43833)" style="stroke-width:0.769111">
         <path d="m 894.578,-425.715 c 69.34959,9.92336 137.6133,26.4605 207.199,34.887 1.7819,2.74618 8.4267,7.63859 3.926,10.691 5.7974,1.74659 14.9295,4.37693 19.4135,2.30076 4.9171,-1.45656 10.3188,0.35321 15.2625,1.00424" style="fill:none;stroke:#000000;stroke-width:2.01152;stroke-linecap:round;stroke-linejoin:round;stroke-miterlimit:10;stroke-dasharray:none;stroke-opacity:1" id="path726" />
      </g>
      <g id="g728" transform="matrix(0.4586347,0,0,-0.45873034,-381.3725,-155.43833)" style="stroke-width:0.769111">
         <path d="m 911.508,-423.824 c -0.188,-9.488 1.008,-22.938 1.074,-31.391 4.688,0.246 7.359,-4.64 8.027,-8.871 0.418,-3.394 5.25,1.106 7.832,0.75 9.602,2.094 19.543,3.172 29.348,2.313 8.992,-0.985 17.84,-4.36 24.574,-10.497 2.16,-2.453 6.145,-2.796 3.582,-6.347 3.235,-3.231 6.399,-7.27 11.231,-8.09 6.168,-1.719 13.59,3.105 13.5,9.711 0.027,0.461 -0.262,1.539 -0.11,1.699" style="fill:none;stroke:#000000;stroke-width:2.01152;stroke-linecap:round;stroke-linejoin:round;stroke-miterlimit:10;stroke-dasharray:none;stroke-opacity:1" id="path730" />
      </g>
      <g id="g732" transform="matrix(0.4586347,0,0,-0.45873034,-381.3725,-155.43833)" style="stroke-width:0.769111">
         <path d="m 1009.852,-473.551 c 12.191,24.719 45.64,34.305 69.703,37.211 l 0.113,-0.09 -0.227,-0.211" style="fill:none;stroke:#000000;stroke-width:2.01152;stroke-linecap:round;stroke-linejoin:round;stroke-miterlimit:10;stroke-dasharray:none;stroke-opacity:1" id="path734" sodipodi:nodetypes="cccc" />
      </g>
      <g id="g736" transform="matrix(0.4586347,0,0,-0.45873034,-381.3725,-155.43833)" style="stroke-width:0.769111">
         <path d="m 1079.555,-436.34 c -0.01,-1.64 -1.77,1.637 -1.192,2.512 0.457,1.695 1.895,3.113 2.703,4.719 1.168,1.586 2.552,2.301 4.157,3.414 -0.148,0.059 0.347,0.113 0.238,0.062 l 0.027,0.004" style="fill:none;stroke:#000000;stroke-width:2.01152;stroke-linecap:round;stroke-linejoin:round;stroke-miterlimit:10;stroke-dasharray:none;stroke-opacity:1" id="path738" sodipodi:nodetypes="cccccc" />
      </g>
      <g id="g740" transform="matrix(0.4586347,0,0,-0.45873034,-381.3725,-155.43833)" style="stroke-width:0.769111">
         <path d="m 1085.223,-425.695 c 0.554,8.593 0.484,26.215 0.476,32.715" style="fill:none;stroke:#000000;stroke-width:2.01152;stroke-linecap:round;stroke-linejoin:round;stroke-miterlimit:10;stroke-dasharray:none;stroke-opacity:1" id="path742" />
      </g>
      <g id="g744" transform="matrix(0.4586347,0,0,-0.45873034,-381.3725,-155.43833)" style="stroke-width:0.769111">
         <path d="m 912.035,-434.50821 c 0,0 158.4437,26.83051 173.4237,28.63051" style="fill:none;stroke:#000000;stroke-width:2.01152;stroke-linecap:round;stroke-linejoin:round;stroke-miterlimit:10;stroke-dasharray:none;stroke-opacity:1" id="path746" sodipodi:nodetypes="cc" />
      </g>
      <g id="g748" transform="matrix(0.4586347,0,0,-0.45873034,-381.3725,-155.43833)" style="stroke-width:0.769111">
         <path d="m 907.891,-460.438 c -2.52989,0.22488 -4.43444,-2.09503 -5.20238,-4.25815 -0.35636,-1.81713 0.41292,-3.71241 1.41261,-5.20355 1.01491,-1.33132 2.26148,-2.97481 4.17832,-2.52339 2.35627,0.18622 4.78308,1.25656 6.18042,3.20638 0.54128,1.54066 0.82641,3.54784 -0.0806,4.98784 -0.91443,1.46522 -2.12553,2.47305 -3.77438,3.00876 -0.80717,0.35538 -1.65254,0.80476 -2.55397,0.80173" style="fill:none;stroke:#000000;stroke-width:2.01152;stroke-linecap:round;stroke-linejoin:round;stroke-miterlimit:10;stroke-dasharray:none;stroke-opacity:1" id="path750" />
      </g>
      <g id="g752" transform="matrix(0.4586347,0,0,-0.45873034,-381.3725,-155.43833)" style="stroke-width:0.769111">
         <path d="m 1091.237,-428.91071 c -2.265,-0.27278 -3.3919,-0.11705 -4.5268,-1.2394 -1.3297,-1.10831 -1.5239,-3.03501 -1.2009,-4.63272 0.253,-1.2584 1.2211,-2.40486 2.5656,-2.49859 2.479,-0.41991 4.8835,0.72931 6.799,2.20494 1.0667,0.57836 1.3632,1.95614 0.8761,3.01877 -0.5277,1.24155 -1.2524,2.7604 -2.7019,3.07651 -1.7923,0.37441 -3.53,-0.75444 -5.3181,-0.33072" style="fill:none;stroke:#000000;stroke-width:2.01152;stroke-linecap:round;stroke-linejoin:round;stroke-miterlimit:10;stroke-dasharray:none;stroke-opacity:1" id="path754" sodipodi:nodetypes="cccccccc" />
      </g>
      <g id="g756" transform="matrix(0.4586347,0,0,-0.45873034,-381.3725,-155.43833)" style="stroke-width:0.769111">
         <path d="m 995.84,-462.195 c -2.508,-0.778 -5.18,-2.078 -6.207,-4.825 -1.395,-2.808 -2.321,-6.316 -0.746,-9.25 0.812,-1.929 1.117,-4.839 3.621,-5.269 1.676,-0.836 3.457,-1.555 5.355,-1.09 3.125,0.129 6.266,1.055 8.621,3.188 1.817,1.441 3.434,3.445 3.368,5.89 0.39,2.418 -0.01,5.11 -1.786,6.918 -1.476,1.891 -3.546,3.297 -5.804,4.082 -3.438,0.449 -7.598,1.176 -10.356,-1.5 -0.558,-0.515 -1.078,-1.07 -1.672,-1.547" style="fill:none;stroke:#000000;stroke-width:2.01152;stroke-linecap:round;stroke-linejoin:round;stroke-miterlimit:10;stroke-dasharray:none;stroke-opacity:1" id="path758" />
      </g>
      <g id="g760" transform="matrix(0.4586347,0,0,-0.45873034,-381.3725,-155.43833)" style="stroke-width:0.769111">
         <path d="m 968.406,-462.676 c 19.293,3.141 48.867,8.289 62.067,10.528" style="fill:none;stroke:#000000;stroke-width:2.01152;stroke-linecap:round;stroke-linejoin:round;stroke-miterlimit:10;stroke-dasharray:none;stroke-opacity:1" id="path762" />
      </g>
      <g id="g764" transform="matrix(0.4586347,0,0,-0.45873034,-381.3725,-155.43833)" style="stroke-width:0.769111">
         <path d="m 1112.297,-528.371 c -0.52,-1.781 0.148,-4.465 2.496,-3.992 1.902,0.136 4.262,1.336 3.82,3.617 0.461,2.863 -2.617,3.301 -4.722,3.297" style="fill:none;stroke:#000000;stroke-width:2.01152;stroke-linecap:round;stroke-linejoin:round;stroke-miterlimit:10;stroke-dasharray:none;stroke-opacity:1" id="path766" sodipodi:nodetypes="cccc" />
      </g>
      <g id="g768" transform="matrix(0.4586347,0,0,-0.45873034,-381.3725,-155.43833)" style="stroke-width:0.769111">
         <path d="m 1057.547,-476.3153 c 7.9021,5.04653 18.3984,6.22331 26.932,2.4979 5.7451,-2.4424 10.2403,-7.96914 10.5935,-14.31878 0.3468,-10.07469 -5.2273,-19.50132 -12.6057,-26.0062 -6.2323,-5.456 -13.7668,-9.5915 -21.8671,-11.42454 -9.5785,-1.65515 -19.3152,4.67908 -22.7646,13.5559 -2.3534,5.57679 -1.85,12.11311 1.069,17.38377 5.3216,10.83507 15.098,17.57099 26.0726,21.78792" style="fill:none;stroke:#000000;stroke-width:2.01152;stroke-linecap:round;stroke-linejoin:round;stroke-miterlimit:10;stroke-dasharray:none;stroke-opacity:1" id="path770" sodipodi:nodetypes="cccccccc" />
      </g>
      <g id="g772" transform="matrix(0.4586347,0,0,-0.45873034,-381.3725,-155.43833)" style="stroke-width:0.769111">
         <path d="m 930.855,-498.18 c 5.465,1.532 11.266,0.254 16.7,-0.785 8.433,-2.113 13.961,-10.605 13.883,-19.058 0.671,-4.989 -0.454,-10.172 -4.032,-13.856 -3.539,-4.133 -6.453,-8.906 -10.718,-12.344 -4.711,-2.703 -8.969,-6.297 -14.043,-8.297 -8.278,-2.57 -17.282,0.247 -24.473,4.52 -3.36,1.82 -6.84,4.133 -7.66,8.176 -2.324,6.023 -3.125,12.777 -0.742,18.922 1.253,5.082 5.953,7.82 9.089,11.632 5.477,5.438 15.016,8.637 22.137,11.082" style="fill:none;stroke:#000000;stroke-width:2.01152;stroke-linecap:round;stroke-linejoin:round;stroke-miterlimit:10;stroke-dasharray:none;stroke-opacity:1" id="path774" />
      </g>
      <g id="g776" transform="matrix(0.4586347,0,0,-0.45873034,-381.3725,-155.43833)" style="stroke-width:0.769111">
         <path d="m 933.203,-507.211 c -0.172,0.527 -2.203,-3.023 -0.441,-3.785 1.109,-2.117 5.918,-3.356 3.347,-6.145 -1.218,0.731 -3.3,3.403 -4.531,4.821 -2.074,1.199 -5.5,-0.618 -5.59,-2.809 -0.304,-2.523 1.41,-4.785 2.227,-6.933 1.453,-3.258 -3.723,-3.961 -5.238,-2.813 -0.539,2.445 -1.848,5.059 -3.696,6.559 -1.976,1.613 -3.015,-2.032 -3.129,-3.661 -1.16,-2.738 -2.57,0.563 -2.148,2.09 -0.531,2.774 0.797,5.473 3.258,6.817 3.718,3.308 8.707,4.625 13.652,5.492 0.84,0.195 2.414,-0.024 2.574,-0.18" style="fill:none;stroke:#000000;stroke-width:2.01152;stroke-linecap:round;stroke-linejoin:round;stroke-miterlimit:10;stroke-dasharray:none;stroke-opacity:1" id="path778" />
      </g>
      <g id="g780" transform="matrix(0.4586347,0,0,-0.45873034,-381.3725,-155.43833)" style="stroke-width:0.769111">
         <path d="m 911.676,-526.352 c 1.566,-2.523 3.121,-5.253 5.34,-7.23 4.91,-3.801 11.429,-1.379 16.605,0.52 3.504,2.05 7.574,4.382 8.289,8.695 1.043,1.847 0.797,4.308 0.414,6.383 0.293,0.144 -0.394,0.23 -0.246,0.382" style="fill:none;stroke:#000000;stroke-width:2.01152;stroke-linecap:round;stroke-linejoin:round;stroke-miterlimit:10;stroke-dasharray:none;stroke-opacity:1" id="path782" />
      </g>
      <g id="g784" transform="matrix(0.4586347,0,0,-0.45873034,-381.3725,-155.43833)" style="stroke-width:0.769111">
         <path d="m 943.609,-508.922 c 2.325,-1.422 4.985,-4.129 5.414,-7.281 1.02,-3.266 0.942,-7.399 -0.488,-10.707 -1.492,-3.856 -4.344,-6.918 -7.562,-9.309 -3.477,-2.301 -7.176,-3.992 -11.078,-5.457 -5.821,-1.316 -12.618,-0.906 -17.004,3.516 -2.375,1.437 -3.293,3.89 -3.692,6.527" style="fill:none;stroke:#000000;stroke-width:2.01152;stroke-linecap:round;stroke-linejoin:round;stroke-miterlimit:10;stroke-dasharray:none;stroke-opacity:1" id="path786" />
      </g>
      <g id="g788" transform="matrix(0.4586347,0,0,-0.45873034,-381.3725,-155.43833)" style="stroke-width:0.769111">
         <path d="m 1061.456,-485.56464 c 3.6847,2.16482 10.3241,1.8017 14.4034,0.90511 1.7575,-0.35151 2.8446,-4.26785 0.1667,-3.32112 -1.8035,0.89142 -4.1951,1.71823 -5.9458,0.3057 -1.7694,-2.08671 2.6441,-2.60695 1.803,-4.88771 -0.4044,-2.41038 -3.1551,-1.70603 -4.366,-0.39512 -1.6096,0.68984 -4.3681,1.92964 -5.41,-0.18194 -0.1009,-2.0486 1.1092,-4.17183 0.1615,-6.15365 -1.583,-2.23251 -2.5048,0.33932 -2.9189,1.77026 -0.6905,1.7223 -2.6183,0.10218 -3.0209,0.32224 0.3205,2.3811 -2.5188,3.94775 -2.4884,6.02172 1.2875,3.13198 4.7863,4.28812 7.6154,5.61451 2.0652,0.84432 4.2794,1.64593 6.528,1.55085" style="fill:none;stroke:#000000;stroke-width:2.01152;stroke-linecap:round;stroke-linejoin:round;stroke-miterlimit:10;stroke-dasharray:none;stroke-opacity:1" id="path790" sodipodi:nodetypes="ccccccccccccc" />
      </g>
      <g id="g792" transform="matrix(0.4586347,0,0,-0.45873034,-381.3725,-155.43833)" style="stroke-width:0.769111">
         <path d="m 1078.191,-483.098 c 2.3901,-3.82509 2.4098,-8.77498 1.2503,-12.99427 -2.43,-5.50697 -8.3726,-8.6309 -14.0512,-9.69135 -4.5318,-0.70923 -10.4211,0.93587 -11.7875,5.84091 -0.2984,1.07971 -0.4252,2.19529 -0.5796,3.30171" style="fill:none;stroke:#000000;stroke-width:2.01152;stroke-linecap:round;stroke-linejoin:round;stroke-miterlimit:10;stroke-dasharray:none;stroke-opacity:1" id="path794" />
      </g>
      <g id="g796" transform="matrix(0.4586347,0,0,-0.45873034,-381.3725,-155.43833)" style="stroke-width:0.769111">
         <path d="m 1045.004,-501.488 c 1.3393,-5.6784 5.0284,-11.32999 10.7656,-13.2611 2.6817,-0.80024 5.5386,-0.57636 8.2958,-0.39726 8.9457,0.89157 17.4544,6.54832 21.0482,14.89283 2.0638,4.52908 3.8325,9.86325 1.9764,14.75752 -0.8013,2.07745 -2.3568,3.75657 -4.348,4.72601" style="fill:none;stroke:#000000;stroke-width:2.01152;stroke-linecap:round;stroke-linejoin:round;stroke-miterlimit:10;stroke-dasharray:none;stroke-opacity:1" id="path798" />
      </g>
      <g id="g800" transform="matrix(0.4586347,0,0,-0.45873034,-381.3725,-155.43833)" style="stroke-width:0.769111">
         <path d="m 992.34,-557.738 c 0.15121,1.78278 -0.54146,3.57454 -0.039,5.34079 0.0696,1.49292 -3.5e-4,2.99417 0.31132,4.46846 0.24628,1.65066 0.42361,3.3313 0.20125,4.99557 0.33451,1.51231 1.7579,2.54166 3.1484,3.0626 1.24556,0.77812 2.67173,1.1533 4.12343,1.28916 1.3183,0.34301 2.8368,-0.073 3.5878,-1.25252 0.8003,-1.63564 0.2524,-3.48107 0.3294,-5.2185 -0.099,-1.25064 0.1968,-2.49648 0.1714,-3.74319 0.2188,-1.78722 0,-3.6119 0.3348,-5.38189 -0.059,-1.3659 -1.3349,-2.11672 -2.489,-2.50737 -1.6454,-0.76059 -3.49379,-0.35063 -5.23858,-0.5414 -1.48562,-0.0827 -2.97642,-0.12524 -4.45318,-0.31671" style="fill:none;stroke:#000000;stroke-width:2.01152;stroke-linecap:round;stroke-linejoin:round;stroke-miterlimit:10;stroke-dasharray:none;stroke-opacity:1" id="path802" />
      </g>
      <g id="g804" transform="matrix(0.4586347,0,0,-0.45873034,-381.3725,-155.43833)" style="stroke-width:0.769111">
         <path d="m 976.438,-577.539 c 1.79529,24.98491 1.52266,50.06977 0.43165,75.07986 l 0.15771,0.72445 0.22264,0.70769" style="fill:none;stroke:#000000;stroke-width:1.00576;stroke-linecap:round;stroke-linejoin:round;stroke-miterlimit:10;stroke-dasharray:none;stroke-opacity:1" id="path806" />
      </g>
      <g id="g808" transform="matrix(0.4586347,0,0,-0.45873034,-381.3725,-155.43833)" style="stroke-width:0.769111">
         <path d="m 980.285,-497.273 c 11.539,3.476 23.578,5.007 34.949,9.14 2.489,0.656 5.028,1.168 7.602,1.321" style="fill:none;stroke:#000000;stroke-width:1.00576;stroke-linecap:round;stroke-linejoin:round;stroke-miterlimit:10;stroke-dasharray:none;stroke-opacity:1" id="path810" />
      </g>
      <g id="g812" transform="matrix(0.4586347,0,0,-0.45873034,-381.3725,-155.43833)" style="stroke-width:0.769111">
         <path d="m 1026.09,-492.66 c 0.898,-22.07 -0.574,-44.16 -0.504,-66.242 0.293,-2.563 -0.883,-5.539 0.094,-7.934" style="fill:none;stroke:#000000;stroke-width:1.00576;stroke-linecap:round;stroke-linejoin:round;stroke-miterlimit:10;stroke-dasharray:none;stroke-opacity:1" id="path814" />
      </g>
      <g id="g816" transform="matrix(0.4586347,0,0,-0.45873034,-381.3725,-155.43833)" style="stroke-width:0.769111">
         <path d="m 1049.184,-529.348 c 0.574,-10.117 -0.559,-20.285 0.699,-30.371" style="fill:none;stroke:#000000;stroke-width:1.00576;stroke-linecap:round;stroke-linejoin:round;stroke-miterlimit:10;stroke-dasharray:none;stroke-opacity:1" id="path818" />
      </g>
      <g id="g820" transform="matrix(0.4586347,0,0,-0.45873034,-381.3725,-155.43833)" style="stroke-width:0.769111">
         <path d="m 951.371,-548.422 c 1.832,-11.918 2.801,-24.269 3.469,-36.082" style="fill:none;stroke:#000000;stroke-width:1.00576;stroke-linecap:round;stroke-linejoin:round;stroke-miterlimit:10;stroke-dasharray:none;stroke-opacity:1" id="path822" />
      </g>
      <g id="g824" transform="matrix(0.4586347,0,0,-0.45873034,-381.3725,-155.43833)" style="stroke-width:0.769111">
         <path d="m 891.02,-570.688 c -0.625,-0.934 -2.344,-2.726 -2.739,-3.781 -0.293,-1.234 -0.136,-2.668 0.942,-3.488 1.234,-0.836 2.953,-0.434 4.312,-0.109 1.067,0.601 1.582,2.011 1.555,3.191 -0.231,1.066 -0.176,2.281 -0.996,3.121 -0.68,0.945 -2.024,0.945 -3.074,1.066" style="fill:none;stroke:#000000;stroke-width:1.00576;stroke-linecap:round;stroke-linejoin:round;stroke-miterlimit:10;stroke-dasharray:none;stroke-opacity:1" id="path826" sodipodi:nodetypes="ccccccc" />
      </g>
      <g id="g828" transform="matrix(0.4586347,0,0,-0.45873034,-381.3725,-155.43833)" style="stroke-width:0.769111">
         <path d="m 1101.031,-526.418 c -2.058,-0.074 -3.773,-1.66 -4.648,-3.461 -1.098,-2.023 1.457,-3.691 3.273,-3.633 2.199,-0.508 4.922,0.953 5.008,3.364 -0.293,1.738 -1.164,3.546 -3.094,3.804 -0.73,0.317 0.168,-0.32 -0.539,-0.074" style="fill:none;stroke:#000000;stroke-width:1.00576;stroke-linecap:round;stroke-linejoin:round;stroke-miterlimit:10;stroke-dasharray:none;stroke-opacity:1" id="path830" sodipodi:nodetypes="cccccc" />
      </g>
   </g>
</svg>
