<?xml version="1.0" encoding="UTF-8" standalone="no"?>
<!-- Created by Ashley Blewer - This work is licensed under a Creative Commons Attribution 4.0 International License -->

<svg width="544" height="480" viewBox="0 0 143.93334 127" version="1.1" id="svg2490" inkscape:version="1.1.2 (08b2f3d93c, 2022-04-05)" sodipodi:docname="1995-dvcpro-3.svg"
   xmlns:inkscape="http://www.inkscape.org/namespaces/inkscape"
   xmlns:sodipodi="http://sodipodi.sourceforge.net/DTD/sodipodi-0.dtd"
   xmlns="http://www.w3.org/2000/svg"
   xmlns:svg="http://www.w3.org/2000/svg">
   <sodipodi:namedview id="namedview2492" pagecolor="#ffffff" bordercolor="#666666" borderopacity="1.0" inkscape:pageshadow="2" inkscape:pageopacity="0.0" inkscape:pagecheckerboard="0" inkscape:document-units="mm" showgrid="false" units="px" inkscape:zoom="0.90583674" inkscape:cx="279.29978" inkscape:cy="194.84747" inkscape:window-width="1848" inkscape:window-height="1136" inkscape:window-x="72" inkscape:window-y="27" inkscape:window-maximized="1" inkscape:current-layer="layer1" />
   <defs id="defs2487" />
   <g inkscape:label="Layer 1" inkscape:groupmode="layer" id="layer1">
      <g id="g9508" transform="matrix(0.385015,0,0,0.385015,-325.69868,-90.783253)">
         <g id="g1696" transform="matrix(1,0,0,-1,38.0301,6.0431251)">
            <path d="m 850.805,-470.793 c -8.53167,7.46023 -1.83966,18.03892 -3.60774,27.62985" style="fill:none;stroke:#000000;stroke-width:2.61538;stroke-linecap:round;stroke-linejoin:round;stroke-miterlimit:10;stroke-dasharray:none;stroke-opacity:1" id="path1698" sodipodi:nodetypes="cc" />
         </g>
         <g id="g1700" transform="matrix(1,0,0,-1,38.0301,6.0431251)">
            <path d="m 846.719,-465.527 c 0,0 -16.23801,71.76219 -20.668,108.879" style="fill:none;stroke:#000000;stroke-width:2.61538;stroke-linecap:round;stroke-linejoin:round;stroke-miterlimit:10;stroke-dasharray:none;stroke-opacity:1" id="path1702" sodipodi:nodetypes="cc" />
         </g>
         <g id="g1704" transform="matrix(1,0,0,-1,38.0301,6.0431251)">
            <path d="m 847.19726,-443.16315 c -6.42612,31.46175 -8.74146,67.52154 -15.15852,98.97908 l -0.21873,0.8791" style="fill:none;stroke:#000000;stroke-width:2.61538;stroke-linecap:round;stroke-linejoin:round;stroke-miterlimit:10;stroke-dasharray:none;stroke-opacity:1" id="path1706" sodipodi:nodetypes="ccc" />
         </g>
         <g id="g1708" transform="matrix(1,0,0,-1,38.0301,6.0431251)">
            <path d="m 833.828,-357.309 v -0.015 l -0.008,-0.016 -0.011,-0.008 -0.008,0.004 -0.004,0.008 -0.004,0.004 -0.004,-0.016 0.012,-0.019 0.004,-0.008 0.007,-0.004 0.004,0.035 0.004,0.028 h 0.02 l 0.019,0.011 h 0.082 l 0.008,0.008 -0.035,0.008 -0.031,0.023 -0.024,0.004 h -0.097 l -0.043,-0.011 0.039,0.015 0.031,0.004 0.008,-0.008 0.004,0.004 0.043,0.004 0.023,-0.012 -0.027,-0.004 v -0.011 l -0.004,0.008 v 0.011 l -0.039,0.012 -0.035,0.02 0.011,-0.012 0.012,0.004 0.008,0.004 0.008,-0.016 h 0.015 -0.039 l -0.031,-0.012 0.024,0.004 h 0.007 l 0.004,-0.012 -0.008,-0.023 h 0.09 l 0.028,0.035 -0.086,-0.015 -0.063,-0.004 -0.015,-0.016 -0.012,0.004 -0.043,0.023 h -0.02 l -0.019,0.012 -0.047,0.012 -0.047,0.027 -0.023,0.008 -0.043,-0.004 -0.028,-0.012 -0.031,0.02 -0.047,0.008 -0.043,0.007 -0.047,0.004 -0.043,0.02 -0.004,-0.031 -0.011,-0.012 -0.051,0.027 -0.094,0.012 -0.027,0.004 -0.016,-0.004 0.039,0.02 -0.039,-0.016 -0.093,0.004 h -0.172 l -0.141,-0.016 -0.094,-0.035 0.016,0.004 -0.074,-0.016 -0.086,-0.015 -0.082,-0.004 h 0.043 l 0.027,-0.012 h -0.063 l -0.078,-0.012 -0.066,-0.004 -0.059,-0.003 -0.054,-0.004 h -0.149 l -0.101,0.004 0.062,-0.02 0.004,-0.019 h -0.027 l 0.008,-0.004 h 0.062 l -0.023,-0.016 h -0.082 l 0.027,-0.004 0.012,0.012 h 0.023 l 0.004,0.019 0.074,-0.004 0.031,0.032 -0.062,-0.016 v -0.023 l -0.027,0.007 -0.004,-0.019 -0.032,0.004 -0.035,0.004 h 0.008 l -0.004,0.011 h 0.008 -0.004 l -0.043,-0.023 0.012,-0.012 -0.02,0.032 -0.058,-0.008 -0.039,-0.035 -0.043,-0.004 -0.016,-0.012 0.02,-0.027 -0.043,0.007 -0.059,-0.023 -0.016,-0.004 -0.011,0.004 -0.008,-0.024 -0.004,0.008 -0.016,0.016 -0.004,-0.004 0.012,-0.016 0.008,-0.019 -0.027,-0.02 v -0.007 l 0.027,0.011 0.012,-0.015 0.011,-0.012 0.012,0.004 0.035,0.004 0.043,0.023 0.004,-0.012 -0.023,0.004 v 0.008 l 0.004,-0.008 v 0.024 l -0.184,-0.047 -0.066,-0.066 h 0.144 l 0.028,-0.047 0.046,-0.028 0.047,-0.035 0.043,-0.086 0.016,-0.09 v -0.078 l 0.008,-0.086 0.004,-0.097 0.023,-0.11 -0.047,-0.09 -0.012,-0.105 0.032,-0.098 -0.008,-0.105 0.016,-0.094 0.003,-0.09 -0.003,-0.078 -0.016,-0.07 0.008,-0.063 0.031,-0.078 0.008,-0.082 0.027,-0.07 -0.004,-0.102 0.035,-0.109 0.035,-0.07 -0.015,-0.075 0.015,-0.101 v -0.09 l 0.016,-0.102 0.063,-0.066 0.035,-0.082 -0.028,-0.109 0.016,-0.09 0.016,-0.063 0.004,-0.078 -0.012,-0.098 -0.043,-0.074 0.016,-0.082 0.043,-0.082 0.035,-0.078 0.035,-0.098 0.031,-0.101 0.055,-0.082 0.023,-0.082 0.004,-0.086 0.024,-0.086 0.023,-0.102 0.031,-0.101 -0.023,-0.09 -0.035,-0.09 0.047,-0.109 0.058,-0.114 0.043,-0.113 0.035,-0.101 0.035,-0.09 -0.086,-0.117 -0.007,-0.133 0.121,-0.106 0.054,-0.109 0.032,-0.106 0.023,-0.109 v -0.133 l 0.102,-0.125 0.093,-0.117 -0.027,-0.117 0.008,-0.106 0.016,-0.093 0.031,-0.086 -0.114,-0.102 -0.043,-0.141 0.122,-0.113 0.046,-0.117 0.024,-0.102 0.031,-0.082 0.067,-0.113 0.046,-0.133 0.008,-0.109 0.016,-0.098 0.023,-0.086 0.028,-0.105 0.027,-0.113 0.027,-0.129 0.012,-0.11 0.039,-0.097 0.031,-0.094 0.016,-0.106 0.008,-0.109 0.023,-0.07 0.008,-0.086 v -0.121 l 0.035,-0.117 0.024,-0.102 0.027,-0.125 0.012,-0.141 -0.012,-0.129 0.016,-0.113 0.031,-0.101 0.012,-0.129 0.023,-0.133 0.027,-0.137 0.047,-0.097 0.051,-0.098 0.027,-0.152 0.036,-0.157 0.015,-0.133 0.027,-0.125 -0.003,-0.125 -0.11,-0.121 -0.008,-0.148 0.102,-0.141 0.066,-0.144 0.047,-0.164 0.039,-0.164 0.028,-0.141 0.035,-0.117 0.031,-0.117 0.035,-0.137 0.035,-0.129 0.032,-0.121 -0.047,-0.109 0.004,-0.122 0.07,-0.109 0.035,-0.117 0.039,-0.106 0.031,-0.097 0.036,-0.09 -0.032,-0.094 -0.007,-0.121 0.058,-0.113 0.031,-0.117 0.032,-0.106 0.015,-0.105 0.024,-0.141 0.062,-0.113 0.043,-0.094 0.004,-0.098 0.008,-0.113 0.019,-0.109 0.024,-0.086 -0.028,-0.071 -0.007,-0.093 0.039,-0.086 0.008,-0.102 0.023,-0.097 0.023,-0.075 0.04,-0.089 0.015,-0.11 -0.004,-0.094 0.035,-0.078 0.012,-0.078 0.024,-0.101 0.042,-0.114 v -0.097 l -0.011,-0.078 0.031,-0.083 0.023,-0.085 0.028,-0.094 0.012,-0.106 -0.024,-0.058 -0.008,-0.078 0.051,-0.094 0.055,-0.098 0.023,-0.097 0.02,-0.102 -0.008,-0.078 -0.07,-0.082 0.004,-0.11 0.113,-0.093 0.051,-0.141 0.05,-0.133 0.032,-0.125 0.07,-0.129 0.07,-0.101 0.016,-0.129 0.019,-0.129 0.028,-0.125 0.043,-0.137 -0.035,-0.129 -0.09,-0.109 0.043,-0.105 0.078,-0.102 0.019,-0.117 0.016,-0.114 0.023,-0.105 0.121,-0.094 0.071,-0.105 -0.039,-0.113 v -0.118 l 0.011,-0.105 0.02,-0.098 -0.02,-0.082 0.059,-0.078 0.047,-0.117 -0.016,-0.098 0.024,-0.094 0.004,-0.078 0.039,-0.07 0.031,-0.047 -0.004,-0.062 0.016,-0.106 0.004,-0.086 0.019,-0.086 0.004,-0.086 0.02,-0.117 0.043,-0.105 -0.008,-0.067 0.004,-0.093 0.019,-0.094 0.008,-0.09 0.035,-0.098 0.031,-0.09 0.012,-0.105 0.012,-0.113 0.023,-0.106 0.024,-0.109 0.031,-0.09 -0.02,-0.121 v -0.125 l 0.063,-0.106 0.031,-0.117 0.039,-0.14 0.035,-0.129 0.032,-0.157 0.019,-0.14 0.031,-0.121 0.012,-0.121 0.008,-0.11 0.019,-0.101 0.004,-0.11 -0.015,-0.097 -0.008,-0.075 0.023,-0.062 0.036,-0.07 0.031,-0.078 0.011,-0.075 0.012,-0.043 -0.066,-0.05 -0.028,-0.09 0.09,-0.059 0.02,-0.086 0.035,-0.082 0.031,-0.07 0.184,-0.067 0.082,-0.086 -0.09,-0.062 -0.012,-0.074 v -0.063 l 0.004,-0.086 -0.031,-0.039 -0.008,-0.054 0.016,-0.094 0.043,-0.102 0.031,-0.117 0.016,-0.086 0.007,-0.074 0.082,-0.07 0.051,-0.094 -0.035,-0.098 0.016,-0.101 0.019,-0.09 0.004,-0.106 0.004,-0.121 0.035,-0.105 0.043,-0.086 v -0.094 l 0.02,-0.109 0.027,-0.098 0.027,-0.094 0.012,-0.078 0.004,-0.066 0.035,-0.078 0.031,-0.082 0.016,-0.082 0.023,-0.071 -0.003,-0.07 0.015,-0.078 0.024,-0.067 0.004,-0.074 0.023,-0.082 0.039,-0.066 0.047,-0.11 0.094,-0.078 0.039,-0.047 v -0.043 l 0.008,-0.05 v -0.047 l 0.015,-0.039 -0.058,-0.039 -0.028,-0.059 0.071,-0.047 0.05,-0.054 0.024,-0.063 0.031,-0.035 0.07,-0.028 0.071,-0.066 0.019,-0.058 0.024,-0.024 0.015,-0.012 0.008,-0.023 0.027,-0.012 0.004,-0.035" style="fill:none;stroke:#000000;stroke-width:2.61538;stroke-linecap:round;stroke-linejoin:round;stroke-miterlimit:10;stroke-dasharray:none;stroke-opacity:1" id="path1710" />
         </g>
         <g id="g1712" transform="matrix(1,0,0,-1,38.0301,6.0431251)">
            <path d="m 827.207,-356.039 c 0.64655,-0.4767 2.42811,0.14208 3.49467,0.14926 1.56934,-0.17372 2.04916,1.53457 1.8595,2.77759 -0.23771,1.72844 -0.83967,3.39597 -1.18809,5.09618 -0.26735,1.24747 -0.37595,2.84261 -1.28962,3.72694 l -0.0132,0.0473 0.0281,0.0392" style="fill:none;stroke:#000000;stroke-width:2.61538;stroke-linecap:round;stroke-linejoin:round;stroke-miterlimit:10;stroke-dasharray:none;stroke-opacity:1" id="path1714" />
         </g>
         <g id="g1716" transform="matrix(1,0,0,-1,38.0301,6.0431251)">
            <path d="m 826.051,-356.648 c 4.5055,0.93907 0.2591,6.22793 0.87495,9.2454 -0.85808,5.30514 -1.80129,10.63465 -1.99485,16.02272 0.1052,0.076 1.37097,1.10938 1.4479,1.05588" style="fill:none;stroke:#000000;stroke-width:2.61538;stroke-linecap:round;stroke-linejoin:round;stroke-miterlimit:10;stroke-dasharray:none;stroke-opacity:1" id="path1718" sodipodi:nodetypes="cccc" />
         </g>
         <g id="g1720" transform="matrix(1,0,0,-1,38.0301,6.0431251)">
            <path d="m 824.691,-331.613 c 1.83896,-0.16935 -2.32578,-5.72733 -0.91,-5.848" style="fill:none;stroke:#000000;stroke-width:2.61538;stroke-linecap:round;stroke-linejoin:round;stroke-miterlimit:10;stroke-dasharray:none;stroke-opacity:1" id="path1722" />
         </g>
         <g id="g1724" transform="matrix(1,0,0,-1,38.0301,6.0431251)">
            <path d="m 826.379,-330.324 c 48.55113,8.48096 97.69858,13.71439 146.47693,20.96616 42.98947,5.39965 86.00137,12.86755 128.99007,16.87858 5.7884,-2.20069 9.9699,-8.86659 9.294,-15.03674" style="fill:none;stroke:#000000;stroke-width:2.61538;stroke-linecap:round;stroke-linejoin:round;stroke-miterlimit:10;stroke-dasharray:none;stroke-opacity:1" id="path1726" />
         </g>
         <g id="g1728" transform="matrix(1,0,0,-1,38.0301,6.0431251)">
            <path d="m 827.703,-341.754 c 94.44736,11.29175 188.522,28.8083 282.926,38.285" style="fill:none;stroke:#000000;stroke-width:2.61538;stroke-linecap:round;stroke-linejoin:round;stroke-miterlimit:10;stroke-dasharray:none;stroke-opacity:1" id="path1730" />
         </g>
         <g id="g1732" transform="matrix(1,0,0,-1,38.0301,6.0431251)">
            <path d="m 1109.059,-307.473 c 2.8687,-2.12796 4.6655,-5.33153 7.0609,-7.93672 1.4627,-1.7484 2.9397,-3.48602 4.3343,-5.28981 -0.1476,0.12253 -0.2828,0.25647 -0.4072,0.4025" style="fill:none;stroke:#000000;stroke-width:2.61538;stroke-linecap:round;stroke-linejoin:round;stroke-miterlimit:10;stroke-dasharray:none;stroke-opacity:1" id="path1734" />
         </g>
         <g id="g1736" transform="matrix(1,0,0,-1,38.0301,6.0431251)">
            <path d="m 1120.602,-320.695 c -0.087,0.33886 0.2998,0.27744 0.4457,0.15922 0.4849,0.0471 0.9994,-0.0241 1.4612,0.1734 0.4876,0.0563 0.9726,-0.0785 1.459,-0.0881 0.2317,-0.0369 0.4207,-0.17123 0.6592,-0.16253" style="fill:none;stroke:#000000;stroke-width:2.61538;stroke-linecap:round;stroke-linejoin:round;stroke-miterlimit:10;stroke-dasharray:none;stroke-opacity:1" id="path1738" />
         </g>
         <g id="g1740" transform="matrix(1,0,0,-1,38.0301,6.0431251)">
            <path d="m 1124.628,-320.617 c 15.2756,-20.82147 35.3709,-47.47304 51.057,-67.988" style="fill:none;stroke:#000000;stroke-width:2.61538;stroke-linecap:round;stroke-linejoin:round;stroke-miterlimit:10;stroke-dasharray:none;stroke-opacity:1" id="path1742" sodipodi:nodetypes="cc" />
         </g>
         <g id="g1744" transform="matrix(1,0,0,-1,38.0301,6.0431251)">
            <path d="m 1175.685,-388.605 c 0.089,-6.93905 -4.0059,-21.48622 -4.322,-28.395 0,0 0.1463,-0.84489 -4.6106,1.88795 -3.5027,1.36376 1.0229,6.3571 0.3495,9.46702 0.3721,4.13757 1.2008,8.11735 1.8701,12.28603" style="fill:none;stroke:#000000;stroke-width:2.61538;stroke-linecap:round;stroke-linejoin:round;stroke-miterlimit:10;stroke-dasharray:none;stroke-opacity:1" id="path1746" sodipodi:nodetypes="ccccc" />
         </g>
         <g id="g1748" transform="matrix(1,0,0,-1,38.0301,6.0431251)">
            <path d="m 850.805,-470.793 c 107.11694,18.60309 213.5943,34.26045 320.558,53.793" style="fill:none;stroke:#000000;stroke-width:2.61538;stroke-linecap:round;stroke-linejoin:round;stroke-miterlimit:10;stroke-dasharray:none;stroke-opacity:1" id="path1750" sodipodi:nodetypes="cc" />
         </g>
         <g id="g1752" transform="matrix(1,0,0,-1,38.0301,6.0431251)">
            <path d="m 1136.156,-423.047 c 0.3911,3.70704 0.2679,7.42568 0.1589,11.14453 0.3356,4.16767 7.7432,2.78256 5.6878,-1.57604 0.1586,-2.19637 0.6681,-5.45069 -0.091,-6.99449" style="fill:none;stroke:#000000;stroke-width:2.61538;stroke-linecap:round;stroke-linejoin:round;stroke-miterlimit:10;stroke-dasharray:none;stroke-opacity:1" id="path1754" />
         </g>
         <g id="g1756" transform="matrix(1,0,0,-1,38.0301,6.0431251)">
            <path d="m 1143.285,-419.391 c 1.4847,3.04437 -0.8127,8.40897 3.618,9.35208 5.2354,2.97226 4.3594,-4.78833 4.2846,-7.8517 0.01,-0.9612 0.1452,-1.9142 0.2498,-2.86738" style="fill:none;stroke:#000000;stroke-width:2.61538;stroke-linecap:round;stroke-linejoin:round;stroke-miterlimit:10;stroke-dasharray:none;stroke-opacity:1" id="path1758" />
         </g>
         <g id="g1760" transform="matrix(1,0,0,-1,38.0301,6.0431251)">
            <path d="m 1151.4374,-420.758 c 1.369,2.22913 -1.0738,12.53587 3.3697,12.07711 4.4147,1.32468 4.7058,-3.04069 4.22,-6.13342 0.2133,-1.33053 0.014,-3.25707 -0.039,-4.23669" style="fill:none;stroke:#000000;stroke-width:2.61538;stroke-linecap:round;stroke-linejoin:round;stroke-miterlimit:10;stroke-dasharray:none;stroke-opacity:1" id="path1762" sodipodi:nodetypes="cccc" />
         </g>
         <g id="g1764" transform="matrix(1,0,0,-1,38.0301,6.0431251)">
            <path d="m 1159.285,-416.352 c 1.4119,2.33988 -2.167,7.37887 1.6314,9.2696 3.4289,1.2813 6.777,-0.93537 5.3731,-4.8385 -0.014,-1.79102 2.042,-4.83665 0.326,-6.0711" style="fill:none;stroke:#000000;stroke-width:2.61538;stroke-linecap:round;stroke-linejoin:round;stroke-miterlimit:10;stroke-dasharray:none;stroke-opacity:1" id="path1766" />
         </g>
         <g id="g1768" transform="matrix(1,0,0,-1,38.0301,6.0431251)">
            <path d="m 1158.836,-401.965 c -1.1911,2.50465 -1.1787,6.47093 2.5704,6.26101 3.0548,0.97951 8.6214,3.76829 7.9236,-1.97208 1.4394,-3.6619 -1.318,-4.50043 -4.3145,-3.89606 -1.7955,-0.0218 -3.6685,-0.32271 -5.4055,0.27513" style="fill:none;stroke:#000000;stroke-width:2.61538;stroke-linecap:round;stroke-linejoin:round;stroke-miterlimit:10;stroke-dasharray:none;stroke-opacity:1" id="path1770" />
         </g>
         <g id="g1772" transform="matrix(1,0,0,-1,38.0301,6.0431251)">
            <path d="m 1165.816,-397.445 c -0.4629,-1.27618 -0.6823,-2.71325 -0.348,-4.047" style="fill:none;stroke:#000000;stroke-width:2.61538;stroke-linecap:round;stroke-linejoin:round;stroke-miterlimit:10;stroke-dasharray:none;stroke-opacity:1" id="path1774" />
         </g>
         <g id="g1776" transform="matrix(1,0,0,-1,38.0301,6.0431251)">
            <path d="m 847.19726,-443.16315 c 66.64288,12.08536 137.3247,22.78359 204.29914,33.96136 41.3569,6.90213 83.0691,13.22502 124.1886,20.59679" style="fill:none;stroke:#000000;stroke-width:2.61538;stroke-linecap:round;stroke-linejoin:round;stroke-miterlimit:10;stroke-dasharray:none;stroke-opacity:1" id="path1778" sodipodi:nodetypes="csc" />
         </g>
         <g id="g1780" transform="matrix(1,0,0,-1,38.0301,6.0431251)">
            <path d="m 951.977,-399.012 c -2.5276,9.0377 -6.03545,17.76844 -8.504,26.824 0.42443,8.56898 -10.34053,11.86028 -17.04873,8.86409 -11.37007,-2.27154 -23.23193,-1.65599 -34.35217,-5.23853 -4.92523,-3.48423 -1.8813,-9.93318 -0.46206,-14.44553 2.50243,-8.79552 3.87308,-17.85208 5.43296,-26.84703 5.31912,-5.81678 9.75688,-14.86724 18.59101,-15.32187 8.29133,0.38284 15.84787,4.44572 23.95299,5.974 7.09237,0.23152 9.26648,7.65848 11.40778,12.3573 -0.12038,2.1698 0.31612,5.73071 0.98222,7.83357" style="fill:none;stroke:#000000;stroke-width:2.61538;stroke-linecap:round;stroke-linejoin:round;stroke-miterlimit:10;stroke-dasharray:none;stroke-opacity:1" id="path1782" sodipodi:nodetypes="cccccccccc" />
         </g>
         <g id="g1784" transform="matrix(1,0,0,-1,38.0301,6.0431251)">
            <path d="m 894.367,-391.891 c 4.508,-4.117 10.988,-3.105 16.535,-4.097 7.633,-1.453 15.09,2.547 20.645,7.433 2.969,3.602 6.074,8.094 5.238,12.996 -1.687,4.688 -6.105,7.961 -10.508,9.922 -2.254,0.723 -4.648,0.703 -6.972,1.008" style="fill:none;stroke:#000000;stroke-width:2.61538;stroke-linecap:round;stroke-linejoin:round;stroke-miterlimit:10;stroke-dasharray:none;stroke-opacity:1" id="path1786" />
         </g>
         <g id="g1788" transform="matrix(1,0,0,-1,38.0301,6.0431251)">
            <path d="m 901.848,-378.621 h -0.036 l -0.062,0.004 0.059,0.012 0.003,0.062 0.02,-0.008 0.016,0.02 0.101,0.031 -0.039,0.023 -0.004,0.02 v -0.012 0.008 -0.004 l 0.016,-0.004 -0.024,-0.008 0.016,-0.003 v 0.011 l 0.004,-0.011 v -0.032 l -0.02,0.008 -0.003,-0.031 -0.004,-0.027 -0.008,0.023 -0.004,-0.016 -0.027,-0.004 -0.02,-0.003 h -0.008 v -0.008 0.015 l 0.094,-0.027 0.039,-0.059 -0.082,-0.019 -0.016,-0.043 -0.019,-0.016 -0.031,-0.051 -0.059,-0.042 -0.012,0.003 0.008,-0.023 -0.027,-0.027 -0.012,-0.02 -0.012,-0.016 0.055,-0.031 0.02,-0.062 -0.043,-0.043 -0.004,-0.047 -0.012,-0.031 0.008,-0.051 -0.035,-0.024 0.062,-0.125 -0.035,-0.046 0.016,-0.071 v -0.051 l 0.003,-0.062 -0.207,-0.055 -0.085,-0.086 0.128,-0.035 0.028,-0.055 0.023,-0.054 0.031,-0.035 0.055,-0.032 0.07,-0.027 0.008,-0.043 -0.015,-0.047 0.004,-0.027 v -0.024 l 0.031,-0.062 -0.024,-0.055 -0.027,-0.047 0.039,-0.047 0.023,-0.054 0.016,-0.051 0.008,-0.066 0.055,-0.047 0.047,0.004 -0.036,-0.036 0.032,-0.039 h 0.035 l 0.027,-0.023 0.059,-0.035 0.031,-0.039 v -0.024 l 0.035,-0.027 0.043,-0.023 0.039,-0.032 0.055,-0.047 0.086,-0.046 0.078,-0.043 0.039,-0.036 0.07,-0.031 0.082,-0.035 0.078,-0.051 0.059,-0.054 0.004,-0.024 0.035,-0.031 0.086,-0.028 0.078,-0.035 0.09,-0.035 0.066,0.028 0.153,-0.012 0.109,-0.063 -0.008,-0.019 0.059,-0.043 0.051,-0.031 0.07,-0.032 -0.012,-0.015 -0.027,-0.008 0.051,-0.02 0.09,-0.007 h 0.074 l 0.074,-0.02 0.059,0.031 0.023,0.012 0.047,-0.004 0.074,-0.012 h 0.07 l 0.055,0.028 0.055,0.004 -0.004,0.007 0.066,0.008 h 0.09 l 0.051,0.012 0.016,0.019 0.035,0.016 0.054,0.008 0.039,0.027 0.024,0.043 0.066,0.035 0.067,0.043 0.043,0.035 0.047,0.02 0.074,0.043 0.07,0.059 0.051,0.043 0.043,0.043 0.039,0.05 0.062,0.055 0.082,0.043 0.032,0.051 0.019,0.062 0.043,0.063 0.055,0.051 0.047,0.05 0.035,0.012 0.051,0.027 0.031,0.067 0.055,0.062 0.058,0.067 0.039,0.058 0.032,0.059 0.05,0.058 -0.008,0.051 0.004,0.055 0.051,0.035 0.012,0.043 0.015,0.039 0.008,0.063 0.004,0.054 0.012,0.016 v 0.07 l -0.008,0.024 -0.055,0.027 -0.156,0.027 -0.027,0.043 0.062,0.039 -0.039,0.039 -0.023,0.036 -0.051,0.109 0.039,0.102 -0.039,0.011 -0.094,0.051 -0.105,0.07 -0.082,0.086 -0.074,0.078 -0.137,0.059 -0.106,0.07 -0.039,0.067 -0.066,0.062 -0.078,0.059 -0.078,0.027 -0.067,0.051 0.004,0.062 -0.058,0.047 -0.129,0.032 -0.102,0.015 -0.082,0.024 -0.047,0.019 -0.07,0.02 -0.027,0.019 -0.047,0.004 -0.09,0.024 -0.059,0.035 -0.062,0.004 h -0.032 l -0.078,0.011 -0.113,0.02 -0.09,0.004 -0.066,0.015 -0.067,0.02 -0.062,-0.027 -0.109,0.007 -0.086,0.039 -0.02,0.004 -0.043,0.008 -0.031,0.008 -0.035,0.008 -0.028,0.008 h 0.024 l -0.043,0.004 -0.067,0.003 -0.043,0.004 h -0.027 l -0.039,-0.015 -0.168,-0.008 -0.039,0.023 0.078,-0.015 0.02,-0.012 0.019,-0.004 0.012,-0.004 -0.016,-0.008 h -0.105 l 0.062,-0.011 h 0.016 l 0.008,0.007 -0.008,0.008 -0.004,-0.011 -0.027,-0.004 -0.008,-0.028 -0.004,-0.004 -0.008,-0.019 -0.004,-0.031 -0.105,-0.024 -0.078,-0.015 0.039,-0.02 0.019,-0.008 0.008,-0.019" style="fill:none;stroke:#000000;stroke-width:2.61538;stroke-linecap:round;stroke-linejoin:round;stroke-miterlimit:10;stroke-dasharray:none;stroke-opacity:1" id="path1790" />
         </g>
         <g id="g1792" transform="matrix(1,0,0,-1,38.0301,6.0431251)">
            <path d="m 919.535,-384.871 v -0.004 h -0.008 l 0.043,-0.016 0.016,0.012 -0.09,0.012 -0.07,0.004 -0.051,0.062 -0.004,0.016 -0.137,0.012 -0.058,0.023 0.047,0.004 -0.028,0.023 -0.019,0.016 -0.004,-0.016 -0.004,0.028 0.066,0.027 -0.011,0.016 -0.024,0.023 -0.023,-0.012 -0.047,0.02 -0.047,0.012 -0.152,-0.008 -0.012,-0.008 0.09,-0.004 -0.02,-0.008 0.012,-0.019 0.004,-0.032 0.008,-0.042 -0.039,0.019 -0.032,-0.004 -0.019,-0.004 -0.039,-0.011 0.008,-0.008 -0.024,-0.039 -0.015,-0.047 -0.024,-0.016 -0.035,-0.012 -0.039,-0.023 -0.047,-0.023 -0.051,-0.032 0.016,-0.015 -0.024,-0.028 -0.078,-0.023 -0.05,-0.035 -0.036,-0.035 -0.039,-0.051 -0.086,-0.074 -0.179,-0.051 -0.055,-0.086 0.039,-0.078 -0.031,-0.035 -0.039,-0.067 -0.016,-0.035 0.067,-0.055 0.011,-0.07 -0.101,-0.07 -0.047,-0.078 -0.035,-0.043 -0.02,-0.036 -0.023,-0.046 0.004,-0.075 v -0.05 l -0.024,-0.051 -0.008,-0.11 -0.011,-0.035 0.031,-0.054 0.012,-0.051 -0.024,-0.035 v -0.075 l 0.004,-0.046 0.031,-0.02 0.067,-0.023 0.031,-0.051 -0.043,-0.028 0.012,-0.043 v -0.054 l -0.137,-0.024 -0.031,-0.062 0.125,-0.047 0.066,-0.051 0.07,-0.058 0.047,-0.071 0.051,-0.074 0.067,-0.016 0.062,-0.046 0.078,-0.043 0.082,-0.051 0.078,-0.039 0.121,-0.031 0.039,-0.051 0.071,-0.055 0.09,-0.035 0.097,-0.035 0.121,-0.035 0.086,-0.047 0.125,-0.035 0.11,0.003 0.121,-0.015 0.172,-0.02 0.164,-0.004 0.164,-0.015 0.164,-0.02 0.133,-0.019 0.132,0.011 0.204,0.008 0.207,0.004 0.179,0.027 0.153,0.016 0.257,0.012 0.219,0.031 0.035,0.035 0.118,0.02 0.125,0.031 0.093,0.051 0.047,0.039 -0.012,0.027 0.063,0.031 0.156,0.043 0.09,0.071 0.039,0.039 0.027,0.066 0.141,0.067 0.117,0.054 -0.047,0.063 0.02,0.078 0.016,0.098 0.023,0.105 -0.039,0.098 -0.004,0.051 0.043,0.058 0.031,0.094 0.028,0.078 0.011,0.035 -0.035,0.055 -0.043,0.066 0.004,0.051 0.02,0.07 0.004,0.071 -0.012,0.078 -0.024,0.074 -0.058,0.082 -0.008,0.09 0.008,0.086 -0.078,0.101 -0.071,0.086 -0.054,0.094 -0.043,0.09 -0.121,0.09 -0.129,0.074 -0.024,0.105 -0.051,0.094 -0.07,0.07 -0.082,0.032 -0.09,0.07 -0.09,0.106 -0.113,0.074 -0.098,0.066 -0.113,0.059 -0.121,0.058 -0.055,0.075 -0.101,0.058 -0.164,0.039 -0.149,0.055 -0.144,0.035 -0.125,0.059 -0.149,0.019 -0.168,0.008 -0.144,0.051 -0.145,0.027 -0.129,0.024 -0.125,0.023 -0.125,0.039 -0.093,0.012 -0.172,0.019 -0.168,0.024 -0.067,-0.016 h -0.085 l -0.094,0.035 -0.106,0.028 v -0.008 l -0.093,-0.004 -0.149,0.019 -0.047,0.036 -0.074,-0.008 -0.09,0.008 -0.156,0.003 h -0.172 l -0.051,-0.003 -0.031,-0.008 -0.035,-0.016 -0.059,-0.039 -0.066,-0.027 0.062,-0.028" style="fill:none;stroke:#000000;stroke-width:2.61538;stroke-linecap:round;stroke-linejoin:round;stroke-miterlimit:10;stroke-dasharray:none;stroke-opacity:1" id="path1794" />
         </g>
         <g id="g1796" transform="matrix(1,0,0,-1,38.0301,6.0431251)">
            <path d="m 899.715,-373.949 c 3.03278,1.05808 6.27361,0.38838 9.40443,0.5261 2.74707,-0.0513 5.51469,-0.62413 8.24718,-0.0729 1.77389,0.20416 3.7405,0.56269 5.37939,-0.3562 0.18594,-2.24541 0.0122,-4.81605 -1.68322,-6.49265 -1.40153,-1.22462 -3.26755,-2.13852 -5.17178,-1.90135 -1.97568,0.67755 -3.93376,1.44712 -5.78214,2.41825 -1.97487,1.25869 -4.15534,2.14766 -6.17662,3.32416 -1.00851,0.4969 -3.42755,1.7292 -4.21724,2.55459" style="fill:none;stroke:#000000;stroke-width:2.61538;stroke-linecap:round;stroke-linejoin:round;stroke-miterlimit:10;stroke-dasharray:none;stroke-opacity:1" id="path1798" sodipodi:nodetypes="ccccccccc" />
         </g>
         <g id="g1800" transform="matrix(1,0,0,-1,38.0301,6.0431251)">
            <path d="m 887.172,-370.461 c -1.348,8.414 -5.371,16.231 -6.172,24.731" style="fill:none;stroke:#000000;stroke-width:1.30769;stroke-linecap:round;stroke-linejoin:round;stroke-miterlimit:10;stroke-dasharray:none;stroke-opacity:1" id="path1802" />
         </g>
         <g id="g1804" transform="matrix(1,0,0,-1,38.0301,6.0431251)">
            <path d="m 940.145,-361.051 c -2.637,9.305 -6.594,16.743 -8.645,26.211" style="fill:none;stroke:#000000;stroke-width:1.30769;stroke-linecap:round;stroke-linejoin:round;stroke-miterlimit:10;stroke-dasharray:none;stroke-opacity:1" id="path1806" sodipodi:nodetypes="cc" />
         </g>
         <g id="g1808" transform="matrix(1,0,0,-1,38.0301,6.0431251)">
            <path d="m 944.227,-349.035 c 26.29506,5.01554 52.91731,8.17986 79.3182,12.62322 27.0387,4.13831 54.1308,8.02318 81.3678,10.61478" style="fill:none;stroke:#000000;stroke-width:1.30769;stroke-linecap:round;stroke-linejoin:round;stroke-miterlimit:10;stroke-dasharray:none;stroke-opacity:1" id="path1810" />
         </g>
         <g id="g1812" transform="matrix(1,0,0,-1,38.0301,6.0431251)">
            <path d="m 1109.5,-328.676 c 2.661,-3.71347 4.3848,-8.01246 7.1911,-11.63433 5.453,-8.35283 10.8503,-16.77207 16.8143,-24.76573 3.745,-4.48084 6.7684,-9.50085 10.3466,-14.10794" style="fill:none;stroke:#000000;stroke-width:1.30769;stroke-linecap:round;stroke-linejoin:round;stroke-miterlimit:10;stroke-dasharray:none;stroke-opacity:1" id="path1814" />
         </g>
         <g id="g1816" transform="matrix(1,0,0,-1,38.0301,6.0431251)">
            <path d="m 978.43,-410.809 c 53.086,9.016 106.531,15.934 159.808,23.352 l 3.543,0.762" style="fill:none;stroke:#000000;stroke-width:1.30769;stroke-linecap:round;stroke-linejoin:round;stroke-miterlimit:10;stroke-dasharray:none;stroke-opacity:1" id="path1818" />
         </g>
         <g id="g1820" transform="matrix(1,0,0,-1,38.0301,6.0431251)">
            <path d="m 945.23102,-351.62815 c 4.035,-10.652 11.35098,-26.56285 15.45298,-37.18385 2.636,-7.649 6.015,-14.989 9.492,-22.274" style="fill:none;stroke:#000000;stroke-width:1.30769;stroke-linecap:round;stroke-linejoin:round;stroke-miterlimit:10;stroke-dasharray:none;stroke-opacity:1" id="path1822" sodipodi:nodetypes="ccc" />
         </g>
         <g id="g1824" transform="matrix(1,0,0,-1,38.0301,6.0431251)">
            <path d="m 972.113,-411.66 c -0.47655,-0.21142 -0.57922,0.22145 -0.0459,0.1749 0.82264,0.36868 1.72198,0.31878 2.56038,0.47796 0.13518,0.0576 0.32761,0.0491 0.3925,-0.10968" style="fill:none;stroke:#000000;stroke-width:1.30769;stroke-linecap:round;stroke-linejoin:round;stroke-miterlimit:10;stroke-dasharray:none;stroke-opacity:1" id="path1826" />
         </g>
         <g id="g1828" transform="matrix(1,0,0,-1,38.0301,6.0431251)">
            <path d="m 849.594,-457.652 c 93.021,14.75248 185.1975,34.59869 278.578,47.117" style="fill:none;stroke:#000000;stroke-width:1.30769;stroke-linecap:round;stroke-linejoin:round;stroke-miterlimit:10;stroke-dasharray:none;stroke-opacity:1" id="path1830" />
         </g>
         <g id="g1832" transform="matrix(1,0,0,-1,38.0301,6.0431251)">
            <path d="m 1135.547,-398.426 c 2.3766,-3.87642 0.4467,-8.59374 0.8593,-12.80743 -0.5376,-2.54491 -0.058,-5.23217 -0.444,-7.89557" style="fill:none;stroke:#000000;stroke-width:1.30769;stroke-linecap:round;stroke-linejoin:round;stroke-miterlimit:10;stroke-dasharray:none;stroke-opacity:1" id="path1834" />
         </g>
         <g id="g2120" transform="matrix(1,0,0,-1,38.0301,6.0431251)">
            <path d="m 931.5,-334.84 c -2.97124,1.11547 -6.20211,1.31808 -9.18715,2.34275" style="fill:none;stroke:#000000;stroke-width:1.30769;stroke-linecap:round;stroke-linejoin:round;stroke-miterlimit:10;stroke-dasharray:none;stroke-opacity:1" id="path2122" sodipodi:nodetypes="cc" />
         </g>
         <g id="g2124" transform="matrix(1,0,0,-1,38.0301,6.0431251)">
            <path d="m 881,-345.73 c 2.305,3.754 10.33946,9.50401 10.33946,9.50401" style="fill:none;stroke:#000000;stroke-width:1.30769;stroke-linecap:round;stroke-linejoin:round;stroke-miterlimit:10;stroke-dasharray:none;stroke-opacity:1" id="path2126" sodipodi:nodetypes="cc" />
         </g>
         <g id="g2128" transform="matrix(1,0,0,-1,38.0301,6.0431251)">
            <path d="m 891.33946,-336.22599 30.97339,3.72874 v 0" style="fill:none;stroke:#000000;stroke-width:1.30769;stroke-linecap:round;stroke-linejoin:round;stroke-miterlimit:10;stroke-dasharray:none;stroke-opacity:1" id="path2130" sodipodi:nodetypes="ccc" />
         </g>
      </g>
   </g>
</svg>
