<?xml version="1.0" encoding="UTF-8" standalone="no"?>
<!-- Created by Ashley Blewer - This work is licensed under a Creative Commons Attribution 4.0 International License -->

<svg width="544" height="480" viewBox="0 0 143.93334 127" version="1.1" id="svg2490" inkscape:version="1.1.2 (08b2f3d93c, 2022-04-05)" sodipodi:docname="1996-dvcam-4.svg"
   xmlns:inkscape="http://www.inkscape.org/namespaces/inkscape"
   xmlns:sodipodi="http://sodipodi.sourceforge.net/DTD/sodipodi-0.dtd"
   xmlns="http://www.w3.org/2000/svg"
   xmlns:svg="http://www.w3.org/2000/svg">
   <sodipodi:namedview id="namedview2492" pagecolor="#ffffff" bordercolor="#666666" borderopacity="1.0" inkscape:pageshadow="2" inkscape:pageopacity="0.0" inkscape:pagecheckerboard="0" inkscape:document-units="mm" showgrid="false" units="px" inkscape:zoom="0.90583674" inkscape:cx="279.29978" inkscape:cy="194.84747" inkscape:window-width="1848" inkscape:window-height="1136" inkscape:window-x="72" inkscape:window-y="27" inkscape:window-maximized="1" inkscape:current-layer="layer1" />
   <defs id="defs2487" />
   <g inkscape:label="Layer 1" inkscape:groupmode="layer" id="layer1">
      <g id="g4443" transform="matrix(0.35277777,0,0,0.35277777,-283.23084,-90.281598)">
         <g id="g1408" transform="scale(1,-1)">
            <path d="m 877.621,-560.488 c -0.81643,2.73021 -4.5055,7.21476 -6.89323,8.64726 -2.31196,1.15758 -4.63382,-0.70921 -5.04853,-2.99356 -0.0327,-1.02356 -0.8114,-2.33592 -1.10684,-0.54028 -0.95041,2.26432 -4.84678,3.23185 -6.53058,1.43612 -0.95421,-1.08147 -0.60414,-4.19076 -1.3846,-4.26625 -1.56558,1.72626 -3.32927,4.2243 -5.83915,4.2508 -2.33127,-0.18183 -3.31304,-2.54063 -3.7462,-4.51601 -0.5415,-1.56905 -0.46249,1.68818 -1.60924,1.67891 -2.21715,1.39369 -5.38822,0.0467 -6.51742,-2.13684 -0.85813,-1.61312 2.3206,-3.98204 -0.81509,-3.97705 -1.78901,0.6245 -3.32138,2.00249 -4.89799,3.07068 -1.94233,1.85191 -3.25311,4.29496 -5.4419,5.90387 -1.0401,1.00769 -2.69553,3.30701 -3.26325,3.67639" style="fill:none;stroke:#000000;stroke-width:3.92308;stroke-linecap:round;stroke-linejoin:round;stroke-miterlimit:10;stroke-dasharray:none;stroke-opacity:1" id="path1410" sodipodi:nodetypes="cccccccccccccc" />
         </g>
         <g id="g1412" transform="scale(1,-1)">
            <path d="m 832.73,-559.871 c -0.38262,2.98623 -0.36519,6.04452 -0.89134,9.0355 0.0367,3.17452 -1.08443,6.45964 0.38187,9.44345 1.66138,2.10994 5.06875,2.71348 5.37555,5.86007 1.26258,3.52726 -3.0503,6.05296 -4.99809,8.48498 -2.60899,1.10387 -4.34821,5.83845 -6.5123,5.8388 0.0587,-3.55978 -1.76504,-7.16795 -1.37462,-10.58204 1.70834,-2.34825 4.15258,-3.89454 5.83727,-6.27791 0.86996,-0.69547 1.53335,-1.35416 2.14665,-2.14685" style="fill:none;stroke:#000000;stroke-width:3.92308;stroke-linecap:round;stroke-linejoin:round;stroke-miterlimit:10;stroke-dasharray:none;stroke-opacity:1" id="path1414" />
         </g>
         <g id="g1416" transform="scale(1,-1)">
            <path d="m 824.52698,-550.25396 c -0.0263,4.90399 -0.66532,10.05985 -0.54911,14.9581 0.16946,1.54096 0.4867,3.07161 0.47504,4.62786" style="fill:none;stroke:#000000;stroke-width:3.92308;stroke-linecap:round;stroke-linejoin:round;stroke-miterlimit:10;stroke-dasharray:none;stroke-opacity:1" id="path1418" sodipodi:nodetypes="ccc" />
         </g>
         <g id="g1420" transform="scale(1,-1)">
            <path d="m 824.051,-521.805 0.01,109.86157 1.15408,1.67743" style="fill:none;stroke:#000000;stroke-width:3.92308;stroke-linecap:round;stroke-linejoin:round;stroke-miterlimit:10;stroke-dasharray:none;stroke-opacity:1" id="path1422" sodipodi:nodetypes="ccc" />
         </g>
         <g id="g1424" transform="scale(1,-1)">
            <path d="m 824.02,-410.059 c 0.16738,24.97509 1.69484,49.9844 -0.13704,74.934" style="fill:none;stroke:#000000;stroke-width:3.92308;stroke-linecap:round;stroke-linejoin:round;stroke-miterlimit:10;stroke-dasharray:none;stroke-opacity:1" id="path1426" />
         </g>
         <g id="g1428" transform="scale(1,-1)">
            <path d="m 825.66,-335.355 v 0.07 l 0.043,0.086 -0.008,0.121 -0.062,0.043 0.082,0.055 v -0.016 l -0.039,0.019 -0.004,0.02 0.023,0.012 0.012,0.011 0.02,-0.015 0.031,-0.02 0.054,-0.015 -0.058,-0.016 -0.039,-0.016 0.078,-0.027 0.043,-0.023 0.039,-0.024 0.035,-0.008 0.242,-0.035 0.188,-0.027 -0.094,-0.031 0.039,-0.028 0.008,-0.015 0.004,-0.012 -0.059,-0.027 -0.047,-0.012 0.032,-0.012 0.086,-0.043 0.043,-0.023 0.05,-0.032 0.172,-0.035 0.153,-0.019 -0.012,-0.012 0.062,-0.031 0.059,-0.024 0.062,-0.027 0.079,-0.039 0.105,-0.031 0.106,-0.035 0.078,-0.012 0.086,-0.028 0.097,-0.027 0.11,-0.035 0.121,-0.047 0.097,-0.043 0.071,-0.039 0.086,-0.016 0.078,-0.031 0.078,-0.012 0.07,-0.023 0.082,-0.023 0.09,-0.032 0.074,-0.027 0.203,-0.062 0.121,-0.016 0.165,-0.008 0.07,-0.031 0.031,-0.02 0.063,-0.008 h 0.062 l -0.117,-0.011 0.039,-0.008 0.172,-0.02 0.113,-0.003 0.094,-0.004 h 0.062 l 0.106,0.004 h 0.14 l 0.067,-0.024 0.027,-0.012 0.047,-0.007 0.031,-0.02 0.063,-0.008 -0.008,-0.008 0.023,-0.003 0.071,-0.028 0.058,-0.019 0.067,-0.028 0.074,-0.035 0.078,-0.039 0.067,-0.023 0.046,-0.032 0.082,-0.019 0.079,-0.031 0.093,-0.036 0.082,-0.039 0.18,-0.019 0.137,-0.012 -0.02,-0.039 0.055,-0.039 0.043,-0.016 0.051,-0.023 0.043,-0.059 0.011,-0.039 0.051,-0.035 0.07,-0.035 0.055,-0.016 0.059,-0.031 0.054,-0.047 0.102,-0.039 0.078,-0.039 0.039,-0.039 0.074,-0.016 0.071,-0.027 0.058,-0.012 0.047,-0.023 0.07,-0.039 0.055,-0.016 0.024,-0.023 0.046,-0.028 0.051,-0.031 0.043,-0.012 v -0.023 l 0.035,-0.031 0.059,-0.028 0.047,-0.011 0.043,-0.008 0.051,-0.02 -0.051,-0.039 0.008,-0.047 0.101,-0.015 0.071,-0.012 0.054,-0.031 0.039,-0.024 -0.004,-0.007 0.149,-0.032 0.125,-0.031 h -0.012 l 0.035,-0.027 0.028,-0.024 0.031,-0.011 -0.09,-0.024 0.016,-0.043 0.113,-0.012 0.058,-0.035 0.082,-0.008 0.028,-0.015 0.074,-0.008 0.102,-0.004 0.027,-0.043 0.004,-0.035 0.012,-0.004 0.011,-0.008 0.028,-0.027 -0.036,-0.004 -0.011,-0.031 0.047,-0.024 0.043,-0.011 0.062,-0.032 0.039,-0.031 0.09,-0.031 -0.012,-0.016 -0.031,-0.008 0.07,-0.019 0.067,-0.012 0.058,-0.035 0.024,-0.031 0.031,-0.024 0.031,-0.027 0.02,-0.016 0.027,-0.027 0.031,-0.012 0.032,-0.023 0.035,-0.031 -0.004,-0.012 -0.012,-0.004 0.02,-0.004 0.019,-0.012 0.024,-0.003 0.015,-0.004 -0.047,-0.024 0.02,-0.012 0.059,-0.011 0.058,-0.008 0.016,-0.027 0.015,-0.004 0.008,0.004 0.032,-0.016 0.042,-0.008 v -0.008 l 0.024,-0.027 h 0.008 l -0.024,-0.02 0.02,-0.007 0.039,-0.012 0.039,-0.031 0.012,-0.02 0.023,-0.004 0.024,-0.015 0.074,-0.047 0.031,-0.047 -0.008,-0.004 0.02,-0.024 0.004,-0.015 0.023,-0.035 -0.019,-0.016 0.117,-0.023 0.09,-0.035 -0.043,-0.004 0.004,-0.016 -0.008,-0.016 0.008,-0.007 -0.106,-0.024 -0.016,-0.047 0.071,0.008 0.035,-0.023 0.023,-0.047 0.09,-0.012 0.137,-0.004 v -0.023 l -0.043,-0.02 0.012,-0.008 v 0.004 l 0.027,-0.004 -0.051,-0.015 0.074,-0.012 0.039,-0.027 0.032,-0.024 0.039,-0.035 0.051,-0.027 0.007,-0.016 0.012,-0.031 0.035,-0.028 0.078,-0.078 0.043,-0.019 0.004,-0.008 0.02,-0.031 0.051,-0.039 0.05,-0.02 0.02,-0.019 0.027,-0.024 0.012,-0.004 0.023,-0.019 0.047,0.011 0.043,0.028 0.039,-0.012 0.039,-0.019 -0.015,-0.028 -0.071,0.004 0.012,0.008 0.043,-0.012 0.027,-0.008 0.02,0.008 0.023,-0.008 0.184,-0.007 0.082,-0.051 h -0.094 l -0.011,-0.012 -0.032,-0.008 0.047,-0.004 0.055,-0.004 0.012,-0.007 0.007,-0.004 h 0.004 v -0.02 l 0.11,-0.051 0.035,-0.043 -0.039,0.004 -0.008,-0.007 0.004,-0.012 v -0.024 l -0.004,-0.023 0.047,-0.008 0.043,-0.004 -0.024,-0.015 0.028,-0.008 0.004,-0.008 0.019,-0.012 -0.094,-0.004 -0.039,-0.035 0.102,-0.008 0.027,-0.015 0.059,0.004 0.023,-0.008 0.071,-0.004 0.058,-0.004 h 0.02 l -0.004,0.004 0.012,-0.012 0.007,0.004 0.032,-0.004 0.007,-0.027 v -0.027 l 0.016,-0.032 0.004,-0.027 0.027,-0.02 0.02,-0.031 -0.008,-0.015 -0.004,-0.02 0.035,-0.02 0.043,-0.011 0.02,-0.039 0.035,-0.008 0.062,-0.024 0.059,-0.007 -0.023,0.015 0.007,-0.023 0.004,-0.039 h 0.043 l -0.008,0.035 0.11,0.008 0.082,0.008 -0.067,-0.008 h -0.023 0.008 l -0.008,0.011 0.02,-0.042 -0.071,-0.012 -0.031,0.027 0.012,0.008 v 0.043 l -0.004,0.019 0.215,0.008" style="fill:none;stroke:#000000;stroke-width:3.92308;stroke-linecap:round;stroke-linejoin:round;stroke-miterlimit:10;stroke-dasharray:none;stroke-opacity:1" id="path1430" />
         </g>
         <g id="g1432" transform="scale(1,-1)">
            <path d="m 833.027,-345.707 v -0.063 l 0.004,-0.117 v -0.164 l 0.004,-0.16 v -0.168 l 0.027,-0.18 c -1.359,-57.945 0.18,-160.64 0.036,-177.136 l 0.109,-0.063 0.047,-0.074 -0.07,-0.039 -0.008,-0.07 -0.024,-0.032 -0.011,-0.066 -0.032,-0.086 -0.14,-0.066 -0.031,-0.094 0.078,-0.067 0.011,-0.086 0.016,-0.082 -0.004,-0.054 0.109,-0.067 0.043,-0.062 -0.082,-0.039 -0.019,-0.067 -0.016,-0.066 -0.012,-0.078 -0.07,-0.055 0.016,-0.027 0.027,-0.031 -0.051,-0.032 -0.015,-0.043 -0.012,-0.004 -0.008,0.012 0.004,-0.015 0.004,0.015 -0.004,-0.008 -0.004,-0.027 v -0.027 l -0.015,0.004 h 0.031 l 0.004,-0.02 v -0.027 h 0.027 l 0.055,-0.02 0.004,-0.004 -0.039,-0.019 -0.004,-0.024 -0.008,-0.007 -0.027,0.003 h -0.118 l -0.054,-0.043 0.066,-0.031 0.043,-0.055 -0.019,-0.015 0.007,-0.043 0.086,-0.043 v 0.004 l -0.047,-0.07 0.032,-0.083 -0.035,-0.023 v -0.074 l -0.004,-0.035 -0.082,0.019 -0.008,-0.051 h 0.047 l 0.007,-0.023 0.032,-0.047 0.011,-0.023 0.063,-0.012 -0.059,-0.02 -0.058,-0.027 0.051,-0.008 0.007,-0.015 -0.011,-0.067 v -0.047 l 0.117,0.012 h 0.086 l -0.098,0.016 -0.012,-0.032 -0.023,-0.046 -0.063,0.011 -0.07,0.028 0.004,0.011 0.02,0.016 0.011,0.016 0.004,0.027 -0.004,0.016 0.078,-0.016 0.024,0.043 -0.055,-0.047 0.004,-0.035 h -0.031 l -0.028,-0.024 0.055,0.016 0.008,0.035 -0.078,-0.008 h -0.059 l -0.047,0.008 -0.031,0.043 -0.058,0.02 -0.075,-0.039 -0.066,-0.012 -0.063,-0.008" style="fill:none;stroke:#000000;stroke-width:3.92308;stroke-linecap:round;stroke-linejoin:round;stroke-miterlimit:10;stroke-dasharray:none;stroke-opacity:1" id="path1434" />
         </g>
         <g id="g1436" transform="scale(1,-1)">
            <path d="m 836.672,-342.18 c -0.30659,-6.37503 -2.31393,-12.58038 -2.0402,-19.00233 0.0302,-3.74042 -0.13978,-7.49258 -0.31493,-11.21565 0.49163,-4.6827 -0.58242,-9.85248 2.10496,-14.04495 1.60921,-6.13237 1.08897,-12.52765 1.67043,-18.78365 -1.01822,-2.61089 1.39904,-5.61523 4.17883,-4.29793 1.8772,0.88149 -0.14106,4.22406 0.52767,6.16512 -0.23193,2.12516 0.73748,5.92624 -0.75418,6.99297 -1.08619,-0.40215 -1.86106,-1.74885 -3.14649,-1.50858" style="fill:none;stroke:#000000;stroke-width:3.92308;stroke-linecap:round;stroke-linejoin:round;stroke-miterlimit:10;stroke-dasharray:none;stroke-opacity:1" id="path1438" />
         </g>
         <g id="g1440" transform="scale(1,-1)">
            <path d="m 843.746,-397.93 c -0.26328,1.82107 -0.16784,3.68917 -0.72667,5.46825 -0.93079,1.60611 0.68357,4.52644 -1.24714,5.24522 -0.94486,-0.23038 -1.80645,-0.74704 -2.74526,-1.01345" style="fill:none;stroke:#000000;stroke-width:3.92308;stroke-linecap:round;stroke-linejoin:round;stroke-miterlimit:10;stroke-dasharray:none;stroke-opacity:1" id="path1442" />
         </g>
         <g id="g1444" transform="scale(1,-1)">
            <path d="m 842.867,-388.133 c -0.29321,6.71135 0.17564,13.43661 -0.25726,20.14348 -0.0738,4.28456 -0.0143,8.57241 0.45185,12.83453 0.19243,3.60427 0.21035,7.33963 1.67038,10.71035 1.51243,1.88077 3.31757,3.85501 3.65793,6.32932 -0.91682,2.35042 -4.08487,2.5e-4 -5.96959,0.58001 -3.11175,-0.13595 -6.23711,-0.33 -9.29124,-0.97668" style="fill:none;stroke:#000000;stroke-width:3.92308;stroke-linecap:round;stroke-linejoin:round;stroke-miterlimit:10;stroke-dasharray:none;stroke-opacity:1" id="path1446" />
         </g>
         <g id="g1448" transform="scale(1,-1)">
            <path d="m 828.074,-371.969 h 0.028 l 0.082,-0.004 0.097,-0.004 0.18,-0.011 0.129,0.015 0.051,-0.004 0.011,0.004 0.02,0.012 0.023,-0.008 0.016,0.02 0.012,0.035 -0.039,-0.02 -0.036,-0.011 -0.027,0.023 -0.035,0.004 -0.043,-0.012 -0.09,-0.023 -0.015,-0.008 0.011,0.004 -0.004,0.016 -0.004,0.019 -0.007,-0.008 -0.043,-0.011 -0.008,0.003 0.008,-0.003 h -0.004 l -0.016,0.007 -0.008,-0.004 -0.09,-0.015 -0.085,-0.012 h 0.054 l 0.02,0.012 0.011,-0.004 0.008,-0.027 0.028,0.007 -0.008,-0.019 -0.004,-0.004 0.039,0.016 0.047,0.004 V -372 l 0.07,0.008 0.219,-0.035 0.035,-0.016 -0.094,0.004 -0.019,-0.023 -0.032,-0.016 -0.027,-0.027 -0.176,-0.028 -0.121,-0.055 0.09,-0.019 -0.019,-0.059 0.023,-0.074 0.004,-0.039 0.07,-0.059 0.012,-0.074 -0.086,-0.05 -0.004,-0.094 -0.027,-0.074 -0.016,-0.063 0.012,-0.031 -0.067,-0.051 -0.054,-0.078 0.027,-0.063 -0.019,-0.058 -0.004,-0.078 -0.004,-0.063 0.015,-0.051 -0.043,-0.039 -0.031,-0.078 0.024,-0.082 -0.016,-0.09 0.02,-0.105 -0.032,-0.098 -0.062,-0.086 0.019,-0.066 0.028,-0.067 0.011,-0.093 0.012,-0.118 0.008,-0.097 0.047,-0.09 0.019,-0.078 -0.019,-0.109 -0.02,-0.122 -0.004,-0.132 -0.027,-0.098 -0.133,-0.117 -0.207,-0.129 0.031,-0.11 0.086,-0.109 0.016,-0.125 -0.004,-0.105 -0.008,-0.086 0.086,-0.117 0.039,-0.118 -0.062,-0.078 -0.031,-0.082 -0.028,-0.062 -0.031,-0.075 -0.129,-0.062 0.035,-0.07 0.094,-0.063 -0.07,-0.058 -0.043,-0.051 -0.012,-0.031 0.004,-0.028 -0.016,-0.031 -0.023,-0.024 -0.008,-0.078 v -0.043 l 0.004,-0.031 0.09,-0.047 0.16,-0.035 -0.051,-0.004 -0.094,-0.015 0.028,-0.036 -0.012,-0.007 0.012,0.058 -0.2,-0.019 -0.074,-0.063 0.156,-0.004 0.082,0.008 0.047,-0.019 0.02,-0.024 0.016,-0.043 0.046,-0.055 0.114,-0.046 0.097,-0.075 0.094,-0.078" style="fill:none;stroke:#000000;stroke-width:3.92308;stroke-linecap:round;stroke-linejoin:round;stroke-miterlimit:10;stroke-dasharray:none;stroke-opacity:1" id="path1450" />
         </g>
         <g id="g1452" transform="scale(1,-1)">
            <path d="m 826.172,-388.348 0.012,-0.004 0.027,-0.007 0.031,-0.024 0.016,-0.062 0.047,-0.035 -0.012,-0.024 -0.039,-0.051 0.039,-0.015 0.004,-0.024 -0.031,-0.015 -0.004,-0.012 -0.043,-0.02 -0.028,-0.039 0.043,-0.008 v -0.042 l -0.023,-0.024 -0.004,0.004 -0.008,-0.016 0.016,-0.043 0.004,-0.039 0.027,-0.011 -0.055,-0.008 -0.117,-0.02 0.028,-0.031 0.074,-0.008 0.019,-0.047 0.02,-0.011 0.015,-0.004 0.149,-0.024 -0.09,-0.008 0.004,-0.039 v -0.023 l -0.043,0.008 -0.055,-0.024 0.012,-0.043 0.051,-0.039 0.015,-0.039 0.012,-0.031 0.008,-0.023 0.09,-0.036 0.043,-0.031 -0.039,-0.004 0.019,-0.027 -0.019,-0.059 0.109,-0.066 -0.039,-0.008" style="fill:none;stroke:#000000;stroke-width:3.92308;stroke-linecap:round;stroke-linejoin:round;stroke-miterlimit:10;stroke-dasharray:none;stroke-opacity:1" id="path1454" />
         </g>
         <g id="g1456" transform="scale(1,-1)">
            <path d="m 825.824,-411.789 0.028,0.004 0.062,0.012 0.039,0.011 0.024,0.008 0.011,0.016 0.032,-0.02 0.054,0.008 0.008,0.043 -0.035,-0.004 0.008,-0.023 -0.028,0.035 -0.039,0.011 -0.101,0.012 0.008,-0.019 0.097,0.019 -0.051,-0.012 0.008,-0.023 0.004,-0.004 0.047,-0.058 0.121,-0.012 -0.019,0.039 -0.063,-0.008 -0.043,0.035 -0.012,-0.011 -0.007,0.011 -0.161,-0.008 -0.07,-0.035 0.098,0.004 0.051,0.039 0.019,-0.008 0.012,0.012 0.004,0.012 0.019,0.015 0.012,-0.019 0.004,0.016 0.035,0.003 0.012,0.004 0.004,-0.004 0.046,-0.007 0.024,-0.024 -0.039,-0.004 -0.008,-0.004 -0.012,0.004 -0.007,0.008 -0.04,0.027 -0.16,0.012 -0.008,-0.023 h 0.086 v -0.024 0.004 l 0.204,-0.004 0.086,-0.043 -0.153,0.028 -0.031,-0.032 -0.031,0.008 -0.028,0.004 -0.031,0.02 -0.012,0.015 -0.015,0.008 -0.032,0.004 -0.035,0.012 -0.019,-0.004 h -0.051 l 0.051,-0.008 -0.098,-0.016 -0.035,-0.015 -0.02,-0.012 h -0.031 l -0.055,-0.004 -0.031,0.016 -0.023,0.023 -0.039,0.012 -0.039,0.008 -0.051,0.008 -0.043,-0.02 0.043,0.02 -0.031,0.031 -0.075,-0.035 -0.078,-0.004 -0.019,0.035 -0.008,0.019 h 0.055 l -0.063,0.008 -0.019,-0.008 h -0.032 l 0.008,-0.039 0.129,-0.015 -0.043,0.031 -0.125,-0.02 -0.035,0.059 -0.082,0.012 -0.172,0.004 -0.129,0.004 0.07,-0.008 -0.007,0.004 0.007,0.011 0.032,-0.003 0.054,-0.004 h 0.016 l -0.035,-0.004 -0.027,0.008 v 0.035 l 0.066,-0.012 0.043,-0.035 -0.039,-0.031 v -0.024 h 0.015 l 0.008,-0.016 0.063,0.016 -0.051,0.016 -0.043,-0.043 0.066,-0.008 v -0.023 h 0.028 l 0.004,0.003 0.101,-0.015 0.125,-0.004" style="fill:none;stroke:#000000;stroke-width:3.92308;stroke-linecap:round;stroke-linejoin:round;stroke-miterlimit:10;stroke-dasharray:none;stroke-opacity:1" id="path1458" />
         </g>
         <g id="g1460" transform="scale(1,-1)">
            <path d="m 877.523,-560.684 c 12.98271,2.56919 26.65938,2.13153 39.91643,3.49009 81.07666,5.54919 162.18247,10.9001 243.12537,18.15415 10.7097,2.27429 10.9278,19.19593 4.3882,25.71176 -1.1789,1.78967 1.2655,4.18083 2.698,4.711" style="fill:none;stroke:#000000;stroke-width:3.92308;stroke-linecap:round;stroke-linejoin:round;stroke-miterlimit:10;stroke-dasharray:none;stroke-opacity:1" id="path1462" />
         </g>
         <g id="g1464" transform="scale(1,-1)">
            <path d="m 1168.594,-508.719 c 2.8227,60.05097 4.6182,119.22634 7.352,179.281" style="fill:none;stroke:#000000;stroke-width:3.92308;stroke-linecap:round;stroke-linejoin:round;stroke-miterlimit:10;stroke-dasharray:none;stroke-opacity:1" id="path1466" sodipodi:nodetypes="cc" />
         </g>
         <g id="g1468" transform="scale(1,-1)">
            <path d="m 823.88296,-335.125 c 113.08515,5.13061 229.75474,2.54295 342.79914,8.64726 3.2298,-0.12764 6.8663,-0.53101 9.2639,-2.96026" style="fill:none;stroke:#000000;stroke-width:3.92308;stroke-linecap:round;stroke-linejoin:round;stroke-miterlimit:10;stroke-dasharray:none;stroke-opacity:1" id="path1470" sodipodi:nodetypes="ccc" />
         </g>
         <g id="g1472" transform="scale(1,-1)">
            <path d="m 1158.309,-328.926 c 3.714,-5.34162 7.0796,-11.26942 4.7799,-17.9139 -1.3466,-16.42181 -3.2967,-32.87247 -2.506,-49.36758 7.5823,-5.1279 10.079,4.59503 9.8058,10.53779 0.1749,10.83763 2.155,21.64084 0.8608,32.49484 -0.5886,8.36815 -1.6178,16.85258 -0.2288,25.19085" style="fill:none;stroke:#000000;stroke-width:3.92308;stroke-linecap:round;stroke-linejoin:round;stroke-miterlimit:10;stroke-dasharray:none;stroke-opacity:1" id="path1474" />
         </g>
         <g id="g1476" transform="scale(1,-1)">
            <path d="m 1163.699,-362.363 c 1.2111,0.23216 2.4573,0.11373 3.684,0.20242 0.2655,-0.072 3.4874,0.54378 3.4842,0.0981" style="fill:none;stroke:#000000;stroke-width:3.92308;stroke-linecap:round;stroke-linejoin:round;stroke-miterlimit:10;stroke-dasharray:none;stroke-opacity:1" id="path1478" sodipodi:nodetypes="ccc" />
         </g>
         <g id="g1480" transform="scale(1,-1)">
            <path d="m 1163.195,-372.551 c 1.6559,0.49554 3.4206,0.96735 5.149,0.55896" style="fill:none;stroke:#000000;stroke-width:3.92308;stroke-linecap:round;stroke-linejoin:round;stroke-miterlimit:10;stroke-dasharray:none;stroke-opacity:1" id="path1482" />
         </g>
         <g id="g1484" transform="scale(1,-1)">
            <path d="m 1162.508,-378.98 c 1.8169,-0.67856 3.8428,0.6734 5.586,-0.35167" style="fill:none;stroke:#000000;stroke-width:3.92308;stroke-linecap:round;stroke-linejoin:round;stroke-miterlimit:10;stroke-dasharray:none;stroke-opacity:1" id="path1486" />
         </g>
         <g id="g1488" transform="scale(1,-1)">
            <path d="m 1163.125,-386.52 c 1.5787,-1.15169 3.6975,0.61829 5.4465,0.0669" style="fill:none;stroke:#000000;stroke-width:3.92308;stroke-linecap:round;stroke-linejoin:round;stroke-miterlimit:10;stroke-dasharray:none;stroke-opacity:1" id="path1490" />
         </g>
         <g id="g1492" transform="scale(1,-1)">
            <path d="m 1152.582,-343.082 c -1.7111,-2.24387 -5.3393,-2.0291 -7.2833,-0.24681 -1.3684,2.37609 -0.4771,5.87199 2.1162,7.0222 2.0784,0.90705 4.6011,0.33605 6.0458,-1.43353 1.0319,-1.6717 0.9695,-4.12463 -0.1203,-5.77242 -1.3854,-1.39106 -3.4473,-1.94321 -5.3412,-2.21182 -0.9727,-0.0813 -1.7456,2.18563 -2.7005,2.39557" style="fill:none;stroke:#000000;stroke-width:3.92308;stroke-linecap:round;stroke-linejoin:round;stroke-miterlimit:10;stroke-dasharray:none;stroke-opacity:1" id="path1494" sodipodi:nodetypes="ccccccc" />
         </g>
         <g id="g1496" transform="scale(1,-1)">
            <path d="m 862.72322,-353.88438 c -3.28046,-2.07452 -8.6418,1.67039 -7.82189,5.55613 0.33209,2.91432 3.21967,5.1692 6.11973,4.78215 1.96814,-0.25167 4.10852,-1.17394 4.81218,-3.18976 1.20197,-2.73318 -0.44632,-6.03231 -3.11002,-7.14852 -1.63141,-0.72141 -3.97188,-0.0977 -5.74676,0.71763" style="fill:none;stroke:#000000;stroke-width:3.92308;stroke-linecap:round;stroke-linejoin:round;stroke-miterlimit:10;stroke-dasharray:none;stroke-opacity:1" id="path1498" sodipodi:nodetypes="cccccc" />
         </g>
         <g id="g1500" transform="scale(1,-1)">
            <path d="m 919.777,-411.25 c 37.25003,4.47668 68.16826,-44.11876 45.21411,-75.03187 -15.52939,-25.35057 -51.84116,-36.98169 -76.99983,-19.01205 -27.48518,18.61828 -27.4421,63.534 -0.0382,82.3402 10.8906,8.12622 24.88058,13.26005 38.38689,11.8667" style="fill:none;stroke:#000000;stroke-width:3.92308;stroke-linecap:round;stroke-linejoin:round;stroke-miterlimit:10;stroke-dasharray:none;stroke-opacity:1" id="path1502" sodipodi:nodetypes="ccccc" />
         </g>
         <g id="g1504" transform="scale(1,-1)">
            <path d="m 941.379,-343.668 c 0.33762,-7.16819 -0.80589,-14.31625 -0.63143,-21.49272 -1.31772,-5.30731 -3.23199,-12.44878 4.26983,-13.91932 6.47802,-2.01954 11.11499,4.47515 17.41178,4.4702 7.9741,-0.20447 16.39777,0.553 23.92368,-2.58488 5.79753,-4.29093 8.21586,-11.67399 13.63046,-16.40757 4.00178,-5.20398 12.08618,-7.36877 15.93298,-0.76675 3.8783,3.4472 6.5108,7.81512 8.6592,12.48475 4.0795,5.19278 11.6572,4.75749 17.455,6.65145 5.3857,-0.18302 12.1222,6.27219 16.2425,1.36714 4.6297,-3.55874 11.8236,-1.66562 14.1898,3.64412 4.255,3.88396 2.144,9.5775 1.089,14.35498 -0.6381,6.32053 0.886,12.67565 -6e-4,18.96622 l 0.1705,1.15922 0.1113,0.59616" style="fill:none;stroke:#000000;stroke-width:3.92308;stroke-linecap:round;stroke-linejoin:round;stroke-miterlimit:10;stroke-dasharray:none;stroke-opacity:1" id="path1506" />
         </g>
         <g id="g1508" transform="scale(1,-1)">
            <path d="m 949.887,-367.691 c -3.01706,-6.65506 -4.6628,5.89389 1.14316,0.15828 0.16815,-1.92936 -2.80316,-3.89367 -4.02216,-1.75628" style="fill:none;stroke:#000000;stroke-width:3.92308;stroke-linecap:round;stroke-linejoin:round;stroke-miterlimit:10;stroke-dasharray:none;stroke-opacity:1" id="path1510" />
         </g>
         <g id="g1512" transform="scale(1,-1)">
            <path d="m 1067.879,-366.668 c -9.4143,-1.88 2.4575,8.58897 1.5522,-0.33238 -1.4424,-1.46936 -4.3353,-2.05811 -5.9722,-0.62462" style="fill:none;stroke:#000000;stroke-width:3.92308;stroke-linecap:round;stroke-linejoin:round;stroke-miterlimit:10;stroke-dasharray:none;stroke-opacity:1" id="path1514" />
         </g>
         <g id="g1516" transform="scale(1,-1)">
            <path d="m 1008.914,-389.301 c 0.9183,-0.92493 -1.9247,-2.51302 -3.0964,-2.33415 -2.559,-0.23171 -4.7878,1.45114 -6.25991,3.37853 -0.75313,1.45241 -0.39301,3.49839 0.76061,4.65107 0.9402,1.18976 2.2307,2.22208 3.7694,2.63871 3.6383,0.81542 7.7352,-3.02534 6.4602,-6.71575 -0.8273,-1.91952 -2.7875,-3.46173 -4.9777,-3.03652 -1.7024,0.30769 -3.2968,1.34881 -3.9672,2.98711 -0.7649,1.41963 -1.0138,3.34332 0.256,4.56494 1.5129,1.78796 4.2553,2.1469 6.2382,0.94487 1.4809,-0.72056 2.6779,-2.20794 2.8997,-3.83692 -5e-4,-1.57727 -1.4019,-2.55857 -2.7767,-2.9494 -1.8532,-0.65537 -3.9105,-0.80318 -5.8195,-0.30347" style="fill:none;stroke:#000000;stroke-width:3.92308;stroke-linecap:round;stroke-linejoin:round;stroke-miterlimit:10;stroke-dasharray:none;stroke-opacity:1" id="path1518" />
         </g>
         <g id="g1520" transform="scale(1,-1)">
            <path d="m 1010.742,-420.055 c -2.4362,-2.29222 -6.8778,-1.20834 -7.6617,2.15309 -1.3095,2.78173 0.8131,6.04925 3.7983,6.31197 3.2141,0.65807 6.9191,-1.42855 7.4372,-4.77606 -0.1839,-2.54856 -2.6918,-4.42183 -4.9524,-5.22031 -2.5659,-0.57532 -7.1527,0.51354 -6.4716,3.87377 l 0.3186,0.3576" style="fill:none;stroke:#000000;stroke-width:3.92308;stroke-linecap:round;stroke-linejoin:round;stroke-miterlimit:10;stroke-dasharray:none;stroke-opacity:1" id="path1522" />
         </g>
         <g id="g1524" transform="scale(1,-1)">
            <path d="m 979,-542.84 c -2.88374,-1.34405 -6.53003,-0.22868 -8.30727,2.36265 -0.8837,1.85865 0.71522,4.03898 2.41583,4.74876 2.52023,0.82076 5.65476,0.49127 7.6235,-1.39286 1.58021,-1.98219 -0.64985,-4.1525 -2.41402,-4.97499 -1.40175,-0.60583 -5.11957,-2.8653 -5.34101,-0.0596" style="fill:none;stroke:#000000;stroke-width:3.92308;stroke-linecap:round;stroke-linejoin:round;stroke-miterlimit:10;stroke-dasharray:none;stroke-opacity:1" id="path1526" />
         </g>
         <g id="g1528" transform="scale(1,-1)">
            <path d="m 1040.699,-539.438 c -1.1231,-1.29669 -3.0001,-0.33007 -4.4331,-0.29261 -1.8171,0.32287 -2.5319,2.11927 -2.7828,3.73103 -0.3156,1.67439 1.1039,3.17101 2.6334,3.6079 1.9507,0.84455 4.3438,0.90217 6.2654,0.0493 1.3458,-0.7973 1.9619,-2.30766 1.2322,-3.76366 -0.5881,-2.00231 -2.4796,-3.29638 -4.3168,-4.04159 -1.7243,-0.23551 -2.6399,-0.2706 -4.1759,1.08306 -0.3516,0.30774 -1.2987,2.7447 -1.6383,3.06499" style="fill:none;stroke:#000000;stroke-width:3.92308;stroke-linecap:round;stroke-linejoin:round;stroke-miterlimit:10;stroke-dasharray:none;stroke-opacity:1" id="path1530" sodipodi:nodetypes="ccccccccc" />
         </g>
         <g id="g1532" transform="scale(1,-1)">
            <path d="m 1057.5528,-415.48213 c 20.9043,19.10806 59.8068,14.34114 73.0018,-11.54345 7.3328,-13.89672 11.3743,-30.89741 3.8263,-45.60696 -7.624,-21.79771 -29.7157,-39.00683 -53.4953,-35.25031 -22.6504,1.90158 -44.6743,21.30717 -42.2382,45.37145 -2.0455,20.44045 7.6107,40.15617 24.5706,51.31004" style="fill:none;stroke:#000000;stroke-width:3.92308;stroke-linecap:round;stroke-linejoin:round;stroke-miterlimit:10;stroke-dasharray:none;stroke-opacity:1" id="path1534" sodipodi:nodetypes="cccccc" />
         </g>
         <g id="g1536" transform="scale(1,-1)">
            <path d="m 920.633,-453.238 c -0.91644,-1.67814 0.16675,-4.45925 2.31344,-4.18185 1.3869,0.55412 2.53933,-0.25374 1.22604,-1.48752 -1.08281,-0.96334 -3.11785,-2.27757 -1.73225,-3.8946 1.59978,-1.18684 0.95017,-3.66314 -1.20597,-2.8322 -1.58189,0.89459 -3.39724,3.20576 -4.79175,0.61476 -2.39081,-2.30429 -0.34878,3.04468 -3.05208,2.97656 -2.4172,0.80302 -1.29653,3.67004 -0.36739,5.22872 1.36163,1.83605 3.21003,3.54738 5.58857,3.79071 0.28913,0.0565 0.57906,0.10863 0.86837,0.16412" style="fill:none;stroke:#000000;stroke-width:3.92308;stroke-linecap:round;stroke-linejoin:round;stroke-miterlimit:10;stroke-dasharray:none;stroke-opacity:1" id="path1538" />
         </g>
         <g id="g1540" transform="scale(1,-1)">
            <path d="m 1082.25,-455.758 c -0.7606,1.68506 -0.154,3.62555 0.4685,5.2466 1.4356,2.17154 4.3269,3.95975 6.9459,2.83073 -1.3369,-1.65903 0.6016,-3.34688 2.2278,-2.17574 1.6717,0.0601 1.1301,-0.8616 -0.144,-0.96053 -2.4849,-1.72013 1.5416,-2.5619 1.6416,-4.36888 0.081,-2.21406 -3.2344,-0.15456 -4.0088,-1.68893 -0.4519,-1.22972 -2.5219,-2.05693 -3.652,-2.59948 -1.1902,1.25748 0.6592,3.52425 -0.6416,5.12659 -0.02,0.55832 -1.4196,1.98597 -0.5378,2.19205" style="fill:none;stroke:#000000;stroke-width:3.92308;stroke-linecap:round;stroke-linejoin:round;stroke-miterlimit:10;stroke-dasharray:none;stroke-opacity:1" id="path1542" />
         </g>
         <g id="g1544" transform="scale(1,-1)">
            <path d="m 1163.395,-504.164 c -1.253,-1.0909 -3.3873,-0.0795 -3.9174,1.32621 -0.4918,1.48577 -0.2728,3.21181 0.4505,4.57961 0.7582,1.17593 2.6083,1.20797 3.4227,0.0674 1.0751,-0.83189 2.181,-2.12855 1.3712,-3.56876 -0.6375,-1.65891 -1.9807,-3.65812 -4.0436,-3.19265 -0.6911,0.0928 -1.2818,1.16917 -1.2008,2.1144" style="fill:none;stroke:#000000;stroke-width:3.92308;stroke-linecap:round;stroke-linejoin:round;stroke-miterlimit:10;stroke-dasharray:none;stroke-opacity:1" id="path1546" sodipodi:nodetypes="ccccccc" />
         </g>
         <g id="g1548" transform="scale(1,-1)">
            <path d="m 1161.426,-522.5 c -0.4963,-0.3184 -0.8258,-1.07414 -1.6051,-0.61158 -0.9313,0.30807 -1.6803,1.59914 -0.8369,2.37543 0.4863,0.88179 1.625,0.81244 2.4885,0.9447 1.0207,0.23483 2.1873,-0.37885 2.2831,-1.48497 -0.092,-1.31504 -1.4477,-2.19465 -2.7037,-2.07384 -1.0145,-0.12344 -2.0412,-0.1254 -2.665,0.82309" style="fill:none;stroke:#000000;stroke-width:3.92308;stroke-linecap:round;stroke-linejoin:round;stroke-miterlimit:10;stroke-dasharray:none;stroke-opacity:1" id="path1550" />
         </g>
         <g id="g1552" transform="scale(1,-1)">
            <path d="m 841.82,-524.836 -0.023,0.008 -0.051,0.027 -0.082,0.055 -0.086,0.035 -0.086,0.016 h -0.058 l -0.039,0.035 -0.047,-0.028 h -0.039 l 0.007,0.02 -0.039,0.004 -0.004,0.008 -0.003,-0.008 -0.184,-0.008 -0.106,-0.047 0.098,-0.004 0.016,0.028 0.023,-0.082 -0.004,-0.059 -0.121,0.016 -0.031,0.043 0.074,-0.008 0.024,-0.008 0.015,-0.012 0.016,0.008 -0.07,0.004 h -0.145 l -0.004,-0.004 0.035,-0.008 -0.015,0.008 -0.02,-0.004 0.016,-0.008 -0.032,0.02 -0.105,0.004 -0.082,0.004 -0.086,-0.016 -0.074,0.004 -0.094,0.043 -0.043,0.039 -0.035,0.031 -0.066,0.016 -0.047,0.012 -0.063,0.027 -0.074,0.023 -0.18,-0.003 -0.082,0.043 -0.027,0.019 -0.106,0.012 h -0.093 l -0.09,0.043 -0.024,0.054 -0.039,0.02 -0.039,0.016 -0.074,0.027 -0.055,0.039 -0.07,0.012 -0.023,0.023 -0.086,0.063 -0.121,0.043 -0.008,0.019 -0.063,0.059 -0.066,0.051 -0.09,0.066 -0.16,0.051 -0.113,0.031 -0.016,0.035 -0.039,0.035 -0.027,0.032 -0.043,0.031 0.027,0.054 -0.07,0.063 -0.118,0.039 -0.043,0.059 -0.05,0.039 -0.036,0.015 -0.05,0.039 -0.043,0.078 -0.02,0.051 -0.039,0.035 -0.015,0.036 -0.008,0.054 -0.02,0.063 0.031,0.054 -0.078,0.051 -0.097,0.082 0.047,0.09 -0.024,0.113 v 0.145 l 0.215,0.109 -0.012,0.157 -0.203,0.105 -0.004,0.164 -0.031,0.141 -0.051,0.09 -0.082,0.085 -0.109,0.125 0.004,0.129 0.019,0.114 v 0.222 l -0.023,0.102 0.07,0.043 0.055,0.117 -0.047,0.113 v 0.11 l 0.023,0.105 0.008,0.082 0.024,0.082 0.015,0.125 0.016,0.266 0.027,0.113 0.028,0.18 0.039,0.144 0.015,0.067 0.012,0.105 0.031,0.114 0.027,0.101 v 0.106 l -0.003,0.132 -0.02,0.125 0.027,0.114 0.059,0.121 v 0.121 l 0.027,0.121 0.047,0.133 0.082,0.113 0.106,0.121 0.008,0.121 -0.016,0.11 0.027,0.109 0.004,0.09 0.02,0.133 -0.164,0.148 0.004,0.098 0.164,0.062 0.101,0.063 0.098,0.054 0.09,0.051 0.179,0.07 0.231,0.079 0.055,0.082 0.054,0.062 0.098,0.055 0.098,0.019 0.093,0.055 -0.027,0.094 0.082,0.078 0.152,0.066 0.114,0.071 0.132,0.066 0.09,0.059 0.082,0.043 0.059,0.039 0.097,0.031 0.184,0.047 0.168,0.035 0.148,0.035 0.129,0.012 h 0.192 l 0.191,0.019 0.086,0.039 0.121,0.016 0.11,0.004 0.117,-0.023 0.082,-0.008 0.039,-0.012 0.094,-0.031 0.16,-0.016 0.152,-0.039 0.141,0.02 0.097,-0.02 0.153,-0.082 0.164,-0.055 0.07,-0.058 0.125,-0.067 0.164,-0.07 0.137,-0.086 0.109,-0.062 0.114,-0.036 0.105,-0.074 0.094,-0.058 0.105,-0.059 0.114,-0.027 0.125,-0.078 0.125,-0.122 0.121,-0.07 0.117,-0.086 0.144,-0.101 0.129,-0.09 0.129,-0.078 0.039,-0.094 0.102,-0.082 0.191,-0.106 0.184,-0.156 0.168,-0.129 0.148,-0.109 0.164,-0.129 0.266,-0.137 0.164,-0.156 0.031,-0.117 0.071,-0.141 0.082,-0.14 0.066,-0.114 -0.137,-0.117 -0.023,-0.148 0.176,-0.129 0.058,-0.153 0.09,-0.125 0.059,-0.109 0.117,-0.125 0.144,-0.133 v -0.129 l -0.035,-0.144 0.004,-0.137 0.004,-0.133 -0.008,-0.121 -0.156,-0.101 -0.074,-0.137 0.082,-0.125 -0.02,-0.117 -0.008,-0.098 -0.039,-0.09 v -0.117 l -0.117,-0.133 -0.129,-0.133 v -0.14 l -0.062,-0.114 -0.09,-0.144 -0.098,-0.16 0.012,-0.113 -0.066,-0.126 -0.188,-0.128 -0.16,-0.161 -0.156,-0.14 -0.153,-0.153 -0.144,-0.171 -0.192,-0.114 -0.187,-0.113 -0.172,-0.113 -0.18,-0.098 -0.172,-0.086 -0.222,-0.121 -0.207,-0.125 -0.164,-0.113 -0.168,-0.082 -0.157,-0.074 -0.164,-0.102 -0.164,-0.094 -0.043,-0.09 -0.062,-0.027 -0.156,-0.043 -0.188,-0.051 -0.183,-0.047 -0.157,-0.007 -0.242,-0.016 -0.176,-0.043 -0.054,-0.031 -0.102,-0.004 -0.125,-0.012 -0.101,0.047 -0.106,-0.012 -0.277,-0.023 -0.203,0.027 0.031,-0.019 -0.074,0.019 -0.082,-0.012 -0.133,-0.003 -0.156,0.066 0.011,0.016 -0.047,0.019 -0.097,0.031 -0.067,0.032 -0.086,0.066 -0.097,0.055 -0.317,-0.016 -0.187,0.059 h 0.105 l -0.074,0.007 -0.039,0.04 -0.02,0.058 0.063,0.043 0.031,0.012 -0.015,0.008 -0.04,0.015 -0.023,0.016 -0.059,0.012 -0.027,0.05 -0.023,0.079 -0.067,0.031 -0.047,0.043 -0.066,0.039 -0.07,0.039 -0.051,0.055 -0.031,0.062 -0.043,0.027 -0.086,0.051 -0.063,0.07 -0.058,0.071 -0.043,0.027 -0.028,0.047 -0.054,0.082 -0.047,0.055 -0.004,0.058 -0.02,0.071 -0.004,0.047 v 0.058 l -0.07,0.067" style="fill:none;stroke:#000000;stroke-width:3.92308;stroke-linecap:round;stroke-linejoin:round;stroke-miterlimit:10;stroke-dasharray:none;stroke-opacity:1" id="path1554" />
         </g>
         <g id="g1556" transform="scale(1,-1)">
            <path d="m 841.375,-543.793 v -0.012 l 0.008,-0.043 0.012,-0.07 0.015,-0.09 0.067,-0.097 0.023,-0.067 0.09,-0.058 0.031,-0.036 0.004,-0.015 0.008,-0.008 -0.039,-0.004 -0.024,-0.031 -0.019,-0.004 -0.051,-0.012 h -0.055 l -0.031,0.016 -0.027,0.035 v 0.012 l -0.008,0.015 -0.008,0.008 -0.039,0.02 -0.02,0.004 -0.023,0.019 -0.019,-0.012 -0.028,0.008 -0.015,0.004 -0.032,-0.008 h -0.031 l -0.016,-0.008 h -0.035 l -0.043,-0.019 -0.058,-0.008 -0.047,-0.004 -0.059,0.016 -0.051,0.004 -0.046,0.004 h -0.043 l -0.078,0.019 -0.079,0.008 -0.058,-0.016 h -0.063 l -0.031,-0.015 -0.051,0.011 -0.011,0.008 0.043,0.012 -0.004,0.027 -0.012,0.032 -0.094,0.035 h -0.164 l -0.117,0.039 -0.176,0.035 -0.086,0.047 -0.097,0.054 -0.075,0.024 -0.011,0.047 -0.079,0.051 0.012,0.039 -0.012,0.043 0.02,0.019 0.019,0.016 -0.027,0.019 -0.004,0.016 -0.015,0.019 -0.09,0.016 -0.063,0.035 -0.054,0.032 -0.028,0.023 0.028,0.023 -0.012,0.039 0.008,0.028 -0.043,0.051 0.011,0.066 -0.039,0.051 -0.011,0.058 0.015,0.047 -0.011,0.067 0.015,0.062 -0.035,0.074 0.02,0.075 -0.016,0.097 -0.004,0.102 v 0.09 l 0.035,0.097 0.016,0.09 0.012,0.102 0.007,0.105 -0.035,0.094 0.016,0.086 -0.02,0.097 -0.027,0.083 0.008,0.089 0.015,0.118 0.043,0.105 0.071,0.098 0.054,0.109 0.067,0.102 0.039,0.109 0.047,0.105 0.027,0.09 0.02,0.094 0.05,0.055 0.043,0.066 0.082,0.07 0.086,0.067 0.075,0.101 0.097,0.075 0.07,0.074 0.09,0.062 0.086,0.063 0.102,0.062 0.101,0.039 0.125,0.051 0.137,0.035 0.145,0.032 0.144,0.046 0.199,0.028 0.18,0.031 0.168,0.047 0.141,0.031 0.074,0.043 0.094,0.008 -0.043,0.027 0.07,0.004 0.07,0.016 h 0.067 l 0.195,0.004 0.156,0.004 0.145,-0.004 h 0.117 l 0.117,-0.024 0.094,-0.031 0.082,-0.035 0.074,-0.039 0.098,-0.039 0.082,-0.047 0.07,-0.047 0.078,-0.043 0.071,-0.047 0.078,-0.058 0.082,-0.071 0.094,-0.054 0.07,-0.082 0.09,-0.082 0.09,-0.094 0.058,-0.09 0.098,-0.078 0.078,-0.082 0.078,-0.078 0.07,-0.075 0.063,-0.089 0.066,-0.098 0.047,-0.102 0.039,-0.101 0.086,-0.102 0.055,-0.109 0.043,-0.09 0.035,-0.094 -0.024,-0.093 -0.007,-0.122 -0.016,-0.105 -0.07,-0.102 -0.02,-0.109 -0.051,-0.086 -0.011,-0.078 0.011,-0.074 -0.023,-0.082 0.027,-0.094 -0.015,-0.07 -0.024,-0.082 -0.027,-0.071 -0.082,-0.074 -0.074,-0.094 -0.098,-0.093 -0.125,-0.071 -0.109,-0.078 -0.114,-0.047 -0.082,-0.062 -0.07,-0.059 -0.078,-0.078 -0.199,-0.058 -0.161,-0.055 -0.128,-0.055 -0.106,-0.039 0.02,-0.039 -0.067,-0.031 -0.082,-0.008 -0.074,-0.02 -0.086,-0.031 -0.113,-0.027 -0.125,-0.008 h -0.156 l -0.133,-0.02 h -0.172 l -0.145,0.004 -0.129,-0.011 -0.113,-0.016 -0.082,-0.008 -0.09,0.016 -0.09,0.008 -0.093,0.007 -0.094,0.004 -0.09,-0.011 -0.074,-0.004 -0.082,0.019 -0.055,0.004 -0.047,0.02 -0.07,0.027 -0.082,0.016 -0.098,0.011 -0.082,-0.039 -0.07,0.016 -0.086,0.016 -0.074,0.007 -0.063,0.051 -0.074,0.024 -0.027,0.031 -0.051,0.035 -0.031,0.039 -0.051,0.039 -0.055,0.043 -0.039,0.043" style="fill:none;stroke:#000000;stroke-width:3.92308;stroke-linecap:round;stroke-linejoin:round;stroke-miterlimit:10;stroke-dasharray:none;stroke-opacity:1" id="path1558" />
         </g>
         <g id="g1560" transform="scale(1,-1)">
            <path d="M 841.824,-554.031 V -554 l -0.023,0.035 -0.02,0.008 -0.035,0.019 -0.066,0.016 -0.032,-0.047 -0.043,-0.008 -0.074,-0.007 -0.051,-0.028 -0.042,0.02 -0.024,-0.024 h 0.004 l -0.039,0.024 -0.004,-0.047 -0.07,-0.008 -0.016,-0.027 -0.023,0.008 -0.039,0.011 0.007,-0.019 h -0.015 l 0.019,-0.024 -0.011,-0.004 -0.016,0.032 -0.027,0.011 -0.043,0.016 -0.067,0.031 -0.109,0.016 -0.156,0.031 -0.129,0.02 -0.09,0.011 -0.043,0.02 0.015,0.027 -0.031,0.02 0.008,0.023 -0.019,0.016 -0.028,0.031 -0.035,0.035 -0.164,0.055 -0.098,0.012 -0.062,0.031 -0.074,0.008 -0.063,0.023 -0.019,0.043 -0.055,0.016 -0.051,0.027 0.012,0.031 -0.043,0.036 -0.004,0.042 -0.035,0.047 -0.086,0.059 -0.051,0.055 -0.078,0.062 -0.031,0.051 -0.075,0.062 -0.05,0.051 -0.082,0.063 -0.078,0.05 -0.059,0.047 -0.063,0.075 -0.031,0.054 -0.051,0.078 -0.062,0.071 -0.047,0.058 -0.039,0.067 -0.09,0.047 -0.055,0.066 -0.05,0.047 -0.039,0.039 v 0.027 l -0.024,0.032 0.016,0.023 0.012,0.027 0.015,0.043 0.02,0.02 -0.035,0.047 -0.016,0.019 -0.113,0.035 -0.051,0.067 -0.063,0.043 -0.027,0.027 0.078,0.027 0.059,0.067 0.031,0.058 0.008,0.047 0.039,0.067 0.023,0.027 0.035,0.051 0.047,0.035 0.032,0.055 0.046,0.062 0.043,0.063 0.047,0.07 0.043,0.047 0.055,0.043 0.051,0.062 0.043,0.063 0.043,0.066 0.039,0.074 0.039,0.051 0.051,0.059 0.078,0.047 0.074,0.062 0.187,0.039 0.114,0.078 0.121,0.039 0.086,0.036 -0.028,0.031 0.047,0.031 0.039,0.039 0.051,0.02 0.051,0.039 0.074,0.035 0.102,0.027 0.082,0.035 0.105,0.028 0.125,0.027 0.137,0.031 0.125,0.032 0.133,0.027 0.109,0.012 0.129,0.023 0.117,0.008 0.137,0.023 0.121,0.004 0.129,0.024 0.121,0.004 0.113,0.004 0.106,-0.004 h 0.105 l 0.102,-0.004 0.097,-0.008 0.098,-0.004 0.078,0.016 0.086,-0.016 -0.019,-0.004 0.019,-0.008 0.024,-0.004 0.027,-0.007 0.14,-0.02 0.114,-0.008 0.094,-0.027 0.128,-0.031 0.094,-0.016 0.082,-0.027 0.074,-0.032 0.024,-0.035 0.066,-0.039 -0.023,-0.031 0.012,-0.047 0.007,-0.039 -0.011,-0.051 0.132,-0.066 0.071,-0.063 0.121,-0.047 0.105,-0.066 0.102,-0.051 0.082,-0.058 0.031,-0.043 0.024,-0.055 0.027,-0.059 0.066,-0.066 0.047,-0.082 0.016,-0.07 0.023,-0.071 -0.023,-0.078 -0.016,-0.082 0.02,-0.078 -0.039,-0.066 -0.024,-0.067 -0.023,-0.058 -0.051,-0.039 -0.012,-0.067 -0.039,-0.054 0.016,-0.067 -0.027,-0.062 -0.032,-0.043 -0.031,-0.055 -0.082,-0.051 -0.062,-0.07 -0.079,-0.043 -0.054,-0.055 -0.074,-0.039 -0.094,-0.055 -0.086,-0.039 -0.098,-0.05 -0.109,-0.039 -0.129,-0.036 -0.121,-0.035 -0.133,-0.031 -0.129,-0.027 -0.09,-0.012 -0.097,-0.02 -0.133,-0.043 -0.129,-0.035 -0.129,-0.07 -0.137,-0.023 -0.105,-0.04 -0.114,-0.035 -0.164,-0.011 -0.136,-0.036 -0.133,-0.007 -0.133,-0.004 -0.105,-0.024 -0.133,0.035 -0.137,-0.007 -0.203,0.027 -0.156,0.019 -0.129,-0.007 -0.125,0.023 -0.039,0.051 -0.114,0.043 -0.078,0.043 0.024,0.062 -0.047,0.075" style="fill:none;stroke:#000000;stroke-width:3.92308;stroke-linecap:round;stroke-linejoin:round;stroke-miterlimit:10;stroke-dasharray:none;stroke-opacity:1" id="path1562" />
         </g>
         <g id="g1564" transform="scale(1,-1)">
            <path d="m 917.695,-439.38329 c 13.83714,1.5992 28.90269,-11.68334 24.67157,-25.60062 -2.72049,-13.73805 -19.20806,-23.15818 -32.1742,-17.27982 -10.62735,5.23876 -13.8397,19.2192 -9.30438,29.58069 2.43582,8.04844 10.25644,13.54019 18.63901,13.30004" style="fill:none;stroke:#000000;stroke-width:2.61538;stroke-linecap:round;stroke-linejoin:round;stroke-miterlimit:10;stroke-dasharray:none;stroke-opacity:1" id="path1566" sodipodi:nodetypes="ccccc" />
         </g>
         <g id="g1568" transform="scale(1,-1)">
            <path d="m 919.902,-435.52531 c 10.78271,1.97614 21.41662,-6.02942 26.63471,-14.87537 5.87336,-13.80916 -1.88113,-31.40885 -15.93309,-36.65212 -12.7673,-6.24509 -31.38496,-0.50095 -34.71867,14.3261 -2.97886,13.23755 1.84853,29.41957 14.98137,35.26129 4.05915,1.51808 8.58567,2.1641 12.91468,2.29741" style="fill:none;stroke:#000000;stroke-width:2.61538;stroke-linecap:round;stroke-linejoin:round;stroke-miterlimit:10;stroke-dasharray:none;stroke-opacity:1" id="path1570" sodipodi:nodetypes="cccccc" />
         </g>
         <g id="g1572" transform="scale(1,-1)">
            <path d="m 1096.3731,-435.27837 c 7.1813,-1.73257 11.7768,-6.15422 11.5393,-13.94415 0.899,-8.80793 -1.8787,-18.62308 -8.6862,-24.54447 -6.4031,-4.46259 -15.8776,-4.40462 -22.237,-0.0216 -6.4168,5.0412 -11.2584,13.08739 -8.8855,21.44632 2.6902,12.28332 16.8378,17.93576 28.2694,17.0639 1.2381,-0.32785 2.4022,-0.95842 3.3219,-1.85459" style="fill:none;stroke:#000000;stroke-width:2.61538;stroke-linecap:round;stroke-linejoin:round;stroke-miterlimit:10;stroke-dasharray:none;stroke-opacity:1" id="path1574" sodipodi:nodetypes="ccccccc" />
         </g>
         <g id="g1576" transform="scale(1,-1)">
            <path d="m 1088.117,-430.676 c 7.8496,0.73066 15.8631,-2.29557 20.596,-8.71535 5.2204,-6.79516 6.4207,-16.29999 4.3482,-24.46225 -1.1803,-5.48124 -5.8039,-9.21287 -9.4671,-13.0872 -7.3775,-5.58277 -17.8883,-6.95893 -26.1564,-2.54193 -9.3054,3.68903 -16.6336,13.17861 -15.4964,23.48217 0.3995,9.40116 6.4565,18.41762 15.3594,21.77509 4.9599,2.3207 10.9189,4.86463 16.3763,2.82347" style="fill:none;stroke:#000000;stroke-width:2.61538;stroke-linecap:round;stroke-linejoin:round;stroke-miterlimit:10;stroke-dasharray:none;stroke-opacity:1" id="path1578" />
         </g>
         <g id="g1580" transform="scale(1,-1)">
            <path d="m 1091.156,-501.539 c 4.4747,0.45895 8.8292,2.05153 12.833,4.0397 4.8316,3.39588 10.1291,6.68369 13.5826,11.50166 l -0.1987,0.0137" style="fill:none;stroke:#000000;stroke-width:2.61538;stroke-linecap:round;stroke-linejoin:round;stroke-miterlimit:10;stroke-dasharray:none;stroke-opacity:1" id="path1582" />
         </g>
         <g id="g1584" transform="scale(1,-1)">
            <path d="m 1088.812,-333.406 c 2.0913,-3.39125 6.4209,-1.54974 9.8802,-1.97742 8.7047,-0.19621 17.3982,0.30746 26.099,0.4173 2.9812,0.23052 5.9488,0.58429 8.9269,0.81962 2.5109,-0.12461 2.7198,2.54624 4.5069,3.2285" style="fill:none;stroke:#000000;stroke-width:1.30769;stroke-linecap:round;stroke-linejoin:round;stroke-miterlimit:10;stroke-dasharray:none;stroke-opacity:1" id="path1586" />
         </g>
         <g id="g1588" transform="scale(1,-1)">
            <path d="m 872.613,-338.977 c 1.68022,-2.41172 4.78075,-2.21871 7.29047,-1.60558 7.09947,0.7272 14.24331,0.49981 21.36335,0.76264 1.70165,0.0747 3.36413,0.0668 2.9861,-2.08382 0.33318,-2.82337 3.32234,-1.60748 5.20761,-1.91159 5.47045,-0.391 10.9571,-0.1925 16.41614,0.28572 1.2605,0.97323 2.2332,4.30078 4.97009,3.37443 3.96501,0.11473 7.93364,0.44879 11.90049,0.20303" style="fill:none;stroke:#000000;stroke-width:1.30769;stroke-linecap:round;stroke-linejoin:round;stroke-miterlimit:10;stroke-dasharray:none;stroke-opacity:1" id="path1590" sodipodi:nodetypes="cccccccc" />
         </g>
         <g id="g1592" transform="scale(1,-1)">
            <path d="m 946.027,-358.859 c 37.18254,0.63798 74.3558,2.03677 111.549,1.863" style="fill:none;stroke:#000000;stroke-width:1.30769;stroke-linecap:round;stroke-linejoin:round;stroke-miterlimit:10;stroke-dasharray:none;stroke-opacity:1" id="path1594" />
         </g>
         <g id="g1596" transform="scale(1,-1)">
            <path d="m 947.027,-341.672 c -0.42557,-3.797 1.68909,-7.73605 -0.097,-11.38703" style="fill:none;stroke:#000000;stroke-width:1.30769;stroke-linecap:round;stroke-linejoin:round;stroke-miterlimit:10;stroke-dasharray:none;stroke-opacity:1" id="path1598" />
         </g>
         <g id="g1600" transform="scale(1,-1)">
            <path d="m 1070.148,-340.297 c 0.6859,-3.32993 -0.2083,-6.7095 -1.153,-9.891" style="fill:none;stroke:#000000;stroke-width:1.30769;stroke-linecap:round;stroke-linejoin:round;stroke-miterlimit:10;stroke-dasharray:none;stroke-opacity:1" id="path1602" />
         </g>
         <g id="g1604" transform="scale(1,-1)">
            <path d="m 948.77,-341.133 c 38.73955,1.45991 77.5191,2.47393 116.2846,1.5077" style="fill:none;stroke:#000000;stroke-width:1.30769;stroke-linecap:round;stroke-linejoin:round;stroke-miterlimit:10;stroke-dasharray:none;stroke-opacity:1" id="path1606" />
         </g>
         <g id="g1608" transform="scale(1,-1)">
            <path d="m 952.746,-348.785 c 38.40373,0.37177 76.8095,0.55885 115.211,1.14" style="fill:none;stroke:#000000;stroke-width:1.30769;stroke-linecap:round;stroke-linejoin:round;stroke-miterlimit:10;stroke-dasharray:none;stroke-opacity:1" id="path1610" />
         </g>
         <g id="g1612" transform="scale(1,-1)">
            <path d="m 993.527,-376.406 c 7.773,0.7304 15.562,-0.20884 23.321,-0.649" style="fill:none;stroke:#000000;stroke-width:1.30769;stroke-linecap:round;stroke-linejoin:round;stroke-miterlimit:10;stroke-dasharray:none;stroke-opacity:1" id="path1614" />
         </g>
         <g id="g1616" transform="scale(1,-1)">
            <path d="m 1156.426,-453.652 c 0.9925,-0.76478 -1.0145,-1.47086 -1.6902,-1.09113 -1.1433,0.0337 -2.0378,1.275 -1.4413,2.32832 0.6192,1.3914 2.8961,1.85146 3.7882,0.48396 0.6075,-0.88852 0.073,-2.00334 -0.7775,-2.49344 -0.4029,-0.29179 -0.954,-0.46183 -1.4253,-0.22693" style="fill:none;stroke:#000000;stroke-width:1.30769;stroke-linecap:round;stroke-linejoin:round;stroke-miterlimit:10;stroke-dasharray:none;stroke-opacity:1" id="path1618" />
         </g>
         <g id="g1620" transform="scale(1,-1)">
            <path d="m 985.73,-468.906 c 14.02222,0.0304 28.0422,0.577 42.0624,0.006 1.1581,-0.004 2.317,7.3e-4 3.4736,0.0685" style="fill:none;stroke:#000000;stroke-width:1.30769;stroke-linecap:round;stroke-linejoin:round;stroke-miterlimit:10;stroke-dasharray:none;stroke-opacity:1" id="path1622" />
         </g>
         <g id="g1624" transform="scale(1,-1)">
            <path d="m 895.668,-526.414 c 2.66895,-7.66903 0.63958,-15.89751 2.11842,-23.74312 l -0.0134,-0.96388" style="fill:none;stroke:#000000;stroke-width:1.30769;stroke-linecap:round;stroke-linejoin:round;stroke-miterlimit:10;stroke-dasharray:none;stroke-opacity:1" id="path1626" />
         </g>
         <g id="g1628" transform="scale(1,-1)">
            <path d="m 1065.391,-518.547 c 15.1788,-0.4109 30.3654,1.02154 45.505,1.0554" style="fill:none;stroke:#000000;stroke-width:1.30769;stroke-linecap:round;stroke-linejoin:round;stroke-miterlimit:10;stroke-dasharray:none;stroke-opacity:1" id="path1630" />
         </g>
         <g id="g1632" transform="scale(1,-1)">
            <path d="m 1112.836,-519.348 0.4867,-17.734" style="fill:none;stroke:#000000;stroke-width:1.30769;stroke-linecap:round;stroke-linejoin:round;stroke-miterlimit:10;stroke-dasharray:none;stroke-opacity:1" id="path1634" sodipodi:nodetypes="cc" />
         </g>
         <g id="g1636" transform="scale(1,-1)">
            <path d="m 1086.742,-523.398 0.059,-12.36004" style="fill:none;stroke:#000000;stroke-width:1.30769;stroke-linecap:round;stroke-linejoin:round;stroke-miterlimit:10;stroke-dasharray:none;stroke-opacity:1" id="path1638" sodipodi:nodetypes="cc" />
         </g>
         <g id="g1640" transform="scale(1,-1)">
            <path d="m 1061.277,-507.559 c 0.3231,-10.69228 -0.5306,-21.40051 0.255,-32.082" style="fill:none;stroke:#000000;stroke-width:1.30769;stroke-linecap:round;stroke-linejoin:round;stroke-miterlimit:10;stroke-dasharray:none;stroke-opacity:1" id="path1642" />
         </g>
         <g id="g1644" transform="scale(1,-1)">
            <path d="m 1034.098,-473.047 c 2.1714,-15.72174 0.2309,-31.6383 1.5496,-47.41" style="fill:none;stroke:#000000;stroke-width:1.30769;stroke-linecap:round;stroke-linejoin:round;stroke-miterlimit:10;stroke-dasharray:none;stroke-opacity:1" id="path1646" />
         </g>
         <g id="g1648" transform="scale(1,-1)">
            <path d="m 1007.191,-473.219 c 0.928,-11.57036 -1.1161,-23.21309 0.9604,-34.695" style="fill:none;stroke:#000000;stroke-width:1.30769;stroke-linecap:round;stroke-linejoin:round;stroke-miterlimit:10;stroke-dasharray:none;stroke-opacity:1" id="path1650" />
         </g>
         <g id="g1652" transform="scale(1,-1)">
            <path d="m 1003.3246,-515.92994 c 0,0 3.981,-0.147 5.8324,-0.31006 2.2978,0.0881 2.0944,-2.42388 1.9804,-4.00704 0.072,-3.02672 -0.064,-6.07132 0.4383,-9.06318 0.3243,-2.73572 -2.9566,-3.19326 -4.9738,-2.91834 -2.3626,-0.41046 -2.6089,1.11729 -2.7629,3.34789 l -0.5144,12.95073" style="fill:none;stroke:#000000;stroke-width:1.30769;stroke-linecap:round;stroke-linejoin:round;stroke-miterlimit:10;stroke-dasharray:none;stroke-opacity:1" id="path1654" sodipodi:nodetypes="ccccccc" />
         </g>
         <g id="g1656" transform="scale(1,-1)">
            <path d="m 1007.594,-537.738 c -0.1827,-1.49587 -0.1121,-4.68804 -0.1121,-4.68804" style="fill:none;stroke:#000000;stroke-width:1.30769;stroke-linecap:round;stroke-linejoin:round;stroke-miterlimit:10;stroke-dasharray:none;stroke-opacity:1" id="path1658" sodipodi:nodetypes="cc" />
         </g>
         <g id="g1660" transform="scale(1,-1)">
            <path d="m 980.82,-473.688 c 0.56196,-8.8621 -1.28179,-17.68823 -0.55181,-26.56204 -0.14751,-7.46781 0.53284,-14.94127 0.36314,-22.39082 L 980.379,-523.793" style="fill:none;stroke:#000000;stroke-width:1.30769;stroke-linecap:round;stroke-linejoin:round;stroke-miterlimit:10;stroke-dasharray:none;stroke-opacity:1" id="path1662" />
         </g>
         <g id="g1664" transform="scale(1,-1)">
            <path d="m 952.422,-515.172 c 1.83583,-6.68304 0.0996,-13.70834 0.22209,-20.51923 0.13662,-4.01025 0.33938,-8.10567 0.0549,-12.05477" style="fill:none;stroke:#000000;stroke-width:1.30769;stroke-linecap:round;stroke-linejoin:round;stroke-miterlimit:10;stroke-dasharray:none;stroke-opacity:1" id="path1666" />
         </g>
         <g id="g1668" transform="scale(1,-1)">
            <path d="m 924.172,-535.039 c 1.65851,-4.87946 1.05092,-10.23311 1.10859,-15.26744 l -0.15959,0.12244" style="fill:none;stroke:#000000;stroke-width:1.30769;stroke-linecap:round;stroke-linejoin:round;stroke-miterlimit:10;stroke-dasharray:none;stroke-opacity:1" id="path1670" />
         </g>
         <g id="g1672" transform="scale(1,-1)">
            <path d="m 906.219,-528.109 c 12.99899,0.70314 25.88685,3.03344 38.89433,3.36354 l 0.69142,8.2e-4 0.69125,-0.005" style="fill:none;stroke:#000000;stroke-width:1.30769;stroke-linecap:round;stroke-linejoin:round;stroke-miterlimit:10;stroke-dasharray:none;stroke-opacity:1" id="path1674" />
         </g>
         <g id="g1676" transform="scale(1,-1)">
            <path d="m 956.887,-509.523 c 4.377,0.61225 8.80232,0.71892 13.211,0.925" style="fill:none;stroke:#000000;stroke-width:1.30769;stroke-linecap:round;stroke-linejoin:round;stroke-miterlimit:10;stroke-dasharray:none;stroke-opacity:1" id="path1678" />
         </g>
         <g id="g1680" transform="scale(1,-1)">
            <path d="m 1038.816,-493.758 -0.011,0.008 -0.035,0.004 -0.055,0.019 -0.09,0.016 -0.082,0.012 0.023,0.011 -0.011,0.047 0.035,-0.027 0.01,-0.027 0.109,0.011 0.199,0.004 0.01,-0.023 -0.047,-0.024 h 0.102 -0.012 l 0.063,-0.011 0.16,-0.024 h 0.113 l 0.125,0.02 0.133,-0.008 h 0.242 l 0.199,0.027 0.059,0.004 0.133,-0.011 h 0.144 l 0.121,0.035 0.145,0.004 0.136,0.027 0.098,0.008 0.11,0.008 0.121,-0.032 0.129,0.012 0.109,0.035 0.086,0.012 0.074,0.012 0.109,0.004 0.122,0.003 0.105,0.004 h 0.133 l 0.015,0.004 0.075,-0.004 0.136,-0.004 0.102,-0.054 0.082,-0.039 0.062,0.019 0.082,0.016 0.063,0.008 0.039,0.007 0.039,0.004 0.035,0.028 0.047,0.008 -0.039,0.011 -0.09,0.008 0.016,-0.004 0.086,0.004 0.043,-0.004 0.035,-0.004 0.027,0.008 0.137,0.016 0.121,0.035 -0.066,0.008 0.023,0.007 0.035,0.004" style="fill:none;stroke:#000000;stroke-width:1.30769;stroke-linecap:round;stroke-linejoin:round;stroke-miterlimit:10;stroke-dasharray:none;stroke-opacity:1" id="path1682" />
         </g>
      </g>
   </g>
</svg>
