<?xml version="1.0" encoding="UTF-8" standalone="no"?>
<!-- Created by Ashley Blewer - This work is licensed under a Creative Commons Attribution 4.0 International License -->

<svg width="544" height="480" viewBox="0 0 143.93334 127" version="1.1" id="svg2490" inkscape:version="1.1.2 (08b2f3d93c, 2022-04-05)" sodipodi:docname="1996-dvd-3.svg"
   xmlns:inkscape="http://www.inkscape.org/namespaces/inkscape"
   xmlns:sodipodi="http://sodipodi.sourceforge.net/DTD/sodipodi-0.dtd"
   xmlns="http://www.w3.org/2000/svg"
   xmlns:svg="http://www.w3.org/2000/svg">
   <sodipodi:namedview id="namedview2492" pagecolor="#ffffff" bordercolor="#666666" borderopacity="1.0" inkscape:pageshadow="2" inkscape:pageopacity="0.0" inkscape:pagecheckerboard="0" inkscape:document-units="mm" showgrid="false" units="px" inkscape:zoom="0.90583674" inkscape:cx="279.29978" inkscape:cy="194.84747" inkscape:window-width="1848" inkscape:window-height="1136" inkscape:window-x="72" inkscape:window-y="27" inkscape:window-maximized="1" inkscape:current-layer="layer1" />
   <defs id="defs2487" />
   <g inkscape:label="Layer 1" inkscape:groupmode="layer" id="layer1">
      <g id="g32531" transform="matrix(0.28332906,0,0,0.28410275,-1.5841534,-138.49009)" style="stroke-width:0.880074">
         <g id="g374" transform="matrix(1.3318244,0,0,-1.3348449,-42.865285,1200.1996)" style="stroke-width:0.660056">
            <g id="g376" style="stroke-width:0.660056">
               <path d="m 54.438038,426.90826 32.973899,16.0861" style="fill:none;stroke:#000000;stroke-width:1.72629;stroke-linecap:round;stroke-linejoin:round;stroke-miterlimit:10;stroke-dasharray:none;stroke-opacity:1" id="path378" sodipodi:nodetypes="cc" />
            </g>
         </g>
         <g id="g386" transform="matrix(1.3318244,0,0,-1.3348449,-42.865285,1200.1996)" style="stroke-width:0.660056">
            <g id="g388" style="stroke-width:0.660056">
               <path d="m 87.411937,442.99436 c 91.766703,-0.13801 183.122203,-2.51877 274.854403,0.58839" style="fill:none;stroke:#000000;stroke-width:1.72629;stroke-linecap:round;stroke-linejoin:round;stroke-miterlimit:10;stroke-dasharray:none;stroke-opacity:1" id="path390" sodipodi:nodetypes="cc" />
            </g>
         </g>
         <g id="g392" transform="matrix(1.3318244,0,0,-1.3348449,-42.865285,1200.1996)" style="stroke-width:0.660056">
            <g id="g394" style="stroke-width:0.660056">
               <path d="m 362.26634,443.58275 30.58498,-14.1913" style="fill:none;stroke:#000000;stroke-width:1.72629;stroke-linecap:round;stroke-linejoin:round;stroke-miterlimit:10;stroke-dasharray:none;stroke-opacity:1" id="path396" sodipodi:nodetypes="cc" />
            </g>
         </g>
         <g id="g398" transform="matrix(1.3318244,0,0,-1.3348449,-42.865285,1200.1996)" style="stroke-width:0.660056">
            <g id="g400" style="stroke-width:0.660056">
               <path d="m 54.438038,426.90826 338.413282,2.48319" style="fill:none;stroke:#000000;stroke-width:1.72629;stroke-linecap:round;stroke-linejoin:round;stroke-miterlimit:10;stroke-dasharray:none;stroke-opacity:1" id="path402" sodipodi:nodetypes="cc" />
            </g>
         </g>
         <g id="g404" transform="matrix(1.3318244,0,0,-1.3348449,-42.865285,1200.1996)" style="stroke-width:0.660056">
            <g id="g406" style="stroke-width:0.660056">
               <path d="m 392.85132,429.39145 3.99441,-91.81367" style="fill:none;stroke:#000000;stroke-width:1.72629;stroke-linecap:round;stroke-linejoin:round;stroke-miterlimit:10;stroke-dasharray:none;stroke-opacity:1" id="path408" sodipodi:nodetypes="cc" />
            </g>
         </g>
         <g id="g410" transform="matrix(1.3318244,0,0,-1.3348449,-42.865285,1200.1996)" style="stroke-width:0.660056">
            <g id="g412" style="stroke-width:0.660056">
               <path d="m 54.438038,426.90826 c 0,0 0.788017,-87.1137 -0.282786,-87.28713" style="fill:none;stroke:#000000;stroke-width:1.72629;stroke-linecap:round;stroke-linejoin:round;stroke-miterlimit:10;stroke-dasharray:none;stroke-opacity:1" id="path414" sodipodi:nodetypes="cc" />
            </g>
         </g>
         <g id="g416" transform="matrix(1.3318244,0,0,-1.3348449,-42.865285,1200.1996)" style="stroke-width:0.660056">
            <g id="g418" style="stroke-width:0.660056">
               <path d="m 72.234592,339.33709 c -0.50672,-7.71465 17.641816,-5.74015 28.912598,-6.08055 4.94711,0.15097 11.13106,1.12373 13.81802,6.02609" style="fill:none;stroke:#000000;stroke-width:1.72629;stroke-linecap:round;stroke-linejoin:round;stroke-miterlimit:10;stroke-dasharray:none;stroke-opacity:1" id="path420" sodipodi:nodetypes="ccc" />
            </g>
         </g>
         <g id="g422" transform="matrix(1.3318244,0,0,-1.3348449,-42.865285,1200.1996)" style="stroke-width:0.660056">
            <g id="g424" style="stroke-width:0.660056">
               <path d="M 54.155252,339.62113 396.84571,337.57778" style="fill:none;stroke:#000000;stroke-width:1.72629;stroke-linecap:round;stroke-linejoin:round;stroke-miterlimit:10;stroke-dasharray:none;stroke-opacity:1" id="path426" sodipodi:nodetypes="cc" />
            </g>
         </g>
         <g id="g428" transform="matrix(1.3318244,0,0,-1.3348449,-42.865285,1200.1996)" style="stroke-width:0.660056">
            <g id="g430" style="stroke-width:0.660056">
               <path d="m 333.4035,337.83588 c 0,0 9.22877,-5.22813 13.87354,-5.08684 10.12685,-0.25792 20.23374,-1.53587 30.36888,-0.99993 2.97986,-0.0698 2.30128,5.64588 2.30128,5.64588" style="fill:none;stroke:#000000;stroke-width:1.72629;stroke-linecap:round;stroke-linejoin:round;stroke-miterlimit:10;stroke-dasharray:none;stroke-opacity:1" id="path432" sodipodi:nodetypes="cccc" />
            </g>
         </g>
         <g id="g434" transform="matrix(1.3318244,0,0,-1.3348449,-42.865285,1200.1996)" style="stroke-width:0.660056">
            <g id="g436" style="stroke-width:0.660056">
               <path d="m 156.52312,388.6324 c 0.69926,6.49867 -0.0605,22.34874 -0.0605,22.34874" style="fill:none;stroke:#000000;stroke-width:1.72629;stroke-linecap:round;stroke-linejoin:round;stroke-miterlimit:10;stroke-dasharray:none;stroke-opacity:1" id="path438" sodipodi:nodetypes="cc" />
            </g>
         </g>
         <g id="g440" transform="matrix(1.3318244,0,0,-1.3348449,-42.865285,1200.1996)" style="stroke-width:0.660056">
            <g id="g442" style="stroke-width:0.660056">
               <path d="m 156.46262,410.98114 138.69426,-0.64013" style="fill:none;stroke:#000000;stroke-width:1.72629;stroke-linecap:round;stroke-linejoin:round;stroke-miterlimit:10;stroke-dasharray:none;stroke-opacity:1" id="path444" sodipodi:nodetypes="cc" />
            </g>
         </g>
         <g id="g446" transform="matrix(1.3318244,0,0,-1.3348449,-42.865285,1200.1996)" style="stroke-width:0.660056">
            <g id="g448" style="stroke-width:0.660056">
               <path d="m 295.15688,410.34101 0.63685,-22.42136" style="fill:none;stroke:#000000;stroke-width:1.72629;stroke-linecap:round;stroke-linejoin:round;stroke-miterlimit:10;stroke-dasharray:none;stroke-opacity:1" id="path450" sodipodi:nodetypes="cc" />
            </g>
         </g>
         <g id="g452" transform="matrix(1.3318244,0,0,-1.3348449,-42.865285,1200.1996)" style="stroke-width:0.660056">
            <g id="g454" style="stroke-width:0.660056">
               <path d="m 156.52312,388.6324 139.27061,-0.71277" style="fill:none;stroke:#000000;stroke-width:1.72629;stroke-linecap:round;stroke-linejoin:round;stroke-miterlimit:10;stroke-dasharray:none;stroke-opacity:1" id="path456" sodipodi:nodetypes="cc" />
            </g>
         </g>
         <g id="g458" transform="matrix(1.3318244,0,0,-1.3348449,-42.865285,1200.1996)" style="stroke-width:0.660056">
            <g id="g460" style="stroke-width:0.660056">
               <path d="m 157.86697,348.80899 -1.87335,32.42072" style="fill:none;stroke:#000000;stroke-width:1.72629;stroke-linecap:round;stroke-linejoin:round;stroke-miterlimit:10;stroke-dasharray:none;stroke-opacity:1" id="path462" sodipodi:nodetypes="cc" />
            </g>
         </g>
         <g id="g464" transform="matrix(1.3318244,0,0,-1.3348449,-42.865285,1200.1996)" style="stroke-width:0.660056">
            <g id="g466" style="stroke-width:0.660056">
               <path d="M 155.99362,381.22971 295.91348,379.0951" style="fill:none;stroke:#000000;stroke-width:1.72629;stroke-linecap:round;stroke-linejoin:round;stroke-miterlimit:10;stroke-dasharray:none;stroke-opacity:1" id="path468" sodipodi:nodetypes="cc" />
            </g>
         </g>
         <g id="g470" transform="matrix(1.3318244,0,0,-1.3348449,-42.865285,1200.1996)" style="stroke-width:0.660056">
            <g id="g472" style="stroke-width:0.660056">
               <path d="m 295.91348,379.0951 0.49719,-30.29311" style="fill:none;stroke:#000000;stroke-width:1.72629;stroke-linecap:round;stroke-linejoin:round;stroke-miterlimit:10;stroke-dasharray:none;stroke-opacity:1" id="path474" sodipodi:nodetypes="cc" />
            </g>
         </g>
         <g id="g476" transform="matrix(1.3318244,0,0,-1.3348449,-42.865285,1200.1996)" style="stroke-width:0.660056">
            <g id="g478" style="stroke-width:0.660056">
               <path d="m 157.86697,348.80899 c 47.15836,-1.86032 91.37323,-0.36459 138.5437,-0.007" style="fill:none;stroke:#000000;stroke-width:1.72629;stroke-linecap:round;stroke-linejoin:round;stroke-miterlimit:10;stroke-dasharray:none;stroke-opacity:1" id="path480" sodipodi:nodetypes="cc" />
            </g>
         </g>
         <g id="g482" transform="matrix(1.3318244,0,0,-1.3348449,-42.865285,1200.1996)" style="stroke-width:0.660056">
            <g id="g484" style="stroke-width:0.660056">
               <path d="m 68.850349,366.62 c 5.115659,0.2753 10.234169,1.21049 15.363635,0.62353" style="fill:none;stroke:#000000;stroke-width:0.863148;stroke-linecap:round;stroke-linejoin:round;stroke-miterlimit:10;stroke-dasharray:none;stroke-opacity:1" id="path486" />
            </g>
         </g>
         <g id="g488" transform="matrix(1.3318244,0,0,-1.3348449,-42.865285,1200.1996)" style="stroke-width:0.660056">
            <g id="g490" style="stroke-width:0.660056">
               <path d="m 84.213984,367.24353 c 0.391631,-2.41977 0.16968,-9.59591 0.16968,-9.59591" style="fill:none;stroke:#000000;stroke-width:0.863148;stroke-linecap:round;stroke-linejoin:round;stroke-miterlimit:10;stroke-dasharray:none;stroke-opacity:1" id="path492" sodipodi:nodetypes="cc" />
            </g>
         </g>
         <g id="g494" transform="matrix(1.3318244,0,0,-1.3348449,-42.865285,1200.1996)" style="stroke-width:0.660056">
            <g id="g496" style="stroke-width:0.660056">
               <path d="m 84.383664,357.64762 c -4.820633,0.15422 -15.977963,0.28307 -15.977963,0.28307" style="fill:none;stroke:#000000;stroke-width:0.863148;stroke-linecap:round;stroke-linejoin:round;stroke-miterlimit:10;stroke-dasharray:none;stroke-opacity:1" id="path498" sodipodi:nodetypes="cc" />
            </g>
         </g>
         <g id="g500" transform="matrix(1.3318244,0,0,-1.3348449,-42.865285,1200.1996)" style="stroke-width:0.660056">
            <g id="g502" style="stroke-width:0.660056">
               <path d="m 68.405701,357.93069 c 0.0293,2.66052 0.444648,8.68931 0.444648,8.68931" style="fill:none;stroke:#000000;stroke-width:0.863148;stroke-linecap:round;stroke-linejoin:round;stroke-miterlimit:10;stroke-dasharray:none;stroke-opacity:1" id="path504" sodipodi:nodetypes="cc" />
            </g>
         </g>
         <g id="g506" transform="matrix(1.3318244,0,0,-1.3348449,-42.865285,1200.1996)" style="stroke-width:0.660056">
            <g id="g508" style="stroke-width:0.660056">
               <path d="m 102.85346,362.27298 c 0.15103,-0.32697 -0.38895,0.0621 -0.24542,0.0975 0.26335,-0.0794 -0.45445,-0.60017 0.11471,-0.96353 0.42252,-0.60637 2.07762,0.10658 0.92264,0.45498 -0.11329,0.38147 -1.443,0.0757 -0.9077,-0.0325" style="fill:none;stroke:#000000;stroke-width:0.863148;stroke-linecap:round;stroke-linejoin:round;stroke-miterlimit:10;stroke-dasharray:none;stroke-opacity:1" id="path510" />
            </g>
         </g>
         <g id="g512" transform="matrix(1.3318244,0,0,-1.3348449,-42.865285,1200.1996)" style="stroke-width:0.660056">
            <g id="g514" style="stroke-width:0.660056">
               <path d="m 119.29028,361.87479 c -0.62495,-0.68819 0.35417,-1.48752 0.9734,-0.85499 0.86041,0.61247 -0.69449,1.07483 -1.16339,0.77133 -0.10694,-0.17635 0.20676,-0.0392 0.25443,-0.10091" style="fill:none;stroke:#000000;stroke-width:0.863148;stroke-linecap:round;stroke-linejoin:round;stroke-miterlimit:10;stroke-dasharray:none;stroke-opacity:1" id="path516" />
            </g>
         </g>
         <g id="g518" transform="matrix(1.3318244,0,0,-1.3348449,-42.865285,1200.1996)" style="stroke-width:0.660056">
            <g id="g520" style="stroke-width:0.660056">
               <path d="m 135.71075,361.89703 c -0.36974,0.3887 -0.16414,-0.70067 -0.3045,-0.85265 0.29706,-0.80983 2.43714,-0.11248 1.75846,0.66504 -0.28283,0.39434 -2.10255,0.45025 -1.73066,-0.14752" style="fill:none;stroke:#000000;stroke-width:0.863148;stroke-linecap:round;stroke-linejoin:round;stroke-miterlimit:10;stroke-dasharray:none;stroke-opacity:1" id="path522" />
            </g>
         </g>
         <g id="g524" transform="matrix(1.3318244,0,0,-1.3348449,-42.865285,1200.1996)" style="stroke-width:0.660056">
            <g id="g526" style="stroke-width:0.660056">
               <path d="m 99.73069,367.22321 c 1.45088,0.3064 2.89603,0.74897 4.39629,0.67351 0.90945,0.0298 1.81889,0.0597 2.72834,0.0895" style="fill:none;stroke:#000000;stroke-width:0.863148;stroke-linecap:round;stroke-linejoin:round;stroke-miterlimit:10;stroke-dasharray:none;stroke-opacity:1" id="path528" />
            </g>
         </g>
         <g id="g530" transform="matrix(1.3318244,0,0,-1.3348449,-42.865285,1200.1996)" style="stroke-width:0.660056">
            <g id="g532" style="stroke-width:0.660056">
               <path d="m 117.44201,366.87875 c 1.46541,0.15564 2.93081,0.31128 4.39622,0.46692" style="fill:none;stroke:#000000;stroke-width:0.863148;stroke-linecap:round;stroke-linejoin:round;stroke-miterlimit:10;stroke-dasharray:none;stroke-opacity:1" id="path534" />
            </g>
         </g>
         <g id="g536" transform="matrix(1.3318244,0,0,-1.3348449,-42.865285,1200.1996)" style="stroke-width:0.660056">
            <g id="g538" style="stroke-width:0.660056">
               <path d="m 133.96982,366.33411 c 1.05568,-0.22777 2.13637,0.14623 3.19645,0.20997 0.83367,0.13045 1.66222,0.29079 2.4918,0.4445" style="fill:none;stroke:#000000;stroke-width:0.863148;stroke-linecap:round;stroke-linejoin:round;stroke-miterlimit:10;stroke-dasharray:none;stroke-opacity:1" id="path540" />
            </g>
         </g>
         <g id="g542" transform="matrix(1.3318244,0,0,-1.3348449,-42.865285,1200.1996)" style="stroke-width:0.660056">
            <g id="g544" style="stroke-width:0.660056">
               <path d="m 67.880676,419.0657 c 9.528312,0.4501 19.094227,0.90379 28.615823,0.072" style="fill:none;stroke:#000000;stroke-width:0.863148;stroke-linecap:round;stroke-linejoin:round;stroke-miterlimit:10;stroke-dasharray:none;stroke-opacity:1" id="path546" />
            </g>
         </g>
         <g id="g548" transform="matrix(1.3318244,0,0,-1.3348449,-42.865285,1200.1996)" style="stroke-width:0.660056">
            <g id="g550" style="stroke-width:0.660056">
               <path d="m 76.342926,372.70627 c 0.0112,-0.11495 0.0224,-0.2299 0.0336,-0.34485 -0.161262,0.077 -0.498131,0.16182 -0.548515,0.23383 0.163595,0.0237 0.09841,0.15276 0.04775,0.24261 0.105386,0.11841 0.31233,0.0877 0.455387,0.15944 0.0367,-0.0258 -0.183448,-0.13287 -0.241501,-0.18961 -0.04216,-0.0295 -0.08432,-0.0591 -0.126477,-0.0886" style="fill:none;stroke:#000000;stroke-width:0.863148;stroke-linecap:round;stroke-linejoin:round;stroke-miterlimit:10;stroke-dasharray:none;stroke-opacity:1" id="path552" />
            </g>
         </g>
         <g id="g554" transform="matrix(1.3318244,0,0,-1.3348449,-42.865285,1200.1996)" style="stroke-width:0.660056">
            <g id="g556" style="stroke-width:0.660056">
               <path d="m 217.03981,418.06766 c 1.33152,0.18488 2.6677,0.1181 3.99926,-0.0225 2.59499,-0.2572 5.20885,-0.22149 7.81145,-0.13138 2.3749,0.11569 4.75863,0.37813 7.12858,0.39283 0.39042,-0.0866 0.78084,-0.1733 1.17126,-0.25994" style="fill:none;stroke:#000000;stroke-width:0.863148;stroke-linecap:round;stroke-linejoin:round;stroke-miterlimit:10;stroke-dasharray:none;stroke-opacity:1" id="path558" />
            </g>
         </g>
         <g id="g560" transform="matrix(1.3318244,0,0,-1.3348449,-42.865285,1200.1996)" style="stroke-width:0.660056">
            <g id="g562" style="stroke-width:0.660056">
               <path d="m 219.46387,403.79865 c 3.84159,-0.66672 7.84292,-0.15499 11.47997,-0.43969 1.26536,-0.8969 1.64354,-3.45171 0.95696,-4.54395 -4.36475,-0.50059 -8.34554,-0.1597 -12.98238,-0.0479" style="fill:none;stroke:#000000;stroke-width:0.863148;stroke-linecap:round;stroke-linejoin:round;stroke-miterlimit:10;stroke-dasharray:none;stroke-opacity:1" id="path564" sodipodi:nodetypes="cccc" />
            </g>
         </g>
         <g id="g566" transform="matrix(1.3318244,0,0,-1.3348449,-42.865285,1200.1996)" style="stroke-width:0.660056">
            <g id="g568" style="stroke-width:0.660056">
               <path d="m 219.46387,403.79865 c -0.44373,-0.77359 -0.39947,-4.21164 -0.54545,-5.0315" style="fill:none;stroke:#000000;stroke-width:0.863148;stroke-linecap:round;stroke-linejoin:round;stroke-miterlimit:10;stroke-dasharray:none;stroke-opacity:1" id="path570" sodipodi:nodetypes="cc" />
            </g>
         </g>
         <g id="g572" transform="matrix(1.3318244,0,0,-1.3348449,-42.865285,1200.1996)" style="stroke-width:0.660056">
            <g id="g574" style="stroke-width:0.660056">
               <path d="m 308.46376,403.02611 c -1.13255,-0.89013 -2.542,-2.4033 -1.92867,-3.76377 1.61744,-1.99722 5.43417,-0.74844 5.60944,1.81557 0.14232,1.90919 -2.22147,2.53513 -3.68077,1.9482 -0.52844,-0.15137 -0.70021,-0.87025 -1.1804,-1.1363" style="fill:none;stroke:#000000;stroke-width:0.863148;stroke-linecap:round;stroke-linejoin:round;stroke-miterlimit:10;stroke-dasharray:none;stroke-opacity:1" id="path576" sodipodi:nodetypes="ccccc" />
            </g>
         </g>
         <g id="g578" transform="matrix(1.3318244,0,0,-1.3348449,-42.865285,1200.1996)" style="stroke-width:0.660056">
            <g id="g580" style="stroke-width:0.660056">
               <path d="m 328.7142,418.63971 c 18.51125,1.50139 37.07445,-0.25134 55.60639,0.0909" style="fill:none;stroke:#000000;stroke-width:0.863148;stroke-linecap:round;stroke-linejoin:round;stroke-miterlimit:10;stroke-dasharray:none;stroke-opacity:1" id="path582" />
            </g>
         </g>
         <g id="g584" transform="matrix(1.3318244,0,0,-1.3348449,-42.865285,1200.1996)" style="stroke-width:0.660056">
            <g id="g586" style="stroke-width:0.660056">
               <path d="m 304.59515,365.28085 c 2.86549,0.64638 5.72734,-0.43642 8.59372,-0.4592" style="fill:none;stroke:#000000;stroke-width:0.863148;stroke-linecap:round;stroke-linejoin:round;stroke-miterlimit:10;stroke-dasharray:none;stroke-opacity:1" id="path588" />
            </g>
         </g>
         <g id="g590" transform="matrix(1.3318244,0,0,-1.3348449,-42.865285,1200.1996)" style="stroke-width:0.660056">
            <g id="g592" style="stroke-width:0.660056">
               <path d="m 308.34033,361.2663 c -0.3257,-0.15865 -0.66391,-0.34067 -0.80539,-0.69641 -0.0961,-0.36732 -0.0562,-0.81149 0.14985,-1.13505 0.42711,-0.50229 1.14416,-0.61708 1.76407,-0.48744 0.51802,0.0112 1.10901,0.035 1.37229,0.56084 0.11512,0.39514 -0.23079,0.77663 -0.45071,1.07102 -0.41263,0.2301 -0.85878,0.40402 -1.29475,0.58712 -0.30254,-0.0126 -0.83974,0.2554 -1.00412,-0.11732" style="fill:none;stroke:#000000;stroke-width:0.863148;stroke-linecap:round;stroke-linejoin:round;stroke-miterlimit:10;stroke-dasharray:none;stroke-opacity:1" id="path594" />
            </g>
         </g>
         <g id="g596" transform="matrix(1.3318244,0,0,-1.3348449,-42.865285,1200.1996)" style="stroke-width:0.660056">
            <g id="g598" style="stroke-width:0.660056">
               <path d="m 318.79477,365.65082 c 2.89285,-0.18244 5.85009,0.38661 8.6871,-0.41394" style="fill:none;stroke:#000000;stroke-width:0.863148;stroke-linecap:round;stroke-linejoin:round;stroke-miterlimit:10;stroke-dasharray:none;stroke-opacity:1" id="path600" />
            </g>
         </g>
         <g id="g602" transform="matrix(1.3318244,0,0,-1.3348449,-42.865285,1200.1996)" style="stroke-width:0.660056">
            <g id="g604" style="stroke-width:0.660056">
               <path d="m 322.60715,361.68817 c -1.75841,0.26226 -1.87342,-2.47537 -0.23029,-2.76852 1.0283,-0.80284 3.34838,-0.86821 3.2143,0.89915 -0.12232,1.72952 -2.36587,2.88614 -3.80929,1.98529 l 0.0622,-0.0899" style="fill:none;stroke:#000000;stroke-width:0.863148;stroke-linecap:round;stroke-linejoin:round;stroke-miterlimit:10;stroke-dasharray:none;stroke-opacity:1" id="path606" />
            </g>
         </g>
         <g id="g608" transform="matrix(1.3318244,0,0,-1.3348449,-42.865285,1200.1996)" style="stroke-width:0.660056">
            <g id="g610" style="stroke-width:0.660056">
               <path d="m 338.45181,366.67287 c -0.38536,-3.02754 0.2893,-7.80312 -0.0569,-10.83238" style="fill:none;stroke:#000000;stroke-width:0.863148;stroke-linecap:round;stroke-linejoin:round;stroke-miterlimit:10;stroke-dasharray:none;stroke-opacity:1" id="path612" sodipodi:nodetypes="cc" />
            </g>
         </g>
         <g id="g614" transform="matrix(1.3318244,0,0,-1.3348449,-42.865285,1200.1996)" style="stroke-width:0.660056">
            <g id="g616" style="stroke-width:0.660056">
               <path d="m 338.45181,366.67287 14.12649,-0.24111" style="fill:none;stroke:#000000;stroke-width:0.863148;stroke-linecap:round;stroke-linejoin:round;stroke-miterlimit:10;stroke-dasharray:none;stroke-opacity:1" id="path618" sodipodi:nodetypes="cc" />
            </g>
         </g>
         <g id="g620" transform="matrix(1.3318244,0,0,-1.3348449,-42.865285,1200.1996)" style="stroke-width:0.660056">
            <g id="g622" style="stroke-width:0.660056">
               <path d="m 352.5783,366.43176 -0.11296,-10.78698" style="fill:none;stroke:#000000;stroke-width:0.863148;stroke-linecap:round;stroke-linejoin:round;stroke-miterlimit:10;stroke-dasharray:none;stroke-opacity:1" id="path624" sodipodi:nodetypes="cc" />
            </g>
         </g>
         <g id="g626" transform="matrix(1.3318244,0,0,-1.3348449,-42.865285,1200.1996)" style="stroke-width:0.660056">
            <g id="g628" style="stroke-width:0.660056">
               <path d="m 338.39494,355.84049 14.0704,-0.19571" style="fill:none;stroke:#000000;stroke-width:0.863148;stroke-linecap:round;stroke-linejoin:round;stroke-miterlimit:10;stroke-dasharray:none;stroke-opacity:1" id="path630" sodipodi:nodetypes="cc" />
            </g>
         </g>
         <g id="g632" transform="matrix(1.3318244,0,0,-1.3348449,-42.865285,1200.1996)" style="stroke-width:0.660056">
            <g id="g634" style="stroke-width:0.660056">
               <path d="m 356.32388,366.38498 0.12873,-8.6394" style="fill:none;stroke:#000000;stroke-width:0.863148;stroke-linecap:round;stroke-linejoin:round;stroke-miterlimit:10;stroke-dasharray:none;stroke-opacity:1" id="path636" sodipodi:nodetypes="cc" />
            </g>
         </g>
         <g id="g638" transform="matrix(1.3318244,0,0,-1.3348449,-42.865285,1200.1996)" style="stroke-width:0.660056">
            <g id="g640" style="stroke-width:0.660056">
               <path d="m 356.32388,366.38498 29.30209,-0.69365" style="fill:none;stroke:#000000;stroke-width:0.863148;stroke-linecap:round;stroke-linejoin:round;stroke-miterlimit:10;stroke-dasharray:none;stroke-opacity:1" id="path642" sodipodi:nodetypes="cc" />
            </g>
         </g>
         <g id="g644" transform="matrix(1.3318244,0,0,-1.3348449,-42.865285,1200.1996)" style="stroke-width:0.660056">
            <g id="g646" style="stroke-width:0.660056">
               <path d="m 385.62597,365.69133 0.43591,-8.84191 -0.15854,0.0249 0.15854,-0.0249" style="fill:none;stroke:#000000;stroke-width:0.863148;stroke-linecap:round;stroke-linejoin:round;stroke-miterlimit:10;stroke-dasharray:none;stroke-opacity:1" id="path648" sodipodi:nodetypes="cccc" />
            </g>
         </g>
         <g id="g650" transform="matrix(1.3318244,0,0,-1.3348449,-42.865285,1200.1996)" style="stroke-width:0.660056">
            <g id="g652" style="stroke-width:0.660056">
               <path d="m 356.45261,357.74558 29.60927,-0.89616" style="fill:none;stroke:#000000;stroke-width:0.863148;stroke-linecap:round;stroke-linejoin:round;stroke-miterlimit:10;stroke-dasharray:none;stroke-opacity:1" id="path654" sodipodi:nodetypes="cc" />
            </g>
         </g>
         <g id="g656" transform="matrix(1.3318244,0,0,-1.3348449,-42.865285,1200.1996)" style="stroke-width:0.660056">
            <g id="g658" style="stroke-width:0.660056">
               <path d="m 329.08606,342.84015 c 7.26767,-0.52769 14.56577,0.68218 21.819,-0.20065" style="fill:none;stroke:#000000;stroke-width:0.863148;stroke-linecap:round;stroke-linejoin:round;stroke-miterlimit:10;stroke-dasharray:none;stroke-opacity:1" id="path660" />
            </g>
         </g>
         <g id="g662" transform="matrix(1.3318244,0,0,-1.3348449,-42.865285,1200.1996)" style="stroke-width:0.660056">
            <g id="g664" style="stroke-width:0.660056">
               <path d="m 359.21072,342.47195 c 3.23615,0.33686 6.5059,0.44908 9.74921,0.1417" style="fill:none;stroke:#000000;stroke-width:0.863148;stroke-linecap:round;stroke-linejoin:round;stroke-miterlimit:10;stroke-dasharray:none;stroke-opacity:1" id="path666" />
            </g>
         </g>
         <g id="g668" transform="matrix(1.3318244,0,0,-1.3348449,-42.865285,1200.1996)" style="stroke-width:0.660056">
            <g id="g670" style="stroke-width:0.660056">
               <path d="m 378.43118,342.15259 c 0,0 5.4904,0.10916 8.23215,0.28942 l -0.1582,0.0639 0.1835,0.35373 -0.39733,2.77806" style="fill:none;stroke:#000000;stroke-width:0.863148;stroke-linecap:round;stroke-linejoin:round;stroke-miterlimit:10;stroke-dasharray:none;stroke-opacity:1" id="path672" sodipodi:nodetypes="ccccc" />
            </g>
         </g>
         <g id="g674" transform="matrix(1.3318244,0,0,-1.3348449,-42.865285,1200.1996)" style="stroke-width:0.660056">
            <g id="g676" style="stroke-width:0.660056">
               <path d="m 378.22876,345.38898 v 0 l 8.06254,0.24872" style="fill:none;stroke:#000000;stroke-width:0.863148;stroke-linecap:round;stroke-linejoin:round;stroke-miterlimit:10;stroke-dasharray:none;stroke-opacity:1" id="path678" sodipodi:nodetypes="ccc" />
            </g>
         </g>
         <g id="g680" transform="matrix(1.3318244,0,0,-1.3348449,-42.865285,1200.1996)" style="stroke-width:0.660056">
            <g id="g682" style="stroke-width:0.660056">
               <path d="m 378.18136,345.20834 0.24982,-3.05575" style="fill:none;stroke:#000000;stroke-width:0.863148;stroke-linecap:round;stroke-linejoin:round;stroke-miterlimit:10;stroke-dasharray:none;stroke-opacity:1" id="path684" sodipodi:nodetypes="cc" />
            </g>
         </g>
      </g>
   </g>
</svg>
