<?xml version="1.0" encoding="UTF-8" standalone="no"?>
<!-- Created by Ashley Blewer - This work is licensed under a Creative Commons Attribution 4.0 International License -->

<svg width="544" height="480" viewBox="0 0 143.93334 127" version="1.1" id="svg2490" inkscape:version="1.1.2 (08b2f3d93c, 2022-04-05)" sodipodi:docname="1996-dvd-4.svg"
   xmlns:inkscape="http://www.inkscape.org/namespaces/inkscape"
   xmlns:sodipodi="http://sodipodi.sourceforge.net/DTD/sodipodi-0.dtd"
   xmlns="http://www.w3.org/2000/svg"
   xmlns:svg="http://www.w3.org/2000/svg">
   <sodipodi:namedview id="namedview2492" pagecolor="#ffffff" bordercolor="#666666" borderopacity="1.0" inkscape:pageshadow="2" inkscape:pageopacity="0.0" inkscape:pagecheckerboard="0" inkscape:document-units="mm" showgrid="false" units="px" inkscape:zoom="0.90583674" inkscape:cx="279.29978" inkscape:cy="194.84747" inkscape:window-width="1848" inkscape:window-height="1136" inkscape:window-x="72" inkscape:window-y="27" inkscape:window-maximized="1" inkscape:current-layer="layer1" />
   <defs id="defs2487" />
   <g inkscape:label="Layer 1" inkscape:groupmode="layer" id="layer1">
      <g id="g9416" transform="matrix(0.52589316,0,0,0.52589114,-482.42293,-24.507559)" style="stroke-width:0.855214">
         <g id="g74" transform="matrix(1,0,0,-1,0,792)" style="stroke-width:0.855214">
            <g id="g76" style="stroke-width:0.855214">
               <path d="m 1011.9681,725.45911 c 45.4194,20.556 105.7544,7.2379 133.4829,-35.63435 31.002,-41.86703 31.2895,-107.69221 -8.034,-144.46589 -26.588,-24.40787 -63.7037,-39.82752 -100.0065,-32.10712 -47.90695,9.19416 -91.41041,50.66206 -92.66417,101.10836 0.78135,36.56739 16.09878,73.38987 45.43752,96.13831 6.80527,5.61181 14.12175,10.5953 21.78425,14.96069 z" style="fill:none;stroke:#000000;stroke-width:2.23671;stroke-linecap:round;stroke-linejoin:round;stroke-miterlimit:10;stroke-dasharray:none;stroke-opacity:1" id="path78" sodipodi:nodetypes="cccccccccccc" />
            </g>
         </g>
         <g id="g80" transform="matrix(1,0,0,-1,0,792)" style="stroke-width:0.855214">
            <g id="g82" style="stroke-width:0.855214">
               <path d="m 1055.7882,637.14264 c 7.2193,0.98705 14.3771,-4.25898 14.6426,-11.43819 1.8469,-8.78604 -6.2535,-17.9982 -15.3435,-15.20412 -10.6418,1.48908 -15.2791,17.16835 -6.7322,23.84233 2.785,2.01525 2.2332,1.80799 7.4331,2.79998" style="fill:none;stroke:#000000;stroke-width:2.23671;stroke-linecap:round;stroke-linejoin:round;stroke-miterlimit:10;stroke-dasharray:none;stroke-opacity:1" id="path84" sodipodi:nodetypes="ccccc" />
            </g>
         </g>
         <g id="g86" transform="matrix(1,0,0,-1,0,792)" style="stroke-width:0.855214">
            <g id="g88" style="stroke-width:0.855214">
               <path d="m 1057.2633,645.83899 c 12.0374,1.27881 21.5546,-10.82703 21.1454,-22.16734 0.1721,-8.57733 -5.8543,-16.50286 -14.138,-18.7153 -11.8725,-3.81475 -27.5542,3.49477 -29.3363,16.51512 -0.9128,11.58116 10.3644,24.58963 22.3289,24.36752" style="fill:none;stroke:#000000;stroke-width:2.23671;stroke-linecap:round;stroke-linejoin:round;stroke-miterlimit:10;stroke-dasharray:none;stroke-opacity:1" id="path90" sodipodi:nodetypes="ccccc" />
            </g>
         </g>
         <g id="g92" transform="matrix(1,0,0,-1,0,792)" style="stroke-width:0.855214">
            <g id="g94" style="stroke-width:0.855214">
               <path d="m 1067.7792,657.85822 c 15.2354,-2.44639 24.9402,-18.05881 25.0832,-32.71439 0.8157,-14.29823 -7.558,-29.36777 -21.5616,-33.90424 -15.8445,-5.50055 -35.8588,-0.0711 -44.8971,14.53436 -8.0519,13.02755 -3.0052,30.23033 6.5462,41.01998 7.2498,8.45899 24.0205,13.5282 35.052,10.9621" style="fill:none;stroke:#000000;stroke-width:2.23671;stroke-linecap:round;stroke-linejoin:round;stroke-miterlimit:10;stroke-dasharray:none;stroke-opacity:1" id="path96" sodipodi:nodetypes="cccccc" />
            </g>
         </g>
         <g id="g98" transform="matrix(1,0,0,-1,0,792)" style="stroke-width:0.855214">
            <g id="g100" style="stroke-width:0.855214">
               <path d="m 1074.6508,661.19379 c 18.1535,-7.73751 25.7114,-30.7038 21.1686,-48.91101 -5.3723,-17.44943 -22.1797,-33.2082 -41.4844,-30.54303 -26.4195,2.0248 -47.361,32.90739 -35.8496,57.69557 10.3315,22.39458 41.3515,32.31562 62.2313,18.5928" style="fill:none;stroke:#000000;stroke-width:2.23671;stroke-linecap:round;stroke-linejoin:round;stroke-miterlimit:10;stroke-dasharray:none;stroke-opacity:1" id="path102" sodipodi:nodetypes="ccccccc" />
            </g>
         </g>
      </g>
   </g>
</svg>
