<?xml version="1.0" encoding="UTF-8" standalone="no"?>
<!-- Created by Ashley Blewer - This work is licensed under a Creative Commons Attribution 4.0 International License -->

<svg width="544" height="480" viewBox="0 0 143.93334 127" version="1.1" id="svg2490" inkscape:version="1.1.2 (08b2f3d93c, 2022-04-05)" sodipodi:docname="1996-dvcam-3.svg"
   xmlns:inkscape="http://www.inkscape.org/namespaces/inkscape"
   xmlns:sodipodi="http://sodipodi.sourceforge.net/DTD/sodipodi-0.dtd"
   xmlns="http://www.w3.org/2000/svg"
   xmlns:svg="http://www.w3.org/2000/svg">
   <sodipodi:namedview id="namedview2492" pagecolor="#ffffff" bordercolor="#666666" borderopacity="1.0" inkscape:pageshadow="2" inkscape:pageopacity="0.0" inkscape:pagecheckerboard="0" inkscape:document-units="mm" showgrid="false" units="px" inkscape:zoom="0.90583674" inkscape:cx="279.29978" inkscape:cy="194.84747" inkscape:window-width="1848" inkscape:window-height="1136" inkscape:window-x="72" inkscape:window-y="27" inkscape:window-maximized="1" inkscape:current-layer="layer1" />
   <defs id="defs2487" />
   <g inkscape:label="Layer 1" inkscape:groupmode="layer" id="layer1">
      <g id="g2090" transform="matrix(0.35277777,0,0,0.35277777,-229.3447,1.5006536)">
         <g id="g1296" transform="scale(1,-1)">
            <path d="m 679.961,-290.816 c 3.40744,-2.80334 14.35759,-17.13532 10.07602,-6.24753 1.02648,45.84495 -2.17959,91.70199 -3.15799,137.54753 l -0.0122,-0.16079 0.17222,0.0518" style="fill:none;stroke:#000000;stroke-width:3.92308;stroke-linecap:round;stroke-linejoin:round;stroke-miterlimit:10;stroke-dasharray:none;stroke-opacity:1" id="path1298" />
         </g>
         <g id="g1300" transform="scale(1,-1)">
            <path d="m 686.77152,-156.07584 c 1.3091,-2.06692 3.39245,-1.11343 3.30298,2.11042 1.94414,9.98446 0.32243,20.18155 -0.0102,30.24052 1.06742,2.47648 -2.79766,5.40824 -3.28278,2.083 -0.62103,-11.46839 0.0125,-22.96474 -0.01,-34.43394 0.0215,-0.86346 0.10751,-3.44016 0.10751,-3.44016" style="fill:none;stroke:#000000;stroke-width:3.92308;stroke-linecap:round;stroke-linejoin:round;stroke-miterlimit:10;stroke-dasharray:none;stroke-opacity:1" id="path1302" sodipodi:nodetypes="cccccc" />
         </g>
         <g id="g1304" transform="scale(1,-1)">
            <path d="m 689.348,-118.656 c -1.07666,2.65398 1.05117,9.60656 0.5641,12.36862 0.20551,9.390518 -1.25874,18.844432 -4.21566,27.747064 l -0.25789,0.415099 -0.32555,0.359217" style="fill:none;stroke:#000000;stroke-width:3.92308;stroke-linecap:round;stroke-linejoin:round;stroke-miterlimit:10;stroke-dasharray:none;stroke-opacity:1" id="path1306" sodipodi:nodetypes="ccccc" />
         </g>
         <g id="g1308" transform="scale(1,-1)">
            <path d="m 689.102,-118.645 -0.008,-0.019 -0.016,-0.027 0.031,-0.028 0.051,-0.066 -0.066,-0.055 -0.016,-0.015 -0.012,-0.043 -0.011,-0.047 -0.067,0.054 -0.039,0.036 0.047,0.015 0.02,0.012 0.011,0.098 0.016,0.07 0.023,-0.028 0.016,0.004 0.016,0.008 0.011,-0.008 0.012,0.055 0.008,0.067 0.016,-0.04 0.203,-0.054 -0.114,-0.012 -0.004,-0.059 0.004,-0.015 0.032,-0.004 -0.039,0.004 h -0.032 l -0.011,0.008 v 0.023 l -0.012,0.016 0.078,-0.02 0.062,-0.004 -0.074,-0.008 -0.008,-0.019 -0.015,0.004 -0.02,0.008 0.008,0.004 -0.008,-0.004 -0.004,-0.008 -0.015,0.012 -0.004,-0.188 v -0.105 l -0.055,0.125 -0.082,0.039 -0.015,0.043 -0.016,0.035 0.004,0.078 0.004,0.058 0.008,0.012 -0.079,-0.008 h -0.027 l 0.035,0.012 -0.015,0.031 v -0.054 l -0.032,-0.012 -0.047,0.043 0.012,0.008 0.012,-0.004 -0.035,0.008 -0.047,0.019 -0.043,-0.004 h -0.035 l -0.168,0.016 -0.137,0.004 0.027,-0.02 -0.058,-0.008 -0.067,0.059 -0.066,-0.008 0.004,-0.027 0.094,-0.035 -0.075,-0.024 -0.168,-0.027 -0.093,0.023 -0.082,-0.035 -0.078,-0.066 -0.106,0.008 -0.101,-0.012 -0.063,-0.012 -0.086,-0.019 -0.098,0.043 -0.082,0.015 -0.046,-0.043 -0.079,-0.011 -0.066,-0.008 -0.039,-0.02 -0.043,0.004 -0.074,0.02 -0.082,-0.028 0.047,-0.027 -0.051,-0.035 -0.121,-0.012 -0.055,-0.07 -0.059,-0.024 -0.062,0.032 -0.07,-0.008 h -0.063 l -0.055,0.008 -0.023,-0.004 -0.039,0.019 -0.125,-0.015 h -0.086 l -0.004,0.003 0.004,0.004 0.008,-0.004 -0.008,0.004 v -0.004 l 0.02,-0.007 -0.012,-0.004 -0.035,-0.004 v -0.102 l -0.071,0.028 -0.074,0.007 0.031,-0.003 h 0.036 l 0.019,0.015 0.008,0.059 -0.012,0.023 0.051,-0.035 0.051,0.023 -0.035,-0.015 0.003,0.035 0.012,-0.105 0.008,-0.067 -0.02,0.028 h 0.071 l 0.054,0.007 -0.074,0.028 -0.023,-0.016 -0.051,-0.023 -0.027,0.031 -0.063,0.012 -0.039,0.011 -0.019,0.035 -0.047,0.047 -0.02,-0.011 -0.031,-0.016 0.039,0.023 0.043,-0.023 -0.047,-0.004 -0.051,-0.008 -0.027,-0.027 -0.02,-0.035 0.008,0.023 -0.109,0.012 -0.063,-0.043 0.071,0.004 -0.008,-0.063 -0.031,0.016 -0.008,0.043 -0.008,0.019 -0.016,0.016 0.051,-0.008 0.012,-0.011 -0.008,0.093 0.008,0.02 0.019,-0.035 -0.011,-0.008 -0.028,-0.008 0.016,-0.019 -0.004,-0.063 v -0.004 l -0.004,0.051 -0.027,0.023 -0.024,-0.007" style="fill:none;stroke:#000000;stroke-width:3.92308;stroke-linecap:round;stroke-linejoin:round;stroke-miterlimit:10;stroke-dasharray:none;stroke-opacity:1" id="path1310" />
         </g>
         <g id="g1312" transform="scale(1,-1)">
            <path d="m 684.137,-118.77 c 0.66611,10.58092 -1.04822,21.170581 -0.18802,31.743" style="fill:none;stroke:#000000;stroke-width:3.92308;stroke-linecap:round;stroke-linejoin:round;stroke-miterlimit:10;stroke-dasharray:none;stroke-opacity:1" id="path1314" />
         </g>
         <g id="g1316" transform="scale(1,-1)">
            <path d="m 685.113,-77.766 c -1.37606,1.897687 -3.90528,2.273859 -5.547,3.965002" style="fill:none;stroke:#000000;stroke-width:3.92308;stroke-linecap:round;stroke-linejoin:round;stroke-miterlimit:10;stroke-dasharray:none;stroke-opacity:1" id="path1318" sodipodi:nodetypes="cc" />
         </g>
         <g id="g1320" transform="scale(1,-1)">
            <path d="m 678.195,-72.402 c -0.46757,-16.304596 -0.6184,-33.2145 0.825,-49.453 0.49627,-0.10986 0.0182,-0.0254 -0.043,0.046" style="fill:none;stroke:#000000;stroke-width:3.92308;stroke-linecap:round;stroke-linejoin:round;stroke-miterlimit:10;stroke-dasharray:none;stroke-opacity:1" id="path1322" sodipodi:nodetypes="ccc" />
         </g>
         <g id="g1324" transform="scale(1,-1)">
            <path d="m 679.02,-121.855 c 1.34792,-2.27841 6.2711,-5.98322 7.46955,-8.36337" style="fill:none;stroke:#000000;stroke-width:3.92308;stroke-linecap:round;stroke-linejoin:round;stroke-miterlimit:10;stroke-dasharray:none;stroke-opacity:1" id="path1326" sodipodi:nodetypes="cc" />
         </g>
         <g id="g1328" transform="scale(1,-1)">
            <path d="m 678.977,-121.809 c 0.82541,-7.42368 -0.43936,-21.58437 -0.0245,-29.73652 0.8536,-36.22469 2.4826,-72.65246 2.42657,-108.75948 0.78847,-1.20474 4.63334,-4.93866 6.199,-6.168" style="fill:none;stroke:#000000;stroke-width:3.92308;stroke-linecap:round;stroke-linejoin:round;stroke-miterlimit:10;stroke-dasharray:none;stroke-opacity:1" id="path1330" sodipodi:nodetypes="cccc" />
         </g>
         <g id="g1332" transform="scale(1,-1)">
            <path d="m 688.848,-265.152 c -2.78644,-3.24887 -5.94596,-6.31699 -7.82831,-10.21325 -0.39199,-1.62782 0.23672,-3.09304 -0.057,-4.80957 -0.0919,-3.49172 -0.56721,-6.98574 -0.54916,-10.46859 0.0534,-0.30688 -0.0139,-0.66623 0.12142,-0.95058" style="fill:none;stroke:#000000;stroke-width:3.92308;stroke-linecap:round;stroke-linejoin:round;stroke-miterlimit:10;stroke-dasharray:none;stroke-opacity:1" id="path1334" />
         </g>
         <g id="g1336" transform="scale(1,-1)">
            <path d="m 677.945,-72.172 c 114.01272,3.847156 228.11297,9.701619 342.208,5.717531 l 0.594,-1.525531" style="fill:none;stroke:#000000;stroke-width:3.92308;stroke-linecap:round;stroke-linejoin:round;stroke-miterlimit:10;stroke-dasharray:none;stroke-opacity:1" id="path1338" />
         </g>
         <g id="g1340" transform="scale(1,-1)">
            <path d="m 685.113,-77.766 c 8.46882,2.721486 19.26293,1.814062 28.05648,2.842454 103.49352,1.27229 207.27626,6.119126 310.59652,4.759546 0.3619,-0.51111 0.5115,0.229102 0.949,-0.258" style="fill:none;stroke:#000000;stroke-width:3.92308;stroke-linecap:round;stroke-linejoin:round;stroke-miterlimit:10;stroke-dasharray:none;stroke-opacity:1" id="path1342" sodipodi:nodetypes="cccc" />
         </g>
         <g id="g1344" transform="scale(1,-1)">
            <path d="m 1026.016,-71.703 c -1.5448,-11.937029 0.8821,-23.982207 -0.5591,-35.92399 -0.093,-0.0486 -0.1708,-0.35373 -0.1789,-0.041" style="fill:none;stroke:#000000;stroke-width:3.92308;stroke-linecap:round;stroke-linejoin:round;stroke-miterlimit:10;stroke-dasharray:none;stroke-opacity:1" id="path1346" />
         </g>
         <g id="g1348" transform="scale(1,-1)">
            <path d="m 700.875,-76.043 c 1.17878,-1.466837 0.72972,-5.708833 0.551,-7.414018" style="fill:none;stroke:#000000;stroke-width:3.92308;stroke-linecap:round;stroke-linejoin:round;stroke-miterlimit:10;stroke-dasharray:none;stroke-opacity:1" id="path1350" sodipodi:nodetypes="cc" />
         </g>
         <g id="g1352" transform="scale(1,-1)">
            <path d="m 701.426,-83.457018 c 0,0 211.28637,4.146822 313.687,7.082018" style="fill:none;stroke:#000000;stroke-width:3.92308;stroke-linecap:round;stroke-linejoin:round;stroke-miterlimit:10;stroke-dasharray:none;stroke-opacity:1" id="path1354" sodipodi:nodetypes="cc" />
         </g>
         <g id="g1356" transform="scale(1,-1)">
            <path d="m 1015.812,-76.121 0.01,-0.012 -0.01,0.004 v 0.012 l -0.011,0.019 -0.012,0.051 -0.039,0.063 -0.035,0.078 -0.043,0.062 -0.039,0.098 -0.043,0.09 -0.02,0.086 -0.07,0.164 -0.016,0.086 -0.011,0.082 -0.024,0.093 -0.011,0.086 v 0.098 l -0.02,0.086 v 0.246 l 0.012,0.07 0.01,0.09 0.011,0.09 0.028,0.078 0.015,0.071 0.016,0.066 -0.012,0.113 v 0.192 l -0.035,0.078 -0.031,0.09 -0.039,0.101 -0.039,0.098 -0.04,0.078 -0.042,0.09 v 0.078 l -0.032,0.07 v 0.016 l -0.019,0.047 -0.028,0.039" style="fill:none;stroke:#000000;stroke-width:3.92308;stroke-linecap:round;stroke-linejoin:round;stroke-miterlimit:10;stroke-dasharray:none;stroke-opacity:1" id="path1358" />
         </g>
         <g id="g1360" transform="scale(1,-1)">
            <path d="m 689.129,-118.562 c 110.24681,2.0984 332.344,10.953 336.149,10.89401" style="fill:none;stroke:#000000;stroke-width:3.92308;stroke-linecap:round;stroke-linejoin:round;stroke-miterlimit:10;stroke-dasharray:none;stroke-opacity:1" id="path1362" sodipodi:nodetypes="cc" />
         </g>
         <g id="g1364" transform="scale(1,-1)">
            <path d="m 1021.473,-107.609 c -0.4455,-10.62672 2.1469,-21.18039 1.3236,-31.79382 -1.0893,-2.37864 -1.2505,-6.05414 2.5009,-5.34443 l 2.6515,-0.38975" style="fill:none;stroke:#000000;stroke-width:3.92308;stroke-linecap:round;stroke-linejoin:round;stroke-miterlimit:10;stroke-dasharray:none;stroke-opacity:1" id="path1366" sodipodi:nodetypes="cccc" />
         </g>
         <g id="g1368" transform="scale(1,-1)">
            <path d="m 1027.949,-145.137 c -2.2924,-43.73557 -4.6577,-87.48142 -8.6398,-131.10207 l -3.5742,-3.1525" style="fill:none;stroke:#000000;stroke-width:3.92308;stroke-linecap:round;stroke-linejoin:round;stroke-miterlimit:10;stroke-dasharray:none;stroke-opacity:1" id="path1370" sodipodi:nodetypes="ccc" />
         </g>
         <g id="g1372" transform="scale(1,-1)">
            <path d="m 690.66625,-301.60381 c 106.65942,6.56024 215.02881,10.06794 321.44275,19.99881 2.0665,0.67979 7.2002,5.36593 7.2002,5.36593" style="fill:none;stroke:#000000;stroke-width:3.92308;stroke-linecap:round;stroke-linejoin:round;stroke-miterlimit:10;stroke-dasharray:none;stroke-opacity:1" id="path1374" sodipodi:nodetypes="ccc" />
         </g>
         <g id="g1376" transform="scale(1,-1)">
            <path d="m 781.605,-239.023 0.004,-0.004 v -0.035 l -0.004,0.023 v -0.027 l 0.024,0.011 0.004,0.012 -0.008,-0.008 -0.004,-0.019 -0.004,-0.008 -0.004,0.004 v 0.023 l -0.004,0.028 0.004,0.019 0.008,0.02 0.004,0.062 0.004,0.067 0.023,0.05 0.028,0.047 0.015,0.051 0.028,0.043 0.015,0.051 0.008,0.062 0.012,0.071 0.027,0.054 0.012,0.067 c -2.828,20.839 -3.32,47.382 -2.727,69.554 l -0.082,0.086 -0.011,0.086 0.039,0.106 0.004,0.152 0.003,0.117 -0.023,0.059 0.031,0.054 0.039,0.047 v 0.043 l -0.023,0.043 -0.008,0.082 -0.008,0.09 0.031,0.082 -0.007,0.078 -0.02,0.071 0.043,-0.051 0.02,0.074" style="fill:none;stroke:#000000;stroke-width:3.92308;stroke-linecap:round;stroke-linejoin:round;stroke-miterlimit:10;stroke-dasharray:none;stroke-opacity:1" id="path1378" />
         </g>
         <g id="g1380" transform="scale(1,-1)">
            <path d="m 780.816,-167.82 -0.007,0.008 0.007,0.007 0.004,0.008 -0.011,0.035 0.039,0.008 0.054,-0.027 0.043,-0.012 0.09,0.008 h 0.106 l 0.078,-0.027 0.086,-0.004 0.078,-0.024 0.09,-0.012 0.086,0.016 0.101,-0.004 0.078,0.004 0.071,-0.019 0.121,0.027 0.105,0.012 0.102,-0.067 0.113,-0.019 0.102,-0.016 0.121,-0.016 0.136,0.012 0.102,-0.039 c 5.601,-0.129 46.953,2.512 66.844,5.715 l 0.183,0.019 0.067,0.016 0.058,0.039 0.063,0.027 0.054,0.004 0.094,0.012 0.012,0.008 0.012,0.027 0.109,-0.082 0.031,-0.047 0.012,0.039 -0.008,0.024 -0.023,0.019 -0.028,0.02 -0.023,0.012 -0.027,0.027 -0.024,0.027 -0.023,0.004 -0.032,-0.004 -0.042,-0.004 -0.032,0.004 0.067,0.008 0.027,-0.031 -0.051,-0.004 -0.023,-0.008 -0.024,-0.004 -0.004,0.016 -0.023,0.019 -0.008,0.02 0.008,-0.027 0.012,-0.004 -0.071,-0.032 -0.191,-0.023 0.027,-0.047 0.125,-0.008 0.036,-0.043 0.031,-0.031 0.027,-0.008 0.113,-0.015 0.086,-0.035 -0.039,0.042 0.012,-0.035 0.004,-0.074 0.004,-0.039" style="fill:none;stroke:#000000;stroke-width:3.92308;stroke-linecap:round;stroke-linejoin:round;stroke-miterlimit:10;stroke-dasharray:none;stroke-opacity:1" id="path1382" />
         </g>
         <g id="g1384" transform="scale(1,-1)">
            <path d="m 850.133,-162.418 c -0.339,-24.269 -0.653,-47.668 -0.391,-71.324" style="fill:none;stroke:#000000;stroke-width:3.92308;stroke-linecap:round;stroke-linejoin:round;stroke-miterlimit:10;stroke-dasharray:none;stroke-opacity:1" id="path1386" sodipodi:nodetypes="cc" />
         </g>
         <g id="g1388" transform="scale(1,-1)">
            <path d="m 782.352,-241.148 0.125,-0.012 0.085,-0.004 0.188,-0.008 0.16,-0.004 h 0.043 l 0.059,0.004 0.086,-0.016 0.117,-0.011 h 0.043 l -0.02,0.004 c 19.61,2.804 57.172,5.922 65.407,6.777 l 0.097,0.031 0.121,0.035 0.133,0.02 0.098,0.016 0.09,0.011 0.093,0.024 0.075,0.031 0.144,0.012 0.285,0.019 -0.019,0.008 -0.114,0.012 0.114,0.031 0.074,0.008 0.019,0.023 -0.019,0.016 0.019,0.012 0.071,0.023 0.047,0.027 0.023,0.004 0.008,0.024 h 0.199 l 0.152,-0.004 -0.191,0.012 -0.113,-0.004 0.027,-0.024 -0.035,-0.011 -0.008,0.027 -0.187,-0.039 -0.082,-0.078 0.101,0.007 -0.031,0.071 -0.043,-0.004 -0.031,0.004 0.019,0.004 -0.011,0.008 -0.012,0.031 0.008,0.031 0.007,-0.004 0.008,-0.008 -0.004,0.008 v -0.008 l -0.004,-0.027 0.02,-0.016 -0.043,0.008 -0.004,-0.035 0.039,0.004 h 0.16 l 0.004,0.004 -0.097,-0.012 -0.02,-0.008 -0.02,0.004 -0.003,0.008 -0.004,0.023 -0.157,0.008 -0.109,0.031 0.113,-0.011 0.028,-0.016 h 0.027 l 0.023,0.055 0.258,-0.035 0.133,-0.016 -0.133,-0.055 -0.015,-0.047 -0.032,0.032 -0.031,0.015 -0.047,0.012 -0.062,0.012 -0.008,0.027 0.016,0.031 0.003,-0.004 h 0.016 l 0.008,0.008 0.191,-0.011 0.078,0.05 -0.128,-0.019 -0.016,-0.059 -0.023,0.035 -0.051,-0.011 0.031,-0.004 0.09,-0.004 -0.047,-0.004 h -0.043 l -0.004,0.004 -0.004,0.015 -0.101,0.032 -0.028,0.066 0.082,0.035 0.016,0.016 0.023,0.027 0.02,0.028 0.039,0.019 0.019,0.008 0.008,0.035 0.004,0.031 v 0.016 l -0.012,0.016 h 0.051 l -0.039,0.019 -0.039,-0.004 0.027,-0.004 -0.054,0.043 -0.012,-0.027 -0.016,0.039 -0.125,0.012 -0.043,-0.02 0.036,0.059 -0.012,0.066 0.031,-0.027 0.012,-0.008 h 0.039 -0.008 l -0.058,-0.023 0.039,-0.008 -0.02,0.043 h -0.047 l -0.039,0.039 0.039,0.031 h 0.028 v 0.004 l -0.008,0.008 -0.008,0.011" style="fill:none;stroke:#000000;stroke-width:3.92308;stroke-linecap:round;stroke-linejoin:round;stroke-miterlimit:10;stroke-dasharray:none;stroke-opacity:1" id="path1390" />
         </g>
         <g id="g1392" transform="scale(1,-1)">
            <path d="m 799.75651,-166.99288 c 6.85715,-3.48691 12.7404,-13.29192 16.11049,-19.83112 2.11883,-6.85925 2.40383,-14.34365 0.98492,-21.35711 -1.7182,-6.86399 -4.63044,-13.42535 -9.49125,-18.65061 -4.04525,-5.04024 -9.05801,-8.75092 -14.77035,-11.62128 -0.39713,-0.23436 -3.67798,-2.30383 -4.17163,-2.08422" style="fill:none;stroke:#000000;stroke-width:3.92308;stroke-linecap:round;stroke-linejoin:round;stroke-miterlimit:10;stroke-dasharray:none;stroke-opacity:1" id="path1394" sodipodi:nodetypes="cccccc" />
         </g>
         <g id="g1396" transform="scale(1,-1)">
            <path d="m 779.81116,-175.992 c 9.29549,-1.04553 16.76777,-8.3303 17.85132,-16.24058 2.00469,-8.11502 -0.8742,-16.24643 -3.05152,-24.00645 -2.41348,-5.42915 -7.92357,-8.51702 -12.57596,-11.69097" style="fill:none;stroke:#000000;stroke-width:3.92308;stroke-linecap:round;stroke-linejoin:round;stroke-miterlimit:10;stroke-dasharray:none;stroke-opacity:1" id="path1398" sodipodi:nodetypes="cccc" />
         </g>
         <g id="g1400" transform="scale(1,-1)" />
         <g id="g1404" transform="scale(1,-1)">
            <path d="m 780.0497,-220.84043 c 0,0 11.99668,6.73001 11.87584,10.36868 -4.35762,1.47634 -1.99793,6.91341 -1.35154,8.64775 -5.06628,2.62202 5.69949,10.01223 -2.66917,10.88483 -4.90297,1.93796 -1.36126,7.74351 -8.68583,5.77117" style="fill:none;stroke:#000000;stroke-width:3.92308;stroke-linecap:round;stroke-linejoin:round;stroke-miterlimit:10;stroke-dasharray:none;stroke-opacity:1" id="path1406" sodipodi:nodetypes="ccccc" />
         </g>
         <g id="g1684" transform="scale(1,-1)">
            <path d="m 715.426,-134.945 c -2.3507,2.38681 -6.24084,2.44885 -9.24792,1.43029 -3.14221,-0.59095 -2.00708,-5.05323 0.70675,-5.0868 3.09925,-0.42934 6.47454,0.33681 9.36521,-1.10224 2.50619,-2.37942 -1.48457,-4.39876 -3.71814,-4.37195 -3.14132,-0.48688 -6.49869,-0.0554 -9.2859,1.52471" style="fill:none;stroke:#000000;stroke-width:1.30769;stroke-linecap:round;stroke-linejoin:round;stroke-miterlimit:10;stroke-dasharray:none;stroke-opacity:1" id="path1686" />
         </g>
         <g id="g1688" transform="scale(1,-1)">
            <path d="m 725.332,-134.30903 c -2.7282,-2.59324 -3.23991,-7.33519 1.2588,-8.85554 2.45391,-0.31224 5.67146,-0.81765 7.26651,1.65329 1.85035,2.42592 0.55499,6.46319 -2.5507,7.01118 -1.96299,0.35418 -3.9898,0.39787 -5.97461,0.19107" style="fill:none;stroke:#000000;stroke-width:1.30769;stroke-linecap:round;stroke-linejoin:round;stroke-miterlimit:10;stroke-dasharray:none;stroke-opacity:1" id="path1690" sodipodi:nodetypes="ccccc" />
         </g>
         <g id="g1692" transform="scale(1,-1)">
            <path d="m 741.832,-142.348 c 0.38064,2.50709 -0.73256,5.02721 -0.20678,7.51902 1.80143,1.57511 4.0055,-1.634 5.90113,-2.2036 1.53789,-0.63405 3.89936,-4.09482 5.18116,-2.48125 -0.2774,1.96316 -1.42937,3.84556 -0.87935,5.8888" style="fill:none;stroke:#000000;stroke-width:1.30769;stroke-linecap:round;stroke-linejoin:round;stroke-miterlimit:10;stroke-dasharray:none;stroke-opacity:1" id="path1694" />
         </g>
         <g id="g1696" transform="scale(1,-1)">
            <path d="m 761.066,-133.809 c 0,0 2.40747,-2.32492 4.02,-3.113" style="fill:none;stroke:#000000;stroke-width:1.30769;stroke-linecap:round;stroke-linejoin:round;stroke-miterlimit:10;stroke-dasharray:none;stroke-opacity:1" id="path1698" sodipodi:nodetypes="cc" />
         </g>
         <g id="g1700" transform="scale(1,-1)">
            <path d="m 769.918,-132.953 c -1.99794,-1.34369 -4.156,-3.481 -4.832,-3.969" style="fill:none;stroke:#000000;stroke-width:1.30769;stroke-linecap:round;stroke-linejoin:round;stroke-miterlimit:10;stroke-dasharray:none;stroke-opacity:1" id="path1702" sodipodi:nodetypes="cc" />
         </g>
         <g id="g1704" transform="scale(1,-1)">
            <path d="m 765.086,-136.922 c -0.32077,-1.41101 0.23976,-2.8726 -0.172,-4.273" style="fill:none;stroke:#000000;stroke-width:1.30769;stroke-linecap:round;stroke-linejoin:round;stroke-miterlimit:10;stroke-dasharray:none;stroke-opacity:1" id="path1706" />
         </g>
         <g id="g1708" transform="scale(1,-1)">
            <path d="m 927.133,-147.32 h 0.008 l 0.078,0.031 0.07,0.035 0.066,-0.019 0.047,-0.008 0.153,-0.008" style="fill:none;stroke:#000000;stroke-width:1.30769;stroke-linecap:round;stroke-linejoin:round;stroke-miterlimit:10;stroke-dasharray:none;stroke-opacity:1" id="path1710" />
         </g>
         <g id="g1712" transform="scale(1,-1)">
            <path d="m 926.887,-148.125 c 0,0 2.43976,15.96647 6.902,21.754" style="fill:none;stroke:#000000;stroke-width:1.30769;stroke-linecap:round;stroke-linejoin:round;stroke-miterlimit:10;stroke-dasharray:none;stroke-opacity:1" id="path1714" sodipodi:nodetypes="cc" />
         </g>
         <g id="g1716" transform="scale(1,-1)">
            <path d="m 933.789,-126.371 c -0.82805,-0.43346 77.88,2.96098 77.88,2.96098" style="fill:none;stroke:#000000;stroke-width:1.30769;stroke-linecap:round;stroke-linejoin:round;stroke-miterlimit:10;stroke-dasharray:none;stroke-opacity:1" id="path1718" sodipodi:nodetypes="cc" />
         </g>
         <g id="g1720" transform="scale(1,-1)">
            <path d="m 926.887,-148.125 c 25.9044,3.32475 54.49108,3.58086 80.472,6.02" style="fill:none;stroke:#000000;stroke-width:1.30769;stroke-linecap:round;stroke-linejoin:round;stroke-miterlimit:10;stroke-dasharray:none;stroke-opacity:1" id="path1722" sodipodi:nodetypes="cc" />
         </g>
         <g id="g1724" transform="scale(1,-1)">
            <path d="m 1007.359,-142.105 c 1.6182,6.19001 2.3419,12.59287 4.31,18.69498" style="fill:none;stroke:#000000;stroke-width:1.30769;stroke-linecap:round;stroke-linejoin:round;stroke-miterlimit:10;stroke-dasharray:none;stroke-opacity:1" id="path1726" sodipodi:nodetypes="cc" />
         </g>
         <g id="g1728" transform="scale(1,-1)">
            <path d="m 936.969,-141.80503 c 0,0 1.37254,6.57151 2.871,10.17603" style="fill:none;stroke:#000000;stroke-width:1.30769;stroke-linecap:round;stroke-linejoin:round;stroke-miterlimit:10;stroke-dasharray:none;stroke-opacity:1" id="path1730" sodipodi:nodetypes="cc" />
         </g>
         <g id="g1732" transform="scale(1,-1)">
            <path d="m 939.84,-131.629 c 2.66528,-0.32307 6.59142,-0.2924 8.22431,-2.86361 1.42886,-2.66485 -0.88915,-5.51437 -3.32766,-6.47065 -2.40455,-0.59588 -5.41474,-1.65682 -7.76765,-0.84177" style="fill:none;stroke:#000000;stroke-width:1.30769;stroke-linecap:round;stroke-linejoin:round;stroke-miterlimit:10;stroke-dasharray:none;stroke-opacity:1" id="path1734" sodipodi:nodetypes="cccc" />
         </g>
         <g id="g1736" transform="scale(1,-1)">
            <path d="m 951.887,-132.609 c 1.57872,-1.38208 1.93847,-3.65436 2.48612,-5.59344 0.29775,-1.08102 0.32318,-5.62021 1.84991,-3.00617 1.59757,2.97142 5.99235,9.60617 5.99235,9.60617" style="fill:none;stroke:#000000;stroke-width:1.30769;stroke-linecap:round;stroke-linejoin:round;stroke-miterlimit:10;stroke-dasharray:none;stroke-opacity:1" id="path1738" sodipodi:nodetypes="cccc" />
         </g>
         <g id="g1740" transform="scale(1,-1)">
            <path d="m 973.172,-130.742 c -2.00432,1.76275 -4.8537,0.0508 -6.30172,-1.65266 -2.31178,-1.88268 -3.29331,-5.57796 -1.37893,-8.05598 1.34665,-1.15098 3.97139,-1.01291 5.32067,0.0637" style="fill:none;stroke:#000000;stroke-width:1.30769;stroke-linecap:round;stroke-linejoin:round;stroke-miterlimit:10;stroke-dasharray:none;stroke-opacity:1" id="path1742" />
         </g>
         <g id="g1744" transform="scale(1,-1)">
            <path d="m 974.242,-140.137 c 1.8589,2.56372 3.03024,5.53062 4.62501,8.25096 0,0 2.1438,3.98245 2.77479,1.30607 0.64128,-2.74385 1.05854,-5.55893 1.39348,-8.35467 -0.0112,-0.15071 0.15368,-2.04819 -0.11323,-1.31137" style="fill:none;stroke:#000000;stroke-width:1.30769;stroke-linecap:round;stroke-linejoin:round;stroke-miterlimit:10;stroke-dasharray:none;stroke-opacity:1" id="path1746" sodipodi:nodetypes="ccccc" />
         </g>
         <g id="g1748" transform="scale(1,-1)">
            <path d="m 976.94047,-136.188 c 0,0 4.47154,1.19195 5.31224,0.56449" style="fill:none;stroke:#000000;stroke-width:1.30769;stroke-linecap:round;stroke-linejoin:round;stroke-miterlimit:10;stroke-dasharray:none;stroke-opacity:1" id="path1750" sodipodi:nodetypes="cc" />
         </g>
         <g id="g1752" transform="scale(1,-1)">
            <path d="m 985.805,-140.863 c 1.42315,3.06489 1.34777,6.56331 2.61155,9.68021 0.14509,0.57083 0.0849,1.49569 0.63539,1.76417 0.34897,-0.62475 0.46434,-1.37334 0.7758,-2.03032 0.797,-2.16877 1.44106,-4.3931 2.32257,-6.53076 1.9987,1.93259 2.39866,4.95338 4.44235,6.85591 0.6549,0.6735 1.19948,1.53104 2.08465,1.9188 0.84091,0.0681 0.64551,-1.10048 0.76569,-1.64463 0.4326,-3.31848 -0.74965,-5.68756 -0.004,-8.9842" style="fill:none;stroke:#000000;stroke-width:1.30769;stroke-linecap:round;stroke-linejoin:round;stroke-miterlimit:10;stroke-dasharray:none;stroke-opacity:1" id="path1754" sodipodi:nodetypes="ccccccccc" />
         </g>
         <g id="g1756" transform="scale(1,-1)">
            <path d="m 703.051,-166.164 c 22.62182,0.5603 45.1981,2.17794 67.793,3.332" style="fill:none;stroke:#000000;stroke-width:1.30769;stroke-linecap:round;stroke-linejoin:round;stroke-miterlimit:10;stroke-dasharray:none;stroke-opacity:1" id="path1758" />
         </g>
         <g id="g1760" transform="scale(1,-1)">
            <path d="m 703.84,-289.691 c -4.1111,40.33216 -3.38442,80.96117 -1.92596,121.414" style="fill:none;stroke:#000000;stroke-width:1.30769;stroke-linecap:round;stroke-linejoin:round;stroke-miterlimit:10;stroke-dasharray:none;stroke-opacity:1" id="path1762" />
         </g>
         <g id="g1764" transform="scale(1,-1)">
            <path d="m 866.848,-159.871 c 48.08678,3.18192 96.19127,6.55981 144.395,7.234" style="fill:none;stroke:#000000;stroke-width:1.30769;stroke-linecap:round;stroke-linejoin:round;stroke-miterlimit:10;stroke-dasharray:none;stroke-opacity:1" id="path1766" />
         </g>
         <g id="g1768" transform="scale(1,-1)">
            <path d="m 1011.098,-270.926 4.612,118.492" style="fill:none;stroke:#000000;stroke-width:1.30769;stroke-linecap:round;stroke-linejoin:round;stroke-miterlimit:10;stroke-dasharray:none;stroke-opacity:1" id="path1770" sodipodi:nodetypes="cc" />
         </g>
         <g id="g1772" transform="scale(1,-1)">
            <path d="m 864.02,-164.113 c 0.91605,-40.16294 -3.65758,-80.24659 -2.29,-120.41" style="fill:none;stroke:#000000;stroke-width:1.30769;stroke-linecap:round;stroke-linejoin:round;stroke-miterlimit:10;stroke-dasharray:none;stroke-opacity:1" id="path1774" />
         </g>
         <g id="g1776" transform="scale(1,-1)">
            <path d="m 756.969,-167.586 c 1.52483,-39.8584 -1.61052,-79.7559 0.539,-119.602" style="fill:none;stroke:#000000;stroke-width:1.30769;stroke-linecap:round;stroke-linejoin:round;stroke-miterlimit:10;stroke-dasharray:none;stroke-opacity:1" id="path1778" />
         </g>
         <g id="g1780" transform="scale(1,-1)">
            <path d="m 710.914,-247.945 c 10.64531,-0.10596 21.32473,0.12309 31.891,1.527" style="fill:none;stroke:#000000;stroke-width:1.30769;stroke-linecap:round;stroke-linejoin:round;stroke-miterlimit:10;stroke-dasharray:none;stroke-opacity:1" id="path1782" />
         </g>
         <g id="g1784" transform="scale(1,-1)">
            <path d="m 770.41,-248.816 c 26.88425,1.55901 53.6974,4.10119 80.535,6.281" style="fill:none;stroke:#000000;stroke-width:1.30769;stroke-linecap:round;stroke-linejoin:round;stroke-miterlimit:10;stroke-dasharray:none;stroke-opacity:1" id="path1786" />
         </g>
         <g id="g1788" transform="scale(1,-1)">
            <path d="m 875.918,-196.133 c 43.12509,1.94835 86.19558,5.96823 129.404,5.317" style="fill:none;stroke:#000000;stroke-width:1.30769;stroke-linecap:round;stroke-linejoin:round;stroke-miterlimit:10;stroke-dasharray:none;stroke-opacity:1" id="path1790" />
         </g>
         <g id="g1792" transform="scale(1,-1)">
            <path d="m 873.578,-236.73 c 43.57008,2.28995 87.15727,4.25172 130.717,6.738" style="fill:none;stroke:#000000;stroke-width:1.30769;stroke-linecap:round;stroke-linejoin:round;stroke-miterlimit:10;stroke-dasharray:none;stroke-opacity:1" id="path1794" />
         </g>
         <g id="g1796" transform="scale(1,-1)">
            <path d="m 902.082,-161.84 c -0.54183,-33.97069 -3.92556,-68.07068 0.16,-101.953" style="fill:none;stroke:#000000;stroke-width:1.30769;stroke-linecap:round;stroke-linejoin:round;stroke-miterlimit:10;stroke-dasharray:none;stroke-opacity:1" id="path1798" />
         </g>
         <g id="g1800" transform="scale(1,-1)">
            <path d="m 938.41,-161.254 c 0.35413,-35.8675 1.946,-71.71397 1.969,-107.586" style="fill:none;stroke:#000000;stroke-width:1.30769;stroke-linecap:round;stroke-linejoin:round;stroke-miterlimit:10;stroke-dasharray:none;stroke-opacity:1" id="path1802" />
         </g>
         <g id="g1804" transform="scale(1,-1)">
            <path d="m 977.988,-162.441 c -3.56259,-37.95764 -4.34112,-76.15429 -2.88999,-114.243" style="fill:none;stroke:#000000;stroke-width:1.30769;stroke-linecap:round;stroke-linejoin:round;stroke-miterlimit:10;stroke-dasharray:none;stroke-opacity:1" id="path1806" />
         </g>
         <g id="g1808" transform="scale(1,-1)">
            <path d="m 871.363,-278.492 c 29.53239,2.51631 59.01717,5.55444 88.492,8.664" style="fill:none;stroke:#000000;stroke-width:1.30769;stroke-linecap:round;stroke-linejoin:round;stroke-miterlimit:10;stroke-dasharray:none;stroke-opacity:1" id="path1810" />
         </g>
         <g id="g1812" transform="scale(1,-1)">
            <path d="m 984.781,-270.137 c 6.9978,0.61323 13.99612,1.2473 21.013,1.602" style="fill:none;stroke:#000000;stroke-width:1.30769;stroke-linecap:round;stroke-linejoin:round;stroke-miterlimit:10;stroke-dasharray:none;stroke-opacity:1" id="path1814" />
         </g>
         <g id="g1816" transform="scale(1,-1)">
            <path d="m 786.363,-282.023 c 22.97602,-0.43478 45.74931,3.45406 68.688,3.972" style="fill:none;stroke:#000000;stroke-width:1.30769;stroke-linecap:round;stroke-linejoin:round;stroke-miterlimit:10;stroke-dasharray:none;stroke-opacity:1" id="path1818" />
         </g>
         <g id="g1820" transform="scale(1,-1)">
            <path d="m 823.066,-253.367 c 2.24402,-12.22907 -0.69571,-24.6882 0.973,-36.957" style="fill:none;stroke:#000000;stroke-width:1.30769;stroke-linecap:round;stroke-linejoin:round;stroke-miterlimit:10;stroke-dasharray:none;stroke-opacity:1" id="path1822" />
         </g>
         <g id="g1824" transform="scale(1,-1)">
            <path d="m 782.012,-256.406 c 3.27729,-11.87914 1.02436,-24.27297 1.394,-36.375" style="fill:none;stroke:#000000;stroke-width:1.30769;stroke-linecap:round;stroke-linejoin:round;stroke-miterlimit:10;stroke-dasharray:none;stroke-opacity:1" id="path1826" />
         </g>
      </g>
   </g>
</svg>
