<?xml version="1.0" encoding="UTF-8" standalone="no"?>
<!-- Created by Ashley Blewer - This work is licensed under a Creative Commons Attribution 4.0 International License -->

<svg width="544" height="480" viewBox="0 0 143.93334 127" version="1.1" id="svg2490" inkscape:version="1.1.2 (08b2f3d93c, 2022-04-05)" sodipodi:docname="1996-dvd-6.svg"
   xmlns:inkscape="http://www.inkscape.org/namespaces/inkscape"
   xmlns:sodipodi="http://sodipodi.sourceforge.net/DTD/sodipodi-0.dtd"
   xmlns="http://www.w3.org/2000/svg"
   xmlns:svg="http://www.w3.org/2000/svg">
   <sodipodi:namedview id="namedview2492" pagecolor="#ffffff" bordercolor="#666666" borderopacity="1.0" inkscape:pageshadow="2" inkscape:pageopacity="0.0" inkscape:pagecheckerboard="0" inkscape:document-units="mm" showgrid="false" units="px" inkscape:zoom="0.90583674" inkscape:cx="279.29978" inkscape:cy="194.84747" inkscape:window-width="1848" inkscape:window-height="1136" inkscape:window-x="72" inkscape:window-y="27" inkscape:window-maximized="1" inkscape:current-layer="layer1" />
   <defs id="defs2487" />
   <g inkscape:label="Layer 1" inkscape:groupmode="layer" id="layer1">
      <g id="g11360" transform="matrix(0.24555382,0,0,0.24555382,-5.7135237,-102.19681)">
         <g id="g1280" transform="matrix(1,0,0,-1,8.4263611,881.81873)">
            <g id="g1282">
               <path d="m 29.593002,179.17532 c 8.123773,-4.01613 16.481133,-7.55664 24.491345,-11.80019 10.508304,-4.64789 20.195089,-10.88683 30.379284,-16.16625 1.957229,-1.82476 4.758779,-2.05085 7.070844,-3.20455" style="fill:none;stroke:#000000;stroke-width:2.61538;stroke-linecap:round;stroke-linejoin:round;stroke-miterlimit:10;stroke-dasharray:none;stroke-opacity:1" id="path1284" />
            </g>
         </g>
         <g id="g1286" transform="matrix(1,0,0,-1,8.4263611,881.81873)">
            <g id="g1288">
               <path d="m 91.142339,147.99093 c 3.577536,0.67202 6.537266,1.67045 6.670346,5.36717 1.026204,3.66378 2.611195,7.2219 2.714125,11.08423 0.32141,7.34218 -0.561301,14.18405 -1.865416,20.87481 -1.081519,4.14273 -1.657749,8.41444 -3.153871,12.4459 -1.412894,4.57376 -6.23345,6.84342 -8.740334,10.86049" style="fill:none;stroke:#000000;stroke-width:2.61538;stroke-linecap:round;stroke-linejoin:round;stroke-miterlimit:10;stroke-dasharray:none;stroke-opacity:1" id="path1290" sodipodi:nodetypes="cccccc" />
            </g>
         </g>
         <g id="g1292" transform="matrix(1,0,0,-1,8.4263611,881.81873)">
            <g id="g1294">
               <path d="m 86.767189,208.62353 2.145595,-57.31832" style="fill:none;stroke:#000000;stroke-width:2.61538;stroke-linecap:round;stroke-linejoin:round;stroke-miterlimit:10;stroke-dasharray:none;stroke-opacity:1" id="path1296" sodipodi:nodetypes="cc" />
            </g>
         </g>
         <g id="g1298" transform="matrix(1,0,0,-1,8.4263611,881.81873)">
            <g id="g1300">
               <path d="m 29.593002,179.17532 c -0.178761,0.29363 -2.031822,41.90957 -2.031822,41.90957 0.0243,0.37853 0.167242,0.73291 0.332821,1.06811" style="fill:none;stroke:#000000;stroke-width:2.61538;stroke-linecap:round;stroke-linejoin:round;stroke-miterlimit:10;stroke-dasharray:none;stroke-opacity:1" id="path1302" sodipodi:nodetypes="ccc" />
            </g>
         </g>
         <g id="g1304" transform="matrix(1,0,0,-1,8.4263611,881.81873)">
            <g id="g1306">
               <path d="m 27.894001,222.153 c 0,0 58.873188,-13.52947 58.69791,-13.62337" style="fill:none;stroke:#000000;stroke-width:2.61538;stroke-linecap:round;stroke-linejoin:round;stroke-miterlimit:10;stroke-dasharray:none;stroke-opacity:1" id="path1308" sodipodi:nodetypes="cc" />
            </g>
         </g>
         <g id="g1310" transform="matrix(1,0,0,-1,8.4263611,881.81873)">
            <g id="g1312">
               <path d="m 30.175894,221.74408 c 179.226566,-3.60226 356.117586,7.33095 526.726576,-4.43456" style="fill:none;stroke:#000000;stroke-width:2.61538;stroke-linecap:round;stroke-linejoin:round;stroke-miterlimit:10;stroke-dasharray:none;stroke-opacity:1" id="path1314" sodipodi:nodetypes="cc" />
            </g>
         </g>
         <g id="g1316" transform="matrix(1,0,0,-1,8.4263611,881.81873)">
            <g id="g1318">
               <path d="m 86.767189,208.62353 470.726461,7.62893" style="fill:none;stroke:#000000;stroke-width:2.61538;stroke-linecap:round;stroke-linejoin:round;stroke-miterlimit:10;stroke-dasharray:none;stroke-opacity:1" id="path1320" sodipodi:nodetypes="cc" />
            </g>
         </g>
         <g id="g1322" transform="matrix(1,0,0,-1,8.4263611,881.81873)">
            <g id="g1324">
               <path d="m 556.90247,217.30952 c 5.33194,-2.82835 11.25133,-6.26999 14.96583,-10.25572 2.50897,-2.58421 2.88567,-6.42921 1.89672,-9.75965 -0.70785,-4.00724 -2.3249,-7.79639 -3.82837,-11.52495 -1.91901,-2.97765 -5.03855,-4.70356 -8.01467,-6.44398 -0.56586,-0.29483 -1.18381,-0.459 -1.76237,-0.72386" style="fill:none;stroke:#000000;stroke-width:2.61538;stroke-linecap:round;stroke-linejoin:round;stroke-miterlimit:10;stroke-dasharray:none;stroke-opacity:1" id="path1326" sodipodi:nodetypes="cccccc" />
            </g>
         </g>
         <g id="g1328" transform="matrix(1,0,0,-1,8.4263611,881.81873)">
            <g id="g1330">
               <path d="m 91.142339,147.99093 c 155.061111,3.72381 314.709411,15.92222 469.017271,30.61043" style="fill:none;stroke:#000000;stroke-width:2.61538;stroke-linecap:round;stroke-linejoin:round;stroke-miterlimit:10;stroke-dasharray:none;stroke-opacity:1" id="path1332" sodipodi:nodetypes="cc" />
            </g>
         </g>
         <g id="g1334" transform="matrix(1,0,0,-1,8.4263611,881.81873)">
            <g id="g1336">
               <path d="m 100.33073,157.06245 c 0,0 469.60592,28.70675 469.54214,29.35095" style="fill:none;stroke:#000000;stroke-width:2.61538;stroke-linecap:round;stroke-linejoin:round;stroke-miterlimit:10;stroke-dasharray:none;stroke-opacity:1" id="path1338" sodipodi:nodetypes="cc" />
            </g>
         </g>
         <g id="g1340" transform="matrix(1,0,0,-1,8.4263611,881.81873)">
            <g id="g1342">
               <path d="m 98.671463,193.28581 c 154.623497,8.75191 309.606287,7.12701 464.283497,14.51909 l 3.21237,0.0526 3.21249,0.0443" style="fill:none;stroke:#000000;stroke-width:2.61538;stroke-linecap:round;stroke-linejoin:round;stroke-miterlimit:10;stroke-dasharray:none;stroke-opacity:1" id="path1344" />
            </g>
         </g>
         <g id="g1346" transform="matrix(1,0,0,-1,8.4263611,881.81873)">
            <g id="g1348">
               <path d="m 107.36007,182.06279 51.26135,2.79183" style="fill:none;stroke:#000000;stroke-width:1.30769;stroke-linecap:round;stroke-linejoin:round;stroke-miterlimit:10;stroke-dasharray:none;stroke-opacity:1" id="path1350" sodipodi:nodetypes="cc" />
            </g>
         </g>
         <g id="g1352" transform="matrix(1,0,0,-1,8.4263611,881.81873)">
            <g id="g1354">
               <path d="m 158.62142,184.85462 0.35539,-10.66705" style="fill:none;stroke:#000000;stroke-width:1.30769;stroke-linecap:round;stroke-linejoin:round;stroke-miterlimit:10;stroke-dasharray:none;stroke-opacity:1" id="path1356" sodipodi:nodetypes="cc" />
            </g>
         </g>
         <g id="g1358" transform="matrix(1,0,0,-1,8.4263611,881.81873)">
            <g id="g1360">
               <path d="m 107.36007,182.06279 0.56876,-10.12866" style="fill:none;stroke:#000000;stroke-width:1.30769;stroke-linecap:round;stroke-linejoin:round;stroke-miterlimit:10;stroke-dasharray:none;stroke-opacity:1" id="path1362" sodipodi:nodetypes="cc" />
            </g>
         </g>
         <g id="g1364" transform="matrix(1,0,0,-1,8.4263611,881.81873)">
            <g id="g1366">
               <path d="m 107.92883,171.93413 51.04798,2.25344" style="fill:none;stroke:#000000;stroke-width:1.30769;stroke-linecap:round;stroke-linejoin:round;stroke-miterlimit:10;stroke-dasharray:none;stroke-opacity:1" id="path1368" sodipodi:nodetypes="cc" />
            </g>
         </g>
         <g id="g1370" transform="matrix(1,0,0,-1,8.4263611,881.81873)">
            <g id="g1372">
               <path d="m 172.46541,179.34149 c -1.03824,-0.26911 -0.65629,-1.6874 -0.28813,-2.38074 0.47682,-1.22509 1.91487,-1.30757 2.98411,-0.89906 1.37093,0.16791 2.06266,2.0363 0.75674,2.80645 0.004,0.2939 -1.84707,0.39744 -1.0932,0.17268" style="fill:none;stroke:#000000;stroke-width:1.30769;stroke-linecap:round;stroke-linejoin:round;stroke-miterlimit:10;stroke-dasharray:none;stroke-opacity:1" id="path1374" />
            </g>
         </g>
         <g id="g1376" transform="matrix(1,0,0,-1,8.4263611,881.81873)">
            <g id="g1378">
               <path d="m 173.35878,178.20828 c 0.69367,0.6103 0.80667,1.5892 0.62223,2.44628 0.088,0.43109 -0.40341,1.40485 0.29686,1.37076" style="fill:none;stroke:#000000;stroke-width:1.30769;stroke-linecap:round;stroke-linejoin:round;stroke-miterlimit:10;stroke-dasharray:none;stroke-opacity:1" id="path1380" />
            </g>
         </g>
         <g id="g1382" transform="matrix(1,0,0,-1,8.4263611,881.81873)">
            <g id="g1384">
               <path d="m 184.51041,178.41153 3.80175,1.25705 3.99611,0.65922 6.10514,0.63978 5.90672,-0.14548" style="fill:none;stroke:#000000;stroke-width:1.30769;stroke-linecap:round;stroke-linejoin:round;stroke-miterlimit:10;stroke-dasharray:none;stroke-opacity:1" id="path1386" />
            </g>
         </g>
         <g id="g1388" transform="matrix(1,0,0,-1,8.4263611,881.81873)">
            <g id="g1390">
               <path d="m 289.70908,182.14064 c 11.36159,0.92166 22.66897,1.80833 34.05011,2.37664" style="fill:none;stroke:#000000;stroke-width:1.30769;stroke-linecap:round;stroke-linejoin:round;stroke-miterlimit:10;stroke-dasharray:none;stroke-opacity:1" id="path1392" sodipodi:nodetypes="cc" />
            </g>
         </g>
         <g id="g1394" transform="matrix(1,0,0,-1,8.4263611,881.81873)">
            <g id="g1396">
               <path d="m 394.11502,188.30051 c 4.27494,0.13526 8.51281,0.85915 12.79401,0.86816" style="fill:none;stroke:#000000;stroke-width:1.30769;stroke-linecap:round;stroke-linejoin:round;stroke-miterlimit:10;stroke-dasharray:none;stroke-opacity:1" id="path1398" />
            </g>
         </g>
         <g id="g1400" transform="matrix(1,0,0,-1,8.4263611,881.81873)">
            <g id="g1402">
               <path d="m 214.57016,194.38609 c -0.37222,-2.1297 -0.8851,-4.3972 -0.1726,-6.5082 1.52434,-3.2775 1.0045,-6.97869 0.94156,-10.46887 0.21458,-1.00159 0.58695,-2.38082 -0.66743,-2.76465 -0.85117,-1.42834 0.24615,-2.96419 0.38926,-4.42453 -0.0668,-1.7658 0.46479,-3.622 -0.2431,-5.31432" style="fill:none;stroke:#000000;stroke-width:1.30769;stroke-linecap:round;stroke-linejoin:round;stroke-miterlimit:10;stroke-dasharray:none;stroke-opacity:1" id="path1404" />
            </g>
         </g>
         <g id="g1406" transform="matrix(1,0,0,-1,8.4263611,881.81873)">
            <g id="g1408">
               <path d="m 384.85879,201.96454 -0.28871,-8.52649 c 3.20744,0.14429 2.06448,-9.84733 1.56326,-10.12327 -0.55204,-0.1149 -1.05349,-0.80045 -1.05349,-0.80045 l 0.88045,-5.84446" style="fill:none;stroke:#000000;stroke-width:1.30769;stroke-linecap:round;stroke-linejoin:round;stroke-miterlimit:10;stroke-dasharray:none;stroke-opacity:1" id="path1410" sodipodi:nodetypes="ccccc" />
            </g>
         </g>
         <g id="g1412" transform="matrix(1,0,0,-1,8.4263611,881.81873)">
            <g id="g1414">
               <path d="m 449.8408,198.40218 c 12.50068,1.68571 27.22147,2.00733 34.61761,1.29146 2.18935,-0.11577 5.88603,-1.26832 6.79951,-2.9564 0.38259,-1.96579 0.94063,-3.41374 0.6623,-5.33863 0.0805,-2.81501 -2.03049,-4.24601 -4.43625,-4.52267 l -39.58536,-1.6761 c -1.76444,0.10643 -3.36937,1.04492 -4.10018,2.69052 -1.04479,1.93536 -1.66285,4.43683 -0.71744,6.5169 1.40063,2.37637 4.23277,3.34271 6.75981,3.99492 0.48696,0.0902 0.98124,0.14305 1.47658,0.15002" style="fill:none;stroke:#000000;stroke-width:1.30769;stroke-linecap:round;stroke-linejoin:round;stroke-miterlimit:10;stroke-dasharray:none;stroke-opacity:1" id="path1416" sodipodi:nodetypes="cccccccccc" />
            </g>
         </g>
         <g id="g1418" transform="matrix(1,0,0,-1,8.4263611,881.81873)">
            <g id="g1420">
               <path d="m 502.88565,193.09166 c 0.23091,-0.40062 -0.49683,-0.43721 -0.32447,-0.003 -0.34547,0.2243 -0.0805,0.70145 0.28881,0.56662 0.0197,-0.0434 -0.0251,-0.0848 -0.049,-0.11458" style="fill:none;stroke:#000000;stroke-width:1.30769;stroke-linecap:round;stroke-linejoin:round;stroke-miterlimit:10;stroke-dasharray:none;stroke-opacity:1" id="path1422" sodipodi:nodetypes="cccccc" />
            </g>
         </g>
         <g id="g1424" transform="matrix(1,0,0,-1,8.4263611,881.81873)">
            <g id="g1426">
               <path d="m 516.71063,189.70709 c -3.18492,0.61569 -3.50097,5.60756 -1.08938,7.28123" style="fill:none;stroke:#000000;stroke-width:1.30769;stroke-linecap:round;stroke-linejoin:round;stroke-miterlimit:10;stroke-dasharray:none;stroke-opacity:1" id="path1428" />
            </g>
         </g>
         <g id="g1430" transform="matrix(1,0,0,-1,8.4263611,881.81873)">
            <g id="g1432">
               <path d="m 515.62125,196.98832 28.34945,1.4445" style="fill:none;stroke:#000000;stroke-width:1.30769;stroke-linecap:round;stroke-linejoin:round;stroke-miterlimit:10;stroke-dasharray:none;stroke-opacity:1" id="path1434" sodipodi:nodetypes="cc" />
            </g>
         </g>
         <g id="g1436" transform="matrix(1,0,0,-1,8.4263611,881.81873)">
            <g id="g1438">
               <path d="m 543.9707,198.43282 c 2.0137,-0.44695 4.84662,-1.53156 4.75223,-4.00506 -0.24263,-1.51469 -1.72413,-2.47721 -3.09755,-2.86404" style="fill:none;stroke:#000000;stroke-width:1.30769;stroke-linecap:round;stroke-linejoin:round;stroke-miterlimit:10;stroke-dasharray:none;stroke-opacity:1" id="path1440" />
            </g>
         </g>
         <g id="g1442" transform="matrix(1,0,0,-1,8.4263611,881.81873)">
            <g id="g1444">
               <path d="m 516.71063,189.70709 28.91475,1.85663" style="fill:none;stroke:#000000;stroke-width:1.30769;stroke-linecap:round;stroke-linejoin:round;stroke-miterlimit:10;stroke-dasharray:none;stroke-opacity:1" id="path1446" sodipodi:nodetypes="cc" />
            </g>
         </g>
         <g id="g1448" transform="matrix(1,0,0,-1,8.4263611,881.81873)">
            <g id="g1450">
               <path d="m 531.19537,197.59185 0.30491,-6.46262" style="fill:none;stroke:#000000;stroke-width:1.30769;stroke-linecap:round;stroke-linejoin:round;stroke-miterlimit:10;stroke-dasharray:none;stroke-opacity:1" id="path1452" sodipodi:nodetypes="cc" />
            </g>
         </g>
         <g id="g1454" transform="matrix(1,0,0,-1,8.4263611,881.81873)">
            <g id="g1456">
               <path d="m 565.263,194.03168 -0.63849,3.22837 c -0.01,0.18935 -0.0537,0.55268 0.21087,0.5624 l 3.35833,-0.38202 c 0.28278,-0.0747 -0.0992,-0.25183 -0.0382,-0.43708 0.0382,0.43708 -0.54122,-2.58891 -0.54122,-2.58891" style="fill:none;stroke:#000000;stroke-width:1.30769;stroke-linecap:round;stroke-linejoin:round;stroke-miterlimit:10;stroke-dasharray:none;stroke-opacity:1" id="path1458" sodipodi:nodetypes="cccccc" />
            </g>
         </g>
         <g id="g1460" transform="matrix(1,0,0,-1,8.4263611,881.81873)">
            <g id="g1462">
               <path d="m 565.263,194.03168 2.35136,0.38275" style="fill:none;stroke:#000000;stroke-width:1.30769;stroke-linecap:round;stroke-linejoin:round;stroke-miterlimit:10;stroke-dasharray:none;stroke-opacity:1" id="path1464" sodipodi:nodetypes="cc" />
            </g>
         </g>
         <g id="g1466" transform="matrix(1,0,0,-1,8.4263611,881.81873)">
            <g id="g1468">
               <path d="m 519.04626,209.80904 c 0,0 5.74855,1.03911 8.67672,1.11524 3.4179,0.21377 6.8358,0.42755 10.2537,0.64132" style="fill:none;stroke:#000000;stroke-width:1.30769;stroke-linecap:round;stroke-linejoin:round;stroke-miterlimit:10;stroke-dasharray:none;stroke-opacity:1" id="path1470" sodipodi:nodetypes="ccc" />
            </g>
         </g>
         <g id="g1472" transform="matrix(1,0,0,-1,8.4263611,881.81873)">
            <g id="g1474">
               <path d="m 542.42371,212.14786 6.06347,0.12917" style="fill:none;stroke:#000000;stroke-width:1.30769;stroke-linecap:round;stroke-linejoin:round;stroke-miterlimit:10;stroke-dasharray:none;stroke-opacity:1" id="path1476" sodipodi:nodetypes="cc" />
            </g>
         </g>
         <g id="g1478" transform="matrix(1,0,0,-1,8.4263611,881.81873)">
            <g id="g1480">
               <path d="m 554.76886,210.88817 c 1.31362,0.0532 2.62724,0.10643 3.94086,0.15964" style="fill:none;stroke:#000000;stroke-width:1.30769;stroke-linecap:round;stroke-linejoin:round;stroke-miterlimit:10;stroke-dasharray:none;stroke-opacity:1" id="path1482" />
            </g>
         </g>
         <g id="g1484" transform="matrix(1,0,0,-1,8.4263611,881.81873)">
            <g id="g1486">
               <path d="m 173.99483,185.80649 c 0.62168,0.0306 237.72383,7.92023 237.72383,7.92023" style="fill:none;stroke:#000000;stroke-width:1.30769;stroke-linecap:round;stroke-linejoin:round;stroke-miterlimit:10;stroke-dasharray:none;stroke-opacity:1" id="path1488" sodipodi:nodetypes="cc" />
            </g>
         </g>
         <g id="g1490" transform="matrix(1,0,0,-1,8.4263611,881.81873)">
            <g id="g1492">
               <path d="m 411.71866,193.72675 c 2.24329,-0.49785 4.06189,-2.2838 4.92872,-4.36628 0.40035,-1.62503 -0.64575,-3.15595 -1.69621,-4.29011 -0.72788,-0.71172 -4.08951,-1.04189 -4.08951,-1.04189" style="fill:none;stroke:#000000;stroke-width:1.30769;stroke-linecap:round;stroke-linejoin:round;stroke-miterlimit:10;stroke-dasharray:none;stroke-opacity:1" id="path1494" sodipodi:nodetypes="cccc" />
            </g>
         </g>
         <g id="g1496" transform="matrix(1,0,0,-1,8.4263611,881.81873)">
            <g id="g1498">
               <path d="m 173.99483,185.80649 c -0.62168,-0.0306 -1.97161,-2.42274 -3.60993,-4.3435 -1.25981,-1.92342 -2.01788,-4.58708 -0.95998,-6.76431 1.71825,-2.92019 4.77207,-4.51292 7.92191,-4.15574" style="fill:none;stroke:#000000;stroke-width:1.30769;stroke-linecap:round;stroke-linejoin:round;stroke-miterlimit:10;stroke-dasharray:none;stroke-opacity:1" id="path1500" sodipodi:nodetypes="cccc" />
            </g>
         </g>
         <g id="g1502" transform="matrix(1,0,0,-1,8.4263611,881.81873)">
            <g id="g1504">
               <path d="m 177.34683,170.54294 2.64922,0.17009 230.86561,13.31544" style="fill:none;stroke:#000000;stroke-width:1.30769;stroke-linecap:round;stroke-linejoin:round;stroke-miterlimit:10;stroke-dasharray:none;stroke-opacity:1" id="path1506" sodipodi:nodetypes="ccc" />
            </g>
         </g>
      </g>
   </g>
</svg>
