<?xml version="1.0" encoding="UTF-8" standalone="no"?>
<!-- Created by Ashley Blewer - This work is licensed under a Creative Commons Attribution 4.0 International License -->

<svg width="544" height="480" viewBox="0 0 143.93334 127" version="1.1" id="svg2490" inkscape:version="1.1.2 (08b2f3d93c, 2022-04-05)" sodipodi:docname="1996-dvcam-5.svg"
   xmlns:inkscape="http://www.inkscape.org/namespaces/inkscape"
   xmlns:sodipodi="http://sodipodi.sourceforge.net/DTD/sodipodi-0.dtd"
   xmlns="http://www.w3.org/2000/svg"
   xmlns:svg="http://www.w3.org/2000/svg">
   <sodipodi:namedview id="namedview2492" pagecolor="#ffffff" bordercolor="#666666" borderopacity="1.0" inkscape:pageshadow="2" inkscape:pageopacity="0.0" inkscape:pagecheckerboard="0" inkscape:document-units="mm" showgrid="false" units="px" inkscape:zoom="0.90583674" inkscape:cx="279.29978" inkscape:cy="194.84747" inkscape:window-width="1848" inkscape:window-height="1136" inkscape:window-x="72" inkscape:window-y="27" inkscape:window-maximized="1" inkscape:current-layer="layer1" />
   <defs id="defs2487" />
   <g inkscape:label="Layer 1" inkscape:groupmode="layer" id="layer1">
      <g id="g5006" transform="matrix(0.65517487,0,0,0.65517487,-442.00128,-382.64419)">
         <g id="g1828" transform="scale(1,-1)">
            <path d="m 692.715,-742.363 c -2.31343,1.28535 -4.01279,3.36827 -5.98521,5.08204" style="fill:none;stroke:#000000;stroke-width:2.61538;stroke-linecap:round;stroke-linejoin:round;stroke-miterlimit:10;stroke-dasharray:none;stroke-opacity:1" id="path1830" />
         </g>
         <g id="g1832" transform="scale(1,-1)">
            <path d="m 686.211,-736.906 c -0.10807,2.2411 -0.60425,4.47384 -0.27872,6.72246 0.11717,1.76351 0.2308,3.53265 0.55098,5.27351" style="fill:none;stroke:#000000;stroke-width:2.61538;stroke-linecap:round;stroke-linejoin:round;stroke-miterlimit:10;stroke-dasharray:none;stroke-opacity:1" id="path1834" />
         </g>
         <g id="g1836" transform="scale(1,-1)">
            <path d="m 686.895,-724.305 c 1.29183,-0.38029 3.78852,1.2065 3.0777,2.50571 -0.80487,1.21606 -1.87212,2.267 -2.89493,3.29961" style="fill:none;stroke:#000000;stroke-width:2.61538;stroke-linecap:round;stroke-linejoin:round;stroke-miterlimit:10;stroke-dasharray:none;stroke-opacity:1" id="path1838" />
         </g>
         <g id="g1840" transform="scale(1,-1)">
            <path d="m 691.164,-741.453 c 0.71601,19.84634 -0.31914,39.71535 -0.96245,59.55379 -0.26563,6.78164 -0.54723,13.56264 -0.81455,20.34421 l -0.0286,-0.1404 0.36462,0.1524" style="fill:none;stroke:#000000;stroke-width:2.61538;stroke-linecap:round;stroke-linejoin:round;stroke-miterlimit:10;stroke-dasharray:none;stroke-opacity:1" id="path1842" />
         </g>
         <g id="g1844" transform="scale(1,-1)">
            <path d="m 689.363,-657.801 h -0.015 l -0.086,-0.015 -0.137,-0.012 -0.129,-0.02 -0.094,-0.019 -0.121,-0.02 -0.086,-0.008 0.02,-0.019 -0.004,-0.012 0.004,-0.027 -0.008,-0.031 0.078,-0.024 0.055,-0.035 -0.035,-0.031 0.007,-0.039 0.016,-0.016 0.016,-0.012 0.004,-0.035 0.015,-0.015 h 0.024 l 0.019,0.003 h 0.032 l 0.031,-0.015 0.019,-0.012 0.004,0.012 0.004,-0.012 0.004,-0.004 v -0.011 l -0.016,-0.004 0.02,-0.016 0.016,-0.016 -0.004,-0.031 0.015,-0.039 v -0.039 l 0.016,-0.031 0.058,-0.043 0.02,-0.051 -0.039,-0.043 -0.016,-0.078 v -0.043 l -0.039,-0.035 -0.015,-0.059 0.027,-0.058 0.019,-0.055 0.008,-0.067 0.004,-0.054 0.016,-0.047 0.101,-0.047 0.043,-0.074 -0.043,-0.067 -0.003,-0.066 -0.008,-0.125 -0.075,-0.051 -0.027,-0.07 0.051,-0.051 0.008,-0.062 0.004,-0.055 0.015,-0.039 0.039,-0.047 0.02,-0.039 -0.008,-0.031 0.008,-0.063 0.027,-0.082 0.031,-0.054 0.039,-0.043 0.008,-0.051 0.02,-0.071 0.019,-0.062 0.024,-0.055 0.055,-0.07 v -0.07 l -0.004,-0.059 0.035,-0.051 0.011,-0.047 0.02,-0.05 0.008,-0.039 0.051,-0.032 0.031,-0.027 -0.016,-0.02 0.008,-0.027 v -0.023 l 0.012,-0.012 v -0.012 l 0.008,-0.015 0.011,-0.012 0.032,-0.024 0.019,-0.015 -0.004,-0.024 v -0.019 l 0.043,-0.02 0.051,-0.031 0.039,-0.031 0.035,-0.012 0.039,-0.027 0.059,-0.024 0.054,-0.027 0.028,-0.031 0.027,-0.028 0.039,-0.023 0.039,-0.027 0.035,-0.028 0.09,-0.035 0.071,-0.043 -0.012,-0.027 0.031,-0.016 0.016,-0.019 0.031,-0.02 -0.008,-0.023 0.024,-0.008 0.062,-0.004 0.047,-0.02 0.016,-0.007 0.019,-0.004 h 0.039 l 0.067,-0.008 0.027,-0.02 -0.004,-0.004 v 0.004 h 0.012 -0.071 l 0.075,-0.007 0.023,0.003 h 0.024 l 0.015,0.016 h 0.133 l 0.016,0.008 0.007,0.019 v 0.008 h 0.02 l 0.02,0.012 0.023,-0.008 0.031,-0.004 0.028,-0.004 0.031,-0.004 0.051,-0.004 0.011,-0.003 0.004,0.007 h 0.02 l 0.031,0.008 0.008,0.004 v 0.016 l 0.039,0.019 0.035,-0.008 0.023,0.016 0.016,0.008 0.047,0.004 0.035,0.019 -0.016,0.004 0.016,0.004 h -0.004 l -0.004,0.008 h -0.035 l -0.012,0.008 h 0.024 v 0.011 l 0.055,0.004 h 0.046 l -0.035,0.004 -0.008,0.012 -0.007,0.016 -0.008,-0.012 -0.004,0.008 -0.02,0.011 -0.007,0.02 0.019,0.023 v 0.02 l 0.008,0.016 0.004,0.023 -0.047,0.02 0.008,0.035 0.043,0.019 0.011,0.028 0.008,0.031 0.008,0.039 0.031,0.035 0.086,0.035 0.024,0.039 -0.028,0.028 v 0.093 l 0.016,0.024 -0.035,0.027 -0.016,0.039 0.055,0.024 0.035,0.039 0.012,0.035 0.011,0.023 0.032,0.035 0.011,0.043 0.012,0.02 0.016,0.027 0.008,0.032 0.015,0.039 0.024,0.043 0.004,0.043 0.003,0.039 0.024,0.027 0.008,0.043 0.015,0.023 0.004,0.035 0.016,0.028 -0.008,0.047 v 0.043 l 0.02,0.043 0.015,0.043 0.008,0.039 0.004,0.054 -0.012,0.059 0.008,0.055 0.012,0.035 0.015,0.039 0.004,0.043 0.004,0.055 0.078,0.054 0.032,0.063 -0.051,0.054 -0.016,0.067 0.008,0.109 v 0.047 l -0.09,0.055 -0.039,0.074 0.063,0.055 0.007,0.07 0.008,0.047 0.008,0.043 0.082,0.043 0.035,0.062 -0.043,0.043 -0.015,0.043 0.007,0.047 -0.003,0.047 -0.024,0.027 0.051,0.035 0.047,0.051 -0.035,0.039 -0.004,0.039 -0.008,0.047 -0.016,0.035 0.004,0.036 0.008,0.05 -0.012,0.043 -0.004,0.055 -0.004,0.059 v 0.062 l -0.003,0.063 0.023,0.062 0.019,0.059 -0.027,0.039 -0.004,0.035 -0.004,0.051 0.008,0.05 0.004,0.047 -0.023,0.055 c 0.078,5.691 0.386,10.598 0.378,16.09 l -0.003,0.043 -0.004,0.031 -0.032,0.035 0.032,0.039 0.039,0.028 -0.024,0.027 v 0.008 l -0.015,0.019 0.011,0.02 -0.05,0.027 -0.036,0.02 0.043,0.015 0.012,0.028 -0.004,0.008 h 0.004 l 0.004,0.011 0.016,0.028 0.007,0.011 -0.003,0.016 -0.012,0.004 0.019,0.015 0.004,0.004 v 0.004 l -0.004,-0.004 -0.004,-0.011 v -0.004 l -0.019,-0.004 -0.039,-0.004 -0.047,-0.004 0.027,-0.008 0.028,0.004 -0.004,0.004 0.004,0.004 -0.047,-0.004 -0.012,0.027 0.035,-0.011 0.016,0.004 0.012,0.007 0.011,0.012 0.032,-0.023 v 0.004 l 0.003,0.003 h -0.011 l -0.035,0.008 -0.059,0.008 0.012,-0.012 h 0.027 l 0.004,0.024 0.004,-0.004 0.113,-0.008 0.047,-0.012 -0.059,0.004 -0.011,-0.008 -0.016,0.008 -0.008,0.012 -0.054,0.004 h -0.004 l 0.015,-0.004 -0.023,0.012 -0.024,0.035 -0.015,0.058 -0.024,0.055 -0.011,0.047 -0.02,0.055 -0.023,0.043 -0.012,0.039 -0.004,0.035 -0.016,0.027 -0.003,0.028 0.007,0.027 0.004,0.012 0.004,0.007 v 0.012 l 0.016,-0.012 0.004,-0.015 -0.016,-0.008 v -0.016 l -0.004,-0.011 v -0.012 l -0.031,-0.004 -0.027,-0.008 0.023,-0.004 v -0.015 0.008 l 0.004,0.007 0.004,-0.007 -0.008,0.011 -0.02,0.032 -0.066,0.046 -0.047,0.004 -0.054,0.02 -0.032,0.012 -0.074,0.011 -0.055,0.028 0.012,0.011 v 0.008 l -0.004,0.012 0.012,0.008 -0.02,0.004 h -0.039 l -0.019,-0.004 0.051,-0.004 0.003,-0.004 -0.054,0.008 -0.024,0.007 -0.019,0.004 h -0.121 l -0.032,-0.004 -0.007,-0.003 -0.016,0.019 -0.012,-0.008 -0.023,0.004 0.039,-0.004 0.023,0.008 -0.031,0.004 -0.023,0.004 -0.024,0.012 -0.015,-0.012 h -0.032 l -0.039,0.012 -0.019,-0.004 -0.012,0.008 h -0.019 l -0.036,0.015 -0.015,-0.008 -0.008,-0.007 -0.02,-0.008 -0.019,0.011 -0.016,-0.011 -0.015,-0.004 h -0.043 l -0.016,-0.016 -0.035,-0.012 -0.039,-0.003 -0.008,-0.012 -0.02,-0.008 -0.003,-0.008 -0.004,0.004 -0.012,-0.004 -0.016,-0.004 -0.023,-0.008 -0.094,0.008 h -0.094 l 0.036,-0.011 0.011,-0.02 -0.027,-0.004 -0.016,-0.004 -0.008,-0.008 0.067,-0.007 0.027,-0.02 h -0.062 l -0.043,-0.012 -0.024,-0.011 -0.019,-0.008 h -0.153 v -0.027 l 0.012,-0.008 -0.031,-0.008 -0.027,-0.004 h 0.007 -0.027 l -0.023,0.004 -0.039,-0.008 -0.04,-0.016 -0.043,-0.015 -0.023,-0.024 h -0.023 l -0.039,-0.011 -0.032,-0.016 h -0.023 l -0.012,-0.02 -0.008,-0.011 -0.039,-0.016 -0.027,0.012 -0.004,-0.008 -0.004,0.004 0.012,-0.004 -0.008,-0.008 -0.02,-0.008 -0.011,-0.007 0.004,-0.016 -0.008,-0.004 -0.004,-0.012 v -0.007 l 0.004,-0.02 -0.008,-0.016 -0.012,-0.007 -0.004,-0.02 -0.007,-0.008 -0.043,-0.015 -0.082,-0.004 -0.012,-0.035 0.027,-0.012 v -0.043 l -0.008,-0.02 -0.031,-0.027 -0.015,-0.02 0.011,-0.019 -0.011,-0.023 -0.012,-0.051 -0.004,-0.039 -0.024,-0.02 0.04,-0.039 0.023,-0.043 -0.043,-0.043 -0.012,-0.043 -0.015,-0.019 -0.012,-0.024 0.008,-0.027 -0.016,-0.031 c 0.027,-5.164 0.352,-10.735 0.004,-16.133 l 0.043,-0.078 0.004,-0.082 0.008,-0.082 -0.008,-0.055 0.055,-0.047 0.113,-0.059 -0.004,-0.07 -0.059,-0.066 -0.011,-0.067 -0.012,-0.054 v -0.059 l -0.082,-0.055 -0.063,-0.066 0.051,-0.059 0.02,-0.058 0.008,-0.051 0.007,-0.047 0.059,-0.039 0.012,-0.047 -0.028,-0.035 0.008,-0.039 0.004,-0.031 -0.012,-0.035 -0.004,-0.051 -0.015,-0.02 -0.008,-0.019 0.004,-0.047 v -0.106 l 0.008,-0.039 -0.028,-0.039 -0.023,-0.035 0.019,-0.023 0.008,-0.036 0.004,-0.035 -0.008,-0.031 0.032,-0.023 0.027,-0.039 -0.023,-0.036 v -0.043 l 0.007,-0.035 0.004,-0.031 0.028,-0.043 0.023,-0.031 -0.019,-0.024 -0.016,-0.035 v -0.023 l 0.008,-0.024 -0.024,-0.023 -0.031,-0.008 0.008,-0.016 0.008,-0.003 0.004,-0.004 0.007,-0.004 0.039,0.004 0.016,-0.004 -0.016,0.008 -0.011,0.007 -0.004,0.012 -0.012,0.012 0.055,-0.008 0.019,-0.008 h -0.039 l -0.011,-0.004 -0.008,0.008 -0.008,0.004 -0.059,0.012 -0.027,-0.016 h 0.031 l 0.004,-0.019 0.008,-0.012 0.004,-0.004 -0.004,0.012 h 0.019 l 0.024,-0.004 -0.02,-0.004 0.004,-0.012 0.012,-0.004 0.016,-0.015 -0.102,-0.02" style="fill:none;stroke:#000000;stroke-width:2.61538;stroke-linecap:round;stroke-linejoin:round;stroke-miterlimit:10;stroke-dasharray:none;stroke-opacity:1" id="path1846" />
         </g>
         <g id="g1848" transform="scale(1,-1)">
            <path d="m 688.645,-640.922 -0.028,0.027 -0.039,0.004 -0.035,0.016 -0.055,0.004 -0.07,0.016 -0.031,-0.004 -0.032,0.004 -0.043,0.015 -0.042,0.004 -0.04,0.004 0.032,0.008 -0.012,0.004 h -0.121 l -0.043,0.019 h -0.016 l -0.035,0.012 -0.14,0.004 -0.055,-0.031 0.043,0.007 -0.02,0.039 -0.023,0.028 -0.008,0.008 -0.039,0.004 -0.004,0.027 0.012,0.015 v 0.012 l -0.004,0.004 0.004,0.02 0.004,0.004 0.035,0.007 0.012,0.016 -0.043,0.004 -0.036,0.027 -0.023,0.039 -0.02,0.024 -0.074,0.031 -0.051,0.047 0.04,0.015 c -0.211,3.043 0.835,5.782 0.964,8.657 l -0.007,0.054 v 0.098 l 0.023,0.055 0.043,0.043 0.008,0.066 -0.028,0.047 -0.007,0.051 c -0.813,4.305 -0.149,10.097 -0.926,14.512 l 0.012,0.046 0.003,0.043 v 0.036 l 0.079,0.05 0.05,0.043 -0.047,0.028 -0.023,0.043 -0.012,0.046 0.004,0.024 0.024,0.031 0.023,0.024 -0.012,0.023 -0.011,0.031 0.011,0.043 v 0.028 l -0.007,0.027 0.015,0.023 0.02,0.024 -0.008,0.012 h 0.004 l -0.004,0.023 h 0.019 l 0.004,0.012 v -0.004 l -0.007,-0.012 -0.004,0.004 -0.008,0.016 0.004,-0.008 -0.008,-0.008 -0.024,-0.012 v -0.015 l 0.012,-0.008 0.004,0.008 -0.016,-0.008 v -0.039 h 0.024 l 0.094,0.011 0.004,0.032 -0.055,-0.016 -0.004,-0.023 -0.004,-0.008 -0.008,0.004 -0.047,0.019 -0.019,-0.011 0.035,0.027 0.004,0.039 0.008,-0.008 0.004,0.008 0.054,0.016 0.09,0.019 -0.008,0.024 -0.023,0.007 0.008,-0.004 0.004,0.004 0.004,0.02 -0.11,0.023 -0.043,-0.011 0.074,0.019 0.004,0.043 0.032,0.027 0.058,0.004 0.004,-0.007 -0.023,0.007 h 0.004 l 0.003,0.012 v 0.012 -0.004 l 0.004,-0.016 v -0.023 l -0.004,-0.016 v -0.031 l 0.02,-0.004 v -0.012 l -0.02,-0.007 h -0.003 l -0.004,0.003 0.011,-0.003 -0.019,-0.016 -0.024,-0.02 0.012,0.004 h 0.012 l 0.004,-0.019 0.004,0.008 0.007,0.003 0.04,-0.003 0.027,0.007 -0.016,-0.019 -0.011,-0.008 -0.004,-0.004 h -0.012 l -0.024,-0.004 -0.011,0.004 0.008,-0.004 0.007,-0.015 0.012,-0.016 0.027,-0.031 0.086,-0.047 0.055,-0.067 -0.019,-0.062 0.019,-0.063 0.008,-0.062 0.016,-0.07 0.046,-0.079 0.075,-0.078 0.003,-0.078 c 1.868,-7.008 2.243,-12.511 3.477,-18.508 l -0.094,-0.035 -0.015,-0.043 0.078,-0.035 0.004,-0.058 0.011,-0.043 0.008,-0.028 v -0.035 l 0.071,-0.027 0.058,-0.016 -0.031,-0.039 -0.016,-0.043 -0.004,-0.023 -0.007,-0.028 -0.079,-0.023 -0.015,-0.035 c -0.039,-1.321 -0.524,-2.785 -0.891,-4.375 l -0.047,-0.086 -0.008,-0.082 0.012,-0.082" style="fill:none;stroke:#000000;stroke-width:2.61538;stroke-linecap:round;stroke-linejoin:round;stroke-miterlimit:10;stroke-dasharray:none;stroke-opacity:1" id="path1850" />
         </g>
         <g id="g1852" transform="scale(1,-1)">
            <path d="m 687.207,-616.594 h -0.004 l 0.004,0.008 v 0.012 l -0.027,0.031 -0.039,0.039 -0.036,0.059 -0.035,0.054 -0.015,0.039 -0.035,0.047 -0.036,0.024 -0.027,0.043 -0.016,0.054 -0.031,0.051 -0.039,0.047 -0.051,0.047 -0.023,0.051 0.008,0.031 -0.016,0.019 -0.008,0.016 -0.015,0.02 0.011,0.027 0.004,0.027 -0.023,0.008 -0.028,0.012 -0.007,0.051 -0.024,0.027 -0.023,0.02 -0.043,0.031 -0.016,0.039 v 0.019 l -0.015,0.02 -0.004,0.039 -0.02,0.043 -0.082,0.039 -0.051,0.039 0.043,0.035 -0.011,0.035 -0.004,0.032 -0.008,0.035 -0.027,0.035 0.066,0.019 0.027,0.04 -0.058,0.015 -0.012,0.039 -0.035,0.008 -0.008,0.012 -0.102,0.015 -0.066,0.028 0.047,0.008 -0.016,0.007 h 0.016 l 0.008,0.024 0.007,0.008 0.008,0.015 -0.015,0.028 -0.016,-0.008 -0.016,0.019 -0.003,0.02 -0.036,0.019 -0.027,-0.004 -0.004,0.012 -0.008,0.031 -0.011,0.02 -0.008,0.008 -0.004,0.019 -0.043,0.024 -0.039,0.058 -0.02,0.02 -0.047,0.012 -0.043,0.007 0.02,0.004 -0.016,0.016 -0.004,0.012 -0.011,0.007 -0.016,0.016 -0.012,-0.031 -0.023,-0.012 -0.008,0.027 -0.019,0.004 -0.032,0.012 -0.101,0.008 -0.02,0.004 0.039,-0.004 0.008,0.004 h 0.008 l 0.008,0.004 h 0.058 l 0.036,0.019 -0.04,-0.004 -0.003,-0.023 -0.02,0.027 h -0.004 l -0.062,-0.004 -0.028,0.02 0.039,-0.004 h 0.008 l 0.004,-0.008 v -0.012 h -0.004 0.008 l -0.008,0.012 -0.015,0.004 -0.02,-0.02 -0.008,-0.031 -0.051,-0.004 v -0.007 l 0.008,-0.004 -0.011,-0.008 -0.032,-0.008 -0.015,0.008 -0.051,-0.004 h -0.059 l 0.004,-0.008 -0.004,0.008 v 0.004 l 0.008,-0.008 -0.004,-0.004 v -0.008 h -0.027 l -0.004,-0.019 -0.012,-0.008 0.008,0.004 v 0.004 l -0.008,-0.012 -0.023,-0.012 h -0.055 l -0.004,0.004 -0.004,-0.004 -0.004,0.004 -0.023,-0.004 -0.02,-0.007 0.008,-0.024 -0.008,0.024 v -0.016 l 0.016,0.008 h 0.012 l -0.024,-0.008 -0.015,0.004 -0.008,0.004 -0.004,0.019 -0.012,0.004 -0.027,-0.004 h -0.02 l 0.008,0.012 0.004,0.016 v 0.015 h 0.004 l 0.07,-0.008 0.051,-0.004 h -0.047 l -0.047,0.008 -0.027,0.008 -0.031,0.016 -0.024,0.004 v 0.004 h -0.004 v 0.003 l -0.007,-0.007 -0.012,0.007 -0.016,0.024 -0.023,0.008 -0.004,0.004 -0.012,0.007 -0.008,-0.004 -0.019,0.008 -0.004,0.016 0.008,0.008 -0.004,0.008 -0.024,0.015 -0.015,0.008 -0.032,0.031 h -0.003 v 0.012 l 0.007,-0.004 -0.054,-0.012 -0.024,-0.015 0.032,0.015 -0.02,-0.004 0.008,-0.027 0.004,-0.012 0.008,-0.007 -0.047,0.007 v -0.027 l 0.047,-0.016 0.007,0.028 0.012,-0.008 0.012,0.004 -0.043,0.004 -0.031,-0.008 h 0.046 l 0.008,-0.008 0.008,-0.035 -0.004,-0.012 v -0.004 l 0.039,-0.019 0.024,-0.028 -0.036,-0.027 -0.039,-0.031 -0.015,-0.051 -0.016,-0.047 0.024,-0.066 v -0.082 l -0.055,-0.074 -0.02,-0.071 -0.015,-0.066 -0.012,-0.074 0.016,-0.079 0.07,-0.07 -0.012,-0.078 -0.058,-0.066 -0.004,-0.075 -0.008,-0.074 -0.02,-0.082 0.043,-0.078 0.012,-0.07 -0.039,-0.074 -0.008,-0.075 0.004,-0.062 v -0.477 l 0.004,-0.058 -0.023,-0.071 -0.016,-0.082 c -0.164,-7.851 0.809,-16.047 1.059,-23.242 l -0.008,-0.074 0.015,-0.059 0.004,-0.05 -0.004,-0.063 0.067,-0.062 0.039,-0.059 -0.043,-0.043 -0.008,-0.039 -0.008,-0.027 -0.015,-0.04 0.007,-0.015 -0.003,-0.024 -0.012,-0.015 h -0.008 l -0.012,-0.004 -0.05,0.004 -0.004,-0.012 0.035,-0.004 -0.008,-0.015 0.008,-0.02 0.012,-0.004 0.019,-0.004 0.027,-0.011 v -0.016 l -0.004,-0.004 h 0.004 l -0.007,-0.004 h 0.007 l -0.117,-0.004 -0.047,0.043 0.071,-0.023 h 0.015 l 0.016,0.008 0.016,0.015 0.031,-0.004 0.035,0.008 -0.016,-0.004 -0.011,-0.004 0.003,-0.023 0.004,-0.012 0.02,-0.004 h -0.039 v -0.004 l 0.015,-0.004 h 0.016 v 0.008 h -0.035 l -0.008,-0.004 0.008,-0.008 0.016,-0.031 0.019,-0.055 0.035,-0.046 0.016,-0.036 0.012,-0.046 0.019,-0.047 0.012,-0.039 0.019,-0.036 0.008,-0.042 0.031,-0.047 0.024,-0.047 -0.008,-0.024 -0.004,-0.027 0.008,-0.02 v -0.046 l -0.063,-0.024 -0.015,-0.039 0.058,-0.035 0.012,-0.035 0.008,-0.035 0.016,-0.032 0.031,-0.043 0.043,-0.058 0.004,-0.039 0.011,-0.039 0.02,-0.039 0.031,-0.043 -0.019,-0.055 -0.082,-0.055 0.023,-0.054 0.063,-0.051 0.035,-0.067 0.035,-0.058 0.035,-0.051 0.008,-0.055 0.039,-0.054 0.047,-0.067 0.035,-0.07 0.047,-0.082 0.031,-0.067 0.012,-0.07 0.062,-0.066 0.071,-0.078 0.007,-0.075 0.028,-0.082 0.023,-0.078 0.02,-0.082 0.011,-0.078 v -0.07 l 0.036,-0.086 0.031,-0.09 0.023,-0.078 0.024,-0.07 0.027,-0.075 0.051,-0.07 0.015,-0.078 0.012,-0.078 0.063,-0.156 0.062,-0.086 0.024,-0.086 0.015,-0.071 0.055,-0.066 0.031,-0.063 0.055,-0.074 0.047,-0.066 v -0.059 l 0.019,-0.062 0.067,-0.067 0.066,-0.078 0.043,-0.086 0.047,-0.054 0.055,-0.067 0.027,-0.066 0.043,-0.063 0.059,-0.07 0.039,-0.078 0.05,-0.063 0.039,-0.066 0.032,-0.086 0.039,-0.098 0.074,-0.066 0.063,-0.086 0.042,-0.086 0.059,-0.07 0.023,-0.067 -0.07,-0.062 0.016,-0.047 0.09,-0.039 0.058,-0.051 0.051,-0.039 0.027,-0.027 0.082,-0.032 0.051,-0.023 -0.027,-0.004 0.019,-0.019 0.008,-0.02 0.012,-0.016 h -0.047 l -0.035,-0.007 0.019,-0.008 0.028,-0.012 h 0.133 l 0.039,-0.016 -0.051,-0.007 -0.012,0.015 -0.019,0.008 h -0.016 l -0.039,0.012 0.012,0.008 0.007,0.007 -0.011,0.004 -0.008,0.012 -0.012,0.004 -0.008,0.008 -0.007,0.004 -0.008,0.007 v 0.008 l 0.004,0.016 -0.024,0.082 0.012,0.051" style="fill:none;stroke:#000000;stroke-width:2.61538;stroke-linecap:round;stroke-linejoin:round;stroke-miterlimit:10;stroke-dasharray:none;stroke-opacity:1" id="path1854" />
         </g>
         <g id="g1856" transform="scale(1,-1)">
            <path d="m 685.918,-642.512 c 0.19379,-6.22547 0.11361,-12.74549 0.26168,-19.08556 0.24047,-18.9178 0.56296,-37.91534 0.87952,-56.78158 l -0.0902,-0.34386" style="fill:none;stroke:#000000;stroke-width:2.61538;stroke-linecap:round;stroke-linejoin:round;stroke-miterlimit:10;stroke-dasharray:none;stroke-opacity:1" id="path1858" />
         </g>
         <g id="g1860" transform="scale(1,-1)">
            <path d="m 685.863,-613.629 h 0.008 l 0.02,-0.004 h 0.004 l -0.008,-0.004 0.062,0.028 0.028,0.019 0.027,-0.019 0.019,0.007 0.086,-0.023 0.086,-0.012 -0.039,-0.008 -0.023,-0.007 v -0.004 h -0.008 v -0.008 l -0.008,-0.008 h -0.027 l -0.004,0.004 -0.004,0.008 0.008,0.004 0.09,0.004 -0.012,-0.008 h -0.043 l 0.031,-0.004 h 0.024 l 0.015,-0.004 0.032,-0.004 0.16,-0.008 0.113,-0.027 h -0.051 l 0.012,-0.008 0.016,0.004 0.011,0.008 h 0.032 l 0.035,-0.012 0.047,-0.004 0.046,0.008 h 0.032 l 0.015,0.004 0.059,-0.004 0.074,0.012 0.008,-0.004 0.043,-0.016 0.035,0.008 h 0.051 l 0.047,0.004 h 0.05 l 0.055,0.004 h 0.082 l 0.043,0.004 0.043,0.011 0.051,0.004 0.059,0.016 0.05,-0.008 0.055,-0.008 0.062,-0.004 c 18.258,0.172 136.008,4.809 189.649,3.543 l 0.043,-0.011 h 0.055 l 0.031,-0.004 h 0.039 l 0.051,-0.028 0.035,-0.023 0.039,0.02 0.035,0.015 h 0.012 l 0.031,0.004 0.016,0.004 0.023,0.004 h 0.063 l 0.062,0.016 -0.004,0.003 0.039,0.004 h 0.051 l 0.039,0.012 v 0.02 l 0.027,0.007 0.063,-0.007 h 0.086 l 0.109,-0.012 0.125,-0.008 -0.035,0.02 h -0.039 l -0.012,-0.012 0.02,0.004 -0.031,0.023 -0.122,-0.023 -0.019,-0.028 0.074,0.012 0.035,0.008 -0.004,0.031 h 0.071 l 0.011,-0.019 -0.05,0.011 -0.012,0.004 -0.008,0.012 -0.008,0.02 -0.004,0.007 -0.027,-0.003 -0.019,-0.012 0.019,-0.008 v -0.008 l 0.004,-0.008 v -0.004 h 0.008 -0.012 0.008 v 0.008 h -0.004 l -0.004,0.004 0.012,-0.015 h 0.008 l -0.004,-0.012 v -0.024 l 0.062,-0.004 -0.015,0.028 -0.039,-0.02 h 0.023 l -0.02,-0.015 h 0.016 l -0.047,0.031 -0.078,0.004 0.004,-0.055 h 0.051 l -0.004,0.027 0.004,-0.015 0.015,-0.016 0.121,0.012 0.094,0.019 -0.047,-0.011 0.047,0.004 0.035,0.027 0.028,-0.012 0.023,0.02 -0.019,0.015 0.007,0.008 0.059,0.004 0.051,0.016" style="fill:none;stroke:#000000;stroke-width:2.61538;stroke-linecap:round;stroke-linejoin:round;stroke-miterlimit:10;stroke-dasharray:none;stroke-opacity:1" id="path1862" />
         </g>
         <g id="g1864" transform="scale(1,-1)">
            <path d="m 879.309,-609.84 c 1.22555,-0.11312 2.11918,-1.03976 3.05833,-1.7253 0.57596,-0.22934 0.99768,-0.8373 1.61255,-0.88778" style="fill:none;stroke:#000000;stroke-width:2.61538;stroke-linecap:round;stroke-linejoin:round;stroke-miterlimit:10;stroke-dasharray:none;stroke-opacity:1" id="path1866" />
         </g>
         <g id="g1868" transform="scale(1,-1)">
            <path d="m 688.102,-616.152 v -0.004 l -0.004,-0.012 -0.004,-0.031 -0.004,-0.024 v -0.015 0.008 l 0.004,0.019 0.047,-0.008 0.019,0.004 -0.027,-0.023 -0.004,-0.016 -0.008,0.008 h 0.004 l -0.035,0.012 -0.07,0.007 0.015,-0.003 h 0.055 l 0.019,0.007 0.016,0.008 0.027,0.012 0.055,0.008 0.063,0.007 0.011,-0.003 0.016,0.003 0.027,0.016 0.028,0.012 -0.063,0.008 -0.086,0.007 0.043,0.004 0.094,0.004 0.07,0.012 0.063,0.008 0.074,0.008 0.039,0.004 0.055,0.011 0.109,-0.004 h 0.09 l 0.101,0.004 0.114,0.004 0.105,0.004 0.137,0.012 0.141,0.004 0.117,0.004 h 0.488 l 0.105,0.023 0.176,0.004 0.176,-0.008 h 0.469 l 0.199,-0.004 0.16,0.016 0.106,0.004 0.121,-0.008 0.125,-0.004 h 0.156 l 0.117,-0.004 0.102,-0.012 0.16,0.004 0.144,0.012 0.118,0.004 0.125,0.016 0.136,0.003 0.125,0.008 0.121,0.016 0.121,0.004 0.129,-0.004 0.125,-0.004 h 0.27 l 0.109,-0.027 0.102,-0.008 0.101,0.015 0.102,0.012 0.109,0.008 0.09,-0.008 h 0.297 l 0.102,0.012 0.097,0.004 0.067,0.004 h 0.011 l 0.016,0.004 h 0.148 l 0.032,-0.004 0.05,0.008 0.122,0.003 0.113,0.02 -0.012,-0.02 0.051,-0.003 0.043,0.007 h 0.051 l -0.063,-0.007 -0.058,-0.012 0.101,-0.012 0.113,-0.019 0.086,-0.012 0.051,0.008 h 0.035 l 0.098,-0.004 0.059,0.035 -0.016,-0.008 0.023,-0.027 0.028,0.019 v -0.011 l -0.008,-0.004 0.055,-0.008 0.015,-0.031 -0.058,-0.008 -0.02,0.008 -0.027,0.004 -0.024,0.011 0.024,0.004 v -0.012 l -0.063,0.004 -0.019,-0.019" style="fill:none;stroke:#000000;stroke-width:2.61538;stroke-linecap:round;stroke-linejoin:round;stroke-miterlimit:10;stroke-dasharray:none;stroke-opacity:1" id="path1870" />
         </g>
         <g id="g1872" transform="scale(1,-1)">
            <path d="m 696.293,-616.461 0.004,-0.004 -0.024,-0.008 -0.05,-0.015 -0.004,-0.004 0.015,-0.016 0.012,-0.027 0.012,-0.008 0.008,-0.016 -0.012,-0.019 0.004,-0.012 0.019,-0.008 0.012,-0.023 v -0.016 l 0.023,-0.011 0.083,-0.012 v -0.024 l -0.04,-0.027 -0.003,-0.023 -0.004,-0.008 v -0.02 l -0.043,-0.023 -0.024,-0.02 0.024,-0.023 0.007,-0.031 0.004,-0.043 0.016,-0.036 0.125,-0.031 0.168,-0.047 -0.129,-0.046 -0.019,-0.055 -0.02,-0.035 -0.004,-0.036 -0.086,-0.039 -0.043,-0.066 0.043,-0.023 0.004,-0.02 0.02,-0.059 0.047,-0.035 -0.004,-0.039 -0.036,-0.011 0.012,-0.036 0.004,-0.039 v -0.047 l -0.012,-0.043 -0.015,-0.046 0.004,-0.063 v -0.133 l -0.004,-0.039 0.004,-0.054 -0.047,-0.047 -0.028,-0.059 0.008,-0.062 -0.008,-0.04 -0.004,-0.035 -0.039,-0.035 -0.054,-0.039 0.011,-0.039 0.028,-0.039 -0.004,-0.066 0.004,-0.055 0.004,-0.039 0.078,-0.043 0.035,-0.055 -0.059,-0.047 -0.039,-0.047 v -0.019 l -0.004,-0.008 -0.046,-0.023 -0.071,-0.032 0.004,-0.031 0.02,-0.043 0.008,-0.047 0.003,-0.031 0.016,-0.023 0.043,-0.02 0.008,-0.008 -0.02,-0.011 v -0.012 l -0.004,-0.004 0.067,-0.016 0.094,-0.015 v -0.008 l -0.055,-0.012 h -0.047 l -0.004,-0.004 h -0.082 l -0.047,-0.008 h 0.055 l 0.027,-0.019 0.016,-0.012 h 0.008 l 0.093,-0.012 0.086,-0.003 -0.043,0.027 -0.023,-0.004 -0.008,-0.027 h -0.023 0.007 l -0.054,0.004 -0.047,-0.008 0.031,-0.004 v 0.015 l 0.004,-0.007 h 0.008 l -0.004,-0.008 0.023,0.015 h 0.043 l 0.043,-0.039 0.063,-0.027 0.07,-0.023 0.039,-0.039 0.031,-0.02 0.04,-0.016 0.023,-0.007 0.031,0.007 h 0.028 l 0.109,-0.011 0.07,-0.028 h 0.035 l 0.039,-0.004 0.043,0.004 0.047,0.004 v 0.004 l 0.051,-0.008 0.09,0.008 0.074,0.008 0.074,-0.008 h 0.032 l 0.164,-0.012 0.113,-0.003 -0.051,-0.008 0.039,-0.024 0.035,0.004 0.036,-0.012 0.011,-0.011 h -0.023 l 0.043,-0.028 0.094,-0.019 0.082,0.023 h 0.312 l 0.031,0.004 h 0.035 l 0.036,0.004 0.039,0.004 0.066,0.008 0.051,0.008 0.047,0.004 0.054,0.003 0.059,0.016 0.051,0.02 0.058,0.007 -0.003,0.008 0.027,0.02 0.082,0.004 0.074,-0.004 0.074,0.004 h 0.071 l 0.066,0.004 h 0.102 l 0.109,0.023 0.074,0.008 0.071,-0.016 0.07,0.004 h 0.09 l 0.058,0.016 0.043,0.004 0.078,-0.004 h 0.086 l 0.075,0.011 0.074,0.004 0.058,0.016 0.063,0.016 0.09,0.019 0.09,0.008 0.074,-0.008 0.066,0.016 c 8.922,0.918 148.266,3.726 174.324,4.976 l 0.047,0.028 0.039,0.015 0.024,-0.008 0.051,-0.003 h 0.05 l 0.032,-0.004 h 0.035 l 0.023,-0.004 v -0.004 h -0.004 l 0.016,0.008 h 0.016 l 0.019,0.019 0.016,0.004 -0.004,0.02 -0.012,-0.012 -0.012,-0.02 0.02,-0.004 -0.008,-0.011 -0.008,-0.008 0.004,0.035 h -0.101 l -0.043,-0.051 h 0.082 l 0.004,-0.019 h 0.015 l 0.106,0.008 0.015,0.031 -0.062,-0.02 -0.008,-0.019 -0.004,-0.012 v 0.004 l -0.059,0.016 -0.07,0.011 h 0.027 l 0.04,0.004 h 0.027 l -0.027,0.004 0.023,0.008 0.066,-0.004 0.012,0.004 0.012,0.008 0.027,-0.004 h 0.055 l 0.012,-0.024 0.066,-0.015 h 0.105 l 0.055,-0.024 0.07,-0.004 0.043,-0.003 h 0.032 -0.02 l -0.008,0.011 0.051,-0.011 h 0.043 l 0.027,0.003 0.024,0.008 0.047,-0.004 0.07,-0.011 h 0.016 l 0.007,0.004 0.004,0.011 h 0.004 l 0.024,-0.031 0.004,-0.027 -0.02,0.023 -0.008,0.012 -0.004,0.004 -0.004,0.019 -0.007,0.004 -0.035,0.012 -0.008,-0.016 0.054,-0.004 0.016,-0.019 h 0.031 l 0.012,0.004 0.039,-0.012 0.035,-0.004 -0.008,0.008 h -0.015 v -0.012 h -0.055 l -0.078,-0.008 h 0.012 l 0.027,0.008 0.051,0.004 -0.004,0.004 0.023,0.023 -0.023,-0.003 -0.004,-0.028 0.051,0.004 0.008,-0.012 -0.008,0.008 0.011,-0.008 0.083,0.012 0.007,-0.004 -0.066,-0.011 0.019,0.007 -0.019,0.008 -0.012,0.02 -0.031,0.015 -0.055,0.012 0.063,-0.016 h 0.07 l 0.07,-0.004 0.043,-0.015 0.024,0.019 0.09,0.004 0.078,-0.019 -0.016,0.011 0.008,0.008 h 0.004 l 0.008,-0.019 v -0.024 l 0.011,0.016 0.032,0.004 h -0.008 l 0.008,0.008 0.007,0.011 0.016,0.004 0.027,0.004 0.02,0.016 -0.008,0.004 0.02,0.004 0.007,0.004 v -0.004 l -0.015,-0.008 0.012,-0.004 -0.016,0.008 -0.008,-0.012 -0.004,-0.012 -0.019,-0.031 0.074,-0.008 0.016,0.043 -0.071,-0.008 0.012,0.008 -0.008,0.035 -0.109,0.004 -0.051,-0.027 0.07,0.016 0.004,-0.012 0.004,-0.004 0.004,0.019 0.043,-0.015 0.098,-0.008 -0.032,0.02 -0.058,-0.008 -0.008,-0.016 -0.043,0.02 -0.086,0.004 -0.004,-0.012 0.039,0.012 0.008,-0.012 0.004,0.019 0.031,0.032 v 0.003 l -0.035,0.004 0.008,0.008 0.004,0.02 0.011,0.039 0.004,0.055 0.043,0.058 0.02,0.059 -0.043,0.054 -0.012,0.075 -0.008,0.078 -0.019,0.047 -0.02,0.062 -0.039,0.059 -0.004,0.054 0.016,0.047 -0.012,0.047 -0.011,0.043 -0.043,0.078 0.023,0.071 0.027,0.027 -0.031,0.051 -0.035,0.054 -0.031,0.055 -0.032,0.035 -0.003,0.043 0.007,0.07 -0.035,0.055 -0.035,0.047 -0.027,0.059 -0.028,0.05 -0.054,0.051 -0.028,0.071 0.024,0.035 -0.024,0.043 -0.008,0.046 -0.015,0.051 0.008,0.043 -0.028,0.016 -0.019,0.043 0.004,0.051 -0.016,0.031 v 0.019 l -0.023,0.032 -0.032,0.007 h 0.075 l 0.046,0.032 -0.058,0.015 -0.012,0.016 -0.008,0.023 h -0.015 l -0.114,0.004 -0.019,-0.031 0.078,-0.004 -0.023,0.016 0.011,-0.024 0.024,0.028 0.07,-0.008 0.063,-0.024 -0.016,0.02 -0.027,0.02 -0.012,0.011 -0.008,0.004 -0.027,0.012 -0.082,0.023 h -0.039 l 0.047,0.012 -0.004,0.035 h 0.004 l 0.003,0.008 0.04,0.016 0.007,0.007 -0.039,-0.004 0.024,0.008 -0.02,0.024 -0.004,0.008 -0.004,0.003 -0.019,0.016 -0.004,0.024 0.012,0.011 0.007,0.016" style="fill:none;stroke:#000000;stroke-width:2.61538;stroke-linecap:round;stroke-linejoin:round;stroke-miterlimit:10;stroke-dasharray:none;stroke-opacity:1" id="path1874" />
         </g>
         <g id="g1876" transform="scale(1,-1)">
            <path d="m 883.832,-612.7127 c 0.14297,-1.45449 -0.15344,-3.69795 -0.0395,-5.1653 -0.0641,-5.17709 0.0404,-10.37691 -0.62912,-15.52288 -0.15999,-0.12932 -0.0217,-0.73881 -0.35141,-0.62212" style="fill:none;stroke:#000000;stroke-width:2.61538;stroke-linecap:round;stroke-linejoin:round;stroke-miterlimit:10;stroke-dasharray:none;stroke-opacity:1" id="path1878" sodipodi:nodetypes="cccc" />
         </g>
         <g id="g1880" transform="scale(1,-1)">
            <path d="m 690.684,-640.238 c 61.488,3.531 159.004,6.726 189.171,7.242 h 0.083 l 0.058,-0.004 h 0.18 l 0.051,0.016 0.039,0.004 h 0.054 l 0.071,-0.008 -0.036,-0.004 0.028,0.004 0.109,-0.008 0.059,-0.004 0.054,0.004 0.083,0.004 0.136,0.004 H 881 l 0.051,0.004 0.015,0.004 0.024,0.003 0.051,-0.003 0.062,-0.02 -0.004,-0.004 0.031,0.008 0.059,-0.004 0.039,-0.004 h 0.238 l -0.007,0.004 0.003,0.004 v 0.019 -0.003 h -0.015 l 0.008,0.003 0.015,-0.007 -0.008,0.007 -0.007,0.004 -0.012,0.004 h -0.039 l 0.016,-0.011 0.011,-0.004 -0.027,-0.008 -0.008,0.012 h -0.008 l -0.023,-0.004 0.015,-0.004 0.04,-0.004 -0.024,-0.02 -0.016,-0.008 h -0.003 0.085 l 0.047,-0.007 -0.023,0.004 0.008,-0.008 h -0.008 l -0.008,-0.004 -0.047,0.004 h -0.047 l 0.055,-0.012 0.094,-0.004 0.074,-0.023 0.074,-0.004 h 0.059 l 0.164,-0.016 0.152,-0.051 0.008,-0.023 0.082,-0.027 0.082,-0.024 0.082,-0.027" style="fill:none;stroke:#000000;stroke-width:2.61538;stroke-linecap:round;stroke-linejoin:round;stroke-miterlimit:10;stroke-dasharray:none;stroke-opacity:1" id="path1882" />
         </g>
         <g id="g1884" transform="scale(1,-1)">
            <path d="m 883.168,-633.066 c -0.738,-7.055 -1.012,-14.02 -1.555,-20.95 l 0.035,-0.023 -0.015,-0.031 -0.004,-0.039 -0.008,-0.024 0.012,-0.023 -0.008,-0.039 v -0.032 l 0.031,-0.027 v -0.035 l 0.032,-0.043 0.011,-0.031 c 0.324,-1.223 0.586,-1.785 0.992,-3.25 l 0.004,-0.047 -0.031,-0.031 0.016,-0.036 -0.004,-0.043 0.012,-0.054 -0.047,-0.031 c -1.254,-23.348 -1.61,-49.497 -1.563,-73.817 l -0.004,-0.07 -0.015,-0.059 -0.028,-0.043 -0.015,-0.043 v -0.051 l -0.028,-0.039 0.004,-0.039 -0.023,-0.027 -0.028,-0.019 0.024,-0.024 -0.008,-0.004 0.016,-0.023 0.004,-0.028 -0.008,-0.007 v -0.028 l 0.011,-0.015 0.004,0.015 -0.027,0.012 0.023,-0.016 v -0.004 l -0.023,0.008 0.047,0.004 0.012,0.012 -0.008,0.008 -0.008,0.011 -0.008,0.004 0.008,0.012 -0.031,0.012 0.019,-0.008 v -0.012 l -0.011,0.024 0.007,0.004 v -0.008 l 0.012,-0.004 0.078,-0.02 -0.043,-0.004 -0.051,-0.019 -0.015,-0.039 -0.012,0.019 0.004,0.008 -0.094,0.008 0.004,-0.012 0.059,0.012 -0.028,0.039 -0.007,-0.02 h -0.016 l 0.066,0.028 0.024,0.043 -0.027,0.058 0.003,0.075 -0.011,0.093 -0.039,0.102" style="fill:none;stroke:#000000;stroke-width:2.61538;stroke-linecap:round;stroke-linejoin:round;stroke-miterlimit:10;stroke-dasharray:none;stroke-opacity:1" id="path1886" />
         </g>
         <g id="g1888" transform="scale(1,-1)">
            <path d="m 879.473,-744.215 c 0.97633,20.57261 0.22527,41.16866 0.23314,61.74621 0.30673,1.15048 -0.26755,2.85911 0.57489,3.78879" style="fill:none;stroke:#000000;stroke-width:2.61538;stroke-linecap:round;stroke-linejoin:round;stroke-miterlimit:10;stroke-dasharray:none;stroke-opacity:1" id="path1890" />
         </g>
         <g id="g1892" transform="scale(1,-1)">
            <path d="m 879.199,-679.051 c -0.34353,0.53288 -0.33006,1.28647 -0.55476,1.92185 -0.68401,2.72464 -1.23357,5.51785 -2.41631,8.08217 -0.16281,0.48061 -1.01805,1.32082 -1.18095,0.83198" style="fill:none;stroke:#000000;stroke-width:2.61538;stroke-linecap:round;stroke-linejoin:round;stroke-miterlimit:10;stroke-dasharray:none;stroke-opacity:1" id="path1894" />
         </g>
         <g id="g1900" transform="scale(1,-1)">
            <path d="m 771.172,-671.965 c 12.93606,1.61759 31.61815,1.84221 44.63075,2.447 19.17674,0.44707 40.07153,0.69624 59.24423,1.303" style="fill:none;stroke:#000000;stroke-width:2.61538;stroke-linecap:round;stroke-linejoin:round;stroke-miterlimit:10;stroke-dasharray:none;stroke-opacity:1" id="path1902" sodipodi:nodetypes="ccc" />
         </g>
         <g id="g1904" transform="scale(1,-1)">
            <path d="m 778.645,-671.297 c 0.18201,-0.094 0.53146,-0.26708 0.101,-0.312 0.4626,-0.19647 0.58681,-0.89827 0.602,-1.325 -0.13738,-0.48553 0.21157,-0.64874 0.265,-1.086 0.24805,-0.3873 -0.009,-0.41612 0.141,-0.418 0.4036,-0.17918 0.22053,-0.1949 0.523,-0.183 13.86466,0.13793 27.73555,1.13175 41.59307,1.81292 17.50787,0.94423 35.24051,2.03821 52.59093,2.96408 -0.5077,0.0122 0.1288,-10e-4 -0.262,-0.043 0.11526,0.003 0.0794,-0.0653 0.196,-0.066" style="fill:none;stroke:#000000;stroke-width:2.61538;stroke-linecap:round;stroke-linejoin:round;stroke-miterlimit:10;stroke-dasharray:none;stroke-opacity:1" id="path1906" />
         </g>
         <g id="g1908" transform="scale(1,-1)">
            <path d="m 771.301,-672.047 -0.012,-0.004 -0.012,-0.015 -0.019,-0.008 -0.043,-0.008 -0.039,-0.004 -0.02,0.004 -0.011,0.012 -0.008,0.004 -0.035,-0.004 -0.024,-0.004 h 0.008 v 0.015 l 0.004,0.02 0.004,0.004 0.008,0.012 0.003,0.015 0.02,0.008 0.008,0.008 0.012,-0.004 0.007,0.016 0.008,0.011 0.012,0.004 0.027,-0.004 -0.004,-0.011 0.028,-0.008 0.007,0.004 h 0.008 l -0.008,-0.016 -0.046,-0.016 v -0.007 l 0.054,-0.008 0.016,-0.031 0.031,-0.008 0.02,0.015 0.066,-0.007 0.063,-0.032 0.019,-0.015 0.035,-0.016 0.028,-0.02 0.046,-0.023 0.004,-0.012 v -0.015 l 0.063,-0.02 0.082,-0.039 0.082,-0.047 0.062,-0.043 0.055,-0.031 0.074,-0.016 0.075,-0.035 0.046,-0.043 0.063,-0.015 0.059,-0.032 0.066,-0.039 0.066,-0.015 0.075,-0.02 0.07,-0.019 0.047,-0.02 0.062,-0.027 0.063,-0.024 0.062,-0.019 0.063,0.004 0.062,-0.008 0.051,-0.016 h 0.055 l 0.047,0.004 0.05,-0.012 h 0.02 l 0.039,0.024 0.066,0.012 0.051,0.015 0.039,0.008 0.047,0.023 0.067,0.012 0.074,0.008 0.027,0.027 0.02,0.016 0.031,0.027 0.031,0.024 0.035,0.011 -0.062,0.02 0.008,0.023 0.089,0.004 0.047,0.028 0.032,0.004 0.019,0.035 0.027,0.027 h 0.024 l 0.008,0.02 0.011,0.019 0.02,0.024 0.004,0.027 v 0.019 l -0.016,0.02 h -0.004 l 0.02,0.02 0.019,0.027 0.024,0.023" style="fill:none;stroke:#000000;stroke-width:2.61538;stroke-linecap:round;stroke-linejoin:round;stroke-miterlimit:10;stroke-dasharray:none;stroke-opacity:1" id="path1910" />
         </g>
         <g id="g1912" transform="scale(1,-1)">
            <path d="m 774.172,-672.527 c 0.83333,-3.96593 2.18591,-7.98237 2.30964,-12.15161 1.25619,-15.39052 0.0826,-30.8462 -0.18595,-46.25322 -0.20048,-5.32415 -0.22777,-10.70118 0.23131,-15.90417 -0.48203,-1.28577 0.0784,-4.40436 0.321,-4.41 -2.13412,1.57024 -4.32727,4.14547 -6.60417,5.24619 -0.13711,1.79625 -0.42087,5.46444 2.20705,2.42008 1.32267,-0.4644 2.09837,-1.69341 3.38912,-2.19327" style="fill:none;stroke:#000000;stroke-width:2.61538;stroke-linecap:round;stroke-linejoin:round;stroke-miterlimit:10;stroke-dasharray:none;stroke-opacity:1" id="path1914" />
         </g>
         <g id="g1916" transform="scale(1,-1)">
            <path d="m 770.531,-742.785 -0.004,-0.02 -0.011,-0.039 -0.047,-0.066 -0.02,-0.031 -0.011,0.031 -0.055,0.035 -0.008,0.039 v -0.004 l -0.008,0.02 0.047,0.043" style="fill:none;stroke:#000000;stroke-width:2.61538;stroke-linecap:round;stroke-linejoin:round;stroke-miterlimit:10;stroke-dasharray:none;stroke-opacity:1" id="path1918" />
         </g>
         <g id="g1920" transform="scale(1,-1)">
            <path d="m 770.449,-742.355 c 0.15714,-0.36826 0.80357,0.57786 1.21044,0.49307 0.6284,0.51374 0.65653,1.44636 0.59289,2.18955 -0.23387,0.77939 -0.70576,1.50875 -1.30379,2.05734 -0.29689,0.30012 -1.44887,-0.36216 -1.13034,0.10709" style="fill:none;stroke:#000000;stroke-width:2.61538;stroke-linecap:round;stroke-linejoin:round;stroke-miterlimit:10;stroke-dasharray:none;stroke-opacity:1" id="path1922" sodipodi:nodetypes="ccccc" />
         </g>
         <g id="g1924" transform="scale(1,-1)">
            <path d="m 770.316,-736.41 c 0.42273,21.85583 0.8079,42.58646 0.856,64.445" style="fill:none;stroke:#000000;stroke-width:2.61538;stroke-linecap:round;stroke-linejoin:round;stroke-miterlimit:10;stroke-dasharray:none;stroke-opacity:1" id="path1926" sodipodi:nodetypes="cc" />
         </g>
         <g id="g1928" transform="scale(1,-1)">
            <path d="m 776.848,-751.246 c 33.91062,2.50648 68.42287,4.27389 102.34,6.691" style="fill:none;stroke:#000000;stroke-width:2.61538;stroke-linecap:round;stroke-linejoin:round;stroke-miterlimit:10;stroke-dasharray:none;stroke-opacity:1" id="path1930" sodipodi:nodetypes="cc" />
         </g>
         <g id="g1932" transform="scale(1,-1)">
            <path d="m 777.48,-692.828 c 19.91117,0.55071 39.81435,1.92996 59.73696,2.49834 13.44298,0.49946 29.60693,0.94072 43.05222,1.37263 l -2.96018,-0.12097 -0.051,-0.024" style="fill:none;stroke:#000000;stroke-width:2.61538;stroke-linecap:round;stroke-linejoin:round;stroke-miterlimit:10;stroke-dasharray:none;stroke-opacity:1" id="path1934" sodipodi:nodetypes="ccccc" />
         </g>
         <g id="g1936" transform="scale(1,-1)">
            <path d="m 782.547,-670.586 c -0.005,2.35562 -0.11068,5.89053 -3.5274,4.90617 -11.55047,0.38685 -23.10576,-0.60834 -34.58539,-1.6965 -0.11007,-1.38614 -0.23027,-4.25926 -0.25056,-6.1644 -0.0743,-9.83903 0.12113,-19.71825 1.31569,-29.49181 0.25356,-2.08943 -0.24467,-3.00414 2.59035,-3.09288 7.09297,-0.15952 14.19894,0.6098 21.28131,0.0315" style="fill:none;stroke:#000000;stroke-width:1.30769;stroke-linecap:round;stroke-linejoin:round;stroke-miterlimit:10;stroke-dasharray:none;stroke-opacity:1" id="path1938" sodipodi:nodetypes="ccccccc" />
         </g>
         <g id="g1940" transform="scale(1,-1)">
            <path d="m 755.516,-667.023 c 4.38791,-3.6808 7.88656,-8.84899 8.28339,-14.69781 0.73849,-5.44026 -1.18311,-10.72196 -2.96557,-15.75696 -1.90235,-3.54706 -4.82474,-6.50521 -8.24684,-8.6039 l -0.35692,-0.0377" style="fill:none;stroke:#000000;stroke-width:1.30769;stroke-linecap:round;stroke-linejoin:round;stroke-miterlimit:10;stroke-dasharray:none;stroke-opacity:1" id="path1942" sodipodi:nodetypes="ccccc" />
         </g>
         <g id="g1944" transform="scale(1,-1)">
            <path d="m 744.172,-672.488 c 3.3673,-0.69974 5.98574,-3.36991 7.39291,-6.40951 1.69187,-3.53027 2.13154,-7.62908 1.20409,-11.43586 -0.67709,-2.87246 -1.96664,-5.65404 -3.92265,-7.87405 -0.47331,-0.35426 -2.94344,-1.53799 -3.51977,-0.69056" style="fill:none;stroke:#000000;stroke-width:1.30769;stroke-linecap:round;stroke-linejoin:round;stroke-miterlimit:10;stroke-dasharray:none;stroke-opacity:1" id="path1946" sodipodi:nodetypes="ccccc" />
         </g>
         <g id="g1948" transform="scale(1,-1)">
            <path d="m 747.039,-691.852 c -0.26802,1.53185 0.33831,3.01924 2.08313,2.89564 1.476,1.39108 -2.26108,1.73638 -0.24928,2.77801 1.4014,0.43664 2.17423,2.45472 0.44323,3.04385 -1.74729,0.562 -1.32353,2.40631 -0.88332,3.73317 0.47527,1.98917 -1.85645,1.58716 -3.05176,1.54394 0.43404,0.50569 1.47351,2.47151 0.0962,2.40837" style="fill:none;stroke:#000000;stroke-width:1.30769;stroke-linecap:round;stroke-linejoin:round;stroke-miterlimit:10;stroke-dasharray:none;stroke-opacity:1" id="path1950" />
         </g>
         <g id="g1952" transform="scale(1,-1)">
            <path d="m 782.988,-683.344 0.008,-0.004 h 0.047 l 0.102,0.012 0.128,0.008 0.129,0.004 0.133,0.004 0.145,0.015 0.129,0.008 0.117,0.004 0.121,0.004 c 29.832,1.25 60.41,2.812 89.613,2.289 h 0.028 l 0.062,-0.016 0.035,0.012 -0.117,-0.012 c -0.16,0.004 -0.008,0.012 0.012,-0.011 l -0.016,-0.035 -0.023,-0.02 c -0.024,-0.008 -0.004,0.004 -0.004,0.008 l 0.004,0.015" style="fill:none;stroke:#000000;stroke-width:1.30769;stroke-linecap:round;stroke-linejoin:round;stroke-miterlimit:10;stroke-dasharray:none;stroke-opacity:1" id="path1954" />
         </g>
         <g id="g1956" transform="scale(1,-1)">
            <path d="m 825,-711.566 c 0.36378,-7.65043 2.02754,-15.22219 1.70881,-22.90602 -1.89897,-0.58394 -3.69002,-0.79934 -3.69002,-0.79934 0,0 -3.9595,-0.17177 -5.93564,-0.22078 -5.05258,-0.0286 -10.10471,0.15695 -15.15718,0.0623 -1.52882,6.45097 -1.78261,15.8029 -1.27317,22.17577 1.22274,1.3312 4.78611,1.06411 4.78611,1.06411 L 825,-711.566" style="fill:none;stroke:#000000;stroke-width:1.30769;stroke-linecap:round;stroke-linejoin:round;stroke-miterlimit:10;stroke-dasharray:none;stroke-opacity:1" id="path1958" sodipodi:nodetypes="cccccccc" />
         </g>
         <g id="g1960" transform="scale(1,-1)">
            <path d="m 808.92466,-712.29333 c 0.91791,-1.30752 0.80768,-3.69689 0.91751,-5.19884 0.004,-0.9838 0.0943,-2.03129 -0.31394,-2.95072 -0.59846,-1.14104 -1.0746,-2.37713 -1.98996,-3.31429 -0.45277,-0.58285 -0.68029,-1.32603 -1.26703,-1.80924 -0.85703,-0.8132 -1.87219,-1.48634 -3.02252,-1.79666 -0.45013,-0.22848 -1.69127,-0.315 -2.19237,-0.26587" style="fill:none;stroke:#000000;stroke-width:1.30769;stroke-linecap:round;stroke-linejoin:round;stroke-miterlimit:10;stroke-dasharray:none;stroke-opacity:1" id="path1962" sodipodi:nodetypes="ccccccc" />
         </g>
         <g id="g1968" transform="scale(1,-1)">
            <path d="m 800.66862,-724.422 c 0.88748,-0.0393 2.67907,0.801 3.17138,1.406 0.41421,0.70589 0.94475,1.33686 1.34011,2.05447 0.6839,0.56445 -0.55963,1.57098 0.34639,2.14416 0.59404,0.2825 1.13366,0.6571 1.00588,1.39977 0.21089,0.8706 -0.46572,1.59571 -0.41289,2.43697 0.13773,0.65741 -1.08306,2.52043 -1.88234,2.56421" style="fill:none;stroke:#000000;stroke-width:1.30769;stroke-linecap:round;stroke-linejoin:round;stroke-miterlimit:10;stroke-dasharray:none;stroke-opacity:1" id="path1970" sodipodi:nodetypes="ccccccc" />
         </g>
         <g id="g1972" transform="scale(1,-1)">
            <path d="m 823.29883,-711.888 c 2.48549,-6.31189 1.13083,-14.44266 -3.29588,-19.40229 -0.88723,-0.97921 -4.22546,-3.36389 -5.35415,-4.05819" style="fill:none;stroke:#000000;stroke-width:1.30769;stroke-linecap:round;stroke-linejoin:round;stroke-miterlimit:10;stroke-dasharray:none;stroke-opacity:1" id="path1974" sodipodi:nodetypes="ccc" />
         </g>
         <g id="g1976" transform="scale(1,-1)">
            <path d="m 823.398,-729.941 c -0.30958,-0.17946 0.42161,-0.18869 0.17928,-0.55382 -0.0887,-0.68055 -0.27422,-1.36109 -0.64074,-1.94741 -0.15357,-0.50795 -0.64038,-0.95025 -1.07289,-1.14981 l -0.0935,0.0436 -0.079,0.0651" style="fill:none;stroke:#000000;stroke-width:1.30769;stroke-linecap:round;stroke-linejoin:round;stroke-miterlimit:10;stroke-dasharray:none;stroke-opacity:1" id="path1978" />
         </g>
         <g id="g1980" transform="scale(1,-1)">
            <path d="m 797.746,-712.688 c -5.05768,-0.55964 -10.14132,-0.92365 -15.16557,-1.75387 0.43361,-6.87741 -0.10338,-14.42423 1.68781,-20.56072 2.53276,-1.31703 5.4511,-0.50541 8.15714,-0.87567 2.30064,-0.0408 4.60374,-0.0753 6.90266,0.0469" style="fill:none;stroke:#000000;stroke-width:1.30769;stroke-linecap:round;stroke-linejoin:round;stroke-miterlimit:10;stroke-dasharray:none;stroke-opacity:1" id="path1982" sodipodi:nodetypes="ccccc" />
         </g>
         <g id="g1984" transform="scale(1,-1)">
            <path d="m 705.961,-648.777 c -0.78543,1.39765 -2.65535,1.32105 -4.03879,1.13368 -1.29788,0.0952 -3.05637,-0.91712 -2.44929,-2.42793 0.98635,-0.82813 2.38772,0.10957 3.57118,-0.20572 1.19836,-0.0532 2.48501,-0.44033 3.2219,-1.45003 -0.36791,-1.76186 -2.80894,-1.14706 -4.1476,-1.45378 -1.08759,-0.057 -2.37092,-0.0205 -3.1614,0.84478" style="fill:none;stroke:#000000;stroke-width:1.30769;stroke-linecap:round;stroke-linejoin:round;stroke-miterlimit:10;stroke-dasharray:none;stroke-opacity:1" id="path1986" />
         </g>
         <g id="g1988" transform="scale(1,-1)">
            <path d="m 713.402,-647.48 c -1.75363,-0.11586 -3.29193,-1.71431 -3.03301,-3.51227 0.13575,-1.75385 2.2913,-2.33241 3.74777,-1.96336 1.5727,0.0875 3.48194,1.64806 2.17416,3.24982 -1.05867,0.94125 -1.41235,1.85353 -2.88892,2.22581" style="fill:none;stroke:#000000;stroke-width:1.30769;stroke-linecap:round;stroke-linejoin:round;stroke-miterlimit:10;stroke-dasharray:none;stroke-opacity:1" id="path1990" sodipodi:nodetypes="ccccc" />
         </g>
         <g id="g1992" transform="scale(1,-1)">
            <path d="m 721.188,-652.598 c -0.0252,1.32303 0.2146,2.67047 -0.30425,3.94065 0.39741,1.71658 1.73292,-0.94058 2.54983,-1.29638 0.83701,-0.58409 2.49555,-2.57 3.20636,-1.22152 0.36654,1.3328 -1.18347,3.01522 -0.077,4.11219 l 0.0659,0.0361" style="fill:none;stroke:#000000;stroke-width:1.30769;stroke-linecap:round;stroke-linejoin:round;stroke-miterlimit:10;stroke-dasharray:none;stroke-opacity:1" id="path1994" />
         </g>
         <g id="g1996" transform="scale(1,-1)">
            <path d="m 731.324,-647.902 c 0.77201,-1.09353 2.3952,-0.99069 3.348,-1.856" style="fill:none;stroke:#000000;stroke-width:1.30769;stroke-linecap:round;stroke-linejoin:round;stroke-miterlimit:10;stroke-dasharray:none;stroke-opacity:1" id="path1998" />
         </g>
         <g id="g2000" transform="scale(1,-1)">
            <path d="m 737.457,-647.57 c -0.84915,-0.67778 -1.60609,-2.24095 -2.60489,-2.32802" style="fill:none;stroke:#000000;stroke-width:1.30769;stroke-linecap:round;stroke-linejoin:round;stroke-miterlimit:10;stroke-dasharray:none;stroke-opacity:1" id="path2002" />
         </g>
         <g id="g2004" transform="scale(1,-1)">
            <path d="m 735.281,-650.09 c 0.0808,-1.13202 -0.18726,-2.26158 -0.531,-3.332" style="fill:none;stroke:#000000;stroke-width:1.30769;stroke-linecap:round;stroke-linejoin:round;stroke-miterlimit:10;stroke-dasharray:none;stroke-opacity:1" id="path2006" />
         </g>
         <g id="g2008" transform="scale(1,-1)">
            <path d="m 783.547,-697.949 -0.004,-0.004 -0.02,0.008 -0.023,-0.016 h -0.031 l -0.028,0.027 0.032,-0.007 0.007,0.007 -0.015,0.004 h -0.012 l -0.004,0.012 h -0.023 l -0.012,-0.012 h 0.024 l -0.008,0.024 0.004,-0.004 -0.02,0.012 -0.004,0.007 v 0.008 h 0.016 l 0.004,0.008 v 0.008 h 0.004 l 0.027,0.008 0.012,-0.004 h -0.016 v 0.004 l -0.008,0.007 -0.043,0.004 h -0.027 0.004 v 0.012 l 0.004,-0.008 0.011,-0.015 0.004,0.015 -0.027,-0.008 v -0.027 l 0.016,0.004 -0.008,0.004 0.027,-0.004 h 0.012 l -0.024,-0.004 -0.015,0.012 -0.031,0.015 -0.028,0.02 -0.012,0.008 -0.164,0.015 -0.019,0.004 h -0.031 l -0.032,0.004 h -0.031 l 0.039,-0.004 h -0.094 l -0.054,0.012 -0.067,-0.008 h -0.07 l -0.078,0.012 -0.066,-0.027 -0.04,-0.012 -0.054,-0.004 -0.067,-0.016 -0.062,0.004 h -0.063 l -0.066,-0.011 -0.066,-0.008 -0.067,-0.016 -0.066,-0.004 -0.067,-0.015 -0.066,-0.02 h -0.074 l -0.059,-0.016 -0.047,-0.015 -0.133,-0.039 -0.07,-0.012 -0.066,-0.02 -0.028,-0.035 -0.046,-0.023 -0.079,-0.024 h -0.074 l -0.066,-0.003 -0.055,-0.012 -0.035,-0.02 -0.063,-0.015 -0.089,-0.028 -0.079,-0.039 -0.07,-0.023 -0.062,-0.059 -0.059,-0.043 h -0.004 l -0.051,-0.031 -0.086,-0.02 -0.066,-0.027 -0.059,-0.012 h -0.031 l -0.09,-0.019 -0.054,-0.027 0.027,-0.016 -0.008,-0.031 -0.015,-0.012 0.003,-0.016 0.059,-0.015 -0.004,-0.008 h -0.062 l 0.027,-0.004 0.008,0.012 0.011,0.008 h 0.016 l 0.035,-0.004 0.035,0.007 -0.011,0.008 0.011,-0.008 0.032,0.004 0.004,-0.007 0.019,0.003 -0.004,-0.003 -0.015,-0.004 h 0.004 v 0.023 l 0.003,-0.004 0.024,-0.008 0.027,-0.007 -0.004,-0.008 h -0.004 l -0.007,-0.02 0.007,-0.019 0.036,-0.012 0.035,-0.039 0.015,-0.035 0.039,-0.024 0.039,-0.027 0.051,-0.004 0.024,-0.023 0.047,-0.032 0.07,-0.015 0.051,-0.008 0.039,-0.02 0.043,-0.027 0.066,-0.023 0.121,0.011 h 0.102 l 0.035,-0.008 h 0.047 l 0.047,-0.003 0.05,0.011 0.059,0.004 0.07,-0.004 h 0.067 l 0.051,0.004 0.054,-0.008 0.051,-0.011 0.004,0.011 h 0.133 l 0.05,-0.019 0.047,-0.012 0.043,-0.004 0.078,-0.004 0.125,-0.004 h 0.032 l 0.023,-0.011 0.039,-0.012 0.051,-0.02 0.07,0.004 -0.043,-0.011 0.024,-0.047 0.125,-0.024 0.097,-0.035 0.079,-0.012 0.058,-0.019 0.098,-0.02 0.074,-0.011 0.023,-0.016 0.036,-0.02 0.023,-0.007 0.031,-0.024 0.039,-0.039 0.036,-0.015 0.062,-0.039 0.035,-0.024 0.035,-0.019 0.035,-0.024 0.047,-0.043 0.02,-0.051 0.008,-0.05 0.027,-0.043 0.027,-0.051 0.047,-0.102 0.028,-0.047 0.027,-0.035 0.019,-0.054 0.02,-0.059 0.02,-0.051 0.019,-0.058 0.031,-0.051 0.012,-0.039 -0.004,-0.039 0.008,-0.039 v -0.039 l 0.016,-0.032 -0.012,-0.035 -0.047,-0.051 -0.012,-0.054 0.039,-0.039 0.008,-0.051 0.008,-0.055 -0.008,-0.051 0.024,-0.05 0.031,-0.036 -0.02,-0.046 -0.015,-0.047 -0.02,-0.039 -0.015,-0.02 -0.036,-0.019 0.004,-0.059 -0.004,-0.055 -0.043,-0.043 -0.027,-0.031 -0.027,-0.023 -0.024,-0.02 -0.078,-0.031 -0.066,-0.039 0.008,-0.024 -0.047,-0.031 -0.047,-0.043 -0.035,-0.023 -0.028,-0.02 v -0.031 l -0.05,-0.024 -0.098,-0.023 -0.078,-0.02 -0.063,-0.031 -0.066,-0.019 -0.145,-0.012 -0.133,-0.031 -0.023,-0.024 -0.066,-0.011 -0.082,0.011 -0.063,-0.011 -0.047,-0.016 -0.09,0.004 -0.101,0.004 -0.09,0.004 -0.074,0.015 -0.082,-0.004 -0.086,0.004 -0.082,0.016 -0.086,0.019 -0.082,0.012 -0.074,0.02 -0.079,0.035 -0.07,0.015 -0.082,0.012 -0.094,0.02 -0.09,0.023 -0.082,0.024 -0.074,0.035 -0.066,0.027 -0.063,0.024 -0.144,0.027 -0.098,0.031 0.031,0.016 -0.007,0.023 v 0.016 l -0.004,0.019 0.007,0.024 0.016,0.019 V -701 l 0.024,0.07 -0.008,0.047 -0.078,0.047 -0.024,0.07 0.051,0.043 0.023,0.125" style="fill:none;stroke:#000000;stroke-width:1.30769;stroke-linecap:round;stroke-linejoin:round;stroke-miterlimit:10;stroke-dasharray:none;stroke-opacity:1" id="path2010" />
         </g>
         <g id="g2012" transform="scale(1,-1)">
            <path d="m 788.93,-698.219 h 0.004 l -0.012,0.008 -0.02,-0.004 -0.011,0.008 -0.032,0.023 -0.015,-0.007 0.008,0.007 -0.004,-0.007 -0.024,-0.016 -0.004,-0.012 -0.008,-0.004 -0.039,0.008 h -0.007 l 0.007,0.004 h -0.003 l -0.008,-0.004 -0.004,-0.008 -0.028,0.004 0.024,-0.011 0.027,-0.016 -0.062,-0.008 -0.024,-0.023 -0.078,-0.012 -0.004,-0.012 0.02,-0.011 h -0.02 l -0.015,-0.012 -0.02,-0.028 -0.019,-0.023 0.035,-0.031 0.008,-0.043 -0.047,-0.043 -0.032,-0.039 -0.05,-0.028 -0.039,-0.043 -0.086,-0.054 -0.059,-0.067 0.016,-0.043 -0.012,-0.05 -0.059,-0.098 -0.035,-0.074 -0.054,-0.059 -0.008,-0.066 -0.035,-0.055 -0.036,-0.066 -0.004,-0.067 -0.015,-0.051 0.062,-0.062 -0.011,-0.066 -0.071,-0.047 0.008,-0.063 -0.004,-0.047 -0.011,-0.051 0.011,-0.062 -0.008,-0.043 v -0.055 l 0.024,-0.047 0.012,-0.043 0.027,-0.027 0.012,-0.031 0.054,-0.043 0.024,-0.047 0.023,-0.023 0.024,-0.028 0.015,-0.031 0.035,-0.047 0.016,-0.023 0.043,-0.004 0.043,-0.028 0.043,-0.003 0.027,-0.008 h 0.028 l 0.011,0.004 0.028,-0.004 0.074,-0.008 h 0.074 l 0.074,-0.012 0.078,-0.011 0.079,-0.004 0.082,0.011 0.082,0.004 0.066,0.004 0.055,0.004 0.062,0.016 0.074,0.007 0.063,0.02 0.121,0.008 0.098,0.019 -0.02,0.032 0.031,0.027 0.047,0.027 0.039,0.035 -0.031,0.043 0.012,0.036 0.055,0.039 0.039,0.046 0.027,0.051 0.023,0.043 0.051,0.032 0.063,0.05 -0.016,0.051 -0.023,0.059 -0.008,0.078 0.004,0.058 -0.008,0.051 -0.074,0.059 -0.035,0.058 0.035,0.043 v 0.125 l -0.016,0.063 0.035,0.043 -0.015,0.054 -0.059,0.043 -0.02,0.051 -0.031,0.055 -0.039,0.019 -0.039,0.032 -0.035,0.074 -0.047,0.078 -0.055,0.055 -0.062,0.047 -0.055,0.062 -0.055,0.047 -0.05,0.047 -0.071,0.027 -0.058,0.039 -0.039,0.051 -0.047,0.039 -0.051,0.024 -0.082,0.011 h -0.113 l -0.051,0.031 -0.02,0.012 -0.031,0.008 -0.047,0.008 h -0.047 l 0.04,0.015 -0.094,0.024 -0.071,0.035 -0.07,0.027 -0.031,0.028 -0.055,0.031 -0.004,-0.004 -0.011,0.027 -0.036,-0.003 -0.031,-0.004 -0.015,0.023 0.003,-0.004 h 0.04 -0.004 l -0.047,0.004 -0.02,0.012 -0.004,-0.004" style="fill:none;stroke:#000000;stroke-width:1.30769;stroke-linecap:round;stroke-linejoin:round;stroke-miterlimit:10;stroke-dasharray:none;stroke-opacity:1" id="path2014" />
         </g>
         <g id="g2016" transform="scale(1,-1)">
            <path d="m 793.152,-700.262 v 0.008 l 0.008,0.016 0.004,0.031 -0.047,0.035 -0.023,0.024 0.074,0.023 0.051,0.016 0.058,-0.012 0.047,-0.012 0.059,-0.004 0.082,0.012 0.008,-0.004 v -0.004 l 0.023,0.016 0.024,-0.012 0.007,0.004 -0.054,0.008 -0.024,-0.004 0.071,-0.012 0.031,0.008 0.019,0.027 0.02,0.012 0.027,0.008 -0.023,0.027 -0.008,0.004 0.035,0.024 0.027,0.035 v -0.012 0.004 l 0.055,0.027 0.02,0.035 -0.051,0.032 -0.012,0.043 0.008,0.031 -0.004,0.023 -0.023,0.035 -0.016,0.043 0.027,0.039 0.016,0.047 0.004,0.043 0.004,0.067 -0.012,0.07 0.055,0.047 0.035,0.062 -0.039,0.063 -0.004,0.07 -0.008,0.067 -0.004,0.07 -0.004,0.066 -0.004,0.071 -0.011,0.078 -0.02,0.082 -0.023,0.078 -0.024,0.113 -0.039,0.102 -0.015,0.066 -0.012,0.074 -0.02,0.082 -0.023,0.075 -0.024,0.058 -0.019,0.059 -0.047,0.058 -0.019,0.047 0.011,0.047 -0.023,0.043 -0.004,0.035 -0.004,0.024 0.004,0.027 0.031,0.02 0.004,0.035 -0.043,0.023 -0.027,0.039 -0.016,0.047 -0.129,0.028 -0.082,0.035 0.074,0.011 0.039,0.024 0.016,0.012 0.016,0.015 0.027,0.008 0.055,0.008 0.035,-0.004 h -0.016 0.008 l 0.016,-0.024 -0.028,0.004 -0.023,-0.004 0.019,-0.003 0.016,-0.012 h 0.016 l 0.015,-0.004 0.016,-0.02 0.016,-0.007 0.004,-0.004 0.019,-0.008 h 0.012 l 0.015,-0.004 0.036,-0.004 0.085,-0.004 0.075,-0.019 0.008,-0.012 0.046,-0.02 0.047,-0.007 0.071,-0.016 0.074,-0.051 0.07,-0.039 0.082,-0.043 0.086,-0.043 0.106,-0.051 0.109,-0.035 0.105,-0.047 0.086,-0.078 0.129,-0.07 0.422,-0.223 0.141,-0.07 0.14,-0.063 0.141,-0.066 0.125,-0.066 0.121,-0.079 0.113,-0.078 0.11,-0.062 0.097,-0.063 0.063,-0.074 0.082,-0.066 0.125,-0.063 0.101,-0.07 0.098,-0.063 0.094,-0.058 0.023,-0.047 0.063,-0.063 0.129,-0.058 0.109,-0.039 0.086,-0.067 0.059,-0.054 0.07,-0.032 0.121,-0.039 0.109,-0.039 0.004,-0.035 0.086,-0.062 0.039,-0.035 -0.047,-0.02 0.016,-0.023 0.082,-0.016 0.047,-0.004 0.012,-0.004 0.004,0.012 0.004,0.008 0.027,0.011 -0.008,0.008 -0.023,0.012 -0.012,0.016 h -0.008 l -0.019,0.003 -0.047,0.016 h -0.024 l 0.004,0.016 -0.012,0.027 -0.007,0.031 v 0.004 l 0.027,0.004 v 0.012 l -0.016,0.023 0.028,0.039 0.023,0.043 0.012,0.039 0.008,0.039 0.031,0.055 0.031,0.066 -0.008,0.067 0.004,0.078 0.008,0.094 0.004,0.078 -0.008,0.078 -0.015,0.086 0.007,0.09 0.012,0.094 v 0.089 l 0.004,0.09 -0.023,0.082 -0.067,0.063 -0.012,0.082 0.043,0.062 0.008,0.047 -0.004,0.035 v 0.024 l 0.004,0.031 0.012,0.039 -0.008,0.02 -0.012,0.023 -0.004,0.027 -0.015,0.032 -0.051,0.035 -0.02,0.027 0.016,0.016 -0.012,0.027 -0.015,0.016 -0.008,0.027 -0.004,0.024 0.027,0.015 v 0.031 l -0.015,0.02 -0.004,0.016 -0.012,0.031 0.008,0.031 0.078,0.016 0.07,0.031" style="fill:none;stroke:#000000;stroke-width:1.30769;stroke-linecap:round;stroke-linejoin:round;stroke-miterlimit:10;stroke-dasharray:none;stroke-opacity:1" id="path2018" />
         </g>
         <g id="g2020" transform="scale(1,-1)">
            <path d="m 800.41,-697.5 -0.012,-0.004 -0.031,-0.012 -0.015,-0.019 -0.024,-0.016 -0.019,-0.039 -0.012,-0.027 0.172,-0.016 0.097,-0.043 -0.121,-0.004 -0.023,-0.023 -0.016,0.008 v 0.004 -0.004 l -0.031,-0.004 h 0.016 l 0.039,0.004 0.031,-0.016 h 0.047 l 0.035,-0.004 0.07,-0.023 0.059,-0.035 0.047,-0.024 0.062,-0.023 0.071,-0.024 0.062,-0.039 0.051,-0.015 0.058,-0.012 0.079,-0.008 0.05,-0.016 0.047,-0.027 0.059,-0.008 0.062,-0.004 0.086,-0.031 0.059,-0.016 0.062,-0.015 0.051,-0.024 0.055,-0.015 0.004,-0.008 0.027,-0.02 0.051,-0.023 0.043,-0.012 0.039,-0.019 v -0.02 l 0.035,-0.019 h 0.066 l 0.043,-0.02 -0.027,-0.012 0.016,-0.019 0.015,-0.016 0.02,-0.004 -0.012,-0.004 -0.008,-0.011 0.039,-0.008 0.024,0.019 0.027,0.004 0.035,-0.007 h -0.004 l -0.011,-0.008 h -0.02 l -0.008,-0.008 -0.004,0.004 -0.003,-0.008 -0.012,0.004 h -0.004 l 0.019,0.019 0.032,-0.007 -0.028,-0.02 0.028,-0.015" style="fill:none;stroke:#000000;stroke-width:1.30769;stroke-linecap:round;stroke-linejoin:round;stroke-miterlimit:10;stroke-dasharray:none;stroke-opacity:1" id="path2022" />
         </g>
         <g id="g2024" transform="scale(1,-1)">
            <path d="m 802.973,-697.52 h -0.024 l -0.027,0.004 h -0.027 l -0.02,-0.004 v -0.003 h -0.027 l -0.036,-0.02 0.02,0.012 0.012,0.004 0.004,0.027 -0.036,-0.02 -0.05,-0.019 0.031,-0.004 0.035,-0.004 0.008,-0.012 -0.004,-0.011 0.012,-0.012 0.027,-0.008 0.02,-0.019 -0.012,-0.008 -0.004,-0.016 -0.008,-0.012 h -0.015 l -0.008,-0.011 0.023,-0.028 -0.012,-0.031 -0.058,-0.023 -0.027,-0.035 -0.028,-0.016 -0.031,-0.023 -0.121,-0.032 -0.082,-0.039 0.035,-0.023 -0.031,-0.039 -0.024,-0.047 -0.039,-0.039 -0.019,-0.031 0.023,-0.04 -0.047,-0.039 -0.086,-0.043 -0.058,-0.046 -0.047,-0.059 -0.067,-0.043 -0.171,-0.02 -0.102,-0.043 0.051,-0.031 -0.047,-0.039 -0.031,-0.035 -0.02,-0.027 -0.008,-0.008 -0.008,-0.016 -0.027,-0.023 -0.019,-0.024 -0.012,-0.004 -0.004,-0.043 0.004,-0.043 0.008,0.008 -0.004,-0.011 -0.012,-0.008 v -0.008 l -0.012,0.004 -0.011,-0.008 0.023,-0.012 h -0.019 v -0.004 h -0.012 l -0.008,-0.019 -0.027,-0.012 0.011,-0.015 v -0.012 l -0.011,-0.004 -0.004,-0.004 -0.004,0.004 h -0.004 l 0.023,-0.012 0.004,0.016 -0.023,-0.004 -0.004,-0.023 v -0.016 l -0.004,-0.004 -0.039,0.008 -0.008,0.004" style="fill:none;stroke:#000000;stroke-width:1.30769;stroke-linecap:round;stroke-linejoin:round;stroke-miterlimit:10;stroke-dasharray:none;stroke-opacity:1" id="path2026" />
         </g>
         <g id="g2028" transform="scale(1,-1)">
            <path d="m 801.766,-699.039 -0.004,0.004 -0.012,0.004 h -0.012 l -0.058,-0.004 -0.098,-0.016 0.035,-0.023 0.024,-0.024 0.004,-0.035 0.003,-0.015 0.004,-0.012 0.086,-0.043 0.063,-0.02 -0.02,-0.027 -0.008,-0.039 -0.007,-0.035 0.004,-0.031 -0.032,-0.032 0.016,-0.031 0.055,-0.027 -0.02,-0.024 -0.016,-0.043 0.008,-0.004 0.012,-0.019 0.008,-0.059 0.004,-0.027 0.004,-0.024 0.011,-0.031 0.016,-0.043 0.012,-0.031 -0.008,-0.023 0.012,-0.036 0.023,-0.023 v -0.039 l 0.02,-0.027 0.003,-0.02 0.024,-0.031 0.012,-0.047 -0.004,-0.043 0.011,-0.035 0.004,-0.024 0.012,-0.035 0.004,-0.039 -0.039,-0.027 0.012,-0.039 0.035,-0.028 -0.004,-0.027 0.004,-0.027 0.004,-0.024 0.031,-0.023 0.055,-0.024 -0.016,-0.019 -0.039,-0.039 -0.016,-0.047" style="fill:none;stroke:#000000;stroke-width:1.30769;stroke-linecap:round;stroke-linejoin:round;stroke-miterlimit:10;stroke-dasharray:none;stroke-opacity:1" id="path2030" />
         </g>
         <g id="g2032" transform="scale(1,-1)">
            <path d="m 866.59,-695.441 c -0.91798,1.56983 -3.22256,1.05011 -4.36464,0.0442 -1.54719,-1.28528 -1.38935,-3.45707 -1.3133,-5.26586 -0.024,-1.80744 1.81313,-3.08587 3.50821,-2.484 1.50802,0.13546 2.79024,1.95258 1.62848,3.23103 -1.1476,1.10196 -2.77201,0.0329 -3.79094,-0.7186 -0.006,-0.0445 -0.4462,-0.33018 -0.22243,-0.36196" style="fill:none;stroke:#000000;stroke-width:1.30769;stroke-linecap:round;stroke-linejoin:round;stroke-miterlimit:10;stroke-dasharray:none;stroke-opacity:1" id="path2034" sodipodi:nodetypes="ccccccc" />
         </g>
         <g id="g2036" transform="scale(1,-1)">
            <path d="m 870.44502,-695.71497 c -1.5257,-0.40512 -1.46155,-1.34394 -1.82459,-2.76356 -0.19797,-1.54619 0.67519,-3.28878 2.1222,-3.92654 1.34507,-0.66691 2.58088,0.5467 2.98027,1.75306 0.69928,1.40856 -0.42835,2.77047 -1.35141,3.73882 -0.49153,0.58696 -1.12047,1.15651 -1.92647,1.19822" style="fill:none;stroke:#000000;stroke-width:1.30769;stroke-linecap:round;stroke-linejoin:round;stroke-miterlimit:10;stroke-dasharray:none;stroke-opacity:1" id="path2038" sodipodi:nodetypes="cccccc" />
         </g>
         <g id="g2040" transform="scale(1,-1)">
            <path d="m 826.52,-656.941 c 0.886,4.117 1.714,8.066 2.597,11.687 l 0.008,0.039 0.023,0.039 0.032,0.051 0.023,0.031 0.008,0.032 0.012,0.035 0.019,0.011 -0.035,0.008 h -0.016 l 0.036,0.004 0.027,0.016 0.012,-0.012 0.019,0.008 0.07,-0.008 0.106,0.004 -0.016,0.008 -0.023,-0.004 v -0.012 l 0.016,0.024 0.015,0.019" style="fill:none;stroke:#000000;stroke-width:1.30769;stroke-linecap:round;stroke-linejoin:round;stroke-miterlimit:10;stroke-dasharray:none;stroke-opacity:1" id="path2042" />
         </g>
         <g id="g2044" transform="scale(1,-1)">
            <path d="m 829.309,-644.957 c 8.457,0.305 38.437,1.43 46.629,1.492" style="fill:none;stroke:#000000;stroke-width:1.30769;stroke-linecap:round;stroke-linejoin:round;stroke-miterlimit:10;stroke-dasharray:none;stroke-opacity:1" id="path2046" />
         </g>
         <g id="g2048" transform="scale(1,-1)">
            <path d="m 875.961,-643.488 c -0.785,-3.149 -1.598,-8.586 -2.266,-11.555" style="fill:none;stroke:#000000;stroke-width:1.30769;stroke-linecap:round;stroke-linejoin:round;stroke-miterlimit:10;stroke-dasharray:none;stroke-opacity:1" id="path2050" />
         </g>
         <g id="g2052" transform="scale(1,-1)">
            <path d="m 826.809,-656.984 h -0.004 l -0.012,0.007 0.008,0.004 -0.024,0.008 h 0.008 v -0.008 l -0.008,-0.004 -0.039,0.012 -0.015,-0.015 0.062,0.007 h -0.019 l 0.004,-0.011 h 0.05 l 0.106,0.011 -0.012,-0.004 -0.055,-0.007 -0.007,-0.024 0.015,0.004 h -0.004 l -0.051,0.004 -0.019,-0.004 0.039,0.008 0.008,-0.008 0.004,0.004 0.062,0.004 0.028,-0.016 -0.02,-0.011 0.02,-0.004 0.011,-0.012 0.02,-0.008 0.035,-0.015 c 15.16,0.265 31.191,1.871 46.129,2.124 l 0.07,-0.003 0.047,0.011 h 0.152" style="fill:none;stroke:#000000;stroke-width:1.30769;stroke-linecap:round;stroke-linejoin:round;stroke-miterlimit:10;stroke-dasharray:none;stroke-opacity:1" id="path2054" />
         </g>
         <g id="g2056" transform="scale(1,-1)">
            <path d="m 833.613,-652.512 c 0.82015,1.48808 0.23516,3.31717 0.98191,4.81586 1.18238,-0.45586 2.58729,-0.7057 3.48548,-1.64613 0.88764,-1.38642 -0.56197,-3.19446 -2.07528,-3.11523 -0.83711,-0.0683 -1.68342,-0.0489 -2.51311,0.0865" style="fill:none;stroke:#000000;stroke-width:1.30769;stroke-linecap:round;stroke-linejoin:round;stroke-miterlimit:10;stroke-dasharray:none;stroke-opacity:1" id="path2058" />
         </g>
         <g id="g2060" transform="scale(1,-1)">
            <path d="m 840.906,-647.887 c 0.34979,-1.63713 1.23091,-3.12867 1.53526,-4.76506 0.10858,-1.91142 1.03485,0.75708 1.42879,1.26125 1.03549,1.38387 2.06078,2.80526 3.30222,4.00799 0.17036,0.10571 0.35796,0.1813 0.5507,0.23482" style="fill:none;stroke:#000000;stroke-width:1.30769;stroke-linecap:round;stroke-linejoin:round;stroke-miterlimit:10;stroke-dasharray:none;stroke-opacity:1" id="path2062" />
         </g>
         <g id="g2064" transform="scale(1,-1)">
            <path d="m 852.527,-647.492 c -1.36564,0.54652 -2.50015,-0.76765 -3.23665,-1.74371 -1.11396,-1.08365 -0.91557,-3.14021 0.49742,-3.87427 0.98361,-0.48609 1.9978,0.27016 2.93523,0.37598" style="fill:none;stroke:#000000;stroke-width:1.30769;stroke-linecap:round;stroke-linejoin:round;stroke-miterlimit:10;stroke-dasharray:none;stroke-opacity:1" id="path2066" />
         </g>
         <g id="g2068" transform="scale(1,-1)">
            <path d="m 854.105,-652.941 c 0.87642,1.27121 1.01287,3.07681 2.36431,4.01115 0.37771,0.6634 1.45612,1.83689 1.50831,0.30869 0.16516,-1.23139 0.39617,-3.50812 0.84373,-4.08749 l -0.0284,0.15365" style="fill:none;stroke:#000000;stroke-width:1.30769;stroke-linecap:round;stroke-linejoin:round;stroke-miterlimit:10;stroke-dasharray:none;stroke-opacity:1" id="path2070" />
         </g>
         <g id="g2072" transform="scale(1,-1)">
            <path d="m 856.191,-650.637 c -1.30297,-0.14319 1.10305,0.28583 1.40906,0.34845 0.20925,0.0427 0.4204,0.0773 0.62694,0.13255" style="fill:none;stroke:#000000;stroke-width:1.30769;stroke-linecap:round;stroke-linejoin:round;stroke-miterlimit:10;stroke-dasharray:none;stroke-opacity:1" id="path2074" />
         </g>
         <g id="g2076" transform="scale(1,-1)">
            <path d="m 860.82,-652.32 c 0.73512,1.67306 0.83044,3.55616 1.6711,5.18543 0.69416,0.2883 0.8984,-1.47416 1.3385,-1.95621 0.18172,-1.15007 1.30774,-2.28066 2.1411,-0.93963 0.94919,1.01939 1.35916,2.41843 2.32798,3.42334 0.32803,-1.06652 -0.42709,-2.37762 -0.25012,-3.55288 -0.0191,-0.80156 0.2797,-1.65094 0.0725,-2.42606" style="fill:none;stroke:#000000;stroke-width:1.30769;stroke-linecap:round;stroke-linejoin:round;stroke-miterlimit:10;stroke-dasharray:none;stroke-opacity:1" id="path2078" />
         </g>
         <g id="g2080" transform="scale(1,-1)">
            <path d="m 700.789,-667.023 c 9.48057,1.23127 19.08117,1.20332 28.54332,2.61076 5.92288,0.64985 11.87802,1.39463 17.84582,1.16001 l 0.34411,-0.0494 0.34075,-0.0694" style="fill:none;stroke:#000000;stroke-width:1.30769;stroke-linecap:round;stroke-linejoin:round;stroke-miterlimit:10;stroke-dasharray:none;stroke-opacity:1" id="path2082" />
         </g>
         <g id="g2084" transform="scale(1,-1)">
            <path d="m 698.816,-670.277 c -0.19832,-14.39763 -2.52162,-28.87866 -0.15214,-43.215" style="fill:none;stroke:#000000;stroke-width:1.30769;stroke-linecap:round;stroke-linejoin:round;stroke-miterlimit:10;stroke-dasharray:none;stroke-opacity:1" id="path2086" />
         </g>
         <g id="g2088" transform="scale(1,-1)">
            <path d="m 693.27493,-742.57403 c 22.50445,0.98451 45.59979,4.31694 68.16448,4.37907 3.42167,0.17915 4.96199,0.43372 8.37879,0.68701" style="fill:none;stroke:#000000;stroke-width:2.61538;stroke-linecap:round;stroke-linejoin:round;stroke-miterlimit:10;stroke-dasharray:none;stroke-opacity:1" id="path2090" sodipodi:nodetypes="ccc" />
         </g>
      </g>
   </g>
</svg>
