<?xml version="1.0" encoding="UTF-8" standalone="no"?>
<!-- Created by Ashley Blewer - This work is licensed under a Creative Commons Attribution 4.0 International License -->

<svg width="544" height="480" viewBox="0 0 143.93334 127" version="1.1" id="svg2490" inkscape:version="1.1.2 (08b2f3d93c, 2022-04-05)" sodipodi:docname="1997-hdcam-5.svg"
   xmlns:inkscape="http://www.inkscape.org/namespaces/inkscape"
   xmlns:sodipodi="http://sodipodi.sourceforge.net/DTD/sodipodi-0.dtd"
   xmlns="http://www.w3.org/2000/svg"
   xmlns:svg="http://www.w3.org/2000/svg">
   <sodipodi:namedview id="namedview2492" pagecolor="#ffffff" bordercolor="#666666" borderopacity="1.0" inkscape:pageshadow="2" inkscape:pageopacity="0.0" inkscape:pagecheckerboard="0" inkscape:document-units="mm" showgrid="false" units="px" inkscape:zoom="0.90583674" inkscape:cx="279.29978" inkscape:cy="194.84747" inkscape:window-width="1848" inkscape:window-height="1136" inkscape:window-x="72" inkscape:window-y="27" inkscape:window-maximized="1" inkscape:current-layer="layer1" />
   <defs id="defs2487" />
   <g inkscape:label="Layer 1" inkscape:groupmode="layer" id="layer1">
      <g id="g1849" transform="matrix(0.47215893,0,0,0.47215893,-284.77034,-219.18847)">
         <g id="g1332" transform="scale(1,-1)">
            <path d="m 668.367,-717.578 c -1.58813,2.3935 -2.64134,5.06221 -3.60856,7.7403 -0.73311,1.44671 -1.76446,2.80413 -1.99671,4.45071" style="fill:none;stroke:#000000;stroke-width:2.61538;stroke-linecap:round;stroke-linejoin:round;stroke-miterlimit:10;stroke-dasharray:none;stroke-opacity:1" id="path1334" />
         </g>
         <g id="g1336" transform="scale(1,-1)">
            <path d="m 662.535,-705.664 -6.922,231.117" style="fill:none;stroke:#000000;stroke-width:2.61538;stroke-linecap:round;stroke-linejoin:round;stroke-miterlimit:10;stroke-dasharray:none;stroke-opacity:1" id="path1338" />
         </g>
         <g id="g1340" transform="scale(1,-1)">
            <path d="m 659.578,-469.254 c -0.61298,-2.38047 -2.56722,-3.38628 -3.965,-5.293" style="fill:none;stroke:#000000;stroke-width:2.61538;stroke-linecap:round;stroke-linejoin:round;stroke-miterlimit:10;stroke-dasharray:none;stroke-opacity:1" id="path1342" sodipodi:nodetypes="cc" />
         </g>
         <g id="g1344" transform="scale(1,-1)">
            <path d="m 659.578,-469.254 9.012,-248.328" style="fill:none;stroke:#000000;stroke-width:2.61538;stroke-linecap:round;stroke-linejoin:round;stroke-miterlimit:10;stroke-dasharray:none;stroke-opacity:1" id="path1346" />
         </g>
         <g id="g1348" transform="scale(1,-1)">
            <path d="m 659.629,-468.695 131.246,-17.852" style="fill:none;stroke:#000000;stroke-width:2.61538;stroke-linecap:round;stroke-linejoin:round;stroke-miterlimit:10;stroke-dasharray:none;stroke-opacity:1" id="path1350" />
         </g>
         <g id="g1352" transform="scale(1,-1)">
            <path d="m 791.375,-486.641 c -0.81911,-25.76791 -1.82305,-50.57741 -0.95394,-76.30663" style="fill:none;stroke:#000000;stroke-width:2.61538;stroke-linecap:round;stroke-linejoin:round;stroke-miterlimit:10;stroke-dasharray:none;stroke-opacity:1" id="path1354" sodipodi:nodetypes="cc" />
         </g>
         <g id="g1356" transform="scale(1,-1)">
            <path d="m 669.656,-716.805 c 30.1016,3.67847 59.93056,9.55809 89.114,17.813" style="fill:none;stroke:#000000;stroke-width:2.61538;stroke-linecap:round;stroke-linejoin:round;stroke-miterlimit:10;stroke-dasharray:none;stroke-opacity:1" id="path1358" />
         </g>
         <g id="g1360" transform="scale(1,-1)">
            <path d="m 762.559,-564.547 -0.024,-0.004 -0.113,-0.008 -0.172,0.008 -0.172,-0.011 -0.144,0.003 -0.297,-0.007 -0.199,-0.008 0.121,-0.004 h 0.023 l 0.023,0.019 0.024,0.039 0.055,-0.003 -0.067,-0.02 -0.039,-0.008 0.078,-0.015 0.043,0.004 0.047,0.015 h 0.043 l 0.195,-0.004 0.11,-0.023 -0.063,-0.008 0.016,0.02 0.012,0.015 0.003,0.008 -0.003,0.008 0.035,0.004 v -0.008 l -0.004,-0.02 0.015,0.004 -0.011,0.004 0.07,0.004 0.043,0.004 h -0.035 l -0.02,0.004 -0.023,0.008 -0.02,0.007 0.032,-0.003 0.023,0.019 -0.039,-0.027 -0.035,-0.008 -0.012,-0.02 -0.012,-0.003 h 0.012 l -0.019,0.003 -0.008,0.02 0.008,0.008 0.007,0.004 h 0.008 l 0.004,0.007 -0.027,-0.003 0.011,-0.004 0.036,0.004 h 0.015 l 0.032,-0.016 0.019,0.004 0.098,-0.004 0.156,0.012 v -0.012 h -0.008 l 0.043,-0.016 0.074,-0.023 0.094,-0.012 -0.078,-0.008 0.016,-0.011 0.14,-0.032 0.102,-0.004 0.105,-0.011 0.102,-0.016 0.191,-0.008 0.199,-0.023 0.051,-0.024 0.059,-0.007 0.082,0.004 0.078,-0.012 0.094,-0.02 0.125,-0.004 h 0.117 l 0.051,-0.023 h 0.07 l 0.07,0.012 0.067,0.007 0.019,-0.011 -0.004,-0.008 0.082,-0.02 0.133,-0.007 0.113,-0.008 0.075,-0.035 0.066,-0.012 0.164,-0.012 0.164,-0.027 0.02,-0.024 0.062,-0.027 0.063,-0.012 0.105,-0.007 0.121,-0.004 0.063,-0.024 0.058,-0.019 0.079,-0.008 0.07,-0.004 0.074,-0.02 0.078,-0.003 0.09,-0.004 0.086,0.015 0.07,-0.008 0.075,-0.015 0.089,-0.02 0.09,-0.008 0.071,-0.003 0.093,-0.016 0.074,-0.024 0.051,-0.007 0.063,0.004 0.074,0.003 0.051,0.004 0.047,0.004 0.074,-0.011 0.094,-0.004 h 0.171 l 0.098,-0.016 -0.078,-0.004 0.039,-0.016 0.188,-0.023 0.113,0.008 0.101,-0.016 0.098,-0.004 h 0.152 l 0.278,-0.015 0.191,-0.035 0.008,-0.004 0.062,-0.008 0.063,-0.012 0.051,-0.012 -0.035,-0.007 0.007,-0.012 0.133,-0.016 0.078,0.004 0.078,-0.008 0.09,-0.007 0.098,-0.02 0.16,-0.023 0.121,-0.012 0.031,-0.004 0.055,-0.004 0.059,-0.004 h 0.16 l 0.086,-0.016 0.043,-0.003 h 0.125 l 0.117,-0.016 0.09,-0.004 0.012,-0.012 0.066,-0.007 0.121,-0.008 h 0.109 l 0.102,-0.004 0.07,-0.016 0.18,-0.008 0.141,-0.004 h 0.007 l 0.067,-0.015 0.094,-0.008 h 0.101 l 0.117,-0.023 0.106,-0.02 0.082,-0.043 0.066,-0.031 0.074,0.012 0.094,-0.004 0.016,-0.02 0.035,-0.004 h 0.078 l 0.117,-0.015 0.106,-0.028 0.086,-0.004 0.082,-0.019 -0.004,-0.02 0.125,-0.015 0.172,-0.024 0.05,-0.054 0.102,0.003 h 0.078 l 0.043,-0.007 h 0.141 l 0.148,0.004 0.028,0.007 h 0.218 l -0.09,0.004 0.016,-0.031 0.203,0.012 0.141,0.004 0.086,-0.024 0.058,0.004 0.172,-0.012 0.254,-0.007 h 0.031 l -0.031,0.003 0.094,-0.007 0.062,-0.012 h -0.027 v -0.004 l 0.117,-0.023 0.09,-0.004 0.074,-0.012 h 0.098 l 0.141,-0.02 0.046,-0.027 0.043,-0.008 0.125,-0.008 0.11,-0.003 0.082,-0.004 0.051,-0.012 0.136,-0.008 0.118,-0.023 0.003,-0.02 h 0.133 l 0.067,-0.008 0.066,-0.019 0.102,-0.008 0.097,-0.004 h 0.157 l 0.117,-0.016 0.121,-0.003 0.055,-0.012 h 0.058 l 0.055,0.015 0.062,-0.007 h 0.063 l 0.066,0.004 0.051,-0.043 0.062,-0.016 0.047,0.019 0.039,0.024 -0.015,0.004 0.035,-0.012 0.09,0.02 0.094,0.007 0.066,-0.019 h 0.086 l 0.008,0.004 0.027,-0.02 0.047,-0.004 0.035,-0.004 0.051,0.016 0.043,-0.012 0.035,-0.023 0.113,-0.012 0.114,0.012 -0.036,-0.023 0.102,-0.008 0.031,-0.043 -0.097,-0.008 v -0.012 l 0.105,-0.023 h 0.055 l 0.039,-0.004 0.031,0.004 0.172,-0.008 h 0.168 -0.039 l -0.035,0.004 -0.008,0.008 -0.008,0.019 h -0.113 l -0.012,0.016 -0.012,0.004 -0.011,0.008 0.054,-0.008 h -0.004 l -0.07,0.011 -0.016,0.004 h -0.011 l -0.032,0.016 0.016,-0.023 0.031,-0.016 -0.019,-0.012 -0.02,-0.031" style="fill:none;stroke:#000000;stroke-width:2.61538;stroke-linecap:round;stroke-linejoin:round;stroke-miterlimit:10;stroke-dasharray:none;stroke-opacity:1" id="path1362" />
         </g>
         <g id="g1364" transform="scale(1,-1)">
            <path d="m 761.648,-563.883 c 22.899,1.211 45.805,-1.539 68.684,-0.269 3.477,-0.297 8.996,0.332 11.207,0.129" style="fill:none;stroke:#000000;stroke-width:2.61538;stroke-linecap:round;stroke-linejoin:round;stroke-miterlimit:10;stroke-dasharray:none;stroke-opacity:1" id="path1366" />
         </g>
         <g id="g1368" transform="scale(1,-1)">
            <path d="m 776.625,-567.582 c 23.961,0.16 48.105,0.457 72.125,0.883 2.66,0.011 6.574,0.043 8.328,-0.215" style="fill:none;stroke:#000000;stroke-width:2.61538;stroke-linecap:round;stroke-linejoin:round;stroke-miterlimit:10;stroke-dasharray:none;stroke-opacity:1" id="path1370" />
         </g>
         <g id="g1372" transform="scale(1,-1)">
            <path d="M 761.438,-564.574 759.98,-714.215" style="fill:none;stroke:#000000;stroke-width:2.61538;stroke-linecap:round;stroke-linejoin:round;stroke-miterlimit:10;stroke-dasharray:none;stroke-opacity:1" id="path1374" sodipodi:nodetypes="cc" />
         </g>
         <g id="g1376" transform="scale(1,-1)">
            <path d="m 775.109,-566.562 -2.668,-156.114 -0.23,-1.375" style="fill:none;stroke:#000000;stroke-width:2.61538;stroke-linecap:round;stroke-linejoin:round;stroke-miterlimit:10;stroke-dasharray:none;stroke-opacity:1" id="path1378" />
         </g>
         <g id="g1380" transform="scale(1,-1)">
            <path d="m 760.387,-715.254 c 0,0 12.83997,-10.77314 12.50596,-10.78014 l 0.167,0.004 0.16701,0.003" style="fill:none;stroke:#000000;stroke-width:2.61538;stroke-linecap:round;stroke-linejoin:round;stroke-miterlimit:10;stroke-dasharray:none;stroke-opacity:1" id="path1382" sodipodi:nodetypes="cccc" />
         </g>
         <g id="g1384" transform="scale(1,-1)">
            <path d="m 773.22697,-726.02714 c 16.89811,4.70448 35.51438,9.04022 50.48403,13.16414 6.601,1.843 13.293,3.222 19.969,4.769 1.906,0.551 4.937,1.664 6.156,1.918" style="fill:none;stroke:#000000;stroke-width:2.61538;stroke-linecap:round;stroke-linejoin:round;stroke-miterlimit:10;stroke-dasharray:none;stroke-opacity:1" id="path1386" sodipodi:nodetypes="cccc" />
         </g>
         <g id="g1388" transform="scale(1,-1)">
            <path d="m 858.371,-568.918 c -1.469,-17.301 -2.894,-34.629 -2.437,-52.016 -0.25,-19.41 -0.661,-38.804 -1.454,-58.187 0.036,-8.672 -0.484,-18.203 -1.738,-26.258 -0.676,-0.336 -2.011,-0.68 -2.906,-0.797" style="fill:none;stroke:#000000;stroke-width:2.61538;stroke-linecap:round;stroke-linejoin:round;stroke-miterlimit:10;stroke-dasharray:none;stroke-opacity:1" id="path1390" sodipodi:nodetypes="ccccc" />
         </g>
         <g id="g1456" transform="scale(1,-1)">
            <path d="m 658.73469,-550.28201 c 0.26378,0.0659 4.67557,-1.21801 4.66331,-0.85099" style="fill:none;stroke:#000000;stroke-width:1.30769;stroke-linecap:round;stroke-linejoin:round;stroke-miterlimit:10;stroke-dasharray:none;stroke-opacity:1" id="path1458" sodipodi:nodetypes="cc" />
         </g>
         <g id="g1460" transform="scale(1,-1)">
            <path d="m 663.398,-551.133 c 43.422,-0.281 124.848,0.426 124.848,0.426" style="fill:none;stroke:#000000;stroke-width:1.30769;stroke-linecap:round;stroke-linejoin:round;stroke-miterlimit:10;stroke-dasharray:none;stroke-opacity:1" id="path1462" />
         </g>
         <g id="g1464" transform="scale(1,-1)">
            <path d="m 659.914,-641.75 c 0.87043,-0.047 1.11122,-1.09795 1.85247,-1.41423 0.57993,-0.2968 2.23985,-1.30728 2.61073,-1.54882" style="fill:none;stroke:#000000;stroke-width:1.30769;stroke-linecap:round;stroke-linejoin:round;stroke-miterlimit:10;stroke-dasharray:none;stroke-opacity:1" id="path1466" sodipodi:nodetypes="ccc" />
         </g>
         <g id="g1468" transform="scale(1,-1)">
            <path d="m 666.949,-644.938 c 30.09,4.606 61.414,4.126 91.156,6.883" style="fill:none;stroke:#000000;stroke-width:1.30769;stroke-linecap:round;stroke-linejoin:round;stroke-miterlimit:10;stroke-dasharray:none;stroke-opacity:1" id="path1470" />
         </g>
         <g id="g1472" transform="scale(1,-1)">
            <path d="m 760.945,-609.555 c 4.797,-1.285 9.246,-3.582 14.02,-4.937" style="fill:none;stroke:#000000;stroke-width:1.30769;stroke-linecap:round;stroke-linejoin:round;stroke-miterlimit:10;stroke-dasharray:none;stroke-opacity:1" id="path1474" />
         </g>
         <g id="g1476" transform="scale(1,-1)">
            <path d="m 760.539,-673.105 13.395,-7.375" style="fill:none;stroke:#000000;stroke-width:1.30769;stroke-linecap:round;stroke-linejoin:round;stroke-miterlimit:10;stroke-dasharray:none;stroke-opacity:1" id="path1478" />
         </g>
         <g id="g1480" transform="scale(1,-1)">
            <path d="m 775.262,-614.18 80.36493,5.293" style="fill:none;stroke:#000000;stroke-width:1.30769;stroke-linecap:round;stroke-linejoin:round;stroke-miterlimit:10;stroke-dasharray:none;stroke-opacity:1" id="path1482" sodipodi:nodetypes="cc" />
         </g>
         <g id="g1484" transform="scale(1,-1)">
            <path d="m 773.438,-680.883 c 25.312,4.215 52.32,7 77.691,10.785 l 1.269,0.282 1.04,0.05" style="fill:none;stroke:#000000;stroke-width:1.30769;stroke-linecap:round;stroke-linejoin:round;stroke-miterlimit:10;stroke-dasharray:none;stroke-opacity:1" id="path1486" />
         </g>
         <g id="g1488" transform="scale(1,-1)">
            <path d="m 768.098,-560.711 c 0.56701,0.13259 -2.04111,2.65885 -3.40768,2.64997 -2.54869,0.93524 -4.80312,-1.13328 -6.3704,-2.87603 -1.31331,-1.74031 -1.04563,-4.05168 -1.71933,-6.04563 -0.10114,-2.28804 0.40671,-4.58252 0.96377,-6.88415 -0.005,-1.53521 1.76397,-3.89722 3.25088,-2.75214 -0.12637,0.25044 -0.50317,0.33063 -0.53824,0.642" style="fill:none;stroke:#000000;stroke-width:1.30769;stroke-linecap:round;stroke-linejoin:round;stroke-miterlimit:10;stroke-dasharray:none;stroke-opacity:1" id="path1490" />
         </g>
         <g id="g1492" transform="scale(1,-1)">
            <path d="m 779.898,-558.934 c -1.15579,-0.72916 -2.01025,-3.17661 -3.0125,-3.31327 l -0.009,0.13083 -0.002,0.0264" style="fill:none;stroke:#000000;stroke-width:1.30769;stroke-linecap:round;stroke-linejoin:round;stroke-miterlimit:10;stroke-dasharray:none;stroke-opacity:1" id="path1494" />
         </g>
         <g id="g1496" transform="scale(1,-1)">
            <path d="m 779.828,-558.809 c 0.28233,-1.40117 0.99345,-2.47231 0.942,-4.023" style="fill:none;stroke:#000000;stroke-width:1.30769;stroke-linecap:round;stroke-linejoin:round;stroke-miterlimit:10;stroke-dasharray:none;stroke-opacity:1" id="path1498" />
         </g>
         <g id="g1500" transform="scale(1,-1)">
            <path d="m 838.613,-627.73 c 1.20429,1.36076 -0.0713,3.1809 0.23093,4.75135 -0.0348,2.34405 -1.34847,4.51291 -1.12185,6.86755 -0.55721,-1.7607 -1.04913,-3.54642 -2.14518,-5.05651 -0.22291,-1.31069 -2.67323,-3.01663 -1.96849,-3.81906 2.5164,0.57386 5.08575,0.79933 7.65707,0.81887" style="fill:none;stroke:#000000;stroke-width:1.30769;stroke-linecap:round;stroke-linejoin:round;stroke-miterlimit:10;stroke-dasharray:none;stroke-opacity:1" id="path1502" />
         </g>
         <g id="g1504" transform="scale(1,-1)">
            <path d="m 846.766,-616.867 c -1.9534,1.45487 -3.78719,-1.00956 -3.61137,-2.88805 -0.15527,-2.03089 -0.63445,-4.21378 0.2202,-6.14937 0.97422,-1.46901 3.32249,-0.67742 4.11677,0.62311 1.2108,1.62519 0.78412,3.75868 0.29883,5.55679 0.0166,1.74542 -1.02443,2.85752 -2.83196,3.08343" style="fill:none;stroke:#000000;stroke-width:1.30769;stroke-linecap:round;stroke-linejoin:round;stroke-miterlimit:10;stroke-dasharray:none;stroke-opacity:1" id="path1506" sodipodi:nodetypes="cccccc" />
         </g>
         <g id="g1508" transform="scale(1,-1)">
            <path d="m 799.773,-656.977 c 0.2657,-2.93531 -0.0409,-6.03926 0.16939,-9.09634 0.3928,-1.38239 -0.43229,-3.80644 0.17856,-4.67266" style="fill:none;stroke:#000000;stroke-width:1.30769;stroke-linecap:round;stroke-linejoin:round;stroke-miterlimit:10;stroke-dasharray:none;stroke-opacity:1" id="path1510" />
         </g>
         <g id="g1512" transform="scale(1,-1)">
            <path d="m 807.176,-656.879 c -0.0505,-1.96367 -0.0735,-4.24856 0.072,-6.3575 0.26461,-1.78648 -0.0748,-4.29437 -0.049,-5.5605" style="fill:none;stroke:#000000;stroke-width:1.30769;stroke-linecap:round;stroke-linejoin:round;stroke-miterlimit:10;stroke-dasharray:none;stroke-opacity:1" id="path1514" />
         </g>
         <g id="g1516" transform="scale(1,-1)">
            <path d="m 800.859,-662.68 c 1.36022,0.32836 2.7129,0.73056 4.11,0.87104" style="fill:none;stroke:#000000;stroke-width:1.30769;stroke-linecap:round;stroke-linejoin:round;stroke-miterlimit:10;stroke-dasharray:none;stroke-opacity:1" id="path1518" />
         </g>
         <g id="g1520" transform="scale(1,-1)">
            <path d="m 810.656,-656.277 c -1.46211,0.16149 0.32567,-2.10753 -0.32261,-3.10809 -0.0225,-2.3604 -0.46046,-4.87543 -0.32529,-7.10691" style="fill:none;stroke:#000000;stroke-width:1.30769;stroke-linecap:round;stroke-linejoin:round;stroke-miterlimit:10;stroke-dasharray:none;stroke-opacity:1" id="path1522" />
         </g>
         <g id="g1524" transform="scale(1,-1)">
            <path d="m 810.379,-655.676 c 1.01842,-0.43257 4.95121,0.50686 5.9105,-2.00888 0.98561,-2.28683 1.04943,-5.82755 -1.25028,-7.38592 -1.22814,-1.41826 -3.38522,-1.96473 -5.04317,-1.49118" style="fill:none;stroke:#000000;stroke-width:1.30769;stroke-linecap:round;stroke-linejoin:round;stroke-miterlimit:10;stroke-dasharray:none;stroke-opacity:1" id="path1526" />
         </g>
         <g id="g1528" transform="scale(1,-1)">
            <path d="m 826.688,-654.637 c -0.97597,2.16276 -3.88504,2.64596 -5.13322,0.42319 -1.56783,-2.27793 -2.61552,-5.31697 -1.18194,-7.92522 0.39397,-3.2178 4.78251,-3.30127 6.10139,-0.62134 0.25079,0.43923 0.24249,1.12753 0.78778,1.34237" style="fill:none;stroke:#000000;stroke-width:1.30769;stroke-linecap:round;stroke-linejoin:round;stroke-miterlimit:10;stroke-dasharray:none;stroke-opacity:1" id="path1530" />
         </g>
         <g id="g1532" transform="scale(1,-1)">
            <path d="m 828.637,-663.457 c 1.03394,1.17075 1.41612,3.04214 1.66633,4.58438 0.13459,1.52881 1.0022,2.86957 1.24626,4.37382 -0.28781,1.16173 1.22156,3.33804 1.54227,3.05168 0.60924,-1.46389 1.25202,-2.8721 1.54486,-4.46108 0.50091,-1.83683 0.99338,-3.83604 1.59273,-5.76931 0.30692,-0.17438 0.092,-0.78433 0.29793,-0.92448" style="fill:none;stroke:#000000;stroke-width:1.30769;stroke-linecap:round;stroke-linejoin:round;stroke-miterlimit:10;stroke-dasharray:none;stroke-opacity:1" id="path1534" />
         </g>
         <g id="g1536" transform="scale(1,-1)">
            <path d="m 830.637,-660.211 c 1.3635,0.603 2.92285,0.76933 4.312,1.371" style="fill:none;stroke:#000000;stroke-width:1.30769;stroke-linecap:round;stroke-linejoin:round;stroke-miterlimit:10;stroke-dasharray:none;stroke-opacity:1" id="path1538" />
         </g>
         <g id="g1540" transform="scale(1,-1)">
            <path d="m 838.363,-661.793 c -0.0197,-1.46156 0.12772,1.57271 0.3097,2.0942 0.40113,1.79477 -0.009,3.61114 0.0803,5.41682 0.27703,0.81175 -0.45756,4.25901 0.59826,1.98259 0.71794,-2.088 2.12137,-4.07369 2.06458,-6.34634 0.42923,-2.38791 1.17073,1.03275 1.03315,1.88166 0.30661,1.55787 0.67992,3.07104 1.33015,4.546 0.64961,0.76153 0.71889,3.22936 1.73023,2.89052 0.64838,-1.74451 1.06601,-3.55715 0.97306,-5.44128 0.20275,-1.61733 0.34693,-3.22219 0.88255,-4.76306 -0.34,-0.64297 0.67524,-2.64987 0.0178,-2.61589" style="fill:none;stroke:#000000;stroke-width:1.30769;stroke-linecap:round;stroke-linejoin:round;stroke-miterlimit:10;stroke-dasharray:none;stroke-opacity:1" id="path1542" />
         </g>
         <g id="g1544" transform="scale(1,-1)">
            <path d="m 716.379,-611.227 c 0.33495,-3.35564 0.73868,-6.73634 0.42293,-10.11209 0.36746,-2.13833 0.51813,-4.17738 0.96802,-6.21191" style="fill:none;stroke:#000000;stroke-width:1.30769;stroke-linecap:round;stroke-linejoin:round;stroke-miterlimit:10;stroke-dasharray:none;stroke-opacity:1" id="path1546" />
         </g>
         <g id="g1548" transform="scale(1,-1)">
            <path d="m 717.648,-619.547 c 2.34103,0.77059 5.43504,-0.55759 7.481,0.797" style="fill:none;stroke:#000000;stroke-width:1.30769;stroke-linecap:round;stroke-linejoin:round;stroke-miterlimit:10;stroke-dasharray:none;stroke-opacity:1" id="path1550" />
         </g>
         <g id="g1552" transform="scale(1,-1)">
            <path d="m 727.637,-611.734 c -0.59249,-3.19481 -0.28557,-6.42114 -0.88648,-9.61133 -0.0774,-1.88856 -0.24013,-4.15133 -0.22351,-5.78367" style="fill:none;stroke:#000000;stroke-width:1.30769;stroke-linecap:round;stroke-linejoin:round;stroke-miterlimit:10;stroke-dasharray:none;stroke-opacity:1" id="path1554" />
         </g>
         <g id="g1556" transform="scale(1,-1)">
            <path d="m 731.613,-610.867 c -0.13758,-2.99588 -0.17374,-6.02281 -0.0294,-9.03282 0.45524,-1.74801 -0.12723,-3.47898 0.27567,-5.20918" style="fill:none;stroke:#000000;stroke-width:1.30769;stroke-linecap:round;stroke-linejoin:round;stroke-miterlimit:10;stroke-dasharray:none;stroke-opacity:1" id="path1558" />
         </g>
         <g id="g1560" transform="scale(1,-1)">
            <path d="m 732.016,-610.562 c 2.66484,-0.0342 6.01014,0.0247 7.25066,-2.89212 0.94374,-2.97143 1.7297,-7.17175 -0.49455,-9.7568 -1.92142,-1.62592 -4.41769,-2.22509 -6.8741,-2.36708" style="fill:none;stroke:#000000;stroke-width:1.30769;stroke-linecap:round;stroke-linejoin:round;stroke-miterlimit:10;stroke-dasharray:none;stroke-opacity:1" id="path1562" />
         </g>
         <g id="g1564" transform="scale(1,-1)">
            <path d="m 753.691,-613.531 c -0.45747,2.19964 -3.30495,4.80284 -5.9565,4.10954 -3.35984,-0.82068 -3.60402,-4.84857 -3.48342,-7.67073 0.21141,-2.8967 0.48526,-5.47879 1.8676,-8.07702 1.5887,-2.99715 5.95911,-3.44102 7.41232,-0.20179" style="fill:none;stroke:#000000;stroke-width:1.30769;stroke-linecap:round;stroke-linejoin:round;stroke-miterlimit:10;stroke-dasharray:none;stroke-opacity:1" id="path1566" />
         </g>
      </g>
   </g>
</svg>
