<?xml version="1.0" encoding="UTF-8" standalone="no"?>
<!-- Created by Ashley Blewer - This work is licensed under a Creative Commons Attribution 4.0 International License -->

<svg width="544" height="480" viewBox="0 0 143.93334 127" version="1.1" id="svg2490" inkscape:version="1.1.2 (08b2f3d93c, 2022-04-05)" sodipodi:docname="1997-hdcam-3.svg"
   xmlns:inkscape="http://www.inkscape.org/namespaces/inkscape"
   xmlns:sodipodi="http://sodipodi.sourceforge.net/DTD/sodipodi-0.dtd"
   xmlns="http://www.w3.org/2000/svg"
   xmlns:svg="http://www.w3.org/2000/svg">
   <sodipodi:namedview id="namedview2492" pagecolor="#ffffff" bordercolor="#666666" borderopacity="1.0" inkscape:pageshadow="2" inkscape:pageopacity="0.0" inkscape:pagecheckerboard="0" inkscape:document-units="mm" showgrid="false" units="px" inkscape:zoom="1.8116735" inkscape:cx="301.93079" inkscape:cy="176.90826" inkscape:window-width="1848" inkscape:window-height="1136" inkscape:window-x="72" inkscape:window-y="27" inkscape:window-maximized="1" inkscape:current-layer="g1024" />
   <defs id="defs2487" />
   <g inkscape:label="Layer 1" inkscape:groupmode="layer" id="layer1">
      <g id="g3256" transform="matrix(0.51242858,0,0,0.51242858,-334.33639,-21.349383)">
         <g id="g1004" transform="matrix(1,0,0,-1,0,-53.751655)">
            <path d="m 694.246,-244.867 -8.742,110.039" style="fill:none;stroke:#000000;stroke-width:2.61538;stroke-linecap:round;stroke-linejoin:round;stroke-miterlimit:10;stroke-dasharray:none;stroke-opacity:1" id="path1006" />
         </g>
         <g id="g1008" transform="matrix(1,0,0,-1,0,-53.751655)">
            <path d="m 685.195,-123.008 c -0.101,0.797 0.106,-1.226 0.141,-1.586 -0.527,-2.926 1.445,-6.758 0.332,-9.082 -0.422,-1.031 -1.16,-1.879 -1.828,-2.754 l 0.043,0.039 0.015,0.016" style="fill:none;stroke:#000000;stroke-width:2.61538;stroke-linecap:round;stroke-linejoin:round;stroke-miterlimit:10;stroke-dasharray:none;stroke-opacity:1" id="path1010" />
         </g>
         <g id="g1012" transform="matrix(1,0,0,-1,0,-53.751655)">
            <path d="m 683.043,-135.148 c 0,-0.508 0.094,0.964 0.09,1.242 0.004,1.211 -0.102,2.41 -0.184,3.617 -0.441,4.508 -1.152,9.012 -1.011,13.555 0.007,1.394 -0.161,2.785 -0.329,4.156 0.016,0.094 0.032,0.187 0.043,0.277" style="fill:none;stroke:#000000;stroke-width:2.61538;stroke-linecap:round;stroke-linejoin:round;stroke-miterlimit:10;stroke-dasharray:none;stroke-opacity:1" id="path1014" />
         </g>
         <g id="g1016" transform="matrix(1,0,0,-1,0,-53.751655)">
            <path d="m 684.312,-122.578 c -0.91,2.672 -1.433,5.453 -2.062,8.199 -0.176,0.887 -0.324,1.777 -0.484,2.664" style="fill:none;stroke:#000000;stroke-width:2.61538;stroke-linecap:round;stroke-linejoin:round;stroke-miterlimit:10;stroke-dasharray:none;stroke-opacity:1" id="path1018" />
         </g>
         <g id="g1020" transform="matrix(1,0,0,-1,0,-53.751655)">
            <path d="m 682.375,-136.938 c 0,0 10.836,-108.187 10.152,-105.777 -0.316,0.356 2.551,-5.364 1.887,-3.723" style="fill:none;stroke:#000000;stroke-width:2.61538;stroke-linecap:round;stroke-linejoin:round;stroke-miterlimit:10;stroke-dasharray:none;stroke-opacity:1" id="path1022" sodipodi:nodetypes="ccc" />
         </g>
         <g id="g1024" transform="matrix(1,0,0,-1,0,-53.751655)">
            <path d="m 681.574,-111.98 c 0,0 200.66882,0.6115 212.196,0.746" style="fill:none;stroke:#000000;stroke-width:2.61538;stroke-linecap:round;stroke-linejoin:round;stroke-miterlimit:10;stroke-dasharray:none;stroke-opacity:1" id="path1026" sodipodi:nodetypes="cc" />
         </g>
         <g id="g1028" transform="matrix(1,0,0,-1,0,-53.751655)">
            <path d="m 685.387,-121.422 209.34848,2.016" style="fill:none;stroke:#000000;stroke-width:2.61538;stroke-linecap:round;stroke-linejoin:round;stroke-miterlimit:10;stroke-dasharray:none;stroke-opacity:1" id="path1030" sodipodi:nodetypes="cc" />
         </g>
         <g id="g1032" transform="matrix(1,0,0,-1,0,-53.751655)">
            <path d="m 893.832,-111.449 c 0.0959,-0.78082 0.19873,-1.05726 0.60734,-1.66357 0.46173,-0.5843 0.87099,-1.21085 1.51333,-1.60957 1.12164,-0.74532 1.73996,-1.26716 2.32833,-2.44986 l -0.51104,1.39901" style="fill:none;stroke:#000000;stroke-width:2.61538;stroke-linecap:round;stroke-linejoin:round;stroke-miterlimit:10;stroke-dasharray:none;stroke-opacity:1" id="path1034" sodipodi:nodetypes="ccccc" />
         </g>
         <g id="g1036" transform="matrix(1,0,0,-1,0,-53.751655)">
            <path d="m 898.281,-117.172 -7.679,-109.117 -0.231,0.719" style="fill:none;stroke:#000000;stroke-width:2.61538;stroke-linecap:round;stroke-linejoin:round;stroke-miterlimit:10;stroke-dasharray:none;stroke-opacity:1" id="path1038" />
         </g>
         <g id="g1040" transform="matrix(1,0,0,-1,0,-53.751655)">
            <path d="m 894.73548,-119.406 c -0.0702,-5.1245 -0.74501,-10.36318 -0.44686,-15.41813 0.37283,-0.0909 1.2578,-0.49873 1.46138,0.10913" style="fill:none;stroke:#000000;stroke-width:2.61538;stroke-linecap:round;stroke-linejoin:round;stroke-miterlimit:10;stroke-dasharray:none;stroke-opacity:1" id="path1042" sodipodi:nodetypes="ccc" />
         </g>
         <g id="g1044" transform="matrix(1,0,0,-1,0,-53.751655)">
            <path d="m 694.414,-246.438 195.992,20.165" style="fill:none;stroke:#000000;stroke-width:2.61538;stroke-linecap:round;stroke-linejoin:round;stroke-miterlimit:10;stroke-dasharray:none;stroke-opacity:1" id="path1046" />
         </g>
         <g id="g1048" transform="matrix(1,0,0,-1,0,-53.751655)">
            <path d="m 892.289,-223.637 21.977,-4.769" style="fill:none;stroke:#000000;stroke-width:2.61538;stroke-linecap:round;stroke-linejoin:round;stroke-miterlimit:10;stroke-dasharray:none;stroke-opacity:1" id="path1050" />
         </g>
         <g id="g1052" transform="matrix(1,0,0,-1,0,-53.751655)">
            <path d="m 914.344,-228.473 c 0,0 10.312,-49.754 9.754,-49.601" style="fill:none;stroke:#000000;stroke-width:2.61538;stroke-linecap:round;stroke-linejoin:round;stroke-miterlimit:10;stroke-dasharray:none;stroke-opacity:1" id="path1054" />
         </g>
         <g id="g1056" transform="matrix(1,0,0,-1,0,-53.751655)">
            <path d="m 924.508,-279.199 -4.063,-28.594" style="fill:none;stroke:#000000;stroke-width:2.61538;stroke-linecap:round;stroke-linejoin:round;stroke-miterlimit:10;stroke-dasharray:none;stroke-opacity:1" id="path1058" />
         </g>
         <g id="g1060" transform="matrix(1,0,0,-1,0,-53.751655)">
            <path d="m 691.46168,-235.06171 c 0,0 -23.90268,-18.07929 -22.71568,-16.60629" style="fill:none;stroke:#000000;stroke-width:2.61538;stroke-linecap:round;stroke-linejoin:round;stroke-miterlimit:10;stroke-dasharray:none;stroke-opacity:1" id="path1062" sodipodi:nodetypes="cc" />
         </g>
         <g id="g1064" transform="matrix(1,0,0,-1,0,-53.751655)">
            <path d="m 669.141,-251.773 c -0.532,-0.161 2.226,-25.719 2.226,-25.719" style="fill:none;stroke:#000000;stroke-width:2.61538;stroke-linecap:round;stroke-linejoin:round;stroke-miterlimit:10;stroke-dasharray:none;stroke-opacity:1" id="path1066" />
         </g>
         <g id="g1068" transform="matrix(1,0,0,-1,0,-53.751655)">
            <path d="m 671.977,-277.875 247.734,-30.109 m -249.293,56.226 253.894,-26.754" style="fill:none;stroke:#000000;stroke-width:2.61538;stroke-linecap:round;stroke-linejoin:round;stroke-miterlimit:10;stroke-dasharray:none;stroke-opacity:1" id="path1070" />
         </g>
         <g id="g1208" transform="matrix(1,0,0,-1,0,-53.751655)">
            <path d="m 840.867,-163.867 43.695,0.578 c -0.703,-0.117 0.579,0.019 0.434,-0.078" style="fill:none;stroke:#000000;stroke-width:1.30769;stroke-linecap:round;stroke-linejoin:round;stroke-miterlimit:10;stroke-dasharray:none;stroke-opacity:1" id="path1210" />
         </g>
         <g id="g1212" transform="matrix(1,0,0,-1,0,-53.751655)">
            <path d="m 884.715,-163.207 c 4.945,-7.676 4.129,-10.887 3.945,-15.16 -0.215,-5.133 -0.426,-9.301 -6.133,-16.344" style="fill:none;stroke:#000000;stroke-width:1.30769;stroke-linecap:round;stroke-linejoin:round;stroke-miterlimit:10;stroke-dasharray:none;stroke-opacity:1" id="path1214" />
         </g>
         <g id="g1216" transform="matrix(1,0,0,-1,0,-53.751655)">
            <path d="m 840.934,-164.066 0.004,-31.481 c -0.165,-0.027 0.937,0.078 -0.047,-0.105" style="fill:none;stroke:#000000;stroke-width:1.30769;stroke-linecap:round;stroke-linejoin:round;stroke-miterlimit:10;stroke-dasharray:none;stroke-opacity:1" id="path1218" />
         </g>
         <g id="g1220" transform="matrix(1,0,0,-1,0,-53.751655)">
            <path d="m 841.047,-195.609 40.961,0.832" style="fill:none;stroke:#000000;stroke-width:1.30769;stroke-linecap:round;stroke-linejoin:round;stroke-miterlimit:10;stroke-dasharray:none;stroke-opacity:1" id="path1222" />
         </g>
         <g id="g1224" transform="matrix(1,0,0,-1,0,-53.751655)">
            <path d="m 848.848,-174.461 c 1.648,0.277 -2.055,-0.449 -2.18,-1.332 -1.953,-1.703 -2.367,-4.551 -1.469,-6.91 0.821,-2.445 3.77,-3.527 5.981,-2.246 2.14,0.761 3.734,2.824 3.726,5.051 -0.293,1.937 -0.906,3.984 -2.746,5.109 -1.355,1.211 -2.898,0.141 -4.308,-0.137" style="fill:none;stroke:#000000;stroke-width:1.30769;stroke-linecap:round;stroke-linejoin:round;stroke-miterlimit:10;stroke-dasharray:none;stroke-opacity:1" id="path1226" />
         </g>
         <g id="g1228" transform="matrix(1,0,0,-1,0,-53.751655)">
            <path d="m 841.289,-173.547 c 1.164,2.027 4.277,2.719 6.625,3.047 2.711,0.309 5.465,-0.867 7.203,-2.957 2.383,-1.871 2.723,-5.156 2.582,-7.965 -0.75,-2.488 -2.515,-4.394 -4.316,-6.183 -1.918,-2.165 -5.262,-2.461 -7.883,-1.614 -2.102,0.742 -3.469,2.602 -4.281,4.594" style="fill:none;stroke:#000000;stroke-width:1.30769;stroke-linecap:round;stroke-linejoin:round;stroke-miterlimit:10;stroke-dasharray:none;stroke-opacity:1" id="path1230" />
         </g>
         <g id="g1232" transform="matrix(1,0,0,-1,0,-53.751655)">
            <path d="m 851.059,-164.84 c 1.773,-0.879 3.515,-1.664 4.921,-3.121 1.836,-1.512 3.84,-3.344 4.028,-5.863 -0.024,0.34 -0.969,3.367 -1.84,4.547 -0.707,2.351 -3.051,3.972 -5.395,4.41 -0.296,0.07 -0.593,0.129 -0.894,0.191" style="fill:none;stroke:#000000;stroke-width:1.30769;stroke-linecap:round;stroke-linejoin:round;stroke-miterlimit:10;stroke-dasharray:none;stroke-opacity:1" id="path1234" />
         </g>
         <g id="g1236" transform="matrix(1,0,0,-1,0,-53.751655)">
            <path d="m 700.211,-170.441 53.855,2.855" style="fill:none;stroke:#000000;stroke-width:1.30769;stroke-linecap:round;stroke-linejoin:round;stroke-miterlimit:10;stroke-dasharray:none;stroke-opacity:1" id="path1238" />
         </g>
         <g id="g1240" transform="matrix(1,0,0,-1,0,-53.751655)">
            <path d="m 754.324,-167.84 c 1.004,-5.668 1.621,-11.555 0.715,-17.265 0.633,-4.657 0.023,-12.715 1.18,-17.286 -1.129,-0.414 0.758,2.567 -0.196,2.586" style="fill:none;stroke:#000000;stroke-width:1.30769;stroke-linecap:round;stroke-linejoin:round;stroke-miterlimit:10;stroke-dasharray:none;stroke-opacity:1" id="path1242" />
         </g>
         <g id="g1244" transform="matrix(1,0,0,-1,0,-53.751655)">
            <path d="m 699.844,-170.699 c -2.192,-2.739 -1.121,-8.77 -1.59,-12.25 0.113,-5.035 0.801,-10.082 1.793,-15 0.973,-2.567 1.848,-5.641 2.715,-7.914" style="fill:none;stroke:#000000;stroke-width:1.30769;stroke-linecap:round;stroke-linejoin:round;stroke-miterlimit:10;stroke-dasharray:none;stroke-opacity:1" id="path1246" />
         </g>
         <g id="g1248" transform="matrix(1,0,0,-1,0,-53.751655)">
            <path d="m 702.914,-205.852 c 18.52,1.54 35.941,2.344 53.191,3.27 l -0.074,0.098" style="fill:none;stroke:#000000;stroke-width:1.30769;stroke-linecap:round;stroke-linejoin:round;stroke-miterlimit:10;stroke-dasharray:none;stroke-opacity:1" id="path1250" />
         </g>
         <g id="g1252" transform="matrix(1,0,0,-1,0,-53.751655)">
            <path d="m 746.297,-180.543 c -1.942,2.063 -3.875,-1.695 -4.164,-3.457 -0.848,-2.535 -0.996,-6.121 1.715,-7.582 2.445,-1.234 5.73,-0.633 7.769,1.121 1.289,1.816 1.754,4.168 0.856,6.301 -1.133,2.07 -3.555,4.465 -6.266,3.75 -1.699,-0.094 -0.766,-0.652 -2.496,-0.559" style="fill:none;stroke:#000000;stroke-width:1.30769;stroke-linecap:round;stroke-linejoin:round;stroke-miterlimit:10;stroke-dasharray:none;stroke-opacity:1" id="path1254" />
         </g>
         <g id="g1256" transform="matrix(1,0,0,-1,0,-53.751655)">
            <path d="m 751.43,-178.801 c -2.082,2.473 -5.551,3.754 -8.727,2.942 -3.051,-0.149 -5.375,-2.496 -6.176,-5.321 -1.089,-3.453 0.84,-6.824 2.434,-9.769 1.441,-1.52 2.516,-3.707 4.758,-4.176 2.347,-0.52 5.211,-0.07 6.945,1.68" style="fill:none;stroke:#000000;stroke-width:1.30769;stroke-linecap:round;stroke-linejoin:round;stroke-miterlimit:10;stroke-dasharray:none;stroke-opacity:1" id="path1258" />
         </g>
         <g id="g1260" transform="matrix(1,0,0,-1,0,-53.751655)">
            <path d="m 753.516,-173.004 c -3.809,2.856 -9.204,2.934 -13.504,1.199 -4.84,-2.273 -6.926,-7.773 -7.692,-12.73 -0.242,-2.676 0.289,-5.434 1.43,-7.871 2.902,-6.102 11.121,-11.317 16.738,-9.582 1.735,0.562 4.547,1.105 5.344,2.363 -0.184,0.238 -0.383,0.457 -0.559,0.699" style="fill:none;stroke:#000000;stroke-width:1.30769;stroke-linecap:round;stroke-linejoin:round;stroke-miterlimit:10;stroke-dasharray:none;stroke-opacity:1" id="path1262" />
         </g>
         <g id="g1264" transform="matrix(1,0,0,-1,0,-53.751655)">
            <path d="m 736.418,-170.395 c -3.207,-1.582 -5.469,-4.679 -6.313,-8.117 -0.972,-2.433 -1.812,-5.125 -0.933,-7.718 0.512,-3.446 1.098,-7.02 3.082,-9.961 1.074,-2.797 3.344,-5.043 6.004,-6.368 -0.125,-1.507 -3.012,0.676 -3.985,1.153 -3.214,2.218 -5.82,5.504 -6.558,9.414 -0.754,3.16 -0.508,6.445 -0.863,9.656 -0.067,3.383 1.343,6.633 3.476,9.199 0.379,1.043 2.484,2.692 1.871,3.492 -2.488,-1.277 -4.078,-3.781 -5.566,-6.066 -2.539,-4.273 -3.211,-9.355 -2.856,-14.246 0.082,-3.18 0.114,-6.402 1.289,-9.41 0.715,-2.113 3.532,-3.633 5.661,-4.469 -2.825,2.481 -7.317,4.488 -8.543,8.199 -1.438,3.821 -1.969,7.989 -1.789,12.051 0.632,4.844 4.625,8.066 7.226,11.891 0.629,0.832 1.984,2.597 0.484,0.988 -2.214,-2.574 -3.765,-5.652 -5.328,-8.641 -1.855,-3.675 -4.187,-7.414 -3.984,-11.703 0.117,-4.129 2.082,-7.926 4.641,-11.074 0.863,-1.187 1.398,-1.711 1.511,-2.102 -2.98,4.426 -3.183,7.692 -4.336,12.852 -0.668,4.289 -1.39,8.738 -0.519,13.047 0.379,2.523 2.652,3.758 4.601,4.965 1.055,0.363 -1.324,-2.004 -1.683,-2.727 -2.817,-3.512 -6.789,-6.512 -7.621,-11.199 -0.664,-3.695 -1.262,-7.984 1.215,-11.176 0.808,-1.437 3.824,-3.504 4.328,-3.234 -3.309,3.261 -4.285,8 -4.996,12.406 -0.598,3.246 -0.024,6.559 0.019,9.82 0.43,2.176 0.551,4.793 2.41,6.282 2.813,0.75 -1.043,-2.512 -1.375,-3.844 -2.179,-3.953 -4.894,-7.988 -4.742,-12.695 -0.012,-2.403 0.805,-4.68 1.336,-6.981 0.844,-2.277 2.625,-4.133 4.723,-5.309 -1.864,1.497 -3.891,3.165 -4.231,5.665 -0.953,3.144 -1.246,6.449 -2.058,9.621 -0.457,4.293 -1.118,11.011 -0.282,15.324 2.344,2.332 2.586,-5.297 1.661,-6.731 -1.586,-4.043 -3.02,-8.293 -3.149,-12.691 -0.32,-3.141 -0.25,-6.965 2.582,-9.008 0.883,-0.797 5.027,-3.125 2.137,-1.203 -4.254,2.391 -6.93,6.902 -7.668,11.652 -0.902,4.309 -0.777,8.778 -0.485,13.121 0.247,2.43 2.333,1.602 1.551,-0.464 -0.937,-3.895 -2.957,-7.547 -2.953,-11.649 -0.195,-3.48 0.301,-7.148 2.012,-10.207 0.629,-1.07 4.168,-2.754 1.473,-1.289 -3.532,1.852 -4.215,6.266 -4.29,9.879 -0.097,3.512 -0.984,6.98 -0.722,10.508 -1.012,1.254 1.152,6.094 1.265,2.515 0.114,-6.097 -2.203,-11.867 -2.812,-17.882 -0.43,-1.871 -0.641,-3.961 0.789,-5.493 0.66,-0.933 2.625,-2.984 2.875,-2.773 -1.77,3.211 -5.223,5.766 -5.156,9.762 -0.324,4.285 0.195,8.578 0.355,12.855 0.035,1.238 1.211,4.719 2.242,3.887 -1.324,-3.301 -3.398,-6.402 -3.57,-10.059 -0.469,-3.765 1.563,-7.199 3.031,-10.511 1.813,-2.914 5.137,-4.532 8.41,-5.188 0.465,-0.09 0.723,0.445 0.614,0.828" style="fill:none;stroke:#000000;stroke-width:1.30769;stroke-linecap:round;stroke-linejoin:round;stroke-miterlimit:10;stroke-dasharray:none;stroke-opacity:1" id="path1266" />
         </g>
         <g id="g1268" transform="matrix(1,0,0,-1,0,-53.751655)">
            <path d="m 757.77,-154.836 78.851,1.774" style="fill:none;stroke:#000000;stroke-width:1.30769;stroke-linecap:round;stroke-linejoin:round;stroke-miterlimit:10;stroke-dasharray:none;stroke-opacity:1" id="path1270" />
         </g>
         <g id="g1272" transform="matrix(1,0,0,-1,0,-53.751655)">
            <path d="m 757.598,-154.746 1.558,-59.731" style="fill:none;stroke:#000000;stroke-width:1.30769;stroke-linecap:round;stroke-linejoin:round;stroke-miterlimit:10;stroke-dasharray:none;stroke-opacity:1" id="path1274" />
         </g>
         <g id="g1276" transform="matrix(1,0,0,-1,0,-53.751655)">
            <path d="m 836.684,-153.184 0.921,-58.89" style="fill:none;stroke:#000000;stroke-width:1.30769;stroke-linecap:round;stroke-linejoin:round;stroke-miterlimit:10;stroke-dasharray:none;stroke-opacity:1" id="path1278" />
         </g>
         <g id="g1280" transform="matrix(1,0,0,-1,0,-53.751655)">
            <path d="m 759.316,-214.539 78.344,2.297" style="fill:none;stroke:#000000;stroke-width:1.30769;stroke-linecap:round;stroke-linejoin:round;stroke-miterlimit:10;stroke-dasharray:none;stroke-opacity:1" id="path1282" />
         </g>
         <g id="g1300" transform="matrix(1,0,0,-1,0,-53.751655)">
            <path d="m 730.43,-142.629 c 0.35006,-0.70316 -0.044,1.17318 -0.586,1.074 -0.79819,0.62722 -1.78018,1.1228 -2.82043,0.88265 -1.63868,-0.32626 -3.23856,-1.4544 -3.70971,-3.11356 -0.13302,-1.42713 -0.40741,-2.86298 -0.14695,-4.2904 0.21218,-1.42323 0.3184,-2.85801 0.47593,-4.28302 0.39882,-1.0666 0.85435,-2.29377 1.82466,-2.94542 0.99427,-0.64994 2.30407,-0.97829 3.12901,0.13749 1.22906,0.78141 1.62619,2.24619 2.33324,3.44038 0.71915,1.06534 0.0562,2.53867 -0.0955,3.61842 -0.78802,0.70996 -1.29306,2.09231 -2.57021,1.92171 -1.02283,-0.14164 -2.05388,-0.28555 -2.80539,-1.05193 -0.95382,-0.6838 -1.48069,-1.85905 -1.63556,-2.99656 -0.0107,-0.17687 -0.006,-0.35458 0.0129,-0.53076" style="fill:none;stroke:#000000;stroke-width:1.30769;stroke-linecap:round;stroke-linejoin:round;stroke-miterlimit:10;stroke-dasharray:none;stroke-opacity:1" id="path1302" />
         </g>
         <g id="g1304" transform="matrix(1,0,0,-1,0,-53.751655)">
            <path d="m 741.91,-154.953 c -0.13347,1.50827 -0.008,3.03128 -0.10105,4.54461 -0.0147,1.12683 -0.0525,2.25985 -0.26595,3.36939 0.64995,1.36718 -0.19925,2.78373 -0.33547,4.14271 0.1133,1.20005 -0.0657,2.40881 -0.16186,3.58473 -0.49319,-0.94251 -1.14806,-1.98075 -1.35509,-3.09735 -0.46616,-1.36881 -1.7571,-2.38129 -1.75378,-3.89636 -0.44519,-1.53659 -1.79555,-2.8158 -1.66829,-4.50134 0.34804,-0.62406 1.75285,-0.0269 2.50215,0.0302 2.12793,0.41123 4.30866,0.46051 6.45284,0.75507 0.50171,-0.0177 2.08444,-0.11599 1.6945,0.25938" style="fill:none;stroke:#000000;stroke-width:1.30769;stroke-linecap:round;stroke-linejoin:round;stroke-miterlimit:10;stroke-dasharray:none;stroke-opacity:1" id="path1306" />
         </g>
         <g id="g1308" transform="matrix(1,0,0,-1,0,-53.751655)">
            <path d="m 703.668,-148.203 c -3.62188,3.48354 -5.55364,-5.88172 0.273,-3.836 7.30828,-3.69709 -6.39156,-7.19684 -3.648,-1.559 1.54821,2.12842 8.59375,2.93844 2.477,5.891" style="fill:none;stroke:#000000;stroke-width:1.30769;stroke-linecap:round;stroke-linejoin:round;stroke-miterlimit:10;stroke-dasharray:none;stroke-opacity:1" id="path1310" sodipodi:nodetypes="cccccccccccccccccsc" />
         </g>
         <g id="g1312" transform="matrix(1,0,0,-1,0,-53.751655)">
            <path d="m 711.137,-148.207 c -3.78312,-0.53864 -2.40858,-6.09341 -0.567,-8.473 3.20108,-2.20419 4.76549,7.47521 0.703,7.657 -0.70959,-0.1427 -1.43065,-0.15333 -2.148,-0.211" style="fill:none;stroke:#000000;stroke-width:1.30769;stroke-linecap:round;stroke-linejoin:round;stroke-miterlimit:10;stroke-dasharray:none;stroke-opacity:1" id="path1314" />
         </g>
         <g id="g1316" transform="matrix(1,0,0,-1,0,-53.751655)">
            <path d="m 789.324,-280.539 c -0.34789,1.06116 -2.02013,-0.49717 -1.93636,-1.30951 0.38296,-0.92894 1.25369,-1.72709 1.92856,-2.52972 0.89282,-0.73122 1.89314,-1.51537 3.1028,-1.57111 1.33757,-0.2415 2.69263,-0.16095 4.01616,0.1233 1.19373,0.28016 2.81727,-0.21221 3.53171,1.09894 0.66214,1.14235 -0.35449,2.07506 -1.02606,2.96285 -0.79886,1.04374 -2.20018,1.1723 -3.39216,1.43476 -1.41125,0.0985 -1.01596,-1.66418 -1.61442,-2.38491 0.13515,-1.03465 0.73425,-1.93286 1.29135,-2.8018 0.0355,-0.0597 0.15793,-0.13935 0.22342,-0.0658" style="fill:none;stroke:#000000;stroke-width:1.30769;stroke-linecap:round;stroke-linejoin:round;stroke-miterlimit:10;stroke-dasharray:none;stroke-opacity:1" id="path1318" />
         </g>
         <g id="g1320" transform="matrix(1,0,0,-1,0,-53.751655)">
            <path d="m 799.781,-273.246 c -1.71168,-0.0589 -3.43441,0.27639 -5.1323,-0.0775 -1.59776,-0.0604 -3.2026,0.10226 -4.80127,0.17602 -0.65571,-0.0876 -1.99302,0.49667 -2.23699,-0.0861 0.97652,-0.80816 2.20772,-1.21887 3.22008,-2.01256 1.16031,-0.50189 2.07061,-1.44794 3.27448,-1.86284 0.54587,-0.51764 1.66169,-1.17678 1.872,-1.50404 1.07186,0.47955 0.80406,1.88226 0.99803,2.867 0.51771,0.95755 -0.38352,1.99913 0.18171,2.97715 0.37685,0.51281 0.44807,2.19213 0.96826,2.19085" style="fill:none;stroke:#000000;stroke-width:1.30769;stroke-linecap:round;stroke-linejoin:round;stroke-miterlimit:10;stroke-dasharray:none;stroke-opacity:1" id="path1322" />
         </g>
         <g id="g1736" transform="matrix(1,0,0,-1,0,-53.751655)">
            <path d="m 754.785,-261.133 1.137,-27.03665" style="fill:none;stroke:#000000;stroke-width:0.980768;stroke-linecap:round;stroke-linejoin:round;stroke-miterlimit:10;stroke-dasharray:none;stroke-opacity:1" id="path1738" sodipodi:nodetypes="cc" />
         </g>
         <g id="g1740" transform="matrix(1,0,0,-1,0,-53.751655)">
            <path d="m 841.215,-270.031 1.137,-27.86" style="fill:none;stroke:#000000;stroke-width:0.980768;stroke-linecap:round;stroke-linejoin:round;stroke-miterlimit:10;stroke-dasharray:none;stroke-opacity:1" id="path1742" />
         </g>
         <g id="g1744" transform="matrix(1,0,0,-1,0,-53.751655)">
            <path d="M 864.40595,-228.99431 842.07,-269.543" style="fill:none;stroke:#000000;stroke-width:0.980768;stroke-linecap:round;stroke-linejoin:round;stroke-miterlimit:10;stroke-dasharray:none;stroke-opacity:1" id="path1746" sodipodi:nodetypes="cc" />
         </g>
         <g id="g1748" transform="matrix(1,0,0,-1,0,-53.751655)">
            <path d="m 777.918,-237.922 -1.992,-2.16 -19.156,-20.203" style="fill:none;stroke:#000000;stroke-width:0.980768;stroke-linecap:round;stroke-linejoin:round;stroke-miterlimit:10;stroke-dasharray:none;stroke-opacity:1" id="path1750" />
         </g>
      </g>
   </g>
</svg>
