<?xml version="1.0" encoding="UTF-8" standalone="no"?>
<!-- Created by Ashley Blewer - This work is licensed under a Creative Commons Attribution 4.0 International License -->

<svg width="544" height="480" viewBox="0 0 143.93334 127" version="1.1" id="svg2490" inkscape:version="1.1.2 (08b2f3d93c, 2022-04-05)" sodipodi:docname="1997-hdcam-4.svg"
   xmlns:inkscape="http://www.inkscape.org/namespaces/inkscape"
   xmlns:sodipodi="http://sodipodi.sourceforge.net/DTD/sodipodi-0.dtd"
   xmlns="http://www.w3.org/2000/svg"
   xmlns:svg="http://www.w3.org/2000/svg">
   <sodipodi:namedview id="namedview2492" pagecolor="#ffffff" bordercolor="#666666" borderopacity="1.0" inkscape:pageshadow="2" inkscape:pageopacity="0.0" inkscape:pagecheckerboard="0" inkscape:document-units="mm" showgrid="false" units="px" inkscape:zoom="0.90583674" inkscape:cx="279.29978" inkscape:cy="194.84747" inkscape:window-width="1848" inkscape:window-height="1136" inkscape:window-x="72" inkscape:window-y="27" inkscape:window-maximized="1" inkscape:current-layer="layer1" />
   <defs id="defs2487" />
   <g inkscape:label="Layer 1" inkscape:groupmode="layer" id="layer1">
      <g id="g1845" transform="matrix(0.72434812,0,0,0.72434812,-697.62438,-67.580716)">
         <g id="g1072" transform="matrix(1,0,0,-1,0,-53.751655)">
            <path d="m 988.086,-166.625 c -1.34,1.551 -3.102,2.648 -4.621,4.008 l 1.644,0.699 -3.433,-1.102" style="fill:none;stroke:#000000;stroke-width:2.61538;stroke-linecap:round;stroke-linejoin:round;stroke-miterlimit:10;stroke-dasharray:none;stroke-opacity:1" id="path1074" />
         </g>
         <g id="g1076" transform="matrix(1,0,0,-1,0,-53.751655)">
            <path d="m 994.27,-258.258 -6.231,7.988" style="fill:none;stroke:#000000;stroke-width:2.61538;stroke-linecap:round;stroke-linejoin:round;stroke-miterlimit:10;stroke-dasharray:none;stroke-opacity:1" id="path1078" sodipodi:nodetypes="cc" />
         </g>
         <g id="g1080" transform="matrix(1,0,0,-1,0,-53.751655)">
            <path d="m 988.031,-251.145 -6.496,87.981" style="fill:none;stroke:#000000;stroke-width:2.61538;stroke-linecap:round;stroke-linejoin:round;stroke-miterlimit:10;stroke-dasharray:none;stroke-opacity:1" id="path1082" />
         </g>
         <g id="g1084" transform="matrix(1,0,0,-1,0,-53.751655)">
            <path d="m 993.949,-256.332 -6.844,89.203" style="fill:none;stroke:#000000;stroke-width:2.61538;stroke-linecap:round;stroke-linejoin:round;stroke-miterlimit:10;stroke-dasharray:none;stroke-opacity:1" id="path1086" />
         </g>
         <g id="g1088" transform="matrix(1,0,0,-1,0,-53.751655)">
            <path d="m 990.406,-178.23 c 0.125,-2.508 0.485,-5.004 0.313,-7.516 0.015,-1.902 0.664,-4.367 -1.321,-5.531 -1.765,-1.93 -3.671,0.461 -3.21,2.414 0.05,2.293 -0.368,4.625 -0.036,6.898 0.055,0.063 0.114,0.129 0.168,0.192" style="fill:none;stroke:#000000;stroke-width:2.61538;stroke-linecap:round;stroke-linejoin:round;stroke-miterlimit:10;stroke-dasharray:none;stroke-opacity:1" id="path1090" />
         </g>
         <g id="g1092" transform="matrix(1,0,0,-1,0,-53.751655)">
            <path d="m 992.312,-177.996 130.672,9.613" style="fill:none;stroke:#000000;stroke-width:2.61538;stroke-linecap:round;stroke-linejoin:round;stroke-miterlimit:10;stroke-dasharray:none;stroke-opacity:1" id="path1094" />
         </g>
         <g id="g1096" transform="matrix(1,0,0,-1,0,-53.751655)">
            <path d="m 985.254,-162.105 129.199,8.398" style="fill:none;stroke:#000000;stroke-width:2.61538;stroke-linecap:round;stroke-linejoin:round;stroke-miterlimit:10;stroke-dasharray:none;stroke-opacity:1" id="path1098" />
         </g>
         <g id="g1100" transform="matrix(1,0,0,-1,0,-53.751655)">
            <path d="m 989.039,-166.273 134.273,8.078" style="fill:none;stroke:#000000;stroke-width:2.61538;stroke-linecap:round;stroke-linejoin:round;stroke-miterlimit:10;stroke-dasharray:none;stroke-opacity:1" id="path1102" />
         </g>
         <g id="g1104" transform="matrix(1,0,0,-1,0,-53.751655)">
            <path d="m 1114.543,-153.645 9.379,-4.203" style="fill:none;stroke:#000000;stroke-width:2.61538;stroke-linecap:round;stroke-linejoin:round;stroke-miterlimit:10;stroke-dasharray:none;stroke-opacity:1" id="path1106" />
         </g>
         <g id="g1108" transform="matrix(1,0,0,-1,0,-53.751655)">
            <path d="m 1121.797,-156.60364 c 0,0 4.101,-1.86536 4.187,-2.54436 0.313,-0.473 0.5,-1.004 0.711,-1.524" style="fill:none;stroke:#000000;stroke-width:2.61538;stroke-linecap:round;stroke-linejoin:round;stroke-miterlimit:10;stroke-dasharray:none;stroke-opacity:1" id="path1110" sodipodi:nodetypes="ccc" />
         </g>
         <g id="g1112" transform="matrix(1,0,0,-1,0,-53.751655)">
            <path d="m 1126.695,-160.672 c 0.8548,-3.66583 0.1524,-7.64182 0.4942,-11.0078 0.027,-1.63415 -0.2125,-3.25769 -0.2368,-4.8902" style="fill:none;stroke:#000000;stroke-width:2.61538;stroke-linecap:round;stroke-linejoin:round;stroke-miterlimit:10;stroke-dasharray:none;stroke-opacity:1" id="path1114" sodipodi:nodetypes="ccc" />
         </g>
         <g id="g1116" transform="matrix(1,0,0,-1,0,-53.751655)">
            <path d="m 1123.43,-168.75 c 0.402,-1.52 0.343,-3.133 0.879,-4.621 0.32,-0.891 -0.047,-1.891 0.332,-2.734 0.543,-0.442 0.914,-1.071 1.507,-1.196" style="fill:none;stroke:#000000;stroke-width:2.61538;stroke-linecap:round;stroke-linejoin:round;stroke-miterlimit:10;stroke-dasharray:none;stroke-opacity:1" id="path1118" />
         </g>
         <g id="g1120" transform="matrix(1,0,0,-1,0,-53.751655)">
            <path d="m 1125.113,-178.77 c -1.062,-0.183 -1.894,-2.05 -0.953,-2.777 0.844,-0.605 1.793,-0.508 2.723,-0.156" style="fill:none;stroke:#000000;stroke-width:2.61538;stroke-linecap:round;stroke-linejoin:round;stroke-miterlimit:10;stroke-dasharray:none;stroke-opacity:1" id="path1122" />
         </g>
         <g id="g1124" transform="matrix(1,0,0,-1,0,-53.751655)">
            <path d="m 1126.914,-181.828 -1.535,-57.043" style="fill:none;stroke:#000000;stroke-width:2.61538;stroke-linecap:round;stroke-linejoin:round;stroke-miterlimit:10;stroke-dasharray:none;stroke-opacity:1" id="path1126" />
         </g>
         <g id="g1128" transform="matrix(1,0,0,-1,0,-53.751655)">
            <path d="m 994.27,-258.258 130.968,18.906" style="fill:none;stroke:#000000;stroke-width:2.61538;stroke-linecap:round;stroke-linejoin:round;stroke-miterlimit:10;stroke-dasharray:none;stroke-opacity:1" id="path1130" />
         </g>
         <g id="g1132" transform="matrix(1,0,0,-1,0,-53.751655)">
            <path d="m 1126.1451,-231.098 c 2.7917,0.1224 5.5902,0.0374 8.3789,0.23739 l 0.058,-0.0706 0.035,-0.0419" style="fill:none;stroke:#000000;stroke-width:2.61538;stroke-linecap:round;stroke-linejoin:round;stroke-miterlimit:10;stroke-dasharray:none;stroke-opacity:1" id="path1134" sodipodi:nodetypes="ccccc" />
         </g>
         <g id="g1136" transform="matrix(1,0,0,-1,0,-53.751655)">
            <path d="m 1134.617,-230.97311 c 0,0 13.012,-28.51089 17.949,-41.32789 l 0.575,-2.316" style="fill:none;stroke:#000000;stroke-width:2.61538;stroke-linecap:round;stroke-linejoin:round;stroke-miterlimit:10;stroke-dasharray:none;stroke-opacity:1" id="path1138" sodipodi:nodetypes="ccc" />
         </g>
         <g id="g1140" transform="matrix(1,0,0,-1,0,-53.751655)">
            <path d="m 1153.262,-274.285 c -0.305,-8.621 -3.344,-17.707 -3.383,-25.86" style="fill:none;stroke:#000000;stroke-width:2.61538;stroke-linecap:round;stroke-linejoin:round;stroke-miterlimit:10;stroke-dasharray:none;stroke-opacity:1" id="path1142" />
         </g>
         <g id="g1144" transform="matrix(1,0,0,-1,0,-53.751655)">
            <path d="m 987.422,-252.871 c 0,0 -6.27,-11.707 -9.293,-15.899" style="fill:none;stroke:#000000;stroke-width:2.61538;stroke-linecap:round;stroke-linejoin:round;stroke-miterlimit:10;stroke-dasharray:none;stroke-opacity:1" id="path1146" />
         </g>
         <g id="g1148" transform="matrix(1,0,0,-1,0,-53.751655)">
            <path d="m 978.297,-269.004 c 1.449,-7.672 1.937,-17.336 2.941,-24.156" style="fill:none;stroke:#000000;stroke-width:2.61538;stroke-linecap:round;stroke-linejoin:round;stroke-miterlimit:10;stroke-dasharray:none;stroke-opacity:1" id="path1150" />
         </g>
         <g id="g1152" transform="matrix(1,0,0,-1,0,-53.751655)">
            <path d="m 981.539,-293.676 c 0,0 168.34,-6.469 169.082,-6.836" style="fill:none;stroke:#000000;stroke-width:2.61538;stroke-linecap:round;stroke-linejoin:round;stroke-miterlimit:10;stroke-dasharray:none;stroke-opacity:1" id="path1154" />
         </g>
         <g id="g1156" transform="matrix(1,0,0,-1,0,-53.751655)">
            <path d="m 978.129,-268.77 174.148,-5.918" style="fill:none;stroke:#000000;stroke-width:2.61538;stroke-linecap:round;stroke-linejoin:round;stroke-miterlimit:10;stroke-dasharray:none;stroke-opacity:1" id="path1158" sodipodi:nodetypes="cc" />
         </g>
         <g id="g1160" transform="matrix(1,0,0,-1,0,-53.751655)">
            <path d="m 999.68897,-202.4434 35.94803,0.9744" style="fill:none;stroke:#000000;stroke-width:1.30769;stroke-linecap:round;stroke-linejoin:round;stroke-miterlimit:10;stroke-dasharray:none;stroke-opacity:1" id="path1162" sodipodi:nodetypes="cc" />
         </g>
         <g id="g1164" transform="matrix(1,0,0,-1,0,-53.751655)">
            <path d="m 1035.637,-201.469 c -0.5081,-8.71217 0.6611,-17.39315 1.2965,-26.06303 -0.106,-1.894 0.2358,-5.35078 -0.6445,-7.01497" style="fill:none;stroke:#000000;stroke-width:1.30769;stroke-linecap:round;stroke-linejoin:round;stroke-miterlimit:10;stroke-dasharray:none;stroke-opacity:1" id="path1166" sodipodi:nodetypes="ccc" />
         </g>
         <g id="g1168" transform="matrix(1,0,0,-1,0,-53.751655)">
            <path d="m 999.68897,-202.4434 c -1.348,-8.664 -1.45497,-19.5686 0.20903,-28.1896 0.348,-2.496 2.106,-7.543 3.45,-8.406" style="fill:none;stroke:#000000;stroke-width:1.30769;stroke-linecap:round;stroke-linejoin:round;stroke-miterlimit:10;stroke-dasharray:none;stroke-opacity:1" id="path1170" sodipodi:nodetypes="ccc" />
         </g>
         <g id="g1172" transform="matrix(1,0,0,-1,0,-53.751655)">
            <path d="m 1003.348,-239.039 c 10.8083,-0.0576 21.2664,3.19195 32.0055,3.90876 0.3604,0.0984 0.6799,0.31466 0.9355,0.58324" style="fill:none;stroke:#000000;stroke-width:1.30769;stroke-linecap:round;stroke-linejoin:round;stroke-miterlimit:10;stroke-dasharray:none;stroke-opacity:1" id="path1174" sodipodi:nodetypes="cccc" />
         </g>
         <g id="g1176" transform="matrix(1,0,0,-1,0,-53.751655)">
            <path d="m 1035.2786,-204.91844 c -1.289,0.906 -5.4976,2.41444 -7.2786,2.46144 -2.785,0.195 -5.062,-1.418 -6.992,-3.219 -1.895,-1.797 -3.348,-4.035 -3.957,-6.597 -0.906,-2.415 -0.735,-5.039 -0.27,-7.52 1.11,-2.801 1.887,-6.094 4.692,-7.684 2.1967,-1.45364 4.488,-3.433 7.222,-2.82 1.981,0.723 3.946,1.938 5.832,2.625 0,0 2.1856,1.60496 2.0256,1.88296" style="fill:none;stroke:#000000;stroke-width:1.30769;stroke-linecap:round;stroke-linejoin:round;stroke-miterlimit:10;stroke-dasharray:none;stroke-opacity:1" id="path1178" sodipodi:nodetypes="ccccccccc" />
         </g>
         <g id="g1180" transform="matrix(1,0,0,-1,0,-53.751655)">
            <path d="m 1032.934,-211.836 c -1.313,0.676 -2.704,1.602 -4.219,0.941 -1.051,-0.394 -2.262,-0.746 -2.875,-1.761 -0.664,-0.871 -1.297,-1.821 -1.168,-2.977 0.094,-1.437 0.754,-2.773 1.676,-3.871 0.55,-1.242 1.738,-1.855 3.023,-2.008 1.922,-0.152 3.16,1.574 4.664,2.442 0.199,0.011 0.7456,1.23095 0.8046,1.60195" style="fill:none;stroke:#000000;stroke-width:1.30769;stroke-linecap:round;stroke-linejoin:round;stroke-miterlimit:10;stroke-dasharray:none;stroke-opacity:1" id="path1182" sodipodi:nodetypes="cccccccc" />
         </g>
         <g id="g1184" transform="matrix(1,0,0,-1,0,-53.751655)">
            <path d="m 1030.688,-213.684 c -0.066,0.5604 -1.0795,0.3325 -1.5161,0.32541 -0.6057,-0.28369 -1.0666,-0.82524 -1.4282,-1.37219 -0.1613,-0.64904 -0.8067,-1.34656 -0.647,-1.8755 -0.4207,-0.72707 0.3494,-1.60416 0.9359,-1.99315 0.7235,-0.29728 1.5558,-0.41334 2.3295,-0.27216 0.8707,0.16741 1.5211,0.79796 2.2007,1.31038 0.047,0.0474 0.753,0.43987 0.3982,0.42019" style="fill:none;stroke:#000000;stroke-width:1.30769;stroke-linecap:round;stroke-linejoin:round;stroke-miterlimit:10;stroke-dasharray:none;stroke-opacity:1" id="path1186" />
         </g>
         <g id="g1188" transform="matrix(1,0,0,-1,0,-53.751655)">
            <path d="m 1018.453,-203.887 c -2.641,-1.617 -5.023,-4.504 -5.633,-7.711 -0.722,-2.777 -1.289,-5.64 -0.718,-8.507 0.179,-3.344 1.23,-6.833 4.195,-8.719 2.391,-2.442 5.383,-4.625 8.945,-4.672 0.434,-1.902 -4.867,0.402 -5.945,1.684 -3.32,2.476 -5.629,6.109 -6.973,9.988 -1.234,3.676 -1.332,7.668 -0.48,11.422 -0.043,2.89 0.691,5.972 2.801,8.058 -2.188,-2.027 -3.188,-4.906 -4.833,-7.328 -2.019,-4.644 -1.554,-9.937 -0.742,-14.812 0.887,-2.918 2.653,-5.629 4.832,-7.75 1.203,-1.09 5.02,-2.93 4.895,-3.078 -5.649,2.703 -8.613,8.898 -9.859,14.761 -1.157,4.34 -1.575,9.012 -0.262,13.367 0.062,1.555 5.203,4.192 1.453,2.704 -2.266,-2.129 -2.512,-5.653 -3.703,-8.454 -0.719,-3.875 -0.258,-7.839 -0.082,-11.746 0.492,-3.355 2.828,-6.058 4.179,-9.09 0.805,-1.414 4.696,-4.382 1.493,-1.941 -3.321,3.07 -5.864,6.977 -6.926,11.402 -1.141,3.711 -1.895,7.559 -1.449,11.457 0.355,3.551 -0.077,7.08761 1.5239,10.33761 2.074,0.012 0.089,-4.19661 -0.9069,-5.50861 -1.578,-3.235 -2.18,-6.93 -2.352,-10.504 0.231,-2.817 0.852,-5.625 1.582,-8.34 0.965,-2.66 3.071,-4.703 3.828,-7.457 0.032,-1.957 5.454,-4.016 1.133,-3.059 -3.742,0.981 -5.996,5.086 -6.191,8.754 -0.305,4.016 -0.231,8.051 -1.012,12.02 -0.051,3.988 -0.562,8.308 1.391,11.957 -0.688,-4.325 -2.317,-8.692 -1.325,-13.102 0.141,-3.812 0.704,-7.969 3.668,-10.699 1.86,-2.531 4.004,-4.918 7.028,-6.059 1.176,-0.414 2.265,-1.48 3.578,-1.258" style="fill:none;stroke:#000000;stroke-width:1.30769;stroke-linecap:round;stroke-linejoin:round;stroke-miterlimit:10;stroke-dasharray:none;stroke-opacity:1" id="path1190" sodipodi:nodetypes="ccccccccccccccccccccccccccccccccccc" />
         </g>
         <g id="g1192" transform="matrix(1,0,0,-1,0,-53.751655)">
            <path d="m 1102.371,-243.23981 c -0.746,-9.188 -1.168,-19.52219 -1.023,-28.08019" style="fill:none;stroke:#000000;stroke-width:1.30769;stroke-linecap:round;stroke-linejoin:round;stroke-miterlimit:10;stroke-dasharray:none;stroke-opacity:1" id="path1194" sodipodi:nodetypes="cc" />
         </g>
         <g id="g1196" transform="matrix(1,0,0,-1,0,-53.751655)">
            <path d="m 1101.66,-273.156 -0.945,-24.766" style="fill:none;stroke:#000000;stroke-width:1.30769;stroke-linecap:round;stroke-linejoin:round;stroke-miterlimit:10;stroke-dasharray:none;stroke-opacity:1" id="path1198" />
         </g>
         <g id="g1200" transform="matrix(1,0,0,-1,0,-53.751655)">
            <path d="m 1034.7697,-252.40041 c -2.57,-5.633 -5.0707,-14.037 -7.4107,-18.548" style="fill:none;stroke:#000000;stroke-width:1.30769;stroke-linecap:round;stroke-linejoin:round;stroke-miterlimit:10;stroke-dasharray:none;stroke-opacity:1" id="path1202" sodipodi:nodetypes="cc" />
         </g>
         <g id="g1204" transform="matrix(1,0,0,-1,0,-53.751655)">
            <path d="M 1027.359,-270.94841 1028.492,-294.5" style="fill:none;stroke:#000000;stroke-width:1.30769;stroke-linecap:round;stroke-linejoin:round;stroke-miterlimit:10;stroke-dasharray:none;stroke-opacity:1" id="path1206" sodipodi:nodetypes="cc" />
         </g>
         <g id="g1284" transform="matrix(1,0,0,-1,0,-53.751655)">
            <path d="m 1019.824,-193.395 c 0.085,1.3223 -0.1593,2.62798 -0.3245,3.93931 0.099,2.68462 0.08,4.83287 0.3787,7.52979 -1.4042,-1.11341 -2.0398,-2.87215 -2.4817,-4.55187 -0.3569,-1.45186 -1.4502,-2.4768 -2.1103,-3.74633 -0.8638,-1.65072 1.6011,-0.21212 2.5082,-0.28773 1.5519,0.18368 3.099,0.43252 4.6641,0.34566" style="fill:none;stroke:#000000;stroke-width:1.30769;stroke-linecap:round;stroke-linejoin:round;stroke-miterlimit:10;stroke-dasharray:none;stroke-opacity:1" id="path1286" sodipodi:nodetypes="ccccccc" />
         </g>
         <g id="g1288" transform="matrix(1,0,0,-1,0,-53.751655)">
            <path d="m 1027.6299,-182.60106 c -1.5409,0.27918 -2.3784,-1.26097 -2.7684,-2.34284 -0.3985,-1.574 -0.416,-3.25442 -0.2349,-4.8841 0.1666,-1.64078 1.7291,-3.20377 3.4692,-2.60083 1.7913,0.26514 2.1125,2.28372 1.8346,3.75667 -0.089,1.64808 -0.094,3.36436 -1.004,4.80637 -0.4712,1.26847 -1.9763,1.84951 -3.1214,1.05201 -0.079,-0.17285 -0.023,-0.45573 -0.2901,-0.47121" style="fill:none;stroke:#000000;stroke-width:1.30769;stroke-linecap:round;stroke-linejoin:round;stroke-miterlimit:10;stroke-dasharray:none;stroke-opacity:1" id="path1290" sodipodi:nodetypes="cccccccc" />
         </g>
         <g id="g1292" transform="matrix(1,0,0,-1,0,-53.751655)">
            <path d="m 1001.516,-188.793 c -0.7146,0.0618 -2.04855,0.25879 -2.4996,-0.0394 -0.0107,-0.48539 -0.11108,-1.66566 -0.12617,-2.00036 0.85478,0.15457 2.01957,-0.004 2.74837,-0.74815 0.5787,-0.55113 0.9583,-1.78618 -0.036,-2.12355 -0.8728,-0.4446 -1.88488,-0.60915 -2.83043,-0.29554 -0.43561,0.093 -0.55667,0.15886 -0.83952,0.21926" style="fill:none;stroke:#000000;stroke-width:1.30769;stroke-linecap:round;stroke-linejoin:round;stroke-miterlimit:10;stroke-dasharray:none;stroke-opacity:1" id="path1294" />
         </g>
         <g id="g1296" transform="matrix(1,0,0,-1,0,-53.751655)">
            <path d="m 1006.727,-188.645 c -0.9749,-0.10637 -1.0479,-0.22147 -1.8145,-1.08247 0.2272,-0.33972 -0.5343,-0.37031 -0.046,-0.77705 0.082,-1.16357 0.2055,-1.7869 0.7519,-2.79104 0.2468,-0.87561 1.8335,-0.38797 1.9541,0.53713 -0.1772,0.36958 0.7407,1.01137 0.1181,1.03182 0.7036,0.59863 0.1693,1.89721 -0.1848,2.53384 -0.3732,0.7011 -1.1237,0.98765 -1.9405,0.72947 0.067,-0.0423 -0.026,0.0919 0,0" style="fill:none;stroke:#000000;stroke-width:1.30769;stroke-linecap:round;stroke-linejoin:round;stroke-miterlimit:10;stroke-dasharray:none;stroke-opacity:1" id="path1298" sodipodi:nodetypes="ccccccccc" />
         </g>
         <g id="g1324" transform="matrix(1,0,0,-1,0,-53.751655)">
            <path d="m 1070.246,-289.078 c -1.028,0.96468 -2.6721,0.39484 -3.9603,0.67229 -2.1622,0.12307 -4.3331,0.0791 -6.4857,-0.0908 -0.9593,0.36266 -1.561,-0.11956 -0.5325,-0.70071 1.4131,-1.18813 3.361,-1.55629 4.6661,-2.91098 0.8426,-0.38142 2.8375,-2.40599 2.7723,-0.47454 -0.014,1.45975 -0.7282,2.89062 -0.5118,4.38763 -0.2184,0.89612 0.1966,2.07317 0.2445,2.64077" style="fill:none;stroke:#000000;stroke-width:1.30769;stroke-linecap:round;stroke-linejoin:round;stroke-miterlimit:10;stroke-dasharray:none;stroke-opacity:1" id="path1326" />
         </g>
         <g id="g1328" transform="matrix(1,0,0,-1,0,-54.985119)">
            <path d="m 1060.169,-280.21501 c 0.3373,-1.55245 1.8424,-3.49613 3.1841,-3.80043 1.4651,-0.19348 2.9745,-0.65253 4.4278,-0.13398 1.2115,-0.0185 2.2909,0.52376 3.3339,1.00156 1.4061,1.47075 -0.1111,3.48359 -1.3741,4.47932 -1.0891,0.92414 -2.5953,0.68217 -3.9124,0.85045 -1.6922,0.0753 -3.1919,-0.76965 -4.7097,-1.38263 -0.3796,-0.25508 -0.8035,-0.59322 -0.9496,-1.01429" style="fill:none;stroke:#000000;stroke-width:1.30769;stroke-linecap:round;stroke-linejoin:round;stroke-miterlimit:10;stroke-dasharray:none;stroke-opacity:1" id="path1330" sodipodi:nodetypes="cccccccc" />
         </g>
      </g>
   </g>
</svg>
