<?xml version="1.0" encoding="UTF-8" standalone="no"?>
<!-- Created by Ashley Blewer - This work is licensed under a Creative Commons Attribution 4.0 International License -->

<svg width="544" height="480" viewBox="0 0 143.93334 127" version="1.1" id="svg2490" inkscape:version="1.1.2 (08b2f3d93c, 2022-04-05)" sodipodi:docname="1997-hdcam-6.svg"
   xmlns:inkscape="http://www.inkscape.org/namespaces/inkscape"
   xmlns:sodipodi="http://sodipodi.sourceforge.net/DTD/sodipodi-0.dtd"
   xmlns="http://www.w3.org/2000/svg"
   xmlns:svg="http://www.w3.org/2000/svg">
   <sodipodi:namedview id="namedview2492" pagecolor="#ffffff" bordercolor="#666666" borderopacity="1.0" inkscape:pageshadow="2" inkscape:pageopacity="0.0" inkscape:pagecheckerboard="0" inkscape:document-units="mm" showgrid="false" units="px" inkscape:zoom="0.90583674" inkscape:cx="279.29978" inkscape:cy="194.84747" inkscape:window-width="1848" inkscape:window-height="1136" inkscape:window-x="72" inkscape:window-y="27" inkscape:window-maximized="1" inkscape:current-layer="layer1" />
   <defs id="defs2487" />
   <g inkscape:label="Layer 1" inkscape:groupmode="layer" id="layer1">
      <g id="g4203" transform="matrix(0.42511911,0,0,0.42511911,-378.42779,-191.63399)">
         <g id="g1392" transform="scale(1,-1)">
            <path d="m 976.77,-460.098 c -2.446,-2.203 -6.024,-4.707 -8.141,-7.277" style="fill:none;stroke:#000000;stroke-width:2.61538;stroke-linecap:round;stroke-linejoin:round;stroke-miterlimit:10;stroke-dasharray:none;stroke-opacity:1" id="path1394" sodipodi:nodetypes="cc" />
         </g>
         <g id="g1396" transform="scale(1,-1)">
            <path d="m 968.629,-467.375 c 4.133,-87.418 2.945,-165.032 6.734,-244.461" style="fill:none;stroke:#000000;stroke-width:2.61538;stroke-linecap:round;stroke-linejoin:round;stroke-miterlimit:10;stroke-dasharray:none;stroke-opacity:1" id="path1398" sodipodi:nodetypes="cc" />
         </g>
         <g id="g1400" transform="scale(1,-1)">
            <path d="m 975.363,-711.836 c 3.153,-3.57 6.199,-7.238 9.102,-11.019" style="fill:none;stroke:#000000;stroke-width:2.61538;stroke-linecap:round;stroke-linejoin:round;stroke-miterlimit:10;stroke-dasharray:none;stroke-opacity:1" id="path1402" />
         </g>
         <g id="g1404" transform="scale(1,-1)">
            <path d="m 976.77,-460.098 7.335,-261.191" style="fill:none;stroke:#000000;stroke-width:2.61538;stroke-linecap:round;stroke-linejoin:round;stroke-miterlimit:10;stroke-dasharray:none;stroke-opacity:1" id="path1406" sodipodi:nodetypes="cc" />
         </g>
         <g id="g1408" transform="scale(1,-1)">
            <path d="m 976.77,-460.098 126.6518,-13.01247" style="fill:none;stroke:#000000;stroke-width:2.61538;stroke-linecap:round;stroke-linejoin:round;stroke-miterlimit:10;stroke-dasharray:none;stroke-opacity:1" id="path1410" sodipodi:nodetypes="cc" />
         </g>
         <g id="g1412" transform="scale(1,-1)">
            <path d="m 984.465,-722.855 c 29.828,4.2 59.863,12.597 89.023,19.832" style="fill:none;stroke:#000000;stroke-width:2.61538;stroke-linecap:round;stroke-linejoin:round;stroke-miterlimit:10;stroke-dasharray:none;stroke-opacity:1" id="path1414" sodipodi:nodetypes="cc" />
         </g>
         <g id="g1416" transform="scale(1,-1)">
            <path d="m 1075.047,-568.465 -0.891,-157.422" style="fill:none;stroke:#000000;stroke-width:2.61538;stroke-linecap:round;stroke-linejoin:round;stroke-miterlimit:10;stroke-dasharray:none;stroke-opacity:1" id="path1418" />
         </g>
         <g id="g1420" transform="scale(1,-1)">
            <path d="m 1074.281,-725.938 c 5.645,-2.769 11.086,-6.234 16.004,-10.152" style="fill:none;stroke:#000000;stroke-width:2.61538;stroke-linecap:round;stroke-linejoin:round;stroke-miterlimit:10;stroke-dasharray:none;stroke-opacity:1" id="path1422" />
         </g>
         <g id="g1424" transform="scale(1,-1)">
            <path d="m 1074.973,-567.562 15.855,-3.075" style="fill:none;stroke:#000000;stroke-width:2.61538;stroke-linecap:round;stroke-linejoin:round;stroke-miterlimit:10;stroke-dasharray:none;stroke-opacity:1" id="path1426" />
         </g>
         <g id="g1428" transform="scale(1,-1)">
            <path d="m 1090.805,-570.531 -0.871,-164.36" style="fill:none;stroke:#000000;stroke-width:2.61538;stroke-linecap:round;stroke-linejoin:round;stroke-miterlimit:10;stroke-dasharray:none;stroke-opacity:1" id="path1430" sodipodi:nodetypes="cc" />
         </g>
         <g id="g1432" transform="scale(1,-1)">
            <path d="m 1075.27,-567.484 c 2.753,0.687 9.937,1.765 13.367,1.566 l 61.988,1.852 -0.227,-0.067" style="fill:none;stroke:#000000;stroke-width:2.61538;stroke-linecap:round;stroke-linejoin:round;stroke-miterlimit:10;stroke-dasharray:none;stroke-opacity:1" id="path1434" />
         </g>
         <g id="g1436" transform="scale(1,-1)">
            <path d="m 1090.891,-570.27 72.234,4.715" style="fill:none;stroke:#000000;stroke-width:2.61538;stroke-linecap:round;stroke-linejoin:round;stroke-miterlimit:10;stroke-dasharray:none;stroke-opacity:1" id="path1438" />
         </g>
         <g id="g1440" transform="scale(1,-1)">
            <path d="m 1151.863,-564.84 c 3.641,-0.57247 7.3208,-0.7124 10.9987,-0.84321 1.0474,-0.0426 3.0557,-1.55175 4.0873,-1.71479" style="fill:none;stroke:#000000;stroke-width:2.61538;stroke-linecap:round;stroke-linejoin:round;stroke-miterlimit:10;stroke-dasharray:none;stroke-opacity:1" id="path1442" sodipodi:nodetypes="ccc" />
         </g>
         <g id="g1444" transform="scale(1,-1)">
            <path d="m 1166.949,-567.398 -7.293,-146.293 -0.363,0.414" style="fill:none;stroke:#000000;stroke-width:2.61538;stroke-linecap:round;stroke-linejoin:round;stroke-miterlimit:10;stroke-dasharray:none;stroke-opacity:1" id="path1446" />
         </g>
         <g id="g1448" transform="scale(1,-1)">
            <path d="m 1090.285,-736.09 c 20.774,6.582 42.246,12.809 62.867,20.031 2.317,0.664 4.973,1.403 7.133,1.782" style="fill:none;stroke:#000000;stroke-width:2.61538;stroke-linecap:round;stroke-linejoin:round;stroke-miterlimit:10;stroke-dasharray:none;stroke-opacity:1" id="path1450" sodipodi:nodetypes="ccc" />
         </g>
         <g id="g1452" transform="scale(1,-1)">
            <path d="m 1103.4218,-473.11047 c -0.984,-29.402 -1.3088,-91.20953 -1.3088,-91.20953" style="fill:none;stroke:#000000;stroke-width:2.61538;stroke-linecap:round;stroke-linejoin:round;stroke-miterlimit:10;stroke-dasharray:none;stroke-opacity:1" id="path1454" sodipodi:nodetypes="cc" />
         </g>
         <g id="g1568" transform="scale(1,-1)">
            <path d="m 1022.309,-541.668 c 0.211,4.395 -0.582,8.785 -0.172,13.184 0.32,5.711 0.715,11.414 0.574,17.136 0.023,8.422 -0.645,16.828 -1.457,25.2 0.301,1.554 -1.137,4.207 -0.219,5.207" style="fill:none;stroke:#000000;stroke-width:1.30769;stroke-linecap:round;stroke-linejoin:round;stroke-miterlimit:10;stroke-dasharray:none;stroke-opacity:1" id="path1570" />
         </g>
         <g id="g1572" transform="scale(1,-1)">
            <path d="m 1021.035,-480.941 c 3.33,2.50829 6.422,2.546 9.617,3.156 4.45,0.379 8.887,-0.418 13.321,-0.641 4.0409,-0.68976 7.4368,-2.31422 10.582,-3.789" style="fill:none;stroke:#000000;stroke-width:1.30769;stroke-linecap:round;stroke-linejoin:round;stroke-miterlimit:10;stroke-dasharray:none;stroke-opacity:1" id="path1574" sodipodi:nodetypes="cccc" />
         </g>
         <g id="g1576" transform="scale(1,-1)">
            <path d="m 1054.555,-482.215 c 2.0201,-3.29089 0.6047,-9.17078 1.1606,-12.76458 -0.017,-9.10982 1.024,-18.21006 0.3334,-27.31877 -0.4402,-5.75189 -0.2249,-13.8751 -0.6709,-19.6264" style="fill:none;stroke:#000000;stroke-width:1.30769;stroke-linecap:round;stroke-linejoin:round;stroke-miterlimit:10;stroke-dasharray:none;stroke-opacity:1" id="path1578" sodipodi:nodetypes="cccc" />
         </g>
         <g id="g1580" transform="scale(1,-1)">
            <path d="m 1022.309,-541.668 33.0691,-0.25675" style="fill:none;stroke:#000000;stroke-width:1.30769;stroke-linecap:round;stroke-linejoin:round;stroke-miterlimit:10;stroke-dasharray:none;stroke-opacity:1" id="path1582" sodipodi:nodetypes="cc" />
         </g>
         <g id="g1584" transform="scale(1,-1)">
            <path d="m 1109.703,-618.824 c 0,0 -2.476,32.808 -0.141,38.636" style="fill:none;stroke:#000000;stroke-width:1.30769;stroke-linecap:round;stroke-linejoin:round;stroke-miterlimit:10;stroke-dasharray:none;stroke-opacity:1" id="path1586" />
         </g>
         <g id="g1588" transform="scale(1,-1)">
            <path d="m 1109.562,-580.188 c 3.0468,3.32873 7.0665,5.80471 11.2382,5.76218 4.8233,0.18355 9.5828,-0.89132 14.2497,-1.9796 1.7769,-0.70316 4.4076,-2.29048 5.9301,-3.44258" style="fill:none;stroke:#000000;stroke-width:1.30769;stroke-linecap:round;stroke-linejoin:round;stroke-miterlimit:10;stroke-dasharray:none;stroke-opacity:1" id="path1590" sodipodi:nodetypes="cccc" />
         </g>
         <g id="g1592" transform="scale(1,-1)">
            <path d="m 1140.98,-579.848 0.86,-35.476" style="fill:none;stroke:#000000;stroke-width:1.30769;stroke-linecap:round;stroke-linejoin:round;stroke-miterlimit:10;stroke-dasharray:none;stroke-opacity:1" id="path1594" />
         </g>
         <g id="g1596" transform="scale(1,-1)">
            <path d="m 1109.848,-619.133 32.129,3.738" style="fill:none;stroke:#000000;stroke-width:1.30769;stroke-linecap:round;stroke-linejoin:round;stroke-miterlimit:10;stroke-dasharray:none;stroke-opacity:1" id="path1598" />
         </g>
         <g id="g1600" transform="scale(1,-1)">
            <path d="m 1119.688,-618.109 c -0.497,1.234 -0.094,3.234 -0.524,4.726 0.07,1.949 -0.187,4.434 1.34,5.856 1.621,1.265 3.894,0.152 4.297,-1.762 0.418,-1.731 0.496,-3.461 0.293,-5.234 0.367,-1.141 -0.875,-2.059 -0.821,-2.922" style="fill:none;stroke:#000000;stroke-width:1.30769;stroke-linecap:round;stroke-linejoin:round;stroke-miterlimit:10;stroke-dasharray:none;stroke-opacity:1" id="path1602" />
         </g>
         <g id="g1604" transform="scale(1,-1)">
            <path d="m 1128.082,-616.512 c 0.367,2.02 1.52,5.106 1.484,7.207 0.614,2.063 -0.121,4.071 -0.582,6.067 -0.695,2.031 -3.136,2.273 -5.027,2.148 -2.543,0.051 -5.039,-0.894 -6.582,-3 -1.543,-1.066 -2.715,-2.859 -2.437,-4.797 -0.422,-2.195 0.726,-4.277 1.343,-6.301 0.559,-0.855 0.696,-2.101 1.66,-2.617" style="fill:none;stroke:#000000;stroke-width:1.30769;stroke-linecap:round;stroke-linejoin:round;stroke-miterlimit:10;stroke-dasharray:none;stroke-opacity:1" id="path1606" />
         </g>
         <g id="g1608" transform="scale(1,-1)">
            <path d="m 1131.883,-616.023 c 0.351,-0.461 1.379,3.152 1.824,3.961 1.121,1.683 0.844,3.714 1.063,5.617 -0.239,2.16 -0.774,4.246 -1.286,6.336 -0.687,2.32 -3.101,3.511 -5.363,3.746 -2.07,0.664 -4.348,0.98 -6.453,0.308 -1.977,-0.597 -3.856,-1.59 -5.363,-2.972 -2.219,-1.914 -5.371,-3.785 -7.094,-5.957" style="fill:none;stroke:#000000;stroke-width:1.30769;stroke-linecap:round;stroke-linejoin:round;stroke-miterlimit:10;stroke-dasharray:none;stroke-opacity:1" id="path1610" />
         </g>
         <g id="g1612" transform="scale(1,-1)">
            <path d="m 1038.836,-522.109 c -2.8576,0.38526 -5.6868,-1.54239 -6.7842,-4.13427 -0.5352,-1.21413 -1.1291,-2.48105 -1.143,-3.82988 0.047,-1.61489 0.5488,-3.17666 1.0217,-4.70578 0.5391,-1.35986 1.1994,-2.99603 2.7525,-3.42729 1.4817,-0.66694 3.1708,-1.08107 4.7759,-0.64082 2.5849,0.20824 4.8029,1.84808 6.4934,3.71161 0.9137,1.1905 1.0216,2.74946 1.2976,4.17169 0.2615,1.96379 -0.1208,4.24837 -1.7804,5.52303 -1.8684,1.67174 -4.2183,2.72789 -6.6335,3.33171 z" style="fill:none;stroke:#000000;stroke-width:1.30769;stroke-linecap:round;stroke-linejoin:round;stroke-miterlimit:10;stroke-dasharray:none;stroke-opacity:1" id="path1614" sodipodi:nodetypes="cccccccccc" />
         </g>
         <g id="g1616" transform="scale(1,-1)">
            <path d="m 1023.277,-525.055 c 0.692,1.961 1.676,4.141 3.243,5.836 1.507,2.071 3.882,2.891 6.277,3.426 3.652,1.938 7.973,0.844 11.648,-0.422 3.024,-1.172 5.602,-3.219 7.758,-5.609 1.887,-1.836 0.985,-4.567 2.477,-6.582" style="fill:none;stroke:#000000;stroke-width:1.30769;stroke-linecap:round;stroke-linejoin:round;stroke-miterlimit:10;stroke-dasharray:none;stroke-opacity:1" id="path1618" />
         </g>
         <g id="g1620" transform="scale(1,-1)">
            <path d="m 1022.305,-489.848 c 0.691,0.496 3.039,2.028 4.468,2.969 2.504,1.125 5.008,2.348 7.661,3.086 2.187,0.223 4.41,0.234 6.601,0.188 3.18,-0.278 6.32,-0.868 9.277,-2.098 1.754,-1.102 3.969,-1.817 5.004,-3.766 l 0.309,-0.343" style="fill:none;stroke:#000000;stroke-width:1.30769;stroke-linecap:round;stroke-linejoin:round;stroke-miterlimit:10;stroke-dasharray:none;stroke-opacity:1" id="path1622" sodipodi:nodetypes="ccccccc" />
         </g>
         <g id="g1624" transform="scale(1,-1)">
            <path d="m 1042.535,-646.863 c -2.259,0.12492 -3.398,-0.0961 -4.3422,-1.41534 -0.9199,-1.04548 -1.1613,-2.44509 -1.8695,-3.60935 -0.7642,-1.63937 -1.1767,-3.79376 -0.016,-5.35037 1.4706,-1.73728 4.016,-2.17988 6.1223,-1.5023 1.4471,0.42689 2.7678,1.19227 4.0713,1.93362 1.5426,1.03146 2.659,3.07731 1.9142,4.91364 -0.2987,1.06324 -0.6563,2.21917 -1.6635,2.82541 -1.2941,0.93916 -1.9662,1.57021 -4.2168,2.20469 z" style="fill:none;stroke:#000000;stroke-width:1.30769;stroke-linecap:round;stroke-linejoin:round;stroke-miterlimit:10;stroke-dasharray:none;stroke-opacity:1" id="path1626" sodipodi:nodetypes="cccccccccc" />
         </g>
         <g id="g1632" transform="scale(1,-1)">
            <path d="m 1057.715,-639.078 1.18,-54.711" style="fill:none;stroke:#000000;stroke-width:1.30769;stroke-linecap:round;stroke-linejoin:round;stroke-miterlimit:10;stroke-dasharray:none;stroke-opacity:1" id="path1634" sodipodi:nodetypes="cc" />
         </g>
         <g id="g1636" transform="scale(1,-1)">
            <path d="m 1023.316,-642.828 c -0.89,-18.078 1.961,-56.777 2.098,-57.383 -0.164,-0.16 -0.082,0.656 -0.137,0.606" style="fill:none;stroke:#000000;stroke-width:1.30769;stroke-linecap:round;stroke-linejoin:round;stroke-miterlimit:10;stroke-dasharray:none;stroke-opacity:1" id="path1638" />
         </g>
         <g id="g1640" transform="scale(1,-1)">
            <path d="m 1025.453,-700.574 c 6.934,0.121 15.098,-0.914 21.09,1.324 3.625,1.398 7.527,2.16 10.883,4.199 0.578,0.235 1.562,0.43 1.469,1.262" style="fill:none;stroke:#000000;stroke-width:1.30769;stroke-linecap:round;stroke-linejoin:round;stroke-miterlimit:10;stroke-dasharray:none;stroke-opacity:1" id="path1642" />
         </g>
         <g id="g1644" transform="scale(1,-1)">
            <path d="m 1023.3457,-658.059 c 1.68,-3.046 4.8383,-6.168 8.4243,-7.011 3.48,-1.094 7.359,-1.575 10.89,-0.504 2.028,1.047 4.047,2.09 6.117,3.047 1.93,1.191 3.211,3.215 4.328,5.132 1.008,3.442 2.774,6.969 1.907,10.629 -0.051,1.977 -2.3079,5.25017 -3.8899,6.48817" style="fill:none;stroke:#000000;stroke-width:1.30769;stroke-linecap:round;stroke-linejoin:round;stroke-miterlimit:10;stroke-dasharray:none;stroke-opacity:1" id="path1646" sodipodi:nodetypes="ccccccc" />
         </g>
         <g id="g1648" transform="scale(1,-1)">
            <path d="m 1156.324,-620.422 -3.633,-87.336" style="fill:none;stroke:#000000;stroke-width:1.30769;stroke-linecap:round;stroke-linejoin:round;stroke-miterlimit:10;stroke-dasharray:none;stroke-opacity:1" id="path1650" />
         </g>
         <g id="g1652" transform="scale(1,-1)">
            <path d="m 1161.617,-571.141 -5.203,-136.824 0.024,-1.687" style="fill:none;stroke:#000000;stroke-width:1.30769;stroke-linecap:round;stroke-linejoin:round;stroke-miterlimit:10;stroke-dasharray:none;stroke-opacity:1" id="path1654" sodipodi:nodetypes="ccc" />
         </g>
         <g id="g1656" transform="scale(1,-1)">
            <path d="m 1147.242,-715.133 c -0.187,-0.41 0.719,0.063 0.992,-0.004 1.508,0.262 2.985,0.688 4.512,0.825 1.453,0.222 2.918,0.429 4.371,0.632 0.606,0.004 0.86,-0.043 0.758,0.618" style="fill:none;stroke:#000000;stroke-width:1.30769;stroke-linecap:round;stroke-linejoin:round;stroke-miterlimit:10;stroke-dasharray:none;stroke-opacity:1" id="path1658" />
         </g>
         <g id="g1660" transform="scale(1,-1)">
            <path d="m 1149.699,-568.5 c 0.156,0.402 0.172,-0.441 0.145,-0.605 -0.032,-0.395 -0.235,-0.84 -0.254,-1.188 l 12.027,-0.848" style="fill:none;stroke:#000000;stroke-width:1.30769;stroke-linecap:round;stroke-linejoin:round;stroke-miterlimit:10;stroke-dasharray:none;stroke-opacity:1" id="path1662" />
         </g>
         <g id="g1664" transform="scale(1,-1)">
            <path d="m 1084.746,-474.148 c 4.125,-0.426 7.942,-0.758 12.024,-0.957 0.078,0.027 0.246,-0.016 0.277,0.101" style="fill:none;stroke:#000000;stroke-width:1.30769;stroke-linecap:round;stroke-linejoin:round;stroke-miterlimit:10;stroke-dasharray:none;stroke-opacity:1" id="path1666" />
         </g>
         <g id="g1668" transform="scale(1,-1)">
            <path d="m 1085.551,-471.855 h 0.011 v -0.02 l -0.019,-0.027 0.012,-0.036 v -0.019 l 0.027,-0.016 -0.047,-0.05 -0.012,-0.051 0.043,0.019 0.012,-0.015 0.01,-0.016 0.012,0.004 -0.012,0.031 0.035,0.004 0.035,-0.039 v -0.059 l 0.012,-0.019 -0.106,-0.039 -0.042,-0.086 0.082,-0.043 0.015,-0.059 0.012,-0.054 v -0.055 l 0.031,-0.047 -0.015,-0.015 -0.032,-0.055 v -0.039 l -0.011,-0.032 v -0.144 l -0.012,-0.016 -0.024,-0.035 -0.011,-0.039 -0.039,-0.047 -0.043,-0.015 0.015,-0.028 -0.015,-0.035 -0.059,-0.047 -0.019,-0.058 -0.028,-0.032 -0.015,-0.035 -0.01,-0.07 0.035,-0.031 v 0.023 l -0.043,-0.031 -0.01,-0.039 v -0.028 0.051 -0.113 l -0.012,-0.023 0.024,-0.047 0.027,-0.043 -0.01,-0.035 -0.011,-0.036 -0.016,-0.031 -0.012,-0.031 0.012,-0.063 v -0.035 l -0.016,-0.008 -0.015,-0.003 -0.012,0.003 -0.07,0.004 0.027,0.012" style="fill:none;stroke:#000000;stroke-width:1.30769;stroke-linecap:round;stroke-linejoin:round;stroke-miterlimit:10;stroke-dasharray:none;stroke-opacity:1" id="path1670" />
         </g>
         <g id="g1672" transform="scale(1,-1)">
            <path d="m 1096.492,-477.395 c 0.219,-12.917 -1.824,-25.824 -0.347,-38.761 0.964,-15.895 -1.141,-32.266 0.679,-47.883" style="fill:none;stroke:#000000;stroke-width:1.30769;stroke-linecap:round;stroke-linejoin:round;stroke-miterlimit:10;stroke-dasharray:none;stroke-opacity:1" id="path1674" />
         </g>
         <g id="g1676" transform="scale(1,-1)">
            <path d="m 1007.238,-547.242 62.532,0.754" style="fill:none;stroke:#000000;stroke-width:1.30769;stroke-linecap:round;stroke-linejoin:round;stroke-miterlimit:10;stroke-dasharray:none;stroke-opacity:1" id="path1678" />
         </g>
         <g id="g1680" transform="scale(1,-1)">
            <path d="m 1070.207,-546.543 -1.262,-90.94859" style="fill:none;stroke:#000000;stroke-width:1.30769;stroke-linecap:round;stroke-linejoin:round;stroke-miterlimit:10;stroke-dasharray:none;stroke-opacity:1" id="path1682" sodipodi:nodetypes="cc" />
         </g>
         <g id="g1684" transform="scale(1,-1)">
            <path d="m 1007.238,-547.242 c 0.816,-31.704 3.633,-64.055 4.973,-95.731" style="fill:none;stroke:#000000;stroke-width:1.30769;stroke-linecap:round;stroke-linejoin:round;stroke-miterlimit:10;stroke-dasharray:none;stroke-opacity:1" id="path1686" sodipodi:nodetypes="cc" />
         </g>
         <g id="g1688" transform="scale(1,-1)">
            <path d="m 1012.211,-642.973 c 6.824,0.453 16.773,0.961 23.613,1.313 8.606,0.387 17.082,1.875 25.59,3.109 4.016,0.379 8.695,0.856 12.305,1.047" style="fill:none;stroke:#000000;stroke-width:1.30769;stroke-linecap:round;stroke-linejoin:round;stroke-miterlimit:10;stroke-dasharray:none;stroke-opacity:1" id="path1690" sodipodi:nodetypes="cccc" />
         </g>
         <g id="g1692" transform="scale(1,-1)">
            <path d="m 1024.043,-517.766 c 1.492,3.844 5.953,5.153 9.543,6.184 3.582,0.281 8.027,1.449 10.965,-1.258 2.672,-2.258 2.797,-6.012 4.797,-8.722 1.175,3.046 -1.903,6.085 -4.125,7.902 -3.762,2.797 -8.606,1.906 -12.918,1.433 -1.032,-0.707 -4.317,-3.5 -4.114,-2.714 4.497,2.804 9.969,4.629 15.274,3.312 3.055,-0.664 6.738,-1.059 8.644,-3.851 0.602,-1.012 -0.98,-3.665 -0.117,-1.067 -0.293,2.965 -2.187,5.82 -4.879,7.379 -4.398,2.711 -9.832,1.766 -14.656,1.094 -2.207,-0.512 -7.004,-2.938 -7.617,-2.25 3.265,1.672 5.422,5.23 9.32,5.722 4.125,0.907 8.695,0.645 12.176,-1.945 1.715,-0.398 4.559,-4.574 3.016,-4.726 -2.02,3.171 -4.7,7.109 -8.965,6.929 -3.809,-0.207 -7.672,-0.308 -11.422,-1.031 -1.695,-0.379 -4.434,-3.211 -1.563,-0.367 4.453,2.801 9.786,4.625 15.114,3.902 2.519,-0.855 7.211,0.676 8.023,-2.523 0.141,-2.723 -1.832,-3.797 -2.523,-0.692 -1.551,3.25 -4.938,5.684 -8.645,5.352 -4.766,-0.078 -10.152,0.379 -14.133,-2.703 1.364,0.832 6.094,2.761 8.918,3.66 4.946,1.691 10.989,2.113 15.395,-1.141 1.293,-0.804 1.976,-3.718 0.367,-0.988 -2.645,3.59 -7.633,3.082 -11.563,2.797 -4.968,-0.309 -10.187,0.293 -14.871,-1.75 4.536,0.828 8.239,3.711 12.289,5.676 3.946,1.39 8.446,1.062 12.293,-0.438 1.735,-0.82 3.469,-5.129 3.7,-4.996 -1.969,3.867 -6.477,4.836 -10.454,4.906 -4.949,0.039 -9.925,-0.191 -14.738,-1.472 -1.215,0.57 3.571,2.25 4.625,2.961 4.274,2.379 9.188,3.57 14.067,2.957 2.597,0.507 8.66,-1.684 5.304,-3.977 -3.675,2.649 -7.343,6.539 -12.324,5.789 -4.644,-0.492 -9.781,-0.746 -13.441,-4.043 0.308,1.027 4.218,3.121 6.168,4.082 5.078,2.27 11.078,4.074 16.441,1.602 0.949,-0.586 2.883,-0.735 2.93,-1.574" style="fill:none;stroke:#000000;stroke-width:1.30769;stroke-linecap:round;stroke-linejoin:round;stroke-miterlimit:10;stroke-dasharray:none;stroke-opacity:1" id="path1694" />
         </g>
         <g id="g1696" transform="scale(1,-1)">
            <path d="m 1001.629,-546.43 c 1.168,-32.156 2.297,-64.316 2.508,-96.496" style="fill:none;stroke:#000000;stroke-width:1.30769;stroke-linecap:round;stroke-linejoin:round;stroke-miterlimit:10;stroke-dasharray:none;stroke-opacity:1" id="path1698" />
         </g>
         <g id="g1700" transform="scale(1,-1)">
            <path d="m 1001.629,-546.43 c -0.7754,0.76215 -3.07167,1.41617 -4.04868,1.68194 -1.14258,0.0425 -2.1402,-0.68616 -3.27885,-0.70081 -1.04753,-0.14705 -1.99241,-0.69403 -2.76457,-1.39299 -0.14355,-0.0959 -2.21814,-2.20478 -1.5019,-2.27514" style="fill:none;stroke:#000000;stroke-width:1.30769;stroke-linecap:round;stroke-linejoin:round;stroke-miterlimit:10;stroke-dasharray:none;stroke-opacity:1" id="path1702" sodipodi:nodetypes="ccccc" />
         </g>
         <g id="g1704" transform="scale(1,-1)">
            <path d="m 990.035,-549.117 c 0.551,-31.168 2.258,-62.297 3.246,-93.449" style="fill:none;stroke:#000000;stroke-width:1.30769;stroke-linecap:round;stroke-linejoin:round;stroke-miterlimit:10;stroke-dasharray:none;stroke-opacity:1" id="path1706" sodipodi:nodetypes="cc" />
         </g>
         <g id="g1708" transform="scale(1,-1)">
            <path d="m 993.281,-642.566 c 0,0 0.836,-3.633 0.883,-3.95 1.008,-0.5 2.117,-0.785 3.215,-0.992 0.898,0.02 1.801,0.121 2.683,0.289 0.868,0.281 1.563,0.887 2.176,1.539 0.582,0.543 1.336,1.09 1.649,1.852 0,0.281 0.269,0.543 0.148,0.859" style="fill:none;stroke:#000000;stroke-width:1.30769;stroke-linecap:round;stroke-linejoin:round;stroke-miterlimit:10;stroke-dasharray:none;stroke-opacity:1" id="path1710" sodipodi:nodetypes="ccccccc" />
         </g>
         <g id="g1712" transform="scale(1,-1)">
            <path d="m 974.461,-662.387 c 2.27596,-1.62536 2.52613,-5.27504 5.49869,-6.05416 0.94763,-0.40588 2.08312,0.15781 1.97863,1.28519" style="fill:none;stroke:#000000;stroke-width:1.30769;stroke-linecap:round;stroke-linejoin:round;stroke-miterlimit:10;stroke-dasharray:none;stroke-opacity:1" id="path1714" />
         </g>
         <g id="g1716" transform="scale(1,-1)">
            <path d="m 1080.762,-517.715 c 6.054,8.906 -11.871,12.024 -11.114,1.809 3.836,-5.821 11.856,3.468 4.836,4.898" style="fill:none;stroke:#000000;stroke-width:1.30769;stroke-linecap:round;stroke-linejoin:round;stroke-miterlimit:10;stroke-dasharray:none;stroke-opacity:1" id="path1718" />
         </g>
         <g id="g1720" transform="scale(1,-1)">
            <path d="m 1069.113,-529.148 c 2.989,0.496 14.282,-0.106 13.172,1.406 -4.383,3.777 -12.851,9.347 -9.035,-0.813 0.219,-1.437 -0.238,-2.961 0.238,-4.367" style="fill:none;stroke:#000000;stroke-width:1.30769;stroke-linecap:round;stroke-linejoin:round;stroke-miterlimit:10;stroke-dasharray:none;stroke-opacity:1" id="path1722" />
         </g>
         <g id="g1724" transform="scale(1,-1)">
            <path d="m 1148.016,-598.984 c 0.933,0.621 2.218,0.476 3.289,0.843 0.711,0.18 1.828,0.274 2.285,0.516 0.527,0.047 1.449,-0.16 0.82,0.402 -0.574,0.688 -0.726,1.703 -1.558,2.168 -0.883,0.707 -1.692,1.543 -2.805,1.899 -0.332,0.097 -0.965,0.472 -0.762,-0.375 -0.301,-0.949 -0.117,-1.942 -0.359,-2.946 0.058,-1.109 -0.406,-2.234 -0.238,-3.339 0.085,-0.364 0.277,-1.77 -0.04,-1.196 l 0.024,0.059" style="fill:none;stroke:#000000;stroke-width:1.30769;stroke-linecap:round;stroke-linejoin:round;stroke-miterlimit:10;stroke-dasharray:none;stroke-opacity:1" id="path1726" />
         </g>
         <g id="g1728" transform="scale(1,-1)">
            <path d="m 1149.254,-598.156 c -0.766,0.027 -1.703,-0.203 -2.484,-0.528 -0.286,-0.007 -0.86,-0.265 -0.985,-0.152" style="fill:none;stroke:#000000;stroke-width:1.30769;stroke-linecap:round;stroke-linejoin:round;stroke-miterlimit:10;stroke-dasharray:none;stroke-opacity:1" id="path1730" />
         </g>
         <g id="g1732" transform="scale(1,-1)">
            <path d="m 1152.875,-602.855 c -0.859,0.453 -1.852,0.636 -2.82,0.543 -0.86,-0.227 -1.785,-0.274 -2.547,-0.77 -0.793,-0.356 -1.156,-1.246 -1.535,-1.984 -0.235,-1.063 0,-2.489 1.117,-2.934 0.93,-0.387 1.914,-0.555 2.887,-0.797 1.093,-0.09 2.261,0.141 3.238,0.574 0.68,0.606 1.324,1.192 1.676,2.035 0.461,0.665 0.254,1.559 0.089,2.29 -0.421,0.707 -0.785,1.656 -1.789,1.64 -0.742,0.199 -1.441,-0.012 -2.156,-0.168" style="fill:none;stroke:#000000;stroke-width:1.30769;stroke-linecap:round;stroke-linejoin:round;stroke-miterlimit:10;stroke-dasharray:none;stroke-opacity:1" id="path1734" />
         </g>
      </g>
   </g>
</svg>
