<?xml version="1.0" encoding="UTF-8" standalone="no"?>
<!-- Created by Ashley Blewer - This work is licensed under a Creative Commons Attribution 4.0 International License -->

<svg width="544" height="480" viewBox="0 0 143.93334 127" version="1.1" id="svg2490" inkscape:version="1.1.2 (08b2f3d93c, 2022-04-05)" sodipodi:docname="1997-hdcam-1.svg"
   xmlns:inkscape="http://www.inkscape.org/namespaces/inkscape"
   xmlns:sodipodi="http://sodipodi.sourceforge.net/DTD/sodipodi-0.dtd"
   xmlns="http://www.w3.org/2000/svg"
   xmlns:svg="http://www.w3.org/2000/svg">
   <sodipodi:namedview id="namedview2492" pagecolor="#ffffff" bordercolor="#666666" borderopacity="1.0" inkscape:pageshadow="2" inkscape:pageopacity="0.0" inkscape:pagecheckerboard="0" inkscape:document-units="mm" showgrid="false" units="px" inkscape:zoom="0.90583674" inkscape:cx="279.29978" inkscape:cy="194.84747" inkscape:window-width="1848" inkscape:window-height="1136" inkscape:window-x="72" inkscape:window-y="27" inkscape:window-maximized="1" inkscape:current-layer="layer1" />
   <defs id="defs2487" />
   <g inkscape:label="Layer 1" inkscape:groupmode="layer" id="layer1">
      <g id="g1978" transform="matrix(0.48344397,0,0,0.4835713,-146.52872,-51.06604)" style="stroke-width:0.985876">
         <g id="g204" transform="matrix(1,0,0,-1,47.848984,-37.457026)" style="stroke-width:0.985876" />
         <g id="g34450" transform="translate(-4.4370273,-7.393098)">
            <g id="g96" transform="matrix(1,0,0,-1,47.848984,-37.457026)" style="stroke-width:0.985876">
               <path d="m 285.938,-287.625 c -1.79584,-0.35902 -3.59901,0.18068 -5.3084,0.69139 -0.49439,0.1638 -1.01222,0.26485 -1.49761,0.44732 -0.8281,0.4323 -1.86172,1.56433 -2.00299,2.42029" style="fill:none;stroke:#000000;stroke-width:2.57844;stroke-linecap:round;stroke-linejoin:round;stroke-miterlimit:10;stroke-dasharray:none;stroke-opacity:1" id="path98" sodipodi:nodetypes="cccc" />
            </g>
            <g id="g100" transform="matrix(1,0,0,-1,47.848984,-37.457026)" style="stroke-width:0.985876">
               <path d="m 277.129,-284.066 -3.332,78.871" style="fill:none;stroke:#000000;stroke-width:2.57844;stroke-linecap:round;stroke-linejoin:round;stroke-miterlimit:10;stroke-dasharray:none;stroke-opacity:1" id="path102" sodipodi:nodetypes="cc" />
            </g>
            <g id="g104" transform="matrix(1,0,0,-1,47.848984,-37.457026)" style="stroke-width:0.985876">
               <path d="m 273.797,-205.195 261.961,-0.012 c 1.41,-0.797 3.672,0.09 4.672,-1.426" style="fill:none;stroke:#000000;stroke-width:2.57844;stroke-linecap:round;stroke-linejoin:round;stroke-miterlimit:10;stroke-dasharray:none;stroke-opacity:1" id="path106" />
            </g>
            <g id="g108" transform="matrix(1,0,0,-1,47.848984,-37.457026)" style="stroke-width:0.985876">
               <path d="m 544.758,-292.004 c -2.6978,28.43489 -4.81793,57.11528 -4.328,85.371" style="fill:none;stroke:#000000;stroke-width:2.57844;stroke-linecap:round;stroke-linejoin:round;stroke-miterlimit:10;stroke-dasharray:none;stroke-opacity:1" id="path110" sodipodi:nodetypes="cc" />
            </g>
            <g id="g112" transform="matrix(1,0,0,-1,47.848984,-37.457026)" style="stroke-width:0.985876">
               <path d="M 300.809,-233.676 286.285,-291.27" style="fill:none;stroke:#000000;stroke-width:2.57844;stroke-linecap:round;stroke-linejoin:round;stroke-miterlimit:10;stroke-dasharray:none;stroke-opacity:1" id="path114" />
            </g>
            <g id="g116" transform="matrix(1,0,0,-1,47.848984,-37.457026)" style="stroke-width:0.985876">
               <path d="m 286.73,-292.383 245.899,-3.121 c 3.172,0.277 13.41,-2.957 12.129,3.5" style="fill:none;stroke:#000000;stroke-width:2.57844;stroke-linecap:round;stroke-linejoin:round;stroke-miterlimit:10;stroke-dasharray:none;stroke-opacity:1" id="path118" />
            </g>
            <g id="g120" transform="matrix(1,0,0,-1,47.848984,-37.457026)" style="stroke-width:0.985876">
               <path d="m 299.598,-211.828 227.879,-0.875" style="fill:none;stroke:#000000;stroke-width:2.57844;stroke-linecap:round;stroke-linejoin:round;stroke-miterlimit:10;stroke-dasharray:none;stroke-opacity:1" id="path122" sodipodi:nodetypes="cc" />
            </g>
            <g id="g124" transform="matrix(1,0,0,-1,47.848984,-37.457026)" style="stroke-width:0.985876">
               <path d="m 527.617,-212.906 c 0,0 0.074,-13.778 -0.219,-20.321" style="fill:none;stroke:#000000;stroke-width:2.57844;stroke-linecap:round;stroke-linejoin:round;stroke-miterlimit:10;stroke-dasharray:none;stroke-opacity:1" id="path126" sodipodi:nodetypes="cc" />
            </g>
            <g id="g128" transform="matrix(1,0,0,-1,47.848984,-37.457026)" style="stroke-width:0.985876">
               <path d="m 299.598,-211.828 1.464,-21.82" style="fill:none;stroke:#000000;stroke-width:2.57844;stroke-linecap:round;stroke-linejoin:round;stroke-miterlimit:10;stroke-dasharray:none;stroke-opacity:1" id="path130" sodipodi:nodetypes="cc" />
            </g>
            <g id="g132" transform="matrix(1,0,0,-1,47.848984,-37.457026)" style="stroke-width:0.985876">
               <path d="m 301.062,-233.648 c -4.266,-1.355 226.336,0.421 226.336,0.421" style="fill:none;stroke:#000000;stroke-width:2.57844;stroke-linecap:round;stroke-linejoin:round;stroke-miterlimit:10;stroke-dasharray:none;stroke-opacity:1" id="path134" sodipodi:nodetypes="cc" />
            </g>
            <g id="g136" transform="matrix(1,0,0,-1,47.848984,-37.457026)" style="stroke-width:0.985876">
               <path d="m 321.762,-265.664 c 1.254,4.41 2.144,9.465 2.859,13.699 0.25,3.188 1.238,6.649 2.602,9.223 -0.024,-0.125 0.351,-0.028 0.05,0.082" style="fill:none;stroke:#000000;stroke-width:2.57844;stroke-linecap:round;stroke-linejoin:round;stroke-miterlimit:10;stroke-dasharray:none;stroke-opacity:1" id="path138" />
            </g>
            <g id="g140" transform="matrix(1,0,0,-1,47.848984,-37.457026)" style="stroke-width:0.985876">
               <path d="m 327.391,-242.445 110.195,0.675 c 4.027,-0.006 3.96819,-2.073 4.03407,-6.69267 0,0 1.23193,-18.50533 0.43493,-18.53333" style="fill:none;stroke:#000000;stroke-width:2.57844;stroke-linecap:round;stroke-linejoin:round;stroke-miterlimit:10;stroke-dasharray:none;stroke-opacity:1" id="path142" sodipodi:nodetypes="cccc" />
            </g>
            <g id="g144" transform="matrix(1,0,0,-1,47.848984,-37.457026)" style="stroke-width:0.985876">
               <path d="m 321.812,-265.66 120.243,-1.336" style="fill:none;stroke:#000000;stroke-width:2.57844;stroke-linecap:round;stroke-linejoin:round;stroke-miterlimit:10;stroke-dasharray:none;stroke-opacity:1" id="path146" />
            </g>
            <g id="g148" transform="matrix(1,0,0,-1,47.848984,-37.457026)" style="stroke-width:0.985876">
               <path d="m 498.785,-243.301 c 8.34233,3.67967 10.44339,3.1054 18.14293,0.66826 6.38889,-1.871 12.19157,-5.94286 14.97582,-12.12696 3.80838,-6.8951 4.80984,-16.89507 -1.91439,-22.4155 -6.8798,-5.37096 -17.04224,-5.8348 -24.54709,-1.40357 -7.60056,3.80491 -11.82351,12.32273 -12.65931,20.502 -0.6271,5.68121 1.91919,10.9417 6.00204,14.77577" style="fill:none;stroke:#000000;stroke-width:2.57844;stroke-linecap:round;stroke-linejoin:round;stroke-miterlimit:10;stroke-dasharray:none;stroke-opacity:1" id="path150" sodipodi:nodetypes="ccccccc" />
            </g>
            <g id="g152" transform="matrix(1,0,0,-1,47.848984,-37.457026)" style="stroke-width:0.985876">
               <path d="m 516.219,-287.449 c -15.8937,-0.98697 -29.82164,12.42547 -28.6513,30.00269 0.90747,12.22314 9.09783,24.85265 22.02271,23.4867 16.3795,-0.28168 31.55006,-15.12236 29.96275,-31.89918 -0.0149,-13.59908 -14.44582,-21.52913 -26.26016,-21.65721" style="fill:none;stroke:#000000;stroke-width:2.57844;stroke-linecap:round;stroke-linejoin:round;stroke-miterlimit:10;stroke-dasharray:none;stroke-opacity:1" id="path154" sodipodi:nodetypes="ccccc" />
            </g>
            <g id="g156" transform="matrix(1,0,0,-1,47.848984,-37.457026)" style="stroke-width:0.985876">
               <path d="m 509.44285,-287.07636 c -6.9484,-0.3194 -14.21053,0.96477 -19.60139,5.66116 -10.32489,7.21868 -15.35179,22.54546 -8.33312,33.65428 2.89243,5.2691 8.932,6.88907 13.68447,9.9059 1.90204,0.99372 3.86485,1.87968 5.90119,2.56202" style="fill:none;stroke:#000000;stroke-width:2.57844;stroke-linecap:round;stroke-linejoin:round;stroke-miterlimit:10;stroke-dasharray:none;stroke-opacity:1" id="path158" sodipodi:nodetypes="ccccccc" />
            </g>
            <g id="g160" transform="matrix(1,0,0,-1,47.848984,-37.457026)" style="stroke-width:0.985876">
               <path d="m 358.199,-215.988 -0.511,-11.922" style="fill:none;stroke:#000000;stroke-width:1.28922;stroke-linecap:round;stroke-linejoin:round;stroke-miterlimit:10;stroke-dasharray:none;stroke-opacity:1" id="path162" />
            </g>
            <g id="g164" transform="matrix(1,0,0,-1,47.848984,-37.457026)" style="stroke-width:0.985876">
               <path d="m 346,-217.156 -0.238,-8.242" style="fill:none;stroke:#000000;stroke-width:1.28922;stroke-linecap:round;stroke-linejoin:round;stroke-miterlimit:10;stroke-dasharray:none;stroke-opacity:1" id="path166" />
            </g>
            <g id="g168" transform="matrix(1,0,0,-1,47.848984,-37.457026)" style="stroke-width:0.985876">
               <path d="m 307.477,-216.613 -0.469,-11.203" style="fill:none;stroke:#000000;stroke-width:1.28922;stroke-linecap:round;stroke-linejoin:round;stroke-miterlimit:10;stroke-dasharray:none;stroke-opacity:1" id="path170" />
            </g>
            <g id="g172" transform="matrix(1,0,0,-1,47.848984,-37.457026)" style="stroke-width:0.985876">
               <path d="m 472.695,-215.879 c -0.261,-3.797 -0.289,-8.766 -0.547,-12" style="fill:none;stroke:#000000;stroke-width:1.28922;stroke-linecap:round;stroke-linejoin:round;stroke-miterlimit:10;stroke-dasharray:none;stroke-opacity:1" id="path174" />
            </g>
            <g id="g176" transform="matrix(1,0,0,-1,47.848984,-37.457026)" style="stroke-width:0.985876">
               <path d="m 520.801,-217.117 c -0.692,-3.543 -0.344,-8.184 -1.996,-11.082" style="fill:none;stroke:#000000;stroke-width:1.28922;stroke-linecap:round;stroke-linejoin:round;stroke-miterlimit:10;stroke-dasharray:none;stroke-opacity:1" id="path178" />
            </g>
            <g id="g180" transform="matrix(1,0,0,-1,47.848984,-37.457026)" style="stroke-width:0.985876">
               <path d="m 401.707,-218.637 -2.465,-5.863" style="fill:none;stroke:#000000;stroke-width:1.28922;stroke-linecap:round;stroke-linejoin:round;stroke-miterlimit:10;stroke-dasharray:none;stroke-opacity:1" id="path182" sodipodi:nodetypes="cc" />
            </g>
            <g id="g184" transform="matrix(1,0,0,-1,47.848984,-37.457026)" style="stroke-width:0.985876">
               <path d="m 401.707,-218.637 26.07,-0.324" style="fill:none;stroke:#000000;stroke-width:1.28922;stroke-linecap:round;stroke-linejoin:round;stroke-miterlimit:10;stroke-dasharray:none;stroke-opacity:1" id="path186" sodipodi:nodetypes="cc" />
            </g>
            <g id="g188" transform="matrix(1,0,0,-1,47.848984,-37.457026)" style="stroke-width:0.985876">
               <path d="m 399.242,-224.5 26.586,0.055" style="fill:none;stroke:#000000;stroke-width:1.28922;stroke-linecap:round;stroke-linejoin:round;stroke-miterlimit:10;stroke-dasharray:none;stroke-opacity:1" id="path190" />
            </g>
            <g id="g192" transform="matrix(1,0,0,-1,47.848984,-37.457026)" style="stroke-width:0.985876">
               <path d="m 427.777,-218.961 -1.949,-5.484" style="fill:none;stroke:#000000;stroke-width:1.28922;stroke-linecap:round;stroke-linejoin:round;stroke-miterlimit:10;stroke-dasharray:none;stroke-opacity:1" id="path194" sodipodi:nodetypes="cc" />
            </g>
            <g id="g196" transform="matrix(1,0,0,-1,47.848984,-37.457026)" style="stroke-width:0.985876">
               <path d="m 278.543,-219.406 c 6.644,-0.02 13.844,0.379 20.488,0.039" style="fill:none;stroke:#000000;stroke-width:1.28922;stroke-linecap:round;stroke-linejoin:round;stroke-miterlimit:10;stroke-dasharray:none;stroke-opacity:1" id="path198" sodipodi:nodetypes="cc" />
            </g>
            <g id="g200" transform="matrix(1,0,0,-1,47.848984,-37.457026)" style="stroke-width:0.985876">
               <path d="m 278.543,-219.406 c 0.24504,-4.92724 0.89541,-13.7835 1.094,-17.188" style="fill:none;stroke:#000000;stroke-width:1.28922;stroke-linecap:round;stroke-linejoin:round;stroke-miterlimit:10;stroke-dasharray:none;stroke-opacity:1" id="path202" sodipodi:nodetypes="cc" />
            </g>
            <g id="g208" transform="matrix(1,0,0,-1,47.848984,-37.457026)" style="stroke-width:0.985876">
               <path d="m 279.637,-236.594 20.437,0.313" style="fill:none;stroke:#000000;stroke-width:1.28922;stroke-linecap:round;stroke-linejoin:round;stroke-miterlimit:10;stroke-dasharray:none;stroke-opacity:1" id="path210" />
            </g>
            <g id="g212" transform="matrix(1,0,0,-1,47.848984,-37.457026)" style="stroke-width:0.985876">
               <path d="m 280.777,-249.102 c 1.75139,1.08189 4.02795,0.13395 5.19166,-1.35809 1.19269,-1.91577 -0.43513,-4.95631 -2.76499,-4.7866 -1.61377,0.37045 -3.57986,0.62603 -4.56632,2.14459 -0.59367,0.9665 0.86074,3.33661 2.13965,4.0001" style="fill:none;stroke:#000000;stroke-width:1.28922;stroke-linecap:round;stroke-linejoin:round;stroke-miterlimit:10;stroke-dasharray:none;stroke-opacity:1" id="path214" sodipodi:nodetypes="ccccc" />
            </g>
            <g id="g216" transform="matrix(1,0,0,-1,47.848984,-37.457026)" style="stroke-width:0.985876">
               <path d="m 280.777,-249.102 c 0,0 4.0388,2.24818 5.32629,1.5389 1.45905,-0.73442 2.40262,-2.24435 2.63935,-3.8386 0.22915,-1.32595 0.19381,-2.9967 -0.90503,-3.93989 -0.6618,-0.29385 -4.10455,-1.01144 -4.63394,0.0949" style="fill:none;stroke:#000000;stroke-width:1.28922;stroke-linecap:round;stroke-linejoin:round;stroke-miterlimit:10;stroke-dasharray:none;stroke-opacity:1" id="path218" sodipodi:nodetypes="ccccc" />
            </g>
            <g id="g220" transform="matrix(1,0,0,-1,47.848984,-37.457026)" style="stroke-width:0.985876">
               <path d="m 282.943,-276.38823 c -0.38465,-1.57867 0.53795,-3.74629 2.36752,-3.77919 1.55419,-0.10422 2.71957,1.1002 3.74985,2.08623 0.84668,1.07695 0.0625,2.78844 -1.26944,2.97607 -1.18789,0.30926 -3.83773,1.08758 -4.84793,-1.28311" style="fill:none;stroke:#000000;stroke-width:1.28922;stroke-linecap:round;stroke-linejoin:round;stroke-miterlimit:10;stroke-dasharray:none;stroke-opacity:1" id="path222" sodipodi:nodetypes="ccccc" />
            </g>
            <g id="g224" transform="matrix(1,0,0,-1,47.848984,-37.457026)" style="stroke-width:0.985876">
               <path d="m 281.449,-268.281 c 1.38281,0.0537 2.73112,0.51799 4.1264,0.26592 1.08132,-0.0276 2.16749,-0.0606 3.2446,0.0624" style="fill:none;stroke:#000000;stroke-width:1.28922;stroke-linecap:round;stroke-linejoin:round;stroke-miterlimit:10;stroke-dasharray:none;stroke-opacity:1" id="path226" />
            </g>
            <g id="g228" transform="matrix(1,0,0,-1,47.848984,-37.457026)" style="stroke-width:0.985876">
               <path d="m 281.004,-241.711 c 0.62634,-0.0215 1.25339,0.05 1.87994,-0.0193 1.12997,-0.0687 2.28483,-0.026 3.38759,-0.29731 l 0.11548,-0.0656" style="fill:none;stroke:#000000;stroke-width:1.28922;stroke-linecap:round;stroke-linejoin:round;stroke-miterlimit:10;stroke-dasharray:none;stroke-opacity:1" id="path230" />
            </g>
            <g id="g232" transform="matrix(1,0,0,-1,47.848984,-37.457026)" style="stroke-width:0.985876">
               <path d="m 276.473,-214.598 c 3.32172,-0.0821 9.965,-0.254 9.965,-0.254" style="fill:none;stroke:#000000;stroke-width:1.28922;stroke-linecap:round;stroke-linejoin:round;stroke-miterlimit:10;stroke-dasharray:none;stroke-opacity:1" id="path234" sodipodi:nodetypes="cc" />
            </g>
            <g id="g236" transform="matrix(1,0,0,-1,47.848984,-37.457026)" style="stroke-width:0.985876">
               <path d="m 290.297,-222.508 2.754,-0.18304" style="fill:none;stroke:#000000;stroke-width:1.28922;stroke-linecap:round;stroke-linejoin:round;stroke-miterlimit:10;stroke-dasharray:none;stroke-opacity:1" id="path238" sodipodi:nodetypes="cc" />
            </g>
            <g id="g240" transform="matrix(1,0,0,-1,47.848984,-37.457026)" style="stroke-width:0.985876">
               <path d="m 291.098,-228.859 c 1.01495,0.0732 1.79591,0.0911 2.765,0.0737" style="fill:none;stroke:#000000;stroke-width:1.28922;stroke-linecap:round;stroke-linejoin:round;stroke-miterlimit:10;stroke-dasharray:none;stroke-opacity:1" id="path242" sodipodi:nodetypes="cc" />
            </g>
            <g id="g244" transform="matrix(1,0,0,-1,47.848984,-37.457026)" style="stroke-width:0.985876">
               <path d="m 282.434,-227.969 c 0.871,0.039 -0.684,-1.172 -0.59,-0.148 0.344,0.668 2.136,0.953 1.586,0.035 -0.532,-0.453 -1.41,-0.707 -1.68,-0.133" style="fill:none;stroke:#000000;stroke-width:1.28922;stroke-linecap:round;stroke-linejoin:round;stroke-miterlimit:10;stroke-dasharray:none;stroke-opacity:1" id="path246" />
            </g>
            <g id="g248" transform="matrix(1,0,0,-1,47.848984,-37.457026)" style="stroke-width:0.985876">
               <path d="m 526.81579,-254.17003 c -2.67431,0.008 -5.88477,-1.81864 -5.75571,-4.81682 0.30111,-2.26201 0.93282,-4.64368 2.15322,-6.56672 2.64421,-2.89345 8.2561,-2.01825 9.57734,1.79186 0.88497,2.51204 1.03591,5.45866 -0.0854,7.91639 -1.22701,2.00933 -3.96855,1.21035 -5.8895,1.67529 z" style="fill:none;stroke:#000000;stroke-width:1.28922;stroke-linecap:round;stroke-linejoin:round;stroke-miterlimit:10;stroke-dasharray:none;stroke-opacity:1" id="path250" sodipodi:nodetypes="ccccccc" />
            </g>
            <g id="g252" transform="matrix(1,0,0,-1,47.848984,-37.457026)" style="stroke-width:0.985876">
               <path d="m 470.156,-247.895 c -1.95642,0.79163 -2.73,-0.214 -3.664,-0.906 -1.367,-1.308 -1.515,-3.535 0.121,-4.812 1.586,-1.641 5.188,-1.274 6.129,0.965 0.621,1.253 0.426,3.027 -0.672,3.793 -0.828,0.644 -2.37218,1.46591 -3.31818,1.28191" style="fill:none;stroke:#000000;stroke-width:1.28922;stroke-linecap:round;stroke-linejoin:round;stroke-miterlimit:10;stroke-dasharray:none;stroke-opacity:1" id="path254" sodipodi:nodetypes="cccccc" />
            </g>
            <g id="g256" transform="matrix(1,0,0,-1,47.848984,-37.457026)" style="stroke-width:0.985876">
               <path d="m 452.105,-248.125 c 0,0 -2.656,-1.242 -1.695,-2.996 0.324,-2.418 3.617,-2.188 4.836,-0.668 0.047,1.625 -0.57,2.91 -2.121,3.715 -0.629,0.097 -1.242,0.125 -1.664,-0.403" style="fill:none;stroke:#000000;stroke-width:1.28922;stroke-linecap:round;stroke-linejoin:round;stroke-miterlimit:10;stroke-dasharray:none;stroke-opacity:1" id="path258" sodipodi:nodetypes="ccccc" />
            </g>
            <g id="g260" transform="matrix(1,0,0,-1,47.848984,-37.457026)" style="stroke-width:0.985876">
               <path d="m 453.129,-261.14152 c -1.402,0.113 -2.797,-2.67048 -1.524,-4.03448 1.184,-2.344 4.993,-0.558 4.68,1.774 0.406,2.418 -2.75,2.586 -4.305,1.941" style="fill:none;stroke:#000000;stroke-width:1.28922;stroke-linecap:round;stroke-linejoin:round;stroke-miterlimit:10;stroke-dasharray:none;stroke-opacity:1" id="path262" sodipodi:nodetypes="cccc" />
            </g>
            <g id="g264" transform="matrix(1,0,0,-1,47.848984,-37.457026)" style="stroke-width:0.985876">
               <path d="m 464.21896,-261.0657 c 0.003,-1.28808 -8.5e-4,-4.59358 -8.5e-4,-4.59358 l 9.46822,-0.27708 -0.54098,4.41673 -8.92639,0.45393" style="fill:none;stroke:#000000;stroke-width:1.28922;stroke-linecap:round;stroke-linejoin:round;stroke-miterlimit:10;stroke-dasharray:none;stroke-opacity:1" id="path266" sodipodi:nodetypes="ccccc" />
            </g>
            <g id="g268" transform="matrix(1,0,0,-1,47.848984,-37.457026)" style="stroke-width:0.985876">
               <path d="m 473.0091,-279.88779 c -1.21941,0.12155 -2.74646,-0.58937 -2.83367,-1.94779 0.0551,-0.91892 0.81955,-1.58398 1.33989,-2.2728 1.13606,-1.08399 3.34157,-1.08543 4.1497,0.39427 0.70288,1.24158 0.12662,2.98675 -1.20221,3.53371 -0.82575,0.42022 -1.80383,0.50886 -2.70082,0.29342" style="fill:none;stroke:#000000;stroke-width:1.28922;stroke-linecap:round;stroke-linejoin:round;stroke-miterlimit:10;stroke-dasharray:none;stroke-opacity:1" id="path270" sodipodi:nodetypes="cccc" />
            </g>
            <g id="g272" transform="matrix(1,0,0,-1,47.848984,-37.457026)" style="stroke-width:0.985876">
               <path d="m 453.773,-279.73 c -0.96276,-0.25667 -2.085,-1.282 -0.933,-2.856 1.445,-1.609 4.105,-2.023 5.562,-0.273 0.676,2.511 -3.11074,3.26176 -4.629,3.129" style="fill:none;stroke:#000000;stroke-width:1.28922;stroke-linecap:round;stroke-linejoin:round;stroke-miterlimit:10;stroke-dasharray:none;stroke-opacity:1" id="path274" sodipodi:nodetypes="cccc" />
            </g>
            <g id="g276" transform="matrix(1,0,0,-1,47.848984,-37.457026)" style="stroke-width:0.985876">
               <path d="m 309.633,-244.441 c 0.43155,0.0275 0.96879,-0.0924 1.44389,-0.07 1.20716,-0.008 2.40882,-0.13149 3.61526,-0.16317 0.5705,-0.0431 1.21474,0.002 1.66692,-0.41815 0.0534,-0.76153 -0.0399,-1.55531 -0.31101,-2.26898 l -6.79554,0.1651 c 0,0 0.10811,1.70193 0.11816,2.46305" style="fill:none;stroke:#000000;stroke-width:1.28922;stroke-linecap:round;stroke-linejoin:round;stroke-miterlimit:10;stroke-dasharray:none;stroke-opacity:1" id="path278" sodipodi:nodetypes="ccccccc" />
            </g>
            <g id="g280" transform="matrix(1,0,0,-1,47.848984,-37.457026)" style="stroke-width:0.985876">
               <path d="m 307.89124,-254.84479 c 2.25287,-0.26427 4.74119,-0.33675 6.72572,-0.22482 0.92471,-0.20474 0.31075,-2.85596 0.37779,-3.63572 0,0 -5.06402,0.29754 -7.3968,0.24292 0,0 0.29514,2.96979 0.29329,3.61762" style="fill:none;stroke:#000000;stroke-width:1.28922;stroke-linecap:round;stroke-linejoin:round;stroke-miterlimit:10;stroke-dasharray:none;stroke-opacity:1" id="path282" sodipodi:nodetypes="ccccc" />
            </g>
            <g id="g284" transform="matrix(1,0,0,-1,47.848984,-37.457026)" style="stroke-width:0.985876">
               <path d="m 305.75751,-268.1558 c 1.63459,-0.26389 4.58287,-0.20773 6.2214,-0.43207 0.19282,-0.29309 0.78623,-0.0398 0.63092,-0.4419 -0.50314,-0.923 -0.3749,-2.03748 -0.58624,-2.768 0,0 -4.33339,0.23158 -6.36553,0.41007 -0.17899,0.0754 -0.69768,-0.12359 -0.4198,0.15345 0.0767,0.59086 0.46288,1.1561 0.29048,1.76619 0.0179,0.44679 0.23932,0.86405 0.22877,1.31226 l -0.0138,0.0528 -0.0241,0.0407" style="fill:none;stroke:#000000;stroke-width:1.28922;stroke-linecap:round;stroke-linejoin:round;stroke-miterlimit:10;stroke-dasharray:none;stroke-opacity:1" id="path286" sodipodi:nodetypes="cccccccccc" />
            </g>
            <g id="g288" transform="matrix(1,0,0,-1,47.848984,-37.457026)" style="stroke-width:0.985876">
               <path d="m 303.16,-279.383 c 2.53293,-0.28725 4.85497,-0.21718 7.4881,-0.29737 0,0 -0.11295,-2.4259 -0.25476,-3.05585 l -7.29037,0.20408 0.057,3.14914" style="fill:none;stroke:#000000;stroke-width:1.28922;stroke-linecap:round;stroke-linejoin:round;stroke-miterlimit:10;stroke-dasharray:none;stroke-opacity:1" id="path290" sodipodi:nodetypes="ccccc" />
            </g>
            <g id="g292" transform="matrix(1,0,0,-1,47.848984,-37.457026)" style="stroke-width:0.985876">
               <path d="m 320.648,-270.695 c -0.43141,-4.04079 -0.83567,-8.08626 -1.40553,-12.11047" style="fill:none;stroke:#000000;stroke-width:1.28922;stroke-linecap:round;stroke-linejoin:round;stroke-miterlimit:10;stroke-dasharray:none;stroke-opacity:1" id="path294" sodipodi:nodetypes="cc" />
            </g>
            <g id="g296" transform="matrix(1,0,0,-1,47.848984,-37.457026)" style="stroke-width:0.985876">
               <path d="M 324.63262,-271.58475 323.098,-281.305 v 0 c 3.15474,-0.25983 10.45052,-0.406 10.45052,-0.406 0,0 1.96748,10.195 1.78748,10.043 v 0 c 0,0 -7.21188,0.22531 -10.70338,0.0833" style="fill:none;stroke:#000000;stroke-width:1.28922;stroke-linecap:round;stroke-linejoin:round;stroke-miterlimit:10;stroke-dasharray:none;stroke-opacity:1" id="path298" sodipodi:nodetypes="ccccccc" />
            </g>
            <g id="g300" transform="matrix(1,0,0,-1,47.848984,-37.457026)" style="stroke-width:0.985876">
               <path d="m 342.598,-270.523 -1.993,-11.872" style="fill:none;stroke:#000000;stroke-width:1.28922;stroke-linecap:round;stroke-linejoin:round;stroke-miterlimit:10;stroke-dasharray:none;stroke-opacity:1" id="path302" sodipodi:nodetypes="cc" />
            </g>
            <g id="g304" transform="matrix(1,0,0,-1,47.848984,-37.457026)" style="stroke-width:0.985876">
               <path d="m 357.863,-272.469 c 2.547,-0.687 9.157,-0.375 9.157,-0.375 l -0.383,-9.375 -8.602,0.414 c 0,0 -0.226,9.129 -0.172,9.133 l -0.054,-0.004" style="fill:none;stroke:#000000;stroke-width:1.28922;stroke-linecap:round;stroke-linejoin:round;stroke-miterlimit:10;stroke-dasharray:none;stroke-opacity:1" id="path306" sodipodi:nodetypes="cccccc" />
            </g>
            <g id="g308" transform="matrix(1,0,0,-1,47.848984,-37.457026)" style="stroke-width:0.985876">
               <path d="m 375.641,-273.273 c 2.828,-0.074 9.711,-0.301 9.711,-0.301 0.85041,-1.87959 -0.0546,-6.34244 -0.59,-8.539 -2.172,-0.235 -6.391,-0.051 -9.282,-0.188 -0.68033,2.85806 -0.14784,7.20972 0.161,9.028" style="fill:none;stroke:#000000;stroke-width:1.28922;stroke-linecap:round;stroke-linejoin:round;stroke-miterlimit:10;stroke-dasharray:none;stroke-opacity:1" id="path310" sodipodi:nodetypes="ccccc" />
            </g>
            <g id="g312" transform="matrix(1,0,0,-1,47.848984,-37.457026)" style="stroke-width:0.985876">
               <path d="m 394.68873,-273.11476 9.47927,-0.43224 -0.52,-9.027 c -2.757,-0.231 -6.91,-0.309 -9.019,-0.477 0.233,3.43509 0.0597,9.93624 0.0597,9.93624" style="fill:none;stroke:#000000;stroke-width:1.28922;stroke-linecap:round;stroke-linejoin:round;stroke-miterlimit:10;stroke-dasharray:none;stroke-opacity:1" id="path314" sodipodi:nodetypes="ccccc" />
            </g>
            <g id="g316" transform="matrix(1,0,0,-1,47.848984,-37.457026)" style="stroke-width:0.985876">
               <path d="m 413.41,-272.918 9.324,0.043 1.032,-10.1506 -9.293,-0.1034 c 0,0 -1.46299,9.74766 -1.063,10.211" style="fill:none;stroke:#000000;stroke-width:1.28922;stroke-linecap:round;stroke-linejoin:round;stroke-miterlimit:10;stroke-dasharray:none;stroke-opacity:1" id="path318" sodipodi:nodetypes="ccccc" />
            </g>
            <g id="g320" transform="matrix(1,0,0,-1,47.848984,-37.457026)" style="stroke-width:0.985876">
               <path d="m 431.92995,-273.26996 c 2.40054,0.27466 9.80335,0.20222 9.80335,0.20222 l 0.58894,-9.43735 c 0,0 -6.63392,0.1005 -10.03161,-0.25835 -0.0476,3.06385 -0.16243,6.35863 -0.36068,9.49348" style="fill:none;stroke:#000000;stroke-width:1.28922;stroke-linecap:round;stroke-linejoin:round;stroke-miterlimit:10;stroke-dasharray:none;stroke-opacity:1" id="path322" sodipodi:nodetypes="ccccc" />
            </g>
            <g id="g324" transform="matrix(1,0,0,-1,47.848984,-37.457026)" style="stroke-width:0.985876">
               <path d="m 334.812,-261.672 v -0.004 l -0.007,-0.004 -0.008,-0.011 -0.008,-0.008 -0.008,0.015 -0.004,0.016 v 0.012 l -0.004,-0.004 0.024,-0.012 0.008,-0.023 0.004,-0.004 v -0.012 l 0.003,-0.012 0.02,0.008 h 0.004 l 0.008,-0.008 0.004,0.004 0.011,0.004 h 0.008 l 0.004,-0.004 0.008,0.004 v 0.004 l 0.012,-0.016 v -0.003 0.007 l -0.004,0.008 v 0.024 l -0.004,0.027 0.012,-0.012 0.023,-0.004 0.008,-0.004 0.035,-0.004 0.047,-0.003 H 335 l -0.012,-0.004 v 0.007 l -0.004,-0.007 0.036,-0.012 -0.071,0.019 0.012,0.004 h 0.105 l 0.043,-0.004 0.043,0.012 0.09,-0.015 0.094,-0.004 0.094,0.011 0.105,-0.011 0.098,-0.004 0.109,0.011 0.11,0.004 h 0.105 l 0.133,0.004 h 0.129 l 0.117,0.004 h 0.117 l 0.043,0.004 0.066,0.008 0.126,-0.016 0.101,-0.004 0.113,0.016 0.118,-0.008 h 0.136 l 0.141,0.02 0.117,0.004 0.106,0.007 0.089,0.004 0.102,0.02 0.109,0.008 0.16,0.004 0.11,0.004 0.012,0.003 0.05,0.008 0.024,0.012 0.012,0.008 v 0.015 l -0.075,0.004 0.016,0.008 0.086,0.008 0.027,0.008 0.012,0.004 0.016,-0.004 0.156,0.008 0.012,-0.004 -0.126,-0.02 -0.035,-0.031 -0.031,-0.008 -0.031,0.027 -0.059,0.024 -0.097,0.008 -0.016,-0.012 h 0.051 -0.028 v -0.027 l -0.004,0.011 -0.003,0.008 0.003,0.016 0.004,-0.008 0.008,0.012 0.008,0.015 0.039,-0.008 0.067,-0.015 -0.024,-0.008 -0.019,-0.027 0.003,-0.004 v -0.004" style="fill:none;stroke:#000000;stroke-width:1.28922;stroke-linecap:round;stroke-linejoin:round;stroke-miterlimit:10;stroke-dasharray:none;stroke-opacity:1" id="path326" />
            </g>
            <g id="g328" transform="matrix(1,0,0,-1,47.848984,-37.457026)" style="stroke-width:0.985876">
               <path d="m 354.492,-261.957 h -0.004 l -0.015,-0.004 h -0.047 l -0.008,-0.016 -0.09,-0.015 -0.09,-0.012 0.067,-0.016 h 0.015 l 0.012,-0.011 0.008,0.047 0.105,-0.028 h 0.059 -0.063 l 0.008,-0.008 v 0.02 l -0.004,0.012 -0.047,-0.012 -0.015,-0.023 0.039,0.011 -0.004,0.035 0.047,0.032 -0.004,-0.008 0.133,-0.02 h 0.078 -0.086 l 0.012,0.02 -0.016,0.008 -0.027,0.004 0.004,0.011 0.019,0.008 0.008,-0.004 v 0.008 l -0.004,0.012 0.004,0.011 v 0.004 l -0.035,0.008 0.027,0.012 0.067,0.008 0.074,0.011 0.07,0.008 0.09,0.008 0.059,0.027 0.085,0.024 0.141,0.023 0.125,0.012 0.109,0.008 0.106,-0.008 0.152,-0.004 0.117,0.016 0.079,0.039 0.144,0.023 0.145,0.012 0.113,0.008 0.109,0.019 0.028,0.008 0.07,0.008 0.176,-0.008 h 0.355 l 0.153,-0.016 0.003,0.012 -0.011,-0.008 0.113,0.016 0.098,-0.004 0.054,0.004 0.02,0.004 h 0.109 l 0.043,-0.012 -0.015,0.004 0.003,0.004 -0.003,0.008 -0.012,0.012 0.012,0.011 -0.11,0.016 -0.051,-0.02 0.055,0.004 h 0.031 -0.015 v 0.004 l 0.152,-0.004 0.07,-0.027 -0.121,0.008 -0.019,-0.016 -0.024,-0.004 -0.031,0.008 -0.027,-0.008 -0.012,0.008 -0.008,0.004 -0.008,-0.004 -0.015,-0.004 h -0.02 v 0.047 l 0.004,0.02 0.004,-0.012 -0.019,-0.008 -0.008,0.004 0.011,0.019 0.004,0.016 h -0.007" style="fill:none;stroke:#000000;stroke-width:1.28922;stroke-linecap:round;stroke-linejoin:round;stroke-miterlimit:10;stroke-dasharray:none;stroke-opacity:1" id="path330" />
            </g>
            <g id="g332" transform="matrix(1,0,0,-1,47.848984,-37.457026)" style="stroke-width:0.985876">
               <path d="m 364.652,-251.922 h -0.007 l -0.016,0.012 -0.008,0.012 -0.008,0.027 -0.031,0.008 -0.027,0.011 -0.024,-0.003 h -0.015 l 0.007,-0.004 v 0.007 l -0.003,0.008 h -0.043 l -0.016,-0.015 -0.012,0.019 0.008,0.012 -0.027,0.008 -0.016,0.004 v 0.007 l 0.008,0.008 -0.004,0.008 v 0.004 l 0.031,0.004 0.035,0.027 0.012,-0.023 h -0.012 l 0.012,0.011 0.039,-0.007 0.027,0.007 h -0.023 v -0.027 0.047 l 0.016,0.02 -0.051,-0.004 -0.027,0.011 0.031,0.012 0.031,0.004 0.012,-0.023 0.039,-0.016 v 0.008 l -0.039,0.011 0.035,0.004 0.066,-0.004 0.032,-0.007 0.023,0.007 0.016,-0.003 0.105,-0.012 0.07,-0.012 h -0.015 v 0.008 l 0.012,0.016 0.031,0.011 -0.024,0.028 -0.027,-0.02 0.156,-0.004 0.196,0.039 0.164,-0.015 0.14,0.003 0.145,0.016 0.215,0.008 0.183,0.004 0.082,0.008 h 0.43 l 0.238,0.011 0.188,0.008 0.043,-0.008 0.109,-0.004 0.102,-0.015 0.125,-0.008 0.093,0.02 h 0.09 l 0.121,-0.004 0.098,-0.02 0.082,-0.004 0.047,-0.004 0.113,0.012 h 0.164 l 0.031,0.004 0.032,0.008 0.031,0.015 0.043,-0.011 0.012,0.015 h 0.004 l 0.054,-0.019 0.028,0.011 0.004,0.016 h -0.028 l -0.074,-0.019 -0.012,0.023 0.035,-0.004 -0.004,0.008 h -0.003 l 0.003,-0.027 0.036,-0.004 0.004,0.027 -0.043,-0.008 -0.008,-0.035 -0.028,-0.004 -0.007,-0.012 h -0.004 l 0.011,-0.011 -0.011,-0.004 -0.016,-0.004 h -0.004 l 0.008,0.015 0.008,-0.003 0.004,-0.012 -0.055,0.019 -0.027,-0.015 0.035,0.015 0.008,-0.004" style="fill:none;stroke:#000000;stroke-width:1.28922;stroke-linecap:round;stroke-linejoin:round;stroke-miterlimit:10;stroke-dasharray:none;stroke-opacity:1" id="path334" />
            </g>
            <g id="g336" transform="matrix(1,0,0,-1,47.848984,-37.457026)" style="stroke-width:0.985876">
               <path d="m 415.926,-262.301 c 0.51184,0.30577 -0.78748,1.25046 -0.22288,1.82609 0.61384,0.64781 1.62412,0.29361 2.41665,0.41306 0.5741,-0.0806 1.43798,-0.092 1.13045,-0.85512 0.0286,-0.50342 0.009,-1.15099 -0.18503,-1.56805 -0.81522,-0.25125 -1.7804,-0.52804 -2.58825,-0.12073" style="fill:none;stroke:#000000;stroke-width:1.28922;stroke-linecap:round;stroke-linejoin:round;stroke-miterlimit:10;stroke-dasharray:none;stroke-opacity:1" id="path338" />
            </g>
         </g>
      </g>
   </g>
</svg>
