<?xml version="1.0" encoding="UTF-8" standalone="no"?>
<!-- Created by Ashley Blewer - This work is licensed under a Creative Commons Attribution 4.0 International License -->

<svg width="544" height="480" viewBox="0 0 143.93334 127" version="1.1" id="svg2490" inkscape:version="1.1.2 (08b2f3d93c, 2022-04-05)" sodipodi:docname="1997-hdcam-2.svg"
   xmlns:inkscape="http://www.inkscape.org/namespaces/inkscape"
   xmlns:sodipodi="http://sodipodi.sourceforge.net/DTD/sodipodi-0.dtd"
   xmlns="http://www.w3.org/2000/svg"
   xmlns:svg="http://www.w3.org/2000/svg">
   <sodipodi:namedview id="namedview2492" pagecolor="#ffffff" bordercolor="#666666" borderopacity="1.0" inkscape:pageshadow="2" inkscape:pageopacity="0.0" inkscape:pagecheckerboard="0" inkscape:document-units="mm" showgrid="false" units="px" inkscape:zoom="0.90583674" inkscape:cx="279.29978" inkscape:cy="194.84747" inkscape:window-width="1848" inkscape:window-height="1136" inkscape:window-x="72" inkscape:window-y="27" inkscape:window-maximized="1" inkscape:current-layer="layer1" />
   <defs id="defs2487" />
   <g inkscape:label="Layer 1" inkscape:groupmode="layer" id="layer1">
      <g id="g2100" transform="matrix(0.30956267,0,0,0.30956267,-4.4263957,-133.16652)">
         <g id="g340" transform="scale(1,-1)">
            <path d="m 393.656,-766.094 c -7.156,0.153 -8.168,9.18 -8.472,14.699 1.171,28.09 -4.426,55.762 4.086,80.879 0.886,1.469 1.449,5.043 0.746,1.344 3.129,4.594 3.625,11.508 9.511,13.742 7.52,4.618 15.141,9.192 23.61,11.875 7.675,2.723 15.258,6.25 23.328,7.485 4.758,-0.043 12.808,2.539 14.047,-3.992 2.535,-29.458 4.457,-78.922 -1.168,-93.969 -15.512,-11.262 -34.555,-23.449 -51.051,-29.11 -5.305,-1.925 -11.414,-5.406 -17.086,-4.179" style="fill:none;stroke:#000000;stroke-width:2.61538;stroke-linecap:round;stroke-linejoin:round;stroke-miterlimit:10;stroke-dasharray:none;stroke-opacity:1" id="path342" />
         </g>
         <g id="g344" transform="scale(1,-1)">
            <path d="m 458.191,-635.727 c -0.406,0.864 -2.621,2.098 -3.879,2.977 -14.75,5.391 -42.742,1.094 -51.621,-0.672 -9.289,-2.844 -19.714,-8.672 -25.386,-11.961 -2.367,-1.043 -5.543,-2.961 -6.778,-5.371 -1.308,-2.891 -2.964,-4.687 -4.246,-7.289" style="fill:none;stroke:#000000;stroke-width:2.61538;stroke-linecap:round;stroke-linejoin:round;stroke-miterlimit:10;stroke-dasharray:none;stroke-opacity:1" id="path346" sodipodi:nodetypes="cccccc" />
         </g>
         <g id="g348" transform="scale(1,-1)">
            <path d="m 366.281,-658.043 c -0.465,-1.23 -2,-4.445 -3.078,-6.453 -3.34,-5.668 -2.762,-12.359 -3.965,-18.711 -0.179,-7.316 -1.019,-14.543 -0.101,-21.797 0.781,-6.285 0.625,-12.805 1.418,-19.086 0,-3.262 0.125,-7.512 -0.121,-10.523 -0.129,-1.739 0.711,-3.832 1.714,-5.832 0.981,-1.703 1.481,-4.129 2.747,-6.032 1.609,-3.023 5.242,-4.589 8.027,-7.113 4.285,-2.859 8.254,-5.754 12.328,-8.418 1.801,-1.07 3.27,-2.035 5.457,-2.832" style="fill:none;stroke:#000000;stroke-width:2.61538;stroke-linecap:round;stroke-linejoin:round;stroke-miterlimit:10;stroke-dasharray:none;stroke-opacity:1" id="path350" />
         </g>
         <g id="g352" transform="scale(1,-1)">
            <path d="m 456.277,-635.602 c -7.359,1.868 -14.55,-2.82 -21.461,-4.699 -6.062,-4.09 -12.777,-6.84 -19.769,-8.883 -7.008,-2.875 -15.27,-4.195 -20.539,-10.05 -4.629,-5.981 -5.77,-13.813 -7.567,-20.977 -1.711,-6.07 -2.129,-12.285 -2.48,-18.551 0.062,-0.988 -0.711,-2.55 -0.078,-3.371" style="fill:none;stroke:#000000;stroke-width:2.61538;stroke-linecap:round;stroke-linejoin:round;stroke-miterlimit:10;stroke-dasharray:none;stroke-opacity:1" id="path354" />
         </g>
         <g id="g356" transform="scale(1,-1)">
            <path d="m 417.363,-647.359 c 6.871,-9.524 6.969,-21.883 6.387,-33.129 -0.582,-4.856 -1.66,-9.668 -2.258,-14.539 -1.015,-8.098 -4.601,-15.504 -7.664,-22.973 -4.113,-8.965 -10.441,-17.203 -18.922,-22.418 -2.547,-1.406 -6,-0.379 -8.32,-2.078" style="fill:none;stroke:#000000;stroke-width:2.61538;stroke-linecap:round;stroke-linejoin:round;stroke-miterlimit:10;stroke-dasharray:none;stroke-opacity:1" id="path358" />
         </g>
         <g id="g360" transform="scale(1,-1)">
            <path d="m 388.418,-726.062 c 2.406,-0.489 6.891,0.91 9.484,2.683 5.356,3.785 10.082,8.82 12.356,15.074 3.297,7.61 5.125,15.754 6.508,23.895 1.222,8.566 -1.461,16.969 -3.954,25.047 -0.078,2.687 -3.984,6.738 -4.863,6.277" style="fill:none;stroke:#000000;stroke-width:2.61538;stroke-linecap:round;stroke-linejoin:round;stroke-miterlimit:10;stroke-dasharray:none;stroke-opacity:1" id="path362" />
         </g>
         <g id="g364" transform="scale(1,-1)">
            <path d="m 373.738,-646.629 c 0.352,-0.23 -5.164,2.008 -5.922,2.496 -4.25,2.246 -9.132,3.266 -13.918,2.735 -4.316,0.015 -8.476,-1.567 -12.312,-3.395 -2.566,-1.582 -4.066,-4.273 -6.285,-6.238 -2.336,-2.379 -4.473,-4.946 -6.129,-7.848 -2.262,-3.863 -4.902,-7.484 -7.09,-11.398 -0.531,-1.118 -3.074,-8.52 -3.254,-6.762" style="fill:none;stroke:#000000;stroke-width:2.61538;stroke-linecap:round;stroke-linejoin:round;stroke-miterlimit:10;stroke-dasharray:none;stroke-opacity:1" id="path366" />
         </g>
         <g id="g368" transform="scale(1,-1)">
            <path d="m 339.87567,-645.93 c -0.035,-0.476 -4.70367,0.184 -5.84867,0.371 -3.035,0.403 -5.23,1.379 -8.519,0.571 -1.446,-0.164 -2.738,-0.629 -3.606,-1.016 -2.793,-0.144 -3.683,-3.73 -7.136,-6.121 -1.727,-2.07 -4.379,-4.266 -5.129,-5.352" style="fill:none;stroke:#000000;stroke-width:2.61538;stroke-linecap:round;stroke-linejoin:round;stroke-miterlimit:10;stroke-dasharray:none;stroke-opacity:1" id="path370" sodipodi:nodetypes="cccccc" />
         </g>
         <g id="g372" transform="scale(1,-1)">
            <path d="m 321.902,-646.004 c -1.941,1.031 -9.418,4.074 -11.742,4.559 -2.515,0.781 -5.683,0.386 -7.848,-0.524 -1.261,-0.66 -1.398,-1.836 -3.246,-2.906 -1.918,-1.637 -3.984,-4.848 -4.304,-5.676 -0.004,0.024 -0.02,0.055 0.015,0.074" style="fill:none;stroke:#000000;stroke-width:2.61538;stroke-linecap:round;stroke-linejoin:round;stroke-miterlimit:10;stroke-dasharray:none;stroke-opacity:1" id="path374" sodipodi:nodetypes="cccccc" />
         </g>
         <g id="g376" transform="scale(1,-1)">
            <path d="m 302.141,-641.391 c -0.133,-0.886 -1.395,1.172 -2.801,0.895 -3.875,0.871 -6.465,-0.168 -9.731,-0.496 -0.218,-0.508 -1.699,-1.129 -2.636,-2.047 -1.836,-1.195 -2.981,-3.699 -4.141,-4.633 0.672,-1.824 0.008,0.125 -0.055,0.356" style="fill:none;stroke:#000000;stroke-width:2.61538;stroke-linecap:round;stroke-linejoin:round;stroke-miterlimit:10;stroke-dasharray:none;stroke-opacity:1" id="path378" />
         </g>
         <g id="g380" transform="scale(1,-1)">
            <path d="m 285.969,-643.438 c 0.027,0.961 -2.16,1.536 -3.407,0.922 -2.074,-0.394 -2.386,-0.929 -3.777,-1.226 0.403,-0.031 -2.355,0.89 -3.449,0.508 -1.387,-0.149 -3.77,-0.227 -3.707,-0.434 0.008,-0.016 -0.016,-0.051 0.016,-0.055" style="fill:none;stroke:#000000;stroke-width:2.61538;stroke-linecap:round;stroke-linejoin:round;stroke-miterlimit:10;stroke-dasharray:none;stroke-opacity:1" id="path382" />
         </g>
         <g id="g384" transform="scale(1,-1)">
            <path d="m 265.133,-642.395 c 11.46961,-3.05472 23.0369,-6.02027 34.00308,-10.64736 6.15206,-1.69923 11.32969,-4.43388 11.31812,-11.53448 2.04248,-7.5057 7.62457,-13.0154 13.16366,-18.10788 2.57037,-6.71195 0.58497,-14.16328 2.95157,-20.96682 0.91625,-5.69006 2.53958,-11.26148 5.7936,-16.06285 2.88742,-4.98521 3.76433,-11.50581 -0.40075,-16.06881 -4.57054,-5.92675 -12.77764,-5.46253 -18.94079,-8.60335 -6.40095,-0.79719 -12.88792,0.51248 -19.34279,-0.0511 -1.50374,0.15886 -4.033,0.15008 -4.3347,2.04265" style="fill:none;stroke:#000000;stroke-width:2.61538;stroke-linecap:round;stroke-linejoin:round;stroke-miterlimit:10;stroke-dasharray:none;stroke-opacity:1" id="path386" />
         </g>
         <g id="g388" transform="scale(1,-1)">
            <path d="m 335.645,-728.188 c -0.047,0.321 2.082,2.473 3.804,1.864 2.164,-0.16 1.582,-1.918 2.582,-3.035 0.512,-1.153 0.664,-1.528 0.981,-1.797 0.023,-0.309 0.148,0.683 -0.239,-1.024 -1.371,-2.699 -4.519,-3.742 -6.996,-5.222 -3.445,-1.266 -6.722,-3.09 -9.211,-4.235 -3.722,-1.898 -8.718,-2.437 -13.066,-2.191 -1.039,0.152 -3.43,0.023 -2.625,0.164" style="fill:none;stroke:#000000;stroke-width:2.61538;stroke-linecap:round;stroke-linejoin:round;stroke-miterlimit:10;stroke-dasharray:none;stroke-opacity:1" id="path390" />
         </g>
         <g id="g392" transform="scale(1,-1)">
            <path d="m 344.742,-732.391 c -1.262,-0.101 0.926,0.262 1.281,0.696 1.86,-0.36 1.204,-0.563 1.911,-2.653 0.589,-2.789 0.234,-6.281 -1.711,-8.914 -1.844,-1.492 -3.164,-3.742 -5.278,-4.683 -4.633,-2.086 -8.894,-3.477 -13.703,-5.059 -2.496,-1.262 -6.406,-1.305 -9.308,-2.23 -3.77,-0.903 -8.239,-0.071 -11.778,-1.008 -1.773,0.097 -6.183,-0.578 -7.414,-0.481 -0.863,0 -1.336,0.028 -0.984,0.063 -0.375,2.012 -0.184,5.222 -1.215,7.371 -0.676,1.219 -1.285,2.527 -3.316,3.047 -1.067,1.273 -4.879,0.469 -5.895,2.375" style="fill:none;stroke:#000000;stroke-width:2.61538;stroke-linecap:round;stroke-linejoin:round;stroke-miterlimit:10;stroke-dasharray:none;stroke-opacity:1" id="path394" />
         </g>
         <g id="g396" transform="scale(1,-1)">
            <path d="m 287.902,-743.234 c 0.524,-0.805 -1.898,1.859 -3.109,2.347 -3.965,2.168 -7.992,4.848 -12.227,6.547 -3.058,1.707 -6.058,3 -9.191,4.168 -5.086,1.02 -9.676,2.629 -14.57,2.875 -2.418,0.578 -5.672,0.727 -7.832,-0.82 -1.285,-0.821 -1.883,-2.176 -2.301,-2.926 -1.258,-2.519 -2.152,-4.527 -2.484,-7.496 -0.282,-0.453 -0.446,-1.777 -0.422,-1.289 -0.016,-0.117 0.304,-0.16 -0.028,-0.074" style="fill:none;stroke:#000000;stroke-width:2.61538;stroke-linecap:round;stroke-linejoin:round;stroke-miterlimit:10;stroke-dasharray:none;stroke-opacity:1" id="path398" />
         </g>
         <g id="g400" transform="scale(1,-1)">
            <path d="m 224.125,-711.93 c -0.305,0.524 -1.941,-5.207 -1.695,-7.011 0.566,-3.676 0.64,-7.567 2.382,-10.547 1.262,-5.645 6.551,-9.114 11.012,-12.117 5.18,-3.211 11.278,-4.618 17.047,-6.684 4.301,-1.348 7.965,-2.367 11.27,-3.262 1.418,-0.332 0.972,-0.191 -0.059,0.094" style="fill:none;stroke:#000000;stroke-width:2.61538;stroke-linecap:round;stroke-linejoin:round;stroke-miterlimit:10;stroke-dasharray:none;stroke-opacity:1" id="path402" />
         </g>
         <g id="g404" transform="scale(1,-1)">
            <path d="m 270.707,-738.59 c 0.172,0.559 0.555,0.039 0.824,0.004" style="fill:none;stroke:#000000;stroke-width:2.61538;stroke-linecap:round;stroke-linejoin:round;stroke-miterlimit:10;stroke-dasharray:none;stroke-opacity:1" id="path406" />
         </g>
         <g id="g408" transform="scale(1,-1)">
            <path d="m 274.387,-739.137 c 0.433,0.149 -3.067,1.016 -4.387,1.215 -2.125,0.484 -4.867,-0.004 -5.371,-1.598 -1.754,-2.062 0.004,-5.183 -0.508,-7.414 -0.183,-2.156 -0.039,-4.867 0.676,-6.254 0.187,-1.972 1.894,-2.523 4.293,-3.96 3.601,-2.235 8.461,-3.981 12.14,-5.192 3.219,-0.801 6.208,-1.543 9.231,-0.902 2.016,0.844 2.922,1.469 3.601,2.644 1.075,2.293 0.645,6.684 -0.148,9.778 -0.633,2.316 0.078,1.941 -0.672,3.925" style="fill:none;stroke:#000000;stroke-width:2.61538;stroke-linecap:round;stroke-linejoin:round;stroke-miterlimit:10;stroke-dasharray:none;stroke-opacity:1" id="path410" />
         </g>
         <g id="g412" transform="scale(1,-1)">
            <path d="m 267.617,-741.836 c 2.051,-1.691 5.828,-4.297 9.02,-5.273 3.468,-0.68 7.789,-2.137 10.551,-1.325 -0.184,-0.023 -0.145,0.051 -0.071,0.039" style="fill:none;stroke:#000000;stroke-width:2.61538;stroke-linecap:round;stroke-linejoin:round;stroke-miterlimit:10;stroke-dasharray:none;stroke-opacity:1" id="path414" />
         </g>
         <g id="g416" transform="scale(1,-1)">
            <path d="m 286.285,-749.637 c 0.57,-1.23 0.582,-3.953 0.223,-6.222 -0.203,-1.496 -0.348,-4.098 -0.309,-5.817 0.453,-0.535 0.301,-2.554 0.203,-1.574" style="fill:none;stroke:#000000;stroke-width:2.61538;stroke-linecap:round;stroke-linejoin:round;stroke-miterlimit:10;stroke-dasharray:none;stroke-opacity:1" id="path418" />
         </g>
         <g id="g420" transform="scale(1,-1)">
            <path d="m 274.156,-747.734 c -0.222,1.222 0.141,-2.364 -0.23,-2.977 0.254,-1.723 0.551,-5.437 0.652,-6.144 0.379,0.074 0.067,-0.129 -0.078,-0.176" style="fill:none;stroke:#000000;stroke-width:2.61538;stroke-linecap:round;stroke-linejoin:round;stroke-miterlimit:10;stroke-dasharray:none;stroke-opacity:1" id="path422" />
         </g>
         <g id="g424" transform="scale(1,-1)">
            <path d="m 267.59,-744.32 c -0.391,-1.11 -0.68,-5.512 -0.297,-7.809 0.789,-0.691 -0.895,-3.476 -0.121,-2.133 l 0.012,0.071 -0.028,0.07" style="fill:none;stroke:#000000;stroke-width:2.61538;stroke-linecap:round;stroke-linejoin:round;stroke-miterlimit:10;stroke-dasharray:none;stroke-opacity:1" id="path426" />
         </g>
         <g id="g428" transform="scale(1,-1)">
            <path d="m 223.984,-711.945 c -0.296,0.5 2.493,0.152 3.469,0.34 4.688,-0.188 8.629,1.71 13.031,1.785 4.598,0.34 9.903,-1.422 14.399,-2.657 7.066,-2.8 14.746,-5.835 22.191,-8.941 4.293,-1.906 8.371,-4.055 12.715,-5.879 2.992,-1.676 6.266,-3.34 8.563,-5.301 2.203,-2.492 5.687,-3.265 7.859,-4.109 1.945,-0.523 3.012,-0.777 4.512,-1.473 -0.465,0.067 0.23,-0.281 -0.039,-0.215 0.214,-0.097 -0.106,0.36 0.046,-0.269 -0.753,-1.352 -0.398,-4.27 -1.042,-5.313 -0.2,-0.003 -0.239,-0.027 -0.208,-0.05" style="fill:none;stroke:#000000;stroke-width:2.61538;stroke-linecap:round;stroke-linejoin:round;stroke-miterlimit:10;stroke-dasharray:none;stroke-opacity:1" id="path430" />
         </g>
         <g id="g432" transform="scale(1,-1)">
            <path d="m 224.121,-732.02 c 0.328,0.59 -1.203,2.891 -1.719,4.262 -1.769,4.539 -4.82,8.016 -7.273,12.238 -1.981,4.692 -2.992,10.004 -1.973,15.34 0.446,8.207 4.668,15.395 7.86,22.118 2.214,4.417 5.609,8.234 9.086,11.851 3.281,4.391 7.234,8.039 11.011,11.598 3.809,3.551 8.106,7.289 13.059,9.933 2.535,2.063 5.988,2.93 8.758,3.5 0.644,0.282 2.203,-1.215 2.203,-1.215" style="fill:none;stroke:#000000;stroke-width:2.61538;stroke-linecap:round;stroke-linejoin:round;stroke-miterlimit:10;stroke-dasharray:none;stroke-opacity:1" id="path434" sodipodi:nodetypes="cccccccccc" />
         </g>
         <g id="g436" transform="scale(1,-1)">
            <path d="m 265.762,-643.555 c 7.742,-2.566 16.703,-4.23 24.679,-7.332 3.247,-1.379 6.868,-2.859 9.473,-4.125 1.91,-1.293 3.141,-1.426 4.492,-2.441" style="fill:none;stroke:#000000;stroke-width:2.61538;stroke-linecap:round;stroke-linejoin:round;stroke-miterlimit:10;stroke-dasharray:none;stroke-opacity:1" id="path438" />
         </g>
         <g id="g440" transform="scale(1,-1)">
            <path d="m 370.148,-645.379 c -0.046,-0.496 -5.558,-3.172 -6.882,-4.363 -3.825,-3.27 -6.668,-7.938 -8.875,-12.176 -2.055,-4.215 -3.848,-8.113 -5.071,-12.559 -1.832,-5.445 -2.73,-10.753 -3.195,-16.437 -0.238,-4.344 -0.23,-8.301 0.512,-12.648 0.57,-3.606 2.379,-6.95 2.64,-10.481 0.649,-2.266 1.614,-4.199 2.035,-5.793 0.481,-0.797 -0.687,0.395 0.622,-0.785" style="fill:none;stroke:#000000;stroke-width:2.61538;stroke-linecap:round;stroke-linejoin:round;stroke-miterlimit:10;stroke-dasharray:none;stroke-opacity:1" id="path442" />
         </g>
         <g id="g444" transform="scale(1,-1)">
            <path d="m 328.277,-710.793 c 4.43,-4.195 11.055,-7.934 15.157,-9.621 4.652,-0.914 10.796,-1.328 14.125,0.305" style="fill:none;stroke:#000000;stroke-width:2.61538;stroke-linecap:round;stroke-linejoin:round;stroke-miterlimit:10;stroke-dasharray:none;stroke-opacity:1" id="path446" />
         </g>
         <g id="g448" transform="scale(1,-1)">
            <path d="m 264.559,-649.961 23.726,-9.883 c 0.289,-0.64 0.91,-0.804 0.699,-1.769 0.657,-2.016 -1.89,-4.567 -3.414,-6.016 -1.07,-1.351 -1.09,-1.754 -1.847,-1.394 l -27.731,10.796 c -0.547,0.825 -1.367,1.891 -0.918,1.485 0.602,0.554 2.805,3.051 3.457,4.355 2.035,1.746 3.465,3.836 6.133,2.559 0.184,0.336 0.191,-0.129 0.121,-0.11" style="fill:none;stroke:#000000;stroke-width:2.61538;stroke-linecap:round;stroke-linejoin:round;stroke-miterlimit:10;stroke-dasharray:none;stroke-opacity:1" id="path450" />
         </g>
         <g id="g452" transform="scale(1,-1)">
            <path d="m 255.074,-657.945 c 1.324,0.082 0.02,-2.852 -0.426,-3.801 -0.457,-1.301 -0.953,-1.496 -0.46,-1.555 6.164,-2.668 12.843,-5.019 18.558,-8.527 2.91,-1.281 5.402,-3.262 7.731,-4.414 0.668,-0.582 0.984,-0.328 0.855,-0.371 -0.168,-0.016 2.309,1.043 3.293,1.851 2.766,1.289 4.648,3.907 4.969,6.723 0.332,1.184 0.703,3.902 0.609,3.953 -0.098,0.027 0.07,-0.008 0.067,-0.047" style="fill:none;stroke:#000000;stroke-width:2.61538;stroke-linecap:round;stroke-linejoin:round;stroke-miterlimit:10;stroke-dasharray:none;stroke-opacity:1" id="path454" />
         </g>
         <g id="g456" transform="scale(1,-1)">
            <path d="m 221.582,-700.734 c 0.785,10.457 15.77,32.675 25.934,34.941 -0.164,0.074 0,-0.125 0.035,-0.301" style="fill:none;stroke:#000000;stroke-width:2.61538;stroke-linecap:round;stroke-linejoin:round;stroke-miterlimit:10;stroke-dasharray:none;stroke-opacity:1" id="path458" />
         </g>
         <g id="g460" transform="scale(1,-1)">
            <path d="m 250.203,-668.863 c 3.473,-1.582 7.055,-4.371 11.082,-5.344 7.637,-2.77 13.57,-8.723 21.473,-10.867 5.094,-3.164 9.855,-6.676 14.418,-10.004 1.105,-1.129 2.976,-2.649 3.359,-3.445 0.922,-1.012 1.031,-1.582 1.582,-2.743 0.449,-2.273 1.738,-4.011 3.352,-5.863 0.199,-0.945 2.015,-2.371 1.773,-2.75" style="fill:none;stroke:#000000;stroke-width:2.61538;stroke-linecap:round;stroke-linejoin:round;stroke-miterlimit:10;stroke-dasharray:none;stroke-opacity:1" id="path462" />
         </g>
         <g id="g464" transform="scale(1,-1)">
            <path d="m 294.773,-684.805 c 0.133,-0.043 -3.347,-0.343 -3.867,1.543 -1.773,1.86 -0.336,4.371 1.477,6.196 1.875,1.961 3.164,5.652 6.715,5.558 2.078,-0.129 4.195,-1.219 3.445,-3.32 -1.266,-2.238 -2.809,-4.942 -4.731,-6.836 -0.695,-1.418 -2.785,-2.723 -3.878,-3.492" style="fill:none;stroke:#000000;stroke-width:2.61538;stroke-linecap:round;stroke-linejoin:round;stroke-miterlimit:10;stroke-dasharray:none;stroke-opacity:1" id="path466" />
         </g>
         <g id="g468" transform="scale(1,-1)">
            <path d="m 292.426,-679.102 c 0.043,-0.046 3.344,-1.128 3.914,-2.652 0.469,-0.476 0.586,-1.453 0.39,-1.074" style="fill:none;stroke:#000000;stroke-width:2.61538;stroke-linecap:round;stroke-linejoin:round;stroke-miterlimit:10;stroke-dasharray:none;stroke-opacity:1" id="path470" />
         </g>
         <g id="g472" transform="scale(1,-1)">
            <path d="m 302.555,-686.887 c -0.141,-0.343 -0.352,2.325 0.851,2.996 1.336,1.848 4.285,1.055 4.34,-0.656 -0.664,-2.504 -3.66,-3.25 -5.156,-1.965" style="fill:none;stroke:#000000;stroke-width:2.61538;stroke-linecap:round;stroke-linejoin:round;stroke-miterlimit:10;stroke-dasharray:none;stroke-opacity:1" id="path474" />
         </g>
         <g id="g476" transform="scale(1,-1)">
            <path d="m 320.797,-691.32 c -1.465,-1.774 -3.852,-5.168 -3.301,-8.559 -0.316,-3.121 0.215,-6.203 1.383,-9.242 0.848,-3.574 4.398,-5.781 6.57,-8.789 1.817,-1.219 6.414,-3.41 7.516,-3.61" style="fill:none;stroke:#000000;stroke-width:2.61538;stroke-linecap:round;stroke-linejoin:round;stroke-miterlimit:10;stroke-dasharray:none;stroke-opacity:1" id="path478" />
         </g>
         <g id="g480" transform="scale(1,-1)">
            <path d="m 317.93,-701.32 c -0.868,-0.809 3.117,1.148 3.789,-0.368 1.886,-1.664 1.57,-6.871 1.859,-7.246 -0.176,-0.183 -4.699,-0.98 -4.121,-0.66 0.027,-0.074 0.219,-0.07 0.008,-0.019" style="fill:none;stroke:#000000;stroke-width:2.61538;stroke-linecap:round;stroke-linejoin:round;stroke-miterlimit:10;stroke-dasharray:none;stroke-opacity:1" id="path482" />
         </g>
         <g id="g484" transform="scale(1,-1)">
            <path d="m 271.121,-642.141 c -1.019,0.153 -3.383,2.125 -1.836,3.446 0.11,0.965 1.067,1.55 -0.117,1.867 -2.449,0.621 -5.391,0.32 -7.953,0.976 -2.965,-0.257 -5.199,-1.777 -7.391,-3.972 -1.08291,-0.87354 -2.453,-5.82241 -2.453,-5.82241" style="fill:none;stroke:#000000;stroke-width:2.61538;stroke-linecap:round;stroke-linejoin:round;stroke-miterlimit:10;stroke-dasharray:none;stroke-opacity:1" id="path486" sodipodi:nodetypes="cccccc" />
         </g>
         <g id="g488" transform="scale(1,-1)">
            <path d="m 268.859,-636.535 c -0.168,1.144 -0.386,4.469 -0.148,6.441 0.094,3.024 -0.418,5.969 -0.621,8.727 -0.11,0.297 0.117,1.164 -0.137,0.801 -3.441,-0.215 -7.973,-1.383 -11.242,-1.102 -1.074,-0.102 -0.848,0.496 -1.551,1.262 -0.453,1.543 -0.289,3.379 -0.68,5.054 -0.16,0.879 -0.765,2.657 -0.843,2.786 0.156,0.273 -0.27,0.863 0.09,0.714" style="fill:none;stroke:#000000;stroke-width:2.61538;stroke-linecap:round;stroke-linejoin:round;stroke-miterlimit:10;stroke-dasharray:none;stroke-opacity:1" id="path490" />
         </g>
         <g id="g492" transform="scale(1,-1)">
            <path d="m 266.621,-620.125 c -0.855,-1.43 1.719,1.574 2.621,1.879 1.492,1.254 2.625,3.312 2.25,3.762" style="fill:none;stroke:#000000;stroke-width:2.61538;stroke-linecap:round;stroke-linejoin:round;stroke-miterlimit:10;stroke-dasharray:none;stroke-opacity:1" id="path494" />
         </g>
         <g id="g496" transform="scale(1,-1)">
            <path d="m 265.188,-619.48 c -0.204,1.554 -1.786,4.976 -2.665,6.918 -0.089,0.441 -3.664,0.851 -5.359,0.613 -2.605,0.097 -3.367,-0.047 -3.246,-2.633 -0.32,-0.949 0.957,-3.227 0.293,-3.898" style="fill:none;stroke:#000000;stroke-width:2.61538;stroke-linecap:round;stroke-linejoin:round;stroke-miterlimit:10;stroke-dasharray:none;stroke-opacity:1" id="path498" />
         </g>
         <g id="g500" transform="scale(1,-1)">
            <path d="m 234.727,-606.406 c 4.961,0.484 11.082,-1.352 16.433,-1.793 2.332,-0.422 3.742,-0.387 4.652,-1.168 3.286,-1.524 6.844,-1.285 11.008,-2.192 1.465,-0.246 4.625,-0.519 4.551,-0.503 -0.777,-0.086 -0.324,0.25 0.074,-0.172" style="fill:none;stroke:#000000;stroke-width:2.61538;stroke-linecap:round;stroke-linejoin:round;stroke-miterlimit:10;stroke-dasharray:none;stroke-opacity:1" id="path502" />
         </g>
         <g id="g504" transform="scale(1,-1)">
            <path d="m 267.828,-611.465 c 4.813,-2.976 16.754,-5.148 22.102,-6.539 7.976,-1.851 16.234,-1.578 24.246,-3.215 5.582,-0.933 11.269,-2.789 16.949,-1.535 4.691,1.891 8.621,5.965 10.262,10.754 0.5,4.332 1.539,8.734 1.484,13.043 -0.812,3.027 -2.34,5.801 -3.344,8.762 -1.699,3.73 -5.343,6.441 -9.461,6.761 -4.8,1.149 -9.601,2.411 -14.558,2.598 -8.301,1.492 -16.582,3.141 -25.004,3.793 -3.777,0.113 -7.406,1.215 -11.137,1.605 -3.824,-0.269 -7.004,-2.984 -10.055,-5.089 -3.757,-3.571 -3.859,-9.149 -5.468,-13.789 -1.262,-5.895 0.359,-12.383 4.207,-16.996" style="fill:none;stroke:#000000;stroke-width:2.61538;stroke-linecap:round;stroke-linejoin:round;stroke-miterlimit:10;stroke-dasharray:none;stroke-opacity:1" id="path506" />
         </g>
         <g id="g508" transform="scale(1,-1)">
            <path d="m 267.285,-581.301 c 0.067,-1.023 -2.168,0.176 -3.012,-0.011 -1.148,0.304 -2.152,0.234 -2.152,0.019" style="fill:none;stroke:#000000;stroke-width:2.61538;stroke-linecap:round;stroke-linejoin:round;stroke-miterlimit:10;stroke-dasharray:none;stroke-opacity:1" id="path510" />
         </g>
         <g id="g512" transform="scale(1,-1)">
            <path d="m 262.289,-604.703 c -0.676,-0.09 -4.332,-0.34 -5.379,0.406 -0.539,0.133 -1.344,0.461 -2.258,0.844 -2.441,1.574 -4.32,3.707 -4.547,7 -1.082,2.473 0.098,5.394 0.774,7.82 1,1.809 1.519,3.688 2.605,5.051 2.286,2.027 3.891,3.227 6.196,4.305 1.703,0.765 4.566,-0.508 4.289,-0.516 0.148,-0.148 0.785,-0.566 1.25,-0.855" style="fill:none;stroke:#000000;stroke-width:2.61538;stroke-linecap:round;stroke-linejoin:round;stroke-miterlimit:10;stroke-dasharray:none;stroke-opacity:1" id="path514" />
         </g>
         <g id="g516" transform="scale(1,-1)">
            <path d="m 266.238,-578.715 c -1.023,0.352 -3.125,2.301 -5.258,1.688 -4.605,-0.446 -8.914,-3.336 -10.363,-7.805 -1.457,-4.781 -2.41,-8.902 -1.965,-13.664 0.864,-2.004 2.129,-4.356 3.809,-4.957 1.777,-0.844 3.961,-0.938 5.199,-1.395 1.52,-0.093 3.543,0.176 4.528,0.485 -0.258,-0.063 0.554,0.066 0.273,-0.004" style="fill:none;stroke:#000000;stroke-width:2.61538;stroke-linecap:round;stroke-linejoin:round;stroke-miterlimit:10;stroke-dasharray:none;stroke-opacity:1" id="path518" />
         </g>
         <g id="g520" transform="scale(1,-1)">
            <path d="m 260.465,-577.102 c 0.566,-0.011 -3.817,0.575 -5.438,0.735 -3.929,0.601 -7.832,-0.797 -11.425,0.379 -3.547,0.273 -6.735,0.636 -9.707,2.183 -1.774,0.684 -5.614,1.735 -5.473,1.387 0.355,-0.078 0.23,-0.09 0.031,-0.129" style="fill:none;stroke:#000000;stroke-width:2.61538;stroke-linecap:round;stroke-linejoin:round;stroke-miterlimit:10;stroke-dasharray:none;stroke-opacity:1" id="path522" />
         </g>
         <g id="g524" transform="scale(1,-1)">
            <path d="m 228.262,-573.113 c 0.367,1.047 -3.035,-2.996 -3.676,-3.797 -2.16,-2.953 -2.758,-6.485 -3.07,-9.168 -0.215,-2.168 -0.149,-4.094 -0.676,-6.32 -0.176,-2.969 0.851,-4.7 1.098,-6.911 0.07,-0.808 0.582,-2.621 0.777,-2.98 0.668,-0.863 0.234,-0.359 0.301,-0.309" style="fill:none;stroke:#000000;stroke-width:2.61538;stroke-linecap:round;stroke-linejoin:round;stroke-miterlimit:10;stroke-dasharray:none;stroke-opacity:1" id="path526" />
         </g>
         <g id="g528" transform="scale(1,-1)">
            <path d="m 224.004,-603.84 c 2.5,-0.82 6.887,-1.851 10.203,-2.328 6.867,-0.91 13.461,-2.437 20.203,-2.965 3.235,-0.566 6.09,-0.492 8.883,-1.586" style="fill:none;stroke:#000000;stroke-width:2.61538;stroke-linecap:round;stroke-linejoin:round;stroke-miterlimit:10;stroke-dasharray:none;stroke-opacity:1" id="path530" />
         </g>
         <g id="g532" transform="scale(1,-1)">
            <path d="m 224.316,-597.168 c -0.07,-0.309 4.465,-0.625 6.145,-0.93 5.613,-0.605 12.34,-1.656 15.828,-2.406 -0.098,-0.019 -0.172,0.016 -0.269,-0.023" style="fill:none;stroke:#000000;stroke-width:2.61538;stroke-linecap:round;stroke-linejoin:round;stroke-miterlimit:10;stroke-dasharray:none;stroke-opacity:1" id="path534" />
         </g>
         <g id="g536" transform="scale(1,-1)">
            <path d="m 224.258,-574.887 c 0.113,0.239 -4.426,0.344 -5.988,0.219 -2.805,-0.457 -7.149,0.699 -7.208,-0.105 -1.851,-1.532 -2.566,-4.286 -3.39,-7.067 -0.363,-1.207 -0.582,-2.574 -0.582,-4.113 0.344,-1.442 0.472,-2.938 1.039,-4.414 1.25,-2.207 1.652,-3.938 3.793,-4.84 -0.625,0.269 0.789,-0.711 0.324,-0.383 0.02,0.106 -0.187,-0.172 -0.055,0.262" style="fill:none;stroke:#000000;stroke-width:2.61538;stroke-linecap:round;stroke-linejoin:round;stroke-miterlimit:10;stroke-dasharray:none;stroke-opacity:1" id="path538" />
         </g>
         <g id="g540" transform="scale(1,-1)">
            <path d="m 210.57,-596.02 c 0.118,-0.191 4.262,-0.105 5.832,-0.371 1.555,-0.047 5.325,-0.367 5.66,-0.488 -0.316,-0.004 -0.144,0.129 -0.335,0.274" style="fill:none;stroke:#000000;stroke-width:2.61538;stroke-linecap:round;stroke-linejoin:round;stroke-miterlimit:10;stroke-dasharray:none;stroke-opacity:1" id="path542" />
         </g>
         <g id="g544" transform="scale(1,-1)">
            <path d="m 213.828,-581.719 c -0.113,-0.125 -0.512,-0.25 -0.398,-0.074 -0.051,0.055 -0.071,0.129 -0.094,0.199" style="fill:none;stroke:#000000;stroke-width:2.61538;stroke-linecap:round;stroke-linejoin:round;stroke-miterlimit:10;stroke-dasharray:none;stroke-opacity:1" id="path546" />
         </g>
         <g id="g548" transform="scale(1,-1)">
            <path d="m 204.168,-589.277 c 0.23,0.125 -3.688,-0.114 -4.844,-1.508 -2.316,-1.629 -4.304,-3.559 -5.613,-6.149 -2.246,-2.285 -3.027,-6.398 -1.469,-9.367 0.762,-4.191 6.446,-4.75 10.399,-5.039 3.695,0.379 6.777,3.442 9.64,4.399 2.176,1.406 3.653,2.011 5.512,3.761 0.988,0.883 2.492,1.16 3.043,2.27 1.172,0.984 0.84,0.902 2.434,1.383 0.425,-0.09 0.32,0.492 0.882,0.683" style="fill:none;stroke:#000000;stroke-width:2.61538;stroke-linecap:round;stroke-linejoin:round;stroke-miterlimit:10;stroke-dasharray:none;stroke-opacity:1" id="path550" />
         </g>
         <g id="g552" transform="scale(1,-1)">
            <path d="m 214.902,-597.461 c 0.106,0.516 -1.617,-2.098 -2.91,-2.84 -4.215,-3.094 -8.523,-5.687 -12.719,-5.465 -1.328,0.371 -2.035,1.543 -2.539,2.993 -1.289,3.906 2.008,7.644 5.957,8.707 1.45,0.187 4.371,0.882 4.641,0.851 0.188,0.074 0.664,-0.008 0.777,-0.019" style="fill:none;stroke:#000000;stroke-width:2.61538;stroke-linecap:round;stroke-linejoin:round;stroke-miterlimit:10;stroke-dasharray:none;stroke-opacity:1" id="path554" />
         </g>
         <g id="g556" transform="scale(1,-1)">
            <path d="m 232.125,-606.387 c -0.434,0.492 -2.094,-5.781 -1.746,-7.031 0.215,-4.68 0.289,-9.937 0.719,-14.086 0.297,-1.328 0.234,-3.312 0.929,-4.891 -0.297,-0.332 0.137,-2.41 -0.089,-1.148" style="fill:none;stroke:#000000;stroke-width:2.61538;stroke-linecap:round;stroke-linejoin:round;stroke-miterlimit:10;stroke-dasharray:none;stroke-opacity:1" id="path558" />
         </g>
         <g id="g560" transform="scale(1,-1)">
            <path d="m 255.172,-621.418 c -1.43,-0.059 -2.246,-2.383 -2.813,-3.52 -0.394,-1.382 -0.109,-4.851 0.008,-4.531 -0.242,0.145 -3.097,2.836 -5.027,2.184 -4.758,0.051 -9.016,-2.078 -12.727,-4.926 -0.863,-0.051 -1.621,-3 -1.746,-2.738 l -0.008,0.125 0.024,0.113" style="fill:none;stroke:#000000;stroke-width:2.61538;stroke-linecap:round;stroke-linejoin:round;stroke-miterlimit:10;stroke-dasharray:none;stroke-opacity:1" id="path562" />
         </g>
         <g id="g564" transform="scale(1,-1)">
            <path d="m 259.062,-630.102 c -1.285,0.102 -2.273,-3.964 1.075,-2.664 0.633,0.586 -1.891,2.547 -2.332,1.746" style="fill:none;stroke:#000000;stroke-width:2.61538;stroke-linecap:round;stroke-linejoin:round;stroke-miterlimit:10;stroke-dasharray:none;stroke-opacity:1" id="path566" />
         </g>
         <g id="g568" transform="scale(1,-1)">
            <path d="m 218.188,-605.055 c -0.172,-0.558 1.859,-3.496 1.96,-4.742 1.11,-3.801 3.207,-7.629 3.184,-12.172 0.098,-5.078 0.242,-10.035 -0.477,-14.965 -0.875,-4.093 -2.312,-8.281 -4.257,-12.152 -1.453,-3.914 -3.028,-8.254 -4.344,-11.543 -1.543,-4.16 -2.184,-7.59 -2.984,-12.109 -1.122,-2.321 -0.723,-4.219 -0.961,-6.621 -0.25,-1.883 0.136,-3.582 0.625,-5.536 0.628,-1.222 0.843,-2.07 1.382,-3.14 0.293,0.008 -0.312,-0.86 0.981,-0.602" style="fill:none;stroke:#000000;stroke-width:2.61538;stroke-linecap:round;stroke-linejoin:round;stroke-miterlimit:10;stroke-dasharray:none;stroke-opacity:1" id="path570" />
         </g>
         <g id="g572" transform="scale(1,-1)">
            <path d="m 210.984,-608.605 c 3.305,-5.579 6.356,-14.02 5.809,-19.875 0.121,-4.461 -1.094,-9.317 -1.992,-13.54 -1.664,-3.636 -2.293,-7.539 -4.219,-11.437 -1.316,-5.145 -3.801,-11.02 -5.27,-16.008 -0.988,-3.394 -0.41,-5.847 -0.531,-9.226 0.137,-2.258 0.446,-4.735 1.094,-6.473 0.227,-2.172 0.836,-3.957 1.016,-5.445 0.828,-1.192 2.226,-3.621 2.32,-3.403 1.805,-1.636 0.312,-0.453 2.598,-2.605 0.117,-0.09 0.48,-0.281 0.367,0.047" style="fill:none;stroke:#000000;stroke-width:2.61538;stroke-linecap:round;stroke-linejoin:round;stroke-miterlimit:10;stroke-dasharray:none;stroke-opacity:1" id="path574" />
         </g>
         <g id="g576" transform="scale(1,-1)">
            <path d="m 206.57,-689.664 c -0.082,-2.184 5.266,-0.348 4.813,-0.25 0.246,0.195 0.297,0.582 0.351,0.902" style="fill:none;stroke:#000000;stroke-width:2.61538;stroke-linecap:round;stroke-linejoin:round;stroke-miterlimit:10;stroke-dasharray:none;stroke-opacity:1" id="path578" />
         </g>
         <g id="g580" transform="scale(1,-1)">
            <path d="m 221.77249,-675.38959 c 0.101,2.25 -1.24549,7.49459 -0.97149,10.53459 -0.281,6.414 1.144,13.148 1.5,19.144 0.129,0.332 -0.9728,1.87305 -1.0238,2.33405" style="fill:none;stroke:#000000;stroke-width:2.61538;stroke-linecap:round;stroke-linejoin:round;stroke-miterlimit:10;stroke-dasharray:none;stroke-opacity:1" id="path582" sodipodi:nodetypes="cccc" />
         </g>
         <g id="g584" transform="scale(1,-1)">
            <path d="m 230.102,-666.211 c -0.539,0.489 -1.282,5.699 -1.782,7.246 0.196,11.512 -0.988,22.695 -0.64,34.129 0.097,2.328 0.707,8.594 0.914,8.801 0.125,0.097 1.222,1.207 1.383,1.273" style="fill:none;stroke:#000000;stroke-width:2.61538;stroke-linecap:round;stroke-linejoin:round;stroke-miterlimit:10;stroke-dasharray:none;stroke-opacity:1" id="path586" sodipodi:nodetypes="ccccc" />
         </g>
         <g id="g588" transform="scale(1,-1)">
            <path d="m 226.215,-569.621 c 0.117,0.363 -0.836,5.223 0.996,5.269 1.566,-0.074 5.477,-0.21 5.195,-1.222 1.098,-1.707 -0.359,-5.547 -0.199,-7.668" style="fill:none;stroke:#000000;stroke-width:2.61538;stroke-linecap:round;stroke-linejoin:round;stroke-miterlimit:10;stroke-dasharray:none;stroke-opacity:1" id="path590" />
         </g>
         <g id="g592" transform="scale(1,-1)">
            <path d="m 195.402,-562.254 c 4.211,-0.801 9.934,-0.926 14.176,-1.883 1.242,-0.593 2.813,-0.043 2.535,-0.273 -0.047,-0.988 -2.504,-2.715 -2.261,-5.387 -0.395,-1.039 1.328,-3.957 0.984,-3.305" style="fill:none;stroke:#000000;stroke-width:2.61538;stroke-linecap:round;stroke-linejoin:round;stroke-miterlimit:10;stroke-dasharray:none;stroke-opacity:1" id="path594" />
         </g>
         <g id="g596" transform="scale(1,-1)">
            <path d="m 194.562,-563.652 c -0.277,0.847 -0.898,-3.828 -0.667,-3.657 v 0.016 l -0.004,0.02" style="fill:none;stroke:#000000;stroke-width:2.61538;stroke-linecap:round;stroke-linejoin:round;stroke-miterlimit:10;stroke-dasharray:none;stroke-opacity:1" id="path598" />
         </g>
         <g id="g600" transform="scale(1,-1)">
            <path d="m 194.68,-567.387 c 2.445,0.024 6.965,-0.508 10.132,-0.879 0.622,-0.086 3.766,-0.644 3.079,-0.578" style="fill:none;stroke:#000000;stroke-width:2.61538;stroke-linecap:round;stroke-linejoin:round;stroke-miterlimit:10;stroke-dasharray:none;stroke-opacity:1" id="path602" />
         </g>
         <g id="g604" transform="scale(1,-1)">
            <path d="m 212.547,-563.656 c 3.051,0.195 7.398,0.187 11.16,-0.785 0.586,-0.164 1.43,-0.289 1.605,-0.43" style="fill:none;stroke:#000000;stroke-width:2.61538;stroke-linecap:round;stroke-linejoin:round;stroke-miterlimit:10;stroke-dasharray:none;stroke-opacity:1" id="path606" />
         </g>
         <g id="g608" transform="scale(1,-1)">
            <path d="m 233.727,-564.031 c 2.597,1.207 6.855,1.687 9.601,3.359 2.848,1.012 5.434,1.906 8.012,2.317 3.793,1.347 8.004,1.031 11.711,2.304 1.847,0.789 5.414,0.863 6.527,1.086 0.004,0.012 -0.348,-0.055 -0.098,-0.078" style="fill:none;stroke:#000000;stroke-width:2.61538;stroke-linecap:round;stroke-linejoin:round;stroke-miterlimit:10;stroke-dasharray:none;stroke-opacity:1" id="path610" />
         </g>
         <g id="g612" transform="scale(1,-1)">
            <path d="m 269.859,-555.188 c 2.047,-0.433 8.77,-0.472 11.684,-0.738 2.684,-0.097 6.398,-0.043 8.391,0.856 0.109,0.05 0.375,0.008 0.523,-0.004" style="fill:none;stroke:#000000;stroke-width:2.61538;stroke-linecap:round;stroke-linejoin:round;stroke-miterlimit:10;stroke-dasharray:none;stroke-opacity:1" id="path614" />
         </g>
         <g id="g616" transform="scale(1,-1)">
            <path d="m 290.148,-554.836 c 0.872,0.113 3.864,2.148 5.317,1.953 3.894,0.36 7.117,-1.074 9.574,-3.707 0.973,-0.422 0.492,-1.828 0.57,-1.617" style="fill:none;stroke:#000000;stroke-width:2.61538;stroke-linecap:round;stroke-linejoin:round;stroke-miterlimit:10;stroke-dasharray:none;stroke-opacity:1" id="path618" />
         </g>
         <g id="g620" transform="scale(1,-1)">
            <path d="m 276.004,-554.625 c -0.555,-0.203 4.934,3.734 5.527,4.781 2.938,1.875 4.742,5.867 8.594,6.438 3.801,0.906 7.629,0.804 11.563,0.519 4.226,-0.597 7.746,-2.746 10.941,-5.304 1.547,-1.153 3.504,-2.84 4.41,-4.469 0.984,-1.629 1.91,-2.922 2.52,-4.645 0.211,0.032 0.543,-2.136 0.5,-2.183" style="fill:none;stroke:#000000;stroke-width:2.61538;stroke-linecap:round;stroke-linejoin:round;stroke-miterlimit:10;stroke-dasharray:none;stroke-opacity:1" id="path622" />
         </g>
         <g id="g624" transform="scale(1,-1)">
            <path d="m 277.887,-568.922 c 0.742,-0.41 6.082,0.926 7.383,1.234 5.792,1.258 11.171,3.368 16.933,4.516 5.641,0.969 11.016,1.578 15.891,2.731 1.179,0.027 2.187,0.578 2.344,0.453" style="fill:none;stroke:#000000;stroke-width:2.61538;stroke-linecap:round;stroke-linejoin:round;stroke-miterlimit:10;stroke-dasharray:none;stroke-opacity:1" id="path626" />
         </g>
         <g id="g628" transform="scale(1,-1)">
            <path d="m 237.461,-562.777 c 0.863,-0.059 1.227,0.531 3.019,0.414 7.465,0.554 15.208,-0.848 22.11,-2.578 3.906,-0.961 8.281,-1.981 11.59,-2.961 1.64,-0.512 3.382,-0.52 3.707,-1.02" style="fill:none;stroke:#000000;stroke-width:2.61538;stroke-linecap:round;stroke-linejoin:round;stroke-miterlimit:10;stroke-dasharray:none;stroke-opacity:1" id="path630" sodipodi:nodetypes="ccccc" />
         </g>
         <g id="g632" transform="scale(1,-1)">
            <path d="m 261.656,-575.504 c -0.094,0.363 0.387,0.356 0.078,2.149 -0.578,2.605 0.528,6.804 -2.988,5.214 -2.277,-0.214 -5.902,0.114 -6.879,-0.504 -0.609,-0.808 0.379,-4.718 -0.183,-4.781 0.41,-0.094 0.046,0.008 -0.055,0.028" style="fill:none;stroke:#000000;stroke-width:2.61538;stroke-linecap:round;stroke-linejoin:round;stroke-miterlimit:10;stroke-dasharray:none;stroke-opacity:1" id="path634" />
         </g>
         <g id="g636" transform="scale(1,-1)">
            <path d="m 306.84,-567.387 c 1.859,0.852 7.18,2.528 9.785,0.899 1.578,-1.059 -0.875,-3.516 -2.574,-4.227 -2.727,-0.762 -6.051,-0.558 -7.922,0.547 -0.856,0.43 0.926,2.422 0.805,2.961" style="fill:none;stroke:#000000;stroke-width:2.61538;stroke-linecap:round;stroke-linejoin:round;stroke-miterlimit:10;stroke-dasharray:none;stroke-opacity:1" id="path638" />
         </g>
         <g id="g640" transform="scale(1,-1)">
            <path d="m 304.484,-579.008 c 5.727,1.84 11.985,3.055 17.704,3.961 3.507,0.727 6.14,0.875 9.417,0.156 1.704,-0.328 4.504,-2.168 5.114,-3.531 1.793,-2.023 1.242,-4.418 1.64,-7.027 -0.894,-0.985 -0.543,-1.055 -1.941,-0.547" style="fill:none;stroke:#000000;stroke-width:2.61538;stroke-linecap:round;stroke-linejoin:round;stroke-miterlimit:10;stroke-dasharray:none;stroke-opacity:1" id="path642" />
         </g>
         <g id="g644" transform="scale(1,-1)">
            <path d="m 325.055,-574.508 c -1.575,0.067 -7.266,3.488 -9.614,4.063" style="fill:none;stroke:#000000;stroke-width:2.61538;stroke-linecap:round;stroke-linejoin:round;stroke-miterlimit:10;stroke-dasharray:none;stroke-opacity:1" id="path646" />
         </g>
         <g id="g648" transform="scale(1,-1)">
            <path d="m 295.289,-576.246 c 0.602,-0.043 4.742,1.617 6.902,1.644 0.348,0.016 3.465,0.887 2.793,0.684" style="fill:none;stroke:#000000;stroke-width:2.61538;stroke-linecap:round;stroke-linejoin:round;stroke-miterlimit:10;stroke-dasharray:none;stroke-opacity:1" id="path650" />
         </g>
         <g id="g652" transform="scale(1,-1)">
            <path d="m 337.738,-580.465 c 0.957,-1.398 -0.093,0.211 0.696,1.09 1.113,8.574 0.906,27.754 -3.653,34.801 -2.652,3.859 -4.98,5.812 -9,7.922 -6.179,1.504 -18.621,4.691 -26.273,5.843 -0.028,0.008 -1.613,1.239 -1.582,1.336" style="fill:none;stroke:#000000;stroke-width:2.61538;stroke-linecap:round;stroke-linejoin:round;stroke-miterlimit:10;stroke-dasharray:none;stroke-opacity:1" id="path654" />
         </g>
         <g id="g656" transform="scale(1,-1)">
            <path d="m 297.672,-529.277 c 0.109,-0.625 -1.777,0.648 -3.285,0.484 -2.848,-0.445 -6.086,-2.531 -8.789,-4.219 -2.731,-2.48 -4.836,-6.625 -6.125,-10.441 -1.938,-3.356 -3.211,-6.223 -4.024,-9.449 -0.16,-1.149 -0.304,-1.567 -1.004,-2.493" style="fill:none;stroke:#000000;stroke-width:2.61538;stroke-linecap:round;stroke-linejoin:round;stroke-miterlimit:10;stroke-dasharray:none;stroke-opacity:1" id="path658" />
         </g>
         <g id="g660" transform="scale(1,-1)">
            <path d="m 294.691,-528.562 c 0.539,0.238 -2.992,0.914 -4.57,1.023 -3.461,0.16 -7.164,0.601 -9.578,1.031 -1.535,0.567 -3.297,0.969 -5.184,1.278 -1.707,1.078 -4.273,-0.133 -5.234,-0.622 -1.258,-0.621 -2.262,-0.968 -3.16,-1.828 -1.848,-1.492 -3.293,-3.703 -4.535,-5.914 -1.039,-1.765 -2.004,-3.644 -3.368,-5.703 -0.738,-1.894 -2.687,-4.738 -2.886,-7.285 -0.535,-2.164 -0.281,-8.094 -0.852,-9.316" style="fill:none;stroke:#000000;stroke-width:2.61538;stroke-linecap:round;stroke-linejoin:round;stroke-miterlimit:10;stroke-dasharray:none;stroke-opacity:1" id="path662" />
         </g>
         <g id="g664" transform="scale(1,-1)">
            <path d="m 281.305,-528.086 c -1.84,0.461 -3.778,-1.742 -5.403,-3.273 -3.621,-3.434 -7.07,-7.559 -7.855,-12.352 -1.348,-2.625 -1.442,-5.176 -2.781,-7.543 -0.536,-1.883 -0.692,-1.996 -1.348,-3.844" style="fill:none;stroke:#000000;stroke-width:2.61538;stroke-linecap:round;stroke-linejoin:round;stroke-miterlimit:10;stroke-dasharray:none;stroke-opacity:1" id="path666" />
         </g>
         <g id="g668" transform="scale(1,-1)">
            <path d="m 267.121,-526.078 c -0.121,-0.063 -1.918,0.785 -2.723,0.379 -3.05,0.074 -5.843,0.547 -8.156,0.16 -1.711,-0.316 -3.738,-1.402 -5.176,-2.086" style="fill:none;stroke:#000000;stroke-width:2.61538;stroke-linecap:round;stroke-linejoin:round;stroke-miterlimit:10;stroke-dasharray:none;stroke-opacity:1" id="path670" />
         </g>
         <g id="g672" transform="scale(1,-1)">
            <path d="m 225.449,-524.207 c 5.403,-1.305 12.004,-2.906 16.344,-3.125 0.113,0.047 3.809,0.637 5.691,1.18 1.84,0.398 4.094,1.125 3.7,1.238 -0.356,0.289 -0.661,2.547 -0.875,2.137 -3.797,0.57 -9.454,0.511 -12.891,1.812 -3.953,0.504 -4.723,0.676 -7.758,-1.082 -1.785,-0.226 -3.66,-2.277 -4.539,-1.57" style="fill:none;stroke:#000000;stroke-width:2.61538;stroke-linecap:round;stroke-linejoin:round;stroke-miterlimit:10;stroke-dasharray:none;stroke-opacity:1" id="path674" />
         </g>
         <g id="g676" transform="scale(1,-1)">
            <path d="m 253.055,-526.516 c -0.535,-0.222 1.562,-2.566 1.39,-2.789 -0.203,0.024 0.371,-0.32 -1.441,-0.093 -3.02,0.73 -10.875,-1.504 -13.766,-2.344 -1.535,-0.555 0,0 2.172,-0.895" style="fill:none;stroke:#000000;stroke-width:2.61538;stroke-linecap:round;stroke-linejoin:round;stroke-miterlimit:10;stroke-dasharray:none;stroke-opacity:1" id="path678" sodipodi:nodetypes="ccccc" />
         </g>
         <g id="g680" transform="scale(1,-1)">
            <path d="m 254.445,-529.305 c -0.453,-0.578 -1.582,-5.621 -2.074,-7.429 -1.144,-3.286 -1.539,-6.7 -2.016,-9.793 -0.554,-2.043 -1.226,-4.254 -1.64,-5.766 -0.231,-1.492 -0.289,-2.512 -1.059,-3.395 -0.75,-1.226 -0.148,-1.148 -1.543,-2.574 -1.004,-1.406 -3.582,-1.722 -3.851,-2.746" style="fill:none;stroke:#000000;stroke-width:2.61538;stroke-linecap:round;stroke-linejoin:round;stroke-miterlimit:10;stroke-dasharray:none;stroke-opacity:1" id="path682" sodipodi:nodetypes="ccccccc" />
         </g>
         <g id="g684" transform="scale(1,-1)">
            <path d="m 238.555,-532.055 c -0.496,-1.425 -0.969,-5.332 -1.973,-7.707 -0.273,-3.543 -1.277,-6.66 -1.617,-9.554 -0.797,-1.903 -1.184,-4.914 -1.805,-6.582 -0.547,-1.262 -0.512,-1.731 -0.664,-1.473 -0.023,0.113 -0.187,0.098 -0.234,0.195" style="fill:none;stroke:#000000;stroke-width:2.61538;stroke-linecap:round;stroke-linejoin:round;stroke-miterlimit:10;stroke-dasharray:none;stroke-opacity:1" id="path686" />
         </g>
         <g id="g688" transform="scale(1,-1)">
            <path d="m 227.352,-563.562 c 0.046,-1.211 1.285,2.734 2.05,3.523 1.313,3.48 6.168,2.496 9.243,3.031 0.21,-0.058 1.914,-1.23 0.125,-1.828" style="fill:none;stroke:#000000;stroke-width:2.61538;stroke-linecap:round;stroke-linejoin:round;stroke-miterlimit:10;stroke-dasharray:none;stroke-opacity:1" id="path690" />
         </g>
         <g id="g692" transform="scale(1,-1)">
            <path d="m 111.77,-504.711 c 0,0 15.585,2.981 22.421,2.961 12.942,-1.969 26.114,-1.59 37.786,-4.348 18.55,-3.129 35.871,-8.98 54.246,-13.074 1.324,-0.539 6.20941,-1.06489 6.65941,-1.35389" style="fill:none;stroke:#000000;stroke-width:2.61538;stroke-linecap:round;stroke-linejoin:round;stroke-miterlimit:10;stroke-dasharray:none;stroke-opacity:1" id="path694" sodipodi:nodetypes="ccccc" />
         </g>
         <g id="g696" transform="scale(1,-1)">
            <path d="m 111.645,-506.133 c 31.437,-3.476 95.14,-15.875 95.14,-15.875 4.707,-0.84 8.567,-1.703 13.051,-2.746 4.148,-0.961 9.09,-2.074 13.406,-3.32 1.977,-0.461 2.863,-1.559 4.242,-2.246 1.18,-0.782 1.95,-0.985 1.684,-1.239" style="fill:none;stroke:#000000;stroke-width:2.61538;stroke-linecap:round;stroke-linejoin:round;stroke-miterlimit:10;stroke-dasharray:none;stroke-opacity:1" id="path698" />
         </g>
         <g id="g700" transform="scale(1,-1)">
            <path d="m 221.664,-535.227 c -1.488,0.129 -2.055,-3.101 0.356,-3.718 2.753,-0.973 3.402,2.445 1.042,3.031 -1.093,0.184 -1.292,-0.109 -1.855,0.078" style="fill:none;stroke:#000000;stroke-width:2.61538;stroke-linecap:round;stroke-linejoin:round;stroke-miterlimit:10;stroke-dasharray:none;stroke-opacity:1" id="path702" />
         </g>
         <g id="g704" transform="scale(1,-1)">
            <path d="m 222.77,-533.613 c 1.351,0.086 4.218,2.043 6.238,0.281 0.621,-0.496 1.289,-2.477 0.765,-3 0.782,-2.461 -4.007,-3.688 -3.355,-3.246 -0.074,0.176 -2.106,0.355 -2.215,0.5" style="fill:none;stroke:#000000;stroke-width:2.61538;stroke-linecap:round;stroke-linejoin:round;stroke-miterlimit:10;stroke-dasharray:none;stroke-opacity:1" id="path706" />
         </g>
         <g id="g708" transform="scale(1,-1)">
            <path d="m 223.164,-543.477 c -0.758,-1.062 -0.746,-2.867 -0.453,-4.285 -0.059,-1.152 0.105,-2.293 0.094,-3.445 -0.27,-1.285 -0.43,-2.563 -0.727,-3.844 -0.828,-2.281 -2.941,-3.629 -4.582,-5.273 -1.184,-0.91 -2.457,-1.836 -3.281,-3.117 l -0.039,-0.024 -0.129,-0.015" style="fill:none;stroke:#000000;stroke-width:2.61538;stroke-linecap:round;stroke-linejoin:round;stroke-miterlimit:10;stroke-dasharray:none;stroke-opacity:1" id="path710" />
         </g>
         <g id="g712" transform="scale(1,-1)">
            <path d="m 113.812,-515.82 c 0.204,0.004 0.434,-0.028 0.649,-0.047" style="fill:none;stroke:#000000;stroke-width:2.61538;stroke-linecap:round;stroke-linejoin:round;stroke-miterlimit:10;stroke-dasharray:none;stroke-opacity:1" id="path714" />
         </g>
         <g id="g716" transform="scale(1,-1)">
            <path d="m 116.23,-515.828 c -1.0056,0.20015 3.4361,0.034 4.43238,-1.07777 3.47628,-2.36759 8.02484,-3.38666 11.15285,0.1584 2.61166,-0.79499 5.82005,-3.84187 9.26669,-2.79975 2.74938,2.07874 3.52847,1.0034 5.99546,-0.73841 2.73746,-2.76481 8.44032,-0.44622 10.23542,-0.22216 2.58825,-2.05484 5.16646,-4.64558 8.85139,-3.21287 3.88,1.54275 5.1985,-4.17307 9.0423,-4.65025 2.47793,-0.83906 6.10761,-0.76766 8.10581,-0.0905 3.38794,-0.45335 5.50448,-4.02678 9.02218,-4.04276 3.35283,0.1093 6.27776,1.55333 8.82463,-1.27505 3.18604,-2.54483 7.01626,-1.8288 9.98189,0.35309 2.76878,-1.41269 6.05713,-1.82489 8.58678,-3.38402 l -0.10278,0.083" style="fill:none;stroke:#000000;stroke-width:2.61538;stroke-linecap:round;stroke-linejoin:round;stroke-miterlimit:10;stroke-dasharray:none;stroke-opacity:1" id="path718" />
         </g>
         <g id="g720" transform="scale(1,-1)">
            <path d="m 123.336,-518.957 c -2.223,-3.871 -7.133,-10.742 -6.602,-14.922 0.899,-4.051 0.075,-10.18 -0.976,-13.894" style="fill:none;stroke:#000000;stroke-width:2.61538;stroke-linecap:round;stroke-linejoin:round;stroke-miterlimit:10;stroke-dasharray:none;stroke-opacity:1" id="path722" />
         </g>
         <g id="g724" transform="scale(1,-1)">
            <path d="m 108.707,-518.152 c -1.891,-1.426 -2.867,-3.731 -3.879,-5.801 -1.277,-3.449 0.434,-7.027 0.059,-10.559 0.14,-3.894 -1.489,-7.558 -2.137,-11.328 l -0.203,-0.269 -0.293,-0.098" style="fill:none;stroke:#000000;stroke-width:2.61538;stroke-linecap:round;stroke-linejoin:round;stroke-miterlimit:10;stroke-dasharray:none;stroke-opacity:1" id="path726" />
         </g>
         <g id="g728" transform="scale(1,-1)">
            <path d="m 91.941,-544.676 c -0.914,1.039 2.598,-0.652 3.946,-0.344 4.394,-0.984 8.32,-2.492 12.804,-2.66 2.653,0.078 5.25,-0.773 7.434,0.364 1.875,0.773 5.172,2.097 5.203,2.347 0.059,0.106 0.414,0 0.215,0.16" style="fill:none;stroke:#000000;stroke-width:2.61538;stroke-linecap:round;stroke-linejoin:round;stroke-miterlimit:10;stroke-dasharray:none;stroke-opacity:1" id="path730" sodipodi:nodetypes="cccccc" />
         </g>
         <g id="g732" transform="scale(1,-1)">
            <path d="m 111.809,-505.059 c -0.305,0.262 -2.383,-1.226 -3.657,-2.863 -3.964,-2.5 -6.156,-6.574 -8.457,-10.019 -1.293,-1.504 -2.379,-2.969 -3.898,-4.454 -0.293,-0.992 -2.609,-2.91 -2.641,-3.859 -0.609,-1.449 -1.664,-2.824 -1.683,-2.969 0.113,-1.734 -0.172,-0.047 0.218,-1.586 l 0.25,-13.867 c 0.426,0.031 -0.242,-0.019 0.399,-0.265" style="fill:none;stroke:#000000;stroke-width:2.61538;stroke-linecap:round;stroke-linejoin:round;stroke-miterlimit:10;stroke-dasharray:none;stroke-opacity:1" id="path734" />
         </g>
         <g id="g736" transform="scale(1,-1)">
            <path d="m 118.336,-531.91 c 1.609,0.226 5.695,-0.504 8.176,-0.879 3.008,-0.156 7.652,-1.004 9.23,-1.188 0.301,-0.156 2.051,-0.668 1.274,-0.574 0.66,-0.969 0.75,-3.094 1.757,-4.566 -0.878,-0.293 0.254,-0.242 -0.32,-0.305" style="fill:none;stroke:#000000;stroke-width:2.61538;stroke-linecap:round;stroke-linejoin:round;stroke-miterlimit:10;stroke-dasharray:none;stroke-opacity:1" id="path738" />
         </g>
         <g id="g740" transform="scale(1,-1)">
            <path d="m 124.016,-542.195 c -0.625,0.203 2.625,0.652 3.746,1.047 3.125,0.55 8.418,1.48 10.215,1.675" style="fill:none;stroke:#000000;stroke-width:2.61538;stroke-linecap:round;stroke-linejoin:round;stroke-miterlimit:10;stroke-dasharray:none;stroke-opacity:1" id="path742" />
         </g>
         <g id="g744" transform="scale(1,-1)">
            <path d="m 122.836,-543.082 c 0,-0.867 -0.047,0.27 0.078,-0.828 -0.547,-0.66 -0.262,-2.992 -0.75,-2.754 0.016,-0.113 -0.211,-0.133 -0.121,-0.16" style="fill:none;stroke:#000000;stroke-width:2.61538;stroke-linecap:round;stroke-linejoin:round;stroke-miterlimit:10;stroke-dasharray:none;stroke-opacity:1" id="path746" />
         </g>
         <g id="g748" transform="scale(1,-1)">
            <path d="m 138.715,-540.562 c 3.285,-0.887 8.57,-1.04 12.527,-1.528 4.813,-0.68 9.66,-1.105 14.598,-1.48 3.172,-0.457 6.262,-0.422 9.031,-1.164 0.797,-0.274 3.113,-1.207 3.215,-1.469 0.535,-0.367 0.473,0.015 0.512,-1.43 -0.289,-1.453 1.461,-2.238 -0.047,-1.812" style="fill:none;stroke:#000000;stroke-width:2.61538;stroke-linecap:round;stroke-linejoin:round;stroke-miterlimit:10;stroke-dasharray:none;stroke-opacity:1" id="path750" />
         </g>
         <g id="g752" transform="scale(1,-1)">
            <path d="m 123.246,-543.797 c 12.93,-2.465 31.43,-7.066 41.715,-9.25" style="fill:none;stroke:#000000;stroke-width:2.61538;stroke-linecap:round;stroke-linejoin:round;stroke-miterlimit:10;stroke-dasharray:none;stroke-opacity:1" id="path754" />
         </g>
         <g id="g756" transform="scale(1,-1)">
            <path d="m 166.328,-552.84 c 4.379,1.152 10.531,2.66 15.215,3.508 0.41,-0.09 0.828,-0.016 0.324,-0.082" style="fill:none;stroke:#000000;stroke-width:2.61538;stroke-linecap:round;stroke-linejoin:round;stroke-miterlimit:10;stroke-dasharray:none;stroke-opacity:1" id="path758" />
         </g>
         <g id="g760" transform="scale(1,-1)">
            <path d="m 181.785,-549.477 c 0.617,-0.289 4.262,-1.171 5.879,-1.617 2.414,-0.617 3.664,-1.539 5.598,-3.058 1.73,-1.844 4.207,-3.438 5.847,-4.727 0.52,-0.672 2.778,-1.914 2.094,-1.824 0.121,-0.027 1.961,-2.043 2.078,-2.02" style="fill:none;stroke:#000000;stroke-width:2.61538;stroke-linecap:round;stroke-linejoin:round;stroke-miterlimit:10;stroke-dasharray:none;stroke-opacity:1" id="path762" />
         </g>
         <g id="g764" transform="scale(1,-1)">
            <path d="m 165.223,-553.328 c 0.347,-0.356 3.468,-3.75 4.457,-4.734 3.398,-2.028 5.836,-5.653 9.59,-7.547 3.355,-2.969 6.449,-5.567 10.074,-8.129 1.703,-1.442 3.515,-2.332 4.812,-3.567 0.782,-0.203 3.102,-3.238 3.379,-3.691 0.899,-0.289 0.883,-0.566 1.281,-0.602" style="fill:none;stroke:#000000;stroke-width:2.61538;stroke-linecap:round;stroke-linejoin:round;stroke-miterlimit:10;stroke-dasharray:none;stroke-opacity:1" id="path766" />
         </g>
         <g id="g768" transform="scale(1,-1)">
            <path d="m 206.984,-580.41 c -0.711,-0.695 -2.656,-0.094 -3.554,-1.172 0.285,0.027 -2.418,-2.188 -3.614,-3.332 -1.707,-1.313 -1.203,-4.106 -3.289,-4.695 -0.308,-0.77 -0.605,-0.707 -0.582,-0.703" style="fill:none;stroke:#000000;stroke-width:2.61538;stroke-linecap:round;stroke-linejoin:round;stroke-miterlimit:10;stroke-dasharray:none;stroke-opacity:1" id="path770" />
         </g>
         <g id="g772" transform="scale(1,-1)">
            <path d="m 198.98,-583.469 c 0.356,0.949 -2.425,-1.09 -3.574,-1.761 -2.488,-1.032 -6.543,-4.188 -7.691,-4.907 0.469,-0.004 -1.762,-1.093 -1.879,-1.086" style="fill:none;stroke:#000000;stroke-width:2.61538;stroke-linecap:round;stroke-linejoin:round;stroke-miterlimit:10;stroke-dasharray:none;stroke-opacity:1" id="path774" />
         </g>
         <g id="g776" transform="scale(1,-1)">
            <path d="m 185.969,-591.453 c 2.293,-0.324 8.23,-0.262 10,-1.246 -0.348,0.058 0.051,-0.098 -0.117,0.023" style="fill:none;stroke:#000000;stroke-width:2.61538;stroke-linecap:round;stroke-linejoin:round;stroke-miterlimit:10;stroke-dasharray:none;stroke-opacity:1" id="path778" />
         </g>
         <g id="g780" transform="scale(1,-1)">
            <path d="m 91.473,-530.16 c -0.2,0.933 -5.946,1.515 -8.024,2.074 -0.894,-0.289 -0.652,0.027 -1.469,-0.207" style="fill:none;stroke:#000000;stroke-width:2.61538;stroke-linecap:round;stroke-linejoin:round;stroke-miterlimit:10;stroke-dasharray:none;stroke-opacity:1" id="path782" />
         </g>
         <g id="g784" transform="scale(1,-1)">
            <path d="m 27.922,-538.305 c 19.028327,4.72337 37.711147,7.03041 55.527,10.219" style="fill:none;stroke:#000000;stroke-width:2.61538;stroke-linecap:round;stroke-linejoin:round;stroke-miterlimit:10;stroke-dasharray:none;stroke-opacity:1" id="path786" sodipodi:nodetypes="cc" />
         </g>
         <g id="g788" transform="scale(1,-1)">
            <path d="m 27.402,-538.879 c 0.754,0.672 -0.82,-0.621 -1.656,-1.953 -1.773,-2.785 -1.141,-7.5 -1.426,-11.492 l 0.614,-95.813 c -0.403,-0.23 0.035,-3.562 -0.348,-3.476 0.207,-0.063 0.176,-0.106 0.102,-0.039 0.101,-0.051 -0.114,0.054 0.058,-0.024 -0.086,-0.039 -0.129,-0.066 -0.148,-0.078" style="fill:none;stroke:#000000;stroke-width:2.61538;stroke-linecap:round;stroke-linejoin:round;stroke-miterlimit:10;stroke-dasharray:none;stroke-opacity:1" id="path790" />
         </g>
         <g id="g792" transform="scale(1,-1)">
            <path d="m 24.648,-652.262 c -0.746,0.594 0.477,-4.367 0.731,-5.406 0.855,-1.887 1.871,-4.43 2.023,-3.867 3.164,-1.738 8.45,-2.379 12.293,-2.375 -0.121,-0.07 0.063,-0.156 0.66,-0.414 l -0.003,0.019" style="fill:none;stroke:#000000;stroke-width:2.61538;stroke-linecap:round;stroke-linejoin:round;stroke-miterlimit:10;stroke-dasharray:none;stroke-opacity:1" id="path794" />
         </g>
         <g id="g796" transform="scale(1,-1)">
            <path d="m 42.25,-544.523 c -0.59,-0.785 -1.273,-3.223 -1.289,-4.622 -0.324,-2.953 -0.82,-5.507 -0.906,-8.515 0.668,-7.289 -1.621,-14.539 -0.715,-21.863 1.148932,-22.64871 -1.357949,-46.03421 0.613,-67.809 0.164,-4.398 1.184,-8.684 1.293,-12.535 0.141,-1.102 -0.207,-2.438 -0.051,-3.496 -0.16,-0.114 0.176,-2.059 0.02,-0.684" style="fill:none;stroke:#000000;stroke-width:2.61538;stroke-linecap:round;stroke-linejoin:round;stroke-miterlimit:10;stroke-dasharray:none;stroke-opacity:1" id="path798" sodipodi:nodetypes="cccccccc" />
         </g>
         <g id="g800" transform="scale(1,-1)">
            <path d="m 39.324,-570.023 c 0.961544,1.70237 0.910608,3.76597 1.675956,5.55596 0.623618,1.47874 1.737901,2.72627 2.010705,4.35992 0.446828,1.84204 0.774892,3.72187 1.431722,5.50209 0.272062,1.88364 0.43429,3.86083 1.581206,5.45919 0.84295,1.49125 1.737741,3.04636 3.521536,3.53849 1.532969,0.67604 3.242987,0.99818 4.630875,1.97435" style="fill:none;stroke:#000000;stroke-width:2.61538;stroke-linecap:round;stroke-linejoin:round;stroke-miterlimit:10;stroke-dasharray:none;stroke-opacity:1" id="path802" />
         </g>
         <g id="g804" transform="scale(1,-1)">
            <path d="m 42.25,-544.523 c 0.613,0.75 3.648,0.804 5.137,1.468 5.633,1.207 10.949,2.867 16.336,3.617 5.3,1.493 10.949,1.266 15.5,2.977 3.711,1.074 7.8,1.699 11.109,2.527 -0.008,0.016 -0.488,0.063 0.082,0.008" style="fill:none;stroke:#000000;stroke-width:2.61538;stroke-linecap:round;stroke-linejoin:round;stroke-miterlimit:10;stroke-dasharray:none;stroke-opacity:1" id="path806" />
         </g>
         <g id="g808" transform="scale(1,-1)">
            <path d="m 54.84,-543.766 c 4.887,-0.382 12.187,-1.961 16.871,-2.711" style="fill:none;stroke:#000000;stroke-width:2.61538;stroke-linecap:round;stroke-linejoin:round;stroke-miterlimit:10;stroke-dasharray:none;stroke-opacity:1" id="path810" />
         </g>
         <g id="g812" transform="scale(1,-1)">
            <path d="m 72.109,-546.648 c 0,0 2.27,0.691 2.387,1.046 5.184,1.286 9.719,3.071 14.301,3.575 -0.223,-0.078 -0.129,0.058 -0.098,0.027" style="fill:none;stroke:#000000;stroke-width:2.61538;stroke-linecap:round;stroke-linejoin:round;stroke-miterlimit:10;stroke-dasharray:none;stroke-opacity:1" id="path814" />
         </g>
         <g id="g816" transform="scale(1,-1)">
            <path d="m 48.16,-546.754 86.156,-12.367" style="fill:none;stroke:#000000;stroke-width:2.61538;stroke-linecap:round;stroke-linejoin:round;stroke-miterlimit:10;stroke-dasharray:none;stroke-opacity:1" id="path818" />
         </g>
         <g id="g820" transform="scale(1,-1)">
            <path d="m 134.797,-559.586 c 0.629,-0.144 2.805,-3.172 4.238,-4.578 2.172,-2.301 4.153,-3.918 6.317,-6.524 3.925,-4.316 9.218,-8.773 14.035,-12.402 4.449,-3.457 8.953,-6.476 13.828,-9.121 4.187,-2.293 9.566,-3.492 13.289,-4.848 2.285,-0.129 1.676,-0.222 3.234,-0.496" style="fill:none;stroke:#000000;stroke-width:2.61538;stroke-linecap:round;stroke-linejoin:round;stroke-miterlimit:10;stroke-dasharray:none;stroke-opacity:1" id="path822" />
         </g>
         <g id="g824" transform="scale(1,-1)">
            <path d="m 49.215,-551.852 c 5.73,-0.742 12.906,-1.265 19.137,-1.929 10.738,-1.059 21.164,-2.594 31.957,-3.367 9.019,-0.766 17.871,-3.258 26.285,-4.875 1.445,-0.387 2.652,-0.879 2.265,-0.789" style="fill:none;stroke:#000000;stroke-width:2.61538;stroke-linecap:round;stroke-linejoin:round;stroke-miterlimit:10;stroke-dasharray:none;stroke-opacity:1" id="path826" />
         </g>
         <g id="g828" transform="scale(1,-1)">
            <path d="m 128.906,-562.984 c 1.727,-1.032 4.719,-5.192 7.414,-7.032 3.414,-2.945 7.266,-5.812 10.653,-8.636 4.867,-3.293 8.683,-8.094 14.125,-11.036 4.5,-3.164 9.007,-5.878 13.73,-7.636 3.945,-1.035 7.484,-2.696 11.406,-3.188 1.516,-0.101 3.024,-0.566 3.828,-0.855" style="fill:none;stroke:#000000;stroke-width:2.61538;stroke-linecap:round;stroke-linejoin:round;stroke-miterlimit:10;stroke-dasharray:none;stroke-opacity:1" id="path830" />
         </g>
         <g id="g832" transform="scale(1,-1)">
            <path d="m 176.379,-604.059 c -0.414,0.532 -0.723,0.028 -1.336,-0.8 -0.047,-0.793 -1.121,-3.317 1.156,-3.079 1.711,-0.054 5.531,2.688 2.172,3.512 -1.621,0.426 -2.398,0.477 -2.648,0.324" style="fill:none;stroke:#000000;stroke-width:2.61538;stroke-linecap:round;stroke-linejoin:round;stroke-miterlimit:10;stroke-dasharray:none;stroke-opacity:1" id="path834" />
         </g>
         <g id="g836" transform="scale(1,-1)">
            <path d="m 79.336,-559.324 c 0.785,-0.66 -1.57,-5.785 -1.188,-8.035 -0.16,-1.664 -0.625,-3.727 -0.527,-4.465 0.024,-0.27 -0.059,-0.481 -0.141,-0.61" style="fill:none;stroke:#000000;stroke-width:2.61538;stroke-linecap:round;stroke-linejoin:round;stroke-miterlimit:10;stroke-dasharray:none;stroke-opacity:1" id="path838" />
         </g>
         <g id="g840" transform="scale(1,-1)">
            <path d="m 77.25,-573.137 c 6.848,0.008 14.492,-1.347 21.105,-2.668 4.411,-1.332 8.942,-1.367 12.141,-2.515 0.18,0.101 1.27,0.031 1.332,1.57 1.445,2.594 0.059,6.445 1.766,9.113 0.109,1 0.515,2.227 0.293,1.793" style="fill:none;stroke:#000000;stroke-width:2.61538;stroke-linecap:round;stroke-linejoin:round;stroke-miterlimit:10;stroke-dasharray:none;stroke-opacity:1" id="path842" />
         </g>
         <g id="g844" transform="scale(1,-1)">
            <path d="m 79.645,-559.238 c -0.75,0.972 2.839,-0.543 3.976,-0.168 9.067,-1.782 19.184,-2.614 27.477,-4.864 0.648,-0.503 3.453,-1.07 2.425,-0.968" style="fill:none;stroke:#000000;stroke-width:2.61538;stroke-linecap:round;stroke-linejoin:round;stroke-miterlimit:10;stroke-dasharray:none;stroke-opacity:1" id="path846" />
         </g>
         <g id="g848" transform="scale(1,-1)">
            <path d="m 124.43,-572.93 c 1.539,0.246 -1.172,-0.258 -0.606,-1.215 -0.23,-1.984 4.949,-2.269 2.707,-0.043 -0.566,0.782 -1.906,0.899 -2.461,0.805" style="fill:none;stroke:#000000;stroke-width:2.61538;stroke-linecap:round;stroke-linejoin:round;stroke-miterlimit:10;stroke-dasharray:none;stroke-opacity:1" id="path850" />
         </g>
         <g id="g852" transform="scale(1,-1)">
            <path d="m 71.309,-562.996 c 0.027,0.633 -0.543,-0.652 0.211,-1.871 2.058,-0.949 2.238,1.894 -0.274,1.996" style="fill:none;stroke:#000000;stroke-width:2.61538;stroke-linecap:round;stroke-linejoin:round;stroke-miterlimit:10;stroke-dasharray:none;stroke-opacity:1" id="path854" />
         </g>
         <g id="g856" transform="scale(1,-1)">
            <path d="m 49.426,-556.414 c -1.145,1.418 -1.586,-4.25 1.472,-3.004 1.856,0.367 -2.078,2.621 -1.503,1.688" style="fill:none;stroke:#000000;stroke-width:2.61538;stroke-linecap:round;stroke-linejoin:round;stroke-miterlimit:10;stroke-dasharray:none;stroke-opacity:1" id="path858" />
         </g>
         <g id="g860" transform="scale(1,-1)">
            <path d="m 65.941,-554.77 c 0.664,-4.75 0.555,-10.949 -1.621,-15.058 -0.961,-1.707 -1.718,-3.676 -1.82,-4.77 0.199,0.379 -0.117,-1.238 0.164,-0.785 -0.105,0.024 -0.109,0.078 -0.207,0.11" style="fill:none;stroke:#000000;stroke-width:2.61538;stroke-linecap:round;stroke-linejoin:round;stroke-miterlimit:10;stroke-dasharray:none;stroke-opacity:1" id="path862" />
         </g>
         <g id="g864" transform="scale(1,-1)">
            <path d="m 53.203,-574.148 c 8.836,-0.75 17.563,-2.286 26.348,-3.5 9.523,-1.602 19.828,-1.512 29.281,-4.586 7.395,-1.981 15.023,-4.422 21.012,-8.387 4.64,-2.172 8.828,-5.281 13.715,-6.883 6.468,-3.07 13.203,-5.582 20.171,-7.707 5.368,-1.672 10.43,-1.348 14.954,-4.562 2.976,-1.524 6.523,-2.2 9.363,-3.696 4.789,-1.855 9.785,-1.101 14.625,-1.722 0.25,-0.243 0.605,-0.231 1.484,-0.293" style="fill:none;stroke:#000000;stroke-width:2.61538;stroke-linecap:round;stroke-linejoin:round;stroke-miterlimit:10;stroke-dasharray:none;stroke-opacity:1" id="path866" />
         </g>
         <g id="g868" transform="scale(1,-1)">
            <path d="m 137.828,-575.473 c 0.328,-0.082 -1.258,-2.48 -1.531,-4.593 -2.277,-2.129 -4.203,-8.075 -6.637,-9.735" style="fill:none;stroke:#000000;stroke-width:2.61538;stroke-linecap:round;stroke-linejoin:round;stroke-miterlimit:10;stroke-dasharray:none;stroke-opacity:1" id="path870" />
         </g>
         <g id="g872" transform="scale(1,-1)">
            <path d="m 97.859,-588.441 c 7.301,-0.883 14.278,-2.094 21.579,-2.125 2.124,-0.895 6.437,-3.219 8.058,-3.618 0.883,0.028 -2.144,1.461 -2.18,1.477" style="fill:none;stroke:#000000;stroke-width:2.61538;stroke-linecap:round;stroke-linejoin:round;stroke-miterlimit:10;stroke-dasharray:none;stroke-opacity:1" id="path874" />
         </g>
         <g id="g876" transform="scale(1,-1)">
            <path d="m 64.133,-584.023 c 0.762,1.07 5.355,-1.043 7.445,-0.715 8.492,-1.106 18.438,-3.282 26.004,-3.528 0.152,0.016 0.039,-0.07 0.137,-0.086" style="fill:none;stroke:#000000;stroke-width:2.61538;stroke-linecap:round;stroke-linejoin:round;stroke-miterlimit:10;stroke-dasharray:none;stroke-opacity:1" id="path878" />
         </g>
         <g id="g880" transform="scale(1,-1)">
            <path d="m 64.207,-584.559 c 0.373794,-2.50826 1.461358,-8.45897 1.363,-12.226" style="fill:none;stroke:#000000;stroke-width:2.61538;stroke-linecap:round;stroke-linejoin:round;stroke-miterlimit:10;stroke-dasharray:none;stroke-opacity:1" id="path882" sodipodi:nodetypes="cc" />
         </g>
         <g id="g884" transform="scale(1,-1)">
            <path d="m 65.57,-596.785 c 4.214809,-2.13265 9.031887,-2.75785 13.116761,-5.21311 10.433757,-4.49199 21.378549,-7.72376 32.520189,-9.90689 4.51226,-2.08516 9.44652,0.37605 10.90262,5.06721 1.19243,3.38432 2.23193,6.90418 4.20412,9.91907 0.31722,0.88685 0.49554,1.87506 1.16331,2.58672" style="fill:none;stroke:#000000;stroke-width:2.61538;stroke-linecap:round;stroke-linejoin:round;stroke-miterlimit:10;stroke-dasharray:none;stroke-opacity:1" id="path886" />
         </g>
         <g id="g888" transform="scale(1,-1)">
            <path d="m 105.828,-597.461 c 0.70188,-0.60059 -0.0629,-1.40295 -0.255,-2.04866 -0.31582,-1.15881 -0.51652,-2.35196 -0.96129,-3.47508 -0.59855,-1.67309 -1.36762,-3.27712 -2.05673,-4.91326 0.063,-0.47099 -0.41141,-1.47871 -0.80103,-0.602" style="fill:none;stroke:#000000;stroke-width:2.61538;stroke-linecap:round;stroke-linejoin:round;stroke-miterlimit:10;stroke-dasharray:none;stroke-opacity:1" id="path890" />
         </g>
         <g id="g892" transform="scale(1,-1)">
            <path d="m 40.672,-648.391 162.449,-34.125 c -0.336,0.032 2.531,-0.511 1.992,-0.14" style="fill:none;stroke:#000000;stroke-width:2.61538;stroke-linecap:round;stroke-linejoin:round;stroke-miterlimit:10;stroke-dasharray:none;stroke-opacity:1" id="path894" />
         </g>
         <g id="g896" transform="scale(1,-1)">
            <path d="m 147.977,-675.543 c 3.984,0.668 9.386,-1.375 13.769,-2.562 2.375,-0.7 4.504,-1.926 3.113,-4.207 -1.867,-3.036 -6.996,-3.067 -10.332,-2.219 -2.535,0.883 -5.414,1.508 -7.285,2.586 -1.019,0.808 -2.5,2.636 -2.015,3.507 0.1869,1.461 2.75,2.895 2.75,2.895 0,0 -0.02,0.008 0,0" style="fill:none;stroke:#000000;stroke-width:2.61538;stroke-linecap:round;stroke-linejoin:round;stroke-miterlimit:10;stroke-dasharray:none;stroke-opacity:1" id="path898" sodipodi:nodetypes="cccccccc" />
         </g>
         <g id="g900" transform="scale(1,-1)">
            <path d="m 169.477,-697.59 c -0.84,-0.324 -0.497,0.481 -0.18,-1.047 0.965,-1.551 3.605,1.871 0.566,1.879 -1.613,0.688 -1.246,-0.804 -1.433,-1.172" style="fill:none;stroke:#000000;stroke-width:2.61538;stroke-linecap:round;stroke-linejoin:round;stroke-miterlimit:10;stroke-dasharray:none;stroke-opacity:1" id="path902" />
         </g>
         <g id="g904" transform="scale(1,-1)">
            <path d="m 56.242,-672.203 c -0.699,1.738 -0.605,-2.652 0.969,-2.445 3.695,-0.274 -0.277,3.261 -2.113,2.73 -0.532,-0.066 -0.317,-0.258 -0.356,-0.574" style="fill:none;stroke:#000000;stroke-width:2.61538;stroke-linecap:round;stroke-linejoin:round;stroke-miterlimit:10;stroke-dasharray:none;stroke-opacity:1" id="path906" />
         </g>
         <g id="g908" transform="scale(1,-1)">
            <path d="m 40.426,-664.082 c 0.019,-1.574 0.383,-5.301 0.359,-7.625 -0.129,-1.309 -0.499,-4.109 -0.32,-4" style="fill:none;stroke:#000000;stroke-width:2.61538;stroke-linecap:round;stroke-linejoin:round;stroke-miterlimit:10;stroke-dasharray:none;stroke-opacity:1" id="path910" sodipodi:nodetypes="ccc" />
         </g>
         <g id="g912" transform="scale(1,-1)">
            <path d="m 41.918,-675.242 c 10.008,-2.086 20.805,-5.356 31.078,-8.055 9.234,-1.984 18.391,-3.785 27.391,-6.348 12.32,-3.128 24.871,-5.296 37.25,-8.109 13.785,-2.449 27.504,-5.449 40.992,-7.109 5.301,-0.938 9.254,-1.383 14.433,-2.711 5.153,-1.406 10.868,-0.91 15.958,-2.067 -0.02,1.059 -0.145,-0.648 -0.868,0.778" style="fill:none;stroke:#000000;stroke-width:2.61538;stroke-linecap:round;stroke-linejoin:round;stroke-miterlimit:10;stroke-dasharray:none;stroke-opacity:1" id="path914" />
         </g>
         <g id="g916" transform="scale(1,-1)">
            <path d="m 207.121,-691.355 c -0.207,1.347 1.152,-5.11 1.324,-6.672 0.754,-2.989 0.313,-7.809 0.493,-10.188 0.093,0.211 -0.274,-0.004 -0.938,0.602" style="fill:none;stroke:#000000;stroke-width:2.61538;stroke-linecap:round;stroke-linejoin:round;stroke-miterlimit:10;stroke-dasharray:none;stroke-opacity:1" id="path918" />
         </g>
         <g id="g920" transform="scale(1,-1)">
            <path d="m 40.465,-675.707 c -2.735,-1.273 -4.969,-5.355 -7.285,-7.523 -0.453,-1.063 -0.164,-0.911 -1.035,-2.262" style="fill:none;stroke:#000000;stroke-width:2.61538;stroke-linecap:round;stroke-linejoin:round;stroke-miterlimit:10;stroke-dasharray:none;stroke-opacity:1" id="path922" />
         </g>
         <g id="g924" transform="scale(1,-1)">
            <path d="m 32.066,-685.633 c 0.644053,-1.42064 0.716095,-3.0023 0.638821,-4.53382 0.188483,-2.99364 0.389234,-5.98858 0.686175,-8.97418 -0.204128,-0.90996 0.07603,-3.2268 -0.043,-4.105 -0.04277,0.20251 -0.108875,1.73213 -0.137015,1.937" style="fill:none;stroke:#000000;stroke-width:2.61538;stroke-linecap:round;stroke-linejoin:round;stroke-miterlimit:10;stroke-dasharray:none;stroke-opacity:1" id="path926" sodipodi:nodetypes="ccccc" />
         </g>
         <g id="g928" transform="scale(1,-1)">
            <path d="m 33.348,-703.246 c 0.293,-0.211 3.422,-0.781 5.23,-0.863 3.121,-0.438 8.234,-1.485 9.934,-1.938 1.433,-0.465 1.793,-0.344 2.449,-0.746 1.477,-0.492 1.141,-0.187 1.769,-0.519 1.586,-0.661 4.325,-1.672 6.973,-2.036 0.367,-0.199 3.5,-0.464 3.637,-0.769 1.566,-0.645 1.867,-0.727 3.355,-1.328 1.137,-0.149 2.805,-0.883 4.598,-0.379 5.613,0.258 9.148,1.683 14.84,2.816 2.769,0.731 6.055,2.547 8.222,4.012 2.399,1.285 4.196,2.348 6.172,3.371 2.547,1.039 4.336,2.922 6.524,3.574" style="fill:none;stroke:#000000;stroke-width:2.61538;stroke-linecap:round;stroke-linejoin:round;stroke-miterlimit:10;stroke-dasharray:none;stroke-opacity:1" id="path930" />
         </g>
         <g id="g932" transform="scale(1,-1)">
            <path d="m 90.719,-693.152 c 2.543,-1.012 7.449,-1.293 10.511,-2.903 2.356,-1.054 5.075,-1.234 7.223,-1.777 9.168,-1.844 18.774,-2.789 28.246,-5.398 2.598,-0.516 6.461,-1.512 8.735,-1.934 4.32,-0.524 7.265,-1.867 11.875,-2.086 0.64,-0.23 4.019,0.254 4.121,0.102" style="fill:none;stroke:#000000;stroke-width:2.61538;stroke-linecap:round;stroke-linejoin:round;stroke-miterlimit:10;stroke-dasharray:none;stroke-opacity:1" id="path934" />
         </g>
         <g id="g936" transform="scale(1,-1)">
            <path d="m 108.098,-699.574 c 0.086,-1.215 -2.571,-3.367 -3.778,-5.461 -0.761,-1.731 -2.621,-5.195 -2.32,-5.055 0.215,-0.293 -0.008,0.559 0.25,0.84" style="fill:none;stroke:#000000;stroke-width:2.61538;stroke-linecap:round;stroke-linejoin:round;stroke-miterlimit:10;stroke-dasharray:none;stroke-opacity:1" id="path938" />
         </g>
         <g id="g940" transform="scale(1,-1)">
            <path d="m 102,-710.09 c -0.164,-0.609 4.445,-2.137 6.332,-2.472 2.461,-0.668 7.57,-1.708 8.523,-1.579 -0.027,-0.351 0.036,0.266 1.348,1.157 2.527,2.734 7.547,4.234 11.09,5.968 3.387,1.426 6.211,3.016 9.941,2.219 7.387,-0.234 12.395,-6.043 17.383,-10.098 1.184,-2.32 4.059,-3.343 5.36,-4.91 2.211,-2 2.543,-2.492 4.457,-4.804 -0.289,0.421 0.238,-0.836 0.261,-0.45 0.45,0.446 3.61044,-1.56709 2.21144,-0.43409" style="fill:none;stroke:#000000;stroke-width:2.61538;stroke-linecap:round;stroke-linejoin:round;stroke-miterlimit:10;stroke-dasharray:none;stroke-opacity:1" id="path942" sodipodi:nodetypes="ccccccccccc" />
         </g>
         <g id="g944" transform="scale(1,-1)">
            <path d="m 171.934,-708.469 c 0.347,1.098 -1.047,-1.109 -1.246,-2.152 -1.672,-2.141 -2.211,-4.305 -1.938,-6.828 -0.309,-2.449 0.902,-4.246 0.637,-6.696 0.23,-1.683 0.687,-3.726 1.941,-5.25 0.051,-0.753 1.496,-2.624 0.984,-1.765" style="fill:none;stroke:#000000;stroke-width:2.61538;stroke-linecap:round;stroke-linejoin:round;stroke-miterlimit:10;stroke-dasharray:none;stroke-opacity:1" id="path946" sodipodi:nodetypes="cccccc" />
         </g>
         <g id="g948" transform="scale(1,-1)">
            <path d="m 172.312,-731.16 c 0.598,-0.121 4.532,-0.629 6.032,-1.324 2.547,-1.094 4.594,-1.371 6.707,-2.004" style="fill:none;stroke:#000000;stroke-width:2.61538;stroke-linecap:round;stroke-linejoin:round;stroke-miterlimit:10;stroke-dasharray:none;stroke-opacity:1" id="path950" sodipodi:nodetypes="ccc" />
         </g>
         <g id="g952" transform="scale(1,-1)">
            <path d="m 185.219,-734.723 c 0,0 6.062,0.727 8.129,1.723 1.613,0.383 5.8,1.992 6.386,1.902" style="fill:none;stroke:#000000;stroke-width:2.61538;stroke-linecap:round;stroke-linejoin:round;stroke-miterlimit:10;stroke-dasharray:none;stroke-opacity:1" id="path954" sodipodi:nodetypes="ccc" />
         </g>
         <g id="g956" transform="scale(1,-1)">
            <path d="m 172.871,-710.781 c 2.473,-0.899 7.91,-2.016 11.055,-3.102" style="fill:none;stroke:#000000;stroke-width:2.61538;stroke-linecap:round;stroke-linejoin:round;stroke-miterlimit:10;stroke-dasharray:none;stroke-opacity:1" id="path958" />
         </g>
         <g id="g960" transform="scale(1,-1)">
            <path d="m 196.184,-708.562 c -0.118,-1.098 -3.614,-1.704 -4.579,-3.141 -2.183,-1.203 -3.8,-3.094 -4.945,-4.567 -0.668,-0.722 -0.652,-3.66 -0.742,-3.996 0.102,-0.043 -0.207,0.09 -0.645,0.278" style="fill:none;stroke:#000000;stroke-width:2.61538;stroke-linecap:round;stroke-linejoin:round;stroke-miterlimit:10;stroke-dasharray:none;stroke-opacity:1" id="path962" />
         </g>
         <g id="g964" transform="scale(1,-1)">
            <path d="m 184.629,-720.801 c 1.668,0.223 4.906,1.696 5.004,-0.41 1.031,-1.336 -0.438,-3.922 0.019,-4.93 0.145,0.082 -1.328,-1.496 -3.691,-1.367 -2.555,-0.023 -1.223,-1.199 -1.656,1.356 -0.66,2.211 0.324,4.363 0.265,6.07" style="fill:none;stroke:#000000;stroke-width:2.61538;stroke-linecap:round;stroke-linejoin:round;stroke-miterlimit:10;stroke-dasharray:none;stroke-opacity:1" id="path966" />
         </g>
         <g id="g968" transform="scale(1,-1)">
            <path d="m 191.605,-711.703 c 0.121,-0.699 6.461,-1.004 7.817,-1.942 3.828,-1.015 11.562,-3.871 12.965,-3.988 0.226,-0.109 -0.274,0.012 -0.297,0.024" style="fill:none;stroke:#000000;stroke-width:2.61538;stroke-linecap:round;stroke-linejoin:round;stroke-miterlimit:10;stroke-dasharray:none;stroke-opacity:1" id="path970" sodipodi:nodetypes="cccc" />
         </g>
         <g id="g972" transform="scale(1,-1)">
            <path d="m 191.668,-729.508 c 0.394,-0.328 4.422,-0.676 6.25,-1.015 5.152,-0.801 10.586,-1.629 15.16,-3.473 4.051,-0.918 9.207,-2.379 12.063,-2.902 0.972,-0.102 1.699,-0.907 0.605,-0.247 l 5.246,-1.691" style="fill:none;stroke:#000000;stroke-width:2.61538;stroke-linecap:round;stroke-linejoin:round;stroke-miterlimit:10;stroke-dasharray:none;stroke-opacity:1" id="path974" />
         </g>
         <g id="g976" transform="scale(1,-1)">
            <path d="m 218.08364,-720.79773 c -0.43,0.039 -4.17364,-1.64027 -3.87264,-3.74927 0.078,-2.027 1.262,-5.723 2.848,-7.086 0.945,-1.027 0.097,-0.019 0.218,-0.215" style="fill:none;stroke:#000000;stroke-width:2.61538;stroke-linecap:round;stroke-linejoin:round;stroke-miterlimit:10;stroke-dasharray:none;stroke-opacity:1" id="path978" sodipodi:nodetypes="cccc" />
         </g>
         <g id="g980" transform="scale(1,-1)">
            <path d="m 209.418,-720.316 c 0.242,-0.68 -1.324,-2.414 -1.563,-3.844 -0.472,-2.379 3.083,-7.539 4.418,-9.395" style="fill:none;stroke:#000000;stroke-width:2.61538;stroke-linecap:round;stroke-linejoin:round;stroke-miterlimit:10;stroke-dasharray:none;stroke-opacity:1" id="path982" />
         </g>
         <g id="g984" transform="scale(1,-1)">
            <path d="m 72.477,-689.559 c -0.508,0.121 -1.075,-0.632 -1.692,-2.007 -0.445,-2.118 -1.238,-5.321 1.18,-6.989 1.586,-2.433 5.453,-1.984 6.515,0.27 1.629,2.328 0.004,5.621 -1.453,6.734 -1.222,2.262 -2.313661,2.31331 -4.55,1.992" style="fill:none;stroke:#000000;stroke-width:2.61538;stroke-linecap:round;stroke-linejoin:round;stroke-miterlimit:10;stroke-dasharray:none;stroke-opacity:1" id="path986" sodipodi:nodetypes="cccccc" />
         </g>
         <g id="g988" transform="scale(1,-1)">
            <path d="m 61.648,-684.977 c -1.191,0.418 -3.101,-1.582 -3.664,-3.148 -0.41,-3.086 2.707,-8.637 6.168,-6.547 2.629,0.805 3.407,4.188 1.965,6.203 -1.664,3.18 -2.988,4.09 -6.355,3.024" style="fill:none;stroke:#000000;stroke-width:2.61538;stroke-linecap:round;stroke-linejoin:round;stroke-miterlimit:10;stroke-dasharray:none;stroke-opacity:1" id="path990" />
         </g>
         <g id="g992" transform="scale(1,-1)">
            <path d="m 66.863,-699.965 c -0.078,0.653 -2.644,-1.601 -2.039,-2.652 -0.109,-2.703 1.555,-4.672 3.309,-6.516 2.832,-1.703 8.355,2.176 5.629,5.945 -1.68,3.118 -4.254,3.446 -6.899,3.223" style="fill:none;stroke:#000000;stroke-width:2.61538;stroke-linecap:round;stroke-linejoin:round;stroke-miterlimit:10;stroke-dasharray:none;stroke-opacity:1" id="path994" sodipodi:nodetypes="ccccc" />
         </g>
         <g id="g996" transform="scale(1,-1)">
            <path d="m 57.023,-695.879 c -2.953,1.008 -6.152,-3.066 -4.992,-5.824 1.102,-3.004 4.762,-6.371 8.207,-3.84 3.391,1.816 0.877247,8.14165 -1.934753,9.08665 -1.789,1.539 -4.912247,-0.89865 -4.912247,-0.89865" style="fill:none;stroke:#000000;stroke-width:2.61538;stroke-linecap:round;stroke-linejoin:round;stroke-miterlimit:10;stroke-dasharray:none;stroke-opacity:1" id="path998" sodipodi:nodetypes="ccccc" />
         </g>
         <g id="g1000" transform="scale(1,-1)">
            <path d="m 90.719,-693.152 c 0.539,0.555 -3.953,-4.813 -5.731,-6.516 -1.875,-1.809 -3.445,-4.5 -4.976,-6.754 -1.271953,-1.78896 -0.26644,-1.94838 -2.714232,-4.21674" style="fill:none;stroke:#000000;stroke-width:2.61538;stroke-linecap:round;stroke-linejoin:round;stroke-miterlimit:10;stroke-dasharray:none;stroke-opacity:1" id="path1002" sodipodi:nodetypes="cccc" />
         </g>
      </g>
   </g>
</svg>
