<?xml version="1.0" encoding="UTF-8" standalone="no"?>
<!-- Created by Ashley Blewer - This work is licensed under a Creative Commons Attribution 4.0 International License -->

<svg width="544" height="480" viewBox="0 0 143.93334 127" version="1.1" id="svg2490" inkscape:version="1.1.2 (08b2f3d93c, 2022-04-05)" sodipodi:docname="2003-hdv-2.svg"
   xmlns:inkscape="http://www.inkscape.org/namespaces/inkscape"
   xmlns:sodipodi="http://sodipodi.sourceforge.net/DTD/sodipodi-0.dtd"
   xmlns="http://www.w3.org/2000/svg"
   xmlns:svg="http://www.w3.org/2000/svg">
   <sodipodi:namedview id="namedview2492" pagecolor="#ffffff" bordercolor="#666666" borderopacity="1.0" inkscape:pageshadow="2" inkscape:pageopacity="0.0" inkscape:pagecheckerboard="0" inkscape:document-units="mm" showgrid="false" units="px" inkscape:zoom="0.90583674" inkscape:cx="279.29978" inkscape:cy="194.84747" inkscape:window-width="1848" inkscape:window-height="1136" inkscape:window-x="72" inkscape:window-y="27" inkscape:window-maximized="1" inkscape:current-layer="layer1" />
   <defs id="defs2487" />
   <g inkscape:label="Layer 1" inkscape:groupmode="layer" id="layer1">
      <g id="g1827" transform="matrix(0.25858301,0,0,0.25858301,-165.10101,-8.0912852)">
         <g id="g1612" transform="scale(1,-1)">
            <path d="m 762.02,-412.672 c -5.265,3.906 -9.797,10.047 -13.547,15.348" style="fill:none;stroke:#000000;stroke-width:2.61538;stroke-linecap:round;stroke-linejoin:round;stroke-miterlimit:10;stroke-dasharray:none;stroke-opacity:1" id="path1614" sodipodi:nodetypes="cc" />
         </g>
         <g id="g1616" transform="scale(1,-1)">
            <path d="m 748.246,-397.441 c -0.82,43.32 -3.844,86.558 -5.555,129.828 -0.57,64.988 -3.414,194.945 -3.414,194.945 -0.062,2.375 1.379,5.285 1.52,7.656" style="fill:none;stroke:#000000;stroke-width:2.61538;stroke-linecap:round;stroke-linejoin:round;stroke-miterlimit:10;stroke-dasharray:none;stroke-opacity:1" id="path1618" sodipodi:nodetypes="cccc" />
         </g>
         <g id="g1620" transform="scale(1,-1)">
            <path d="m 740.797,-65.012 c 3.613,-3.461 8.828,-4.008 13.191,-6.09 0.742,-0.453 2.688,-0.105 2.41,-1.445" style="fill:none;stroke:#000000;stroke-width:2.61538;stroke-linecap:round;stroke-linejoin:round;stroke-miterlimit:10;stroke-dasharray:none;stroke-opacity:1" id="path1622" />
         </g>
         <g id="g1624" transform="scale(1,-1)">
            <path d="m 755.398,-73.07 c 2.297,-99.129 2.766,-198.293 5.594,-297.41 0.153,-13.825 0.313,-27.665 1.391,-41.458" style="fill:none;stroke:#000000;stroke-width:2.61538;stroke-linecap:round;stroke-linejoin:round;stroke-miterlimit:10;stroke-dasharray:none;stroke-opacity:1" id="path1626" />
         </g>
         <g id="g1628" transform="scale(1,-1)">
            <path d="m 740.797,-65.012 c 73.562,1.918 204.66,8.258 218.176,8.59" style="fill:none;stroke:#000000;stroke-width:2.61538;stroke-linecap:round;stroke-linejoin:round;stroke-miterlimit:10;stroke-dasharray:none;stroke-opacity:1" id="path1630" sodipodi:nodetypes="cc" />
         </g>
         <g id="g1632" transform="scale(1,-1)">
            <path d="m 756.398,-72.547 c 0,0 236.946,10.356 237.063,10.399" style="fill:none;stroke:#000000;stroke-width:2.61538;stroke-linecap:round;stroke-linejoin:round;stroke-miterlimit:10;stroke-dasharray:none;stroke-opacity:1" id="path1634" sodipodi:nodetypes="cc" />
         </g>
         <g id="g1636" transform="scale(1,-1)">
            <path d="m 959.254,-57.277 c 2.246,-0.516 4.551,-0.75 6.766,-1.371 2.402,-0.774 4.675,-1.977 7.203,-2.329 3.3688,-0.249019 7.65873,-1.272277 6.601,-1.41" style="fill:none;stroke:#000000;stroke-width:2.61538;stroke-linecap:round;stroke-linejoin:round;stroke-miterlimit:10;stroke-dasharray:none;stroke-opacity:1" id="path1638" sodipodi:nodetypes="cccc" />
         </g>
         <g id="g1640" transform="scale(1,-1)">
            <path d="m 959.023,-56.609 c 0.493,0.265 2.098,0.011 2.754,0.117 2.071,0.308 4.141,-0.199 6.192,-0.422 1.129,-0.285 -0.024,-1.465 -0.699,-0.953" style="fill:none;stroke:#000000;stroke-width:2.61538;stroke-linecap:round;stroke-linejoin:round;stroke-miterlimit:10;stroke-dasharray:none;stroke-opacity:1" id="path1642" />
         </g>
         <g id="g1644" transform="scale(1,-1)">
            <path d="m 993.344,-62.191 -2.332,-56.692 c -0.93,-2.433 -5.336,-1.253 -6.774,-3.101" style="fill:none;stroke:#000000;stroke-width:2.61538;stroke-linecap:round;stroke-linejoin:round;stroke-miterlimit:10;stroke-dasharray:none;stroke-opacity:1" id="path1646" sodipodi:nodetypes="ccc" />
         </g>
         <g id="g1648" transform="scale(1,-1)">
            <path d="m 984.238,-121.984 -0.254,-41.532 c 0.336,-1.105 -0.433,-2 -0.296,-2.578" style="fill:none;stroke:#000000;stroke-width:2.61538;stroke-linecap:round;stroke-linejoin:round;stroke-miterlimit:10;stroke-dasharray:none;stroke-opacity:1" id="path1650" sodipodi:nodetypes="ccc" />
         </g>
         <g id="g1652" transform="scale(1,-1)">
            <path d="m 983.688,-166.094 -4.711,-173.394" style="fill:none;stroke:#000000;stroke-width:2.61538;stroke-linecap:round;stroke-linejoin:round;stroke-miterlimit:10;stroke-dasharray:none;stroke-opacity:1" id="path1654" sodipodi:nodetypes="cc" />
         </g>
         <g id="g1656" transform="scale(1,-1)">
            <path d="m 979.828,-338.574 c 2.867,-0.696 8.649,-0.254 8,-4.66 0.199,-4.774 0.047,-9.543 -0.211,-14.305 0.141,-2.887 -0.078,-5.719 -0.031,-8.606 -0.133,-4.164 -0.234,-8.371 -1.008,-12.449 -0.379,-3.797 -4.137,-4.918 -7.465,-4.511 0.067,0.117 -1.859,-0.106 -1.191,-0.02" style="fill:none;stroke:#000000;stroke-width:2.61538;stroke-linecap:round;stroke-linejoin:round;stroke-miterlimit:10;stroke-dasharray:none;stroke-opacity:1" id="path1658" />
         </g>
         <g id="g1660" transform="scale(1,-1)">
            <path d="m 977.707,-382.516 c -0.617,6.817 -0.086,16.102 -0.305,22.926 0.203,6.235 1.575,20.102 1.575,20.102" style="fill:none;stroke:#000000;stroke-width:2.61538;stroke-linecap:round;stroke-linejoin:round;stroke-miterlimit:10;stroke-dasharray:none;stroke-opacity:1" id="path1662" sodipodi:nodetypes="ccc" />
         </g>
         <g id="g1664" transform="scale(1,-1)">
            <path d="m 762.02,-412.672 c 5.78554,0.41041 123.531,17.07 123.531,17.07" style="fill:none;stroke:#000000;stroke-width:2.61538;stroke-linecap:round;stroke-linejoin:round;stroke-miterlimit:10;stroke-dasharray:none;stroke-opacity:1" id="path1666" sodipodi:nodetypes="cc" />
         </g>
         <g id="g1668" transform="scale(1,-1)">
            <path d="m 918.55462,-392.50513 60.21138,4.62213 c 2.863,0.903 4.937,4.41 7.101,6.36" style="fill:none;stroke:#000000;stroke-width:2.61538;stroke-linecap:round;stroke-linejoin:round;stroke-miterlimit:10;stroke-dasharray:none;stroke-opacity:1" id="path1670" sodipodi:nodetypes="ccc" />
         </g>
         <g id="g1672" transform="scale(1,-1)">
            <path d="m 980.293,-307.398 c 8.141,-2.946 7.992,9.011 7.852,14.726 1.82,46.684 4.437,93.426 3.761,140.141 0.344,3.101 -4.949,5.449 -7.418,5.886" style="fill:none;stroke:#000000;stroke-width:2.61538;stroke-linecap:round;stroke-linejoin:round;stroke-miterlimit:10;stroke-dasharray:none;stroke-opacity:1" id="path1674" />
         </g>
         <g id="g1676" transform="scale(1,-1)">
            <path d="m 741.57363,-173.80212 c 0.692,-0.011 4.06737,-2.63588 5.03937,-3.15488 1.207,-0.59 2.285,-1.34 3.407,-2.078 0.484,-0.172 6.761,-3.078 7.234,-3.121" style="fill:none;stroke:#000000;stroke-width:2.61538;stroke-linecap:round;stroke-linejoin:round;stroke-miterlimit:10;stroke-dasharray:none;stroke-opacity:1" id="path1678" sodipodi:nodetypes="cccc" />
         </g>
         <g id="g1680" transform="scale(1,-1)">
            <path d="m 757.254,-182.156 c 0,0 146.992,10.301 216.164,13.758" style="fill:none;stroke:#000000;stroke-width:2.61538;stroke-linecap:round;stroke-linejoin:round;stroke-miterlimit:10;stroke-dasharray:none;stroke-opacity:1" id="path1682" sodipodi:nodetypes="cc" />
         </g>
         <g id="g1684" transform="scale(1,-1)">
            <path d="m 748.379,-363.18 c 1.984,-0.933 4.066,-1.726 5.828,-3.195 1.09,-0.828 6.246,-2.289 6.672,-2.832" style="fill:none;stroke:#000000;stroke-width:2.61538;stroke-linecap:round;stroke-linejoin:round;stroke-miterlimit:10;stroke-dasharray:none;stroke-opacity:1" id="path1686" />
         </g>
         <g id="g1688" transform="scale(1,-1)">
            <path d="m 761.5,-369.957 c 16.883,1 116.391,7.527 169.801,14.23" style="fill:none;stroke:#000000;stroke-width:2.61538;stroke-linecap:round;stroke-linejoin:round;stroke-miterlimit:10;stroke-dasharray:none;stroke-opacity:1" id="path1690" />
         </g>
         <g id="g1692" transform="scale(1,-1)">
            <path d="m 930.484,-355.648 c 9.418,1.554 18.532,1.55 33.211,4.586" style="fill:none;stroke:#000000;stroke-width:2.61538;stroke-linecap:round;stroke-linejoin:round;stroke-miterlimit:10;stroke-dasharray:none;stroke-opacity:1" id="path1694" />
         </g>
         <g id="g1696" transform="scale(1,-1)">
            <path d="m 963.965,-350.715 9.453,181.899" style="fill:none;stroke:#000000;stroke-width:2.61538;stroke-linecap:round;stroke-linejoin:round;stroke-miterlimit:10;stroke-dasharray:none;stroke-opacity:1" id="path1698" sodipodi:nodetypes="cc" />
         </g>
         <g id="g1700" transform="scale(1,-1)">
            <path d="m 782.84,-200.316 c -2.95238,1.94569 -6.82708,1.5697 -10.211,1.515 -2.99856,0.35287 -7.44895,-3.22078 -3.57803,-5.60166 3.77113,-1.15673 7.90375,0.0816 11.70926,-1.18723 3.03836,-0.49377 6.42554,-4.74909 1.58937,-5.61579 -4.4871,-2.04907 -9.87302,-2.58762 -14.40621,-0.35192 0.62626,-0.30789 0.005,0.42072 -0.16639,0.2646" style="fill:none;stroke:#000000;stroke-width:2.61538;stroke-linecap:round;stroke-linejoin:round;stroke-miterlimit:10;stroke-dasharray:none;stroke-opacity:1" id="path1702" />
         </g>
         <g id="g1704" transform="scale(1,-1)">
            <path d="m 799.98,-197.418 c -2.98539,-0.0747 -5.1794,-2.85783 -6.85034,-5.0582 -1.86008,-2.92741 0.51196,-5.93223 2.83679,-7.68503 2.27075,-1.99829 5.37119,-0.78224 8.04785,-0.64396 3.2869,0.38701 7.40896,2.00762 7.56783,5.85875 0.34046,4.10072 -3.13778,7.69607 -6.77974,9.01457 -2.52691,0.7739 -5.49918,-0.33067 -7.77539,-1.44313" style="fill:none;stroke:#000000;stroke-width:2.61538;stroke-linecap:round;stroke-linejoin:round;stroke-miterlimit:10;stroke-dasharray:none;stroke-opacity:1" id="path1706" />
         </g>
         <g id="g1708" transform="scale(1,-1)">
            <path d="m 819.297,-208.574 c -0.48343,2.26403 0.16982,6.03336 -0.24291,8.77007 -0.68198,1.47043 -0.71489,3.50831 1.14128,1.69389 3.81198,-1.91843 8.006,-3.44973 10.87849,-6.7595 0.95341,-0.64793 3.14905,-4.37005 2.56744,-1.0861 -0.33854,3.46286 -0.87482,7.24377 -0.62916,10.48261" style="fill:none;stroke:#000000;stroke-width:2.61538;stroke-linecap:round;stroke-linejoin:round;stroke-miterlimit:10;stroke-dasharray:none;stroke-opacity:1" id="path1710" />
         </g>
         <g id="g1712" transform="scale(1,-1)">
            <path d="m 845.145,-195.57 c 2.06527,0.42369 3.3443,-3.47912 5.507,-3.672" style="fill:none;stroke:#000000;stroke-width:2.61538;stroke-linecap:round;stroke-linejoin:round;stroke-miterlimit:10;stroke-dasharray:none;stroke-opacity:1" id="path1714" />
         </g>
         <g id="g1716" transform="scale(1,-1)">
            <path d="m 856.832,-194.582 c -1.54328,-2.17493 -4.28274,-3.41178 -6.125,-5.375" style="fill:none;stroke:#000000;stroke-width:2.61538;stroke-linecap:round;stroke-linejoin:round;stroke-miterlimit:10;stroke-dasharray:none;stroke-opacity:1" id="path1718" />
         </g>
         <g id="g1720" transform="scale(1,-1)">
            <path d="m 849.566,-199.238 c 0.84129,-1.73565 0.60389,-4.02846 0.942,-5.731" style="fill:none;stroke:#000000;stroke-width:2.61538;stroke-linecap:round;stroke-linejoin:round;stroke-miterlimit:10;stroke-dasharray:none;stroke-opacity:1" id="path1722" />
         </g>
         <g id="g1724" transform="scale(1,-1)">
            <path d="m 926.434,-393.152 c -12.204,0.648 -21.454,1.418 -31.274,2.445 -5.969,1.066 -9.695,-4.844 -11.527,-9.688 0.664,-2.808 -2.219,-5.859 -4.551,-7.847 -1.434,-5.684 -6.555,-0.043 -9.039,-4.547 -3.84,-6.356 -7.981,-12.555 -11.387,-19.125 -2.531,-3.777 -4.785,-7.781 -8.328,-10.512 -1.691,-3.453 -0.949,-12.64 -0.949,-12.64 0,0 -0.7857,-27.2 1.754,-28.829" style="fill:none;stroke:#000000;stroke-width:2.61538;stroke-linecap:round;stroke-linejoin:round;stroke-miterlimit:10;stroke-dasharray:none;stroke-opacity:1" id="path1726" sodipodi:nodetypes="ccccccccc" />
         </g>
         <g id="g1728" transform="scale(1,-1)">
            <path d="m 851.133,-483.895 c 58.219,-7.402 142.871,-15.421 176.894,-17.269 0.407,0.137 1.285,0.035 0.856,0.172 -0.059,-0.07 0.012,-0.082 -0.071,-0.02 -0.148,-0.136 0.446,-0.047 -0.07,-0.101 0.164,0 0.055,0.062 -0.094,0.093 0.321,0.434 0.11,1.711 0.176,2.372 -0.203,5.003 4.703,10.707 8.594,11.066 0.906,-0.008 1.223,-0.059 1.383,-0.094 0.711,-0.195 1.371,-0.262 1.195,-0.73 0.399,0.355 0.203,-1.235 0.16,-1.871 -1.539,-2.618 -0.043,-10.114 -1.269,-11.668 0.496,-0.657 0,-0.52 0.297,-0.606 -0.204,-0.398 -0.204,-0.043 -0.106,-0.074 0.942,2.309 -0.219,13.094 2.414,13.277 2.465,1.25 5.781,1.082 8.301,1.086 0.535,-0.039 1.219,-0.015 1.281,-0.136 1.031,-0.086 0.696,-0.395 1.52,-1.04 0.648,-0.554 -0.024,-1.867 0.551,-2.777 0.117,-0.953 -0.473,-1.824 -0.465,-2.789 -0.063,-1.125 -0.078,-2.719 -0.051,-3.883 -0.543,-1.121 -0.184,-2.945 -0.453,-4.023 -0.106,0.238 -0.133,-0.34 -0.063,-0.199 -0.011,-0.051 -0.125,0.031 -0.011,0.015 0.656,1.227 0.496,3.098 0.593,4.551 -0.133,1.926 0.45,6.328 0.289,7.883 2.379,1.308 7.133,1.711 9.75,-0.031 0.555,-0.055 -0.089,-0.032 0.383,-0.176 0.324,-1.129 0.293,-2.637 0.567,-3.91 -0.622,-2.918 -0.227,-6.168 -0.692,-8.7 -0.101,-0.8 -0.035,-2.121 -0.031,-2.339 0.156,0.125 -0.316,-0.106 0.293,0.32 -0.34,4.344 -0.035,8.691 1.684,12.805 2.027,1.242 5.496,1.328 7.464,1.48 -0.531,0.023 1.246,-0.617 1.41,-0.906 0.442,-0.594 0.676,-1.149 1.329,-1.938 2.109,-3.707 0.648,-5.957 0.097,-11.711 -0.031,-1.92401 -0.269,-2.382 -0.269,-2.382 -0.539,0.39 -0.571,0.226 -0.903,0.968 -0.89,0.653 -1.589,0.496 -2.711,0.793 -0.589,0.192 -1.066,0.668 -1.914,0.957 -1.398,0.485 -2.64,1.121 -4.359,0.797 -0.441,0.133 -2.477,-0.531 -2.48,-0.48 -0.043,0.054 -0.141,-0.196 -0.629,-0.438 0.156,0.192 0.222,0.094 -0.016,0.086 0.477,0.004 -1.164,0.754 -1.477,0.887 -1.195,0.582 -2.679,1.027 -3.742,1.031 -0.527,0.25 -2.465,0.047 -3.109,-0.051 -0.817,-0.144 -1.625,-0.441 -1.965,-0.308 -0.734,-0.129 -1.238,0.078 -2.098,-0.207 -0.648,0.105 0.227,-0.153 -0.218,0.027 0.01,-0.187 0.23,0.004 -0.598,0.274 -2.559,0.929 -6.25,1.195 -8.352,0.898 -0.914,0.019 -1.371,-0.547 -1.746,-0.543 0.2,0.184 0.184,-0.043 0.336,0.309 -0.293,1.328 -2.183,1.71 -3.465,2.05 -2.734,0.516 -6.109,0.641 -8.582,0.016" style="fill:none;stroke:#000000;stroke-width:2.61538;stroke-linecap:round;stroke-linejoin:round;stroke-miterlimit:10;stroke-dasharray:none;stroke-opacity:1" id="path1730" sodipodi:nodetypes="ccccccccccccccccccccccccccccccccccccccccccccccccccccccccc" />
         </g>
         <g id="g1732" transform="scale(1,-1)">
            <path d="m 1075.238,-505.766 c 2.1388,-2.3925 6.035,-1.879 8.774,-0.629 2.316,0.762 2.316,0.762 2.316,0.762 0.781,3.586 1.555,7.188 1.125,10.883 0.074,5.617 -0.191,11.238 -0.418,16.836 0.434,2.41 0.348,7.449 0.348,7.449" style="fill:none;stroke:#000000;stroke-width:2.61538;stroke-linecap:round;stroke-linejoin:round;stroke-miterlimit:10;stroke-dasharray:none;stroke-opacity:1" id="path1734" sodipodi:nodetypes="cccccc" />
         </g>
         <g id="g1736" transform="scale(1,-1)">
            <path d="m 1087.453,-494.75 c 1.429,4.687 4.199,10.457 5.449,15.234 1.715,4.536 3,9.325 4.524,13.985 1.32,6.383 3.035,12.582 4.273,18.996 1.387,4.355 2.7195,10.17543 2.18,13.613 -0.746,4.613 -1.344,9.219 -2.137,13.774 0.137,2.668 -0.418,8.382 -0.512,9.964 -0.524,-3.489 -1.378,-8.277 -2.128,-11.769 -2.555,-1.774 0.64,-5.418 0.605,-8.07 2.945,-3.008 -2.637,-6.227 -1.66,-1.969 -0.27,3.515 0.609,7.476 0.035,10.664 l 0.184,0.234" style="fill:none;stroke:#000000;stroke-width:2.61538;stroke-linecap:round;stroke-linejoin:round;stroke-miterlimit:10;stroke-dasharray:none;stroke-opacity:1" id="path1738" sodipodi:nodetypes="cccccccccccc" />
         </g>
         <g id="g1740" transform="scale(1,-1)">
            <path d="m 1099.441,-430.965 -12.058,-39.5" style="fill:none;stroke:#000000;stroke-width:2.61538;stroke-linecap:round;stroke-linejoin:round;stroke-miterlimit:10;stroke-dasharray:none;stroke-opacity:1" id="path1742" sodipodi:nodetypes="cc" />
         </g>
         <g id="g1744" transform="scale(1,-1)">
            <path d="m 849.80668,-444.97608 c 0,0 114.63135,-11.34633 115.15935,-11.58833" style="fill:none;stroke:#000000;stroke-width:2.61538;stroke-linecap:round;stroke-linejoin:round;stroke-miterlimit:10;stroke-dasharray:none;stroke-opacity:1" id="path1746" sodipodi:nodetypes="cc" />
         </g>
         <path d="m 1054.652,474.336 c 0.024,3.637 -0.453,7.309 0.071,10.906 0.101,0.719 1.011,1.145 1.707,1.352 2.308,0.679 4.73,0.902 7.109,1.25 3.242,0.472 6.488,0.937 9.75,1.215 0.34,0.027 0.684,-0.129 0.969,-0.309 0.32,-0.199 0.676,-0.449 0.804,-0.805 0.512,-1.422 0.926,-2.898 1.063,-4.398 0.043,-0.481 -0.5,-0.859 -0.539,-1.336 -0.141,-1.738 -0.258,-3.504 0,-5.227 0.144,-0.941 0.949,-1.675 1.184,-2.597 0.05,-0.211 -0.196,-0.43 -0.395,-0.512 -1.871,-0.758 -3.758,-1.539 -5.73,-1.98 -4.508,-1.004 -9.079,-1.75 -13.661,-2.344 -0.414,-0.055 -0.922,0.09 -1.183,0.418 -0.543,0.683 -0.836,1.551 -1.059,2.398 m 2.559,11.387 c -0.01,-3.344 -0.106,-6.695 -0.02,-10.039 0.01,-0.313 -0.011,-0.824 0.297,-0.883 1.52,-0.273 3.098,-0.18 4.637,-0.016 1.816,0.192 3.605,0.625 5.375,1.071 1.574,0.394 3.797,0.066 4.648,1.449 1.446,2.348 1.219,5.418 1.285,8.176 0.024,0.996 -0.043,2.625 -1.019,2.804 -2.731,0.508 -5.524,-0.617 -8.258,-1.078" style="fill:#000000;fill-opacity:1;fill-rule:nonzero;stroke:none" id="path1748" />
         <g id="g1750" transform="scale(1,-1)">
            <path d="m 886.262,-400.047 c 6.73,-0.488 202.84,-19.515 210.886,-22.035" style="fill:none;stroke:#000000;stroke-width:2.61538;stroke-linecap:round;stroke-linejoin:round;stroke-miterlimit:10;stroke-dasharray:none;stroke-opacity:1" id="path1752" />
         </g>
         <path d="m 875.637,411.586 c 0.328,0.371 0.488,1.043 0.98,1.121 8.664,1.387 17.387,2.418 26.125,3.215 25.574,2.332 51.266,3.336 76.789,6.168 18.328,2.035 36.41,5.898 54.676,8.422 15.375,2.125 30.145,3.59 45.59,5.129 26.48,0.625 15.598,1.968 17.535,-1.614 -3.16,-0.695 -12.285,-0.879 -15.516,-1.078 -0.277,-0.015 -5.941,-0.445 -6.222,-0.472 -12.18,-1.227 -18.828,-1.731 -30.977,-3.274 -10.898,-1.383 -21.777,-2.926 -32.64,-4.578 -7.457,-1.133 -14.864,-2.586 -22.313,-3.77 -3.359,-0.535 -6.719,-1.085 -10.109,-1.378 -25.348,-2.215 -50.746,-3.789 -76.082,-6.145 -6.418,-0.598 -12.739,-2.047 -19.149,-2.707 -2.383,-0.246 -4.793,-0.094 -7.187,0 -0.34,0.012 -0.684,0.133 -0.969,0.316" style="fill:#000000;fill-opacity:1;fill-rule:nonzero;stroke:none" id="path1754" />
         <g id="g1756" transform="scale(1,-1)">
            <path d="m 885.03148,-412.63397 c 0,0 -4.83248,-6.71003 -5.49648,-7.54603 -1.97035,-3.96852 -10.11356,-13.04598 -7.445,-13.918 24.078,-4.91694 79.422,-10.05 79.422,-10.05" style="fill:none;stroke:#000000;stroke-width:2.61538;stroke-linecap:round;stroke-linejoin:round;stroke-miterlimit:10;stroke-dasharray:none;stroke-opacity:1" id="path1758" sodipodi:nodetypes="cccc" />
         </g>
         <g id="g1762" transform="scale(1,-1)">
            <path d="m 938.23,-423.477 c 3.524,-1.675 1.797,-5.89 2.278,-8.789 0.14,-4.144 -4.692,-5.382 -7.688,-6.777 -4.402,-1.449 -9.23552,-2.26113 -14.35998,-1.70319" style="fill:none;stroke:#000000;stroke-width:2.61538;stroke-linecap:round;stroke-linejoin:round;stroke-miterlimit:10;stroke-dasharray:none;stroke-opacity:1" id="path1764" sodipodi:nodetypes="cccc" />
            <path d="m 951.512,-444.148 c 0,0 12.78525,-3.39089 13.26625,-0.49189 0.72215,4.65544 7.16031,24.29065 7.16031,24.29065" style="fill:none;stroke:#000000;stroke-width:2.61538;stroke-linecap:round;stroke-linejoin:round;stroke-miterlimit:10;stroke-dasharray:none;stroke-opacity:1" id="path1764-3" sodipodi:nodetypes="ccc" />
         </g>
         <g id="g1766" transform="scale(1,-1)">
            <path d="m 962.45371,-419.82967 c 2.41887,-4.57292 2.14144,-10.14468 4.35687,-14.72252" style="fill:none;stroke:#000000;stroke-width:2.61538;stroke-linecap:round;stroke-linejoin:round;stroke-miterlimit:10;stroke-dasharray:none;stroke-opacity:1" id="path1768" sodipodi:nodetypes="cc" />
         </g>
         <g id="g1770" transform="scale(1,-1)">
            <path d="m 929.266,-429.547 c 0.668,-0.117 3.109,-0.738 1.214,-0.176 -1.214,0.543 -2.566,1.157 -3.918,0.77 0.376,-0.133 0.946,-0.25 1.204,0.148" style="fill:none;stroke:#000000;stroke-width:2.61538;stroke-linecap:round;stroke-linejoin:round;stroke-miterlimit:10;stroke-dasharray:none;stroke-opacity:1" id="path1772" />
         </g>
         <g id="g1774" transform="scale(1,-1)">
            <path d="m 926.008,-423.648 c -0.867,1.316 -3.063,0.418 -4.207,-0.254 -1.946,-1.063 -3.172,-3.028 -4.664,-5.856" style="fill:none;stroke:#000000;stroke-width:2.61538;stroke-linecap:round;stroke-linejoin:round;stroke-miterlimit:10;stroke-dasharray:none;stroke-opacity:1" id="path1776" />
         </g>
         <g id="g1778" transform="scale(1,-1)">
            <path d="m 924.609,-392.887 c 20.176,-2.41 120.657,-9.453 176.621,-16.297" style="fill:none;stroke:#000000;stroke-width:2.61538;stroke-linecap:round;stroke-linejoin:round;stroke-miterlimit:10;stroke-dasharray:none;stroke-opacity:1" id="path1780" />
         </g>
         <g id="g1782" transform="scale(1,-1)">
            <path d="m 964.96603,-456.56441 c 39.91397,-4.773 69.74497,-8.47459 122.41697,-13.90059" style="fill:none;stroke:#000000;stroke-width:2.61538;stroke-linecap:round;stroke-linejoin:round;stroke-miterlimit:10;stroke-dasharray:none;stroke-opacity:1" id="path1784" sodipodi:nodetypes="cc" />
         </g>
      </g>
   </g>
</svg>
