<?xml version="1.0" encoding="UTF-8" standalone="no"?>
<!-- Created by Ashley Blewer - This work is licensed under a Creative Commons Attribution 4.0 International License -->

<svg width="544" height="480" viewBox="0 0 143.93334 127" version="1.1" id="svg2490" inkscape:version="1.1.2 (08b2f3d93c, 2022-04-05)" sodipodi:docname="2003-hdv-3.svg"
   xmlns:inkscape="http://www.inkscape.org/namespaces/inkscape"
   xmlns:sodipodi="http://sodipodi.sourceforge.net/DTD/sodipodi-0.dtd"
   xmlns="http://www.w3.org/2000/svg"
   xmlns:svg="http://www.w3.org/2000/svg">
   <sodipodi:namedview id="namedview2492" pagecolor="#ffffff" bordercolor="#666666" borderopacity="1.0" inkscape:pageshadow="2" inkscape:pageopacity="0.0" inkscape:pagecheckerboard="0" inkscape:document-units="mm" showgrid="false" units="px" inkscape:zoom="0.90583674" inkscape:cx="279.29978" inkscape:cy="194.84747" inkscape:window-width="1848" inkscape:window-height="1136" inkscape:window-x="72" inkscape:window-y="27" inkscape:window-maximized="1" inkscape:current-layer="layer1" />
   <defs id="defs2487" />
   <g inkscape:label="Layer 1" inkscape:groupmode="layer" id="layer1">
      <g id="g3867" transform="matrix(0.59527365,0,0,0.59527365,-384.47737,-333.03602)">
         <g id="g1204" transform="matrix(1,0,0,-1,0,41.005097)">
            <path d="m 675.785,-681.492 c -9.742,2.512 -6.113,14.832 -7.047,22.195 0.024,15.985 -1.926,32.031 0.457,47.945 -0.101,6.872 -0.863,63.208 0.25,70.153" style="fill:none;stroke:#000000;stroke-width:2.61538;stroke-linecap:round;stroke-linejoin:round;stroke-miterlimit:10;stroke-dasharray:none;stroke-opacity:1" id="path1206" sodipodi:nodetypes="cccc" />
         </g>
         <g id="g1208" transform="matrix(1,0,0,-1,0,41.005097)">
            <path d="m 670.277,-582.227 c 0.711,-1.043 0.782,-2.351 0.899,-3.582 0.062,-0.863 0.144,-1.695 0.211,-2.554 0.019,-1.075 -0.117,-2.137 -0.219,-3.199 0.086,-1.157 -0.125,-2.254 -0.07,-3.391 -0.145,-1.109 -0.102,-2.231 -0.028,-3.34 -0.136,-1.055 0.078,-2.078 0.004,-3.141 -0.125,-1.128 0.106,-2.234 0.094,-3.355 -0.164,-0.867 0.141,-1.746 -0.125,-2.578 0.109,-0.613 0.016,-1.305 -0.309,-1.453 -0.179,0.234 -0.679,-0.512 -0.5,-0.18" style="fill:none;stroke:#000000;stroke-width:2.61538;stroke-linecap:round;stroke-linejoin:round;stroke-miterlimit:10;stroke-dasharray:none;stroke-opacity:1" id="path1210" />
         </g>
         <g id="g1212" transform="matrix(1,0,0,-1,0,41.005097)">
            <path d="m 669.445,-541.199 c 0,0 176.57509,2.14463 190.254,0.672" style="fill:none;stroke:#000000;stroke-width:2.61538;stroke-linecap:round;stroke-linejoin:round;stroke-miterlimit:10;stroke-dasharray:none;stroke-opacity:1" id="path1214" sodipodi:nodetypes="cc" />
         </g>
         <g id="g1216" transform="matrix(1,0,0,-1,0,41.005097)">
            <path d="m 677.258,-541.98923 c 1.0258,-4.75876 1.11462,-6.45538 7.03262,-6.25238 L 851.535,-547.262 c 2.379,0.309 1.555,5.25072 0.879,6.68772" style="fill:none;stroke:#000000;stroke-width:2.61538;stroke-linecap:round;stroke-linejoin:round;stroke-miterlimit:10;stroke-dasharray:none;stroke-opacity:1" id="path1218" sodipodi:nodetypes="cccc" />
         </g>
         <g id="g1220" transform="matrix(1,0,0,-1,0,41.005097)">
            <path d="m 859.699,-540.527 c 1.711,-4.149 1.121,-8.731 1.457,-13.106 0.266,-4.14 0.535,-8.281 0.637,-12.429 0.199,-3.04 0.387,-6.094 0.246,-9.133 0.102,-1.121 -2.019,-2 -2.91,-2.672" style="fill:none;stroke:#000000;stroke-width:2.61538;stroke-linecap:round;stroke-linejoin:round;stroke-miterlimit:10;stroke-dasharray:none;stroke-opacity:1" id="path1222" sodipodi:nodetypes="ccccc" />
         </g>
         <g id="g1224" transform="matrix(1,0,0,-1,0,41.005097)">
            <path d="m 669.539,-580.5 c 10.277,4.613 21.691,0.746 32.473,1.855 24.699,0.852 49.433,2.629 74.14,0.875 20.028,-0.953 40.09,-0.816 60.125,-1.359 7.496,-0.5 15.215,-1.465 22.559,0.656 -0.176,0.321 0.113,0.442 0.293,0.606" style="fill:none;stroke:#000000;stroke-width:2.61538;stroke-linecap:round;stroke-linejoin:round;stroke-miterlimit:10;stroke-dasharray:none;stroke-opacity:1" id="path1226" />
         </g>
         <g id="g1228" transform="matrix(1,0,0,-1,0,41.005097)">
            <path d="m 858.836,-578.473 c 0,0 1.8369,-88.55422 1.367,-94.543 -0.433,-2.164 -0.402,-2.8 -1.84,-4.5" style="fill:none;stroke:#000000;stroke-width:2.61538;stroke-linecap:round;stroke-linejoin:round;stroke-miterlimit:10;stroke-dasharray:none;stroke-opacity:1" id="path1230" sodipodi:nodetypes="ccc" />
         </g>
         <g id="g1232" transform="matrix(1,0,0,-1,0,41.005097)">
            <path d="m 674.738,-681.434 c 44.461,3.192 89.09,4.043 133.637,2.477 16.355,0.312 32.82,-0.34 49.086,1.262" style="fill:none;stroke:#000000;stroke-width:2.61538;stroke-linecap:round;stroke-linejoin:round;stroke-miterlimit:10;stroke-dasharray:none;stroke-opacity:1" id="path1234" />
         </g>
         <g id="g1236" transform="matrix(1,0,0,-1,0,41.005097)">
            <path d="m 716.578,-613.988 c 12.60564,1.43445 25.28065,-0.72659 37.90223,0.31133 4.13168,-0.57165 5.36112,-5.40495 5.34286,-8.94621 0.60193,-7.02502 0.76326,-14.33072 -1.98932,-20.96718 -1.67692,-3.96845 -1.65461,-9.8984 -6.30543,-11.63265 -4.49646,-1.04943 -9.2026,-0.39838 -13.773,-1.04172 -6.17147,-0.39675 -12.36916,-0.64655 -18.54723,-0.24291 -3.45415,1.77685 -2.3507,6.20724 -2.51302,9.34722 -0.81643,9.57216 -1.29552,19.1844 -1.35845,28.79013 0.12913,1.50408 0.50276,3.01481 1.29235,4.31499" style="fill:none;stroke:#000000;stroke-width:2.61538;stroke-linecap:round;stroke-linejoin:round;stroke-miterlimit:10;stroke-dasharray:none;stroke-opacity:1" id="path1238" />
         </g>
         <g id="g1240" transform="matrix(1,0,0,-1,0,41.005097)">
            <path d="m 728.7033,-613.54394 c 3.356,-2.961 6.3397,-9.71006 6.6127,-14.17906 -0.316,-6.047 -4.32,-11.597 -9.496,-14.57 -2.031,-1.777 -5.258,-2.41 -7.761,-2.219" style="fill:none;stroke:#000000;stroke-width:2.61538;stroke-linecap:round;stroke-linejoin:round;stroke-miterlimit:10;stroke-dasharray:none;stroke-opacity:1" id="path1242" sodipodi:nodetypes="cccc" />
         </g>
         <g id="g1244" transform="matrix(1,0,0,-1,0,41.005097)">
            <path d="m 717.102,-637.258 c 4.589,0.653 10.441,2.313 11.296,7.668 1.598,5.938 -5.17201,15.39 -11.76901,15.535" style="fill:none;stroke:#000000;stroke-width:2.61538;stroke-linecap:round;stroke-linejoin:round;stroke-miterlimit:10;stroke-dasharray:none;stroke-opacity:1" id="path1246" sodipodi:nodetypes="ccc" />
         </g>
         <g id="g1248" transform="matrix(1,0,0,-1,0,41.005097)">
            <path d="m 725.477,-617.672 h -0.004 l -0.02,-0.004 -0.062,0.008 -0.075,-0.016 -0.054,0.004 h -0.254 l -0.035,0.032 0.066,-0.016 0.008,0.016 h 0.058 l 0.036,0.007 0.074,-0.004 h 0.058 l 0.004,0.016 0.024,-0.012 0.019,0.024 0.039,0.027 0.008,0.024 -0.109,0.027 0.015,0.035 0.106,0.02 0.043,0.019 0.07,0.047 0.059,0.035 h -0.059 l 0.024,0.043 0.093,0.035 0.004,0.047 0.024,0.024 0.097,0.043 0.082,0.039 0.024,0.019 0.035,0.024 0.02,0.05 0.031,0.032 0.058,0.023 0.047,0.031 0.004,0.016 0.02,0.016 0.054,0.003 0.047,0.016 -0.008,0.02 0.028,0.019 h 0.066 l 0.039,0.024 0.039,0.011 0.047,0.008 0.024,0.035 0.066,0.024 0.047,0.031" style="fill:none;stroke:#000000;stroke-width:2.61538;stroke-linecap:round;stroke-linejoin:round;stroke-miterlimit:10;stroke-dasharray:none;stroke-opacity:1" id="path1250" />
         </g>
         <g id="g1252" transform="matrix(1,0,0,-1,0,41.005097)">
            <path d="m 729.145,-624.711 c -0.21777,-0.10821 -0.0604,0.0569 0.0808,0.008 -0.24797,0.0282 0.12889,-0.0237 0.21359,-10e-4 0.33088,0.10466 0.52979,0.0436 0.82914,0.0876 0.1486,-0.0175 0.28001,0.0655 0.41141,0.0655" style="fill:none;stroke:#000000;stroke-width:2.61538;stroke-linecap:round;stroke-linejoin:round;stroke-miterlimit:10;stroke-dasharray:none;stroke-opacity:1" id="path1254" />
         </g>
         <g id="g1256" transform="matrix(1,0,0,-1,0,41.005097)">
            <path d="m 727.324,-634.762 c -0.15199,-0.0152 -0.3441,-0.12824 -0.0744,-0.10485 -0.0266,0.0818 0.43169,-0.0277 0.43538,-0.26314 0.0949,-0.10293 0.01,-0.27093 0.24536,-0.30927 0.10401,-0.027 0.27791,-0.15541 0.0697,-0.0761" style="fill:none;stroke:#000000;stroke-width:2.61538;stroke-linecap:round;stroke-linejoin:round;stroke-miterlimit:10;stroke-dasharray:none;stroke-opacity:1" id="path1258" />
         </g>
         <g id="g1260" transform="matrix(1,0,0,-1,0,41.005097)">
            <path d="m 718.609,-639.266 v -0.004 l 0.008,-0.007 0.004,-0.028 -0.019,-0.039 -0.004,-0.023 -0.168,-0.031 -0.008,-0.012 0.137,0.008 0.027,-0.028 0.019,-0.023 0.016,0.004 0.137,-0.004 0.058,-0.039 -0.066,-0.016 0.02,-0.008 h 0.011 l -0.011,-0.011 -0.028,-0.004 0.012,-0.012 0.012,-0.039 0.027,-0.043 0.027,-0.035 0.008,-0.028 0.086,-0.031 0.059,-0.039 -0.039,-0.012 -0.004,-0.015 -0.008,-0.008 -0.008,-0.004 h -0.023 l 0.019,-0.004 0.024,-0.019 v -0.028 l 0.004,-0.019 0.019,-0.016 -0.113,-0.008 -0.043,-0.047 0.078,-0.031 0.019,-0.023 0.016,-0.016 0.016,0.008 0.035,-0.016 0.012,-0.015 -0.004,-0.02" style="fill:none;stroke:#000000;stroke-width:2.61538;stroke-linecap:round;stroke-linejoin:round;stroke-miterlimit:10;stroke-dasharray:none;stroke-opacity:1" id="path1262" />
         </g>
         <g id="g1364" transform="matrix(1,0,0,-1,0,41.005097)">
            <path d="m 687.938,-623.141 c -0.84392,1.34582 -2.953,1.36487 -3.80093,0.007 -0.75575,-1.34159 -1.63673,-2.82429 -1.35335,-4.42332 0.29668,-1.63899 0.65362,-3.61403 2.17387,-4.57008 1.14675,-0.5497 2.97257,0.66255 2.59252,1.96423 -0.44016,0.98971 -1.91237,1.22188 -2.60913,0.38256" style="fill:none;stroke:#000000;stroke-width:1.30769;stroke-linecap:round;stroke-linejoin:round;stroke-miterlimit:10;stroke-dasharray:none;stroke-opacity:1" id="path1366" />
         </g>
         <g id="g1368" transform="matrix(1,0,0,-1,0,41.005097)">
            <path d="m 691.379,-623.484 c 1.30534,0.75458 3.94007,0.67813 3.22425,-1.45208 0.0244,-1.17222 -2.5681,-1.82671 -0.47099,-1.75514 1.69242,0.0136 2.39536,-1.75871 0.69603,-2.50006 -0.88905,-0.65977 -1.9957,-0.18779 -2.96123,-0.0117" style="fill:none;stroke:#000000;stroke-width:1.30769;stroke-linecap:round;stroke-linejoin:round;stroke-miterlimit:10;stroke-dasharray:none;stroke-opacity:1" id="path1370" />
         </g>
         <g id="g1372" transform="matrix(1,0,0,-1,0,41.005097)">
            <path d="m 681.402,-640.156 c 10.3721,1.49279 20.8086,-0.37493 31.196,-0.57105" style="fill:none;stroke:#000000;stroke-width:1.30769;stroke-linecap:round;stroke-linejoin:round;stroke-miterlimit:10;stroke-dasharray:none;stroke-opacity:1" id="path1374" />
         </g>
         <g id="g1376" transform="matrix(1,0,0,-1,0,41.005097)">
            <path d="m 686.25,-643.543 c 0.20865,0.0445 0.36603,-0.0304 0.0909,-0.26076 -0.0196,-0.42008 -0.67508,-0.77642 -0.84378,-1.29519 -0.2607,-0.54337 -1.08561,-1.12362 -0.76208,-1.64666 -0.67589,-0.36413 -0.53246,-1.10849 -1.21402,-1.46425 0.10122,-0.50399 1.30471,0.17669 1.84749,0.27476 0.37203,0.716 1.3827,0.95674 2.11668,1.21294 0.40671,0.0316 -0.20417,-0.1092 0.12381,-0.0398" style="fill:none;stroke:#000000;stroke-width:1.30769;stroke-linecap:round;stroke-linejoin:round;stroke-miterlimit:10;stroke-dasharray:none;stroke-opacity:1" id="path1378" />
         </g>
         <g id="g1380" transform="matrix(1,0,0,-1,0,41.005097)">
            <path d="m 687.547,-644.441 c 0.26528,-0.33726 -0.2232,-0.93901 0.16314,-1.37976 -0.10954,-0.97553 -0.13481,-1.99031 -0.0383,-2.98018 -0.18248,-0.82398 -0.31642,-1.67455 -0.2026,-2.52983 0.16854,-0.50383 -0.069,-1.47004 0.13898,-1.66793 -0.20409,0.34107 0.25196,0.75492 0.16958,1.2287" style="fill:none;stroke:#000000;stroke-width:1.30769;stroke-linecap:round;stroke-linejoin:round;stroke-miterlimit:10;stroke-dasharray:none;stroke-opacity:1" id="path1382" />
         </g>
         <g id="g1384" transform="matrix(1,0,0,-1,0,41.005097)">
            <path d="m 692.191,-644.527 c -0.39074,-0.15423 0.43287,0.0809 0.289,-0.364 0.54505,-0.82423 0.40496,-1.77855 0.65481,-2.66489 0.49977,-0.62815 -0.0305,-1.54063 0.22355,-2.31784 -0.17915,-0.68238 0.13323,-1.37592 0.10286,-2.06857 -0.15196,-0.23026 -0.0507,-1.35864 -0.32029,-1.16266" style="fill:none;stroke:#000000;stroke-width:1.30769;stroke-linecap:round;stroke-linejoin:round;stroke-miterlimit:10;stroke-dasharray:none;stroke-opacity:1" id="path1386" />
         </g>
         <g id="g1388" transform="matrix(1,0,0,-1,0,41.005097)">
            <path d="m 677.57,-675.242 c 1.09018,20.80038 -1.55469,41.67382 0.74601,62.43" style="fill:none;stroke:#000000;stroke-width:1.30769;stroke-linecap:round;stroke-linejoin:round;stroke-miterlimit:10;stroke-dasharray:none;stroke-opacity:1" id="path1390" />
         </g>
         <g id="g1408" transform="matrix(1,0,0,-1,0,41.005097)">
            <path d="m 686.547,-588.621 c -2.22017,1.41279 -6.41307,1.16901 -7.65133,-1.326 2.10823,-0.47074 4.74992,-0.24069 6.64812,-1.79383 1.36903,-2.84745 -4.23674,-2.43232 -5.96849,-1.81173 -0.3779,0.0712 -1.00383,0.40851 -0.6613,0.88859" style="fill:none;stroke:#000000;stroke-width:1.30769;stroke-linecap:round;stroke-linejoin:round;stroke-miterlimit:10;stroke-dasharray:none;stroke-opacity:1" id="path1410" />
         </g>
         <g id="g1412" transform="matrix(1,0,0,-1,0,41.005097)">
            <path d="m 693.293,-588.125 c -2.6627,-0.54506 -2.79394,-6.01654 0.60619,-5.60937 3.63654,-0.25705 4.73571,5.35626 0.49267,5.15876 -0.88124,0.0872 -2.00968,0.19059 -2.66186,-0.54938" style="fill:none;stroke:#000000;stroke-width:1.30769;stroke-linecap:round;stroke-linejoin:round;stroke-miterlimit:10;stroke-dasharray:none;stroke-opacity:1" id="path1414" />
         </g>
         <g id="g1416" transform="matrix(1,0,0,-1,0,41.005097)">
            <path d="m 703.031,-593.773 c 0.13148,0.32789 -1.57702,7.21411 1.34105,4.33074 1.60688,-0.82534 5.36747,-5.355 4.41869,-0.97614 -0.18397,0.82213 -0.73106,1.91344 -0.32946,2.7074" style="fill:none;stroke:#000000;stroke-width:1.30769;stroke-linecap:round;stroke-linejoin:round;stroke-miterlimit:10;stroke-dasharray:none;stroke-opacity:1" id="path1418" />
         </g>
         <g id="g1420" transform="matrix(1,0,0,-1,0,41.005097)">
            <path d="m 713.531,-589.016 c 1.07744,-0.0145 1.90422,-0.9476 2.981,-0.964" style="fill:none;stroke:#000000;stroke-width:1.30769;stroke-linecap:round;stroke-linejoin:round;stroke-miterlimit:10;stroke-dasharray:none;stroke-opacity:1" id="path1422" />
         </g>
         <g id="g1424" transform="matrix(1,0,0,-1,0,41.005097)">
            <path d="m 719.621,-588.168 c -1.14486,-1.73168 -3.6929,-2.07394 -1.94856,-4.44728 0.021,-0.74281 0.53149,-1.63547 0.0186,-2.30272" style="fill:none;stroke:#000000;stroke-width:1.30769;stroke-linecap:round;stroke-linejoin:round;stroke-miterlimit:10;stroke-dasharray:none;stroke-opacity:1" id="path1426" />
         </g>
         <g id="g1428" transform="matrix(1,0,0,-1,0,41.005097)">
            <path d="m 782.27,-593.418 0.003,-0.016 -0.007,-0.019 v -0.035" style="fill:none;stroke:#000000;stroke-width:1.30769;stroke-linecap:round;stroke-linejoin:round;stroke-miterlimit:10;stroke-dasharray:none;stroke-opacity:1" id="path1430" />
         </g>
         <g id="g1432" transform="matrix(1,0,0,-1,0,41.005097)">
            <path d="m 782.48,-593.523 c 0.24339,2.30673 -0.64184,5.97965 1.00896,7.41035 5.62199,-0.11335 11.27656,-0.11392 16.87779,-0.76762 4.15969,-0.20286 8.32752,-0.38648 12.49766,-0.30989 1.62697,-0.31696 5.11034,0.63818 3.50566,-2.01145 -0.49107,-1.54558 -0.2155,-3.16369 -0.23715,-4.63033" style="fill:none;stroke:#000000;stroke-width:1.30769;stroke-linecap:round;stroke-linejoin:round;stroke-miterlimit:10;stroke-dasharray:none;stroke-opacity:1" id="path1434" />
         </g>
         <g id="g1436" transform="matrix(1,0,0,-1,0,41.005097)">
            <path d="m 782.48,-593.523 33.65292,-0.30894" style="fill:none;stroke:#000000;stroke-width:1.30769;stroke-linecap:round;stroke-linejoin:round;stroke-miterlimit:10;stroke-dasharray:none;stroke-opacity:1" id="path1438" sodipodi:nodetypes="cc" />
         </g>
         <g id="g1440" transform="matrix(1,0,0,-1,0,41.005097)">
            <path d="m 787.391,-588.469 c 0.18456,-0.61675 0.0297,-1.53332 -0.19982,-2.2429 -0.081,-0.29648 -0.0842,-0.51371 -0.32063,-0.67489" style="fill:none;stroke:#000000;stroke-width:1.30769;stroke-linecap:round;stroke-linejoin:round;stroke-miterlimit:10;stroke-dasharray:none;stroke-opacity:1" id="path1442" />
         </g>
         <g id="g1444" transform="matrix(1,0,0,-1,0,41.005097)">
            <path d="m 787.477,-589.277 c -0.2294,-0.0317 -0.62546,0.9191 -0.086,0.808 0.51753,0.0269 0.86336,-0.44888 1.36286,-0.56449 0.4082,-0.0837 0.77132,-0.69422 0.60351,-1.0991 0.19837,-0.45027 -0.49694,-0.55806 -0.58021,-0.90555 0.19368,-0.30908 -0.60031,-0.28881 -0.82968,-0.459 -0.24631,-0.10867 -0.99308,-0.19253 -0.89638,0.21227" style="fill:none;stroke:#000000;stroke-width:1.30769;stroke-linecap:round;stroke-linejoin:round;stroke-miterlimit:10;stroke-dasharray:none;stroke-opacity:1" id="path1446" sodipodi:nodetypes="ccccccc" />
         </g>
         <g id="g1448" transform="matrix(1,0,0,-1,0,41.005097)">
            <path d="m 790.855,-588.65449 c 0,0 1.24511,-2.51346 1.77717,-3.00157 0.58017,-0.2286 0.49935,0.99217 0.95627,1.31386 0.31185,0.46824 0.56503,0.97581 0.87286,1.43918" style="fill:none;stroke:#000000;stroke-width:1.30769;stroke-linecap:round;stroke-linejoin:round;stroke-miterlimit:10;stroke-dasharray:none;stroke-opacity:1" id="path1450" sodipodi:nodetypes="cccc" />
         </g>
         <g id="g1452" transform="matrix(1,0,0,-1,0,41.005097)">
            <path d="m 799.648,-588.742 c 0.24813,0.0496 -0.38888,0.0525 10e-4,0.0519 -0.64094,-0.01 -1.07621,-0.54195 -1.58182,-0.9027 -0.43856,-0.33355 -0.67827,-0.8155 -0.98105,-1.25428 -0.57944,-0.179 -0.57556,-1.10696 0.0332,-1.19481 0.54071,-0.079 1.08711,-0.13418 1.62485,0.0102 0.40078,-0.0283 0.66144,0.28952 0.8155,0.51183 -0.0199,0.075 -0.56236,0.13023 -0.24394,0.14444" style="fill:none;stroke:#000000;stroke-width:1.30769;stroke-linecap:round;stroke-linejoin:round;stroke-miterlimit:10;stroke-dasharray:none;stroke-opacity:1" id="path1454" />
         </g>
         <g id="g1456" transform="matrix(1,0,0,-1,0,41.005097)">
            <path d="m 801.926,-591.828 c 0.34121,-0.0705 0.2856,0.56381 0.47177,0.76996 -0.0172,0.25253 -0.23265,0.31811 0.0737,0.48068 0.5309,0.13328 -0.13991,0.60555 0.2899,0.83628 0.15028,0.39421 0.24504,1.05158 0.79891,1.03761 0.4497,-0.12305 0.86132,-0.36573 1.18241,-0.68952 0.20492,-0.20836 0.84767,-0.32316 0.5544,-0.69704 0.35586,-0.18087 0.18009,-0.7669 0.44564,-0.88299 -0.0665,0.007 -0.0945,-0.0555 -0.15264,-0.066" style="fill:none;stroke:#000000;stroke-width:1.30769;stroke-linecap:round;stroke-linejoin:round;stroke-miterlimit:10;stroke-dasharray:none;stroke-opacity:1" id="path1458" />
         </g>
         <g id="g1460" transform="matrix(1,0,0,-1,0,41.005097)">
            <path d="m 803.297,-590.93 c -0.13748,0.28116 0.76561,0.12515 0.54671,0.56042 0.24217,0.23142 0.57549,0.18905 0.88382,0.15883" style="fill:none;stroke:#000000;stroke-width:1.30769;stroke-linecap:round;stroke-linejoin:round;stroke-miterlimit:10;stroke-dasharray:none;stroke-opacity:1" id="path1462" />
         </g>
         <g id="g1464" transform="matrix(1,0,0,-1,0,41.005097)">
            <path d="m 808.098,-591.844 c -0.13691,-0.11629 0.062,-0.48323 -0.0622,-0.2134 0.22187,0.10392 0.13791,0.0506 -0.0138,0.10659 0.56784,0.0712 -0.27359,0.23033 -0.0395,0.5352 -0.0707,0.37189 0.14809,0.95439 0.59193,0.91892 0.45202,-0.0705 0.63828,-0.42997 0.96016,-0.65153 -0.46295,-0.12535 0.2623,0.48178 0.16516,0.7027 0.39929,0.2614 0.76905,0.52349 1.27545,0.5796 0.40257,0.0979 0.89043,0.0523 1.22156,-0.19492 0.25951,-0.41526 0.51311,-0.87048 0.58627,-1.36173 -0.0195,-0.32001 -0.16953,-0.56327 -0.12318,-0.9014" style="fill:none;stroke:#000000;stroke-width:1.30769;stroke-linecap:round;stroke-linejoin:round;stroke-miterlimit:10;stroke-dasharray:none;stroke-opacity:1" id="path1466" />
         </g>
         <g id="g1468" transform="matrix(1,0,0,-1,0,41.005097)">
            <path d="m 826.156,-588.785 c 0.25657,-0.50071 -0.36956,1.14717 -0.34802,1.54903 -0.59094,1.1452 0.58598,2.4773 1.11706,0.82944 0.39298,-0.35481 0.35977,-1.78167 0.13068,-0.61025 0.014,0.58468 0.31293,2.37664 1.06154,1.37568 0.53847,-0.90875 0.85915,-2.01181 0.6868,-3.06976 -0.0214,-0.24974 0.12182,-0.64191 0.44969,-0.49227" style="fill:none;stroke:#000000;stroke-width:1.30769;stroke-linecap:round;stroke-linejoin:round;stroke-miterlimit:10;stroke-dasharray:none;stroke-opacity:1" id="path1470" />
         </g>
         <g id="g1472" transform="matrix(1,0,0,-1,0,41.005097)">
            <path d="m 830.383,-588.234 c 0.20298,0.0142 0.0851,-0.71805 0.43297,-0.73104" style="fill:none;stroke:#000000;stroke-width:1.30769;stroke-linecap:round;stroke-linejoin:round;stroke-miterlimit:10;stroke-dasharray:none;stroke-opacity:1" id="path1474" />
         </g>
         <g id="g1476" transform="matrix(1,0,0,-1,0,41.005097)">
            <path d="m 832.035,-589.027 c 0.29257,-0.54644 -0.12623,1.07961 0.73987,1.01278 0.63493,-0.021 1.08362,-0.10724 0.8213,-0.68968 0.12257,-0.2983 0.41229,-0.74458 0.67679,-0.8161" style="fill:none;stroke:#000000;stroke-width:1.30769;stroke-linecap:round;stroke-linejoin:round;stroke-miterlimit:10;stroke-dasharray:none;stroke-opacity:1" id="path1478" />
         </g>
         <g id="g1480" transform="matrix(1,0,0,-1,0,41.005097)">
            <path d="m 833.086,-586.105 c -0.045,-0.58131 0.28353,-1.16224 0.63294,-1.58566" style="fill:none;stroke:#000000;stroke-width:1.30769;stroke-linecap:round;stroke-linejoin:round;stroke-miterlimit:10;stroke-dasharray:none;stroke-opacity:1" id="path1482" />
         </g>
         <g id="g1484" transform="matrix(1,0,0,-1,0,41.005097)">
            <path d="m 834.477,-588.656 c 0.0309,0.47692 -0.25525,-0.75533 0.14395,-0.54704" style="fill:none;stroke:#000000;stroke-width:1.30769;stroke-linecap:round;stroke-linejoin:round;stroke-miterlimit:10;stroke-dasharray:none;stroke-opacity:1" id="path1486" />
         </g>
         <g id="g1488" transform="matrix(1,0,0,-1,0,41.005097)">
            <path d="m 837.312,-587.566 c -0.0295,-2.22937 0.26926,-6.41352 0.26926,-6.41352 -0.42622,0.0227 0.42584,-0.13119 0.24708,0.0148" style="fill:none;stroke:#000000;stroke-width:1.30769;stroke-linecap:round;stroke-linejoin:round;stroke-miterlimit:10;stroke-dasharray:none;stroke-opacity:1" id="path1490" sodipodi:nodetypes="ccc" />
         </g>
         <g id="g1492" transform="matrix(1,0,0,-1,0,41.005097)">
            <path d="m 837.312,-587.566 c 1.06648,0.0656 2.19406,0.18714 3.08242,-0.56825 1.34593,-0.96806 2.24352,-2.74107 1.68627,-4.39216 0.0115,-1.83763 -2.44622,-3.25334 -4.0022,-2.21346 -0.22208,0.18373 -0.27599,0.50192 -0.18735,0.76677" style="fill:none;stroke:#000000;stroke-width:1.30769;stroke-linecap:round;stroke-linejoin:round;stroke-miterlimit:10;stroke-dasharray:none;stroke-opacity:1" id="path1494" />
         </g>
         <g id="g1496" transform="matrix(1,0,0,-1,0,41.005097)">
            <path d="m 842.797,-587.223 c -0.55958,-0.0393 -0.67101,0.0699 -0.0908,-0.1253 0.51367,-0.79736 0.66244,-1.8297 1.41575,-2.32639 0.87921,-0.8973 1.38006,-2.08617 1.99327,-3.16699 0.27441,-0.80607 0.6915,-1.35439 1.14991,-1.91046 0.41468,-0.40426 0.36243,-0.43086 0.35301,-0.4107 -0.11568,0.053 -0.15407,0.18048 -0.23501,0.26757" style="fill:none;stroke:#000000;stroke-width:1.30769;stroke-linecap:round;stroke-linejoin:round;stroke-miterlimit:10;stroke-dasharray:none;stroke-opacity:1" id="path1498" />
         </g>
         <g id="g1500" transform="matrix(1,0,0,-1,0,41.005097)">
            <path d="m 848.07,-586.266 c -0.0967,-0.14768 0.031,-0.31619 0.16307,-0.38632 0.16255,-0.1121 0.44146,-0.23577 0.38749,-0.47755 -0.0706,-0.20549 0.18998,-0.28464 0.28716,-0.42369 0.0446,-0.0537 0.097,-0.11897 0.0963,-0.19238" style="fill:none;stroke:#000000;stroke-width:1.30769;stroke-linecap:round;stroke-linejoin:round;stroke-miterlimit:10;stroke-dasharray:none;stroke-opacity:1" id="path1502" />
         </g>
         <g id="g1544" transform="matrix(1,0,0,-1,0,41.005097)">
            <path d="m 770.645,-601.258 1.32788,-7.43383 0.0447,-0.12371 -0.11956,0.15153" style="fill:none;stroke:#000000;stroke-width:1.30769;stroke-linecap:round;stroke-linejoin:round;stroke-miterlimit:10;stroke-dasharray:none;stroke-opacity:1" id="path1546" sodipodi:nodetypes="cccc" />
         </g>
         <g id="g1548" transform="matrix(1,0,0,-1,0,41.005097)">
            <path d="m 770.645,-601.258 c 1.20546,-0.0727 3.1444,-1.10313 4.02001,-1.90125 0.74549,-0.40652 0.74981,-1.94715 0.56678,-2.7003 -0.12145,-0.75963 0.20867,-1.67294 -0.48834,-2.1152 -0.13632,-0.61209 -0.71693,-1.18458 -1.34545,-1.25581 -0.58124,-0.27487 -1.39008,0.12743 -1.7127,0.53229 0.0174,0.11289 0.29651,0.25986 0.12346,0.3703" style="fill:none;stroke:#000000;stroke-width:1.30769;stroke-linecap:round;stroke-linejoin:round;stroke-miterlimit:10;stroke-dasharray:none;stroke-opacity:1" id="path1550" sodipodi:nodetypes="ccccccc" />
         </g>
         <g id="g1552" transform="matrix(1,0,0,-1,0,41.005097)">
            <path d="m 778.336,-606.402 c -0.36519,0.0336 -0.18521,-0.4913 -0.49717,-0.44254 0.25264,-0.089 0.20699,-0.42492 0.42178,-0.55349 -0.0148,-0.17623 -0.008,-0.48278 0.17342,-0.55035 -0.16104,-0.1619 -0.0863,-0.57482 -0.43187,-0.38502 0.0441,0.0641 0.15932,0.0164 0.17392,0.10657" style="fill:none;stroke:#000000;stroke-width:1.30769;stroke-linecap:round;stroke-linejoin:round;stroke-miterlimit:10;stroke-dasharray:none;stroke-opacity:1" id="path1554" />
         </g>
         <g id="g1556" transform="matrix(1,0,0,-1,0,41.005097)">
            <path d="m 777.887,-602.859 c -0.30054,0.20188 0.47702,-0.0135 0.10401,-0.0449 0.0785,-0.0845 0.23295,-0.13033 0.24699,-0.26032" style="fill:none;stroke:#000000;stroke-width:1.30769;stroke-linecap:round;stroke-linejoin:round;stroke-miterlimit:10;stroke-dasharray:none;stroke-opacity:1" id="path1558" />
         </g>
         <g id="g1560" transform="matrix(1,0,0,-1,0,41.005097)">
            <path d="m 783.473,-606.68 c -0.29174,-0.004 -0.64834,-0.0164 -0.43527,0.2733 -0.35192,0.41704 -0.59326,0.90351 -1.17275,0.87272 -0.61852,-0.0825 -0.96037,-0.68456 -1.1516,-1.21474 -0.087,-0.19655 0.48995,-0.3123 0.0912,-0.35579 0.62044,-0.15966 0.97546,0.50305 1.3669,0.84908 0.2485,0.24819 0.4668,0.12032 0.43062,-0.0216 0.67541,-0.0661 0.9174,-0.7899 1.3659,-1.20865 0.33776,-0.51644 0.35701,-1.19141 0.31545,-1.79259 -0.0995,-0.52395 -0.54326,-0.93389 -1.061,-1.02481 -0.2761,-0.51221 -0.99215,-0.48 -1.50689,-0.50673 -0.52698,0.0758 -1.24355,0.20954 -1.41749,0.79554 0.15815,0.32962 0.15402,0.74718 0.50314,0.9833" style="fill:none;stroke:#000000;stroke-width:1.30769;stroke-linecap:round;stroke-linejoin:round;stroke-miterlimit:10;stroke-dasharray:none;stroke-opacity:1" id="path1562" />
         </g>
         <g id="g1564" transform="matrix(1,0,0,-1,0,41.005097)">
            <path d="m 787.391,-605.605 c -0.1416,-0.27882 -0.37594,-0.40279 -0.0412,-0.5251 -0.0548,-0.35522 0.10741,-0.80772 0.0332,-1.06415 -0.14079,-0.0365 0.17055,-0.0217 0.19907,-0.0678" style="fill:none;stroke:#000000;stroke-width:1.30769;stroke-linecap:round;stroke-linejoin:round;stroke-miterlimit:10;stroke-dasharray:none;stroke-opacity:1" id="path1566" />
         </g>
         <g id="g1568" transform="matrix(1,0,0,-1,0,41.005097)">
            <path d="m 788.703,-602.195 c 0.37339,-0.31651 0.63089,-0.67685 0.52213,-1.19921 0.2204,-0.48255 0.21514,-1.07098 0.53059,-1.49799 0.0773,-0.52498 -0.0789,-1.18215 0.36425,-1.57083 -0.11132,-0.50506 0.11187,-1.03533 0.26203,-1.52663 -0.0389,-0.0865 0.25266,-0.0972 0.18385,-0.0693" style="fill:none;stroke:#000000;stroke-width:1.30769;stroke-linecap:round;stroke-linejoin:round;stroke-miterlimit:10;stroke-dasharray:none;stroke-opacity:1" id="path1570" />
         </g>
         <g id="g1572" transform="matrix(1,0,0,-1,0,41.005097)">
            <path d="m 787.93,-603.516 c 0.17183,-0.26097 0.42155,-0.14182 0.70149,-0.19242 0.56909,0.0676 1.14489,0.008 1.71053,-0.0666 0.12687,-0.0255 0.25424,-0.0612 0.38497,-0.0532" style="fill:none;stroke:#000000;stroke-width:1.30769;stroke-linecap:round;stroke-linejoin:round;stroke-miterlimit:10;stroke-dasharray:none;stroke-opacity:1" id="path1574" />
         </g>
         <g id="g1576" transform="matrix(1,0,0,-1,0,41.005097)">
            <path d="m 793.848,-606.145 c -0.3833,-0.4115 -1.2809,-0.57762 -0.82971,-1.18217 0.10011,-0.50553 -0.078,0.0831 0.31867,0.16906 0.0238,0.8823 0.89531,0.36249 1.13479,-0.0998 -0.29674,0.0261 0.35529,-0.16682 0.41511,-0.0741" style="fill:none;stroke:#000000;stroke-width:1.30769;stroke-linecap:round;stroke-linejoin:round;stroke-miterlimit:10;stroke-dasharray:none;stroke-opacity:1" id="path1578" />
         </g>
         <g id="g1580" transform="matrix(1,0,0,-1,0,41.005097)">
            <path d="m 796.156,-601.27 c 0.55303,-0.0623 -0.26389,-0.67043 0.17597,-1.02829 0.27772,-0.63592 0.008,-1.35268 0.21472,-2.01488 0.1317,-0.63466 0.0177,-1.30581 0.29035,-1.92199 0.36047,-0.97015 0.0921,-2.01784 0.1991,-3.01712 0.19287,-0.41984 0.0202,-0.0381 -0.0436,0.10429" style="fill:none;stroke:#000000;stroke-width:1.30769;stroke-linecap:round;stroke-linejoin:round;stroke-miterlimit:10;stroke-dasharray:none;stroke-opacity:1" id="path1582" />
         </g>
         <g id="g1584" transform="matrix(1,0,0,-1,0,41.005097)">
            <path d="m 800.199,-608.945 c 0.16788,-0.75336 0.15112,0.68794 0.14052,0.9056 -0.0502,1.40571 -0.45012,2.81021 -0.17375,4.218 -0.2623,1.13857 0.42157,2.34647 -0.14961,3.44148 -0.33966,0.52039 -0.1002,1.46838 0.47954,0.63156 0.92439,-0.94138 1.53188,-2.13177 2.38159,-3.1338 0.8576,-0.65175 1.33204,-1.69164 2.13009,-2.39504 0.16385,-0.60679 0.73458,-0.73041 0.86019,-0.0271 0.51825,0.96434 1.18113,1.86331 1.51531,2.91676 0.75013,0.89554 0.28657,2.23231 0.82281,3.18403 0.63853,-0.16035 0.92452,-1.11132 1.15525,-1.71355 0.0572,-1.42565 0.31068,-2.836 0.29794,-4.2638 0.25055,-0.9121 -0.007,-1.76333 0.33548,-2.6159 0.12626,-0.32757 -0.19243,-0.77479 0.15276,-0.25788 l -0.0117,0.0562 -0.0405,0.0535" style="fill:none;stroke:#000000;stroke-width:1.30769;stroke-linecap:round;stroke-linejoin:round;stroke-miterlimit:10;stroke-dasharray:none;stroke-opacity:1" id="path1586" />
         </g>
         <g id="g1588" transform="matrix(1,0,0,-1,0,41.005097)">
            <path d="m 814.055,-603.848 c 0.0896,0.79229 -0.2497,1.16529 0.54112,1.69826 0.77419,0.91396 1.97106,0.49197 2.51994,-0.34173 0.48576,-0.94893 1.41398,-1.73698 1.19634,-2.82986 0.005,-0.674 0.55047,-1.94306 0.57554,-2.11149 -0.076,0.59094 0.0605,2.24903 -1.01655,2.33668 -1.15106,-0.0187 -2.13914,-0.67613 -3.07933,-1.26945 -0.69242,-0.45278 -0.7381,-1.40616 0.2446,-1.36392 0.95833,-0.30055 2.0514,-0.26011 2.97681,0.12648 0.66906,0.31188 -0.25149,0.45668 0.25855,0.74543 -0.017,0.19734 -0.19388,0.33084 -0.26816,0.5056" style="fill:none;stroke:#000000;stroke-width:1.30769;stroke-linecap:round;stroke-linejoin:round;stroke-miterlimit:10;stroke-dasharray:none;stroke-opacity:1" id="path1590" />
         </g>
         <g id="g1592" transform="matrix(1,0,0,-1,0,41.005097)">
            <path d="m 825.387,-601.672 c 1.04386,0.0882 -0.62958,-0.2141 -0.92519,-0.5754 -0.90741,-0.51172 -2.02924,-0.53578 -2.83093,-1.26261 -0.81822,-0.61657 0.81106,-1.035 1.31473,-1.11022 0.97869,-0.27242 2.90215,-0.16125 2.66658,-1.64932 -0.15004,-1.10843 -1.69496,-1.02429 -2.60354,-1.01793 -0.88223,0.0135 -2.39847,0.32308 -1.22065,1.3233 l 0.0841,0.0992 0.15092,0.16977" style="fill:none;stroke:#000000;stroke-width:1.30769;stroke-linecap:round;stroke-linejoin:round;stroke-miterlimit:10;stroke-dasharray:none;stroke-opacity:1" id="path1594" />
         </g>
         <g id="g1596" transform="matrix(1,0,0,-1,0,41.005097)">
            <path d="m 828.727,-599.02 c 0.3096,-1.33209 -0.21397,-2.72922 0.16141,-4.07027 -0.3111,-1.46356 0.25205,-2.74063 0.89503,-4.07629 l 0.24257,-0.23506 c -0.63554,0.13047 -0.13336,-0.003 -0.13097,0.19461" style="fill:none;stroke:#000000;stroke-width:1.30769;stroke-linecap:round;stroke-linejoin:round;stroke-miterlimit:10;stroke-dasharray:none;stroke-opacity:1" id="path1598" />
         </g>
         <g id="g1600" transform="matrix(1,0,0,-1,0,41.005097)">
            <path d="m 827.52,-603.898 c 0.7456,0.53762 2.55147,0.75158 3.83614,0.55594 0.18617,-0.0182 1.52733,-0.0134 0.81984,-0.0131" style="fill:none;stroke:#000000;stroke-width:1.30769;stroke-linecap:round;stroke-linejoin:round;stroke-miterlimit:10;stroke-dasharray:none;stroke-opacity:1" id="path1602" />
         </g>
         <g id="g1604" transform="matrix(1,0,0,-1,0,41.005097)">
            <path d="m 834.426,-603.98 c 0.68273,-0.71544 3.88672,0.1682 2.17416,0.86809 -2.15198,-0.0603 -1.57956,-3.71315 0.40685,-3.70084 1.11238,-0.37419 2.50008,-0.0225 3.22795,0.87261 -0.0587,0.0863 -0.22589,0.17827 0.035,0.2492" style="fill:none;stroke:#000000;stroke-width:1.30769;stroke-linecap:round;stroke-linejoin:round;stroke-miterlimit:10;stroke-dasharray:none;stroke-opacity:1" id="path1606" />
         </g>
         <g id="g1608" transform="matrix(1,0,0,-1,0,41.005097)">
            <path d="m 842.781,-606.734 c 0.0932,0.36594 -0.0909,0.73055 -0.19768,1.07444 -0.2327,0.65177 -0.54221,1.28241 -0.67306,1.96606 -0.45555,0.6122 -0.37468,1.55498 0.21297,2.05331 0.4074,0.36647 1.03373,0.46436 1.53383,0.24783 0.54835,-0.12492 1.13129,-0.0544 1.66658,-0.24101 0.18934,-0.0589 0.16222,-0.24579 0.0284,-0.35065" style="fill:none;stroke:#000000;stroke-width:1.30769;stroke-linecap:round;stroke-linejoin:round;stroke-miterlimit:10;stroke-dasharray:none;stroke-opacity:1" id="path1610" />
         </g>
      </g>
   </g>
</svg>
