<?xml version="1.0" encoding="UTF-8" standalone="no"?>
<!-- Created by Ashley Blewer - This work is licensed under a Creative Commons Attribution 4.0 International License -->

<svg width="544" height="480" viewBox="0 0 143.93334 127" version="1.1" id="svg2490" inkscape:version="1.1.2 (08b2f3d93c, 2022-04-05)" sodipodi:docname="2003-xdcam-4.svg"
   xmlns:inkscape="http://www.inkscape.org/namespaces/inkscape"
   xmlns:sodipodi="http://sodipodi.sourceforge.net/DTD/sodipodi-0.dtd"
   xmlns="http://www.w3.org/2000/svg"
   xmlns:svg="http://www.w3.org/2000/svg">
   <sodipodi:namedview id="namedview2492" pagecolor="#ffffff" bordercolor="#666666" borderopacity="1.0" inkscape:pageshadow="2" inkscape:pageopacity="0.0" inkscape:pagecheckerboard="0" inkscape:document-units="mm" showgrid="false" units="px" inkscape:zoom="0.90583674" inkscape:cx="279.29978" inkscape:cy="194.84747" inkscape:window-width="1848" inkscape:window-height="1136" inkscape:window-x="72" inkscape:window-y="27" inkscape:window-maximized="1" inkscape:current-layer="layer1" />
   <defs id="defs2487" />
   <g inkscape:label="Layer 1" inkscape:groupmode="layer" id="layer1">
      <g id="g8246" transform="matrix(0.60598017,0,0,0.60598017,-565.8852,-318.80445)">
         <g id="g2042" transform="matrix(1,0,0,-1,0,792)">
            <g id="g2044">
               <path d="m 974.44159,115.15582 c 0,0 -16.77534,43.1583 -14.18259,59.104 l 0.81491,2.15725" style="fill:none;stroke:#000000;stroke-width:2.61538;stroke-linecap:round;stroke-linejoin:round;stroke-miterlimit:10;stroke-dasharray:none;stroke-opacity:1" id="path2046" sodipodi:nodetypes="ccc" />
            </g>
         </g>
         <g id="g2048" transform="matrix(1,0,0,-1,0,792)">
            <g id="g2050">
               <path d="m 961.07391,176.41707 c 3.11971,-2.47032 3.22805,2.35833 2.66321,4.66347 -1.61326,4.51996 -2.80852,8.98016 -4.1201,13.77213 -2.67842,9.51725 -3.06083,2.13518 -5.65877,5.70977" style="fill:none;stroke:#000000;stroke-width:2.61538;stroke-linecap:round;stroke-linejoin:round;stroke-miterlimit:10;stroke-dasharray:none;stroke-opacity:1" id="path2052" sodipodi:nodetypes="cccc" />
            </g>
         </g>
         <g id="g2054" transform="matrix(1,0,0,-1,0,792)">
            <g id="g2056">
               <path d="m 953.95825,200.56244 -5.87675,28.98797" style="fill:none;stroke:#000000;stroke-width:2.61538;stroke-linecap:round;stroke-linejoin:round;stroke-miterlimit:10;stroke-dasharray:none;stroke-opacity:1" id="path2058" sodipodi:nodetypes="cc" />
            </g>
         </g>
         <g id="g2060" transform="matrix(1,0,0,-1,0,792)">
            <g id="g2062">
               <path d="m 948.0815,229.55041 70.344,15.8098" style="fill:none;stroke:#000000;stroke-width:2.61538;stroke-linecap:round;stroke-linejoin:round;stroke-miterlimit:10;stroke-dasharray:none;stroke-opacity:1" id="path2064" sodipodi:nodetypes="cc" />
            </g>
         </g>
         <g id="g2066" transform="matrix(1,0,0,-1,0,792)">
            <g id="g2068">
               <path d="m 1018.4255,245.36021 c 6.5176,-4.61789 14.6555,-11.7021 21.2063,-16.2707" style="fill:none;stroke:#000000;stroke-width:2.61538;stroke-linecap:round;stroke-linejoin:round;stroke-miterlimit:10;stroke-dasharray:none;stroke-opacity:1" id="path2070" sodipodi:nodetypes="cc" />
            </g>
         </g>
         <g id="g2072" transform="matrix(1,0,0,-1,0,792)">
            <g id="g2074">
               <path d="m 1039.6318,229.08951 c 1.2541,-2.53276 3.333,-8.25724 4.6527,-12.05273 2.4698,-3.1715 0.064,-6.6504 -0.7005,-8.90467 0.4384,-2.36766 4.3918,-5.03628 4.84,-7.37891" style="fill:none;stroke:#000000;stroke-width:2.61538;stroke-linecap:round;stroke-linejoin:round;stroke-miterlimit:10;stroke-dasharray:none;stroke-opacity:1" id="path2076" sodipodi:nodetypes="cccc" />
            </g>
         </g>
         <g id="g2078" transform="matrix(1,0,0,-1,0,792)">
            <g id="g2080">
               <path d="m 1048.424,200.7532 12.2653,-61.90917" style="fill:none;stroke:#000000;stroke-width:2.61538;stroke-linecap:round;stroke-linejoin:round;stroke-miterlimit:10;stroke-dasharray:none;stroke-opacity:1" id="path2082" sodipodi:nodetypes="cc" />
            </g>
         </g>
         <g id="g2084" transform="matrix(1,0,0,-1,0,792)">
            <g id="g2086">
               <path d="m 974.44159,115.15582 c 8.95468,2.78579 19.00772,4.80617 28.06631,7.12541 10.8861,3.50207 58.9062,7.05493 58.1814,16.5628" style="fill:none;stroke:#000000;stroke-width:2.61538;stroke-linecap:round;stroke-linejoin:round;stroke-miterlimit:10;stroke-dasharray:none;stroke-opacity:1" id="path2088" sodipodi:nodetypes="ccc" />
            </g>
         </g>
         <g id="g2090" transform="matrix(1,0,0,-1,0,792)">
            <g id="g2092">
               <path d="m 1072.2716,144.91771 c 0,0 -17.3121,83.95196 -17.9359,83.948" style="fill:none;stroke:#000000;stroke-width:2.61538;stroke-linecap:round;stroke-linejoin:round;stroke-miterlimit:10;stroke-dasharray:none;stroke-opacity:1" id="path2094" sodipodi:nodetypes="cc" />
            </g>
         </g>
         <g id="g2096" transform="matrix(1,0,0,-1,0,792)">
            <g id="g2098">
               <path d="m 1054.3357,228.86571 c 27.4172,5.35074 54.9358,10.21129 82.2036,16.30125" style="fill:none;stroke:#000000;stroke-width:2.61538;stroke-linecap:round;stroke-linejoin:round;stroke-miterlimit:10;stroke-dasharray:none;stroke-opacity:1" id="path2100" />
            </g>
         </g>
         <g id="g2102" transform="matrix(1,0,0,-1,0,792)">
            <g id="g2104">
               <path d="m 1136.5393,245.16696 c 0,0 17.7675,-66.44907 23.9536,-99.2735" style="fill:none;stroke:#000000;stroke-width:2.61538;stroke-linecap:round;stroke-linejoin:round;stroke-miterlimit:10;stroke-dasharray:none;stroke-opacity:1" id="path2106" sodipodi:nodetypes="cc" />
            </g>
         </g>
         <g id="g2108" transform="matrix(1,0,0,-1,0,792)">
            <g id="g2110">
               <path d="m 1160.4929,145.89346 c -5.1515,-1.12646 -11.5151,-6.71519 -9.0044,-12.49795" style="fill:none;stroke:#000000;stroke-width:2.61538;stroke-linecap:round;stroke-linejoin:round;stroke-miterlimit:10;stroke-dasharray:none;stroke-opacity:1" id="path2112" sodipodi:nodetypes="cc" />
            </g>
         </g>
         <g id="g2114" transform="matrix(1,0,0,-1,0,792)">
            <g id="g2116">
               <path d="m 1151.4885,133.39551 c -24.4516,-6.36278 -48.3891,-14.84997 -73.353,-19.11982" style="fill:none;stroke:#000000;stroke-width:2.61538;stroke-linecap:round;stroke-linejoin:round;stroke-miterlimit:10;stroke-dasharray:none;stroke-opacity:1" id="path2118" />
            </g>
         </g>
         <g id="g2120" transform="matrix(1,0,0,-1,0,792)">
            <g id="g2122">
               <path d="m 1072.2716,144.91771 5.8639,-30.64202" style="fill:none;stroke:#000000;stroke-width:2.61538;stroke-linecap:round;stroke-linejoin:round;stroke-miterlimit:10;stroke-dasharray:none;stroke-opacity:1" id="path2124" sodipodi:nodetypes="cc" />
            </g>
         </g>
         <g id="g2276" transform="matrix(1,0,0,-1,0,792)">
            <g id="g2278">
               <path d="m 1077.8075,136.38631 69.3605,15.43656" style="fill:none;stroke:#000000;stroke-width:1.30769;stroke-linecap:round;stroke-linejoin:round;stroke-miterlimit:10;stroke-dasharray:none;stroke-opacity:1" id="path2280" sodipodi:nodetypes="cc" />
            </g>
         </g>
         <g id="g2282" transform="matrix(1,0,0,-1,0,792)">
            <g id="g2284">
               <path d="m 1151.4885,133.39551 c -0.7244,5.00666 -4.7677,21.1011 -6.2681,25.62217 1.2494,0.96095 7.1765,2.24901 8.8864,1.88315 1.6596,-4.25955 3.703,-13.43254 3.703,-13.43254 1.0707,-3.21122 -8.0872,-4.66601 -8.0872,-4.66601" style="fill:none;stroke:#000000;stroke-width:1.30769;stroke-linecap:round;stroke-linejoin:round;stroke-miterlimit:10;stroke-dasharray:none;stroke-opacity:1" id="path2286" sodipodi:nodetypes="ccccc" />
            </g>
         </g>
         <g id="g2288" transform="matrix(1,0,0,-1,0,792)">
            <g id="g2290">
               <path d="m 1151.2935,133.25024 c 0.01,1.20332 -8.0351,-2.42327 -8.2945,-0.54188 l -5.608,16.82355" style="fill:none;stroke:#000000;stroke-width:1.30769;stroke-linecap:round;stroke-linejoin:round;stroke-miterlimit:10;stroke-dasharray:none;stroke-opacity:1" id="path2292" sodipodi:nodetypes="ccc" />
            </g>
         </g>
         <g id="g2294" transform="matrix(1,0,0,-1,0,792)">
            <g id="g2296">
               <path d="m 1128.9348,147.73873 5.3671,-18.67044" style="fill:none;stroke:#000000;stroke-width:1.30769;stroke-linecap:round;stroke-linejoin:round;stroke-miterlimit:10;stroke-dasharray:none;stroke-opacity:1" id="path2298" sodipodi:nodetypes="cc" />
            </g>
         </g>
         <g id="g2300" transform="matrix(1,0,0,-1,0,792)">
            <g id="g2302">
               <path d="m 1120.484,145.21636 c -0.1013,-0.23386 5.0484,-18.01665 5.0484,-18.01665" style="fill:none;stroke:#000000;stroke-width:1.30769;stroke-linecap:round;stroke-linejoin:round;stroke-miterlimit:10;stroke-dasharray:none;stroke-opacity:1" id="path2304" sodipodi:nodetypes="cc" />
            </g>
         </g>
         <g id="g2306" transform="matrix(1,0,0,-1,0,792)">
            <g id="g2308">
               <path d="m 1109.9876,142.8161 4.0721,-13.39224" style="fill:none;stroke:#000000;stroke-width:1.30769;stroke-linecap:round;stroke-linejoin:round;stroke-miterlimit:10;stroke-dasharray:none;stroke-opacity:1" id="path2310" sodipodi:nodetypes="cc" />
            </g>
         </g>
         <g id="g2312" transform="matrix(1,0,0,-1,0,792)">
            <g id="g2314">
               <path d="m 1101.5717,141.1138 c 1.2625,-4.79486 3.683,-13.64948 3.683,-13.64948" style="fill:none;stroke:#000000;stroke-width:1.30769;stroke-linecap:round;stroke-linejoin:round;stroke-miterlimit:10;stroke-dasharray:none;stroke-opacity:1" id="path2316" sodipodi:nodetypes="cc" />
            </g>
         </g>
         <g id="g2318" transform="matrix(1,0,0,-1,0,792)">
            <g id="g2320">
               <path d="m 1091.6917,139.451 4.09,-14.55985" style="fill:none;stroke:#000000;stroke-width:1.30769;stroke-linecap:round;stroke-linejoin:round;stroke-miterlimit:10;stroke-dasharray:none;stroke-opacity:1" id="path2322" sodipodi:nodetypes="cc" />
            </g>
         </g>
         <g id="g2324" transform="matrix(1,0,0,-1,0,792)">
            <g id="g2326">
               <path d="m 1077.8075,136.38631 5.0597,-14.89143" style="fill:none;stroke:#000000;stroke-width:1.30769;stroke-linecap:round;stroke-linejoin:round;stroke-miterlimit:10;stroke-dasharray:none;stroke-opacity:1" id="path2328" sodipodi:nodetypes="cc" />
            </g>
         </g>
         <g id="g2330" transform="matrix(1,0,0,-1,0,792)">
            <g id="g2332">
               <path d="m 1082.8672,121.49488 66.8281,17.11388" style="fill:none;stroke:#000000;stroke-width:1.30769;stroke-linecap:round;stroke-linejoin:round;stroke-miterlimit:10;stroke-dasharray:none;stroke-opacity:1" id="path2334" sodipodi:nodetypes="cc" />
            </g>
         </g>
         <g id="g2336" transform="matrix(1,0,0,-1,0,792)">
            <g id="g2338">
               <path d="m 965.04596,204.35522 c 1.05663,-1.91924 2.8395,-12.23719 3.89387,-14.1579" style="fill:none;stroke:#000000;stroke-width:1.30769;stroke-linecap:round;stroke-linejoin:round;stroke-miterlimit:10;stroke-dasharray:none;stroke-opacity:1" id="path2340" sodipodi:nodetypes="cc" />
            </g>
         </g>
         <g id="g2342" transform="matrix(1,0,0,-1,0,792)">
            <g id="g2344">
               <path d="m 965.04596,204.35522 c 15.12811,3.86945 43.06454,10.46046 65.33934,15.29755" style="fill:none;stroke:#000000;stroke-width:1.30769;stroke-linecap:round;stroke-linejoin:round;stroke-miterlimit:10;stroke-dasharray:none;stroke-opacity:1" id="path2346" sodipodi:nodetypes="cc" />
            </g>
         </g>
         <g id="g2348" transform="matrix(1,0,0,-1,0,792)">
            <g id="g2350">
               <path d="m 1030.3853,219.65277 3.0505,-13.79172" style="fill:none;stroke:#000000;stroke-width:1.30769;stroke-linecap:round;stroke-linejoin:round;stroke-miterlimit:10;stroke-dasharray:none;stroke-opacity:1" id="path2352" sodipodi:nodetypes="cc" />
            </g>
         </g>
         <g id="g2354" transform="matrix(1,0,0,-1,0,792)">
            <g id="g2356">
               <path d="m 968.93983,190.19732 c 21.03589,5.78044 55.93787,13.66466 64.49597,15.66373" style="fill:none;stroke:#000000;stroke-width:1.30769;stroke-linecap:round;stroke-linejoin:round;stroke-miterlimit:10;stroke-dasharray:none;stroke-opacity:1" id="path2358" sodipodi:nodetypes="cc" />
            </g>
         </g>
         <g id="g2360" transform="matrix(1,0,0,-1,0,792)">
            <g id="g2362">
               <path d="m 967.19162,179.84906 c 21.47406,7.02079 48.00738,13.54633 70.40858,16.2668" style="fill:none;stroke:#000000;stroke-width:1.30769;stroke-linecap:round;stroke-linejoin:round;stroke-miterlimit:10;stroke-dasharray:none;stroke-opacity:1" id="path2364" sodipodi:nodetypes="cc" />
            </g>
         </g>
         <g id="g2366" transform="matrix(1,0,0,-1,0,792)">
            <g id="g2368">
               <path d="m 1037.6002,196.11586 12.2173,-58.07472" style="fill:none;stroke:#000000;stroke-width:1.30769;stroke-linecap:round;stroke-linejoin:round;stroke-miterlimit:10;stroke-dasharray:none;stroke-opacity:1" id="path2370" sodipodi:nodetypes="cc" />
            </g>
         </g>
         <g id="g2372" transform="matrix(1,0,0,-1,0,792)">
            <g id="g2374">
               <path d="m 967.19162,179.84906 14.64175,-56.86968" style="fill:none;stroke:#000000;stroke-width:1.30769;stroke-linecap:round;stroke-linejoin:round;stroke-miterlimit:10;stroke-dasharray:none;stroke-opacity:1" id="path2376" sodipodi:nodetypes="cc" />
            </g>
         </g>
         <g id="g2378" transform="matrix(1,0,0,-1,0,792)">
            <g id="g2380">
               <path d="m 981.83337,122.97938 c 9.40849,1.96702 59.08303,12.82308 67.98413,15.06176" style="fill:none;stroke:#000000;stroke-width:1.30769;stroke-linecap:round;stroke-linejoin:round;stroke-miterlimit:10;stroke-dasharray:none;stroke-opacity:1" id="path2382" sodipodi:nodetypes="cc" />
            </g>
         </g>
         <g id="g2384" transform="matrix(1,0,0,-1,0,792)">
            <g id="g2386">
               <path d="m 1005.8536,149.38016 c 0.1253,1.57145 -0.3507,4.66114 -2.9891,3.58288 -2.1037,-1.40261 -3.66354,-4.02767 -0.4191,-6.72033 1.8724,-1.52394 2.5437,-3.59043 3.7615,-5.5791 1.2233,-2.03063 -1.9921,-5.05913 -3.2717,-2.48164 -0.6576,2.28541 0.059,4.86026 1.3279,6.83905 1.3929,2.0531 2.1886,4.98683 1.1549,7.3474" style="fill:none;stroke:#000000;stroke-width:1.30769;stroke-linecap:round;stroke-linejoin:round;stroke-miterlimit:10;stroke-dasharray:none;stroke-opacity:1" id="path2388" sodipodi:nodetypes="ccccccc" />
            </g>
         </g>
         <g id="g2390" transform="matrix(1,0,0,-1,0,792)">
            <g id="g2392">
               <path d="m 1013.1931,147.74773 c -1.7511,2.36804 -4.8327,-0.0933 -4.3837,-2.71361 0.5002,-2.30712 1.1925,-5.21936 3.6942,-5.59732 1.8413,0.73789 2.6206,3.21339 0.9457,4.76672 0.5452,0.46656 1.374,0.71327 2.0444,0.35663" style="fill:none;stroke:#000000;stroke-width:1.30769;stroke-linecap:round;stroke-linejoin:round;stroke-miterlimit:10;stroke-dasharray:none;stroke-opacity:1" id="path2394" sodipodi:nodetypes="ccccc" />
            </g>
         </g>
         <g id="g2396" transform="matrix(1,0,0,-1,0,792)">
            <g id="g2398">
               <path d="m 1018.6588,150.0593 0.3313,-7.20613" style="fill:none;stroke:#000000;stroke-width:1.30769;stroke-linecap:round;stroke-linejoin:round;stroke-miterlimit:10;stroke-dasharray:none;stroke-opacity:1" id="path2400" sodipodi:nodetypes="cc" />
            </g>
         </g>
         <g id="g2402" transform="matrix(1,0,0,-1,0,792)">
            <g id="g2404">
               <path d="m 1016.9667,149.29498 c 0.5499,2.33421 4.3913,4.8627 5.1725,1.32102 0.01,-1.53595 -4.0324,-4.09425 -0.5966,-3.06682 2.0309,-0.23341 5.0181,-3.39241 2.3447,-4.85573 -2.0796,-0.29664 -4.7854,-3.17834 -6.5431,-1.2222" style="fill:none;stroke:#000000;stroke-width:1.30769;stroke-linecap:round;stroke-linejoin:round;stroke-miterlimit:10;stroke-dasharray:none;stroke-opacity:1" id="path2406" />
            </g>
         </g>
      </g>
   </g>
</svg>
