<?xml version="1.0" encoding="UTF-8" standalone="no"?>
<!-- Created by Ashley Blewer - This work is licensed under a Creative Commons Attribution 4.0 International License -->

<svg width="544" height="480" viewBox="0 0 143.93334 127" version="1.1" id="svg2490" inkscape:version="1.1.2 (08b2f3d93c, 2022-04-05)" sodipodi:docname="2003-xdcam-2.svg"
   xmlns:inkscape="http://www.inkscape.org/namespaces/inkscape"
   xmlns:sodipodi="http://sodipodi.sourceforge.net/DTD/sodipodi-0.dtd"
   xmlns="http://www.w3.org/2000/svg"
   xmlns:svg="http://www.w3.org/2000/svg">
   <sodipodi:namedview id="namedview2492" pagecolor="#ffffff" bordercolor="#666666" borderopacity="1.0" inkscape:pageshadow="2" inkscape:pageopacity="0.0" inkscape:pagecheckerboard="0" inkscape:document-units="mm" showgrid="false" units="px" inkscape:zoom="0.90583674" inkscape:cx="279.29978" inkscape:cy="194.84747" inkscape:window-width="1848" inkscape:window-height="1136" inkscape:window-x="72" inkscape:window-y="27" inkscape:window-maximized="1" inkscape:current-layer="layer1" />
   <defs id="defs2487" />
   <g inkscape:label="Layer 1" inkscape:groupmode="layer" id="layer1">
      <g id="g7951" transform="matrix(0.35277777,0,0,0.35277777,-277.33311,7.9292153)">
         <g id="g1934" transform="matrix(1,0,0,-1,0,792)">
            <g id="g1936">
               <path d="m 855.68292,531.03168 -41.11217,153.18376 c -1.84697,7.47999 -3.15928,15.12504 -3.35802,22.84028" style="fill:none;stroke:#000000;stroke-width:2.61538;stroke-linecap:round;stroke-linejoin:round;stroke-miterlimit:10;stroke-dasharray:none;stroke-opacity:1" id="path1938" sodipodi:nodetypes="ccc" />
            </g>
         </g>
         <g id="g1940" transform="matrix(1,0,0,-1,0,792)">
            <g id="g1942">
               <path d="m 811.21273,707.05572 c 22.59618,10.31506 53.73682,18.74964 66.34882,22.19507 30.87761,7.66627 62.40478,12.1839 93.67607,17.87291" style="fill:none;stroke:#000000;stroke-width:2.61538;stroke-linecap:round;stroke-linejoin:round;stroke-miterlimit:10;stroke-dasharray:none;stroke-opacity:1" id="path1944" sodipodi:nodetypes="ccc" />
            </g>
         </g>
         <g id="g1946" transform="matrix(1,0,0,-1,0,792)">
            <g id="g1948">
               <path d="m 971.23762,747.1237 c 11.9273,-35.53478 19.58681,-76.94489 31.76178,-112.39662 3.942,-20.63727 12.0904,-40.42377 15.285,-61.08443" style="fill:none;stroke:#000000;stroke-width:2.61538;stroke-linecap:round;stroke-linejoin:round;stroke-miterlimit:10;stroke-dasharray:none;stroke-opacity:1" id="path1950" sodipodi:nodetypes="ccc" />
            </g>
         </g>
         <g id="g1952" transform="matrix(1,0,0,-1,0,792)">
            <g id="g1954">
               <path d="m 855.68292,531.03168 c 37.25401,6.95312 131.64295,31.70008 162.60148,42.61097" style="fill:none;stroke:#000000;stroke-width:2.61538;stroke-linecap:round;stroke-linejoin:round;stroke-miterlimit:10;stroke-dasharray:none;stroke-opacity:1" id="path1956" sodipodi:nodetypes="cc" />
            </g>
         </g>
         <g id="g1958" transform="matrix(1,0,0,-1,0,792)">
            <g id="g1960">
               <path d="m 1023.2007,579.61206 -6.2785,103.76453" style="fill:none;stroke:#000000;stroke-width:2.61538;stroke-linecap:round;stroke-linejoin:round;stroke-miterlimit:10;stroke-dasharray:none;stroke-opacity:1" id="path1962" sodipodi:nodetypes="cc" />
            </g>
         </g>
         <g id="g1964" transform="matrix(1,0,0,-1,0,792)">
            <g id="g1966">
               <path d="m 1016.9222,683.37659 c 16.1446,20.50224 39.7259,20.63359 62.3304,21.76975 17.6968,0.99964 34.6779,-4.89049 51.1727,-10.41423 0,0 6.9197,-2.07007 7.9592,-4.60309" style="fill:none;stroke:#000000;stroke-width:2.61538;stroke-linecap:round;stroke-linejoin:round;stroke-miterlimit:10;stroke-dasharray:none;stroke-opacity:1" id="path1968" sodipodi:nodetypes="cccc" />
            </g>
         </g>
         <g id="g1970" transform="matrix(1,0,0,-1,0,792)">
            <g id="g1972">
               <path d="m 1138.3845,690.12902 22.5885,-95.03685 c 0.3971,-1.26622 3.2815,-7.45058 1.6401,-6.95572" style="fill:none;stroke:#000000;stroke-width:2.61538;stroke-linecap:round;stroke-linejoin:round;stroke-miterlimit:10;stroke-dasharray:none;stroke-opacity:1" id="path1974" sodipodi:nodetypes="ccc" />
            </g>
         </g>
         <g id="g1976" transform="matrix(1,0,0,-1,0,792)">
            <g id="g1978">
               <path d="m 1023.3648,579.32949 c 0,0 18.124,-8.80843 27.9583,-7.61248 l 58.1829,4.98446 35.5627,2.99756 c 5.3502,2.49103 13.154,6.6514 17.4195,7.54253" style="fill:none;stroke:#000000;stroke-width:2.61538;stroke-linecap:round;stroke-linejoin:round;stroke-miterlimit:10;stroke-dasharray:none;stroke-opacity:1" id="path1980" sodipodi:nodetypes="ccccc" />
            </g>
         </g>
         <g id="g2126" transform="matrix(1,0,0,-1,0,792)">
            <g id="g2128">
               <path d="m 922.70541,731.47192 c 7.59068,-9.40224 21.19849,-9.44312 32.01505,-9.91227 5.48882,-0.25677 13.40491,-2.72915 18.26317,-5.48184" style="fill:none;stroke:#000000;stroke-width:1.30769;stroke-linecap:round;stroke-linejoin:round;stroke-miterlimit:10;stroke-dasharray:none;stroke-opacity:1" id="path2130" sodipodi:nodetypes="ccc" />
            </g>
         </g>
         <g id="g2132" transform="matrix(1,0,0,-1,0,792)">
            <g id="g2134">
               <path d="m 965.27758,738.91189 c 5.8369,-8.13715 26.15079,-86.34544 26.15079,-86.34544" style="fill:none;stroke:#000000;stroke-width:1.30769;stroke-linecap:round;stroke-linejoin:round;stroke-miterlimit:10;stroke-dasharray:none;stroke-opacity:1" id="path2136" sodipodi:nodetypes="cc" />
            </g>
         </g>
         <g id="g2138" transform="matrix(1,0,0,-1,0,792)">
            <g id="g2140" />
         </g>
         <g id="g2144" transform="matrix(1,0,0,-1,0,792)">
            <g id="g2146">
               <path d="m 817.95863,703.59706 c 29.83019,6.9058 64.08806,18.79702 89.79244,24.94313 17.24524,3.04752 39.94686,9.55647 57.52651,10.3717" style="fill:none;stroke:#000000;stroke-width:1.30769;stroke-linecap:round;stroke-linejoin:round;stroke-miterlimit:10;stroke-dasharray:none;stroke-opacity:1" id="path2148" sodipodi:nodetypes="ccc" />
            </g>
         </g>
         <g id="g2150" transform="matrix(1,0,0,-1,0,792)">
            <g id="g2152" />
         </g>
         <g id="g2156" transform="matrix(1,0,0,-1,0,792)">
            <g id="g2158">
               <path d="m 850.37451,711.424 c -9.05966,-23.44005 -30.48404,-37.13595 -30.48404,-37.13595" style="fill:none;stroke:#000000;stroke-width:1.30769;stroke-linecap:round;stroke-linejoin:round;stroke-miterlimit:10;stroke-dasharray:none;stroke-opacity:1" id="path2160" sodipodi:nodetypes="cc" />
            </g>
         </g>
         <g id="g2162" transform="matrix(1,0,0,-1,0,792)">
            <g id="g2164">
               <path d="m 817.95863,703.59706 c -3.6426,-16.86224 4.241,-35.88494 8.34287,-51.76747 0.38979,-0.89163 0.77959,-1.78325 1.16938,-2.67487" style="fill:none;stroke:#000000;stroke-width:1.30769;stroke-linecap:round;stroke-linejoin:round;stroke-miterlimit:10;stroke-dasharray:none;stroke-opacity:1" id="path2166" sodipodi:nodetypes="ccc" />
            </g>
         </g>
         <g id="g2168" transform="matrix(1,0,0,-1,0,792)">
            <g id="g2170">
               <path d="m 827.47088,649.15472 c 9.34521,-6.35053 10.74512,-28.45031 10.74512,-28.45031 l 20.47977,-80.71479" style="fill:none;stroke:#000000;stroke-width:1.30769;stroke-linecap:round;stroke-linejoin:round;stroke-miterlimit:10;stroke-dasharray:none;stroke-opacity:1" id="path2172" sodipodi:nodetypes="ccc" />
            </g>
         </g>
         <g id="g2174" transform="matrix(1,0,0,-1,0,792)">
            <g id="g2176" />
         </g>
         <g id="g2180" transform="matrix(1,0,0,-1,0,792)">
            <g id="g2182">
               <path d="m 840.69782,612.39131 c 24.73523,6.18111 50.43712,12.88337 75.0064,19.72852 24.65327,8.91545 50.48166,13.61029 75.72415,20.44662 l 1.92691,-0.0393 2.11032,-0.66231" style="fill:none;stroke:#000000;stroke-width:1.30769;stroke-linecap:round;stroke-linejoin:round;stroke-miterlimit:10;stroke-dasharray:none;stroke-opacity:1" id="path2184" sodipodi:nodetypes="ccccc" />
            </g>
         </g>
         <g id="g2186" transform="matrix(1,0,0,-1,0,792)">
            <g id="g2188">
               <path d="m 858.69577,539.98962 c 51.26669,10.23739 102.39157,27.22022 152.63783,41.40531" style="fill:none;stroke:#000000;stroke-width:1.30769;stroke-linecap:round;stroke-linejoin:round;stroke-miterlimit:10;stroke-dasharray:none;stroke-opacity:1" id="path2190" sodipodi:nodetypes="cc" />
            </g>
         </g>
         <g id="g2192" transform="matrix(1,0,0,-1,0,792)">
            <g id="g2194">
               <path d="m 1044.9443,597.74359 c -26.4291,17.21047 -27.9222,58.25862 -7.5145,81.04509 8.7915,9.83138 21.5715,15.6862 34.4221,17.86481 29.8649,3.79319 58.4111,-17.65387 68.9741,-44.76743 5.9462,-15.30801 4.4132,-33.93109 -5.0758,-47.85663" style="fill:none;stroke:#000000;stroke-width:1.30769;stroke-linecap:round;stroke-linejoin:round;stroke-miterlimit:10;stroke-dasharray:none;stroke-opacity:1" id="path2196" sodipodi:nodetypes="ccccc" />
            </g>
         </g>
         <g id="g2198" transform="matrix(1,0,0,-1,0,792)">
            <g id="g2200">
               <path d="m 1138.1174,579.53117 c -1.5035,25.19727 -6.8217,50.05283 -12.3701,74.60244 -2.1375,13.521 -11.805,25.00244 -25.6035,27.34224 -18.003,5.13215 -44.9197,2.64662 -53.8158,-10.36367 -8.0565,-15.93906 -1.6873,-72.18558 3.4347,-98.90752" style="fill:none;stroke:#000000;stroke-width:1.30769;stroke-linecap:round;stroke-linejoin:round;stroke-miterlimit:10;stroke-dasharray:none;stroke-opacity:1" id="path2202" sodipodi:nodetypes="ccccc" />
            </g>
         </g>
         <g id="g2204" transform="matrix(1,0,0,-1,0,792)">
            <g id="g2206">
               <path d="m 1080.5348,664.07908 c -13.9011,-2.72745 -22.9987,-21.86339 -13.7079,-33.42265 11.4267,-13.30961 37.9521,-7.62306 40.7883,10.39795 1.8842,14.25161 -12.7638,28.99664 -27.0804,23.0247 z" style="fill:none;stroke:#000000;stroke-width:1.30769;stroke-linecap:round;stroke-linejoin:round;stroke-miterlimit:10;stroke-dasharray:none;stroke-opacity:1" id="path2208" sodipodi:nodetypes="cccccc" />
            </g>
         </g>
         <g id="g2210" transform="matrix(1,0,0,-1,0,792)">
            <g id="g2212">
               <path d="m 1081.1774,657.87555 c -8.3633,-2.53313 -13.7683,-13.42498 -9.2091,-21.24989 4.4305,-5.67165 12.2264,-9.07293 19.3619,-7.61793 7.8978,2.28561 11.7317,12.42409 7.7129,19.51294 -2.9904,6.52855 -10.5698,11.65244 -17.8657,9.35488 z" style="fill:none;stroke:#000000;stroke-width:1.30769;stroke-linecap:round;stroke-linejoin:round;stroke-miterlimit:10;stroke-dasharray:none;stroke-opacity:1" id="path2214" sodipodi:nodetypes="ccccc" />
            </g>
         </g>
         <g id="g2654" transform="matrix(1,0,0,-1,0,792)">
            <g id="g2656">
               <path d="m 958.05493,637.46265 c 0.66968,2.9545 4.05963,4.92052 6.82312,3.32674 3.12599,-1.73814 1.51177,-6.53339 -0.77981,-8.45521 -1.97185,-1.55993 -1.48532,-5.67776 -3.50638,-6.30991 3.1763,1.74057 8.57755,2.69799 8.57755,2.69799" style="fill:none;stroke:#000000;stroke-width:1.30769;stroke-linecap:round;stroke-linejoin:round;stroke-miterlimit:10;stroke-dasharray:none;stroke-opacity:1" id="path2658" sodipodi:nodetypes="ccccc" />
            </g>
         </g>
         <g id="g2660" transform="matrix(1,0,0,-1,0,792)">
            <g id="g2662">
               <path d="m 970.50409,639.74475 c -2.28475,-0.69094 0.21193,1.96248 0.85453,2.86406 2.01253,2.42593 7.29283,0.98752 5.27705,-2.54214 -0.96078,-1.37286 -3.36623,-2.69206 -0.16869,-2.35431 2.77518,0.27364 6.49082,-2.33977 4.81007,-5.31467 -1.82969,-2.96768 -5.80352,-3.19857 -8.78011,-2.04024 -0.70745,0.13076 -1.08018,0.80046 -1.62332,1.19191" style="fill:none;stroke:#000000;stroke-width:1.30769;stroke-linecap:round;stroke-linejoin:round;stroke-miterlimit:10;stroke-dasharray:none;stroke-opacity:1" id="path2664" />
            </g>
         </g>
         <g id="g2666" transform="matrix(1,0,0,-1,0,792)">
            <g id="g2668">
               <path d="m 986.95422,640.3327 c 0.57409,-1.97365 -1.14435,1.74927 -2.35954,-0.10748 -2.31798,-2.11302 0.30599,-5.54908 2.30853,-6.95086 1.37748,-1.77283 2.87199,0.56181 1.21656,1.4362 0.46778,0.68734 3.21563,0.75527 1.66957,1.72791" style="fill:none;stroke:#000000;stroke-width:1.30769;stroke-linecap:round;stroke-linejoin:round;stroke-miterlimit:10;stroke-dasharray:none;stroke-opacity:1" id="path2670" />
            </g>
         </g>
         <g id="g2672" transform="matrix(1,0,0,-1,0,792)">
            <g id="g2674">
               <path d="m 990.65009,639.74426 c 0.66309,0.15351 2.71163,-4.44075 2.76538,-5.23404" style="fill:none;stroke:#000000;stroke-width:1.30769;stroke-linecap:round;stroke-linejoin:round;stroke-miterlimit:10;stroke-dasharray:none;stroke-opacity:1" id="path2676" />
            </g>
         </g>
         <g id="g2678" transform="matrix(1,0,0,-1,0,792)">
            <g id="g2680">
               <path d="m 988.8667,638.52905 c 2.60817,-1.20164 1.78089,4.95195 3.63024,1.80595 0.24937,-1.82345 -1.26062,-2.64069 1.35059,-2.65697 4.26578,-1.72901 -0.32443,-4.40772 -2.80366,-4.17465" style="fill:none;stroke:#000000;stroke-width:1.30769;stroke-linecap:round;stroke-linejoin:round;stroke-miterlimit:10;stroke-dasharray:none;stroke-opacity:1" id="path2682" />
            </g>
         </g>
         <g id="g2684" transform="matrix(1,0,0,-1,0,792)">
            <g id="g2686">
               <path d="m 971.7338,589.14335 c 0,0 1.64333,-10.05526 4.98265,-13.98126" style="fill:none;stroke:#000000;stroke-width:1.30769;stroke-linecap:round;stroke-linejoin:round;stroke-miterlimit:10;stroke-dasharray:none;stroke-opacity:1" id="path2688" sodipodi:nodetypes="cc" />
            </g>
         </g>
         <g id="g2690" transform="matrix(1,0,0,-1,0,792)">
            <g id="g2692">
               <path d="m 969.883,588.17627 c 0.38311,2.22367 2.79973,3.20616 4.83983,3.06811 2.9894,-0.13313 6.03108,-1.17469 8.293,-3.1657 2.06992,-1.86116 3.49373,-5.05955 2.09008,-7.71673 -1.7346,-2.88975 -4.90218,-5.29414 -8.38946,-5.19986 -0.87875,0.11 -2.41881,0.31245 -1.86956,1.52576" style="fill:none;stroke:#000000;stroke-width:1.30769;stroke-linecap:round;stroke-linejoin:round;stroke-miterlimit:10;stroke-dasharray:none;stroke-opacity:1" id="path2694" />
            </g>
         </g>
         <g id="g2696" transform="matrix(1,0,0,-1,0,792)">
            <g id="g2698">
               <path d="m 986.66047,588.2535 c 1.50289,-2.23433 1.85852,-5.04401 3.36713,-7.26425" style="fill:none;stroke:#000000;stroke-width:1.30769;stroke-linecap:round;stroke-linejoin:round;stroke-miterlimit:10;stroke-dasharray:none;stroke-opacity:1" id="path2700" />
            </g>
         </g>
         <g id="g2702" transform="matrix(1,0,0,-1,0,792)">
            <g id="g2704">
               <path d="m 982.724,593.35132 0.31122,-0.12189 -0.24597,0.14984 0.15356,0.13819 -0.18567,-0.0175 0.10602,-0.2041 0.49914,-0.21777 0.20166,0.12005" style="fill:none;stroke:#000000;stroke-width:1.30769;stroke-linecap:round;stroke-linejoin:round;stroke-miterlimit:10;stroke-dasharray:none;stroke-opacity:1" id="path2706" />
            </g>
         </g>
         <g id="g2708" transform="matrix(1,0,0,-1,0,792)">
            <g id="g2710">
               <path d="m 995.03198,591.62274 c -1.64426,0.21934 -3.78355,-0.83663 -3.90675,-2.64182 0.76625,-1.99626 3.42251,-0.30585 4.77638,-1.57542 1.20782,-0.65477 2.48213,-2.73982 0.97721,-3.73891 -1.12838,-0.33786 -3.06567,-0.76867 -4.02071,-0.009" style="fill:none;stroke:#000000;stroke-width:1.30769;stroke-linecap:round;stroke-linejoin:round;stroke-miterlimit:10;stroke-dasharray:none;stroke-opacity:1" id="path2712" />
            </g>
         </g>
         <g id="g2714" transform="matrix(1,0,0,-1,0,792)">
            <g id="g2716">
               <path d="m 1004.1423,594.78705 c -2.4606,0.008 -3.2502,-2.89019 -2.8764,-4.88486 0.2709,-2.21335 1.372,-4.96762 3.8989,-5.26001 2.1053,-0.22607 4.3256,0.2831 6.1182,1.41001 l 0.1486,0.15556" style="fill:none;stroke:#000000;stroke-width:1.30769;stroke-linecap:round;stroke-linejoin:round;stroke-miterlimit:10;stroke-dasharray:none;stroke-opacity:1" id="path2718" />
            </g>
         </g>
         <g id="g2720" transform="matrix(1,0,0,-1,0,792)">
            <g id="g2722">
               <path d="m 1071.0507,670.45105 c -1.3586,0.64237 -3.6357,-0.72754 -4.7562,-1.22346 0.1244,-0.0357 2.4576,-0.94706 3.8692,-1.62027 1.9224,-2.17302 -5.1304,-2.25837 -2.6033,-1.58654" style="fill:none;stroke:#000000;stroke-width:1.30769;stroke-linecap:round;stroke-linejoin:round;stroke-miterlimit:10;stroke-dasharray:none;stroke-opacity:1" id="path2724" />
            </g>
         </g>
         <g id="g2726" transform="matrix(1,0,0,-1,0,792)">
            <g id="g2728">
               <path d="m 1073.563,669.12671 c -0.5673,-2.41914 5.3519,-2.98525 4.2401,-0.75204 -0.1173,1.30694 -5.1674,1.897 -4.2401,0.75204" style="fill:none;stroke:#000000;stroke-width:1.30769;stroke-linecap:round;stroke-linejoin:round;stroke-miterlimit:10;stroke-dasharray:none;stroke-opacity:1" id="path2730" sodipodi:nodetypes="ccc" />
            </g>
         </g>
         <g id="g2732" transform="matrix(1,0,0,-1,0,792)">
            <g id="g2734">
               <path d="m 1081.0438,666.48975 c 1.8222,0.70224 -1.3625,4.15247 1.5556,3.1348 1.4509,0.0326 4.7513,-3.64682 4.3021,-0.52295 -0.062,0.52785 0.396,0.86611 0.7132,1.19862" style="fill:none;stroke:#000000;stroke-width:1.30769;stroke-linecap:round;stroke-linejoin:round;stroke-miterlimit:10;stroke-dasharray:none;stroke-opacity:1" id="path2736" />
            </g>
         </g>
         <g id="g2738" transform="matrix(1,0,0,-1,0,792)">
            <g id="g2740">
               <path d="m 1090.7596,671.20941 c -0.5919,-2.27331 5.388,-2.89811 4.0923,-0.55659 -0.4757,1.68275 2.754,-1.07171 2.754,-1.07171 0.9195,-2.0474 -1.5895,-4.12638 -3.6552,-4.07482 l -0.3491,-0.0435 -0.3378,-0.0329" style="fill:none;stroke:#000000;stroke-width:1.30769;stroke-linecap:round;stroke-linejoin:round;stroke-miterlimit:10;stroke-dasharray:none;stroke-opacity:1" id="path2742" sodipodi:nodetypes="cccccc" />
            </g>
         </g>
         <g id="g2744" transform="matrix(1,0,0,-1,0,792)">
            <g id="g2746">
               <path d="m 856.8587,610.38629 c -1.69929,1.02059 -3.83136,0.33809 -5.54639,-0.32477 -1.48986,-0.3551 -3.49861,-2.50368 -1.22635,-3.36279 1.59423,-0.76337 3.26482,1.15657 5.08969,0.47467 1.92819,0.24278 2.5954,-2.86497 0.68693,-3.09435 -2.03466,-0.37172 -3.94364,-1.64053 -6.05887,-1.41907 -0.6688,0.13186 -0.74322,0.88731 -0.60027,1.42102" style="fill:none;stroke:#000000;stroke-width:1.30769;stroke-linecap:round;stroke-linejoin:round;stroke-miterlimit:10;stroke-dasharray:none;stroke-opacity:1" id="path2748" />
            </g>
         </g>
         <g id="g2750" transform="matrix(1,0,0,-1,1.5,792)">
            <g id="g2752">
               <path d="m 864.58875,612.97755 c -2.11532,1.41401 -3.92413,-1.99121 -3.4896,-3.91635 0.0424,-2.51105 2.91694,-2.78274 4.77558,-2.26055 2.00726,0.49647 3.56842,3.33371 1.84967,4.96029 -1.41436,0.92978 -3.21196,1.40916 -4.90257,1.47179" style="fill:none;stroke:#000000;stroke-width:1.30769;stroke-linecap:round;stroke-linejoin:round;stroke-miterlimit:10;stroke-dasharray:none;stroke-opacity:1" id="path2754" sodipodi:nodetypes="ccccc" />
            </g>
         </g>
         <g id="g2756" transform="matrix(1,0,0,-1,0,792)">
            <g id="g2758">
               <path d="m 876.20997,609.28104 c 0,0 -1.32949,4.30377 -1.77138,5.71474 -0.59785,2.27797 2.5473,0.57365 3.34538,-0.12483 1.16144,-0.83211 5.9098,-5.29396 4.73879,-2.61948 -0.35902,0.79816 -1.89561,4.69649 -1.96838,5.60819" style="fill:none;stroke:#000000;stroke-width:1.30769;stroke-linecap:round;stroke-linejoin:round;stroke-miterlimit:10;stroke-dasharray:none;stroke-opacity:1" id="path2760" sodipodi:nodetypes="ccccc" />
            </g>
         </g>
         <g id="g2762" transform="matrix(1,0,0,-1,0,792)">
            <g id="g2764">
               <path d="m 886.85858,618.7688 c 0,0 2.94383,-0.99223 4.48248,-1.18956" style="fill:none;stroke:#000000;stroke-width:1.30769;stroke-linecap:round;stroke-linejoin:round;stroke-miterlimit:10;stroke-dasharray:none;stroke-opacity:1" id="path2766" sodipodi:nodetypes="cc" />
            </g>
         </g>
         <g id="g2768" transform="matrix(1,0,0,-1,0,792)">
            <g id="g2770">
               <path d="m 893.88873,620.82336 -2.54767,-3.24412" style="fill:none;stroke:#000000;stroke-width:1.30769;stroke-linecap:round;stroke-linejoin:round;stroke-miterlimit:10;stroke-dasharray:none;stroke-opacity:1" id="path2772" sodipodi:nodetypes="cc" />
            </g>
         </g>
         <g id="g2774" transform="matrix(1,0,0,-1,0,792)">
            <g id="g2776">
               <path d="m 891.34106,617.57924 1.42579,-4.86507" style="fill:none;stroke:#000000;stroke-width:1.30769;stroke-linecap:round;stroke-linejoin:round;stroke-miterlimit:10;stroke-dasharray:none;stroke-opacity:1" id="path2778" sodipodi:nodetypes="cc" />
            </g>
         </g>
      </g>
   </g>
</svg>
