<?xml version="1.0" encoding="UTF-8" standalone="no"?>
<!-- Created by Ashley Blewer - This work is licensed under a Creative Commons Attribution 4.0 International License -->

<svg width="544" height="480" viewBox="0 0 143.93334 127" version="1.1" id="svg2490" inkscape:version="1.1.2 (08b2f3d93c, 2022-04-05)" sodipodi:docname="2003-xdcam-3.svg"
   xmlns:inkscape="http://www.inkscape.org/namespaces/inkscape"
   xmlns:sodipodi="http://sodipodi.sourceforge.net/DTD/sodipodi-0.dtd"
   xmlns="http://www.w3.org/2000/svg"
   xmlns:svg="http://www.w3.org/2000/svg">
   <sodipodi:namedview id="namedview2492" pagecolor="#ffffff" bordercolor="#666666" borderopacity="1.0" inkscape:pageshadow="2" inkscape:pageopacity="0.0" inkscape:pagecheckerboard="0" inkscape:document-units="mm" showgrid="false" units="px" inkscape:zoom="0.90583674" inkscape:cx="279.29978" inkscape:cy="194.84747" inkscape:window-width="1848" inkscape:window-height="1136" inkscape:window-x="72" inkscape:window-y="27" inkscape:window-maximized="1" inkscape:current-layer="layer1" />
   <defs id="defs2487" />
   <g inkscape:label="Layer 1" inkscape:groupmode="layer" id="layer1">
      <g id="g8136" transform="matrix(0.35277777,0,0,0.35277777,-272.5817,-80.390293)">
         <g id="g1982" transform="matrix(1,0,0,-1,0,792)">
            <g id="g1984">
               <path d="m 792.604,463.50615 c 3.38864,6.65107 183.15741,15.63001 183.15741,15.63001 27.61329,0.46072 38.51629,6.52144 38.93609,-15.14683" style="fill:none;stroke:#000000;stroke-width:2.61538;stroke-linecap:round;stroke-linejoin:round;stroke-miterlimit:10;stroke-dasharray:none;stroke-opacity:1" id="path1986" sodipodi:nodetypes="ccc" />
            </g>
         </g>
         <g id="g1988" transform="matrix(1,0,0,-1,0,792)">
            <g id="g1990">
               <path d="m 792.47168,463.52019 c -2.96606,-21.81345 -4.42517,-43.87504 -5.10193,-65.82111 0,0 -3.35139,-47.93729 2.24471,-48.84451 l 226.42054,19.30611 c 7.84,8.09248 11.1425,13.92809 8.5075,24.19548" style="fill:none;stroke:#000000;stroke-width:2.61538;stroke-linecap:round;stroke-linejoin:round;stroke-miterlimit:10;stroke-dasharray:none;stroke-opacity:1" id="path1992" sodipodi:nodetypes="ccccc" />
            </g>
         </g>
         <g id="g1994" transform="matrix(1,0,0,-1,0,792)">
            <g id="g1996">
               <path d="m 795.93799,457.99194 c -0.29105,-31.00469 -1.97641,-62.14908 -4.0277,-92.9593 0.30261,-1.80528 0.29906,-6.32353 1.12203,-7.9239" style="fill:none;stroke:#000000;stroke-width:2.61538;stroke-linecap:round;stroke-linejoin:round;stroke-miterlimit:10;stroke-dasharray:none;stroke-opacity:1" id="path1998" sodipodi:nodetypes="ccc" />
            </g>
         </g>
         <g id="g2000" transform="matrix(1,0,0,-1,0,792)">
            <g id="g2002">
               <path d="m 793.03232,357.10874 211.75858,14.69682 c 0,0 16.4853,-1.92029 15.2552,16.74736" style="fill:none;stroke:#000000;stroke-width:2.61538;stroke-linecap:round;stroke-linejoin:round;stroke-miterlimit:10;stroke-dasharray:none;stroke-opacity:1" id="path2004" sodipodi:nodetypes="ccc" />
            </g>
         </g>
         <g id="g2006" transform="matrix(1,0,0,-1,0,792)">
            <g id="g2008">
               <path d="M 991.29944,420.42484 1150.7639,321.94139" style="fill:none;stroke:#000000;stroke-width:2.61538;stroke-linecap:round;stroke-linejoin:round;stroke-miterlimit:10;stroke-dasharray:none;stroke-opacity:1" id="path2010" sodipodi:nodetypes="cc" />
            </g>
         </g>
         <g id="g2012" transform="matrix(1,0,0,-1,0,792)">
            <g id="g2014">
               <path d="m 991.26886,423.5849 c -0.26016,-1.99747 0.26655,-5.04298 0.11906,-7.05612 0.58822,-1.2607 0.26585,-2.91487 1.2764,-3.96497 0.0561,-0.0297 0.11223,-0.0595 0.16834,-0.0892" style="fill:none;stroke:#000000;stroke-width:2.61538;stroke-linecap:round;stroke-linejoin:round;stroke-miterlimit:10;stroke-dasharray:none;stroke-opacity:1" id="path2016" sodipodi:nodetypes="cccc" />
            </g>
         </g>
         <g id="g2018" transform="matrix(1,0,0,-1,0,792)">
            <g id="g2020">
               <path d="m 992.83266,412.47461 c -1.93333,-3.52579 154.58864,-97.171 154.58864,-97.171 1.6133,2.03594 2.4554,5.32759 3.3426,6.63778" style="fill:none;stroke:#000000;stroke-width:2.61538;stroke-linecap:round;stroke-linejoin:round;stroke-miterlimit:10;stroke-dasharray:none;stroke-opacity:1" id="path2022" sodipodi:nodetypes="ccc" />
            </g>
         </g>
         <g id="g2024" transform="matrix(1,0,0,-1,0,792)">
            <g id="g2026">
               <path d="m 1150.7639,321.94139 c 6.2713,15.67697 17.5495,33.4696 22.7599,49.56306 0,0 3.3062,6.50796 -0.6737,8.63214" style="fill:none;stroke:#000000;stroke-width:2.61538;stroke-linecap:round;stroke-linejoin:round;stroke-miterlimit:10;stroke-dasharray:none;stroke-opacity:1" id="path2028" sodipodi:nodetypes="ccc" />
            </g>
         </g>
         <g id="g2030" transform="matrix(1,0,0,-1,0,792)">
            <g id="g2032">
               <path d="m 991.26886,423.5849 32.32414,54.89296" style="fill:none;stroke:#000000;stroke-width:2.61538;stroke-linecap:round;stroke-linejoin:round;stroke-miterlimit:10;stroke-dasharray:none;stroke-opacity:1" id="path2034" sodipodi:nodetypes="cc" />
            </g>
         </g>
         <g id="g2036" transform="matrix(1,0,0,-1,0,792)">
            <g id="g2038">
               <path d="m 1023.593,478.47786 c 48.9895,-34.70259 149.2571,-98.34127 149.2571,-98.34127" style="fill:none;stroke:#000000;stroke-width:2.61538;stroke-linecap:round;stroke-linejoin:round;stroke-miterlimit:10;stroke-dasharray:none;stroke-opacity:1" id="path2040" sodipodi:nodetypes="cc" />
            </g>
         </g>
         <g id="g2216" transform="matrix(1,0,0,-1,0,792)">
            <g id="g2218">
               <path d="m 1059.2221,445.047 c 8.2668,-4.66599 33.4437,-19.83856 33.4437,-19.83856" style="fill:none;stroke:#000000;stroke-width:1.30769;stroke-linecap:round;stroke-linejoin:round;stroke-miterlimit:10;stroke-dasharray:none;stroke-opacity:1" id="path2220" sodipodi:nodetypes="cc" />
            </g>
         </g>
         <g id="g2222" transform="matrix(1,0,0,-1,0,792)">
            <g id="g2224">
               <path d="M 1092.6658,425.20844 1070.8467,384.0307" style="fill:none;stroke:#000000;stroke-width:1.30769;stroke-linecap:round;stroke-linejoin:round;stroke-miterlimit:10;stroke-dasharray:none;stroke-opacity:1" id="path2226" sodipodi:nodetypes="cc" />
            </g>
         </g>
         <g id="g2228" transform="matrix(1,0,0,-1,0,792)">
            <g id="g2230">
               <path d="m 1070.8467,384.0307 -33.7785,21.45432" style="fill:none;stroke:#000000;stroke-width:1.30769;stroke-linecap:round;stroke-linejoin:round;stroke-miterlimit:10;stroke-dasharray:none;stroke-opacity:1" id="path2232" sodipodi:nodetypes="cc" />
            </g>
         </g>
         <g id="g2234" transform="matrix(1,0,0,-1,0,792)">
            <g id="g2236">
               <path d="m 1059.2221,445.047 c 0,0 -22.2712,-39.1473 -22.1539,-39.56198" style="fill:none;stroke:#000000;stroke-width:1.30769;stroke-linecap:round;stroke-linejoin:round;stroke-miterlimit:10;stroke-dasharray:none;stroke-opacity:1" id="path2238" sodipodi:nodetypes="cc" />
            </g>
         </g>
         <g id="g2240" transform="matrix(1,0,0,-1,0,792)">
            <g id="g2242">
               <path d="m 800.54987,461.92303 c 64.00258,2.07933 127.91304,8.44459 191.62574,13.29057 l 1.33423,-0.3083 0.78939,-0.1824" style="fill:none;stroke:#000000;stroke-width:1.30769;stroke-linecap:round;stroke-linejoin:round;stroke-miterlimit:10;stroke-dasharray:none;stroke-opacity:1" id="path2244" />
            </g>
         </g>
         <g id="g2246" transform="matrix(1,0,0,-1,0,792)">
            <g id="g2248">
               <path d="m 1001.2561,470.30273 c 0.9291,-5.68476 1.2641,-11.50291 0.5334,-17.23134" style="fill:none;stroke:#000000;stroke-width:1.30769;stroke-linecap:round;stroke-linejoin:round;stroke-miterlimit:10;stroke-dasharray:none;stroke-opacity:1" id="path2250" />
            </g>
         </g>
         <g id="g2252" transform="matrix(1,0,0,-1,0,792)">
            <g id="g2254">
               <path d="m 999.41534,467.21603 c 0.50266,-5.01261 2.41606,-10.0868 0.97636,-15.11903" style="fill:none;stroke:#000000;stroke-width:1.30769;stroke-linecap:round;stroke-linejoin:round;stroke-miterlimit:10;stroke-dasharray:none;stroke-opacity:1" id="path2256" />
            </g>
         </g>
         <g id="g2258" transform="matrix(1,0,0,-1,0,792)">
            <g id="g2260">
               <path d="m 798.2489,457.98558 c 1.60331,-32.04961 -7.97602,-68.77611 -5.21658,-100.87684" style="fill:none;stroke:#000000;stroke-width:1.30769;stroke-linecap:round;stroke-linejoin:round;stroke-miterlimit:10;stroke-dasharray:none;stroke-opacity:1" id="path2262" sodipodi:nodetypes="cc" />
            </g>
         </g>
         <g id="g2264" transform="matrix(1,0,0,-1,0,792)">
            <g id="g2266">
               <path d="m 795.47943,360.77338 c 72.32538,3.47805 144.46627,9.85936 216.62407,15.73376" style="fill:none;stroke:#000000;stroke-width:1.30769;stroke-linecap:round;stroke-linejoin:round;stroke-miterlimit:10;stroke-dasharray:none;stroke-opacity:1" id="path2268" />
            </g>
         </g>
         <g id="g2270" transform="matrix(1,0,0,-1,0,792)">
            <g id="g2272">
               <path d="m 1012.5138,398.06397 c -1.8185,-4.44191 5.3125,-24.11057 -4.0252,-23.03301 -1.4841,0.0419 -5.8188,0.0674 -7.3032,0.5284" style="fill:none;stroke:#000000;stroke-width:1.30769;stroke-linecap:round;stroke-linejoin:round;stroke-miterlimit:10;stroke-dasharray:none;stroke-opacity:1" id="path2274" sodipodi:nodetypes="ccc" />
            </g>
         </g>
         <g id="g2504" transform="matrix(1,0,0,-1,0,792)">
            <g id="g2506">
               <path d="m 909.16364,398.67224 c 1.7592,6.51852 -10.16176,8.72906 -10.68917,1.35859 0.0797,-7.87267 15.81679,-1.34495 11.19962,-11.77278 -1.81374,-4.96807 -14.26575,-3.78466 -11.08408,2.4922" style="fill:none;stroke:#000000;stroke-width:1.30769;stroke-linecap:round;stroke-linejoin:round;stroke-miterlimit:10;stroke-dasharray:none;stroke-opacity:1" id="path2508" />
            </g>
         </g>
         <g id="g2510" transform="matrix(1,0,0,-1,0,792)">
            <g id="g2512">
               <path d="m 915.08453,397.17862 8.59138,-8.14911" style="fill:none;stroke:#000000;stroke-width:1.30769;stroke-linecap:round;stroke-linejoin:round;stroke-miterlimit:10;stroke-dasharray:none;stroke-opacity:1" id="path2514" sodipodi:nodetypes="cc" />
            </g>
         </g>
         <g id="g2516" transform="matrix(1,0,0,-1,0,792)">
            <g id="g2518">
               <path d="m 923.29889,398.80014 c -2.21082,-2.94832 -6.61146,-8.47201 -8.45162,-11.67319" style="fill:none;stroke:#000000;stroke-width:1.30769;stroke-linecap:round;stroke-linejoin:round;stroke-miterlimit:10;stroke-dasharray:none;stroke-opacity:1" id="path2520" sodipodi:nodetypes="cc" />
            </g>
         </g>
         <g id="g2522" transform="matrix(1,0,0,-1,0,792)">
            <g id="g2524">
               <path d="m 937.88336,404.30374 c -1.43572,7.74279 -14.69656,0.0518 -8.14748,-5.00702 5.91059,1.31716 15.66107,-4.75666 7.398,-9.55153 -2.64003,-2.32164 -10.5141,0.87341 -7.09583,4.33649" style="fill:none;stroke:#000000;stroke-width:1.30769;stroke-linecap:round;stroke-linejoin:round;stroke-miterlimit:10;stroke-dasharray:none;stroke-opacity:1" id="path2526" />
            </g>
         </g>
         <g id="g2528" transform="matrix(1,0,0,-1,0,792)">
            <g id="g2530">
               <path d="m 951.86542,405.69495 c 1.06369,-4.83531 0.28764,-11.5398 1.64067,-15.52067" style="fill:none;stroke:#000000;stroke-width:1.30769;stroke-linecap:round;stroke-linejoin:round;stroke-miterlimit:10;stroke-dasharray:none;stroke-opacity:1" id="path2532" />
            </g>
         </g>
         <g id="g2534" transform="matrix(1,0,0,-1,0,792)">
            <g id="g2536">
               <path d="m 951.86542,405.69495 c 3.74029,5.5087 14.79402,-2.44627 5.09632,-5.62623 -1.32393,-0.57582 -3.14291,-0.2829 -4.2384,-1.32987" style="fill:none;stroke:#000000;stroke-width:1.30769;stroke-linecap:round;stroke-linejoin:round;stroke-miterlimit:10;stroke-dasharray:none;stroke-opacity:1" id="path2538" sodipodi:nodetypes="ccc" />
            </g>
         </g>
         <g id="g2540" transform="matrix(1,0,0,-1,0,792)">
            <g id="g2542">
               <path d="m 965.88226,404.53506 c 0.8923,-4.73944 2.58257,-15.58973 2.58257,-15.58973" style="fill:none;stroke:#000000;stroke-width:1.30769;stroke-linecap:round;stroke-linejoin:round;stroke-miterlimit:10;stroke-dasharray:none;stroke-opacity:1" id="path2544" sodipodi:nodetypes="cc" />
            </g>
         </g>
         <g id="g2546" transform="matrix(1,0,0,-1,0,792)">
            <g id="g2548">
               <path d="m 965.88226,404.53506 c 0.76642,7.14212 14.12127,5.8159 9.88359,-1.58659 -1.54652,-3.36633 -9.21866,-2.69185 -2.94667,-1.27421 4.04684,-0.62498 5.56554,-9.18993 5.36339,-9.92397" style="fill:none;stroke:#000000;stroke-width:1.30769;stroke-linecap:round;stroke-linejoin:round;stroke-miterlimit:10;stroke-dasharray:none;stroke-opacity:1" id="path2550" />
            </g>
         </g>
         <g id="g2552" transform="matrix(1,0,0,-1,0,792)">
            <g id="g2554">
               <path d="m 986.28625,408.18356 c -6.34792,-3.11947 -4.77971,-13.11367 0.79736,-16.16922 7.80872,-3.36274 12.3764,6.86446 7.53861,12.44367 -1.54291,2.79875 -4.85021,5.47745 -8.11878,3.63769" style="fill:none;stroke:#000000;stroke-width:1.30769;stroke-linecap:round;stroke-linejoin:round;stroke-miterlimit:10;stroke-dasharray:none;stroke-opacity:1" id="path2556" />
            </g>
         </g>
         <g id="g2558" transform="matrix(1,0,0,-1,0,792)">
            <g id="g2560">
               <path d="m 964.97119,459.66714 c -0.24712,2.10239 -2.84189,2.61522 -4.56169,2.12765 -1.62986,-0.17944 -3.96188,-0.21761 -4.50464,-2.14334 -0.47283,-1.80246 -1.79391,-3.82706 -0.64452,-5.63189 1.47137,-1.71811 3.90007,-0.80977 5.8019,-0.61765 2.12899,0.31128 4.72538,-0.093 5.86911,-2.14545 1.09352,-1.17121 2.3303,-3.22212 0.71854,-4.52484 -1.66378,-1.33211 -3.68939,-2.48165 -5.8651,-2.5577 -1.64771,0.2135 -4.09041,1.35421 -3.53685,3.39211 1.08117,1.94338 1.61071,4.12819 2.60451,6.10305 1.35696,2.41221 3.02217,3.43183 4.11874,5.99806" style="fill:none;stroke:#000000;stroke-width:1.30769;stroke-linecap:round;stroke-linejoin:round;stroke-miterlimit:10;stroke-dasharray:none;stroke-opacity:1" id="path2562" sodipodi:nodetypes="ccccccccccc" />
            </g>
         </g>
         <g id="g2564" transform="matrix(1,0,0,-1,3,792)">
            <g id="g2566">
               <path d="m 811.36273,452.15649 c -1.55235,1.45488 -3.92646,1.12724 -5.89378,1.09318 -2.02363,0.38238 -5.4658,-1.26461 -3.09291,-3.42208 1.716,-0.82093 3.66038,0.31378 5.51243,-0.35951 1.68862,-0.19806 3.95933,-1.08253 3.83495,-3.13713 -0.948,-1.60216 -3.34824,-2.0508 -5.15244,-2.27468 -0.70579,-0.0669 -4.60131,0.0551 -3.59948,1.0677" style="fill:none;stroke:#000000;stroke-width:1.30769;stroke-linecap:round;stroke-linejoin:round;stroke-miterlimit:10;stroke-dasharray:none;stroke-opacity:1" id="path2568" />
            </g>
         </g>
         <g id="g2570" transform="matrix(1,0,0,-1,3,792)">
            <g id="g2572">
               <path d="m 820.27808,451.95328 c -2.48978,0.65187 -3.50348,-2.52258 -4.42214,-4.23946 -0.40416,-1.89425 2.14721,-2.84262 3.7103,-2.92296 1.97624,-0.13266 4.19721,0.40403 5.569,1.89534 1.38242,1.66875 -0.0675,4.19964 -2.0797,4.39621 -0.77166,0.13589 -4.47251,2.39345 -2.77746,0.87087" style="fill:none;stroke:#000000;stroke-width:1.30769;stroke-linecap:round;stroke-linejoin:round;stroke-miterlimit:10;stroke-dasharray:none;stroke-opacity:1" id="path2574" sodipodi:nodetypes="cccccc" />
            </g>
         </g>
         <g id="g2576" transform="matrix(1,0,0,-1,0,792)">
            <g id="g2578">
               <path d="m 834.05823,446.28439 c 1.27708,1.79431 -0.64422,4.97176 0.42608,6.26002 3.49489,-0.49717 6.20477,-3.04905 9.54115,-4.01174 0.92624,-0.83539 2.47389,-1.37844 1.82047,0.53614 0.40115,1.28987 -1.19934,2.87475 -0.24463,3.95325" style="fill:none;stroke:#000000;stroke-width:1.30769;stroke-linecap:round;stroke-linejoin:round;stroke-miterlimit:10;stroke-dasharray:none;stroke-opacity:1" id="path2580" />
            </g>
         </g>
         <g id="g2582" transform="matrix(1,0,0,-1,0,792)">
            <g id="g2584">
               <path d="m 850.37671,452.98026 c 1.34944,-0.74288 2.46311,-2.08093 4.09998,-2.16415" style="fill:none;stroke:#000000;stroke-width:1.30769;stroke-linecap:round;stroke-linejoin:round;stroke-miterlimit:10;stroke-dasharray:none;stroke-opacity:1" id="path2586" />
            </g>
         </g>
         <g id="g2588" transform="matrix(1,0,0,-1,0,792)">
            <g id="g2590">
               <path d="m 857.49591,454.7695 c 1.55214,-0.36091 -1.09361,-2.54131 -1.56144,-3.42701 -0.11486,-0.24594 -0.48594,-0.47485 -0.4748,-0.76803" style="fill:none;stroke:#000000;stroke-width:1.30769;stroke-linecap:round;stroke-linejoin:round;stroke-miterlimit:10;stroke-dasharray:none;stroke-opacity:1" id="path2592" />
            </g>
         </g>
         <g id="g2594" transform="matrix(1,0,0,-1,0,792)">
            <g id="g2596">
               <path d="m 855.77197,450.31348 c 1.47671,-0.67978 0.23504,-3.49769 1.33451,-4.58638" style="fill:none;stroke:#000000;stroke-width:1.30769;stroke-linecap:round;stroke-linejoin:round;stroke-miterlimit:10;stroke-dasharray:none;stroke-opacity:1" id="path2598" />
            </g>
         </g>
         <g id="g2600" transform="matrix(1,0,0,-1,0,792)">
            <g id="g2602">
               <path d="m 1048.8262,416.6656 c 0,0 -1.9132,0.0144 -2.2268,-0.50271 -0.4185,-0.31651 -0.254,-2.19859 -0.254,-2.19859 0.7544,-0.0927 1.4668,-0.36926 2.1753,-0.24416 0.663,0.21093 1.1322,1.53273 1.8437,1.34831 0.3849,-0.0821 0.9127,0.0834 1.0842,-0.36847 0.1602,-0.22704 0.3205,-0.45409 0.4807,-0.68113 -0.3957,-0.39378 -0.9915,-0.6625 -1.0883,-1.26335 -0.1894,-0.18751 -1.2002,-0.45417 -0.437,-0.24693 0.096,0.029 0.192,0.0602 0.2889,0.087" style="fill:none;stroke:#000000;stroke-width:1.30769;stroke-linecap:round;stroke-linejoin:round;stroke-miterlimit:10;stroke-dasharray:none;stroke-opacity:1" id="path2604" sodipodi:nodetypes="cccccccccc" />
            </g>
         </g>
         <g id="g2606" transform="matrix(1,0,0,-1,0,792)">
            <g id="g2608">
               <path d="m 1049.2847,420.06451 c 0.047,-1.82494 3.5397,-2.37524 4.0843,-1.29905 0.7427,2.54555 -4.3381,2.64148 -4.0843,1.29905" style="fill:none;stroke:#000000;stroke-width:1.30769;stroke-linecap:round;stroke-linejoin:round;stroke-miterlimit:10;stroke-dasharray:none;stroke-opacity:1" id="path2610" sodipodi:nodetypes="ccc" />
            </g>
         </g>
         <g id="g2612" transform="matrix(1,0,0,-1,0,792)">
            <g id="g2614">
               <path d="m 1055.0806,423.47137 c -0.525,0.0527 0.3021,0.34102 -0.2781,0.45927 -0.9142,0.57692 -1.9621,0.88135 -2.9265,1.35244 0.7217,-0.37713 1.3653,0.20587 2.0748,0.2597 0.8233,0.0141 1.4741,0.60976 2.2229,0.78444 -0.694,0.16703 -0.5691,1.22614 -1.2888,1.38262 -0.048,0.52644 -2.279,0.78246 -1.4916,0.79225" style="fill:none;stroke:#000000;stroke-width:1.30769;stroke-linecap:round;stroke-linejoin:round;stroke-miterlimit:10;stroke-dasharray:none;stroke-opacity:1" id="path2616" sodipodi:nodetypes="ccccccc" />
            </g>
         </g>
         <g id="g2618" transform="matrix(1,0,0,-1,0,792)">
            <g id="g2620">
               <path d="m 1056.8289,431.38495 c 0.4332,0.48717 1.2841,0.14125 1.8373,0.55772 0.3256,0.16225 0.6969,0.50392 0.8774,0.55594 -0.6316,0.29058 -0.736,1.20707 -1.3999,1.49229 -0.205,0.31133 0.6653,0.56506 0.1091,0.70326 0.748,0.33571 0.7119,-0.82651 1.2513,-1.14044 0.4509,-0.45002 0.7243,-0.83522 0.6912,-1.42346 0.5482,-0.62971 1.0841,-1.27323 1.626,-1.91311" style="fill:none;stroke:#000000;stroke-width:1.30769;stroke-linecap:round;stroke-linejoin:round;stroke-miterlimit:10;stroke-dasharray:none;stroke-opacity:1" id="path2622" sodipodi:nodetypes="cccccccccccccccccccc" />
            </g>
         </g>
         <g id="g2624" transform="matrix(1,0,0,-1,0,792)">
            <g id="g2626">
               <path d="m 1075.8784,425.57068 c 0.4781,0.90046 -0.7367,0.69331 -0.6262,-0.0904 -0.051,-1.01893 -0.8149,-1.66349 -1.2981,-2.37874 0.4186,-1.07263 1.7925,-0.57364 2.6412,-0.43463 1.3572,0.3458 3.003,0.90844 4.2309,-0.0752 0.6396,-0.55453 1.5928,-2.47361 0.1565,-2.55157 -0.8416,0.0307 -2.0477,-0.91184 -2.1698,0.55134 -0.259,1.3912 0.1751,2.89204 -0.4323,4.21482 -0.958,0.68126 -1.4145,2.45511 -2.7344,2.38965 l -0.036,-0.0924" style="fill:none;stroke:#000000;stroke-width:1.30769;stroke-linecap:round;stroke-linejoin:round;stroke-miterlimit:10;stroke-dasharray:none;stroke-opacity:1" id="path2628" sodipodi:nodetypes="ccccccccccc" />
            </g>
         </g>
         <g id="g2630" transform="matrix(1,0,0,-1,0,792)">
            <g id="g2632">
               <path d="m 1060.8474,397.5856 c 0.643,0.16644 -0.3713,0.0705 0.1654,-0.21898 -0.7139,-0.93825 -1.4072,-1.94858 -1.5868,-3.13119 -0.2313,-0.80541 0.9687,0.56378 1.4302,0.50594 1.0135,0.21741 1.7081,1.36597 2.8423,1.03405 0.8157,-0.44676 1.4778,-1.49419 1.5527,-2.44002 -0.1626,-0.9749 -1.0975,-2.01267 -2.1367,-1.77669 0.039,0.14215 0.1617,0.34202 -0.041,0.42431" style="fill:none;stroke:#000000;stroke-width:1.30769;stroke-linecap:round;stroke-linejoin:round;stroke-miterlimit:10;stroke-dasharray:none;stroke-opacity:1" id="path2634" />
            </g>
         </g>
         <g id="g2636" transform="matrix(1,0,0,-1,0,792)">
            <g id="g2638">
               <path d="m 1066.017,398.6944 2.5985,1.34799" style="fill:none;stroke:#000000;stroke-width:1.30769;stroke-linecap:round;stroke-linejoin:round;stroke-miterlimit:10;stroke-dasharray:none;stroke-opacity:1" id="path2640" sodipodi:nodetypes="cc" />
            </g>
         </g>
         <g id="g2642" transform="matrix(1,0,0,-1,0,792)">
            <g id="g2644">
               <path d="m 1066.2557,400.34695 c 0.6799,-0.38807 2.0733,-2.35264 2.0733,-2.35264" style="fill:none;stroke:#000000;stroke-width:1.30769;stroke-linecap:round;stroke-linejoin:round;stroke-miterlimit:10;stroke-dasharray:none;stroke-opacity:1" id="path2646" sodipodi:nodetypes="cc" />
            </g>
         </g>
         <g id="g2648" transform="matrix(1,0,0,-1,0,792)">
            <g id="g2650">
               <path d="m 1067.1238,408.90628 c -0.5278,-0.73312 -1.3399,-1.44055 -1.6096,-2.24863 0.2794,-0.85944 1.3656,-1.16996 1.5549,-2.09106 0.1127,-0.68164 0.3109,0.7 0.857,0.44052 1.2725,0.64308 2.6618,1.01875 4.0432,1.33829 0.7726,0.21378 1.6566,-0.54858 1.064,-1.28875 -0.365,-0.55556 -0.4654,-1.41435 -1.218,-1.59306 -0.8355,0.0342 -0.6261,1.22446 -1.1024,1.70775 -0.4869,0.65193 -0.9816,1.44722 -1.0318,2.2933 -0.6719,0.73241 -1.5727,1.26985 -2.5573,1.44164 z" style="fill:none;stroke:#000000;stroke-width:1.30769;stroke-linecap:round;stroke-linejoin:round;stroke-miterlimit:10;stroke-dasharray:none;stroke-opacity:1" id="path2652" sodipodi:nodetypes="cccccccccc" />
            </g>
         </g>
      </g>
   </g>
</svg>
