<?xml version="1.0" encoding="UTF-8" standalone="no"?>
<!-- Created by Ashley Blewer - This work is licensed under a Creative Commons Attribution 4.0 International License -->

<svg width="544" height="480" viewBox="0 0 143.93334 127" version="1.1" id="svg2490" inkscape:version="1.1.2 (08b2f3d93c, 2022-04-05)" sodipodi:docname="2006-bluray-2.svg"
   xmlns:inkscape="http://www.inkscape.org/namespaces/inkscape"
   xmlns:sodipodi="http://sodipodi.sourceforge.net/DTD/sodipodi-0.dtd"
   xmlns="http://www.w3.org/2000/svg"
   xmlns:svg="http://www.w3.org/2000/svg">
   <sodipodi:namedview id="namedview2492" pagecolor="#ffffff" bordercolor="#666666" borderopacity="1.0" inkscape:pageshadow="2" inkscape:pageopacity="0.0" inkscape:pagecheckerboard="0" inkscape:document-units="mm" showgrid="false" units="px" inkscape:zoom="0.90583674" inkscape:cx="279.29978" inkscape:cy="194.84747" inkscape:window-width="1848" inkscape:window-height="1136" inkscape:window-x="72" inkscape:window-y="27" inkscape:window-maximized="1" inkscape:current-layer="layer1" />
   <defs id="defs2487" />
   <g inkscape:label="Layer 1" inkscape:groupmode="layer" id="layer1">
      <g id="g14211" transform="matrix(0.44220796,0,0,0.44243088,-380.2901,-7.2888936)" style="stroke-width:0.797564">
         <g id="g236" transform="scale(1,-1)" style="stroke-width:0.797564">
            <path d="m 1019.121,-63.109 c -36.043,25.843 -87.617,12.183 -116.176,-18.621 -33.687,-33.551 -38.406,-91.821 -8.593,-129.36 23.543,-32.949 69.168,-51.664 107.933,-35.617 6.168,2.293 12.129,5.145 17.817,8.449" style="fill:none;stroke:#000000;stroke-width:2.08593;stroke-linecap:round;stroke-linejoin:round;stroke-miterlimit:10;stroke-dasharray:none;stroke-opacity:1" id="path238" />
         </g>
         <g id="g240" transform="scale(1,-1)" style="stroke-width:0.797564">
            <path d="m 973.78408,-182.72247 c -42.153,-6.672 -40.838,63.91747 2.65,60.84747" style="fill:none;stroke:#000000;stroke-width:2.08593;stroke-linecap:round;stroke-linejoin:round;stroke-miterlimit:10;stroke-dasharray:none;stroke-opacity:1" id="path242" sodipodi:nodetypes="cc" />
         </g>
         <g id="g244" transform="scale(1,-1)" style="stroke-width:0.797564">
            <path d="m 971.453,-138.586 c -13.234,-0.305 -17.55117,-28.676 -1.46117,-24.16" style="fill:none;stroke:#000000;stroke-width:2.08593;stroke-linecap:round;stroke-linejoin:round;stroke-miterlimit:10;stroke-dasharray:none;stroke-opacity:1" id="path246" sodipodi:nodetypes="cc" />
         </g>
         <g id="g248" transform="scale(1,-1)" style="stroke-width:0.797564">
            <path d="m 1016.656,-66.16 c 49.805,34.172 129.61,9.086 146.981,-49.934 17.679,-46.562 -1.766,-107.551 -49.903,-126.726 -38.597,-20.047 -87.711,-7.7 -116.808,23.269 -24.227,23.61 -34.168,60.942 -21.438,92.75 9.215,27.778 14.34694,37.486175 41.168,60.641" style="fill:none;stroke:#000000;stroke-width:2.08593;stroke-linecap:round;stroke-linejoin:round;stroke-miterlimit:10;stroke-dasharray:none;stroke-opacity:1" id="path250" sodipodi:nodetypes="cccccc" />
         </g>
         <g id="g252" transform="scale(1,-1)" style="stroke-width:0.797564">
            <path d="m 1064.523,-121.438 c 20.1477,3.37901 35.7818,-9.66669 36.9615,-26.99186 1.7825,-17.89764 -7.0823,-35.92423 -26.1545,-36.32242 -20.7015,-1.64107 -38.6919,17.59024 -34.942,39.43794 2.6423,12.15457 11.6043,20.85119 24.135,23.87634 z" style="fill:none;stroke:#000000;stroke-width:2.08593;stroke-linecap:round;stroke-linejoin:round;stroke-miterlimit:10;stroke-dasharray:none;stroke-opacity:1" id="path254" sodipodi:nodetypes="ccccc" />
         </g>
         <g id="g256" transform="scale(1,-1)" style="stroke-width:0.797564">
            <path d="m 1064.8876,-142.77004 c 12.8011,9.20455 24.9284,-12.64479 11.1421,-18.62458 -10.6613,-6.95428 -23.1007,10.67577 -11.1421,18.62458 z" style="fill:none;stroke:#000000;stroke-width:2.08593;stroke-linecap:round;stroke-linejoin:round;stroke-miterlimit:10;stroke-dasharray:none;stroke-opacity:1" id="path258" sodipodi:nodetypes="ccc" />
         </g>
      </g>
   </g>
</svg>
