<?xml version="1.0" encoding="UTF-8" standalone="no"?>
<!-- Created by Ashley Blewer - This work is licensed under a Creative Commons Attribution 4.0 International License -->

<svg width="544" height="480" viewBox="0 0 143.93334 127" version="1.1" id="svg2490" inkscape:version="1.1.2 (08b2f3d93c, 2022-04-05)" sodipodi:docname="2006-bluray-3.svg"
   xmlns:inkscape="http://www.inkscape.org/namespaces/inkscape"
   xmlns:sodipodi="http://sodipodi.sourceforge.net/DTD/sodipodi-0.dtd"
   xmlns="http://www.w3.org/2000/svg"
   xmlns:svg="http://www.w3.org/2000/svg">
   <sodipodi:namedview id="namedview2492" pagecolor="#ffffff" bordercolor="#666666" borderopacity="1.0" inkscape:pageshadow="2" inkscape:pageopacity="0.0" inkscape:pagecheckerboard="0" inkscape:document-units="mm" showgrid="false" units="px" inkscape:zoom="0.90583674" inkscape:cx="279.29978" inkscape:cy="194.84747" inkscape:window-width="1848" inkscape:window-height="1136" inkscape:window-x="72" inkscape:window-y="27" inkscape:window-maximized="1" inkscape:current-layer="layer1" />
   <defs id="defs2487" />
   <g inkscape:label="Layer 1" inkscape:groupmode="layer" id="layer1">
      <g id="g49402" transform="matrix(0.37930797,0,0,0.37947377,-301.37275,-151.09604)" style="stroke-width:0.808511">
         <g id="g172" transform="scale(1,-1)" style="stroke-width:0.808511">
            <path id="path174" style="fill:none;stroke:#000000;stroke-width:2.11456;stroke-linecap:round;stroke-linejoin:round;stroke-miterlimit:10;stroke-dasharray:none;stroke-opacity:1" d="m 827.477,-672.074 c -28.06293,29.87041 -24.76521,78.96721 -1.15955,110.40416 20.05337,28.63841 58.81942,43.42896 92.35366,31.92102 32.39616,-9.87671 56.6759,-39.4856 61.89957,-72.69351 6.62355,-38.40711 -14.47917,-82.69384 -53.1091,-94.59725 -23.85409,-6.8337 -50.02826,-4.10936 -73.0225,4.56659 -10.4088,4.56689 -19.69455,13.18011 -26.96208,20.39899 z" sodipodi:nodetypes="ccccccc" />
         </g>
         <g id="g176" transform="scale(1,-1)" style="stroke-width:0.808511">
            <path d="m 882.734,-609.305 c 6.7817,10.42744 28.24531,0.42248 20.40656,-11.07803 -8.09503,-9.30138 -24.95396,-1.63807 -20.40656,11.07803 z" style="fill:none;stroke:#000000;stroke-width:2.11456;stroke-linecap:round;stroke-linejoin:round;stroke-miterlimit:10;stroke-dasharray:none;stroke-opacity:1" id="path178" sodipodi:nodetypes="ccccc" />
         </g>
         <g id="g180" transform="scale(1,-1)" style="stroke-width:0.808511">
            <path d="m 886.42979,-599.06151 c 13.15771,6.28233 28.91715,-6.55817 25.00487,-20.22487 -3.88201,-14.32782 -24.66447,-14.55644 -31.9419,-2.98494 -6.13371,8.24491 -3.4039,18.30982 6.93703,23.20981 z" style="fill:none;stroke:#000000;stroke-width:2.11456;stroke-linecap:round;stroke-linejoin:round;stroke-miterlimit:10;stroke-dasharray:none;stroke-opacity:1" id="path182" sodipodi:nodetypes="cccc" />
         </g>
         <g id="g184" transform="scale(1,-1)" style="stroke-width:0.808511">
            <path d="m 942.70089,-540.16953 c -0.379,28.285 -1.586,56.555 -2.609,84.813 -0.28055,15.45088 31.61511,13.55901 31.61511,13.55901 l 172.41,4.46952 c 8.3606,0.39325 7.4836,-31.633 7.4836,-31.633 0,0 5.0164,-145.402 1.9424,-214.539 0.555,-11.527 -3.6307,-15.50607 -14.8777,-17.42552 0,0 -182.24424,-1.01348 -189.76161,2.53777 l -3.20934,8.48575" style="fill:none;stroke:#000000;stroke-width:2.11456;stroke-linecap:round;stroke-linejoin:round;stroke-miterlimit:10;stroke-dasharray:none;stroke-opacity:1" id="path186" sodipodi:nodetypes="ccccccccc" />
         </g>
         <g id="g188" transform="scale(1,-1)" style="stroke-width:0.808511">
            <path d="m 945.69435,-689.902 c 36.26025,-1.86906 206.99625,-1.23034 206.99625,-1.23034" style="fill:none;stroke:#000000;stroke-width:2.11456;stroke-linecap:round;stroke-linejoin:round;stroke-miterlimit:10;stroke-dasharray:none;stroke-opacity:1" id="path190" sodipodi:nodetypes="cc" />
         </g>
         <g id="g192" transform="scale(1,-1)" style="stroke-width:0.808511">
            <path d="m 1151.9762,-505.23163 c -4.172,-5.301 -5.2479,-11.52637 -5.5689,-18.29537 l 1.3777,-97.219 c 1.016,-6.578 -3.4504,-19.133 6.9046,-18.367" style="fill:none;stroke:#000000;stroke-width:2.11456;stroke-linecap:round;stroke-linejoin:round;stroke-miterlimit:10;stroke-dasharray:none;stroke-opacity:1" id="path194" sodipodi:nodetypes="cccc" />
         </g>
         <g id="g196" transform="scale(1,-1)" style="stroke-width:0.808511">
            <path d="m 940.258,-463.73335 211.102,6.6349" style="fill:none;stroke:#000000;stroke-width:2.11456;stroke-linecap:round;stroke-linejoin:round;stroke-miterlimit:10;stroke-dasharray:none;stroke-opacity:1" id="path198" sodipodi:nodetypes="cc" />
         </g>
         <g id="g200" transform="scale(1,-1)" style="stroke-width:0.808511">
            <path d="m 1036.633,-447.75 c -0.3383,-0.18674 -1.0563,1.5173 0.3886,1.19531 1.8344,-0.20108 3.7506,0.41484 5.5134,-0.23527 0.5503,-1.00297 -2.5164,-0.80262 -3.4078,-0.36895 -0.8006,0.50252 -3.6737,0.77421 -1.4382,1.65415 1.707,0.72296 3.4585,1.34135 5.1743,2.03516 1.8795,0.4776 3.8449,0.2698 5.7642,0.41005 1.6842,-0.0394 3.2675,-0.91721 4.3669,-2.16464 2.1176,-1.10928 0.1088,-3.65858 -1.567,-3.95265 -1.5526,-0.66465 -3.2855,-0.77073 -4.9346,-0.94814 -1.8467,0.34244 -3.4949,-0.56973 -5.3036,-0.74949" style="fill:none;stroke:#000000;stroke-width:2.11456;stroke-linecap:round;stroke-linejoin:round;stroke-miterlimit:10;stroke-dasharray:none;stroke-opacity:1" id="path202" />
         </g>
         <g id="g204" transform="scale(1,-1)" style="stroke-width:0.808511">
            <path d="m 1032.902,-455.812 22.168,1.34299" style="fill:none;stroke:#000000;stroke-width:2.11456;stroke-linecap:round;stroke-linejoin:round;stroke-miterlimit:10;stroke-dasharray:none;stroke-opacity:1" id="path206" sodipodi:nodetypes="cc" />
         </g>
         <g id="g208" transform="scale(1,-1)" style="stroke-width:0.808511">
            <path d="m 941.934,-484.758 209.7318,5.75" style="fill:none;stroke:#000000;stroke-width:2.11456;stroke-linecap:round;stroke-linejoin:round;stroke-miterlimit:10;stroke-dasharray:none;stroke-opacity:1" id="path210" sodipodi:nodetypes="cc" />
         </g>
         <g id="g212" transform="scale(1,-1)" style="stroke-width:0.808511">
            <path d="m 984.234,-473.008 118.938,4.074" style="fill:none;stroke:#000000;stroke-width:2.11456;stroke-linecap:round;stroke-linejoin:round;stroke-miterlimit:10;stroke-dasharray:none;stroke-opacity:1" id="path214" />
         </g>
         <g id="g216" transform="scale(1,-1)" style="stroke-width:0.808511">
            <path d="m 971.33659,-659.71097 c 47.63331,14.47891 119.60431,15.40857 182.44091,-5.64227" style="fill:none;stroke:#000000;stroke-width:2.11456;stroke-linecap:round;stroke-linejoin:round;stroke-miterlimit:10;stroke-dasharray:none;stroke-opacity:1" id="path218" sodipodi:nodetypes="cc" />
         </g>
         <g id="g220" transform="scale(1,-1)" style="stroke-width:0.808511">
            <path d="m 967.5274,-666.852 c 1.94426,-0.16813 6.77481,0.59887 7.69321,-1.70969 l -0.84976,-12.28725 -20.36864,-0.99106" style="fill:none;stroke:#000000;stroke-width:2.11456;stroke-linecap:round;stroke-linejoin:round;stroke-miterlimit:10;stroke-dasharray:none;stroke-opacity:1" id="path222" sodipodi:nodetypes="cccc" />
         </g>
         <g id="g224" transform="scale(1,-1)" style="stroke-width:0.808511">
            <path d="m 1005.609,-671.008 c -0.121,0.297 0.196,-0.226 -0.367,-0.324 0.285,-0.445 -0.769,-0.535 -0.711,-1.141 -0.461,-0.777 -0.672,-1.527 -0.914,-2.312 0.891,-0.524 2.012,-0.488 3.031,-0.485 2.43,-0.015 4.868,-0.179 7.286,0.133 1.097,0.004 2.128,0.352 3.148,0.727 0.281,0.437 1.828,0.637 1.367,0.66 0.266,-0.281 0.371,0.633 -0.176,0.336" style="fill:none;stroke:#000000;stroke-width:2.11456;stroke-linecap:round;stroke-linejoin:round;stroke-miterlimit:10;stroke-dasharray:none;stroke-opacity:1" id="path226" />
         </g>
         <g id="g228" transform="scale(1,-1)" style="stroke-width:0.808511">
            <path d="m 1061.461,-670.359 c -1.1161,-2.50554 -0.044,-4.26334 2.3702,-5.32645 1.4032,-0.70892 3.3149,-0.55053 4.311,0.77024 0.9096,1.04158 1.316,2.64488 0.5347,3.87331 -0.971,1.78752 -3.3161,2.18569 -5.1384,1.7091 -0.7531,-0.19427 -1.4685,-0.54124 -2.0775,-1.0262" style="fill:none;stroke:#000000;stroke-width:2.11456;stroke-linecap:round;stroke-linejoin:round;stroke-miterlimit:10;stroke-dasharray:none;stroke-opacity:1" id="path230" sodipodi:nodetypes="cccccc" />
         </g>
         <g id="g232" transform="scale(1,-1)" style="stroke-width:0.808511">
            <path d="m 1113.059,-671.547 c -1.3778,0.65463 -3.3088,-0.56629 -2.6111,-2.16223 0.4027,-1.8954 2.6501,-3.65336 4.5392,-2.6208 1.3214,0.4227 2.7631,-0.30202 4.0502,0.37794 1.6519,0.57834 3.3561,1.7851 3.7106,3.59768 -0.026,1.8166 -2.1763,2.41729 -3.6669,2.45196 -2.799,0.1208 -5.3488,-1.24967 -7.999,-1.91356" style="fill:none;stroke:#000000;stroke-width:2.11456;stroke-linecap:round;stroke-linejoin:round;stroke-miterlimit:10;stroke-dasharray:none;stroke-opacity:1" id="path234" />
         </g>
      </g>
   </g>
</svg>
