<?xml version="1.0" encoding="UTF-8" standalone="no"?>
<!-- Created by Ashley Blewer - This work is licensed under a Creative Commons Attribution 4.0 International License -->

<svg width="544" height="480" viewBox="0 0 143.93334 127" version="1.1" id="svg2490" inkscape:version="1.1.2 (08b2f3d93c, 2022-04-05)" sodipodi:docname="2006-bluray-1.svg"
   xmlns:inkscape="http://www.inkscape.org/namespaces/inkscape"
   xmlns:sodipodi="http://sodipodi.sourceforge.net/DTD/sodipodi-0.dtd"
   xmlns="http://www.w3.org/2000/svg"
   xmlns:svg="http://www.w3.org/2000/svg">
   <sodipodi:namedview id="namedview2492" pagecolor="#ffffff" bordercolor="#666666" borderopacity="1.0" inkscape:pageshadow="2" inkscape:pageopacity="0.0" inkscape:pagecheckerboard="0" inkscape:document-units="mm" showgrid="false" units="px" inkscape:zoom="0.90583674" inkscape:cx="279.29978" inkscape:cy="194.84747" inkscape:window-width="1848" inkscape:window-height="1136" inkscape:window-x="72" inkscape:window-y="27" inkscape:window-maximized="1" inkscape:current-layer="layer1" />
   <defs id="defs2487" />
   <g inkscape:label="Layer 1" inkscape:groupmode="layer" id="layer1">
      <g id="g2475" transform="matrix(0.246197,0,0,0.246197,-1.9865594,-100.46466)" style="stroke-width:1.03934">
         <g id="g1149">
            <g id="g12" transform="matrix(1.2482403,0,0,-1.2516213,-57.733709,-143.12214)" style="stroke-width:0.831523">
               <path d="m 136.418,-622.457 c 0.387,9.199 -0.426,19.374 0.191,28.574" style="fill:none;stroke:#000000;stroke-width:2.17475;stroke-linecap:round;stroke-linejoin:round;stroke-miterlimit:10;stroke-dasharray:none;stroke-opacity:1" id="path14" sodipodi:nodetypes="cc" />
            </g>
            <g id="g16" transform="matrix(1.2482403,0,0,-1.2516213,-57.733709,-143.12214)" style="stroke-width:0.831523">
               <path d="m 136.609,-593.883 c 39.129,15.906 77.5,34.281 118.098,46.153 l 1.969,0.273" style="fill:none;stroke:#000000;stroke-width:2.17475;stroke-linecap:round;stroke-linejoin:round;stroke-miterlimit:10;stroke-dasharray:none;stroke-opacity:1" id="path18" />
            </g>
            <g id="g20" transform="matrix(1.2482403,0,0,-1.2516213,-57.733709,-143.12214)" style="stroke-width:0.831523">
               <path d="m 256.676,-547.457 253.976,-31.207 3.207,-0.629" style="fill:none;stroke:#000000;stroke-width:2.17475;stroke-linecap:round;stroke-linejoin:round;stroke-miterlimit:10;stroke-dasharray:none;stroke-opacity:1" id="path22" sodipodi:nodetypes="ccc" />
            </g>
            <g id="g24" transform="matrix(1.2482403,0,0,-1.2516213,-57.733709,-143.12214)" style="stroke-width:0.831523">
               <path d="m 513.859,-579.293 -0.16,-40.809" style="fill:none;stroke:#000000;stroke-width:2.17475;stroke-linecap:round;stroke-linejoin:round;stroke-miterlimit:10;stroke-dasharray:none;stroke-opacity:1" id="path26" sodipodi:nodetypes="cc" />
            </g>
            <g id="g28" transform="matrix(1.2482403,0,0,-1.2516213,-57.733709,-143.12214)" style="stroke-width:0.831523">
               <path d="m 407.715,-675.172 105.984,55.07" style="fill:none;stroke:#000000;stroke-width:2.17475;stroke-linecap:round;stroke-linejoin:round;stroke-miterlimit:10;stroke-dasharray:none;stroke-opacity:1" id="path30" sodipodi:nodetypes="cc" />
            </g>
            <g id="g32" transform="matrix(1.2482403,0,0,-1.2516213,-57.733709,-143.12214)" style="stroke-width:0.831523">
               <path d="m 407.223,-631.668 c 0,0 105.98,52.758 106.172,52.359" style="fill:none;stroke:#000000;stroke-width:2.17475;stroke-linecap:round;stroke-linejoin:round;stroke-miterlimit:10;stroke-dasharray:none;stroke-opacity:1" id="path34" sodipodi:nodetypes="cc" />
            </g>
            <g id="g36" transform="matrix(1.2482403,0,0,-1.2516213,-57.733709,-143.12214)" style="stroke-width:0.831523">
               <path d="m 136.664,-594.418 c 94.082,-12.437 182.082,-25.996 269.449,-37.266" style="fill:none;stroke:#000000;stroke-width:2.17475;stroke-linecap:round;stroke-linejoin:round;stroke-miterlimit:10;stroke-dasharray:none;stroke-opacity:1" id="path38" />
            </g>
            <g id="g40" transform="matrix(1.2482403,0,0,-1.2516213,-57.733709,-143.12214)" style="stroke-width:0.831523">
               <path d="m 407.223,-631.668 c -0.532,-14.191 -2.536,-29.387 0.492,-43.504" style="fill:none;stroke:#000000;stroke-width:2.17475;stroke-linecap:round;stroke-linejoin:round;stroke-miterlimit:10;stroke-dasharray:none;stroke-opacity:1" id="path42" sodipodi:nodetypes="cc" />
            </g>
            <g id="g44" transform="matrix(1.2482403,0,0,-1.2516213,-57.733709,-143.12214)" style="stroke-width:0.831523">
               <path d="m 140.535,-602.848 c 0,0 0.76737,-13.14969 0.74337,-18.24369" style="fill:none;stroke:#000000;stroke-width:2.17475;stroke-linecap:round;stroke-linejoin:round;stroke-miterlimit:10;stroke-dasharray:none;stroke-opacity:1" id="path46" sodipodi:nodetypes="cc" />
            </g>
            <g id="g48" transform="matrix(1.2482403,0,0,-1.2516213,-57.733709,-143.12214)" style="stroke-width:0.831523">
               <path d="m 140.535,-602.848 160.27,-21.24372" style="fill:none;stroke:#000000;stroke-width:2.17475;stroke-linecap:round;stroke-linejoin:round;stroke-miterlimit:10;stroke-dasharray:none;stroke-opacity:1" id="path50" sodipodi:nodetypes="cc" />
            </g>
            <g id="g52" transform="matrix(1.2482403,0,0,-1.2516213,-57.733709,-143.12214)" style="stroke-width:0.831523">
               <path d="m 300.805,-624.09172 c 0.16,-3.836 0.183,-9.24428 1.461,-12.91628" style="fill:none;stroke:#000000;stroke-width:2.17475;stroke-linecap:round;stroke-linejoin:round;stroke-miterlimit:10;stroke-dasharray:none;stroke-opacity:1" id="path54" sodipodi:nodetypes="cc" />
            </g>
            <g id="g56" transform="matrix(1.2482403,0,0,-1.2516213,-57.733709,-143.12214)" style="stroke-width:0.831523">
               <path d="m 302.266,-637.008 -4.188,1.871" style="fill:none;stroke:#000000;stroke-width:2.17475;stroke-linecap:round;stroke-linejoin:round;stroke-miterlimit:10;stroke-dasharray:none;stroke-opacity:1" id="path58" sodipodi:nodetypes="cc" />
            </g>
            <g id="g60" transform="matrix(1.2482403,0,0,-1.2516213,-57.733709,-143.12214)" style="stroke-width:0.831523">
               <path d="m 217.801,-679.609 c 26.563,13.406 57.219,26.429 83.906,39.586" style="fill:none;stroke:#000000;stroke-width:2.17475;stroke-linecap:round;stroke-linejoin:round;stroke-miterlimit:10;stroke-dasharray:none;stroke-opacity:1" id="path62" sodipodi:nodetypes="cc" />
            </g>
            <g id="g64" transform="matrix(1.2482403,0,0,-1.2516213,-57.733709,-143.12214)" style="stroke-width:0.831523">
               <path d="m 217.719,-664.711 c 29.20613,4.36533 38.62721,11.20186 80.359,29.574" style="fill:none;stroke:#000000;stroke-width:2.17475;stroke-linecap:round;stroke-linejoin:round;stroke-miterlimit:10;stroke-dasharray:none;stroke-opacity:1" id="path66" sodipodi:nodetypes="cc" />
            </g>
            <g id="g68" transform="matrix(1.2482403,0,0,-1.2516213,-57.733709,-143.12214)" style="stroke-width:0.831523">
               <path d="m 217.719,-664.711 c -0.972,-1.601 0.082,-14.898 0.082,-14.898" style="fill:none;stroke:#000000;stroke-width:2.17475;stroke-linecap:round;stroke-linejoin:round;stroke-miterlimit:10;stroke-dasharray:none;stroke-opacity:1" id="path70" sodipodi:nodetypes="cc" />
            </g>
            <g id="g72" transform="matrix(1.2482403,0,0,-1.2516213,-57.733709,-143.12214)" style="stroke-width:0.831523">
               <path d="M 64.478716,-642.45573 217.719,-664.711" style="fill:none;stroke:#000000;stroke-width:2.17475;stroke-linecap:round;stroke-linejoin:round;stroke-miterlimit:10;stroke-dasharray:none;stroke-opacity:1" id="path74" sodipodi:nodetypes="cc" />
            </g>
            <g id="g76" transform="matrix(1.2482403,0,0,-1.2516213,-57.733709,-143.12214)" style="stroke-width:0.831523">
               <path d="m 64.478716,-642.45573 c -0.675,-3.34 0.062,-10.28021 0,-13.63221" style="fill:none;stroke:#000000;stroke-width:2.17475;stroke-linecap:round;stroke-linejoin:round;stroke-miterlimit:10;stroke-dasharray:none;stroke-opacity:1" id="path78" sodipodi:nodetypes="cc" />
            </g>
            <g id="g80" transform="matrix(1.2482403,0,0,-1.2516213,-57.733709,-143.12214)" style="stroke-width:0.831523">
               <path d="M 64.478716,-656.08794 C 115.74072,-665.64694 165.801,-675.215 217.801,-679.609" style="fill:none;stroke:#000000;stroke-width:2.17475;stroke-linecap:round;stroke-linejoin:round;stroke-miterlimit:10;stroke-dasharray:none;stroke-opacity:1" id="path82" sodipodi:nodetypes="cc" />
            </g>
            <g id="g84" transform="matrix(1.2482403,0,0,-1.2516213,-57.733709,-143.12214)" style="stroke-width:0.831523">
               <path d="m 77.172,-658.82226 c 0.105,-0.746 0.164,-4.52974 0.269,-5.27974" style="fill:none;stroke:#000000;stroke-width:2.17475;stroke-linecap:round;stroke-linejoin:round;stroke-miterlimit:10;stroke-dasharray:none;stroke-opacity:1" id="path86" sodipodi:nodetypes="cc" />
            </g>
            <g id="g88" transform="matrix(1.2482403,0,0,-1.2516213,-57.733709,-143.12214)" style="stroke-width:0.831523">
               <path d="m 77.441,-664.102 c 37.2447,-6.42951 94.33348,-15.39258 127.13088,-18.20792 v 0" style="fill:none;stroke:#000000;stroke-width:2.17475;stroke-linecap:round;stroke-linejoin:round;stroke-miterlimit:10;stroke-dasharray:none;stroke-opacity:1" id="path90" sodipodi:nodetypes="ccc" />
            </g>
            <g id="g92" transform="matrix(1.2482403,0,0,-1.2516213,-57.733709,-143.12214)" style="stroke-width:0.831523">
               <path d="m 204.879,-678.648 c -0.82,-0.266 -0.30712,-3.66192 -0.30712,-3.66192" style="fill:none;stroke:#000000;stroke-width:2.17475;stroke-linecap:round;stroke-linejoin:round;stroke-miterlimit:10;stroke-dasharray:none;stroke-opacity:1" id="path94" sodipodi:nodetypes="cc" />
            </g>
            <g id="g96" transform="matrix(1.2482403,0,0,-1.2516213,-57.733709,-143.12214)" style="stroke-width:0.831523">
               <path d="m 85.516428,-645.3131 c 4.25,2.172 26.616692,11.98028 26.616692,11.98028" style="fill:none;stroke:#000000;stroke-width:2.17475;stroke-linecap:round;stroke-linejoin:round;stroke-miterlimit:10;stroke-dasharray:none;stroke-opacity:1" id="path98" sodipodi:nodetypes="cc" />
            </g>
            <g id="g100" transform="matrix(1.2482403,0,0,-1.2516213,-57.733709,-143.12214)" style="stroke-width:0.831523">
               <path d="m 137.496,-623.25 c 5.637,3.484 10.336,5.843 16.438,8.316" style="fill:none;stroke:#000000;stroke-width:2.17475;stroke-linecap:round;stroke-linejoin:round;stroke-miterlimit:10;stroke-dasharray:none;stroke-opacity:1" id="path102" sodipodi:nodetypes="cc" />
            </g>
            <g id="g104" transform="matrix(1.2482403,0,0,-1.2516213,-57.733709,-143.12214)" style="stroke-width:0.831523">
               <path d="M 153.11391,-604.77521 153.934,-614.934" style="fill:none;stroke:#000000;stroke-width:2.17475;stroke-linecap:round;stroke-linejoin:round;stroke-miterlimit:10;stroke-dasharray:none;stroke-opacity:1" id="path106" sodipodi:nodetypes="cc" />
            </g>
            <g id="g108" transform="matrix(1.2482403,0,0,-1.2516213,-57.733709,-143.12214)" style="stroke-width:0.831523">
               <path d="m 111.55156,-649.04684 c -15.496996,17.191 19.41744,23.37884 31.13244,27.35184 31.332,4.355 63.351,2.078 94.558,-2.289 10.867,-3.168 32.067,-5.129 29.758,-20.379 -9.965,-14.422 -29.867,-14.352 -45.512,-17.25 -7.113,-0.711 -15.61042,-0.81217 -22.73642,-0.14017" style="fill:none;stroke:#000000;stroke-width:2.17475;stroke-linecap:round;stroke-linejoin:round;stroke-miterlimit:10;stroke-dasharray:none;stroke-opacity:1" id="path110" sodipodi:nodetypes="cccccc" />
            </g>
            <g id="g112" transform="matrix(1.2482403,0,0,-1.2516213,-57.733709,-143.12214)" style="stroke-width:0.831523">
               <path d="m 164.602,-645.875 c -4.3845,2.47838 -0.52421,9.24923 5.78754,11.09992 12.11305,2.82534 25.47837,3.45253 36.95761,-2.09078 6.4763,-4.25763 0.99537,-8.91857 -6.78025,-10.36817 -11.8707,-2.57914 -24.21106,-2.08956 -35.9649,1.35903 z" style="fill:none;stroke:#000000;stroke-width:2.17475;stroke-linecap:round;stroke-linejoin:round;stroke-miterlimit:10;stroke-dasharray:none;stroke-opacity:1" id="path114" sodipodi:nodetypes="ccccc" />
            </g>
            <g id="g116" transform="matrix(1.2482403,0,0,-1.2516213,-57.733709,-143.12214)" style="stroke-width:0.831523">
               <path d="m 182.288,-642.375 c -13.99167,3.22337 25.72166,3.972 0,0" style="fill:none;stroke:#000000;stroke-width:2.17475;stroke-linecap:round;stroke-linejoin:round;stroke-miterlimit:10;stroke-dasharray:none;stroke-opacity:1" id="path118" sodipodi:nodetypes="cc" />
            </g>
            <g id="g120" transform="matrix(1.2482403,0,0,-1.2516213,-57.733709,-143.12214)" style="stroke-width:0.831523">
               <path d="m 278.1872,-651.58629 c 0,0 44.24057,-6.3197 49.9538,-7.19471" style="fill:none;stroke:#000000;stroke-width:2.17475;stroke-linecap:round;stroke-linejoin:round;stroke-miterlimit:10;stroke-dasharray:none;stroke-opacity:1" id="path122" sodipodi:nodetypes="cc" />
            </g>
            <g id="g124" transform="matrix(1.2482403,0,0,-1.2516213,-57.733709,-143.12214)" style="stroke-width:0.831523">
               <path d="m 328.141,-658.781 c 3.71,-3.382 9.386,-7.989 14.07,-9.922" style="fill:none;stroke:#000000;stroke-width:2.17475;stroke-linecap:round;stroke-linejoin:round;stroke-miterlimit:10;stroke-dasharray:none;stroke-opacity:1" id="path126" sodipodi:nodetypes="cc" />
            </g>
            <g id="g128" transform="matrix(1.2482403,0,0,-1.2516213,-57.733709,-143.12214)" style="stroke-width:0.831523">
               <path d="m 262.71775,-658.30151 c 26.352,-2.91 53.20825,-6.97549 79.49325,-10.40149" style="fill:none;stroke:#000000;stroke-width:2.17475;stroke-linecap:round;stroke-linejoin:round;stroke-miterlimit:10;stroke-dasharray:none;stroke-opacity:1" id="path130" sodipodi:nodetypes="cc" />
            </g>
            <g id="g132" transform="matrix(1.2482403,0,0,-1.2516213,-57.733709,-143.12214)" style="stroke-width:0.831523">
               <path d="m 338.953,-667.27 c -0.297,4.641 -2.379,8.864 -3.926,13.165" style="fill:none;stroke:#000000;stroke-width:2.17475;stroke-linecap:round;stroke-linejoin:round;stroke-miterlimit:10;stroke-dasharray:none;stroke-opacity:1" id="path134" />
            </g>
            <g id="g136" transform="matrix(1.2482403,0,0,-1.2516213,-57.733709,-143.12214)" style="stroke-width:0.831523">
               <path d="m 326.75697,-657.6454 c 2.762,0.969 6.195,0.797 8.199,3.309" style="fill:none;stroke:#000000;stroke-width:2.17475;stroke-linecap:round;stroke-linejoin:round;stroke-miterlimit:10;stroke-dasharray:none;stroke-opacity:1" id="path138" />
            </g>
            <g id="g140" transform="matrix(1.2482403,0,0,-1.2516213,-57.733709,-143.12214)" style="stroke-width:0.831523">
               <path d="m 336.3052,-653.09323 c 0.094,7.793 -1.4812,15.90123 -2.3442,23.57323" style="fill:none;stroke:#000000;stroke-width:2.17475;stroke-linecap:round;stroke-linejoin:round;stroke-miterlimit:10;stroke-dasharray:none;stroke-opacity:1" id="path142" sodipodi:nodetypes="cc" />
            </g>
            <g id="g144" transform="matrix(1.2482403,0,0,-1.2516213,-57.733709,-143.12214)" style="stroke-width:0.831523">
               <path d="M 322.20056,-628.74352 333.961,-629.52" style="fill:none;stroke:#000000;stroke-width:2.17475;stroke-linecap:round;stroke-linejoin:round;stroke-miterlimit:10;stroke-dasharray:none;stroke-opacity:1" id="path146" sodipodi:nodetypes="cc" />
            </g>
            <g id="g148" transform="matrix(1.2482403,0,0,-1.2516213,-57.733709,-143.12214)" style="stroke-width:0.831523">
               <path d="m 322.20056,-628.74352 c 1.356,-7.019 2.01844,-16.14709 2.42044,-23.26409" style="fill:none;stroke:#000000;stroke-width:2.17475;stroke-linecap:round;stroke-linejoin:round;stroke-miterlimit:10;stroke-dasharray:none;stroke-opacity:1" id="path150" sodipodi:nodetypes="cc" />
            </g>
            <g id="g152" transform="matrix(1.2482403,0,0,-1.2516213,-57.733709,-143.12214)" style="stroke-width:0.831523">
               <path d="m 293.168,-648.051 c 15.195,-1.625 27.8252,-4.56923 43.1372,-5.04223" style="fill:none;stroke:#000000;stroke-width:2.17475;stroke-linecap:round;stroke-linejoin:round;stroke-miterlimit:10;stroke-dasharray:none;stroke-opacity:1" id="path154" sodipodi:nodetypes="cc" />
            </g>
            <g id="g156" transform="matrix(1.2482403,0,0,-1.2516213,-57.733709,-143.12214)" style="stroke-width:0.831523">
               <path d="m 377.227,-661.758 c -3.95,13.84 29.886,-1.695 8.812,-1.191 -3.375,0.121 -5.508,0.206 -8.812,1.191" style="fill:none;stroke:#000000;stroke-width:2.17475;stroke-linecap:round;stroke-linejoin:round;stroke-miterlimit:10;stroke-dasharray:none;stroke-opacity:1" id="path158" sodipodi:nodetypes="ccc" />
            </g>
            <g id="g160" transform="matrix(1.2482403,0,0,-1.2516213,-57.733709,-143.12214)" style="stroke-width:0.831523">
               <path d="m 342.211,-668.703 c 19.53019,-1.48301 42.45443,-4.2407 65.504,-6.469" style="fill:none;stroke:#000000;stroke-width:2.17475;stroke-linecap:round;stroke-linejoin:round;stroke-miterlimit:10;stroke-dasharray:none;stroke-opacity:1" id="path162" sodipodi:nodetypes="cc" />
            </g>
            <g id="g164" transform="matrix(1.2482403,0,0,-1.2516213,-57.733709,-143.12214)" style="stroke-width:0.831523">
               <path d="m 340.035,-645.914 c 13.13986,-1.34261 53.53969,-6.16173 65.86631,-7.582" style="fill:none;stroke:#000000;stroke-width:2.17475;stroke-linecap:round;stroke-linejoin:round;stroke-miterlimit:10;stroke-dasharray:none;stroke-opacity:1" id="path166" sodipodi:nodetypes="cc" />
            </g>
            <g id="g168" transform="matrix(1.2482403,0,0,-1.2516213,-57.733709,-143.12214)" style="stroke-width:0.831523">
               <path d="m 354.297,-636.926 c -0.848,-6.269 6.293,2.805 -0.59,0.293" style="fill:none;stroke:#000000;stroke-width:2.17475;stroke-linecap:round;stroke-linejoin:round;stroke-miterlimit:10;stroke-dasharray:none;stroke-opacity:1" id="path170" />
            </g>
         </g>
      </g>
   </g>
</svg>
